<?xml version='1.0' encoding='utf-8'?>
<mlt LC_NUMERIC="C" producer="main_bin" version="7.2.0" root="/home/xiaoxiae/Documents/Education/Programming/Manim/09-bathroom-tiles">
 <profile frame_rate_num="60" sample_aspect_num="1" display_aspect_den="9" colorspace="709" progressive="1" description="4K UHD 2160p 60 fps" display_aspect_num="16" frame_rate_den="1" width="3840" height="2160" sample_aspect_den="1"/>
 <producer id="producer0" in="00:00:00.000" out="00:02:46.650">
  <property name="length">10000</property>
  <property name="eof">pause</property>
  <property name="resource">audio/music/Confectionery - Beignet.mp3</property>
  <property name="meta.media.nb_streams">1</property>
  <property name="meta.media.0.stream.type">audio</property>
  <property name="meta.media.0.codec.sample_fmt">fltp</property>
  <property name="meta.media.0.codec.sample_rate">44100</property>
  <property name="meta.media.0.codec.channels">2</property>
  <property name="meta.media.0.codec.name">mp3float</property>
  <property name="meta.media.0.codec.long_name">MP3 (MPEG audio layer 3)</property>
  <property name="meta.media.0.codec.bit_rate">128000</property>
  <property name="meta.attr.comment.markup">For track information and licensing visit www.sessions.blue</property>
  <property name="meta.attr.title.markup">Beignet</property>
  <property name="meta.attr.album.markup">Confectionery</property>
  <property name="meta.attr.composer.markup">Galen Huckins</property>
  <property name="meta.attr.artist.markup">Blue Dot Sessions</property>
  <property name="meta.attr.publisher.markup">Blue Dot Studios</property>
  <property name="meta.attr.genre.markup">instrumental</property>
  <property name="meta.attr.TKEY.markup">F</property>
  <property name="meta.attr.TBPM.markup">130</property>
  <property name="meta.attr.TSRC.markup">USL4R1810588</property>
  <property name="meta.attr.website.markup">www.sessions.blue</property>
  <property name="meta.attr.copyright.markup">(CCBYNC) 2018 Creative Commons NonCommercial-Attribution</property>
  <property name="meta.attr.date.markup">2018</property>
  <property name="seekable">1</property>
  <property name="audio_index">0</property>
  <property name="video_index">-1</property>
  <property name="mute_on_pause">1</property>
  <property name="mlt_service">avformat</property>
  <property name="kdenlive:clipname"/>
  <property name="kdenlive:folderid">4</property>
  <property name="kdenlive:id">2</property>
  <property name="kdenlive:file_size">2667281</property>
  <property name="kdenlive:file_hash">20d55602226233b791982303dde83926</property>
 </producer>
 <producer id="producer1" in="00:00:00.000" out="00:02:10.250">
  <property name="length">7816</property>
  <property name="eof">pause</property>
  <property name="resource">audio/music/Confectionery - Bundt.mp3</property>
  <property name="meta.media.nb_streams">1</property>
  <property name="meta.media.0.stream.type">audio</property>
  <property name="meta.media.0.codec.sample_fmt">fltp</property>
  <property name="meta.media.0.codec.sample_rate">44100</property>
  <property name="meta.media.0.codec.channels">2</property>
  <property name="meta.media.0.codec.name">mp3float</property>
  <property name="meta.media.0.codec.long_name">MP3 (MPEG audio layer 3)</property>
  <property name="meta.media.0.codec.bit_rate">128000</property>
  <property name="meta.attr.comment.markup">For track information and licensing visit www.sessions.blue</property>
  <property name="meta.attr.title.markup">Bundt</property>
  <property name="meta.attr.album.markup">Confectionery</property>
  <property name="meta.attr.composer.markup">Galen Huckins</property>
  <property name="meta.attr.artist.markup">Blue Dot Sessions</property>
  <property name="meta.attr.publisher.markup">Blue Dot Studios</property>
  <property name="meta.attr.genre.markup">instrumental</property>
  <property name="meta.attr.TKEY.markup">C</property>
  <property name="meta.attr.TBPM.markup">135</property>
  <property name="meta.attr.TSRC.markup">USL4R1810603</property>
  <property name="meta.attr.website.markup">www.sessions.blue</property>
  <property name="meta.attr.copyright.markup">(CCBYNC) 2018 Creative Commons NonCommercial-Attribution</property>
  <property name="meta.attr.date.markup">2018</property>
  <property name="seekable">1</property>
  <property name="audio_index">0</property>
  <property name="video_index">-1</property>
  <property name="mute_on_pause">1</property>
  <property name="mlt_service">avformat</property>
  <property name="kdenlive:clipname"/>
  <property name="kdenlive:folderid">4</property>
  <property name="kdenlive:id">5</property>
  <property name="kdenlive:file_size">2085060</property>
  <property name="kdenlive:file_hash">3a1817a2b457b870d719e4fd583aeff4</property>
 </producer>
 <producer id="producer2" in="00:00:00.000" out="00:03:46.050">
  <property name="length">13564</property>
  <property name="eof">pause</property>
  <property name="resource">audio/music/Confectionery - Palms Down.mp3</property>
  <property name="meta.media.nb_streams">1</property>
  <property name="meta.media.0.stream.type">audio</property>
  <property name="meta.media.0.codec.sample_fmt">fltp</property>
  <property name="meta.media.0.codec.sample_rate">44100</property>
  <property name="meta.media.0.codec.channels">2</property>
  <property name="meta.media.0.codec.name">mp3float</property>
  <property name="meta.media.0.codec.long_name">MP3 (MPEG audio layer 3)</property>
  <property name="meta.media.0.codec.bit_rate">128000</property>
  <property name="meta.attr.comment.markup">For track information and licensing visit www.sessions.blue</property>
  <property name="meta.attr.title.markup">Palms Down</property>
  <property name="meta.attr.album.markup">Confectionery</property>
  <property name="meta.attr.composer.markup">Galen Huckins</property>
  <property name="meta.attr.artist.markup">Blue Dot Sessions</property>
  <property name="meta.attr.publisher.markup">Blue Dot Studios</property>
  <property name="meta.attr.genre.markup">instrumental</property>
  <property name="meta.attr.TKEY.markup">C</property>
  <property name="meta.attr.TBPM.markup">128</property>
  <property name="meta.attr.TSRC.markup">USL4R1810602</property>
  <property name="meta.attr.website.markup">www.sessions.blue</property>
  <property name="meta.attr.copyright.markup">(CCBYNC) 2018 Creative Commons NonCommercial-Attribution</property>
  <property name="meta.attr.date.markup">2018</property>
  <property name="seekable">1</property>
  <property name="audio_index">0</property>
  <property name="video_index">-1</property>
  <property name="mute_on_pause">1</property>
  <property name="mlt_service">avformat</property>
  <property name="kdenlive:clipname"/>
  <property name="kdenlive:folderid">4</property>
  <property name="kdenlive:id">6</property>
  <property name="kdenlive:file_size">3617726</property>
  <property name="kdenlive:file_hash">f54be5ed1354cfa7769dde43694fbed5</property>
 </producer>
 <producer id="producer3" in="00:00:00.000" out="00:02:59.500">
  <property name="length">10771</property>
  <property name="eof">pause</property>
  <property name="resource">audio/music/Glass Obelisk - Dell Mare.mp3</property>
  <property name="meta.media.nb_streams">1</property>
  <property name="meta.media.0.stream.type">audio</property>
  <property name="meta.media.0.codec.sample_fmt">fltp</property>
  <property name="meta.media.0.codec.sample_rate">44100</property>
  <property name="meta.media.0.codec.channels">2</property>
  <property name="meta.media.0.codec.name">mp3float</property>
  <property name="meta.media.0.codec.long_name">MP3 (MPEG audio layer 3)</property>
  <property name="meta.media.0.codec.bit_rate">128000</property>
  <property name="meta.attr.comment.markup">For track information and licensing visit www.sessions.blue</property>
  <property name="meta.attr.title.markup">Dell Mare</property>
  <property name="meta.attr.album.markup">Glass Obelisk</property>
  <property name="meta.attr.composer.markup">Galen Huckins</property>
  <property name="meta.attr.artist.markup">Blue Dot Sessions</property>
  <property name="meta.attr.publisher.markup">Blue Dot Studios</property>
  <property name="meta.attr.genre.markup">instrumental</property>
  <property name="meta.attr.TKEY.markup">G</property>
  <property name="meta.attr.TBPM.markup">115</property>
  <property name="meta.attr.website.markup">www.sessions.blue</property>
  <property name="meta.attr.copyright.markup">(CCBYNC) 2020 Creative Commons NonCommercial-Attribution</property>
  <property name="meta.attr.date.markup">2020</property>
  <property name="seekable">1</property>
  <property name="audio_index">0</property>
  <property name="video_index">-1</property>
  <property name="mute_on_pause">1</property>
  <property name="mlt_service">avformat</property>
  <property name="kdenlive:clipname"/>
  <property name="kdenlive:folderid">4</property>
  <property name="kdenlive:id">7</property>
  <property name="kdenlive:file_size">2872884</property>
  <property name="kdenlive:file_hash">63e1874b3fbd6452cb40b0a1b07b5f17</property>
 </producer>
 <producer id="producer4" in="00:00:00.000" out="00:02:47.633">
  <property name="length">10059</property>
  <property name="eof">pause</property>
  <property name="resource">audio/music/Glass Obelisk - Morning Glare.mp3</property>
  <property name="meta.media.nb_streams">1</property>
  <property name="meta.media.0.stream.type">audio</property>
  <property name="meta.media.0.codec.sample_fmt">fltp</property>
  <property name="meta.media.0.codec.sample_rate">44100</property>
  <property name="meta.media.0.codec.channels">2</property>
  <property name="meta.media.0.codec.name">mp3float</property>
  <property name="meta.media.0.codec.long_name">MP3 (MPEG audio layer 3)</property>
  <property name="meta.media.0.codec.bit_rate">128000</property>
  <property name="meta.attr.comment.markup">For track information and licensing visit www.sessions.blue</property>
  <property name="meta.attr.title.markup">Morning Glare</property>
  <property name="meta.attr.album.markup">Glass Obelisk</property>
  <property name="meta.attr.composer.markup">Galen Huckins</property>
  <property name="meta.attr.artist.markup">Blue Dot Sessions</property>
  <property name="meta.attr.publisher.markup">Blue Dot Studios</property>
  <property name="meta.attr.genre.markup">instrumental</property>
  <property name="meta.attr.TKEY.markup">C#m</property>
  <property name="meta.attr.TBPM.markup">115</property>
  <property name="meta.attr.website.markup">www.sessions.blue</property>
  <property name="meta.attr.copyright.markup">(CCBYNC) 2020 Creative Commons NonCommercial-Attribution</property>
  <property name="meta.attr.date.markup">2020</property>
  <property name="seekable">1</property>
  <property name="audio_index">0</property>
  <property name="video_index">-1</property>
  <property name="mute_on_pause">1</property>
  <property name="mlt_service">avformat</property>
  <property name="kdenlive:clipname"/>
  <property name="kdenlive:folderid">4</property>
  <property name="kdenlive:id">8</property>
  <property name="kdenlive:file_size">2683143</property>
  <property name="kdenlive:file_hash">3736407e9170fe2b3adcf27fbe6e58ac</property>
 </producer>
 <producer id="producer5" in="00:00:00.000" out="00:03:11.383">
  <property name="length">11484</property>
  <property name="eof">pause</property>
  <property name="resource">audio/music/Glass Obelisk - Pacific Time.mp3</property>
  <property name="meta.media.nb_streams">1</property>
  <property name="meta.media.0.stream.type">audio</property>
  <property name="meta.media.0.codec.sample_fmt">fltp</property>
  <property name="meta.media.0.codec.sample_rate">44100</property>
  <property name="meta.media.0.codec.channels">2</property>
  <property name="meta.media.0.codec.name">mp3float</property>
  <property name="meta.media.0.codec.long_name">MP3 (MPEG audio layer 3)</property>
  <property name="meta.media.0.codec.bit_rate">128000</property>
  <property name="meta.attr.comment.markup">For track information and licensing visit www.sessions.blue</property>
  <property name="meta.attr.title.markup">Pacific Time</property>
  <property name="meta.attr.album.markup">Glass Obelisk</property>
  <property name="meta.attr.composer.markup">Galen Huckins</property>
  <property name="meta.attr.artist.markup">Blue Dot Sessions</property>
  <property name="meta.attr.publisher.markup">Blue Dot Studios</property>
  <property name="meta.attr.genre.markup">instrumental</property>
  <property name="meta.attr.TKEY.markup">C</property>
  <property name="meta.attr.TBPM.markup">95</property>
  <property name="meta.attr.website.markup">www.sessions.blue</property>
  <property name="meta.attr.copyright.markup">(CCBYNC) 2020 Creative Commons NonCommercial-Attribution</property>
  <property name="meta.attr.date.markup">2020</property>
  <property name="seekable">1</property>
  <property name="audio_index">0</property>
  <property name="video_index">-1</property>
  <property name="mute_on_pause">1</property>
  <property name="mlt_service">avformat</property>
  <property name="kdenlive:clipname"/>
  <property name="kdenlive:folderid">4</property>
  <property name="kdenlive:id">9</property>
  <property name="kdenlive:file_size">3063059</property>
  <property name="kdenlive:file_hash">20b6ce6fc1cbfb73b5b5595ea96835c6</property>
 </producer>
 <producer id="producer6" in="00:00:00.000" out="00:03:08.383">
  <property name="length">11304</property>
  <property name="eof">pause</property>
  <property name="resource">audio/music/Glass Obelisk - Plate Glass.mp3</property>
  <property name="meta.media.nb_streams">1</property>
  <property name="meta.media.0.stream.type">audio</property>
  <property name="meta.media.0.codec.sample_fmt">fltp</property>
  <property name="meta.media.0.codec.sample_rate">44100</property>
  <property name="meta.media.0.codec.channels">2</property>
  <property name="meta.media.0.codec.name">mp3float</property>
  <property name="meta.media.0.codec.long_name">MP3 (MPEG audio layer 3)</property>
  <property name="meta.media.0.codec.bit_rate">128000</property>
  <property name="meta.attr.comment.markup">For track information and licensing visit www.sessions.blue</property>
  <property name="meta.attr.title.markup">Plate Glass</property>
  <property name="meta.attr.album.markup">Glass Obelisk</property>
  <property name="meta.attr.composer.markup">Galen Huckins</property>
  <property name="meta.attr.artist.markup">Blue Dot Sessions</property>
  <property name="meta.attr.publisher.markup">Blue Dot Studios</property>
  <property name="meta.attr.genre.markup">instrumental</property>
  <property name="meta.attr.TKEY.markup">G</property>
  <property name="meta.attr.TBPM.markup">115</property>
  <property name="meta.attr.website.markup">www.sessions.blue</property>
  <property name="meta.attr.copyright.markup">(CCBYNC) 2020 Creative Commons NonCommercial-Attribution</property>
  <property name="meta.attr.date.markup">2020</property>
  <property name="seekable">1</property>
  <property name="audio_index">0</property>
  <property name="video_index">-1</property>
  <property name="mute_on_pause">1</property>
  <property name="mlt_service">avformat</property>
  <property name="kdenlive:clipname"/>
  <property name="kdenlive:folderid">4</property>
  <property name="kdenlive:id">10</property>
  <property name="kdenlive:file_size">3014994</property>
  <property name="kdenlive:file_hash">f638bc12f1c14e40c6ea0291e2335f3e</property>
 </producer>
 <producer id="producer7" in="00:00:00.000" out="00:02:54.800">
  <property name="length">10489</property>
  <property name="eof">pause</property>
  <property name="resource">audio/music/Nursery - A Little Powder.mp3</property>
  <property name="meta.media.nb_streams">1</property>
  <property name="meta.media.0.stream.type">audio</property>
  <property name="meta.media.0.codec.sample_fmt">fltp</property>
  <property name="meta.media.0.codec.sample_rate">44100</property>
  <property name="meta.media.0.codec.channels">2</property>
  <property name="meta.media.0.codec.name">mp3float</property>
  <property name="meta.media.0.codec.long_name">MP3 (MPEG audio layer 3)</property>
  <property name="meta.media.0.codec.bit_rate">128000</property>
  <property name="meta.attr.comment.markup">For track information and licensing visit www.sessions.blue</property>
  <property name="meta.attr.title.markup">A Little Powder</property>
  <property name="meta.attr.album.markup">Nursery</property>
  <property name="meta.attr.composer.markup">Galen Huckins</property>
  <property name="meta.attr.artist.markup">Blue Dot Sessions</property>
  <property name="meta.attr.publisher.markup">Blue Dot Studios</property>
  <property name="meta.attr.genre.markup">instrumental</property>
  <property name="meta.attr.TKEY.markup">C</property>
  <property name="meta.attr.TBPM.markup">146</property>
  <property name="meta.attr.TSRC.markup">USHM81825733</property>
  <property name="meta.attr.website.markup">www.sessions.blue</property>
  <property name="meta.attr.copyright.markup">(CCBYNC) 2018 Creative Commons NonCommercial-Attribution</property>
  <property name="meta.attr.date.markup">2018</property>
  <property name="seekable">1</property>
  <property name="audio_index">0</property>
  <property name="video_index">-1</property>
  <property name="mute_on_pause">1</property>
  <property name="mlt_service">avformat</property>
  <property name="kdenlive:clipname"/>
  <property name="kdenlive:folderid">4</property>
  <property name="kdenlive:id">11</property>
  <property name="kdenlive:file_size">2797688</property>
  <property name="kdenlive:file_hash">647f99d349b7d7c18f2ddbbf9e146b9b</property>
 </producer>
 <producer id="producer8" in="00:00:00.000" out="00:02:38.883">
  <property name="length">9534</property>
  <property name="eof">pause</property>
  <property name="resource">audio/music/Nursery - Lick Stick.mp3</property>
  <property name="meta.media.nb_streams">1</property>
  <property name="meta.media.0.stream.type">audio</property>
  <property name="meta.media.0.codec.sample_fmt">fltp</property>
  <property name="meta.media.0.codec.sample_rate">44100</property>
  <property name="meta.media.0.codec.channels">2</property>
  <property name="meta.media.0.codec.name">mp3float</property>
  <property name="meta.media.0.codec.long_name">MP3 (MPEG audio layer 3)</property>
  <property name="meta.media.0.codec.bit_rate">128000</property>
  <property name="meta.attr.comment.markup">For track information and licensing visit www.sessions.blue</property>
  <property name="meta.attr.title.markup">Lick Stick</property>
  <property name="meta.attr.album.markup">Nursery</property>
  <property name="meta.attr.composer.markup">Galen Huckins</property>
  <property name="meta.attr.artist.markup">Blue Dot Sessions</property>
  <property name="meta.attr.publisher.markup">Blue Dot Studios</property>
  <property name="meta.attr.genre.markup">instrumental</property>
  <property name="meta.attr.TKEY.markup">C</property>
  <property name="meta.attr.TBPM.markup">109</property>
  <property name="meta.attr.TSRC.markup">USHM81825736</property>
  <property name="meta.attr.website.markup">www.sessions.blue</property>
  <property name="meta.attr.copyright.markup">(CCBYNC) 2018 Creative Commons NonCommercial-Attribution</property>
  <property name="meta.attr.date.markup">2018</property>
  <property name="seekable">1</property>
  <property name="audio_index">0</property>
  <property name="video_index">-1</property>
  <property name="mute_on_pause">1</property>
  <property name="mlt_service">avformat</property>
  <property name="kdenlive:clipname"/>
  <property name="kdenlive:folderid">4</property>
  <property name="kdenlive:id">12</property>
  <property name="kdenlive:file_size">2543141</property>
  <property name="kdenlive:file_hash">890700dc2513679c17d3e85f213b18d8</property>
 </producer>
 <producer id="producer9" in="00:00:00.000" out="00:02:33.117">
  <property name="length">9188</property>
  <property name="eof">pause</property>
  <property name="resource">audio/music/Nursery - Maisie Dreamer.mp3</property>
  <property name="meta.media.nb_streams">1</property>
  <property name="meta.media.0.stream.type">audio</property>
  <property name="meta.media.0.codec.sample_fmt">fltp</property>
  <property name="meta.media.0.codec.sample_rate">44100</property>
  <property name="meta.media.0.codec.channels">2</property>
  <property name="meta.media.0.codec.name">mp3float</property>
  <property name="meta.media.0.codec.long_name">MP3 (MPEG audio layer 3)</property>
  <property name="meta.media.0.codec.bit_rate">128000</property>
  <property name="meta.attr.comment.markup">For track information and licensing visit www.sessions.blue</property>
  <property name="meta.attr.title.markup">Maisie Dreamer</property>
  <property name="meta.attr.album.markup">Nursery</property>
  <property name="meta.attr.composer.markup">Galen Huckins</property>
  <property name="meta.attr.artist.markup">Blue Dot Sessions</property>
  <property name="meta.attr.publisher.markup">Blue Dot Studios</property>
  <property name="meta.attr.genre.markup">instrumental</property>
  <property name="meta.attr.TKEY.markup">C</property>
  <property name="meta.attr.TBPM.markup">109</property>
  <property name="meta.attr.TSRC.markup">USHM81825738</property>
  <property name="meta.attr.website.markup">www.sessions.blue</property>
  <property name="meta.attr.copyright.markup">(CCBYNC) 2018 Creative Commons NonCommercial-Attribution</property>
  <property name="meta.attr.date.markup">2018</property>
  <property name="seekable">1</property>
  <property name="audio_index">0</property>
  <property name="video_index">-1</property>
  <property name="mute_on_pause">1</property>
  <property name="mlt_service">avformat</property>
  <property name="kdenlive:clipname"/>
  <property name="kdenlive:folderid">4</property>
  <property name="kdenlive:id">13</property>
  <property name="kdenlive:file_size">2450780</property>
  <property name="kdenlive:file_hash">ac8f85e444fd454c4971e32c6de23466</property>
 </producer>
 <producer id="producer10" in="00:00:00.000" out="00:04:25.133">
  <property name="length">15909</property>
  <property name="eof">pause</property>
  <property name="resource">audio/music/Nursery - Night Light.mp3</property>
  <property name="meta.media.nb_streams">1</property>
  <property name="meta.media.0.stream.type">audio</property>
  <property name="meta.media.0.codec.sample_fmt">fltp</property>
  <property name="meta.media.0.codec.sample_rate">44100</property>
  <property name="meta.media.0.codec.channels">2</property>
  <property name="meta.media.0.codec.name">mp3float</property>
  <property name="meta.media.0.codec.long_name">MP3 (MPEG audio layer 3)</property>
  <property name="meta.media.0.codec.bit_rate">128000</property>
  <property name="meta.attr.album.markup">Nursery</property>
  <property name="meta.attr.artist.markup">Blue Dot Sessions</property>
  <property name="meta.attr.composer.markup">Galen Huckins</property>
  <property name="meta.attr.genre.markup">instrumental</property>
  <property name="meta.attr.comment.markup">For track information and licensing visit www.sessions.blue</property>
  <property name="meta.attr.title.markup">Night Light</property>
  <property name="meta.attr.track.markup">6</property>
  <property name="meta.attr.TSRC.markup">USHM81825743</property>
  <property name="meta.attr.publisher.markup">Blue Dot Studios</property>
  <property name="meta.attr.website.markup">www.sessions.blue</property>
  <property name="meta.attr.copyright.markup">(CCBYNC) 2020 Creative Commons NonCommercial-Attribution</property>
  <property name="seekable">1</property>
  <property name="audio_index">0</property>
  <property name="video_index">-1</property>
  <property name="mute_on_pause">1</property>
  <property name="mlt_service">avformat</property>
  <property name="kdenlive:clipname"/>
  <property name="kdenlive:folderid">4</property>
  <property name="kdenlive:id">14</property>
  <property name="kdenlive:file_size">4242905</property>
  <property name="kdenlive:file_hash">07f35c306665862499367216a9e09885</property>
 </producer>
 <producer id="producer11" in="00:00:00.000" out="00:02:54.683">
  <property name="length">10482</property>
  <property name="eof">pause</property>
  <property name="resource">audio/music/Nursery - ZigZag Heart.mp3</property>
  <property name="meta.media.nb_streams">1</property>
  <property name="meta.media.0.stream.type">audio</property>
  <property name="meta.media.0.codec.sample_fmt">fltp</property>
  <property name="meta.media.0.codec.sample_rate">44100</property>
  <property name="meta.media.0.codec.channels">2</property>
  <property name="meta.media.0.codec.name">mp3float</property>
  <property name="meta.media.0.codec.long_name">MP3 (MPEG audio layer 3)</property>
  <property name="meta.media.0.codec.bit_rate">128000</property>
  <property name="meta.attr.comment.markup">For track information and licensing visit www.sessions.blue</property>
  <property name="meta.attr.title.markup">ZigZag Heart</property>
  <property name="meta.attr.album.markup">Nursery</property>
  <property name="meta.attr.composer.markup">Galen Huckins</property>
  <property name="meta.attr.artist.markup">Blue Dot Sessions</property>
  <property name="meta.attr.publisher.markup">Blue Dot Studios</property>
  <property name="meta.attr.genre.markup">instrumental</property>
  <property name="meta.attr.TKEY.markup">C</property>
  <property name="meta.attr.TBPM.markup">90</property>
  <property name="meta.attr.TSRC.markup">USHM81825732</property>
  <property name="meta.attr.website.markup">www.sessions.blue</property>
  <property name="meta.attr.copyright.markup">(CCBYNC) 2018 Creative Commons NonCommercial-Attribution</property>
  <property name="meta.attr.date.markup">2018</property>
  <property name="seekable">1</property>
  <property name="audio_index">0</property>
  <property name="video_index">-1</property>
  <property name="mute_on_pause">1</property>
  <property name="mlt_service">avformat</property>
  <property name="kdenlive:clipname"/>
  <property name="kdenlive:folderid">4</property>
  <property name="kdenlive:id">15</property>
  <property name="kdenlive:file_size">2796009</property>
  <property name="kdenlive:file_hash">9a7e1ba96769741a9429da8d689ac9cb</property>
 </producer>
 <producer id="producer12" in="00:00:00.000" out="00:02:26.317">
  <property name="length">8780</property>
  <property name="eof">pause</property>
  <property name="resource">audio/music/Reflections - Comfort Aire.mp3</property>
  <property name="meta.media.nb_streams">1</property>
  <property name="meta.media.0.stream.type">audio</property>
  <property name="meta.media.0.codec.sample_fmt">fltp</property>
  <property name="meta.media.0.codec.sample_rate">44100</property>
  <property name="meta.media.0.codec.channels">2</property>
  <property name="meta.media.0.codec.name">mp3float</property>
  <property name="meta.media.0.codec.long_name">MP3 (MPEG audio layer 3)</property>
  <property name="meta.media.0.codec.bit_rate">128000</property>
  <property name="meta.attr.comment.markup">For track information and licensing visit www.sessions.blue</property>
  <property name="meta.attr.title.markup">Comfort Aire</property>
  <property name="meta.attr.album.markup">Reflections</property>
  <property name="meta.attr.composer.markup">Galen Huckins</property>
  <property name="meta.attr.artist.markup">Blue Dot Sessions</property>
  <property name="meta.attr.publisher.markup">Blue Dot Studios</property>
  <property name="meta.attr.genre.markup">instrumental</property>
  <property name="meta.attr.TKEY.markup">D</property>
  <property name="meta.attr.TBPM.markup">130</property>
  <property name="meta.attr.website.markup">www.sessions.blue</property>
  <property name="meta.attr.copyright.markup">(CCBYNC) 2020 Creative Commons NonCommercial-Attribution</property>
  <property name="meta.attr.date.markup">2020</property>
  <property name="seekable">1</property>
  <property name="audio_index">0</property>
  <property name="video_index">-1</property>
  <property name="mute_on_pause">1</property>
  <property name="mlt_service">avformat</property>
  <property name="kdenlive:clipname"/>
  <property name="kdenlive:folderid">4</property>
  <property name="kdenlive:id">16</property>
  <property name="kdenlive:file_size">2342078</property>
  <property name="kdenlive:file_hash">a0f796824c1fea959925b463d349de0d</property>
 </producer>
 <producer id="producer13" in="00:00:00.000" out="00:03:48.033">
  <property name="length">13683</property>
  <property name="eof">pause</property>
  <property name="resource">audio/music/Reflections - Eleven Count.mp3</property>
  <property name="meta.media.nb_streams">1</property>
  <property name="meta.media.0.stream.type">audio</property>
  <property name="meta.media.0.codec.sample_fmt">fltp</property>
  <property name="meta.media.0.codec.sample_rate">44100</property>
  <property name="meta.media.0.codec.channels">2</property>
  <property name="meta.media.0.codec.name">mp3float</property>
  <property name="meta.media.0.codec.long_name">MP3 (MPEG audio layer 3)</property>
  <property name="meta.media.0.codec.bit_rate">128000</property>
  <property name="meta.attr.comment.markup">For track information and licensing visit www.sessions.blue</property>
  <property name="meta.attr.title.markup">Eleven Count</property>
  <property name="meta.attr.composer.markup">Galen Huckins</property>
  <property name="meta.attr.artist.markup">Blue Dot Sessions</property>
  <property name="meta.attr.publisher.markup">Blue Dot Studios</property>
  <property name="meta.attr.genre.markup">instrumental</property>
  <property name="meta.attr.TKEY.markup">C</property>
  <property name="meta.attr.TBPM.markup">95</property>
  <property name="meta.attr.album.markup">Reflections</property>
  <property name="meta.attr.website.markup">www.sessions.blue</property>
  <property name="meta.attr.copyright.markup">(CCBYNC) 2020 Creative Commons NonCommercial-Attribution</property>
  <property name="meta.attr.date.markup">2020</property>
  <property name="seekable">1</property>
  <property name="audio_index">0</property>
  <property name="video_index">-1</property>
  <property name="mute_on_pause">1</property>
  <property name="mlt_service">avformat</property>
  <property name="kdenlive:clipname"/>
  <property name="kdenlive:folderid">4</property>
  <property name="kdenlive:id">17</property>
  <property name="kdenlive:file_size">3649452</property>
  <property name="kdenlive:file_hash">96feb3f868dd7f201844369192c73aca</property>
 </producer>
 <producer id="producer14" in="00:00:00.000" out="00:03:10.467">
  <property name="length">11429</property>
  <property name="eof">pause</property>
  <property name="resource">audio/music/Reflections - Ether Ridge.mp3</property>
  <property name="meta.media.nb_streams">1</property>
  <property name="meta.media.0.stream.type">audio</property>
  <property name="meta.media.0.codec.sample_fmt">fltp</property>
  <property name="meta.media.0.codec.sample_rate">44100</property>
  <property name="meta.media.0.codec.channels">2</property>
  <property name="meta.media.0.codec.name">mp3float</property>
  <property name="meta.media.0.codec.long_name">MP3 (MPEG audio layer 3)</property>
  <property name="meta.media.0.codec.bit_rate">128000</property>
  <property name="meta.attr.comment.markup">For track information and licensing visit www.sessions.blue</property>
  <property name="meta.attr.title.markup">Ether Ridge</property>
  <property name="meta.attr.album.markup">Reflections</property>
  <property name="meta.attr.composer.markup">Galen Huckins</property>
  <property name="meta.attr.artist.markup">Blue Dot Sessions</property>
  <property name="meta.attr.publisher.markup">Blue Dot Studios</property>
  <property name="meta.attr.genre.markup">instrumental</property>
  <property name="meta.attr.TKEY.markup">Dm</property>
  <property name="meta.attr.TBPM.markup">0</property>
  <property name="meta.attr.website.markup">www.sessions.blue</property>
  <property name="meta.attr.copyright.markup">(CCBYNC) 2021 Creative Commons NonCommercial-Attribution</property>
  <property name="meta.attr.date.markup">2021</property>
  <property name="seekable">1</property>
  <property name="audio_index">0</property>
  <property name="video_index">-1</property>
  <property name="mute_on_pause">1</property>
  <property name="mlt_service">avformat</property>
  <property name="kdenlive:clipname"/>
  <property name="kdenlive:folderid">4</property>
  <property name="kdenlive:id">18</property>
  <property name="kdenlive:file_size">3048425</property>
  <property name="kdenlive:file_hash">06cbf076fc76a70b8725624342cdf8a8</property>
 </producer>
 <producer id="producer15" in="00:00:00.000" out="00:03:43.983">
  <property name="length">13440</property>
  <property name="eof">pause</property>
  <property name="resource">audio/music/Reflections - Four Count.mp3</property>
  <property name="meta.media.nb_streams">1</property>
  <property name="meta.media.0.stream.type">audio</property>
  <property name="meta.media.0.codec.sample_fmt">fltp</property>
  <property name="meta.media.0.codec.sample_rate">44100</property>
  <property name="meta.media.0.codec.channels">2</property>
  <property name="meta.media.0.codec.name">mp3float</property>
  <property name="meta.media.0.codec.long_name">MP3 (MPEG audio layer 3)</property>
  <property name="meta.media.0.codec.bit_rate">128000</property>
  <property name="meta.attr.comment.markup">For track information and licensing visit www.sessions.blue</property>
  <property name="meta.attr.title.markup">Four Count</property>
  <property name="meta.attr.composer.markup">Galen Huckins</property>
  <property name="meta.attr.artist.markup">Blue Dot Sessions</property>
  <property name="meta.attr.publisher.markup">Blue Dot Studios</property>
  <property name="meta.attr.genre.markup">instrumental</property>
  <property name="meta.attr.TKEY.markup">C</property>
  <property name="meta.attr.TBPM.markup">86</property>
  <property name="meta.attr.album.markup">Reflections</property>
  <property name="meta.attr.website.markup">www.sessions.blue</property>
  <property name="meta.attr.copyright.markup">(CCBYNC) 2020 Creative Commons NonCommercial-Attribution</property>
  <property name="meta.attr.date.markup">2020</property>
  <property name="seekable">1</property>
  <property name="audio_index">0</property>
  <property name="video_index">-1</property>
  <property name="mute_on_pause">1</property>
  <property name="mlt_service">avformat</property>
  <property name="kdenlive:clipname"/>
  <property name="kdenlive:folderid">4</property>
  <property name="kdenlive:id">19</property>
  <property name="kdenlive:file_size">3584665</property>
  <property name="kdenlive:file_hash">c7b91e895b5a412a15b96344834c68fa</property>
 </producer>
 <producer id="producer16" in="00:00:00.000" out="00:03:48.167">
  <property name="length">13691</property>
  <property name="eof">pause</property>
  <property name="resource">audio/music/Reflections - Nine Count.mp3</property>
  <property name="meta.media.nb_streams">1</property>
  <property name="meta.media.0.stream.type">audio</property>
  <property name="meta.media.0.codec.sample_fmt">fltp</property>
  <property name="meta.media.0.codec.sample_rate">44100</property>
  <property name="meta.media.0.codec.channels">2</property>
  <property name="meta.media.0.codec.name">mp3float</property>
  <property name="meta.media.0.codec.long_name">MP3 (MPEG audio layer 3)</property>
  <property name="meta.media.0.codec.bit_rate">128000</property>
  <property name="meta.attr.comment.markup">For track information and licensing visit www.sessions.blue</property>
  <property name="meta.attr.title.markup">Nine Count</property>
  <property name="meta.attr.composer.markup">Galen Huckins</property>
  <property name="meta.attr.artist.markup">Blue Dot Sessions</property>
  <property name="meta.attr.publisher.markup">Blue Dot Studios</property>
  <property name="meta.attr.genre.markup">instrumental</property>
  <property name="meta.attr.TKEY.markup">C</property>
  <property name="meta.attr.TBPM.markup">86</property>
  <property name="meta.attr.album.markup">Reflections</property>
  <property name="meta.attr.website.markup">www.sessions.blue</property>
  <property name="meta.attr.copyright.markup">(CCBYNC) 2020 Creative Commons NonCommercial-Attribution</property>
  <property name="meta.attr.date.markup">2020</property>
  <property name="seekable">1</property>
  <property name="audio_index">0</property>
  <property name="video_index">-1</property>
  <property name="mute_on_pause">1</property>
  <property name="mlt_service">avformat</property>
  <property name="kdenlive:clipname"/>
  <property name="kdenlive:folderid">4</property>
  <property name="kdenlive:id">20</property>
  <property name="kdenlive:file_size">3651538</property>
  <property name="kdenlive:file_hash">1b83d0549286b5da2688c9989dd7b347</property>
 </producer>
 <producer id="producer17" in="00:00:00.000" out="00:04:59.317">
  <property name="length">17960</property>
  <property name="eof">pause</property>
  <property name="resource">audio/music/Reflections - The Derricks.mp3</property>
  <property name="meta.media.nb_streams">1</property>
  <property name="meta.media.0.stream.type">audio</property>
  <property name="meta.media.0.codec.sample_fmt">fltp</property>
  <property name="meta.media.0.codec.sample_rate">44100</property>
  <property name="meta.media.0.codec.channels">2</property>
  <property name="meta.media.0.codec.name">mp3float</property>
  <property name="meta.media.0.codec.long_name">MP3 (MPEG audio layer 3)</property>
  <property name="meta.media.0.codec.bit_rate">128000</property>
  <property name="meta.attr.comment.markup">For track information and licensing visit www.sessions.blue</property>
  <property name="meta.attr.title.markup">The Derricks</property>
  <property name="meta.attr.composer.markup">Galen Huckins</property>
  <property name="meta.attr.artist.markup">Blue Dot Sessions</property>
  <property name="meta.attr.publisher.markup">Blue Dot Studios</property>
  <property name="meta.attr.genre.markup">instrumental</property>
  <property name="meta.attr.TKEY.markup">C</property>
  <property name="meta.attr.TBPM.markup">86</property>
  <property name="meta.attr.album.markup">Reflections</property>
  <property name="meta.attr.website.markup">www.sessions.blue</property>
  <property name="meta.attr.copyright.markup">(CCBYNC) 2020 Creative Commons NonCommercial-Attribution</property>
  <property name="meta.attr.date.markup">2020</property>
  <property name="seekable">1</property>
  <property name="audio_index">0</property>
  <property name="video_index">-1</property>
  <property name="mute_on_pause">1</property>
  <property name="mlt_service">avformat</property>
  <property name="kdenlive:clipname"/>
  <property name="kdenlive:folderid">4</property>
  <property name="kdenlive:id">21</property>
  <property name="kdenlive:file_size">4790063</property>
  <property name="kdenlive:file_hash">7bc83abf136a321d5966d751cb7e5437</property>
 </producer>
 <producer id="producer18" in="00:00:00.000" out="00:00:11.700">
  <property name="length">703</property>
  <property name="eof">pause</property>
  <property name="resource">audio/normalized/c1.wav</property>
  <property name="meta.media.nb_streams">1</property>
  <property name="meta.media.0.stream.type">audio</property>
  <property name="meta.media.0.codec.sample_fmt">s16</property>
  <property name="meta.media.0.codec.sample_rate">48000</property>
  <property name="meta.media.0.codec.channels">2</property>
  <property name="meta.media.0.codec.name">pcm_s16le</property>
  <property name="meta.media.0.codec.long_name">PCM signed 16-bit little-endian</property>
  <property name="meta.media.0.codec.bit_rate">1536000</property>
  <property name="seekable">1</property>
  <property name="audio_index">0</property>
  <property name="video_index">-1</property>
  <property name="mute_on_pause">1</property>
  <property name="mlt_service">avformat</property>
  <property name="kdenlive:clipname"/>
  <property name="kdenlive:folderid">23</property>
  <property name="kdenlive:id">22</property>
  <property name="kdenlive:file_size">2250348</property>
  <property name="kdenlive:file_hash">e74c44740949c50e5a295c3054ddc875</property>
  <property name="kdenlive:audio_max0">120</property>
 </producer>
 <producer id="producer19" in="00:00:00.000" out="00:00:10.083">
  <property name="length">606</property>
  <property name="eof">pause</property>
  <property name="resource">audio/normalized/c2.wav</property>
  <property name="meta.media.nb_streams">1</property>
  <property name="meta.media.0.stream.type">audio</property>
  <property name="meta.media.0.codec.sample_fmt">s16</property>
  <property name="meta.media.0.codec.sample_rate">48000</property>
  <property name="meta.media.0.codec.channels">2</property>
  <property name="meta.media.0.codec.name">pcm_s16le</property>
  <property name="meta.media.0.codec.long_name">PCM signed 16-bit little-endian</property>
  <property name="meta.media.0.codec.bit_rate">1536000</property>
  <property name="seekable">1</property>
  <property name="audio_index">0</property>
  <property name="video_index">-1</property>
  <property name="mute_on_pause">1</property>
  <property name="mlt_service">avformat</property>
  <property name="kdenlive:clipname"/>
  <property name="kdenlive:folderid">23</property>
  <property name="kdenlive:id">24</property>
  <property name="kdenlive:file_size">1938700</property>
  <property name="kdenlive:file_hash">a8edec4d1e29a76422f99402a17d272f</property>
  <property name="kdenlive:audio_max0">124</property>
 </producer>
 <producer id="producer20" in="00:00:00.000" out="00:00:10.333">
  <property name="length">621</property>
  <property name="eof">pause</property>
  <property name="resource">audio/normalized/c3.wav</property>
  <property name="meta.media.nb_streams">1</property>
  <property name="meta.media.0.stream.type">audio</property>
  <property name="meta.media.0.codec.sample_fmt">s16</property>
  <property name="meta.media.0.codec.sample_rate">48000</property>
  <property name="meta.media.0.codec.channels">2</property>
  <property name="meta.media.0.codec.name">pcm_s16le</property>
  <property name="meta.media.0.codec.long_name">PCM signed 16-bit little-endian</property>
  <property name="meta.media.0.codec.bit_rate">1536000</property>
  <property name="seekable">1</property>
  <property name="audio_index">0</property>
  <property name="video_index">-1</property>
  <property name="mute_on_pause">1</property>
  <property name="mlt_service">avformat</property>
  <property name="kdenlive:clipname"/>
  <property name="kdenlive:folderid">23</property>
  <property name="kdenlive:id">25</property>
  <property name="kdenlive:file_size">1987276</property>
  <property name="kdenlive:file_hash">a9d8bd65a29bcbf4d674e3139b977a74</property>
  <property name="kdenlive:audio_max0">120</property>
 </producer>
 <producer id="producer21" in="00:00:00.000" out="00:00:11.833">
  <property name="length">711</property>
  <property name="eof">pause</property>
  <property name="resource">audio/normalized/c4.wav</property>
  <property name="meta.media.nb_streams">1</property>
  <property name="meta.media.0.stream.type">audio</property>
  <property name="meta.media.0.codec.sample_fmt">s16</property>
  <property name="meta.media.0.codec.sample_rate">48000</property>
  <property name="meta.media.0.codec.channels">2</property>
  <property name="meta.media.0.codec.name">pcm_s16le</property>
  <property name="meta.media.0.codec.long_name">PCM signed 16-bit little-endian</property>
  <property name="meta.media.0.codec.bit_rate">1536000</property>
  <property name="seekable">1</property>
  <property name="audio_index">0</property>
  <property name="video_index">-1</property>
  <property name="mute_on_pause">1</property>
  <property name="mlt_service">avformat</property>
  <property name="kdenlive:clipname"/>
  <property name="kdenlive:folderid">23</property>
  <property name="kdenlive:id">26</property>
  <property name="kdenlive:file_size">2274636</property>
  <property name="kdenlive:file_hash">54be2c85c2a597a94f7ea00144105f56</property>
  <property name="kdenlive:audio_max0">113</property>
 </producer>
 <producer id="producer22" in="00:00:00.000" out="00:00:12.583">
  <property name="length">756</property>
  <property name="eof">pause</property>
  <property name="resource">audio/normalized/c5.wav</property>
  <property name="meta.media.nb_streams">1</property>
  <property name="meta.media.0.stream.type">audio</property>
  <property name="meta.media.0.codec.sample_fmt">s16</property>
  <property name="meta.media.0.codec.sample_rate">48000</property>
  <property name="meta.media.0.codec.channels">2</property>
  <property name="meta.media.0.codec.name">pcm_s16le</property>
  <property name="meta.media.0.codec.long_name">PCM signed 16-bit little-endian</property>
  <property name="meta.media.0.codec.bit_rate">1536000</property>
  <property name="seekable">1</property>
  <property name="audio_index">0</property>
  <property name="video_index">-1</property>
  <property name="mute_on_pause">1</property>
  <property name="mlt_service">avformat</property>
  <property name="kdenlive:clipname"/>
  <property name="kdenlive:folderid">23</property>
  <property name="kdenlive:id">27</property>
  <property name="kdenlive:file_size">2418316</property>
  <property name="kdenlive:file_hash">a4417a2e51853be0a11e0bf2eb76fb0e</property>
  <property name="kdenlive:audio_max0">121</property>
 </producer>
 <producer id="producer23" in="00:00:00.000" out="00:00:25.950">
  <property name="length">1558</property>
  <property name="eof">pause</property>
  <property name="resource">audio/normalized/e11.wav</property>
  <property name="meta.media.nb_streams">1</property>
  <property name="meta.media.0.stream.type">audio</property>
  <property name="meta.media.0.codec.sample_fmt">s16</property>
  <property name="meta.media.0.codec.sample_rate">48000</property>
  <property name="meta.media.0.codec.channels">2</property>
  <property name="meta.media.0.codec.name">pcm_s16le</property>
  <property name="meta.media.0.codec.long_name">PCM signed 16-bit little-endian</property>
  <property name="meta.media.0.codec.bit_rate">1536000</property>
  <property name="seekable">1</property>
  <property name="audio_index">0</property>
  <property name="video_index">-1</property>
  <property name="mute_on_pause">1</property>
  <property name="mlt_service">avformat</property>
  <property name="kdenlive:clipname"/>
  <property name="kdenlive:folderid">23</property>
  <property name="kdenlive:id">28</property>
  <property name="kdenlive:file_size">4986412</property>
  <property name="kdenlive:file_hash">246d371ab298c91686de2d28ada8cae1</property>
  <property name="kdenlive:audio_max0">131</property>
 </producer>
 <producer id="producer24" in="00:00:00.000" out="00:00:19.217">
  <property name="length">1154</property>
  <property name="eof">pause</property>
  <property name="resource">audio/normalized/e21.wav</property>
  <property name="meta.media.nb_streams">1</property>
  <property name="meta.media.0.stream.type">audio</property>
  <property name="meta.media.0.codec.sample_fmt">s16</property>
  <property name="meta.media.0.codec.sample_rate">48000</property>
  <property name="meta.media.0.codec.channels">2</property>
  <property name="meta.media.0.codec.name">pcm_s16le</property>
  <property name="meta.media.0.codec.long_name">PCM signed 16-bit little-endian</property>
  <property name="meta.media.0.codec.bit_rate">1536000</property>
  <property name="seekable">1</property>
  <property name="audio_index">0</property>
  <property name="video_index">-1</property>
  <property name="mute_on_pause">1</property>
  <property name="mlt_service">avformat</property>
  <property name="kdenlive:clipname"/>
  <property name="kdenlive:folderid">23</property>
  <property name="kdenlive:id">29</property>
  <property name="kdenlive:file_size">3691244</property>
  <property name="kdenlive:file_hash">7e54712f1174ca565fdd695365afd003</property>
  <property name="kdenlive:audio_max0">114</property>
 </producer>
 <producer id="producer25" in="00:00:00.000" out="00:00:10.583">
  <property name="length">636</property>
  <property name="eof">pause</property>
  <property name="resource">audio/normalized/e22.wav</property>
  <property name="meta.media.nb_streams">1</property>
  <property name="meta.media.0.stream.type">audio</property>
  <property name="meta.media.0.codec.sample_fmt">s16</property>
  <property name="meta.media.0.codec.sample_rate">48000</property>
  <property name="meta.media.0.codec.channels">2</property>
  <property name="meta.media.0.codec.name">pcm_s16le</property>
  <property name="meta.media.0.codec.long_name">PCM signed 16-bit little-endian</property>
  <property name="meta.media.0.codec.bit_rate">1536000</property>
  <property name="seekable">1</property>
  <property name="audio_index">0</property>
  <property name="video_index">-1</property>
  <property name="mute_on_pause">1</property>
  <property name="mlt_service">avformat</property>
  <property name="kdenlive:clipname"/>
  <property name="kdenlive:folderid">23</property>
  <property name="kdenlive:id">30</property>
  <property name="kdenlive:file_size">2035852</property>
  <property name="kdenlive:file_hash">7390efa10fa1968ecd611f0a78bc083b</property>
  <property name="kdenlive:audio_max0">118</property>
 </producer>
 <producer id="producer26" in="00:00:00.000" out="00:00:03.083">
  <property name="length">186</property>
  <property name="eof">pause</property>
  <property name="resource">audio/normalized/e23.wav</property>
  <property name="meta.media.nb_streams">1</property>
  <property name="meta.media.0.stream.type">audio</property>
  <property name="meta.media.0.codec.sample_fmt">s16</property>
  <property name="meta.media.0.codec.sample_rate">48000</property>
  <property name="meta.media.0.codec.channels">2</property>
  <property name="meta.media.0.codec.name">pcm_s16le</property>
  <property name="meta.media.0.codec.long_name">PCM signed 16-bit little-endian</property>
  <property name="meta.media.0.codec.bit_rate">1536000</property>
  <property name="seekable">1</property>
  <property name="audio_index">0</property>
  <property name="video_index">-1</property>
  <property name="mute_on_pause">1</property>
  <property name="mlt_service">avformat</property>
  <property name="kdenlive:clipname"/>
  <property name="kdenlive:folderid">23</property>
  <property name="kdenlive:id">31</property>
  <property name="kdenlive:file_size">594956</property>
  <property name="kdenlive:file_hash">46fbea4a851f330f9442e5638f141709</property>
  <property name="kdenlive:audio_max0">115</property>
 </producer>
 <producer id="producer27" in="00:00:00.000" out="00:00:07.967">
  <property name="length">479</property>
  <property name="eof">pause</property>
  <property name="resource">audio/normalized/e24.wav</property>
  <property name="meta.media.nb_streams">1</property>
  <property name="meta.media.0.stream.type">audio</property>
  <property name="meta.media.0.codec.sample_fmt">s16</property>
  <property name="meta.media.0.codec.sample_rate">48000</property>
  <property name="meta.media.0.codec.channels">2</property>
  <property name="meta.media.0.codec.name">pcm_s16le</property>
  <property name="meta.media.0.codec.long_name">PCM signed 16-bit little-endian</property>
  <property name="meta.media.0.codec.bit_rate">1536000</property>
  <property name="seekable">1</property>
  <property name="audio_index">0</property>
  <property name="video_index">-1</property>
  <property name="mute_on_pause">1</property>
  <property name="mlt_service">avformat</property>
  <property name="kdenlive:clipname"/>
  <property name="kdenlive:folderid">23</property>
  <property name="kdenlive:id">32</property>
  <property name="kdenlive:file_size">1531948</property>
  <property name="kdenlive:file_hash">69ba2a3966bb4962f9d5e5ce7b966036</property>
  <property name="kdenlive:audio_max0">127</property>
 </producer>
 <producer id="producer28" in="00:00:00.000" out="00:00:06.083">
  <property name="length">366</property>
  <property name="eof">pause</property>
  <property name="resource">audio/normalized/e25.wav</property>
  <property name="meta.media.nb_streams">1</property>
  <property name="meta.media.0.stream.type">audio</property>
  <property name="meta.media.0.codec.sample_fmt">s16</property>
  <property name="meta.media.0.codec.sample_rate">48000</property>
  <property name="meta.media.0.codec.channels">2</property>
  <property name="meta.media.0.codec.name">pcm_s16le</property>
  <property name="meta.media.0.codec.long_name">PCM signed 16-bit little-endian</property>
  <property name="meta.media.0.codec.bit_rate">1536000</property>
  <property name="seekable">1</property>
  <property name="audio_index">0</property>
  <property name="video_index">-1</property>
  <property name="mute_on_pause">1</property>
  <property name="mlt_service">avformat</property>
  <property name="kdenlive:clipname"/>
  <property name="kdenlive:folderid">23</property>
  <property name="kdenlive:id">33</property>
  <property name="kdenlive:file_size">1171724</property>
  <property name="kdenlive:file_hash">14e06e12b2f1fc6996a5f6d0d1ef7693</property>
  <property name="kdenlive:audio_max0">126</property>
 </producer>
 <producer id="producer29" in="00:00:00.000" out="00:00:12.217">
  <property name="length">734</property>
  <property name="eof">pause</property>
  <property name="resource">audio/normalized/e31.wav</property>
  <property name="meta.media.nb_streams">1</property>
  <property name="meta.media.0.stream.type">audio</property>
  <property name="meta.media.0.codec.sample_fmt">s16</property>
  <property name="meta.media.0.codec.sample_rate">48000</property>
  <property name="meta.media.0.codec.channels">2</property>
  <property name="meta.media.0.codec.name">pcm_s16le</property>
  <property name="meta.media.0.codec.long_name">PCM signed 16-bit little-endian</property>
  <property name="meta.media.0.codec.bit_rate">1536000</property>
  <property name="seekable">1</property>
  <property name="audio_index">0</property>
  <property name="video_index">-1</property>
  <property name="mute_on_pause">1</property>
  <property name="mlt_service">avformat</property>
  <property name="kdenlive:clipname"/>
  <property name="kdenlive:folderid">23</property>
  <property name="kdenlive:id">34</property>
  <property name="kdenlive:file_size">2347500</property>
  <property name="kdenlive:file_hash">993c433ae38d8c067108c83c6f752874</property>
  <property name="kdenlive:audio_max0">125</property>
 </producer>
 <producer id="producer30" in="00:00:00.000" out="00:00:07.333">
  <property name="length">441</property>
  <property name="eof">pause</property>
  <property name="resource">audio/normalized/e310.wav</property>
  <property name="meta.media.nb_streams">1</property>
  <property name="meta.media.0.stream.type">audio</property>
  <property name="meta.media.0.codec.sample_fmt">s16</property>
  <property name="meta.media.0.codec.sample_rate">48000</property>
  <property name="meta.media.0.codec.channels">2</property>
  <property name="meta.media.0.codec.name">pcm_s16le</property>
  <property name="meta.media.0.codec.long_name">PCM signed 16-bit little-endian</property>
  <property name="meta.media.0.codec.bit_rate">1536000</property>
  <property name="seekable">1</property>
  <property name="audio_index">0</property>
  <property name="video_index">-1</property>
  <property name="mute_on_pause">1</property>
  <property name="mlt_service">avformat</property>
  <property name="kdenlive:clipname"/>
  <property name="kdenlive:folderid">23</property>
  <property name="kdenlive:id">35</property>
  <property name="kdenlive:file_size">1410508</property>
  <property name="kdenlive:file_hash">386c78f57df76298e128f211ffc916c1</property>
  <property name="kdenlive:audio_max0">120</property>
 </producer>
 <producer id="producer32" in="00:00:00.000" out="00:00:08.083">
  <property name="length">486</property>
  <property name="eof">pause</property>
  <property name="resource">audio/normalized/e32.wav</property>
  <property name="meta.media.nb_streams">1</property>
  <property name="meta.media.0.stream.type">audio</property>
  <property name="meta.media.0.codec.sample_fmt">s16</property>
  <property name="meta.media.0.codec.sample_rate">48000</property>
  <property name="meta.media.0.codec.channels">2</property>
  <property name="meta.media.0.codec.name">pcm_s16le</property>
  <property name="meta.media.0.codec.long_name">PCM signed 16-bit little-endian</property>
  <property name="meta.media.0.codec.bit_rate">1536000</property>
  <property name="seekable">1</property>
  <property name="audio_index">0</property>
  <property name="video_index">-1</property>
  <property name="mute_on_pause">1</property>
  <property name="mlt_service">avformat</property>
  <property name="kdenlive:clipname"/>
  <property name="kdenlive:folderid">23</property>
  <property name="kdenlive:id">36</property>
  <property name="kdenlive:file_size">1554188</property>
  <property name="kdenlive:file_hash">13db59c0a92ce922b2055702d835bc2d</property>
  <property name="kdenlive:audio_max0">113</property>
 </producer>
 <producer id="producer31" in="00:00:00.000" out="00:00:12.333">
  <property name="length">741</property>
  <property name="eof">pause</property>
  <property name="resource">audio/normalized/e33.wav</property>
  <property name="meta.media.nb_streams">1</property>
  <property name="meta.media.0.stream.type">audio</property>
  <property name="meta.media.0.codec.sample_fmt">s16</property>
  <property name="meta.media.0.codec.sample_rate">48000</property>
  <property name="meta.media.0.codec.channels">2</property>
  <property name="meta.media.0.codec.name">pcm_s16le</property>
  <property name="meta.media.0.codec.long_name">PCM signed 16-bit little-endian</property>
  <property name="meta.media.0.codec.bit_rate">1536000</property>
  <property name="seekable">1</property>
  <property name="audio_index">0</property>
  <property name="video_index">-1</property>
  <property name="mute_on_pause">1</property>
  <property name="mlt_service">avformat</property>
  <property name="kdenlive:clipname"/>
  <property name="kdenlive:folderid">23</property>
  <property name="kdenlive:id">37</property>
  <property name="kdenlive:file_size">2371788</property>
  <property name="kdenlive:file_hash">22ba84ea358cafc5eaff11b964edb4a8</property>
  <property name="kdenlive:audio_max0">114</property>
 </producer>
 <producer id="producer33" in="00:00:00.000" out="00:00:12.217">
  <property name="length">734</property>
  <property name="eof">pause</property>
  <property name="resource">audio/normalized/e34.wav</property>
  <property name="meta.media.nb_streams">1</property>
  <property name="meta.media.0.stream.type">audio</property>
  <property name="meta.media.0.codec.sample_fmt">s16</property>
  <property name="meta.media.0.codec.sample_rate">48000</property>
  <property name="meta.media.0.codec.channels">2</property>
  <property name="meta.media.0.codec.name">pcm_s16le</property>
  <property name="meta.media.0.codec.long_name">PCM signed 16-bit little-endian</property>
  <property name="meta.media.0.codec.bit_rate">1536000</property>
  <property name="seekable">1</property>
  <property name="audio_index">0</property>
  <property name="video_index">-1</property>
  <property name="mute_on_pause">1</property>
  <property name="mlt_service">avformat</property>
  <property name="kdenlive:clipname"/>
  <property name="kdenlive:folderid">23</property>
  <property name="kdenlive:id">38</property>
  <property name="kdenlive:file_size">2347500</property>
  <property name="kdenlive:file_hash">fdd0377907fcd6f12e5eb49c474ff3eb</property>
  <property name="kdenlive:audio_max0">113</property>
 </producer>
 <producer id="producer34" in="00:00:00.000" out="00:00:05.967">
  <property name="length">359</property>
  <property name="eof">pause</property>
  <property name="resource">audio/normalized/e35.wav</property>
  <property name="meta.media.nb_streams">1</property>
  <property name="meta.media.0.stream.type">audio</property>
  <property name="meta.media.0.codec.sample_fmt">s16</property>
  <property name="meta.media.0.codec.sample_rate">48000</property>
  <property name="meta.media.0.codec.channels">2</property>
  <property name="meta.media.0.codec.name">pcm_s16le</property>
  <property name="meta.media.0.codec.long_name">PCM signed 16-bit little-endian</property>
  <property name="meta.media.0.codec.bit_rate">1536000</property>
  <property name="seekable">1</property>
  <property name="audio_index">0</property>
  <property name="video_index">-1</property>
  <property name="mute_on_pause">1</property>
  <property name="mlt_service">avformat</property>
  <property name="kdenlive:clipname"/>
  <property name="kdenlive:folderid">23</property>
  <property name="kdenlive:id">39</property>
  <property name="kdenlive:file_size">1147436</property>
  <property name="kdenlive:file_hash">6e37d69b9faa759c9084f8462f6997da</property>
  <property name="kdenlive:audio_max0">109</property>
 </producer>
 <producer id="producer35" in="00:00:00.000" out="00:00:03.333">
  <property name="length">201</property>
  <property name="eof">pause</property>
  <property name="resource">audio/normalized/e36.wav</property>
  <property name="meta.media.nb_streams">1</property>
  <property name="meta.media.0.stream.type">audio</property>
  <property name="meta.media.0.codec.sample_fmt">s16</property>
  <property name="meta.media.0.codec.sample_rate">48000</property>
  <property name="meta.media.0.codec.channels">2</property>
  <property name="meta.media.0.codec.name">pcm_s16le</property>
  <property name="meta.media.0.codec.long_name">PCM signed 16-bit little-endian</property>
  <property name="meta.media.0.codec.bit_rate">1536000</property>
  <property name="seekable">1</property>
  <property name="audio_index">0</property>
  <property name="video_index">-1</property>
  <property name="mute_on_pause">1</property>
  <property name="mlt_service">avformat</property>
  <property name="kdenlive:clipname"/>
  <property name="kdenlive:folderid">23</property>
  <property name="kdenlive:id">40</property>
  <property name="kdenlive:file_size">643532</property>
  <property name="kdenlive:file_hash">b17e190c50949599c93a57a3f00c2875</property>
  <property name="kdenlive:audio_max0">116</property>
 </producer>
 <producer id="producer36" in="00:00:00.000" out="00:00:09.833">
  <property name="length">591</property>
  <property name="eof">pause</property>
  <property name="resource">audio/normalized/e37.wav</property>
  <property name="meta.media.nb_streams">1</property>
  <property name="meta.media.0.stream.type">audio</property>
  <property name="meta.media.0.codec.sample_fmt">s16</property>
  <property name="meta.media.0.codec.sample_rate">48000</property>
  <property name="meta.media.0.codec.channels">2</property>
  <property name="meta.media.0.codec.name">pcm_s16le</property>
  <property name="meta.media.0.codec.long_name">PCM signed 16-bit little-endian</property>
  <property name="meta.media.0.codec.bit_rate">1536000</property>
  <property name="seekable">1</property>
  <property name="audio_index">0</property>
  <property name="video_index">-1</property>
  <property name="mute_on_pause">1</property>
  <property name="mlt_service">avformat</property>
  <property name="kdenlive:clipname"/>
  <property name="kdenlive:folderid">23</property>
  <property name="kdenlive:id">41</property>
  <property name="kdenlive:file_size">1890124</property>
  <property name="kdenlive:file_hash">196ad833a7e9e37cbaaa9088c66b6b48</property>
  <property name="kdenlive:audio_max0">130</property>
 </producer>
 <producer id="producer37" in="00:00:00.000" out="00:00:10.083">
  <property name="length">606</property>
  <property name="eof">pause</property>
  <property name="resource">audio/normalized/e38.wav</property>
  <property name="meta.media.nb_streams">1</property>
  <property name="meta.media.0.stream.type">audio</property>
  <property name="meta.media.0.codec.sample_fmt">s16</property>
  <property name="meta.media.0.codec.sample_rate">48000</property>
  <property name="meta.media.0.codec.channels">2</property>
  <property name="meta.media.0.codec.name">pcm_s16le</property>
  <property name="meta.media.0.codec.long_name">PCM signed 16-bit little-endian</property>
  <property name="meta.media.0.codec.bit_rate">1536000</property>
  <property name="seekable">1</property>
  <property name="audio_index">0</property>
  <property name="video_index">-1</property>
  <property name="mute_on_pause">1</property>
  <property name="mlt_service">avformat</property>
  <property name="kdenlive:clipname"/>
  <property name="kdenlive:folderid">23</property>
  <property name="kdenlive:id">42</property>
  <property name="kdenlive:file_size">1938700</property>
  <property name="kdenlive:file_hash">d0713e4c5438ca83f6d637c7294770ac</property>
  <property name="kdenlive:audio_max0">110</property>
 </producer>
 <producer id="producer39" in="00:00:00.000" out="00:00:14.583">
  <property name="length">876</property>
  <property name="eof">pause</property>
  <property name="resource">audio/normalized/e39.wav</property>
  <property name="meta.media.nb_streams">1</property>
  <property name="meta.media.0.stream.type">audio</property>
  <property name="meta.media.0.codec.sample_fmt">s16</property>
  <property name="meta.media.0.codec.sample_rate">48000</property>
  <property name="meta.media.0.codec.channels">2</property>
  <property name="meta.media.0.codec.name">pcm_s16le</property>
  <property name="meta.media.0.codec.long_name">PCM signed 16-bit little-endian</property>
  <property name="meta.media.0.codec.bit_rate">1536000</property>
  <property name="seekable">1</property>
  <property name="audio_index">0</property>
  <property name="video_index">-1</property>
  <property name="mute_on_pause">1</property>
  <property name="mlt_service">avformat</property>
  <property name="kdenlive:clipname"/>
  <property name="kdenlive:folderid">23</property>
  <property name="kdenlive:id">43</property>
  <property name="kdenlive:file_size">2802828</property>
  <property name="kdenlive:file_hash">e6d4ed120e3538c5b822a467bef7391c</property>
  <property name="kdenlive:audio_max0">120</property>
 </producer>
 <producer id="producer38" in="00:00:00.000" out="00:00:09.950">
  <property name="length">598</property>
  <property name="eof">pause</property>
  <property name="resource">audio/normalized/i1.wav</property>
  <property name="meta.media.nb_streams">1</property>
  <property name="meta.media.0.stream.type">audio</property>
  <property name="meta.media.0.codec.sample_fmt">s16</property>
  <property name="meta.media.0.codec.sample_rate">48000</property>
  <property name="meta.media.0.codec.channels">2</property>
  <property name="meta.media.0.codec.name">pcm_s16le</property>
  <property name="meta.media.0.codec.long_name">PCM signed 16-bit little-endian</property>
  <property name="meta.media.0.codec.bit_rate">1536000</property>
  <property name="seekable">1</property>
  <property name="audio_index">0</property>
  <property name="video_index">-1</property>
  <property name="mute_on_pause">1</property>
  <property name="mlt_service">avformat</property>
  <property name="kdenlive:clipname"/>
  <property name="kdenlive:folderid">23</property>
  <property name="kdenlive:id">44</property>
  <property name="kdenlive:file_size">1914412</property>
  <property name="kdenlive:file_hash">be76629fa43b117dcf4e08212ce8a488</property>
  <property name="kdenlive:audio_max0">132</property>
 </producer>
 <producer id="producer40" in="00:00:00.000" out="00:00:11.583">
  <property name="length">696</property>
  <property name="eof">pause</property>
  <property name="resource">audio/normalized/i2.wav</property>
  <property name="meta.media.nb_streams">1</property>
  <property name="meta.media.0.stream.type">audio</property>
  <property name="meta.media.0.codec.sample_fmt">s16</property>
  <property name="meta.media.0.codec.sample_rate">48000</property>
  <property name="meta.media.0.codec.channels">2</property>
  <property name="meta.media.0.codec.name">pcm_s16le</property>
  <property name="meta.media.0.codec.long_name">PCM signed 16-bit little-endian</property>
  <property name="meta.media.0.codec.bit_rate">1536000</property>
  <property name="seekable">1</property>
  <property name="audio_index">0</property>
  <property name="video_index">-1</property>
  <property name="mute_on_pause">1</property>
  <property name="mlt_service">avformat</property>
  <property name="kdenlive:clipname"/>
  <property name="kdenlive:folderid">23</property>
  <property name="kdenlive:id">45</property>
  <property name="kdenlive:file_size">2226060</property>
  <property name="kdenlive:file_hash">c6fe616c4f27c7038a1deafd3147b0ba</property>
  <property name="kdenlive:audio_max0">110</property>
 </producer>
 <producer id="producer42" in="00:00:00.000" out="00:00:14.083">
  <property name="length">846</property>
  <property name="eof">pause</property>
  <property name="resource">audio/normalized/i3.wav</property>
  <property name="meta.media.nb_streams">1</property>
  <property name="meta.media.0.stream.type">audio</property>
  <property name="meta.media.0.codec.sample_fmt">s16</property>
  <property name="meta.media.0.codec.sample_rate">48000</property>
  <property name="meta.media.0.codec.channels">2</property>
  <property name="meta.media.0.codec.name">pcm_s16le</property>
  <property name="meta.media.0.codec.long_name">PCM signed 16-bit little-endian</property>
  <property name="meta.media.0.codec.bit_rate">1536000</property>
  <property name="seekable">1</property>
  <property name="audio_index">0</property>
  <property name="video_index">-1</property>
  <property name="mute_on_pause">1</property>
  <property name="mlt_service">avformat</property>
  <property name="kdenlive:clipname"/>
  <property name="kdenlive:folderid">23</property>
  <property name="kdenlive:id">46</property>
  <property name="kdenlive:file_size">2707724</property>
  <property name="kdenlive:file_hash">6c3667bb8ddc5ba7902930eee06196cd</property>
  <property name="kdenlive:audio_max0">111</property>
 </producer>
 <producer id="producer41" in="00:00:00.000" out="00:00:11.950">
  <property name="length">718</property>
  <property name="eof">pause</property>
  <property name="resource">audio/normalized/i4.wav</property>
  <property name="meta.media.nb_streams">1</property>
  <property name="meta.media.0.stream.type">audio</property>
  <property name="meta.media.0.codec.sample_fmt">s16</property>
  <property name="meta.media.0.codec.sample_rate">48000</property>
  <property name="meta.media.0.codec.channels">2</property>
  <property name="meta.media.0.codec.name">pcm_s16le</property>
  <property name="meta.media.0.codec.long_name">PCM signed 16-bit little-endian</property>
  <property name="meta.media.0.codec.bit_rate">1536000</property>
  <property name="seekable">1</property>
  <property name="audio_index">0</property>
  <property name="video_index">-1</property>
  <property name="mute_on_pause">1</property>
  <property name="mlt_service">avformat</property>
  <property name="kdenlive:clipname"/>
  <property name="kdenlive:folderid">23</property>
  <property name="kdenlive:id">47</property>
  <property name="kdenlive:file_size">2298924</property>
  <property name="kdenlive:file_hash">5b8aa52b7aacb6e5b1d8bf2f405e56ad</property>
  <property name="kdenlive:audio_max0">122</property>
 </producer>
 <producer id="producer43" in="00:00:00.000" out="00:00:23.083">
  <property name="length">1386</property>
  <property name="eof">pause</property>
  <property name="resource">audio/normalized/i5.wav</property>
  <property name="meta.media.nb_streams">1</property>
  <property name="meta.media.0.stream.type">audio</property>
  <property name="meta.media.0.codec.sample_fmt">s16</property>
  <property name="meta.media.0.codec.sample_rate">48000</property>
  <property name="meta.media.0.codec.channels">2</property>
  <property name="meta.media.0.codec.name">pcm_s16le</property>
  <property name="meta.media.0.codec.long_name">PCM signed 16-bit little-endian</property>
  <property name="meta.media.0.codec.bit_rate">1536000</property>
  <property name="seekable">1</property>
  <property name="audio_index">0</property>
  <property name="video_index">-1</property>
  <property name="mute_on_pause">1</property>
  <property name="mlt_service">avformat</property>
  <property name="kdenlive:clipname"/>
  <property name="kdenlive:folderid">23</property>
  <property name="kdenlive:id">48</property>
  <property name="kdenlive:file_size">4433932</property>
  <property name="kdenlive:file_hash">03c36c75f56e236af6fd5d70bb1e3eec</property>
  <property name="kdenlive:audio_max0">138</property>
 </producer>
 <producer id="producer44" in="00:00:00.000" out="00:00:05.450">
  <property name="length">328</property>
  <property name="eof">pause</property>
  <property name="resource">audio/normalized/inf1.wav</property>
  <property name="meta.media.nb_streams">1</property>
  <property name="meta.media.0.stream.type">audio</property>
  <property name="meta.media.0.codec.sample_fmt">s16</property>
  <property name="meta.media.0.codec.sample_rate">48000</property>
  <property name="meta.media.0.codec.channels">2</property>
  <property name="meta.media.0.codec.name">pcm_s16le</property>
  <property name="meta.media.0.codec.long_name">PCM signed 16-bit little-endian</property>
  <property name="meta.media.0.codec.bit_rate">1536000</property>
  <property name="seekable">1</property>
  <property name="audio_index">0</property>
  <property name="video_index">-1</property>
  <property name="mute_on_pause">1</property>
  <property name="mlt_service">avformat</property>
  <property name="kdenlive:clipname"/>
  <property name="kdenlive:folderid">23</property>
  <property name="kdenlive:id">49</property>
  <property name="kdenlive:file_size">1050284</property>
  <property name="kdenlive:file_hash">8ad88319b56288605ce18bad42be0e42</property>
  <property name="kdenlive:audio_max0">130</property>
 </producer>
 <producer id="producer45" in="00:00:00.000" out="00:00:16.950">
  <property name="length">1018</property>
  <property name="eof">pause</property>
  <property name="resource">audio/normalized/inf2.wav</property>
  <property name="meta.media.nb_streams">1</property>
  <property name="meta.media.0.stream.type">audio</property>
  <property name="meta.media.0.codec.sample_fmt">s16</property>
  <property name="meta.media.0.codec.sample_rate">48000</property>
  <property name="meta.media.0.codec.channels">2</property>
  <property name="meta.media.0.codec.name">pcm_s16le</property>
  <property name="meta.media.0.codec.long_name">PCM signed 16-bit little-endian</property>
  <property name="meta.media.0.codec.bit_rate">1536000</property>
  <property name="seekable">1</property>
  <property name="audio_index">0</property>
  <property name="video_index">-1</property>
  <property name="mute_on_pause">1</property>
  <property name="mlt_service">avformat</property>
  <property name="kdenlive:clipname"/>
  <property name="kdenlive:folderid">23</property>
  <property name="kdenlive:id">50</property>
  <property name="kdenlive:file_size">3258156</property>
  <property name="kdenlive:file_hash">5cb39fd62d1a08fa9335b042c175bbfb</property>
  <property name="kdenlive:audio_max0">130</property>
 </producer>
 <producer id="producer46" in="00:00:00.000" out="00:00:30.583">
  <property name="length">1836</property>
  <property name="eof">pause</property>
  <property name="resource">audio/normalized/inf3.wav</property>
  <property name="meta.media.nb_streams">1</property>
  <property name="meta.media.0.stream.type">audio</property>
  <property name="meta.media.0.codec.sample_fmt">s16</property>
  <property name="meta.media.0.codec.sample_rate">48000</property>
  <property name="meta.media.0.codec.channels">2</property>
  <property name="meta.media.0.codec.name">pcm_s16le</property>
  <property name="meta.media.0.codec.long_name">PCM signed 16-bit little-endian</property>
  <property name="meta.media.0.codec.bit_rate">1536000</property>
  <property name="seekable">1</property>
  <property name="audio_index">0</property>
  <property name="video_index">-1</property>
  <property name="mute_on_pause">1</property>
  <property name="mlt_service">avformat</property>
  <property name="kdenlive:clipname"/>
  <property name="kdenlive:folderid">23</property>
  <property name="kdenlive:id">51</property>
  <property name="kdenlive:file_size">5874828</property>
  <property name="kdenlive:file_hash">5f59764e704c626fb24414347b3f711d</property>
  <property name="kdenlive:audio_max0">129</property>
 </producer>
 <producer id="producer47" in="00:00:00.000" out="00:00:06.583">
  <property name="length">396</property>
  <property name="eof">pause</property>
  <property name="resource">audio/normalized/inf4.wav</property>
  <property name="meta.media.nb_streams">1</property>
  <property name="meta.media.0.stream.type">audio</property>
  <property name="meta.media.0.codec.sample_fmt">s16</property>
  <property name="meta.media.0.codec.sample_rate">48000</property>
  <property name="meta.media.0.codec.channels">2</property>
  <property name="meta.media.0.codec.name">pcm_s16le</property>
  <property name="meta.media.0.codec.long_name">PCM signed 16-bit little-endian</property>
  <property name="meta.media.0.codec.bit_rate">1536000</property>
  <property name="seekable">1</property>
  <property name="audio_index">0</property>
  <property name="video_index">-1</property>
  <property name="mute_on_pause">1</property>
  <property name="mlt_service">avformat</property>
  <property name="kdenlive:clipname"/>
  <property name="kdenlive:folderid">23</property>
  <property name="kdenlive:id">52</property>
  <property name="kdenlive:file_size">1266828</property>
  <property name="kdenlive:file_hash">e9791143fb307797d5ee34ed30052ccc</property>
  <property name="kdenlive:audio_max0">112</property>
 </producer>
 <producer id="producer49" in="00:00:00.000" out="00:00:11.950">
  <property name="length">718</property>
  <property name="eof">pause</property>
  <property name="resource">audio/normalized/m1.wav</property>
  <property name="meta.media.nb_streams">1</property>
  <property name="meta.media.0.stream.type">audio</property>
  <property name="meta.media.0.codec.sample_fmt">s16</property>
  <property name="meta.media.0.codec.sample_rate">48000</property>
  <property name="meta.media.0.codec.channels">2</property>
  <property name="meta.media.0.codec.name">pcm_s16le</property>
  <property name="meta.media.0.codec.long_name">PCM signed 16-bit little-endian</property>
  <property name="meta.media.0.codec.bit_rate">1536000</property>
  <property name="seekable">1</property>
  <property name="audio_index">0</property>
  <property name="video_index">-1</property>
  <property name="mute_on_pause">1</property>
  <property name="mlt_service">avformat</property>
  <property name="kdenlive:clipname"/>
  <property name="kdenlive:folderid">23</property>
  <property name="kdenlive:id">53</property>
  <property name="kdenlive:file_size">2298924</property>
  <property name="kdenlive:file_hash">73acd436b293fd7e29b7d10f1ab47976</property>
  <property name="kdenlive:audio_max0">112</property>
 </producer>
 <producer id="producer48" in="00:00:00.000" out="00:00:03.583">
  <property name="length">216</property>
  <property name="eof">pause</property>
  <property name="resource">audio/normalized/m2.wav</property>
  <property name="meta.media.nb_streams">1</property>
  <property name="meta.media.0.stream.type">audio</property>
  <property name="meta.media.0.codec.sample_fmt">s16</property>
  <property name="meta.media.0.codec.sample_rate">48000</property>
  <property name="meta.media.0.codec.channels">2</property>
  <property name="meta.media.0.codec.name">pcm_s16le</property>
  <property name="meta.media.0.codec.long_name">PCM signed 16-bit little-endian</property>
  <property name="meta.media.0.codec.bit_rate">1536000</property>
  <property name="seekable">1</property>
  <property name="audio_index">0</property>
  <property name="video_index">-1</property>
  <property name="mute_on_pause">1</property>
  <property name="mlt_service">avformat</property>
  <property name="kdenlive:clipname"/>
  <property name="kdenlive:folderid">23</property>
  <property name="kdenlive:id">54</property>
  <property name="kdenlive:file_size">690060</property>
  <property name="kdenlive:file_hash">111be408aa6ebc4c5908afc4937c441c</property>
  <property name="kdenlive:audio_max0">109</property>
 </producer>
 <producer id="producer50" in="00:00:00.000" out="00:00:15.200">
  <property name="length">913</property>
  <property name="eof">pause</property>
  <property name="resource">audio/normalized/o1.wav</property>
  <property name="meta.media.nb_streams">1</property>
  <property name="meta.media.0.stream.type">audio</property>
  <property name="meta.media.0.codec.sample_fmt">s16</property>
  <property name="meta.media.0.codec.sample_rate">48000</property>
  <property name="meta.media.0.codec.channels">2</property>
  <property name="meta.media.0.codec.name">pcm_s16le</property>
  <property name="meta.media.0.codec.long_name">PCM signed 16-bit little-endian</property>
  <property name="meta.media.0.codec.bit_rate">1536000</property>
  <property name="seekable">1</property>
  <property name="audio_index">0</property>
  <property name="video_index">-1</property>
  <property name="mute_on_pause">1</property>
  <property name="mlt_service">avformat</property>
  <property name="kdenlive:clipname"/>
  <property name="kdenlive:folderid">23</property>
  <property name="kdenlive:id">55</property>
  <property name="kdenlive:file_size">2922220</property>
  <property name="kdenlive:file_hash">8219345e012719d74a691726e14ff07e</property>
  <property name="kdenlive:audio_max0">121</property>
 </producer>
 <producer id="producer51" in="00:00:00.000" out="00:00:03.217">
  <property name="length">194</property>
  <property name="eof">pause</property>
  <property name="resource">audio/normalized/t1.wav</property>
  <property name="meta.media.nb_streams">1</property>
  <property name="meta.media.0.stream.type">audio</property>
  <property name="meta.media.0.codec.sample_fmt">s16</property>
  <property name="meta.media.0.codec.sample_rate">48000</property>
  <property name="meta.media.0.codec.channels">2</property>
  <property name="meta.media.0.codec.name">pcm_s16le</property>
  <property name="meta.media.0.codec.long_name">PCM signed 16-bit little-endian</property>
  <property name="meta.media.0.codec.bit_rate">1536000</property>
  <property name="seekable">1</property>
  <property name="audio_index">0</property>
  <property name="video_index">-1</property>
  <property name="mute_on_pause">1</property>
  <property name="mlt_service">avformat</property>
  <property name="kdenlive:clipname"/>
  <property name="kdenlive:folderid">23</property>
  <property name="kdenlive:id">56</property>
  <property name="kdenlive:file_size">619244</property>
  <property name="kdenlive:file_hash">5713e81646b2360cfbec0da9f0bd03d5</property>
  <property name="kdenlive:audio_max0">125</property>
 </producer>
 <producer id="producer52" in="00:00:00.000" out="00:00:09.950">
  <property name="length">598</property>
  <property name="eof">pause</property>
  <property name="resource">audio/normalized/t2.wav</property>
  <property name="meta.media.nb_streams">1</property>
  <property name="meta.media.0.stream.type">audio</property>
  <property name="meta.media.0.codec.sample_fmt">s16</property>
  <property name="meta.media.0.codec.sample_rate">48000</property>
  <property name="meta.media.0.codec.channels">2</property>
  <property name="meta.media.0.codec.name">pcm_s16le</property>
  <property name="meta.media.0.codec.long_name">PCM signed 16-bit little-endian</property>
  <property name="meta.media.0.codec.bit_rate">1536000</property>
  <property name="seekable">1</property>
  <property name="audio_index">0</property>
  <property name="video_index">-1</property>
  <property name="mute_on_pause">1</property>
  <property name="mlt_service">avformat</property>
  <property name="kdenlive:clipname"/>
  <property name="kdenlive:folderid">23</property>
  <property name="kdenlive:id">57</property>
  <property name="kdenlive:file_size">1914412</property>
  <property name="kdenlive:file_hash">b50c6d7ec9f41122b42d4a16eefa47ef</property>
  <property name="kdenlive:audio_max0">121</property>
 </producer>
 <producer id="producer53" in="00:00:00.000" out="00:00:11.833">
  <property name="length">711</property>
  <property name="eof">pause</property>
  <property name="resource">audio/normalized/t3.wav</property>
  <property name="meta.media.nb_streams">1</property>
  <property name="meta.media.0.stream.type">audio</property>
  <property name="meta.media.0.codec.sample_fmt">s16</property>
  <property name="meta.media.0.codec.sample_rate">48000</property>
  <property name="meta.media.0.codec.channels">2</property>
  <property name="meta.media.0.codec.name">pcm_s16le</property>
  <property name="meta.media.0.codec.long_name">PCM signed 16-bit little-endian</property>
  <property name="meta.media.0.codec.bit_rate">1536000</property>
  <property name="seekable">1</property>
  <property name="audio_index">0</property>
  <property name="video_index">-1</property>
  <property name="mute_on_pause">1</property>
  <property name="mlt_service">avformat</property>
  <property name="kdenlive:clipname"/>
  <property name="kdenlive:folderid">23</property>
  <property name="kdenlive:id">58</property>
  <property name="kdenlive:file_size">2274636</property>
  <property name="kdenlive:file_hash">7b51bd908b3ae2d03ab3f0c9ddb80807</property>
  <property name="kdenlive:audio_max0">114</property>
 </producer>
 <producer id="producer54" in="00:00:00.000" out="00:00:13.833">
  <property name="length">831</property>
  <property name="eof">pause</property>
  <property name="resource">audio/normalized/t4.wav</property>
  <property name="meta.media.nb_streams">1</property>
  <property name="meta.media.0.stream.type">audio</property>
  <property name="meta.media.0.codec.sample_fmt">s16</property>
  <property name="meta.media.0.codec.sample_rate">48000</property>
  <property name="meta.media.0.codec.channels">2</property>
  <property name="meta.media.0.codec.name">pcm_s16le</property>
  <property name="meta.media.0.codec.long_name">PCM signed 16-bit little-endian</property>
  <property name="meta.media.0.codec.bit_rate">1536000</property>
  <property name="seekable">1</property>
  <property name="audio_index">0</property>
  <property name="video_index">-1</property>
  <property name="mute_on_pause">1</property>
  <property name="mlt_service">avformat</property>
  <property name="kdenlive:clipname"/>
  <property name="kdenlive:folderid">23</property>
  <property name="kdenlive:id">59</property>
  <property name="kdenlive:file_size">2659148</property>
  <property name="kdenlive:file_hash">b012c90bed902c57afbc78b94b9d08ce</property>
  <property name="kdenlive:audio_max0">121</property>
 </producer>
 <producer id="producer55" in="00:00:00.000" out="00:00:06.833">
  <property name="length">411</property>
  <property name="eof">pause</property>
  <property name="resource">audio/normalized/t5.wav</property>
  <property name="meta.media.nb_streams">1</property>
  <property name="meta.media.0.stream.type">audio</property>
  <property name="meta.media.0.codec.sample_fmt">s16</property>
  <property name="meta.media.0.codec.sample_rate">48000</property>
  <property name="meta.media.0.codec.channels">2</property>
  <property name="meta.media.0.codec.name">pcm_s16le</property>
  <property name="meta.media.0.codec.long_name">PCM signed 16-bit little-endian</property>
  <property name="meta.media.0.codec.bit_rate">1536000</property>
  <property name="seekable">1</property>
  <property name="audio_index">0</property>
  <property name="video_index">-1</property>
  <property name="mute_on_pause">1</property>
  <property name="mlt_service">avformat</property>
  <property name="kdenlive:clipname"/>
  <property name="kdenlive:folderid">23</property>
  <property name="kdenlive:id">60</property>
  <property name="kdenlive:file_size">1315404</property>
  <property name="kdenlive:file_hash">d065c0d188666ab266f0f1064a0fcca6</property>
  <property name="kdenlive:audio_max0">128</property>
 </producer>
 <producer id="producer56" in="00:00:00.000" out="00:00:11.700">
  <property name="length">703</property>
  <property name="eof">pause</property>
  <property name="resource">audio/raw/c1.wav</property>
  <property name="meta.media.nb_streams">1</property>
  <property name="meta.media.0.stream.type">audio</property>
  <property name="meta.media.0.codec.sample_fmt">s16</property>
  <property name="meta.media.0.codec.sample_rate">48000</property>
  <property name="meta.media.0.codec.channels">2</property>
  <property name="meta.media.0.codec.name">pcm_s16le</property>
  <property name="meta.media.0.codec.long_name">PCM signed 16-bit little-endian</property>
  <property name="meta.media.0.codec.bit_rate">1536000</property>
  <property name="seekable">1</property>
  <property name="audio_index">0</property>
  <property name="video_index">-1</property>
  <property name="mute_on_pause">1</property>
  <property name="mlt_service">avformat</property>
  <property name="kdenlive:clipname"/>
  <property name="kdenlive:folderid">62</property>
  <property name="kdenlive:id">61</property>
  <property name="kdenlive:file_size">2250348</property>
  <property name="kdenlive:file_hash">62f6ff7c4213b869a128f64004146baf</property>
  <property name="kdenlive:audio_max0">157</property>
 </producer>
 <producer id="producer57" in="00:00:00.000" out="00:00:10.083">
  <property name="length">606</property>
  <property name="eof">pause</property>
  <property name="resource">audio/raw/c2.wav</property>
  <property name="meta.media.nb_streams">1</property>
  <property name="meta.media.0.stream.type">audio</property>
  <property name="meta.media.0.codec.sample_fmt">s16</property>
  <property name="meta.media.0.codec.sample_rate">48000</property>
  <property name="meta.media.0.codec.channels">2</property>
  <property name="meta.media.0.codec.name">pcm_s16le</property>
  <property name="meta.media.0.codec.long_name">PCM signed 16-bit little-endian</property>
  <property name="meta.media.0.codec.bit_rate">1536000</property>
  <property name="seekable">1</property>
  <property name="audio_index">0</property>
  <property name="video_index">-1</property>
  <property name="mute_on_pause">1</property>
  <property name="mlt_service">avformat</property>
  <property name="kdenlive:clipname"/>
  <property name="kdenlive:folderid">62</property>
  <property name="kdenlive:id">63</property>
  <property name="kdenlive:file_size">1938700</property>
  <property name="kdenlive:file_hash">d166cd3e39bf54fab41686496ed223f2</property>
  <property name="kdenlive:audio_max0">168</property>
 </producer>
 <producer id="producer58" in="00:00:00.000" out="00:00:10.333">
  <property name="length">621</property>
  <property name="eof">pause</property>
  <property name="resource">audio/raw/c3.wav</property>
  <property name="meta.media.nb_streams">1</property>
  <property name="meta.media.0.stream.type">audio</property>
  <property name="meta.media.0.codec.sample_fmt">s16</property>
  <property name="meta.media.0.codec.sample_rate">48000</property>
  <property name="meta.media.0.codec.channels">2</property>
  <property name="meta.media.0.codec.name">pcm_s16le</property>
  <property name="meta.media.0.codec.long_name">PCM signed 16-bit little-endian</property>
  <property name="meta.media.0.codec.bit_rate">1536000</property>
  <property name="seekable">1</property>
  <property name="audio_index">0</property>
  <property name="video_index">-1</property>
  <property name="mute_on_pause">1</property>
  <property name="mlt_service">avformat</property>
  <property name="kdenlive:clipname"/>
  <property name="kdenlive:folderid">62</property>
  <property name="kdenlive:id">64</property>
  <property name="kdenlive:file_size">1987276</property>
  <property name="kdenlive:file_hash">698c8e417d5614fb6e75f8e2fadc9bcc</property>
  <property name="kdenlive:audio_max0">158</property>
 </producer>
 <producer id="producer59" in="00:00:00.000" out="00:00:11.833">
  <property name="length">711</property>
  <property name="eof">pause</property>
  <property name="resource">audio/raw/c4.wav</property>
  <property name="meta.media.nb_streams">1</property>
  <property name="meta.media.0.stream.type">audio</property>
  <property name="meta.media.0.codec.sample_fmt">s16</property>
  <property name="meta.media.0.codec.sample_rate">48000</property>
  <property name="meta.media.0.codec.channels">2</property>
  <property name="meta.media.0.codec.name">pcm_s16le</property>
  <property name="meta.media.0.codec.long_name">PCM signed 16-bit little-endian</property>
  <property name="meta.media.0.codec.bit_rate">1536000</property>
  <property name="seekable">1</property>
  <property name="audio_index">0</property>
  <property name="video_index">-1</property>
  <property name="mute_on_pause">1</property>
  <property name="mlt_service">avformat</property>
  <property name="kdenlive:clipname"/>
  <property name="kdenlive:folderid">62</property>
  <property name="kdenlive:id">65</property>
  <property name="kdenlive:file_size">2274636</property>
  <property name="kdenlive:file_hash">f19499fc96b8bf93e4955ff96dffb75e</property>
  <property name="kdenlive:audio_max0">145</property>
 </producer>
 <producer id="producer60" in="00:00:00.000" out="00:00:12.583">
  <property name="length">756</property>
  <property name="eof">pause</property>
  <property name="resource">audio/raw/c5.wav</property>
  <property name="meta.media.nb_streams">1</property>
  <property name="meta.media.0.stream.type">audio</property>
  <property name="meta.media.0.codec.sample_fmt">s16</property>
  <property name="meta.media.0.codec.sample_rate">48000</property>
  <property name="meta.media.0.codec.channels">2</property>
  <property name="meta.media.0.codec.name">pcm_s16le</property>
  <property name="meta.media.0.codec.long_name">PCM signed 16-bit little-endian</property>
  <property name="meta.media.0.codec.bit_rate">1536000</property>
  <property name="seekable">1</property>
  <property name="audio_index">0</property>
  <property name="video_index">-1</property>
  <property name="mute_on_pause">1</property>
  <property name="mlt_service">avformat</property>
  <property name="kdenlive:clipname"/>
  <property name="kdenlive:folderid">62</property>
  <property name="kdenlive:id">66</property>
  <property name="kdenlive:file_size">2418316</property>
  <property name="kdenlive:file_hash">28230192f37e5c535d73816dd19c8491</property>
  <property name="kdenlive:audio_max0">162</property>
 </producer>
 <producer id="producer61" in="00:00:00.000" out="00:00:25.950">
  <property name="length">1558</property>
  <property name="eof">pause</property>
  <property name="resource">audio/raw/e11.wav</property>
  <property name="meta.media.nb_streams">1</property>
  <property name="meta.media.0.stream.type">audio</property>
  <property name="meta.media.0.codec.sample_fmt">s16</property>
  <property name="meta.media.0.codec.sample_rate">48000</property>
  <property name="meta.media.0.codec.channels">2</property>
  <property name="meta.media.0.codec.name">pcm_s16le</property>
  <property name="meta.media.0.codec.long_name">PCM signed 16-bit little-endian</property>
  <property name="meta.media.0.codec.bit_rate">1536000</property>
  <property name="seekable">1</property>
  <property name="audio_index">0</property>
  <property name="video_index">-1</property>
  <property name="mute_on_pause">1</property>
  <property name="mlt_service">avformat</property>
  <property name="kdenlive:clipname"/>
  <property name="kdenlive:folderid">62</property>
  <property name="kdenlive:id">67</property>
  <property name="kdenlive:file_size">4986412</property>
  <property name="kdenlive:file_hash">e178eaf102ecdeb276d7ee8962032dea</property>
  <property name="kdenlive:audio_max0">172</property>
 </producer>
 <producer id="producer62" in="00:00:00.000" out="00:00:19.217">
  <property name="length">1154</property>
  <property name="eof">pause</property>
  <property name="resource">audio/raw/e21.wav</property>
  <property name="meta.media.nb_streams">1</property>
  <property name="meta.media.0.stream.type">audio</property>
  <property name="meta.media.0.codec.sample_fmt">s16</property>
  <property name="meta.media.0.codec.sample_rate">48000</property>
  <property name="meta.media.0.codec.channels">2</property>
  <property name="meta.media.0.codec.name">pcm_s16le</property>
  <property name="meta.media.0.codec.long_name">PCM signed 16-bit little-endian</property>
  <property name="meta.media.0.codec.bit_rate">1536000</property>
  <property name="seekable">1</property>
  <property name="audio_index">0</property>
  <property name="video_index">-1</property>
  <property name="mute_on_pause">1</property>
  <property name="mlt_service">avformat</property>
  <property name="kdenlive:clipname"/>
  <property name="kdenlive:folderid">62</property>
  <property name="kdenlive:id">68</property>
  <property name="kdenlive:file_size">3691244</property>
  <property name="kdenlive:file_hash">6861e2f606faf3992e97e32ddcd51c7c</property>
  <property name="kdenlive:audio_max0">148</property>
 </producer>
 <producer id="producer63" in="00:00:00.000" out="00:00:10.583">
  <property name="length">636</property>
  <property name="eof">pause</property>
  <property name="resource">audio/raw/e22.wav</property>
  <property name="meta.media.nb_streams">1</property>
  <property name="meta.media.0.stream.type">audio</property>
  <property name="meta.media.0.codec.sample_fmt">s16</property>
  <property name="meta.media.0.codec.sample_rate">48000</property>
  <property name="meta.media.0.codec.channels">2</property>
  <property name="meta.media.0.codec.name">pcm_s16le</property>
  <property name="meta.media.0.codec.long_name">PCM signed 16-bit little-endian</property>
  <property name="meta.media.0.codec.bit_rate">1536000</property>
  <property name="seekable">1</property>
  <property name="audio_index">0</property>
  <property name="video_index">-1</property>
  <property name="mute_on_pause">1</property>
  <property name="mlt_service">avformat</property>
  <property name="kdenlive:clipname"/>
  <property name="kdenlive:folderid">62</property>
  <property name="kdenlive:id">69</property>
  <property name="kdenlive:file_size">2035852</property>
  <property name="kdenlive:file_hash">41afa9c60a9ad87dad2d6ab2baa113fd</property>
  <property name="kdenlive:audio_max0">155</property>
 </producer>
 <producer id="producer64" in="00:00:00.000" out="00:00:03.083">
  <property name="length">186</property>
  <property name="eof">pause</property>
  <property name="resource">audio/raw/e23.wav</property>
  <property name="meta.media.nb_streams">1</property>
  <property name="meta.media.0.stream.type">audio</property>
  <property name="meta.media.0.codec.sample_fmt">s16</property>
  <property name="meta.media.0.codec.sample_rate">48000</property>
  <property name="meta.media.0.codec.channels">2</property>
  <property name="meta.media.0.codec.name">pcm_s16le</property>
  <property name="meta.media.0.codec.long_name">PCM signed 16-bit little-endian</property>
  <property name="meta.media.0.codec.bit_rate">1536000</property>
  <property name="seekable">1</property>
  <property name="audio_index">0</property>
  <property name="video_index">-1</property>
  <property name="mute_on_pause">1</property>
  <property name="mlt_service">avformat</property>
  <property name="kdenlive:clipname"/>
  <property name="kdenlive:folderid">62</property>
  <property name="kdenlive:id">70</property>
  <property name="kdenlive:file_size">594956</property>
  <property name="kdenlive:file_hash">8cebbcf456f317736c1a23b877daf514</property>
  <property name="kdenlive:audio_max0">166</property>
 </producer>
 <producer id="producer65" in="00:00:00.000" out="00:00:07.967">
  <property name="length">479</property>
  <property name="eof">pause</property>
  <property name="resource">audio/raw/e24.wav</property>
  <property name="meta.media.nb_streams">1</property>
  <property name="meta.media.0.stream.type">audio</property>
  <property name="meta.media.0.codec.sample_fmt">s16</property>
  <property name="meta.media.0.codec.sample_rate">48000</property>
  <property name="meta.media.0.codec.channels">2</property>
  <property name="meta.media.0.codec.name">pcm_s16le</property>
  <property name="meta.media.0.codec.long_name">PCM signed 16-bit little-endian</property>
  <property name="meta.media.0.codec.bit_rate">1536000</property>
  <property name="seekable">1</property>
  <property name="audio_index">0</property>
  <property name="video_index">-1</property>
  <property name="mute_on_pause">1</property>
  <property name="mlt_service">avformat</property>
  <property name="kdenlive:clipname"/>
  <property name="kdenlive:folderid">62</property>
  <property name="kdenlive:id">71</property>
  <property name="kdenlive:file_size">1531948</property>
  <property name="kdenlive:file_hash">5ac2455c31ba7789ec36c23f19f0ceb0</property>
  <property name="kdenlive:audio_max0">164</property>
 </producer>
 <producer id="producer66" in="00:00:00.000" out="00:00:06.083">
  <property name="length">366</property>
  <property name="eof">pause</property>
  <property name="resource">audio/raw/e25.wav</property>
  <property name="meta.media.nb_streams">1</property>
  <property name="meta.media.0.stream.type">audio</property>
  <property name="meta.media.0.codec.sample_fmt">s16</property>
  <property name="meta.media.0.codec.sample_rate">48000</property>
  <property name="meta.media.0.codec.channels">2</property>
  <property name="meta.media.0.codec.name">pcm_s16le</property>
  <property name="meta.media.0.codec.long_name">PCM signed 16-bit little-endian</property>
  <property name="meta.media.0.codec.bit_rate">1536000</property>
  <property name="seekable">1</property>
  <property name="audio_index">0</property>
  <property name="video_index">-1</property>
  <property name="mute_on_pause">1</property>
  <property name="mlt_service">avformat</property>
  <property name="kdenlive:clipname"/>
  <property name="kdenlive:folderid">62</property>
  <property name="kdenlive:id">72</property>
  <property name="kdenlive:file_size">1171724</property>
  <property name="kdenlive:file_hash">1c09a6fb5d74f3d3beca762839decf19</property>
  <property name="kdenlive:audio_max0">168</property>
 </producer>
 <producer id="producer67" in="00:00:00.000" out="00:00:12.217">
  <property name="length">734</property>
  <property name="eof">pause</property>
  <property name="resource">audio/raw/e31.wav</property>
  <property name="meta.media.nb_streams">1</property>
  <property name="meta.media.0.stream.type">audio</property>
  <property name="meta.media.0.codec.sample_fmt">s16</property>
  <property name="meta.media.0.codec.sample_rate">48000</property>
  <property name="meta.media.0.codec.channels">2</property>
  <property name="meta.media.0.codec.name">pcm_s16le</property>
  <property name="meta.media.0.codec.long_name">PCM signed 16-bit little-endian</property>
  <property name="meta.media.0.codec.bit_rate">1536000</property>
  <property name="seekable">1</property>
  <property name="audio_index">0</property>
  <property name="video_index">-1</property>
  <property name="mute_on_pause">1</property>
  <property name="mlt_service">avformat</property>
  <property name="kdenlive:clipname"/>
  <property name="kdenlive:folderid">62</property>
  <property name="kdenlive:id">73</property>
  <property name="kdenlive:file_size">2347500</property>
  <property name="kdenlive:file_hash">ea3c043c4ff223bb206c43a1e806c39c</property>
  <property name="kdenlive:audio_max0">159</property>
 </producer>
 <producer id="producer68" in="00:00:00.000" out="00:00:07.333">
  <property name="length">441</property>
  <property name="eof">pause</property>
  <property name="resource">audio/raw/e310.wav</property>
  <property name="meta.media.nb_streams">1</property>
  <property name="meta.media.0.stream.type">audio</property>
  <property name="meta.media.0.codec.sample_fmt">s16</property>
  <property name="meta.media.0.codec.sample_rate">48000</property>
  <property name="meta.media.0.codec.channels">2</property>
  <property name="meta.media.0.codec.name">pcm_s16le</property>
  <property name="meta.media.0.codec.long_name">PCM signed 16-bit little-endian</property>
  <property name="meta.media.0.codec.bit_rate">1536000</property>
  <property name="seekable">1</property>
  <property name="audio_index">0</property>
  <property name="video_index">-1</property>
  <property name="mute_on_pause">1</property>
  <property name="mlt_service">avformat</property>
  <property name="kdenlive:clipname"/>
  <property name="kdenlive:folderid">62</property>
  <property name="kdenlive:id">74</property>
  <property name="kdenlive:file_size">1410508</property>
  <property name="kdenlive:file_hash">d441211482e8e94e4bf87b345b38b73d</property>
  <property name="kdenlive:audio_max0">156</property>
 </producer>
 <producer id="producer69" in="00:00:00.000" out="00:00:08.083">
  <property name="length">486</property>
  <property name="eof">pause</property>
  <property name="resource">audio/raw/e32.wav</property>
  <property name="meta.media.nb_streams">1</property>
  <property name="meta.media.0.stream.type">audio</property>
  <property name="meta.media.0.codec.sample_fmt">s16</property>
  <property name="meta.media.0.codec.sample_rate">48000</property>
  <property name="meta.media.0.codec.channels">2</property>
  <property name="meta.media.0.codec.name">pcm_s16le</property>
  <property name="meta.media.0.codec.long_name">PCM signed 16-bit little-endian</property>
  <property name="meta.media.0.codec.bit_rate">1536000</property>
  <property name="seekable">1</property>
  <property name="audio_index">0</property>
  <property name="video_index">-1</property>
  <property name="mute_on_pause">1</property>
  <property name="mlt_service">avformat</property>
  <property name="kdenlive:clipname"/>
  <property name="kdenlive:folderid">62</property>
  <property name="kdenlive:id">75</property>
  <property name="kdenlive:file_size">1554188</property>
  <property name="kdenlive:file_hash">5dab5cf39abe6b15f406da4d5e3ebdb2</property>
  <property name="kdenlive:audio_max0">150</property>
 </producer>
 <producer id="producer70" in="00:00:00.000" out="00:00:12.333">
  <property name="length">741</property>
  <property name="eof">pause</property>
  <property name="resource">audio/raw/e33.wav</property>
  <property name="meta.media.nb_streams">1</property>
  <property name="meta.media.0.stream.type">audio</property>
  <property name="meta.media.0.codec.sample_fmt">s16</property>
  <property name="meta.media.0.codec.sample_rate">48000</property>
  <property name="meta.media.0.codec.channels">2</property>
  <property name="meta.media.0.codec.name">pcm_s16le</property>
  <property name="meta.media.0.codec.long_name">PCM signed 16-bit little-endian</property>
  <property name="meta.media.0.codec.bit_rate">1536000</property>
  <property name="seekable">1</property>
  <property name="audio_index">0</property>
  <property name="video_index">-1</property>
  <property name="mute_on_pause">1</property>
  <property name="mlt_service">avformat</property>
  <property name="kdenlive:clipname"/>
  <property name="kdenlive:folderid">62</property>
  <property name="kdenlive:id">76</property>
  <property name="kdenlive:file_size">2371788</property>
  <property name="kdenlive:file_hash">714e12d04661396a1301628b5f9f40c8</property>
  <property name="kdenlive:audio_max0">149</property>
 </producer>
 <producer id="producer71" in="00:00:00.000" out="00:00:12.217">
  <property name="length">734</property>
  <property name="eof">pause</property>
  <property name="resource">audio/raw/e34.wav</property>
  <property name="meta.media.nb_streams">1</property>
  <property name="meta.media.0.stream.type">audio</property>
  <property name="meta.media.0.codec.sample_fmt">s16</property>
  <property name="meta.media.0.codec.sample_rate">48000</property>
  <property name="meta.media.0.codec.channels">2</property>
  <property name="meta.media.0.codec.name">pcm_s16le</property>
  <property name="meta.media.0.codec.long_name">PCM signed 16-bit little-endian</property>
  <property name="meta.media.0.codec.bit_rate">1536000</property>
  <property name="seekable">1</property>
  <property name="audio_index">0</property>
  <property name="video_index">-1</property>
  <property name="mute_on_pause">1</property>
  <property name="mlt_service">avformat</property>
  <property name="kdenlive:clipname"/>
  <property name="kdenlive:folderid">62</property>
  <property name="kdenlive:id">77</property>
  <property name="kdenlive:file_size">2347500</property>
  <property name="kdenlive:file_hash">0c47c37862edf421228ebc84e50835d0</property>
  <property name="kdenlive:audio_max0">149</property>
 </producer>
 <producer id="producer72" in="00:00:00.000" out="00:00:05.967">
  <property name="length">359</property>
  <property name="eof">pause</property>
  <property name="resource">audio/raw/e35.wav</property>
  <property name="meta.media.nb_streams">1</property>
  <property name="meta.media.0.stream.type">audio</property>
  <property name="meta.media.0.codec.sample_fmt">s16</property>
  <property name="meta.media.0.codec.sample_rate">48000</property>
  <property name="meta.media.0.codec.channels">2</property>
  <property name="meta.media.0.codec.name">pcm_s16le</property>
  <property name="meta.media.0.codec.long_name">PCM signed 16-bit little-endian</property>
  <property name="meta.media.0.codec.bit_rate">1536000</property>
  <property name="seekable">1</property>
  <property name="audio_index">0</property>
  <property name="video_index">-1</property>
  <property name="mute_on_pause">1</property>
  <property name="mlt_service">avformat</property>
  <property name="kdenlive:clipname"/>
  <property name="kdenlive:folderid">62</property>
  <property name="kdenlive:id">78</property>
  <property name="kdenlive:file_size">1147436</property>
  <property name="kdenlive:file_hash">279ad176ec297c01c9a112a896d778c6</property>
  <property name="kdenlive:audio_max0">136</property>
 </producer>
 <producer id="producer73" in="00:00:00.000" out="00:00:03.333">
  <property name="length">201</property>
  <property name="eof">pause</property>
  <property name="resource">audio/raw/e36.wav</property>
  <property name="meta.media.nb_streams">1</property>
  <property name="meta.media.0.stream.type">audio</property>
  <property name="meta.media.0.codec.sample_fmt">s16</property>
  <property name="meta.media.0.codec.sample_rate">48000</property>
  <property name="meta.media.0.codec.channels">2</property>
  <property name="meta.media.0.codec.name">pcm_s16le</property>
  <property name="meta.media.0.codec.long_name">PCM signed 16-bit little-endian</property>
  <property name="meta.media.0.codec.bit_rate">1536000</property>
  <property name="seekable">1</property>
  <property name="audio_index">0</property>
  <property name="video_index">-1</property>
  <property name="mute_on_pause">1</property>
  <property name="mlt_service">avformat</property>
  <property name="kdenlive:clipname"/>
  <property name="kdenlive:folderid">62</property>
  <property name="kdenlive:id">79</property>
  <property name="kdenlive:file_size">643532</property>
  <property name="kdenlive:file_hash">3a04f5c459fa2eb9f71047c33b1cecb0</property>
  <property name="kdenlive:audio_max0">149</property>
 </producer>
 <producer id="producer74" in="00:00:00.000" out="00:00:09.833">
  <property name="length">591</property>
  <property name="eof">pause</property>
  <property name="resource">audio/raw/e37.wav</property>
  <property name="meta.media.nb_streams">1</property>
  <property name="meta.media.0.stream.type">audio</property>
  <property name="meta.media.0.codec.sample_fmt">s16</property>
  <property name="meta.media.0.codec.sample_rate">48000</property>
  <property name="meta.media.0.codec.channels">2</property>
  <property name="meta.media.0.codec.name">pcm_s16le</property>
  <property name="meta.media.0.codec.long_name">PCM signed 16-bit little-endian</property>
  <property name="meta.media.0.codec.bit_rate">1536000</property>
  <property name="seekable">1</property>
  <property name="audio_index">0</property>
  <property name="video_index">-1</property>
  <property name="mute_on_pause">1</property>
  <property name="mlt_service">avformat</property>
  <property name="kdenlive:clipname"/>
  <property name="kdenlive:folderid">62</property>
  <property name="kdenlive:id">80</property>
  <property name="kdenlive:file_size">1890124</property>
  <property name="kdenlive:file_hash">c8508ed027a011c0a37c2f49fd86b505</property>
  <property name="kdenlive:audio_max0">168</property>
 </producer>
 <producer id="producer75" in="00:00:00.000" out="00:00:10.083">
  <property name="length">606</property>
  <property name="eof">pause</property>
  <property name="resource">audio/raw/e38.wav</property>
  <property name="meta.media.nb_streams">1</property>
  <property name="meta.media.0.stream.type">audio</property>
  <property name="meta.media.0.codec.sample_fmt">s16</property>
  <property name="meta.media.0.codec.sample_rate">48000</property>
  <property name="meta.media.0.codec.channels">2</property>
  <property name="meta.media.0.codec.name">pcm_s16le</property>
  <property name="meta.media.0.codec.long_name">PCM signed 16-bit little-endian</property>
  <property name="meta.media.0.codec.bit_rate">1536000</property>
  <property name="seekable">1</property>
  <property name="audio_index">0</property>
  <property name="video_index">-1</property>
  <property name="mute_on_pause">1</property>
  <property name="mlt_service">avformat</property>
  <property name="kdenlive:clipname"/>
  <property name="kdenlive:folderid">62</property>
  <property name="kdenlive:id">81</property>
  <property name="kdenlive:file_size">1938700</property>
  <property name="kdenlive:file_hash">9f3c801b55cb6093e2cf351d34e7cbf7</property>
  <property name="kdenlive:audio_max0">147</property>
 </producer>
 <producer id="producer76" in="00:00:00.000" out="00:00:14.583">
  <property name="length">876</property>
  <property name="eof">pause</property>
  <property name="resource">audio/raw/e39.wav</property>
  <property name="meta.media.nb_streams">1</property>
  <property name="meta.media.0.stream.type">audio</property>
  <property name="meta.media.0.codec.sample_fmt">s16</property>
  <property name="meta.media.0.codec.sample_rate">48000</property>
  <property name="meta.media.0.codec.channels">2</property>
  <property name="meta.media.0.codec.name">pcm_s16le</property>
  <property name="meta.media.0.codec.long_name">PCM signed 16-bit little-endian</property>
  <property name="meta.media.0.codec.bit_rate">1536000</property>
  <property name="seekable">1</property>
  <property name="audio_index">0</property>
  <property name="video_index">-1</property>
  <property name="mute_on_pause">1</property>
  <property name="mlt_service">avformat</property>
  <property name="kdenlive:clipname"/>
  <property name="kdenlive:folderid">62</property>
  <property name="kdenlive:id">82</property>
  <property name="kdenlive:file_size">2802828</property>
  <property name="kdenlive:file_hash">cd1ecace7b7b74515941e60fac799893</property>
  <property name="kdenlive:audio_max0">164</property>
 </producer>
 <producer id="producer77" in="00:00:00.000" out="00:00:09.950">
  <property name="length">598</property>
  <property name="eof">pause</property>
  <property name="resource">audio/raw/i1.wav</property>
  <property name="meta.media.nb_streams">1</property>
  <property name="meta.media.0.stream.type">audio</property>
  <property name="meta.media.0.codec.sample_fmt">s16</property>
  <property name="meta.media.0.codec.sample_rate">48000</property>
  <property name="meta.media.0.codec.channels">2</property>
  <property name="meta.media.0.codec.name">pcm_s16le</property>
  <property name="meta.media.0.codec.long_name">PCM signed 16-bit little-endian</property>
  <property name="meta.media.0.codec.bit_rate">1536000</property>
  <property name="seekable">1</property>
  <property name="audio_index">0</property>
  <property name="video_index">-1</property>
  <property name="mute_on_pause">1</property>
  <property name="mlt_service">avformat</property>
  <property name="kdenlive:clipname"/>
  <property name="kdenlive:folderid">62</property>
  <property name="kdenlive:id">83</property>
  <property name="kdenlive:file_size">1914412</property>
  <property name="kdenlive:file_hash">4109320858d1cb2ca1f1f86f63bb3229</property>
  <property name="kdenlive:audio_max0">173</property>
 </producer>
 <producer id="producer78" in="00:00:00.000" out="00:00:11.583">
  <property name="length">696</property>
  <property name="eof">pause</property>
  <property name="resource">audio/raw/i2.wav</property>
  <property name="meta.media.nb_streams">1</property>
  <property name="meta.media.0.stream.type">audio</property>
  <property name="meta.media.0.codec.sample_fmt">s16</property>
  <property name="meta.media.0.codec.sample_rate">48000</property>
  <property name="meta.media.0.codec.channels">2</property>
  <property name="meta.media.0.codec.name">pcm_s16le</property>
  <property name="meta.media.0.codec.long_name">PCM signed 16-bit little-endian</property>
  <property name="meta.media.0.codec.bit_rate">1536000</property>
  <property name="seekable">1</property>
  <property name="audio_index">0</property>
  <property name="video_index">-1</property>
  <property name="mute_on_pause">1</property>
  <property name="mlt_service">avformat</property>
  <property name="kdenlive:clipname"/>
  <property name="kdenlive:folderid">62</property>
  <property name="kdenlive:id">84</property>
  <property name="kdenlive:file_size">2226060</property>
  <property name="kdenlive:file_hash">a553c36dc0f00c0d245d33c243be5d5c</property>
  <property name="kdenlive:audio_max0">152</property>
 </producer>
 <producer id="producer79" in="00:00:00.000" out="00:00:14.083">
  <property name="length">846</property>
  <property name="eof">pause</property>
  <property name="resource">audio/raw/i3.wav</property>
  <property name="meta.media.nb_streams">1</property>
  <property name="meta.media.0.stream.type">audio</property>
  <property name="meta.media.0.codec.sample_fmt">s16</property>
  <property name="meta.media.0.codec.sample_rate">48000</property>
  <property name="meta.media.0.codec.channels">2</property>
  <property name="meta.media.0.codec.name">pcm_s16le</property>
  <property name="meta.media.0.codec.long_name">PCM signed 16-bit little-endian</property>
  <property name="meta.media.0.codec.bit_rate">1536000</property>
  <property name="seekable">1</property>
  <property name="audio_index">0</property>
  <property name="video_index">-1</property>
  <property name="mute_on_pause">1</property>
  <property name="mlt_service">avformat</property>
  <property name="kdenlive:clipname"/>
  <property name="kdenlive:folderid">62</property>
  <property name="kdenlive:id">85</property>
  <property name="kdenlive:file_size">2707724</property>
  <property name="kdenlive:file_hash">109d471c6a9d79c08cd2c142a08872e4</property>
  <property name="kdenlive:audio_max0">149</property>
 </producer>
 <producer id="producer80" in="00:00:00.000" out="00:00:11.950">
  <property name="length">718</property>
  <property name="eof">pause</property>
  <property name="resource">audio/raw/i4.wav</property>
  <property name="meta.media.nb_streams">1</property>
  <property name="meta.media.0.stream.type">audio</property>
  <property name="meta.media.0.codec.sample_fmt">s16</property>
  <property name="meta.media.0.codec.sample_rate">48000</property>
  <property name="meta.media.0.codec.channels">2</property>
  <property name="meta.media.0.codec.name">pcm_s16le</property>
  <property name="meta.media.0.codec.long_name">PCM signed 16-bit little-endian</property>
  <property name="meta.media.0.codec.bit_rate">1536000</property>
  <property name="seekable">1</property>
  <property name="audio_index">0</property>
  <property name="video_index">-1</property>
  <property name="mute_on_pause">1</property>
  <property name="mlt_service">avformat</property>
  <property name="kdenlive:clipname"/>
  <property name="kdenlive:folderid">62</property>
  <property name="kdenlive:id">86</property>
  <property name="kdenlive:file_size">2298924</property>
  <property name="kdenlive:file_hash">eaf1e01e0f54bb58b2f473b28edd6abe</property>
  <property name="kdenlive:audio_max0">164</property>
 </producer>
 <producer id="producer81" in="00:00:00.000" out="00:00:23.083">
  <property name="length">1386</property>
  <property name="eof">pause</property>
  <property name="resource">audio/raw/i5.wav</property>
  <property name="meta.media.nb_streams">1</property>
  <property name="meta.media.0.stream.type">audio</property>
  <property name="meta.media.0.codec.sample_fmt">s16</property>
  <property name="meta.media.0.codec.sample_rate">48000</property>
  <property name="meta.media.0.codec.channels">2</property>
  <property name="meta.media.0.codec.name">pcm_s16le</property>
  <property name="meta.media.0.codec.long_name">PCM signed 16-bit little-endian</property>
  <property name="meta.media.0.codec.bit_rate">1536000</property>
  <property name="seekable">1</property>
  <property name="audio_index">0</property>
  <property name="video_index">-1</property>
  <property name="mute_on_pause">1</property>
  <property name="mlt_service">avformat</property>
  <property name="kdenlive:clipname"/>
  <property name="kdenlive:folderid">62</property>
  <property name="kdenlive:id">87</property>
  <property name="kdenlive:file_size">4433932</property>
  <property name="kdenlive:file_hash">12a0975245066827376480d265a877fe</property>
  <property name="kdenlive:audio_max0">176</property>
 </producer>
 <producer id="producer82" in="00:00:00.000" out="00:00:05.450">
  <property name="length">328</property>
  <property name="eof">pause</property>
  <property name="resource">audio/raw/inf1.wav</property>
  <property name="meta.media.nb_streams">1</property>
  <property name="meta.media.0.stream.type">audio</property>
  <property name="meta.media.0.codec.sample_fmt">s16</property>
  <property name="meta.media.0.codec.sample_rate">48000</property>
  <property name="meta.media.0.codec.channels">2</property>
  <property name="meta.media.0.codec.name">pcm_s16le</property>
  <property name="meta.media.0.codec.long_name">PCM signed 16-bit little-endian</property>
  <property name="meta.media.0.codec.bit_rate">1536000</property>
  <property name="seekable">1</property>
  <property name="audio_index">0</property>
  <property name="video_index">-1</property>
  <property name="mute_on_pause">1</property>
  <property name="mlt_service">avformat</property>
  <property name="kdenlive:clipname"/>
  <property name="kdenlive:folderid">62</property>
  <property name="kdenlive:id">88</property>
  <property name="kdenlive:file_size">1050284</property>
  <property name="kdenlive:file_hash">3ceffddde98f3e0715286e2addd596e1</property>
  <property name="kdenlive:audio_max0">176</property>
 </producer>
 <producer id="producer83" in="00:00:00.000" out="00:00:16.950">
  <property name="length">1018</property>
  <property name="eof">pause</property>
  <property name="resource">audio/raw/inf2.wav</property>
  <property name="meta.media.nb_streams">1</property>
  <property name="meta.media.0.stream.type">audio</property>
  <property name="meta.media.0.codec.sample_fmt">s16</property>
  <property name="meta.media.0.codec.sample_rate">48000</property>
  <property name="meta.media.0.codec.channels">2</property>
  <property name="meta.media.0.codec.name">pcm_s16le</property>
  <property name="meta.media.0.codec.long_name">PCM signed 16-bit little-endian</property>
  <property name="meta.media.0.codec.bit_rate">1536000</property>
  <property name="seekable">1</property>
  <property name="audio_index">0</property>
  <property name="video_index">-1</property>
  <property name="mute_on_pause">1</property>
  <property name="mlt_service">avformat</property>
  <property name="kdenlive:clipname"/>
  <property name="kdenlive:folderid">62</property>
  <property name="kdenlive:id">89</property>
  <property name="kdenlive:file_size">3258156</property>
  <property name="kdenlive:file_hash">29992cd9d5524b07eac2335c2468812f</property>
  <property name="kdenlive:audio_max0">176</property>
 </producer>
 <producer id="producer84" in="00:00:00.000" out="00:00:30.583">
  <property name="length">1836</property>
  <property name="eof">pause</property>
  <property name="resource">audio/raw/inf3.wav</property>
  <property name="meta.media.nb_streams">1</property>
  <property name="meta.media.0.stream.type">audio</property>
  <property name="meta.media.0.codec.sample_fmt">s16</property>
  <property name="meta.media.0.codec.sample_rate">48000</property>
  <property name="meta.media.0.codec.channels">2</property>
  <property name="meta.media.0.codec.name">pcm_s16le</property>
  <property name="meta.media.0.codec.long_name">PCM signed 16-bit little-endian</property>
  <property name="meta.media.0.codec.bit_rate">1536000</property>
  <property name="seekable">1</property>
  <property name="audio_index">0</property>
  <property name="video_index">-1</property>
  <property name="mute_on_pause">1</property>
  <property name="mlt_service">avformat</property>
  <property name="kdenlive:clipname"/>
  <property name="kdenlive:folderid">62</property>
  <property name="kdenlive:id">90</property>
  <property name="kdenlive:file_size">5874828</property>
  <property name="kdenlive:file_hash">256d873d62af80a16e476925d70910ff</property>
  <property name="kdenlive:audio_max0">171</property>
 </producer>
 <producer id="producer85" in="00:00:00.000" out="00:00:06.583">
  <property name="length">396</property>
  <property name="eof">pause</property>
  <property name="resource">audio/raw/inf4.wav</property>
  <property name="meta.media.nb_streams">1</property>
  <property name="meta.media.0.stream.type">audio</property>
  <property name="meta.media.0.codec.sample_fmt">s16</property>
  <property name="meta.media.0.codec.sample_rate">48000</property>
  <property name="meta.media.0.codec.channels">2</property>
  <property name="meta.media.0.codec.name">pcm_s16le</property>
  <property name="meta.media.0.codec.long_name">PCM signed 16-bit little-endian</property>
  <property name="meta.media.0.codec.bit_rate">1536000</property>
  <property name="seekable">1</property>
  <property name="audio_index">0</property>
  <property name="video_index">-1</property>
  <property name="mute_on_pause">1</property>
  <property name="mlt_service">avformat</property>
  <property name="kdenlive:clipname"/>
  <property name="kdenlive:folderid">62</property>
  <property name="kdenlive:id">91</property>
  <property name="kdenlive:file_size">1266828</property>
  <property name="kdenlive:file_hash">87fa5c2955566a88624d8ba77bf2d223</property>
  <property name="kdenlive:audio_max0">151</property>
 </producer>
 <producer id="producer86" in="00:00:00.000" out="00:00:11.950">
  <property name="length">718</property>
  <property name="eof">pause</property>
  <property name="resource">audio/raw/m1.wav</property>
  <property name="meta.media.nb_streams">1</property>
  <property name="meta.media.0.stream.type">audio</property>
  <property name="meta.media.0.codec.sample_fmt">s16</property>
  <property name="meta.media.0.codec.sample_rate">48000</property>
  <property name="meta.media.0.codec.channels">2</property>
  <property name="meta.media.0.codec.name">pcm_s16le</property>
  <property name="meta.media.0.codec.long_name">PCM signed 16-bit little-endian</property>
  <property name="meta.media.0.codec.bit_rate">1536000</property>
  <property name="seekable">1</property>
  <property name="audio_index">0</property>
  <property name="video_index">-1</property>
  <property name="mute_on_pause">1</property>
  <property name="mlt_service">avformat</property>
  <property name="kdenlive:clipname"/>
  <property name="kdenlive:folderid">62</property>
  <property name="kdenlive:id">92</property>
  <property name="kdenlive:file_size">2298924</property>
  <property name="kdenlive:file_hash">f7f5f48afd0e125c3d759b4c04604639</property>
  <property name="kdenlive:audio_max0">157</property>
 </producer>
 <producer id="producer87" in="00:00:00.000" out="00:00:03.583">
  <property name="length">216</property>
  <property name="eof">pause</property>
  <property name="resource">audio/raw/m2.wav</property>
  <property name="meta.media.nb_streams">1</property>
  <property name="meta.media.0.stream.type">audio</property>
  <property name="meta.media.0.codec.sample_fmt">s16</property>
  <property name="meta.media.0.codec.sample_rate">48000</property>
  <property name="meta.media.0.codec.channels">2</property>
  <property name="meta.media.0.codec.name">pcm_s16le</property>
  <property name="meta.media.0.codec.long_name">PCM signed 16-bit little-endian</property>
  <property name="meta.media.0.codec.bit_rate">1536000</property>
  <property name="seekable">1</property>
  <property name="audio_index">0</property>
  <property name="video_index">-1</property>
  <property name="mute_on_pause">1</property>
  <property name="mlt_service">avformat</property>
  <property name="kdenlive:clipname"/>
  <property name="kdenlive:folderid">62</property>
  <property name="kdenlive:id">93</property>
  <property name="kdenlive:file_size">690060</property>
  <property name="kdenlive:file_hash">9c1acecfc40b4044b6f18d2a583399ef</property>
  <property name="kdenlive:audio_max0">163</property>
 </producer>
 <producer id="producer88" in="00:00:00.000" out="00:00:15.200">
  <property name="length">913</property>
  <property name="eof">pause</property>
  <property name="resource">audio/raw/o1.wav</property>
  <property name="meta.media.nb_streams">1</property>
  <property name="meta.media.0.stream.type">audio</property>
  <property name="meta.media.0.codec.sample_fmt">s16</property>
  <property name="meta.media.0.codec.sample_rate">48000</property>
  <property name="meta.media.0.codec.channels">2</property>
  <property name="meta.media.0.codec.name">pcm_s16le</property>
  <property name="meta.media.0.codec.long_name">PCM signed 16-bit little-endian</property>
  <property name="meta.media.0.codec.bit_rate">1536000</property>
  <property name="seekable">1</property>
  <property name="audio_index">0</property>
  <property name="video_index">-1</property>
  <property name="mute_on_pause">1</property>
  <property name="mlt_service">avformat</property>
  <property name="kdenlive:clipname"/>
  <property name="kdenlive:folderid">62</property>
  <property name="kdenlive:id">94</property>
  <property name="kdenlive:file_size">2922220</property>
  <property name="kdenlive:file_hash">c3c3444c4432f9cabf3e124722185591</property>
  <property name="kdenlive:audio_max0">160</property>
 </producer>
 <producer id="producer89" in="00:00:00.000" out="00:00:03.217">
  <property name="length">194</property>
  <property name="eof">pause</property>
  <property name="resource">audio/raw/t1.wav</property>
  <property name="meta.media.nb_streams">1</property>
  <property name="meta.media.0.stream.type">audio</property>
  <property name="meta.media.0.codec.sample_fmt">s16</property>
  <property name="meta.media.0.codec.sample_rate">48000</property>
  <property name="meta.media.0.codec.channels">2</property>
  <property name="meta.media.0.codec.name">pcm_s16le</property>
  <property name="meta.media.0.codec.long_name">PCM signed 16-bit little-endian</property>
  <property name="meta.media.0.codec.bit_rate">1536000</property>
  <property name="seekable">1</property>
  <property name="audio_index">0</property>
  <property name="video_index">-1</property>
  <property name="mute_on_pause">1</property>
  <property name="mlt_service">avformat</property>
  <property name="kdenlive:clipname"/>
  <property name="kdenlive:folderid">62</property>
  <property name="kdenlive:id">95</property>
  <property name="kdenlive:file_size">619244</property>
  <property name="kdenlive:file_hash">fcf3b7b47c33042be5366e2b56ccae43</property>
  <property name="kdenlive:audio_max0">153</property>
 </producer>
 <producer id="producer90" in="00:00:00.000" out="00:00:09.950">
  <property name="length">598</property>
  <property name="eof">pause</property>
  <property name="resource">audio/raw/t2.wav</property>
  <property name="meta.media.nb_streams">1</property>
  <property name="meta.media.0.stream.type">audio</property>
  <property name="meta.media.0.codec.sample_fmt">s16</property>
  <property name="meta.media.0.codec.sample_rate">48000</property>
  <property name="meta.media.0.codec.channels">2</property>
  <property name="meta.media.0.codec.name">pcm_s16le</property>
  <property name="meta.media.0.codec.long_name">PCM signed 16-bit little-endian</property>
  <property name="meta.media.0.codec.bit_rate">1536000</property>
  <property name="seekable">1</property>
  <property name="audio_index">0</property>
  <property name="video_index">-1</property>
  <property name="mute_on_pause">1</property>
  <property name="mlt_service">avformat</property>
  <property name="kdenlive:clipname"/>
  <property name="kdenlive:folderid">62</property>
  <property name="kdenlive:id">96</property>
  <property name="kdenlive:file_size">1914412</property>
  <property name="kdenlive:file_hash">5941b383eae4189ffb6b84277ce38367</property>
  <property name="kdenlive:audio_max0">156</property>
 </producer>
 <producer id="producer91" in="00:00:00.000" out="00:00:11.833">
  <property name="length">711</property>
  <property name="eof">pause</property>
  <property name="resource">audio/raw/t3.wav</property>
  <property name="meta.media.nb_streams">1</property>
  <property name="meta.media.0.stream.type">audio</property>
  <property name="meta.media.0.codec.sample_fmt">s16</property>
  <property name="meta.media.0.codec.sample_rate">48000</property>
  <property name="meta.media.0.codec.channels">2</property>
  <property name="meta.media.0.codec.name">pcm_s16le</property>
  <property name="meta.media.0.codec.long_name">PCM signed 16-bit little-endian</property>
  <property name="meta.media.0.codec.bit_rate">1536000</property>
  <property name="seekable">1</property>
  <property name="audio_index">0</property>
  <property name="video_index">-1</property>
  <property name="mute_on_pause">1</property>
  <property name="mlt_service">avformat</property>
  <property name="kdenlive:clipname"/>
  <property name="kdenlive:folderid">62</property>
  <property name="kdenlive:id">97</property>
  <property name="kdenlive:file_size">2274636</property>
  <property name="kdenlive:file_hash">667a093c192b36dbc7918fb52e218c02</property>
  <property name="kdenlive:audio_max0">155</property>
 </producer>
 <producer id="producer92" in="00:00:00.000" out="00:00:13.833">
  <property name="length">831</property>
  <property name="eof">pause</property>
  <property name="resource">audio/raw/t4.wav</property>
  <property name="meta.media.nb_streams">1</property>
  <property name="meta.media.0.stream.type">audio</property>
  <property name="meta.media.0.codec.sample_fmt">s16</property>
  <property name="meta.media.0.codec.sample_rate">48000</property>
  <property name="meta.media.0.codec.channels">2</property>
  <property name="meta.media.0.codec.name">pcm_s16le</property>
  <property name="meta.media.0.codec.long_name">PCM signed 16-bit little-endian</property>
  <property name="meta.media.0.codec.bit_rate">1536000</property>
  <property name="seekable">1</property>
  <property name="audio_index">0</property>
  <property name="video_index">-1</property>
  <property name="mute_on_pause">1</property>
  <property name="mlt_service">avformat</property>
  <property name="kdenlive:clipname"/>
  <property name="kdenlive:folderid">62</property>
  <property name="kdenlive:id">98</property>
  <property name="kdenlive:file_size">2659148</property>
  <property name="kdenlive:file_hash">e06b95b6c817edb71578d3b9f5ab3476</property>
  <property name="kdenlive:audio_max0">159</property>
 </producer>
 <producer id="producer93" in="00:00:00.000" out="00:00:06.833">
  <property name="length">411</property>
  <property name="eof">pause</property>
  <property name="resource">audio/raw/t5.wav</property>
  <property name="meta.media.nb_streams">1</property>
  <property name="meta.media.0.stream.type">audio</property>
  <property name="meta.media.0.codec.sample_fmt">s16</property>
  <property name="meta.media.0.codec.sample_rate">48000</property>
  <property name="meta.media.0.codec.channels">2</property>
  <property name="meta.media.0.codec.name">pcm_s16le</property>
  <property name="meta.media.0.codec.long_name">PCM signed 16-bit little-endian</property>
  <property name="meta.media.0.codec.bit_rate">1536000</property>
  <property name="seekable">1</property>
  <property name="audio_index">0</property>
  <property name="video_index">-1</property>
  <property name="mute_on_pause">1</property>
  <property name="mlt_service">avformat</property>
  <property name="kdenlive:clipname"/>
  <property name="kdenlive:folderid">62</property>
  <property name="kdenlive:id">99</property>
  <property name="kdenlive:file_size">1315404</property>
  <property name="kdenlive:file_hash">c9e5403c24a9f8e98a18472dfa591716</property>
  <property name="kdenlive:audio_max0">168</property>
 </producer>
 <producer id="producer379" in="00:00:00.000" out="00:00:36.583">
  <property name="length">2196</property>
  <property name="eof">pause</property>
  <property name="resource">/home/xiaoxiae/.cache/kdenlive/proxy/0bc711155453a24e01ee5e2ee0b1b7a7.mov</property>
  <property name="audio_index">-1</property>
  <property name="video_index">0</property>
  <property name="mute_on_pause">0</property>
  <property name="mlt_service">avformat-novalidate</property>
  <property name="seekable">1</property>
  <property name="aspect_ratio">1</property>
  <property name="kdenlive:clipname">Motivation.mp4</property>
  <property name="kdenlive:folderid">101</property>
  <property name="kdenlive:id">102</property>
  <property name="kdenlive:file_size">6150214</property>
  <property name="kdenlive:proxy">/home/xiaoxiae/.cache/kdenlive/proxy/0bc711155453a24e01ee5e2ee0b1b7a7.mov</property>
  <property name="kdenlive:originalurl">video/Motivation.mp4</property>
  <property name="kdenlive:original.mlt_type">producer</property>
  <property name="kdenlive:original.in">00:00:00.000</property>
  <property name="kdenlive:original.out">00:00:36.583</property>
  <property name="kdenlive:original.length">2196</property>
  <property name="kdenlive:original.eof">pause</property>
  <property name="kdenlive:original.resource">video/Motivation.mp4</property>
  <property name="kdenlive:original.meta.media.nb_streams">1</property>
  <property name="kdenlive:original.meta.media.0.stream.type">video</property>
  <property name="kdenlive:original.meta.media.0.stream.frame_rate">59.9967</property>
  <property name="kdenlive:original.meta.media.0.stream.sample_aspect_ratio">0</property>
  <property name="kdenlive:original.meta.media.0.codec.width">3840</property>
  <property name="kdenlive:original.meta.media.0.codec.height">2160</property>
  <property name="kdenlive:original.meta.media.0.codec.rotate">0</property>
  <property name="kdenlive:original.meta.media.0.codec.pix_fmt">yuv420p</property>
  <property name="kdenlive:original.meta.media.0.codec.sample_aspect_ratio">0</property>
  <property name="kdenlive:original.meta.media.0.codec.colorspace">709</property>
  <property name="kdenlive:original.meta.media.0.codec.name">h264</property>
  <property name="kdenlive:original.meta.media.0.codec.long_name">H.264 / AVC / MPEG-4 AVC / MPEG-4 part 10</property>
  <property name="kdenlive:original.meta.media.0.codec.bit_rate">1338880</property>
  <property name="kdenlive:original.meta.attr.0.stream.handler_name.markup">VideoHandler</property>
  <property name="kdenlive:original.meta.attr.0.stream.vendor_id.markup">[0][0][0][0]</property>
  <property name="kdenlive:original.meta.attr.major_brand.markup">isom</property>
  <property name="kdenlive:original.meta.attr.minor_version.markup">512</property>
  <property name="kdenlive:original.meta.attr.compatible_brands.markup">isomiso2avc1mp41</property>
  <property name="kdenlive:original.meta.attr.encoder.markup">Lavf58.76.100</property>
  <property name="kdenlive:original.meta.attr.comment.markup">Rendered with Manim Community v0.12.0</property>
  <property name="kdenlive:original.seekable">1</property>
  <property name="kdenlive:original.width">3840</property>
  <property name="kdenlive:original.height">2160</property>
  <property name="kdenlive:original.meta.media.sample_aspect_num">1</property>
  <property name="kdenlive:original.meta.media.sample_aspect_den">1</property>
  <property name="kdenlive:original.aspect_ratio">1</property>
  <property name="kdenlive:original.audio_index">-1</property>
  <property name="kdenlive:original.video_index">0</property>
  <property name="kdenlive:original.mute_on_pause">0</property>
  <property name="kdenlive:original.mlt_service">avformat-novalidate</property>
  <property name="kdenlive:original.kdenlive:folderid">101</property>
  <property name="kdenlive:original.meta.media.frame_rate_num">33730560</property>
  <property name="kdenlive:original.meta.media.frame_rate_den">562207</property>
  <property name="kdenlive:original.meta.media.colorspace">709</property>
  <property name="kdenlive:original.meta.media.color_trc">2</property>
  <property name="kdenlive:original.meta.media.has_b_frames">2</property>
  <property name="kdenlive:original.meta.media.width">3840</property>
  <property name="kdenlive:original.meta.media.height">2160</property>
  <property name="kdenlive:original.meta.media.color_range">mpeg</property>
  <property name="kdenlive:original.kdenlive:id">103</property>
  <property name="kdenlive:original.kdenlive:file_size">6150214</property>
  <property name="kdenlive:original.kdenlive:file_hash">0bc711155453a24e01ee5e2ee0b1b7a7</property>
  <property name="kdenlive:original.backup">1</property>
  <property name="kdenlive:file_hash">0bc711155453a24e01ee5e2ee0b1b7a7</property>
  <property name="meta.media.nb_streams">1</property>
  <property name="meta.media.0.stream.type">video</property>
  <property name="meta.media.0.stream.frame_rate">60</property>
  <property name="meta.media.0.stream.sample_aspect_ratio">0</property>
  <property name="meta.media.0.codec.width">640</property>
  <property name="meta.media.0.codec.height">360</property>
  <property name="meta.media.0.codec.rotate">0</property>
  <property name="meta.media.0.codec.pix_fmt">yuv420p</property>
  <property name="meta.media.0.codec.sample_aspect_ratio">0</property>
  <property name="meta.media.0.codec.colorspace">601</property>
  <property name="meta.media.0.codec.name">h264</property>
  <property name="meta.media.0.codec.long_name">H.264 / AVC / MPEG-4 AVC / MPEG-4 part 10</property>
  <property name="meta.media.0.codec.bit_rate">2036090</property>
  <property name="meta.attr.0.stream.handler_name.markup">VideoHandler</property>
  <property name="meta.attr.0.stream.vendor_id.markup">FFMP</property>
  <property name="meta.attr.0.stream.encoder.markup">Lavc58.134.100 libx264</property>
  <property name="meta.attr.major_brand.markup">qt  </property>
  <property name="meta.attr.minor_version.markup">512</property>
  <property name="meta.attr.compatible_brands.markup">qt  </property>
  <property name="meta.attr.encoder.markup">Lavf58.76.100</property>
  <property name="meta.attr.comment.markup">Rendered with Manim Community v0.12.0</property>
  <property name="meta.media.sample_aspect_num">1</property>
  <property name="meta.media.sample_aspect_den">1</property>
  <property name="meta.media.frame_rate_num">60</property>
  <property name="meta.media.frame_rate_den">1</property>
  <property name="meta.media.colorspace">601</property>
  <property name="meta.media.color_trc">2</property>
  <property name="meta.media.has_b_frames">0</property>
  <property name="meta.media.width">640</property>
  <property name="meta.media.height">360</property>
  <property name="meta.media.color_range">mpeg</property>
 </producer>
 <producer id="producer380" in="00:00:00.000" out="00:00:07.733">
  <property name="length">465</property>
  <property name="eof">pause</property>
  <property name="resource">/home/xiaoxiae/.cache/kdenlive/proxy/77fe7d3ed4084fbc8da7bf8835d719fc.mov</property>
  <property name="audio_index">-1</property>
  <property name="video_index">0</property>
  <property name="mute_on_pause">0</property>
  <property name="mlt_service">avformat-novalidate</property>
  <property name="seekable">1</property>
  <property name="aspect_ratio">1</property>
  <property name="kdenlive:clipname">Outro.mp4</property>
  <property name="kdenlive:folderid">101</property>
  <property name="kdenlive:id">103</property>
  <property name="kdenlive:file_size">4499476</property>
  <property name="kdenlive:proxy">/home/xiaoxiae/.cache/kdenlive/proxy/77fe7d3ed4084fbc8da7bf8835d719fc.mov</property>
  <property name="kdenlive:originalurl">video/Outro.mp4</property>
  <property name="kdenlive:original.mlt_type">producer</property>
  <property name="kdenlive:original.in">00:00:00.000</property>
  <property name="kdenlive:original.out">00:00:07.733</property>
  <property name="kdenlive:original.length">465</property>
  <property name="kdenlive:original.eof">pause</property>
  <property name="kdenlive:original.resource">video/Outro.mp4</property>
  <property name="kdenlive:original.meta.media.nb_streams">1</property>
  <property name="kdenlive:original.meta.media.0.stream.type">video</property>
  <property name="kdenlive:original.meta.media.0.stream.frame_rate">60</property>
  <property name="kdenlive:original.meta.media.0.stream.sample_aspect_ratio">0</property>
  <property name="kdenlive:original.meta.media.0.codec.width">3840</property>
  <property name="kdenlive:original.meta.media.0.codec.height">2160</property>
  <property name="kdenlive:original.meta.media.0.codec.rotate">0</property>
  <property name="kdenlive:original.meta.media.0.codec.pix_fmt">yuv420p</property>
  <property name="kdenlive:original.meta.media.0.codec.sample_aspect_ratio">0</property>
  <property name="kdenlive:original.meta.media.0.codec.colorspace">709</property>
  <property name="kdenlive:original.meta.media.0.codec.name">h264</property>
  <property name="kdenlive:original.meta.media.0.codec.long_name">H.264 / AVC / MPEG-4 AVC / MPEG-4 part 10</property>
  <property name="kdenlive:original.meta.media.0.codec.bit_rate">4638034</property>
  <property name="kdenlive:original.meta.attr.0.stream.handler_name.markup">VideoHandler</property>
  <property name="kdenlive:original.meta.attr.0.stream.vendor_id.markup">[0][0][0][0]</property>
  <property name="kdenlive:original.meta.attr.major_brand.markup">isom</property>
  <property name="kdenlive:original.meta.attr.minor_version.markup">512</property>
  <property name="kdenlive:original.meta.attr.compatible_brands.markup">isomiso2avc1mp41</property>
  <property name="kdenlive:original.meta.attr.encoder.markup">Lavf58.76.100</property>
  <property name="kdenlive:original.meta.attr.comment.markup">Rendered with Manim Community v0.12.0</property>
  <property name="kdenlive:original.seekable">1</property>
  <property name="kdenlive:original.width">3840</property>
  <property name="kdenlive:original.height">2160</property>
  <property name="kdenlive:original.meta.media.sample_aspect_num">1</property>
  <property name="kdenlive:original.meta.media.sample_aspect_den">1</property>
  <property name="kdenlive:original.aspect_ratio">1</property>
  <property name="kdenlive:original.audio_index">-1</property>
  <property name="kdenlive:original.video_index">0</property>
  <property name="kdenlive:original.mute_on_pause">0</property>
  <property name="kdenlive:original.mlt_service">avformat-novalidate</property>
  <property name="kdenlive:original.kdenlive:folderid">101</property>
  <property name="kdenlive:original.meta.media.frame_rate_num">60</property>
  <property name="kdenlive:original.meta.media.frame_rate_den">1</property>
  <property name="kdenlive:original.meta.media.colorspace">709</property>
  <property name="kdenlive:original.meta.media.color_trc">2</property>
  <property name="kdenlive:original.meta.media.has_b_frames">2</property>
  <property name="kdenlive:original.meta.media.width">3840</property>
  <property name="kdenlive:original.meta.media.height">2160</property>
  <property name="kdenlive:original.meta.media.color_range">mpeg</property>
  <property name="kdenlive:original.kdenlive:id">104</property>
  <property name="kdenlive:original.kdenlive:file_size">4499476</property>
  <property name="kdenlive:original.kdenlive:file_hash">77fe7d3ed4084fbc8da7bf8835d719fc</property>
  <property name="kdenlive:original.backup">1</property>
  <property name="kdenlive:file_hash">77fe7d3ed4084fbc8da7bf8835d719fc</property>
  <property name="meta.media.nb_streams">1</property>
  <property name="meta.media.0.stream.type">video</property>
  <property name="meta.media.0.stream.frame_rate">60</property>
  <property name="meta.media.0.stream.sample_aspect_ratio">0</property>
  <property name="meta.media.0.codec.width">640</property>
  <property name="meta.media.0.codec.height">360</property>
  <property name="meta.media.0.codec.rotate">0</property>
  <property name="meta.media.0.codec.pix_fmt">yuv420p</property>
  <property name="meta.media.0.codec.sample_aspect_ratio">0</property>
  <property name="meta.media.0.codec.colorspace">601</property>
  <property name="meta.media.0.codec.name">h264</property>
  <property name="meta.media.0.codec.long_name">H.264 / AVC / MPEG-4 AVC / MPEG-4 part 10</property>
  <property name="meta.media.0.codec.bit_rate">4694773</property>
  <property name="meta.attr.0.stream.handler_name.markup">VideoHandler</property>
  <property name="meta.attr.0.stream.vendor_id.markup">FFMP</property>
  <property name="meta.attr.0.stream.encoder.markup">Lavc58.134.100 libx264</property>
  <property name="meta.attr.major_brand.markup">qt  </property>
  <property name="meta.attr.minor_version.markup">512</property>
  <property name="meta.attr.compatible_brands.markup">qt  </property>
  <property name="meta.attr.encoder.markup">Lavf58.76.100</property>
  <property name="meta.attr.comment.markup">Rendered with Manim Community v0.12.0</property>
  <property name="meta.media.sample_aspect_num">1</property>
  <property name="meta.media.sample_aspect_den">1</property>
  <property name="meta.media.frame_rate_num">60</property>
  <property name="meta.media.frame_rate_den">1</property>
  <property name="meta.media.colorspace">601</property>
  <property name="meta.media.color_trc">2</property>
  <property name="meta.media.has_b_frames">0</property>
  <property name="meta.media.width">640</property>
  <property name="meta.media.height">360</property>
  <property name="meta.media.color_range">mpeg</property>
 </producer>
 <producer id="producer382" in="00:00:00.000" out="00:01:06.117">
  <property name="length">3968</property>
  <property name="eof">pause</property>
  <property name="resource">/home/xiaoxiae/.cache/kdenlive/proxy/1ef48f08c2dd51be2a0cf200fc216ad6.mov</property>
  <property name="audio_index">-1</property>
  <property name="video_index">0</property>
  <property name="mute_on_pause">0</property>
  <property name="mlt_service">avformat-novalidate</property>
  <property name="seekable">1</property>
  <property name="aspect_ratio">1</property>
  <property name="kdenlive:clipname">ProgrammingModel.mp4</property>
  <property name="kdenlive:folderid">101</property>
  <property name="kdenlive:id">105</property>
  <property name="kdenlive:file_size">144001</property>
  <property name="kdenlive:proxy">/home/xiaoxiae/.cache/kdenlive/proxy/1ef48f08c2dd51be2a0cf200fc216ad6.mov</property>
  <property name="kdenlive:originalurl">video/ProgrammingModel.mp4</property>
  <property name="kdenlive:original.mlt_type">producer</property>
  <property name="kdenlive:original.in">00:00:00.000</property>
  <property name="kdenlive:original.out">00:01:06.117</property>
  <property name="kdenlive:original.length">3968</property>
  <property name="kdenlive:original.eof">pause</property>
  <property name="kdenlive:original.resource">video/ProgrammingModel.mp4</property>
  <property name="kdenlive:original.meta.media.nb_streams">1</property>
  <property name="kdenlive:original.meta.media.0.stream.type">video</property>
  <property name="kdenlive:original.meta.media.0.stream.frame_rate">59.9976</property>
  <property name="kdenlive:original.meta.media.0.stream.sample_aspect_ratio">0</property>
  <property name="kdenlive:original.meta.media.0.codec.width">3840</property>
  <property name="kdenlive:original.meta.media.0.codec.height">2160</property>
  <property name="kdenlive:original.meta.media.0.codec.rotate">0</property>
  <property name="kdenlive:original.meta.media.0.codec.pix_fmt">yuv420p</property>
  <property name="kdenlive:original.meta.media.0.codec.sample_aspect_ratio">0</property>
  <property name="kdenlive:original.meta.media.0.codec.colorspace">709</property>
  <property name="kdenlive:original.meta.media.0.codec.name">h264</property>
  <property name="kdenlive:original.meta.media.0.codec.long_name">H.264 / AVC / MPEG-4 AVC / MPEG-4 part 10</property>
  <property name="kdenlive:original.meta.media.0.codec.bit_rate">890461</property>
  <property name="kdenlive:original.meta.attr.0.stream.handler_name.markup">VideoHandler</property>
  <property name="kdenlive:original.meta.attr.0.stream.vendor_id.markup">[0][0][0][0]</property>
  <property name="kdenlive:original.meta.attr.major_brand.markup">isom</property>
  <property name="kdenlive:original.meta.attr.minor_version.markup">512</property>
  <property name="kdenlive:original.meta.attr.compatible_brands.markup">isomiso2avc1mp41</property>
  <property name="kdenlive:original.meta.attr.encoder.markup">Lavf58.76.100</property>
  <property name="kdenlive:original.meta.attr.comment.markup">Rendered with Manim Community v0.12.0</property>
  <property name="kdenlive:original.seekable">1</property>
  <property name="kdenlive:original.width">3840</property>
  <property name="kdenlive:original.height">2160</property>
  <property name="kdenlive:original.meta.media.sample_aspect_num">1</property>
  <property name="kdenlive:original.meta.media.sample_aspect_den">1</property>
  <property name="kdenlive:original.aspect_ratio">1</property>
  <property name="kdenlive:original.audio_index">-1</property>
  <property name="kdenlive:original.video_index">0</property>
  <property name="kdenlive:original.mute_on_pause">0</property>
  <property name="kdenlive:original.mlt_service">avformat-novalidate</property>
  <property name="kdenlive:original.kdenlive:folderid">101</property>
  <property name="kdenlive:original.meta.media.frame_rate_num">60948480</property>
  <property name="kdenlive:original.meta.media.frame_rate_den">1015849</property>
  <property name="kdenlive:original.meta.media.colorspace">709</property>
  <property name="kdenlive:original.meta.media.color_trc">2</property>
  <property name="kdenlive:original.meta.media.has_b_frames">2</property>
  <property name="kdenlive:original.meta.media.width">3840</property>
  <property name="kdenlive:original.meta.media.height">2160</property>
  <property name="kdenlive:original.meta.media.color_range">mpeg</property>
  <property name="kdenlive:original.kdenlive:id">106</property>
  <property name="kdenlive:original.kdenlive:file_size">7408020</property>
  <property name="kdenlive:original.kdenlive:file_hash">1ef48f08c2dd51be2a0cf200fc216ad6</property>
  <property name="kdenlive:original.backup">1</property>
  <property name="kdenlive:file_hash">d03625dfc9c0effccc0c47f885fec096</property>
  <property name="meta.media.nb_streams">1</property>
  <property name="meta.media.0.stream.type">video</property>
  <property name="meta.media.0.stream.frame_rate">60</property>
  <property name="meta.media.0.stream.sample_aspect_ratio">0</property>
  <property name="meta.media.0.codec.width">640</property>
  <property name="meta.media.0.codec.height">360</property>
  <property name="meta.media.0.codec.rotate">0</property>
  <property name="meta.media.0.codec.pix_fmt">yuv420p</property>
  <property name="meta.media.0.codec.sample_aspect_ratio">0</property>
  <property name="meta.media.0.codec.colorspace">601</property>
  <property name="meta.media.0.codec.name">h264</property>
  <property name="meta.media.0.codec.long_name">H.264 / AVC / MPEG-4 AVC / MPEG-4 part 10</property>
  <property name="meta.media.0.codec.bit_rate">2865647</property>
  <property name="meta.attr.0.stream.handler_name.markup">VideoHandler</property>
  <property name="meta.attr.0.stream.vendor_id.markup">FFMP</property>
  <property name="meta.attr.0.stream.encoder.markup">Lavc58.134.100 libx264</property>
  <property name="meta.attr.major_brand.markup">qt  </property>
  <property name="meta.attr.minor_version.markup">512</property>
  <property name="meta.attr.compatible_brands.markup">qt  </property>
  <property name="meta.attr.encoder.markup">Lavf58.76.100</property>
  <property name="meta.attr.comment.markup">Rendered with Manim Community v0.12.0</property>
  <property name="meta.media.sample_aspect_num">1</property>
  <property name="meta.media.sample_aspect_den">1</property>
  <property name="meta.media.frame_rate_num">60</property>
  <property name="meta.media.frame_rate_den">1</property>
  <property name="meta.media.colorspace">601</property>
  <property name="meta.media.color_trc">2</property>
  <property name="meta.media.has_b_frames">0</property>
  <property name="meta.media.width">640</property>
  <property name="meta.media.height">360</property>
  <property name="meta.media.color_range">mpeg</property>
 </producer>
 <producer id="producer383" in="00:00:00.000" out="00:00:13.383">
  <property name="length">804</property>
  <property name="eof">pause</property>
  <property name="resource">/home/xiaoxiae/.cache/kdenlive/proxy/626da8bda9a02599a7998da63aba2351.mov</property>
  <property name="audio_index">-1</property>
  <property name="video_index">0</property>
  <property name="mute_on_pause">0</property>
  <property name="mlt_service">avformat-novalidate</property>
  <property name="seekable">1</property>
  <property name="aspect_ratio">1</property>
  <property name="kdenlive:clipname">TimeComplexity.mp4</property>
  <property name="kdenlive:folderid">101</property>
  <property name="kdenlive:id">106</property>
  <property name="kdenlive:file_size">1818819</property>
  <property name="kdenlive:proxy">/home/xiaoxiae/.cache/kdenlive/proxy/626da8bda9a02599a7998da63aba2351.mov</property>
  <property name="kdenlive:originalurl">video/TimeComplexity.mp4</property>
  <property name="kdenlive:original.mlt_type">producer</property>
  <property name="kdenlive:original.in">00:00:00.000</property>
  <property name="kdenlive:original.out">00:00:13.383</property>
  <property name="kdenlive:original.length">804</property>
  <property name="kdenlive:original.eof">pause</property>
  <property name="kdenlive:original.resource">video/TimeComplexity.mp4</property>
  <property name="kdenlive:original.meta.media.nb_streams">1</property>
  <property name="kdenlive:original.meta.media.0.stream.type">video</property>
  <property name="kdenlive:original.meta.media.0.stream.frame_rate">60</property>
  <property name="kdenlive:original.meta.media.0.stream.sample_aspect_ratio">0</property>
  <property name="kdenlive:original.meta.media.0.codec.width">3840</property>
  <property name="kdenlive:original.meta.media.0.codec.height">2160</property>
  <property name="kdenlive:original.meta.media.0.codec.rotate">0</property>
  <property name="kdenlive:original.meta.media.0.codec.pix_fmt">yuv420p</property>
  <property name="kdenlive:original.meta.media.0.codec.sample_aspect_ratio">0</property>
  <property name="kdenlive:original.meta.media.0.codec.colorspace">709</property>
  <property name="kdenlive:original.meta.media.0.codec.name">h264</property>
  <property name="kdenlive:original.meta.media.0.codec.long_name">H.264 / AVC / MPEG-4 AVC / MPEG-4 part 10</property>
  <property name="kdenlive:original.meta.media.0.codec.bit_rate">1079624</property>
  <property name="kdenlive:original.meta.attr.0.stream.handler_name.markup">VideoHandler</property>
  <property name="kdenlive:original.meta.attr.0.stream.vendor_id.markup">[0][0][0][0]</property>
  <property name="kdenlive:original.meta.attr.major_brand.markup">isom</property>
  <property name="kdenlive:original.meta.attr.minor_version.markup">512</property>
  <property name="kdenlive:original.meta.attr.compatible_brands.markup">isomiso2avc1mp41</property>
  <property name="kdenlive:original.meta.attr.encoder.markup">Lavf58.76.100</property>
  <property name="kdenlive:original.meta.attr.comment.markup">Rendered with Manim Community v0.12.0</property>
  <property name="kdenlive:original.seekable">1</property>
  <property name="kdenlive:original.width">3840</property>
  <property name="kdenlive:original.height">2160</property>
  <property name="kdenlive:original.meta.media.sample_aspect_num">1</property>
  <property name="kdenlive:original.meta.media.sample_aspect_den">1</property>
  <property name="kdenlive:original.aspect_ratio">1</property>
  <property name="kdenlive:original.audio_index">-1</property>
  <property name="kdenlive:original.video_index">0</property>
  <property name="kdenlive:original.mute_on_pause">0</property>
  <property name="kdenlive:original.mlt_service">avformat-novalidate</property>
  <property name="kdenlive:original.kdenlive:folderid">101</property>
  <property name="kdenlive:original.meta.media.frame_rate_num">60</property>
  <property name="kdenlive:original.meta.media.frame_rate_den">1</property>
  <property name="kdenlive:original.meta.media.colorspace">709</property>
  <property name="kdenlive:original.meta.media.color_trc">2</property>
  <property name="kdenlive:original.meta.media.has_b_frames">2</property>
  <property name="kdenlive:original.meta.media.width">3840</property>
  <property name="kdenlive:original.meta.media.height">2160</property>
  <property name="kdenlive:original.meta.media.color_range">mpeg</property>
  <property name="kdenlive:original.kdenlive:id">107</property>
  <property name="kdenlive:original.kdenlive:file_size">1818819</property>
  <property name="kdenlive:original.kdenlive:file_hash">626da8bda9a02599a7998da63aba2351</property>
  <property name="kdenlive:original.backup">1</property>
  <property name="kdenlive:file_hash">626da8bda9a02599a7998da63aba2351</property>
  <property name="meta.media.nb_streams">1</property>
  <property name="meta.media.0.stream.type">video</property>
  <property name="meta.media.0.stream.frame_rate">60</property>
  <property name="meta.media.0.stream.sample_aspect_ratio">0</property>
  <property name="meta.media.0.codec.width">640</property>
  <property name="meta.media.0.codec.height">360</property>
  <property name="meta.media.0.codec.rotate">0</property>
  <property name="meta.media.0.codec.pix_fmt">yuv420p</property>
  <property name="meta.media.0.codec.sample_aspect_ratio">0</property>
  <property name="meta.media.0.codec.colorspace">601</property>
  <property name="meta.media.0.codec.name">h264</property>
  <property name="meta.media.0.codec.long_name">H.264 / AVC / MPEG-4 AVC / MPEG-4 part 10</property>
  <property name="meta.media.0.codec.bit_rate">2955844</property>
  <property name="meta.attr.0.stream.handler_name.markup">VideoHandler</property>
  <property name="meta.attr.0.stream.vendor_id.markup">FFMP</property>
  <property name="meta.attr.0.stream.encoder.markup">Lavc58.134.100 libx264</property>
  <property name="meta.attr.major_brand.markup">qt  </property>
  <property name="meta.attr.minor_version.markup">512</property>
  <property name="meta.attr.compatible_brands.markup">qt  </property>
  <property name="meta.attr.encoder.markup">Lavf58.76.100</property>
  <property name="meta.attr.comment.markup">Rendered with Manim Community v0.12.0</property>
  <property name="meta.media.sample_aspect_num">1</property>
  <property name="meta.media.sample_aspect_den">1</property>
  <property name="meta.media.frame_rate_num">60</property>
  <property name="meta.media.frame_rate_den">1</property>
  <property name="meta.media.colorspace">601</property>
  <property name="meta.media.color_trc">2</property>
  <property name="meta.media.has_b_frames">0</property>
  <property name="meta.media.width">640</property>
  <property name="meta.media.height">360</property>
  <property name="meta.media.color_range">mpeg</property>
 </producer>
 <producer id="producer94" in="00:00:00.000" out="00:00:04.983">
  <property name="length">00:00:05.000</property>
  <property name="eof">pause</property>
  <property name="resource">/home/xiaoxiae/.cache/kdenlive/proxy/6b665121ca7b54a5f5307b69451fd23c.png</property>
  <property name="ttl">25</property>
  <property name="aspect_ratio">1</property>
  <property name="progressive">1</property>
  <property name="seekable">1</property>
  <property name="meta.media.width">800</property>
  <property name="meta.media.height">450</property>
  <property name="mlt_service">qimage</property>
  <property name="kdenlive:clipname">1.png</property>
  <property name="kdenlive:duration">00:00:05.000</property>
  <property name="kdenlive:folderid">110</property>
  <property name="kdenlive:id">108</property>
  <property name="kdenlive:file_size">24337</property>
  <property name="kdenlive:proxy">/home/xiaoxiae/.cache/kdenlive/proxy/6b665121ca7b54a5f5307b69451fd23c.png</property>
  <property name="kdenlive:originalurl">video/ComputationalPower/img/1.png</property>
  <property name="kdenlive:original.mlt_type">producer</property>
  <property name="kdenlive:original.in">00:00:00.000</property>
  <property name="kdenlive:original.out">00:00:04.983</property>
  <property name="kdenlive:original.length">00:00:05.000</property>
  <property name="kdenlive:original.eof">pause</property>
  <property name="kdenlive:original.resource">video/ComputationalPower/img/1.png</property>
  <property name="kdenlive:original.ttl">25</property>
  <property name="kdenlive:original.aspect_ratio">1</property>
  <property name="kdenlive:original.progressive">1</property>
  <property name="kdenlive:original.seekable">1</property>
  <property name="kdenlive:original.meta.media.width">3840</property>
  <property name="kdenlive:original.meta.media.height">2160</property>
  <property name="kdenlive:original.mlt_service">qimage</property>
  <property name="kdenlive:original.kdenlive:duration">00:00:05.000</property>
  <property name="kdenlive:original.kdenlive:folderid">110</property>
  <property name="kdenlive:original.kdenlive:id">111</property>
  <property name="kdenlive:original.kdenlive:file_size">24337</property>
  <property name="kdenlive:original.kdenlive:file_hash">6b665121ca7b54a5f5307b69451fd23c</property>
  <property name="kdenlive:original.backup">1</property>
  <property name="kdenlive:file_hash">6b665121ca7b54a5f5307b69451fd23c</property>
 </producer>
 <producer id="producer96" in="00:00:00.000" out="00:00:04.983">
  <property name="length">00:00:05.000</property>
  <property name="eof">pause</property>
  <property name="resource">/home/xiaoxiae/.cache/kdenlive/proxy/377bc0a5697726e99b1faec457534dd4.png</property>
  <property name="ttl">25</property>
  <property name="aspect_ratio">1</property>
  <property name="progressive">1</property>
  <property name="seekable">1</property>
  <property name="meta.media.width">800</property>
  <property name="meta.media.height">450</property>
  <property name="mlt_service">qimage</property>
  <property name="kdenlive:clipname">10.png</property>
  <property name="kdenlive:duration">00:00:05.000</property>
  <property name="kdenlive:folderid">110</property>
  <property name="kdenlive:id">111</property>
  <property name="kdenlive:file_size">213050</property>
  <property name="kdenlive:proxy">/home/xiaoxiae/.cache/kdenlive/proxy/377bc0a5697726e99b1faec457534dd4.png</property>
  <property name="kdenlive:originalurl">video/ComputationalPower/img/10.png</property>
  <property name="kdenlive:original.mlt_type">producer</property>
  <property name="kdenlive:original.in">00:00:00.000</property>
  <property name="kdenlive:original.out">00:00:04.983</property>
  <property name="kdenlive:original.length">00:00:05.000</property>
  <property name="kdenlive:original.eof">pause</property>
  <property name="kdenlive:original.resource">video/ComputationalPower/img/10.png</property>
  <property name="kdenlive:original.ttl">25</property>
  <property name="kdenlive:original.aspect_ratio">1</property>
  <property name="kdenlive:original.progressive">1</property>
  <property name="kdenlive:original.seekable">1</property>
  <property name="kdenlive:original.meta.media.width">3840</property>
  <property name="kdenlive:original.meta.media.height">2160</property>
  <property name="kdenlive:original.mlt_service">qimage</property>
  <property name="kdenlive:original.kdenlive:duration">00:00:05.000</property>
  <property name="kdenlive:original.kdenlive:folderid">110</property>
  <property name="kdenlive:original.kdenlive:id">112</property>
  <property name="kdenlive:original.kdenlive:file_size">213050</property>
  <property name="kdenlive:original.kdenlive:file_hash">377bc0a5697726e99b1faec457534dd4</property>
  <property name="kdenlive:original.backup">1</property>
  <property name="kdenlive:file_hash">377bc0a5697726e99b1faec457534dd4</property>
 </producer>
 <producer id="producer95" in="00:00:00.000" out="00:00:04.983">
  <property name="length">00:00:05.000</property>
  <property name="eof">pause</property>
  <property name="resource">/home/xiaoxiae/.cache/kdenlive/proxy/b1f5f46945bc0e9e8382af1af27fce4a.png</property>
  <property name="ttl">25</property>
  <property name="aspect_ratio">1</property>
  <property name="progressive">1</property>
  <property name="seekable">1</property>
  <property name="meta.media.width">800</property>
  <property name="meta.media.height">450</property>
  <property name="mlt_service">qimage</property>
  <property name="kdenlive:clipname">11.png</property>
  <property name="kdenlive:duration">00:00:05.000</property>
  <property name="kdenlive:folderid">110</property>
  <property name="kdenlive:id">112</property>
  <property name="kdenlive:file_size">201561</property>
  <property name="kdenlive:proxy">/home/xiaoxiae/.cache/kdenlive/proxy/b1f5f46945bc0e9e8382af1af27fce4a.png</property>
  <property name="kdenlive:originalurl">video/ComputationalPower/img/11.png</property>
  <property name="kdenlive:original.mlt_type">producer</property>
  <property name="kdenlive:original.in">00:00:00.000</property>
  <property name="kdenlive:original.out">00:00:04.983</property>
  <property name="kdenlive:original.length">00:00:05.000</property>
  <property name="kdenlive:original.eof">pause</property>
  <property name="kdenlive:original.resource">video/ComputationalPower/img/11.png</property>
  <property name="kdenlive:original.ttl">25</property>
  <property name="kdenlive:original.aspect_ratio">1</property>
  <property name="kdenlive:original.progressive">1</property>
  <property name="kdenlive:original.seekable">1</property>
  <property name="kdenlive:original.meta.media.width">3840</property>
  <property name="kdenlive:original.meta.media.height">2160</property>
  <property name="kdenlive:original.mlt_service">qimage</property>
  <property name="kdenlive:original.kdenlive:duration">00:00:05.000</property>
  <property name="kdenlive:original.kdenlive:folderid">110</property>
  <property name="kdenlive:original.kdenlive:id">113</property>
  <property name="kdenlive:original.kdenlive:file_size">201561</property>
  <property name="kdenlive:original.kdenlive:file_hash">b1f5f46945bc0e9e8382af1af27fce4a</property>
  <property name="kdenlive:original.backup">1</property>
  <property name="kdenlive:file_hash">b1f5f46945bc0e9e8382af1af27fce4a</property>
 </producer>
 <producer id="producer97" in="00:00:00.000" out="00:00:06.767">
  <property name="length">00:00:06.783</property>
  <property name="eof">pause</property>
  <property name="resource">/home/xiaoxiae/.cache/kdenlive/proxy/6943bf7c9a52b640d05ec364a1d3b563.png</property>
  <property name="ttl">25</property>
  <property name="aspect_ratio">1</property>
  <property name="progressive">1</property>
  <property name="seekable">1</property>
  <property name="meta.media.width">800</property>
  <property name="meta.media.height">450</property>
  <property name="mlt_service">qimage</property>
  <property name="kdenlive:clipname">12.png</property>
  <property name="kdenlive:duration">00:00:05.000</property>
  <property name="kdenlive:folderid">110</property>
  <property name="kdenlive:id">113</property>
  <property name="kdenlive:file_size">232275</property>
  <property name="kdenlive:proxy">/home/xiaoxiae/.cache/kdenlive/proxy/6943bf7c9a52b640d05ec364a1d3b563.png</property>
  <property name="kdenlive:originalurl">video/ComputationalPower/img/12.png</property>
  <property name="kdenlive:original.mlt_type">producer</property>
  <property name="kdenlive:original.in">00:00:00.000</property>
  <property name="kdenlive:original.out">00:00:04.983</property>
  <property name="kdenlive:original.length">00:00:05.000</property>
  <property name="kdenlive:original.eof">pause</property>
  <property name="kdenlive:original.resource">video/ComputationalPower/img/12.png</property>
  <property name="kdenlive:original.ttl">25</property>
  <property name="kdenlive:original.aspect_ratio">1</property>
  <property name="kdenlive:original.progressive">1</property>
  <property name="kdenlive:original.seekable">1</property>
  <property name="kdenlive:original.meta.media.width">3840</property>
  <property name="kdenlive:original.meta.media.height">2160</property>
  <property name="kdenlive:original.mlt_service">qimage</property>
  <property name="kdenlive:original.kdenlive:duration">00:00:05.000</property>
  <property name="kdenlive:original.kdenlive:folderid">110</property>
  <property name="kdenlive:original.kdenlive:id">114</property>
  <property name="kdenlive:original.kdenlive:file_size">232275</property>
  <property name="kdenlive:original.kdenlive:file_hash">6943bf7c9a52b640d05ec364a1d3b563</property>
  <property name="kdenlive:original.backup">1</property>
  <property name="kdenlive:file_hash">6943bf7c9a52b640d05ec364a1d3b563</property>
 </producer>
 <producer id="producer98" in="00:00:00.000" out="00:00:04.983">
  <property name="length">00:00:05.000</property>
  <property name="eof">pause</property>
  <property name="resource">/home/xiaoxiae/.cache/kdenlive/proxy/15e92c2a53a8462df867a293981b148f.png</property>
  <property name="ttl">25</property>
  <property name="aspect_ratio">1</property>
  <property name="progressive">1</property>
  <property name="seekable">1</property>
  <property name="meta.media.width">800</property>
  <property name="meta.media.height">450</property>
  <property name="mlt_service">qimage</property>
  <property name="kdenlive:clipname">13.png</property>
  <property name="kdenlive:duration">00:00:05.000</property>
  <property name="kdenlive:folderid">110</property>
  <property name="kdenlive:id">114</property>
  <property name="kdenlive:file_size">146741</property>
  <property name="kdenlive:proxy">/home/xiaoxiae/.cache/kdenlive/proxy/15e92c2a53a8462df867a293981b148f.png</property>
  <property name="kdenlive:originalurl">video/ComputationalPower/img/13.png</property>
  <property name="kdenlive:original.mlt_type">producer</property>
  <property name="kdenlive:original.in">00:00:00.000</property>
  <property name="kdenlive:original.out">00:00:04.983</property>
  <property name="kdenlive:original.length">00:00:05.000</property>
  <property name="kdenlive:original.eof">pause</property>
  <property name="kdenlive:original.resource">video/ComputationalPower/img/13.png</property>
  <property name="kdenlive:original.ttl">25</property>
  <property name="kdenlive:original.aspect_ratio">1</property>
  <property name="kdenlive:original.progressive">1</property>
  <property name="kdenlive:original.seekable">1</property>
  <property name="kdenlive:original.meta.media.width">3840</property>
  <property name="kdenlive:original.meta.media.height">2160</property>
  <property name="kdenlive:original.mlt_service">qimage</property>
  <property name="kdenlive:original.kdenlive:duration">00:00:05.000</property>
  <property name="kdenlive:original.kdenlive:folderid">110</property>
  <property name="kdenlive:original.kdenlive:id">115</property>
  <property name="kdenlive:original.kdenlive:file_size">146741</property>
  <property name="kdenlive:original.kdenlive:file_hash">15e92c2a53a8462df867a293981b148f</property>
  <property name="kdenlive:original.backup">1</property>
  <property name="kdenlive:file_hash">15e92c2a53a8462df867a293981b148f</property>
 </producer>
 <producer id="producer99" in="00:00:00.000" out="00:00:04.983">
  <property name="length">00:00:05.000</property>
  <property name="eof">pause</property>
  <property name="resource">/home/xiaoxiae/.cache/kdenlive/proxy/228217ff16a2e212304ad27ec1196bb5.png</property>
  <property name="ttl">25</property>
  <property name="aspect_ratio">1</property>
  <property name="progressive">1</property>
  <property name="seekable">1</property>
  <property name="meta.media.width">800</property>
  <property name="meta.media.height">450</property>
  <property name="mlt_service">qimage</property>
  <property name="kdenlive:clipname">14.png</property>
  <property name="kdenlive:duration">00:00:05.000</property>
  <property name="kdenlive:folderid">110</property>
  <property name="kdenlive:id">115</property>
  <property name="kdenlive:file_size">170936</property>
  <property name="kdenlive:proxy">/home/xiaoxiae/.cache/kdenlive/proxy/228217ff16a2e212304ad27ec1196bb5.png</property>
  <property name="kdenlive:originalurl">video/ComputationalPower/img/14.png</property>
  <property name="kdenlive:original.mlt_type">producer</property>
  <property name="kdenlive:original.in">0</property>
  <property name="kdenlive:original.out">299</property>
  <property name="kdenlive:original.length">00:00:05.000</property>
  <property name="kdenlive:original.eof">pause</property>
  <property name="kdenlive:original.resource">video/ComputationalPower/img/14.png</property>
  <property name="kdenlive:original.ttl">25</property>
  <property name="kdenlive:original.aspect_ratio">1</property>
  <property name="kdenlive:original.progressive">1</property>
  <property name="kdenlive:original.seekable">1</property>
  <property name="kdenlive:original.meta.media.width">3840</property>
  <property name="kdenlive:original.meta.media.height">2160</property>
  <property name="kdenlive:original.mlt_service">qimage</property>
  <property name="kdenlive:original.kdenlive:duration">00:00:05.000</property>
  <property name="kdenlive:original.kdenlive:folderid">110</property>
  <property name="kdenlive:original.kdenlive:id">116</property>
  <property name="kdenlive:original.kdenlive:file_size">170936</property>
  <property name="kdenlive:original.kdenlive:file_hash">228217ff16a2e212304ad27ec1196bb5</property>
  <property name="kdenlive:original.backup">1</property>
  <property name="kdenlive:file_hash">228217ff16a2e212304ad27ec1196bb5</property>
 </producer>
 <producer id="producer100" in="00:00:00.000" out="00:00:05.583">
  <property name="length">00:00:05.600</property>
  <property name="eof">pause</property>
  <property name="resource">/home/xiaoxiae/.cache/kdenlive/proxy/a14cd9273604c7fe2abf323d437ae8b2.png</property>
  <property name="ttl">25</property>
  <property name="aspect_ratio">1</property>
  <property name="progressive">1</property>
  <property name="seekable">1</property>
  <property name="meta.media.width">800</property>
  <property name="meta.media.height">450</property>
  <property name="mlt_service">qimage</property>
  <property name="kdenlive:clipname">15.png</property>
  <property name="kdenlive:duration">00:00:05.000</property>
  <property name="kdenlive:folderid">110</property>
  <property name="kdenlive:id">116</property>
  <property name="kdenlive:file_size">200226</property>
  <property name="kdenlive:proxy">/home/xiaoxiae/.cache/kdenlive/proxy/a14cd9273604c7fe2abf323d437ae8b2.png</property>
  <property name="kdenlive:originalurl">video/ComputationalPower/img/15.png</property>
  <property name="kdenlive:original.mlt_type">producer</property>
  <property name="kdenlive:original.in">0</property>
  <property name="kdenlive:original.out">299</property>
  <property name="kdenlive:original.length">00:00:05.000</property>
  <property name="kdenlive:original.eof">pause</property>
  <property name="kdenlive:original.resource">video/ComputationalPower/img/15.png</property>
  <property name="kdenlive:original.ttl">25</property>
  <property name="kdenlive:original.aspect_ratio">1</property>
  <property name="kdenlive:original.progressive">1</property>
  <property name="kdenlive:original.seekable">1</property>
  <property name="kdenlive:original.meta.media.width">3840</property>
  <property name="kdenlive:original.meta.media.height">2160</property>
  <property name="kdenlive:original.mlt_service">qimage</property>
  <property name="kdenlive:original.kdenlive:duration">00:00:05.000</property>
  <property name="kdenlive:original.kdenlive:folderid">110</property>
  <property name="kdenlive:original.kdenlive:id">117</property>
  <property name="kdenlive:original.kdenlive:file_size">200226</property>
  <property name="kdenlive:original.kdenlive:file_hash">a14cd9273604c7fe2abf323d437ae8b2</property>
  <property name="kdenlive:original.backup">1</property>
  <property name="kdenlive:file_hash">a14cd9273604c7fe2abf323d437ae8b2</property>
 </producer>
 <producer id="producer101" in="00:00:00.000" out="00:00:04.983">
  <property name="length">00:00:05.000</property>
  <property name="eof">pause</property>
  <property name="resource">/home/xiaoxiae/.cache/kdenlive/proxy/cefbcf1ea5286b0ec50674371bc92ee4.png</property>
  <property name="ttl">25</property>
  <property name="aspect_ratio">1</property>
  <property name="progressive">1</property>
  <property name="seekable">1</property>
  <property name="meta.media.width">800</property>
  <property name="meta.media.height">450</property>
  <property name="mlt_service">qimage</property>
  <property name="kdenlive:clipname">2.png</property>
  <property name="kdenlive:duration">00:00:05.000</property>
  <property name="kdenlive:folderid">110</property>
  <property name="kdenlive:id">117</property>
  <property name="kdenlive:file_size">94092</property>
  <property name="kdenlive:proxy">/home/xiaoxiae/.cache/kdenlive/proxy/cefbcf1ea5286b0ec50674371bc92ee4.png</property>
  <property name="kdenlive:originalurl">video/ComputationalPower/img/2.png</property>
  <property name="kdenlive:original.mlt_type">producer</property>
  <property name="kdenlive:original.in">0</property>
  <property name="kdenlive:original.out">299</property>
  <property name="kdenlive:original.length">00:00:05.000</property>
  <property name="kdenlive:original.eof">pause</property>
  <property name="kdenlive:original.resource">video/ComputationalPower/img/2.png</property>
  <property name="kdenlive:original.ttl">25</property>
  <property name="kdenlive:original.aspect_ratio">1</property>
  <property name="kdenlive:original.progressive">1</property>
  <property name="kdenlive:original.seekable">1</property>
  <property name="kdenlive:original.meta.media.width">3840</property>
  <property name="kdenlive:original.meta.media.height">2160</property>
  <property name="kdenlive:original.mlt_service">qimage</property>
  <property name="kdenlive:original.kdenlive:duration">00:00:05.000</property>
  <property name="kdenlive:original.kdenlive:folderid">110</property>
  <property name="kdenlive:original.kdenlive:id">118</property>
  <property name="kdenlive:original.kdenlive:file_size">94092</property>
  <property name="kdenlive:original.kdenlive:file_hash">cefbcf1ea5286b0ec50674371bc92ee4</property>
  <property name="kdenlive:original.backup">1</property>
  <property name="kdenlive:file_hash">cefbcf1ea5286b0ec50674371bc92ee4</property>
 </producer>
 <producer id="producer103" in="00:00:00.000" out="00:00:04.983">
  <property name="length">00:00:05.000</property>
  <property name="eof">pause</property>
  <property name="resource">/home/xiaoxiae/.cache/kdenlive/proxy/a222a2da91d4af4b801f59feaff0b27c.png</property>
  <property name="ttl">25</property>
  <property name="aspect_ratio">1</property>
  <property name="progressive">1</property>
  <property name="seekable">1</property>
  <property name="meta.media.width">800</property>
  <property name="meta.media.height">450</property>
  <property name="mlt_service">qimage</property>
  <property name="kdenlive:clipname">3.png</property>
  <property name="kdenlive:duration">00:00:05.000</property>
  <property name="kdenlive:folderid">110</property>
  <property name="kdenlive:id">118</property>
  <property name="kdenlive:file_size">86298</property>
  <property name="kdenlive:proxy">/home/xiaoxiae/.cache/kdenlive/proxy/a222a2da91d4af4b801f59feaff0b27c.png</property>
  <property name="kdenlive:originalurl">video/ComputationalPower/img/3.png</property>
  <property name="kdenlive:original.mlt_type">producer</property>
  <property name="kdenlive:original.in">0</property>
  <property name="kdenlive:original.out">299</property>
  <property name="kdenlive:original.length">00:00:05.000</property>
  <property name="kdenlive:original.eof">pause</property>
  <property name="kdenlive:original.resource">video/ComputationalPower/img/3.png</property>
  <property name="kdenlive:original.ttl">25</property>
  <property name="kdenlive:original.aspect_ratio">1</property>
  <property name="kdenlive:original.progressive">1</property>
  <property name="kdenlive:original.seekable">1</property>
  <property name="kdenlive:original.meta.media.width">3840</property>
  <property name="kdenlive:original.meta.media.height">2160</property>
  <property name="kdenlive:original.mlt_service">qimage</property>
  <property name="kdenlive:original.kdenlive:duration">00:00:05.000</property>
  <property name="kdenlive:original.kdenlive:folderid">110</property>
  <property name="kdenlive:original.kdenlive:id">119</property>
  <property name="kdenlive:original.kdenlive:file_size">86298</property>
  <property name="kdenlive:original.kdenlive:file_hash">a222a2da91d4af4b801f59feaff0b27c</property>
  <property name="kdenlive:original.backup">1</property>
  <property name="kdenlive:file_hash">a222a2da91d4af4b801f59feaff0b27c</property>
 </producer>
 <producer id="producer102" in="00:00:00.000" out="00:00:04.983">
  <property name="length">00:00:05.000</property>
  <property name="eof">pause</property>
  <property name="resource">/home/xiaoxiae/.cache/kdenlive/proxy/73a829700d909c5f6959e7e7531a1ef7.png</property>
  <property name="ttl">25</property>
  <property name="aspect_ratio">1</property>
  <property name="progressive">1</property>
  <property name="seekable">1</property>
  <property name="meta.media.width">800</property>
  <property name="meta.media.height">450</property>
  <property name="mlt_service">qimage</property>
  <property name="kdenlive:clipname">4.png</property>
  <property name="kdenlive:duration">00:00:05.000</property>
  <property name="kdenlive:folderid">110</property>
  <property name="kdenlive:id">119</property>
  <property name="kdenlive:file_size">103020</property>
  <property name="kdenlive:proxy">/home/xiaoxiae/.cache/kdenlive/proxy/73a829700d909c5f6959e7e7531a1ef7.png</property>
  <property name="kdenlive:originalurl">video/ComputationalPower/img/4.png</property>
  <property name="kdenlive:original.mlt_type">producer</property>
  <property name="kdenlive:original.in">0</property>
  <property name="kdenlive:original.out">299</property>
  <property name="kdenlive:original.length">00:00:05.000</property>
  <property name="kdenlive:original.eof">pause</property>
  <property name="kdenlive:original.resource">video/ComputationalPower/img/4.png</property>
  <property name="kdenlive:original.ttl">25</property>
  <property name="kdenlive:original.aspect_ratio">1</property>
  <property name="kdenlive:original.progressive">1</property>
  <property name="kdenlive:original.seekable">1</property>
  <property name="kdenlive:original.meta.media.width">3840</property>
  <property name="kdenlive:original.meta.media.height">2160</property>
  <property name="kdenlive:original.mlt_service">qimage</property>
  <property name="kdenlive:original.kdenlive:duration">00:00:05.000</property>
  <property name="kdenlive:original.kdenlive:folderid">110</property>
  <property name="kdenlive:original.kdenlive:id">120</property>
  <property name="kdenlive:original.kdenlive:file_size">103020</property>
  <property name="kdenlive:original.kdenlive:file_hash">73a829700d909c5f6959e7e7531a1ef7</property>
  <property name="kdenlive:original.backup">1</property>
  <property name="kdenlive:file_hash">73a829700d909c5f6959e7e7531a1ef7</property>
 </producer>
 <producer id="producer104" in="00:00:00.000" out="00:00:04.983">
  <property name="length">00:00:05.000</property>
  <property name="eof">pause</property>
  <property name="resource">/home/xiaoxiae/.cache/kdenlive/proxy/9764e0bad69fdae292ca9f2789082e98.png</property>
  <property name="ttl">25</property>
  <property name="aspect_ratio">1</property>
  <property name="progressive">1</property>
  <property name="seekable">1</property>
  <property name="meta.media.width">800</property>
  <property name="meta.media.height">450</property>
  <property name="mlt_service">qimage</property>
  <property name="kdenlive:clipname">5.png</property>
  <property name="kdenlive:duration">00:00:05.000</property>
  <property name="kdenlive:folderid">110</property>
  <property name="kdenlive:id">120</property>
  <property name="kdenlive:file_size">145541</property>
  <property name="kdenlive:proxy">/home/xiaoxiae/.cache/kdenlive/proxy/9764e0bad69fdae292ca9f2789082e98.png</property>
  <property name="kdenlive:originalurl">video/ComputationalPower/img/5.png</property>
  <property name="kdenlive:original.mlt_type">producer</property>
  <property name="kdenlive:original.in">0</property>
  <property name="kdenlive:original.out">299</property>
  <property name="kdenlive:original.length">00:00:05.000</property>
  <property name="kdenlive:original.eof">pause</property>
  <property name="kdenlive:original.resource">video/ComputationalPower/img/5.png</property>
  <property name="kdenlive:original.ttl">25</property>
  <property name="kdenlive:original.aspect_ratio">1</property>
  <property name="kdenlive:original.progressive">1</property>
  <property name="kdenlive:original.seekable">1</property>
  <property name="kdenlive:original.meta.media.width">3840</property>
  <property name="kdenlive:original.meta.media.height">2160</property>
  <property name="kdenlive:original.mlt_service">qimage</property>
  <property name="kdenlive:original.kdenlive:duration">00:00:05.000</property>
  <property name="kdenlive:original.kdenlive:folderid">110</property>
  <property name="kdenlive:original.kdenlive:id">121</property>
  <property name="kdenlive:original.kdenlive:file_size">145541</property>
  <property name="kdenlive:original.kdenlive:file_hash">9764e0bad69fdae292ca9f2789082e98</property>
  <property name="kdenlive:original.backup">1</property>
  <property name="kdenlive:file_hash">9764e0bad69fdae292ca9f2789082e98</property>
 </producer>
 <producer id="producer105" in="00:00:00.000" out="00:00:04.983">
  <property name="length">00:00:05.000</property>
  <property name="eof">pause</property>
  <property name="resource">/home/xiaoxiae/.cache/kdenlive/proxy/76fd9c6dd456421af39cb011e865689f.png</property>
  <property name="ttl">25</property>
  <property name="aspect_ratio">1</property>
  <property name="progressive">1</property>
  <property name="seekable">1</property>
  <property name="meta.media.width">800</property>
  <property name="meta.media.height">450</property>
  <property name="mlt_service">qimage</property>
  <property name="kdenlive:clipname">6.png</property>
  <property name="kdenlive:duration">00:00:05.000</property>
  <property name="kdenlive:folderid">110</property>
  <property name="kdenlive:id">121</property>
  <property name="kdenlive:file_size">156407</property>
  <property name="kdenlive:proxy">/home/xiaoxiae/.cache/kdenlive/proxy/76fd9c6dd456421af39cb011e865689f.png</property>
  <property name="kdenlive:originalurl">video/ComputationalPower/img/6.png</property>
  <property name="kdenlive:original.mlt_type">producer</property>
  <property name="kdenlive:original.in">0</property>
  <property name="kdenlive:original.out">299</property>
  <property name="kdenlive:original.length">00:00:05.000</property>
  <property name="kdenlive:original.eof">pause</property>
  <property name="kdenlive:original.resource">video/ComputationalPower/img/6.png</property>
  <property name="kdenlive:original.ttl">25</property>
  <property name="kdenlive:original.aspect_ratio">1</property>
  <property name="kdenlive:original.progressive">1</property>
  <property name="kdenlive:original.seekable">1</property>
  <property name="kdenlive:original.meta.media.width">3840</property>
  <property name="kdenlive:original.meta.media.height">2160</property>
  <property name="kdenlive:original.mlt_service">qimage</property>
  <property name="kdenlive:original.kdenlive:duration">00:00:05.000</property>
  <property name="kdenlive:original.kdenlive:folderid">110</property>
  <property name="kdenlive:original.kdenlive:id">122</property>
  <property name="kdenlive:original.kdenlive:file_size">156407</property>
  <property name="kdenlive:original.kdenlive:file_hash">76fd9c6dd456421af39cb011e865689f</property>
  <property name="kdenlive:original.backup">1</property>
  <property name="kdenlive:file_hash">76fd9c6dd456421af39cb011e865689f</property>
 </producer>
 <producer id="producer106" in="00:00:00.000" out="00:00:04.983">
  <property name="length">00:00:05.000</property>
  <property name="eof">pause</property>
  <property name="resource">/home/xiaoxiae/.cache/kdenlive/proxy/540058639e6fb499b11e12b8fc882b3b.png</property>
  <property name="ttl">25</property>
  <property name="aspect_ratio">1</property>
  <property name="progressive">1</property>
  <property name="seekable">1</property>
  <property name="meta.media.width">800</property>
  <property name="meta.media.height">450</property>
  <property name="mlt_service">qimage</property>
  <property name="kdenlive:clipname">7.png</property>
  <property name="kdenlive:duration">00:00:05.000</property>
  <property name="kdenlive:folderid">110</property>
  <property name="kdenlive:id">122</property>
  <property name="kdenlive:file_size">166744</property>
  <property name="kdenlive:proxy">/home/xiaoxiae/.cache/kdenlive/proxy/540058639e6fb499b11e12b8fc882b3b.png</property>
  <property name="kdenlive:originalurl">video/ComputationalPower/img/7.png</property>
  <property name="kdenlive:original.mlt_type">producer</property>
  <property name="kdenlive:original.in">0</property>
  <property name="kdenlive:original.out">299</property>
  <property name="kdenlive:original.length">00:00:05.000</property>
  <property name="kdenlive:original.eof">pause</property>
  <property name="kdenlive:original.resource">video/ComputationalPower/img/7.png</property>
  <property name="kdenlive:original.ttl">25</property>
  <property name="kdenlive:original.aspect_ratio">1</property>
  <property name="kdenlive:original.progressive">1</property>
  <property name="kdenlive:original.seekable">1</property>
  <property name="kdenlive:original.meta.media.width">3840</property>
  <property name="kdenlive:original.meta.media.height">2160</property>
  <property name="kdenlive:original.mlt_service">qimage</property>
  <property name="kdenlive:original.kdenlive:duration">00:00:05.000</property>
  <property name="kdenlive:original.kdenlive:folderid">110</property>
  <property name="kdenlive:original.kdenlive:id">123</property>
  <property name="kdenlive:original.kdenlive:file_size">166744</property>
  <property name="kdenlive:original.kdenlive:file_hash">540058639e6fb499b11e12b8fc882b3b</property>
  <property name="kdenlive:original.backup">1</property>
  <property name="kdenlive:file_hash">540058639e6fb499b11e12b8fc882b3b</property>
 </producer>
 <producer id="producer107" in="00:00:00.000" out="00:00:07.450">
  <property name="length">00:00:07.467</property>
  <property name="eof">pause</property>
  <property name="resource">/home/xiaoxiae/.cache/kdenlive/proxy/ff7eb59a667f2ccba0e3d197fd51d8cb.png</property>
  <property name="ttl">25</property>
  <property name="aspect_ratio">1</property>
  <property name="progressive">1</property>
  <property name="seekable">1</property>
  <property name="meta.media.width">800</property>
  <property name="meta.media.height">450</property>
  <property name="mlt_service">qimage</property>
  <property name="kdenlive:clipname">8.png</property>
  <property name="kdenlive:duration">00:00:05.000</property>
  <property name="kdenlive:folderid">110</property>
  <property name="kdenlive:id">123</property>
  <property name="kdenlive:file_size">196693</property>
  <property name="kdenlive:proxy">/home/xiaoxiae/.cache/kdenlive/proxy/ff7eb59a667f2ccba0e3d197fd51d8cb.png</property>
  <property name="kdenlive:originalurl">video/ComputationalPower/img/8.png</property>
  <property name="kdenlive:original.mlt_type">producer</property>
  <property name="kdenlive:original.in">0</property>
  <property name="kdenlive:original.out">299</property>
  <property name="kdenlive:original.length">00:00:05.000</property>
  <property name="kdenlive:original.eof">pause</property>
  <property name="kdenlive:original.resource">video/ComputationalPower/img/8.png</property>
  <property name="kdenlive:original.ttl">25</property>
  <property name="kdenlive:original.aspect_ratio">1</property>
  <property name="kdenlive:original.progressive">1</property>
  <property name="kdenlive:original.seekable">1</property>
  <property name="kdenlive:original.meta.media.width">3840</property>
  <property name="kdenlive:original.meta.media.height">2160</property>
  <property name="kdenlive:original.mlt_service">qimage</property>
  <property name="kdenlive:original.kdenlive:duration">00:00:05.000</property>
  <property name="kdenlive:original.kdenlive:folderid">110</property>
  <property name="kdenlive:original.kdenlive:id">124</property>
  <property name="kdenlive:original.kdenlive:file_size">196693</property>
  <property name="kdenlive:original.kdenlive:file_hash">ff7eb59a667f2ccba0e3d197fd51d8cb</property>
  <property name="kdenlive:original.backup">1</property>
  <property name="kdenlive:file_hash">ff7eb59a667f2ccba0e3d197fd51d8cb</property>
 </producer>
 <producer id="producer108" in="00:00:00.000" out="00:00:04.983">
  <property name="length">00:00:05.000</property>
  <property name="eof">pause</property>
  <property name="resource">/home/xiaoxiae/.cache/kdenlive/proxy/ce0a9a1c9f7fae4033a72a159ed530ea.png</property>
  <property name="ttl">25</property>
  <property name="aspect_ratio">1</property>
  <property name="progressive">1</property>
  <property name="seekable">1</property>
  <property name="meta.media.width">800</property>
  <property name="meta.media.height">450</property>
  <property name="mlt_service">qimage</property>
  <property name="kdenlive:clipname">9.png</property>
  <property name="kdenlive:duration">00:00:05.000</property>
  <property name="kdenlive:folderid">110</property>
  <property name="kdenlive:id">124</property>
  <property name="kdenlive:file_size">176729</property>
  <property name="kdenlive:proxy">/home/xiaoxiae/.cache/kdenlive/proxy/ce0a9a1c9f7fae4033a72a159ed530ea.png</property>
  <property name="kdenlive:originalurl">video/ComputationalPower/img/9.png</property>
  <property name="kdenlive:original.mlt_type">producer</property>
  <property name="kdenlive:original.in">0</property>
  <property name="kdenlive:original.out">299</property>
  <property name="kdenlive:original.length">00:00:05.000</property>
  <property name="kdenlive:original.eof">pause</property>
  <property name="kdenlive:original.resource">video/ComputationalPower/img/9.png</property>
  <property name="kdenlive:original.ttl">25</property>
  <property name="kdenlive:original.aspect_ratio">1</property>
  <property name="kdenlive:original.progressive">1</property>
  <property name="kdenlive:original.seekable">1</property>
  <property name="kdenlive:original.meta.media.width">3840</property>
  <property name="kdenlive:original.meta.media.height">2160</property>
  <property name="kdenlive:original.mlt_service">qimage</property>
  <property name="kdenlive:original.kdenlive:duration">00:00:05.000</property>
  <property name="kdenlive:original.kdenlive:folderid">110</property>
  <property name="kdenlive:original.kdenlive:id">125</property>
  <property name="kdenlive:original.kdenlive:file_size">176729</property>
  <property name="kdenlive:original.kdenlive:file_hash">ce0a9a1c9f7fae4033a72a159ed530ea</property>
  <property name="kdenlive:original.backup">1</property>
  <property name="kdenlive:file_hash">ce0a9a1c9f7fae4033a72a159ed530ea</property>
 </producer>
 <producer id="producer109" in="00:00:00.000" out="00:00:00.983">
  <property name="length">60</property>
  <property name="eof">pause</property>
  <property name="resource">/home/xiaoxiae/.cache/kdenlive/proxy/9e69df7e57531a93884b3b84e529648f.mov</property>
  <property name="audio_index">-1</property>
  <property name="video_index">0</property>
  <property name="mute_on_pause">0</property>
  <property name="mlt_service">avformat-novalidate</property>
  <property name="seekable">1</property>
  <property name="aspect_ratio">1</property>
  <property name="kdenlive:clipname">1.mp4</property>
  <property name="kdenlive:folderid">126</property>
  <property name="kdenlive:id">125</property>
  <property name="kdenlive:file_size">71726</property>
  <property name="kdenlive:proxy">/home/xiaoxiae/.cache/kdenlive/proxy/9e69df7e57531a93884b3b84e529648f.mov</property>
  <property name="kdenlive:originalurl">video/ComputationalPower/vid/1.mp4</property>
  <property name="kdenlive:original.mlt_type">producer</property>
  <property name="kdenlive:original.in">0</property>
  <property name="kdenlive:original.out">59</property>
  <property name="kdenlive:original.length">60</property>
  <property name="kdenlive:original.eof">pause</property>
  <property name="kdenlive:original.resource">video/ComputationalPower/vid/1.mp4</property>
  <property name="kdenlive:original.meta.media.nb_streams">1</property>
  <property name="kdenlive:original.meta.media.0.stream.type">video</property>
  <property name="kdenlive:original.meta.media.0.stream.frame_rate">60</property>
  <property name="kdenlive:original.meta.media.0.stream.sample_aspect_ratio">0</property>
  <property name="kdenlive:original.meta.media.0.codec.width">3840</property>
  <property name="kdenlive:original.meta.media.0.codec.height">2160</property>
  <property name="kdenlive:original.meta.media.0.codec.rotate">0</property>
  <property name="kdenlive:original.meta.media.0.codec.pix_fmt">yuv420p</property>
  <property name="kdenlive:original.meta.media.0.codec.sample_aspect_ratio">0</property>
  <property name="kdenlive:original.meta.media.0.codec.colorspace">709</property>
  <property name="kdenlive:original.meta.media.0.codec.name">h264</property>
  <property name="kdenlive:original.meta.media.0.codec.long_name">H.264 / AVC / MPEG-4 AVC / MPEG-4 part 10</property>
  <property name="kdenlive:original.meta.media.0.codec.bit_rate">560752</property>
  <property name="kdenlive:original.meta.attr.0.stream.handler_name.markup">VideoHandler</property>
  <property name="kdenlive:original.meta.attr.0.stream.vendor_id.markup">[0][0][0][0]</property>
  <property name="kdenlive:original.meta.attr.major_brand.markup">isom</property>
  <property name="kdenlive:original.meta.attr.minor_version.markup">512</property>
  <property name="kdenlive:original.meta.attr.compatible_brands.markup">isomiso2avc1mp41</property>
  <property name="kdenlive:original.meta.attr.encoder.markup">Lavf58.76.100</property>
  <property name="kdenlive:original.meta.attr.comment.markup">Rendered with Manim Community v0.12.0</property>
  <property name="kdenlive:original.seekable">1</property>
  <property name="kdenlive:original.width">3840</property>
  <property name="kdenlive:original.height">2160</property>
  <property name="kdenlive:original.meta.media.sample_aspect_num">1</property>
  <property name="kdenlive:original.meta.media.sample_aspect_den">1</property>
  <property name="kdenlive:original.aspect_ratio">1</property>
  <property name="kdenlive:original.audio_index">-1</property>
  <property name="kdenlive:original.video_index">0</property>
  <property name="kdenlive:original.mute_on_pause">0</property>
  <property name="kdenlive:original.mlt_service">avformat-novalidate</property>
  <property name="kdenlive:original.kdenlive:folderid">126</property>
  <property name="kdenlive:original.meta.media.frame_rate_num">60</property>
  <property name="kdenlive:original.meta.media.frame_rate_den">1</property>
  <property name="kdenlive:original.meta.media.colorspace">709</property>
  <property name="kdenlive:original.meta.media.color_trc">2</property>
  <property name="kdenlive:original.meta.media.has_b_frames">2</property>
  <property name="kdenlive:original.meta.media.width">3840</property>
  <property name="kdenlive:original.meta.media.height">2160</property>
  <property name="kdenlive:original.meta.media.color_range">mpeg</property>
  <property name="kdenlive:original.kdenlive:id">127</property>
  <property name="kdenlive:original.kdenlive:file_size">71726</property>
  <property name="kdenlive:original.kdenlive:file_hash">9e69df7e57531a93884b3b84e529648f</property>
  <property name="kdenlive:original.backup">1</property>
  <property name="kdenlive:file_hash">9e69df7e57531a93884b3b84e529648f</property>
  <property name="meta.media.nb_streams">1</property>
  <property name="meta.media.0.stream.type">video</property>
  <property name="meta.media.0.stream.frame_rate">60</property>
  <property name="meta.media.0.stream.sample_aspect_ratio">0</property>
  <property name="meta.media.0.codec.width">640</property>
  <property name="meta.media.0.codec.height">360</property>
  <property name="meta.media.0.codec.rotate">0</property>
  <property name="meta.media.0.codec.pix_fmt">yuv420p</property>
  <property name="meta.media.0.codec.sample_aspect_ratio">0</property>
  <property name="meta.media.0.codec.colorspace">601</property>
  <property name="meta.media.0.codec.name">h264</property>
  <property name="meta.media.0.codec.long_name">H.264 / AVC / MPEG-4 AVC / MPEG-4 part 10</property>
  <property name="meta.media.0.codec.bit_rate">672120</property>
  <property name="meta.attr.0.stream.handler_name.markup">VideoHandler</property>
  <property name="meta.attr.0.stream.vendor_id.markup">FFMP</property>
  <property name="meta.attr.0.stream.encoder.markup">Lavc58.134.100 libx264</property>
  <property name="meta.attr.major_brand.markup">qt  </property>
  <property name="meta.attr.minor_version.markup">512</property>
  <property name="meta.attr.compatible_brands.markup">qt  </property>
  <property name="meta.attr.encoder.markup">Lavf58.76.100</property>
  <property name="meta.attr.comment.markup">Rendered with Manim Community v0.12.0</property>
  <property name="meta.media.sample_aspect_num">1</property>
  <property name="meta.media.sample_aspect_den">1</property>
  <property name="meta.media.frame_rate_num">60</property>
  <property name="meta.media.frame_rate_den">1</property>
  <property name="meta.media.colorspace">601</property>
  <property name="meta.media.color_trc">2</property>
  <property name="meta.media.has_b_frames">0</property>
  <property name="meta.media.width">640</property>
  <property name="meta.media.height">360</property>
  <property name="meta.media.color_range">mpeg</property>
 </producer>
 <producer id="producer110" in="00:00:00.000" out="00:00:00.983">
  <property name="length">60</property>
  <property name="eof">pause</property>
  <property name="resource">/home/xiaoxiae/.cache/kdenlive/proxy/6aae208e65f47e7f0525cc513bef3618.mov</property>
  <property name="audio_index">-1</property>
  <property name="video_index">0</property>
  <property name="mute_on_pause">0</property>
  <property name="mlt_service">avformat-novalidate</property>
  <property name="seekable">1</property>
  <property name="aspect_ratio">1</property>
  <property name="kdenlive:clipname">10.mp4</property>
  <property name="kdenlive:folderid">126</property>
  <property name="kdenlive:file_size">160673</property>
  <property name="kdenlive:id">127</property>
  <property name="kdenlive:proxy">/home/xiaoxiae/.cache/kdenlive/proxy/6aae208e65f47e7f0525cc513bef3618.mov</property>
  <property name="kdenlive:originalurl">video/ComputationalPower/vid/10.mp4</property>
  <property name="kdenlive:original.mlt_type">producer</property>
  <property name="kdenlive:original.in">0</property>
  <property name="kdenlive:original.out">59</property>
  <property name="kdenlive:original.length">60</property>
  <property name="kdenlive:original.eof">pause</property>
  <property name="kdenlive:original.resource">video/ComputationalPower/vid/10.mp4</property>
  <property name="kdenlive:original.meta.media.nb_streams">1</property>
  <property name="kdenlive:original.meta.media.0.stream.type">video</property>
  <property name="kdenlive:original.meta.media.0.stream.frame_rate">60</property>
  <property name="kdenlive:original.meta.media.0.stream.sample_aspect_ratio">0</property>
  <property name="kdenlive:original.meta.media.0.codec.width">3840</property>
  <property name="kdenlive:original.meta.media.0.codec.height">2160</property>
  <property name="kdenlive:original.meta.media.0.codec.rotate">0</property>
  <property name="kdenlive:original.meta.media.0.codec.pix_fmt">yuv420p</property>
  <property name="kdenlive:original.meta.media.0.codec.sample_aspect_ratio">0</property>
  <property name="kdenlive:original.meta.media.0.codec.colorspace">709</property>
  <property name="kdenlive:original.meta.media.0.codec.name">h264</property>
  <property name="kdenlive:original.meta.media.0.codec.long_name">H.264 / AVC / MPEG-4 AVC / MPEG-4 part 10</property>
  <property name="kdenlive:original.meta.media.0.codec.bit_rate">1272328</property>
  <property name="kdenlive:original.meta.attr.0.stream.handler_name.markup">VideoHandler</property>
  <property name="kdenlive:original.meta.attr.0.stream.vendor_id.markup">[0][0][0][0]</property>
  <property name="kdenlive:original.meta.attr.major_brand.markup">isom</property>
  <property name="kdenlive:original.meta.attr.minor_version.markup">512</property>
  <property name="kdenlive:original.meta.attr.compatible_brands.markup">isomiso2avc1mp41</property>
  <property name="kdenlive:original.meta.attr.encoder.markup">Lavf58.76.100</property>
  <property name="kdenlive:original.meta.attr.comment.markup">Rendered with Manim Community v0.12.0</property>
  <property name="kdenlive:original.seekable">1</property>
  <property name="kdenlive:original.width">3840</property>
  <property name="kdenlive:original.height">2160</property>
  <property name="kdenlive:original.meta.media.sample_aspect_num">1</property>
  <property name="kdenlive:original.meta.media.sample_aspect_den">1</property>
  <property name="kdenlive:original.aspect_ratio">1</property>
  <property name="kdenlive:original.audio_index">-1</property>
  <property name="kdenlive:original.video_index">0</property>
  <property name="kdenlive:original.mute_on_pause">0</property>
  <property name="kdenlive:original.mlt_service">avformat-novalidate</property>
  <property name="kdenlive:original.kdenlive:folderid">126</property>
  <property name="kdenlive:original.kdenlive:file_size">160673</property>
  <property name="kdenlive:original.meta.media.frame_rate_num">60</property>
  <property name="kdenlive:original.meta.media.frame_rate_den">1</property>
  <property name="kdenlive:original.meta.media.colorspace">709</property>
  <property name="kdenlive:original.meta.media.color_trc">2</property>
  <property name="kdenlive:original.meta.media.has_b_frames">2</property>
  <property name="kdenlive:original.meta.media.width">3840</property>
  <property name="kdenlive:original.meta.media.height">2160</property>
  <property name="kdenlive:original.meta.media.color_range">mpeg</property>
  <property name="kdenlive:original.kdenlive:id">128</property>
  <property name="kdenlive:original.kdenlive:file_hash">6aae208e65f47e7f0525cc513bef3618</property>
  <property name="kdenlive:original.backup">1</property>
  <property name="kdenlive:file_hash">6aae208e65f47e7f0525cc513bef3618</property>
  <property name="meta.media.nb_streams">1</property>
  <property name="meta.media.0.stream.type">video</property>
  <property name="meta.media.0.stream.frame_rate">60</property>
  <property name="meta.media.0.stream.sample_aspect_ratio">0</property>
  <property name="meta.media.0.codec.width">640</property>
  <property name="meta.media.0.codec.height">360</property>
  <property name="meta.media.0.codec.rotate">0</property>
  <property name="meta.media.0.codec.pix_fmt">yuv420p</property>
  <property name="meta.media.0.codec.sample_aspect_ratio">0</property>
  <property name="meta.media.0.codec.colorspace">601</property>
  <property name="meta.media.0.codec.name">h264</property>
  <property name="meta.media.0.codec.long_name">H.264 / AVC / MPEG-4 AVC / MPEG-4 part 10</property>
  <property name="meta.media.0.codec.bit_rate">1661680</property>
  <property name="meta.attr.0.stream.handler_name.markup">VideoHandler</property>
  <property name="meta.attr.0.stream.vendor_id.markup">FFMP</property>
  <property name="meta.attr.0.stream.encoder.markup">Lavc58.134.100 libx264</property>
  <property name="meta.attr.major_brand.markup">qt  </property>
  <property name="meta.attr.minor_version.markup">512</property>
  <property name="meta.attr.compatible_brands.markup">qt  </property>
  <property name="meta.attr.encoder.markup">Lavf58.76.100</property>
  <property name="meta.attr.comment.markup">Rendered with Manim Community v0.12.0</property>
  <property name="meta.media.sample_aspect_num">1</property>
  <property name="meta.media.sample_aspect_den">1</property>
  <property name="meta.media.frame_rate_num">60</property>
  <property name="meta.media.frame_rate_den">1</property>
  <property name="meta.media.colorspace">601</property>
  <property name="meta.media.color_trc">2</property>
  <property name="meta.media.has_b_frames">0</property>
  <property name="meta.media.width">640</property>
  <property name="meta.media.height">360</property>
  <property name="meta.media.color_range">mpeg</property>
 </producer>
 <producer id="producer111" in="00:00:00.000" out="00:00:00.983">
  <property name="length">60</property>
  <property name="eof">pause</property>
  <property name="resource">/home/xiaoxiae/.cache/kdenlive/proxy/8bbe2f5353ee48e8c5d055ad43d71290.mov</property>
  <property name="audio_index">-1</property>
  <property name="video_index">0</property>
  <property name="mute_on_pause">0</property>
  <property name="mlt_service">avformat-novalidate</property>
  <property name="seekable">1</property>
  <property name="aspect_ratio">1</property>
  <property name="kdenlive:clipname">11.mp4</property>
  <property name="kdenlive:folderid">126</property>
  <property name="kdenlive:id">128</property>
  <property name="kdenlive:file_size">72372</property>
  <property name="kdenlive:proxy">/home/xiaoxiae/.cache/kdenlive/proxy/8bbe2f5353ee48e8c5d055ad43d71290.mov</property>
  <property name="kdenlive:originalurl">video/ComputationalPower/vid/11.mp4</property>
  <property name="kdenlive:original.mlt_type">producer</property>
  <property name="kdenlive:original.in">0</property>
  <property name="kdenlive:original.out">59</property>
  <property name="kdenlive:original.length">60</property>
  <property name="kdenlive:original.eof">pause</property>
  <property name="kdenlive:original.resource">video/ComputationalPower/vid/11.mp4</property>
  <property name="kdenlive:original.meta.media.nb_streams">1</property>
  <property name="kdenlive:original.meta.media.0.stream.type">video</property>
  <property name="kdenlive:original.meta.media.0.stream.frame_rate">60</property>
  <property name="kdenlive:original.meta.media.0.stream.sample_aspect_ratio">0</property>
  <property name="kdenlive:original.meta.media.0.codec.width">3840</property>
  <property name="kdenlive:original.meta.media.0.codec.height">2160</property>
  <property name="kdenlive:original.meta.media.0.codec.rotate">0</property>
  <property name="kdenlive:original.meta.media.0.codec.pix_fmt">yuv420p</property>
  <property name="kdenlive:original.meta.media.0.codec.sample_aspect_ratio">0</property>
  <property name="kdenlive:original.meta.media.0.codec.colorspace">709</property>
  <property name="kdenlive:original.meta.media.0.codec.name">h264</property>
  <property name="kdenlive:original.meta.media.0.codec.long_name">H.264 / AVC / MPEG-4 AVC / MPEG-4 part 10</property>
  <property name="kdenlive:original.meta.media.0.codec.bit_rate">565920</property>
  <property name="kdenlive:original.meta.attr.0.stream.handler_name.markup">VideoHandler</property>
  <property name="kdenlive:original.meta.attr.0.stream.vendor_id.markup">[0][0][0][0]</property>
  <property name="kdenlive:original.meta.attr.major_brand.markup">isom</property>
  <property name="kdenlive:original.meta.attr.minor_version.markup">512</property>
  <property name="kdenlive:original.meta.attr.compatible_brands.markup">isomiso2avc1mp41</property>
  <property name="kdenlive:original.meta.attr.encoder.markup">Lavf58.76.100</property>
  <property name="kdenlive:original.meta.attr.comment.markup">Rendered with Manim Community v0.12.0</property>
  <property name="kdenlive:original.seekable">1</property>
  <property name="kdenlive:original.width">3840</property>
  <property name="kdenlive:original.height">2160</property>
  <property name="kdenlive:original.meta.media.sample_aspect_num">1</property>
  <property name="kdenlive:original.meta.media.sample_aspect_den">1</property>
  <property name="kdenlive:original.aspect_ratio">1</property>
  <property name="kdenlive:original.audio_index">-1</property>
  <property name="kdenlive:original.video_index">0</property>
  <property name="kdenlive:original.mute_on_pause">0</property>
  <property name="kdenlive:original.mlt_service">avformat-novalidate</property>
  <property name="kdenlive:original.kdenlive:folderid">126</property>
  <property name="kdenlive:original.meta.media.frame_rate_num">60</property>
  <property name="kdenlive:original.meta.media.frame_rate_den">1</property>
  <property name="kdenlive:original.meta.media.colorspace">709</property>
  <property name="kdenlive:original.meta.media.color_trc">2</property>
  <property name="kdenlive:original.meta.media.has_b_frames">2</property>
  <property name="kdenlive:original.meta.media.width">3840</property>
  <property name="kdenlive:original.meta.media.height">2160</property>
  <property name="kdenlive:original.meta.media.color_range">mpeg</property>
  <property name="kdenlive:original.kdenlive:id">129</property>
  <property name="kdenlive:original.kdenlive:file_size">72372</property>
  <property name="kdenlive:original.kdenlive:file_hash">8bbe2f5353ee48e8c5d055ad43d71290</property>
  <property name="kdenlive:original.backup">1</property>
  <property name="kdenlive:file_hash">8bbe2f5353ee48e8c5d055ad43d71290</property>
  <property name="meta.media.nb_streams">1</property>
  <property name="meta.media.0.stream.type">video</property>
  <property name="meta.media.0.stream.frame_rate">60</property>
  <property name="meta.media.0.stream.sample_aspect_ratio">0</property>
  <property name="meta.media.0.codec.width">640</property>
  <property name="meta.media.0.codec.height">360</property>
  <property name="meta.media.0.codec.rotate">0</property>
  <property name="meta.media.0.codec.pix_fmt">yuv420p</property>
  <property name="meta.media.0.codec.sample_aspect_ratio">0</property>
  <property name="meta.media.0.codec.colorspace">601</property>
  <property name="meta.media.0.codec.name">h264</property>
  <property name="meta.media.0.codec.long_name">H.264 / AVC / MPEG-4 AVC / MPEG-4 part 10</property>
  <property name="meta.media.0.codec.bit_rate">1748288</property>
  <property name="meta.attr.0.stream.handler_name.markup">VideoHandler</property>
  <property name="meta.attr.0.stream.vendor_id.markup">FFMP</property>
  <property name="meta.attr.0.stream.encoder.markup">Lavc58.134.100 libx264</property>
  <property name="meta.attr.major_brand.markup">qt  </property>
  <property name="meta.attr.minor_version.markup">512</property>
  <property name="meta.attr.compatible_brands.markup">qt  </property>
  <property name="meta.attr.encoder.markup">Lavf58.76.100</property>
  <property name="meta.attr.comment.markup">Rendered with Manim Community v0.12.0</property>
  <property name="meta.media.sample_aspect_num">1</property>
  <property name="meta.media.sample_aspect_den">1</property>
  <property name="meta.media.frame_rate_num">60</property>
  <property name="meta.media.frame_rate_den">1</property>
  <property name="meta.media.colorspace">601</property>
  <property name="meta.media.color_trc">2</property>
  <property name="meta.media.has_b_frames">0</property>
  <property name="meta.media.width">640</property>
  <property name="meta.media.height">360</property>
  <property name="meta.media.color_range">mpeg</property>
 </producer>
 <producer id="producer112" in="00:00:00.000" out="00:00:01.333">
  <property name="length">81</property>
  <property name="eof">pause</property>
  <property name="resource">/home/xiaoxiae/.cache/kdenlive/proxy/dfb5eb1e175d011f8c5a94bbab32c7c9.mov</property>
  <property name="audio_index">-1</property>
  <property name="video_index">0</property>
  <property name="mute_on_pause">0</property>
  <property name="mlt_service">avformat-novalidate</property>
  <property name="seekable">1</property>
  <property name="aspect_ratio">1</property>
  <property name="kdenlive:clipname">12.mp4</property>
  <property name="kdenlive:folderid">126</property>
  <property name="kdenlive:id">129</property>
  <property name="kdenlive:file_size">176337</property>
  <property name="kdenlive:proxy">/home/xiaoxiae/.cache/kdenlive/proxy/dfb5eb1e175d011f8c5a94bbab32c7c9.mov</property>
  <property name="kdenlive:originalurl">video/ComputationalPower/vid/12.mp4</property>
  <property name="kdenlive:original.mlt_type">producer</property>
  <property name="kdenlive:original.in">0</property>
  <property name="kdenlive:original.out">80</property>
  <property name="kdenlive:original.length">81</property>
  <property name="kdenlive:original.eof">pause</property>
  <property name="kdenlive:original.resource">video/ComputationalPower/vid/12.mp4</property>
  <property name="kdenlive:original.meta.media.nb_streams">1</property>
  <property name="kdenlive:original.meta.media.0.stream.type">video</property>
  <property name="kdenlive:original.meta.media.0.stream.frame_rate">60</property>
  <property name="kdenlive:original.meta.media.0.stream.sample_aspect_ratio">0</property>
  <property name="kdenlive:original.meta.media.0.codec.width">3840</property>
  <property name="kdenlive:original.meta.media.0.codec.height">2160</property>
  <property name="kdenlive:original.meta.media.0.codec.rotate">0</property>
  <property name="kdenlive:original.meta.media.0.codec.pix_fmt">yuv420p</property>
  <property name="kdenlive:original.meta.media.0.codec.sample_aspect_ratio">0</property>
  <property name="kdenlive:original.meta.media.0.codec.colorspace">709</property>
  <property name="kdenlive:original.meta.media.0.codec.name">h264</property>
  <property name="kdenlive:original.meta.media.0.codec.long_name">H.264 / AVC / MPEG-4 AVC / MPEG-4 part 10</property>
  <property name="kdenlive:original.meta.media.0.codec.bit_rate">1033842</property>
  <property name="kdenlive:original.meta.attr.0.stream.handler_name.markup">VideoHandler</property>
  <property name="kdenlive:original.meta.attr.0.stream.vendor_id.markup">[0][0][0][0]</property>
  <property name="kdenlive:original.meta.attr.major_brand.markup">isom</property>
  <property name="kdenlive:original.meta.attr.minor_version.markup">512</property>
  <property name="kdenlive:original.meta.attr.compatible_brands.markup">isomiso2avc1mp41</property>
  <property name="kdenlive:original.meta.attr.encoder.markup">Lavf58.76.100</property>
  <property name="kdenlive:original.meta.attr.comment.markup">Rendered with Manim Community v0.12.0</property>
  <property name="kdenlive:original.seekable">1</property>
  <property name="kdenlive:original.width">3840</property>
  <property name="kdenlive:original.height">2160</property>
  <property name="kdenlive:original.meta.media.sample_aspect_num">1</property>
  <property name="kdenlive:original.meta.media.sample_aspect_den">1</property>
  <property name="kdenlive:original.aspect_ratio">1</property>
  <property name="kdenlive:original.audio_index">-1</property>
  <property name="kdenlive:original.video_index">0</property>
  <property name="kdenlive:original.mute_on_pause">0</property>
  <property name="kdenlive:original.mlt_service">avformat-novalidate</property>
  <property name="kdenlive:original.kdenlive:folderid">126</property>
  <property name="kdenlive:original.meta.media.frame_rate_num">60</property>
  <property name="kdenlive:original.meta.media.frame_rate_den">1</property>
  <property name="kdenlive:original.meta.media.colorspace">709</property>
  <property name="kdenlive:original.meta.media.color_trc">2</property>
  <property name="kdenlive:original.meta.media.has_b_frames">2</property>
  <property name="kdenlive:original.meta.media.width">3840</property>
  <property name="kdenlive:original.meta.media.height">2160</property>
  <property name="kdenlive:original.meta.media.color_range">mpeg</property>
  <property name="kdenlive:original.kdenlive:id">130</property>
  <property name="kdenlive:original.kdenlive:file_size">176337</property>
  <property name="kdenlive:original.kdenlive:file_hash">dfb5eb1e175d011f8c5a94bbab32c7c9</property>
  <property name="kdenlive:original.backup">1</property>
  <property name="kdenlive:file_hash">dfb5eb1e175d011f8c5a94bbab32c7c9</property>
  <property name="meta.media.nb_streams">1</property>
  <property name="meta.media.0.stream.type">video</property>
  <property name="meta.media.0.stream.frame_rate">60</property>
  <property name="meta.media.0.stream.sample_aspect_ratio">0</property>
  <property name="meta.media.0.codec.width">640</property>
  <property name="meta.media.0.codec.height">360</property>
  <property name="meta.media.0.codec.rotate">0</property>
  <property name="meta.media.0.codec.pix_fmt">yuv420p</property>
  <property name="meta.media.0.codec.sample_aspect_ratio">0</property>
  <property name="meta.media.0.codec.colorspace">601</property>
  <property name="meta.media.0.codec.name">h264</property>
  <property name="meta.media.0.codec.long_name">H.264 / AVC / MPEG-4 AVC / MPEG-4 part 10</property>
  <property name="meta.media.0.codec.bit_rate">1537031</property>
  <property name="meta.attr.0.stream.handler_name.markup">VideoHandler</property>
  <property name="meta.attr.0.stream.vendor_id.markup">FFMP</property>
  <property name="meta.attr.0.stream.encoder.markup">Lavc58.134.100 libx264</property>
  <property name="meta.attr.major_brand.markup">qt  </property>
  <property name="meta.attr.minor_version.markup">512</property>
  <property name="meta.attr.compatible_brands.markup">qt  </property>
  <property name="meta.attr.encoder.markup">Lavf58.76.100</property>
  <property name="meta.attr.comment.markup">Rendered with Manim Community v0.12.0</property>
  <property name="meta.media.sample_aspect_num">1</property>
  <property name="meta.media.sample_aspect_den">1</property>
  <property name="meta.media.frame_rate_num">60</property>
  <property name="meta.media.frame_rate_den">1</property>
  <property name="meta.media.colorspace">601</property>
  <property name="meta.media.color_trc">2</property>
  <property name="meta.media.has_b_frames">0</property>
  <property name="meta.media.width">640</property>
  <property name="meta.media.height">360</property>
  <property name="meta.media.color_range">mpeg</property>
 </producer>
 <producer id="producer113" in="00:00:00.000" out="00:00:00.983">
  <property name="length">60</property>
  <property name="eof">pause</property>
  <property name="resource">/home/xiaoxiae/.cache/kdenlive/proxy/071b74f04bfdafb4747da5e4a95b9e03.mov</property>
  <property name="audio_index">-1</property>
  <property name="video_index">0</property>
  <property name="mute_on_pause">0</property>
  <property name="mlt_service">avformat-novalidate</property>
  <property name="seekable">1</property>
  <property name="aspect_ratio">1</property>
  <property name="kdenlive:clipname">13.mp4</property>
  <property name="kdenlive:folderid">126</property>
  <property name="kdenlive:id">130</property>
  <property name="kdenlive:file_size">69785</property>
  <property name="kdenlive:proxy">/home/xiaoxiae/.cache/kdenlive/proxy/071b74f04bfdafb4747da5e4a95b9e03.mov</property>
  <property name="kdenlive:originalurl">video/ComputationalPower/vid/13.mp4</property>
  <property name="kdenlive:original.mlt_type">producer</property>
  <property name="kdenlive:original.in">0</property>
  <property name="kdenlive:original.out">59</property>
  <property name="kdenlive:original.length">60</property>
  <property name="kdenlive:original.eof">pause</property>
  <property name="kdenlive:original.resource">video/ComputationalPower/vid/13.mp4</property>
  <property name="kdenlive:original.meta.media.nb_streams">1</property>
  <property name="kdenlive:original.meta.media.0.stream.type">video</property>
  <property name="kdenlive:original.meta.media.0.stream.frame_rate">60</property>
  <property name="kdenlive:original.meta.media.0.stream.sample_aspect_ratio">0</property>
  <property name="kdenlive:original.meta.media.0.codec.width">3840</property>
  <property name="kdenlive:original.meta.media.0.codec.height">2160</property>
  <property name="kdenlive:original.meta.media.0.codec.rotate">0</property>
  <property name="kdenlive:original.meta.media.0.codec.pix_fmt">yuv420p</property>
  <property name="kdenlive:original.meta.media.0.codec.sample_aspect_ratio">0</property>
  <property name="kdenlive:original.meta.media.0.codec.colorspace">709</property>
  <property name="kdenlive:original.meta.media.0.codec.name">h264</property>
  <property name="kdenlive:original.meta.media.0.codec.long_name">H.264 / AVC / MPEG-4 AVC / MPEG-4 part 10</property>
  <property name="kdenlive:original.meta.media.0.codec.bit_rate">545224</property>
  <property name="kdenlive:original.meta.attr.0.stream.handler_name.markup">VideoHandler</property>
  <property name="kdenlive:original.meta.attr.0.stream.vendor_id.markup">[0][0][0][0]</property>
  <property name="kdenlive:original.meta.attr.major_brand.markup">isom</property>
  <property name="kdenlive:original.meta.attr.minor_version.markup">512</property>
  <property name="kdenlive:original.meta.attr.compatible_brands.markup">isomiso2avc1mp41</property>
  <property name="kdenlive:original.meta.attr.encoder.markup">Lavf58.76.100</property>
  <property name="kdenlive:original.meta.attr.comment.markup">Rendered with Manim Community v0.12.0</property>
  <property name="kdenlive:original.seekable">1</property>
  <property name="kdenlive:original.width">3840</property>
  <property name="kdenlive:original.height">2160</property>
  <property name="kdenlive:original.meta.media.sample_aspect_num">1</property>
  <property name="kdenlive:original.meta.media.sample_aspect_den">1</property>
  <property name="kdenlive:original.aspect_ratio">1</property>
  <property name="kdenlive:original.audio_index">-1</property>
  <property name="kdenlive:original.video_index">0</property>
  <property name="kdenlive:original.mute_on_pause">0</property>
  <property name="kdenlive:original.mlt_service">avformat-novalidate</property>
  <property name="kdenlive:original.kdenlive:folderid">126</property>
  <property name="kdenlive:original.meta.media.frame_rate_num">60</property>
  <property name="kdenlive:original.meta.media.frame_rate_den">1</property>
  <property name="kdenlive:original.meta.media.colorspace">709</property>
  <property name="kdenlive:original.meta.media.color_trc">2</property>
  <property name="kdenlive:original.meta.media.has_b_frames">2</property>
  <property name="kdenlive:original.meta.media.width">3840</property>
  <property name="kdenlive:original.meta.media.height">2160</property>
  <property name="kdenlive:original.meta.media.color_range">mpeg</property>
  <property name="kdenlive:original.kdenlive:id">131</property>
  <property name="kdenlive:original.kdenlive:file_size">69785</property>
  <property name="kdenlive:original.kdenlive:file_hash">071b74f04bfdafb4747da5e4a95b9e03</property>
  <property name="kdenlive:original.backup">1</property>
  <property name="kdenlive:file_hash">071b74f04bfdafb4747da5e4a95b9e03</property>
  <property name="meta.media.nb_streams">1</property>
  <property name="meta.media.0.stream.type">video</property>
  <property name="meta.media.0.stream.frame_rate">60</property>
  <property name="meta.media.0.stream.sample_aspect_ratio">0</property>
  <property name="meta.media.0.codec.width">640</property>
  <property name="meta.media.0.codec.height">360</property>
  <property name="meta.media.0.codec.rotate">0</property>
  <property name="meta.media.0.codec.pix_fmt">yuv420p</property>
  <property name="meta.media.0.codec.sample_aspect_ratio">0</property>
  <property name="meta.media.0.codec.colorspace">601</property>
  <property name="meta.media.0.codec.name">h264</property>
  <property name="meta.media.0.codec.long_name">H.264 / AVC / MPEG-4 AVC / MPEG-4 part 10</property>
  <property name="meta.media.0.codec.bit_rate">1486536</property>
  <property name="meta.attr.0.stream.handler_name.markup">VideoHandler</property>
  <property name="meta.attr.0.stream.vendor_id.markup">FFMP</property>
  <property name="meta.attr.0.stream.encoder.markup">Lavc58.134.100 libx264</property>
  <property name="meta.attr.major_brand.markup">qt  </property>
  <property name="meta.attr.minor_version.markup">512</property>
  <property name="meta.attr.compatible_brands.markup">qt  </property>
  <property name="meta.attr.encoder.markup">Lavf58.76.100</property>
  <property name="meta.attr.comment.markup">Rendered with Manim Community v0.12.0</property>
  <property name="meta.media.sample_aspect_num">1</property>
  <property name="meta.media.sample_aspect_den">1</property>
  <property name="meta.media.frame_rate_num">60</property>
  <property name="meta.media.frame_rate_den">1</property>
  <property name="meta.media.colorspace">601</property>
  <property name="meta.media.color_trc">2</property>
  <property name="meta.media.has_b_frames">0</property>
  <property name="meta.media.width">640</property>
  <property name="meta.media.height">360</property>
  <property name="meta.media.color_range">mpeg</property>
 </producer>
 <producer id="producer114" in="00:00:00.000" out="00:00:00.983">
  <property name="length">60</property>
  <property name="eof">pause</property>
  <property name="resource">/home/xiaoxiae/.cache/kdenlive/proxy/4e2ef92b47ef7f56bdc13b35626daef8.mov</property>
  <property name="audio_index">-1</property>
  <property name="video_index">0</property>
  <property name="mute_on_pause">0</property>
  <property name="mlt_service">avformat-novalidate</property>
  <property name="seekable">1</property>
  <property name="aspect_ratio">1</property>
  <property name="kdenlive:clipname">14.mp4</property>
  <property name="kdenlive:folderid">126</property>
  <property name="kdenlive:id">131</property>
  <property name="kdenlive:file_size">78658</property>
  <property name="kdenlive:proxy">/home/xiaoxiae/.cache/kdenlive/proxy/4e2ef92b47ef7f56bdc13b35626daef8.mov</property>
  <property name="kdenlive:originalurl">video/ComputationalPower/vid/14.mp4</property>
  <property name="kdenlive:original.mlt_type">producer</property>
  <property name="kdenlive:original.in">0</property>
  <property name="kdenlive:original.out">59</property>
  <property name="kdenlive:original.length">60</property>
  <property name="kdenlive:original.eof">pause</property>
  <property name="kdenlive:original.resource">video/ComputationalPower/vid/14.mp4</property>
  <property name="kdenlive:original.meta.media.nb_streams">1</property>
  <property name="kdenlive:original.meta.media.0.stream.type">video</property>
  <property name="kdenlive:original.meta.media.0.stream.frame_rate">60</property>
  <property name="kdenlive:original.meta.media.0.stream.sample_aspect_ratio">0</property>
  <property name="kdenlive:original.meta.media.0.codec.width">3840</property>
  <property name="kdenlive:original.meta.media.0.codec.height">2160</property>
  <property name="kdenlive:original.meta.media.0.codec.rotate">0</property>
  <property name="kdenlive:original.meta.media.0.codec.pix_fmt">yuv420p</property>
  <property name="kdenlive:original.meta.media.0.codec.sample_aspect_ratio">0</property>
  <property name="kdenlive:original.meta.media.0.codec.colorspace">709</property>
  <property name="kdenlive:original.meta.media.0.codec.name">h264</property>
  <property name="kdenlive:original.meta.media.0.codec.long_name">H.264 / AVC / MPEG-4 AVC / MPEG-4 part 10</property>
  <property name="kdenlive:original.meta.media.0.codec.bit_rate">616208</property>
  <property name="kdenlive:original.meta.attr.0.stream.handler_name.markup">VideoHandler</property>
  <property name="kdenlive:original.meta.attr.0.stream.vendor_id.markup">[0][0][0][0]</property>
  <property name="kdenlive:original.meta.attr.major_brand.markup">isom</property>
  <property name="kdenlive:original.meta.attr.minor_version.markup">512</property>
  <property name="kdenlive:original.meta.attr.compatible_brands.markup">isomiso2avc1mp41</property>
  <property name="kdenlive:original.meta.attr.encoder.markup">Lavf58.76.100</property>
  <property name="kdenlive:original.meta.attr.comment.markup">Rendered with Manim Community v0.12.0</property>
  <property name="kdenlive:original.seekable">1</property>
  <property name="kdenlive:original.width">3840</property>
  <property name="kdenlive:original.height">2160</property>
  <property name="kdenlive:original.meta.media.sample_aspect_num">1</property>
  <property name="kdenlive:original.meta.media.sample_aspect_den">1</property>
  <property name="kdenlive:original.aspect_ratio">1</property>
  <property name="kdenlive:original.audio_index">-1</property>
  <property name="kdenlive:original.video_index">0</property>
  <property name="kdenlive:original.mute_on_pause">0</property>
  <property name="kdenlive:original.mlt_service">avformat-novalidate</property>
  <property name="kdenlive:original.kdenlive:folderid">126</property>
  <property name="kdenlive:original.meta.media.frame_rate_num">60</property>
  <property name="kdenlive:original.meta.media.frame_rate_den">1</property>
  <property name="kdenlive:original.meta.media.colorspace">709</property>
  <property name="kdenlive:original.meta.media.color_trc">2</property>
  <property name="kdenlive:original.meta.media.has_b_frames">2</property>
  <property name="kdenlive:original.meta.media.width">3840</property>
  <property name="kdenlive:original.meta.media.height">2160</property>
  <property name="kdenlive:original.meta.media.color_range">mpeg</property>
  <property name="kdenlive:original.kdenlive:id">132</property>
  <property name="kdenlive:original.kdenlive:file_size">78658</property>
  <property name="kdenlive:original.kdenlive:file_hash">4e2ef92b47ef7f56bdc13b35626daef8</property>
  <property name="kdenlive:original.backup">1</property>
  <property name="kdenlive:file_hash">4e2ef92b47ef7f56bdc13b35626daef8</property>
  <property name="meta.media.nb_streams">1</property>
  <property name="meta.media.0.stream.type">video</property>
  <property name="meta.media.0.stream.frame_rate">60</property>
  <property name="meta.media.0.stream.sample_aspect_ratio">0</property>
  <property name="meta.media.0.codec.width">640</property>
  <property name="meta.media.0.codec.height">360</property>
  <property name="meta.media.0.codec.rotate">0</property>
  <property name="meta.media.0.codec.pix_fmt">yuv420p</property>
  <property name="meta.media.0.codec.sample_aspect_ratio">0</property>
  <property name="meta.media.0.codec.colorspace">601</property>
  <property name="meta.media.0.codec.name">h264</property>
  <property name="meta.media.0.codec.long_name">H.264 / AVC / MPEG-4 AVC / MPEG-4 part 10</property>
  <property name="meta.media.0.codec.bit_rate">1750264</property>
  <property name="meta.attr.0.stream.handler_name.markup">VideoHandler</property>
  <property name="meta.attr.0.stream.vendor_id.markup">FFMP</property>
  <property name="meta.attr.0.stream.encoder.markup">Lavc58.134.100 libx264</property>
  <property name="meta.attr.major_brand.markup">qt  </property>
  <property name="meta.attr.minor_version.markup">512</property>
  <property name="meta.attr.compatible_brands.markup">qt  </property>
  <property name="meta.attr.encoder.markup">Lavf58.76.100</property>
  <property name="meta.attr.comment.markup">Rendered with Manim Community v0.12.0</property>
  <property name="meta.media.sample_aspect_num">1</property>
  <property name="meta.media.sample_aspect_den">1</property>
  <property name="meta.media.frame_rate_num">60</property>
  <property name="meta.media.frame_rate_den">1</property>
  <property name="meta.media.colorspace">601</property>
  <property name="meta.media.color_trc">2</property>
  <property name="meta.media.has_b_frames">0</property>
  <property name="meta.media.width">640</property>
  <property name="meta.media.height">360</property>
  <property name="meta.media.color_range">mpeg</property>
 </producer>
 <producer id="producer115" in="00:00:00.000" out="00:00:00.983">
  <property name="length">60</property>
  <property name="eof">pause</property>
  <property name="resource">/home/xiaoxiae/.cache/kdenlive/proxy/c7e0649829666257492dd5c1b970eef9.mov</property>
  <property name="audio_index">-1</property>
  <property name="video_index">0</property>
  <property name="mute_on_pause">0</property>
  <property name="mlt_service">avformat-novalidate</property>
  <property name="seekable">1</property>
  <property name="aspect_ratio">1</property>
  <property name="kdenlive:clipname">15.mp4</property>
  <property name="kdenlive:folderid">126</property>
  <property name="kdenlive:id">132</property>
  <property name="kdenlive:file_size">202896</property>
  <property name="kdenlive:proxy">/home/xiaoxiae/.cache/kdenlive/proxy/c7e0649829666257492dd5c1b970eef9.mov</property>
  <property name="kdenlive:originalurl">video/ComputationalPower/vid/15.mp4</property>
  <property name="kdenlive:original.mlt_type">producer</property>
  <property name="kdenlive:original.in">0</property>
  <property name="kdenlive:original.out">59</property>
  <property name="kdenlive:original.length">60</property>
  <property name="kdenlive:original.eof">pause</property>
  <property name="kdenlive:original.resource">video/ComputationalPower/vid/15.mp4</property>
  <property name="kdenlive:original.meta.media.nb_streams">1</property>
  <property name="kdenlive:original.meta.media.0.stream.type">video</property>
  <property name="kdenlive:original.meta.media.0.stream.frame_rate">60</property>
  <property name="kdenlive:original.meta.media.0.stream.sample_aspect_ratio">0</property>
  <property name="kdenlive:original.meta.media.0.codec.width">3840</property>
  <property name="kdenlive:original.meta.media.0.codec.height">2160</property>
  <property name="kdenlive:original.meta.media.0.codec.rotate">0</property>
  <property name="kdenlive:original.meta.media.0.codec.pix_fmt">yuv420p</property>
  <property name="kdenlive:original.meta.media.0.codec.sample_aspect_ratio">0</property>
  <property name="kdenlive:original.meta.media.0.codec.colorspace">709</property>
  <property name="kdenlive:original.meta.media.0.codec.name">h264</property>
  <property name="kdenlive:original.meta.media.0.codec.long_name">H.264 / AVC / MPEG-4 AVC / MPEG-4 part 10</property>
  <property name="kdenlive:original.meta.media.0.codec.bit_rate">1610176</property>
  <property name="kdenlive:original.meta.attr.0.stream.handler_name.markup">VideoHandler</property>
  <property name="kdenlive:original.meta.attr.0.stream.vendor_id.markup">[0][0][0][0]</property>
  <property name="kdenlive:original.meta.attr.major_brand.markup">isom</property>
  <property name="kdenlive:original.meta.attr.minor_version.markup">512</property>
  <property name="kdenlive:original.meta.attr.compatible_brands.markup">isomiso2avc1mp41</property>
  <property name="kdenlive:original.meta.attr.encoder.markup">Lavf58.76.100</property>
  <property name="kdenlive:original.meta.attr.comment.markup">Rendered with Manim Community v0.12.0</property>
  <property name="kdenlive:original.seekable">1</property>
  <property name="kdenlive:original.width">3840</property>
  <property name="kdenlive:original.height">2160</property>
  <property name="kdenlive:original.meta.media.sample_aspect_num">1</property>
  <property name="kdenlive:original.meta.media.sample_aspect_den">1</property>
  <property name="kdenlive:original.aspect_ratio">1</property>
  <property name="kdenlive:original.audio_index">-1</property>
  <property name="kdenlive:original.video_index">0</property>
  <property name="kdenlive:original.mute_on_pause">0</property>
  <property name="kdenlive:original.mlt_service">avformat-novalidate</property>
  <property name="kdenlive:original.kdenlive:folderid">126</property>
  <property name="kdenlive:original.meta.media.frame_rate_num">60</property>
  <property name="kdenlive:original.meta.media.frame_rate_den">1</property>
  <property name="kdenlive:original.meta.media.colorspace">709</property>
  <property name="kdenlive:original.meta.media.color_trc">2</property>
  <property name="kdenlive:original.meta.media.has_b_frames">2</property>
  <property name="kdenlive:original.meta.media.width">3840</property>
  <property name="kdenlive:original.meta.media.height">2160</property>
  <property name="kdenlive:original.meta.media.color_range">mpeg</property>
  <property name="kdenlive:original.kdenlive:id">133</property>
  <property name="kdenlive:original.kdenlive:file_size">202896</property>
  <property name="kdenlive:original.kdenlive:file_hash">c7e0649829666257492dd5c1b970eef9</property>
  <property name="kdenlive:original.backup">1</property>
  <property name="kdenlive:file_hash">c7e0649829666257492dd5c1b970eef9</property>
  <property name="meta.media.nb_streams">1</property>
  <property name="meta.media.0.stream.type">video</property>
  <property name="meta.media.0.stream.frame_rate">60</property>
  <property name="meta.media.0.stream.sample_aspect_ratio">0</property>
  <property name="meta.media.0.codec.width">640</property>
  <property name="meta.media.0.codec.height">360</property>
  <property name="meta.media.0.codec.rotate">0</property>
  <property name="meta.media.0.codec.pix_fmt">yuv420p</property>
  <property name="meta.media.0.codec.sample_aspect_ratio">0</property>
  <property name="meta.media.0.codec.colorspace">601</property>
  <property name="meta.media.0.codec.name">h264</property>
  <property name="meta.media.0.codec.long_name">H.264 / AVC / MPEG-4 AVC / MPEG-4 part 10</property>
  <property name="meta.media.0.codec.bit_rate">2597120</property>
  <property name="meta.attr.0.stream.handler_name.markup">VideoHandler</property>
  <property name="meta.attr.0.stream.vendor_id.markup">FFMP</property>
  <property name="meta.attr.0.stream.encoder.markup">Lavc58.134.100 libx264</property>
  <property name="meta.attr.major_brand.markup">qt  </property>
  <property name="meta.attr.minor_version.markup">512</property>
  <property name="meta.attr.compatible_brands.markup">qt  </property>
  <property name="meta.attr.encoder.markup">Lavf58.76.100</property>
  <property name="meta.attr.comment.markup">Rendered with Manim Community v0.12.0</property>
  <property name="meta.media.sample_aspect_num">1</property>
  <property name="meta.media.sample_aspect_den">1</property>
  <property name="meta.media.frame_rate_num">60</property>
  <property name="meta.media.frame_rate_den">1</property>
  <property name="meta.media.colorspace">601</property>
  <property name="meta.media.color_trc">2</property>
  <property name="meta.media.has_b_frames">0</property>
  <property name="meta.media.width">640</property>
  <property name="meta.media.height">360</property>
  <property name="meta.media.color_range">mpeg</property>
 </producer>
 <producer id="producer116" in="00:00:00.000" out="00:00:00.983">
  <property name="length">60</property>
  <property name="eof">pause</property>
  <property name="resource">/home/xiaoxiae/.cache/kdenlive/proxy/906908779767ba31a842537e00e47dbe.mov</property>
  <property name="audio_index">-1</property>
  <property name="video_index">0</property>
  <property name="mute_on_pause">0</property>
  <property name="mlt_service">avformat-novalidate</property>
  <property name="seekable">1</property>
  <property name="aspect_ratio">1</property>
  <property name="kdenlive:clipname">2.mp4</property>
  <property name="kdenlive:folderid">126</property>
  <property name="kdenlive:id">133</property>
  <property name="kdenlive:file_size">287672</property>
  <property name="kdenlive:proxy">/home/xiaoxiae/.cache/kdenlive/proxy/906908779767ba31a842537e00e47dbe.mov</property>
  <property name="kdenlive:originalurl">video/ComputationalPower/vid/2.mp4</property>
  <property name="kdenlive:original.mlt_type">producer</property>
  <property name="kdenlive:original.in">0</property>
  <property name="kdenlive:original.out">59</property>
  <property name="kdenlive:original.length">60</property>
  <property name="kdenlive:original.eof">pause</property>
  <property name="kdenlive:original.resource">video/ComputationalPower/vid/2.mp4</property>
  <property name="kdenlive:original.meta.media.nb_streams">1</property>
  <property name="kdenlive:original.meta.media.0.stream.type">video</property>
  <property name="kdenlive:original.meta.media.0.stream.frame_rate">60</property>
  <property name="kdenlive:original.meta.media.0.stream.sample_aspect_ratio">0</property>
  <property name="kdenlive:original.meta.media.0.codec.width">3840</property>
  <property name="kdenlive:original.meta.media.0.codec.height">2160</property>
  <property name="kdenlive:original.meta.media.0.codec.rotate">0</property>
  <property name="kdenlive:original.meta.media.0.codec.pix_fmt">yuv420p</property>
  <property name="kdenlive:original.meta.media.0.codec.sample_aspect_ratio">0</property>
  <property name="kdenlive:original.meta.media.0.codec.colorspace">709</property>
  <property name="kdenlive:original.meta.media.0.codec.name">h264</property>
  <property name="kdenlive:original.meta.media.0.codec.long_name">H.264 / AVC / MPEG-4 AVC / MPEG-4 part 10</property>
  <property name="kdenlive:original.meta.media.0.codec.bit_rate">2288896</property>
  <property name="kdenlive:original.meta.attr.0.stream.handler_name.markup">VideoHandler</property>
  <property name="kdenlive:original.meta.attr.0.stream.vendor_id.markup">[0][0][0][0]</property>
  <property name="kdenlive:original.meta.attr.major_brand.markup">isom</property>
  <property name="kdenlive:original.meta.attr.minor_version.markup">512</property>
  <property name="kdenlive:original.meta.attr.compatible_brands.markup">isomiso2avc1mp41</property>
  <property name="kdenlive:original.meta.attr.encoder.markup">Lavf58.76.100</property>
  <property name="kdenlive:original.meta.attr.comment.markup">Rendered with Manim Community v0.12.0</property>
  <property name="kdenlive:original.seekable">1</property>
  <property name="kdenlive:original.width">3840</property>
  <property name="kdenlive:original.height">2160</property>
  <property name="kdenlive:original.meta.media.sample_aspect_num">1</property>
  <property name="kdenlive:original.meta.media.sample_aspect_den">1</property>
  <property name="kdenlive:original.aspect_ratio">1</property>
  <property name="kdenlive:original.audio_index">-1</property>
  <property name="kdenlive:original.video_index">0</property>
  <property name="kdenlive:original.mute_on_pause">0</property>
  <property name="kdenlive:original.mlt_service">avformat-novalidate</property>
  <property name="kdenlive:original.kdenlive:folderid">126</property>
  <property name="kdenlive:original.meta.media.frame_rate_num">60</property>
  <property name="kdenlive:original.meta.media.frame_rate_den">1</property>
  <property name="kdenlive:original.meta.media.colorspace">709</property>
  <property name="kdenlive:original.meta.media.color_trc">2</property>
  <property name="kdenlive:original.meta.media.has_b_frames">2</property>
  <property name="kdenlive:original.meta.media.width">3840</property>
  <property name="kdenlive:original.meta.media.height">2160</property>
  <property name="kdenlive:original.meta.media.color_range">mpeg</property>
  <property name="kdenlive:original.kdenlive:id">134</property>
  <property name="kdenlive:original.kdenlive:file_size">287672</property>
  <property name="kdenlive:original.kdenlive:file_hash">906908779767ba31a842537e00e47dbe</property>
  <property name="kdenlive:original.backup">1</property>
  <property name="kdenlive:file_hash">906908779767ba31a842537e00e47dbe</property>
  <property name="meta.media.nb_streams">1</property>
  <property name="meta.media.0.stream.type">video</property>
  <property name="meta.media.0.stream.frame_rate">60</property>
  <property name="meta.media.0.stream.sample_aspect_ratio">0</property>
  <property name="meta.media.0.codec.width">640</property>
  <property name="meta.media.0.codec.height">360</property>
  <property name="meta.media.0.codec.rotate">0</property>
  <property name="meta.media.0.codec.pix_fmt">yuv420p</property>
  <property name="meta.media.0.codec.sample_aspect_ratio">0</property>
  <property name="meta.media.0.codec.colorspace">601</property>
  <property name="meta.media.0.codec.name">h264</property>
  <property name="meta.media.0.codec.long_name">H.264 / AVC / MPEG-4 AVC / MPEG-4 part 10</property>
  <property name="meta.media.0.codec.bit_rate">787696</property>
  <property name="meta.attr.0.stream.handler_name.markup">VideoHandler</property>
  <property name="meta.attr.0.stream.vendor_id.markup">FFMP</property>
  <property name="meta.attr.0.stream.encoder.markup">Lavc58.134.100 libx264</property>
  <property name="meta.attr.major_brand.markup">qt  </property>
  <property name="meta.attr.minor_version.markup">512</property>
  <property name="meta.attr.compatible_brands.markup">qt  </property>
  <property name="meta.attr.encoder.markup">Lavf58.76.100</property>
  <property name="meta.attr.comment.markup">Rendered with Manim Community v0.12.0</property>
  <property name="meta.media.sample_aspect_num">1</property>
  <property name="meta.media.sample_aspect_den">1</property>
  <property name="meta.media.frame_rate_num">60</property>
  <property name="meta.media.frame_rate_den">1</property>
  <property name="meta.media.colorspace">601</property>
  <property name="meta.media.color_trc">2</property>
  <property name="meta.media.has_b_frames">0</property>
  <property name="meta.media.width">640</property>
  <property name="meta.media.height">360</property>
  <property name="meta.media.color_range">mpeg</property>
 </producer>
 <producer id="producer117" in="00:00:00.000" out="00:00:00.983">
  <property name="length">60</property>
  <property name="eof">pause</property>
  <property name="resource">/home/xiaoxiae/.cache/kdenlive/proxy/7422dabf97eb3a6ae8e9afffde5dc4d6.mov</property>
  <property name="audio_index">-1</property>
  <property name="video_index">0</property>
  <property name="mute_on_pause">0</property>
  <property name="mlt_service">avformat-novalidate</property>
  <property name="seekable">1</property>
  <property name="aspect_ratio">1</property>
  <property name="kdenlive:clipname">3.mp4</property>
  <property name="kdenlive:folderid">126</property>
  <property name="kdenlive:id">134</property>
  <property name="kdenlive:file_size">73057</property>
  <property name="kdenlive:proxy">/home/xiaoxiae/.cache/kdenlive/proxy/7422dabf97eb3a6ae8e9afffde5dc4d6.mov</property>
  <property name="kdenlive:originalurl">video/ComputationalPower/vid/3.mp4</property>
  <property name="kdenlive:original.mlt_type">producer</property>
  <property name="kdenlive:original.in">0</property>
  <property name="kdenlive:original.out">59</property>
  <property name="kdenlive:original.length">60</property>
  <property name="kdenlive:original.eof">pause</property>
  <property name="kdenlive:original.resource">video/ComputationalPower/vid/3.mp4</property>
  <property name="kdenlive:original.meta.media.nb_streams">1</property>
  <property name="kdenlive:original.meta.media.0.stream.type">video</property>
  <property name="kdenlive:original.meta.media.0.stream.frame_rate">60</property>
  <property name="kdenlive:original.meta.media.0.stream.sample_aspect_ratio">0</property>
  <property name="kdenlive:original.meta.media.0.codec.width">3840</property>
  <property name="kdenlive:original.meta.media.0.codec.height">2160</property>
  <property name="kdenlive:original.meta.media.0.codec.rotate">0</property>
  <property name="kdenlive:original.meta.media.0.codec.pix_fmt">yuv420p</property>
  <property name="kdenlive:original.meta.media.0.codec.sample_aspect_ratio">0</property>
  <property name="kdenlive:original.meta.media.0.codec.colorspace">709</property>
  <property name="kdenlive:original.meta.media.0.codec.name">h264</property>
  <property name="kdenlive:original.meta.media.0.codec.long_name">H.264 / AVC / MPEG-4 AVC / MPEG-4 part 10</property>
  <property name="kdenlive:original.meta.media.0.codec.bit_rate">571400</property>
  <property name="kdenlive:original.meta.attr.0.stream.handler_name.markup">VideoHandler</property>
  <property name="kdenlive:original.meta.attr.0.stream.vendor_id.markup">[0][0][0][0]</property>
  <property name="kdenlive:original.meta.attr.major_brand.markup">isom</property>
  <property name="kdenlive:original.meta.attr.minor_version.markup">512</property>
  <property name="kdenlive:original.meta.attr.compatible_brands.markup">isomiso2avc1mp41</property>
  <property name="kdenlive:original.meta.attr.encoder.markup">Lavf58.76.100</property>
  <property name="kdenlive:original.meta.attr.comment.markup">Rendered with Manim Community v0.12.0</property>
  <property name="kdenlive:original.seekable">1</property>
  <property name="kdenlive:original.width">3840</property>
  <property name="kdenlive:original.height">2160</property>
  <property name="kdenlive:original.meta.media.sample_aspect_num">1</property>
  <property name="kdenlive:original.meta.media.sample_aspect_den">1</property>
  <property name="kdenlive:original.aspect_ratio">1</property>
  <property name="kdenlive:original.audio_index">-1</property>
  <property name="kdenlive:original.video_index">0</property>
  <property name="kdenlive:original.mute_on_pause">0</property>
  <property name="kdenlive:original.mlt_service">avformat-novalidate</property>
  <property name="kdenlive:original.kdenlive:folderid">126</property>
  <property name="kdenlive:original.meta.media.frame_rate_num">60</property>
  <property name="kdenlive:original.meta.media.frame_rate_den">1</property>
  <property name="kdenlive:original.meta.media.colorspace">709</property>
  <property name="kdenlive:original.meta.media.color_trc">2</property>
  <property name="kdenlive:original.meta.media.has_b_frames">2</property>
  <property name="kdenlive:original.meta.media.width">3840</property>
  <property name="kdenlive:original.meta.media.height">2160</property>
  <property name="kdenlive:original.meta.media.color_range">mpeg</property>
  <property name="kdenlive:original.kdenlive:id">135</property>
  <property name="kdenlive:original.kdenlive:file_size">73057</property>
  <property name="kdenlive:original.kdenlive:file_hash">7422dabf97eb3a6ae8e9afffde5dc4d6</property>
  <property name="kdenlive:original.backup">1</property>
  <property name="kdenlive:file_hash">7422dabf97eb3a6ae8e9afffde5dc4d6</property>
  <property name="meta.media.nb_streams">1</property>
  <property name="meta.media.0.stream.type">video</property>
  <property name="meta.media.0.stream.frame_rate">60</property>
  <property name="meta.media.0.stream.sample_aspect_ratio">0</property>
  <property name="meta.media.0.codec.width">640</property>
  <property name="meta.media.0.codec.height">360</property>
  <property name="meta.media.0.codec.rotate">0</property>
  <property name="meta.media.0.codec.pix_fmt">yuv420p</property>
  <property name="meta.media.0.codec.sample_aspect_ratio">0</property>
  <property name="meta.media.0.codec.colorspace">601</property>
  <property name="meta.media.0.codec.name">h264</property>
  <property name="meta.media.0.codec.long_name">H.264 / AVC / MPEG-4 AVC / MPEG-4 part 10</property>
  <property name="meta.media.0.codec.bit_rate">585632</property>
  <property name="meta.attr.0.stream.handler_name.markup">VideoHandler</property>
  <property name="meta.attr.0.stream.vendor_id.markup">FFMP</property>
  <property name="meta.attr.0.stream.encoder.markup">Lavc58.134.100 libx264</property>
  <property name="meta.attr.major_brand.markup">qt  </property>
  <property name="meta.attr.minor_version.markup">512</property>
  <property name="meta.attr.compatible_brands.markup">qt  </property>
  <property name="meta.attr.encoder.markup">Lavf58.76.100</property>
  <property name="meta.attr.comment.markup">Rendered with Manim Community v0.12.0</property>
  <property name="meta.media.sample_aspect_num">1</property>
  <property name="meta.media.sample_aspect_den">1</property>
  <property name="meta.media.frame_rate_num">60</property>
  <property name="meta.media.frame_rate_den">1</property>
  <property name="meta.media.colorspace">601</property>
  <property name="meta.media.color_trc">2</property>
  <property name="meta.media.has_b_frames">0</property>
  <property name="meta.media.width">640</property>
  <property name="meta.media.height">360</property>
  <property name="meta.media.color_range">mpeg</property>
 </producer>
 <producer id="producer118" in="00:00:00.000" out="00:00:00.983">
  <property name="length">60</property>
  <property name="eof">pause</property>
  <property name="resource">/home/xiaoxiae/.cache/kdenlive/proxy/d80589a8199bc211caf84f56f0299f29.mov</property>
  <property name="audio_index">-1</property>
  <property name="video_index">0</property>
  <property name="mute_on_pause">0</property>
  <property name="mlt_service">avformat-novalidate</property>
  <property name="seekable">1</property>
  <property name="aspect_ratio">1</property>
  <property name="kdenlive:clipname">4.mp4</property>
  <property name="kdenlive:folderid">126</property>
  <property name="kdenlive:id">135</property>
  <property name="kdenlive:file_size">132287</property>
  <property name="kdenlive:proxy">/home/xiaoxiae/.cache/kdenlive/proxy/d80589a8199bc211caf84f56f0299f29.mov</property>
  <property name="kdenlive:originalurl">video/ComputationalPower/vid/4.mp4</property>
  <property name="kdenlive:original.mlt_type">producer</property>
  <property name="kdenlive:original.in">0</property>
  <property name="kdenlive:original.out">59</property>
  <property name="kdenlive:original.length">60</property>
  <property name="kdenlive:original.eof">pause</property>
  <property name="kdenlive:original.resource">video/ComputationalPower/vid/4.mp4</property>
  <property name="kdenlive:original.meta.media.nb_streams">1</property>
  <property name="kdenlive:original.meta.media.0.stream.type">video</property>
  <property name="kdenlive:original.meta.media.0.stream.frame_rate">60</property>
  <property name="kdenlive:original.meta.media.0.stream.sample_aspect_ratio">0</property>
  <property name="kdenlive:original.meta.media.0.codec.width">3840</property>
  <property name="kdenlive:original.meta.media.0.codec.height">2160</property>
  <property name="kdenlive:original.meta.media.0.codec.rotate">0</property>
  <property name="kdenlive:original.meta.media.0.codec.pix_fmt">yuv420p</property>
  <property name="kdenlive:original.meta.media.0.codec.sample_aspect_ratio">0</property>
  <property name="kdenlive:original.meta.media.0.codec.colorspace">709</property>
  <property name="kdenlive:original.meta.media.0.codec.name">h264</property>
  <property name="kdenlive:original.meta.media.0.codec.long_name">H.264 / AVC / MPEG-4 AVC / MPEG-4 part 10</property>
  <property name="kdenlive:original.meta.media.0.codec.bit_rate">1045944</property>
  <property name="kdenlive:original.meta.attr.0.stream.handler_name.markup">VideoHandler</property>
  <property name="kdenlive:original.meta.attr.0.stream.vendor_id.markup">[0][0][0][0]</property>
  <property name="kdenlive:original.meta.attr.major_brand.markup">isom</property>
  <property name="kdenlive:original.meta.attr.minor_version.markup">512</property>
  <property name="kdenlive:original.meta.attr.compatible_brands.markup">isomiso2avc1mp41</property>
  <property name="kdenlive:original.meta.attr.encoder.markup">Lavf58.76.100</property>
  <property name="kdenlive:original.meta.attr.comment.markup">Rendered with Manim Community v0.12.0</property>
  <property name="kdenlive:original.seekable">1</property>
  <property name="kdenlive:original.width">3840</property>
  <property name="kdenlive:original.height">2160</property>
  <property name="kdenlive:original.meta.media.sample_aspect_num">1</property>
  <property name="kdenlive:original.meta.media.sample_aspect_den">1</property>
  <property name="kdenlive:original.aspect_ratio">1</property>
  <property name="kdenlive:original.audio_index">-1</property>
  <property name="kdenlive:original.video_index">0</property>
  <property name="kdenlive:original.mute_on_pause">0</property>
  <property name="kdenlive:original.mlt_service">avformat-novalidate</property>
  <property name="kdenlive:original.kdenlive:folderid">126</property>
  <property name="kdenlive:original.meta.media.frame_rate_num">60</property>
  <property name="kdenlive:original.meta.media.frame_rate_den">1</property>
  <property name="kdenlive:original.meta.media.colorspace">709</property>
  <property name="kdenlive:original.meta.media.color_trc">2</property>
  <property name="kdenlive:original.meta.media.has_b_frames">2</property>
  <property name="kdenlive:original.meta.media.width">3840</property>
  <property name="kdenlive:original.meta.media.height">2160</property>
  <property name="kdenlive:original.meta.media.color_range">mpeg</property>
  <property name="kdenlive:original.kdenlive:id">136</property>
  <property name="kdenlive:original.kdenlive:file_size">132287</property>
  <property name="kdenlive:original.kdenlive:file_hash">d80589a8199bc211caf84f56f0299f29</property>
  <property name="kdenlive:original.backup">1</property>
  <property name="kdenlive:file_hash">d80589a8199bc211caf84f56f0299f29</property>
  <property name="meta.media.nb_streams">1</property>
  <property name="meta.media.0.stream.type">video</property>
  <property name="meta.media.0.stream.frame_rate">60</property>
  <property name="meta.media.0.stream.sample_aspect_ratio">0</property>
  <property name="meta.media.0.codec.width">640</property>
  <property name="meta.media.0.codec.height">360</property>
  <property name="meta.media.0.codec.rotate">0</property>
  <property name="meta.media.0.codec.pix_fmt">yuv420p</property>
  <property name="meta.media.0.codec.sample_aspect_ratio">0</property>
  <property name="meta.media.0.codec.colorspace">601</property>
  <property name="meta.media.0.codec.name">h264</property>
  <property name="meta.media.0.codec.long_name">H.264 / AVC / MPEG-4 AVC / MPEG-4 part 10</property>
  <property name="meta.media.0.codec.bit_rate">931544</property>
  <property name="meta.attr.0.stream.handler_name.markup">VideoHandler</property>
  <property name="meta.attr.0.stream.vendor_id.markup">FFMP</property>
  <property name="meta.attr.0.stream.encoder.markup">Lavc58.134.100 libx264</property>
  <property name="meta.attr.major_brand.markup">qt  </property>
  <property name="meta.attr.minor_version.markup">512</property>
  <property name="meta.attr.compatible_brands.markup">qt  </property>
  <property name="meta.attr.encoder.markup">Lavf58.76.100</property>
  <property name="meta.attr.comment.markup">Rendered with Manim Community v0.12.0</property>
  <property name="meta.media.sample_aspect_num">1</property>
  <property name="meta.media.sample_aspect_den">1</property>
  <property name="meta.media.frame_rate_num">60</property>
  <property name="meta.media.frame_rate_den">1</property>
  <property name="meta.media.colorspace">601</property>
  <property name="meta.media.color_trc">2</property>
  <property name="meta.media.has_b_frames">0</property>
  <property name="meta.media.width">640</property>
  <property name="meta.media.height">360</property>
  <property name="meta.media.color_range">mpeg</property>
 </producer>
 <producer id="producer119" in="00:00:00.000" out="00:00:00.983">
  <property name="length">60</property>
  <property name="eof">pause</property>
  <property name="resource">/home/xiaoxiae/.cache/kdenlive/proxy/afe1f0ec41d0a92d7162d4781dd48e1e.mov</property>
  <property name="audio_index">-1</property>
  <property name="video_index">0</property>
  <property name="mute_on_pause">0</property>
  <property name="mlt_service">avformat-novalidate</property>
  <property name="seekable">1</property>
  <property name="aspect_ratio">1</property>
  <property name="kdenlive:clipname">5.mp4</property>
  <property name="kdenlive:folderid">126</property>
  <property name="kdenlive:id">136</property>
  <property name="kdenlive:file_size">57194</property>
  <property name="kdenlive:proxy">/home/xiaoxiae/.cache/kdenlive/proxy/afe1f0ec41d0a92d7162d4781dd48e1e.mov</property>
  <property name="kdenlive:originalurl">video/ComputationalPower/vid/5.mp4</property>
  <property name="kdenlive:original.mlt_type">producer</property>
  <property name="kdenlive:original.in">0</property>
  <property name="kdenlive:original.out">59</property>
  <property name="kdenlive:original.length">60</property>
  <property name="kdenlive:original.eof">pause</property>
  <property name="kdenlive:original.resource">video/ComputationalPower/vid/5.mp4</property>
  <property name="kdenlive:original.meta.media.nb_streams">1</property>
  <property name="kdenlive:original.meta.media.0.stream.type">video</property>
  <property name="kdenlive:original.meta.media.0.stream.frame_rate">60</property>
  <property name="kdenlive:original.meta.media.0.stream.sample_aspect_ratio">0</property>
  <property name="kdenlive:original.meta.media.0.codec.width">3840</property>
  <property name="kdenlive:original.meta.media.0.codec.height">2160</property>
  <property name="kdenlive:original.meta.media.0.codec.rotate">0</property>
  <property name="kdenlive:original.meta.media.0.codec.pix_fmt">yuv420p</property>
  <property name="kdenlive:original.meta.media.0.codec.sample_aspect_ratio">0</property>
  <property name="kdenlive:original.meta.media.0.codec.colorspace">709</property>
  <property name="kdenlive:original.meta.media.0.codec.name">h264</property>
  <property name="kdenlive:original.meta.media.0.codec.long_name">H.264 / AVC / MPEG-4 AVC / MPEG-4 part 10</property>
  <property name="kdenlive:original.meta.media.0.codec.bit_rate">444496</property>
  <property name="kdenlive:original.meta.attr.0.stream.handler_name.markup">VideoHandler</property>
  <property name="kdenlive:original.meta.attr.0.stream.vendor_id.markup">[0][0][0][0]</property>
  <property name="kdenlive:original.meta.attr.major_brand.markup">isom</property>
  <property name="kdenlive:original.meta.attr.minor_version.markup">512</property>
  <property name="kdenlive:original.meta.attr.compatible_brands.markup">isomiso2avc1mp41</property>
  <property name="kdenlive:original.meta.attr.encoder.markup">Lavf58.76.100</property>
  <property name="kdenlive:original.meta.attr.comment.markup">Rendered with Manim Community v0.12.0</property>
  <property name="kdenlive:original.seekable">1</property>
  <property name="kdenlive:original.width">3840</property>
  <property name="kdenlive:original.height">2160</property>
  <property name="kdenlive:original.meta.media.sample_aspect_num">1</property>
  <property name="kdenlive:original.meta.media.sample_aspect_den">1</property>
  <property name="kdenlive:original.aspect_ratio">1</property>
  <property name="kdenlive:original.audio_index">-1</property>
  <property name="kdenlive:original.video_index">0</property>
  <property name="kdenlive:original.mute_on_pause">0</property>
  <property name="kdenlive:original.mlt_service">avformat-novalidate</property>
  <property name="kdenlive:original.kdenlive:folderid">126</property>
  <property name="kdenlive:original.meta.media.frame_rate_num">60</property>
  <property name="kdenlive:original.meta.media.frame_rate_den">1</property>
  <property name="kdenlive:original.meta.media.colorspace">709</property>
  <property name="kdenlive:original.meta.media.color_trc">2</property>
  <property name="kdenlive:original.meta.media.has_b_frames">2</property>
  <property name="kdenlive:original.meta.media.width">3840</property>
  <property name="kdenlive:original.meta.media.height">2160</property>
  <property name="kdenlive:original.meta.media.color_range">mpeg</property>
  <property name="kdenlive:original.kdenlive:id">137</property>
  <property name="kdenlive:original.kdenlive:file_size">57194</property>
  <property name="kdenlive:original.kdenlive:file_hash">afe1f0ec41d0a92d7162d4781dd48e1e</property>
  <property name="kdenlive:original.backup">1</property>
  <property name="kdenlive:file_hash">afe1f0ec41d0a92d7162d4781dd48e1e</property>
  <property name="meta.media.nb_streams">1</property>
  <property name="meta.media.0.stream.type">video</property>
  <property name="meta.media.0.stream.frame_rate">60</property>
  <property name="meta.media.0.stream.sample_aspect_ratio">0</property>
  <property name="meta.media.0.codec.width">640</property>
  <property name="meta.media.0.codec.height">360</property>
  <property name="meta.media.0.codec.rotate">0</property>
  <property name="meta.media.0.codec.pix_fmt">yuv420p</property>
  <property name="meta.media.0.codec.sample_aspect_ratio">0</property>
  <property name="meta.media.0.codec.colorspace">601</property>
  <property name="meta.media.0.codec.name">h264</property>
  <property name="meta.media.0.codec.long_name">H.264 / AVC / MPEG-4 AVC / MPEG-4 part 10</property>
  <property name="meta.media.0.codec.bit_rate">1106424</property>
  <property name="meta.attr.0.stream.handler_name.markup">VideoHandler</property>
  <property name="meta.attr.0.stream.vendor_id.markup">FFMP</property>
  <property name="meta.attr.0.stream.encoder.markup">Lavc58.134.100 libx264</property>
  <property name="meta.attr.major_brand.markup">qt  </property>
  <property name="meta.attr.minor_version.markup">512</property>
  <property name="meta.attr.compatible_brands.markup">qt  </property>
  <property name="meta.attr.encoder.markup">Lavf58.76.100</property>
  <property name="meta.attr.comment.markup">Rendered with Manim Community v0.12.0</property>
  <property name="meta.media.sample_aspect_num">1</property>
  <property name="meta.media.sample_aspect_den">1</property>
  <property name="meta.media.frame_rate_num">60</property>
  <property name="meta.media.frame_rate_den">1</property>
  <property name="meta.media.colorspace">601</property>
  <property name="meta.media.color_trc">2</property>
  <property name="meta.media.has_b_frames">0</property>
  <property name="meta.media.width">640</property>
  <property name="meta.media.height">360</property>
  <property name="meta.media.color_range">mpeg</property>
 </producer>
 <producer id="producer120" in="00:00:00.000" out="00:00:00.983">
  <property name="length">60</property>
  <property name="eof">pause</property>
  <property name="resource">/home/xiaoxiae/.cache/kdenlive/proxy/df69b7c8b75b6687e58836ad054c1df8.mov</property>
  <property name="audio_index">-1</property>
  <property name="video_index">0</property>
  <property name="mute_on_pause">0</property>
  <property name="mlt_service">avformat-novalidate</property>
  <property name="seekable">1</property>
  <property name="aspect_ratio">1</property>
  <property name="kdenlive:clipname">6.mp4</property>
  <property name="kdenlive:folderid">126</property>
  <property name="kdenlive:id">137</property>
  <property name="kdenlive:file_size">73865</property>
  <property name="kdenlive:proxy">/home/xiaoxiae/.cache/kdenlive/proxy/df69b7c8b75b6687e58836ad054c1df8.mov</property>
  <property name="kdenlive:originalurl">video/ComputationalPower/vid/6.mp4</property>
  <property name="kdenlive:original.mlt_type">producer</property>
  <property name="kdenlive:original.in">0</property>
  <property name="kdenlive:original.out">59</property>
  <property name="kdenlive:original.length">60</property>
  <property name="kdenlive:original.eof">pause</property>
  <property name="kdenlive:original.resource">video/ComputationalPower/vid/6.mp4</property>
  <property name="kdenlive:original.meta.media.nb_streams">1</property>
  <property name="kdenlive:original.meta.media.0.stream.type">video</property>
  <property name="kdenlive:original.meta.media.0.stream.frame_rate">60</property>
  <property name="kdenlive:original.meta.media.0.stream.sample_aspect_ratio">0</property>
  <property name="kdenlive:original.meta.media.0.codec.width">3840</property>
  <property name="kdenlive:original.meta.media.0.codec.height">2160</property>
  <property name="kdenlive:original.meta.media.0.codec.rotate">0</property>
  <property name="kdenlive:original.meta.media.0.codec.pix_fmt">yuv420p</property>
  <property name="kdenlive:original.meta.media.0.codec.sample_aspect_ratio">0</property>
  <property name="kdenlive:original.meta.media.0.codec.colorspace">709</property>
  <property name="kdenlive:original.meta.media.0.codec.name">h264</property>
  <property name="kdenlive:original.meta.media.0.codec.long_name">H.264 / AVC / MPEG-4 AVC / MPEG-4 part 10</property>
  <property name="kdenlive:original.meta.media.0.codec.bit_rate">577864</property>
  <property name="kdenlive:original.meta.attr.0.stream.handler_name.markup">VideoHandler</property>
  <property name="kdenlive:original.meta.attr.0.stream.vendor_id.markup">[0][0][0][0]</property>
  <property name="kdenlive:original.meta.attr.major_brand.markup">isom</property>
  <property name="kdenlive:original.meta.attr.minor_version.markup">512</property>
  <property name="kdenlive:original.meta.attr.compatible_brands.markup">isomiso2avc1mp41</property>
  <property name="kdenlive:original.meta.attr.encoder.markup">Lavf58.76.100</property>
  <property name="kdenlive:original.meta.attr.comment.markup">Rendered with Manim Community v0.12.0</property>
  <property name="kdenlive:original.seekable">1</property>
  <property name="kdenlive:original.width">3840</property>
  <property name="kdenlive:original.height">2160</property>
  <property name="kdenlive:original.meta.media.sample_aspect_num">1</property>
  <property name="kdenlive:original.meta.media.sample_aspect_den">1</property>
  <property name="kdenlive:original.aspect_ratio">1</property>
  <property name="kdenlive:original.audio_index">-1</property>
  <property name="kdenlive:original.video_index">0</property>
  <property name="kdenlive:original.mute_on_pause">0</property>
  <property name="kdenlive:original.mlt_service">avformat-novalidate</property>
  <property name="kdenlive:original.kdenlive:folderid">126</property>
  <property name="kdenlive:original.meta.media.frame_rate_num">60</property>
  <property name="kdenlive:original.meta.media.frame_rate_den">1</property>
  <property name="kdenlive:original.meta.media.colorspace">709</property>
  <property name="kdenlive:original.meta.media.color_trc">2</property>
  <property name="kdenlive:original.meta.media.has_b_frames">2</property>
  <property name="kdenlive:original.meta.media.width">3840</property>
  <property name="kdenlive:original.meta.media.height">2160</property>
  <property name="kdenlive:original.meta.media.color_range">mpeg</property>
  <property name="kdenlive:original.kdenlive:id">138</property>
  <property name="kdenlive:original.kdenlive:file_size">73865</property>
  <property name="kdenlive:original.kdenlive:file_hash">df69b7c8b75b6687e58836ad054c1df8</property>
  <property name="kdenlive:original.backup">1</property>
  <property name="kdenlive:file_hash">df69b7c8b75b6687e58836ad054c1df8</property>
  <property name="meta.media.nb_streams">1</property>
  <property name="meta.media.0.stream.type">video</property>
  <property name="meta.media.0.stream.frame_rate">60</property>
  <property name="meta.media.0.stream.sample_aspect_ratio">0</property>
  <property name="meta.media.0.codec.width">640</property>
  <property name="meta.media.0.codec.height">360</property>
  <property name="meta.media.0.codec.rotate">0</property>
  <property name="meta.media.0.codec.pix_fmt">yuv420p</property>
  <property name="meta.media.0.codec.sample_aspect_ratio">0</property>
  <property name="meta.media.0.codec.colorspace">601</property>
  <property name="meta.media.0.codec.name">h264</property>
  <property name="meta.media.0.codec.long_name">H.264 / AVC / MPEG-4 AVC / MPEG-4 part 10</property>
  <property name="meta.media.0.codec.bit_rate">1181040</property>
  <property name="meta.attr.0.stream.handler_name.markup">VideoHandler</property>
  <property name="meta.attr.0.stream.vendor_id.markup">FFMP</property>
  <property name="meta.attr.0.stream.encoder.markup">Lavc58.134.100 libx264</property>
  <property name="meta.attr.major_brand.markup">qt  </property>
  <property name="meta.attr.minor_version.markup">512</property>
  <property name="meta.attr.compatible_brands.markup">qt  </property>
  <property name="meta.attr.encoder.markup">Lavf58.76.100</property>
  <property name="meta.attr.comment.markup">Rendered with Manim Community v0.12.0</property>
  <property name="meta.media.sample_aspect_num">1</property>
  <property name="meta.media.sample_aspect_den">1</property>
  <property name="meta.media.frame_rate_num">60</property>
  <property name="meta.media.frame_rate_den">1</property>
  <property name="meta.media.colorspace">601</property>
  <property name="meta.media.color_trc">2</property>
  <property name="meta.media.has_b_frames">0</property>
  <property name="meta.media.width">640</property>
  <property name="meta.media.height">360</property>
  <property name="meta.media.color_range">mpeg</property>
 </producer>
 <producer id="producer121" in="00:00:00.000" out="00:00:01.483">
  <property name="length">90</property>
  <property name="eof">pause</property>
  <property name="resource">/home/xiaoxiae/.cache/kdenlive/proxy/0c1eb3d0043bd5d158d958d6da4e4d5c.mov</property>
  <property name="audio_index">-1</property>
  <property name="video_index">0</property>
  <property name="mute_on_pause">0</property>
  <property name="mlt_service">avformat-novalidate</property>
  <property name="seekable">1</property>
  <property name="aspect_ratio">1</property>
  <property name="kdenlive:clipname">7.mp4</property>
  <property name="kdenlive:folderid">126</property>
  <property name="kdenlive:id">138</property>
  <property name="kdenlive:file_size">179730</property>
  <property name="kdenlive:proxy">/home/xiaoxiae/.cache/kdenlive/proxy/0c1eb3d0043bd5d158d958d6da4e4d5c.mov</property>
  <property name="kdenlive:originalurl">video/ComputationalPower/vid/7.mp4</property>
  <property name="kdenlive:original.mlt_type">producer</property>
  <property name="kdenlive:original.in">0</property>
  <property name="kdenlive:original.out">89</property>
  <property name="kdenlive:original.length">90</property>
  <property name="kdenlive:original.eof">pause</property>
  <property name="kdenlive:original.resource">video/ComputationalPower/vid/7.mp4</property>
  <property name="kdenlive:original.meta.media.nb_streams">1</property>
  <property name="kdenlive:original.meta.media.0.stream.type">video</property>
  <property name="kdenlive:original.meta.media.0.stream.frame_rate">60</property>
  <property name="kdenlive:original.meta.media.0.stream.sample_aspect_ratio">0</property>
  <property name="kdenlive:original.meta.media.0.codec.width">3840</property>
  <property name="kdenlive:original.meta.media.0.codec.height">2160</property>
  <property name="kdenlive:original.meta.media.0.codec.rotate">0</property>
  <property name="kdenlive:original.meta.media.0.codec.pix_fmt">yuv420p</property>
  <property name="kdenlive:original.meta.media.0.codec.sample_aspect_ratio">0</property>
  <property name="kdenlive:original.meta.media.0.codec.colorspace">709</property>
  <property name="kdenlive:original.meta.media.0.codec.name">h264</property>
  <property name="kdenlive:original.meta.media.0.codec.long_name">H.264 / AVC / MPEG-4 AVC / MPEG-4 part 10</property>
  <property name="kdenlive:original.meta.media.0.codec.bit_rate">947978</property>
  <property name="kdenlive:original.meta.attr.0.stream.handler_name.markup">VideoHandler</property>
  <property name="kdenlive:original.meta.attr.0.stream.vendor_id.markup">[0][0][0][0]</property>
  <property name="kdenlive:original.meta.attr.major_brand.markup">isom</property>
  <property name="kdenlive:original.meta.attr.minor_version.markup">512</property>
  <property name="kdenlive:original.meta.attr.compatible_brands.markup">isomiso2avc1mp41</property>
  <property name="kdenlive:original.meta.attr.encoder.markup">Lavf58.76.100</property>
  <property name="kdenlive:original.meta.attr.comment.markup">Rendered with Manim Community v0.12.0</property>
  <property name="kdenlive:original.seekable">1</property>
  <property name="kdenlive:original.width">3840</property>
  <property name="kdenlive:original.height">2160</property>
  <property name="kdenlive:original.meta.media.sample_aspect_num">1</property>
  <property name="kdenlive:original.meta.media.sample_aspect_den">1</property>
  <property name="kdenlive:original.aspect_ratio">1</property>
  <property name="kdenlive:original.audio_index">-1</property>
  <property name="kdenlive:original.video_index">0</property>
  <property name="kdenlive:original.mute_on_pause">0</property>
  <property name="kdenlive:original.mlt_service">avformat-novalidate</property>
  <property name="kdenlive:original.kdenlive:folderid">126</property>
  <property name="kdenlive:original.meta.media.frame_rate_num">60</property>
  <property name="kdenlive:original.meta.media.frame_rate_den">1</property>
  <property name="kdenlive:original.meta.media.colorspace">709</property>
  <property name="kdenlive:original.meta.media.color_trc">2</property>
  <property name="kdenlive:original.meta.media.has_b_frames">2</property>
  <property name="kdenlive:original.meta.media.width">3840</property>
  <property name="kdenlive:original.meta.media.height">2160</property>
  <property name="kdenlive:original.meta.media.color_range">mpeg</property>
  <property name="kdenlive:original.kdenlive:id">139</property>
  <property name="kdenlive:original.kdenlive:file_size">179730</property>
  <property name="kdenlive:original.kdenlive:file_hash">0c1eb3d0043bd5d158d958d6da4e4d5c</property>
  <property name="kdenlive:original.backup">1</property>
  <property name="kdenlive:file_hash">0c1eb3d0043bd5d158d958d6da4e4d5c</property>
  <property name="meta.media.nb_streams">1</property>
  <property name="meta.media.0.stream.type">video</property>
  <property name="meta.media.0.stream.frame_rate">60</property>
  <property name="meta.media.0.stream.sample_aspect_ratio">0</property>
  <property name="meta.media.0.codec.width">640</property>
  <property name="meta.media.0.codec.height">360</property>
  <property name="meta.media.0.codec.rotate">0</property>
  <property name="meta.media.0.codec.pix_fmt">yuv420p</property>
  <property name="meta.media.0.codec.sample_aspect_ratio">0</property>
  <property name="meta.media.0.codec.colorspace">601</property>
  <property name="meta.media.0.codec.name">h264</property>
  <property name="meta.media.0.codec.long_name">H.264 / AVC / MPEG-4 AVC / MPEG-4 part 10</property>
  <property name="meta.media.0.codec.bit_rate">1352864</property>
  <property name="meta.attr.0.stream.handler_name.markup">VideoHandler</property>
  <property name="meta.attr.0.stream.vendor_id.markup">FFMP</property>
  <property name="meta.attr.0.stream.encoder.markup">Lavc58.134.100 libx264</property>
  <property name="meta.attr.major_brand.markup">qt  </property>
  <property name="meta.attr.minor_version.markup">512</property>
  <property name="meta.attr.compatible_brands.markup">qt  </property>
  <property name="meta.attr.encoder.markup">Lavf58.76.100</property>
  <property name="meta.attr.comment.markup">Rendered with Manim Community v0.12.0</property>
  <property name="meta.media.sample_aspect_num">1</property>
  <property name="meta.media.sample_aspect_den">1</property>
  <property name="meta.media.frame_rate_num">60</property>
  <property name="meta.media.frame_rate_den">1</property>
  <property name="meta.media.colorspace">601</property>
  <property name="meta.media.color_trc">2</property>
  <property name="meta.media.has_b_frames">0</property>
  <property name="meta.media.width">640</property>
  <property name="meta.media.height">360</property>
  <property name="meta.media.color_range">mpeg</property>
 </producer>
 <producer id="producer122" in="00:00:00.000" out="00:00:00.983">
  <property name="length">60</property>
  <property name="eof">pause</property>
  <property name="resource">/home/xiaoxiae/.cache/kdenlive/proxy/24448f6ccbb33935e2248fb7113a7522.mov</property>
  <property name="audio_index">-1</property>
  <property name="video_index">0</property>
  <property name="mute_on_pause">0</property>
  <property name="mlt_service">avformat-novalidate</property>
  <property name="seekable">1</property>
  <property name="aspect_ratio">1</property>
  <property name="kdenlive:clipname">8.mp4</property>
  <property name="kdenlive:folderid">126</property>
  <property name="kdenlive:id">139</property>
  <property name="kdenlive:file_size">79900</property>
  <property name="kdenlive:proxy">/home/xiaoxiae/.cache/kdenlive/proxy/24448f6ccbb33935e2248fb7113a7522.mov</property>
  <property name="kdenlive:originalurl">video/ComputationalPower/vid/8.mp4</property>
  <property name="kdenlive:original.mlt_type">producer</property>
  <property name="kdenlive:original.in">0</property>
  <property name="kdenlive:original.out">59</property>
  <property name="kdenlive:original.length">60</property>
  <property name="kdenlive:original.eof">pause</property>
  <property name="kdenlive:original.resource">video/ComputationalPower/vid/8.mp4</property>
  <property name="kdenlive:original.meta.media.nb_streams">1</property>
  <property name="kdenlive:original.meta.media.0.stream.type">video</property>
  <property name="kdenlive:original.meta.media.0.stream.frame_rate">60</property>
  <property name="kdenlive:original.meta.media.0.stream.sample_aspect_ratio">0</property>
  <property name="kdenlive:original.meta.media.0.codec.width">3840</property>
  <property name="kdenlive:original.meta.media.0.codec.height">2160</property>
  <property name="kdenlive:original.meta.media.0.codec.rotate">0</property>
  <property name="kdenlive:original.meta.media.0.codec.pix_fmt">yuv420p</property>
  <property name="kdenlive:original.meta.media.0.codec.sample_aspect_ratio">0</property>
  <property name="kdenlive:original.meta.media.0.codec.colorspace">709</property>
  <property name="kdenlive:original.meta.media.0.codec.name">h264</property>
  <property name="kdenlive:original.meta.media.0.codec.long_name">H.264 / AVC / MPEG-4 AVC / MPEG-4 part 10</property>
  <property name="kdenlive:original.meta.media.0.codec.bit_rate">626144</property>
  <property name="kdenlive:original.meta.attr.0.stream.handler_name.markup">VideoHandler</property>
  <property name="kdenlive:original.meta.attr.0.stream.vendor_id.markup">[0][0][0][0]</property>
  <property name="kdenlive:original.meta.attr.major_brand.markup">isom</property>
  <property name="kdenlive:original.meta.attr.minor_version.markup">512</property>
  <property name="kdenlive:original.meta.attr.compatible_brands.markup">isomiso2avc1mp41</property>
  <property name="kdenlive:original.meta.attr.encoder.markup">Lavf58.76.100</property>
  <property name="kdenlive:original.meta.attr.comment.markup">Rendered with Manim Community v0.12.0</property>
  <property name="kdenlive:original.seekable">1</property>
  <property name="kdenlive:original.width">3840</property>
  <property name="kdenlive:original.height">2160</property>
  <property name="kdenlive:original.meta.media.sample_aspect_num">1</property>
  <property name="kdenlive:original.meta.media.sample_aspect_den">1</property>
  <property name="kdenlive:original.aspect_ratio">1</property>
  <property name="kdenlive:original.audio_index">-1</property>
  <property name="kdenlive:original.video_index">0</property>
  <property name="kdenlive:original.mute_on_pause">0</property>
  <property name="kdenlive:original.mlt_service">avformat-novalidate</property>
  <property name="kdenlive:original.kdenlive:folderid">126</property>
  <property name="kdenlive:original.meta.media.frame_rate_num">60</property>
  <property name="kdenlive:original.meta.media.frame_rate_den">1</property>
  <property name="kdenlive:original.meta.media.colorspace">709</property>
  <property name="kdenlive:original.meta.media.color_trc">2</property>
  <property name="kdenlive:original.meta.media.has_b_frames">2</property>
  <property name="kdenlive:original.meta.media.width">3840</property>
  <property name="kdenlive:original.meta.media.height">2160</property>
  <property name="kdenlive:original.meta.media.color_range">mpeg</property>
  <property name="kdenlive:original.kdenlive:id">140</property>
  <property name="kdenlive:original.kdenlive:file_size">79900</property>
  <property name="kdenlive:original.kdenlive:file_hash">24448f6ccbb33935e2248fb7113a7522</property>
  <property name="kdenlive:original.backup">1</property>
  <property name="kdenlive:file_hash">24448f6ccbb33935e2248fb7113a7522</property>
  <property name="meta.media.nb_streams">1</property>
  <property name="meta.media.0.stream.type">video</property>
  <property name="meta.media.0.stream.frame_rate">60</property>
  <property name="meta.media.0.stream.sample_aspect_ratio">0</property>
  <property name="meta.media.0.codec.width">640</property>
  <property name="meta.media.0.codec.height">360</property>
  <property name="meta.media.0.codec.rotate">0</property>
  <property name="meta.media.0.codec.pix_fmt">yuv420p</property>
  <property name="meta.media.0.codec.sample_aspect_ratio">0</property>
  <property name="meta.media.0.codec.colorspace">601</property>
  <property name="meta.media.0.codec.name">h264</property>
  <property name="meta.media.0.codec.long_name">H.264 / AVC / MPEG-4 AVC / MPEG-4 part 10</property>
  <property name="meta.media.0.codec.bit_rate">1529280</property>
  <property name="meta.attr.0.stream.handler_name.markup">VideoHandler</property>
  <property name="meta.attr.0.stream.vendor_id.markup">FFMP</property>
  <property name="meta.attr.0.stream.encoder.markup">Lavc58.134.100 libx264</property>
  <property name="meta.attr.major_brand.markup">qt  </property>
  <property name="meta.attr.minor_version.markup">512</property>
  <property name="meta.attr.compatible_brands.markup">qt  </property>
  <property name="meta.attr.encoder.markup">Lavf58.76.100</property>
  <property name="meta.attr.comment.markup">Rendered with Manim Community v0.12.0</property>
  <property name="meta.media.sample_aspect_num">1</property>
  <property name="meta.media.sample_aspect_den">1</property>
  <property name="meta.media.frame_rate_num">60</property>
  <property name="meta.media.frame_rate_den">1</property>
  <property name="meta.media.colorspace">601</property>
  <property name="meta.media.color_trc">2</property>
  <property name="meta.media.has_b_frames">0</property>
  <property name="meta.media.width">640</property>
  <property name="meta.media.height">360</property>
  <property name="meta.media.color_range">mpeg</property>
 </producer>
 <producer id="producer123" in="00:00:00.000" out="00:00:00.983">
  <property name="length">60</property>
  <property name="eof">pause</property>
  <property name="resource">/home/xiaoxiae/.cache/kdenlive/proxy/065e428ec35232d07f7f6986f337965b.mov</property>
  <property name="audio_index">-1</property>
  <property name="video_index">0</property>
  <property name="mute_on_pause">0</property>
  <property name="mlt_service">avformat-novalidate</property>
  <property name="seekable">1</property>
  <property name="aspect_ratio">1</property>
  <property name="kdenlive:clipname">9.mp4</property>
  <property name="kdenlive:folderid">126</property>
  <property name="kdenlive:id">140</property>
  <property name="kdenlive:file_size">145255</property>
  <property name="kdenlive:proxy">/home/xiaoxiae/.cache/kdenlive/proxy/065e428ec35232d07f7f6986f337965b.mov</property>
  <property name="kdenlive:originalurl">video/ComputationalPower/vid/9.mp4</property>
  <property name="kdenlive:original.mlt_type">producer</property>
  <property name="kdenlive:original.in">0</property>
  <property name="kdenlive:original.out">59</property>
  <property name="kdenlive:original.length">60</property>
  <property name="kdenlive:original.eof">pause</property>
  <property name="kdenlive:original.resource">video/ComputationalPower/vid/9.mp4</property>
  <property name="kdenlive:original.meta.media.nb_streams">1</property>
  <property name="kdenlive:original.meta.media.0.stream.type">video</property>
  <property name="kdenlive:original.meta.media.0.stream.frame_rate">60</property>
  <property name="kdenlive:original.meta.media.0.stream.sample_aspect_ratio">0</property>
  <property name="kdenlive:original.meta.media.0.codec.width">3840</property>
  <property name="kdenlive:original.meta.media.0.codec.height">2160</property>
  <property name="kdenlive:original.meta.media.0.codec.rotate">0</property>
  <property name="kdenlive:original.meta.media.0.codec.pix_fmt">yuv420p</property>
  <property name="kdenlive:original.meta.media.0.codec.sample_aspect_ratio">0</property>
  <property name="kdenlive:original.meta.media.0.codec.colorspace">709</property>
  <property name="kdenlive:original.meta.media.0.codec.name">h264</property>
  <property name="kdenlive:original.meta.media.0.codec.long_name">H.264 / AVC / MPEG-4 AVC / MPEG-4 part 10</property>
  <property name="kdenlive:original.meta.media.0.codec.bit_rate">1148920</property>
  <property name="kdenlive:original.meta.attr.0.stream.handler_name.markup">VideoHandler</property>
  <property name="kdenlive:original.meta.attr.0.stream.vendor_id.markup">[0][0][0][0]</property>
  <property name="kdenlive:original.meta.attr.major_brand.markup">isom</property>
  <property name="kdenlive:original.meta.attr.minor_version.markup">512</property>
  <property name="kdenlive:original.meta.attr.compatible_brands.markup">isomiso2avc1mp41</property>
  <property name="kdenlive:original.meta.attr.encoder.markup">Lavf58.76.100</property>
  <property name="kdenlive:original.meta.attr.comment.markup">Rendered with Manim Community v0.12.0</property>
  <property name="kdenlive:original.seekable">1</property>
  <property name="kdenlive:original.width">3840</property>
  <property name="kdenlive:original.height">2160</property>
  <property name="kdenlive:original.meta.media.sample_aspect_num">1</property>
  <property name="kdenlive:original.meta.media.sample_aspect_den">1</property>
  <property name="kdenlive:original.aspect_ratio">1</property>
  <property name="kdenlive:original.audio_index">-1</property>
  <property name="kdenlive:original.video_index">0</property>
  <property name="kdenlive:original.mute_on_pause">0</property>
  <property name="kdenlive:original.mlt_service">avformat-novalidate</property>
  <property name="kdenlive:original.kdenlive:folderid">126</property>
  <property name="kdenlive:original.meta.media.frame_rate_num">60</property>
  <property name="kdenlive:original.meta.media.frame_rate_den">1</property>
  <property name="kdenlive:original.meta.media.colorspace">709</property>
  <property name="kdenlive:original.meta.media.color_trc">2</property>
  <property name="kdenlive:original.meta.media.has_b_frames">2</property>
  <property name="kdenlive:original.meta.media.width">3840</property>
  <property name="kdenlive:original.meta.media.height">2160</property>
  <property name="kdenlive:original.meta.media.color_range">mpeg</property>
  <property name="kdenlive:original.kdenlive:id">141</property>
  <property name="kdenlive:original.kdenlive:file_size">145255</property>
  <property name="kdenlive:original.kdenlive:file_hash">065e428ec35232d07f7f6986f337965b</property>
  <property name="kdenlive:original.backup">1</property>
  <property name="kdenlive:file_hash">065e428ec35232d07f7f6986f337965b</property>
  <property name="meta.media.nb_streams">1</property>
  <property name="meta.media.0.stream.type">video</property>
  <property name="meta.media.0.stream.frame_rate">60</property>
  <property name="meta.media.0.stream.sample_aspect_ratio">0</property>
  <property name="meta.media.0.codec.width">640</property>
  <property name="meta.media.0.codec.height">360</property>
  <property name="meta.media.0.codec.rotate">0</property>
  <property name="meta.media.0.codec.pix_fmt">yuv420p</property>
  <property name="meta.media.0.codec.sample_aspect_ratio">0</property>
  <property name="meta.media.0.codec.colorspace">601</property>
  <property name="meta.media.0.codec.name">h264</property>
  <property name="meta.media.0.codec.long_name">H.264 / AVC / MPEG-4 AVC / MPEG-4 part 10</property>
  <property name="meta.media.0.codec.bit_rate">1570168</property>
  <property name="meta.attr.0.stream.handler_name.markup">VideoHandler</property>
  <property name="meta.attr.0.stream.vendor_id.markup">FFMP</property>
  <property name="meta.attr.0.stream.encoder.markup">Lavc58.134.100 libx264</property>
  <property name="meta.attr.major_brand.markup">qt  </property>
  <property name="meta.attr.minor_version.markup">512</property>
  <property name="meta.attr.compatible_brands.markup">qt  </property>
  <property name="meta.attr.encoder.markup">Lavf58.76.100</property>
  <property name="meta.attr.comment.markup">Rendered with Manim Community v0.12.0</property>
  <property name="meta.media.sample_aspect_num">1</property>
  <property name="meta.media.sample_aspect_den">1</property>
  <property name="meta.media.frame_rate_num">60</property>
  <property name="meta.media.frame_rate_den">1</property>
  <property name="meta.media.colorspace">601</property>
  <property name="meta.media.color_trc">2</property>
  <property name="meta.media.has_b_frames">0</property>
  <property name="meta.media.width">640</property>
  <property name="meta.media.height">360</property>
  <property name="meta.media.color_range">mpeg</property>
 </producer>
 <producer id="producer124" in="00:00:00.000" out="00:00:04.983">
  <property name="length">00:00:05.000</property>
  <property name="eof">pause</property>
  <property name="resource">/home/xiaoxiae/.cache/kdenlive/proxy/6b665121ca7b54a5f5307b69451fd23c.png</property>
  <property name="ttl">25</property>
  <property name="aspect_ratio">1</property>
  <property name="progressive">1</property>
  <property name="seekable">1</property>
  <property name="meta.media.width">800</property>
  <property name="meta.media.height">450</property>
  <property name="mlt_service">qimage</property>
  <property name="kdenlive:clipname">1.png</property>
  <property name="kdenlive:duration">00:00:05.000</property>
  <property name="kdenlive:folderid">143</property>
  <property name="kdenlive:id">141</property>
  <property name="kdenlive:file_size">24337</property>
  <property name="kdenlive:proxy">/home/xiaoxiae/.cache/kdenlive/proxy/6b665121ca7b54a5f5307b69451fd23c.png</property>
  <property name="kdenlive:originalurl">video/Motivation/img/1.png</property>
  <property name="kdenlive:original.mlt_type">producer</property>
  <property name="kdenlive:original.in">0</property>
  <property name="kdenlive:original.out">299</property>
  <property name="kdenlive:original.length">00:00:05.000</property>
  <property name="kdenlive:original.eof">pause</property>
  <property name="kdenlive:original.resource">video/Motivation/img/1.png</property>
  <property name="kdenlive:original.ttl">25</property>
  <property name="kdenlive:original.aspect_ratio">1</property>
  <property name="kdenlive:original.progressive">1</property>
  <property name="kdenlive:original.seekable">1</property>
  <property name="kdenlive:original.meta.media.width">3840</property>
  <property name="kdenlive:original.meta.media.height">2160</property>
  <property name="kdenlive:original.mlt_service">qimage</property>
  <property name="kdenlive:original.kdenlive:duration">00:00:05.000</property>
  <property name="kdenlive:original.kdenlive:folderid">143</property>
  <property name="kdenlive:original.kdenlive:id">144</property>
  <property name="kdenlive:original.kdenlive:file_size">24337</property>
  <property name="kdenlive:original.kdenlive:file_hash">6b665121ca7b54a5f5307b69451fd23c</property>
  <property name="kdenlive:original.backup">1</property>
  <property name="kdenlive:file_hash">6b665121ca7b54a5f5307b69451fd23c</property>
 </producer>
 <producer id="producer125" in="00:00:00.000" out="00:00:04.983">
  <property name="length">00:00:05.000</property>
  <property name="eof">pause</property>
  <property name="resource">/home/xiaoxiae/.cache/kdenlive/proxy/411d87612c310308e9a86d40d33c3a11.png</property>
  <property name="ttl">25</property>
  <property name="aspect_ratio">1</property>
  <property name="progressive">1</property>
  <property name="seekable">1</property>
  <property name="meta.media.width">800</property>
  <property name="meta.media.height">450</property>
  <property name="mlt_service">qimage</property>
  <property name="kdenlive:clipname">10.png</property>
  <property name="kdenlive:duration">00:00:05.000</property>
  <property name="kdenlive:folderid">143</property>
  <property name="kdenlive:id">144</property>
  <property name="kdenlive:file_size">76720</property>
  <property name="kdenlive:proxy">/home/xiaoxiae/.cache/kdenlive/proxy/411d87612c310308e9a86d40d33c3a11.png</property>
  <property name="kdenlive:originalurl">video/Motivation/img/10.png</property>
  <property name="kdenlive:original.mlt_type">producer</property>
  <property name="kdenlive:original.in">0</property>
  <property name="kdenlive:original.out">299</property>
  <property name="kdenlive:original.length">00:00:05.000</property>
  <property name="kdenlive:original.eof">pause</property>
  <property name="kdenlive:original.resource">video/Motivation/img/10.png</property>
  <property name="kdenlive:original.ttl">25</property>
  <property name="kdenlive:original.aspect_ratio">1</property>
  <property name="kdenlive:original.progressive">1</property>
  <property name="kdenlive:original.seekable">1</property>
  <property name="kdenlive:original.meta.media.width">3840</property>
  <property name="kdenlive:original.meta.media.height">2160</property>
  <property name="kdenlive:original.mlt_service">qimage</property>
  <property name="kdenlive:original.kdenlive:duration">00:00:05.000</property>
  <property name="kdenlive:original.kdenlive:folderid">143</property>
  <property name="kdenlive:original.kdenlive:id">145</property>
  <property name="kdenlive:original.kdenlive:file_size">76720</property>
  <property name="kdenlive:original.kdenlive:file_hash">411d87612c310308e9a86d40d33c3a11</property>
  <property name="kdenlive:original.backup">1</property>
  <property name="kdenlive:file_hash">411d87612c310308e9a86d40d33c3a11</property>
 </producer>
 <producer id="producer126" in="00:00:00.000" out="00:00:04.983">
  <property name="length">00:00:05.000</property>
  <property name="eof">pause</property>
  <property name="resource">/home/xiaoxiae/.cache/kdenlive/proxy/f9a6991718deb9ba1bb992b3e5976f84.png</property>
  <property name="ttl">25</property>
  <property name="aspect_ratio">1</property>
  <property name="progressive">1</property>
  <property name="seekable">1</property>
  <property name="meta.media.width">800</property>
  <property name="meta.media.height">450</property>
  <property name="mlt_service">qimage</property>
  <property name="kdenlive:clipname">11.png</property>
  <property name="kdenlive:duration">00:00:05.000</property>
  <property name="kdenlive:folderid">143</property>
  <property name="kdenlive:id">145</property>
  <property name="kdenlive:file_size">44357</property>
  <property name="kdenlive:proxy">/home/xiaoxiae/.cache/kdenlive/proxy/f9a6991718deb9ba1bb992b3e5976f84.png</property>
  <property name="kdenlive:originalurl">video/Motivation/img/11.png</property>
  <property name="kdenlive:original.mlt_type">producer</property>
  <property name="kdenlive:original.in">0</property>
  <property name="kdenlive:original.out">299</property>
  <property name="kdenlive:original.length">00:00:05.000</property>
  <property name="kdenlive:original.eof">pause</property>
  <property name="kdenlive:original.resource">video/Motivation/img/11.png</property>
  <property name="kdenlive:original.ttl">25</property>
  <property name="kdenlive:original.aspect_ratio">1</property>
  <property name="kdenlive:original.progressive">1</property>
  <property name="kdenlive:original.seekable">1</property>
  <property name="kdenlive:original.meta.media.width">3840</property>
  <property name="kdenlive:original.meta.media.height">2160</property>
  <property name="kdenlive:original.mlt_service">qimage</property>
  <property name="kdenlive:original.kdenlive:duration">00:00:05.000</property>
  <property name="kdenlive:original.kdenlive:folderid">143</property>
  <property name="kdenlive:original.kdenlive:id">146</property>
  <property name="kdenlive:original.kdenlive:file_size">44357</property>
  <property name="kdenlive:original.kdenlive:file_hash">f9a6991718deb9ba1bb992b3e5976f84</property>
  <property name="kdenlive:original.backup">1</property>
  <property name="kdenlive:file_hash">f9a6991718deb9ba1bb992b3e5976f84</property>
 </producer>
 <producer id="producer127" in="00:00:00.000" out="00:00:04.983">
  <property name="length">00:00:05.000</property>
  <property name="eof">pause</property>
  <property name="resource">/home/xiaoxiae/.cache/kdenlive/proxy/e0961a2900a2003407a18d9c7b260d65.png</property>
  <property name="ttl">25</property>
  <property name="aspect_ratio">1</property>
  <property name="progressive">1</property>
  <property name="seekable">1</property>
  <property name="meta.media.width">800</property>
  <property name="meta.media.height">450</property>
  <property name="mlt_service">qimage</property>
  <property name="kdenlive:clipname">12.png</property>
  <property name="kdenlive:duration">00:00:05.000</property>
  <property name="kdenlive:folderid">143</property>
  <property name="kdenlive:id">146</property>
  <property name="kdenlive:file_size">143925</property>
  <property name="kdenlive:proxy">/home/xiaoxiae/.cache/kdenlive/proxy/e0961a2900a2003407a18d9c7b260d65.png</property>
  <property name="kdenlive:originalurl">video/Motivation/img/12.png</property>
  <property name="kdenlive:original.mlt_type">producer</property>
  <property name="kdenlive:original.in">0</property>
  <property name="kdenlive:original.out">299</property>
  <property name="kdenlive:original.length">00:00:05.000</property>
  <property name="kdenlive:original.eof">pause</property>
  <property name="kdenlive:original.resource">video/Motivation/img/12.png</property>
  <property name="kdenlive:original.ttl">25</property>
  <property name="kdenlive:original.aspect_ratio">1</property>
  <property name="kdenlive:original.progressive">1</property>
  <property name="kdenlive:original.seekable">1</property>
  <property name="kdenlive:original.meta.media.width">3840</property>
  <property name="kdenlive:original.meta.media.height">2160</property>
  <property name="kdenlive:original.mlt_service">qimage</property>
  <property name="kdenlive:original.kdenlive:duration">00:00:05.000</property>
  <property name="kdenlive:original.kdenlive:folderid">143</property>
  <property name="kdenlive:original.kdenlive:id">147</property>
  <property name="kdenlive:original.kdenlive:file_size">143925</property>
  <property name="kdenlive:original.kdenlive:file_hash">e0961a2900a2003407a18d9c7b260d65</property>
  <property name="kdenlive:original.backup">1</property>
  <property name="kdenlive:file_hash">e0961a2900a2003407a18d9c7b260d65</property>
 </producer>
 <producer id="producer128" in="00:00:00.000" out="00:00:04.983">
  <property name="length">00:00:05.000</property>
  <property name="eof">pause</property>
  <property name="resource">/home/xiaoxiae/.cache/kdenlive/proxy/6abff64e095ba7fb8e03568b4cda28b3.png</property>
  <property name="ttl">25</property>
  <property name="aspect_ratio">1</property>
  <property name="progressive">1</property>
  <property name="seekable">1</property>
  <property name="meta.media.width">800</property>
  <property name="meta.media.height">450</property>
  <property name="mlt_service">qimage</property>
  <property name="kdenlive:clipname">13.png</property>
  <property name="kdenlive:duration">00:00:05.000</property>
  <property name="kdenlive:folderid">143</property>
  <property name="kdenlive:id">147</property>
  <property name="kdenlive:file_size">228362</property>
  <property name="kdenlive:proxy">/home/xiaoxiae/.cache/kdenlive/proxy/6abff64e095ba7fb8e03568b4cda28b3.png</property>
  <property name="kdenlive:originalurl">video/Motivation/img/13.png</property>
  <property name="kdenlive:original.mlt_type">producer</property>
  <property name="kdenlive:original.in">0</property>
  <property name="kdenlive:original.out">299</property>
  <property name="kdenlive:original.length">00:00:05.000</property>
  <property name="kdenlive:original.eof">pause</property>
  <property name="kdenlive:original.resource">video/Motivation/img/13.png</property>
  <property name="kdenlive:original.ttl">25</property>
  <property name="kdenlive:original.aspect_ratio">1</property>
  <property name="kdenlive:original.progressive">1</property>
  <property name="kdenlive:original.seekable">1</property>
  <property name="kdenlive:original.meta.media.width">3840</property>
  <property name="kdenlive:original.meta.media.height">2160</property>
  <property name="kdenlive:original.mlt_service">qimage</property>
  <property name="kdenlive:original.kdenlive:duration">00:00:05.000</property>
  <property name="kdenlive:original.kdenlive:folderid">143</property>
  <property name="kdenlive:original.kdenlive:id">148</property>
  <property name="kdenlive:original.kdenlive:file_size">228362</property>
  <property name="kdenlive:original.kdenlive:file_hash">6abff64e095ba7fb8e03568b4cda28b3</property>
  <property name="kdenlive:original.backup">1</property>
  <property name="kdenlive:file_hash">6abff64e095ba7fb8e03568b4cda28b3</property>
 </producer>
 <producer id="producer129" in="00:00:00.000" out="00:00:04.983">
  <property name="length">00:00:05.000</property>
  <property name="eof">pause</property>
  <property name="resource">/home/xiaoxiae/.cache/kdenlive/proxy/dd70dc88ff9d04ed140a823fde16e651.png</property>
  <property name="ttl">25</property>
  <property name="aspect_ratio">1</property>
  <property name="progressive">1</property>
  <property name="seekable">1</property>
  <property name="meta.media.width">800</property>
  <property name="meta.media.height">450</property>
  <property name="mlt_service">qimage</property>
  <property name="kdenlive:clipname">14.png</property>
  <property name="kdenlive:duration">00:00:05.000</property>
  <property name="kdenlive:folderid">143</property>
  <property name="kdenlive:id">148</property>
  <property name="kdenlive:file_size">645456</property>
  <property name="kdenlive:proxy">/home/xiaoxiae/.cache/kdenlive/proxy/dd70dc88ff9d04ed140a823fde16e651.png</property>
  <property name="kdenlive:originalurl">video/Motivation/img/14.png</property>
  <property name="kdenlive:original.mlt_type">producer</property>
  <property name="kdenlive:original.in">0</property>
  <property name="kdenlive:original.out">299</property>
  <property name="kdenlive:original.length">00:00:05.000</property>
  <property name="kdenlive:original.eof">pause</property>
  <property name="kdenlive:original.resource">video/Motivation/img/14.png</property>
  <property name="kdenlive:original.ttl">25</property>
  <property name="kdenlive:original.aspect_ratio">1</property>
  <property name="kdenlive:original.progressive">1</property>
  <property name="kdenlive:original.seekable">1</property>
  <property name="kdenlive:original.meta.media.width">3840</property>
  <property name="kdenlive:original.meta.media.height">2160</property>
  <property name="kdenlive:original.mlt_service">qimage</property>
  <property name="kdenlive:original.kdenlive:duration">00:00:05.000</property>
  <property name="kdenlive:original.kdenlive:folderid">143</property>
  <property name="kdenlive:original.kdenlive:id">149</property>
  <property name="kdenlive:original.kdenlive:file_size">645456</property>
  <property name="kdenlive:original.kdenlive:file_hash">dd70dc88ff9d04ed140a823fde16e651</property>
  <property name="kdenlive:original.backup">1</property>
  <property name="kdenlive:file_hash">dd70dc88ff9d04ed140a823fde16e651</property>
 </producer>
 <producer id="producer130" in="00:00:00.000" out="00:00:04.983">
  <property name="length">00:00:05.000</property>
  <property name="eof">pause</property>
  <property name="resource">/home/xiaoxiae/.cache/kdenlive/proxy/74da4ab20a42f927115b55be4f36eedd.png</property>
  <property name="ttl">25</property>
  <property name="aspect_ratio">1</property>
  <property name="progressive">1</property>
  <property name="seekable">1</property>
  <property name="meta.media.width">800</property>
  <property name="meta.media.height">450</property>
  <property name="mlt_service">qimage</property>
  <property name="kdenlive:clipname">15.png</property>
  <property name="kdenlive:duration">00:00:05.000</property>
  <property name="kdenlive:folderid">143</property>
  <property name="kdenlive:id">149</property>
  <property name="kdenlive:file_size">640720</property>
  <property name="kdenlive:proxy">/home/xiaoxiae/.cache/kdenlive/proxy/74da4ab20a42f927115b55be4f36eedd.png</property>
  <property name="kdenlive:originalurl">video/Motivation/img/15.png</property>
  <property name="kdenlive:original.mlt_type">producer</property>
  <property name="kdenlive:original.in">0</property>
  <property name="kdenlive:original.out">299</property>
  <property name="kdenlive:original.length">00:00:05.000</property>
  <property name="kdenlive:original.eof">pause</property>
  <property name="kdenlive:original.resource">video/Motivation/img/15.png</property>
  <property name="kdenlive:original.ttl">25</property>
  <property name="kdenlive:original.aspect_ratio">1</property>
  <property name="kdenlive:original.progressive">1</property>
  <property name="kdenlive:original.seekable">1</property>
  <property name="kdenlive:original.meta.media.width">3840</property>
  <property name="kdenlive:original.meta.media.height">2160</property>
  <property name="kdenlive:original.mlt_service">qimage</property>
  <property name="kdenlive:original.kdenlive:duration">00:00:05.000</property>
  <property name="kdenlive:original.kdenlive:folderid">143</property>
  <property name="kdenlive:original.kdenlive:id">150</property>
  <property name="kdenlive:original.kdenlive:file_size">640720</property>
  <property name="kdenlive:original.kdenlive:file_hash">74da4ab20a42f927115b55be4f36eedd</property>
  <property name="kdenlive:original.backup">1</property>
  <property name="kdenlive:file_hash">74da4ab20a42f927115b55be4f36eedd</property>
 </producer>
 <producer id="producer131" in="00:00:00.000" out="00:00:04.983">
  <property name="length">00:00:05.000</property>
  <property name="eof">pause</property>
  <property name="resource">/home/xiaoxiae/.cache/kdenlive/proxy/fd14a66be5c8b0b1de79baf945b0de77.png</property>
  <property name="ttl">25</property>
  <property name="aspect_ratio">1</property>
  <property name="progressive">1</property>
  <property name="seekable">1</property>
  <property name="meta.media.width">800</property>
  <property name="meta.media.height">450</property>
  <property name="mlt_service">qimage</property>
  <property name="kdenlive:clipname">16.png</property>
  <property name="kdenlive:duration">00:00:05.000</property>
  <property name="kdenlive:folderid">143</property>
  <property name="kdenlive:id">150</property>
  <property name="kdenlive:file_size">686357</property>
  <property name="kdenlive:proxy">/home/xiaoxiae/.cache/kdenlive/proxy/fd14a66be5c8b0b1de79baf945b0de77.png</property>
  <property name="kdenlive:originalurl">video/Motivation/img/16.png</property>
  <property name="kdenlive:original.mlt_type">producer</property>
  <property name="kdenlive:original.in">0</property>
  <property name="kdenlive:original.out">299</property>
  <property name="kdenlive:original.length">00:00:05.000</property>
  <property name="kdenlive:original.eof">pause</property>
  <property name="kdenlive:original.resource">video/Motivation/img/16.png</property>
  <property name="kdenlive:original.ttl">25</property>
  <property name="kdenlive:original.aspect_ratio">1</property>
  <property name="kdenlive:original.progressive">1</property>
  <property name="kdenlive:original.seekable">1</property>
  <property name="kdenlive:original.meta.media.width">3840</property>
  <property name="kdenlive:original.meta.media.height">2160</property>
  <property name="kdenlive:original.mlt_service">qimage</property>
  <property name="kdenlive:original.kdenlive:duration">00:00:05.000</property>
  <property name="kdenlive:original.kdenlive:folderid">143</property>
  <property name="kdenlive:original.kdenlive:id">151</property>
  <property name="kdenlive:original.kdenlive:file_size">686357</property>
  <property name="kdenlive:original.kdenlive:file_hash">fd14a66be5c8b0b1de79baf945b0de77</property>
  <property name="kdenlive:original.backup">1</property>
  <property name="kdenlive:file_hash">fd14a66be5c8b0b1de79baf945b0de77</property>
 </producer>
 <producer id="producer132" in="00:00:00.000" out="00:00:04.983">
  <property name="length">00:00:05.000</property>
  <property name="eof">pause</property>
  <property name="resource">/home/xiaoxiae/.cache/kdenlive/proxy/a1808835b53b3f0b621bb27fdb5677fc.png</property>
  <property name="ttl">25</property>
  <property name="aspect_ratio">1</property>
  <property name="progressive">1</property>
  <property name="seekable">1</property>
  <property name="meta.media.width">800</property>
  <property name="meta.media.height">450</property>
  <property name="mlt_service">qimage</property>
  <property name="kdenlive:clipname">17.png</property>
  <property name="kdenlive:duration">00:00:05.000</property>
  <property name="kdenlive:folderid">143</property>
  <property name="kdenlive:id">151</property>
  <property name="kdenlive:file_size">76119</property>
  <property name="kdenlive:proxy">/home/xiaoxiae/.cache/kdenlive/proxy/a1808835b53b3f0b621bb27fdb5677fc.png</property>
  <property name="kdenlive:originalurl">video/Motivation/img/17.png</property>
  <property name="kdenlive:original.mlt_type">producer</property>
  <property name="kdenlive:original.in">0</property>
  <property name="kdenlive:original.out">299</property>
  <property name="kdenlive:original.length">00:00:05.000</property>
  <property name="kdenlive:original.eof">pause</property>
  <property name="kdenlive:original.resource">video/Motivation/img/17.png</property>
  <property name="kdenlive:original.ttl">25</property>
  <property name="kdenlive:original.aspect_ratio">1</property>
  <property name="kdenlive:original.progressive">1</property>
  <property name="kdenlive:original.seekable">1</property>
  <property name="kdenlive:original.meta.media.width">3840</property>
  <property name="kdenlive:original.meta.media.height">2160</property>
  <property name="kdenlive:original.mlt_service">qimage</property>
  <property name="kdenlive:original.kdenlive:duration">00:00:05.000</property>
  <property name="kdenlive:original.kdenlive:folderid">143</property>
  <property name="kdenlive:original.kdenlive:id">152</property>
  <property name="kdenlive:original.kdenlive:file_size">76119</property>
  <property name="kdenlive:original.kdenlive:file_hash">a1808835b53b3f0b621bb27fdb5677fc</property>
  <property name="kdenlive:original.backup">1</property>
  <property name="kdenlive:file_hash">a1808835b53b3f0b621bb27fdb5677fc</property>
 </producer>
 <producer id="producer133" in="00:00:00.000" out="00:00:04.983">
  <property name="length">00:00:05.000</property>
  <property name="eof">pause</property>
  <property name="resource">/home/xiaoxiae/.cache/kdenlive/proxy/fab0b31ce5e081b0f7a445adbaf3170a.png</property>
  <property name="ttl">25</property>
  <property name="aspect_ratio">1</property>
  <property name="progressive">1</property>
  <property name="seekable">1</property>
  <property name="meta.media.width">800</property>
  <property name="meta.media.height">450</property>
  <property name="mlt_service">qimage</property>
  <property name="kdenlive:clipname">18.png</property>
  <property name="kdenlive:duration">00:00:05.000</property>
  <property name="kdenlive:folderid">143</property>
  <property name="kdenlive:id">152</property>
  <property name="kdenlive:file_size">166675</property>
  <property name="kdenlive:proxy">/home/xiaoxiae/.cache/kdenlive/proxy/fab0b31ce5e081b0f7a445adbaf3170a.png</property>
  <property name="kdenlive:originalurl">video/Motivation/img/18.png</property>
  <property name="kdenlive:original.mlt_type">producer</property>
  <property name="kdenlive:original.in">0</property>
  <property name="kdenlive:original.out">299</property>
  <property name="kdenlive:original.length">00:00:05.000</property>
  <property name="kdenlive:original.eof">pause</property>
  <property name="kdenlive:original.resource">video/Motivation/img/18.png</property>
  <property name="kdenlive:original.ttl">25</property>
  <property name="kdenlive:original.aspect_ratio">1</property>
  <property name="kdenlive:original.progressive">1</property>
  <property name="kdenlive:original.seekable">1</property>
  <property name="kdenlive:original.meta.media.width">3840</property>
  <property name="kdenlive:original.meta.media.height">2160</property>
  <property name="kdenlive:original.mlt_service">qimage</property>
  <property name="kdenlive:original.kdenlive:duration">00:00:05.000</property>
  <property name="kdenlive:original.kdenlive:folderid">143</property>
  <property name="kdenlive:original.kdenlive:id">153</property>
  <property name="kdenlive:original.kdenlive:file_size">166675</property>
  <property name="kdenlive:original.kdenlive:file_hash">fab0b31ce5e081b0f7a445adbaf3170a</property>
  <property name="kdenlive:original.backup">1</property>
  <property name="kdenlive:file_hash">fab0b31ce5e081b0f7a445adbaf3170a</property>
 </producer>
 <producer id="producer134" in="00:00:00.000" out="00:00:05.017">
  <property name="length">00:00:05.033</property>
  <property name="eof">pause</property>
  <property name="resource">/home/xiaoxiae/.cache/kdenlive/proxy/e898358cc34bb74141eac453c4ba7068.png</property>
  <property name="ttl">25</property>
  <property name="aspect_ratio">1</property>
  <property name="progressive">1</property>
  <property name="seekable">1</property>
  <property name="meta.media.width">800</property>
  <property name="meta.media.height">450</property>
  <property name="mlt_service">qimage</property>
  <property name="kdenlive:clipname">19.png</property>
  <property name="kdenlive:duration">00:00:05.000</property>
  <property name="kdenlive:folderid">143</property>
  <property name="kdenlive:id">153</property>
  <property name="kdenlive:file_size">178192</property>
  <property name="kdenlive:proxy">/home/xiaoxiae/.cache/kdenlive/proxy/e898358cc34bb74141eac453c4ba7068.png</property>
  <property name="kdenlive:originalurl">video/Motivation/img/19.png</property>
  <property name="kdenlive:original.mlt_type">producer</property>
  <property name="kdenlive:original.in">0</property>
  <property name="kdenlive:original.out">299</property>
  <property name="kdenlive:original.length">00:00:05.000</property>
  <property name="kdenlive:original.eof">pause</property>
  <property name="kdenlive:original.resource">video/Motivation/img/19.png</property>
  <property name="kdenlive:original.ttl">25</property>
  <property name="kdenlive:original.aspect_ratio">1</property>
  <property name="kdenlive:original.progressive">1</property>
  <property name="kdenlive:original.seekable">1</property>
  <property name="kdenlive:original.meta.media.width">3840</property>
  <property name="kdenlive:original.meta.media.height">2160</property>
  <property name="kdenlive:original.mlt_service">qimage</property>
  <property name="kdenlive:original.kdenlive:duration">00:00:05.000</property>
  <property name="kdenlive:original.kdenlive:folderid">143</property>
  <property name="kdenlive:original.kdenlive:id">154</property>
  <property name="kdenlive:original.kdenlive:file_size">178192</property>
  <property name="kdenlive:original.kdenlive:file_hash">e898358cc34bb74141eac453c4ba7068</property>
  <property name="kdenlive:original.backup">1</property>
  <property name="kdenlive:file_hash">e898358cc34bb74141eac453c4ba7068</property>
 </producer>
 <producer id="producer135" in="00:00:00.000" out="00:00:04.983">
  <property name="length">00:00:05.000</property>
  <property name="eof">pause</property>
  <property name="resource">/home/xiaoxiae/.cache/kdenlive/proxy/d5c32829130b610c46a4281f757e6f9e.png</property>
  <property name="ttl">25</property>
  <property name="aspect_ratio">1</property>
  <property name="progressive">1</property>
  <property name="seekable">1</property>
  <property name="meta.media.width">800</property>
  <property name="meta.media.height">450</property>
  <property name="mlt_service">qimage</property>
  <property name="kdenlive:clipname">2.png</property>
  <property name="kdenlive:duration">00:00:05.000</property>
  <property name="kdenlive:folderid">143</property>
  <property name="kdenlive:id">154</property>
  <property name="kdenlive:file_size">368580</property>
  <property name="kdenlive:proxy">/home/xiaoxiae/.cache/kdenlive/proxy/d5c32829130b610c46a4281f757e6f9e.png</property>
  <property name="kdenlive:originalurl">video/Motivation/img/2.png</property>
  <property name="kdenlive:original.mlt_type">producer</property>
  <property name="kdenlive:original.in">0</property>
  <property name="kdenlive:original.out">299</property>
  <property name="kdenlive:original.length">00:00:05.000</property>
  <property name="kdenlive:original.eof">pause</property>
  <property name="kdenlive:original.resource">video/Motivation/img/2.png</property>
  <property name="kdenlive:original.ttl">25</property>
  <property name="kdenlive:original.aspect_ratio">1</property>
  <property name="kdenlive:original.progressive">1</property>
  <property name="kdenlive:original.seekable">1</property>
  <property name="kdenlive:original.meta.media.width">3840</property>
  <property name="kdenlive:original.meta.media.height">2160</property>
  <property name="kdenlive:original.mlt_service">qimage</property>
  <property name="kdenlive:original.kdenlive:duration">00:00:05.000</property>
  <property name="kdenlive:original.kdenlive:folderid">143</property>
  <property name="kdenlive:original.kdenlive:id">155</property>
  <property name="kdenlive:original.kdenlive:file_size">368580</property>
  <property name="kdenlive:original.kdenlive:file_hash">d5c32829130b610c46a4281f757e6f9e</property>
  <property name="kdenlive:original.backup">1</property>
  <property name="kdenlive:file_hash">d5c32829130b610c46a4281f757e6f9e</property>
 </producer>
 <producer id="producer136" in="00:00:00.000" out="00:00:04.983">
  <property name="length">00:00:05.000</property>
  <property name="eof">pause</property>
  <property name="resource">/home/xiaoxiae/.cache/kdenlive/proxy/f333fce1db0c19dc9339ab734f716514.png</property>
  <property name="ttl">25</property>
  <property name="aspect_ratio">1</property>
  <property name="progressive">1</property>
  <property name="seekable">1</property>
  <property name="meta.media.width">800</property>
  <property name="meta.media.height">450</property>
  <property name="mlt_service">qimage</property>
  <property name="kdenlive:clipname">20.png</property>
  <property name="kdenlive:duration">00:00:05.000</property>
  <property name="kdenlive:folderid">143</property>
  <property name="kdenlive:id">155</property>
  <property name="kdenlive:file_size">175516</property>
  <property name="kdenlive:proxy">/home/xiaoxiae/.cache/kdenlive/proxy/f333fce1db0c19dc9339ab734f716514.png</property>
  <property name="kdenlive:originalurl">video/Motivation/img/20.png</property>
  <property name="kdenlive:original.mlt_type">producer</property>
  <property name="kdenlive:original.in">0</property>
  <property name="kdenlive:original.out">299</property>
  <property name="kdenlive:original.length">00:00:05.000</property>
  <property name="kdenlive:original.eof">pause</property>
  <property name="kdenlive:original.resource">video/Motivation/img/20.png</property>
  <property name="kdenlive:original.ttl">25</property>
  <property name="kdenlive:original.aspect_ratio">1</property>
  <property name="kdenlive:original.progressive">1</property>
  <property name="kdenlive:original.seekable">1</property>
  <property name="kdenlive:original.meta.media.width">3840</property>
  <property name="kdenlive:original.meta.media.height">2160</property>
  <property name="kdenlive:original.mlt_service">qimage</property>
  <property name="kdenlive:original.kdenlive:duration">00:00:05.000</property>
  <property name="kdenlive:original.kdenlive:folderid">143</property>
  <property name="kdenlive:original.kdenlive:id">156</property>
  <property name="kdenlive:original.kdenlive:file_size">175516</property>
  <property name="kdenlive:original.kdenlive:file_hash">f333fce1db0c19dc9339ab734f716514</property>
  <property name="kdenlive:original.backup">1</property>
  <property name="kdenlive:file_hash">f333fce1db0c19dc9339ab734f716514</property>
 </producer>
 <producer id="producer137" in="00:00:00.000" out="00:00:04.983">
  <property name="length">00:00:05.000</property>
  <property name="eof">pause</property>
  <property name="resource">/home/xiaoxiae/.cache/kdenlive/proxy/6c62c5341b6310cb0a187f0902631109.png</property>
  <property name="ttl">25</property>
  <property name="aspect_ratio">1</property>
  <property name="progressive">1</property>
  <property name="seekable">1</property>
  <property name="meta.media.width">800</property>
  <property name="meta.media.height">450</property>
  <property name="mlt_service">qimage</property>
  <property name="kdenlive:clipname">21.png</property>
  <property name="kdenlive:duration">00:00:05.000</property>
  <property name="kdenlive:folderid">143</property>
  <property name="kdenlive:id">156</property>
  <property name="kdenlive:file_size">331102</property>
  <property name="kdenlive:proxy">/home/xiaoxiae/.cache/kdenlive/proxy/6c62c5341b6310cb0a187f0902631109.png</property>
  <property name="kdenlive:originalurl">video/Motivation/img/21.png</property>
  <property name="kdenlive:original.mlt_type">producer</property>
  <property name="kdenlive:original.in">0</property>
  <property name="kdenlive:original.out">299</property>
  <property name="kdenlive:original.length">00:00:05.000</property>
  <property name="kdenlive:original.eof">pause</property>
  <property name="kdenlive:original.resource">video/Motivation/img/21.png</property>
  <property name="kdenlive:original.ttl">25</property>
  <property name="kdenlive:original.aspect_ratio">1</property>
  <property name="kdenlive:original.progressive">1</property>
  <property name="kdenlive:original.seekable">1</property>
  <property name="kdenlive:original.meta.media.width">3840</property>
  <property name="kdenlive:original.meta.media.height">2160</property>
  <property name="kdenlive:original.mlt_service">qimage</property>
  <property name="kdenlive:original.kdenlive:duration">00:00:05.000</property>
  <property name="kdenlive:original.kdenlive:folderid">143</property>
  <property name="kdenlive:original.kdenlive:id">157</property>
  <property name="kdenlive:original.kdenlive:file_size">331102</property>
  <property name="kdenlive:original.kdenlive:file_hash">6c62c5341b6310cb0a187f0902631109</property>
  <property name="kdenlive:original.backup">1</property>
  <property name="kdenlive:file_hash">6c62c5341b6310cb0a187f0902631109</property>
 </producer>
 <producer id="producer138" in="00:00:00.000" out="00:00:04.983">
  <property name="length">00:00:05.000</property>
  <property name="eof">pause</property>
  <property name="resource">/home/xiaoxiae/.cache/kdenlive/proxy/4d393a39cd6e0fb1d1881483facad980.png</property>
  <property name="ttl">25</property>
  <property name="aspect_ratio">1</property>
  <property name="progressive">1</property>
  <property name="seekable">1</property>
  <property name="meta.media.width">800</property>
  <property name="meta.media.height">450</property>
  <property name="mlt_service">qimage</property>
  <property name="kdenlive:clipname">22.png</property>
  <property name="kdenlive:duration">00:00:05.000</property>
  <property name="kdenlive:folderid">143</property>
  <property name="kdenlive:id">157</property>
  <property name="kdenlive:file_size">359918</property>
  <property name="kdenlive:proxy">/home/xiaoxiae/.cache/kdenlive/proxy/4d393a39cd6e0fb1d1881483facad980.png</property>
  <property name="kdenlive:originalurl">video/Motivation/img/22.png</property>
  <property name="kdenlive:original.mlt_type">producer</property>
  <property name="kdenlive:original.in">0</property>
  <property name="kdenlive:original.out">299</property>
  <property name="kdenlive:original.length">00:00:05.000</property>
  <property name="kdenlive:original.eof">pause</property>
  <property name="kdenlive:original.resource">video/Motivation/img/22.png</property>
  <property name="kdenlive:original.ttl">25</property>
  <property name="kdenlive:original.aspect_ratio">1</property>
  <property name="kdenlive:original.progressive">1</property>
  <property name="kdenlive:original.seekable">1</property>
  <property name="kdenlive:original.meta.media.width">3840</property>
  <property name="kdenlive:original.meta.media.height">2160</property>
  <property name="kdenlive:original.mlt_service">qimage</property>
  <property name="kdenlive:original.kdenlive:duration">00:00:05.000</property>
  <property name="kdenlive:original.kdenlive:folderid">143</property>
  <property name="kdenlive:original.kdenlive:id">158</property>
  <property name="kdenlive:original.kdenlive:file_size">359918</property>
  <property name="kdenlive:original.kdenlive:file_hash">4d393a39cd6e0fb1d1881483facad980</property>
  <property name="kdenlive:original.backup">1</property>
  <property name="kdenlive:file_hash">4d393a39cd6e0fb1d1881483facad980</property>
 </producer>
 <producer id="producer139" in="00:00:00.000" out="00:00:04.983">
  <property name="length">00:00:05.000</property>
  <property name="eof">pause</property>
  <property name="resource">/home/xiaoxiae/.cache/kdenlive/proxy/6e6b93898e24275ed12af1b3fefb6b1d.png</property>
  <property name="ttl">25</property>
  <property name="aspect_ratio">1</property>
  <property name="progressive">1</property>
  <property name="seekable">1</property>
  <property name="meta.media.width">800</property>
  <property name="meta.media.height">450</property>
  <property name="mlt_service">qimage</property>
  <property name="kdenlive:clipname">23.png</property>
  <property name="kdenlive:duration">00:00:05.000</property>
  <property name="kdenlive:folderid">143</property>
  <property name="kdenlive:id">158</property>
  <property name="kdenlive:file_size">367784</property>
  <property name="kdenlive:proxy">/home/xiaoxiae/.cache/kdenlive/proxy/6e6b93898e24275ed12af1b3fefb6b1d.png</property>
  <property name="kdenlive:originalurl">video/Motivation/img/23.png</property>
  <property name="kdenlive:original.mlt_type">producer</property>
  <property name="kdenlive:original.in">0</property>
  <property name="kdenlive:original.out">299</property>
  <property name="kdenlive:original.length">00:00:05.000</property>
  <property name="kdenlive:original.eof">pause</property>
  <property name="kdenlive:original.resource">video/Motivation/img/23.png</property>
  <property name="kdenlive:original.ttl">25</property>
  <property name="kdenlive:original.aspect_ratio">1</property>
  <property name="kdenlive:original.progressive">1</property>
  <property name="kdenlive:original.seekable">1</property>
  <property name="kdenlive:original.meta.media.width">3840</property>
  <property name="kdenlive:original.meta.media.height">2160</property>
  <property name="kdenlive:original.mlt_service">qimage</property>
  <property name="kdenlive:original.kdenlive:duration">00:00:05.000</property>
  <property name="kdenlive:original.kdenlive:folderid">143</property>
  <property name="kdenlive:original.kdenlive:id">159</property>
  <property name="kdenlive:original.kdenlive:file_size">367784</property>
  <property name="kdenlive:original.kdenlive:file_hash">6e6b93898e24275ed12af1b3fefb6b1d</property>
  <property name="kdenlive:original.backup">1</property>
  <property name="kdenlive:file_hash">6e6b93898e24275ed12af1b3fefb6b1d</property>
 </producer>
 <producer id="producer140" in="00:00:00.000" out="00:00:04.983">
  <property name="length">00:00:05.000</property>
  <property name="eof">pause</property>
  <property name="resource">/home/xiaoxiae/.cache/kdenlive/proxy/9f315653dbb28564fb3492e90df1a7e5.png</property>
  <property name="ttl">25</property>
  <property name="aspect_ratio">1</property>
  <property name="progressive">1</property>
  <property name="seekable">1</property>
  <property name="meta.media.width">800</property>
  <property name="meta.media.height">450</property>
  <property name="mlt_service">qimage</property>
  <property name="kdenlive:clipname">24.png</property>
  <property name="kdenlive:duration">00:00:05.000</property>
  <property name="kdenlive:folderid">143</property>
  <property name="kdenlive:id">159</property>
  <property name="kdenlive:file_size">331777</property>
  <property name="kdenlive:proxy">/home/xiaoxiae/.cache/kdenlive/proxy/9f315653dbb28564fb3492e90df1a7e5.png</property>
  <property name="kdenlive:originalurl">video/Motivation/img/24.png</property>
  <property name="kdenlive:original.mlt_type">producer</property>
  <property name="kdenlive:original.in">0</property>
  <property name="kdenlive:original.out">299</property>
  <property name="kdenlive:original.length">00:00:05.000</property>
  <property name="kdenlive:original.eof">pause</property>
  <property name="kdenlive:original.resource">video/Motivation/img/24.png</property>
  <property name="kdenlive:original.ttl">25</property>
  <property name="kdenlive:original.aspect_ratio">1</property>
  <property name="kdenlive:original.progressive">1</property>
  <property name="kdenlive:original.seekable">1</property>
  <property name="kdenlive:original.meta.media.width">3840</property>
  <property name="kdenlive:original.meta.media.height">2160</property>
  <property name="kdenlive:original.mlt_service">qimage</property>
  <property name="kdenlive:original.kdenlive:duration">00:00:05.000</property>
  <property name="kdenlive:original.kdenlive:folderid">143</property>
  <property name="kdenlive:original.kdenlive:id">160</property>
  <property name="kdenlive:original.kdenlive:file_size">331777</property>
  <property name="kdenlive:original.kdenlive:file_hash">9f315653dbb28564fb3492e90df1a7e5</property>
  <property name="kdenlive:original.backup">1</property>
  <property name="kdenlive:file_hash">9f315653dbb28564fb3492e90df1a7e5</property>
 </producer>
 <producer id="producer141" in="00:00:00.000" out="00:00:04.983">
  <property name="length">00:00:05.000</property>
  <property name="eof">pause</property>
  <property name="resource">/home/xiaoxiae/.cache/kdenlive/proxy/6a0ac394a3a6be6e36398be8f9cfdde2.png</property>
  <property name="ttl">25</property>
  <property name="aspect_ratio">1</property>
  <property name="progressive">1</property>
  <property name="seekable">1</property>
  <property name="meta.media.width">800</property>
  <property name="meta.media.height">450</property>
  <property name="mlt_service">qimage</property>
  <property name="kdenlive:clipname">25.png</property>
  <property name="kdenlive:duration">00:00:05.000</property>
  <property name="kdenlive:folderid">143</property>
  <property name="kdenlive:id">160</property>
  <property name="kdenlive:file_size">795966</property>
  <property name="kdenlive:proxy">/home/xiaoxiae/.cache/kdenlive/proxy/6a0ac394a3a6be6e36398be8f9cfdde2.png</property>
  <property name="kdenlive:originalurl">video/Motivation/img/25.png</property>
  <property name="kdenlive:original.mlt_type">producer</property>
  <property name="kdenlive:original.in">0</property>
  <property name="kdenlive:original.out">299</property>
  <property name="kdenlive:original.length">00:00:05.000</property>
  <property name="kdenlive:original.eof">pause</property>
  <property name="kdenlive:original.resource">video/Motivation/img/25.png</property>
  <property name="kdenlive:original.ttl">25</property>
  <property name="kdenlive:original.aspect_ratio">1</property>
  <property name="kdenlive:original.progressive">1</property>
  <property name="kdenlive:original.seekable">1</property>
  <property name="kdenlive:original.meta.media.width">3840</property>
  <property name="kdenlive:original.meta.media.height">2160</property>
  <property name="kdenlive:original.mlt_service">qimage</property>
  <property name="kdenlive:original.kdenlive:duration">00:00:05.000</property>
  <property name="kdenlive:original.kdenlive:folderid">143</property>
  <property name="kdenlive:original.kdenlive:id">161</property>
  <property name="kdenlive:original.kdenlive:file_size">795966</property>
  <property name="kdenlive:original.kdenlive:file_hash">6a0ac394a3a6be6e36398be8f9cfdde2</property>
  <property name="kdenlive:original.backup">1</property>
  <property name="kdenlive:file_hash">6a0ac394a3a6be6e36398be8f9cfdde2</property>
 </producer>
 <producer id="producer142" in="00:00:00.000" out="00:00:04.983">
  <property name="length">00:00:05.000</property>
  <property name="eof">pause</property>
  <property name="resource">/home/xiaoxiae/.cache/kdenlive/proxy/9182ed0cf4d21a2c2ebd981aa0c20e13.png</property>
  <property name="ttl">25</property>
  <property name="aspect_ratio">1</property>
  <property name="progressive">1</property>
  <property name="seekable">1</property>
  <property name="meta.media.width">800</property>
  <property name="meta.media.height">450</property>
  <property name="mlt_service">qimage</property>
  <property name="kdenlive:clipname">26.png</property>
  <property name="kdenlive:duration">00:00:05.000</property>
  <property name="kdenlive:folderid">143</property>
  <property name="kdenlive:id">161</property>
  <property name="kdenlive:file_size">801856</property>
  <property name="kdenlive:proxy">/home/xiaoxiae/.cache/kdenlive/proxy/9182ed0cf4d21a2c2ebd981aa0c20e13.png</property>
  <property name="kdenlive:originalurl">video/Motivation/img/26.png</property>
  <property name="kdenlive:original.mlt_type">producer</property>
  <property name="kdenlive:original.in">0</property>
  <property name="kdenlive:original.out">299</property>
  <property name="kdenlive:original.length">00:00:05.000</property>
  <property name="kdenlive:original.eof">pause</property>
  <property name="kdenlive:original.resource">video/Motivation/img/26.png</property>
  <property name="kdenlive:original.ttl">25</property>
  <property name="kdenlive:original.aspect_ratio">1</property>
  <property name="kdenlive:original.progressive">1</property>
  <property name="kdenlive:original.seekable">1</property>
  <property name="kdenlive:original.meta.media.width">3840</property>
  <property name="kdenlive:original.meta.media.height">2160</property>
  <property name="kdenlive:original.mlt_service">qimage</property>
  <property name="kdenlive:original.kdenlive:duration">00:00:05.000</property>
  <property name="kdenlive:original.kdenlive:folderid">143</property>
  <property name="kdenlive:original.kdenlive:id">162</property>
  <property name="kdenlive:original.kdenlive:file_size">801856</property>
  <property name="kdenlive:original.kdenlive:file_hash">9182ed0cf4d21a2c2ebd981aa0c20e13</property>
  <property name="kdenlive:original.backup">1</property>
  <property name="kdenlive:file_hash">9182ed0cf4d21a2c2ebd981aa0c20e13</property>
 </producer>
 <producer id="producer143" in="00:00:00.000" out="00:00:04.983">
  <property name="length">00:00:05.000</property>
  <property name="eof">pause</property>
  <property name="resource">/home/xiaoxiae/.cache/kdenlive/proxy/2f574af6dbe3ed8caf1e037e013d61ca.png</property>
  <property name="ttl">25</property>
  <property name="aspect_ratio">1</property>
  <property name="progressive">1</property>
  <property name="seekable">1</property>
  <property name="meta.media.width">800</property>
  <property name="meta.media.height">450</property>
  <property name="mlt_service">qimage</property>
  <property name="kdenlive:clipname">27.png</property>
  <property name="kdenlive:duration">00:00:05.000</property>
  <property name="kdenlive:folderid">143</property>
  <property name="kdenlive:id">162</property>
  <property name="kdenlive:file_size">602051</property>
  <property name="kdenlive:proxy">/home/xiaoxiae/.cache/kdenlive/proxy/2f574af6dbe3ed8caf1e037e013d61ca.png</property>
  <property name="kdenlive:originalurl">video/Motivation/img/27.png</property>
  <property name="kdenlive:original.mlt_type">producer</property>
  <property name="kdenlive:original.in">0</property>
  <property name="kdenlive:original.out">299</property>
  <property name="kdenlive:original.length">00:00:05.000</property>
  <property name="kdenlive:original.eof">pause</property>
  <property name="kdenlive:original.resource">video/Motivation/img/27.png</property>
  <property name="kdenlive:original.ttl">25</property>
  <property name="kdenlive:original.aspect_ratio">1</property>
  <property name="kdenlive:original.progressive">1</property>
  <property name="kdenlive:original.seekable">1</property>
  <property name="kdenlive:original.meta.media.width">3840</property>
  <property name="kdenlive:original.meta.media.height">2160</property>
  <property name="kdenlive:original.mlt_service">qimage</property>
  <property name="kdenlive:original.kdenlive:duration">00:00:05.000</property>
  <property name="kdenlive:original.kdenlive:folderid">143</property>
  <property name="kdenlive:original.kdenlive:id">163</property>
  <property name="kdenlive:original.kdenlive:file_size">602051</property>
  <property name="kdenlive:original.kdenlive:file_hash">2f574af6dbe3ed8caf1e037e013d61ca</property>
  <property name="kdenlive:original.backup">1</property>
  <property name="kdenlive:file_hash">2f574af6dbe3ed8caf1e037e013d61ca</property>
 </producer>
 <producer id="producer144" in="00:00:00.000" out="00:00:04.983">
  <property name="length">00:00:05.000</property>
  <property name="eof">pause</property>
  <property name="resource">/home/xiaoxiae/.cache/kdenlive/proxy/7d123002b6c00ddeadc4bcd561e47347.png</property>
  <property name="ttl">25</property>
  <property name="aspect_ratio">1</property>
  <property name="progressive">1</property>
  <property name="seekable">1</property>
  <property name="meta.media.width">800</property>
  <property name="meta.media.height">450</property>
  <property name="mlt_service">qimage</property>
  <property name="kdenlive:clipname">3.png</property>
  <property name="kdenlive:duration">00:00:05.000</property>
  <property name="kdenlive:folderid">143</property>
  <property name="kdenlive:id">163</property>
  <property name="kdenlive:file_size">457625</property>
  <property name="kdenlive:proxy">/home/xiaoxiae/.cache/kdenlive/proxy/7d123002b6c00ddeadc4bcd561e47347.png</property>
  <property name="kdenlive:originalurl">video/Motivation/img/3.png</property>
  <property name="kdenlive:original.mlt_type">producer</property>
  <property name="kdenlive:original.in">0</property>
  <property name="kdenlive:original.out">299</property>
  <property name="kdenlive:original.length">00:00:05.000</property>
  <property name="kdenlive:original.eof">pause</property>
  <property name="kdenlive:original.resource">video/Motivation/img/3.png</property>
  <property name="kdenlive:original.ttl">25</property>
  <property name="kdenlive:original.aspect_ratio">1</property>
  <property name="kdenlive:original.progressive">1</property>
  <property name="kdenlive:original.seekable">1</property>
  <property name="kdenlive:original.meta.media.width">3840</property>
  <property name="kdenlive:original.meta.media.height">2160</property>
  <property name="kdenlive:original.mlt_service">qimage</property>
  <property name="kdenlive:original.kdenlive:duration">00:00:05.000</property>
  <property name="kdenlive:original.kdenlive:folderid">143</property>
  <property name="kdenlive:original.kdenlive:id">164</property>
  <property name="kdenlive:original.kdenlive:file_size">457625</property>
  <property name="kdenlive:original.kdenlive:file_hash">7d123002b6c00ddeadc4bcd561e47347</property>
  <property name="kdenlive:original.backup">1</property>
  <property name="kdenlive:file_hash">7d123002b6c00ddeadc4bcd561e47347</property>
 </producer>
 <producer id="producer145" in="00:00:00.000" out="00:00:04.983">
  <property name="length">00:00:05.000</property>
  <property name="eof">pause</property>
  <property name="resource">/home/xiaoxiae/.cache/kdenlive/proxy/de80df245f528501c6e0abf2b7b13198.png</property>
  <property name="ttl">25</property>
  <property name="aspect_ratio">1</property>
  <property name="progressive">1</property>
  <property name="seekable">1</property>
  <property name="meta.media.width">800</property>
  <property name="meta.media.height">450</property>
  <property name="mlt_service">qimage</property>
  <property name="kdenlive:clipname">4.png</property>
  <property name="kdenlive:duration">00:00:05.000</property>
  <property name="kdenlive:folderid">143</property>
  <property name="kdenlive:id">164</property>
  <property name="kdenlive:file_size">474299</property>
  <property name="kdenlive:proxy">/home/xiaoxiae/.cache/kdenlive/proxy/de80df245f528501c6e0abf2b7b13198.png</property>
  <property name="kdenlive:originalurl">video/Motivation/img/4.png</property>
  <property name="kdenlive:original.mlt_type">producer</property>
  <property name="kdenlive:original.in">0</property>
  <property name="kdenlive:original.out">299</property>
  <property name="kdenlive:original.length">00:00:05.000</property>
  <property name="kdenlive:original.eof">pause</property>
  <property name="kdenlive:original.resource">video/Motivation/img/4.png</property>
  <property name="kdenlive:original.ttl">25</property>
  <property name="kdenlive:original.aspect_ratio">1</property>
  <property name="kdenlive:original.progressive">1</property>
  <property name="kdenlive:original.seekable">1</property>
  <property name="kdenlive:original.meta.media.width">3840</property>
  <property name="kdenlive:original.meta.media.height">2160</property>
  <property name="kdenlive:original.mlt_service">qimage</property>
  <property name="kdenlive:original.kdenlive:duration">00:00:05.000</property>
  <property name="kdenlive:original.kdenlive:folderid">143</property>
  <property name="kdenlive:original.kdenlive:id">165</property>
  <property name="kdenlive:original.kdenlive:file_size">474299</property>
  <property name="kdenlive:original.kdenlive:file_hash">de80df245f528501c6e0abf2b7b13198</property>
  <property name="kdenlive:original.backup">1</property>
  <property name="kdenlive:file_hash">de80df245f528501c6e0abf2b7b13198</property>
 </producer>
 <producer id="producer146" in="00:00:00.000" out="00:00:04.983">
  <property name="length">00:00:05.000</property>
  <property name="eof">pause</property>
  <property name="resource">/home/xiaoxiae/.cache/kdenlive/proxy/da28b64f83094412c3bf4208d3c6972c.png</property>
  <property name="ttl">25</property>
  <property name="aspect_ratio">1</property>
  <property name="progressive">1</property>
  <property name="seekable">1</property>
  <property name="meta.media.width">800</property>
  <property name="meta.media.height">450</property>
  <property name="mlt_service">qimage</property>
  <property name="kdenlive:clipname">5.png</property>
  <property name="kdenlive:duration">00:00:05.000</property>
  <property name="kdenlive:folderid">143</property>
  <property name="kdenlive:id">165</property>
  <property name="kdenlive:file_size">492337</property>
  <property name="kdenlive:proxy">/home/xiaoxiae/.cache/kdenlive/proxy/da28b64f83094412c3bf4208d3c6972c.png</property>
  <property name="kdenlive:originalurl">video/Motivation/img/5.png</property>
  <property name="kdenlive:original.mlt_type">producer</property>
  <property name="kdenlive:original.in">0</property>
  <property name="kdenlive:original.out">299</property>
  <property name="kdenlive:original.length">00:00:05.000</property>
  <property name="kdenlive:original.eof">pause</property>
  <property name="kdenlive:original.resource">video/Motivation/img/5.png</property>
  <property name="kdenlive:original.ttl">25</property>
  <property name="kdenlive:original.aspect_ratio">1</property>
  <property name="kdenlive:original.progressive">1</property>
  <property name="kdenlive:original.seekable">1</property>
  <property name="kdenlive:original.meta.media.width">3840</property>
  <property name="kdenlive:original.meta.media.height">2160</property>
  <property name="kdenlive:original.mlt_service">qimage</property>
  <property name="kdenlive:original.kdenlive:duration">00:00:05.000</property>
  <property name="kdenlive:original.kdenlive:folderid">143</property>
  <property name="kdenlive:original.kdenlive:id">166</property>
  <property name="kdenlive:original.kdenlive:file_size">492337</property>
  <property name="kdenlive:original.kdenlive:file_hash">da28b64f83094412c3bf4208d3c6972c</property>
  <property name="kdenlive:original.backup">1</property>
  <property name="kdenlive:file_hash">da28b64f83094412c3bf4208d3c6972c</property>
 </producer>
 <producer id="producer148" in="00:00:00.000" out="00:00:04.983">
  <property name="length">00:00:05.000</property>
  <property name="eof">pause</property>
  <property name="resource">/home/xiaoxiae/.cache/kdenlive/proxy/0c9c47432d0f0feab91dfd381c26af50.png</property>
  <property name="ttl">25</property>
  <property name="aspect_ratio">1</property>
  <property name="progressive">1</property>
  <property name="seekable">1</property>
  <property name="meta.media.width">800</property>
  <property name="meta.media.height">450</property>
  <property name="mlt_service">qimage</property>
  <property name="kdenlive:clipname">6.png</property>
  <property name="kdenlive:duration">00:00:05.000</property>
  <property name="kdenlive:folderid">143</property>
  <property name="kdenlive:id">166</property>
  <property name="kdenlive:file_size">523152</property>
  <property name="kdenlive:proxy">/home/xiaoxiae/.cache/kdenlive/proxy/0c9c47432d0f0feab91dfd381c26af50.png</property>
  <property name="kdenlive:originalurl">video/Motivation/img/6.png</property>
  <property name="kdenlive:original.mlt_type">producer</property>
  <property name="kdenlive:original.in">0</property>
  <property name="kdenlive:original.out">299</property>
  <property name="kdenlive:original.length">00:00:05.000</property>
  <property name="kdenlive:original.eof">pause</property>
  <property name="kdenlive:original.resource">video/Motivation/img/6.png</property>
  <property name="kdenlive:original.ttl">25</property>
  <property name="kdenlive:original.aspect_ratio">1</property>
  <property name="kdenlive:original.progressive">1</property>
  <property name="kdenlive:original.seekable">1</property>
  <property name="kdenlive:original.meta.media.width">3840</property>
  <property name="kdenlive:original.meta.media.height">2160</property>
  <property name="kdenlive:original.mlt_service">qimage</property>
  <property name="kdenlive:original.kdenlive:duration">00:00:05.000</property>
  <property name="kdenlive:original.kdenlive:folderid">143</property>
  <property name="kdenlive:original.kdenlive:id">167</property>
  <property name="kdenlive:original.kdenlive:file_size">523152</property>
  <property name="kdenlive:original.kdenlive:file_hash">0c9c47432d0f0feab91dfd381c26af50</property>
  <property name="kdenlive:original.backup">1</property>
  <property name="kdenlive:file_hash">0c9c47432d0f0feab91dfd381c26af50</property>
 </producer>
 <producer id="producer147" in="00:00:00.000" out="00:00:04.983">
  <property name="length">00:00:05.000</property>
  <property name="eof">pause</property>
  <property name="resource">/home/xiaoxiae/.cache/kdenlive/proxy/75b86934337acd309f9ca3a04df07f6f.png</property>
  <property name="ttl">25</property>
  <property name="aspect_ratio">1</property>
  <property name="progressive">1</property>
  <property name="seekable">1</property>
  <property name="meta.media.width">800</property>
  <property name="meta.media.height">450</property>
  <property name="mlt_service">qimage</property>
  <property name="kdenlive:clipname">7.png</property>
  <property name="kdenlive:duration">00:00:05.000</property>
  <property name="kdenlive:folderid">143</property>
  <property name="kdenlive:id">167</property>
  <property name="kdenlive:file_size">28877</property>
  <property name="kdenlive:proxy">/home/xiaoxiae/.cache/kdenlive/proxy/75b86934337acd309f9ca3a04df07f6f.png</property>
  <property name="kdenlive:originalurl">video/Motivation/img/7.png</property>
  <property name="kdenlive:original.mlt_type">producer</property>
  <property name="kdenlive:original.in">0</property>
  <property name="kdenlive:original.out">299</property>
  <property name="kdenlive:original.length">00:00:05.000</property>
  <property name="kdenlive:original.eof">pause</property>
  <property name="kdenlive:original.resource">video/Motivation/img/7.png</property>
  <property name="kdenlive:original.ttl">25</property>
  <property name="kdenlive:original.aspect_ratio">1</property>
  <property name="kdenlive:original.progressive">1</property>
  <property name="kdenlive:original.seekable">1</property>
  <property name="kdenlive:original.meta.media.width">3840</property>
  <property name="kdenlive:original.meta.media.height">2160</property>
  <property name="kdenlive:original.mlt_service">qimage</property>
  <property name="kdenlive:original.kdenlive:duration">00:00:05.000</property>
  <property name="kdenlive:original.kdenlive:folderid">143</property>
  <property name="kdenlive:original.kdenlive:id">168</property>
  <property name="kdenlive:original.kdenlive:file_size">28877</property>
  <property name="kdenlive:original.kdenlive:file_hash">75b86934337acd309f9ca3a04df07f6f</property>
  <property name="kdenlive:original.backup">1</property>
  <property name="kdenlive:file_hash">75b86934337acd309f9ca3a04df07f6f</property>
 </producer>
 <producer id="producer149" in="00:00:00.000" out="00:00:04.983">
  <property name="length">00:00:05.000</property>
  <property name="eof">pause</property>
  <property name="resource">/home/xiaoxiae/.cache/kdenlive/proxy/9a1912229f3df4d45a6efda5181b8063.png</property>
  <property name="ttl">25</property>
  <property name="aspect_ratio">1</property>
  <property name="progressive">1</property>
  <property name="seekable">1</property>
  <property name="meta.media.width">800</property>
  <property name="meta.media.height">450</property>
  <property name="mlt_service">qimage</property>
  <property name="kdenlive:clipname">8.png</property>
  <property name="kdenlive:duration">00:00:05.000</property>
  <property name="kdenlive:folderid">143</property>
  <property name="kdenlive:id">168</property>
  <property name="kdenlive:file_size">37392</property>
  <property name="kdenlive:proxy">/home/xiaoxiae/.cache/kdenlive/proxy/9a1912229f3df4d45a6efda5181b8063.png</property>
  <property name="kdenlive:originalurl">video/Motivation/img/8.png</property>
  <property name="kdenlive:original.mlt_type">producer</property>
  <property name="kdenlive:original.in">0</property>
  <property name="kdenlive:original.out">299</property>
  <property name="kdenlive:original.length">00:00:05.000</property>
  <property name="kdenlive:original.eof">pause</property>
  <property name="kdenlive:original.resource">video/Motivation/img/8.png</property>
  <property name="kdenlive:original.ttl">25</property>
  <property name="kdenlive:original.aspect_ratio">1</property>
  <property name="kdenlive:original.progressive">1</property>
  <property name="kdenlive:original.seekable">1</property>
  <property name="kdenlive:original.meta.media.width">3840</property>
  <property name="kdenlive:original.meta.media.height">2160</property>
  <property name="kdenlive:original.mlt_service">qimage</property>
  <property name="kdenlive:original.kdenlive:duration">00:00:05.000</property>
  <property name="kdenlive:original.kdenlive:folderid">143</property>
  <property name="kdenlive:original.kdenlive:id">169</property>
  <property name="kdenlive:original.kdenlive:file_size">37392</property>
  <property name="kdenlive:original.kdenlive:file_hash">9a1912229f3df4d45a6efda5181b8063</property>
  <property name="kdenlive:original.backup">1</property>
  <property name="kdenlive:file_hash">9a1912229f3df4d45a6efda5181b8063</property>
 </producer>
 <producer id="producer152" in="00:00:00.000" out="00:00:04.983">
  <property name="length">00:00:05.000</property>
  <property name="eof">pause</property>
  <property name="resource">/home/xiaoxiae/.cache/kdenlive/proxy/6605ffd9f53c4149beee42da8b223789.png</property>
  <property name="ttl">25</property>
  <property name="aspect_ratio">1</property>
  <property name="progressive">1</property>
  <property name="seekable">1</property>
  <property name="meta.media.width">800</property>
  <property name="meta.media.height">450</property>
  <property name="mlt_service">qimage</property>
  <property name="kdenlive:clipname">9.png</property>
  <property name="kdenlive:duration">00:00:05.000</property>
  <property name="kdenlive:folderid">143</property>
  <property name="kdenlive:id">169</property>
  <property name="kdenlive:file_size">46123</property>
  <property name="kdenlive:proxy">/home/xiaoxiae/.cache/kdenlive/proxy/6605ffd9f53c4149beee42da8b223789.png</property>
  <property name="kdenlive:originalurl">video/Motivation/img/9.png</property>
  <property name="kdenlive:original.mlt_type">producer</property>
  <property name="kdenlive:original.in">0</property>
  <property name="kdenlive:original.out">299</property>
  <property name="kdenlive:original.length">00:00:05.000</property>
  <property name="kdenlive:original.eof">pause</property>
  <property name="kdenlive:original.resource">video/Motivation/img/9.png</property>
  <property name="kdenlive:original.ttl">25</property>
  <property name="kdenlive:original.aspect_ratio">1</property>
  <property name="kdenlive:original.progressive">1</property>
  <property name="kdenlive:original.seekable">1</property>
  <property name="kdenlive:original.meta.media.width">3840</property>
  <property name="kdenlive:original.meta.media.height">2160</property>
  <property name="kdenlive:original.mlt_service">qimage</property>
  <property name="kdenlive:original.kdenlive:duration">00:00:05.000</property>
  <property name="kdenlive:original.kdenlive:folderid">143</property>
  <property name="kdenlive:original.kdenlive:id">170</property>
  <property name="kdenlive:original.kdenlive:file_size">46123</property>
  <property name="kdenlive:original.kdenlive:file_hash">6605ffd9f53c4149beee42da8b223789</property>
  <property name="kdenlive:original.backup">1</property>
  <property name="kdenlive:file_hash">6605ffd9f53c4149beee42da8b223789</property>
 </producer>
 <producer id="producer150" in="00:00:00.000" out="00:00:00.983">
  <property name="length">60</property>
  <property name="eof">pause</property>
  <property name="resource">/home/xiaoxiae/.cache/kdenlive/proxy/a265c797cc847185dc6ec9779bde4d00.mov</property>
  <property name="audio_index">-1</property>
  <property name="video_index">0</property>
  <property name="mute_on_pause">0</property>
  <property name="mlt_service">avformat-novalidate</property>
  <property name="seekable">1</property>
  <property name="aspect_ratio">1</property>
  <property name="kdenlive:clipname">1.mp4</property>
  <property name="kdenlive:folderid">171</property>
  <property name="kdenlive:id">170</property>
  <property name="kdenlive:file_size">198997</property>
  <property name="kdenlive:proxy">/home/xiaoxiae/.cache/kdenlive/proxy/a265c797cc847185dc6ec9779bde4d00.mov</property>
  <property name="kdenlive:originalurl">video/Motivation/vid/1.mp4</property>
  <property name="kdenlive:original.mlt_type">producer</property>
  <property name="kdenlive:original.in">0</property>
  <property name="kdenlive:original.out">59</property>
  <property name="kdenlive:original.length">60</property>
  <property name="kdenlive:original.eof">pause</property>
  <property name="kdenlive:original.resource">video/Motivation/vid/1.mp4</property>
  <property name="kdenlive:original.meta.media.nb_streams">1</property>
  <property name="kdenlive:original.meta.media.0.stream.type">video</property>
  <property name="kdenlive:original.meta.media.0.stream.frame_rate">60</property>
  <property name="kdenlive:original.meta.media.0.stream.sample_aspect_ratio">0</property>
  <property name="kdenlive:original.meta.media.0.codec.width">3840</property>
  <property name="kdenlive:original.meta.media.0.codec.height">2160</property>
  <property name="kdenlive:original.meta.media.0.codec.rotate">0</property>
  <property name="kdenlive:original.meta.media.0.codec.pix_fmt">yuv420p</property>
  <property name="kdenlive:original.meta.media.0.codec.sample_aspect_ratio">0</property>
  <property name="kdenlive:original.meta.media.0.codec.colorspace">709</property>
  <property name="kdenlive:original.meta.media.0.codec.name">h264</property>
  <property name="kdenlive:original.meta.media.0.codec.long_name">H.264 / AVC / MPEG-4 AVC / MPEG-4 part 10</property>
  <property name="kdenlive:original.meta.media.0.codec.bit_rate">1579304</property>
  <property name="kdenlive:original.meta.attr.0.stream.handler_name.markup">VideoHandler</property>
  <property name="kdenlive:original.meta.attr.0.stream.vendor_id.markup">[0][0][0][0]</property>
  <property name="kdenlive:original.meta.attr.major_brand.markup">isom</property>
  <property name="kdenlive:original.meta.attr.minor_version.markup">512</property>
  <property name="kdenlive:original.meta.attr.compatible_brands.markup">isomiso2avc1mp41</property>
  <property name="kdenlive:original.meta.attr.encoder.markup">Lavf58.76.100</property>
  <property name="kdenlive:original.meta.attr.comment.markup">Rendered with Manim Community v0.12.0</property>
  <property name="kdenlive:original.seekable">1</property>
  <property name="kdenlive:original.width">3840</property>
  <property name="kdenlive:original.height">2160</property>
  <property name="kdenlive:original.meta.media.sample_aspect_num">1</property>
  <property name="kdenlive:original.meta.media.sample_aspect_den">1</property>
  <property name="kdenlive:original.aspect_ratio">1</property>
  <property name="kdenlive:original.audio_index">-1</property>
  <property name="kdenlive:original.video_index">0</property>
  <property name="kdenlive:original.mute_on_pause">0</property>
  <property name="kdenlive:original.mlt_service">avformat-novalidate</property>
  <property name="kdenlive:original.kdenlive:folderid">171</property>
  <property name="kdenlive:original.meta.media.frame_rate_num">60</property>
  <property name="kdenlive:original.meta.media.frame_rate_den">1</property>
  <property name="kdenlive:original.meta.media.colorspace">709</property>
  <property name="kdenlive:original.meta.media.color_trc">2</property>
  <property name="kdenlive:original.meta.media.has_b_frames">2</property>
  <property name="kdenlive:original.meta.media.width">3840</property>
  <property name="kdenlive:original.meta.media.height">2160</property>
  <property name="kdenlive:original.meta.media.color_range">mpeg</property>
  <property name="kdenlive:original.kdenlive:id">172</property>
  <property name="kdenlive:original.kdenlive:file_size">198997</property>
  <property name="kdenlive:original.kdenlive:file_hash">a265c797cc847185dc6ec9779bde4d00</property>
  <property name="kdenlive:original.backup">1</property>
  <property name="kdenlive:file_hash">a265c797cc847185dc6ec9779bde4d00</property>
  <property name="meta.media.nb_streams">1</property>
  <property name="meta.media.0.stream.type">video</property>
  <property name="meta.media.0.stream.frame_rate">60</property>
  <property name="meta.media.0.stream.sample_aspect_ratio">0</property>
  <property name="meta.media.0.codec.width">640</property>
  <property name="meta.media.0.codec.height">360</property>
  <property name="meta.media.0.codec.rotate">0</property>
  <property name="meta.media.0.codec.pix_fmt">yuv420p</property>
  <property name="meta.media.0.codec.sample_aspect_ratio">0</property>
  <property name="meta.media.0.codec.colorspace">601</property>
  <property name="meta.media.0.codec.name">h264</property>
  <property name="meta.media.0.codec.long_name">H.264 / AVC / MPEG-4 AVC / MPEG-4 part 10</property>
  <property name="meta.media.0.codec.bit_rate">1349248</property>
  <property name="meta.attr.0.stream.handler_name.markup">VideoHandler</property>
  <property name="meta.attr.0.stream.vendor_id.markup">FFMP</property>
  <property name="meta.attr.0.stream.encoder.markup">Lavc58.134.100 libx264</property>
  <property name="meta.attr.major_brand.markup">qt  </property>
  <property name="meta.attr.minor_version.markup">512</property>
  <property name="meta.attr.compatible_brands.markup">qt  </property>
  <property name="meta.attr.encoder.markup">Lavf58.76.100</property>
  <property name="meta.attr.comment.markup">Rendered with Manim Community v0.12.0</property>
  <property name="meta.media.sample_aspect_num">1</property>
  <property name="meta.media.sample_aspect_den">1</property>
  <property name="meta.media.frame_rate_num">60</property>
  <property name="meta.media.frame_rate_den">1</property>
  <property name="meta.media.colorspace">601</property>
  <property name="meta.media.color_trc">2</property>
  <property name="meta.media.has_b_frames">0</property>
  <property name="meta.media.width">640</property>
  <property name="meta.media.height">360</property>
  <property name="meta.media.color_range">mpeg</property>
 </producer>
 <producer id="producer151" in="00:00:00.000" out="00:00:01.483">
  <property name="length">90</property>
  <property name="eof">pause</property>
  <property name="resource">/home/xiaoxiae/.cache/kdenlive/proxy/f76b9be57c8ebca18b5c665fd86f3b34.mov</property>
  <property name="audio_index">-1</property>
  <property name="video_index">0</property>
  <property name="mute_on_pause">0</property>
  <property name="mlt_service">avformat-novalidate</property>
  <property name="seekable">1</property>
  <property name="aspect_ratio">1</property>
  <property name="kdenlive:clipname">10.mp4</property>
  <property name="kdenlive:folderid">171</property>
  <property name="kdenlive:id">172</property>
  <property name="kdenlive:file_size">203098</property>
  <property name="kdenlive:proxy">/home/xiaoxiae/.cache/kdenlive/proxy/f76b9be57c8ebca18b5c665fd86f3b34.mov</property>
  <property name="kdenlive:originalurl">video/Motivation/vid/10.mp4</property>
  <property name="kdenlive:original.mlt_type">producer</property>
  <property name="kdenlive:original.in">0</property>
  <property name="kdenlive:original.out">89</property>
  <property name="kdenlive:original.length">90</property>
  <property name="kdenlive:original.eof">pause</property>
  <property name="kdenlive:original.resource">video/Motivation/vid/10.mp4</property>
  <property name="kdenlive:original.meta.media.nb_streams">1</property>
  <property name="kdenlive:original.meta.media.0.stream.type">video</property>
  <property name="kdenlive:original.meta.media.0.stream.frame_rate">60</property>
  <property name="kdenlive:original.meta.media.0.stream.sample_aspect_ratio">0</property>
  <property name="kdenlive:original.meta.media.0.codec.width">3840</property>
  <property name="kdenlive:original.meta.media.0.codec.height">2160</property>
  <property name="kdenlive:original.meta.media.0.codec.rotate">0</property>
  <property name="kdenlive:original.meta.media.0.codec.pix_fmt">yuv420p</property>
  <property name="kdenlive:original.meta.media.0.codec.sample_aspect_ratio">0</property>
  <property name="kdenlive:original.meta.media.0.codec.colorspace">709</property>
  <property name="kdenlive:original.meta.media.0.codec.name">h264</property>
  <property name="kdenlive:original.meta.media.0.codec.long_name">H.264 / AVC / MPEG-4 AVC / MPEG-4 part 10</property>
  <property name="kdenlive:original.meta.media.0.codec.bit_rate">1075637</property>
  <property name="kdenlive:original.meta.attr.0.stream.handler_name.markup">VideoHandler</property>
  <property name="kdenlive:original.meta.attr.0.stream.vendor_id.markup">[0][0][0][0]</property>
  <property name="kdenlive:original.meta.attr.major_brand.markup">isom</property>
  <property name="kdenlive:original.meta.attr.minor_version.markup">512</property>
  <property name="kdenlive:original.meta.attr.compatible_brands.markup">isomiso2avc1mp41</property>
  <property name="kdenlive:original.meta.attr.encoder.markup">Lavf58.76.100</property>
  <property name="kdenlive:original.meta.attr.comment.markup">Rendered with Manim Community v0.12.0</property>
  <property name="kdenlive:original.seekable">1</property>
  <property name="kdenlive:original.width">3840</property>
  <property name="kdenlive:original.height">2160</property>
  <property name="kdenlive:original.meta.media.sample_aspect_num">1</property>
  <property name="kdenlive:original.meta.media.sample_aspect_den">1</property>
  <property name="kdenlive:original.aspect_ratio">1</property>
  <property name="kdenlive:original.audio_index">-1</property>
  <property name="kdenlive:original.video_index">0</property>
  <property name="kdenlive:original.mute_on_pause">0</property>
  <property name="kdenlive:original.mlt_service">avformat-novalidate</property>
  <property name="kdenlive:original.kdenlive:folderid">171</property>
  <property name="kdenlive:original.meta.media.frame_rate_num">60</property>
  <property name="kdenlive:original.meta.media.frame_rate_den">1</property>
  <property name="kdenlive:original.meta.media.colorspace">709</property>
  <property name="kdenlive:original.meta.media.color_trc">2</property>
  <property name="kdenlive:original.meta.media.has_b_frames">2</property>
  <property name="kdenlive:original.meta.media.width">3840</property>
  <property name="kdenlive:original.meta.media.height">2160</property>
  <property name="kdenlive:original.meta.media.color_range">mpeg</property>
  <property name="kdenlive:original.kdenlive:id">173</property>
  <property name="kdenlive:original.kdenlive:file_size">203098</property>
  <property name="kdenlive:original.kdenlive:file_hash">f76b9be57c8ebca18b5c665fd86f3b34</property>
  <property name="kdenlive:original.backup">1</property>
  <property name="kdenlive:file_hash">f76b9be57c8ebca18b5c665fd86f3b34</property>
  <property name="meta.media.nb_streams">1</property>
  <property name="meta.media.0.stream.type">video</property>
  <property name="meta.media.0.stream.frame_rate">60</property>
  <property name="meta.media.0.stream.sample_aspect_ratio">0</property>
  <property name="meta.media.0.codec.width">640</property>
  <property name="meta.media.0.codec.height">360</property>
  <property name="meta.media.0.codec.rotate">0</property>
  <property name="meta.media.0.codec.pix_fmt">yuv420p</property>
  <property name="meta.media.0.codec.sample_aspect_ratio">0</property>
  <property name="meta.media.0.codec.colorspace">601</property>
  <property name="meta.media.0.codec.name">h264</property>
  <property name="meta.media.0.codec.long_name">H.264 / AVC / MPEG-4 AVC / MPEG-4 part 10</property>
  <property name="meta.media.0.codec.bit_rate">634224</property>
  <property name="meta.attr.0.stream.handler_name.markup">VideoHandler</property>
  <property name="meta.attr.0.stream.vendor_id.markup">FFMP</property>
  <property name="meta.attr.0.stream.encoder.markup">Lavc58.134.100 libx264</property>
  <property name="meta.attr.major_brand.markup">qt  </property>
  <property name="meta.attr.minor_version.markup">512</property>
  <property name="meta.attr.compatible_brands.markup">qt  </property>
  <property name="meta.attr.encoder.markup">Lavf58.76.100</property>
  <property name="meta.attr.comment.markup">Rendered with Manim Community v0.12.0</property>
  <property name="meta.media.sample_aspect_num">1</property>
  <property name="meta.media.sample_aspect_den">1</property>
  <property name="meta.media.frame_rate_num">60</property>
  <property name="meta.media.frame_rate_den">1</property>
  <property name="meta.media.colorspace">601</property>
  <property name="meta.media.color_trc">2</property>
  <property name="meta.media.has_b_frames">0</property>
  <property name="meta.media.width">640</property>
  <property name="meta.media.height">360</property>
  <property name="meta.media.color_range">mpeg</property>
 </producer>
 <producer id="producer153" in="00:00:00.000" out="00:00:00.983">
  <property name="length">60</property>
  <property name="eof">pause</property>
  <property name="resource">/home/xiaoxiae/.cache/kdenlive/proxy/5876452c8b31a5e3ce490801764dfb4d.mov</property>
  <property name="audio_index">-1</property>
  <property name="video_index">0</property>
  <property name="mute_on_pause">0</property>
  <property name="mlt_service">avformat-novalidate</property>
  <property name="seekable">1</property>
  <property name="aspect_ratio">1</property>
  <property name="kdenlive:clipname">11.mp4</property>
  <property name="kdenlive:folderid">171</property>
  <property name="kdenlive:id">173</property>
  <property name="kdenlive:file_size">52776</property>
  <property name="kdenlive:proxy">/home/xiaoxiae/.cache/kdenlive/proxy/5876452c8b31a5e3ce490801764dfb4d.mov</property>
  <property name="kdenlive:originalurl">video/Motivation/vid/11.mp4</property>
  <property name="kdenlive:original.mlt_type">producer</property>
  <property name="kdenlive:original.in">0</property>
  <property name="kdenlive:original.out">59</property>
  <property name="kdenlive:original.length">60</property>
  <property name="kdenlive:original.eof">pause</property>
  <property name="kdenlive:original.resource">video/Motivation/vid/11.mp4</property>
  <property name="kdenlive:original.meta.media.nb_streams">1</property>
  <property name="kdenlive:original.meta.media.0.stream.type">video</property>
  <property name="kdenlive:original.meta.media.0.stream.frame_rate">60</property>
  <property name="kdenlive:original.meta.media.0.stream.sample_aspect_ratio">0</property>
  <property name="kdenlive:original.meta.media.0.codec.width">3840</property>
  <property name="kdenlive:original.meta.media.0.codec.height">2160</property>
  <property name="kdenlive:original.meta.media.0.codec.rotate">0</property>
  <property name="kdenlive:original.meta.media.0.codec.pix_fmt">yuv420p</property>
  <property name="kdenlive:original.meta.media.0.codec.sample_aspect_ratio">0</property>
  <property name="kdenlive:original.meta.media.0.codec.colorspace">709</property>
  <property name="kdenlive:original.meta.media.0.codec.name">h264</property>
  <property name="kdenlive:original.meta.media.0.codec.long_name">H.264 / AVC / MPEG-4 AVC / MPEG-4 part 10</property>
  <property name="kdenlive:original.meta.media.0.codec.bit_rate">409088</property>
  <property name="kdenlive:original.meta.attr.0.stream.handler_name.markup">VideoHandler</property>
  <property name="kdenlive:original.meta.attr.0.stream.vendor_id.markup">[0][0][0][0]</property>
  <property name="kdenlive:original.meta.attr.major_brand.markup">isom</property>
  <property name="kdenlive:original.meta.attr.minor_version.markup">512</property>
  <property name="kdenlive:original.meta.attr.compatible_brands.markup">isomiso2avc1mp41</property>
  <property name="kdenlive:original.meta.attr.encoder.markup">Lavf58.76.100</property>
  <property name="kdenlive:original.meta.attr.comment.markup">Rendered with Manim Community v0.12.0</property>
  <property name="kdenlive:original.seekable">1</property>
  <property name="kdenlive:original.width">3840</property>
  <property name="kdenlive:original.height">2160</property>
  <property name="kdenlive:original.meta.media.sample_aspect_num">1</property>
  <property name="kdenlive:original.meta.media.sample_aspect_den">1</property>
  <property name="kdenlive:original.aspect_ratio">1</property>
  <property name="kdenlive:original.audio_index">-1</property>
  <property name="kdenlive:original.video_index">0</property>
  <property name="kdenlive:original.mute_on_pause">0</property>
  <property name="kdenlive:original.mlt_service">avformat-novalidate</property>
  <property name="kdenlive:original.kdenlive:folderid">171</property>
  <property name="kdenlive:original.meta.media.frame_rate_num">60</property>
  <property name="kdenlive:original.meta.media.frame_rate_den">1</property>
  <property name="kdenlive:original.meta.media.colorspace">709</property>
  <property name="kdenlive:original.meta.media.color_trc">2</property>
  <property name="kdenlive:original.meta.media.has_b_frames">2</property>
  <property name="kdenlive:original.meta.media.width">3840</property>
  <property name="kdenlive:original.meta.media.height">2160</property>
  <property name="kdenlive:original.meta.media.color_range">mpeg</property>
  <property name="kdenlive:original.kdenlive:id">174</property>
  <property name="kdenlive:original.kdenlive:file_size">52776</property>
  <property name="kdenlive:original.kdenlive:file_hash">5876452c8b31a5e3ce490801764dfb4d</property>
  <property name="kdenlive:original.backup">1</property>
  <property name="kdenlive:file_hash">5876452c8b31a5e3ce490801764dfb4d</property>
  <property name="meta.media.nb_streams">1</property>
  <property name="meta.media.0.stream.type">video</property>
  <property name="meta.media.0.stream.frame_rate">60</property>
  <property name="meta.media.0.stream.sample_aspect_ratio">0</property>
  <property name="meta.media.0.codec.width">640</property>
  <property name="meta.media.0.codec.height">360</property>
  <property name="meta.media.0.codec.rotate">0</property>
  <property name="meta.media.0.codec.pix_fmt">yuv420p</property>
  <property name="meta.media.0.codec.sample_aspect_ratio">0</property>
  <property name="meta.media.0.codec.colorspace">601</property>
  <property name="meta.media.0.codec.name">h264</property>
  <property name="meta.media.0.codec.long_name">H.264 / AVC / MPEG-4 AVC / MPEG-4 part 10</property>
  <property name="meta.media.0.codec.bit_rate">740160</property>
  <property name="meta.attr.0.stream.handler_name.markup">VideoHandler</property>
  <property name="meta.attr.0.stream.vendor_id.markup">FFMP</property>
  <property name="meta.attr.0.stream.encoder.markup">Lavc58.134.100 libx264</property>
  <property name="meta.attr.major_brand.markup">qt  </property>
  <property name="meta.attr.minor_version.markup">512</property>
  <property name="meta.attr.compatible_brands.markup">qt  </property>
  <property name="meta.attr.encoder.markup">Lavf58.76.100</property>
  <property name="meta.attr.comment.markup">Rendered with Manim Community v0.12.0</property>
  <property name="meta.media.sample_aspect_num">1</property>
  <property name="meta.media.sample_aspect_den">1</property>
  <property name="meta.media.frame_rate_num">60</property>
  <property name="meta.media.frame_rate_den">1</property>
  <property name="meta.media.colorspace">601</property>
  <property name="meta.media.color_trc">2</property>
  <property name="meta.media.has_b_frames">0</property>
  <property name="meta.media.width">640</property>
  <property name="meta.media.height">360</property>
  <property name="meta.media.color_range">mpeg</property>
 </producer>
 <producer id="producer155" in="00:00:00.000" out="00:00:00.983">
  <property name="length">60</property>
  <property name="eof">pause</property>
  <property name="resource">/home/xiaoxiae/.cache/kdenlive/proxy/ee1b8c9648f979bd6b9b77000ef4c7a5.mov</property>
  <property name="audio_index">-1</property>
  <property name="video_index">0</property>
  <property name="mute_on_pause">0</property>
  <property name="mlt_service">avformat-novalidate</property>
  <property name="seekable">1</property>
  <property name="aspect_ratio">1</property>
  <property name="kdenlive:clipname">12.mp4</property>
  <property name="kdenlive:folderid">171</property>
  <property name="kdenlive:id">174</property>
  <property name="kdenlive:file_size">141056</property>
  <property name="kdenlive:proxy">/home/xiaoxiae/.cache/kdenlive/proxy/ee1b8c9648f979bd6b9b77000ef4c7a5.mov</property>
  <property name="kdenlive:originalurl">video/Motivation/vid/12.mp4</property>
  <property name="kdenlive:original.mlt_type">producer</property>
  <property name="kdenlive:original.in">0</property>
  <property name="kdenlive:original.out">59</property>
  <property name="kdenlive:original.length">60</property>
  <property name="kdenlive:original.eof">pause</property>
  <property name="kdenlive:original.resource">video/Motivation/vid/12.mp4</property>
  <property name="kdenlive:original.meta.media.nb_streams">1</property>
  <property name="kdenlive:original.meta.media.0.stream.type">video</property>
  <property name="kdenlive:original.meta.media.0.stream.frame_rate">60</property>
  <property name="kdenlive:original.meta.media.0.stream.sample_aspect_ratio">0</property>
  <property name="kdenlive:original.meta.media.0.codec.width">3840</property>
  <property name="kdenlive:original.meta.media.0.codec.height">2160</property>
  <property name="kdenlive:original.meta.media.0.codec.rotate">0</property>
  <property name="kdenlive:original.meta.media.0.codec.pix_fmt">yuv420p</property>
  <property name="kdenlive:original.meta.media.0.codec.sample_aspect_ratio">0</property>
  <property name="kdenlive:original.meta.media.0.codec.colorspace">709</property>
  <property name="kdenlive:original.meta.media.0.codec.name">h264</property>
  <property name="kdenlive:original.meta.media.0.codec.long_name">H.264 / AVC / MPEG-4 AVC / MPEG-4 part 10</property>
  <property name="kdenlive:original.meta.media.0.codec.bit_rate">1115840</property>
  <property name="kdenlive:original.meta.attr.0.stream.handler_name.markup">VideoHandler</property>
  <property name="kdenlive:original.meta.attr.0.stream.vendor_id.markup">[0][0][0][0]</property>
  <property name="kdenlive:original.meta.attr.major_brand.markup">isom</property>
  <property name="kdenlive:original.meta.attr.minor_version.markup">512</property>
  <property name="kdenlive:original.meta.attr.compatible_brands.markup">isomiso2avc1mp41</property>
  <property name="kdenlive:original.meta.attr.encoder.markup">Lavf58.76.100</property>
  <property name="kdenlive:original.meta.attr.comment.markup">Rendered with Manim Community v0.12.0</property>
  <property name="kdenlive:original.seekable">1</property>
  <property name="kdenlive:original.width">3840</property>
  <property name="kdenlive:original.height">2160</property>
  <property name="kdenlive:original.meta.media.sample_aspect_num">1</property>
  <property name="kdenlive:original.meta.media.sample_aspect_den">1</property>
  <property name="kdenlive:original.aspect_ratio">1</property>
  <property name="kdenlive:original.audio_index">-1</property>
  <property name="kdenlive:original.video_index">0</property>
  <property name="kdenlive:original.mute_on_pause">0</property>
  <property name="kdenlive:original.mlt_service">avformat-novalidate</property>
  <property name="kdenlive:original.kdenlive:folderid">171</property>
  <property name="kdenlive:original.meta.media.frame_rate_num">60</property>
  <property name="kdenlive:original.meta.media.frame_rate_den">1</property>
  <property name="kdenlive:original.meta.media.colorspace">709</property>
  <property name="kdenlive:original.meta.media.color_trc">2</property>
  <property name="kdenlive:original.meta.media.has_b_frames">2</property>
  <property name="kdenlive:original.meta.media.width">3840</property>
  <property name="kdenlive:original.meta.media.height">2160</property>
  <property name="kdenlive:original.meta.media.color_range">mpeg</property>
  <property name="kdenlive:original.kdenlive:id">175</property>
  <property name="kdenlive:original.kdenlive:file_size">141056</property>
  <property name="kdenlive:original.kdenlive:file_hash">ee1b8c9648f979bd6b9b77000ef4c7a5</property>
  <property name="kdenlive:original.backup">1</property>
  <property name="kdenlive:file_hash">ee1b8c9648f979bd6b9b77000ef4c7a5</property>
  <property name="meta.media.nb_streams">1</property>
  <property name="meta.media.0.stream.type">video</property>
  <property name="meta.media.0.stream.frame_rate">60</property>
  <property name="meta.media.0.stream.sample_aspect_ratio">0</property>
  <property name="meta.media.0.codec.width">640</property>
  <property name="meta.media.0.codec.height">360</property>
  <property name="meta.media.0.codec.rotate">0</property>
  <property name="meta.media.0.codec.pix_fmt">yuv420p</property>
  <property name="meta.media.0.codec.sample_aspect_ratio">0</property>
  <property name="meta.media.0.codec.colorspace">601</property>
  <property name="meta.media.0.codec.name">h264</property>
  <property name="meta.media.0.codec.long_name">H.264 / AVC / MPEG-4 AVC / MPEG-4 part 10</property>
  <property name="meta.media.0.codec.bit_rate">1053008</property>
  <property name="meta.attr.0.stream.handler_name.markup">VideoHandler</property>
  <property name="meta.attr.0.stream.vendor_id.markup">FFMP</property>
  <property name="meta.attr.0.stream.encoder.markup">Lavc58.134.100 libx264</property>
  <property name="meta.attr.major_brand.markup">qt  </property>
  <property name="meta.attr.minor_version.markup">512</property>
  <property name="meta.attr.compatible_brands.markup">qt  </property>
  <property name="meta.attr.encoder.markup">Lavf58.76.100</property>
  <property name="meta.attr.comment.markup">Rendered with Manim Community v0.12.0</property>
  <property name="meta.media.sample_aspect_num">1</property>
  <property name="meta.media.sample_aspect_den">1</property>
  <property name="meta.media.frame_rate_num">60</property>
  <property name="meta.media.frame_rate_den">1</property>
  <property name="meta.media.colorspace">601</property>
  <property name="meta.media.color_trc">2</property>
  <property name="meta.media.has_b_frames">0</property>
  <property name="meta.media.width">640</property>
  <property name="meta.media.height">360</property>
  <property name="meta.media.color_range">mpeg</property>
 </producer>
 <producer id="producer154" in="00:00:00.000" out="00:00:01.483">
  <property name="length">90</property>
  <property name="eof">pause</property>
  <property name="resource">/home/xiaoxiae/.cache/kdenlive/proxy/dc960b036030790bb6f5397fb6cdf5b7.mov</property>
  <property name="audio_index">-1</property>
  <property name="video_index">0</property>
  <property name="mute_on_pause">0</property>
  <property name="mlt_service">avformat-novalidate</property>
  <property name="seekable">1</property>
  <property name="aspect_ratio">1</property>
  <property name="kdenlive:clipname">13.mp4</property>
  <property name="kdenlive:folderid">171</property>
  <property name="kdenlive:id">175</property>
  <property name="kdenlive:file_size">1409800</property>
  <property name="kdenlive:proxy">/home/xiaoxiae/.cache/kdenlive/proxy/dc960b036030790bb6f5397fb6cdf5b7.mov</property>
  <property name="kdenlive:originalurl">video/Motivation/vid/13.mp4</property>
  <property name="kdenlive:original.mlt_type">producer</property>
  <property name="kdenlive:original.in">0</property>
  <property name="kdenlive:original.out">89</property>
  <property name="kdenlive:original.length">90</property>
  <property name="kdenlive:original.eof">pause</property>
  <property name="kdenlive:original.resource">video/Motivation/vid/13.mp4</property>
  <property name="kdenlive:original.meta.media.nb_streams">1</property>
  <property name="kdenlive:original.meta.media.0.stream.type">video</property>
  <property name="kdenlive:original.meta.media.0.stream.frame_rate">60</property>
  <property name="kdenlive:original.meta.media.0.stream.sample_aspect_ratio">0</property>
  <property name="kdenlive:original.meta.media.0.codec.width">3840</property>
  <property name="kdenlive:original.meta.media.0.codec.height">2160</property>
  <property name="kdenlive:original.meta.media.0.codec.rotate">0</property>
  <property name="kdenlive:original.meta.media.0.codec.pix_fmt">yuv420p</property>
  <property name="kdenlive:original.meta.media.0.codec.sample_aspect_ratio">0</property>
  <property name="kdenlive:original.meta.media.0.codec.colorspace">709</property>
  <property name="kdenlive:original.meta.media.0.codec.name">h264</property>
  <property name="kdenlive:original.meta.media.0.codec.long_name">H.264 / AVC / MPEG-4 AVC / MPEG-4 part 10</property>
  <property name="kdenlive:original.meta.media.0.codec.bit_rate">7510442</property>
  <property name="kdenlive:original.meta.attr.0.stream.handler_name.markup">VideoHandler</property>
  <property name="kdenlive:original.meta.attr.0.stream.vendor_id.markup">[0][0][0][0]</property>
  <property name="kdenlive:original.meta.attr.major_brand.markup">isom</property>
  <property name="kdenlive:original.meta.attr.minor_version.markup">512</property>
  <property name="kdenlive:original.meta.attr.compatible_brands.markup">isomiso2avc1mp41</property>
  <property name="kdenlive:original.meta.attr.encoder.markup">Lavf58.76.100</property>
  <property name="kdenlive:original.meta.attr.comment.markup">Rendered with Manim Community v0.12.0</property>
  <property name="kdenlive:original.seekable">1</property>
  <property name="kdenlive:original.width">3840</property>
  <property name="kdenlive:original.height">2160</property>
  <property name="kdenlive:original.meta.media.sample_aspect_num">1</property>
  <property name="kdenlive:original.meta.media.sample_aspect_den">1</property>
  <property name="kdenlive:original.aspect_ratio">1</property>
  <property name="kdenlive:original.audio_index">-1</property>
  <property name="kdenlive:original.video_index">0</property>
  <property name="kdenlive:original.mute_on_pause">0</property>
  <property name="kdenlive:original.mlt_service">avformat-novalidate</property>
  <property name="kdenlive:original.kdenlive:folderid">171</property>
  <property name="kdenlive:original.meta.media.frame_rate_num">60</property>
  <property name="kdenlive:original.meta.media.frame_rate_den">1</property>
  <property name="kdenlive:original.meta.media.colorspace">709</property>
  <property name="kdenlive:original.meta.media.color_trc">2</property>
  <property name="kdenlive:original.meta.media.has_b_frames">2</property>
  <property name="kdenlive:original.meta.media.width">3840</property>
  <property name="kdenlive:original.meta.media.height">2160</property>
  <property name="kdenlive:original.meta.media.color_range">mpeg</property>
  <property name="kdenlive:original.kdenlive:id">176</property>
  <property name="kdenlive:original.kdenlive:file_size">1409800</property>
  <property name="kdenlive:original.kdenlive:file_hash">dc960b036030790bb6f5397fb6cdf5b7</property>
  <property name="kdenlive:original.backup">1</property>
  <property name="kdenlive:file_hash">dc960b036030790bb6f5397fb6cdf5b7</property>
  <property name="meta.media.nb_streams">1</property>
  <property name="meta.media.0.stream.type">video</property>
  <property name="meta.media.0.stream.frame_rate">60</property>
  <property name="meta.media.0.stream.sample_aspect_ratio">0</property>
  <property name="meta.media.0.codec.width">640</property>
  <property name="meta.media.0.codec.height">360</property>
  <property name="meta.media.0.codec.rotate">0</property>
  <property name="meta.media.0.codec.pix_fmt">yuv420p</property>
  <property name="meta.media.0.codec.sample_aspect_ratio">0</property>
  <property name="meta.media.0.codec.colorspace">601</property>
  <property name="meta.media.0.codec.name">h264</property>
  <property name="meta.media.0.codec.long_name">H.264 / AVC / MPEG-4 AVC / MPEG-4 part 10</property>
  <property name="meta.media.0.codec.bit_rate">3563792</property>
  <property name="meta.attr.0.stream.handler_name.markup">VideoHandler</property>
  <property name="meta.attr.0.stream.vendor_id.markup">FFMP</property>
  <property name="meta.attr.0.stream.encoder.markup">Lavc58.134.100 libx264</property>
  <property name="meta.attr.major_brand.markup">qt  </property>
  <property name="meta.attr.minor_version.markup">512</property>
  <property name="meta.attr.compatible_brands.markup">qt  </property>
  <property name="meta.attr.encoder.markup">Lavf58.76.100</property>
  <property name="meta.attr.comment.markup">Rendered with Manim Community v0.12.0</property>
  <property name="meta.media.sample_aspect_num">1</property>
  <property name="meta.media.sample_aspect_den">1</property>
  <property name="meta.media.frame_rate_num">60</property>
  <property name="meta.media.frame_rate_den">1</property>
  <property name="meta.media.colorspace">601</property>
  <property name="meta.media.color_trc">2</property>
  <property name="meta.media.has_b_frames">0</property>
  <property name="meta.media.width">640</property>
  <property name="meta.media.height">360</property>
  <property name="meta.media.color_range">mpeg</property>
 </producer>
 <producer id="producer156" in="00:00:00.000" out="00:00:00.983">
  <property name="length">60</property>
  <property name="eof">pause</property>
  <property name="resource">/home/xiaoxiae/.cache/kdenlive/proxy/17c8274494ef0ceee5846ceb6dae3a34.mov</property>
  <property name="audio_index">-1</property>
  <property name="video_index">0</property>
  <property name="mute_on_pause">0</property>
  <property name="mlt_service">avformat-novalidate</property>
  <property name="seekable">1</property>
  <property name="aspect_ratio">1</property>
  <property name="kdenlive:clipname">14.mp4</property>
  <property name="kdenlive:folderid">171</property>
  <property name="kdenlive:id">176</property>
  <property name="kdenlive:file_size">233731</property>
  <property name="kdenlive:proxy">/home/xiaoxiae/.cache/kdenlive/proxy/17c8274494ef0ceee5846ceb6dae3a34.mov</property>
  <property name="kdenlive:originalurl">video/Motivation/vid/14.mp4</property>
  <property name="kdenlive:original.mlt_type">producer</property>
  <property name="kdenlive:original.in">0</property>
  <property name="kdenlive:original.out">59</property>
  <property name="kdenlive:original.length">60</property>
  <property name="kdenlive:original.eof">pause</property>
  <property name="kdenlive:original.resource">video/Motivation/vid/14.mp4</property>
  <property name="kdenlive:original.meta.media.nb_streams">1</property>
  <property name="kdenlive:original.meta.media.0.stream.type">video</property>
  <property name="kdenlive:original.meta.media.0.stream.frame_rate">60</property>
  <property name="kdenlive:original.meta.media.0.stream.sample_aspect_ratio">0</property>
  <property name="kdenlive:original.meta.media.0.codec.width">3840</property>
  <property name="kdenlive:original.meta.media.0.codec.height">2160</property>
  <property name="kdenlive:original.meta.media.0.codec.rotate">0</property>
  <property name="kdenlive:original.meta.media.0.codec.pix_fmt">yuv420p</property>
  <property name="kdenlive:original.meta.media.0.codec.sample_aspect_ratio">0</property>
  <property name="kdenlive:original.meta.media.0.codec.colorspace">709</property>
  <property name="kdenlive:original.meta.media.0.codec.name">h264</property>
  <property name="kdenlive:original.meta.media.0.codec.long_name">H.264 / AVC / MPEG-4 AVC / MPEG-4 part 10</property>
  <property name="kdenlive:original.meta.media.0.codec.bit_rate">1856792</property>
  <property name="kdenlive:original.meta.attr.0.stream.handler_name.markup">VideoHandler</property>
  <property name="kdenlive:original.meta.attr.0.stream.vendor_id.markup">[0][0][0][0]</property>
  <property name="kdenlive:original.meta.attr.major_brand.markup">isom</property>
  <property name="kdenlive:original.meta.attr.minor_version.markup">512</property>
  <property name="kdenlive:original.meta.attr.compatible_brands.markup">isomiso2avc1mp41</property>
  <property name="kdenlive:original.meta.attr.encoder.markup">Lavf58.76.100</property>
  <property name="kdenlive:original.meta.attr.comment.markup">Rendered with Manim Community v0.12.0</property>
  <property name="kdenlive:original.seekable">1</property>
  <property name="kdenlive:original.width">3840</property>
  <property name="kdenlive:original.height">2160</property>
  <property name="kdenlive:original.meta.media.sample_aspect_num">1</property>
  <property name="kdenlive:original.meta.media.sample_aspect_den">1</property>
  <property name="kdenlive:original.aspect_ratio">1</property>
  <property name="kdenlive:original.audio_index">-1</property>
  <property name="kdenlive:original.video_index">0</property>
  <property name="kdenlive:original.mute_on_pause">0</property>
  <property name="kdenlive:original.mlt_service">avformat-novalidate</property>
  <property name="kdenlive:original.kdenlive:folderid">171</property>
  <property name="kdenlive:original.meta.media.frame_rate_num">60</property>
  <property name="kdenlive:original.meta.media.frame_rate_den">1</property>
  <property name="kdenlive:original.meta.media.colorspace">709</property>
  <property name="kdenlive:original.meta.media.color_trc">2</property>
  <property name="kdenlive:original.meta.media.has_b_frames">2</property>
  <property name="kdenlive:original.meta.media.width">3840</property>
  <property name="kdenlive:original.meta.media.height">2160</property>
  <property name="kdenlive:original.meta.media.color_range">mpeg</property>
  <property name="kdenlive:original.kdenlive:id">177</property>
  <property name="kdenlive:original.kdenlive:file_size">233731</property>
  <property name="kdenlive:original.kdenlive:file_hash">17c8274494ef0ceee5846ceb6dae3a34</property>
  <property name="kdenlive:original.backup">1</property>
  <property name="kdenlive:file_hash">17c8274494ef0ceee5846ceb6dae3a34</property>
  <property name="meta.media.nb_streams">1</property>
  <property name="meta.media.0.stream.type">video</property>
  <property name="meta.media.0.stream.frame_rate">60</property>
  <property name="meta.media.0.stream.sample_aspect_ratio">0</property>
  <property name="meta.media.0.codec.width">640</property>
  <property name="meta.media.0.codec.height">360</property>
  <property name="meta.media.0.codec.rotate">0</property>
  <property name="meta.media.0.codec.pix_fmt">yuv420p</property>
  <property name="meta.media.0.codec.sample_aspect_ratio">0</property>
  <property name="meta.media.0.codec.colorspace">601</property>
  <property name="meta.media.0.codec.name">h264</property>
  <property name="meta.media.0.codec.long_name">H.264 / AVC / MPEG-4 AVC / MPEG-4 part 10</property>
  <property name="meta.media.0.codec.bit_rate">3335176</property>
  <property name="meta.attr.0.stream.handler_name.markup">VideoHandler</property>
  <property name="meta.attr.0.stream.vendor_id.markup">FFMP</property>
  <property name="meta.attr.0.stream.encoder.markup">Lavc58.134.100 libx264</property>
  <property name="meta.attr.major_brand.markup">qt  </property>
  <property name="meta.attr.minor_version.markup">512</property>
  <property name="meta.attr.compatible_brands.markup">qt  </property>
  <property name="meta.attr.encoder.markup">Lavf58.76.100</property>
  <property name="meta.attr.comment.markup">Rendered with Manim Community v0.12.0</property>
  <property name="meta.media.sample_aspect_num">1</property>
  <property name="meta.media.sample_aspect_den">1</property>
  <property name="meta.media.frame_rate_num">60</property>
  <property name="meta.media.frame_rate_den">1</property>
  <property name="meta.media.colorspace">601</property>
  <property name="meta.media.color_trc">2</property>
  <property name="meta.media.has_b_frames">0</property>
  <property name="meta.media.width">640</property>
  <property name="meta.media.height">360</property>
  <property name="meta.media.color_range">mpeg</property>
 </producer>
 <producer id="producer157" in="00:00:00.000" out="00:00:02.183">
  <property name="length">132</property>
  <property name="eof">pause</property>
  <property name="resource">/home/xiaoxiae/.cache/kdenlive/proxy/5fe203903ba7f70f81e2b5bc6ab20df8.mov</property>
  <property name="audio_index">-1</property>
  <property name="video_index">0</property>
  <property name="mute_on_pause">0</property>
  <property name="mlt_service">avformat-novalidate</property>
  <property name="seekable">1</property>
  <property name="aspect_ratio">1</property>
  <property name="kdenlive:clipname">15.mp4</property>
  <property name="kdenlive:folderid">171</property>
  <property name="kdenlive:id">177</property>
  <property name="kdenlive:file_size">220287</property>
  <property name="kdenlive:proxy">/home/xiaoxiae/.cache/kdenlive/proxy/5fe203903ba7f70f81e2b5bc6ab20df8.mov</property>
  <property name="kdenlive:originalurl">video/Motivation/vid/15.mp4</property>
  <property name="kdenlive:original.mlt_type">producer</property>
  <property name="kdenlive:original.in">0</property>
  <property name="kdenlive:original.out">131</property>
  <property name="kdenlive:original.length">132</property>
  <property name="kdenlive:original.eof">pause</property>
  <property name="kdenlive:original.resource">video/Motivation/vid/15.mp4</property>
  <property name="kdenlive:original.meta.media.nb_streams">1</property>
  <property name="kdenlive:original.meta.media.0.stream.type">video</property>
  <property name="kdenlive:original.meta.media.0.stream.frame_rate">60</property>
  <property name="kdenlive:original.meta.media.0.stream.sample_aspect_ratio">0</property>
  <property name="kdenlive:original.meta.media.0.codec.width">3840</property>
  <property name="kdenlive:original.meta.media.0.codec.height">2160</property>
  <property name="kdenlive:original.meta.media.0.codec.rotate">0</property>
  <property name="kdenlive:original.meta.media.0.codec.pix_fmt">yuv420p</property>
  <property name="kdenlive:original.meta.media.0.codec.sample_aspect_ratio">0</property>
  <property name="kdenlive:original.meta.media.0.codec.colorspace">709</property>
  <property name="kdenlive:original.meta.media.0.codec.name">h264</property>
  <property name="kdenlive:original.meta.media.0.codec.long_name">H.264 / AVC / MPEG-4 AVC / MPEG-4 part 10</property>
  <property name="kdenlive:original.meta.media.0.codec.bit_rate">792141</property>
  <property name="kdenlive:original.meta.attr.0.stream.handler_name.markup">VideoHandler</property>
  <property name="kdenlive:original.meta.attr.0.stream.vendor_id.markup">[0][0][0][0]</property>
  <property name="kdenlive:original.meta.attr.major_brand.markup">isom</property>
  <property name="kdenlive:original.meta.attr.minor_version.markup">512</property>
  <property name="kdenlive:original.meta.attr.compatible_brands.markup">isomiso2avc1mp41</property>
  <property name="kdenlive:original.meta.attr.encoder.markup">Lavf58.76.100</property>
  <property name="kdenlive:original.meta.attr.comment.markup">Rendered with Manim Community v0.12.0</property>
  <property name="kdenlive:original.seekable">1</property>
  <property name="kdenlive:original.width">3840</property>
  <property name="kdenlive:original.height">2160</property>
  <property name="kdenlive:original.meta.media.sample_aspect_num">1</property>
  <property name="kdenlive:original.meta.media.sample_aspect_den">1</property>
  <property name="kdenlive:original.aspect_ratio">1</property>
  <property name="kdenlive:original.audio_index">-1</property>
  <property name="kdenlive:original.video_index">0</property>
  <property name="kdenlive:original.mute_on_pause">0</property>
  <property name="kdenlive:original.mlt_service">avformat-novalidate</property>
  <property name="kdenlive:original.kdenlive:folderid">171</property>
  <property name="kdenlive:original.meta.media.frame_rate_num">60</property>
  <property name="kdenlive:original.meta.media.frame_rate_den">1</property>
  <property name="kdenlive:original.meta.media.colorspace">709</property>
  <property name="kdenlive:original.meta.media.color_trc">2</property>
  <property name="kdenlive:original.meta.media.has_b_frames">2</property>
  <property name="kdenlive:original.meta.media.width">3840</property>
  <property name="kdenlive:original.meta.media.height">2160</property>
  <property name="kdenlive:original.meta.media.color_range">mpeg</property>
  <property name="kdenlive:original.kdenlive:id">178</property>
  <property name="kdenlive:original.kdenlive:file_size">220287</property>
  <property name="kdenlive:original.kdenlive:file_hash">5fe203903ba7f70f81e2b5bc6ab20df8</property>
  <property name="kdenlive:original.backup">1</property>
  <property name="kdenlive:file_hash">5fe203903ba7f70f81e2b5bc6ab20df8</property>
  <property name="meta.media.nb_streams">1</property>
  <property name="meta.media.0.stream.type">video</property>
  <property name="meta.media.0.stream.frame_rate">60</property>
  <property name="meta.media.0.stream.sample_aspect_ratio">0</property>
  <property name="meta.media.0.codec.width">640</property>
  <property name="meta.media.0.codec.height">360</property>
  <property name="meta.media.0.codec.rotate">0</property>
  <property name="meta.media.0.codec.pix_fmt">yuv420p</property>
  <property name="meta.media.0.codec.sample_aspect_ratio">0</property>
  <property name="meta.media.0.codec.colorspace">601</property>
  <property name="meta.media.0.codec.name">h264</property>
  <property name="meta.media.0.codec.long_name">H.264 / AVC / MPEG-4 AVC / MPEG-4 part 10</property>
  <property name="meta.media.0.codec.bit_rate">3355454</property>
  <property name="meta.attr.0.stream.handler_name.markup">VideoHandler</property>
  <property name="meta.attr.0.stream.vendor_id.markup">FFMP</property>
  <property name="meta.attr.0.stream.encoder.markup">Lavc58.134.100 libx264</property>
  <property name="meta.attr.major_brand.markup">qt  </property>
  <property name="meta.attr.minor_version.markup">512</property>
  <property name="meta.attr.compatible_brands.markup">qt  </property>
  <property name="meta.attr.encoder.markup">Lavf58.76.100</property>
  <property name="meta.attr.comment.markup">Rendered with Manim Community v0.12.0</property>
  <property name="meta.media.sample_aspect_num">1</property>
  <property name="meta.media.sample_aspect_den">1</property>
  <property name="meta.media.frame_rate_num">60</property>
  <property name="meta.media.frame_rate_den">1</property>
  <property name="meta.media.colorspace">601</property>
  <property name="meta.media.color_trc">2</property>
  <property name="meta.media.has_b_frames">0</property>
  <property name="meta.media.width">640</property>
  <property name="meta.media.height">360</property>
  <property name="meta.media.color_range">mpeg</property>
 </producer>
 <producer id="producer158" in="00:00:00.000" out="00:00:00.983">
  <property name="length">60</property>
  <property name="eof">pause</property>
  <property name="resource">/home/xiaoxiae/.cache/kdenlive/proxy/aa93ae1fef4ff60c703bbafb7ad0c8d2.mov</property>
  <property name="audio_index">-1</property>
  <property name="video_index">0</property>
  <property name="mute_on_pause">0</property>
  <property name="mlt_service">avformat-novalidate</property>
  <property name="seekable">1</property>
  <property name="aspect_ratio">1</property>
  <property name="kdenlive:clipname">16.mp4</property>
  <property name="kdenlive:folderid">171</property>
  <property name="kdenlive:id">178</property>
  <property name="kdenlive:file_size">443550</property>
  <property name="kdenlive:proxy">/home/xiaoxiae/.cache/kdenlive/proxy/aa93ae1fef4ff60c703bbafb7ad0c8d2.mov</property>
  <property name="kdenlive:originalurl">video/Motivation/vid/16.mp4</property>
  <property name="kdenlive:original.mlt_type">producer</property>
  <property name="kdenlive:original.in">0</property>
  <property name="kdenlive:original.out">59</property>
  <property name="kdenlive:original.length">60</property>
  <property name="kdenlive:original.eof">pause</property>
  <property name="kdenlive:original.resource">video/Motivation/vid/16.mp4</property>
  <property name="kdenlive:original.meta.media.nb_streams">1</property>
  <property name="kdenlive:original.meta.media.0.stream.type">video</property>
  <property name="kdenlive:original.meta.media.0.stream.frame_rate">60</property>
  <property name="kdenlive:original.meta.media.0.stream.sample_aspect_ratio">0</property>
  <property name="kdenlive:original.meta.media.0.codec.width">3840</property>
  <property name="kdenlive:original.meta.media.0.codec.height">2160</property>
  <property name="kdenlive:original.meta.media.0.codec.rotate">0</property>
  <property name="kdenlive:original.meta.media.0.codec.pix_fmt">yuv420p</property>
  <property name="kdenlive:original.meta.media.0.codec.sample_aspect_ratio">0</property>
  <property name="kdenlive:original.meta.media.0.codec.colorspace">709</property>
  <property name="kdenlive:original.meta.media.0.codec.name">h264</property>
  <property name="kdenlive:original.meta.media.0.codec.long_name">H.264 / AVC / MPEG-4 AVC / MPEG-4 part 10</property>
  <property name="kdenlive:original.meta.media.0.codec.bit_rate">3536048</property>
  <property name="kdenlive:original.meta.attr.0.stream.handler_name.markup">VideoHandler</property>
  <property name="kdenlive:original.meta.attr.0.stream.vendor_id.markup">[0][0][0][0]</property>
  <property name="kdenlive:original.meta.attr.major_brand.markup">isom</property>
  <property name="kdenlive:original.meta.attr.minor_version.markup">512</property>
  <property name="kdenlive:original.meta.attr.compatible_brands.markup">isomiso2avc1mp41</property>
  <property name="kdenlive:original.meta.attr.encoder.markup">Lavf58.76.100</property>
  <property name="kdenlive:original.meta.attr.comment.markup">Rendered with Manim Community v0.12.0</property>
  <property name="kdenlive:original.seekable">1</property>
  <property name="kdenlive:original.width">3840</property>
  <property name="kdenlive:original.height">2160</property>
  <property name="kdenlive:original.meta.media.sample_aspect_num">1</property>
  <property name="kdenlive:original.meta.media.sample_aspect_den">1</property>
  <property name="kdenlive:original.aspect_ratio">1</property>
  <property name="kdenlive:original.audio_index">-1</property>
  <property name="kdenlive:original.video_index">0</property>
  <property name="kdenlive:original.mute_on_pause">0</property>
  <property name="kdenlive:original.mlt_service">avformat-novalidate</property>
  <property name="kdenlive:original.kdenlive:folderid">171</property>
  <property name="kdenlive:original.meta.media.frame_rate_num">60</property>
  <property name="kdenlive:original.meta.media.frame_rate_den">1</property>
  <property name="kdenlive:original.meta.media.colorspace">709</property>
  <property name="kdenlive:original.meta.media.color_trc">2</property>
  <property name="kdenlive:original.meta.media.has_b_frames">2</property>
  <property name="kdenlive:original.meta.media.width">3840</property>
  <property name="kdenlive:original.meta.media.height">2160</property>
  <property name="kdenlive:original.meta.media.color_range">mpeg</property>
  <property name="kdenlive:original.kdenlive:id">179</property>
  <property name="kdenlive:original.kdenlive:file_size">443550</property>
  <property name="kdenlive:original.kdenlive:file_hash">aa93ae1fef4ff60c703bbafb7ad0c8d2</property>
  <property name="kdenlive:original.backup">1</property>
  <property name="kdenlive:file_hash">aa93ae1fef4ff60c703bbafb7ad0c8d2</property>
  <property name="meta.media.nb_streams">1</property>
  <property name="meta.media.0.stream.type">video</property>
  <property name="meta.media.0.stream.frame_rate">60</property>
  <property name="meta.media.0.stream.sample_aspect_ratio">0</property>
  <property name="meta.media.0.codec.width">640</property>
  <property name="meta.media.0.codec.height">360</property>
  <property name="meta.media.0.codec.rotate">0</property>
  <property name="meta.media.0.codec.pix_fmt">yuv420p</property>
  <property name="meta.media.0.codec.sample_aspect_ratio">0</property>
  <property name="meta.media.0.codec.colorspace">601</property>
  <property name="meta.media.0.codec.name">h264</property>
  <property name="meta.media.0.codec.long_name">H.264 / AVC / MPEG-4 AVC / MPEG-4 part 10</property>
  <property name="meta.media.0.codec.bit_rate">2590480</property>
  <property name="meta.attr.0.stream.handler_name.markup">VideoHandler</property>
  <property name="meta.attr.0.stream.vendor_id.markup">FFMP</property>
  <property name="meta.attr.0.stream.encoder.markup">Lavc58.134.100 libx264</property>
  <property name="meta.attr.major_brand.markup">qt  </property>
  <property name="meta.attr.minor_version.markup">512</property>
  <property name="meta.attr.compatible_brands.markup">qt  </property>
  <property name="meta.attr.encoder.markup">Lavf58.76.100</property>
  <property name="meta.attr.comment.markup">Rendered with Manim Community v0.12.0</property>
  <property name="meta.media.sample_aspect_num">1</property>
  <property name="meta.media.sample_aspect_den">1</property>
  <property name="meta.media.frame_rate_num">60</property>
  <property name="meta.media.frame_rate_den">1</property>
  <property name="meta.media.colorspace">601</property>
  <property name="meta.media.color_trc">2</property>
  <property name="meta.media.has_b_frames">0</property>
  <property name="meta.media.width">640</property>
  <property name="meta.media.height">360</property>
  <property name="meta.media.color_range">mpeg</property>
 </producer>
 <producer id="producer159" in="00:00:00.000" out="00:00:02.467">
  <property name="length">149</property>
  <property name="eof">pause</property>
  <property name="resource">/home/xiaoxiae/.cache/kdenlive/proxy/737eb706fc2eb7cc48540bd3e6771cf9.mov</property>
  <property name="audio_index">-1</property>
  <property name="video_index">0</property>
  <property name="mute_on_pause">0</property>
  <property name="mlt_service">avformat-novalidate</property>
  <property name="seekable">1</property>
  <property name="aspect_ratio">1</property>
  <property name="kdenlive:clipname">17.mp4</property>
  <property name="kdenlive:folderid">171</property>
  <property name="kdenlive:id">179</property>
  <property name="kdenlive:file_size">201944</property>
  <property name="kdenlive:proxy">/home/xiaoxiae/.cache/kdenlive/proxy/737eb706fc2eb7cc48540bd3e6771cf9.mov</property>
  <property name="kdenlive:originalurl">video/Motivation/vid/17.mp4</property>
  <property name="kdenlive:original.mlt_type">producer</property>
  <property name="kdenlive:original.in">0</property>
  <property name="kdenlive:original.out">148</property>
  <property name="kdenlive:original.length">149</property>
  <property name="kdenlive:original.eof">pause</property>
  <property name="kdenlive:original.resource">video/Motivation/vid/17.mp4</property>
  <property name="kdenlive:original.meta.media.nb_streams">1</property>
  <property name="kdenlive:original.meta.media.0.stream.type">video</property>
  <property name="kdenlive:original.meta.media.0.stream.frame_rate">60</property>
  <property name="kdenlive:original.meta.media.0.stream.sample_aspect_ratio">0</property>
  <property name="kdenlive:original.meta.media.0.codec.width">3840</property>
  <property name="kdenlive:original.meta.media.0.codec.height">2160</property>
  <property name="kdenlive:original.meta.media.0.codec.rotate">0</property>
  <property name="kdenlive:original.meta.media.0.codec.pix_fmt">yuv420p</property>
  <property name="kdenlive:original.meta.media.0.codec.sample_aspect_ratio">0</property>
  <property name="kdenlive:original.meta.media.0.codec.colorspace">709</property>
  <property name="kdenlive:original.meta.media.0.codec.name">h264</property>
  <property name="kdenlive:original.meta.media.0.codec.long_name">H.264 / AVC / MPEG-4 AVC / MPEG-4 part 10</property>
  <property name="kdenlive:original.meta.media.0.codec.bit_rate">642890</property>
  <property name="kdenlive:original.meta.attr.0.stream.handler_name.markup">VideoHandler</property>
  <property name="kdenlive:original.meta.attr.0.stream.vendor_id.markup">[0][0][0][0]</property>
  <property name="kdenlive:original.meta.attr.major_brand.markup">isom</property>
  <property name="kdenlive:original.meta.attr.minor_version.markup">512</property>
  <property name="kdenlive:original.meta.attr.compatible_brands.markup">isomiso2avc1mp41</property>
  <property name="kdenlive:original.meta.attr.encoder.markup">Lavf58.76.100</property>
  <property name="kdenlive:original.meta.attr.comment.markup">Rendered with Manim Community v0.12.0</property>
  <property name="kdenlive:original.seekable">1</property>
  <property name="kdenlive:original.width">3840</property>
  <property name="kdenlive:original.height">2160</property>
  <property name="kdenlive:original.meta.media.sample_aspect_num">1</property>
  <property name="kdenlive:original.meta.media.sample_aspect_den">1</property>
  <property name="kdenlive:original.aspect_ratio">1</property>
  <property name="kdenlive:original.audio_index">-1</property>
  <property name="kdenlive:original.video_index">0</property>
  <property name="kdenlive:original.mute_on_pause">0</property>
  <property name="kdenlive:original.mlt_service">avformat-novalidate</property>
  <property name="kdenlive:original.kdenlive:folderid">171</property>
  <property name="kdenlive:original.meta.media.frame_rate_num">60</property>
  <property name="kdenlive:original.meta.media.frame_rate_den">1</property>
  <property name="kdenlive:original.meta.media.colorspace">709</property>
  <property name="kdenlive:original.meta.media.color_trc">2</property>
  <property name="kdenlive:original.meta.media.has_b_frames">2</property>
  <property name="kdenlive:original.meta.media.width">3840</property>
  <property name="kdenlive:original.meta.media.height">2160</property>
  <property name="kdenlive:original.meta.media.color_range">mpeg</property>
  <property name="kdenlive:original.kdenlive:id">180</property>
  <property name="kdenlive:original.kdenlive:file_size">201944</property>
  <property name="kdenlive:original.kdenlive:file_hash">737eb706fc2eb7cc48540bd3e6771cf9</property>
  <property name="kdenlive:original.backup">1</property>
  <property name="kdenlive:file_hash">737eb706fc2eb7cc48540bd3e6771cf9</property>
  <property name="meta.media.nb_streams">1</property>
  <property name="meta.media.0.stream.type">video</property>
  <property name="meta.media.0.stream.frame_rate">60</property>
  <property name="meta.media.0.stream.sample_aspect_ratio">0</property>
  <property name="meta.media.0.codec.width">640</property>
  <property name="meta.media.0.codec.height">360</property>
  <property name="meta.media.0.codec.rotate">0</property>
  <property name="meta.media.0.codec.pix_fmt">yuv420p</property>
  <property name="meta.media.0.codec.sample_aspect_ratio">0</property>
  <property name="meta.media.0.codec.colorspace">601</property>
  <property name="meta.media.0.codec.name">h264</property>
  <property name="meta.media.0.codec.long_name">H.264 / AVC / MPEG-4 AVC / MPEG-4 part 10</property>
  <property name="meta.media.0.codec.bit_rate">869354</property>
  <property name="meta.attr.0.stream.handler_name.markup">VideoHandler</property>
  <property name="meta.attr.0.stream.vendor_id.markup">FFMP</property>
  <property name="meta.attr.0.stream.encoder.markup">Lavc58.134.100 libx264</property>
  <property name="meta.attr.major_brand.markup">qt  </property>
  <property name="meta.attr.minor_version.markup">512</property>
  <property name="meta.attr.compatible_brands.markup">qt  </property>
  <property name="meta.attr.encoder.markup">Lavf58.76.100</property>
  <property name="meta.attr.comment.markup">Rendered with Manim Community v0.12.0</property>
  <property name="meta.media.sample_aspect_num">1</property>
  <property name="meta.media.sample_aspect_den">1</property>
  <property name="meta.media.frame_rate_num">60</property>
  <property name="meta.media.frame_rate_den">1</property>
  <property name="meta.media.colorspace">601</property>
  <property name="meta.media.color_trc">2</property>
  <property name="meta.media.has_b_frames">0</property>
  <property name="meta.media.width">640</property>
  <property name="meta.media.height">360</property>
  <property name="meta.media.color_range">mpeg</property>
 </producer>
 <producer id="producer160" in="00:00:00.000" out="00:00:00.983">
  <property name="length">60</property>
  <property name="eof">pause</property>
  <property name="resource">/home/xiaoxiae/.cache/kdenlive/proxy/3df4333e8924915c52dc4ca46fe2ff5e.mov</property>
  <property name="audio_index">-1</property>
  <property name="video_index">0</property>
  <property name="mute_on_pause">0</property>
  <property name="mlt_service">avformat-novalidate</property>
  <property name="seekable">1</property>
  <property name="aspect_ratio">1</property>
  <property name="kdenlive:clipname">18.mp4</property>
  <property name="kdenlive:folderid">171</property>
  <property name="kdenlive:id">180</property>
  <property name="kdenlive:file_size">52304</property>
  <property name="kdenlive:proxy">/home/xiaoxiae/.cache/kdenlive/proxy/3df4333e8924915c52dc4ca46fe2ff5e.mov</property>
  <property name="kdenlive:originalurl">video/Motivation/vid/18.mp4</property>
  <property name="kdenlive:original.mlt_type">producer</property>
  <property name="kdenlive:original.in">0</property>
  <property name="kdenlive:original.out">59</property>
  <property name="kdenlive:original.length">60</property>
  <property name="kdenlive:original.eof">pause</property>
  <property name="kdenlive:original.resource">video/Motivation/vid/18.mp4</property>
  <property name="kdenlive:original.meta.media.nb_streams">1</property>
  <property name="kdenlive:original.meta.media.0.stream.type">video</property>
  <property name="kdenlive:original.meta.media.0.stream.frame_rate">60</property>
  <property name="kdenlive:original.meta.media.0.stream.sample_aspect_ratio">0</property>
  <property name="kdenlive:original.meta.media.0.codec.width">3840</property>
  <property name="kdenlive:original.meta.media.0.codec.height">2160</property>
  <property name="kdenlive:original.meta.media.0.codec.rotate">0</property>
  <property name="kdenlive:original.meta.media.0.codec.pix_fmt">yuv420p</property>
  <property name="kdenlive:original.meta.media.0.codec.sample_aspect_ratio">0</property>
  <property name="kdenlive:original.meta.media.0.codec.colorspace">709</property>
  <property name="kdenlive:original.meta.media.0.codec.name">h264</property>
  <property name="kdenlive:original.meta.media.0.codec.long_name">H.264 / AVC / MPEG-4 AVC / MPEG-4 part 10</property>
  <property name="kdenlive:original.meta.media.0.codec.bit_rate">405376</property>
  <property name="kdenlive:original.meta.attr.0.stream.handler_name.markup">VideoHandler</property>
  <property name="kdenlive:original.meta.attr.0.stream.vendor_id.markup">[0][0][0][0]</property>
  <property name="kdenlive:original.meta.attr.major_brand.markup">isom</property>
  <property name="kdenlive:original.meta.attr.minor_version.markup">512</property>
  <property name="kdenlive:original.meta.attr.compatible_brands.markup">isomiso2avc1mp41</property>
  <property name="kdenlive:original.meta.attr.encoder.markup">Lavf58.76.100</property>
  <property name="kdenlive:original.meta.attr.comment.markup">Rendered with Manim Community v0.12.0</property>
  <property name="kdenlive:original.seekable">1</property>
  <property name="kdenlive:original.width">3840</property>
  <property name="kdenlive:original.height">2160</property>
  <property name="kdenlive:original.meta.media.sample_aspect_num">1</property>
  <property name="kdenlive:original.meta.media.sample_aspect_den">1</property>
  <property name="kdenlive:original.aspect_ratio">1</property>
  <property name="kdenlive:original.audio_index">-1</property>
  <property name="kdenlive:original.video_index">0</property>
  <property name="kdenlive:original.mute_on_pause">0</property>
  <property name="kdenlive:original.mlt_service">avformat-novalidate</property>
  <property name="kdenlive:original.kdenlive:folderid">171</property>
  <property name="kdenlive:original.meta.media.frame_rate_num">60</property>
  <property name="kdenlive:original.meta.media.frame_rate_den">1</property>
  <property name="kdenlive:original.meta.media.colorspace">709</property>
  <property name="kdenlive:original.meta.media.color_trc">2</property>
  <property name="kdenlive:original.meta.media.has_b_frames">2</property>
  <property name="kdenlive:original.meta.media.width">3840</property>
  <property name="kdenlive:original.meta.media.height">2160</property>
  <property name="kdenlive:original.meta.media.color_range">mpeg</property>
  <property name="kdenlive:original.kdenlive:id">181</property>
  <property name="kdenlive:original.kdenlive:file_size">52304</property>
  <property name="kdenlive:original.kdenlive:file_hash">3df4333e8924915c52dc4ca46fe2ff5e</property>
  <property name="kdenlive:original.backup">1</property>
  <property name="kdenlive:file_hash">3df4333e8924915c52dc4ca46fe2ff5e</property>
  <property name="meta.media.nb_streams">1</property>
  <property name="meta.media.0.stream.type">video</property>
  <property name="meta.media.0.stream.frame_rate">60</property>
  <property name="meta.media.0.stream.sample_aspect_ratio">0</property>
  <property name="meta.media.0.codec.width">640</property>
  <property name="meta.media.0.codec.height">360</property>
  <property name="meta.media.0.codec.rotate">0</property>
  <property name="meta.media.0.codec.pix_fmt">yuv420p</property>
  <property name="meta.media.0.codec.sample_aspect_ratio">0</property>
  <property name="meta.media.0.codec.colorspace">601</property>
  <property name="meta.media.0.codec.name">h264</property>
  <property name="meta.media.0.codec.long_name">H.264 / AVC / MPEG-4 AVC / MPEG-4 part 10</property>
  <property name="meta.media.0.codec.bit_rate">1264808</property>
  <property name="meta.attr.0.stream.handler_name.markup">VideoHandler</property>
  <property name="meta.attr.0.stream.vendor_id.markup">FFMP</property>
  <property name="meta.attr.0.stream.encoder.markup">Lavc58.134.100 libx264</property>
  <property name="meta.attr.major_brand.markup">qt  </property>
  <property name="meta.attr.minor_version.markup">512</property>
  <property name="meta.attr.compatible_brands.markup">qt  </property>
  <property name="meta.attr.encoder.markup">Lavf58.76.100</property>
  <property name="meta.attr.comment.markup">Rendered with Manim Community v0.12.0</property>
  <property name="meta.media.sample_aspect_num">1</property>
  <property name="meta.media.sample_aspect_den">1</property>
  <property name="meta.media.frame_rate_num">60</property>
  <property name="meta.media.frame_rate_den">1</property>
  <property name="meta.media.colorspace">601</property>
  <property name="meta.media.color_trc">2</property>
  <property name="meta.media.has_b_frames">0</property>
  <property name="meta.media.width">640</property>
  <property name="meta.media.height">360</property>
  <property name="meta.media.color_range">mpeg</property>
 </producer>
 <producer id="producer161" in="00:00:00.000" out="00:00:00.983">
  <property name="length">60</property>
  <property name="eof">pause</property>
  <property name="resource">/home/xiaoxiae/.cache/kdenlive/proxy/fb56c08de2ca997c719c5e1e73ad19d0.mov</property>
  <property name="audio_index">-1</property>
  <property name="video_index">0</property>
  <property name="mute_on_pause">0</property>
  <property name="mlt_service">avformat-novalidate</property>
  <property name="seekable">1</property>
  <property name="aspect_ratio">1</property>
  <property name="kdenlive:clipname">19.mp4</property>
  <property name="kdenlive:folderid">171</property>
  <property name="kdenlive:id">181</property>
  <property name="kdenlive:file_size">49700</property>
  <property name="kdenlive:proxy">/home/xiaoxiae/.cache/kdenlive/proxy/fb56c08de2ca997c719c5e1e73ad19d0.mov</property>
  <property name="kdenlive:originalurl">video/Motivation/vid/19.mp4</property>
  <property name="kdenlive:original.mlt_type">producer</property>
  <property name="kdenlive:original.in">0</property>
  <property name="kdenlive:original.out">59</property>
  <property name="kdenlive:original.length">60</property>
  <property name="kdenlive:original.eof">pause</property>
  <property name="kdenlive:original.resource">video/Motivation/vid/19.mp4</property>
  <property name="kdenlive:original.meta.media.nb_streams">1</property>
  <property name="kdenlive:original.meta.media.0.stream.type">video</property>
  <property name="kdenlive:original.meta.media.0.stream.frame_rate">60</property>
  <property name="kdenlive:original.meta.media.0.stream.sample_aspect_ratio">0</property>
  <property name="kdenlive:original.meta.media.0.codec.width">3840</property>
  <property name="kdenlive:original.meta.media.0.codec.height">2160</property>
  <property name="kdenlive:original.meta.media.0.codec.rotate">0</property>
  <property name="kdenlive:original.meta.media.0.codec.pix_fmt">yuv420p</property>
  <property name="kdenlive:original.meta.media.0.codec.sample_aspect_ratio">0</property>
  <property name="kdenlive:original.meta.media.0.codec.colorspace">709</property>
  <property name="kdenlive:original.meta.media.0.codec.name">h264</property>
  <property name="kdenlive:original.meta.media.0.codec.long_name">H.264 / AVC / MPEG-4 AVC / MPEG-4 part 10</property>
  <property name="kdenlive:original.meta.media.0.codec.bit_rate">384544</property>
  <property name="kdenlive:original.meta.attr.0.stream.handler_name.markup">VideoHandler</property>
  <property name="kdenlive:original.meta.attr.0.stream.vendor_id.markup">[0][0][0][0]</property>
  <property name="kdenlive:original.meta.attr.major_brand.markup">isom</property>
  <property name="kdenlive:original.meta.attr.minor_version.markup">512</property>
  <property name="kdenlive:original.meta.attr.compatible_brands.markup">isomiso2avc1mp41</property>
  <property name="kdenlive:original.meta.attr.encoder.markup">Lavf58.76.100</property>
  <property name="kdenlive:original.meta.attr.comment.markup">Rendered with Manim Community v0.12.0</property>
  <property name="kdenlive:original.seekable">1</property>
  <property name="kdenlive:original.width">3840</property>
  <property name="kdenlive:original.height">2160</property>
  <property name="kdenlive:original.meta.media.sample_aspect_num">1</property>
  <property name="kdenlive:original.meta.media.sample_aspect_den">1</property>
  <property name="kdenlive:original.aspect_ratio">1</property>
  <property name="kdenlive:original.audio_index">-1</property>
  <property name="kdenlive:original.video_index">0</property>
  <property name="kdenlive:original.mute_on_pause">0</property>
  <property name="kdenlive:original.mlt_service">avformat-novalidate</property>
  <property name="kdenlive:original.kdenlive:folderid">171</property>
  <property name="kdenlive:original.meta.media.frame_rate_num">60</property>
  <property name="kdenlive:original.meta.media.frame_rate_den">1</property>
  <property name="kdenlive:original.meta.media.colorspace">709</property>
  <property name="kdenlive:original.meta.media.color_trc">2</property>
  <property name="kdenlive:original.meta.media.has_b_frames">2</property>
  <property name="kdenlive:original.meta.media.width">3840</property>
  <property name="kdenlive:original.meta.media.height">2160</property>
  <property name="kdenlive:original.meta.media.color_range">mpeg</property>
  <property name="kdenlive:original.kdenlive:id">182</property>
  <property name="kdenlive:original.kdenlive:file_size">49700</property>
  <property name="kdenlive:original.kdenlive:file_hash">fb56c08de2ca997c719c5e1e73ad19d0</property>
  <property name="kdenlive:original.backup">1</property>
  <property name="kdenlive:file_hash">fb56c08de2ca997c719c5e1e73ad19d0</property>
  <property name="meta.media.nb_streams">1</property>
  <property name="meta.media.0.stream.type">video</property>
  <property name="meta.media.0.stream.frame_rate">60</property>
  <property name="meta.media.0.stream.sample_aspect_ratio">0</property>
  <property name="meta.media.0.codec.width">640</property>
  <property name="meta.media.0.codec.height">360</property>
  <property name="meta.media.0.codec.rotate">0</property>
  <property name="meta.media.0.codec.pix_fmt">yuv420p</property>
  <property name="meta.media.0.codec.sample_aspect_ratio">0</property>
  <property name="meta.media.0.codec.colorspace">601</property>
  <property name="meta.media.0.codec.name">h264</property>
  <property name="meta.media.0.codec.long_name">H.264 / AVC / MPEG-4 AVC / MPEG-4 part 10</property>
  <property name="meta.media.0.codec.bit_rate">1234264</property>
  <property name="meta.attr.0.stream.handler_name.markup">VideoHandler</property>
  <property name="meta.attr.0.stream.vendor_id.markup">FFMP</property>
  <property name="meta.attr.0.stream.encoder.markup">Lavc58.134.100 libx264</property>
  <property name="meta.attr.major_brand.markup">qt  </property>
  <property name="meta.attr.minor_version.markup">512</property>
  <property name="meta.attr.compatible_brands.markup">qt  </property>
  <property name="meta.attr.encoder.markup">Lavf58.76.100</property>
  <property name="meta.attr.comment.markup">Rendered with Manim Community v0.12.0</property>
  <property name="meta.media.sample_aspect_num">1</property>
  <property name="meta.media.sample_aspect_den">1</property>
  <property name="meta.media.frame_rate_num">60</property>
  <property name="meta.media.frame_rate_den">1</property>
  <property name="meta.media.colorspace">601</property>
  <property name="meta.media.color_trc">2</property>
  <property name="meta.media.has_b_frames">0</property>
  <property name="meta.media.width">640</property>
  <property name="meta.media.height">360</property>
  <property name="meta.media.color_range">mpeg</property>
 </producer>
 <producer id="producer162" in="00:00:00.000" out="00:00:02.867">
  <property name="length">173</property>
  <property name="eof">pause</property>
  <property name="resource">/home/xiaoxiae/.cache/kdenlive/proxy/ab47f4ef80f9e1493878a5ed98977dbd.mov</property>
  <property name="audio_index">-1</property>
  <property name="video_index">0</property>
  <property name="mute_on_pause">0</property>
  <property name="mlt_service">avformat-novalidate</property>
  <property name="seekable">1</property>
  <property name="aspect_ratio">1</property>
  <property name="kdenlive:clipname">2.mp4</property>
  <property name="kdenlive:folderid">171</property>
  <property name="kdenlive:id">182</property>
  <property name="kdenlive:file_size">233712</property>
  <property name="kdenlive:proxy">/home/xiaoxiae/.cache/kdenlive/proxy/ab47f4ef80f9e1493878a5ed98977dbd.mov</property>
  <property name="kdenlive:originalurl">video/Motivation/vid/2.mp4</property>
  <property name="kdenlive:original.mlt_type">producer</property>
  <property name="kdenlive:original.in">0</property>
  <property name="kdenlive:original.out">172</property>
  <property name="kdenlive:original.length">173</property>
  <property name="kdenlive:original.eof">pause</property>
  <property name="kdenlive:original.resource">video/Motivation/vid/2.mp4</property>
  <property name="kdenlive:original.meta.media.nb_streams">1</property>
  <property name="kdenlive:original.meta.media.0.stream.type">video</property>
  <property name="kdenlive:original.meta.media.0.stream.frame_rate">60</property>
  <property name="kdenlive:original.meta.media.0.stream.sample_aspect_ratio">0</property>
  <property name="kdenlive:original.meta.media.0.codec.width">3840</property>
  <property name="kdenlive:original.meta.media.0.codec.height">2160</property>
  <property name="kdenlive:original.meta.media.0.codec.rotate">0</property>
  <property name="kdenlive:original.meta.media.0.codec.pix_fmt">yuv420p</property>
  <property name="kdenlive:original.meta.media.0.codec.sample_aspect_ratio">0</property>
  <property name="kdenlive:original.meta.media.0.codec.colorspace">709</property>
  <property name="kdenlive:original.meta.media.0.codec.name">h264</property>
  <property name="kdenlive:original.meta.media.0.codec.long_name">H.264 / AVC / MPEG-4 AVC / MPEG-4 part 10</property>
  <property name="kdenlive:original.meta.media.0.codec.bit_rate">640136</property>
  <property name="kdenlive:original.meta.attr.0.stream.handler_name.markup">VideoHandler</property>
  <property name="kdenlive:original.meta.attr.0.stream.vendor_id.markup">[0][0][0][0]</property>
  <property name="kdenlive:original.meta.attr.major_brand.markup">isom</property>
  <property name="kdenlive:original.meta.attr.minor_version.markup">512</property>
  <property name="kdenlive:original.meta.attr.compatible_brands.markup">isomiso2avc1mp41</property>
  <property name="kdenlive:original.meta.attr.encoder.markup">Lavf58.76.100</property>
  <property name="kdenlive:original.meta.attr.comment.markup">Rendered with Manim Community v0.12.0</property>
  <property name="kdenlive:original.seekable">1</property>
  <property name="kdenlive:original.width">3840</property>
  <property name="kdenlive:original.height">2160</property>
  <property name="kdenlive:original.meta.media.sample_aspect_num">1</property>
  <property name="kdenlive:original.meta.media.sample_aspect_den">1</property>
  <property name="kdenlive:original.aspect_ratio">1</property>
  <property name="kdenlive:original.audio_index">-1</property>
  <property name="kdenlive:original.video_index">0</property>
  <property name="kdenlive:original.mute_on_pause">0</property>
  <property name="kdenlive:original.mlt_service">avformat-novalidate</property>
  <property name="kdenlive:original.kdenlive:folderid">171</property>
  <property name="kdenlive:original.meta.media.frame_rate_num">60</property>
  <property name="kdenlive:original.meta.media.frame_rate_den">1</property>
  <property name="kdenlive:original.meta.media.colorspace">709</property>
  <property name="kdenlive:original.meta.media.color_trc">2</property>
  <property name="kdenlive:original.meta.media.has_b_frames">2</property>
  <property name="kdenlive:original.meta.media.width">3840</property>
  <property name="kdenlive:original.meta.media.height">2160</property>
  <property name="kdenlive:original.meta.media.color_range">mpeg</property>
  <property name="kdenlive:original.kdenlive:id">183</property>
  <property name="kdenlive:original.kdenlive:file_size">233712</property>
  <property name="kdenlive:original.kdenlive:file_hash">ab47f4ef80f9e1493878a5ed98977dbd</property>
  <property name="kdenlive:original.backup">1</property>
  <property name="kdenlive:file_hash">ab47f4ef80f9e1493878a5ed98977dbd</property>
  <property name="meta.media.nb_streams">1</property>
  <property name="meta.media.0.stream.type">video</property>
  <property name="meta.media.0.stream.frame_rate">60</property>
  <property name="meta.media.0.stream.sample_aspect_ratio">0</property>
  <property name="meta.media.0.codec.width">640</property>
  <property name="meta.media.0.codec.height">360</property>
  <property name="meta.media.0.codec.rotate">0</property>
  <property name="meta.media.0.codec.pix_fmt">yuv420p</property>
  <property name="meta.media.0.codec.sample_aspect_ratio">0</property>
  <property name="meta.media.0.codec.colorspace">601</property>
  <property name="meta.media.0.codec.name">h264</property>
  <property name="meta.media.0.codec.long_name">H.264 / AVC / MPEG-4 AVC / MPEG-4 part 10</property>
  <property name="meta.media.0.codec.bit_rate">2363778</property>
  <property name="meta.attr.0.stream.handler_name.markup">VideoHandler</property>
  <property name="meta.attr.0.stream.vendor_id.markup">FFMP</property>
  <property name="meta.attr.0.stream.encoder.markup">Lavc58.134.100 libx264</property>
  <property name="meta.attr.major_brand.markup">qt  </property>
  <property name="meta.attr.minor_version.markup">512</property>
  <property name="meta.attr.compatible_brands.markup">qt  </property>
  <property name="meta.attr.encoder.markup">Lavf58.76.100</property>
  <property name="meta.attr.comment.markup">Rendered with Manim Community v0.12.0</property>
  <property name="meta.media.sample_aspect_num">1</property>
  <property name="meta.media.sample_aspect_den">1</property>
  <property name="meta.media.frame_rate_num">60</property>
  <property name="meta.media.frame_rate_den">1</property>
  <property name="meta.media.colorspace">601</property>
  <property name="meta.media.color_trc">2</property>
  <property name="meta.media.has_b_frames">0</property>
  <property name="meta.media.width">640</property>
  <property name="meta.media.height">360</property>
  <property name="meta.media.color_range">mpeg</property>
 </producer>
 <producer id="producer163" in="00:00:00.000" out="00:00:01.333">
  <property name="length">81</property>
  <property name="eof">pause</property>
  <property name="resource">/home/xiaoxiae/.cache/kdenlive/proxy/71df480305763501e5fab0eefb62bfc0.mov</property>
  <property name="audio_index">-1</property>
  <property name="video_index">0</property>
  <property name="mute_on_pause">0</property>
  <property name="mlt_service">avformat-novalidate</property>
  <property name="seekable">1</property>
  <property name="aspect_ratio">1</property>
  <property name="kdenlive:clipname">20.mp4</property>
  <property name="kdenlive:folderid">171</property>
  <property name="kdenlive:id">183</property>
  <property name="kdenlive:file_size">212736</property>
  <property name="kdenlive:proxy">/home/xiaoxiae/.cache/kdenlive/proxy/71df480305763501e5fab0eefb62bfc0.mov</property>
  <property name="kdenlive:originalurl">video/Motivation/vid/20.mp4</property>
  <property name="kdenlive:original.mlt_type">producer</property>
  <property name="kdenlive:original.in">0</property>
  <property name="kdenlive:original.out">80</property>
  <property name="kdenlive:original.length">81</property>
  <property name="kdenlive:original.eof">pause</property>
  <property name="kdenlive:original.resource">video/Motivation/vid/20.mp4</property>
  <property name="kdenlive:original.meta.media.nb_streams">1</property>
  <property name="kdenlive:original.meta.media.0.stream.type">video</property>
  <property name="kdenlive:original.meta.media.0.stream.frame_rate">60</property>
  <property name="kdenlive:original.meta.media.0.stream.sample_aspect_ratio">0</property>
  <property name="kdenlive:original.meta.media.0.codec.width">3840</property>
  <property name="kdenlive:original.meta.media.0.codec.height">2160</property>
  <property name="kdenlive:original.meta.media.0.codec.rotate">0</property>
  <property name="kdenlive:original.meta.media.0.codec.pix_fmt">yuv420p</property>
  <property name="kdenlive:original.meta.media.0.codec.sample_aspect_ratio">0</property>
  <property name="kdenlive:original.meta.media.0.codec.colorspace">709</property>
  <property name="kdenlive:original.meta.media.0.codec.name">h264</property>
  <property name="kdenlive:original.meta.media.0.codec.long_name">H.264 / AVC / MPEG-4 AVC / MPEG-4 part 10</property>
  <property name="kdenlive:original.meta.media.0.codec.bit_rate">1251484</property>
  <property name="kdenlive:original.meta.attr.0.stream.handler_name.markup">VideoHandler</property>
  <property name="kdenlive:original.meta.attr.0.stream.vendor_id.markup">[0][0][0][0]</property>
  <property name="kdenlive:original.meta.attr.major_brand.markup">isom</property>
  <property name="kdenlive:original.meta.attr.minor_version.markup">512</property>
  <property name="kdenlive:original.meta.attr.compatible_brands.markup">isomiso2avc1mp41</property>
  <property name="kdenlive:original.meta.attr.encoder.markup">Lavf58.76.100</property>
  <property name="kdenlive:original.meta.attr.comment.markup">Rendered with Manim Community v0.12.0</property>
  <property name="kdenlive:original.seekable">1</property>
  <property name="kdenlive:original.width">3840</property>
  <property name="kdenlive:original.height">2160</property>
  <property name="kdenlive:original.meta.media.sample_aspect_num">1</property>
  <property name="kdenlive:original.meta.media.sample_aspect_den">1</property>
  <property name="kdenlive:original.aspect_ratio">1</property>
  <property name="kdenlive:original.audio_index">-1</property>
  <property name="kdenlive:original.video_index">0</property>
  <property name="kdenlive:original.mute_on_pause">0</property>
  <property name="kdenlive:original.mlt_service">avformat-novalidate</property>
  <property name="kdenlive:original.kdenlive:folderid">171</property>
  <property name="kdenlive:original.meta.media.frame_rate_num">60</property>
  <property name="kdenlive:original.meta.media.frame_rate_den">1</property>
  <property name="kdenlive:original.meta.media.colorspace">709</property>
  <property name="kdenlive:original.meta.media.color_trc">2</property>
  <property name="kdenlive:original.meta.media.has_b_frames">2</property>
  <property name="kdenlive:original.meta.media.width">3840</property>
  <property name="kdenlive:original.meta.media.height">2160</property>
  <property name="kdenlive:original.meta.media.color_range">mpeg</property>
  <property name="kdenlive:original.kdenlive:id">184</property>
  <property name="kdenlive:original.kdenlive:file_size">212736</property>
  <property name="kdenlive:original.kdenlive:file_hash">71df480305763501e5fab0eefb62bfc0</property>
  <property name="kdenlive:original.backup">1</property>
  <property name="kdenlive:file_hash">71df480305763501e5fab0eefb62bfc0</property>
  <property name="meta.media.nb_streams">1</property>
  <property name="meta.media.0.stream.type">video</property>
  <property name="meta.media.0.stream.frame_rate">60</property>
  <property name="meta.media.0.stream.sample_aspect_ratio">0</property>
  <property name="meta.media.0.codec.width">640</property>
  <property name="meta.media.0.codec.height">360</property>
  <property name="meta.media.0.codec.rotate">0</property>
  <property name="meta.media.0.codec.pix_fmt">yuv420p</property>
  <property name="meta.media.0.codec.sample_aspect_ratio">0</property>
  <property name="meta.media.0.codec.colorspace">601</property>
  <property name="meta.media.0.codec.name">h264</property>
  <property name="meta.media.0.codec.long_name">H.264 / AVC / MPEG-4 AVC / MPEG-4 part 10</property>
  <property name="meta.media.0.codec.bit_rate">1741487</property>
  <property name="meta.attr.0.stream.handler_name.markup">VideoHandler</property>
  <property name="meta.attr.0.stream.vendor_id.markup">FFMP</property>
  <property name="meta.attr.0.stream.encoder.markup">Lavc58.134.100 libx264</property>
  <property name="meta.attr.major_brand.markup">qt  </property>
  <property name="meta.attr.minor_version.markup">512</property>
  <property name="meta.attr.compatible_brands.markup">qt  </property>
  <property name="meta.attr.encoder.markup">Lavf58.76.100</property>
  <property name="meta.attr.comment.markup">Rendered with Manim Community v0.12.0</property>
  <property name="meta.media.sample_aspect_num">1</property>
  <property name="meta.media.sample_aspect_den">1</property>
  <property name="meta.media.frame_rate_num">60</property>
  <property name="meta.media.frame_rate_den">1</property>
  <property name="meta.media.colorspace">601</property>
  <property name="meta.media.color_trc">2</property>
  <property name="meta.media.has_b_frames">0</property>
  <property name="meta.media.width">640</property>
  <property name="meta.media.height">360</property>
  <property name="meta.media.color_range">mpeg</property>
 </producer>
 <producer id="producer164" in="00:00:00.000" out="00:00:00.983">
  <property name="length">60</property>
  <property name="eof">pause</property>
  <property name="resource">/home/xiaoxiae/.cache/kdenlive/proxy/0acb33ae608f3ff250be2291bbcde068.mov</property>
  <property name="audio_index">-1</property>
  <property name="video_index">0</property>
  <property name="mute_on_pause">0</property>
  <property name="mlt_service">avformat-novalidate</property>
  <property name="seekable">1</property>
  <property name="aspect_ratio">1</property>
  <property name="kdenlive:clipname">21.mp4</property>
  <property name="kdenlive:folderid">171</property>
  <property name="kdenlive:id">184</property>
  <property name="kdenlive:file_size">116145</property>
  <property name="kdenlive:proxy">/home/xiaoxiae/.cache/kdenlive/proxy/0acb33ae608f3ff250be2291bbcde068.mov</property>
  <property name="kdenlive:originalurl">video/Motivation/vid/21.mp4</property>
  <property name="kdenlive:original.mlt_type">producer</property>
  <property name="kdenlive:original.in">0</property>
  <property name="kdenlive:original.out">59</property>
  <property name="kdenlive:original.length">60</property>
  <property name="kdenlive:original.eof">pause</property>
  <property name="kdenlive:original.resource">video/Motivation/vid/21.mp4</property>
  <property name="kdenlive:original.meta.media.nb_streams">1</property>
  <property name="kdenlive:original.meta.media.0.stream.type">video</property>
  <property name="kdenlive:original.meta.media.0.stream.frame_rate">60</property>
  <property name="kdenlive:original.meta.media.0.stream.sample_aspect_ratio">0</property>
  <property name="kdenlive:original.meta.media.0.codec.width">3840</property>
  <property name="kdenlive:original.meta.media.0.codec.height">2160</property>
  <property name="kdenlive:original.meta.media.0.codec.rotate">0</property>
  <property name="kdenlive:original.meta.media.0.codec.pix_fmt">yuv420p</property>
  <property name="kdenlive:original.meta.media.0.codec.sample_aspect_ratio">0</property>
  <property name="kdenlive:original.meta.media.0.codec.colorspace">709</property>
  <property name="kdenlive:original.meta.media.0.codec.name">h264</property>
  <property name="kdenlive:original.meta.media.0.codec.long_name">H.264 / AVC / MPEG-4 AVC / MPEG-4 part 10</property>
  <property name="kdenlive:original.meta.media.0.codec.bit_rate">916616</property>
  <property name="kdenlive:original.meta.attr.0.stream.handler_name.markup">VideoHandler</property>
  <property name="kdenlive:original.meta.attr.0.stream.vendor_id.markup">[0][0][0][0]</property>
  <property name="kdenlive:original.meta.attr.major_brand.markup">isom</property>
  <property name="kdenlive:original.meta.attr.minor_version.markup">512</property>
  <property name="kdenlive:original.meta.attr.compatible_brands.markup">isomiso2avc1mp41</property>
  <property name="kdenlive:original.meta.attr.encoder.markup">Lavf58.76.100</property>
  <property name="kdenlive:original.meta.attr.comment.markup">Rendered with Manim Community v0.12.0</property>
  <property name="kdenlive:original.seekable">1</property>
  <property name="kdenlive:original.width">3840</property>
  <property name="kdenlive:original.height">2160</property>
  <property name="kdenlive:original.meta.media.sample_aspect_num">1</property>
  <property name="kdenlive:original.meta.media.sample_aspect_den">1</property>
  <property name="kdenlive:original.aspect_ratio">1</property>
  <property name="kdenlive:original.audio_index">-1</property>
  <property name="kdenlive:original.video_index">0</property>
  <property name="kdenlive:original.mute_on_pause">0</property>
  <property name="kdenlive:original.mlt_service">avformat-novalidate</property>
  <property name="kdenlive:original.kdenlive:folderid">171</property>
  <property name="kdenlive:original.meta.media.frame_rate_num">60</property>
  <property name="kdenlive:original.meta.media.frame_rate_den">1</property>
  <property name="kdenlive:original.meta.media.colorspace">709</property>
  <property name="kdenlive:original.meta.media.color_trc">2</property>
  <property name="kdenlive:original.meta.media.has_b_frames">2</property>
  <property name="kdenlive:original.meta.media.width">3840</property>
  <property name="kdenlive:original.meta.media.height">2160</property>
  <property name="kdenlive:original.meta.media.color_range">mpeg</property>
  <property name="kdenlive:original.kdenlive:id">185</property>
  <property name="kdenlive:original.kdenlive:file_size">116145</property>
  <property name="kdenlive:original.kdenlive:file_hash">0acb33ae608f3ff250be2291bbcde068</property>
  <property name="kdenlive:original.backup">1</property>
  <property name="kdenlive:file_hash">0acb33ae608f3ff250be2291bbcde068</property>
  <property name="meta.media.nb_streams">1</property>
  <property name="meta.media.0.stream.type">video</property>
  <property name="meta.media.0.stream.frame_rate">60</property>
  <property name="meta.media.0.stream.sample_aspect_ratio">0</property>
  <property name="meta.media.0.codec.width">640</property>
  <property name="meta.media.0.codec.height">360</property>
  <property name="meta.media.0.codec.rotate">0</property>
  <property name="meta.media.0.codec.pix_fmt">yuv420p</property>
  <property name="meta.media.0.codec.sample_aspect_ratio">0</property>
  <property name="meta.media.0.codec.colorspace">601</property>
  <property name="meta.media.0.codec.name">h264</property>
  <property name="meta.media.0.codec.long_name">H.264 / AVC / MPEG-4 AVC / MPEG-4 part 10</property>
  <property name="meta.media.0.codec.bit_rate">2064904</property>
  <property name="meta.attr.0.stream.handler_name.markup">VideoHandler</property>
  <property name="meta.attr.0.stream.vendor_id.markup">FFMP</property>
  <property name="meta.attr.0.stream.encoder.markup">Lavc58.134.100 libx264</property>
  <property name="meta.attr.major_brand.markup">qt  </property>
  <property name="meta.attr.minor_version.markup">512</property>
  <property name="meta.attr.compatible_brands.markup">qt  </property>
  <property name="meta.attr.encoder.markup">Lavf58.76.100</property>
  <property name="meta.attr.comment.markup">Rendered with Manim Community v0.12.0</property>
  <property name="meta.media.sample_aspect_num">1</property>
  <property name="meta.media.sample_aspect_den">1</property>
  <property name="meta.media.frame_rate_num">60</property>
  <property name="meta.media.frame_rate_den">1</property>
  <property name="meta.media.colorspace">601</property>
  <property name="meta.media.color_trc">2</property>
  <property name="meta.media.has_b_frames">0</property>
  <property name="meta.media.width">640</property>
  <property name="meta.media.height">360</property>
  <property name="meta.media.color_range">mpeg</property>
 </producer>
 <producer id="producer165" in="00:00:00.000" out="00:00:00.483">
  <property name="length">30</property>
  <property name="eof">pause</property>
  <property name="resource">/home/xiaoxiae/.cache/kdenlive/proxy/3fee7031cda53ba59b9e0191fa64faba.mov</property>
  <property name="audio_index">-1</property>
  <property name="video_index">0</property>
  <property name="mute_on_pause">0</property>
  <property name="mlt_service">avformat-novalidate</property>
  <property name="seekable">1</property>
  <property name="aspect_ratio">1</property>
  <property name="kdenlive:clipname">22.mp4</property>
  <property name="kdenlive:folderid">171</property>
  <property name="kdenlive:id">185</property>
  <property name="kdenlive:file_size">63258</property>
  <property name="kdenlive:proxy">/home/xiaoxiae/.cache/kdenlive/proxy/3fee7031cda53ba59b9e0191fa64faba.mov</property>
  <property name="kdenlive:originalurl">video/Motivation/vid/22.mp4</property>
  <property name="kdenlive:original.mlt_type">producer</property>
  <property name="kdenlive:original.in">0</property>
  <property name="kdenlive:original.out">29</property>
  <property name="kdenlive:original.length">30</property>
  <property name="kdenlive:original.eof">pause</property>
  <property name="kdenlive:original.resource">video/Motivation/vid/22.mp4</property>
  <property name="kdenlive:original.meta.media.nb_streams">1</property>
  <property name="kdenlive:original.meta.media.0.stream.type">video</property>
  <property name="kdenlive:original.meta.media.0.stream.frame_rate">60</property>
  <property name="kdenlive:original.meta.media.0.stream.sample_aspect_ratio">0</property>
  <property name="kdenlive:original.meta.media.0.codec.width">3840</property>
  <property name="kdenlive:original.meta.media.0.codec.height">2160</property>
  <property name="kdenlive:original.meta.media.0.codec.rotate">0</property>
  <property name="kdenlive:original.meta.media.0.codec.pix_fmt">yuv420p</property>
  <property name="kdenlive:original.meta.media.0.codec.sample_aspect_ratio">0</property>
  <property name="kdenlive:original.meta.media.0.codec.colorspace">709</property>
  <property name="kdenlive:original.meta.media.0.codec.name">h264</property>
  <property name="kdenlive:original.meta.media.0.codec.long_name">H.264 / AVC / MPEG-4 AVC / MPEG-4 part 10</property>
  <property name="kdenlive:original.meta.media.0.codec.bit_rate">991648</property>
  <property name="kdenlive:original.meta.attr.0.stream.handler_name.markup">VideoHandler</property>
  <property name="kdenlive:original.meta.attr.0.stream.vendor_id.markup">[0][0][0][0]</property>
  <property name="kdenlive:original.meta.attr.major_brand.markup">isom</property>
  <property name="kdenlive:original.meta.attr.minor_version.markup">512</property>
  <property name="kdenlive:original.meta.attr.compatible_brands.markup">isomiso2avc1mp41</property>
  <property name="kdenlive:original.meta.attr.encoder.markup">Lavf58.76.100</property>
  <property name="kdenlive:original.meta.attr.comment.markup">Rendered with Manim Community v0.12.0</property>
  <property name="kdenlive:original.seekable">1</property>
  <property name="kdenlive:original.width">3840</property>
  <property name="kdenlive:original.height">2160</property>
  <property name="kdenlive:original.meta.media.sample_aspect_num">1</property>
  <property name="kdenlive:original.meta.media.sample_aspect_den">1</property>
  <property name="kdenlive:original.aspect_ratio">1</property>
  <property name="kdenlive:original.audio_index">-1</property>
  <property name="kdenlive:original.video_index">0</property>
  <property name="kdenlive:original.mute_on_pause">0</property>
  <property name="kdenlive:original.mlt_service">avformat-novalidate</property>
  <property name="kdenlive:original.kdenlive:folderid">171</property>
  <property name="kdenlive:original.meta.media.frame_rate_num">60</property>
  <property name="kdenlive:original.meta.media.frame_rate_den">1</property>
  <property name="kdenlive:original.meta.media.colorspace">709</property>
  <property name="kdenlive:original.meta.media.color_trc">2</property>
  <property name="kdenlive:original.meta.media.has_b_frames">2</property>
  <property name="kdenlive:original.meta.media.width">3840</property>
  <property name="kdenlive:original.meta.media.height">2160</property>
  <property name="kdenlive:original.meta.media.color_range">mpeg</property>
  <property name="kdenlive:original.kdenlive:id">186</property>
  <property name="kdenlive:original.kdenlive:file_size">63258</property>
  <property name="kdenlive:original.kdenlive:file_hash">3fee7031cda53ba59b9e0191fa64faba</property>
  <property name="kdenlive:original.backup">1</property>
  <property name="kdenlive:file_hash">3fee7031cda53ba59b9e0191fa64faba</property>
  <property name="meta.media.nb_streams">1</property>
  <property name="meta.media.0.stream.type">video</property>
  <property name="meta.media.0.stream.frame_rate">60</property>
  <property name="meta.media.0.stream.sample_aspect_ratio">0</property>
  <property name="meta.media.0.codec.width">640</property>
  <property name="meta.media.0.codec.height">360</property>
  <property name="meta.media.0.codec.rotate">0</property>
  <property name="meta.media.0.codec.pix_fmt">yuv420p</property>
  <property name="meta.media.0.codec.sample_aspect_ratio">0</property>
  <property name="meta.media.0.codec.colorspace">601</property>
  <property name="meta.media.0.codec.name">h264</property>
  <property name="meta.media.0.codec.long_name">H.264 / AVC / MPEG-4 AVC / MPEG-4 part 10</property>
  <property name="meta.media.0.codec.bit_rate">2112512</property>
  <property name="meta.attr.0.stream.handler_name.markup">VideoHandler</property>
  <property name="meta.attr.0.stream.vendor_id.markup">FFMP</property>
  <property name="meta.attr.0.stream.encoder.markup">Lavc58.134.100 libx264</property>
  <property name="meta.attr.major_brand.markup">qt  </property>
  <property name="meta.attr.minor_version.markup">512</property>
  <property name="meta.attr.compatible_brands.markup">qt  </property>
  <property name="meta.attr.encoder.markup">Lavf58.76.100</property>
  <property name="meta.attr.comment.markup">Rendered with Manim Community v0.12.0</property>
  <property name="meta.media.sample_aspect_num">1</property>
  <property name="meta.media.sample_aspect_den">1</property>
  <property name="meta.media.frame_rate_num">60</property>
  <property name="meta.media.frame_rate_den">1</property>
  <property name="meta.media.colorspace">601</property>
  <property name="meta.media.color_trc">2</property>
  <property name="meta.media.has_b_frames">0</property>
  <property name="meta.media.width">640</property>
  <property name="meta.media.height">360</property>
  <property name="meta.media.color_range">mpeg</property>
 </producer>
 <producer id="producer166" in="00:00:00.000" out="00:00:00.983">
  <property name="length">60</property>
  <property name="eof">pause</property>
  <property name="resource">/home/xiaoxiae/.cache/kdenlive/proxy/78b6163da73b782bcbeb61d25c473448.mov</property>
  <property name="audio_index">-1</property>
  <property name="video_index">0</property>
  <property name="mute_on_pause">0</property>
  <property name="mlt_service">avformat-novalidate</property>
  <property name="seekable">1</property>
  <property name="aspect_ratio">1</property>
  <property name="kdenlive:clipname">23.mp4</property>
  <property name="kdenlive:folderid">171</property>
  <property name="kdenlive:id">186</property>
  <property name="kdenlive:file_size">95492</property>
  <property name="kdenlive:proxy">/home/xiaoxiae/.cache/kdenlive/proxy/78b6163da73b782bcbeb61d25c473448.mov</property>
  <property name="kdenlive:originalurl">video/Motivation/vid/23.mp4</property>
  <property name="kdenlive:original.mlt_type">producer</property>
  <property name="kdenlive:original.in">0</property>
  <property name="kdenlive:original.out">59</property>
  <property name="kdenlive:original.length">60</property>
  <property name="kdenlive:original.eof">pause</property>
  <property name="kdenlive:original.resource">video/Motivation/vid/23.mp4</property>
  <property name="kdenlive:original.meta.media.nb_streams">1</property>
  <property name="kdenlive:original.meta.media.0.stream.type">video</property>
  <property name="kdenlive:original.meta.media.0.stream.frame_rate">60</property>
  <property name="kdenlive:original.meta.media.0.stream.sample_aspect_ratio">0</property>
  <property name="kdenlive:original.meta.media.0.codec.width">3840</property>
  <property name="kdenlive:original.meta.media.0.codec.height">2160</property>
  <property name="kdenlive:original.meta.media.0.codec.rotate">0</property>
  <property name="kdenlive:original.meta.media.0.codec.pix_fmt">yuv420p</property>
  <property name="kdenlive:original.meta.media.0.codec.sample_aspect_ratio">0</property>
  <property name="kdenlive:original.meta.media.0.codec.colorspace">709</property>
  <property name="kdenlive:original.meta.media.0.codec.name">h264</property>
  <property name="kdenlive:original.meta.media.0.codec.long_name">H.264 / AVC / MPEG-4 AVC / MPEG-4 part 10</property>
  <property name="kdenlive:original.meta.media.0.codec.bit_rate">750880</property>
  <property name="kdenlive:original.meta.attr.0.stream.handler_name.markup">VideoHandler</property>
  <property name="kdenlive:original.meta.attr.0.stream.vendor_id.markup">[0][0][0][0]</property>
  <property name="kdenlive:original.meta.attr.major_brand.markup">isom</property>
  <property name="kdenlive:original.meta.attr.minor_version.markup">512</property>
  <property name="kdenlive:original.meta.attr.compatible_brands.markup">isomiso2avc1mp41</property>
  <property name="kdenlive:original.meta.attr.encoder.markup">Lavf58.76.100</property>
  <property name="kdenlive:original.meta.attr.comment.markup">Rendered with Manim Community v0.12.0</property>
  <property name="kdenlive:original.seekable">1</property>
  <property name="kdenlive:original.width">3840</property>
  <property name="kdenlive:original.height">2160</property>
  <property name="kdenlive:original.meta.media.sample_aspect_num">1</property>
  <property name="kdenlive:original.meta.media.sample_aspect_den">1</property>
  <property name="kdenlive:original.aspect_ratio">1</property>
  <property name="kdenlive:original.audio_index">-1</property>
  <property name="kdenlive:original.video_index">0</property>
  <property name="kdenlive:original.mute_on_pause">0</property>
  <property name="kdenlive:original.mlt_service">avformat-novalidate</property>
  <property name="kdenlive:original.kdenlive:folderid">171</property>
  <property name="kdenlive:original.meta.media.frame_rate_num">60</property>
  <property name="kdenlive:original.meta.media.frame_rate_den">1</property>
  <property name="kdenlive:original.meta.media.colorspace">709</property>
  <property name="kdenlive:original.meta.media.color_trc">2</property>
  <property name="kdenlive:original.meta.media.has_b_frames">2</property>
  <property name="kdenlive:original.meta.media.width">3840</property>
  <property name="kdenlive:original.meta.media.height">2160</property>
  <property name="kdenlive:original.meta.media.color_range">mpeg</property>
  <property name="kdenlive:original.kdenlive:id">187</property>
  <property name="kdenlive:original.kdenlive:file_size">95492</property>
  <property name="kdenlive:original.kdenlive:file_hash">78b6163da73b782bcbeb61d25c473448</property>
  <property name="kdenlive:original.backup">1</property>
  <property name="kdenlive:file_hash">78b6163da73b782bcbeb61d25c473448</property>
  <property name="meta.media.nb_streams">1</property>
  <property name="meta.media.0.stream.type">video</property>
  <property name="meta.media.0.stream.frame_rate">60</property>
  <property name="meta.media.0.stream.sample_aspect_ratio">0</property>
  <property name="meta.media.0.codec.width">640</property>
  <property name="meta.media.0.codec.height">360</property>
  <property name="meta.media.0.codec.rotate">0</property>
  <property name="meta.media.0.codec.pix_fmt">yuv420p</property>
  <property name="meta.media.0.codec.sample_aspect_ratio">0</property>
  <property name="meta.media.0.codec.colorspace">601</property>
  <property name="meta.media.0.codec.name">h264</property>
  <property name="meta.media.0.codec.long_name">H.264 / AVC / MPEG-4 AVC / MPEG-4 part 10</property>
  <property name="meta.media.0.codec.bit_rate">2035800</property>
  <property name="meta.attr.0.stream.handler_name.markup">VideoHandler</property>
  <property name="meta.attr.0.stream.vendor_id.markup">FFMP</property>
  <property name="meta.attr.0.stream.encoder.markup">Lavc58.134.100 libx264</property>
  <property name="meta.attr.major_brand.markup">qt  </property>
  <property name="meta.attr.minor_version.markup">512</property>
  <property name="meta.attr.compatible_brands.markup">qt  </property>
  <property name="meta.attr.encoder.markup">Lavf58.76.100</property>
  <property name="meta.attr.comment.markup">Rendered with Manim Community v0.12.0</property>
  <property name="meta.media.sample_aspect_num">1</property>
  <property name="meta.media.sample_aspect_den">1</property>
  <property name="meta.media.frame_rate_num">60</property>
  <property name="meta.media.frame_rate_den">1</property>
  <property name="meta.media.colorspace">601</property>
  <property name="meta.media.color_trc">2</property>
  <property name="meta.media.has_b_frames">0</property>
  <property name="meta.media.width">640</property>
  <property name="meta.media.height">360</property>
  <property name="meta.media.color_range">mpeg</property>
 </producer>
 <producer id="producer167" in="00:00:00.000" out="00:00:01.783">
  <property name="length">108</property>
  <property name="eof">pause</property>
  <property name="resource">/home/xiaoxiae/.cache/kdenlive/proxy/41032412063fab96e293e556dc994d5e.mov</property>
  <property name="audio_index">-1</property>
  <property name="video_index">0</property>
  <property name="mute_on_pause">0</property>
  <property name="mlt_service">avformat-novalidate</property>
  <property name="seekable">1</property>
  <property name="aspect_ratio">1</property>
  <property name="kdenlive:clipname">24.mp4</property>
  <property name="kdenlive:folderid">171</property>
  <property name="kdenlive:id">187</property>
  <property name="kdenlive:file_size">482819</property>
  <property name="kdenlive:proxy">/home/xiaoxiae/.cache/kdenlive/proxy/41032412063fab96e293e556dc994d5e.mov</property>
  <property name="kdenlive:originalurl">video/Motivation/vid/24.mp4</property>
  <property name="kdenlive:original.mlt_type">producer</property>
  <property name="kdenlive:original.in">0</property>
  <property name="kdenlive:original.out">107</property>
  <property name="kdenlive:original.length">108</property>
  <property name="kdenlive:original.eof">pause</property>
  <property name="kdenlive:original.resource">video/Motivation/vid/24.mp4</property>
  <property name="kdenlive:original.meta.media.nb_streams">1</property>
  <property name="kdenlive:original.meta.media.0.stream.type">video</property>
  <property name="kdenlive:original.meta.media.0.stream.frame_rate">60</property>
  <property name="kdenlive:original.meta.media.0.stream.sample_aspect_ratio">0</property>
  <property name="kdenlive:original.meta.media.0.codec.width">3840</property>
  <property name="kdenlive:original.meta.media.0.codec.height">2160</property>
  <property name="kdenlive:original.meta.media.0.codec.rotate">0</property>
  <property name="kdenlive:original.meta.media.0.codec.pix_fmt">yuv420p</property>
  <property name="kdenlive:original.meta.media.0.codec.sample_aspect_ratio">0</property>
  <property name="kdenlive:original.meta.media.0.codec.colorspace">709</property>
  <property name="kdenlive:original.meta.media.0.codec.name">h264</property>
  <property name="kdenlive:original.meta.media.0.codec.long_name">H.264 / AVC / MPEG-4 AVC / MPEG-4 part 10</property>
  <property name="kdenlive:original.meta.media.0.codec.bit_rate">2138786</property>
  <property name="kdenlive:original.meta.attr.0.stream.handler_name.markup">VideoHandler</property>
  <property name="kdenlive:original.meta.attr.0.stream.vendor_id.markup">[0][0][0][0]</property>
  <property name="kdenlive:original.meta.attr.major_brand.markup">isom</property>
  <property name="kdenlive:original.meta.attr.minor_version.markup">512</property>
  <property name="kdenlive:original.meta.attr.compatible_brands.markup">isomiso2avc1mp41</property>
  <property name="kdenlive:original.meta.attr.encoder.markup">Lavf58.76.100</property>
  <property name="kdenlive:original.meta.attr.comment.markup">Rendered with Manim Community v0.12.0</property>
  <property name="kdenlive:original.seekable">1</property>
  <property name="kdenlive:original.width">3840</property>
  <property name="kdenlive:original.height">2160</property>
  <property name="kdenlive:original.meta.media.sample_aspect_num">1</property>
  <property name="kdenlive:original.meta.media.sample_aspect_den">1</property>
  <property name="kdenlive:original.aspect_ratio">1</property>
  <property name="kdenlive:original.audio_index">-1</property>
  <property name="kdenlive:original.video_index">0</property>
  <property name="kdenlive:original.mute_on_pause">0</property>
  <property name="kdenlive:original.mlt_service">avformat-novalidate</property>
  <property name="kdenlive:original.kdenlive:folderid">171</property>
  <property name="kdenlive:original.meta.media.frame_rate_num">60</property>
  <property name="kdenlive:original.meta.media.frame_rate_den">1</property>
  <property name="kdenlive:original.meta.media.colorspace">709</property>
  <property name="kdenlive:original.meta.media.color_trc">2</property>
  <property name="kdenlive:original.meta.media.has_b_frames">2</property>
  <property name="kdenlive:original.meta.media.width">3840</property>
  <property name="kdenlive:original.meta.media.height">2160</property>
  <property name="kdenlive:original.meta.media.color_range">mpeg</property>
  <property name="kdenlive:original.kdenlive:id">188</property>
  <property name="kdenlive:original.kdenlive:file_size">482819</property>
  <property name="kdenlive:original.kdenlive:file_hash">41032412063fab96e293e556dc994d5e</property>
  <property name="kdenlive:original.backup">1</property>
  <property name="kdenlive:file_hash">41032412063fab96e293e556dc994d5e</property>
  <property name="meta.media.nb_streams">1</property>
  <property name="meta.media.0.stream.type">video</property>
  <property name="meta.media.0.stream.frame_rate">60</property>
  <property name="meta.media.0.stream.sample_aspect_ratio">0</property>
  <property name="meta.media.0.codec.width">640</property>
  <property name="meta.media.0.codec.height">360</property>
  <property name="meta.media.0.codec.rotate">0</property>
  <property name="meta.media.0.codec.pix_fmt">yuv420p</property>
  <property name="meta.media.0.codec.sample_aspect_ratio">0</property>
  <property name="meta.media.0.codec.colorspace">601</property>
  <property name="meta.media.0.codec.name">h264</property>
  <property name="meta.media.0.codec.long_name">H.264 / AVC / MPEG-4 AVC / MPEG-4 part 10</property>
  <property name="meta.media.0.codec.bit_rate">2822293</property>
  <property name="meta.attr.0.stream.handler_name.markup">VideoHandler</property>
  <property name="meta.attr.0.stream.vendor_id.markup">FFMP</property>
  <property name="meta.attr.0.stream.encoder.markup">Lavc58.134.100 libx264</property>
  <property name="meta.attr.major_brand.markup">qt  </property>
  <property name="meta.attr.minor_version.markup">512</property>
  <property name="meta.attr.compatible_brands.markup">qt  </property>
  <property name="meta.attr.encoder.markup">Lavf58.76.100</property>
  <property name="meta.attr.comment.markup">Rendered with Manim Community v0.12.0</property>
  <property name="meta.media.sample_aspect_num">1</property>
  <property name="meta.media.sample_aspect_den">1</property>
  <property name="meta.media.frame_rate_num">60</property>
  <property name="meta.media.frame_rate_den">1</property>
  <property name="meta.media.colorspace">601</property>
  <property name="meta.media.color_trc">2</property>
  <property name="meta.media.has_b_frames">0</property>
  <property name="meta.media.width">640</property>
  <property name="meta.media.height">360</property>
  <property name="meta.media.color_range">mpeg</property>
 </producer>
 <producer id="producer168" in="00:00:00.000" out="00:00:00.983">
  <property name="length">60</property>
  <property name="eof">pause</property>
  <property name="resource">/home/xiaoxiae/.cache/kdenlive/proxy/acebef8360dad60194e0d79fef726d5c.mov</property>
  <property name="audio_index">-1</property>
  <property name="video_index">0</property>
  <property name="mute_on_pause">0</property>
  <property name="mlt_service">avformat-novalidate</property>
  <property name="seekable">1</property>
  <property name="aspect_ratio">1</property>
  <property name="kdenlive:clipname">25.mp4</property>
  <property name="kdenlive:folderid">171</property>
  <property name="kdenlive:id">188</property>
  <property name="kdenlive:file_size">156748</property>
  <property name="kdenlive:proxy">/home/xiaoxiae/.cache/kdenlive/proxy/acebef8360dad60194e0d79fef726d5c.mov</property>
  <property name="kdenlive:originalurl">video/Motivation/vid/25.mp4</property>
  <property name="kdenlive:original.mlt_type">producer</property>
  <property name="kdenlive:original.in">0</property>
  <property name="kdenlive:original.out">59</property>
  <property name="kdenlive:original.length">60</property>
  <property name="kdenlive:original.eof">pause</property>
  <property name="kdenlive:original.resource">video/Motivation/vid/25.mp4</property>
  <property name="kdenlive:original.meta.media.nb_streams">1</property>
  <property name="kdenlive:original.meta.media.0.stream.type">video</property>
  <property name="kdenlive:original.meta.media.0.stream.frame_rate">60</property>
  <property name="kdenlive:original.meta.media.0.stream.sample_aspect_ratio">0</property>
  <property name="kdenlive:original.meta.media.0.codec.width">3840</property>
  <property name="kdenlive:original.meta.media.0.codec.height">2160</property>
  <property name="kdenlive:original.meta.media.0.codec.rotate">0</property>
  <property name="kdenlive:original.meta.media.0.codec.pix_fmt">yuv420p</property>
  <property name="kdenlive:original.meta.media.0.codec.sample_aspect_ratio">0</property>
  <property name="kdenlive:original.meta.media.0.codec.colorspace">709</property>
  <property name="kdenlive:original.meta.media.0.codec.name">h264</property>
  <property name="kdenlive:original.meta.media.0.codec.long_name">H.264 / AVC / MPEG-4 AVC / MPEG-4 part 10</property>
  <property name="kdenlive:original.meta.media.0.codec.bit_rate">1240928</property>
  <property name="kdenlive:original.meta.attr.0.stream.handler_name.markup">VideoHandler</property>
  <property name="kdenlive:original.meta.attr.0.stream.vendor_id.markup">[0][0][0][0]</property>
  <property name="kdenlive:original.meta.attr.major_brand.markup">isom</property>
  <property name="kdenlive:original.meta.attr.minor_version.markup">512</property>
  <property name="kdenlive:original.meta.attr.compatible_brands.markup">isomiso2avc1mp41</property>
  <property name="kdenlive:original.meta.attr.encoder.markup">Lavf58.76.100</property>
  <property name="kdenlive:original.meta.attr.comment.markup">Rendered with Manim Community v0.12.0</property>
  <property name="kdenlive:original.seekable">1</property>
  <property name="kdenlive:original.width">3840</property>
  <property name="kdenlive:original.height">2160</property>
  <property name="kdenlive:original.meta.media.sample_aspect_num">1</property>
  <property name="kdenlive:original.meta.media.sample_aspect_den">1</property>
  <property name="kdenlive:original.aspect_ratio">1</property>
  <property name="kdenlive:original.audio_index">-1</property>
  <property name="kdenlive:original.video_index">0</property>
  <property name="kdenlive:original.mute_on_pause">0</property>
  <property name="kdenlive:original.mlt_service">avformat-novalidate</property>
  <property name="kdenlive:original.kdenlive:folderid">171</property>
  <property name="kdenlive:original.meta.media.frame_rate_num">60</property>
  <property name="kdenlive:original.meta.media.frame_rate_den">1</property>
  <property name="kdenlive:original.meta.media.colorspace">709</property>
  <property name="kdenlive:original.meta.media.color_trc">2</property>
  <property name="kdenlive:original.meta.media.has_b_frames">2</property>
  <property name="kdenlive:original.meta.media.width">3840</property>
  <property name="kdenlive:original.meta.media.height">2160</property>
  <property name="kdenlive:original.meta.media.color_range">mpeg</property>
  <property name="kdenlive:original.kdenlive:id">189</property>
  <property name="kdenlive:original.kdenlive:file_size">156748</property>
  <property name="kdenlive:original.kdenlive:file_hash">acebef8360dad60194e0d79fef726d5c</property>
  <property name="kdenlive:original.backup">1</property>
  <property name="kdenlive:file_hash">acebef8360dad60194e0d79fef726d5c</property>
  <property name="meta.media.nb_streams">1</property>
  <property name="meta.media.0.stream.type">video</property>
  <property name="meta.media.0.stream.frame_rate">60</property>
  <property name="meta.media.0.stream.sample_aspect_ratio">0</property>
  <property name="meta.media.0.codec.width">640</property>
  <property name="meta.media.0.codec.height">360</property>
  <property name="meta.media.0.codec.rotate">0</property>
  <property name="meta.media.0.codec.pix_fmt">yuv420p</property>
  <property name="meta.media.0.codec.sample_aspect_ratio">0</property>
  <property name="meta.media.0.codec.colorspace">601</property>
  <property name="meta.media.0.codec.name">h264</property>
  <property name="meta.media.0.codec.long_name">H.264 / AVC / MPEG-4 AVC / MPEG-4 part 10</property>
  <property name="meta.media.0.codec.bit_rate">3727168</property>
  <property name="meta.attr.0.stream.handler_name.markup">VideoHandler</property>
  <property name="meta.attr.0.stream.vendor_id.markup">FFMP</property>
  <property name="meta.attr.0.stream.encoder.markup">Lavc58.134.100 libx264</property>
  <property name="meta.attr.major_brand.markup">qt  </property>
  <property name="meta.attr.minor_version.markup">512</property>
  <property name="meta.attr.compatible_brands.markup">qt  </property>
  <property name="meta.attr.encoder.markup">Lavf58.76.100</property>
  <property name="meta.attr.comment.markup">Rendered with Manim Community v0.12.0</property>
  <property name="meta.media.sample_aspect_num">1</property>
  <property name="meta.media.sample_aspect_den">1</property>
  <property name="meta.media.frame_rate_num">60</property>
  <property name="meta.media.frame_rate_den">1</property>
  <property name="meta.media.colorspace">601</property>
  <property name="meta.media.color_trc">2</property>
  <property name="meta.media.has_b_frames">0</property>
  <property name="meta.media.width">640</property>
  <property name="meta.media.height">360</property>
  <property name="meta.media.color_range">mpeg</property>
 </producer>
 <producer id="producer169" in="00:00:00.000" out="00:00:00.983">
  <property name="length">60</property>
  <property name="eof">pause</property>
  <property name="resource">/home/xiaoxiae/.cache/kdenlive/proxy/570335d9bdf36204c580657ab249192c.mov</property>
  <property name="audio_index">-1</property>
  <property name="video_index">0</property>
  <property name="mute_on_pause">0</property>
  <property name="mlt_service">avformat-novalidate</property>
  <property name="seekable">1</property>
  <property name="aspect_ratio">1</property>
  <property name="kdenlive:clipname">26.mp4</property>
  <property name="kdenlive:folderid">171</property>
  <property name="kdenlive:file_size">269428</property>
  <property name="kdenlive:id">189</property>
  <property name="kdenlive:proxy">/home/xiaoxiae/.cache/kdenlive/proxy/570335d9bdf36204c580657ab249192c.mov</property>
  <property name="kdenlive:originalurl">video/Motivation/vid/26.mp4</property>
  <property name="kdenlive:original.mlt_type">producer</property>
  <property name="kdenlive:original.in">0</property>
  <property name="kdenlive:original.out">59</property>
  <property name="kdenlive:original.length">60</property>
  <property name="kdenlive:original.eof">pause</property>
  <property name="kdenlive:original.resource">video/Motivation/vid/26.mp4</property>
  <property name="kdenlive:original.meta.media.nb_streams">1</property>
  <property name="kdenlive:original.meta.media.0.stream.type">video</property>
  <property name="kdenlive:original.meta.media.0.stream.frame_rate">60</property>
  <property name="kdenlive:original.meta.media.0.stream.sample_aspect_ratio">0</property>
  <property name="kdenlive:original.meta.media.0.codec.width">3840</property>
  <property name="kdenlive:original.meta.media.0.codec.height">2160</property>
  <property name="kdenlive:original.meta.media.0.codec.rotate">0</property>
  <property name="kdenlive:original.meta.media.0.codec.pix_fmt">yuv420p</property>
  <property name="kdenlive:original.meta.media.0.codec.sample_aspect_ratio">0</property>
  <property name="kdenlive:original.meta.media.0.codec.colorspace">709</property>
  <property name="kdenlive:original.meta.media.0.codec.name">h264</property>
  <property name="kdenlive:original.meta.media.0.codec.long_name">H.264 / AVC / MPEG-4 AVC / MPEG-4 part 10</property>
  <property name="kdenlive:original.meta.media.0.codec.bit_rate">2142624</property>
  <property name="kdenlive:original.meta.attr.0.stream.handler_name.markup">VideoHandler</property>
  <property name="kdenlive:original.meta.attr.0.stream.vendor_id.markup">[0][0][0][0]</property>
  <property name="kdenlive:original.meta.attr.major_brand.markup">isom</property>
  <property name="kdenlive:original.meta.attr.minor_version.markup">512</property>
  <property name="kdenlive:original.meta.attr.compatible_brands.markup">isomiso2avc1mp41</property>
  <property name="kdenlive:original.meta.attr.encoder.markup">Lavf58.76.100</property>
  <property name="kdenlive:original.meta.attr.comment.markup">Rendered with Manim Community v0.12.0</property>
  <property name="kdenlive:original.seekable">1</property>
  <property name="kdenlive:original.width">3840</property>
  <property name="kdenlive:original.height">2160</property>
  <property name="kdenlive:original.meta.media.sample_aspect_num">1</property>
  <property name="kdenlive:original.meta.media.sample_aspect_den">1</property>
  <property name="kdenlive:original.aspect_ratio">1</property>
  <property name="kdenlive:original.audio_index">-1</property>
  <property name="kdenlive:original.video_index">0</property>
  <property name="kdenlive:original.mute_on_pause">0</property>
  <property name="kdenlive:original.mlt_service">avformat-novalidate</property>
  <property name="kdenlive:original.kdenlive:folderid">171</property>
  <property name="kdenlive:original.kdenlive:file_size">269428</property>
  <property name="kdenlive:original.meta.media.frame_rate_num">60</property>
  <property name="kdenlive:original.meta.media.frame_rate_den">1</property>
  <property name="kdenlive:original.meta.media.colorspace">709</property>
  <property name="kdenlive:original.meta.media.color_trc">2</property>
  <property name="kdenlive:original.meta.media.has_b_frames">2</property>
  <property name="kdenlive:original.meta.media.width">3840</property>
  <property name="kdenlive:original.meta.media.height">2160</property>
  <property name="kdenlive:original.meta.media.color_range">mpeg</property>
  <property name="kdenlive:original.kdenlive:id">190</property>
  <property name="kdenlive:original.kdenlive:file_hash">570335d9bdf36204c580657ab249192c</property>
  <property name="kdenlive:original.backup">1</property>
  <property name="kdenlive:file_hash">570335d9bdf36204c580657ab249192c</property>
  <property name="meta.media.nb_streams">1</property>
  <property name="meta.media.0.stream.type">video</property>
  <property name="meta.media.0.stream.frame_rate">60</property>
  <property name="meta.media.0.stream.sample_aspect_ratio">0</property>
  <property name="meta.media.0.codec.width">640</property>
  <property name="meta.media.0.codec.height">360</property>
  <property name="meta.media.0.codec.rotate">0</property>
  <property name="meta.media.0.codec.pix_fmt">yuv420p</property>
  <property name="meta.media.0.codec.sample_aspect_ratio">0</property>
  <property name="meta.media.0.codec.colorspace">601</property>
  <property name="meta.media.0.codec.name">h264</property>
  <property name="meta.media.0.codec.long_name">H.264 / AVC / MPEG-4 AVC / MPEG-4 part 10</property>
  <property name="meta.media.0.codec.bit_rate">3452952</property>
  <property name="meta.attr.0.stream.handler_name.markup">VideoHandler</property>
  <property name="meta.attr.0.stream.vendor_id.markup">FFMP</property>
  <property name="meta.attr.0.stream.encoder.markup">Lavc58.134.100 libx264</property>
  <property name="meta.attr.major_brand.markup">qt  </property>
  <property name="meta.attr.minor_version.markup">512</property>
  <property name="meta.attr.compatible_brands.markup">qt  </property>
  <property name="meta.attr.encoder.markup">Lavf58.76.100</property>
  <property name="meta.attr.comment.markup">Rendered with Manim Community v0.12.0</property>
  <property name="meta.media.sample_aspect_num">1</property>
  <property name="meta.media.sample_aspect_den">1</property>
  <property name="meta.media.frame_rate_num">60</property>
  <property name="meta.media.frame_rate_den">1</property>
  <property name="meta.media.colorspace">601</property>
  <property name="meta.media.color_trc">2</property>
  <property name="meta.media.has_b_frames">0</property>
  <property name="meta.media.width">640</property>
  <property name="meta.media.height">360</property>
  <property name="meta.media.color_range">mpeg</property>
 </producer>
 <producer id="producer170" in="00:00:00.000" out="00:00:00.983">
  <property name="length">60</property>
  <property name="eof">pause</property>
  <property name="resource">/home/xiaoxiae/.cache/kdenlive/proxy/8900df1b46674ad2b8f48bb4d4fa3444.mov</property>
  <property name="audio_index">-1</property>
  <property name="video_index">0</property>
  <property name="mute_on_pause">0</property>
  <property name="mlt_service">avformat-novalidate</property>
  <property name="seekable">1</property>
  <property name="aspect_ratio">1</property>
  <property name="kdenlive:clipname">27.mp4</property>
  <property name="kdenlive:folderid">171</property>
  <property name="kdenlive:id">190</property>
  <property name="kdenlive:file_size">369678</property>
  <property name="kdenlive:proxy">/home/xiaoxiae/.cache/kdenlive/proxy/8900df1b46674ad2b8f48bb4d4fa3444.mov</property>
  <property name="kdenlive:originalurl">video/Motivation/vid/27.mp4</property>
  <property name="kdenlive:original.mlt_type">producer</property>
  <property name="kdenlive:original.in">0</property>
  <property name="kdenlive:original.out">59</property>
  <property name="kdenlive:original.length">60</property>
  <property name="kdenlive:original.eof">pause</property>
  <property name="kdenlive:original.resource">video/Motivation/vid/27.mp4</property>
  <property name="kdenlive:original.meta.media.nb_streams">1</property>
  <property name="kdenlive:original.meta.media.0.stream.type">video</property>
  <property name="kdenlive:original.meta.media.0.stream.frame_rate">60</property>
  <property name="kdenlive:original.meta.media.0.stream.sample_aspect_ratio">0</property>
  <property name="kdenlive:original.meta.media.0.codec.width">3840</property>
  <property name="kdenlive:original.meta.media.0.codec.height">2160</property>
  <property name="kdenlive:original.meta.media.0.codec.rotate">0</property>
  <property name="kdenlive:original.meta.media.0.codec.pix_fmt">yuv420p</property>
  <property name="kdenlive:original.meta.media.0.codec.sample_aspect_ratio">0</property>
  <property name="kdenlive:original.meta.media.0.codec.colorspace">709</property>
  <property name="kdenlive:original.meta.media.0.codec.name">h264</property>
  <property name="kdenlive:original.meta.media.0.codec.long_name">H.264 / AVC / MPEG-4 AVC / MPEG-4 part 10</property>
  <property name="kdenlive:original.meta.media.0.codec.bit_rate">2944944</property>
  <property name="kdenlive:original.meta.attr.0.stream.handler_name.markup">VideoHandler</property>
  <property name="kdenlive:original.meta.attr.0.stream.vendor_id.markup">[0][0][0][0]</property>
  <property name="kdenlive:original.meta.attr.major_brand.markup">isom</property>
  <property name="kdenlive:original.meta.attr.minor_version.markup">512</property>
  <property name="kdenlive:original.meta.attr.compatible_brands.markup">isomiso2avc1mp41</property>
  <property name="kdenlive:original.meta.attr.encoder.markup">Lavf58.76.100</property>
  <property name="kdenlive:original.meta.attr.comment.markup">Rendered with Manim Community v0.12.0</property>
  <property name="kdenlive:original.seekable">1</property>
  <property name="kdenlive:original.width">3840</property>
  <property name="kdenlive:original.height">2160</property>
  <property name="kdenlive:original.meta.media.sample_aspect_num">1</property>
  <property name="kdenlive:original.meta.media.sample_aspect_den">1</property>
  <property name="kdenlive:original.aspect_ratio">1</property>
  <property name="kdenlive:original.audio_index">-1</property>
  <property name="kdenlive:original.video_index">0</property>
  <property name="kdenlive:original.mute_on_pause">0</property>
  <property name="kdenlive:original.mlt_service">avformat-novalidate</property>
  <property name="kdenlive:original.kdenlive:folderid">171</property>
  <property name="kdenlive:original.meta.media.frame_rate_num">60</property>
  <property name="kdenlive:original.meta.media.frame_rate_den">1</property>
  <property name="kdenlive:original.meta.media.colorspace">709</property>
  <property name="kdenlive:original.meta.media.color_trc">2</property>
  <property name="kdenlive:original.meta.media.has_b_frames">2</property>
  <property name="kdenlive:original.meta.media.width">3840</property>
  <property name="kdenlive:original.meta.media.height">2160</property>
  <property name="kdenlive:original.meta.media.color_range">mpeg</property>
  <property name="kdenlive:original.kdenlive:id">191</property>
  <property name="kdenlive:original.kdenlive:file_size">369678</property>
  <property name="kdenlive:original.kdenlive:file_hash">8900df1b46674ad2b8f48bb4d4fa3444</property>
  <property name="kdenlive:original.backup">1</property>
  <property name="kdenlive:file_hash">8900df1b46674ad2b8f48bb4d4fa3444</property>
  <property name="meta.media.nb_streams">1</property>
  <property name="meta.media.0.stream.type">video</property>
  <property name="meta.media.0.stream.frame_rate">60</property>
  <property name="meta.media.0.stream.sample_aspect_ratio">0</property>
  <property name="meta.media.0.codec.width">640</property>
  <property name="meta.media.0.codec.height">360</property>
  <property name="meta.media.0.codec.rotate">0</property>
  <property name="meta.media.0.codec.pix_fmt">yuv420p</property>
  <property name="meta.media.0.codec.sample_aspect_ratio">0</property>
  <property name="meta.media.0.codec.colorspace">601</property>
  <property name="meta.media.0.codec.name">h264</property>
  <property name="meta.media.0.codec.long_name">H.264 / AVC / MPEG-4 AVC / MPEG-4 part 10</property>
  <property name="meta.media.0.codec.bit_rate">2291800</property>
  <property name="meta.attr.0.stream.handler_name.markup">VideoHandler</property>
  <property name="meta.attr.0.stream.vendor_id.markup">FFMP</property>
  <property name="meta.attr.0.stream.encoder.markup">Lavc58.134.100 libx264</property>
  <property name="meta.attr.major_brand.markup">qt  </property>
  <property name="meta.attr.minor_version.markup">512</property>
  <property name="meta.attr.compatible_brands.markup">qt  </property>
  <property name="meta.attr.encoder.markup">Lavf58.76.100</property>
  <property name="meta.attr.comment.markup">Rendered with Manim Community v0.12.0</property>
  <property name="meta.media.sample_aspect_num">1</property>
  <property name="meta.media.sample_aspect_den">1</property>
  <property name="meta.media.frame_rate_num">60</property>
  <property name="meta.media.frame_rate_den">1</property>
  <property name="meta.media.colorspace">601</property>
  <property name="meta.media.color_trc">2</property>
  <property name="meta.media.has_b_frames">0</property>
  <property name="meta.media.width">640</property>
  <property name="meta.media.height">360</property>
  <property name="meta.media.color_range">mpeg</property>
 </producer>
 <producer id="producer171" in="00:00:00.000" out="00:00:00.983">
  <property name="length">60</property>
  <property name="eof">pause</property>
  <property name="resource">/home/xiaoxiae/.cache/kdenlive/proxy/9ea134ae8a6227e7f247ffb38b366b45.mov</property>
  <property name="audio_index">-1</property>
  <property name="video_index">0</property>
  <property name="mute_on_pause">0</property>
  <property name="mlt_service">avformat-novalidate</property>
  <property name="seekable">1</property>
  <property name="aspect_ratio">1</property>
  <property name="kdenlive:clipname">3.mp4</property>
  <property name="kdenlive:folderid">171</property>
  <property name="kdenlive:id">191</property>
  <property name="kdenlive:file_size">195157</property>
  <property name="kdenlive:proxy">/home/xiaoxiae/.cache/kdenlive/proxy/9ea134ae8a6227e7f247ffb38b366b45.mov</property>
  <property name="kdenlive:originalurl">video/Motivation/vid/3.mp4</property>
  <property name="kdenlive:original.mlt_type">producer</property>
  <property name="kdenlive:original.in">0</property>
  <property name="kdenlive:original.out">59</property>
  <property name="kdenlive:original.length">60</property>
  <property name="kdenlive:original.eof">pause</property>
  <property name="kdenlive:original.resource">video/Motivation/vid/3.mp4</property>
  <property name="kdenlive:original.meta.media.nb_streams">1</property>
  <property name="kdenlive:original.meta.media.0.stream.type">video</property>
  <property name="kdenlive:original.meta.media.0.stream.frame_rate">60</property>
  <property name="kdenlive:original.meta.media.0.stream.sample_aspect_ratio">0</property>
  <property name="kdenlive:original.meta.media.0.codec.width">3840</property>
  <property name="kdenlive:original.meta.media.0.codec.height">2160</property>
  <property name="kdenlive:original.meta.media.0.codec.rotate">0</property>
  <property name="kdenlive:original.meta.media.0.codec.pix_fmt">yuv420p</property>
  <property name="kdenlive:original.meta.media.0.codec.sample_aspect_ratio">0</property>
  <property name="kdenlive:original.meta.media.0.codec.colorspace">709</property>
  <property name="kdenlive:original.meta.media.0.codec.name">h264</property>
  <property name="kdenlive:original.meta.media.0.codec.long_name">H.264 / AVC / MPEG-4 AVC / MPEG-4 part 10</property>
  <property name="kdenlive:original.meta.media.0.codec.bit_rate">1548392</property>
  <property name="kdenlive:original.meta.attr.0.stream.handler_name.markup">VideoHandler</property>
  <property name="kdenlive:original.meta.attr.0.stream.vendor_id.markup">[0][0][0][0]</property>
  <property name="kdenlive:original.meta.attr.major_brand.markup">isom</property>
  <property name="kdenlive:original.meta.attr.minor_version.markup">512</property>
  <property name="kdenlive:original.meta.attr.compatible_brands.markup">isomiso2avc1mp41</property>
  <property name="kdenlive:original.meta.attr.encoder.markup">Lavf58.76.100</property>
  <property name="kdenlive:original.meta.attr.comment.markup">Rendered with Manim Community v0.12.0</property>
  <property name="kdenlive:original.seekable">1</property>
  <property name="kdenlive:original.width">3840</property>
  <property name="kdenlive:original.height">2160</property>
  <property name="kdenlive:original.meta.media.sample_aspect_num">1</property>
  <property name="kdenlive:original.meta.media.sample_aspect_den">1</property>
  <property name="kdenlive:original.aspect_ratio">1</property>
  <property name="kdenlive:original.audio_index">-1</property>
  <property name="kdenlive:original.video_index">0</property>
  <property name="kdenlive:original.mute_on_pause">0</property>
  <property name="kdenlive:original.mlt_service">avformat-novalidate</property>
  <property name="kdenlive:original.kdenlive:folderid">171</property>
  <property name="kdenlive:original.meta.media.frame_rate_num">60</property>
  <property name="kdenlive:original.meta.media.frame_rate_den">1</property>
  <property name="kdenlive:original.meta.media.colorspace">709</property>
  <property name="kdenlive:original.meta.media.color_trc">2</property>
  <property name="kdenlive:original.meta.media.has_b_frames">2</property>
  <property name="kdenlive:original.meta.media.width">3840</property>
  <property name="kdenlive:original.meta.media.height">2160</property>
  <property name="kdenlive:original.meta.media.color_range">mpeg</property>
  <property name="kdenlive:original.kdenlive:id">192</property>
  <property name="kdenlive:original.kdenlive:file_size">195157</property>
  <property name="kdenlive:original.kdenlive:file_hash">9ea134ae8a6227e7f247ffb38b366b45</property>
  <property name="kdenlive:original.backup">1</property>
  <property name="kdenlive:file_hash">9ea134ae8a6227e7f247ffb38b366b45</property>
  <property name="meta.media.nb_streams">1</property>
  <property name="meta.media.0.stream.type">video</property>
  <property name="meta.media.0.stream.frame_rate">60</property>
  <property name="meta.media.0.stream.sample_aspect_ratio">0</property>
  <property name="meta.media.0.codec.width">640</property>
  <property name="meta.media.0.codec.height">360</property>
  <property name="meta.media.0.codec.rotate">0</property>
  <property name="meta.media.0.codec.pix_fmt">yuv420p</property>
  <property name="meta.media.0.codec.sample_aspect_ratio">0</property>
  <property name="meta.media.0.codec.colorspace">601</property>
  <property name="meta.media.0.codec.name">h264</property>
  <property name="meta.media.0.codec.long_name">H.264 / AVC / MPEG-4 AVC / MPEG-4 part 10</property>
  <property name="meta.media.0.codec.bit_rate">2776864</property>
  <property name="meta.attr.0.stream.handler_name.markup">VideoHandler</property>
  <property name="meta.attr.0.stream.vendor_id.markup">FFMP</property>
  <property name="meta.attr.0.stream.encoder.markup">Lavc58.134.100 libx264</property>
  <property name="meta.attr.major_brand.markup">qt  </property>
  <property name="meta.attr.minor_version.markup">512</property>
  <property name="meta.attr.compatible_brands.markup">qt  </property>
  <property name="meta.attr.encoder.markup">Lavf58.76.100</property>
  <property name="meta.attr.comment.markup">Rendered with Manim Community v0.12.0</property>
  <property name="meta.media.sample_aspect_num">1</property>
  <property name="meta.media.sample_aspect_den">1</property>
  <property name="meta.media.frame_rate_num">60</property>
  <property name="meta.media.frame_rate_den">1</property>
  <property name="meta.media.colorspace">601</property>
  <property name="meta.media.color_trc">2</property>
  <property name="meta.media.has_b_frames">0</property>
  <property name="meta.media.width">640</property>
  <property name="meta.media.height">360</property>
  <property name="meta.media.color_range">mpeg</property>
 </producer>
 <producer id="producer172" in="00:00:00.000" out="00:00:01.483">
  <property name="length">90</property>
  <property name="eof">pause</property>
  <property name="resource">/home/xiaoxiae/.cache/kdenlive/proxy/67b0ad898de13359262816b2b5ceb432.mov</property>
  <property name="audio_index">-1</property>
  <property name="video_index">0</property>
  <property name="mute_on_pause">0</property>
  <property name="mlt_service">avformat-novalidate</property>
  <property name="seekable">1</property>
  <property name="aspect_ratio">1</property>
  <property name="kdenlive:clipname">4.mp4</property>
  <property name="kdenlive:folderid">171</property>
  <property name="kdenlive:id">192</property>
  <property name="kdenlive:file_size">125601</property>
  <property name="kdenlive:proxy">/home/xiaoxiae/.cache/kdenlive/proxy/67b0ad898de13359262816b2b5ceb432.mov</property>
  <property name="kdenlive:originalurl">video/Motivation/vid/4.mp4</property>
  <property name="kdenlive:original.mlt_type">producer</property>
  <property name="kdenlive:original.in">0</property>
  <property name="kdenlive:original.out">89</property>
  <property name="kdenlive:original.length">90</property>
  <property name="kdenlive:original.eof">pause</property>
  <property name="kdenlive:original.resource">video/Motivation/vid/4.mp4</property>
  <property name="kdenlive:original.meta.media.nb_streams">1</property>
  <property name="kdenlive:original.meta.media.0.stream.type">video</property>
  <property name="kdenlive:original.meta.media.0.stream.frame_rate">60</property>
  <property name="kdenlive:original.meta.media.0.stream.sample_aspect_ratio">0</property>
  <property name="kdenlive:original.meta.media.0.codec.width">3840</property>
  <property name="kdenlive:original.meta.media.0.codec.height">2160</property>
  <property name="kdenlive:original.meta.media.0.codec.rotate">0</property>
  <property name="kdenlive:original.meta.media.0.codec.pix_fmt">yuv420p</property>
  <property name="kdenlive:original.meta.media.0.codec.sample_aspect_ratio">0</property>
  <property name="kdenlive:original.meta.media.0.codec.colorspace">709</property>
  <property name="kdenlive:original.meta.media.0.codec.name">h264</property>
  <property name="kdenlive:original.meta.media.0.codec.long_name">H.264 / AVC / MPEG-4 AVC / MPEG-4 part 10</property>
  <property name="kdenlive:original.meta.media.0.codec.bit_rate">659205</property>
  <property name="kdenlive:original.meta.attr.0.stream.handler_name.markup">VideoHandler</property>
  <property name="kdenlive:original.meta.attr.0.stream.vendor_id.markup">[0][0][0][0]</property>
  <property name="kdenlive:original.meta.attr.major_brand.markup">isom</property>
  <property name="kdenlive:original.meta.attr.minor_version.markup">512</property>
  <property name="kdenlive:original.meta.attr.compatible_brands.markup">isomiso2avc1mp41</property>
  <property name="kdenlive:original.meta.attr.encoder.markup">Lavf58.76.100</property>
  <property name="kdenlive:original.meta.attr.comment.markup">Rendered with Manim Community v0.12.0</property>
  <property name="kdenlive:original.seekable">1</property>
  <property name="kdenlive:original.width">3840</property>
  <property name="kdenlive:original.height">2160</property>
  <property name="kdenlive:original.meta.media.sample_aspect_num">1</property>
  <property name="kdenlive:original.meta.media.sample_aspect_den">1</property>
  <property name="kdenlive:original.aspect_ratio">1</property>
  <property name="kdenlive:original.audio_index">-1</property>
  <property name="kdenlive:original.video_index">0</property>
  <property name="kdenlive:original.mute_on_pause">0</property>
  <property name="kdenlive:original.mlt_service">avformat-novalidate</property>
  <property name="kdenlive:original.kdenlive:folderid">171</property>
  <property name="kdenlive:original.meta.media.frame_rate_num">60</property>
  <property name="kdenlive:original.meta.media.frame_rate_den">1</property>
  <property name="kdenlive:original.meta.media.colorspace">709</property>
  <property name="kdenlive:original.meta.media.color_trc">2</property>
  <property name="kdenlive:original.meta.media.has_b_frames">2</property>
  <property name="kdenlive:original.meta.media.width">3840</property>
  <property name="kdenlive:original.meta.media.height">2160</property>
  <property name="kdenlive:original.meta.media.color_range">mpeg</property>
  <property name="kdenlive:original.kdenlive:id">193</property>
  <property name="kdenlive:original.kdenlive:file_size">125601</property>
  <property name="kdenlive:original.kdenlive:file_hash">67b0ad898de13359262816b2b5ceb432</property>
  <property name="kdenlive:original.backup">1</property>
  <property name="kdenlive:file_hash">67b0ad898de13359262816b2b5ceb432</property>
  <property name="meta.media.nb_streams">1</property>
  <property name="meta.media.0.stream.type">video</property>
  <property name="meta.media.0.stream.frame_rate">60</property>
  <property name="meta.media.0.stream.sample_aspect_ratio">0</property>
  <property name="meta.media.0.codec.width">640</property>
  <property name="meta.media.0.codec.height">360</property>
  <property name="meta.media.0.codec.rotate">0</property>
  <property name="meta.media.0.codec.pix_fmt">yuv420p</property>
  <property name="meta.media.0.codec.sample_aspect_ratio">0</property>
  <property name="meta.media.0.codec.colorspace">601</property>
  <property name="meta.media.0.codec.name">h264</property>
  <property name="meta.media.0.codec.long_name">H.264 / AVC / MPEG-4 AVC / MPEG-4 part 10</property>
  <property name="meta.media.0.codec.bit_rate">2897018</property>
  <property name="meta.attr.0.stream.handler_name.markup">VideoHandler</property>
  <property name="meta.attr.0.stream.vendor_id.markup">FFMP</property>
  <property name="meta.attr.0.stream.encoder.markup">Lavc58.134.100 libx264</property>
  <property name="meta.attr.major_brand.markup">qt  </property>
  <property name="meta.attr.minor_version.markup">512</property>
  <property name="meta.attr.compatible_brands.markup">qt  </property>
  <property name="meta.attr.encoder.markup">Lavf58.76.100</property>
  <property name="meta.attr.comment.markup">Rendered with Manim Community v0.12.0</property>
  <property name="meta.media.sample_aspect_num">1</property>
  <property name="meta.media.sample_aspect_den">1</property>
  <property name="meta.media.frame_rate_num">60</property>
  <property name="meta.media.frame_rate_den">1</property>
  <property name="meta.media.colorspace">601</property>
  <property name="meta.media.color_trc">2</property>
  <property name="meta.media.has_b_frames">0</property>
  <property name="meta.media.width">640</property>
  <property name="meta.media.height">360</property>
  <property name="meta.media.color_range">mpeg</property>
 </producer>
 <producer id="producer173" in="00:00:00.000" out="00:00:02.800">
  <property name="length">169</property>
  <property name="eof">pause</property>
  <property name="resource">/home/xiaoxiae/.cache/kdenlive/proxy/7e72e250702bad50e726be9e809f2133.mov</property>
  <property name="audio_index">-1</property>
  <property name="video_index">0</property>
  <property name="mute_on_pause">0</property>
  <property name="mlt_service">avformat-novalidate</property>
  <property name="seekable">1</property>
  <property name="aspect_ratio">1</property>
  <property name="kdenlive:clipname">5.mp4</property>
  <property name="kdenlive:folderid">171</property>
  <property name="kdenlive:id">193</property>
  <property name="kdenlive:file_size">255009</property>
  <property name="kdenlive:proxy">/home/xiaoxiae/.cache/kdenlive/proxy/7e72e250702bad50e726be9e809f2133.mov</property>
  <property name="kdenlive:originalurl">video/Motivation/vid/5.mp4</property>
  <property name="kdenlive:original.mlt_type">producer</property>
  <property name="kdenlive:original.in">0</property>
  <property name="kdenlive:original.out">168</property>
  <property name="kdenlive:original.length">169</property>
  <property name="kdenlive:original.eof">pause</property>
  <property name="kdenlive:original.resource">video/Motivation/vid/5.mp4</property>
  <property name="kdenlive:original.meta.media.nb_streams">1</property>
  <property name="kdenlive:original.meta.media.0.stream.type">video</property>
  <property name="kdenlive:original.meta.media.0.stream.frame_rate">60</property>
  <property name="kdenlive:original.meta.media.0.stream.sample_aspect_ratio">0</property>
  <property name="kdenlive:original.meta.media.0.codec.width">3840</property>
  <property name="kdenlive:original.meta.media.0.codec.height">2160</property>
  <property name="kdenlive:original.meta.media.0.codec.rotate">0</property>
  <property name="kdenlive:original.meta.media.0.codec.pix_fmt">yuv420p</property>
  <property name="kdenlive:original.meta.media.0.codec.sample_aspect_ratio">0</property>
  <property name="kdenlive:original.meta.media.0.codec.colorspace">709</property>
  <property name="kdenlive:original.meta.media.0.codec.name">h264</property>
  <property name="kdenlive:original.meta.media.0.codec.long_name">H.264 / AVC / MPEG-4 AVC / MPEG-4 part 10</property>
  <property name="kdenlive:original.meta.media.0.codec.bit_rate">716049</property>
  <property name="kdenlive:original.meta.attr.0.stream.handler_name.markup">VideoHandler</property>
  <property name="kdenlive:original.meta.attr.0.stream.vendor_id.markup">[0][0][0][0]</property>
  <property name="kdenlive:original.meta.attr.major_brand.markup">isom</property>
  <property name="kdenlive:original.meta.attr.minor_version.markup">512</property>
  <property name="kdenlive:original.meta.attr.compatible_brands.markup">isomiso2avc1mp41</property>
  <property name="kdenlive:original.meta.attr.encoder.markup">Lavf58.76.100</property>
  <property name="kdenlive:original.meta.attr.comment.markup">Rendered with Manim Community v0.12.0</property>
  <property name="kdenlive:original.seekable">1</property>
  <property name="kdenlive:original.width">3840</property>
  <property name="kdenlive:original.height">2160</property>
  <property name="kdenlive:original.meta.media.sample_aspect_num">1</property>
  <property name="kdenlive:original.meta.media.sample_aspect_den">1</property>
  <property name="kdenlive:original.aspect_ratio">1</property>
  <property name="kdenlive:original.audio_index">-1</property>
  <property name="kdenlive:original.video_index">0</property>
  <property name="kdenlive:original.mute_on_pause">0</property>
  <property name="kdenlive:original.mlt_service">avformat-novalidate</property>
  <property name="kdenlive:original.kdenlive:folderid">171</property>
  <property name="kdenlive:original.meta.media.frame_rate_num">60</property>
  <property name="kdenlive:original.meta.media.frame_rate_den">1</property>
  <property name="kdenlive:original.meta.media.colorspace">709</property>
  <property name="kdenlive:original.meta.media.color_trc">2</property>
  <property name="kdenlive:original.meta.media.has_b_frames">2</property>
  <property name="kdenlive:original.meta.media.width">3840</property>
  <property name="kdenlive:original.meta.media.height">2160</property>
  <property name="kdenlive:original.meta.media.color_range">mpeg</property>
  <property name="kdenlive:original.kdenlive:id">194</property>
  <property name="kdenlive:original.kdenlive:file_size">255009</property>
  <property name="kdenlive:original.kdenlive:file_hash">7e72e250702bad50e726be9e809f2133</property>
  <property name="kdenlive:original.backup">1</property>
  <property name="kdenlive:file_hash">7e72e250702bad50e726be9e809f2133</property>
  <property name="meta.media.nb_streams">1</property>
  <property name="meta.media.0.stream.type">video</property>
  <property name="meta.media.0.stream.frame_rate">60</property>
  <property name="meta.media.0.stream.sample_aspect_ratio">0</property>
  <property name="meta.media.0.codec.width">640</property>
  <property name="meta.media.0.codec.height">360</property>
  <property name="meta.media.0.codec.rotate">0</property>
  <property name="meta.media.0.codec.pix_fmt">yuv420p</property>
  <property name="meta.media.0.codec.sample_aspect_ratio">0</property>
  <property name="meta.media.0.codec.colorspace">601</property>
  <property name="meta.media.0.codec.name">h264</property>
  <property name="meta.media.0.codec.long_name">H.264 / AVC / MPEG-4 AVC / MPEG-4 part 10</property>
  <property name="meta.media.0.codec.bit_rate">2901688</property>
  <property name="meta.attr.0.stream.handler_name.markup">VideoHandler</property>
  <property name="meta.attr.0.stream.vendor_id.markup">FFMP</property>
  <property name="meta.attr.0.stream.encoder.markup">Lavc58.134.100 libx264</property>
  <property name="meta.attr.major_brand.markup">qt  </property>
  <property name="meta.attr.minor_version.markup">512</property>
  <property name="meta.attr.compatible_brands.markup">qt  </property>
  <property name="meta.attr.encoder.markup">Lavf58.76.100</property>
  <property name="meta.attr.comment.markup">Rendered with Manim Community v0.12.0</property>
  <property name="meta.media.sample_aspect_num">1</property>
  <property name="meta.media.sample_aspect_den">1</property>
  <property name="meta.media.frame_rate_num">60</property>
  <property name="meta.media.frame_rate_den">1</property>
  <property name="meta.media.colorspace">601</property>
  <property name="meta.media.color_trc">2</property>
  <property name="meta.media.has_b_frames">0</property>
  <property name="meta.media.width">640</property>
  <property name="meta.media.height">360</property>
  <property name="meta.media.color_range">mpeg</property>
 </producer>
 <producer id="producer174" in="00:00:00.000" out="00:00:01.783">
  <property name="length">108</property>
  <property name="eof">pause</property>
  <property name="resource">/home/xiaoxiae/.cache/kdenlive/proxy/0ac118c6979a380c6c1cba92930adee4.mov</property>
  <property name="audio_index">-1</property>
  <property name="video_index">0</property>
  <property name="mute_on_pause">0</property>
  <property name="mlt_service">avformat-novalidate</property>
  <property name="seekable">1</property>
  <property name="aspect_ratio">1</property>
  <property name="kdenlive:clipname">6.mp4</property>
  <property name="kdenlive:folderid">171</property>
  <property name="kdenlive:id">194</property>
  <property name="kdenlive:file_size">276236</property>
  <property name="kdenlive:proxy">/home/xiaoxiae/.cache/kdenlive/proxy/0ac118c6979a380c6c1cba92930adee4.mov</property>
  <property name="kdenlive:originalurl">video/Motivation/vid/6.mp4</property>
  <property name="kdenlive:original.mlt_type">producer</property>
  <property name="kdenlive:original.in">0</property>
  <property name="kdenlive:original.out">107</property>
  <property name="kdenlive:original.length">108</property>
  <property name="kdenlive:original.eof">pause</property>
  <property name="kdenlive:original.resource">video/Motivation/vid/6.mp4</property>
  <property name="kdenlive:original.meta.media.nb_streams">1</property>
  <property name="kdenlive:original.meta.media.0.stream.type">video</property>
  <property name="kdenlive:original.meta.media.0.stream.frame_rate">60</property>
  <property name="kdenlive:original.meta.media.0.stream.sample_aspect_ratio">0</property>
  <property name="kdenlive:original.meta.media.0.codec.width">3840</property>
  <property name="kdenlive:original.meta.media.0.codec.height">2160</property>
  <property name="kdenlive:original.meta.media.0.codec.rotate">0</property>
  <property name="kdenlive:original.meta.media.0.codec.pix_fmt">yuv420p</property>
  <property name="kdenlive:original.meta.media.0.codec.sample_aspect_ratio">0</property>
  <property name="kdenlive:original.meta.media.0.codec.colorspace">709</property>
  <property name="kdenlive:original.meta.media.0.codec.name">h264</property>
  <property name="kdenlive:original.meta.media.0.codec.long_name">H.264 / AVC / MPEG-4 AVC / MPEG-4 part 10</property>
  <property name="kdenlive:original.meta.media.0.codec.bit_rate">1218115</property>
  <property name="kdenlive:original.meta.attr.0.stream.handler_name.markup">VideoHandler</property>
  <property name="kdenlive:original.meta.attr.0.stream.vendor_id.markup">[0][0][0][0]</property>
  <property name="kdenlive:original.meta.attr.major_brand.markup">isom</property>
  <property name="kdenlive:original.meta.attr.minor_version.markup">512</property>
  <property name="kdenlive:original.meta.attr.compatible_brands.markup">isomiso2avc1mp41</property>
  <property name="kdenlive:original.meta.attr.encoder.markup">Lavf58.76.100</property>
  <property name="kdenlive:original.meta.attr.comment.markup">Rendered with Manim Community v0.12.0</property>
  <property name="kdenlive:original.seekable">1</property>
  <property name="kdenlive:original.width">3840</property>
  <property name="kdenlive:original.height">2160</property>
  <property name="kdenlive:original.meta.media.sample_aspect_num">1</property>
  <property name="kdenlive:original.meta.media.sample_aspect_den">1</property>
  <property name="kdenlive:original.aspect_ratio">1</property>
  <property name="kdenlive:original.audio_index">-1</property>
  <property name="kdenlive:original.video_index">0</property>
  <property name="kdenlive:original.mute_on_pause">0</property>
  <property name="kdenlive:original.mlt_service">avformat-novalidate</property>
  <property name="kdenlive:original.kdenlive:folderid">171</property>
  <property name="kdenlive:original.meta.media.frame_rate_num">60</property>
  <property name="kdenlive:original.meta.media.frame_rate_den">1</property>
  <property name="kdenlive:original.meta.media.colorspace">709</property>
  <property name="kdenlive:original.meta.media.color_trc">2</property>
  <property name="kdenlive:original.meta.media.has_b_frames">2</property>
  <property name="kdenlive:original.meta.media.width">3840</property>
  <property name="kdenlive:original.meta.media.height">2160</property>
  <property name="kdenlive:original.meta.media.color_range">mpeg</property>
  <property name="kdenlive:original.kdenlive:id">195</property>
  <property name="kdenlive:original.kdenlive:file_size">276236</property>
  <property name="kdenlive:original.kdenlive:file_hash">0ac118c6979a380c6c1cba92930adee4</property>
  <property name="kdenlive:original.backup">1</property>
  <property name="kdenlive:file_hash">0ac118c6979a380c6c1cba92930adee4</property>
  <property name="meta.media.nb_streams">1</property>
  <property name="meta.media.0.stream.type">video</property>
  <property name="meta.media.0.stream.frame_rate">60</property>
  <property name="meta.media.0.stream.sample_aspect_ratio">0</property>
  <property name="meta.media.0.codec.width">640</property>
  <property name="meta.media.0.codec.height">360</property>
  <property name="meta.media.0.codec.rotate">0</property>
  <property name="meta.media.0.codec.pix_fmt">yuv420p</property>
  <property name="meta.media.0.codec.sample_aspect_ratio">0</property>
  <property name="meta.media.0.codec.colorspace">601</property>
  <property name="meta.media.0.codec.name">h264</property>
  <property name="meta.media.0.codec.long_name">H.264 / AVC / MPEG-4 AVC / MPEG-4 part 10</property>
  <property name="meta.media.0.codec.bit_rate">1342226</property>
  <property name="meta.attr.0.stream.handler_name.markup">VideoHandler</property>
  <property name="meta.attr.0.stream.vendor_id.markup">FFMP</property>
  <property name="meta.attr.0.stream.encoder.markup">Lavc58.134.100 libx264</property>
  <property name="meta.attr.major_brand.markup">qt  </property>
  <property name="meta.attr.minor_version.markup">512</property>
  <property name="meta.attr.compatible_brands.markup">qt  </property>
  <property name="meta.attr.encoder.markup">Lavf58.76.100</property>
  <property name="meta.attr.comment.markup">Rendered with Manim Community v0.12.0</property>
  <property name="meta.media.sample_aspect_num">1</property>
  <property name="meta.media.sample_aspect_den">1</property>
  <property name="meta.media.frame_rate_num">60</property>
  <property name="meta.media.frame_rate_den">1</property>
  <property name="meta.media.colorspace">601</property>
  <property name="meta.media.color_trc">2</property>
  <property name="meta.media.has_b_frames">0</property>
  <property name="meta.media.width">640</property>
  <property name="meta.media.height">360</property>
  <property name="meta.media.color_range">mpeg</property>
 </producer>
 <producer id="producer175" in="00:00:00.000" out="00:00:00.983">
  <property name="length">60</property>
  <property name="eof">pause</property>
  <property name="resource">/home/xiaoxiae/.cache/kdenlive/proxy/60078da3ef92f4ad4d58f300ac783544.mov</property>
  <property name="audio_index">-1</property>
  <property name="video_index">0</property>
  <property name="mute_on_pause">0</property>
  <property name="mlt_service">avformat-novalidate</property>
  <property name="seekable">1</property>
  <property name="aspect_ratio">1</property>
  <property name="kdenlive:clipname">7.mp4</property>
  <property name="kdenlive:folderid">171</property>
  <property name="kdenlive:id">195</property>
  <property name="kdenlive:file_size">33080</property>
  <property name="kdenlive:proxy">/home/xiaoxiae/.cache/kdenlive/proxy/60078da3ef92f4ad4d58f300ac783544.mov</property>
  <property name="kdenlive:originalurl">video/Motivation/vid/7.mp4</property>
  <property name="kdenlive:original.mlt_type">producer</property>
  <property name="kdenlive:original.in">0</property>
  <property name="kdenlive:original.out">59</property>
  <property name="kdenlive:original.length">60</property>
  <property name="kdenlive:original.eof">pause</property>
  <property name="kdenlive:original.resource">video/Motivation/vid/7.mp4</property>
  <property name="kdenlive:original.meta.media.nb_streams">1</property>
  <property name="kdenlive:original.meta.media.0.stream.type">video</property>
  <property name="kdenlive:original.meta.media.0.stream.frame_rate">60</property>
  <property name="kdenlive:original.meta.media.0.stream.sample_aspect_ratio">0</property>
  <property name="kdenlive:original.meta.media.0.codec.width">3840</property>
  <property name="kdenlive:original.meta.media.0.codec.height">2160</property>
  <property name="kdenlive:original.meta.media.0.codec.rotate">0</property>
  <property name="kdenlive:original.meta.media.0.codec.pix_fmt">yuv420p</property>
  <property name="kdenlive:original.meta.media.0.codec.sample_aspect_ratio">0</property>
  <property name="kdenlive:original.meta.media.0.codec.colorspace">709</property>
  <property name="kdenlive:original.meta.media.0.codec.name">h264</property>
  <property name="kdenlive:original.meta.media.0.codec.long_name">H.264 / AVC / MPEG-4 AVC / MPEG-4 part 10</property>
  <property name="kdenlive:original.meta.media.0.codec.bit_rate">251520</property>
  <property name="kdenlive:original.meta.attr.0.stream.handler_name.markup">VideoHandler</property>
  <property name="kdenlive:original.meta.attr.0.stream.vendor_id.markup">[0][0][0][0]</property>
  <property name="kdenlive:original.meta.attr.major_brand.markup">isom</property>
  <property name="kdenlive:original.meta.attr.minor_version.markup">512</property>
  <property name="kdenlive:original.meta.attr.compatible_brands.markup">isomiso2avc1mp41</property>
  <property name="kdenlive:original.meta.attr.encoder.markup">Lavf58.76.100</property>
  <property name="kdenlive:original.meta.attr.comment.markup">Rendered with Manim Community v0.12.0</property>
  <property name="kdenlive:original.seekable">1</property>
  <property name="kdenlive:original.width">3840</property>
  <property name="kdenlive:original.height">2160</property>
  <property name="kdenlive:original.meta.media.sample_aspect_num">1</property>
  <property name="kdenlive:original.meta.media.sample_aspect_den">1</property>
  <property name="kdenlive:original.aspect_ratio">1</property>
  <property name="kdenlive:original.audio_index">-1</property>
  <property name="kdenlive:original.video_index">0</property>
  <property name="kdenlive:original.mute_on_pause">0</property>
  <property name="kdenlive:original.mlt_service">avformat-novalidate</property>
  <property name="kdenlive:original.kdenlive:folderid">171</property>
  <property name="kdenlive:original.meta.media.frame_rate_num">60</property>
  <property name="kdenlive:original.meta.media.frame_rate_den">1</property>
  <property name="kdenlive:original.meta.media.colorspace">709</property>
  <property name="kdenlive:original.meta.media.color_trc">2</property>
  <property name="kdenlive:original.meta.media.has_b_frames">2</property>
  <property name="kdenlive:original.meta.media.width">3840</property>
  <property name="kdenlive:original.meta.media.height">2160</property>
  <property name="kdenlive:original.meta.media.color_range">mpeg</property>
  <property name="kdenlive:original.kdenlive:id">196</property>
  <property name="kdenlive:original.kdenlive:file_size">33080</property>
  <property name="kdenlive:original.kdenlive:file_hash">60078da3ef92f4ad4d58f300ac783544</property>
  <property name="kdenlive:original.backup">1</property>
  <property name="kdenlive:file_hash">60078da3ef92f4ad4d58f300ac783544</property>
  <property name="meta.media.nb_streams">1</property>
  <property name="meta.media.0.stream.type">video</property>
  <property name="meta.media.0.stream.frame_rate">60</property>
  <property name="meta.media.0.stream.sample_aspect_ratio">0</property>
  <property name="meta.media.0.codec.width">640</property>
  <property name="meta.media.0.codec.height">360</property>
  <property name="meta.media.0.codec.rotate">0</property>
  <property name="meta.media.0.codec.pix_fmt">yuv420p</property>
  <property name="meta.media.0.codec.sample_aspect_ratio">0</property>
  <property name="meta.media.0.codec.colorspace">601</property>
  <property name="meta.media.0.codec.name">h264</property>
  <property name="meta.media.0.codec.long_name">H.264 / AVC / MPEG-4 AVC / MPEG-4 part 10</property>
  <property name="meta.media.0.codec.bit_rate">233256</property>
  <property name="meta.attr.0.stream.handler_name.markup">VideoHandler</property>
  <property name="meta.attr.0.stream.vendor_id.markup">FFMP</property>
  <property name="meta.attr.0.stream.encoder.markup">Lavc58.134.100 libx264</property>
  <property name="meta.attr.major_brand.markup">qt  </property>
  <property name="meta.attr.minor_version.markup">512</property>
  <property name="meta.attr.compatible_brands.markup">qt  </property>
  <property name="meta.attr.encoder.markup">Lavf58.76.100</property>
  <property name="meta.attr.comment.markup">Rendered with Manim Community v0.12.0</property>
  <property name="meta.media.sample_aspect_num">1</property>
  <property name="meta.media.sample_aspect_den">1</property>
  <property name="meta.media.frame_rate_num">60</property>
  <property name="meta.media.frame_rate_den">1</property>
  <property name="meta.media.colorspace">601</property>
  <property name="meta.media.color_trc">2</property>
  <property name="meta.media.has_b_frames">0</property>
  <property name="meta.media.width">640</property>
  <property name="meta.media.height">360</property>
  <property name="meta.media.color_range">mpeg</property>
 </producer>
 <producer id="producer176" in="00:00:00.000" out="00:00:00.983">
  <property name="length">60</property>
  <property name="eof">pause</property>
  <property name="resource">/home/xiaoxiae/.cache/kdenlive/proxy/3f52b419969a33d7a2d4c2ffd304eafe.mov</property>
  <property name="audio_index">-1</property>
  <property name="video_index">0</property>
  <property name="mute_on_pause">0</property>
  <property name="mlt_service">avformat-novalidate</property>
  <property name="seekable">1</property>
  <property name="aspect_ratio">1</property>
  <property name="kdenlive:clipname">8.mp4</property>
  <property name="kdenlive:folderid">171</property>
  <property name="kdenlive:id">196</property>
  <property name="kdenlive:file_size">30539</property>
  <property name="kdenlive:proxy">/home/xiaoxiae/.cache/kdenlive/proxy/3f52b419969a33d7a2d4c2ffd304eafe.mov</property>
  <property name="kdenlive:originalurl">video/Motivation/vid/8.mp4</property>
  <property name="kdenlive:original.mlt_type">producer</property>
  <property name="kdenlive:original.in">0</property>
  <property name="kdenlive:original.out">59</property>
  <property name="kdenlive:original.length">60</property>
  <property name="kdenlive:original.eof">pause</property>
  <property name="kdenlive:original.resource">video/Motivation/vid/8.mp4</property>
  <property name="kdenlive:original.meta.media.nb_streams">1</property>
  <property name="kdenlive:original.meta.media.0.stream.type">video</property>
  <property name="kdenlive:original.meta.media.0.stream.frame_rate">60</property>
  <property name="kdenlive:original.meta.media.0.stream.sample_aspect_ratio">0</property>
  <property name="kdenlive:original.meta.media.0.codec.width">3840</property>
  <property name="kdenlive:original.meta.media.0.codec.height">2160</property>
  <property name="kdenlive:original.meta.media.0.codec.rotate">0</property>
  <property name="kdenlive:original.meta.media.0.codec.pix_fmt">yuv420p</property>
  <property name="kdenlive:original.meta.media.0.codec.sample_aspect_ratio">0</property>
  <property name="kdenlive:original.meta.media.0.codec.colorspace">709</property>
  <property name="kdenlive:original.meta.media.0.codec.name">h264</property>
  <property name="kdenlive:original.meta.media.0.codec.long_name">H.264 / AVC / MPEG-4 AVC / MPEG-4 part 10</property>
  <property name="kdenlive:original.meta.media.0.codec.bit_rate">231256</property>
  <property name="kdenlive:original.meta.attr.0.stream.handler_name.markup">VideoHandler</property>
  <property name="kdenlive:original.meta.attr.0.stream.vendor_id.markup">[0][0][0][0]</property>
  <property name="kdenlive:original.meta.attr.major_brand.markup">isom</property>
  <property name="kdenlive:original.meta.attr.minor_version.markup">512</property>
  <property name="kdenlive:original.meta.attr.compatible_brands.markup">isomiso2avc1mp41</property>
  <property name="kdenlive:original.meta.attr.encoder.markup">Lavf58.76.100</property>
  <property name="kdenlive:original.meta.attr.comment.markup">Rendered with Manim Community v0.12.0</property>
  <property name="kdenlive:original.seekable">1</property>
  <property name="kdenlive:original.width">3840</property>
  <property name="kdenlive:original.height">2160</property>
  <property name="kdenlive:original.meta.media.sample_aspect_num">1</property>
  <property name="kdenlive:original.meta.media.sample_aspect_den">1</property>
  <property name="kdenlive:original.aspect_ratio">1</property>
  <property name="kdenlive:original.audio_index">-1</property>
  <property name="kdenlive:original.video_index">0</property>
  <property name="kdenlive:original.mute_on_pause">0</property>
  <property name="kdenlive:original.mlt_service">avformat-novalidate</property>
  <property name="kdenlive:original.kdenlive:folderid">171</property>
  <property name="kdenlive:original.meta.media.frame_rate_num">60</property>
  <property name="kdenlive:original.meta.media.frame_rate_den">1</property>
  <property name="kdenlive:original.meta.media.colorspace">709</property>
  <property name="kdenlive:original.meta.media.color_trc">2</property>
  <property name="kdenlive:original.meta.media.has_b_frames">2</property>
  <property name="kdenlive:original.meta.media.width">3840</property>
  <property name="kdenlive:original.meta.media.height">2160</property>
  <property name="kdenlive:original.meta.media.color_range">mpeg</property>
  <property name="kdenlive:original.kdenlive:id">197</property>
  <property name="kdenlive:original.kdenlive:file_size">30539</property>
  <property name="kdenlive:original.kdenlive:file_hash">3f52b419969a33d7a2d4c2ffd304eafe</property>
  <property name="kdenlive:original.backup">1</property>
  <property name="kdenlive:file_hash">3f52b419969a33d7a2d4c2ffd304eafe</property>
  <property name="meta.media.nb_streams">1</property>
  <property name="meta.media.0.stream.type">video</property>
  <property name="meta.media.0.stream.frame_rate">60</property>
  <property name="meta.media.0.stream.sample_aspect_ratio">0</property>
  <property name="meta.media.0.codec.width">640</property>
  <property name="meta.media.0.codec.height">360</property>
  <property name="meta.media.0.codec.rotate">0</property>
  <property name="meta.media.0.codec.pix_fmt">yuv420p</property>
  <property name="meta.media.0.codec.sample_aspect_ratio">0</property>
  <property name="meta.media.0.codec.colorspace">601</property>
  <property name="meta.media.0.codec.name">h264</property>
  <property name="meta.media.0.codec.long_name">H.264 / AVC / MPEG-4 AVC / MPEG-4 part 10</property>
  <property name="meta.media.0.codec.bit_rate">337872</property>
  <property name="meta.attr.0.stream.handler_name.markup">VideoHandler</property>
  <property name="meta.attr.0.stream.vendor_id.markup">FFMP</property>
  <property name="meta.attr.0.stream.encoder.markup">Lavc58.134.100 libx264</property>
  <property name="meta.attr.major_brand.markup">qt  </property>
  <property name="meta.attr.minor_version.markup">512</property>
  <property name="meta.attr.compatible_brands.markup">qt  </property>
  <property name="meta.attr.encoder.markup">Lavf58.76.100</property>
  <property name="meta.attr.comment.markup">Rendered with Manim Community v0.12.0</property>
  <property name="meta.media.sample_aspect_num">1</property>
  <property name="meta.media.sample_aspect_den">1</property>
  <property name="meta.media.frame_rate_num">60</property>
  <property name="meta.media.frame_rate_den">1</property>
  <property name="meta.media.colorspace">601</property>
  <property name="meta.media.color_trc">2</property>
  <property name="meta.media.has_b_frames">0</property>
  <property name="meta.media.width">640</property>
  <property name="meta.media.height">360</property>
  <property name="meta.media.color_range">mpeg</property>
 </producer>
 <producer id="producer177" in="00:00:00.000" out="00:00:01.250">
  <property name="length">76</property>
  <property name="eof">pause</property>
  <property name="resource">/home/xiaoxiae/.cache/kdenlive/proxy/d89b6ef67d634b9bf7fd40dd3d76c24b.mov</property>
  <property name="audio_index">-1</property>
  <property name="video_index">0</property>
  <property name="mute_on_pause">0</property>
  <property name="mlt_service">avformat-novalidate</property>
  <property name="seekable">1</property>
  <property name="aspect_ratio">1</property>
  <property name="kdenlive:clipname">9.mp4</property>
  <property name="kdenlive:folderid">171</property>
  <property name="kdenlive:id">197</property>
  <property name="kdenlive:file_size">49922</property>
  <property name="kdenlive:proxy">/home/xiaoxiae/.cache/kdenlive/proxy/d89b6ef67d634b9bf7fd40dd3d76c24b.mov</property>
  <property name="kdenlive:originalurl">video/Motivation/vid/9.mp4</property>
  <property name="kdenlive:original.mlt_type">producer</property>
  <property name="kdenlive:original.in">0</property>
  <property name="kdenlive:original.out">75</property>
  <property name="kdenlive:original.length">76</property>
  <property name="kdenlive:original.eof">pause</property>
  <property name="kdenlive:original.resource">video/Motivation/vid/9.mp4</property>
  <property name="kdenlive:original.meta.media.nb_streams">1</property>
  <property name="kdenlive:original.meta.media.0.stream.type">video</property>
  <property name="kdenlive:original.meta.media.0.stream.frame_rate">60</property>
  <property name="kdenlive:original.meta.media.0.stream.sample_aspect_ratio">0</property>
  <property name="kdenlive:original.meta.media.0.codec.width">3840</property>
  <property name="kdenlive:original.meta.media.0.codec.height">2160</property>
  <property name="kdenlive:original.meta.media.0.codec.rotate">0</property>
  <property name="kdenlive:original.meta.media.0.codec.pix_fmt">yuv420p</property>
  <property name="kdenlive:original.meta.media.0.codec.sample_aspect_ratio">0</property>
  <property name="kdenlive:original.meta.media.0.codec.colorspace">709</property>
  <property name="kdenlive:original.meta.media.0.codec.name">h264</property>
  <property name="kdenlive:original.meta.media.0.codec.long_name">H.264 / AVC / MPEG-4 AVC / MPEG-4 part 10</property>
  <property name="kdenlive:original.meta.media.0.codec.bit_rate">303978</property>
  <property name="kdenlive:original.meta.attr.0.stream.handler_name.markup">VideoHandler</property>
  <property name="kdenlive:original.meta.attr.0.stream.vendor_id.markup">[0][0][0][0]</property>
  <property name="kdenlive:original.meta.attr.major_brand.markup">isom</property>
  <property name="kdenlive:original.meta.attr.minor_version.markup">512</property>
  <property name="kdenlive:original.meta.attr.compatible_brands.markup">isomiso2avc1mp41</property>
  <property name="kdenlive:original.meta.attr.encoder.markup">Lavf58.76.100</property>
  <property name="kdenlive:original.meta.attr.comment.markup">Rendered with Manim Community v0.12.0</property>
  <property name="kdenlive:original.seekable">1</property>
  <property name="kdenlive:original.width">3840</property>
  <property name="kdenlive:original.height">2160</property>
  <property name="kdenlive:original.meta.media.sample_aspect_num">1</property>
  <property name="kdenlive:original.meta.media.sample_aspect_den">1</property>
  <property name="kdenlive:original.aspect_ratio">1</property>
  <property name="kdenlive:original.audio_index">-1</property>
  <property name="kdenlive:original.video_index">0</property>
  <property name="kdenlive:original.mute_on_pause">0</property>
  <property name="kdenlive:original.mlt_service">avformat-novalidate</property>
  <property name="kdenlive:original.kdenlive:folderid">171</property>
  <property name="kdenlive:original.meta.media.frame_rate_num">60</property>
  <property name="kdenlive:original.meta.media.frame_rate_den">1</property>
  <property name="kdenlive:original.meta.media.colorspace">709</property>
  <property name="kdenlive:original.meta.media.color_trc">2</property>
  <property name="kdenlive:original.meta.media.has_b_frames">2</property>
  <property name="kdenlive:original.meta.media.width">3840</property>
  <property name="kdenlive:original.meta.media.height">2160</property>
  <property name="kdenlive:original.meta.media.color_range">mpeg</property>
  <property name="kdenlive:original.kdenlive:id">198</property>
  <property name="kdenlive:original.kdenlive:file_size">49922</property>
  <property name="kdenlive:original.kdenlive:file_hash">d89b6ef67d634b9bf7fd40dd3d76c24b</property>
  <property name="kdenlive:original.backup">1</property>
  <property name="kdenlive:file_hash">d89b6ef67d634b9bf7fd40dd3d76c24b</property>
  <property name="meta.media.nb_streams">1</property>
  <property name="meta.media.0.stream.type">video</property>
  <property name="meta.media.0.stream.frame_rate">60</property>
  <property name="meta.media.0.stream.sample_aspect_ratio">0</property>
  <property name="meta.media.0.codec.width">640</property>
  <property name="meta.media.0.codec.height">360</property>
  <property name="meta.media.0.codec.rotate">0</property>
  <property name="meta.media.0.codec.pix_fmt">yuv420p</property>
  <property name="meta.media.0.codec.sample_aspect_ratio">0</property>
  <property name="meta.media.0.codec.colorspace">601</property>
  <property name="meta.media.0.codec.name">h264</property>
  <property name="meta.media.0.codec.long_name">H.264 / AVC / MPEG-4 AVC / MPEG-4 part 10</property>
  <property name="meta.media.0.codec.bit_rate">684511</property>
  <property name="meta.attr.0.stream.handler_name.markup">VideoHandler</property>
  <property name="meta.attr.0.stream.vendor_id.markup">FFMP</property>
  <property name="meta.attr.0.stream.encoder.markup">Lavc58.134.100 libx264</property>
  <property name="meta.attr.major_brand.markup">qt  </property>
  <property name="meta.attr.minor_version.markup">512</property>
  <property name="meta.attr.compatible_brands.markup">qt  </property>
  <property name="meta.attr.encoder.markup">Lavf58.76.100</property>
  <property name="meta.attr.comment.markup">Rendered with Manim Community v0.12.0</property>
  <property name="meta.media.sample_aspect_num">1</property>
  <property name="meta.media.sample_aspect_den">1</property>
  <property name="meta.media.frame_rate_num">60</property>
  <property name="meta.media.frame_rate_den">1</property>
  <property name="meta.media.colorspace">601</property>
  <property name="meta.media.color_trc">2</property>
  <property name="meta.media.has_b_frames">0</property>
  <property name="meta.media.width">640</property>
  <property name="meta.media.height">360</property>
  <property name="meta.media.color_range">mpeg</property>
 </producer>
 <producer id="producer178" in="00:00:00.000" out="00:00:04.983">
  <property name="length">00:00:05.000</property>
  <property name="eof">pause</property>
  <property name="resource">/home/xiaoxiae/.cache/kdenlive/proxy/6b665121ca7b54a5f5307b69451fd23c.png</property>
  <property name="ttl">25</property>
  <property name="aspect_ratio">1</property>
  <property name="progressive">1</property>
  <property name="seekable">1</property>
  <property name="meta.media.width">800</property>
  <property name="meta.media.height">450</property>
  <property name="mlt_service">qimage</property>
  <property name="kdenlive:clipname">1.png</property>
  <property name="kdenlive:duration">00:00:05.000</property>
  <property name="kdenlive:folderid">200</property>
  <property name="kdenlive:id">198</property>
  <property name="kdenlive:file_size">24337</property>
  <property name="kdenlive:proxy">/home/xiaoxiae/.cache/kdenlive/proxy/6b665121ca7b54a5f5307b69451fd23c.png</property>
  <property name="kdenlive:originalurl">video/Outro/img/1.png</property>
  <property name="kdenlive:original.mlt_type">producer</property>
  <property name="kdenlive:original.in">0</property>
  <property name="kdenlive:original.out">299</property>
  <property name="kdenlive:original.length">00:00:05.000</property>
  <property name="kdenlive:original.eof">pause</property>
  <property name="kdenlive:original.resource">video/Outro/img/1.png</property>
  <property name="kdenlive:original.ttl">25</property>
  <property name="kdenlive:original.aspect_ratio">1</property>
  <property name="kdenlive:original.progressive">1</property>
  <property name="kdenlive:original.seekable">1</property>
  <property name="kdenlive:original.meta.media.width">3840</property>
  <property name="kdenlive:original.meta.media.height">2160</property>
  <property name="kdenlive:original.mlt_service">qimage</property>
  <property name="kdenlive:original.kdenlive:duration">00:00:05.000</property>
  <property name="kdenlive:original.kdenlive:folderid">200</property>
  <property name="kdenlive:original.kdenlive:id">201</property>
  <property name="kdenlive:original.kdenlive:file_size">24337</property>
  <property name="kdenlive:original.kdenlive:file_hash">6b665121ca7b54a5f5307b69451fd23c</property>
  <property name="kdenlive:original.backup">1</property>
  <property name="kdenlive:file_hash">6b665121ca7b54a5f5307b69451fd23c</property>
 </producer>
 <producer id="producer179" in="00:00:00.000" out="00:00:04.983">
  <property name="length">00:00:05.000</property>
  <property name="eof">pause</property>
  <property name="resource">/home/xiaoxiae/.cache/kdenlive/proxy/07852fe7e5ecc374fae5cccd4dc782e0.png</property>
  <property name="ttl">25</property>
  <property name="aspect_ratio">1</property>
  <property name="progressive">1</property>
  <property name="seekable">1</property>
  <property name="meta.media.width">800</property>
  <property name="meta.media.height">450</property>
  <property name="mlt_service">qimage</property>
  <property name="kdenlive:clipname">2.png</property>
  <property name="kdenlive:duration">00:00:05.000</property>
  <property name="kdenlive:folderid">200</property>
  <property name="kdenlive:id">201</property>
  <property name="kdenlive:file_size">313989</property>
  <property name="kdenlive:proxy">/home/xiaoxiae/.cache/kdenlive/proxy/07852fe7e5ecc374fae5cccd4dc782e0.png</property>
  <property name="kdenlive:originalurl">video/Outro/img/2.png</property>
  <property name="kdenlive:original.mlt_type">producer</property>
  <property name="kdenlive:original.in">0</property>
  <property name="kdenlive:original.out">299</property>
  <property name="kdenlive:original.length">00:00:05.000</property>
  <property name="kdenlive:original.eof">pause</property>
  <property name="kdenlive:original.resource">video/Outro/img/2.png</property>
  <property name="kdenlive:original.ttl">25</property>
  <property name="kdenlive:original.aspect_ratio">1</property>
  <property name="kdenlive:original.progressive">1</property>
  <property name="kdenlive:original.seekable">1</property>
  <property name="kdenlive:original.meta.media.width">3840</property>
  <property name="kdenlive:original.meta.media.height">2160</property>
  <property name="kdenlive:original.mlt_service">qimage</property>
  <property name="kdenlive:original.kdenlive:duration">00:00:05.000</property>
  <property name="kdenlive:original.kdenlive:folderid">200</property>
  <property name="kdenlive:original.kdenlive:id">202</property>
  <property name="kdenlive:original.kdenlive:file_size">313989</property>
  <property name="kdenlive:original.kdenlive:file_hash">07852fe7e5ecc374fae5cccd4dc782e0</property>
  <property name="kdenlive:original.backup">1</property>
  <property name="kdenlive:file_hash">07852fe7e5ecc374fae5cccd4dc782e0</property>
 </producer>
 <producer id="producer180" in="00:00:00.000" out="00:00:04.983">
  <property name="length">00:00:05.000</property>
  <property name="eof">pause</property>
  <property name="resource">/home/xiaoxiae/.cache/kdenlive/proxy/6b665121ca7b54a5f5307b69451fd23c.png</property>
  <property name="ttl">25</property>
  <property name="aspect_ratio">1</property>
  <property name="progressive">1</property>
  <property name="seekable">1</property>
  <property name="meta.media.width">800</property>
  <property name="meta.media.height">450</property>
  <property name="mlt_service">qimage</property>
  <property name="kdenlive:clipname">3.png</property>
  <property name="kdenlive:duration">00:00:05.000</property>
  <property name="kdenlive:folderid">200</property>
  <property name="kdenlive:id">202</property>
  <property name="kdenlive:file_size">24337</property>
  <property name="kdenlive:proxy">/home/xiaoxiae/.cache/kdenlive/proxy/6b665121ca7b54a5f5307b69451fd23c.png</property>
  <property name="kdenlive:originalurl">video/Outro/img/3.png</property>
  <property name="kdenlive:original.mlt_type">producer</property>
  <property name="kdenlive:original.in">0</property>
  <property name="kdenlive:original.out">299</property>
  <property name="kdenlive:original.length">00:00:05.000</property>
  <property name="kdenlive:original.eof">pause</property>
  <property name="kdenlive:original.resource">video/Outro/img/3.png</property>
  <property name="kdenlive:original.ttl">25</property>
  <property name="kdenlive:original.aspect_ratio">1</property>
  <property name="kdenlive:original.progressive">1</property>
  <property name="kdenlive:original.seekable">1</property>
  <property name="kdenlive:original.meta.media.width">3840</property>
  <property name="kdenlive:original.meta.media.height">2160</property>
  <property name="kdenlive:original.mlt_service">qimage</property>
  <property name="kdenlive:original.kdenlive:duration">00:00:05.000</property>
  <property name="kdenlive:original.kdenlive:folderid">200</property>
  <property name="kdenlive:original.kdenlive:id">203</property>
  <property name="kdenlive:original.kdenlive:file_size">24337</property>
  <property name="kdenlive:original.kdenlive:file_hash">6b665121ca7b54a5f5307b69451fd23c</property>
  <property name="kdenlive:original.backup">1</property>
  <property name="kdenlive:file_hash">6b665121ca7b54a5f5307b69451fd23c</property>
 </producer>
 <producer id="producer184" in="00:00:00.000" out="00:00:04.983">
  <property name="length">00:00:05.000</property>
  <property name="eof">pause</property>
  <property name="resource">/home/xiaoxiae/.cache/kdenlive/proxy/f05fb2eb530ad8aa77b379dca60f64c2.png</property>
  <property name="ttl">25</property>
  <property name="aspect_ratio">1</property>
  <property name="progressive">1</property>
  <property name="seekable">1</property>
  <property name="meta.media.width">800</property>
  <property name="meta.media.height">450</property>
  <property name="mlt_service">qimage</property>
  <property name="kdenlive:clipname">4.png</property>
  <property name="kdenlive:duration">00:00:05.000</property>
  <property name="kdenlive:folderid">200</property>
  <property name="kdenlive:id">203</property>
  <property name="kdenlive:file_size">2773663</property>
  <property name="kdenlive:proxy">/home/xiaoxiae/.cache/kdenlive/proxy/f05fb2eb530ad8aa77b379dca60f64c2.png</property>
  <property name="kdenlive:originalurl">video/Outro/img/4.png</property>
  <property name="kdenlive:original.mlt_type">producer</property>
  <property name="kdenlive:original.in">0</property>
  <property name="kdenlive:original.out">299</property>
  <property name="kdenlive:original.length">00:00:05.000</property>
  <property name="kdenlive:original.eof">pause</property>
  <property name="kdenlive:original.resource">video/Outro/img/4.png</property>
  <property name="kdenlive:original.ttl">25</property>
  <property name="kdenlive:original.aspect_ratio">1</property>
  <property name="kdenlive:original.progressive">1</property>
  <property name="kdenlive:original.seekable">1</property>
  <property name="kdenlive:original.meta.media.width">3840</property>
  <property name="kdenlive:original.meta.media.height">2160</property>
  <property name="kdenlive:original.mlt_service">qimage</property>
  <property name="kdenlive:original.kdenlive:duration">00:00:05.000</property>
  <property name="kdenlive:original.kdenlive:folderid">200</property>
  <property name="kdenlive:original.kdenlive:id">204</property>
  <property name="kdenlive:original.kdenlive:file_size">2773663</property>
  <property name="kdenlive:original.kdenlive:file_hash">f05fb2eb530ad8aa77b379dca60f64c2</property>
  <property name="kdenlive:original.backup">1</property>
  <property name="kdenlive:file_hash">f05fb2eb530ad8aa77b379dca60f64c2</property>
 </producer>
 <producer id="producer182" in="00:00:00.000" out="00:00:04.983">
  <property name="length">00:00:05.000</property>
  <property name="eof">pause</property>
  <property name="resource">/home/xiaoxiae/.cache/kdenlive/proxy/4cca1b4bd036875ff9ea065723e4cf4a.png</property>
  <property name="ttl">25</property>
  <property name="aspect_ratio">1</property>
  <property name="progressive">1</property>
  <property name="seekable">1</property>
  <property name="meta.media.width">800</property>
  <property name="meta.media.height">450</property>
  <property name="mlt_service">qimage</property>
  <property name="kdenlive:clipname">5.png</property>
  <property name="kdenlive:duration">00:00:05.000</property>
  <property name="kdenlive:folderid">200</property>
  <property name="kdenlive:id">204</property>
  <property name="kdenlive:file_size">1999692</property>
  <property name="kdenlive:proxy">/home/xiaoxiae/.cache/kdenlive/proxy/4cca1b4bd036875ff9ea065723e4cf4a.png</property>
  <property name="kdenlive:originalurl">video/Outro/img/5.png</property>
  <property name="kdenlive:original.mlt_type">producer</property>
  <property name="kdenlive:original.in">0</property>
  <property name="kdenlive:original.out">299</property>
  <property name="kdenlive:original.length">00:00:05.000</property>
  <property name="kdenlive:original.eof">pause</property>
  <property name="kdenlive:original.resource">video/Outro/img/5.png</property>
  <property name="kdenlive:original.ttl">25</property>
  <property name="kdenlive:original.aspect_ratio">1</property>
  <property name="kdenlive:original.progressive">1</property>
  <property name="kdenlive:original.seekable">1</property>
  <property name="kdenlive:original.meta.media.width">3840</property>
  <property name="kdenlive:original.meta.media.height">2160</property>
  <property name="kdenlive:original.mlt_service">qimage</property>
  <property name="kdenlive:original.kdenlive:duration">00:00:05.000</property>
  <property name="kdenlive:original.kdenlive:folderid">200</property>
  <property name="kdenlive:original.kdenlive:id">205</property>
  <property name="kdenlive:original.kdenlive:file_size">1999692</property>
  <property name="kdenlive:original.kdenlive:file_hash">4cca1b4bd036875ff9ea065723e4cf4a</property>
  <property name="kdenlive:original.backup">1</property>
  <property name="kdenlive:file_hash">4cca1b4bd036875ff9ea065723e4cf4a</property>
 </producer>
 <producer id="producer183" in="00:00:00.000" out="00:00:04.983">
  <property name="length">00:00:05.000</property>
  <property name="eof">pause</property>
  <property name="resource">/home/xiaoxiae/.cache/kdenlive/proxy/831f965df11f3962168bf8db086670d9.png</property>
  <property name="ttl">25</property>
  <property name="aspect_ratio">1</property>
  <property name="progressive">1</property>
  <property name="seekable">1</property>
  <property name="meta.media.width">800</property>
  <property name="meta.media.height">450</property>
  <property name="mlt_service">qimage</property>
  <property name="kdenlive:clipname">6.png</property>
  <property name="kdenlive:duration">00:00:05.000</property>
  <property name="kdenlive:folderid">200</property>
  <property name="kdenlive:id">205</property>
  <property name="kdenlive:file_size">2055754</property>
  <property name="kdenlive:proxy">/home/xiaoxiae/.cache/kdenlive/proxy/831f965df11f3962168bf8db086670d9.png</property>
  <property name="kdenlive:originalurl">video/Outro/img/6.png</property>
  <property name="kdenlive:original.mlt_type">producer</property>
  <property name="kdenlive:original.in">0</property>
  <property name="kdenlive:original.out">299</property>
  <property name="kdenlive:original.length">00:00:05.000</property>
  <property name="kdenlive:original.eof">pause</property>
  <property name="kdenlive:original.resource">video/Outro/img/6.png</property>
  <property name="kdenlive:original.ttl">25</property>
  <property name="kdenlive:original.aspect_ratio">1</property>
  <property name="kdenlive:original.progressive">1</property>
  <property name="kdenlive:original.seekable">1</property>
  <property name="kdenlive:original.meta.media.width">3840</property>
  <property name="kdenlive:original.meta.media.height">2160</property>
  <property name="kdenlive:original.mlt_service">qimage</property>
  <property name="kdenlive:original.kdenlive:duration">00:00:05.000</property>
  <property name="kdenlive:original.kdenlive:folderid">200</property>
  <property name="kdenlive:original.kdenlive:id">206</property>
  <property name="kdenlive:original.kdenlive:file_size">2055754</property>
  <property name="kdenlive:original.kdenlive:file_hash">831f965df11f3962168bf8db086670d9</property>
  <property name="kdenlive:original.backup">1</property>
  <property name="kdenlive:file_hash">831f965df11f3962168bf8db086670d9</property>
 </producer>
 <producer id="producer181" in="00:00:00.000" out="00:00:01.733">
  <property name="length">105</property>
  <property name="eof">pause</property>
  <property name="resource">/home/xiaoxiae/.cache/kdenlive/proxy/d1e6ba8b0d574345c796262410598cef.mov</property>
  <property name="audio_index">-1</property>
  <property name="video_index">0</property>
  <property name="mute_on_pause">0</property>
  <property name="mlt_service">avformat-novalidate</property>
  <property name="seekable">1</property>
  <property name="aspect_ratio">1</property>
  <property name="kdenlive:clipname">1.mp4</property>
  <property name="kdenlive:folderid">207</property>
  <property name="kdenlive:id">206</property>
  <property name="kdenlive:file_size">404143</property>
  <property name="kdenlive:proxy">/home/xiaoxiae/.cache/kdenlive/proxy/d1e6ba8b0d574345c796262410598cef.mov</property>
  <property name="kdenlive:originalurl">video/Outro/vid/1.mp4</property>
  <property name="kdenlive:original.mlt_type">producer</property>
  <property name="kdenlive:original.in">0</property>
  <property name="kdenlive:original.out">104</property>
  <property name="kdenlive:original.length">105</property>
  <property name="kdenlive:original.eof">pause</property>
  <property name="kdenlive:original.resource">video/Outro/vid/1.mp4</property>
  <property name="kdenlive:original.meta.media.nb_streams">1</property>
  <property name="kdenlive:original.meta.media.0.stream.type">video</property>
  <property name="kdenlive:original.meta.media.0.stream.frame_rate">60</property>
  <property name="kdenlive:original.meta.media.0.stream.sample_aspect_ratio">0</property>
  <property name="kdenlive:original.meta.media.0.codec.width">3840</property>
  <property name="kdenlive:original.meta.media.0.codec.height">2160</property>
  <property name="kdenlive:original.meta.media.0.codec.rotate">0</property>
  <property name="kdenlive:original.meta.media.0.codec.pix_fmt">yuv420p</property>
  <property name="kdenlive:original.meta.media.0.codec.sample_aspect_ratio">0</property>
  <property name="kdenlive:original.meta.media.0.codec.colorspace">709</property>
  <property name="kdenlive:original.meta.media.0.codec.name">h264</property>
  <property name="kdenlive:original.meta.media.0.codec.long_name">H.264 / AVC / MPEG-4 AVC / MPEG-4 part 10</property>
  <property name="kdenlive:original.meta.media.0.codec.bit_rate">1837654</property>
  <property name="kdenlive:original.meta.attr.0.stream.handler_name.markup">VideoHandler</property>
  <property name="kdenlive:original.meta.attr.0.stream.vendor_id.markup">[0][0][0][0]</property>
  <property name="kdenlive:original.meta.attr.major_brand.markup">isom</property>
  <property name="kdenlive:original.meta.attr.minor_version.markup">512</property>
  <property name="kdenlive:original.meta.attr.compatible_brands.markup">isomiso2avc1mp41</property>
  <property name="kdenlive:original.meta.attr.encoder.markup">Lavf58.76.100</property>
  <property name="kdenlive:original.meta.attr.comment.markup">Rendered with Manim Community v0.12.0</property>
  <property name="kdenlive:original.seekable">1</property>
  <property name="kdenlive:original.width">3840</property>
  <property name="kdenlive:original.height">2160</property>
  <property name="kdenlive:original.meta.media.sample_aspect_num">1</property>
  <property name="kdenlive:original.meta.media.sample_aspect_den">1</property>
  <property name="kdenlive:original.aspect_ratio">1</property>
  <property name="kdenlive:original.audio_index">-1</property>
  <property name="kdenlive:original.video_index">0</property>
  <property name="kdenlive:original.mute_on_pause">0</property>
  <property name="kdenlive:original.mlt_service">avformat-novalidate</property>
  <property name="kdenlive:original.kdenlive:folderid">207</property>
  <property name="kdenlive:original.meta.media.frame_rate_num">60</property>
  <property name="kdenlive:original.meta.media.frame_rate_den">1</property>
  <property name="kdenlive:original.meta.media.colorspace">709</property>
  <property name="kdenlive:original.meta.media.color_trc">2</property>
  <property name="kdenlive:original.meta.media.has_b_frames">2</property>
  <property name="kdenlive:original.meta.media.width">3840</property>
  <property name="kdenlive:original.meta.media.height">2160</property>
  <property name="kdenlive:original.meta.media.color_range">mpeg</property>
  <property name="kdenlive:original.kdenlive:id">208</property>
  <property name="kdenlive:original.kdenlive:file_size">404143</property>
  <property name="kdenlive:original.kdenlive:file_hash">d1e6ba8b0d574345c796262410598cef</property>
  <property name="kdenlive:original.backup">1</property>
  <property name="kdenlive:file_hash">d1e6ba8b0d574345c796262410598cef</property>
  <property name="meta.media.nb_streams">1</property>
  <property name="meta.media.0.stream.type">video</property>
  <property name="meta.media.0.stream.frame_rate">60</property>
  <property name="meta.media.0.stream.sample_aspect_ratio">0</property>
  <property name="meta.media.0.codec.width">640</property>
  <property name="meta.media.0.codec.height">360</property>
  <property name="meta.media.0.codec.rotate">0</property>
  <property name="meta.media.0.codec.pix_fmt">yuv420p</property>
  <property name="meta.media.0.codec.sample_aspect_ratio">0</property>
  <property name="meta.media.0.codec.colorspace">601</property>
  <property name="meta.media.0.codec.name">h264</property>
  <property name="meta.media.0.codec.long_name">H.264 / AVC / MPEG-4 AVC / MPEG-4 part 10</property>
  <property name="meta.media.0.codec.bit_rate">2028630</property>
  <property name="meta.attr.0.stream.handler_name.markup">VideoHandler</property>
  <property name="meta.attr.0.stream.vendor_id.markup">FFMP</property>
  <property name="meta.attr.0.stream.encoder.markup">Lavc58.134.100 libx264</property>
  <property name="meta.attr.major_brand.markup">qt  </property>
  <property name="meta.attr.minor_version.markup">512</property>
  <property name="meta.attr.compatible_brands.markup">qt  </property>
  <property name="meta.attr.encoder.markup">Lavf58.76.100</property>
  <property name="meta.attr.comment.markup">Rendered with Manim Community v0.12.0</property>
  <property name="meta.media.sample_aspect_num">1</property>
  <property name="meta.media.sample_aspect_den">1</property>
  <property name="meta.media.frame_rate_num">60</property>
  <property name="meta.media.frame_rate_den">1</property>
  <property name="meta.media.colorspace">601</property>
  <property name="meta.media.color_trc">2</property>
  <property name="meta.media.has_b_frames">0</property>
  <property name="meta.media.width">640</property>
  <property name="meta.media.height">360</property>
  <property name="meta.media.color_range">mpeg</property>
 </producer>
 <producer id="producer185" in="00:00:00.000" out="00:00:00.983">
  <property name="length">60</property>
  <property name="eof">pause</property>
  <property name="resource">/home/xiaoxiae/.cache/kdenlive/proxy/1c8dd09423013f8d35fd629cb8aa6798.mov</property>
  <property name="audio_index">-1</property>
  <property name="video_index">0</property>
  <property name="mute_on_pause">0</property>
  <property name="mlt_service">avformat-novalidate</property>
  <property name="seekable">1</property>
  <property name="aspect_ratio">1</property>
  <property name="kdenlive:clipname">2.mp4</property>
  <property name="kdenlive:folderid">207</property>
  <property name="kdenlive:id">208</property>
  <property name="kdenlive:file_size">227885</property>
  <property name="kdenlive:proxy">/home/xiaoxiae/.cache/kdenlive/proxy/1c8dd09423013f8d35fd629cb8aa6798.mov</property>
  <property name="kdenlive:originalurl">video/Outro/vid/2.mp4</property>
  <property name="kdenlive:original.mlt_type">producer</property>
  <property name="kdenlive:original.in">0</property>
  <property name="kdenlive:original.out">59</property>
  <property name="kdenlive:original.length">60</property>
  <property name="kdenlive:original.eof">pause</property>
  <property name="kdenlive:original.resource">video/Outro/vid/2.mp4</property>
  <property name="kdenlive:original.meta.media.nb_streams">1</property>
  <property name="kdenlive:original.meta.media.0.stream.type">video</property>
  <property name="kdenlive:original.meta.media.0.stream.frame_rate">60</property>
  <property name="kdenlive:original.meta.media.0.stream.sample_aspect_ratio">0</property>
  <property name="kdenlive:original.meta.media.0.codec.width">3840</property>
  <property name="kdenlive:original.meta.media.0.codec.height">2160</property>
  <property name="kdenlive:original.meta.media.0.codec.rotate">0</property>
  <property name="kdenlive:original.meta.media.0.codec.pix_fmt">yuv420p</property>
  <property name="kdenlive:original.meta.media.0.codec.sample_aspect_ratio">0</property>
  <property name="kdenlive:original.meta.media.0.codec.colorspace">709</property>
  <property name="kdenlive:original.meta.media.0.codec.name">h264</property>
  <property name="kdenlive:original.meta.media.0.codec.long_name">H.264 / AVC / MPEG-4 AVC / MPEG-4 part 10</property>
  <property name="kdenlive:original.meta.media.0.codec.bit_rate">1810344</property>
  <property name="kdenlive:original.meta.attr.0.stream.handler_name.markup">VideoHandler</property>
  <property name="kdenlive:original.meta.attr.0.stream.vendor_id.markup">[0][0][0][0]</property>
  <property name="kdenlive:original.meta.attr.major_brand.markup">isom</property>
  <property name="kdenlive:original.meta.attr.minor_version.markup">512</property>
  <property name="kdenlive:original.meta.attr.compatible_brands.markup">isomiso2avc1mp41</property>
  <property name="kdenlive:original.meta.attr.encoder.markup">Lavf58.76.100</property>
  <property name="kdenlive:original.meta.attr.comment.markup">Rendered with Manim Community v0.12.0</property>
  <property name="kdenlive:original.seekable">1</property>
  <property name="kdenlive:original.width">3840</property>
  <property name="kdenlive:original.height">2160</property>
  <property name="kdenlive:original.meta.media.sample_aspect_num">1</property>
  <property name="kdenlive:original.meta.media.sample_aspect_den">1</property>
  <property name="kdenlive:original.aspect_ratio">1</property>
  <property name="kdenlive:original.audio_index">-1</property>
  <property name="kdenlive:original.video_index">0</property>
  <property name="kdenlive:original.mute_on_pause">0</property>
  <property name="kdenlive:original.mlt_service">avformat-novalidate</property>
  <property name="kdenlive:original.kdenlive:folderid">207</property>
  <property name="kdenlive:original.meta.media.frame_rate_num">60</property>
  <property name="kdenlive:original.meta.media.frame_rate_den">1</property>
  <property name="kdenlive:original.meta.media.colorspace">709</property>
  <property name="kdenlive:original.meta.media.color_trc">2</property>
  <property name="kdenlive:original.meta.media.has_b_frames">2</property>
  <property name="kdenlive:original.meta.media.width">3840</property>
  <property name="kdenlive:original.meta.media.height">2160</property>
  <property name="kdenlive:original.meta.media.color_range">mpeg</property>
  <property name="kdenlive:original.kdenlive:id">209</property>
  <property name="kdenlive:original.kdenlive:file_size">227885</property>
  <property name="kdenlive:original.kdenlive:file_hash">1c8dd09423013f8d35fd629cb8aa6798</property>
  <property name="kdenlive:original.backup">1</property>
  <property name="kdenlive:file_hash">1c8dd09423013f8d35fd629cb8aa6798</property>
  <property name="meta.media.nb_streams">1</property>
  <property name="meta.media.0.stream.type">video</property>
  <property name="meta.media.0.stream.frame_rate">60</property>
  <property name="meta.media.0.stream.sample_aspect_ratio">0</property>
  <property name="meta.media.0.codec.width">640</property>
  <property name="meta.media.0.codec.height">360</property>
  <property name="meta.media.0.codec.rotate">0</property>
  <property name="meta.media.0.codec.pix_fmt">yuv420p</property>
  <property name="meta.media.0.codec.sample_aspect_ratio">0</property>
  <property name="meta.media.0.codec.colorspace">601</property>
  <property name="meta.media.0.codec.name">h264</property>
  <property name="meta.media.0.codec.long_name">H.264 / AVC / MPEG-4 AVC / MPEG-4 part 10</property>
  <property name="meta.media.0.codec.bit_rate">2288904</property>
  <property name="meta.attr.0.stream.handler_name.markup">VideoHandler</property>
  <property name="meta.attr.0.stream.vendor_id.markup">FFMP</property>
  <property name="meta.attr.0.stream.encoder.markup">Lavc58.134.100 libx264</property>
  <property name="meta.attr.major_brand.markup">qt  </property>
  <property name="meta.attr.minor_version.markup">512</property>
  <property name="meta.attr.compatible_brands.markup">qt  </property>
  <property name="meta.attr.encoder.markup">Lavf58.76.100</property>
  <property name="meta.attr.comment.markup">Rendered with Manim Community v0.12.0</property>
  <property name="meta.media.sample_aspect_num">1</property>
  <property name="meta.media.sample_aspect_den">1</property>
  <property name="meta.media.frame_rate_num">60</property>
  <property name="meta.media.frame_rate_den">1</property>
  <property name="meta.media.colorspace">601</property>
  <property name="meta.media.color_trc">2</property>
  <property name="meta.media.has_b_frames">0</property>
  <property name="meta.media.width">640</property>
  <property name="meta.media.height">360</property>
  <property name="meta.media.color_range">mpeg</property>
 </producer>
 <producer id="producer186" in="00:00:00.000" out="00:00:01.983">
  <property name="length">120</property>
  <property name="eof">pause</property>
  <property name="resource">/home/xiaoxiae/.cache/kdenlive/proxy/7b3524f3753f34831a869a7cea020444.mov</property>
  <property name="audio_index">-1</property>
  <property name="video_index">0</property>
  <property name="mute_on_pause">0</property>
  <property name="mlt_service">avformat-novalidate</property>
  <property name="seekable">1</property>
  <property name="aspect_ratio">1</property>
  <property name="kdenlive:clipname">3.mp4</property>
  <property name="kdenlive:folderid">207</property>
  <property name="kdenlive:id">209</property>
  <property name="kdenlive:file_size">1740940</property>
  <property name="kdenlive:proxy">/home/xiaoxiae/.cache/kdenlive/proxy/7b3524f3753f34831a869a7cea020444.mov</property>
  <property name="kdenlive:originalurl">video/Outro/vid/3.mp4</property>
  <property name="kdenlive:original.mlt_type">producer</property>
  <property name="kdenlive:original.in">0</property>
  <property name="kdenlive:original.out">119</property>
  <property name="kdenlive:original.length">120</property>
  <property name="kdenlive:original.eof">pause</property>
  <property name="kdenlive:original.resource">video/Outro/vid/3.mp4</property>
  <property name="kdenlive:original.meta.media.nb_streams">1</property>
  <property name="kdenlive:original.meta.media.0.stream.type">video</property>
  <property name="kdenlive:original.meta.media.0.stream.frame_rate">60</property>
  <property name="kdenlive:original.meta.media.0.stream.sample_aspect_ratio">0</property>
  <property name="kdenlive:original.meta.media.0.codec.width">3840</property>
  <property name="kdenlive:original.meta.media.0.codec.height">2160</property>
  <property name="kdenlive:original.meta.media.0.codec.rotate">0</property>
  <property name="kdenlive:original.meta.media.0.codec.pix_fmt">yuv420p</property>
  <property name="kdenlive:original.meta.media.0.codec.sample_aspect_ratio">0</property>
  <property name="kdenlive:original.meta.media.0.codec.colorspace">709</property>
  <property name="kdenlive:original.meta.media.0.codec.name">h264</property>
  <property name="kdenlive:original.meta.media.0.codec.long_name">H.264 / AVC / MPEG-4 AVC / MPEG-4 part 10</property>
  <property name="kdenlive:original.meta.media.0.codec.bit_rate">6954288</property>
  <property name="kdenlive:original.meta.attr.0.stream.handler_name.markup">VideoHandler</property>
  <property name="kdenlive:original.meta.attr.0.stream.vendor_id.markup">[0][0][0][0]</property>
  <property name="kdenlive:original.meta.attr.major_brand.markup">isom</property>
  <property name="kdenlive:original.meta.attr.minor_version.markup">512</property>
  <property name="kdenlive:original.meta.attr.compatible_brands.markup">isomiso2avc1mp41</property>
  <property name="kdenlive:original.meta.attr.encoder.markup">Lavf58.76.100</property>
  <property name="kdenlive:original.meta.attr.comment.markup">Rendered with Manim Community v0.12.0</property>
  <property name="kdenlive:original.seekable">1</property>
  <property name="kdenlive:original.width">3840</property>
  <property name="kdenlive:original.height">2160</property>
  <property name="kdenlive:original.meta.media.sample_aspect_num">1</property>
  <property name="kdenlive:original.meta.media.sample_aspect_den">1</property>
  <property name="kdenlive:original.aspect_ratio">1</property>
  <property name="kdenlive:original.audio_index">-1</property>
  <property name="kdenlive:original.video_index">0</property>
  <property name="kdenlive:original.mute_on_pause">0</property>
  <property name="kdenlive:original.mlt_service">avformat-novalidate</property>
  <property name="kdenlive:original.kdenlive:folderid">207</property>
  <property name="kdenlive:original.meta.media.frame_rate_num">60</property>
  <property name="kdenlive:original.meta.media.frame_rate_den">1</property>
  <property name="kdenlive:original.meta.media.colorspace">709</property>
  <property name="kdenlive:original.meta.media.color_trc">2</property>
  <property name="kdenlive:original.meta.media.has_b_frames">2</property>
  <property name="kdenlive:original.meta.media.width">3840</property>
  <property name="kdenlive:original.meta.media.height">2160</property>
  <property name="kdenlive:original.meta.media.color_range">mpeg</property>
  <property name="kdenlive:original.kdenlive:id">210</property>
  <property name="kdenlive:original.kdenlive:file_size">1740940</property>
  <property name="kdenlive:original.kdenlive:file_hash">7b3524f3753f34831a869a7cea020444</property>
  <property name="kdenlive:original.backup">1</property>
  <property name="kdenlive:file_hash">7b3524f3753f34831a869a7cea020444</property>
  <property name="meta.media.nb_streams">1</property>
  <property name="meta.media.0.stream.type">video</property>
  <property name="meta.media.0.stream.frame_rate">60</property>
  <property name="meta.media.0.stream.sample_aspect_ratio">0</property>
  <property name="meta.media.0.codec.width">640</property>
  <property name="meta.media.0.codec.height">360</property>
  <property name="meta.media.0.codec.rotate">0</property>
  <property name="meta.media.0.codec.pix_fmt">yuv420p</property>
  <property name="meta.media.0.codec.sample_aspect_ratio">0</property>
  <property name="meta.media.0.codec.colorspace">601</property>
  <property name="meta.media.0.codec.name">h264</property>
  <property name="meta.media.0.codec.long_name">H.264 / AVC / MPEG-4 AVC / MPEG-4 part 10</property>
  <property name="meta.media.0.codec.bit_rate">6175680</property>
  <property name="meta.attr.0.stream.handler_name.markup">VideoHandler</property>
  <property name="meta.attr.0.stream.vendor_id.markup">FFMP</property>
  <property name="meta.attr.0.stream.encoder.markup">Lavc58.134.100 libx264</property>
  <property name="meta.attr.major_brand.markup">qt  </property>
  <property name="meta.attr.minor_version.markup">512</property>
  <property name="meta.attr.compatible_brands.markup">qt  </property>
  <property name="meta.attr.encoder.markup">Lavf58.76.100</property>
  <property name="meta.attr.comment.markup">Rendered with Manim Community v0.12.0</property>
  <property name="meta.media.sample_aspect_num">1</property>
  <property name="meta.media.sample_aspect_den">1</property>
  <property name="meta.media.frame_rate_num">60</property>
  <property name="meta.media.frame_rate_den">1</property>
  <property name="meta.media.colorspace">601</property>
  <property name="meta.media.color_trc">2</property>
  <property name="meta.media.has_b_frames">0</property>
  <property name="meta.media.width">640</property>
  <property name="meta.media.height">360</property>
  <property name="meta.media.color_range">mpeg</property>
 </producer>
 <producer id="producer187" in="00:00:00.000" out="00:00:00.983">
  <property name="length">60</property>
  <property name="eof">pause</property>
  <property name="resource">/home/xiaoxiae/.cache/kdenlive/proxy/e229397abbd149fe71ff076a256861e9.mov</property>
  <property name="audio_index">-1</property>
  <property name="video_index">0</property>
  <property name="mute_on_pause">0</property>
  <property name="mlt_service">avformat-novalidate</property>
  <property name="seekable">1</property>
  <property name="aspect_ratio">1</property>
  <property name="kdenlive:clipname">4.mp4</property>
  <property name="kdenlive:folderid">207</property>
  <property name="kdenlive:id">210</property>
  <property name="kdenlive:file_size">1360174</property>
  <property name="kdenlive:proxy">/home/xiaoxiae/.cache/kdenlive/proxy/e229397abbd149fe71ff076a256861e9.mov</property>
  <property name="kdenlive:originalurl">video/Outro/vid/4.mp4</property>
  <property name="kdenlive:original.mlt_type">producer</property>
  <property name="kdenlive:original.in">0</property>
  <property name="kdenlive:original.out">59</property>
  <property name="kdenlive:original.length">60</property>
  <property name="kdenlive:original.eof">pause</property>
  <property name="kdenlive:original.resource">video/Outro/vid/4.mp4</property>
  <property name="kdenlive:original.meta.media.nb_streams">1</property>
  <property name="kdenlive:original.meta.media.0.stream.type">video</property>
  <property name="kdenlive:original.meta.media.0.stream.frame_rate">60</property>
  <property name="kdenlive:original.meta.media.0.stream.sample_aspect_ratio">0</property>
  <property name="kdenlive:original.meta.media.0.codec.width">3840</property>
  <property name="kdenlive:original.meta.media.0.codec.height">2160</property>
  <property name="kdenlive:original.meta.media.0.codec.rotate">0</property>
  <property name="kdenlive:original.meta.media.0.codec.pix_fmt">yuv420p</property>
  <property name="kdenlive:original.meta.media.0.codec.sample_aspect_ratio">0</property>
  <property name="kdenlive:original.meta.media.0.codec.colorspace">709</property>
  <property name="kdenlive:original.meta.media.0.codec.name">h264</property>
  <property name="kdenlive:original.meta.media.0.codec.long_name">H.264 / AVC / MPEG-4 AVC / MPEG-4 part 10</property>
  <property name="kdenlive:original.meta.media.0.codec.bit_rate">10868912</property>
  <property name="kdenlive:original.meta.attr.0.stream.handler_name.markup">VideoHandler</property>
  <property name="kdenlive:original.meta.attr.0.stream.vendor_id.markup">[0][0][0][0]</property>
  <property name="kdenlive:original.meta.attr.major_brand.markup">isom</property>
  <property name="kdenlive:original.meta.attr.minor_version.markup">512</property>
  <property name="kdenlive:original.meta.attr.compatible_brands.markup">isomiso2avc1mp41</property>
  <property name="kdenlive:original.meta.attr.encoder.markup">Lavf58.76.100</property>
  <property name="kdenlive:original.meta.attr.comment.markup">Rendered with Manim Community v0.12.0</property>
  <property name="kdenlive:original.seekable">1</property>
  <property name="kdenlive:original.width">3840</property>
  <property name="kdenlive:original.height">2160</property>
  <property name="kdenlive:original.meta.media.sample_aspect_num">1</property>
  <property name="kdenlive:original.meta.media.sample_aspect_den">1</property>
  <property name="kdenlive:original.aspect_ratio">1</property>
  <property name="kdenlive:original.audio_index">-1</property>
  <property name="kdenlive:original.video_index">0</property>
  <property name="kdenlive:original.mute_on_pause">0</property>
  <property name="kdenlive:original.mlt_service">avformat-novalidate</property>
  <property name="kdenlive:original.kdenlive:folderid">207</property>
  <property name="kdenlive:original.meta.media.frame_rate_num">60</property>
  <property name="kdenlive:original.meta.media.frame_rate_den">1</property>
  <property name="kdenlive:original.meta.media.colorspace">709</property>
  <property name="kdenlive:original.meta.media.color_trc">2</property>
  <property name="kdenlive:original.meta.media.has_b_frames">2</property>
  <property name="kdenlive:original.meta.media.width">3840</property>
  <property name="kdenlive:original.meta.media.height">2160</property>
  <property name="kdenlive:original.meta.media.color_range">mpeg</property>
  <property name="kdenlive:original.kdenlive:id">211</property>
  <property name="kdenlive:original.kdenlive:file_size">1360174</property>
  <property name="kdenlive:original.kdenlive:file_hash">e229397abbd149fe71ff076a256861e9</property>
  <property name="kdenlive:original.backup">1</property>
  <property name="kdenlive:file_hash">e229397abbd149fe71ff076a256861e9</property>
  <property name="meta.media.nb_streams">1</property>
  <property name="meta.media.0.stream.type">video</property>
  <property name="meta.media.0.stream.frame_rate">60</property>
  <property name="meta.media.0.stream.sample_aspect_ratio">0</property>
  <property name="meta.media.0.codec.width">640</property>
  <property name="meta.media.0.codec.height">360</property>
  <property name="meta.media.0.codec.rotate">0</property>
  <property name="meta.media.0.codec.pix_fmt">yuv420p</property>
  <property name="meta.media.0.codec.sample_aspect_ratio">0</property>
  <property name="meta.media.0.codec.colorspace">601</property>
  <property name="meta.media.0.codec.name">h264</property>
  <property name="meta.media.0.codec.long_name">H.264 / AVC / MPEG-4 AVC / MPEG-4 part 10</property>
  <property name="meta.media.0.codec.bit_rate">8339952</property>
  <property name="meta.attr.0.stream.handler_name.markup">VideoHandler</property>
  <property name="meta.attr.0.stream.vendor_id.markup">FFMP</property>
  <property name="meta.attr.0.stream.encoder.markup">Lavc58.134.100 libx264</property>
  <property name="meta.attr.major_brand.markup">qt  </property>
  <property name="meta.attr.minor_version.markup">512</property>
  <property name="meta.attr.compatible_brands.markup">qt  </property>
  <property name="meta.attr.encoder.markup">Lavf58.76.100</property>
  <property name="meta.attr.comment.markup">Rendered with Manim Community v0.12.0</property>
  <property name="meta.media.sample_aspect_num">1</property>
  <property name="meta.media.sample_aspect_den">1</property>
  <property name="meta.media.frame_rate_num">60</property>
  <property name="meta.media.frame_rate_den">1</property>
  <property name="meta.media.colorspace">601</property>
  <property name="meta.media.color_trc">2</property>
  <property name="meta.media.has_b_frames">0</property>
  <property name="meta.media.width">640</property>
  <property name="meta.media.height">360</property>
  <property name="meta.media.color_range">mpeg</property>
 </producer>
 <producer id="producer188" in="00:00:00.000" out="00:00:00.983">
  <property name="length">60</property>
  <property name="eof">pause</property>
  <property name="resource">/home/xiaoxiae/.cache/kdenlive/proxy/0f1fa26e5ad411cd917a7aae9514504c.mov</property>
  <property name="audio_index">-1</property>
  <property name="video_index">0</property>
  <property name="mute_on_pause">0</property>
  <property name="mlt_service">avformat-novalidate</property>
  <property name="seekable">1</property>
  <property name="aspect_ratio">1</property>
  <property name="kdenlive:clipname">5.mp4</property>
  <property name="kdenlive:folderid">207</property>
  <property name="kdenlive:id">211</property>
  <property name="kdenlive:file_size">245417</property>
  <property name="kdenlive:proxy">/home/xiaoxiae/.cache/kdenlive/proxy/0f1fa26e5ad411cd917a7aae9514504c.mov</property>
  <property name="kdenlive:originalurl">video/Outro/vid/5.mp4</property>
  <property name="kdenlive:original.mlt_type">producer</property>
  <property name="kdenlive:original.in">0</property>
  <property name="kdenlive:original.out">59</property>
  <property name="kdenlive:original.length">60</property>
  <property name="kdenlive:original.eof">pause</property>
  <property name="kdenlive:original.resource">video/Outro/vid/5.mp4</property>
  <property name="kdenlive:original.meta.media.nb_streams">1</property>
  <property name="kdenlive:original.meta.media.0.stream.type">video</property>
  <property name="kdenlive:original.meta.media.0.stream.frame_rate">60</property>
  <property name="kdenlive:original.meta.media.0.stream.sample_aspect_ratio">0</property>
  <property name="kdenlive:original.meta.media.0.codec.width">3840</property>
  <property name="kdenlive:original.meta.media.0.codec.height">2160</property>
  <property name="kdenlive:original.meta.media.0.codec.rotate">0</property>
  <property name="kdenlive:original.meta.media.0.codec.pix_fmt">yuv420p</property>
  <property name="kdenlive:original.meta.media.0.codec.sample_aspect_ratio">0</property>
  <property name="kdenlive:original.meta.media.0.codec.colorspace">709</property>
  <property name="kdenlive:original.meta.media.0.codec.name">h264</property>
  <property name="kdenlive:original.meta.media.0.codec.long_name">H.264 / AVC / MPEG-4 AVC / MPEG-4 part 10</property>
  <property name="kdenlive:original.meta.media.0.codec.bit_rate">1950280</property>
  <property name="kdenlive:original.meta.attr.0.stream.handler_name.markup">VideoHandler</property>
  <property name="kdenlive:original.meta.attr.0.stream.vendor_id.markup">[0][0][0][0]</property>
  <property name="kdenlive:original.meta.attr.major_brand.markup">isom</property>
  <property name="kdenlive:original.meta.attr.minor_version.markup">512</property>
  <property name="kdenlive:original.meta.attr.compatible_brands.markup">isomiso2avc1mp41</property>
  <property name="kdenlive:original.meta.attr.encoder.markup">Lavf58.76.100</property>
  <property name="kdenlive:original.meta.attr.comment.markup">Rendered with Manim Community v0.12.0</property>
  <property name="kdenlive:original.seekable">1</property>
  <property name="kdenlive:original.width">3840</property>
  <property name="kdenlive:original.height">2160</property>
  <property name="kdenlive:original.meta.media.sample_aspect_num">1</property>
  <property name="kdenlive:original.meta.media.sample_aspect_den">1</property>
  <property name="kdenlive:original.aspect_ratio">1</property>
  <property name="kdenlive:original.audio_index">-1</property>
  <property name="kdenlive:original.video_index">0</property>
  <property name="kdenlive:original.mute_on_pause">0</property>
  <property name="kdenlive:original.mlt_service">avformat-novalidate</property>
  <property name="kdenlive:original.kdenlive:folderid">207</property>
  <property name="kdenlive:original.meta.media.frame_rate_num">60</property>
  <property name="kdenlive:original.meta.media.frame_rate_den">1</property>
  <property name="kdenlive:original.meta.media.colorspace">709</property>
  <property name="kdenlive:original.meta.media.color_trc">2</property>
  <property name="kdenlive:original.meta.media.has_b_frames">2</property>
  <property name="kdenlive:original.meta.media.width">3840</property>
  <property name="kdenlive:original.meta.media.height">2160</property>
  <property name="kdenlive:original.meta.media.color_range">mpeg</property>
  <property name="kdenlive:original.kdenlive:id">212</property>
  <property name="kdenlive:original.kdenlive:file_size">245417</property>
  <property name="kdenlive:original.kdenlive:file_hash">0f1fa26e5ad411cd917a7aae9514504c</property>
  <property name="kdenlive:original.backup">1</property>
  <property name="kdenlive:file_hash">0f1fa26e5ad411cd917a7aae9514504c</property>
  <property name="meta.media.nb_streams">1</property>
  <property name="meta.media.0.stream.type">video</property>
  <property name="meta.media.0.stream.frame_rate">60</property>
  <property name="meta.media.0.stream.sample_aspect_ratio">0</property>
  <property name="meta.media.0.codec.width">640</property>
  <property name="meta.media.0.codec.height">360</property>
  <property name="meta.media.0.codec.rotate">0</property>
  <property name="meta.media.0.codec.pix_fmt">yuv420p</property>
  <property name="meta.media.0.codec.sample_aspect_ratio">0</property>
  <property name="meta.media.0.codec.colorspace">601</property>
  <property name="meta.media.0.codec.name">h264</property>
  <property name="meta.media.0.codec.long_name">H.264 / AVC / MPEG-4 AVC / MPEG-4 part 10</property>
  <property name="meta.media.0.codec.bit_rate">6467704</property>
  <property name="meta.attr.0.stream.handler_name.markup">VideoHandler</property>
  <property name="meta.attr.0.stream.vendor_id.markup">FFMP</property>
  <property name="meta.attr.0.stream.encoder.markup">Lavc58.134.100 libx264</property>
  <property name="meta.attr.major_brand.markup">qt  </property>
  <property name="meta.attr.minor_version.markup">512</property>
  <property name="meta.attr.compatible_brands.markup">qt  </property>
  <property name="meta.attr.encoder.markup">Lavf58.76.100</property>
  <property name="meta.attr.comment.markup">Rendered with Manim Community v0.12.0</property>
  <property name="meta.media.sample_aspect_num">1</property>
  <property name="meta.media.sample_aspect_den">1</property>
  <property name="meta.media.frame_rate_num">60</property>
  <property name="meta.media.frame_rate_den">1</property>
  <property name="meta.media.colorspace">601</property>
  <property name="meta.media.color_trc">2</property>
  <property name="meta.media.has_b_frames">0</property>
  <property name="meta.media.width">640</property>
  <property name="meta.media.height">360</property>
  <property name="meta.media.color_range">mpeg</property>
 </producer>
 <producer id="producer189" in="00:00:00.000" out="00:00:00.983">
  <property name="length">60</property>
  <property name="eof">pause</property>
  <property name="resource">/home/xiaoxiae/.cache/kdenlive/proxy/e461bd6dbbcaafb9b399bf8e1a437616.mov</property>
  <property name="audio_index">-1</property>
  <property name="video_index">0</property>
  <property name="mute_on_pause">0</property>
  <property name="mlt_service">avformat-novalidate</property>
  <property name="seekable">1</property>
  <property name="aspect_ratio">1</property>
  <property name="kdenlive:clipname">6.mp4</property>
  <property name="kdenlive:folderid">207</property>
  <property name="kdenlive:id">212</property>
  <property name="kdenlive:file_size">525200</property>
  <property name="kdenlive:proxy">/home/xiaoxiae/.cache/kdenlive/proxy/e461bd6dbbcaafb9b399bf8e1a437616.mov</property>
  <property name="kdenlive:originalurl">video/Outro/vid/6.mp4</property>
  <property name="kdenlive:original.mlt_type">producer</property>
  <property name="kdenlive:original.in">0</property>
  <property name="kdenlive:original.out">59</property>
  <property name="kdenlive:original.length">60</property>
  <property name="kdenlive:original.eof">pause</property>
  <property name="kdenlive:original.resource">video/Outro/vid/6.mp4</property>
  <property name="kdenlive:original.meta.media.nb_streams">1</property>
  <property name="kdenlive:original.meta.media.0.stream.type">video</property>
  <property name="kdenlive:original.meta.media.0.stream.frame_rate">60</property>
  <property name="kdenlive:original.meta.media.0.stream.sample_aspect_ratio">0</property>
  <property name="kdenlive:original.meta.media.0.codec.width">3840</property>
  <property name="kdenlive:original.meta.media.0.codec.height">2160</property>
  <property name="kdenlive:original.meta.media.0.codec.rotate">0</property>
  <property name="kdenlive:original.meta.media.0.codec.pix_fmt">yuv420p</property>
  <property name="kdenlive:original.meta.media.0.codec.sample_aspect_ratio">0</property>
  <property name="kdenlive:original.meta.media.0.codec.colorspace">709</property>
  <property name="kdenlive:original.meta.media.0.codec.name">h264</property>
  <property name="kdenlive:original.meta.media.0.codec.long_name">H.264 / AVC / MPEG-4 AVC / MPEG-4 part 10</property>
  <property name="kdenlive:original.meta.media.0.codec.bit_rate">4188576</property>
  <property name="kdenlive:original.meta.attr.0.stream.handler_name.markup">VideoHandler</property>
  <property name="kdenlive:original.meta.attr.0.stream.vendor_id.markup">[0][0][0][0]</property>
  <property name="kdenlive:original.meta.attr.major_brand.markup">isom</property>
  <property name="kdenlive:original.meta.attr.minor_version.markup">512</property>
  <property name="kdenlive:original.meta.attr.compatible_brands.markup">isomiso2avc1mp41</property>
  <property name="kdenlive:original.meta.attr.encoder.markup">Lavf58.76.100</property>
  <property name="kdenlive:original.meta.attr.comment.markup">Rendered with Manim Community v0.12.0</property>
  <property name="kdenlive:original.seekable">1</property>
  <property name="kdenlive:original.width">3840</property>
  <property name="kdenlive:original.height">2160</property>
  <property name="kdenlive:original.meta.media.sample_aspect_num">1</property>
  <property name="kdenlive:original.meta.media.sample_aspect_den">1</property>
  <property name="kdenlive:original.aspect_ratio">1</property>
  <property name="kdenlive:original.audio_index">-1</property>
  <property name="kdenlive:original.video_index">0</property>
  <property name="kdenlive:original.mute_on_pause">0</property>
  <property name="kdenlive:original.mlt_service">avformat-novalidate</property>
  <property name="kdenlive:original.kdenlive:folderid">207</property>
  <property name="kdenlive:original.meta.media.frame_rate_num">60</property>
  <property name="kdenlive:original.meta.media.frame_rate_den">1</property>
  <property name="kdenlive:original.meta.media.colorspace">709</property>
  <property name="kdenlive:original.meta.media.color_trc">2</property>
  <property name="kdenlive:original.meta.media.has_b_frames">2</property>
  <property name="kdenlive:original.meta.media.width">3840</property>
  <property name="kdenlive:original.meta.media.height">2160</property>
  <property name="kdenlive:original.meta.media.color_range">mpeg</property>
  <property name="kdenlive:original.kdenlive:id">213</property>
  <property name="kdenlive:original.kdenlive:file_size">525200</property>
  <property name="kdenlive:original.kdenlive:file_hash">e461bd6dbbcaafb9b399bf8e1a437616</property>
  <property name="kdenlive:original.backup">1</property>
  <property name="kdenlive:file_hash">e461bd6dbbcaafb9b399bf8e1a437616</property>
  <property name="meta.media.nb_streams">1</property>
  <property name="meta.media.0.stream.type">video</property>
  <property name="meta.media.0.stream.frame_rate">60</property>
  <property name="meta.media.0.stream.sample_aspect_ratio">0</property>
  <property name="meta.media.0.codec.width">640</property>
  <property name="meta.media.0.codec.height">360</property>
  <property name="meta.media.0.codec.rotate">0</property>
  <property name="meta.media.0.codec.pix_fmt">yuv420p</property>
  <property name="meta.media.0.codec.sample_aspect_ratio">0</property>
  <property name="meta.media.0.codec.colorspace">601</property>
  <property name="meta.media.0.codec.name">h264</property>
  <property name="meta.media.0.codec.long_name">H.264 / AVC / MPEG-4 AVC / MPEG-4 part 10</property>
  <property name="meta.media.0.codec.bit_rate">4068800</property>
  <property name="meta.attr.0.stream.handler_name.markup">VideoHandler</property>
  <property name="meta.attr.0.stream.vendor_id.markup">FFMP</property>
  <property name="meta.attr.0.stream.encoder.markup">Lavc58.134.100 libx264</property>
  <property name="meta.attr.major_brand.markup">qt  </property>
  <property name="meta.attr.minor_version.markup">512</property>
  <property name="meta.attr.compatible_brands.markup">qt  </property>
  <property name="meta.attr.encoder.markup">Lavf58.76.100</property>
  <property name="meta.attr.comment.markup">Rendered with Manim Community v0.12.0</property>
  <property name="meta.media.sample_aspect_num">1</property>
  <property name="meta.media.sample_aspect_den">1</property>
  <property name="meta.media.frame_rate_num">60</property>
  <property name="meta.media.frame_rate_den">1</property>
  <property name="meta.media.colorspace">601</property>
  <property name="meta.media.color_trc">2</property>
  <property name="meta.media.has_b_frames">0</property>
  <property name="meta.media.width">640</property>
  <property name="meta.media.height">360</property>
  <property name="meta.media.color_range">mpeg</property>
 </producer>
 <producer id="producer190" in="00:00:00.000" out="00:00:04.983">
  <property name="length">00:00:05.000</property>
  <property name="eof">pause</property>
  <property name="resource">/home/xiaoxiae/.cache/kdenlive/proxy/6b665121ca7b54a5f5307b69451fd23c.png</property>
  <property name="ttl">25</property>
  <property name="aspect_ratio">1</property>
  <property name="progressive">1</property>
  <property name="seekable">1</property>
  <property name="meta.media.width">800</property>
  <property name="meta.media.height">450</property>
  <property name="mlt_service">qimage</property>
  <property name="kdenlive:clipname">1.png</property>
  <property name="kdenlive:duration">00:00:05.000</property>
  <property name="kdenlive:folderid">215</property>
  <property name="kdenlive:id">213</property>
  <property name="kdenlive:file_size">24337</property>
  <property name="kdenlive:proxy">/home/xiaoxiae/.cache/kdenlive/proxy/6b665121ca7b54a5f5307b69451fd23c.png</property>
  <property name="kdenlive:originalurl">video/ParenthesesExample/img/1.png</property>
  <property name="kdenlive:original.mlt_type">producer</property>
  <property name="kdenlive:original.in">0</property>
  <property name="kdenlive:original.out">299</property>
  <property name="kdenlive:original.length">00:00:05.000</property>
  <property name="kdenlive:original.eof">pause</property>
  <property name="kdenlive:original.resource">video/ParenthesesExample/img/1.png</property>
  <property name="kdenlive:original.ttl">25</property>
  <property name="kdenlive:original.aspect_ratio">1</property>
  <property name="kdenlive:original.progressive">1</property>
  <property name="kdenlive:original.seekable">1</property>
  <property name="kdenlive:original.meta.media.width">3840</property>
  <property name="kdenlive:original.meta.media.height">2160</property>
  <property name="kdenlive:original.mlt_service">qimage</property>
  <property name="kdenlive:original.kdenlive:duration">00:00:05.000</property>
  <property name="kdenlive:original.kdenlive:folderid">215</property>
  <property name="kdenlive:original.kdenlive:id">216</property>
  <property name="kdenlive:original.kdenlive:file_size">24337</property>
  <property name="kdenlive:original.kdenlive:file_hash">6b665121ca7b54a5f5307b69451fd23c</property>
  <property name="kdenlive:original.backup">1</property>
  <property name="kdenlive:file_hash">6b665121ca7b54a5f5307b69451fd23c</property>
 </producer>
 <producer id="producer191" in="00:00:00.000" out="00:00:05.733">
  <property name="length">00:00:05.750</property>
  <property name="eof">pause</property>
  <property name="resource">/home/xiaoxiae/.cache/kdenlive/proxy/81728353713c15bcba3a37e21b452c8a.png</property>
  <property name="ttl">25</property>
  <property name="aspect_ratio">1</property>
  <property name="progressive">1</property>
  <property name="seekable">1</property>
  <property name="meta.media.width">800</property>
  <property name="meta.media.height">450</property>
  <property name="mlt_service">qimage</property>
  <property name="kdenlive:clipname">10.png</property>
  <property name="kdenlive:duration">00:00:05.000</property>
  <property name="kdenlive:folderid">215</property>
  <property name="kdenlive:id">216</property>
  <property name="kdenlive:file_size">709117</property>
  <property name="kdenlive:proxy">/home/xiaoxiae/.cache/kdenlive/proxy/81728353713c15bcba3a37e21b452c8a.png</property>
  <property name="kdenlive:originalurl">video/ParenthesesExample/img/10.png</property>
  <property name="kdenlive:original.mlt_type">producer</property>
  <property name="kdenlive:original.in">0</property>
  <property name="kdenlive:original.out">299</property>
  <property name="kdenlive:original.length">00:00:05.000</property>
  <property name="kdenlive:original.eof">pause</property>
  <property name="kdenlive:original.resource">video/ParenthesesExample/img/10.png</property>
  <property name="kdenlive:original.ttl">25</property>
  <property name="kdenlive:original.aspect_ratio">1</property>
  <property name="kdenlive:original.progressive">1</property>
  <property name="kdenlive:original.seekable">1</property>
  <property name="kdenlive:original.meta.media.width">3840</property>
  <property name="kdenlive:original.meta.media.height">2160</property>
  <property name="kdenlive:original.mlt_service">qimage</property>
  <property name="kdenlive:original.kdenlive:duration">00:00:05.000</property>
  <property name="kdenlive:original.kdenlive:folderid">215</property>
  <property name="kdenlive:original.kdenlive:id">217</property>
  <property name="kdenlive:original.kdenlive:file_size">709117</property>
  <property name="kdenlive:original.kdenlive:file_hash">81728353713c15bcba3a37e21b452c8a</property>
  <property name="kdenlive:original.backup">1</property>
  <property name="kdenlive:file_hash">81728353713c15bcba3a37e21b452c8a</property>
 </producer>
 <producer id="producer192" in="00:00:00.000" out="00:00:05.117">
  <property name="length">00:00:05.133</property>
  <property name="eof">pause</property>
  <property name="resource">/home/xiaoxiae/.cache/kdenlive/proxy/e588af16386210e94f5b0e2d724e0b1a.png</property>
  <property name="ttl">25</property>
  <property name="aspect_ratio">1</property>
  <property name="progressive">1</property>
  <property name="seekable">1</property>
  <property name="meta.media.width">800</property>
  <property name="meta.media.height">450</property>
  <property name="mlt_service">qimage</property>
  <property name="kdenlive:clipname">11.png</property>
  <property name="kdenlive:duration">00:00:05.000</property>
  <property name="kdenlive:folderid">215</property>
  <property name="kdenlive:id">217</property>
  <property name="kdenlive:file_size">730749</property>
  <property name="kdenlive:proxy">/home/xiaoxiae/.cache/kdenlive/proxy/e588af16386210e94f5b0e2d724e0b1a.png</property>
  <property name="kdenlive:originalurl">video/ParenthesesExample/img/11.png</property>
  <property name="kdenlive:original.mlt_type">producer</property>
  <property name="kdenlive:original.in">0</property>
  <property name="kdenlive:original.out">299</property>
  <property name="kdenlive:original.length">00:00:05.000</property>
  <property name="kdenlive:original.eof">pause</property>
  <property name="kdenlive:original.resource">video/ParenthesesExample/img/11.png</property>
  <property name="kdenlive:original.ttl">25</property>
  <property name="kdenlive:original.aspect_ratio">1</property>
  <property name="kdenlive:original.progressive">1</property>
  <property name="kdenlive:original.seekable">1</property>
  <property name="kdenlive:original.meta.media.width">3840</property>
  <property name="kdenlive:original.meta.media.height">2160</property>
  <property name="kdenlive:original.mlt_service">qimage</property>
  <property name="kdenlive:original.kdenlive:duration">00:00:05.000</property>
  <property name="kdenlive:original.kdenlive:folderid">215</property>
  <property name="kdenlive:original.kdenlive:id">218</property>
  <property name="kdenlive:original.kdenlive:file_size">730749</property>
  <property name="kdenlive:original.kdenlive:file_hash">e588af16386210e94f5b0e2d724e0b1a</property>
  <property name="kdenlive:original.backup">1</property>
  <property name="kdenlive:file_hash">e588af16386210e94f5b0e2d724e0b1a</property>
 </producer>
 <producer id="producer193" in="00:00:00.000" out="00:00:04.983">
  <property name="length">00:00:05.000</property>
  <property name="eof">pause</property>
  <property name="resource">/home/xiaoxiae/.cache/kdenlive/proxy/8b0b07a884c99bed56a2312a66bc1658.png</property>
  <property name="ttl">25</property>
  <property name="aspect_ratio">1</property>
  <property name="progressive">1</property>
  <property name="seekable">1</property>
  <property name="meta.media.width">800</property>
  <property name="meta.media.height">450</property>
  <property name="mlt_service">qimage</property>
  <property name="kdenlive:clipname">12.png</property>
  <property name="kdenlive:duration">00:00:05.000</property>
  <property name="kdenlive:folderid">215</property>
  <property name="kdenlive:id">218</property>
  <property name="kdenlive:file_size">728061</property>
  <property name="kdenlive:proxy">/home/xiaoxiae/.cache/kdenlive/proxy/8b0b07a884c99bed56a2312a66bc1658.png</property>
  <property name="kdenlive:originalurl">video/ParenthesesExample/img/12.png</property>
  <property name="kdenlive:original.mlt_type">producer</property>
  <property name="kdenlive:original.in">0</property>
  <property name="kdenlive:original.out">299</property>
  <property name="kdenlive:original.length">00:00:05.000</property>
  <property name="kdenlive:original.eof">pause</property>
  <property name="kdenlive:original.resource">video/ParenthesesExample/img/12.png</property>
  <property name="kdenlive:original.ttl">25</property>
  <property name="kdenlive:original.aspect_ratio">1</property>
  <property name="kdenlive:original.progressive">1</property>
  <property name="kdenlive:original.seekable">1</property>
  <property name="kdenlive:original.meta.media.width">3840</property>
  <property name="kdenlive:original.meta.media.height">2160</property>
  <property name="kdenlive:original.mlt_service">qimage</property>
  <property name="kdenlive:original.kdenlive:duration">00:00:05.000</property>
  <property name="kdenlive:original.kdenlive:folderid">215</property>
  <property name="kdenlive:original.kdenlive:id">219</property>
  <property name="kdenlive:original.kdenlive:file_size">728061</property>
  <property name="kdenlive:original.kdenlive:file_hash">8b0b07a884c99bed56a2312a66bc1658</property>
  <property name="kdenlive:original.backup">1</property>
  <property name="kdenlive:file_hash">8b0b07a884c99bed56a2312a66bc1658</property>
 </producer>
 <producer id="producer195" in="00:00:00.000" out="00:00:04.983">
  <property name="length">00:00:05.000</property>
  <property name="eof">pause</property>
  <property name="resource">/home/xiaoxiae/.cache/kdenlive/proxy/e202f9b8dc799bd8c02081de9238c712.png</property>
  <property name="ttl">25</property>
  <property name="aspect_ratio">1</property>
  <property name="progressive">1</property>
  <property name="seekable">1</property>
  <property name="meta.media.width">800</property>
  <property name="meta.media.height">450</property>
  <property name="mlt_service">qimage</property>
  <property name="kdenlive:clipname">13.png</property>
  <property name="kdenlive:duration">00:00:05.000</property>
  <property name="kdenlive:folderid">215</property>
  <property name="kdenlive:id">219</property>
  <property name="kdenlive:file_size">774495</property>
  <property name="kdenlive:proxy">/home/xiaoxiae/.cache/kdenlive/proxy/e202f9b8dc799bd8c02081de9238c712.png</property>
  <property name="kdenlive:originalurl">video/ParenthesesExample/img/13.png</property>
  <property name="kdenlive:original.mlt_type">producer</property>
  <property name="kdenlive:original.in">0</property>
  <property name="kdenlive:original.out">299</property>
  <property name="kdenlive:original.length">00:00:05.000</property>
  <property name="kdenlive:original.eof">pause</property>
  <property name="kdenlive:original.resource">video/ParenthesesExample/img/13.png</property>
  <property name="kdenlive:original.ttl">25</property>
  <property name="kdenlive:original.aspect_ratio">1</property>
  <property name="kdenlive:original.progressive">1</property>
  <property name="kdenlive:original.seekable">1</property>
  <property name="kdenlive:original.meta.media.width">3840</property>
  <property name="kdenlive:original.meta.media.height">2160</property>
  <property name="kdenlive:original.mlt_service">qimage</property>
  <property name="kdenlive:original.kdenlive:duration">00:00:05.000</property>
  <property name="kdenlive:original.kdenlive:folderid">215</property>
  <property name="kdenlive:original.kdenlive:id">220</property>
  <property name="kdenlive:original.kdenlive:file_size">774495</property>
  <property name="kdenlive:original.kdenlive:file_hash">e202f9b8dc799bd8c02081de9238c712</property>
  <property name="kdenlive:original.backup">1</property>
  <property name="kdenlive:file_hash">e202f9b8dc799bd8c02081de9238c712</property>
 </producer>
 <producer id="producer194" in="00:00:00.000" out="00:00:04.983">
  <property name="length">00:00:05.000</property>
  <property name="eof">pause</property>
  <property name="resource">/home/xiaoxiae/.cache/kdenlive/proxy/1bfcf7deaddd37d7246f73182c1f3494.png</property>
  <property name="ttl">25</property>
  <property name="aspect_ratio">1</property>
  <property name="progressive">1</property>
  <property name="seekable">1</property>
  <property name="meta.media.width">800</property>
  <property name="meta.media.height">450</property>
  <property name="mlt_service">qimage</property>
  <property name="kdenlive:clipname">14.png</property>
  <property name="kdenlive:duration">00:00:05.000</property>
  <property name="kdenlive:folderid">215</property>
  <property name="kdenlive:id">220</property>
  <property name="kdenlive:file_size">758592</property>
  <property name="kdenlive:proxy">/home/xiaoxiae/.cache/kdenlive/proxy/1bfcf7deaddd37d7246f73182c1f3494.png</property>
  <property name="kdenlive:originalurl">video/ParenthesesExample/img/14.png</property>
  <property name="kdenlive:original.mlt_type">producer</property>
  <property name="kdenlive:original.in">0</property>
  <property name="kdenlive:original.out">299</property>
  <property name="kdenlive:original.length">00:00:05.000</property>
  <property name="kdenlive:original.eof">pause</property>
  <property name="kdenlive:original.resource">video/ParenthesesExample/img/14.png</property>
  <property name="kdenlive:original.ttl">25</property>
  <property name="kdenlive:original.aspect_ratio">1</property>
  <property name="kdenlive:original.progressive">1</property>
  <property name="kdenlive:original.seekable">1</property>
  <property name="kdenlive:original.meta.media.width">3840</property>
  <property name="kdenlive:original.meta.media.height">2160</property>
  <property name="kdenlive:original.mlt_service">qimage</property>
  <property name="kdenlive:original.kdenlive:duration">00:00:05.000</property>
  <property name="kdenlive:original.kdenlive:folderid">215</property>
  <property name="kdenlive:original.kdenlive:id">221</property>
  <property name="kdenlive:original.kdenlive:file_size">758592</property>
  <property name="kdenlive:original.kdenlive:file_hash">1bfcf7deaddd37d7246f73182c1f3494</property>
  <property name="kdenlive:original.backup">1</property>
  <property name="kdenlive:file_hash">1bfcf7deaddd37d7246f73182c1f3494</property>
 </producer>
 <producer id="producer196" in="00:00:00.000" out="00:00:04.983">
  <property name="length">00:00:05.000</property>
  <property name="eof">pause</property>
  <property name="resource">/home/xiaoxiae/.cache/kdenlive/proxy/09d9ae9b0a3e31949e04c273f0610b29.png</property>
  <property name="ttl">25</property>
  <property name="aspect_ratio">1</property>
  <property name="progressive">1</property>
  <property name="seekable">1</property>
  <property name="meta.media.width">800</property>
  <property name="meta.media.height">450</property>
  <property name="mlt_service">qimage</property>
  <property name="kdenlive:clipname">15.png</property>
  <property name="kdenlive:duration">00:00:05.000</property>
  <property name="kdenlive:folderid">215</property>
  <property name="kdenlive:id">221</property>
  <property name="kdenlive:file_size">801363</property>
  <property name="kdenlive:proxy">/home/xiaoxiae/.cache/kdenlive/proxy/09d9ae9b0a3e31949e04c273f0610b29.png</property>
  <property name="kdenlive:originalurl">video/ParenthesesExample/img/15.png</property>
  <property name="kdenlive:original.mlt_type">producer</property>
  <property name="kdenlive:original.in">0</property>
  <property name="kdenlive:original.out">299</property>
  <property name="kdenlive:original.length">00:00:05.000</property>
  <property name="kdenlive:original.eof">pause</property>
  <property name="kdenlive:original.resource">video/ParenthesesExample/img/15.png</property>
  <property name="kdenlive:original.ttl">25</property>
  <property name="kdenlive:original.aspect_ratio">1</property>
  <property name="kdenlive:original.progressive">1</property>
  <property name="kdenlive:original.seekable">1</property>
  <property name="kdenlive:original.meta.media.width">3840</property>
  <property name="kdenlive:original.meta.media.height">2160</property>
  <property name="kdenlive:original.mlt_service">qimage</property>
  <property name="kdenlive:original.kdenlive:duration">00:00:05.000</property>
  <property name="kdenlive:original.kdenlive:folderid">215</property>
  <property name="kdenlive:original.kdenlive:id">222</property>
  <property name="kdenlive:original.kdenlive:file_size">801363</property>
  <property name="kdenlive:original.kdenlive:file_hash">09d9ae9b0a3e31949e04c273f0610b29</property>
  <property name="kdenlive:original.backup">1</property>
  <property name="kdenlive:file_hash">09d9ae9b0a3e31949e04c273f0610b29</property>
 </producer>
 <producer id="producer199" in="00:00:00.000" out="00:00:04.983">
  <property name="length">00:00:05.000</property>
  <property name="eof">pause</property>
  <property name="resource">/home/xiaoxiae/.cache/kdenlive/proxy/1c3c92e4ead9e3df2c1ac303c4de3393.png</property>
  <property name="ttl">25</property>
  <property name="aspect_ratio">1</property>
  <property name="progressive">1</property>
  <property name="seekable">1</property>
  <property name="meta.media.width">800</property>
  <property name="meta.media.height">450</property>
  <property name="mlt_service">qimage</property>
  <property name="kdenlive:clipname">16.png</property>
  <property name="kdenlive:duration">00:00:05.000</property>
  <property name="kdenlive:folderid">215</property>
  <property name="kdenlive:id">222</property>
  <property name="kdenlive:file_size">797341</property>
  <property name="kdenlive:proxy">/home/xiaoxiae/.cache/kdenlive/proxy/1c3c92e4ead9e3df2c1ac303c4de3393.png</property>
  <property name="kdenlive:originalurl">video/ParenthesesExample/img/16.png</property>
  <property name="kdenlive:original.mlt_type">producer</property>
  <property name="kdenlive:original.in">0</property>
  <property name="kdenlive:original.out">299</property>
  <property name="kdenlive:original.length">00:00:05.000</property>
  <property name="kdenlive:original.eof">pause</property>
  <property name="kdenlive:original.resource">video/ParenthesesExample/img/16.png</property>
  <property name="kdenlive:original.ttl">25</property>
  <property name="kdenlive:original.aspect_ratio">1</property>
  <property name="kdenlive:original.progressive">1</property>
  <property name="kdenlive:original.seekable">1</property>
  <property name="kdenlive:original.meta.media.width">3840</property>
  <property name="kdenlive:original.meta.media.height">2160</property>
  <property name="kdenlive:original.mlt_service">qimage</property>
  <property name="kdenlive:original.kdenlive:duration">00:00:05.000</property>
  <property name="kdenlive:original.kdenlive:folderid">215</property>
  <property name="kdenlive:original.kdenlive:id">223</property>
  <property name="kdenlive:original.kdenlive:file_size">797341</property>
  <property name="kdenlive:original.kdenlive:file_hash">1c3c92e4ead9e3df2c1ac303c4de3393</property>
  <property name="kdenlive:original.backup">1</property>
  <property name="kdenlive:file_hash">1c3c92e4ead9e3df2c1ac303c4de3393</property>
 </producer>
 <producer id="producer197" in="00:00:00.000" out="00:00:04.983">
  <property name="length">00:00:05.000</property>
  <property name="eof">pause</property>
  <property name="resource">/home/xiaoxiae/.cache/kdenlive/proxy/9e412ad8b3e635fe7ab286c9dd5d1c21.png</property>
  <property name="ttl">25</property>
  <property name="aspect_ratio">1</property>
  <property name="progressive">1</property>
  <property name="seekable">1</property>
  <property name="meta.media.width">800</property>
  <property name="meta.media.height">450</property>
  <property name="mlt_service">qimage</property>
  <property name="kdenlive:clipname">17.png</property>
  <property name="kdenlive:duration">00:00:05.000</property>
  <property name="kdenlive:folderid">215</property>
  <property name="kdenlive:id">223</property>
  <property name="kdenlive:file_size">798247</property>
  <property name="kdenlive:proxy">/home/xiaoxiae/.cache/kdenlive/proxy/9e412ad8b3e635fe7ab286c9dd5d1c21.png</property>
  <property name="kdenlive:originalurl">video/ParenthesesExample/img/17.png</property>
  <property name="kdenlive:original.mlt_type">producer</property>
  <property name="kdenlive:original.in">0</property>
  <property name="kdenlive:original.out">299</property>
  <property name="kdenlive:original.length">00:00:05.000</property>
  <property name="kdenlive:original.eof">pause</property>
  <property name="kdenlive:original.resource">video/ParenthesesExample/img/17.png</property>
  <property name="kdenlive:original.ttl">25</property>
  <property name="kdenlive:original.aspect_ratio">1</property>
  <property name="kdenlive:original.progressive">1</property>
  <property name="kdenlive:original.seekable">1</property>
  <property name="kdenlive:original.meta.media.width">3840</property>
  <property name="kdenlive:original.meta.media.height">2160</property>
  <property name="kdenlive:original.mlt_service">qimage</property>
  <property name="kdenlive:original.kdenlive:duration">00:00:05.000</property>
  <property name="kdenlive:original.kdenlive:folderid">215</property>
  <property name="kdenlive:original.kdenlive:id">224</property>
  <property name="kdenlive:original.kdenlive:file_size">798247</property>
  <property name="kdenlive:original.kdenlive:file_hash">9e412ad8b3e635fe7ab286c9dd5d1c21</property>
  <property name="kdenlive:original.backup">1</property>
  <property name="kdenlive:file_hash">9e412ad8b3e635fe7ab286c9dd5d1c21</property>
 </producer>
 <producer id="producer198" in="00:00:00.000" out="00:00:04.983">
  <property name="length">00:00:05.000</property>
  <property name="eof">pause</property>
  <property name="resource">/home/xiaoxiae/.cache/kdenlive/proxy/0821b63923f8bb65c0e4a8c11eee4faf.png</property>
  <property name="ttl">25</property>
  <property name="aspect_ratio">1</property>
  <property name="progressive">1</property>
  <property name="seekable">1</property>
  <property name="meta.media.width">800</property>
  <property name="meta.media.height">450</property>
  <property name="mlt_service">qimage</property>
  <property name="kdenlive:clipname">18.png</property>
  <property name="kdenlive:duration">00:00:05.000</property>
  <property name="kdenlive:folderid">215</property>
  <property name="kdenlive:id">224</property>
  <property name="kdenlive:file_size">806482</property>
  <property name="kdenlive:proxy">/home/xiaoxiae/.cache/kdenlive/proxy/0821b63923f8bb65c0e4a8c11eee4faf.png</property>
  <property name="kdenlive:originalurl">video/ParenthesesExample/img/18.png</property>
  <property name="kdenlive:original.mlt_type">producer</property>
  <property name="kdenlive:original.in">0</property>
  <property name="kdenlive:original.out">299</property>
  <property name="kdenlive:original.length">00:00:05.000</property>
  <property name="kdenlive:original.eof">pause</property>
  <property name="kdenlive:original.resource">video/ParenthesesExample/img/18.png</property>
  <property name="kdenlive:original.ttl">25</property>
  <property name="kdenlive:original.aspect_ratio">1</property>
  <property name="kdenlive:original.progressive">1</property>
  <property name="kdenlive:original.seekable">1</property>
  <property name="kdenlive:original.meta.media.width">3840</property>
  <property name="kdenlive:original.meta.media.height">2160</property>
  <property name="kdenlive:original.mlt_service">qimage</property>
  <property name="kdenlive:original.kdenlive:duration">00:00:05.000</property>
  <property name="kdenlive:original.kdenlive:folderid">215</property>
  <property name="kdenlive:original.kdenlive:id">225</property>
  <property name="kdenlive:original.kdenlive:file_size">806482</property>
  <property name="kdenlive:original.kdenlive:file_hash">0821b63923f8bb65c0e4a8c11eee4faf</property>
  <property name="kdenlive:original.backup">1</property>
  <property name="kdenlive:file_hash">0821b63923f8bb65c0e4a8c11eee4faf</property>
 </producer>
 <producer id="producer200" in="00:00:00.000" out="00:00:04.983">
  <property name="length">00:00:05.000</property>
  <property name="eof">pause</property>
  <property name="resource">/home/xiaoxiae/.cache/kdenlive/proxy/36a46c26b20c1aacd5e6cacbd0f3114d.png</property>
  <property name="ttl">25</property>
  <property name="aspect_ratio">1</property>
  <property name="progressive">1</property>
  <property name="seekable">1</property>
  <property name="meta.media.width">800</property>
  <property name="meta.media.height">450</property>
  <property name="mlt_service">qimage</property>
  <property name="kdenlive:clipname">19.png</property>
  <property name="kdenlive:duration">00:00:05.000</property>
  <property name="kdenlive:folderid">215</property>
  <property name="kdenlive:id">225</property>
  <property name="kdenlive:file_size">728309</property>
  <property name="kdenlive:proxy">/home/xiaoxiae/.cache/kdenlive/proxy/36a46c26b20c1aacd5e6cacbd0f3114d.png</property>
  <property name="kdenlive:originalurl">video/ParenthesesExample/img/19.png</property>
  <property name="kdenlive:original.mlt_type">producer</property>
  <property name="kdenlive:original.in">0</property>
  <property name="kdenlive:original.out">299</property>
  <property name="kdenlive:original.length">00:00:05.000</property>
  <property name="kdenlive:original.eof">pause</property>
  <property name="kdenlive:original.resource">video/ParenthesesExample/img/19.png</property>
  <property name="kdenlive:original.ttl">25</property>
  <property name="kdenlive:original.aspect_ratio">1</property>
  <property name="kdenlive:original.progressive">1</property>
  <property name="kdenlive:original.seekable">1</property>
  <property name="kdenlive:original.meta.media.width">3840</property>
  <property name="kdenlive:original.meta.media.height">2160</property>
  <property name="kdenlive:original.mlt_service">qimage</property>
  <property name="kdenlive:original.kdenlive:duration">00:00:05.000</property>
  <property name="kdenlive:original.kdenlive:folderid">215</property>
  <property name="kdenlive:original.kdenlive:id">226</property>
  <property name="kdenlive:original.kdenlive:file_size">728309</property>
  <property name="kdenlive:original.kdenlive:file_hash">36a46c26b20c1aacd5e6cacbd0f3114d</property>
  <property name="kdenlive:original.backup">1</property>
  <property name="kdenlive:file_hash">36a46c26b20c1aacd5e6cacbd0f3114d</property>
 </producer>
 <producer id="producer201" in="00:00:00.000" out="00:00:04.983">
  <property name="length">00:00:05.000</property>
  <property name="eof">pause</property>
  <property name="resource">/home/xiaoxiae/.cache/kdenlive/proxy/ffd5c5eaf3382297efd2c8cb7fee1ebf.png</property>
  <property name="ttl">25</property>
  <property name="aspect_ratio">1</property>
  <property name="progressive">1</property>
  <property name="seekable">1</property>
  <property name="meta.media.width">800</property>
  <property name="meta.media.height">450</property>
  <property name="mlt_service">qimage</property>
  <property name="kdenlive:clipname">2.png</property>
  <property name="kdenlive:duration">00:00:05.000</property>
  <property name="kdenlive:folderid">215</property>
  <property name="kdenlive:id">226</property>
  <property name="kdenlive:file_size">129385</property>
  <property name="kdenlive:proxy">/home/xiaoxiae/.cache/kdenlive/proxy/ffd5c5eaf3382297efd2c8cb7fee1ebf.png</property>
  <property name="kdenlive:originalurl">video/ParenthesesExample/img/2.png</property>
  <property name="kdenlive:original.mlt_type">producer</property>
  <property name="kdenlive:original.in">0</property>
  <property name="kdenlive:original.out">299</property>
  <property name="kdenlive:original.length">00:00:05.000</property>
  <property name="kdenlive:original.eof">pause</property>
  <property name="kdenlive:original.resource">video/ParenthesesExample/img/2.png</property>
  <property name="kdenlive:original.ttl">25</property>
  <property name="kdenlive:original.aspect_ratio">1</property>
  <property name="kdenlive:original.progressive">1</property>
  <property name="kdenlive:original.seekable">1</property>
  <property name="kdenlive:original.meta.media.width">3840</property>
  <property name="kdenlive:original.meta.media.height">2160</property>
  <property name="kdenlive:original.mlt_service">qimage</property>
  <property name="kdenlive:original.kdenlive:duration">00:00:05.000</property>
  <property name="kdenlive:original.kdenlive:folderid">215</property>
  <property name="kdenlive:original.kdenlive:id">227</property>
  <property name="kdenlive:original.kdenlive:file_size">129385</property>
  <property name="kdenlive:original.kdenlive:file_hash">ffd5c5eaf3382297efd2c8cb7fee1ebf</property>
  <property name="kdenlive:original.backup">1</property>
  <property name="kdenlive:file_hash">ffd5c5eaf3382297efd2c8cb7fee1ebf</property>
 </producer>
 <producer id="producer202" in="00:00:00.000" out="00:00:04.983">
  <property name="length">00:00:05.000</property>
  <property name="eof">pause</property>
  <property name="resource">/home/xiaoxiae/.cache/kdenlive/proxy/9aaa520ec0fea95cad3e84c6e436a855.png</property>
  <property name="ttl">25</property>
  <property name="aspect_ratio">1</property>
  <property name="progressive">1</property>
  <property name="seekable">1</property>
  <property name="meta.media.width">800</property>
  <property name="meta.media.height">450</property>
  <property name="mlt_service">qimage</property>
  <property name="kdenlive:clipname">20.png</property>
  <property name="kdenlive:duration">00:00:05.000</property>
  <property name="kdenlive:folderid">215</property>
  <property name="kdenlive:id">227</property>
  <property name="kdenlive:file_size">736387</property>
  <property name="kdenlive:proxy">/home/xiaoxiae/.cache/kdenlive/proxy/9aaa520ec0fea95cad3e84c6e436a855.png</property>
  <property name="kdenlive:originalurl">video/ParenthesesExample/img/20.png</property>
  <property name="kdenlive:original.mlt_type">producer</property>
  <property name="kdenlive:original.in">0</property>
  <property name="kdenlive:original.out">299</property>
  <property name="kdenlive:original.length">00:00:05.000</property>
  <property name="kdenlive:original.eof">pause</property>
  <property name="kdenlive:original.resource">video/ParenthesesExample/img/20.png</property>
  <property name="kdenlive:original.ttl">25</property>
  <property name="kdenlive:original.aspect_ratio">1</property>
  <property name="kdenlive:original.progressive">1</property>
  <property name="kdenlive:original.seekable">1</property>
  <property name="kdenlive:original.meta.media.width">3840</property>
  <property name="kdenlive:original.meta.media.height">2160</property>
  <property name="kdenlive:original.mlt_service">qimage</property>
  <property name="kdenlive:original.kdenlive:duration">00:00:05.000</property>
  <property name="kdenlive:original.kdenlive:folderid">215</property>
  <property name="kdenlive:original.kdenlive:id">228</property>
  <property name="kdenlive:original.kdenlive:file_size">736387</property>
  <property name="kdenlive:original.kdenlive:file_hash">9aaa520ec0fea95cad3e84c6e436a855</property>
  <property name="kdenlive:original.backup">1</property>
  <property name="kdenlive:file_hash">9aaa520ec0fea95cad3e84c6e436a855</property>
 </producer>
 <producer id="producer203" in="00:00:00.000" out="00:00:04.983">
  <property name="length">00:00:05.000</property>
  <property name="eof">pause</property>
  <property name="resource">/home/xiaoxiae/.cache/kdenlive/proxy/62f53a46b98794a08f29b5acae125a4d.png</property>
  <property name="ttl">25</property>
  <property name="aspect_ratio">1</property>
  <property name="progressive">1</property>
  <property name="seekable">1</property>
  <property name="meta.media.width">800</property>
  <property name="meta.media.height">450</property>
  <property name="mlt_service">qimage</property>
  <property name="kdenlive:clipname">21.png</property>
  <property name="kdenlive:duration">00:00:05.000</property>
  <property name="kdenlive:folderid">215</property>
  <property name="kdenlive:id">228</property>
  <property name="kdenlive:file_size">739137</property>
  <property name="kdenlive:proxy">/home/xiaoxiae/.cache/kdenlive/proxy/62f53a46b98794a08f29b5acae125a4d.png</property>
  <property name="kdenlive:originalurl">video/ParenthesesExample/img/21.png</property>
  <property name="kdenlive:original.mlt_type">producer</property>
  <property name="kdenlive:original.in">0</property>
  <property name="kdenlive:original.out">299</property>
  <property name="kdenlive:original.length">00:00:05.000</property>
  <property name="kdenlive:original.eof">pause</property>
  <property name="kdenlive:original.resource">video/ParenthesesExample/img/21.png</property>
  <property name="kdenlive:original.ttl">25</property>
  <property name="kdenlive:original.aspect_ratio">1</property>
  <property name="kdenlive:original.progressive">1</property>
  <property name="kdenlive:original.seekable">1</property>
  <property name="kdenlive:original.meta.media.width">3840</property>
  <property name="kdenlive:original.meta.media.height">2160</property>
  <property name="kdenlive:original.mlt_service">qimage</property>
  <property name="kdenlive:original.kdenlive:duration">00:00:05.000</property>
  <property name="kdenlive:original.kdenlive:folderid">215</property>
  <property name="kdenlive:original.kdenlive:id">229</property>
  <property name="kdenlive:original.kdenlive:file_size">739137</property>
  <property name="kdenlive:original.kdenlive:file_hash">62f53a46b98794a08f29b5acae125a4d</property>
  <property name="kdenlive:original.backup">1</property>
  <property name="kdenlive:file_hash">62f53a46b98794a08f29b5acae125a4d</property>
 </producer>
 <producer id="producer204" in="00:00:00.000" out="00:00:04.983">
  <property name="length">00:00:05.000</property>
  <property name="eof">pause</property>
  <property name="resource">/home/xiaoxiae/.cache/kdenlive/proxy/1eede12a810daf8f50fb4e65b23ed702.png</property>
  <property name="ttl">25</property>
  <property name="aspect_ratio">1</property>
  <property name="progressive">1</property>
  <property name="seekable">1</property>
  <property name="meta.media.width">800</property>
  <property name="meta.media.height">450</property>
  <property name="mlt_service">qimage</property>
  <property name="kdenlive:clipname">22.png</property>
  <property name="kdenlive:duration">00:00:05.000</property>
  <property name="kdenlive:folderid">215</property>
  <property name="kdenlive:id">229</property>
  <property name="kdenlive:file_size">825025</property>
  <property name="kdenlive:proxy">/home/xiaoxiae/.cache/kdenlive/proxy/1eede12a810daf8f50fb4e65b23ed702.png</property>
  <property name="kdenlive:originalurl">video/ParenthesesExample/img/22.png</property>
  <property name="kdenlive:original.mlt_type">producer</property>
  <property name="kdenlive:original.in">0</property>
  <property name="kdenlive:original.out">299</property>
  <property name="kdenlive:original.length">00:00:05.000</property>
  <property name="kdenlive:original.eof">pause</property>
  <property name="kdenlive:original.resource">video/ParenthesesExample/img/22.png</property>
  <property name="kdenlive:original.ttl">25</property>
  <property name="kdenlive:original.aspect_ratio">1</property>
  <property name="kdenlive:original.progressive">1</property>
  <property name="kdenlive:original.seekable">1</property>
  <property name="kdenlive:original.meta.media.width">3840</property>
  <property name="kdenlive:original.meta.media.height">2160</property>
  <property name="kdenlive:original.mlt_service">qimage</property>
  <property name="kdenlive:original.kdenlive:duration">00:00:05.000</property>
  <property name="kdenlive:original.kdenlive:folderid">215</property>
  <property name="kdenlive:original.kdenlive:id">230</property>
  <property name="kdenlive:original.kdenlive:file_size">825025</property>
  <property name="kdenlive:original.kdenlive:file_hash">1eede12a810daf8f50fb4e65b23ed702</property>
  <property name="kdenlive:original.backup">1</property>
  <property name="kdenlive:file_hash">1eede12a810daf8f50fb4e65b23ed702</property>
 </producer>
 <producer id="producer205" in="00:00:00.000" out="00:00:04.983">
  <property name="length">00:00:05.000</property>
  <property name="eof">pause</property>
  <property name="resource">/home/xiaoxiae/.cache/kdenlive/proxy/6535cb495145f6239fac4f545289f09c.png</property>
  <property name="ttl">25</property>
  <property name="aspect_ratio">1</property>
  <property name="progressive">1</property>
  <property name="seekable">1</property>
  <property name="meta.media.width">800</property>
  <property name="meta.media.height">450</property>
  <property name="mlt_service">qimage</property>
  <property name="kdenlive:clipname">23.png</property>
  <property name="kdenlive:duration">00:00:05.000</property>
  <property name="kdenlive:folderid">215</property>
  <property name="kdenlive:id">230</property>
  <property name="kdenlive:file_size">173189</property>
  <property name="kdenlive:proxy">/home/xiaoxiae/.cache/kdenlive/proxy/6535cb495145f6239fac4f545289f09c.png</property>
  <property name="kdenlive:originalurl">video/ParenthesesExample/img/23.png</property>
  <property name="kdenlive:original.mlt_type">producer</property>
  <property name="kdenlive:original.in">0</property>
  <property name="kdenlive:original.out">299</property>
  <property name="kdenlive:original.length">00:00:05.000</property>
  <property name="kdenlive:original.eof">pause</property>
  <property name="kdenlive:original.resource">video/ParenthesesExample/img/23.png</property>
  <property name="kdenlive:original.ttl">25</property>
  <property name="kdenlive:original.aspect_ratio">1</property>
  <property name="kdenlive:original.progressive">1</property>
  <property name="kdenlive:original.seekable">1</property>
  <property name="kdenlive:original.meta.media.width">3840</property>
  <property name="kdenlive:original.meta.media.height">2160</property>
  <property name="kdenlive:original.mlt_service">qimage</property>
  <property name="kdenlive:original.kdenlive:duration">00:00:05.000</property>
  <property name="kdenlive:original.kdenlive:folderid">215</property>
  <property name="kdenlive:original.kdenlive:id">231</property>
  <property name="kdenlive:original.kdenlive:file_size">173189</property>
  <property name="kdenlive:original.kdenlive:file_hash">6535cb495145f6239fac4f545289f09c</property>
  <property name="kdenlive:original.backup">1</property>
  <property name="kdenlive:file_hash">6535cb495145f6239fac4f545289f09c</property>
 </producer>
 <producer id="producer206" in="00:00:00.000" out="00:00:13.333">
  <property name="length">00:00:13.350</property>
  <property name="eof">pause</property>
  <property name="resource">/home/xiaoxiae/.cache/kdenlive/proxy/8c59feb09fc462ed63649b58be042f88.png</property>
  <property name="ttl">25</property>
  <property name="aspect_ratio">1</property>
  <property name="progressive">1</property>
  <property name="seekable">1</property>
  <property name="meta.media.width">800</property>
  <property name="meta.media.height">450</property>
  <property name="mlt_service">qimage</property>
  <property name="kdenlive:clipname">24.png</property>
  <property name="kdenlive:duration">00:00:05.000</property>
  <property name="kdenlive:folderid">215</property>
  <property name="kdenlive:id">231</property>
  <property name="kdenlive:file_size">256504</property>
  <property name="kdenlive:proxy">/home/xiaoxiae/.cache/kdenlive/proxy/8c59feb09fc462ed63649b58be042f88.png</property>
  <property name="kdenlive:originalurl">video/ParenthesesExample/img/24.png</property>
  <property name="kdenlive:original.mlt_type">producer</property>
  <property name="kdenlive:original.in">0</property>
  <property name="kdenlive:original.out">299</property>
  <property name="kdenlive:original.length">00:00:05.000</property>
  <property name="kdenlive:original.eof">pause</property>
  <property name="kdenlive:original.resource">video/ParenthesesExample/img/24.png</property>
  <property name="kdenlive:original.ttl">25</property>
  <property name="kdenlive:original.aspect_ratio">1</property>
  <property name="kdenlive:original.progressive">1</property>
  <property name="kdenlive:original.seekable">1</property>
  <property name="kdenlive:original.meta.media.width">3840</property>
  <property name="kdenlive:original.meta.media.height">2160</property>
  <property name="kdenlive:original.mlt_service">qimage</property>
  <property name="kdenlive:original.kdenlive:duration">00:00:05.000</property>
  <property name="kdenlive:original.kdenlive:folderid">215</property>
  <property name="kdenlive:original.kdenlive:id">232</property>
  <property name="kdenlive:original.kdenlive:file_size">256504</property>
  <property name="kdenlive:original.kdenlive:file_hash">8c59feb09fc462ed63649b58be042f88</property>
  <property name="kdenlive:original.backup">1</property>
  <property name="kdenlive:file_hash">8c59feb09fc462ed63649b58be042f88</property>
 </producer>
 <producer id="producer207" in="00:00:00.000" out="00:00:04.983">
  <property name="length">00:00:05.000</property>
  <property name="eof">pause</property>
  <property name="resource">/home/xiaoxiae/.cache/kdenlive/proxy/2cf864136fdefc887a65a5f5bb4182d9.png</property>
  <property name="ttl">25</property>
  <property name="aspect_ratio">1</property>
  <property name="progressive">1</property>
  <property name="seekable">1</property>
  <property name="meta.media.width">800</property>
  <property name="meta.media.height">450</property>
  <property name="mlt_service">qimage</property>
  <property name="kdenlive:clipname">3.png</property>
  <property name="kdenlive:duration">00:00:05.000</property>
  <property name="kdenlive:folderid">215</property>
  <property name="kdenlive:id">232</property>
  <property name="kdenlive:file_size">172503</property>
  <property name="kdenlive:proxy">/home/xiaoxiae/.cache/kdenlive/proxy/2cf864136fdefc887a65a5f5bb4182d9.png</property>
  <property name="kdenlive:originalurl">video/ParenthesesExample/img/3.png</property>
  <property name="kdenlive:original.mlt_type">producer</property>
  <property name="kdenlive:original.in">0</property>
  <property name="kdenlive:original.out">299</property>
  <property name="kdenlive:original.length">00:00:05.000</property>
  <property name="kdenlive:original.eof">pause</property>
  <property name="kdenlive:original.resource">video/ParenthesesExample/img/3.png</property>
  <property name="kdenlive:original.ttl">25</property>
  <property name="kdenlive:original.aspect_ratio">1</property>
  <property name="kdenlive:original.progressive">1</property>
  <property name="kdenlive:original.seekable">1</property>
  <property name="kdenlive:original.meta.media.width">3840</property>
  <property name="kdenlive:original.meta.media.height">2160</property>
  <property name="kdenlive:original.mlt_service">qimage</property>
  <property name="kdenlive:original.kdenlive:duration">00:00:05.000</property>
  <property name="kdenlive:original.kdenlive:folderid">215</property>
  <property name="kdenlive:original.kdenlive:id">233</property>
  <property name="kdenlive:original.kdenlive:file_size">172503</property>
  <property name="kdenlive:original.kdenlive:file_hash">2cf864136fdefc887a65a5f5bb4182d9</property>
  <property name="kdenlive:original.backup">1</property>
  <property name="kdenlive:file_hash">2cf864136fdefc887a65a5f5bb4182d9</property>
 </producer>
 <producer id="producer208" in="00:00:00.000" out="00:00:04.983">
  <property name="length">00:00:05.000</property>
  <property name="eof">pause</property>
  <property name="resource">/home/xiaoxiae/.cache/kdenlive/proxy/4b61d28854c460388356b8e9b3aa2399.png</property>
  <property name="ttl">25</property>
  <property name="aspect_ratio">1</property>
  <property name="progressive">1</property>
  <property name="seekable">1</property>
  <property name="meta.media.width">800</property>
  <property name="meta.media.height">450</property>
  <property name="mlt_service">qimage</property>
  <property name="kdenlive:clipname">4.png</property>
  <property name="kdenlive:duration">00:00:05.000</property>
  <property name="kdenlive:folderid">215</property>
  <property name="kdenlive:id">233</property>
  <property name="kdenlive:file_size">183121</property>
  <property name="kdenlive:proxy">/home/xiaoxiae/.cache/kdenlive/proxy/4b61d28854c460388356b8e9b3aa2399.png</property>
  <property name="kdenlive:originalurl">video/ParenthesesExample/img/4.png</property>
  <property name="kdenlive:original.mlt_type">producer</property>
  <property name="kdenlive:original.in">0</property>
  <property name="kdenlive:original.out">299</property>
  <property name="kdenlive:original.length">00:00:05.000</property>
  <property name="kdenlive:original.eof">pause</property>
  <property name="kdenlive:original.resource">video/ParenthesesExample/img/4.png</property>
  <property name="kdenlive:original.ttl">25</property>
  <property name="kdenlive:original.aspect_ratio">1</property>
  <property name="kdenlive:original.progressive">1</property>
  <property name="kdenlive:original.seekable">1</property>
  <property name="kdenlive:original.meta.media.width">3840</property>
  <property name="kdenlive:original.meta.media.height">2160</property>
  <property name="kdenlive:original.mlt_service">qimage</property>
  <property name="kdenlive:original.kdenlive:duration">00:00:05.000</property>
  <property name="kdenlive:original.kdenlive:folderid">215</property>
  <property name="kdenlive:original.kdenlive:id">234</property>
  <property name="kdenlive:original.kdenlive:file_size">183121</property>
  <property name="kdenlive:original.kdenlive:file_hash">4b61d28854c460388356b8e9b3aa2399</property>
  <property name="kdenlive:original.backup">1</property>
  <property name="kdenlive:file_hash">4b61d28854c460388356b8e9b3aa2399</property>
 </producer>
 <producer id="producer209" in="00:00:00.000" out="00:00:04.983">
  <property name="length">00:00:05.000</property>
  <property name="eof">pause</property>
  <property name="resource">/home/xiaoxiae/.cache/kdenlive/proxy/30a0fbb09e23cc1f09414b12f15ebc77.png</property>
  <property name="ttl">25</property>
  <property name="aspect_ratio">1</property>
  <property name="progressive">1</property>
  <property name="seekable">1</property>
  <property name="meta.media.width">800</property>
  <property name="meta.media.height">450</property>
  <property name="mlt_service">qimage</property>
  <property name="kdenlive:clipname">5.png</property>
  <property name="kdenlive:duration">00:00:05.000</property>
  <property name="kdenlive:folderid">215</property>
  <property name="kdenlive:id">234</property>
  <property name="kdenlive:file_size">367575</property>
  <property name="kdenlive:proxy">/home/xiaoxiae/.cache/kdenlive/proxy/30a0fbb09e23cc1f09414b12f15ebc77.png</property>
  <property name="kdenlive:originalurl">video/ParenthesesExample/img/5.png</property>
  <property name="kdenlive:original.mlt_type">producer</property>
  <property name="kdenlive:original.in">0</property>
  <property name="kdenlive:original.out">299</property>
  <property name="kdenlive:original.length">00:00:05.000</property>
  <property name="kdenlive:original.eof">pause</property>
  <property name="kdenlive:original.resource">video/ParenthesesExample/img/5.png</property>
  <property name="kdenlive:original.ttl">25</property>
  <property name="kdenlive:original.aspect_ratio">1</property>
  <property name="kdenlive:original.progressive">1</property>
  <property name="kdenlive:original.seekable">1</property>
  <property name="kdenlive:original.meta.media.width">3840</property>
  <property name="kdenlive:original.meta.media.height">2160</property>
  <property name="kdenlive:original.mlt_service">qimage</property>
  <property name="kdenlive:original.kdenlive:duration">00:00:05.000</property>
  <property name="kdenlive:original.kdenlive:folderid">215</property>
  <property name="kdenlive:original.kdenlive:id">235</property>
  <property name="kdenlive:original.kdenlive:file_size">367575</property>
  <property name="kdenlive:original.kdenlive:file_hash">30a0fbb09e23cc1f09414b12f15ebc77</property>
  <property name="kdenlive:original.backup">1</property>
  <property name="kdenlive:file_hash">30a0fbb09e23cc1f09414b12f15ebc77</property>
 </producer>
 <producer id="producer210" in="00:00:00.000" out="00:00:04.983">
  <property name="length">00:00:05.000</property>
  <property name="eof">pause</property>
  <property name="resource">/home/xiaoxiae/.cache/kdenlive/proxy/d6cf9bfd82240720802b5d70122f9c49.png</property>
  <property name="ttl">25</property>
  <property name="aspect_ratio">1</property>
  <property name="progressive">1</property>
  <property name="seekable">1</property>
  <property name="meta.media.width">800</property>
  <property name="meta.media.height">450</property>
  <property name="mlt_service">qimage</property>
  <property name="kdenlive:clipname">6.png</property>
  <property name="kdenlive:duration">00:00:05.000</property>
  <property name="kdenlive:folderid">215</property>
  <property name="kdenlive:id">235</property>
  <property name="kdenlive:file_size">734385</property>
  <property name="kdenlive:proxy">/home/xiaoxiae/.cache/kdenlive/proxy/d6cf9bfd82240720802b5d70122f9c49.png</property>
  <property name="kdenlive:originalurl">video/ParenthesesExample/img/6.png</property>
  <property name="kdenlive:original.mlt_type">producer</property>
  <property name="kdenlive:original.in">0</property>
  <property name="kdenlive:original.out">299</property>
  <property name="kdenlive:original.length">00:00:05.000</property>
  <property name="kdenlive:original.eof">pause</property>
  <property name="kdenlive:original.resource">video/ParenthesesExample/img/6.png</property>
  <property name="kdenlive:original.ttl">25</property>
  <property name="kdenlive:original.aspect_ratio">1</property>
  <property name="kdenlive:original.progressive">1</property>
  <property name="kdenlive:original.seekable">1</property>
  <property name="kdenlive:original.meta.media.width">3840</property>
  <property name="kdenlive:original.meta.media.height">2160</property>
  <property name="kdenlive:original.mlt_service">qimage</property>
  <property name="kdenlive:original.kdenlive:duration">00:00:05.000</property>
  <property name="kdenlive:original.kdenlive:folderid">215</property>
  <property name="kdenlive:original.kdenlive:id">236</property>
  <property name="kdenlive:original.kdenlive:file_size">734385</property>
  <property name="kdenlive:original.kdenlive:file_hash">d6cf9bfd82240720802b5d70122f9c49</property>
  <property name="kdenlive:original.backup">1</property>
  <property name="kdenlive:file_hash">d6cf9bfd82240720802b5d70122f9c49</property>
 </producer>
 <producer id="producer211" in="00:00:00.000" out="00:00:08.417">
  <property name="length">00:00:08.433</property>
  <property name="eof">pause</property>
  <property name="resource">/home/xiaoxiae/.cache/kdenlive/proxy/665c7d4b1e68d7ed301eb380b14f575c.png</property>
  <property name="ttl">25</property>
  <property name="aspect_ratio">1</property>
  <property name="progressive">1</property>
  <property name="seekable">1</property>
  <property name="meta.media.width">800</property>
  <property name="meta.media.height">450</property>
  <property name="mlt_service">qimage</property>
  <property name="kdenlive:clipname">7.png</property>
  <property name="kdenlive:duration">00:00:05.000</property>
  <property name="kdenlive:folderid">215</property>
  <property name="kdenlive:id">236</property>
  <property name="kdenlive:file_size">736171</property>
  <property name="kdenlive:proxy">/home/xiaoxiae/.cache/kdenlive/proxy/665c7d4b1e68d7ed301eb380b14f575c.png</property>
  <property name="kdenlive:originalurl">video/ParenthesesExample/img/7.png</property>
  <property name="kdenlive:original.mlt_type">producer</property>
  <property name="kdenlive:original.in">0</property>
  <property name="kdenlive:original.out">299</property>
  <property name="kdenlive:original.length">00:00:05.000</property>
  <property name="kdenlive:original.eof">pause</property>
  <property name="kdenlive:original.resource">video/ParenthesesExample/img/7.png</property>
  <property name="kdenlive:original.ttl">25</property>
  <property name="kdenlive:original.aspect_ratio">1</property>
  <property name="kdenlive:original.progressive">1</property>
  <property name="kdenlive:original.seekable">1</property>
  <property name="kdenlive:original.meta.media.width">3840</property>
  <property name="kdenlive:original.meta.media.height">2160</property>
  <property name="kdenlive:original.mlt_service">qimage</property>
  <property name="kdenlive:original.kdenlive:duration">00:00:05.000</property>
  <property name="kdenlive:original.kdenlive:folderid">215</property>
  <property name="kdenlive:original.kdenlive:id">237</property>
  <property name="kdenlive:original.kdenlive:file_size">736171</property>
  <property name="kdenlive:original.kdenlive:file_hash">665c7d4b1e68d7ed301eb380b14f575c</property>
  <property name="kdenlive:original.backup">1</property>
  <property name="kdenlive:file_hash">665c7d4b1e68d7ed301eb380b14f575c</property>
 </producer>
 <producer id="producer214" in="00:00:00.000" out="00:00:04.983">
  <property name="length">00:00:05.000</property>
  <property name="eof">pause</property>
  <property name="resource">/home/xiaoxiae/.cache/kdenlive/proxy/f97e8ede6093cfe61d49835755a2dce1.png</property>
  <property name="ttl">25</property>
  <property name="aspect_ratio">1</property>
  <property name="progressive">1</property>
  <property name="seekable">1</property>
  <property name="meta.media.width">800</property>
  <property name="meta.media.height">450</property>
  <property name="mlt_service">qimage</property>
  <property name="kdenlive:clipname">8.png</property>
  <property name="kdenlive:duration">00:00:05.000</property>
  <property name="kdenlive:folderid">215</property>
  <property name="kdenlive:id">237</property>
  <property name="kdenlive:file_size">744955</property>
  <property name="kdenlive:proxy">/home/xiaoxiae/.cache/kdenlive/proxy/f97e8ede6093cfe61d49835755a2dce1.png</property>
  <property name="kdenlive:originalurl">video/ParenthesesExample/img/8.png</property>
  <property name="kdenlive:original.mlt_type">producer</property>
  <property name="kdenlive:original.in">0</property>
  <property name="kdenlive:original.out">299</property>
  <property name="kdenlive:original.length">00:00:05.000</property>
  <property name="kdenlive:original.eof">pause</property>
  <property name="kdenlive:original.resource">video/ParenthesesExample/img/8.png</property>
  <property name="kdenlive:original.ttl">25</property>
  <property name="kdenlive:original.aspect_ratio">1</property>
  <property name="kdenlive:original.progressive">1</property>
  <property name="kdenlive:original.seekable">1</property>
  <property name="kdenlive:original.meta.media.width">3840</property>
  <property name="kdenlive:original.meta.media.height">2160</property>
  <property name="kdenlive:original.mlt_service">qimage</property>
  <property name="kdenlive:original.kdenlive:duration">00:00:05.000</property>
  <property name="kdenlive:original.kdenlive:folderid">215</property>
  <property name="kdenlive:original.kdenlive:id">238</property>
  <property name="kdenlive:original.kdenlive:file_size">744955</property>
  <property name="kdenlive:original.kdenlive:file_hash">f97e8ede6093cfe61d49835755a2dce1</property>
  <property name="kdenlive:original.backup">1</property>
  <property name="kdenlive:file_hash">f97e8ede6093cfe61d49835755a2dce1</property>
 </producer>
 <producer id="producer215" in="00:00:00.000" out="00:00:04.983">
  <property name="length">00:00:05.000</property>
  <property name="eof">pause</property>
  <property name="resource">/home/xiaoxiae/.cache/kdenlive/proxy/94f2b4c3d09cdb3a59dacec67be2de44.png</property>
  <property name="ttl">25</property>
  <property name="aspect_ratio">1</property>
  <property name="progressive">1</property>
  <property name="seekable">1</property>
  <property name="meta.media.width">800</property>
  <property name="meta.media.height">450</property>
  <property name="mlt_service">qimage</property>
  <property name="kdenlive:clipname">9.png</property>
  <property name="kdenlive:duration">00:00:05.000</property>
  <property name="kdenlive:folderid">215</property>
  <property name="kdenlive:id">238</property>
  <property name="kdenlive:file_size">743803</property>
  <property name="kdenlive:proxy">/home/xiaoxiae/.cache/kdenlive/proxy/94f2b4c3d09cdb3a59dacec67be2de44.png</property>
  <property name="kdenlive:originalurl">video/ParenthesesExample/img/9.png</property>
  <property name="kdenlive:original.mlt_type">producer</property>
  <property name="kdenlive:original.in">0</property>
  <property name="kdenlive:original.out">299</property>
  <property name="kdenlive:original.length">00:00:05.000</property>
  <property name="kdenlive:original.eof">pause</property>
  <property name="kdenlive:original.resource">video/ParenthesesExample/img/9.png</property>
  <property name="kdenlive:original.ttl">25</property>
  <property name="kdenlive:original.aspect_ratio">1</property>
  <property name="kdenlive:original.progressive">1</property>
  <property name="kdenlive:original.seekable">1</property>
  <property name="kdenlive:original.meta.media.width">3840</property>
  <property name="kdenlive:original.meta.media.height">2160</property>
  <property name="kdenlive:original.mlt_service">qimage</property>
  <property name="kdenlive:original.kdenlive:duration">00:00:05.000</property>
  <property name="kdenlive:original.kdenlive:folderid">215</property>
  <property name="kdenlive:original.kdenlive:id">239</property>
  <property name="kdenlive:original.kdenlive:file_size">743803</property>
  <property name="kdenlive:original.kdenlive:file_hash">94f2b4c3d09cdb3a59dacec67be2de44</property>
  <property name="kdenlive:original.backup">1</property>
  <property name="kdenlive:file_hash">94f2b4c3d09cdb3a59dacec67be2de44</property>
 </producer>
 <producer id="producer212" in="00:00:00.000" out="00:00:00.983">
  <property name="length">60</property>
  <property name="eof">pause</property>
  <property name="resource">/home/xiaoxiae/.cache/kdenlive/proxy/191ef707f8c2070c3294ac51176aabb3.mov</property>
  <property name="audio_index">-1</property>
  <property name="video_index">0</property>
  <property name="mute_on_pause">0</property>
  <property name="mlt_service">avformat-novalidate</property>
  <property name="seekable">1</property>
  <property name="aspect_ratio">1</property>
  <property name="kdenlive:clipname">1.mp4</property>
  <property name="kdenlive:folderid">240</property>
  <property name="kdenlive:id">239</property>
  <property name="kdenlive:file_size">97562</property>
  <property name="kdenlive:proxy">/home/xiaoxiae/.cache/kdenlive/proxy/191ef707f8c2070c3294ac51176aabb3.mov</property>
  <property name="kdenlive:originalurl">video/ParenthesesExample/vid/1.mp4</property>
  <property name="kdenlive:original.mlt_type">producer</property>
  <property name="kdenlive:original.in">0</property>
  <property name="kdenlive:original.out">59</property>
  <property name="kdenlive:original.length">60</property>
  <property name="kdenlive:original.eof">pause</property>
  <property name="kdenlive:original.resource">video/ParenthesesExample/vid/1.mp4</property>
  <property name="kdenlive:original.meta.media.nb_streams">1</property>
  <property name="kdenlive:original.meta.media.0.stream.type">video</property>
  <property name="kdenlive:original.meta.media.0.stream.frame_rate">60</property>
  <property name="kdenlive:original.meta.media.0.stream.sample_aspect_ratio">0</property>
  <property name="kdenlive:original.meta.media.0.codec.width">3840</property>
  <property name="kdenlive:original.meta.media.0.codec.height">2160</property>
  <property name="kdenlive:original.meta.media.0.codec.rotate">0</property>
  <property name="kdenlive:original.meta.media.0.codec.pix_fmt">yuv420p</property>
  <property name="kdenlive:original.meta.media.0.codec.sample_aspect_ratio">0</property>
  <property name="kdenlive:original.meta.media.0.codec.colorspace">709</property>
  <property name="kdenlive:original.meta.media.0.codec.name">h264</property>
  <property name="kdenlive:original.meta.media.0.codec.long_name">H.264 / AVC / MPEG-4 AVC / MPEG-4 part 10</property>
  <property name="kdenlive:original.meta.media.0.codec.bit_rate">767568</property>
  <property name="kdenlive:original.meta.attr.0.stream.handler_name.markup">VideoHandler</property>
  <property name="kdenlive:original.meta.attr.0.stream.vendor_id.markup">[0][0][0][0]</property>
  <property name="kdenlive:original.meta.attr.major_brand.markup">isom</property>
  <property name="kdenlive:original.meta.attr.minor_version.markup">512</property>
  <property name="kdenlive:original.meta.attr.compatible_brands.markup">isomiso2avc1mp41</property>
  <property name="kdenlive:original.meta.attr.encoder.markup">Lavf58.76.100</property>
  <property name="kdenlive:original.meta.attr.comment.markup">Rendered with Manim Community v0.12.0</property>
  <property name="kdenlive:original.seekable">1</property>
  <property name="kdenlive:original.width">3840</property>
  <property name="kdenlive:original.height">2160</property>
  <property name="kdenlive:original.meta.media.sample_aspect_num">1</property>
  <property name="kdenlive:original.meta.media.sample_aspect_den">1</property>
  <property name="kdenlive:original.aspect_ratio">1</property>
  <property name="kdenlive:original.audio_index">-1</property>
  <property name="kdenlive:original.video_index">0</property>
  <property name="kdenlive:original.mute_on_pause">0</property>
  <property name="kdenlive:original.mlt_service">avformat-novalidate</property>
  <property name="kdenlive:original.kdenlive:folderid">240</property>
  <property name="kdenlive:original.meta.media.frame_rate_num">60</property>
  <property name="kdenlive:original.meta.media.frame_rate_den">1</property>
  <property name="kdenlive:original.meta.media.colorspace">709</property>
  <property name="kdenlive:original.meta.media.color_trc">2</property>
  <property name="kdenlive:original.meta.media.has_b_frames">2</property>
  <property name="kdenlive:original.meta.media.width">3840</property>
  <property name="kdenlive:original.meta.media.height">2160</property>
  <property name="kdenlive:original.meta.media.color_range">mpeg</property>
  <property name="kdenlive:original.kdenlive:id">241</property>
  <property name="kdenlive:original.kdenlive:file_size">97562</property>
  <property name="kdenlive:original.kdenlive:file_hash">191ef707f8c2070c3294ac51176aabb3</property>
  <property name="kdenlive:original.backup">1</property>
  <property name="kdenlive:file_hash">191ef707f8c2070c3294ac51176aabb3</property>
  <property name="meta.media.nb_streams">1</property>
  <property name="meta.media.0.stream.type">video</property>
  <property name="meta.media.0.stream.frame_rate">60</property>
  <property name="meta.media.0.stream.sample_aspect_ratio">0</property>
  <property name="meta.media.0.codec.width">640</property>
  <property name="meta.media.0.codec.height">360</property>
  <property name="meta.media.0.codec.rotate">0</property>
  <property name="meta.media.0.codec.pix_fmt">yuv420p</property>
  <property name="meta.media.0.codec.sample_aspect_ratio">0</property>
  <property name="meta.media.0.codec.colorspace">601</property>
  <property name="meta.media.0.codec.name">h264</property>
  <property name="meta.media.0.codec.long_name">H.264 / AVC / MPEG-4 AVC / MPEG-4 part 10</property>
  <property name="meta.media.0.codec.bit_rate">895800</property>
  <property name="meta.attr.0.stream.handler_name.markup">VideoHandler</property>
  <property name="meta.attr.0.stream.vendor_id.markup">FFMP</property>
  <property name="meta.attr.0.stream.encoder.markup">Lavc58.134.100 libx264</property>
  <property name="meta.attr.major_brand.markup">qt  </property>
  <property name="meta.attr.minor_version.markup">512</property>
  <property name="meta.attr.compatible_brands.markup">qt  </property>
  <property name="meta.attr.encoder.markup">Lavf58.76.100</property>
  <property name="meta.attr.comment.markup">Rendered with Manim Community v0.12.0</property>
  <property name="meta.media.sample_aspect_num">1</property>
  <property name="meta.media.sample_aspect_den">1</property>
  <property name="meta.media.frame_rate_num">60</property>
  <property name="meta.media.frame_rate_den">1</property>
  <property name="meta.media.colorspace">601</property>
  <property name="meta.media.color_trc">2</property>
  <property name="meta.media.has_b_frames">0</property>
  <property name="meta.media.width">640</property>
  <property name="meta.media.height">360</property>
  <property name="meta.media.color_range">mpeg</property>
 </producer>
 <producer id="producer213" in="00:00:00.000" out="00:00:00.983">
  <property name="length">60</property>
  <property name="eof">pause</property>
  <property name="resource">/home/xiaoxiae/.cache/kdenlive/proxy/deb3799893a3b60348b881c3850a84c3.mov</property>
  <property name="audio_index">-1</property>
  <property name="video_index">0</property>
  <property name="mute_on_pause">0</property>
  <property name="mlt_service">avformat-novalidate</property>
  <property name="seekable">1</property>
  <property name="aspect_ratio">1</property>
  <property name="kdenlive:clipname">10.mp4</property>
  <property name="kdenlive:folderid">240</property>
  <property name="kdenlive:id">241</property>
  <property name="kdenlive:file_size">337332</property>
  <property name="kdenlive:proxy">/home/xiaoxiae/.cache/kdenlive/proxy/deb3799893a3b60348b881c3850a84c3.mov</property>
  <property name="kdenlive:originalurl">video/ParenthesesExample/vid/10.mp4</property>
  <property name="kdenlive:original.mlt_type">producer</property>
  <property name="kdenlive:original.in">0</property>
  <property name="kdenlive:original.out">59</property>
  <property name="kdenlive:original.length">60</property>
  <property name="kdenlive:original.eof">pause</property>
  <property name="kdenlive:original.resource">video/ParenthesesExample/vid/10.mp4</property>
  <property name="kdenlive:original.meta.media.nb_streams">1</property>
  <property name="kdenlive:original.meta.media.0.stream.type">video</property>
  <property name="kdenlive:original.meta.media.0.stream.frame_rate">60</property>
  <property name="kdenlive:original.meta.media.0.stream.sample_aspect_ratio">0</property>
  <property name="kdenlive:original.meta.media.0.codec.width">3840</property>
  <property name="kdenlive:original.meta.media.0.codec.height">2160</property>
  <property name="kdenlive:original.meta.media.0.codec.rotate">0</property>
  <property name="kdenlive:original.meta.media.0.codec.pix_fmt">yuv420p</property>
  <property name="kdenlive:original.meta.media.0.codec.sample_aspect_ratio">0</property>
  <property name="kdenlive:original.meta.media.0.codec.colorspace">709</property>
  <property name="kdenlive:original.meta.media.0.codec.name">h264</property>
  <property name="kdenlive:original.meta.media.0.codec.long_name">H.264 / AVC / MPEG-4 AVC / MPEG-4 part 10</property>
  <property name="kdenlive:original.meta.media.0.codec.bit_rate">2685792</property>
  <property name="kdenlive:original.meta.attr.0.stream.handler_name.markup">VideoHandler</property>
  <property name="kdenlive:original.meta.attr.0.stream.vendor_id.markup">[0][0][0][0]</property>
  <property name="kdenlive:original.meta.attr.major_brand.markup">isom</property>
  <property name="kdenlive:original.meta.attr.minor_version.markup">512</property>
  <property name="kdenlive:original.meta.attr.compatible_brands.markup">isomiso2avc1mp41</property>
  <property name="kdenlive:original.meta.attr.encoder.markup">Lavf58.76.100</property>
  <property name="kdenlive:original.meta.attr.comment.markup">Rendered with Manim Community v0.12.0</property>
  <property name="kdenlive:original.seekable">1</property>
  <property name="kdenlive:original.width">3840</property>
  <property name="kdenlive:original.height">2160</property>
  <property name="kdenlive:original.meta.media.sample_aspect_num">1</property>
  <property name="kdenlive:original.meta.media.sample_aspect_den">1</property>
  <property name="kdenlive:original.aspect_ratio">1</property>
  <property name="kdenlive:original.audio_index">-1</property>
  <property name="kdenlive:original.video_index">0</property>
  <property name="kdenlive:original.mute_on_pause">0</property>
  <property name="kdenlive:original.mlt_service">avformat-novalidate</property>
  <property name="kdenlive:original.kdenlive:folderid">240</property>
  <property name="kdenlive:original.meta.media.frame_rate_num">60</property>
  <property name="kdenlive:original.meta.media.frame_rate_den">1</property>
  <property name="kdenlive:original.meta.media.colorspace">709</property>
  <property name="kdenlive:original.meta.media.color_trc">2</property>
  <property name="kdenlive:original.meta.media.has_b_frames">2</property>
  <property name="kdenlive:original.meta.media.width">3840</property>
  <property name="kdenlive:original.meta.media.height">2160</property>
  <property name="kdenlive:original.meta.media.color_range">mpeg</property>
  <property name="kdenlive:original.kdenlive:id">242</property>
  <property name="kdenlive:original.kdenlive:file_size">337332</property>
  <property name="kdenlive:original.kdenlive:file_hash">deb3799893a3b60348b881c3850a84c3</property>
  <property name="kdenlive:original.backup">1</property>
  <property name="kdenlive:file_hash">deb3799893a3b60348b881c3850a84c3</property>
  <property name="meta.media.nb_streams">1</property>
  <property name="meta.media.0.stream.type">video</property>
  <property name="meta.media.0.stream.frame_rate">60</property>
  <property name="meta.media.0.stream.sample_aspect_ratio">0</property>
  <property name="meta.media.0.codec.width">640</property>
  <property name="meta.media.0.codec.height">360</property>
  <property name="meta.media.0.codec.rotate">0</property>
  <property name="meta.media.0.codec.pix_fmt">yuv420p</property>
  <property name="meta.media.0.codec.sample_aspect_ratio">0</property>
  <property name="meta.media.0.codec.colorspace">601</property>
  <property name="meta.media.0.codec.name">h264</property>
  <property name="meta.media.0.codec.long_name">H.264 / AVC / MPEG-4 AVC / MPEG-4 part 10</property>
  <property name="meta.media.0.codec.bit_rate">4052872</property>
  <property name="meta.attr.0.stream.handler_name.markup">VideoHandler</property>
  <property name="meta.attr.0.stream.vendor_id.markup">FFMP</property>
  <property name="meta.attr.0.stream.encoder.markup">Lavc58.134.100 libx264</property>
  <property name="meta.attr.major_brand.markup">qt  </property>
  <property name="meta.attr.minor_version.markup">512</property>
  <property name="meta.attr.compatible_brands.markup">qt  </property>
  <property name="meta.attr.encoder.markup">Lavf58.76.100</property>
  <property name="meta.attr.comment.markup">Rendered with Manim Community v0.12.0</property>
  <property name="meta.media.sample_aspect_num">1</property>
  <property name="meta.media.sample_aspect_den">1</property>
  <property name="meta.media.frame_rate_num">60</property>
  <property name="meta.media.frame_rate_den">1</property>
  <property name="meta.media.colorspace">601</property>
  <property name="meta.media.color_trc">2</property>
  <property name="meta.media.has_b_frames">0</property>
  <property name="meta.media.width">640</property>
  <property name="meta.media.height">360</property>
  <property name="meta.media.color_range">mpeg</property>
 </producer>
 <producer id="producer216" in="00:00:00.000" out="00:00:00.983">
  <property name="length">60</property>
  <property name="eof">pause</property>
  <property name="resource">/home/xiaoxiae/.cache/kdenlive/proxy/dde1034eefa64634b4e6c45a51621e83.mov</property>
  <property name="audio_index">-1</property>
  <property name="video_index">0</property>
  <property name="mute_on_pause">0</property>
  <property name="mlt_service">avformat-novalidate</property>
  <property name="seekable">1</property>
  <property name="aspect_ratio">1</property>
  <property name="kdenlive:clipname">11.mp4</property>
  <property name="kdenlive:folderid">240</property>
  <property name="kdenlive:id">242</property>
  <property name="kdenlive:file_size">266375</property>
  <property name="kdenlive:proxy">/home/xiaoxiae/.cache/kdenlive/proxy/dde1034eefa64634b4e6c45a51621e83.mov</property>
  <property name="kdenlive:originalurl">video/ParenthesesExample/vid/11.mp4</property>
  <property name="kdenlive:original.mlt_type">producer</property>
  <property name="kdenlive:original.in">0</property>
  <property name="kdenlive:original.out">59</property>
  <property name="kdenlive:original.length">60</property>
  <property name="kdenlive:original.eof">pause</property>
  <property name="kdenlive:original.resource">video/ParenthesesExample/vid/11.mp4</property>
  <property name="kdenlive:original.meta.media.nb_streams">1</property>
  <property name="kdenlive:original.meta.media.0.stream.type">video</property>
  <property name="kdenlive:original.meta.media.0.stream.frame_rate">60</property>
  <property name="kdenlive:original.meta.media.0.stream.sample_aspect_ratio">0</property>
  <property name="kdenlive:original.meta.media.0.codec.width">3840</property>
  <property name="kdenlive:original.meta.media.0.codec.height">2160</property>
  <property name="kdenlive:original.meta.media.0.codec.rotate">0</property>
  <property name="kdenlive:original.meta.media.0.codec.pix_fmt">yuv420p</property>
  <property name="kdenlive:original.meta.media.0.codec.sample_aspect_ratio">0</property>
  <property name="kdenlive:original.meta.media.0.codec.colorspace">709</property>
  <property name="kdenlive:original.meta.media.0.codec.name">h264</property>
  <property name="kdenlive:original.meta.media.0.codec.long_name">H.264 / AVC / MPEG-4 AVC / MPEG-4 part 10</property>
  <property name="kdenlive:original.meta.media.0.codec.bit_rate">2118136</property>
  <property name="kdenlive:original.meta.attr.0.stream.handler_name.markup">VideoHandler</property>
  <property name="kdenlive:original.meta.attr.0.stream.vendor_id.markup">[0][0][0][0]</property>
  <property name="kdenlive:original.meta.attr.major_brand.markup">isom</property>
  <property name="kdenlive:original.meta.attr.minor_version.markup">512</property>
  <property name="kdenlive:original.meta.attr.compatible_brands.markup">isomiso2avc1mp41</property>
  <property name="kdenlive:original.meta.attr.encoder.markup">Lavf58.76.100</property>
  <property name="kdenlive:original.meta.attr.comment.markup">Rendered with Manim Community v0.12.0</property>
  <property name="kdenlive:original.seekable">1</property>
  <property name="kdenlive:original.width">3840</property>
  <property name="kdenlive:original.height">2160</property>
  <property name="kdenlive:original.meta.media.sample_aspect_num">1</property>
  <property name="kdenlive:original.meta.media.sample_aspect_den">1</property>
  <property name="kdenlive:original.aspect_ratio">1</property>
  <property name="kdenlive:original.audio_index">-1</property>
  <property name="kdenlive:original.video_index">0</property>
  <property name="kdenlive:original.mute_on_pause">0</property>
  <property name="kdenlive:original.mlt_service">avformat-novalidate</property>
  <property name="kdenlive:original.kdenlive:folderid">240</property>
  <property name="kdenlive:original.meta.media.frame_rate_num">60</property>
  <property name="kdenlive:original.meta.media.frame_rate_den">1</property>
  <property name="kdenlive:original.meta.media.colorspace">709</property>
  <property name="kdenlive:original.meta.media.color_trc">2</property>
  <property name="kdenlive:original.meta.media.has_b_frames">2</property>
  <property name="kdenlive:original.meta.media.width">3840</property>
  <property name="kdenlive:original.meta.media.height">2160</property>
  <property name="kdenlive:original.meta.media.color_range">mpeg</property>
  <property name="kdenlive:original.kdenlive:id">243</property>
  <property name="kdenlive:original.kdenlive:file_size">266375</property>
  <property name="kdenlive:original.kdenlive:file_hash">dde1034eefa64634b4e6c45a51621e83</property>
  <property name="kdenlive:original.backup">1</property>
  <property name="kdenlive:file_hash">dde1034eefa64634b4e6c45a51621e83</property>
  <property name="meta.media.nb_streams">1</property>
  <property name="meta.media.0.stream.type">video</property>
  <property name="meta.media.0.stream.frame_rate">60</property>
  <property name="meta.media.0.stream.sample_aspect_ratio">0</property>
  <property name="meta.media.0.codec.width">640</property>
  <property name="meta.media.0.codec.height">360</property>
  <property name="meta.media.0.codec.rotate">0</property>
  <property name="meta.media.0.codec.pix_fmt">yuv420p</property>
  <property name="meta.media.0.codec.sample_aspect_ratio">0</property>
  <property name="meta.media.0.codec.colorspace">601</property>
  <property name="meta.media.0.codec.name">h264</property>
  <property name="meta.media.0.codec.long_name">H.264 / AVC / MPEG-4 AVC / MPEG-4 part 10</property>
  <property name="meta.media.0.codec.bit_rate">4063984</property>
  <property name="meta.attr.0.stream.handler_name.markup">VideoHandler</property>
  <property name="meta.attr.0.stream.vendor_id.markup">FFMP</property>
  <property name="meta.attr.0.stream.encoder.markup">Lavc58.134.100 libx264</property>
  <property name="meta.attr.major_brand.markup">qt  </property>
  <property name="meta.attr.minor_version.markup">512</property>
  <property name="meta.attr.compatible_brands.markup">qt  </property>
  <property name="meta.attr.encoder.markup">Lavf58.76.100</property>
  <property name="meta.attr.comment.markup">Rendered with Manim Community v0.12.0</property>
  <property name="meta.media.sample_aspect_num">1</property>
  <property name="meta.media.sample_aspect_den">1</property>
  <property name="meta.media.frame_rate_num">60</property>
  <property name="meta.media.frame_rate_den">1</property>
  <property name="meta.media.colorspace">601</property>
  <property name="meta.media.color_trc">2</property>
  <property name="meta.media.has_b_frames">0</property>
  <property name="meta.media.width">640</property>
  <property name="meta.media.height">360</property>
  <property name="meta.media.color_range">mpeg</property>
 </producer>
 <producer id="producer217" in="00:00:00.000" out="00:00:00.983">
  <property name="length">60</property>
  <property name="eof">pause</property>
  <property name="resource">/home/xiaoxiae/.cache/kdenlive/proxy/c76723e2532106bf2dcc16e0ba1d8f84.mov</property>
  <property name="audio_index">-1</property>
  <property name="video_index">0</property>
  <property name="mute_on_pause">0</property>
  <property name="mlt_service">avformat-novalidate</property>
  <property name="seekable">1</property>
  <property name="aspect_ratio">1</property>
  <property name="kdenlive:clipname">12.mp4</property>
  <property name="kdenlive:folderid">240</property>
  <property name="kdenlive:id">243</property>
  <property name="kdenlive:file_size">243048</property>
  <property name="kdenlive:proxy">/home/xiaoxiae/.cache/kdenlive/proxy/c76723e2532106bf2dcc16e0ba1d8f84.mov</property>
  <property name="kdenlive:originalurl">video/ParenthesesExample/vid/12.mp4</property>
  <property name="kdenlive:original.mlt_type">producer</property>
  <property name="kdenlive:original.in">0</property>
  <property name="kdenlive:original.out">59</property>
  <property name="kdenlive:original.length">60</property>
  <property name="kdenlive:original.eof">pause</property>
  <property name="kdenlive:original.resource">video/ParenthesesExample/vid/12.mp4</property>
  <property name="kdenlive:original.meta.media.nb_streams">1</property>
  <property name="kdenlive:original.meta.media.0.stream.type">video</property>
  <property name="kdenlive:original.meta.media.0.stream.frame_rate">60</property>
  <property name="kdenlive:original.meta.media.0.stream.sample_aspect_ratio">0</property>
  <property name="kdenlive:original.meta.media.0.codec.width">3840</property>
  <property name="kdenlive:original.meta.media.0.codec.height">2160</property>
  <property name="kdenlive:original.meta.media.0.codec.rotate">0</property>
  <property name="kdenlive:original.meta.media.0.codec.pix_fmt">yuv420p</property>
  <property name="kdenlive:original.meta.media.0.codec.sample_aspect_ratio">0</property>
  <property name="kdenlive:original.meta.media.0.codec.colorspace">709</property>
  <property name="kdenlive:original.meta.media.0.codec.name">h264</property>
  <property name="kdenlive:original.meta.media.0.codec.long_name">H.264 / AVC / MPEG-4 AVC / MPEG-4 part 10</property>
  <property name="kdenlive:original.meta.media.0.codec.bit_rate">1931584</property>
  <property name="kdenlive:original.meta.attr.0.stream.handler_name.markup">VideoHandler</property>
  <property name="kdenlive:original.meta.attr.0.stream.vendor_id.markup">[0][0][0][0]</property>
  <property name="kdenlive:original.meta.attr.major_brand.markup">isom</property>
  <property name="kdenlive:original.meta.attr.minor_version.markup">512</property>
  <property name="kdenlive:original.meta.attr.compatible_brands.markup">isomiso2avc1mp41</property>
  <property name="kdenlive:original.meta.attr.encoder.markup">Lavf58.76.100</property>
  <property name="kdenlive:original.meta.attr.comment.markup">Rendered with Manim Community v0.12.0</property>
  <property name="kdenlive:original.seekable">1</property>
  <property name="kdenlive:original.width">3840</property>
  <property name="kdenlive:original.height">2160</property>
  <property name="kdenlive:original.meta.media.sample_aspect_num">1</property>
  <property name="kdenlive:original.meta.media.sample_aspect_den">1</property>
  <property name="kdenlive:original.aspect_ratio">1</property>
  <property name="kdenlive:original.audio_index">-1</property>
  <property name="kdenlive:original.video_index">0</property>
  <property name="kdenlive:original.mute_on_pause">0</property>
  <property name="kdenlive:original.mlt_service">avformat-novalidate</property>
  <property name="kdenlive:original.kdenlive:folderid">240</property>
  <property name="kdenlive:original.meta.media.frame_rate_num">60</property>
  <property name="kdenlive:original.meta.media.frame_rate_den">1</property>
  <property name="kdenlive:original.meta.media.colorspace">709</property>
  <property name="kdenlive:original.meta.media.color_trc">2</property>
  <property name="kdenlive:original.meta.media.has_b_frames">2</property>
  <property name="kdenlive:original.meta.media.width">3840</property>
  <property name="kdenlive:original.meta.media.height">2160</property>
  <property name="kdenlive:original.meta.media.color_range">mpeg</property>
  <property name="kdenlive:original.kdenlive:id">244</property>
  <property name="kdenlive:original.kdenlive:file_size">243048</property>
  <property name="kdenlive:original.kdenlive:file_hash">c76723e2532106bf2dcc16e0ba1d8f84</property>
  <property name="kdenlive:original.backup">1</property>
  <property name="kdenlive:file_hash">c76723e2532106bf2dcc16e0ba1d8f84</property>
  <property name="meta.media.nb_streams">1</property>
  <property name="meta.media.0.stream.type">video</property>
  <property name="meta.media.0.stream.frame_rate">60</property>
  <property name="meta.media.0.stream.sample_aspect_ratio">0</property>
  <property name="meta.media.0.codec.width">640</property>
  <property name="meta.media.0.codec.height">360</property>
  <property name="meta.media.0.codec.rotate">0</property>
  <property name="meta.media.0.codec.pix_fmt">yuv420p</property>
  <property name="meta.media.0.codec.sample_aspect_ratio">0</property>
  <property name="meta.media.0.codec.colorspace">601</property>
  <property name="meta.media.0.codec.name">h264</property>
  <property name="meta.media.0.codec.long_name">H.264 / AVC / MPEG-4 AVC / MPEG-4 part 10</property>
  <property name="meta.media.0.codec.bit_rate">4339192</property>
  <property name="meta.attr.0.stream.handler_name.markup">VideoHandler</property>
  <property name="meta.attr.0.stream.vendor_id.markup">FFMP</property>
  <property name="meta.attr.0.stream.encoder.markup">Lavc58.134.100 libx264</property>
  <property name="meta.attr.major_brand.markup">qt  </property>
  <property name="meta.attr.minor_version.markup">512</property>
  <property name="meta.attr.compatible_brands.markup">qt  </property>
  <property name="meta.attr.encoder.markup">Lavf58.76.100</property>
  <property name="meta.attr.comment.markup">Rendered with Manim Community v0.12.0</property>
  <property name="meta.media.sample_aspect_num">1</property>
  <property name="meta.media.sample_aspect_den">1</property>
  <property name="meta.media.frame_rate_num">60</property>
  <property name="meta.media.frame_rate_den">1</property>
  <property name="meta.media.colorspace">601</property>
  <property name="meta.media.color_trc">2</property>
  <property name="meta.media.has_b_frames">0</property>
  <property name="meta.media.width">640</property>
  <property name="meta.media.height">360</property>
  <property name="meta.media.color_range">mpeg</property>
 </producer>
 <producer id="producer218" in="00:00:00.000" out="00:00:00.983">
  <property name="length">60</property>
  <property name="eof">pause</property>
  <property name="resource">/home/xiaoxiae/.cache/kdenlive/proxy/451b7e4acc4ea4095bbf9dbbcfc5ed9c.mov</property>
  <property name="audio_index">-1</property>
  <property name="video_index">0</property>
  <property name="mute_on_pause">0</property>
  <property name="mlt_service">avformat-novalidate</property>
  <property name="seekable">1</property>
  <property name="aspect_ratio">1</property>
  <property name="kdenlive:clipname">13.mp4</property>
  <property name="kdenlive:folderid">240</property>
  <property name="kdenlive:id">244</property>
  <property name="kdenlive:file_size">286867</property>
  <property name="kdenlive:proxy">/home/xiaoxiae/.cache/kdenlive/proxy/451b7e4acc4ea4095bbf9dbbcfc5ed9c.mov</property>
  <property name="kdenlive:originalurl">video/ParenthesesExample/vid/13.mp4</property>
  <property name="kdenlive:original.mlt_type">producer</property>
  <property name="kdenlive:original.in">0</property>
  <property name="kdenlive:original.out">59</property>
  <property name="kdenlive:original.length">60</property>
  <property name="kdenlive:original.eof">pause</property>
  <property name="kdenlive:original.resource">video/ParenthesesExample/vid/13.mp4</property>
  <property name="kdenlive:original.meta.media.nb_streams">1</property>
  <property name="kdenlive:original.meta.media.0.stream.type">video</property>
  <property name="kdenlive:original.meta.media.0.stream.frame_rate">60</property>
  <property name="kdenlive:original.meta.media.0.stream.sample_aspect_ratio">0</property>
  <property name="kdenlive:original.meta.media.0.codec.width">3840</property>
  <property name="kdenlive:original.meta.media.0.codec.height">2160</property>
  <property name="kdenlive:original.meta.media.0.codec.rotate">0</property>
  <property name="kdenlive:original.meta.media.0.codec.pix_fmt">yuv420p</property>
  <property name="kdenlive:original.meta.media.0.codec.sample_aspect_ratio">0</property>
  <property name="kdenlive:original.meta.media.0.codec.colorspace">709</property>
  <property name="kdenlive:original.meta.media.0.codec.name">h264</property>
  <property name="kdenlive:original.meta.media.0.codec.long_name">H.264 / AVC / MPEG-4 AVC / MPEG-4 part 10</property>
  <property name="kdenlive:original.meta.media.0.codec.bit_rate">2282072</property>
  <property name="kdenlive:original.meta.attr.0.stream.handler_name.markup">VideoHandler</property>
  <property name="kdenlive:original.meta.attr.0.stream.vendor_id.markup">[0][0][0][0]</property>
  <property name="kdenlive:original.meta.attr.major_brand.markup">isom</property>
  <property name="kdenlive:original.meta.attr.minor_version.markup">512</property>
  <property name="kdenlive:original.meta.attr.compatible_brands.markup">isomiso2avc1mp41</property>
  <property name="kdenlive:original.meta.attr.encoder.markup">Lavf58.76.100</property>
  <property name="kdenlive:original.meta.attr.comment.markup">Rendered with Manim Community v0.12.0</property>
  <property name="kdenlive:original.seekable">1</property>
  <property name="kdenlive:original.width">3840</property>
  <property name="kdenlive:original.height">2160</property>
  <property name="kdenlive:original.meta.media.sample_aspect_num">1</property>
  <property name="kdenlive:original.meta.media.sample_aspect_den">1</property>
  <property name="kdenlive:original.aspect_ratio">1</property>
  <property name="kdenlive:original.audio_index">-1</property>
  <property name="kdenlive:original.video_index">0</property>
  <property name="kdenlive:original.mute_on_pause">0</property>
  <property name="kdenlive:original.mlt_service">avformat-novalidate</property>
  <property name="kdenlive:original.kdenlive:folderid">240</property>
  <property name="kdenlive:original.meta.media.frame_rate_num">60</property>
  <property name="kdenlive:original.meta.media.frame_rate_den">1</property>
  <property name="kdenlive:original.meta.media.colorspace">709</property>
  <property name="kdenlive:original.meta.media.color_trc">2</property>
  <property name="kdenlive:original.meta.media.has_b_frames">2</property>
  <property name="kdenlive:original.meta.media.width">3840</property>
  <property name="kdenlive:original.meta.media.height">2160</property>
  <property name="kdenlive:original.meta.media.color_range">mpeg</property>
  <property name="kdenlive:original.kdenlive:id">245</property>
  <property name="kdenlive:original.kdenlive:file_size">286867</property>
  <property name="kdenlive:original.kdenlive:file_hash">451b7e4acc4ea4095bbf9dbbcfc5ed9c</property>
  <property name="kdenlive:original.backup">1</property>
  <property name="kdenlive:file_hash">451b7e4acc4ea4095bbf9dbbcfc5ed9c</property>
  <property name="meta.media.nb_streams">1</property>
  <property name="meta.media.0.stream.type">video</property>
  <property name="meta.media.0.stream.frame_rate">60</property>
  <property name="meta.media.0.stream.sample_aspect_ratio">0</property>
  <property name="meta.media.0.codec.width">640</property>
  <property name="meta.media.0.codec.height">360</property>
  <property name="meta.media.0.codec.rotate">0</property>
  <property name="meta.media.0.codec.pix_fmt">yuv420p</property>
  <property name="meta.media.0.codec.sample_aspect_ratio">0</property>
  <property name="meta.media.0.codec.colorspace">601</property>
  <property name="meta.media.0.codec.name">h264</property>
  <property name="meta.media.0.codec.long_name">H.264 / AVC / MPEG-4 AVC / MPEG-4 part 10</property>
  <property name="meta.media.0.codec.bit_rate">4371160</property>
  <property name="meta.attr.0.stream.handler_name.markup">VideoHandler</property>
  <property name="meta.attr.0.stream.vendor_id.markup">FFMP</property>
  <property name="meta.attr.0.stream.encoder.markup">Lavc58.134.100 libx264</property>
  <property name="meta.attr.major_brand.markup">qt  </property>
  <property name="meta.attr.minor_version.markup">512</property>
  <property name="meta.attr.compatible_brands.markup">qt  </property>
  <property name="meta.attr.encoder.markup">Lavf58.76.100</property>
  <property name="meta.attr.comment.markup">Rendered with Manim Community v0.12.0</property>
  <property name="meta.media.sample_aspect_num">1</property>
  <property name="meta.media.sample_aspect_den">1</property>
  <property name="meta.media.frame_rate_num">60</property>
  <property name="meta.media.frame_rate_den">1</property>
  <property name="meta.media.colorspace">601</property>
  <property name="meta.media.color_trc">2</property>
  <property name="meta.media.has_b_frames">0</property>
  <property name="meta.media.width">640</property>
  <property name="meta.media.height">360</property>
  <property name="meta.media.color_range">mpeg</property>
 </producer>
 <producer id="producer219" in="00:00:00.000" out="00:00:00.983">
  <property name="length">60</property>
  <property name="eof">pause</property>
  <property name="resource">/home/xiaoxiae/.cache/kdenlive/proxy/3555892f707daefbd492b217e9ac3764.mov</property>
  <property name="audio_index">-1</property>
  <property name="video_index">0</property>
  <property name="mute_on_pause">0</property>
  <property name="mlt_service">avformat-novalidate</property>
  <property name="seekable">1</property>
  <property name="aspect_ratio">1</property>
  <property name="kdenlive:clipname">14.mp4</property>
  <property name="kdenlive:folderid">240</property>
  <property name="kdenlive:id">245</property>
  <property name="kdenlive:file_size">346777</property>
  <property name="kdenlive:proxy">/home/xiaoxiae/.cache/kdenlive/proxy/3555892f707daefbd492b217e9ac3764.mov</property>
  <property name="kdenlive:originalurl">video/ParenthesesExample/vid/14.mp4</property>
  <property name="kdenlive:original.mlt_type">producer</property>
  <property name="kdenlive:original.in">0</property>
  <property name="kdenlive:original.out">59</property>
  <property name="kdenlive:original.length">60</property>
  <property name="kdenlive:original.eof">pause</property>
  <property name="kdenlive:original.resource">video/ParenthesesExample/vid/14.mp4</property>
  <property name="kdenlive:original.meta.media.nb_streams">1</property>
  <property name="kdenlive:original.meta.media.0.stream.type">video</property>
  <property name="kdenlive:original.meta.media.0.stream.frame_rate">60</property>
  <property name="kdenlive:original.meta.media.0.stream.sample_aspect_ratio">0</property>
  <property name="kdenlive:original.meta.media.0.codec.width">3840</property>
  <property name="kdenlive:original.meta.media.0.codec.height">2160</property>
  <property name="kdenlive:original.meta.media.0.codec.rotate">0</property>
  <property name="kdenlive:original.meta.media.0.codec.pix_fmt">yuv420p</property>
  <property name="kdenlive:original.meta.media.0.codec.sample_aspect_ratio">0</property>
  <property name="kdenlive:original.meta.media.0.codec.colorspace">709</property>
  <property name="kdenlive:original.meta.media.0.codec.name">h264</property>
  <property name="kdenlive:original.meta.media.0.codec.long_name">H.264 / AVC / MPEG-4 AVC / MPEG-4 part 10</property>
  <property name="kdenlive:original.meta.media.0.codec.bit_rate">2761480</property>
  <property name="kdenlive:original.meta.attr.0.stream.handler_name.markup">VideoHandler</property>
  <property name="kdenlive:original.meta.attr.0.stream.vendor_id.markup">[0][0][0][0]</property>
  <property name="kdenlive:original.meta.attr.major_brand.markup">isom</property>
  <property name="kdenlive:original.meta.attr.minor_version.markup">512</property>
  <property name="kdenlive:original.meta.attr.compatible_brands.markup">isomiso2avc1mp41</property>
  <property name="kdenlive:original.meta.attr.encoder.markup">Lavf58.76.100</property>
  <property name="kdenlive:original.meta.attr.comment.markup">Rendered with Manim Community v0.12.0</property>
  <property name="kdenlive:original.seekable">1</property>
  <property name="kdenlive:original.width">3840</property>
  <property name="kdenlive:original.height">2160</property>
  <property name="kdenlive:original.meta.media.sample_aspect_num">1</property>
  <property name="kdenlive:original.meta.media.sample_aspect_den">1</property>
  <property name="kdenlive:original.aspect_ratio">1</property>
  <property name="kdenlive:original.audio_index">-1</property>
  <property name="kdenlive:original.video_index">0</property>
  <property name="kdenlive:original.mute_on_pause">0</property>
  <property name="kdenlive:original.mlt_service">avformat-novalidate</property>
  <property name="kdenlive:original.kdenlive:folderid">240</property>
  <property name="kdenlive:original.meta.media.frame_rate_num">60</property>
  <property name="kdenlive:original.meta.media.frame_rate_den">1</property>
  <property name="kdenlive:original.meta.media.colorspace">709</property>
  <property name="kdenlive:original.meta.media.color_trc">2</property>
  <property name="kdenlive:original.meta.media.has_b_frames">2</property>
  <property name="kdenlive:original.meta.media.width">3840</property>
  <property name="kdenlive:original.meta.media.height">2160</property>
  <property name="kdenlive:original.meta.media.color_range">mpeg</property>
  <property name="kdenlive:original.kdenlive:id">246</property>
  <property name="kdenlive:original.kdenlive:file_size">346777</property>
  <property name="kdenlive:original.kdenlive:file_hash">3555892f707daefbd492b217e9ac3764</property>
  <property name="kdenlive:original.backup">1</property>
  <property name="kdenlive:file_hash">3555892f707daefbd492b217e9ac3764</property>
  <property name="meta.media.nb_streams">1</property>
  <property name="meta.media.0.stream.type">video</property>
  <property name="meta.media.0.stream.frame_rate">60</property>
  <property name="meta.media.0.stream.sample_aspect_ratio">0</property>
  <property name="meta.media.0.codec.width">640</property>
  <property name="meta.media.0.codec.height">360</property>
  <property name="meta.media.0.codec.rotate">0</property>
  <property name="meta.media.0.codec.pix_fmt">yuv420p</property>
  <property name="meta.media.0.codec.sample_aspect_ratio">0</property>
  <property name="meta.media.0.codec.colorspace">601</property>
  <property name="meta.media.0.codec.name">h264</property>
  <property name="meta.media.0.codec.long_name">H.264 / AVC / MPEG-4 AVC / MPEG-4 part 10</property>
  <property name="meta.media.0.codec.bit_rate">4566352</property>
  <property name="meta.attr.0.stream.handler_name.markup">VideoHandler</property>
  <property name="meta.attr.0.stream.vendor_id.markup">FFMP</property>
  <property name="meta.attr.0.stream.encoder.markup">Lavc58.134.100 libx264</property>
  <property name="meta.attr.major_brand.markup">qt  </property>
  <property name="meta.attr.minor_version.markup">512</property>
  <property name="meta.attr.compatible_brands.markup">qt  </property>
  <property name="meta.attr.encoder.markup">Lavf58.76.100</property>
  <property name="meta.attr.comment.markup">Rendered with Manim Community v0.12.0</property>
  <property name="meta.media.sample_aspect_num">1</property>
  <property name="meta.media.sample_aspect_den">1</property>
  <property name="meta.media.frame_rate_num">60</property>
  <property name="meta.media.frame_rate_den">1</property>
  <property name="meta.media.colorspace">601</property>
  <property name="meta.media.color_trc">2</property>
  <property name="meta.media.has_b_frames">0</property>
  <property name="meta.media.width">640</property>
  <property name="meta.media.height">360</property>
  <property name="meta.media.color_range">mpeg</property>
 </producer>
 <producer id="producer220" in="00:00:00.000" out="00:00:00.983">
  <property name="length">60</property>
  <property name="eof">pause</property>
  <property name="resource">/home/xiaoxiae/.cache/kdenlive/proxy/2b21a637c90796a005be9e478eabd29c.mov</property>
  <property name="audio_index">-1</property>
  <property name="video_index">0</property>
  <property name="mute_on_pause">0</property>
  <property name="mlt_service">avformat-novalidate</property>
  <property name="seekable">1</property>
  <property name="aspect_ratio">1</property>
  <property name="kdenlive:clipname">15.mp4</property>
  <property name="kdenlive:folderid">240</property>
  <property name="kdenlive:id">246</property>
  <property name="kdenlive:file_size">166116</property>
  <property name="kdenlive:proxy">/home/xiaoxiae/.cache/kdenlive/proxy/2b21a637c90796a005be9e478eabd29c.mov</property>
  <property name="kdenlive:originalurl">video/ParenthesesExample/vid/15.mp4</property>
  <property name="kdenlive:original.mlt_type">producer</property>
  <property name="kdenlive:original.in">0</property>
  <property name="kdenlive:original.out">59</property>
  <property name="kdenlive:original.length">60</property>
  <property name="kdenlive:original.eof">pause</property>
  <property name="kdenlive:original.resource">video/ParenthesesExample/vid/15.mp4</property>
  <property name="kdenlive:original.meta.media.nb_streams">1</property>
  <property name="kdenlive:original.meta.media.0.stream.type">video</property>
  <property name="kdenlive:original.meta.media.0.stream.frame_rate">60</property>
  <property name="kdenlive:original.meta.media.0.stream.sample_aspect_ratio">0</property>
  <property name="kdenlive:original.meta.media.0.codec.width">3840</property>
  <property name="kdenlive:original.meta.media.0.codec.height">2160</property>
  <property name="kdenlive:original.meta.media.0.codec.rotate">0</property>
  <property name="kdenlive:original.meta.media.0.codec.pix_fmt">yuv420p</property>
  <property name="kdenlive:original.meta.media.0.codec.sample_aspect_ratio">0</property>
  <property name="kdenlive:original.meta.media.0.codec.colorspace">709</property>
  <property name="kdenlive:original.meta.media.0.codec.name">h264</property>
  <property name="kdenlive:original.meta.media.0.codec.long_name">H.264 / AVC / MPEG-4 AVC / MPEG-4 part 10</property>
  <property name="kdenlive:original.meta.media.0.codec.bit_rate">1315872</property>
  <property name="kdenlive:original.meta.attr.0.stream.handler_name.markup">VideoHandler</property>
  <property name="kdenlive:original.meta.attr.0.stream.vendor_id.markup">[0][0][0][0]</property>
  <property name="kdenlive:original.meta.attr.major_brand.markup">isom</property>
  <property name="kdenlive:original.meta.attr.minor_version.markup">512</property>
  <property name="kdenlive:original.meta.attr.compatible_brands.markup">isomiso2avc1mp41</property>
  <property name="kdenlive:original.meta.attr.encoder.markup">Lavf58.76.100</property>
  <property name="kdenlive:original.meta.attr.comment.markup">Rendered with Manim Community v0.12.0</property>
  <property name="kdenlive:original.seekable">1</property>
  <property name="kdenlive:original.width">3840</property>
  <property name="kdenlive:original.height">2160</property>
  <property name="kdenlive:original.meta.media.sample_aspect_num">1</property>
  <property name="kdenlive:original.meta.media.sample_aspect_den">1</property>
  <property name="kdenlive:original.aspect_ratio">1</property>
  <property name="kdenlive:original.audio_index">-1</property>
  <property name="kdenlive:original.video_index">0</property>
  <property name="kdenlive:original.mute_on_pause">0</property>
  <property name="kdenlive:original.mlt_service">avformat-novalidate</property>
  <property name="kdenlive:original.kdenlive:folderid">240</property>
  <property name="kdenlive:original.meta.media.frame_rate_num">60</property>
  <property name="kdenlive:original.meta.media.frame_rate_den">1</property>
  <property name="kdenlive:original.meta.media.colorspace">709</property>
  <property name="kdenlive:original.meta.media.color_trc">2</property>
  <property name="kdenlive:original.meta.media.has_b_frames">2</property>
  <property name="kdenlive:original.meta.media.width">3840</property>
  <property name="kdenlive:original.meta.media.height">2160</property>
  <property name="kdenlive:original.meta.media.color_range">mpeg</property>
  <property name="kdenlive:original.kdenlive:id">247</property>
  <property name="kdenlive:original.kdenlive:file_size">166116</property>
  <property name="kdenlive:original.kdenlive:file_hash">2b21a637c90796a005be9e478eabd29c</property>
  <property name="kdenlive:original.backup">1</property>
  <property name="kdenlive:file_hash">2b21a637c90796a005be9e478eabd29c</property>
  <property name="meta.media.nb_streams">1</property>
  <property name="meta.media.0.stream.type">video</property>
  <property name="meta.media.0.stream.frame_rate">60</property>
  <property name="meta.media.0.stream.sample_aspect_ratio">0</property>
  <property name="meta.media.0.codec.width">640</property>
  <property name="meta.media.0.codec.height">360</property>
  <property name="meta.media.0.codec.rotate">0</property>
  <property name="meta.media.0.codec.pix_fmt">yuv420p</property>
  <property name="meta.media.0.codec.sample_aspect_ratio">0</property>
  <property name="meta.media.0.codec.colorspace">601</property>
  <property name="meta.media.0.codec.name">h264</property>
  <property name="meta.media.0.codec.long_name">H.264 / AVC / MPEG-4 AVC / MPEG-4 part 10</property>
  <property name="meta.media.0.codec.bit_rate">4724520</property>
  <property name="meta.attr.0.stream.handler_name.markup">VideoHandler</property>
  <property name="meta.attr.0.stream.vendor_id.markup">FFMP</property>
  <property name="meta.attr.0.stream.encoder.markup">Lavc58.134.100 libx264</property>
  <property name="meta.attr.major_brand.markup">qt  </property>
  <property name="meta.attr.minor_version.markup">512</property>
  <property name="meta.attr.compatible_brands.markup">qt  </property>
  <property name="meta.attr.encoder.markup">Lavf58.76.100</property>
  <property name="meta.attr.comment.markup">Rendered with Manim Community v0.12.0</property>
  <property name="meta.media.sample_aspect_num">1</property>
  <property name="meta.media.sample_aspect_den">1</property>
  <property name="meta.media.frame_rate_num">60</property>
  <property name="meta.media.frame_rate_den">1</property>
  <property name="meta.media.colorspace">601</property>
  <property name="meta.media.color_trc">2</property>
  <property name="meta.media.has_b_frames">0</property>
  <property name="meta.media.width">640</property>
  <property name="meta.media.height">360</property>
  <property name="meta.media.color_range">mpeg</property>
 </producer>
 <producer id="producer221" in="00:00:00.000" out="00:00:00.983">
  <property name="length">60</property>
  <property name="eof">pause</property>
  <property name="resource">/home/xiaoxiae/.cache/kdenlive/proxy/ddb2dd837a65527259a7491bf431c705.mov</property>
  <property name="audio_index">-1</property>
  <property name="video_index">0</property>
  <property name="mute_on_pause">0</property>
  <property name="mlt_service">avformat-novalidate</property>
  <property name="seekable">1</property>
  <property name="aspect_ratio">1</property>
  <property name="kdenlive:clipname">16.mp4</property>
  <property name="kdenlive:folderid">240</property>
  <property name="kdenlive:id">247</property>
  <property name="kdenlive:file_size">158171</property>
  <property name="kdenlive:proxy">/home/xiaoxiae/.cache/kdenlive/proxy/ddb2dd837a65527259a7491bf431c705.mov</property>
  <property name="kdenlive:originalurl">video/ParenthesesExample/vid/16.mp4</property>
  <property name="kdenlive:original.mlt_type">producer</property>
  <property name="kdenlive:original.in">0</property>
  <property name="kdenlive:original.out">59</property>
  <property name="kdenlive:original.length">60</property>
  <property name="kdenlive:original.eof">pause</property>
  <property name="kdenlive:original.resource">video/ParenthesesExample/vid/16.mp4</property>
  <property name="kdenlive:original.meta.media.nb_streams">1</property>
  <property name="kdenlive:original.meta.media.0.stream.type">video</property>
  <property name="kdenlive:original.meta.media.0.stream.frame_rate">60</property>
  <property name="kdenlive:original.meta.media.0.stream.sample_aspect_ratio">0</property>
  <property name="kdenlive:original.meta.media.0.codec.width">3840</property>
  <property name="kdenlive:original.meta.media.0.codec.height">2160</property>
  <property name="kdenlive:original.meta.media.0.codec.rotate">0</property>
  <property name="kdenlive:original.meta.media.0.codec.pix_fmt">yuv420p</property>
  <property name="kdenlive:original.meta.media.0.codec.sample_aspect_ratio">0</property>
  <property name="kdenlive:original.meta.media.0.codec.colorspace">709</property>
  <property name="kdenlive:original.meta.media.0.codec.name">h264</property>
  <property name="kdenlive:original.meta.media.0.codec.long_name">H.264 / AVC / MPEG-4 AVC / MPEG-4 part 10</property>
  <property name="kdenlive:original.meta.media.0.codec.bit_rate">1252312</property>
  <property name="kdenlive:original.meta.attr.0.stream.handler_name.markup">VideoHandler</property>
  <property name="kdenlive:original.meta.attr.0.stream.vendor_id.markup">[0][0][0][0]</property>
  <property name="kdenlive:original.meta.attr.major_brand.markup">isom</property>
  <property name="kdenlive:original.meta.attr.minor_version.markup">512</property>
  <property name="kdenlive:original.meta.attr.compatible_brands.markup">isomiso2avc1mp41</property>
  <property name="kdenlive:original.meta.attr.encoder.markup">Lavf58.76.100</property>
  <property name="kdenlive:original.meta.attr.comment.markup">Rendered with Manim Community v0.12.0</property>
  <property name="kdenlive:original.seekable">1</property>
  <property name="kdenlive:original.width">3840</property>
  <property name="kdenlive:original.height">2160</property>
  <property name="kdenlive:original.meta.media.sample_aspect_num">1</property>
  <property name="kdenlive:original.meta.media.sample_aspect_den">1</property>
  <property name="kdenlive:original.aspect_ratio">1</property>
  <property name="kdenlive:original.audio_index">-1</property>
  <property name="kdenlive:original.video_index">0</property>
  <property name="kdenlive:original.mute_on_pause">0</property>
  <property name="kdenlive:original.mlt_service">avformat-novalidate</property>
  <property name="kdenlive:original.kdenlive:folderid">240</property>
  <property name="kdenlive:original.meta.media.frame_rate_num">60</property>
  <property name="kdenlive:original.meta.media.frame_rate_den">1</property>
  <property name="kdenlive:original.meta.media.colorspace">709</property>
  <property name="kdenlive:original.meta.media.color_trc">2</property>
  <property name="kdenlive:original.meta.media.has_b_frames">2</property>
  <property name="kdenlive:original.meta.media.width">3840</property>
  <property name="kdenlive:original.meta.media.height">2160</property>
  <property name="kdenlive:original.meta.media.color_range">mpeg</property>
  <property name="kdenlive:original.kdenlive:id">248</property>
  <property name="kdenlive:original.kdenlive:file_size">158171</property>
  <property name="kdenlive:original.kdenlive:file_hash">ddb2dd837a65527259a7491bf431c705</property>
  <property name="kdenlive:original.backup">1</property>
  <property name="kdenlive:file_hash">ddb2dd837a65527259a7491bf431c705</property>
  <property name="meta.media.nb_streams">1</property>
  <property name="meta.media.0.stream.type">video</property>
  <property name="meta.media.0.stream.frame_rate">60</property>
  <property name="meta.media.0.stream.sample_aspect_ratio">0</property>
  <property name="meta.media.0.codec.width">640</property>
  <property name="meta.media.0.codec.height">360</property>
  <property name="meta.media.0.codec.rotate">0</property>
  <property name="meta.media.0.codec.pix_fmt">yuv420p</property>
  <property name="meta.media.0.codec.sample_aspect_ratio">0</property>
  <property name="meta.media.0.codec.colorspace">601</property>
  <property name="meta.media.0.codec.name">h264</property>
  <property name="meta.media.0.codec.long_name">H.264 / AVC / MPEG-4 AVC / MPEG-4 part 10</property>
  <property name="meta.media.0.codec.bit_rate">4707224</property>
  <property name="meta.attr.0.stream.handler_name.markup">VideoHandler</property>
  <property name="meta.attr.0.stream.vendor_id.markup">FFMP</property>
  <property name="meta.attr.0.stream.encoder.markup">Lavc58.134.100 libx264</property>
  <property name="meta.attr.major_brand.markup">qt  </property>
  <property name="meta.attr.minor_version.markup">512</property>
  <property name="meta.attr.compatible_brands.markup">qt  </property>
  <property name="meta.attr.encoder.markup">Lavf58.76.100</property>
  <property name="meta.attr.comment.markup">Rendered with Manim Community v0.12.0</property>
  <property name="meta.media.sample_aspect_num">1</property>
  <property name="meta.media.sample_aspect_den">1</property>
  <property name="meta.media.frame_rate_num">60</property>
  <property name="meta.media.frame_rate_den">1</property>
  <property name="meta.media.colorspace">601</property>
  <property name="meta.media.color_trc">2</property>
  <property name="meta.media.has_b_frames">0</property>
  <property name="meta.media.width">640</property>
  <property name="meta.media.height">360</property>
  <property name="meta.media.color_range">mpeg</property>
 </producer>
 <producer id="producer222" in="00:00:00.000" out="00:00:00.983">
  <property name="length">60</property>
  <property name="eof">pause</property>
  <property name="resource">/home/xiaoxiae/.cache/kdenlive/proxy/db5b1eb7a7e49d4f20e873f489ecea42.mov</property>
  <property name="audio_index">-1</property>
  <property name="video_index">0</property>
  <property name="mute_on_pause">0</property>
  <property name="mlt_service">avformat-novalidate</property>
  <property name="seekable">1</property>
  <property name="aspect_ratio">1</property>
  <property name="kdenlive:clipname">17.mp4</property>
  <property name="kdenlive:folderid">240</property>
  <property name="kdenlive:file_size">176255</property>
  <property name="kdenlive:id">248</property>
  <property name="kdenlive:proxy">/home/xiaoxiae/.cache/kdenlive/proxy/db5b1eb7a7e49d4f20e873f489ecea42.mov</property>
  <property name="kdenlive:originalurl">video/ParenthesesExample/vid/17.mp4</property>
  <property name="kdenlive:original.mlt_type">producer</property>
  <property name="kdenlive:original.in">0</property>
  <property name="kdenlive:original.out">59</property>
  <property name="kdenlive:original.length">60</property>
  <property name="kdenlive:original.eof">pause</property>
  <property name="kdenlive:original.resource">video/ParenthesesExample/vid/17.mp4</property>
  <property name="kdenlive:original.meta.media.nb_streams">1</property>
  <property name="kdenlive:original.meta.media.0.stream.type">video</property>
  <property name="kdenlive:original.meta.media.0.stream.frame_rate">60</property>
  <property name="kdenlive:original.meta.media.0.stream.sample_aspect_ratio">0</property>
  <property name="kdenlive:original.meta.media.0.codec.width">3840</property>
  <property name="kdenlive:original.meta.media.0.codec.height">2160</property>
  <property name="kdenlive:original.meta.media.0.codec.rotate">0</property>
  <property name="kdenlive:original.meta.media.0.codec.pix_fmt">yuv420p</property>
  <property name="kdenlive:original.meta.media.0.codec.sample_aspect_ratio">0</property>
  <property name="kdenlive:original.meta.media.0.codec.colorspace">709</property>
  <property name="kdenlive:original.meta.media.0.codec.name">h264</property>
  <property name="kdenlive:original.meta.media.0.codec.long_name">H.264 / AVC / MPEG-4 AVC / MPEG-4 part 10</property>
  <property name="kdenlive:original.meta.media.0.codec.bit_rate">1396984</property>
  <property name="kdenlive:original.meta.attr.0.stream.handler_name.markup">VideoHandler</property>
  <property name="kdenlive:original.meta.attr.0.stream.vendor_id.markup">[0][0][0][0]</property>
  <property name="kdenlive:original.meta.attr.major_brand.markup">isom</property>
  <property name="kdenlive:original.meta.attr.minor_version.markup">512</property>
  <property name="kdenlive:original.meta.attr.compatible_brands.markup">isomiso2avc1mp41</property>
  <property name="kdenlive:original.meta.attr.encoder.markup">Lavf58.76.100</property>
  <property name="kdenlive:original.meta.attr.comment.markup">Rendered with Manim Community v0.12.0</property>
  <property name="kdenlive:original.seekable">1</property>
  <property name="kdenlive:original.width">3840</property>
  <property name="kdenlive:original.height">2160</property>
  <property name="kdenlive:original.meta.media.sample_aspect_num">1</property>
  <property name="kdenlive:original.meta.media.sample_aspect_den">1</property>
  <property name="kdenlive:original.aspect_ratio">1</property>
  <property name="kdenlive:original.audio_index">-1</property>
  <property name="kdenlive:original.video_index">0</property>
  <property name="kdenlive:original.mute_on_pause">0</property>
  <property name="kdenlive:original.mlt_service">avformat-novalidate</property>
  <property name="kdenlive:original.kdenlive:folderid">240</property>
  <property name="kdenlive:original.meta.media.frame_rate_num">60</property>
  <property name="kdenlive:original.meta.media.frame_rate_den">1</property>
  <property name="kdenlive:original.meta.media.colorspace">709</property>
  <property name="kdenlive:original.meta.media.color_trc">2</property>
  <property name="kdenlive:original.meta.media.has_b_frames">2</property>
  <property name="kdenlive:original.meta.media.width">3840</property>
  <property name="kdenlive:original.meta.media.height">2160</property>
  <property name="kdenlive:original.meta.media.color_range">mpeg</property>
  <property name="kdenlive:original.kdenlive:file_size">176255</property>
  <property name="kdenlive:original.kdenlive:id">249</property>
  <property name="kdenlive:original.kdenlive:file_hash">db5b1eb7a7e49d4f20e873f489ecea42</property>
  <property name="kdenlive:original.backup">1</property>
  <property name="kdenlive:file_hash">db5b1eb7a7e49d4f20e873f489ecea42</property>
  <property name="meta.media.nb_streams">1</property>
  <property name="meta.media.0.stream.type">video</property>
  <property name="meta.media.0.stream.frame_rate">60</property>
  <property name="meta.media.0.stream.sample_aspect_ratio">0</property>
  <property name="meta.media.0.codec.width">640</property>
  <property name="meta.media.0.codec.height">360</property>
  <property name="meta.media.0.codec.rotate">0</property>
  <property name="meta.media.0.codec.pix_fmt">yuv420p</property>
  <property name="meta.media.0.codec.sample_aspect_ratio">0</property>
  <property name="meta.media.0.codec.colorspace">601</property>
  <property name="meta.media.0.codec.name">h264</property>
  <property name="meta.media.0.codec.long_name">H.264 / AVC / MPEG-4 AVC / MPEG-4 part 10</property>
  <property name="meta.media.0.codec.bit_rate">4726784</property>
  <property name="meta.attr.0.stream.handler_name.markup">VideoHandler</property>
  <property name="meta.attr.0.stream.vendor_id.markup">FFMP</property>
  <property name="meta.attr.0.stream.encoder.markup">Lavc58.134.100 libx264</property>
  <property name="meta.attr.major_brand.markup">qt  </property>
  <property name="meta.attr.minor_version.markup">512</property>
  <property name="meta.attr.compatible_brands.markup">qt  </property>
  <property name="meta.attr.encoder.markup">Lavf58.76.100</property>
  <property name="meta.attr.comment.markup">Rendered with Manim Community v0.12.0</property>
  <property name="meta.media.sample_aspect_num">1</property>
  <property name="meta.media.sample_aspect_den">1</property>
  <property name="meta.media.frame_rate_num">60</property>
  <property name="meta.media.frame_rate_den">1</property>
  <property name="meta.media.colorspace">601</property>
  <property name="meta.media.color_trc">2</property>
  <property name="meta.media.has_b_frames">0</property>
  <property name="meta.media.width">640</property>
  <property name="meta.media.height">360</property>
  <property name="meta.media.color_range">mpeg</property>
 </producer>
 <producer id="producer223" in="00:00:00.000" out="00:00:00.983">
  <property name="length">60</property>
  <property name="eof">pause</property>
  <property name="resource">/home/xiaoxiae/.cache/kdenlive/proxy/d2fdb3459311e3c2c3e6815a9145a123.mov</property>
  <property name="audio_index">-1</property>
  <property name="video_index">0</property>
  <property name="mute_on_pause">0</property>
  <property name="mlt_service">avformat-novalidate</property>
  <property name="seekable">1</property>
  <property name="aspect_ratio">1</property>
  <property name="kdenlive:clipname">18.mp4</property>
  <property name="kdenlive:folderid">240</property>
  <property name="kdenlive:id">249</property>
  <property name="kdenlive:file_size">211854</property>
  <property name="kdenlive:proxy">/home/xiaoxiae/.cache/kdenlive/proxy/d2fdb3459311e3c2c3e6815a9145a123.mov</property>
  <property name="kdenlive:originalurl">video/ParenthesesExample/vid/18.mp4</property>
  <property name="kdenlive:original.mlt_type">producer</property>
  <property name="kdenlive:original.in">0</property>
  <property name="kdenlive:original.out">59</property>
  <property name="kdenlive:original.length">60</property>
  <property name="kdenlive:original.eof">pause</property>
  <property name="kdenlive:original.resource">video/ParenthesesExample/vid/18.mp4</property>
  <property name="kdenlive:original.meta.media.nb_streams">1</property>
  <property name="kdenlive:original.meta.media.0.stream.type">video</property>
  <property name="kdenlive:original.meta.media.0.stream.frame_rate">60</property>
  <property name="kdenlive:original.meta.media.0.stream.sample_aspect_ratio">0</property>
  <property name="kdenlive:original.meta.media.0.codec.width">3840</property>
  <property name="kdenlive:original.meta.media.0.codec.height">2160</property>
  <property name="kdenlive:original.meta.media.0.codec.rotate">0</property>
  <property name="kdenlive:original.meta.media.0.codec.pix_fmt">yuv420p</property>
  <property name="kdenlive:original.meta.media.0.codec.sample_aspect_ratio">0</property>
  <property name="kdenlive:original.meta.media.0.codec.colorspace">709</property>
  <property name="kdenlive:original.meta.media.0.codec.name">h264</property>
  <property name="kdenlive:original.meta.media.0.codec.long_name">H.264 / AVC / MPEG-4 AVC / MPEG-4 part 10</property>
  <property name="kdenlive:original.meta.media.0.codec.bit_rate">1681776</property>
  <property name="kdenlive:original.meta.attr.0.stream.handler_name.markup">VideoHandler</property>
  <property name="kdenlive:original.meta.attr.0.stream.vendor_id.markup">[0][0][0][0]</property>
  <property name="kdenlive:original.meta.attr.major_brand.markup">isom</property>
  <property name="kdenlive:original.meta.attr.minor_version.markup">512</property>
  <property name="kdenlive:original.meta.attr.compatible_brands.markup">isomiso2avc1mp41</property>
  <property name="kdenlive:original.meta.attr.encoder.markup">Lavf58.76.100</property>
  <property name="kdenlive:original.meta.attr.comment.markup">Rendered with Manim Community v0.12.0</property>
  <property name="kdenlive:original.seekable">1</property>
  <property name="kdenlive:original.width">3840</property>
  <property name="kdenlive:original.height">2160</property>
  <property name="kdenlive:original.meta.media.sample_aspect_num">1</property>
  <property name="kdenlive:original.meta.media.sample_aspect_den">1</property>
  <property name="kdenlive:original.aspect_ratio">1</property>
  <property name="kdenlive:original.audio_index">-1</property>
  <property name="kdenlive:original.video_index">0</property>
  <property name="kdenlive:original.mute_on_pause">0</property>
  <property name="kdenlive:original.mlt_service">avformat-novalidate</property>
  <property name="kdenlive:original.kdenlive:folderid">240</property>
  <property name="kdenlive:original.meta.media.frame_rate_num">60</property>
  <property name="kdenlive:original.meta.media.frame_rate_den">1</property>
  <property name="kdenlive:original.meta.media.colorspace">709</property>
  <property name="kdenlive:original.meta.media.color_trc">2</property>
  <property name="kdenlive:original.meta.media.has_b_frames">2</property>
  <property name="kdenlive:original.meta.media.width">3840</property>
  <property name="kdenlive:original.meta.media.height">2160</property>
  <property name="kdenlive:original.meta.media.color_range">mpeg</property>
  <property name="kdenlive:original.kdenlive:id">250</property>
  <property name="kdenlive:original.kdenlive:file_size">211854</property>
  <property name="kdenlive:original.kdenlive:file_hash">d2fdb3459311e3c2c3e6815a9145a123</property>
  <property name="kdenlive:original.backup">1</property>
  <property name="kdenlive:file_hash">d2fdb3459311e3c2c3e6815a9145a123</property>
  <property name="meta.media.nb_streams">1</property>
  <property name="meta.media.0.stream.type">video</property>
  <property name="meta.media.0.stream.frame_rate">60</property>
  <property name="meta.media.0.stream.sample_aspect_ratio">0</property>
  <property name="meta.media.0.codec.width">640</property>
  <property name="meta.media.0.codec.height">360</property>
  <property name="meta.media.0.codec.rotate">0</property>
  <property name="meta.media.0.codec.pix_fmt">yuv420p</property>
  <property name="meta.media.0.codec.sample_aspect_ratio">0</property>
  <property name="meta.media.0.codec.colorspace">601</property>
  <property name="meta.media.0.codec.name">h264</property>
  <property name="meta.media.0.codec.long_name">H.264 / AVC / MPEG-4 AVC / MPEG-4 part 10</property>
  <property name="meta.media.0.codec.bit_rate">4550720</property>
  <property name="meta.attr.0.stream.handler_name.markup">VideoHandler</property>
  <property name="meta.attr.0.stream.vendor_id.markup">FFMP</property>
  <property name="meta.attr.0.stream.encoder.markup">Lavc58.134.100 libx264</property>
  <property name="meta.attr.major_brand.markup">qt  </property>
  <property name="meta.attr.minor_version.markup">512</property>
  <property name="meta.attr.compatible_brands.markup">qt  </property>
  <property name="meta.attr.encoder.markup">Lavf58.76.100</property>
  <property name="meta.attr.comment.markup">Rendered with Manim Community v0.12.0</property>
  <property name="meta.media.sample_aspect_num">1</property>
  <property name="meta.media.sample_aspect_den">1</property>
  <property name="meta.media.frame_rate_num">60</property>
  <property name="meta.media.frame_rate_den">1</property>
  <property name="meta.media.colorspace">601</property>
  <property name="meta.media.color_trc">2</property>
  <property name="meta.media.has_b_frames">0</property>
  <property name="meta.media.width">640</property>
  <property name="meta.media.height">360</property>
  <property name="meta.media.color_range">mpeg</property>
 </producer>
 <producer id="producer224" in="00:00:00.000" out="00:00:00.983">
  <property name="length">60</property>
  <property name="eof">pause</property>
  <property name="resource">/home/xiaoxiae/.cache/kdenlive/proxy/3120dd021374b6561584fa4f25d259e4.mov</property>
  <property name="audio_index">-1</property>
  <property name="video_index">0</property>
  <property name="mute_on_pause">0</property>
  <property name="mlt_service">avformat-novalidate</property>
  <property name="seekable">1</property>
  <property name="aspect_ratio">1</property>
  <property name="kdenlive:clipname">19.mp4</property>
  <property name="kdenlive:folderid">240</property>
  <property name="kdenlive:id">250</property>
  <property name="kdenlive:file_size">146246</property>
  <property name="kdenlive:proxy">/home/xiaoxiae/.cache/kdenlive/proxy/3120dd021374b6561584fa4f25d259e4.mov</property>
  <property name="kdenlive:originalurl">video/ParenthesesExample/vid/19.mp4</property>
  <property name="kdenlive:original.mlt_type">producer</property>
  <property name="kdenlive:original.in">0</property>
  <property name="kdenlive:original.out">59</property>
  <property name="kdenlive:original.length">60</property>
  <property name="kdenlive:original.eof">pause</property>
  <property name="kdenlive:original.resource">video/ParenthesesExample/vid/19.mp4</property>
  <property name="kdenlive:original.meta.media.nb_streams">1</property>
  <property name="kdenlive:original.meta.media.0.stream.type">video</property>
  <property name="kdenlive:original.meta.media.0.stream.frame_rate">60</property>
  <property name="kdenlive:original.meta.media.0.stream.sample_aspect_ratio">0</property>
  <property name="kdenlive:original.meta.media.0.codec.width">3840</property>
  <property name="kdenlive:original.meta.media.0.codec.height">2160</property>
  <property name="kdenlive:original.meta.media.0.codec.rotate">0</property>
  <property name="kdenlive:original.meta.media.0.codec.pix_fmt">yuv420p</property>
  <property name="kdenlive:original.meta.media.0.codec.sample_aspect_ratio">0</property>
  <property name="kdenlive:original.meta.media.0.codec.colorspace">709</property>
  <property name="kdenlive:original.meta.media.0.codec.name">h264</property>
  <property name="kdenlive:original.meta.media.0.codec.long_name">H.264 / AVC / MPEG-4 AVC / MPEG-4 part 10</property>
  <property name="kdenlive:original.meta.media.0.codec.bit_rate">1156912</property>
  <property name="kdenlive:original.meta.attr.0.stream.handler_name.markup">VideoHandler</property>
  <property name="kdenlive:original.meta.attr.0.stream.vendor_id.markup">[0][0][0][0]</property>
  <property name="kdenlive:original.meta.attr.major_brand.markup">isom</property>
  <property name="kdenlive:original.meta.attr.minor_version.markup">512</property>
  <property name="kdenlive:original.meta.attr.compatible_brands.markup">isomiso2avc1mp41</property>
  <property name="kdenlive:original.meta.attr.encoder.markup">Lavf58.76.100</property>
  <property name="kdenlive:original.meta.attr.comment.markup">Rendered with Manim Community v0.12.0</property>
  <property name="kdenlive:original.seekable">1</property>
  <property name="kdenlive:original.width">3840</property>
  <property name="kdenlive:original.height">2160</property>
  <property name="kdenlive:original.meta.media.sample_aspect_num">1</property>
  <property name="kdenlive:original.meta.media.sample_aspect_den">1</property>
  <property name="kdenlive:original.aspect_ratio">1</property>
  <property name="kdenlive:original.audio_index">-1</property>
  <property name="kdenlive:original.video_index">0</property>
  <property name="kdenlive:original.mute_on_pause">0</property>
  <property name="kdenlive:original.mlt_service">avformat-novalidate</property>
  <property name="kdenlive:original.kdenlive:folderid">240</property>
  <property name="kdenlive:original.meta.media.frame_rate_num">60</property>
  <property name="kdenlive:original.meta.media.frame_rate_den">1</property>
  <property name="kdenlive:original.meta.media.colorspace">709</property>
  <property name="kdenlive:original.meta.media.color_trc">2</property>
  <property name="kdenlive:original.meta.media.has_b_frames">2</property>
  <property name="kdenlive:original.meta.media.width">3840</property>
  <property name="kdenlive:original.meta.media.height">2160</property>
  <property name="kdenlive:original.meta.media.color_range">mpeg</property>
  <property name="kdenlive:original.kdenlive:id">251</property>
  <property name="kdenlive:original.kdenlive:file_size">146246</property>
  <property name="kdenlive:original.kdenlive:file_hash">3120dd021374b6561584fa4f25d259e4</property>
  <property name="kdenlive:original.backup">1</property>
  <property name="kdenlive:file_hash">3120dd021374b6561584fa4f25d259e4</property>
  <property name="meta.media.nb_streams">1</property>
  <property name="meta.media.0.stream.type">video</property>
  <property name="meta.media.0.stream.frame_rate">60</property>
  <property name="meta.media.0.stream.sample_aspect_ratio">0</property>
  <property name="meta.media.0.codec.width">640</property>
  <property name="meta.media.0.codec.height">360</property>
  <property name="meta.media.0.codec.rotate">0</property>
  <property name="meta.media.0.codec.pix_fmt">yuv420p</property>
  <property name="meta.media.0.codec.sample_aspect_ratio">0</property>
  <property name="meta.media.0.codec.colorspace">601</property>
  <property name="meta.media.0.codec.name">h264</property>
  <property name="meta.media.0.codec.long_name">H.264 / AVC / MPEG-4 AVC / MPEG-4 part 10</property>
  <property name="meta.media.0.codec.bit_rate">4283600</property>
  <property name="meta.attr.0.stream.handler_name.markup">VideoHandler</property>
  <property name="meta.attr.0.stream.vendor_id.markup">FFMP</property>
  <property name="meta.attr.0.stream.encoder.markup">Lavc58.134.100 libx264</property>
  <property name="meta.attr.major_brand.markup">qt  </property>
  <property name="meta.attr.minor_version.markup">512</property>
  <property name="meta.attr.compatible_brands.markup">qt  </property>
  <property name="meta.attr.encoder.markup">Lavf58.76.100</property>
  <property name="meta.attr.comment.markup">Rendered with Manim Community v0.12.0</property>
  <property name="meta.media.sample_aspect_num">1</property>
  <property name="meta.media.sample_aspect_den">1</property>
  <property name="meta.media.frame_rate_num">60</property>
  <property name="meta.media.frame_rate_den">1</property>
  <property name="meta.media.colorspace">601</property>
  <property name="meta.media.color_trc">2</property>
  <property name="meta.media.has_b_frames">0</property>
  <property name="meta.media.width">640</property>
  <property name="meta.media.height">360</property>
  <property name="meta.media.color_range">mpeg</property>
 </producer>
 <producer id="producer225" in="00:00:00.000" out="00:00:00.983">
  <property name="length">60</property>
  <property name="eof">pause</property>
  <property name="resource">/home/xiaoxiae/.cache/kdenlive/proxy/056f27c3c2e949a219bb63b86d5ae40f.mov</property>
  <property name="audio_index">-1</property>
  <property name="video_index">0</property>
  <property name="mute_on_pause">0</property>
  <property name="mlt_service">avformat-novalidate</property>
  <property name="seekable">1</property>
  <property name="aspect_ratio">1</property>
  <property name="kdenlive:clipname">2.mp4</property>
  <property name="kdenlive:folderid">240</property>
  <property name="kdenlive:id">251</property>
  <property name="kdenlive:file_size">166090</property>
  <property name="kdenlive:proxy">/home/xiaoxiae/.cache/kdenlive/proxy/056f27c3c2e949a219bb63b86d5ae40f.mov</property>
  <property name="kdenlive:originalurl">video/ParenthesesExample/vid/2.mp4</property>
  <property name="kdenlive:original.mlt_type">producer</property>
  <property name="kdenlive:original.in">0</property>
  <property name="kdenlive:original.out">59</property>
  <property name="kdenlive:original.length">60</property>
  <property name="kdenlive:original.eof">pause</property>
  <property name="kdenlive:original.resource">video/ParenthesesExample/vid/2.mp4</property>
  <property name="kdenlive:original.meta.media.nb_streams">1</property>
  <property name="kdenlive:original.meta.media.0.stream.type">video</property>
  <property name="kdenlive:original.meta.media.0.stream.frame_rate">60</property>
  <property name="kdenlive:original.meta.media.0.stream.sample_aspect_ratio">0</property>
  <property name="kdenlive:original.meta.media.0.codec.width">3840</property>
  <property name="kdenlive:original.meta.media.0.codec.height">2160</property>
  <property name="kdenlive:original.meta.media.0.codec.rotate">0</property>
  <property name="kdenlive:original.meta.media.0.codec.pix_fmt">yuv420p</property>
  <property name="kdenlive:original.meta.media.0.codec.sample_aspect_ratio">0</property>
  <property name="kdenlive:original.meta.media.0.codec.colorspace">709</property>
  <property name="kdenlive:original.meta.media.0.codec.name">h264</property>
  <property name="kdenlive:original.meta.media.0.codec.long_name">H.264 / AVC / MPEG-4 AVC / MPEG-4 part 10</property>
  <property name="kdenlive:original.meta.media.0.codec.bit_rate">1315920</property>
  <property name="kdenlive:original.meta.attr.0.stream.handler_name.markup">VideoHandler</property>
  <property name="kdenlive:original.meta.attr.0.stream.vendor_id.markup">[0][0][0][0]</property>
  <property name="kdenlive:original.meta.attr.major_brand.markup">isom</property>
  <property name="kdenlive:original.meta.attr.minor_version.markup">512</property>
  <property name="kdenlive:original.meta.attr.compatible_brands.markup">isomiso2avc1mp41</property>
  <property name="kdenlive:original.meta.attr.encoder.markup">Lavf58.76.100</property>
  <property name="kdenlive:original.meta.attr.comment.markup">Rendered with Manim Community v0.12.0</property>
  <property name="kdenlive:original.seekable">1</property>
  <property name="kdenlive:original.width">3840</property>
  <property name="kdenlive:original.height">2160</property>
  <property name="kdenlive:original.meta.media.sample_aspect_num">1</property>
  <property name="kdenlive:original.meta.media.sample_aspect_den">1</property>
  <property name="kdenlive:original.aspect_ratio">1</property>
  <property name="kdenlive:original.audio_index">-1</property>
  <property name="kdenlive:original.video_index">0</property>
  <property name="kdenlive:original.mute_on_pause">0</property>
  <property name="kdenlive:original.mlt_service">avformat-novalidate</property>
  <property name="kdenlive:original.kdenlive:folderid">240</property>
  <property name="kdenlive:original.meta.media.frame_rate_num">60</property>
  <property name="kdenlive:original.meta.media.frame_rate_den">1</property>
  <property name="kdenlive:original.meta.media.colorspace">709</property>
  <property name="kdenlive:original.meta.media.color_trc">2</property>
  <property name="kdenlive:original.meta.media.has_b_frames">2</property>
  <property name="kdenlive:original.meta.media.width">3840</property>
  <property name="kdenlive:original.meta.media.height">2160</property>
  <property name="kdenlive:original.meta.media.color_range">mpeg</property>
  <property name="kdenlive:original.kdenlive:id">252</property>
  <property name="kdenlive:original.kdenlive:file_size">166090</property>
  <property name="kdenlive:original.kdenlive:file_hash">056f27c3c2e949a219bb63b86d5ae40f</property>
  <property name="kdenlive:original.backup">1</property>
  <property name="kdenlive:file_hash">056f27c3c2e949a219bb63b86d5ae40f</property>
  <property name="meta.media.nb_streams">1</property>
  <property name="meta.media.0.stream.type">video</property>
  <property name="meta.media.0.stream.frame_rate">60</property>
  <property name="meta.media.0.stream.sample_aspect_ratio">0</property>
  <property name="meta.media.0.codec.width">640</property>
  <property name="meta.media.0.codec.height">360</property>
  <property name="meta.media.0.codec.rotate">0</property>
  <property name="meta.media.0.codec.pix_fmt">yuv420p</property>
  <property name="meta.media.0.codec.sample_aspect_ratio">0</property>
  <property name="meta.media.0.codec.colorspace">601</property>
  <property name="meta.media.0.codec.name">h264</property>
  <property name="meta.media.0.codec.long_name">H.264 / AVC / MPEG-4 AVC / MPEG-4 part 10</property>
  <property name="meta.media.0.codec.bit_rate">1616248</property>
  <property name="meta.attr.0.stream.handler_name.markup">VideoHandler</property>
  <property name="meta.attr.0.stream.vendor_id.markup">FFMP</property>
  <property name="meta.attr.0.stream.encoder.markup">Lavc58.134.100 libx264</property>
  <property name="meta.attr.major_brand.markup">qt  </property>
  <property name="meta.attr.minor_version.markup">512</property>
  <property name="meta.attr.compatible_brands.markup">qt  </property>
  <property name="meta.attr.encoder.markup">Lavf58.76.100</property>
  <property name="meta.attr.comment.markup">Rendered with Manim Community v0.12.0</property>
  <property name="meta.media.sample_aspect_num">1</property>
  <property name="meta.media.sample_aspect_den">1</property>
  <property name="meta.media.frame_rate_num">60</property>
  <property name="meta.media.frame_rate_den">1</property>
  <property name="meta.media.colorspace">601</property>
  <property name="meta.media.color_trc">2</property>
  <property name="meta.media.has_b_frames">0</property>
  <property name="meta.media.width">640</property>
  <property name="meta.media.height">360</property>
  <property name="meta.media.color_range">mpeg</property>
 </producer>
 <producer id="producer226" in="00:00:00.000" out="00:00:00.983">
  <property name="length">60</property>
  <property name="eof">pause</property>
  <property name="resource">/home/xiaoxiae/.cache/kdenlive/proxy/58366813f681daf23beff1b2e47aadbf.mov</property>
  <property name="audio_index">-1</property>
  <property name="video_index">0</property>
  <property name="mute_on_pause">0</property>
  <property name="mlt_service">avformat-novalidate</property>
  <property name="seekable">1</property>
  <property name="aspect_ratio">1</property>
  <property name="kdenlive:clipname">20.mp4</property>
  <property name="kdenlive:folderid">240</property>
  <property name="kdenlive:id">252</property>
  <property name="kdenlive:file_size">144902</property>
  <property name="kdenlive:proxy">/home/xiaoxiae/.cache/kdenlive/proxy/58366813f681daf23beff1b2e47aadbf.mov</property>
  <property name="kdenlive:originalurl">video/ParenthesesExample/vid/20.mp4</property>
  <property name="kdenlive:original.mlt_type">producer</property>
  <property name="kdenlive:original.in">0</property>
  <property name="kdenlive:original.out">59</property>
  <property name="kdenlive:original.length">60</property>
  <property name="kdenlive:original.eof">pause</property>
  <property name="kdenlive:original.resource">video/ParenthesesExample/vid/20.mp4</property>
  <property name="kdenlive:original.meta.media.nb_streams">1</property>
  <property name="kdenlive:original.meta.media.0.stream.type">video</property>
  <property name="kdenlive:original.meta.media.0.stream.frame_rate">60</property>
  <property name="kdenlive:original.meta.media.0.stream.sample_aspect_ratio">0</property>
  <property name="kdenlive:original.meta.media.0.codec.width">3840</property>
  <property name="kdenlive:original.meta.media.0.codec.height">2160</property>
  <property name="kdenlive:original.meta.media.0.codec.rotate">0</property>
  <property name="kdenlive:original.meta.media.0.codec.pix_fmt">yuv420p</property>
  <property name="kdenlive:original.meta.media.0.codec.sample_aspect_ratio">0</property>
  <property name="kdenlive:original.meta.media.0.codec.colorspace">709</property>
  <property name="kdenlive:original.meta.media.0.codec.name">h264</property>
  <property name="kdenlive:original.meta.media.0.codec.long_name">H.264 / AVC / MPEG-4 AVC / MPEG-4 part 10</property>
  <property name="kdenlive:original.meta.media.0.codec.bit_rate">1146160</property>
  <property name="kdenlive:original.meta.attr.0.stream.handler_name.markup">VideoHandler</property>
  <property name="kdenlive:original.meta.attr.0.stream.vendor_id.markup">[0][0][0][0]</property>
  <property name="kdenlive:original.meta.attr.major_brand.markup">isom</property>
  <property name="kdenlive:original.meta.attr.minor_version.markup">512</property>
  <property name="kdenlive:original.meta.attr.compatible_brands.markup">isomiso2avc1mp41</property>
  <property name="kdenlive:original.meta.attr.encoder.markup">Lavf58.76.100</property>
  <property name="kdenlive:original.meta.attr.comment.markup">Rendered with Manim Community v0.12.0</property>
  <property name="kdenlive:original.seekable">1</property>
  <property name="kdenlive:original.width">3840</property>
  <property name="kdenlive:original.height">2160</property>
  <property name="kdenlive:original.meta.media.sample_aspect_num">1</property>
  <property name="kdenlive:original.meta.media.sample_aspect_den">1</property>
  <property name="kdenlive:original.aspect_ratio">1</property>
  <property name="kdenlive:original.audio_index">-1</property>
  <property name="kdenlive:original.video_index">0</property>
  <property name="kdenlive:original.mute_on_pause">0</property>
  <property name="kdenlive:original.mlt_service">avformat-novalidate</property>
  <property name="kdenlive:original.kdenlive:folderid">240</property>
  <property name="kdenlive:original.meta.media.frame_rate_num">60</property>
  <property name="kdenlive:original.meta.media.frame_rate_den">1</property>
  <property name="kdenlive:original.meta.media.colorspace">709</property>
  <property name="kdenlive:original.meta.media.color_trc">2</property>
  <property name="kdenlive:original.meta.media.has_b_frames">2</property>
  <property name="kdenlive:original.meta.media.width">3840</property>
  <property name="kdenlive:original.meta.media.height">2160</property>
  <property name="kdenlive:original.meta.media.color_range">mpeg</property>
  <property name="kdenlive:original.kdenlive:id">253</property>
  <property name="kdenlive:original.kdenlive:file_size">144902</property>
  <property name="kdenlive:original.kdenlive:file_hash">58366813f681daf23beff1b2e47aadbf</property>
  <property name="kdenlive:original.backup">1</property>
  <property name="kdenlive:file_hash">58366813f681daf23beff1b2e47aadbf</property>
  <property name="meta.media.nb_streams">1</property>
  <property name="meta.media.0.stream.type">video</property>
  <property name="meta.media.0.stream.frame_rate">60</property>
  <property name="meta.media.0.stream.sample_aspect_ratio">0</property>
  <property name="meta.media.0.codec.width">640</property>
  <property name="meta.media.0.codec.height">360</property>
  <property name="meta.media.0.codec.rotate">0</property>
  <property name="meta.media.0.codec.pix_fmt">yuv420p</property>
  <property name="meta.media.0.codec.sample_aspect_ratio">0</property>
  <property name="meta.media.0.codec.colorspace">601</property>
  <property name="meta.media.0.codec.name">h264</property>
  <property name="meta.media.0.codec.long_name">H.264 / AVC / MPEG-4 AVC / MPEG-4 part 10</property>
  <property name="meta.media.0.codec.bit_rate">4311616</property>
  <property name="meta.attr.0.stream.handler_name.markup">VideoHandler</property>
  <property name="meta.attr.0.stream.vendor_id.markup">FFMP</property>
  <property name="meta.attr.0.stream.encoder.markup">Lavc58.134.100 libx264</property>
  <property name="meta.attr.major_brand.markup">qt  </property>
  <property name="meta.attr.minor_version.markup">512</property>
  <property name="meta.attr.compatible_brands.markup">qt  </property>
  <property name="meta.attr.encoder.markup">Lavf58.76.100</property>
  <property name="meta.attr.comment.markup">Rendered with Manim Community v0.12.0</property>
  <property name="meta.media.sample_aspect_num">1</property>
  <property name="meta.media.sample_aspect_den">1</property>
  <property name="meta.media.frame_rate_num">60</property>
  <property name="meta.media.frame_rate_den">1</property>
  <property name="meta.media.colorspace">601</property>
  <property name="meta.media.color_trc">2</property>
  <property name="meta.media.has_b_frames">0</property>
  <property name="meta.media.width">640</property>
  <property name="meta.media.height">360</property>
  <property name="meta.media.color_range">mpeg</property>
 </producer>
 <producer id="producer227" in="00:00:00.000" out="00:00:00.983">
  <property name="length">60</property>
  <property name="eof">pause</property>
  <property name="resource">/home/xiaoxiae/.cache/kdenlive/proxy/bcdda3ad7ddcdbf41bfbc0d222f72b9d.mov</property>
  <property name="audio_index">-1</property>
  <property name="video_index">0</property>
  <property name="mute_on_pause">0</property>
  <property name="mlt_service">avformat-novalidate</property>
  <property name="seekable">1</property>
  <property name="aspect_ratio">1</property>
  <property name="kdenlive:clipname">21.mp4</property>
  <property name="kdenlive:folderid">240</property>
  <property name="kdenlive:id">253</property>
  <property name="kdenlive:file_size">198757</property>
  <property name="kdenlive:proxy">/home/xiaoxiae/.cache/kdenlive/proxy/bcdda3ad7ddcdbf41bfbc0d222f72b9d.mov</property>
  <property name="kdenlive:originalurl">video/ParenthesesExample/vid/21.mp4</property>
  <property name="kdenlive:original.mlt_type">producer</property>
  <property name="kdenlive:original.in">0</property>
  <property name="kdenlive:original.out">59</property>
  <property name="kdenlive:original.length">60</property>
  <property name="kdenlive:original.eof">pause</property>
  <property name="kdenlive:original.resource">video/ParenthesesExample/vid/21.mp4</property>
  <property name="kdenlive:original.meta.media.nb_streams">1</property>
  <property name="kdenlive:original.meta.media.0.stream.type">video</property>
  <property name="kdenlive:original.meta.media.0.stream.frame_rate">60</property>
  <property name="kdenlive:original.meta.media.0.stream.sample_aspect_ratio">0</property>
  <property name="kdenlive:original.meta.media.0.codec.width">3840</property>
  <property name="kdenlive:original.meta.media.0.codec.height">2160</property>
  <property name="kdenlive:original.meta.media.0.codec.rotate">0</property>
  <property name="kdenlive:original.meta.media.0.codec.pix_fmt">yuv420p</property>
  <property name="kdenlive:original.meta.media.0.codec.sample_aspect_ratio">0</property>
  <property name="kdenlive:original.meta.media.0.codec.colorspace">709</property>
  <property name="kdenlive:original.meta.media.0.codec.name">h264</property>
  <property name="kdenlive:original.meta.media.0.codec.long_name">H.264 / AVC / MPEG-4 AVC / MPEG-4 part 10</property>
  <property name="kdenlive:original.meta.media.0.codec.bit_rate">1577192</property>
  <property name="kdenlive:original.meta.attr.0.stream.handler_name.markup">VideoHandler</property>
  <property name="kdenlive:original.meta.attr.0.stream.vendor_id.markup">[0][0][0][0]</property>
  <property name="kdenlive:original.meta.attr.major_brand.markup">isom</property>
  <property name="kdenlive:original.meta.attr.minor_version.markup">512</property>
  <property name="kdenlive:original.meta.attr.compatible_brands.markup">isomiso2avc1mp41</property>
  <property name="kdenlive:original.meta.attr.encoder.markup">Lavf58.76.100</property>
  <property name="kdenlive:original.meta.attr.comment.markup">Rendered with Manim Community v0.12.0</property>
  <property name="kdenlive:original.seekable">1</property>
  <property name="kdenlive:original.width">3840</property>
  <property name="kdenlive:original.height">2160</property>
  <property name="kdenlive:original.meta.media.sample_aspect_num">1</property>
  <property name="kdenlive:original.meta.media.sample_aspect_den">1</property>
  <property name="kdenlive:original.aspect_ratio">1</property>
  <property name="kdenlive:original.audio_index">-1</property>
  <property name="kdenlive:original.video_index">0</property>
  <property name="kdenlive:original.mute_on_pause">0</property>
  <property name="kdenlive:original.mlt_service">avformat-novalidate</property>
  <property name="kdenlive:original.kdenlive:folderid">240</property>
  <property name="kdenlive:original.meta.media.frame_rate_num">60</property>
  <property name="kdenlive:original.meta.media.frame_rate_den">1</property>
  <property name="kdenlive:original.meta.media.colorspace">709</property>
  <property name="kdenlive:original.meta.media.color_trc">2</property>
  <property name="kdenlive:original.meta.media.has_b_frames">2</property>
  <property name="kdenlive:original.meta.media.width">3840</property>
  <property name="kdenlive:original.meta.media.height">2160</property>
  <property name="kdenlive:original.meta.media.color_range">mpeg</property>
  <property name="kdenlive:original.kdenlive:id">254</property>
  <property name="kdenlive:original.kdenlive:file_size">198757</property>
  <property name="kdenlive:original.kdenlive:file_hash">bcdda3ad7ddcdbf41bfbc0d222f72b9d</property>
  <property name="kdenlive:original.backup">1</property>
  <property name="kdenlive:file_hash">bcdda3ad7ddcdbf41bfbc0d222f72b9d</property>
  <property name="meta.media.nb_streams">1</property>
  <property name="meta.media.0.stream.type">video</property>
  <property name="meta.media.0.stream.frame_rate">60</property>
  <property name="meta.media.0.stream.sample_aspect_ratio">0</property>
  <property name="meta.media.0.codec.width">640</property>
  <property name="meta.media.0.codec.height">360</property>
  <property name="meta.media.0.codec.rotate">0</property>
  <property name="meta.media.0.codec.pix_fmt">yuv420p</property>
  <property name="meta.media.0.codec.sample_aspect_ratio">0</property>
  <property name="meta.media.0.codec.colorspace">601</property>
  <property name="meta.media.0.codec.name">h264</property>
  <property name="meta.media.0.codec.long_name">H.264 / AVC / MPEG-4 AVC / MPEG-4 part 10</property>
  <property name="meta.media.0.codec.bit_rate">4509168</property>
  <property name="meta.attr.0.stream.handler_name.markup">VideoHandler</property>
  <property name="meta.attr.0.stream.vendor_id.markup">FFMP</property>
  <property name="meta.attr.0.stream.encoder.markup">Lavc58.134.100 libx264</property>
  <property name="meta.attr.major_brand.markup">qt  </property>
  <property name="meta.attr.minor_version.markup">512</property>
  <property name="meta.attr.compatible_brands.markup">qt  </property>
  <property name="meta.attr.encoder.markup">Lavf58.76.100</property>
  <property name="meta.attr.comment.markup">Rendered with Manim Community v0.12.0</property>
  <property name="meta.media.sample_aspect_num">1</property>
  <property name="meta.media.sample_aspect_den">1</property>
  <property name="meta.media.frame_rate_num">60</property>
  <property name="meta.media.frame_rate_den">1</property>
  <property name="meta.media.colorspace">601</property>
  <property name="meta.media.color_trc">2</property>
  <property name="meta.media.has_b_frames">0</property>
  <property name="meta.media.width">640</property>
  <property name="meta.media.height">360</property>
  <property name="meta.media.color_range">mpeg</property>
 </producer>
 <producer id="producer228" in="00:00:00.000" out="00:00:00.983">
  <property name="length">60</property>
  <property name="eof">pause</property>
  <property name="resource">/home/xiaoxiae/.cache/kdenlive/proxy/75d54634a11093205609a25a5b856a5e.mov</property>
  <property name="audio_index">-1</property>
  <property name="video_index">0</property>
  <property name="mute_on_pause">0</property>
  <property name="mlt_service">avformat-novalidate</property>
  <property name="seekable">1</property>
  <property name="aspect_ratio">1</property>
  <property name="kdenlive:clipname">22.mp4</property>
  <property name="kdenlive:folderid">240</property>
  <property name="kdenlive:id">254</property>
  <property name="kdenlive:file_size">716872</property>
  <property name="kdenlive:proxy">/home/xiaoxiae/.cache/kdenlive/proxy/75d54634a11093205609a25a5b856a5e.mov</property>
  <property name="kdenlive:originalurl">video/ParenthesesExample/vid/22.mp4</property>
  <property name="kdenlive:original.mlt_type">producer</property>
  <property name="kdenlive:original.in">0</property>
  <property name="kdenlive:original.out">59</property>
  <property name="kdenlive:original.length">60</property>
  <property name="kdenlive:original.eof">pause</property>
  <property name="kdenlive:original.resource">video/ParenthesesExample/vid/22.mp4</property>
  <property name="kdenlive:original.meta.media.nb_streams">1</property>
  <property name="kdenlive:original.meta.media.0.stream.type">video</property>
  <property name="kdenlive:original.meta.media.0.stream.frame_rate">60</property>
  <property name="kdenlive:original.meta.media.0.stream.sample_aspect_ratio">0</property>
  <property name="kdenlive:original.meta.media.0.codec.width">3840</property>
  <property name="kdenlive:original.meta.media.0.codec.height">2160</property>
  <property name="kdenlive:original.meta.media.0.codec.rotate">0</property>
  <property name="kdenlive:original.meta.media.0.codec.pix_fmt">yuv420p</property>
  <property name="kdenlive:original.meta.media.0.codec.sample_aspect_ratio">0</property>
  <property name="kdenlive:original.meta.media.0.codec.colorspace">709</property>
  <property name="kdenlive:original.meta.media.0.codec.name">h264</property>
  <property name="kdenlive:original.meta.media.0.codec.long_name">H.264 / AVC / MPEG-4 AVC / MPEG-4 part 10</property>
  <property name="kdenlive:original.meta.media.0.codec.bit_rate">5723392</property>
  <property name="kdenlive:original.meta.attr.0.stream.handler_name.markup">VideoHandler</property>
  <property name="kdenlive:original.meta.attr.0.stream.vendor_id.markup">[0][0][0][0]</property>
  <property name="kdenlive:original.meta.attr.major_brand.markup">isom</property>
  <property name="kdenlive:original.meta.attr.minor_version.markup">512</property>
  <property name="kdenlive:original.meta.attr.compatible_brands.markup">isomiso2avc1mp41</property>
  <property name="kdenlive:original.meta.attr.encoder.markup">Lavf58.76.100</property>
  <property name="kdenlive:original.meta.attr.comment.markup">Rendered with Manim Community v0.12.0</property>
  <property name="kdenlive:original.seekable">1</property>
  <property name="kdenlive:original.width">3840</property>
  <property name="kdenlive:original.height">2160</property>
  <property name="kdenlive:original.meta.media.sample_aspect_num">1</property>
  <property name="kdenlive:original.meta.media.sample_aspect_den">1</property>
  <property name="kdenlive:original.aspect_ratio">1</property>
  <property name="kdenlive:original.audio_index">-1</property>
  <property name="kdenlive:original.video_index">0</property>
  <property name="kdenlive:original.mute_on_pause">0</property>
  <property name="kdenlive:original.mlt_service">avformat-novalidate</property>
  <property name="kdenlive:original.kdenlive:folderid">240</property>
  <property name="kdenlive:original.meta.media.frame_rate_num">60</property>
  <property name="kdenlive:original.meta.media.frame_rate_den">1</property>
  <property name="kdenlive:original.meta.media.colorspace">709</property>
  <property name="kdenlive:original.meta.media.color_trc">2</property>
  <property name="kdenlive:original.meta.media.has_b_frames">2</property>
  <property name="kdenlive:original.meta.media.width">3840</property>
  <property name="kdenlive:original.meta.media.height">2160</property>
  <property name="kdenlive:original.meta.media.color_range">mpeg</property>
  <property name="kdenlive:original.kdenlive:id">255</property>
  <property name="kdenlive:original.kdenlive:file_size">716872</property>
  <property name="kdenlive:original.kdenlive:file_hash">75d54634a11093205609a25a5b856a5e</property>
  <property name="kdenlive:original.backup">1</property>
  <property name="kdenlive:file_hash">75d54634a11093205609a25a5b856a5e</property>
  <property name="meta.media.nb_streams">1</property>
  <property name="meta.media.0.stream.type">video</property>
  <property name="meta.media.0.stream.frame_rate">60</property>
  <property name="meta.media.0.stream.sample_aspect_ratio">0</property>
  <property name="meta.media.0.codec.width">640</property>
  <property name="meta.media.0.codec.height">360</property>
  <property name="meta.media.0.codec.rotate">0</property>
  <property name="meta.media.0.codec.pix_fmt">yuv420p</property>
  <property name="meta.media.0.codec.sample_aspect_ratio">0</property>
  <property name="meta.media.0.codec.colorspace">601</property>
  <property name="meta.media.0.codec.name">h264</property>
  <property name="meta.media.0.codec.long_name">H.264 / AVC / MPEG-4 AVC / MPEG-4 part 10</property>
  <property name="meta.media.0.codec.bit_rate">3781352</property>
  <property name="meta.attr.0.stream.handler_name.markup">VideoHandler</property>
  <property name="meta.attr.0.stream.vendor_id.markup">FFMP</property>
  <property name="meta.attr.0.stream.encoder.markup">Lavc58.134.100 libx264</property>
  <property name="meta.attr.major_brand.markup">qt  </property>
  <property name="meta.attr.minor_version.markup">512</property>
  <property name="meta.attr.compatible_brands.markup">qt  </property>
  <property name="meta.attr.encoder.markup">Lavf58.76.100</property>
  <property name="meta.attr.comment.markup">Rendered with Manim Community v0.12.0</property>
  <property name="meta.media.sample_aspect_num">1</property>
  <property name="meta.media.sample_aspect_den">1</property>
  <property name="meta.media.frame_rate_num">60</property>
  <property name="meta.media.frame_rate_den">1</property>
  <property name="meta.media.colorspace">601</property>
  <property name="meta.media.color_trc">2</property>
  <property name="meta.media.has_b_frames">0</property>
  <property name="meta.media.width">640</property>
  <property name="meta.media.height">360</property>
  <property name="meta.media.color_range">mpeg</property>
 </producer>
 <producer id="producer230" in="00:00:00.000" out="00:00:00.983">
  <property name="length">60</property>
  <property name="eof">pause</property>
  <property name="resource">/home/xiaoxiae/.cache/kdenlive/proxy/46afb54b4abb7fcd5807c9cc2c951fac.mov</property>
  <property name="audio_index">-1</property>
  <property name="video_index">0</property>
  <property name="mute_on_pause">0</property>
  <property name="mlt_service">avformat-novalidate</property>
  <property name="seekable">1</property>
  <property name="aspect_ratio">1</property>
  <property name="kdenlive:clipname">23.mp4</property>
  <property name="kdenlive:folderid">240</property>
  <property name="kdenlive:id">255</property>
  <property name="kdenlive:file_size">149113</property>
  <property name="kdenlive:proxy">/home/xiaoxiae/.cache/kdenlive/proxy/46afb54b4abb7fcd5807c9cc2c951fac.mov</property>
  <property name="kdenlive:originalurl">video/ParenthesesExample/vid/23.mp4</property>
  <property name="kdenlive:original.mlt_type">producer</property>
  <property name="kdenlive:original.in">0</property>
  <property name="kdenlive:original.out">59</property>
  <property name="kdenlive:original.length">60</property>
  <property name="kdenlive:original.eof">pause</property>
  <property name="kdenlive:original.resource">video/ParenthesesExample/vid/23.mp4</property>
  <property name="kdenlive:original.meta.media.nb_streams">1</property>
  <property name="kdenlive:original.meta.media.0.stream.type">video</property>
  <property name="kdenlive:original.meta.media.0.stream.frame_rate">60</property>
  <property name="kdenlive:original.meta.media.0.stream.sample_aspect_ratio">0</property>
  <property name="kdenlive:original.meta.media.0.codec.width">3840</property>
  <property name="kdenlive:original.meta.media.0.codec.height">2160</property>
  <property name="kdenlive:original.meta.media.0.codec.rotate">0</property>
  <property name="kdenlive:original.meta.media.0.codec.pix_fmt">yuv420p</property>
  <property name="kdenlive:original.meta.media.0.codec.sample_aspect_ratio">0</property>
  <property name="kdenlive:original.meta.media.0.codec.colorspace">709</property>
  <property name="kdenlive:original.meta.media.0.codec.name">h264</property>
  <property name="kdenlive:original.meta.media.0.codec.long_name">H.264 / AVC / MPEG-4 AVC / MPEG-4 part 10</property>
  <property name="kdenlive:original.meta.media.0.codec.bit_rate">1180104</property>
  <property name="kdenlive:original.meta.attr.0.stream.handler_name.markup">VideoHandler</property>
  <property name="kdenlive:original.meta.attr.0.stream.vendor_id.markup">[0][0][0][0]</property>
  <property name="kdenlive:original.meta.attr.major_brand.markup">isom</property>
  <property name="kdenlive:original.meta.attr.minor_version.markup">512</property>
  <property name="kdenlive:original.meta.attr.compatible_brands.markup">isomiso2avc1mp41</property>
  <property name="kdenlive:original.meta.attr.encoder.markup">Lavf58.76.100</property>
  <property name="kdenlive:original.meta.attr.comment.markup">Rendered with Manim Community v0.12.0</property>
  <property name="kdenlive:original.seekable">1</property>
  <property name="kdenlive:original.width">3840</property>
  <property name="kdenlive:original.height">2160</property>
  <property name="kdenlive:original.meta.media.sample_aspect_num">1</property>
  <property name="kdenlive:original.meta.media.sample_aspect_den">1</property>
  <property name="kdenlive:original.aspect_ratio">1</property>
  <property name="kdenlive:original.audio_index">-1</property>
  <property name="kdenlive:original.video_index">0</property>
  <property name="kdenlive:original.mute_on_pause">0</property>
  <property name="kdenlive:original.mlt_service">avformat-novalidate</property>
  <property name="kdenlive:original.kdenlive:folderid">240</property>
  <property name="kdenlive:original.meta.media.frame_rate_num">60</property>
  <property name="kdenlive:original.meta.media.frame_rate_den">1</property>
  <property name="kdenlive:original.meta.media.colorspace">709</property>
  <property name="kdenlive:original.meta.media.color_trc">2</property>
  <property name="kdenlive:original.meta.media.has_b_frames">2</property>
  <property name="kdenlive:original.meta.media.width">3840</property>
  <property name="kdenlive:original.meta.media.height">2160</property>
  <property name="kdenlive:original.meta.media.color_range">mpeg</property>
  <property name="kdenlive:original.kdenlive:id">256</property>
  <property name="kdenlive:original.kdenlive:file_size">149113</property>
  <property name="kdenlive:original.kdenlive:file_hash">46afb54b4abb7fcd5807c9cc2c951fac</property>
  <property name="kdenlive:original.backup">1</property>
  <property name="kdenlive:file_hash">46afb54b4abb7fcd5807c9cc2c951fac</property>
  <property name="meta.media.nb_streams">1</property>
  <property name="meta.media.0.stream.type">video</property>
  <property name="meta.media.0.stream.frame_rate">60</property>
  <property name="meta.media.0.stream.sample_aspect_ratio">0</property>
  <property name="meta.media.0.codec.width">640</property>
  <property name="meta.media.0.codec.height">360</property>
  <property name="meta.media.0.codec.rotate">0</property>
  <property name="meta.media.0.codec.pix_fmt">yuv420p</property>
  <property name="meta.media.0.codec.sample_aspect_ratio">0</property>
  <property name="meta.media.0.codec.colorspace">601</property>
  <property name="meta.media.0.codec.name">h264</property>
  <property name="meta.media.0.codec.long_name">H.264 / AVC / MPEG-4 AVC / MPEG-4 part 10</property>
  <property name="meta.media.0.codec.bit_rate">2292744</property>
  <property name="meta.attr.0.stream.handler_name.markup">VideoHandler</property>
  <property name="meta.attr.0.stream.vendor_id.markup">FFMP</property>
  <property name="meta.attr.0.stream.encoder.markup">Lavc58.134.100 libx264</property>
  <property name="meta.attr.major_brand.markup">qt  </property>
  <property name="meta.attr.minor_version.markup">512</property>
  <property name="meta.attr.compatible_brands.markup">qt  </property>
  <property name="meta.attr.encoder.markup">Lavf58.76.100</property>
  <property name="meta.attr.comment.markup">Rendered with Manim Community v0.12.0</property>
  <property name="meta.media.sample_aspect_num">1</property>
  <property name="meta.media.sample_aspect_den">1</property>
  <property name="meta.media.frame_rate_num">60</property>
  <property name="meta.media.frame_rate_den">1</property>
  <property name="meta.media.colorspace">601</property>
  <property name="meta.media.color_trc">2</property>
  <property name="meta.media.has_b_frames">0</property>
  <property name="meta.media.width">640</property>
  <property name="meta.media.height">360</property>
  <property name="meta.media.color_range">mpeg</property>
 </producer>
 <producer id="producer229" in="00:00:00.000" out="00:00:00.983">
  <property name="length">60</property>
  <property name="eof">pause</property>
  <property name="resource">/home/xiaoxiae/.cache/kdenlive/proxy/df6e80f3e8b887d4b013aceb8b391b29.mov</property>
  <property name="audio_index">-1</property>
  <property name="video_index">0</property>
  <property name="mute_on_pause">0</property>
  <property name="mlt_service">avformat-novalidate</property>
  <property name="seekable">1</property>
  <property name="aspect_ratio">1</property>
  <property name="kdenlive:clipname">24.mp4</property>
  <property name="kdenlive:folderid">240</property>
  <property name="kdenlive:id">256</property>
  <property name="kdenlive:file_size">79103</property>
  <property name="kdenlive:proxy">/home/xiaoxiae/.cache/kdenlive/proxy/df6e80f3e8b887d4b013aceb8b391b29.mov</property>
  <property name="kdenlive:originalurl">video/ParenthesesExample/vid/24.mp4</property>
  <property name="kdenlive:original.mlt_type">producer</property>
  <property name="kdenlive:original.in">0</property>
  <property name="kdenlive:original.out">59</property>
  <property name="kdenlive:original.length">60</property>
  <property name="kdenlive:original.eof">pause</property>
  <property name="kdenlive:original.resource">video/ParenthesesExample/vid/24.mp4</property>
  <property name="kdenlive:original.meta.media.nb_streams">1</property>
  <property name="kdenlive:original.meta.media.0.stream.type">video</property>
  <property name="kdenlive:original.meta.media.0.stream.frame_rate">60</property>
  <property name="kdenlive:original.meta.media.0.stream.sample_aspect_ratio">0</property>
  <property name="kdenlive:original.meta.media.0.codec.width">3840</property>
  <property name="kdenlive:original.meta.media.0.codec.height">2160</property>
  <property name="kdenlive:original.meta.media.0.codec.rotate">0</property>
  <property name="kdenlive:original.meta.media.0.codec.pix_fmt">yuv420p</property>
  <property name="kdenlive:original.meta.media.0.codec.sample_aspect_ratio">0</property>
  <property name="kdenlive:original.meta.media.0.codec.colorspace">709</property>
  <property name="kdenlive:original.meta.media.0.codec.name">h264</property>
  <property name="kdenlive:original.meta.media.0.codec.long_name">H.264 / AVC / MPEG-4 AVC / MPEG-4 part 10</property>
  <property name="kdenlive:original.meta.media.0.codec.bit_rate">619768</property>
  <property name="kdenlive:original.meta.attr.0.stream.handler_name.markup">VideoHandler</property>
  <property name="kdenlive:original.meta.attr.0.stream.vendor_id.markup">[0][0][0][0]</property>
  <property name="kdenlive:original.meta.attr.major_brand.markup">isom</property>
  <property name="kdenlive:original.meta.attr.minor_version.markup">512</property>
  <property name="kdenlive:original.meta.attr.compatible_brands.markup">isomiso2avc1mp41</property>
  <property name="kdenlive:original.meta.attr.encoder.markup">Lavf58.76.100</property>
  <property name="kdenlive:original.meta.attr.comment.markup">Rendered with Manim Community v0.12.0</property>
  <property name="kdenlive:original.seekable">1</property>
  <property name="kdenlive:original.width">3840</property>
  <property name="kdenlive:original.height">2160</property>
  <property name="kdenlive:original.meta.media.sample_aspect_num">1</property>
  <property name="kdenlive:original.meta.media.sample_aspect_den">1</property>
  <property name="kdenlive:original.aspect_ratio">1</property>
  <property name="kdenlive:original.audio_index">-1</property>
  <property name="kdenlive:original.video_index">0</property>
  <property name="kdenlive:original.mute_on_pause">0</property>
  <property name="kdenlive:original.mlt_service">avformat-novalidate</property>
  <property name="kdenlive:original.kdenlive:folderid">240</property>
  <property name="kdenlive:original.meta.media.frame_rate_num">60</property>
  <property name="kdenlive:original.meta.media.frame_rate_den">1</property>
  <property name="kdenlive:original.meta.media.colorspace">709</property>
  <property name="kdenlive:original.meta.media.color_trc">2</property>
  <property name="kdenlive:original.meta.media.has_b_frames">2</property>
  <property name="kdenlive:original.meta.media.width">3840</property>
  <property name="kdenlive:original.meta.media.height">2160</property>
  <property name="kdenlive:original.meta.media.color_range">mpeg</property>
  <property name="kdenlive:original.kdenlive:id">257</property>
  <property name="kdenlive:original.kdenlive:file_size">79103</property>
  <property name="kdenlive:original.kdenlive:file_hash">df6e80f3e8b887d4b013aceb8b391b29</property>
  <property name="kdenlive:original.backup">1</property>
  <property name="kdenlive:file_hash">df6e80f3e8b887d4b013aceb8b391b29</property>
  <property name="meta.media.nb_streams">1</property>
  <property name="meta.media.0.stream.type">video</property>
  <property name="meta.media.0.stream.frame_rate">60</property>
  <property name="meta.media.0.stream.sample_aspect_ratio">0</property>
  <property name="meta.media.0.codec.width">640</property>
  <property name="meta.media.0.codec.height">360</property>
  <property name="meta.media.0.codec.rotate">0</property>
  <property name="meta.media.0.codec.pix_fmt">yuv420p</property>
  <property name="meta.media.0.codec.sample_aspect_ratio">0</property>
  <property name="meta.media.0.codec.colorspace">601</property>
  <property name="meta.media.0.codec.name">h264</property>
  <property name="meta.media.0.codec.long_name">H.264 / AVC / MPEG-4 AVC / MPEG-4 part 10</property>
  <property name="meta.media.0.codec.bit_rate">2707016</property>
  <property name="meta.attr.0.stream.handler_name.markup">VideoHandler</property>
  <property name="meta.attr.0.stream.vendor_id.markup">FFMP</property>
  <property name="meta.attr.0.stream.encoder.markup">Lavc58.134.100 libx264</property>
  <property name="meta.attr.major_brand.markup">qt  </property>
  <property name="meta.attr.minor_version.markup">512</property>
  <property name="meta.attr.compatible_brands.markup">qt  </property>
  <property name="meta.attr.encoder.markup">Lavf58.76.100</property>
  <property name="meta.attr.comment.markup">Rendered with Manim Community v0.12.0</property>
  <property name="meta.media.sample_aspect_num">1</property>
  <property name="meta.media.sample_aspect_den">1</property>
  <property name="meta.media.frame_rate_num">60</property>
  <property name="meta.media.frame_rate_den">1</property>
  <property name="meta.media.colorspace">601</property>
  <property name="meta.media.color_trc">2</property>
  <property name="meta.media.has_b_frames">0</property>
  <property name="meta.media.width">640</property>
  <property name="meta.media.height">360</property>
  <property name="meta.media.color_range">mpeg</property>
 </producer>
 <producer id="producer231" in="00:00:00.000" out="00:00:00.633">
  <property name="length">39</property>
  <property name="eof">pause</property>
  <property name="resource">/home/xiaoxiae/.cache/kdenlive/proxy/4fd8daa9fca6fa00835982dbde80805f.mov</property>
  <property name="audio_index">-1</property>
  <property name="video_index">0</property>
  <property name="mute_on_pause">0</property>
  <property name="mlt_service">avformat-novalidate</property>
  <property name="seekable">1</property>
  <property name="aspect_ratio">1</property>
  <property name="kdenlive:clipname">3.mp4</property>
  <property name="kdenlive:folderid">240</property>
  <property name="kdenlive:id">257</property>
  <property name="kdenlive:file_size">50438</property>
  <property name="kdenlive:proxy">/home/xiaoxiae/.cache/kdenlive/proxy/4fd8daa9fca6fa00835982dbde80805f.mov</property>
  <property name="kdenlive:originalurl">video/ParenthesesExample/vid/3.mp4</property>
  <property name="kdenlive:original.mlt_type">producer</property>
  <property name="kdenlive:original.in">0</property>
  <property name="kdenlive:original.out">38</property>
  <property name="kdenlive:original.length">39</property>
  <property name="kdenlive:original.eof">pause</property>
  <property name="kdenlive:original.resource">video/ParenthesesExample/vid/3.mp4</property>
  <property name="kdenlive:original.meta.media.nb_streams">1</property>
  <property name="kdenlive:original.meta.media.0.stream.type">video</property>
  <property name="kdenlive:original.meta.media.0.stream.frame_rate">60</property>
  <property name="kdenlive:original.meta.media.0.stream.sample_aspect_ratio">0</property>
  <property name="kdenlive:original.meta.media.0.codec.width">3840</property>
  <property name="kdenlive:original.meta.media.0.codec.height">2160</property>
  <property name="kdenlive:original.meta.media.0.codec.rotate">0</property>
  <property name="kdenlive:original.meta.media.0.codec.pix_fmt">yuv420p</property>
  <property name="kdenlive:original.meta.media.0.codec.sample_aspect_ratio">0</property>
  <property name="kdenlive:original.meta.media.0.codec.colorspace">709</property>
  <property name="kdenlive:original.meta.media.0.codec.name">h264</property>
  <property name="kdenlive:original.meta.media.0.codec.long_name">H.264 / AVC / MPEG-4 AVC / MPEG-4 part 10</property>
  <property name="kdenlive:original.meta.media.0.codec.bit_rate">603692</property>
  <property name="kdenlive:original.meta.attr.0.stream.handler_name.markup">VideoHandler</property>
  <property name="kdenlive:original.meta.attr.0.stream.vendor_id.markup">[0][0][0][0]</property>
  <property name="kdenlive:original.meta.attr.major_brand.markup">isom</property>
  <property name="kdenlive:original.meta.attr.minor_version.markup">512</property>
  <property name="kdenlive:original.meta.attr.compatible_brands.markup">isomiso2avc1mp41</property>
  <property name="kdenlive:original.meta.attr.encoder.markup">Lavf58.76.100</property>
  <property name="kdenlive:original.meta.attr.comment.markup">Rendered with Manim Community v0.12.0</property>
  <property name="kdenlive:original.seekable">1</property>
  <property name="kdenlive:original.width">3840</property>
  <property name="kdenlive:original.height">2160</property>
  <property name="kdenlive:original.meta.media.sample_aspect_num">1</property>
  <property name="kdenlive:original.meta.media.sample_aspect_den">1</property>
  <property name="kdenlive:original.aspect_ratio">1</property>
  <property name="kdenlive:original.audio_index">-1</property>
  <property name="kdenlive:original.video_index">0</property>
  <property name="kdenlive:original.mute_on_pause">0</property>
  <property name="kdenlive:original.mlt_service">avformat-novalidate</property>
  <property name="kdenlive:original.kdenlive:folderid">240</property>
  <property name="kdenlive:original.meta.media.frame_rate_num">60</property>
  <property name="kdenlive:original.meta.media.frame_rate_den">1</property>
  <property name="kdenlive:original.meta.media.colorspace">709</property>
  <property name="kdenlive:original.meta.media.color_trc">2</property>
  <property name="kdenlive:original.meta.media.has_b_frames">2</property>
  <property name="kdenlive:original.meta.media.width">3840</property>
  <property name="kdenlive:original.meta.media.height">2160</property>
  <property name="kdenlive:original.meta.media.color_range">mpeg</property>
  <property name="kdenlive:original.kdenlive:id">258</property>
  <property name="kdenlive:original.kdenlive:file_size">50438</property>
  <property name="kdenlive:original.kdenlive:file_hash">4fd8daa9fca6fa00835982dbde80805f</property>
  <property name="kdenlive:original.backup">1</property>
  <property name="kdenlive:file_hash">4fd8daa9fca6fa00835982dbde80805f</property>
  <property name="meta.media.nb_streams">1</property>
  <property name="meta.media.0.stream.type">video</property>
  <property name="meta.media.0.stream.frame_rate">60</property>
  <property name="meta.media.0.stream.sample_aspect_ratio">0</property>
  <property name="meta.media.0.codec.width">640</property>
  <property name="meta.media.0.codec.height">360</property>
  <property name="meta.media.0.codec.rotate">0</property>
  <property name="meta.media.0.codec.pix_fmt">yuv420p</property>
  <property name="meta.media.0.codec.sample_aspect_ratio">0</property>
  <property name="meta.media.0.codec.colorspace">601</property>
  <property name="meta.media.0.codec.name">h264</property>
  <property name="meta.media.0.codec.long_name">H.264 / AVC / MPEG-4 AVC / MPEG-4 part 10</property>
  <property name="meta.media.0.codec.bit_rate">1889440</property>
  <property name="meta.attr.0.stream.handler_name.markup">VideoHandler</property>
  <property name="meta.attr.0.stream.vendor_id.markup">FFMP</property>
  <property name="meta.attr.0.stream.encoder.markup">Lavc58.134.100 libx264</property>
  <property name="meta.attr.major_brand.markup">qt  </property>
  <property name="meta.attr.minor_version.markup">512</property>
  <property name="meta.attr.compatible_brands.markup">qt  </property>
  <property name="meta.attr.encoder.markup">Lavf58.76.100</property>
  <property name="meta.attr.comment.markup">Rendered with Manim Community v0.12.0</property>
  <property name="meta.media.sample_aspect_num">1</property>
  <property name="meta.media.sample_aspect_den">1</property>
  <property name="meta.media.frame_rate_num">60</property>
  <property name="meta.media.frame_rate_den">1</property>
  <property name="meta.media.colorspace">601</property>
  <property name="meta.media.color_trc">2</property>
  <property name="meta.media.has_b_frames">0</property>
  <property name="meta.media.width">640</property>
  <property name="meta.media.height">360</property>
  <property name="meta.media.color_range">mpeg</property>
 </producer>
 <producer id="producer232" in="00:00:00.000" out="00:00:00.983">
  <property name="length">60</property>
  <property name="eof">pause</property>
  <property name="resource">/home/xiaoxiae/.cache/kdenlive/proxy/9acb32fb6c3b6e5ab3333dd46d39e76e.mov</property>
  <property name="audio_index">-1</property>
  <property name="video_index">0</property>
  <property name="mute_on_pause">0</property>
  <property name="mlt_service">avformat-novalidate</property>
  <property name="seekable">1</property>
  <property name="aspect_ratio">1</property>
  <property name="kdenlive:clipname">4.mp4</property>
  <property name="kdenlive:folderid">240</property>
  <property name="kdenlive:id">258</property>
  <property name="kdenlive:file_size">401130</property>
  <property name="kdenlive:proxy">/home/xiaoxiae/.cache/kdenlive/proxy/9acb32fb6c3b6e5ab3333dd46d39e76e.mov</property>
  <property name="kdenlive:originalurl">video/ParenthesesExample/vid/4.mp4</property>
  <property name="kdenlive:original.mlt_type">producer</property>
  <property name="kdenlive:original.in">0</property>
  <property name="kdenlive:original.out">59</property>
  <property name="kdenlive:original.length">60</property>
  <property name="kdenlive:original.eof">pause</property>
  <property name="kdenlive:original.resource">video/ParenthesesExample/vid/4.mp4</property>
  <property name="kdenlive:original.meta.media.nb_streams">1</property>
  <property name="kdenlive:original.meta.media.0.stream.type">video</property>
  <property name="kdenlive:original.meta.media.0.stream.frame_rate">60</property>
  <property name="kdenlive:original.meta.media.0.stream.sample_aspect_ratio">0</property>
  <property name="kdenlive:original.meta.media.0.codec.width">3840</property>
  <property name="kdenlive:original.meta.media.0.codec.height">2160</property>
  <property name="kdenlive:original.meta.media.0.codec.rotate">0</property>
  <property name="kdenlive:original.meta.media.0.codec.pix_fmt">yuv420p</property>
  <property name="kdenlive:original.meta.media.0.codec.sample_aspect_ratio">0</property>
  <property name="kdenlive:original.meta.media.0.codec.colorspace">709</property>
  <property name="kdenlive:original.meta.media.0.codec.name">h264</property>
  <property name="kdenlive:original.meta.media.0.codec.long_name">H.264 / AVC / MPEG-4 AVC / MPEG-4 part 10</property>
  <property name="kdenlive:original.meta.media.0.codec.bit_rate">3196368</property>
  <property name="kdenlive:original.meta.attr.0.stream.handler_name.markup">VideoHandler</property>
  <property name="kdenlive:original.meta.attr.0.stream.vendor_id.markup">[0][0][0][0]</property>
  <property name="kdenlive:original.meta.attr.major_brand.markup">isom</property>
  <property name="kdenlive:original.meta.attr.minor_version.markup">512</property>
  <property name="kdenlive:original.meta.attr.compatible_brands.markup">isomiso2avc1mp41</property>
  <property name="kdenlive:original.meta.attr.encoder.markup">Lavf58.76.100</property>
  <property name="kdenlive:original.meta.attr.comment.markup">Rendered with Manim Community v0.12.0</property>
  <property name="kdenlive:original.seekable">1</property>
  <property name="kdenlive:original.width">3840</property>
  <property name="kdenlive:original.height">2160</property>
  <property name="kdenlive:original.meta.media.sample_aspect_num">1</property>
  <property name="kdenlive:original.meta.media.sample_aspect_den">1</property>
  <property name="kdenlive:original.aspect_ratio">1</property>
  <property name="kdenlive:original.audio_index">-1</property>
  <property name="kdenlive:original.video_index">0</property>
  <property name="kdenlive:original.mute_on_pause">0</property>
  <property name="kdenlive:original.mlt_service">avformat-novalidate</property>
  <property name="kdenlive:original.kdenlive:folderid">240</property>
  <property name="kdenlive:original.meta.media.frame_rate_num">60</property>
  <property name="kdenlive:original.meta.media.frame_rate_den">1</property>
  <property name="kdenlive:original.meta.media.colorspace">709</property>
  <property name="kdenlive:original.meta.media.color_trc">2</property>
  <property name="kdenlive:original.meta.media.has_b_frames">2</property>
  <property name="kdenlive:original.meta.media.width">3840</property>
  <property name="kdenlive:original.meta.media.height">2160</property>
  <property name="kdenlive:original.meta.media.color_range">mpeg</property>
  <property name="kdenlive:original.kdenlive:id">259</property>
  <property name="kdenlive:original.kdenlive:file_size">401130</property>
  <property name="kdenlive:original.kdenlive:file_hash">9acb32fb6c3b6e5ab3333dd46d39e76e</property>
  <property name="kdenlive:original.backup">1</property>
  <property name="kdenlive:file_hash">9acb32fb6c3b6e5ab3333dd46d39e76e</property>
  <property name="meta.media.nb_streams">1</property>
  <property name="meta.media.0.stream.type">video</property>
  <property name="meta.media.0.stream.frame_rate">60</property>
  <property name="meta.media.0.stream.sample_aspect_ratio">0</property>
  <property name="meta.media.0.codec.width">640</property>
  <property name="meta.media.0.codec.height">360</property>
  <property name="meta.media.0.codec.rotate">0</property>
  <property name="meta.media.0.codec.pix_fmt">yuv420p</property>
  <property name="meta.media.0.codec.sample_aspect_ratio">0</property>
  <property name="meta.media.0.codec.colorspace">601</property>
  <property name="meta.media.0.codec.name">h264</property>
  <property name="meta.media.0.codec.long_name">H.264 / AVC / MPEG-4 AVC / MPEG-4 part 10</property>
  <property name="meta.media.0.codec.bit_rate">2319560</property>
  <property name="meta.attr.0.stream.handler_name.markup">VideoHandler</property>
  <property name="meta.attr.0.stream.vendor_id.markup">FFMP</property>
  <property name="meta.attr.0.stream.encoder.markup">Lavc58.134.100 libx264</property>
  <property name="meta.attr.major_brand.markup">qt  </property>
  <property name="meta.attr.minor_version.markup">512</property>
  <property name="meta.attr.compatible_brands.markup">qt  </property>
  <property name="meta.attr.encoder.markup">Lavf58.76.100</property>
  <property name="meta.attr.comment.markup">Rendered with Manim Community v0.12.0</property>
  <property name="meta.media.sample_aspect_num">1</property>
  <property name="meta.media.sample_aspect_den">1</property>
  <property name="meta.media.frame_rate_num">60</property>
  <property name="meta.media.frame_rate_den">1</property>
  <property name="meta.media.colorspace">601</property>
  <property name="meta.media.color_trc">2</property>
  <property name="meta.media.has_b_frames">0</property>
  <property name="meta.media.width">640</property>
  <property name="meta.media.height">360</property>
  <property name="meta.media.color_range">mpeg</property>
 </producer>
 <producer id="producer233" in="00:00:00.000" out="00:00:01.600">
  <property name="length">97</property>
  <property name="eof">pause</property>
  <property name="resource">/home/xiaoxiae/.cache/kdenlive/proxy/3f1636207c26afe386c4843a48736f65.mov</property>
  <property name="audio_index">-1</property>
  <property name="video_index">0</property>
  <property name="mute_on_pause">0</property>
  <property name="mlt_service">avformat-novalidate</property>
  <property name="seekable">1</property>
  <property name="aspect_ratio">1</property>
  <property name="kdenlive:clipname">5.mp4</property>
  <property name="kdenlive:folderid">240</property>
  <property name="kdenlive:id">259</property>
  <property name="kdenlive:file_size">500834</property>
  <property name="kdenlive:proxy">/home/xiaoxiae/.cache/kdenlive/proxy/3f1636207c26afe386c4843a48736f65.mov</property>
  <property name="kdenlive:originalurl">video/ParenthesesExample/vid/5.mp4</property>
  <property name="kdenlive:original.mlt_type">producer</property>
  <property name="kdenlive:original.in">0</property>
  <property name="kdenlive:original.out">96</property>
  <property name="kdenlive:original.length">97</property>
  <property name="kdenlive:original.eof">pause</property>
  <property name="kdenlive:original.resource">video/ParenthesesExample/vid/5.mp4</property>
  <property name="kdenlive:original.meta.media.nb_streams">1</property>
  <property name="kdenlive:original.meta.media.0.stream.type">video</property>
  <property name="kdenlive:original.meta.media.0.stream.frame_rate">60</property>
  <property name="kdenlive:original.meta.media.0.stream.sample_aspect_ratio">0</property>
  <property name="kdenlive:original.meta.media.0.codec.width">3840</property>
  <property name="kdenlive:original.meta.media.0.codec.height">2160</property>
  <property name="kdenlive:original.meta.media.0.codec.rotate">0</property>
  <property name="kdenlive:original.meta.media.0.codec.pix_fmt">yuv420p</property>
  <property name="kdenlive:original.meta.media.0.codec.sample_aspect_ratio">0</property>
  <property name="kdenlive:original.meta.media.0.codec.colorspace">709</property>
  <property name="kdenlive:original.meta.media.0.codec.name">h264</property>
  <property name="kdenlive:original.meta.media.0.codec.long_name">H.264 / AVC / MPEG-4 AVC / MPEG-4 part 10</property>
  <property name="kdenlive:original.meta.media.0.codec.bit_rate">2469030</property>
  <property name="kdenlive:original.meta.attr.0.stream.handler_name.markup">VideoHandler</property>
  <property name="kdenlive:original.meta.attr.0.stream.vendor_id.markup">[0][0][0][0]</property>
  <property name="kdenlive:original.meta.attr.major_brand.markup">isom</property>
  <property name="kdenlive:original.meta.attr.minor_version.markup">512</property>
  <property name="kdenlive:original.meta.attr.compatible_brands.markup">isomiso2avc1mp41</property>
  <property name="kdenlive:original.meta.attr.encoder.markup">Lavf58.76.100</property>
  <property name="kdenlive:original.meta.attr.comment.markup">Rendered with Manim Community v0.12.0</property>
  <property name="kdenlive:original.seekable">1</property>
  <property name="kdenlive:original.width">3840</property>
  <property name="kdenlive:original.height">2160</property>
  <property name="kdenlive:original.meta.media.sample_aspect_num">1</property>
  <property name="kdenlive:original.meta.media.sample_aspect_den">1</property>
  <property name="kdenlive:original.aspect_ratio">1</property>
  <property name="kdenlive:original.audio_index">-1</property>
  <property name="kdenlive:original.video_index">0</property>
  <property name="kdenlive:original.mute_on_pause">0</property>
  <property name="kdenlive:original.mlt_service">avformat-novalidate</property>
  <property name="kdenlive:original.kdenlive:folderid">240</property>
  <property name="kdenlive:original.meta.media.frame_rate_num">60</property>
  <property name="kdenlive:original.meta.media.frame_rate_den">1</property>
  <property name="kdenlive:original.meta.media.colorspace">709</property>
  <property name="kdenlive:original.meta.media.color_trc">2</property>
  <property name="kdenlive:original.meta.media.has_b_frames">2</property>
  <property name="kdenlive:original.meta.media.width">3840</property>
  <property name="kdenlive:original.meta.media.height">2160</property>
  <property name="kdenlive:original.meta.media.color_range">mpeg</property>
  <property name="kdenlive:original.kdenlive:id">260</property>
  <property name="kdenlive:original.kdenlive:file_size">500834</property>
  <property name="kdenlive:original.kdenlive:file_hash">3f1636207c26afe386c4843a48736f65</property>
  <property name="kdenlive:original.backup">1</property>
  <property name="kdenlive:file_hash">3f1636207c26afe386c4843a48736f65</property>
  <property name="meta.media.nb_streams">1</property>
  <property name="meta.media.0.stream.type">video</property>
  <property name="meta.media.0.stream.frame_rate">60</property>
  <property name="meta.media.0.stream.sample_aspect_ratio">0</property>
  <property name="meta.media.0.codec.width">640</property>
  <property name="meta.media.0.codec.height">360</property>
  <property name="meta.media.0.codec.rotate">0</property>
  <property name="meta.media.0.codec.pix_fmt">yuv420p</property>
  <property name="meta.media.0.codec.sample_aspect_ratio">0</property>
  <property name="meta.media.0.codec.colorspace">601</property>
  <property name="meta.media.0.codec.name">h264</property>
  <property name="meta.media.0.codec.long_name">H.264 / AVC / MPEG-4 AVC / MPEG-4 part 10</property>
  <property name="meta.media.0.codec.bit_rate">4035656</property>
  <property name="meta.attr.0.stream.handler_name.markup">VideoHandler</property>
  <property name="meta.attr.0.stream.vendor_id.markup">FFMP</property>
  <property name="meta.attr.0.stream.encoder.markup">Lavc58.134.100 libx264</property>
  <property name="meta.attr.major_brand.markup">qt  </property>
  <property name="meta.attr.minor_version.markup">512</property>
  <property name="meta.attr.compatible_brands.markup">qt  </property>
  <property name="meta.attr.encoder.markup">Lavf58.76.100</property>
  <property name="meta.attr.comment.markup">Rendered with Manim Community v0.12.0</property>
  <property name="meta.media.sample_aspect_num">1</property>
  <property name="meta.media.sample_aspect_den">1</property>
  <property name="meta.media.frame_rate_num">60</property>
  <property name="meta.media.frame_rate_den">1</property>
  <property name="meta.media.colorspace">601</property>
  <property name="meta.media.color_trc">2</property>
  <property name="meta.media.has_b_frames">0</property>
  <property name="meta.media.width">640</property>
  <property name="meta.media.height">360</property>
  <property name="meta.media.color_range">mpeg</property>
 </producer>
 <producer id="producer235" in="00:00:00.000" out="00:00:00.983">
  <property name="length">60</property>
  <property name="eof">pause</property>
  <property name="resource">/home/xiaoxiae/.cache/kdenlive/proxy/2b788cc9cada7ec2284a8b15ab9b9ddf.mov</property>
  <property name="audio_index">-1</property>
  <property name="video_index">0</property>
  <property name="mute_on_pause">0</property>
  <property name="mlt_service">avformat-novalidate</property>
  <property name="seekable">1</property>
  <property name="aspect_ratio">1</property>
  <property name="kdenlive:clipname">6.mp4</property>
  <property name="kdenlive:file_size">141104</property>
  <property name="kdenlive:folderid">240</property>
  <property name="kdenlive:id">260</property>
  <property name="kdenlive:proxy">/home/xiaoxiae/.cache/kdenlive/proxy/2b788cc9cada7ec2284a8b15ab9b9ddf.mov</property>
  <property name="kdenlive:originalurl">video/ParenthesesExample/vid/6.mp4</property>
  <property name="kdenlive:original.mlt_type">producer</property>
  <property name="kdenlive:original.in">0</property>
  <property name="kdenlive:original.out">59</property>
  <property name="kdenlive:original.length">60</property>
  <property name="kdenlive:original.eof">pause</property>
  <property name="kdenlive:original.resource">video/ParenthesesExample/vid/6.mp4</property>
  <property name="kdenlive:original.meta.media.nb_streams">1</property>
  <property name="kdenlive:original.meta.media.0.stream.type">video</property>
  <property name="kdenlive:original.meta.media.0.stream.frame_rate">60</property>
  <property name="kdenlive:original.meta.media.0.stream.sample_aspect_ratio">0</property>
  <property name="kdenlive:original.meta.media.0.codec.width">3840</property>
  <property name="kdenlive:original.meta.media.0.codec.height">2160</property>
  <property name="kdenlive:original.meta.media.0.codec.rotate">0</property>
  <property name="kdenlive:original.meta.media.0.codec.pix_fmt">yuv420p</property>
  <property name="kdenlive:original.meta.media.0.codec.sample_aspect_ratio">0</property>
  <property name="kdenlive:original.meta.media.0.codec.colorspace">709</property>
  <property name="kdenlive:original.meta.media.0.codec.name">h264</property>
  <property name="kdenlive:original.meta.media.0.codec.long_name">H.264 / AVC / MPEG-4 AVC / MPEG-4 part 10</property>
  <property name="kdenlive:original.meta.media.0.codec.bit_rate">1115776</property>
  <property name="kdenlive:original.meta.attr.0.stream.handler_name.markup">VideoHandler</property>
  <property name="kdenlive:original.meta.attr.0.stream.vendor_id.markup">[0][0][0][0]</property>
  <property name="kdenlive:original.meta.attr.major_brand.markup">isom</property>
  <property name="kdenlive:original.meta.attr.minor_version.markup">512</property>
  <property name="kdenlive:original.meta.attr.compatible_brands.markup">isomiso2avc1mp41</property>
  <property name="kdenlive:original.meta.attr.encoder.markup">Lavf58.76.100</property>
  <property name="kdenlive:original.meta.attr.comment.markup">Rendered with Manim Community v0.12.0</property>
  <property name="kdenlive:original.seekable">1</property>
  <property name="kdenlive:original.width">3840</property>
  <property name="kdenlive:original.height">2160</property>
  <property name="kdenlive:original.meta.media.sample_aspect_num">1</property>
  <property name="kdenlive:original.meta.media.sample_aspect_den">1</property>
  <property name="kdenlive:original.aspect_ratio">1</property>
  <property name="kdenlive:original.audio_index">-1</property>
  <property name="kdenlive:original.video_index">0</property>
  <property name="kdenlive:original.mute_on_pause">0</property>
  <property name="kdenlive:original.mlt_service">avformat-novalidate</property>
  <property name="kdenlive:original.kdenlive:file_size">141104</property>
  <property name="kdenlive:original.kdenlive:folderid">240</property>
  <property name="kdenlive:original.meta.media.frame_rate_num">60</property>
  <property name="kdenlive:original.meta.media.frame_rate_den">1</property>
  <property name="kdenlive:original.meta.media.colorspace">709</property>
  <property name="kdenlive:original.meta.media.color_trc">2</property>
  <property name="kdenlive:original.meta.media.has_b_frames">2</property>
  <property name="kdenlive:original.meta.media.width">3840</property>
  <property name="kdenlive:original.meta.media.height">2160</property>
  <property name="kdenlive:original.meta.media.color_range">mpeg</property>
  <property name="kdenlive:original.kdenlive:id">261</property>
  <property name="kdenlive:original.kdenlive:file_hash">2b788cc9cada7ec2284a8b15ab9b9ddf</property>
  <property name="kdenlive:original.backup">1</property>
  <property name="kdenlive:file_hash">2b788cc9cada7ec2284a8b15ab9b9ddf</property>
  <property name="meta.media.nb_streams">1</property>
  <property name="meta.media.0.stream.type">video</property>
  <property name="meta.media.0.stream.frame_rate">60</property>
  <property name="meta.media.0.stream.sample_aspect_ratio">0</property>
  <property name="meta.media.0.codec.width">640</property>
  <property name="meta.media.0.codec.height">360</property>
  <property name="meta.media.0.codec.rotate">0</property>
  <property name="meta.media.0.codec.pix_fmt">yuv420p</property>
  <property name="meta.media.0.codec.sample_aspect_ratio">0</property>
  <property name="meta.media.0.codec.colorspace">601</property>
  <property name="meta.media.0.codec.name">h264</property>
  <property name="meta.media.0.codec.long_name">H.264 / AVC / MPEG-4 AVC / MPEG-4 part 10</property>
  <property name="meta.media.0.codec.bit_rate">4431864</property>
  <property name="meta.attr.0.stream.handler_name.markup">VideoHandler</property>
  <property name="meta.attr.0.stream.vendor_id.markup">FFMP</property>
  <property name="meta.attr.0.stream.encoder.markup">Lavc58.134.100 libx264</property>
  <property name="meta.attr.major_brand.markup">qt  </property>
  <property name="meta.attr.minor_version.markup">512</property>
  <property name="meta.attr.compatible_brands.markup">qt  </property>
  <property name="meta.attr.encoder.markup">Lavf58.76.100</property>
  <property name="meta.attr.comment.markup">Rendered with Manim Community v0.12.0</property>
  <property name="meta.media.sample_aspect_num">1</property>
  <property name="meta.media.sample_aspect_den">1</property>
  <property name="meta.media.frame_rate_num">60</property>
  <property name="meta.media.frame_rate_den">1</property>
  <property name="meta.media.colorspace">601</property>
  <property name="meta.media.color_trc">2</property>
  <property name="meta.media.has_b_frames">0</property>
  <property name="meta.media.width">640</property>
  <property name="meta.media.height">360</property>
  <property name="meta.media.color_range">mpeg</property>
 </producer>
 <producer id="producer234" in="00:00:00.000" out="00:00:00.983">
  <property name="length">60</property>
  <property name="eof">pause</property>
  <property name="resource">/home/xiaoxiae/.cache/kdenlive/proxy/9a95420104653c2989898c29f021d91f.mov</property>
  <property name="audio_index">-1</property>
  <property name="video_index">0</property>
  <property name="mute_on_pause">0</property>
  <property name="mlt_service">avformat-novalidate</property>
  <property name="seekable">1</property>
  <property name="aspect_ratio">1</property>
  <property name="kdenlive:clipname">7.mp4</property>
  <property name="kdenlive:folderid">240</property>
  <property name="kdenlive:id">261</property>
  <property name="kdenlive:file_size">140774</property>
  <property name="kdenlive:proxy">/home/xiaoxiae/.cache/kdenlive/proxy/9a95420104653c2989898c29f021d91f.mov</property>
  <property name="kdenlive:originalurl">video/ParenthesesExample/vid/7.mp4</property>
  <property name="kdenlive:original.mlt_type">producer</property>
  <property name="kdenlive:original.in">0</property>
  <property name="kdenlive:original.out">59</property>
  <property name="kdenlive:original.length">60</property>
  <property name="kdenlive:original.eof">pause</property>
  <property name="kdenlive:original.resource">video/ParenthesesExample/vid/7.mp4</property>
  <property name="kdenlive:original.meta.media.nb_streams">1</property>
  <property name="kdenlive:original.meta.media.0.stream.type">video</property>
  <property name="kdenlive:original.meta.media.0.stream.frame_rate">60</property>
  <property name="kdenlive:original.meta.media.0.stream.sample_aspect_ratio">0</property>
  <property name="kdenlive:original.meta.media.0.codec.width">3840</property>
  <property name="kdenlive:original.meta.media.0.codec.height">2160</property>
  <property name="kdenlive:original.meta.media.0.codec.rotate">0</property>
  <property name="kdenlive:original.meta.media.0.codec.pix_fmt">yuv420p</property>
  <property name="kdenlive:original.meta.media.0.codec.sample_aspect_ratio">0</property>
  <property name="kdenlive:original.meta.media.0.codec.colorspace">709</property>
  <property name="kdenlive:original.meta.media.0.codec.name">h264</property>
  <property name="kdenlive:original.meta.media.0.codec.long_name">H.264 / AVC / MPEG-4 AVC / MPEG-4 part 10</property>
  <property name="kdenlive:original.meta.media.0.codec.bit_rate">1113136</property>
  <property name="kdenlive:original.meta.attr.0.stream.handler_name.markup">VideoHandler</property>
  <property name="kdenlive:original.meta.attr.0.stream.vendor_id.markup">[0][0][0][0]</property>
  <property name="kdenlive:original.meta.attr.major_brand.markup">isom</property>
  <property name="kdenlive:original.meta.attr.minor_version.markup">512</property>
  <property name="kdenlive:original.meta.attr.compatible_brands.markup">isomiso2avc1mp41</property>
  <property name="kdenlive:original.meta.attr.encoder.markup">Lavf58.76.100</property>
  <property name="kdenlive:original.meta.attr.comment.markup">Rendered with Manim Community v0.12.0</property>
  <property name="kdenlive:original.seekable">1</property>
  <property name="kdenlive:original.width">3840</property>
  <property name="kdenlive:original.height">2160</property>
  <property name="kdenlive:original.meta.media.sample_aspect_num">1</property>
  <property name="kdenlive:original.meta.media.sample_aspect_den">1</property>
  <property name="kdenlive:original.aspect_ratio">1</property>
  <property name="kdenlive:original.audio_index">-1</property>
  <property name="kdenlive:original.video_index">0</property>
  <property name="kdenlive:original.mute_on_pause">0</property>
  <property name="kdenlive:original.mlt_service">avformat-novalidate</property>
  <property name="kdenlive:original.kdenlive:folderid">240</property>
  <property name="kdenlive:original.meta.media.frame_rate_num">60</property>
  <property name="kdenlive:original.meta.media.frame_rate_den">1</property>
  <property name="kdenlive:original.meta.media.colorspace">709</property>
  <property name="kdenlive:original.meta.media.color_trc">2</property>
  <property name="kdenlive:original.meta.media.has_b_frames">2</property>
  <property name="kdenlive:original.meta.media.width">3840</property>
  <property name="kdenlive:original.meta.media.height">2160</property>
  <property name="kdenlive:original.meta.media.color_range">mpeg</property>
  <property name="kdenlive:original.kdenlive:id">262</property>
  <property name="kdenlive:original.kdenlive:file_size">140774</property>
  <property name="kdenlive:original.kdenlive:file_hash">9a95420104653c2989898c29f021d91f</property>
  <property name="kdenlive:original.backup">1</property>
  <property name="kdenlive:file_hash">9a95420104653c2989898c29f021d91f</property>
  <property name="meta.media.nb_streams">1</property>
  <property name="meta.media.0.stream.type">video</property>
  <property name="meta.media.0.stream.frame_rate">60</property>
  <property name="meta.media.0.stream.sample_aspect_ratio">0</property>
  <property name="meta.media.0.codec.width">640</property>
  <property name="meta.media.0.codec.height">360</property>
  <property name="meta.media.0.codec.rotate">0</property>
  <property name="meta.media.0.codec.pix_fmt">yuv420p</property>
  <property name="meta.media.0.codec.sample_aspect_ratio">0</property>
  <property name="meta.media.0.codec.colorspace">601</property>
  <property name="meta.media.0.codec.name">h264</property>
  <property name="meta.media.0.codec.long_name">H.264 / AVC / MPEG-4 AVC / MPEG-4 part 10</property>
  <property name="meta.media.0.codec.bit_rate">4372504</property>
  <property name="meta.attr.0.stream.handler_name.markup">VideoHandler</property>
  <property name="meta.attr.0.stream.vendor_id.markup">FFMP</property>
  <property name="meta.attr.0.stream.encoder.markup">Lavc58.134.100 libx264</property>
  <property name="meta.attr.major_brand.markup">qt  </property>
  <property name="meta.attr.minor_version.markup">512</property>
  <property name="meta.attr.compatible_brands.markup">qt  </property>
  <property name="meta.attr.encoder.markup">Lavf58.76.100</property>
  <property name="meta.attr.comment.markup">Rendered with Manim Community v0.12.0</property>
  <property name="meta.media.sample_aspect_num">1</property>
  <property name="meta.media.sample_aspect_den">1</property>
  <property name="meta.media.frame_rate_num">60</property>
  <property name="meta.media.frame_rate_den">1</property>
  <property name="meta.media.colorspace">601</property>
  <property name="meta.media.color_trc">2</property>
  <property name="meta.media.has_b_frames">0</property>
  <property name="meta.media.width">640</property>
  <property name="meta.media.height">360</property>
  <property name="meta.media.color_range">mpeg</property>
 </producer>
 <producer id="producer236" in="00:00:00.000" out="00:00:00.733">
  <property name="length">45</property>
  <property name="eof">pause</property>
  <property name="resource">/home/xiaoxiae/.cache/kdenlive/proxy/5401480760063698c66b72bc304ae979.mov</property>
  <property name="audio_index">-1</property>
  <property name="video_index">0</property>
  <property name="mute_on_pause">0</property>
  <property name="mlt_service">avformat-novalidate</property>
  <property name="seekable">1</property>
  <property name="aspect_ratio">1</property>
  <property name="kdenlive:clipname">8.mp4</property>
  <property name="kdenlive:folderid">240</property>
  <property name="kdenlive:id">262</property>
  <property name="kdenlive:file_size">206441</property>
  <property name="kdenlive:proxy">/home/xiaoxiae/.cache/kdenlive/proxy/5401480760063698c66b72bc304ae979.mov</property>
  <property name="kdenlive:originalurl">video/ParenthesesExample/vid/8.mp4</property>
  <property name="kdenlive:original.mlt_type">producer</property>
  <property name="kdenlive:original.in">0</property>
  <property name="kdenlive:original.out">44</property>
  <property name="kdenlive:original.length">45</property>
  <property name="kdenlive:original.eof">pause</property>
  <property name="kdenlive:original.resource">video/ParenthesesExample/vid/8.mp4</property>
  <property name="kdenlive:original.meta.media.nb_streams">1</property>
  <property name="kdenlive:original.meta.media.0.stream.type">video</property>
  <property name="kdenlive:original.meta.media.0.stream.frame_rate">60</property>
  <property name="kdenlive:original.meta.media.0.stream.sample_aspect_ratio">0</property>
  <property name="kdenlive:original.meta.media.0.codec.width">3840</property>
  <property name="kdenlive:original.meta.media.0.codec.height">2160</property>
  <property name="kdenlive:original.meta.media.0.codec.rotate">0</property>
  <property name="kdenlive:original.meta.media.0.codec.pix_fmt">yuv420p</property>
  <property name="kdenlive:original.meta.media.0.codec.sample_aspect_ratio">0</property>
  <property name="kdenlive:original.meta.media.0.codec.colorspace">709</property>
  <property name="kdenlive:original.meta.media.0.codec.name">h264</property>
  <property name="kdenlive:original.meta.media.0.codec.long_name">H.264 / AVC / MPEG-4 AVC / MPEG-4 part 10</property>
  <property name="kdenlive:original.meta.media.0.codec.bit_rate">2186634</property>
  <property name="kdenlive:original.meta.attr.0.stream.handler_name.markup">VideoHandler</property>
  <property name="kdenlive:original.meta.attr.0.stream.vendor_id.markup">[0][0][0][0]</property>
  <property name="kdenlive:original.meta.attr.major_brand.markup">isom</property>
  <property name="kdenlive:original.meta.attr.minor_version.markup">512</property>
  <property name="kdenlive:original.meta.attr.compatible_brands.markup">isomiso2avc1mp41</property>
  <property name="kdenlive:original.meta.attr.encoder.markup">Lavf58.76.100</property>
  <property name="kdenlive:original.meta.attr.comment.markup">Rendered with Manim Community v0.12.0</property>
  <property name="kdenlive:original.seekable">1</property>
  <property name="kdenlive:original.width">3840</property>
  <property name="kdenlive:original.height">2160</property>
  <property name="kdenlive:original.meta.media.sample_aspect_num">1</property>
  <property name="kdenlive:original.meta.media.sample_aspect_den">1</property>
  <property name="kdenlive:original.aspect_ratio">1</property>
  <property name="kdenlive:original.audio_index">-1</property>
  <property name="kdenlive:original.video_index">0</property>
  <property name="kdenlive:original.mute_on_pause">0</property>
  <property name="kdenlive:original.mlt_service">avformat-novalidate</property>
  <property name="kdenlive:original.kdenlive:folderid">240</property>
  <property name="kdenlive:original.meta.media.frame_rate_num">60</property>
  <property name="kdenlive:original.meta.media.frame_rate_den">1</property>
  <property name="kdenlive:original.meta.media.colorspace">709</property>
  <property name="kdenlive:original.meta.media.color_trc">2</property>
  <property name="kdenlive:original.meta.media.has_b_frames">2</property>
  <property name="kdenlive:original.meta.media.width">3840</property>
  <property name="kdenlive:original.meta.media.height">2160</property>
  <property name="kdenlive:original.meta.media.color_range">mpeg</property>
  <property name="kdenlive:original.kdenlive:id">263</property>
  <property name="kdenlive:original.kdenlive:file_size">206441</property>
  <property name="kdenlive:original.kdenlive:file_hash">5401480760063698c66b72bc304ae979</property>
  <property name="kdenlive:original.backup">1</property>
  <property name="kdenlive:file_hash">5401480760063698c66b72bc304ae979</property>
  <property name="meta.media.nb_streams">1</property>
  <property name="meta.media.0.stream.type">video</property>
  <property name="meta.media.0.stream.frame_rate">60</property>
  <property name="meta.media.0.stream.sample_aspect_ratio">0</property>
  <property name="meta.media.0.codec.width">640</property>
  <property name="meta.media.0.codec.height">360</property>
  <property name="meta.media.0.codec.rotate">0</property>
  <property name="meta.media.0.codec.pix_fmt">yuv420p</property>
  <property name="meta.media.0.codec.sample_aspect_ratio">0</property>
  <property name="meta.media.0.codec.colorspace">601</property>
  <property name="meta.media.0.codec.name">h264</property>
  <property name="meta.media.0.codec.long_name">H.264 / AVC / MPEG-4 AVC / MPEG-4 part 10</property>
  <property name="meta.media.0.codec.bit_rate">4323637</property>
  <property name="meta.attr.0.stream.handler_name.markup">VideoHandler</property>
  <property name="meta.attr.0.stream.vendor_id.markup">FFMP</property>
  <property name="meta.attr.0.stream.encoder.markup">Lavc58.134.100 libx264</property>
  <property name="meta.attr.major_brand.markup">qt  </property>
  <property name="meta.attr.minor_version.markup">512</property>
  <property name="meta.attr.compatible_brands.markup">qt  </property>
  <property name="meta.attr.encoder.markup">Lavf58.76.100</property>
  <property name="meta.attr.comment.markup">Rendered with Manim Community v0.12.0</property>
  <property name="meta.media.sample_aspect_num">1</property>
  <property name="meta.media.sample_aspect_den">1</property>
  <property name="meta.media.frame_rate_num">60</property>
  <property name="meta.media.frame_rate_den">1</property>
  <property name="meta.media.colorspace">601</property>
  <property name="meta.media.color_trc">2</property>
  <property name="meta.media.has_b_frames">0</property>
  <property name="meta.media.width">640</property>
  <property name="meta.media.height">360</property>
  <property name="meta.media.color_range">mpeg</property>
 </producer>
 <producer id="producer237" in="00:00:00.000" out="00:00:00.983">
  <property name="length">60</property>
  <property name="eof">pause</property>
  <property name="resource">/home/xiaoxiae/.cache/kdenlive/proxy/65e819e5379ec46aee69c223e0b7f8e6.mov</property>
  <property name="audio_index">-1</property>
  <property name="video_index">0</property>
  <property name="mute_on_pause">0</property>
  <property name="mlt_service">avformat-novalidate</property>
  <property name="seekable">1</property>
  <property name="aspect_ratio">1</property>
  <property name="kdenlive:clipname">9.mp4</property>
  <property name="kdenlive:folderid">240</property>
  <property name="kdenlive:id">263</property>
  <property name="kdenlive:file_size">428870</property>
  <property name="kdenlive:proxy">/home/xiaoxiae/.cache/kdenlive/proxy/65e819e5379ec46aee69c223e0b7f8e6.mov</property>
  <property name="kdenlive:originalurl">video/ParenthesesExample/vid/9.mp4</property>
  <property name="kdenlive:original.mlt_type">producer</property>
  <property name="kdenlive:original.in">0</property>
  <property name="kdenlive:original.out">59</property>
  <property name="kdenlive:original.length">60</property>
  <property name="kdenlive:original.eof">pause</property>
  <property name="kdenlive:original.resource">video/ParenthesesExample/vid/9.mp4</property>
  <property name="kdenlive:original.meta.media.nb_streams">1</property>
  <property name="kdenlive:original.meta.media.0.stream.type">video</property>
  <property name="kdenlive:original.meta.media.0.stream.frame_rate">60</property>
  <property name="kdenlive:original.meta.media.0.stream.sample_aspect_ratio">0</property>
  <property name="kdenlive:original.meta.media.0.codec.width">3840</property>
  <property name="kdenlive:original.meta.media.0.codec.height">2160</property>
  <property name="kdenlive:original.meta.media.0.codec.rotate">0</property>
  <property name="kdenlive:original.meta.media.0.codec.pix_fmt">yuv420p</property>
  <property name="kdenlive:original.meta.media.0.codec.sample_aspect_ratio">0</property>
  <property name="kdenlive:original.meta.media.0.codec.colorspace">709</property>
  <property name="kdenlive:original.meta.media.0.codec.name">h264</property>
  <property name="kdenlive:original.meta.media.0.codec.long_name">H.264 / AVC / MPEG-4 AVC / MPEG-4 part 10</property>
  <property name="kdenlive:original.meta.media.0.codec.bit_rate">3418032</property>
  <property name="kdenlive:original.meta.attr.0.stream.handler_name.markup">VideoHandler</property>
  <property name="kdenlive:original.meta.attr.0.stream.vendor_id.markup">[0][0][0][0]</property>
  <property name="kdenlive:original.meta.attr.major_brand.markup">isom</property>
  <property name="kdenlive:original.meta.attr.minor_version.markup">512</property>
  <property name="kdenlive:original.meta.attr.compatible_brands.markup">isomiso2avc1mp41</property>
  <property name="kdenlive:original.meta.attr.encoder.markup">Lavf58.76.100</property>
  <property name="kdenlive:original.meta.attr.comment.markup">Rendered with Manim Community v0.12.0</property>
  <property name="kdenlive:original.seekable">1</property>
  <property name="kdenlive:original.width">3840</property>
  <property name="kdenlive:original.height">2160</property>
  <property name="kdenlive:original.meta.media.sample_aspect_num">1</property>
  <property name="kdenlive:original.meta.media.sample_aspect_den">1</property>
  <property name="kdenlive:original.aspect_ratio">1</property>
  <property name="kdenlive:original.audio_index">-1</property>
  <property name="kdenlive:original.video_index">0</property>
  <property name="kdenlive:original.mute_on_pause">0</property>
  <property name="kdenlive:original.mlt_service">avformat-novalidate</property>
  <property name="kdenlive:original.kdenlive:folderid">240</property>
  <property name="kdenlive:original.meta.media.frame_rate_num">60</property>
  <property name="kdenlive:original.meta.media.frame_rate_den">1</property>
  <property name="kdenlive:original.meta.media.colorspace">709</property>
  <property name="kdenlive:original.meta.media.color_trc">2</property>
  <property name="kdenlive:original.meta.media.has_b_frames">2</property>
  <property name="kdenlive:original.meta.media.width">3840</property>
  <property name="kdenlive:original.meta.media.height">2160</property>
  <property name="kdenlive:original.meta.media.color_range">mpeg</property>
  <property name="kdenlive:original.kdenlive:id">264</property>
  <property name="kdenlive:original.kdenlive:file_size">428870</property>
  <property name="kdenlive:original.kdenlive:file_hash">65e819e5379ec46aee69c223e0b7f8e6</property>
  <property name="kdenlive:original.backup">1</property>
  <property name="kdenlive:file_hash">65e819e5379ec46aee69c223e0b7f8e6</property>
  <property name="meta.media.nb_streams">1</property>
  <property name="meta.media.0.stream.type">video</property>
  <property name="meta.media.0.stream.frame_rate">60</property>
  <property name="meta.media.0.stream.sample_aspect_ratio">0</property>
  <property name="meta.media.0.codec.width">640</property>
  <property name="meta.media.0.codec.height">360</property>
  <property name="meta.media.0.codec.rotate">0</property>
  <property name="meta.media.0.codec.pix_fmt">yuv420p</property>
  <property name="meta.media.0.codec.sample_aspect_ratio">0</property>
  <property name="meta.media.0.codec.colorspace">601</property>
  <property name="meta.media.0.codec.name">h264</property>
  <property name="meta.media.0.codec.long_name">H.264 / AVC / MPEG-4 AVC / MPEG-4 part 10</property>
  <property name="meta.media.0.codec.bit_rate">4056432</property>
  <property name="meta.attr.0.stream.handler_name.markup">VideoHandler</property>
  <property name="meta.attr.0.stream.vendor_id.markup">FFMP</property>
  <property name="meta.attr.0.stream.encoder.markup">Lavc58.134.100 libx264</property>
  <property name="meta.attr.major_brand.markup">qt  </property>
  <property name="meta.attr.minor_version.markup">512</property>
  <property name="meta.attr.compatible_brands.markup">qt  </property>
  <property name="meta.attr.encoder.markup">Lavf58.76.100</property>
  <property name="meta.attr.comment.markup">Rendered with Manim Community v0.12.0</property>
  <property name="meta.media.sample_aspect_num">1</property>
  <property name="meta.media.sample_aspect_den">1</property>
  <property name="meta.media.frame_rate_num">60</property>
  <property name="meta.media.frame_rate_den">1</property>
  <property name="meta.media.colorspace">601</property>
  <property name="meta.media.color_trc">2</property>
  <property name="meta.media.has_b_frames">0</property>
  <property name="meta.media.width">640</property>
  <property name="meta.media.height">360</property>
  <property name="meta.media.color_range">mpeg</property>
 </producer>
 <producer id="producer238" in="00:00:00.000" out="00:00:04.983">
  <property name="length">00:00:05.000</property>
  <property name="eof">pause</property>
  <property name="resource">/home/xiaoxiae/.cache/kdenlive/proxy/6b665121ca7b54a5f5307b69451fd23c.png</property>
  <property name="ttl">25</property>
  <property name="aspect_ratio">1</property>
  <property name="progressive">1</property>
  <property name="seekable">1</property>
  <property name="meta.media.width">800</property>
  <property name="meta.media.height">450</property>
  <property name="mlt_service">qimage</property>
  <property name="kdenlive:clipname">1.png</property>
  <property name="kdenlive:duration">00:00:05.000</property>
  <property name="kdenlive:folderid">266</property>
  <property name="kdenlive:id">264</property>
  <property name="kdenlive:file_size">24337</property>
  <property name="kdenlive:proxy">/home/xiaoxiae/.cache/kdenlive/proxy/6b665121ca7b54a5f5307b69451fd23c.png</property>
  <property name="kdenlive:originalurl">video/ProgrammingModel/img/1.png</property>
  <property name="kdenlive:original.mlt_type">producer</property>
  <property name="kdenlive:original.in">0</property>
  <property name="kdenlive:original.out">299</property>
  <property name="kdenlive:original.length">00:00:05.000</property>
  <property name="kdenlive:original.eof">pause</property>
  <property name="kdenlive:original.resource">video/ProgrammingModel/img/1.png</property>
  <property name="kdenlive:original.ttl">25</property>
  <property name="kdenlive:original.aspect_ratio">1</property>
  <property name="kdenlive:original.progressive">1</property>
  <property name="kdenlive:original.seekable">1</property>
  <property name="kdenlive:original.meta.media.width">3840</property>
  <property name="kdenlive:original.meta.media.height">2160</property>
  <property name="kdenlive:original.mlt_service">qimage</property>
  <property name="kdenlive:original.kdenlive:duration">00:00:05.000</property>
  <property name="kdenlive:original.kdenlive:folderid">266</property>
  <property name="kdenlive:original.kdenlive:id">267</property>
  <property name="kdenlive:original.kdenlive:file_size">24337</property>
  <property name="kdenlive:original.kdenlive:file_hash">6b665121ca7b54a5f5307b69451fd23c</property>
  <property name="kdenlive:original.backup">1</property>
  <property name="kdenlive:file_hash">6b665121ca7b54a5f5307b69451fd23c</property>
 </producer>
 <producer id="producer239" in="00:00:00.000" out="00:00:04.983">
  <property name="length">00:00:05.000</property>
  <property name="eof">pause</property>
  <property name="resource">/home/xiaoxiae/.cache/kdenlive/proxy/9fd4cb663bdcce7942e10cbe4cf32f13.png</property>
  <property name="ttl">25</property>
  <property name="aspect_ratio">1</property>
  <property name="progressive">1</property>
  <property name="seekable">1</property>
  <property name="meta.media.width">800</property>
  <property name="meta.media.height">450</property>
  <property name="mlt_service">qimage</property>
  <property name="kdenlive:clipname">10.png</property>
  <property name="kdenlive:duration">00:00:05.000</property>
  <property name="kdenlive:folderid">266</property>
  <property name="kdenlive:id">267</property>
  <property name="kdenlive:file_size">521284</property>
  <property name="kdenlive:proxy">/home/xiaoxiae/.cache/kdenlive/proxy/9fd4cb663bdcce7942e10cbe4cf32f13.png</property>
  <property name="kdenlive:originalurl">video/ProgrammingModel/img/10.png</property>
  <property name="kdenlive:original.mlt_type">producer</property>
  <property name="kdenlive:original.in">0</property>
  <property name="kdenlive:original.out">299</property>
  <property name="kdenlive:original.length">00:00:05.000</property>
  <property name="kdenlive:original.eof">pause</property>
  <property name="kdenlive:original.resource">video/ProgrammingModel/img/10.png</property>
  <property name="kdenlive:original.ttl">25</property>
  <property name="kdenlive:original.aspect_ratio">1</property>
  <property name="kdenlive:original.progressive">1</property>
  <property name="kdenlive:original.seekable">1</property>
  <property name="kdenlive:original.meta.media.width">3840</property>
  <property name="kdenlive:original.meta.media.height">2160</property>
  <property name="kdenlive:original.mlt_service">qimage</property>
  <property name="kdenlive:original.kdenlive:duration">00:00:05.000</property>
  <property name="kdenlive:original.kdenlive:folderid">266</property>
  <property name="kdenlive:original.kdenlive:id">268</property>
  <property name="kdenlive:original.kdenlive:file_size">521284</property>
  <property name="kdenlive:original.kdenlive:file_hash">9fd4cb663bdcce7942e10cbe4cf32f13</property>
  <property name="kdenlive:original.backup">1</property>
  <property name="kdenlive:file_hash">9fd4cb663bdcce7942e10cbe4cf32f13</property>
 </producer>
 <producer id="producer240" in="00:00:00.000" out="00:00:04.983">
  <property name="length">00:00:05.000</property>
  <property name="eof">pause</property>
  <property name="resource">/home/xiaoxiae/.cache/kdenlive/proxy/2355767c99aee457926d5138810719fd.png</property>
  <property name="ttl">25</property>
  <property name="aspect_ratio">1</property>
  <property name="progressive">1</property>
  <property name="seekable">1</property>
  <property name="meta.media.width">800</property>
  <property name="meta.media.height">450</property>
  <property name="mlt_service">qimage</property>
  <property name="kdenlive:clipname">11.png</property>
  <property name="kdenlive:duration">00:00:05.000</property>
  <property name="kdenlive:folderid">266</property>
  <property name="kdenlive:id">268</property>
  <property name="kdenlive:file_size">129064</property>
  <property name="kdenlive:proxy">/home/xiaoxiae/.cache/kdenlive/proxy/2355767c99aee457926d5138810719fd.png</property>
  <property name="kdenlive:originalurl">video/ProgrammingModel/img/11.png</property>
  <property name="kdenlive:original.mlt_type">producer</property>
  <property name="kdenlive:original.in">0</property>
  <property name="kdenlive:original.out">299</property>
  <property name="kdenlive:original.length">00:00:05.000</property>
  <property name="kdenlive:original.eof">pause</property>
  <property name="kdenlive:original.resource">video/ProgrammingModel/img/11.png</property>
  <property name="kdenlive:original.ttl">25</property>
  <property name="kdenlive:original.aspect_ratio">1</property>
  <property name="kdenlive:original.progressive">1</property>
  <property name="kdenlive:original.seekable">1</property>
  <property name="kdenlive:original.meta.media.width">3840</property>
  <property name="kdenlive:original.meta.media.height">2160</property>
  <property name="kdenlive:original.mlt_service">qimage</property>
  <property name="kdenlive:original.kdenlive:duration">00:00:05.000</property>
  <property name="kdenlive:original.kdenlive:folderid">266</property>
  <property name="kdenlive:original.kdenlive:id">269</property>
  <property name="kdenlive:original.kdenlive:file_size">129064</property>
  <property name="kdenlive:original.kdenlive:file_hash">2355767c99aee457926d5138810719fd</property>
  <property name="kdenlive:original.backup">1</property>
  <property name="kdenlive:file_hash">2355767c99aee457926d5138810719fd</property>
 </producer>
 <producer id="producer241" in="00:00:00.000" out="00:00:06.333">
  <property name="length">00:00:06.350</property>
  <property name="eof">pause</property>
  <property name="resource">/home/xiaoxiae/.cache/kdenlive/proxy/bec49c353ca94bf7d700db47c02087fa.png</property>
  <property name="ttl">25</property>
  <property name="aspect_ratio">1</property>
  <property name="progressive">1</property>
  <property name="seekable">1</property>
  <property name="meta.media.width">800</property>
  <property name="meta.media.height">450</property>
  <property name="mlt_service">qimage</property>
  <property name="kdenlive:clipname">12.png</property>
  <property name="kdenlive:duration">00:00:05.000</property>
  <property name="kdenlive:folderid">266</property>
  <property name="kdenlive:id">269</property>
  <property name="kdenlive:file_size">217902</property>
  <property name="kdenlive:proxy">/home/xiaoxiae/.cache/kdenlive/proxy/bec49c353ca94bf7d700db47c02087fa.png</property>
  <property name="kdenlive:originalurl">video/ProgrammingModel/img/12.png</property>
  <property name="kdenlive:original.mlt_type">producer</property>
  <property name="kdenlive:original.in">0</property>
  <property name="kdenlive:original.out">299</property>
  <property name="kdenlive:original.length">00:00:05.000</property>
  <property name="kdenlive:original.eof">pause</property>
  <property name="kdenlive:original.resource">video/ProgrammingModel/img/12.png</property>
  <property name="kdenlive:original.ttl">25</property>
  <property name="kdenlive:original.aspect_ratio">1</property>
  <property name="kdenlive:original.progressive">1</property>
  <property name="kdenlive:original.seekable">1</property>
  <property name="kdenlive:original.meta.media.width">3840</property>
  <property name="kdenlive:original.meta.media.height">2160</property>
  <property name="kdenlive:original.mlt_service">qimage</property>
  <property name="kdenlive:original.kdenlive:duration">00:00:05.000</property>
  <property name="kdenlive:original.kdenlive:folderid">266</property>
  <property name="kdenlive:original.kdenlive:id">270</property>
  <property name="kdenlive:original.kdenlive:file_size">217902</property>
  <property name="kdenlive:original.kdenlive:file_hash">bec49c353ca94bf7d700db47c02087fa</property>
  <property name="kdenlive:original.backup">1</property>
  <property name="kdenlive:file_hash">bec49c353ca94bf7d700db47c02087fa</property>
 </producer>
 <producer id="producer242" in="00:00:00.000" out="00:00:04.983">
  <property name="length">00:00:05.000</property>
  <property name="eof">pause</property>
  <property name="resource">/home/xiaoxiae/.cache/kdenlive/proxy/9eceee6c9ed6883af2826039ff0d4558.png</property>
  <property name="ttl">25</property>
  <property name="aspect_ratio">1</property>
  <property name="progressive">1</property>
  <property name="seekable">1</property>
  <property name="meta.media.width">800</property>
  <property name="meta.media.height">450</property>
  <property name="mlt_service">qimage</property>
  <property name="kdenlive:clipname">13.png</property>
  <property name="kdenlive:duration">00:00:05.000</property>
  <property name="kdenlive:folderid">266</property>
  <property name="kdenlive:id">270</property>
  <property name="kdenlive:file_size">265904</property>
  <property name="kdenlive:proxy">/home/xiaoxiae/.cache/kdenlive/proxy/9eceee6c9ed6883af2826039ff0d4558.png</property>
  <property name="kdenlive:originalurl">video/ProgrammingModel/img/13.png</property>
  <property name="kdenlive:original.mlt_type">producer</property>
  <property name="kdenlive:original.in">0</property>
  <property name="kdenlive:original.out">299</property>
  <property name="kdenlive:original.length">00:00:05.000</property>
  <property name="kdenlive:original.eof">pause</property>
  <property name="kdenlive:original.resource">video/ProgrammingModel/img/13.png</property>
  <property name="kdenlive:original.ttl">25</property>
  <property name="kdenlive:original.aspect_ratio">1</property>
  <property name="kdenlive:original.progressive">1</property>
  <property name="kdenlive:original.seekable">1</property>
  <property name="kdenlive:original.meta.media.width">3840</property>
  <property name="kdenlive:original.meta.media.height">2160</property>
  <property name="kdenlive:original.mlt_service">qimage</property>
  <property name="kdenlive:original.kdenlive:duration">00:00:05.000</property>
  <property name="kdenlive:original.kdenlive:folderid">266</property>
  <property name="kdenlive:original.kdenlive:id">271</property>
  <property name="kdenlive:original.kdenlive:file_size">265904</property>
  <property name="kdenlive:original.kdenlive:file_hash">9eceee6c9ed6883af2826039ff0d4558</property>
  <property name="kdenlive:original.backup">1</property>
  <property name="kdenlive:file_hash">9eceee6c9ed6883af2826039ff0d4558</property>
 </producer>
 <producer id="producer243" in="00:00:00.000" out="00:00:04.983">
  <property name="length">00:00:05.000</property>
  <property name="eof">pause</property>
  <property name="resource">/home/xiaoxiae/.cache/kdenlive/proxy/a6321258ca66ef7f2c88713e62cd2461.png</property>
  <property name="ttl">25</property>
  <property name="aspect_ratio">1</property>
  <property name="progressive">1</property>
  <property name="seekable">1</property>
  <property name="meta.media.width">800</property>
  <property name="meta.media.height">450</property>
  <property name="mlt_service">qimage</property>
  <property name="kdenlive:clipname">14.png</property>
  <property name="kdenlive:duration">00:00:05.000</property>
  <property name="kdenlive:folderid">266</property>
  <property name="kdenlive:id">271</property>
  <property name="kdenlive:file_size">267182</property>
  <property name="kdenlive:proxy">/home/xiaoxiae/.cache/kdenlive/proxy/a6321258ca66ef7f2c88713e62cd2461.png</property>
  <property name="kdenlive:originalurl">video/ProgrammingModel/img/14.png</property>
  <property name="kdenlive:original.mlt_type">producer</property>
  <property name="kdenlive:original.in">0</property>
  <property name="kdenlive:original.out">299</property>
  <property name="kdenlive:original.length">00:00:05.000</property>
  <property name="kdenlive:original.eof">pause</property>
  <property name="kdenlive:original.resource">video/ProgrammingModel/img/14.png</property>
  <property name="kdenlive:original.ttl">25</property>
  <property name="kdenlive:original.aspect_ratio">1</property>
  <property name="kdenlive:original.progressive">1</property>
  <property name="kdenlive:original.seekable">1</property>
  <property name="kdenlive:original.meta.media.width">3840</property>
  <property name="kdenlive:original.meta.media.height">2160</property>
  <property name="kdenlive:original.mlt_service">qimage</property>
  <property name="kdenlive:original.kdenlive:duration">00:00:05.000</property>
  <property name="kdenlive:original.kdenlive:folderid">266</property>
  <property name="kdenlive:original.kdenlive:id">272</property>
  <property name="kdenlive:original.kdenlive:file_size">267182</property>
  <property name="kdenlive:original.kdenlive:file_hash">a6321258ca66ef7f2c88713e62cd2461</property>
  <property name="kdenlive:original.backup">1</property>
  <property name="kdenlive:file_hash">a6321258ca66ef7f2c88713e62cd2461</property>
 </producer>
 <producer id="producer244" in="00:00:00.000" out="00:00:04.983">
  <property name="length">00:00:05.000</property>
  <property name="eof">pause</property>
  <property name="resource">/home/xiaoxiae/.cache/kdenlive/proxy/d88fa48263a5bbb0bfff6ea9c09c7375.png</property>
  <property name="ttl">25</property>
  <property name="aspect_ratio">1</property>
  <property name="progressive">1</property>
  <property name="seekable">1</property>
  <property name="meta.media.width">800</property>
  <property name="meta.media.height">450</property>
  <property name="mlt_service">qimage</property>
  <property name="kdenlive:clipname">15.png</property>
  <property name="kdenlive:duration">00:00:05.000</property>
  <property name="kdenlive:folderid">266</property>
  <property name="kdenlive:id">272</property>
  <property name="kdenlive:file_size">309931</property>
  <property name="kdenlive:proxy">/home/xiaoxiae/.cache/kdenlive/proxy/d88fa48263a5bbb0bfff6ea9c09c7375.png</property>
  <property name="kdenlive:originalurl">video/ProgrammingModel/img/15.png</property>
  <property name="kdenlive:original.mlt_type">producer</property>
  <property name="kdenlive:original.in">0</property>
  <property name="kdenlive:original.out">299</property>
  <property name="kdenlive:original.length">00:00:05.000</property>
  <property name="kdenlive:original.eof">pause</property>
  <property name="kdenlive:original.resource">video/ProgrammingModel/img/15.png</property>
  <property name="kdenlive:original.ttl">25</property>
  <property name="kdenlive:original.aspect_ratio">1</property>
  <property name="kdenlive:original.progressive">1</property>
  <property name="kdenlive:original.seekable">1</property>
  <property name="kdenlive:original.meta.media.width">3840</property>
  <property name="kdenlive:original.meta.media.height">2160</property>
  <property name="kdenlive:original.mlt_service">qimage</property>
  <property name="kdenlive:original.kdenlive:duration">00:00:05.000</property>
  <property name="kdenlive:original.kdenlive:folderid">266</property>
  <property name="kdenlive:original.kdenlive:id">273</property>
  <property name="kdenlive:original.kdenlive:file_size">309931</property>
  <property name="kdenlive:original.kdenlive:file_hash">d88fa48263a5bbb0bfff6ea9c09c7375</property>
  <property name="kdenlive:original.backup">1</property>
  <property name="kdenlive:file_hash">d88fa48263a5bbb0bfff6ea9c09c7375</property>
 </producer>
 <producer id="producer245" in="00:00:00.000" out="00:00:04.983">
  <property name="length">00:00:05.000</property>
  <property name="eof">pause</property>
  <property name="resource">/home/xiaoxiae/.cache/kdenlive/proxy/c756005d295887ec70d8cd9b33787b8a.png</property>
  <property name="ttl">25</property>
  <property name="aspect_ratio">1</property>
  <property name="progressive">1</property>
  <property name="seekable">1</property>
  <property name="meta.media.width">800</property>
  <property name="meta.media.height">450</property>
  <property name="mlt_service">qimage</property>
  <property name="kdenlive:clipname">16.png</property>
  <property name="kdenlive:duration">00:00:05.000</property>
  <property name="kdenlive:folderid">266</property>
  <property name="kdenlive:id">273</property>
  <property name="kdenlive:file_size">311981</property>
  <property name="kdenlive:proxy">/home/xiaoxiae/.cache/kdenlive/proxy/c756005d295887ec70d8cd9b33787b8a.png</property>
  <property name="kdenlive:originalurl">video/ProgrammingModel/img/16.png</property>
  <property name="kdenlive:original.mlt_type">producer</property>
  <property name="kdenlive:original.in">0</property>
  <property name="kdenlive:original.out">299</property>
  <property name="kdenlive:original.length">00:00:05.000</property>
  <property name="kdenlive:original.eof">pause</property>
  <property name="kdenlive:original.resource">video/ProgrammingModel/img/16.png</property>
  <property name="kdenlive:original.ttl">25</property>
  <property name="kdenlive:original.aspect_ratio">1</property>
  <property name="kdenlive:original.progressive">1</property>
  <property name="kdenlive:original.seekable">1</property>
  <property name="kdenlive:original.meta.media.width">3840</property>
  <property name="kdenlive:original.meta.media.height">2160</property>
  <property name="kdenlive:original.mlt_service">qimage</property>
  <property name="kdenlive:original.kdenlive:duration">00:00:05.000</property>
  <property name="kdenlive:original.kdenlive:folderid">266</property>
  <property name="kdenlive:original.kdenlive:id">274</property>
  <property name="kdenlive:original.kdenlive:file_size">311981</property>
  <property name="kdenlive:original.kdenlive:file_hash">c756005d295887ec70d8cd9b33787b8a</property>
  <property name="kdenlive:original.backup">1</property>
  <property name="kdenlive:file_hash">c756005d295887ec70d8cd9b33787b8a</property>
 </producer>
 <producer id="producer246" in="00:00:00.000" out="00:00:04.983">
  <property name="length">00:00:05.000</property>
  <property name="eof">pause</property>
  <property name="resource">/home/xiaoxiae/.cache/kdenlive/proxy/56d6881b22bfb1827a9948418a74de54.png</property>
  <property name="ttl">25</property>
  <property name="aspect_ratio">1</property>
  <property name="progressive">1</property>
  <property name="seekable">1</property>
  <property name="meta.media.width">800</property>
  <property name="meta.media.height">450</property>
  <property name="mlt_service">qimage</property>
  <property name="kdenlive:clipname">17.png</property>
  <property name="kdenlive:duration">00:00:05.000</property>
  <property name="kdenlive:folderid">266</property>
  <property name="kdenlive:id">274</property>
  <property name="kdenlive:file_size">352089</property>
  <property name="kdenlive:proxy">/home/xiaoxiae/.cache/kdenlive/proxy/56d6881b22bfb1827a9948418a74de54.png</property>
  <property name="kdenlive:originalurl">video/ProgrammingModel/img/17.png</property>
  <property name="kdenlive:original.mlt_type">producer</property>
  <property name="kdenlive:original.in">0</property>
  <property name="kdenlive:original.out">299</property>
  <property name="kdenlive:original.length">00:00:05.000</property>
  <property name="kdenlive:original.eof">pause</property>
  <property name="kdenlive:original.resource">video/ProgrammingModel/img/17.png</property>
  <property name="kdenlive:original.ttl">25</property>
  <property name="kdenlive:original.aspect_ratio">1</property>
  <property name="kdenlive:original.progressive">1</property>
  <property name="kdenlive:original.seekable">1</property>
  <property name="kdenlive:original.meta.media.width">3840</property>
  <property name="kdenlive:original.meta.media.height">2160</property>
  <property name="kdenlive:original.mlt_service">qimage</property>
  <property name="kdenlive:original.kdenlive:duration">00:00:05.000</property>
  <property name="kdenlive:original.kdenlive:folderid">266</property>
  <property name="kdenlive:original.kdenlive:id">275</property>
  <property name="kdenlive:original.kdenlive:file_size">352089</property>
  <property name="kdenlive:original.kdenlive:file_hash">56d6881b22bfb1827a9948418a74de54</property>
  <property name="kdenlive:original.backup">1</property>
  <property name="kdenlive:file_hash">56d6881b22bfb1827a9948418a74de54</property>
 </producer>
 <producer id="producer247" in="00:00:00.000" out="00:00:06.267">
  <property name="length">00:00:06.283</property>
  <property name="eof">pause</property>
  <property name="resource">/home/xiaoxiae/.cache/kdenlive/proxy/8bf088c24a05a8b0d7c523e9bd7c8853.png</property>
  <property name="ttl">25</property>
  <property name="aspect_ratio">1</property>
  <property name="progressive">1</property>
  <property name="seekable">1</property>
  <property name="meta.media.width">800</property>
  <property name="meta.media.height">450</property>
  <property name="mlt_service">qimage</property>
  <property name="kdenlive:clipname">18.png</property>
  <property name="kdenlive:duration">00:00:05.000</property>
  <property name="kdenlive:folderid">266</property>
  <property name="kdenlive:id">275</property>
  <property name="kdenlive:file_size">368155</property>
  <property name="kdenlive:proxy">/home/xiaoxiae/.cache/kdenlive/proxy/8bf088c24a05a8b0d7c523e9bd7c8853.png</property>
  <property name="kdenlive:originalurl">video/ProgrammingModel/img/18.png</property>
  <property name="kdenlive:original.mlt_type">producer</property>
  <property name="kdenlive:original.in">0</property>
  <property name="kdenlive:original.out">299</property>
  <property name="kdenlive:original.length">00:00:05.000</property>
  <property name="kdenlive:original.eof">pause</property>
  <property name="kdenlive:original.resource">video/ProgrammingModel/img/18.png</property>
  <property name="kdenlive:original.ttl">25</property>
  <property name="kdenlive:original.aspect_ratio">1</property>
  <property name="kdenlive:original.progressive">1</property>
  <property name="kdenlive:original.seekable">1</property>
  <property name="kdenlive:original.meta.media.width">3840</property>
  <property name="kdenlive:original.meta.media.height">2160</property>
  <property name="kdenlive:original.mlt_service">qimage</property>
  <property name="kdenlive:original.kdenlive:duration">00:00:05.000</property>
  <property name="kdenlive:original.kdenlive:folderid">266</property>
  <property name="kdenlive:original.kdenlive:id">276</property>
  <property name="kdenlive:original.kdenlive:file_size">368155</property>
  <property name="kdenlive:original.kdenlive:file_hash">8bf088c24a05a8b0d7c523e9bd7c8853</property>
  <property name="kdenlive:original.backup">1</property>
  <property name="kdenlive:file_hash">8bf088c24a05a8b0d7c523e9bd7c8853</property>
 </producer>
 <producer id="producer249" in="00:00:00.000" out="00:00:04.983">
  <property name="length">00:00:05.000</property>
  <property name="eof">pause</property>
  <property name="resource">/home/xiaoxiae/.cache/kdenlive/proxy/b5bc588fde9e55a16c68a1ef02b137e9.png</property>
  <property name="ttl">25</property>
  <property name="aspect_ratio">1</property>
  <property name="progressive">1</property>
  <property name="seekable">1</property>
  <property name="meta.media.width">800</property>
  <property name="meta.media.height">450</property>
  <property name="mlt_service">qimage</property>
  <property name="kdenlive:clipname">19.png</property>
  <property name="kdenlive:duration">00:00:05.000</property>
  <property name="kdenlive:folderid">266</property>
  <property name="kdenlive:id">276</property>
  <property name="kdenlive:file_size">276424</property>
  <property name="kdenlive:proxy">/home/xiaoxiae/.cache/kdenlive/proxy/b5bc588fde9e55a16c68a1ef02b137e9.png</property>
  <property name="kdenlive:originalurl">video/ProgrammingModel/img/19.png</property>
  <property name="kdenlive:original.mlt_type">producer</property>
  <property name="kdenlive:original.in">0</property>
  <property name="kdenlive:original.out">299</property>
  <property name="kdenlive:original.length">00:00:05.000</property>
  <property name="kdenlive:original.eof">pause</property>
  <property name="kdenlive:original.resource">video/ProgrammingModel/img/19.png</property>
  <property name="kdenlive:original.ttl">25</property>
  <property name="kdenlive:original.aspect_ratio">1</property>
  <property name="kdenlive:original.progressive">1</property>
  <property name="kdenlive:original.seekable">1</property>
  <property name="kdenlive:original.meta.media.width">3840</property>
  <property name="kdenlive:original.meta.media.height">2160</property>
  <property name="kdenlive:original.mlt_service">qimage</property>
  <property name="kdenlive:original.kdenlive:duration">00:00:05.000</property>
  <property name="kdenlive:original.kdenlive:folderid">266</property>
  <property name="kdenlive:original.kdenlive:id">277</property>
  <property name="kdenlive:original.kdenlive:file_size">276424</property>
  <property name="kdenlive:original.kdenlive:file_hash">b5bc588fde9e55a16c68a1ef02b137e9</property>
  <property name="kdenlive:original.backup">1</property>
  <property name="kdenlive:file_hash">b5bc588fde9e55a16c68a1ef02b137e9</property>
 </producer>
 <producer id="producer248" in="00:00:00.000" out="00:00:04.983">
  <property name="length">00:00:05.000</property>
  <property name="eof">pause</property>
  <property name="resource">/home/xiaoxiae/.cache/kdenlive/proxy/6a5dbd48cc57d5e2a6a3ecdd7da48d71.png</property>
  <property name="ttl">25</property>
  <property name="aspect_ratio">1</property>
  <property name="progressive">1</property>
  <property name="seekable">1</property>
  <property name="meta.media.width">800</property>
  <property name="meta.media.height">450</property>
  <property name="mlt_service">qimage</property>
  <property name="kdenlive:clipname">2.png</property>
  <property name="kdenlive:duration">00:00:05.000</property>
  <property name="kdenlive:folderid">266</property>
  <property name="kdenlive:id">277</property>
  <property name="kdenlive:file_size">86404</property>
  <property name="kdenlive:proxy">/home/xiaoxiae/.cache/kdenlive/proxy/6a5dbd48cc57d5e2a6a3ecdd7da48d71.png</property>
  <property name="kdenlive:originalurl">video/ProgrammingModel/img/2.png</property>
  <property name="kdenlive:original.mlt_type">producer</property>
  <property name="kdenlive:original.in">0</property>
  <property name="kdenlive:original.out">299</property>
  <property name="kdenlive:original.length">00:00:05.000</property>
  <property name="kdenlive:original.eof">pause</property>
  <property name="kdenlive:original.resource">video/ProgrammingModel/img/2.png</property>
  <property name="kdenlive:original.ttl">25</property>
  <property name="kdenlive:original.aspect_ratio">1</property>
  <property name="kdenlive:original.progressive">1</property>
  <property name="kdenlive:original.seekable">1</property>
  <property name="kdenlive:original.meta.media.width">3840</property>
  <property name="kdenlive:original.meta.media.height">2160</property>
  <property name="kdenlive:original.mlt_service">qimage</property>
  <property name="kdenlive:original.kdenlive:duration">00:00:05.000</property>
  <property name="kdenlive:original.kdenlive:folderid">266</property>
  <property name="kdenlive:original.kdenlive:id">278</property>
  <property name="kdenlive:original.kdenlive:file_size">86404</property>
  <property name="kdenlive:original.kdenlive:file_hash">6a5dbd48cc57d5e2a6a3ecdd7da48d71</property>
  <property name="kdenlive:original.backup">1</property>
  <property name="kdenlive:file_hash">6a5dbd48cc57d5e2a6a3ecdd7da48d71</property>
 </producer>
 <producer id="producer250" in="00:00:00.000" out="00:00:04.983">
  <property name="length">00:00:05.000</property>
  <property name="eof">pause</property>
  <property name="resource">/home/xiaoxiae/.cache/kdenlive/proxy/331f12b3a01630e3391b663cdcfcaf4d.png</property>
  <property name="ttl">25</property>
  <property name="aspect_ratio">1</property>
  <property name="progressive">1</property>
  <property name="seekable">1</property>
  <property name="meta.media.width">800</property>
  <property name="meta.media.height">450</property>
  <property name="mlt_service">qimage</property>
  <property name="kdenlive:clipname">20.png</property>
  <property name="kdenlive:duration">00:00:05.000</property>
  <property name="kdenlive:folderid">266</property>
  <property name="kdenlive:id">278</property>
  <property name="kdenlive:file_size">276326</property>
  <property name="kdenlive:proxy">/home/xiaoxiae/.cache/kdenlive/proxy/331f12b3a01630e3391b663cdcfcaf4d.png</property>
  <property name="kdenlive:originalurl">video/ProgrammingModel/img/20.png</property>
  <property name="kdenlive:original.mlt_type">producer</property>
  <property name="kdenlive:original.in">0</property>
  <property name="kdenlive:original.out">299</property>
  <property name="kdenlive:original.length">00:00:05.000</property>
  <property name="kdenlive:original.eof">pause</property>
  <property name="kdenlive:original.resource">video/ProgrammingModel/img/20.png</property>
  <property name="kdenlive:original.ttl">25</property>
  <property name="kdenlive:original.aspect_ratio">1</property>
  <property name="kdenlive:original.progressive">1</property>
  <property name="kdenlive:original.seekable">1</property>
  <property name="kdenlive:original.meta.media.width">3840</property>
  <property name="kdenlive:original.meta.media.height">2160</property>
  <property name="kdenlive:original.mlt_service">qimage</property>
  <property name="kdenlive:original.kdenlive:duration">00:00:05.000</property>
  <property name="kdenlive:original.kdenlive:folderid">266</property>
  <property name="kdenlive:original.kdenlive:id">279</property>
  <property name="kdenlive:original.kdenlive:file_size">276326</property>
  <property name="kdenlive:original.kdenlive:file_hash">331f12b3a01630e3391b663cdcfcaf4d</property>
  <property name="kdenlive:original.backup">1</property>
  <property name="kdenlive:file_hash">331f12b3a01630e3391b663cdcfcaf4d</property>
 </producer>
 <producer id="producer251" in="00:00:00.000" out="00:00:04.983">
  <property name="length">00:00:05.000</property>
  <property name="eof">pause</property>
  <property name="resource">/home/xiaoxiae/.cache/kdenlive/proxy/05951c72a6b34bd02a084b71f16e10b9.png</property>
  <property name="ttl">25</property>
  <property name="aspect_ratio">1</property>
  <property name="progressive">1</property>
  <property name="seekable">1</property>
  <property name="meta.media.width">800</property>
  <property name="meta.media.height">450</property>
  <property name="mlt_service">qimage</property>
  <property name="kdenlive:clipname">21.png</property>
  <property name="kdenlive:duration">00:00:05.000</property>
  <property name="kdenlive:folderid">266</property>
  <property name="kdenlive:id">279</property>
  <property name="kdenlive:file_size">295728</property>
  <property name="kdenlive:proxy">/home/xiaoxiae/.cache/kdenlive/proxy/05951c72a6b34bd02a084b71f16e10b9.png</property>
  <property name="kdenlive:originalurl">video/ProgrammingModel/img/21.png</property>
  <property name="kdenlive:original.mlt_type">producer</property>
  <property name="kdenlive:original.in">0</property>
  <property name="kdenlive:original.out">299</property>
  <property name="kdenlive:original.length">00:00:05.000</property>
  <property name="kdenlive:original.eof">pause</property>
  <property name="kdenlive:original.resource">video/ProgrammingModel/img/21.png</property>
  <property name="kdenlive:original.ttl">25</property>
  <property name="kdenlive:original.aspect_ratio">1</property>
  <property name="kdenlive:original.progressive">1</property>
  <property name="kdenlive:original.seekable">1</property>
  <property name="kdenlive:original.meta.media.width">3840</property>
  <property name="kdenlive:original.meta.media.height">2160</property>
  <property name="kdenlive:original.mlt_service">qimage</property>
  <property name="kdenlive:original.kdenlive:duration">00:00:05.000</property>
  <property name="kdenlive:original.kdenlive:folderid">266</property>
  <property name="kdenlive:original.kdenlive:id">280</property>
  <property name="kdenlive:original.kdenlive:file_size">295728</property>
  <property name="kdenlive:original.kdenlive:file_hash">05951c72a6b34bd02a084b71f16e10b9</property>
  <property name="kdenlive:original.backup">1</property>
  <property name="kdenlive:file_hash">05951c72a6b34bd02a084b71f16e10b9</property>
 </producer>
 <producer id="producer252" in="00:00:00.000" out="00:00:06.233">
  <property name="length">00:00:06.250</property>
  <property name="eof">pause</property>
  <property name="resource">/home/xiaoxiae/.cache/kdenlive/proxy/492f73411d73d745c902021a5832acbd.png</property>
  <property name="ttl">25</property>
  <property name="aspect_ratio">1</property>
  <property name="progressive">1</property>
  <property name="seekable">1</property>
  <property name="meta.media.width">800</property>
  <property name="meta.media.height">450</property>
  <property name="mlt_service">qimage</property>
  <property name="kdenlive:clipname">22.png</property>
  <property name="kdenlive:duration">00:00:05.000</property>
  <property name="kdenlive:folderid">266</property>
  <property name="kdenlive:id">280</property>
  <property name="kdenlive:file_size">292329</property>
  <property name="kdenlive:proxy">/home/xiaoxiae/.cache/kdenlive/proxy/492f73411d73d745c902021a5832acbd.png</property>
  <property name="kdenlive:originalurl">video/ProgrammingModel/img/22.png</property>
  <property name="kdenlive:original.mlt_type">producer</property>
  <property name="kdenlive:original.in">0</property>
  <property name="kdenlive:original.out">299</property>
  <property name="kdenlive:original.length">00:00:05.000</property>
  <property name="kdenlive:original.eof">pause</property>
  <property name="kdenlive:original.resource">video/ProgrammingModel/img/22.png</property>
  <property name="kdenlive:original.ttl">25</property>
  <property name="kdenlive:original.aspect_ratio">1</property>
  <property name="kdenlive:original.progressive">1</property>
  <property name="kdenlive:original.seekable">1</property>
  <property name="kdenlive:original.meta.media.width">3840</property>
  <property name="kdenlive:original.meta.media.height">2160</property>
  <property name="kdenlive:original.mlt_service">qimage</property>
  <property name="kdenlive:original.kdenlive:duration">00:00:05.000</property>
  <property name="kdenlive:original.kdenlive:folderid">266</property>
  <property name="kdenlive:original.kdenlive:id">281</property>
  <property name="kdenlive:original.kdenlive:file_size">292329</property>
  <property name="kdenlive:original.kdenlive:file_hash">492f73411d73d745c902021a5832acbd</property>
  <property name="kdenlive:original.backup">1</property>
  <property name="kdenlive:file_hash">492f73411d73d745c902021a5832acbd</property>
 </producer>
 <producer id="producer253" in="00:00:00.000" out="00:00:04.983">
  <property name="length">00:00:05.000</property>
  <property name="eof">pause</property>
  <property name="resource">/home/xiaoxiae/.cache/kdenlive/proxy/b6a6bfba29a8a59e4c37f224f5905839.png</property>
  <property name="ttl">25</property>
  <property name="aspect_ratio">1</property>
  <property name="progressive">1</property>
  <property name="seekable">1</property>
  <property name="meta.media.width">800</property>
  <property name="meta.media.height">450</property>
  <property name="mlt_service">qimage</property>
  <property name="kdenlive:clipname">23.png</property>
  <property name="kdenlive:duration">00:00:05.000</property>
  <property name="kdenlive:folderid">266</property>
  <property name="kdenlive:id">281</property>
  <property name="kdenlive:file_size">299367</property>
  <property name="kdenlive:proxy">/home/xiaoxiae/.cache/kdenlive/proxy/b6a6bfba29a8a59e4c37f224f5905839.png</property>
  <property name="kdenlive:originalurl">video/ProgrammingModel/img/23.png</property>
  <property name="kdenlive:original.mlt_type">producer</property>
  <property name="kdenlive:original.in">0</property>
  <property name="kdenlive:original.out">299</property>
  <property name="kdenlive:original.length">00:00:05.000</property>
  <property name="kdenlive:original.eof">pause</property>
  <property name="kdenlive:original.resource">video/ProgrammingModel/img/23.png</property>
  <property name="kdenlive:original.ttl">25</property>
  <property name="kdenlive:original.aspect_ratio">1</property>
  <property name="kdenlive:original.progressive">1</property>
  <property name="kdenlive:original.seekable">1</property>
  <property name="kdenlive:original.meta.media.width">3840</property>
  <property name="kdenlive:original.meta.media.height">2160</property>
  <property name="kdenlive:original.mlt_service">qimage</property>
  <property name="kdenlive:original.kdenlive:duration">00:00:05.000</property>
  <property name="kdenlive:original.kdenlive:folderid">266</property>
  <property name="kdenlive:original.kdenlive:id">282</property>
  <property name="kdenlive:original.kdenlive:file_size">299367</property>
  <property name="kdenlive:original.kdenlive:file_hash">b6a6bfba29a8a59e4c37f224f5905839</property>
  <property name="kdenlive:original.backup">1</property>
  <property name="kdenlive:file_hash">b6a6bfba29a8a59e4c37f224f5905839</property>
 </producer>
 <producer id="producer254" in="00:00:00.000" out="00:00:04.983">
  <property name="length">00:00:05.000</property>
  <property name="eof">pause</property>
  <property name="resource">/home/xiaoxiae/.cache/kdenlive/proxy/cababee15fdc154b2b975d48b73454d6.png</property>
  <property name="ttl">25</property>
  <property name="aspect_ratio">1</property>
  <property name="progressive">1</property>
  <property name="seekable">1</property>
  <property name="meta.media.width">800</property>
  <property name="meta.media.height">450</property>
  <property name="mlt_service">qimage</property>
  <property name="kdenlive:clipname">24.png</property>
  <property name="kdenlive:duration">00:00:05.000</property>
  <property name="kdenlive:folderid">266</property>
  <property name="kdenlive:id">282</property>
  <property name="kdenlive:file_size">311716</property>
  <property name="kdenlive:proxy">/home/xiaoxiae/.cache/kdenlive/proxy/cababee15fdc154b2b975d48b73454d6.png</property>
  <property name="kdenlive:originalurl">video/ProgrammingModel/img/24.png</property>
  <property name="kdenlive:original.mlt_type">producer</property>
  <property name="kdenlive:original.in">0</property>
  <property name="kdenlive:original.out">299</property>
  <property name="kdenlive:original.length">00:00:05.000</property>
  <property name="kdenlive:original.eof">pause</property>
  <property name="kdenlive:original.resource">video/ProgrammingModel/img/24.png</property>
  <property name="kdenlive:original.ttl">25</property>
  <property name="kdenlive:original.aspect_ratio">1</property>
  <property name="kdenlive:original.progressive">1</property>
  <property name="kdenlive:original.seekable">1</property>
  <property name="kdenlive:original.meta.media.width">3840</property>
  <property name="kdenlive:original.meta.media.height">2160</property>
  <property name="kdenlive:original.mlt_service">qimage</property>
  <property name="kdenlive:original.kdenlive:duration">00:00:05.000</property>
  <property name="kdenlive:original.kdenlive:folderid">266</property>
  <property name="kdenlive:original.kdenlive:id">283</property>
  <property name="kdenlive:original.kdenlive:file_size">311716</property>
  <property name="kdenlive:original.kdenlive:file_hash">cababee15fdc154b2b975d48b73454d6</property>
  <property name="kdenlive:original.backup">1</property>
  <property name="kdenlive:file_hash">cababee15fdc154b2b975d48b73454d6</property>
 </producer>
 <producer id="producer255" in="00:00:00.000" out="00:00:04.983">
  <property name="length">00:00:05.000</property>
  <property name="eof">pause</property>
  <property name="resource">/home/xiaoxiae/.cache/kdenlive/proxy/cd295c4521bae88d9a86f9c4a95fc1c0.png</property>
  <property name="ttl">25</property>
  <property name="aspect_ratio">1</property>
  <property name="progressive">1</property>
  <property name="seekable">1</property>
  <property name="meta.media.width">800</property>
  <property name="meta.media.height">450</property>
  <property name="mlt_service">qimage</property>
  <property name="kdenlive:clipname">25.png</property>
  <property name="kdenlive:duration">00:00:05.000</property>
  <property name="kdenlive:folderid">266</property>
  <property name="kdenlive:id">283</property>
  <property name="kdenlive:file_size">312485</property>
  <property name="kdenlive:proxy">/home/xiaoxiae/.cache/kdenlive/proxy/cd295c4521bae88d9a86f9c4a95fc1c0.png</property>
  <property name="kdenlive:originalurl">video/ProgrammingModel/img/25.png</property>
  <property name="kdenlive:original.mlt_type">producer</property>
  <property name="kdenlive:original.in">0</property>
  <property name="kdenlive:original.out">299</property>
  <property name="kdenlive:original.length">00:00:05.000</property>
  <property name="kdenlive:original.eof">pause</property>
  <property name="kdenlive:original.resource">video/ProgrammingModel/img/25.png</property>
  <property name="kdenlive:original.ttl">25</property>
  <property name="kdenlive:original.aspect_ratio">1</property>
  <property name="kdenlive:original.progressive">1</property>
  <property name="kdenlive:original.seekable">1</property>
  <property name="kdenlive:original.meta.media.width">3840</property>
  <property name="kdenlive:original.meta.media.height">2160</property>
  <property name="kdenlive:original.mlt_service">qimage</property>
  <property name="kdenlive:original.kdenlive:duration">00:00:05.000</property>
  <property name="kdenlive:original.kdenlive:folderid">266</property>
  <property name="kdenlive:original.kdenlive:id">284</property>
  <property name="kdenlive:original.kdenlive:file_size">312485</property>
  <property name="kdenlive:original.kdenlive:file_hash">cd295c4521bae88d9a86f9c4a95fc1c0</property>
  <property name="kdenlive:original.backup">1</property>
  <property name="kdenlive:file_hash">cd295c4521bae88d9a86f9c4a95fc1c0</property>
 </producer>
 <producer id="producer256" in="00:00:00.000" out="00:00:04.983">
  <property name="length">00:00:05.000</property>
  <property name="eof">pause</property>
  <property name="resource">/home/xiaoxiae/.cache/kdenlive/proxy/bf39746df9c2027dcca88dd02c575b8e.png</property>
  <property name="ttl">25</property>
  <property name="aspect_ratio">1</property>
  <property name="progressive">1</property>
  <property name="seekable">1</property>
  <property name="meta.media.width">800</property>
  <property name="meta.media.height">450</property>
  <property name="mlt_service">qimage</property>
  <property name="kdenlive:clipname">26.png</property>
  <property name="kdenlive:duration">00:00:05.000</property>
  <property name="kdenlive:folderid">266</property>
  <property name="kdenlive:id">284</property>
  <property name="kdenlive:file_size">317112</property>
  <property name="kdenlive:proxy">/home/xiaoxiae/.cache/kdenlive/proxy/bf39746df9c2027dcca88dd02c575b8e.png</property>
  <property name="kdenlive:originalurl">video/ProgrammingModel/img/26.png</property>
  <property name="kdenlive:original.mlt_type">producer</property>
  <property name="kdenlive:original.in">0</property>
  <property name="kdenlive:original.out">299</property>
  <property name="kdenlive:original.length">00:00:05.000</property>
  <property name="kdenlive:original.eof">pause</property>
  <property name="kdenlive:original.resource">video/ProgrammingModel/img/26.png</property>
  <property name="kdenlive:original.ttl">25</property>
  <property name="kdenlive:original.aspect_ratio">1</property>
  <property name="kdenlive:original.progressive">1</property>
  <property name="kdenlive:original.seekable">1</property>
  <property name="kdenlive:original.meta.media.width">3840</property>
  <property name="kdenlive:original.meta.media.height">2160</property>
  <property name="kdenlive:original.mlt_service">qimage</property>
  <property name="kdenlive:original.kdenlive:duration">00:00:05.000</property>
  <property name="kdenlive:original.kdenlive:folderid">266</property>
  <property name="kdenlive:original.kdenlive:id">285</property>
  <property name="kdenlive:original.kdenlive:file_size">317112</property>
  <property name="kdenlive:original.kdenlive:file_hash">bf39746df9c2027dcca88dd02c575b8e</property>
  <property name="kdenlive:original.backup">1</property>
  <property name="kdenlive:file_hash">bf39746df9c2027dcca88dd02c575b8e</property>
 </producer>
 <producer id="producer260" in="00:00:00.000" out="00:00:04.983">
  <property name="length">00:00:05.000</property>
  <property name="eof">pause</property>
  <property name="resource">/home/xiaoxiae/.cache/kdenlive/proxy/78db92344072ba6cca1081485819ffb9.png</property>
  <property name="ttl">25</property>
  <property name="aspect_ratio">1</property>
  <property name="progressive">1</property>
  <property name="seekable">1</property>
  <property name="meta.media.width">800</property>
  <property name="meta.media.height">450</property>
  <property name="mlt_service">qimage</property>
  <property name="kdenlive:clipname">27.png</property>
  <property name="kdenlive:duration">00:00:05.000</property>
  <property name="kdenlive:folderid">266</property>
  <property name="kdenlive:id">285</property>
  <property name="kdenlive:file_size">326829</property>
  <property name="kdenlive:proxy">/home/xiaoxiae/.cache/kdenlive/proxy/78db92344072ba6cca1081485819ffb9.png</property>
  <property name="kdenlive:originalurl">video/ProgrammingModel/img/27.png</property>
  <property name="kdenlive:original.mlt_type">producer</property>
  <property name="kdenlive:original.in">0</property>
  <property name="kdenlive:original.out">299</property>
  <property name="kdenlive:original.length">00:00:05.000</property>
  <property name="kdenlive:original.eof">pause</property>
  <property name="kdenlive:original.resource">video/ProgrammingModel/img/27.png</property>
  <property name="kdenlive:original.ttl">25</property>
  <property name="kdenlive:original.aspect_ratio">1</property>
  <property name="kdenlive:original.progressive">1</property>
  <property name="kdenlive:original.seekable">1</property>
  <property name="kdenlive:original.meta.media.width">3840</property>
  <property name="kdenlive:original.meta.media.height">2160</property>
  <property name="kdenlive:original.mlt_service">qimage</property>
  <property name="kdenlive:original.kdenlive:duration">00:00:05.000</property>
  <property name="kdenlive:original.kdenlive:folderid">266</property>
  <property name="kdenlive:original.kdenlive:id">286</property>
  <property name="kdenlive:original.kdenlive:file_size">326829</property>
  <property name="kdenlive:original.kdenlive:file_hash">78db92344072ba6cca1081485819ffb9</property>
  <property name="kdenlive:original.backup">1</property>
  <property name="kdenlive:file_hash">78db92344072ba6cca1081485819ffb9</property>
 </producer>
 <producer id="producer257" in="00:00:00.000" out="00:00:04.983">
  <property name="length">00:00:05.000</property>
  <property name="eof">pause</property>
  <property name="resource">/home/xiaoxiae/.cache/kdenlive/proxy/41c5b58b3d718704027bf984d19865b0.png</property>
  <property name="ttl">25</property>
  <property name="aspect_ratio">1</property>
  <property name="progressive">1</property>
  <property name="seekable">1</property>
  <property name="meta.media.width">800</property>
  <property name="meta.media.height">450</property>
  <property name="mlt_service">qimage</property>
  <property name="kdenlive:clipname">28.png</property>
  <property name="kdenlive:duration">00:00:05.000</property>
  <property name="kdenlive:folderid">266</property>
  <property name="kdenlive:id">286</property>
  <property name="kdenlive:file_size">346274</property>
  <property name="kdenlive:proxy">/home/xiaoxiae/.cache/kdenlive/proxy/41c5b58b3d718704027bf984d19865b0.png</property>
  <property name="kdenlive:originalurl">video/ProgrammingModel/img/28.png</property>
  <property name="kdenlive:original.mlt_type">producer</property>
  <property name="kdenlive:original.in">0</property>
  <property name="kdenlive:original.out">299</property>
  <property name="kdenlive:original.length">00:00:05.000</property>
  <property name="kdenlive:original.eof">pause</property>
  <property name="kdenlive:original.resource">video/ProgrammingModel/img/28.png</property>
  <property name="kdenlive:original.ttl">25</property>
  <property name="kdenlive:original.aspect_ratio">1</property>
  <property name="kdenlive:original.progressive">1</property>
  <property name="kdenlive:original.seekable">1</property>
  <property name="kdenlive:original.meta.media.width">3840</property>
  <property name="kdenlive:original.meta.media.height">2160</property>
  <property name="kdenlive:original.mlt_service">qimage</property>
  <property name="kdenlive:original.kdenlive:duration">00:00:05.000</property>
  <property name="kdenlive:original.kdenlive:folderid">266</property>
  <property name="kdenlive:original.kdenlive:id">287</property>
  <property name="kdenlive:original.kdenlive:file_size">346274</property>
  <property name="kdenlive:original.kdenlive:file_hash">41c5b58b3d718704027bf984d19865b0</property>
  <property name="kdenlive:original.backup">1</property>
  <property name="kdenlive:file_hash">41c5b58b3d718704027bf984d19865b0</property>
 </producer>
 <producer id="producer258" in="00:00:00.000" out="00:00:04.983">
  <property name="length">00:00:05.000</property>
  <property name="eof">pause</property>
  <property name="resource">/home/xiaoxiae/.cache/kdenlive/proxy/ae57e4a896dd84d7b4a6328378b2d79b.png</property>
  <property name="ttl">25</property>
  <property name="aspect_ratio">1</property>
  <property name="progressive">1</property>
  <property name="seekable">1</property>
  <property name="meta.media.width">800</property>
  <property name="meta.media.height">450</property>
  <property name="mlt_service">qimage</property>
  <property name="kdenlive:clipname">29.png</property>
  <property name="kdenlive:duration">00:00:05.000</property>
  <property name="kdenlive:folderid">266</property>
  <property name="kdenlive:id">287</property>
  <property name="kdenlive:file_size">349123</property>
  <property name="kdenlive:proxy">/home/xiaoxiae/.cache/kdenlive/proxy/ae57e4a896dd84d7b4a6328378b2d79b.png</property>
  <property name="kdenlive:originalurl">video/ProgrammingModel/img/29.png</property>
  <property name="kdenlive:original.mlt_type">producer</property>
  <property name="kdenlive:original.in">0</property>
  <property name="kdenlive:original.out">299</property>
  <property name="kdenlive:original.length">00:00:05.000</property>
  <property name="kdenlive:original.eof">pause</property>
  <property name="kdenlive:original.resource">video/ProgrammingModel/img/29.png</property>
  <property name="kdenlive:original.ttl">25</property>
  <property name="kdenlive:original.aspect_ratio">1</property>
  <property name="kdenlive:original.progressive">1</property>
  <property name="kdenlive:original.seekable">1</property>
  <property name="kdenlive:original.meta.media.width">3840</property>
  <property name="kdenlive:original.meta.media.height">2160</property>
  <property name="kdenlive:original.mlt_service">qimage</property>
  <property name="kdenlive:original.kdenlive:duration">00:00:05.000</property>
  <property name="kdenlive:original.kdenlive:folderid">266</property>
  <property name="kdenlive:original.kdenlive:id">288</property>
  <property name="kdenlive:original.kdenlive:file_size">349123</property>
  <property name="kdenlive:original.kdenlive:file_hash">ae57e4a896dd84d7b4a6328378b2d79b</property>
  <property name="kdenlive:original.backup">1</property>
  <property name="kdenlive:file_hash">ae57e4a896dd84d7b4a6328378b2d79b</property>
 </producer>
 <producer id="producer259" in="00:00:00.000" out="00:00:04.983">
  <property name="length">00:00:05.000</property>
  <property name="eof">pause</property>
  <property name="resource">/home/xiaoxiae/.cache/kdenlive/proxy/e4b581daef1133501870d0f4dbff9c16.png</property>
  <property name="ttl">25</property>
  <property name="aspect_ratio">1</property>
  <property name="progressive">1</property>
  <property name="seekable">1</property>
  <property name="meta.media.width">800</property>
  <property name="meta.media.height">450</property>
  <property name="mlt_service">qimage</property>
  <property name="kdenlive:clipname">3.png</property>
  <property name="kdenlive:duration">00:00:05.000</property>
  <property name="kdenlive:folderid">266</property>
  <property name="kdenlive:id">288</property>
  <property name="kdenlive:file_size">83961</property>
  <property name="kdenlive:proxy">/home/xiaoxiae/.cache/kdenlive/proxy/e4b581daef1133501870d0f4dbff9c16.png</property>
  <property name="kdenlive:originalurl">video/ProgrammingModel/img/3.png</property>
  <property name="kdenlive:original.mlt_type">producer</property>
  <property name="kdenlive:original.in">0</property>
  <property name="kdenlive:original.out">299</property>
  <property name="kdenlive:original.length">00:00:05.000</property>
  <property name="kdenlive:original.eof">pause</property>
  <property name="kdenlive:original.resource">video/ProgrammingModel/img/3.png</property>
  <property name="kdenlive:original.ttl">25</property>
  <property name="kdenlive:original.aspect_ratio">1</property>
  <property name="kdenlive:original.progressive">1</property>
  <property name="kdenlive:original.seekable">1</property>
  <property name="kdenlive:original.meta.media.width">3840</property>
  <property name="kdenlive:original.meta.media.height">2160</property>
  <property name="kdenlive:original.mlt_service">qimage</property>
  <property name="kdenlive:original.kdenlive:duration">00:00:05.000</property>
  <property name="kdenlive:original.kdenlive:folderid">266</property>
  <property name="kdenlive:original.kdenlive:id">289</property>
  <property name="kdenlive:original.kdenlive:file_size">83961</property>
  <property name="kdenlive:original.kdenlive:file_hash">e4b581daef1133501870d0f4dbff9c16</property>
  <property name="kdenlive:original.backup">1</property>
  <property name="kdenlive:file_hash">e4b581daef1133501870d0f4dbff9c16</property>
 </producer>
 <producer id="producer262" in="00:00:00.000" out="00:00:04.983">
  <property name="length">00:00:05.000</property>
  <property name="eof">pause</property>
  <property name="resource">/home/xiaoxiae/.cache/kdenlive/proxy/fdf80dfc35bf9ef4d7dad1b9757b9f8f.png</property>
  <property name="ttl">25</property>
  <property name="aspect_ratio">1</property>
  <property name="progressive">1</property>
  <property name="seekable">1</property>
  <property name="meta.media.width">800</property>
  <property name="meta.media.height">450</property>
  <property name="mlt_service">qimage</property>
  <property name="kdenlive:clipname">30.png</property>
  <property name="kdenlive:duration">00:00:05.000</property>
  <property name="kdenlive:folderid">266</property>
  <property name="kdenlive:id">289</property>
  <property name="kdenlive:file_size">363697</property>
  <property name="kdenlive:proxy">/home/xiaoxiae/.cache/kdenlive/proxy/fdf80dfc35bf9ef4d7dad1b9757b9f8f.png</property>
  <property name="kdenlive:originalurl">video/ProgrammingModel/img/30.png</property>
  <property name="kdenlive:original.mlt_type">producer</property>
  <property name="kdenlive:original.in">0</property>
  <property name="kdenlive:original.out">299</property>
  <property name="kdenlive:original.length">00:00:05.000</property>
  <property name="kdenlive:original.eof">pause</property>
  <property name="kdenlive:original.resource">video/ProgrammingModel/img/30.png</property>
  <property name="kdenlive:original.ttl">25</property>
  <property name="kdenlive:original.aspect_ratio">1</property>
  <property name="kdenlive:original.progressive">1</property>
  <property name="kdenlive:original.seekable">1</property>
  <property name="kdenlive:original.meta.media.width">3840</property>
  <property name="kdenlive:original.meta.media.height">2160</property>
  <property name="kdenlive:original.mlt_service">qimage</property>
  <property name="kdenlive:original.kdenlive:duration">00:00:05.000</property>
  <property name="kdenlive:original.kdenlive:folderid">266</property>
  <property name="kdenlive:original.kdenlive:id">290</property>
  <property name="kdenlive:original.kdenlive:file_size">363697</property>
  <property name="kdenlive:original.kdenlive:file_hash">fdf80dfc35bf9ef4d7dad1b9757b9f8f</property>
  <property name="kdenlive:original.backup">1</property>
  <property name="kdenlive:file_hash">fdf80dfc35bf9ef4d7dad1b9757b9f8f</property>
 </producer>
 <producer id="producer261" in="00:00:00.000" out="00:00:04.983">
  <property name="length">00:00:05.000</property>
  <property name="eof">pause</property>
  <property name="resource">/home/xiaoxiae/.cache/kdenlive/proxy/3068f1284bebd6dd0a4e06e42e3bac9d.png</property>
  <property name="ttl">25</property>
  <property name="aspect_ratio">1</property>
  <property name="progressive">1</property>
  <property name="seekable">1</property>
  <property name="meta.media.width">800</property>
  <property name="meta.media.height">450</property>
  <property name="mlt_service">qimage</property>
  <property name="kdenlive:clipname">31.png</property>
  <property name="kdenlive:duration">00:00:05.000</property>
  <property name="kdenlive:folderid">266</property>
  <property name="kdenlive:id">290</property>
  <property name="kdenlive:file_size">369461</property>
  <property name="kdenlive:proxy">/home/xiaoxiae/.cache/kdenlive/proxy/3068f1284bebd6dd0a4e06e42e3bac9d.png</property>
  <property name="kdenlive:originalurl">video/ProgrammingModel/img/31.png</property>
  <property name="kdenlive:original.mlt_type">producer</property>
  <property name="kdenlive:original.in">0</property>
  <property name="kdenlive:original.out">299</property>
  <property name="kdenlive:original.length">00:00:05.000</property>
  <property name="kdenlive:original.eof">pause</property>
  <property name="kdenlive:original.resource">video/ProgrammingModel/img/31.png</property>
  <property name="kdenlive:original.ttl">25</property>
  <property name="kdenlive:original.aspect_ratio">1</property>
  <property name="kdenlive:original.progressive">1</property>
  <property name="kdenlive:original.seekable">1</property>
  <property name="kdenlive:original.meta.media.width">3840</property>
  <property name="kdenlive:original.meta.media.height">2160</property>
  <property name="kdenlive:original.mlt_service">qimage</property>
  <property name="kdenlive:original.kdenlive:duration">00:00:05.000</property>
  <property name="kdenlive:original.kdenlive:folderid">266</property>
  <property name="kdenlive:original.kdenlive:id">291</property>
  <property name="kdenlive:original.kdenlive:file_size">369461</property>
  <property name="kdenlive:original.kdenlive:file_hash">3068f1284bebd6dd0a4e06e42e3bac9d</property>
  <property name="kdenlive:original.backup">1</property>
  <property name="kdenlive:file_hash">3068f1284bebd6dd0a4e06e42e3bac9d</property>
 </producer>
 <producer id="producer263" in="00:00:00.000" out="00:00:04.983">
  <property name="length">00:00:05.000</property>
  <property name="eof">pause</property>
  <property name="resource">/home/xiaoxiae/.cache/kdenlive/proxy/bb2ffc05253b38b872c049ce42fc59ee.png</property>
  <property name="ttl">25</property>
  <property name="aspect_ratio">1</property>
  <property name="progressive">1</property>
  <property name="seekable">1</property>
  <property name="meta.media.width">800</property>
  <property name="meta.media.height">450</property>
  <property name="mlt_service">qimage</property>
  <property name="kdenlive:clipname">32.png</property>
  <property name="kdenlive:duration">00:00:05.000</property>
  <property name="kdenlive:folderid">266</property>
  <property name="kdenlive:id">291</property>
  <property name="kdenlive:file_size">388137</property>
  <property name="kdenlive:proxy">/home/xiaoxiae/.cache/kdenlive/proxy/bb2ffc05253b38b872c049ce42fc59ee.png</property>
  <property name="kdenlive:originalurl">video/ProgrammingModel/img/32.png</property>
  <property name="kdenlive:original.mlt_type">producer</property>
  <property name="kdenlive:original.in">0</property>
  <property name="kdenlive:original.out">299</property>
  <property name="kdenlive:original.length">00:00:05.000</property>
  <property name="kdenlive:original.eof">pause</property>
  <property name="kdenlive:original.resource">video/ProgrammingModel/img/32.png</property>
  <property name="kdenlive:original.ttl">25</property>
  <property name="kdenlive:original.aspect_ratio">1</property>
  <property name="kdenlive:original.progressive">1</property>
  <property name="kdenlive:original.seekable">1</property>
  <property name="kdenlive:original.meta.media.width">3840</property>
  <property name="kdenlive:original.meta.media.height">2160</property>
  <property name="kdenlive:original.mlt_service">qimage</property>
  <property name="kdenlive:original.kdenlive:duration">00:00:05.000</property>
  <property name="kdenlive:original.kdenlive:folderid">266</property>
  <property name="kdenlive:original.kdenlive:id">292</property>
  <property name="kdenlive:original.kdenlive:file_size">388137</property>
  <property name="kdenlive:original.kdenlive:file_hash">bb2ffc05253b38b872c049ce42fc59ee</property>
  <property name="kdenlive:original.backup">1</property>
  <property name="kdenlive:file_hash">bb2ffc05253b38b872c049ce42fc59ee</property>
 </producer>
 <producer id="producer264" in="00:00:00.000" out="00:00:04.983">
  <property name="length">00:00:05.000</property>
  <property name="eof">pause</property>
  <property name="resource">/home/xiaoxiae/.cache/kdenlive/proxy/e56bc788fa08cb1ad681b402510e365b.png</property>
  <property name="ttl">25</property>
  <property name="aspect_ratio">1</property>
  <property name="progressive">1</property>
  <property name="seekable">1</property>
  <property name="meta.media.width">800</property>
  <property name="meta.media.height">450</property>
  <property name="mlt_service">qimage</property>
  <property name="kdenlive:clipname">33.png</property>
  <property name="kdenlive:duration">00:00:05.000</property>
  <property name="kdenlive:folderid">266</property>
  <property name="kdenlive:id">292</property>
  <property name="kdenlive:file_size">389294</property>
  <property name="kdenlive:proxy">/home/xiaoxiae/.cache/kdenlive/proxy/e56bc788fa08cb1ad681b402510e365b.png</property>
  <property name="kdenlive:originalurl">video/ProgrammingModel/img/33.png</property>
  <property name="kdenlive:original.mlt_type">producer</property>
  <property name="kdenlive:original.in">0</property>
  <property name="kdenlive:original.out">299</property>
  <property name="kdenlive:original.length">00:00:05.000</property>
  <property name="kdenlive:original.eof">pause</property>
  <property name="kdenlive:original.resource">video/ProgrammingModel/img/33.png</property>
  <property name="kdenlive:original.ttl">25</property>
  <property name="kdenlive:original.aspect_ratio">1</property>
  <property name="kdenlive:original.progressive">1</property>
  <property name="kdenlive:original.seekable">1</property>
  <property name="kdenlive:original.meta.media.width">3840</property>
  <property name="kdenlive:original.meta.media.height">2160</property>
  <property name="kdenlive:original.mlt_service">qimage</property>
  <property name="kdenlive:original.kdenlive:duration">00:00:05.000</property>
  <property name="kdenlive:original.kdenlive:folderid">266</property>
  <property name="kdenlive:original.kdenlive:id">293</property>
  <property name="kdenlive:original.kdenlive:file_size">389294</property>
  <property name="kdenlive:original.kdenlive:file_hash">e56bc788fa08cb1ad681b402510e365b</property>
  <property name="kdenlive:original.backup">1</property>
  <property name="kdenlive:file_hash">e56bc788fa08cb1ad681b402510e365b</property>
 </producer>
 <producer id="producer265" in="00:00:00.000" out="00:00:04.983">
  <property name="length">00:00:05.000</property>
  <property name="eof">pause</property>
  <property name="resource">/home/xiaoxiae/.cache/kdenlive/proxy/19c308edcefe7f32e59bf49ee70ceb7e.png</property>
  <property name="ttl">25</property>
  <property name="aspect_ratio">1</property>
  <property name="progressive">1</property>
  <property name="seekable">1</property>
  <property name="meta.media.width">800</property>
  <property name="meta.media.height">450</property>
  <property name="mlt_service">qimage</property>
  <property name="kdenlive:clipname">34.png</property>
  <property name="kdenlive:duration">00:00:05.000</property>
  <property name="kdenlive:folderid">266</property>
  <property name="kdenlive:id">293</property>
  <property name="kdenlive:file_size">409723</property>
  <property name="kdenlive:proxy">/home/xiaoxiae/.cache/kdenlive/proxy/19c308edcefe7f32e59bf49ee70ceb7e.png</property>
  <property name="kdenlive:originalurl">video/ProgrammingModel/img/34.png</property>
  <property name="kdenlive:original.mlt_type">producer</property>
  <property name="kdenlive:original.in">0</property>
  <property name="kdenlive:original.out">299</property>
  <property name="kdenlive:original.length">00:00:05.000</property>
  <property name="kdenlive:original.eof">pause</property>
  <property name="kdenlive:original.resource">video/ProgrammingModel/img/34.png</property>
  <property name="kdenlive:original.ttl">25</property>
  <property name="kdenlive:original.aspect_ratio">1</property>
  <property name="kdenlive:original.progressive">1</property>
  <property name="kdenlive:original.seekable">1</property>
  <property name="kdenlive:original.meta.media.width">3840</property>
  <property name="kdenlive:original.meta.media.height">2160</property>
  <property name="kdenlive:original.mlt_service">qimage</property>
  <property name="kdenlive:original.kdenlive:duration">00:00:05.000</property>
  <property name="kdenlive:original.kdenlive:folderid">266</property>
  <property name="kdenlive:original.kdenlive:id">294</property>
  <property name="kdenlive:original.kdenlive:file_size">409723</property>
  <property name="kdenlive:original.kdenlive:file_hash">19c308edcefe7f32e59bf49ee70ceb7e</property>
  <property name="kdenlive:original.backup">1</property>
  <property name="kdenlive:file_hash">19c308edcefe7f32e59bf49ee70ceb7e</property>
 </producer>
 <producer id="producer266" in="00:00:00.000" out="00:00:04.983">
  <property name="length">00:00:05.000</property>
  <property name="eof">pause</property>
  <property name="resource">/home/xiaoxiae/.cache/kdenlive/proxy/a24443de804495ef8455135cfb8f336d.png</property>
  <property name="ttl">25</property>
  <property name="aspect_ratio">1</property>
  <property name="progressive">1</property>
  <property name="seekable">1</property>
  <property name="meta.media.width">800</property>
  <property name="meta.media.height">450</property>
  <property name="mlt_service">qimage</property>
  <property name="kdenlive:clipname">35.png</property>
  <property name="kdenlive:duration">00:00:05.000</property>
  <property name="kdenlive:folderid">266</property>
  <property name="kdenlive:id">294</property>
  <property name="kdenlive:file_size">410362</property>
  <property name="kdenlive:proxy">/home/xiaoxiae/.cache/kdenlive/proxy/a24443de804495ef8455135cfb8f336d.png</property>
  <property name="kdenlive:originalurl">video/ProgrammingModel/img/35.png</property>
  <property name="kdenlive:original.mlt_type">producer</property>
  <property name="kdenlive:original.in">0</property>
  <property name="kdenlive:original.out">299</property>
  <property name="kdenlive:original.length">00:00:05.000</property>
  <property name="kdenlive:original.eof">pause</property>
  <property name="kdenlive:original.resource">video/ProgrammingModel/img/35.png</property>
  <property name="kdenlive:original.ttl">25</property>
  <property name="kdenlive:original.aspect_ratio">1</property>
  <property name="kdenlive:original.progressive">1</property>
  <property name="kdenlive:original.seekable">1</property>
  <property name="kdenlive:original.meta.media.width">3840</property>
  <property name="kdenlive:original.meta.media.height">2160</property>
  <property name="kdenlive:original.mlt_service">qimage</property>
  <property name="kdenlive:original.kdenlive:duration">00:00:05.000</property>
  <property name="kdenlive:original.kdenlive:folderid">266</property>
  <property name="kdenlive:original.kdenlive:id">295</property>
  <property name="kdenlive:original.kdenlive:file_size">410362</property>
  <property name="kdenlive:original.kdenlive:file_hash">a24443de804495ef8455135cfb8f336d</property>
  <property name="kdenlive:original.backup">1</property>
  <property name="kdenlive:file_hash">a24443de804495ef8455135cfb8f336d</property>
 </producer>
 <producer id="producer267" in="00:00:00.000" out="00:00:04.983">
  <property name="length">00:00:05.000</property>
  <property name="eof">pause</property>
  <property name="resource">/home/xiaoxiae/.cache/kdenlive/proxy/8056a7a96022510e77c4b01d270e7802.png</property>
  <property name="ttl">25</property>
  <property name="aspect_ratio">1</property>
  <property name="progressive">1</property>
  <property name="seekable">1</property>
  <property name="meta.media.width">800</property>
  <property name="meta.media.height">450</property>
  <property name="mlt_service">qimage</property>
  <property name="kdenlive:clipname">36.png</property>
  <property name="kdenlive:duration">00:00:05.000</property>
  <property name="kdenlive:folderid">266</property>
  <property name="kdenlive:id">295</property>
  <property name="kdenlive:file_size">432385</property>
  <property name="kdenlive:proxy">/home/xiaoxiae/.cache/kdenlive/proxy/8056a7a96022510e77c4b01d270e7802.png</property>
  <property name="kdenlive:originalurl">video/ProgrammingModel/img/36.png</property>
  <property name="kdenlive:original.mlt_type">producer</property>
  <property name="kdenlive:original.in">0</property>
  <property name="kdenlive:original.out">299</property>
  <property name="kdenlive:original.length">00:00:05.000</property>
  <property name="kdenlive:original.eof">pause</property>
  <property name="kdenlive:original.resource">video/ProgrammingModel/img/36.png</property>
  <property name="kdenlive:original.ttl">25</property>
  <property name="kdenlive:original.aspect_ratio">1</property>
  <property name="kdenlive:original.progressive">1</property>
  <property name="kdenlive:original.seekable">1</property>
  <property name="kdenlive:original.meta.media.width">3840</property>
  <property name="kdenlive:original.meta.media.height">2160</property>
  <property name="kdenlive:original.mlt_service">qimage</property>
  <property name="kdenlive:original.kdenlive:duration">00:00:05.000</property>
  <property name="kdenlive:original.kdenlive:folderid">266</property>
  <property name="kdenlive:original.kdenlive:id">296</property>
  <property name="kdenlive:original.kdenlive:file_size">432385</property>
  <property name="kdenlive:original.kdenlive:file_hash">8056a7a96022510e77c4b01d270e7802</property>
  <property name="kdenlive:original.backup">1</property>
  <property name="kdenlive:file_hash">8056a7a96022510e77c4b01d270e7802</property>
 </producer>
 <producer id="producer268" in="00:00:00.000" out="00:00:04.983">
  <property name="length">00:00:05.000</property>
  <property name="eof">pause</property>
  <property name="resource">/home/xiaoxiae/.cache/kdenlive/proxy/9693643e80b41095f951c2b285a9da8d.png</property>
  <property name="ttl">25</property>
  <property name="aspect_ratio">1</property>
  <property name="progressive">1</property>
  <property name="seekable">1</property>
  <property name="meta.media.width">800</property>
  <property name="meta.media.height">450</property>
  <property name="mlt_service">qimage</property>
  <property name="kdenlive:clipname">37.png</property>
  <property name="kdenlive:duration">00:00:05.000</property>
  <property name="kdenlive:folderid">266</property>
  <property name="kdenlive:id">296</property>
  <property name="kdenlive:file_size">430837</property>
  <property name="kdenlive:proxy">/home/xiaoxiae/.cache/kdenlive/proxy/9693643e80b41095f951c2b285a9da8d.png</property>
  <property name="kdenlive:originalurl">video/ProgrammingModel/img/37.png</property>
  <property name="kdenlive:original.mlt_type">producer</property>
  <property name="kdenlive:original.in">0</property>
  <property name="kdenlive:original.out">299</property>
  <property name="kdenlive:original.length">00:00:05.000</property>
  <property name="kdenlive:original.eof">pause</property>
  <property name="kdenlive:original.resource">video/ProgrammingModel/img/37.png</property>
  <property name="kdenlive:original.ttl">25</property>
  <property name="kdenlive:original.aspect_ratio">1</property>
  <property name="kdenlive:original.progressive">1</property>
  <property name="kdenlive:original.seekable">1</property>
  <property name="kdenlive:original.meta.media.width">3840</property>
  <property name="kdenlive:original.meta.media.height">2160</property>
  <property name="kdenlive:original.mlt_service">qimage</property>
  <property name="kdenlive:original.kdenlive:duration">00:00:05.000</property>
  <property name="kdenlive:original.kdenlive:folderid">266</property>
  <property name="kdenlive:original.kdenlive:id">297</property>
  <property name="kdenlive:original.kdenlive:file_size">430837</property>
  <property name="kdenlive:original.kdenlive:file_hash">9693643e80b41095f951c2b285a9da8d</property>
  <property name="kdenlive:original.backup">1</property>
  <property name="kdenlive:file_hash">9693643e80b41095f951c2b285a9da8d</property>
 </producer>
 <producer id="producer269" in="00:00:00.000" out="00:00:04.983">
  <property name="length">00:00:05.000</property>
  <property name="eof">pause</property>
  <property name="resource">/home/xiaoxiae/.cache/kdenlive/proxy/7d24d7f71e7d3ee6f838133f5d0b95c3.png</property>
  <property name="ttl">25</property>
  <property name="aspect_ratio">1</property>
  <property name="progressive">1</property>
  <property name="seekable">1</property>
  <property name="meta.media.width">800</property>
  <property name="meta.media.height">450</property>
  <property name="mlt_service">qimage</property>
  <property name="kdenlive:clipname">38.png</property>
  <property name="kdenlive:duration">00:00:05.000</property>
  <property name="kdenlive:folderid">266</property>
  <property name="kdenlive:id">297</property>
  <property name="kdenlive:file_size">449083</property>
  <property name="kdenlive:proxy">/home/xiaoxiae/.cache/kdenlive/proxy/7d24d7f71e7d3ee6f838133f5d0b95c3.png</property>
  <property name="kdenlive:originalurl">video/ProgrammingModel/img/38.png</property>
  <property name="kdenlive:original.mlt_type">producer</property>
  <property name="kdenlive:original.in">0</property>
  <property name="kdenlive:original.out">299</property>
  <property name="kdenlive:original.length">00:00:05.000</property>
  <property name="kdenlive:original.eof">pause</property>
  <property name="kdenlive:original.resource">video/ProgrammingModel/img/38.png</property>
  <property name="kdenlive:original.ttl">25</property>
  <property name="kdenlive:original.aspect_ratio">1</property>
  <property name="kdenlive:original.progressive">1</property>
  <property name="kdenlive:original.seekable">1</property>
  <property name="kdenlive:original.meta.media.width">3840</property>
  <property name="kdenlive:original.meta.media.height">2160</property>
  <property name="kdenlive:original.mlt_service">qimage</property>
  <property name="kdenlive:original.kdenlive:duration">00:00:05.000</property>
  <property name="kdenlive:original.kdenlive:folderid">266</property>
  <property name="kdenlive:original.kdenlive:id">298</property>
  <property name="kdenlive:original.kdenlive:file_size">449083</property>
  <property name="kdenlive:original.kdenlive:file_hash">7d24d7f71e7d3ee6f838133f5d0b95c3</property>
  <property name="kdenlive:original.backup">1</property>
  <property name="kdenlive:file_hash">7d24d7f71e7d3ee6f838133f5d0b95c3</property>
 </producer>
 <producer id="producer270" in="00:00:00.000" out="00:00:04.983">
  <property name="length">00:00:05.000</property>
  <property name="eof">pause</property>
  <property name="resource">/home/xiaoxiae/.cache/kdenlive/proxy/9a640d1b85a7f72e3a38f48638b510af.png</property>
  <property name="ttl">25</property>
  <property name="aspect_ratio">1</property>
  <property name="progressive">1</property>
  <property name="seekable">1</property>
  <property name="meta.media.width">800</property>
  <property name="meta.media.height">450</property>
  <property name="mlt_service">qimage</property>
  <property name="kdenlive:clipname">39.png</property>
  <property name="kdenlive:duration">00:00:05.000</property>
  <property name="kdenlive:folderid">266</property>
  <property name="kdenlive:id">298</property>
  <property name="kdenlive:file_size">450987</property>
  <property name="kdenlive:proxy">/home/xiaoxiae/.cache/kdenlive/proxy/9a640d1b85a7f72e3a38f48638b510af.png</property>
  <property name="kdenlive:originalurl">video/ProgrammingModel/img/39.png</property>
  <property name="kdenlive:original.mlt_type">producer</property>
  <property name="kdenlive:original.in">0</property>
  <property name="kdenlive:original.out">299</property>
  <property name="kdenlive:original.length">00:00:05.000</property>
  <property name="kdenlive:original.eof">pause</property>
  <property name="kdenlive:original.resource">video/ProgrammingModel/img/39.png</property>
  <property name="kdenlive:original.ttl">25</property>
  <property name="kdenlive:original.aspect_ratio">1</property>
  <property name="kdenlive:original.progressive">1</property>
  <property name="kdenlive:original.seekable">1</property>
  <property name="kdenlive:original.meta.media.width">3840</property>
  <property name="kdenlive:original.meta.media.height">2160</property>
  <property name="kdenlive:original.mlt_service">qimage</property>
  <property name="kdenlive:original.kdenlive:duration">00:00:05.000</property>
  <property name="kdenlive:original.kdenlive:folderid">266</property>
  <property name="kdenlive:original.kdenlive:id">299</property>
  <property name="kdenlive:original.kdenlive:file_size">450987</property>
  <property name="kdenlive:original.kdenlive:file_hash">9a640d1b85a7f72e3a38f48638b510af</property>
  <property name="kdenlive:original.backup">1</property>
  <property name="kdenlive:file_hash">9a640d1b85a7f72e3a38f48638b510af</property>
 </producer>
 <producer id="producer271" in="00:00:00.000" out="00:00:04.983">
  <property name="length">00:00:05.000</property>
  <property name="eof">pause</property>
  <property name="resource">/home/xiaoxiae/.cache/kdenlive/proxy/745229b463c39b61bbf491b731a48d42.png</property>
  <property name="ttl">25</property>
  <property name="aspect_ratio">1</property>
  <property name="progressive">1</property>
  <property name="seekable">1</property>
  <property name="meta.media.width">800</property>
  <property name="meta.media.height">450</property>
  <property name="mlt_service">qimage</property>
  <property name="kdenlive:clipname">4.png</property>
  <property name="kdenlive:duration">00:00:05.000</property>
  <property name="kdenlive:folderid">266</property>
  <property name="kdenlive:id">299</property>
  <property name="kdenlive:file_size">93207</property>
  <property name="kdenlive:proxy">/home/xiaoxiae/.cache/kdenlive/proxy/745229b463c39b61bbf491b731a48d42.png</property>
  <property name="kdenlive:originalurl">video/ProgrammingModel/img/4.png</property>
  <property name="kdenlive:original.mlt_type">producer</property>
  <property name="kdenlive:original.in">0</property>
  <property name="kdenlive:original.out">299</property>
  <property name="kdenlive:original.length">00:00:05.000</property>
  <property name="kdenlive:original.eof">pause</property>
  <property name="kdenlive:original.resource">video/ProgrammingModel/img/4.png</property>
  <property name="kdenlive:original.ttl">25</property>
  <property name="kdenlive:original.aspect_ratio">1</property>
  <property name="kdenlive:original.progressive">1</property>
  <property name="kdenlive:original.seekable">1</property>
  <property name="kdenlive:original.meta.media.width">3840</property>
  <property name="kdenlive:original.meta.media.height">2160</property>
  <property name="kdenlive:original.mlt_service">qimage</property>
  <property name="kdenlive:original.kdenlive:duration">00:00:05.000</property>
  <property name="kdenlive:original.kdenlive:folderid">266</property>
  <property name="kdenlive:original.kdenlive:id">300</property>
  <property name="kdenlive:original.kdenlive:file_size">93207</property>
  <property name="kdenlive:original.kdenlive:file_hash">745229b463c39b61bbf491b731a48d42</property>
  <property name="kdenlive:original.backup">1</property>
  <property name="kdenlive:file_hash">745229b463c39b61bbf491b731a48d42</property>
 </producer>
 <producer id="producer272" in="00:00:00.000" out="00:00:04.983">
  <property name="length">00:00:05.000</property>
  <property name="eof">pause</property>
  <property name="resource">/home/xiaoxiae/.cache/kdenlive/proxy/92a1b8b68c357b7b493c0d47e6d11db7.png</property>
  <property name="ttl">25</property>
  <property name="aspect_ratio">1</property>
  <property name="progressive">1</property>
  <property name="seekable">1</property>
  <property name="meta.media.width">800</property>
  <property name="meta.media.height">450</property>
  <property name="mlt_service">qimage</property>
  <property name="kdenlive:clipname">40.png</property>
  <property name="kdenlive:duration">00:00:05.000</property>
  <property name="kdenlive:folderid">266</property>
  <property name="kdenlive:id">300</property>
  <property name="kdenlive:file_size">463858</property>
  <property name="kdenlive:proxy">/home/xiaoxiae/.cache/kdenlive/proxy/92a1b8b68c357b7b493c0d47e6d11db7.png</property>
  <property name="kdenlive:originalurl">video/ProgrammingModel/img/40.png</property>
  <property name="kdenlive:original.mlt_type">producer</property>
  <property name="kdenlive:original.in">0</property>
  <property name="kdenlive:original.out">299</property>
  <property name="kdenlive:original.length">00:00:05.000</property>
  <property name="kdenlive:original.eof">pause</property>
  <property name="kdenlive:original.resource">video/ProgrammingModel/img/40.png</property>
  <property name="kdenlive:original.ttl">25</property>
  <property name="kdenlive:original.aspect_ratio">1</property>
  <property name="kdenlive:original.progressive">1</property>
  <property name="kdenlive:original.seekable">1</property>
  <property name="kdenlive:original.meta.media.width">3840</property>
  <property name="kdenlive:original.meta.media.height">2160</property>
  <property name="kdenlive:original.mlt_service">qimage</property>
  <property name="kdenlive:original.kdenlive:duration">00:00:05.000</property>
  <property name="kdenlive:original.kdenlive:folderid">266</property>
  <property name="kdenlive:original.kdenlive:id">301</property>
  <property name="kdenlive:original.kdenlive:file_size">463858</property>
  <property name="kdenlive:original.kdenlive:file_hash">92a1b8b68c357b7b493c0d47e6d11db7</property>
  <property name="kdenlive:original.backup">1</property>
  <property name="kdenlive:file_hash">92a1b8b68c357b7b493c0d47e6d11db7</property>
 </producer>
 <producer id="producer273" in="00:00:00.000" out="00:00:04.983">
  <property name="length">00:00:05.000</property>
  <property name="eof">pause</property>
  <property name="resource">/home/xiaoxiae/.cache/kdenlive/proxy/930427b4c9eaf4b42d22c88da6502595.png</property>
  <property name="ttl">25</property>
  <property name="aspect_ratio">1</property>
  <property name="progressive">1</property>
  <property name="seekable">1</property>
  <property name="meta.media.width">800</property>
  <property name="meta.media.height">450</property>
  <property name="mlt_service">qimage</property>
  <property name="kdenlive:clipname">41.png</property>
  <property name="kdenlive:duration">00:00:05.000</property>
  <property name="kdenlive:folderid">266</property>
  <property name="kdenlive:id">301</property>
  <property name="kdenlive:file_size">469069</property>
  <property name="kdenlive:proxy">/home/xiaoxiae/.cache/kdenlive/proxy/930427b4c9eaf4b42d22c88da6502595.png</property>
  <property name="kdenlive:originalurl">video/ProgrammingModel/img/41.png</property>
  <property name="kdenlive:original.mlt_type">producer</property>
  <property name="kdenlive:original.in">0</property>
  <property name="kdenlive:original.out">299</property>
  <property name="kdenlive:original.length">00:00:05.000</property>
  <property name="kdenlive:original.eof">pause</property>
  <property name="kdenlive:original.resource">video/ProgrammingModel/img/41.png</property>
  <property name="kdenlive:original.ttl">25</property>
  <property name="kdenlive:original.aspect_ratio">1</property>
  <property name="kdenlive:original.progressive">1</property>
  <property name="kdenlive:original.seekable">1</property>
  <property name="kdenlive:original.meta.media.width">3840</property>
  <property name="kdenlive:original.meta.media.height">2160</property>
  <property name="kdenlive:original.mlt_service">qimage</property>
  <property name="kdenlive:original.kdenlive:duration">00:00:05.000</property>
  <property name="kdenlive:original.kdenlive:folderid">266</property>
  <property name="kdenlive:original.kdenlive:id">302</property>
  <property name="kdenlive:original.kdenlive:file_size">469069</property>
  <property name="kdenlive:original.kdenlive:file_hash">930427b4c9eaf4b42d22c88da6502595</property>
  <property name="kdenlive:original.backup">1</property>
  <property name="kdenlive:file_hash">930427b4c9eaf4b42d22c88da6502595</property>
 </producer>
 <producer id="producer275" in="00:00:00.000" out="00:00:04.983">
  <property name="length">00:00:05.000</property>
  <property name="eof">pause</property>
  <property name="resource">/home/xiaoxiae/.cache/kdenlive/proxy/da2dfa4cc2bcc2cd59817a234f8630fa.png</property>
  <property name="ttl">25</property>
  <property name="aspect_ratio">1</property>
  <property name="progressive">1</property>
  <property name="seekable">1</property>
  <property name="meta.media.width">800</property>
  <property name="meta.media.height">450</property>
  <property name="mlt_service">qimage</property>
  <property name="kdenlive:clipname">42.png</property>
  <property name="kdenlive:duration">00:00:05.000</property>
  <property name="kdenlive:folderid">266</property>
  <property name="kdenlive:id">302</property>
  <property name="kdenlive:file_size">486624</property>
  <property name="kdenlive:proxy">/home/xiaoxiae/.cache/kdenlive/proxy/da2dfa4cc2bcc2cd59817a234f8630fa.png</property>
  <property name="kdenlive:originalurl">video/ProgrammingModel/img/42.png</property>
  <property name="kdenlive:original.mlt_type">producer</property>
  <property name="kdenlive:original.in">0</property>
  <property name="kdenlive:original.out">299</property>
  <property name="kdenlive:original.length">00:00:05.000</property>
  <property name="kdenlive:original.eof">pause</property>
  <property name="kdenlive:original.resource">video/ProgrammingModel/img/42.png</property>
  <property name="kdenlive:original.ttl">25</property>
  <property name="kdenlive:original.aspect_ratio">1</property>
  <property name="kdenlive:original.progressive">1</property>
  <property name="kdenlive:original.seekable">1</property>
  <property name="kdenlive:original.meta.media.width">3840</property>
  <property name="kdenlive:original.meta.media.height">2160</property>
  <property name="kdenlive:original.mlt_service">qimage</property>
  <property name="kdenlive:original.kdenlive:duration">00:00:05.000</property>
  <property name="kdenlive:original.kdenlive:folderid">266</property>
  <property name="kdenlive:original.kdenlive:id">303</property>
  <property name="kdenlive:original.kdenlive:file_size">486624</property>
  <property name="kdenlive:original.kdenlive:file_hash">da2dfa4cc2bcc2cd59817a234f8630fa</property>
  <property name="kdenlive:original.backup">1</property>
  <property name="kdenlive:file_hash">da2dfa4cc2bcc2cd59817a234f8630fa</property>
 </producer>
 <producer id="producer274" in="00:00:00.000" out="00:00:04.983">
  <property name="length">00:00:05.000</property>
  <property name="eof">pause</property>
  <property name="resource">/home/xiaoxiae/.cache/kdenlive/proxy/bb86127f690b93b4634cb548a355b2a1.png</property>
  <property name="ttl">25</property>
  <property name="aspect_ratio">1</property>
  <property name="progressive">1</property>
  <property name="seekable">1</property>
  <property name="meta.media.width">800</property>
  <property name="meta.media.height">450</property>
  <property name="mlt_service">qimage</property>
  <property name="kdenlive:clipname">43.png</property>
  <property name="kdenlive:duration">00:00:05.000</property>
  <property name="kdenlive:folderid">266</property>
  <property name="kdenlive:id">303</property>
  <property name="kdenlive:file_size">487485</property>
  <property name="kdenlive:proxy">/home/xiaoxiae/.cache/kdenlive/proxy/bb86127f690b93b4634cb548a355b2a1.png</property>
  <property name="kdenlive:originalurl">video/ProgrammingModel/img/43.png</property>
  <property name="kdenlive:original.mlt_type">producer</property>
  <property name="kdenlive:original.in">0</property>
  <property name="kdenlive:original.out">299</property>
  <property name="kdenlive:original.length">00:00:05.000</property>
  <property name="kdenlive:original.eof">pause</property>
  <property name="kdenlive:original.resource">video/ProgrammingModel/img/43.png</property>
  <property name="kdenlive:original.ttl">25</property>
  <property name="kdenlive:original.aspect_ratio">1</property>
  <property name="kdenlive:original.progressive">1</property>
  <property name="kdenlive:original.seekable">1</property>
  <property name="kdenlive:original.meta.media.width">3840</property>
  <property name="kdenlive:original.meta.media.height">2160</property>
  <property name="kdenlive:original.mlt_service">qimage</property>
  <property name="kdenlive:original.kdenlive:duration">00:00:05.000</property>
  <property name="kdenlive:original.kdenlive:folderid">266</property>
  <property name="kdenlive:original.kdenlive:id">304</property>
  <property name="kdenlive:original.kdenlive:file_size">487485</property>
  <property name="kdenlive:original.kdenlive:file_hash">bb86127f690b93b4634cb548a355b2a1</property>
  <property name="kdenlive:original.backup">1</property>
  <property name="kdenlive:file_hash">bb86127f690b93b4634cb548a355b2a1</property>
 </producer>
 <producer id="producer276" in="00:00:00.000" out="00:00:04.983">
  <property name="length">00:00:05.000</property>
  <property name="eof">pause</property>
  <property name="resource">/home/xiaoxiae/.cache/kdenlive/proxy/3428577b5eb2249e3ddcc57adcd883e4.png</property>
  <property name="ttl">25</property>
  <property name="aspect_ratio">1</property>
  <property name="progressive">1</property>
  <property name="seekable">1</property>
  <property name="meta.media.width">800</property>
  <property name="meta.media.height">450</property>
  <property name="mlt_service">qimage</property>
  <property name="kdenlive:clipname">44.png</property>
  <property name="kdenlive:duration">00:00:05.000</property>
  <property name="kdenlive:folderid">266</property>
  <property name="kdenlive:id">304</property>
  <property name="kdenlive:file_size">487065</property>
  <property name="kdenlive:proxy">/home/xiaoxiae/.cache/kdenlive/proxy/3428577b5eb2249e3ddcc57adcd883e4.png</property>
  <property name="kdenlive:originalurl">video/ProgrammingModel/img/44.png</property>
  <property name="kdenlive:original.mlt_type">producer</property>
  <property name="kdenlive:original.in">0</property>
  <property name="kdenlive:original.out">299</property>
  <property name="kdenlive:original.length">00:00:05.000</property>
  <property name="kdenlive:original.eof">pause</property>
  <property name="kdenlive:original.resource">video/ProgrammingModel/img/44.png</property>
  <property name="kdenlive:original.ttl">25</property>
  <property name="kdenlive:original.aspect_ratio">1</property>
  <property name="kdenlive:original.progressive">1</property>
  <property name="kdenlive:original.seekable">1</property>
  <property name="kdenlive:original.meta.media.width">3840</property>
  <property name="kdenlive:original.meta.media.height">2160</property>
  <property name="kdenlive:original.mlt_service">qimage</property>
  <property name="kdenlive:original.kdenlive:duration">00:00:05.000</property>
  <property name="kdenlive:original.kdenlive:folderid">266</property>
  <property name="kdenlive:original.kdenlive:id">305</property>
  <property name="kdenlive:original.kdenlive:file_size">487065</property>
  <property name="kdenlive:original.kdenlive:file_hash">3428577b5eb2249e3ddcc57adcd883e4</property>
  <property name="kdenlive:original.backup">1</property>
  <property name="kdenlive:file_hash">3428577b5eb2249e3ddcc57adcd883e4</property>
 </producer>
 <producer id="producer277" in="00:00:00.000" out="00:00:04.983">
  <property name="length">00:00:05.000</property>
  <property name="eof">pause</property>
  <property name="resource">/home/xiaoxiae/.cache/kdenlive/proxy/049901733cf58592800cf6c7095d71cd.png</property>
  <property name="ttl">25</property>
  <property name="aspect_ratio">1</property>
  <property name="progressive">1</property>
  <property name="seekable">1</property>
  <property name="meta.media.width">800</property>
  <property name="meta.media.height">450</property>
  <property name="mlt_service">qimage</property>
  <property name="kdenlive:clipname">45.png</property>
  <property name="kdenlive:duration">00:00:05.000</property>
  <property name="kdenlive:folderid">266</property>
  <property name="kdenlive:id">305</property>
  <property name="kdenlive:file_size">486501</property>
  <property name="kdenlive:proxy">/home/xiaoxiae/.cache/kdenlive/proxy/049901733cf58592800cf6c7095d71cd.png</property>
  <property name="kdenlive:originalurl">video/ProgrammingModel/img/45.png</property>
  <property name="kdenlive:original.mlt_type">producer</property>
  <property name="kdenlive:original.in">0</property>
  <property name="kdenlive:original.out">299</property>
  <property name="kdenlive:original.length">00:00:05.000</property>
  <property name="kdenlive:original.eof">pause</property>
  <property name="kdenlive:original.resource">video/ProgrammingModel/img/45.png</property>
  <property name="kdenlive:original.ttl">25</property>
  <property name="kdenlive:original.aspect_ratio">1</property>
  <property name="kdenlive:original.progressive">1</property>
  <property name="kdenlive:original.seekable">1</property>
  <property name="kdenlive:original.meta.media.width">3840</property>
  <property name="kdenlive:original.meta.media.height">2160</property>
  <property name="kdenlive:original.mlt_service">qimage</property>
  <property name="kdenlive:original.kdenlive:duration">00:00:05.000</property>
  <property name="kdenlive:original.kdenlive:folderid">266</property>
  <property name="kdenlive:original.kdenlive:id">306</property>
  <property name="kdenlive:original.kdenlive:file_size">486501</property>
  <property name="kdenlive:original.kdenlive:file_hash">049901733cf58592800cf6c7095d71cd</property>
  <property name="kdenlive:original.backup">1</property>
  <property name="kdenlive:file_hash">049901733cf58592800cf6c7095d71cd</property>
 </producer>
 <producer id="producer278" in="00:00:00.000" out="00:00:04.983">
  <property name="length">00:00:05.000</property>
  <property name="eof">pause</property>
  <property name="resource">/home/xiaoxiae/.cache/kdenlive/proxy/d80a18db611ce48ae8048c0c2b5933ea.png</property>
  <property name="ttl">25</property>
  <property name="aspect_ratio">1</property>
  <property name="progressive">1</property>
  <property name="seekable">1</property>
  <property name="meta.media.width">800</property>
  <property name="meta.media.height">450</property>
  <property name="mlt_service">qimage</property>
  <property name="kdenlive:clipname">46.png</property>
  <property name="kdenlive:duration">00:00:05.000</property>
  <property name="kdenlive:folderid">266</property>
  <property name="kdenlive:id">306</property>
  <property name="kdenlive:file_size">519089</property>
  <property name="kdenlive:proxy">/home/xiaoxiae/.cache/kdenlive/proxy/d80a18db611ce48ae8048c0c2b5933ea.png</property>
  <property name="kdenlive:originalurl">video/ProgrammingModel/img/46.png</property>
  <property name="kdenlive:original.mlt_type">producer</property>
  <property name="kdenlive:original.in">0</property>
  <property name="kdenlive:original.out">299</property>
  <property name="kdenlive:original.length">00:00:05.000</property>
  <property name="kdenlive:original.eof">pause</property>
  <property name="kdenlive:original.resource">video/ProgrammingModel/img/46.png</property>
  <property name="kdenlive:original.ttl">25</property>
  <property name="kdenlive:original.aspect_ratio">1</property>
  <property name="kdenlive:original.progressive">1</property>
  <property name="kdenlive:original.seekable">1</property>
  <property name="kdenlive:original.meta.media.width">3840</property>
  <property name="kdenlive:original.meta.media.height">2160</property>
  <property name="kdenlive:original.mlt_service">qimage</property>
  <property name="kdenlive:original.kdenlive:duration">00:00:05.000</property>
  <property name="kdenlive:original.kdenlive:folderid">266</property>
  <property name="kdenlive:original.kdenlive:id">307</property>
  <property name="kdenlive:original.kdenlive:file_size">519089</property>
  <property name="kdenlive:original.kdenlive:file_hash">d80a18db611ce48ae8048c0c2b5933ea</property>
  <property name="kdenlive:original.backup">1</property>
  <property name="kdenlive:file_hash">d80a18db611ce48ae8048c0c2b5933ea</property>
 </producer>
 <producer id="producer279" in="00:00:00.000" out="00:00:04.983">
  <property name="length">00:00:05.000</property>
  <property name="eof">pause</property>
  <property name="resource">/home/xiaoxiae/.cache/kdenlive/proxy/6b665121ca7b54a5f5307b69451fd23c.png</property>
  <property name="ttl">25</property>
  <property name="aspect_ratio">1</property>
  <property name="progressive">1</property>
  <property name="seekable">1</property>
  <property name="meta.media.width">800</property>
  <property name="meta.media.height">450</property>
  <property name="mlt_service">qimage</property>
  <property name="kdenlive:clipname">47.png</property>
  <property name="kdenlive:duration">00:00:05.000</property>
  <property name="kdenlive:folderid">266</property>
  <property name="kdenlive:id">307</property>
  <property name="kdenlive:file_size">24337</property>
  <property name="kdenlive:proxy">/home/xiaoxiae/.cache/kdenlive/proxy/6b665121ca7b54a5f5307b69451fd23c.png</property>
  <property name="kdenlive:originalurl">video/ProgrammingModel/img/47.png</property>
  <property name="kdenlive:original.mlt_type">producer</property>
  <property name="kdenlive:original.in">0</property>
  <property name="kdenlive:original.out">299</property>
  <property name="kdenlive:original.length">00:00:05.000</property>
  <property name="kdenlive:original.eof">pause</property>
  <property name="kdenlive:original.resource">video/ProgrammingModel/img/47.png</property>
  <property name="kdenlive:original.ttl">25</property>
  <property name="kdenlive:original.aspect_ratio">1</property>
  <property name="kdenlive:original.progressive">1</property>
  <property name="kdenlive:original.seekable">1</property>
  <property name="kdenlive:original.meta.media.width">3840</property>
  <property name="kdenlive:original.meta.media.height">2160</property>
  <property name="kdenlive:original.mlt_service">qimage</property>
  <property name="kdenlive:original.kdenlive:duration">00:00:05.000</property>
  <property name="kdenlive:original.kdenlive:folderid">266</property>
  <property name="kdenlive:original.kdenlive:id">308</property>
  <property name="kdenlive:original.kdenlive:file_size">24337</property>
  <property name="kdenlive:original.kdenlive:file_hash">6b665121ca7b54a5f5307b69451fd23c</property>
  <property name="kdenlive:original.backup">1</property>
  <property name="kdenlive:file_hash">6b665121ca7b54a5f5307b69451fd23c</property>
 </producer>
 <producer id="producer280" in="00:00:00.000" out="00:00:04.983">
  <property name="length">00:00:05.000</property>
  <property name="eof">pause</property>
  <property name="resource">/home/xiaoxiae/.cache/kdenlive/proxy/99e971c9cc5509c3eeb9e317a22cfddf.png</property>
  <property name="ttl">25</property>
  <property name="aspect_ratio">1</property>
  <property name="progressive">1</property>
  <property name="seekable">1</property>
  <property name="meta.media.width">800</property>
  <property name="meta.media.height">450</property>
  <property name="mlt_service">qimage</property>
  <property name="kdenlive:clipname">5.png</property>
  <property name="kdenlive:duration">00:00:05.000</property>
  <property name="kdenlive:folderid">266</property>
  <property name="kdenlive:id">308</property>
  <property name="kdenlive:file_size">193123</property>
  <property name="kdenlive:proxy">/home/xiaoxiae/.cache/kdenlive/proxy/99e971c9cc5509c3eeb9e317a22cfddf.png</property>
  <property name="kdenlive:originalurl">video/ProgrammingModel/img/5.png</property>
  <property name="kdenlive:original.mlt_type">producer</property>
  <property name="kdenlive:original.in">0</property>
  <property name="kdenlive:original.out">299</property>
  <property name="kdenlive:original.length">00:00:05.000</property>
  <property name="kdenlive:original.eof">pause</property>
  <property name="kdenlive:original.resource">video/ProgrammingModel/img/5.png</property>
  <property name="kdenlive:original.ttl">25</property>
  <property name="kdenlive:original.aspect_ratio">1</property>
  <property name="kdenlive:original.progressive">1</property>
  <property name="kdenlive:original.seekable">1</property>
  <property name="kdenlive:original.meta.media.width">3840</property>
  <property name="kdenlive:original.meta.media.height">2160</property>
  <property name="kdenlive:original.mlt_service">qimage</property>
  <property name="kdenlive:original.kdenlive:duration">00:00:05.000</property>
  <property name="kdenlive:original.kdenlive:folderid">266</property>
  <property name="kdenlive:original.kdenlive:id">309</property>
  <property name="kdenlive:original.kdenlive:file_size">193123</property>
  <property name="kdenlive:original.kdenlive:file_hash">99e971c9cc5509c3eeb9e317a22cfddf</property>
  <property name="kdenlive:original.backup">1</property>
  <property name="kdenlive:file_hash">99e971c9cc5509c3eeb9e317a22cfddf</property>
 </producer>
 <producer id="producer281" in="00:00:00.000" out="00:00:04.983">
  <property name="length">00:00:05.000</property>
  <property name="eof">pause</property>
  <property name="resource">/home/xiaoxiae/.cache/kdenlive/proxy/c5ca2c4fe2578c06acf9eff8c2a8b57e.png</property>
  <property name="ttl">25</property>
  <property name="aspect_ratio">1</property>
  <property name="progressive">1</property>
  <property name="seekable">1</property>
  <property name="meta.media.width">800</property>
  <property name="meta.media.height">450</property>
  <property name="mlt_service">qimage</property>
  <property name="kdenlive:clipname">6.png</property>
  <property name="kdenlive:duration">00:00:05.000</property>
  <property name="kdenlive:folderid">266</property>
  <property name="kdenlive:id">309</property>
  <property name="kdenlive:file_size">194613</property>
  <property name="kdenlive:proxy">/home/xiaoxiae/.cache/kdenlive/proxy/c5ca2c4fe2578c06acf9eff8c2a8b57e.png</property>
  <property name="kdenlive:originalurl">video/ProgrammingModel/img/6.png</property>
  <property name="kdenlive:original.mlt_type">producer</property>
  <property name="kdenlive:original.in">0</property>
  <property name="kdenlive:original.out">299</property>
  <property name="kdenlive:original.length">00:00:05.000</property>
  <property name="kdenlive:original.eof">pause</property>
  <property name="kdenlive:original.resource">video/ProgrammingModel/img/6.png</property>
  <property name="kdenlive:original.ttl">25</property>
  <property name="kdenlive:original.aspect_ratio">1</property>
  <property name="kdenlive:original.progressive">1</property>
  <property name="kdenlive:original.seekable">1</property>
  <property name="kdenlive:original.meta.media.width">3840</property>
  <property name="kdenlive:original.meta.media.height">2160</property>
  <property name="kdenlive:original.mlt_service">qimage</property>
  <property name="kdenlive:original.kdenlive:duration">00:00:05.000</property>
  <property name="kdenlive:original.kdenlive:folderid">266</property>
  <property name="kdenlive:original.kdenlive:id">310</property>
  <property name="kdenlive:original.kdenlive:file_size">194613</property>
  <property name="kdenlive:original.kdenlive:file_hash">c5ca2c4fe2578c06acf9eff8c2a8b57e</property>
  <property name="kdenlive:original.backup">1</property>
  <property name="kdenlive:file_hash">c5ca2c4fe2578c06acf9eff8c2a8b57e</property>
 </producer>
 <producer id="producer283" in="00:00:00.000" out="00:00:04.983">
  <property name="length">00:00:05.000</property>
  <property name="eof">pause</property>
  <property name="resource">/home/xiaoxiae/.cache/kdenlive/proxy/9c7c57b9a93fdf24a28033f7f006b4dc.png</property>
  <property name="ttl">25</property>
  <property name="aspect_ratio">1</property>
  <property name="progressive">1</property>
  <property name="seekable">1</property>
  <property name="meta.media.width">800</property>
  <property name="meta.media.height">450</property>
  <property name="mlt_service">qimage</property>
  <property name="kdenlive:clipname">7.png</property>
  <property name="kdenlive:duration">00:00:05.000</property>
  <property name="kdenlive:folderid">266</property>
  <property name="kdenlive:id">310</property>
  <property name="kdenlive:file_size">208573</property>
  <property name="kdenlive:proxy">/home/xiaoxiae/.cache/kdenlive/proxy/9c7c57b9a93fdf24a28033f7f006b4dc.png</property>
  <property name="kdenlive:originalurl">video/ProgrammingModel/img/7.png</property>
  <property name="kdenlive:original.mlt_type">producer</property>
  <property name="kdenlive:original.in">0</property>
  <property name="kdenlive:original.out">299</property>
  <property name="kdenlive:original.length">00:00:05.000</property>
  <property name="kdenlive:original.eof">pause</property>
  <property name="kdenlive:original.resource">video/ProgrammingModel/img/7.png</property>
  <property name="kdenlive:original.ttl">25</property>
  <property name="kdenlive:original.aspect_ratio">1</property>
  <property name="kdenlive:original.progressive">1</property>
  <property name="kdenlive:original.seekable">1</property>
  <property name="kdenlive:original.meta.media.width">3840</property>
  <property name="kdenlive:original.meta.media.height">2160</property>
  <property name="kdenlive:original.mlt_service">qimage</property>
  <property name="kdenlive:original.kdenlive:duration">00:00:05.000</property>
  <property name="kdenlive:original.kdenlive:folderid">266</property>
  <property name="kdenlive:original.kdenlive:id">311</property>
  <property name="kdenlive:original.kdenlive:file_size">208573</property>
  <property name="kdenlive:original.kdenlive:file_hash">9c7c57b9a93fdf24a28033f7f006b4dc</property>
  <property name="kdenlive:original.backup">1</property>
  <property name="kdenlive:file_hash">9c7c57b9a93fdf24a28033f7f006b4dc</property>
 </producer>
 <producer id="producer282" in="00:00:00.000" out="00:00:04.983">
  <property name="length">00:00:05.000</property>
  <property name="eof">pause</property>
  <property name="resource">/home/xiaoxiae/.cache/kdenlive/proxy/b9210b565d7aea101245fe62384257ea.png</property>
  <property name="ttl">25</property>
  <property name="aspect_ratio">1</property>
  <property name="progressive">1</property>
  <property name="seekable">1</property>
  <property name="meta.media.width">800</property>
  <property name="meta.media.height">450</property>
  <property name="mlt_service">qimage</property>
  <property name="kdenlive:clipname">8.png</property>
  <property name="kdenlive:duration">00:00:05.000</property>
  <property name="kdenlive:folderid">266</property>
  <property name="kdenlive:id">311</property>
  <property name="kdenlive:file_size">402342</property>
  <property name="kdenlive:proxy">/home/xiaoxiae/.cache/kdenlive/proxy/b9210b565d7aea101245fe62384257ea.png</property>
  <property name="kdenlive:originalurl">video/ProgrammingModel/img/8.png</property>
  <property name="kdenlive:original.mlt_type">producer</property>
  <property name="kdenlive:original.in">0</property>
  <property name="kdenlive:original.out">299</property>
  <property name="kdenlive:original.length">00:00:05.000</property>
  <property name="kdenlive:original.eof">pause</property>
  <property name="kdenlive:original.resource">video/ProgrammingModel/img/8.png</property>
  <property name="kdenlive:original.ttl">25</property>
  <property name="kdenlive:original.aspect_ratio">1</property>
  <property name="kdenlive:original.progressive">1</property>
  <property name="kdenlive:original.seekable">1</property>
  <property name="kdenlive:original.meta.media.width">3840</property>
  <property name="kdenlive:original.meta.media.height">2160</property>
  <property name="kdenlive:original.mlt_service">qimage</property>
  <property name="kdenlive:original.kdenlive:duration">00:00:05.000</property>
  <property name="kdenlive:original.kdenlive:folderid">266</property>
  <property name="kdenlive:original.kdenlive:id">312</property>
  <property name="kdenlive:original.kdenlive:file_size">402342</property>
  <property name="kdenlive:original.kdenlive:file_hash">b9210b565d7aea101245fe62384257ea</property>
  <property name="kdenlive:original.backup">1</property>
  <property name="kdenlive:file_hash">b9210b565d7aea101245fe62384257ea</property>
 </producer>
 <producer id="producer287" in="00:00:00.000" out="00:00:04.983">
  <property name="length">00:00:05.000</property>
  <property name="eof">pause</property>
  <property name="resource">/home/xiaoxiae/.cache/kdenlive/proxy/cf2045305149234a1a971754bc13c4ae.png</property>
  <property name="ttl">25</property>
  <property name="aspect_ratio">1</property>
  <property name="progressive">1</property>
  <property name="seekable">1</property>
  <property name="meta.media.width">800</property>
  <property name="meta.media.height">450</property>
  <property name="mlt_service">qimage</property>
  <property name="kdenlive:clipname">9.png</property>
  <property name="kdenlive:duration">00:00:05.000</property>
  <property name="kdenlive:folderid">266</property>
  <property name="kdenlive:id">312</property>
  <property name="kdenlive:file_size">416450</property>
  <property name="kdenlive:proxy">/home/xiaoxiae/.cache/kdenlive/proxy/cf2045305149234a1a971754bc13c4ae.png</property>
  <property name="kdenlive:originalurl">video/ProgrammingModel/img/9.png</property>
  <property name="kdenlive:original.mlt_type">producer</property>
  <property name="kdenlive:original.in">0</property>
  <property name="kdenlive:original.out">299</property>
  <property name="kdenlive:original.length">00:00:05.000</property>
  <property name="kdenlive:original.eof">pause</property>
  <property name="kdenlive:original.resource">video/ProgrammingModel/img/9.png</property>
  <property name="kdenlive:original.ttl">25</property>
  <property name="kdenlive:original.aspect_ratio">1</property>
  <property name="kdenlive:original.progressive">1</property>
  <property name="kdenlive:original.seekable">1</property>
  <property name="kdenlive:original.meta.media.width">3840</property>
  <property name="kdenlive:original.meta.media.height">2160</property>
  <property name="kdenlive:original.mlt_service">qimage</property>
  <property name="kdenlive:original.kdenlive:duration">00:00:05.000</property>
  <property name="kdenlive:original.kdenlive:folderid">266</property>
  <property name="kdenlive:original.kdenlive:id">313</property>
  <property name="kdenlive:original.kdenlive:file_size">416450</property>
  <property name="kdenlive:original.kdenlive:file_hash">cf2045305149234a1a971754bc13c4ae</property>
  <property name="kdenlive:original.backup">1</property>
  <property name="kdenlive:file_hash">cf2045305149234a1a971754bc13c4ae</property>
 </producer>
 <producer id="producer285" in="00:00:00.000" out="00:00:00.983">
  <property name="length">60</property>
  <property name="eof">pause</property>
  <property name="resource">/home/xiaoxiae/.cache/kdenlive/proxy/9cae017f95629eefcf96b0deacc56217.mov</property>
  <property name="audio_index">-1</property>
  <property name="video_index">0</property>
  <property name="mute_on_pause">0</property>
  <property name="mlt_service">avformat-novalidate</property>
  <property name="seekable">1</property>
  <property name="aspect_ratio">1</property>
  <property name="kdenlive:clipname">1.mp4</property>
  <property name="kdenlive:folderid">314</property>
  <property name="kdenlive:id">313</property>
  <property name="kdenlive:file_size">70508</property>
  <property name="kdenlive:proxy">/home/xiaoxiae/.cache/kdenlive/proxy/9cae017f95629eefcf96b0deacc56217.mov</property>
  <property name="kdenlive:originalurl">video/ProgrammingModel/vid/1.mp4</property>
  <property name="kdenlive:original.mlt_type">producer</property>
  <property name="kdenlive:original.in">0</property>
  <property name="kdenlive:original.out">59</property>
  <property name="kdenlive:original.length">60</property>
  <property name="kdenlive:original.eof">pause</property>
  <property name="kdenlive:original.resource">video/ProgrammingModel/vid/1.mp4</property>
  <property name="kdenlive:original.meta.media.nb_streams">1</property>
  <property name="kdenlive:original.meta.media.0.stream.type">video</property>
  <property name="kdenlive:original.meta.media.0.stream.frame_rate">60</property>
  <property name="kdenlive:original.meta.media.0.stream.sample_aspect_ratio">0</property>
  <property name="kdenlive:original.meta.media.0.codec.width">3840</property>
  <property name="kdenlive:original.meta.media.0.codec.height">2160</property>
  <property name="kdenlive:original.meta.media.0.codec.rotate">0</property>
  <property name="kdenlive:original.meta.media.0.codec.pix_fmt">yuv420p</property>
  <property name="kdenlive:original.meta.media.0.codec.sample_aspect_ratio">0</property>
  <property name="kdenlive:original.meta.media.0.codec.colorspace">709</property>
  <property name="kdenlive:original.meta.media.0.codec.name">h264</property>
  <property name="kdenlive:original.meta.media.0.codec.long_name">H.264 / AVC / MPEG-4 AVC / MPEG-4 part 10</property>
  <property name="kdenlive:original.meta.media.0.codec.bit_rate">551072</property>
  <property name="kdenlive:original.meta.attr.0.stream.handler_name.markup">VideoHandler</property>
  <property name="kdenlive:original.meta.attr.0.stream.vendor_id.markup">[0][0][0][0]</property>
  <property name="kdenlive:original.meta.attr.major_brand.markup">isom</property>
  <property name="kdenlive:original.meta.attr.minor_version.markup">512</property>
  <property name="kdenlive:original.meta.attr.compatible_brands.markup">isomiso2avc1mp41</property>
  <property name="kdenlive:original.meta.attr.encoder.markup">Lavf58.76.100</property>
  <property name="kdenlive:original.meta.attr.comment.markup">Rendered with Manim Community v0.12.0</property>
  <property name="kdenlive:original.seekable">1</property>
  <property name="kdenlive:original.width">3840</property>
  <property name="kdenlive:original.height">2160</property>
  <property name="kdenlive:original.meta.media.sample_aspect_num">1</property>
  <property name="kdenlive:original.meta.media.sample_aspect_den">1</property>
  <property name="kdenlive:original.aspect_ratio">1</property>
  <property name="kdenlive:original.audio_index">-1</property>
  <property name="kdenlive:original.video_index">0</property>
  <property name="kdenlive:original.mute_on_pause">0</property>
  <property name="kdenlive:original.mlt_service">avformat-novalidate</property>
  <property name="kdenlive:original.kdenlive:folderid">314</property>
  <property name="kdenlive:original.meta.media.frame_rate_num">60</property>
  <property name="kdenlive:original.meta.media.frame_rate_den">1</property>
  <property name="kdenlive:original.meta.media.colorspace">709</property>
  <property name="kdenlive:original.meta.media.color_trc">2</property>
  <property name="kdenlive:original.meta.media.has_b_frames">2</property>
  <property name="kdenlive:original.meta.media.width">3840</property>
  <property name="kdenlive:original.meta.media.height">2160</property>
  <property name="kdenlive:original.meta.media.color_range">mpeg</property>
  <property name="kdenlive:original.kdenlive:id">315</property>
  <property name="kdenlive:original.kdenlive:file_size">70508</property>
  <property name="kdenlive:original.kdenlive:file_hash">9cae017f95629eefcf96b0deacc56217</property>
  <property name="kdenlive:original.backup">1</property>
  <property name="kdenlive:file_hash">9cae017f95629eefcf96b0deacc56217</property>
  <property name="meta.media.nb_streams">1</property>
  <property name="meta.media.0.stream.type">video</property>
  <property name="meta.media.0.stream.frame_rate">60</property>
  <property name="meta.media.0.stream.sample_aspect_ratio">0</property>
  <property name="meta.media.0.codec.width">640</property>
  <property name="meta.media.0.codec.height">360</property>
  <property name="meta.media.0.codec.rotate">0</property>
  <property name="meta.media.0.codec.pix_fmt">yuv420p</property>
  <property name="meta.media.0.codec.sample_aspect_ratio">0</property>
  <property name="meta.media.0.codec.colorspace">601</property>
  <property name="meta.media.0.codec.name">h264</property>
  <property name="meta.media.0.codec.long_name">H.264 / AVC / MPEG-4 AVC / MPEG-4 part 10</property>
  <property name="meta.media.0.codec.bit_rate">638952</property>
  <property name="meta.attr.0.stream.handler_name.markup">VideoHandler</property>
  <property name="meta.attr.0.stream.vendor_id.markup">FFMP</property>
  <property name="meta.attr.0.stream.encoder.markup">Lavc58.134.100 libx264</property>
  <property name="meta.attr.major_brand.markup">qt  </property>
  <property name="meta.attr.minor_version.markup">512</property>
  <property name="meta.attr.compatible_brands.markup">qt  </property>
  <property name="meta.attr.encoder.markup">Lavf58.76.100</property>
  <property name="meta.attr.comment.markup">Rendered with Manim Community v0.12.0</property>
  <property name="meta.media.sample_aspect_num">1</property>
  <property name="meta.media.sample_aspect_den">1</property>
  <property name="meta.media.frame_rate_num">60</property>
  <property name="meta.media.frame_rate_den">1</property>
  <property name="meta.media.colorspace">601</property>
  <property name="meta.media.color_trc">2</property>
  <property name="meta.media.has_b_frames">0</property>
  <property name="meta.media.width">640</property>
  <property name="meta.media.height">360</property>
  <property name="meta.media.color_range">mpeg</property>
 </producer>
 <producer id="producer284" in="00:00:00.000" out="00:00:01.483">
  <property name="length">90</property>
  <property name="eof">pause</property>
  <property name="resource">/home/xiaoxiae/.cache/kdenlive/proxy/21ec2a473f103e9ac5470345b3399288.mov</property>
  <property name="audio_index">-1</property>
  <property name="video_index">0</property>
  <property name="mute_on_pause">0</property>
  <property name="mlt_service">avformat-novalidate</property>
  <property name="seekable">1</property>
  <property name="aspect_ratio">1</property>
  <property name="kdenlive:clipname">10.mp4</property>
  <property name="kdenlive:folderid">314</property>
  <property name="kdenlive:id">315</property>
  <property name="kdenlive:file_size">808819</property>
  <property name="kdenlive:proxy">/home/xiaoxiae/.cache/kdenlive/proxy/21ec2a473f103e9ac5470345b3399288.mov</property>
  <property name="kdenlive:originalurl">video/ProgrammingModel/vid/10.mp4</property>
  <property name="kdenlive:original.mlt_type">producer</property>
  <property name="kdenlive:original.in">0</property>
  <property name="kdenlive:original.out">89</property>
  <property name="kdenlive:original.length">90</property>
  <property name="kdenlive:original.eof">pause</property>
  <property name="kdenlive:original.resource">video/ProgrammingModel/vid/10.mp4</property>
  <property name="kdenlive:original.meta.media.nb_streams">1</property>
  <property name="kdenlive:original.meta.media.0.stream.type">video</property>
  <property name="kdenlive:original.meta.media.0.stream.frame_rate">60</property>
  <property name="kdenlive:original.meta.media.0.stream.sample_aspect_ratio">0</property>
  <property name="kdenlive:original.meta.media.0.codec.width">3840</property>
  <property name="kdenlive:original.meta.media.0.codec.height">2160</property>
  <property name="kdenlive:original.meta.media.0.codec.rotate">0</property>
  <property name="kdenlive:original.meta.media.0.codec.pix_fmt">yuv420p</property>
  <property name="kdenlive:original.meta.media.0.codec.sample_aspect_ratio">0</property>
  <property name="kdenlive:original.meta.media.0.codec.colorspace">709</property>
  <property name="kdenlive:original.meta.media.0.codec.name">h264</property>
  <property name="kdenlive:original.meta.media.0.codec.long_name">H.264 / AVC / MPEG-4 AVC / MPEG-4 part 10</property>
  <property name="kdenlive:original.meta.media.0.codec.bit_rate">4304101</property>
  <property name="kdenlive:original.meta.attr.0.stream.handler_name.markup">VideoHandler</property>
  <property name="kdenlive:original.meta.attr.0.stream.vendor_id.markup">[0][0][0][0]</property>
  <property name="kdenlive:original.meta.attr.major_brand.markup">isom</property>
  <property name="kdenlive:original.meta.attr.minor_version.markup">512</property>
  <property name="kdenlive:original.meta.attr.compatible_brands.markup">isomiso2avc1mp41</property>
  <property name="kdenlive:original.meta.attr.encoder.markup">Lavf58.76.100</property>
  <property name="kdenlive:original.meta.attr.comment.markup">Rendered with Manim Community v0.12.0</property>
  <property name="kdenlive:original.seekable">1</property>
  <property name="kdenlive:original.width">3840</property>
  <property name="kdenlive:original.height">2160</property>
  <property name="kdenlive:original.meta.media.sample_aspect_num">1</property>
  <property name="kdenlive:original.meta.media.sample_aspect_den">1</property>
  <property name="kdenlive:original.aspect_ratio">1</property>
  <property name="kdenlive:original.audio_index">-1</property>
  <property name="kdenlive:original.video_index">0</property>
  <property name="kdenlive:original.mute_on_pause">0</property>
  <property name="kdenlive:original.mlt_service">avformat-novalidate</property>
  <property name="kdenlive:original.kdenlive:folderid">314</property>
  <property name="kdenlive:original.meta.media.frame_rate_num">60</property>
  <property name="kdenlive:original.meta.media.frame_rate_den">1</property>
  <property name="kdenlive:original.meta.media.colorspace">709</property>
  <property name="kdenlive:original.meta.media.color_trc">2</property>
  <property name="kdenlive:original.meta.media.has_b_frames">2</property>
  <property name="kdenlive:original.meta.media.width">3840</property>
  <property name="kdenlive:original.meta.media.height">2160</property>
  <property name="kdenlive:original.meta.media.color_range">mpeg</property>
  <property name="kdenlive:original.kdenlive:id">316</property>
  <property name="kdenlive:original.kdenlive:file_size">808819</property>
  <property name="kdenlive:original.kdenlive:file_hash">21ec2a473f103e9ac5470345b3399288</property>
  <property name="kdenlive:original.backup">1</property>
  <property name="kdenlive:file_hash">21ec2a473f103e9ac5470345b3399288</property>
  <property name="meta.media.nb_streams">1</property>
  <property name="meta.media.0.stream.type">video</property>
  <property name="meta.media.0.stream.frame_rate">60</property>
  <property name="meta.media.0.stream.sample_aspect_ratio">0</property>
  <property name="meta.media.0.codec.width">640</property>
  <property name="meta.media.0.codec.height">360</property>
  <property name="meta.media.0.codec.rotate">0</property>
  <property name="meta.media.0.codec.pix_fmt">yuv420p</property>
  <property name="meta.media.0.codec.sample_aspect_ratio">0</property>
  <property name="meta.media.0.codec.colorspace">601</property>
  <property name="meta.media.0.codec.name">h264</property>
  <property name="meta.media.0.codec.long_name">H.264 / AVC / MPEG-4 AVC / MPEG-4 part 10</property>
  <property name="meta.media.0.codec.bit_rate">3036586</property>
  <property name="meta.attr.0.stream.handler_name.markup">VideoHandler</property>
  <property name="meta.attr.0.stream.vendor_id.markup">FFMP</property>
  <property name="meta.attr.0.stream.encoder.markup">Lavc58.134.100 libx264</property>
  <property name="meta.attr.major_brand.markup">qt  </property>
  <property name="meta.attr.minor_version.markup">512</property>
  <property name="meta.attr.compatible_brands.markup">qt  </property>
  <property name="meta.attr.encoder.markup">Lavf58.76.100</property>
  <property name="meta.attr.comment.markup">Rendered with Manim Community v0.12.0</property>
  <property name="meta.media.sample_aspect_num">1</property>
  <property name="meta.media.sample_aspect_den">1</property>
  <property name="meta.media.frame_rate_num">60</property>
  <property name="meta.media.frame_rate_den">1</property>
  <property name="meta.media.colorspace">601</property>
  <property name="meta.media.color_trc">2</property>
  <property name="meta.media.has_b_frames">0</property>
  <property name="meta.media.width">640</property>
  <property name="meta.media.height">360</property>
  <property name="meta.media.color_range">mpeg</property>
 </producer>
 <producer id="producer286" in="00:00:00.000" out="00:00:00.983">
  <property name="length">60</property>
  <property name="eof">pause</property>
  <property name="resource">/home/xiaoxiae/.cache/kdenlive/proxy/1a29784e8dbd913272ace5a64727c761.mov</property>
  <property name="audio_index">-1</property>
  <property name="video_index">0</property>
  <property name="mute_on_pause">0</property>
  <property name="mlt_service">avformat-novalidate</property>
  <property name="seekable">1</property>
  <property name="aspect_ratio">1</property>
  <property name="kdenlive:clipname">11.mp4</property>
  <property name="kdenlive:folderid">314</property>
  <property name="kdenlive:id">316</property>
  <property name="kdenlive:file_size">129310</property>
  <property name="kdenlive:proxy">/home/xiaoxiae/.cache/kdenlive/proxy/1a29784e8dbd913272ace5a64727c761.mov</property>
  <property name="kdenlive:originalurl">video/ProgrammingModel/vid/11.mp4</property>
  <property name="kdenlive:original.mlt_type">producer</property>
  <property name="kdenlive:original.in">0</property>
  <property name="kdenlive:original.out">59</property>
  <property name="kdenlive:original.length">60</property>
  <property name="kdenlive:original.eof">pause</property>
  <property name="kdenlive:original.resource">video/ProgrammingModel/vid/11.mp4</property>
  <property name="kdenlive:original.meta.media.nb_streams">1</property>
  <property name="kdenlive:original.meta.media.0.stream.type">video</property>
  <property name="kdenlive:original.meta.media.0.stream.frame_rate">60</property>
  <property name="kdenlive:original.meta.media.0.stream.sample_aspect_ratio">0</property>
  <property name="kdenlive:original.meta.media.0.codec.width">3840</property>
  <property name="kdenlive:original.meta.media.0.codec.height">2160</property>
  <property name="kdenlive:original.meta.media.0.codec.rotate">0</property>
  <property name="kdenlive:original.meta.media.0.codec.pix_fmt">yuv420p</property>
  <property name="kdenlive:original.meta.media.0.codec.sample_aspect_ratio">0</property>
  <property name="kdenlive:original.meta.media.0.codec.colorspace">709</property>
  <property name="kdenlive:original.meta.media.0.codec.name">h264</property>
  <property name="kdenlive:original.meta.media.0.codec.long_name">H.264 / AVC / MPEG-4 AVC / MPEG-4 part 10</property>
  <property name="kdenlive:original.meta.media.0.codec.bit_rate">1021488</property>
  <property name="kdenlive:original.meta.attr.0.stream.handler_name.markup">VideoHandler</property>
  <property name="kdenlive:original.meta.attr.0.stream.vendor_id.markup">[0][0][0][0]</property>
  <property name="kdenlive:original.meta.attr.major_brand.markup">isom</property>
  <property name="kdenlive:original.meta.attr.minor_version.markup">512</property>
  <property name="kdenlive:original.meta.attr.compatible_brands.markup">isomiso2avc1mp41</property>
  <property name="kdenlive:original.meta.attr.encoder.markup">Lavf58.76.100</property>
  <property name="kdenlive:original.meta.attr.comment.markup">Rendered with Manim Community v0.12.0</property>
  <property name="kdenlive:original.seekable">1</property>
  <property name="kdenlive:original.width">3840</property>
  <property name="kdenlive:original.height">2160</property>
  <property name="kdenlive:original.meta.media.sample_aspect_num">1</property>
  <property name="kdenlive:original.meta.media.sample_aspect_den">1</property>
  <property name="kdenlive:original.aspect_ratio">1</property>
  <property name="kdenlive:original.audio_index">-1</property>
  <property name="kdenlive:original.video_index">0</property>
  <property name="kdenlive:original.mute_on_pause">0</property>
  <property name="kdenlive:original.mlt_service">avformat-novalidate</property>
  <property name="kdenlive:original.kdenlive:folderid">314</property>
  <property name="kdenlive:original.meta.media.frame_rate_num">60</property>
  <property name="kdenlive:original.meta.media.frame_rate_den">1</property>
  <property name="kdenlive:original.meta.media.colorspace">709</property>
  <property name="kdenlive:original.meta.media.color_trc">2</property>
  <property name="kdenlive:original.meta.media.has_b_frames">2</property>
  <property name="kdenlive:original.meta.media.width">3840</property>
  <property name="kdenlive:original.meta.media.height">2160</property>
  <property name="kdenlive:original.meta.media.color_range">mpeg</property>
  <property name="kdenlive:original.kdenlive:id">317</property>
  <property name="kdenlive:original.kdenlive:file_size">129310</property>
  <property name="kdenlive:original.kdenlive:file_hash">1a29784e8dbd913272ace5a64727c761</property>
  <property name="kdenlive:original.backup">1</property>
  <property name="kdenlive:file_hash">1a29784e8dbd913272ace5a64727c761</property>
  <property name="meta.media.nb_streams">1</property>
  <property name="meta.media.0.stream.type">video</property>
  <property name="meta.media.0.stream.frame_rate">60</property>
  <property name="meta.media.0.stream.sample_aspect_ratio">0</property>
  <property name="meta.media.0.codec.width">640</property>
  <property name="meta.media.0.codec.height">360</property>
  <property name="meta.media.0.codec.rotate">0</property>
  <property name="meta.media.0.codec.pix_fmt">yuv420p</property>
  <property name="meta.media.0.codec.sample_aspect_ratio">0</property>
  <property name="meta.media.0.codec.colorspace">601</property>
  <property name="meta.media.0.codec.name">h264</property>
  <property name="meta.media.0.codec.long_name">H.264 / AVC / MPEG-4 AVC / MPEG-4 part 10</property>
  <property name="meta.media.0.codec.bit_rate">1601384</property>
  <property name="meta.attr.0.stream.handler_name.markup">VideoHandler</property>
  <property name="meta.attr.0.stream.vendor_id.markup">FFMP</property>
  <property name="meta.attr.0.stream.encoder.markup">Lavc58.134.100 libx264</property>
  <property name="meta.attr.major_brand.markup">qt  </property>
  <property name="meta.attr.minor_version.markup">512</property>
  <property name="meta.attr.compatible_brands.markup">qt  </property>
  <property name="meta.attr.encoder.markup">Lavf58.76.100</property>
  <property name="meta.attr.comment.markup">Rendered with Manim Community v0.12.0</property>
  <property name="meta.media.sample_aspect_num">1</property>
  <property name="meta.media.sample_aspect_den">1</property>
  <property name="meta.media.frame_rate_num">60</property>
  <property name="meta.media.frame_rate_den">1</property>
  <property name="meta.media.colorspace">601</property>
  <property name="meta.media.color_trc">2</property>
  <property name="meta.media.has_b_frames">0</property>
  <property name="meta.media.width">640</property>
  <property name="meta.media.height">360</property>
  <property name="meta.media.color_range">mpeg</property>
 </producer>
 <producer id="producer288" in="00:00:00.000" out="00:00:01.183">
  <property name="length">72</property>
  <property name="eof">pause</property>
  <property name="resource">/home/xiaoxiae/.cache/kdenlive/proxy/7c9b6d4279c0b5356dc73002fc07e4e6.mov</property>
  <property name="audio_index">-1</property>
  <property name="video_index">0</property>
  <property name="mute_on_pause">0</property>
  <property name="mlt_service">avformat-novalidate</property>
  <property name="seekable">1</property>
  <property name="aspect_ratio">1</property>
  <property name="kdenlive:clipname">12.mp4</property>
  <property name="kdenlive:folderid">314</property>
  <property name="kdenlive:id">317</property>
  <property name="kdenlive:file_size">134693</property>
  <property name="kdenlive:proxy">/home/xiaoxiae/.cache/kdenlive/proxy/7c9b6d4279c0b5356dc73002fc07e4e6.mov</property>
  <property name="kdenlive:originalurl">video/ProgrammingModel/vid/12.mp4</property>
  <property name="kdenlive:original.mlt_type">producer</property>
  <property name="kdenlive:original.in">0</property>
  <property name="kdenlive:original.out">71</property>
  <property name="kdenlive:original.length">72</property>
  <property name="kdenlive:original.eof">pause</property>
  <property name="kdenlive:original.resource">video/ProgrammingModel/vid/12.mp4</property>
  <property name="kdenlive:original.meta.media.nb_streams">1</property>
  <property name="kdenlive:original.meta.media.0.stream.type">video</property>
  <property name="kdenlive:original.meta.media.0.stream.frame_rate">60</property>
  <property name="kdenlive:original.meta.media.0.stream.sample_aspect_ratio">0</property>
  <property name="kdenlive:original.meta.media.0.codec.width">3840</property>
  <property name="kdenlive:original.meta.media.0.codec.height">2160</property>
  <property name="kdenlive:original.meta.media.0.codec.rotate">0</property>
  <property name="kdenlive:original.meta.media.0.codec.pix_fmt">yuv420p</property>
  <property name="kdenlive:original.meta.media.0.codec.sample_aspect_ratio">0</property>
  <property name="kdenlive:original.meta.media.0.codec.colorspace">709</property>
  <property name="kdenlive:original.meta.media.0.codec.name">h264</property>
  <property name="kdenlive:original.meta.media.0.codec.long_name">H.264 / AVC / MPEG-4 AVC / MPEG-4 part 10</property>
  <property name="kdenlive:original.meta.media.0.codec.bit_rate">886806</property>
  <property name="kdenlive:original.meta.attr.0.stream.handler_name.markup">VideoHandler</property>
  <property name="kdenlive:original.meta.attr.0.stream.vendor_id.markup">[0][0][0][0]</property>
  <property name="kdenlive:original.meta.attr.major_brand.markup">isom</property>
  <property name="kdenlive:original.meta.attr.minor_version.markup">512</property>
  <property name="kdenlive:original.meta.attr.compatible_brands.markup">isomiso2avc1mp41</property>
  <property name="kdenlive:original.meta.attr.encoder.markup">Lavf58.76.100</property>
  <property name="kdenlive:original.meta.attr.comment.markup">Rendered with Manim Community v0.12.0</property>
  <property name="kdenlive:original.seekable">1</property>
  <property name="kdenlive:original.width">3840</property>
  <property name="kdenlive:original.height">2160</property>
  <property name="kdenlive:original.meta.media.sample_aspect_num">1</property>
  <property name="kdenlive:original.meta.media.sample_aspect_den">1</property>
  <property name="kdenlive:original.aspect_ratio">1</property>
  <property name="kdenlive:original.audio_index">-1</property>
  <property name="kdenlive:original.video_index">0</property>
  <property name="kdenlive:original.mute_on_pause">0</property>
  <property name="kdenlive:original.mlt_service">avformat-novalidate</property>
  <property name="kdenlive:original.kdenlive:folderid">314</property>
  <property name="kdenlive:original.meta.media.frame_rate_num">60</property>
  <property name="kdenlive:original.meta.media.frame_rate_den">1</property>
  <property name="kdenlive:original.meta.media.colorspace">709</property>
  <property name="kdenlive:original.meta.media.color_trc">2</property>
  <property name="kdenlive:original.meta.media.has_b_frames">2</property>
  <property name="kdenlive:original.meta.media.width">3840</property>
  <property name="kdenlive:original.meta.media.height">2160</property>
  <property name="kdenlive:original.meta.media.color_range">mpeg</property>
  <property name="kdenlive:original.kdenlive:id">318</property>
  <property name="kdenlive:original.kdenlive:file_size">134693</property>
  <property name="kdenlive:original.kdenlive:file_hash">7c9b6d4279c0b5356dc73002fc07e4e6</property>
  <property name="kdenlive:original.backup">1</property>
  <property name="kdenlive:file_hash">7c9b6d4279c0b5356dc73002fc07e4e6</property>
  <property name="meta.media.nb_streams">1</property>
  <property name="meta.media.0.stream.type">video</property>
  <property name="meta.media.0.stream.frame_rate">60</property>
  <property name="meta.media.0.stream.sample_aspect_ratio">0</property>
  <property name="meta.media.0.codec.width">640</property>
  <property name="meta.media.0.codec.height">360</property>
  <property name="meta.media.0.codec.rotate">0</property>
  <property name="meta.media.0.codec.pix_fmt">yuv420p</property>
  <property name="meta.media.0.codec.sample_aspect_ratio">0</property>
  <property name="meta.media.0.codec.colorspace">601</property>
  <property name="meta.media.0.codec.name">h264</property>
  <property name="meta.media.0.codec.long_name">H.264 / AVC / MPEG-4 AVC / MPEG-4 part 10</property>
  <property name="meta.media.0.codec.bit_rate">2091446</property>
  <property name="meta.attr.0.stream.handler_name.markup">VideoHandler</property>
  <property name="meta.attr.0.stream.vendor_id.markup">FFMP</property>
  <property name="meta.attr.0.stream.encoder.markup">Lavc58.134.100 libx264</property>
  <property name="meta.attr.major_brand.markup">qt  </property>
  <property name="meta.attr.minor_version.markup">512</property>
  <property name="meta.attr.compatible_brands.markup">qt  </property>
  <property name="meta.attr.encoder.markup">Lavf58.76.100</property>
  <property name="meta.attr.comment.markup">Rendered with Manim Community v0.12.0</property>
  <property name="meta.media.sample_aspect_num">1</property>
  <property name="meta.media.sample_aspect_den">1</property>
  <property name="meta.media.frame_rate_num">60</property>
  <property name="meta.media.frame_rate_den">1</property>
  <property name="meta.media.colorspace">601</property>
  <property name="meta.media.color_trc">2</property>
  <property name="meta.media.has_b_frames">0</property>
  <property name="meta.media.width">640</property>
  <property name="meta.media.height">360</property>
  <property name="meta.media.color_range">mpeg</property>
 </producer>
 <producer id="producer289" in="00:00:00.000" out="00:00:01.233">
  <property name="length">75</property>
  <property name="eof">pause</property>
  <property name="resource">/home/xiaoxiae/.cache/kdenlive/proxy/3f7a6189a743c140345516f20f5b28fe.mov</property>
  <property name="audio_index">-1</property>
  <property name="video_index">0</property>
  <property name="mute_on_pause">0</property>
  <property name="mlt_service">avformat-novalidate</property>
  <property name="seekable">1</property>
  <property name="aspect_ratio">1</property>
  <property name="kdenlive:clipname">13.mp4</property>
  <property name="kdenlive:folderid">314</property>
  <property name="kdenlive:id">318</property>
  <property name="kdenlive:file_size">116791</property>
  <property name="kdenlive:proxy">/home/xiaoxiae/.cache/kdenlive/proxy/3f7a6189a743c140345516f20f5b28fe.mov</property>
  <property name="kdenlive:originalurl">video/ProgrammingModel/vid/13.mp4</property>
  <property name="kdenlive:original.mlt_type">producer</property>
  <property name="kdenlive:original.in">0</property>
  <property name="kdenlive:original.out">74</property>
  <property name="kdenlive:original.length">75</property>
  <property name="kdenlive:original.eof">pause</property>
  <property name="kdenlive:original.resource">video/ProgrammingModel/vid/13.mp4</property>
  <property name="kdenlive:original.meta.media.nb_streams">1</property>
  <property name="kdenlive:original.meta.media.0.stream.type">video</property>
  <property name="kdenlive:original.meta.media.0.stream.frame_rate">60</property>
  <property name="kdenlive:original.meta.media.0.stream.sample_aspect_ratio">0</property>
  <property name="kdenlive:original.meta.media.0.codec.width">3840</property>
  <property name="kdenlive:original.meta.media.0.codec.height">2160</property>
  <property name="kdenlive:original.meta.media.0.codec.rotate">0</property>
  <property name="kdenlive:original.meta.media.0.codec.pix_fmt">yuv420p</property>
  <property name="kdenlive:original.meta.media.0.codec.sample_aspect_ratio">0</property>
  <property name="kdenlive:original.meta.media.0.codec.colorspace">709</property>
  <property name="kdenlive:original.meta.media.0.codec.name">h264</property>
  <property name="kdenlive:original.meta.media.0.codec.long_name">H.264 / AVC / MPEG-4 AVC / MPEG-4 part 10</property>
  <property name="kdenlive:original.meta.media.0.codec.bit_rate">736121</property>
  <property name="kdenlive:original.meta.attr.0.stream.handler_name.markup">VideoHandler</property>
  <property name="kdenlive:original.meta.attr.0.stream.vendor_id.markup">[0][0][0][0]</property>
  <property name="kdenlive:original.meta.attr.major_brand.markup">isom</property>
  <property name="kdenlive:original.meta.attr.minor_version.markup">512</property>
  <property name="kdenlive:original.meta.attr.compatible_brands.markup">isomiso2avc1mp41</property>
  <property name="kdenlive:original.meta.attr.encoder.markup">Lavf58.76.100</property>
  <property name="kdenlive:original.meta.attr.comment.markup">Rendered with Manim Community v0.12.0</property>
  <property name="kdenlive:original.seekable">1</property>
  <property name="kdenlive:original.width">3840</property>
  <property name="kdenlive:original.height">2160</property>
  <property name="kdenlive:original.meta.media.sample_aspect_num">1</property>
  <property name="kdenlive:original.meta.media.sample_aspect_den">1</property>
  <property name="kdenlive:original.aspect_ratio">1</property>
  <property name="kdenlive:original.audio_index">-1</property>
  <property name="kdenlive:original.video_index">0</property>
  <property name="kdenlive:original.mute_on_pause">0</property>
  <property name="kdenlive:original.mlt_service">avformat-novalidate</property>
  <property name="kdenlive:original.kdenlive:folderid">314</property>
  <property name="kdenlive:original.meta.media.frame_rate_num">60</property>
  <property name="kdenlive:original.meta.media.frame_rate_den">1</property>
  <property name="kdenlive:original.meta.media.colorspace">709</property>
  <property name="kdenlive:original.meta.media.color_trc">2</property>
  <property name="kdenlive:original.meta.media.has_b_frames">2</property>
  <property name="kdenlive:original.meta.media.width">3840</property>
  <property name="kdenlive:original.meta.media.height">2160</property>
  <property name="kdenlive:original.meta.media.color_range">mpeg</property>
  <property name="kdenlive:original.kdenlive:id">319</property>
  <property name="kdenlive:original.kdenlive:file_size">116791</property>
  <property name="kdenlive:original.kdenlive:file_hash">3f7a6189a743c140345516f20f5b28fe</property>
  <property name="kdenlive:original.backup">1</property>
  <property name="kdenlive:file_hash">3f7a6189a743c140345516f20f5b28fe</property>
  <property name="meta.media.nb_streams">1</property>
  <property name="meta.media.0.stream.type">video</property>
  <property name="meta.media.0.stream.frame_rate">60</property>
  <property name="meta.media.0.stream.sample_aspect_ratio">0</property>
  <property name="meta.media.0.codec.width">640</property>
  <property name="meta.media.0.codec.height">360</property>
  <property name="meta.media.0.codec.rotate">0</property>
  <property name="meta.media.0.codec.pix_fmt">yuv420p</property>
  <property name="meta.media.0.codec.sample_aspect_ratio">0</property>
  <property name="meta.media.0.codec.colorspace">601</property>
  <property name="meta.media.0.codec.name">h264</property>
  <property name="meta.media.0.codec.long_name">H.264 / AVC / MPEG-4 AVC / MPEG-4 part 10</property>
  <property name="meta.media.0.codec.bit_rate">2135180</property>
  <property name="meta.attr.0.stream.handler_name.markup">VideoHandler</property>
  <property name="meta.attr.0.stream.vendor_id.markup">FFMP</property>
  <property name="meta.attr.0.stream.encoder.markup">Lavc58.134.100 libx264</property>
  <property name="meta.attr.major_brand.markup">qt  </property>
  <property name="meta.attr.minor_version.markup">512</property>
  <property name="meta.attr.compatible_brands.markup">qt  </property>
  <property name="meta.attr.encoder.markup">Lavf58.76.100</property>
  <property name="meta.attr.comment.markup">Rendered with Manim Community v0.12.0</property>
  <property name="meta.media.sample_aspect_num">1</property>
  <property name="meta.media.sample_aspect_den">1</property>
  <property name="meta.media.frame_rate_num">60</property>
  <property name="meta.media.frame_rate_den">1</property>
  <property name="meta.media.colorspace">601</property>
  <property name="meta.media.color_trc">2</property>
  <property name="meta.media.has_b_frames">0</property>
  <property name="meta.media.width">640</property>
  <property name="meta.media.height">360</property>
  <property name="meta.media.color_range">mpeg</property>
 </producer>
 <producer id="producer290" in="00:00:00.000" out="00:00:01.183">
  <property name="length">72</property>
  <property name="eof">pause</property>
  <property name="resource">/home/xiaoxiae/.cache/kdenlive/proxy/4d9eaf8b6f065de0c632f41e0d7f676f.mov</property>
  <property name="audio_index">-1</property>
  <property name="video_index">0</property>
  <property name="mute_on_pause">0</property>
  <property name="mlt_service">avformat-novalidate</property>
  <property name="seekable">1</property>
  <property name="aspect_ratio">1</property>
  <property name="kdenlive:clipname">14.mp4</property>
  <property name="kdenlive:folderid">314</property>
  <property name="kdenlive:id">319</property>
  <property name="kdenlive:file_size">136881</property>
  <property name="kdenlive:proxy">/home/xiaoxiae/.cache/kdenlive/proxy/4d9eaf8b6f065de0c632f41e0d7f676f.mov</property>
  <property name="kdenlive:originalurl">video/ProgrammingModel/vid/14.mp4</property>
  <property name="kdenlive:original.mlt_type">producer</property>
  <property name="kdenlive:original.in">0</property>
  <property name="kdenlive:original.out">71</property>
  <property name="kdenlive:original.length">72</property>
  <property name="kdenlive:original.eof">pause</property>
  <property name="kdenlive:original.resource">video/ProgrammingModel/vid/14.mp4</property>
  <property name="kdenlive:original.meta.media.nb_streams">1</property>
  <property name="kdenlive:original.meta.media.0.stream.type">video</property>
  <property name="kdenlive:original.meta.media.0.stream.frame_rate">60</property>
  <property name="kdenlive:original.meta.media.0.stream.sample_aspect_ratio">0</property>
  <property name="kdenlive:original.meta.media.0.codec.width">3840</property>
  <property name="kdenlive:original.meta.media.0.codec.height">2160</property>
  <property name="kdenlive:original.meta.media.0.codec.rotate">0</property>
  <property name="kdenlive:original.meta.media.0.codec.pix_fmt">yuv420p</property>
  <property name="kdenlive:original.meta.media.0.codec.sample_aspect_ratio">0</property>
  <property name="kdenlive:original.meta.media.0.codec.colorspace">709</property>
  <property name="kdenlive:original.meta.media.0.codec.name">h264</property>
  <property name="kdenlive:original.meta.media.0.codec.long_name">H.264 / AVC / MPEG-4 AVC / MPEG-4 part 10</property>
  <property name="kdenlive:original.meta.media.0.codec.bit_rate">901126</property>
  <property name="kdenlive:original.meta.attr.0.stream.handler_name.markup">VideoHandler</property>
  <property name="kdenlive:original.meta.attr.0.stream.vendor_id.markup">[0][0][0][0]</property>
  <property name="kdenlive:original.meta.attr.major_brand.markup">isom</property>
  <property name="kdenlive:original.meta.attr.minor_version.markup">512</property>
  <property name="kdenlive:original.meta.attr.compatible_brands.markup">isomiso2avc1mp41</property>
  <property name="kdenlive:original.meta.attr.encoder.markup">Lavf58.76.100</property>
  <property name="kdenlive:original.meta.attr.comment.markup">Rendered with Manim Community v0.12.0</property>
  <property name="kdenlive:original.seekable">1</property>
  <property name="kdenlive:original.width">3840</property>
  <property name="kdenlive:original.height">2160</property>
  <property name="kdenlive:original.meta.media.sample_aspect_num">1</property>
  <property name="kdenlive:original.meta.media.sample_aspect_den">1</property>
  <property name="kdenlive:original.aspect_ratio">1</property>
  <property name="kdenlive:original.audio_index">-1</property>
  <property name="kdenlive:original.video_index">0</property>
  <property name="kdenlive:original.mute_on_pause">0</property>
  <property name="kdenlive:original.mlt_service">avformat-novalidate</property>
  <property name="kdenlive:original.kdenlive:folderid">314</property>
  <property name="kdenlive:original.meta.media.frame_rate_num">60</property>
  <property name="kdenlive:original.meta.media.frame_rate_den">1</property>
  <property name="kdenlive:original.meta.media.colorspace">709</property>
  <property name="kdenlive:original.meta.media.color_trc">2</property>
  <property name="kdenlive:original.meta.media.has_b_frames">2</property>
  <property name="kdenlive:original.meta.media.width">3840</property>
  <property name="kdenlive:original.meta.media.height">2160</property>
  <property name="kdenlive:original.meta.media.color_range">mpeg</property>
  <property name="kdenlive:original.kdenlive:id">320</property>
  <property name="kdenlive:original.kdenlive:file_size">136881</property>
  <property name="kdenlive:original.kdenlive:file_hash">4d9eaf8b6f065de0c632f41e0d7f676f</property>
  <property name="kdenlive:original.backup">1</property>
  <property name="kdenlive:file_hash">4d9eaf8b6f065de0c632f41e0d7f676f</property>
  <property name="meta.media.nb_streams">1</property>
  <property name="meta.media.0.stream.type">video</property>
  <property name="meta.media.0.stream.frame_rate">60</property>
  <property name="meta.media.0.stream.sample_aspect_ratio">0</property>
  <property name="meta.media.0.codec.width">640</property>
  <property name="meta.media.0.codec.height">360</property>
  <property name="meta.media.0.codec.rotate">0</property>
  <property name="meta.media.0.codec.pix_fmt">yuv420p</property>
  <property name="meta.media.0.codec.sample_aspect_ratio">0</property>
  <property name="meta.media.0.codec.colorspace">601</property>
  <property name="meta.media.0.codec.name">h264</property>
  <property name="meta.media.0.codec.long_name">H.264 / AVC / MPEG-4 AVC / MPEG-4 part 10</property>
  <property name="meta.media.0.codec.bit_rate">2316786</property>
  <property name="meta.attr.0.stream.handler_name.markup">VideoHandler</property>
  <property name="meta.attr.0.stream.vendor_id.markup">FFMP</property>
  <property name="meta.attr.0.stream.encoder.markup">Lavc58.134.100 libx264</property>
  <property name="meta.attr.major_brand.markup">qt  </property>
  <property name="meta.attr.minor_version.markup">512</property>
  <property name="meta.attr.compatible_brands.markup">qt  </property>
  <property name="meta.attr.encoder.markup">Lavf58.76.100</property>
  <property name="meta.attr.comment.markup">Rendered with Manim Community v0.12.0</property>
  <property name="meta.media.sample_aspect_num">1</property>
  <property name="meta.media.sample_aspect_den">1</property>
  <property name="meta.media.frame_rate_num">60</property>
  <property name="meta.media.frame_rate_den">1</property>
  <property name="meta.media.colorspace">601</property>
  <property name="meta.media.color_trc">2</property>
  <property name="meta.media.has_b_frames">0</property>
  <property name="meta.media.width">640</property>
  <property name="meta.media.height">360</property>
  <property name="meta.media.color_range">mpeg</property>
 </producer>
 <producer id="producer291" in="00:00:00.000" out="00:00:01.233">
  <property name="length">75</property>
  <property name="eof">pause</property>
  <property name="resource">/home/xiaoxiae/.cache/kdenlive/proxy/65599ed3cf5034f7591c517ae05fd0e4.mov</property>
  <property name="audio_index">-1</property>
  <property name="video_index">0</property>
  <property name="mute_on_pause">0</property>
  <property name="mlt_service">avformat-novalidate</property>
  <property name="seekable">1</property>
  <property name="aspect_ratio">1</property>
  <property name="kdenlive:clipname">15.mp4</property>
  <property name="kdenlive:folderid">314</property>
  <property name="kdenlive:id">320</property>
  <property name="kdenlive:file_size">124405</property>
  <property name="kdenlive:proxy">/home/xiaoxiae/.cache/kdenlive/proxy/65599ed3cf5034f7591c517ae05fd0e4.mov</property>
  <property name="kdenlive:originalurl">video/ProgrammingModel/vid/15.mp4</property>
  <property name="kdenlive:original.mlt_type">producer</property>
  <property name="kdenlive:original.in">0</property>
  <property name="kdenlive:original.out">74</property>
  <property name="kdenlive:original.length">75</property>
  <property name="kdenlive:original.eof">pause</property>
  <property name="kdenlive:original.resource">video/ProgrammingModel/vid/15.mp4</property>
  <property name="kdenlive:original.meta.media.nb_streams">1</property>
  <property name="kdenlive:original.meta.media.0.stream.type">video</property>
  <property name="kdenlive:original.meta.media.0.stream.frame_rate">60</property>
  <property name="kdenlive:original.meta.media.0.stream.sample_aspect_ratio">0</property>
  <property name="kdenlive:original.meta.media.0.codec.width">3840</property>
  <property name="kdenlive:original.meta.media.0.codec.height">2160</property>
  <property name="kdenlive:original.meta.media.0.codec.rotate">0</property>
  <property name="kdenlive:original.meta.media.0.codec.pix_fmt">yuv420p</property>
  <property name="kdenlive:original.meta.media.0.codec.sample_aspect_ratio">0</property>
  <property name="kdenlive:original.meta.media.0.codec.colorspace">709</property>
  <property name="kdenlive:original.meta.media.0.codec.name">h264</property>
  <property name="kdenlive:original.meta.media.0.codec.long_name">H.264 / AVC / MPEG-4 AVC / MPEG-4 part 10</property>
  <property name="kdenlive:original.meta.media.0.codec.bit_rate">785004</property>
  <property name="kdenlive:original.meta.attr.0.stream.handler_name.markup">VideoHandler</property>
  <property name="kdenlive:original.meta.attr.0.stream.vendor_id.markup">[0][0][0][0]</property>
  <property name="kdenlive:original.meta.attr.major_brand.markup">isom</property>
  <property name="kdenlive:original.meta.attr.minor_version.markup">512</property>
  <property name="kdenlive:original.meta.attr.compatible_brands.markup">isomiso2avc1mp41</property>
  <property name="kdenlive:original.meta.attr.encoder.markup">Lavf58.76.100</property>
  <property name="kdenlive:original.meta.attr.comment.markup">Rendered with Manim Community v0.12.0</property>
  <property name="kdenlive:original.seekable">1</property>
  <property name="kdenlive:original.width">3840</property>
  <property name="kdenlive:original.height">2160</property>
  <property name="kdenlive:original.meta.media.sample_aspect_num">1</property>
  <property name="kdenlive:original.meta.media.sample_aspect_den">1</property>
  <property name="kdenlive:original.aspect_ratio">1</property>
  <property name="kdenlive:original.audio_index">-1</property>
  <property name="kdenlive:original.video_index">0</property>
  <property name="kdenlive:original.mute_on_pause">0</property>
  <property name="kdenlive:original.mlt_service">avformat-novalidate</property>
  <property name="kdenlive:original.kdenlive:folderid">314</property>
  <property name="kdenlive:original.meta.media.frame_rate_num">60</property>
  <property name="kdenlive:original.meta.media.frame_rate_den">1</property>
  <property name="kdenlive:original.meta.media.colorspace">709</property>
  <property name="kdenlive:original.meta.media.color_trc">2</property>
  <property name="kdenlive:original.meta.media.has_b_frames">2</property>
  <property name="kdenlive:original.meta.media.width">3840</property>
  <property name="kdenlive:original.meta.media.height">2160</property>
  <property name="kdenlive:original.meta.media.color_range">mpeg</property>
  <property name="kdenlive:original.kdenlive:id">321</property>
  <property name="kdenlive:original.kdenlive:file_size">124405</property>
  <property name="kdenlive:original.kdenlive:file_hash">65599ed3cf5034f7591c517ae05fd0e4</property>
  <property name="kdenlive:original.backup">1</property>
  <property name="kdenlive:file_hash">65599ed3cf5034f7591c517ae05fd0e4</property>
  <property name="meta.media.nb_streams">1</property>
  <property name="meta.media.0.stream.type">video</property>
  <property name="meta.media.0.stream.frame_rate">60</property>
  <property name="meta.media.0.stream.sample_aspect_ratio">0</property>
  <property name="meta.media.0.codec.width">640</property>
  <property name="meta.media.0.codec.height">360</property>
  <property name="meta.media.0.codec.rotate">0</property>
  <property name="meta.media.0.codec.pix_fmt">yuv420p</property>
  <property name="meta.media.0.codec.sample_aspect_ratio">0</property>
  <property name="meta.media.0.codec.colorspace">601</property>
  <property name="meta.media.0.codec.name">h264</property>
  <property name="meta.media.0.codec.long_name">H.264 / AVC / MPEG-4 AVC / MPEG-4 part 10</property>
  <property name="meta.media.0.codec.bit_rate">2356665</property>
  <property name="meta.attr.0.stream.handler_name.markup">VideoHandler</property>
  <property name="meta.attr.0.stream.vendor_id.markup">FFMP</property>
  <property name="meta.attr.0.stream.encoder.markup">Lavc58.134.100 libx264</property>
  <property name="meta.attr.major_brand.markup">qt  </property>
  <property name="meta.attr.minor_version.markup">512</property>
  <property name="meta.attr.compatible_brands.markup">qt  </property>
  <property name="meta.attr.encoder.markup">Lavf58.76.100</property>
  <property name="meta.attr.comment.markup">Rendered with Manim Community v0.12.0</property>
  <property name="meta.media.sample_aspect_num">1</property>
  <property name="meta.media.sample_aspect_den">1</property>
  <property name="meta.media.frame_rate_num">60</property>
  <property name="meta.media.frame_rate_den">1</property>
  <property name="meta.media.colorspace">601</property>
  <property name="meta.media.color_trc">2</property>
  <property name="meta.media.has_b_frames">0</property>
  <property name="meta.media.width">640</property>
  <property name="meta.media.height">360</property>
  <property name="meta.media.color_range">mpeg</property>
 </producer>
 <producer id="producer292" in="00:00:00.000" out="00:00:01.183">
  <property name="length">72</property>
  <property name="eof">pause</property>
  <property name="resource">/home/xiaoxiae/.cache/kdenlive/proxy/380cb7b7ad33867e0d0c552df5cf0888.mov</property>
  <property name="audio_index">-1</property>
  <property name="video_index">0</property>
  <property name="mute_on_pause">0</property>
  <property name="mlt_service">avformat-novalidate</property>
  <property name="seekable">1</property>
  <property name="aspect_ratio">1</property>
  <property name="kdenlive:clipname">16.mp4</property>
  <property name="kdenlive:folderid">314</property>
  <property name="kdenlive:id">321</property>
  <property name="kdenlive:file_size">141038</property>
  <property name="kdenlive:proxy">/home/xiaoxiae/.cache/kdenlive/proxy/380cb7b7ad33867e0d0c552df5cf0888.mov</property>
  <property name="kdenlive:originalurl">video/ProgrammingModel/vid/16.mp4</property>
  <property name="kdenlive:original.mlt_type">producer</property>
  <property name="kdenlive:original.in">0</property>
  <property name="kdenlive:original.out">71</property>
  <property name="kdenlive:original.length">72</property>
  <property name="kdenlive:original.eof">pause</property>
  <property name="kdenlive:original.resource">video/ProgrammingModel/vid/16.mp4</property>
  <property name="kdenlive:original.meta.media.nb_streams">1</property>
  <property name="kdenlive:original.meta.media.0.stream.type">video</property>
  <property name="kdenlive:original.meta.media.0.stream.frame_rate">60</property>
  <property name="kdenlive:original.meta.media.0.stream.sample_aspect_ratio">0</property>
  <property name="kdenlive:original.meta.media.0.codec.width">3840</property>
  <property name="kdenlive:original.meta.media.0.codec.height">2160</property>
  <property name="kdenlive:original.meta.media.0.codec.rotate">0</property>
  <property name="kdenlive:original.meta.media.0.codec.pix_fmt">yuv420p</property>
  <property name="kdenlive:original.meta.media.0.codec.sample_aspect_ratio">0</property>
  <property name="kdenlive:original.meta.media.0.codec.colorspace">709</property>
  <property name="kdenlive:original.meta.media.0.codec.name">h264</property>
  <property name="kdenlive:original.meta.media.0.codec.long_name">H.264 / AVC / MPEG-4 AVC / MPEG-4 part 10</property>
  <property name="kdenlive:original.meta.media.0.codec.bit_rate">928840</property>
  <property name="kdenlive:original.meta.attr.0.stream.handler_name.markup">VideoHandler</property>
  <property name="kdenlive:original.meta.attr.0.stream.vendor_id.markup">[0][0][0][0]</property>
  <property name="kdenlive:original.meta.attr.major_brand.markup">isom</property>
  <property name="kdenlive:original.meta.attr.minor_version.markup">512</property>
  <property name="kdenlive:original.meta.attr.compatible_brands.markup">isomiso2avc1mp41</property>
  <property name="kdenlive:original.meta.attr.encoder.markup">Lavf58.76.100</property>
  <property name="kdenlive:original.meta.attr.comment.markup">Rendered with Manim Community v0.12.0</property>
  <property name="kdenlive:original.seekable">1</property>
  <property name="kdenlive:original.width">3840</property>
  <property name="kdenlive:original.height">2160</property>
  <property name="kdenlive:original.meta.media.sample_aspect_num">1</property>
  <property name="kdenlive:original.meta.media.sample_aspect_den">1</property>
  <property name="kdenlive:original.aspect_ratio">1</property>
  <property name="kdenlive:original.audio_index">-1</property>
  <property name="kdenlive:original.video_index">0</property>
  <property name="kdenlive:original.mute_on_pause">0</property>
  <property name="kdenlive:original.mlt_service">avformat-novalidate</property>
  <property name="kdenlive:original.kdenlive:folderid">314</property>
  <property name="kdenlive:original.meta.media.frame_rate_num">60</property>
  <property name="kdenlive:original.meta.media.frame_rate_den">1</property>
  <property name="kdenlive:original.meta.media.colorspace">709</property>
  <property name="kdenlive:original.meta.media.color_trc">2</property>
  <property name="kdenlive:original.meta.media.has_b_frames">2</property>
  <property name="kdenlive:original.meta.media.width">3840</property>
  <property name="kdenlive:original.meta.media.height">2160</property>
  <property name="kdenlive:original.meta.media.color_range">mpeg</property>
  <property name="kdenlive:original.kdenlive:id">322</property>
  <property name="kdenlive:original.kdenlive:file_size">141038</property>
  <property name="kdenlive:original.kdenlive:file_hash">380cb7b7ad33867e0d0c552df5cf0888</property>
  <property name="kdenlive:original.backup">1</property>
  <property name="kdenlive:file_hash">380cb7b7ad33867e0d0c552df5cf0888</property>
  <property name="meta.media.nb_streams">1</property>
  <property name="meta.media.0.stream.type">video</property>
  <property name="meta.media.0.stream.frame_rate">60</property>
  <property name="meta.media.0.stream.sample_aspect_ratio">0</property>
  <property name="meta.media.0.codec.width">640</property>
  <property name="meta.media.0.codec.height">360</property>
  <property name="meta.media.0.codec.rotate">0</property>
  <property name="meta.media.0.codec.pix_fmt">yuv420p</property>
  <property name="meta.media.0.codec.sample_aspect_ratio">0</property>
  <property name="meta.media.0.codec.colorspace">601</property>
  <property name="meta.media.0.codec.name">h264</property>
  <property name="meta.media.0.codec.long_name">H.264 / AVC / MPEG-4 AVC / MPEG-4 part 10</property>
  <property name="meta.media.0.codec.bit_rate">2508066</property>
  <property name="meta.attr.0.stream.handler_name.markup">VideoHandler</property>
  <property name="meta.attr.0.stream.vendor_id.markup">FFMP</property>
  <property name="meta.attr.0.stream.encoder.markup">Lavc58.134.100 libx264</property>
  <property name="meta.attr.major_brand.markup">qt  </property>
  <property name="meta.attr.minor_version.markup">512</property>
  <property name="meta.attr.compatible_brands.markup">qt  </property>
  <property name="meta.attr.encoder.markup">Lavf58.76.100</property>
  <property name="meta.attr.comment.markup">Rendered with Manim Community v0.12.0</property>
  <property name="meta.media.sample_aspect_num">1</property>
  <property name="meta.media.sample_aspect_den">1</property>
  <property name="meta.media.frame_rate_num">60</property>
  <property name="meta.media.frame_rate_den">1</property>
  <property name="meta.media.colorspace">601</property>
  <property name="meta.media.color_trc">2</property>
  <property name="meta.media.has_b_frames">0</property>
  <property name="meta.media.width">640</property>
  <property name="meta.media.height">360</property>
  <property name="meta.media.color_range">mpeg</property>
 </producer>
 <producer id="producer293" in="00:00:00.000" out="00:00:00.983">
  <property name="length">60</property>
  <property name="eof">pause</property>
  <property name="resource">/home/xiaoxiae/.cache/kdenlive/proxy/72cc60e17d62c0f52ace5e1e0113ba57.mov</property>
  <property name="audio_index">-1</property>
  <property name="video_index">0</property>
  <property name="mute_on_pause">0</property>
  <property name="mlt_service">avformat-novalidate</property>
  <property name="seekable">1</property>
  <property name="aspect_ratio">1</property>
  <property name="kdenlive:clipname">17.mp4</property>
  <property name="kdenlive:folderid">314</property>
  <property name="kdenlive:id">322</property>
  <property name="kdenlive:file_size">83500</property>
  <property name="kdenlive:proxy">/home/xiaoxiae/.cache/kdenlive/proxy/72cc60e17d62c0f52ace5e1e0113ba57.mov</property>
  <property name="kdenlive:originalurl">video/ProgrammingModel/vid/17.mp4</property>
  <property name="kdenlive:original.mlt_type">producer</property>
  <property name="kdenlive:original.in">0</property>
  <property name="kdenlive:original.out">59</property>
  <property name="kdenlive:original.length">60</property>
  <property name="kdenlive:original.eof">pause</property>
  <property name="kdenlive:original.resource">video/ProgrammingModel/vid/17.mp4</property>
  <property name="kdenlive:original.meta.media.nb_streams">1</property>
  <property name="kdenlive:original.meta.media.0.stream.type">video</property>
  <property name="kdenlive:original.meta.media.0.stream.frame_rate">60</property>
  <property name="kdenlive:original.meta.media.0.stream.sample_aspect_ratio">0</property>
  <property name="kdenlive:original.meta.media.0.codec.width">3840</property>
  <property name="kdenlive:original.meta.media.0.codec.height">2160</property>
  <property name="kdenlive:original.meta.media.0.codec.rotate">0</property>
  <property name="kdenlive:original.meta.media.0.codec.pix_fmt">yuv420p</property>
  <property name="kdenlive:original.meta.media.0.codec.sample_aspect_ratio">0</property>
  <property name="kdenlive:original.meta.media.0.codec.colorspace">709</property>
  <property name="kdenlive:original.meta.media.0.codec.name">h264</property>
  <property name="kdenlive:original.meta.media.0.codec.long_name">H.264 / AVC / MPEG-4 AVC / MPEG-4 part 10</property>
  <property name="kdenlive:original.meta.media.0.codec.bit_rate">654944</property>
  <property name="kdenlive:original.meta.attr.0.stream.handler_name.markup">VideoHandler</property>
  <property name="kdenlive:original.meta.attr.0.stream.vendor_id.markup">[0][0][0][0]</property>
  <property name="kdenlive:original.meta.attr.major_brand.markup">isom</property>
  <property name="kdenlive:original.meta.attr.minor_version.markup">512</property>
  <property name="kdenlive:original.meta.attr.compatible_brands.markup">isomiso2avc1mp41</property>
  <property name="kdenlive:original.meta.attr.encoder.markup">Lavf58.76.100</property>
  <property name="kdenlive:original.meta.attr.comment.markup">Rendered with Manim Community v0.12.0</property>
  <property name="kdenlive:original.seekable">1</property>
  <property name="kdenlive:original.width">3840</property>
  <property name="kdenlive:original.height">2160</property>
  <property name="kdenlive:original.meta.media.sample_aspect_num">1</property>
  <property name="kdenlive:original.meta.media.sample_aspect_den">1</property>
  <property name="kdenlive:original.aspect_ratio">1</property>
  <property name="kdenlive:original.audio_index">-1</property>
  <property name="kdenlive:original.video_index">0</property>
  <property name="kdenlive:original.mute_on_pause">0</property>
  <property name="kdenlive:original.mlt_service">avformat-novalidate</property>
  <property name="kdenlive:original.kdenlive:folderid">314</property>
  <property name="kdenlive:original.meta.media.frame_rate_num">60</property>
  <property name="kdenlive:original.meta.media.frame_rate_den">1</property>
  <property name="kdenlive:original.meta.media.colorspace">709</property>
  <property name="kdenlive:original.meta.media.color_trc">2</property>
  <property name="kdenlive:original.meta.media.has_b_frames">2</property>
  <property name="kdenlive:original.meta.media.width">3840</property>
  <property name="kdenlive:original.meta.media.height">2160</property>
  <property name="kdenlive:original.meta.media.color_range">mpeg</property>
  <property name="kdenlive:original.kdenlive:id">323</property>
  <property name="kdenlive:original.kdenlive:file_size">83500</property>
  <property name="kdenlive:original.kdenlive:file_hash">72cc60e17d62c0f52ace5e1e0113ba57</property>
  <property name="kdenlive:original.backup">1</property>
  <property name="kdenlive:file_hash">72cc60e17d62c0f52ace5e1e0113ba57</property>
  <property name="meta.media.nb_streams">1</property>
  <property name="meta.media.0.stream.type">video</property>
  <property name="meta.media.0.stream.frame_rate">60</property>
  <property name="meta.media.0.stream.sample_aspect_ratio">0</property>
  <property name="meta.media.0.codec.width">640</property>
  <property name="meta.media.0.codec.height">360</property>
  <property name="meta.media.0.codec.rotate">0</property>
  <property name="meta.media.0.codec.pix_fmt">yuv420p</property>
  <property name="meta.media.0.codec.sample_aspect_ratio">0</property>
  <property name="meta.media.0.codec.colorspace">601</property>
  <property name="meta.media.0.codec.name">h264</property>
  <property name="meta.media.0.codec.long_name">H.264 / AVC / MPEG-4 AVC / MPEG-4 part 10</property>
  <property name="meta.media.0.codec.bit_rate">2654192</property>
  <property name="meta.attr.0.stream.handler_name.markup">VideoHandler</property>
  <property name="meta.attr.0.stream.vendor_id.markup">FFMP</property>
  <property name="meta.attr.0.stream.encoder.markup">Lavc58.134.100 libx264</property>
  <property name="meta.attr.major_brand.markup">qt  </property>
  <property name="meta.attr.minor_version.markup">512</property>
  <property name="meta.attr.compatible_brands.markup">qt  </property>
  <property name="meta.attr.encoder.markup">Lavf58.76.100</property>
  <property name="meta.attr.comment.markup">Rendered with Manim Community v0.12.0</property>
  <property name="meta.media.sample_aspect_num">1</property>
  <property name="meta.media.sample_aspect_den">1</property>
  <property name="meta.media.frame_rate_num">60</property>
  <property name="meta.media.frame_rate_den">1</property>
  <property name="meta.media.colorspace">601</property>
  <property name="meta.media.color_trc">2</property>
  <property name="meta.media.has_b_frames">0</property>
  <property name="meta.media.width">640</property>
  <property name="meta.media.height">360</property>
  <property name="meta.media.color_range">mpeg</property>
 </producer>
 <producer id="producer294" in="00:00:00.000" out="00:00:01.583">
  <property name="length">96</property>
  <property name="eof">pause</property>
  <property name="resource">/home/xiaoxiae/.cache/kdenlive/proxy/bffe94e4d4bd43f84fc16cdb62ea85e6.mov</property>
  <property name="audio_index">-1</property>
  <property name="video_index">0</property>
  <property name="mute_on_pause">0</property>
  <property name="mlt_service">avformat-novalidate</property>
  <property name="seekable">1</property>
  <property name="aspect_ratio">1</property>
  <property name="kdenlive:clipname">18.mp4</property>
  <property name="kdenlive:folderid">314</property>
  <property name="kdenlive:id">323</property>
  <property name="kdenlive:file_size">576410</property>
  <property name="kdenlive:proxy">/home/xiaoxiae/.cache/kdenlive/proxy/bffe94e4d4bd43f84fc16cdb62ea85e6.mov</property>
  <property name="kdenlive:originalurl">video/ProgrammingModel/vid/18.mp4</property>
  <property name="kdenlive:original.mlt_type">producer</property>
  <property name="kdenlive:original.in">0</property>
  <property name="kdenlive:original.out">95</property>
  <property name="kdenlive:original.length">96</property>
  <property name="kdenlive:original.eof">pause</property>
  <property name="kdenlive:original.resource">video/ProgrammingModel/vid/18.mp4</property>
  <property name="kdenlive:original.meta.media.nb_streams">1</property>
  <property name="kdenlive:original.meta.media.0.stream.type">video</property>
  <property name="kdenlive:original.meta.media.0.stream.frame_rate">60</property>
  <property name="kdenlive:original.meta.media.0.stream.sample_aspect_ratio">0</property>
  <property name="kdenlive:original.meta.media.0.codec.width">3840</property>
  <property name="kdenlive:original.meta.media.0.codec.height">2160</property>
  <property name="kdenlive:original.meta.media.0.codec.rotate">0</property>
  <property name="kdenlive:original.meta.media.0.codec.pix_fmt">yuv420p</property>
  <property name="kdenlive:original.meta.media.0.codec.sample_aspect_ratio">0</property>
  <property name="kdenlive:original.meta.media.0.codec.colorspace">709</property>
  <property name="kdenlive:original.meta.media.0.codec.name">h264</property>
  <property name="kdenlive:original.meta.media.0.codec.long_name">H.264 / AVC / MPEG-4 AVC / MPEG-4 part 10</property>
  <property name="kdenlive:original.meta.media.0.codec.bit_rate">2872410</property>
  <property name="kdenlive:original.meta.attr.0.stream.handler_name.markup">VideoHandler</property>
  <property name="kdenlive:original.meta.attr.0.stream.vendor_id.markup">[0][0][0][0]</property>
  <property name="kdenlive:original.meta.attr.major_brand.markup">isom</property>
  <property name="kdenlive:original.meta.attr.minor_version.markup">512</property>
  <property name="kdenlive:original.meta.attr.compatible_brands.markup">isomiso2avc1mp41</property>
  <property name="kdenlive:original.meta.attr.encoder.markup">Lavf58.76.100</property>
  <property name="kdenlive:original.meta.attr.comment.markup">Rendered with Manim Community v0.12.0</property>
  <property name="kdenlive:original.seekable">1</property>
  <property name="kdenlive:original.width">3840</property>
  <property name="kdenlive:original.height">2160</property>
  <property name="kdenlive:original.meta.media.sample_aspect_num">1</property>
  <property name="kdenlive:original.meta.media.sample_aspect_den">1</property>
  <property name="kdenlive:original.aspect_ratio">1</property>
  <property name="kdenlive:original.audio_index">-1</property>
  <property name="kdenlive:original.video_index">0</property>
  <property name="kdenlive:original.mute_on_pause">0</property>
  <property name="kdenlive:original.mlt_service">avformat-novalidate</property>
  <property name="kdenlive:original.kdenlive:folderid">314</property>
  <property name="kdenlive:original.meta.media.frame_rate_num">60</property>
  <property name="kdenlive:original.meta.media.frame_rate_den">1</property>
  <property name="kdenlive:original.meta.media.colorspace">709</property>
  <property name="kdenlive:original.meta.media.color_trc">2</property>
  <property name="kdenlive:original.meta.media.has_b_frames">2</property>
  <property name="kdenlive:original.meta.media.width">3840</property>
  <property name="kdenlive:original.meta.media.height">2160</property>
  <property name="kdenlive:original.meta.media.color_range">mpeg</property>
  <property name="kdenlive:original.kdenlive:id">324</property>
  <property name="kdenlive:original.kdenlive:file_size">576410</property>
  <property name="kdenlive:original.kdenlive:file_hash">bffe94e4d4bd43f84fc16cdb62ea85e6</property>
  <property name="kdenlive:original.backup">1</property>
  <property name="kdenlive:file_hash">bffe94e4d4bd43f84fc16cdb62ea85e6</property>
  <property name="meta.media.nb_streams">1</property>
  <property name="meta.media.0.stream.type">video</property>
  <property name="meta.media.0.stream.frame_rate">60</property>
  <property name="meta.media.0.stream.sample_aspect_ratio">0</property>
  <property name="meta.media.0.codec.width">640</property>
  <property name="meta.media.0.codec.height">360</property>
  <property name="meta.media.0.codec.rotate">0</property>
  <property name="meta.media.0.codec.pix_fmt">yuv420p</property>
  <property name="meta.media.0.codec.sample_aspect_ratio">0</property>
  <property name="meta.media.0.codec.colorspace">601</property>
  <property name="meta.media.0.codec.name">h264</property>
  <property name="meta.media.0.codec.long_name">H.264 / AVC / MPEG-4 AVC / MPEG-4 part 10</property>
  <property name="meta.media.0.codec.bit_rate">2344150</property>
  <property name="meta.attr.0.stream.handler_name.markup">VideoHandler</property>
  <property name="meta.attr.0.stream.vendor_id.markup">FFMP</property>
  <property name="meta.attr.0.stream.encoder.markup">Lavc58.134.100 libx264</property>
  <property name="meta.attr.major_brand.markup">qt  </property>
  <property name="meta.attr.minor_version.markup">512</property>
  <property name="meta.attr.compatible_brands.markup">qt  </property>
  <property name="meta.attr.encoder.markup">Lavf58.76.100</property>
  <property name="meta.attr.comment.markup">Rendered with Manim Community v0.12.0</property>
  <property name="meta.media.sample_aspect_num">1</property>
  <property name="meta.media.sample_aspect_den">1</property>
  <property name="meta.media.frame_rate_num">60</property>
  <property name="meta.media.frame_rate_den">1</property>
  <property name="meta.media.colorspace">601</property>
  <property name="meta.media.color_trc">2</property>
  <property name="meta.media.has_b_frames">0</property>
  <property name="meta.media.width">640</property>
  <property name="meta.media.height">360</property>
  <property name="meta.media.color_range">mpeg</property>
 </producer>
 <producer id="producer295" in="00:00:00.000" out="00:00:01.383">
  <property name="length">84</property>
  <property name="eof">pause</property>
  <property name="resource">/home/xiaoxiae/.cache/kdenlive/proxy/7bc18c6981f4d26e2c4ba29c4c8886d6.mov</property>
  <property name="audio_index">-1</property>
  <property name="video_index">0</property>
  <property name="mute_on_pause">0</property>
  <property name="mlt_service">avformat-novalidate</property>
  <property name="seekable">1</property>
  <property name="aspect_ratio">1</property>
  <property name="kdenlive:clipname">19.mp4</property>
  <property name="kdenlive:folderid">314</property>
  <property name="kdenlive:id">324</property>
  <property name="kdenlive:file_size">92619</property>
  <property name="kdenlive:proxy">/home/xiaoxiae/.cache/kdenlive/proxy/7bc18c6981f4d26e2c4ba29c4c8886d6.mov</property>
  <property name="kdenlive:originalurl">video/ProgrammingModel/vid/19.mp4</property>
  <property name="kdenlive:original.mlt_type">producer</property>
  <property name="kdenlive:original.in">0</property>
  <property name="kdenlive:original.out">83</property>
  <property name="kdenlive:original.length">84</property>
  <property name="kdenlive:original.eof">pause</property>
  <property name="kdenlive:original.resource">video/ProgrammingModel/vid/19.mp4</property>
  <property name="kdenlive:original.meta.media.nb_streams">1</property>
  <property name="kdenlive:original.meta.media.0.stream.type">video</property>
  <property name="kdenlive:original.meta.media.0.stream.frame_rate">60</property>
  <property name="kdenlive:original.meta.media.0.stream.sample_aspect_ratio">0</property>
  <property name="kdenlive:original.meta.media.0.codec.width">3840</property>
  <property name="kdenlive:original.meta.media.0.codec.height">2160</property>
  <property name="kdenlive:original.meta.media.0.codec.rotate">0</property>
  <property name="kdenlive:original.meta.media.0.codec.pix_fmt">yuv420p</property>
  <property name="kdenlive:original.meta.media.0.codec.sample_aspect_ratio">0</property>
  <property name="kdenlive:original.meta.media.0.codec.colorspace">709</property>
  <property name="kdenlive:original.meta.media.0.codec.name">h264</property>
  <property name="kdenlive:original.meta.media.0.codec.long_name">H.264 / AVC / MPEG-4 AVC / MPEG-4 part 10</property>
  <property name="kdenlive:original.meta.media.0.codec.bit_rate">518371</property>
  <property name="kdenlive:original.meta.attr.0.stream.handler_name.markup">VideoHandler</property>
  <property name="kdenlive:original.meta.attr.0.stream.vendor_id.markup">[0][0][0][0]</property>
  <property name="kdenlive:original.meta.attr.major_brand.markup">isom</property>
  <property name="kdenlive:original.meta.attr.minor_version.markup">512</property>
  <property name="kdenlive:original.meta.attr.compatible_brands.markup">isomiso2avc1mp41</property>
  <property name="kdenlive:original.meta.attr.encoder.markup">Lavf58.76.100</property>
  <property name="kdenlive:original.meta.attr.comment.markup">Rendered with Manim Community v0.12.0</property>
  <property name="kdenlive:original.seekable">1</property>
  <property name="kdenlive:original.width">3840</property>
  <property name="kdenlive:original.height">2160</property>
  <property name="kdenlive:original.meta.media.sample_aspect_num">1</property>
  <property name="kdenlive:original.meta.media.sample_aspect_den">1</property>
  <property name="kdenlive:original.aspect_ratio">1</property>
  <property name="kdenlive:original.audio_index">-1</property>
  <property name="kdenlive:original.video_index">0</property>
  <property name="kdenlive:original.mute_on_pause">0</property>
  <property name="kdenlive:original.mlt_service">avformat-novalidate</property>
  <property name="kdenlive:original.kdenlive:folderid">314</property>
  <property name="kdenlive:original.meta.media.frame_rate_num">60</property>
  <property name="kdenlive:original.meta.media.frame_rate_den">1</property>
  <property name="kdenlive:original.meta.media.colorspace">709</property>
  <property name="kdenlive:original.meta.media.color_trc">2</property>
  <property name="kdenlive:original.meta.media.has_b_frames">2</property>
  <property name="kdenlive:original.meta.media.width">3840</property>
  <property name="kdenlive:original.meta.media.height">2160</property>
  <property name="kdenlive:original.meta.media.color_range">mpeg</property>
  <property name="kdenlive:original.kdenlive:id">325</property>
  <property name="kdenlive:original.kdenlive:file_size">92619</property>
  <property name="kdenlive:original.kdenlive:file_hash">7bc18c6981f4d26e2c4ba29c4c8886d6</property>
  <property name="kdenlive:original.backup">1</property>
  <property name="kdenlive:file_hash">7bc18c6981f4d26e2c4ba29c4c8886d6</property>
  <property name="meta.media.nb_streams">1</property>
  <property name="meta.media.0.stream.type">video</property>
  <property name="meta.media.0.stream.frame_rate">60</property>
  <property name="meta.media.0.stream.sample_aspect_ratio">0</property>
  <property name="meta.media.0.codec.width">640</property>
  <property name="meta.media.0.codec.height">360</property>
  <property name="meta.media.0.codec.rotate">0</property>
  <property name="meta.media.0.codec.pix_fmt">yuv420p</property>
  <property name="meta.media.0.codec.sample_aspect_ratio">0</property>
  <property name="meta.media.0.codec.colorspace">601</property>
  <property name="meta.media.0.codec.name">h264</property>
  <property name="meta.media.0.codec.long_name">H.264 / AVC / MPEG-4 AVC / MPEG-4 part 10</property>
  <property name="meta.media.0.codec.bit_rate">2787405</property>
  <property name="meta.attr.0.stream.handler_name.markup">VideoHandler</property>
  <property name="meta.attr.0.stream.vendor_id.markup">FFMP</property>
  <property name="meta.attr.0.stream.encoder.markup">Lavc58.134.100 libx264</property>
  <property name="meta.attr.major_brand.markup">qt  </property>
  <property name="meta.attr.minor_version.markup">512</property>
  <property name="meta.attr.compatible_brands.markup">qt  </property>
  <property name="meta.attr.encoder.markup">Lavf58.76.100</property>
  <property name="meta.attr.comment.markup">Rendered with Manim Community v0.12.0</property>
  <property name="meta.media.sample_aspect_num">1</property>
  <property name="meta.media.sample_aspect_den">1</property>
  <property name="meta.media.frame_rate_num">60</property>
  <property name="meta.media.frame_rate_den">1</property>
  <property name="meta.media.colorspace">601</property>
  <property name="meta.media.color_trc">2</property>
  <property name="meta.media.has_b_frames">0</property>
  <property name="meta.media.width">640</property>
  <property name="meta.media.height">360</property>
  <property name="meta.media.color_range">mpeg</property>
 </producer>
 <producer id="producer296" in="00:00:00.000" out="00:00:00.983">
  <property name="length">60</property>
  <property name="eof">pause</property>
  <property name="resource">/home/xiaoxiae/.cache/kdenlive/proxy/0229ac6cf50254b923c7610da8dc83ae.mov</property>
  <property name="audio_index">-1</property>
  <property name="video_index">0</property>
  <property name="mute_on_pause">0</property>
  <property name="mlt_service">avformat-novalidate</property>
  <property name="seekable">1</property>
  <property name="aspect_ratio">1</property>
  <property name="kdenlive:clipname">2.mp4</property>
  <property name="kdenlive:folderid">314</property>
  <property name="kdenlive:file_size">133332</property>
  <property name="kdenlive:id">325</property>
  <property name="kdenlive:proxy">/home/xiaoxiae/.cache/kdenlive/proxy/0229ac6cf50254b923c7610da8dc83ae.mov</property>
  <property name="kdenlive:originalurl">video/ProgrammingModel/vid/2.mp4</property>
  <property name="kdenlive:original.mlt_type">producer</property>
  <property name="kdenlive:original.in">0</property>
  <property name="kdenlive:original.out">59</property>
  <property name="kdenlive:original.length">60</property>
  <property name="kdenlive:original.eof">pause</property>
  <property name="kdenlive:original.resource">video/ProgrammingModel/vid/2.mp4</property>
  <property name="kdenlive:original.meta.media.nb_streams">1</property>
  <property name="kdenlive:original.meta.media.0.stream.type">video</property>
  <property name="kdenlive:original.meta.media.0.stream.frame_rate">60</property>
  <property name="kdenlive:original.meta.media.0.stream.sample_aspect_ratio">0</property>
  <property name="kdenlive:original.meta.media.0.codec.width">3840</property>
  <property name="kdenlive:original.meta.media.0.codec.height">2160</property>
  <property name="kdenlive:original.meta.media.0.codec.rotate">0</property>
  <property name="kdenlive:original.meta.media.0.codec.pix_fmt">yuv420p</property>
  <property name="kdenlive:original.meta.media.0.codec.sample_aspect_ratio">0</property>
  <property name="kdenlive:original.meta.media.0.codec.colorspace">709</property>
  <property name="kdenlive:original.meta.media.0.codec.name">h264</property>
  <property name="kdenlive:original.meta.media.0.codec.long_name">H.264 / AVC / MPEG-4 AVC / MPEG-4 part 10</property>
  <property name="kdenlive:original.meta.media.0.codec.bit_rate">1053856</property>
  <property name="kdenlive:original.meta.attr.0.stream.handler_name.markup">VideoHandler</property>
  <property name="kdenlive:original.meta.attr.0.stream.vendor_id.markup">[0][0][0][0]</property>
  <property name="kdenlive:original.meta.attr.major_brand.markup">isom</property>
  <property name="kdenlive:original.meta.attr.minor_version.markup">512</property>
  <property name="kdenlive:original.meta.attr.compatible_brands.markup">isomiso2avc1mp41</property>
  <property name="kdenlive:original.meta.attr.encoder.markup">Lavf58.76.100</property>
  <property name="kdenlive:original.meta.attr.comment.markup">Rendered with Manim Community v0.12.0</property>
  <property name="kdenlive:original.seekable">1</property>
  <property name="kdenlive:original.width">3840</property>
  <property name="kdenlive:original.height">2160</property>
  <property name="kdenlive:original.meta.media.sample_aspect_num">1</property>
  <property name="kdenlive:original.meta.media.sample_aspect_den">1</property>
  <property name="kdenlive:original.aspect_ratio">1</property>
  <property name="kdenlive:original.audio_index">-1</property>
  <property name="kdenlive:original.video_index">0</property>
  <property name="kdenlive:original.mute_on_pause">0</property>
  <property name="kdenlive:original.mlt_service">avformat-novalidate</property>
  <property name="kdenlive:original.kdenlive:folderid">314</property>
  <property name="kdenlive:original.kdenlive:file_size">133332</property>
  <property name="kdenlive:original.meta.media.frame_rate_num">60</property>
  <property name="kdenlive:original.meta.media.frame_rate_den">1</property>
  <property name="kdenlive:original.meta.media.colorspace">709</property>
  <property name="kdenlive:original.meta.media.color_trc">2</property>
  <property name="kdenlive:original.meta.media.has_b_frames">2</property>
  <property name="kdenlive:original.meta.media.width">3840</property>
  <property name="kdenlive:original.meta.media.height">2160</property>
  <property name="kdenlive:original.meta.media.color_range">mpeg</property>
  <property name="kdenlive:original.kdenlive:id">326</property>
  <property name="kdenlive:original.kdenlive:file_hash">0229ac6cf50254b923c7610da8dc83ae</property>
  <property name="kdenlive:original.backup">1</property>
  <property name="kdenlive:file_hash">0229ac6cf50254b923c7610da8dc83ae</property>
  <property name="meta.media.nb_streams">1</property>
  <property name="meta.media.0.stream.type">video</property>
  <property name="meta.media.0.stream.frame_rate">60</property>
  <property name="meta.media.0.stream.sample_aspect_ratio">0</property>
  <property name="meta.media.0.codec.width">640</property>
  <property name="meta.media.0.codec.height">360</property>
  <property name="meta.media.0.codec.rotate">0</property>
  <property name="meta.media.0.codec.pix_fmt">yuv420p</property>
  <property name="meta.media.0.codec.sample_aspect_ratio">0</property>
  <property name="meta.media.0.codec.colorspace">601</property>
  <property name="meta.media.0.codec.name">h264</property>
  <property name="meta.media.0.codec.long_name">H.264 / AVC / MPEG-4 AVC / MPEG-4 part 10</property>
  <property name="meta.media.0.codec.bit_rate">897176</property>
  <property name="meta.attr.0.stream.handler_name.markup">VideoHandler</property>
  <property name="meta.attr.0.stream.vendor_id.markup">FFMP</property>
  <property name="meta.attr.0.stream.encoder.markup">Lavc58.134.100 libx264</property>
  <property name="meta.attr.major_brand.markup">qt  </property>
  <property name="meta.attr.minor_version.markup">512</property>
  <property name="meta.attr.compatible_brands.markup">qt  </property>
  <property name="meta.attr.encoder.markup">Lavf58.76.100</property>
  <property name="meta.attr.comment.markup">Rendered with Manim Community v0.12.0</property>
  <property name="meta.media.sample_aspect_num">1</property>
  <property name="meta.media.sample_aspect_den">1</property>
  <property name="meta.media.frame_rate_num">60</property>
  <property name="meta.media.frame_rate_den">1</property>
  <property name="meta.media.colorspace">601</property>
  <property name="meta.media.color_trc">2</property>
  <property name="meta.media.has_b_frames">0</property>
  <property name="meta.media.width">640</property>
  <property name="meta.media.height">360</property>
  <property name="meta.media.color_range">mpeg</property>
 </producer>
 <producer id="producer297" in="00:00:00.000" out="00:00:01.483">
  <property name="length">90</property>
  <property name="eof">pause</property>
  <property name="resource">/home/xiaoxiae/.cache/kdenlive/proxy/d2dddc315627e69e64900cf33755a753.mov</property>
  <property name="audio_index">-1</property>
  <property name="video_index">0</property>
  <property name="mute_on_pause">0</property>
  <property name="mlt_service">avformat-novalidate</property>
  <property name="seekable">1</property>
  <property name="aspect_ratio">1</property>
  <property name="kdenlive:clipname">20.mp4</property>
  <property name="kdenlive:folderid">314</property>
  <property name="kdenlive:id">326</property>
  <property name="kdenlive:file_size">101010</property>
  <property name="kdenlive:proxy">/home/xiaoxiae/.cache/kdenlive/proxy/d2dddc315627e69e64900cf33755a753.mov</property>
  <property name="kdenlive:originalurl">video/ProgrammingModel/vid/20.mp4</property>
  <property name="kdenlive:original.mlt_type">producer</property>
  <property name="kdenlive:original.in">0</property>
  <property name="kdenlive:original.out">89</property>
  <property name="kdenlive:original.length">90</property>
  <property name="kdenlive:original.eof">pause</property>
  <property name="kdenlive:original.resource">video/ProgrammingModel/vid/20.mp4</property>
  <property name="kdenlive:original.meta.media.nb_streams">1</property>
  <property name="kdenlive:original.meta.media.0.stream.type">video</property>
  <property name="kdenlive:original.meta.media.0.stream.frame_rate">60</property>
  <property name="kdenlive:original.meta.media.0.stream.sample_aspect_ratio">0</property>
  <property name="kdenlive:original.meta.media.0.codec.width">3840</property>
  <property name="kdenlive:original.meta.media.0.codec.height">2160</property>
  <property name="kdenlive:original.meta.media.0.codec.rotate">0</property>
  <property name="kdenlive:original.meta.media.0.codec.pix_fmt">yuv420p</property>
  <property name="kdenlive:original.meta.media.0.codec.sample_aspect_ratio">0</property>
  <property name="kdenlive:original.meta.media.0.codec.colorspace">709</property>
  <property name="kdenlive:original.meta.media.0.codec.name">h264</property>
  <property name="kdenlive:original.meta.media.0.codec.long_name">H.264 / AVC / MPEG-4 AVC / MPEG-4 part 10</property>
  <property name="kdenlive:original.meta.media.0.codec.bit_rate">528053</property>
  <property name="kdenlive:original.meta.attr.0.stream.handler_name.markup">VideoHandler</property>
  <property name="kdenlive:original.meta.attr.0.stream.vendor_id.markup">[0][0][0][0]</property>
  <property name="kdenlive:original.meta.attr.major_brand.markup">isom</property>
  <property name="kdenlive:original.meta.attr.minor_version.markup">512</property>
  <property name="kdenlive:original.meta.attr.compatible_brands.markup">isomiso2avc1mp41</property>
  <property name="kdenlive:original.meta.attr.encoder.markup">Lavf58.76.100</property>
  <property name="kdenlive:original.meta.attr.comment.markup">Rendered with Manim Community v0.12.0</property>
  <property name="kdenlive:original.seekable">1</property>
  <property name="kdenlive:original.width">3840</property>
  <property name="kdenlive:original.height">2160</property>
  <property name="kdenlive:original.meta.media.sample_aspect_num">1</property>
  <property name="kdenlive:original.meta.media.sample_aspect_den">1</property>
  <property name="kdenlive:original.aspect_ratio">1</property>
  <property name="kdenlive:original.audio_index">-1</property>
  <property name="kdenlive:original.video_index">0</property>
  <property name="kdenlive:original.mute_on_pause">0</property>
  <property name="kdenlive:original.mlt_service">avformat-novalidate</property>
  <property name="kdenlive:original.kdenlive:folderid">314</property>
  <property name="kdenlive:original.meta.media.frame_rate_num">60</property>
  <property name="kdenlive:original.meta.media.frame_rate_den">1</property>
  <property name="kdenlive:original.meta.media.colorspace">709</property>
  <property name="kdenlive:original.meta.media.color_trc">2</property>
  <property name="kdenlive:original.meta.media.has_b_frames">2</property>
  <property name="kdenlive:original.meta.media.width">3840</property>
  <property name="kdenlive:original.meta.media.height">2160</property>
  <property name="kdenlive:original.meta.media.color_range">mpeg</property>
  <property name="kdenlive:original.kdenlive:id">327</property>
  <property name="kdenlive:original.kdenlive:file_size">101010</property>
  <property name="kdenlive:original.kdenlive:file_hash">d2dddc315627e69e64900cf33755a753</property>
  <property name="kdenlive:original.backup">1</property>
  <property name="kdenlive:file_hash">d2dddc315627e69e64900cf33755a753</property>
  <property name="meta.media.nb_streams">1</property>
  <property name="meta.media.0.stream.type">video</property>
  <property name="meta.media.0.stream.frame_rate">60</property>
  <property name="meta.media.0.stream.sample_aspect_ratio">0</property>
  <property name="meta.media.0.codec.width">640</property>
  <property name="meta.media.0.codec.height">360</property>
  <property name="meta.media.0.codec.rotate">0</property>
  <property name="meta.media.0.codec.pix_fmt">yuv420p</property>
  <property name="meta.media.0.codec.sample_aspect_ratio">0</property>
  <property name="meta.media.0.codec.colorspace">601</property>
  <property name="meta.media.0.codec.name">h264</property>
  <property name="meta.media.0.codec.long_name">H.264 / AVC / MPEG-4 AVC / MPEG-4 part 10</property>
  <property name="meta.media.0.codec.bit_rate">2860181</property>
  <property name="meta.attr.0.stream.handler_name.markup">VideoHandler</property>
  <property name="meta.attr.0.stream.vendor_id.markup">FFMP</property>
  <property name="meta.attr.0.stream.encoder.markup">Lavc58.134.100 libx264</property>
  <property name="meta.attr.major_brand.markup">qt  </property>
  <property name="meta.attr.minor_version.markup">512</property>
  <property name="meta.attr.compatible_brands.markup">qt  </property>
  <property name="meta.attr.encoder.markup">Lavf58.76.100</property>
  <property name="meta.attr.comment.markup">Rendered with Manim Community v0.12.0</property>
  <property name="meta.media.sample_aspect_num">1</property>
  <property name="meta.media.sample_aspect_den">1</property>
  <property name="meta.media.frame_rate_num">60</property>
  <property name="meta.media.frame_rate_den">1</property>
  <property name="meta.media.colorspace">601</property>
  <property name="meta.media.color_trc">2</property>
  <property name="meta.media.has_b_frames">0</property>
  <property name="meta.media.width">640</property>
  <property name="meta.media.height">360</property>
  <property name="meta.media.color_range">mpeg</property>
 </producer>
 <producer id="producer298" in="00:00:00.000" out="00:00:01.483">
  <property name="length">90</property>
  <property name="eof">pause</property>
  <property name="resource">/home/xiaoxiae/.cache/kdenlive/proxy/e40e4951b383b2d6e4cb595c4013bae7.mov</property>
  <property name="audio_index">-1</property>
  <property name="video_index">0</property>
  <property name="mute_on_pause">0</property>
  <property name="mlt_service">avformat-novalidate</property>
  <property name="seekable">1</property>
  <property name="aspect_ratio">1</property>
  <property name="kdenlive:clipname">21.mp4</property>
  <property name="kdenlive:folderid">314</property>
  <property name="kdenlive:file_size">104034</property>
  <property name="kdenlive:id">327</property>
  <property name="kdenlive:proxy">/home/xiaoxiae/.cache/kdenlive/proxy/e40e4951b383b2d6e4cb595c4013bae7.mov</property>
  <property name="kdenlive:originalurl">video/ProgrammingModel/vid/21.mp4</property>
  <property name="kdenlive:original.mlt_type">producer</property>
  <property name="kdenlive:original.in">0</property>
  <property name="kdenlive:original.out">89</property>
  <property name="kdenlive:original.length">90</property>
  <property name="kdenlive:original.eof">pause</property>
  <property name="kdenlive:original.resource">video/ProgrammingModel/vid/21.mp4</property>
  <property name="kdenlive:original.meta.media.nb_streams">1</property>
  <property name="kdenlive:original.meta.media.0.stream.type">video</property>
  <property name="kdenlive:original.meta.media.0.stream.frame_rate">60</property>
  <property name="kdenlive:original.meta.media.0.stream.sample_aspect_ratio">0</property>
  <property name="kdenlive:original.meta.media.0.codec.width">3840</property>
  <property name="kdenlive:original.meta.media.0.codec.height">2160</property>
  <property name="kdenlive:original.meta.media.0.codec.rotate">0</property>
  <property name="kdenlive:original.meta.media.0.codec.pix_fmt">yuv420p</property>
  <property name="kdenlive:original.meta.media.0.codec.sample_aspect_ratio">0</property>
  <property name="kdenlive:original.meta.media.0.codec.colorspace">709</property>
  <property name="kdenlive:original.meta.media.0.codec.name">h264</property>
  <property name="kdenlive:original.meta.media.0.codec.long_name">H.264 / AVC / MPEG-4 AVC / MPEG-4 part 10</property>
  <property name="kdenlive:original.meta.media.0.codec.bit_rate">544181</property>
  <property name="kdenlive:original.meta.attr.0.stream.handler_name.markup">VideoHandler</property>
  <property name="kdenlive:original.meta.attr.0.stream.vendor_id.markup">[0][0][0][0]</property>
  <property name="kdenlive:original.meta.attr.major_brand.markup">isom</property>
  <property name="kdenlive:original.meta.attr.minor_version.markup">512</property>
  <property name="kdenlive:original.meta.attr.compatible_brands.markup">isomiso2avc1mp41</property>
  <property name="kdenlive:original.meta.attr.encoder.markup">Lavf58.76.100</property>
  <property name="kdenlive:original.meta.attr.comment.markup">Rendered with Manim Community v0.12.0</property>
  <property name="kdenlive:original.seekable">1</property>
  <property name="kdenlive:original.width">3840</property>
  <property name="kdenlive:original.height">2160</property>
  <property name="kdenlive:original.meta.media.sample_aspect_num">1</property>
  <property name="kdenlive:original.meta.media.sample_aspect_den">1</property>
  <property name="kdenlive:original.aspect_ratio">1</property>
  <property name="kdenlive:original.audio_index">-1</property>
  <property name="kdenlive:original.video_index">0</property>
  <property name="kdenlive:original.mute_on_pause">0</property>
  <property name="kdenlive:original.mlt_service">avformat-novalidate</property>
  <property name="kdenlive:original.kdenlive:folderid">314</property>
  <property name="kdenlive:original.kdenlive:file_size">104034</property>
  <property name="kdenlive:original.meta.media.frame_rate_num">60</property>
  <property name="kdenlive:original.meta.media.frame_rate_den">1</property>
  <property name="kdenlive:original.meta.media.colorspace">709</property>
  <property name="kdenlive:original.meta.media.color_trc">2</property>
  <property name="kdenlive:original.meta.media.has_b_frames">2</property>
  <property name="kdenlive:original.meta.media.width">3840</property>
  <property name="kdenlive:original.meta.media.height">2160</property>
  <property name="kdenlive:original.meta.media.color_range">mpeg</property>
  <property name="kdenlive:original.kdenlive:id">328</property>
  <property name="kdenlive:original.kdenlive:file_hash">e40e4951b383b2d6e4cb595c4013bae7</property>
  <property name="kdenlive:original.backup">1</property>
  <property name="kdenlive:file_hash">e40e4951b383b2d6e4cb595c4013bae7</property>
  <property name="meta.media.nb_streams">1</property>
  <property name="meta.media.0.stream.type">video</property>
  <property name="meta.media.0.stream.frame_rate">60</property>
  <property name="meta.media.0.stream.sample_aspect_ratio">0</property>
  <property name="meta.media.0.codec.width">640</property>
  <property name="meta.media.0.codec.height">360</property>
  <property name="meta.media.0.codec.rotate">0</property>
  <property name="meta.media.0.codec.pix_fmt">yuv420p</property>
  <property name="meta.media.0.codec.sample_aspect_ratio">0</property>
  <property name="meta.media.0.codec.colorspace">601</property>
  <property name="meta.media.0.codec.name">h264</property>
  <property name="meta.media.0.codec.long_name">H.264 / AVC / MPEG-4 AVC / MPEG-4 part 10</property>
  <property name="meta.media.0.codec.bit_rate">2940864</property>
  <property name="meta.attr.0.stream.handler_name.markup">VideoHandler</property>
  <property name="meta.attr.0.stream.vendor_id.markup">FFMP</property>
  <property name="meta.attr.0.stream.encoder.markup">Lavc58.134.100 libx264</property>
  <property name="meta.attr.major_brand.markup">qt  </property>
  <property name="meta.attr.minor_version.markup">512</property>
  <property name="meta.attr.compatible_brands.markup">qt  </property>
  <property name="meta.attr.encoder.markup">Lavf58.76.100</property>
  <property name="meta.attr.comment.markup">Rendered with Manim Community v0.12.0</property>
  <property name="meta.media.sample_aspect_num">1</property>
  <property name="meta.media.sample_aspect_den">1</property>
  <property name="meta.media.frame_rate_num">60</property>
  <property name="meta.media.frame_rate_den">1</property>
  <property name="meta.media.colorspace">601</property>
  <property name="meta.media.color_trc">2</property>
  <property name="meta.media.has_b_frames">0</property>
  <property name="meta.media.width">640</property>
  <property name="meta.media.height">360</property>
  <property name="meta.media.color_range">mpeg</property>
 </producer>
 <producer id="producer299" in="00:00:00.000" out="00:00:02.483">
  <property name="length">150</property>
  <property name="eof">pause</property>
  <property name="resource">/home/xiaoxiae/.cache/kdenlive/proxy/664cf91332fa6a1c9749657b5c5252fa.mov</property>
  <property name="audio_index">-1</property>
  <property name="video_index">0</property>
  <property name="mute_on_pause">0</property>
  <property name="mlt_service">avformat-novalidate</property>
  <property name="seekable">1</property>
  <property name="aspect_ratio">1</property>
  <property name="kdenlive:clipname">22.mp4</property>
  <property name="kdenlive:folderid">314</property>
  <property name="kdenlive:id">328</property>
  <property name="kdenlive:file_size">122475</property>
  <property name="kdenlive:proxy">/home/xiaoxiae/.cache/kdenlive/proxy/664cf91332fa6a1c9749657b5c5252fa.mov</property>
  <property name="kdenlive:originalurl">video/ProgrammingModel/vid/22.mp4</property>
  <property name="kdenlive:original.mlt_type">producer</property>
  <property name="kdenlive:original.in">0</property>
  <property name="kdenlive:original.out">149</property>
  <property name="kdenlive:original.length">150</property>
  <property name="kdenlive:original.eof">pause</property>
  <property name="kdenlive:original.resource">video/ProgrammingModel/vid/22.mp4</property>
  <property name="kdenlive:original.meta.media.nb_streams">1</property>
  <property name="kdenlive:original.meta.media.0.stream.type">video</property>
  <property name="kdenlive:original.meta.media.0.stream.frame_rate">60</property>
  <property name="kdenlive:original.meta.media.0.stream.sample_aspect_ratio">0</property>
  <property name="kdenlive:original.meta.media.0.codec.width">3840</property>
  <property name="kdenlive:original.meta.media.0.codec.height">2160</property>
  <property name="kdenlive:original.meta.media.0.codec.rotate">0</property>
  <property name="kdenlive:original.meta.media.0.codec.pix_fmt">yuv420p</property>
  <property name="kdenlive:original.meta.media.0.codec.sample_aspect_ratio">0</property>
  <property name="kdenlive:original.meta.media.0.codec.colorspace">709</property>
  <property name="kdenlive:original.meta.media.0.codec.name">h264</property>
  <property name="kdenlive:original.meta.media.0.codec.long_name">H.264 / AVC / MPEG-4 AVC / MPEG-4 part 10</property>
  <property name="kdenlive:original.meta.media.0.codec.bit_rate">383216</property>
  <property name="kdenlive:original.meta.attr.0.stream.handler_name.markup">VideoHandler</property>
  <property name="kdenlive:original.meta.attr.0.stream.vendor_id.markup">[0][0][0][0]</property>
  <property name="kdenlive:original.meta.attr.major_brand.markup">isom</property>
  <property name="kdenlive:original.meta.attr.minor_version.markup">512</property>
  <property name="kdenlive:original.meta.attr.compatible_brands.markup">isomiso2avc1mp41</property>
  <property name="kdenlive:original.meta.attr.encoder.markup">Lavf58.76.100</property>
  <property name="kdenlive:original.meta.attr.comment.markup">Rendered with Manim Community v0.12.0</property>
  <property name="kdenlive:original.seekable">1</property>
  <property name="kdenlive:original.width">3840</property>
  <property name="kdenlive:original.height">2160</property>
  <property name="kdenlive:original.meta.media.sample_aspect_num">1</property>
  <property name="kdenlive:original.meta.media.sample_aspect_den">1</property>
  <property name="kdenlive:original.aspect_ratio">1</property>
  <property name="kdenlive:original.audio_index">-1</property>
  <property name="kdenlive:original.video_index">0</property>
  <property name="kdenlive:original.mute_on_pause">0</property>
  <property name="kdenlive:original.mlt_service">avformat-novalidate</property>
  <property name="kdenlive:original.kdenlive:folderid">314</property>
  <property name="kdenlive:original.meta.media.frame_rate_num">60</property>
  <property name="kdenlive:original.meta.media.frame_rate_den">1</property>
  <property name="kdenlive:original.meta.media.colorspace">709</property>
  <property name="kdenlive:original.meta.media.color_trc">2</property>
  <property name="kdenlive:original.meta.media.has_b_frames">2</property>
  <property name="kdenlive:original.meta.media.width">3840</property>
  <property name="kdenlive:original.meta.media.height">2160</property>
  <property name="kdenlive:original.meta.media.color_range">mpeg</property>
  <property name="kdenlive:original.kdenlive:id">329</property>
  <property name="kdenlive:original.kdenlive:file_size">122475</property>
  <property name="kdenlive:original.kdenlive:file_hash">664cf91332fa6a1c9749657b5c5252fa</property>
  <property name="kdenlive:original.backup">1</property>
  <property name="kdenlive:file_hash">664cf91332fa6a1c9749657b5c5252fa</property>
  <property name="meta.media.nb_streams">1</property>
  <property name="meta.media.0.stream.type">video</property>
  <property name="meta.media.0.stream.frame_rate">60</property>
  <property name="meta.media.0.stream.sample_aspect_ratio">0</property>
  <property name="meta.media.0.codec.width">640</property>
  <property name="meta.media.0.codec.height">360</property>
  <property name="meta.media.0.codec.rotate">0</property>
  <property name="meta.media.0.codec.pix_fmt">yuv420p</property>
  <property name="meta.media.0.codec.sample_aspect_ratio">0</property>
  <property name="meta.media.0.codec.colorspace">601</property>
  <property name="meta.media.0.codec.name">h264</property>
  <property name="meta.media.0.codec.long_name">H.264 / AVC / MPEG-4 AVC / MPEG-4 part 10</property>
  <property name="meta.media.0.codec.bit_rate">2915257</property>
  <property name="meta.attr.0.stream.handler_name.markup">VideoHandler</property>
  <property name="meta.attr.0.stream.vendor_id.markup">FFMP</property>
  <property name="meta.attr.0.stream.encoder.markup">Lavc58.134.100 libx264</property>
  <property name="meta.attr.major_brand.markup">qt  </property>
  <property name="meta.attr.minor_version.markup">512</property>
  <property name="meta.attr.compatible_brands.markup">qt  </property>
  <property name="meta.attr.encoder.markup">Lavf58.76.100</property>
  <property name="meta.attr.comment.markup">Rendered with Manim Community v0.12.0</property>
  <property name="meta.media.sample_aspect_num">1</property>
  <property name="meta.media.sample_aspect_den">1</property>
  <property name="meta.media.frame_rate_num">60</property>
  <property name="meta.media.frame_rate_den">1</property>
  <property name="meta.media.colorspace">601</property>
  <property name="meta.media.color_trc">2</property>
  <property name="meta.media.has_b_frames">0</property>
  <property name="meta.media.width">640</property>
  <property name="meta.media.height">360</property>
  <property name="meta.media.color_range">mpeg</property>
 </producer>
 <producer id="producer300" in="00:00:00.000" out="00:00:00.983">
  <property name="length">60</property>
  <property name="eof">pause</property>
  <property name="resource">/home/xiaoxiae/.cache/kdenlive/proxy/75dad634867c4bd6931ae4385d18c2f2.mov</property>
  <property name="audio_index">-1</property>
  <property name="video_index">0</property>
  <property name="mute_on_pause">0</property>
  <property name="mlt_service">avformat-novalidate</property>
  <property name="seekable">1</property>
  <property name="aspect_ratio">1</property>
  <property name="kdenlive:clipname">23.mp4</property>
  <property name="kdenlive:folderid">314</property>
  <property name="kdenlive:id">329</property>
  <property name="kdenlive:file_size">161569</property>
  <property name="kdenlive:proxy">/home/xiaoxiae/.cache/kdenlive/proxy/75dad634867c4bd6931ae4385d18c2f2.mov</property>
  <property name="kdenlive:originalurl">video/ProgrammingModel/vid/23.mp4</property>
  <property name="kdenlive:original.mlt_type">producer</property>
  <property name="kdenlive:original.in">0</property>
  <property name="kdenlive:original.out">59</property>
  <property name="kdenlive:original.length">60</property>
  <property name="kdenlive:original.eof">pause</property>
  <property name="kdenlive:original.resource">video/ProgrammingModel/vid/23.mp4</property>
  <property name="kdenlive:original.meta.media.nb_streams">1</property>
  <property name="kdenlive:original.meta.media.0.stream.type">video</property>
  <property name="kdenlive:original.meta.media.0.stream.frame_rate">60</property>
  <property name="kdenlive:original.meta.media.0.stream.sample_aspect_ratio">0</property>
  <property name="kdenlive:original.meta.media.0.codec.width">3840</property>
  <property name="kdenlive:original.meta.media.0.codec.height">2160</property>
  <property name="kdenlive:original.meta.media.0.codec.rotate">0</property>
  <property name="kdenlive:original.meta.media.0.codec.pix_fmt">yuv420p</property>
  <property name="kdenlive:original.meta.media.0.codec.sample_aspect_ratio">0</property>
  <property name="kdenlive:original.meta.media.0.codec.colorspace">709</property>
  <property name="kdenlive:original.meta.media.0.codec.name">h264</property>
  <property name="kdenlive:original.meta.media.0.codec.long_name">H.264 / AVC / MPEG-4 AVC / MPEG-4 part 10</property>
  <property name="kdenlive:original.meta.media.0.codec.bit_rate">1279624</property>
  <property name="kdenlive:original.meta.attr.0.stream.handler_name.markup">VideoHandler</property>
  <property name="kdenlive:original.meta.attr.0.stream.vendor_id.markup">[0][0][0][0]</property>
  <property name="kdenlive:original.meta.attr.major_brand.markup">isom</property>
  <property name="kdenlive:original.meta.attr.minor_version.markup">512</property>
  <property name="kdenlive:original.meta.attr.compatible_brands.markup">isomiso2avc1mp41</property>
  <property name="kdenlive:original.meta.attr.encoder.markup">Lavf58.76.100</property>
  <property name="kdenlive:original.meta.attr.comment.markup">Rendered with Manim Community v0.12.0</property>
  <property name="kdenlive:original.seekable">1</property>
  <property name="kdenlive:original.width">3840</property>
  <property name="kdenlive:original.height">2160</property>
  <property name="kdenlive:original.meta.media.sample_aspect_num">1</property>
  <property name="kdenlive:original.meta.media.sample_aspect_den">1</property>
  <property name="kdenlive:original.aspect_ratio">1</property>
  <property name="kdenlive:original.audio_index">-1</property>
  <property name="kdenlive:original.video_index">0</property>
  <property name="kdenlive:original.mute_on_pause">0</property>
  <property name="kdenlive:original.mlt_service">avformat-novalidate</property>
  <property name="kdenlive:original.kdenlive:folderid">314</property>
  <property name="kdenlive:original.meta.media.frame_rate_num">60</property>
  <property name="kdenlive:original.meta.media.frame_rate_den">1</property>
  <property name="kdenlive:original.meta.media.colorspace">709</property>
  <property name="kdenlive:original.meta.media.color_trc">2</property>
  <property name="kdenlive:original.meta.media.has_b_frames">2</property>
  <property name="kdenlive:original.meta.media.width">3840</property>
  <property name="kdenlive:original.meta.media.height">2160</property>
  <property name="kdenlive:original.meta.media.color_range">mpeg</property>
  <property name="kdenlive:original.kdenlive:id">330</property>
  <property name="kdenlive:original.kdenlive:file_size">161569</property>
  <property name="kdenlive:original.kdenlive:file_hash">75dad634867c4bd6931ae4385d18c2f2</property>
  <property name="kdenlive:original.backup">1</property>
  <property name="kdenlive:file_hash">75dad634867c4bd6931ae4385d18c2f2</property>
  <property name="meta.media.nb_streams">1</property>
  <property name="meta.media.0.stream.type">video</property>
  <property name="meta.media.0.stream.frame_rate">60</property>
  <property name="meta.media.0.stream.sample_aspect_ratio">0</property>
  <property name="meta.media.0.codec.width">640</property>
  <property name="meta.media.0.codec.height">360</property>
  <property name="meta.media.0.codec.rotate">0</property>
  <property name="meta.media.0.codec.pix_fmt">yuv420p</property>
  <property name="meta.media.0.codec.sample_aspect_ratio">0</property>
  <property name="meta.media.0.codec.colorspace">601</property>
  <property name="meta.media.0.codec.name">h264</property>
  <property name="meta.media.0.codec.long_name">H.264 / AVC / MPEG-4 AVC / MPEG-4 part 10</property>
  <property name="meta.media.0.codec.bit_rate">2996424</property>
  <property name="meta.attr.0.stream.handler_name.markup">VideoHandler</property>
  <property name="meta.attr.0.stream.vendor_id.markup">FFMP</property>
  <property name="meta.attr.0.stream.encoder.markup">Lavc58.134.100 libx264</property>
  <property name="meta.attr.major_brand.markup">qt  </property>
  <property name="meta.attr.minor_version.markup">512</property>
  <property name="meta.attr.compatible_brands.markup">qt  </property>
  <property name="meta.attr.encoder.markup">Lavf58.76.100</property>
  <property name="meta.attr.comment.markup">Rendered with Manim Community v0.12.0</property>
  <property name="meta.media.sample_aspect_num">1</property>
  <property name="meta.media.sample_aspect_den">1</property>
  <property name="meta.media.frame_rate_num">60</property>
  <property name="meta.media.frame_rate_den">1</property>
  <property name="meta.media.colorspace">601</property>
  <property name="meta.media.color_trc">2</property>
  <property name="meta.media.has_b_frames">0</property>
  <property name="meta.media.width">640</property>
  <property name="meta.media.height">360</property>
  <property name="meta.media.color_range">mpeg</property>
 </producer>
 <producer id="producer301" in="00:00:00.000" out="00:00:02.800">
  <property name="length">169</property>
  <property name="eof">pause</property>
  <property name="resource">/home/xiaoxiae/.cache/kdenlive/proxy/ba1a3045851ce31cf766327e0f4655c3.mov</property>
  <property name="audio_index">-1</property>
  <property name="video_index">0</property>
  <property name="mute_on_pause">0</property>
  <property name="mlt_service">avformat-novalidate</property>
  <property name="seekable">1</property>
  <property name="aspect_ratio">1</property>
  <property name="kdenlive:clipname">24.mp4</property>
  <property name="kdenlive:folderid">314</property>
  <property name="kdenlive:id">330</property>
  <property name="kdenlive:file_size">141500</property>
  <property name="kdenlive:proxy">/home/xiaoxiae/.cache/kdenlive/proxy/ba1a3045851ce31cf766327e0f4655c3.mov</property>
  <property name="kdenlive:originalurl">video/ProgrammingModel/vid/24.mp4</property>
  <property name="kdenlive:original.mlt_type">producer</property>
  <property name="kdenlive:original.in">0</property>
  <property name="kdenlive:original.out">168</property>
  <property name="kdenlive:original.length">169</property>
  <property name="kdenlive:original.eof">pause</property>
  <property name="kdenlive:original.resource">video/ProgrammingModel/vid/24.mp4</property>
  <property name="kdenlive:original.meta.media.nb_streams">1</property>
  <property name="kdenlive:original.meta.media.0.stream.type">video</property>
  <property name="kdenlive:original.meta.media.0.stream.frame_rate">60</property>
  <property name="kdenlive:original.meta.media.0.stream.sample_aspect_ratio">0</property>
  <property name="kdenlive:original.meta.media.0.codec.width">3840</property>
  <property name="kdenlive:original.meta.media.0.codec.height">2160</property>
  <property name="kdenlive:original.meta.media.0.codec.rotate">0</property>
  <property name="kdenlive:original.meta.media.0.codec.pix_fmt">yuv420p</property>
  <property name="kdenlive:original.meta.media.0.codec.sample_aspect_ratio">0</property>
  <property name="kdenlive:original.meta.media.0.codec.colorspace">709</property>
  <property name="kdenlive:original.meta.media.0.codec.name">h264</property>
  <property name="kdenlive:original.meta.media.0.codec.long_name">H.264 / AVC / MPEG-4 AVC / MPEG-4 part 10</property>
  <property name="kdenlive:original.meta.media.0.codec.bit_rate">393520</property>
  <property name="kdenlive:original.meta.attr.0.stream.handler_name.markup">VideoHandler</property>
  <property name="kdenlive:original.meta.attr.0.stream.vendor_id.markup">[0][0][0][0]</property>
  <property name="kdenlive:original.meta.attr.major_brand.markup">isom</property>
  <property name="kdenlive:original.meta.attr.minor_version.markup">512</property>
  <property name="kdenlive:original.meta.attr.compatible_brands.markup">isomiso2avc1mp41</property>
  <property name="kdenlive:original.meta.attr.encoder.markup">Lavf58.76.100</property>
  <property name="kdenlive:original.meta.attr.comment.markup">Rendered with Manim Community v0.12.0</property>
  <property name="kdenlive:original.seekable">1</property>
  <property name="kdenlive:original.width">3840</property>
  <property name="kdenlive:original.height">2160</property>
  <property name="kdenlive:original.meta.media.sample_aspect_num">1</property>
  <property name="kdenlive:original.meta.media.sample_aspect_den">1</property>
  <property name="kdenlive:original.aspect_ratio">1</property>
  <property name="kdenlive:original.audio_index">-1</property>
  <property name="kdenlive:original.video_index">0</property>
  <property name="kdenlive:original.mute_on_pause">0</property>
  <property name="kdenlive:original.mlt_service">avformat-novalidate</property>
  <property name="kdenlive:original.kdenlive:folderid">314</property>
  <property name="kdenlive:original.meta.media.frame_rate_num">60</property>
  <property name="kdenlive:original.meta.media.frame_rate_den">1</property>
  <property name="kdenlive:original.meta.media.colorspace">709</property>
  <property name="kdenlive:original.meta.media.color_trc">2</property>
  <property name="kdenlive:original.meta.media.has_b_frames">2</property>
  <property name="kdenlive:original.meta.media.width">3840</property>
  <property name="kdenlive:original.meta.media.height">2160</property>
  <property name="kdenlive:original.meta.media.color_range">mpeg</property>
  <property name="kdenlive:original.kdenlive:id">331</property>
  <property name="kdenlive:original.kdenlive:file_size">141500</property>
  <property name="kdenlive:original.kdenlive:file_hash">ba1a3045851ce31cf766327e0f4655c3</property>
  <property name="kdenlive:original.backup">1</property>
  <property name="kdenlive:file_hash">ba1a3045851ce31cf766327e0f4655c3</property>
  <property name="meta.media.nb_streams">1</property>
  <property name="meta.media.0.stream.type">video</property>
  <property name="meta.media.0.stream.frame_rate">60</property>
  <property name="meta.media.0.stream.sample_aspect_ratio">0</property>
  <property name="meta.media.0.codec.width">640</property>
  <property name="meta.media.0.codec.height">360</property>
  <property name="meta.media.0.codec.rotate">0</property>
  <property name="meta.media.0.codec.pix_fmt">yuv420p</property>
  <property name="meta.media.0.codec.sample_aspect_ratio">0</property>
  <property name="meta.media.0.codec.colorspace">601</property>
  <property name="meta.media.0.codec.name">h264</property>
  <property name="meta.media.0.codec.long_name">H.264 / AVC / MPEG-4 AVC / MPEG-4 part 10</property>
  <property name="meta.media.0.codec.bit_rate">3003834</property>
  <property name="meta.attr.0.stream.handler_name.markup">VideoHandler</property>
  <property name="meta.attr.0.stream.vendor_id.markup">FFMP</property>
  <property name="meta.attr.0.stream.encoder.markup">Lavc58.134.100 libx264</property>
  <property name="meta.attr.major_brand.markup">qt  </property>
  <property name="meta.attr.minor_version.markup">512</property>
  <property name="meta.attr.compatible_brands.markup">qt  </property>
  <property name="meta.attr.encoder.markup">Lavf58.76.100</property>
  <property name="meta.attr.comment.markup">Rendered with Manim Community v0.12.0</property>
  <property name="meta.media.sample_aspect_num">1</property>
  <property name="meta.media.sample_aspect_den">1</property>
  <property name="meta.media.frame_rate_num">60</property>
  <property name="meta.media.frame_rate_den">1</property>
  <property name="meta.media.colorspace">601</property>
  <property name="meta.media.color_trc">2</property>
  <property name="meta.media.has_b_frames">0</property>
  <property name="meta.media.width">640</property>
  <property name="meta.media.height">360</property>
  <property name="meta.media.color_range">mpeg</property>
 </producer>
 <producer id="producer302" in="00:00:00.000" out="00:00:02.483">
  <property name="length">150</property>
  <property name="eof">pause</property>
  <property name="resource">/home/xiaoxiae/.cache/kdenlive/proxy/2c70ba601cfee8adfa0c57a7e2ed9b5a.mov</property>
  <property name="audio_index">-1</property>
  <property name="video_index">0</property>
  <property name="mute_on_pause">0</property>
  <property name="mlt_service">avformat-novalidate</property>
  <property name="seekable">1</property>
  <property name="aspect_ratio">1</property>
  <property name="kdenlive:clipname">25.mp4</property>
  <property name="kdenlive:folderid">314</property>
  <property name="kdenlive:id">331</property>
  <property name="kdenlive:file_size">123326</property>
  <property name="kdenlive:proxy">/home/xiaoxiae/.cache/kdenlive/proxy/2c70ba601cfee8adfa0c57a7e2ed9b5a.mov</property>
  <property name="kdenlive:originalurl">video/ProgrammingModel/vid/25.mp4</property>
  <property name="kdenlive:original.mlt_type">producer</property>
  <property name="kdenlive:original.in">0</property>
  <property name="kdenlive:original.out">149</property>
  <property name="kdenlive:original.length">150</property>
  <property name="kdenlive:original.eof">pause</property>
  <property name="kdenlive:original.resource">video/ProgrammingModel/vid/25.mp4</property>
  <property name="kdenlive:original.meta.media.nb_streams">1</property>
  <property name="kdenlive:original.meta.media.0.stream.type">video</property>
  <property name="kdenlive:original.meta.media.0.stream.frame_rate">60</property>
  <property name="kdenlive:original.meta.media.0.stream.sample_aspect_ratio">0</property>
  <property name="kdenlive:original.meta.media.0.codec.width">3840</property>
  <property name="kdenlive:original.meta.media.0.codec.height">2160</property>
  <property name="kdenlive:original.meta.media.0.codec.rotate">0</property>
  <property name="kdenlive:original.meta.media.0.codec.pix_fmt">yuv420p</property>
  <property name="kdenlive:original.meta.media.0.codec.sample_aspect_ratio">0</property>
  <property name="kdenlive:original.meta.media.0.codec.colorspace">709</property>
  <property name="kdenlive:original.meta.media.0.codec.name">h264</property>
  <property name="kdenlive:original.meta.media.0.codec.long_name">H.264 / AVC / MPEG-4 AVC / MPEG-4 part 10</property>
  <property name="kdenlive:original.meta.media.0.codec.bit_rate">385939</property>
  <property name="kdenlive:original.meta.attr.0.stream.handler_name.markup">VideoHandler</property>
  <property name="kdenlive:original.meta.attr.0.stream.vendor_id.markup">[0][0][0][0]</property>
  <property name="kdenlive:original.meta.attr.major_brand.markup">isom</property>
  <property name="kdenlive:original.meta.attr.minor_version.markup">512</property>
  <property name="kdenlive:original.meta.attr.compatible_brands.markup">isomiso2avc1mp41</property>
  <property name="kdenlive:original.meta.attr.encoder.markup">Lavf58.76.100</property>
  <property name="kdenlive:original.meta.attr.comment.markup">Rendered with Manim Community v0.12.0</property>
  <property name="kdenlive:original.seekable">1</property>
  <property name="kdenlive:original.width">3840</property>
  <property name="kdenlive:original.height">2160</property>
  <property name="kdenlive:original.meta.media.sample_aspect_num">1</property>
  <property name="kdenlive:original.meta.media.sample_aspect_den">1</property>
  <property name="kdenlive:original.aspect_ratio">1</property>
  <property name="kdenlive:original.audio_index">-1</property>
  <property name="kdenlive:original.video_index">0</property>
  <property name="kdenlive:original.mute_on_pause">0</property>
  <property name="kdenlive:original.mlt_service">avformat-novalidate</property>
  <property name="kdenlive:original.kdenlive:folderid">314</property>
  <property name="kdenlive:original.meta.media.frame_rate_num">60</property>
  <property name="kdenlive:original.meta.media.frame_rate_den">1</property>
  <property name="kdenlive:original.meta.media.colorspace">709</property>
  <property name="kdenlive:original.meta.media.color_trc">2</property>
  <property name="kdenlive:original.meta.media.has_b_frames">2</property>
  <property name="kdenlive:original.meta.media.width">3840</property>
  <property name="kdenlive:original.meta.media.height">2160</property>
  <property name="kdenlive:original.meta.media.color_range">mpeg</property>
  <property name="kdenlive:original.kdenlive:id">332</property>
  <property name="kdenlive:original.kdenlive:file_size">123326</property>
  <property name="kdenlive:original.kdenlive:file_hash">2c70ba601cfee8adfa0c57a7e2ed9b5a</property>
  <property name="kdenlive:original.backup">1</property>
  <property name="kdenlive:file_hash">2c70ba601cfee8adfa0c57a7e2ed9b5a</property>
  <property name="meta.media.nb_streams">1</property>
  <property name="meta.media.0.stream.type">video</property>
  <property name="meta.media.0.stream.frame_rate">60</property>
  <property name="meta.media.0.stream.sample_aspect_ratio">0</property>
  <property name="meta.media.0.codec.width">640</property>
  <property name="meta.media.0.codec.height">360</property>
  <property name="meta.media.0.codec.rotate">0</property>
  <property name="meta.media.0.codec.pix_fmt">yuv420p</property>
  <property name="meta.media.0.codec.sample_aspect_ratio">0</property>
  <property name="meta.media.0.codec.colorspace">601</property>
  <property name="meta.media.0.codec.name">h264</property>
  <property name="meta.media.0.codec.long_name">H.264 / AVC / MPEG-4 AVC / MPEG-4 part 10</property>
  <property name="meta.media.0.codec.bit_rate">2994896</property>
  <property name="meta.attr.0.stream.handler_name.markup">VideoHandler</property>
  <property name="meta.attr.0.stream.vendor_id.markup">FFMP</property>
  <property name="meta.attr.0.stream.encoder.markup">Lavc58.134.100 libx264</property>
  <property name="meta.attr.major_brand.markup">qt  </property>
  <property name="meta.attr.minor_version.markup">512</property>
  <property name="meta.attr.compatible_brands.markup">qt  </property>
  <property name="meta.attr.encoder.markup">Lavf58.76.100</property>
  <property name="meta.attr.comment.markup">Rendered with Manim Community v0.12.0</property>
  <property name="meta.media.sample_aspect_num">1</property>
  <property name="meta.media.sample_aspect_den">1</property>
  <property name="meta.media.frame_rate_num">60</property>
  <property name="meta.media.frame_rate_den">1</property>
  <property name="meta.media.colorspace">601</property>
  <property name="meta.media.color_trc">2</property>
  <property name="meta.media.has_b_frames">0</property>
  <property name="meta.media.width">640</property>
  <property name="meta.media.height">360</property>
  <property name="meta.media.color_range">mpeg</property>
 </producer>
 <producer id="producer303" in="00:00:00.000" out="00:00:00.983">
  <property name="length">60</property>
  <property name="eof">pause</property>
  <property name="resource">/home/xiaoxiae/.cache/kdenlive/proxy/21fc3cd855d890deca806e3be5c411ce.mov</property>
  <property name="audio_index">-1</property>
  <property name="video_index">0</property>
  <property name="mute_on_pause">0</property>
  <property name="mlt_service">avformat-novalidate</property>
  <property name="seekable">1</property>
  <property name="aspect_ratio">1</property>
  <property name="kdenlive:clipname">26.mp4</property>
  <property name="kdenlive:folderid">314</property>
  <property name="kdenlive:id">332</property>
  <property name="kdenlive:file_size">103881</property>
  <property name="kdenlive:proxy">/home/xiaoxiae/.cache/kdenlive/proxy/21fc3cd855d890deca806e3be5c411ce.mov</property>
  <property name="kdenlive:originalurl">video/ProgrammingModel/vid/26.mp4</property>
  <property name="kdenlive:original.mlt_type">producer</property>
  <property name="kdenlive:original.in">0</property>
  <property name="kdenlive:original.out">59</property>
  <property name="kdenlive:original.length">60</property>
  <property name="kdenlive:original.eof">pause</property>
  <property name="kdenlive:original.resource">video/ProgrammingModel/vid/26.mp4</property>
  <property name="kdenlive:original.meta.media.nb_streams">1</property>
  <property name="kdenlive:original.meta.media.0.stream.type">video</property>
  <property name="kdenlive:original.meta.media.0.stream.frame_rate">60</property>
  <property name="kdenlive:original.meta.media.0.stream.sample_aspect_ratio">0</property>
  <property name="kdenlive:original.meta.media.0.codec.width">3840</property>
  <property name="kdenlive:original.meta.media.0.codec.height">2160</property>
  <property name="kdenlive:original.meta.media.0.codec.rotate">0</property>
  <property name="kdenlive:original.meta.media.0.codec.pix_fmt">yuv420p</property>
  <property name="kdenlive:original.meta.media.0.codec.sample_aspect_ratio">0</property>
  <property name="kdenlive:original.meta.media.0.codec.colorspace">709</property>
  <property name="kdenlive:original.meta.media.0.codec.name">h264</property>
  <property name="kdenlive:original.meta.media.0.codec.long_name">H.264 / AVC / MPEG-4 AVC / MPEG-4 part 10</property>
  <property name="kdenlive:original.meta.media.0.codec.bit_rate">817992</property>
  <property name="kdenlive:original.meta.attr.0.stream.handler_name.markup">VideoHandler</property>
  <property name="kdenlive:original.meta.attr.0.stream.vendor_id.markup">[0][0][0][0]</property>
  <property name="kdenlive:original.meta.attr.major_brand.markup">isom</property>
  <property name="kdenlive:original.meta.attr.minor_version.markup">512</property>
  <property name="kdenlive:original.meta.attr.compatible_brands.markup">isomiso2avc1mp41</property>
  <property name="kdenlive:original.meta.attr.encoder.markup">Lavf58.76.100</property>
  <property name="kdenlive:original.meta.attr.comment.markup">Rendered with Manim Community v0.12.0</property>
  <property name="kdenlive:original.seekable">1</property>
  <property name="kdenlive:original.width">3840</property>
  <property name="kdenlive:original.height">2160</property>
  <property name="kdenlive:original.meta.media.sample_aspect_num">1</property>
  <property name="kdenlive:original.meta.media.sample_aspect_den">1</property>
  <property name="kdenlive:original.aspect_ratio">1</property>
  <property name="kdenlive:original.audio_index">-1</property>
  <property name="kdenlive:original.video_index">0</property>
  <property name="kdenlive:original.mute_on_pause">0</property>
  <property name="kdenlive:original.mlt_service">avformat-novalidate</property>
  <property name="kdenlive:original.kdenlive:folderid">314</property>
  <property name="kdenlive:original.meta.media.frame_rate_num">60</property>
  <property name="kdenlive:original.meta.media.frame_rate_den">1</property>
  <property name="kdenlive:original.meta.media.colorspace">709</property>
  <property name="kdenlive:original.meta.media.color_trc">2</property>
  <property name="kdenlive:original.meta.media.has_b_frames">2</property>
  <property name="kdenlive:original.meta.media.width">3840</property>
  <property name="kdenlive:original.meta.media.height">2160</property>
  <property name="kdenlive:original.meta.media.color_range">mpeg</property>
  <property name="kdenlive:original.kdenlive:id">333</property>
  <property name="kdenlive:original.kdenlive:file_size">103881</property>
  <property name="kdenlive:original.kdenlive:file_hash">21fc3cd855d890deca806e3be5c411ce</property>
  <property name="kdenlive:original.backup">1</property>
  <property name="kdenlive:file_hash">21fc3cd855d890deca806e3be5c411ce</property>
  <property name="meta.media.nb_streams">1</property>
  <property name="meta.media.0.stream.type">video</property>
  <property name="meta.media.0.stream.frame_rate">60</property>
  <property name="meta.media.0.stream.sample_aspect_ratio">0</property>
  <property name="meta.media.0.codec.width">640</property>
  <property name="meta.media.0.codec.height">360</property>
  <property name="meta.media.0.codec.rotate">0</property>
  <property name="meta.media.0.codec.pix_fmt">yuv420p</property>
  <property name="meta.media.0.codec.sample_aspect_ratio">0</property>
  <property name="meta.media.0.codec.colorspace">601</property>
  <property name="meta.media.0.codec.name">h264</property>
  <property name="meta.media.0.codec.long_name">H.264 / AVC / MPEG-4 AVC / MPEG-4 part 10</property>
  <property name="meta.media.0.codec.bit_rate">3107680</property>
  <property name="meta.attr.0.stream.handler_name.markup">VideoHandler</property>
  <property name="meta.attr.0.stream.vendor_id.markup">FFMP</property>
  <property name="meta.attr.0.stream.encoder.markup">Lavc58.134.100 libx264</property>
  <property name="meta.attr.major_brand.markup">qt  </property>
  <property name="meta.attr.minor_version.markup">512</property>
  <property name="meta.attr.compatible_brands.markup">qt  </property>
  <property name="meta.attr.encoder.markup">Lavf58.76.100</property>
  <property name="meta.attr.comment.markup">Rendered with Manim Community v0.12.0</property>
  <property name="meta.media.sample_aspect_num">1</property>
  <property name="meta.media.sample_aspect_den">1</property>
  <property name="meta.media.frame_rate_num">60</property>
  <property name="meta.media.frame_rate_den">1</property>
  <property name="meta.media.colorspace">601</property>
  <property name="meta.media.color_trc">2</property>
  <property name="meta.media.has_b_frames">0</property>
  <property name="meta.media.width">640</property>
  <property name="meta.media.height">360</property>
  <property name="meta.media.color_range">mpeg</property>
 </producer>
 <producer id="producer304" in="00:00:00.000" out="00:00:02.800">
  <property name="length">169</property>
  <property name="eof">pause</property>
  <property name="resource">/home/xiaoxiae/.cache/kdenlive/proxy/8eadae57eff136d5c62824c47182ee46.mov</property>
  <property name="audio_index">-1</property>
  <property name="video_index">0</property>
  <property name="mute_on_pause">0</property>
  <property name="mlt_service">avformat-novalidate</property>
  <property name="seekable">1</property>
  <property name="aspect_ratio">1</property>
  <property name="kdenlive:clipname">27.mp4</property>
  <property name="kdenlive:folderid">314</property>
  <property name="kdenlive:id">333</property>
  <property name="kdenlive:file_size">144411</property>
  <property name="kdenlive:proxy">/home/xiaoxiae/.cache/kdenlive/proxy/8eadae57eff136d5c62824c47182ee46.mov</property>
  <property name="kdenlive:originalurl">video/ProgrammingModel/vid/27.mp4</property>
  <property name="kdenlive:original.mlt_type">producer</property>
  <property name="kdenlive:original.in">0</property>
  <property name="kdenlive:original.out">168</property>
  <property name="kdenlive:original.length">169</property>
  <property name="kdenlive:original.eof">pause</property>
  <property name="kdenlive:original.resource">video/ProgrammingModel/vid/27.mp4</property>
  <property name="kdenlive:original.meta.media.nb_streams">1</property>
  <property name="kdenlive:original.meta.media.0.stream.type">video</property>
  <property name="kdenlive:original.meta.media.0.stream.frame_rate">60</property>
  <property name="kdenlive:original.meta.media.0.stream.sample_aspect_ratio">0</property>
  <property name="kdenlive:original.meta.media.0.codec.width">3840</property>
  <property name="kdenlive:original.meta.media.0.codec.height">2160</property>
  <property name="kdenlive:original.meta.media.0.codec.rotate">0</property>
  <property name="kdenlive:original.meta.media.0.codec.pix_fmt">yuv420p</property>
  <property name="kdenlive:original.meta.media.0.codec.sample_aspect_ratio">0</property>
  <property name="kdenlive:original.meta.media.0.codec.colorspace">709</property>
  <property name="kdenlive:original.meta.media.0.codec.name">h264</property>
  <property name="kdenlive:original.meta.media.0.codec.long_name">H.264 / AVC / MPEG-4 AVC / MPEG-4 part 10</property>
  <property name="kdenlive:original.meta.media.0.codec.bit_rate">401788</property>
  <property name="kdenlive:original.meta.attr.0.stream.handler_name.markup">VideoHandler</property>
  <property name="kdenlive:original.meta.attr.0.stream.vendor_id.markup">[0][0][0][0]</property>
  <property name="kdenlive:original.meta.attr.major_brand.markup">isom</property>
  <property name="kdenlive:original.meta.attr.minor_version.markup">512</property>
  <property name="kdenlive:original.meta.attr.compatible_brands.markup">isomiso2avc1mp41</property>
  <property name="kdenlive:original.meta.attr.encoder.markup">Lavf58.76.100</property>
  <property name="kdenlive:original.meta.attr.comment.markup">Rendered with Manim Community v0.12.0</property>
  <property name="kdenlive:original.seekable">1</property>
  <property name="kdenlive:original.width">3840</property>
  <property name="kdenlive:original.height">2160</property>
  <property name="kdenlive:original.meta.media.sample_aspect_num">1</property>
  <property name="kdenlive:original.meta.media.sample_aspect_den">1</property>
  <property name="kdenlive:original.aspect_ratio">1</property>
  <property name="kdenlive:original.audio_index">-1</property>
  <property name="kdenlive:original.video_index">0</property>
  <property name="kdenlive:original.mute_on_pause">0</property>
  <property name="kdenlive:original.mlt_service">avformat-novalidate</property>
  <property name="kdenlive:original.kdenlive:folderid">314</property>
  <property name="kdenlive:original.meta.media.frame_rate_num">60</property>
  <property name="kdenlive:original.meta.media.frame_rate_den">1</property>
  <property name="kdenlive:original.meta.media.colorspace">709</property>
  <property name="kdenlive:original.meta.media.color_trc">2</property>
  <property name="kdenlive:original.meta.media.has_b_frames">2</property>
  <property name="kdenlive:original.meta.media.width">3840</property>
  <property name="kdenlive:original.meta.media.height">2160</property>
  <property name="kdenlive:original.meta.media.color_range">mpeg</property>
  <property name="kdenlive:original.kdenlive:id">334</property>
  <property name="kdenlive:original.kdenlive:file_size">144411</property>
  <property name="kdenlive:original.kdenlive:file_hash">8eadae57eff136d5c62824c47182ee46</property>
  <property name="kdenlive:original.backup">1</property>
  <property name="kdenlive:file_hash">8eadae57eff136d5c62824c47182ee46</property>
  <property name="meta.media.nb_streams">1</property>
  <property name="meta.media.0.stream.type">video</property>
  <property name="meta.media.0.stream.frame_rate">60</property>
  <property name="meta.media.0.stream.sample_aspect_ratio">0</property>
  <property name="meta.media.0.codec.width">640</property>
  <property name="meta.media.0.codec.height">360</property>
  <property name="meta.media.0.codec.rotate">0</property>
  <property name="meta.media.0.codec.pix_fmt">yuv420p</property>
  <property name="meta.media.0.codec.sample_aspect_ratio">0</property>
  <property name="meta.media.0.codec.colorspace">601</property>
  <property name="meta.media.0.codec.name">h264</property>
  <property name="meta.media.0.codec.long_name">H.264 / AVC / MPEG-4 AVC / MPEG-4 part 10</property>
  <property name="meta.media.0.codec.bit_rate">3141259</property>
  <property name="meta.attr.0.stream.handler_name.markup">VideoHandler</property>
  <property name="meta.attr.0.stream.vendor_id.markup">FFMP</property>
  <property name="meta.attr.0.stream.encoder.markup">Lavc58.134.100 libx264</property>
  <property name="meta.attr.major_brand.markup">qt  </property>
  <property name="meta.attr.minor_version.markup">512</property>
  <property name="meta.attr.compatible_brands.markup">qt  </property>
  <property name="meta.attr.encoder.markup">Lavf58.76.100</property>
  <property name="meta.attr.comment.markup">Rendered with Manim Community v0.12.0</property>
  <property name="meta.media.sample_aspect_num">1</property>
  <property name="meta.media.sample_aspect_den">1</property>
  <property name="meta.media.frame_rate_num">60</property>
  <property name="meta.media.frame_rate_den">1</property>
  <property name="meta.media.colorspace">601</property>
  <property name="meta.media.color_trc">2</property>
  <property name="meta.media.has_b_frames">0</property>
  <property name="meta.media.width">640</property>
  <property name="meta.media.height">360</property>
  <property name="meta.media.color_range">mpeg</property>
 </producer>
 <producer id="producer305" in="00:00:00.000" out="00:00:00.983">
  <property name="length">60</property>
  <property name="eof">pause</property>
  <property name="resource">/home/xiaoxiae/.cache/kdenlive/proxy/19b37e9e46136dd65b24ddd9b939e4ef.mov</property>
  <property name="audio_index">-1</property>
  <property name="video_index">0</property>
  <property name="mute_on_pause">0</property>
  <property name="mlt_service">avformat-novalidate</property>
  <property name="seekable">1</property>
  <property name="aspect_ratio">1</property>
  <property name="kdenlive:clipname">28.mp4</property>
  <property name="kdenlive:folderid">314</property>
  <property name="kdenlive:id">334</property>
  <property name="kdenlive:file_size">141347</property>
  <property name="kdenlive:proxy">/home/xiaoxiae/.cache/kdenlive/proxy/19b37e9e46136dd65b24ddd9b939e4ef.mov</property>
  <property name="kdenlive:originalurl">video/ProgrammingModel/vid/28.mp4</property>
  <property name="kdenlive:original.mlt_type">producer</property>
  <property name="kdenlive:original.in">0</property>
  <property name="kdenlive:original.out">59</property>
  <property name="kdenlive:original.length">60</property>
  <property name="kdenlive:original.eof">pause</property>
  <property name="kdenlive:original.resource">video/ProgrammingModel/vid/28.mp4</property>
  <property name="kdenlive:original.meta.media.nb_streams">1</property>
  <property name="kdenlive:original.meta.media.0.stream.type">video</property>
  <property name="kdenlive:original.meta.media.0.stream.frame_rate">60</property>
  <property name="kdenlive:original.meta.media.0.stream.sample_aspect_ratio">0</property>
  <property name="kdenlive:original.meta.media.0.codec.width">3840</property>
  <property name="kdenlive:original.meta.media.0.codec.height">2160</property>
  <property name="kdenlive:original.meta.media.0.codec.rotate">0</property>
  <property name="kdenlive:original.meta.media.0.codec.pix_fmt">yuv420p</property>
  <property name="kdenlive:original.meta.media.0.codec.sample_aspect_ratio">0</property>
  <property name="kdenlive:original.meta.media.0.codec.colorspace">709</property>
  <property name="kdenlive:original.meta.media.0.codec.name">h264</property>
  <property name="kdenlive:original.meta.media.0.codec.long_name">H.264 / AVC / MPEG-4 AVC / MPEG-4 part 10</property>
  <property name="kdenlive:original.meta.media.0.codec.bit_rate">1119320</property>
  <property name="kdenlive:original.meta.attr.0.stream.handler_name.markup">VideoHandler</property>
  <property name="kdenlive:original.meta.attr.0.stream.vendor_id.markup">[0][0][0][0]</property>
  <property name="kdenlive:original.meta.attr.major_brand.markup">isom</property>
  <property name="kdenlive:original.meta.attr.minor_version.markup">512</property>
  <property name="kdenlive:original.meta.attr.compatible_brands.markup">isomiso2avc1mp41</property>
  <property name="kdenlive:original.meta.attr.encoder.markup">Lavf58.76.100</property>
  <property name="kdenlive:original.meta.attr.comment.markup">Rendered with Manim Community v0.12.0</property>
  <property name="kdenlive:original.seekable">1</property>
  <property name="kdenlive:original.width">3840</property>
  <property name="kdenlive:original.height">2160</property>
  <property name="kdenlive:original.meta.media.sample_aspect_num">1</property>
  <property name="kdenlive:original.meta.media.sample_aspect_den">1</property>
  <property name="kdenlive:original.aspect_ratio">1</property>
  <property name="kdenlive:original.audio_index">-1</property>
  <property name="kdenlive:original.video_index">0</property>
  <property name="kdenlive:original.mute_on_pause">0</property>
  <property name="kdenlive:original.mlt_service">avformat-novalidate</property>
  <property name="kdenlive:original.kdenlive:folderid">314</property>
  <property name="kdenlive:original.meta.media.frame_rate_num">60</property>
  <property name="kdenlive:original.meta.media.frame_rate_den">1</property>
  <property name="kdenlive:original.meta.media.colorspace">709</property>
  <property name="kdenlive:original.meta.media.color_trc">2</property>
  <property name="kdenlive:original.meta.media.has_b_frames">2</property>
  <property name="kdenlive:original.meta.media.width">3840</property>
  <property name="kdenlive:original.meta.media.height">2160</property>
  <property name="kdenlive:original.meta.media.color_range">mpeg</property>
  <property name="kdenlive:original.kdenlive:id">335</property>
  <property name="kdenlive:original.kdenlive:file_size">141347</property>
  <property name="kdenlive:original.kdenlive:file_hash">19b37e9e46136dd65b24ddd9b939e4ef</property>
  <property name="kdenlive:original.backup">1</property>
  <property name="kdenlive:file_hash">19b37e9e46136dd65b24ddd9b939e4ef</property>
  <property name="meta.media.nb_streams">1</property>
  <property name="meta.media.0.stream.type">video</property>
  <property name="meta.media.0.stream.frame_rate">60</property>
  <property name="meta.media.0.stream.sample_aspect_ratio">0</property>
  <property name="meta.media.0.codec.width">640</property>
  <property name="meta.media.0.codec.height">360</property>
  <property name="meta.media.0.codec.rotate">0</property>
  <property name="meta.media.0.codec.pix_fmt">yuv420p</property>
  <property name="meta.media.0.codec.sample_aspect_ratio">0</property>
  <property name="meta.media.0.codec.colorspace">601</property>
  <property name="meta.media.0.codec.name">h264</property>
  <property name="meta.media.0.codec.long_name">H.264 / AVC / MPEG-4 AVC / MPEG-4 part 10</property>
  <property name="meta.media.0.codec.bit_rate">3254560</property>
  <property name="meta.attr.0.stream.handler_name.markup">VideoHandler</property>
  <property name="meta.attr.0.stream.vendor_id.markup">FFMP</property>
  <property name="meta.attr.0.stream.encoder.markup">Lavc58.134.100 libx264</property>
  <property name="meta.attr.major_brand.markup">qt  </property>
  <property name="meta.attr.minor_version.markup">512</property>
  <property name="meta.attr.compatible_brands.markup">qt  </property>
  <property name="meta.attr.encoder.markup">Lavf58.76.100</property>
  <property name="meta.attr.comment.markup">Rendered with Manim Community v0.12.0</property>
  <property name="meta.media.sample_aspect_num">1</property>
  <property name="meta.media.sample_aspect_den">1</property>
  <property name="meta.media.frame_rate_num">60</property>
  <property name="meta.media.frame_rate_den">1</property>
  <property name="meta.media.colorspace">601</property>
  <property name="meta.media.color_trc">2</property>
  <property name="meta.media.has_b_frames">0</property>
  <property name="meta.media.width">640</property>
  <property name="meta.media.height">360</property>
  <property name="meta.media.color_range">mpeg</property>
 </producer>
 <producer id="producer306" in="00:00:00.000" out="00:00:01.483">
  <property name="length">90</property>
  <property name="eof">pause</property>
  <property name="resource">/home/xiaoxiae/.cache/kdenlive/proxy/5a13386c1658e6fc55c2c81085bb05bd.mov</property>
  <property name="audio_index">-1</property>
  <property name="video_index">0</property>
  <property name="mute_on_pause">0</property>
  <property name="mlt_service">avformat-novalidate</property>
  <property name="seekable">1</property>
  <property name="aspect_ratio">1</property>
  <property name="kdenlive:clipname">29.mp4</property>
  <property name="kdenlive:folderid">314</property>
  <property name="kdenlive:id">335</property>
  <property name="kdenlive:file_size">103452</property>
  <property name="kdenlive:proxy">/home/xiaoxiae/.cache/kdenlive/proxy/5a13386c1658e6fc55c2c81085bb05bd.mov</property>
  <property name="kdenlive:originalurl">video/ProgrammingModel/vid/29.mp4</property>
  <property name="kdenlive:original.mlt_type">producer</property>
  <property name="kdenlive:original.in">0</property>
  <property name="kdenlive:original.out">89</property>
  <property name="kdenlive:original.length">90</property>
  <property name="kdenlive:original.eof">pause</property>
  <property name="kdenlive:original.resource">video/ProgrammingModel/vid/29.mp4</property>
  <property name="kdenlive:original.meta.media.nb_streams">1</property>
  <property name="kdenlive:original.meta.media.0.stream.type">video</property>
  <property name="kdenlive:original.meta.media.0.stream.frame_rate">60</property>
  <property name="kdenlive:original.meta.media.0.stream.sample_aspect_ratio">0</property>
  <property name="kdenlive:original.meta.media.0.codec.width">3840</property>
  <property name="kdenlive:original.meta.media.0.codec.height">2160</property>
  <property name="kdenlive:original.meta.media.0.codec.rotate">0</property>
  <property name="kdenlive:original.meta.media.0.codec.pix_fmt">yuv420p</property>
  <property name="kdenlive:original.meta.media.0.codec.sample_aspect_ratio">0</property>
  <property name="kdenlive:original.meta.media.0.codec.colorspace">709</property>
  <property name="kdenlive:original.meta.media.0.codec.name">h264</property>
  <property name="kdenlive:original.meta.media.0.codec.long_name">H.264 / AVC / MPEG-4 AVC / MPEG-4 part 10</property>
  <property name="kdenlive:original.meta.media.0.codec.bit_rate">541077</property>
  <property name="kdenlive:original.meta.attr.0.stream.handler_name.markup">VideoHandler</property>
  <property name="kdenlive:original.meta.attr.0.stream.vendor_id.markup">[0][0][0][0]</property>
  <property name="kdenlive:original.meta.attr.major_brand.markup">isom</property>
  <property name="kdenlive:original.meta.attr.minor_version.markup">512</property>
  <property name="kdenlive:original.meta.attr.compatible_brands.markup">isomiso2avc1mp41</property>
  <property name="kdenlive:original.meta.attr.encoder.markup">Lavf58.76.100</property>
  <property name="kdenlive:original.meta.attr.comment.markup">Rendered with Manim Community v0.12.0</property>
  <property name="kdenlive:original.seekable">1</property>
  <property name="kdenlive:original.width">3840</property>
  <property name="kdenlive:original.height">2160</property>
  <property name="kdenlive:original.meta.media.sample_aspect_num">1</property>
  <property name="kdenlive:original.meta.media.sample_aspect_den">1</property>
  <property name="kdenlive:original.aspect_ratio">1</property>
  <property name="kdenlive:original.audio_index">-1</property>
  <property name="kdenlive:original.video_index">0</property>
  <property name="kdenlive:original.mute_on_pause">0</property>
  <property name="kdenlive:original.mlt_service">avformat-novalidate</property>
  <property name="kdenlive:original.kdenlive:folderid">314</property>
  <property name="kdenlive:original.meta.media.frame_rate_num">60</property>
  <property name="kdenlive:original.meta.media.frame_rate_den">1</property>
  <property name="kdenlive:original.meta.media.colorspace">709</property>
  <property name="kdenlive:original.meta.media.color_trc">2</property>
  <property name="kdenlive:original.meta.media.has_b_frames">2</property>
  <property name="kdenlive:original.meta.media.width">3840</property>
  <property name="kdenlive:original.meta.media.height">2160</property>
  <property name="kdenlive:original.meta.media.color_range">mpeg</property>
  <property name="kdenlive:original.kdenlive:id">336</property>
  <property name="kdenlive:original.kdenlive:file_size">103452</property>
  <property name="kdenlive:original.kdenlive:file_hash">5a13386c1658e6fc55c2c81085bb05bd</property>
  <property name="kdenlive:original.backup">1</property>
  <property name="kdenlive:file_hash">5a13386c1658e6fc55c2c81085bb05bd</property>
  <property name="meta.media.nb_streams">1</property>
  <property name="meta.media.0.stream.type">video</property>
  <property name="meta.media.0.stream.frame_rate">60</property>
  <property name="meta.media.0.stream.sample_aspect_ratio">0</property>
  <property name="meta.media.0.codec.width">640</property>
  <property name="meta.media.0.codec.height">360</property>
  <property name="meta.media.0.codec.rotate">0</property>
  <property name="meta.media.0.codec.pix_fmt">yuv420p</property>
  <property name="meta.media.0.codec.sample_aspect_ratio">0</property>
  <property name="meta.media.0.codec.colorspace">601</property>
  <property name="meta.media.0.codec.name">h264</property>
  <property name="meta.media.0.codec.long_name">H.264 / AVC / MPEG-4 AVC / MPEG-4 part 10</property>
  <property name="meta.media.0.codec.bit_rate">3222864</property>
  <property name="meta.attr.0.stream.handler_name.markup">VideoHandler</property>
  <property name="meta.attr.0.stream.vendor_id.markup">FFMP</property>
  <property name="meta.attr.0.stream.encoder.markup">Lavc58.134.100 libx264</property>
  <property name="meta.attr.major_brand.markup">qt  </property>
  <property name="meta.attr.minor_version.markup">512</property>
  <property name="meta.attr.compatible_brands.markup">qt  </property>
  <property name="meta.attr.encoder.markup">Lavf58.76.100</property>
  <property name="meta.attr.comment.markup">Rendered with Manim Community v0.12.0</property>
  <property name="meta.media.sample_aspect_num">1</property>
  <property name="meta.media.sample_aspect_den">1</property>
  <property name="meta.media.frame_rate_num">60</property>
  <property name="meta.media.frame_rate_den">1</property>
  <property name="meta.media.colorspace">601</property>
  <property name="meta.media.color_trc">2</property>
  <property name="meta.media.has_b_frames">0</property>
  <property name="meta.media.width">640</property>
  <property name="meta.media.height">360</property>
  <property name="meta.media.color_range">mpeg</property>
 </producer>
 <producer id="producer307" in="00:00:00.000" out="00:00:00.983">
  <property name="length">60</property>
  <property name="eof">pause</property>
  <property name="resource">/home/xiaoxiae/.cache/kdenlive/proxy/79a397eb536675c9795ff802b68784de.mov</property>
  <property name="audio_index">-1</property>
  <property name="video_index">0</property>
  <property name="mute_on_pause">0</property>
  <property name="mlt_service">avformat-novalidate</property>
  <property name="seekable">1</property>
  <property name="aspect_ratio">1</property>
  <property name="kdenlive:clipname">3.mp4</property>
  <property name="kdenlive:file_size">45063</property>
  <property name="kdenlive:folderid">314</property>
  <property name="kdenlive:id">336</property>
  <property name="kdenlive:proxy">/home/xiaoxiae/.cache/kdenlive/proxy/79a397eb536675c9795ff802b68784de.mov</property>
  <property name="kdenlive:originalurl">video/ProgrammingModel/vid/3.mp4</property>
  <property name="kdenlive:original.mlt_type">producer</property>
  <property name="kdenlive:original.in">0</property>
  <property name="kdenlive:original.out">59</property>
  <property name="kdenlive:original.length">60</property>
  <property name="kdenlive:original.eof">pause</property>
  <property name="kdenlive:original.resource">video/ProgrammingModel/vid/3.mp4</property>
  <property name="kdenlive:original.meta.media.nb_streams">1</property>
  <property name="kdenlive:original.meta.media.0.stream.type">video</property>
  <property name="kdenlive:original.meta.media.0.stream.frame_rate">60</property>
  <property name="kdenlive:original.meta.media.0.stream.sample_aspect_ratio">0</property>
  <property name="kdenlive:original.meta.media.0.codec.width">3840</property>
  <property name="kdenlive:original.meta.media.0.codec.height">2160</property>
  <property name="kdenlive:original.meta.media.0.codec.rotate">0</property>
  <property name="kdenlive:original.meta.media.0.codec.pix_fmt">yuv420p</property>
  <property name="kdenlive:original.meta.media.0.codec.sample_aspect_ratio">0</property>
  <property name="kdenlive:original.meta.media.0.codec.colorspace">709</property>
  <property name="kdenlive:original.meta.media.0.codec.name">h264</property>
  <property name="kdenlive:original.meta.media.0.codec.long_name">H.264 / AVC / MPEG-4 AVC / MPEG-4 part 10</property>
  <property name="kdenlive:original.meta.media.0.codec.bit_rate">347448</property>
  <property name="kdenlive:original.meta.attr.0.stream.handler_name.markup">VideoHandler</property>
  <property name="kdenlive:original.meta.attr.0.stream.vendor_id.markup">[0][0][0][0]</property>
  <property name="kdenlive:original.meta.attr.major_brand.markup">isom</property>
  <property name="kdenlive:original.meta.attr.minor_version.markup">512</property>
  <property name="kdenlive:original.meta.attr.compatible_brands.markup">isomiso2avc1mp41</property>
  <property name="kdenlive:original.meta.attr.encoder.markup">Lavf58.76.100</property>
  <property name="kdenlive:original.meta.attr.comment.markup">Rendered with Manim Community v0.12.0</property>
  <property name="kdenlive:original.seekable">1</property>
  <property name="kdenlive:original.width">3840</property>
  <property name="kdenlive:original.height">2160</property>
  <property name="kdenlive:original.meta.media.sample_aspect_num">1</property>
  <property name="kdenlive:original.meta.media.sample_aspect_den">1</property>
  <property name="kdenlive:original.aspect_ratio">1</property>
  <property name="kdenlive:original.audio_index">-1</property>
  <property name="kdenlive:original.video_index">0</property>
  <property name="kdenlive:original.mute_on_pause">0</property>
  <property name="kdenlive:original.mlt_service">avformat-novalidate</property>
  <property name="kdenlive:original.kdenlive:file_size">45063</property>
  <property name="kdenlive:original.kdenlive:folderid">314</property>
  <property name="kdenlive:original.meta.media.frame_rate_num">60</property>
  <property name="kdenlive:original.meta.media.frame_rate_den">1</property>
  <property name="kdenlive:original.meta.media.colorspace">709</property>
  <property name="kdenlive:original.meta.media.color_trc">2</property>
  <property name="kdenlive:original.meta.media.has_b_frames">2</property>
  <property name="kdenlive:original.meta.media.width">3840</property>
  <property name="kdenlive:original.meta.media.height">2160</property>
  <property name="kdenlive:original.meta.media.color_range">mpeg</property>
  <property name="kdenlive:original.kdenlive:id">337</property>
  <property name="kdenlive:original.kdenlive:file_hash">79a397eb536675c9795ff802b68784de</property>
  <property name="kdenlive:original.backup">1</property>
  <property name="kdenlive:file_hash">79a397eb536675c9795ff802b68784de</property>
  <property name="meta.media.nb_streams">1</property>
  <property name="meta.media.0.stream.type">video</property>
  <property name="meta.media.0.stream.frame_rate">60</property>
  <property name="meta.media.0.stream.sample_aspect_ratio">0</property>
  <property name="meta.media.0.codec.width">640</property>
  <property name="meta.media.0.codec.height">360</property>
  <property name="meta.media.0.codec.rotate">0</property>
  <property name="meta.media.0.codec.pix_fmt">yuv420p</property>
  <property name="meta.media.0.codec.sample_aspect_ratio">0</property>
  <property name="meta.media.0.codec.colorspace">601</property>
  <property name="meta.media.0.codec.name">h264</property>
  <property name="meta.media.0.codec.long_name">H.264 / AVC / MPEG-4 AVC / MPEG-4 part 10</property>
  <property name="meta.media.0.codec.bit_rate">935000</property>
  <property name="meta.attr.0.stream.handler_name.markup">VideoHandler</property>
  <property name="meta.attr.0.stream.vendor_id.markup">FFMP</property>
  <property name="meta.attr.0.stream.encoder.markup">Lavc58.134.100 libx264</property>
  <property name="meta.attr.major_brand.markup">qt  </property>
  <property name="meta.attr.minor_version.markup">512</property>
  <property name="meta.attr.compatible_brands.markup">qt  </property>
  <property name="meta.attr.encoder.markup">Lavf58.76.100</property>
  <property name="meta.attr.comment.markup">Rendered with Manim Community v0.12.0</property>
  <property name="meta.media.sample_aspect_num">1</property>
  <property name="meta.media.sample_aspect_den">1</property>
  <property name="meta.media.frame_rate_num">60</property>
  <property name="meta.media.frame_rate_den">1</property>
  <property name="meta.media.colorspace">601</property>
  <property name="meta.media.color_trc">2</property>
  <property name="meta.media.has_b_frames">0</property>
  <property name="meta.media.width">640</property>
  <property name="meta.media.height">360</property>
  <property name="meta.media.color_range">mpeg</property>
 </producer>
 <producer id="producer309" in="00:00:00.000" out="00:00:00.933">
  <property name="length">57</property>
  <property name="eof">pause</property>
  <property name="resource">/home/xiaoxiae/.cache/kdenlive/proxy/a3b9936fbe61c159113164ef3730ed24.mov</property>
  <property name="audio_index">-1</property>
  <property name="video_index">0</property>
  <property name="mute_on_pause">0</property>
  <property name="mlt_service">avformat-novalidate</property>
  <property name="seekable">1</property>
  <property name="aspect_ratio">1</property>
  <property name="kdenlive:clipname">30.mp4</property>
  <property name="kdenlive:file_size">135550</property>
  <property name="kdenlive:folderid">314</property>
  <property name="kdenlive:id">337</property>
  <property name="kdenlive:proxy">/home/xiaoxiae/.cache/kdenlive/proxy/a3b9936fbe61c159113164ef3730ed24.mov</property>
  <property name="kdenlive:originalurl">video/ProgrammingModel/vid/30.mp4</property>
  <property name="kdenlive:original.mlt_type">producer</property>
  <property name="kdenlive:original.in">0</property>
  <property name="kdenlive:original.out">56</property>
  <property name="kdenlive:original.length">57</property>
  <property name="kdenlive:original.eof">pause</property>
  <property name="kdenlive:original.resource">video/ProgrammingModel/vid/30.mp4</property>
  <property name="kdenlive:original.meta.media.nb_streams">1</property>
  <property name="kdenlive:original.meta.media.0.stream.type">video</property>
  <property name="kdenlive:original.meta.media.0.stream.frame_rate">60</property>
  <property name="kdenlive:original.meta.media.0.stream.sample_aspect_ratio">0</property>
  <property name="kdenlive:original.meta.media.0.codec.width">3840</property>
  <property name="kdenlive:original.meta.media.0.codec.height">2160</property>
  <property name="kdenlive:original.meta.media.0.codec.rotate">0</property>
  <property name="kdenlive:original.meta.media.0.codec.pix_fmt">yuv420p</property>
  <property name="kdenlive:original.meta.media.0.codec.sample_aspect_ratio">0</property>
  <property name="kdenlive:original.meta.media.0.codec.colorspace">709</property>
  <property name="kdenlive:original.meta.media.0.codec.name">h264</property>
  <property name="kdenlive:original.meta.media.0.codec.long_name">H.264 / AVC / MPEG-4 AVC / MPEG-4 part 10</property>
  <property name="kdenlive:original.meta.media.0.codec.bit_rate">1128976</property>
  <property name="kdenlive:original.meta.attr.0.stream.handler_name.markup">VideoHandler</property>
  <property name="kdenlive:original.meta.attr.0.stream.vendor_id.markup">[0][0][0][0]</property>
  <property name="kdenlive:original.meta.attr.major_brand.markup">isom</property>
  <property name="kdenlive:original.meta.attr.minor_version.markup">512</property>
  <property name="kdenlive:original.meta.attr.compatible_brands.markup">isomiso2avc1mp41</property>
  <property name="kdenlive:original.meta.attr.encoder.markup">Lavf58.76.100</property>
  <property name="kdenlive:original.meta.attr.comment.markup">Rendered with Manim Community v0.12.0</property>
  <property name="kdenlive:original.seekable">1</property>
  <property name="kdenlive:original.width">3840</property>
  <property name="kdenlive:original.height">2160</property>
  <property name="kdenlive:original.meta.media.sample_aspect_num">1</property>
  <property name="kdenlive:original.meta.media.sample_aspect_den">1</property>
  <property name="kdenlive:original.aspect_ratio">1</property>
  <property name="kdenlive:original.audio_index">-1</property>
  <property name="kdenlive:original.video_index">0</property>
  <property name="kdenlive:original.mute_on_pause">0</property>
  <property name="kdenlive:original.mlt_service">avformat-novalidate</property>
  <property name="kdenlive:original.kdenlive:file_size">135550</property>
  <property name="kdenlive:original.kdenlive:folderid">314</property>
  <property name="kdenlive:original.meta.media.frame_rate_num">60</property>
  <property name="kdenlive:original.meta.media.frame_rate_den">1</property>
  <property name="kdenlive:original.meta.media.colorspace">709</property>
  <property name="kdenlive:original.meta.media.color_trc">2</property>
  <property name="kdenlive:original.meta.media.has_b_frames">2</property>
  <property name="kdenlive:original.meta.media.width">3840</property>
  <property name="kdenlive:original.meta.media.height">2160</property>
  <property name="kdenlive:original.meta.media.color_range">mpeg</property>
  <property name="kdenlive:original.kdenlive:id">338</property>
  <property name="kdenlive:original.kdenlive:file_hash">a3b9936fbe61c159113164ef3730ed24</property>
  <property name="kdenlive:original.backup">1</property>
  <property name="kdenlive:file_hash">a3b9936fbe61c159113164ef3730ed24</property>
  <property name="meta.media.nb_streams">1</property>
  <property name="meta.media.0.stream.type">video</property>
  <property name="meta.media.0.stream.frame_rate">60</property>
  <property name="meta.media.0.stream.sample_aspect_ratio">0</property>
  <property name="meta.media.0.codec.width">640</property>
  <property name="meta.media.0.codec.height">360</property>
  <property name="meta.media.0.codec.rotate">0</property>
  <property name="meta.media.0.codec.pix_fmt">yuv420p</property>
  <property name="meta.media.0.codec.sample_aspect_ratio">0</property>
  <property name="meta.media.0.codec.colorspace">601</property>
  <property name="meta.media.0.codec.name">h264</property>
  <property name="meta.media.0.codec.long_name">H.264 / AVC / MPEG-4 AVC / MPEG-4 part 10</property>
  <property name="meta.media.0.codec.bit_rate">3345002</property>
  <property name="meta.attr.0.stream.handler_name.markup">VideoHandler</property>
  <property name="meta.attr.0.stream.vendor_id.markup">FFMP</property>
  <property name="meta.attr.0.stream.encoder.markup">Lavc58.134.100 libx264</property>
  <property name="meta.attr.major_brand.markup">qt  </property>
  <property name="meta.attr.minor_version.markup">512</property>
  <property name="meta.attr.compatible_brands.markup">qt  </property>
  <property name="meta.attr.encoder.markup">Lavf58.76.100</property>
  <property name="meta.attr.comment.markup">Rendered with Manim Community v0.12.0</property>
  <property name="meta.media.sample_aspect_num">1</property>
  <property name="meta.media.sample_aspect_den">1</property>
  <property name="meta.media.frame_rate_num">60</property>
  <property name="meta.media.frame_rate_den">1</property>
  <property name="meta.media.colorspace">601</property>
  <property name="meta.media.color_trc">2</property>
  <property name="meta.media.has_b_frames">0</property>
  <property name="meta.media.width">640</property>
  <property name="meta.media.height">360</property>
  <property name="meta.media.color_range">mpeg</property>
 </producer>
 <producer id="producer308" in="00:00:00.000" out="00:00:01.483">
  <property name="length">90</property>
  <property name="eof">pause</property>
  <property name="resource">/home/xiaoxiae/.cache/kdenlive/proxy/be50cc0688998b43f16e276a2b093882.mov</property>
  <property name="audio_index">-1</property>
  <property name="video_index">0</property>
  <property name="mute_on_pause">0</property>
  <property name="mlt_service">avformat-novalidate</property>
  <property name="seekable">1</property>
  <property name="aspect_ratio">1</property>
  <property name="kdenlive:clipname">31.mp4</property>
  <property name="kdenlive:folderid">314</property>
  <property name="kdenlive:id">338</property>
  <property name="kdenlive:file_size">107559</property>
  <property name="kdenlive:proxy">/home/xiaoxiae/.cache/kdenlive/proxy/be50cc0688998b43f16e276a2b093882.mov</property>
  <property name="kdenlive:originalurl">video/ProgrammingModel/vid/31.mp4</property>
  <property name="kdenlive:original.mlt_type">producer</property>
  <property name="kdenlive:original.in">0</property>
  <property name="kdenlive:original.out">89</property>
  <property name="kdenlive:original.length">90</property>
  <property name="kdenlive:original.eof">pause</property>
  <property name="kdenlive:original.resource">video/ProgrammingModel/vid/31.mp4</property>
  <property name="kdenlive:original.meta.media.nb_streams">1</property>
  <property name="kdenlive:original.meta.media.0.stream.type">video</property>
  <property name="kdenlive:original.meta.media.0.stream.frame_rate">60</property>
  <property name="kdenlive:original.meta.media.0.stream.sample_aspect_ratio">0</property>
  <property name="kdenlive:original.meta.media.0.codec.width">3840</property>
  <property name="kdenlive:original.meta.media.0.codec.height">2160</property>
  <property name="kdenlive:original.meta.media.0.codec.rotate">0</property>
  <property name="kdenlive:original.meta.media.0.codec.pix_fmt">yuv420p</property>
  <property name="kdenlive:original.meta.media.0.codec.sample_aspect_ratio">0</property>
  <property name="kdenlive:original.meta.media.0.codec.colorspace">709</property>
  <property name="kdenlive:original.meta.media.0.codec.name">h264</property>
  <property name="kdenlive:original.meta.media.0.codec.long_name">H.264 / AVC / MPEG-4 AVC / MPEG-4 part 10</property>
  <property name="kdenlive:original.meta.media.0.codec.bit_rate">562981</property>
  <property name="kdenlive:original.meta.attr.0.stream.handler_name.markup">VideoHandler</property>
  <property name="kdenlive:original.meta.attr.0.stream.vendor_id.markup">[0][0][0][0]</property>
  <property name="kdenlive:original.meta.attr.major_brand.markup">isom</property>
  <property name="kdenlive:original.meta.attr.minor_version.markup">512</property>
  <property name="kdenlive:original.meta.attr.compatible_brands.markup">isomiso2avc1mp41</property>
  <property name="kdenlive:original.meta.attr.encoder.markup">Lavf58.76.100</property>
  <property name="kdenlive:original.meta.attr.comment.markup">Rendered with Manim Community v0.12.0</property>
  <property name="kdenlive:original.seekable">1</property>
  <property name="kdenlive:original.width">3840</property>
  <property name="kdenlive:original.height">2160</property>
  <property name="kdenlive:original.meta.media.sample_aspect_num">1</property>
  <property name="kdenlive:original.meta.media.sample_aspect_den">1</property>
  <property name="kdenlive:original.aspect_ratio">1</property>
  <property name="kdenlive:original.audio_index">-1</property>
  <property name="kdenlive:original.video_index">0</property>
  <property name="kdenlive:original.mute_on_pause">0</property>
  <property name="kdenlive:original.mlt_service">avformat-novalidate</property>
  <property name="kdenlive:original.kdenlive:folderid">314</property>
  <property name="kdenlive:original.meta.media.frame_rate_num">60</property>
  <property name="kdenlive:original.meta.media.frame_rate_den">1</property>
  <property name="kdenlive:original.meta.media.colorspace">709</property>
  <property name="kdenlive:original.meta.media.color_trc">2</property>
  <property name="kdenlive:original.meta.media.has_b_frames">2</property>
  <property name="kdenlive:original.meta.media.width">3840</property>
  <property name="kdenlive:original.meta.media.height">2160</property>
  <property name="kdenlive:original.meta.media.color_range">mpeg</property>
  <property name="kdenlive:original.kdenlive:id">339</property>
  <property name="kdenlive:original.kdenlive:file_size">107559</property>
  <property name="kdenlive:original.kdenlive:file_hash">be50cc0688998b43f16e276a2b093882</property>
  <property name="kdenlive:original.backup">1</property>
  <property name="kdenlive:file_hash">be50cc0688998b43f16e276a2b093882</property>
  <property name="meta.media.nb_streams">1</property>
  <property name="meta.media.0.stream.type">video</property>
  <property name="meta.media.0.stream.frame_rate">60</property>
  <property name="meta.media.0.stream.sample_aspect_ratio">0</property>
  <property name="meta.media.0.codec.width">640</property>
  <property name="meta.media.0.codec.height">360</property>
  <property name="meta.media.0.codec.rotate">0</property>
  <property name="meta.media.0.codec.pix_fmt">yuv420p</property>
  <property name="meta.media.0.codec.sample_aspect_ratio">0</property>
  <property name="meta.media.0.codec.colorspace">601</property>
  <property name="meta.media.0.codec.name">h264</property>
  <property name="meta.media.0.codec.long_name">H.264 / AVC / MPEG-4 AVC / MPEG-4 part 10</property>
  <property name="meta.media.0.codec.bit_rate">3341904</property>
  <property name="meta.attr.0.stream.handler_name.markup">VideoHandler</property>
  <property name="meta.attr.0.stream.vendor_id.markup">FFMP</property>
  <property name="meta.attr.0.stream.encoder.markup">Lavc58.134.100 libx264</property>
  <property name="meta.attr.major_brand.markup">qt  </property>
  <property name="meta.attr.minor_version.markup">512</property>
  <property name="meta.attr.compatible_brands.markup">qt  </property>
  <property name="meta.attr.encoder.markup">Lavf58.76.100</property>
  <property name="meta.attr.comment.markup">Rendered with Manim Community v0.12.0</property>
  <property name="meta.media.sample_aspect_num">1</property>
  <property name="meta.media.sample_aspect_den">1</property>
  <property name="meta.media.frame_rate_num">60</property>
  <property name="meta.media.frame_rate_den">1</property>
  <property name="meta.media.colorspace">601</property>
  <property name="meta.media.color_trc">2</property>
  <property name="meta.media.has_b_frames">0</property>
  <property name="meta.media.width">640</property>
  <property name="meta.media.height">360</property>
  <property name="meta.media.color_range">mpeg</property>
 </producer>
 <producer id="producer310" in="00:00:00.000" out="00:00:00.867">
  <property name="length">53</property>
  <property name="eof">pause</property>
  <property name="resource">/home/xiaoxiae/.cache/kdenlive/proxy/010510a8a5efa9397d3184476bed4d23.mov</property>
  <property name="audio_index">-1</property>
  <property name="video_index">0</property>
  <property name="mute_on_pause">0</property>
  <property name="mlt_service">avformat-novalidate</property>
  <property name="seekable">1</property>
  <property name="aspect_ratio">1</property>
  <property name="kdenlive:clipname">32.mp4</property>
  <property name="kdenlive:folderid">314</property>
  <property name="kdenlive:id">339</property>
  <property name="kdenlive:file_size">138470</property>
  <property name="kdenlive:proxy">/home/xiaoxiae/.cache/kdenlive/proxy/010510a8a5efa9397d3184476bed4d23.mov</property>
  <property name="kdenlive:originalurl">video/ProgrammingModel/vid/32.mp4</property>
  <property name="kdenlive:original.mlt_type">producer</property>
  <property name="kdenlive:original.in">0</property>
  <property name="kdenlive:original.out">52</property>
  <property name="kdenlive:original.length">53</property>
  <property name="kdenlive:original.eof">pause</property>
  <property name="kdenlive:original.resource">video/ProgrammingModel/vid/32.mp4</property>
  <property name="kdenlive:original.meta.media.nb_streams">1</property>
  <property name="kdenlive:original.meta.media.0.stream.type">video</property>
  <property name="kdenlive:original.meta.media.0.stream.frame_rate">60</property>
  <property name="kdenlive:original.meta.media.0.stream.sample_aspect_ratio">0</property>
  <property name="kdenlive:original.meta.media.0.codec.width">3840</property>
  <property name="kdenlive:original.meta.media.0.codec.height">2160</property>
  <property name="kdenlive:original.meta.media.0.codec.rotate">0</property>
  <property name="kdenlive:original.meta.media.0.codec.pix_fmt">yuv420p</property>
  <property name="kdenlive:original.meta.media.0.codec.sample_aspect_ratio">0</property>
  <property name="kdenlive:original.meta.media.0.codec.colorspace">709</property>
  <property name="kdenlive:original.meta.media.0.codec.name">h264</property>
  <property name="kdenlive:original.meta.media.0.codec.long_name">H.264 / AVC / MPEG-4 AVC / MPEG-4 part 10</property>
  <property name="kdenlive:original.meta.media.0.codec.bit_rate">1242149</property>
  <property name="kdenlive:original.meta.attr.0.stream.handler_name.markup">VideoHandler</property>
  <property name="kdenlive:original.meta.attr.0.stream.vendor_id.markup">[0][0][0][0]</property>
  <property name="kdenlive:original.meta.attr.major_brand.markup">isom</property>
  <property name="kdenlive:original.meta.attr.minor_version.markup">512</property>
  <property name="kdenlive:original.meta.attr.compatible_brands.markup">isomiso2avc1mp41</property>
  <property name="kdenlive:original.meta.attr.encoder.markup">Lavf58.76.100</property>
  <property name="kdenlive:original.meta.attr.comment.markup">Rendered with Manim Community v0.12.0</property>
  <property name="kdenlive:original.seekable">1</property>
  <property name="kdenlive:original.width">3840</property>
  <property name="kdenlive:original.height">2160</property>
  <property name="kdenlive:original.meta.media.sample_aspect_num">1</property>
  <property name="kdenlive:original.meta.media.sample_aspect_den">1</property>
  <property name="kdenlive:original.aspect_ratio">1</property>
  <property name="kdenlive:original.audio_index">-1</property>
  <property name="kdenlive:original.video_index">0</property>
  <property name="kdenlive:original.mute_on_pause">0</property>
  <property name="kdenlive:original.mlt_service">avformat-novalidate</property>
  <property name="kdenlive:original.kdenlive:folderid">314</property>
  <property name="kdenlive:original.meta.media.frame_rate_num">60</property>
  <property name="kdenlive:original.meta.media.frame_rate_den">1</property>
  <property name="kdenlive:original.meta.media.colorspace">709</property>
  <property name="kdenlive:original.meta.media.color_trc">2</property>
  <property name="kdenlive:original.meta.media.has_b_frames">2</property>
  <property name="kdenlive:original.meta.media.width">3840</property>
  <property name="kdenlive:original.meta.media.height">2160</property>
  <property name="kdenlive:original.meta.media.color_range">mpeg</property>
  <property name="kdenlive:original.kdenlive:id">340</property>
  <property name="kdenlive:original.kdenlive:file_size">138470</property>
  <property name="kdenlive:original.kdenlive:file_hash">010510a8a5efa9397d3184476bed4d23</property>
  <property name="kdenlive:original.backup">1</property>
  <property name="kdenlive:file_hash">010510a8a5efa9397d3184476bed4d23</property>
  <property name="meta.media.nb_streams">1</property>
  <property name="meta.media.0.stream.type">video</property>
  <property name="meta.media.0.stream.frame_rate">60</property>
  <property name="meta.media.0.stream.sample_aspect_ratio">0</property>
  <property name="meta.media.0.codec.width">640</property>
  <property name="meta.media.0.codec.height">360</property>
  <property name="meta.media.0.codec.rotate">0</property>
  <property name="meta.media.0.codec.pix_fmt">yuv420p</property>
  <property name="meta.media.0.codec.sample_aspect_ratio">0</property>
  <property name="meta.media.0.codec.colorspace">601</property>
  <property name="meta.media.0.codec.name">h264</property>
  <property name="meta.media.0.codec.long_name">H.264 / AVC / MPEG-4 AVC / MPEG-4 part 10</property>
  <property name="meta.media.0.codec.bit_rate">3457947</property>
  <property name="meta.attr.0.stream.handler_name.markup">VideoHandler</property>
  <property name="meta.attr.0.stream.vendor_id.markup">FFMP</property>
  <property name="meta.attr.0.stream.encoder.markup">Lavc58.134.100 libx264</property>
  <property name="meta.attr.major_brand.markup">qt  </property>
  <property name="meta.attr.minor_version.markup">512</property>
  <property name="meta.attr.compatible_brands.markup">qt  </property>
  <property name="meta.attr.encoder.markup">Lavf58.76.100</property>
  <property name="meta.attr.comment.markup">Rendered with Manim Community v0.12.0</property>
  <property name="meta.media.sample_aspect_num">1</property>
  <property name="meta.media.sample_aspect_den">1</property>
  <property name="meta.media.frame_rate_num">60</property>
  <property name="meta.media.frame_rate_den">1</property>
  <property name="meta.media.colorspace">601</property>
  <property name="meta.media.color_trc">2</property>
  <property name="meta.media.has_b_frames">0</property>
  <property name="meta.media.width">640</property>
  <property name="meta.media.height">360</property>
  <property name="meta.media.color_range">mpeg</property>
 </producer>
 <producer id="producer311" in="00:00:00.000" out="00:00:01.483">
  <property name="length">90</property>
  <property name="eof">pause</property>
  <property name="resource">/home/xiaoxiae/.cache/kdenlive/proxy/14d5cdd64931b008fbe1794ae0b0da36.mov</property>
  <property name="audio_index">-1</property>
  <property name="video_index">0</property>
  <property name="mute_on_pause">0</property>
  <property name="mlt_service">avformat-novalidate</property>
  <property name="seekable">1</property>
  <property name="aspect_ratio">1</property>
  <property name="kdenlive:clipname">33.mp4</property>
  <property name="kdenlive:folderid">314</property>
  <property name="kdenlive:id">340</property>
  <property name="kdenlive:file_size">116284</property>
  <property name="kdenlive:proxy">/home/xiaoxiae/.cache/kdenlive/proxy/14d5cdd64931b008fbe1794ae0b0da36.mov</property>
  <property name="kdenlive:originalurl">video/ProgrammingModel/vid/33.mp4</property>
  <property name="kdenlive:original.mlt_type">producer</property>
  <property name="kdenlive:original.in">0</property>
  <property name="kdenlive:original.out">89</property>
  <property name="kdenlive:original.length">90</property>
  <property name="kdenlive:original.eof">pause</property>
  <property name="kdenlive:original.resource">video/ProgrammingModel/vid/33.mp4</property>
  <property name="kdenlive:original.meta.media.nb_streams">1</property>
  <property name="kdenlive:original.meta.media.0.stream.type">video</property>
  <property name="kdenlive:original.meta.media.0.stream.frame_rate">60</property>
  <property name="kdenlive:original.meta.media.0.stream.sample_aspect_ratio">0</property>
  <property name="kdenlive:original.meta.media.0.codec.width">3840</property>
  <property name="kdenlive:original.meta.media.0.codec.height">2160</property>
  <property name="kdenlive:original.meta.media.0.codec.rotate">0</property>
  <property name="kdenlive:original.meta.media.0.codec.pix_fmt">yuv420p</property>
  <property name="kdenlive:original.meta.media.0.codec.sample_aspect_ratio">0</property>
  <property name="kdenlive:original.meta.media.0.codec.colorspace">709</property>
  <property name="kdenlive:original.meta.media.0.codec.name">h264</property>
  <property name="kdenlive:original.meta.media.0.codec.long_name">H.264 / AVC / MPEG-4 AVC / MPEG-4 part 10</property>
  <property name="kdenlive:original.meta.media.0.codec.bit_rate">609514</property>
  <property name="kdenlive:original.meta.attr.0.stream.handler_name.markup">VideoHandler</property>
  <property name="kdenlive:original.meta.attr.0.stream.vendor_id.markup">[0][0][0][0]</property>
  <property name="kdenlive:original.meta.attr.major_brand.markup">isom</property>
  <property name="kdenlive:original.meta.attr.minor_version.markup">512</property>
  <property name="kdenlive:original.meta.attr.compatible_brands.markup">isomiso2avc1mp41</property>
  <property name="kdenlive:original.meta.attr.encoder.markup">Lavf58.76.100</property>
  <property name="kdenlive:original.meta.attr.comment.markup">Rendered with Manim Community v0.12.0</property>
  <property name="kdenlive:original.seekable">1</property>
  <property name="kdenlive:original.width">3840</property>
  <property name="kdenlive:original.height">2160</property>
  <property name="kdenlive:original.meta.media.sample_aspect_num">1</property>
  <property name="kdenlive:original.meta.media.sample_aspect_den">1</property>
  <property name="kdenlive:original.aspect_ratio">1</property>
  <property name="kdenlive:original.audio_index">-1</property>
  <property name="kdenlive:original.video_index">0</property>
  <property name="kdenlive:original.mute_on_pause">0</property>
  <property name="kdenlive:original.mlt_service">avformat-novalidate</property>
  <property name="kdenlive:original.kdenlive:folderid">314</property>
  <property name="kdenlive:original.meta.media.frame_rate_num">60</property>
  <property name="kdenlive:original.meta.media.frame_rate_den">1</property>
  <property name="kdenlive:original.meta.media.colorspace">709</property>
  <property name="kdenlive:original.meta.media.color_trc">2</property>
  <property name="kdenlive:original.meta.media.has_b_frames">2</property>
  <property name="kdenlive:original.meta.media.width">3840</property>
  <property name="kdenlive:original.meta.media.height">2160</property>
  <property name="kdenlive:original.meta.media.color_range">mpeg</property>
  <property name="kdenlive:original.kdenlive:id">341</property>
  <property name="kdenlive:original.kdenlive:file_size">116284</property>
  <property name="kdenlive:original.kdenlive:file_hash">14d5cdd64931b008fbe1794ae0b0da36</property>
  <property name="kdenlive:original.backup">1</property>
  <property name="kdenlive:file_hash">14d5cdd64931b008fbe1794ae0b0da36</property>
  <property name="meta.media.nb_streams">1</property>
  <property name="meta.media.0.stream.type">video</property>
  <property name="meta.media.0.stream.frame_rate">60</property>
  <property name="meta.media.0.stream.sample_aspect_ratio">0</property>
  <property name="meta.media.0.codec.width">640</property>
  <property name="meta.media.0.codec.height">360</property>
  <property name="meta.media.0.codec.rotate">0</property>
  <property name="meta.media.0.codec.pix_fmt">yuv420p</property>
  <property name="meta.media.0.codec.sample_aspect_ratio">0</property>
  <property name="meta.media.0.codec.colorspace">601</property>
  <property name="meta.media.0.codec.name">h264</property>
  <property name="meta.media.0.codec.long_name">H.264 / AVC / MPEG-4 AVC / MPEG-4 part 10</property>
  <property name="meta.media.0.codec.bit_rate">3451797</property>
  <property name="meta.attr.0.stream.handler_name.markup">VideoHandler</property>
  <property name="meta.attr.0.stream.vendor_id.markup">FFMP</property>
  <property name="meta.attr.0.stream.encoder.markup">Lavc58.134.100 libx264</property>
  <property name="meta.attr.major_brand.markup">qt  </property>
  <property name="meta.attr.minor_version.markup">512</property>
  <property name="meta.attr.compatible_brands.markup">qt  </property>
  <property name="meta.attr.encoder.markup">Lavf58.76.100</property>
  <property name="meta.attr.comment.markup">Rendered with Manim Community v0.12.0</property>
  <property name="meta.media.sample_aspect_num">1</property>
  <property name="meta.media.sample_aspect_den">1</property>
  <property name="meta.media.frame_rate_num">60</property>
  <property name="meta.media.frame_rate_den">1</property>
  <property name="meta.media.colorspace">601</property>
  <property name="meta.media.color_trc">2</property>
  <property name="meta.media.has_b_frames">0</property>
  <property name="meta.media.width">640</property>
  <property name="meta.media.height">360</property>
  <property name="meta.media.color_range">mpeg</property>
 </producer>
 <producer id="producer312" in="00:00:00.000" out="00:00:00.800">
  <property name="length">49</property>
  <property name="eof">pause</property>
  <property name="resource">/home/xiaoxiae/.cache/kdenlive/proxy/38c877f7cfba74b3f9523fb1dad45c42.mov</property>
  <property name="audio_index">-1</property>
  <property name="video_index">0</property>
  <property name="mute_on_pause">0</property>
  <property name="mlt_service">avformat-novalidate</property>
  <property name="seekable">1</property>
  <property name="aspect_ratio">1</property>
  <property name="kdenlive:clipname">34.mp4</property>
  <property name="kdenlive:folderid">314</property>
  <property name="kdenlive:id">341</property>
  <property name="kdenlive:file_size">144755</property>
  <property name="kdenlive:proxy">/home/xiaoxiae/.cache/kdenlive/proxy/38c877f7cfba74b3f9523fb1dad45c42.mov</property>
  <property name="kdenlive:originalurl">video/ProgrammingModel/vid/34.mp4</property>
  <property name="kdenlive:original.mlt_type">producer</property>
  <property name="kdenlive:original.in">0</property>
  <property name="kdenlive:original.out">48</property>
  <property name="kdenlive:original.length">49</property>
  <property name="kdenlive:original.eof">pause</property>
  <property name="kdenlive:original.resource">video/ProgrammingModel/vid/34.mp4</property>
  <property name="kdenlive:original.meta.media.nb_streams">1</property>
  <property name="kdenlive:original.meta.media.0.stream.type">video</property>
  <property name="kdenlive:original.meta.media.0.stream.frame_rate">60</property>
  <property name="kdenlive:original.meta.media.0.stream.sample_aspect_ratio">0</property>
  <property name="kdenlive:original.meta.media.0.codec.width">3840</property>
  <property name="kdenlive:original.meta.media.0.codec.height">2160</property>
  <property name="kdenlive:original.meta.media.0.codec.rotate">0</property>
  <property name="kdenlive:original.meta.media.0.codec.pix_fmt">yuv420p</property>
  <property name="kdenlive:original.meta.media.0.codec.sample_aspect_ratio">0</property>
  <property name="kdenlive:original.meta.media.0.codec.colorspace">709</property>
  <property name="kdenlive:original.meta.media.0.codec.name">h264</property>
  <property name="kdenlive:original.meta.media.0.codec.long_name">H.264 / AVC / MPEG-4 AVC / MPEG-4 part 10</property>
  <property name="kdenlive:original.meta.media.0.codec.bit_rate">1405038</property>
  <property name="kdenlive:original.meta.attr.0.stream.handler_name.markup">VideoHandler</property>
  <property name="kdenlive:original.meta.attr.0.stream.vendor_id.markup">[0][0][0][0]</property>
  <property name="kdenlive:original.meta.attr.major_brand.markup">isom</property>
  <property name="kdenlive:original.meta.attr.minor_version.markup">512</property>
  <property name="kdenlive:original.meta.attr.compatible_brands.markup">isomiso2avc1mp41</property>
  <property name="kdenlive:original.meta.attr.encoder.markup">Lavf58.76.100</property>
  <property name="kdenlive:original.meta.attr.comment.markup">Rendered with Manim Community v0.12.0</property>
  <property name="kdenlive:original.seekable">1</property>
  <property name="kdenlive:original.width">3840</property>
  <property name="kdenlive:original.height">2160</property>
  <property name="kdenlive:original.meta.media.sample_aspect_num">1</property>
  <property name="kdenlive:original.meta.media.sample_aspect_den">1</property>
  <property name="kdenlive:original.aspect_ratio">1</property>
  <property name="kdenlive:original.audio_index">-1</property>
  <property name="kdenlive:original.video_index">0</property>
  <property name="kdenlive:original.mute_on_pause">0</property>
  <property name="kdenlive:original.mlt_service">avformat-novalidate</property>
  <property name="kdenlive:original.kdenlive:folderid">314</property>
  <property name="kdenlive:original.meta.media.frame_rate_num">60</property>
  <property name="kdenlive:original.meta.media.frame_rate_den">1</property>
  <property name="kdenlive:original.meta.media.colorspace">709</property>
  <property name="kdenlive:original.meta.media.color_trc">2</property>
  <property name="kdenlive:original.meta.media.has_b_frames">2</property>
  <property name="kdenlive:original.meta.media.width">3840</property>
  <property name="kdenlive:original.meta.media.height">2160</property>
  <property name="kdenlive:original.meta.media.color_range">mpeg</property>
  <property name="kdenlive:original.kdenlive:id">342</property>
  <property name="kdenlive:original.kdenlive:file_size">144755</property>
  <property name="kdenlive:original.kdenlive:file_hash">38c877f7cfba74b3f9523fb1dad45c42</property>
  <property name="kdenlive:original.backup">1</property>
  <property name="kdenlive:file_hash">38c877f7cfba74b3f9523fb1dad45c42</property>
  <property name="meta.media.nb_streams">1</property>
  <property name="meta.media.0.stream.type">video</property>
  <property name="meta.media.0.stream.frame_rate">60</property>
  <property name="meta.media.0.stream.sample_aspect_ratio">0</property>
  <property name="meta.media.0.codec.width">640</property>
  <property name="meta.media.0.codec.height">360</property>
  <property name="meta.media.0.codec.rotate">0</property>
  <property name="meta.media.0.codec.pix_fmt">yuv420p</property>
  <property name="meta.media.0.codec.sample_aspect_ratio">0</property>
  <property name="meta.media.0.codec.colorspace">601</property>
  <property name="meta.media.0.codec.name">h264</property>
  <property name="meta.media.0.codec.long_name">H.264 / AVC / MPEG-4 AVC / MPEG-4 part 10</property>
  <property name="meta.media.0.codec.bit_rate">3601253</property>
  <property name="meta.attr.0.stream.handler_name.markup">VideoHandler</property>
  <property name="meta.attr.0.stream.vendor_id.markup">FFMP</property>
  <property name="meta.attr.0.stream.encoder.markup">Lavc58.134.100 libx264</property>
  <property name="meta.attr.major_brand.markup">qt  </property>
  <property name="meta.attr.minor_version.markup">512</property>
  <property name="meta.attr.compatible_brands.markup">qt  </property>
  <property name="meta.attr.encoder.markup">Lavf58.76.100</property>
  <property name="meta.attr.comment.markup">Rendered with Manim Community v0.12.0</property>
  <property name="meta.media.sample_aspect_num">1</property>
  <property name="meta.media.sample_aspect_den">1</property>
  <property name="meta.media.frame_rate_num">60</property>
  <property name="meta.media.frame_rate_den">1</property>
  <property name="meta.media.colorspace">601</property>
  <property name="meta.media.color_trc">2</property>
  <property name="meta.media.has_b_frames">0</property>
  <property name="meta.media.width">640</property>
  <property name="meta.media.height">360</property>
  <property name="meta.media.color_range">mpeg</property>
 </producer>
 <producer id="producer313" in="00:00:00.000" out="00:00:01.483">
  <property name="length">90</property>
  <property name="eof">pause</property>
  <property name="resource">/home/xiaoxiae/.cache/kdenlive/proxy/64755ccc02dd1b0ccd395c7cad079ba5.mov</property>
  <property name="audio_index">-1</property>
  <property name="video_index">0</property>
  <property name="mute_on_pause">0</property>
  <property name="mlt_service">avformat-novalidate</property>
  <property name="seekable">1</property>
  <property name="aspect_ratio">1</property>
  <property name="kdenlive:clipname">35.mp4</property>
  <property name="kdenlive:folderid">314</property>
  <property name="kdenlive:id">342</property>
  <property name="kdenlive:file_size">119359</property>
  <property name="kdenlive:proxy">/home/xiaoxiae/.cache/kdenlive/proxy/64755ccc02dd1b0ccd395c7cad079ba5.mov</property>
  <property name="kdenlive:originalurl">video/ProgrammingModel/vid/35.mp4</property>
  <property name="kdenlive:original.mlt_type">producer</property>
  <property name="kdenlive:original.in">0</property>
  <property name="kdenlive:original.out">89</property>
  <property name="kdenlive:original.length">90</property>
  <property name="kdenlive:original.eof">pause</property>
  <property name="kdenlive:original.resource">video/ProgrammingModel/vid/35.mp4</property>
  <property name="kdenlive:original.meta.media.nb_streams">1</property>
  <property name="kdenlive:original.meta.media.0.stream.type">video</property>
  <property name="kdenlive:original.meta.media.0.stream.frame_rate">60</property>
  <property name="kdenlive:original.meta.media.0.stream.sample_aspect_ratio">0</property>
  <property name="kdenlive:original.meta.media.0.codec.width">3840</property>
  <property name="kdenlive:original.meta.media.0.codec.height">2160</property>
  <property name="kdenlive:original.meta.media.0.codec.rotate">0</property>
  <property name="kdenlive:original.meta.media.0.codec.pix_fmt">yuv420p</property>
  <property name="kdenlive:original.meta.media.0.codec.sample_aspect_ratio">0</property>
  <property name="kdenlive:original.meta.media.0.codec.colorspace">709</property>
  <property name="kdenlive:original.meta.media.0.codec.name">h264</property>
  <property name="kdenlive:original.meta.media.0.codec.long_name">H.264 / AVC / MPEG-4 AVC / MPEG-4 part 10</property>
  <property name="kdenlive:original.meta.media.0.codec.bit_rate">625914</property>
  <property name="kdenlive:original.meta.attr.0.stream.handler_name.markup">VideoHandler</property>
  <property name="kdenlive:original.meta.attr.0.stream.vendor_id.markup">[0][0][0][0]</property>
  <property name="kdenlive:original.meta.attr.major_brand.markup">isom</property>
  <property name="kdenlive:original.meta.attr.minor_version.markup">512</property>
  <property name="kdenlive:original.meta.attr.compatible_brands.markup">isomiso2avc1mp41</property>
  <property name="kdenlive:original.meta.attr.encoder.markup">Lavf58.76.100</property>
  <property name="kdenlive:original.meta.attr.comment.markup">Rendered with Manim Community v0.12.0</property>
  <property name="kdenlive:original.seekable">1</property>
  <property name="kdenlive:original.width">3840</property>
  <property name="kdenlive:original.height">2160</property>
  <property name="kdenlive:original.meta.media.sample_aspect_num">1</property>
  <property name="kdenlive:original.meta.media.sample_aspect_den">1</property>
  <property name="kdenlive:original.aspect_ratio">1</property>
  <property name="kdenlive:original.audio_index">-1</property>
  <property name="kdenlive:original.video_index">0</property>
  <property name="kdenlive:original.mute_on_pause">0</property>
  <property name="kdenlive:original.mlt_service">avformat-novalidate</property>
  <property name="kdenlive:original.kdenlive:folderid">314</property>
  <property name="kdenlive:original.meta.media.frame_rate_num">60</property>
  <property name="kdenlive:original.meta.media.frame_rate_den">1</property>
  <property name="kdenlive:original.meta.media.colorspace">709</property>
  <property name="kdenlive:original.meta.media.color_trc">2</property>
  <property name="kdenlive:original.meta.media.has_b_frames">2</property>
  <property name="kdenlive:original.meta.media.width">3840</property>
  <property name="kdenlive:original.meta.media.height">2160</property>
  <property name="kdenlive:original.meta.media.color_range">mpeg</property>
  <property name="kdenlive:original.kdenlive:id">343</property>
  <property name="kdenlive:original.kdenlive:file_size">119359</property>
  <property name="kdenlive:original.kdenlive:file_hash">64755ccc02dd1b0ccd395c7cad079ba5</property>
  <property name="kdenlive:original.backup">1</property>
  <property name="kdenlive:file_hash">64755ccc02dd1b0ccd395c7cad079ba5</property>
  <property name="meta.media.nb_streams">1</property>
  <property name="meta.media.0.stream.type">video</property>
  <property name="meta.media.0.stream.frame_rate">60</property>
  <property name="meta.media.0.stream.sample_aspect_ratio">0</property>
  <property name="meta.media.0.codec.width">640</property>
  <property name="meta.media.0.codec.height">360</property>
  <property name="meta.media.0.codec.rotate">0</property>
  <property name="meta.media.0.codec.pix_fmt">yuv420p</property>
  <property name="meta.media.0.codec.sample_aspect_ratio">0</property>
  <property name="meta.media.0.codec.colorspace">601</property>
  <property name="meta.media.0.codec.name">h264</property>
  <property name="meta.media.0.codec.long_name">H.264 / AVC / MPEG-4 AVC / MPEG-4 part 10</property>
  <property name="meta.media.0.codec.bit_rate">3579520</property>
  <property name="meta.attr.0.stream.handler_name.markup">VideoHandler</property>
  <property name="meta.attr.0.stream.vendor_id.markup">FFMP</property>
  <property name="meta.attr.0.stream.encoder.markup">Lavc58.134.100 libx264</property>
  <property name="meta.attr.major_brand.markup">qt  </property>
  <property name="meta.attr.minor_version.markup">512</property>
  <property name="meta.attr.compatible_brands.markup">qt  </property>
  <property name="meta.attr.encoder.markup">Lavf58.76.100</property>
  <property name="meta.attr.comment.markup">Rendered with Manim Community v0.12.0</property>
  <property name="meta.media.sample_aspect_num">1</property>
  <property name="meta.media.sample_aspect_den">1</property>
  <property name="meta.media.frame_rate_num">60</property>
  <property name="meta.media.frame_rate_den">1</property>
  <property name="meta.media.colorspace">601</property>
  <property name="meta.media.color_trc">2</property>
  <property name="meta.media.has_b_frames">0</property>
  <property name="meta.media.width">640</property>
  <property name="meta.media.height">360</property>
  <property name="meta.media.color_range">mpeg</property>
 </producer>
 <producer id="producer314" in="00:00:00.000" out="00:00:00.733">
  <property name="length">45</property>
  <property name="eof">pause</property>
  <property name="resource">/home/xiaoxiae/.cache/kdenlive/proxy/f428b240f4a22a646f5d807801ff8e06.mov</property>
  <property name="audio_index">-1</property>
  <property name="video_index">0</property>
  <property name="mute_on_pause">0</property>
  <property name="mlt_service">avformat-novalidate</property>
  <property name="seekable">1</property>
  <property name="aspect_ratio">1</property>
  <property name="kdenlive:clipname">36.mp4</property>
  <property name="kdenlive:folderid">314</property>
  <property name="kdenlive:id">343</property>
  <property name="kdenlive:file_size">151018</property>
  <property name="kdenlive:proxy">/home/xiaoxiae/.cache/kdenlive/proxy/f428b240f4a22a646f5d807801ff8e06.mov</property>
  <property name="kdenlive:originalurl">video/ProgrammingModel/vid/36.mp4</property>
  <property name="kdenlive:original.mlt_type">producer</property>
  <property name="kdenlive:original.in">0</property>
  <property name="kdenlive:original.out">44</property>
  <property name="kdenlive:original.length">45</property>
  <property name="kdenlive:original.eof">pause</property>
  <property name="kdenlive:original.resource">video/ProgrammingModel/vid/36.mp4</property>
  <property name="kdenlive:original.meta.media.nb_streams">1</property>
  <property name="kdenlive:original.meta.media.0.stream.type">video</property>
  <property name="kdenlive:original.meta.media.0.stream.frame_rate">60</property>
  <property name="kdenlive:original.meta.media.0.stream.sample_aspect_ratio">0</property>
  <property name="kdenlive:original.meta.media.0.codec.width">3840</property>
  <property name="kdenlive:original.meta.media.0.codec.height">2160</property>
  <property name="kdenlive:original.meta.media.0.codec.rotate">0</property>
  <property name="kdenlive:original.meta.media.0.codec.pix_fmt">yuv420p</property>
  <property name="kdenlive:original.meta.media.0.codec.sample_aspect_ratio">0</property>
  <property name="kdenlive:original.meta.media.0.codec.colorspace">709</property>
  <property name="kdenlive:original.meta.media.0.codec.name">h264</property>
  <property name="kdenlive:original.meta.media.0.codec.long_name">H.264 / AVC / MPEG-4 AVC / MPEG-4 part 10</property>
  <property name="kdenlive:original.meta.media.0.codec.bit_rate">1596821</property>
  <property name="kdenlive:original.meta.attr.0.stream.handler_name.markup">VideoHandler</property>
  <property name="kdenlive:original.meta.attr.0.stream.vendor_id.markup">[0][0][0][0]</property>
  <property name="kdenlive:original.meta.attr.major_brand.markup">isom</property>
  <property name="kdenlive:original.meta.attr.minor_version.markup">512</property>
  <property name="kdenlive:original.meta.attr.compatible_brands.markup">isomiso2avc1mp41</property>
  <property name="kdenlive:original.meta.attr.encoder.markup">Lavf58.76.100</property>
  <property name="kdenlive:original.meta.attr.comment.markup">Rendered with Manim Community v0.12.0</property>
  <property name="kdenlive:original.seekable">1</property>
  <property name="kdenlive:original.width">3840</property>
  <property name="kdenlive:original.height">2160</property>
  <property name="kdenlive:original.meta.media.sample_aspect_num">1</property>
  <property name="kdenlive:original.meta.media.sample_aspect_den">1</property>
  <property name="kdenlive:original.aspect_ratio">1</property>
  <property name="kdenlive:original.audio_index">-1</property>
  <property name="kdenlive:original.video_index">0</property>
  <property name="kdenlive:original.mute_on_pause">0</property>
  <property name="kdenlive:original.mlt_service">avformat-novalidate</property>
  <property name="kdenlive:original.kdenlive:folderid">314</property>
  <property name="kdenlive:original.meta.media.frame_rate_num">60</property>
  <property name="kdenlive:original.meta.media.frame_rate_den">1</property>
  <property name="kdenlive:original.meta.media.colorspace">709</property>
  <property name="kdenlive:original.meta.media.color_trc">2</property>
  <property name="kdenlive:original.meta.media.has_b_frames">2</property>
  <property name="kdenlive:original.meta.media.width">3840</property>
  <property name="kdenlive:original.meta.media.height">2160</property>
  <property name="kdenlive:original.meta.media.color_range">mpeg</property>
  <property name="kdenlive:original.kdenlive:id">344</property>
  <property name="kdenlive:original.kdenlive:file_size">151018</property>
  <property name="kdenlive:original.kdenlive:file_hash">f428b240f4a22a646f5d807801ff8e06</property>
  <property name="kdenlive:original.backup">1</property>
  <property name="kdenlive:file_hash">f428b240f4a22a646f5d807801ff8e06</property>
  <property name="meta.media.nb_streams">1</property>
  <property name="meta.media.0.stream.type">video</property>
  <property name="meta.media.0.stream.frame_rate">60</property>
  <property name="meta.media.0.stream.sample_aspect_ratio">0</property>
  <property name="meta.media.0.codec.width">640</property>
  <property name="meta.media.0.codec.height">360</property>
  <property name="meta.media.0.codec.rotate">0</property>
  <property name="meta.media.0.codec.pix_fmt">yuv420p</property>
  <property name="meta.media.0.codec.sample_aspect_ratio">0</property>
  <property name="meta.media.0.codec.colorspace">601</property>
  <property name="meta.media.0.codec.name">h264</property>
  <property name="meta.media.0.codec.long_name">H.264 / AVC / MPEG-4 AVC / MPEG-4 part 10</property>
  <property name="meta.media.0.codec.bit_rate">3695072</property>
  <property name="meta.attr.0.stream.handler_name.markup">VideoHandler</property>
  <property name="meta.attr.0.stream.vendor_id.markup">FFMP</property>
  <property name="meta.attr.0.stream.encoder.markup">Lavc58.134.100 libx264</property>
  <property name="meta.attr.major_brand.markup">qt  </property>
  <property name="meta.attr.minor_version.markup">512</property>
  <property name="meta.attr.compatible_brands.markup">qt  </property>
  <property name="meta.attr.encoder.markup">Lavf58.76.100</property>
  <property name="meta.attr.comment.markup">Rendered with Manim Community v0.12.0</property>
  <property name="meta.media.sample_aspect_num">1</property>
  <property name="meta.media.sample_aspect_den">1</property>
  <property name="meta.media.frame_rate_num">60</property>
  <property name="meta.media.frame_rate_den">1</property>
  <property name="meta.media.colorspace">601</property>
  <property name="meta.media.color_trc">2</property>
  <property name="meta.media.has_b_frames">0</property>
  <property name="meta.media.width">640</property>
  <property name="meta.media.height">360</property>
  <property name="meta.media.color_range">mpeg</property>
 </producer>
 <producer id="producer315" in="00:00:00.000" out="00:00:01.483">
  <property name="length">90</property>
  <property name="eof">pause</property>
  <property name="resource">/home/xiaoxiae/.cache/kdenlive/proxy/2b0da38f86ddf35b8ac603c176d89877.mov</property>
  <property name="audio_index">-1</property>
  <property name="video_index">0</property>
  <property name="mute_on_pause">0</property>
  <property name="mlt_service">avformat-novalidate</property>
  <property name="seekable">1</property>
  <property name="aspect_ratio">1</property>
  <property name="kdenlive:clipname">37.mp4</property>
  <property name="kdenlive:folderid">314</property>
  <property name="kdenlive:id">344</property>
  <property name="kdenlive:file_size">123112</property>
  <property name="kdenlive:proxy">/home/xiaoxiae/.cache/kdenlive/proxy/2b0da38f86ddf35b8ac603c176d89877.mov</property>
  <property name="kdenlive:originalurl">video/ProgrammingModel/vid/37.mp4</property>
  <property name="kdenlive:original.mlt_type">producer</property>
  <property name="kdenlive:original.in">0</property>
  <property name="kdenlive:original.out">89</property>
  <property name="kdenlive:original.length">90</property>
  <property name="kdenlive:original.eof">pause</property>
  <property name="kdenlive:original.resource">video/ProgrammingModel/vid/37.mp4</property>
  <property name="kdenlive:original.meta.media.nb_streams">1</property>
  <property name="kdenlive:original.meta.media.0.stream.type">video</property>
  <property name="kdenlive:original.meta.media.0.stream.frame_rate">60</property>
  <property name="kdenlive:original.meta.media.0.stream.sample_aspect_ratio">0</property>
  <property name="kdenlive:original.meta.media.0.codec.width">3840</property>
  <property name="kdenlive:original.meta.media.0.codec.height">2160</property>
  <property name="kdenlive:original.meta.media.0.codec.rotate">0</property>
  <property name="kdenlive:original.meta.media.0.codec.pix_fmt">yuv420p</property>
  <property name="kdenlive:original.meta.media.0.codec.sample_aspect_ratio">0</property>
  <property name="kdenlive:original.meta.media.0.codec.colorspace">709</property>
  <property name="kdenlive:original.meta.media.0.codec.name">h264</property>
  <property name="kdenlive:original.meta.media.0.codec.long_name">H.264 / AVC / MPEG-4 AVC / MPEG-4 part 10</property>
  <property name="kdenlive:original.meta.media.0.codec.bit_rate">645930</property>
  <property name="kdenlive:original.meta.attr.0.stream.handler_name.markup">VideoHandler</property>
  <property name="kdenlive:original.meta.attr.0.stream.vendor_id.markup">[0][0][0][0]</property>
  <property name="kdenlive:original.meta.attr.major_brand.markup">isom</property>
  <property name="kdenlive:original.meta.attr.minor_version.markup">512</property>
  <property name="kdenlive:original.meta.attr.compatible_brands.markup">isomiso2avc1mp41</property>
  <property name="kdenlive:original.meta.attr.encoder.markup">Lavf58.76.100</property>
  <property name="kdenlive:original.meta.attr.comment.markup">Rendered with Manim Community v0.12.0</property>
  <property name="kdenlive:original.seekable">1</property>
  <property name="kdenlive:original.width">3840</property>
  <property name="kdenlive:original.height">2160</property>
  <property name="kdenlive:original.meta.media.sample_aspect_num">1</property>
  <property name="kdenlive:original.meta.media.sample_aspect_den">1</property>
  <property name="kdenlive:original.aspect_ratio">1</property>
  <property name="kdenlive:original.audio_index">-1</property>
  <property name="kdenlive:original.video_index">0</property>
  <property name="kdenlive:original.mute_on_pause">0</property>
  <property name="kdenlive:original.mlt_service">avformat-novalidate</property>
  <property name="kdenlive:original.kdenlive:folderid">314</property>
  <property name="kdenlive:original.meta.media.frame_rate_num">60</property>
  <property name="kdenlive:original.meta.media.frame_rate_den">1</property>
  <property name="kdenlive:original.meta.media.colorspace">709</property>
  <property name="kdenlive:original.meta.media.color_trc">2</property>
  <property name="kdenlive:original.meta.media.has_b_frames">2</property>
  <property name="kdenlive:original.meta.media.width">3840</property>
  <property name="kdenlive:original.meta.media.height">2160</property>
  <property name="kdenlive:original.meta.media.color_range">mpeg</property>
  <property name="kdenlive:original.kdenlive:id">345</property>
  <property name="kdenlive:original.kdenlive:file_size">123112</property>
  <property name="kdenlive:original.kdenlive:file_hash">2b0da38f86ddf35b8ac603c176d89877</property>
  <property name="kdenlive:original.backup">1</property>
  <property name="kdenlive:file_hash">2b0da38f86ddf35b8ac603c176d89877</property>
  <property name="meta.media.nb_streams">1</property>
  <property name="meta.media.0.stream.type">video</property>
  <property name="meta.media.0.stream.frame_rate">60</property>
  <property name="meta.media.0.stream.sample_aspect_ratio">0</property>
  <property name="meta.media.0.codec.width">640</property>
  <property name="meta.media.0.codec.height">360</property>
  <property name="meta.media.0.codec.rotate">0</property>
  <property name="meta.media.0.codec.pix_fmt">yuv420p</property>
  <property name="meta.media.0.codec.sample_aspect_ratio">0</property>
  <property name="meta.media.0.codec.colorspace">601</property>
  <property name="meta.media.0.codec.name">h264</property>
  <property name="meta.media.0.codec.long_name">H.264 / AVC / MPEG-4 AVC / MPEG-4 part 10</property>
  <property name="meta.media.0.codec.bit_rate">3672458</property>
  <property name="meta.attr.0.stream.handler_name.markup">VideoHandler</property>
  <property name="meta.attr.0.stream.vendor_id.markup">FFMP</property>
  <property name="meta.attr.0.stream.encoder.markup">Lavc58.134.100 libx264</property>
  <property name="meta.attr.major_brand.markup">qt  </property>
  <property name="meta.attr.minor_version.markup">512</property>
  <property name="meta.attr.compatible_brands.markup">qt  </property>
  <property name="meta.attr.encoder.markup">Lavf58.76.100</property>
  <property name="meta.attr.comment.markup">Rendered with Manim Community v0.12.0</property>
  <property name="meta.media.sample_aspect_num">1</property>
  <property name="meta.media.sample_aspect_den">1</property>
  <property name="meta.media.frame_rate_num">60</property>
  <property name="meta.media.frame_rate_den">1</property>
  <property name="meta.media.colorspace">601</property>
  <property name="meta.media.color_trc">2</property>
  <property name="meta.media.has_b_frames">0</property>
  <property name="meta.media.width">640</property>
  <property name="meta.media.height">360</property>
  <property name="meta.media.color_range">mpeg</property>
 </producer>
 <producer id="producer316" in="00:00:00.000" out="00:00:00.683">
  <property name="length">42</property>
  <property name="eof">pause</property>
  <property name="resource">/home/xiaoxiae/.cache/kdenlive/proxy/6ffd46ef4b1c3ea239ca953aaad82afe.mov</property>
  <property name="audio_index">-1</property>
  <property name="video_index">0</property>
  <property name="mute_on_pause">0</property>
  <property name="mlt_service">avformat-novalidate</property>
  <property name="seekable">1</property>
  <property name="aspect_ratio">1</property>
  <property name="kdenlive:clipname">38.mp4</property>
  <property name="kdenlive:folderid">314</property>
  <property name="kdenlive:id">345</property>
  <property name="kdenlive:file_size">140960</property>
  <property name="kdenlive:proxy">/home/xiaoxiae/.cache/kdenlive/proxy/6ffd46ef4b1c3ea239ca953aaad82afe.mov</property>
  <property name="kdenlive:originalurl">video/ProgrammingModel/vid/38.mp4</property>
  <property name="kdenlive:original.mlt_type">producer</property>
  <property name="kdenlive:original.in">0</property>
  <property name="kdenlive:original.out">41</property>
  <property name="kdenlive:original.length">42</property>
  <property name="kdenlive:original.eof">pause</property>
  <property name="kdenlive:original.resource">video/ProgrammingModel/vid/38.mp4</property>
  <property name="kdenlive:original.meta.media.nb_streams">1</property>
  <property name="kdenlive:original.meta.media.0.stream.type">video</property>
  <property name="kdenlive:original.meta.media.0.stream.frame_rate">60</property>
  <property name="kdenlive:original.meta.media.0.stream.sample_aspect_ratio">0</property>
  <property name="kdenlive:original.meta.media.0.codec.width">3840</property>
  <property name="kdenlive:original.meta.media.0.codec.height">2160</property>
  <property name="kdenlive:original.meta.media.0.codec.rotate">0</property>
  <property name="kdenlive:original.meta.media.0.codec.pix_fmt">yuv420p</property>
  <property name="kdenlive:original.meta.media.0.codec.sample_aspect_ratio">0</property>
  <property name="kdenlive:original.meta.media.0.codec.colorspace">709</property>
  <property name="kdenlive:original.meta.media.0.codec.name">h264</property>
  <property name="kdenlive:original.meta.media.0.codec.long_name">H.264 / AVC / MPEG-4 AVC / MPEG-4 part 10</property>
  <property name="kdenlive:original.meta.media.0.codec.bit_rate">1595428</property>
  <property name="kdenlive:original.meta.attr.0.stream.handler_name.markup">VideoHandler</property>
  <property name="kdenlive:original.meta.attr.0.stream.vendor_id.markup">[0][0][0][0]</property>
  <property name="kdenlive:original.meta.attr.major_brand.markup">isom</property>
  <property name="kdenlive:original.meta.attr.minor_version.markup">512</property>
  <property name="kdenlive:original.meta.attr.compatible_brands.markup">isomiso2avc1mp41</property>
  <property name="kdenlive:original.meta.attr.encoder.markup">Lavf58.76.100</property>
  <property name="kdenlive:original.meta.attr.comment.markup">Rendered with Manim Community v0.12.0</property>
  <property name="kdenlive:original.seekable">1</property>
  <property name="kdenlive:original.width">3840</property>
  <property name="kdenlive:original.height">2160</property>
  <property name="kdenlive:original.meta.media.sample_aspect_num">1</property>
  <property name="kdenlive:original.meta.media.sample_aspect_den">1</property>
  <property name="kdenlive:original.aspect_ratio">1</property>
  <property name="kdenlive:original.audio_index">-1</property>
  <property name="kdenlive:original.video_index">0</property>
  <property name="kdenlive:original.mute_on_pause">0</property>
  <property name="kdenlive:original.mlt_service">avformat-novalidate</property>
  <property name="kdenlive:original.kdenlive:folderid">314</property>
  <property name="kdenlive:original.meta.media.frame_rate_num">60</property>
  <property name="kdenlive:original.meta.media.frame_rate_den">1</property>
  <property name="kdenlive:original.meta.media.colorspace">709</property>
  <property name="kdenlive:original.meta.media.color_trc">2</property>
  <property name="kdenlive:original.meta.media.has_b_frames">2</property>
  <property name="kdenlive:original.meta.media.width">3840</property>
  <property name="kdenlive:original.meta.media.height">2160</property>
  <property name="kdenlive:original.meta.media.color_range">mpeg</property>
  <property name="kdenlive:original.kdenlive:id">346</property>
  <property name="kdenlive:original.kdenlive:file_size">140960</property>
  <property name="kdenlive:original.kdenlive:file_hash">6ffd46ef4b1c3ea239ca953aaad82afe</property>
  <property name="kdenlive:original.backup">1</property>
  <property name="kdenlive:file_hash">6ffd46ef4b1c3ea239ca953aaad82afe</property>
  <property name="meta.media.nb_streams">1</property>
  <property name="meta.media.0.stream.type">video</property>
  <property name="meta.media.0.stream.frame_rate">60</property>
  <property name="meta.media.0.stream.sample_aspect_ratio">0</property>
  <property name="meta.media.0.codec.width">640</property>
  <property name="meta.media.0.codec.height">360</property>
  <property name="meta.media.0.codec.rotate">0</property>
  <property name="meta.media.0.codec.pix_fmt">yuv420p</property>
  <property name="meta.media.0.codec.sample_aspect_ratio">0</property>
  <property name="meta.media.0.codec.colorspace">601</property>
  <property name="meta.media.0.codec.name">h264</property>
  <property name="meta.media.0.codec.long_name">H.264 / AVC / MPEG-4 AVC / MPEG-4 part 10</property>
  <property name="meta.media.0.codec.bit_rate">3811234</property>
  <property name="meta.attr.0.stream.handler_name.markup">VideoHandler</property>
  <property name="meta.attr.0.stream.vendor_id.markup">FFMP</property>
  <property name="meta.attr.0.stream.encoder.markup">Lavc58.134.100 libx264</property>
  <property name="meta.attr.major_brand.markup">qt  </property>
  <property name="meta.attr.minor_version.markup">512</property>
  <property name="meta.attr.compatible_brands.markup">qt  </property>
  <property name="meta.attr.encoder.markup">Lavf58.76.100</property>
  <property name="meta.attr.comment.markup">Rendered with Manim Community v0.12.0</property>
  <property name="meta.media.sample_aspect_num">1</property>
  <property name="meta.media.sample_aspect_den">1</property>
  <property name="meta.media.frame_rate_num">60</property>
  <property name="meta.media.frame_rate_den">1</property>
  <property name="meta.media.colorspace">601</property>
  <property name="meta.media.color_trc">2</property>
  <property name="meta.media.has_b_frames">0</property>
  <property name="meta.media.width">640</property>
  <property name="meta.media.height">360</property>
  <property name="meta.media.color_range">mpeg</property>
 </producer>
 <producer id="producer317" in="00:00:00.000" out="00:00:01.483">
  <property name="length">90</property>
  <property name="eof">pause</property>
  <property name="resource">/home/xiaoxiae/.cache/kdenlive/proxy/e15ebeacd8e004f9f3113b00fd8b120c.mov</property>
  <property name="audio_index">-1</property>
  <property name="video_index">0</property>
  <property name="mute_on_pause">0</property>
  <property name="mlt_service">avformat-novalidate</property>
  <property name="seekable">1</property>
  <property name="aspect_ratio">1</property>
  <property name="kdenlive:clipname">39.mp4</property>
  <property name="kdenlive:folderid">314</property>
  <property name="kdenlive:id">346</property>
  <property name="kdenlive:file_size">124311</property>
  <property name="kdenlive:proxy">/home/xiaoxiae/.cache/kdenlive/proxy/e15ebeacd8e004f9f3113b00fd8b120c.mov</property>
  <property name="kdenlive:originalurl">video/ProgrammingModel/vid/39.mp4</property>
  <property name="kdenlive:original.mlt_type">producer</property>
  <property name="kdenlive:original.in">0</property>
  <property name="kdenlive:original.out">89</property>
  <property name="kdenlive:original.length">90</property>
  <property name="kdenlive:original.eof">pause</property>
  <property name="kdenlive:original.resource">video/ProgrammingModel/vid/39.mp4</property>
  <property name="kdenlive:original.meta.media.nb_streams">1</property>
  <property name="kdenlive:original.meta.media.0.stream.type">video</property>
  <property name="kdenlive:original.meta.media.0.stream.frame_rate">60</property>
  <property name="kdenlive:original.meta.media.0.stream.sample_aspect_ratio">0</property>
  <property name="kdenlive:original.meta.media.0.codec.width">3840</property>
  <property name="kdenlive:original.meta.media.0.codec.height">2160</property>
  <property name="kdenlive:original.meta.media.0.codec.rotate">0</property>
  <property name="kdenlive:original.meta.media.0.codec.pix_fmt">yuv420p</property>
  <property name="kdenlive:original.meta.media.0.codec.sample_aspect_ratio">0</property>
  <property name="kdenlive:original.meta.media.0.codec.colorspace">709</property>
  <property name="kdenlive:original.meta.media.0.codec.name">h264</property>
  <property name="kdenlive:original.meta.media.0.codec.long_name">H.264 / AVC / MPEG-4 AVC / MPEG-4 part 10</property>
  <property name="kdenlive:original.meta.media.0.codec.bit_rate">652325</property>
  <property name="kdenlive:original.meta.attr.0.stream.handler_name.markup">VideoHandler</property>
  <property name="kdenlive:original.meta.attr.0.stream.vendor_id.markup">[0][0][0][0]</property>
  <property name="kdenlive:original.meta.attr.major_brand.markup">isom</property>
  <property name="kdenlive:original.meta.attr.minor_version.markup">512</property>
  <property name="kdenlive:original.meta.attr.compatible_brands.markup">isomiso2avc1mp41</property>
  <property name="kdenlive:original.meta.attr.encoder.markup">Lavf58.76.100</property>
  <property name="kdenlive:original.meta.attr.comment.markup">Rendered with Manim Community v0.12.0</property>
  <property name="kdenlive:original.seekable">1</property>
  <property name="kdenlive:original.width">3840</property>
  <property name="kdenlive:original.height">2160</property>
  <property name="kdenlive:original.meta.media.sample_aspect_num">1</property>
  <property name="kdenlive:original.meta.media.sample_aspect_den">1</property>
  <property name="kdenlive:original.aspect_ratio">1</property>
  <property name="kdenlive:original.audio_index">-1</property>
  <property name="kdenlive:original.video_index">0</property>
  <property name="kdenlive:original.mute_on_pause">0</property>
  <property name="kdenlive:original.mlt_service">avformat-novalidate</property>
  <property name="kdenlive:original.kdenlive:folderid">314</property>
  <property name="kdenlive:original.meta.media.frame_rate_num">60</property>
  <property name="kdenlive:original.meta.media.frame_rate_den">1</property>
  <property name="kdenlive:original.meta.media.colorspace">709</property>
  <property name="kdenlive:original.meta.media.color_trc">2</property>
  <property name="kdenlive:original.meta.media.has_b_frames">2</property>
  <property name="kdenlive:original.meta.media.width">3840</property>
  <property name="kdenlive:original.meta.media.height">2160</property>
  <property name="kdenlive:original.meta.media.color_range">mpeg</property>
  <property name="kdenlive:original.kdenlive:id">347</property>
  <property name="kdenlive:original.kdenlive:file_size">124311</property>
  <property name="kdenlive:original.kdenlive:file_hash">e15ebeacd8e004f9f3113b00fd8b120c</property>
  <property name="kdenlive:original.backup">1</property>
  <property name="kdenlive:file_hash">e15ebeacd8e004f9f3113b00fd8b120c</property>
  <property name="meta.media.nb_streams">1</property>
  <property name="meta.media.0.stream.type">video</property>
  <property name="meta.media.0.stream.frame_rate">60</property>
  <property name="meta.media.0.stream.sample_aspect_ratio">0</property>
  <property name="meta.media.0.codec.width">640</property>
  <property name="meta.media.0.codec.height">360</property>
  <property name="meta.media.0.codec.rotate">0</property>
  <property name="meta.media.0.codec.pix_fmt">yuv420p</property>
  <property name="meta.media.0.codec.sample_aspect_ratio">0</property>
  <property name="meta.media.0.codec.colorspace">601</property>
  <property name="meta.media.0.codec.name">h264</property>
  <property name="meta.media.0.codec.long_name">H.264 / AVC / MPEG-4 AVC / MPEG-4 part 10</property>
  <property name="meta.media.0.codec.bit_rate">3787402</property>
  <property name="meta.attr.0.stream.handler_name.markup">VideoHandler</property>
  <property name="meta.attr.0.stream.vendor_id.markup">FFMP</property>
  <property name="meta.attr.0.stream.encoder.markup">Lavc58.134.100 libx264</property>
  <property name="meta.attr.major_brand.markup">qt  </property>
  <property name="meta.attr.minor_version.markup">512</property>
  <property name="meta.attr.compatible_brands.markup">qt  </property>
  <property name="meta.attr.encoder.markup">Lavf58.76.100</property>
  <property name="meta.attr.comment.markup">Rendered with Manim Community v0.12.0</property>
  <property name="meta.media.sample_aspect_num">1</property>
  <property name="meta.media.sample_aspect_den">1</property>
  <property name="meta.media.frame_rate_num">60</property>
  <property name="meta.media.frame_rate_den">1</property>
  <property name="meta.media.colorspace">601</property>
  <property name="meta.media.color_trc">2</property>
  <property name="meta.media.has_b_frames">0</property>
  <property name="meta.media.width">640</property>
  <property name="meta.media.height">360</property>
  <property name="meta.media.color_range">mpeg</property>
 </producer>
 <producer id="producer318" in="00:00:00.000" out="00:00:02.083">
  <property name="length">126</property>
  <property name="eof">pause</property>
  <property name="resource">/home/xiaoxiae/.cache/kdenlive/proxy/34a4de808f64a095c84691ef5e2862db.mov</property>
  <property name="audio_index">-1</property>
  <property name="video_index">0</property>
  <property name="mute_on_pause">0</property>
  <property name="mlt_service">avformat-novalidate</property>
  <property name="seekable">1</property>
  <property name="aspect_ratio">1</property>
  <property name="kdenlive:clipname">4.mp4</property>
  <property name="kdenlive:folderid">314</property>
  <property name="kdenlive:id">347</property>
  <property name="kdenlive:file_size">171622</property>
  <property name="kdenlive:proxy">/home/xiaoxiae/.cache/kdenlive/proxy/34a4de808f64a095c84691ef5e2862db.mov</property>
  <property name="kdenlive:originalurl">video/ProgrammingModel/vid/4.mp4</property>
  <property name="kdenlive:original.mlt_type">producer</property>
  <property name="kdenlive:original.in">0</property>
  <property name="kdenlive:original.out">125</property>
  <property name="kdenlive:original.length">126</property>
  <property name="kdenlive:original.eof">pause</property>
  <property name="kdenlive:original.resource">video/ProgrammingModel/vid/4.mp4</property>
  <property name="kdenlive:original.meta.media.nb_streams">1</property>
  <property name="kdenlive:original.meta.media.0.stream.type">video</property>
  <property name="kdenlive:original.meta.media.0.stream.frame_rate">60</property>
  <property name="kdenlive:original.meta.media.0.stream.sample_aspect_ratio">0</property>
  <property name="kdenlive:original.meta.media.0.codec.width">3840</property>
  <property name="kdenlive:original.meta.media.0.codec.height">2160</property>
  <property name="kdenlive:original.meta.media.0.codec.rotate">0</property>
  <property name="kdenlive:original.meta.media.0.codec.pix_fmt">yuv420p</property>
  <property name="kdenlive:original.meta.media.0.codec.sample_aspect_ratio">0</property>
  <property name="kdenlive:original.meta.media.0.codec.colorspace">709</property>
  <property name="kdenlive:original.meta.media.0.codec.name">h264</property>
  <property name="kdenlive:original.meta.media.0.codec.long_name">H.264 / AVC / MPEG-4 AVC / MPEG-4 part 10</property>
  <property name="kdenlive:original.meta.media.0.codec.bit_rate">644594</property>
  <property name="kdenlive:original.meta.attr.0.stream.handler_name.markup">VideoHandler</property>
  <property name="kdenlive:original.meta.attr.0.stream.vendor_id.markup">[0][0][0][0]</property>
  <property name="kdenlive:original.meta.attr.major_brand.markup">isom</property>
  <property name="kdenlive:original.meta.attr.minor_version.markup">512</property>
  <property name="kdenlive:original.meta.attr.compatible_brands.markup">isomiso2avc1mp41</property>
  <property name="kdenlive:original.meta.attr.encoder.markup">Lavf58.76.100</property>
  <property name="kdenlive:original.meta.attr.comment.markup">Rendered with Manim Community v0.12.0</property>
  <property name="kdenlive:original.seekable">1</property>
  <property name="kdenlive:original.width">3840</property>
  <property name="kdenlive:original.height">2160</property>
  <property name="kdenlive:original.meta.media.sample_aspect_num">1</property>
  <property name="kdenlive:original.meta.media.sample_aspect_den">1</property>
  <property name="kdenlive:original.aspect_ratio">1</property>
  <property name="kdenlive:original.audio_index">-1</property>
  <property name="kdenlive:original.video_index">0</property>
  <property name="kdenlive:original.mute_on_pause">0</property>
  <property name="kdenlive:original.mlt_service">avformat-novalidate</property>
  <property name="kdenlive:original.kdenlive:folderid">314</property>
  <property name="kdenlive:original.meta.media.frame_rate_num">60</property>
  <property name="kdenlive:original.meta.media.frame_rate_den">1</property>
  <property name="kdenlive:original.meta.media.colorspace">709</property>
  <property name="kdenlive:original.meta.media.color_trc">2</property>
  <property name="kdenlive:original.meta.media.has_b_frames">2</property>
  <property name="kdenlive:original.meta.media.width">3840</property>
  <property name="kdenlive:original.meta.media.height">2160</property>
  <property name="kdenlive:original.meta.media.color_range">mpeg</property>
  <property name="kdenlive:original.kdenlive:id">348</property>
  <property name="kdenlive:original.kdenlive:file_size">171622</property>
  <property name="kdenlive:original.kdenlive:file_hash">34a4de808f64a095c84691ef5e2862db</property>
  <property name="kdenlive:original.backup">1</property>
  <property name="kdenlive:file_hash">34a4de808f64a095c84691ef5e2862db</property>
  <property name="meta.media.nb_streams">1</property>
  <property name="meta.media.0.stream.type">video</property>
  <property name="meta.media.0.stream.frame_rate">60</property>
  <property name="meta.media.0.stream.sample_aspect_ratio">0</property>
  <property name="meta.media.0.codec.width">640</property>
  <property name="meta.media.0.codec.height">360</property>
  <property name="meta.media.0.codec.rotate">0</property>
  <property name="meta.media.0.codec.pix_fmt">yuv420p</property>
  <property name="meta.media.0.codec.sample_aspect_ratio">0</property>
  <property name="meta.media.0.codec.colorspace">601</property>
  <property name="meta.media.0.codec.name">h264</property>
  <property name="meta.media.0.codec.long_name">H.264 / AVC / MPEG-4 AVC / MPEG-4 part 10</property>
  <property name="meta.media.0.codec.bit_rate">1601832</property>
  <property name="meta.attr.0.stream.handler_name.markup">VideoHandler</property>
  <property name="meta.attr.0.stream.vendor_id.markup">FFMP</property>
  <property name="meta.attr.0.stream.encoder.markup">Lavc58.134.100 libx264</property>
  <property name="meta.attr.major_brand.markup">qt  </property>
  <property name="meta.attr.minor_version.markup">512</property>
  <property name="meta.attr.compatible_brands.markup">qt  </property>
  <property name="meta.attr.encoder.markup">Lavf58.76.100</property>
  <property name="meta.attr.comment.markup">Rendered with Manim Community v0.12.0</property>
  <property name="meta.media.sample_aspect_num">1</property>
  <property name="meta.media.sample_aspect_den">1</property>
  <property name="meta.media.frame_rate_num">60</property>
  <property name="meta.media.frame_rate_den">1</property>
  <property name="meta.media.colorspace">601</property>
  <property name="meta.media.color_trc">2</property>
  <property name="meta.media.has_b_frames">0</property>
  <property name="meta.media.width">640</property>
  <property name="meta.media.height">360</property>
  <property name="meta.media.color_range">mpeg</property>
 </producer>
 <producer id="producer319" in="00:00:00.000" out="00:00:00.617">
  <property name="length">38</property>
  <property name="eof">pause</property>
  <property name="resource">/home/xiaoxiae/.cache/kdenlive/proxy/6f111973478d16eaa6866b3dc58bcbda.mov</property>
  <property name="audio_index">-1</property>
  <property name="video_index">0</property>
  <property name="mute_on_pause">0</property>
  <property name="mlt_service">avformat-novalidate</property>
  <property name="seekable">1</property>
  <property name="aspect_ratio">1</property>
  <property name="kdenlive:clipname">40.mp4</property>
  <property name="kdenlive:folderid">314</property>
  <property name="kdenlive:id">348</property>
  <property name="kdenlive:file_size">137056</property>
  <property name="kdenlive:proxy">/home/xiaoxiae/.cache/kdenlive/proxy/6f111973478d16eaa6866b3dc58bcbda.mov</property>
  <property name="kdenlive:originalurl">video/ProgrammingModel/vid/40.mp4</property>
  <property name="kdenlive:original.mlt_type">producer</property>
  <property name="kdenlive:original.in">0</property>
  <property name="kdenlive:original.out">37</property>
  <property name="kdenlive:original.length">38</property>
  <property name="kdenlive:original.eof">pause</property>
  <property name="kdenlive:original.resource">video/ProgrammingModel/vid/40.mp4</property>
  <property name="kdenlive:original.meta.media.nb_streams">1</property>
  <property name="kdenlive:original.meta.media.0.stream.type">video</property>
  <property name="kdenlive:original.meta.media.0.stream.frame_rate">60</property>
  <property name="kdenlive:original.meta.media.0.stream.sample_aspect_ratio">0</property>
  <property name="kdenlive:original.meta.media.0.codec.width">3840</property>
  <property name="kdenlive:original.meta.media.0.codec.height">2160</property>
  <property name="kdenlive:original.meta.media.0.codec.rotate">0</property>
  <property name="kdenlive:original.meta.media.0.codec.pix_fmt">yuv420p</property>
  <property name="kdenlive:original.meta.media.0.codec.sample_aspect_ratio">0</property>
  <property name="kdenlive:original.meta.media.0.codec.colorspace">709</property>
  <property name="kdenlive:original.meta.media.0.codec.name">h264</property>
  <property name="kdenlive:original.meta.media.0.codec.long_name">H.264 / AVC / MPEG-4 AVC / MPEG-4 part 10</property>
  <property name="kdenlive:original.meta.media.0.codec.bit_rate">1714762</property>
  <property name="kdenlive:original.meta.attr.0.stream.handler_name.markup">VideoHandler</property>
  <property name="kdenlive:original.meta.attr.0.stream.vendor_id.markup">[0][0][0][0]</property>
  <property name="kdenlive:original.meta.attr.major_brand.markup">isom</property>
  <property name="kdenlive:original.meta.attr.minor_version.markup">512</property>
  <property name="kdenlive:original.meta.attr.compatible_brands.markup">isomiso2avc1mp41</property>
  <property name="kdenlive:original.meta.attr.encoder.markup">Lavf58.76.100</property>
  <property name="kdenlive:original.meta.attr.comment.markup">Rendered with Manim Community v0.12.0</property>
  <property name="kdenlive:original.seekable">1</property>
  <property name="kdenlive:original.width">3840</property>
  <property name="kdenlive:original.height">2160</property>
  <property name="kdenlive:original.meta.media.sample_aspect_num">1</property>
  <property name="kdenlive:original.meta.media.sample_aspect_den">1</property>
  <property name="kdenlive:original.aspect_ratio">1</property>
  <property name="kdenlive:original.audio_index">-1</property>
  <property name="kdenlive:original.video_index">0</property>
  <property name="kdenlive:original.mute_on_pause">0</property>
  <property name="kdenlive:original.mlt_service">avformat-novalidate</property>
  <property name="kdenlive:original.kdenlive:folderid">314</property>
  <property name="kdenlive:original.meta.media.frame_rate_num">60</property>
  <property name="kdenlive:original.meta.media.frame_rate_den">1</property>
  <property name="kdenlive:original.meta.media.colorspace">709</property>
  <property name="kdenlive:original.meta.media.color_trc">2</property>
  <property name="kdenlive:original.meta.media.has_b_frames">2</property>
  <property name="kdenlive:original.meta.media.width">3840</property>
  <property name="kdenlive:original.meta.media.height">2160</property>
  <property name="kdenlive:original.meta.media.color_range">mpeg</property>
  <property name="kdenlive:original.kdenlive:id">349</property>
  <property name="kdenlive:original.kdenlive:file_size">137056</property>
  <property name="kdenlive:original.kdenlive:file_hash">6f111973478d16eaa6866b3dc58bcbda</property>
  <property name="kdenlive:original.backup">1</property>
  <property name="kdenlive:file_hash">6f111973478d16eaa6866b3dc58bcbda</property>
  <property name="meta.media.nb_streams">1</property>
  <property name="meta.media.0.stream.type">video</property>
  <property name="meta.media.0.stream.frame_rate">60</property>
  <property name="meta.media.0.stream.sample_aspect_ratio">0</property>
  <property name="meta.media.0.codec.width">640</property>
  <property name="meta.media.0.codec.height">360</property>
  <property name="meta.media.0.codec.rotate">0</property>
  <property name="meta.media.0.codec.pix_fmt">yuv420p</property>
  <property name="meta.media.0.codec.sample_aspect_ratio">0</property>
  <property name="meta.media.0.codec.colorspace">601</property>
  <property name="meta.media.0.codec.name">h264</property>
  <property name="meta.media.0.codec.long_name">H.264 / AVC / MPEG-4 AVC / MPEG-4 part 10</property>
  <property name="meta.media.0.codec.bit_rate">3942997</property>
  <property name="meta.attr.0.stream.handler_name.markup">VideoHandler</property>
  <property name="meta.attr.0.stream.vendor_id.markup">FFMP</property>
  <property name="meta.attr.0.stream.encoder.markup">Lavc58.134.100 libx264</property>
  <property name="meta.attr.major_brand.markup">qt  </property>
  <property name="meta.attr.minor_version.markup">512</property>
  <property name="meta.attr.compatible_brands.markup">qt  </property>
  <property name="meta.attr.encoder.markup">Lavf58.76.100</property>
  <property name="meta.attr.comment.markup">Rendered with Manim Community v0.12.0</property>
  <property name="meta.media.sample_aspect_num">1</property>
  <property name="meta.media.sample_aspect_den">1</property>
  <property name="meta.media.frame_rate_num">60</property>
  <property name="meta.media.frame_rate_den">1</property>
  <property name="meta.media.colorspace">601</property>
  <property name="meta.media.color_trc">2</property>
  <property name="meta.media.has_b_frames">0</property>
  <property name="meta.media.width">640</property>
  <property name="meta.media.height">360</property>
  <property name="meta.media.color_range">mpeg</property>
 </producer>
 <producer id="producer320" in="00:00:00.000" out="00:00:01.483">
  <property name="length">90</property>
  <property name="eof">pause</property>
  <property name="resource">/home/xiaoxiae/.cache/kdenlive/proxy/e892ef4a753fd8a9b3deb9f541ceed06.mov</property>
  <property name="audio_index">-1</property>
  <property name="video_index">0</property>
  <property name="mute_on_pause">0</property>
  <property name="mlt_service">avformat-novalidate</property>
  <property name="seekable">1</property>
  <property name="aspect_ratio">1</property>
  <property name="kdenlive:clipname">41.mp4</property>
  <property name="kdenlive:folderid">314</property>
  <property name="kdenlive:id">349</property>
  <property name="kdenlive:file_size">133274</property>
  <property name="kdenlive:proxy">/home/xiaoxiae/.cache/kdenlive/proxy/e892ef4a753fd8a9b3deb9f541ceed06.mov</property>
  <property name="kdenlive:originalurl">video/ProgrammingModel/vid/41.mp4</property>
  <property name="kdenlive:original.mlt_type">producer</property>
  <property name="kdenlive:original.in">0</property>
  <property name="kdenlive:original.out">89</property>
  <property name="kdenlive:original.length">90</property>
  <property name="kdenlive:original.eof">pause</property>
  <property name="kdenlive:original.resource">video/ProgrammingModel/vid/41.mp4</property>
  <property name="kdenlive:original.meta.media.nb_streams">1</property>
  <property name="kdenlive:original.meta.media.0.stream.type">video</property>
  <property name="kdenlive:original.meta.media.0.stream.frame_rate">60</property>
  <property name="kdenlive:original.meta.media.0.stream.sample_aspect_ratio">0</property>
  <property name="kdenlive:original.meta.media.0.codec.width">3840</property>
  <property name="kdenlive:original.meta.media.0.codec.height">2160</property>
  <property name="kdenlive:original.meta.media.0.codec.rotate">0</property>
  <property name="kdenlive:original.meta.media.0.codec.pix_fmt">yuv420p</property>
  <property name="kdenlive:original.meta.media.0.codec.sample_aspect_ratio">0</property>
  <property name="kdenlive:original.meta.media.0.codec.colorspace">709</property>
  <property name="kdenlive:original.meta.media.0.codec.name">h264</property>
  <property name="kdenlive:original.meta.media.0.codec.long_name">H.264 / AVC / MPEG-4 AVC / MPEG-4 part 10</property>
  <property name="kdenlive:original.meta.media.0.codec.bit_rate">700128</property>
  <property name="kdenlive:original.meta.attr.0.stream.handler_name.markup">VideoHandler</property>
  <property name="kdenlive:original.meta.attr.0.stream.vendor_id.markup">[0][0][0][0]</property>
  <property name="kdenlive:original.meta.attr.major_brand.markup">isom</property>
  <property name="kdenlive:original.meta.attr.minor_version.markup">512</property>
  <property name="kdenlive:original.meta.attr.compatible_brands.markup">isomiso2avc1mp41</property>
  <property name="kdenlive:original.meta.attr.encoder.markup">Lavf58.76.100</property>
  <property name="kdenlive:original.meta.attr.comment.markup">Rendered with Manim Community v0.12.0</property>
  <property name="kdenlive:original.seekable">1</property>
  <property name="kdenlive:original.width">3840</property>
  <property name="kdenlive:original.height">2160</property>
  <property name="kdenlive:original.meta.media.sample_aspect_num">1</property>
  <property name="kdenlive:original.meta.media.sample_aspect_den">1</property>
  <property name="kdenlive:original.aspect_ratio">1</property>
  <property name="kdenlive:original.audio_index">-1</property>
  <property name="kdenlive:original.video_index">0</property>
  <property name="kdenlive:original.mute_on_pause">0</property>
  <property name="kdenlive:original.mlt_service">avformat-novalidate</property>
  <property name="kdenlive:original.kdenlive:folderid">314</property>
  <property name="kdenlive:original.meta.media.frame_rate_num">60</property>
  <property name="kdenlive:original.meta.media.frame_rate_den">1</property>
  <property name="kdenlive:original.meta.media.colorspace">709</property>
  <property name="kdenlive:original.meta.media.color_trc">2</property>
  <property name="kdenlive:original.meta.media.has_b_frames">2</property>
  <property name="kdenlive:original.meta.media.width">3840</property>
  <property name="kdenlive:original.meta.media.height">2160</property>
  <property name="kdenlive:original.meta.media.color_range">mpeg</property>
  <property name="kdenlive:original.kdenlive:id">350</property>
  <property name="kdenlive:original.kdenlive:file_size">133274</property>
  <property name="kdenlive:original.kdenlive:file_hash">e892ef4a753fd8a9b3deb9f541ceed06</property>
  <property name="kdenlive:original.backup">1</property>
  <property name="kdenlive:file_hash">e892ef4a753fd8a9b3deb9f541ceed06</property>
  <property name="meta.media.nb_streams">1</property>
  <property name="meta.media.0.stream.type">video</property>
  <property name="meta.media.0.stream.frame_rate">60</property>
  <property name="meta.media.0.stream.sample_aspect_ratio">0</property>
  <property name="meta.media.0.codec.width">640</property>
  <property name="meta.media.0.codec.height">360</property>
  <property name="meta.media.0.codec.rotate">0</property>
  <property name="meta.media.0.codec.pix_fmt">yuv420p</property>
  <property name="meta.media.0.codec.sample_aspect_ratio">0</property>
  <property name="meta.media.0.codec.colorspace">601</property>
  <property name="meta.media.0.codec.name">h264</property>
  <property name="meta.media.0.codec.long_name">H.264 / AVC / MPEG-4 AVC / MPEG-4 part 10</property>
  <property name="meta.media.0.codec.bit_rate">3920906</property>
  <property name="meta.attr.0.stream.handler_name.markup">VideoHandler</property>
  <property name="meta.attr.0.stream.vendor_id.markup">FFMP</property>
  <property name="meta.attr.0.stream.encoder.markup">Lavc58.134.100 libx264</property>
  <property name="meta.attr.major_brand.markup">qt  </property>
  <property name="meta.attr.minor_version.markup">512</property>
  <property name="meta.attr.compatible_brands.markup">qt  </property>
  <property name="meta.attr.encoder.markup">Lavf58.76.100</property>
  <property name="meta.attr.comment.markup">Rendered with Manim Community v0.12.0</property>
  <property name="meta.media.sample_aspect_num">1</property>
  <property name="meta.media.sample_aspect_den">1</property>
  <property name="meta.media.frame_rate_num">60</property>
  <property name="meta.media.frame_rate_den">1</property>
  <property name="meta.media.colorspace">601</property>
  <property name="meta.media.color_trc">2</property>
  <property name="meta.media.has_b_frames">0</property>
  <property name="meta.media.width">640</property>
  <property name="meta.media.height">360</property>
  <property name="meta.media.color_range">mpeg</property>
 </producer>
 <producer id="producer321" in="00:00:00.000" out="00:00:00.550">
  <property name="length">34</property>
  <property name="eof">pause</property>
  <property name="resource">/home/xiaoxiae/.cache/kdenlive/proxy/3ff763eedaf4215f93ef65136188b0e6.mov</property>
  <property name="audio_index">-1</property>
  <property name="video_index">0</property>
  <property name="mute_on_pause">0</property>
  <property name="mlt_service">avformat-novalidate</property>
  <property name="seekable">1</property>
  <property name="aspect_ratio">1</property>
  <property name="kdenlive:clipname">42.mp4</property>
  <property name="kdenlive:folderid">314</property>
  <property name="kdenlive:id">350</property>
  <property name="kdenlive:file_size">137214</property>
  <property name="kdenlive:proxy">/home/xiaoxiae/.cache/kdenlive/proxy/3ff763eedaf4215f93ef65136188b0e6.mov</property>
  <property name="kdenlive:originalurl">video/ProgrammingModel/vid/42.mp4</property>
  <property name="kdenlive:original.mlt_type">producer</property>
  <property name="kdenlive:original.in">0</property>
  <property name="kdenlive:original.out">33</property>
  <property name="kdenlive:original.length">34</property>
  <property name="kdenlive:original.eof">pause</property>
  <property name="kdenlive:original.resource">video/ProgrammingModel/vid/42.mp4</property>
  <property name="kdenlive:original.meta.media.nb_streams">1</property>
  <property name="kdenlive:original.meta.media.0.stream.type">video</property>
  <property name="kdenlive:original.meta.media.0.stream.frame_rate">60</property>
  <property name="kdenlive:original.meta.media.0.stream.sample_aspect_ratio">0</property>
  <property name="kdenlive:original.meta.media.0.codec.width">3840</property>
  <property name="kdenlive:original.meta.media.0.codec.height">2160</property>
  <property name="kdenlive:original.meta.media.0.codec.rotate">0</property>
  <property name="kdenlive:original.meta.media.0.codec.pix_fmt">yuv420p</property>
  <property name="kdenlive:original.meta.media.0.codec.sample_aspect_ratio">0</property>
  <property name="kdenlive:original.meta.media.0.codec.colorspace">709</property>
  <property name="kdenlive:original.meta.media.0.codec.name">h264</property>
  <property name="kdenlive:original.meta.media.0.codec.long_name">H.264 / AVC / MPEG-4 AVC / MPEG-4 part 10</property>
  <property name="kdenlive:original.meta.media.0.codec.bit_rate">1919294</property>
  <property name="kdenlive:original.meta.attr.0.stream.handler_name.markup">VideoHandler</property>
  <property name="kdenlive:original.meta.attr.0.stream.vendor_id.markup">[0][0][0][0]</property>
  <property name="kdenlive:original.meta.attr.major_brand.markup">isom</property>
  <property name="kdenlive:original.meta.attr.minor_version.markup">512</property>
  <property name="kdenlive:original.meta.attr.compatible_brands.markup">isomiso2avc1mp41</property>
  <property name="kdenlive:original.meta.attr.encoder.markup">Lavf58.76.100</property>
  <property name="kdenlive:original.meta.attr.comment.markup">Rendered with Manim Community v0.12.0</property>
  <property name="kdenlive:original.seekable">1</property>
  <property name="kdenlive:original.width">3840</property>
  <property name="kdenlive:original.height">2160</property>
  <property name="kdenlive:original.meta.media.sample_aspect_num">1</property>
  <property name="kdenlive:original.meta.media.sample_aspect_den">1</property>
  <property name="kdenlive:original.aspect_ratio">1</property>
  <property name="kdenlive:original.audio_index">-1</property>
  <property name="kdenlive:original.video_index">0</property>
  <property name="kdenlive:original.mute_on_pause">0</property>
  <property name="kdenlive:original.mlt_service">avformat-novalidate</property>
  <property name="kdenlive:original.kdenlive:folderid">314</property>
  <property name="kdenlive:original.meta.media.frame_rate_num">60</property>
  <property name="kdenlive:original.meta.media.frame_rate_den">1</property>
  <property name="kdenlive:original.meta.media.colorspace">709</property>
  <property name="kdenlive:original.meta.media.color_trc">2</property>
  <property name="kdenlive:original.meta.media.has_b_frames">2</property>
  <property name="kdenlive:original.meta.media.width">3840</property>
  <property name="kdenlive:original.meta.media.height">2160</property>
  <property name="kdenlive:original.meta.media.color_range">mpeg</property>
  <property name="kdenlive:original.kdenlive:id">351</property>
  <property name="kdenlive:original.kdenlive:file_size">137214</property>
  <property name="kdenlive:original.kdenlive:file_hash">3ff763eedaf4215f93ef65136188b0e6</property>
  <property name="kdenlive:original.backup">1</property>
  <property name="kdenlive:file_hash">3ff763eedaf4215f93ef65136188b0e6</property>
  <property name="meta.media.nb_streams">1</property>
  <property name="meta.media.0.stream.type">video</property>
  <property name="meta.media.0.stream.frame_rate">60</property>
  <property name="meta.media.0.stream.sample_aspect_ratio">0</property>
  <property name="meta.media.0.codec.width">640</property>
  <property name="meta.media.0.codec.height">360</property>
  <property name="meta.media.0.codec.rotate">0</property>
  <property name="meta.media.0.codec.pix_fmt">yuv420p</property>
  <property name="meta.media.0.codec.sample_aspect_ratio">0</property>
  <property name="meta.media.0.codec.colorspace">601</property>
  <property name="meta.media.0.codec.name">h264</property>
  <property name="meta.media.0.codec.long_name">H.264 / AVC / MPEG-4 AVC / MPEG-4 part 10</property>
  <property name="meta.media.0.codec.bit_rate">4089769</property>
  <property name="meta.attr.0.stream.handler_name.markup">VideoHandler</property>
  <property name="meta.attr.0.stream.vendor_id.markup">FFMP</property>
  <property name="meta.attr.0.stream.encoder.markup">Lavc58.134.100 libx264</property>
  <property name="meta.attr.major_brand.markup">qt  </property>
  <property name="meta.attr.minor_version.markup">512</property>
  <property name="meta.attr.compatible_brands.markup">qt  </property>
  <property name="meta.attr.encoder.markup">Lavf58.76.100</property>
  <property name="meta.attr.comment.markup">Rendered with Manim Community v0.12.0</property>
  <property name="meta.media.sample_aspect_num">1</property>
  <property name="meta.media.sample_aspect_den">1</property>
  <property name="meta.media.frame_rate_num">60</property>
  <property name="meta.media.frame_rate_den">1</property>
  <property name="meta.media.colorspace">601</property>
  <property name="meta.media.color_trc">2</property>
  <property name="meta.media.has_b_frames">0</property>
  <property name="meta.media.width">640</property>
  <property name="meta.media.height">360</property>
  <property name="meta.media.color_range">mpeg</property>
 </producer>
 <producer id="producer322" in="00:00:00.000" out="00:00:01.483">
  <property name="length">90</property>
  <property name="eof">pause</property>
  <property name="resource">/home/xiaoxiae/.cache/kdenlive/proxy/3506f136abc96b7117a8f76e0d0370f1.mov</property>
  <property name="audio_index">-1</property>
  <property name="video_index">0</property>
  <property name="mute_on_pause">0</property>
  <property name="mlt_service">avformat-novalidate</property>
  <property name="seekable">1</property>
  <property name="aspect_ratio">1</property>
  <property name="kdenlive:clipname">43.mp4</property>
  <property name="kdenlive:folderid">314</property>
  <property name="kdenlive:id">351</property>
  <property name="kdenlive:file_size">135481</property>
  <property name="kdenlive:proxy">/home/xiaoxiae/.cache/kdenlive/proxy/3506f136abc96b7117a8f76e0d0370f1.mov</property>
  <property name="kdenlive:originalurl">video/ProgrammingModel/vid/43.mp4</property>
  <property name="kdenlive:original.mlt_type">producer</property>
  <property name="kdenlive:original.in">0</property>
  <property name="kdenlive:original.out">89</property>
  <property name="kdenlive:original.length">90</property>
  <property name="kdenlive:original.eof">pause</property>
  <property name="kdenlive:original.resource">video/ProgrammingModel/vid/43.mp4</property>
  <property name="kdenlive:original.meta.media.nb_streams">1</property>
  <property name="kdenlive:original.meta.media.0.stream.type">video</property>
  <property name="kdenlive:original.meta.media.0.stream.frame_rate">60</property>
  <property name="kdenlive:original.meta.media.0.stream.sample_aspect_ratio">0</property>
  <property name="kdenlive:original.meta.media.0.codec.width">3840</property>
  <property name="kdenlive:original.meta.media.0.codec.height">2160</property>
  <property name="kdenlive:original.meta.media.0.codec.rotate">0</property>
  <property name="kdenlive:original.meta.media.0.codec.pix_fmt">yuv420p</property>
  <property name="kdenlive:original.meta.media.0.codec.sample_aspect_ratio">0</property>
  <property name="kdenlive:original.meta.media.0.codec.colorspace">709</property>
  <property name="kdenlive:original.meta.media.0.codec.name">h264</property>
  <property name="kdenlive:original.meta.media.0.codec.long_name">H.264 / AVC / MPEG-4 AVC / MPEG-4 part 10</property>
  <property name="kdenlive:original.meta.media.0.codec.bit_rate">711898</property>
  <property name="kdenlive:original.meta.attr.0.stream.handler_name.markup">VideoHandler</property>
  <property name="kdenlive:original.meta.attr.0.stream.vendor_id.markup">[0][0][0][0]</property>
  <property name="kdenlive:original.meta.attr.major_brand.markup">isom</property>
  <property name="kdenlive:original.meta.attr.minor_version.markup">512</property>
  <property name="kdenlive:original.meta.attr.compatible_brands.markup">isomiso2avc1mp41</property>
  <property name="kdenlive:original.meta.attr.encoder.markup">Lavf58.76.100</property>
  <property name="kdenlive:original.meta.attr.comment.markup">Rendered with Manim Community v0.12.0</property>
  <property name="kdenlive:original.seekable">1</property>
  <property name="kdenlive:original.width">3840</property>
  <property name="kdenlive:original.height">2160</property>
  <property name="kdenlive:original.meta.media.sample_aspect_num">1</property>
  <property name="kdenlive:original.meta.media.sample_aspect_den">1</property>
  <property name="kdenlive:original.aspect_ratio">1</property>
  <property name="kdenlive:original.audio_index">-1</property>
  <property name="kdenlive:original.video_index">0</property>
  <property name="kdenlive:original.mute_on_pause">0</property>
  <property name="kdenlive:original.mlt_service">avformat-novalidate</property>
  <property name="kdenlive:original.kdenlive:folderid">314</property>
  <property name="kdenlive:original.meta.media.frame_rate_num">60</property>
  <property name="kdenlive:original.meta.media.frame_rate_den">1</property>
  <property name="kdenlive:original.meta.media.colorspace">709</property>
  <property name="kdenlive:original.meta.media.color_trc">2</property>
  <property name="kdenlive:original.meta.media.has_b_frames">2</property>
  <property name="kdenlive:original.meta.media.width">3840</property>
  <property name="kdenlive:original.meta.media.height">2160</property>
  <property name="kdenlive:original.meta.media.color_range">mpeg</property>
  <property name="kdenlive:original.kdenlive:id">352</property>
  <property name="kdenlive:original.kdenlive:file_size">135481</property>
  <property name="kdenlive:original.kdenlive:file_hash">3506f136abc96b7117a8f76e0d0370f1</property>
  <property name="kdenlive:original.backup">1</property>
  <property name="kdenlive:file_hash">3506f136abc96b7117a8f76e0d0370f1</property>
  <property name="meta.media.nb_streams">1</property>
  <property name="meta.media.0.stream.type">video</property>
  <property name="meta.media.0.stream.frame_rate">60</property>
  <property name="meta.media.0.stream.sample_aspect_ratio">0</property>
  <property name="meta.media.0.codec.width">640</property>
  <property name="meta.media.0.codec.height">360</property>
  <property name="meta.media.0.codec.rotate">0</property>
  <property name="meta.media.0.codec.pix_fmt">yuv420p</property>
  <property name="meta.media.0.codec.sample_aspect_ratio">0</property>
  <property name="meta.media.0.codec.colorspace">601</property>
  <property name="meta.media.0.codec.name">h264</property>
  <property name="meta.media.0.codec.long_name">H.264 / AVC / MPEG-4 AVC / MPEG-4 part 10</property>
  <property name="meta.media.0.codec.bit_rate">4008741</property>
  <property name="meta.attr.0.stream.handler_name.markup">VideoHandler</property>
  <property name="meta.attr.0.stream.vendor_id.markup">FFMP</property>
  <property name="meta.attr.0.stream.encoder.markup">Lavc58.134.100 libx264</property>
  <property name="meta.attr.major_brand.markup">qt  </property>
  <property name="meta.attr.minor_version.markup">512</property>
  <property name="meta.attr.compatible_brands.markup">qt  </property>
  <property name="meta.attr.encoder.markup">Lavf58.76.100</property>
  <property name="meta.attr.comment.markup">Rendered with Manim Community v0.12.0</property>
  <property name="meta.media.sample_aspect_num">1</property>
  <property name="meta.media.sample_aspect_den">1</property>
  <property name="meta.media.frame_rate_num">60</property>
  <property name="meta.media.frame_rate_den">1</property>
  <property name="meta.media.colorspace">601</property>
  <property name="meta.media.color_trc">2</property>
  <property name="meta.media.has_b_frames">0</property>
  <property name="meta.media.width">640</property>
  <property name="meta.media.height">360</property>
  <property name="meta.media.color_range">mpeg</property>
 </producer>
 <producer id="producer323" in="00:00:00.000" out="00:00:00.983">
  <property name="length">60</property>
  <property name="eof">pause</property>
  <property name="resource">/home/xiaoxiae/.cache/kdenlive/proxy/2668b489e3cd369cfbc3d287a83d2e2c.mov</property>
  <property name="audio_index">-1</property>
  <property name="video_index">0</property>
  <property name="mute_on_pause">0</property>
  <property name="mlt_service">avformat-novalidate</property>
  <property name="seekable">1</property>
  <property name="aspect_ratio">1</property>
  <property name="kdenlive:clipname">44.mp4</property>
  <property name="kdenlive:folderid">314</property>
  <property name="kdenlive:file_size">126220</property>
  <property name="kdenlive:id">352</property>
  <property name="kdenlive:proxy">/home/xiaoxiae/.cache/kdenlive/proxy/2668b489e3cd369cfbc3d287a83d2e2c.mov</property>
  <property name="kdenlive:originalurl">video/ProgrammingModel/vid/44.mp4</property>
  <property name="kdenlive:original.mlt_type">producer</property>
  <property name="kdenlive:original.in">0</property>
  <property name="kdenlive:original.out">59</property>
  <property name="kdenlive:original.length">60</property>
  <property name="kdenlive:original.eof">pause</property>
  <property name="kdenlive:original.resource">video/ProgrammingModel/vid/44.mp4</property>
  <property name="kdenlive:original.meta.media.nb_streams">1</property>
  <property name="kdenlive:original.meta.media.0.stream.type">video</property>
  <property name="kdenlive:original.meta.media.0.stream.frame_rate">60</property>
  <property name="kdenlive:original.meta.media.0.stream.sample_aspect_ratio">0</property>
  <property name="kdenlive:original.meta.media.0.codec.width">3840</property>
  <property name="kdenlive:original.meta.media.0.codec.height">2160</property>
  <property name="kdenlive:original.meta.media.0.codec.rotate">0</property>
  <property name="kdenlive:original.meta.media.0.codec.pix_fmt">yuv420p</property>
  <property name="kdenlive:original.meta.media.0.codec.sample_aspect_ratio">0</property>
  <property name="kdenlive:original.meta.media.0.codec.colorspace">709</property>
  <property name="kdenlive:original.meta.media.0.codec.name">h264</property>
  <property name="kdenlive:original.meta.media.0.codec.long_name">H.264 / AVC / MPEG-4 AVC / MPEG-4 part 10</property>
  <property name="kdenlive:original.meta.media.0.codec.bit_rate">996704</property>
  <property name="kdenlive:original.meta.attr.0.stream.handler_name.markup">VideoHandler</property>
  <property name="kdenlive:original.meta.attr.0.stream.vendor_id.markup">[0][0][0][0]</property>
  <property name="kdenlive:original.meta.attr.major_brand.markup">isom</property>
  <property name="kdenlive:original.meta.attr.minor_version.markup">512</property>
  <property name="kdenlive:original.meta.attr.compatible_brands.markup">isomiso2avc1mp41</property>
  <property name="kdenlive:original.meta.attr.encoder.markup">Lavf58.76.100</property>
  <property name="kdenlive:original.meta.attr.comment.markup">Rendered with Manim Community v0.12.0</property>
  <property name="kdenlive:original.seekable">1</property>
  <property name="kdenlive:original.width">3840</property>
  <property name="kdenlive:original.height">2160</property>
  <property name="kdenlive:original.meta.media.sample_aspect_num">1</property>
  <property name="kdenlive:original.meta.media.sample_aspect_den">1</property>
  <property name="kdenlive:original.aspect_ratio">1</property>
  <property name="kdenlive:original.audio_index">-1</property>
  <property name="kdenlive:original.video_index">0</property>
  <property name="kdenlive:original.mute_on_pause">0</property>
  <property name="kdenlive:original.mlt_service">avformat-novalidate</property>
  <property name="kdenlive:original.kdenlive:folderid">314</property>
  <property name="kdenlive:original.kdenlive:file_size">126220</property>
  <property name="kdenlive:original.meta.media.frame_rate_num">60</property>
  <property name="kdenlive:original.meta.media.frame_rate_den">1</property>
  <property name="kdenlive:original.meta.media.colorspace">709</property>
  <property name="kdenlive:original.meta.media.color_trc">2</property>
  <property name="kdenlive:original.meta.media.has_b_frames">2</property>
  <property name="kdenlive:original.meta.media.width">3840</property>
  <property name="kdenlive:original.meta.media.height">2160</property>
  <property name="kdenlive:original.meta.media.color_range">mpeg</property>
  <property name="kdenlive:original.kdenlive:id">353</property>
  <property name="kdenlive:original.kdenlive:file_hash">2668b489e3cd369cfbc3d287a83d2e2c</property>
  <property name="kdenlive:original.backup">1</property>
  <property name="kdenlive:file_hash">2668b489e3cd369cfbc3d287a83d2e2c</property>
  <property name="meta.media.nb_streams">1</property>
  <property name="meta.media.0.stream.type">video</property>
  <property name="meta.media.0.stream.frame_rate">60</property>
  <property name="meta.media.0.stream.sample_aspect_ratio">0</property>
  <property name="meta.media.0.codec.width">640</property>
  <property name="meta.media.0.codec.height">360</property>
  <property name="meta.media.0.codec.rotate">0</property>
  <property name="meta.media.0.codec.pix_fmt">yuv420p</property>
  <property name="meta.media.0.codec.sample_aspect_ratio">0</property>
  <property name="meta.media.0.codec.colorspace">601</property>
  <property name="meta.media.0.codec.name">h264</property>
  <property name="meta.media.0.codec.long_name">H.264 / AVC / MPEG-4 AVC / MPEG-4 part 10</property>
  <property name="meta.media.0.codec.bit_rate">4122912</property>
  <property name="meta.attr.0.stream.handler_name.markup">VideoHandler</property>
  <property name="meta.attr.0.stream.vendor_id.markup">FFMP</property>
  <property name="meta.attr.0.stream.encoder.markup">Lavc58.134.100 libx264</property>
  <property name="meta.attr.major_brand.markup">qt  </property>
  <property name="meta.attr.minor_version.markup">512</property>
  <property name="meta.attr.compatible_brands.markup">qt  </property>
  <property name="meta.attr.encoder.markup">Lavf58.76.100</property>
  <property name="meta.attr.comment.markup">Rendered with Manim Community v0.12.0</property>
  <property name="meta.media.sample_aspect_num">1</property>
  <property name="meta.media.sample_aspect_den">1</property>
  <property name="meta.media.frame_rate_num">60</property>
  <property name="meta.media.frame_rate_den">1</property>
  <property name="meta.media.colorspace">601</property>
  <property name="meta.media.color_trc">2</property>
  <property name="meta.media.has_b_frames">0</property>
  <property name="meta.media.width">640</property>
  <property name="meta.media.height">360</property>
  <property name="meta.media.color_range">mpeg</property>
 </producer>
 <producer id="producer324" in="00:00:00.000" out="00:00:02.083">
  <property name="length">126</property>
  <property name="eof">pause</property>
  <property name="resource">/home/xiaoxiae/.cache/kdenlive/proxy/c7073013ff19fb3e82ae32d2791a5aec.mov</property>
  <property name="audio_index">-1</property>
  <property name="video_index">0</property>
  <property name="mute_on_pause">0</property>
  <property name="mlt_service">avformat-novalidate</property>
  <property name="seekable">1</property>
  <property name="aspect_ratio">1</property>
  <property name="kdenlive:clipname">45.mp4</property>
  <property name="kdenlive:folderid">314</property>
  <property name="kdenlive:id">353</property>
  <property name="kdenlive:file_size">160207</property>
  <property name="kdenlive:proxy">/home/xiaoxiae/.cache/kdenlive/proxy/c7073013ff19fb3e82ae32d2791a5aec.mov</property>
  <property name="kdenlive:originalurl">video/ProgrammingModel/vid/45.mp4</property>
  <property name="kdenlive:original.mlt_type">producer</property>
  <property name="kdenlive:original.in">0</property>
  <property name="kdenlive:original.out">125</property>
  <property name="kdenlive:original.length">126</property>
  <property name="kdenlive:original.eof">pause</property>
  <property name="kdenlive:original.resource">video/ProgrammingModel/vid/45.mp4</property>
  <property name="kdenlive:original.meta.media.nb_streams">1</property>
  <property name="kdenlive:original.meta.media.0.stream.type">video</property>
  <property name="kdenlive:original.meta.media.0.stream.frame_rate">60</property>
  <property name="kdenlive:original.meta.media.0.stream.sample_aspect_ratio">0</property>
  <property name="kdenlive:original.meta.media.0.codec.width">3840</property>
  <property name="kdenlive:original.meta.media.0.codec.height">2160</property>
  <property name="kdenlive:original.meta.media.0.codec.rotate">0</property>
  <property name="kdenlive:original.meta.media.0.codec.pix_fmt">yuv420p</property>
  <property name="kdenlive:original.meta.media.0.codec.sample_aspect_ratio">0</property>
  <property name="kdenlive:original.meta.media.0.codec.colorspace">709</property>
  <property name="kdenlive:original.meta.media.0.codec.name">h264</property>
  <property name="kdenlive:original.meta.media.0.codec.long_name">H.264 / AVC / MPEG-4 AVC / MPEG-4 part 10</property>
  <property name="kdenlive:original.meta.media.0.codec.bit_rate">601047</property>
  <property name="kdenlive:original.meta.attr.0.stream.handler_name.markup">VideoHandler</property>
  <property name="kdenlive:original.meta.attr.0.stream.vendor_id.markup">[0][0][0][0]</property>
  <property name="kdenlive:original.meta.attr.major_brand.markup">isom</property>
  <property name="kdenlive:original.meta.attr.minor_version.markup">512</property>
  <property name="kdenlive:original.meta.attr.compatible_brands.markup">isomiso2avc1mp41</property>
  <property name="kdenlive:original.meta.attr.encoder.markup">Lavf58.76.100</property>
  <property name="kdenlive:original.meta.attr.comment.markup">Rendered with Manim Community v0.12.0</property>
  <property name="kdenlive:original.seekable">1</property>
  <property name="kdenlive:original.width">3840</property>
  <property name="kdenlive:original.height">2160</property>
  <property name="kdenlive:original.meta.media.sample_aspect_num">1</property>
  <property name="kdenlive:original.meta.media.sample_aspect_den">1</property>
  <property name="kdenlive:original.aspect_ratio">1</property>
  <property name="kdenlive:original.audio_index">-1</property>
  <property name="kdenlive:original.video_index">0</property>
  <property name="kdenlive:original.mute_on_pause">0</property>
  <property name="kdenlive:original.mlt_service">avformat-novalidate</property>
  <property name="kdenlive:original.kdenlive:folderid">314</property>
  <property name="kdenlive:original.meta.media.frame_rate_num">60</property>
  <property name="kdenlive:original.meta.media.frame_rate_den">1</property>
  <property name="kdenlive:original.meta.media.colorspace">709</property>
  <property name="kdenlive:original.meta.media.color_trc">2</property>
  <property name="kdenlive:original.meta.media.has_b_frames">2</property>
  <property name="kdenlive:original.meta.media.width">3840</property>
  <property name="kdenlive:original.meta.media.height">2160</property>
  <property name="kdenlive:original.meta.media.color_range">mpeg</property>
  <property name="kdenlive:original.kdenlive:id">354</property>
  <property name="kdenlive:original.kdenlive:file_size">160207</property>
  <property name="kdenlive:original.kdenlive:file_hash">c7073013ff19fb3e82ae32d2791a5aec</property>
  <property name="kdenlive:original.backup">1</property>
  <property name="kdenlive:file_hash">c7073013ff19fb3e82ae32d2791a5aec</property>
  <property name="meta.media.nb_streams">1</property>
  <property name="meta.media.0.stream.type">video</property>
  <property name="meta.media.0.stream.frame_rate">60</property>
  <property name="meta.media.0.stream.sample_aspect_ratio">0</property>
  <property name="meta.media.0.codec.width">640</property>
  <property name="meta.media.0.codec.height">360</property>
  <property name="meta.media.0.codec.rotate">0</property>
  <property name="meta.media.0.codec.pix_fmt">yuv420p</property>
  <property name="meta.media.0.codec.sample_aspect_ratio">0</property>
  <property name="meta.media.0.codec.colorspace">601</property>
  <property name="meta.media.0.codec.name">h264</property>
  <property name="meta.media.0.codec.long_name">H.264 / AVC / MPEG-4 AVC / MPEG-4 part 10</property>
  <property name="meta.media.0.codec.bit_rate">3996689</property>
  <property name="meta.attr.0.stream.handler_name.markup">VideoHandler</property>
  <property name="meta.attr.0.stream.vendor_id.markup">FFMP</property>
  <property name="meta.attr.0.stream.encoder.markup">Lavc58.134.100 libx264</property>
  <property name="meta.attr.major_brand.markup">qt  </property>
  <property name="meta.attr.minor_version.markup">512</property>
  <property name="meta.attr.compatible_brands.markup">qt  </property>
  <property name="meta.attr.encoder.markup">Lavf58.76.100</property>
  <property name="meta.attr.comment.markup">Rendered with Manim Community v0.12.0</property>
  <property name="meta.media.sample_aspect_num">1</property>
  <property name="meta.media.sample_aspect_den">1</property>
  <property name="meta.media.frame_rate_num">60</property>
  <property name="meta.media.frame_rate_den">1</property>
  <property name="meta.media.colorspace">601</property>
  <property name="meta.media.color_trc">2</property>
  <property name="meta.media.has_b_frames">0</property>
  <property name="meta.media.width">640</property>
  <property name="meta.media.height">360</property>
  <property name="meta.media.color_range">mpeg</property>
 </producer>
 <producer id="producer325" in="00:00:00.000" out="00:00:00.983">
  <property name="length">60</property>
  <property name="eof">pause</property>
  <property name="resource">/home/xiaoxiae/.cache/kdenlive/proxy/72d7ef85eebd7b7fb713124b5dbab8b5.mov</property>
  <property name="audio_index">-1</property>
  <property name="video_index">0</property>
  <property name="mute_on_pause">0</property>
  <property name="mlt_service">avformat-novalidate</property>
  <property name="seekable">1</property>
  <property name="aspect_ratio">1</property>
  <property name="kdenlive:clipname">46.mp4</property>
  <property name="kdenlive:folderid">314</property>
  <property name="kdenlive:id">354</property>
  <property name="kdenlive:file_size">402331</property>
  <property name="kdenlive:proxy">/home/xiaoxiae/.cache/kdenlive/proxy/72d7ef85eebd7b7fb713124b5dbab8b5.mov</property>
  <property name="kdenlive:originalurl">video/ProgrammingModel/vid/46.mp4</property>
  <property name="kdenlive:original.mlt_type">producer</property>
  <property name="kdenlive:original.in">0</property>
  <property name="kdenlive:original.out">59</property>
  <property name="kdenlive:original.length">60</property>
  <property name="kdenlive:original.eof">pause</property>
  <property name="kdenlive:original.resource">video/ProgrammingModel/vid/46.mp4</property>
  <property name="kdenlive:original.meta.media.nb_streams">1</property>
  <property name="kdenlive:original.meta.media.0.stream.type">video</property>
  <property name="kdenlive:original.meta.media.0.stream.frame_rate">60</property>
  <property name="kdenlive:original.meta.media.0.stream.sample_aspect_ratio">0</property>
  <property name="kdenlive:original.meta.media.0.codec.width">3840</property>
  <property name="kdenlive:original.meta.media.0.codec.height">2160</property>
  <property name="kdenlive:original.meta.media.0.codec.rotate">0</property>
  <property name="kdenlive:original.meta.media.0.codec.pix_fmt">yuv420p</property>
  <property name="kdenlive:original.meta.media.0.codec.sample_aspect_ratio">0</property>
  <property name="kdenlive:original.meta.media.0.codec.colorspace">709</property>
  <property name="kdenlive:original.meta.media.0.codec.name">h264</property>
  <property name="kdenlive:original.meta.media.0.codec.long_name">H.264 / AVC / MPEG-4 AVC / MPEG-4 part 10</property>
  <property name="kdenlive:original.meta.media.0.codec.bit_rate">3205784</property>
  <property name="kdenlive:original.meta.attr.0.stream.handler_name.markup">VideoHandler</property>
  <property name="kdenlive:original.meta.attr.0.stream.vendor_id.markup">[0][0][0][0]</property>
  <property name="kdenlive:original.meta.attr.major_brand.markup">isom</property>
  <property name="kdenlive:original.meta.attr.minor_version.markup">512</property>
  <property name="kdenlive:original.meta.attr.compatible_brands.markup">isomiso2avc1mp41</property>
  <property name="kdenlive:original.meta.attr.encoder.markup">Lavf58.76.100</property>
  <property name="kdenlive:original.meta.attr.comment.markup">Rendered with Manim Community v0.12.0</property>
  <property name="kdenlive:original.seekable">1</property>
  <property name="kdenlive:original.width">3840</property>
  <property name="kdenlive:original.height">2160</property>
  <property name="kdenlive:original.meta.media.sample_aspect_num">1</property>
  <property name="kdenlive:original.meta.media.sample_aspect_den">1</property>
  <property name="kdenlive:original.aspect_ratio">1</property>
  <property name="kdenlive:original.audio_index">-1</property>
  <property name="kdenlive:original.video_index">0</property>
  <property name="kdenlive:original.mute_on_pause">0</property>
  <property name="kdenlive:original.mlt_service">avformat-novalidate</property>
  <property name="kdenlive:original.kdenlive:folderid">314</property>
  <property name="kdenlive:original.meta.media.frame_rate_num">60</property>
  <property name="kdenlive:original.meta.media.frame_rate_den">1</property>
  <property name="kdenlive:original.meta.media.colorspace">709</property>
  <property name="kdenlive:original.meta.media.color_trc">2</property>
  <property name="kdenlive:original.meta.media.has_b_frames">2</property>
  <property name="kdenlive:original.meta.media.width">3840</property>
  <property name="kdenlive:original.meta.media.height">2160</property>
  <property name="kdenlive:original.meta.media.color_range">mpeg</property>
  <property name="kdenlive:original.kdenlive:id">355</property>
  <property name="kdenlive:original.kdenlive:file_size">402331</property>
  <property name="kdenlive:original.kdenlive:file_hash">72d7ef85eebd7b7fb713124b5dbab8b5</property>
  <property name="kdenlive:original.backup">1</property>
  <property name="kdenlive:file_hash">72d7ef85eebd7b7fb713124b5dbab8b5</property>
  <property name="meta.media.nb_streams">1</property>
  <property name="meta.media.0.stream.type">video</property>
  <property name="meta.media.0.stream.frame_rate">60</property>
  <property name="meta.media.0.stream.sample_aspect_ratio">0</property>
  <property name="meta.media.0.codec.width">640</property>
  <property name="meta.media.0.codec.height">360</property>
  <property name="meta.media.0.codec.rotate">0</property>
  <property name="meta.media.0.codec.pix_fmt">yuv420p</property>
  <property name="meta.media.0.codec.sample_aspect_ratio">0</property>
  <property name="meta.media.0.codec.colorspace">601</property>
  <property name="meta.media.0.codec.name">h264</property>
  <property name="meta.media.0.codec.long_name">H.264 / AVC / MPEG-4 AVC / MPEG-4 part 10</property>
  <property name="meta.media.0.codec.bit_rate">2922792</property>
  <property name="meta.attr.0.stream.handler_name.markup">VideoHandler</property>
  <property name="meta.attr.0.stream.vendor_id.markup">FFMP</property>
  <property name="meta.attr.0.stream.encoder.markup">Lavc58.134.100 libx264</property>
  <property name="meta.attr.major_brand.markup">qt  </property>
  <property name="meta.attr.minor_version.markup">512</property>
  <property name="meta.attr.compatible_brands.markup">qt  </property>
  <property name="meta.attr.encoder.markup">Lavf58.76.100</property>
  <property name="meta.attr.comment.markup">Rendered with Manim Community v0.12.0</property>
  <property name="meta.media.sample_aspect_num">1</property>
  <property name="meta.media.sample_aspect_den">1</property>
  <property name="meta.media.frame_rate_num">60</property>
  <property name="meta.media.frame_rate_den">1</property>
  <property name="meta.media.colorspace">601</property>
  <property name="meta.media.color_trc">2</property>
  <property name="meta.media.has_b_frames">0</property>
  <property name="meta.media.width">640</property>
  <property name="meta.media.height">360</property>
  <property name="meta.media.color_range">mpeg</property>
 </producer>
 <producer id="producer326" in="00:00:00.000" out="00:00:00.983">
  <property name="length">60</property>
  <property name="eof">pause</property>
  <property name="resource">/home/xiaoxiae/.cache/kdenlive/proxy/67cc7770f58545142098a7b1be47d5c2.mov</property>
  <property name="audio_index">-1</property>
  <property name="video_index">0</property>
  <property name="mute_on_pause">0</property>
  <property name="mlt_service">avformat-novalidate</property>
  <property name="seekable">1</property>
  <property name="aspect_ratio">1</property>
  <property name="kdenlive:clipname">47.mp4</property>
  <property name="kdenlive:folderid">314</property>
  <property name="kdenlive:id">355</property>
  <property name="kdenlive:file_size">17961</property>
  <property name="kdenlive:proxy">/home/xiaoxiae/.cache/kdenlive/proxy/67cc7770f58545142098a7b1be47d5c2.mov</property>
  <property name="kdenlive:originalurl">video/ProgrammingModel/vid/47.mp4</property>
  <property name="kdenlive:original.mlt_type">producer</property>
  <property name="kdenlive:original.in">0</property>
  <property name="kdenlive:original.out">59</property>
  <property name="kdenlive:original.length">60</property>
  <property name="kdenlive:original.eof">pause</property>
  <property name="kdenlive:original.resource">video/ProgrammingModel/vid/47.mp4</property>
  <property name="kdenlive:original.meta.media.nb_streams">1</property>
  <property name="kdenlive:original.meta.media.0.stream.type">video</property>
  <property name="kdenlive:original.meta.media.0.stream.frame_rate">60</property>
  <property name="kdenlive:original.meta.media.0.stream.sample_aspect_ratio">0</property>
  <property name="kdenlive:original.meta.media.0.codec.width">3840</property>
  <property name="kdenlive:original.meta.media.0.codec.height">2160</property>
  <property name="kdenlive:original.meta.media.0.codec.rotate">0</property>
  <property name="kdenlive:original.meta.media.0.codec.pix_fmt">yuv420p</property>
  <property name="kdenlive:original.meta.media.0.codec.sample_aspect_ratio">0</property>
  <property name="kdenlive:original.meta.media.0.codec.colorspace">709</property>
  <property name="kdenlive:original.meta.media.0.codec.name">h264</property>
  <property name="kdenlive:original.meta.media.0.codec.long_name">H.264 / AVC / MPEG-4 AVC / MPEG-4 part 10</property>
  <property name="kdenlive:original.meta.media.0.codec.bit_rate">130632</property>
  <property name="kdenlive:original.meta.attr.0.stream.handler_name.markup">VideoHandler</property>
  <property name="kdenlive:original.meta.attr.0.stream.vendor_id.markup">[0][0][0][0]</property>
  <property name="kdenlive:original.meta.attr.major_brand.markup">isom</property>
  <property name="kdenlive:original.meta.attr.minor_version.markup">512</property>
  <property name="kdenlive:original.meta.attr.compatible_brands.markup">isomiso2avc1mp41</property>
  <property name="kdenlive:original.meta.attr.encoder.markup">Lavf58.76.100</property>
  <property name="kdenlive:original.meta.attr.comment.markup">Rendered with Manim Community v0.12.0</property>
  <property name="kdenlive:original.seekable">1</property>
  <property name="kdenlive:original.width">3840</property>
  <property name="kdenlive:original.height">2160</property>
  <property name="kdenlive:original.meta.media.sample_aspect_num">1</property>
  <property name="kdenlive:original.meta.media.sample_aspect_den">1</property>
  <property name="kdenlive:original.aspect_ratio">1</property>
  <property name="kdenlive:original.audio_index">-1</property>
  <property name="kdenlive:original.video_index">0</property>
  <property name="kdenlive:original.mute_on_pause">0</property>
  <property name="kdenlive:original.mlt_service">avformat-novalidate</property>
  <property name="kdenlive:original.kdenlive:folderid">314</property>
  <property name="kdenlive:original.meta.media.frame_rate_num">60</property>
  <property name="kdenlive:original.meta.media.frame_rate_den">1</property>
  <property name="kdenlive:original.meta.media.colorspace">709</property>
  <property name="kdenlive:original.meta.media.color_trc">2</property>
  <property name="kdenlive:original.meta.media.has_b_frames">2</property>
  <property name="kdenlive:original.meta.media.width">3840</property>
  <property name="kdenlive:original.meta.media.height">2160</property>
  <property name="kdenlive:original.meta.media.color_range">mpeg</property>
  <property name="kdenlive:original.kdenlive:id">356</property>
  <property name="kdenlive:original.kdenlive:file_size">17961</property>
  <property name="kdenlive:original.kdenlive:file_hash">67cc7770f58545142098a7b1be47d5c2</property>
  <property name="kdenlive:original.backup">1</property>
  <property name="kdenlive:file_hash">67cc7770f58545142098a7b1be47d5c2</property>
  <property name="meta.media.nb_streams">1</property>
  <property name="meta.media.0.stream.type">video</property>
  <property name="meta.media.0.stream.frame_rate">60</property>
  <property name="meta.media.0.stream.sample_aspect_ratio">0</property>
  <property name="meta.media.0.codec.width">640</property>
  <property name="meta.media.0.codec.height">360</property>
  <property name="meta.media.0.codec.rotate">0</property>
  <property name="meta.media.0.codec.pix_fmt">yuv420p</property>
  <property name="meta.media.0.codec.sample_aspect_ratio">0</property>
  <property name="meta.media.0.codec.colorspace">601</property>
  <property name="meta.media.0.codec.name">h264</property>
  <property name="meta.media.0.codec.long_name">H.264 / AVC / MPEG-4 AVC / MPEG-4 part 10</property>
  <property name="meta.media.0.codec.bit_rate">52560</property>
  <property name="meta.attr.0.stream.handler_name.markup">VideoHandler</property>
  <property name="meta.attr.0.stream.vendor_id.markup">FFMP</property>
  <property name="meta.attr.0.stream.encoder.markup">Lavc58.134.100 libx264</property>
  <property name="meta.attr.major_brand.markup">qt  </property>
  <property name="meta.attr.minor_version.markup">512</property>
  <property name="meta.attr.compatible_brands.markup">qt  </property>
  <property name="meta.attr.encoder.markup">Lavf58.76.100</property>
  <property name="meta.attr.comment.markup">Rendered with Manim Community v0.12.0</property>
  <property name="meta.media.sample_aspect_num">1</property>
  <property name="meta.media.sample_aspect_den">1</property>
  <property name="meta.media.frame_rate_num">60</property>
  <property name="meta.media.frame_rate_den">1</property>
  <property name="meta.media.colorspace">601</property>
  <property name="meta.media.color_trc">2</property>
  <property name="meta.media.has_b_frames">0</property>
  <property name="meta.media.width">640</property>
  <property name="meta.media.height">360</property>
  <property name="meta.media.color_range">mpeg</property>
 </producer>
 <producer id="producer327" in="00:00:00.000" out="00:00:02.083">
  <property name="length">126</property>
  <property name="eof">pause</property>
  <property name="resource">/home/xiaoxiae/.cache/kdenlive/proxy/c8e19bd13c6ec3ad13c2a471538ee7d6.mov</property>
  <property name="audio_index">-1</property>
  <property name="video_index">0</property>
  <property name="mute_on_pause">0</property>
  <property name="mlt_service">avformat-novalidate</property>
  <property name="seekable">1</property>
  <property name="aspect_ratio">1</property>
  <property name="kdenlive:clipname">5.mp4</property>
  <property name="kdenlive:folderid">314</property>
  <property name="kdenlive:id">356</property>
  <property name="kdenlive:file_size">93535</property>
  <property name="kdenlive:proxy">/home/xiaoxiae/.cache/kdenlive/proxy/c8e19bd13c6ec3ad13c2a471538ee7d6.mov</property>
  <property name="kdenlive:originalurl">video/ProgrammingModel/vid/5.mp4</property>
  <property name="kdenlive:original.mlt_type">producer</property>
  <property name="kdenlive:original.in">0</property>
  <property name="kdenlive:original.out">125</property>
  <property name="kdenlive:original.length">126</property>
  <property name="kdenlive:original.eof">pause</property>
  <property name="kdenlive:original.resource">video/ProgrammingModel/vid/5.mp4</property>
  <property name="kdenlive:original.meta.media.nb_streams">1</property>
  <property name="kdenlive:original.meta.media.0.stream.type">video</property>
  <property name="kdenlive:original.meta.media.0.stream.frame_rate">60</property>
  <property name="kdenlive:original.meta.media.0.stream.sample_aspect_ratio">0</property>
  <property name="kdenlive:original.meta.media.0.codec.width">3840</property>
  <property name="kdenlive:original.meta.media.0.codec.height">2160</property>
  <property name="kdenlive:original.meta.media.0.codec.rotate">0</property>
  <property name="kdenlive:original.meta.media.0.codec.pix_fmt">yuv420p</property>
  <property name="kdenlive:original.meta.media.0.codec.sample_aspect_ratio">0</property>
  <property name="kdenlive:original.meta.media.0.codec.colorspace">709</property>
  <property name="kdenlive:original.meta.media.0.codec.name">h264</property>
  <property name="kdenlive:original.meta.media.0.codec.long_name">H.264 / AVC / MPEG-4 AVC / MPEG-4 part 10</property>
  <property name="kdenlive:original.meta.media.0.codec.bit_rate">347059</property>
  <property name="kdenlive:original.meta.attr.0.stream.handler_name.markup">VideoHandler</property>
  <property name="kdenlive:original.meta.attr.0.stream.vendor_id.markup">[0][0][0][0]</property>
  <property name="kdenlive:original.meta.attr.major_brand.markup">isom</property>
  <property name="kdenlive:original.meta.attr.minor_version.markup">512</property>
  <property name="kdenlive:original.meta.attr.compatible_brands.markup">isomiso2avc1mp41</property>
  <property name="kdenlive:original.meta.attr.encoder.markup">Lavf58.76.100</property>
  <property name="kdenlive:original.meta.attr.comment.markup">Rendered with Manim Community v0.12.0</property>
  <property name="kdenlive:original.seekable">1</property>
  <property name="kdenlive:original.width">3840</property>
  <property name="kdenlive:original.height">2160</property>
  <property name="kdenlive:original.meta.media.sample_aspect_num">1</property>
  <property name="kdenlive:original.meta.media.sample_aspect_den">1</property>
  <property name="kdenlive:original.aspect_ratio">1</property>
  <property name="kdenlive:original.audio_index">-1</property>
  <property name="kdenlive:original.video_index">0</property>
  <property name="kdenlive:original.mute_on_pause">0</property>
  <property name="kdenlive:original.mlt_service">avformat-novalidate</property>
  <property name="kdenlive:original.kdenlive:folderid">314</property>
  <property name="kdenlive:original.meta.media.frame_rate_num">60</property>
  <property name="kdenlive:original.meta.media.frame_rate_den">1</property>
  <property name="kdenlive:original.meta.media.colorspace">709</property>
  <property name="kdenlive:original.meta.media.color_trc">2</property>
  <property name="kdenlive:original.meta.media.has_b_frames">2</property>
  <property name="kdenlive:original.meta.media.width">3840</property>
  <property name="kdenlive:original.meta.media.height">2160</property>
  <property name="kdenlive:original.meta.media.color_range">mpeg</property>
  <property name="kdenlive:original.kdenlive:id">357</property>
  <property name="kdenlive:original.kdenlive:file_size">93535</property>
  <property name="kdenlive:original.kdenlive:file_hash">c8e19bd13c6ec3ad13c2a471538ee7d6</property>
  <property name="kdenlive:original.backup">1</property>
  <property name="kdenlive:file_hash">c8e19bd13c6ec3ad13c2a471538ee7d6</property>
  <property name="meta.media.nb_streams">1</property>
  <property name="meta.media.0.stream.type">video</property>
  <property name="meta.media.0.stream.frame_rate">60</property>
  <property name="meta.media.0.stream.sample_aspect_ratio">0</property>
  <property name="meta.media.0.codec.width">640</property>
  <property name="meta.media.0.codec.height">360</property>
  <property name="meta.media.0.codec.rotate">0</property>
  <property name="meta.media.0.codec.pix_fmt">yuv420p</property>
  <property name="meta.media.0.codec.sample_aspect_ratio">0</property>
  <property name="meta.media.0.codec.colorspace">601</property>
  <property name="meta.media.0.codec.name">h264</property>
  <property name="meta.media.0.codec.long_name">H.264 / AVC / MPEG-4 AVC / MPEG-4 part 10</property>
  <property name="meta.media.0.codec.bit_rate">1909207</property>
  <property name="meta.attr.0.stream.handler_name.markup">VideoHandler</property>
  <property name="meta.attr.0.stream.vendor_id.markup">FFMP</property>
  <property name="meta.attr.0.stream.encoder.markup">Lavc58.134.100 libx264</property>
  <property name="meta.attr.major_brand.markup">qt  </property>
  <property name="meta.attr.minor_version.markup">512</property>
  <property name="meta.attr.compatible_brands.markup">qt  </property>
  <property name="meta.attr.encoder.markup">Lavf58.76.100</property>
  <property name="meta.attr.comment.markup">Rendered with Manim Community v0.12.0</property>
  <property name="meta.media.sample_aspect_num">1</property>
  <property name="meta.media.sample_aspect_den">1</property>
  <property name="meta.media.frame_rate_num">60</property>
  <property name="meta.media.frame_rate_den">1</property>
  <property name="meta.media.colorspace">601</property>
  <property name="meta.media.color_trc">2</property>
  <property name="meta.media.has_b_frames">0</property>
  <property name="meta.media.width">640</property>
  <property name="meta.media.height">360</property>
  <property name="meta.media.color_range">mpeg</property>
 </producer>
 <producer id="producer328" in="00:00:00.000" out="00:00:00.983">
  <property name="length">60</property>
  <property name="eof">pause</property>
  <property name="resource">/home/xiaoxiae/.cache/kdenlive/proxy/1bbdeae4a3f5e9d733057e020bc34131.mov</property>
  <property name="audio_index">-1</property>
  <property name="video_index">0</property>
  <property name="mute_on_pause">0</property>
  <property name="mlt_service">avformat-novalidate</property>
  <property name="seekable">1</property>
  <property name="aspect_ratio">1</property>
  <property name="kdenlive:clipname">6.mp4</property>
  <property name="kdenlive:folderid">314</property>
  <property name="kdenlive:id">357</property>
  <property name="kdenlive:file_size">119145</property>
  <property name="kdenlive:proxy">/home/xiaoxiae/.cache/kdenlive/proxy/1bbdeae4a3f5e9d733057e020bc34131.mov</property>
  <property name="kdenlive:originalurl">video/ProgrammingModel/vid/6.mp4</property>
  <property name="kdenlive:original.mlt_type">producer</property>
  <property name="kdenlive:original.in">0</property>
  <property name="kdenlive:original.out">59</property>
  <property name="kdenlive:original.length">60</property>
  <property name="kdenlive:original.eof">pause</property>
  <property name="kdenlive:original.resource">video/ProgrammingModel/vid/6.mp4</property>
  <property name="kdenlive:original.meta.media.nb_streams">1</property>
  <property name="kdenlive:original.meta.media.0.stream.type">video</property>
  <property name="kdenlive:original.meta.media.0.stream.frame_rate">60</property>
  <property name="kdenlive:original.meta.media.0.stream.sample_aspect_ratio">0</property>
  <property name="kdenlive:original.meta.media.0.codec.width">3840</property>
  <property name="kdenlive:original.meta.media.0.codec.height">2160</property>
  <property name="kdenlive:original.meta.media.0.codec.rotate">0</property>
  <property name="kdenlive:original.meta.media.0.codec.pix_fmt">yuv420p</property>
  <property name="kdenlive:original.meta.media.0.codec.sample_aspect_ratio">0</property>
  <property name="kdenlive:original.meta.media.0.codec.colorspace">709</property>
  <property name="kdenlive:original.meta.media.0.codec.name">h264</property>
  <property name="kdenlive:original.meta.media.0.codec.long_name">H.264 / AVC / MPEG-4 AVC / MPEG-4 part 10</property>
  <property name="kdenlive:original.meta.media.0.codec.bit_rate">941192</property>
  <property name="kdenlive:original.meta.attr.0.stream.handler_name.markup">VideoHandler</property>
  <property name="kdenlive:original.meta.attr.0.stream.vendor_id.markup">[0][0][0][0]</property>
  <property name="kdenlive:original.meta.attr.major_brand.markup">isom</property>
  <property name="kdenlive:original.meta.attr.minor_version.markup">512</property>
  <property name="kdenlive:original.meta.attr.compatible_brands.markup">isomiso2avc1mp41</property>
  <property name="kdenlive:original.meta.attr.encoder.markup">Lavf58.76.100</property>
  <property name="kdenlive:original.meta.attr.comment.markup">Rendered with Manim Community v0.12.0</property>
  <property name="kdenlive:original.seekable">1</property>
  <property name="kdenlive:original.width">3840</property>
  <property name="kdenlive:original.height">2160</property>
  <property name="kdenlive:original.meta.media.sample_aspect_num">1</property>
  <property name="kdenlive:original.meta.media.sample_aspect_den">1</property>
  <property name="kdenlive:original.aspect_ratio">1</property>
  <property name="kdenlive:original.audio_index">-1</property>
  <property name="kdenlive:original.video_index">0</property>
  <property name="kdenlive:original.mute_on_pause">0</property>
  <property name="kdenlive:original.mlt_service">avformat-novalidate</property>
  <property name="kdenlive:original.kdenlive:folderid">314</property>
  <property name="kdenlive:original.meta.media.frame_rate_num">60</property>
  <property name="kdenlive:original.meta.media.frame_rate_den">1</property>
  <property name="kdenlive:original.meta.media.colorspace">709</property>
  <property name="kdenlive:original.meta.media.color_trc">2</property>
  <property name="kdenlive:original.meta.media.has_b_frames">2</property>
  <property name="kdenlive:original.meta.media.width">3840</property>
  <property name="kdenlive:original.meta.media.height">2160</property>
  <property name="kdenlive:original.meta.media.color_range">mpeg</property>
  <property name="kdenlive:original.kdenlive:id">358</property>
  <property name="kdenlive:original.kdenlive:file_size">119145</property>
  <property name="kdenlive:original.kdenlive:file_hash">1bbdeae4a3f5e9d733057e020bc34131</property>
  <property name="kdenlive:original.backup">1</property>
  <property name="kdenlive:file_hash">1bbdeae4a3f5e9d733057e020bc34131</property>
  <property name="meta.media.nb_streams">1</property>
  <property name="meta.media.0.stream.type">video</property>
  <property name="meta.media.0.stream.frame_rate">60</property>
  <property name="meta.media.0.stream.sample_aspect_ratio">0</property>
  <property name="meta.media.0.codec.width">640</property>
  <property name="meta.media.0.codec.height">360</property>
  <property name="meta.media.0.codec.rotate">0</property>
  <property name="meta.media.0.codec.pix_fmt">yuv420p</property>
  <property name="meta.media.0.codec.sample_aspect_ratio">0</property>
  <property name="meta.media.0.codec.colorspace">601</property>
  <property name="meta.media.0.codec.name">h264</property>
  <property name="meta.media.0.codec.long_name">H.264 / AVC / MPEG-4 AVC / MPEG-4 part 10</property>
  <property name="meta.media.0.codec.bit_rate">2030304</property>
  <property name="meta.attr.0.stream.handler_name.markup">VideoHandler</property>
  <property name="meta.attr.0.stream.vendor_id.markup">FFMP</property>
  <property name="meta.attr.0.stream.encoder.markup">Lavc58.134.100 libx264</property>
  <property name="meta.attr.major_brand.markup">qt  </property>
  <property name="meta.attr.minor_version.markup">512</property>
  <property name="meta.attr.compatible_brands.markup">qt  </property>
  <property name="meta.attr.encoder.markup">Lavf58.76.100</property>
  <property name="meta.attr.comment.markup">Rendered with Manim Community v0.12.0</property>
  <property name="meta.media.sample_aspect_num">1</property>
  <property name="meta.media.sample_aspect_den">1</property>
  <property name="meta.media.frame_rate_num">60</property>
  <property name="meta.media.frame_rate_den">1</property>
  <property name="meta.media.colorspace">601</property>
  <property name="meta.media.color_trc">2</property>
  <property name="meta.media.has_b_frames">0</property>
  <property name="meta.media.width">640</property>
  <property name="meta.media.height">360</property>
  <property name="meta.media.color_range">mpeg</property>
 </producer>
 <producer id="producer329" in="00:00:00.000" out="00:00:02.783">
  <property name="length">168</property>
  <property name="eof">pause</property>
  <property name="resource">/home/xiaoxiae/.cache/kdenlive/proxy/32e99f32cde296a76197e6cd36a10bf3.mov</property>
  <property name="audio_index">-1</property>
  <property name="video_index">0</property>
  <property name="mute_on_pause">0</property>
  <property name="mlt_service">avformat-novalidate</property>
  <property name="seekable">1</property>
  <property name="aspect_ratio">1</property>
  <property name="kdenlive:clipname">7.mp4</property>
  <property name="kdenlive:folderid">314</property>
  <property name="kdenlive:id">358</property>
  <property name="kdenlive:file_size">332323</property>
  <property name="kdenlive:proxy">/home/xiaoxiae/.cache/kdenlive/proxy/32e99f32cde296a76197e6cd36a10bf3.mov</property>
  <property name="kdenlive:originalurl">video/ProgrammingModel/vid/7.mp4</property>
  <property name="kdenlive:original.mlt_type">producer</property>
  <property name="kdenlive:original.in">0</property>
  <property name="kdenlive:original.out">167</property>
  <property name="kdenlive:original.length">168</property>
  <property name="kdenlive:original.eof">pause</property>
  <property name="kdenlive:original.resource">video/ProgrammingModel/vid/7.mp4</property>
  <property name="kdenlive:original.meta.media.nb_streams">1</property>
  <property name="kdenlive:original.meta.media.0.stream.type">video</property>
  <property name="kdenlive:original.meta.media.0.stream.frame_rate">60</property>
  <property name="kdenlive:original.meta.media.0.stream.sample_aspect_ratio">0</property>
  <property name="kdenlive:original.meta.media.0.codec.width">3840</property>
  <property name="kdenlive:original.meta.media.0.codec.height">2160</property>
  <property name="kdenlive:original.meta.media.0.codec.rotate">0</property>
  <property name="kdenlive:original.meta.media.0.codec.pix_fmt">yuv420p</property>
  <property name="kdenlive:original.meta.media.0.codec.sample_aspect_ratio">0</property>
  <property name="kdenlive:original.meta.media.0.codec.colorspace">709</property>
  <property name="kdenlive:original.meta.media.0.codec.name">h264</property>
  <property name="kdenlive:original.meta.media.0.codec.long_name">H.264 / AVC / MPEG-4 AVC / MPEG-4 part 10</property>
  <property name="kdenlive:original.meta.media.0.codec.bit_rate">941151</property>
  <property name="kdenlive:original.meta.attr.0.stream.handler_name.markup">VideoHandler</property>
  <property name="kdenlive:original.meta.attr.0.stream.vendor_id.markup">[0][0][0][0]</property>
  <property name="kdenlive:original.meta.attr.major_brand.markup">isom</property>
  <property name="kdenlive:original.meta.attr.minor_version.markup">512</property>
  <property name="kdenlive:original.meta.attr.compatible_brands.markup">isomiso2avc1mp41</property>
  <property name="kdenlive:original.meta.attr.encoder.markup">Lavf58.76.100</property>
  <property name="kdenlive:original.meta.attr.comment.markup">Rendered with Manim Community v0.12.0</property>
  <property name="kdenlive:original.seekable">1</property>
  <property name="kdenlive:original.width">3840</property>
  <property name="kdenlive:original.height">2160</property>
  <property name="kdenlive:original.meta.media.sample_aspect_num">1</property>
  <property name="kdenlive:original.meta.media.sample_aspect_den">1</property>
  <property name="kdenlive:original.aspect_ratio">1</property>
  <property name="kdenlive:original.audio_index">-1</property>
  <property name="kdenlive:original.video_index">0</property>
  <property name="kdenlive:original.mute_on_pause">0</property>
  <property name="kdenlive:original.mlt_service">avformat-novalidate</property>
  <property name="kdenlive:original.kdenlive:folderid">314</property>
  <property name="kdenlive:original.meta.media.frame_rate_num">60</property>
  <property name="kdenlive:original.meta.media.frame_rate_den">1</property>
  <property name="kdenlive:original.meta.media.colorspace">709</property>
  <property name="kdenlive:original.meta.media.color_trc">2</property>
  <property name="kdenlive:original.meta.media.has_b_frames">2</property>
  <property name="kdenlive:original.meta.media.width">3840</property>
  <property name="kdenlive:original.meta.media.height">2160</property>
  <property name="kdenlive:original.meta.media.color_range">mpeg</property>
  <property name="kdenlive:original.kdenlive:id">359</property>
  <property name="kdenlive:original.kdenlive:file_size">332323</property>
  <property name="kdenlive:original.kdenlive:file_hash">32e99f32cde296a76197e6cd36a10bf3</property>
  <property name="kdenlive:original.backup">1</property>
  <property name="kdenlive:file_hash">32e99f32cde296a76197e6cd36a10bf3</property>
  <property name="meta.media.nb_streams">1</property>
  <property name="meta.media.0.stream.type">video</property>
  <property name="meta.media.0.stream.frame_rate">60</property>
  <property name="meta.media.0.stream.sample_aspect_ratio">0</property>
  <property name="meta.media.0.codec.width">640</property>
  <property name="meta.media.0.codec.height">360</property>
  <property name="meta.media.0.codec.rotate">0</property>
  <property name="meta.media.0.codec.pix_fmt">yuv420p</property>
  <property name="meta.media.0.codec.sample_aspect_ratio">0</property>
  <property name="meta.media.0.codec.colorspace">601</property>
  <property name="meta.media.0.codec.name">h264</property>
  <property name="meta.media.0.codec.long_name">H.264 / AVC / MPEG-4 AVC / MPEG-4 part 10</property>
  <property name="meta.media.0.codec.bit_rate">2856865</property>
  <property name="meta.attr.0.stream.handler_name.markup">VideoHandler</property>
  <property name="meta.attr.0.stream.vendor_id.markup">FFMP</property>
  <property name="meta.attr.0.stream.encoder.markup">Lavc58.134.100 libx264</property>
  <property name="meta.attr.major_brand.markup">qt  </property>
  <property name="meta.attr.minor_version.markup">512</property>
  <property name="meta.attr.compatible_brands.markup">qt  </property>
  <property name="meta.attr.encoder.markup">Lavf58.76.100</property>
  <property name="meta.attr.comment.markup">Rendered with Manim Community v0.12.0</property>
  <property name="meta.media.sample_aspect_num">1</property>
  <property name="meta.media.sample_aspect_den">1</property>
  <property name="meta.media.frame_rate_num">60</property>
  <property name="meta.media.frame_rate_den">1</property>
  <property name="meta.media.colorspace">601</property>
  <property name="meta.media.color_trc">2</property>
  <property name="meta.media.has_b_frames">0</property>
  <property name="meta.media.width">640</property>
  <property name="meta.media.height">360</property>
  <property name="meta.media.color_range">mpeg</property>
 </producer>
 <producer id="producer330" in="00:00:00.000" out="00:00:00.983">
  <property name="length">60</property>
  <property name="eof">pause</property>
  <property name="resource">/home/xiaoxiae/.cache/kdenlive/proxy/df5faa75063df0636570a0539a75ff96.mov</property>
  <property name="audio_index">-1</property>
  <property name="video_index">0</property>
  <property name="mute_on_pause">0</property>
  <property name="mlt_service">avformat-novalidate</property>
  <property name="seekable">1</property>
  <property name="aspect_ratio">1</property>
  <property name="kdenlive:clipname">8.mp4</property>
  <property name="kdenlive:folderid">314</property>
  <property name="kdenlive:id">359</property>
  <property name="kdenlive:file_size">111382</property>
  <property name="kdenlive:proxy">/home/xiaoxiae/.cache/kdenlive/proxy/df5faa75063df0636570a0539a75ff96.mov</property>
  <property name="kdenlive:originalurl">video/ProgrammingModel/vid/8.mp4</property>
  <property name="kdenlive:original.mlt_type">producer</property>
  <property name="kdenlive:original.in">0</property>
  <property name="kdenlive:original.out">59</property>
  <property name="kdenlive:original.length">60</property>
  <property name="kdenlive:original.eof">pause</property>
  <property name="kdenlive:original.resource">video/ProgrammingModel/vid/8.mp4</property>
  <property name="kdenlive:original.meta.media.nb_streams">1</property>
  <property name="kdenlive:original.meta.media.0.stream.type">video</property>
  <property name="kdenlive:original.meta.media.0.stream.frame_rate">60</property>
  <property name="kdenlive:original.meta.media.0.stream.sample_aspect_ratio">0</property>
  <property name="kdenlive:original.meta.media.0.codec.width">3840</property>
  <property name="kdenlive:original.meta.media.0.codec.height">2160</property>
  <property name="kdenlive:original.meta.media.0.codec.rotate">0</property>
  <property name="kdenlive:original.meta.media.0.codec.pix_fmt">yuv420p</property>
  <property name="kdenlive:original.meta.media.0.codec.sample_aspect_ratio">0</property>
  <property name="kdenlive:original.meta.media.0.codec.colorspace">709</property>
  <property name="kdenlive:original.meta.media.0.codec.name">h264</property>
  <property name="kdenlive:original.meta.media.0.codec.long_name">H.264 / AVC / MPEG-4 AVC / MPEG-4 part 10</property>
  <property name="kdenlive:original.meta.media.0.codec.bit_rate">878000</property>
  <property name="kdenlive:original.meta.attr.0.stream.handler_name.markup">VideoHandler</property>
  <property name="kdenlive:original.meta.attr.0.stream.vendor_id.markup">[0][0][0][0]</property>
  <property name="kdenlive:original.meta.attr.major_brand.markup">isom</property>
  <property name="kdenlive:original.meta.attr.minor_version.markup">512</property>
  <property name="kdenlive:original.meta.attr.compatible_brands.markup">isomiso2avc1mp41</property>
  <property name="kdenlive:original.meta.attr.encoder.markup">Lavf58.76.100</property>
  <property name="kdenlive:original.meta.attr.comment.markup">Rendered with Manim Community v0.12.0</property>
  <property name="kdenlive:original.seekable">1</property>
  <property name="kdenlive:original.width">3840</property>
  <property name="kdenlive:original.height">2160</property>
  <property name="kdenlive:original.meta.media.sample_aspect_num">1</property>
  <property name="kdenlive:original.meta.media.sample_aspect_den">1</property>
  <property name="kdenlive:original.aspect_ratio">1</property>
  <property name="kdenlive:original.audio_index">-1</property>
  <property name="kdenlive:original.video_index">0</property>
  <property name="kdenlive:original.mute_on_pause">0</property>
  <property name="kdenlive:original.mlt_service">avformat-novalidate</property>
  <property name="kdenlive:original.kdenlive:folderid">314</property>
  <property name="kdenlive:original.meta.media.frame_rate_num">60</property>
  <property name="kdenlive:original.meta.media.frame_rate_den">1</property>
  <property name="kdenlive:original.meta.media.colorspace">709</property>
  <property name="kdenlive:original.meta.media.color_trc">2</property>
  <property name="kdenlive:original.meta.media.has_b_frames">2</property>
  <property name="kdenlive:original.meta.media.width">3840</property>
  <property name="kdenlive:original.meta.media.height">2160</property>
  <property name="kdenlive:original.meta.media.color_range">mpeg</property>
  <property name="kdenlive:original.kdenlive:id">360</property>
  <property name="kdenlive:original.kdenlive:file_size">111382</property>
  <property name="kdenlive:original.kdenlive:file_hash">df5faa75063df0636570a0539a75ff96</property>
  <property name="kdenlive:original.backup">1</property>
  <property name="kdenlive:file_hash">df5faa75063df0636570a0539a75ff96</property>
  <property name="meta.media.nb_streams">1</property>
  <property name="meta.media.0.stream.type">video</property>
  <property name="meta.media.0.stream.frame_rate">60</property>
  <property name="meta.media.0.stream.sample_aspect_ratio">0</property>
  <property name="meta.media.0.codec.width">640</property>
  <property name="meta.media.0.codec.height">360</property>
  <property name="meta.media.0.codec.rotate">0</property>
  <property name="meta.media.0.codec.pix_fmt">yuv420p</property>
  <property name="meta.media.0.codec.sample_aspect_ratio">0</property>
  <property name="meta.media.0.codec.colorspace">601</property>
  <property name="meta.media.0.codec.name">h264</property>
  <property name="meta.media.0.codec.long_name">H.264 / AVC / MPEG-4 AVC / MPEG-4 part 10</property>
  <property name="meta.media.0.codec.bit_rate">3415656</property>
  <property name="meta.attr.0.stream.handler_name.markup">VideoHandler</property>
  <property name="meta.attr.0.stream.vendor_id.markup">FFMP</property>
  <property name="meta.attr.0.stream.encoder.markup">Lavc58.134.100 libx264</property>
  <property name="meta.attr.major_brand.markup">qt  </property>
  <property name="meta.attr.minor_version.markup">512</property>
  <property name="meta.attr.compatible_brands.markup">qt  </property>
  <property name="meta.attr.encoder.markup">Lavf58.76.100</property>
  <property name="meta.attr.comment.markup">Rendered with Manim Community v0.12.0</property>
  <property name="meta.media.sample_aspect_num">1</property>
  <property name="meta.media.sample_aspect_den">1</property>
  <property name="meta.media.frame_rate_num">60</property>
  <property name="meta.media.frame_rate_den">1</property>
  <property name="meta.media.colorspace">601</property>
  <property name="meta.media.color_trc">2</property>
  <property name="meta.media.has_b_frames">0</property>
  <property name="meta.media.width">640</property>
  <property name="meta.media.height">360</property>
  <property name="meta.media.color_range">mpeg</property>
 </producer>
 <producer id="producer331" in="00:00:00.000" out="00:00:02.483">
  <property name="length">150</property>
  <property name="eof">pause</property>
  <property name="resource">/home/xiaoxiae/.cache/kdenlive/proxy/238cc530425d087439280c3c882c9285.mov</property>
  <property name="audio_index">-1</property>
  <property name="video_index">0</property>
  <property name="mute_on_pause">0</property>
  <property name="mlt_service">avformat-novalidate</property>
  <property name="seekable">1</property>
  <property name="aspect_ratio">1</property>
  <property name="kdenlive:clipname">9.mp4</property>
  <property name="kdenlive:folderid">314</property>
  <property name="kdenlive:id">360</property>
  <property name="kdenlive:file_size">228772</property>
  <property name="kdenlive:proxy">/home/xiaoxiae/.cache/kdenlive/proxy/238cc530425d087439280c3c882c9285.mov</property>
  <property name="kdenlive:originalurl">video/ProgrammingModel/vid/9.mp4</property>
  <property name="kdenlive:original.mlt_type">producer</property>
  <property name="kdenlive:original.in">0</property>
  <property name="kdenlive:original.out">149</property>
  <property name="kdenlive:original.length">150</property>
  <property name="kdenlive:original.eof">pause</property>
  <property name="kdenlive:original.resource">video/ProgrammingModel/vid/9.mp4</property>
  <property name="kdenlive:original.meta.media.nb_streams">1</property>
  <property name="kdenlive:original.meta.media.0.stream.type">video</property>
  <property name="kdenlive:original.meta.media.0.stream.frame_rate">60</property>
  <property name="kdenlive:original.meta.media.0.stream.sample_aspect_ratio">0</property>
  <property name="kdenlive:original.meta.media.0.codec.width">3840</property>
  <property name="kdenlive:original.meta.media.0.codec.height">2160</property>
  <property name="kdenlive:original.meta.media.0.codec.rotate">0</property>
  <property name="kdenlive:original.meta.media.0.codec.pix_fmt">yuv420p</property>
  <property name="kdenlive:original.meta.media.0.codec.sample_aspect_ratio">0</property>
  <property name="kdenlive:original.meta.media.0.codec.colorspace">709</property>
  <property name="kdenlive:original.meta.media.0.codec.name">h264</property>
  <property name="kdenlive:original.meta.media.0.codec.long_name">H.264 / AVC / MPEG-4 AVC / MPEG-4 part 10</property>
  <property name="kdenlive:original.meta.media.0.codec.bit_rate">723366</property>
  <property name="kdenlive:original.meta.attr.0.stream.handler_name.markup">VideoHandler</property>
  <property name="kdenlive:original.meta.attr.0.stream.vendor_id.markup">[0][0][0][0]</property>
  <property name="kdenlive:original.meta.attr.major_brand.markup">isom</property>
  <property name="kdenlive:original.meta.attr.minor_version.markup">512</property>
  <property name="kdenlive:original.meta.attr.compatible_brands.markup">isomiso2avc1mp41</property>
  <property name="kdenlive:original.meta.attr.encoder.markup">Lavf58.76.100</property>
  <property name="kdenlive:original.meta.attr.comment.markup">Rendered with Manim Community v0.12.0</property>
  <property name="kdenlive:original.seekable">1</property>
  <property name="kdenlive:original.width">3840</property>
  <property name="kdenlive:original.height">2160</property>
  <property name="kdenlive:original.meta.media.sample_aspect_num">1</property>
  <property name="kdenlive:original.meta.media.sample_aspect_den">1</property>
  <property name="kdenlive:original.aspect_ratio">1</property>
  <property name="kdenlive:original.audio_index">-1</property>
  <property name="kdenlive:original.video_index">0</property>
  <property name="kdenlive:original.mute_on_pause">0</property>
  <property name="kdenlive:original.mlt_service">avformat-novalidate</property>
  <property name="kdenlive:original.kdenlive:folderid">314</property>
  <property name="kdenlive:original.meta.media.frame_rate_num">60</property>
  <property name="kdenlive:original.meta.media.frame_rate_den">1</property>
  <property name="kdenlive:original.meta.media.colorspace">709</property>
  <property name="kdenlive:original.meta.media.color_trc">2</property>
  <property name="kdenlive:original.meta.media.has_b_frames">2</property>
  <property name="kdenlive:original.meta.media.width">3840</property>
  <property name="kdenlive:original.meta.media.height">2160</property>
  <property name="kdenlive:original.meta.media.color_range">mpeg</property>
  <property name="kdenlive:original.kdenlive:id">361</property>
  <property name="kdenlive:original.kdenlive:file_size">228772</property>
  <property name="kdenlive:original.kdenlive:file_hash">238cc530425d087439280c3c882c9285</property>
  <property name="kdenlive:original.backup">1</property>
  <property name="kdenlive:file_hash">238cc530425d087439280c3c882c9285</property>
  <property name="meta.media.nb_streams">1</property>
  <property name="meta.media.0.stream.type">video</property>
  <property name="meta.media.0.stream.frame_rate">60</property>
  <property name="meta.media.0.stream.sample_aspect_ratio">0</property>
  <property name="meta.media.0.codec.width">640</property>
  <property name="meta.media.0.codec.height">360</property>
  <property name="meta.media.0.codec.rotate">0</property>
  <property name="meta.media.0.codec.pix_fmt">yuv420p</property>
  <property name="meta.media.0.codec.sample_aspect_ratio">0</property>
  <property name="meta.media.0.codec.colorspace">601</property>
  <property name="meta.media.0.codec.name">h264</property>
  <property name="meta.media.0.codec.long_name">H.264 / AVC / MPEG-4 AVC / MPEG-4 part 10</property>
  <property name="meta.media.0.codec.bit_rate">3790236</property>
  <property name="meta.attr.0.stream.handler_name.markup">VideoHandler</property>
  <property name="meta.attr.0.stream.vendor_id.markup">FFMP</property>
  <property name="meta.attr.0.stream.encoder.markup">Lavc58.134.100 libx264</property>
  <property name="meta.attr.major_brand.markup">qt  </property>
  <property name="meta.attr.minor_version.markup">512</property>
  <property name="meta.attr.compatible_brands.markup">qt  </property>
  <property name="meta.attr.encoder.markup">Lavf58.76.100</property>
  <property name="meta.attr.comment.markup">Rendered with Manim Community v0.12.0</property>
  <property name="meta.media.sample_aspect_num">1</property>
  <property name="meta.media.sample_aspect_den">1</property>
  <property name="meta.media.frame_rate_num">60</property>
  <property name="meta.media.frame_rate_den">1</property>
  <property name="meta.media.colorspace">601</property>
  <property name="meta.media.color_trc">2</property>
  <property name="meta.media.has_b_frames">0</property>
  <property name="meta.media.width">640</property>
  <property name="meta.media.height">360</property>
  <property name="meta.media.color_range">mpeg</property>
 </producer>
 <producer id="producer332" in="00:00:00.000" out="00:00:04.983">
  <property name="length">00:00:05.000</property>
  <property name="eof">pause</property>
  <property name="resource">/home/xiaoxiae/.cache/kdenlive/proxy/6b665121ca7b54a5f5307b69451fd23c.png</property>
  <property name="ttl">25</property>
  <property name="aspect_ratio">1</property>
  <property name="progressive">1</property>
  <property name="seekable">1</property>
  <property name="meta.media.width">800</property>
  <property name="meta.media.height">450</property>
  <property name="mlt_service">qimage</property>
  <property name="kdenlive:clipname">1.png</property>
  <property name="kdenlive:duration">00:00:05.000</property>
  <property name="kdenlive:folderid">363</property>
  <property name="kdenlive:id">361</property>
  <property name="kdenlive:file_size">24337</property>
  <property name="kdenlive:proxy">/home/xiaoxiae/.cache/kdenlive/proxy/6b665121ca7b54a5f5307b69451fd23c.png</property>
  <property name="kdenlive:originalurl">video/TimeComplexity/img/1.png</property>
  <property name="kdenlive:original.mlt_type">producer</property>
  <property name="kdenlive:original.in">0</property>
  <property name="kdenlive:original.out">299</property>
  <property name="kdenlive:original.length">00:00:05.000</property>
  <property name="kdenlive:original.eof">pause</property>
  <property name="kdenlive:original.resource">video/TimeComplexity/img/1.png</property>
  <property name="kdenlive:original.ttl">25</property>
  <property name="kdenlive:original.aspect_ratio">1</property>
  <property name="kdenlive:original.progressive">1</property>
  <property name="kdenlive:original.seekable">1</property>
  <property name="kdenlive:original.meta.media.width">3840</property>
  <property name="kdenlive:original.meta.media.height">2160</property>
  <property name="kdenlive:original.mlt_service">qimage</property>
  <property name="kdenlive:original.kdenlive:duration">00:00:05.000</property>
  <property name="kdenlive:original.kdenlive:folderid">363</property>
  <property name="kdenlive:original.kdenlive:id">364</property>
  <property name="kdenlive:original.kdenlive:file_size">24337</property>
  <property name="kdenlive:original.kdenlive:file_hash">6b665121ca7b54a5f5307b69451fd23c</property>
  <property name="kdenlive:original.backup">1</property>
  <property name="kdenlive:file_hash">6b665121ca7b54a5f5307b69451fd23c</property>
 </producer>
 <producer id="producer333" in="00:00:00.000" out="00:00:04.983">
  <property name="length">00:00:05.000</property>
  <property name="eof">pause</property>
  <property name="resource">/home/xiaoxiae/.cache/kdenlive/proxy/9ea720d421c58f7930bd8e3a807a2948.png</property>
  <property name="ttl">25</property>
  <property name="aspect_ratio">1</property>
  <property name="progressive">1</property>
  <property name="seekable">1</property>
  <property name="meta.media.width">800</property>
  <property name="meta.media.height">450</property>
  <property name="mlt_service">qimage</property>
  <property name="kdenlive:clipname">2.png</property>
  <property name="kdenlive:duration">00:00:05.000</property>
  <property name="kdenlive:folderid">363</property>
  <property name="kdenlive:id">364</property>
  <property name="kdenlive:file_size">77819</property>
  <property name="kdenlive:proxy">/home/xiaoxiae/.cache/kdenlive/proxy/9ea720d421c58f7930bd8e3a807a2948.png</property>
  <property name="kdenlive:originalurl">video/TimeComplexity/img/2.png</property>
  <property name="kdenlive:original.mlt_type">producer</property>
  <property name="kdenlive:original.in">0</property>
  <property name="kdenlive:original.out">299</property>
  <property name="kdenlive:original.length">00:00:05.000</property>
  <property name="kdenlive:original.eof">pause</property>
  <property name="kdenlive:original.resource">video/TimeComplexity/img/2.png</property>
  <property name="kdenlive:original.ttl">25</property>
  <property name="kdenlive:original.aspect_ratio">1</property>
  <property name="kdenlive:original.progressive">1</property>
  <property name="kdenlive:original.seekable">1</property>
  <property name="kdenlive:original.meta.media.width">3840</property>
  <property name="kdenlive:original.meta.media.height">2160</property>
  <property name="kdenlive:original.mlt_service">qimage</property>
  <property name="kdenlive:original.kdenlive:duration">00:00:05.000</property>
  <property name="kdenlive:original.kdenlive:folderid">363</property>
  <property name="kdenlive:original.kdenlive:id">365</property>
  <property name="kdenlive:original.kdenlive:file_size">77819</property>
  <property name="kdenlive:original.kdenlive:file_hash">9ea720d421c58f7930bd8e3a807a2948</property>
  <property name="kdenlive:original.backup">1</property>
  <property name="kdenlive:file_hash">9ea720d421c58f7930bd8e3a807a2948</property>
 </producer>
 <producer id="producer334" in="00:00:00.000" out="00:00:04.983">
  <property name="length">00:00:05.000</property>
  <property name="eof">pause</property>
  <property name="resource">/home/xiaoxiae/.cache/kdenlive/proxy/7277949cf06f7ae822269557daa2e671.png</property>
  <property name="ttl">25</property>
  <property name="aspect_ratio">1</property>
  <property name="progressive">1</property>
  <property name="seekable">1</property>
  <property name="meta.media.width">800</property>
  <property name="meta.media.height">450</property>
  <property name="mlt_service">qimage</property>
  <property name="kdenlive:clipname">3.png</property>
  <property name="kdenlive:duration">00:00:05.000</property>
  <property name="kdenlive:folderid">363</property>
  <property name="kdenlive:id">365</property>
  <property name="kdenlive:file_size">139909</property>
  <property name="kdenlive:proxy">/home/xiaoxiae/.cache/kdenlive/proxy/7277949cf06f7ae822269557daa2e671.png</property>
  <property name="kdenlive:originalurl">video/TimeComplexity/img/3.png</property>
  <property name="kdenlive:original.mlt_type">producer</property>
  <property name="kdenlive:original.in">0</property>
  <property name="kdenlive:original.out">299</property>
  <property name="kdenlive:original.length">00:00:05.000</property>
  <property name="kdenlive:original.eof">pause</property>
  <property name="kdenlive:original.resource">video/TimeComplexity/img/3.png</property>
  <property name="kdenlive:original.ttl">25</property>
  <property name="kdenlive:original.aspect_ratio">1</property>
  <property name="kdenlive:original.progressive">1</property>
  <property name="kdenlive:original.seekable">1</property>
  <property name="kdenlive:original.meta.media.width">3840</property>
  <property name="kdenlive:original.meta.media.height">2160</property>
  <property name="kdenlive:original.mlt_service">qimage</property>
  <property name="kdenlive:original.kdenlive:duration">00:00:05.000</property>
  <property name="kdenlive:original.kdenlive:folderid">363</property>
  <property name="kdenlive:original.kdenlive:id">366</property>
  <property name="kdenlive:original.kdenlive:file_size">139909</property>
  <property name="kdenlive:original.kdenlive:file_hash">7277949cf06f7ae822269557daa2e671</property>
  <property name="kdenlive:original.backup">1</property>
  <property name="kdenlive:file_hash">7277949cf06f7ae822269557daa2e671</property>
 </producer>
 <producer id="producer335" in="00:00:00.000" out="00:00:04.983">
  <property name="length">00:00:05.000</property>
  <property name="eof">pause</property>
  <property name="resource">/home/xiaoxiae/.cache/kdenlive/proxy/30888a627789fb666af4c7659990283a.png</property>
  <property name="ttl">25</property>
  <property name="aspect_ratio">1</property>
  <property name="progressive">1</property>
  <property name="seekable">1</property>
  <property name="meta.media.width">800</property>
  <property name="meta.media.height">450</property>
  <property name="mlt_service">qimage</property>
  <property name="kdenlive:clipname">4.png</property>
  <property name="kdenlive:duration">00:00:05.000</property>
  <property name="kdenlive:folderid">363</property>
  <property name="kdenlive:id">366</property>
  <property name="kdenlive:file_size">307947</property>
  <property name="kdenlive:proxy">/home/xiaoxiae/.cache/kdenlive/proxy/30888a627789fb666af4c7659990283a.png</property>
  <property name="kdenlive:originalurl">video/TimeComplexity/img/4.png</property>
  <property name="kdenlive:original.mlt_type">producer</property>
  <property name="kdenlive:original.in">0</property>
  <property name="kdenlive:original.out">299</property>
  <property name="kdenlive:original.length">00:00:05.000</property>
  <property name="kdenlive:original.eof">pause</property>
  <property name="kdenlive:original.resource">video/TimeComplexity/img/4.png</property>
  <property name="kdenlive:original.ttl">25</property>
  <property name="kdenlive:original.aspect_ratio">1</property>
  <property name="kdenlive:original.progressive">1</property>
  <property name="kdenlive:original.seekable">1</property>
  <property name="kdenlive:original.meta.media.width">3840</property>
  <property name="kdenlive:original.meta.media.height">2160</property>
  <property name="kdenlive:original.mlt_service">qimage</property>
  <property name="kdenlive:original.kdenlive:duration">00:00:05.000</property>
  <property name="kdenlive:original.kdenlive:folderid">363</property>
  <property name="kdenlive:original.kdenlive:id">367</property>
  <property name="kdenlive:original.kdenlive:file_size">307947</property>
  <property name="kdenlive:original.kdenlive:file_hash">30888a627789fb666af4c7659990283a</property>
  <property name="kdenlive:original.backup">1</property>
  <property name="kdenlive:file_hash">30888a627789fb666af4c7659990283a</property>
 </producer>
 <producer id="producer336" in="00:00:00.000" out="00:00:04.983">
  <property name="length">00:00:05.000</property>
  <property name="eof">pause</property>
  <property name="resource">/home/xiaoxiae/.cache/kdenlive/proxy/6f4e43046bc9fd6814c4b215e11091f1.png</property>
  <property name="ttl">25</property>
  <property name="aspect_ratio">1</property>
  <property name="progressive">1</property>
  <property name="seekable">1</property>
  <property name="meta.media.width">800</property>
  <property name="meta.media.height">450</property>
  <property name="mlt_service">qimage</property>
  <property name="kdenlive:clipname">5.png</property>
  <property name="kdenlive:duration">00:00:05.000</property>
  <property name="kdenlive:folderid">363</property>
  <property name="kdenlive:id">367</property>
  <property name="kdenlive:file_size">337715</property>
  <property name="kdenlive:proxy">/home/xiaoxiae/.cache/kdenlive/proxy/6f4e43046bc9fd6814c4b215e11091f1.png</property>
  <property name="kdenlive:originalurl">video/TimeComplexity/img/5.png</property>
  <property name="kdenlive:original.mlt_type">producer</property>
  <property name="kdenlive:original.in">0</property>
  <property name="kdenlive:original.out">299</property>
  <property name="kdenlive:original.length">00:00:05.000</property>
  <property name="kdenlive:original.eof">pause</property>
  <property name="kdenlive:original.resource">video/TimeComplexity/img/5.png</property>
  <property name="kdenlive:original.ttl">25</property>
  <property name="kdenlive:original.aspect_ratio">1</property>
  <property name="kdenlive:original.progressive">1</property>
  <property name="kdenlive:original.seekable">1</property>
  <property name="kdenlive:original.meta.media.width">3840</property>
  <property name="kdenlive:original.meta.media.height">2160</property>
  <property name="kdenlive:original.mlt_service">qimage</property>
  <property name="kdenlive:original.kdenlive:duration">00:00:05.000</property>
  <property name="kdenlive:original.kdenlive:folderid">363</property>
  <property name="kdenlive:original.kdenlive:id">368</property>
  <property name="kdenlive:original.kdenlive:file_size">337715</property>
  <property name="kdenlive:original.kdenlive:file_hash">6f4e43046bc9fd6814c4b215e11091f1</property>
  <property name="kdenlive:original.backup">1</property>
  <property name="kdenlive:file_hash">6f4e43046bc9fd6814c4b215e11091f1</property>
 </producer>
 <producer id="producer337" in="00:00:00.000" out="00:00:04.983">
  <property name="length">00:00:05.000</property>
  <property name="eof">pause</property>
  <property name="resource">/home/xiaoxiae/.cache/kdenlive/proxy/0e1cd89ae996181e12aaad6f98c4a543.png</property>
  <property name="ttl">25</property>
  <property name="aspect_ratio">1</property>
  <property name="progressive">1</property>
  <property name="seekable">1</property>
  <property name="meta.media.width">800</property>
  <property name="meta.media.height">450</property>
  <property name="mlt_service">qimage</property>
  <property name="kdenlive:clipname">6.png</property>
  <property name="kdenlive:duration">00:00:05.000</property>
  <property name="kdenlive:folderid">363</property>
  <property name="kdenlive:id">368</property>
  <property name="kdenlive:file_size">374143</property>
  <property name="kdenlive:proxy">/home/xiaoxiae/.cache/kdenlive/proxy/0e1cd89ae996181e12aaad6f98c4a543.png</property>
  <property name="kdenlive:originalurl">video/TimeComplexity/img/6.png</property>
  <property name="kdenlive:original.mlt_type">producer</property>
  <property name="kdenlive:original.in">0</property>
  <property name="kdenlive:original.out">299</property>
  <property name="kdenlive:original.length">00:00:05.000</property>
  <property name="kdenlive:original.eof">pause</property>
  <property name="kdenlive:original.resource">video/TimeComplexity/img/6.png</property>
  <property name="kdenlive:original.ttl">25</property>
  <property name="kdenlive:original.aspect_ratio">1</property>
  <property name="kdenlive:original.progressive">1</property>
  <property name="kdenlive:original.seekable">1</property>
  <property name="kdenlive:original.meta.media.width">3840</property>
  <property name="kdenlive:original.meta.media.height">2160</property>
  <property name="kdenlive:original.mlt_service">qimage</property>
  <property name="kdenlive:original.kdenlive:duration">00:00:05.000</property>
  <property name="kdenlive:original.kdenlive:folderid">363</property>
  <property name="kdenlive:original.kdenlive:id">369</property>
  <property name="kdenlive:original.kdenlive:file_size">374143</property>
  <property name="kdenlive:original.kdenlive:file_hash">0e1cd89ae996181e12aaad6f98c4a543</property>
  <property name="kdenlive:original.backup">1</property>
  <property name="kdenlive:file_hash">0e1cd89ae996181e12aaad6f98c4a543</property>
 </producer>
 <producer id="producer338" in="00:00:00.000" out="00:00:07.083">
  <property name="length">00:00:07.100</property>
  <property name="eof">pause</property>
  <property name="resource">/home/xiaoxiae/.cache/kdenlive/proxy/58799005e9f92f2024dd228a54a1fcdb.png</property>
  <property name="ttl">25</property>
  <property name="aspect_ratio">1</property>
  <property name="progressive">1</property>
  <property name="seekable">1</property>
  <property name="meta.media.width">800</property>
  <property name="meta.media.height">450</property>
  <property name="mlt_service">qimage</property>
  <property name="kdenlive:clipname">7.png</property>
  <property name="kdenlive:duration">00:00:05.000</property>
  <property name="kdenlive:folderid">363</property>
  <property name="kdenlive:id">369</property>
  <property name="kdenlive:file_size">384502</property>
  <property name="kdenlive:proxy">/home/xiaoxiae/.cache/kdenlive/proxy/58799005e9f92f2024dd228a54a1fcdb.png</property>
  <property name="kdenlive:originalurl">video/TimeComplexity/img/7.png</property>
  <property name="kdenlive:original.mlt_type">producer</property>
  <property name="kdenlive:original.in">0</property>
  <property name="kdenlive:original.out">299</property>
  <property name="kdenlive:original.length">00:00:05.000</property>
  <property name="kdenlive:original.eof">pause</property>
  <property name="kdenlive:original.resource">video/TimeComplexity/img/7.png</property>
  <property name="kdenlive:original.ttl">25</property>
  <property name="kdenlive:original.aspect_ratio">1</property>
  <property name="kdenlive:original.progressive">1</property>
  <property name="kdenlive:original.seekable">1</property>
  <property name="kdenlive:original.meta.media.width">3840</property>
  <property name="kdenlive:original.meta.media.height">2160</property>
  <property name="kdenlive:original.mlt_service">qimage</property>
  <property name="kdenlive:original.kdenlive:duration">00:00:05.000</property>
  <property name="kdenlive:original.kdenlive:folderid">363</property>
  <property name="kdenlive:original.kdenlive:id">370</property>
  <property name="kdenlive:original.kdenlive:file_size">384502</property>
  <property name="kdenlive:original.kdenlive:file_hash">58799005e9f92f2024dd228a54a1fcdb</property>
  <property name="kdenlive:original.backup">1</property>
  <property name="kdenlive:file_hash">58799005e9f92f2024dd228a54a1fcdb</property>
 </producer>
 <producer id="producer340" in="00:00:00.000" out="00:00:04.983">
  <property name="length">00:00:05.000</property>
  <property name="eof">pause</property>
  <property name="resource">/home/xiaoxiae/.cache/kdenlive/proxy/26bfd360f7edeebe6eebd99b317fee9a.png</property>
  <property name="ttl">25</property>
  <property name="aspect_ratio">1</property>
  <property name="progressive">1</property>
  <property name="seekable">1</property>
  <property name="meta.media.width">800</property>
  <property name="meta.media.height">450</property>
  <property name="mlt_service">qimage</property>
  <property name="kdenlive:clipname">8.png</property>
  <property name="kdenlive:duration">00:00:05.000</property>
  <property name="kdenlive:folderid">363</property>
  <property name="kdenlive:id">370</property>
  <property name="kdenlive:file_size">508827</property>
  <property name="kdenlive:proxy">/home/xiaoxiae/.cache/kdenlive/proxy/26bfd360f7edeebe6eebd99b317fee9a.png</property>
  <property name="kdenlive:originalurl">video/TimeComplexity/img/8.png</property>
  <property name="kdenlive:original.mlt_type">producer</property>
  <property name="kdenlive:original.in">0</property>
  <property name="kdenlive:original.out">299</property>
  <property name="kdenlive:original.length">00:00:05.000</property>
  <property name="kdenlive:original.eof">pause</property>
  <property name="kdenlive:original.resource">video/TimeComplexity/img/8.png</property>
  <property name="kdenlive:original.ttl">25</property>
  <property name="kdenlive:original.aspect_ratio">1</property>
  <property name="kdenlive:original.progressive">1</property>
  <property name="kdenlive:original.seekable">1</property>
  <property name="kdenlive:original.meta.media.width">3840</property>
  <property name="kdenlive:original.meta.media.height">2160</property>
  <property name="kdenlive:original.mlt_service">qimage</property>
  <property name="kdenlive:original.kdenlive:duration">00:00:05.000</property>
  <property name="kdenlive:original.kdenlive:folderid">363</property>
  <property name="kdenlive:original.kdenlive:id">371</property>
  <property name="kdenlive:original.kdenlive:file_size">508827</property>
  <property name="kdenlive:original.kdenlive:file_hash">26bfd360f7edeebe6eebd99b317fee9a</property>
  <property name="kdenlive:original.backup">1</property>
  <property name="kdenlive:file_hash">26bfd360f7edeebe6eebd99b317fee9a</property>
 </producer>
 <producer id="producer342" in="00:00:00.000" out="00:00:04.983">
  <property name="length">00:00:05.000</property>
  <property name="eof">pause</property>
  <property name="resource">/home/xiaoxiae/.cache/kdenlive/proxy/5c2ff195ec81ffad40547c98ed4fb796.png</property>
  <property name="ttl">25</property>
  <property name="aspect_ratio">1</property>
  <property name="progressive">1</property>
  <property name="seekable">1</property>
  <property name="meta.media.width">800</property>
  <property name="meta.media.height">450</property>
  <property name="mlt_service">qimage</property>
  <property name="kdenlive:clipname">9.png</property>
  <property name="kdenlive:duration">00:00:05.000</property>
  <property name="kdenlive:folderid">363</property>
  <property name="kdenlive:id">371</property>
  <property name="kdenlive:file_size">586169</property>
  <property name="kdenlive:proxy">/home/xiaoxiae/.cache/kdenlive/proxy/5c2ff195ec81ffad40547c98ed4fb796.png</property>
  <property name="kdenlive:originalurl">video/TimeComplexity/img/9.png</property>
  <property name="kdenlive:original.mlt_type">producer</property>
  <property name="kdenlive:original.in">0</property>
  <property name="kdenlive:original.out">299</property>
  <property name="kdenlive:original.length">00:00:05.000</property>
  <property name="kdenlive:original.eof">pause</property>
  <property name="kdenlive:original.resource">video/TimeComplexity/img/9.png</property>
  <property name="kdenlive:original.ttl">25</property>
  <property name="kdenlive:original.aspect_ratio">1</property>
  <property name="kdenlive:original.progressive">1</property>
  <property name="kdenlive:original.seekable">1</property>
  <property name="kdenlive:original.meta.media.width">3840</property>
  <property name="kdenlive:original.meta.media.height">2160</property>
  <property name="kdenlive:original.mlt_service">qimage</property>
  <property name="kdenlive:original.kdenlive:duration">00:00:05.000</property>
  <property name="kdenlive:original.kdenlive:folderid">363</property>
  <property name="kdenlive:original.kdenlive:id">372</property>
  <property name="kdenlive:original.kdenlive:file_size">586169</property>
  <property name="kdenlive:original.kdenlive:file_hash">5c2ff195ec81ffad40547c98ed4fb796</property>
  <property name="kdenlive:original.backup">1</property>
  <property name="kdenlive:file_hash">5c2ff195ec81ffad40547c98ed4fb796</property>
 </producer>
 <producer id="producer339" in="00:00:00.000" out="00:00:00.983">
  <property name="length">60</property>
  <property name="eof">pause</property>
  <property name="resource">/home/xiaoxiae/.cache/kdenlive/proxy/187b5668adff6ae52df680840011c6ce.mov</property>
  <property name="audio_index">-1</property>
  <property name="video_index">0</property>
  <property name="mute_on_pause">0</property>
  <property name="mlt_service">avformat-novalidate</property>
  <property name="seekable">1</property>
  <property name="aspect_ratio">1</property>
  <property name="kdenlive:clipname">1.mp4</property>
  <property name="kdenlive:folderid">373</property>
  <property name="kdenlive:id">372</property>
  <property name="kdenlive:file_size">62021</property>
  <property name="kdenlive:proxy">/home/xiaoxiae/.cache/kdenlive/proxy/187b5668adff6ae52df680840011c6ce.mov</property>
  <property name="kdenlive:originalurl">video/TimeComplexity/vid/1.mp4</property>
  <property name="kdenlive:original.mlt_type">producer</property>
  <property name="kdenlive:original.in">0</property>
  <property name="kdenlive:original.out">59</property>
  <property name="kdenlive:original.length">60</property>
  <property name="kdenlive:original.eof">pause</property>
  <property name="kdenlive:original.resource">video/TimeComplexity/vid/1.mp4</property>
  <property name="kdenlive:original.meta.media.nb_streams">1</property>
  <property name="kdenlive:original.meta.media.0.stream.type">video</property>
  <property name="kdenlive:original.meta.media.0.stream.frame_rate">60</property>
  <property name="kdenlive:original.meta.media.0.stream.sample_aspect_ratio">0</property>
  <property name="kdenlive:original.meta.media.0.codec.width">3840</property>
  <property name="kdenlive:original.meta.media.0.codec.height">2160</property>
  <property name="kdenlive:original.meta.media.0.codec.rotate">0</property>
  <property name="kdenlive:original.meta.media.0.codec.pix_fmt">yuv420p</property>
  <property name="kdenlive:original.meta.media.0.codec.sample_aspect_ratio">0</property>
  <property name="kdenlive:original.meta.media.0.codec.colorspace">709</property>
  <property name="kdenlive:original.meta.media.0.codec.name">h264</property>
  <property name="kdenlive:original.meta.media.0.codec.long_name">H.264 / AVC / MPEG-4 AVC / MPEG-4 part 10</property>
  <property name="kdenlive:original.meta.media.0.codec.bit_rate">483112</property>
  <property name="kdenlive:original.meta.attr.0.stream.handler_name.markup">VideoHandler</property>
  <property name="kdenlive:original.meta.attr.0.stream.vendor_id.markup">[0][0][0][0]</property>
  <property name="kdenlive:original.meta.attr.major_brand.markup">isom</property>
  <property name="kdenlive:original.meta.attr.minor_version.markup">512</property>
  <property name="kdenlive:original.meta.attr.compatible_brands.markup">isomiso2avc1mp41</property>
  <property name="kdenlive:original.meta.attr.encoder.markup">Lavf58.76.100</property>
  <property name="kdenlive:original.meta.attr.comment.markup">Rendered with Manim Community v0.12.0</property>
  <property name="kdenlive:original.seekable">1</property>
  <property name="kdenlive:original.width">3840</property>
  <property name="kdenlive:original.height">2160</property>
  <property name="kdenlive:original.meta.media.sample_aspect_num">1</property>
  <property name="kdenlive:original.meta.media.sample_aspect_den">1</property>
  <property name="kdenlive:original.aspect_ratio">1</property>
  <property name="kdenlive:original.audio_index">-1</property>
  <property name="kdenlive:original.video_index">0</property>
  <property name="kdenlive:original.mute_on_pause">0</property>
  <property name="kdenlive:original.mlt_service">avformat-novalidate</property>
  <property name="kdenlive:original.kdenlive:folderid">373</property>
  <property name="kdenlive:original.meta.media.frame_rate_num">60</property>
  <property name="kdenlive:original.meta.media.frame_rate_den">1</property>
  <property name="kdenlive:original.meta.media.colorspace">709</property>
  <property name="kdenlive:original.meta.media.color_trc">2</property>
  <property name="kdenlive:original.meta.media.has_b_frames">2</property>
  <property name="kdenlive:original.meta.media.width">3840</property>
  <property name="kdenlive:original.meta.media.height">2160</property>
  <property name="kdenlive:original.meta.media.color_range">mpeg</property>
  <property name="kdenlive:original.kdenlive:id">374</property>
  <property name="kdenlive:original.kdenlive:file_size">62021</property>
  <property name="kdenlive:original.kdenlive:file_hash">187b5668adff6ae52df680840011c6ce</property>
  <property name="kdenlive:original.backup">1</property>
  <property name="kdenlive:file_hash">187b5668adff6ae52df680840011c6ce</property>
  <property name="meta.media.nb_streams">1</property>
  <property name="meta.media.0.stream.type">video</property>
  <property name="meta.media.0.stream.frame_rate">60</property>
  <property name="meta.media.0.stream.sample_aspect_ratio">0</property>
  <property name="meta.media.0.codec.width">640</property>
  <property name="meta.media.0.codec.height">360</property>
  <property name="meta.media.0.codec.rotate">0</property>
  <property name="meta.media.0.codec.pix_fmt">yuv420p</property>
  <property name="meta.media.0.codec.sample_aspect_ratio">0</property>
  <property name="meta.media.0.codec.colorspace">601</property>
  <property name="meta.media.0.codec.name">h264</property>
  <property name="meta.media.0.codec.long_name">H.264 / AVC / MPEG-4 AVC / MPEG-4 part 10</property>
  <property name="meta.media.0.codec.bit_rate">569464</property>
  <property name="meta.attr.0.stream.handler_name.markup">VideoHandler</property>
  <property name="meta.attr.0.stream.vendor_id.markup">FFMP</property>
  <property name="meta.attr.0.stream.encoder.markup">Lavc58.134.100 libx264</property>
  <property name="meta.attr.major_brand.markup">qt  </property>
  <property name="meta.attr.minor_version.markup">512</property>
  <property name="meta.attr.compatible_brands.markup">qt  </property>
  <property name="meta.attr.encoder.markup">Lavf58.76.100</property>
  <property name="meta.attr.comment.markup">Rendered with Manim Community v0.12.0</property>
  <property name="meta.media.sample_aspect_num">1</property>
  <property name="meta.media.sample_aspect_den">1</property>
  <property name="meta.media.frame_rate_num">60</property>
  <property name="meta.media.frame_rate_den">1</property>
  <property name="meta.media.colorspace">601</property>
  <property name="meta.media.color_trc">2</property>
  <property name="meta.media.has_b_frames">0</property>
  <property name="meta.media.width">640</property>
  <property name="meta.media.height">360</property>
  <property name="meta.media.color_range">mpeg</property>
 </producer>
 <producer id="producer341" in="00:00:00.000" out="00:00:00.983">
  <property name="length">60</property>
  <property name="eof">pause</property>
  <property name="resource">/home/xiaoxiae/.cache/kdenlive/proxy/3eb165b4c0b51daa8a01f171a5d12d6a.mov</property>
  <property name="audio_index">-1</property>
  <property name="video_index">0</property>
  <property name="mute_on_pause">0</property>
  <property name="mlt_service">avformat-novalidate</property>
  <property name="seekable">1</property>
  <property name="aspect_ratio">1</property>
  <property name="kdenlive:clipname">2.mp4</property>
  <property name="kdenlive:folderid">373</property>
  <property name="kdenlive:id">374</property>
  <property name="kdenlive:file_size">192727</property>
  <property name="kdenlive:proxy">/home/xiaoxiae/.cache/kdenlive/proxy/3eb165b4c0b51daa8a01f171a5d12d6a.mov</property>
  <property name="kdenlive:originalurl">video/TimeComplexity/vid/2.mp4</property>
  <property name="kdenlive:original.mlt_type">producer</property>
  <property name="kdenlive:original.in">0</property>
  <property name="kdenlive:original.out">59</property>
  <property name="kdenlive:original.length">60</property>
  <property name="kdenlive:original.eof">pause</property>
  <property name="kdenlive:original.resource">video/TimeComplexity/vid/2.mp4</property>
  <property name="kdenlive:original.meta.media.nb_streams">1</property>
  <property name="kdenlive:original.meta.media.0.stream.type">video</property>
  <property name="kdenlive:original.meta.media.0.stream.frame_rate">60</property>
  <property name="kdenlive:original.meta.media.0.stream.sample_aspect_ratio">0</property>
  <property name="kdenlive:original.meta.media.0.codec.width">3840</property>
  <property name="kdenlive:original.meta.media.0.codec.height">2160</property>
  <property name="kdenlive:original.meta.media.0.codec.rotate">0</property>
  <property name="kdenlive:original.meta.media.0.codec.pix_fmt">yuv420p</property>
  <property name="kdenlive:original.meta.media.0.codec.sample_aspect_ratio">0</property>
  <property name="kdenlive:original.meta.media.0.codec.colorspace">709</property>
  <property name="kdenlive:original.meta.media.0.codec.name">h264</property>
  <property name="kdenlive:original.meta.media.0.codec.long_name">H.264 / AVC / MPEG-4 AVC / MPEG-4 part 10</property>
  <property name="kdenlive:original.meta.media.0.codec.bit_rate">1529336</property>
  <property name="kdenlive:original.meta.attr.0.stream.handler_name.markup">VideoHandler</property>
  <property name="kdenlive:original.meta.attr.0.stream.vendor_id.markup">[0][0][0][0]</property>
  <property name="kdenlive:original.meta.attr.major_brand.markup">isom</property>
  <property name="kdenlive:original.meta.attr.minor_version.markup">512</property>
  <property name="kdenlive:original.meta.attr.compatible_brands.markup">isomiso2avc1mp41</property>
  <property name="kdenlive:original.meta.attr.encoder.markup">Lavf58.76.100</property>
  <property name="kdenlive:original.meta.attr.comment.markup">Rendered with Manim Community v0.12.0</property>
  <property name="kdenlive:original.seekable">1</property>
  <property name="kdenlive:original.width">3840</property>
  <property name="kdenlive:original.height">2160</property>
  <property name="kdenlive:original.meta.media.sample_aspect_num">1</property>
  <property name="kdenlive:original.meta.media.sample_aspect_den">1</property>
  <property name="kdenlive:original.aspect_ratio">1</property>
  <property name="kdenlive:original.audio_index">-1</property>
  <property name="kdenlive:original.video_index">0</property>
  <property name="kdenlive:original.mute_on_pause">0</property>
  <property name="kdenlive:original.mlt_service">avformat-novalidate</property>
  <property name="kdenlive:original.kdenlive:folderid">373</property>
  <property name="kdenlive:original.meta.media.frame_rate_num">60</property>
  <property name="kdenlive:original.meta.media.frame_rate_den">1</property>
  <property name="kdenlive:original.meta.media.colorspace">709</property>
  <property name="kdenlive:original.meta.media.color_trc">2</property>
  <property name="kdenlive:original.meta.media.has_b_frames">2</property>
  <property name="kdenlive:original.meta.media.width">3840</property>
  <property name="kdenlive:original.meta.media.height">2160</property>
  <property name="kdenlive:original.meta.media.color_range">mpeg</property>
  <property name="kdenlive:original.kdenlive:id">375</property>
  <property name="kdenlive:original.kdenlive:file_size">192727</property>
  <property name="kdenlive:original.kdenlive:file_hash">3eb165b4c0b51daa8a01f171a5d12d6a</property>
  <property name="kdenlive:original.backup">1</property>
  <property name="kdenlive:file_hash">3eb165b4c0b51daa8a01f171a5d12d6a</property>
  <property name="meta.media.nb_streams">1</property>
  <property name="meta.media.0.stream.type">video</property>
  <property name="meta.media.0.stream.frame_rate">60</property>
  <property name="meta.media.0.stream.sample_aspect_ratio">0</property>
  <property name="meta.media.0.codec.width">640</property>
  <property name="meta.media.0.codec.height">360</property>
  <property name="meta.media.0.codec.rotate">0</property>
  <property name="meta.media.0.codec.pix_fmt">yuv420p</property>
  <property name="meta.media.0.codec.sample_aspect_ratio">0</property>
  <property name="meta.media.0.codec.colorspace">601</property>
  <property name="meta.media.0.codec.name">h264</property>
  <property name="meta.media.0.codec.long_name">H.264 / AVC / MPEG-4 AVC / MPEG-4 part 10</property>
  <property name="meta.media.0.codec.bit_rate">1193880</property>
  <property name="meta.attr.0.stream.handler_name.markup">VideoHandler</property>
  <property name="meta.attr.0.stream.vendor_id.markup">FFMP</property>
  <property name="meta.attr.0.stream.encoder.markup">Lavc58.134.100 libx264</property>
  <property name="meta.attr.major_brand.markup">qt  </property>
  <property name="meta.attr.minor_version.markup">512</property>
  <property name="meta.attr.compatible_brands.markup">qt  </property>
  <property name="meta.attr.encoder.markup">Lavf58.76.100</property>
  <property name="meta.attr.comment.markup">Rendered with Manim Community v0.12.0</property>
  <property name="meta.media.sample_aspect_num">1</property>
  <property name="meta.media.sample_aspect_den">1</property>
  <property name="meta.media.frame_rate_num">60</property>
  <property name="meta.media.frame_rate_den">1</property>
  <property name="meta.media.colorspace">601</property>
  <property name="meta.media.color_trc">2</property>
  <property name="meta.media.has_b_frames">0</property>
  <property name="meta.media.width">640</property>
  <property name="meta.media.height">360</property>
  <property name="meta.media.color_range">mpeg</property>
 </producer>
 <producer id="producer343" in="00:00:00.000" out="00:00:02.983">
  <property name="length">180</property>
  <property name="eof">pause</property>
  <property name="resource">/home/xiaoxiae/.cache/kdenlive/proxy/f7e3af0afb78d26e270566bfa594ea77.mov</property>
  <property name="audio_index">-1</property>
  <property name="video_index">0</property>
  <property name="mute_on_pause">0</property>
  <property name="mlt_service">avformat-novalidate</property>
  <property name="seekable">1</property>
  <property name="aspect_ratio">1</property>
  <property name="kdenlive:clipname">3.mp4</property>
  <property name="kdenlive:folderid">373</property>
  <property name="kdenlive:file_size">307671</property>
  <property name="kdenlive:id">375</property>
  <property name="kdenlive:proxy">/home/xiaoxiae/.cache/kdenlive/proxy/f7e3af0afb78d26e270566bfa594ea77.mov</property>
  <property name="kdenlive:originalurl">video/TimeComplexity/vid/3.mp4</property>
  <property name="kdenlive:original.mlt_type">producer</property>
  <property name="kdenlive:original.in">0</property>
  <property name="kdenlive:original.out">179</property>
  <property name="kdenlive:original.length">180</property>
  <property name="kdenlive:original.eof">pause</property>
  <property name="kdenlive:original.resource">video/TimeComplexity/vid/3.mp4</property>
  <property name="kdenlive:original.meta.media.nb_streams">1</property>
  <property name="kdenlive:original.meta.media.0.stream.type">video</property>
  <property name="kdenlive:original.meta.media.0.stream.frame_rate">60</property>
  <property name="kdenlive:original.meta.media.0.stream.sample_aspect_ratio">0</property>
  <property name="kdenlive:original.meta.media.0.codec.width">3840</property>
  <property name="kdenlive:original.meta.media.0.codec.height">2160</property>
  <property name="kdenlive:original.meta.media.0.codec.rotate">0</property>
  <property name="kdenlive:original.meta.media.0.codec.pix_fmt">yuv420p</property>
  <property name="kdenlive:original.meta.media.0.codec.sample_aspect_ratio">0</property>
  <property name="kdenlive:original.meta.media.0.codec.colorspace">709</property>
  <property name="kdenlive:original.meta.media.0.codec.name">h264</property>
  <property name="kdenlive:original.meta.media.0.codec.long_name">H.264 / AVC / MPEG-4 AVC / MPEG-4 part 10</property>
  <property name="kdenlive:original.meta.media.0.codec.bit_rate">812264</property>
  <property name="kdenlive:original.meta.attr.0.stream.handler_name.markup">VideoHandler</property>
  <property name="kdenlive:original.meta.attr.0.stream.vendor_id.markup">[0][0][0][0]</property>
  <property name="kdenlive:original.meta.attr.major_brand.markup">isom</property>
  <property name="kdenlive:original.meta.attr.minor_version.markup">512</property>
  <property name="kdenlive:original.meta.attr.compatible_brands.markup">isomiso2avc1mp41</property>
  <property name="kdenlive:original.meta.attr.encoder.markup">Lavf58.76.100</property>
  <property name="kdenlive:original.meta.attr.comment.markup">Rendered with Manim Community v0.12.0</property>
  <property name="kdenlive:original.seekable">1</property>
  <property name="kdenlive:original.width">3840</property>
  <property name="kdenlive:original.height">2160</property>
  <property name="kdenlive:original.meta.media.sample_aspect_num">1</property>
  <property name="kdenlive:original.meta.media.sample_aspect_den">1</property>
  <property name="kdenlive:original.aspect_ratio">1</property>
  <property name="kdenlive:original.audio_index">-1</property>
  <property name="kdenlive:original.video_index">0</property>
  <property name="kdenlive:original.mute_on_pause">0</property>
  <property name="kdenlive:original.mlt_service">avformat-novalidate</property>
  <property name="kdenlive:original.kdenlive:folderid">373</property>
  <property name="kdenlive:original.kdenlive:file_size">307671</property>
  <property name="kdenlive:original.meta.media.frame_rate_num">60</property>
  <property name="kdenlive:original.meta.media.frame_rate_den">1</property>
  <property name="kdenlive:original.meta.media.colorspace">709</property>
  <property name="kdenlive:original.meta.media.color_trc">2</property>
  <property name="kdenlive:original.meta.media.has_b_frames">2</property>
  <property name="kdenlive:original.meta.media.width">3840</property>
  <property name="kdenlive:original.meta.media.height">2160</property>
  <property name="kdenlive:original.meta.media.color_range">mpeg</property>
  <property name="kdenlive:original.kdenlive:id">376</property>
  <property name="kdenlive:original.kdenlive:file_hash">f7e3af0afb78d26e270566bfa594ea77</property>
  <property name="kdenlive:original.backup">1</property>
  <property name="kdenlive:file_hash">f7e3af0afb78d26e270566bfa594ea77</property>
  <property name="meta.media.nb_streams">1</property>
  <property name="meta.media.0.stream.type">video</property>
  <property name="meta.media.0.stream.frame_rate">60</property>
  <property name="meta.media.0.stream.sample_aspect_ratio">0</property>
  <property name="meta.media.0.codec.width">640</property>
  <property name="meta.media.0.codec.height">360</property>
  <property name="meta.media.0.codec.rotate">0</property>
  <property name="meta.media.0.codec.pix_fmt">yuv420p</property>
  <property name="meta.media.0.codec.sample_aspect_ratio">0</property>
  <property name="meta.media.0.codec.colorspace">601</property>
  <property name="meta.media.0.codec.name">h264</property>
  <property name="meta.media.0.codec.long_name">H.264 / AVC / MPEG-4 AVC / MPEG-4 part 10</property>
  <property name="meta.media.0.codec.bit_rate">2344872</property>
  <property name="meta.attr.0.stream.handler_name.markup">VideoHandler</property>
  <property name="meta.attr.0.stream.vendor_id.markup">FFMP</property>
  <property name="meta.attr.0.stream.encoder.markup">Lavc58.134.100 libx264</property>
  <property name="meta.attr.major_brand.markup">qt  </property>
  <property name="meta.attr.minor_version.markup">512</property>
  <property name="meta.attr.compatible_brands.markup">qt  </property>
  <property name="meta.attr.encoder.markup">Lavf58.76.100</property>
  <property name="meta.attr.comment.markup">Rendered with Manim Community v0.12.0</property>
  <property name="meta.media.sample_aspect_num">1</property>
  <property name="meta.media.sample_aspect_den">1</property>
  <property name="meta.media.frame_rate_num">60</property>
  <property name="meta.media.frame_rate_den">1</property>
  <property name="meta.media.colorspace">601</property>
  <property name="meta.media.color_trc">2</property>
  <property name="meta.media.has_b_frames">0</property>
  <property name="meta.media.width">640</property>
  <property name="meta.media.height">360</property>
  <property name="meta.media.color_range">mpeg</property>
 </producer>
 <producer id="producer344" in="00:00:00.000" out="00:00:00.983">
  <property name="length">60</property>
  <property name="eof">pause</property>
  <property name="resource">/home/xiaoxiae/.cache/kdenlive/proxy/fa5e5154e5ef9f80f8c6c8e53eabf4fd.mov</property>
  <property name="audio_index">-1</property>
  <property name="video_index">0</property>
  <property name="mute_on_pause">0</property>
  <property name="mlt_service">avformat-novalidate</property>
  <property name="seekable">1</property>
  <property name="aspect_ratio">1</property>
  <property name="kdenlive:clipname">4.mp4</property>
  <property name="kdenlive:folderid">373</property>
  <property name="kdenlive:id">376</property>
  <property name="kdenlive:file_size">119058</property>
  <property name="kdenlive:proxy">/home/xiaoxiae/.cache/kdenlive/proxy/fa5e5154e5ef9f80f8c6c8e53eabf4fd.mov</property>
  <property name="kdenlive:originalurl">video/TimeComplexity/vid/4.mp4</property>
  <property name="kdenlive:original.mlt_type">producer</property>
  <property name="kdenlive:original.in">0</property>
  <property name="kdenlive:original.out">59</property>
  <property name="kdenlive:original.length">60</property>
  <property name="kdenlive:original.eof">pause</property>
  <property name="kdenlive:original.resource">video/TimeComplexity/vid/4.mp4</property>
  <property name="kdenlive:original.meta.media.nb_streams">1</property>
  <property name="kdenlive:original.meta.media.0.stream.type">video</property>
  <property name="kdenlive:original.meta.media.0.stream.frame_rate">60</property>
  <property name="kdenlive:original.meta.media.0.stream.sample_aspect_ratio">0</property>
  <property name="kdenlive:original.meta.media.0.codec.width">3840</property>
  <property name="kdenlive:original.meta.media.0.codec.height">2160</property>
  <property name="kdenlive:original.meta.media.0.codec.rotate">0</property>
  <property name="kdenlive:original.meta.media.0.codec.pix_fmt">yuv420p</property>
  <property name="kdenlive:original.meta.media.0.codec.sample_aspect_ratio">0</property>
  <property name="kdenlive:original.meta.media.0.codec.colorspace">709</property>
  <property name="kdenlive:original.meta.media.0.codec.name">h264</property>
  <property name="kdenlive:original.meta.media.0.codec.long_name">H.264 / AVC / MPEG-4 AVC / MPEG-4 part 10</property>
  <property name="kdenlive:original.meta.media.0.codec.bit_rate">939408</property>
  <property name="kdenlive:original.meta.attr.0.stream.handler_name.markup">VideoHandler</property>
  <property name="kdenlive:original.meta.attr.0.stream.vendor_id.markup">[0][0][0][0]</property>
  <property name="kdenlive:original.meta.attr.major_brand.markup">isom</property>
  <property name="kdenlive:original.meta.attr.minor_version.markup">512</property>
  <property name="kdenlive:original.meta.attr.compatible_brands.markup">isomiso2avc1mp41</property>
  <property name="kdenlive:original.meta.attr.encoder.markup">Lavf58.76.100</property>
  <property name="kdenlive:original.meta.attr.comment.markup">Rendered with Manim Community v0.12.0</property>
  <property name="kdenlive:original.seekable">1</property>
  <property name="kdenlive:original.width">3840</property>
  <property name="kdenlive:original.height">2160</property>
  <property name="kdenlive:original.meta.media.sample_aspect_num">1</property>
  <property name="kdenlive:original.meta.media.sample_aspect_den">1</property>
  <property name="kdenlive:original.aspect_ratio">1</property>
  <property name="kdenlive:original.audio_index">-1</property>
  <property name="kdenlive:original.video_index">0</property>
  <property name="kdenlive:original.mute_on_pause">0</property>
  <property name="kdenlive:original.mlt_service">avformat-novalidate</property>
  <property name="kdenlive:original.kdenlive:folderid">373</property>
  <property name="kdenlive:original.meta.media.frame_rate_num">60</property>
  <property name="kdenlive:original.meta.media.frame_rate_den">1</property>
  <property name="kdenlive:original.meta.media.colorspace">709</property>
  <property name="kdenlive:original.meta.media.color_trc">2</property>
  <property name="kdenlive:original.meta.media.has_b_frames">2</property>
  <property name="kdenlive:original.meta.media.width">3840</property>
  <property name="kdenlive:original.meta.media.height">2160</property>
  <property name="kdenlive:original.meta.media.color_range">mpeg</property>
  <property name="kdenlive:original.kdenlive:id">377</property>
  <property name="kdenlive:original.kdenlive:file_size">119058</property>
  <property name="kdenlive:original.kdenlive:file_hash">fa5e5154e5ef9f80f8c6c8e53eabf4fd</property>
  <property name="kdenlive:original.backup">1</property>
  <property name="kdenlive:file_hash">fa5e5154e5ef9f80f8c6c8e53eabf4fd</property>
  <property name="meta.media.nb_streams">1</property>
  <property name="meta.media.0.stream.type">video</property>
  <property name="meta.media.0.stream.frame_rate">60</property>
  <property name="meta.media.0.stream.sample_aspect_ratio">0</property>
  <property name="meta.media.0.codec.width">640</property>
  <property name="meta.media.0.codec.height">360</property>
  <property name="meta.media.0.codec.rotate">0</property>
  <property name="meta.media.0.codec.pix_fmt">yuv420p</property>
  <property name="meta.media.0.codec.sample_aspect_ratio">0</property>
  <property name="meta.media.0.codec.colorspace">601</property>
  <property name="meta.media.0.codec.name">h264</property>
  <property name="meta.media.0.codec.long_name">H.264 / AVC / MPEG-4 AVC / MPEG-4 part 10</property>
  <property name="meta.media.0.codec.bit_rate">3003696</property>
  <property name="meta.attr.0.stream.handler_name.markup">VideoHandler</property>
  <property name="meta.attr.0.stream.vendor_id.markup">FFMP</property>
  <property name="meta.attr.0.stream.encoder.markup">Lavc58.134.100 libx264</property>
  <property name="meta.attr.major_brand.markup">qt  </property>
  <property name="meta.attr.minor_version.markup">512</property>
  <property name="meta.attr.compatible_brands.markup">qt  </property>
  <property name="meta.attr.encoder.markup">Lavf58.76.100</property>
  <property name="meta.attr.comment.markup">Rendered with Manim Community v0.12.0</property>
  <property name="meta.media.sample_aspect_num">1</property>
  <property name="meta.media.sample_aspect_den">1</property>
  <property name="meta.media.frame_rate_num">60</property>
  <property name="meta.media.frame_rate_den">1</property>
  <property name="meta.media.colorspace">601</property>
  <property name="meta.media.color_trc">2</property>
  <property name="meta.media.has_b_frames">0</property>
  <property name="meta.media.width">640</property>
  <property name="meta.media.height">360</property>
  <property name="meta.media.color_range">mpeg</property>
 </producer>
 <producer id="producer345" in="00:00:00.000" out="00:00:00.983">
  <property name="length">60</property>
  <property name="eof">pause</property>
  <property name="resource">/home/xiaoxiae/.cache/kdenlive/proxy/d349d9b691238d70cf0da2a89b075ee6.mov</property>
  <property name="audio_index">-1</property>
  <property name="video_index">0</property>
  <property name="mute_on_pause">0</property>
  <property name="mlt_service">avformat-novalidate</property>
  <property name="seekable">1</property>
  <property name="aspect_ratio">1</property>
  <property name="kdenlive:clipname">5.mp4</property>
  <property name="kdenlive:folderid">373</property>
  <property name="kdenlive:id">377</property>
  <property name="kdenlive:file_size">133565</property>
  <property name="kdenlive:proxy">/home/xiaoxiae/.cache/kdenlive/proxy/d349d9b691238d70cf0da2a89b075ee6.mov</property>
  <property name="kdenlive:originalurl">video/TimeComplexity/vid/5.mp4</property>
  <property name="kdenlive:original.mlt_type">producer</property>
  <property name="kdenlive:original.in">0</property>
  <property name="kdenlive:original.out">59</property>
  <property name="kdenlive:original.length">60</property>
  <property name="kdenlive:original.eof">pause</property>
  <property name="kdenlive:original.resource">video/TimeComplexity/vid/5.mp4</property>
  <property name="kdenlive:original.meta.media.nb_streams">1</property>
  <property name="kdenlive:original.meta.media.0.stream.type">video</property>
  <property name="kdenlive:original.meta.media.0.stream.frame_rate">60</property>
  <property name="kdenlive:original.meta.media.0.stream.sample_aspect_ratio">0</property>
  <property name="kdenlive:original.meta.media.0.codec.width">3840</property>
  <property name="kdenlive:original.meta.media.0.codec.height">2160</property>
  <property name="kdenlive:original.meta.media.0.codec.rotate">0</property>
  <property name="kdenlive:original.meta.media.0.codec.pix_fmt">yuv420p</property>
  <property name="kdenlive:original.meta.media.0.codec.sample_aspect_ratio">0</property>
  <property name="kdenlive:original.meta.media.0.codec.colorspace">709</property>
  <property name="kdenlive:original.meta.media.0.codec.name">h264</property>
  <property name="kdenlive:original.meta.media.0.codec.long_name">H.264 / AVC / MPEG-4 AVC / MPEG-4 part 10</property>
  <property name="kdenlive:original.meta.media.0.codec.bit_rate">1055464</property>
  <property name="kdenlive:original.meta.attr.0.stream.handler_name.markup">VideoHandler</property>
  <property name="kdenlive:original.meta.attr.0.stream.vendor_id.markup">[0][0][0][0]</property>
  <property name="kdenlive:original.meta.attr.major_brand.markup">isom</property>
  <property name="kdenlive:original.meta.attr.minor_version.markup">512</property>
  <property name="kdenlive:original.meta.attr.compatible_brands.markup">isomiso2avc1mp41</property>
  <property name="kdenlive:original.meta.attr.encoder.markup">Lavf58.76.100</property>
  <property name="kdenlive:original.meta.attr.comment.markup">Rendered with Manim Community v0.12.0</property>
  <property name="kdenlive:original.seekable">1</property>
  <property name="kdenlive:original.width">3840</property>
  <property name="kdenlive:original.height">2160</property>
  <property name="kdenlive:original.meta.media.sample_aspect_num">1</property>
  <property name="kdenlive:original.meta.media.sample_aspect_den">1</property>
  <property name="kdenlive:original.aspect_ratio">1</property>
  <property name="kdenlive:original.audio_index">-1</property>
  <property name="kdenlive:original.video_index">0</property>
  <property name="kdenlive:original.mute_on_pause">0</property>
  <property name="kdenlive:original.mlt_service">avformat-novalidate</property>
  <property name="kdenlive:original.kdenlive:folderid">373</property>
  <property name="kdenlive:original.meta.media.frame_rate_num">60</property>
  <property name="kdenlive:original.meta.media.frame_rate_den">1</property>
  <property name="kdenlive:original.meta.media.colorspace">709</property>
  <property name="kdenlive:original.meta.media.color_trc">2</property>
  <property name="kdenlive:original.meta.media.has_b_frames">2</property>
  <property name="kdenlive:original.meta.media.width">3840</property>
  <property name="kdenlive:original.meta.media.height">2160</property>
  <property name="kdenlive:original.meta.media.color_range">mpeg</property>
  <property name="kdenlive:original.kdenlive:id">378</property>
  <property name="kdenlive:original.kdenlive:file_size">133565</property>
  <property name="kdenlive:original.kdenlive:file_hash">d349d9b691238d70cf0da2a89b075ee6</property>
  <property name="kdenlive:original.backup">1</property>
  <property name="kdenlive:file_hash">d349d9b691238d70cf0da2a89b075ee6</property>
  <property name="meta.media.nb_streams">1</property>
  <property name="meta.media.0.stream.type">video</property>
  <property name="meta.media.0.stream.frame_rate">60</property>
  <property name="meta.media.0.stream.sample_aspect_ratio">0</property>
  <property name="meta.media.0.codec.width">640</property>
  <property name="meta.media.0.codec.height">360</property>
  <property name="meta.media.0.codec.rotate">0</property>
  <property name="meta.media.0.codec.pix_fmt">yuv420p</property>
  <property name="meta.media.0.codec.sample_aspect_ratio">0</property>
  <property name="meta.media.0.codec.colorspace">601</property>
  <property name="meta.media.0.codec.name">h264</property>
  <property name="meta.media.0.codec.long_name">H.264 / AVC / MPEG-4 AVC / MPEG-4 part 10</property>
  <property name="meta.media.0.codec.bit_rate">3324344</property>
  <property name="meta.attr.0.stream.handler_name.markup">VideoHandler</property>
  <property name="meta.attr.0.stream.vendor_id.markup">FFMP</property>
  <property name="meta.attr.0.stream.encoder.markup">Lavc58.134.100 libx264</property>
  <property name="meta.attr.major_brand.markup">qt  </property>
  <property name="meta.attr.minor_version.markup">512</property>
  <property name="meta.attr.compatible_brands.markup">qt  </property>
  <property name="meta.attr.encoder.markup">Lavf58.76.100</property>
  <property name="meta.attr.comment.markup">Rendered with Manim Community v0.12.0</property>
  <property name="meta.media.sample_aspect_num">1</property>
  <property name="meta.media.sample_aspect_den">1</property>
  <property name="meta.media.frame_rate_num">60</property>
  <property name="meta.media.frame_rate_den">1</property>
  <property name="meta.media.colorspace">601</property>
  <property name="meta.media.color_trc">2</property>
  <property name="meta.media.has_b_frames">0</property>
  <property name="meta.media.width">640</property>
  <property name="meta.media.height">360</property>
  <property name="meta.media.color_range">mpeg</property>
 </producer>
 <producer id="producer346" in="00:00:00.000" out="00:00:00.983">
  <property name="length">60</property>
  <property name="eof">pause</property>
  <property name="resource">/home/xiaoxiae/.cache/kdenlive/proxy/848f02c4e346136df631a023bb5b13db.mov</property>
  <property name="audio_index">-1</property>
  <property name="video_index">0</property>
  <property name="mute_on_pause">0</property>
  <property name="mlt_service">avformat-novalidate</property>
  <property name="seekable">1</property>
  <property name="aspect_ratio">1</property>
  <property name="kdenlive:clipname">6.mp4</property>
  <property name="kdenlive:folderid">373</property>
  <property name="kdenlive:id">378</property>
  <property name="kdenlive:file_size">111635</property>
  <property name="kdenlive:proxy">/home/xiaoxiae/.cache/kdenlive/proxy/848f02c4e346136df631a023bb5b13db.mov</property>
  <property name="kdenlive:originalurl">video/TimeComplexity/vid/6.mp4</property>
  <property name="kdenlive:original.mlt_type">producer</property>
  <property name="kdenlive:original.in">0</property>
  <property name="kdenlive:original.out">59</property>
  <property name="kdenlive:original.length">60</property>
  <property name="kdenlive:original.eof">pause</property>
  <property name="kdenlive:original.resource">video/TimeComplexity/vid/6.mp4</property>
  <property name="kdenlive:original.meta.media.nb_streams">1</property>
  <property name="kdenlive:original.meta.media.0.stream.type">video</property>
  <property name="kdenlive:original.meta.media.0.stream.frame_rate">60</property>
  <property name="kdenlive:original.meta.media.0.stream.sample_aspect_ratio">0</property>
  <property name="kdenlive:original.meta.media.0.codec.width">3840</property>
  <property name="kdenlive:original.meta.media.0.codec.height">2160</property>
  <property name="kdenlive:original.meta.media.0.codec.rotate">0</property>
  <property name="kdenlive:original.meta.media.0.codec.pix_fmt">yuv420p</property>
  <property name="kdenlive:original.meta.media.0.codec.sample_aspect_ratio">0</property>
  <property name="kdenlive:original.meta.media.0.codec.colorspace">709</property>
  <property name="kdenlive:original.meta.media.0.codec.name">h264</property>
  <property name="kdenlive:original.meta.media.0.codec.long_name">H.264 / AVC / MPEG-4 AVC / MPEG-4 part 10</property>
  <property name="kdenlive:original.meta.media.0.codec.bit_rate">880024</property>
  <property name="kdenlive:original.meta.attr.0.stream.handler_name.markup">VideoHandler</property>
  <property name="kdenlive:original.meta.attr.0.stream.vendor_id.markup">[0][0][0][0]</property>
  <property name="kdenlive:original.meta.attr.major_brand.markup">isom</property>
  <property name="kdenlive:original.meta.attr.minor_version.markup">512</property>
  <property name="kdenlive:original.meta.attr.compatible_brands.markup">isomiso2avc1mp41</property>
  <property name="kdenlive:original.meta.attr.encoder.markup">Lavf58.76.100</property>
  <property name="kdenlive:original.meta.attr.comment.markup">Rendered with Manim Community v0.12.0</property>
  <property name="kdenlive:original.seekable">1</property>
  <property name="kdenlive:original.width">3840</property>
  <property name="kdenlive:original.height">2160</property>
  <property name="kdenlive:original.meta.media.sample_aspect_num">1</property>
  <property name="kdenlive:original.meta.media.sample_aspect_den">1</property>
  <property name="kdenlive:original.aspect_ratio">1</property>
  <property name="kdenlive:original.audio_index">-1</property>
  <property name="kdenlive:original.video_index">0</property>
  <property name="kdenlive:original.mute_on_pause">0</property>
  <property name="kdenlive:original.mlt_service">avformat-novalidate</property>
  <property name="kdenlive:original.kdenlive:folderid">373</property>
  <property name="kdenlive:original.meta.media.frame_rate_num">60</property>
  <property name="kdenlive:original.meta.media.frame_rate_den">1</property>
  <property name="kdenlive:original.meta.media.colorspace">709</property>
  <property name="kdenlive:original.meta.media.color_trc">2</property>
  <property name="kdenlive:original.meta.media.has_b_frames">2</property>
  <property name="kdenlive:original.meta.media.width">3840</property>
  <property name="kdenlive:original.meta.media.height">2160</property>
  <property name="kdenlive:original.meta.media.color_range">mpeg</property>
  <property name="kdenlive:original.kdenlive:id">379</property>
  <property name="kdenlive:original.kdenlive:file_size">111635</property>
  <property name="kdenlive:original.kdenlive:file_hash">848f02c4e346136df631a023bb5b13db</property>
  <property name="kdenlive:original.backup">1</property>
  <property name="kdenlive:file_hash">848f02c4e346136df631a023bb5b13db</property>
  <property name="meta.media.nb_streams">1</property>
  <property name="meta.media.0.stream.type">video</property>
  <property name="meta.media.0.stream.frame_rate">60</property>
  <property name="meta.media.0.stream.sample_aspect_ratio">0</property>
  <property name="meta.media.0.codec.width">640</property>
  <property name="meta.media.0.codec.height">360</property>
  <property name="meta.media.0.codec.rotate">0</property>
  <property name="meta.media.0.codec.pix_fmt">yuv420p</property>
  <property name="meta.media.0.codec.sample_aspect_ratio">0</property>
  <property name="meta.media.0.codec.colorspace">601</property>
  <property name="meta.media.0.codec.name">h264</property>
  <property name="meta.media.0.codec.long_name">H.264 / AVC / MPEG-4 AVC / MPEG-4 part 10</property>
  <property name="meta.media.0.codec.bit_rate">3520608</property>
  <property name="meta.attr.0.stream.handler_name.markup">VideoHandler</property>
  <property name="meta.attr.0.stream.vendor_id.markup">FFMP</property>
  <property name="meta.attr.0.stream.encoder.markup">Lavc58.134.100 libx264</property>
  <property name="meta.attr.major_brand.markup">qt  </property>
  <property name="meta.attr.minor_version.markup">512</property>
  <property name="meta.attr.compatible_brands.markup">qt  </property>
  <property name="meta.attr.encoder.markup">Lavf58.76.100</property>
  <property name="meta.attr.comment.markup">Rendered with Manim Community v0.12.0</property>
  <property name="meta.media.sample_aspect_num">1</property>
  <property name="meta.media.sample_aspect_den">1</property>
  <property name="meta.media.frame_rate_num">60</property>
  <property name="meta.media.frame_rate_den">1</property>
  <property name="meta.media.colorspace">601</property>
  <property name="meta.media.color_trc">2</property>
  <property name="meta.media.has_b_frames">0</property>
  <property name="meta.media.width">640</property>
  <property name="meta.media.height">360</property>
  <property name="meta.media.color_range">mpeg</property>
 </producer>
 <producer id="producer347" in="00:00:00.000" out="00:00:03.283">
  <property name="length">198</property>
  <property name="eof">pause</property>
  <property name="resource">/home/xiaoxiae/.cache/kdenlive/proxy/89c5d69c3c2b53e225b386cea5be468a.mov</property>
  <property name="audio_index">-1</property>
  <property name="video_index">0</property>
  <property name="mute_on_pause">0</property>
  <property name="mlt_service">avformat-novalidate</property>
  <property name="seekable">1</property>
  <property name="aspect_ratio">1</property>
  <property name="kdenlive:clipname">7.mp4</property>
  <property name="kdenlive:folderid">373</property>
  <property name="kdenlive:id">379</property>
  <property name="kdenlive:file_size">348563</property>
  <property name="kdenlive:proxy">/home/xiaoxiae/.cache/kdenlive/proxy/89c5d69c3c2b53e225b386cea5be468a.mov</property>
  <property name="kdenlive:originalurl">video/TimeComplexity/vid/7.mp4</property>
  <property name="kdenlive:original.mlt_type">producer</property>
  <property name="kdenlive:original.in">0</property>
  <property name="kdenlive:original.out">197</property>
  <property name="kdenlive:original.length">198</property>
  <property name="kdenlive:original.eof">pause</property>
  <property name="kdenlive:original.resource">video/TimeComplexity/vid/7.mp4</property>
  <property name="kdenlive:original.meta.media.nb_streams">1</property>
  <property name="kdenlive:original.meta.media.0.stream.type">video</property>
  <property name="kdenlive:original.meta.media.0.stream.frame_rate">60</property>
  <property name="kdenlive:original.meta.media.0.stream.sample_aspect_ratio">0</property>
  <property name="kdenlive:original.meta.media.0.codec.width">3840</property>
  <property name="kdenlive:original.meta.media.0.codec.height">2160</property>
  <property name="kdenlive:original.meta.media.0.codec.rotate">0</property>
  <property name="kdenlive:original.meta.media.0.codec.pix_fmt">yuv420p</property>
  <property name="kdenlive:original.meta.media.0.codec.sample_aspect_ratio">0</property>
  <property name="kdenlive:original.meta.media.0.codec.colorspace">709</property>
  <property name="kdenlive:original.meta.media.0.codec.name">h264</property>
  <property name="kdenlive:original.meta.media.0.codec.long_name">H.264 / AVC / MPEG-4 AVC / MPEG-4 part 10</property>
  <property name="kdenlive:original.meta.media.0.codec.bit_rate">837010</property>
  <property name="kdenlive:original.meta.attr.0.stream.handler_name.markup">VideoHandler</property>
  <property name="kdenlive:original.meta.attr.0.stream.vendor_id.markup">[0][0][0][0]</property>
  <property name="kdenlive:original.meta.attr.major_brand.markup">isom</property>
  <property name="kdenlive:original.meta.attr.minor_version.markup">512</property>
  <property name="kdenlive:original.meta.attr.compatible_brands.markup">isomiso2avc1mp41</property>
  <property name="kdenlive:original.meta.attr.encoder.markup">Lavf58.76.100</property>
  <property name="kdenlive:original.meta.attr.comment.markup">Rendered with Manim Community v0.12.0</property>
  <property name="kdenlive:original.seekable">1</property>
  <property name="kdenlive:original.width">3840</property>
  <property name="kdenlive:original.height">2160</property>
  <property name="kdenlive:original.meta.media.sample_aspect_num">1</property>
  <property name="kdenlive:original.meta.media.sample_aspect_den">1</property>
  <property name="kdenlive:original.aspect_ratio">1</property>
  <property name="kdenlive:original.audio_index">-1</property>
  <property name="kdenlive:original.video_index">0</property>
  <property name="kdenlive:original.mute_on_pause">0</property>
  <property name="kdenlive:original.mlt_service">avformat-novalidate</property>
  <property name="kdenlive:original.kdenlive:folderid">373</property>
  <property name="kdenlive:original.meta.media.frame_rate_num">60</property>
  <property name="kdenlive:original.meta.media.frame_rate_den">1</property>
  <property name="kdenlive:original.meta.media.colorspace">709</property>
  <property name="kdenlive:original.meta.media.color_trc">2</property>
  <property name="kdenlive:original.meta.media.has_b_frames">2</property>
  <property name="kdenlive:original.meta.media.width">3840</property>
  <property name="kdenlive:original.meta.media.height">2160</property>
  <property name="kdenlive:original.meta.media.color_range">mpeg</property>
  <property name="kdenlive:original.kdenlive:id">380</property>
  <property name="kdenlive:original.kdenlive:file_size">348563</property>
  <property name="kdenlive:original.kdenlive:file_hash">89c5d69c3c2b53e225b386cea5be468a</property>
  <property name="kdenlive:original.backup">1</property>
  <property name="kdenlive:file_hash">89c5d69c3c2b53e225b386cea5be468a</property>
  <property name="meta.media.nb_streams">1</property>
  <property name="meta.media.0.stream.type">video</property>
  <property name="meta.media.0.stream.frame_rate">60</property>
  <property name="meta.media.0.stream.sample_aspect_ratio">0</property>
  <property name="meta.media.0.codec.width">640</property>
  <property name="meta.media.0.codec.height">360</property>
  <property name="meta.media.0.codec.rotate">0</property>
  <property name="meta.media.0.codec.pix_fmt">yuv420p</property>
  <property name="meta.media.0.codec.sample_aspect_ratio">0</property>
  <property name="meta.media.0.codec.colorspace">601</property>
  <property name="meta.media.0.codec.name">h264</property>
  <property name="meta.media.0.codec.long_name">H.264 / AVC / MPEG-4 AVC / MPEG-4 part 10</property>
  <property name="meta.media.0.codec.bit_rate">3900686</property>
  <property name="meta.attr.0.stream.handler_name.markup">VideoHandler</property>
  <property name="meta.attr.0.stream.vendor_id.markup">FFMP</property>
  <property name="meta.attr.0.stream.encoder.markup">Lavc58.134.100 libx264</property>
  <property name="meta.attr.major_brand.markup">qt  </property>
  <property name="meta.attr.minor_version.markup">512</property>
  <property name="meta.attr.compatible_brands.markup">qt  </property>
  <property name="meta.attr.encoder.markup">Lavf58.76.100</property>
  <property name="meta.attr.comment.markup">Rendered with Manim Community v0.12.0</property>
  <property name="meta.media.sample_aspect_num">1</property>
  <property name="meta.media.sample_aspect_den">1</property>
  <property name="meta.media.frame_rate_num">60</property>
  <property name="meta.media.frame_rate_den">1</property>
  <property name="meta.media.colorspace">601</property>
  <property name="meta.media.color_trc">2</property>
  <property name="meta.media.has_b_frames">0</property>
  <property name="meta.media.width">640</property>
  <property name="meta.media.height">360</property>
  <property name="meta.media.color_range">mpeg</property>
 </producer>
 <producer id="producer348" in="00:00:00.000" out="00:00:01.083">
  <property name="length">66</property>
  <property name="eof">pause</property>
  <property name="resource">/home/xiaoxiae/.cache/kdenlive/proxy/5c5ddff67d7825493c9490d33ef4f486.mov</property>
  <property name="audio_index">-1</property>
  <property name="video_index">0</property>
  <property name="mute_on_pause">0</property>
  <property name="mlt_service">avformat-novalidate</property>
  <property name="seekable">1</property>
  <property name="aspect_ratio">1</property>
  <property name="kdenlive:clipname">8.mp4</property>
  <property name="kdenlive:folderid">373</property>
  <property name="kdenlive:id">380</property>
  <property name="kdenlive:file_size">206912</property>
  <property name="kdenlive:proxy">/home/xiaoxiae/.cache/kdenlive/proxy/5c5ddff67d7825493c9490d33ef4f486.mov</property>
  <property name="kdenlive:originalurl">video/TimeComplexity/vid/8.mp4</property>
  <property name="kdenlive:original.mlt_type">producer</property>
  <property name="kdenlive:original.in">0</property>
  <property name="kdenlive:original.out">65</property>
  <property name="kdenlive:original.length">66</property>
  <property name="kdenlive:original.eof">pause</property>
  <property name="kdenlive:original.resource">video/TimeComplexity/vid/8.mp4</property>
  <property name="kdenlive:original.meta.media.nb_streams">1</property>
  <property name="kdenlive:original.meta.media.0.stream.type">video</property>
  <property name="kdenlive:original.meta.media.0.stream.frame_rate">60</property>
  <property name="kdenlive:original.meta.media.0.stream.sample_aspect_ratio">0</property>
  <property name="kdenlive:original.meta.media.0.codec.width">3840</property>
  <property name="kdenlive:original.meta.media.0.codec.height">2160</property>
  <property name="kdenlive:original.meta.media.0.codec.rotate">0</property>
  <property name="kdenlive:original.meta.media.0.codec.pix_fmt">yuv420p</property>
  <property name="kdenlive:original.meta.media.0.codec.sample_aspect_ratio">0</property>
  <property name="kdenlive:original.meta.media.0.codec.colorspace">709</property>
  <property name="kdenlive:original.meta.media.0.codec.name">h264</property>
  <property name="kdenlive:original.meta.media.0.codec.long_name">H.264 / AVC / MPEG-4 AVC / MPEG-4 part 10</property>
  <property name="kdenlive:original.meta.media.0.codec.bit_rate">1492363</property>
  <property name="kdenlive:original.meta.attr.0.stream.handler_name.markup">VideoHandler</property>
  <property name="kdenlive:original.meta.attr.0.stream.vendor_id.markup">[0][0][0][0]</property>
  <property name="kdenlive:original.meta.attr.major_brand.markup">isom</property>
  <property name="kdenlive:original.meta.attr.minor_version.markup">512</property>
  <property name="kdenlive:original.meta.attr.compatible_brands.markup">isomiso2avc1mp41</property>
  <property name="kdenlive:original.meta.attr.encoder.markup">Lavf58.76.100</property>
  <property name="kdenlive:original.meta.attr.comment.markup">Rendered with Manim Community v0.12.0</property>
  <property name="kdenlive:original.seekable">1</property>
  <property name="kdenlive:original.width">3840</property>
  <property name="kdenlive:original.height">2160</property>
  <property name="kdenlive:original.meta.media.sample_aspect_num">1</property>
  <property name="kdenlive:original.meta.media.sample_aspect_den">1</property>
  <property name="kdenlive:original.aspect_ratio">1</property>
  <property name="kdenlive:original.audio_index">-1</property>
  <property name="kdenlive:original.video_index">0</property>
  <property name="kdenlive:original.mute_on_pause">0</property>
  <property name="kdenlive:original.mlt_service">avformat-novalidate</property>
  <property name="kdenlive:original.kdenlive:folderid">373</property>
  <property name="kdenlive:original.meta.media.frame_rate_num">60</property>
  <property name="kdenlive:original.meta.media.frame_rate_den">1</property>
  <property name="kdenlive:original.meta.media.colorspace">709</property>
  <property name="kdenlive:original.meta.media.color_trc">2</property>
  <property name="kdenlive:original.meta.media.has_b_frames">2</property>
  <property name="kdenlive:original.meta.media.width">3840</property>
  <property name="kdenlive:original.meta.media.height">2160</property>
  <property name="kdenlive:original.meta.media.color_range">mpeg</property>
  <property name="kdenlive:original.kdenlive:id">381</property>
  <property name="kdenlive:original.kdenlive:file_size">206912</property>
  <property name="kdenlive:original.kdenlive:file_hash">5c5ddff67d7825493c9490d33ef4f486</property>
  <property name="kdenlive:original.backup">1</property>
  <property name="kdenlive:file_hash">5c5ddff67d7825493c9490d33ef4f486</property>
  <property name="meta.media.nb_streams">1</property>
  <property name="meta.media.0.stream.type">video</property>
  <property name="meta.media.0.stream.frame_rate">60</property>
  <property name="meta.media.0.stream.sample_aspect_ratio">0</property>
  <property name="meta.media.0.codec.width">640</property>
  <property name="meta.media.0.codec.height">360</property>
  <property name="meta.media.0.codec.rotate">0</property>
  <property name="meta.media.0.codec.pix_fmt">yuv420p</property>
  <property name="meta.media.0.codec.sample_aspect_ratio">0</property>
  <property name="meta.media.0.codec.colorspace">601</property>
  <property name="meta.media.0.codec.name">h264</property>
  <property name="meta.media.0.codec.long_name">H.264 / AVC / MPEG-4 AVC / MPEG-4 part 10</property>
  <property name="meta.media.0.codec.bit_rate">4615120</property>
  <property name="meta.attr.0.stream.handler_name.markup">VideoHandler</property>
  <property name="meta.attr.0.stream.vendor_id.markup">FFMP</property>
  <property name="meta.attr.0.stream.encoder.markup">Lavc58.134.100 libx264</property>
  <property name="meta.attr.major_brand.markup">qt  </property>
  <property name="meta.attr.minor_version.markup">512</property>
  <property name="meta.attr.compatible_brands.markup">qt  </property>
  <property name="meta.attr.encoder.markup">Lavf58.76.100</property>
  <property name="meta.attr.comment.markup">Rendered with Manim Community v0.12.0</property>
  <property name="meta.media.sample_aspect_num">1</property>
  <property name="meta.media.sample_aspect_den">1</property>
  <property name="meta.media.frame_rate_num">60</property>
  <property name="meta.media.frame_rate_den">1</property>
  <property name="meta.media.colorspace">601</property>
  <property name="meta.media.color_trc">2</property>
  <property name="meta.media.has_b_frames">0</property>
  <property name="meta.media.width">640</property>
  <property name="meta.media.height">360</property>
  <property name="meta.media.color_range">mpeg</property>
 </producer>
 <producer id="producer349" in="00:00:00.000" out="00:00:00.983">
  <property name="length">60</property>
  <property name="eof">pause</property>
  <property name="resource">/home/xiaoxiae/.cache/kdenlive/proxy/d791e11227852240cbd31befefb7963b.mov</property>
  <property name="audio_index">-1</property>
  <property name="video_index">0</property>
  <property name="mute_on_pause">0</property>
  <property name="mlt_service">avformat-novalidate</property>
  <property name="seekable">1</property>
  <property name="aspect_ratio">1</property>
  <property name="kdenlive:clipname">9.mp4</property>
  <property name="kdenlive:folderid">373</property>
  <property name="kdenlive:id">381</property>
  <property name="kdenlive:file_size">343652</property>
  <property name="kdenlive:proxy">/home/xiaoxiae/.cache/kdenlive/proxy/d791e11227852240cbd31befefb7963b.mov</property>
  <property name="kdenlive:originalurl">video/TimeComplexity/vid/9.mp4</property>
  <property name="kdenlive:original.mlt_type">producer</property>
  <property name="kdenlive:original.in">0</property>
  <property name="kdenlive:original.out">59</property>
  <property name="kdenlive:original.length">60</property>
  <property name="kdenlive:original.eof">pause</property>
  <property name="kdenlive:original.resource">video/TimeComplexity/vid/9.mp4</property>
  <property name="kdenlive:original.meta.media.nb_streams">1</property>
  <property name="kdenlive:original.meta.media.0.stream.type">video</property>
  <property name="kdenlive:original.meta.media.0.stream.frame_rate">60</property>
  <property name="kdenlive:original.meta.media.0.stream.sample_aspect_ratio">0</property>
  <property name="kdenlive:original.meta.media.0.codec.width">3840</property>
  <property name="kdenlive:original.meta.media.0.codec.height">2160</property>
  <property name="kdenlive:original.meta.media.0.codec.rotate">0</property>
  <property name="kdenlive:original.meta.media.0.codec.pix_fmt">yuv420p</property>
  <property name="kdenlive:original.meta.media.0.codec.sample_aspect_ratio">0</property>
  <property name="kdenlive:original.meta.media.0.codec.colorspace">709</property>
  <property name="kdenlive:original.meta.media.0.codec.name">h264</property>
  <property name="kdenlive:original.meta.media.0.codec.long_name">H.264 / AVC / MPEG-4 AVC / MPEG-4 part 10</property>
  <property name="kdenlive:original.meta.media.0.codec.bit_rate">2736288</property>
  <property name="kdenlive:original.meta.attr.0.stream.handler_name.markup">VideoHandler</property>
  <property name="kdenlive:original.meta.attr.0.stream.vendor_id.markup">[0][0][0][0]</property>
  <property name="kdenlive:original.meta.attr.major_brand.markup">isom</property>
  <property name="kdenlive:original.meta.attr.minor_version.markup">512</property>
  <property name="kdenlive:original.meta.attr.compatible_brands.markup">isomiso2avc1mp41</property>
  <property name="kdenlive:original.meta.attr.encoder.markup">Lavf58.76.100</property>
  <property name="kdenlive:original.meta.attr.comment.markup">Rendered with Manim Community v0.12.0</property>
  <property name="kdenlive:original.seekable">1</property>
  <property name="kdenlive:original.width">3840</property>
  <property name="kdenlive:original.height">2160</property>
  <property name="kdenlive:original.meta.media.sample_aspect_num">1</property>
  <property name="kdenlive:original.meta.media.sample_aspect_den">1</property>
  <property name="kdenlive:original.aspect_ratio">1</property>
  <property name="kdenlive:original.audio_index">-1</property>
  <property name="kdenlive:original.video_index">0</property>
  <property name="kdenlive:original.mute_on_pause">0</property>
  <property name="kdenlive:original.mlt_service">avformat-novalidate</property>
  <property name="kdenlive:original.kdenlive:folderid">373</property>
  <property name="kdenlive:original.meta.media.frame_rate_num">60</property>
  <property name="kdenlive:original.meta.media.frame_rate_den">1</property>
  <property name="kdenlive:original.meta.media.colorspace">709</property>
  <property name="kdenlive:original.meta.media.color_trc">2</property>
  <property name="kdenlive:original.meta.media.has_b_frames">2</property>
  <property name="kdenlive:original.meta.media.width">3840</property>
  <property name="kdenlive:original.meta.media.height">2160</property>
  <property name="kdenlive:original.meta.media.color_range">mpeg</property>
  <property name="kdenlive:original.kdenlive:id">382</property>
  <property name="kdenlive:original.kdenlive:file_size">343652</property>
  <property name="kdenlive:original.kdenlive:file_hash">d791e11227852240cbd31befefb7963b</property>
  <property name="kdenlive:original.backup">1</property>
  <property name="kdenlive:file_hash">d791e11227852240cbd31befefb7963b</property>
  <property name="meta.media.nb_streams">1</property>
  <property name="meta.media.0.stream.type">video</property>
  <property name="meta.media.0.stream.frame_rate">60</property>
  <property name="meta.media.0.stream.sample_aspect_ratio">0</property>
  <property name="meta.media.0.codec.width">640</property>
  <property name="meta.media.0.codec.height">360</property>
  <property name="meta.media.0.codec.rotate">0</property>
  <property name="meta.media.0.codec.pix_fmt">yuv420p</property>
  <property name="meta.media.0.codec.sample_aspect_ratio">0</property>
  <property name="meta.media.0.codec.colorspace">601</property>
  <property name="meta.media.0.codec.name">h264</property>
  <property name="meta.media.0.codec.long_name">H.264 / AVC / MPEG-4 AVC / MPEG-4 part 10</property>
  <property name="meta.media.0.codec.bit_rate">3384840</property>
  <property name="meta.attr.0.stream.handler_name.markup">VideoHandler</property>
  <property name="meta.attr.0.stream.vendor_id.markup">FFMP</property>
  <property name="meta.attr.0.stream.encoder.markup">Lavc58.134.100 libx264</property>
  <property name="meta.attr.major_brand.markup">qt  </property>
  <property name="meta.attr.minor_version.markup">512</property>
  <property name="meta.attr.compatible_brands.markup">qt  </property>
  <property name="meta.attr.encoder.markup">Lavf58.76.100</property>
  <property name="meta.attr.comment.markup">Rendered with Manim Community v0.12.0</property>
  <property name="meta.media.sample_aspect_num">1</property>
  <property name="meta.media.sample_aspect_den">1</property>
  <property name="meta.media.frame_rate_num">60</property>
  <property name="meta.media.frame_rate_den">1</property>
  <property name="meta.media.colorspace">601</property>
  <property name="meta.media.color_trc">2</property>
  <property name="meta.media.has_b_frames">0</property>
  <property name="meta.media.width">640</property>
  <property name="meta.media.height">360</property>
  <property name="meta.media.color_range">mpeg</property>
 </producer>
 <producer id="producer350" in="00:00:00.000" out="00:00:04.983">
  <property name="length">00:00:05.000</property>
  <property name="eof">pause</property>
  <property name="resource">/home/xiaoxiae/.cache/kdenlive/proxy/6b665121ca7b54a5f5307b69451fd23c.png</property>
  <property name="ttl">25</property>
  <property name="aspect_ratio">1</property>
  <property name="progressive">1</property>
  <property name="seekable">1</property>
  <property name="meta.media.width">800</property>
  <property name="meta.media.height">450</property>
  <property name="mlt_service">qimage</property>
  <property name="kdenlive:clipname">1.png</property>
  <property name="kdenlive:duration">00:00:05.000</property>
  <property name="kdenlive:folderid">384</property>
  <property name="kdenlive:id">382</property>
  <property name="kdenlive:file_size">24337</property>
  <property name="kdenlive:proxy">/home/xiaoxiae/.cache/kdenlive/proxy/6b665121ca7b54a5f5307b69451fd23c.png</property>
  <property name="kdenlive:originalurl">video/ToInfinity/img/1.png</property>
  <property name="kdenlive:original.mlt_type">producer</property>
  <property name="kdenlive:original.in">0</property>
  <property name="kdenlive:original.out">299</property>
  <property name="kdenlive:original.length">00:00:05.000</property>
  <property name="kdenlive:original.eof">pause</property>
  <property name="kdenlive:original.resource">video/ToInfinity/img/1.png</property>
  <property name="kdenlive:original.ttl">25</property>
  <property name="kdenlive:original.aspect_ratio">1</property>
  <property name="kdenlive:original.progressive">1</property>
  <property name="kdenlive:original.seekable">1</property>
  <property name="kdenlive:original.meta.media.width">3840</property>
  <property name="kdenlive:original.meta.media.height">2160</property>
  <property name="kdenlive:original.mlt_service">qimage</property>
  <property name="kdenlive:original.kdenlive:duration">00:00:05.000</property>
  <property name="kdenlive:original.kdenlive:folderid">384</property>
  <property name="kdenlive:original.kdenlive:id">385</property>
  <property name="kdenlive:original.kdenlive:file_size">24337</property>
  <property name="kdenlive:original.kdenlive:file_hash">6b665121ca7b54a5f5307b69451fd23c</property>
  <property name="kdenlive:original.backup">1</property>
  <property name="kdenlive:file_hash">6b665121ca7b54a5f5307b69451fd23c</property>
 </producer>
 <producer id="producer351" in="00:00:00.000" out="00:00:09.950">
  <property name="length">00:00:09.967</property>
  <property name="eof">pause</property>
  <property name="resource">/home/xiaoxiae/.cache/kdenlive/proxy/2275a214a5e41851a8d9f756f7444973.png</property>
  <property name="ttl">25</property>
  <property name="aspect_ratio">1</property>
  <property name="progressive">1</property>
  <property name="seekable">1</property>
  <property name="meta.media.width">800</property>
  <property name="meta.media.height">450</property>
  <property name="mlt_service">qimage</property>
  <property name="kdenlive:clipname">10.png</property>
  <property name="kdenlive:duration">00:00:05.000</property>
  <property name="kdenlive:folderid">384</property>
  <property name="kdenlive:id">385</property>
  <property name="kdenlive:file_size">285871</property>
  <property name="kdenlive:proxy">/home/xiaoxiae/.cache/kdenlive/proxy/2275a214a5e41851a8d9f756f7444973.png</property>
  <property name="kdenlive:originalurl">video/ToInfinity/img/10.png</property>
  <property name="kdenlive:original.mlt_type">producer</property>
  <property name="kdenlive:original.in">0</property>
  <property name="kdenlive:original.out">299</property>
  <property name="kdenlive:original.length">00:00:05.000</property>
  <property name="kdenlive:original.eof">pause</property>
  <property name="kdenlive:original.resource">video/ToInfinity/img/10.png</property>
  <property name="kdenlive:original.ttl">25</property>
  <property name="kdenlive:original.aspect_ratio">1</property>
  <property name="kdenlive:original.progressive">1</property>
  <property name="kdenlive:original.seekable">1</property>
  <property name="kdenlive:original.meta.media.width">3840</property>
  <property name="kdenlive:original.meta.media.height">2160</property>
  <property name="kdenlive:original.mlt_service">qimage</property>
  <property name="kdenlive:original.kdenlive:duration">00:00:05.000</property>
  <property name="kdenlive:original.kdenlive:folderid">384</property>
  <property name="kdenlive:original.kdenlive:id">386</property>
  <property name="kdenlive:original.kdenlive:file_size">285871</property>
  <property name="kdenlive:original.kdenlive:file_hash">2275a214a5e41851a8d9f756f7444973</property>
  <property name="kdenlive:original.backup">1</property>
  <property name="kdenlive:file_hash">2275a214a5e41851a8d9f756f7444973</property>
 </producer>
 <producer id="producer353" in="00:00:00.000" out="00:00:04.983">
  <property name="length">00:00:05.000</property>
  <property name="eof">pause</property>
  <property name="resource">/home/xiaoxiae/.cache/kdenlive/proxy/30db09f557e75b2874d9d4cd2a708dca.png</property>
  <property name="ttl">25</property>
  <property name="aspect_ratio">1</property>
  <property name="progressive">1</property>
  <property name="seekable">1</property>
  <property name="meta.media.width">800</property>
  <property name="meta.media.height">450</property>
  <property name="mlt_service">qimage</property>
  <property name="kdenlive:clipname">11.png</property>
  <property name="kdenlive:duration">00:00:05.000</property>
  <property name="kdenlive:folderid">384</property>
  <property name="kdenlive:id">386</property>
  <property name="kdenlive:file_size">327335</property>
  <property name="kdenlive:proxy">/home/xiaoxiae/.cache/kdenlive/proxy/30db09f557e75b2874d9d4cd2a708dca.png</property>
  <property name="kdenlive:originalurl">video/ToInfinity/img/11.png</property>
  <property name="kdenlive:original.mlt_type">producer</property>
  <property name="kdenlive:original.in">0</property>
  <property name="kdenlive:original.out">299</property>
  <property name="kdenlive:original.length">00:00:05.000</property>
  <property name="kdenlive:original.eof">pause</property>
  <property name="kdenlive:original.resource">video/ToInfinity/img/11.png</property>
  <property name="kdenlive:original.ttl">25</property>
  <property name="kdenlive:original.aspect_ratio">1</property>
  <property name="kdenlive:original.progressive">1</property>
  <property name="kdenlive:original.seekable">1</property>
  <property name="kdenlive:original.meta.media.width">3840</property>
  <property name="kdenlive:original.meta.media.height">2160</property>
  <property name="kdenlive:original.mlt_service">qimage</property>
  <property name="kdenlive:original.kdenlive:duration">00:00:05.000</property>
  <property name="kdenlive:original.kdenlive:folderid">384</property>
  <property name="kdenlive:original.kdenlive:id">387</property>
  <property name="kdenlive:original.kdenlive:file_size">327335</property>
  <property name="kdenlive:original.kdenlive:file_hash">30db09f557e75b2874d9d4cd2a708dca</property>
  <property name="kdenlive:original.backup">1</property>
  <property name="kdenlive:file_hash">30db09f557e75b2874d9d4cd2a708dca</property>
 </producer>
 <producer id="producer352" in="00:00:00.000" out="00:00:05.383">
  <property name="length">00:00:05.400</property>
  <property name="eof">pause</property>
  <property name="resource">/home/xiaoxiae/.cache/kdenlive/proxy/71c42d43a28b3a61c13154f5a07f764e.png</property>
  <property name="ttl">25</property>
  <property name="aspect_ratio">1</property>
  <property name="progressive">1</property>
  <property name="seekable">1</property>
  <property name="meta.media.width">800</property>
  <property name="meta.media.height">450</property>
  <property name="mlt_service">qimage</property>
  <property name="kdenlive:clipname">12.png</property>
  <property name="kdenlive:duration">00:00:05.000</property>
  <property name="kdenlive:folderid">384</property>
  <property name="kdenlive:id">387</property>
  <property name="kdenlive:file_size">353744</property>
  <property name="kdenlive:proxy">/home/xiaoxiae/.cache/kdenlive/proxy/71c42d43a28b3a61c13154f5a07f764e.png</property>
  <property name="kdenlive:originalurl">video/ToInfinity/img/12.png</property>
  <property name="kdenlive:original.mlt_type">producer</property>
  <property name="kdenlive:original.in">0</property>
  <property name="kdenlive:original.out">299</property>
  <property name="kdenlive:original.length">00:00:05.000</property>
  <property name="kdenlive:original.eof">pause</property>
  <property name="kdenlive:original.resource">video/ToInfinity/img/12.png</property>
  <property name="kdenlive:original.ttl">25</property>
  <property name="kdenlive:original.aspect_ratio">1</property>
  <property name="kdenlive:original.progressive">1</property>
  <property name="kdenlive:original.seekable">1</property>
  <property name="kdenlive:original.meta.media.width">3840</property>
  <property name="kdenlive:original.meta.media.height">2160</property>
  <property name="kdenlive:original.mlt_service">qimage</property>
  <property name="kdenlive:original.kdenlive:duration">00:00:05.000</property>
  <property name="kdenlive:original.kdenlive:folderid">384</property>
  <property name="kdenlive:original.kdenlive:id">388</property>
  <property name="kdenlive:original.kdenlive:file_size">353744</property>
  <property name="kdenlive:original.kdenlive:file_hash">71c42d43a28b3a61c13154f5a07f764e</property>
  <property name="kdenlive:original.backup">1</property>
  <property name="kdenlive:file_hash">71c42d43a28b3a61c13154f5a07f764e</property>
 </producer>
 <producer id="producer354" in="00:00:00.000" out="00:00:04.983">
  <property name="length">00:00:05.000</property>
  <property name="eof">pause</property>
  <property name="resource">/home/xiaoxiae/.cache/kdenlive/proxy/65fc82bd2a08286c1b458c11ef91da28.png</property>
  <property name="ttl">25</property>
  <property name="aspect_ratio">1</property>
  <property name="progressive">1</property>
  <property name="seekable">1</property>
  <property name="meta.media.width">800</property>
  <property name="meta.media.height">450</property>
  <property name="mlt_service">qimage</property>
  <property name="kdenlive:clipname">13.png</property>
  <property name="kdenlive:duration">00:00:05.000</property>
  <property name="kdenlive:folderid">384</property>
  <property name="kdenlive:id">388</property>
  <property name="kdenlive:file_size">423990</property>
  <property name="kdenlive:proxy">/home/xiaoxiae/.cache/kdenlive/proxy/65fc82bd2a08286c1b458c11ef91da28.png</property>
  <property name="kdenlive:originalurl">video/ToInfinity/img/13.png</property>
  <property name="kdenlive:original.mlt_type">producer</property>
  <property name="kdenlive:original.in">0</property>
  <property name="kdenlive:original.out">299</property>
  <property name="kdenlive:original.length">00:00:05.000</property>
  <property name="kdenlive:original.eof">pause</property>
  <property name="kdenlive:original.resource">video/ToInfinity/img/13.png</property>
  <property name="kdenlive:original.ttl">25</property>
  <property name="kdenlive:original.aspect_ratio">1</property>
  <property name="kdenlive:original.progressive">1</property>
  <property name="kdenlive:original.seekable">1</property>
  <property name="kdenlive:original.meta.media.width">3840</property>
  <property name="kdenlive:original.meta.media.height">2160</property>
  <property name="kdenlive:original.mlt_service">qimage</property>
  <property name="kdenlive:original.kdenlive:duration">00:00:05.000</property>
  <property name="kdenlive:original.kdenlive:folderid">384</property>
  <property name="kdenlive:original.kdenlive:id">389</property>
  <property name="kdenlive:original.kdenlive:file_size">423990</property>
  <property name="kdenlive:original.kdenlive:file_hash">65fc82bd2a08286c1b458c11ef91da28</property>
  <property name="kdenlive:original.backup">1</property>
  <property name="kdenlive:file_hash">65fc82bd2a08286c1b458c11ef91da28</property>
 </producer>
 <producer id="producer355" in="00:00:00.000" out="00:00:04.983">
  <property name="length">00:00:05.000</property>
  <property name="eof">pause</property>
  <property name="resource">/home/xiaoxiae/.cache/kdenlive/proxy/3d5ccf6b0df2ad88fc814932f30807ae.png</property>
  <property name="ttl">25</property>
  <property name="aspect_ratio">1</property>
  <property name="progressive">1</property>
  <property name="seekable">1</property>
  <property name="meta.media.width">800</property>
  <property name="meta.media.height">450</property>
  <property name="mlt_service">qimage</property>
  <property name="kdenlive:clipname">14.png</property>
  <property name="kdenlive:duration">00:00:05.000</property>
  <property name="kdenlive:folderid">384</property>
  <property name="kdenlive:id">389</property>
  <property name="kdenlive:file_size">501701</property>
  <property name="kdenlive:proxy">/home/xiaoxiae/.cache/kdenlive/proxy/3d5ccf6b0df2ad88fc814932f30807ae.png</property>
  <property name="kdenlive:originalurl">video/ToInfinity/img/14.png</property>
  <property name="kdenlive:original.mlt_type">producer</property>
  <property name="kdenlive:original.in">0</property>
  <property name="kdenlive:original.out">299</property>
  <property name="kdenlive:original.length">00:00:05.000</property>
  <property name="kdenlive:original.eof">pause</property>
  <property name="kdenlive:original.resource">video/ToInfinity/img/14.png</property>
  <property name="kdenlive:original.ttl">25</property>
  <property name="kdenlive:original.aspect_ratio">1</property>
  <property name="kdenlive:original.progressive">1</property>
  <property name="kdenlive:original.seekable">1</property>
  <property name="kdenlive:original.meta.media.width">3840</property>
  <property name="kdenlive:original.meta.media.height">2160</property>
  <property name="kdenlive:original.mlt_service">qimage</property>
  <property name="kdenlive:original.kdenlive:duration">00:00:05.000</property>
  <property name="kdenlive:original.kdenlive:folderid">384</property>
  <property name="kdenlive:original.kdenlive:id">390</property>
  <property name="kdenlive:original.kdenlive:file_size">501701</property>
  <property name="kdenlive:original.kdenlive:file_hash">3d5ccf6b0df2ad88fc814932f30807ae</property>
  <property name="kdenlive:original.backup">1</property>
  <property name="kdenlive:file_hash">3d5ccf6b0df2ad88fc814932f30807ae</property>
 </producer>
 <producer id="producer356" in="00:00:00.000" out="00:00:04.983">
  <property name="length">00:00:05.000</property>
  <property name="eof">pause</property>
  <property name="resource">/home/xiaoxiae/.cache/kdenlive/proxy/c45f88747cd75b6f6694a6829cebbf47.png</property>
  <property name="ttl">25</property>
  <property name="aspect_ratio">1</property>
  <property name="progressive">1</property>
  <property name="seekable">1</property>
  <property name="meta.media.width">800</property>
  <property name="meta.media.height">450</property>
  <property name="mlt_service">qimage</property>
  <property name="kdenlive:clipname">2.png</property>
  <property name="kdenlive:duration">00:00:05.000</property>
  <property name="kdenlive:folderid">384</property>
  <property name="kdenlive:file_size">30758</property>
  <property name="kdenlive:id">390</property>
  <property name="kdenlive:proxy">/home/xiaoxiae/.cache/kdenlive/proxy/c45f88747cd75b6f6694a6829cebbf47.png</property>
  <property name="kdenlive:originalurl">video/ToInfinity/img/2.png</property>
  <property name="kdenlive:original.mlt_type">producer</property>
  <property name="kdenlive:original.in">0</property>
  <property name="kdenlive:original.out">299</property>
  <property name="kdenlive:original.length">00:00:05.000</property>
  <property name="kdenlive:original.eof">pause</property>
  <property name="kdenlive:original.resource">video/ToInfinity/img/2.png</property>
  <property name="kdenlive:original.ttl">25</property>
  <property name="kdenlive:original.aspect_ratio">1</property>
  <property name="kdenlive:original.progressive">1</property>
  <property name="kdenlive:original.seekable">1</property>
  <property name="kdenlive:original.meta.media.width">3840</property>
  <property name="kdenlive:original.meta.media.height">2160</property>
  <property name="kdenlive:original.mlt_service">qimage</property>
  <property name="kdenlive:original.kdenlive:duration">00:00:05.000</property>
  <property name="kdenlive:original.kdenlive:folderid">384</property>
  <property name="kdenlive:original.kdenlive:file_size">30758</property>
  <property name="kdenlive:original.kdenlive:id">391</property>
  <property name="kdenlive:original.kdenlive:file_hash">c45f88747cd75b6f6694a6829cebbf47</property>
  <property name="kdenlive:original.backup">1</property>
  <property name="kdenlive:file_hash">c45f88747cd75b6f6694a6829cebbf47</property>
 </producer>
 <producer id="producer357" in="00:00:00.000" out="00:00:04.983">
  <property name="length">00:00:05.000</property>
  <property name="eof">pause</property>
  <property name="resource">/home/xiaoxiae/.cache/kdenlive/proxy/339b8c24874ba6e083197a9d3ce7cd51.png</property>
  <property name="ttl">25</property>
  <property name="aspect_ratio">1</property>
  <property name="progressive">1</property>
  <property name="seekable">1</property>
  <property name="meta.media.width">800</property>
  <property name="meta.media.height">450</property>
  <property name="mlt_service">qimage</property>
  <property name="kdenlive:clipname">3.png</property>
  <property name="kdenlive:duration">00:00:05.000</property>
  <property name="kdenlive:folderid">384</property>
  <property name="kdenlive:id">391</property>
  <property name="kdenlive:file_size">74824</property>
  <property name="kdenlive:proxy">/home/xiaoxiae/.cache/kdenlive/proxy/339b8c24874ba6e083197a9d3ce7cd51.png</property>
  <property name="kdenlive:originalurl">video/ToInfinity/img/3.png</property>
  <property name="kdenlive:original.mlt_type">producer</property>
  <property name="kdenlive:original.in">0</property>
  <property name="kdenlive:original.out">299</property>
  <property name="kdenlive:original.length">00:00:05.000</property>
  <property name="kdenlive:original.eof">pause</property>
  <property name="kdenlive:original.resource">video/ToInfinity/img/3.png</property>
  <property name="kdenlive:original.ttl">25</property>
  <property name="kdenlive:original.aspect_ratio">1</property>
  <property name="kdenlive:original.progressive">1</property>
  <property name="kdenlive:original.seekable">1</property>
  <property name="kdenlive:original.meta.media.width">3840</property>
  <property name="kdenlive:original.meta.media.height">2160</property>
  <property name="kdenlive:original.mlt_service">qimage</property>
  <property name="kdenlive:original.kdenlive:duration">00:00:05.000</property>
  <property name="kdenlive:original.kdenlive:folderid">384</property>
  <property name="kdenlive:original.kdenlive:id">392</property>
  <property name="kdenlive:original.kdenlive:file_size">74824</property>
  <property name="kdenlive:original.kdenlive:file_hash">339b8c24874ba6e083197a9d3ce7cd51</property>
  <property name="kdenlive:original.backup">1</property>
  <property name="kdenlive:file_hash">339b8c24874ba6e083197a9d3ce7cd51</property>
 </producer>
 <producer id="producer358" in="00:00:00.000" out="00:00:04.983">
  <property name="length">00:00:05.000</property>
  <property name="eof">pause</property>
  <property name="resource">/home/xiaoxiae/.cache/kdenlive/proxy/5cc71c116ef0c436e7b7df5ed0ea4958.png</property>
  <property name="ttl">25</property>
  <property name="aspect_ratio">1</property>
  <property name="progressive">1</property>
  <property name="seekable">1</property>
  <property name="meta.media.width">800</property>
  <property name="meta.media.height">450</property>
  <property name="mlt_service">qimage</property>
  <property name="kdenlive:clipname">4.png</property>
  <property name="kdenlive:duration">00:00:05.000</property>
  <property name="kdenlive:folderid">384</property>
  <property name="kdenlive:id">392</property>
  <property name="kdenlive:file_size">133118</property>
  <property name="kdenlive:proxy">/home/xiaoxiae/.cache/kdenlive/proxy/5cc71c116ef0c436e7b7df5ed0ea4958.png</property>
  <property name="kdenlive:originalurl">video/ToInfinity/img/4.png</property>
  <property name="kdenlive:original.mlt_type">producer</property>
  <property name="kdenlive:original.in">0</property>
  <property name="kdenlive:original.out">299</property>
  <property name="kdenlive:original.length">00:00:05.000</property>
  <property name="kdenlive:original.eof">pause</property>
  <property name="kdenlive:original.resource">video/ToInfinity/img/4.png</property>
  <property name="kdenlive:original.ttl">25</property>
  <property name="kdenlive:original.aspect_ratio">1</property>
  <property name="kdenlive:original.progressive">1</property>
  <property name="kdenlive:original.seekable">1</property>
  <property name="kdenlive:original.meta.media.width">3840</property>
  <property name="kdenlive:original.meta.media.height">2160</property>
  <property name="kdenlive:original.mlt_service">qimage</property>
  <property name="kdenlive:original.kdenlive:duration">00:00:05.000</property>
  <property name="kdenlive:original.kdenlive:folderid">384</property>
  <property name="kdenlive:original.kdenlive:id">393</property>
  <property name="kdenlive:original.kdenlive:file_size">133118</property>
  <property name="kdenlive:original.kdenlive:file_hash">5cc71c116ef0c436e7b7df5ed0ea4958</property>
  <property name="kdenlive:original.backup">1</property>
  <property name="kdenlive:file_hash">5cc71c116ef0c436e7b7df5ed0ea4958</property>
 </producer>
 <producer id="producer359" in="00:00:00.000" out="00:00:04.983">
  <property name="length">00:00:05.000</property>
  <property name="eof">pause</property>
  <property name="resource">/home/xiaoxiae/.cache/kdenlive/proxy/560e69b6531d9aaf07ad625e247a4dc7.png</property>
  <property name="ttl">25</property>
  <property name="aspect_ratio">1</property>
  <property name="progressive">1</property>
  <property name="seekable">1</property>
  <property name="meta.media.width">800</property>
  <property name="meta.media.height">450</property>
  <property name="mlt_service">qimage</property>
  <property name="kdenlive:clipname">5.png</property>
  <property name="kdenlive:duration">00:00:05.000</property>
  <property name="kdenlive:folderid">384</property>
  <property name="kdenlive:file_size">117371</property>
  <property name="kdenlive:id">393</property>
  <property name="kdenlive:proxy">/home/xiaoxiae/.cache/kdenlive/proxy/560e69b6531d9aaf07ad625e247a4dc7.png</property>
  <property name="kdenlive:originalurl">video/ToInfinity/img/5.png</property>
  <property name="kdenlive:original.mlt_type">producer</property>
  <property name="kdenlive:original.in">0</property>
  <property name="kdenlive:original.out">299</property>
  <property name="kdenlive:original.length">00:00:05.000</property>
  <property name="kdenlive:original.eof">pause</property>
  <property name="kdenlive:original.resource">video/ToInfinity/img/5.png</property>
  <property name="kdenlive:original.ttl">25</property>
  <property name="kdenlive:original.aspect_ratio">1</property>
  <property name="kdenlive:original.progressive">1</property>
  <property name="kdenlive:original.seekable">1</property>
  <property name="kdenlive:original.meta.media.width">3840</property>
  <property name="kdenlive:original.meta.media.height">2160</property>
  <property name="kdenlive:original.mlt_service">qimage</property>
  <property name="kdenlive:original.kdenlive:duration">00:00:05.000</property>
  <property name="kdenlive:original.kdenlive:folderid">384</property>
  <property name="kdenlive:original.kdenlive:file_size">117371</property>
  <property name="kdenlive:original.kdenlive:id">394</property>
  <property name="kdenlive:original.kdenlive:file_hash">560e69b6531d9aaf07ad625e247a4dc7</property>
  <property name="kdenlive:original.backup">1</property>
  <property name="kdenlive:file_hash">560e69b6531d9aaf07ad625e247a4dc7</property>
 </producer>
 <producer id="producer360" in="00:00:00.000" out="00:00:04.983">
  <property name="length">00:00:05.000</property>
  <property name="eof">pause</property>
  <property name="resource">/home/xiaoxiae/.cache/kdenlive/proxy/2f53c76472d5205822b5a5405851e660.png</property>
  <property name="ttl">25</property>
  <property name="aspect_ratio">1</property>
  <property name="progressive">1</property>
  <property name="seekable">1</property>
  <property name="meta.media.width">800</property>
  <property name="meta.media.height">450</property>
  <property name="mlt_service">qimage</property>
  <property name="kdenlive:clipname">6.png</property>
  <property name="kdenlive:duration">00:00:05.000</property>
  <property name="kdenlive:folderid">384</property>
  <property name="kdenlive:file_size">191036</property>
  <property name="kdenlive:id">394</property>
  <property name="kdenlive:proxy">/home/xiaoxiae/.cache/kdenlive/proxy/2f53c76472d5205822b5a5405851e660.png</property>
  <property name="kdenlive:originalurl">video/ToInfinity/img/6.png</property>
  <property name="kdenlive:original.mlt_type">producer</property>
  <property name="kdenlive:original.in">0</property>
  <property name="kdenlive:original.out">299</property>
  <property name="kdenlive:original.length">00:00:05.000</property>
  <property name="kdenlive:original.eof">pause</property>
  <property name="kdenlive:original.resource">video/ToInfinity/img/6.png</property>
  <property name="kdenlive:original.ttl">25</property>
  <property name="kdenlive:original.aspect_ratio">1</property>
  <property name="kdenlive:original.progressive">1</property>
  <property name="kdenlive:original.seekable">1</property>
  <property name="kdenlive:original.meta.media.width">3840</property>
  <property name="kdenlive:original.meta.media.height">2160</property>
  <property name="kdenlive:original.mlt_service">qimage</property>
  <property name="kdenlive:original.kdenlive:duration">00:00:05.000</property>
  <property name="kdenlive:original.kdenlive:folderid">384</property>
  <property name="kdenlive:original.kdenlive:file_size">191036</property>
  <property name="kdenlive:original.kdenlive:id">395</property>
  <property name="kdenlive:original.kdenlive:file_hash">2f53c76472d5205822b5a5405851e660</property>
  <property name="kdenlive:original.backup">1</property>
  <property name="kdenlive:file_hash">2f53c76472d5205822b5a5405851e660</property>
 </producer>
 <producer id="producer361" in="00:00:00.000" out="00:00:08.150">
  <property name="length">00:00:08.167</property>
  <property name="eof">pause</property>
  <property name="resource">/home/xiaoxiae/.cache/kdenlive/proxy/a6d2d7829eb0192c0fcfe7ccecc24390.png</property>
  <property name="ttl">25</property>
  <property name="aspect_ratio">1</property>
  <property name="progressive">1</property>
  <property name="seekable">1</property>
  <property name="meta.media.width">800</property>
  <property name="meta.media.height">450</property>
  <property name="mlt_service">qimage</property>
  <property name="kdenlive:clipname">7.png</property>
  <property name="kdenlive:duration">00:00:05.000</property>
  <property name="kdenlive:folderid">384</property>
  <property name="kdenlive:id">395</property>
  <property name="kdenlive:file_size">281841</property>
  <property name="kdenlive:proxy">/home/xiaoxiae/.cache/kdenlive/proxy/a6d2d7829eb0192c0fcfe7ccecc24390.png</property>
  <property name="kdenlive:originalurl">video/ToInfinity/img/7.png</property>
  <property name="kdenlive:original.mlt_type">producer</property>
  <property name="kdenlive:original.in">0</property>
  <property name="kdenlive:original.out">299</property>
  <property name="kdenlive:original.length">00:00:05.000</property>
  <property name="kdenlive:original.eof">pause</property>
  <property name="kdenlive:original.resource">video/ToInfinity/img/7.png</property>
  <property name="kdenlive:original.ttl">25</property>
  <property name="kdenlive:original.aspect_ratio">1</property>
  <property name="kdenlive:original.progressive">1</property>
  <property name="kdenlive:original.seekable">1</property>
  <property name="kdenlive:original.meta.media.width">3840</property>
  <property name="kdenlive:original.meta.media.height">2160</property>
  <property name="kdenlive:original.mlt_service">qimage</property>
  <property name="kdenlive:original.kdenlive:duration">00:00:05.000</property>
  <property name="kdenlive:original.kdenlive:folderid">384</property>
  <property name="kdenlive:original.kdenlive:id">396</property>
  <property name="kdenlive:original.kdenlive:file_size">281841</property>
  <property name="kdenlive:original.kdenlive:file_hash">a6d2d7829eb0192c0fcfe7ccecc24390</property>
  <property name="kdenlive:original.backup">1</property>
  <property name="kdenlive:file_hash">a6d2d7829eb0192c0fcfe7ccecc24390</property>
 </producer>
 <producer id="producer363" in="00:00:00.000" out="00:00:04.983">
  <property name="length">00:00:05.000</property>
  <property name="eof">pause</property>
  <property name="resource">/home/xiaoxiae/.cache/kdenlive/proxy/3eaa47cf859bf49e23d67e5db6b8529e.png</property>
  <property name="ttl">25</property>
  <property name="aspect_ratio">1</property>
  <property name="progressive">1</property>
  <property name="seekable">1</property>
  <property name="meta.media.width">800</property>
  <property name="meta.media.height">450</property>
  <property name="mlt_service">qimage</property>
  <property name="kdenlive:clipname">8.png</property>
  <property name="kdenlive:duration">00:00:05.000</property>
  <property name="kdenlive:folderid">384</property>
  <property name="kdenlive:file_size">276552</property>
  <property name="kdenlive:id">396</property>
  <property name="kdenlive:proxy">/home/xiaoxiae/.cache/kdenlive/proxy/3eaa47cf859bf49e23d67e5db6b8529e.png</property>
  <property name="kdenlive:originalurl">video/ToInfinity/img/8.png</property>
  <property name="kdenlive:original.mlt_type">producer</property>
  <property name="kdenlive:original.in">0</property>
  <property name="kdenlive:original.out">299</property>
  <property name="kdenlive:original.length">00:00:05.000</property>
  <property name="kdenlive:original.eof">pause</property>
  <property name="kdenlive:original.resource">video/ToInfinity/img/8.png</property>
  <property name="kdenlive:original.ttl">25</property>
  <property name="kdenlive:original.aspect_ratio">1</property>
  <property name="kdenlive:original.progressive">1</property>
  <property name="kdenlive:original.seekable">1</property>
  <property name="kdenlive:original.meta.media.width">3840</property>
  <property name="kdenlive:original.meta.media.height">2160</property>
  <property name="kdenlive:original.mlt_service">qimage</property>
  <property name="kdenlive:original.kdenlive:duration">00:00:05.000</property>
  <property name="kdenlive:original.kdenlive:folderid">384</property>
  <property name="kdenlive:original.kdenlive:file_size">276552</property>
  <property name="kdenlive:original.kdenlive:id">397</property>
  <property name="kdenlive:original.kdenlive:file_hash">3eaa47cf859bf49e23d67e5db6b8529e</property>
  <property name="kdenlive:original.backup">1</property>
  <property name="kdenlive:file_hash">3eaa47cf859bf49e23d67e5db6b8529e</property>
 </producer>
 <producer id="producer364" in="00:00:00.000" out="00:00:04.983">
  <property name="length">00:00:05.000</property>
  <property name="eof">pause</property>
  <property name="resource">/home/xiaoxiae/.cache/kdenlive/proxy/ccf33406a0fb0fd2eebbe86245ba8466.png</property>
  <property name="ttl">25</property>
  <property name="aspect_ratio">1</property>
  <property name="progressive">1</property>
  <property name="seekable">1</property>
  <property name="meta.media.width">800</property>
  <property name="meta.media.height">450</property>
  <property name="mlt_service">qimage</property>
  <property name="kdenlive:clipname">9.png</property>
  <property name="kdenlive:duration">00:00:05.000</property>
  <property name="kdenlive:folderid">384</property>
  <property name="kdenlive:id">397</property>
  <property name="kdenlive:file_size">339476</property>
  <property name="kdenlive:proxy">/home/xiaoxiae/.cache/kdenlive/proxy/ccf33406a0fb0fd2eebbe86245ba8466.png</property>
  <property name="kdenlive:originalurl">video/ToInfinity/img/9.png</property>
  <property name="kdenlive:original.mlt_type">producer</property>
  <property name="kdenlive:original.in">0</property>
  <property name="kdenlive:original.out">299</property>
  <property name="kdenlive:original.length">00:00:05.000</property>
  <property name="kdenlive:original.eof">pause</property>
  <property name="kdenlive:original.resource">video/ToInfinity/img/9.png</property>
  <property name="kdenlive:original.ttl">25</property>
  <property name="kdenlive:original.aspect_ratio">1</property>
  <property name="kdenlive:original.progressive">1</property>
  <property name="kdenlive:original.seekable">1</property>
  <property name="kdenlive:original.meta.media.width">3840</property>
  <property name="kdenlive:original.meta.media.height">2160</property>
  <property name="kdenlive:original.mlt_service">qimage</property>
  <property name="kdenlive:original.kdenlive:duration">00:00:05.000</property>
  <property name="kdenlive:original.kdenlive:folderid">384</property>
  <property name="kdenlive:original.kdenlive:id">398</property>
  <property name="kdenlive:original.kdenlive:file_size">339476</property>
  <property name="kdenlive:original.kdenlive:file_hash">ccf33406a0fb0fd2eebbe86245ba8466</property>
  <property name="kdenlive:original.backup">1</property>
  <property name="kdenlive:file_hash">ccf33406a0fb0fd2eebbe86245ba8466</property>
 </producer>
 <producer id="producer362" in="00:00:00.000" out="00:00:00.983">
  <property name="length">60</property>
  <property name="eof">pause</property>
  <property name="resource">/home/xiaoxiae/.cache/kdenlive/proxy/51c693276bcd937dc409779af0369cde.mov</property>
  <property name="audio_index">-1</property>
  <property name="video_index">0</property>
  <property name="mute_on_pause">0</property>
  <property name="mlt_service">avformat-novalidate</property>
  <property name="seekable">1</property>
  <property name="aspect_ratio">1</property>
  <property name="kdenlive:clipname">1.mp4</property>
  <property name="kdenlive:folderid">399</property>
  <property name="kdenlive:id">398</property>
  <property name="kdenlive:file_size">26152</property>
  <property name="kdenlive:proxy">/home/xiaoxiae/.cache/kdenlive/proxy/51c693276bcd937dc409779af0369cde.mov</property>
  <property name="kdenlive:originalurl">video/ToInfinity/vid/1.mp4</property>
  <property name="kdenlive:original.mlt_type">producer</property>
  <property name="kdenlive:original.in">0</property>
  <property name="kdenlive:original.out">59</property>
  <property name="kdenlive:original.length">60</property>
  <property name="kdenlive:original.eof">pause</property>
  <property name="kdenlive:original.resource">video/ToInfinity/vid/1.mp4</property>
  <property name="kdenlive:original.meta.media.nb_streams">1</property>
  <property name="kdenlive:original.meta.media.0.stream.type">video</property>
  <property name="kdenlive:original.meta.media.0.stream.frame_rate">60</property>
  <property name="kdenlive:original.meta.media.0.stream.sample_aspect_ratio">0</property>
  <property name="kdenlive:original.meta.media.0.codec.width">3840</property>
  <property name="kdenlive:original.meta.media.0.codec.height">2160</property>
  <property name="kdenlive:original.meta.media.0.codec.rotate">0</property>
  <property name="kdenlive:original.meta.media.0.codec.pix_fmt">yuv420p</property>
  <property name="kdenlive:original.meta.media.0.codec.sample_aspect_ratio">0</property>
  <property name="kdenlive:original.meta.media.0.codec.colorspace">709</property>
  <property name="kdenlive:original.meta.media.0.codec.name">h264</property>
  <property name="kdenlive:original.meta.media.0.codec.long_name">H.264 / AVC / MPEG-4 AVC / MPEG-4 part 10</property>
  <property name="kdenlive:original.meta.media.0.codec.bit_rate">196224</property>
  <property name="kdenlive:original.meta.attr.0.stream.handler_name.markup">VideoHandler</property>
  <property name="kdenlive:original.meta.attr.0.stream.vendor_id.markup">[0][0][0][0]</property>
  <property name="kdenlive:original.meta.attr.major_brand.markup">isom</property>
  <property name="kdenlive:original.meta.attr.minor_version.markup">512</property>
  <property name="kdenlive:original.meta.attr.compatible_brands.markup">isomiso2avc1mp41</property>
  <property name="kdenlive:original.meta.attr.encoder.markup">Lavf58.76.100</property>
  <property name="kdenlive:original.meta.attr.comment.markup">Rendered with Manim Community v0.12.0</property>
  <property name="kdenlive:original.seekable">1</property>
  <property name="kdenlive:original.width">3840</property>
  <property name="kdenlive:original.height">2160</property>
  <property name="kdenlive:original.meta.media.sample_aspect_num">1</property>
  <property name="kdenlive:original.meta.media.sample_aspect_den">1</property>
  <property name="kdenlive:original.aspect_ratio">1</property>
  <property name="kdenlive:original.audio_index">-1</property>
  <property name="kdenlive:original.video_index">0</property>
  <property name="kdenlive:original.mute_on_pause">0</property>
  <property name="kdenlive:original.mlt_service">avformat-novalidate</property>
  <property name="kdenlive:original.kdenlive:folderid">399</property>
  <property name="kdenlive:original.meta.media.frame_rate_num">60</property>
  <property name="kdenlive:original.meta.media.frame_rate_den">1</property>
  <property name="kdenlive:original.meta.media.colorspace">709</property>
  <property name="kdenlive:original.meta.media.color_trc">2</property>
  <property name="kdenlive:original.meta.media.has_b_frames">2</property>
  <property name="kdenlive:original.meta.media.width">3840</property>
  <property name="kdenlive:original.meta.media.height">2160</property>
  <property name="kdenlive:original.meta.media.color_range">mpeg</property>
  <property name="kdenlive:original.kdenlive:id">400</property>
  <property name="kdenlive:original.kdenlive:file_size">26152</property>
  <property name="kdenlive:original.kdenlive:file_hash">51c693276bcd937dc409779af0369cde</property>
  <property name="kdenlive:original.backup">1</property>
  <property name="kdenlive:file_hash">51c693276bcd937dc409779af0369cde</property>
  <property name="meta.media.nb_streams">1</property>
  <property name="meta.media.0.stream.type">video</property>
  <property name="meta.media.0.stream.frame_rate">60</property>
  <property name="meta.media.0.stream.sample_aspect_ratio">0</property>
  <property name="meta.media.0.codec.width">640</property>
  <property name="meta.media.0.codec.height">360</property>
  <property name="meta.media.0.codec.rotate">0</property>
  <property name="meta.media.0.codec.pix_fmt">yuv420p</property>
  <property name="meta.media.0.codec.sample_aspect_ratio">0</property>
  <property name="meta.media.0.codec.colorspace">601</property>
  <property name="meta.media.0.codec.name">h264</property>
  <property name="meta.media.0.codec.long_name">H.264 / AVC / MPEG-4 AVC / MPEG-4 part 10</property>
  <property name="meta.media.0.codec.bit_rate">106448</property>
  <property name="meta.attr.0.stream.handler_name.markup">VideoHandler</property>
  <property name="meta.attr.0.stream.vendor_id.markup">FFMP</property>
  <property name="meta.attr.0.stream.encoder.markup">Lavc58.134.100 libx264</property>
  <property name="meta.attr.major_brand.markup">qt  </property>
  <property name="meta.attr.minor_version.markup">512</property>
  <property name="meta.attr.compatible_brands.markup">qt  </property>
  <property name="meta.attr.encoder.markup">Lavf58.76.100</property>
  <property name="meta.attr.comment.markup">Rendered with Manim Community v0.12.0</property>
  <property name="meta.media.sample_aspect_num">1</property>
  <property name="meta.media.sample_aspect_den">1</property>
  <property name="meta.media.frame_rate_num">60</property>
  <property name="meta.media.frame_rate_den">1</property>
  <property name="meta.media.colorspace">601</property>
  <property name="meta.media.color_trc">2</property>
  <property name="meta.media.has_b_frames">0</property>
  <property name="meta.media.width">640</property>
  <property name="meta.media.height">360</property>
  <property name="meta.media.color_range">mpeg</property>
 </producer>
 <producer id="producer365" in="00:00:00.000" out="00:00:00.983">
  <property name="length">60</property>
  <property name="eof">pause</property>
  <property name="resource">/home/xiaoxiae/.cache/kdenlive/proxy/d178a6547980cf284b62629e9d967229.mov</property>
  <property name="audio_index">-1</property>
  <property name="video_index">0</property>
  <property name="mute_on_pause">0</property>
  <property name="mlt_service">avformat-novalidate</property>
  <property name="seekable">1</property>
  <property name="aspect_ratio">1</property>
  <property name="kdenlive:clipname">10.mp4</property>
  <property name="kdenlive:folderid">399</property>
  <property name="kdenlive:file_size">117470</property>
  <property name="kdenlive:id">400</property>
  <property name="kdenlive:proxy">/home/xiaoxiae/.cache/kdenlive/proxy/d178a6547980cf284b62629e9d967229.mov</property>
  <property name="kdenlive:originalurl">video/ToInfinity/vid/10.mp4</property>
  <property name="kdenlive:original.mlt_type">producer</property>
  <property name="kdenlive:original.in">0</property>
  <property name="kdenlive:original.out">59</property>
  <property name="kdenlive:original.length">60</property>
  <property name="kdenlive:original.eof">pause</property>
  <property name="kdenlive:original.resource">video/ToInfinity/vid/10.mp4</property>
  <property name="kdenlive:original.meta.media.nb_streams">1</property>
  <property name="kdenlive:original.meta.media.0.stream.type">video</property>
  <property name="kdenlive:original.meta.media.0.stream.frame_rate">60</property>
  <property name="kdenlive:original.meta.media.0.stream.sample_aspect_ratio">0</property>
  <property name="kdenlive:original.meta.media.0.codec.width">3840</property>
  <property name="kdenlive:original.meta.media.0.codec.height">2160</property>
  <property name="kdenlive:original.meta.media.0.codec.rotate">0</property>
  <property name="kdenlive:original.meta.media.0.codec.pix_fmt">yuv420p</property>
  <property name="kdenlive:original.meta.media.0.codec.sample_aspect_ratio">0</property>
  <property name="kdenlive:original.meta.media.0.codec.colorspace">709</property>
  <property name="kdenlive:original.meta.media.0.codec.name">h264</property>
  <property name="kdenlive:original.meta.media.0.codec.long_name">H.264 / AVC / MPEG-4 AVC / MPEG-4 part 10</property>
  <property name="kdenlive:original.meta.media.0.codec.bit_rate">926896</property>
  <property name="kdenlive:original.meta.attr.0.stream.handler_name.markup">VideoHandler</property>
  <property name="kdenlive:original.meta.attr.0.stream.vendor_id.markup">[0][0][0][0]</property>
  <property name="kdenlive:original.meta.attr.major_brand.markup">isom</property>
  <property name="kdenlive:original.meta.attr.minor_version.markup">512</property>
  <property name="kdenlive:original.meta.attr.compatible_brands.markup">isomiso2avc1mp41</property>
  <property name="kdenlive:original.meta.attr.encoder.markup">Lavf58.76.100</property>
  <property name="kdenlive:original.meta.attr.comment.markup">Rendered with Manim Community v0.12.0</property>
  <property name="kdenlive:original.seekable">1</property>
  <property name="kdenlive:original.width">3840</property>
  <property name="kdenlive:original.height">2160</property>
  <property name="kdenlive:original.meta.media.sample_aspect_num">1</property>
  <property name="kdenlive:original.meta.media.sample_aspect_den">1</property>
  <property name="kdenlive:original.aspect_ratio">1</property>
  <property name="kdenlive:original.audio_index">-1</property>
  <property name="kdenlive:original.video_index">0</property>
  <property name="kdenlive:original.mute_on_pause">0</property>
  <property name="kdenlive:original.mlt_service">avformat-novalidate</property>
  <property name="kdenlive:original.kdenlive:folderid">399</property>
  <property name="kdenlive:original.kdenlive:file_size">117470</property>
  <property name="kdenlive:original.meta.media.frame_rate_num">60</property>
  <property name="kdenlive:original.meta.media.frame_rate_den">1</property>
  <property name="kdenlive:original.meta.media.colorspace">709</property>
  <property name="kdenlive:original.meta.media.color_trc">2</property>
  <property name="kdenlive:original.meta.media.has_b_frames">2</property>
  <property name="kdenlive:original.meta.media.width">3840</property>
  <property name="kdenlive:original.meta.media.height">2160</property>
  <property name="kdenlive:original.meta.media.color_range">mpeg</property>
  <property name="kdenlive:original.kdenlive:id">401</property>
  <property name="kdenlive:original.kdenlive:file_hash">d178a6547980cf284b62629e9d967229</property>
  <property name="kdenlive:original.backup">1</property>
  <property name="kdenlive:file_hash">d178a6547980cf284b62629e9d967229</property>
  <property name="meta.media.nb_streams">1</property>
  <property name="meta.media.0.stream.type">video</property>
  <property name="meta.media.0.stream.frame_rate">60</property>
  <property name="meta.media.0.stream.sample_aspect_ratio">0</property>
  <property name="meta.media.0.codec.width">640</property>
  <property name="meta.media.0.codec.height">360</property>
  <property name="meta.media.0.codec.rotate">0</property>
  <property name="meta.media.0.codec.pix_fmt">yuv420p</property>
  <property name="meta.media.0.codec.sample_aspect_ratio">0</property>
  <property name="meta.media.0.codec.colorspace">601</property>
  <property name="meta.media.0.codec.name">h264</property>
  <property name="meta.media.0.codec.long_name">H.264 / AVC / MPEG-4 AVC / MPEG-4 part 10</property>
  <property name="meta.media.0.codec.bit_rate">3170032</property>
  <property name="meta.attr.0.stream.handler_name.markup">VideoHandler</property>
  <property name="meta.attr.0.stream.vendor_id.markup">FFMP</property>
  <property name="meta.attr.0.stream.encoder.markup">Lavc58.134.100 libx264</property>
  <property name="meta.attr.major_brand.markup">qt  </property>
  <property name="meta.attr.minor_version.markup">512</property>
  <property name="meta.attr.compatible_brands.markup">qt  </property>
  <property name="meta.attr.encoder.markup">Lavf58.76.100</property>
  <property name="meta.attr.comment.markup">Rendered with Manim Community v0.12.0</property>
  <property name="meta.media.sample_aspect_num">1</property>
  <property name="meta.media.sample_aspect_den">1</property>
  <property name="meta.media.frame_rate_num">60</property>
  <property name="meta.media.frame_rate_den">1</property>
  <property name="meta.media.colorspace">601</property>
  <property name="meta.media.color_trc">2</property>
  <property name="meta.media.has_b_frames">0</property>
  <property name="meta.media.width">640</property>
  <property name="meta.media.height">360</property>
  <property name="meta.media.color_range">mpeg</property>
 </producer>
 <producer id="producer366" in="00:00:00.000" out="00:00:00.983">
  <property name="length">60</property>
  <property name="eof">pause</property>
  <property name="resource">/home/xiaoxiae/.cache/kdenlive/proxy/6db4918a01050c6271d2135bde6de546.mov</property>
  <property name="audio_index">-1</property>
  <property name="video_index">0</property>
  <property name="mute_on_pause">0</property>
  <property name="mlt_service">avformat-novalidate</property>
  <property name="seekable">1</property>
  <property name="aspect_ratio">1</property>
  <property name="kdenlive:clipname">11.mp4</property>
  <property name="kdenlive:folderid">399</property>
  <property name="kdenlive:id">401</property>
  <property name="kdenlive:file_size">95311</property>
  <property name="kdenlive:proxy">/home/xiaoxiae/.cache/kdenlive/proxy/6db4918a01050c6271d2135bde6de546.mov</property>
  <property name="kdenlive:originalurl">video/ToInfinity/vid/11.mp4</property>
  <property name="kdenlive:original.mlt_type">producer</property>
  <property name="kdenlive:original.in">0</property>
  <property name="kdenlive:original.out">59</property>
  <property name="kdenlive:original.length">60</property>
  <property name="kdenlive:original.eof">pause</property>
  <property name="kdenlive:original.resource">video/ToInfinity/vid/11.mp4</property>
  <property name="kdenlive:original.meta.media.nb_streams">1</property>
  <property name="kdenlive:original.meta.media.0.stream.type">video</property>
  <property name="kdenlive:original.meta.media.0.stream.frame_rate">60</property>
  <property name="kdenlive:original.meta.media.0.stream.sample_aspect_ratio">0</property>
  <property name="kdenlive:original.meta.media.0.codec.width">3840</property>
  <property name="kdenlive:original.meta.media.0.codec.height">2160</property>
  <property name="kdenlive:original.meta.media.0.codec.rotate">0</property>
  <property name="kdenlive:original.meta.media.0.codec.pix_fmt">yuv420p</property>
  <property name="kdenlive:original.meta.media.0.codec.sample_aspect_ratio">0</property>
  <property name="kdenlive:original.meta.media.0.codec.colorspace">709</property>
  <property name="kdenlive:original.meta.media.0.codec.name">h264</property>
  <property name="kdenlive:original.meta.media.0.codec.long_name">H.264 / AVC / MPEG-4 AVC / MPEG-4 part 10</property>
  <property name="kdenlive:original.meta.media.0.codec.bit_rate">749432</property>
  <property name="kdenlive:original.meta.attr.0.stream.handler_name.markup">VideoHandler</property>
  <property name="kdenlive:original.meta.attr.0.stream.vendor_id.markup">[0][0][0][0]</property>
  <property name="kdenlive:original.meta.attr.major_brand.markup">isom</property>
  <property name="kdenlive:original.meta.attr.minor_version.markup">512</property>
  <property name="kdenlive:original.meta.attr.compatible_brands.markup">isomiso2avc1mp41</property>
  <property name="kdenlive:original.meta.attr.encoder.markup">Lavf58.76.100</property>
  <property name="kdenlive:original.meta.attr.comment.markup">Rendered with Manim Community v0.12.0</property>
  <property name="kdenlive:original.seekable">1</property>
  <property name="kdenlive:original.width">3840</property>
  <property name="kdenlive:original.height">2160</property>
  <property name="kdenlive:original.meta.media.sample_aspect_num">1</property>
  <property name="kdenlive:original.meta.media.sample_aspect_den">1</property>
  <property name="kdenlive:original.aspect_ratio">1</property>
  <property name="kdenlive:original.audio_index">-1</property>
  <property name="kdenlive:original.video_index">0</property>
  <property name="kdenlive:original.mute_on_pause">0</property>
  <property name="kdenlive:original.mlt_service">avformat-novalidate</property>
  <property name="kdenlive:original.kdenlive:folderid">399</property>
  <property name="kdenlive:original.meta.media.frame_rate_num">60</property>
  <property name="kdenlive:original.meta.media.frame_rate_den">1</property>
  <property name="kdenlive:original.meta.media.colorspace">709</property>
  <property name="kdenlive:original.meta.media.color_trc">2</property>
  <property name="kdenlive:original.meta.media.has_b_frames">2</property>
  <property name="kdenlive:original.meta.media.width">3840</property>
  <property name="kdenlive:original.meta.media.height">2160</property>
  <property name="kdenlive:original.meta.media.color_range">mpeg</property>
  <property name="kdenlive:original.kdenlive:id">402</property>
  <property name="kdenlive:original.kdenlive:file_size">95311</property>
  <property name="kdenlive:original.kdenlive:file_hash">6db4918a01050c6271d2135bde6de546</property>
  <property name="kdenlive:original.backup">1</property>
  <property name="kdenlive:file_hash">6db4918a01050c6271d2135bde6de546</property>
  <property name="meta.media.nb_streams">1</property>
  <property name="meta.media.0.stream.type">video</property>
  <property name="meta.media.0.stream.frame_rate">60</property>
  <property name="meta.media.0.stream.sample_aspect_ratio">0</property>
  <property name="meta.media.0.codec.width">640</property>
  <property name="meta.media.0.codec.height">360</property>
  <property name="meta.media.0.codec.rotate">0</property>
  <property name="meta.media.0.codec.pix_fmt">yuv420p</property>
  <property name="meta.media.0.codec.sample_aspect_ratio">0</property>
  <property name="meta.media.0.codec.colorspace">601</property>
  <property name="meta.media.0.codec.name">h264</property>
  <property name="meta.media.0.codec.long_name">H.264 / AVC / MPEG-4 AVC / MPEG-4 part 10</property>
  <property name="meta.media.0.codec.bit_rate">3313464</property>
  <property name="meta.attr.0.stream.handler_name.markup">VideoHandler</property>
  <property name="meta.attr.0.stream.vendor_id.markup">FFMP</property>
  <property name="meta.attr.0.stream.encoder.markup">Lavc58.134.100 libx264</property>
  <property name="meta.attr.major_brand.markup">qt  </property>
  <property name="meta.attr.minor_version.markup">512</property>
  <property name="meta.attr.compatible_brands.markup">qt  </property>
  <property name="meta.attr.encoder.markup">Lavf58.76.100</property>
  <property name="meta.attr.comment.markup">Rendered with Manim Community v0.12.0</property>
  <property name="meta.media.sample_aspect_num">1</property>
  <property name="meta.media.sample_aspect_den">1</property>
  <property name="meta.media.frame_rate_num">60</property>
  <property name="meta.media.frame_rate_den">1</property>
  <property name="meta.media.colorspace">601</property>
  <property name="meta.media.color_trc">2</property>
  <property name="meta.media.has_b_frames">0</property>
  <property name="meta.media.width">640</property>
  <property name="meta.media.height">360</property>
  <property name="meta.media.color_range">mpeg</property>
 </producer>
 <producer id="producer367" in="00:00:00.000" out="00:00:00.983">
  <property name="length">60</property>
  <property name="eof">pause</property>
  <property name="resource">/home/xiaoxiae/.cache/kdenlive/proxy/bef1c39a66f49c4379e43f9a7c3f7766.mov</property>
  <property name="audio_index">-1</property>
  <property name="video_index">0</property>
  <property name="mute_on_pause">0</property>
  <property name="mlt_service">avformat-novalidate</property>
  <property name="seekable">1</property>
  <property name="aspect_ratio">1</property>
  <property name="kdenlive:clipname">12.mp4</property>
  <property name="kdenlive:folderid">399</property>
  <property name="kdenlive:id">402</property>
  <property name="kdenlive:file_size">166049</property>
  <property name="kdenlive:proxy">/home/xiaoxiae/.cache/kdenlive/proxy/bef1c39a66f49c4379e43f9a7c3f7766.mov</property>
  <property name="kdenlive:originalurl">video/ToInfinity/vid/12.mp4</property>
  <property name="kdenlive:original.mlt_type">producer</property>
  <property name="kdenlive:original.in">0</property>
  <property name="kdenlive:original.out">59</property>
  <property name="kdenlive:original.length">60</property>
  <property name="kdenlive:original.eof">pause</property>
  <property name="kdenlive:original.resource">video/ToInfinity/vid/12.mp4</property>
  <property name="kdenlive:original.meta.media.nb_streams">1</property>
  <property name="kdenlive:original.meta.media.0.stream.type">video</property>
  <property name="kdenlive:original.meta.media.0.stream.frame_rate">60</property>
  <property name="kdenlive:original.meta.media.0.stream.sample_aspect_ratio">0</property>
  <property name="kdenlive:original.meta.media.0.codec.width">3840</property>
  <property name="kdenlive:original.meta.media.0.codec.height">2160</property>
  <property name="kdenlive:original.meta.media.0.codec.rotate">0</property>
  <property name="kdenlive:original.meta.media.0.codec.pix_fmt">yuv420p</property>
  <property name="kdenlive:original.meta.media.0.codec.sample_aspect_ratio">0</property>
  <property name="kdenlive:original.meta.media.0.codec.colorspace">709</property>
  <property name="kdenlive:original.meta.media.0.codec.name">h264</property>
  <property name="kdenlive:original.meta.media.0.codec.long_name">H.264 / AVC / MPEG-4 AVC / MPEG-4 part 10</property>
  <property name="kdenlive:original.meta.media.0.codec.bit_rate">1315400</property>
  <property name="kdenlive:original.meta.attr.0.stream.handler_name.markup">VideoHandler</property>
  <property name="kdenlive:original.meta.attr.0.stream.vendor_id.markup">[0][0][0][0]</property>
  <property name="kdenlive:original.meta.attr.major_brand.markup">isom</property>
  <property name="kdenlive:original.meta.attr.minor_version.markup">512</property>
  <property name="kdenlive:original.meta.attr.compatible_brands.markup">isomiso2avc1mp41</property>
  <property name="kdenlive:original.meta.attr.encoder.markup">Lavf58.76.100</property>
  <property name="kdenlive:original.meta.attr.comment.markup">Rendered with Manim Community v0.12.0</property>
  <property name="kdenlive:original.seekable">1</property>
  <property name="kdenlive:original.width">3840</property>
  <property name="kdenlive:original.height">2160</property>
  <property name="kdenlive:original.meta.media.sample_aspect_num">1</property>
  <property name="kdenlive:original.meta.media.sample_aspect_den">1</property>
  <property name="kdenlive:original.aspect_ratio">1</property>
  <property name="kdenlive:original.audio_index">-1</property>
  <property name="kdenlive:original.video_index">0</property>
  <property name="kdenlive:original.mute_on_pause">0</property>
  <property name="kdenlive:original.mlt_service">avformat-novalidate</property>
  <property name="kdenlive:original.kdenlive:folderid">399</property>
  <property name="kdenlive:original.meta.media.frame_rate_num">60</property>
  <property name="kdenlive:original.meta.media.frame_rate_den">1</property>
  <property name="kdenlive:original.meta.media.colorspace">709</property>
  <property name="kdenlive:original.meta.media.color_trc">2</property>
  <property name="kdenlive:original.meta.media.has_b_frames">2</property>
  <property name="kdenlive:original.meta.media.width">3840</property>
  <property name="kdenlive:original.meta.media.height">2160</property>
  <property name="kdenlive:original.meta.media.color_range">mpeg</property>
  <property name="kdenlive:original.kdenlive:id">403</property>
  <property name="kdenlive:original.kdenlive:file_size">166049</property>
  <property name="kdenlive:original.kdenlive:file_hash">bef1c39a66f49c4379e43f9a7c3f7766</property>
  <property name="kdenlive:original.backup">1</property>
  <property name="kdenlive:file_hash">bef1c39a66f49c4379e43f9a7c3f7766</property>
  <property name="meta.media.nb_streams">1</property>
  <property name="meta.media.0.stream.type">video</property>
  <property name="meta.media.0.stream.frame_rate">60</property>
  <property name="meta.media.0.stream.sample_aspect_ratio">0</property>
  <property name="meta.media.0.codec.width">640</property>
  <property name="meta.media.0.codec.height">360</property>
  <property name="meta.media.0.codec.rotate">0</property>
  <property name="meta.media.0.codec.pix_fmt">yuv420p</property>
  <property name="meta.media.0.codec.sample_aspect_ratio">0</property>
  <property name="meta.media.0.codec.colorspace">601</property>
  <property name="meta.media.0.codec.name">h264</property>
  <property name="meta.media.0.codec.long_name">H.264 / AVC / MPEG-4 AVC / MPEG-4 part 10</property>
  <property name="meta.media.0.codec.bit_rate">3394424</property>
  <property name="meta.attr.0.stream.handler_name.markup">VideoHandler</property>
  <property name="meta.attr.0.stream.vendor_id.markup">FFMP</property>
  <property name="meta.attr.0.stream.encoder.markup">Lavc58.134.100 libx264</property>
  <property name="meta.attr.major_brand.markup">qt  </property>
  <property name="meta.attr.minor_version.markup">512</property>
  <property name="meta.attr.compatible_brands.markup">qt  </property>
  <property name="meta.attr.encoder.markup">Lavf58.76.100</property>
  <property name="meta.attr.comment.markup">Rendered with Manim Community v0.12.0</property>
  <property name="meta.media.sample_aspect_num">1</property>
  <property name="meta.media.sample_aspect_den">1</property>
  <property name="meta.media.frame_rate_num">60</property>
  <property name="meta.media.frame_rate_den">1</property>
  <property name="meta.media.colorspace">601</property>
  <property name="meta.media.color_trc">2</property>
  <property name="meta.media.has_b_frames">0</property>
  <property name="meta.media.width">640</property>
  <property name="meta.media.height">360</property>
  <property name="meta.media.color_range">mpeg</property>
 </producer>
 <producer id="producer368" in="00:00:00.000" out="00:00:00.983">
  <property name="length">60</property>
  <property name="eof">pause</property>
  <property name="resource">/home/xiaoxiae/.cache/kdenlive/proxy/3d49aeb8af8058c875fb9be6c5b93882.mov</property>
  <property name="audio_index">-1</property>
  <property name="video_index">0</property>
  <property name="mute_on_pause">0</property>
  <property name="mlt_service">avformat-novalidate</property>
  <property name="seekable">1</property>
  <property name="aspect_ratio">1</property>
  <property name="kdenlive:clipname">13.mp4</property>
  <property name="kdenlive:folderid">399</property>
  <property name="kdenlive:id">403</property>
  <property name="kdenlive:file_size">163657</property>
  <property name="kdenlive:proxy">/home/xiaoxiae/.cache/kdenlive/proxy/3d49aeb8af8058c875fb9be6c5b93882.mov</property>
  <property name="kdenlive:originalurl">video/ToInfinity/vid/13.mp4</property>
  <property name="kdenlive:original.mlt_type">producer</property>
  <property name="kdenlive:original.in">0</property>
  <property name="kdenlive:original.out">59</property>
  <property name="kdenlive:original.length">60</property>
  <property name="kdenlive:original.eof">pause</property>
  <property name="kdenlive:original.resource">video/ToInfinity/vid/13.mp4</property>
  <property name="kdenlive:original.meta.media.nb_streams">1</property>
  <property name="kdenlive:original.meta.media.0.stream.type">video</property>
  <property name="kdenlive:original.meta.media.0.stream.frame_rate">60</property>
  <property name="kdenlive:original.meta.media.0.stream.sample_aspect_ratio">0</property>
  <property name="kdenlive:original.meta.media.0.codec.width">3840</property>
  <property name="kdenlive:original.meta.media.0.codec.height">2160</property>
  <property name="kdenlive:original.meta.media.0.codec.rotate">0</property>
  <property name="kdenlive:original.meta.media.0.codec.pix_fmt">yuv420p</property>
  <property name="kdenlive:original.meta.media.0.codec.sample_aspect_ratio">0</property>
  <property name="kdenlive:original.meta.media.0.codec.colorspace">709</property>
  <property name="kdenlive:original.meta.media.0.codec.name">h264</property>
  <property name="kdenlive:original.meta.media.0.codec.long_name">H.264 / AVC / MPEG-4 AVC / MPEG-4 part 10</property>
  <property name="kdenlive:original.meta.media.0.codec.bit_rate">1296456</property>
  <property name="kdenlive:original.meta.attr.0.stream.handler_name.markup">VideoHandler</property>
  <property name="kdenlive:original.meta.attr.0.stream.vendor_id.markup">[0][0][0][0]</property>
  <property name="kdenlive:original.meta.attr.major_brand.markup">isom</property>
  <property name="kdenlive:original.meta.attr.minor_version.markup">512</property>
  <property name="kdenlive:original.meta.attr.compatible_brands.markup">isomiso2avc1mp41</property>
  <property name="kdenlive:original.meta.attr.encoder.markup">Lavf58.76.100</property>
  <property name="kdenlive:original.meta.attr.comment.markup">Rendered with Manim Community v0.12.0</property>
  <property name="kdenlive:original.seekable">1</property>
  <property name="kdenlive:original.width">3840</property>
  <property name="kdenlive:original.height">2160</property>
  <property name="kdenlive:original.meta.media.sample_aspect_num">1</property>
  <property name="kdenlive:original.meta.media.sample_aspect_den">1</property>
  <property name="kdenlive:original.aspect_ratio">1</property>
  <property name="kdenlive:original.audio_index">-1</property>
  <property name="kdenlive:original.video_index">0</property>
  <property name="kdenlive:original.mute_on_pause">0</property>
  <property name="kdenlive:original.mlt_service">avformat-novalidate</property>
  <property name="kdenlive:original.kdenlive:folderid">399</property>
  <property name="kdenlive:original.meta.media.frame_rate_num">60</property>
  <property name="kdenlive:original.meta.media.frame_rate_den">1</property>
  <property name="kdenlive:original.meta.media.colorspace">709</property>
  <property name="kdenlive:original.meta.media.color_trc">2</property>
  <property name="kdenlive:original.meta.media.has_b_frames">2</property>
  <property name="kdenlive:original.meta.media.width">3840</property>
  <property name="kdenlive:original.meta.media.height">2160</property>
  <property name="kdenlive:original.meta.media.color_range">mpeg</property>
  <property name="kdenlive:original.kdenlive:id">404</property>
  <property name="kdenlive:original.kdenlive:file_size">163657</property>
  <property name="kdenlive:original.kdenlive:file_hash">3d49aeb8af8058c875fb9be6c5b93882</property>
  <property name="kdenlive:original.backup">1</property>
  <property name="kdenlive:file_hash">3d49aeb8af8058c875fb9be6c5b93882</property>
  <property name="meta.media.nb_streams">1</property>
  <property name="meta.media.0.stream.type">video</property>
  <property name="meta.media.0.stream.frame_rate">60</property>
  <property name="meta.media.0.stream.sample_aspect_ratio">0</property>
  <property name="meta.media.0.codec.width">640</property>
  <property name="meta.media.0.codec.height">360</property>
  <property name="meta.media.0.codec.rotate">0</property>
  <property name="meta.media.0.codec.pix_fmt">yuv420p</property>
  <property name="meta.media.0.codec.sample_aspect_ratio">0</property>
  <property name="meta.media.0.codec.colorspace">601</property>
  <property name="meta.media.0.codec.name">h264</property>
  <property name="meta.media.0.codec.long_name">H.264 / AVC / MPEG-4 AVC / MPEG-4 part 10</property>
  <property name="meta.media.0.codec.bit_rate">3556464</property>
  <property name="meta.attr.0.stream.handler_name.markup">VideoHandler</property>
  <property name="meta.attr.0.stream.vendor_id.markup">FFMP</property>
  <property name="meta.attr.0.stream.encoder.markup">Lavc58.134.100 libx264</property>
  <property name="meta.attr.major_brand.markup">qt  </property>
  <property name="meta.attr.minor_version.markup">512</property>
  <property name="meta.attr.compatible_brands.markup">qt  </property>
  <property name="meta.attr.encoder.markup">Lavf58.76.100</property>
  <property name="meta.attr.comment.markup">Rendered with Manim Community v0.12.0</property>
  <property name="meta.media.sample_aspect_num">1</property>
  <property name="meta.media.sample_aspect_den">1</property>
  <property name="meta.media.frame_rate_num">60</property>
  <property name="meta.media.frame_rate_den">1</property>
  <property name="meta.media.colorspace">601</property>
  <property name="meta.media.color_trc">2</property>
  <property name="meta.media.has_b_frames">0</property>
  <property name="meta.media.width">640</property>
  <property name="meta.media.height">360</property>
  <property name="meta.media.color_range">mpeg</property>
 </producer>
 <producer id="producer369" in="00:00:00.000" out="00:00:02.383">
  <property name="length">144</property>
  <property name="eof">pause</property>
  <property name="resource">/home/xiaoxiae/.cache/kdenlive/proxy/886fd11152b81f2ee7d85e22efabe39a.mov</property>
  <property name="audio_index">-1</property>
  <property name="video_index">0</property>
  <property name="mute_on_pause">0</property>
  <property name="mlt_service">avformat-novalidate</property>
  <property name="seekable">1</property>
  <property name="aspect_ratio">1</property>
  <property name="kdenlive:clipname">14.mp4</property>
  <property name="kdenlive:folderid">399</property>
  <property name="kdenlive:file_size">582567</property>
  <property name="kdenlive:id">404</property>
  <property name="kdenlive:proxy">/home/xiaoxiae/.cache/kdenlive/proxy/886fd11152b81f2ee7d85e22efabe39a.mov</property>
  <property name="kdenlive:originalurl">video/ToInfinity/vid/14.mp4</property>
  <property name="kdenlive:original.mlt_type">producer</property>
  <property name="kdenlive:original.in">0</property>
  <property name="kdenlive:original.out">143</property>
  <property name="kdenlive:original.length">144</property>
  <property name="kdenlive:original.eof">pause</property>
  <property name="kdenlive:original.resource">video/ToInfinity/vid/14.mp4</property>
  <property name="kdenlive:original.meta.media.nb_streams">1</property>
  <property name="kdenlive:original.meta.media.0.stream.type">video</property>
  <property name="kdenlive:original.meta.media.0.stream.frame_rate">60</property>
  <property name="kdenlive:original.meta.media.0.stream.sample_aspect_ratio">0</property>
  <property name="kdenlive:original.meta.media.0.codec.width">3840</property>
  <property name="kdenlive:original.meta.media.0.codec.height">2160</property>
  <property name="kdenlive:original.meta.media.0.codec.rotate">0</property>
  <property name="kdenlive:original.meta.media.0.codec.pix_fmt">yuv420p</property>
  <property name="kdenlive:original.meta.media.0.codec.sample_aspect_ratio">0</property>
  <property name="kdenlive:original.meta.media.0.codec.colorspace">709</property>
  <property name="kdenlive:original.meta.media.0.codec.name">h264</property>
  <property name="kdenlive:original.meta.media.0.codec.long_name">H.264 / AVC / MPEG-4 AVC / MPEG-4 part 10</property>
  <property name="kdenlive:original.meta.media.0.codec.bit_rate">1933116</property>
  <property name="kdenlive:original.meta.attr.0.stream.handler_name.markup">VideoHandler</property>
  <property name="kdenlive:original.meta.attr.0.stream.vendor_id.markup">[0][0][0][0]</property>
  <property name="kdenlive:original.meta.attr.major_brand.markup">isom</property>
  <property name="kdenlive:original.meta.attr.minor_version.markup">512</property>
  <property name="kdenlive:original.meta.attr.compatible_brands.markup">isomiso2avc1mp41</property>
  <property name="kdenlive:original.meta.attr.encoder.markup">Lavf58.76.100</property>
  <property name="kdenlive:original.meta.attr.comment.markup">Rendered with Manim Community v0.12.0</property>
  <property name="kdenlive:original.seekable">1</property>
  <property name="kdenlive:original.width">3840</property>
  <property name="kdenlive:original.height">2160</property>
  <property name="kdenlive:original.meta.media.sample_aspect_num">1</property>
  <property name="kdenlive:original.meta.media.sample_aspect_den">1</property>
  <property name="kdenlive:original.aspect_ratio">1</property>
  <property name="kdenlive:original.audio_index">-1</property>
  <property name="kdenlive:original.video_index">0</property>
  <property name="kdenlive:original.mute_on_pause">0</property>
  <property name="kdenlive:original.mlt_service">avformat-novalidate</property>
  <property name="kdenlive:original.kdenlive:folderid">399</property>
  <property name="kdenlive:original.kdenlive:file_size">582567</property>
  <property name="kdenlive:original.meta.media.frame_rate_num">60</property>
  <property name="kdenlive:original.meta.media.frame_rate_den">1</property>
  <property name="kdenlive:original.meta.media.colorspace">709</property>
  <property name="kdenlive:original.meta.media.color_trc">2</property>
  <property name="kdenlive:original.meta.media.has_b_frames">2</property>
  <property name="kdenlive:original.meta.media.width">3840</property>
  <property name="kdenlive:original.meta.media.height">2160</property>
  <property name="kdenlive:original.meta.media.color_range">mpeg</property>
  <property name="kdenlive:original.kdenlive:id">405</property>
  <property name="kdenlive:original.kdenlive:file_hash">886fd11152b81f2ee7d85e22efabe39a</property>
  <property name="kdenlive:original.backup">1</property>
  <property name="kdenlive:file_hash">886fd11152b81f2ee7d85e22efabe39a</property>
  <property name="meta.media.nb_streams">1</property>
  <property name="meta.media.0.stream.type">video</property>
  <property name="meta.media.0.stream.frame_rate">60</property>
  <property name="meta.media.0.stream.sample_aspect_ratio">0</property>
  <property name="meta.media.0.codec.width">640</property>
  <property name="meta.media.0.codec.height">360</property>
  <property name="meta.media.0.codec.rotate">0</property>
  <property name="meta.media.0.codec.pix_fmt">yuv420p</property>
  <property name="meta.media.0.codec.sample_aspect_ratio">0</property>
  <property name="meta.media.0.codec.colorspace">601</property>
  <property name="meta.media.0.codec.name">h264</property>
  <property name="meta.media.0.codec.long_name">H.264 / AVC / MPEG-4 AVC / MPEG-4 part 10</property>
  <property name="meta.media.0.codec.bit_rate">3141586</property>
  <property name="meta.attr.0.stream.handler_name.markup">VideoHandler</property>
  <property name="meta.attr.0.stream.vendor_id.markup">FFMP</property>
  <property name="meta.attr.0.stream.encoder.markup">Lavc58.134.100 libx264</property>
  <property name="meta.attr.major_brand.markup">qt  </property>
  <property name="meta.attr.minor_version.markup">512</property>
  <property name="meta.attr.compatible_brands.markup">qt  </property>
  <property name="meta.attr.encoder.markup">Lavf58.76.100</property>
  <property name="meta.attr.comment.markup">Rendered with Manim Community v0.12.0</property>
  <property name="meta.media.sample_aspect_num">1</property>
  <property name="meta.media.sample_aspect_den">1</property>
  <property name="meta.media.frame_rate_num">60</property>
  <property name="meta.media.frame_rate_den">1</property>
  <property name="meta.media.colorspace">601</property>
  <property name="meta.media.color_trc">2</property>
  <property name="meta.media.has_b_frames">0</property>
  <property name="meta.media.width">640</property>
  <property name="meta.media.height">360</property>
  <property name="meta.media.color_range">mpeg</property>
 </producer>
 <producer id="producer370" in="00:00:00.000" out="00:00:01.383">
  <property name="length">84</property>
  <property name="eof">pause</property>
  <property name="resource">/home/xiaoxiae/.cache/kdenlive/proxy/5e4abef1b7141d6ccf5a29ecaf8c22cd.mov</property>
  <property name="audio_index">-1</property>
  <property name="video_index">0</property>
  <property name="mute_on_pause">0</property>
  <property name="mlt_service">avformat-novalidate</property>
  <property name="seekable">1</property>
  <property name="aspect_ratio">1</property>
  <property name="kdenlive:clipname">2.mp4</property>
  <property name="kdenlive:folderid">399</property>
  <property name="kdenlive:file_size">67969</property>
  <property name="kdenlive:id">405</property>
  <property name="kdenlive:proxy">/home/xiaoxiae/.cache/kdenlive/proxy/5e4abef1b7141d6ccf5a29ecaf8c22cd.mov</property>
  <property name="kdenlive:originalurl">video/ToInfinity/vid/2.mp4</property>
  <property name="kdenlive:original.mlt_type">producer</property>
  <property name="kdenlive:original.in">0</property>
  <property name="kdenlive:original.out">83</property>
  <property name="kdenlive:original.length">84</property>
  <property name="kdenlive:original.eof">pause</property>
  <property name="kdenlive:original.resource">video/ToInfinity/vid/2.mp4</property>
  <property name="kdenlive:original.meta.media.nb_streams">1</property>
  <property name="kdenlive:original.meta.media.0.stream.type">video</property>
  <property name="kdenlive:original.meta.media.0.stream.frame_rate">60</property>
  <property name="kdenlive:original.meta.media.0.stream.sample_aspect_ratio">0</property>
  <property name="kdenlive:original.meta.media.0.codec.width">3840</property>
  <property name="kdenlive:original.meta.media.0.codec.height">2160</property>
  <property name="kdenlive:original.meta.media.0.codec.rotate">0</property>
  <property name="kdenlive:original.meta.media.0.codec.pix_fmt">yuv420p</property>
  <property name="kdenlive:original.meta.media.0.codec.sample_aspect_ratio">0</property>
  <property name="kdenlive:original.meta.media.0.codec.colorspace">709</property>
  <property name="kdenlive:original.meta.media.0.codec.name">h264</property>
  <property name="kdenlive:original.meta.media.0.codec.long_name">H.264 / AVC / MPEG-4 AVC / MPEG-4 part 10</property>
  <property name="kdenlive:original.meta.media.0.codec.bit_rate">377651</property>
  <property name="kdenlive:original.meta.attr.0.stream.handler_name.markup">VideoHandler</property>
  <property name="kdenlive:original.meta.attr.0.stream.vendor_id.markup">[0][0][0][0]</property>
  <property name="kdenlive:original.meta.attr.major_brand.markup">isom</property>
  <property name="kdenlive:original.meta.attr.minor_version.markup">512</property>
  <property name="kdenlive:original.meta.attr.compatible_brands.markup">isomiso2avc1mp41</property>
  <property name="kdenlive:original.meta.attr.encoder.markup">Lavf58.76.100</property>
  <property name="kdenlive:original.meta.attr.comment.markup">Rendered with Manim Community v0.12.0</property>
  <property name="kdenlive:original.seekable">1</property>
  <property name="kdenlive:original.width">3840</property>
  <property name="kdenlive:original.height">2160</property>
  <property name="kdenlive:original.meta.media.sample_aspect_num">1</property>
  <property name="kdenlive:original.meta.media.sample_aspect_den">1</property>
  <property name="kdenlive:original.aspect_ratio">1</property>
  <property name="kdenlive:original.audio_index">-1</property>
  <property name="kdenlive:original.video_index">0</property>
  <property name="kdenlive:original.mute_on_pause">0</property>
  <property name="kdenlive:original.mlt_service">avformat-novalidate</property>
  <property name="kdenlive:original.kdenlive:folderid">399</property>
  <property name="kdenlive:original.meta.media.frame_rate_num">60</property>
  <property name="kdenlive:original.meta.media.frame_rate_den">1</property>
  <property name="kdenlive:original.meta.media.colorspace">709</property>
  <property name="kdenlive:original.meta.media.color_trc">2</property>
  <property name="kdenlive:original.meta.media.has_b_frames">2</property>
  <property name="kdenlive:original.meta.media.width">3840</property>
  <property name="kdenlive:original.meta.media.height">2160</property>
  <property name="kdenlive:original.meta.media.color_range">mpeg</property>
  <property name="kdenlive:original.kdenlive:file_size">67969</property>
  <property name="kdenlive:original.kdenlive:id">406</property>
  <property name="kdenlive:original.kdenlive:file_hash">5e4abef1b7141d6ccf5a29ecaf8c22cd</property>
  <property name="kdenlive:original.backup">1</property>
  <property name="kdenlive:file_hash">5e4abef1b7141d6ccf5a29ecaf8c22cd</property>
  <property name="meta.media.nb_streams">1</property>
  <property name="meta.media.0.stream.type">video</property>
  <property name="meta.media.0.stream.frame_rate">60</property>
  <property name="meta.media.0.stream.sample_aspect_ratio">0</property>
  <property name="meta.media.0.codec.width">640</property>
  <property name="meta.media.0.codec.height">360</property>
  <property name="meta.media.0.codec.rotate">0</property>
  <property name="meta.media.0.codec.pix_fmt">yuv420p</property>
  <property name="meta.media.0.codec.sample_aspect_ratio">0</property>
  <property name="meta.media.0.codec.colorspace">601</property>
  <property name="meta.media.0.codec.name">h264</property>
  <property name="meta.media.0.codec.long_name">H.264 / AVC / MPEG-4 AVC / MPEG-4 part 10</property>
  <property name="meta.media.0.codec.bit_rate">683188</property>
  <property name="meta.attr.0.stream.handler_name.markup">VideoHandler</property>
  <property name="meta.attr.0.stream.vendor_id.markup">FFMP</property>
  <property name="meta.attr.0.stream.encoder.markup">Lavc58.134.100 libx264</property>
  <property name="meta.attr.major_brand.markup">qt  </property>
  <property name="meta.attr.minor_version.markup">512</property>
  <property name="meta.attr.compatible_brands.markup">qt  </property>
  <property name="meta.attr.encoder.markup">Lavf58.76.100</property>
  <property name="meta.attr.comment.markup">Rendered with Manim Community v0.12.0</property>
  <property name="meta.media.sample_aspect_num">1</property>
  <property name="meta.media.sample_aspect_den">1</property>
  <property name="meta.media.frame_rate_num">60</property>
  <property name="meta.media.frame_rate_den">1</property>
  <property name="meta.media.colorspace">601</property>
  <property name="meta.media.color_trc">2</property>
  <property name="meta.media.has_b_frames">0</property>
  <property name="meta.media.width">640</property>
  <property name="meta.media.height">360</property>
  <property name="meta.media.color_range">mpeg</property>
 </producer>
 <producer id="producer371" in="00:00:00.000" out="00:00:01.983">
  <property name="length">120</property>
  <property name="eof">pause</property>
  <property name="resource">/home/xiaoxiae/.cache/kdenlive/proxy/e787f5c90876a6ab5f8f35808fa8ba3d.mov</property>
  <property name="audio_index">-1</property>
  <property name="video_index">0</property>
  <property name="mute_on_pause">0</property>
  <property name="mlt_service">avformat-novalidate</property>
  <property name="seekable">1</property>
  <property name="aspect_ratio">1</property>
  <property name="kdenlive:clipname">3.mp4</property>
  <property name="kdenlive:folderid">399</property>
  <property name="kdenlive:id">406</property>
  <property name="kdenlive:file_size">101152</property>
  <property name="kdenlive:proxy">/home/xiaoxiae/.cache/kdenlive/proxy/e787f5c90876a6ab5f8f35808fa8ba3d.mov</property>
  <property name="kdenlive:originalurl">video/ToInfinity/vid/3.mp4</property>
  <property name="kdenlive:original.mlt_type">producer</property>
  <property name="kdenlive:original.in">0</property>
  <property name="kdenlive:original.out">119</property>
  <property name="kdenlive:original.length">120</property>
  <property name="kdenlive:original.eof">pause</property>
  <property name="kdenlive:original.resource">video/ToInfinity/vid/3.mp4</property>
  <property name="kdenlive:original.meta.media.nb_streams">1</property>
  <property name="kdenlive:original.meta.media.0.stream.type">video</property>
  <property name="kdenlive:original.meta.media.0.stream.frame_rate">60</property>
  <property name="kdenlive:original.meta.media.0.stream.sample_aspect_ratio">0</property>
  <property name="kdenlive:original.meta.media.0.codec.width">3840</property>
  <property name="kdenlive:original.meta.media.0.codec.height">2160</property>
  <property name="kdenlive:original.meta.media.0.codec.rotate">0</property>
  <property name="kdenlive:original.meta.media.0.codec.pix_fmt">yuv420p</property>
  <property name="kdenlive:original.meta.media.0.codec.sample_aspect_ratio">0</property>
  <property name="kdenlive:original.meta.media.0.codec.colorspace">709</property>
  <property name="kdenlive:original.meta.media.0.codec.name">h264</property>
  <property name="kdenlive:original.meta.media.0.codec.long_name">H.264 / AVC / MPEG-4 AVC / MPEG-4 part 10</property>
  <property name="kdenlive:original.meta.media.0.codec.bit_rate">395488</property>
  <property name="kdenlive:original.meta.attr.0.stream.handler_name.markup">VideoHandler</property>
  <property name="kdenlive:original.meta.attr.0.stream.vendor_id.markup">[0][0][0][0]</property>
  <property name="kdenlive:original.meta.attr.major_brand.markup">isom</property>
  <property name="kdenlive:original.meta.attr.minor_version.markup">512</property>
  <property name="kdenlive:original.meta.attr.compatible_brands.markup">isomiso2avc1mp41</property>
  <property name="kdenlive:original.meta.attr.encoder.markup">Lavf58.76.100</property>
  <property name="kdenlive:original.meta.attr.comment.markup">Rendered with Manim Community v0.12.0</property>
  <property name="kdenlive:original.seekable">1</property>
  <property name="kdenlive:original.width">3840</property>
  <property name="kdenlive:original.height">2160</property>
  <property name="kdenlive:original.meta.media.sample_aspect_num">1</property>
  <property name="kdenlive:original.meta.media.sample_aspect_den">1</property>
  <property name="kdenlive:original.aspect_ratio">1</property>
  <property name="kdenlive:original.audio_index">-1</property>
  <property name="kdenlive:original.video_index">0</property>
  <property name="kdenlive:original.mute_on_pause">0</property>
  <property name="kdenlive:original.mlt_service">avformat-novalidate</property>
  <property name="kdenlive:original.kdenlive:folderid">399</property>
  <property name="kdenlive:original.meta.media.frame_rate_num">60</property>
  <property name="kdenlive:original.meta.media.frame_rate_den">1</property>
  <property name="kdenlive:original.meta.media.colorspace">709</property>
  <property name="kdenlive:original.meta.media.color_trc">2</property>
  <property name="kdenlive:original.meta.media.has_b_frames">2</property>
  <property name="kdenlive:original.meta.media.width">3840</property>
  <property name="kdenlive:original.meta.media.height">2160</property>
  <property name="kdenlive:original.meta.media.color_range">mpeg</property>
  <property name="kdenlive:original.kdenlive:id">407</property>
  <property name="kdenlive:original.kdenlive:file_size">101152</property>
  <property name="kdenlive:original.kdenlive:file_hash">e787f5c90876a6ab5f8f35808fa8ba3d</property>
  <property name="kdenlive:original.backup">1</property>
  <property name="kdenlive:file_hash">e787f5c90876a6ab5f8f35808fa8ba3d</property>
  <property name="meta.media.nb_streams">1</property>
  <property name="meta.media.0.stream.type">video</property>
  <property name="meta.media.0.stream.frame_rate">60</property>
  <property name="meta.media.0.stream.sample_aspect_ratio">0</property>
  <property name="meta.media.0.codec.width">640</property>
  <property name="meta.media.0.codec.height">360</property>
  <property name="meta.media.0.codec.rotate">0</property>
  <property name="meta.media.0.codec.pix_fmt">yuv420p</property>
  <property name="meta.media.0.codec.sample_aspect_ratio">0</property>
  <property name="meta.media.0.codec.colorspace">601</property>
  <property name="meta.media.0.codec.name">h264</property>
  <property name="meta.media.0.codec.long_name">H.264 / AVC / MPEG-4 AVC / MPEG-4 part 10</property>
  <property name="meta.media.0.codec.bit_rate">1540732</property>
  <property name="meta.attr.0.stream.handler_name.markup">VideoHandler</property>
  <property name="meta.attr.0.stream.vendor_id.markup">FFMP</property>
  <property name="meta.attr.0.stream.encoder.markup">Lavc58.134.100 libx264</property>
  <property name="meta.attr.major_brand.markup">qt  </property>
  <property name="meta.attr.minor_version.markup">512</property>
  <property name="meta.attr.compatible_brands.markup">qt  </property>
  <property name="meta.attr.encoder.markup">Lavf58.76.100</property>
  <property name="meta.attr.comment.markup">Rendered with Manim Community v0.12.0</property>
  <property name="meta.media.sample_aspect_num">1</property>
  <property name="meta.media.sample_aspect_den">1</property>
  <property name="meta.media.frame_rate_num">60</property>
  <property name="meta.media.frame_rate_den">1</property>
  <property name="meta.media.colorspace">601</property>
  <property name="meta.media.color_trc">2</property>
  <property name="meta.media.has_b_frames">0</property>
  <property name="meta.media.width">640</property>
  <property name="meta.media.height">360</property>
  <property name="meta.media.color_range">mpeg</property>
 </producer>
 <producer id="producer372" in="00:00:00.000" out="00:00:00.983">
  <property name="length">60</property>
  <property name="eof">pause</property>
  <property name="resource">/home/xiaoxiae/.cache/kdenlive/proxy/558bc8ce70be3c7b6768c64514faa21d.mov</property>
  <property name="audio_index">-1</property>
  <property name="video_index">0</property>
  <property name="mute_on_pause">0</property>
  <property name="mlt_service">avformat-novalidate</property>
  <property name="seekable">1</property>
  <property name="aspect_ratio">1</property>
  <property name="kdenlive:clipname">4.mp4</property>
  <property name="kdenlive:folderid">399</property>
  <property name="kdenlive:id">407</property>
  <property name="kdenlive:file_size">60869</property>
  <property name="kdenlive:proxy">/home/xiaoxiae/.cache/kdenlive/proxy/558bc8ce70be3c7b6768c64514faa21d.mov</property>
  <property name="kdenlive:originalurl">video/ToInfinity/vid/4.mp4</property>
  <property name="kdenlive:original.mlt_type">producer</property>
  <property name="kdenlive:original.in">0</property>
  <property name="kdenlive:original.out">59</property>
  <property name="kdenlive:original.length">60</property>
  <property name="kdenlive:original.eof">pause</property>
  <property name="kdenlive:original.resource">video/ToInfinity/vid/4.mp4</property>
  <property name="kdenlive:original.meta.media.nb_streams">1</property>
  <property name="kdenlive:original.meta.media.0.stream.type">video</property>
  <property name="kdenlive:original.meta.media.0.stream.frame_rate">60</property>
  <property name="kdenlive:original.meta.media.0.stream.sample_aspect_ratio">0</property>
  <property name="kdenlive:original.meta.media.0.codec.width">3840</property>
  <property name="kdenlive:original.meta.media.0.codec.height">2160</property>
  <property name="kdenlive:original.meta.media.0.codec.rotate">0</property>
  <property name="kdenlive:original.meta.media.0.codec.pix_fmt">yuv420p</property>
  <property name="kdenlive:original.meta.media.0.codec.sample_aspect_ratio">0</property>
  <property name="kdenlive:original.meta.media.0.codec.colorspace">709</property>
  <property name="kdenlive:original.meta.media.0.codec.name">h264</property>
  <property name="kdenlive:original.meta.media.0.codec.long_name">H.264 / AVC / MPEG-4 AVC / MPEG-4 part 10</property>
  <property name="kdenlive:original.meta.media.0.codec.bit_rate">474344</property>
  <property name="kdenlive:original.meta.attr.0.stream.handler_name.markup">VideoHandler</property>
  <property name="kdenlive:original.meta.attr.0.stream.vendor_id.markup">[0][0][0][0]</property>
  <property name="kdenlive:original.meta.attr.major_brand.markup">isom</property>
  <property name="kdenlive:original.meta.attr.minor_version.markup">512</property>
  <property name="kdenlive:original.meta.attr.compatible_brands.markup">isomiso2avc1mp41</property>
  <property name="kdenlive:original.meta.attr.encoder.markup">Lavf58.76.100</property>
  <property name="kdenlive:original.meta.attr.comment.markup">Rendered with Manim Community v0.12.0</property>
  <property name="kdenlive:original.seekable">1</property>
  <property name="kdenlive:original.width">3840</property>
  <property name="kdenlive:original.height">2160</property>
  <property name="kdenlive:original.meta.media.sample_aspect_num">1</property>
  <property name="kdenlive:original.meta.media.sample_aspect_den">1</property>
  <property name="kdenlive:original.aspect_ratio">1</property>
  <property name="kdenlive:original.audio_index">-1</property>
  <property name="kdenlive:original.video_index">0</property>
  <property name="kdenlive:original.mute_on_pause">0</property>
  <property name="kdenlive:original.mlt_service">avformat-novalidate</property>
  <property name="kdenlive:original.kdenlive:folderid">399</property>
  <property name="kdenlive:original.meta.media.frame_rate_num">60</property>
  <property name="kdenlive:original.meta.media.frame_rate_den">1</property>
  <property name="kdenlive:original.meta.media.colorspace">709</property>
  <property name="kdenlive:original.meta.media.color_trc">2</property>
  <property name="kdenlive:original.meta.media.has_b_frames">2</property>
  <property name="kdenlive:original.meta.media.width">3840</property>
  <property name="kdenlive:original.meta.media.height">2160</property>
  <property name="kdenlive:original.meta.media.color_range">mpeg</property>
  <property name="kdenlive:original.kdenlive:id">408</property>
  <property name="kdenlive:original.kdenlive:file_size">60869</property>
  <property name="kdenlive:original.kdenlive:file_hash">558bc8ce70be3c7b6768c64514faa21d</property>
  <property name="kdenlive:original.backup">1</property>
  <property name="kdenlive:file_hash">558bc8ce70be3c7b6768c64514faa21d</property>
  <property name="meta.media.nb_streams">1</property>
  <property name="meta.media.0.stream.type">video</property>
  <property name="meta.media.0.stream.frame_rate">60</property>
  <property name="meta.media.0.stream.sample_aspect_ratio">0</property>
  <property name="meta.media.0.codec.width">640</property>
  <property name="meta.media.0.codec.height">360</property>
  <property name="meta.media.0.codec.rotate">0</property>
  <property name="meta.media.0.codec.pix_fmt">yuv420p</property>
  <property name="meta.media.0.codec.sample_aspect_ratio">0</property>
  <property name="meta.media.0.codec.colorspace">601</property>
  <property name="meta.media.0.codec.name">h264</property>
  <property name="meta.media.0.codec.long_name">H.264 / AVC / MPEG-4 AVC / MPEG-4 part 10</property>
  <property name="meta.media.0.codec.bit_rate">1457344</property>
  <property name="meta.attr.0.stream.handler_name.markup">VideoHandler</property>
  <property name="meta.attr.0.stream.vendor_id.markup">FFMP</property>
  <property name="meta.attr.0.stream.encoder.markup">Lavc58.134.100 libx264</property>
  <property name="meta.attr.major_brand.markup">qt  </property>
  <property name="meta.attr.minor_version.markup">512</property>
  <property name="meta.attr.compatible_brands.markup">qt  </property>
  <property name="meta.attr.encoder.markup">Lavf58.76.100</property>
  <property name="meta.attr.comment.markup">Rendered with Manim Community v0.12.0</property>
  <property name="meta.media.sample_aspect_num">1</property>
  <property name="meta.media.sample_aspect_den">1</property>
  <property name="meta.media.frame_rate_num">60</property>
  <property name="meta.media.frame_rate_den">1</property>
  <property name="meta.media.colorspace">601</property>
  <property name="meta.media.color_trc">2</property>
  <property name="meta.media.has_b_frames">0</property>
  <property name="meta.media.width">640</property>
  <property name="meta.media.height">360</property>
  <property name="meta.media.color_range">mpeg</property>
 </producer>
 <producer id="producer373" in="00:00:00.000" out="00:00:01.483">
  <property name="length">90</property>
  <property name="eof">pause</property>
  <property name="resource">/home/xiaoxiae/.cache/kdenlive/proxy/f675638f47996ba8709c7bdfedf1aee4.mov</property>
  <property name="audio_index">-1</property>
  <property name="video_index">0</property>
  <property name="mute_on_pause">0</property>
  <property name="mlt_service">avformat-novalidate</property>
  <property name="seekable">1</property>
  <property name="aspect_ratio">1</property>
  <property name="kdenlive:clipname">5.mp4</property>
  <property name="kdenlive:folderid">399</property>
  <property name="kdenlive:file_size">125234</property>
  <property name="kdenlive:id">408</property>
  <property name="kdenlive:proxy">/home/xiaoxiae/.cache/kdenlive/proxy/f675638f47996ba8709c7bdfedf1aee4.mov</property>
  <property name="kdenlive:originalurl">video/ToInfinity/vid/5.mp4</property>
  <property name="kdenlive:original.mlt_type">producer</property>
  <property name="kdenlive:original.in">0</property>
  <property name="kdenlive:original.out">89</property>
  <property name="kdenlive:original.length">90</property>
  <property name="kdenlive:original.eof">pause</property>
  <property name="kdenlive:original.resource">video/ToInfinity/vid/5.mp4</property>
  <property name="kdenlive:original.meta.media.nb_streams">1</property>
  <property name="kdenlive:original.meta.media.0.stream.type">video</property>
  <property name="kdenlive:original.meta.media.0.stream.frame_rate">60</property>
  <property name="kdenlive:original.meta.media.0.stream.sample_aspect_ratio">0</property>
  <property name="kdenlive:original.meta.media.0.codec.width">3840</property>
  <property name="kdenlive:original.meta.media.0.codec.height">2160</property>
  <property name="kdenlive:original.meta.media.0.codec.rotate">0</property>
  <property name="kdenlive:original.meta.media.0.codec.pix_fmt">yuv420p</property>
  <property name="kdenlive:original.meta.media.0.codec.sample_aspect_ratio">0</property>
  <property name="kdenlive:original.meta.media.0.codec.colorspace">709</property>
  <property name="kdenlive:original.meta.media.0.codec.name">h264</property>
  <property name="kdenlive:original.meta.media.0.codec.long_name">H.264 / AVC / MPEG-4 AVC / MPEG-4 part 10</property>
  <property name="kdenlive:original.meta.media.0.codec.bit_rate">657248</property>
  <property name="kdenlive:original.meta.attr.0.stream.handler_name.markup">VideoHandler</property>
  <property name="kdenlive:original.meta.attr.0.stream.vendor_id.markup">[0][0][0][0]</property>
  <property name="kdenlive:original.meta.attr.major_brand.markup">isom</property>
  <property name="kdenlive:original.meta.attr.minor_version.markup">512</property>
  <property name="kdenlive:original.meta.attr.compatible_brands.markup">isomiso2avc1mp41</property>
  <property name="kdenlive:original.meta.attr.encoder.markup">Lavf58.76.100</property>
  <property name="kdenlive:original.meta.attr.comment.markup">Rendered with Manim Community v0.12.0</property>
  <property name="kdenlive:original.seekable">1</property>
  <property name="kdenlive:original.width">3840</property>
  <property name="kdenlive:original.height">2160</property>
  <property name="kdenlive:original.meta.media.sample_aspect_num">1</property>
  <property name="kdenlive:original.meta.media.sample_aspect_den">1</property>
  <property name="kdenlive:original.aspect_ratio">1</property>
  <property name="kdenlive:original.audio_index">-1</property>
  <property name="kdenlive:original.video_index">0</property>
  <property name="kdenlive:original.mute_on_pause">0</property>
  <property name="kdenlive:original.mlt_service">avformat-novalidate</property>
  <property name="kdenlive:original.kdenlive:folderid">399</property>
  <property name="kdenlive:original.kdenlive:file_size">125234</property>
  <property name="kdenlive:original.meta.media.frame_rate_num">60</property>
  <property name="kdenlive:original.meta.media.frame_rate_den">1</property>
  <property name="kdenlive:original.meta.media.colorspace">709</property>
  <property name="kdenlive:original.meta.media.color_trc">2</property>
  <property name="kdenlive:original.meta.media.has_b_frames">2</property>
  <property name="kdenlive:original.meta.media.width">3840</property>
  <property name="kdenlive:original.meta.media.height">2160</property>
  <property name="kdenlive:original.meta.media.color_range">mpeg</property>
  <property name="kdenlive:original.kdenlive:id">409</property>
  <property name="kdenlive:original.kdenlive:file_hash">f675638f47996ba8709c7bdfedf1aee4</property>
  <property name="kdenlive:original.backup">1</property>
  <property name="kdenlive:file_hash">f675638f47996ba8709c7bdfedf1aee4</property>
  <property name="meta.media.nb_streams">1</property>
  <property name="meta.media.0.stream.type">video</property>
  <property name="meta.media.0.stream.frame_rate">60</property>
  <property name="meta.media.0.stream.sample_aspect_ratio">0</property>
  <property name="meta.media.0.codec.width">640</property>
  <property name="meta.media.0.codec.height">360</property>
  <property name="meta.media.0.codec.rotate">0</property>
  <property name="meta.media.0.codec.pix_fmt">yuv420p</property>
  <property name="meta.media.0.codec.sample_aspect_ratio">0</property>
  <property name="meta.media.0.codec.colorspace">601</property>
  <property name="meta.media.0.codec.name">h264</property>
  <property name="meta.media.0.codec.long_name">H.264 / AVC / MPEG-4 AVC / MPEG-4 part 10</property>
  <property name="meta.media.0.codec.bit_rate">1507050</property>
  <property name="meta.attr.0.stream.handler_name.markup">VideoHandler</property>
  <property name="meta.attr.0.stream.vendor_id.markup">FFMP</property>
  <property name="meta.attr.0.stream.encoder.markup">Lavc58.134.100 libx264</property>
  <property name="meta.attr.major_brand.markup">qt  </property>
  <property name="meta.attr.minor_version.markup">512</property>
  <property name="meta.attr.compatible_brands.markup">qt  </property>
  <property name="meta.attr.encoder.markup">Lavf58.76.100</property>
  <property name="meta.attr.comment.markup">Rendered with Manim Community v0.12.0</property>
  <property name="meta.media.sample_aspect_num">1</property>
  <property name="meta.media.sample_aspect_den">1</property>
  <property name="meta.media.frame_rate_num">60</property>
  <property name="meta.media.frame_rate_den">1</property>
  <property name="meta.media.colorspace">601</property>
  <property name="meta.media.color_trc">2</property>
  <property name="meta.media.has_b_frames">0</property>
  <property name="meta.media.width">640</property>
  <property name="meta.media.height">360</property>
  <property name="meta.media.color_range">mpeg</property>
 </producer>
 <producer id="producer374" in="00:00:00.000" out="00:00:01.483">
  <property name="length">90</property>
  <property name="eof">pause</property>
  <property name="resource">/home/xiaoxiae/.cache/kdenlive/proxy/e8a5fe5747ec48f61da5ee07cd44456c.mov</property>
  <property name="audio_index">-1</property>
  <property name="video_index">0</property>
  <property name="mute_on_pause">0</property>
  <property name="mlt_service">avformat-novalidate</property>
  <property name="seekable">1</property>
  <property name="aspect_ratio">1</property>
  <property name="kdenlive:clipname">6.mp4</property>
  <property name="kdenlive:folderid">399</property>
  <property name="kdenlive:id">409</property>
  <property name="kdenlive:file_size">153998</property>
  <property name="kdenlive:proxy">/home/xiaoxiae/.cache/kdenlive/proxy/e8a5fe5747ec48f61da5ee07cd44456c.mov</property>
  <property name="kdenlive:originalurl">video/ToInfinity/vid/6.mp4</property>
  <property name="kdenlive:original.mlt_type">producer</property>
  <property name="kdenlive:original.in">0</property>
  <property name="kdenlive:original.out">89</property>
  <property name="kdenlive:original.length">90</property>
  <property name="kdenlive:original.eof">pause</property>
  <property name="kdenlive:original.resource">video/ToInfinity/vid/6.mp4</property>
  <property name="kdenlive:original.meta.media.nb_streams">1</property>
  <property name="kdenlive:original.meta.media.0.stream.type">video</property>
  <property name="kdenlive:original.meta.media.0.stream.frame_rate">60</property>
  <property name="kdenlive:original.meta.media.0.stream.sample_aspect_ratio">0</property>
  <property name="kdenlive:original.meta.media.0.codec.width">3840</property>
  <property name="kdenlive:original.meta.media.0.codec.height">2160</property>
  <property name="kdenlive:original.meta.media.0.codec.rotate">0</property>
  <property name="kdenlive:original.meta.media.0.codec.pix_fmt">yuv420p</property>
  <property name="kdenlive:original.meta.media.0.codec.sample_aspect_ratio">0</property>
  <property name="kdenlive:original.meta.media.0.codec.colorspace">709</property>
  <property name="kdenlive:original.meta.media.0.codec.name">h264</property>
  <property name="kdenlive:original.meta.media.0.codec.long_name">H.264 / AVC / MPEG-4 AVC / MPEG-4 part 10</property>
  <property name="kdenlive:original.meta.media.0.codec.bit_rate">810656</property>
  <property name="kdenlive:original.meta.attr.0.stream.handler_name.markup">VideoHandler</property>
  <property name="kdenlive:original.meta.attr.0.stream.vendor_id.markup">[0][0][0][0]</property>
  <property name="kdenlive:original.meta.attr.major_brand.markup">isom</property>
  <property name="kdenlive:original.meta.attr.minor_version.markup">512</property>
  <property name="kdenlive:original.meta.attr.compatible_brands.markup">isomiso2avc1mp41</property>
  <property name="kdenlive:original.meta.attr.encoder.markup">Lavf58.76.100</property>
  <property name="kdenlive:original.meta.attr.comment.markup">Rendered with Manim Community v0.12.0</property>
  <property name="kdenlive:original.seekable">1</property>
  <property name="kdenlive:original.width">3840</property>
  <property name="kdenlive:original.height">2160</property>
  <property name="kdenlive:original.meta.media.sample_aspect_num">1</property>
  <property name="kdenlive:original.meta.media.sample_aspect_den">1</property>
  <property name="kdenlive:original.aspect_ratio">1</property>
  <property name="kdenlive:original.audio_index">-1</property>
  <property name="kdenlive:original.video_index">0</property>
  <property name="kdenlive:original.mute_on_pause">0</property>
  <property name="kdenlive:original.mlt_service">avformat-novalidate</property>
  <property name="kdenlive:original.kdenlive:folderid">399</property>
  <property name="kdenlive:original.meta.media.frame_rate_num">60</property>
  <property name="kdenlive:original.meta.media.frame_rate_den">1</property>
  <property name="kdenlive:original.meta.media.colorspace">709</property>
  <property name="kdenlive:original.meta.media.color_trc">2</property>
  <property name="kdenlive:original.meta.media.has_b_frames">2</property>
  <property name="kdenlive:original.meta.media.width">3840</property>
  <property name="kdenlive:original.meta.media.height">2160</property>
  <property name="kdenlive:original.meta.media.color_range">mpeg</property>
  <property name="kdenlive:original.kdenlive:id">410</property>
  <property name="kdenlive:original.kdenlive:file_size">153998</property>
  <property name="kdenlive:original.kdenlive:file_hash">e8a5fe5747ec48f61da5ee07cd44456c</property>
  <property name="kdenlive:original.backup">1</property>
  <property name="kdenlive:file_hash">e8a5fe5747ec48f61da5ee07cd44456c</property>
  <property name="meta.media.nb_streams">1</property>
  <property name="meta.media.0.stream.type">video</property>
  <property name="meta.media.0.stream.frame_rate">60</property>
  <property name="meta.media.0.stream.sample_aspect_ratio">0</property>
  <property name="meta.media.0.codec.width">640</property>
  <property name="meta.media.0.codec.height">360</property>
  <property name="meta.media.0.codec.rotate">0</property>
  <property name="meta.media.0.codec.pix_fmt">yuv420p</property>
  <property name="meta.media.0.codec.sample_aspect_ratio">0</property>
  <property name="meta.media.0.codec.colorspace">601</property>
  <property name="meta.media.0.codec.name">h264</property>
  <property name="meta.media.0.codec.long_name">H.264 / AVC / MPEG-4 AVC / MPEG-4 part 10</property>
  <property name="meta.media.0.codec.bit_rate">2508858</property>
  <property name="meta.attr.0.stream.handler_name.markup">VideoHandler</property>
  <property name="meta.attr.0.stream.vendor_id.markup">FFMP</property>
  <property name="meta.attr.0.stream.encoder.markup">Lavc58.134.100 libx264</property>
  <property name="meta.attr.major_brand.markup">qt  </property>
  <property name="meta.attr.minor_version.markup">512</property>
  <property name="meta.attr.compatible_brands.markup">qt  </property>
  <property name="meta.attr.encoder.markup">Lavf58.76.100</property>
  <property name="meta.attr.comment.markup">Rendered with Manim Community v0.12.0</property>
  <property name="meta.media.sample_aspect_num">1</property>
  <property name="meta.media.sample_aspect_den">1</property>
  <property name="meta.media.frame_rate_num">60</property>
  <property name="meta.media.frame_rate_den">1</property>
  <property name="meta.media.colorspace">601</property>
  <property name="meta.media.color_trc">2</property>
  <property name="meta.media.has_b_frames">0</property>
  <property name="meta.media.width">640</property>
  <property name="meta.media.height">360</property>
  <property name="meta.media.color_range">mpeg</property>
 </producer>
 <producer id="producer375" in="00:00:00.000" out="00:00:00.983">
  <property name="length">60</property>
  <property name="eof">pause</property>
  <property name="resource">/home/xiaoxiae/.cache/kdenlive/proxy/3351b8d5ed02b4b2b7ab33dc41061d4b.mov</property>
  <property name="audio_index">-1</property>
  <property name="video_index">0</property>
  <property name="mute_on_pause">0</property>
  <property name="mlt_service">avformat-novalidate</property>
  <property name="seekable">1</property>
  <property name="aspect_ratio">1</property>
  <property name="kdenlive:clipname">7.mp4</property>
  <property name="kdenlive:folderid">399</property>
  <property name="kdenlive:file_size">245179</property>
  <property name="kdenlive:id">410</property>
  <property name="kdenlive:proxy">/home/xiaoxiae/.cache/kdenlive/proxy/3351b8d5ed02b4b2b7ab33dc41061d4b.mov</property>
  <property name="kdenlive:originalurl">video/ToInfinity/vid/7.mp4</property>
  <property name="kdenlive:original.mlt_type">producer</property>
  <property name="kdenlive:original.in">0</property>
  <property name="kdenlive:original.out">59</property>
  <property name="kdenlive:original.length">60</property>
  <property name="kdenlive:original.eof">pause</property>
  <property name="kdenlive:original.resource">video/ToInfinity/vid/7.mp4</property>
  <property name="kdenlive:original.meta.media.nb_streams">1</property>
  <property name="kdenlive:original.meta.media.0.stream.type">video</property>
  <property name="kdenlive:original.meta.media.0.stream.frame_rate">60</property>
  <property name="kdenlive:original.meta.media.0.stream.sample_aspect_ratio">0</property>
  <property name="kdenlive:original.meta.media.0.codec.width">3840</property>
  <property name="kdenlive:original.meta.media.0.codec.height">2160</property>
  <property name="kdenlive:original.meta.media.0.codec.rotate">0</property>
  <property name="kdenlive:original.meta.media.0.codec.pix_fmt">yuv420p</property>
  <property name="kdenlive:original.meta.media.0.codec.sample_aspect_ratio">0</property>
  <property name="kdenlive:original.meta.media.0.codec.colorspace">709</property>
  <property name="kdenlive:original.meta.media.0.codec.name">h264</property>
  <property name="kdenlive:original.meta.media.0.codec.long_name">H.264 / AVC / MPEG-4 AVC / MPEG-4 part 10</property>
  <property name="kdenlive:original.meta.media.0.codec.bit_rate">1948824</property>
  <property name="kdenlive:original.meta.attr.0.stream.handler_name.markup">VideoHandler</property>
  <property name="kdenlive:original.meta.attr.0.stream.vendor_id.markup">[0][0][0][0]</property>
  <property name="kdenlive:original.meta.attr.major_brand.markup">isom</property>
  <property name="kdenlive:original.meta.attr.minor_version.markup">512</property>
  <property name="kdenlive:original.meta.attr.compatible_brands.markup">isomiso2avc1mp41</property>
  <property name="kdenlive:original.meta.attr.encoder.markup">Lavf58.76.100</property>
  <property name="kdenlive:original.meta.attr.comment.markup">Rendered with Manim Community v0.12.0</property>
  <property name="kdenlive:original.seekable">1</property>
  <property name="kdenlive:original.width">3840</property>
  <property name="kdenlive:original.height">2160</property>
  <property name="kdenlive:original.meta.media.sample_aspect_num">1</property>
  <property name="kdenlive:original.meta.media.sample_aspect_den">1</property>
  <property name="kdenlive:original.aspect_ratio">1</property>
  <property name="kdenlive:original.audio_index">-1</property>
  <property name="kdenlive:original.video_index">0</property>
  <property name="kdenlive:original.mute_on_pause">0</property>
  <property name="kdenlive:original.mlt_service">avformat-novalidate</property>
  <property name="kdenlive:original.kdenlive:folderid">399</property>
  <property name="kdenlive:original.kdenlive:file_size">245179</property>
  <property name="kdenlive:original.meta.media.frame_rate_num">60</property>
  <property name="kdenlive:original.meta.media.frame_rate_den">1</property>
  <property name="kdenlive:original.meta.media.colorspace">709</property>
  <property name="kdenlive:original.meta.media.color_trc">2</property>
  <property name="kdenlive:original.meta.media.has_b_frames">2</property>
  <property name="kdenlive:original.meta.media.width">3840</property>
  <property name="kdenlive:original.meta.media.height">2160</property>
  <property name="kdenlive:original.meta.media.color_range">mpeg</property>
  <property name="kdenlive:original.kdenlive:id">411</property>
  <property name="kdenlive:original.kdenlive:file_hash">3351b8d5ed02b4b2b7ab33dc41061d4b</property>
  <property name="kdenlive:original.backup">1</property>
  <property name="kdenlive:file_hash">3351b8d5ed02b4b2b7ab33dc41061d4b</property>
  <property name="meta.media.nb_streams">1</property>
  <property name="meta.media.0.stream.type">video</property>
  <property name="meta.media.0.stream.frame_rate">60</property>
  <property name="meta.media.0.stream.sample_aspect_ratio">0</property>
  <property name="meta.media.0.codec.width">640</property>
  <property name="meta.media.0.codec.height">360</property>
  <property name="meta.media.0.codec.rotate">0</property>
  <property name="meta.media.0.codec.pix_fmt">yuv420p</property>
  <property name="meta.media.0.codec.sample_aspect_ratio">0</property>
  <property name="meta.media.0.codec.colorspace">601</property>
  <property name="meta.media.0.codec.name">h264</property>
  <property name="meta.media.0.codec.long_name">H.264 / AVC / MPEG-4 AVC / MPEG-4 part 10</property>
  <property name="meta.media.0.codec.bit_rate">3001464</property>
  <property name="meta.attr.0.stream.handler_name.markup">VideoHandler</property>
  <property name="meta.attr.0.stream.vendor_id.markup">FFMP</property>
  <property name="meta.attr.0.stream.encoder.markup">Lavc58.134.100 libx264</property>
  <property name="meta.attr.major_brand.markup">qt  </property>
  <property name="meta.attr.minor_version.markup">512</property>
  <property name="meta.attr.compatible_brands.markup">qt  </property>
  <property name="meta.attr.encoder.markup">Lavf58.76.100</property>
  <property name="meta.attr.comment.markup">Rendered with Manim Community v0.12.0</property>
  <property name="meta.media.sample_aspect_num">1</property>
  <property name="meta.media.sample_aspect_den">1</property>
  <property name="meta.media.frame_rate_num">60</property>
  <property name="meta.media.frame_rate_den">1</property>
  <property name="meta.media.colorspace">601</property>
  <property name="meta.media.color_trc">2</property>
  <property name="meta.media.has_b_frames">0</property>
  <property name="meta.media.width">640</property>
  <property name="meta.media.height">360</property>
  <property name="meta.media.color_range">mpeg</property>
 </producer>
 <producer id="producer376" in="00:00:00.000" out="00:00:00.983">
  <property name="length">60</property>
  <property name="eof">pause</property>
  <property name="resource">/home/xiaoxiae/.cache/kdenlive/proxy/eb2ee235b0c09380c796e9a920e94ea6.mov</property>
  <property name="audio_index">-1</property>
  <property name="video_index">0</property>
  <property name="mute_on_pause">0</property>
  <property name="mlt_service">avformat-novalidate</property>
  <property name="seekable">1</property>
  <property name="aspect_ratio">1</property>
  <property name="kdenlive:clipname">8.mp4</property>
  <property name="kdenlive:folderid">399</property>
  <property name="kdenlive:id">411</property>
  <property name="kdenlive:file_size">103846</property>
  <property name="kdenlive:proxy">/home/xiaoxiae/.cache/kdenlive/proxy/eb2ee235b0c09380c796e9a920e94ea6.mov</property>
  <property name="kdenlive:originalurl">video/ToInfinity/vid/8.mp4</property>
  <property name="kdenlive:original.mlt_type">producer</property>
  <property name="kdenlive:original.in">0</property>
  <property name="kdenlive:original.out">59</property>
  <property name="kdenlive:original.length">60</property>
  <property name="kdenlive:original.eof">pause</property>
  <property name="kdenlive:original.resource">video/ToInfinity/vid/8.mp4</property>
  <property name="kdenlive:original.meta.media.nb_streams">1</property>
  <property name="kdenlive:original.meta.media.0.stream.type">video</property>
  <property name="kdenlive:original.meta.media.0.stream.frame_rate">60</property>
  <property name="kdenlive:original.meta.media.0.stream.sample_aspect_ratio">0</property>
  <property name="kdenlive:original.meta.media.0.codec.width">3840</property>
  <property name="kdenlive:original.meta.media.0.codec.height">2160</property>
  <property name="kdenlive:original.meta.media.0.codec.rotate">0</property>
  <property name="kdenlive:original.meta.media.0.codec.pix_fmt">yuv420p</property>
  <property name="kdenlive:original.meta.media.0.codec.sample_aspect_ratio">0</property>
  <property name="kdenlive:original.meta.media.0.codec.colorspace">709</property>
  <property name="kdenlive:original.meta.media.0.codec.name">h264</property>
  <property name="kdenlive:original.meta.media.0.codec.long_name">H.264 / AVC / MPEG-4 AVC / MPEG-4 part 10</property>
  <property name="kdenlive:original.meta.media.0.codec.bit_rate">817712</property>
  <property name="kdenlive:original.meta.attr.0.stream.handler_name.markup">VideoHandler</property>
  <property name="kdenlive:original.meta.attr.0.stream.vendor_id.markup">[0][0][0][0]</property>
  <property name="kdenlive:original.meta.attr.major_brand.markup">isom</property>
  <property name="kdenlive:original.meta.attr.minor_version.markup">512</property>
  <property name="kdenlive:original.meta.attr.compatible_brands.markup">isomiso2avc1mp41</property>
  <property name="kdenlive:original.meta.attr.encoder.markup">Lavf58.76.100</property>
  <property name="kdenlive:original.meta.attr.comment.markup">Rendered with Manim Community v0.12.0</property>
  <property name="kdenlive:original.seekable">1</property>
  <property name="kdenlive:original.width">3840</property>
  <property name="kdenlive:original.height">2160</property>
  <property name="kdenlive:original.meta.media.sample_aspect_num">1</property>
  <property name="kdenlive:original.meta.media.sample_aspect_den">1</property>
  <property name="kdenlive:original.aspect_ratio">1</property>
  <property name="kdenlive:original.audio_index">-1</property>
  <property name="kdenlive:original.video_index">0</property>
  <property name="kdenlive:original.mute_on_pause">0</property>
  <property name="kdenlive:original.mlt_service">avformat-novalidate</property>
  <property name="kdenlive:original.kdenlive:folderid">399</property>
  <property name="kdenlive:original.meta.media.frame_rate_num">60</property>
  <property name="kdenlive:original.meta.media.frame_rate_den">1</property>
  <property name="kdenlive:original.meta.media.colorspace">709</property>
  <property name="kdenlive:original.meta.media.color_trc">2</property>
  <property name="kdenlive:original.meta.media.has_b_frames">2</property>
  <property name="kdenlive:original.meta.media.width">3840</property>
  <property name="kdenlive:original.meta.media.height">2160</property>
  <property name="kdenlive:original.meta.media.color_range">mpeg</property>
  <property name="kdenlive:original.kdenlive:id">412</property>
  <property name="kdenlive:original.kdenlive:file_size">103846</property>
  <property name="kdenlive:original.kdenlive:file_hash">eb2ee235b0c09380c796e9a920e94ea6</property>
  <property name="kdenlive:original.backup">1</property>
  <property name="kdenlive:file_hash">eb2ee235b0c09380c796e9a920e94ea6</property>
  <property name="meta.media.nb_streams">1</property>
  <property name="meta.media.0.stream.type">video</property>
  <property name="meta.media.0.stream.frame_rate">60</property>
  <property name="meta.media.0.stream.sample_aspect_ratio">0</property>
  <property name="meta.media.0.codec.width">640</property>
  <property name="meta.media.0.codec.height">360</property>
  <property name="meta.media.0.codec.rotate">0</property>
  <property name="meta.media.0.codec.pix_fmt">yuv420p</property>
  <property name="meta.media.0.codec.sample_aspect_ratio">0</property>
  <property name="meta.media.0.codec.colorspace">601</property>
  <property name="meta.media.0.codec.name">h264</property>
  <property name="meta.media.0.codec.long_name">H.264 / AVC / MPEG-4 AVC / MPEG-4 part 10</property>
  <property name="meta.media.0.codec.bit_rate">3264896</property>
  <property name="meta.attr.0.stream.handler_name.markup">VideoHandler</property>
  <property name="meta.attr.0.stream.vendor_id.markup">FFMP</property>
  <property name="meta.attr.0.stream.encoder.markup">Lavc58.134.100 libx264</property>
  <property name="meta.attr.major_brand.markup">qt  </property>
  <property name="meta.attr.minor_version.markup">512</property>
  <property name="meta.attr.compatible_brands.markup">qt  </property>
  <property name="meta.attr.encoder.markup">Lavf58.76.100</property>
  <property name="meta.attr.comment.markup">Rendered with Manim Community v0.12.0</property>
  <property name="meta.media.sample_aspect_num">1</property>
  <property name="meta.media.sample_aspect_den">1</property>
  <property name="meta.media.frame_rate_num">60</property>
  <property name="meta.media.frame_rate_den">1</property>
  <property name="meta.media.colorspace">601</property>
  <property name="meta.media.color_trc">2</property>
  <property name="meta.media.has_b_frames">0</property>
  <property name="meta.media.width">640</property>
  <property name="meta.media.height">360</property>
  <property name="meta.media.color_range">mpeg</property>
 </producer>
 <producer id="producer377" in="00:00:00.000" out="00:00:01.483">
  <property name="length">90</property>
  <property name="eof">pause</property>
  <property name="resource">/home/xiaoxiae/.cache/kdenlive/proxy/babc82d3ead1e8bb6e67bffd2d3bef6a.mov</property>
  <property name="audio_index">-1</property>
  <property name="video_index">0</property>
  <property name="mute_on_pause">0</property>
  <property name="mlt_service">avformat-novalidate</property>
  <property name="seekable">1</property>
  <property name="aspect_ratio">1</property>
  <property name="kdenlive:clipname">9.mp4</property>
  <property name="kdenlive:folderid">399</property>
  <property name="kdenlive:id">412</property>
  <property name="kdenlive:file_size">228558</property>
  <property name="kdenlive:proxy">/home/xiaoxiae/.cache/kdenlive/proxy/babc82d3ead1e8bb6e67bffd2d3bef6a.mov</property>
  <property name="kdenlive:originalurl">video/ToInfinity/vid/9.mp4</property>
  <property name="kdenlive:original.mlt_type">producer</property>
  <property name="kdenlive:original.in">0</property>
  <property name="kdenlive:original.out">89</property>
  <property name="kdenlive:original.length">90</property>
  <property name="kdenlive:original.eof">pause</property>
  <property name="kdenlive:original.resource">video/ToInfinity/vid/9.mp4</property>
  <property name="kdenlive:original.meta.media.nb_streams">1</property>
  <property name="kdenlive:original.meta.media.0.stream.type">video</property>
  <property name="kdenlive:original.meta.media.0.stream.frame_rate">60</property>
  <property name="kdenlive:original.meta.media.0.stream.sample_aspect_ratio">0</property>
  <property name="kdenlive:original.meta.media.0.codec.width">3840</property>
  <property name="kdenlive:original.meta.media.0.codec.height">2160</property>
  <property name="kdenlive:original.meta.media.0.codec.rotate">0</property>
  <property name="kdenlive:original.meta.media.0.codec.pix_fmt">yuv420p</property>
  <property name="kdenlive:original.meta.media.0.codec.sample_aspect_ratio">0</property>
  <property name="kdenlive:original.meta.media.0.codec.colorspace">709</property>
  <property name="kdenlive:original.meta.media.0.codec.name">h264</property>
  <property name="kdenlive:original.meta.media.0.codec.long_name">H.264 / AVC / MPEG-4 AVC / MPEG-4 part 10</property>
  <property name="kdenlive:original.meta.media.0.codec.bit_rate">1209034</property>
  <property name="kdenlive:original.meta.attr.0.stream.handler_name.markup">VideoHandler</property>
  <property name="kdenlive:original.meta.attr.0.stream.vendor_id.markup">[0][0][0][0]</property>
  <property name="kdenlive:original.meta.attr.major_brand.markup">isom</property>
  <property name="kdenlive:original.meta.attr.minor_version.markup">512</property>
  <property name="kdenlive:original.meta.attr.compatible_brands.markup">isomiso2avc1mp41</property>
  <property name="kdenlive:original.meta.attr.encoder.markup">Lavf58.76.100</property>
  <property name="kdenlive:original.meta.attr.comment.markup">Rendered with Manim Community v0.12.0</property>
  <property name="kdenlive:original.seekable">1</property>
  <property name="kdenlive:original.width">3840</property>
  <property name="kdenlive:original.height">2160</property>
  <property name="kdenlive:original.meta.media.sample_aspect_num">1</property>
  <property name="kdenlive:original.meta.media.sample_aspect_den">1</property>
  <property name="kdenlive:original.aspect_ratio">1</property>
  <property name="kdenlive:original.audio_index">-1</property>
  <property name="kdenlive:original.video_index">0</property>
  <property name="kdenlive:original.mute_on_pause">0</property>
  <property name="kdenlive:original.mlt_service">avformat-novalidate</property>
  <property name="kdenlive:original.kdenlive:folderid">399</property>
  <property name="kdenlive:original.meta.media.frame_rate_num">60</property>
  <property name="kdenlive:original.meta.media.frame_rate_den">1</property>
  <property name="kdenlive:original.meta.media.colorspace">709</property>
  <property name="kdenlive:original.meta.media.color_trc">2</property>
  <property name="kdenlive:original.meta.media.has_b_frames">2</property>
  <property name="kdenlive:original.meta.media.width">3840</property>
  <property name="kdenlive:original.meta.media.height">2160</property>
  <property name="kdenlive:original.meta.media.color_range">mpeg</property>
  <property name="kdenlive:original.kdenlive:id">413</property>
  <property name="kdenlive:original.kdenlive:file_size">228558</property>
  <property name="kdenlive:original.kdenlive:file_hash">babc82d3ead1e8bb6e67bffd2d3bef6a</property>
  <property name="kdenlive:original.backup">1</property>
  <property name="kdenlive:file_hash">babc82d3ead1e8bb6e67bffd2d3bef6a</property>
  <property name="meta.media.nb_streams">1</property>
  <property name="meta.media.0.stream.type">video</property>
  <property name="meta.media.0.stream.frame_rate">60</property>
  <property name="meta.media.0.stream.sample_aspect_ratio">0</property>
  <property name="meta.media.0.codec.width">640</property>
  <property name="meta.media.0.codec.height">360</property>
  <property name="meta.media.0.codec.rotate">0</property>
  <property name="meta.media.0.codec.pix_fmt">yuv420p</property>
  <property name="meta.media.0.codec.sample_aspect_ratio">0</property>
  <property name="meta.media.0.codec.colorspace">601</property>
  <property name="meta.media.0.codec.name">h264</property>
  <property name="meta.media.0.codec.long_name">H.264 / AVC / MPEG-4 AVC / MPEG-4 part 10</property>
  <property name="meta.media.0.codec.bit_rate">3121269</property>
  <property name="meta.attr.0.stream.handler_name.markup">VideoHandler</property>
  <property name="meta.attr.0.stream.vendor_id.markup">FFMP</property>
  <property name="meta.attr.0.stream.encoder.markup">Lavc58.134.100 libx264</property>
  <property name="meta.attr.major_brand.markup">qt  </property>
  <property name="meta.attr.minor_version.markup">512</property>
  <property name="meta.attr.compatible_brands.markup">qt  </property>
  <property name="meta.attr.encoder.markup">Lavf58.76.100</property>
  <property name="meta.attr.comment.markup">Rendered with Manim Community v0.12.0</property>
  <property name="meta.media.sample_aspect_num">1</property>
  <property name="meta.media.sample_aspect_den">1</property>
  <property name="meta.media.frame_rate_num">60</property>
  <property name="meta.media.frame_rate_den">1</property>
  <property name="meta.media.colorspace">601</property>
  <property name="meta.media.color_trc">2</property>
  <property name="meta.media.has_b_frames">0</property>
  <property name="meta.media.width">640</property>
  <property name="meta.media.height">360</property>
  <property name="meta.media.color_range">mpeg</property>
 </producer>
 <producer id="producer378" in="00:00:00.000" out="00:00:24.000">
  <property name="length">1441</property>
  <property name="eof">pause</property>
  <property name="resource">/home/xiaoxiae/.cache/kdenlive/proxy/30ea6e8dc0912c7f6cab813a81c5ba8f.mov</property>
  <property name="audio_index">-1</property>
  <property name="video_index">0</property>
  <property name="mute_on_pause">0</property>
  <property name="mlt_service">avformat-novalidate</property>
  <property name="seekable">1</property>
  <property name="aspect_ratio">1</property>
  <property name="kdenlive:clipname">ParenthesesExample.mp4</property>
  <property name="kdenlive:folderid">101</property>
  <property name="kdenlive:id">104</property>
  <property name="kdenlive:file_size">114519</property>
  <property name="kdenlive:proxy">/home/xiaoxiae/.cache/kdenlive/proxy/30ea6e8dc0912c7f6cab813a81c5ba8f.mov</property>
  <property name="kdenlive:originalurl">video/ParenthesesExample.mp4</property>
  <property name="kdenlive:original.mlt_type">producer</property>
  <property name="kdenlive:original.in">00:00:00.000</property>
  <property name="kdenlive:original.out">00:00:24.000</property>
  <property name="kdenlive:original.length">1441</property>
  <property name="kdenlive:original.eof">pause</property>
  <property name="kdenlive:original.resource">video/ParenthesesExample.mp4</property>
  <property name="kdenlive:original.meta.media.nb_streams">1</property>
  <property name="kdenlive:original.meta.media.0.stream.type">video</property>
  <property name="kdenlive:original.meta.media.0.stream.frame_rate">59.9992</property>
  <property name="kdenlive:original.meta.media.0.stream.sample_aspect_ratio">0</property>
  <property name="kdenlive:original.meta.media.0.codec.width">3840</property>
  <property name="kdenlive:original.meta.media.0.codec.height">2160</property>
  <property name="kdenlive:original.meta.media.0.codec.rotate">0</property>
  <property name="kdenlive:original.meta.media.0.codec.pix_fmt">yuv420p</property>
  <property name="kdenlive:original.meta.media.0.codec.sample_aspect_ratio">0</property>
  <property name="kdenlive:original.meta.media.0.codec.colorspace">709</property>
  <property name="kdenlive:original.meta.media.0.codec.name">h264</property>
  <property name="kdenlive:original.meta.media.0.codec.long_name">H.264 / AVC / MPEG-4 AVC / MPEG-4 part 10</property>
  <property name="kdenlive:original.meta.media.0.codec.bit_rate">1906475</property>
  <property name="kdenlive:original.meta.attr.0.stream.handler_name.markup">VideoHandler</property>
  <property name="kdenlive:original.meta.attr.0.stream.vendor_id.markup">[0][0][0][0]</property>
  <property name="kdenlive:original.meta.attr.major_brand.markup">isom</property>
  <property name="kdenlive:original.meta.attr.minor_version.markup">512</property>
  <property name="kdenlive:original.meta.attr.compatible_brands.markup">isomiso2avc1mp41</property>
  <property name="kdenlive:original.meta.attr.encoder.markup">Lavf58.76.100</property>
  <property name="kdenlive:original.meta.attr.comment.markup">Rendered with Manim Community v0.12.0</property>
  <property name="kdenlive:original.seekable">1</property>
  <property name="kdenlive:original.width">3840</property>
  <property name="kdenlive:original.height">2160</property>
  <property name="kdenlive:original.meta.media.sample_aspect_num">1</property>
  <property name="kdenlive:original.meta.media.sample_aspect_den">1</property>
  <property name="kdenlive:original.aspect_ratio">1</property>
  <property name="kdenlive:original.audio_index">-1</property>
  <property name="kdenlive:original.video_index">0</property>
  <property name="kdenlive:original.mute_on_pause">0</property>
  <property name="kdenlive:original.mlt_service">avformat-novalidate</property>
  <property name="kdenlive:original.kdenlive:folderid">101</property>
  <property name="kdenlive:original.meta.media.frame_rate_num">7377920</property>
  <property name="kdenlive:original.meta.media.frame_rate_den">122967</property>
  <property name="kdenlive:original.meta.media.colorspace">709</property>
  <property name="kdenlive:original.meta.media.color_trc">2</property>
  <property name="kdenlive:original.meta.media.has_b_frames">2</property>
  <property name="kdenlive:original.meta.media.width">3840</property>
  <property name="kdenlive:original.meta.media.height">2160</property>
  <property name="kdenlive:original.meta.media.color_range">mpeg</property>
  <property name="kdenlive:original.kdenlive:id">105</property>
  <property name="kdenlive:original.kdenlive:file_size">5740971</property>
  <property name="kdenlive:original.kdenlive:file_hash">30ea6e8dc0912c7f6cab813a81c5ba8f</property>
  <property name="kdenlive:original.backup">1</property>
  <property name="kdenlive:file_hash">839424e52630eb1e567c81753936b9a1</property>
  <property name="meta.media.nb_streams">1</property>
  <property name="meta.media.0.stream.type">video</property>
  <property name="meta.media.0.stream.frame_rate">60</property>
  <property name="meta.media.0.stream.sample_aspect_ratio">0</property>
  <property name="meta.media.0.codec.width">640</property>
  <property name="meta.media.0.codec.height">360</property>
  <property name="meta.media.0.codec.rotate">0</property>
  <property name="meta.media.0.codec.pix_fmt">yuv420p</property>
  <property name="meta.media.0.codec.sample_aspect_ratio">0</property>
  <property name="meta.media.0.codec.colorspace">601</property>
  <property name="meta.media.0.codec.name">h264</property>
  <property name="meta.media.0.codec.long_name">H.264 / AVC / MPEG-4 AVC / MPEG-4 part 10</property>
  <property name="meta.media.0.codec.bit_rate">3707711</property>
  <property name="meta.attr.0.stream.handler_name.markup">VideoHandler</property>
  <property name="meta.attr.0.stream.vendor_id.markup">FFMP</property>
  <property name="meta.attr.0.stream.encoder.markup">Lavc58.134.100 libx264</property>
  <property name="meta.attr.major_brand.markup">qt  </property>
  <property name="meta.attr.minor_version.markup">512</property>
  <property name="meta.attr.compatible_brands.markup">qt  </property>
  <property name="meta.attr.encoder.markup">Lavf58.76.100</property>
  <property name="meta.attr.comment.markup">Rendered with Manim Community v0.12.0</property>
  <property name="meta.media.sample_aspect_num">1</property>
  <property name="meta.media.sample_aspect_den">1</property>
  <property name="meta.media.frame_rate_num">60</property>
  <property name="meta.media.frame_rate_den">1</property>
  <property name="meta.media.colorspace">601</property>
  <property name="meta.media.color_trc">2</property>
  <property name="meta.media.has_b_frames">0</property>
  <property name="meta.media.width">640</property>
  <property name="meta.media.height">360</property>
  <property name="meta.media.color_range">mpeg</property>
 </producer>
 <producer id="producer381" in="00:00:00.000" out="00:00:15.833">
  <property name="length">951</property>
  <property name="eof">pause</property>
  <property name="resource">/home/xiaoxiae/.cache/kdenlive/proxy/194f5f9601a9e276330f59a24395529b.mov</property>
  <property name="audio_index">-1</property>
  <property name="video_index">0</property>
  <property name="mute_on_pause">0</property>
  <property name="mlt_service">avformat-novalidate</property>
  <property name="seekable">1</property>
  <property name="aspect_ratio">1</property>
  <property name="kdenlive:clipname">ComputationalPower.mp4</property>
  <property name="kdenlive:folderid">101</property>
  <property name="kdenlive:id">100</property>
  <property name="kdenlive:file_size">201876</property>
  <property name="kdenlive:proxy">/home/xiaoxiae/.cache/kdenlive/proxy/194f5f9601a9e276330f59a24395529b.mov</property>
  <property name="kdenlive:originalurl">video/ComputationalPower.mp4</property>
  <property name="kdenlive:original.mlt_type">producer</property>
  <property name="kdenlive:original.in">00:00:00.000</property>
  <property name="kdenlive:original.out">00:00:15.833</property>
  <property name="kdenlive:original.length">951</property>
  <property name="kdenlive:original.eof">pause</property>
  <property name="kdenlive:original.resource">video/ComputationalPower.mp4</property>
  <property name="kdenlive:original.meta.media.nb_streams">1</property>
  <property name="kdenlive:original.meta.media.0.stream.type">video</property>
  <property name="kdenlive:original.meta.media.0.stream.frame_rate">60</property>
  <property name="kdenlive:original.meta.media.0.stream.sample_aspect_ratio">0</property>
  <property name="kdenlive:original.meta.media.0.codec.width">3840</property>
  <property name="kdenlive:original.meta.media.0.codec.height">2160</property>
  <property name="kdenlive:original.meta.media.0.codec.rotate">0</property>
  <property name="kdenlive:original.meta.media.0.codec.pix_fmt">yuv420p</property>
  <property name="kdenlive:original.meta.media.0.codec.sample_aspect_ratio">0</property>
  <property name="kdenlive:original.meta.media.0.codec.colorspace">709</property>
  <property name="kdenlive:original.meta.media.0.codec.name">h264</property>
  <property name="kdenlive:original.meta.media.0.codec.long_name">H.264 / AVC / MPEG-4 AVC / MPEG-4 part 10</property>
  <property name="kdenlive:original.meta.media.0.codec.bit_rate">927230</property>
  <property name="kdenlive:original.meta.attr.0.stream.handler_name.markup">VideoHandler</property>
  <property name="kdenlive:original.meta.attr.0.stream.vendor_id.markup">[0][0][0][0]</property>
  <property name="kdenlive:original.meta.attr.major_brand.markup">isom</property>
  <property name="kdenlive:original.meta.attr.minor_version.markup">512</property>
  <property name="kdenlive:original.meta.attr.compatible_brands.markup">isomiso2avc1mp41</property>
  <property name="kdenlive:original.meta.attr.encoder.markup">Lavf58.76.100</property>
  <property name="kdenlive:original.meta.attr.comment.markup">Rendered with Manim Community v0.12.0</property>
  <property name="kdenlive:original.seekable">1</property>
  <property name="kdenlive:original.width">3840</property>
  <property name="kdenlive:original.height">2160</property>
  <property name="kdenlive:original.meta.media.sample_aspect_num">1</property>
  <property name="kdenlive:original.meta.media.sample_aspect_den">1</property>
  <property name="kdenlive:original.aspect_ratio">1</property>
  <property name="kdenlive:original.audio_index">-1</property>
  <property name="kdenlive:original.video_index">0</property>
  <property name="kdenlive:original.mute_on_pause">0</property>
  <property name="kdenlive:original.mlt_service">avformat-novalidate</property>
  <property name="kdenlive:original.kdenlive:folderid">101</property>
  <property name="kdenlive:original.meta.media.frame_rate_num">60</property>
  <property name="kdenlive:original.meta.media.frame_rate_den">1</property>
  <property name="kdenlive:original.meta.media.colorspace">709</property>
  <property name="kdenlive:original.meta.media.color_trc">2</property>
  <property name="kdenlive:original.meta.media.has_b_frames">2</property>
  <property name="kdenlive:original.meta.media.width">3840</property>
  <property name="kdenlive:original.meta.media.height">2160</property>
  <property name="kdenlive:original.meta.media.color_range">mpeg</property>
  <property name="kdenlive:original.kdenlive:id">102</property>
  <property name="kdenlive:original.kdenlive:file_size">1849160</property>
  <property name="kdenlive:original.kdenlive:file_hash">194f5f9601a9e276330f59a24395529b</property>
  <property name="kdenlive:original.backup">1</property>
  <property name="kdenlive:file_hash">8234470ef018af0f5a0eb90faf2fbf99</property>
  <property name="meta.media.nb_streams">1</property>
  <property name="meta.media.0.stream.type">video</property>
  <property name="meta.media.0.stream.frame_rate">60</property>
  <property name="meta.media.0.stream.sample_aspect_ratio">0</property>
  <property name="meta.media.0.codec.width">640</property>
  <property name="meta.media.0.codec.height">360</property>
  <property name="meta.media.0.codec.rotate">0</property>
  <property name="meta.media.0.codec.pix_fmt">yuv420p</property>
  <property name="meta.media.0.codec.sample_aspect_ratio">0</property>
  <property name="meta.media.0.codec.colorspace">601</property>
  <property name="meta.media.0.codec.name">h264</property>
  <property name="meta.media.0.codec.long_name">H.264 / AVC / MPEG-4 AVC / MPEG-4 part 10</property>
  <property name="meta.media.0.codec.bit_rate">1354629</property>
  <property name="meta.attr.0.stream.handler_name.markup">VideoHandler</property>
  <property name="meta.attr.0.stream.vendor_id.markup">FFMP</property>
  <property name="meta.attr.0.stream.encoder.markup">Lavc58.134.100 libx264</property>
  <property name="meta.attr.major_brand.markup">qt  </property>
  <property name="meta.attr.minor_version.markup">512</property>
  <property name="meta.attr.compatible_brands.markup">qt  </property>
  <property name="meta.attr.encoder.markup">Lavf58.76.100</property>
  <property name="meta.attr.comment.markup">Rendered with Manim Community v0.12.0</property>
  <property name="meta.media.sample_aspect_num">1</property>
  <property name="meta.media.sample_aspect_den">1</property>
  <property name="meta.media.frame_rate_num">60</property>
  <property name="meta.media.frame_rate_den">1</property>
  <property name="meta.media.colorspace">601</property>
  <property name="meta.media.color_trc">2</property>
  <property name="meta.media.has_b_frames">0</property>
  <property name="meta.media.width">640</property>
  <property name="meta.media.height">360</property>
  <property name="meta.media.color_range">mpeg</property>
 </producer>
 <producer id="producer384" in="00:00:00.000" out="00:00:18.283">
  <property name="length">1098</property>
  <property name="eof">pause</property>
  <property name="resource">/home/xiaoxiae/.cache/kdenlive/proxy/5de2c2a594e4939a8a4b1e779a0311e6.mov</property>
  <property name="audio_index">-1</property>
  <property name="video_index">0</property>
  <property name="mute_on_pause">0</property>
  <property name="mlt_service">avformat-novalidate</property>
  <property name="seekable">1</property>
  <property name="aspect_ratio">1</property>
  <property name="kdenlive:clipname">ToInfinity.mp4</property>
  <property name="kdenlive:folderid">101</property>
  <property name="kdenlive:id">107</property>
  <property name="kdenlive:file_size">971405</property>
  <property name="kdenlive:proxy">/home/xiaoxiae/.cache/kdenlive/proxy/5de2c2a594e4939a8a4b1e779a0311e6.mov</property>
  <property name="kdenlive:originalurl">video/ToInfinity.mp4</property>
  <property name="kdenlive:original.mlt_type">producer</property>
  <property name="kdenlive:original.in">00:00:00.000</property>
  <property name="kdenlive:original.out">00:00:18.283</property>
  <property name="kdenlive:original.length">1098</property>
  <property name="kdenlive:original.eof">pause</property>
  <property name="kdenlive:original.resource">video/ToInfinity.mp4</property>
  <property name="kdenlive:original.meta.media.nb_streams">1</property>
  <property name="kdenlive:original.meta.media.0.stream.type">video</property>
  <property name="kdenlive:original.meta.media.0.stream.frame_rate">60</property>
  <property name="kdenlive:original.meta.media.0.stream.sample_aspect_ratio">0</property>
  <property name="kdenlive:original.meta.media.0.codec.width">3840</property>
  <property name="kdenlive:original.meta.media.0.codec.height">2160</property>
  <property name="kdenlive:original.meta.media.0.codec.rotate">0</property>
  <property name="kdenlive:original.meta.media.0.codec.pix_fmt">yuv420p</property>
  <property name="kdenlive:original.meta.media.0.codec.sample_aspect_ratio">0</property>
  <property name="kdenlive:original.meta.media.0.codec.colorspace">709</property>
  <property name="kdenlive:original.meta.media.0.codec.name">h264</property>
  <property name="kdenlive:original.meta.media.0.codec.long_name">H.264 / AVC / MPEG-4 AVC / MPEG-4 part 10</property>
  <property name="kdenlive:original.meta.media.0.codec.bit_rate">967444</property>
  <property name="kdenlive:original.meta.attr.0.stream.handler_name.markup">VideoHandler</property>
  <property name="kdenlive:original.meta.attr.0.stream.vendor_id.markup">[0][0][0][0]</property>
  <property name="kdenlive:original.meta.attr.major_brand.markup">isom</property>
  <property name="kdenlive:original.meta.attr.minor_version.markup">512</property>
  <property name="kdenlive:original.meta.attr.compatible_brands.markup">isomiso2avc1mp41</property>
  <property name="kdenlive:original.meta.attr.encoder.markup">Lavf58.76.100</property>
  <property name="kdenlive:original.meta.attr.comment.markup">Rendered with Manim Community v0.12.0</property>
  <property name="kdenlive:original.seekable">1</property>
  <property name="kdenlive:original.width">3840</property>
  <property name="kdenlive:original.height">2160</property>
  <property name="kdenlive:original.meta.media.sample_aspect_num">1</property>
  <property name="kdenlive:original.meta.media.sample_aspect_den">1</property>
  <property name="kdenlive:original.aspect_ratio">1</property>
  <property name="kdenlive:original.audio_index">-1</property>
  <property name="kdenlive:original.video_index">0</property>
  <property name="kdenlive:original.mute_on_pause">0</property>
  <property name="kdenlive:original.mlt_service">avformat-novalidate</property>
  <property name="kdenlive:original.kdenlive:folderid">101</property>
  <property name="kdenlive:original.meta.media.frame_rate_num">60</property>
  <property name="kdenlive:original.meta.media.frame_rate_den">1</property>
  <property name="kdenlive:original.meta.media.colorspace">709</property>
  <property name="kdenlive:original.meta.media.color_trc">2</property>
  <property name="kdenlive:original.meta.media.has_b_frames">2</property>
  <property name="kdenlive:original.meta.media.width">3840</property>
  <property name="kdenlive:original.meta.media.height">2160</property>
  <property name="kdenlive:original.meta.media.color_range">mpeg</property>
  <property name="kdenlive:original.kdenlive:id">108</property>
  <property name="kdenlive:original.kdenlive:file_size">2226633</property>
  <property name="kdenlive:original.kdenlive:file_hash">5de2c2a594e4939a8a4b1e779a0311e6</property>
  <property name="kdenlive:original.backup">1</property>
  <property name="kdenlive:file_hash">9fb2707d72bc6d4027a8fab8414331d6</property>
  <property name="meta.media.nb_streams">1</property>
  <property name="meta.media.0.stream.type">video</property>
  <property name="meta.media.0.stream.frame_rate">60</property>
  <property name="meta.media.0.stream.sample_aspect_ratio">0</property>
  <property name="meta.media.0.codec.width">640</property>
  <property name="meta.media.0.codec.height">360</property>
  <property name="meta.media.0.codec.rotate">0</property>
  <property name="meta.media.0.codec.pix_fmt">yuv420p</property>
  <property name="meta.media.0.codec.sample_aspect_ratio">0</property>
  <property name="meta.media.0.codec.colorspace">601</property>
  <property name="meta.media.0.codec.name">h264</property>
  <property name="meta.media.0.codec.long_name">H.264 / AVC / MPEG-4 AVC / MPEG-4 part 10</property>
  <property name="meta.media.0.codec.bit_rate">2359033</property>
  <property name="meta.attr.0.stream.handler_name.markup">VideoHandler</property>
  <property name="meta.attr.0.stream.vendor_id.markup">FFMP</property>
  <property name="meta.attr.0.stream.encoder.markup">Lavc58.134.100 libx264</property>
  <property name="meta.attr.major_brand.markup">qt  </property>
  <property name="meta.attr.minor_version.markup">512</property>
  <property name="meta.attr.compatible_brands.markup">qt  </property>
  <property name="meta.attr.encoder.markup">Lavf58.76.100</property>
  <property name="meta.attr.comment.markup">Rendered with Manim Community v0.12.0</property>
  <property name="meta.media.sample_aspect_num">1</property>
  <property name="meta.media.sample_aspect_den">1</property>
  <property name="meta.media.frame_rate_num">60</property>
  <property name="meta.media.frame_rate_den">1</property>
  <property name="meta.media.colorspace">601</property>
  <property name="meta.media.color_trc">2</property>
  <property name="meta.media.has_b_frames">0</property>
  <property name="meta.media.width">640</property>
  <property name="meta.media.height">360</property>
  <property name="meta.media.color_range">mpeg</property>
 </producer>
 <playlist id="main_bin">
  <property name="kdenlive:folder.-1.3">audio</property>
  <property name="kdenlive:folder.-1.101">video</property>
  <property name="kdenlive:folder.3.4">music</property>
  <property name="kdenlive:folder.3.23">normalized</property>
  <property name="kdenlive:folder.3.62">raw</property>
  <property name="kdenlive:folder.101.109">ComputationalPower</property>
  <property name="kdenlive:folder.101.142">Motivation</property>
  <property name="kdenlive:folder.101.199">Outro</property>
  <property name="kdenlive:folder.101.214">ParenthesesExample</property>
  <property name="kdenlive:folder.101.265">ProgrammingModel</property>
  <property name="kdenlive:folder.101.362">TimeComplexity</property>
  <property name="kdenlive:folder.101.383">ToInfinity</property>
  <property name="kdenlive:folder.109.110">img</property>
  <property name="kdenlive:folder.109.126">vid</property>
  <property name="kdenlive:folder.142.143">img</property>
  <property name="kdenlive:folder.142.171">vid</property>
  <property name="kdenlive:folder.199.200">img</property>
  <property name="kdenlive:folder.199.207">vid</property>
  <property name="kdenlive:folder.214.215">img</property>
  <property name="kdenlive:folder.214.240">vid</property>
  <property name="kdenlive:folder.265.266">img</property>
  <property name="kdenlive:folder.265.314">vid</property>
  <property name="kdenlive:folder.362.363">img</property>
  <property name="kdenlive:folder.362.373">vid</property>
  <property name="kdenlive:folder.383.384">img</property>
  <property name="kdenlive:folder.383.399">vid</property>
  <property name="kdenlive:docproperties.activeTrack">3</property>
  <property name="kdenlive:docproperties.audioChannels">2</property>
  <property name="kdenlive:docproperties.audioTarget">-1</property>
  <property name="kdenlive:docproperties.disablepreview">0</property>
  <property name="kdenlive:docproperties.documentid">1619043766034</property>
  <property name="kdenlive:docproperties.enableTimelineZone">0</property>
  <property name="kdenlive:docproperties.enableexternalproxy">0</property>
  <property name="kdenlive:docproperties.enableproxy">1</property>
  <property name="kdenlive:docproperties.externalproxyparams"/>
  <property name="kdenlive:docproperties.generateimageproxy">0</property>
  <property name="kdenlive:docproperties.generateproxy">0</property>
  <property name="kdenlive:docproperties.groups">[
]
</property>
  <property name="kdenlive:docproperties.kdenliveversion">21.08.3</property>
  <property name="kdenlive:docproperties.position">456</property>
  <property name="kdenlive:docproperties.previewextension"/>
  <property name="kdenlive:docproperties.previewparameters"/>
  <property name="kdenlive:docproperties.profile">uhd_2160p_60</property>
  <property name="kdenlive:docproperties.proxyextension">mov</property>
  <property name="kdenlive:docproperties.proxyimageminsize">2000</property>
  <property name="kdenlive:docproperties.proxyimagesize">800</property>
  <property name="kdenlive:docproperties.proxyminsize">1000</property>
  <property name="kdenlive:docproperties.proxyparams">-vf scale=%width:-2 -vcodec libx264 -g 1 -bf 0 -vb 0 -crf 20 -preset veryfast -acodec aac -ab 128k</property>
  <property name="kdenlive:docproperties.proxyresize">640</property>
  <property name="kdenlive:docproperties.renderaudioquality">192</property>
  <property name="kdenlive:docproperties.rendercategory">Generic (HD for web, mobile devices...)</property>
  <property name="kdenlive:docproperties.renderendguide">-1</property>
  <property name="kdenlive:docproperties.renderexportaudio">0</property>
  <property name="kdenlive:docproperties.renderfield">0</property>
  <property name="kdenlive:docproperties.renderguide">0</property>
  <property name="kdenlive:docproperties.renderplay">0</property>
  <property name="kdenlive:docproperties.renderprofile">MP4-H264/AAC</property>
  <property name="kdenlive:docproperties.renderquality">23</property>
  <property name="kdenlive:docproperties.renderratio">1</property>
  <property name="kdenlive:docproperties.renderrescale">0</property>
  <property name="kdenlive:docproperties.renderrescaleheight">1080</property>
  <property name="kdenlive:docproperties.renderrescalewidth">1920</property>
  <property name="kdenlive:docproperties.renderscanning">0</property>
  <property name="kdenlive:docproperties.renderspeed">2</property>
  <property name="kdenlive:docproperties.renderstartguide">-1</property>
  <property name="kdenlive:docproperties.rendertcoverlay">0</property>
  <property name="kdenlive:docproperties.rendertctype">0</property>
  <property name="kdenlive:docproperties.rendertwopass">0</property>
  <property name="kdenlive:docproperties.renderurl">/home/xiaoxiae/video.mp4</property>
  <property name="kdenlive:docproperties.renderzone">0</property>
  <property name="kdenlive:docproperties.scrollPos">0</property>
  <property name="kdenlive:docproperties.seekOffset">30000</property>
  <property name="kdenlive:docproperties.version">1.04</property>
  <property name="kdenlive:docproperties.verticalzoom">1</property>
  <property name="kdenlive:docproperties.videoTarget">-1</property>
  <property name="kdenlive:docproperties.zonein">0</property>
  <property name="kdenlive:docproperties.zoneout">75</property>
  <property name="kdenlive:docproperties.zoom">7</property>
  <property name="kdenlive:expandedFolders">384;363;266;215;110;3;101;214</property>
  <property name="kdenlive:documentnotes"/>
  <property name="xml_retain">1</property>
  <entry producer="producer0" in="00:00:00.000" out="00:02:46.650"/>
  <entry producer="producer1" in="00:00:00.000" out="00:02:10.250"/>
  <entry producer="producer2" in="00:00:00.000" out="00:03:46.050"/>
  <entry producer="producer3" in="00:00:00.000" out="00:02:59.500"/>
  <entry producer="producer4" in="00:00:00.000" out="00:02:47.633"/>
  <entry producer="producer5" in="00:00:00.000" out="00:03:11.383"/>
  <entry producer="producer6" in="00:00:00.000" out="00:03:08.383"/>
  <entry producer="producer7" in="00:00:00.000" out="00:02:54.800"/>
  <entry producer="producer8" in="00:00:00.000" out="00:02:38.883"/>
  <entry producer="producer9" in="00:00:00.000" out="00:02:33.117"/>
  <entry producer="producer10" in="00:00:00.000" out="00:04:25.133"/>
  <entry producer="producer11" in="00:00:00.000" out="00:02:54.683"/>
  <entry producer="producer12" in="00:00:00.000" out="00:02:26.317"/>
  <entry producer="producer13" in="00:00:00.000" out="00:03:48.033"/>
  <entry producer="producer14" in="00:00:00.000" out="00:03:10.467"/>
  <entry producer="producer15" in="00:00:00.000" out="00:03:43.983"/>
  <entry producer="producer16" in="00:00:00.000" out="00:03:48.167"/>
  <entry producer="producer17" in="00:00:00.000" out="00:04:59.317"/>
  <entry producer="producer18" in="00:00:00.000" out="00:00:11.700"/>
  <entry producer="producer19" in="00:00:00.000" out="00:00:10.083"/>
  <entry producer="producer20" in="00:00:00.000" out="00:00:10.333"/>
  <entry producer="producer21" in="00:00:00.000" out="00:00:11.833"/>
  <entry producer="producer22" in="00:00:00.000" out="00:00:12.583"/>
  <entry producer="producer23" in="00:00:00.000" out="00:00:25.950"/>
  <entry producer="producer24" in="00:00:00.000" out="00:00:19.217"/>
  <entry producer="producer25" in="00:00:00.000" out="00:00:10.583"/>
  <entry producer="producer26" in="00:00:00.000" out="00:00:03.083"/>
  <entry producer="producer27" in="00:00:00.000" out="00:00:07.967"/>
  <entry producer="producer28" in="00:00:00.000" out="00:00:06.083"/>
  <entry producer="producer29" in="00:00:00.000" out="00:00:12.217"/>
  <entry producer="producer30" in="00:00:00.000" out="00:00:07.333"/>
  <entry producer="producer32" in="00:00:00.000" out="00:00:08.083"/>
  <entry producer="producer31" in="00:00:00.000" out="00:00:12.333"/>
  <entry producer="producer33" in="00:00:00.000" out="00:00:12.217"/>
  <entry producer="producer34" in="00:00:00.000" out="00:00:05.967"/>
  <entry producer="producer35" in="00:00:00.000" out="00:00:03.333"/>
  <entry producer="producer36" in="00:00:00.000" out="00:00:09.833"/>
  <entry producer="producer37" in="00:00:00.000" out="00:00:10.083"/>
  <entry producer="producer39" in="00:00:00.000" out="00:00:14.583"/>
  <entry producer="producer38" in="00:00:00.000" out="00:00:09.950"/>
  <entry producer="producer40" in="00:00:00.000" out="00:00:11.583"/>
  <entry producer="producer42" in="00:00:00.000" out="00:00:14.083"/>
  <entry producer="producer41" in="00:00:00.000" out="00:00:11.950"/>
  <entry producer="producer43" in="00:00:00.000" out="00:00:23.083"/>
  <entry producer="producer44" in="00:00:00.000" out="00:00:05.450"/>
  <entry producer="producer45" in="00:00:00.000" out="00:00:16.950"/>
  <entry producer="producer46" in="00:00:00.000" out="00:00:30.583"/>
  <entry producer="producer47" in="00:00:00.000" out="00:00:06.583"/>
  <entry producer="producer49" in="00:00:00.000" out="00:00:11.950"/>
  <entry producer="producer48" in="00:00:00.000" out="00:00:03.583"/>
  <entry producer="producer50" in="00:00:00.000" out="00:00:15.200"/>
  <entry producer="producer51" in="00:00:00.000" out="00:00:03.217"/>
  <entry producer="producer52" in="00:00:00.000" out="00:00:09.950"/>
  <entry producer="producer53" in="00:00:00.000" out="00:00:11.833"/>
  <entry producer="producer54" in="00:00:00.000" out="00:00:13.833"/>
  <entry producer="producer55" in="00:00:00.000" out="00:00:06.833"/>
  <entry producer="producer56" in="00:00:00.000" out="00:00:11.700"/>
  <entry producer="producer57" in="00:00:00.000" out="00:00:10.083"/>
  <entry producer="producer58" in="00:00:00.000" out="00:00:10.333"/>
  <entry producer="producer59" in="00:00:00.000" out="00:00:11.833"/>
  <entry producer="producer60" in="00:00:00.000" out="00:00:12.583"/>
  <entry producer="producer61" in="00:00:00.000" out="00:00:25.950"/>
  <entry producer="producer62" in="00:00:00.000" out="00:00:19.217"/>
  <entry producer="producer63" in="00:00:00.000" out="00:00:10.583"/>
  <entry producer="producer64" in="00:00:00.000" out="00:00:03.083"/>
  <entry producer="producer65" in="00:00:00.000" out="00:00:07.967"/>
  <entry producer="producer66" in="00:00:00.000" out="00:00:06.083"/>
  <entry producer="producer67" in="00:00:00.000" out="00:00:12.217"/>
  <entry producer="producer68" in="00:00:00.000" out="00:00:07.333"/>
  <entry producer="producer69" in="00:00:00.000" out="00:00:08.083"/>
  <entry producer="producer70" in="00:00:00.000" out="00:00:12.333"/>
  <entry producer="producer71" in="00:00:00.000" out="00:00:12.217"/>
  <entry producer="producer72" in="00:00:00.000" out="00:00:05.967"/>
  <entry producer="producer73" in="00:00:00.000" out="00:00:03.333"/>
  <entry producer="producer74" in="00:00:00.000" out="00:00:09.833"/>
  <entry producer="producer75" in="00:00:00.000" out="00:00:10.083"/>
  <entry producer="producer76" in="00:00:00.000" out="00:00:14.583"/>
  <entry producer="producer77" in="00:00:00.000" out="00:00:09.950"/>
  <entry producer="producer78" in="00:00:00.000" out="00:00:11.583"/>
  <entry producer="producer79" in="00:00:00.000" out="00:00:14.083"/>
  <entry producer="producer80" in="00:00:00.000" out="00:00:11.950"/>
  <entry producer="producer81" in="00:00:00.000" out="00:00:23.083"/>
  <entry producer="producer82" in="00:00:00.000" out="00:00:05.450"/>
  <entry producer="producer83" in="00:00:00.000" out="00:00:16.950"/>
  <entry producer="producer84" in="00:00:00.000" out="00:00:30.583"/>
  <entry producer="producer85" in="00:00:00.000" out="00:00:06.583"/>
  <entry producer="producer86" in="00:00:00.000" out="00:00:11.950"/>
  <entry producer="producer87" in="00:00:00.000" out="00:00:03.583"/>
  <entry producer="producer88" in="00:00:00.000" out="00:00:15.200"/>
  <entry producer="producer89" in="00:00:00.000" out="00:00:03.217"/>
  <entry producer="producer90" in="00:00:00.000" out="00:00:09.950"/>
  <entry producer="producer91" in="00:00:00.000" out="00:00:11.833"/>
  <entry producer="producer92" in="00:00:00.000" out="00:00:13.833"/>
  <entry producer="producer93" in="00:00:00.000" out="00:00:06.833"/>
  <entry producer="producer379" in="00:00:00.000" out="00:00:36.583"/>
  <entry producer="producer380" in="00:00:00.000" out="00:00:07.733"/>
  <entry producer="producer382" in="00:00:00.000" out="00:01:06.117"/>
  <entry producer="producer383" in="00:00:00.000" out="00:00:13.383"/>
  <entry producer="producer94" in="00:00:00.000" out="00:00:04.983"/>
  <entry producer="producer96" in="00:00:00.000" out="00:00:04.983"/>
  <entry producer="producer95" in="00:00:00.000" out="00:00:04.983"/>
  <entry producer="producer97" in="00:00:00.000" out="00:00:06.767"/>
  <entry producer="producer98" in="00:00:00.000" out="00:00:04.983"/>
  <entry producer="producer99" in="00:00:00.000" out="00:00:04.983"/>
  <entry producer="producer100" in="00:00:00.000" out="00:00:05.583"/>
  <entry producer="producer101" in="00:00:00.000" out="00:00:04.983"/>
  <entry producer="producer103" in="00:00:00.000" out="00:00:04.983"/>
  <entry producer="producer102" in="00:00:00.000" out="00:00:04.983"/>
  <entry producer="producer104" in="00:00:00.000" out="00:00:04.983"/>
  <entry producer="producer105" in="00:00:00.000" out="00:00:04.983"/>
  <entry producer="producer106" in="00:00:00.000" out="00:00:04.983"/>
  <entry producer="producer107" in="00:00:00.000" out="00:00:07.450"/>
  <entry producer="producer108" in="00:00:00.000" out="00:00:04.983"/>
  <entry producer="producer109" in="00:00:00.000" out="00:00:00.983"/>
  <entry producer="producer110" in="00:00:00.000" out="00:00:00.983"/>
  <entry producer="producer111" in="00:00:00.000" out="00:00:00.983"/>
  <entry producer="producer112" in="00:00:00.000" out="00:00:01.333"/>
  <entry producer="producer113" in="00:00:00.000" out="00:00:00.983"/>
  <entry producer="producer114" in="00:00:00.000" out="00:00:00.983"/>
  <entry producer="producer115" in="00:00:00.000" out="00:00:00.983"/>
  <entry producer="producer116" in="00:00:00.000" out="00:00:00.983"/>
  <entry producer="producer117" in="00:00:00.000" out="00:00:00.983"/>
  <entry producer="producer118" in="00:00:00.000" out="00:00:00.983"/>
  <entry producer="producer119" in="00:00:00.000" out="00:00:00.983"/>
  <entry producer="producer120" in="00:00:00.000" out="00:00:00.983"/>
  <entry producer="producer121" in="00:00:00.000" out="00:00:01.483"/>
  <entry producer="producer122" in="00:00:00.000" out="00:00:00.983"/>
  <entry producer="producer123" in="00:00:00.000" out="00:00:00.983"/>
  <entry producer="producer124" in="00:00:00.000" out="00:00:04.983"/>
  <entry producer="producer125" in="00:00:00.000" out="00:00:04.983"/>
  <entry producer="producer126" in="00:00:00.000" out="00:00:04.983"/>
  <entry producer="producer127" in="00:00:00.000" out="00:00:04.983"/>
  <entry producer="producer128" in="00:00:00.000" out="00:00:04.983"/>
  <entry producer="producer129" in="00:00:00.000" out="00:00:04.983"/>
  <entry producer="producer130" in="00:00:00.000" out="00:00:04.983"/>
  <entry producer="producer131" in="00:00:00.000" out="00:00:04.983"/>
  <entry producer="producer132" in="00:00:00.000" out="00:00:04.983"/>
  <entry producer="producer133" in="00:00:00.000" out="00:00:04.983"/>
  <entry producer="producer134" in="00:00:00.000" out="00:00:05.017"/>
  <entry producer="producer135" in="00:00:00.000" out="00:00:04.983"/>
  <entry producer="producer136" in="00:00:00.000" out="00:00:04.983"/>
  <entry producer="producer137" in="00:00:00.000" out="00:00:04.983"/>
  <entry producer="producer138" in="00:00:00.000" out="00:00:04.983"/>
  <entry producer="producer139" in="00:00:00.000" out="00:00:04.983"/>
  <entry producer="producer140" in="00:00:00.000" out="00:00:04.983"/>
  <entry producer="producer141" in="00:00:00.000" out="00:00:04.983"/>
  <entry producer="producer142" in="00:00:00.000" out="00:00:04.983"/>
  <entry producer="producer143" in="00:00:00.000" out="00:00:04.983"/>
  <entry producer="producer144" in="00:00:00.000" out="00:00:04.983"/>
  <entry producer="producer145" in="00:00:00.000" out="00:00:04.983"/>
  <entry producer="producer146" in="00:00:00.000" out="00:00:04.983"/>
  <entry producer="producer148" in="00:00:00.000" out="00:00:04.983"/>
  <entry producer="producer147" in="00:00:00.000" out="00:00:04.983"/>
  <entry producer="producer149" in="00:00:00.000" out="00:00:04.983"/>
  <entry producer="producer152" in="00:00:00.000" out="00:00:04.983"/>
  <entry producer="producer150" in="00:00:00.000" out="00:00:00.983"/>
  <entry producer="producer151" in="00:00:00.000" out="00:00:01.483"/>
  <entry producer="producer153" in="00:00:00.000" out="00:00:00.983"/>
  <entry producer="producer155" in="00:00:00.000" out="00:00:00.983"/>
  <entry producer="producer154" in="00:00:00.000" out="00:00:01.483"/>
  <entry producer="producer156" in="00:00:00.000" out="00:00:00.983"/>
  <entry producer="producer157" in="00:00:00.000" out="00:00:02.183"/>
  <entry producer="producer158" in="00:00:00.000" out="00:00:00.983"/>
  <entry producer="producer159" in="00:00:00.000" out="00:00:02.467"/>
  <entry producer="producer160" in="00:00:00.000" out="00:00:00.983"/>
  <entry producer="producer161" in="00:00:00.000" out="00:00:00.983"/>
  <entry producer="producer162" in="00:00:00.000" out="00:00:02.867"/>
  <entry producer="producer163" in="00:00:00.000" out="00:00:01.333"/>
  <entry producer="producer164" in="00:00:00.000" out="00:00:00.983"/>
  <entry producer="producer165" in="00:00:00.000" out="00:00:00.483"/>
  <entry producer="producer166" in="00:00:00.000" out="00:00:00.983"/>
  <entry producer="producer167" in="00:00:00.000" out="00:00:01.783"/>
  <entry producer="producer168" in="00:00:00.000" out="00:00:00.983"/>
  <entry producer="producer169" in="00:00:00.000" out="00:00:00.983"/>
  <entry producer="producer170" in="00:00:00.000" out="00:00:00.983"/>
  <entry producer="producer171" in="00:00:00.000" out="00:00:00.983"/>
  <entry producer="producer172" in="00:00:00.000" out="00:00:01.483"/>
  <entry producer="producer173" in="00:00:00.000" out="00:00:02.800"/>
  <entry producer="producer174" in="00:00:00.000" out="00:00:01.783"/>
  <entry producer="producer175" in="00:00:00.000" out="00:00:00.983"/>
  <entry producer="producer176" in="00:00:00.000" out="00:00:00.983"/>
  <entry producer="producer177" in="00:00:00.000" out="00:00:01.250"/>
  <entry producer="producer178" in="00:00:00.000" out="00:00:04.983"/>
  <entry producer="producer179" in="00:00:00.000" out="00:00:04.983"/>
  <entry producer="producer180" in="00:00:00.000" out="00:00:04.983"/>
  <entry producer="producer184" in="00:00:00.000" out="00:00:04.983"/>
  <entry producer="producer182" in="00:00:00.000" out="00:00:04.983"/>
  <entry producer="producer183" in="00:00:00.000" out="00:00:04.983"/>
  <entry producer="producer181" in="00:00:00.000" out="00:00:01.733"/>
  <entry producer="producer185" in="00:00:00.000" out="00:00:00.983"/>
  <entry producer="producer186" in="00:00:00.000" out="00:00:01.983"/>
  <entry producer="producer187" in="00:00:00.000" out="00:00:00.983"/>
  <entry producer="producer188" in="00:00:00.000" out="00:00:00.983"/>
  <entry producer="producer189" in="00:00:00.000" out="00:00:00.983"/>
  <entry producer="producer190" in="00:00:00.000" out="00:00:04.983"/>
  <entry producer="producer191" in="00:00:00.000" out="00:00:05.733"/>
  <entry producer="producer192" in="00:00:00.000" out="00:00:05.117"/>
  <entry producer="producer193" in="00:00:00.000" out="00:00:04.983"/>
  <entry producer="producer195" in="00:00:00.000" out="00:00:04.983"/>
  <entry producer="producer194" in="00:00:00.000" out="00:00:04.983"/>
  <entry producer="producer196" in="00:00:00.000" out="00:00:04.983"/>
  <entry producer="producer199" in="00:00:00.000" out="00:00:04.983"/>
  <entry producer="producer197" in="00:00:00.000" out="00:00:04.983"/>
  <entry producer="producer198" in="00:00:00.000" out="00:00:04.983"/>
  <entry producer="producer200" in="00:00:00.000" out="00:00:04.983"/>
  <entry producer="producer201" in="00:00:00.000" out="00:00:04.983"/>
  <entry producer="producer202" in="00:00:00.000" out="00:00:04.983"/>
  <entry producer="producer203" in="00:00:00.000" out="00:00:04.983"/>
  <entry producer="producer204" in="00:00:00.000" out="00:00:04.983"/>
  <entry producer="producer205" in="00:00:00.000" out="00:00:04.983"/>
  <entry producer="producer206" in="00:00:00.000" out="00:00:13.333"/>
  <entry producer="producer207" in="00:00:00.000" out="00:00:04.983"/>
  <entry producer="producer208" in="00:00:00.000" out="00:00:04.983"/>
  <entry producer="producer209" in="00:00:00.000" out="00:00:04.983"/>
  <entry producer="producer210" in="00:00:00.000" out="00:00:04.983"/>
  <entry producer="producer211" in="00:00:00.000" out="00:00:08.417"/>
  <entry producer="producer214" in="00:00:00.000" out="00:00:04.983"/>
  <entry producer="producer215" in="00:00:00.000" out="00:00:04.983"/>
  <entry producer="producer212" in="00:00:00.000" out="00:00:00.983"/>
  <entry producer="producer213" in="00:00:00.000" out="00:00:00.983"/>
  <entry producer="producer216" in="00:00:00.000" out="00:00:00.983"/>
  <entry producer="producer217" in="00:00:00.000" out="00:00:00.983"/>
  <entry producer="producer218" in="00:00:00.000" out="00:00:00.983"/>
  <entry producer="producer219" in="00:00:00.000" out="00:00:00.983"/>
  <entry producer="producer220" in="00:00:00.000" out="00:00:00.983"/>
  <entry producer="producer221" in="00:00:00.000" out="00:00:00.983"/>
  <entry producer="producer222" in="00:00:00.000" out="00:00:00.983"/>
  <entry producer="producer223" in="00:00:00.000" out="00:00:00.983"/>
  <entry producer="producer224" in="00:00:00.000" out="00:00:00.983"/>
  <entry producer="producer225" in="00:00:00.000" out="00:00:00.983"/>
  <entry producer="producer226" in="00:00:00.000" out="00:00:00.983"/>
  <entry producer="producer227" in="00:00:00.000" out="00:00:00.983"/>
  <entry producer="producer228" in="00:00:00.000" out="00:00:00.983"/>
  <entry producer="producer230" in="00:00:00.000" out="00:00:00.983"/>
  <entry producer="producer229" in="00:00:00.000" out="00:00:00.983"/>
  <entry producer="producer231" in="00:00:00.000" out="00:00:00.633"/>
  <entry producer="producer232" in="00:00:00.000" out="00:00:00.983"/>
  <entry producer="producer233" in="00:00:00.000" out="00:00:01.600"/>
  <entry producer="producer235" in="00:00:00.000" out="00:00:00.983"/>
  <entry producer="producer234" in="00:00:00.000" out="00:00:00.983"/>
  <entry producer="producer236" in="00:00:00.000" out="00:00:00.733"/>
  <entry producer="producer237" in="00:00:00.000" out="00:00:00.983"/>
  <entry producer="producer238" in="00:00:00.000" out="00:00:04.983"/>
  <entry producer="producer239" in="00:00:00.000" out="00:00:04.983"/>
  <entry producer="producer240" in="00:00:00.000" out="00:00:04.983"/>
  <entry producer="producer241" in="00:00:00.000" out="00:00:06.333"/>
  <entry producer="producer242" in="00:00:00.000" out="00:00:04.983"/>
  <entry producer="producer243" in="00:00:00.000" out="00:00:04.983"/>
  <entry producer="producer244" in="00:00:00.000" out="00:00:04.983"/>
  <entry producer="producer245" in="00:00:00.000" out="00:00:04.983"/>
  <entry producer="producer246" in="00:00:00.000" out="00:00:04.983"/>
  <entry producer="producer247" in="00:00:00.000" out="00:00:06.267"/>
  <entry producer="producer249" in="00:00:00.000" out="00:00:04.983"/>
  <entry producer="producer248" in="00:00:00.000" out="00:00:04.983"/>
  <entry producer="producer250" in="00:00:00.000" out="00:00:04.983"/>
  <entry producer="producer251" in="00:00:00.000" out="00:00:04.983"/>
  <entry producer="producer252" in="00:00:00.000" out="00:00:06.233"/>
  <entry producer="producer253" in="00:00:00.000" out="00:00:04.983"/>
  <entry producer="producer254" in="00:00:00.000" out="00:00:04.983"/>
  <entry producer="producer255" in="00:00:00.000" out="00:00:04.983"/>
  <entry producer="producer256" in="00:00:00.000" out="00:00:04.983"/>
  <entry producer="producer260" in="00:00:00.000" out="00:00:04.983"/>
  <entry producer="producer257" in="00:00:00.000" out="00:00:04.983"/>
  <entry producer="producer258" in="00:00:00.000" out="00:00:04.983"/>
  <entry producer="producer259" in="00:00:00.000" out="00:00:04.983"/>
  <entry producer="producer262" in="00:00:00.000" out="00:00:04.983"/>
  <entry producer="producer261" in="00:00:00.000" out="00:00:04.983"/>
  <entry producer="producer263" in="00:00:00.000" out="00:00:04.983"/>
  <entry producer="producer264" in="00:00:00.000" out="00:00:04.983"/>
  <entry producer="producer265" in="00:00:00.000" out="00:00:04.983"/>
  <entry producer="producer266" in="00:00:00.000" out="00:00:04.983"/>
  <entry producer="producer267" in="00:00:00.000" out="00:00:04.983"/>
  <entry producer="producer268" in="00:00:00.000" out="00:00:04.983"/>
  <entry producer="producer269" in="00:00:00.000" out="00:00:04.983"/>
  <entry producer="producer270" in="00:00:00.000" out="00:00:04.983"/>
  <entry producer="producer271" in="00:00:00.000" out="00:00:04.983"/>
  <entry producer="producer272" in="00:00:00.000" out="00:00:04.983"/>
  <entry producer="producer273" in="00:00:00.000" out="00:00:04.983"/>
  <entry producer="producer275" in="00:00:00.000" out="00:00:04.983"/>
  <entry producer="producer274" in="00:00:00.000" out="00:00:04.983"/>
  <entry producer="producer276" in="00:00:00.000" out="00:00:04.983"/>
  <entry producer="producer277" in="00:00:00.000" out="00:00:04.983"/>
  <entry producer="producer278" in="00:00:00.000" out="00:00:04.983"/>
  <entry producer="producer279" in="00:00:00.000" out="00:00:04.983"/>
  <entry producer="producer280" in="00:00:00.000" out="00:00:04.983"/>
  <entry producer="producer281" in="00:00:00.000" out="00:00:04.983"/>
  <entry producer="producer283" in="00:00:00.000" out="00:00:04.983"/>
  <entry producer="producer282" in="00:00:00.000" out="00:00:04.983"/>
  <entry producer="producer287" in="00:00:00.000" out="00:00:04.983"/>
  <entry producer="producer285" in="00:00:00.000" out="00:00:00.983"/>
  <entry producer="producer284" in="00:00:00.000" out="00:00:01.483"/>
  <entry producer="producer286" in="00:00:00.000" out="00:00:00.983"/>
  <entry producer="producer288" in="00:00:00.000" out="00:00:01.183"/>
  <entry producer="producer289" in="00:00:00.000" out="00:00:01.233"/>
  <entry producer="producer290" in="00:00:00.000" out="00:00:01.183"/>
  <entry producer="producer291" in="00:00:00.000" out="00:00:01.233"/>
  <entry producer="producer292" in="00:00:00.000" out="00:00:01.183"/>
  <entry producer="producer293" in="00:00:00.000" out="00:00:00.983"/>
  <entry producer="producer294" in="00:00:00.000" out="00:00:01.583"/>
  <entry producer="producer295" in="00:00:00.000" out="00:00:01.383"/>
  <entry producer="producer296" in="00:00:00.000" out="00:00:00.983"/>
  <entry producer="producer297" in="00:00:00.000" out="00:00:01.483"/>
  <entry producer="producer298" in="00:00:00.000" out="00:00:01.483"/>
  <entry producer="producer299" in="00:00:00.000" out="00:00:02.483"/>
  <entry producer="producer300" in="00:00:00.000" out="00:00:00.983"/>
  <entry producer="producer301" in="00:00:00.000" out="00:00:02.800"/>
  <entry producer="producer302" in="00:00:00.000" out="00:00:02.483"/>
  <entry producer="producer303" in="00:00:00.000" out="00:00:00.983"/>
  <entry producer="producer304" in="00:00:00.000" out="00:00:02.800"/>
  <entry producer="producer305" in="00:00:00.000" out="00:00:00.983"/>
  <entry producer="producer306" in="00:00:00.000" out="00:00:01.483"/>
  <entry producer="producer307" in="00:00:00.000" out="00:00:00.983"/>
  <entry producer="producer309" in="00:00:00.000" out="00:00:00.933"/>
  <entry producer="producer308" in="00:00:00.000" out="00:00:01.483"/>
  <entry producer="producer310" in="00:00:00.000" out="00:00:00.867"/>
  <entry producer="producer311" in="00:00:00.000" out="00:00:01.483"/>
  <entry producer="producer312" in="00:00:00.000" out="00:00:00.800"/>
  <entry producer="producer313" in="00:00:00.000" out="00:00:01.483"/>
  <entry producer="producer314" in="00:00:00.000" out="00:00:00.733"/>
  <entry producer="producer315" in="00:00:00.000" out="00:00:01.483"/>
  <entry producer="producer316" in="00:00:00.000" out="00:00:00.683"/>
  <entry producer="producer317" in="00:00:00.000" out="00:00:01.483"/>
  <entry producer="producer318" in="00:00:00.000" out="00:00:02.083"/>
  <entry producer="producer319" in="00:00:00.000" out="00:00:00.617"/>
  <entry producer="producer320" in="00:00:00.000" out="00:00:01.483"/>
  <entry producer="producer321" in="00:00:00.000" out="00:00:00.550"/>
  <entry producer="producer322" in="00:00:00.000" out="00:00:01.483"/>
  <entry producer="producer323" in="00:00:00.000" out="00:00:00.983"/>
  <entry producer="producer324" in="00:00:00.000" out="00:00:02.083"/>
  <entry producer="producer325" in="00:00:00.000" out="00:00:00.983"/>
  <entry producer="producer326" in="00:00:00.000" out="00:00:00.983"/>
  <entry producer="producer327" in="00:00:00.000" out="00:00:02.083"/>
  <entry producer="producer328" in="00:00:00.000" out="00:00:00.983"/>
  <entry producer="producer329" in="00:00:00.000" out="00:00:02.783"/>
  <entry producer="producer330" in="00:00:00.000" out="00:00:00.983"/>
  <entry producer="producer331" in="00:00:00.000" out="00:00:02.483"/>
  <entry producer="producer332" in="00:00:00.000" out="00:00:04.983"/>
  <entry producer="producer333" in="00:00:00.000" out="00:00:04.983"/>
  <entry producer="producer334" in="00:00:00.000" out="00:00:04.983"/>
  <entry producer="producer335" in="00:00:00.000" out="00:00:04.983"/>
  <entry producer="producer336" in="00:00:00.000" out="00:00:04.983"/>
  <entry producer="producer337" in="00:00:00.000" out="00:00:04.983"/>
  <entry producer="producer338" in="00:00:00.000" out="00:00:07.083"/>
  <entry producer="producer340" in="00:00:00.000" out="00:00:04.983"/>
  <entry producer="producer342" in="00:00:00.000" out="00:00:04.983"/>
  <entry producer="producer339" in="00:00:00.000" out="00:00:00.983"/>
  <entry producer="producer341" in="00:00:00.000" out="00:00:00.983"/>
  <entry producer="producer343" in="00:00:00.000" out="00:00:02.983"/>
  <entry producer="producer344" in="00:00:00.000" out="00:00:00.983"/>
  <entry producer="producer345" in="00:00:00.000" out="00:00:00.983"/>
  <entry producer="producer346" in="00:00:00.000" out="00:00:00.983"/>
  <entry producer="producer347" in="00:00:00.000" out="00:00:03.283"/>
  <entry producer="producer348" in="00:00:00.000" out="00:00:01.083"/>
  <entry producer="producer349" in="00:00:00.000" out="00:00:00.983"/>
  <entry producer="producer350" in="00:00:00.000" out="00:00:04.983"/>
  <entry producer="producer351" in="00:00:00.000" out="00:00:09.950"/>
  <entry producer="producer353" in="00:00:00.000" out="00:00:04.983"/>
  <entry producer="producer352" in="00:00:00.000" out="00:00:05.383"/>
  <entry producer="producer354" in="00:00:00.000" out="00:00:04.983"/>
  <entry producer="producer355" in="00:00:00.000" out="00:00:04.983"/>
  <entry producer="producer356" in="00:00:00.000" out="00:00:04.983"/>
  <entry producer="producer357" in="00:00:00.000" out="00:00:04.983"/>
  <entry producer="producer358" in="00:00:00.000" out="00:00:04.983"/>
  <entry producer="producer359" in="00:00:00.000" out="00:00:04.983"/>
  <entry producer="producer360" in="00:00:00.000" out="00:00:04.983"/>
  <entry producer="producer361" in="00:00:00.000" out="00:00:08.150"/>
  <entry producer="producer363" in="00:00:00.000" out="00:00:04.983"/>
  <entry producer="producer364" in="00:00:00.000" out="00:00:04.983"/>
  <entry producer="producer362" in="00:00:00.000" out="00:00:00.983"/>
  <entry producer="producer365" in="00:00:00.000" out="00:00:00.983"/>
  <entry producer="producer366" in="00:00:00.000" out="00:00:00.983"/>
  <entry producer="producer367" in="00:00:00.000" out="00:00:00.983"/>
  <entry producer="producer368" in="00:00:00.000" out="00:00:00.983"/>
  <entry producer="producer369" in="00:00:00.000" out="00:00:02.383"/>
  <entry producer="producer370" in="00:00:00.000" out="00:00:01.383"/>
  <entry producer="producer371" in="00:00:00.000" out="00:00:01.983"/>
  <entry producer="producer372" in="00:00:00.000" out="00:00:00.983"/>
  <entry producer="producer373" in="00:00:00.000" out="00:00:01.483"/>
  <entry producer="producer374" in="00:00:00.000" out="00:00:01.483"/>
  <entry producer="producer375" in="00:00:00.000" out="00:00:00.983"/>
  <entry producer="producer376" in="00:00:00.000" out="00:00:00.983"/>
  <entry producer="producer377" in="00:00:00.000" out="00:00:01.483"/>
  <entry producer="producer378" in="00:00:00.000" out="00:00:24.000"/>
  <entry producer="producer381" in="00:00:00.000" out="00:00:15.833"/>
  <entry producer="producer384" in="00:00:00.000" out="00:00:18.283"/>
 </playlist>
 <producer id="black_track" in="00:00:00.000" out="00:15:34.250">
  <property name="length">2147483647</property>
  <property name="eof">continue</property>
  <property name="resource">black</property>
  <property name="aspect_ratio">1</property>
  <property name="mlt_service">color</property>
  <property name="mlt_image_format">rgb24a</property>
  <property name="set.test_audio">0</property>
 </producer>
 <playlist id="playlist0">
  <property name="kdenlive:audio_track">1</property>
 </playlist>
 <playlist id="playlist1">
  <property name="kdenlive:audio_track">1</property>
 </playlist>
 <tractor id="tractor0" in="00:00:00.000">
  <property name="kdenlive:audio_track">1</property>
  <property name="kdenlive:trackheight">67</property>
  <property name="kdenlive:timeline_active">1</property>
  <property name="kdenlive:collapsed">0</property>
  <property name="kdenlive:thumbs_format"/>
  <property name="kdenlive:audio_rec"/>
  <track hide="video" producer="playlist0"/>
  <track hide="video" producer="playlist1"/>
  <filter id="filter0">
   <property name="window">75</property>
   <property name="max_gain">20dB</property>
   <property name="level">-22.0718</property>
   <property name="mlt_service">volume</property>
   <property name="internal_added">237</property>
   <property name="disable">0</property>
  </filter>
  <filter id="filter1">
   <property name="channel">-1</property>
   <property name="mlt_service">panner</property>
   <property name="internal_added">237</property>
   <property name="start">0.5</property>
   <property name="disable">1</property>
  </filter>
  <filter id="filter2">
   <property name="iec_scale">0</property>
   <property name="mlt_service">audiolevel</property>
   <property name="disable">1</property>
  </filter>
 </tractor>
 <playlist id="playlist2">
  <property name="kdenlive:audio_track">1</property>
 </playlist>
 <playlist id="playlist3">
  <property name="kdenlive:audio_track">1</property>
 </playlist>
 <tractor id="tractor1" in="00:00:00.000">
  <property name="kdenlive:audio_track">1</property>
  <property name="kdenlive:trackheight">67</property>
  <property name="kdenlive:timeline_active">1</property>
  <property name="kdenlive:collapsed">0</property>
  <property name="kdenlive:thumbs_format"/>
  <property name="kdenlive:audio_rec"/>
  <track hide="video" producer="playlist2"/>
  <track hide="video" producer="playlist3"/>
  <filter id="filter3">
   <property name="window">75</property>
   <property name="max_gain">20dB</property>
   <property name="level">-22.0718</property>
   <property name="mlt_service">volume</property>
   <property name="internal_added">237</property>
   <property name="disable">0</property>
  </filter>
  <filter id="filter4">
   <property name="channel">-1</property>
   <property name="mlt_service">panner</property>
   <property name="internal_added">237</property>
   <property name="start">0.5</property>
   <property name="disable">1</property>
  </filter>
  <filter id="filter5">
   <property name="iec_scale">0</property>
   <property name="mlt_service">audiolevel</property>
   <property name="disable">1</property>
  </filter>
 </tractor>
 <producer id="producer385" in="00:00:00.000" out="00:00:11.950">
  <property name="length">718</property>
  <property name="eof">pause</property>
  <property name="resource">audio/normalized/m1.wav</property>
  <property name="audio_index">0</property>
  <property name="video_index">-1</property>
  <property name="mute_on_pause">0</property>
  <property name="mlt_service">avformat-novalidate</property>
  <property name="meta.media.nb_streams">1</property>
  <property name="meta.media.0.stream.type">audio</property>
  <property name="meta.media.0.codec.sample_fmt">s16</property>
  <property name="meta.media.0.codec.sample_rate">48000</property>
  <property name="meta.media.0.codec.channels">2</property>
  <property name="meta.media.0.codec.name">pcm_s16le</property>
  <property name="meta.media.0.codec.long_name">PCM signed 16-bit little-endian</property>
  <property name="meta.media.0.codec.bit_rate">1536000</property>
  <property name="seekable">1</property>
  <property name="kdenlive:clipname"/>
  <property name="kdenlive:folderid">23</property>
  <property name="kdenlive:id">53</property>
  <property name="kdenlive:file_size">2298924</property>
  <property name="kdenlive:file_hash">73acd436b293fd7e29b7d10f1ab47976</property>
  <property name="kdenlive:audio_max0">112</property>
  <property name="xml">was here</property>
  <property name="set.test_audio">0</property>
  <property name="set.test_image">1</property>
 </producer>
 <producer id="producer386" in="00:00:00.000" out="00:00:03.583">
  <property name="length">216</property>
  <property name="eof">pause</property>
  <property name="resource">audio/normalized/m2.wav</property>
  <property name="audio_index">0</property>
  <property name="video_index">-1</property>
  <property name="mute_on_pause">0</property>
  <property name="mlt_service">avformat-novalidate</property>
  <property name="meta.media.nb_streams">1</property>
  <property name="meta.media.0.stream.type">audio</property>
  <property name="meta.media.0.codec.sample_fmt">s16</property>
  <property name="meta.media.0.codec.sample_rate">48000</property>
  <property name="meta.media.0.codec.channels">2</property>
  <property name="meta.media.0.codec.name">pcm_s16le</property>
  <property name="meta.media.0.codec.long_name">PCM signed 16-bit little-endian</property>
  <property name="meta.media.0.codec.bit_rate">1536000</property>
  <property name="seekable">1</property>
  <property name="kdenlive:clipname"/>
  <property name="kdenlive:folderid">23</property>
  <property name="kdenlive:id">54</property>
  <property name="kdenlive:file_size">690060</property>
  <property name="kdenlive:file_hash">111be408aa6ebc4c5908afc4937c441c</property>
  <property name="kdenlive:audio_max0">109</property>
  <property name="xml">was here</property>
  <property name="set.test_audio">0</property>
  <property name="set.test_image">1</property>
 </producer>
 <producer id="producer387" in="00:00:00.000" out="00:00:09.950">
  <property name="length">598</property>
  <property name="eof">pause</property>
  <property name="resource">audio/normalized/i1.wav</property>
  <property name="audio_index">0</property>
  <property name="video_index">-1</property>
  <property name="mute_on_pause">0</property>
  <property name="mlt_service">avformat-novalidate</property>
  <property name="meta.media.nb_streams">1</property>
  <property name="meta.media.0.stream.type">audio</property>
  <property name="meta.media.0.codec.sample_fmt">s16</property>
  <property name="meta.media.0.codec.sample_rate">48000</property>
  <property name="meta.media.0.codec.channels">2</property>
  <property name="meta.media.0.codec.name">pcm_s16le</property>
  <property name="meta.media.0.codec.long_name">PCM signed 16-bit little-endian</property>
  <property name="meta.media.0.codec.bit_rate">1536000</property>
  <property name="seekable">1</property>
  <property name="kdenlive:clipname"/>
  <property name="kdenlive:folderid">23</property>
  <property name="kdenlive:id">44</property>
  <property name="kdenlive:file_size">1914412</property>
  <property name="kdenlive:file_hash">be76629fa43b117dcf4e08212ce8a488</property>
  <property name="kdenlive:audio_max0">132</property>
  <property name="xml">was here</property>
  <property name="set.test_audio">0</property>
  <property name="set.test_image">1</property>
 </producer>
 <producer id="producer388" in="00:00:00.000" out="00:00:11.583">
  <property name="length">696</property>
  <property name="eof">pause</property>
  <property name="resource">audio/normalized/i2.wav</property>
  <property name="audio_index">0</property>
  <property name="video_index">-1</property>
  <property name="mute_on_pause">0</property>
  <property name="mlt_service">avformat-novalidate</property>
  <property name="meta.media.nb_streams">1</property>
  <property name="meta.media.0.stream.type">audio</property>
  <property name="meta.media.0.codec.sample_fmt">s16</property>
  <property name="meta.media.0.codec.sample_rate">48000</property>
  <property name="meta.media.0.codec.channels">2</property>
  <property name="meta.media.0.codec.name">pcm_s16le</property>
  <property name="meta.media.0.codec.long_name">PCM signed 16-bit little-endian</property>
  <property name="meta.media.0.codec.bit_rate">1536000</property>
  <property name="seekable">1</property>
  <property name="kdenlive:clipname"/>
  <property name="kdenlive:folderid">23</property>
  <property name="kdenlive:id">45</property>
  <property name="kdenlive:file_size">2226060</property>
  <property name="kdenlive:file_hash">c6fe616c4f27c7038a1deafd3147b0ba</property>
  <property name="kdenlive:audio_max0">110</property>
  <property name="xml">was here</property>
  <property name="set.test_audio">0</property>
  <property name="set.test_image">1</property>
 </producer>
 <producer id="producer389" in="00:00:00.000" out="00:00:14.083">
  <property name="length">846</property>
  <property name="eof">pause</property>
  <property name="resource">audio/normalized/i3.wav</property>
  <property name="audio_index">0</property>
  <property name="video_index">-1</property>
  <property name="mute_on_pause">0</property>
  <property name="mlt_service">avformat-novalidate</property>
  <property name="meta.media.nb_streams">1</property>
  <property name="meta.media.0.stream.type">audio</property>
  <property name="meta.media.0.codec.sample_fmt">s16</property>
  <property name="meta.media.0.codec.sample_rate">48000</property>
  <property name="meta.media.0.codec.channels">2</property>
  <property name="meta.media.0.codec.name">pcm_s16le</property>
  <property name="meta.media.0.codec.long_name">PCM signed 16-bit little-endian</property>
  <property name="meta.media.0.codec.bit_rate">1536000</property>
  <property name="seekable">1</property>
  <property name="kdenlive:clipname"/>
  <property name="kdenlive:folderid">23</property>
  <property name="kdenlive:id">46</property>
  <property name="kdenlive:file_size">2707724</property>
  <property name="kdenlive:file_hash">6c3667bb8ddc5ba7902930eee06196cd</property>
  <property name="kdenlive:audio_max0">111</property>
  <property name="xml">was here</property>
  <property name="set.test_audio">0</property>
  <property name="set.test_image">1</property>
 </producer>
 <producer id="producer390" in="00:00:00.000" out="00:00:11.950">
  <property name="length">718</property>
  <property name="eof">pause</property>
  <property name="resource">audio/normalized/i4.wav</property>
  <property name="audio_index">0</property>
  <property name="video_index">-1</property>
  <property name="mute_on_pause">0</property>
  <property name="mlt_service">avformat-novalidate</property>
  <property name="meta.media.nb_streams">1</property>
  <property name="meta.media.0.stream.type">audio</property>
  <property name="meta.media.0.codec.sample_fmt">s16</property>
  <property name="meta.media.0.codec.sample_rate">48000</property>
  <property name="meta.media.0.codec.channels">2</property>
  <property name="meta.media.0.codec.name">pcm_s16le</property>
  <property name="meta.media.0.codec.long_name">PCM signed 16-bit little-endian</property>
  <property name="meta.media.0.codec.bit_rate">1536000</property>
  <property name="seekable">1</property>
  <property name="kdenlive:clipname"/>
  <property name="kdenlive:folderid">23</property>
  <property name="kdenlive:id">47</property>
  <property name="kdenlive:file_size">2298924</property>
  <property name="kdenlive:file_hash">5b8aa52b7aacb6e5b1d8bf2f405e56ad</property>
  <property name="kdenlive:audio_max0">122</property>
  <property name="xml">was here</property>
  <property name="set.test_audio">0</property>
  <property name="set.test_image">1</property>
 </producer>
 <producer id="producer391" in="00:00:00.000" out="00:00:23.083">
  <property name="length">1386</property>
  <property name="eof">pause</property>
  <property name="resource">audio/normalized/i5.wav</property>
  <property name="audio_index">0</property>
  <property name="video_index">-1</property>
  <property name="mute_on_pause">0</property>
  <property name="mlt_service">avformat-novalidate</property>
  <property name="meta.media.nb_streams">1</property>
  <property name="meta.media.0.stream.type">audio</property>
  <property name="meta.media.0.codec.sample_fmt">s16</property>
  <property name="meta.media.0.codec.sample_rate">48000</property>
  <property name="meta.media.0.codec.channels">2</property>
  <property name="meta.media.0.codec.name">pcm_s16le</property>
  <property name="meta.media.0.codec.long_name">PCM signed 16-bit little-endian</property>
  <property name="meta.media.0.codec.bit_rate">1536000</property>
  <property name="seekable">1</property>
  <property name="kdenlive:clipname"/>
  <property name="kdenlive:folderid">23</property>
  <property name="kdenlive:id">48</property>
  <property name="kdenlive:file_size">4433932</property>
  <property name="kdenlive:file_hash">03c36c75f56e236af6fd5d70bb1e3eec</property>
  <property name="kdenlive:audio_max0">138</property>
  <property name="xml">was here</property>
  <property name="set.test_audio">0</property>
  <property name="set.test_image">1</property>
 </producer>
 <producer id="producer392" in="00:00:00.000" out="00:00:25.950">
  <property name="length">1558</property>
  <property name="eof">pause</property>
  <property name="resource">audio/normalized/e11.wav</property>
  <property name="audio_index">0</property>
  <property name="video_index">-1</property>
  <property name="mute_on_pause">0</property>
  <property name="mlt_service">avformat-novalidate</property>
  <property name="meta.media.nb_streams">1</property>
  <property name="meta.media.0.stream.type">audio</property>
  <property name="meta.media.0.codec.sample_fmt">s16</property>
  <property name="meta.media.0.codec.sample_rate">48000</property>
  <property name="meta.media.0.codec.channels">2</property>
  <property name="meta.media.0.codec.name">pcm_s16le</property>
  <property name="meta.media.0.codec.long_name">PCM signed 16-bit little-endian</property>
  <property name="meta.media.0.codec.bit_rate">1536000</property>
  <property name="seekable">1</property>
  <property name="kdenlive:clipname"/>
  <property name="kdenlive:folderid">23</property>
  <property name="kdenlive:id">28</property>
  <property name="kdenlive:file_size">4986412</property>
  <property name="kdenlive:file_hash">246d371ab298c91686de2d28ada8cae1</property>
  <property name="kdenlive:audio_max0">131</property>
  <property name="xml">was here</property>
  <property name="set.test_audio">0</property>
  <property name="set.test_image">1</property>
 </producer>
 <producer id="producer393" in="00:00:00.000" out="00:00:19.217">
  <property name="length">1154</property>
  <property name="eof">pause</property>
  <property name="resource">audio/normalized/e21.wav</property>
  <property name="audio_index">0</property>
  <property name="video_index">-1</property>
  <property name="mute_on_pause">0</property>
  <property name="mlt_service">avformat-novalidate</property>
  <property name="meta.media.nb_streams">1</property>
  <property name="meta.media.0.stream.type">audio</property>
  <property name="meta.media.0.codec.sample_fmt">s16</property>
  <property name="meta.media.0.codec.sample_rate">48000</property>
  <property name="meta.media.0.codec.channels">2</property>
  <property name="meta.media.0.codec.name">pcm_s16le</property>
  <property name="meta.media.0.codec.long_name">PCM signed 16-bit little-endian</property>
  <property name="meta.media.0.codec.bit_rate">1536000</property>
  <property name="seekable">1</property>
  <property name="kdenlive:clipname"/>
  <property name="kdenlive:folderid">23</property>
  <property name="kdenlive:id">29</property>
  <property name="kdenlive:file_size">3691244</property>
  <property name="kdenlive:file_hash">7e54712f1174ca565fdd695365afd003</property>
  <property name="kdenlive:audio_max0">114</property>
  <property name="xml">was here</property>
  <property name="set.test_audio">0</property>
  <property name="set.test_image">1</property>
 </producer>
 <producer id="producer394" in="00:00:00.000" out="00:00:10.583">
  <property name="length">636</property>
  <property name="eof">pause</property>
  <property name="resource">audio/normalized/e22.wav</property>
  <property name="audio_index">0</property>
  <property name="video_index">-1</property>
  <property name="mute_on_pause">0</property>
  <property name="mlt_service">avformat-novalidate</property>
  <property name="meta.media.nb_streams">1</property>
  <property name="meta.media.0.stream.type">audio</property>
  <property name="meta.media.0.codec.sample_fmt">s16</property>
  <property name="meta.media.0.codec.sample_rate">48000</property>
  <property name="meta.media.0.codec.channels">2</property>
  <property name="meta.media.0.codec.name">pcm_s16le</property>
  <property name="meta.media.0.codec.long_name">PCM signed 16-bit little-endian</property>
  <property name="meta.media.0.codec.bit_rate">1536000</property>
  <property name="seekable">1</property>
  <property name="kdenlive:clipname"/>
  <property name="kdenlive:folderid">23</property>
  <property name="kdenlive:id">30</property>
  <property name="kdenlive:file_size">2035852</property>
  <property name="kdenlive:file_hash">7390efa10fa1968ecd611f0a78bc083b</property>
  <property name="kdenlive:audio_max0">118</property>
  <property name="xml">was here</property>
  <property name="set.test_audio">0</property>
  <property name="set.test_image">1</property>
 </producer>
 <producer id="producer395" in="00:00:00.000" out="00:00:03.083">
  <property name="length">186</property>
  <property name="eof">pause</property>
  <property name="resource">audio/normalized/e23.wav</property>
  <property name="audio_index">0</property>
  <property name="video_index">-1</property>
  <property name="mute_on_pause">0</property>
  <property name="mlt_service">avformat-novalidate</property>
  <property name="meta.media.nb_streams">1</property>
  <property name="meta.media.0.stream.type">audio</property>
  <property name="meta.media.0.codec.sample_fmt">s16</property>
  <property name="meta.media.0.codec.sample_rate">48000</property>
  <property name="meta.media.0.codec.channels">2</property>
  <property name="meta.media.0.codec.name">pcm_s16le</property>
  <property name="meta.media.0.codec.long_name">PCM signed 16-bit little-endian</property>
  <property name="meta.media.0.codec.bit_rate">1536000</property>
  <property name="seekable">1</property>
  <property name="kdenlive:clipname"/>
  <property name="kdenlive:folderid">23</property>
  <property name="kdenlive:id">31</property>
  <property name="kdenlive:file_size">594956</property>
  <property name="kdenlive:file_hash">46fbea4a851f330f9442e5638f141709</property>
  <property name="kdenlive:audio_max0">115</property>
  <property name="xml">was here</property>
  <property name="set.test_audio">0</property>
  <property name="set.test_image">1</property>
 </producer>
 <producer id="producer396" in="00:00:00.000" out="00:00:07.967">
  <property name="length">479</property>
  <property name="eof">pause</property>
  <property name="resource">audio/normalized/e24.wav</property>
  <property name="audio_index">0</property>
  <property name="video_index">-1</property>
  <property name="mute_on_pause">0</property>
  <property name="mlt_service">avformat-novalidate</property>
  <property name="meta.media.nb_streams">1</property>
  <property name="meta.media.0.stream.type">audio</property>
  <property name="meta.media.0.codec.sample_fmt">s16</property>
  <property name="meta.media.0.codec.sample_rate">48000</property>
  <property name="meta.media.0.codec.channels">2</property>
  <property name="meta.media.0.codec.name">pcm_s16le</property>
  <property name="meta.media.0.codec.long_name">PCM signed 16-bit little-endian</property>
  <property name="meta.media.0.codec.bit_rate">1536000</property>
  <property name="seekable">1</property>
  <property name="kdenlive:clipname"/>
  <property name="kdenlive:folderid">23</property>
  <property name="kdenlive:id">32</property>
  <property name="kdenlive:file_size">1531948</property>
  <property name="kdenlive:file_hash">69ba2a3966bb4962f9d5e5ce7b966036</property>
  <property name="kdenlive:audio_max0">127</property>
  <property name="xml">was here</property>
  <property name="set.test_audio">0</property>
  <property name="set.test_image">1</property>
 </producer>
 <producer id="producer397" in="00:00:00.000" out="00:00:06.083">
  <property name="length">366</property>
  <property name="eof">pause</property>
  <property name="resource">audio/normalized/e25.wav</property>
  <property name="audio_index">0</property>
  <property name="video_index">-1</property>
  <property name="mute_on_pause">0</property>
  <property name="mlt_service">avformat-novalidate</property>
  <property name="meta.media.nb_streams">1</property>
  <property name="meta.media.0.stream.type">audio</property>
  <property name="meta.media.0.codec.sample_fmt">s16</property>
  <property name="meta.media.0.codec.sample_rate">48000</property>
  <property name="meta.media.0.codec.channels">2</property>
  <property name="meta.media.0.codec.name">pcm_s16le</property>
  <property name="meta.media.0.codec.long_name">PCM signed 16-bit little-endian</property>
  <property name="meta.media.0.codec.bit_rate">1536000</property>
  <property name="seekable">1</property>
  <property name="kdenlive:clipname"/>
  <property name="kdenlive:folderid">23</property>
  <property name="kdenlive:id">33</property>
  <property name="kdenlive:file_size">1171724</property>
  <property name="kdenlive:file_hash">14e06e12b2f1fc6996a5f6d0d1ef7693</property>
  <property name="kdenlive:audio_max0">126</property>
  <property name="xml">was here</property>
  <property name="set.test_audio">0</property>
  <property name="set.test_image">1</property>
 </producer>
 <producer id="producer398" in="00:00:00.000" out="00:00:03.217">
  <property name="length">194</property>
  <property name="eof">pause</property>
  <property name="resource">audio/normalized/t1.wav</property>
  <property name="audio_index">0</property>
  <property name="video_index">-1</property>
  <property name="mute_on_pause">0</property>
  <property name="mlt_service">avformat-novalidate</property>
  <property name="meta.media.nb_streams">1</property>
  <property name="meta.media.0.stream.type">audio</property>
  <property name="meta.media.0.codec.sample_fmt">s16</property>
  <property name="meta.media.0.codec.sample_rate">48000</property>
  <property name="meta.media.0.codec.channels">2</property>
  <property name="meta.media.0.codec.name">pcm_s16le</property>
  <property name="meta.media.0.codec.long_name">PCM signed 16-bit little-endian</property>
  <property name="meta.media.0.codec.bit_rate">1536000</property>
  <property name="seekable">1</property>
  <property name="kdenlive:clipname"/>
  <property name="kdenlive:folderid">23</property>
  <property name="kdenlive:id">56</property>
  <property name="kdenlive:file_size">619244</property>
  <property name="kdenlive:file_hash">5713e81646b2360cfbec0da9f0bd03d5</property>
  <property name="kdenlive:audio_max0">125</property>
  <property name="xml">was here</property>
  <property name="set.test_audio">0</property>
  <property name="set.test_image">1</property>
 </producer>
 <producer id="producer399" in="00:00:00.000" out="00:00:09.950">
  <property name="length">598</property>
  <property name="eof">pause</property>
  <property name="resource">audio/normalized/t2.wav</property>
  <property name="audio_index">0</property>
  <property name="video_index">-1</property>
  <property name="mute_on_pause">0</property>
  <property name="mlt_service">avformat-novalidate</property>
  <property name="meta.media.nb_streams">1</property>
  <property name="meta.media.0.stream.type">audio</property>
  <property name="meta.media.0.codec.sample_fmt">s16</property>
  <property name="meta.media.0.codec.sample_rate">48000</property>
  <property name="meta.media.0.codec.channels">2</property>
  <property name="meta.media.0.codec.name">pcm_s16le</property>
  <property name="meta.media.0.codec.long_name">PCM signed 16-bit little-endian</property>
  <property name="meta.media.0.codec.bit_rate">1536000</property>
  <property name="seekable">1</property>
  <property name="kdenlive:clipname"/>
  <property name="kdenlive:folderid">23</property>
  <property name="kdenlive:id">57</property>
  <property name="kdenlive:file_size">1914412</property>
  <property name="kdenlive:file_hash">b50c6d7ec9f41122b42d4a16eefa47ef</property>
  <property name="kdenlive:audio_max0">121</property>
  <property name="xml">was here</property>
  <property name="set.test_audio">0</property>
  <property name="set.test_image">1</property>
 </producer>
 <producer id="producer400" in="00:00:00.000" out="00:00:11.833">
  <property name="length">711</property>
  <property name="eof">pause</property>
  <property name="resource">audio/normalized/t3.wav</property>
  <property name="audio_index">0</property>
  <property name="video_index">-1</property>
  <property name="mute_on_pause">0</property>
  <property name="mlt_service">avformat-novalidate</property>
  <property name="meta.media.nb_streams">1</property>
  <property name="meta.media.0.stream.type">audio</property>
  <property name="meta.media.0.codec.sample_fmt">s16</property>
  <property name="meta.media.0.codec.sample_rate">48000</property>
  <property name="meta.media.0.codec.channels">2</property>
  <property name="meta.media.0.codec.name">pcm_s16le</property>
  <property name="meta.media.0.codec.long_name">PCM signed 16-bit little-endian</property>
  <property name="meta.media.0.codec.bit_rate">1536000</property>
  <property name="seekable">1</property>
  <property name="kdenlive:clipname"/>
  <property name="kdenlive:folderid">23</property>
  <property name="kdenlive:id">58</property>
  <property name="kdenlive:file_size">2274636</property>
  <property name="kdenlive:file_hash">7b51bd908b3ae2d03ab3f0c9ddb80807</property>
  <property name="kdenlive:audio_max0">114</property>
  <property name="xml">was here</property>
  <property name="set.test_audio">0</property>
  <property name="set.test_image">1</property>
 </producer>
 <producer id="producer401" in="00:00:00.000" out="00:00:13.833">
  <property name="length">831</property>
  <property name="eof">pause</property>
  <property name="resource">audio/normalized/t4.wav</property>
  <property name="audio_index">0</property>
  <property name="video_index">-1</property>
  <property name="mute_on_pause">0</property>
  <property name="mlt_service">avformat-novalidate</property>
  <property name="meta.media.nb_streams">1</property>
  <property name="meta.media.0.stream.type">audio</property>
  <property name="meta.media.0.codec.sample_fmt">s16</property>
  <property name="meta.media.0.codec.sample_rate">48000</property>
  <property name="meta.media.0.codec.channels">2</property>
  <property name="meta.media.0.codec.name">pcm_s16le</property>
  <property name="meta.media.0.codec.long_name">PCM signed 16-bit little-endian</property>
  <property name="meta.media.0.codec.bit_rate">1536000</property>
  <property name="seekable">1</property>
  <property name="kdenlive:clipname"/>
  <property name="kdenlive:folderid">23</property>
  <property name="kdenlive:id">59</property>
  <property name="kdenlive:file_size">2659148</property>
  <property name="kdenlive:file_hash">b012c90bed902c57afbc78b94b9d08ce</property>
  <property name="kdenlive:audio_max0">121</property>
  <property name="xml">was here</property>
  <property name="set.test_audio">0</property>
  <property name="set.test_image">1</property>
 </producer>
 <producer id="producer402" in="00:00:00.000" out="00:00:06.833">
  <property name="length">411</property>
  <property name="eof">pause</property>
  <property name="resource">audio/normalized/t5.wav</property>
  <property name="audio_index">0</property>
  <property name="video_index">-1</property>
  <property name="mute_on_pause">0</property>
  <property name="mlt_service">avformat-novalidate</property>
  <property name="meta.media.nb_streams">1</property>
  <property name="meta.media.0.stream.type">audio</property>
  <property name="meta.media.0.codec.sample_fmt">s16</property>
  <property name="meta.media.0.codec.sample_rate">48000</property>
  <property name="meta.media.0.codec.channels">2</property>
  <property name="meta.media.0.codec.name">pcm_s16le</property>
  <property name="meta.media.0.codec.long_name">PCM signed 16-bit little-endian</property>
  <property name="meta.media.0.codec.bit_rate">1536000</property>
  <property name="seekable">1</property>
  <property name="kdenlive:clipname"/>
  <property name="kdenlive:folderid">23</property>
  <property name="kdenlive:id">60</property>
  <property name="kdenlive:file_size">1315404</property>
  <property name="kdenlive:file_hash">d065c0d188666ab266f0f1064a0fcca6</property>
  <property name="kdenlive:audio_max0">128</property>
  <property name="xml">was here</property>
  <property name="set.test_audio">0</property>
  <property name="set.test_image">1</property>
 </producer>
 <producer id="producer403" in="00:00:00.000" out="00:00:12.217">
  <property name="length">734</property>
  <property name="eof">pause</property>
  <property name="resource">audio/normalized/e31.wav</property>
  <property name="audio_index">0</property>
  <property name="video_index">-1</property>
  <property name="mute_on_pause">0</property>
  <property name="mlt_service">avformat-novalidate</property>
  <property name="meta.media.nb_streams">1</property>
  <property name="meta.media.0.stream.type">audio</property>
  <property name="meta.media.0.codec.sample_fmt">s16</property>
  <property name="meta.media.0.codec.sample_rate">48000</property>
  <property name="meta.media.0.codec.channels">2</property>
  <property name="meta.media.0.codec.name">pcm_s16le</property>
  <property name="meta.media.0.codec.long_name">PCM signed 16-bit little-endian</property>
  <property name="meta.media.0.codec.bit_rate">1536000</property>
  <property name="seekable">1</property>
  <property name="kdenlive:clipname"/>
  <property name="kdenlive:folderid">23</property>
  <property name="kdenlive:id">34</property>
  <property name="kdenlive:file_size">2347500</property>
  <property name="kdenlive:file_hash">993c433ae38d8c067108c83c6f752874</property>
  <property name="kdenlive:audio_max0">125</property>
  <property name="xml">was here</property>
  <property name="set.test_audio">0</property>
  <property name="set.test_image">1</property>
 </producer>
 <producer id="producer404" in="00:00:00.000" out="00:00:08.083">
  <property name="length">486</property>
  <property name="eof">pause</property>
  <property name="resource">audio/normalized/e32.wav</property>
  <property name="audio_index">0</property>
  <property name="video_index">-1</property>
  <property name="mute_on_pause">0</property>
  <property name="mlt_service">avformat-novalidate</property>
  <property name="meta.media.nb_streams">1</property>
  <property name="meta.media.0.stream.type">audio</property>
  <property name="meta.media.0.codec.sample_fmt">s16</property>
  <property name="meta.media.0.codec.sample_rate">48000</property>
  <property name="meta.media.0.codec.channels">2</property>
  <property name="meta.media.0.codec.name">pcm_s16le</property>
  <property name="meta.media.0.codec.long_name">PCM signed 16-bit little-endian</property>
  <property name="meta.media.0.codec.bit_rate">1536000</property>
  <property name="seekable">1</property>
  <property name="kdenlive:clipname"/>
  <property name="kdenlive:folderid">23</property>
  <property name="kdenlive:id">36</property>
  <property name="kdenlive:file_size">1554188</property>
  <property name="kdenlive:file_hash">13db59c0a92ce922b2055702d835bc2d</property>
  <property name="kdenlive:audio_max0">113</property>
  <property name="xml">was here</property>
  <property name="set.test_audio">0</property>
  <property name="set.test_image">1</property>
 </producer>
 <producer id="producer405" in="00:00:00.000" out="00:00:12.333">
  <property name="length">741</property>
  <property name="eof">pause</property>
  <property name="resource">audio/normalized/e33.wav</property>
  <property name="audio_index">0</property>
  <property name="video_index">-1</property>
  <property name="mute_on_pause">0</property>
  <property name="mlt_service">avformat-novalidate</property>
  <property name="meta.media.nb_streams">1</property>
  <property name="meta.media.0.stream.type">audio</property>
  <property name="meta.media.0.codec.sample_fmt">s16</property>
  <property name="meta.media.0.codec.sample_rate">48000</property>
  <property name="meta.media.0.codec.channels">2</property>
  <property name="meta.media.0.codec.name">pcm_s16le</property>
  <property name="meta.media.0.codec.long_name">PCM signed 16-bit little-endian</property>
  <property name="meta.media.0.codec.bit_rate">1536000</property>
  <property name="seekable">1</property>
  <property name="kdenlive:clipname"/>
  <property name="kdenlive:folderid">23</property>
  <property name="kdenlive:id">37</property>
  <property name="kdenlive:file_size">2371788</property>
  <property name="kdenlive:file_hash">22ba84ea358cafc5eaff11b964edb4a8</property>
  <property name="kdenlive:audio_max0">114</property>
  <property name="xml">was here</property>
  <property name="set.test_audio">0</property>
  <property name="set.test_image">1</property>
 </producer>
 <producer id="producer406" in="00:00:00.000" out="00:00:12.217">
  <property name="length">734</property>
  <property name="eof">pause</property>
  <property name="resource">audio/normalized/e34.wav</property>
  <property name="audio_index">0</property>
  <property name="video_index">-1</property>
  <property name="mute_on_pause">0</property>
  <property name="mlt_service">avformat-novalidate</property>
  <property name="meta.media.nb_streams">1</property>
  <property name="meta.media.0.stream.type">audio</property>
  <property name="meta.media.0.codec.sample_fmt">s16</property>
  <property name="meta.media.0.codec.sample_rate">48000</property>
  <property name="meta.media.0.codec.channels">2</property>
  <property name="meta.media.0.codec.name">pcm_s16le</property>
  <property name="meta.media.0.codec.long_name">PCM signed 16-bit little-endian</property>
  <property name="meta.media.0.codec.bit_rate">1536000</property>
  <property name="seekable">1</property>
  <property name="kdenlive:clipname"/>
  <property name="kdenlive:folderid">23</property>
  <property name="kdenlive:id">38</property>
  <property name="kdenlive:file_size">2347500</property>
  <property name="kdenlive:file_hash">fdd0377907fcd6f12e5eb49c474ff3eb</property>
  <property name="kdenlive:audio_max0">113</property>
  <property name="xml">was here</property>
  <property name="set.test_audio">0</property>
  <property name="set.test_image">1</property>
 </producer>
 <producer id="producer407" in="00:00:00.000" out="00:00:05.967">
  <property name="length">359</property>
  <property name="eof">pause</property>
  <property name="resource">audio/normalized/e35.wav</property>
  <property name="audio_index">0</property>
  <property name="video_index">-1</property>
  <property name="mute_on_pause">0</property>
  <property name="mlt_service">avformat-novalidate</property>
  <property name="meta.media.nb_streams">1</property>
  <property name="meta.media.0.stream.type">audio</property>
  <property name="meta.media.0.codec.sample_fmt">s16</property>
  <property name="meta.media.0.codec.sample_rate">48000</property>
  <property name="meta.media.0.codec.channels">2</property>
  <property name="meta.media.0.codec.name">pcm_s16le</property>
  <property name="meta.media.0.codec.long_name">PCM signed 16-bit little-endian</property>
  <property name="meta.media.0.codec.bit_rate">1536000</property>
  <property name="seekable">1</property>
  <property name="kdenlive:clipname"/>
  <property name="kdenlive:folderid">23</property>
  <property name="kdenlive:id">39</property>
  <property name="kdenlive:file_size">1147436</property>
  <property name="kdenlive:file_hash">6e37d69b9faa759c9084f8462f6997da</property>
  <property name="kdenlive:audio_max0">109</property>
  <property name="xml">was here</property>
  <property name="set.test_audio">0</property>
  <property name="set.test_image">1</property>
 </producer>
 <producer id="producer408" in="00:00:00.000" out="00:00:03.333">
  <property name="length">201</property>
  <property name="eof">pause</property>
  <property name="resource">audio/normalized/e36.wav</property>
  <property name="audio_index">0</property>
  <property name="video_index">-1</property>
  <property name="mute_on_pause">0</property>
  <property name="mlt_service">avformat-novalidate</property>
  <property name="meta.media.nb_streams">1</property>
  <property name="meta.media.0.stream.type">audio</property>
  <property name="meta.media.0.codec.sample_fmt">s16</property>
  <property name="meta.media.0.codec.sample_rate">48000</property>
  <property name="meta.media.0.codec.channels">2</property>
  <property name="meta.media.0.codec.name">pcm_s16le</property>
  <property name="meta.media.0.codec.long_name">PCM signed 16-bit little-endian</property>
  <property name="meta.media.0.codec.bit_rate">1536000</property>
  <property name="seekable">1</property>
  <property name="kdenlive:clipname"/>
  <property name="kdenlive:folderid">23</property>
  <property name="kdenlive:id">40</property>
  <property name="kdenlive:file_size">643532</property>
  <property name="kdenlive:file_hash">b17e190c50949599c93a57a3f00c2875</property>
  <property name="kdenlive:audio_max0">116</property>
  <property name="xml">was here</property>
  <property name="set.test_audio">0</property>
  <property name="set.test_image">1</property>
 </producer>
 <producer id="producer409" in="00:00:00.000" out="00:00:09.833">
  <property name="length">591</property>
  <property name="eof">pause</property>
  <property name="resource">audio/normalized/e37.wav</property>
  <property name="audio_index">0</property>
  <property name="video_index">-1</property>
  <property name="mute_on_pause">0</property>
  <property name="mlt_service">avformat-novalidate</property>
  <property name="meta.media.nb_streams">1</property>
  <property name="meta.media.0.stream.type">audio</property>
  <property name="meta.media.0.codec.sample_fmt">s16</property>
  <property name="meta.media.0.codec.sample_rate">48000</property>
  <property name="meta.media.0.codec.channels">2</property>
  <property name="meta.media.0.codec.name">pcm_s16le</property>
  <property name="meta.media.0.codec.long_name">PCM signed 16-bit little-endian</property>
  <property name="meta.media.0.codec.bit_rate">1536000</property>
  <property name="seekable">1</property>
  <property name="kdenlive:clipname"/>
  <property name="kdenlive:folderid">23</property>
  <property name="kdenlive:id">41</property>
  <property name="kdenlive:file_size">1890124</property>
  <property name="kdenlive:file_hash">196ad833a7e9e37cbaaa9088c66b6b48</property>
  <property name="kdenlive:audio_max0">130</property>
  <property name="xml">was here</property>
  <property name="set.test_audio">0</property>
  <property name="set.test_image">1</property>
 </producer>
 <producer id="producer410" in="00:00:00.000" out="00:00:10.083">
  <property name="length">606</property>
  <property name="eof">pause</property>
  <property name="resource">audio/normalized/e38.wav</property>
  <property name="audio_index">0</property>
  <property name="video_index">-1</property>
  <property name="mute_on_pause">0</property>
  <property name="mlt_service">avformat-novalidate</property>
  <property name="meta.media.nb_streams">1</property>
  <property name="meta.media.0.stream.type">audio</property>
  <property name="meta.media.0.codec.sample_fmt">s16</property>
  <property name="meta.media.0.codec.sample_rate">48000</property>
  <property name="meta.media.0.codec.channels">2</property>
  <property name="meta.media.0.codec.name">pcm_s16le</property>
  <property name="meta.media.0.codec.long_name">PCM signed 16-bit little-endian</property>
  <property name="meta.media.0.codec.bit_rate">1536000</property>
  <property name="seekable">1</property>
  <property name="kdenlive:clipname"/>
  <property name="kdenlive:folderid">23</property>
  <property name="kdenlive:id">42</property>
  <property name="kdenlive:file_size">1938700</property>
  <property name="kdenlive:file_hash">d0713e4c5438ca83f6d637c7294770ac</property>
  <property name="kdenlive:audio_max0">110</property>
  <property name="xml">was here</property>
  <property name="set.test_audio">0</property>
  <property name="set.test_image">1</property>
 </producer>
 <producer id="producer411" in="00:00:00.000" out="00:00:14.583">
  <property name="length">876</property>
  <property name="eof">pause</property>
  <property name="resource">audio/normalized/e39.wav</property>
  <property name="audio_index">0</property>
  <property name="video_index">-1</property>
  <property name="mute_on_pause">0</property>
  <property name="mlt_service">avformat-novalidate</property>
  <property name="meta.media.nb_streams">1</property>
  <property name="meta.media.0.stream.type">audio</property>
  <property name="meta.media.0.codec.sample_fmt">s16</property>
  <property name="meta.media.0.codec.sample_rate">48000</property>
  <property name="meta.media.0.codec.channels">2</property>
  <property name="meta.media.0.codec.name">pcm_s16le</property>
  <property name="meta.media.0.codec.long_name">PCM signed 16-bit little-endian</property>
  <property name="meta.media.0.codec.bit_rate">1536000</property>
  <property name="seekable">1</property>
  <property name="kdenlive:clipname"/>
  <property name="kdenlive:folderid">23</property>
  <property name="kdenlive:id">43</property>
  <property name="kdenlive:file_size">2802828</property>
  <property name="kdenlive:file_hash">e6d4ed120e3538c5b822a467bef7391c</property>
  <property name="kdenlive:audio_max0">120</property>
  <property name="xml">was here</property>
  <property name="set.test_audio">0</property>
  <property name="set.test_image">1</property>
 </producer>
 <producer id="producer412" in="00:00:00.000" out="00:00:07.333">
  <property name="length">441</property>
  <property name="eof">pause</property>
  <property name="resource">audio/normalized/e310.wav</property>
  <property name="audio_index">0</property>
  <property name="video_index">-1</property>
  <property name="mute_on_pause">0</property>
  <property name="mlt_service">avformat-novalidate</property>
  <property name="meta.media.nb_streams">1</property>
  <property name="meta.media.0.stream.type">audio</property>
  <property name="meta.media.0.codec.sample_fmt">s16</property>
  <property name="meta.media.0.codec.sample_rate">48000</property>
  <property name="meta.media.0.codec.channels">2</property>
  <property name="meta.media.0.codec.name">pcm_s16le</property>
  <property name="meta.media.0.codec.long_name">PCM signed 16-bit little-endian</property>
  <property name="meta.media.0.codec.bit_rate">1536000</property>
  <property name="seekable">1</property>
  <property name="kdenlive:clipname"/>
  <property name="kdenlive:folderid">23</property>
  <property name="kdenlive:id">35</property>
  <property name="kdenlive:file_size">1410508</property>
  <property name="kdenlive:file_hash">386c78f57df76298e128f211ffc916c1</property>
  <property name="kdenlive:audio_max0">120</property>
  <property name="xml">was here</property>
  <property name="set.test_audio">0</property>
  <property name="set.test_image">1</property>
 </producer>
 <producer id="producer413" in="00:00:00.000" out="00:00:11.700">
  <property name="length">703</property>
  <property name="eof">pause</property>
  <property name="resource">audio/normalized/c1.wav</property>
  <property name="audio_index">0</property>
  <property name="video_index">-1</property>
  <property name="mute_on_pause">0</property>
  <property name="mlt_service">avformat-novalidate</property>
  <property name="meta.media.nb_streams">1</property>
  <property name="meta.media.0.stream.type">audio</property>
  <property name="meta.media.0.codec.sample_fmt">s16</property>
  <property name="meta.media.0.codec.sample_rate">48000</property>
  <property name="meta.media.0.codec.channels">2</property>
  <property name="meta.media.0.codec.name">pcm_s16le</property>
  <property name="meta.media.0.codec.long_name">PCM signed 16-bit little-endian</property>
  <property name="meta.media.0.codec.bit_rate">1536000</property>
  <property name="seekable">1</property>
  <property name="kdenlive:clipname"/>
  <property name="kdenlive:folderid">23</property>
  <property name="kdenlive:id">22</property>
  <property name="kdenlive:file_size">2250348</property>
  <property name="kdenlive:file_hash">e74c44740949c50e5a295c3054ddc875</property>
  <property name="kdenlive:audio_max0">120</property>
  <property name="xml">was here</property>
  <property name="set.test_audio">0</property>
  <property name="set.test_image">1</property>
 </producer>
 <producer id="producer414" in="00:00:00.000" out="00:00:10.083">
  <property name="length">606</property>
  <property name="eof">pause</property>
  <property name="resource">audio/normalized/c2.wav</property>
  <property name="audio_index">0</property>
  <property name="video_index">-1</property>
  <property name="mute_on_pause">0</property>
  <property name="mlt_service">avformat-novalidate</property>
  <property name="meta.media.nb_streams">1</property>
  <property name="meta.media.0.stream.type">audio</property>
  <property name="meta.media.0.codec.sample_fmt">s16</property>
  <property name="meta.media.0.codec.sample_rate">48000</property>
  <property name="meta.media.0.codec.channels">2</property>
  <property name="meta.media.0.codec.name">pcm_s16le</property>
  <property name="meta.media.0.codec.long_name">PCM signed 16-bit little-endian</property>
  <property name="meta.media.0.codec.bit_rate">1536000</property>
  <property name="seekable">1</property>
  <property name="kdenlive:clipname"/>
  <property name="kdenlive:folderid">23</property>
  <property name="kdenlive:id">24</property>
  <property name="kdenlive:file_size">1938700</property>
  <property name="kdenlive:file_hash">a8edec4d1e29a76422f99402a17d272f</property>
  <property name="kdenlive:audio_max0">124</property>
  <property name="xml">was here</property>
  <property name="set.test_audio">0</property>
  <property name="set.test_image">1</property>
 </producer>
 <producer id="producer415" in="00:00:00.000" out="00:00:10.333">
  <property name="length">621</property>
  <property name="eof">pause</property>
  <property name="resource">audio/normalized/c3.wav</property>
  <property name="audio_index">0</property>
  <property name="video_index">-1</property>
  <property name="mute_on_pause">0</property>
  <property name="mlt_service">avformat-novalidate</property>
  <property name="meta.media.nb_streams">1</property>
  <property name="meta.media.0.stream.type">audio</property>
  <property name="meta.media.0.codec.sample_fmt">s16</property>
  <property name="meta.media.0.codec.sample_rate">48000</property>
  <property name="meta.media.0.codec.channels">2</property>
  <property name="meta.media.0.codec.name">pcm_s16le</property>
  <property name="meta.media.0.codec.long_name">PCM signed 16-bit little-endian</property>
  <property name="meta.media.0.codec.bit_rate">1536000</property>
  <property name="seekable">1</property>
  <property name="kdenlive:clipname"/>
  <property name="kdenlive:folderid">23</property>
  <property name="kdenlive:id">25</property>
  <property name="kdenlive:file_size">1987276</property>
  <property name="kdenlive:file_hash">a9d8bd65a29bcbf4d674e3139b977a74</property>
  <property name="kdenlive:audio_max0">120</property>
  <property name="xml">was here</property>
  <property name="set.test_audio">0</property>
  <property name="set.test_image">1</property>
 </producer>
 <producer id="producer416" in="00:00:00.000" out="00:00:11.833">
  <property name="length">711</property>
  <property name="eof">pause</property>
  <property name="resource">audio/normalized/c4.wav</property>
  <property name="audio_index">0</property>
  <property name="video_index">-1</property>
  <property name="mute_on_pause">0</property>
  <property name="mlt_service">avformat-novalidate</property>
  <property name="meta.media.nb_streams">1</property>
  <property name="meta.media.0.stream.type">audio</property>
  <property name="meta.media.0.codec.sample_fmt">s16</property>
  <property name="meta.media.0.codec.sample_rate">48000</property>
  <property name="meta.media.0.codec.channels">2</property>
  <property name="meta.media.0.codec.name">pcm_s16le</property>
  <property name="meta.media.0.codec.long_name">PCM signed 16-bit little-endian</property>
  <property name="meta.media.0.codec.bit_rate">1536000</property>
  <property name="seekable">1</property>
  <property name="kdenlive:clipname"/>
  <property name="kdenlive:folderid">23</property>
  <property name="kdenlive:id">26</property>
  <property name="kdenlive:file_size">2274636</property>
  <property name="kdenlive:file_hash">54be2c85c2a597a94f7ea00144105f56</property>
  <property name="kdenlive:audio_max0">113</property>
  <property name="xml">was here</property>
  <property name="set.test_audio">0</property>
  <property name="set.test_image">1</property>
 </producer>
 <producer id="producer417" in="00:00:00.000" out="00:00:12.583">
  <property name="length">756</property>
  <property name="eof">pause</property>
  <property name="resource">audio/normalized/c5.wav</property>
  <property name="audio_index">0</property>
  <property name="video_index">-1</property>
  <property name="mute_on_pause">0</property>
  <property name="mlt_service">avformat-novalidate</property>
  <property name="meta.media.nb_streams">1</property>
  <property name="meta.media.0.stream.type">audio</property>
  <property name="meta.media.0.codec.sample_fmt">s16</property>
  <property name="meta.media.0.codec.sample_rate">48000</property>
  <property name="meta.media.0.codec.channels">2</property>
  <property name="meta.media.0.codec.name">pcm_s16le</property>
  <property name="meta.media.0.codec.long_name">PCM signed 16-bit little-endian</property>
  <property name="meta.media.0.codec.bit_rate">1536000</property>
  <property name="seekable">1</property>
  <property name="kdenlive:clipname"/>
  <property name="kdenlive:folderid">23</property>
  <property name="kdenlive:id">27</property>
  <property name="kdenlive:file_size">2418316</property>
  <property name="kdenlive:file_hash">a4417a2e51853be0a11e0bf2eb76fb0e</property>
  <property name="kdenlive:audio_max0">121</property>
  <property name="xml">was here</property>
  <property name="set.test_audio">0</property>
  <property name="set.test_image">1</property>
 </producer>
 <producer id="producer418" in="00:00:00.000" out="00:00:05.450">
  <property name="length">328</property>
  <property name="eof">pause</property>
  <property name="resource">audio/normalized/inf1.wav</property>
  <property name="audio_index">0</property>
  <property name="video_index">-1</property>
  <property name="mute_on_pause">0</property>
  <property name="mlt_service">avformat-novalidate</property>
  <property name="meta.media.nb_streams">1</property>
  <property name="meta.media.0.stream.type">audio</property>
  <property name="meta.media.0.codec.sample_fmt">s16</property>
  <property name="meta.media.0.codec.sample_rate">48000</property>
  <property name="meta.media.0.codec.channels">2</property>
  <property name="meta.media.0.codec.name">pcm_s16le</property>
  <property name="meta.media.0.codec.long_name">PCM signed 16-bit little-endian</property>
  <property name="meta.media.0.codec.bit_rate">1536000</property>
  <property name="seekable">1</property>
  <property name="kdenlive:clipname"/>
  <property name="kdenlive:folderid">23</property>
  <property name="kdenlive:id">49</property>
  <property name="kdenlive:file_size">1050284</property>
  <property name="kdenlive:file_hash">8ad88319b56288605ce18bad42be0e42</property>
  <property name="kdenlive:audio_max0">130</property>
  <property name="xml">was here</property>
  <property name="set.test_audio">0</property>
  <property name="set.test_image">1</property>
 </producer>
 <producer id="producer419" in="00:00:00.000" out="00:00:16.950">
  <property name="length">1018</property>
  <property name="eof">pause</property>
  <property name="resource">audio/normalized/inf2.wav</property>
  <property name="audio_index">0</property>
  <property name="video_index">-1</property>
  <property name="mute_on_pause">0</property>
  <property name="mlt_service">avformat-novalidate</property>
  <property name="meta.media.nb_streams">1</property>
  <property name="meta.media.0.stream.type">audio</property>
  <property name="meta.media.0.codec.sample_fmt">s16</property>
  <property name="meta.media.0.codec.sample_rate">48000</property>
  <property name="meta.media.0.codec.channels">2</property>
  <property name="meta.media.0.codec.name">pcm_s16le</property>
  <property name="meta.media.0.codec.long_name">PCM signed 16-bit little-endian</property>
  <property name="meta.media.0.codec.bit_rate">1536000</property>
  <property name="seekable">1</property>
  <property name="kdenlive:clipname"/>
  <property name="kdenlive:folderid">23</property>
  <property name="kdenlive:id">50</property>
  <property name="kdenlive:file_size">3258156</property>
  <property name="kdenlive:file_hash">5cb39fd62d1a08fa9335b042c175bbfb</property>
  <property name="kdenlive:audio_max0">130</property>
  <property name="xml">was here</property>
  <property name="set.test_audio">0</property>
  <property name="set.test_image">1</property>
 </producer>
 <producer id="producer420" in="00:00:00.000" out="00:00:30.583">
  <property name="length">1836</property>
  <property name="eof">pause</property>
  <property name="resource">audio/normalized/inf3.wav</property>
  <property name="audio_index">0</property>
  <property name="video_index">-1</property>
  <property name="mute_on_pause">0</property>
  <property name="mlt_service">avformat-novalidate</property>
  <property name="meta.media.nb_streams">1</property>
  <property name="meta.media.0.stream.type">audio</property>
  <property name="meta.media.0.codec.sample_fmt">s16</property>
  <property name="meta.media.0.codec.sample_rate">48000</property>
  <property name="meta.media.0.codec.channels">2</property>
  <property name="meta.media.0.codec.name">pcm_s16le</property>
  <property name="meta.media.0.codec.long_name">PCM signed 16-bit little-endian</property>
  <property name="meta.media.0.codec.bit_rate">1536000</property>
  <property name="seekable">1</property>
  <property name="kdenlive:clipname"/>
  <property name="kdenlive:folderid">23</property>
  <property name="kdenlive:id">51</property>
  <property name="kdenlive:file_size">5874828</property>
  <property name="kdenlive:file_hash">5f59764e704c626fb24414347b3f711d</property>
  <property name="kdenlive:audio_max0">129</property>
  <property name="xml">was here</property>
  <property name="set.test_audio">0</property>
  <property name="set.test_image">1</property>
 </producer>
 <producer id="producer421" in="00:00:00.000" out="00:00:06.583">
  <property name="length">396</property>
  <property name="eof">pause</property>
  <property name="resource">audio/normalized/inf4.wav</property>
  <property name="audio_index">0</property>
  <property name="video_index">-1</property>
  <property name="mute_on_pause">0</property>
  <property name="mlt_service">avformat-novalidate</property>
  <property name="meta.media.nb_streams">1</property>
  <property name="meta.media.0.stream.type">audio</property>
  <property name="meta.media.0.codec.sample_fmt">s16</property>
  <property name="meta.media.0.codec.sample_rate">48000</property>
  <property name="meta.media.0.codec.channels">2</property>
  <property name="meta.media.0.codec.name">pcm_s16le</property>
  <property name="meta.media.0.codec.long_name">PCM signed 16-bit little-endian</property>
  <property name="meta.media.0.codec.bit_rate">1536000</property>
  <property name="seekable">1</property>
  <property name="kdenlive:clipname"/>
  <property name="kdenlive:folderid">23</property>
  <property name="kdenlive:id">52</property>
  <property name="kdenlive:file_size">1266828</property>
  <property name="kdenlive:file_hash">e9791143fb307797d5ee34ed30052ccc</property>
  <property name="kdenlive:audio_max0">112</property>
  <property name="xml">was here</property>
  <property name="set.test_audio">0</property>
  <property name="set.test_image">1</property>
 </producer>
 <producer id="producer422" in="00:00:00.000" out="00:00:15.200">
  <property name="length">913</property>
  <property name="eof">pause</property>
  <property name="resource">audio/normalized/o1.wav</property>
  <property name="audio_index">0</property>
  <property name="video_index">-1</property>
  <property name="mute_on_pause">0</property>
  <property name="mlt_service">avformat-novalidate</property>
  <property name="meta.media.nb_streams">1</property>
  <property name="meta.media.0.stream.type">audio</property>
  <property name="meta.media.0.codec.sample_fmt">s16</property>
  <property name="meta.media.0.codec.sample_rate">48000</property>
  <property name="meta.media.0.codec.channels">2</property>
  <property name="meta.media.0.codec.name">pcm_s16le</property>
  <property name="meta.media.0.codec.long_name">PCM signed 16-bit little-endian</property>
  <property name="meta.media.0.codec.bit_rate">1536000</property>
  <property name="seekable">1</property>
  <property name="kdenlive:clipname"/>
  <property name="kdenlive:folderid">23</property>
  <property name="kdenlive:id">55</property>
  <property name="kdenlive:file_size">2922220</property>
  <property name="kdenlive:file_hash">8219345e012719d74a691726e14ff07e</property>
  <property name="kdenlive:audio_max0">121</property>
  <property name="xml">was here</property>
  <property name="set.test_audio">0</property>
  <property name="set.test_image">1</property>
 </producer>
 <playlist id="playlist4">
  <property name="kdenlive:audio_track">1</property>
  <entry producer="producer385" in="00:00:00.733" out="00:00:11.950">
   <property name="kdenlive:id">53</property>
  </entry>
  <blank length="00:00:00.633"/>
  <entry producer="producer386" in="00:00:00.350" out="00:00:03.583">
   <property name="kdenlive:id">54</property>
  </entry>
  <blank length="00:00:01.400"/>
  <entry producer="producer387" in="00:00:00.767" out="00:00:07.183">
   <property name="kdenlive:id">44</property>
  </entry>
  <blank length="00:00:00.483"/>
  <entry producer="producer387" in="00:00:07.617" out="00:00:09.950">
   <property name="kdenlive:id">44</property>
  </entry>
  <blank length="00:00:02.100"/>
  <entry producer="producer388" in="00:00:00.950" out="00:00:09.900">
   <property name="kdenlive:id">45</property>
  </entry>
  <blank length="00:00:00.517"/>
  <entry producer="producer389" in="00:00:00.650" out="00:00:14.083">
   <property name="kdenlive:id">46</property>
  </entry>
  <blank length="00:00:00.917"/>
  <entry producer="producer390" in="00:00:01.267" out="00:00:11.950">
   <property name="kdenlive:id">47</property>
  </entry>
  <blank length="00:00:01.150"/>
  <entry producer="producer391" in="00:00:01.383" out="00:00:11.517">
   <property name="kdenlive:id">48</property>
  </entry>
  <blank length="00:00:01.033"/>
  <entry producer="producer391" in="00:00:12.567" out="00:00:16.567">
   <property name="kdenlive:id">48</property>
  </entry>
  <blank length="00:00:00.450"/>
  <entry producer="producer391" in="00:00:16.583" out="00:00:23.083">
   <property name="kdenlive:id">48</property>
  </entry>
  <blank length="00:00:00.767"/>
  <entry producer="producer392" in="00:00:00.400" out="00:00:25.950">
   <property name="kdenlive:id">28</property>
  </entry>
  <blank length="00:00:01.017"/>
  <entry producer="producer393" in="00:00:01.017" out="00:00:19.217">
   <property name="kdenlive:id">29</property>
  </entry>
  <blank length="00:00:00.650"/>
  <entry producer="producer394" in="00:00:01.000" out="00:00:07.683">
   <property name="kdenlive:id">30</property>
  </entry>
  <blank length="00:00:01.867"/>
  <entry producer="producer394" in="00:00:07.700" out="00:00:09.233">
   <property name="kdenlive:id">30</property>
  </entry>
  <blank length="00:00:00.350"/>
  <entry producer="producer394" in="00:00:09.250" out="00:00:10.583">
   <property name="kdenlive:id">30</property>
  </entry>
  <blank length="00:00:02.467"/>
  <entry producer="producer395" in="00:00:00.783" out="00:00:03.083">
   <property name="kdenlive:id">31</property>
  </entry>
  <blank length="00:00:02.050"/>
  <entry producer="producer396" in="00:00:00.883" out="00:00:07.967">
   <property name="kdenlive:id">32</property>
  </entry>
  <blank length="00:00:08.883"/>
  <entry producer="producer397" in="00:00:01.450" out="00:00:06.083">
   <property name="kdenlive:id">33</property>
  </entry>
  <blank length="00:00:00.833"/>
  <entry producer="producer398" in="00:00:00.933" out="00:00:03.217">
   <property name="kdenlive:id">56</property>
  </entry>
  <blank length="00:00:00.817"/>
  <entry producer="producer399" in="00:00:01.333" out="00:00:09.950">
   <property name="kdenlive:id">57</property>
  </entry>
  <blank length="00:00:00.600"/>
  <entry producer="producer400" in="00:00:01.167" out="00:00:11.050">
   <property name="kdenlive:id">58</property>
  </entry>
  <blank length="00:00:00.683"/>
  <entry producer="producer401" in="00:00:00.683" out="00:00:13.567">
   <property name="kdenlive:id">59</property>
  </entry>
  <blank length="00:00:00.667"/>
  <entry producer="producer402" in="00:00:01.167" out="00:00:06.833">
   <property name="kdenlive:id">60</property>
  </entry>
  <blank length="00:00:00.683"/>
  <entry producer="producer403" in="00:00:01.367" out="00:00:12.217">
   <property name="kdenlive:id">34</property>
  </entry>
  <blank length="00:00:00.850"/>
  <entry producer="producer404" in="00:00:00.850" out="00:00:08.083">
   <property name="kdenlive:id">36</property>
  </entry>
  <blank length="00:00:01.167"/>
  <entry producer="producer405" in="00:00:01.167" out="00:00:12.333">
   <property name="kdenlive:id">37</property>
  </entry>
  <blank length="00:00:00.450"/>
  <entry producer="producer406" in="00:00:00.667" out="00:00:07.367">
   <property name="kdenlive:id">38</property>
  </entry>
  <entry producer="producer406" in="00:00:09.700" out="00:00:12.217">
   <property name="kdenlive:id">38</property>
  </entry>
  <blank length="00:00:00.483"/>
  <entry producer="producer407" in="00:00:00.483" out="00:00:05.967">
   <property name="kdenlive:id">39</property>
  </entry>
  <blank length="00:00:00.367"/>
  <entry producer="producer408" in="00:00:00.367" out="00:00:03.333">
   <property name="kdenlive:id">40</property>
  </entry>
  <blank length="00:00:00.783"/>
  <entry producer="producer409" in="00:00:00.633" out="00:00:09.833">
   <property name="kdenlive:id">41</property>
  </entry>
  <blank length="00:00:01.950"/>
  <entry producer="producer410" in="00:00:00.733" out="00:00:10.083">
   <property name="kdenlive:id">42</property>
  </entry>
  <blank length="00:00:00.367"/>
  <entry producer="producer411" in="00:00:00.367" out="00:00:13.817">
   <property name="kdenlive:id">43</property>
  </entry>
  <blank length="00:00:00.750"/>
  <entry producer="producer412" in="00:00:01.067" out="00:00:06.517">
   <property name="kdenlive:id">35</property>
  </entry>
  <blank length="00:00:01.433"/>
  <entry producer="producer413" in="00:00:01.083" out="00:00:10.983">
   <property name="kdenlive:id">22</property>
  </entry>
  <blank length="00:00:00.800"/>
  <entry producer="producer414" in="00:00:01.033" out="00:00:10.083">
   <property name="kdenlive:id">24</property>
  </entry>
  <blank length="00:00:00.667"/>
  <entry producer="producer415" in="00:00:00.667" out="00:00:10.333">
   <property name="kdenlive:id">25</property>
  </entry>
  <blank length="00:00:00.183"/>
  <entry producer="producer416" in="00:00:00.450" out="00:00:11.833">
   <property name="kdenlive:id">26</property>
  </entry>
  <blank length="00:00:00.867"/>
  <entry producer="producer417" in="00:00:00.867" out="00:00:12.583">
   <property name="kdenlive:id">27</property>
  </entry>
  <blank length="00:00:00.850"/>
  <entry producer="producer418" in="00:00:01.067" out="00:00:05.450">
   <property name="kdenlive:id">49</property>
  </entry>
  <blank length="00:00:00.550"/>
  <entry producer="producer419" in="00:00:01.083" out="00:00:16.067">
   <property name="kdenlive:id">50</property>
  </entry>
  <blank length="00:00:00.550"/>
  <entry producer="producer420" in="00:00:00.550" out="00:00:22.450">
   <property name="kdenlive:id">51</property>
  </entry>
  <entry producer="producer420" in="00:00:24.117" out="00:00:29.850">
   <property name="kdenlive:id">51</property>
  </entry>
  <blank length="00:00:00.500"/>
  <entry producer="producer421" in="00:00:00.850" out="00:00:06.583">
   <property name="kdenlive:id">52</property>
  </entry>
  <blank length="00:00:01.300"/>
  <entry producer="producer422" in="00:00:00.950" out="00:00:15.200">
   <property name="kdenlive:id">55</property>
  </entry>
 </playlist>
 <playlist id="playlist5">
  <property name="kdenlive:audio_track">1</property>
 </playlist>
 <tractor id="tractor2" in="00:00:00.000" out="00:07:13.233">
  <property name="kdenlive:audio_track">1</property>
  <property name="kdenlive:trackheight">67</property>
  <property name="kdenlive:timeline_active">1</property>
  <property name="kdenlive:collapsed">0</property>
  <property name="kdenlive:thumbs_format"/>
  <property name="kdenlive:audio_rec"/>
  <track hide="video" producer="playlist4"/>
  <track hide="video" producer="playlist5"/>
  <filter id="filter6">
   <property name="window">75</property>
   <property name="max_gain">20dB</property>
   <property name="mlt_service">volume</property>
   <property name="internal_added">237</property>
   <property name="disable">1</property>
  </filter>
  <filter id="filter7">
   <property name="channel">-1</property>
   <property name="mlt_service">panner</property>
   <property name="internal_added">237</property>
   <property name="start">0.5</property>
   <property name="disable">1</property>
  </filter>
  <filter id="filter8">
   <property name="iec_scale">0</property>
   <property name="mlt_service">audiolevel</property>
   <property name="disable">1</property>
  </filter>
 </tractor>
 <producer id="producer423" in="00:00:00.000" out="00:00:00.983">
  <property name="length">60</property>
  <property name="eof">pause</property>
  <property name="resource">/home/xiaoxiae/.cache/kdenlive/proxy/a265c797cc847185dc6ec9779bde4d00.mov</property>
  <property name="audio_index">-1</property>
  <property name="video_index">0</property>
  <property name="mute_on_pause">0</property>
  <property name="mlt_service">avformat-novalidate</property>
  <property name="seekable">1</property>
  <property name="aspect_ratio">1</property>
  <property name="kdenlive:clipname">1.mp4</property>
  <property name="kdenlive:folderid">171</property>
  <property name="kdenlive:id">170</property>
  <property name="kdenlive:file_size">198997</property>
  <property name="kdenlive:proxy">/home/xiaoxiae/.cache/kdenlive/proxy/a265c797cc847185dc6ec9779bde4d00.mov</property>
  <property name="kdenlive:originalurl">video/Motivation/vid/1.mp4</property>
  <property name="kdenlive:original.mlt_type">producer</property>
  <property name="kdenlive:original.in">0</property>
  <property name="kdenlive:original.out">59</property>
  <property name="kdenlive:original.length">60</property>
  <property name="kdenlive:original.eof">pause</property>
  <property name="kdenlive:original.resource">video/Motivation/vid/1.mp4</property>
  <property name="kdenlive:original.meta.media.nb_streams">1</property>
  <property name="kdenlive:original.meta.media.0.stream.type">video</property>
  <property name="kdenlive:original.meta.media.0.stream.frame_rate">60</property>
  <property name="kdenlive:original.meta.media.0.stream.sample_aspect_ratio">0</property>
  <property name="kdenlive:original.meta.media.0.codec.width">3840</property>
  <property name="kdenlive:original.meta.media.0.codec.height">2160</property>
  <property name="kdenlive:original.meta.media.0.codec.rotate">0</property>
  <property name="kdenlive:original.meta.media.0.codec.pix_fmt">yuv420p</property>
  <property name="kdenlive:original.meta.media.0.codec.sample_aspect_ratio">0</property>
  <property name="kdenlive:original.meta.media.0.codec.colorspace">709</property>
  <property name="kdenlive:original.meta.media.0.codec.name">h264</property>
  <property name="kdenlive:original.meta.media.0.codec.long_name">H.264 / AVC / MPEG-4 AVC / MPEG-4 part 10</property>
  <property name="kdenlive:original.meta.media.0.codec.bit_rate">1579304</property>
  <property name="kdenlive:original.meta.attr.0.stream.handler_name.markup">VideoHandler</property>
  <property name="kdenlive:original.meta.attr.0.stream.vendor_id.markup">[0][0][0][0]</property>
  <property name="kdenlive:original.meta.attr.major_brand.markup">isom</property>
  <property name="kdenlive:original.meta.attr.minor_version.markup">512</property>
  <property name="kdenlive:original.meta.attr.compatible_brands.markup">isomiso2avc1mp41</property>
  <property name="kdenlive:original.meta.attr.encoder.markup">Lavf58.76.100</property>
  <property name="kdenlive:original.meta.attr.comment.markup">Rendered with Manim Community v0.12.0</property>
  <property name="kdenlive:original.seekable">1</property>
  <property name="kdenlive:original.width">3840</property>
  <property name="kdenlive:original.height">2160</property>
  <property name="kdenlive:original.meta.media.sample_aspect_num">1</property>
  <property name="kdenlive:original.meta.media.sample_aspect_den">1</property>
  <property name="kdenlive:original.aspect_ratio">1</property>
  <property name="kdenlive:original.audio_index">-1</property>
  <property name="kdenlive:original.video_index">0</property>
  <property name="kdenlive:original.mute_on_pause">0</property>
  <property name="kdenlive:original.mlt_service">avformat-novalidate</property>
  <property name="kdenlive:original.kdenlive:folderid">171</property>
  <property name="kdenlive:original.meta.media.frame_rate_num">60</property>
  <property name="kdenlive:original.meta.media.frame_rate_den">1</property>
  <property name="kdenlive:original.meta.media.colorspace">709</property>
  <property name="kdenlive:original.meta.media.color_trc">2</property>
  <property name="kdenlive:original.meta.media.has_b_frames">2</property>
  <property name="kdenlive:original.meta.media.width">3840</property>
  <property name="kdenlive:original.meta.media.height">2160</property>
  <property name="kdenlive:original.meta.media.color_range">mpeg</property>
  <property name="kdenlive:original.kdenlive:id">172</property>
  <property name="kdenlive:original.kdenlive:file_size">198997</property>
  <property name="kdenlive:original.kdenlive:file_hash">a265c797cc847185dc6ec9779bde4d00</property>
  <property name="kdenlive:original.backup">1</property>
  <property name="kdenlive:file_hash">a265c797cc847185dc6ec9779bde4d00</property>
  <property name="xml">was here</property>
  <property name="meta.media.nb_streams">1</property>
  <property name="meta.media.0.stream.type">video</property>
  <property name="meta.media.0.stream.frame_rate">60</property>
  <property name="meta.media.0.stream.sample_aspect_ratio">0</property>
  <property name="meta.media.0.codec.width">640</property>
  <property name="meta.media.0.codec.height">360</property>
  <property name="meta.media.0.codec.rotate">0</property>
  <property name="meta.media.0.codec.pix_fmt">yuv420p</property>
  <property name="meta.media.0.codec.sample_aspect_ratio">0</property>
  <property name="meta.media.0.codec.colorspace">601</property>
  <property name="meta.media.0.codec.name">h264</property>
  <property name="meta.media.0.codec.long_name">H.264 / AVC / MPEG-4 AVC / MPEG-4 part 10</property>
  <property name="meta.media.0.codec.bit_rate">1349248</property>
  <property name="meta.attr.0.stream.handler_name.markup">VideoHandler</property>
  <property name="meta.attr.0.stream.vendor_id.markup">FFMP</property>
  <property name="meta.attr.0.stream.encoder.markup">Lavc58.134.100 libx264</property>
  <property name="meta.attr.major_brand.markup">qt  </property>
  <property name="meta.attr.minor_version.markup">512</property>
  <property name="meta.attr.compatible_brands.markup">qt  </property>
  <property name="meta.attr.encoder.markup">Lavf58.76.100</property>
  <property name="meta.attr.comment.markup">Rendered with Manim Community v0.12.0</property>
  <property name="meta.media.sample_aspect_num">1</property>
  <property name="meta.media.sample_aspect_den">1</property>
  <property name="meta.media.frame_rate_num">60</property>
  <property name="meta.media.frame_rate_den">1</property>
  <property name="meta.media.colorspace">601</property>
  <property name="meta.media.color_trc">2</property>
  <property name="meta.media.has_b_frames">0</property>
  <property name="meta.media.width">640</property>
  <property name="meta.media.height">360</property>
  <property name="meta.media.color_range">mpeg</property>
  <property name="set.test_audio">1</property>
  <property name="set.test_image">0</property>
  <property name="meta.media.top_field_first">0</property>
  <property name="meta.media.progressive">1</property>
 </producer>
 <producer id="producer424" in="00:00:00.000" out="00:00:02.867">
  <property name="length">173</property>
  <property name="eof">pause</property>
  <property name="resource">/home/xiaoxiae/.cache/kdenlive/proxy/ab47f4ef80f9e1493878a5ed98977dbd.mov</property>
  <property name="audio_index">-1</property>
  <property name="video_index">0</property>
  <property name="mute_on_pause">0</property>
  <property name="mlt_service">avformat-novalidate</property>
  <property name="seekable">1</property>
  <property name="aspect_ratio">1</property>
  <property name="kdenlive:clipname">2.mp4</property>
  <property name="kdenlive:folderid">171</property>
  <property name="kdenlive:id">182</property>
  <property name="kdenlive:file_size">233712</property>
  <property name="kdenlive:proxy">/home/xiaoxiae/.cache/kdenlive/proxy/ab47f4ef80f9e1493878a5ed98977dbd.mov</property>
  <property name="kdenlive:originalurl">video/Motivation/vid/2.mp4</property>
  <property name="kdenlive:original.mlt_type">producer</property>
  <property name="kdenlive:original.in">0</property>
  <property name="kdenlive:original.out">172</property>
  <property name="kdenlive:original.length">173</property>
  <property name="kdenlive:original.eof">pause</property>
  <property name="kdenlive:original.resource">video/Motivation/vid/2.mp4</property>
  <property name="kdenlive:original.meta.media.nb_streams">1</property>
  <property name="kdenlive:original.meta.media.0.stream.type">video</property>
  <property name="kdenlive:original.meta.media.0.stream.frame_rate">60</property>
  <property name="kdenlive:original.meta.media.0.stream.sample_aspect_ratio">0</property>
  <property name="kdenlive:original.meta.media.0.codec.width">3840</property>
  <property name="kdenlive:original.meta.media.0.codec.height">2160</property>
  <property name="kdenlive:original.meta.media.0.codec.rotate">0</property>
  <property name="kdenlive:original.meta.media.0.codec.pix_fmt">yuv420p</property>
  <property name="kdenlive:original.meta.media.0.codec.sample_aspect_ratio">0</property>
  <property name="kdenlive:original.meta.media.0.codec.colorspace">709</property>
  <property name="kdenlive:original.meta.media.0.codec.name">h264</property>
  <property name="kdenlive:original.meta.media.0.codec.long_name">H.264 / AVC / MPEG-4 AVC / MPEG-4 part 10</property>
  <property name="kdenlive:original.meta.media.0.codec.bit_rate">640136</property>
  <property name="kdenlive:original.meta.attr.0.stream.handler_name.markup">VideoHandler</property>
  <property name="kdenlive:original.meta.attr.0.stream.vendor_id.markup">[0][0][0][0]</property>
  <property name="kdenlive:original.meta.attr.major_brand.markup">isom</property>
  <property name="kdenlive:original.meta.attr.minor_version.markup">512</property>
  <property name="kdenlive:original.meta.attr.compatible_brands.markup">isomiso2avc1mp41</property>
  <property name="kdenlive:original.meta.attr.encoder.markup">Lavf58.76.100</property>
  <property name="kdenlive:original.meta.attr.comment.markup">Rendered with Manim Community v0.12.0</property>
  <property name="kdenlive:original.seekable">1</property>
  <property name="kdenlive:original.width">3840</property>
  <property name="kdenlive:original.height">2160</property>
  <property name="kdenlive:original.meta.media.sample_aspect_num">1</property>
  <property name="kdenlive:original.meta.media.sample_aspect_den">1</property>
  <property name="kdenlive:original.aspect_ratio">1</property>
  <property name="kdenlive:original.audio_index">-1</property>
  <property name="kdenlive:original.video_index">0</property>
  <property name="kdenlive:original.mute_on_pause">0</property>
  <property name="kdenlive:original.mlt_service">avformat-novalidate</property>
  <property name="kdenlive:original.kdenlive:folderid">171</property>
  <property name="kdenlive:original.meta.media.frame_rate_num">60</property>
  <property name="kdenlive:original.meta.media.frame_rate_den">1</property>
  <property name="kdenlive:original.meta.media.colorspace">709</property>
  <property name="kdenlive:original.meta.media.color_trc">2</property>
  <property name="kdenlive:original.meta.media.has_b_frames">2</property>
  <property name="kdenlive:original.meta.media.width">3840</property>
  <property name="kdenlive:original.meta.media.height">2160</property>
  <property name="kdenlive:original.meta.media.color_range">mpeg</property>
  <property name="kdenlive:original.kdenlive:id">183</property>
  <property name="kdenlive:original.kdenlive:file_size">233712</property>
  <property name="kdenlive:original.kdenlive:file_hash">ab47f4ef80f9e1493878a5ed98977dbd</property>
  <property name="kdenlive:original.backup">1</property>
  <property name="kdenlive:file_hash">ab47f4ef80f9e1493878a5ed98977dbd</property>
  <property name="xml">was here</property>
  <property name="meta.media.nb_streams">1</property>
  <property name="meta.media.0.stream.type">video</property>
  <property name="meta.media.0.stream.frame_rate">60</property>
  <property name="meta.media.0.stream.sample_aspect_ratio">0</property>
  <property name="meta.media.0.codec.width">640</property>
  <property name="meta.media.0.codec.height">360</property>
  <property name="meta.media.0.codec.rotate">0</property>
  <property name="meta.media.0.codec.pix_fmt">yuv420p</property>
  <property name="meta.media.0.codec.sample_aspect_ratio">0</property>
  <property name="meta.media.0.codec.colorspace">601</property>
  <property name="meta.media.0.codec.name">h264</property>
  <property name="meta.media.0.codec.long_name">H.264 / AVC / MPEG-4 AVC / MPEG-4 part 10</property>
  <property name="meta.media.0.codec.bit_rate">2363778</property>
  <property name="meta.attr.0.stream.handler_name.markup">VideoHandler</property>
  <property name="meta.attr.0.stream.vendor_id.markup">FFMP</property>
  <property name="meta.attr.0.stream.encoder.markup">Lavc58.134.100 libx264</property>
  <property name="meta.attr.major_brand.markup">qt  </property>
  <property name="meta.attr.minor_version.markup">512</property>
  <property name="meta.attr.compatible_brands.markup">qt  </property>
  <property name="meta.attr.encoder.markup">Lavf58.76.100</property>
  <property name="meta.attr.comment.markup">Rendered with Manim Community v0.12.0</property>
  <property name="meta.media.sample_aspect_num">1</property>
  <property name="meta.media.sample_aspect_den">1</property>
  <property name="meta.media.frame_rate_num">60</property>
  <property name="meta.media.frame_rate_den">1</property>
  <property name="meta.media.colorspace">601</property>
  <property name="meta.media.color_trc">2</property>
  <property name="meta.media.has_b_frames">0</property>
  <property name="meta.media.width">640</property>
  <property name="meta.media.height">360</property>
  <property name="meta.media.color_range">mpeg</property>
  <property name="set.test_audio">1</property>
  <property name="set.test_image">0</property>
  <property name="meta.media.top_field_first">0</property>
  <property name="meta.media.progressive">1</property>
 </producer>
 <producer id="producer425" in="00:00:00.000" out="00:00:00.983">
  <property name="length">60</property>
  <property name="eof">pause</property>
  <property name="resource">/home/xiaoxiae/.cache/kdenlive/proxy/9ea134ae8a6227e7f247ffb38b366b45.mov</property>
  <property name="audio_index">-1</property>
  <property name="video_index">0</property>
  <property name="mute_on_pause">0</property>
  <property name="mlt_service">avformat-novalidate</property>
  <property name="seekable">1</property>
  <property name="aspect_ratio">1</property>
  <property name="kdenlive:clipname">3.mp4</property>
  <property name="kdenlive:folderid">171</property>
  <property name="kdenlive:id">191</property>
  <property name="kdenlive:file_size">195157</property>
  <property name="kdenlive:proxy">/home/xiaoxiae/.cache/kdenlive/proxy/9ea134ae8a6227e7f247ffb38b366b45.mov</property>
  <property name="kdenlive:originalurl">video/Motivation/vid/3.mp4</property>
  <property name="kdenlive:original.mlt_type">producer</property>
  <property name="kdenlive:original.in">0</property>
  <property name="kdenlive:original.out">59</property>
  <property name="kdenlive:original.length">60</property>
  <property name="kdenlive:original.eof">pause</property>
  <property name="kdenlive:original.resource">video/Motivation/vid/3.mp4</property>
  <property name="kdenlive:original.meta.media.nb_streams">1</property>
  <property name="kdenlive:original.meta.media.0.stream.type">video</property>
  <property name="kdenlive:original.meta.media.0.stream.frame_rate">60</property>
  <property name="kdenlive:original.meta.media.0.stream.sample_aspect_ratio">0</property>
  <property name="kdenlive:original.meta.media.0.codec.width">3840</property>
  <property name="kdenlive:original.meta.media.0.codec.height">2160</property>
  <property name="kdenlive:original.meta.media.0.codec.rotate">0</property>
  <property name="kdenlive:original.meta.media.0.codec.pix_fmt">yuv420p</property>
  <property name="kdenlive:original.meta.media.0.codec.sample_aspect_ratio">0</property>
  <property name="kdenlive:original.meta.media.0.codec.colorspace">709</property>
  <property name="kdenlive:original.meta.media.0.codec.name">h264</property>
  <property name="kdenlive:original.meta.media.0.codec.long_name">H.264 / AVC / MPEG-4 AVC / MPEG-4 part 10</property>
  <property name="kdenlive:original.meta.media.0.codec.bit_rate">1548392</property>
  <property name="kdenlive:original.meta.attr.0.stream.handler_name.markup">VideoHandler</property>
  <property name="kdenlive:original.meta.attr.0.stream.vendor_id.markup">[0][0][0][0]</property>
  <property name="kdenlive:original.meta.attr.major_brand.markup">isom</property>
  <property name="kdenlive:original.meta.attr.minor_version.markup">512</property>
  <property name="kdenlive:original.meta.attr.compatible_brands.markup">isomiso2avc1mp41</property>
  <property name="kdenlive:original.meta.attr.encoder.markup">Lavf58.76.100</property>
  <property name="kdenlive:original.meta.attr.comment.markup">Rendered with Manim Community v0.12.0</property>
  <property name="kdenlive:original.seekable">1</property>
  <property name="kdenlive:original.width">3840</property>
  <property name="kdenlive:original.height">2160</property>
  <property name="kdenlive:original.meta.media.sample_aspect_num">1</property>
  <property name="kdenlive:original.meta.media.sample_aspect_den">1</property>
  <property name="kdenlive:original.aspect_ratio">1</property>
  <property name="kdenlive:original.audio_index">-1</property>
  <property name="kdenlive:original.video_index">0</property>
  <property name="kdenlive:original.mute_on_pause">0</property>
  <property name="kdenlive:original.mlt_service">avformat-novalidate</property>
  <property name="kdenlive:original.kdenlive:folderid">171</property>
  <property name="kdenlive:original.meta.media.frame_rate_num">60</property>
  <property name="kdenlive:original.meta.media.frame_rate_den">1</property>
  <property name="kdenlive:original.meta.media.colorspace">709</property>
  <property name="kdenlive:original.meta.media.color_trc">2</property>
  <property name="kdenlive:original.meta.media.has_b_frames">2</property>
  <property name="kdenlive:original.meta.media.width">3840</property>
  <property name="kdenlive:original.meta.media.height">2160</property>
  <property name="kdenlive:original.meta.media.color_range">mpeg</property>
  <property name="kdenlive:original.kdenlive:id">192</property>
  <property name="kdenlive:original.kdenlive:file_size">195157</property>
  <property name="kdenlive:original.kdenlive:file_hash">9ea134ae8a6227e7f247ffb38b366b45</property>
  <property name="kdenlive:original.backup">1</property>
  <property name="kdenlive:file_hash">9ea134ae8a6227e7f247ffb38b366b45</property>
  <property name="xml">was here</property>
  <property name="meta.media.nb_streams">1</property>
  <property name="meta.media.0.stream.type">video</property>
  <property name="meta.media.0.stream.frame_rate">60</property>
  <property name="meta.media.0.stream.sample_aspect_ratio">0</property>
  <property name="meta.media.0.codec.width">640</property>
  <property name="meta.media.0.codec.height">360</property>
  <property name="meta.media.0.codec.rotate">0</property>
  <property name="meta.media.0.codec.pix_fmt">yuv420p</property>
  <property name="meta.media.0.codec.sample_aspect_ratio">0</property>
  <property name="meta.media.0.codec.colorspace">601</property>
  <property name="meta.media.0.codec.name">h264</property>
  <property name="meta.media.0.codec.long_name">H.264 / AVC / MPEG-4 AVC / MPEG-4 part 10</property>
  <property name="meta.media.0.codec.bit_rate">2776864</property>
  <property name="meta.attr.0.stream.handler_name.markup">VideoHandler</property>
  <property name="meta.attr.0.stream.vendor_id.markup">FFMP</property>
  <property name="meta.attr.0.stream.encoder.markup">Lavc58.134.100 libx264</property>
  <property name="meta.attr.major_brand.markup">qt  </property>
  <property name="meta.attr.minor_version.markup">512</property>
  <property name="meta.attr.compatible_brands.markup">qt  </property>
  <property name="meta.attr.encoder.markup">Lavf58.76.100</property>
  <property name="meta.attr.comment.markup">Rendered with Manim Community v0.12.0</property>
  <property name="meta.media.sample_aspect_num">1</property>
  <property name="meta.media.sample_aspect_den">1</property>
  <property name="meta.media.frame_rate_num">60</property>
  <property name="meta.media.frame_rate_den">1</property>
  <property name="meta.media.colorspace">601</property>
  <property name="meta.media.color_trc">2</property>
  <property name="meta.media.has_b_frames">0</property>
  <property name="meta.media.width">640</property>
  <property name="meta.media.height">360</property>
  <property name="meta.media.color_range">mpeg</property>
  <property name="set.test_audio">1</property>
  <property name="set.test_image">0</property>
  <property name="meta.media.top_field_first">0</property>
  <property name="meta.media.progressive">1</property>
 </producer>
 <producer id="producer426" in="00:00:00.000" out="00:00:01.483">
  <property name="length">90</property>
  <property name="eof">pause</property>
  <property name="resource">/home/xiaoxiae/.cache/kdenlive/proxy/67b0ad898de13359262816b2b5ceb432.mov</property>
  <property name="audio_index">-1</property>
  <property name="video_index">0</property>
  <property name="mute_on_pause">0</property>
  <property name="mlt_service">avformat-novalidate</property>
  <property name="seekable">1</property>
  <property name="aspect_ratio">1</property>
  <property name="kdenlive:clipname">4.mp4</property>
  <property name="kdenlive:folderid">171</property>
  <property name="kdenlive:id">192</property>
  <property name="kdenlive:file_size">125601</property>
  <property name="kdenlive:proxy">/home/xiaoxiae/.cache/kdenlive/proxy/67b0ad898de13359262816b2b5ceb432.mov</property>
  <property name="kdenlive:originalurl">video/Motivation/vid/4.mp4</property>
  <property name="kdenlive:original.mlt_type">producer</property>
  <property name="kdenlive:original.in">0</property>
  <property name="kdenlive:original.out">89</property>
  <property name="kdenlive:original.length">90</property>
  <property name="kdenlive:original.eof">pause</property>
  <property name="kdenlive:original.resource">video/Motivation/vid/4.mp4</property>
  <property name="kdenlive:original.meta.media.nb_streams">1</property>
  <property name="kdenlive:original.meta.media.0.stream.type">video</property>
  <property name="kdenlive:original.meta.media.0.stream.frame_rate">60</property>
  <property name="kdenlive:original.meta.media.0.stream.sample_aspect_ratio">0</property>
  <property name="kdenlive:original.meta.media.0.codec.width">3840</property>
  <property name="kdenlive:original.meta.media.0.codec.height">2160</property>
  <property name="kdenlive:original.meta.media.0.codec.rotate">0</property>
  <property name="kdenlive:original.meta.media.0.codec.pix_fmt">yuv420p</property>
  <property name="kdenlive:original.meta.media.0.codec.sample_aspect_ratio">0</property>
  <property name="kdenlive:original.meta.media.0.codec.colorspace">709</property>
  <property name="kdenlive:original.meta.media.0.codec.name">h264</property>
  <property name="kdenlive:original.meta.media.0.codec.long_name">H.264 / AVC / MPEG-4 AVC / MPEG-4 part 10</property>
  <property name="kdenlive:original.meta.media.0.codec.bit_rate">659205</property>
  <property name="kdenlive:original.meta.attr.0.stream.handler_name.markup">VideoHandler</property>
  <property name="kdenlive:original.meta.attr.0.stream.vendor_id.markup">[0][0][0][0]</property>
  <property name="kdenlive:original.meta.attr.major_brand.markup">isom</property>
  <property name="kdenlive:original.meta.attr.minor_version.markup">512</property>
  <property name="kdenlive:original.meta.attr.compatible_brands.markup">isomiso2avc1mp41</property>
  <property name="kdenlive:original.meta.attr.encoder.markup">Lavf58.76.100</property>
  <property name="kdenlive:original.meta.attr.comment.markup">Rendered with Manim Community v0.12.0</property>
  <property name="kdenlive:original.seekable">1</property>
  <property name="kdenlive:original.width">3840</property>
  <property name="kdenlive:original.height">2160</property>
  <property name="kdenlive:original.meta.media.sample_aspect_num">1</property>
  <property name="kdenlive:original.meta.media.sample_aspect_den">1</property>
  <property name="kdenlive:original.aspect_ratio">1</property>
  <property name="kdenlive:original.audio_index">-1</property>
  <property name="kdenlive:original.video_index">0</property>
  <property name="kdenlive:original.mute_on_pause">0</property>
  <property name="kdenlive:original.mlt_service">avformat-novalidate</property>
  <property name="kdenlive:original.kdenlive:folderid">171</property>
  <property name="kdenlive:original.meta.media.frame_rate_num">60</property>
  <property name="kdenlive:original.meta.media.frame_rate_den">1</property>
  <property name="kdenlive:original.meta.media.colorspace">709</property>
  <property name="kdenlive:original.meta.media.color_trc">2</property>
  <property name="kdenlive:original.meta.media.has_b_frames">2</property>
  <property name="kdenlive:original.meta.media.width">3840</property>
  <property name="kdenlive:original.meta.media.height">2160</property>
  <property name="kdenlive:original.meta.media.color_range">mpeg</property>
  <property name="kdenlive:original.kdenlive:id">193</property>
  <property name="kdenlive:original.kdenlive:file_size">125601</property>
  <property name="kdenlive:original.kdenlive:file_hash">67b0ad898de13359262816b2b5ceb432</property>
  <property name="kdenlive:original.backup">1</property>
  <property name="kdenlive:file_hash">67b0ad898de13359262816b2b5ceb432</property>
  <property name="xml">was here</property>
  <property name="meta.media.nb_streams">1</property>
  <property name="meta.media.0.stream.type">video</property>
  <property name="meta.media.0.stream.frame_rate">60</property>
  <property name="meta.media.0.stream.sample_aspect_ratio">0</property>
  <property name="meta.media.0.codec.width">640</property>
  <property name="meta.media.0.codec.height">360</property>
  <property name="meta.media.0.codec.rotate">0</property>
  <property name="meta.media.0.codec.pix_fmt">yuv420p</property>
  <property name="meta.media.0.codec.sample_aspect_ratio">0</property>
  <property name="meta.media.0.codec.colorspace">601</property>
  <property name="meta.media.0.codec.name">h264</property>
  <property name="meta.media.0.codec.long_name">H.264 / AVC / MPEG-4 AVC / MPEG-4 part 10</property>
  <property name="meta.media.0.codec.bit_rate">2897018</property>
  <property name="meta.attr.0.stream.handler_name.markup">VideoHandler</property>
  <property name="meta.attr.0.stream.vendor_id.markup">FFMP</property>
  <property name="meta.attr.0.stream.encoder.markup">Lavc58.134.100 libx264</property>
  <property name="meta.attr.major_brand.markup">qt  </property>
  <property name="meta.attr.minor_version.markup">512</property>
  <property name="meta.attr.compatible_brands.markup">qt  </property>
  <property name="meta.attr.encoder.markup">Lavf58.76.100</property>
  <property name="meta.attr.comment.markup">Rendered with Manim Community v0.12.0</property>
  <property name="meta.media.sample_aspect_num">1</property>
  <property name="meta.media.sample_aspect_den">1</property>
  <property name="meta.media.frame_rate_num">60</property>
  <property name="meta.media.frame_rate_den">1</property>
  <property name="meta.media.colorspace">601</property>
  <property name="meta.media.color_trc">2</property>
  <property name="meta.media.has_b_frames">0</property>
  <property name="meta.media.width">640</property>
  <property name="meta.media.height">360</property>
  <property name="meta.media.color_range">mpeg</property>
  <property name="set.test_audio">1</property>
  <property name="set.test_image">0</property>
  <property name="meta.media.top_field_first">0</property>
  <property name="meta.media.progressive">1</property>
 </producer>
 <producer id="producer427" in="00:00:00.000" out="00:00:02.800">
  <property name="length">169</property>
  <property name="eof">pause</property>
  <property name="resource">/home/xiaoxiae/.cache/kdenlive/proxy/7e72e250702bad50e726be9e809f2133.mov</property>
  <property name="audio_index">-1</property>
  <property name="video_index">0</property>
  <property name="mute_on_pause">0</property>
  <property name="mlt_service">avformat-novalidate</property>
  <property name="seekable">1</property>
  <property name="aspect_ratio">1</property>
  <property name="kdenlive:clipname">5.mp4</property>
  <property name="kdenlive:folderid">171</property>
  <property name="kdenlive:id">193</property>
  <property name="kdenlive:file_size">255009</property>
  <property name="kdenlive:proxy">/home/xiaoxiae/.cache/kdenlive/proxy/7e72e250702bad50e726be9e809f2133.mov</property>
  <property name="kdenlive:originalurl">video/Motivation/vid/5.mp4</property>
  <property name="kdenlive:original.mlt_type">producer</property>
  <property name="kdenlive:original.in">0</property>
  <property name="kdenlive:original.out">168</property>
  <property name="kdenlive:original.length">169</property>
  <property name="kdenlive:original.eof">pause</property>
  <property name="kdenlive:original.resource">video/Motivation/vid/5.mp4</property>
  <property name="kdenlive:original.meta.media.nb_streams">1</property>
  <property name="kdenlive:original.meta.media.0.stream.type">video</property>
  <property name="kdenlive:original.meta.media.0.stream.frame_rate">60</property>
  <property name="kdenlive:original.meta.media.0.stream.sample_aspect_ratio">0</property>
  <property name="kdenlive:original.meta.media.0.codec.width">3840</property>
  <property name="kdenlive:original.meta.media.0.codec.height">2160</property>
  <property name="kdenlive:original.meta.media.0.codec.rotate">0</property>
  <property name="kdenlive:original.meta.media.0.codec.pix_fmt">yuv420p</property>
  <property name="kdenlive:original.meta.media.0.codec.sample_aspect_ratio">0</property>
  <property name="kdenlive:original.meta.media.0.codec.colorspace">709</property>
  <property name="kdenlive:original.meta.media.0.codec.name">h264</property>
  <property name="kdenlive:original.meta.media.0.codec.long_name">H.264 / AVC / MPEG-4 AVC / MPEG-4 part 10</property>
  <property name="kdenlive:original.meta.media.0.codec.bit_rate">716049</property>
  <property name="kdenlive:original.meta.attr.0.stream.handler_name.markup">VideoHandler</property>
  <property name="kdenlive:original.meta.attr.0.stream.vendor_id.markup">[0][0][0][0]</property>
  <property name="kdenlive:original.meta.attr.major_brand.markup">isom</property>
  <property name="kdenlive:original.meta.attr.minor_version.markup">512</property>
  <property name="kdenlive:original.meta.attr.compatible_brands.markup">isomiso2avc1mp41</property>
  <property name="kdenlive:original.meta.attr.encoder.markup">Lavf58.76.100</property>
  <property name="kdenlive:original.meta.attr.comment.markup">Rendered with Manim Community v0.12.0</property>
  <property name="kdenlive:original.seekable">1</property>
  <property name="kdenlive:original.width">3840</property>
  <property name="kdenlive:original.height">2160</property>
  <property name="kdenlive:original.meta.media.sample_aspect_num">1</property>
  <property name="kdenlive:original.meta.media.sample_aspect_den">1</property>
  <property name="kdenlive:original.aspect_ratio">1</property>
  <property name="kdenlive:original.audio_index">-1</property>
  <property name="kdenlive:original.video_index">0</property>
  <property name="kdenlive:original.mute_on_pause">0</property>
  <property name="kdenlive:original.mlt_service">avformat-novalidate</property>
  <property name="kdenlive:original.kdenlive:folderid">171</property>
  <property name="kdenlive:original.meta.media.frame_rate_num">60</property>
  <property name="kdenlive:original.meta.media.frame_rate_den">1</property>
  <property name="kdenlive:original.meta.media.colorspace">709</property>
  <property name="kdenlive:original.meta.media.color_trc">2</property>
  <property name="kdenlive:original.meta.media.has_b_frames">2</property>
  <property name="kdenlive:original.meta.media.width">3840</property>
  <property name="kdenlive:original.meta.media.height">2160</property>
  <property name="kdenlive:original.meta.media.color_range">mpeg</property>
  <property name="kdenlive:original.kdenlive:id">194</property>
  <property name="kdenlive:original.kdenlive:file_size">255009</property>
  <property name="kdenlive:original.kdenlive:file_hash">7e72e250702bad50e726be9e809f2133</property>
  <property name="kdenlive:original.backup">1</property>
  <property name="kdenlive:file_hash">7e72e250702bad50e726be9e809f2133</property>
  <property name="xml">was here</property>
  <property name="meta.media.nb_streams">1</property>
  <property name="meta.media.0.stream.type">video</property>
  <property name="meta.media.0.stream.frame_rate">60</property>
  <property name="meta.media.0.stream.sample_aspect_ratio">0</property>
  <property name="meta.media.0.codec.width">640</property>
  <property name="meta.media.0.codec.height">360</property>
  <property name="meta.media.0.codec.rotate">0</property>
  <property name="meta.media.0.codec.pix_fmt">yuv420p</property>
  <property name="meta.media.0.codec.sample_aspect_ratio">0</property>
  <property name="meta.media.0.codec.colorspace">601</property>
  <property name="meta.media.0.codec.name">h264</property>
  <property name="meta.media.0.codec.long_name">H.264 / AVC / MPEG-4 AVC / MPEG-4 part 10</property>
  <property name="meta.media.0.codec.bit_rate">2901688</property>
  <property name="meta.attr.0.stream.handler_name.markup">VideoHandler</property>
  <property name="meta.attr.0.stream.vendor_id.markup">FFMP</property>
  <property name="meta.attr.0.stream.encoder.markup">Lavc58.134.100 libx264</property>
  <property name="meta.attr.major_brand.markup">qt  </property>
  <property name="meta.attr.minor_version.markup">512</property>
  <property name="meta.attr.compatible_brands.markup">qt  </property>
  <property name="meta.attr.encoder.markup">Lavf58.76.100</property>
  <property name="meta.attr.comment.markup">Rendered with Manim Community v0.12.0</property>
  <property name="meta.media.sample_aspect_num">1</property>
  <property name="meta.media.sample_aspect_den">1</property>
  <property name="meta.media.frame_rate_num">60</property>
  <property name="meta.media.frame_rate_den">1</property>
  <property name="meta.media.colorspace">601</property>
  <property name="meta.media.color_trc">2</property>
  <property name="meta.media.has_b_frames">0</property>
  <property name="meta.media.width">640</property>
  <property name="meta.media.height">360</property>
  <property name="meta.media.color_range">mpeg</property>
  <property name="set.test_audio">1</property>
  <property name="set.test_image">0</property>
 </producer>
 <producer id="producer428" in="00:00:00.000" out="00:00:01.783">
  <property name="length">108</property>
  <property name="eof">pause</property>
  <property name="resource">/home/xiaoxiae/.cache/kdenlive/proxy/0ac118c6979a380c6c1cba92930adee4.mov</property>
  <property name="audio_index">-1</property>
  <property name="video_index">0</property>
  <property name="mute_on_pause">0</property>
  <property name="mlt_service">avformat-novalidate</property>
  <property name="seekable">1</property>
  <property name="aspect_ratio">1</property>
  <property name="kdenlive:clipname">6.mp4</property>
  <property name="kdenlive:folderid">171</property>
  <property name="kdenlive:id">194</property>
  <property name="kdenlive:file_size">276236</property>
  <property name="kdenlive:proxy">/home/xiaoxiae/.cache/kdenlive/proxy/0ac118c6979a380c6c1cba92930adee4.mov</property>
  <property name="kdenlive:originalurl">video/Motivation/vid/6.mp4</property>
  <property name="kdenlive:original.mlt_type">producer</property>
  <property name="kdenlive:original.in">0</property>
  <property name="kdenlive:original.out">107</property>
  <property name="kdenlive:original.length">108</property>
  <property name="kdenlive:original.eof">pause</property>
  <property name="kdenlive:original.resource">video/Motivation/vid/6.mp4</property>
  <property name="kdenlive:original.meta.media.nb_streams">1</property>
  <property name="kdenlive:original.meta.media.0.stream.type">video</property>
  <property name="kdenlive:original.meta.media.0.stream.frame_rate">60</property>
  <property name="kdenlive:original.meta.media.0.stream.sample_aspect_ratio">0</property>
  <property name="kdenlive:original.meta.media.0.codec.width">3840</property>
  <property name="kdenlive:original.meta.media.0.codec.height">2160</property>
  <property name="kdenlive:original.meta.media.0.codec.rotate">0</property>
  <property name="kdenlive:original.meta.media.0.codec.pix_fmt">yuv420p</property>
  <property name="kdenlive:original.meta.media.0.codec.sample_aspect_ratio">0</property>
  <property name="kdenlive:original.meta.media.0.codec.colorspace">709</property>
  <property name="kdenlive:original.meta.media.0.codec.name">h264</property>
  <property name="kdenlive:original.meta.media.0.codec.long_name">H.264 / AVC / MPEG-4 AVC / MPEG-4 part 10</property>
  <property name="kdenlive:original.meta.media.0.codec.bit_rate">1218115</property>
  <property name="kdenlive:original.meta.attr.0.stream.handler_name.markup">VideoHandler</property>
  <property name="kdenlive:original.meta.attr.0.stream.vendor_id.markup">[0][0][0][0]</property>
  <property name="kdenlive:original.meta.attr.major_brand.markup">isom</property>
  <property name="kdenlive:original.meta.attr.minor_version.markup">512</property>
  <property name="kdenlive:original.meta.attr.compatible_brands.markup">isomiso2avc1mp41</property>
  <property name="kdenlive:original.meta.attr.encoder.markup">Lavf58.76.100</property>
  <property name="kdenlive:original.meta.attr.comment.markup">Rendered with Manim Community v0.12.0</property>
  <property name="kdenlive:original.seekable">1</property>
  <property name="kdenlive:original.width">3840</property>
  <property name="kdenlive:original.height">2160</property>
  <property name="kdenlive:original.meta.media.sample_aspect_num">1</property>
  <property name="kdenlive:original.meta.media.sample_aspect_den">1</property>
  <property name="kdenlive:original.aspect_ratio">1</property>
  <property name="kdenlive:original.audio_index">-1</property>
  <property name="kdenlive:original.video_index">0</property>
  <property name="kdenlive:original.mute_on_pause">0</property>
  <property name="kdenlive:original.mlt_service">avformat-novalidate</property>
  <property name="kdenlive:original.kdenlive:folderid">171</property>
  <property name="kdenlive:original.meta.media.frame_rate_num">60</property>
  <property name="kdenlive:original.meta.media.frame_rate_den">1</property>
  <property name="kdenlive:original.meta.media.colorspace">709</property>
  <property name="kdenlive:original.meta.media.color_trc">2</property>
  <property name="kdenlive:original.meta.media.has_b_frames">2</property>
  <property name="kdenlive:original.meta.media.width">3840</property>
  <property name="kdenlive:original.meta.media.height">2160</property>
  <property name="kdenlive:original.meta.media.color_range">mpeg</property>
  <property name="kdenlive:original.kdenlive:id">195</property>
  <property name="kdenlive:original.kdenlive:file_size">276236</property>
  <property name="kdenlive:original.kdenlive:file_hash">0ac118c6979a380c6c1cba92930adee4</property>
  <property name="kdenlive:original.backup">1</property>
  <property name="kdenlive:file_hash">0ac118c6979a380c6c1cba92930adee4</property>
  <property name="xml">was here</property>
  <property name="meta.media.nb_streams">1</property>
  <property name="meta.media.0.stream.type">video</property>
  <property name="meta.media.0.stream.frame_rate">60</property>
  <property name="meta.media.0.stream.sample_aspect_ratio">0</property>
  <property name="meta.media.0.codec.width">640</property>
  <property name="meta.media.0.codec.height">360</property>
  <property name="meta.media.0.codec.rotate">0</property>
  <property name="meta.media.0.codec.pix_fmt">yuv420p</property>
  <property name="meta.media.0.codec.sample_aspect_ratio">0</property>
  <property name="meta.media.0.codec.colorspace">601</property>
  <property name="meta.media.0.codec.name">h264</property>
  <property name="meta.media.0.codec.long_name">H.264 / AVC / MPEG-4 AVC / MPEG-4 part 10</property>
  <property name="meta.media.0.codec.bit_rate">1342226</property>
  <property name="meta.attr.0.stream.handler_name.markup">VideoHandler</property>
  <property name="meta.attr.0.stream.vendor_id.markup">FFMP</property>
  <property name="meta.attr.0.stream.encoder.markup">Lavc58.134.100 libx264</property>
  <property name="meta.attr.major_brand.markup">qt  </property>
  <property name="meta.attr.minor_version.markup">512</property>
  <property name="meta.attr.compatible_brands.markup">qt  </property>
  <property name="meta.attr.encoder.markup">Lavf58.76.100</property>
  <property name="meta.attr.comment.markup">Rendered with Manim Community v0.12.0</property>
  <property name="meta.media.sample_aspect_num">1</property>
  <property name="meta.media.sample_aspect_den">1</property>
  <property name="meta.media.frame_rate_num">60</property>
  <property name="meta.media.frame_rate_den">1</property>
  <property name="meta.media.colorspace">601</property>
  <property name="meta.media.color_trc">2</property>
  <property name="meta.media.has_b_frames">0</property>
  <property name="meta.media.width">640</property>
  <property name="meta.media.height">360</property>
  <property name="meta.media.color_range">mpeg</property>
  <property name="set.test_audio">1</property>
  <property name="set.test_image">0</property>
 </producer>
 <producer id="producer429" in="00:00:00.000" out="00:00:00.983">
  <property name="length">60</property>
  <property name="eof">pause</property>
  <property name="resource">/home/xiaoxiae/.cache/kdenlive/proxy/60078da3ef92f4ad4d58f300ac783544.mov</property>
  <property name="audio_index">-1</property>
  <property name="video_index">0</property>
  <property name="mute_on_pause">0</property>
  <property name="mlt_service">avformat-novalidate</property>
  <property name="seekable">1</property>
  <property name="aspect_ratio">1</property>
  <property name="kdenlive:clipname">7.mp4</property>
  <property name="kdenlive:folderid">171</property>
  <property name="kdenlive:id">195</property>
  <property name="kdenlive:file_size">33080</property>
  <property name="kdenlive:proxy">/home/xiaoxiae/.cache/kdenlive/proxy/60078da3ef92f4ad4d58f300ac783544.mov</property>
  <property name="kdenlive:originalurl">video/Motivation/vid/7.mp4</property>
  <property name="kdenlive:original.mlt_type">producer</property>
  <property name="kdenlive:original.in">0</property>
  <property name="kdenlive:original.out">59</property>
  <property name="kdenlive:original.length">60</property>
  <property name="kdenlive:original.eof">pause</property>
  <property name="kdenlive:original.resource">video/Motivation/vid/7.mp4</property>
  <property name="kdenlive:original.meta.media.nb_streams">1</property>
  <property name="kdenlive:original.meta.media.0.stream.type">video</property>
  <property name="kdenlive:original.meta.media.0.stream.frame_rate">60</property>
  <property name="kdenlive:original.meta.media.0.stream.sample_aspect_ratio">0</property>
  <property name="kdenlive:original.meta.media.0.codec.width">3840</property>
  <property name="kdenlive:original.meta.media.0.codec.height">2160</property>
  <property name="kdenlive:original.meta.media.0.codec.rotate">0</property>
  <property name="kdenlive:original.meta.media.0.codec.pix_fmt">yuv420p</property>
  <property name="kdenlive:original.meta.media.0.codec.sample_aspect_ratio">0</property>
  <property name="kdenlive:original.meta.media.0.codec.colorspace">709</property>
  <property name="kdenlive:original.meta.media.0.codec.name">h264</property>
  <property name="kdenlive:original.meta.media.0.codec.long_name">H.264 / AVC / MPEG-4 AVC / MPEG-4 part 10</property>
  <property name="kdenlive:original.meta.media.0.codec.bit_rate">251520</property>
  <property name="kdenlive:original.meta.attr.0.stream.handler_name.markup">VideoHandler</property>
  <property name="kdenlive:original.meta.attr.0.stream.vendor_id.markup">[0][0][0][0]</property>
  <property name="kdenlive:original.meta.attr.major_brand.markup">isom</property>
  <property name="kdenlive:original.meta.attr.minor_version.markup">512</property>
  <property name="kdenlive:original.meta.attr.compatible_brands.markup">isomiso2avc1mp41</property>
  <property name="kdenlive:original.meta.attr.encoder.markup">Lavf58.76.100</property>
  <property name="kdenlive:original.meta.attr.comment.markup">Rendered with Manim Community v0.12.0</property>
  <property name="kdenlive:original.seekable">1</property>
  <property name="kdenlive:original.width">3840</property>
  <property name="kdenlive:original.height">2160</property>
  <property name="kdenlive:original.meta.media.sample_aspect_num">1</property>
  <property name="kdenlive:original.meta.media.sample_aspect_den">1</property>
  <property name="kdenlive:original.aspect_ratio">1</property>
  <property name="kdenlive:original.audio_index">-1</property>
  <property name="kdenlive:original.video_index">0</property>
  <property name="kdenlive:original.mute_on_pause">0</property>
  <property name="kdenlive:original.mlt_service">avformat-novalidate</property>
  <property name="kdenlive:original.kdenlive:folderid">171</property>
  <property name="kdenlive:original.meta.media.frame_rate_num">60</property>
  <property name="kdenlive:original.meta.media.frame_rate_den">1</property>
  <property name="kdenlive:original.meta.media.colorspace">709</property>
  <property name="kdenlive:original.meta.media.color_trc">2</property>
  <property name="kdenlive:original.meta.media.has_b_frames">2</property>
  <property name="kdenlive:original.meta.media.width">3840</property>
  <property name="kdenlive:original.meta.media.height">2160</property>
  <property name="kdenlive:original.meta.media.color_range">mpeg</property>
  <property name="kdenlive:original.kdenlive:id">196</property>
  <property name="kdenlive:original.kdenlive:file_size">33080</property>
  <property name="kdenlive:original.kdenlive:file_hash">60078da3ef92f4ad4d58f300ac783544</property>
  <property name="kdenlive:original.backup">1</property>
  <property name="kdenlive:file_hash">60078da3ef92f4ad4d58f300ac783544</property>
  <property name="xml">was here</property>
  <property name="meta.media.nb_streams">1</property>
  <property name="meta.media.0.stream.type">video</property>
  <property name="meta.media.0.stream.frame_rate">60</property>
  <property name="meta.media.0.stream.sample_aspect_ratio">0</property>
  <property name="meta.media.0.codec.width">640</property>
  <property name="meta.media.0.codec.height">360</property>
  <property name="meta.media.0.codec.rotate">0</property>
  <property name="meta.media.0.codec.pix_fmt">yuv420p</property>
  <property name="meta.media.0.codec.sample_aspect_ratio">0</property>
  <property name="meta.media.0.codec.colorspace">601</property>
  <property name="meta.media.0.codec.name">h264</property>
  <property name="meta.media.0.codec.long_name">H.264 / AVC / MPEG-4 AVC / MPEG-4 part 10</property>
  <property name="meta.media.0.codec.bit_rate">233256</property>
  <property name="meta.attr.0.stream.handler_name.markup">VideoHandler</property>
  <property name="meta.attr.0.stream.vendor_id.markup">FFMP</property>
  <property name="meta.attr.0.stream.encoder.markup">Lavc58.134.100 libx264</property>
  <property name="meta.attr.major_brand.markup">qt  </property>
  <property name="meta.attr.minor_version.markup">512</property>
  <property name="meta.attr.compatible_brands.markup">qt  </property>
  <property name="meta.attr.encoder.markup">Lavf58.76.100</property>
  <property name="meta.attr.comment.markup">Rendered with Manim Community v0.12.0</property>
  <property name="meta.media.sample_aspect_num">1</property>
  <property name="meta.media.sample_aspect_den">1</property>
  <property name="meta.media.frame_rate_num">60</property>
  <property name="meta.media.frame_rate_den">1</property>
  <property name="meta.media.colorspace">601</property>
  <property name="meta.media.color_trc">2</property>
  <property name="meta.media.has_b_frames">0</property>
  <property name="meta.media.width">640</property>
  <property name="meta.media.height">360</property>
  <property name="meta.media.color_range">mpeg</property>
  <property name="set.test_audio">1</property>
  <property name="set.test_image">0</property>
 </producer>
 <producer id="producer430" in="00:00:00.000" out="00:00:00.983">
  <property name="length">60</property>
  <property name="eof">pause</property>
  <property name="resource">/home/xiaoxiae/.cache/kdenlive/proxy/3f52b419969a33d7a2d4c2ffd304eafe.mov</property>
  <property name="audio_index">-1</property>
  <property name="video_index">0</property>
  <property name="mute_on_pause">0</property>
  <property name="mlt_service">avformat-novalidate</property>
  <property name="seekable">1</property>
  <property name="aspect_ratio">1</property>
  <property name="kdenlive:clipname">8.mp4</property>
  <property name="kdenlive:folderid">171</property>
  <property name="kdenlive:id">196</property>
  <property name="kdenlive:file_size">30539</property>
  <property name="kdenlive:proxy">/home/xiaoxiae/.cache/kdenlive/proxy/3f52b419969a33d7a2d4c2ffd304eafe.mov</property>
  <property name="kdenlive:originalurl">video/Motivation/vid/8.mp4</property>
  <property name="kdenlive:original.mlt_type">producer</property>
  <property name="kdenlive:original.in">0</property>
  <property name="kdenlive:original.out">59</property>
  <property name="kdenlive:original.length">60</property>
  <property name="kdenlive:original.eof">pause</property>
  <property name="kdenlive:original.resource">video/Motivation/vid/8.mp4</property>
  <property name="kdenlive:original.meta.media.nb_streams">1</property>
  <property name="kdenlive:original.meta.media.0.stream.type">video</property>
  <property name="kdenlive:original.meta.media.0.stream.frame_rate">60</property>
  <property name="kdenlive:original.meta.media.0.stream.sample_aspect_ratio">0</property>
  <property name="kdenlive:original.meta.media.0.codec.width">3840</property>
  <property name="kdenlive:original.meta.media.0.codec.height">2160</property>
  <property name="kdenlive:original.meta.media.0.codec.rotate">0</property>
  <property name="kdenlive:original.meta.media.0.codec.pix_fmt">yuv420p</property>
  <property name="kdenlive:original.meta.media.0.codec.sample_aspect_ratio">0</property>
  <property name="kdenlive:original.meta.media.0.codec.colorspace">709</property>
  <property name="kdenlive:original.meta.media.0.codec.name">h264</property>
  <property name="kdenlive:original.meta.media.0.codec.long_name">H.264 / AVC / MPEG-4 AVC / MPEG-4 part 10</property>
  <property name="kdenlive:original.meta.media.0.codec.bit_rate">231256</property>
  <property name="kdenlive:original.meta.attr.0.stream.handler_name.markup">VideoHandler</property>
  <property name="kdenlive:original.meta.attr.0.stream.vendor_id.markup">[0][0][0][0]</property>
  <property name="kdenlive:original.meta.attr.major_brand.markup">isom</property>
  <property name="kdenlive:original.meta.attr.minor_version.markup">512</property>
  <property name="kdenlive:original.meta.attr.compatible_brands.markup">isomiso2avc1mp41</property>
  <property name="kdenlive:original.meta.attr.encoder.markup">Lavf58.76.100</property>
  <property name="kdenlive:original.meta.attr.comment.markup">Rendered with Manim Community v0.12.0</property>
  <property name="kdenlive:original.seekable">1</property>
  <property name="kdenlive:original.width">3840</property>
  <property name="kdenlive:original.height">2160</property>
  <property name="kdenlive:original.meta.media.sample_aspect_num">1</property>
  <property name="kdenlive:original.meta.media.sample_aspect_den">1</property>
  <property name="kdenlive:original.aspect_ratio">1</property>
  <property name="kdenlive:original.audio_index">-1</property>
  <property name="kdenlive:original.video_index">0</property>
  <property name="kdenlive:original.mute_on_pause">0</property>
  <property name="kdenlive:original.mlt_service">avformat-novalidate</property>
  <property name="kdenlive:original.kdenlive:folderid">171</property>
  <property name="kdenlive:original.meta.media.frame_rate_num">60</property>
  <property name="kdenlive:original.meta.media.frame_rate_den">1</property>
  <property name="kdenlive:original.meta.media.colorspace">709</property>
  <property name="kdenlive:original.meta.media.color_trc">2</property>
  <property name="kdenlive:original.meta.media.has_b_frames">2</property>
  <property name="kdenlive:original.meta.media.width">3840</property>
  <property name="kdenlive:original.meta.media.height">2160</property>
  <property name="kdenlive:original.meta.media.color_range">mpeg</property>
  <property name="kdenlive:original.kdenlive:id">197</property>
  <property name="kdenlive:original.kdenlive:file_size">30539</property>
  <property name="kdenlive:original.kdenlive:file_hash">3f52b419969a33d7a2d4c2ffd304eafe</property>
  <property name="kdenlive:original.backup">1</property>
  <property name="kdenlive:file_hash">3f52b419969a33d7a2d4c2ffd304eafe</property>
  <property name="xml">was here</property>
  <property name="meta.media.nb_streams">1</property>
  <property name="meta.media.0.stream.type">video</property>
  <property name="meta.media.0.stream.frame_rate">60</property>
  <property name="meta.media.0.stream.sample_aspect_ratio">0</property>
  <property name="meta.media.0.codec.width">640</property>
  <property name="meta.media.0.codec.height">360</property>
  <property name="meta.media.0.codec.rotate">0</property>
  <property name="meta.media.0.codec.pix_fmt">yuv420p</property>
  <property name="meta.media.0.codec.sample_aspect_ratio">0</property>
  <property name="meta.media.0.codec.colorspace">601</property>
  <property name="meta.media.0.codec.name">h264</property>
  <property name="meta.media.0.codec.long_name">H.264 / AVC / MPEG-4 AVC / MPEG-4 part 10</property>
  <property name="meta.media.0.codec.bit_rate">337872</property>
  <property name="meta.attr.0.stream.handler_name.markup">VideoHandler</property>
  <property name="meta.attr.0.stream.vendor_id.markup">FFMP</property>
  <property name="meta.attr.0.stream.encoder.markup">Lavc58.134.100 libx264</property>
  <property name="meta.attr.major_brand.markup">qt  </property>
  <property name="meta.attr.minor_version.markup">512</property>
  <property name="meta.attr.compatible_brands.markup">qt  </property>
  <property name="meta.attr.encoder.markup">Lavf58.76.100</property>
  <property name="meta.attr.comment.markup">Rendered with Manim Community v0.12.0</property>
  <property name="meta.media.sample_aspect_num">1</property>
  <property name="meta.media.sample_aspect_den">1</property>
  <property name="meta.media.frame_rate_num">60</property>
  <property name="meta.media.frame_rate_den">1</property>
  <property name="meta.media.colorspace">601</property>
  <property name="meta.media.color_trc">2</property>
  <property name="meta.media.has_b_frames">0</property>
  <property name="meta.media.width">640</property>
  <property name="meta.media.height">360</property>
  <property name="meta.media.color_range">mpeg</property>
  <property name="set.test_audio">1</property>
  <property name="set.test_image">0</property>
  <property name="meta.media.top_field_first">0</property>
  <property name="meta.media.progressive">1</property>
 </producer>
 <producer id="producer431" in="00:00:00.000" out="00:00:01.250">
  <property name="length">76</property>
  <property name="eof">pause</property>
  <property name="resource">/home/xiaoxiae/.cache/kdenlive/proxy/d89b6ef67d634b9bf7fd40dd3d76c24b.mov</property>
  <property name="audio_index">-1</property>
  <property name="video_index">0</property>
  <property name="mute_on_pause">0</property>
  <property name="mlt_service">avformat-novalidate</property>
  <property name="seekable">1</property>
  <property name="aspect_ratio">1</property>
  <property name="kdenlive:clipname">9.mp4</property>
  <property name="kdenlive:folderid">171</property>
  <property name="kdenlive:id">197</property>
  <property name="kdenlive:file_size">49922</property>
  <property name="kdenlive:proxy">/home/xiaoxiae/.cache/kdenlive/proxy/d89b6ef67d634b9bf7fd40dd3d76c24b.mov</property>
  <property name="kdenlive:originalurl">video/Motivation/vid/9.mp4</property>
  <property name="kdenlive:original.mlt_type">producer</property>
  <property name="kdenlive:original.in">0</property>
  <property name="kdenlive:original.out">75</property>
  <property name="kdenlive:original.length">76</property>
  <property name="kdenlive:original.eof">pause</property>
  <property name="kdenlive:original.resource">video/Motivation/vid/9.mp4</property>
  <property name="kdenlive:original.meta.media.nb_streams">1</property>
  <property name="kdenlive:original.meta.media.0.stream.type">video</property>
  <property name="kdenlive:original.meta.media.0.stream.frame_rate">60</property>
  <property name="kdenlive:original.meta.media.0.stream.sample_aspect_ratio">0</property>
  <property name="kdenlive:original.meta.media.0.codec.width">3840</property>
  <property name="kdenlive:original.meta.media.0.codec.height">2160</property>
  <property name="kdenlive:original.meta.media.0.codec.rotate">0</property>
  <property name="kdenlive:original.meta.media.0.codec.pix_fmt">yuv420p</property>
  <property name="kdenlive:original.meta.media.0.codec.sample_aspect_ratio">0</property>
  <property name="kdenlive:original.meta.media.0.codec.colorspace">709</property>
  <property name="kdenlive:original.meta.media.0.codec.name">h264</property>
  <property name="kdenlive:original.meta.media.0.codec.long_name">H.264 / AVC / MPEG-4 AVC / MPEG-4 part 10</property>
  <property name="kdenlive:original.meta.media.0.codec.bit_rate">303978</property>
  <property name="kdenlive:original.meta.attr.0.stream.handler_name.markup">VideoHandler</property>
  <property name="kdenlive:original.meta.attr.0.stream.vendor_id.markup">[0][0][0][0]</property>
  <property name="kdenlive:original.meta.attr.major_brand.markup">isom</property>
  <property name="kdenlive:original.meta.attr.minor_version.markup">512</property>
  <property name="kdenlive:original.meta.attr.compatible_brands.markup">isomiso2avc1mp41</property>
  <property name="kdenlive:original.meta.attr.encoder.markup">Lavf58.76.100</property>
  <property name="kdenlive:original.meta.attr.comment.markup">Rendered with Manim Community v0.12.0</property>
  <property name="kdenlive:original.seekable">1</property>
  <property name="kdenlive:original.width">3840</property>
  <property name="kdenlive:original.height">2160</property>
  <property name="kdenlive:original.meta.media.sample_aspect_num">1</property>
  <property name="kdenlive:original.meta.media.sample_aspect_den">1</property>
  <property name="kdenlive:original.aspect_ratio">1</property>
  <property name="kdenlive:original.audio_index">-1</property>
  <property name="kdenlive:original.video_index">0</property>
  <property name="kdenlive:original.mute_on_pause">0</property>
  <property name="kdenlive:original.mlt_service">avformat-novalidate</property>
  <property name="kdenlive:original.kdenlive:folderid">171</property>
  <property name="kdenlive:original.meta.media.frame_rate_num">60</property>
  <property name="kdenlive:original.meta.media.frame_rate_den">1</property>
  <property name="kdenlive:original.meta.media.colorspace">709</property>
  <property name="kdenlive:original.meta.media.color_trc">2</property>
  <property name="kdenlive:original.meta.media.has_b_frames">2</property>
  <property name="kdenlive:original.meta.media.width">3840</property>
  <property name="kdenlive:original.meta.media.height">2160</property>
  <property name="kdenlive:original.meta.media.color_range">mpeg</property>
  <property name="kdenlive:original.kdenlive:id">198</property>
  <property name="kdenlive:original.kdenlive:file_size">49922</property>
  <property name="kdenlive:original.kdenlive:file_hash">d89b6ef67d634b9bf7fd40dd3d76c24b</property>
  <property name="kdenlive:original.backup">1</property>
  <property name="kdenlive:file_hash">d89b6ef67d634b9bf7fd40dd3d76c24b</property>
  <property name="xml">was here</property>
  <property name="meta.media.nb_streams">1</property>
  <property name="meta.media.0.stream.type">video</property>
  <property name="meta.media.0.stream.frame_rate">60</property>
  <property name="meta.media.0.stream.sample_aspect_ratio">0</property>
  <property name="meta.media.0.codec.width">640</property>
  <property name="meta.media.0.codec.height">360</property>
  <property name="meta.media.0.codec.rotate">0</property>
  <property name="meta.media.0.codec.pix_fmt">yuv420p</property>
  <property name="meta.media.0.codec.sample_aspect_ratio">0</property>
  <property name="meta.media.0.codec.colorspace">601</property>
  <property name="meta.media.0.codec.name">h264</property>
  <property name="meta.media.0.codec.long_name">H.264 / AVC / MPEG-4 AVC / MPEG-4 part 10</property>
  <property name="meta.media.0.codec.bit_rate">684511</property>
  <property name="meta.attr.0.stream.handler_name.markup">VideoHandler</property>
  <property name="meta.attr.0.stream.vendor_id.markup">FFMP</property>
  <property name="meta.attr.0.stream.encoder.markup">Lavc58.134.100 libx264</property>
  <property name="meta.attr.major_brand.markup">qt  </property>
  <property name="meta.attr.minor_version.markup">512</property>
  <property name="meta.attr.compatible_brands.markup">qt  </property>
  <property name="meta.attr.encoder.markup">Lavf58.76.100</property>
  <property name="meta.attr.comment.markup">Rendered with Manim Community v0.12.0</property>
  <property name="meta.media.sample_aspect_num">1</property>
  <property name="meta.media.sample_aspect_den">1</property>
  <property name="meta.media.frame_rate_num">60</property>
  <property name="meta.media.frame_rate_den">1</property>
  <property name="meta.media.colorspace">601</property>
  <property name="meta.media.color_trc">2</property>
  <property name="meta.media.has_b_frames">0</property>
  <property name="meta.media.width">640</property>
  <property name="meta.media.height">360</property>
  <property name="meta.media.color_range">mpeg</property>
  <property name="set.test_audio">1</property>
  <property name="set.test_image">0</property>
  <property name="meta.media.top_field_first">0</property>
  <property name="meta.media.progressive">1</property>
 </producer>
 <producer id="producer432" in="00:00:00.000" out="00:00:01.483">
  <property name="length">90</property>
  <property name="eof">pause</property>
  <property name="resource">/home/xiaoxiae/.cache/kdenlive/proxy/f76b9be57c8ebca18b5c665fd86f3b34.mov</property>
  <property name="audio_index">-1</property>
  <property name="video_index">0</property>
  <property name="mute_on_pause">0</property>
  <property name="mlt_service">avformat-novalidate</property>
  <property name="seekable">1</property>
  <property name="aspect_ratio">1</property>
  <property name="kdenlive:clipname">10.mp4</property>
  <property name="kdenlive:folderid">171</property>
  <property name="kdenlive:id">172</property>
  <property name="kdenlive:file_size">203098</property>
  <property name="kdenlive:proxy">/home/xiaoxiae/.cache/kdenlive/proxy/f76b9be57c8ebca18b5c665fd86f3b34.mov</property>
  <property name="kdenlive:originalurl">video/Motivation/vid/10.mp4</property>
  <property name="kdenlive:original.mlt_type">producer</property>
  <property name="kdenlive:original.in">0</property>
  <property name="kdenlive:original.out">89</property>
  <property name="kdenlive:original.length">90</property>
  <property name="kdenlive:original.eof">pause</property>
  <property name="kdenlive:original.resource">video/Motivation/vid/10.mp4</property>
  <property name="kdenlive:original.meta.media.nb_streams">1</property>
  <property name="kdenlive:original.meta.media.0.stream.type">video</property>
  <property name="kdenlive:original.meta.media.0.stream.frame_rate">60</property>
  <property name="kdenlive:original.meta.media.0.stream.sample_aspect_ratio">0</property>
  <property name="kdenlive:original.meta.media.0.codec.width">3840</property>
  <property name="kdenlive:original.meta.media.0.codec.height">2160</property>
  <property name="kdenlive:original.meta.media.0.codec.rotate">0</property>
  <property name="kdenlive:original.meta.media.0.codec.pix_fmt">yuv420p</property>
  <property name="kdenlive:original.meta.media.0.codec.sample_aspect_ratio">0</property>
  <property name="kdenlive:original.meta.media.0.codec.colorspace">709</property>
  <property name="kdenlive:original.meta.media.0.codec.name">h264</property>
  <property name="kdenlive:original.meta.media.0.codec.long_name">H.264 / AVC / MPEG-4 AVC / MPEG-4 part 10</property>
  <property name="kdenlive:original.meta.media.0.codec.bit_rate">1075637</property>
  <property name="kdenlive:original.meta.attr.0.stream.handler_name.markup">VideoHandler</property>
  <property name="kdenlive:original.meta.attr.0.stream.vendor_id.markup">[0][0][0][0]</property>
  <property name="kdenlive:original.meta.attr.major_brand.markup">isom</property>
  <property name="kdenlive:original.meta.attr.minor_version.markup">512</property>
  <property name="kdenlive:original.meta.attr.compatible_brands.markup">isomiso2avc1mp41</property>
  <property name="kdenlive:original.meta.attr.encoder.markup">Lavf58.76.100</property>
  <property name="kdenlive:original.meta.attr.comment.markup">Rendered with Manim Community v0.12.0</property>
  <property name="kdenlive:original.seekable">1</property>
  <property name="kdenlive:original.width">3840</property>
  <property name="kdenlive:original.height">2160</property>
  <property name="kdenlive:original.meta.media.sample_aspect_num">1</property>
  <property name="kdenlive:original.meta.media.sample_aspect_den">1</property>
  <property name="kdenlive:original.aspect_ratio">1</property>
  <property name="kdenlive:original.audio_index">-1</property>
  <property name="kdenlive:original.video_index">0</property>
  <property name="kdenlive:original.mute_on_pause">0</property>
  <property name="kdenlive:original.mlt_service">avformat-novalidate</property>
  <property name="kdenlive:original.kdenlive:folderid">171</property>
  <property name="kdenlive:original.meta.media.frame_rate_num">60</property>
  <property name="kdenlive:original.meta.media.frame_rate_den">1</property>
  <property name="kdenlive:original.meta.media.colorspace">709</property>
  <property name="kdenlive:original.meta.media.color_trc">2</property>
  <property name="kdenlive:original.meta.media.has_b_frames">2</property>
  <property name="kdenlive:original.meta.media.width">3840</property>
  <property name="kdenlive:original.meta.media.height">2160</property>
  <property name="kdenlive:original.meta.media.color_range">mpeg</property>
  <property name="kdenlive:original.kdenlive:id">173</property>
  <property name="kdenlive:original.kdenlive:file_size">203098</property>
  <property name="kdenlive:original.kdenlive:file_hash">f76b9be57c8ebca18b5c665fd86f3b34</property>
  <property name="kdenlive:original.backup">1</property>
  <property name="kdenlive:file_hash">f76b9be57c8ebca18b5c665fd86f3b34</property>
  <property name="xml">was here</property>
  <property name="meta.media.nb_streams">1</property>
  <property name="meta.media.0.stream.type">video</property>
  <property name="meta.media.0.stream.frame_rate">60</property>
  <property name="meta.media.0.stream.sample_aspect_ratio">0</property>
  <property name="meta.media.0.codec.width">640</property>
  <property name="meta.media.0.codec.height">360</property>
  <property name="meta.media.0.codec.rotate">0</property>
  <property name="meta.media.0.codec.pix_fmt">yuv420p</property>
  <property name="meta.media.0.codec.sample_aspect_ratio">0</property>
  <property name="meta.media.0.codec.colorspace">601</property>
  <property name="meta.media.0.codec.name">h264</property>
  <property name="meta.media.0.codec.long_name">H.264 / AVC / MPEG-4 AVC / MPEG-4 part 10</property>
  <property name="meta.media.0.codec.bit_rate">634224</property>
  <property name="meta.attr.0.stream.handler_name.markup">VideoHandler</property>
  <property name="meta.attr.0.stream.vendor_id.markup">FFMP</property>
  <property name="meta.attr.0.stream.encoder.markup">Lavc58.134.100 libx264</property>
  <property name="meta.attr.major_brand.markup">qt  </property>
  <property name="meta.attr.minor_version.markup">512</property>
  <property name="meta.attr.compatible_brands.markup">qt  </property>
  <property name="meta.attr.encoder.markup">Lavf58.76.100</property>
  <property name="meta.attr.comment.markup">Rendered with Manim Community v0.12.0</property>
  <property name="meta.media.sample_aspect_num">1</property>
  <property name="meta.media.sample_aspect_den">1</property>
  <property name="meta.media.frame_rate_num">60</property>
  <property name="meta.media.frame_rate_den">1</property>
  <property name="meta.media.colorspace">601</property>
  <property name="meta.media.color_trc">2</property>
  <property name="meta.media.has_b_frames">0</property>
  <property name="meta.media.width">640</property>
  <property name="meta.media.height">360</property>
  <property name="meta.media.color_range">mpeg</property>
  <property name="set.test_audio">1</property>
  <property name="set.test_image">0</property>
 </producer>
 <producer id="producer433" in="00:00:00.000" out="00:00:00.983">
  <property name="length">60</property>
  <property name="eof">pause</property>
  <property name="resource">/home/xiaoxiae/.cache/kdenlive/proxy/5876452c8b31a5e3ce490801764dfb4d.mov</property>
  <property name="audio_index">-1</property>
  <property name="video_index">0</property>
  <property name="mute_on_pause">0</property>
  <property name="mlt_service">avformat-novalidate</property>
  <property name="seekable">1</property>
  <property name="aspect_ratio">1</property>
  <property name="kdenlive:clipname">11.mp4</property>
  <property name="kdenlive:folderid">171</property>
  <property name="kdenlive:id">173</property>
  <property name="kdenlive:file_size">52776</property>
  <property name="kdenlive:proxy">/home/xiaoxiae/.cache/kdenlive/proxy/5876452c8b31a5e3ce490801764dfb4d.mov</property>
  <property name="kdenlive:originalurl">video/Motivation/vid/11.mp4</property>
  <property name="kdenlive:original.mlt_type">producer</property>
  <property name="kdenlive:original.in">0</property>
  <property name="kdenlive:original.out">59</property>
  <property name="kdenlive:original.length">60</property>
  <property name="kdenlive:original.eof">pause</property>
  <property name="kdenlive:original.resource">video/Motivation/vid/11.mp4</property>
  <property name="kdenlive:original.meta.media.nb_streams">1</property>
  <property name="kdenlive:original.meta.media.0.stream.type">video</property>
  <property name="kdenlive:original.meta.media.0.stream.frame_rate">60</property>
  <property name="kdenlive:original.meta.media.0.stream.sample_aspect_ratio">0</property>
  <property name="kdenlive:original.meta.media.0.codec.width">3840</property>
  <property name="kdenlive:original.meta.media.0.codec.height">2160</property>
  <property name="kdenlive:original.meta.media.0.codec.rotate">0</property>
  <property name="kdenlive:original.meta.media.0.codec.pix_fmt">yuv420p</property>
  <property name="kdenlive:original.meta.media.0.codec.sample_aspect_ratio">0</property>
  <property name="kdenlive:original.meta.media.0.codec.colorspace">709</property>
  <property name="kdenlive:original.meta.media.0.codec.name">h264</property>
  <property name="kdenlive:original.meta.media.0.codec.long_name">H.264 / AVC / MPEG-4 AVC / MPEG-4 part 10</property>
  <property name="kdenlive:original.meta.media.0.codec.bit_rate">409088</property>
  <property name="kdenlive:original.meta.attr.0.stream.handler_name.markup">VideoHandler</property>
  <property name="kdenlive:original.meta.attr.0.stream.vendor_id.markup">[0][0][0][0]</property>
  <property name="kdenlive:original.meta.attr.major_brand.markup">isom</property>
  <property name="kdenlive:original.meta.attr.minor_version.markup">512</property>
  <property name="kdenlive:original.meta.attr.compatible_brands.markup">isomiso2avc1mp41</property>
  <property name="kdenlive:original.meta.attr.encoder.markup">Lavf58.76.100</property>
  <property name="kdenlive:original.meta.attr.comment.markup">Rendered with Manim Community v0.12.0</property>
  <property name="kdenlive:original.seekable">1</property>
  <property name="kdenlive:original.width">3840</property>
  <property name="kdenlive:original.height">2160</property>
  <property name="kdenlive:original.meta.media.sample_aspect_num">1</property>
  <property name="kdenlive:original.meta.media.sample_aspect_den">1</property>
  <property name="kdenlive:original.aspect_ratio">1</property>
  <property name="kdenlive:original.audio_index">-1</property>
  <property name="kdenlive:original.video_index">0</property>
  <property name="kdenlive:original.mute_on_pause">0</property>
  <property name="kdenlive:original.mlt_service">avformat-novalidate</property>
  <property name="kdenlive:original.kdenlive:folderid">171</property>
  <property name="kdenlive:original.meta.media.frame_rate_num">60</property>
  <property name="kdenlive:original.meta.media.frame_rate_den">1</property>
  <property name="kdenlive:original.meta.media.colorspace">709</property>
  <property name="kdenlive:original.meta.media.color_trc">2</property>
  <property name="kdenlive:original.meta.media.has_b_frames">2</property>
  <property name="kdenlive:original.meta.media.width">3840</property>
  <property name="kdenlive:original.meta.media.height">2160</property>
  <property name="kdenlive:original.meta.media.color_range">mpeg</property>
  <property name="kdenlive:original.kdenlive:id">174</property>
  <property name="kdenlive:original.kdenlive:file_size">52776</property>
  <property name="kdenlive:original.kdenlive:file_hash">5876452c8b31a5e3ce490801764dfb4d</property>
  <property name="kdenlive:original.backup">1</property>
  <property name="kdenlive:file_hash">5876452c8b31a5e3ce490801764dfb4d</property>
  <property name="xml">was here</property>
  <property name="meta.media.nb_streams">1</property>
  <property name="meta.media.0.stream.type">video</property>
  <property name="meta.media.0.stream.frame_rate">60</property>
  <property name="meta.media.0.stream.sample_aspect_ratio">0</property>
  <property name="meta.media.0.codec.width">640</property>
  <property name="meta.media.0.codec.height">360</property>
  <property name="meta.media.0.codec.rotate">0</property>
  <property name="meta.media.0.codec.pix_fmt">yuv420p</property>
  <property name="meta.media.0.codec.sample_aspect_ratio">0</property>
  <property name="meta.media.0.codec.colorspace">601</property>
  <property name="meta.media.0.codec.name">h264</property>
  <property name="meta.media.0.codec.long_name">H.264 / AVC / MPEG-4 AVC / MPEG-4 part 10</property>
  <property name="meta.media.0.codec.bit_rate">740160</property>
  <property name="meta.attr.0.stream.handler_name.markup">VideoHandler</property>
  <property name="meta.attr.0.stream.vendor_id.markup">FFMP</property>
  <property name="meta.attr.0.stream.encoder.markup">Lavc58.134.100 libx264</property>
  <property name="meta.attr.major_brand.markup">qt  </property>
  <property name="meta.attr.minor_version.markup">512</property>
  <property name="meta.attr.compatible_brands.markup">qt  </property>
  <property name="meta.attr.encoder.markup">Lavf58.76.100</property>
  <property name="meta.attr.comment.markup">Rendered with Manim Community v0.12.0</property>
  <property name="meta.media.sample_aspect_num">1</property>
  <property name="meta.media.sample_aspect_den">1</property>
  <property name="meta.media.frame_rate_num">60</property>
  <property name="meta.media.frame_rate_den">1</property>
  <property name="meta.media.colorspace">601</property>
  <property name="meta.media.color_trc">2</property>
  <property name="meta.media.has_b_frames">0</property>
  <property name="meta.media.width">640</property>
  <property name="meta.media.height">360</property>
  <property name="meta.media.color_range">mpeg</property>
  <property name="set.test_audio">1</property>
  <property name="set.test_image">0</property>
 </producer>
 <producer id="producer434" in="00:00:00.000" out="00:00:00.983">
  <property name="length">60</property>
  <property name="eof">pause</property>
  <property name="resource">/home/xiaoxiae/.cache/kdenlive/proxy/ee1b8c9648f979bd6b9b77000ef4c7a5.mov</property>
  <property name="audio_index">-1</property>
  <property name="video_index">0</property>
  <property name="mute_on_pause">0</property>
  <property name="mlt_service">avformat-novalidate</property>
  <property name="seekable">1</property>
  <property name="aspect_ratio">1</property>
  <property name="kdenlive:clipname">12.mp4</property>
  <property name="kdenlive:folderid">171</property>
  <property name="kdenlive:id">174</property>
  <property name="kdenlive:file_size">141056</property>
  <property name="kdenlive:proxy">/home/xiaoxiae/.cache/kdenlive/proxy/ee1b8c9648f979bd6b9b77000ef4c7a5.mov</property>
  <property name="kdenlive:originalurl">video/Motivation/vid/12.mp4</property>
  <property name="kdenlive:original.mlt_type">producer</property>
  <property name="kdenlive:original.in">0</property>
  <property name="kdenlive:original.out">59</property>
  <property name="kdenlive:original.length">60</property>
  <property name="kdenlive:original.eof">pause</property>
  <property name="kdenlive:original.resource">video/Motivation/vid/12.mp4</property>
  <property name="kdenlive:original.meta.media.nb_streams">1</property>
  <property name="kdenlive:original.meta.media.0.stream.type">video</property>
  <property name="kdenlive:original.meta.media.0.stream.frame_rate">60</property>
  <property name="kdenlive:original.meta.media.0.stream.sample_aspect_ratio">0</property>
  <property name="kdenlive:original.meta.media.0.codec.width">3840</property>
  <property name="kdenlive:original.meta.media.0.codec.height">2160</property>
  <property name="kdenlive:original.meta.media.0.codec.rotate">0</property>
  <property name="kdenlive:original.meta.media.0.codec.pix_fmt">yuv420p</property>
  <property name="kdenlive:original.meta.media.0.codec.sample_aspect_ratio">0</property>
  <property name="kdenlive:original.meta.media.0.codec.colorspace">709</property>
  <property name="kdenlive:original.meta.media.0.codec.name">h264</property>
  <property name="kdenlive:original.meta.media.0.codec.long_name">H.264 / AVC / MPEG-4 AVC / MPEG-4 part 10</property>
  <property name="kdenlive:original.meta.media.0.codec.bit_rate">1115840</property>
  <property name="kdenlive:original.meta.attr.0.stream.handler_name.markup">VideoHandler</property>
  <property name="kdenlive:original.meta.attr.0.stream.vendor_id.markup">[0][0][0][0]</property>
  <property name="kdenlive:original.meta.attr.major_brand.markup">isom</property>
  <property name="kdenlive:original.meta.attr.minor_version.markup">512</property>
  <property name="kdenlive:original.meta.attr.compatible_brands.markup">isomiso2avc1mp41</property>
  <property name="kdenlive:original.meta.attr.encoder.markup">Lavf58.76.100</property>
  <property name="kdenlive:original.meta.attr.comment.markup">Rendered with Manim Community v0.12.0</property>
  <property name="kdenlive:original.seekable">1</property>
  <property name="kdenlive:original.width">3840</property>
  <property name="kdenlive:original.height">2160</property>
  <property name="kdenlive:original.meta.media.sample_aspect_num">1</property>
  <property name="kdenlive:original.meta.media.sample_aspect_den">1</property>
  <property name="kdenlive:original.aspect_ratio">1</property>
  <property name="kdenlive:original.audio_index">-1</property>
  <property name="kdenlive:original.video_index">0</property>
  <property name="kdenlive:original.mute_on_pause">0</property>
  <property name="kdenlive:original.mlt_service">avformat-novalidate</property>
  <property name="kdenlive:original.kdenlive:folderid">171</property>
  <property name="kdenlive:original.meta.media.frame_rate_num">60</property>
  <property name="kdenlive:original.meta.media.frame_rate_den">1</property>
  <property name="kdenlive:original.meta.media.colorspace">709</property>
  <property name="kdenlive:original.meta.media.color_trc">2</property>
  <property name="kdenlive:original.meta.media.has_b_frames">2</property>
  <property name="kdenlive:original.meta.media.width">3840</property>
  <property name="kdenlive:original.meta.media.height">2160</property>
  <property name="kdenlive:original.meta.media.color_range">mpeg</property>
  <property name="kdenlive:original.kdenlive:id">175</property>
  <property name="kdenlive:original.kdenlive:file_size">141056</property>
  <property name="kdenlive:original.kdenlive:file_hash">ee1b8c9648f979bd6b9b77000ef4c7a5</property>
  <property name="kdenlive:original.backup">1</property>
  <property name="kdenlive:file_hash">ee1b8c9648f979bd6b9b77000ef4c7a5</property>
  <property name="xml">was here</property>
  <property name="meta.media.nb_streams">1</property>
  <property name="meta.media.0.stream.type">video</property>
  <property name="meta.media.0.stream.frame_rate">60</property>
  <property name="meta.media.0.stream.sample_aspect_ratio">0</property>
  <property name="meta.media.0.codec.width">640</property>
  <property name="meta.media.0.codec.height">360</property>
  <property name="meta.media.0.codec.rotate">0</property>
  <property name="meta.media.0.codec.pix_fmt">yuv420p</property>
  <property name="meta.media.0.codec.sample_aspect_ratio">0</property>
  <property name="meta.media.0.codec.colorspace">601</property>
  <property name="meta.media.0.codec.name">h264</property>
  <property name="meta.media.0.codec.long_name">H.264 / AVC / MPEG-4 AVC / MPEG-4 part 10</property>
  <property name="meta.media.0.codec.bit_rate">1053008</property>
  <property name="meta.attr.0.stream.handler_name.markup">VideoHandler</property>
  <property name="meta.attr.0.stream.vendor_id.markup">FFMP</property>
  <property name="meta.attr.0.stream.encoder.markup">Lavc58.134.100 libx264</property>
  <property name="meta.attr.major_brand.markup">qt  </property>
  <property name="meta.attr.minor_version.markup">512</property>
  <property name="meta.attr.compatible_brands.markup">qt  </property>
  <property name="meta.attr.encoder.markup">Lavf58.76.100</property>
  <property name="meta.attr.comment.markup">Rendered with Manim Community v0.12.0</property>
  <property name="meta.media.sample_aspect_num">1</property>
  <property name="meta.media.sample_aspect_den">1</property>
  <property name="meta.media.frame_rate_num">60</property>
  <property name="meta.media.frame_rate_den">1</property>
  <property name="meta.media.colorspace">601</property>
  <property name="meta.media.color_trc">2</property>
  <property name="meta.media.has_b_frames">0</property>
  <property name="meta.media.width">640</property>
  <property name="meta.media.height">360</property>
  <property name="meta.media.color_range">mpeg</property>
  <property name="set.test_audio">1</property>
  <property name="set.test_image">0</property>
  <property name="meta.media.top_field_first">0</property>
  <property name="meta.media.progressive">1</property>
 </producer>
 <producer id="producer435" in="00:00:00.000" out="00:00:01.483">
  <property name="length">90</property>
  <property name="eof">pause</property>
  <property name="resource">/home/xiaoxiae/.cache/kdenlive/proxy/dc960b036030790bb6f5397fb6cdf5b7.mov</property>
  <property name="audio_index">-1</property>
  <property name="video_index">0</property>
  <property name="mute_on_pause">0</property>
  <property name="mlt_service">avformat-novalidate</property>
  <property name="seekable">1</property>
  <property name="aspect_ratio">1</property>
  <property name="kdenlive:clipname">13.mp4</property>
  <property name="kdenlive:folderid">171</property>
  <property name="kdenlive:id">175</property>
  <property name="kdenlive:file_size">1409800</property>
  <property name="kdenlive:proxy">/home/xiaoxiae/.cache/kdenlive/proxy/dc960b036030790bb6f5397fb6cdf5b7.mov</property>
  <property name="kdenlive:originalurl">video/Motivation/vid/13.mp4</property>
  <property name="kdenlive:original.mlt_type">producer</property>
  <property name="kdenlive:original.in">0</property>
  <property name="kdenlive:original.out">89</property>
  <property name="kdenlive:original.length">90</property>
  <property name="kdenlive:original.eof">pause</property>
  <property name="kdenlive:original.resource">video/Motivation/vid/13.mp4</property>
  <property name="kdenlive:original.meta.media.nb_streams">1</property>
  <property name="kdenlive:original.meta.media.0.stream.type">video</property>
  <property name="kdenlive:original.meta.media.0.stream.frame_rate">60</property>
  <property name="kdenlive:original.meta.media.0.stream.sample_aspect_ratio">0</property>
  <property name="kdenlive:original.meta.media.0.codec.width">3840</property>
  <property name="kdenlive:original.meta.media.0.codec.height">2160</property>
  <property name="kdenlive:original.meta.media.0.codec.rotate">0</property>
  <property name="kdenlive:original.meta.media.0.codec.pix_fmt">yuv420p</property>
  <property name="kdenlive:original.meta.media.0.codec.sample_aspect_ratio">0</property>
  <property name="kdenlive:original.meta.media.0.codec.colorspace">709</property>
  <property name="kdenlive:original.meta.media.0.codec.name">h264</property>
  <property name="kdenlive:original.meta.media.0.codec.long_name">H.264 / AVC / MPEG-4 AVC / MPEG-4 part 10</property>
  <property name="kdenlive:original.meta.media.0.codec.bit_rate">7510442</property>
  <property name="kdenlive:original.meta.attr.0.stream.handler_name.markup">VideoHandler</property>
  <property name="kdenlive:original.meta.attr.0.stream.vendor_id.markup">[0][0][0][0]</property>
  <property name="kdenlive:original.meta.attr.major_brand.markup">isom</property>
  <property name="kdenlive:original.meta.attr.minor_version.markup">512</property>
  <property name="kdenlive:original.meta.attr.compatible_brands.markup">isomiso2avc1mp41</property>
  <property name="kdenlive:original.meta.attr.encoder.markup">Lavf58.76.100</property>
  <property name="kdenlive:original.meta.attr.comment.markup">Rendered with Manim Community v0.12.0</property>
  <property name="kdenlive:original.seekable">1</property>
  <property name="kdenlive:original.width">3840</property>
  <property name="kdenlive:original.height">2160</property>
  <property name="kdenlive:original.meta.media.sample_aspect_num">1</property>
  <property name="kdenlive:original.meta.media.sample_aspect_den">1</property>
  <property name="kdenlive:original.aspect_ratio">1</property>
  <property name="kdenlive:original.audio_index">-1</property>
  <property name="kdenlive:original.video_index">0</property>
  <property name="kdenlive:original.mute_on_pause">0</property>
  <property name="kdenlive:original.mlt_service">avformat-novalidate</property>
  <property name="kdenlive:original.kdenlive:folderid">171</property>
  <property name="kdenlive:original.meta.media.frame_rate_num">60</property>
  <property name="kdenlive:original.meta.media.frame_rate_den">1</property>
  <property name="kdenlive:original.meta.media.colorspace">709</property>
  <property name="kdenlive:original.meta.media.color_trc">2</property>
  <property name="kdenlive:original.meta.media.has_b_frames">2</property>
  <property name="kdenlive:original.meta.media.width">3840</property>
  <property name="kdenlive:original.meta.media.height">2160</property>
  <property name="kdenlive:original.meta.media.color_range">mpeg</property>
  <property name="kdenlive:original.kdenlive:id">176</property>
  <property name="kdenlive:original.kdenlive:file_size">1409800</property>
  <property name="kdenlive:original.kdenlive:file_hash">dc960b036030790bb6f5397fb6cdf5b7</property>
  <property name="kdenlive:original.backup">1</property>
  <property name="kdenlive:file_hash">dc960b036030790bb6f5397fb6cdf5b7</property>
  <property name="xml">was here</property>
  <property name="meta.media.nb_streams">1</property>
  <property name="meta.media.0.stream.type">video</property>
  <property name="meta.media.0.stream.frame_rate">60</property>
  <property name="meta.media.0.stream.sample_aspect_ratio">0</property>
  <property name="meta.media.0.codec.width">640</property>
  <property name="meta.media.0.codec.height">360</property>
  <property name="meta.media.0.codec.rotate">0</property>
  <property name="meta.media.0.codec.pix_fmt">yuv420p</property>
  <property name="meta.media.0.codec.sample_aspect_ratio">0</property>
  <property name="meta.media.0.codec.colorspace">601</property>
  <property name="meta.media.0.codec.name">h264</property>
  <property name="meta.media.0.codec.long_name">H.264 / AVC / MPEG-4 AVC / MPEG-4 part 10</property>
  <property name="meta.media.0.codec.bit_rate">3563792</property>
  <property name="meta.attr.0.stream.handler_name.markup">VideoHandler</property>
  <property name="meta.attr.0.stream.vendor_id.markup">FFMP</property>
  <property name="meta.attr.0.stream.encoder.markup">Lavc58.134.100 libx264</property>
  <property name="meta.attr.major_brand.markup">qt  </property>
  <property name="meta.attr.minor_version.markup">512</property>
  <property name="meta.attr.compatible_brands.markup">qt  </property>
  <property name="meta.attr.encoder.markup">Lavf58.76.100</property>
  <property name="meta.attr.comment.markup">Rendered with Manim Community v0.12.0</property>
  <property name="meta.media.sample_aspect_num">1</property>
  <property name="meta.media.sample_aspect_den">1</property>
  <property name="meta.media.frame_rate_num">60</property>
  <property name="meta.media.frame_rate_den">1</property>
  <property name="meta.media.colorspace">601</property>
  <property name="meta.media.color_trc">2</property>
  <property name="meta.media.has_b_frames">0</property>
  <property name="meta.media.width">640</property>
  <property name="meta.media.height">360</property>
  <property name="meta.media.color_range">mpeg</property>
  <property name="set.test_audio">1</property>
  <property name="set.test_image">0</property>
  <property name="meta.media.top_field_first">0</property>
  <property name="meta.media.progressive">1</property>
 </producer>
 <producer id="producer436" in="00:00:00.000" out="00:00:00.983">
  <property name="length">60</property>
  <property name="eof">pause</property>
  <property name="resource">/home/xiaoxiae/.cache/kdenlive/proxy/17c8274494ef0ceee5846ceb6dae3a34.mov</property>
  <property name="audio_index">-1</property>
  <property name="video_index">0</property>
  <property name="mute_on_pause">0</property>
  <property name="mlt_service">avformat-novalidate</property>
  <property name="seekable">1</property>
  <property name="aspect_ratio">1</property>
  <property name="kdenlive:clipname">14.mp4</property>
  <property name="kdenlive:folderid">171</property>
  <property name="kdenlive:id">176</property>
  <property name="kdenlive:file_size">233731</property>
  <property name="kdenlive:proxy">/home/xiaoxiae/.cache/kdenlive/proxy/17c8274494ef0ceee5846ceb6dae3a34.mov</property>
  <property name="kdenlive:originalurl">video/Motivation/vid/14.mp4</property>
  <property name="kdenlive:original.mlt_type">producer</property>
  <property name="kdenlive:original.in">0</property>
  <property name="kdenlive:original.out">59</property>
  <property name="kdenlive:original.length">60</property>
  <property name="kdenlive:original.eof">pause</property>
  <property name="kdenlive:original.resource">video/Motivation/vid/14.mp4</property>
  <property name="kdenlive:original.meta.media.nb_streams">1</property>
  <property name="kdenlive:original.meta.media.0.stream.type">video</property>
  <property name="kdenlive:original.meta.media.0.stream.frame_rate">60</property>
  <property name="kdenlive:original.meta.media.0.stream.sample_aspect_ratio">0</property>
  <property name="kdenlive:original.meta.media.0.codec.width">3840</property>
  <property name="kdenlive:original.meta.media.0.codec.height">2160</property>
  <property name="kdenlive:original.meta.media.0.codec.rotate">0</property>
  <property name="kdenlive:original.meta.media.0.codec.pix_fmt">yuv420p</property>
  <property name="kdenlive:original.meta.media.0.codec.sample_aspect_ratio">0</property>
  <property name="kdenlive:original.meta.media.0.codec.colorspace">709</property>
  <property name="kdenlive:original.meta.media.0.codec.name">h264</property>
  <property name="kdenlive:original.meta.media.0.codec.long_name">H.264 / AVC / MPEG-4 AVC / MPEG-4 part 10</property>
  <property name="kdenlive:original.meta.media.0.codec.bit_rate">1856792</property>
  <property name="kdenlive:original.meta.attr.0.stream.handler_name.markup">VideoHandler</property>
  <property name="kdenlive:original.meta.attr.0.stream.vendor_id.markup">[0][0][0][0]</property>
  <property name="kdenlive:original.meta.attr.major_brand.markup">isom</property>
  <property name="kdenlive:original.meta.attr.minor_version.markup">512</property>
  <property name="kdenlive:original.meta.attr.compatible_brands.markup">isomiso2avc1mp41</property>
  <property name="kdenlive:original.meta.attr.encoder.markup">Lavf58.76.100</property>
  <property name="kdenlive:original.meta.attr.comment.markup">Rendered with Manim Community v0.12.0</property>
  <property name="kdenlive:original.seekable">1</property>
  <property name="kdenlive:original.width">3840</property>
  <property name="kdenlive:original.height">2160</property>
  <property name="kdenlive:original.meta.media.sample_aspect_num">1</property>
  <property name="kdenlive:original.meta.media.sample_aspect_den">1</property>
  <property name="kdenlive:original.aspect_ratio">1</property>
  <property name="kdenlive:original.audio_index">-1</property>
  <property name="kdenlive:original.video_index">0</property>
  <property name="kdenlive:original.mute_on_pause">0</property>
  <property name="kdenlive:original.mlt_service">avformat-novalidate</property>
  <property name="kdenlive:original.kdenlive:folderid">171</property>
  <property name="kdenlive:original.meta.media.frame_rate_num">60</property>
  <property name="kdenlive:original.meta.media.frame_rate_den">1</property>
  <property name="kdenlive:original.meta.media.colorspace">709</property>
  <property name="kdenlive:original.meta.media.color_trc">2</property>
  <property name="kdenlive:original.meta.media.has_b_frames">2</property>
  <property name="kdenlive:original.meta.media.width">3840</property>
  <property name="kdenlive:original.meta.media.height">2160</property>
  <property name="kdenlive:original.meta.media.color_range">mpeg</property>
  <property name="kdenlive:original.kdenlive:id">177</property>
  <property name="kdenlive:original.kdenlive:file_size">233731</property>
  <property name="kdenlive:original.kdenlive:file_hash">17c8274494ef0ceee5846ceb6dae3a34</property>
  <property name="kdenlive:original.backup">1</property>
  <property name="kdenlive:file_hash">17c8274494ef0ceee5846ceb6dae3a34</property>
  <property name="xml">was here</property>
  <property name="meta.media.nb_streams">1</property>
  <property name="meta.media.0.stream.type">video</property>
  <property name="meta.media.0.stream.frame_rate">60</property>
  <property name="meta.media.0.stream.sample_aspect_ratio">0</property>
  <property name="meta.media.0.codec.width">640</property>
  <property name="meta.media.0.codec.height">360</property>
  <property name="meta.media.0.codec.rotate">0</property>
  <property name="meta.media.0.codec.pix_fmt">yuv420p</property>
  <property name="meta.media.0.codec.sample_aspect_ratio">0</property>
  <property name="meta.media.0.codec.colorspace">601</property>
  <property name="meta.media.0.codec.name">h264</property>
  <property name="meta.media.0.codec.long_name">H.264 / AVC / MPEG-4 AVC / MPEG-4 part 10</property>
  <property name="meta.media.0.codec.bit_rate">3335176</property>
  <property name="meta.attr.0.stream.handler_name.markup">VideoHandler</property>
  <property name="meta.attr.0.stream.vendor_id.markup">FFMP</property>
  <property name="meta.attr.0.stream.encoder.markup">Lavc58.134.100 libx264</property>
  <property name="meta.attr.major_brand.markup">qt  </property>
  <property name="meta.attr.minor_version.markup">512</property>
  <property name="meta.attr.compatible_brands.markup">qt  </property>
  <property name="meta.attr.encoder.markup">Lavf58.76.100</property>
  <property name="meta.attr.comment.markup">Rendered with Manim Community v0.12.0</property>
  <property name="meta.media.sample_aspect_num">1</property>
  <property name="meta.media.sample_aspect_den">1</property>
  <property name="meta.media.frame_rate_num">60</property>
  <property name="meta.media.frame_rate_den">1</property>
  <property name="meta.media.colorspace">601</property>
  <property name="meta.media.color_trc">2</property>
  <property name="meta.media.has_b_frames">0</property>
  <property name="meta.media.width">640</property>
  <property name="meta.media.height">360</property>
  <property name="meta.media.color_range">mpeg</property>
  <property name="set.test_audio">1</property>
  <property name="set.test_image">0</property>
 </producer>
 <producer id="producer437" in="00:00:00.000" out="00:00:02.183">
  <property name="length">132</property>
  <property name="eof">pause</property>
  <property name="resource">/home/xiaoxiae/.cache/kdenlive/proxy/5fe203903ba7f70f81e2b5bc6ab20df8.mov</property>
  <property name="audio_index">-1</property>
  <property name="video_index">0</property>
  <property name="mute_on_pause">0</property>
  <property name="mlt_service">avformat-novalidate</property>
  <property name="seekable">1</property>
  <property name="aspect_ratio">1</property>
  <property name="kdenlive:clipname">15.mp4</property>
  <property name="kdenlive:folderid">171</property>
  <property name="kdenlive:id">177</property>
  <property name="kdenlive:file_size">220287</property>
  <property name="kdenlive:proxy">/home/xiaoxiae/.cache/kdenlive/proxy/5fe203903ba7f70f81e2b5bc6ab20df8.mov</property>
  <property name="kdenlive:originalurl">video/Motivation/vid/15.mp4</property>
  <property name="kdenlive:original.mlt_type">producer</property>
  <property name="kdenlive:original.in">0</property>
  <property name="kdenlive:original.out">131</property>
  <property name="kdenlive:original.length">132</property>
  <property name="kdenlive:original.eof">pause</property>
  <property name="kdenlive:original.resource">video/Motivation/vid/15.mp4</property>
  <property name="kdenlive:original.meta.media.nb_streams">1</property>
  <property name="kdenlive:original.meta.media.0.stream.type">video</property>
  <property name="kdenlive:original.meta.media.0.stream.frame_rate">60</property>
  <property name="kdenlive:original.meta.media.0.stream.sample_aspect_ratio">0</property>
  <property name="kdenlive:original.meta.media.0.codec.width">3840</property>
  <property name="kdenlive:original.meta.media.0.codec.height">2160</property>
  <property name="kdenlive:original.meta.media.0.codec.rotate">0</property>
  <property name="kdenlive:original.meta.media.0.codec.pix_fmt">yuv420p</property>
  <property name="kdenlive:original.meta.media.0.codec.sample_aspect_ratio">0</property>
  <property name="kdenlive:original.meta.media.0.codec.colorspace">709</property>
  <property name="kdenlive:original.meta.media.0.codec.name">h264</property>
  <property name="kdenlive:original.meta.media.0.codec.long_name">H.264 / AVC / MPEG-4 AVC / MPEG-4 part 10</property>
  <property name="kdenlive:original.meta.media.0.codec.bit_rate">792141</property>
  <property name="kdenlive:original.meta.attr.0.stream.handler_name.markup">VideoHandler</property>
  <property name="kdenlive:original.meta.attr.0.stream.vendor_id.markup">[0][0][0][0]</property>
  <property name="kdenlive:original.meta.attr.major_brand.markup">isom</property>
  <property name="kdenlive:original.meta.attr.minor_version.markup">512</property>
  <property name="kdenlive:original.meta.attr.compatible_brands.markup">isomiso2avc1mp41</property>
  <property name="kdenlive:original.meta.attr.encoder.markup">Lavf58.76.100</property>
  <property name="kdenlive:original.meta.attr.comment.markup">Rendered with Manim Community v0.12.0</property>
  <property name="kdenlive:original.seekable">1</property>
  <property name="kdenlive:original.width">3840</property>
  <property name="kdenlive:original.height">2160</property>
  <property name="kdenlive:original.meta.media.sample_aspect_num">1</property>
  <property name="kdenlive:original.meta.media.sample_aspect_den">1</property>
  <property name="kdenlive:original.aspect_ratio">1</property>
  <property name="kdenlive:original.audio_index">-1</property>
  <property name="kdenlive:original.video_index">0</property>
  <property name="kdenlive:original.mute_on_pause">0</property>
  <property name="kdenlive:original.mlt_service">avformat-novalidate</property>
  <property name="kdenlive:original.kdenlive:folderid">171</property>
  <property name="kdenlive:original.meta.media.frame_rate_num">60</property>
  <property name="kdenlive:original.meta.media.frame_rate_den">1</property>
  <property name="kdenlive:original.meta.media.colorspace">709</property>
  <property name="kdenlive:original.meta.media.color_trc">2</property>
  <property name="kdenlive:original.meta.media.has_b_frames">2</property>
  <property name="kdenlive:original.meta.media.width">3840</property>
  <property name="kdenlive:original.meta.media.height">2160</property>
  <property name="kdenlive:original.meta.media.color_range">mpeg</property>
  <property name="kdenlive:original.kdenlive:id">178</property>
  <property name="kdenlive:original.kdenlive:file_size">220287</property>
  <property name="kdenlive:original.kdenlive:file_hash">5fe203903ba7f70f81e2b5bc6ab20df8</property>
  <property name="kdenlive:original.backup">1</property>
  <property name="kdenlive:file_hash">5fe203903ba7f70f81e2b5bc6ab20df8</property>
  <property name="xml">was here</property>
  <property name="meta.media.nb_streams">1</property>
  <property name="meta.media.0.stream.type">video</property>
  <property name="meta.media.0.stream.frame_rate">60</property>
  <property name="meta.media.0.stream.sample_aspect_ratio">0</property>
  <property name="meta.media.0.codec.width">640</property>
  <property name="meta.media.0.codec.height">360</property>
  <property name="meta.media.0.codec.rotate">0</property>
  <property name="meta.media.0.codec.pix_fmt">yuv420p</property>
  <property name="meta.media.0.codec.sample_aspect_ratio">0</property>
  <property name="meta.media.0.codec.colorspace">601</property>
  <property name="meta.media.0.codec.name">h264</property>
  <property name="meta.media.0.codec.long_name">H.264 / AVC / MPEG-4 AVC / MPEG-4 part 10</property>
  <property name="meta.media.0.codec.bit_rate">3355454</property>
  <property name="meta.attr.0.stream.handler_name.markup">VideoHandler</property>
  <property name="meta.attr.0.stream.vendor_id.markup">FFMP</property>
  <property name="meta.attr.0.stream.encoder.markup">Lavc58.134.100 libx264</property>
  <property name="meta.attr.major_brand.markup">qt  </property>
  <property name="meta.attr.minor_version.markup">512</property>
  <property name="meta.attr.compatible_brands.markup">qt  </property>
  <property name="meta.attr.encoder.markup">Lavf58.76.100</property>
  <property name="meta.attr.comment.markup">Rendered with Manim Community v0.12.0</property>
  <property name="meta.media.sample_aspect_num">1</property>
  <property name="meta.media.sample_aspect_den">1</property>
  <property name="meta.media.frame_rate_num">60</property>
  <property name="meta.media.frame_rate_den">1</property>
  <property name="meta.media.colorspace">601</property>
  <property name="meta.media.color_trc">2</property>
  <property name="meta.media.has_b_frames">0</property>
  <property name="meta.media.width">640</property>
  <property name="meta.media.height">360</property>
  <property name="meta.media.color_range">mpeg</property>
  <property name="set.test_audio">1</property>
  <property name="set.test_image">0</property>
 </producer>
 <producer id="producer438" in="00:00:00.000" out="00:00:00.983">
  <property name="length">60</property>
  <property name="eof">pause</property>
  <property name="resource">/home/xiaoxiae/.cache/kdenlive/proxy/aa93ae1fef4ff60c703bbafb7ad0c8d2.mov</property>
  <property name="audio_index">-1</property>
  <property name="video_index">0</property>
  <property name="mute_on_pause">0</property>
  <property name="mlt_service">avformat-novalidate</property>
  <property name="seekable">1</property>
  <property name="aspect_ratio">1</property>
  <property name="kdenlive:clipname">16.mp4</property>
  <property name="kdenlive:folderid">171</property>
  <property name="kdenlive:id">178</property>
  <property name="kdenlive:file_size">443550</property>
  <property name="kdenlive:proxy">/home/xiaoxiae/.cache/kdenlive/proxy/aa93ae1fef4ff60c703bbafb7ad0c8d2.mov</property>
  <property name="kdenlive:originalurl">video/Motivation/vid/16.mp4</property>
  <property name="kdenlive:original.mlt_type">producer</property>
  <property name="kdenlive:original.in">0</property>
  <property name="kdenlive:original.out">59</property>
  <property name="kdenlive:original.length">60</property>
  <property name="kdenlive:original.eof">pause</property>
  <property name="kdenlive:original.resource">video/Motivation/vid/16.mp4</property>
  <property name="kdenlive:original.meta.media.nb_streams">1</property>
  <property name="kdenlive:original.meta.media.0.stream.type">video</property>
  <property name="kdenlive:original.meta.media.0.stream.frame_rate">60</property>
  <property name="kdenlive:original.meta.media.0.stream.sample_aspect_ratio">0</property>
  <property name="kdenlive:original.meta.media.0.codec.width">3840</property>
  <property name="kdenlive:original.meta.media.0.codec.height">2160</property>
  <property name="kdenlive:original.meta.media.0.codec.rotate">0</property>
  <property name="kdenlive:original.meta.media.0.codec.pix_fmt">yuv420p</property>
  <property name="kdenlive:original.meta.media.0.codec.sample_aspect_ratio">0</property>
  <property name="kdenlive:original.meta.media.0.codec.colorspace">709</property>
  <property name="kdenlive:original.meta.media.0.codec.name">h264</property>
  <property name="kdenlive:original.meta.media.0.codec.long_name">H.264 / AVC / MPEG-4 AVC / MPEG-4 part 10</property>
  <property name="kdenlive:original.meta.media.0.codec.bit_rate">3536048</property>
  <property name="kdenlive:original.meta.attr.0.stream.handler_name.markup">VideoHandler</property>
  <property name="kdenlive:original.meta.attr.0.stream.vendor_id.markup">[0][0][0][0]</property>
  <property name="kdenlive:original.meta.attr.major_brand.markup">isom</property>
  <property name="kdenlive:original.meta.attr.minor_version.markup">512</property>
  <property name="kdenlive:original.meta.attr.compatible_brands.markup">isomiso2avc1mp41</property>
  <property name="kdenlive:original.meta.attr.encoder.markup">Lavf58.76.100</property>
  <property name="kdenlive:original.meta.attr.comment.markup">Rendered with Manim Community v0.12.0</property>
  <property name="kdenlive:original.seekable">1</property>
  <property name="kdenlive:original.width">3840</property>
  <property name="kdenlive:original.height">2160</property>
  <property name="kdenlive:original.meta.media.sample_aspect_num">1</property>
  <property name="kdenlive:original.meta.media.sample_aspect_den">1</property>
  <property name="kdenlive:original.aspect_ratio">1</property>
  <property name="kdenlive:original.audio_index">-1</property>
  <property name="kdenlive:original.video_index">0</property>
  <property name="kdenlive:original.mute_on_pause">0</property>
  <property name="kdenlive:original.mlt_service">avformat-novalidate</property>
  <property name="kdenlive:original.kdenlive:folderid">171</property>
  <property name="kdenlive:original.meta.media.frame_rate_num">60</property>
  <property name="kdenlive:original.meta.media.frame_rate_den">1</property>
  <property name="kdenlive:original.meta.media.colorspace">709</property>
  <property name="kdenlive:original.meta.media.color_trc">2</property>
  <property name="kdenlive:original.meta.media.has_b_frames">2</property>
  <property name="kdenlive:original.meta.media.width">3840</property>
  <property name="kdenlive:original.meta.media.height">2160</property>
  <property name="kdenlive:original.meta.media.color_range">mpeg</property>
  <property name="kdenlive:original.kdenlive:id">179</property>
  <property name="kdenlive:original.kdenlive:file_size">443550</property>
  <property name="kdenlive:original.kdenlive:file_hash">aa93ae1fef4ff60c703bbafb7ad0c8d2</property>
  <property name="kdenlive:original.backup">1</property>
  <property name="kdenlive:file_hash">aa93ae1fef4ff60c703bbafb7ad0c8d2</property>
  <property name="xml">was here</property>
  <property name="meta.media.nb_streams">1</property>
  <property name="meta.media.0.stream.type">video</property>
  <property name="meta.media.0.stream.frame_rate">60</property>
  <property name="meta.media.0.stream.sample_aspect_ratio">0</property>
  <property name="meta.media.0.codec.width">640</property>
  <property name="meta.media.0.codec.height">360</property>
  <property name="meta.media.0.codec.rotate">0</property>
  <property name="meta.media.0.codec.pix_fmt">yuv420p</property>
  <property name="meta.media.0.codec.sample_aspect_ratio">0</property>
  <property name="meta.media.0.codec.colorspace">601</property>
  <property name="meta.media.0.codec.name">h264</property>
  <property name="meta.media.0.codec.long_name">H.264 / AVC / MPEG-4 AVC / MPEG-4 part 10</property>
  <property name="meta.media.0.codec.bit_rate">2590480</property>
  <property name="meta.attr.0.stream.handler_name.markup">VideoHandler</property>
  <property name="meta.attr.0.stream.vendor_id.markup">FFMP</property>
  <property name="meta.attr.0.stream.encoder.markup">Lavc58.134.100 libx264</property>
  <property name="meta.attr.major_brand.markup">qt  </property>
  <property name="meta.attr.minor_version.markup">512</property>
  <property name="meta.attr.compatible_brands.markup">qt  </property>
  <property name="meta.attr.encoder.markup">Lavf58.76.100</property>
  <property name="meta.attr.comment.markup">Rendered with Manim Community v0.12.0</property>
  <property name="meta.media.sample_aspect_num">1</property>
  <property name="meta.media.sample_aspect_den">1</property>
  <property name="meta.media.frame_rate_num">60</property>
  <property name="meta.media.frame_rate_den">1</property>
  <property name="meta.media.colorspace">601</property>
  <property name="meta.media.color_trc">2</property>
  <property name="meta.media.has_b_frames">0</property>
  <property name="meta.media.width">640</property>
  <property name="meta.media.height">360</property>
  <property name="meta.media.color_range">mpeg</property>
  <property name="set.test_audio">1</property>
  <property name="set.test_image">0</property>
 </producer>
 <producer id="producer439" in="00:00:00.000" out="00:00:02.467">
  <property name="length">149</property>
  <property name="eof">pause</property>
  <property name="resource">/home/xiaoxiae/.cache/kdenlive/proxy/737eb706fc2eb7cc48540bd3e6771cf9.mov</property>
  <property name="audio_index">-1</property>
  <property name="video_index">0</property>
  <property name="mute_on_pause">0</property>
  <property name="mlt_service">avformat-novalidate</property>
  <property name="seekable">1</property>
  <property name="aspect_ratio">1</property>
  <property name="kdenlive:clipname">17.mp4</property>
  <property name="kdenlive:folderid">171</property>
  <property name="kdenlive:id">179</property>
  <property name="kdenlive:file_size">201944</property>
  <property name="kdenlive:proxy">/home/xiaoxiae/.cache/kdenlive/proxy/737eb706fc2eb7cc48540bd3e6771cf9.mov</property>
  <property name="kdenlive:originalurl">video/Motivation/vid/17.mp4</property>
  <property name="kdenlive:original.mlt_type">producer</property>
  <property name="kdenlive:original.in">0</property>
  <property name="kdenlive:original.out">148</property>
  <property name="kdenlive:original.length">149</property>
  <property name="kdenlive:original.eof">pause</property>
  <property name="kdenlive:original.resource">video/Motivation/vid/17.mp4</property>
  <property name="kdenlive:original.meta.media.nb_streams">1</property>
  <property name="kdenlive:original.meta.media.0.stream.type">video</property>
  <property name="kdenlive:original.meta.media.0.stream.frame_rate">60</property>
  <property name="kdenlive:original.meta.media.0.stream.sample_aspect_ratio">0</property>
  <property name="kdenlive:original.meta.media.0.codec.width">3840</property>
  <property name="kdenlive:original.meta.media.0.codec.height">2160</property>
  <property name="kdenlive:original.meta.media.0.codec.rotate">0</property>
  <property name="kdenlive:original.meta.media.0.codec.pix_fmt">yuv420p</property>
  <property name="kdenlive:original.meta.media.0.codec.sample_aspect_ratio">0</property>
  <property name="kdenlive:original.meta.media.0.codec.colorspace">709</property>
  <property name="kdenlive:original.meta.media.0.codec.name">h264</property>
  <property name="kdenlive:original.meta.media.0.codec.long_name">H.264 / AVC / MPEG-4 AVC / MPEG-4 part 10</property>
  <property name="kdenlive:original.meta.media.0.codec.bit_rate">642890</property>
  <property name="kdenlive:original.meta.attr.0.stream.handler_name.markup">VideoHandler</property>
  <property name="kdenlive:original.meta.attr.0.stream.vendor_id.markup">[0][0][0][0]</property>
  <property name="kdenlive:original.meta.attr.major_brand.markup">isom</property>
  <property name="kdenlive:original.meta.attr.minor_version.markup">512</property>
  <property name="kdenlive:original.meta.attr.compatible_brands.markup">isomiso2avc1mp41</property>
  <property name="kdenlive:original.meta.attr.encoder.markup">Lavf58.76.100</property>
  <property name="kdenlive:original.meta.attr.comment.markup">Rendered with Manim Community v0.12.0</property>
  <property name="kdenlive:original.seekable">1</property>
  <property name="kdenlive:original.width">3840</property>
  <property name="kdenlive:original.height">2160</property>
  <property name="kdenlive:original.meta.media.sample_aspect_num">1</property>
  <property name="kdenlive:original.meta.media.sample_aspect_den">1</property>
  <property name="kdenlive:original.aspect_ratio">1</property>
  <property name="kdenlive:original.audio_index">-1</property>
  <property name="kdenlive:original.video_index">0</property>
  <property name="kdenlive:original.mute_on_pause">0</property>
  <property name="kdenlive:original.mlt_service">avformat-novalidate</property>
  <property name="kdenlive:original.kdenlive:folderid">171</property>
  <property name="kdenlive:original.meta.media.frame_rate_num">60</property>
  <property name="kdenlive:original.meta.media.frame_rate_den">1</property>
  <property name="kdenlive:original.meta.media.colorspace">709</property>
  <property name="kdenlive:original.meta.media.color_trc">2</property>
  <property name="kdenlive:original.meta.media.has_b_frames">2</property>
  <property name="kdenlive:original.meta.media.width">3840</property>
  <property name="kdenlive:original.meta.media.height">2160</property>
  <property name="kdenlive:original.meta.media.color_range">mpeg</property>
  <property name="kdenlive:original.kdenlive:id">180</property>
  <property name="kdenlive:original.kdenlive:file_size">201944</property>
  <property name="kdenlive:original.kdenlive:file_hash">737eb706fc2eb7cc48540bd3e6771cf9</property>
  <property name="kdenlive:original.backup">1</property>
  <property name="kdenlive:file_hash">737eb706fc2eb7cc48540bd3e6771cf9</property>
  <property name="xml">was here</property>
  <property name="meta.media.nb_streams">1</property>
  <property name="meta.media.0.stream.type">video</property>
  <property name="meta.media.0.stream.frame_rate">60</property>
  <property name="meta.media.0.stream.sample_aspect_ratio">0</property>
  <property name="meta.media.0.codec.width">640</property>
  <property name="meta.media.0.codec.height">360</property>
  <property name="meta.media.0.codec.rotate">0</property>
  <property name="meta.media.0.codec.pix_fmt">yuv420p</property>
  <property name="meta.media.0.codec.sample_aspect_ratio">0</property>
  <property name="meta.media.0.codec.colorspace">601</property>
  <property name="meta.media.0.codec.name">h264</property>
  <property name="meta.media.0.codec.long_name">H.264 / AVC / MPEG-4 AVC / MPEG-4 part 10</property>
  <property name="meta.media.0.codec.bit_rate">869354</property>
  <property name="meta.attr.0.stream.handler_name.markup">VideoHandler</property>
  <property name="meta.attr.0.stream.vendor_id.markup">FFMP</property>
  <property name="meta.attr.0.stream.encoder.markup">Lavc58.134.100 libx264</property>
  <property name="meta.attr.major_brand.markup">qt  </property>
  <property name="meta.attr.minor_version.markup">512</property>
  <property name="meta.attr.compatible_brands.markup">qt  </property>
  <property name="meta.attr.encoder.markup">Lavf58.76.100</property>
  <property name="meta.attr.comment.markup">Rendered with Manim Community v0.12.0</property>
  <property name="meta.media.sample_aspect_num">1</property>
  <property name="meta.media.sample_aspect_den">1</property>
  <property name="meta.media.frame_rate_num">60</property>
  <property name="meta.media.frame_rate_den">1</property>
  <property name="meta.media.colorspace">601</property>
  <property name="meta.media.color_trc">2</property>
  <property name="meta.media.has_b_frames">0</property>
  <property name="meta.media.width">640</property>
  <property name="meta.media.height">360</property>
  <property name="meta.media.color_range">mpeg</property>
  <property name="set.test_audio">1</property>
  <property name="set.test_image">0</property>
  <property name="meta.media.top_field_first">0</property>
  <property name="meta.media.progressive">1</property>
 </producer>
 <producer id="producer440" in="00:00:00.000" out="00:00:00.983">
  <property name="length">60</property>
  <property name="eof">pause</property>
  <property name="resource">/home/xiaoxiae/.cache/kdenlive/proxy/3df4333e8924915c52dc4ca46fe2ff5e.mov</property>
  <property name="audio_index">-1</property>
  <property name="video_index">0</property>
  <property name="mute_on_pause">0</property>
  <property name="mlt_service">avformat-novalidate</property>
  <property name="seekable">1</property>
  <property name="aspect_ratio">1</property>
  <property name="kdenlive:clipname">18.mp4</property>
  <property name="kdenlive:folderid">171</property>
  <property name="kdenlive:id">180</property>
  <property name="kdenlive:file_size">52304</property>
  <property name="kdenlive:proxy">/home/xiaoxiae/.cache/kdenlive/proxy/3df4333e8924915c52dc4ca46fe2ff5e.mov</property>
  <property name="kdenlive:originalurl">video/Motivation/vid/18.mp4</property>
  <property name="kdenlive:original.mlt_type">producer</property>
  <property name="kdenlive:original.in">0</property>
  <property name="kdenlive:original.out">59</property>
  <property name="kdenlive:original.length">60</property>
  <property name="kdenlive:original.eof">pause</property>
  <property name="kdenlive:original.resource">video/Motivation/vid/18.mp4</property>
  <property name="kdenlive:original.meta.media.nb_streams">1</property>
  <property name="kdenlive:original.meta.media.0.stream.type">video</property>
  <property name="kdenlive:original.meta.media.0.stream.frame_rate">60</property>
  <property name="kdenlive:original.meta.media.0.stream.sample_aspect_ratio">0</property>
  <property name="kdenlive:original.meta.media.0.codec.width">3840</property>
  <property name="kdenlive:original.meta.media.0.codec.height">2160</property>
  <property name="kdenlive:original.meta.media.0.codec.rotate">0</property>
  <property name="kdenlive:original.meta.media.0.codec.pix_fmt">yuv420p</property>
  <property name="kdenlive:original.meta.media.0.codec.sample_aspect_ratio">0</property>
  <property name="kdenlive:original.meta.media.0.codec.colorspace">709</property>
  <property name="kdenlive:original.meta.media.0.codec.name">h264</property>
  <property name="kdenlive:original.meta.media.0.codec.long_name">H.264 / AVC / MPEG-4 AVC / MPEG-4 part 10</property>
  <property name="kdenlive:original.meta.media.0.codec.bit_rate">405376</property>
  <property name="kdenlive:original.meta.attr.0.stream.handler_name.markup">VideoHandler</property>
  <property name="kdenlive:original.meta.attr.0.stream.vendor_id.markup">[0][0][0][0]</property>
  <property name="kdenlive:original.meta.attr.major_brand.markup">isom</property>
  <property name="kdenlive:original.meta.attr.minor_version.markup">512</property>
  <property name="kdenlive:original.meta.attr.compatible_brands.markup">isomiso2avc1mp41</property>
  <property name="kdenlive:original.meta.attr.encoder.markup">Lavf58.76.100</property>
  <property name="kdenlive:original.meta.attr.comment.markup">Rendered with Manim Community v0.12.0</property>
  <property name="kdenlive:original.seekable">1</property>
  <property name="kdenlive:original.width">3840</property>
  <property name="kdenlive:original.height">2160</property>
  <property name="kdenlive:original.meta.media.sample_aspect_num">1</property>
  <property name="kdenlive:original.meta.media.sample_aspect_den">1</property>
  <property name="kdenlive:original.aspect_ratio">1</property>
  <property name="kdenlive:original.audio_index">-1</property>
  <property name="kdenlive:original.video_index">0</property>
  <property name="kdenlive:original.mute_on_pause">0</property>
  <property name="kdenlive:original.mlt_service">avformat-novalidate</property>
  <property name="kdenlive:original.kdenlive:folderid">171</property>
  <property name="kdenlive:original.meta.media.frame_rate_num">60</property>
  <property name="kdenlive:original.meta.media.frame_rate_den">1</property>
  <property name="kdenlive:original.meta.media.colorspace">709</property>
  <property name="kdenlive:original.meta.media.color_trc">2</property>
  <property name="kdenlive:original.meta.media.has_b_frames">2</property>
  <property name="kdenlive:original.meta.media.width">3840</property>
  <property name="kdenlive:original.meta.media.height">2160</property>
  <property name="kdenlive:original.meta.media.color_range">mpeg</property>
  <property name="kdenlive:original.kdenlive:id">181</property>
  <property name="kdenlive:original.kdenlive:file_size">52304</property>
  <property name="kdenlive:original.kdenlive:file_hash">3df4333e8924915c52dc4ca46fe2ff5e</property>
  <property name="kdenlive:original.backup">1</property>
  <property name="kdenlive:file_hash">3df4333e8924915c52dc4ca46fe2ff5e</property>
  <property name="xml">was here</property>
  <property name="meta.media.nb_streams">1</property>
  <property name="meta.media.0.stream.type">video</property>
  <property name="meta.media.0.stream.frame_rate">60</property>
  <property name="meta.media.0.stream.sample_aspect_ratio">0</property>
  <property name="meta.media.0.codec.width">640</property>
  <property name="meta.media.0.codec.height">360</property>
  <property name="meta.media.0.codec.rotate">0</property>
  <property name="meta.media.0.codec.pix_fmt">yuv420p</property>
  <property name="meta.media.0.codec.sample_aspect_ratio">0</property>
  <property name="meta.media.0.codec.colorspace">601</property>
  <property name="meta.media.0.codec.name">h264</property>
  <property name="meta.media.0.codec.long_name">H.264 / AVC / MPEG-4 AVC / MPEG-4 part 10</property>
  <property name="meta.media.0.codec.bit_rate">1264808</property>
  <property name="meta.attr.0.stream.handler_name.markup">VideoHandler</property>
  <property name="meta.attr.0.stream.vendor_id.markup">FFMP</property>
  <property name="meta.attr.0.stream.encoder.markup">Lavc58.134.100 libx264</property>
  <property name="meta.attr.major_brand.markup">qt  </property>
  <property name="meta.attr.minor_version.markup">512</property>
  <property name="meta.attr.compatible_brands.markup">qt  </property>
  <property name="meta.attr.encoder.markup">Lavf58.76.100</property>
  <property name="meta.attr.comment.markup">Rendered with Manim Community v0.12.0</property>
  <property name="meta.media.sample_aspect_num">1</property>
  <property name="meta.media.sample_aspect_den">1</property>
  <property name="meta.media.frame_rate_num">60</property>
  <property name="meta.media.frame_rate_den">1</property>
  <property name="meta.media.colorspace">601</property>
  <property name="meta.media.color_trc">2</property>
  <property name="meta.media.has_b_frames">0</property>
  <property name="meta.media.width">640</property>
  <property name="meta.media.height">360</property>
  <property name="meta.media.color_range">mpeg</property>
  <property name="set.test_audio">1</property>
  <property name="set.test_image">0</property>
 </producer>
 <producer id="producer441" in="00:00:00.000" out="00:00:00.983">
  <property name="length">60</property>
  <property name="eof">pause</property>
  <property name="resource">/home/xiaoxiae/.cache/kdenlive/proxy/fb56c08de2ca997c719c5e1e73ad19d0.mov</property>
  <property name="audio_index">-1</property>
  <property name="video_index">0</property>
  <property name="mute_on_pause">0</property>
  <property name="mlt_service">avformat-novalidate</property>
  <property name="seekable">1</property>
  <property name="aspect_ratio">1</property>
  <property name="kdenlive:clipname">19.mp4</property>
  <property name="kdenlive:folderid">171</property>
  <property name="kdenlive:id">181</property>
  <property name="kdenlive:file_size">49700</property>
  <property name="kdenlive:proxy">/home/xiaoxiae/.cache/kdenlive/proxy/fb56c08de2ca997c719c5e1e73ad19d0.mov</property>
  <property name="kdenlive:originalurl">video/Motivation/vid/19.mp4</property>
  <property name="kdenlive:original.mlt_type">producer</property>
  <property name="kdenlive:original.in">0</property>
  <property name="kdenlive:original.out">59</property>
  <property name="kdenlive:original.length">60</property>
  <property name="kdenlive:original.eof">pause</property>
  <property name="kdenlive:original.resource">video/Motivation/vid/19.mp4</property>
  <property name="kdenlive:original.meta.media.nb_streams">1</property>
  <property name="kdenlive:original.meta.media.0.stream.type">video</property>
  <property name="kdenlive:original.meta.media.0.stream.frame_rate">60</property>
  <property name="kdenlive:original.meta.media.0.stream.sample_aspect_ratio">0</property>
  <property name="kdenlive:original.meta.media.0.codec.width">3840</property>
  <property name="kdenlive:original.meta.media.0.codec.height">2160</property>
  <property name="kdenlive:original.meta.media.0.codec.rotate">0</property>
  <property name="kdenlive:original.meta.media.0.codec.pix_fmt">yuv420p</property>
  <property name="kdenlive:original.meta.media.0.codec.sample_aspect_ratio">0</property>
  <property name="kdenlive:original.meta.media.0.codec.colorspace">709</property>
  <property name="kdenlive:original.meta.media.0.codec.name">h264</property>
  <property name="kdenlive:original.meta.media.0.codec.long_name">H.264 / AVC / MPEG-4 AVC / MPEG-4 part 10</property>
  <property name="kdenlive:original.meta.media.0.codec.bit_rate">384544</property>
  <property name="kdenlive:original.meta.attr.0.stream.handler_name.markup">VideoHandler</property>
  <property name="kdenlive:original.meta.attr.0.stream.vendor_id.markup">[0][0][0][0]</property>
  <property name="kdenlive:original.meta.attr.major_brand.markup">isom</property>
  <property name="kdenlive:original.meta.attr.minor_version.markup">512</property>
  <property name="kdenlive:original.meta.attr.compatible_brands.markup">isomiso2avc1mp41</property>
  <property name="kdenlive:original.meta.attr.encoder.markup">Lavf58.76.100</property>
  <property name="kdenlive:original.meta.attr.comment.markup">Rendered with Manim Community v0.12.0</property>
  <property name="kdenlive:original.seekable">1</property>
  <property name="kdenlive:original.width">3840</property>
  <property name="kdenlive:original.height">2160</property>
  <property name="kdenlive:original.meta.media.sample_aspect_num">1</property>
  <property name="kdenlive:original.meta.media.sample_aspect_den">1</property>
  <property name="kdenlive:original.aspect_ratio">1</property>
  <property name="kdenlive:original.audio_index">-1</property>
  <property name="kdenlive:original.video_index">0</property>
  <property name="kdenlive:original.mute_on_pause">0</property>
  <property name="kdenlive:original.mlt_service">avformat-novalidate</property>
  <property name="kdenlive:original.kdenlive:folderid">171</property>
  <property name="kdenlive:original.meta.media.frame_rate_num">60</property>
  <property name="kdenlive:original.meta.media.frame_rate_den">1</property>
  <property name="kdenlive:original.meta.media.colorspace">709</property>
  <property name="kdenlive:original.meta.media.color_trc">2</property>
  <property name="kdenlive:original.meta.media.has_b_frames">2</property>
  <property name="kdenlive:original.meta.media.width">3840</property>
  <property name="kdenlive:original.meta.media.height">2160</property>
  <property name="kdenlive:original.meta.media.color_range">mpeg</property>
  <property name="kdenlive:original.kdenlive:id">182</property>
  <property name="kdenlive:original.kdenlive:file_size">49700</property>
  <property name="kdenlive:original.kdenlive:file_hash">fb56c08de2ca997c719c5e1e73ad19d0</property>
  <property name="kdenlive:original.backup">1</property>
  <property name="kdenlive:file_hash">fb56c08de2ca997c719c5e1e73ad19d0</property>
  <property name="xml">was here</property>
  <property name="meta.media.nb_streams">1</property>
  <property name="meta.media.0.stream.type">video</property>
  <property name="meta.media.0.stream.frame_rate">60</property>
  <property name="meta.media.0.stream.sample_aspect_ratio">0</property>
  <property name="meta.media.0.codec.width">640</property>
  <property name="meta.media.0.codec.height">360</property>
  <property name="meta.media.0.codec.rotate">0</property>
  <property name="meta.media.0.codec.pix_fmt">yuv420p</property>
  <property name="meta.media.0.codec.sample_aspect_ratio">0</property>
  <property name="meta.media.0.codec.colorspace">601</property>
  <property name="meta.media.0.codec.name">h264</property>
  <property name="meta.media.0.codec.long_name">H.264 / AVC / MPEG-4 AVC / MPEG-4 part 10</property>
  <property name="meta.media.0.codec.bit_rate">1234264</property>
  <property name="meta.attr.0.stream.handler_name.markup">VideoHandler</property>
  <property name="meta.attr.0.stream.vendor_id.markup">FFMP</property>
  <property name="meta.attr.0.stream.encoder.markup">Lavc58.134.100 libx264</property>
  <property name="meta.attr.major_brand.markup">qt  </property>
  <property name="meta.attr.minor_version.markup">512</property>
  <property name="meta.attr.compatible_brands.markup">qt  </property>
  <property name="meta.attr.encoder.markup">Lavf58.76.100</property>
  <property name="meta.attr.comment.markup">Rendered with Manim Community v0.12.0</property>
  <property name="meta.media.sample_aspect_num">1</property>
  <property name="meta.media.sample_aspect_den">1</property>
  <property name="meta.media.frame_rate_num">60</property>
  <property name="meta.media.frame_rate_den">1</property>
  <property name="meta.media.colorspace">601</property>
  <property name="meta.media.color_trc">2</property>
  <property name="meta.media.has_b_frames">0</property>
  <property name="meta.media.width">640</property>
  <property name="meta.media.height">360</property>
  <property name="meta.media.color_range">mpeg</property>
  <property name="set.test_audio">1</property>
  <property name="set.test_image">0</property>
 </producer>
 <producer id="producer442" in="00:00:00.000" out="00:00:01.333">
  <property name="length">81</property>
  <property name="eof">pause</property>
  <property name="resource">/home/xiaoxiae/.cache/kdenlive/proxy/71df480305763501e5fab0eefb62bfc0.mov</property>
  <property name="audio_index">-1</property>
  <property name="video_index">0</property>
  <property name="mute_on_pause">0</property>
  <property name="mlt_service">avformat-novalidate</property>
  <property name="seekable">1</property>
  <property name="aspect_ratio">1</property>
  <property name="kdenlive:clipname">20.mp4</property>
  <property name="kdenlive:folderid">171</property>
  <property name="kdenlive:id">183</property>
  <property name="kdenlive:file_size">212736</property>
  <property name="kdenlive:proxy">/home/xiaoxiae/.cache/kdenlive/proxy/71df480305763501e5fab0eefb62bfc0.mov</property>
  <property name="kdenlive:originalurl">video/Motivation/vid/20.mp4</property>
  <property name="kdenlive:original.mlt_type">producer</property>
  <property name="kdenlive:original.in">0</property>
  <property name="kdenlive:original.out">80</property>
  <property name="kdenlive:original.length">81</property>
  <property name="kdenlive:original.eof">pause</property>
  <property name="kdenlive:original.resource">video/Motivation/vid/20.mp4</property>
  <property name="kdenlive:original.meta.media.nb_streams">1</property>
  <property name="kdenlive:original.meta.media.0.stream.type">video</property>
  <property name="kdenlive:original.meta.media.0.stream.frame_rate">60</property>
  <property name="kdenlive:original.meta.media.0.stream.sample_aspect_ratio">0</property>
  <property name="kdenlive:original.meta.media.0.codec.width">3840</property>
  <property name="kdenlive:original.meta.media.0.codec.height">2160</property>
  <property name="kdenlive:original.meta.media.0.codec.rotate">0</property>
  <property name="kdenlive:original.meta.media.0.codec.pix_fmt">yuv420p</property>
  <property name="kdenlive:original.meta.media.0.codec.sample_aspect_ratio">0</property>
  <property name="kdenlive:original.meta.media.0.codec.colorspace">709</property>
  <property name="kdenlive:original.meta.media.0.codec.name">h264</property>
  <property name="kdenlive:original.meta.media.0.codec.long_name">H.264 / AVC / MPEG-4 AVC / MPEG-4 part 10</property>
  <property name="kdenlive:original.meta.media.0.codec.bit_rate">1251484</property>
  <property name="kdenlive:original.meta.attr.0.stream.handler_name.markup">VideoHandler</property>
  <property name="kdenlive:original.meta.attr.0.stream.vendor_id.markup">[0][0][0][0]</property>
  <property name="kdenlive:original.meta.attr.major_brand.markup">isom</property>
  <property name="kdenlive:original.meta.attr.minor_version.markup">512</property>
  <property name="kdenlive:original.meta.attr.compatible_brands.markup">isomiso2avc1mp41</property>
  <property name="kdenlive:original.meta.attr.encoder.markup">Lavf58.76.100</property>
  <property name="kdenlive:original.meta.attr.comment.markup">Rendered with Manim Community v0.12.0</property>
  <property name="kdenlive:original.seekable">1</property>
  <property name="kdenlive:original.width">3840</property>
  <property name="kdenlive:original.height">2160</property>
  <property name="kdenlive:original.meta.media.sample_aspect_num">1</property>
  <property name="kdenlive:original.meta.media.sample_aspect_den">1</property>
  <property name="kdenlive:original.aspect_ratio">1</property>
  <property name="kdenlive:original.audio_index">-1</property>
  <property name="kdenlive:original.video_index">0</property>
  <property name="kdenlive:original.mute_on_pause">0</property>
  <property name="kdenlive:original.mlt_service">avformat-novalidate</property>
  <property name="kdenlive:original.kdenlive:folderid">171</property>
  <property name="kdenlive:original.meta.media.frame_rate_num">60</property>
  <property name="kdenlive:original.meta.media.frame_rate_den">1</property>
  <property name="kdenlive:original.meta.media.colorspace">709</property>
  <property name="kdenlive:original.meta.media.color_trc">2</property>
  <property name="kdenlive:original.meta.media.has_b_frames">2</property>
  <property name="kdenlive:original.meta.media.width">3840</property>
  <property name="kdenlive:original.meta.media.height">2160</property>
  <property name="kdenlive:original.meta.media.color_range">mpeg</property>
  <property name="kdenlive:original.kdenlive:id">184</property>
  <property name="kdenlive:original.kdenlive:file_size">212736</property>
  <property name="kdenlive:original.kdenlive:file_hash">71df480305763501e5fab0eefb62bfc0</property>
  <property name="kdenlive:original.backup">1</property>
  <property name="kdenlive:file_hash">71df480305763501e5fab0eefb62bfc0</property>
  <property name="xml">was here</property>
  <property name="meta.media.nb_streams">1</property>
  <property name="meta.media.0.stream.type">video</property>
  <property name="meta.media.0.stream.frame_rate">60</property>
  <property name="meta.media.0.stream.sample_aspect_ratio">0</property>
  <property name="meta.media.0.codec.width">640</property>
  <property name="meta.media.0.codec.height">360</property>
  <property name="meta.media.0.codec.rotate">0</property>
  <property name="meta.media.0.codec.pix_fmt">yuv420p</property>
  <property name="meta.media.0.codec.sample_aspect_ratio">0</property>
  <property name="meta.media.0.codec.colorspace">601</property>
  <property name="meta.media.0.codec.name">h264</property>
  <property name="meta.media.0.codec.long_name">H.264 / AVC / MPEG-4 AVC / MPEG-4 part 10</property>
  <property name="meta.media.0.codec.bit_rate">1741487</property>
  <property name="meta.attr.0.stream.handler_name.markup">VideoHandler</property>
  <property name="meta.attr.0.stream.vendor_id.markup">FFMP</property>
  <property name="meta.attr.0.stream.encoder.markup">Lavc58.134.100 libx264</property>
  <property name="meta.attr.major_brand.markup">qt  </property>
  <property name="meta.attr.minor_version.markup">512</property>
  <property name="meta.attr.compatible_brands.markup">qt  </property>
  <property name="meta.attr.encoder.markup">Lavf58.76.100</property>
  <property name="meta.attr.comment.markup">Rendered with Manim Community v0.12.0</property>
  <property name="meta.media.sample_aspect_num">1</property>
  <property name="meta.media.sample_aspect_den">1</property>
  <property name="meta.media.frame_rate_num">60</property>
  <property name="meta.media.frame_rate_den">1</property>
  <property name="meta.media.colorspace">601</property>
  <property name="meta.media.color_trc">2</property>
  <property name="meta.media.has_b_frames">0</property>
  <property name="meta.media.width">640</property>
  <property name="meta.media.height">360</property>
  <property name="meta.media.color_range">mpeg</property>
  <property name="set.test_audio">1</property>
  <property name="set.test_image">0</property>
 </producer>
 <producer id="producer443" in="00:00:00.000" out="00:00:00.983">
  <property name="length">60</property>
  <property name="eof">pause</property>
  <property name="resource">/home/xiaoxiae/.cache/kdenlive/proxy/0acb33ae608f3ff250be2291bbcde068.mov</property>
  <property name="audio_index">-1</property>
  <property name="video_index">0</property>
  <property name="mute_on_pause">0</property>
  <property name="mlt_service">avformat-novalidate</property>
  <property name="seekable">1</property>
  <property name="aspect_ratio">1</property>
  <property name="kdenlive:clipname">21.mp4</property>
  <property name="kdenlive:folderid">171</property>
  <property name="kdenlive:id">184</property>
  <property name="kdenlive:file_size">116145</property>
  <property name="kdenlive:proxy">/home/xiaoxiae/.cache/kdenlive/proxy/0acb33ae608f3ff250be2291bbcde068.mov</property>
  <property name="kdenlive:originalurl">video/Motivation/vid/21.mp4</property>
  <property name="kdenlive:original.mlt_type">producer</property>
  <property name="kdenlive:original.in">0</property>
  <property name="kdenlive:original.out">59</property>
  <property name="kdenlive:original.length">60</property>
  <property name="kdenlive:original.eof">pause</property>
  <property name="kdenlive:original.resource">video/Motivation/vid/21.mp4</property>
  <property name="kdenlive:original.meta.media.nb_streams">1</property>
  <property name="kdenlive:original.meta.media.0.stream.type">video</property>
  <property name="kdenlive:original.meta.media.0.stream.frame_rate">60</property>
  <property name="kdenlive:original.meta.media.0.stream.sample_aspect_ratio">0</property>
  <property name="kdenlive:original.meta.media.0.codec.width">3840</property>
  <property name="kdenlive:original.meta.media.0.codec.height">2160</property>
  <property name="kdenlive:original.meta.media.0.codec.rotate">0</property>
  <property name="kdenlive:original.meta.media.0.codec.pix_fmt">yuv420p</property>
  <property name="kdenlive:original.meta.media.0.codec.sample_aspect_ratio">0</property>
  <property name="kdenlive:original.meta.media.0.codec.colorspace">709</property>
  <property name="kdenlive:original.meta.media.0.codec.name">h264</property>
  <property name="kdenlive:original.meta.media.0.codec.long_name">H.264 / AVC / MPEG-4 AVC / MPEG-4 part 10</property>
  <property name="kdenlive:original.meta.media.0.codec.bit_rate">916616</property>
  <property name="kdenlive:original.meta.attr.0.stream.handler_name.markup">VideoHandler</property>
  <property name="kdenlive:original.meta.attr.0.stream.vendor_id.markup">[0][0][0][0]</property>
  <property name="kdenlive:original.meta.attr.major_brand.markup">isom</property>
  <property name="kdenlive:original.meta.attr.minor_version.markup">512</property>
  <property name="kdenlive:original.meta.attr.compatible_brands.markup">isomiso2avc1mp41</property>
  <property name="kdenlive:original.meta.attr.encoder.markup">Lavf58.76.100</property>
  <property name="kdenlive:original.meta.attr.comment.markup">Rendered with Manim Community v0.12.0</property>
  <property name="kdenlive:original.seekable">1</property>
  <property name="kdenlive:original.width">3840</property>
  <property name="kdenlive:original.height">2160</property>
  <property name="kdenlive:original.meta.media.sample_aspect_num">1</property>
  <property name="kdenlive:original.meta.media.sample_aspect_den">1</property>
  <property name="kdenlive:original.aspect_ratio">1</property>
  <property name="kdenlive:original.audio_index">-1</property>
  <property name="kdenlive:original.video_index">0</property>
  <property name="kdenlive:original.mute_on_pause">0</property>
  <property name="kdenlive:original.mlt_service">avformat-novalidate</property>
  <property name="kdenlive:original.kdenlive:folderid">171</property>
  <property name="kdenlive:original.meta.media.frame_rate_num">60</property>
  <property name="kdenlive:original.meta.media.frame_rate_den">1</property>
  <property name="kdenlive:original.meta.media.colorspace">709</property>
  <property name="kdenlive:original.meta.media.color_trc">2</property>
  <property name="kdenlive:original.meta.media.has_b_frames">2</property>
  <property name="kdenlive:original.meta.media.width">3840</property>
  <property name="kdenlive:original.meta.media.height">2160</property>
  <property name="kdenlive:original.meta.media.color_range">mpeg</property>
  <property name="kdenlive:original.kdenlive:id">185</property>
  <property name="kdenlive:original.kdenlive:file_size">116145</property>
  <property name="kdenlive:original.kdenlive:file_hash">0acb33ae608f3ff250be2291bbcde068</property>
  <property name="kdenlive:original.backup">1</property>
  <property name="kdenlive:file_hash">0acb33ae608f3ff250be2291bbcde068</property>
  <property name="xml">was here</property>
  <property name="meta.media.nb_streams">1</property>
  <property name="meta.media.0.stream.type">video</property>
  <property name="meta.media.0.stream.frame_rate">60</property>
  <property name="meta.media.0.stream.sample_aspect_ratio">0</property>
  <property name="meta.media.0.codec.width">640</property>
  <property name="meta.media.0.codec.height">360</property>
  <property name="meta.media.0.codec.rotate">0</property>
  <property name="meta.media.0.codec.pix_fmt">yuv420p</property>
  <property name="meta.media.0.codec.sample_aspect_ratio">0</property>
  <property name="meta.media.0.codec.colorspace">601</property>
  <property name="meta.media.0.codec.name">h264</property>
  <property name="meta.media.0.codec.long_name">H.264 / AVC / MPEG-4 AVC / MPEG-4 part 10</property>
  <property name="meta.media.0.codec.bit_rate">2064904</property>
  <property name="meta.attr.0.stream.handler_name.markup">VideoHandler</property>
  <property name="meta.attr.0.stream.vendor_id.markup">FFMP</property>
  <property name="meta.attr.0.stream.encoder.markup">Lavc58.134.100 libx264</property>
  <property name="meta.attr.major_brand.markup">qt  </property>
  <property name="meta.attr.minor_version.markup">512</property>
  <property name="meta.attr.compatible_brands.markup">qt  </property>
  <property name="meta.attr.encoder.markup">Lavf58.76.100</property>
  <property name="meta.attr.comment.markup">Rendered with Manim Community v0.12.0</property>
  <property name="meta.media.sample_aspect_num">1</property>
  <property name="meta.media.sample_aspect_den">1</property>
  <property name="meta.media.frame_rate_num">60</property>
  <property name="meta.media.frame_rate_den">1</property>
  <property name="meta.media.colorspace">601</property>
  <property name="meta.media.color_trc">2</property>
  <property name="meta.media.has_b_frames">0</property>
  <property name="meta.media.width">640</property>
  <property name="meta.media.height">360</property>
  <property name="meta.media.color_range">mpeg</property>
  <property name="set.test_audio">1</property>
  <property name="set.test_image">0</property>
 </producer>
 <producer id="producer444" in="00:00:00.000" out="00:00:00.483">
  <property name="length">30</property>
  <property name="eof">pause</property>
  <property name="resource">/home/xiaoxiae/.cache/kdenlive/proxy/3fee7031cda53ba59b9e0191fa64faba.mov</property>
  <property name="audio_index">-1</property>
  <property name="video_index">0</property>
  <property name="mute_on_pause">0</property>
  <property name="mlt_service">avformat-novalidate</property>
  <property name="seekable">1</property>
  <property name="aspect_ratio">1</property>
  <property name="kdenlive:clipname">22.mp4</property>
  <property name="kdenlive:folderid">171</property>
  <property name="kdenlive:id">185</property>
  <property name="kdenlive:file_size">63258</property>
  <property name="kdenlive:proxy">/home/xiaoxiae/.cache/kdenlive/proxy/3fee7031cda53ba59b9e0191fa64faba.mov</property>
  <property name="kdenlive:originalurl">video/Motivation/vid/22.mp4</property>
  <property name="kdenlive:original.mlt_type">producer</property>
  <property name="kdenlive:original.in">0</property>
  <property name="kdenlive:original.out">29</property>
  <property name="kdenlive:original.length">30</property>
  <property name="kdenlive:original.eof">pause</property>
  <property name="kdenlive:original.resource">video/Motivation/vid/22.mp4</property>
  <property name="kdenlive:original.meta.media.nb_streams">1</property>
  <property name="kdenlive:original.meta.media.0.stream.type">video</property>
  <property name="kdenlive:original.meta.media.0.stream.frame_rate">60</property>
  <property name="kdenlive:original.meta.media.0.stream.sample_aspect_ratio">0</property>
  <property name="kdenlive:original.meta.media.0.codec.width">3840</property>
  <property name="kdenlive:original.meta.media.0.codec.height">2160</property>
  <property name="kdenlive:original.meta.media.0.codec.rotate">0</property>
  <property name="kdenlive:original.meta.media.0.codec.pix_fmt">yuv420p</property>
  <property name="kdenlive:original.meta.media.0.codec.sample_aspect_ratio">0</property>
  <property name="kdenlive:original.meta.media.0.codec.colorspace">709</property>
  <property name="kdenlive:original.meta.media.0.codec.name">h264</property>
  <property name="kdenlive:original.meta.media.0.codec.long_name">H.264 / AVC / MPEG-4 AVC / MPEG-4 part 10</property>
  <property name="kdenlive:original.meta.media.0.codec.bit_rate">991648</property>
  <property name="kdenlive:original.meta.attr.0.stream.handler_name.markup">VideoHandler</property>
  <property name="kdenlive:original.meta.attr.0.stream.vendor_id.markup">[0][0][0][0]</property>
  <property name="kdenlive:original.meta.attr.major_brand.markup">isom</property>
  <property name="kdenlive:original.meta.attr.minor_version.markup">512</property>
  <property name="kdenlive:original.meta.attr.compatible_brands.markup">isomiso2avc1mp41</property>
  <property name="kdenlive:original.meta.attr.encoder.markup">Lavf58.76.100</property>
  <property name="kdenlive:original.meta.attr.comment.markup">Rendered with Manim Community v0.12.0</property>
  <property name="kdenlive:original.seekable">1</property>
  <property name="kdenlive:original.width">3840</property>
  <property name="kdenlive:original.height">2160</property>
  <property name="kdenlive:original.meta.media.sample_aspect_num">1</property>
  <property name="kdenlive:original.meta.media.sample_aspect_den">1</property>
  <property name="kdenlive:original.aspect_ratio">1</property>
  <property name="kdenlive:original.audio_index">-1</property>
  <property name="kdenlive:original.video_index">0</property>
  <property name="kdenlive:original.mute_on_pause">0</property>
  <property name="kdenlive:original.mlt_service">avformat-novalidate</property>
  <property name="kdenlive:original.kdenlive:folderid">171</property>
  <property name="kdenlive:original.meta.media.frame_rate_num">60</property>
  <property name="kdenlive:original.meta.media.frame_rate_den">1</property>
  <property name="kdenlive:original.meta.media.colorspace">709</property>
  <property name="kdenlive:original.meta.media.color_trc">2</property>
  <property name="kdenlive:original.meta.media.has_b_frames">2</property>
  <property name="kdenlive:original.meta.media.width">3840</property>
  <property name="kdenlive:original.meta.media.height">2160</property>
  <property name="kdenlive:original.meta.media.color_range">mpeg</property>
  <property name="kdenlive:original.kdenlive:id">186</property>
  <property name="kdenlive:original.kdenlive:file_size">63258</property>
  <property name="kdenlive:original.kdenlive:file_hash">3fee7031cda53ba59b9e0191fa64faba</property>
  <property name="kdenlive:original.backup">1</property>
  <property name="kdenlive:file_hash">3fee7031cda53ba59b9e0191fa64faba</property>
  <property name="xml">was here</property>
  <property name="meta.media.nb_streams">1</property>
  <property name="meta.media.0.stream.type">video</property>
  <property name="meta.media.0.stream.frame_rate">60</property>
  <property name="meta.media.0.stream.sample_aspect_ratio">0</property>
  <property name="meta.media.0.codec.width">640</property>
  <property name="meta.media.0.codec.height">360</property>
  <property name="meta.media.0.codec.rotate">0</property>
  <property name="meta.media.0.codec.pix_fmt">yuv420p</property>
  <property name="meta.media.0.codec.sample_aspect_ratio">0</property>
  <property name="meta.media.0.codec.colorspace">601</property>
  <property name="meta.media.0.codec.name">h264</property>
  <property name="meta.media.0.codec.long_name">H.264 / AVC / MPEG-4 AVC / MPEG-4 part 10</property>
  <property name="meta.media.0.codec.bit_rate">2112512</property>
  <property name="meta.attr.0.stream.handler_name.markup">VideoHandler</property>
  <property name="meta.attr.0.stream.vendor_id.markup">FFMP</property>
  <property name="meta.attr.0.stream.encoder.markup">Lavc58.134.100 libx264</property>
  <property name="meta.attr.major_brand.markup">qt  </property>
  <property name="meta.attr.minor_version.markup">512</property>
  <property name="meta.attr.compatible_brands.markup">qt  </property>
  <property name="meta.attr.encoder.markup">Lavf58.76.100</property>
  <property name="meta.attr.comment.markup">Rendered with Manim Community v0.12.0</property>
  <property name="meta.media.sample_aspect_num">1</property>
  <property name="meta.media.sample_aspect_den">1</property>
  <property name="meta.media.frame_rate_num">60</property>
  <property name="meta.media.frame_rate_den">1</property>
  <property name="meta.media.colorspace">601</property>
  <property name="meta.media.color_trc">2</property>
  <property name="meta.media.has_b_frames">0</property>
  <property name="meta.media.width">640</property>
  <property name="meta.media.height">360</property>
  <property name="meta.media.color_range">mpeg</property>
  <property name="set.test_audio">1</property>
  <property name="set.test_image">0</property>
  <property name="meta.media.top_field_first">0</property>
  <property name="meta.media.progressive">1</property>
 </producer>
 <producer id="producer445" in="00:00:00.000" out="00:00:00.983">
  <property name="length">60</property>
  <property name="eof">pause</property>
  <property name="resource">/home/xiaoxiae/.cache/kdenlive/proxy/78b6163da73b782bcbeb61d25c473448.mov</property>
  <property name="audio_index">-1</property>
  <property name="video_index">0</property>
  <property name="mute_on_pause">0</property>
  <property name="mlt_service">avformat-novalidate</property>
  <property name="seekable">1</property>
  <property name="aspect_ratio">1</property>
  <property name="kdenlive:clipname">23.mp4</property>
  <property name="kdenlive:folderid">171</property>
  <property name="kdenlive:id">186</property>
  <property name="kdenlive:file_size">95492</property>
  <property name="kdenlive:proxy">/home/xiaoxiae/.cache/kdenlive/proxy/78b6163da73b782bcbeb61d25c473448.mov</property>
  <property name="kdenlive:originalurl">video/Motivation/vid/23.mp4</property>
  <property name="kdenlive:original.mlt_type">producer</property>
  <property name="kdenlive:original.in">0</property>
  <property name="kdenlive:original.out">59</property>
  <property name="kdenlive:original.length">60</property>
  <property name="kdenlive:original.eof">pause</property>
  <property name="kdenlive:original.resource">video/Motivation/vid/23.mp4</property>
  <property name="kdenlive:original.meta.media.nb_streams">1</property>
  <property name="kdenlive:original.meta.media.0.stream.type">video</property>
  <property name="kdenlive:original.meta.media.0.stream.frame_rate">60</property>
  <property name="kdenlive:original.meta.media.0.stream.sample_aspect_ratio">0</property>
  <property name="kdenlive:original.meta.media.0.codec.width">3840</property>
  <property name="kdenlive:original.meta.media.0.codec.height">2160</property>
  <property name="kdenlive:original.meta.media.0.codec.rotate">0</property>
  <property name="kdenlive:original.meta.media.0.codec.pix_fmt">yuv420p</property>
  <property name="kdenlive:original.meta.media.0.codec.sample_aspect_ratio">0</property>
  <property name="kdenlive:original.meta.media.0.codec.colorspace">709</property>
  <property name="kdenlive:original.meta.media.0.codec.name">h264</property>
  <property name="kdenlive:original.meta.media.0.codec.long_name">H.264 / AVC / MPEG-4 AVC / MPEG-4 part 10</property>
  <property name="kdenlive:original.meta.media.0.codec.bit_rate">750880</property>
  <property name="kdenlive:original.meta.attr.0.stream.handler_name.markup">VideoHandler</property>
  <property name="kdenlive:original.meta.attr.0.stream.vendor_id.markup">[0][0][0][0]</property>
  <property name="kdenlive:original.meta.attr.major_brand.markup">isom</property>
  <property name="kdenlive:original.meta.attr.minor_version.markup">512</property>
  <property name="kdenlive:original.meta.attr.compatible_brands.markup">isomiso2avc1mp41</property>
  <property name="kdenlive:original.meta.attr.encoder.markup">Lavf58.76.100</property>
  <property name="kdenlive:original.meta.attr.comment.markup">Rendered with Manim Community v0.12.0</property>
  <property name="kdenlive:original.seekable">1</property>
  <property name="kdenlive:original.width">3840</property>
  <property name="kdenlive:original.height">2160</property>
  <property name="kdenlive:original.meta.media.sample_aspect_num">1</property>
  <property name="kdenlive:original.meta.media.sample_aspect_den">1</property>
  <property name="kdenlive:original.aspect_ratio">1</property>
  <property name="kdenlive:original.audio_index">-1</property>
  <property name="kdenlive:original.video_index">0</property>
  <property name="kdenlive:original.mute_on_pause">0</property>
  <property name="kdenlive:original.mlt_service">avformat-novalidate</property>
  <property name="kdenlive:original.kdenlive:folderid">171</property>
  <property name="kdenlive:original.meta.media.frame_rate_num">60</property>
  <property name="kdenlive:original.meta.media.frame_rate_den">1</property>
  <property name="kdenlive:original.meta.media.colorspace">709</property>
  <property name="kdenlive:original.meta.media.color_trc">2</property>
  <property name="kdenlive:original.meta.media.has_b_frames">2</property>
  <property name="kdenlive:original.meta.media.width">3840</property>
  <property name="kdenlive:original.meta.media.height">2160</property>
  <property name="kdenlive:original.meta.media.color_range">mpeg</property>
  <property name="kdenlive:original.kdenlive:id">187</property>
  <property name="kdenlive:original.kdenlive:file_size">95492</property>
  <property name="kdenlive:original.kdenlive:file_hash">78b6163da73b782bcbeb61d25c473448</property>
  <property name="kdenlive:original.backup">1</property>
  <property name="kdenlive:file_hash">78b6163da73b782bcbeb61d25c473448</property>
  <property name="xml">was here</property>
  <property name="meta.media.nb_streams">1</property>
  <property name="meta.media.0.stream.type">video</property>
  <property name="meta.media.0.stream.frame_rate">60</property>
  <property name="meta.media.0.stream.sample_aspect_ratio">0</property>
  <property name="meta.media.0.codec.width">640</property>
  <property name="meta.media.0.codec.height">360</property>
  <property name="meta.media.0.codec.rotate">0</property>
  <property name="meta.media.0.codec.pix_fmt">yuv420p</property>
  <property name="meta.media.0.codec.sample_aspect_ratio">0</property>
  <property name="meta.media.0.codec.colorspace">601</property>
  <property name="meta.media.0.codec.name">h264</property>
  <property name="meta.media.0.codec.long_name">H.264 / AVC / MPEG-4 AVC / MPEG-4 part 10</property>
  <property name="meta.media.0.codec.bit_rate">2035800</property>
  <property name="meta.attr.0.stream.handler_name.markup">VideoHandler</property>
  <property name="meta.attr.0.stream.vendor_id.markup">FFMP</property>
  <property name="meta.attr.0.stream.encoder.markup">Lavc58.134.100 libx264</property>
  <property name="meta.attr.major_brand.markup">qt  </property>
  <property name="meta.attr.minor_version.markup">512</property>
  <property name="meta.attr.compatible_brands.markup">qt  </property>
  <property name="meta.attr.encoder.markup">Lavf58.76.100</property>
  <property name="meta.attr.comment.markup">Rendered with Manim Community v0.12.0</property>
  <property name="meta.media.sample_aspect_num">1</property>
  <property name="meta.media.sample_aspect_den">1</property>
  <property name="meta.media.frame_rate_num">60</property>
  <property name="meta.media.frame_rate_den">1</property>
  <property name="meta.media.colorspace">601</property>
  <property name="meta.media.color_trc">2</property>
  <property name="meta.media.has_b_frames">0</property>
  <property name="meta.media.width">640</property>
  <property name="meta.media.height">360</property>
  <property name="meta.media.color_range">mpeg</property>
  <property name="set.test_audio">1</property>
  <property name="set.test_image">0</property>
 </producer>
 <producer id="producer446" in="00:00:00.000" out="00:00:01.783">
  <property name="length">108</property>
  <property name="eof">pause</property>
  <property name="resource">/home/xiaoxiae/.cache/kdenlive/proxy/41032412063fab96e293e556dc994d5e.mov</property>
  <property name="audio_index">-1</property>
  <property name="video_index">0</property>
  <property name="mute_on_pause">0</property>
  <property name="mlt_service">avformat-novalidate</property>
  <property name="seekable">1</property>
  <property name="aspect_ratio">1</property>
  <property name="kdenlive:clipname">24.mp4</property>
  <property name="kdenlive:folderid">171</property>
  <property name="kdenlive:id">187</property>
  <property name="kdenlive:file_size">482819</property>
  <property name="kdenlive:proxy">/home/xiaoxiae/.cache/kdenlive/proxy/41032412063fab96e293e556dc994d5e.mov</property>
  <property name="kdenlive:originalurl">video/Motivation/vid/24.mp4</property>
  <property name="kdenlive:original.mlt_type">producer</property>
  <property name="kdenlive:original.in">0</property>
  <property name="kdenlive:original.out">107</property>
  <property name="kdenlive:original.length">108</property>
  <property name="kdenlive:original.eof">pause</property>
  <property name="kdenlive:original.resource">video/Motivation/vid/24.mp4</property>
  <property name="kdenlive:original.meta.media.nb_streams">1</property>
  <property name="kdenlive:original.meta.media.0.stream.type">video</property>
  <property name="kdenlive:original.meta.media.0.stream.frame_rate">60</property>
  <property name="kdenlive:original.meta.media.0.stream.sample_aspect_ratio">0</property>
  <property name="kdenlive:original.meta.media.0.codec.width">3840</property>
  <property name="kdenlive:original.meta.media.0.codec.height">2160</property>
  <property name="kdenlive:original.meta.media.0.codec.rotate">0</property>
  <property name="kdenlive:original.meta.media.0.codec.pix_fmt">yuv420p</property>
  <property name="kdenlive:original.meta.media.0.codec.sample_aspect_ratio">0</property>
  <property name="kdenlive:original.meta.media.0.codec.colorspace">709</property>
  <property name="kdenlive:original.meta.media.0.codec.name">h264</property>
  <property name="kdenlive:original.meta.media.0.codec.long_name">H.264 / AVC / MPEG-4 AVC / MPEG-4 part 10</property>
  <property name="kdenlive:original.meta.media.0.codec.bit_rate">2138786</property>
  <property name="kdenlive:original.meta.attr.0.stream.handler_name.markup">VideoHandler</property>
  <property name="kdenlive:original.meta.attr.0.stream.vendor_id.markup">[0][0][0][0]</property>
  <property name="kdenlive:original.meta.attr.major_brand.markup">isom</property>
  <property name="kdenlive:original.meta.attr.minor_version.markup">512</property>
  <property name="kdenlive:original.meta.attr.compatible_brands.markup">isomiso2avc1mp41</property>
  <property name="kdenlive:original.meta.attr.encoder.markup">Lavf58.76.100</property>
  <property name="kdenlive:original.meta.attr.comment.markup">Rendered with Manim Community v0.12.0</property>
  <property name="kdenlive:original.seekable">1</property>
  <property name="kdenlive:original.width">3840</property>
  <property name="kdenlive:original.height">2160</property>
  <property name="kdenlive:original.meta.media.sample_aspect_num">1</property>
  <property name="kdenlive:original.meta.media.sample_aspect_den">1</property>
  <property name="kdenlive:original.aspect_ratio">1</property>
  <property name="kdenlive:original.audio_index">-1</property>
  <property name="kdenlive:original.video_index">0</property>
  <property name="kdenlive:original.mute_on_pause">0</property>
  <property name="kdenlive:original.mlt_service">avformat-novalidate</property>
  <property name="kdenlive:original.kdenlive:folderid">171</property>
  <property name="kdenlive:original.meta.media.frame_rate_num">60</property>
  <property name="kdenlive:original.meta.media.frame_rate_den">1</property>
  <property name="kdenlive:original.meta.media.colorspace">709</property>
  <property name="kdenlive:original.meta.media.color_trc">2</property>
  <property name="kdenlive:original.meta.media.has_b_frames">2</property>
  <property name="kdenlive:original.meta.media.width">3840</property>
  <property name="kdenlive:original.meta.media.height">2160</property>
  <property name="kdenlive:original.meta.media.color_range">mpeg</property>
  <property name="kdenlive:original.kdenlive:id">188</property>
  <property name="kdenlive:original.kdenlive:file_size">482819</property>
  <property name="kdenlive:original.kdenlive:file_hash">41032412063fab96e293e556dc994d5e</property>
  <property name="kdenlive:original.backup">1</property>
  <property name="kdenlive:file_hash">41032412063fab96e293e556dc994d5e</property>
  <property name="xml">was here</property>
  <property name="meta.media.nb_streams">1</property>
  <property name="meta.media.0.stream.type">video</property>
  <property name="meta.media.0.stream.frame_rate">60</property>
  <property name="meta.media.0.stream.sample_aspect_ratio">0</property>
  <property name="meta.media.0.codec.width">640</property>
  <property name="meta.media.0.codec.height">360</property>
  <property name="meta.media.0.codec.rotate">0</property>
  <property name="meta.media.0.codec.pix_fmt">yuv420p</property>
  <property name="meta.media.0.codec.sample_aspect_ratio">0</property>
  <property name="meta.media.0.codec.colorspace">601</property>
  <property name="meta.media.0.codec.name">h264</property>
  <property name="meta.media.0.codec.long_name">H.264 / AVC / MPEG-4 AVC / MPEG-4 part 10</property>
  <property name="meta.media.0.codec.bit_rate">2822293</property>
  <property name="meta.attr.0.stream.handler_name.markup">VideoHandler</property>
  <property name="meta.attr.0.stream.vendor_id.markup">FFMP</property>
  <property name="meta.attr.0.stream.encoder.markup">Lavc58.134.100 libx264</property>
  <property name="meta.attr.major_brand.markup">qt  </property>
  <property name="meta.attr.minor_version.markup">512</property>
  <property name="meta.attr.compatible_brands.markup">qt  </property>
  <property name="meta.attr.encoder.markup">Lavf58.76.100</property>
  <property name="meta.attr.comment.markup">Rendered with Manim Community v0.12.0</property>
  <property name="meta.media.sample_aspect_num">1</property>
  <property name="meta.media.sample_aspect_den">1</property>
  <property name="meta.media.frame_rate_num">60</property>
  <property name="meta.media.frame_rate_den">1</property>
  <property name="meta.media.colorspace">601</property>
  <property name="meta.media.color_trc">2</property>
  <property name="meta.media.has_b_frames">0</property>
  <property name="meta.media.width">640</property>
  <property name="meta.media.height">360</property>
  <property name="meta.media.color_range">mpeg</property>
  <property name="set.test_audio">1</property>
  <property name="set.test_image">0</property>
 </producer>
 <producer id="producer447" in="00:00:00.000" out="00:00:00.983">
  <property name="length">60</property>
  <property name="eof">pause</property>
  <property name="resource">/home/xiaoxiae/.cache/kdenlive/proxy/acebef8360dad60194e0d79fef726d5c.mov</property>
  <property name="audio_index">-1</property>
  <property name="video_index">0</property>
  <property name="mute_on_pause">0</property>
  <property name="mlt_service">avformat-novalidate</property>
  <property name="seekable">1</property>
  <property name="aspect_ratio">1</property>
  <property name="kdenlive:clipname">25.mp4</property>
  <property name="kdenlive:folderid">171</property>
  <property name="kdenlive:id">188</property>
  <property name="kdenlive:file_size">156748</property>
  <property name="kdenlive:proxy">/home/xiaoxiae/.cache/kdenlive/proxy/acebef8360dad60194e0d79fef726d5c.mov</property>
  <property name="kdenlive:originalurl">video/Motivation/vid/25.mp4</property>
  <property name="kdenlive:original.mlt_type">producer</property>
  <property name="kdenlive:original.in">0</property>
  <property name="kdenlive:original.out">59</property>
  <property name="kdenlive:original.length">60</property>
  <property name="kdenlive:original.eof">pause</property>
  <property name="kdenlive:original.resource">video/Motivation/vid/25.mp4</property>
  <property name="kdenlive:original.meta.media.nb_streams">1</property>
  <property name="kdenlive:original.meta.media.0.stream.type">video</property>
  <property name="kdenlive:original.meta.media.0.stream.frame_rate">60</property>
  <property name="kdenlive:original.meta.media.0.stream.sample_aspect_ratio">0</property>
  <property name="kdenlive:original.meta.media.0.codec.width">3840</property>
  <property name="kdenlive:original.meta.media.0.codec.height">2160</property>
  <property name="kdenlive:original.meta.media.0.codec.rotate">0</property>
  <property name="kdenlive:original.meta.media.0.codec.pix_fmt">yuv420p</property>
  <property name="kdenlive:original.meta.media.0.codec.sample_aspect_ratio">0</property>
  <property name="kdenlive:original.meta.media.0.codec.colorspace">709</property>
  <property name="kdenlive:original.meta.media.0.codec.name">h264</property>
  <property name="kdenlive:original.meta.media.0.codec.long_name">H.264 / AVC / MPEG-4 AVC / MPEG-4 part 10</property>
  <property name="kdenlive:original.meta.media.0.codec.bit_rate">1240928</property>
  <property name="kdenlive:original.meta.attr.0.stream.handler_name.markup">VideoHandler</property>
  <property name="kdenlive:original.meta.attr.0.stream.vendor_id.markup">[0][0][0][0]</property>
  <property name="kdenlive:original.meta.attr.major_brand.markup">isom</property>
  <property name="kdenlive:original.meta.attr.minor_version.markup">512</property>
  <property name="kdenlive:original.meta.attr.compatible_brands.markup">isomiso2avc1mp41</property>
  <property name="kdenlive:original.meta.attr.encoder.markup">Lavf58.76.100</property>
  <property name="kdenlive:original.meta.attr.comment.markup">Rendered with Manim Community v0.12.0</property>
  <property name="kdenlive:original.seekable">1</property>
  <property name="kdenlive:original.width">3840</property>
  <property name="kdenlive:original.height">2160</property>
  <property name="kdenlive:original.meta.media.sample_aspect_num">1</property>
  <property name="kdenlive:original.meta.media.sample_aspect_den">1</property>
  <property name="kdenlive:original.aspect_ratio">1</property>
  <property name="kdenlive:original.audio_index">-1</property>
  <property name="kdenlive:original.video_index">0</property>
  <property name="kdenlive:original.mute_on_pause">0</property>
  <property name="kdenlive:original.mlt_service">avformat-novalidate</property>
  <property name="kdenlive:original.kdenlive:folderid">171</property>
  <property name="kdenlive:original.meta.media.frame_rate_num">60</property>
  <property name="kdenlive:original.meta.media.frame_rate_den">1</property>
  <property name="kdenlive:original.meta.media.colorspace">709</property>
  <property name="kdenlive:original.meta.media.color_trc">2</property>
  <property name="kdenlive:original.meta.media.has_b_frames">2</property>
  <property name="kdenlive:original.meta.media.width">3840</property>
  <property name="kdenlive:original.meta.media.height">2160</property>
  <property name="kdenlive:original.meta.media.color_range">mpeg</property>
  <property name="kdenlive:original.kdenlive:id">189</property>
  <property name="kdenlive:original.kdenlive:file_size">156748</property>
  <property name="kdenlive:original.kdenlive:file_hash">acebef8360dad60194e0d79fef726d5c</property>
  <property name="kdenlive:original.backup">1</property>
  <property name="kdenlive:file_hash">acebef8360dad60194e0d79fef726d5c</property>
  <property name="xml">was here</property>
  <property name="meta.media.nb_streams">1</property>
  <property name="meta.media.0.stream.type">video</property>
  <property name="meta.media.0.stream.frame_rate">60</property>
  <property name="meta.media.0.stream.sample_aspect_ratio">0</property>
  <property name="meta.media.0.codec.width">640</property>
  <property name="meta.media.0.codec.height">360</property>
  <property name="meta.media.0.codec.rotate">0</property>
  <property name="meta.media.0.codec.pix_fmt">yuv420p</property>
  <property name="meta.media.0.codec.sample_aspect_ratio">0</property>
  <property name="meta.media.0.codec.colorspace">601</property>
  <property name="meta.media.0.codec.name">h264</property>
  <property name="meta.media.0.codec.long_name">H.264 / AVC / MPEG-4 AVC / MPEG-4 part 10</property>
  <property name="meta.media.0.codec.bit_rate">3727168</property>
  <property name="meta.attr.0.stream.handler_name.markup">VideoHandler</property>
  <property name="meta.attr.0.stream.vendor_id.markup">FFMP</property>
  <property name="meta.attr.0.stream.encoder.markup">Lavc58.134.100 libx264</property>
  <property name="meta.attr.major_brand.markup">qt  </property>
  <property name="meta.attr.minor_version.markup">512</property>
  <property name="meta.attr.compatible_brands.markup">qt  </property>
  <property name="meta.attr.encoder.markup">Lavf58.76.100</property>
  <property name="meta.attr.comment.markup">Rendered with Manim Community v0.12.0</property>
  <property name="meta.media.sample_aspect_num">1</property>
  <property name="meta.media.sample_aspect_den">1</property>
  <property name="meta.media.frame_rate_num">60</property>
  <property name="meta.media.frame_rate_den">1</property>
  <property name="meta.media.colorspace">601</property>
  <property name="meta.media.color_trc">2</property>
  <property name="meta.media.has_b_frames">0</property>
  <property name="meta.media.width">640</property>
  <property name="meta.media.height">360</property>
  <property name="meta.media.color_range">mpeg</property>
  <property name="set.test_audio">1</property>
  <property name="set.test_image">0</property>
 </producer>
 <producer id="producer448" in="00:00:00.000" out="00:00:00.983">
  <property name="length">60</property>
  <property name="eof">pause</property>
  <property name="resource">/home/xiaoxiae/.cache/kdenlive/proxy/570335d9bdf36204c580657ab249192c.mov</property>
  <property name="audio_index">-1</property>
  <property name="video_index">0</property>
  <property name="mute_on_pause">0</property>
  <property name="mlt_service">avformat-novalidate</property>
  <property name="seekable">1</property>
  <property name="aspect_ratio">1</property>
  <property name="kdenlive:clipname">26.mp4</property>
  <property name="kdenlive:folderid">171</property>
  <property name="kdenlive:file_size">269428</property>
  <property name="kdenlive:id">189</property>
  <property name="kdenlive:proxy">/home/xiaoxiae/.cache/kdenlive/proxy/570335d9bdf36204c580657ab249192c.mov</property>
  <property name="kdenlive:originalurl">video/Motivation/vid/26.mp4</property>
  <property name="kdenlive:original.mlt_type">producer</property>
  <property name="kdenlive:original.in">0</property>
  <property name="kdenlive:original.out">59</property>
  <property name="kdenlive:original.length">60</property>
  <property name="kdenlive:original.eof">pause</property>
  <property name="kdenlive:original.resource">video/Motivation/vid/26.mp4</property>
  <property name="kdenlive:original.meta.media.nb_streams">1</property>
  <property name="kdenlive:original.meta.media.0.stream.type">video</property>
  <property name="kdenlive:original.meta.media.0.stream.frame_rate">60</property>
  <property name="kdenlive:original.meta.media.0.stream.sample_aspect_ratio">0</property>
  <property name="kdenlive:original.meta.media.0.codec.width">3840</property>
  <property name="kdenlive:original.meta.media.0.codec.height">2160</property>
  <property name="kdenlive:original.meta.media.0.codec.rotate">0</property>
  <property name="kdenlive:original.meta.media.0.codec.pix_fmt">yuv420p</property>
  <property name="kdenlive:original.meta.media.0.codec.sample_aspect_ratio">0</property>
  <property name="kdenlive:original.meta.media.0.codec.colorspace">709</property>
  <property name="kdenlive:original.meta.media.0.codec.name">h264</property>
  <property name="kdenlive:original.meta.media.0.codec.long_name">H.264 / AVC / MPEG-4 AVC / MPEG-4 part 10</property>
  <property name="kdenlive:original.meta.media.0.codec.bit_rate">2142624</property>
  <property name="kdenlive:original.meta.attr.0.stream.handler_name.markup">VideoHandler</property>
  <property name="kdenlive:original.meta.attr.0.stream.vendor_id.markup">[0][0][0][0]</property>
  <property name="kdenlive:original.meta.attr.major_brand.markup">isom</property>
  <property name="kdenlive:original.meta.attr.minor_version.markup">512</property>
  <property name="kdenlive:original.meta.attr.compatible_brands.markup">isomiso2avc1mp41</property>
  <property name="kdenlive:original.meta.attr.encoder.markup">Lavf58.76.100</property>
  <property name="kdenlive:original.meta.attr.comment.markup">Rendered with Manim Community v0.12.0</property>
  <property name="kdenlive:original.seekable">1</property>
  <property name="kdenlive:original.width">3840</property>
  <property name="kdenlive:original.height">2160</property>
  <property name="kdenlive:original.meta.media.sample_aspect_num">1</property>
  <property name="kdenlive:original.meta.media.sample_aspect_den">1</property>
  <property name="kdenlive:original.aspect_ratio">1</property>
  <property name="kdenlive:original.audio_index">-1</property>
  <property name="kdenlive:original.video_index">0</property>
  <property name="kdenlive:original.mute_on_pause">0</property>
  <property name="kdenlive:original.mlt_service">avformat-novalidate</property>
  <property name="kdenlive:original.kdenlive:folderid">171</property>
  <property name="kdenlive:original.kdenlive:file_size">269428</property>
  <property name="kdenlive:original.meta.media.frame_rate_num">60</property>
  <property name="kdenlive:original.meta.media.frame_rate_den">1</property>
  <property name="kdenlive:original.meta.media.colorspace">709</property>
  <property name="kdenlive:original.meta.media.color_trc">2</property>
  <property name="kdenlive:original.meta.media.has_b_frames">2</property>
  <property name="kdenlive:original.meta.media.width">3840</property>
  <property name="kdenlive:original.meta.media.height">2160</property>
  <property name="kdenlive:original.meta.media.color_range">mpeg</property>
  <property name="kdenlive:original.kdenlive:id">190</property>
  <property name="kdenlive:original.kdenlive:file_hash">570335d9bdf36204c580657ab249192c</property>
  <property name="kdenlive:original.backup">1</property>
  <property name="kdenlive:file_hash">570335d9bdf36204c580657ab249192c</property>
  <property name="xml">was here</property>
  <property name="meta.media.nb_streams">1</property>
  <property name="meta.media.0.stream.type">video</property>
  <property name="meta.media.0.stream.frame_rate">60</property>
  <property name="meta.media.0.stream.sample_aspect_ratio">0</property>
  <property name="meta.media.0.codec.width">640</property>
  <property name="meta.media.0.codec.height">360</property>
  <property name="meta.media.0.codec.rotate">0</property>
  <property name="meta.media.0.codec.pix_fmt">yuv420p</property>
  <property name="meta.media.0.codec.sample_aspect_ratio">0</property>
  <property name="meta.media.0.codec.colorspace">601</property>
  <property name="meta.media.0.codec.name">h264</property>
  <property name="meta.media.0.codec.long_name">H.264 / AVC / MPEG-4 AVC / MPEG-4 part 10</property>
  <property name="meta.media.0.codec.bit_rate">3452952</property>
  <property name="meta.attr.0.stream.handler_name.markup">VideoHandler</property>
  <property name="meta.attr.0.stream.vendor_id.markup">FFMP</property>
  <property name="meta.attr.0.stream.encoder.markup">Lavc58.134.100 libx264</property>
  <property name="meta.attr.major_brand.markup">qt  </property>
  <property name="meta.attr.minor_version.markup">512</property>
  <property name="meta.attr.compatible_brands.markup">qt  </property>
  <property name="meta.attr.encoder.markup">Lavf58.76.100</property>
  <property name="meta.attr.comment.markup">Rendered with Manim Community v0.12.0</property>
  <property name="meta.media.sample_aspect_num">1</property>
  <property name="meta.media.sample_aspect_den">1</property>
  <property name="meta.media.frame_rate_num">60</property>
  <property name="meta.media.frame_rate_den">1</property>
  <property name="meta.media.colorspace">601</property>
  <property name="meta.media.color_trc">2</property>
  <property name="meta.media.has_b_frames">0</property>
  <property name="meta.media.width">640</property>
  <property name="meta.media.height">360</property>
  <property name="meta.media.color_range">mpeg</property>
  <property name="set.test_audio">1</property>
  <property name="set.test_image">0</property>
 </producer>
 <producer id="producer449" in="00:00:00.000" out="00:00:00.983">
  <property name="length">60</property>
  <property name="eof">pause</property>
  <property name="resource">/home/xiaoxiae/.cache/kdenlive/proxy/8900df1b46674ad2b8f48bb4d4fa3444.mov</property>
  <property name="audio_index">-1</property>
  <property name="video_index">0</property>
  <property name="mute_on_pause">0</property>
  <property name="mlt_service">avformat-novalidate</property>
  <property name="seekable">1</property>
  <property name="aspect_ratio">1</property>
  <property name="kdenlive:clipname">27.mp4</property>
  <property name="kdenlive:folderid">171</property>
  <property name="kdenlive:id">190</property>
  <property name="kdenlive:file_size">369678</property>
  <property name="kdenlive:proxy">/home/xiaoxiae/.cache/kdenlive/proxy/8900df1b46674ad2b8f48bb4d4fa3444.mov</property>
  <property name="kdenlive:originalurl">video/Motivation/vid/27.mp4</property>
  <property name="kdenlive:original.mlt_type">producer</property>
  <property name="kdenlive:original.in">0</property>
  <property name="kdenlive:original.out">59</property>
  <property name="kdenlive:original.length">60</property>
  <property name="kdenlive:original.eof">pause</property>
  <property name="kdenlive:original.resource">video/Motivation/vid/27.mp4</property>
  <property name="kdenlive:original.meta.media.nb_streams">1</property>
  <property name="kdenlive:original.meta.media.0.stream.type">video</property>
  <property name="kdenlive:original.meta.media.0.stream.frame_rate">60</property>
  <property name="kdenlive:original.meta.media.0.stream.sample_aspect_ratio">0</property>
  <property name="kdenlive:original.meta.media.0.codec.width">3840</property>
  <property name="kdenlive:original.meta.media.0.codec.height">2160</property>
  <property name="kdenlive:original.meta.media.0.codec.rotate">0</property>
  <property name="kdenlive:original.meta.media.0.codec.pix_fmt">yuv420p</property>
  <property name="kdenlive:original.meta.media.0.codec.sample_aspect_ratio">0</property>
  <property name="kdenlive:original.meta.media.0.codec.colorspace">709</property>
  <property name="kdenlive:original.meta.media.0.codec.name">h264</property>
  <property name="kdenlive:original.meta.media.0.codec.long_name">H.264 / AVC / MPEG-4 AVC / MPEG-4 part 10</property>
  <property name="kdenlive:original.meta.media.0.codec.bit_rate">2944944</property>
  <property name="kdenlive:original.meta.attr.0.stream.handler_name.markup">VideoHandler</property>
  <property name="kdenlive:original.meta.attr.0.stream.vendor_id.markup">[0][0][0][0]</property>
  <property name="kdenlive:original.meta.attr.major_brand.markup">isom</property>
  <property name="kdenlive:original.meta.attr.minor_version.markup">512</property>
  <property name="kdenlive:original.meta.attr.compatible_brands.markup">isomiso2avc1mp41</property>
  <property name="kdenlive:original.meta.attr.encoder.markup">Lavf58.76.100</property>
  <property name="kdenlive:original.meta.attr.comment.markup">Rendered with Manim Community v0.12.0</property>
  <property name="kdenlive:original.seekable">1</property>
  <property name="kdenlive:original.width">3840</property>
  <property name="kdenlive:original.height">2160</property>
  <property name="kdenlive:original.meta.media.sample_aspect_num">1</property>
  <property name="kdenlive:original.meta.media.sample_aspect_den">1</property>
  <property name="kdenlive:original.aspect_ratio">1</property>
  <property name="kdenlive:original.audio_index">-1</property>
  <property name="kdenlive:original.video_index">0</property>
  <property name="kdenlive:original.mute_on_pause">0</property>
  <property name="kdenlive:original.mlt_service">avformat-novalidate</property>
  <property name="kdenlive:original.kdenlive:folderid">171</property>
  <property name="kdenlive:original.meta.media.frame_rate_num">60</property>
  <property name="kdenlive:original.meta.media.frame_rate_den">1</property>
  <property name="kdenlive:original.meta.media.colorspace">709</property>
  <property name="kdenlive:original.meta.media.color_trc">2</property>
  <property name="kdenlive:original.meta.media.has_b_frames">2</property>
  <property name="kdenlive:original.meta.media.width">3840</property>
  <property name="kdenlive:original.meta.media.height">2160</property>
  <property name="kdenlive:original.meta.media.color_range">mpeg</property>
  <property name="kdenlive:original.kdenlive:id">191</property>
  <property name="kdenlive:original.kdenlive:file_size">369678</property>
  <property name="kdenlive:original.kdenlive:file_hash">8900df1b46674ad2b8f48bb4d4fa3444</property>
  <property name="kdenlive:original.backup">1</property>
  <property name="kdenlive:file_hash">8900df1b46674ad2b8f48bb4d4fa3444</property>
  <property name="xml">was here</property>
  <property name="meta.media.nb_streams">1</property>
  <property name="meta.media.0.stream.type">video</property>
  <property name="meta.media.0.stream.frame_rate">60</property>
  <property name="meta.media.0.stream.sample_aspect_ratio">0</property>
  <property name="meta.media.0.codec.width">640</property>
  <property name="meta.media.0.codec.height">360</property>
  <property name="meta.media.0.codec.rotate">0</property>
  <property name="meta.media.0.codec.pix_fmt">yuv420p</property>
  <property name="meta.media.0.codec.sample_aspect_ratio">0</property>
  <property name="meta.media.0.codec.colorspace">601</property>
  <property name="meta.media.0.codec.name">h264</property>
  <property name="meta.media.0.codec.long_name">H.264 / AVC / MPEG-4 AVC / MPEG-4 part 10</property>
  <property name="meta.media.0.codec.bit_rate">2291800</property>
  <property name="meta.attr.0.stream.handler_name.markup">VideoHandler</property>
  <property name="meta.attr.0.stream.vendor_id.markup">FFMP</property>
  <property name="meta.attr.0.stream.encoder.markup">Lavc58.134.100 libx264</property>
  <property name="meta.attr.major_brand.markup">qt  </property>
  <property name="meta.attr.minor_version.markup">512</property>
  <property name="meta.attr.compatible_brands.markup">qt  </property>
  <property name="meta.attr.encoder.markup">Lavf58.76.100</property>
  <property name="meta.attr.comment.markup">Rendered with Manim Community v0.12.0</property>
  <property name="meta.media.sample_aspect_num">1</property>
  <property name="meta.media.sample_aspect_den">1</property>
  <property name="meta.media.frame_rate_num">60</property>
  <property name="meta.media.frame_rate_den">1</property>
  <property name="meta.media.colorspace">601</property>
  <property name="meta.media.color_trc">2</property>
  <property name="meta.media.has_b_frames">0</property>
  <property name="meta.media.width">640</property>
  <property name="meta.media.height">360</property>
  <property name="meta.media.color_range">mpeg</property>
  <property name="set.test_audio">1</property>
  <property name="set.test_image">0</property>
  <property name="meta.media.top_field_first">0</property>
  <property name="meta.media.progressive">1</property>
 </producer>
 <producer id="producer450" in="00:00:00.000" out="00:00:00.983">
  <property name="length">60</property>
  <property name="eof">pause</property>
  <property name="resource">/home/xiaoxiae/.cache/kdenlive/proxy/9cae017f95629eefcf96b0deacc56217.mov</property>
  <property name="audio_index">-1</property>
  <property name="video_index">0</property>
  <property name="mute_on_pause">0</property>
  <property name="mlt_service">avformat-novalidate</property>
  <property name="seekable">1</property>
  <property name="aspect_ratio">1</property>
  <property name="kdenlive:clipname">1.mp4</property>
  <property name="kdenlive:folderid">314</property>
  <property name="kdenlive:id">313</property>
  <property name="kdenlive:file_size">70508</property>
  <property name="kdenlive:proxy">/home/xiaoxiae/.cache/kdenlive/proxy/9cae017f95629eefcf96b0deacc56217.mov</property>
  <property name="kdenlive:originalurl">video/ProgrammingModel/vid/1.mp4</property>
  <property name="kdenlive:original.mlt_type">producer</property>
  <property name="kdenlive:original.in">0</property>
  <property name="kdenlive:original.out">59</property>
  <property name="kdenlive:original.length">60</property>
  <property name="kdenlive:original.eof">pause</property>
  <property name="kdenlive:original.resource">video/ProgrammingModel/vid/1.mp4</property>
  <property name="kdenlive:original.meta.media.nb_streams">1</property>
  <property name="kdenlive:original.meta.media.0.stream.type">video</property>
  <property name="kdenlive:original.meta.media.0.stream.frame_rate">60</property>
  <property name="kdenlive:original.meta.media.0.stream.sample_aspect_ratio">0</property>
  <property name="kdenlive:original.meta.media.0.codec.width">3840</property>
  <property name="kdenlive:original.meta.media.0.codec.height">2160</property>
  <property name="kdenlive:original.meta.media.0.codec.rotate">0</property>
  <property name="kdenlive:original.meta.media.0.codec.pix_fmt">yuv420p</property>
  <property name="kdenlive:original.meta.media.0.codec.sample_aspect_ratio">0</property>
  <property name="kdenlive:original.meta.media.0.codec.colorspace">709</property>
  <property name="kdenlive:original.meta.media.0.codec.name">h264</property>
  <property name="kdenlive:original.meta.media.0.codec.long_name">H.264 / AVC / MPEG-4 AVC / MPEG-4 part 10</property>
  <property name="kdenlive:original.meta.media.0.codec.bit_rate">551072</property>
  <property name="kdenlive:original.meta.attr.0.stream.handler_name.markup">VideoHandler</property>
  <property name="kdenlive:original.meta.attr.0.stream.vendor_id.markup">[0][0][0][0]</property>
  <property name="kdenlive:original.meta.attr.major_brand.markup">isom</property>
  <property name="kdenlive:original.meta.attr.minor_version.markup">512</property>
  <property name="kdenlive:original.meta.attr.compatible_brands.markup">isomiso2avc1mp41</property>
  <property name="kdenlive:original.meta.attr.encoder.markup">Lavf58.76.100</property>
  <property name="kdenlive:original.meta.attr.comment.markup">Rendered with Manim Community v0.12.0</property>
  <property name="kdenlive:original.seekable">1</property>
  <property name="kdenlive:original.width">3840</property>
  <property name="kdenlive:original.height">2160</property>
  <property name="kdenlive:original.meta.media.sample_aspect_num">1</property>
  <property name="kdenlive:original.meta.media.sample_aspect_den">1</property>
  <property name="kdenlive:original.aspect_ratio">1</property>
  <property name="kdenlive:original.audio_index">-1</property>
  <property name="kdenlive:original.video_index">0</property>
  <property name="kdenlive:original.mute_on_pause">0</property>
  <property name="kdenlive:original.mlt_service">avformat-novalidate</property>
  <property name="kdenlive:original.kdenlive:folderid">314</property>
  <property name="kdenlive:original.meta.media.frame_rate_num">60</property>
  <property name="kdenlive:original.meta.media.frame_rate_den">1</property>
  <property name="kdenlive:original.meta.media.colorspace">709</property>
  <property name="kdenlive:original.meta.media.color_trc">2</property>
  <property name="kdenlive:original.meta.media.has_b_frames">2</property>
  <property name="kdenlive:original.meta.media.width">3840</property>
  <property name="kdenlive:original.meta.media.height">2160</property>
  <property name="kdenlive:original.meta.media.color_range">mpeg</property>
  <property name="kdenlive:original.kdenlive:id">315</property>
  <property name="kdenlive:original.kdenlive:file_size">70508</property>
  <property name="kdenlive:original.kdenlive:file_hash">9cae017f95629eefcf96b0deacc56217</property>
  <property name="kdenlive:original.backup">1</property>
  <property name="kdenlive:file_hash">9cae017f95629eefcf96b0deacc56217</property>
  <property name="xml">was here</property>
  <property name="meta.media.nb_streams">1</property>
  <property name="meta.media.0.stream.type">video</property>
  <property name="meta.media.0.stream.frame_rate">60</property>
  <property name="meta.media.0.stream.sample_aspect_ratio">0</property>
  <property name="meta.media.0.codec.width">640</property>
  <property name="meta.media.0.codec.height">360</property>
  <property name="meta.media.0.codec.rotate">0</property>
  <property name="meta.media.0.codec.pix_fmt">yuv420p</property>
  <property name="meta.media.0.codec.sample_aspect_ratio">0</property>
  <property name="meta.media.0.codec.colorspace">601</property>
  <property name="meta.media.0.codec.name">h264</property>
  <property name="meta.media.0.codec.long_name">H.264 / AVC / MPEG-4 AVC / MPEG-4 part 10</property>
  <property name="meta.media.0.codec.bit_rate">638952</property>
  <property name="meta.attr.0.stream.handler_name.markup">VideoHandler</property>
  <property name="meta.attr.0.stream.vendor_id.markup">FFMP</property>
  <property name="meta.attr.0.stream.encoder.markup">Lavc58.134.100 libx264</property>
  <property name="meta.attr.major_brand.markup">qt  </property>
  <property name="meta.attr.minor_version.markup">512</property>
  <property name="meta.attr.compatible_brands.markup">qt  </property>
  <property name="meta.attr.encoder.markup">Lavf58.76.100</property>
  <property name="meta.attr.comment.markup">Rendered with Manim Community v0.12.0</property>
  <property name="meta.media.sample_aspect_num">1</property>
  <property name="meta.media.sample_aspect_den">1</property>
  <property name="meta.media.frame_rate_num">60</property>
  <property name="meta.media.frame_rate_den">1</property>
  <property name="meta.media.colorspace">601</property>
  <property name="meta.media.color_trc">2</property>
  <property name="meta.media.has_b_frames">0</property>
  <property name="meta.media.width">640</property>
  <property name="meta.media.height">360</property>
  <property name="meta.media.color_range">mpeg</property>
  <property name="set.test_audio">1</property>
  <property name="set.test_image">0</property>
  <property name="meta.media.top_field_first">0</property>
  <property name="meta.media.progressive">1</property>
 </producer>
 <producer id="producer451" in="00:00:00.000" out="00:00:00.983">
  <property name="length">60</property>
  <property name="eof">pause</property>
  <property name="resource">/home/xiaoxiae/.cache/kdenlive/proxy/0229ac6cf50254b923c7610da8dc83ae.mov</property>
  <property name="audio_index">-1</property>
  <property name="video_index">0</property>
  <property name="mute_on_pause">0</property>
  <property name="mlt_service">avformat-novalidate</property>
  <property name="seekable">1</property>
  <property name="aspect_ratio">1</property>
  <property name="kdenlive:clipname">2.mp4</property>
  <property name="kdenlive:folderid">314</property>
  <property name="kdenlive:file_size">133332</property>
  <property name="kdenlive:id">325</property>
  <property name="kdenlive:proxy">/home/xiaoxiae/.cache/kdenlive/proxy/0229ac6cf50254b923c7610da8dc83ae.mov</property>
  <property name="kdenlive:originalurl">video/ProgrammingModel/vid/2.mp4</property>
  <property name="kdenlive:original.mlt_type">producer</property>
  <property name="kdenlive:original.in">0</property>
  <property name="kdenlive:original.out">59</property>
  <property name="kdenlive:original.length">60</property>
  <property name="kdenlive:original.eof">pause</property>
  <property name="kdenlive:original.resource">video/ProgrammingModel/vid/2.mp4</property>
  <property name="kdenlive:original.meta.media.nb_streams">1</property>
  <property name="kdenlive:original.meta.media.0.stream.type">video</property>
  <property name="kdenlive:original.meta.media.0.stream.frame_rate">60</property>
  <property name="kdenlive:original.meta.media.0.stream.sample_aspect_ratio">0</property>
  <property name="kdenlive:original.meta.media.0.codec.width">3840</property>
  <property name="kdenlive:original.meta.media.0.codec.height">2160</property>
  <property name="kdenlive:original.meta.media.0.codec.rotate">0</property>
  <property name="kdenlive:original.meta.media.0.codec.pix_fmt">yuv420p</property>
  <property name="kdenlive:original.meta.media.0.codec.sample_aspect_ratio">0</property>
  <property name="kdenlive:original.meta.media.0.codec.colorspace">709</property>
  <property name="kdenlive:original.meta.media.0.codec.name">h264</property>
  <property name="kdenlive:original.meta.media.0.codec.long_name">H.264 / AVC / MPEG-4 AVC / MPEG-4 part 10</property>
  <property name="kdenlive:original.meta.media.0.codec.bit_rate">1053856</property>
  <property name="kdenlive:original.meta.attr.0.stream.handler_name.markup">VideoHandler</property>
  <property name="kdenlive:original.meta.attr.0.stream.vendor_id.markup">[0][0][0][0]</property>
  <property name="kdenlive:original.meta.attr.major_brand.markup">isom</property>
  <property name="kdenlive:original.meta.attr.minor_version.markup">512</property>
  <property name="kdenlive:original.meta.attr.compatible_brands.markup">isomiso2avc1mp41</property>
  <property name="kdenlive:original.meta.attr.encoder.markup">Lavf58.76.100</property>
  <property name="kdenlive:original.meta.attr.comment.markup">Rendered with Manim Community v0.12.0</property>
  <property name="kdenlive:original.seekable">1</property>
  <property name="kdenlive:original.width">3840</property>
  <property name="kdenlive:original.height">2160</property>
  <property name="kdenlive:original.meta.media.sample_aspect_num">1</property>
  <property name="kdenlive:original.meta.media.sample_aspect_den">1</property>
  <property name="kdenlive:original.aspect_ratio">1</property>
  <property name="kdenlive:original.audio_index">-1</property>
  <property name="kdenlive:original.video_index">0</property>
  <property name="kdenlive:original.mute_on_pause">0</property>
  <property name="kdenlive:original.mlt_service">avformat-novalidate</property>
  <property name="kdenlive:original.kdenlive:folderid">314</property>
  <property name="kdenlive:original.kdenlive:file_size">133332</property>
  <property name="kdenlive:original.meta.media.frame_rate_num">60</property>
  <property name="kdenlive:original.meta.media.frame_rate_den">1</property>
  <property name="kdenlive:original.meta.media.colorspace">709</property>
  <property name="kdenlive:original.meta.media.color_trc">2</property>
  <property name="kdenlive:original.meta.media.has_b_frames">2</property>
  <property name="kdenlive:original.meta.media.width">3840</property>
  <property name="kdenlive:original.meta.media.height">2160</property>
  <property name="kdenlive:original.meta.media.color_range">mpeg</property>
  <property name="kdenlive:original.kdenlive:id">326</property>
  <property name="kdenlive:original.kdenlive:file_hash">0229ac6cf50254b923c7610da8dc83ae</property>
  <property name="kdenlive:original.backup">1</property>
  <property name="kdenlive:file_hash">0229ac6cf50254b923c7610da8dc83ae</property>
  <property name="xml">was here</property>
  <property name="meta.media.nb_streams">1</property>
  <property name="meta.media.0.stream.type">video</property>
  <property name="meta.media.0.stream.frame_rate">60</property>
  <property name="meta.media.0.stream.sample_aspect_ratio">0</property>
  <property name="meta.media.0.codec.width">640</property>
  <property name="meta.media.0.codec.height">360</property>
  <property name="meta.media.0.codec.rotate">0</property>
  <property name="meta.media.0.codec.pix_fmt">yuv420p</property>
  <property name="meta.media.0.codec.sample_aspect_ratio">0</property>
  <property name="meta.media.0.codec.colorspace">601</property>
  <property name="meta.media.0.codec.name">h264</property>
  <property name="meta.media.0.codec.long_name">H.264 / AVC / MPEG-4 AVC / MPEG-4 part 10</property>
  <property name="meta.media.0.codec.bit_rate">897176</property>
  <property name="meta.attr.0.stream.handler_name.markup">VideoHandler</property>
  <property name="meta.attr.0.stream.vendor_id.markup">FFMP</property>
  <property name="meta.attr.0.stream.encoder.markup">Lavc58.134.100 libx264</property>
  <property name="meta.attr.major_brand.markup">qt  </property>
  <property name="meta.attr.minor_version.markup">512</property>
  <property name="meta.attr.compatible_brands.markup">qt  </property>
  <property name="meta.attr.encoder.markup">Lavf58.76.100</property>
  <property name="meta.attr.comment.markup">Rendered with Manim Community v0.12.0</property>
  <property name="meta.media.sample_aspect_num">1</property>
  <property name="meta.media.sample_aspect_den">1</property>
  <property name="meta.media.frame_rate_num">60</property>
  <property name="meta.media.frame_rate_den">1</property>
  <property name="meta.media.colorspace">601</property>
  <property name="meta.media.color_trc">2</property>
  <property name="meta.media.has_b_frames">0</property>
  <property name="meta.media.width">640</property>
  <property name="meta.media.height">360</property>
  <property name="meta.media.color_range">mpeg</property>
  <property name="set.test_audio">1</property>
  <property name="set.test_image">0</property>
  <property name="meta.media.top_field_first">0</property>
  <property name="meta.media.progressive">1</property>
 </producer>
 <producer id="producer452" in="00:00:00.000" out="00:00:00.983">
  <property name="length">60</property>
  <property name="eof">pause</property>
  <property name="resource">/home/xiaoxiae/.cache/kdenlive/proxy/79a397eb536675c9795ff802b68784de.mov</property>
  <property name="audio_index">-1</property>
  <property name="video_index">0</property>
  <property name="mute_on_pause">0</property>
  <property name="mlt_service">avformat-novalidate</property>
  <property name="seekable">1</property>
  <property name="aspect_ratio">1</property>
  <property name="kdenlive:clipname">3.mp4</property>
  <property name="kdenlive:file_size">45063</property>
  <property name="kdenlive:folderid">314</property>
  <property name="kdenlive:id">336</property>
  <property name="kdenlive:proxy">/home/xiaoxiae/.cache/kdenlive/proxy/79a397eb536675c9795ff802b68784de.mov</property>
  <property name="kdenlive:originalurl">video/ProgrammingModel/vid/3.mp4</property>
  <property name="kdenlive:original.mlt_type">producer</property>
  <property name="kdenlive:original.in">0</property>
  <property name="kdenlive:original.out">59</property>
  <property name="kdenlive:original.length">60</property>
  <property name="kdenlive:original.eof">pause</property>
  <property name="kdenlive:original.resource">video/ProgrammingModel/vid/3.mp4</property>
  <property name="kdenlive:original.meta.media.nb_streams">1</property>
  <property name="kdenlive:original.meta.media.0.stream.type">video</property>
  <property name="kdenlive:original.meta.media.0.stream.frame_rate">60</property>
  <property name="kdenlive:original.meta.media.0.stream.sample_aspect_ratio">0</property>
  <property name="kdenlive:original.meta.media.0.codec.width">3840</property>
  <property name="kdenlive:original.meta.media.0.codec.height">2160</property>
  <property name="kdenlive:original.meta.media.0.codec.rotate">0</property>
  <property name="kdenlive:original.meta.media.0.codec.pix_fmt">yuv420p</property>
  <property name="kdenlive:original.meta.media.0.codec.sample_aspect_ratio">0</property>
  <property name="kdenlive:original.meta.media.0.codec.colorspace">709</property>
  <property name="kdenlive:original.meta.media.0.codec.name">h264</property>
  <property name="kdenlive:original.meta.media.0.codec.long_name">H.264 / AVC / MPEG-4 AVC / MPEG-4 part 10</property>
  <property name="kdenlive:original.meta.media.0.codec.bit_rate">347448</property>
  <property name="kdenlive:original.meta.attr.0.stream.handler_name.markup">VideoHandler</property>
  <property name="kdenlive:original.meta.attr.0.stream.vendor_id.markup">[0][0][0][0]</property>
  <property name="kdenlive:original.meta.attr.major_brand.markup">isom</property>
  <property name="kdenlive:original.meta.attr.minor_version.markup">512</property>
  <property name="kdenlive:original.meta.attr.compatible_brands.markup">isomiso2avc1mp41</property>
  <property name="kdenlive:original.meta.attr.encoder.markup">Lavf58.76.100</property>
  <property name="kdenlive:original.meta.attr.comment.markup">Rendered with Manim Community v0.12.0</property>
  <property name="kdenlive:original.seekable">1</property>
  <property name="kdenlive:original.width">3840</property>
  <property name="kdenlive:original.height">2160</property>
  <property name="kdenlive:original.meta.media.sample_aspect_num">1</property>
  <property name="kdenlive:original.meta.media.sample_aspect_den">1</property>
  <property name="kdenlive:original.aspect_ratio">1</property>
  <property name="kdenlive:original.audio_index">-1</property>
  <property name="kdenlive:original.video_index">0</property>
  <property name="kdenlive:original.mute_on_pause">0</property>
  <property name="kdenlive:original.mlt_service">avformat-novalidate</property>
  <property name="kdenlive:original.kdenlive:file_size">45063</property>
  <property name="kdenlive:original.kdenlive:folderid">314</property>
  <property name="kdenlive:original.meta.media.frame_rate_num">60</property>
  <property name="kdenlive:original.meta.media.frame_rate_den">1</property>
  <property name="kdenlive:original.meta.media.colorspace">709</property>
  <property name="kdenlive:original.meta.media.color_trc">2</property>
  <property name="kdenlive:original.meta.media.has_b_frames">2</property>
  <property name="kdenlive:original.meta.media.width">3840</property>
  <property name="kdenlive:original.meta.media.height">2160</property>
  <property name="kdenlive:original.meta.media.color_range">mpeg</property>
  <property name="kdenlive:original.kdenlive:id">337</property>
  <property name="kdenlive:original.kdenlive:file_hash">79a397eb536675c9795ff802b68784de</property>
  <property name="kdenlive:original.backup">1</property>
  <property name="kdenlive:file_hash">79a397eb536675c9795ff802b68784de</property>
  <property name="xml">was here</property>
  <property name="meta.media.nb_streams">1</property>
  <property name="meta.media.0.stream.type">video</property>
  <property name="meta.media.0.stream.frame_rate">60</property>
  <property name="meta.media.0.stream.sample_aspect_ratio">0</property>
  <property name="meta.media.0.codec.width">640</property>
  <property name="meta.media.0.codec.height">360</property>
  <property name="meta.media.0.codec.rotate">0</property>
  <property name="meta.media.0.codec.pix_fmt">yuv420p</property>
  <property name="meta.media.0.codec.sample_aspect_ratio">0</property>
  <property name="meta.media.0.codec.colorspace">601</property>
  <property name="meta.media.0.codec.name">h264</property>
  <property name="meta.media.0.codec.long_name">H.264 / AVC / MPEG-4 AVC / MPEG-4 part 10</property>
  <property name="meta.media.0.codec.bit_rate">935000</property>
  <property name="meta.attr.0.stream.handler_name.markup">VideoHandler</property>
  <property name="meta.attr.0.stream.vendor_id.markup">FFMP</property>
  <property name="meta.attr.0.stream.encoder.markup">Lavc58.134.100 libx264</property>
  <property name="meta.attr.major_brand.markup">qt  </property>
  <property name="meta.attr.minor_version.markup">512</property>
  <property name="meta.attr.compatible_brands.markup">qt  </property>
  <property name="meta.attr.encoder.markup">Lavf58.76.100</property>
  <property name="meta.attr.comment.markup">Rendered with Manim Community v0.12.0</property>
  <property name="meta.media.sample_aspect_num">1</property>
  <property name="meta.media.sample_aspect_den">1</property>
  <property name="meta.media.frame_rate_num">60</property>
  <property name="meta.media.frame_rate_den">1</property>
  <property name="meta.media.colorspace">601</property>
  <property name="meta.media.color_trc">2</property>
  <property name="meta.media.has_b_frames">0</property>
  <property name="meta.media.width">640</property>
  <property name="meta.media.height">360</property>
  <property name="meta.media.color_range">mpeg</property>
  <property name="set.test_audio">1</property>
  <property name="set.test_image">0</property>
  <property name="meta.media.top_field_first">0</property>
  <property name="meta.media.progressive">1</property>
 </producer>
 <producer id="producer453" in="00:00:00.000" out="00:00:02.083">
  <property name="length">126</property>
  <property name="eof">pause</property>
  <property name="resource">/home/xiaoxiae/.cache/kdenlive/proxy/34a4de808f64a095c84691ef5e2862db.mov</property>
  <property name="audio_index">-1</property>
  <property name="video_index">0</property>
  <property name="mute_on_pause">0</property>
  <property name="mlt_service">avformat-novalidate</property>
  <property name="seekable">1</property>
  <property name="aspect_ratio">1</property>
  <property name="kdenlive:clipname">4.mp4</property>
  <property name="kdenlive:folderid">314</property>
  <property name="kdenlive:id">347</property>
  <property name="kdenlive:file_size">171622</property>
  <property name="kdenlive:proxy">/home/xiaoxiae/.cache/kdenlive/proxy/34a4de808f64a095c84691ef5e2862db.mov</property>
  <property name="kdenlive:originalurl">video/ProgrammingModel/vid/4.mp4</property>
  <property name="kdenlive:original.mlt_type">producer</property>
  <property name="kdenlive:original.in">0</property>
  <property name="kdenlive:original.out">125</property>
  <property name="kdenlive:original.length">126</property>
  <property name="kdenlive:original.eof">pause</property>
  <property name="kdenlive:original.resource">video/ProgrammingModel/vid/4.mp4</property>
  <property name="kdenlive:original.meta.media.nb_streams">1</property>
  <property name="kdenlive:original.meta.media.0.stream.type">video</property>
  <property name="kdenlive:original.meta.media.0.stream.frame_rate">60</property>
  <property name="kdenlive:original.meta.media.0.stream.sample_aspect_ratio">0</property>
  <property name="kdenlive:original.meta.media.0.codec.width">3840</property>
  <property name="kdenlive:original.meta.media.0.codec.height">2160</property>
  <property name="kdenlive:original.meta.media.0.codec.rotate">0</property>
  <property name="kdenlive:original.meta.media.0.codec.pix_fmt">yuv420p</property>
  <property name="kdenlive:original.meta.media.0.codec.sample_aspect_ratio">0</property>
  <property name="kdenlive:original.meta.media.0.codec.colorspace">709</property>
  <property name="kdenlive:original.meta.media.0.codec.name">h264</property>
  <property name="kdenlive:original.meta.media.0.codec.long_name">H.264 / AVC / MPEG-4 AVC / MPEG-4 part 10</property>
  <property name="kdenlive:original.meta.media.0.codec.bit_rate">644594</property>
  <property name="kdenlive:original.meta.attr.0.stream.handler_name.markup">VideoHandler</property>
  <property name="kdenlive:original.meta.attr.0.stream.vendor_id.markup">[0][0][0][0]</property>
  <property name="kdenlive:original.meta.attr.major_brand.markup">isom</property>
  <property name="kdenlive:original.meta.attr.minor_version.markup">512</property>
  <property name="kdenlive:original.meta.attr.compatible_brands.markup">isomiso2avc1mp41</property>
  <property name="kdenlive:original.meta.attr.encoder.markup">Lavf58.76.100</property>
  <property name="kdenlive:original.meta.attr.comment.markup">Rendered with Manim Community v0.12.0</property>
  <property name="kdenlive:original.seekable">1</property>
  <property name="kdenlive:original.width">3840</property>
  <property name="kdenlive:original.height">2160</property>
  <property name="kdenlive:original.meta.media.sample_aspect_num">1</property>
  <property name="kdenlive:original.meta.media.sample_aspect_den">1</property>
  <property name="kdenlive:original.aspect_ratio">1</property>
  <property name="kdenlive:original.audio_index">-1</property>
  <property name="kdenlive:original.video_index">0</property>
  <property name="kdenlive:original.mute_on_pause">0</property>
  <property name="kdenlive:original.mlt_service">avformat-novalidate</property>
  <property name="kdenlive:original.kdenlive:folderid">314</property>
  <property name="kdenlive:original.meta.media.frame_rate_num">60</property>
  <property name="kdenlive:original.meta.media.frame_rate_den">1</property>
  <property name="kdenlive:original.meta.media.colorspace">709</property>
  <property name="kdenlive:original.meta.media.color_trc">2</property>
  <property name="kdenlive:original.meta.media.has_b_frames">2</property>
  <property name="kdenlive:original.meta.media.width">3840</property>
  <property name="kdenlive:original.meta.media.height">2160</property>
  <property name="kdenlive:original.meta.media.color_range">mpeg</property>
  <property name="kdenlive:original.kdenlive:id">348</property>
  <property name="kdenlive:original.kdenlive:file_size">171622</property>
  <property name="kdenlive:original.kdenlive:file_hash">34a4de808f64a095c84691ef5e2862db</property>
  <property name="kdenlive:original.backup">1</property>
  <property name="kdenlive:file_hash">34a4de808f64a095c84691ef5e2862db</property>
  <property name="xml">was here</property>
  <property name="meta.media.nb_streams">1</property>
  <property name="meta.media.0.stream.type">video</property>
  <property name="meta.media.0.stream.frame_rate">60</property>
  <property name="meta.media.0.stream.sample_aspect_ratio">0</property>
  <property name="meta.media.0.codec.width">640</property>
  <property name="meta.media.0.codec.height">360</property>
  <property name="meta.media.0.codec.rotate">0</property>
  <property name="meta.media.0.codec.pix_fmt">yuv420p</property>
  <property name="meta.media.0.codec.sample_aspect_ratio">0</property>
  <property name="meta.media.0.codec.colorspace">601</property>
  <property name="meta.media.0.codec.name">h264</property>
  <property name="meta.media.0.codec.long_name">H.264 / AVC / MPEG-4 AVC / MPEG-4 part 10</property>
  <property name="meta.media.0.codec.bit_rate">1601832</property>
  <property name="meta.attr.0.stream.handler_name.markup">VideoHandler</property>
  <property name="meta.attr.0.stream.vendor_id.markup">FFMP</property>
  <property name="meta.attr.0.stream.encoder.markup">Lavc58.134.100 libx264</property>
  <property name="meta.attr.major_brand.markup">qt  </property>
  <property name="meta.attr.minor_version.markup">512</property>
  <property name="meta.attr.compatible_brands.markup">qt  </property>
  <property name="meta.attr.encoder.markup">Lavf58.76.100</property>
  <property name="meta.attr.comment.markup">Rendered with Manim Community v0.12.0</property>
  <property name="meta.media.sample_aspect_num">1</property>
  <property name="meta.media.sample_aspect_den">1</property>
  <property name="meta.media.frame_rate_num">60</property>
  <property name="meta.media.frame_rate_den">1</property>
  <property name="meta.media.colorspace">601</property>
  <property name="meta.media.color_trc">2</property>
  <property name="meta.media.has_b_frames">0</property>
  <property name="meta.media.width">640</property>
  <property name="meta.media.height">360</property>
  <property name="meta.media.color_range">mpeg</property>
  <property name="set.test_audio">1</property>
  <property name="set.test_image">0</property>
  <property name="meta.media.top_field_first">0</property>
  <property name="meta.media.progressive">1</property>
 </producer>
 <producer id="producer454" in="00:00:00.000" out="00:00:02.083">
  <property name="length">126</property>
  <property name="eof">pause</property>
  <property name="resource">/home/xiaoxiae/.cache/kdenlive/proxy/c8e19bd13c6ec3ad13c2a471538ee7d6.mov</property>
  <property name="audio_index">-1</property>
  <property name="video_index">0</property>
  <property name="mute_on_pause">0</property>
  <property name="mlt_service">avformat-novalidate</property>
  <property name="seekable">1</property>
  <property name="aspect_ratio">1</property>
  <property name="kdenlive:clipname">5.mp4</property>
  <property name="kdenlive:folderid">314</property>
  <property name="kdenlive:id">356</property>
  <property name="kdenlive:file_size">93535</property>
  <property name="kdenlive:proxy">/home/xiaoxiae/.cache/kdenlive/proxy/c8e19bd13c6ec3ad13c2a471538ee7d6.mov</property>
  <property name="kdenlive:originalurl">video/ProgrammingModel/vid/5.mp4</property>
  <property name="kdenlive:original.mlt_type">producer</property>
  <property name="kdenlive:original.in">0</property>
  <property name="kdenlive:original.out">125</property>
  <property name="kdenlive:original.length">126</property>
  <property name="kdenlive:original.eof">pause</property>
  <property name="kdenlive:original.resource">video/ProgrammingModel/vid/5.mp4</property>
  <property name="kdenlive:original.meta.media.nb_streams">1</property>
  <property name="kdenlive:original.meta.media.0.stream.type">video</property>
  <property name="kdenlive:original.meta.media.0.stream.frame_rate">60</property>
  <property name="kdenlive:original.meta.media.0.stream.sample_aspect_ratio">0</property>
  <property name="kdenlive:original.meta.media.0.codec.width">3840</property>
  <property name="kdenlive:original.meta.media.0.codec.height">2160</property>
  <property name="kdenlive:original.meta.media.0.codec.rotate">0</property>
  <property name="kdenlive:original.meta.media.0.codec.pix_fmt">yuv420p</property>
  <property name="kdenlive:original.meta.media.0.codec.sample_aspect_ratio">0</property>
  <property name="kdenlive:original.meta.media.0.codec.colorspace">709</property>
  <property name="kdenlive:original.meta.media.0.codec.name">h264</property>
  <property name="kdenlive:original.meta.media.0.codec.long_name">H.264 / AVC / MPEG-4 AVC / MPEG-4 part 10</property>
  <property name="kdenlive:original.meta.media.0.codec.bit_rate">347059</property>
  <property name="kdenlive:original.meta.attr.0.stream.handler_name.markup">VideoHandler</property>
  <property name="kdenlive:original.meta.attr.0.stream.vendor_id.markup">[0][0][0][0]</property>
  <property name="kdenlive:original.meta.attr.major_brand.markup">isom</property>
  <property name="kdenlive:original.meta.attr.minor_version.markup">512</property>
  <property name="kdenlive:original.meta.attr.compatible_brands.markup">isomiso2avc1mp41</property>
  <property name="kdenlive:original.meta.attr.encoder.markup">Lavf58.76.100</property>
  <property name="kdenlive:original.meta.attr.comment.markup">Rendered with Manim Community v0.12.0</property>
  <property name="kdenlive:original.seekable">1</property>
  <property name="kdenlive:original.width">3840</property>
  <property name="kdenlive:original.height">2160</property>
  <property name="kdenlive:original.meta.media.sample_aspect_num">1</property>
  <property name="kdenlive:original.meta.media.sample_aspect_den">1</property>
  <property name="kdenlive:original.aspect_ratio">1</property>
  <property name="kdenlive:original.audio_index">-1</property>
  <property name="kdenlive:original.video_index">0</property>
  <property name="kdenlive:original.mute_on_pause">0</property>
  <property name="kdenlive:original.mlt_service">avformat-novalidate</property>
  <property name="kdenlive:original.kdenlive:folderid">314</property>
  <property name="kdenlive:original.meta.media.frame_rate_num">60</property>
  <property name="kdenlive:original.meta.media.frame_rate_den">1</property>
  <property name="kdenlive:original.meta.media.colorspace">709</property>
  <property name="kdenlive:original.meta.media.color_trc">2</property>
  <property name="kdenlive:original.meta.media.has_b_frames">2</property>
  <property name="kdenlive:original.meta.media.width">3840</property>
  <property name="kdenlive:original.meta.media.height">2160</property>
  <property name="kdenlive:original.meta.media.color_range">mpeg</property>
  <property name="kdenlive:original.kdenlive:id">357</property>
  <property name="kdenlive:original.kdenlive:file_size">93535</property>
  <property name="kdenlive:original.kdenlive:file_hash">c8e19bd13c6ec3ad13c2a471538ee7d6</property>
  <property name="kdenlive:original.backup">1</property>
  <property name="kdenlive:file_hash">c8e19bd13c6ec3ad13c2a471538ee7d6</property>
  <property name="xml">was here</property>
  <property name="meta.media.nb_streams">1</property>
  <property name="meta.media.0.stream.type">video</property>
  <property name="meta.media.0.stream.frame_rate">60</property>
  <property name="meta.media.0.stream.sample_aspect_ratio">0</property>
  <property name="meta.media.0.codec.width">640</property>
  <property name="meta.media.0.codec.height">360</property>
  <property name="meta.media.0.codec.rotate">0</property>
  <property name="meta.media.0.codec.pix_fmt">yuv420p</property>
  <property name="meta.media.0.codec.sample_aspect_ratio">0</property>
  <property name="meta.media.0.codec.colorspace">601</property>
  <property name="meta.media.0.codec.name">h264</property>
  <property name="meta.media.0.codec.long_name">H.264 / AVC / MPEG-4 AVC / MPEG-4 part 10</property>
  <property name="meta.media.0.codec.bit_rate">1909207</property>
  <property name="meta.attr.0.stream.handler_name.markup">VideoHandler</property>
  <property name="meta.attr.0.stream.vendor_id.markup">FFMP</property>
  <property name="meta.attr.0.stream.encoder.markup">Lavc58.134.100 libx264</property>
  <property name="meta.attr.major_brand.markup">qt  </property>
  <property name="meta.attr.minor_version.markup">512</property>
  <property name="meta.attr.compatible_brands.markup">qt  </property>
  <property name="meta.attr.encoder.markup">Lavf58.76.100</property>
  <property name="meta.attr.comment.markup">Rendered with Manim Community v0.12.0</property>
  <property name="meta.media.sample_aspect_num">1</property>
  <property name="meta.media.sample_aspect_den">1</property>
  <property name="meta.media.frame_rate_num">60</property>
  <property name="meta.media.frame_rate_den">1</property>
  <property name="meta.media.colorspace">601</property>
  <property name="meta.media.color_trc">2</property>
  <property name="meta.media.has_b_frames">0</property>
  <property name="meta.media.width">640</property>
  <property name="meta.media.height">360</property>
  <property name="meta.media.color_range">mpeg</property>
  <property name="set.test_audio">1</property>
  <property name="set.test_image">0</property>
  <property name="meta.media.top_field_first">0</property>
  <property name="meta.media.progressive">1</property>
 </producer>
 <producer id="producer455" in="00:00:00.000" out="00:00:00.983">
  <property name="length">60</property>
  <property name="eof">pause</property>
  <property name="resource">/home/xiaoxiae/.cache/kdenlive/proxy/1bbdeae4a3f5e9d733057e020bc34131.mov</property>
  <property name="audio_index">-1</property>
  <property name="video_index">0</property>
  <property name="mute_on_pause">0</property>
  <property name="mlt_service">avformat-novalidate</property>
  <property name="seekable">1</property>
  <property name="aspect_ratio">1</property>
  <property name="kdenlive:clipname">6.mp4</property>
  <property name="kdenlive:folderid">314</property>
  <property name="kdenlive:id">357</property>
  <property name="kdenlive:file_size">119145</property>
  <property name="kdenlive:proxy">/home/xiaoxiae/.cache/kdenlive/proxy/1bbdeae4a3f5e9d733057e020bc34131.mov</property>
  <property name="kdenlive:originalurl">video/ProgrammingModel/vid/6.mp4</property>
  <property name="kdenlive:original.mlt_type">producer</property>
  <property name="kdenlive:original.in">0</property>
  <property name="kdenlive:original.out">59</property>
  <property name="kdenlive:original.length">60</property>
  <property name="kdenlive:original.eof">pause</property>
  <property name="kdenlive:original.resource">video/ProgrammingModel/vid/6.mp4</property>
  <property name="kdenlive:original.meta.media.nb_streams">1</property>
  <property name="kdenlive:original.meta.media.0.stream.type">video</property>
  <property name="kdenlive:original.meta.media.0.stream.frame_rate">60</property>
  <property name="kdenlive:original.meta.media.0.stream.sample_aspect_ratio">0</property>
  <property name="kdenlive:original.meta.media.0.codec.width">3840</property>
  <property name="kdenlive:original.meta.media.0.codec.height">2160</property>
  <property name="kdenlive:original.meta.media.0.codec.rotate">0</property>
  <property name="kdenlive:original.meta.media.0.codec.pix_fmt">yuv420p</property>
  <property name="kdenlive:original.meta.media.0.codec.sample_aspect_ratio">0</property>
  <property name="kdenlive:original.meta.media.0.codec.colorspace">709</property>
  <property name="kdenlive:original.meta.media.0.codec.name">h264</property>
  <property name="kdenlive:original.meta.media.0.codec.long_name">H.264 / AVC / MPEG-4 AVC / MPEG-4 part 10</property>
  <property name="kdenlive:original.meta.media.0.codec.bit_rate">941192</property>
  <property name="kdenlive:original.meta.attr.0.stream.handler_name.markup">VideoHandler</property>
  <property name="kdenlive:original.meta.attr.0.stream.vendor_id.markup">[0][0][0][0]</property>
  <property name="kdenlive:original.meta.attr.major_brand.markup">isom</property>
  <property name="kdenlive:original.meta.attr.minor_version.markup">512</property>
  <property name="kdenlive:original.meta.attr.compatible_brands.markup">isomiso2avc1mp41</property>
  <property name="kdenlive:original.meta.attr.encoder.markup">Lavf58.76.100</property>
  <property name="kdenlive:original.meta.attr.comment.markup">Rendered with Manim Community v0.12.0</property>
  <property name="kdenlive:original.seekable">1</property>
  <property name="kdenlive:original.width">3840</property>
  <property name="kdenlive:original.height">2160</property>
  <property name="kdenlive:original.meta.media.sample_aspect_num">1</property>
  <property name="kdenlive:original.meta.media.sample_aspect_den">1</property>
  <property name="kdenlive:original.aspect_ratio">1</property>
  <property name="kdenlive:original.audio_index">-1</property>
  <property name="kdenlive:original.video_index">0</property>
  <property name="kdenlive:original.mute_on_pause">0</property>
  <property name="kdenlive:original.mlt_service">avformat-novalidate</property>
  <property name="kdenlive:original.kdenlive:folderid">314</property>
  <property name="kdenlive:original.meta.media.frame_rate_num">60</property>
  <property name="kdenlive:original.meta.media.frame_rate_den">1</property>
  <property name="kdenlive:original.meta.media.colorspace">709</property>
  <property name="kdenlive:original.meta.media.color_trc">2</property>
  <property name="kdenlive:original.meta.media.has_b_frames">2</property>
  <property name="kdenlive:original.meta.media.width">3840</property>
  <property name="kdenlive:original.meta.media.height">2160</property>
  <property name="kdenlive:original.meta.media.color_range">mpeg</property>
  <property name="kdenlive:original.kdenlive:id">358</property>
  <property name="kdenlive:original.kdenlive:file_size">119145</property>
  <property name="kdenlive:original.kdenlive:file_hash">1bbdeae4a3f5e9d733057e020bc34131</property>
  <property name="kdenlive:original.backup">1</property>
  <property name="kdenlive:file_hash">1bbdeae4a3f5e9d733057e020bc34131</property>
  <property name="xml">was here</property>
  <property name="meta.media.nb_streams">1</property>
  <property name="meta.media.0.stream.type">video</property>
  <property name="meta.media.0.stream.frame_rate">60</property>
  <property name="meta.media.0.stream.sample_aspect_ratio">0</property>
  <property name="meta.media.0.codec.width">640</property>
  <property name="meta.media.0.codec.height">360</property>
  <property name="meta.media.0.codec.rotate">0</property>
  <property name="meta.media.0.codec.pix_fmt">yuv420p</property>
  <property name="meta.media.0.codec.sample_aspect_ratio">0</property>
  <property name="meta.media.0.codec.colorspace">601</property>
  <property name="meta.media.0.codec.name">h264</property>
  <property name="meta.media.0.codec.long_name">H.264 / AVC / MPEG-4 AVC / MPEG-4 part 10</property>
  <property name="meta.media.0.codec.bit_rate">2030304</property>
  <property name="meta.attr.0.stream.handler_name.markup">VideoHandler</property>
  <property name="meta.attr.0.stream.vendor_id.markup">FFMP</property>
  <property name="meta.attr.0.stream.encoder.markup">Lavc58.134.100 libx264</property>
  <property name="meta.attr.major_brand.markup">qt  </property>
  <property name="meta.attr.minor_version.markup">512</property>
  <property name="meta.attr.compatible_brands.markup">qt  </property>
  <property name="meta.attr.encoder.markup">Lavf58.76.100</property>
  <property name="meta.attr.comment.markup">Rendered with Manim Community v0.12.0</property>
  <property name="meta.media.sample_aspect_num">1</property>
  <property name="meta.media.sample_aspect_den">1</property>
  <property name="meta.media.frame_rate_num">60</property>
  <property name="meta.media.frame_rate_den">1</property>
  <property name="meta.media.colorspace">601</property>
  <property name="meta.media.color_trc">2</property>
  <property name="meta.media.has_b_frames">0</property>
  <property name="meta.media.width">640</property>
  <property name="meta.media.height">360</property>
  <property name="meta.media.color_range">mpeg</property>
  <property name="set.test_audio">1</property>
  <property name="set.test_image">0</property>
  <property name="meta.media.top_field_first">0</property>
  <property name="meta.media.progressive">1</property>
 </producer>
 <producer id="producer456" in="00:00:00.000" out="00:00:02.783">
  <property name="length">168</property>
  <property name="eof">pause</property>
  <property name="resource">/home/xiaoxiae/.cache/kdenlive/proxy/32e99f32cde296a76197e6cd36a10bf3.mov</property>
  <property name="audio_index">-1</property>
  <property name="video_index">0</property>
  <property name="mute_on_pause">0</property>
  <property name="mlt_service">avformat-novalidate</property>
  <property name="seekable">1</property>
  <property name="aspect_ratio">1</property>
  <property name="kdenlive:clipname">7.mp4</property>
  <property name="kdenlive:folderid">314</property>
  <property name="kdenlive:id">358</property>
  <property name="kdenlive:file_size">332323</property>
  <property name="kdenlive:proxy">/home/xiaoxiae/.cache/kdenlive/proxy/32e99f32cde296a76197e6cd36a10bf3.mov</property>
  <property name="kdenlive:originalurl">video/ProgrammingModel/vid/7.mp4</property>
  <property name="kdenlive:original.mlt_type">producer</property>
  <property name="kdenlive:original.in">0</property>
  <property name="kdenlive:original.out">167</property>
  <property name="kdenlive:original.length">168</property>
  <property name="kdenlive:original.eof">pause</property>
  <property name="kdenlive:original.resource">video/ProgrammingModel/vid/7.mp4</property>
  <property name="kdenlive:original.meta.media.nb_streams">1</property>
  <property name="kdenlive:original.meta.media.0.stream.type">video</property>
  <property name="kdenlive:original.meta.media.0.stream.frame_rate">60</property>
  <property name="kdenlive:original.meta.media.0.stream.sample_aspect_ratio">0</property>
  <property name="kdenlive:original.meta.media.0.codec.width">3840</property>
  <property name="kdenlive:original.meta.media.0.codec.height">2160</property>
  <property name="kdenlive:original.meta.media.0.codec.rotate">0</property>
  <property name="kdenlive:original.meta.media.0.codec.pix_fmt">yuv420p</property>
  <property name="kdenlive:original.meta.media.0.codec.sample_aspect_ratio">0</property>
  <property name="kdenlive:original.meta.media.0.codec.colorspace">709</property>
  <property name="kdenlive:original.meta.media.0.codec.name">h264</property>
  <property name="kdenlive:original.meta.media.0.codec.long_name">H.264 / AVC / MPEG-4 AVC / MPEG-4 part 10</property>
  <property name="kdenlive:original.meta.media.0.codec.bit_rate">941151</property>
  <property name="kdenlive:original.meta.attr.0.stream.handler_name.markup">VideoHandler</property>
  <property name="kdenlive:original.meta.attr.0.stream.vendor_id.markup">[0][0][0][0]</property>
  <property name="kdenlive:original.meta.attr.major_brand.markup">isom</property>
  <property name="kdenlive:original.meta.attr.minor_version.markup">512</property>
  <property name="kdenlive:original.meta.attr.compatible_brands.markup">isomiso2avc1mp41</property>
  <property name="kdenlive:original.meta.attr.encoder.markup">Lavf58.76.100</property>
  <property name="kdenlive:original.meta.attr.comment.markup">Rendered with Manim Community v0.12.0</property>
  <property name="kdenlive:original.seekable">1</property>
  <property name="kdenlive:original.width">3840</property>
  <property name="kdenlive:original.height">2160</property>
  <property name="kdenlive:original.meta.media.sample_aspect_num">1</property>
  <property name="kdenlive:original.meta.media.sample_aspect_den">1</property>
  <property name="kdenlive:original.aspect_ratio">1</property>
  <property name="kdenlive:original.audio_index">-1</property>
  <property name="kdenlive:original.video_index">0</property>
  <property name="kdenlive:original.mute_on_pause">0</property>
  <property name="kdenlive:original.mlt_service">avformat-novalidate</property>
  <property name="kdenlive:original.kdenlive:folderid">314</property>
  <property name="kdenlive:original.meta.media.frame_rate_num">60</property>
  <property name="kdenlive:original.meta.media.frame_rate_den">1</property>
  <property name="kdenlive:original.meta.media.colorspace">709</property>
  <property name="kdenlive:original.meta.media.color_trc">2</property>
  <property name="kdenlive:original.meta.media.has_b_frames">2</property>
  <property name="kdenlive:original.meta.media.width">3840</property>
  <property name="kdenlive:original.meta.media.height">2160</property>
  <property name="kdenlive:original.meta.media.color_range">mpeg</property>
  <property name="kdenlive:original.kdenlive:id">359</property>
  <property name="kdenlive:original.kdenlive:file_size">332323</property>
  <property name="kdenlive:original.kdenlive:file_hash">32e99f32cde296a76197e6cd36a10bf3</property>
  <property name="kdenlive:original.backup">1</property>
  <property name="kdenlive:file_hash">32e99f32cde296a76197e6cd36a10bf3</property>
  <property name="xml">was here</property>
  <property name="meta.media.nb_streams">1</property>
  <property name="meta.media.0.stream.type">video</property>
  <property name="meta.media.0.stream.frame_rate">60</property>
  <property name="meta.media.0.stream.sample_aspect_ratio">0</property>
  <property name="meta.media.0.codec.width">640</property>
  <property name="meta.media.0.codec.height">360</property>
  <property name="meta.media.0.codec.rotate">0</property>
  <property name="meta.media.0.codec.pix_fmt">yuv420p</property>
  <property name="meta.media.0.codec.sample_aspect_ratio">0</property>
  <property name="meta.media.0.codec.colorspace">601</property>
  <property name="meta.media.0.codec.name">h264</property>
  <property name="meta.media.0.codec.long_name">H.264 / AVC / MPEG-4 AVC / MPEG-4 part 10</property>
  <property name="meta.media.0.codec.bit_rate">2856865</property>
  <property name="meta.attr.0.stream.handler_name.markup">VideoHandler</property>
  <property name="meta.attr.0.stream.vendor_id.markup">FFMP</property>
  <property name="meta.attr.0.stream.encoder.markup">Lavc58.134.100 libx264</property>
  <property name="meta.attr.major_brand.markup">qt  </property>
  <property name="meta.attr.minor_version.markup">512</property>
  <property name="meta.attr.compatible_brands.markup">qt  </property>
  <property name="meta.attr.encoder.markup">Lavf58.76.100</property>
  <property name="meta.attr.comment.markup">Rendered with Manim Community v0.12.0</property>
  <property name="meta.media.sample_aspect_num">1</property>
  <property name="meta.media.sample_aspect_den">1</property>
  <property name="meta.media.frame_rate_num">60</property>
  <property name="meta.media.frame_rate_den">1</property>
  <property name="meta.media.colorspace">601</property>
  <property name="meta.media.color_trc">2</property>
  <property name="meta.media.has_b_frames">0</property>
  <property name="meta.media.width">640</property>
  <property name="meta.media.height">360</property>
  <property name="meta.media.color_range">mpeg</property>
  <property name="set.test_audio">1</property>
  <property name="set.test_image">0</property>
  <property name="meta.media.top_field_first">0</property>
  <property name="meta.media.progressive">1</property>
 </producer>
 <producer id="producer457" in="00:00:00.000" out="00:00:00.983">
  <property name="length">60</property>
  <property name="eof">pause</property>
  <property name="resource">/home/xiaoxiae/.cache/kdenlive/proxy/df5faa75063df0636570a0539a75ff96.mov</property>
  <property name="audio_index">-1</property>
  <property name="video_index">0</property>
  <property name="mute_on_pause">0</property>
  <property name="mlt_service">avformat-novalidate</property>
  <property name="seekable">1</property>
  <property name="aspect_ratio">1</property>
  <property name="kdenlive:clipname">8.mp4</property>
  <property name="kdenlive:folderid">314</property>
  <property name="kdenlive:id">359</property>
  <property name="kdenlive:file_size">111382</property>
  <property name="kdenlive:proxy">/home/xiaoxiae/.cache/kdenlive/proxy/df5faa75063df0636570a0539a75ff96.mov</property>
  <property name="kdenlive:originalurl">video/ProgrammingModel/vid/8.mp4</property>
  <property name="kdenlive:original.mlt_type">producer</property>
  <property name="kdenlive:original.in">0</property>
  <property name="kdenlive:original.out">59</property>
  <property name="kdenlive:original.length">60</property>
  <property name="kdenlive:original.eof">pause</property>
  <property name="kdenlive:original.resource">video/ProgrammingModel/vid/8.mp4</property>
  <property name="kdenlive:original.meta.media.nb_streams">1</property>
  <property name="kdenlive:original.meta.media.0.stream.type">video</property>
  <property name="kdenlive:original.meta.media.0.stream.frame_rate">60</property>
  <property name="kdenlive:original.meta.media.0.stream.sample_aspect_ratio">0</property>
  <property name="kdenlive:original.meta.media.0.codec.width">3840</property>
  <property name="kdenlive:original.meta.media.0.codec.height">2160</property>
  <property name="kdenlive:original.meta.media.0.codec.rotate">0</property>
  <property name="kdenlive:original.meta.media.0.codec.pix_fmt">yuv420p</property>
  <property name="kdenlive:original.meta.media.0.codec.sample_aspect_ratio">0</property>
  <property name="kdenlive:original.meta.media.0.codec.colorspace">709</property>
  <property name="kdenlive:original.meta.media.0.codec.name">h264</property>
  <property name="kdenlive:original.meta.media.0.codec.long_name">H.264 / AVC / MPEG-4 AVC / MPEG-4 part 10</property>
  <property name="kdenlive:original.meta.media.0.codec.bit_rate">878000</property>
  <property name="kdenlive:original.meta.attr.0.stream.handler_name.markup">VideoHandler</property>
  <property name="kdenlive:original.meta.attr.0.stream.vendor_id.markup">[0][0][0][0]</property>
  <property name="kdenlive:original.meta.attr.major_brand.markup">isom</property>
  <property name="kdenlive:original.meta.attr.minor_version.markup">512</property>
  <property name="kdenlive:original.meta.attr.compatible_brands.markup">isomiso2avc1mp41</property>
  <property name="kdenlive:original.meta.attr.encoder.markup">Lavf58.76.100</property>
  <property name="kdenlive:original.meta.attr.comment.markup">Rendered with Manim Community v0.12.0</property>
  <property name="kdenlive:original.seekable">1</property>
  <property name="kdenlive:original.width">3840</property>
  <property name="kdenlive:original.height">2160</property>
  <property name="kdenlive:original.meta.media.sample_aspect_num">1</property>
  <property name="kdenlive:original.meta.media.sample_aspect_den">1</property>
  <property name="kdenlive:original.aspect_ratio">1</property>
  <property name="kdenlive:original.audio_index">-1</property>
  <property name="kdenlive:original.video_index">0</property>
  <property name="kdenlive:original.mute_on_pause">0</property>
  <property name="kdenlive:original.mlt_service">avformat-novalidate</property>
  <property name="kdenlive:original.kdenlive:folderid">314</property>
  <property name="kdenlive:original.meta.media.frame_rate_num">60</property>
  <property name="kdenlive:original.meta.media.frame_rate_den">1</property>
  <property name="kdenlive:original.meta.media.colorspace">709</property>
  <property name="kdenlive:original.meta.media.color_trc">2</property>
  <property name="kdenlive:original.meta.media.has_b_frames">2</property>
  <property name="kdenlive:original.meta.media.width">3840</property>
  <property name="kdenlive:original.meta.media.height">2160</property>
  <property name="kdenlive:original.meta.media.color_range">mpeg</property>
  <property name="kdenlive:original.kdenlive:id">360</property>
  <property name="kdenlive:original.kdenlive:file_size">111382</property>
  <property name="kdenlive:original.kdenlive:file_hash">df5faa75063df0636570a0539a75ff96</property>
  <property name="kdenlive:original.backup">1</property>
  <property name="kdenlive:file_hash">df5faa75063df0636570a0539a75ff96</property>
  <property name="xml">was here</property>
  <property name="meta.media.nb_streams">1</property>
  <property name="meta.media.0.stream.type">video</property>
  <property name="meta.media.0.stream.frame_rate">60</property>
  <property name="meta.media.0.stream.sample_aspect_ratio">0</property>
  <property name="meta.media.0.codec.width">640</property>
  <property name="meta.media.0.codec.height">360</property>
  <property name="meta.media.0.codec.rotate">0</property>
  <property name="meta.media.0.codec.pix_fmt">yuv420p</property>
  <property name="meta.media.0.codec.sample_aspect_ratio">0</property>
  <property name="meta.media.0.codec.colorspace">601</property>
  <property name="meta.media.0.codec.name">h264</property>
  <property name="meta.media.0.codec.long_name">H.264 / AVC / MPEG-4 AVC / MPEG-4 part 10</property>
  <property name="meta.media.0.codec.bit_rate">3415656</property>
  <property name="meta.attr.0.stream.handler_name.markup">VideoHandler</property>
  <property name="meta.attr.0.stream.vendor_id.markup">FFMP</property>
  <property name="meta.attr.0.stream.encoder.markup">Lavc58.134.100 libx264</property>
  <property name="meta.attr.major_brand.markup">qt  </property>
  <property name="meta.attr.minor_version.markup">512</property>
  <property name="meta.attr.compatible_brands.markup">qt  </property>
  <property name="meta.attr.encoder.markup">Lavf58.76.100</property>
  <property name="meta.attr.comment.markup">Rendered with Manim Community v0.12.0</property>
  <property name="meta.media.sample_aspect_num">1</property>
  <property name="meta.media.sample_aspect_den">1</property>
  <property name="meta.media.frame_rate_num">60</property>
  <property name="meta.media.frame_rate_den">1</property>
  <property name="meta.media.colorspace">601</property>
  <property name="meta.media.color_trc">2</property>
  <property name="meta.media.has_b_frames">0</property>
  <property name="meta.media.width">640</property>
  <property name="meta.media.height">360</property>
  <property name="meta.media.color_range">mpeg</property>
  <property name="set.test_audio">1</property>
  <property name="set.test_image">0</property>
  <property name="meta.media.top_field_first">0</property>
  <property name="meta.media.progressive">1</property>
 </producer>
 <producer id="producer458" in="00:00:00.000" out="00:00:02.483">
  <property name="length">150</property>
  <property name="eof">pause</property>
  <property name="resource">/home/xiaoxiae/.cache/kdenlive/proxy/238cc530425d087439280c3c882c9285.mov</property>
  <property name="audio_index">-1</property>
  <property name="video_index">0</property>
  <property name="mute_on_pause">0</property>
  <property name="mlt_service">avformat-novalidate</property>
  <property name="seekable">1</property>
  <property name="aspect_ratio">1</property>
  <property name="kdenlive:clipname">9.mp4</property>
  <property name="kdenlive:folderid">314</property>
  <property name="kdenlive:id">360</property>
  <property name="kdenlive:file_size">228772</property>
  <property name="kdenlive:proxy">/home/xiaoxiae/.cache/kdenlive/proxy/238cc530425d087439280c3c882c9285.mov</property>
  <property name="kdenlive:originalurl">video/ProgrammingModel/vid/9.mp4</property>
  <property name="kdenlive:original.mlt_type">producer</property>
  <property name="kdenlive:original.in">0</property>
  <property name="kdenlive:original.out">149</property>
  <property name="kdenlive:original.length">150</property>
  <property name="kdenlive:original.eof">pause</property>
  <property name="kdenlive:original.resource">video/ProgrammingModel/vid/9.mp4</property>
  <property name="kdenlive:original.meta.media.nb_streams">1</property>
  <property name="kdenlive:original.meta.media.0.stream.type">video</property>
  <property name="kdenlive:original.meta.media.0.stream.frame_rate">60</property>
  <property name="kdenlive:original.meta.media.0.stream.sample_aspect_ratio">0</property>
  <property name="kdenlive:original.meta.media.0.codec.width">3840</property>
  <property name="kdenlive:original.meta.media.0.codec.height">2160</property>
  <property name="kdenlive:original.meta.media.0.codec.rotate">0</property>
  <property name="kdenlive:original.meta.media.0.codec.pix_fmt">yuv420p</property>
  <property name="kdenlive:original.meta.media.0.codec.sample_aspect_ratio">0</property>
  <property name="kdenlive:original.meta.media.0.codec.colorspace">709</property>
  <property name="kdenlive:original.meta.media.0.codec.name">h264</property>
  <property name="kdenlive:original.meta.media.0.codec.long_name">H.264 / AVC / MPEG-4 AVC / MPEG-4 part 10</property>
  <property name="kdenlive:original.meta.media.0.codec.bit_rate">723366</property>
  <property name="kdenlive:original.meta.attr.0.stream.handler_name.markup">VideoHandler</property>
  <property name="kdenlive:original.meta.attr.0.stream.vendor_id.markup">[0][0][0][0]</property>
  <property name="kdenlive:original.meta.attr.major_brand.markup">isom</property>
  <property name="kdenlive:original.meta.attr.minor_version.markup">512</property>
  <property name="kdenlive:original.meta.attr.compatible_brands.markup">isomiso2avc1mp41</property>
  <property name="kdenlive:original.meta.attr.encoder.markup">Lavf58.76.100</property>
  <property name="kdenlive:original.meta.attr.comment.markup">Rendered with Manim Community v0.12.0</property>
  <property name="kdenlive:original.seekable">1</property>
  <property name="kdenlive:original.width">3840</property>
  <property name="kdenlive:original.height">2160</property>
  <property name="kdenlive:original.meta.media.sample_aspect_num">1</property>
  <property name="kdenlive:original.meta.media.sample_aspect_den">1</property>
  <property name="kdenlive:original.aspect_ratio">1</property>
  <property name="kdenlive:original.audio_index">-1</property>
  <property name="kdenlive:original.video_index">0</property>
  <property name="kdenlive:original.mute_on_pause">0</property>
  <property name="kdenlive:original.mlt_service">avformat-novalidate</property>
  <property name="kdenlive:original.kdenlive:folderid">314</property>
  <property name="kdenlive:original.meta.media.frame_rate_num">60</property>
  <property name="kdenlive:original.meta.media.frame_rate_den">1</property>
  <property name="kdenlive:original.meta.media.colorspace">709</property>
  <property name="kdenlive:original.meta.media.color_trc">2</property>
  <property name="kdenlive:original.meta.media.has_b_frames">2</property>
  <property name="kdenlive:original.meta.media.width">3840</property>
  <property name="kdenlive:original.meta.media.height">2160</property>
  <property name="kdenlive:original.meta.media.color_range">mpeg</property>
  <property name="kdenlive:original.kdenlive:id">361</property>
  <property name="kdenlive:original.kdenlive:file_size">228772</property>
  <property name="kdenlive:original.kdenlive:file_hash">238cc530425d087439280c3c882c9285</property>
  <property name="kdenlive:original.backup">1</property>
  <property name="kdenlive:file_hash">238cc530425d087439280c3c882c9285</property>
  <property name="xml">was here</property>
  <property name="meta.media.nb_streams">1</property>
  <property name="meta.media.0.stream.type">video</property>
  <property name="meta.media.0.stream.frame_rate">60</property>
  <property name="meta.media.0.stream.sample_aspect_ratio">0</property>
  <property name="meta.media.0.codec.width">640</property>
  <property name="meta.media.0.codec.height">360</property>
  <property name="meta.media.0.codec.rotate">0</property>
  <property name="meta.media.0.codec.pix_fmt">yuv420p</property>
  <property name="meta.media.0.codec.sample_aspect_ratio">0</property>
  <property name="meta.media.0.codec.colorspace">601</property>
  <property name="meta.media.0.codec.name">h264</property>
  <property name="meta.media.0.codec.long_name">H.264 / AVC / MPEG-4 AVC / MPEG-4 part 10</property>
  <property name="meta.media.0.codec.bit_rate">3790236</property>
  <property name="meta.attr.0.stream.handler_name.markup">VideoHandler</property>
  <property name="meta.attr.0.stream.vendor_id.markup">FFMP</property>
  <property name="meta.attr.0.stream.encoder.markup">Lavc58.134.100 libx264</property>
  <property name="meta.attr.major_brand.markup">qt  </property>
  <property name="meta.attr.minor_version.markup">512</property>
  <property name="meta.attr.compatible_brands.markup">qt  </property>
  <property name="meta.attr.encoder.markup">Lavf58.76.100</property>
  <property name="meta.attr.comment.markup">Rendered with Manim Community v0.12.0</property>
  <property name="meta.media.sample_aspect_num">1</property>
  <property name="meta.media.sample_aspect_den">1</property>
  <property name="meta.media.frame_rate_num">60</property>
  <property name="meta.media.frame_rate_den">1</property>
  <property name="meta.media.colorspace">601</property>
  <property name="meta.media.color_trc">2</property>
  <property name="meta.media.has_b_frames">0</property>
  <property name="meta.media.width">640</property>
  <property name="meta.media.height">360</property>
  <property name="meta.media.color_range">mpeg</property>
  <property name="set.test_audio">1</property>
  <property name="set.test_image">0</property>
  <property name="meta.media.top_field_first">0</property>
  <property name="meta.media.progressive">1</property>
 </producer>
 <producer id="producer459" in="00:00:00.000" out="00:00:01.483">
  <property name="length">90</property>
  <property name="eof">pause</property>
  <property name="resource">/home/xiaoxiae/.cache/kdenlive/proxy/21ec2a473f103e9ac5470345b3399288.mov</property>
  <property name="audio_index">-1</property>
  <property name="video_index">0</property>
  <property name="mute_on_pause">0</property>
  <property name="mlt_service">avformat-novalidate</property>
  <property name="seekable">1</property>
  <property name="aspect_ratio">1</property>
  <property name="kdenlive:clipname">10.mp4</property>
  <property name="kdenlive:folderid">314</property>
  <property name="kdenlive:id">315</property>
  <property name="kdenlive:file_size">808819</property>
  <property name="kdenlive:proxy">/home/xiaoxiae/.cache/kdenlive/proxy/21ec2a473f103e9ac5470345b3399288.mov</property>
  <property name="kdenlive:originalurl">video/ProgrammingModel/vid/10.mp4</property>
  <property name="kdenlive:original.mlt_type">producer</property>
  <property name="kdenlive:original.in">0</property>
  <property name="kdenlive:original.out">89</property>
  <property name="kdenlive:original.length">90</property>
  <property name="kdenlive:original.eof">pause</property>
  <property name="kdenlive:original.resource">video/ProgrammingModel/vid/10.mp4</property>
  <property name="kdenlive:original.meta.media.nb_streams">1</property>
  <property name="kdenlive:original.meta.media.0.stream.type">video</property>
  <property name="kdenlive:original.meta.media.0.stream.frame_rate">60</property>
  <property name="kdenlive:original.meta.media.0.stream.sample_aspect_ratio">0</property>
  <property name="kdenlive:original.meta.media.0.codec.width">3840</property>
  <property name="kdenlive:original.meta.media.0.codec.height">2160</property>
  <property name="kdenlive:original.meta.media.0.codec.rotate">0</property>
  <property name="kdenlive:original.meta.media.0.codec.pix_fmt">yuv420p</property>
  <property name="kdenlive:original.meta.media.0.codec.sample_aspect_ratio">0</property>
  <property name="kdenlive:original.meta.media.0.codec.colorspace">709</property>
  <property name="kdenlive:original.meta.media.0.codec.name">h264</property>
  <property name="kdenlive:original.meta.media.0.codec.long_name">H.264 / AVC / MPEG-4 AVC / MPEG-4 part 10</property>
  <property name="kdenlive:original.meta.media.0.codec.bit_rate">4304101</property>
  <property name="kdenlive:original.meta.attr.0.stream.handler_name.markup">VideoHandler</property>
  <property name="kdenlive:original.meta.attr.0.stream.vendor_id.markup">[0][0][0][0]</property>
  <property name="kdenlive:original.meta.attr.major_brand.markup">isom</property>
  <property name="kdenlive:original.meta.attr.minor_version.markup">512</property>
  <property name="kdenlive:original.meta.attr.compatible_brands.markup">isomiso2avc1mp41</property>
  <property name="kdenlive:original.meta.attr.encoder.markup">Lavf58.76.100</property>
  <property name="kdenlive:original.meta.attr.comment.markup">Rendered with Manim Community v0.12.0</property>
  <property name="kdenlive:original.seekable">1</property>
  <property name="kdenlive:original.width">3840</property>
  <property name="kdenlive:original.height">2160</property>
  <property name="kdenlive:original.meta.media.sample_aspect_num">1</property>
  <property name="kdenlive:original.meta.media.sample_aspect_den">1</property>
  <property name="kdenlive:original.aspect_ratio">1</property>
  <property name="kdenlive:original.audio_index">-1</property>
  <property name="kdenlive:original.video_index">0</property>
  <property name="kdenlive:original.mute_on_pause">0</property>
  <property name="kdenlive:original.mlt_service">avformat-novalidate</property>
  <property name="kdenlive:original.kdenlive:folderid">314</property>
  <property name="kdenlive:original.meta.media.frame_rate_num">60</property>
  <property name="kdenlive:original.meta.media.frame_rate_den">1</property>
  <property name="kdenlive:original.meta.media.colorspace">709</property>
  <property name="kdenlive:original.meta.media.color_trc">2</property>
  <property name="kdenlive:original.meta.media.has_b_frames">2</property>
  <property name="kdenlive:original.meta.media.width">3840</property>
  <property name="kdenlive:original.meta.media.height">2160</property>
  <property name="kdenlive:original.meta.media.color_range">mpeg</property>
  <property name="kdenlive:original.kdenlive:id">316</property>
  <property name="kdenlive:original.kdenlive:file_size">808819</property>
  <property name="kdenlive:original.kdenlive:file_hash">21ec2a473f103e9ac5470345b3399288</property>
  <property name="kdenlive:original.backup">1</property>
  <property name="kdenlive:file_hash">21ec2a473f103e9ac5470345b3399288</property>
  <property name="xml">was here</property>
  <property name="meta.media.nb_streams">1</property>
  <property name="meta.media.0.stream.type">video</property>
  <property name="meta.media.0.stream.frame_rate">60</property>
  <property name="meta.media.0.stream.sample_aspect_ratio">0</property>
  <property name="meta.media.0.codec.width">640</property>
  <property name="meta.media.0.codec.height">360</property>
  <property name="meta.media.0.codec.rotate">0</property>
  <property name="meta.media.0.codec.pix_fmt">yuv420p</property>
  <property name="meta.media.0.codec.sample_aspect_ratio">0</property>
  <property name="meta.media.0.codec.colorspace">601</property>
  <property name="meta.media.0.codec.name">h264</property>
  <property name="meta.media.0.codec.long_name">H.264 / AVC / MPEG-4 AVC / MPEG-4 part 10</property>
  <property name="meta.media.0.codec.bit_rate">3036586</property>
  <property name="meta.attr.0.stream.handler_name.markup">VideoHandler</property>
  <property name="meta.attr.0.stream.vendor_id.markup">FFMP</property>
  <property name="meta.attr.0.stream.encoder.markup">Lavc58.134.100 libx264</property>
  <property name="meta.attr.major_brand.markup">qt  </property>
  <property name="meta.attr.minor_version.markup">512</property>
  <property name="meta.attr.compatible_brands.markup">qt  </property>
  <property name="meta.attr.encoder.markup">Lavf58.76.100</property>
  <property name="meta.attr.comment.markup">Rendered with Manim Community v0.12.0</property>
  <property name="meta.media.sample_aspect_num">1</property>
  <property name="meta.media.sample_aspect_den">1</property>
  <property name="meta.media.frame_rate_num">60</property>
  <property name="meta.media.frame_rate_den">1</property>
  <property name="meta.media.colorspace">601</property>
  <property name="meta.media.color_trc">2</property>
  <property name="meta.media.has_b_frames">0</property>
  <property name="meta.media.width">640</property>
  <property name="meta.media.height">360</property>
  <property name="meta.media.color_range">mpeg</property>
  <property name="set.test_audio">1</property>
  <property name="set.test_image">0</property>
  <property name="meta.media.top_field_first">0</property>
  <property name="meta.media.progressive">1</property>
 </producer>
 <producer id="producer460" in="00:00:00.000" out="00:00:00.983">
  <property name="length">60</property>
  <property name="eof">pause</property>
  <property name="resource">/home/xiaoxiae/.cache/kdenlive/proxy/1a29784e8dbd913272ace5a64727c761.mov</property>
  <property name="audio_index">-1</property>
  <property name="video_index">0</property>
  <property name="mute_on_pause">0</property>
  <property name="mlt_service">avformat-novalidate</property>
  <property name="seekable">1</property>
  <property name="aspect_ratio">1</property>
  <property name="kdenlive:clipname">11.mp4</property>
  <property name="kdenlive:folderid">314</property>
  <property name="kdenlive:id">316</property>
  <property name="kdenlive:file_size">129310</property>
  <property name="kdenlive:proxy">/home/xiaoxiae/.cache/kdenlive/proxy/1a29784e8dbd913272ace5a64727c761.mov</property>
  <property name="kdenlive:originalurl">video/ProgrammingModel/vid/11.mp4</property>
  <property name="kdenlive:original.mlt_type">producer</property>
  <property name="kdenlive:original.in">0</property>
  <property name="kdenlive:original.out">59</property>
  <property name="kdenlive:original.length">60</property>
  <property name="kdenlive:original.eof">pause</property>
  <property name="kdenlive:original.resource">video/ProgrammingModel/vid/11.mp4</property>
  <property name="kdenlive:original.meta.media.nb_streams">1</property>
  <property name="kdenlive:original.meta.media.0.stream.type">video</property>
  <property name="kdenlive:original.meta.media.0.stream.frame_rate">60</property>
  <property name="kdenlive:original.meta.media.0.stream.sample_aspect_ratio">0</property>
  <property name="kdenlive:original.meta.media.0.codec.width">3840</property>
  <property name="kdenlive:original.meta.media.0.codec.height">2160</property>
  <property name="kdenlive:original.meta.media.0.codec.rotate">0</property>
  <property name="kdenlive:original.meta.media.0.codec.pix_fmt">yuv420p</property>
  <property name="kdenlive:original.meta.media.0.codec.sample_aspect_ratio">0</property>
  <property name="kdenlive:original.meta.media.0.codec.colorspace">709</property>
  <property name="kdenlive:original.meta.media.0.codec.name">h264</property>
  <property name="kdenlive:original.meta.media.0.codec.long_name">H.264 / AVC / MPEG-4 AVC / MPEG-4 part 10</property>
  <property name="kdenlive:original.meta.media.0.codec.bit_rate">1021488</property>
  <property name="kdenlive:original.meta.attr.0.stream.handler_name.markup">VideoHandler</property>
  <property name="kdenlive:original.meta.attr.0.stream.vendor_id.markup">[0][0][0][0]</property>
  <property name="kdenlive:original.meta.attr.major_brand.markup">isom</property>
  <property name="kdenlive:original.meta.attr.minor_version.markup">512</property>
  <property name="kdenlive:original.meta.attr.compatible_brands.markup">isomiso2avc1mp41</property>
  <property name="kdenlive:original.meta.attr.encoder.markup">Lavf58.76.100</property>
  <property name="kdenlive:original.meta.attr.comment.markup">Rendered with Manim Community v0.12.0</property>
  <property name="kdenlive:original.seekable">1</property>
  <property name="kdenlive:original.width">3840</property>
  <property name="kdenlive:original.height">2160</property>
  <property name="kdenlive:original.meta.media.sample_aspect_num">1</property>
  <property name="kdenlive:original.meta.media.sample_aspect_den">1</property>
  <property name="kdenlive:original.aspect_ratio">1</property>
  <property name="kdenlive:original.audio_index">-1</property>
  <property name="kdenlive:original.video_index">0</property>
  <property name="kdenlive:original.mute_on_pause">0</property>
  <property name="kdenlive:original.mlt_service">avformat-novalidate</property>
  <property name="kdenlive:original.kdenlive:folderid">314</property>
  <property name="kdenlive:original.meta.media.frame_rate_num">60</property>
  <property name="kdenlive:original.meta.media.frame_rate_den">1</property>
  <property name="kdenlive:original.meta.media.colorspace">709</property>
  <property name="kdenlive:original.meta.media.color_trc">2</property>
  <property name="kdenlive:original.meta.media.has_b_frames">2</property>
  <property name="kdenlive:original.meta.media.width">3840</property>
  <property name="kdenlive:original.meta.media.height">2160</property>
  <property name="kdenlive:original.meta.media.color_range">mpeg</property>
  <property name="kdenlive:original.kdenlive:id">317</property>
  <property name="kdenlive:original.kdenlive:file_size">129310</property>
  <property name="kdenlive:original.kdenlive:file_hash">1a29784e8dbd913272ace5a64727c761</property>
  <property name="kdenlive:original.backup">1</property>
  <property name="kdenlive:file_hash">1a29784e8dbd913272ace5a64727c761</property>
  <property name="xml">was here</property>
  <property name="meta.media.nb_streams">1</property>
  <property name="meta.media.0.stream.type">video</property>
  <property name="meta.media.0.stream.frame_rate">60</property>
  <property name="meta.media.0.stream.sample_aspect_ratio">0</property>
  <property name="meta.media.0.codec.width">640</property>
  <property name="meta.media.0.codec.height">360</property>
  <property name="meta.media.0.codec.rotate">0</property>
  <property name="meta.media.0.codec.pix_fmt">yuv420p</property>
  <property name="meta.media.0.codec.sample_aspect_ratio">0</property>
  <property name="meta.media.0.codec.colorspace">601</property>
  <property name="meta.media.0.codec.name">h264</property>
  <property name="meta.media.0.codec.long_name">H.264 / AVC / MPEG-4 AVC / MPEG-4 part 10</property>
  <property name="meta.media.0.codec.bit_rate">1601384</property>
  <property name="meta.attr.0.stream.handler_name.markup">VideoHandler</property>
  <property name="meta.attr.0.stream.vendor_id.markup">FFMP</property>
  <property name="meta.attr.0.stream.encoder.markup">Lavc58.134.100 libx264</property>
  <property name="meta.attr.major_brand.markup">qt  </property>
  <property name="meta.attr.minor_version.markup">512</property>
  <property name="meta.attr.compatible_brands.markup">qt  </property>
  <property name="meta.attr.encoder.markup">Lavf58.76.100</property>
  <property name="meta.attr.comment.markup">Rendered with Manim Community v0.12.0</property>
  <property name="meta.media.sample_aspect_num">1</property>
  <property name="meta.media.sample_aspect_den">1</property>
  <property name="meta.media.frame_rate_num">60</property>
  <property name="meta.media.frame_rate_den">1</property>
  <property name="meta.media.colorspace">601</property>
  <property name="meta.media.color_trc">2</property>
  <property name="meta.media.has_b_frames">0</property>
  <property name="meta.media.width">640</property>
  <property name="meta.media.height">360</property>
  <property name="meta.media.color_range">mpeg</property>
  <property name="set.test_audio">1</property>
  <property name="set.test_image">0</property>
  <property name="meta.media.top_field_first">0</property>
  <property name="meta.media.progressive">1</property>
 </producer>
 <producer id="producer461" in="00:00:00.000" out="00:00:01.183">
  <property name="length">72</property>
  <property name="eof">pause</property>
  <property name="resource">/home/xiaoxiae/.cache/kdenlive/proxy/7c9b6d4279c0b5356dc73002fc07e4e6.mov</property>
  <property name="audio_index">-1</property>
  <property name="video_index">0</property>
  <property name="mute_on_pause">0</property>
  <property name="mlt_service">avformat-novalidate</property>
  <property name="seekable">1</property>
  <property name="aspect_ratio">1</property>
  <property name="kdenlive:clipname">12.mp4</property>
  <property name="kdenlive:folderid">314</property>
  <property name="kdenlive:id">317</property>
  <property name="kdenlive:file_size">134693</property>
  <property name="kdenlive:proxy">/home/xiaoxiae/.cache/kdenlive/proxy/7c9b6d4279c0b5356dc73002fc07e4e6.mov</property>
  <property name="kdenlive:originalurl">video/ProgrammingModel/vid/12.mp4</property>
  <property name="kdenlive:original.mlt_type">producer</property>
  <property name="kdenlive:original.in">0</property>
  <property name="kdenlive:original.out">71</property>
  <property name="kdenlive:original.length">72</property>
  <property name="kdenlive:original.eof">pause</property>
  <property name="kdenlive:original.resource">video/ProgrammingModel/vid/12.mp4</property>
  <property name="kdenlive:original.meta.media.nb_streams">1</property>
  <property name="kdenlive:original.meta.media.0.stream.type">video</property>
  <property name="kdenlive:original.meta.media.0.stream.frame_rate">60</property>
  <property name="kdenlive:original.meta.media.0.stream.sample_aspect_ratio">0</property>
  <property name="kdenlive:original.meta.media.0.codec.width">3840</property>
  <property name="kdenlive:original.meta.media.0.codec.height">2160</property>
  <property name="kdenlive:original.meta.media.0.codec.rotate">0</property>
  <property name="kdenlive:original.meta.media.0.codec.pix_fmt">yuv420p</property>
  <property name="kdenlive:original.meta.media.0.codec.sample_aspect_ratio">0</property>
  <property name="kdenlive:original.meta.media.0.codec.colorspace">709</property>
  <property name="kdenlive:original.meta.media.0.codec.name">h264</property>
  <property name="kdenlive:original.meta.media.0.codec.long_name">H.264 / AVC / MPEG-4 AVC / MPEG-4 part 10</property>
  <property name="kdenlive:original.meta.media.0.codec.bit_rate">886806</property>
  <property name="kdenlive:original.meta.attr.0.stream.handler_name.markup">VideoHandler</property>
  <property name="kdenlive:original.meta.attr.0.stream.vendor_id.markup">[0][0][0][0]</property>
  <property name="kdenlive:original.meta.attr.major_brand.markup">isom</property>
  <property name="kdenlive:original.meta.attr.minor_version.markup">512</property>
  <property name="kdenlive:original.meta.attr.compatible_brands.markup">isomiso2avc1mp41</property>
  <property name="kdenlive:original.meta.attr.encoder.markup">Lavf58.76.100</property>
  <property name="kdenlive:original.meta.attr.comment.markup">Rendered with Manim Community v0.12.0</property>
  <property name="kdenlive:original.seekable">1</property>
  <property name="kdenlive:original.width">3840</property>
  <property name="kdenlive:original.height">2160</property>
  <property name="kdenlive:original.meta.media.sample_aspect_num">1</property>
  <property name="kdenlive:original.meta.media.sample_aspect_den">1</property>
  <property name="kdenlive:original.aspect_ratio">1</property>
  <property name="kdenlive:original.audio_index">-1</property>
  <property name="kdenlive:original.video_index">0</property>
  <property name="kdenlive:original.mute_on_pause">0</property>
  <property name="kdenlive:original.mlt_service">avformat-novalidate</property>
  <property name="kdenlive:original.kdenlive:folderid">314</property>
  <property name="kdenlive:original.meta.media.frame_rate_num">60</property>
  <property name="kdenlive:original.meta.media.frame_rate_den">1</property>
  <property name="kdenlive:original.meta.media.colorspace">709</property>
  <property name="kdenlive:original.meta.media.color_trc">2</property>
  <property name="kdenlive:original.meta.media.has_b_frames">2</property>
  <property name="kdenlive:original.meta.media.width">3840</property>
  <property name="kdenlive:original.meta.media.height">2160</property>
  <property name="kdenlive:original.meta.media.color_range">mpeg</property>
  <property name="kdenlive:original.kdenlive:id">318</property>
  <property name="kdenlive:original.kdenlive:file_size">134693</property>
  <property name="kdenlive:original.kdenlive:file_hash">7c9b6d4279c0b5356dc73002fc07e4e6</property>
  <property name="kdenlive:original.backup">1</property>
  <property name="kdenlive:file_hash">7c9b6d4279c0b5356dc73002fc07e4e6</property>
  <property name="xml">was here</property>
  <property name="meta.media.nb_streams">1</property>
  <property name="meta.media.0.stream.type">video</property>
  <property name="meta.media.0.stream.frame_rate">60</property>
  <property name="meta.media.0.stream.sample_aspect_ratio">0</property>
  <property name="meta.media.0.codec.width">640</property>
  <property name="meta.media.0.codec.height">360</property>
  <property name="meta.media.0.codec.rotate">0</property>
  <property name="meta.media.0.codec.pix_fmt">yuv420p</property>
  <property name="meta.media.0.codec.sample_aspect_ratio">0</property>
  <property name="meta.media.0.codec.colorspace">601</property>
  <property name="meta.media.0.codec.name">h264</property>
  <property name="meta.media.0.codec.long_name">H.264 / AVC / MPEG-4 AVC / MPEG-4 part 10</property>
  <property name="meta.media.0.codec.bit_rate">2091446</property>
  <property name="meta.attr.0.stream.handler_name.markup">VideoHandler</property>
  <property name="meta.attr.0.stream.vendor_id.markup">FFMP</property>
  <property name="meta.attr.0.stream.encoder.markup">Lavc58.134.100 libx264</property>
  <property name="meta.attr.major_brand.markup">qt  </property>
  <property name="meta.attr.minor_version.markup">512</property>
  <property name="meta.attr.compatible_brands.markup">qt  </property>
  <property name="meta.attr.encoder.markup">Lavf58.76.100</property>
  <property name="meta.attr.comment.markup">Rendered with Manim Community v0.12.0</property>
  <property name="meta.media.sample_aspect_num">1</property>
  <property name="meta.media.sample_aspect_den">1</property>
  <property name="meta.media.frame_rate_num">60</property>
  <property name="meta.media.frame_rate_den">1</property>
  <property name="meta.media.colorspace">601</property>
  <property name="meta.media.color_trc">2</property>
  <property name="meta.media.has_b_frames">0</property>
  <property name="meta.media.width">640</property>
  <property name="meta.media.height">360</property>
  <property name="meta.media.color_range">mpeg</property>
  <property name="set.test_audio">1</property>
  <property name="set.test_image">0</property>
  <property name="meta.media.top_field_first">0</property>
  <property name="meta.media.progressive">1</property>
 </producer>
 <producer id="producer462" in="00:00:00.000" out="00:00:01.233">
  <property name="length">75</property>
  <property name="eof">pause</property>
  <property name="resource">/home/xiaoxiae/.cache/kdenlive/proxy/3f7a6189a743c140345516f20f5b28fe.mov</property>
  <property name="audio_index">-1</property>
  <property name="video_index">0</property>
  <property name="mute_on_pause">0</property>
  <property name="mlt_service">avformat-novalidate</property>
  <property name="seekable">1</property>
  <property name="aspect_ratio">1</property>
  <property name="kdenlive:clipname">13.mp4</property>
  <property name="kdenlive:folderid">314</property>
  <property name="kdenlive:id">318</property>
  <property name="kdenlive:file_size">116791</property>
  <property name="kdenlive:proxy">/home/xiaoxiae/.cache/kdenlive/proxy/3f7a6189a743c140345516f20f5b28fe.mov</property>
  <property name="kdenlive:originalurl">video/ProgrammingModel/vid/13.mp4</property>
  <property name="kdenlive:original.mlt_type">producer</property>
  <property name="kdenlive:original.in">0</property>
  <property name="kdenlive:original.out">74</property>
  <property name="kdenlive:original.length">75</property>
  <property name="kdenlive:original.eof">pause</property>
  <property name="kdenlive:original.resource">video/ProgrammingModel/vid/13.mp4</property>
  <property name="kdenlive:original.meta.media.nb_streams">1</property>
  <property name="kdenlive:original.meta.media.0.stream.type">video</property>
  <property name="kdenlive:original.meta.media.0.stream.frame_rate">60</property>
  <property name="kdenlive:original.meta.media.0.stream.sample_aspect_ratio">0</property>
  <property name="kdenlive:original.meta.media.0.codec.width">3840</property>
  <property name="kdenlive:original.meta.media.0.codec.height">2160</property>
  <property name="kdenlive:original.meta.media.0.codec.rotate">0</property>
  <property name="kdenlive:original.meta.media.0.codec.pix_fmt">yuv420p</property>
  <property name="kdenlive:original.meta.media.0.codec.sample_aspect_ratio">0</property>
  <property name="kdenlive:original.meta.media.0.codec.colorspace">709</property>
  <property name="kdenlive:original.meta.media.0.codec.name">h264</property>
  <property name="kdenlive:original.meta.media.0.codec.long_name">H.264 / AVC / MPEG-4 AVC / MPEG-4 part 10</property>
  <property name="kdenlive:original.meta.media.0.codec.bit_rate">736121</property>
  <property name="kdenlive:original.meta.attr.0.stream.handler_name.markup">VideoHandler</property>
  <property name="kdenlive:original.meta.attr.0.stream.vendor_id.markup">[0][0][0][0]</property>
  <property name="kdenlive:original.meta.attr.major_brand.markup">isom</property>
  <property name="kdenlive:original.meta.attr.minor_version.markup">512</property>
  <property name="kdenlive:original.meta.attr.compatible_brands.markup">isomiso2avc1mp41</property>
  <property name="kdenlive:original.meta.attr.encoder.markup">Lavf58.76.100</property>
  <property name="kdenlive:original.meta.attr.comment.markup">Rendered with Manim Community v0.12.0</property>
  <property name="kdenlive:original.seekable">1</property>
  <property name="kdenlive:original.width">3840</property>
  <property name="kdenlive:original.height">2160</property>
  <property name="kdenlive:original.meta.media.sample_aspect_num">1</property>
  <property name="kdenlive:original.meta.media.sample_aspect_den">1</property>
  <property name="kdenlive:original.aspect_ratio">1</property>
  <property name="kdenlive:original.audio_index">-1</property>
  <property name="kdenlive:original.video_index">0</property>
  <property name="kdenlive:original.mute_on_pause">0</property>
  <property name="kdenlive:original.mlt_service">avformat-novalidate</property>
  <property name="kdenlive:original.kdenlive:folderid">314</property>
  <property name="kdenlive:original.meta.media.frame_rate_num">60</property>
  <property name="kdenlive:original.meta.media.frame_rate_den">1</property>
  <property name="kdenlive:original.meta.media.colorspace">709</property>
  <property name="kdenlive:original.meta.media.color_trc">2</property>
  <property name="kdenlive:original.meta.media.has_b_frames">2</property>
  <property name="kdenlive:original.meta.media.width">3840</property>
  <property name="kdenlive:original.meta.media.height">2160</property>
  <property name="kdenlive:original.meta.media.color_range">mpeg</property>
  <property name="kdenlive:original.kdenlive:id">319</property>
  <property name="kdenlive:original.kdenlive:file_size">116791</property>
  <property name="kdenlive:original.kdenlive:file_hash">3f7a6189a743c140345516f20f5b28fe</property>
  <property name="kdenlive:original.backup">1</property>
  <property name="kdenlive:file_hash">3f7a6189a743c140345516f20f5b28fe</property>
  <property name="xml">was here</property>
  <property name="meta.media.nb_streams">1</property>
  <property name="meta.media.0.stream.type">video</property>
  <property name="meta.media.0.stream.frame_rate">60</property>
  <property name="meta.media.0.stream.sample_aspect_ratio">0</property>
  <property name="meta.media.0.codec.width">640</property>
  <property name="meta.media.0.codec.height">360</property>
  <property name="meta.media.0.codec.rotate">0</property>
  <property name="meta.media.0.codec.pix_fmt">yuv420p</property>
  <property name="meta.media.0.codec.sample_aspect_ratio">0</property>
  <property name="meta.media.0.codec.colorspace">601</property>
  <property name="meta.media.0.codec.name">h264</property>
  <property name="meta.media.0.codec.long_name">H.264 / AVC / MPEG-4 AVC / MPEG-4 part 10</property>
  <property name="meta.media.0.codec.bit_rate">2135180</property>
  <property name="meta.attr.0.stream.handler_name.markup">VideoHandler</property>
  <property name="meta.attr.0.stream.vendor_id.markup">FFMP</property>
  <property name="meta.attr.0.stream.encoder.markup">Lavc58.134.100 libx264</property>
  <property name="meta.attr.major_brand.markup">qt  </property>
  <property name="meta.attr.minor_version.markup">512</property>
  <property name="meta.attr.compatible_brands.markup">qt  </property>
  <property name="meta.attr.encoder.markup">Lavf58.76.100</property>
  <property name="meta.attr.comment.markup">Rendered with Manim Community v0.12.0</property>
  <property name="meta.media.sample_aspect_num">1</property>
  <property name="meta.media.sample_aspect_den">1</property>
  <property name="meta.media.frame_rate_num">60</property>
  <property name="meta.media.frame_rate_den">1</property>
  <property name="meta.media.colorspace">601</property>
  <property name="meta.media.color_trc">2</property>
  <property name="meta.media.has_b_frames">0</property>
  <property name="meta.media.width">640</property>
  <property name="meta.media.height">360</property>
  <property name="meta.media.color_range">mpeg</property>
  <property name="set.test_audio">1</property>
  <property name="set.test_image">0</property>
 </producer>
 <producer id="producer463" in="00:00:00.000" out="00:00:01.183">
  <property name="length">72</property>
  <property name="eof">pause</property>
  <property name="resource">/home/xiaoxiae/.cache/kdenlive/proxy/4d9eaf8b6f065de0c632f41e0d7f676f.mov</property>
  <property name="audio_index">-1</property>
  <property name="video_index">0</property>
  <property name="mute_on_pause">0</property>
  <property name="mlt_service">avformat-novalidate</property>
  <property name="seekable">1</property>
  <property name="aspect_ratio">1</property>
  <property name="kdenlive:clipname">14.mp4</property>
  <property name="kdenlive:folderid">314</property>
  <property name="kdenlive:id">319</property>
  <property name="kdenlive:file_size">136881</property>
  <property name="kdenlive:proxy">/home/xiaoxiae/.cache/kdenlive/proxy/4d9eaf8b6f065de0c632f41e0d7f676f.mov</property>
  <property name="kdenlive:originalurl">video/ProgrammingModel/vid/14.mp4</property>
  <property name="kdenlive:original.mlt_type">producer</property>
  <property name="kdenlive:original.in">0</property>
  <property name="kdenlive:original.out">71</property>
  <property name="kdenlive:original.length">72</property>
  <property name="kdenlive:original.eof">pause</property>
  <property name="kdenlive:original.resource">video/ProgrammingModel/vid/14.mp4</property>
  <property name="kdenlive:original.meta.media.nb_streams">1</property>
  <property name="kdenlive:original.meta.media.0.stream.type">video</property>
  <property name="kdenlive:original.meta.media.0.stream.frame_rate">60</property>
  <property name="kdenlive:original.meta.media.0.stream.sample_aspect_ratio">0</property>
  <property name="kdenlive:original.meta.media.0.codec.width">3840</property>
  <property name="kdenlive:original.meta.media.0.codec.height">2160</property>
  <property name="kdenlive:original.meta.media.0.codec.rotate">0</property>
  <property name="kdenlive:original.meta.media.0.codec.pix_fmt">yuv420p</property>
  <property name="kdenlive:original.meta.media.0.codec.sample_aspect_ratio">0</property>
  <property name="kdenlive:original.meta.media.0.codec.colorspace">709</property>
  <property name="kdenlive:original.meta.media.0.codec.name">h264</property>
  <property name="kdenlive:original.meta.media.0.codec.long_name">H.264 / AVC / MPEG-4 AVC / MPEG-4 part 10</property>
  <property name="kdenlive:original.meta.media.0.codec.bit_rate">901126</property>
  <property name="kdenlive:original.meta.attr.0.stream.handler_name.markup">VideoHandler</property>
  <property name="kdenlive:original.meta.attr.0.stream.vendor_id.markup">[0][0][0][0]</property>
  <property name="kdenlive:original.meta.attr.major_brand.markup">isom</property>
  <property name="kdenlive:original.meta.attr.minor_version.markup">512</property>
  <property name="kdenlive:original.meta.attr.compatible_brands.markup">isomiso2avc1mp41</property>
  <property name="kdenlive:original.meta.attr.encoder.markup">Lavf58.76.100</property>
  <property name="kdenlive:original.meta.attr.comment.markup">Rendered with Manim Community v0.12.0</property>
  <property name="kdenlive:original.seekable">1</property>
  <property name="kdenlive:original.width">3840</property>
  <property name="kdenlive:original.height">2160</property>
  <property name="kdenlive:original.meta.media.sample_aspect_num">1</property>
  <property name="kdenlive:original.meta.media.sample_aspect_den">1</property>
  <property name="kdenlive:original.aspect_ratio">1</property>
  <property name="kdenlive:original.audio_index">-1</property>
  <property name="kdenlive:original.video_index">0</property>
  <property name="kdenlive:original.mute_on_pause">0</property>
  <property name="kdenlive:original.mlt_service">avformat-novalidate</property>
  <property name="kdenlive:original.kdenlive:folderid">314</property>
  <property name="kdenlive:original.meta.media.frame_rate_num">60</property>
  <property name="kdenlive:original.meta.media.frame_rate_den">1</property>
  <property name="kdenlive:original.meta.media.colorspace">709</property>
  <property name="kdenlive:original.meta.media.color_trc">2</property>
  <property name="kdenlive:original.meta.media.has_b_frames">2</property>
  <property name="kdenlive:original.meta.media.width">3840</property>
  <property name="kdenlive:original.meta.media.height">2160</property>
  <property name="kdenlive:original.meta.media.color_range">mpeg</property>
  <property name="kdenlive:original.kdenlive:id">320</property>
  <property name="kdenlive:original.kdenlive:file_size">136881</property>
  <property name="kdenlive:original.kdenlive:file_hash">4d9eaf8b6f065de0c632f41e0d7f676f</property>
  <property name="kdenlive:original.backup">1</property>
  <property name="kdenlive:file_hash">4d9eaf8b6f065de0c632f41e0d7f676f</property>
  <property name="xml">was here</property>
  <property name="meta.media.nb_streams">1</property>
  <property name="meta.media.0.stream.type">video</property>
  <property name="meta.media.0.stream.frame_rate">60</property>
  <property name="meta.media.0.stream.sample_aspect_ratio">0</property>
  <property name="meta.media.0.codec.width">640</property>
  <property name="meta.media.0.codec.height">360</property>
  <property name="meta.media.0.codec.rotate">0</property>
  <property name="meta.media.0.codec.pix_fmt">yuv420p</property>
  <property name="meta.media.0.codec.sample_aspect_ratio">0</property>
  <property name="meta.media.0.codec.colorspace">601</property>
  <property name="meta.media.0.codec.name">h264</property>
  <property name="meta.media.0.codec.long_name">H.264 / AVC / MPEG-4 AVC / MPEG-4 part 10</property>
  <property name="meta.media.0.codec.bit_rate">2316786</property>
  <property name="meta.attr.0.stream.handler_name.markup">VideoHandler</property>
  <property name="meta.attr.0.stream.vendor_id.markup">FFMP</property>
  <property name="meta.attr.0.stream.encoder.markup">Lavc58.134.100 libx264</property>
  <property name="meta.attr.major_brand.markup">qt  </property>
  <property name="meta.attr.minor_version.markup">512</property>
  <property name="meta.attr.compatible_brands.markup">qt  </property>
  <property name="meta.attr.encoder.markup">Lavf58.76.100</property>
  <property name="meta.attr.comment.markup">Rendered with Manim Community v0.12.0</property>
  <property name="meta.media.sample_aspect_num">1</property>
  <property name="meta.media.sample_aspect_den">1</property>
  <property name="meta.media.frame_rate_num">60</property>
  <property name="meta.media.frame_rate_den">1</property>
  <property name="meta.media.colorspace">601</property>
  <property name="meta.media.color_trc">2</property>
  <property name="meta.media.has_b_frames">0</property>
  <property name="meta.media.width">640</property>
  <property name="meta.media.height">360</property>
  <property name="meta.media.color_range">mpeg</property>
  <property name="set.test_audio">1</property>
  <property name="set.test_image">0</property>
  <property name="meta.media.top_field_first">0</property>
  <property name="meta.media.progressive">1</property>
 </producer>
 <producer id="producer464" in="00:00:00.000" out="00:00:01.233">
  <property name="length">75</property>
  <property name="eof">pause</property>
  <property name="resource">/home/xiaoxiae/.cache/kdenlive/proxy/65599ed3cf5034f7591c517ae05fd0e4.mov</property>
  <property name="audio_index">-1</property>
  <property name="video_index">0</property>
  <property name="mute_on_pause">0</property>
  <property name="mlt_service">avformat-novalidate</property>
  <property name="seekable">1</property>
  <property name="aspect_ratio">1</property>
  <property name="kdenlive:clipname">15.mp4</property>
  <property name="kdenlive:folderid">314</property>
  <property name="kdenlive:id">320</property>
  <property name="kdenlive:file_size">124405</property>
  <property name="kdenlive:proxy">/home/xiaoxiae/.cache/kdenlive/proxy/65599ed3cf5034f7591c517ae05fd0e4.mov</property>
  <property name="kdenlive:originalurl">video/ProgrammingModel/vid/15.mp4</property>
  <property name="kdenlive:original.mlt_type">producer</property>
  <property name="kdenlive:original.in">0</property>
  <property name="kdenlive:original.out">74</property>
  <property name="kdenlive:original.length">75</property>
  <property name="kdenlive:original.eof">pause</property>
  <property name="kdenlive:original.resource">video/ProgrammingModel/vid/15.mp4</property>
  <property name="kdenlive:original.meta.media.nb_streams">1</property>
  <property name="kdenlive:original.meta.media.0.stream.type">video</property>
  <property name="kdenlive:original.meta.media.0.stream.frame_rate">60</property>
  <property name="kdenlive:original.meta.media.0.stream.sample_aspect_ratio">0</property>
  <property name="kdenlive:original.meta.media.0.codec.width">3840</property>
  <property name="kdenlive:original.meta.media.0.codec.height">2160</property>
  <property name="kdenlive:original.meta.media.0.codec.rotate">0</property>
  <property name="kdenlive:original.meta.media.0.codec.pix_fmt">yuv420p</property>
  <property name="kdenlive:original.meta.media.0.codec.sample_aspect_ratio">0</property>
  <property name="kdenlive:original.meta.media.0.codec.colorspace">709</property>
  <property name="kdenlive:original.meta.media.0.codec.name">h264</property>
  <property name="kdenlive:original.meta.media.0.codec.long_name">H.264 / AVC / MPEG-4 AVC / MPEG-4 part 10</property>
  <property name="kdenlive:original.meta.media.0.codec.bit_rate">785004</property>
  <property name="kdenlive:original.meta.attr.0.stream.handler_name.markup">VideoHandler</property>
  <property name="kdenlive:original.meta.attr.0.stream.vendor_id.markup">[0][0][0][0]</property>
  <property name="kdenlive:original.meta.attr.major_brand.markup">isom</property>
  <property name="kdenlive:original.meta.attr.minor_version.markup">512</property>
  <property name="kdenlive:original.meta.attr.compatible_brands.markup">isomiso2avc1mp41</property>
  <property name="kdenlive:original.meta.attr.encoder.markup">Lavf58.76.100</property>
  <property name="kdenlive:original.meta.attr.comment.markup">Rendered with Manim Community v0.12.0</property>
  <property name="kdenlive:original.seekable">1</property>
  <property name="kdenlive:original.width">3840</property>
  <property name="kdenlive:original.height">2160</property>
  <property name="kdenlive:original.meta.media.sample_aspect_num">1</property>
  <property name="kdenlive:original.meta.media.sample_aspect_den">1</property>
  <property name="kdenlive:original.aspect_ratio">1</property>
  <property name="kdenlive:original.audio_index">-1</property>
  <property name="kdenlive:original.video_index">0</property>
  <property name="kdenlive:original.mute_on_pause">0</property>
  <property name="kdenlive:original.mlt_service">avformat-novalidate</property>
  <property name="kdenlive:original.kdenlive:folderid">314</property>
  <property name="kdenlive:original.meta.media.frame_rate_num">60</property>
  <property name="kdenlive:original.meta.media.frame_rate_den">1</property>
  <property name="kdenlive:original.meta.media.colorspace">709</property>
  <property name="kdenlive:original.meta.media.color_trc">2</property>
  <property name="kdenlive:original.meta.media.has_b_frames">2</property>
  <property name="kdenlive:original.meta.media.width">3840</property>
  <property name="kdenlive:original.meta.media.height">2160</property>
  <property name="kdenlive:original.meta.media.color_range">mpeg</property>
  <property name="kdenlive:original.kdenlive:id">321</property>
  <property name="kdenlive:original.kdenlive:file_size">124405</property>
  <property name="kdenlive:original.kdenlive:file_hash">65599ed3cf5034f7591c517ae05fd0e4</property>
  <property name="kdenlive:original.backup">1</property>
  <property name="kdenlive:file_hash">65599ed3cf5034f7591c517ae05fd0e4</property>
  <property name="xml">was here</property>
  <property name="meta.media.nb_streams">1</property>
  <property name="meta.media.0.stream.type">video</property>
  <property name="meta.media.0.stream.frame_rate">60</property>
  <property name="meta.media.0.stream.sample_aspect_ratio">0</property>
  <property name="meta.media.0.codec.width">640</property>
  <property name="meta.media.0.codec.height">360</property>
  <property name="meta.media.0.codec.rotate">0</property>
  <property name="meta.media.0.codec.pix_fmt">yuv420p</property>
  <property name="meta.media.0.codec.sample_aspect_ratio">0</property>
  <property name="meta.media.0.codec.colorspace">601</property>
  <property name="meta.media.0.codec.name">h264</property>
  <property name="meta.media.0.codec.long_name">H.264 / AVC / MPEG-4 AVC / MPEG-4 part 10</property>
  <property name="meta.media.0.codec.bit_rate">2356665</property>
  <property name="meta.attr.0.stream.handler_name.markup">VideoHandler</property>
  <property name="meta.attr.0.stream.vendor_id.markup">FFMP</property>
  <property name="meta.attr.0.stream.encoder.markup">Lavc58.134.100 libx264</property>
  <property name="meta.attr.major_brand.markup">qt  </property>
  <property name="meta.attr.minor_version.markup">512</property>
  <property name="meta.attr.compatible_brands.markup">qt  </property>
  <property name="meta.attr.encoder.markup">Lavf58.76.100</property>
  <property name="meta.attr.comment.markup">Rendered with Manim Community v0.12.0</property>
  <property name="meta.media.sample_aspect_num">1</property>
  <property name="meta.media.sample_aspect_den">1</property>
  <property name="meta.media.frame_rate_num">60</property>
  <property name="meta.media.frame_rate_den">1</property>
  <property name="meta.media.colorspace">601</property>
  <property name="meta.media.color_trc">2</property>
  <property name="meta.media.has_b_frames">0</property>
  <property name="meta.media.width">640</property>
  <property name="meta.media.height">360</property>
  <property name="meta.media.color_range">mpeg</property>
  <property name="set.test_audio">1</property>
  <property name="set.test_image">0</property>
 </producer>
 <producer id="producer465" in="00:00:00.000" out="00:00:01.183">
  <property name="length">72</property>
  <property name="eof">pause</property>
  <property name="resource">/home/xiaoxiae/.cache/kdenlive/proxy/380cb7b7ad33867e0d0c552df5cf0888.mov</property>
  <property name="audio_index">-1</property>
  <property name="video_index">0</property>
  <property name="mute_on_pause">0</property>
  <property name="mlt_service">avformat-novalidate</property>
  <property name="seekable">1</property>
  <property name="aspect_ratio">1</property>
  <property name="kdenlive:clipname">16.mp4</property>
  <property name="kdenlive:folderid">314</property>
  <property name="kdenlive:id">321</property>
  <property name="kdenlive:file_size">141038</property>
  <property name="kdenlive:proxy">/home/xiaoxiae/.cache/kdenlive/proxy/380cb7b7ad33867e0d0c552df5cf0888.mov</property>
  <property name="kdenlive:originalurl">video/ProgrammingModel/vid/16.mp4</property>
  <property name="kdenlive:original.mlt_type">producer</property>
  <property name="kdenlive:original.in">0</property>
  <property name="kdenlive:original.out">71</property>
  <property name="kdenlive:original.length">72</property>
  <property name="kdenlive:original.eof">pause</property>
  <property name="kdenlive:original.resource">video/ProgrammingModel/vid/16.mp4</property>
  <property name="kdenlive:original.meta.media.nb_streams">1</property>
  <property name="kdenlive:original.meta.media.0.stream.type">video</property>
  <property name="kdenlive:original.meta.media.0.stream.frame_rate">60</property>
  <property name="kdenlive:original.meta.media.0.stream.sample_aspect_ratio">0</property>
  <property name="kdenlive:original.meta.media.0.codec.width">3840</property>
  <property name="kdenlive:original.meta.media.0.codec.height">2160</property>
  <property name="kdenlive:original.meta.media.0.codec.rotate">0</property>
  <property name="kdenlive:original.meta.media.0.codec.pix_fmt">yuv420p</property>
  <property name="kdenlive:original.meta.media.0.codec.sample_aspect_ratio">0</property>
  <property name="kdenlive:original.meta.media.0.codec.colorspace">709</property>
  <property name="kdenlive:original.meta.media.0.codec.name">h264</property>
  <property name="kdenlive:original.meta.media.0.codec.long_name">H.264 / AVC / MPEG-4 AVC / MPEG-4 part 10</property>
  <property name="kdenlive:original.meta.media.0.codec.bit_rate">928840</property>
  <property name="kdenlive:original.meta.attr.0.stream.handler_name.markup">VideoHandler</property>
  <property name="kdenlive:original.meta.attr.0.stream.vendor_id.markup">[0][0][0][0]</property>
  <property name="kdenlive:original.meta.attr.major_brand.markup">isom</property>
  <property name="kdenlive:original.meta.attr.minor_version.markup">512</property>
  <property name="kdenlive:original.meta.attr.compatible_brands.markup">isomiso2avc1mp41</property>
  <property name="kdenlive:original.meta.attr.encoder.markup">Lavf58.76.100</property>
  <property name="kdenlive:original.meta.attr.comment.markup">Rendered with Manim Community v0.12.0</property>
  <property name="kdenlive:original.seekable">1</property>
  <property name="kdenlive:original.width">3840</property>
  <property name="kdenlive:original.height">2160</property>
  <property name="kdenlive:original.meta.media.sample_aspect_num">1</property>
  <property name="kdenlive:original.meta.media.sample_aspect_den">1</property>
  <property name="kdenlive:original.aspect_ratio">1</property>
  <property name="kdenlive:original.audio_index">-1</property>
  <property name="kdenlive:original.video_index">0</property>
  <property name="kdenlive:original.mute_on_pause">0</property>
  <property name="kdenlive:original.mlt_service">avformat-novalidate</property>
  <property name="kdenlive:original.kdenlive:folderid">314</property>
  <property name="kdenlive:original.meta.media.frame_rate_num">60</property>
  <property name="kdenlive:original.meta.media.frame_rate_den">1</property>
  <property name="kdenlive:original.meta.media.colorspace">709</property>
  <property name="kdenlive:original.meta.media.color_trc">2</property>
  <property name="kdenlive:original.meta.media.has_b_frames">2</property>
  <property name="kdenlive:original.meta.media.width">3840</property>
  <property name="kdenlive:original.meta.media.height">2160</property>
  <property name="kdenlive:original.meta.media.color_range">mpeg</property>
  <property name="kdenlive:original.kdenlive:id">322</property>
  <property name="kdenlive:original.kdenlive:file_size">141038</property>
  <property name="kdenlive:original.kdenlive:file_hash">380cb7b7ad33867e0d0c552df5cf0888</property>
  <property name="kdenlive:original.backup">1</property>
  <property name="kdenlive:file_hash">380cb7b7ad33867e0d0c552df5cf0888</property>
  <property name="xml">was here</property>
  <property name="meta.media.nb_streams">1</property>
  <property name="meta.media.0.stream.type">video</property>
  <property name="meta.media.0.stream.frame_rate">60</property>
  <property name="meta.media.0.stream.sample_aspect_ratio">0</property>
  <property name="meta.media.0.codec.width">640</property>
  <property name="meta.media.0.codec.height">360</property>
  <property name="meta.media.0.codec.rotate">0</property>
  <property name="meta.media.0.codec.pix_fmt">yuv420p</property>
  <property name="meta.media.0.codec.sample_aspect_ratio">0</property>
  <property name="meta.media.0.codec.colorspace">601</property>
  <property name="meta.media.0.codec.name">h264</property>
  <property name="meta.media.0.codec.long_name">H.264 / AVC / MPEG-4 AVC / MPEG-4 part 10</property>
  <property name="meta.media.0.codec.bit_rate">2508066</property>
  <property name="meta.attr.0.stream.handler_name.markup">VideoHandler</property>
  <property name="meta.attr.0.stream.vendor_id.markup">FFMP</property>
  <property name="meta.attr.0.stream.encoder.markup">Lavc58.134.100 libx264</property>
  <property name="meta.attr.major_brand.markup">qt  </property>
  <property name="meta.attr.minor_version.markup">512</property>
  <property name="meta.attr.compatible_brands.markup">qt  </property>
  <property name="meta.attr.encoder.markup">Lavf58.76.100</property>
  <property name="meta.attr.comment.markup">Rendered with Manim Community v0.12.0</property>
  <property name="meta.media.sample_aspect_num">1</property>
  <property name="meta.media.sample_aspect_den">1</property>
  <property name="meta.media.frame_rate_num">60</property>
  <property name="meta.media.frame_rate_den">1</property>
  <property name="meta.media.colorspace">601</property>
  <property name="meta.media.color_trc">2</property>
  <property name="meta.media.has_b_frames">0</property>
  <property name="meta.media.width">640</property>
  <property name="meta.media.height">360</property>
  <property name="meta.media.color_range">mpeg</property>
  <property name="set.test_audio">1</property>
  <property name="set.test_image">0</property>
  <property name="meta.media.top_field_first">0</property>
  <property name="meta.media.progressive">1</property>
 </producer>
 <producer id="producer466" in="00:00:00.000" out="00:00:00.983">
  <property name="length">60</property>
  <property name="eof">pause</property>
  <property name="resource">/home/xiaoxiae/.cache/kdenlive/proxy/72cc60e17d62c0f52ace5e1e0113ba57.mov</property>
  <property name="audio_index">-1</property>
  <property name="video_index">0</property>
  <property name="mute_on_pause">0</property>
  <property name="mlt_service">avformat-novalidate</property>
  <property name="seekable">1</property>
  <property name="aspect_ratio">1</property>
  <property name="kdenlive:clipname">17.mp4</property>
  <property name="kdenlive:folderid">314</property>
  <property name="kdenlive:id">322</property>
  <property name="kdenlive:file_size">83500</property>
  <property name="kdenlive:proxy">/home/xiaoxiae/.cache/kdenlive/proxy/72cc60e17d62c0f52ace5e1e0113ba57.mov</property>
  <property name="kdenlive:originalurl">video/ProgrammingModel/vid/17.mp4</property>
  <property name="kdenlive:original.mlt_type">producer</property>
  <property name="kdenlive:original.in">0</property>
  <property name="kdenlive:original.out">59</property>
  <property name="kdenlive:original.length">60</property>
  <property name="kdenlive:original.eof">pause</property>
  <property name="kdenlive:original.resource">video/ProgrammingModel/vid/17.mp4</property>
  <property name="kdenlive:original.meta.media.nb_streams">1</property>
  <property name="kdenlive:original.meta.media.0.stream.type">video</property>
  <property name="kdenlive:original.meta.media.0.stream.frame_rate">60</property>
  <property name="kdenlive:original.meta.media.0.stream.sample_aspect_ratio">0</property>
  <property name="kdenlive:original.meta.media.0.codec.width">3840</property>
  <property name="kdenlive:original.meta.media.0.codec.height">2160</property>
  <property name="kdenlive:original.meta.media.0.codec.rotate">0</property>
  <property name="kdenlive:original.meta.media.0.codec.pix_fmt">yuv420p</property>
  <property name="kdenlive:original.meta.media.0.codec.sample_aspect_ratio">0</property>
  <property name="kdenlive:original.meta.media.0.codec.colorspace">709</property>
  <property name="kdenlive:original.meta.media.0.codec.name">h264</property>
  <property name="kdenlive:original.meta.media.0.codec.long_name">H.264 / AVC / MPEG-4 AVC / MPEG-4 part 10</property>
  <property name="kdenlive:original.meta.media.0.codec.bit_rate">654944</property>
  <property name="kdenlive:original.meta.attr.0.stream.handler_name.markup">VideoHandler</property>
  <property name="kdenlive:original.meta.attr.0.stream.vendor_id.markup">[0][0][0][0]</property>
  <property name="kdenlive:original.meta.attr.major_brand.markup">isom</property>
  <property name="kdenlive:original.meta.attr.minor_version.markup">512</property>
  <property name="kdenlive:original.meta.attr.compatible_brands.markup">isomiso2avc1mp41</property>
  <property name="kdenlive:original.meta.attr.encoder.markup">Lavf58.76.100</property>
  <property name="kdenlive:original.meta.attr.comment.markup">Rendered with Manim Community v0.12.0</property>
  <property name="kdenlive:original.seekable">1</property>
  <property name="kdenlive:original.width">3840</property>
  <property name="kdenlive:original.height">2160</property>
  <property name="kdenlive:original.meta.media.sample_aspect_num">1</property>
  <property name="kdenlive:original.meta.media.sample_aspect_den">1</property>
  <property name="kdenlive:original.aspect_ratio">1</property>
  <property name="kdenlive:original.audio_index">-1</property>
  <property name="kdenlive:original.video_index">0</property>
  <property name="kdenlive:original.mute_on_pause">0</property>
  <property name="kdenlive:original.mlt_service">avformat-novalidate</property>
  <property name="kdenlive:original.kdenlive:folderid">314</property>
  <property name="kdenlive:original.meta.media.frame_rate_num">60</property>
  <property name="kdenlive:original.meta.media.frame_rate_den">1</property>
  <property name="kdenlive:original.meta.media.colorspace">709</property>
  <property name="kdenlive:original.meta.media.color_trc">2</property>
  <property name="kdenlive:original.meta.media.has_b_frames">2</property>
  <property name="kdenlive:original.meta.media.width">3840</property>
  <property name="kdenlive:original.meta.media.height">2160</property>
  <property name="kdenlive:original.meta.media.color_range">mpeg</property>
  <property name="kdenlive:original.kdenlive:id">323</property>
  <property name="kdenlive:original.kdenlive:file_size">83500</property>
  <property name="kdenlive:original.kdenlive:file_hash">72cc60e17d62c0f52ace5e1e0113ba57</property>
  <property name="kdenlive:original.backup">1</property>
  <property name="kdenlive:file_hash">72cc60e17d62c0f52ace5e1e0113ba57</property>
  <property name="xml">was here</property>
  <property name="meta.media.nb_streams">1</property>
  <property name="meta.media.0.stream.type">video</property>
  <property name="meta.media.0.stream.frame_rate">60</property>
  <property name="meta.media.0.stream.sample_aspect_ratio">0</property>
  <property name="meta.media.0.codec.width">640</property>
  <property name="meta.media.0.codec.height">360</property>
  <property name="meta.media.0.codec.rotate">0</property>
  <property name="meta.media.0.codec.pix_fmt">yuv420p</property>
  <property name="meta.media.0.codec.sample_aspect_ratio">0</property>
  <property name="meta.media.0.codec.colorspace">601</property>
  <property name="meta.media.0.codec.name">h264</property>
  <property name="meta.media.0.codec.long_name">H.264 / AVC / MPEG-4 AVC / MPEG-4 part 10</property>
  <property name="meta.media.0.codec.bit_rate">2654192</property>
  <property name="meta.attr.0.stream.handler_name.markup">VideoHandler</property>
  <property name="meta.attr.0.stream.vendor_id.markup">FFMP</property>
  <property name="meta.attr.0.stream.encoder.markup">Lavc58.134.100 libx264</property>
  <property name="meta.attr.major_brand.markup">qt  </property>
  <property name="meta.attr.minor_version.markup">512</property>
  <property name="meta.attr.compatible_brands.markup">qt  </property>
  <property name="meta.attr.encoder.markup">Lavf58.76.100</property>
  <property name="meta.attr.comment.markup">Rendered with Manim Community v0.12.0</property>
  <property name="meta.media.sample_aspect_num">1</property>
  <property name="meta.media.sample_aspect_den">1</property>
  <property name="meta.media.frame_rate_num">60</property>
  <property name="meta.media.frame_rate_den">1</property>
  <property name="meta.media.colorspace">601</property>
  <property name="meta.media.color_trc">2</property>
  <property name="meta.media.has_b_frames">0</property>
  <property name="meta.media.width">640</property>
  <property name="meta.media.height">360</property>
  <property name="meta.media.color_range">mpeg</property>
  <property name="set.test_audio">1</property>
  <property name="set.test_image">0</property>
 </producer>
 <producer id="producer467" in="00:00:00.000" out="00:00:01.583">
  <property name="length">96</property>
  <property name="eof">pause</property>
  <property name="resource">/home/xiaoxiae/.cache/kdenlive/proxy/bffe94e4d4bd43f84fc16cdb62ea85e6.mov</property>
  <property name="audio_index">-1</property>
  <property name="video_index">0</property>
  <property name="mute_on_pause">0</property>
  <property name="mlt_service">avformat-novalidate</property>
  <property name="seekable">1</property>
  <property name="aspect_ratio">1</property>
  <property name="kdenlive:clipname">18.mp4</property>
  <property name="kdenlive:folderid">314</property>
  <property name="kdenlive:id">323</property>
  <property name="kdenlive:file_size">576410</property>
  <property name="kdenlive:proxy">/home/xiaoxiae/.cache/kdenlive/proxy/bffe94e4d4bd43f84fc16cdb62ea85e6.mov</property>
  <property name="kdenlive:originalurl">video/ProgrammingModel/vid/18.mp4</property>
  <property name="kdenlive:original.mlt_type">producer</property>
  <property name="kdenlive:original.in">0</property>
  <property name="kdenlive:original.out">95</property>
  <property name="kdenlive:original.length">96</property>
  <property name="kdenlive:original.eof">pause</property>
  <property name="kdenlive:original.resource">video/ProgrammingModel/vid/18.mp4</property>
  <property name="kdenlive:original.meta.media.nb_streams">1</property>
  <property name="kdenlive:original.meta.media.0.stream.type">video</property>
  <property name="kdenlive:original.meta.media.0.stream.frame_rate">60</property>
  <property name="kdenlive:original.meta.media.0.stream.sample_aspect_ratio">0</property>
  <property name="kdenlive:original.meta.media.0.codec.width">3840</property>
  <property name="kdenlive:original.meta.media.0.codec.height">2160</property>
  <property name="kdenlive:original.meta.media.0.codec.rotate">0</property>
  <property name="kdenlive:original.meta.media.0.codec.pix_fmt">yuv420p</property>
  <property name="kdenlive:original.meta.media.0.codec.sample_aspect_ratio">0</property>
  <property name="kdenlive:original.meta.media.0.codec.colorspace">709</property>
  <property name="kdenlive:original.meta.media.0.codec.name">h264</property>
  <property name="kdenlive:original.meta.media.0.codec.long_name">H.264 / AVC / MPEG-4 AVC / MPEG-4 part 10</property>
  <property name="kdenlive:original.meta.media.0.codec.bit_rate">2872410</property>
  <property name="kdenlive:original.meta.attr.0.stream.handler_name.markup">VideoHandler</property>
  <property name="kdenlive:original.meta.attr.0.stream.vendor_id.markup">[0][0][0][0]</property>
  <property name="kdenlive:original.meta.attr.major_brand.markup">isom</property>
  <property name="kdenlive:original.meta.attr.minor_version.markup">512</property>
  <property name="kdenlive:original.meta.attr.compatible_brands.markup">isomiso2avc1mp41</property>
  <property name="kdenlive:original.meta.attr.encoder.markup">Lavf58.76.100</property>
  <property name="kdenlive:original.meta.attr.comment.markup">Rendered with Manim Community v0.12.0</property>
  <property name="kdenlive:original.seekable">1</property>
  <property name="kdenlive:original.width">3840</property>
  <property name="kdenlive:original.height">2160</property>
  <property name="kdenlive:original.meta.media.sample_aspect_num">1</property>
  <property name="kdenlive:original.meta.media.sample_aspect_den">1</property>
  <property name="kdenlive:original.aspect_ratio">1</property>
  <property name="kdenlive:original.audio_index">-1</property>
  <property name="kdenlive:original.video_index">0</property>
  <property name="kdenlive:original.mute_on_pause">0</property>
  <property name="kdenlive:original.mlt_service">avformat-novalidate</property>
  <property name="kdenlive:original.kdenlive:folderid">314</property>
  <property name="kdenlive:original.meta.media.frame_rate_num">60</property>
  <property name="kdenlive:original.meta.media.frame_rate_den">1</property>
  <property name="kdenlive:original.meta.media.colorspace">709</property>
  <property name="kdenlive:original.meta.media.color_trc">2</property>
  <property name="kdenlive:original.meta.media.has_b_frames">2</property>
  <property name="kdenlive:original.meta.media.width">3840</property>
  <property name="kdenlive:original.meta.media.height">2160</property>
  <property name="kdenlive:original.meta.media.color_range">mpeg</property>
  <property name="kdenlive:original.kdenlive:id">324</property>
  <property name="kdenlive:original.kdenlive:file_size">576410</property>
  <property name="kdenlive:original.kdenlive:file_hash">bffe94e4d4bd43f84fc16cdb62ea85e6</property>
  <property name="kdenlive:original.backup">1</property>
  <property name="kdenlive:file_hash">bffe94e4d4bd43f84fc16cdb62ea85e6</property>
  <property name="xml">was here</property>
  <property name="meta.media.nb_streams">1</property>
  <property name="meta.media.0.stream.type">video</property>
  <property name="meta.media.0.stream.frame_rate">60</property>
  <property name="meta.media.0.stream.sample_aspect_ratio">0</property>
  <property name="meta.media.0.codec.width">640</property>
  <property name="meta.media.0.codec.height">360</property>
  <property name="meta.media.0.codec.rotate">0</property>
  <property name="meta.media.0.codec.pix_fmt">yuv420p</property>
  <property name="meta.media.0.codec.sample_aspect_ratio">0</property>
  <property name="meta.media.0.codec.colorspace">601</property>
  <property name="meta.media.0.codec.name">h264</property>
  <property name="meta.media.0.codec.long_name">H.264 / AVC / MPEG-4 AVC / MPEG-4 part 10</property>
  <property name="meta.media.0.codec.bit_rate">2344150</property>
  <property name="meta.attr.0.stream.handler_name.markup">VideoHandler</property>
  <property name="meta.attr.0.stream.vendor_id.markup">FFMP</property>
  <property name="meta.attr.0.stream.encoder.markup">Lavc58.134.100 libx264</property>
  <property name="meta.attr.major_brand.markup">qt  </property>
  <property name="meta.attr.minor_version.markup">512</property>
  <property name="meta.attr.compatible_brands.markup">qt  </property>
  <property name="meta.attr.encoder.markup">Lavf58.76.100</property>
  <property name="meta.attr.comment.markup">Rendered with Manim Community v0.12.0</property>
  <property name="meta.media.sample_aspect_num">1</property>
  <property name="meta.media.sample_aspect_den">1</property>
  <property name="meta.media.frame_rate_num">60</property>
  <property name="meta.media.frame_rate_den">1</property>
  <property name="meta.media.colorspace">601</property>
  <property name="meta.media.color_trc">2</property>
  <property name="meta.media.has_b_frames">0</property>
  <property name="meta.media.width">640</property>
  <property name="meta.media.height">360</property>
  <property name="meta.media.color_range">mpeg</property>
  <property name="set.test_audio">1</property>
  <property name="set.test_image">0</property>
  <property name="meta.media.top_field_first">0</property>
  <property name="meta.media.progressive">1</property>
 </producer>
 <producer id="producer468" in="00:00:00.000" out="00:00:01.383">
  <property name="length">84</property>
  <property name="eof">pause</property>
  <property name="resource">/home/xiaoxiae/.cache/kdenlive/proxy/7bc18c6981f4d26e2c4ba29c4c8886d6.mov</property>
  <property name="audio_index">-1</property>
  <property name="video_index">0</property>
  <property name="mute_on_pause">0</property>
  <property name="mlt_service">avformat-novalidate</property>
  <property name="seekable">1</property>
  <property name="aspect_ratio">1</property>
  <property name="kdenlive:clipname">19.mp4</property>
  <property name="kdenlive:folderid">314</property>
  <property name="kdenlive:id">324</property>
  <property name="kdenlive:file_size">92619</property>
  <property name="kdenlive:proxy">/home/xiaoxiae/.cache/kdenlive/proxy/7bc18c6981f4d26e2c4ba29c4c8886d6.mov</property>
  <property name="kdenlive:originalurl">video/ProgrammingModel/vid/19.mp4</property>
  <property name="kdenlive:original.mlt_type">producer</property>
  <property name="kdenlive:original.in">0</property>
  <property name="kdenlive:original.out">83</property>
  <property name="kdenlive:original.length">84</property>
  <property name="kdenlive:original.eof">pause</property>
  <property name="kdenlive:original.resource">video/ProgrammingModel/vid/19.mp4</property>
  <property name="kdenlive:original.meta.media.nb_streams">1</property>
  <property name="kdenlive:original.meta.media.0.stream.type">video</property>
  <property name="kdenlive:original.meta.media.0.stream.frame_rate">60</property>
  <property name="kdenlive:original.meta.media.0.stream.sample_aspect_ratio">0</property>
  <property name="kdenlive:original.meta.media.0.codec.width">3840</property>
  <property name="kdenlive:original.meta.media.0.codec.height">2160</property>
  <property name="kdenlive:original.meta.media.0.codec.rotate">0</property>
  <property name="kdenlive:original.meta.media.0.codec.pix_fmt">yuv420p</property>
  <property name="kdenlive:original.meta.media.0.codec.sample_aspect_ratio">0</property>
  <property name="kdenlive:original.meta.media.0.codec.colorspace">709</property>
  <property name="kdenlive:original.meta.media.0.codec.name">h264</property>
  <property name="kdenlive:original.meta.media.0.codec.long_name">H.264 / AVC / MPEG-4 AVC / MPEG-4 part 10</property>
  <property name="kdenlive:original.meta.media.0.codec.bit_rate">518371</property>
  <property name="kdenlive:original.meta.attr.0.stream.handler_name.markup">VideoHandler</property>
  <property name="kdenlive:original.meta.attr.0.stream.vendor_id.markup">[0][0][0][0]</property>
  <property name="kdenlive:original.meta.attr.major_brand.markup">isom</property>
  <property name="kdenlive:original.meta.attr.minor_version.markup">512</property>
  <property name="kdenlive:original.meta.attr.compatible_brands.markup">isomiso2avc1mp41</property>
  <property name="kdenlive:original.meta.attr.encoder.markup">Lavf58.76.100</property>
  <property name="kdenlive:original.meta.attr.comment.markup">Rendered with Manim Community v0.12.0</property>
  <property name="kdenlive:original.seekable">1</property>
  <property name="kdenlive:original.width">3840</property>
  <property name="kdenlive:original.height">2160</property>
  <property name="kdenlive:original.meta.media.sample_aspect_num">1</property>
  <property name="kdenlive:original.meta.media.sample_aspect_den">1</property>
  <property name="kdenlive:original.aspect_ratio">1</property>
  <property name="kdenlive:original.audio_index">-1</property>
  <property name="kdenlive:original.video_index">0</property>
  <property name="kdenlive:original.mute_on_pause">0</property>
  <property name="kdenlive:original.mlt_service">avformat-novalidate</property>
  <property name="kdenlive:original.kdenlive:folderid">314</property>
  <property name="kdenlive:original.meta.media.frame_rate_num">60</property>
  <property name="kdenlive:original.meta.media.frame_rate_den">1</property>
  <property name="kdenlive:original.meta.media.colorspace">709</property>
  <property name="kdenlive:original.meta.media.color_trc">2</property>
  <property name="kdenlive:original.meta.media.has_b_frames">2</property>
  <property name="kdenlive:original.meta.media.width">3840</property>
  <property name="kdenlive:original.meta.media.height">2160</property>
  <property name="kdenlive:original.meta.media.color_range">mpeg</property>
  <property name="kdenlive:original.kdenlive:id">325</property>
  <property name="kdenlive:original.kdenlive:file_size">92619</property>
  <property name="kdenlive:original.kdenlive:file_hash">7bc18c6981f4d26e2c4ba29c4c8886d6</property>
  <property name="kdenlive:original.backup">1</property>
  <property name="kdenlive:file_hash">7bc18c6981f4d26e2c4ba29c4c8886d6</property>
  <property name="xml">was here</property>
  <property name="meta.media.nb_streams">1</property>
  <property name="meta.media.0.stream.type">video</property>
  <property name="meta.media.0.stream.frame_rate">60</property>
  <property name="meta.media.0.stream.sample_aspect_ratio">0</property>
  <property name="meta.media.0.codec.width">640</property>
  <property name="meta.media.0.codec.height">360</property>
  <property name="meta.media.0.codec.rotate">0</property>
  <property name="meta.media.0.codec.pix_fmt">yuv420p</property>
  <property name="meta.media.0.codec.sample_aspect_ratio">0</property>
  <property name="meta.media.0.codec.colorspace">601</property>
  <property name="meta.media.0.codec.name">h264</property>
  <property name="meta.media.0.codec.long_name">H.264 / AVC / MPEG-4 AVC / MPEG-4 part 10</property>
  <property name="meta.media.0.codec.bit_rate">2787405</property>
  <property name="meta.attr.0.stream.handler_name.markup">VideoHandler</property>
  <property name="meta.attr.0.stream.vendor_id.markup">FFMP</property>
  <property name="meta.attr.0.stream.encoder.markup">Lavc58.134.100 libx264</property>
  <property name="meta.attr.major_brand.markup">qt  </property>
  <property name="meta.attr.minor_version.markup">512</property>
  <property name="meta.attr.compatible_brands.markup">qt  </property>
  <property name="meta.attr.encoder.markup">Lavf58.76.100</property>
  <property name="meta.attr.comment.markup">Rendered with Manim Community v0.12.0</property>
  <property name="meta.media.sample_aspect_num">1</property>
  <property name="meta.media.sample_aspect_den">1</property>
  <property name="meta.media.frame_rate_num">60</property>
  <property name="meta.media.frame_rate_den">1</property>
  <property name="meta.media.colorspace">601</property>
  <property name="meta.media.color_trc">2</property>
  <property name="meta.media.has_b_frames">0</property>
  <property name="meta.media.width">640</property>
  <property name="meta.media.height">360</property>
  <property name="meta.media.color_range">mpeg</property>
  <property name="set.test_audio">1</property>
  <property name="set.test_image">0</property>
  <property name="meta.media.top_field_first">0</property>
  <property name="meta.media.progressive">1</property>
 </producer>
 <producer id="producer469" in="00:00:00.000" out="00:00:01.483">
  <property name="length">90</property>
  <property name="eof">pause</property>
  <property name="resource">/home/xiaoxiae/.cache/kdenlive/proxy/d2dddc315627e69e64900cf33755a753.mov</property>
  <property name="audio_index">-1</property>
  <property name="video_index">0</property>
  <property name="mute_on_pause">0</property>
  <property name="mlt_service">avformat-novalidate</property>
  <property name="seekable">1</property>
  <property name="aspect_ratio">1</property>
  <property name="kdenlive:clipname">20.mp4</property>
  <property name="kdenlive:folderid">314</property>
  <property name="kdenlive:id">326</property>
  <property name="kdenlive:file_size">101010</property>
  <property name="kdenlive:proxy">/home/xiaoxiae/.cache/kdenlive/proxy/d2dddc315627e69e64900cf33755a753.mov</property>
  <property name="kdenlive:originalurl">video/ProgrammingModel/vid/20.mp4</property>
  <property name="kdenlive:original.mlt_type">producer</property>
  <property name="kdenlive:original.in">0</property>
  <property name="kdenlive:original.out">89</property>
  <property name="kdenlive:original.length">90</property>
  <property name="kdenlive:original.eof">pause</property>
  <property name="kdenlive:original.resource">video/ProgrammingModel/vid/20.mp4</property>
  <property name="kdenlive:original.meta.media.nb_streams">1</property>
  <property name="kdenlive:original.meta.media.0.stream.type">video</property>
  <property name="kdenlive:original.meta.media.0.stream.frame_rate">60</property>
  <property name="kdenlive:original.meta.media.0.stream.sample_aspect_ratio">0</property>
  <property name="kdenlive:original.meta.media.0.codec.width">3840</property>
  <property name="kdenlive:original.meta.media.0.codec.height">2160</property>
  <property name="kdenlive:original.meta.media.0.codec.rotate">0</property>
  <property name="kdenlive:original.meta.media.0.codec.pix_fmt">yuv420p</property>
  <property name="kdenlive:original.meta.media.0.codec.sample_aspect_ratio">0</property>
  <property name="kdenlive:original.meta.media.0.codec.colorspace">709</property>
  <property name="kdenlive:original.meta.media.0.codec.name">h264</property>
  <property name="kdenlive:original.meta.media.0.codec.long_name">H.264 / AVC / MPEG-4 AVC / MPEG-4 part 10</property>
  <property name="kdenlive:original.meta.media.0.codec.bit_rate">528053</property>
  <property name="kdenlive:original.meta.attr.0.stream.handler_name.markup">VideoHandler</property>
  <property name="kdenlive:original.meta.attr.0.stream.vendor_id.markup">[0][0][0][0]</property>
  <property name="kdenlive:original.meta.attr.major_brand.markup">isom</property>
  <property name="kdenlive:original.meta.attr.minor_version.markup">512</property>
  <property name="kdenlive:original.meta.attr.compatible_brands.markup">isomiso2avc1mp41</property>
  <property name="kdenlive:original.meta.attr.encoder.markup">Lavf58.76.100</property>
  <property name="kdenlive:original.meta.attr.comment.markup">Rendered with Manim Community v0.12.0</property>
  <property name="kdenlive:original.seekable">1</property>
  <property name="kdenlive:original.width">3840</property>
  <property name="kdenlive:original.height">2160</property>
  <property name="kdenlive:original.meta.media.sample_aspect_num">1</property>
  <property name="kdenlive:original.meta.media.sample_aspect_den">1</property>
  <property name="kdenlive:original.aspect_ratio">1</property>
  <property name="kdenlive:original.audio_index">-1</property>
  <property name="kdenlive:original.video_index">0</property>
  <property name="kdenlive:original.mute_on_pause">0</property>
  <property name="kdenlive:original.mlt_service">avformat-novalidate</property>
  <property name="kdenlive:original.kdenlive:folderid">314</property>
  <property name="kdenlive:original.meta.media.frame_rate_num">60</property>
  <property name="kdenlive:original.meta.media.frame_rate_den">1</property>
  <property name="kdenlive:original.meta.media.colorspace">709</property>
  <property name="kdenlive:original.meta.media.color_trc">2</property>
  <property name="kdenlive:original.meta.media.has_b_frames">2</property>
  <property name="kdenlive:original.meta.media.width">3840</property>
  <property name="kdenlive:original.meta.media.height">2160</property>
  <property name="kdenlive:original.meta.media.color_range">mpeg</property>
  <property name="kdenlive:original.kdenlive:id">327</property>
  <property name="kdenlive:original.kdenlive:file_size">101010</property>
  <property name="kdenlive:original.kdenlive:file_hash">d2dddc315627e69e64900cf33755a753</property>
  <property name="kdenlive:original.backup">1</property>
  <property name="kdenlive:file_hash">d2dddc315627e69e64900cf33755a753</property>
  <property name="xml">was here</property>
  <property name="meta.media.nb_streams">1</property>
  <property name="meta.media.0.stream.type">video</property>
  <property name="meta.media.0.stream.frame_rate">60</property>
  <property name="meta.media.0.stream.sample_aspect_ratio">0</property>
  <property name="meta.media.0.codec.width">640</property>
  <property name="meta.media.0.codec.height">360</property>
  <property name="meta.media.0.codec.rotate">0</property>
  <property name="meta.media.0.codec.pix_fmt">yuv420p</property>
  <property name="meta.media.0.codec.sample_aspect_ratio">0</property>
  <property name="meta.media.0.codec.colorspace">601</property>
  <property name="meta.media.0.codec.name">h264</property>
  <property name="meta.media.0.codec.long_name">H.264 / AVC / MPEG-4 AVC / MPEG-4 part 10</property>
  <property name="meta.media.0.codec.bit_rate">2860181</property>
  <property name="meta.attr.0.stream.handler_name.markup">VideoHandler</property>
  <property name="meta.attr.0.stream.vendor_id.markup">FFMP</property>
  <property name="meta.attr.0.stream.encoder.markup">Lavc58.134.100 libx264</property>
  <property name="meta.attr.major_brand.markup">qt  </property>
  <property name="meta.attr.minor_version.markup">512</property>
  <property name="meta.attr.compatible_brands.markup">qt  </property>
  <property name="meta.attr.encoder.markup">Lavf58.76.100</property>
  <property name="meta.attr.comment.markup">Rendered with Manim Community v0.12.0</property>
  <property name="meta.media.sample_aspect_num">1</property>
  <property name="meta.media.sample_aspect_den">1</property>
  <property name="meta.media.frame_rate_num">60</property>
  <property name="meta.media.frame_rate_den">1</property>
  <property name="meta.media.colorspace">601</property>
  <property name="meta.media.color_trc">2</property>
  <property name="meta.media.has_b_frames">0</property>
  <property name="meta.media.width">640</property>
  <property name="meta.media.height">360</property>
  <property name="meta.media.color_range">mpeg</property>
  <property name="set.test_audio">1</property>
  <property name="set.test_image">0</property>
  <property name="meta.media.top_field_first">0</property>
  <property name="meta.media.progressive">1</property>
 </producer>
 <producer id="producer470" in="00:00:00.000" out="00:00:01.483">
  <property name="length">90</property>
  <property name="eof">pause</property>
  <property name="resource">/home/xiaoxiae/.cache/kdenlive/proxy/e40e4951b383b2d6e4cb595c4013bae7.mov</property>
  <property name="audio_index">-1</property>
  <property name="video_index">0</property>
  <property name="mute_on_pause">0</property>
  <property name="mlt_service">avformat-novalidate</property>
  <property name="seekable">1</property>
  <property name="aspect_ratio">1</property>
  <property name="kdenlive:clipname">21.mp4</property>
  <property name="kdenlive:folderid">314</property>
  <property name="kdenlive:file_size">104034</property>
  <property name="kdenlive:id">327</property>
  <property name="kdenlive:proxy">/home/xiaoxiae/.cache/kdenlive/proxy/e40e4951b383b2d6e4cb595c4013bae7.mov</property>
  <property name="kdenlive:originalurl">video/ProgrammingModel/vid/21.mp4</property>
  <property name="kdenlive:original.mlt_type">producer</property>
  <property name="kdenlive:original.in">0</property>
  <property name="kdenlive:original.out">89</property>
  <property name="kdenlive:original.length">90</property>
  <property name="kdenlive:original.eof">pause</property>
  <property name="kdenlive:original.resource">video/ProgrammingModel/vid/21.mp4</property>
  <property name="kdenlive:original.meta.media.nb_streams">1</property>
  <property name="kdenlive:original.meta.media.0.stream.type">video</property>
  <property name="kdenlive:original.meta.media.0.stream.frame_rate">60</property>
  <property name="kdenlive:original.meta.media.0.stream.sample_aspect_ratio">0</property>
  <property name="kdenlive:original.meta.media.0.codec.width">3840</property>
  <property name="kdenlive:original.meta.media.0.codec.height">2160</property>
  <property name="kdenlive:original.meta.media.0.codec.rotate">0</property>
  <property name="kdenlive:original.meta.media.0.codec.pix_fmt">yuv420p</property>
  <property name="kdenlive:original.meta.media.0.codec.sample_aspect_ratio">0</property>
  <property name="kdenlive:original.meta.media.0.codec.colorspace">709</property>
  <property name="kdenlive:original.meta.media.0.codec.name">h264</property>
  <property name="kdenlive:original.meta.media.0.codec.long_name">H.264 / AVC / MPEG-4 AVC / MPEG-4 part 10</property>
  <property name="kdenlive:original.meta.media.0.codec.bit_rate">544181</property>
  <property name="kdenlive:original.meta.attr.0.stream.handler_name.markup">VideoHandler</property>
  <property name="kdenlive:original.meta.attr.0.stream.vendor_id.markup">[0][0][0][0]</property>
  <property name="kdenlive:original.meta.attr.major_brand.markup">isom</property>
  <property name="kdenlive:original.meta.attr.minor_version.markup">512</property>
  <property name="kdenlive:original.meta.attr.compatible_brands.markup">isomiso2avc1mp41</property>
  <property name="kdenlive:original.meta.attr.encoder.markup">Lavf58.76.100</property>
  <property name="kdenlive:original.meta.attr.comment.markup">Rendered with Manim Community v0.12.0</property>
  <property name="kdenlive:original.seekable">1</property>
  <property name="kdenlive:original.width">3840</property>
  <property name="kdenlive:original.height">2160</property>
  <property name="kdenlive:original.meta.media.sample_aspect_num">1</property>
  <property name="kdenlive:original.meta.media.sample_aspect_den">1</property>
  <property name="kdenlive:original.aspect_ratio">1</property>
  <property name="kdenlive:original.audio_index">-1</property>
  <property name="kdenlive:original.video_index">0</property>
  <property name="kdenlive:original.mute_on_pause">0</property>
  <property name="kdenlive:original.mlt_service">avformat-novalidate</property>
  <property name="kdenlive:original.kdenlive:folderid">314</property>
  <property name="kdenlive:original.kdenlive:file_size">104034</property>
  <property name="kdenlive:original.meta.media.frame_rate_num">60</property>
  <property name="kdenlive:original.meta.media.frame_rate_den">1</property>
  <property name="kdenlive:original.meta.media.colorspace">709</property>
  <property name="kdenlive:original.meta.media.color_trc">2</property>
  <property name="kdenlive:original.meta.media.has_b_frames">2</property>
  <property name="kdenlive:original.meta.media.width">3840</property>
  <property name="kdenlive:original.meta.media.height">2160</property>
  <property name="kdenlive:original.meta.media.color_range">mpeg</property>
  <property name="kdenlive:original.kdenlive:id">328</property>
  <property name="kdenlive:original.kdenlive:file_hash">e40e4951b383b2d6e4cb595c4013bae7</property>
  <property name="kdenlive:original.backup">1</property>
  <property name="kdenlive:file_hash">e40e4951b383b2d6e4cb595c4013bae7</property>
  <property name="xml">was here</property>
  <property name="meta.media.nb_streams">1</property>
  <property name="meta.media.0.stream.type">video</property>
  <property name="meta.media.0.stream.frame_rate">60</property>
  <property name="meta.media.0.stream.sample_aspect_ratio">0</property>
  <property name="meta.media.0.codec.width">640</property>
  <property name="meta.media.0.codec.height">360</property>
  <property name="meta.media.0.codec.rotate">0</property>
  <property name="meta.media.0.codec.pix_fmt">yuv420p</property>
  <property name="meta.media.0.codec.sample_aspect_ratio">0</property>
  <property name="meta.media.0.codec.colorspace">601</property>
  <property name="meta.media.0.codec.name">h264</property>
  <property name="meta.media.0.codec.long_name">H.264 / AVC / MPEG-4 AVC / MPEG-4 part 10</property>
  <property name="meta.media.0.codec.bit_rate">2940864</property>
  <property name="meta.attr.0.stream.handler_name.markup">VideoHandler</property>
  <property name="meta.attr.0.stream.vendor_id.markup">FFMP</property>
  <property name="meta.attr.0.stream.encoder.markup">Lavc58.134.100 libx264</property>
  <property name="meta.attr.major_brand.markup">qt  </property>
  <property name="meta.attr.minor_version.markup">512</property>
  <property name="meta.attr.compatible_brands.markup">qt  </property>
  <property name="meta.attr.encoder.markup">Lavf58.76.100</property>
  <property name="meta.attr.comment.markup">Rendered with Manim Community v0.12.0</property>
  <property name="meta.media.sample_aspect_num">1</property>
  <property name="meta.media.sample_aspect_den">1</property>
  <property name="meta.media.frame_rate_num">60</property>
  <property name="meta.media.frame_rate_den">1</property>
  <property name="meta.media.colorspace">601</property>
  <property name="meta.media.color_trc">2</property>
  <property name="meta.media.has_b_frames">0</property>
  <property name="meta.media.width">640</property>
  <property name="meta.media.height">360</property>
  <property name="meta.media.color_range">mpeg</property>
  <property name="set.test_audio">1</property>
  <property name="set.test_image">0</property>
 </producer>
 <producer id="producer471" in="00:00:00.000" out="00:00:02.483">
  <property name="length">150</property>
  <property name="eof">pause</property>
  <property name="resource">/home/xiaoxiae/.cache/kdenlive/proxy/664cf91332fa6a1c9749657b5c5252fa.mov</property>
  <property name="audio_index">-1</property>
  <property name="video_index">0</property>
  <property name="mute_on_pause">0</property>
  <property name="mlt_service">avformat-novalidate</property>
  <property name="seekable">1</property>
  <property name="aspect_ratio">1</property>
  <property name="kdenlive:clipname">22.mp4</property>
  <property name="kdenlive:folderid">314</property>
  <property name="kdenlive:id">328</property>
  <property name="kdenlive:file_size">122475</property>
  <property name="kdenlive:proxy">/home/xiaoxiae/.cache/kdenlive/proxy/664cf91332fa6a1c9749657b5c5252fa.mov</property>
  <property name="kdenlive:originalurl">video/ProgrammingModel/vid/22.mp4</property>
  <property name="kdenlive:original.mlt_type">producer</property>
  <property name="kdenlive:original.in">0</property>
  <property name="kdenlive:original.out">149</property>
  <property name="kdenlive:original.length">150</property>
  <property name="kdenlive:original.eof">pause</property>
  <property name="kdenlive:original.resource">video/ProgrammingModel/vid/22.mp4</property>
  <property name="kdenlive:original.meta.media.nb_streams">1</property>
  <property name="kdenlive:original.meta.media.0.stream.type">video</property>
  <property name="kdenlive:original.meta.media.0.stream.frame_rate">60</property>
  <property name="kdenlive:original.meta.media.0.stream.sample_aspect_ratio">0</property>
  <property name="kdenlive:original.meta.media.0.codec.width">3840</property>
  <property name="kdenlive:original.meta.media.0.codec.height">2160</property>
  <property name="kdenlive:original.meta.media.0.codec.rotate">0</property>
  <property name="kdenlive:original.meta.media.0.codec.pix_fmt">yuv420p</property>
  <property name="kdenlive:original.meta.media.0.codec.sample_aspect_ratio">0</property>
  <property name="kdenlive:original.meta.media.0.codec.colorspace">709</property>
  <property name="kdenlive:original.meta.media.0.codec.name">h264</property>
  <property name="kdenlive:original.meta.media.0.codec.long_name">H.264 / AVC / MPEG-4 AVC / MPEG-4 part 10</property>
  <property name="kdenlive:original.meta.media.0.codec.bit_rate">383216</property>
  <property name="kdenlive:original.meta.attr.0.stream.handler_name.markup">VideoHandler</property>
  <property name="kdenlive:original.meta.attr.0.stream.vendor_id.markup">[0][0][0][0]</property>
  <property name="kdenlive:original.meta.attr.major_brand.markup">isom</property>
  <property name="kdenlive:original.meta.attr.minor_version.markup">512</property>
  <property name="kdenlive:original.meta.attr.compatible_brands.markup">isomiso2avc1mp41</property>
  <property name="kdenlive:original.meta.attr.encoder.markup">Lavf58.76.100</property>
  <property name="kdenlive:original.meta.attr.comment.markup">Rendered with Manim Community v0.12.0</property>
  <property name="kdenlive:original.seekable">1</property>
  <property name="kdenlive:original.width">3840</property>
  <property name="kdenlive:original.height">2160</property>
  <property name="kdenlive:original.meta.media.sample_aspect_num">1</property>
  <property name="kdenlive:original.meta.media.sample_aspect_den">1</property>
  <property name="kdenlive:original.aspect_ratio">1</property>
  <property name="kdenlive:original.audio_index">-1</property>
  <property name="kdenlive:original.video_index">0</property>
  <property name="kdenlive:original.mute_on_pause">0</property>
  <property name="kdenlive:original.mlt_service">avformat-novalidate</property>
  <property name="kdenlive:original.kdenlive:folderid">314</property>
  <property name="kdenlive:original.meta.media.frame_rate_num">60</property>
  <property name="kdenlive:original.meta.media.frame_rate_den">1</property>
  <property name="kdenlive:original.meta.media.colorspace">709</property>
  <property name="kdenlive:original.meta.media.color_trc">2</property>
  <property name="kdenlive:original.meta.media.has_b_frames">2</property>
  <property name="kdenlive:original.meta.media.width">3840</property>
  <property name="kdenlive:original.meta.media.height">2160</property>
  <property name="kdenlive:original.meta.media.color_range">mpeg</property>
  <property name="kdenlive:original.kdenlive:id">329</property>
  <property name="kdenlive:original.kdenlive:file_size">122475</property>
  <property name="kdenlive:original.kdenlive:file_hash">664cf91332fa6a1c9749657b5c5252fa</property>
  <property name="kdenlive:original.backup">1</property>
  <property name="kdenlive:file_hash">664cf91332fa6a1c9749657b5c5252fa</property>
  <property name="xml">was here</property>
  <property name="meta.media.nb_streams">1</property>
  <property name="meta.media.0.stream.type">video</property>
  <property name="meta.media.0.stream.frame_rate">60</property>
  <property name="meta.media.0.stream.sample_aspect_ratio">0</property>
  <property name="meta.media.0.codec.width">640</property>
  <property name="meta.media.0.codec.height">360</property>
  <property name="meta.media.0.codec.rotate">0</property>
  <property name="meta.media.0.codec.pix_fmt">yuv420p</property>
  <property name="meta.media.0.codec.sample_aspect_ratio">0</property>
  <property name="meta.media.0.codec.colorspace">601</property>
  <property name="meta.media.0.codec.name">h264</property>
  <property name="meta.media.0.codec.long_name">H.264 / AVC / MPEG-4 AVC / MPEG-4 part 10</property>
  <property name="meta.media.0.codec.bit_rate">2915257</property>
  <property name="meta.attr.0.stream.handler_name.markup">VideoHandler</property>
  <property name="meta.attr.0.stream.vendor_id.markup">FFMP</property>
  <property name="meta.attr.0.stream.encoder.markup">Lavc58.134.100 libx264</property>
  <property name="meta.attr.major_brand.markup">qt  </property>
  <property name="meta.attr.minor_version.markup">512</property>
  <property name="meta.attr.compatible_brands.markup">qt  </property>
  <property name="meta.attr.encoder.markup">Lavf58.76.100</property>
  <property name="meta.attr.comment.markup">Rendered with Manim Community v0.12.0</property>
  <property name="meta.media.sample_aspect_num">1</property>
  <property name="meta.media.sample_aspect_den">1</property>
  <property name="meta.media.frame_rate_num">60</property>
  <property name="meta.media.frame_rate_den">1</property>
  <property name="meta.media.colorspace">601</property>
  <property name="meta.media.color_trc">2</property>
  <property name="meta.media.has_b_frames">0</property>
  <property name="meta.media.width">640</property>
  <property name="meta.media.height">360</property>
  <property name="meta.media.color_range">mpeg</property>
  <property name="set.test_audio">1</property>
  <property name="set.test_image">0</property>
  <property name="meta.media.top_field_first">0</property>
  <property name="meta.media.progressive">1</property>
 </producer>
 <producer id="producer472" in="00:00:00.000" out="00:00:00.983">
  <property name="length">60</property>
  <property name="eof">pause</property>
  <property name="resource">/home/xiaoxiae/.cache/kdenlive/proxy/75dad634867c4bd6931ae4385d18c2f2.mov</property>
  <property name="audio_index">-1</property>
  <property name="video_index">0</property>
  <property name="mute_on_pause">0</property>
  <property name="mlt_service">avformat-novalidate</property>
  <property name="seekable">1</property>
  <property name="aspect_ratio">1</property>
  <property name="kdenlive:clipname">23.mp4</property>
  <property name="kdenlive:folderid">314</property>
  <property name="kdenlive:id">329</property>
  <property name="kdenlive:file_size">161569</property>
  <property name="kdenlive:proxy">/home/xiaoxiae/.cache/kdenlive/proxy/75dad634867c4bd6931ae4385d18c2f2.mov</property>
  <property name="kdenlive:originalurl">video/ProgrammingModel/vid/23.mp4</property>
  <property name="kdenlive:original.mlt_type">producer</property>
  <property name="kdenlive:original.in">0</property>
  <property name="kdenlive:original.out">59</property>
  <property name="kdenlive:original.length">60</property>
  <property name="kdenlive:original.eof">pause</property>
  <property name="kdenlive:original.resource">video/ProgrammingModel/vid/23.mp4</property>
  <property name="kdenlive:original.meta.media.nb_streams">1</property>
  <property name="kdenlive:original.meta.media.0.stream.type">video</property>
  <property name="kdenlive:original.meta.media.0.stream.frame_rate">60</property>
  <property name="kdenlive:original.meta.media.0.stream.sample_aspect_ratio">0</property>
  <property name="kdenlive:original.meta.media.0.codec.width">3840</property>
  <property name="kdenlive:original.meta.media.0.codec.height">2160</property>
  <property name="kdenlive:original.meta.media.0.codec.rotate">0</property>
  <property name="kdenlive:original.meta.media.0.codec.pix_fmt">yuv420p</property>
  <property name="kdenlive:original.meta.media.0.codec.sample_aspect_ratio">0</property>
  <property name="kdenlive:original.meta.media.0.codec.colorspace">709</property>
  <property name="kdenlive:original.meta.media.0.codec.name">h264</property>
  <property name="kdenlive:original.meta.media.0.codec.long_name">H.264 / AVC / MPEG-4 AVC / MPEG-4 part 10</property>
  <property name="kdenlive:original.meta.media.0.codec.bit_rate">1279624</property>
  <property name="kdenlive:original.meta.attr.0.stream.handler_name.markup">VideoHandler</property>
  <property name="kdenlive:original.meta.attr.0.stream.vendor_id.markup">[0][0][0][0]</property>
  <property name="kdenlive:original.meta.attr.major_brand.markup">isom</property>
  <property name="kdenlive:original.meta.attr.minor_version.markup">512</property>
  <property name="kdenlive:original.meta.attr.compatible_brands.markup">isomiso2avc1mp41</property>
  <property name="kdenlive:original.meta.attr.encoder.markup">Lavf58.76.100</property>
  <property name="kdenlive:original.meta.attr.comment.markup">Rendered with Manim Community v0.12.0</property>
  <property name="kdenlive:original.seekable">1</property>
  <property name="kdenlive:original.width">3840</property>
  <property name="kdenlive:original.height">2160</property>
  <property name="kdenlive:original.meta.media.sample_aspect_num">1</property>
  <property name="kdenlive:original.meta.media.sample_aspect_den">1</property>
  <property name="kdenlive:original.aspect_ratio">1</property>
  <property name="kdenlive:original.audio_index">-1</property>
  <property name="kdenlive:original.video_index">0</property>
  <property name="kdenlive:original.mute_on_pause">0</property>
  <property name="kdenlive:original.mlt_service">avformat-novalidate</property>
  <property name="kdenlive:original.kdenlive:folderid">314</property>
  <property name="kdenlive:original.meta.media.frame_rate_num">60</property>
  <property name="kdenlive:original.meta.media.frame_rate_den">1</property>
  <property name="kdenlive:original.meta.media.colorspace">709</property>
  <property name="kdenlive:original.meta.media.color_trc">2</property>
  <property name="kdenlive:original.meta.media.has_b_frames">2</property>
  <property name="kdenlive:original.meta.media.width">3840</property>
  <property name="kdenlive:original.meta.media.height">2160</property>
  <property name="kdenlive:original.meta.media.color_range">mpeg</property>
  <property name="kdenlive:original.kdenlive:id">330</property>
  <property name="kdenlive:original.kdenlive:file_size">161569</property>
  <property name="kdenlive:original.kdenlive:file_hash">75dad634867c4bd6931ae4385d18c2f2</property>
  <property name="kdenlive:original.backup">1</property>
  <property name="kdenlive:file_hash">75dad634867c4bd6931ae4385d18c2f2</property>
  <property name="xml">was here</property>
  <property name="meta.media.nb_streams">1</property>
  <property name="meta.media.0.stream.type">video</property>
  <property name="meta.media.0.stream.frame_rate">60</property>
  <property name="meta.media.0.stream.sample_aspect_ratio">0</property>
  <property name="meta.media.0.codec.width">640</property>
  <property name="meta.media.0.codec.height">360</property>
  <property name="meta.media.0.codec.rotate">0</property>
  <property name="meta.media.0.codec.pix_fmt">yuv420p</property>
  <property name="meta.media.0.codec.sample_aspect_ratio">0</property>
  <property name="meta.media.0.codec.colorspace">601</property>
  <property name="meta.media.0.codec.name">h264</property>
  <property name="meta.media.0.codec.long_name">H.264 / AVC / MPEG-4 AVC / MPEG-4 part 10</property>
  <property name="meta.media.0.codec.bit_rate">2996424</property>
  <property name="meta.attr.0.stream.handler_name.markup">VideoHandler</property>
  <property name="meta.attr.0.stream.vendor_id.markup">FFMP</property>
  <property name="meta.attr.0.stream.encoder.markup">Lavc58.134.100 libx264</property>
  <property name="meta.attr.major_brand.markup">qt  </property>
  <property name="meta.attr.minor_version.markup">512</property>
  <property name="meta.attr.compatible_brands.markup">qt  </property>
  <property name="meta.attr.encoder.markup">Lavf58.76.100</property>
  <property name="meta.attr.comment.markup">Rendered with Manim Community v0.12.0</property>
  <property name="meta.media.sample_aspect_num">1</property>
  <property name="meta.media.sample_aspect_den">1</property>
  <property name="meta.media.frame_rate_num">60</property>
  <property name="meta.media.frame_rate_den">1</property>
  <property name="meta.media.colorspace">601</property>
  <property name="meta.media.color_trc">2</property>
  <property name="meta.media.has_b_frames">0</property>
  <property name="meta.media.width">640</property>
  <property name="meta.media.height">360</property>
  <property name="meta.media.color_range">mpeg</property>
  <property name="set.test_audio">1</property>
  <property name="set.test_image">0</property>
  <property name="meta.media.top_field_first">0</property>
  <property name="meta.media.progressive">1</property>
 </producer>
 <producer id="producer473" in="00:00:00.000" out="00:00:02.800">
  <property name="length">169</property>
  <property name="eof">pause</property>
  <property name="resource">/home/xiaoxiae/.cache/kdenlive/proxy/ba1a3045851ce31cf766327e0f4655c3.mov</property>
  <property name="audio_index">-1</property>
  <property name="video_index">0</property>
  <property name="mute_on_pause">0</property>
  <property name="mlt_service">avformat-novalidate</property>
  <property name="seekable">1</property>
  <property name="aspect_ratio">1</property>
  <property name="kdenlive:clipname">24.mp4</property>
  <property name="kdenlive:folderid">314</property>
  <property name="kdenlive:id">330</property>
  <property name="kdenlive:file_size">141500</property>
  <property name="kdenlive:proxy">/home/xiaoxiae/.cache/kdenlive/proxy/ba1a3045851ce31cf766327e0f4655c3.mov</property>
  <property name="kdenlive:originalurl">video/ProgrammingModel/vid/24.mp4</property>
  <property name="kdenlive:original.mlt_type">producer</property>
  <property name="kdenlive:original.in">0</property>
  <property name="kdenlive:original.out">168</property>
  <property name="kdenlive:original.length">169</property>
  <property name="kdenlive:original.eof">pause</property>
  <property name="kdenlive:original.resource">video/ProgrammingModel/vid/24.mp4</property>
  <property name="kdenlive:original.meta.media.nb_streams">1</property>
  <property name="kdenlive:original.meta.media.0.stream.type">video</property>
  <property name="kdenlive:original.meta.media.0.stream.frame_rate">60</property>
  <property name="kdenlive:original.meta.media.0.stream.sample_aspect_ratio">0</property>
  <property name="kdenlive:original.meta.media.0.codec.width">3840</property>
  <property name="kdenlive:original.meta.media.0.codec.height">2160</property>
  <property name="kdenlive:original.meta.media.0.codec.rotate">0</property>
  <property name="kdenlive:original.meta.media.0.codec.pix_fmt">yuv420p</property>
  <property name="kdenlive:original.meta.media.0.codec.sample_aspect_ratio">0</property>
  <property name="kdenlive:original.meta.media.0.codec.colorspace">709</property>
  <property name="kdenlive:original.meta.media.0.codec.name">h264</property>
  <property name="kdenlive:original.meta.media.0.codec.long_name">H.264 / AVC / MPEG-4 AVC / MPEG-4 part 10</property>
  <property name="kdenlive:original.meta.media.0.codec.bit_rate">393520</property>
  <property name="kdenlive:original.meta.attr.0.stream.handler_name.markup">VideoHandler</property>
  <property name="kdenlive:original.meta.attr.0.stream.vendor_id.markup">[0][0][0][0]</property>
  <property name="kdenlive:original.meta.attr.major_brand.markup">isom</property>
  <property name="kdenlive:original.meta.attr.minor_version.markup">512</property>
  <property name="kdenlive:original.meta.attr.compatible_brands.markup">isomiso2avc1mp41</property>
  <property name="kdenlive:original.meta.attr.encoder.markup">Lavf58.76.100</property>
  <property name="kdenlive:original.meta.attr.comment.markup">Rendered with Manim Community v0.12.0</property>
  <property name="kdenlive:original.seekable">1</property>
  <property name="kdenlive:original.width">3840</property>
  <property name="kdenlive:original.height">2160</property>
  <property name="kdenlive:original.meta.media.sample_aspect_num">1</property>
  <property name="kdenlive:original.meta.media.sample_aspect_den">1</property>
  <property name="kdenlive:original.aspect_ratio">1</property>
  <property name="kdenlive:original.audio_index">-1</property>
  <property name="kdenlive:original.video_index">0</property>
  <property name="kdenlive:original.mute_on_pause">0</property>
  <property name="kdenlive:original.mlt_service">avformat-novalidate</property>
  <property name="kdenlive:original.kdenlive:folderid">314</property>
  <property name="kdenlive:original.meta.media.frame_rate_num">60</property>
  <property name="kdenlive:original.meta.media.frame_rate_den">1</property>
  <property name="kdenlive:original.meta.media.colorspace">709</property>
  <property name="kdenlive:original.meta.media.color_trc">2</property>
  <property name="kdenlive:original.meta.media.has_b_frames">2</property>
  <property name="kdenlive:original.meta.media.width">3840</property>
  <property name="kdenlive:original.meta.media.height">2160</property>
  <property name="kdenlive:original.meta.media.color_range">mpeg</property>
  <property name="kdenlive:original.kdenlive:id">331</property>
  <property name="kdenlive:original.kdenlive:file_size">141500</property>
  <property name="kdenlive:original.kdenlive:file_hash">ba1a3045851ce31cf766327e0f4655c3</property>
  <property name="kdenlive:original.backup">1</property>
  <property name="kdenlive:file_hash">ba1a3045851ce31cf766327e0f4655c3</property>
  <property name="xml">was here</property>
  <property name="meta.media.nb_streams">1</property>
  <property name="meta.media.0.stream.type">video</property>
  <property name="meta.media.0.stream.frame_rate">60</property>
  <property name="meta.media.0.stream.sample_aspect_ratio">0</property>
  <property name="meta.media.0.codec.width">640</property>
  <property name="meta.media.0.codec.height">360</property>
  <property name="meta.media.0.codec.rotate">0</property>
  <property name="meta.media.0.codec.pix_fmt">yuv420p</property>
  <property name="meta.media.0.codec.sample_aspect_ratio">0</property>
  <property name="meta.media.0.codec.colorspace">601</property>
  <property name="meta.media.0.codec.name">h264</property>
  <property name="meta.media.0.codec.long_name">H.264 / AVC / MPEG-4 AVC / MPEG-4 part 10</property>
  <property name="meta.media.0.codec.bit_rate">3003834</property>
  <property name="meta.attr.0.stream.handler_name.markup">VideoHandler</property>
  <property name="meta.attr.0.stream.vendor_id.markup">FFMP</property>
  <property name="meta.attr.0.stream.encoder.markup">Lavc58.134.100 libx264</property>
  <property name="meta.attr.major_brand.markup">qt  </property>
  <property name="meta.attr.minor_version.markup">512</property>
  <property name="meta.attr.compatible_brands.markup">qt  </property>
  <property name="meta.attr.encoder.markup">Lavf58.76.100</property>
  <property name="meta.attr.comment.markup">Rendered with Manim Community v0.12.0</property>
  <property name="meta.media.sample_aspect_num">1</property>
  <property name="meta.media.sample_aspect_den">1</property>
  <property name="meta.media.frame_rate_num">60</property>
  <property name="meta.media.frame_rate_den">1</property>
  <property name="meta.media.colorspace">601</property>
  <property name="meta.media.color_trc">2</property>
  <property name="meta.media.has_b_frames">0</property>
  <property name="meta.media.width">640</property>
  <property name="meta.media.height">360</property>
  <property name="meta.media.color_range">mpeg</property>
  <property name="set.test_audio">1</property>
  <property name="set.test_image">0</property>
  <property name="meta.media.top_field_first">0</property>
  <property name="meta.media.progressive">1</property>
 </producer>
 <producer id="producer474" in="00:00:00.000" out="00:00:02.483">
  <property name="length">150</property>
  <property name="eof">pause</property>
  <property name="resource">/home/xiaoxiae/.cache/kdenlive/proxy/2c70ba601cfee8adfa0c57a7e2ed9b5a.mov</property>
  <property name="audio_index">-1</property>
  <property name="video_index">0</property>
  <property name="mute_on_pause">0</property>
  <property name="mlt_service">avformat-novalidate</property>
  <property name="seekable">1</property>
  <property name="aspect_ratio">1</property>
  <property name="kdenlive:clipname">25.mp4</property>
  <property name="kdenlive:folderid">314</property>
  <property name="kdenlive:id">331</property>
  <property name="kdenlive:file_size">123326</property>
  <property name="kdenlive:proxy">/home/xiaoxiae/.cache/kdenlive/proxy/2c70ba601cfee8adfa0c57a7e2ed9b5a.mov</property>
  <property name="kdenlive:originalurl">video/ProgrammingModel/vid/25.mp4</property>
  <property name="kdenlive:original.mlt_type">producer</property>
  <property name="kdenlive:original.in">0</property>
  <property name="kdenlive:original.out">149</property>
  <property name="kdenlive:original.length">150</property>
  <property name="kdenlive:original.eof">pause</property>
  <property name="kdenlive:original.resource">video/ProgrammingModel/vid/25.mp4</property>
  <property name="kdenlive:original.meta.media.nb_streams">1</property>
  <property name="kdenlive:original.meta.media.0.stream.type">video</property>
  <property name="kdenlive:original.meta.media.0.stream.frame_rate">60</property>
  <property name="kdenlive:original.meta.media.0.stream.sample_aspect_ratio">0</property>
  <property name="kdenlive:original.meta.media.0.codec.width">3840</property>
  <property name="kdenlive:original.meta.media.0.codec.height">2160</property>
  <property name="kdenlive:original.meta.media.0.codec.rotate">0</property>
  <property name="kdenlive:original.meta.media.0.codec.pix_fmt">yuv420p</property>
  <property name="kdenlive:original.meta.media.0.codec.sample_aspect_ratio">0</property>
  <property name="kdenlive:original.meta.media.0.codec.colorspace">709</property>
  <property name="kdenlive:original.meta.media.0.codec.name">h264</property>
  <property name="kdenlive:original.meta.media.0.codec.long_name">H.264 / AVC / MPEG-4 AVC / MPEG-4 part 10</property>
  <property name="kdenlive:original.meta.media.0.codec.bit_rate">385939</property>
  <property name="kdenlive:original.meta.attr.0.stream.handler_name.markup">VideoHandler</property>
  <property name="kdenlive:original.meta.attr.0.stream.vendor_id.markup">[0][0][0][0]</property>
  <property name="kdenlive:original.meta.attr.major_brand.markup">isom</property>
  <property name="kdenlive:original.meta.attr.minor_version.markup">512</property>
  <property name="kdenlive:original.meta.attr.compatible_brands.markup">isomiso2avc1mp41</property>
  <property name="kdenlive:original.meta.attr.encoder.markup">Lavf58.76.100</property>
  <property name="kdenlive:original.meta.attr.comment.markup">Rendered with Manim Community v0.12.0</property>
  <property name="kdenlive:original.seekable">1</property>
  <property name="kdenlive:original.width">3840</property>
  <property name="kdenlive:original.height">2160</property>
  <property name="kdenlive:original.meta.media.sample_aspect_num">1</property>
  <property name="kdenlive:original.meta.media.sample_aspect_den">1</property>
  <property name="kdenlive:original.aspect_ratio">1</property>
  <property name="kdenlive:original.audio_index">-1</property>
  <property name="kdenlive:original.video_index">0</property>
  <property name="kdenlive:original.mute_on_pause">0</property>
  <property name="kdenlive:original.mlt_service">avformat-novalidate</property>
  <property name="kdenlive:original.kdenlive:folderid">314</property>
  <property name="kdenlive:original.meta.media.frame_rate_num">60</property>
  <property name="kdenlive:original.meta.media.frame_rate_den">1</property>
  <property name="kdenlive:original.meta.media.colorspace">709</property>
  <property name="kdenlive:original.meta.media.color_trc">2</property>
  <property name="kdenlive:original.meta.media.has_b_frames">2</property>
  <property name="kdenlive:original.meta.media.width">3840</property>
  <property name="kdenlive:original.meta.media.height">2160</property>
  <property name="kdenlive:original.meta.media.color_range">mpeg</property>
  <property name="kdenlive:original.kdenlive:id">332</property>
  <property name="kdenlive:original.kdenlive:file_size">123326</property>
  <property name="kdenlive:original.kdenlive:file_hash">2c70ba601cfee8adfa0c57a7e2ed9b5a</property>
  <property name="kdenlive:original.backup">1</property>
  <property name="kdenlive:file_hash">2c70ba601cfee8adfa0c57a7e2ed9b5a</property>
  <property name="xml">was here</property>
  <property name="meta.media.nb_streams">1</property>
  <property name="meta.media.0.stream.type">video</property>
  <property name="meta.media.0.stream.frame_rate">60</property>
  <property name="meta.media.0.stream.sample_aspect_ratio">0</property>
  <property name="meta.media.0.codec.width">640</property>
  <property name="meta.media.0.codec.height">360</property>
  <property name="meta.media.0.codec.rotate">0</property>
  <property name="meta.media.0.codec.pix_fmt">yuv420p</property>
  <property name="meta.media.0.codec.sample_aspect_ratio">0</property>
  <property name="meta.media.0.codec.colorspace">601</property>
  <property name="meta.media.0.codec.name">h264</property>
  <property name="meta.media.0.codec.long_name">H.264 / AVC / MPEG-4 AVC / MPEG-4 part 10</property>
  <property name="meta.media.0.codec.bit_rate">2994896</property>
  <property name="meta.attr.0.stream.handler_name.markup">VideoHandler</property>
  <property name="meta.attr.0.stream.vendor_id.markup">FFMP</property>
  <property name="meta.attr.0.stream.encoder.markup">Lavc58.134.100 libx264</property>
  <property name="meta.attr.major_brand.markup">qt  </property>
  <property name="meta.attr.minor_version.markup">512</property>
  <property name="meta.attr.compatible_brands.markup">qt  </property>
  <property name="meta.attr.encoder.markup">Lavf58.76.100</property>
  <property name="meta.attr.comment.markup">Rendered with Manim Community v0.12.0</property>
  <property name="meta.media.sample_aspect_num">1</property>
  <property name="meta.media.sample_aspect_den">1</property>
  <property name="meta.media.frame_rate_num">60</property>
  <property name="meta.media.frame_rate_den">1</property>
  <property name="meta.media.colorspace">601</property>
  <property name="meta.media.color_trc">2</property>
  <property name="meta.media.has_b_frames">0</property>
  <property name="meta.media.width">640</property>
  <property name="meta.media.height">360</property>
  <property name="meta.media.color_range">mpeg</property>
  <property name="set.test_audio">1</property>
  <property name="set.test_image">0</property>
  <property name="meta.media.top_field_first">0</property>
  <property name="meta.media.progressive">1</property>
 </producer>
 <producer id="producer475" in="00:00:00.000" out="00:00:00.983">
  <property name="length">60</property>
  <property name="eof">pause</property>
  <property name="resource">/home/xiaoxiae/.cache/kdenlive/proxy/21fc3cd855d890deca806e3be5c411ce.mov</property>
  <property name="audio_index">-1</property>
  <property name="video_index">0</property>
  <property name="mute_on_pause">0</property>
  <property name="mlt_service">avformat-novalidate</property>
  <property name="seekable">1</property>
  <property name="aspect_ratio">1</property>
  <property name="kdenlive:clipname">26.mp4</property>
  <property name="kdenlive:folderid">314</property>
  <property name="kdenlive:id">332</property>
  <property name="kdenlive:file_size">103881</property>
  <property name="kdenlive:proxy">/home/xiaoxiae/.cache/kdenlive/proxy/21fc3cd855d890deca806e3be5c411ce.mov</property>
  <property name="kdenlive:originalurl">video/ProgrammingModel/vid/26.mp4</property>
  <property name="kdenlive:original.mlt_type">producer</property>
  <property name="kdenlive:original.in">0</property>
  <property name="kdenlive:original.out">59</property>
  <property name="kdenlive:original.length">60</property>
  <property name="kdenlive:original.eof">pause</property>
  <property name="kdenlive:original.resource">video/ProgrammingModel/vid/26.mp4</property>
  <property name="kdenlive:original.meta.media.nb_streams">1</property>
  <property name="kdenlive:original.meta.media.0.stream.type">video</property>
  <property name="kdenlive:original.meta.media.0.stream.frame_rate">60</property>
  <property name="kdenlive:original.meta.media.0.stream.sample_aspect_ratio">0</property>
  <property name="kdenlive:original.meta.media.0.codec.width">3840</property>
  <property name="kdenlive:original.meta.media.0.codec.height">2160</property>
  <property name="kdenlive:original.meta.media.0.codec.rotate">0</property>
  <property name="kdenlive:original.meta.media.0.codec.pix_fmt">yuv420p</property>
  <property name="kdenlive:original.meta.media.0.codec.sample_aspect_ratio">0</property>
  <property name="kdenlive:original.meta.media.0.codec.colorspace">709</property>
  <property name="kdenlive:original.meta.media.0.codec.name">h264</property>
  <property name="kdenlive:original.meta.media.0.codec.long_name">H.264 / AVC / MPEG-4 AVC / MPEG-4 part 10</property>
  <property name="kdenlive:original.meta.media.0.codec.bit_rate">817992</property>
  <property name="kdenlive:original.meta.attr.0.stream.handler_name.markup">VideoHandler</property>
  <property name="kdenlive:original.meta.attr.0.stream.vendor_id.markup">[0][0][0][0]</property>
  <property name="kdenlive:original.meta.attr.major_brand.markup">isom</property>
  <property name="kdenlive:original.meta.attr.minor_version.markup">512</property>
  <property name="kdenlive:original.meta.attr.compatible_brands.markup">isomiso2avc1mp41</property>
  <property name="kdenlive:original.meta.attr.encoder.markup">Lavf58.76.100</property>
  <property name="kdenlive:original.meta.attr.comment.markup">Rendered with Manim Community v0.12.0</property>
  <property name="kdenlive:original.seekable">1</property>
  <property name="kdenlive:original.width">3840</property>
  <property name="kdenlive:original.height">2160</property>
  <property name="kdenlive:original.meta.media.sample_aspect_num">1</property>
  <property name="kdenlive:original.meta.media.sample_aspect_den">1</property>
  <property name="kdenlive:original.aspect_ratio">1</property>
  <property name="kdenlive:original.audio_index">-1</property>
  <property name="kdenlive:original.video_index">0</property>
  <property name="kdenlive:original.mute_on_pause">0</property>
  <property name="kdenlive:original.mlt_service">avformat-novalidate</property>
  <property name="kdenlive:original.kdenlive:folderid">314</property>
  <property name="kdenlive:original.meta.media.frame_rate_num">60</property>
  <property name="kdenlive:original.meta.media.frame_rate_den">1</property>
  <property name="kdenlive:original.meta.media.colorspace">709</property>
  <property name="kdenlive:original.meta.media.color_trc">2</property>
  <property name="kdenlive:original.meta.media.has_b_frames">2</property>
  <property name="kdenlive:original.meta.media.width">3840</property>
  <property name="kdenlive:original.meta.media.height">2160</property>
  <property name="kdenlive:original.meta.media.color_range">mpeg</property>
  <property name="kdenlive:original.kdenlive:id">333</property>
  <property name="kdenlive:original.kdenlive:file_size">103881</property>
  <property name="kdenlive:original.kdenlive:file_hash">21fc3cd855d890deca806e3be5c411ce</property>
  <property name="kdenlive:original.backup">1</property>
  <property name="kdenlive:file_hash">21fc3cd855d890deca806e3be5c411ce</property>
  <property name="xml">was here</property>
  <property name="meta.media.nb_streams">1</property>
  <property name="meta.media.0.stream.type">video</property>
  <property name="meta.media.0.stream.frame_rate">60</property>
  <property name="meta.media.0.stream.sample_aspect_ratio">0</property>
  <property name="meta.media.0.codec.width">640</property>
  <property name="meta.media.0.codec.height">360</property>
  <property name="meta.media.0.codec.rotate">0</property>
  <property name="meta.media.0.codec.pix_fmt">yuv420p</property>
  <property name="meta.media.0.codec.sample_aspect_ratio">0</property>
  <property name="meta.media.0.codec.colorspace">601</property>
  <property name="meta.media.0.codec.name">h264</property>
  <property name="meta.media.0.codec.long_name">H.264 / AVC / MPEG-4 AVC / MPEG-4 part 10</property>
  <property name="meta.media.0.codec.bit_rate">3107680</property>
  <property name="meta.attr.0.stream.handler_name.markup">VideoHandler</property>
  <property name="meta.attr.0.stream.vendor_id.markup">FFMP</property>
  <property name="meta.attr.0.stream.encoder.markup">Lavc58.134.100 libx264</property>
  <property name="meta.attr.major_brand.markup">qt  </property>
  <property name="meta.attr.minor_version.markup">512</property>
  <property name="meta.attr.compatible_brands.markup">qt  </property>
  <property name="meta.attr.encoder.markup">Lavf58.76.100</property>
  <property name="meta.attr.comment.markup">Rendered with Manim Community v0.12.0</property>
  <property name="meta.media.sample_aspect_num">1</property>
  <property name="meta.media.sample_aspect_den">1</property>
  <property name="meta.media.frame_rate_num">60</property>
  <property name="meta.media.frame_rate_den">1</property>
  <property name="meta.media.colorspace">601</property>
  <property name="meta.media.color_trc">2</property>
  <property name="meta.media.has_b_frames">0</property>
  <property name="meta.media.width">640</property>
  <property name="meta.media.height">360</property>
  <property name="meta.media.color_range">mpeg</property>
  <property name="set.test_audio">1</property>
  <property name="set.test_image">0</property>
  <property name="meta.media.top_field_first">0</property>
  <property name="meta.media.progressive">1</property>
 </producer>
 <producer id="producer476" in="00:00:00.000" out="00:00:02.800">
  <property name="length">169</property>
  <property name="eof">pause</property>
  <property name="resource">/home/xiaoxiae/.cache/kdenlive/proxy/8eadae57eff136d5c62824c47182ee46.mov</property>
  <property name="audio_index">-1</property>
  <property name="video_index">0</property>
  <property name="mute_on_pause">0</property>
  <property name="mlt_service">avformat-novalidate</property>
  <property name="seekable">1</property>
  <property name="aspect_ratio">1</property>
  <property name="kdenlive:clipname">27.mp4</property>
  <property name="kdenlive:folderid">314</property>
  <property name="kdenlive:id">333</property>
  <property name="kdenlive:file_size">144411</property>
  <property name="kdenlive:proxy">/home/xiaoxiae/.cache/kdenlive/proxy/8eadae57eff136d5c62824c47182ee46.mov</property>
  <property name="kdenlive:originalurl">video/ProgrammingModel/vid/27.mp4</property>
  <property name="kdenlive:original.mlt_type">producer</property>
  <property name="kdenlive:original.in">0</property>
  <property name="kdenlive:original.out">168</property>
  <property name="kdenlive:original.length">169</property>
  <property name="kdenlive:original.eof">pause</property>
  <property name="kdenlive:original.resource">video/ProgrammingModel/vid/27.mp4</property>
  <property name="kdenlive:original.meta.media.nb_streams">1</property>
  <property name="kdenlive:original.meta.media.0.stream.type">video</property>
  <property name="kdenlive:original.meta.media.0.stream.frame_rate">60</property>
  <property name="kdenlive:original.meta.media.0.stream.sample_aspect_ratio">0</property>
  <property name="kdenlive:original.meta.media.0.codec.width">3840</property>
  <property name="kdenlive:original.meta.media.0.codec.height">2160</property>
  <property name="kdenlive:original.meta.media.0.codec.rotate">0</property>
  <property name="kdenlive:original.meta.media.0.codec.pix_fmt">yuv420p</property>
  <property name="kdenlive:original.meta.media.0.codec.sample_aspect_ratio">0</property>
  <property name="kdenlive:original.meta.media.0.codec.colorspace">709</property>
  <property name="kdenlive:original.meta.media.0.codec.name">h264</property>
  <property name="kdenlive:original.meta.media.0.codec.long_name">H.264 / AVC / MPEG-4 AVC / MPEG-4 part 10</property>
  <property name="kdenlive:original.meta.media.0.codec.bit_rate">401788</property>
  <property name="kdenlive:original.meta.attr.0.stream.handler_name.markup">VideoHandler</property>
  <property name="kdenlive:original.meta.attr.0.stream.vendor_id.markup">[0][0][0][0]</property>
  <property name="kdenlive:original.meta.attr.major_brand.markup">isom</property>
  <property name="kdenlive:original.meta.attr.minor_version.markup">512</property>
  <property name="kdenlive:original.meta.attr.compatible_brands.markup">isomiso2avc1mp41</property>
  <property name="kdenlive:original.meta.attr.encoder.markup">Lavf58.76.100</property>
  <property name="kdenlive:original.meta.attr.comment.markup">Rendered with Manim Community v0.12.0</property>
  <property name="kdenlive:original.seekable">1</property>
  <property name="kdenlive:original.width">3840</property>
  <property name="kdenlive:original.height">2160</property>
  <property name="kdenlive:original.meta.media.sample_aspect_num">1</property>
  <property name="kdenlive:original.meta.media.sample_aspect_den">1</property>
  <property name="kdenlive:original.aspect_ratio">1</property>
  <property name="kdenlive:original.audio_index">-1</property>
  <property name="kdenlive:original.video_index">0</property>
  <property name="kdenlive:original.mute_on_pause">0</property>
  <property name="kdenlive:original.mlt_service">avformat-novalidate</property>
  <property name="kdenlive:original.kdenlive:folderid">314</property>
  <property name="kdenlive:original.meta.media.frame_rate_num">60</property>
  <property name="kdenlive:original.meta.media.frame_rate_den">1</property>
  <property name="kdenlive:original.meta.media.colorspace">709</property>
  <property name="kdenlive:original.meta.media.color_trc">2</property>
  <property name="kdenlive:original.meta.media.has_b_frames">2</property>
  <property name="kdenlive:original.meta.media.width">3840</property>
  <property name="kdenlive:original.meta.media.height">2160</property>
  <property name="kdenlive:original.meta.media.color_range">mpeg</property>
  <property name="kdenlive:original.kdenlive:id">334</property>
  <property name="kdenlive:original.kdenlive:file_size">144411</property>
  <property name="kdenlive:original.kdenlive:file_hash">8eadae57eff136d5c62824c47182ee46</property>
  <property name="kdenlive:original.backup">1</property>
  <property name="kdenlive:file_hash">8eadae57eff136d5c62824c47182ee46</property>
  <property name="xml">was here</property>
  <property name="meta.media.nb_streams">1</property>
  <property name="meta.media.0.stream.type">video</property>
  <property name="meta.media.0.stream.frame_rate">60</property>
  <property name="meta.media.0.stream.sample_aspect_ratio">0</property>
  <property name="meta.media.0.codec.width">640</property>
  <property name="meta.media.0.codec.height">360</property>
  <property name="meta.media.0.codec.rotate">0</property>
  <property name="meta.media.0.codec.pix_fmt">yuv420p</property>
  <property name="meta.media.0.codec.sample_aspect_ratio">0</property>
  <property name="meta.media.0.codec.colorspace">601</property>
  <property name="meta.media.0.codec.name">h264</property>
  <property name="meta.media.0.codec.long_name">H.264 / AVC / MPEG-4 AVC / MPEG-4 part 10</property>
  <property name="meta.media.0.codec.bit_rate">3141259</property>
  <property name="meta.attr.0.stream.handler_name.markup">VideoHandler</property>
  <property name="meta.attr.0.stream.vendor_id.markup">FFMP</property>
  <property name="meta.attr.0.stream.encoder.markup">Lavc58.134.100 libx264</property>
  <property name="meta.attr.major_brand.markup">qt  </property>
  <property name="meta.attr.minor_version.markup">512</property>
  <property name="meta.attr.compatible_brands.markup">qt  </property>
  <property name="meta.attr.encoder.markup">Lavf58.76.100</property>
  <property name="meta.attr.comment.markup">Rendered with Manim Community v0.12.0</property>
  <property name="meta.media.sample_aspect_num">1</property>
  <property name="meta.media.sample_aspect_den">1</property>
  <property name="meta.media.frame_rate_num">60</property>
  <property name="meta.media.frame_rate_den">1</property>
  <property name="meta.media.colorspace">601</property>
  <property name="meta.media.color_trc">2</property>
  <property name="meta.media.has_b_frames">0</property>
  <property name="meta.media.width">640</property>
  <property name="meta.media.height">360</property>
  <property name="meta.media.color_range">mpeg</property>
  <property name="set.test_audio">1</property>
  <property name="set.test_image">0</property>
  <property name="meta.media.top_field_first">0</property>
  <property name="meta.media.progressive">1</property>
 </producer>
 <producer id="producer477" in="00:00:00.000" out="00:00:00.983">
  <property name="length">60</property>
  <property name="eof">pause</property>
  <property name="resource">/home/xiaoxiae/.cache/kdenlive/proxy/19b37e9e46136dd65b24ddd9b939e4ef.mov</property>
  <property name="audio_index">-1</property>
  <property name="video_index">0</property>
  <property name="mute_on_pause">0</property>
  <property name="mlt_service">avformat-novalidate</property>
  <property name="seekable">1</property>
  <property name="aspect_ratio">1</property>
  <property name="kdenlive:clipname">28.mp4</property>
  <property name="kdenlive:folderid">314</property>
  <property name="kdenlive:id">334</property>
  <property name="kdenlive:file_size">141347</property>
  <property name="kdenlive:proxy">/home/xiaoxiae/.cache/kdenlive/proxy/19b37e9e46136dd65b24ddd9b939e4ef.mov</property>
  <property name="kdenlive:originalurl">video/ProgrammingModel/vid/28.mp4</property>
  <property name="kdenlive:original.mlt_type">producer</property>
  <property name="kdenlive:original.in">0</property>
  <property name="kdenlive:original.out">59</property>
  <property name="kdenlive:original.length">60</property>
  <property name="kdenlive:original.eof">pause</property>
  <property name="kdenlive:original.resource">video/ProgrammingModel/vid/28.mp4</property>
  <property name="kdenlive:original.meta.media.nb_streams">1</property>
  <property name="kdenlive:original.meta.media.0.stream.type">video</property>
  <property name="kdenlive:original.meta.media.0.stream.frame_rate">60</property>
  <property name="kdenlive:original.meta.media.0.stream.sample_aspect_ratio">0</property>
  <property name="kdenlive:original.meta.media.0.codec.width">3840</property>
  <property name="kdenlive:original.meta.media.0.codec.height">2160</property>
  <property name="kdenlive:original.meta.media.0.codec.rotate">0</property>
  <property name="kdenlive:original.meta.media.0.codec.pix_fmt">yuv420p</property>
  <property name="kdenlive:original.meta.media.0.codec.sample_aspect_ratio">0</property>
  <property name="kdenlive:original.meta.media.0.codec.colorspace">709</property>
  <property name="kdenlive:original.meta.media.0.codec.name">h264</property>
  <property name="kdenlive:original.meta.media.0.codec.long_name">H.264 / AVC / MPEG-4 AVC / MPEG-4 part 10</property>
  <property name="kdenlive:original.meta.media.0.codec.bit_rate">1119320</property>
  <property name="kdenlive:original.meta.attr.0.stream.handler_name.markup">VideoHandler</property>
  <property name="kdenlive:original.meta.attr.0.stream.vendor_id.markup">[0][0][0][0]</property>
  <property name="kdenlive:original.meta.attr.major_brand.markup">isom</property>
  <property name="kdenlive:original.meta.attr.minor_version.markup">512</property>
  <property name="kdenlive:original.meta.attr.compatible_brands.markup">isomiso2avc1mp41</property>
  <property name="kdenlive:original.meta.attr.encoder.markup">Lavf58.76.100</property>
  <property name="kdenlive:original.meta.attr.comment.markup">Rendered with Manim Community v0.12.0</property>
  <property name="kdenlive:original.seekable">1</property>
  <property name="kdenlive:original.width">3840</property>
  <property name="kdenlive:original.height">2160</property>
  <property name="kdenlive:original.meta.media.sample_aspect_num">1</property>
  <property name="kdenlive:original.meta.media.sample_aspect_den">1</property>
  <property name="kdenlive:original.aspect_ratio">1</property>
  <property name="kdenlive:original.audio_index">-1</property>
  <property name="kdenlive:original.video_index">0</property>
  <property name="kdenlive:original.mute_on_pause">0</property>
  <property name="kdenlive:original.mlt_service">avformat-novalidate</property>
  <property name="kdenlive:original.kdenlive:folderid">314</property>
  <property name="kdenlive:original.meta.media.frame_rate_num">60</property>
  <property name="kdenlive:original.meta.media.frame_rate_den">1</property>
  <property name="kdenlive:original.meta.media.colorspace">709</property>
  <property name="kdenlive:original.meta.media.color_trc">2</property>
  <property name="kdenlive:original.meta.media.has_b_frames">2</property>
  <property name="kdenlive:original.meta.media.width">3840</property>
  <property name="kdenlive:original.meta.media.height">2160</property>
  <property name="kdenlive:original.meta.media.color_range">mpeg</property>
  <property name="kdenlive:original.kdenlive:id">335</property>
  <property name="kdenlive:original.kdenlive:file_size">141347</property>
  <property name="kdenlive:original.kdenlive:file_hash">19b37e9e46136dd65b24ddd9b939e4ef</property>
  <property name="kdenlive:original.backup">1</property>
  <property name="kdenlive:file_hash">19b37e9e46136dd65b24ddd9b939e4ef</property>
  <property name="xml">was here</property>
  <property name="meta.media.nb_streams">1</property>
  <property name="meta.media.0.stream.type">video</property>
  <property name="meta.media.0.stream.frame_rate">60</property>
  <property name="meta.media.0.stream.sample_aspect_ratio">0</property>
  <property name="meta.media.0.codec.width">640</property>
  <property name="meta.media.0.codec.height">360</property>
  <property name="meta.media.0.codec.rotate">0</property>
  <property name="meta.media.0.codec.pix_fmt">yuv420p</property>
  <property name="meta.media.0.codec.sample_aspect_ratio">0</property>
  <property name="meta.media.0.codec.colorspace">601</property>
  <property name="meta.media.0.codec.name">h264</property>
  <property name="meta.media.0.codec.long_name">H.264 / AVC / MPEG-4 AVC / MPEG-4 part 10</property>
  <property name="meta.media.0.codec.bit_rate">3254560</property>
  <property name="meta.attr.0.stream.handler_name.markup">VideoHandler</property>
  <property name="meta.attr.0.stream.vendor_id.markup">FFMP</property>
  <property name="meta.attr.0.stream.encoder.markup">Lavc58.134.100 libx264</property>
  <property name="meta.attr.major_brand.markup">qt  </property>
  <property name="meta.attr.minor_version.markup">512</property>
  <property name="meta.attr.compatible_brands.markup">qt  </property>
  <property name="meta.attr.encoder.markup">Lavf58.76.100</property>
  <property name="meta.attr.comment.markup">Rendered with Manim Community v0.12.0</property>
  <property name="meta.media.sample_aspect_num">1</property>
  <property name="meta.media.sample_aspect_den">1</property>
  <property name="meta.media.frame_rate_num">60</property>
  <property name="meta.media.frame_rate_den">1</property>
  <property name="meta.media.colorspace">601</property>
  <property name="meta.media.color_trc">2</property>
  <property name="meta.media.has_b_frames">0</property>
  <property name="meta.media.width">640</property>
  <property name="meta.media.height">360</property>
  <property name="meta.media.color_range">mpeg</property>
  <property name="set.test_audio">1</property>
  <property name="set.test_image">0</property>
 </producer>
 <producer id="producer478" in="00:00:00.000" out="00:00:01.483">
  <property name="length">90</property>
  <property name="eof">pause</property>
  <property name="resource">/home/xiaoxiae/.cache/kdenlive/proxy/5a13386c1658e6fc55c2c81085bb05bd.mov</property>
  <property name="audio_index">-1</property>
  <property name="video_index">0</property>
  <property name="mute_on_pause">0</property>
  <property name="mlt_service">avformat-novalidate</property>
  <property name="seekable">1</property>
  <property name="aspect_ratio">1</property>
  <property name="kdenlive:clipname">29.mp4</property>
  <property name="kdenlive:folderid">314</property>
  <property name="kdenlive:id">335</property>
  <property name="kdenlive:file_size">103452</property>
  <property name="kdenlive:proxy">/home/xiaoxiae/.cache/kdenlive/proxy/5a13386c1658e6fc55c2c81085bb05bd.mov</property>
  <property name="kdenlive:originalurl">video/ProgrammingModel/vid/29.mp4</property>
  <property name="kdenlive:original.mlt_type">producer</property>
  <property name="kdenlive:original.in">0</property>
  <property name="kdenlive:original.out">89</property>
  <property name="kdenlive:original.length">90</property>
  <property name="kdenlive:original.eof">pause</property>
  <property name="kdenlive:original.resource">video/ProgrammingModel/vid/29.mp4</property>
  <property name="kdenlive:original.meta.media.nb_streams">1</property>
  <property name="kdenlive:original.meta.media.0.stream.type">video</property>
  <property name="kdenlive:original.meta.media.0.stream.frame_rate">60</property>
  <property name="kdenlive:original.meta.media.0.stream.sample_aspect_ratio">0</property>
  <property name="kdenlive:original.meta.media.0.codec.width">3840</property>
  <property name="kdenlive:original.meta.media.0.codec.height">2160</property>
  <property name="kdenlive:original.meta.media.0.codec.rotate">0</property>
  <property name="kdenlive:original.meta.media.0.codec.pix_fmt">yuv420p</property>
  <property name="kdenlive:original.meta.media.0.codec.sample_aspect_ratio">0</property>
  <property name="kdenlive:original.meta.media.0.codec.colorspace">709</property>
  <property name="kdenlive:original.meta.media.0.codec.name">h264</property>
  <property name="kdenlive:original.meta.media.0.codec.long_name">H.264 / AVC / MPEG-4 AVC / MPEG-4 part 10</property>
  <property name="kdenlive:original.meta.media.0.codec.bit_rate">541077</property>
  <property name="kdenlive:original.meta.attr.0.stream.handler_name.markup">VideoHandler</property>
  <property name="kdenlive:original.meta.attr.0.stream.vendor_id.markup">[0][0][0][0]</property>
  <property name="kdenlive:original.meta.attr.major_brand.markup">isom</property>
  <property name="kdenlive:original.meta.attr.minor_version.markup">512</property>
  <property name="kdenlive:original.meta.attr.compatible_brands.markup">isomiso2avc1mp41</property>
  <property name="kdenlive:original.meta.attr.encoder.markup">Lavf58.76.100</property>
  <property name="kdenlive:original.meta.attr.comment.markup">Rendered with Manim Community v0.12.0</property>
  <property name="kdenlive:original.seekable">1</property>
  <property name="kdenlive:original.width">3840</property>
  <property name="kdenlive:original.height">2160</property>
  <property name="kdenlive:original.meta.media.sample_aspect_num">1</property>
  <property name="kdenlive:original.meta.media.sample_aspect_den">1</property>
  <property name="kdenlive:original.aspect_ratio">1</property>
  <property name="kdenlive:original.audio_index">-1</property>
  <property name="kdenlive:original.video_index">0</property>
  <property name="kdenlive:original.mute_on_pause">0</property>
  <property name="kdenlive:original.mlt_service">avformat-novalidate</property>
  <property name="kdenlive:original.kdenlive:folderid">314</property>
  <property name="kdenlive:original.meta.media.frame_rate_num">60</property>
  <property name="kdenlive:original.meta.media.frame_rate_den">1</property>
  <property name="kdenlive:original.meta.media.colorspace">709</property>
  <property name="kdenlive:original.meta.media.color_trc">2</property>
  <property name="kdenlive:original.meta.media.has_b_frames">2</property>
  <property name="kdenlive:original.meta.media.width">3840</property>
  <property name="kdenlive:original.meta.media.height">2160</property>
  <property name="kdenlive:original.meta.media.color_range">mpeg</property>
  <property name="kdenlive:original.kdenlive:id">336</property>
  <property name="kdenlive:original.kdenlive:file_size">103452</property>
  <property name="kdenlive:original.kdenlive:file_hash">5a13386c1658e6fc55c2c81085bb05bd</property>
  <property name="kdenlive:original.backup">1</property>
  <property name="kdenlive:file_hash">5a13386c1658e6fc55c2c81085bb05bd</property>
  <property name="xml">was here</property>
  <property name="meta.media.nb_streams">1</property>
  <property name="meta.media.0.stream.type">video</property>
  <property name="meta.media.0.stream.frame_rate">60</property>
  <property name="meta.media.0.stream.sample_aspect_ratio">0</property>
  <property name="meta.media.0.codec.width">640</property>
  <property name="meta.media.0.codec.height">360</property>
  <property name="meta.media.0.codec.rotate">0</property>
  <property name="meta.media.0.codec.pix_fmt">yuv420p</property>
  <property name="meta.media.0.codec.sample_aspect_ratio">0</property>
  <property name="meta.media.0.codec.colorspace">601</property>
  <property name="meta.media.0.codec.name">h264</property>
  <property name="meta.media.0.codec.long_name">H.264 / AVC / MPEG-4 AVC / MPEG-4 part 10</property>
  <property name="meta.media.0.codec.bit_rate">3222864</property>
  <property name="meta.attr.0.stream.handler_name.markup">VideoHandler</property>
  <property name="meta.attr.0.stream.vendor_id.markup">FFMP</property>
  <property name="meta.attr.0.stream.encoder.markup">Lavc58.134.100 libx264</property>
  <property name="meta.attr.major_brand.markup">qt  </property>
  <property name="meta.attr.minor_version.markup">512</property>
  <property name="meta.attr.compatible_brands.markup">qt  </property>
  <property name="meta.attr.encoder.markup">Lavf58.76.100</property>
  <property name="meta.attr.comment.markup">Rendered with Manim Community v0.12.0</property>
  <property name="meta.media.sample_aspect_num">1</property>
  <property name="meta.media.sample_aspect_den">1</property>
  <property name="meta.media.frame_rate_num">60</property>
  <property name="meta.media.frame_rate_den">1</property>
  <property name="meta.media.colorspace">601</property>
  <property name="meta.media.color_trc">2</property>
  <property name="meta.media.has_b_frames">0</property>
  <property name="meta.media.width">640</property>
  <property name="meta.media.height">360</property>
  <property name="meta.media.color_range">mpeg</property>
  <property name="set.test_audio">1</property>
  <property name="set.test_image">0</property>
  <property name="meta.media.top_field_first">0</property>
  <property name="meta.media.progressive">1</property>
 </producer>
 <producer id="producer479" in="00:00:00.000" out="00:00:00.933">
  <property name="length">57</property>
  <property name="eof">pause</property>
  <property name="resource">/home/xiaoxiae/.cache/kdenlive/proxy/a3b9936fbe61c159113164ef3730ed24.mov</property>
  <property name="audio_index">-1</property>
  <property name="video_index">0</property>
  <property name="mute_on_pause">0</property>
  <property name="mlt_service">avformat-novalidate</property>
  <property name="seekable">1</property>
  <property name="aspect_ratio">1</property>
  <property name="kdenlive:clipname">30.mp4</property>
  <property name="kdenlive:file_size">135550</property>
  <property name="kdenlive:folderid">314</property>
  <property name="kdenlive:id">337</property>
  <property name="kdenlive:proxy">/home/xiaoxiae/.cache/kdenlive/proxy/a3b9936fbe61c159113164ef3730ed24.mov</property>
  <property name="kdenlive:originalurl">video/ProgrammingModel/vid/30.mp4</property>
  <property name="kdenlive:original.mlt_type">producer</property>
  <property name="kdenlive:original.in">0</property>
  <property name="kdenlive:original.out">56</property>
  <property name="kdenlive:original.length">57</property>
  <property name="kdenlive:original.eof">pause</property>
  <property name="kdenlive:original.resource">video/ProgrammingModel/vid/30.mp4</property>
  <property name="kdenlive:original.meta.media.nb_streams">1</property>
  <property name="kdenlive:original.meta.media.0.stream.type">video</property>
  <property name="kdenlive:original.meta.media.0.stream.frame_rate">60</property>
  <property name="kdenlive:original.meta.media.0.stream.sample_aspect_ratio">0</property>
  <property name="kdenlive:original.meta.media.0.codec.width">3840</property>
  <property name="kdenlive:original.meta.media.0.codec.height">2160</property>
  <property name="kdenlive:original.meta.media.0.codec.rotate">0</property>
  <property name="kdenlive:original.meta.media.0.codec.pix_fmt">yuv420p</property>
  <property name="kdenlive:original.meta.media.0.codec.sample_aspect_ratio">0</property>
  <property name="kdenlive:original.meta.media.0.codec.colorspace">709</property>
  <property name="kdenlive:original.meta.media.0.codec.name">h264</property>
  <property name="kdenlive:original.meta.media.0.codec.long_name">H.264 / AVC / MPEG-4 AVC / MPEG-4 part 10</property>
  <property name="kdenlive:original.meta.media.0.codec.bit_rate">1128976</property>
  <property name="kdenlive:original.meta.attr.0.stream.handler_name.markup">VideoHandler</property>
  <property name="kdenlive:original.meta.attr.0.stream.vendor_id.markup">[0][0][0][0]</property>
  <property name="kdenlive:original.meta.attr.major_brand.markup">isom</property>
  <property name="kdenlive:original.meta.attr.minor_version.markup">512</property>
  <property name="kdenlive:original.meta.attr.compatible_brands.markup">isomiso2avc1mp41</property>
  <property name="kdenlive:original.meta.attr.encoder.markup">Lavf58.76.100</property>
  <property name="kdenlive:original.meta.attr.comment.markup">Rendered with Manim Community v0.12.0</property>
  <property name="kdenlive:original.seekable">1</property>
  <property name="kdenlive:original.width">3840</property>
  <property name="kdenlive:original.height">2160</property>
  <property name="kdenlive:original.meta.media.sample_aspect_num">1</property>
  <property name="kdenlive:original.meta.media.sample_aspect_den">1</property>
  <property name="kdenlive:original.aspect_ratio">1</property>
  <property name="kdenlive:original.audio_index">-1</property>
  <property name="kdenlive:original.video_index">0</property>
  <property name="kdenlive:original.mute_on_pause">0</property>
  <property name="kdenlive:original.mlt_service">avformat-novalidate</property>
  <property name="kdenlive:original.kdenlive:file_size">135550</property>
  <property name="kdenlive:original.kdenlive:folderid">314</property>
  <property name="kdenlive:original.meta.media.frame_rate_num">60</property>
  <property name="kdenlive:original.meta.media.frame_rate_den">1</property>
  <property name="kdenlive:original.meta.media.colorspace">709</property>
  <property name="kdenlive:original.meta.media.color_trc">2</property>
  <property name="kdenlive:original.meta.media.has_b_frames">2</property>
  <property name="kdenlive:original.meta.media.width">3840</property>
  <property name="kdenlive:original.meta.media.height">2160</property>
  <property name="kdenlive:original.meta.media.color_range">mpeg</property>
  <property name="kdenlive:original.kdenlive:id">338</property>
  <property name="kdenlive:original.kdenlive:file_hash">a3b9936fbe61c159113164ef3730ed24</property>
  <property name="kdenlive:original.backup">1</property>
  <property name="kdenlive:file_hash">a3b9936fbe61c159113164ef3730ed24</property>
  <property name="xml">was here</property>
  <property name="meta.media.nb_streams">1</property>
  <property name="meta.media.0.stream.type">video</property>
  <property name="meta.media.0.stream.frame_rate">60</property>
  <property name="meta.media.0.stream.sample_aspect_ratio">0</property>
  <property name="meta.media.0.codec.width">640</property>
  <property name="meta.media.0.codec.height">360</property>
  <property name="meta.media.0.codec.rotate">0</property>
  <property name="meta.media.0.codec.pix_fmt">yuv420p</property>
  <property name="meta.media.0.codec.sample_aspect_ratio">0</property>
  <property name="meta.media.0.codec.colorspace">601</property>
  <property name="meta.media.0.codec.name">h264</property>
  <property name="meta.media.0.codec.long_name">H.264 / AVC / MPEG-4 AVC / MPEG-4 part 10</property>
  <property name="meta.media.0.codec.bit_rate">3345002</property>
  <property name="meta.attr.0.stream.handler_name.markup">VideoHandler</property>
  <property name="meta.attr.0.stream.vendor_id.markup">FFMP</property>
  <property name="meta.attr.0.stream.encoder.markup">Lavc58.134.100 libx264</property>
  <property name="meta.attr.major_brand.markup">qt  </property>
  <property name="meta.attr.minor_version.markup">512</property>
  <property name="meta.attr.compatible_brands.markup">qt  </property>
  <property name="meta.attr.encoder.markup">Lavf58.76.100</property>
  <property name="meta.attr.comment.markup">Rendered with Manim Community v0.12.0</property>
  <property name="meta.media.sample_aspect_num">1</property>
  <property name="meta.media.sample_aspect_den">1</property>
  <property name="meta.media.frame_rate_num">60</property>
  <property name="meta.media.frame_rate_den">1</property>
  <property name="meta.media.colorspace">601</property>
  <property name="meta.media.color_trc">2</property>
  <property name="meta.media.has_b_frames">0</property>
  <property name="meta.media.width">640</property>
  <property name="meta.media.height">360</property>
  <property name="meta.media.color_range">mpeg</property>
  <property name="set.test_audio">1</property>
  <property name="set.test_image">0</property>
  <property name="meta.media.top_field_first">0</property>
  <property name="meta.media.progressive">1</property>
 </producer>
 <producer id="producer480" in="00:00:00.000" out="00:00:01.483">
  <property name="length">90</property>
  <property name="eof">pause</property>
  <property name="resource">/home/xiaoxiae/.cache/kdenlive/proxy/be50cc0688998b43f16e276a2b093882.mov</property>
  <property name="audio_index">-1</property>
  <property name="video_index">0</property>
  <property name="mute_on_pause">0</property>
  <property name="mlt_service">avformat-novalidate</property>
  <property name="seekable">1</property>
  <property name="aspect_ratio">1</property>
  <property name="kdenlive:clipname">31.mp4</property>
  <property name="kdenlive:folderid">314</property>
  <property name="kdenlive:id">338</property>
  <property name="kdenlive:file_size">107559</property>
  <property name="kdenlive:proxy">/home/xiaoxiae/.cache/kdenlive/proxy/be50cc0688998b43f16e276a2b093882.mov</property>
  <property name="kdenlive:originalurl">video/ProgrammingModel/vid/31.mp4</property>
  <property name="kdenlive:original.mlt_type">producer</property>
  <property name="kdenlive:original.in">0</property>
  <property name="kdenlive:original.out">89</property>
  <property name="kdenlive:original.length">90</property>
  <property name="kdenlive:original.eof">pause</property>
  <property name="kdenlive:original.resource">video/ProgrammingModel/vid/31.mp4</property>
  <property name="kdenlive:original.meta.media.nb_streams">1</property>
  <property name="kdenlive:original.meta.media.0.stream.type">video</property>
  <property name="kdenlive:original.meta.media.0.stream.frame_rate">60</property>
  <property name="kdenlive:original.meta.media.0.stream.sample_aspect_ratio">0</property>
  <property name="kdenlive:original.meta.media.0.codec.width">3840</property>
  <property name="kdenlive:original.meta.media.0.codec.height">2160</property>
  <property name="kdenlive:original.meta.media.0.codec.rotate">0</property>
  <property name="kdenlive:original.meta.media.0.codec.pix_fmt">yuv420p</property>
  <property name="kdenlive:original.meta.media.0.codec.sample_aspect_ratio">0</property>
  <property name="kdenlive:original.meta.media.0.codec.colorspace">709</property>
  <property name="kdenlive:original.meta.media.0.codec.name">h264</property>
  <property name="kdenlive:original.meta.media.0.codec.long_name">H.264 / AVC / MPEG-4 AVC / MPEG-4 part 10</property>
  <property name="kdenlive:original.meta.media.0.codec.bit_rate">562981</property>
  <property name="kdenlive:original.meta.attr.0.stream.handler_name.markup">VideoHandler</property>
  <property name="kdenlive:original.meta.attr.0.stream.vendor_id.markup">[0][0][0][0]</property>
  <property name="kdenlive:original.meta.attr.major_brand.markup">isom</property>
  <property name="kdenlive:original.meta.attr.minor_version.markup">512</property>
  <property name="kdenlive:original.meta.attr.compatible_brands.markup">isomiso2avc1mp41</property>
  <property name="kdenlive:original.meta.attr.encoder.markup">Lavf58.76.100</property>
  <property name="kdenlive:original.meta.attr.comment.markup">Rendered with Manim Community v0.12.0</property>
  <property name="kdenlive:original.seekable">1</property>
  <property name="kdenlive:original.width">3840</property>
  <property name="kdenlive:original.height">2160</property>
  <property name="kdenlive:original.meta.media.sample_aspect_num">1</property>
  <property name="kdenlive:original.meta.media.sample_aspect_den">1</property>
  <property name="kdenlive:original.aspect_ratio">1</property>
  <property name="kdenlive:original.audio_index">-1</property>
  <property name="kdenlive:original.video_index">0</property>
  <property name="kdenlive:original.mute_on_pause">0</property>
  <property name="kdenlive:original.mlt_service">avformat-novalidate</property>
  <property name="kdenlive:original.kdenlive:folderid">314</property>
  <property name="kdenlive:original.meta.media.frame_rate_num">60</property>
  <property name="kdenlive:original.meta.media.frame_rate_den">1</property>
  <property name="kdenlive:original.meta.media.colorspace">709</property>
  <property name="kdenlive:original.meta.media.color_trc">2</property>
  <property name="kdenlive:original.meta.media.has_b_frames">2</property>
  <property name="kdenlive:original.meta.media.width">3840</property>
  <property name="kdenlive:original.meta.media.height">2160</property>
  <property name="kdenlive:original.meta.media.color_range">mpeg</property>
  <property name="kdenlive:original.kdenlive:id">339</property>
  <property name="kdenlive:original.kdenlive:file_size">107559</property>
  <property name="kdenlive:original.kdenlive:file_hash">be50cc0688998b43f16e276a2b093882</property>
  <property name="kdenlive:original.backup">1</property>
  <property name="kdenlive:file_hash">be50cc0688998b43f16e276a2b093882</property>
  <property name="xml">was here</property>
  <property name="meta.media.nb_streams">1</property>
  <property name="meta.media.0.stream.type">video</property>
  <property name="meta.media.0.stream.frame_rate">60</property>
  <property name="meta.media.0.stream.sample_aspect_ratio">0</property>
  <property name="meta.media.0.codec.width">640</property>
  <property name="meta.media.0.codec.height">360</property>
  <property name="meta.media.0.codec.rotate">0</property>
  <property name="meta.media.0.codec.pix_fmt">yuv420p</property>
  <property name="meta.media.0.codec.sample_aspect_ratio">0</property>
  <property name="meta.media.0.codec.colorspace">601</property>
  <property name="meta.media.0.codec.name">h264</property>
  <property name="meta.media.0.codec.long_name">H.264 / AVC / MPEG-4 AVC / MPEG-4 part 10</property>
  <property name="meta.media.0.codec.bit_rate">3341904</property>
  <property name="meta.attr.0.stream.handler_name.markup">VideoHandler</property>
  <property name="meta.attr.0.stream.vendor_id.markup">FFMP</property>
  <property name="meta.attr.0.stream.encoder.markup">Lavc58.134.100 libx264</property>
  <property name="meta.attr.major_brand.markup">qt  </property>
  <property name="meta.attr.minor_version.markup">512</property>
  <property name="meta.attr.compatible_brands.markup">qt  </property>
  <property name="meta.attr.encoder.markup">Lavf58.76.100</property>
  <property name="meta.attr.comment.markup">Rendered with Manim Community v0.12.0</property>
  <property name="meta.media.sample_aspect_num">1</property>
  <property name="meta.media.sample_aspect_den">1</property>
  <property name="meta.media.frame_rate_num">60</property>
  <property name="meta.media.frame_rate_den">1</property>
  <property name="meta.media.colorspace">601</property>
  <property name="meta.media.color_trc">2</property>
  <property name="meta.media.has_b_frames">0</property>
  <property name="meta.media.width">640</property>
  <property name="meta.media.height">360</property>
  <property name="meta.media.color_range">mpeg</property>
  <property name="set.test_audio">1</property>
  <property name="set.test_image">0</property>
 </producer>
 <producer id="producer481" in="00:00:00.000" out="00:00:00.867">
  <property name="length">53</property>
  <property name="eof">pause</property>
  <property name="resource">/home/xiaoxiae/.cache/kdenlive/proxy/010510a8a5efa9397d3184476bed4d23.mov</property>
  <property name="audio_index">-1</property>
  <property name="video_index">0</property>
  <property name="mute_on_pause">0</property>
  <property name="mlt_service">avformat-novalidate</property>
  <property name="seekable">1</property>
  <property name="aspect_ratio">1</property>
  <property name="kdenlive:clipname">32.mp4</property>
  <property name="kdenlive:folderid">314</property>
  <property name="kdenlive:id">339</property>
  <property name="kdenlive:file_size">138470</property>
  <property name="kdenlive:proxy">/home/xiaoxiae/.cache/kdenlive/proxy/010510a8a5efa9397d3184476bed4d23.mov</property>
  <property name="kdenlive:originalurl">video/ProgrammingModel/vid/32.mp4</property>
  <property name="kdenlive:original.mlt_type">producer</property>
  <property name="kdenlive:original.in">0</property>
  <property name="kdenlive:original.out">52</property>
  <property name="kdenlive:original.length">53</property>
  <property name="kdenlive:original.eof">pause</property>
  <property name="kdenlive:original.resource">video/ProgrammingModel/vid/32.mp4</property>
  <property name="kdenlive:original.meta.media.nb_streams">1</property>
  <property name="kdenlive:original.meta.media.0.stream.type">video</property>
  <property name="kdenlive:original.meta.media.0.stream.frame_rate">60</property>
  <property name="kdenlive:original.meta.media.0.stream.sample_aspect_ratio">0</property>
  <property name="kdenlive:original.meta.media.0.codec.width">3840</property>
  <property name="kdenlive:original.meta.media.0.codec.height">2160</property>
  <property name="kdenlive:original.meta.media.0.codec.rotate">0</property>
  <property name="kdenlive:original.meta.media.0.codec.pix_fmt">yuv420p</property>
  <property name="kdenlive:original.meta.media.0.codec.sample_aspect_ratio">0</property>
  <property name="kdenlive:original.meta.media.0.codec.colorspace">709</property>
  <property name="kdenlive:original.meta.media.0.codec.name">h264</property>
  <property name="kdenlive:original.meta.media.0.codec.long_name">H.264 / AVC / MPEG-4 AVC / MPEG-4 part 10</property>
  <property name="kdenlive:original.meta.media.0.codec.bit_rate">1242149</property>
  <property name="kdenlive:original.meta.attr.0.stream.handler_name.markup">VideoHandler</property>
  <property name="kdenlive:original.meta.attr.0.stream.vendor_id.markup">[0][0][0][0]</property>
  <property name="kdenlive:original.meta.attr.major_brand.markup">isom</property>
  <property name="kdenlive:original.meta.attr.minor_version.markup">512</property>
  <property name="kdenlive:original.meta.attr.compatible_brands.markup">isomiso2avc1mp41</property>
  <property name="kdenlive:original.meta.attr.encoder.markup">Lavf58.76.100</property>
  <property name="kdenlive:original.meta.attr.comment.markup">Rendered with Manim Community v0.12.0</property>
  <property name="kdenlive:original.seekable">1</property>
  <property name="kdenlive:original.width">3840</property>
  <property name="kdenlive:original.height">2160</property>
  <property name="kdenlive:original.meta.media.sample_aspect_num">1</property>
  <property name="kdenlive:original.meta.media.sample_aspect_den">1</property>
  <property name="kdenlive:original.aspect_ratio">1</property>
  <property name="kdenlive:original.audio_index">-1</property>
  <property name="kdenlive:original.video_index">0</property>
  <property name="kdenlive:original.mute_on_pause">0</property>
  <property name="kdenlive:original.mlt_service">avformat-novalidate</property>
  <property name="kdenlive:original.kdenlive:folderid">314</property>
  <property name="kdenlive:original.meta.media.frame_rate_num">60</property>
  <property name="kdenlive:original.meta.media.frame_rate_den">1</property>
  <property name="kdenlive:original.meta.media.colorspace">709</property>
  <property name="kdenlive:original.meta.media.color_trc">2</property>
  <property name="kdenlive:original.meta.media.has_b_frames">2</property>
  <property name="kdenlive:original.meta.media.width">3840</property>
  <property name="kdenlive:original.meta.media.height">2160</property>
  <property name="kdenlive:original.meta.media.color_range">mpeg</property>
  <property name="kdenlive:original.kdenlive:id">340</property>
  <property name="kdenlive:original.kdenlive:file_size">138470</property>
  <property name="kdenlive:original.kdenlive:file_hash">010510a8a5efa9397d3184476bed4d23</property>
  <property name="kdenlive:original.backup">1</property>
  <property name="kdenlive:file_hash">010510a8a5efa9397d3184476bed4d23</property>
  <property name="xml">was here</property>
  <property name="meta.media.nb_streams">1</property>
  <property name="meta.media.0.stream.type">video</property>
  <property name="meta.media.0.stream.frame_rate">60</property>
  <property name="meta.media.0.stream.sample_aspect_ratio">0</property>
  <property name="meta.media.0.codec.width">640</property>
  <property name="meta.media.0.codec.height">360</property>
  <property name="meta.media.0.codec.rotate">0</property>
  <property name="meta.media.0.codec.pix_fmt">yuv420p</property>
  <property name="meta.media.0.codec.sample_aspect_ratio">0</property>
  <property name="meta.media.0.codec.colorspace">601</property>
  <property name="meta.media.0.codec.name">h264</property>
  <property name="meta.media.0.codec.long_name">H.264 / AVC / MPEG-4 AVC / MPEG-4 part 10</property>
  <property name="meta.media.0.codec.bit_rate">3457947</property>
  <property name="meta.attr.0.stream.handler_name.markup">VideoHandler</property>
  <property name="meta.attr.0.stream.vendor_id.markup">FFMP</property>
  <property name="meta.attr.0.stream.encoder.markup">Lavc58.134.100 libx264</property>
  <property name="meta.attr.major_brand.markup">qt  </property>
  <property name="meta.attr.minor_version.markup">512</property>
  <property name="meta.attr.compatible_brands.markup">qt  </property>
  <property name="meta.attr.encoder.markup">Lavf58.76.100</property>
  <property name="meta.attr.comment.markup">Rendered with Manim Community v0.12.0</property>
  <property name="meta.media.sample_aspect_num">1</property>
  <property name="meta.media.sample_aspect_den">1</property>
  <property name="meta.media.frame_rate_num">60</property>
  <property name="meta.media.frame_rate_den">1</property>
  <property name="meta.media.colorspace">601</property>
  <property name="meta.media.color_trc">2</property>
  <property name="meta.media.has_b_frames">0</property>
  <property name="meta.media.width">640</property>
  <property name="meta.media.height">360</property>
  <property name="meta.media.color_range">mpeg</property>
  <property name="set.test_audio">1</property>
  <property name="set.test_image">0</property>
 </producer>
 <producer id="producer482" in="00:00:00.000" out="00:00:01.483">
  <property name="length">90</property>
  <property name="eof">pause</property>
  <property name="resource">/home/xiaoxiae/.cache/kdenlive/proxy/14d5cdd64931b008fbe1794ae0b0da36.mov</property>
  <property name="audio_index">-1</property>
  <property name="video_index">0</property>
  <property name="mute_on_pause">0</property>
  <property name="mlt_service">avformat-novalidate</property>
  <property name="seekable">1</property>
  <property name="aspect_ratio">1</property>
  <property name="kdenlive:clipname">33.mp4</property>
  <property name="kdenlive:folderid">314</property>
  <property name="kdenlive:id">340</property>
  <property name="kdenlive:file_size">116284</property>
  <property name="kdenlive:proxy">/home/xiaoxiae/.cache/kdenlive/proxy/14d5cdd64931b008fbe1794ae0b0da36.mov</property>
  <property name="kdenlive:originalurl">video/ProgrammingModel/vid/33.mp4</property>
  <property name="kdenlive:original.mlt_type">producer</property>
  <property name="kdenlive:original.in">0</property>
  <property name="kdenlive:original.out">89</property>
  <property name="kdenlive:original.length">90</property>
  <property name="kdenlive:original.eof">pause</property>
  <property name="kdenlive:original.resource">video/ProgrammingModel/vid/33.mp4</property>
  <property name="kdenlive:original.meta.media.nb_streams">1</property>
  <property name="kdenlive:original.meta.media.0.stream.type">video</property>
  <property name="kdenlive:original.meta.media.0.stream.frame_rate">60</property>
  <property name="kdenlive:original.meta.media.0.stream.sample_aspect_ratio">0</property>
  <property name="kdenlive:original.meta.media.0.codec.width">3840</property>
  <property name="kdenlive:original.meta.media.0.codec.height">2160</property>
  <property name="kdenlive:original.meta.media.0.codec.rotate">0</property>
  <property name="kdenlive:original.meta.media.0.codec.pix_fmt">yuv420p</property>
  <property name="kdenlive:original.meta.media.0.codec.sample_aspect_ratio">0</property>
  <property name="kdenlive:original.meta.media.0.codec.colorspace">709</property>
  <property name="kdenlive:original.meta.media.0.codec.name">h264</property>
  <property name="kdenlive:original.meta.media.0.codec.long_name">H.264 / AVC / MPEG-4 AVC / MPEG-4 part 10</property>
  <property name="kdenlive:original.meta.media.0.codec.bit_rate">609514</property>
  <property name="kdenlive:original.meta.attr.0.stream.handler_name.markup">VideoHandler</property>
  <property name="kdenlive:original.meta.attr.0.stream.vendor_id.markup">[0][0][0][0]</property>
  <property name="kdenlive:original.meta.attr.major_brand.markup">isom</property>
  <property name="kdenlive:original.meta.attr.minor_version.markup">512</property>
  <property name="kdenlive:original.meta.attr.compatible_brands.markup">isomiso2avc1mp41</property>
  <property name="kdenlive:original.meta.attr.encoder.markup">Lavf58.76.100</property>
  <property name="kdenlive:original.meta.attr.comment.markup">Rendered with Manim Community v0.12.0</property>
  <property name="kdenlive:original.seekable">1</property>
  <property name="kdenlive:original.width">3840</property>
  <property name="kdenlive:original.height">2160</property>
  <property name="kdenlive:original.meta.media.sample_aspect_num">1</property>
  <property name="kdenlive:original.meta.media.sample_aspect_den">1</property>
  <property name="kdenlive:original.aspect_ratio">1</property>
  <property name="kdenlive:original.audio_index">-1</property>
  <property name="kdenlive:original.video_index">0</property>
  <property name="kdenlive:original.mute_on_pause">0</property>
  <property name="kdenlive:original.mlt_service">avformat-novalidate</property>
  <property name="kdenlive:original.kdenlive:folderid">314</property>
  <property name="kdenlive:original.meta.media.frame_rate_num">60</property>
  <property name="kdenlive:original.meta.media.frame_rate_den">1</property>
  <property name="kdenlive:original.meta.media.colorspace">709</property>
  <property name="kdenlive:original.meta.media.color_trc">2</property>
  <property name="kdenlive:original.meta.media.has_b_frames">2</property>
  <property name="kdenlive:original.meta.media.width">3840</property>
  <property name="kdenlive:original.meta.media.height">2160</property>
  <property name="kdenlive:original.meta.media.color_range">mpeg</property>
  <property name="kdenlive:original.kdenlive:id">341</property>
  <property name="kdenlive:original.kdenlive:file_size">116284</property>
  <property name="kdenlive:original.kdenlive:file_hash">14d5cdd64931b008fbe1794ae0b0da36</property>
  <property name="kdenlive:original.backup">1</property>
  <property name="kdenlive:file_hash">14d5cdd64931b008fbe1794ae0b0da36</property>
  <property name="xml">was here</property>
  <property name="meta.media.nb_streams">1</property>
  <property name="meta.media.0.stream.type">video</property>
  <property name="meta.media.0.stream.frame_rate">60</property>
  <property name="meta.media.0.stream.sample_aspect_ratio">0</property>
  <property name="meta.media.0.codec.width">640</property>
  <property name="meta.media.0.codec.height">360</property>
  <property name="meta.media.0.codec.rotate">0</property>
  <property name="meta.media.0.codec.pix_fmt">yuv420p</property>
  <property name="meta.media.0.codec.sample_aspect_ratio">0</property>
  <property name="meta.media.0.codec.colorspace">601</property>
  <property name="meta.media.0.codec.name">h264</property>
  <property name="meta.media.0.codec.long_name">H.264 / AVC / MPEG-4 AVC / MPEG-4 part 10</property>
  <property name="meta.media.0.codec.bit_rate">3451797</property>
  <property name="meta.attr.0.stream.handler_name.markup">VideoHandler</property>
  <property name="meta.attr.0.stream.vendor_id.markup">FFMP</property>
  <property name="meta.attr.0.stream.encoder.markup">Lavc58.134.100 libx264</property>
  <property name="meta.attr.major_brand.markup">qt  </property>
  <property name="meta.attr.minor_version.markup">512</property>
  <property name="meta.attr.compatible_brands.markup">qt  </property>
  <property name="meta.attr.encoder.markup">Lavf58.76.100</property>
  <property name="meta.attr.comment.markup">Rendered with Manim Community v0.12.0</property>
  <property name="meta.media.sample_aspect_num">1</property>
  <property name="meta.media.sample_aspect_den">1</property>
  <property name="meta.media.frame_rate_num">60</property>
  <property name="meta.media.frame_rate_den">1</property>
  <property name="meta.media.colorspace">601</property>
  <property name="meta.media.color_trc">2</property>
  <property name="meta.media.has_b_frames">0</property>
  <property name="meta.media.width">640</property>
  <property name="meta.media.height">360</property>
  <property name="meta.media.color_range">mpeg</property>
  <property name="set.test_audio">1</property>
  <property name="set.test_image">0</property>
  <property name="meta.media.top_field_first">0</property>
  <property name="meta.media.progressive">1</property>
 </producer>
 <producer id="producer483" in="00:00:00.000" out="00:00:00.800">
  <property name="length">49</property>
  <property name="eof">pause</property>
  <property name="resource">/home/xiaoxiae/.cache/kdenlive/proxy/38c877f7cfba74b3f9523fb1dad45c42.mov</property>
  <property name="audio_index">-1</property>
  <property name="video_index">0</property>
  <property name="mute_on_pause">0</property>
  <property name="mlt_service">avformat-novalidate</property>
  <property name="seekable">1</property>
  <property name="aspect_ratio">1</property>
  <property name="kdenlive:clipname">34.mp4</property>
  <property name="kdenlive:folderid">314</property>
  <property name="kdenlive:id">341</property>
  <property name="kdenlive:file_size">144755</property>
  <property name="kdenlive:proxy">/home/xiaoxiae/.cache/kdenlive/proxy/38c877f7cfba74b3f9523fb1dad45c42.mov</property>
  <property name="kdenlive:originalurl">video/ProgrammingModel/vid/34.mp4</property>
  <property name="kdenlive:original.mlt_type">producer</property>
  <property name="kdenlive:original.in">0</property>
  <property name="kdenlive:original.out">48</property>
  <property name="kdenlive:original.length">49</property>
  <property name="kdenlive:original.eof">pause</property>
  <property name="kdenlive:original.resource">video/ProgrammingModel/vid/34.mp4</property>
  <property name="kdenlive:original.meta.media.nb_streams">1</property>
  <property name="kdenlive:original.meta.media.0.stream.type">video</property>
  <property name="kdenlive:original.meta.media.0.stream.frame_rate">60</property>
  <property name="kdenlive:original.meta.media.0.stream.sample_aspect_ratio">0</property>
  <property name="kdenlive:original.meta.media.0.codec.width">3840</property>
  <property name="kdenlive:original.meta.media.0.codec.height">2160</property>
  <property name="kdenlive:original.meta.media.0.codec.rotate">0</property>
  <property name="kdenlive:original.meta.media.0.codec.pix_fmt">yuv420p</property>
  <property name="kdenlive:original.meta.media.0.codec.sample_aspect_ratio">0</property>
  <property name="kdenlive:original.meta.media.0.codec.colorspace">709</property>
  <property name="kdenlive:original.meta.media.0.codec.name">h264</property>
  <property name="kdenlive:original.meta.media.0.codec.long_name">H.264 / AVC / MPEG-4 AVC / MPEG-4 part 10</property>
  <property name="kdenlive:original.meta.media.0.codec.bit_rate">1405038</property>
  <property name="kdenlive:original.meta.attr.0.stream.handler_name.markup">VideoHandler</property>
  <property name="kdenlive:original.meta.attr.0.stream.vendor_id.markup">[0][0][0][0]</property>
  <property name="kdenlive:original.meta.attr.major_brand.markup">isom</property>
  <property name="kdenlive:original.meta.attr.minor_version.markup">512</property>
  <property name="kdenlive:original.meta.attr.compatible_brands.markup">isomiso2avc1mp41</property>
  <property name="kdenlive:original.meta.attr.encoder.markup">Lavf58.76.100</property>
  <property name="kdenlive:original.meta.attr.comment.markup">Rendered with Manim Community v0.12.0</property>
  <property name="kdenlive:original.seekable">1</property>
  <property name="kdenlive:original.width">3840</property>
  <property name="kdenlive:original.height">2160</property>
  <property name="kdenlive:original.meta.media.sample_aspect_num">1</property>
  <property name="kdenlive:original.meta.media.sample_aspect_den">1</property>
  <property name="kdenlive:original.aspect_ratio">1</property>
  <property name="kdenlive:original.audio_index">-1</property>
  <property name="kdenlive:original.video_index">0</property>
  <property name="kdenlive:original.mute_on_pause">0</property>
  <property name="kdenlive:original.mlt_service">avformat-novalidate</property>
  <property name="kdenlive:original.kdenlive:folderid">314</property>
  <property name="kdenlive:original.meta.media.frame_rate_num">60</property>
  <property name="kdenlive:original.meta.media.frame_rate_den">1</property>
  <property name="kdenlive:original.meta.media.colorspace">709</property>
  <property name="kdenlive:original.meta.media.color_trc">2</property>
  <property name="kdenlive:original.meta.media.has_b_frames">2</property>
  <property name="kdenlive:original.meta.media.width">3840</property>
  <property name="kdenlive:original.meta.media.height">2160</property>
  <property name="kdenlive:original.meta.media.color_range">mpeg</property>
  <property name="kdenlive:original.kdenlive:id">342</property>
  <property name="kdenlive:original.kdenlive:file_size">144755</property>
  <property name="kdenlive:original.kdenlive:file_hash">38c877f7cfba74b3f9523fb1dad45c42</property>
  <property name="kdenlive:original.backup">1</property>
  <property name="kdenlive:file_hash">38c877f7cfba74b3f9523fb1dad45c42</property>
  <property name="xml">was here</property>
  <property name="meta.media.nb_streams">1</property>
  <property name="meta.media.0.stream.type">video</property>
  <property name="meta.media.0.stream.frame_rate">60</property>
  <property name="meta.media.0.stream.sample_aspect_ratio">0</property>
  <property name="meta.media.0.codec.width">640</property>
  <property name="meta.media.0.codec.height">360</property>
  <property name="meta.media.0.codec.rotate">0</property>
  <property name="meta.media.0.codec.pix_fmt">yuv420p</property>
  <property name="meta.media.0.codec.sample_aspect_ratio">0</property>
  <property name="meta.media.0.codec.colorspace">601</property>
  <property name="meta.media.0.codec.name">h264</property>
  <property name="meta.media.0.codec.long_name">H.264 / AVC / MPEG-4 AVC / MPEG-4 part 10</property>
  <property name="meta.media.0.codec.bit_rate">3601253</property>
  <property name="meta.attr.0.stream.handler_name.markup">VideoHandler</property>
  <property name="meta.attr.0.stream.vendor_id.markup">FFMP</property>
  <property name="meta.attr.0.stream.encoder.markup">Lavc58.134.100 libx264</property>
  <property name="meta.attr.major_brand.markup">qt  </property>
  <property name="meta.attr.minor_version.markup">512</property>
  <property name="meta.attr.compatible_brands.markup">qt  </property>
  <property name="meta.attr.encoder.markup">Lavf58.76.100</property>
  <property name="meta.attr.comment.markup">Rendered with Manim Community v0.12.0</property>
  <property name="meta.media.sample_aspect_num">1</property>
  <property name="meta.media.sample_aspect_den">1</property>
  <property name="meta.media.frame_rate_num">60</property>
  <property name="meta.media.frame_rate_den">1</property>
  <property name="meta.media.colorspace">601</property>
  <property name="meta.media.color_trc">2</property>
  <property name="meta.media.has_b_frames">0</property>
  <property name="meta.media.width">640</property>
  <property name="meta.media.height">360</property>
  <property name="meta.media.color_range">mpeg</property>
  <property name="set.test_audio">1</property>
  <property name="set.test_image">0</property>
 </producer>
 <producer id="producer484" in="00:00:00.000" out="00:00:01.483">
  <property name="length">90</property>
  <property name="eof">pause</property>
  <property name="resource">/home/xiaoxiae/.cache/kdenlive/proxy/64755ccc02dd1b0ccd395c7cad079ba5.mov</property>
  <property name="audio_index">-1</property>
  <property name="video_index">0</property>
  <property name="mute_on_pause">0</property>
  <property name="mlt_service">avformat-novalidate</property>
  <property name="seekable">1</property>
  <property name="aspect_ratio">1</property>
  <property name="kdenlive:clipname">35.mp4</property>
  <property name="kdenlive:folderid">314</property>
  <property name="kdenlive:id">342</property>
  <property name="kdenlive:file_size">119359</property>
  <property name="kdenlive:proxy">/home/xiaoxiae/.cache/kdenlive/proxy/64755ccc02dd1b0ccd395c7cad079ba5.mov</property>
  <property name="kdenlive:originalurl">video/ProgrammingModel/vid/35.mp4</property>
  <property name="kdenlive:original.mlt_type">producer</property>
  <property name="kdenlive:original.in">0</property>
  <property name="kdenlive:original.out">89</property>
  <property name="kdenlive:original.length">90</property>
  <property name="kdenlive:original.eof">pause</property>
  <property name="kdenlive:original.resource">video/ProgrammingModel/vid/35.mp4</property>
  <property name="kdenlive:original.meta.media.nb_streams">1</property>
  <property name="kdenlive:original.meta.media.0.stream.type">video</property>
  <property name="kdenlive:original.meta.media.0.stream.frame_rate">60</property>
  <property name="kdenlive:original.meta.media.0.stream.sample_aspect_ratio">0</property>
  <property name="kdenlive:original.meta.media.0.codec.width">3840</property>
  <property name="kdenlive:original.meta.media.0.codec.height">2160</property>
  <property name="kdenlive:original.meta.media.0.codec.rotate">0</property>
  <property name="kdenlive:original.meta.media.0.codec.pix_fmt">yuv420p</property>
  <property name="kdenlive:original.meta.media.0.codec.sample_aspect_ratio">0</property>
  <property name="kdenlive:original.meta.media.0.codec.colorspace">709</property>
  <property name="kdenlive:original.meta.media.0.codec.name">h264</property>
  <property name="kdenlive:original.meta.media.0.codec.long_name">H.264 / AVC / MPEG-4 AVC / MPEG-4 part 10</property>
  <property name="kdenlive:original.meta.media.0.codec.bit_rate">625914</property>
  <property name="kdenlive:original.meta.attr.0.stream.handler_name.markup">VideoHandler</property>
  <property name="kdenlive:original.meta.attr.0.stream.vendor_id.markup">[0][0][0][0]</property>
  <property name="kdenlive:original.meta.attr.major_brand.markup">isom</property>
  <property name="kdenlive:original.meta.attr.minor_version.markup">512</property>
  <property name="kdenlive:original.meta.attr.compatible_brands.markup">isomiso2avc1mp41</property>
  <property name="kdenlive:original.meta.attr.encoder.markup">Lavf58.76.100</property>
  <property name="kdenlive:original.meta.attr.comment.markup">Rendered with Manim Community v0.12.0</property>
  <property name="kdenlive:original.seekable">1</property>
  <property name="kdenlive:original.width">3840</property>
  <property name="kdenlive:original.height">2160</property>
  <property name="kdenlive:original.meta.media.sample_aspect_num">1</property>
  <property name="kdenlive:original.meta.media.sample_aspect_den">1</property>
  <property name="kdenlive:original.aspect_ratio">1</property>
  <property name="kdenlive:original.audio_index">-1</property>
  <property name="kdenlive:original.video_index">0</property>
  <property name="kdenlive:original.mute_on_pause">0</property>
  <property name="kdenlive:original.mlt_service">avformat-novalidate</property>
  <property name="kdenlive:original.kdenlive:folderid">314</property>
  <property name="kdenlive:original.meta.media.frame_rate_num">60</property>
  <property name="kdenlive:original.meta.media.frame_rate_den">1</property>
  <property name="kdenlive:original.meta.media.colorspace">709</property>
  <property name="kdenlive:original.meta.media.color_trc">2</property>
  <property name="kdenlive:original.meta.media.has_b_frames">2</property>
  <property name="kdenlive:original.meta.media.width">3840</property>
  <property name="kdenlive:original.meta.media.height">2160</property>
  <property name="kdenlive:original.meta.media.color_range">mpeg</property>
  <property name="kdenlive:original.kdenlive:id">343</property>
  <property name="kdenlive:original.kdenlive:file_size">119359</property>
  <property name="kdenlive:original.kdenlive:file_hash">64755ccc02dd1b0ccd395c7cad079ba5</property>
  <property name="kdenlive:original.backup">1</property>
  <property name="kdenlive:file_hash">64755ccc02dd1b0ccd395c7cad079ba5</property>
  <property name="xml">was here</property>
  <property name="meta.media.nb_streams">1</property>
  <property name="meta.media.0.stream.type">video</property>
  <property name="meta.media.0.stream.frame_rate">60</property>
  <property name="meta.media.0.stream.sample_aspect_ratio">0</property>
  <property name="meta.media.0.codec.width">640</property>
  <property name="meta.media.0.codec.height">360</property>
  <property name="meta.media.0.codec.rotate">0</property>
  <property name="meta.media.0.codec.pix_fmt">yuv420p</property>
  <property name="meta.media.0.codec.sample_aspect_ratio">0</property>
  <property name="meta.media.0.codec.colorspace">601</property>
  <property name="meta.media.0.codec.name">h264</property>
  <property name="meta.media.0.codec.long_name">H.264 / AVC / MPEG-4 AVC / MPEG-4 part 10</property>
  <property name="meta.media.0.codec.bit_rate">3579520</property>
  <property name="meta.attr.0.stream.handler_name.markup">VideoHandler</property>
  <property name="meta.attr.0.stream.vendor_id.markup">FFMP</property>
  <property name="meta.attr.0.stream.encoder.markup">Lavc58.134.100 libx264</property>
  <property name="meta.attr.major_brand.markup">qt  </property>
  <property name="meta.attr.minor_version.markup">512</property>
  <property name="meta.attr.compatible_brands.markup">qt  </property>
  <property name="meta.attr.encoder.markup">Lavf58.76.100</property>
  <property name="meta.attr.comment.markup">Rendered with Manim Community v0.12.0</property>
  <property name="meta.media.sample_aspect_num">1</property>
  <property name="meta.media.sample_aspect_den">1</property>
  <property name="meta.media.frame_rate_num">60</property>
  <property name="meta.media.frame_rate_den">1</property>
  <property name="meta.media.colorspace">601</property>
  <property name="meta.media.color_trc">2</property>
  <property name="meta.media.has_b_frames">0</property>
  <property name="meta.media.width">640</property>
  <property name="meta.media.height">360</property>
  <property name="meta.media.color_range">mpeg</property>
  <property name="set.test_audio">1</property>
  <property name="set.test_image">0</property>
 </producer>
 <producer id="producer485" in="00:00:00.000" out="00:00:00.733">
  <property name="length">45</property>
  <property name="eof">pause</property>
  <property name="resource">/home/xiaoxiae/.cache/kdenlive/proxy/f428b240f4a22a646f5d807801ff8e06.mov</property>
  <property name="audio_index">-1</property>
  <property name="video_index">0</property>
  <property name="mute_on_pause">0</property>
  <property name="mlt_service">avformat-novalidate</property>
  <property name="seekable">1</property>
  <property name="aspect_ratio">1</property>
  <property name="kdenlive:clipname">36.mp4</property>
  <property name="kdenlive:folderid">314</property>
  <property name="kdenlive:id">343</property>
  <property name="kdenlive:file_size">151018</property>
  <property name="kdenlive:proxy">/home/xiaoxiae/.cache/kdenlive/proxy/f428b240f4a22a646f5d807801ff8e06.mov</property>
  <property name="kdenlive:originalurl">video/ProgrammingModel/vid/36.mp4</property>
  <property name="kdenlive:original.mlt_type">producer</property>
  <property name="kdenlive:original.in">0</property>
  <property name="kdenlive:original.out">44</property>
  <property name="kdenlive:original.length">45</property>
  <property name="kdenlive:original.eof">pause</property>
  <property name="kdenlive:original.resource">video/ProgrammingModel/vid/36.mp4</property>
  <property name="kdenlive:original.meta.media.nb_streams">1</property>
  <property name="kdenlive:original.meta.media.0.stream.type">video</property>
  <property name="kdenlive:original.meta.media.0.stream.frame_rate">60</property>
  <property name="kdenlive:original.meta.media.0.stream.sample_aspect_ratio">0</property>
  <property name="kdenlive:original.meta.media.0.codec.width">3840</property>
  <property name="kdenlive:original.meta.media.0.codec.height">2160</property>
  <property name="kdenlive:original.meta.media.0.codec.rotate">0</property>
  <property name="kdenlive:original.meta.media.0.codec.pix_fmt">yuv420p</property>
  <property name="kdenlive:original.meta.media.0.codec.sample_aspect_ratio">0</property>
  <property name="kdenlive:original.meta.media.0.codec.colorspace">709</property>
  <property name="kdenlive:original.meta.media.0.codec.name">h264</property>
  <property name="kdenlive:original.meta.media.0.codec.long_name">H.264 / AVC / MPEG-4 AVC / MPEG-4 part 10</property>
  <property name="kdenlive:original.meta.media.0.codec.bit_rate">1596821</property>
  <property name="kdenlive:original.meta.attr.0.stream.handler_name.markup">VideoHandler</property>
  <property name="kdenlive:original.meta.attr.0.stream.vendor_id.markup">[0][0][0][0]</property>
  <property name="kdenlive:original.meta.attr.major_brand.markup">isom</property>
  <property name="kdenlive:original.meta.attr.minor_version.markup">512</property>
  <property name="kdenlive:original.meta.attr.compatible_brands.markup">isomiso2avc1mp41</property>
  <property name="kdenlive:original.meta.attr.encoder.markup">Lavf58.76.100</property>
  <property name="kdenlive:original.meta.attr.comment.markup">Rendered with Manim Community v0.12.0</property>
  <property name="kdenlive:original.seekable">1</property>
  <property name="kdenlive:original.width">3840</property>
  <property name="kdenlive:original.height">2160</property>
  <property name="kdenlive:original.meta.media.sample_aspect_num">1</property>
  <property name="kdenlive:original.meta.media.sample_aspect_den">1</property>
  <property name="kdenlive:original.aspect_ratio">1</property>
  <property name="kdenlive:original.audio_index">-1</property>
  <property name="kdenlive:original.video_index">0</property>
  <property name="kdenlive:original.mute_on_pause">0</property>
  <property name="kdenlive:original.mlt_service">avformat-novalidate</property>
  <property name="kdenlive:original.kdenlive:folderid">314</property>
  <property name="kdenlive:original.meta.media.frame_rate_num">60</property>
  <property name="kdenlive:original.meta.media.frame_rate_den">1</property>
  <property name="kdenlive:original.meta.media.colorspace">709</property>
  <property name="kdenlive:original.meta.media.color_trc">2</property>
  <property name="kdenlive:original.meta.media.has_b_frames">2</property>
  <property name="kdenlive:original.meta.media.width">3840</property>
  <property name="kdenlive:original.meta.media.height">2160</property>
  <property name="kdenlive:original.meta.media.color_range">mpeg</property>
  <property name="kdenlive:original.kdenlive:id">344</property>
  <property name="kdenlive:original.kdenlive:file_size">151018</property>
  <property name="kdenlive:original.kdenlive:file_hash">f428b240f4a22a646f5d807801ff8e06</property>
  <property name="kdenlive:original.backup">1</property>
  <property name="kdenlive:file_hash">f428b240f4a22a646f5d807801ff8e06</property>
  <property name="xml">was here</property>
  <property name="meta.media.nb_streams">1</property>
  <property name="meta.media.0.stream.type">video</property>
  <property name="meta.media.0.stream.frame_rate">60</property>
  <property name="meta.media.0.stream.sample_aspect_ratio">0</property>
  <property name="meta.media.0.codec.width">640</property>
  <property name="meta.media.0.codec.height">360</property>
  <property name="meta.media.0.codec.rotate">0</property>
  <property name="meta.media.0.codec.pix_fmt">yuv420p</property>
  <property name="meta.media.0.codec.sample_aspect_ratio">0</property>
  <property name="meta.media.0.codec.colorspace">601</property>
  <property name="meta.media.0.codec.name">h264</property>
  <property name="meta.media.0.codec.long_name">H.264 / AVC / MPEG-4 AVC / MPEG-4 part 10</property>
  <property name="meta.media.0.codec.bit_rate">3695072</property>
  <property name="meta.attr.0.stream.handler_name.markup">VideoHandler</property>
  <property name="meta.attr.0.stream.vendor_id.markup">FFMP</property>
  <property name="meta.attr.0.stream.encoder.markup">Lavc58.134.100 libx264</property>
  <property name="meta.attr.major_brand.markup">qt  </property>
  <property name="meta.attr.minor_version.markup">512</property>
  <property name="meta.attr.compatible_brands.markup">qt  </property>
  <property name="meta.attr.encoder.markup">Lavf58.76.100</property>
  <property name="meta.attr.comment.markup">Rendered with Manim Community v0.12.0</property>
  <property name="meta.media.sample_aspect_num">1</property>
  <property name="meta.media.sample_aspect_den">1</property>
  <property name="meta.media.frame_rate_num">60</property>
  <property name="meta.media.frame_rate_den">1</property>
  <property name="meta.media.colorspace">601</property>
  <property name="meta.media.color_trc">2</property>
  <property name="meta.media.has_b_frames">0</property>
  <property name="meta.media.width">640</property>
  <property name="meta.media.height">360</property>
  <property name="meta.media.color_range">mpeg</property>
  <property name="set.test_audio">1</property>
  <property name="set.test_image">0</property>
 </producer>
 <producer id="producer486" in="00:00:00.000" out="00:00:01.483">
  <property name="length">90</property>
  <property name="eof">pause</property>
  <property name="resource">/home/xiaoxiae/.cache/kdenlive/proxy/2b0da38f86ddf35b8ac603c176d89877.mov</property>
  <property name="audio_index">-1</property>
  <property name="video_index">0</property>
  <property name="mute_on_pause">0</property>
  <property name="mlt_service">avformat-novalidate</property>
  <property name="seekable">1</property>
  <property name="aspect_ratio">1</property>
  <property name="kdenlive:clipname">37.mp4</property>
  <property name="kdenlive:folderid">314</property>
  <property name="kdenlive:id">344</property>
  <property name="kdenlive:file_size">123112</property>
  <property name="kdenlive:proxy">/home/xiaoxiae/.cache/kdenlive/proxy/2b0da38f86ddf35b8ac603c176d89877.mov</property>
  <property name="kdenlive:originalurl">video/ProgrammingModel/vid/37.mp4</property>
  <property name="kdenlive:original.mlt_type">producer</property>
  <property name="kdenlive:original.in">0</property>
  <property name="kdenlive:original.out">89</property>
  <property name="kdenlive:original.length">90</property>
  <property name="kdenlive:original.eof">pause</property>
  <property name="kdenlive:original.resource">video/ProgrammingModel/vid/37.mp4</property>
  <property name="kdenlive:original.meta.media.nb_streams">1</property>
  <property name="kdenlive:original.meta.media.0.stream.type">video</property>
  <property name="kdenlive:original.meta.media.0.stream.frame_rate">60</property>
  <property name="kdenlive:original.meta.media.0.stream.sample_aspect_ratio">0</property>
  <property name="kdenlive:original.meta.media.0.codec.width">3840</property>
  <property name="kdenlive:original.meta.media.0.codec.height">2160</property>
  <property name="kdenlive:original.meta.media.0.codec.rotate">0</property>
  <property name="kdenlive:original.meta.media.0.codec.pix_fmt">yuv420p</property>
  <property name="kdenlive:original.meta.media.0.codec.sample_aspect_ratio">0</property>
  <property name="kdenlive:original.meta.media.0.codec.colorspace">709</property>
  <property name="kdenlive:original.meta.media.0.codec.name">h264</property>
  <property name="kdenlive:original.meta.media.0.codec.long_name">H.264 / AVC / MPEG-4 AVC / MPEG-4 part 10</property>
  <property name="kdenlive:original.meta.media.0.codec.bit_rate">645930</property>
  <property name="kdenlive:original.meta.attr.0.stream.handler_name.markup">VideoHandler</property>
  <property name="kdenlive:original.meta.attr.0.stream.vendor_id.markup">[0][0][0][0]</property>
  <property name="kdenlive:original.meta.attr.major_brand.markup">isom</property>
  <property name="kdenlive:original.meta.attr.minor_version.markup">512</property>
  <property name="kdenlive:original.meta.attr.compatible_brands.markup">isomiso2avc1mp41</property>
  <property name="kdenlive:original.meta.attr.encoder.markup">Lavf58.76.100</property>
  <property name="kdenlive:original.meta.attr.comment.markup">Rendered with Manim Community v0.12.0</property>
  <property name="kdenlive:original.seekable">1</property>
  <property name="kdenlive:original.width">3840</property>
  <property name="kdenlive:original.height">2160</property>
  <property name="kdenlive:original.meta.media.sample_aspect_num">1</property>
  <property name="kdenlive:original.meta.media.sample_aspect_den">1</property>
  <property name="kdenlive:original.aspect_ratio">1</property>
  <property name="kdenlive:original.audio_index">-1</property>
  <property name="kdenlive:original.video_index">0</property>
  <property name="kdenlive:original.mute_on_pause">0</property>
  <property name="kdenlive:original.mlt_service">avformat-novalidate</property>
  <property name="kdenlive:original.kdenlive:folderid">314</property>
  <property name="kdenlive:original.meta.media.frame_rate_num">60</property>
  <property name="kdenlive:original.meta.media.frame_rate_den">1</property>
  <property name="kdenlive:original.meta.media.colorspace">709</property>
  <property name="kdenlive:original.meta.media.color_trc">2</property>
  <property name="kdenlive:original.meta.media.has_b_frames">2</property>
  <property name="kdenlive:original.meta.media.width">3840</property>
  <property name="kdenlive:original.meta.media.height">2160</property>
  <property name="kdenlive:original.meta.media.color_range">mpeg</property>
  <property name="kdenlive:original.kdenlive:id">345</property>
  <property name="kdenlive:original.kdenlive:file_size">123112</property>
  <property name="kdenlive:original.kdenlive:file_hash">2b0da38f86ddf35b8ac603c176d89877</property>
  <property name="kdenlive:original.backup">1</property>
  <property name="kdenlive:file_hash">2b0da38f86ddf35b8ac603c176d89877</property>
  <property name="xml">was here</property>
  <property name="meta.media.nb_streams">1</property>
  <property name="meta.media.0.stream.type">video</property>
  <property name="meta.media.0.stream.frame_rate">60</property>
  <property name="meta.media.0.stream.sample_aspect_ratio">0</property>
  <property name="meta.media.0.codec.width">640</property>
  <property name="meta.media.0.codec.height">360</property>
  <property name="meta.media.0.codec.rotate">0</property>
  <property name="meta.media.0.codec.pix_fmt">yuv420p</property>
  <property name="meta.media.0.codec.sample_aspect_ratio">0</property>
  <property name="meta.media.0.codec.colorspace">601</property>
  <property name="meta.media.0.codec.name">h264</property>
  <property name="meta.media.0.codec.long_name">H.264 / AVC / MPEG-4 AVC / MPEG-4 part 10</property>
  <property name="meta.media.0.codec.bit_rate">3672458</property>
  <property name="meta.attr.0.stream.handler_name.markup">VideoHandler</property>
  <property name="meta.attr.0.stream.vendor_id.markup">FFMP</property>
  <property name="meta.attr.0.stream.encoder.markup">Lavc58.134.100 libx264</property>
  <property name="meta.attr.major_brand.markup">qt  </property>
  <property name="meta.attr.minor_version.markup">512</property>
  <property name="meta.attr.compatible_brands.markup">qt  </property>
  <property name="meta.attr.encoder.markup">Lavf58.76.100</property>
  <property name="meta.attr.comment.markup">Rendered with Manim Community v0.12.0</property>
  <property name="meta.media.sample_aspect_num">1</property>
  <property name="meta.media.sample_aspect_den">1</property>
  <property name="meta.media.frame_rate_num">60</property>
  <property name="meta.media.frame_rate_den">1</property>
  <property name="meta.media.colorspace">601</property>
  <property name="meta.media.color_trc">2</property>
  <property name="meta.media.has_b_frames">0</property>
  <property name="meta.media.width">640</property>
  <property name="meta.media.height">360</property>
  <property name="meta.media.color_range">mpeg</property>
  <property name="set.test_audio">1</property>
  <property name="set.test_image">0</property>
 </producer>
 <producer id="producer487" in="00:00:00.000" out="00:00:00.683">
  <property name="length">42</property>
  <property name="eof">pause</property>
  <property name="resource">/home/xiaoxiae/.cache/kdenlive/proxy/6ffd46ef4b1c3ea239ca953aaad82afe.mov</property>
  <property name="audio_index">-1</property>
  <property name="video_index">0</property>
  <property name="mute_on_pause">0</property>
  <property name="mlt_service">avformat-novalidate</property>
  <property name="seekable">1</property>
  <property name="aspect_ratio">1</property>
  <property name="kdenlive:clipname">38.mp4</property>
  <property name="kdenlive:folderid">314</property>
  <property name="kdenlive:id">345</property>
  <property name="kdenlive:file_size">140960</property>
  <property name="kdenlive:proxy">/home/xiaoxiae/.cache/kdenlive/proxy/6ffd46ef4b1c3ea239ca953aaad82afe.mov</property>
  <property name="kdenlive:originalurl">video/ProgrammingModel/vid/38.mp4</property>
  <property name="kdenlive:original.mlt_type">producer</property>
  <property name="kdenlive:original.in">0</property>
  <property name="kdenlive:original.out">41</property>
  <property name="kdenlive:original.length">42</property>
  <property name="kdenlive:original.eof">pause</property>
  <property name="kdenlive:original.resource">video/ProgrammingModel/vid/38.mp4</property>
  <property name="kdenlive:original.meta.media.nb_streams">1</property>
  <property name="kdenlive:original.meta.media.0.stream.type">video</property>
  <property name="kdenlive:original.meta.media.0.stream.frame_rate">60</property>
  <property name="kdenlive:original.meta.media.0.stream.sample_aspect_ratio">0</property>
  <property name="kdenlive:original.meta.media.0.codec.width">3840</property>
  <property name="kdenlive:original.meta.media.0.codec.height">2160</property>
  <property name="kdenlive:original.meta.media.0.codec.rotate">0</property>
  <property name="kdenlive:original.meta.media.0.codec.pix_fmt">yuv420p</property>
  <property name="kdenlive:original.meta.media.0.codec.sample_aspect_ratio">0</property>
  <property name="kdenlive:original.meta.media.0.codec.colorspace">709</property>
  <property name="kdenlive:original.meta.media.0.codec.name">h264</property>
  <property name="kdenlive:original.meta.media.0.codec.long_name">H.264 / AVC / MPEG-4 AVC / MPEG-4 part 10</property>
  <property name="kdenlive:original.meta.media.0.codec.bit_rate">1595428</property>
  <property name="kdenlive:original.meta.attr.0.stream.handler_name.markup">VideoHandler</property>
  <property name="kdenlive:original.meta.attr.0.stream.vendor_id.markup">[0][0][0][0]</property>
  <property name="kdenlive:original.meta.attr.major_brand.markup">isom</property>
  <property name="kdenlive:original.meta.attr.minor_version.markup">512</property>
  <property name="kdenlive:original.meta.attr.compatible_brands.markup">isomiso2avc1mp41</property>
  <property name="kdenlive:original.meta.attr.encoder.markup">Lavf58.76.100</property>
  <property name="kdenlive:original.meta.attr.comment.markup">Rendered with Manim Community v0.12.0</property>
  <property name="kdenlive:original.seekable">1</property>
  <property name="kdenlive:original.width">3840</property>
  <property name="kdenlive:original.height">2160</property>
  <property name="kdenlive:original.meta.media.sample_aspect_num">1</property>
  <property name="kdenlive:original.meta.media.sample_aspect_den">1</property>
  <property name="kdenlive:original.aspect_ratio">1</property>
  <property name="kdenlive:original.audio_index">-1</property>
  <property name="kdenlive:original.video_index">0</property>
  <property name="kdenlive:original.mute_on_pause">0</property>
  <property name="kdenlive:original.mlt_service">avformat-novalidate</property>
  <property name="kdenlive:original.kdenlive:folderid">314</property>
  <property name="kdenlive:original.meta.media.frame_rate_num">60</property>
  <property name="kdenlive:original.meta.media.frame_rate_den">1</property>
  <property name="kdenlive:original.meta.media.colorspace">709</property>
  <property name="kdenlive:original.meta.media.color_trc">2</property>
  <property name="kdenlive:original.meta.media.has_b_frames">2</property>
  <property name="kdenlive:original.meta.media.width">3840</property>
  <property name="kdenlive:original.meta.media.height">2160</property>
  <property name="kdenlive:original.meta.media.color_range">mpeg</property>
  <property name="kdenlive:original.kdenlive:id">346</property>
  <property name="kdenlive:original.kdenlive:file_size">140960</property>
  <property name="kdenlive:original.kdenlive:file_hash">6ffd46ef4b1c3ea239ca953aaad82afe</property>
  <property name="kdenlive:original.backup">1</property>
  <property name="kdenlive:file_hash">6ffd46ef4b1c3ea239ca953aaad82afe</property>
  <property name="xml">was here</property>
  <property name="meta.media.nb_streams">1</property>
  <property name="meta.media.0.stream.type">video</property>
  <property name="meta.media.0.stream.frame_rate">60</property>
  <property name="meta.media.0.stream.sample_aspect_ratio">0</property>
  <property name="meta.media.0.codec.width">640</property>
  <property name="meta.media.0.codec.height">360</property>
  <property name="meta.media.0.codec.rotate">0</property>
  <property name="meta.media.0.codec.pix_fmt">yuv420p</property>
  <property name="meta.media.0.codec.sample_aspect_ratio">0</property>
  <property name="meta.media.0.codec.colorspace">601</property>
  <property name="meta.media.0.codec.name">h264</property>
  <property name="meta.media.0.codec.long_name">H.264 / AVC / MPEG-4 AVC / MPEG-4 part 10</property>
  <property name="meta.media.0.codec.bit_rate">3811234</property>
  <property name="meta.attr.0.stream.handler_name.markup">VideoHandler</property>
  <property name="meta.attr.0.stream.vendor_id.markup">FFMP</property>
  <property name="meta.attr.0.stream.encoder.markup">Lavc58.134.100 libx264</property>
  <property name="meta.attr.major_brand.markup">qt  </property>
  <property name="meta.attr.minor_version.markup">512</property>
  <property name="meta.attr.compatible_brands.markup">qt  </property>
  <property name="meta.attr.encoder.markup">Lavf58.76.100</property>
  <property name="meta.attr.comment.markup">Rendered with Manim Community v0.12.0</property>
  <property name="meta.media.sample_aspect_num">1</property>
  <property name="meta.media.sample_aspect_den">1</property>
  <property name="meta.media.frame_rate_num">60</property>
  <property name="meta.media.frame_rate_den">1</property>
  <property name="meta.media.colorspace">601</property>
  <property name="meta.media.color_trc">2</property>
  <property name="meta.media.has_b_frames">0</property>
  <property name="meta.media.width">640</property>
  <property name="meta.media.height">360</property>
  <property name="meta.media.color_range">mpeg</property>
  <property name="set.test_audio">1</property>
  <property name="set.test_image">0</property>
 </producer>
 <producer id="producer488" in="00:00:00.000" out="00:00:01.483">
  <property name="length">90</property>
  <property name="eof">pause</property>
  <property name="resource">/home/xiaoxiae/.cache/kdenlive/proxy/e15ebeacd8e004f9f3113b00fd8b120c.mov</property>
  <property name="audio_index">-1</property>
  <property name="video_index">0</property>
  <property name="mute_on_pause">0</property>
  <property name="mlt_service">avformat-novalidate</property>
  <property name="seekable">1</property>
  <property name="aspect_ratio">1</property>
  <property name="kdenlive:clipname">39.mp4</property>
  <property name="kdenlive:folderid">314</property>
  <property name="kdenlive:id">346</property>
  <property name="kdenlive:file_size">124311</property>
  <property name="kdenlive:proxy">/home/xiaoxiae/.cache/kdenlive/proxy/e15ebeacd8e004f9f3113b00fd8b120c.mov</property>
  <property name="kdenlive:originalurl">video/ProgrammingModel/vid/39.mp4</property>
  <property name="kdenlive:original.mlt_type">producer</property>
  <property name="kdenlive:original.in">0</property>
  <property name="kdenlive:original.out">89</property>
  <property name="kdenlive:original.length">90</property>
  <property name="kdenlive:original.eof">pause</property>
  <property name="kdenlive:original.resource">video/ProgrammingModel/vid/39.mp4</property>
  <property name="kdenlive:original.meta.media.nb_streams">1</property>
  <property name="kdenlive:original.meta.media.0.stream.type">video</property>
  <property name="kdenlive:original.meta.media.0.stream.frame_rate">60</property>
  <property name="kdenlive:original.meta.media.0.stream.sample_aspect_ratio">0</property>
  <property name="kdenlive:original.meta.media.0.codec.width">3840</property>
  <property name="kdenlive:original.meta.media.0.codec.height">2160</property>
  <property name="kdenlive:original.meta.media.0.codec.rotate">0</property>
  <property name="kdenlive:original.meta.media.0.codec.pix_fmt">yuv420p</property>
  <property name="kdenlive:original.meta.media.0.codec.sample_aspect_ratio">0</property>
  <property name="kdenlive:original.meta.media.0.codec.colorspace">709</property>
  <property name="kdenlive:original.meta.media.0.codec.name">h264</property>
  <property name="kdenlive:original.meta.media.0.codec.long_name">H.264 / AVC / MPEG-4 AVC / MPEG-4 part 10</property>
  <property name="kdenlive:original.meta.media.0.codec.bit_rate">652325</property>
  <property name="kdenlive:original.meta.attr.0.stream.handler_name.markup">VideoHandler</property>
  <property name="kdenlive:original.meta.attr.0.stream.vendor_id.markup">[0][0][0][0]</property>
  <property name="kdenlive:original.meta.attr.major_brand.markup">isom</property>
  <property name="kdenlive:original.meta.attr.minor_version.markup">512</property>
  <property name="kdenlive:original.meta.attr.compatible_brands.markup">isomiso2avc1mp41</property>
  <property name="kdenlive:original.meta.attr.encoder.markup">Lavf58.76.100</property>
  <property name="kdenlive:original.meta.attr.comment.markup">Rendered with Manim Community v0.12.0</property>
  <property name="kdenlive:original.seekable">1</property>
  <property name="kdenlive:original.width">3840</property>
  <property name="kdenlive:original.height">2160</property>
  <property name="kdenlive:original.meta.media.sample_aspect_num">1</property>
  <property name="kdenlive:original.meta.media.sample_aspect_den">1</property>
  <property name="kdenlive:original.aspect_ratio">1</property>
  <property name="kdenlive:original.audio_index">-1</property>
  <property name="kdenlive:original.video_index">0</property>
  <property name="kdenlive:original.mute_on_pause">0</property>
  <property name="kdenlive:original.mlt_service">avformat-novalidate</property>
  <property name="kdenlive:original.kdenlive:folderid">314</property>
  <property name="kdenlive:original.meta.media.frame_rate_num">60</property>
  <property name="kdenlive:original.meta.media.frame_rate_den">1</property>
  <property name="kdenlive:original.meta.media.colorspace">709</property>
  <property name="kdenlive:original.meta.media.color_trc">2</property>
  <property name="kdenlive:original.meta.media.has_b_frames">2</property>
  <property name="kdenlive:original.meta.media.width">3840</property>
  <property name="kdenlive:original.meta.media.height">2160</property>
  <property name="kdenlive:original.meta.media.color_range">mpeg</property>
  <property name="kdenlive:original.kdenlive:id">347</property>
  <property name="kdenlive:original.kdenlive:file_size">124311</property>
  <property name="kdenlive:original.kdenlive:file_hash">e15ebeacd8e004f9f3113b00fd8b120c</property>
  <property name="kdenlive:original.backup">1</property>
  <property name="kdenlive:file_hash">e15ebeacd8e004f9f3113b00fd8b120c</property>
  <property name="xml">was here</property>
  <property name="meta.media.nb_streams">1</property>
  <property name="meta.media.0.stream.type">video</property>
  <property name="meta.media.0.stream.frame_rate">60</property>
  <property name="meta.media.0.stream.sample_aspect_ratio">0</property>
  <property name="meta.media.0.codec.width">640</property>
  <property name="meta.media.0.codec.height">360</property>
  <property name="meta.media.0.codec.rotate">0</property>
  <property name="meta.media.0.codec.pix_fmt">yuv420p</property>
  <property name="meta.media.0.codec.sample_aspect_ratio">0</property>
  <property name="meta.media.0.codec.colorspace">601</property>
  <property name="meta.media.0.codec.name">h264</property>
  <property name="meta.media.0.codec.long_name">H.264 / AVC / MPEG-4 AVC / MPEG-4 part 10</property>
  <property name="meta.media.0.codec.bit_rate">3787402</property>
  <property name="meta.attr.0.stream.handler_name.markup">VideoHandler</property>
  <property name="meta.attr.0.stream.vendor_id.markup">FFMP</property>
  <property name="meta.attr.0.stream.encoder.markup">Lavc58.134.100 libx264</property>
  <property name="meta.attr.major_brand.markup">qt  </property>
  <property name="meta.attr.minor_version.markup">512</property>
  <property name="meta.attr.compatible_brands.markup">qt  </property>
  <property name="meta.attr.encoder.markup">Lavf58.76.100</property>
  <property name="meta.attr.comment.markup">Rendered with Manim Community v0.12.0</property>
  <property name="meta.media.sample_aspect_num">1</property>
  <property name="meta.media.sample_aspect_den">1</property>
  <property name="meta.media.frame_rate_num">60</property>
  <property name="meta.media.frame_rate_den">1</property>
  <property name="meta.media.colorspace">601</property>
  <property name="meta.media.color_trc">2</property>
  <property name="meta.media.has_b_frames">0</property>
  <property name="meta.media.width">640</property>
  <property name="meta.media.height">360</property>
  <property name="meta.media.color_range">mpeg</property>
  <property name="set.test_audio">1</property>
  <property name="set.test_image">0</property>
 </producer>
 <producer id="producer489" in="00:00:00.000" out="00:00:00.617">
  <property name="length">38</property>
  <property name="eof">pause</property>
  <property name="resource">/home/xiaoxiae/.cache/kdenlive/proxy/6f111973478d16eaa6866b3dc58bcbda.mov</property>
  <property name="audio_index">-1</property>
  <property name="video_index">0</property>
  <property name="mute_on_pause">0</property>
  <property name="mlt_service">avformat-novalidate</property>
  <property name="seekable">1</property>
  <property name="aspect_ratio">1</property>
  <property name="kdenlive:clipname">40.mp4</property>
  <property name="kdenlive:folderid">314</property>
  <property name="kdenlive:id">348</property>
  <property name="kdenlive:file_size">137056</property>
  <property name="kdenlive:proxy">/home/xiaoxiae/.cache/kdenlive/proxy/6f111973478d16eaa6866b3dc58bcbda.mov</property>
  <property name="kdenlive:originalurl">video/ProgrammingModel/vid/40.mp4</property>
  <property name="kdenlive:original.mlt_type">producer</property>
  <property name="kdenlive:original.in">0</property>
  <property name="kdenlive:original.out">37</property>
  <property name="kdenlive:original.length">38</property>
  <property name="kdenlive:original.eof">pause</property>
  <property name="kdenlive:original.resource">video/ProgrammingModel/vid/40.mp4</property>
  <property name="kdenlive:original.meta.media.nb_streams">1</property>
  <property name="kdenlive:original.meta.media.0.stream.type">video</property>
  <property name="kdenlive:original.meta.media.0.stream.frame_rate">60</property>
  <property name="kdenlive:original.meta.media.0.stream.sample_aspect_ratio">0</property>
  <property name="kdenlive:original.meta.media.0.codec.width">3840</property>
  <property name="kdenlive:original.meta.media.0.codec.height">2160</property>
  <property name="kdenlive:original.meta.media.0.codec.rotate">0</property>
  <property name="kdenlive:original.meta.media.0.codec.pix_fmt">yuv420p</property>
  <property name="kdenlive:original.meta.media.0.codec.sample_aspect_ratio">0</property>
  <property name="kdenlive:original.meta.media.0.codec.colorspace">709</property>
  <property name="kdenlive:original.meta.media.0.codec.name">h264</property>
  <property name="kdenlive:original.meta.media.0.codec.long_name">H.264 / AVC / MPEG-4 AVC / MPEG-4 part 10</property>
  <property name="kdenlive:original.meta.media.0.codec.bit_rate">1714762</property>
  <property name="kdenlive:original.meta.attr.0.stream.handler_name.markup">VideoHandler</property>
  <property name="kdenlive:original.meta.attr.0.stream.vendor_id.markup">[0][0][0][0]</property>
  <property name="kdenlive:original.meta.attr.major_brand.markup">isom</property>
  <property name="kdenlive:original.meta.attr.minor_version.markup">512</property>
  <property name="kdenlive:original.meta.attr.compatible_brands.markup">isomiso2avc1mp41</property>
  <property name="kdenlive:original.meta.attr.encoder.markup">Lavf58.76.100</property>
  <property name="kdenlive:original.meta.attr.comment.markup">Rendered with Manim Community v0.12.0</property>
  <property name="kdenlive:original.seekable">1</property>
  <property name="kdenlive:original.width">3840</property>
  <property name="kdenlive:original.height">2160</property>
  <property name="kdenlive:original.meta.media.sample_aspect_num">1</property>
  <property name="kdenlive:original.meta.media.sample_aspect_den">1</property>
  <property name="kdenlive:original.aspect_ratio">1</property>
  <property name="kdenlive:original.audio_index">-1</property>
  <property name="kdenlive:original.video_index">0</property>
  <property name="kdenlive:original.mute_on_pause">0</property>
  <property name="kdenlive:original.mlt_service">avformat-novalidate</property>
  <property name="kdenlive:original.kdenlive:folderid">314</property>
  <property name="kdenlive:original.meta.media.frame_rate_num">60</property>
  <property name="kdenlive:original.meta.media.frame_rate_den">1</property>
  <property name="kdenlive:original.meta.media.colorspace">709</property>
  <property name="kdenlive:original.meta.media.color_trc">2</property>
  <property name="kdenlive:original.meta.media.has_b_frames">2</property>
  <property name="kdenlive:original.meta.media.width">3840</property>
  <property name="kdenlive:original.meta.media.height">2160</property>
  <property name="kdenlive:original.meta.media.color_range">mpeg</property>
  <property name="kdenlive:original.kdenlive:id">349</property>
  <property name="kdenlive:original.kdenlive:file_size">137056</property>
  <property name="kdenlive:original.kdenlive:file_hash">6f111973478d16eaa6866b3dc58bcbda</property>
  <property name="kdenlive:original.backup">1</property>
  <property name="kdenlive:file_hash">6f111973478d16eaa6866b3dc58bcbda</property>
  <property name="xml">was here</property>
  <property name="meta.media.nb_streams">1</property>
  <property name="meta.media.0.stream.type">video</property>
  <property name="meta.media.0.stream.frame_rate">60</property>
  <property name="meta.media.0.stream.sample_aspect_ratio">0</property>
  <property name="meta.media.0.codec.width">640</property>
  <property name="meta.media.0.codec.height">360</property>
  <property name="meta.media.0.codec.rotate">0</property>
  <property name="meta.media.0.codec.pix_fmt">yuv420p</property>
  <property name="meta.media.0.codec.sample_aspect_ratio">0</property>
  <property name="meta.media.0.codec.colorspace">601</property>
  <property name="meta.media.0.codec.name">h264</property>
  <property name="meta.media.0.codec.long_name">H.264 / AVC / MPEG-4 AVC / MPEG-4 part 10</property>
  <property name="meta.media.0.codec.bit_rate">3942997</property>
  <property name="meta.attr.0.stream.handler_name.markup">VideoHandler</property>
  <property name="meta.attr.0.stream.vendor_id.markup">FFMP</property>
  <property name="meta.attr.0.stream.encoder.markup">Lavc58.134.100 libx264</property>
  <property name="meta.attr.major_brand.markup">qt  </property>
  <property name="meta.attr.minor_version.markup">512</property>
  <property name="meta.attr.compatible_brands.markup">qt  </property>
  <property name="meta.attr.encoder.markup">Lavf58.76.100</property>
  <property name="meta.attr.comment.markup">Rendered with Manim Community v0.12.0</property>
  <property name="meta.media.sample_aspect_num">1</property>
  <property name="meta.media.sample_aspect_den">1</property>
  <property name="meta.media.frame_rate_num">60</property>
  <property name="meta.media.frame_rate_den">1</property>
  <property name="meta.media.colorspace">601</property>
  <property name="meta.media.color_trc">2</property>
  <property name="meta.media.has_b_frames">0</property>
  <property name="meta.media.width">640</property>
  <property name="meta.media.height">360</property>
  <property name="meta.media.color_range">mpeg</property>
  <property name="set.test_audio">1</property>
  <property name="set.test_image">0</property>
 </producer>
 <producer id="producer490" in="00:00:00.000" out="00:00:01.483">
  <property name="length">90</property>
  <property name="eof">pause</property>
  <property name="resource">/home/xiaoxiae/.cache/kdenlive/proxy/e892ef4a753fd8a9b3deb9f541ceed06.mov</property>
  <property name="audio_index">-1</property>
  <property name="video_index">0</property>
  <property name="mute_on_pause">0</property>
  <property name="mlt_service">avformat-novalidate</property>
  <property name="seekable">1</property>
  <property name="aspect_ratio">1</property>
  <property name="kdenlive:clipname">41.mp4</property>
  <property name="kdenlive:folderid">314</property>
  <property name="kdenlive:id">349</property>
  <property name="kdenlive:file_size">133274</property>
  <property name="kdenlive:proxy">/home/xiaoxiae/.cache/kdenlive/proxy/e892ef4a753fd8a9b3deb9f541ceed06.mov</property>
  <property name="kdenlive:originalurl">video/ProgrammingModel/vid/41.mp4</property>
  <property name="kdenlive:original.mlt_type">producer</property>
  <property name="kdenlive:original.in">0</property>
  <property name="kdenlive:original.out">89</property>
  <property name="kdenlive:original.length">90</property>
  <property name="kdenlive:original.eof">pause</property>
  <property name="kdenlive:original.resource">video/ProgrammingModel/vid/41.mp4</property>
  <property name="kdenlive:original.meta.media.nb_streams">1</property>
  <property name="kdenlive:original.meta.media.0.stream.type">video</property>
  <property name="kdenlive:original.meta.media.0.stream.frame_rate">60</property>
  <property name="kdenlive:original.meta.media.0.stream.sample_aspect_ratio">0</property>
  <property name="kdenlive:original.meta.media.0.codec.width">3840</property>
  <property name="kdenlive:original.meta.media.0.codec.height">2160</property>
  <property name="kdenlive:original.meta.media.0.codec.rotate">0</property>
  <property name="kdenlive:original.meta.media.0.codec.pix_fmt">yuv420p</property>
  <property name="kdenlive:original.meta.media.0.codec.sample_aspect_ratio">0</property>
  <property name="kdenlive:original.meta.media.0.codec.colorspace">709</property>
  <property name="kdenlive:original.meta.media.0.codec.name">h264</property>
  <property name="kdenlive:original.meta.media.0.codec.long_name">H.264 / AVC / MPEG-4 AVC / MPEG-4 part 10</property>
  <property name="kdenlive:original.meta.media.0.codec.bit_rate">700128</property>
  <property name="kdenlive:original.meta.attr.0.stream.handler_name.markup">VideoHandler</property>
  <property name="kdenlive:original.meta.attr.0.stream.vendor_id.markup">[0][0][0][0]</property>
  <property name="kdenlive:original.meta.attr.major_brand.markup">isom</property>
  <property name="kdenlive:original.meta.attr.minor_version.markup">512</property>
  <property name="kdenlive:original.meta.attr.compatible_brands.markup">isomiso2avc1mp41</property>
  <property name="kdenlive:original.meta.attr.encoder.markup">Lavf58.76.100</property>
  <property name="kdenlive:original.meta.attr.comment.markup">Rendered with Manim Community v0.12.0</property>
  <property name="kdenlive:original.seekable">1</property>
  <property name="kdenlive:original.width">3840</property>
  <property name="kdenlive:original.height">2160</property>
  <property name="kdenlive:original.meta.media.sample_aspect_num">1</property>
  <property name="kdenlive:original.meta.media.sample_aspect_den">1</property>
  <property name="kdenlive:original.aspect_ratio">1</property>
  <property name="kdenlive:original.audio_index">-1</property>
  <property name="kdenlive:original.video_index">0</property>
  <property name="kdenlive:original.mute_on_pause">0</property>
  <property name="kdenlive:original.mlt_service">avformat-novalidate</property>
  <property name="kdenlive:original.kdenlive:folderid">314</property>
  <property name="kdenlive:original.meta.media.frame_rate_num">60</property>
  <property name="kdenlive:original.meta.media.frame_rate_den">1</property>
  <property name="kdenlive:original.meta.media.colorspace">709</property>
  <property name="kdenlive:original.meta.media.color_trc">2</property>
  <property name="kdenlive:original.meta.media.has_b_frames">2</property>
  <property name="kdenlive:original.meta.media.width">3840</property>
  <property name="kdenlive:original.meta.media.height">2160</property>
  <property name="kdenlive:original.meta.media.color_range">mpeg</property>
  <property name="kdenlive:original.kdenlive:id">350</property>
  <property name="kdenlive:original.kdenlive:file_size">133274</property>
  <property name="kdenlive:original.kdenlive:file_hash">e892ef4a753fd8a9b3deb9f541ceed06</property>
  <property name="kdenlive:original.backup">1</property>
  <property name="kdenlive:file_hash">e892ef4a753fd8a9b3deb9f541ceed06</property>
  <property name="xml">was here</property>
  <property name="meta.media.nb_streams">1</property>
  <property name="meta.media.0.stream.type">video</property>
  <property name="meta.media.0.stream.frame_rate">60</property>
  <property name="meta.media.0.stream.sample_aspect_ratio">0</property>
  <property name="meta.media.0.codec.width">640</property>
  <property name="meta.media.0.codec.height">360</property>
  <property name="meta.media.0.codec.rotate">0</property>
  <property name="meta.media.0.codec.pix_fmt">yuv420p</property>
  <property name="meta.media.0.codec.sample_aspect_ratio">0</property>
  <property name="meta.media.0.codec.colorspace">601</property>
  <property name="meta.media.0.codec.name">h264</property>
  <property name="meta.media.0.codec.long_name">H.264 / AVC / MPEG-4 AVC / MPEG-4 part 10</property>
  <property name="meta.media.0.codec.bit_rate">3920906</property>
  <property name="meta.attr.0.stream.handler_name.markup">VideoHandler</property>
  <property name="meta.attr.0.stream.vendor_id.markup">FFMP</property>
  <property name="meta.attr.0.stream.encoder.markup">Lavc58.134.100 libx264</property>
  <property name="meta.attr.major_brand.markup">qt  </property>
  <property name="meta.attr.minor_version.markup">512</property>
  <property name="meta.attr.compatible_brands.markup">qt  </property>
  <property name="meta.attr.encoder.markup">Lavf58.76.100</property>
  <property name="meta.attr.comment.markup">Rendered with Manim Community v0.12.0</property>
  <property name="meta.media.sample_aspect_num">1</property>
  <property name="meta.media.sample_aspect_den">1</property>
  <property name="meta.media.frame_rate_num">60</property>
  <property name="meta.media.frame_rate_den">1</property>
  <property name="meta.media.colorspace">601</property>
  <property name="meta.media.color_trc">2</property>
  <property name="meta.media.has_b_frames">0</property>
  <property name="meta.media.width">640</property>
  <property name="meta.media.height">360</property>
  <property name="meta.media.color_range">mpeg</property>
  <property name="set.test_audio">1</property>
  <property name="set.test_image">0</property>
  <property name="meta.media.top_field_first">0</property>
  <property name="meta.media.progressive">1</property>
 </producer>
 <producer id="producer491" in="00:00:00.000" out="00:00:00.550">
  <property name="length">34</property>
  <property name="eof">pause</property>
  <property name="resource">/home/xiaoxiae/.cache/kdenlive/proxy/3ff763eedaf4215f93ef65136188b0e6.mov</property>
  <property name="audio_index">-1</property>
  <property name="video_index">0</property>
  <property name="mute_on_pause">0</property>
  <property name="mlt_service">avformat-novalidate</property>
  <property name="seekable">1</property>
  <property name="aspect_ratio">1</property>
  <property name="kdenlive:clipname">42.mp4</property>
  <property name="kdenlive:folderid">314</property>
  <property name="kdenlive:id">350</property>
  <property name="kdenlive:file_size">137214</property>
  <property name="kdenlive:proxy">/home/xiaoxiae/.cache/kdenlive/proxy/3ff763eedaf4215f93ef65136188b0e6.mov</property>
  <property name="kdenlive:originalurl">video/ProgrammingModel/vid/42.mp4</property>
  <property name="kdenlive:original.mlt_type">producer</property>
  <property name="kdenlive:original.in">0</property>
  <property name="kdenlive:original.out">33</property>
  <property name="kdenlive:original.length">34</property>
  <property name="kdenlive:original.eof">pause</property>
  <property name="kdenlive:original.resource">video/ProgrammingModel/vid/42.mp4</property>
  <property name="kdenlive:original.meta.media.nb_streams">1</property>
  <property name="kdenlive:original.meta.media.0.stream.type">video</property>
  <property name="kdenlive:original.meta.media.0.stream.frame_rate">60</property>
  <property name="kdenlive:original.meta.media.0.stream.sample_aspect_ratio">0</property>
  <property name="kdenlive:original.meta.media.0.codec.width">3840</property>
  <property name="kdenlive:original.meta.media.0.codec.height">2160</property>
  <property name="kdenlive:original.meta.media.0.codec.rotate">0</property>
  <property name="kdenlive:original.meta.media.0.codec.pix_fmt">yuv420p</property>
  <property name="kdenlive:original.meta.media.0.codec.sample_aspect_ratio">0</property>
  <property name="kdenlive:original.meta.media.0.codec.colorspace">709</property>
  <property name="kdenlive:original.meta.media.0.codec.name">h264</property>
  <property name="kdenlive:original.meta.media.0.codec.long_name">H.264 / AVC / MPEG-4 AVC / MPEG-4 part 10</property>
  <property name="kdenlive:original.meta.media.0.codec.bit_rate">1919294</property>
  <property name="kdenlive:original.meta.attr.0.stream.handler_name.markup">VideoHandler</property>
  <property name="kdenlive:original.meta.attr.0.stream.vendor_id.markup">[0][0][0][0]</property>
  <property name="kdenlive:original.meta.attr.major_brand.markup">isom</property>
  <property name="kdenlive:original.meta.attr.minor_version.markup">512</property>
  <property name="kdenlive:original.meta.attr.compatible_brands.markup">isomiso2avc1mp41</property>
  <property name="kdenlive:original.meta.attr.encoder.markup">Lavf58.76.100</property>
  <property name="kdenlive:original.meta.attr.comment.markup">Rendered with Manim Community v0.12.0</property>
  <property name="kdenlive:original.seekable">1</property>
  <property name="kdenlive:original.width">3840</property>
  <property name="kdenlive:original.height">2160</property>
  <property name="kdenlive:original.meta.media.sample_aspect_num">1</property>
  <property name="kdenlive:original.meta.media.sample_aspect_den">1</property>
  <property name="kdenlive:original.aspect_ratio">1</property>
  <property name="kdenlive:original.audio_index">-1</property>
  <property name="kdenlive:original.video_index">0</property>
  <property name="kdenlive:original.mute_on_pause">0</property>
  <property name="kdenlive:original.mlt_service">avformat-novalidate</property>
  <property name="kdenlive:original.kdenlive:folderid">314</property>
  <property name="kdenlive:original.meta.media.frame_rate_num">60</property>
  <property name="kdenlive:original.meta.media.frame_rate_den">1</property>
  <property name="kdenlive:original.meta.media.colorspace">709</property>
  <property name="kdenlive:original.meta.media.color_trc">2</property>
  <property name="kdenlive:original.meta.media.has_b_frames">2</property>
  <property name="kdenlive:original.meta.media.width">3840</property>
  <property name="kdenlive:original.meta.media.height">2160</property>
  <property name="kdenlive:original.meta.media.color_range">mpeg</property>
  <property name="kdenlive:original.kdenlive:id">351</property>
  <property name="kdenlive:original.kdenlive:file_size">137214</property>
  <property name="kdenlive:original.kdenlive:file_hash">3ff763eedaf4215f93ef65136188b0e6</property>
  <property name="kdenlive:original.backup">1</property>
  <property name="kdenlive:file_hash">3ff763eedaf4215f93ef65136188b0e6</property>
  <property name="xml">was here</property>
  <property name="meta.media.nb_streams">1</property>
  <property name="meta.media.0.stream.type">video</property>
  <property name="meta.media.0.stream.frame_rate">60</property>
  <property name="meta.media.0.stream.sample_aspect_ratio">0</property>
  <property name="meta.media.0.codec.width">640</property>
  <property name="meta.media.0.codec.height">360</property>
  <property name="meta.media.0.codec.rotate">0</property>
  <property name="meta.media.0.codec.pix_fmt">yuv420p</property>
  <property name="meta.media.0.codec.sample_aspect_ratio">0</property>
  <property name="meta.media.0.codec.colorspace">601</property>
  <property name="meta.media.0.codec.name">h264</property>
  <property name="meta.media.0.codec.long_name">H.264 / AVC / MPEG-4 AVC / MPEG-4 part 10</property>
  <property name="meta.media.0.codec.bit_rate">4089769</property>
  <property name="meta.attr.0.stream.handler_name.markup">VideoHandler</property>
  <property name="meta.attr.0.stream.vendor_id.markup">FFMP</property>
  <property name="meta.attr.0.stream.encoder.markup">Lavc58.134.100 libx264</property>
  <property name="meta.attr.major_brand.markup">qt  </property>
  <property name="meta.attr.minor_version.markup">512</property>
  <property name="meta.attr.compatible_brands.markup">qt  </property>
  <property name="meta.attr.encoder.markup">Lavf58.76.100</property>
  <property name="meta.attr.comment.markup">Rendered with Manim Community v0.12.0</property>
  <property name="meta.media.sample_aspect_num">1</property>
  <property name="meta.media.sample_aspect_den">1</property>
  <property name="meta.media.frame_rate_num">60</property>
  <property name="meta.media.frame_rate_den">1</property>
  <property name="meta.media.colorspace">601</property>
  <property name="meta.media.color_trc">2</property>
  <property name="meta.media.has_b_frames">0</property>
  <property name="meta.media.width">640</property>
  <property name="meta.media.height">360</property>
  <property name="meta.media.color_range">mpeg</property>
  <property name="set.test_audio">1</property>
  <property name="set.test_image">0</property>
 </producer>
 <producer id="producer492" in="00:00:00.000" out="00:00:01.483">
  <property name="length">90</property>
  <property name="eof">pause</property>
  <property name="resource">/home/xiaoxiae/.cache/kdenlive/proxy/3506f136abc96b7117a8f76e0d0370f1.mov</property>
  <property name="audio_index">-1</property>
  <property name="video_index">0</property>
  <property name="mute_on_pause">0</property>
  <property name="mlt_service">avformat-novalidate</property>
  <property name="seekable">1</property>
  <property name="aspect_ratio">1</property>
  <property name="kdenlive:clipname">43.mp4</property>
  <property name="kdenlive:folderid">314</property>
  <property name="kdenlive:id">351</property>
  <property name="kdenlive:file_size">135481</property>
  <property name="kdenlive:proxy">/home/xiaoxiae/.cache/kdenlive/proxy/3506f136abc96b7117a8f76e0d0370f1.mov</property>
  <property name="kdenlive:originalurl">video/ProgrammingModel/vid/43.mp4</property>
  <property name="kdenlive:original.mlt_type">producer</property>
  <property name="kdenlive:original.in">0</property>
  <property name="kdenlive:original.out">89</property>
  <property name="kdenlive:original.length">90</property>
  <property name="kdenlive:original.eof">pause</property>
  <property name="kdenlive:original.resource">video/ProgrammingModel/vid/43.mp4</property>
  <property name="kdenlive:original.meta.media.nb_streams">1</property>
  <property name="kdenlive:original.meta.media.0.stream.type">video</property>
  <property name="kdenlive:original.meta.media.0.stream.frame_rate">60</property>
  <property name="kdenlive:original.meta.media.0.stream.sample_aspect_ratio">0</property>
  <property name="kdenlive:original.meta.media.0.codec.width">3840</property>
  <property name="kdenlive:original.meta.media.0.codec.height">2160</property>
  <property name="kdenlive:original.meta.media.0.codec.rotate">0</property>
  <property name="kdenlive:original.meta.media.0.codec.pix_fmt">yuv420p</property>
  <property name="kdenlive:original.meta.media.0.codec.sample_aspect_ratio">0</property>
  <property name="kdenlive:original.meta.media.0.codec.colorspace">709</property>
  <property name="kdenlive:original.meta.media.0.codec.name">h264</property>
  <property name="kdenlive:original.meta.media.0.codec.long_name">H.264 / AVC / MPEG-4 AVC / MPEG-4 part 10</property>
  <property name="kdenlive:original.meta.media.0.codec.bit_rate">711898</property>
  <property name="kdenlive:original.meta.attr.0.stream.handler_name.markup">VideoHandler</property>
  <property name="kdenlive:original.meta.attr.0.stream.vendor_id.markup">[0][0][0][0]</property>
  <property name="kdenlive:original.meta.attr.major_brand.markup">isom</property>
  <property name="kdenlive:original.meta.attr.minor_version.markup">512</property>
  <property name="kdenlive:original.meta.attr.compatible_brands.markup">isomiso2avc1mp41</property>
  <property name="kdenlive:original.meta.attr.encoder.markup">Lavf58.76.100</property>
  <property name="kdenlive:original.meta.attr.comment.markup">Rendered with Manim Community v0.12.0</property>
  <property name="kdenlive:original.seekable">1</property>
  <property name="kdenlive:original.width">3840</property>
  <property name="kdenlive:original.height">2160</property>
  <property name="kdenlive:original.meta.media.sample_aspect_num">1</property>
  <property name="kdenlive:original.meta.media.sample_aspect_den">1</property>
  <property name="kdenlive:original.aspect_ratio">1</property>
  <property name="kdenlive:original.audio_index">-1</property>
  <property name="kdenlive:original.video_index">0</property>
  <property name="kdenlive:original.mute_on_pause">0</property>
  <property name="kdenlive:original.mlt_service">avformat-novalidate</property>
  <property name="kdenlive:original.kdenlive:folderid">314</property>
  <property name="kdenlive:original.meta.media.frame_rate_num">60</property>
  <property name="kdenlive:original.meta.media.frame_rate_den">1</property>
  <property name="kdenlive:original.meta.media.colorspace">709</property>
  <property name="kdenlive:original.meta.media.color_trc">2</property>
  <property name="kdenlive:original.meta.media.has_b_frames">2</property>
  <property name="kdenlive:original.meta.media.width">3840</property>
  <property name="kdenlive:original.meta.media.height">2160</property>
  <property name="kdenlive:original.meta.media.color_range">mpeg</property>
  <property name="kdenlive:original.kdenlive:id">352</property>
  <property name="kdenlive:original.kdenlive:file_size">135481</property>
  <property name="kdenlive:original.kdenlive:file_hash">3506f136abc96b7117a8f76e0d0370f1</property>
  <property name="kdenlive:original.backup">1</property>
  <property name="kdenlive:file_hash">3506f136abc96b7117a8f76e0d0370f1</property>
  <property name="xml">was here</property>
  <property name="meta.media.nb_streams">1</property>
  <property name="meta.media.0.stream.type">video</property>
  <property name="meta.media.0.stream.frame_rate">60</property>
  <property name="meta.media.0.stream.sample_aspect_ratio">0</property>
  <property name="meta.media.0.codec.width">640</property>
  <property name="meta.media.0.codec.height">360</property>
  <property name="meta.media.0.codec.rotate">0</property>
  <property name="meta.media.0.codec.pix_fmt">yuv420p</property>
  <property name="meta.media.0.codec.sample_aspect_ratio">0</property>
  <property name="meta.media.0.codec.colorspace">601</property>
  <property name="meta.media.0.codec.name">h264</property>
  <property name="meta.media.0.codec.long_name">H.264 / AVC / MPEG-4 AVC / MPEG-4 part 10</property>
  <property name="meta.media.0.codec.bit_rate">4008741</property>
  <property name="meta.attr.0.stream.handler_name.markup">VideoHandler</property>
  <property name="meta.attr.0.stream.vendor_id.markup">FFMP</property>
  <property name="meta.attr.0.stream.encoder.markup">Lavc58.134.100 libx264</property>
  <property name="meta.attr.major_brand.markup">qt  </property>
  <property name="meta.attr.minor_version.markup">512</property>
  <property name="meta.attr.compatible_brands.markup">qt  </property>
  <property name="meta.attr.encoder.markup">Lavf58.76.100</property>
  <property name="meta.attr.comment.markup">Rendered with Manim Community v0.12.0</property>
  <property name="meta.media.sample_aspect_num">1</property>
  <property name="meta.media.sample_aspect_den">1</property>
  <property name="meta.media.frame_rate_num">60</property>
  <property name="meta.media.frame_rate_den">1</property>
  <property name="meta.media.colorspace">601</property>
  <property name="meta.media.color_trc">2</property>
  <property name="meta.media.has_b_frames">0</property>
  <property name="meta.media.width">640</property>
  <property name="meta.media.height">360</property>
  <property name="meta.media.color_range">mpeg</property>
  <property name="set.test_audio">1</property>
  <property name="set.test_image">0</property>
 </producer>
 <producer id="producer493" in="00:00:00.000" out="00:00:00.983">
  <property name="length">60</property>
  <property name="eof">pause</property>
  <property name="resource">/home/xiaoxiae/.cache/kdenlive/proxy/2668b489e3cd369cfbc3d287a83d2e2c.mov</property>
  <property name="audio_index">-1</property>
  <property name="video_index">0</property>
  <property name="mute_on_pause">0</property>
  <property name="mlt_service">avformat-novalidate</property>
  <property name="seekable">1</property>
  <property name="aspect_ratio">1</property>
  <property name="kdenlive:clipname">44.mp4</property>
  <property name="kdenlive:folderid">314</property>
  <property name="kdenlive:file_size">126220</property>
  <property name="kdenlive:id">352</property>
  <property name="kdenlive:proxy">/home/xiaoxiae/.cache/kdenlive/proxy/2668b489e3cd369cfbc3d287a83d2e2c.mov</property>
  <property name="kdenlive:originalurl">video/ProgrammingModel/vid/44.mp4</property>
  <property name="kdenlive:original.mlt_type">producer</property>
  <property name="kdenlive:original.in">0</property>
  <property name="kdenlive:original.out">59</property>
  <property name="kdenlive:original.length">60</property>
  <property name="kdenlive:original.eof">pause</property>
  <property name="kdenlive:original.resource">video/ProgrammingModel/vid/44.mp4</property>
  <property name="kdenlive:original.meta.media.nb_streams">1</property>
  <property name="kdenlive:original.meta.media.0.stream.type">video</property>
  <property name="kdenlive:original.meta.media.0.stream.frame_rate">60</property>
  <property name="kdenlive:original.meta.media.0.stream.sample_aspect_ratio">0</property>
  <property name="kdenlive:original.meta.media.0.codec.width">3840</property>
  <property name="kdenlive:original.meta.media.0.codec.height">2160</property>
  <property name="kdenlive:original.meta.media.0.codec.rotate">0</property>
  <property name="kdenlive:original.meta.media.0.codec.pix_fmt">yuv420p</property>
  <property name="kdenlive:original.meta.media.0.codec.sample_aspect_ratio">0</property>
  <property name="kdenlive:original.meta.media.0.codec.colorspace">709</property>
  <property name="kdenlive:original.meta.media.0.codec.name">h264</property>
  <property name="kdenlive:original.meta.media.0.codec.long_name">H.264 / AVC / MPEG-4 AVC / MPEG-4 part 10</property>
  <property name="kdenlive:original.meta.media.0.codec.bit_rate">996704</property>
  <property name="kdenlive:original.meta.attr.0.stream.handler_name.markup">VideoHandler</property>
  <property name="kdenlive:original.meta.attr.0.stream.vendor_id.markup">[0][0][0][0]</property>
  <property name="kdenlive:original.meta.attr.major_brand.markup">isom</property>
  <property name="kdenlive:original.meta.attr.minor_version.markup">512</property>
  <property name="kdenlive:original.meta.attr.compatible_brands.markup">isomiso2avc1mp41</property>
  <property name="kdenlive:original.meta.attr.encoder.markup">Lavf58.76.100</property>
  <property name="kdenlive:original.meta.attr.comment.markup">Rendered with Manim Community v0.12.0</property>
  <property name="kdenlive:original.seekable">1</property>
  <property name="kdenlive:original.width">3840</property>
  <property name="kdenlive:original.height">2160</property>
  <property name="kdenlive:original.meta.media.sample_aspect_num">1</property>
  <property name="kdenlive:original.meta.media.sample_aspect_den">1</property>
  <property name="kdenlive:original.aspect_ratio">1</property>
  <property name="kdenlive:original.audio_index">-1</property>
  <property name="kdenlive:original.video_index">0</property>
  <property name="kdenlive:original.mute_on_pause">0</property>
  <property name="kdenlive:original.mlt_service">avformat-novalidate</property>
  <property name="kdenlive:original.kdenlive:folderid">314</property>
  <property name="kdenlive:original.kdenlive:file_size">126220</property>
  <property name="kdenlive:original.meta.media.frame_rate_num">60</property>
  <property name="kdenlive:original.meta.media.frame_rate_den">1</property>
  <property name="kdenlive:original.meta.media.colorspace">709</property>
  <property name="kdenlive:original.meta.media.color_trc">2</property>
  <property name="kdenlive:original.meta.media.has_b_frames">2</property>
  <property name="kdenlive:original.meta.media.width">3840</property>
  <property name="kdenlive:original.meta.media.height">2160</property>
  <property name="kdenlive:original.meta.media.color_range">mpeg</property>
  <property name="kdenlive:original.kdenlive:id">353</property>
  <property name="kdenlive:original.kdenlive:file_hash">2668b489e3cd369cfbc3d287a83d2e2c</property>
  <property name="kdenlive:original.backup">1</property>
  <property name="kdenlive:file_hash">2668b489e3cd369cfbc3d287a83d2e2c</property>
  <property name="xml">was here</property>
  <property name="meta.media.nb_streams">1</property>
  <property name="meta.media.0.stream.type">video</property>
  <property name="meta.media.0.stream.frame_rate">60</property>
  <property name="meta.media.0.stream.sample_aspect_ratio">0</property>
  <property name="meta.media.0.codec.width">640</property>
  <property name="meta.media.0.codec.height">360</property>
  <property name="meta.media.0.codec.rotate">0</property>
  <property name="meta.media.0.codec.pix_fmt">yuv420p</property>
  <property name="meta.media.0.codec.sample_aspect_ratio">0</property>
  <property name="meta.media.0.codec.colorspace">601</property>
  <property name="meta.media.0.codec.name">h264</property>
  <property name="meta.media.0.codec.long_name">H.264 / AVC / MPEG-4 AVC / MPEG-4 part 10</property>
  <property name="meta.media.0.codec.bit_rate">4122912</property>
  <property name="meta.attr.0.stream.handler_name.markup">VideoHandler</property>
  <property name="meta.attr.0.stream.vendor_id.markup">FFMP</property>
  <property name="meta.attr.0.stream.encoder.markup">Lavc58.134.100 libx264</property>
  <property name="meta.attr.major_brand.markup">qt  </property>
  <property name="meta.attr.minor_version.markup">512</property>
  <property name="meta.attr.compatible_brands.markup">qt  </property>
  <property name="meta.attr.encoder.markup">Lavf58.76.100</property>
  <property name="meta.attr.comment.markup">Rendered with Manim Community v0.12.0</property>
  <property name="meta.media.sample_aspect_num">1</property>
  <property name="meta.media.sample_aspect_den">1</property>
  <property name="meta.media.frame_rate_num">60</property>
  <property name="meta.media.frame_rate_den">1</property>
  <property name="meta.media.colorspace">601</property>
  <property name="meta.media.color_trc">2</property>
  <property name="meta.media.has_b_frames">0</property>
  <property name="meta.media.width">640</property>
  <property name="meta.media.height">360</property>
  <property name="meta.media.color_range">mpeg</property>
  <property name="set.test_audio">1</property>
  <property name="set.test_image">0</property>
 </producer>
 <producer id="producer494" in="00:00:00.000" out="00:00:02.083">
  <property name="length">126</property>
  <property name="eof">pause</property>
  <property name="resource">/home/xiaoxiae/.cache/kdenlive/proxy/c7073013ff19fb3e82ae32d2791a5aec.mov</property>
  <property name="audio_index">-1</property>
  <property name="video_index">0</property>
  <property name="mute_on_pause">0</property>
  <property name="mlt_service">avformat-novalidate</property>
  <property name="seekable">1</property>
  <property name="aspect_ratio">1</property>
  <property name="kdenlive:clipname">45.mp4</property>
  <property name="kdenlive:folderid">314</property>
  <property name="kdenlive:id">353</property>
  <property name="kdenlive:file_size">160207</property>
  <property name="kdenlive:proxy">/home/xiaoxiae/.cache/kdenlive/proxy/c7073013ff19fb3e82ae32d2791a5aec.mov</property>
  <property name="kdenlive:originalurl">video/ProgrammingModel/vid/45.mp4</property>
  <property name="kdenlive:original.mlt_type">producer</property>
  <property name="kdenlive:original.in">0</property>
  <property name="kdenlive:original.out">125</property>
  <property name="kdenlive:original.length">126</property>
  <property name="kdenlive:original.eof">pause</property>
  <property name="kdenlive:original.resource">video/ProgrammingModel/vid/45.mp4</property>
  <property name="kdenlive:original.meta.media.nb_streams">1</property>
  <property name="kdenlive:original.meta.media.0.stream.type">video</property>
  <property name="kdenlive:original.meta.media.0.stream.frame_rate">60</property>
  <property name="kdenlive:original.meta.media.0.stream.sample_aspect_ratio">0</property>
  <property name="kdenlive:original.meta.media.0.codec.width">3840</property>
  <property name="kdenlive:original.meta.media.0.codec.height">2160</property>
  <property name="kdenlive:original.meta.media.0.codec.rotate">0</property>
  <property name="kdenlive:original.meta.media.0.codec.pix_fmt">yuv420p</property>
  <property name="kdenlive:original.meta.media.0.codec.sample_aspect_ratio">0</property>
  <property name="kdenlive:original.meta.media.0.codec.colorspace">709</property>
  <property name="kdenlive:original.meta.media.0.codec.name">h264</property>
  <property name="kdenlive:original.meta.media.0.codec.long_name">H.264 / AVC / MPEG-4 AVC / MPEG-4 part 10</property>
  <property name="kdenlive:original.meta.media.0.codec.bit_rate">601047</property>
  <property name="kdenlive:original.meta.attr.0.stream.handler_name.markup">VideoHandler</property>
  <property name="kdenlive:original.meta.attr.0.stream.vendor_id.markup">[0][0][0][0]</property>
  <property name="kdenlive:original.meta.attr.major_brand.markup">isom</property>
  <property name="kdenlive:original.meta.attr.minor_version.markup">512</property>
  <property name="kdenlive:original.meta.attr.compatible_brands.markup">isomiso2avc1mp41</property>
  <property name="kdenlive:original.meta.attr.encoder.markup">Lavf58.76.100</property>
  <property name="kdenlive:original.meta.attr.comment.markup">Rendered with Manim Community v0.12.0</property>
  <property name="kdenlive:original.seekable">1</property>
  <property name="kdenlive:original.width">3840</property>
  <property name="kdenlive:original.height">2160</property>
  <property name="kdenlive:original.meta.media.sample_aspect_num">1</property>
  <property name="kdenlive:original.meta.media.sample_aspect_den">1</property>
  <property name="kdenlive:original.aspect_ratio">1</property>
  <property name="kdenlive:original.audio_index">-1</property>
  <property name="kdenlive:original.video_index">0</property>
  <property name="kdenlive:original.mute_on_pause">0</property>
  <property name="kdenlive:original.mlt_service">avformat-novalidate</property>
  <property name="kdenlive:original.kdenlive:folderid">314</property>
  <property name="kdenlive:original.meta.media.frame_rate_num">60</property>
  <property name="kdenlive:original.meta.media.frame_rate_den">1</property>
  <property name="kdenlive:original.meta.media.colorspace">709</property>
  <property name="kdenlive:original.meta.media.color_trc">2</property>
  <property name="kdenlive:original.meta.media.has_b_frames">2</property>
  <property name="kdenlive:original.meta.media.width">3840</property>
  <property name="kdenlive:original.meta.media.height">2160</property>
  <property name="kdenlive:original.meta.media.color_range">mpeg</property>
  <property name="kdenlive:original.kdenlive:id">354</property>
  <property name="kdenlive:original.kdenlive:file_size">160207</property>
  <property name="kdenlive:original.kdenlive:file_hash">c7073013ff19fb3e82ae32d2791a5aec</property>
  <property name="kdenlive:original.backup">1</property>
  <property name="kdenlive:file_hash">c7073013ff19fb3e82ae32d2791a5aec</property>
  <property name="xml">was here</property>
  <property name="meta.media.nb_streams">1</property>
  <property name="meta.media.0.stream.type">video</property>
  <property name="meta.media.0.stream.frame_rate">60</property>
  <property name="meta.media.0.stream.sample_aspect_ratio">0</property>
  <property name="meta.media.0.codec.width">640</property>
  <property name="meta.media.0.codec.height">360</property>
  <property name="meta.media.0.codec.rotate">0</property>
  <property name="meta.media.0.codec.pix_fmt">yuv420p</property>
  <property name="meta.media.0.codec.sample_aspect_ratio">0</property>
  <property name="meta.media.0.codec.colorspace">601</property>
  <property name="meta.media.0.codec.name">h264</property>
  <property name="meta.media.0.codec.long_name">H.264 / AVC / MPEG-4 AVC / MPEG-4 part 10</property>
  <property name="meta.media.0.codec.bit_rate">3996689</property>
  <property name="meta.attr.0.stream.handler_name.markup">VideoHandler</property>
  <property name="meta.attr.0.stream.vendor_id.markup">FFMP</property>
  <property name="meta.attr.0.stream.encoder.markup">Lavc58.134.100 libx264</property>
  <property name="meta.attr.major_brand.markup">qt  </property>
  <property name="meta.attr.minor_version.markup">512</property>
  <property name="meta.attr.compatible_brands.markup">qt  </property>
  <property name="meta.attr.encoder.markup">Lavf58.76.100</property>
  <property name="meta.attr.comment.markup">Rendered with Manim Community v0.12.0</property>
  <property name="meta.media.sample_aspect_num">1</property>
  <property name="meta.media.sample_aspect_den">1</property>
  <property name="meta.media.frame_rate_num">60</property>
  <property name="meta.media.frame_rate_den">1</property>
  <property name="meta.media.colorspace">601</property>
  <property name="meta.media.color_trc">2</property>
  <property name="meta.media.has_b_frames">0</property>
  <property name="meta.media.width">640</property>
  <property name="meta.media.height">360</property>
  <property name="meta.media.color_range">mpeg</property>
  <property name="set.test_audio">1</property>
  <property name="set.test_image">0</property>
  <property name="meta.media.top_field_first">0</property>
  <property name="meta.media.progressive">1</property>
 </producer>
 <producer id="producer495" in="00:00:00.000" out="00:00:00.983">
  <property name="length">60</property>
  <property name="eof">pause</property>
  <property name="resource">/home/xiaoxiae/.cache/kdenlive/proxy/72d7ef85eebd7b7fb713124b5dbab8b5.mov</property>
  <property name="audio_index">-1</property>
  <property name="video_index">0</property>
  <property name="mute_on_pause">0</property>
  <property name="mlt_service">avformat-novalidate</property>
  <property name="seekable">1</property>
  <property name="aspect_ratio">1</property>
  <property name="kdenlive:clipname">46.mp4</property>
  <property name="kdenlive:folderid">314</property>
  <property name="kdenlive:id">354</property>
  <property name="kdenlive:file_size">402331</property>
  <property name="kdenlive:proxy">/home/xiaoxiae/.cache/kdenlive/proxy/72d7ef85eebd7b7fb713124b5dbab8b5.mov</property>
  <property name="kdenlive:originalurl">video/ProgrammingModel/vid/46.mp4</property>
  <property name="kdenlive:original.mlt_type">producer</property>
  <property name="kdenlive:original.in">0</property>
  <property name="kdenlive:original.out">59</property>
  <property name="kdenlive:original.length">60</property>
  <property name="kdenlive:original.eof">pause</property>
  <property name="kdenlive:original.resource">video/ProgrammingModel/vid/46.mp4</property>
  <property name="kdenlive:original.meta.media.nb_streams">1</property>
  <property name="kdenlive:original.meta.media.0.stream.type">video</property>
  <property name="kdenlive:original.meta.media.0.stream.frame_rate">60</property>
  <property name="kdenlive:original.meta.media.0.stream.sample_aspect_ratio">0</property>
  <property name="kdenlive:original.meta.media.0.codec.width">3840</property>
  <property name="kdenlive:original.meta.media.0.codec.height">2160</property>
  <property name="kdenlive:original.meta.media.0.codec.rotate">0</property>
  <property name="kdenlive:original.meta.media.0.codec.pix_fmt">yuv420p</property>
  <property name="kdenlive:original.meta.media.0.codec.sample_aspect_ratio">0</property>
  <property name="kdenlive:original.meta.media.0.codec.colorspace">709</property>
  <property name="kdenlive:original.meta.media.0.codec.name">h264</property>
  <property name="kdenlive:original.meta.media.0.codec.long_name">H.264 / AVC / MPEG-4 AVC / MPEG-4 part 10</property>
  <property name="kdenlive:original.meta.media.0.codec.bit_rate">3205784</property>
  <property name="kdenlive:original.meta.attr.0.stream.handler_name.markup">VideoHandler</property>
  <property name="kdenlive:original.meta.attr.0.stream.vendor_id.markup">[0][0][0][0]</property>
  <property name="kdenlive:original.meta.attr.major_brand.markup">isom</property>
  <property name="kdenlive:original.meta.attr.minor_version.markup">512</property>
  <property name="kdenlive:original.meta.attr.compatible_brands.markup">isomiso2avc1mp41</property>
  <property name="kdenlive:original.meta.attr.encoder.markup">Lavf58.76.100</property>
  <property name="kdenlive:original.meta.attr.comment.markup">Rendered with Manim Community v0.12.0</property>
  <property name="kdenlive:original.seekable">1</property>
  <property name="kdenlive:original.width">3840</property>
  <property name="kdenlive:original.height">2160</property>
  <property name="kdenlive:original.meta.media.sample_aspect_num">1</property>
  <property name="kdenlive:original.meta.media.sample_aspect_den">1</property>
  <property name="kdenlive:original.aspect_ratio">1</property>
  <property name="kdenlive:original.audio_index">-1</property>
  <property name="kdenlive:original.video_index">0</property>
  <property name="kdenlive:original.mute_on_pause">0</property>
  <property name="kdenlive:original.mlt_service">avformat-novalidate</property>
  <property name="kdenlive:original.kdenlive:folderid">314</property>
  <property name="kdenlive:original.meta.media.frame_rate_num">60</property>
  <property name="kdenlive:original.meta.media.frame_rate_den">1</property>
  <property name="kdenlive:original.meta.media.colorspace">709</property>
  <property name="kdenlive:original.meta.media.color_trc">2</property>
  <property name="kdenlive:original.meta.media.has_b_frames">2</property>
  <property name="kdenlive:original.meta.media.width">3840</property>
  <property name="kdenlive:original.meta.media.height">2160</property>
  <property name="kdenlive:original.meta.media.color_range">mpeg</property>
  <property name="kdenlive:original.kdenlive:id">355</property>
  <property name="kdenlive:original.kdenlive:file_size">402331</property>
  <property name="kdenlive:original.kdenlive:file_hash">72d7ef85eebd7b7fb713124b5dbab8b5</property>
  <property name="kdenlive:original.backup">1</property>
  <property name="kdenlive:file_hash">72d7ef85eebd7b7fb713124b5dbab8b5</property>
  <property name="xml">was here</property>
  <property name="meta.media.nb_streams">1</property>
  <property name="meta.media.0.stream.type">video</property>
  <property name="meta.media.0.stream.frame_rate">60</property>
  <property name="meta.media.0.stream.sample_aspect_ratio">0</property>
  <property name="meta.media.0.codec.width">640</property>
  <property name="meta.media.0.codec.height">360</property>
  <property name="meta.media.0.codec.rotate">0</property>
  <property name="meta.media.0.codec.pix_fmt">yuv420p</property>
  <property name="meta.media.0.codec.sample_aspect_ratio">0</property>
  <property name="meta.media.0.codec.colorspace">601</property>
  <property name="meta.media.0.codec.name">h264</property>
  <property name="meta.media.0.codec.long_name">H.264 / AVC / MPEG-4 AVC / MPEG-4 part 10</property>
  <property name="meta.media.0.codec.bit_rate">2922792</property>
  <property name="meta.attr.0.stream.handler_name.markup">VideoHandler</property>
  <property name="meta.attr.0.stream.vendor_id.markup">FFMP</property>
  <property name="meta.attr.0.stream.encoder.markup">Lavc58.134.100 libx264</property>
  <property name="meta.attr.major_brand.markup">qt  </property>
  <property name="meta.attr.minor_version.markup">512</property>
  <property name="meta.attr.compatible_brands.markup">qt  </property>
  <property name="meta.attr.encoder.markup">Lavf58.76.100</property>
  <property name="meta.attr.comment.markup">Rendered with Manim Community v0.12.0</property>
  <property name="meta.media.sample_aspect_num">1</property>
  <property name="meta.media.sample_aspect_den">1</property>
  <property name="meta.media.frame_rate_num">60</property>
  <property name="meta.media.frame_rate_den">1</property>
  <property name="meta.media.colorspace">601</property>
  <property name="meta.media.color_trc">2</property>
  <property name="meta.media.has_b_frames">0</property>
  <property name="meta.media.width">640</property>
  <property name="meta.media.height">360</property>
  <property name="meta.media.color_range">mpeg</property>
  <property name="set.test_audio">1</property>
  <property name="set.test_image">0</property>
  <property name="meta.media.top_field_first">0</property>
  <property name="meta.media.progressive">1</property>
 </producer>
 <producer id="producer496" in="00:00:00.000" out="00:00:00.983">
  <property name="length">60</property>
  <property name="eof">pause</property>
  <property name="resource">/home/xiaoxiae/.cache/kdenlive/proxy/187b5668adff6ae52df680840011c6ce.mov</property>
  <property name="audio_index">-1</property>
  <property name="video_index">0</property>
  <property name="mute_on_pause">0</property>
  <property name="mlt_service">avformat-novalidate</property>
  <property name="seekable">1</property>
  <property name="aspect_ratio">1</property>
  <property name="kdenlive:clipname">1.mp4</property>
  <property name="kdenlive:folderid">373</property>
  <property name="kdenlive:id">372</property>
  <property name="kdenlive:file_size">62021</property>
  <property name="kdenlive:proxy">/home/xiaoxiae/.cache/kdenlive/proxy/187b5668adff6ae52df680840011c6ce.mov</property>
  <property name="kdenlive:originalurl">video/TimeComplexity/vid/1.mp4</property>
  <property name="kdenlive:original.mlt_type">producer</property>
  <property name="kdenlive:original.in">0</property>
  <property name="kdenlive:original.out">59</property>
  <property name="kdenlive:original.length">60</property>
  <property name="kdenlive:original.eof">pause</property>
  <property name="kdenlive:original.resource">video/TimeComplexity/vid/1.mp4</property>
  <property name="kdenlive:original.meta.media.nb_streams">1</property>
  <property name="kdenlive:original.meta.media.0.stream.type">video</property>
  <property name="kdenlive:original.meta.media.0.stream.frame_rate">60</property>
  <property name="kdenlive:original.meta.media.0.stream.sample_aspect_ratio">0</property>
  <property name="kdenlive:original.meta.media.0.codec.width">3840</property>
  <property name="kdenlive:original.meta.media.0.codec.height">2160</property>
  <property name="kdenlive:original.meta.media.0.codec.rotate">0</property>
  <property name="kdenlive:original.meta.media.0.codec.pix_fmt">yuv420p</property>
  <property name="kdenlive:original.meta.media.0.codec.sample_aspect_ratio">0</property>
  <property name="kdenlive:original.meta.media.0.codec.colorspace">709</property>
  <property name="kdenlive:original.meta.media.0.codec.name">h264</property>
  <property name="kdenlive:original.meta.media.0.codec.long_name">H.264 / AVC / MPEG-4 AVC / MPEG-4 part 10</property>
  <property name="kdenlive:original.meta.media.0.codec.bit_rate">483112</property>
  <property name="kdenlive:original.meta.attr.0.stream.handler_name.markup">VideoHandler</property>
  <property name="kdenlive:original.meta.attr.0.stream.vendor_id.markup">[0][0][0][0]</property>
  <property name="kdenlive:original.meta.attr.major_brand.markup">isom</property>
  <property name="kdenlive:original.meta.attr.minor_version.markup">512</property>
  <property name="kdenlive:original.meta.attr.compatible_brands.markup">isomiso2avc1mp41</property>
  <property name="kdenlive:original.meta.attr.encoder.markup">Lavf58.76.100</property>
  <property name="kdenlive:original.meta.attr.comment.markup">Rendered with Manim Community v0.12.0</property>
  <property name="kdenlive:original.seekable">1</property>
  <property name="kdenlive:original.width">3840</property>
  <property name="kdenlive:original.height">2160</property>
  <property name="kdenlive:original.meta.media.sample_aspect_num">1</property>
  <property name="kdenlive:original.meta.media.sample_aspect_den">1</property>
  <property name="kdenlive:original.aspect_ratio">1</property>
  <property name="kdenlive:original.audio_index">-1</property>
  <property name="kdenlive:original.video_index">0</property>
  <property name="kdenlive:original.mute_on_pause">0</property>
  <property name="kdenlive:original.mlt_service">avformat-novalidate</property>
  <property name="kdenlive:original.kdenlive:folderid">373</property>
  <property name="kdenlive:original.meta.media.frame_rate_num">60</property>
  <property name="kdenlive:original.meta.media.frame_rate_den">1</property>
  <property name="kdenlive:original.meta.media.colorspace">709</property>
  <property name="kdenlive:original.meta.media.color_trc">2</property>
  <property name="kdenlive:original.meta.media.has_b_frames">2</property>
  <property name="kdenlive:original.meta.media.width">3840</property>
  <property name="kdenlive:original.meta.media.height">2160</property>
  <property name="kdenlive:original.meta.media.color_range">mpeg</property>
  <property name="kdenlive:original.kdenlive:id">374</property>
  <property name="kdenlive:original.kdenlive:file_size">62021</property>
  <property name="kdenlive:original.kdenlive:file_hash">187b5668adff6ae52df680840011c6ce</property>
  <property name="kdenlive:original.backup">1</property>
  <property name="kdenlive:file_hash">187b5668adff6ae52df680840011c6ce</property>
  <property name="xml">was here</property>
  <property name="meta.media.nb_streams">1</property>
  <property name="meta.media.0.stream.type">video</property>
  <property name="meta.media.0.stream.frame_rate">60</property>
  <property name="meta.media.0.stream.sample_aspect_ratio">0</property>
  <property name="meta.media.0.codec.width">640</property>
  <property name="meta.media.0.codec.height">360</property>
  <property name="meta.media.0.codec.rotate">0</property>
  <property name="meta.media.0.codec.pix_fmt">yuv420p</property>
  <property name="meta.media.0.codec.sample_aspect_ratio">0</property>
  <property name="meta.media.0.codec.colorspace">601</property>
  <property name="meta.media.0.codec.name">h264</property>
  <property name="meta.media.0.codec.long_name">H.264 / AVC / MPEG-4 AVC / MPEG-4 part 10</property>
  <property name="meta.media.0.codec.bit_rate">569464</property>
  <property name="meta.attr.0.stream.handler_name.markup">VideoHandler</property>
  <property name="meta.attr.0.stream.vendor_id.markup">FFMP</property>
  <property name="meta.attr.0.stream.encoder.markup">Lavc58.134.100 libx264</property>
  <property name="meta.attr.major_brand.markup">qt  </property>
  <property name="meta.attr.minor_version.markup">512</property>
  <property name="meta.attr.compatible_brands.markup">qt  </property>
  <property name="meta.attr.encoder.markup">Lavf58.76.100</property>
  <property name="meta.attr.comment.markup">Rendered with Manim Community v0.12.0</property>
  <property name="meta.media.sample_aspect_num">1</property>
  <property name="meta.media.sample_aspect_den">1</property>
  <property name="meta.media.frame_rate_num">60</property>
  <property name="meta.media.frame_rate_den">1</property>
  <property name="meta.media.colorspace">601</property>
  <property name="meta.media.color_trc">2</property>
  <property name="meta.media.has_b_frames">0</property>
  <property name="meta.media.width">640</property>
  <property name="meta.media.height">360</property>
  <property name="meta.media.color_range">mpeg</property>
  <property name="set.test_audio">1</property>
  <property name="set.test_image">0</property>
  <property name="meta.media.top_field_first">0</property>
  <property name="meta.media.progressive">1</property>
 </producer>
 <producer id="producer497" in="00:00:00.000" out="00:00:00.983">
  <property name="length">60</property>
  <property name="eof">pause</property>
  <property name="resource">/home/xiaoxiae/.cache/kdenlive/proxy/3eb165b4c0b51daa8a01f171a5d12d6a.mov</property>
  <property name="audio_index">-1</property>
  <property name="video_index">0</property>
  <property name="mute_on_pause">0</property>
  <property name="mlt_service">avformat-novalidate</property>
  <property name="seekable">1</property>
  <property name="aspect_ratio">1</property>
  <property name="kdenlive:clipname">2.mp4</property>
  <property name="kdenlive:folderid">373</property>
  <property name="kdenlive:id">374</property>
  <property name="kdenlive:file_size">192727</property>
  <property name="kdenlive:proxy">/home/xiaoxiae/.cache/kdenlive/proxy/3eb165b4c0b51daa8a01f171a5d12d6a.mov</property>
  <property name="kdenlive:originalurl">video/TimeComplexity/vid/2.mp4</property>
  <property name="kdenlive:original.mlt_type">producer</property>
  <property name="kdenlive:original.in">0</property>
  <property name="kdenlive:original.out">59</property>
  <property name="kdenlive:original.length">60</property>
  <property name="kdenlive:original.eof">pause</property>
  <property name="kdenlive:original.resource">video/TimeComplexity/vid/2.mp4</property>
  <property name="kdenlive:original.meta.media.nb_streams">1</property>
  <property name="kdenlive:original.meta.media.0.stream.type">video</property>
  <property name="kdenlive:original.meta.media.0.stream.frame_rate">60</property>
  <property name="kdenlive:original.meta.media.0.stream.sample_aspect_ratio">0</property>
  <property name="kdenlive:original.meta.media.0.codec.width">3840</property>
  <property name="kdenlive:original.meta.media.0.codec.height">2160</property>
  <property name="kdenlive:original.meta.media.0.codec.rotate">0</property>
  <property name="kdenlive:original.meta.media.0.codec.pix_fmt">yuv420p</property>
  <property name="kdenlive:original.meta.media.0.codec.sample_aspect_ratio">0</property>
  <property name="kdenlive:original.meta.media.0.codec.colorspace">709</property>
  <property name="kdenlive:original.meta.media.0.codec.name">h264</property>
  <property name="kdenlive:original.meta.media.0.codec.long_name">H.264 / AVC / MPEG-4 AVC / MPEG-4 part 10</property>
  <property name="kdenlive:original.meta.media.0.codec.bit_rate">1529336</property>
  <property name="kdenlive:original.meta.attr.0.stream.handler_name.markup">VideoHandler</property>
  <property name="kdenlive:original.meta.attr.0.stream.vendor_id.markup">[0][0][0][0]</property>
  <property name="kdenlive:original.meta.attr.major_brand.markup">isom</property>
  <property name="kdenlive:original.meta.attr.minor_version.markup">512</property>
  <property name="kdenlive:original.meta.attr.compatible_brands.markup">isomiso2avc1mp41</property>
  <property name="kdenlive:original.meta.attr.encoder.markup">Lavf58.76.100</property>
  <property name="kdenlive:original.meta.attr.comment.markup">Rendered with Manim Community v0.12.0</property>
  <property name="kdenlive:original.seekable">1</property>
  <property name="kdenlive:original.width">3840</property>
  <property name="kdenlive:original.height">2160</property>
  <property name="kdenlive:original.meta.media.sample_aspect_num">1</property>
  <property name="kdenlive:original.meta.media.sample_aspect_den">1</property>
  <property name="kdenlive:original.aspect_ratio">1</property>
  <property name="kdenlive:original.audio_index">-1</property>
  <property name="kdenlive:original.video_index">0</property>
  <property name="kdenlive:original.mute_on_pause">0</property>
  <property name="kdenlive:original.mlt_service">avformat-novalidate</property>
  <property name="kdenlive:original.kdenlive:folderid">373</property>
  <property name="kdenlive:original.meta.media.frame_rate_num">60</property>
  <property name="kdenlive:original.meta.media.frame_rate_den">1</property>
  <property name="kdenlive:original.meta.media.colorspace">709</property>
  <property name="kdenlive:original.meta.media.color_trc">2</property>
  <property name="kdenlive:original.meta.media.has_b_frames">2</property>
  <property name="kdenlive:original.meta.media.width">3840</property>
  <property name="kdenlive:original.meta.media.height">2160</property>
  <property name="kdenlive:original.meta.media.color_range">mpeg</property>
  <property name="kdenlive:original.kdenlive:id">375</property>
  <property name="kdenlive:original.kdenlive:file_size">192727</property>
  <property name="kdenlive:original.kdenlive:file_hash">3eb165b4c0b51daa8a01f171a5d12d6a</property>
  <property name="kdenlive:original.backup">1</property>
  <property name="kdenlive:file_hash">3eb165b4c0b51daa8a01f171a5d12d6a</property>
  <property name="xml">was here</property>
  <property name="meta.media.nb_streams">1</property>
  <property name="meta.media.0.stream.type">video</property>
  <property name="meta.media.0.stream.frame_rate">60</property>
  <property name="meta.media.0.stream.sample_aspect_ratio">0</property>
  <property name="meta.media.0.codec.width">640</property>
  <property name="meta.media.0.codec.height">360</property>
  <property name="meta.media.0.codec.rotate">0</property>
  <property name="meta.media.0.codec.pix_fmt">yuv420p</property>
  <property name="meta.media.0.codec.sample_aspect_ratio">0</property>
  <property name="meta.media.0.codec.colorspace">601</property>
  <property name="meta.media.0.codec.name">h264</property>
  <property name="meta.media.0.codec.long_name">H.264 / AVC / MPEG-4 AVC / MPEG-4 part 10</property>
  <property name="meta.media.0.codec.bit_rate">1193880</property>
  <property name="meta.attr.0.stream.handler_name.markup">VideoHandler</property>
  <property name="meta.attr.0.stream.vendor_id.markup">FFMP</property>
  <property name="meta.attr.0.stream.encoder.markup">Lavc58.134.100 libx264</property>
  <property name="meta.attr.major_brand.markup">qt  </property>
  <property name="meta.attr.minor_version.markup">512</property>
  <property name="meta.attr.compatible_brands.markup">qt  </property>
  <property name="meta.attr.encoder.markup">Lavf58.76.100</property>
  <property name="meta.attr.comment.markup">Rendered with Manim Community v0.12.0</property>
  <property name="meta.media.sample_aspect_num">1</property>
  <property name="meta.media.sample_aspect_den">1</property>
  <property name="meta.media.frame_rate_num">60</property>
  <property name="meta.media.frame_rate_den">1</property>
  <property name="meta.media.colorspace">601</property>
  <property name="meta.media.color_trc">2</property>
  <property name="meta.media.has_b_frames">0</property>
  <property name="meta.media.width">640</property>
  <property name="meta.media.height">360</property>
  <property name="meta.media.color_range">mpeg</property>
  <property name="set.test_audio">1</property>
  <property name="set.test_image">0</property>
 </producer>
 <producer id="producer498" in="00:00:00.000" out="00:00:02.983">
  <property name="length">180</property>
  <property name="eof">pause</property>
  <property name="resource">/home/xiaoxiae/.cache/kdenlive/proxy/f7e3af0afb78d26e270566bfa594ea77.mov</property>
  <property name="audio_index">-1</property>
  <property name="video_index">0</property>
  <property name="mute_on_pause">0</property>
  <property name="mlt_service">avformat-novalidate</property>
  <property name="seekable">1</property>
  <property name="aspect_ratio">1</property>
  <property name="kdenlive:clipname">3.mp4</property>
  <property name="kdenlive:folderid">373</property>
  <property name="kdenlive:file_size">307671</property>
  <property name="kdenlive:id">375</property>
  <property name="kdenlive:proxy">/home/xiaoxiae/.cache/kdenlive/proxy/f7e3af0afb78d26e270566bfa594ea77.mov</property>
  <property name="kdenlive:originalurl">video/TimeComplexity/vid/3.mp4</property>
  <property name="kdenlive:original.mlt_type">producer</property>
  <property name="kdenlive:original.in">0</property>
  <property name="kdenlive:original.out">179</property>
  <property name="kdenlive:original.length">180</property>
  <property name="kdenlive:original.eof">pause</property>
  <property name="kdenlive:original.resource">video/TimeComplexity/vid/3.mp4</property>
  <property name="kdenlive:original.meta.media.nb_streams">1</property>
  <property name="kdenlive:original.meta.media.0.stream.type">video</property>
  <property name="kdenlive:original.meta.media.0.stream.frame_rate">60</property>
  <property name="kdenlive:original.meta.media.0.stream.sample_aspect_ratio">0</property>
  <property name="kdenlive:original.meta.media.0.codec.width">3840</property>
  <property name="kdenlive:original.meta.media.0.codec.height">2160</property>
  <property name="kdenlive:original.meta.media.0.codec.rotate">0</property>
  <property name="kdenlive:original.meta.media.0.codec.pix_fmt">yuv420p</property>
  <property name="kdenlive:original.meta.media.0.codec.sample_aspect_ratio">0</property>
  <property name="kdenlive:original.meta.media.0.codec.colorspace">709</property>
  <property name="kdenlive:original.meta.media.0.codec.name">h264</property>
  <property name="kdenlive:original.meta.media.0.codec.long_name">H.264 / AVC / MPEG-4 AVC / MPEG-4 part 10</property>
  <property name="kdenlive:original.meta.media.0.codec.bit_rate">812264</property>
  <property name="kdenlive:original.meta.attr.0.stream.handler_name.markup">VideoHandler</property>
  <property name="kdenlive:original.meta.attr.0.stream.vendor_id.markup">[0][0][0][0]</property>
  <property name="kdenlive:original.meta.attr.major_brand.markup">isom</property>
  <property name="kdenlive:original.meta.attr.minor_version.markup">512</property>
  <property name="kdenlive:original.meta.attr.compatible_brands.markup">isomiso2avc1mp41</property>
  <property name="kdenlive:original.meta.attr.encoder.markup">Lavf58.76.100</property>
  <property name="kdenlive:original.meta.attr.comment.markup">Rendered with Manim Community v0.12.0</property>
  <property name="kdenlive:original.seekable">1</property>
  <property name="kdenlive:original.width">3840</property>
  <property name="kdenlive:original.height">2160</property>
  <property name="kdenlive:original.meta.media.sample_aspect_num">1</property>
  <property name="kdenlive:original.meta.media.sample_aspect_den">1</property>
  <property name="kdenlive:original.aspect_ratio">1</property>
  <property name="kdenlive:original.audio_index">-1</property>
  <property name="kdenlive:original.video_index">0</property>
  <property name="kdenlive:original.mute_on_pause">0</property>
  <property name="kdenlive:original.mlt_service">avformat-novalidate</property>
  <property name="kdenlive:original.kdenlive:folderid">373</property>
  <property name="kdenlive:original.kdenlive:file_size">307671</property>
  <property name="kdenlive:original.meta.media.frame_rate_num">60</property>
  <property name="kdenlive:original.meta.media.frame_rate_den">1</property>
  <property name="kdenlive:original.meta.media.colorspace">709</property>
  <property name="kdenlive:original.meta.media.color_trc">2</property>
  <property name="kdenlive:original.meta.media.has_b_frames">2</property>
  <property name="kdenlive:original.meta.media.width">3840</property>
  <property name="kdenlive:original.meta.media.height">2160</property>
  <property name="kdenlive:original.meta.media.color_range">mpeg</property>
  <property name="kdenlive:original.kdenlive:id">376</property>
  <property name="kdenlive:original.kdenlive:file_hash">f7e3af0afb78d26e270566bfa594ea77</property>
  <property name="kdenlive:original.backup">1</property>
  <property name="kdenlive:file_hash">f7e3af0afb78d26e270566bfa594ea77</property>
  <property name="xml">was here</property>
  <property name="meta.media.nb_streams">1</property>
  <property name="meta.media.0.stream.type">video</property>
  <property name="meta.media.0.stream.frame_rate">60</property>
  <property name="meta.media.0.stream.sample_aspect_ratio">0</property>
  <property name="meta.media.0.codec.width">640</property>
  <property name="meta.media.0.codec.height">360</property>
  <property name="meta.media.0.codec.rotate">0</property>
  <property name="meta.media.0.codec.pix_fmt">yuv420p</property>
  <property name="meta.media.0.codec.sample_aspect_ratio">0</property>
  <property name="meta.media.0.codec.colorspace">601</property>
  <property name="meta.media.0.codec.name">h264</property>
  <property name="meta.media.0.codec.long_name">H.264 / AVC / MPEG-4 AVC / MPEG-4 part 10</property>
  <property name="meta.media.0.codec.bit_rate">2344872</property>
  <property name="meta.attr.0.stream.handler_name.markup">VideoHandler</property>
  <property name="meta.attr.0.stream.vendor_id.markup">FFMP</property>
  <property name="meta.attr.0.stream.encoder.markup">Lavc58.134.100 libx264</property>
  <property name="meta.attr.major_brand.markup">qt  </property>
  <property name="meta.attr.minor_version.markup">512</property>
  <property name="meta.attr.compatible_brands.markup">qt  </property>
  <property name="meta.attr.encoder.markup">Lavf58.76.100</property>
  <property name="meta.attr.comment.markup">Rendered with Manim Community v0.12.0</property>
  <property name="meta.media.sample_aspect_num">1</property>
  <property name="meta.media.sample_aspect_den">1</property>
  <property name="meta.media.frame_rate_num">60</property>
  <property name="meta.media.frame_rate_den">1</property>
  <property name="meta.media.colorspace">601</property>
  <property name="meta.media.color_trc">2</property>
  <property name="meta.media.has_b_frames">0</property>
  <property name="meta.media.width">640</property>
  <property name="meta.media.height">360</property>
  <property name="meta.media.color_range">mpeg</property>
  <property name="set.test_audio">1</property>
  <property name="set.test_image">0</property>
  <property name="meta.media.top_field_first">0</property>
  <property name="meta.media.progressive">1</property>
 </producer>
 <producer id="producer499" in="00:00:00.000" out="00:00:00.983">
  <property name="length">60</property>
  <property name="eof">pause</property>
  <property name="resource">/home/xiaoxiae/.cache/kdenlive/proxy/fa5e5154e5ef9f80f8c6c8e53eabf4fd.mov</property>
  <property name="audio_index">-1</property>
  <property name="video_index">0</property>
  <property name="mute_on_pause">0</property>
  <property name="mlt_service">avformat-novalidate</property>
  <property name="seekable">1</property>
  <property name="aspect_ratio">1</property>
  <property name="kdenlive:clipname">4.mp4</property>
  <property name="kdenlive:folderid">373</property>
  <property name="kdenlive:id">376</property>
  <property name="kdenlive:file_size">119058</property>
  <property name="kdenlive:proxy">/home/xiaoxiae/.cache/kdenlive/proxy/fa5e5154e5ef9f80f8c6c8e53eabf4fd.mov</property>
  <property name="kdenlive:originalurl">video/TimeComplexity/vid/4.mp4</property>
  <property name="kdenlive:original.mlt_type">producer</property>
  <property name="kdenlive:original.in">0</property>
  <property name="kdenlive:original.out">59</property>
  <property name="kdenlive:original.length">60</property>
  <property name="kdenlive:original.eof">pause</property>
  <property name="kdenlive:original.resource">video/TimeComplexity/vid/4.mp4</property>
  <property name="kdenlive:original.meta.media.nb_streams">1</property>
  <property name="kdenlive:original.meta.media.0.stream.type">video</property>
  <property name="kdenlive:original.meta.media.0.stream.frame_rate">60</property>
  <property name="kdenlive:original.meta.media.0.stream.sample_aspect_ratio">0</property>
  <property name="kdenlive:original.meta.media.0.codec.width">3840</property>
  <property name="kdenlive:original.meta.media.0.codec.height">2160</property>
  <property name="kdenlive:original.meta.media.0.codec.rotate">0</property>
  <property name="kdenlive:original.meta.media.0.codec.pix_fmt">yuv420p</property>
  <property name="kdenlive:original.meta.media.0.codec.sample_aspect_ratio">0</property>
  <property name="kdenlive:original.meta.media.0.codec.colorspace">709</property>
  <property name="kdenlive:original.meta.media.0.codec.name">h264</property>
  <property name="kdenlive:original.meta.media.0.codec.long_name">H.264 / AVC / MPEG-4 AVC / MPEG-4 part 10</property>
  <property name="kdenlive:original.meta.media.0.codec.bit_rate">939408</property>
  <property name="kdenlive:original.meta.attr.0.stream.handler_name.markup">VideoHandler</property>
  <property name="kdenlive:original.meta.attr.0.stream.vendor_id.markup">[0][0][0][0]</property>
  <property name="kdenlive:original.meta.attr.major_brand.markup">isom</property>
  <property name="kdenlive:original.meta.attr.minor_version.markup">512</property>
  <property name="kdenlive:original.meta.attr.compatible_brands.markup">isomiso2avc1mp41</property>
  <property name="kdenlive:original.meta.attr.encoder.markup">Lavf58.76.100</property>
  <property name="kdenlive:original.meta.attr.comment.markup">Rendered with Manim Community v0.12.0</property>
  <property name="kdenlive:original.seekable">1</property>
  <property name="kdenlive:original.width">3840</property>
  <property name="kdenlive:original.height">2160</property>
  <property name="kdenlive:original.meta.media.sample_aspect_num">1</property>
  <property name="kdenlive:original.meta.media.sample_aspect_den">1</property>
  <property name="kdenlive:original.aspect_ratio">1</property>
  <property name="kdenlive:original.audio_index">-1</property>
  <property name="kdenlive:original.video_index">0</property>
  <property name="kdenlive:original.mute_on_pause">0</property>
  <property name="kdenlive:original.mlt_service">avformat-novalidate</property>
  <property name="kdenlive:original.kdenlive:folderid">373</property>
  <property name="kdenlive:original.meta.media.frame_rate_num">60</property>
  <property name="kdenlive:original.meta.media.frame_rate_den">1</property>
  <property name="kdenlive:original.meta.media.colorspace">709</property>
  <property name="kdenlive:original.meta.media.color_trc">2</property>
  <property name="kdenlive:original.meta.media.has_b_frames">2</property>
  <property name="kdenlive:original.meta.media.width">3840</property>
  <property name="kdenlive:original.meta.media.height">2160</property>
  <property name="kdenlive:original.meta.media.color_range">mpeg</property>
  <property name="kdenlive:original.kdenlive:id">377</property>
  <property name="kdenlive:original.kdenlive:file_size">119058</property>
  <property name="kdenlive:original.kdenlive:file_hash">fa5e5154e5ef9f80f8c6c8e53eabf4fd</property>
  <property name="kdenlive:original.backup">1</property>
  <property name="kdenlive:file_hash">fa5e5154e5ef9f80f8c6c8e53eabf4fd</property>
  <property name="xml">was here</property>
  <property name="meta.media.nb_streams">1</property>
  <property name="meta.media.0.stream.type">video</property>
  <property name="meta.media.0.stream.frame_rate">60</property>
  <property name="meta.media.0.stream.sample_aspect_ratio">0</property>
  <property name="meta.media.0.codec.width">640</property>
  <property name="meta.media.0.codec.height">360</property>
  <property name="meta.media.0.codec.rotate">0</property>
  <property name="meta.media.0.codec.pix_fmt">yuv420p</property>
  <property name="meta.media.0.codec.sample_aspect_ratio">0</property>
  <property name="meta.media.0.codec.colorspace">601</property>
  <property name="meta.media.0.codec.name">h264</property>
  <property name="meta.media.0.codec.long_name">H.264 / AVC / MPEG-4 AVC / MPEG-4 part 10</property>
  <property name="meta.media.0.codec.bit_rate">3003696</property>
  <property name="meta.attr.0.stream.handler_name.markup">VideoHandler</property>
  <property name="meta.attr.0.stream.vendor_id.markup">FFMP</property>
  <property name="meta.attr.0.stream.encoder.markup">Lavc58.134.100 libx264</property>
  <property name="meta.attr.major_brand.markup">qt  </property>
  <property name="meta.attr.minor_version.markup">512</property>
  <property name="meta.attr.compatible_brands.markup">qt  </property>
  <property name="meta.attr.encoder.markup">Lavf58.76.100</property>
  <property name="meta.attr.comment.markup">Rendered with Manim Community v0.12.0</property>
  <property name="meta.media.sample_aspect_num">1</property>
  <property name="meta.media.sample_aspect_den">1</property>
  <property name="meta.media.frame_rate_num">60</property>
  <property name="meta.media.frame_rate_den">1</property>
  <property name="meta.media.colorspace">601</property>
  <property name="meta.media.color_trc">2</property>
  <property name="meta.media.has_b_frames">0</property>
  <property name="meta.media.width">640</property>
  <property name="meta.media.height">360</property>
  <property name="meta.media.color_range">mpeg</property>
  <property name="set.test_audio">1</property>
  <property name="set.test_image">0</property>
  <property name="meta.media.top_field_first">0</property>
  <property name="meta.media.progressive">1</property>
 </producer>
 <producer id="producer500" in="00:00:00.000" out="00:00:00.983">
  <property name="length">60</property>
  <property name="eof">pause</property>
  <property name="resource">/home/xiaoxiae/.cache/kdenlive/proxy/d349d9b691238d70cf0da2a89b075ee6.mov</property>
  <property name="audio_index">-1</property>
  <property name="video_index">0</property>
  <property name="mute_on_pause">0</property>
  <property name="mlt_service">avformat-novalidate</property>
  <property name="seekable">1</property>
  <property name="aspect_ratio">1</property>
  <property name="kdenlive:clipname">5.mp4</property>
  <property name="kdenlive:folderid">373</property>
  <property name="kdenlive:id">377</property>
  <property name="kdenlive:file_size">133565</property>
  <property name="kdenlive:proxy">/home/xiaoxiae/.cache/kdenlive/proxy/d349d9b691238d70cf0da2a89b075ee6.mov</property>
  <property name="kdenlive:originalurl">video/TimeComplexity/vid/5.mp4</property>
  <property name="kdenlive:original.mlt_type">producer</property>
  <property name="kdenlive:original.in">0</property>
  <property name="kdenlive:original.out">59</property>
  <property name="kdenlive:original.length">60</property>
  <property name="kdenlive:original.eof">pause</property>
  <property name="kdenlive:original.resource">video/TimeComplexity/vid/5.mp4</property>
  <property name="kdenlive:original.meta.media.nb_streams">1</property>
  <property name="kdenlive:original.meta.media.0.stream.type">video</property>
  <property name="kdenlive:original.meta.media.0.stream.frame_rate">60</property>
  <property name="kdenlive:original.meta.media.0.stream.sample_aspect_ratio">0</property>
  <property name="kdenlive:original.meta.media.0.codec.width">3840</property>
  <property name="kdenlive:original.meta.media.0.codec.height">2160</property>
  <property name="kdenlive:original.meta.media.0.codec.rotate">0</property>
  <property name="kdenlive:original.meta.media.0.codec.pix_fmt">yuv420p</property>
  <property name="kdenlive:original.meta.media.0.codec.sample_aspect_ratio">0</property>
  <property name="kdenlive:original.meta.media.0.codec.colorspace">709</property>
  <property name="kdenlive:original.meta.media.0.codec.name">h264</property>
  <property name="kdenlive:original.meta.media.0.codec.long_name">H.264 / AVC / MPEG-4 AVC / MPEG-4 part 10</property>
  <property name="kdenlive:original.meta.media.0.codec.bit_rate">1055464</property>
  <property name="kdenlive:original.meta.attr.0.stream.handler_name.markup">VideoHandler</property>
  <property name="kdenlive:original.meta.attr.0.stream.vendor_id.markup">[0][0][0][0]</property>
  <property name="kdenlive:original.meta.attr.major_brand.markup">isom</property>
  <property name="kdenlive:original.meta.attr.minor_version.markup">512</property>
  <property name="kdenlive:original.meta.attr.compatible_brands.markup">isomiso2avc1mp41</property>
  <property name="kdenlive:original.meta.attr.encoder.markup">Lavf58.76.100</property>
  <property name="kdenlive:original.meta.attr.comment.markup">Rendered with Manim Community v0.12.0</property>
  <property name="kdenlive:original.seekable">1</property>
  <property name="kdenlive:original.width">3840</property>
  <property name="kdenlive:original.height">2160</property>
  <property name="kdenlive:original.meta.media.sample_aspect_num">1</property>
  <property name="kdenlive:original.meta.media.sample_aspect_den">1</property>
  <property name="kdenlive:original.aspect_ratio">1</property>
  <property name="kdenlive:original.audio_index">-1</property>
  <property name="kdenlive:original.video_index">0</property>
  <property name="kdenlive:original.mute_on_pause">0</property>
  <property name="kdenlive:original.mlt_service">avformat-novalidate</property>
  <property name="kdenlive:original.kdenlive:folderid">373</property>
  <property name="kdenlive:original.meta.media.frame_rate_num">60</property>
  <property name="kdenlive:original.meta.media.frame_rate_den">1</property>
  <property name="kdenlive:original.meta.media.colorspace">709</property>
  <property name="kdenlive:original.meta.media.color_trc">2</property>
  <property name="kdenlive:original.meta.media.has_b_frames">2</property>
  <property name="kdenlive:original.meta.media.width">3840</property>
  <property name="kdenlive:original.meta.media.height">2160</property>
  <property name="kdenlive:original.meta.media.color_range">mpeg</property>
  <property name="kdenlive:original.kdenlive:id">378</property>
  <property name="kdenlive:original.kdenlive:file_size">133565</property>
  <property name="kdenlive:original.kdenlive:file_hash">d349d9b691238d70cf0da2a89b075ee6</property>
  <property name="kdenlive:original.backup">1</property>
  <property name="kdenlive:file_hash">d349d9b691238d70cf0da2a89b075ee6</property>
  <property name="xml">was here</property>
  <property name="meta.media.nb_streams">1</property>
  <property name="meta.media.0.stream.type">video</property>
  <property name="meta.media.0.stream.frame_rate">60</property>
  <property name="meta.media.0.stream.sample_aspect_ratio">0</property>
  <property name="meta.media.0.codec.width">640</property>
  <property name="meta.media.0.codec.height">360</property>
  <property name="meta.media.0.codec.rotate">0</property>
  <property name="meta.media.0.codec.pix_fmt">yuv420p</property>
  <property name="meta.media.0.codec.sample_aspect_ratio">0</property>
  <property name="meta.media.0.codec.colorspace">601</property>
  <property name="meta.media.0.codec.name">h264</property>
  <property name="meta.media.0.codec.long_name">H.264 / AVC / MPEG-4 AVC / MPEG-4 part 10</property>
  <property name="meta.media.0.codec.bit_rate">3324344</property>
  <property name="meta.attr.0.stream.handler_name.markup">VideoHandler</property>
  <property name="meta.attr.0.stream.vendor_id.markup">FFMP</property>
  <property name="meta.attr.0.stream.encoder.markup">Lavc58.134.100 libx264</property>
  <property name="meta.attr.major_brand.markup">qt  </property>
  <property name="meta.attr.minor_version.markup">512</property>
  <property name="meta.attr.compatible_brands.markup">qt  </property>
  <property name="meta.attr.encoder.markup">Lavf58.76.100</property>
  <property name="meta.attr.comment.markup">Rendered with Manim Community v0.12.0</property>
  <property name="meta.media.sample_aspect_num">1</property>
  <property name="meta.media.sample_aspect_den">1</property>
  <property name="meta.media.frame_rate_num">60</property>
  <property name="meta.media.frame_rate_den">1</property>
  <property name="meta.media.colorspace">601</property>
  <property name="meta.media.color_trc">2</property>
  <property name="meta.media.has_b_frames">0</property>
  <property name="meta.media.width">640</property>
  <property name="meta.media.height">360</property>
  <property name="meta.media.color_range">mpeg</property>
  <property name="set.test_audio">1</property>
  <property name="set.test_image">0</property>
 </producer>
 <producer id="producer501" in="00:00:00.000" out="00:00:00.983">
  <property name="length">60</property>
  <property name="eof">pause</property>
  <property name="resource">/home/xiaoxiae/.cache/kdenlive/proxy/848f02c4e346136df631a023bb5b13db.mov</property>
  <property name="audio_index">-1</property>
  <property name="video_index">0</property>
  <property name="mute_on_pause">0</property>
  <property name="mlt_service">avformat-novalidate</property>
  <property name="seekable">1</property>
  <property name="aspect_ratio">1</property>
  <property name="kdenlive:clipname">6.mp4</property>
  <property name="kdenlive:folderid">373</property>
  <property name="kdenlive:id">378</property>
  <property name="kdenlive:file_size">111635</property>
  <property name="kdenlive:proxy">/home/xiaoxiae/.cache/kdenlive/proxy/848f02c4e346136df631a023bb5b13db.mov</property>
  <property name="kdenlive:originalurl">video/TimeComplexity/vid/6.mp4</property>
  <property name="kdenlive:original.mlt_type">producer</property>
  <property name="kdenlive:original.in">0</property>
  <property name="kdenlive:original.out">59</property>
  <property name="kdenlive:original.length">60</property>
  <property name="kdenlive:original.eof">pause</property>
  <property name="kdenlive:original.resource">video/TimeComplexity/vid/6.mp4</property>
  <property name="kdenlive:original.meta.media.nb_streams">1</property>
  <property name="kdenlive:original.meta.media.0.stream.type">video</property>
  <property name="kdenlive:original.meta.media.0.stream.frame_rate">60</property>
  <property name="kdenlive:original.meta.media.0.stream.sample_aspect_ratio">0</property>
  <property name="kdenlive:original.meta.media.0.codec.width">3840</property>
  <property name="kdenlive:original.meta.media.0.codec.height">2160</property>
  <property name="kdenlive:original.meta.media.0.codec.rotate">0</property>
  <property name="kdenlive:original.meta.media.0.codec.pix_fmt">yuv420p</property>
  <property name="kdenlive:original.meta.media.0.codec.sample_aspect_ratio">0</property>
  <property name="kdenlive:original.meta.media.0.codec.colorspace">709</property>
  <property name="kdenlive:original.meta.media.0.codec.name">h264</property>
  <property name="kdenlive:original.meta.media.0.codec.long_name">H.264 / AVC / MPEG-4 AVC / MPEG-4 part 10</property>
  <property name="kdenlive:original.meta.media.0.codec.bit_rate">880024</property>
  <property name="kdenlive:original.meta.attr.0.stream.handler_name.markup">VideoHandler</property>
  <property name="kdenlive:original.meta.attr.0.stream.vendor_id.markup">[0][0][0][0]</property>
  <property name="kdenlive:original.meta.attr.major_brand.markup">isom</property>
  <property name="kdenlive:original.meta.attr.minor_version.markup">512</property>
  <property name="kdenlive:original.meta.attr.compatible_brands.markup">isomiso2avc1mp41</property>
  <property name="kdenlive:original.meta.attr.encoder.markup">Lavf58.76.100</property>
  <property name="kdenlive:original.meta.attr.comment.markup">Rendered with Manim Community v0.12.0</property>
  <property name="kdenlive:original.seekable">1</property>
  <property name="kdenlive:original.width">3840</property>
  <property name="kdenlive:original.height">2160</property>
  <property name="kdenlive:original.meta.media.sample_aspect_num">1</property>
  <property name="kdenlive:original.meta.media.sample_aspect_den">1</property>
  <property name="kdenlive:original.aspect_ratio">1</property>
  <property name="kdenlive:original.audio_index">-1</property>
  <property name="kdenlive:original.video_index">0</property>
  <property name="kdenlive:original.mute_on_pause">0</property>
  <property name="kdenlive:original.mlt_service">avformat-novalidate</property>
  <property name="kdenlive:original.kdenlive:folderid">373</property>
  <property name="kdenlive:original.meta.media.frame_rate_num">60</property>
  <property name="kdenlive:original.meta.media.frame_rate_den">1</property>
  <property name="kdenlive:original.meta.media.colorspace">709</property>
  <property name="kdenlive:original.meta.media.color_trc">2</property>
  <property name="kdenlive:original.meta.media.has_b_frames">2</property>
  <property name="kdenlive:original.meta.media.width">3840</property>
  <property name="kdenlive:original.meta.media.height">2160</property>
  <property name="kdenlive:original.meta.media.color_range">mpeg</property>
  <property name="kdenlive:original.kdenlive:id">379</property>
  <property name="kdenlive:original.kdenlive:file_size">111635</property>
  <property name="kdenlive:original.kdenlive:file_hash">848f02c4e346136df631a023bb5b13db</property>
  <property name="kdenlive:original.backup">1</property>
  <property name="kdenlive:file_hash">848f02c4e346136df631a023bb5b13db</property>
  <property name="xml">was here</property>
  <property name="meta.media.nb_streams">1</property>
  <property name="meta.media.0.stream.type">video</property>
  <property name="meta.media.0.stream.frame_rate">60</property>
  <property name="meta.media.0.stream.sample_aspect_ratio">0</property>
  <property name="meta.media.0.codec.width">640</property>
  <property name="meta.media.0.codec.height">360</property>
  <property name="meta.media.0.codec.rotate">0</property>
  <property name="meta.media.0.codec.pix_fmt">yuv420p</property>
  <property name="meta.media.0.codec.sample_aspect_ratio">0</property>
  <property name="meta.media.0.codec.colorspace">601</property>
  <property name="meta.media.0.codec.name">h264</property>
  <property name="meta.media.0.codec.long_name">H.264 / AVC / MPEG-4 AVC / MPEG-4 part 10</property>
  <property name="meta.media.0.codec.bit_rate">3520608</property>
  <property name="meta.attr.0.stream.handler_name.markup">VideoHandler</property>
  <property name="meta.attr.0.stream.vendor_id.markup">FFMP</property>
  <property name="meta.attr.0.stream.encoder.markup">Lavc58.134.100 libx264</property>
  <property name="meta.attr.major_brand.markup">qt  </property>
  <property name="meta.attr.minor_version.markup">512</property>
  <property name="meta.attr.compatible_brands.markup">qt  </property>
  <property name="meta.attr.encoder.markup">Lavf58.76.100</property>
  <property name="meta.attr.comment.markup">Rendered with Manim Community v0.12.0</property>
  <property name="meta.media.sample_aspect_num">1</property>
  <property name="meta.media.sample_aspect_den">1</property>
  <property name="meta.media.frame_rate_num">60</property>
  <property name="meta.media.frame_rate_den">1</property>
  <property name="meta.media.colorspace">601</property>
  <property name="meta.media.color_trc">2</property>
  <property name="meta.media.has_b_frames">0</property>
  <property name="meta.media.width">640</property>
  <property name="meta.media.height">360</property>
  <property name="meta.media.color_range">mpeg</property>
  <property name="set.test_audio">1</property>
  <property name="set.test_image">0</property>
  <property name="meta.media.top_field_first">0</property>
  <property name="meta.media.progressive">1</property>
 </producer>
 <producer id="producer502" in="00:00:00.000" out="00:00:03.283">
  <property name="length">198</property>
  <property name="eof">pause</property>
  <property name="resource">/home/xiaoxiae/.cache/kdenlive/proxy/89c5d69c3c2b53e225b386cea5be468a.mov</property>
  <property name="audio_index">-1</property>
  <property name="video_index">0</property>
  <property name="mute_on_pause">0</property>
  <property name="mlt_service">avformat-novalidate</property>
  <property name="seekable">1</property>
  <property name="aspect_ratio">1</property>
  <property name="kdenlive:clipname">7.mp4</property>
  <property name="kdenlive:folderid">373</property>
  <property name="kdenlive:id">379</property>
  <property name="kdenlive:file_size">348563</property>
  <property name="kdenlive:proxy">/home/xiaoxiae/.cache/kdenlive/proxy/89c5d69c3c2b53e225b386cea5be468a.mov</property>
  <property name="kdenlive:originalurl">video/TimeComplexity/vid/7.mp4</property>
  <property name="kdenlive:original.mlt_type">producer</property>
  <property name="kdenlive:original.in">0</property>
  <property name="kdenlive:original.out">197</property>
  <property name="kdenlive:original.length">198</property>
  <property name="kdenlive:original.eof">pause</property>
  <property name="kdenlive:original.resource">video/TimeComplexity/vid/7.mp4</property>
  <property name="kdenlive:original.meta.media.nb_streams">1</property>
  <property name="kdenlive:original.meta.media.0.stream.type">video</property>
  <property name="kdenlive:original.meta.media.0.stream.frame_rate">60</property>
  <property name="kdenlive:original.meta.media.0.stream.sample_aspect_ratio">0</property>
  <property name="kdenlive:original.meta.media.0.codec.width">3840</property>
  <property name="kdenlive:original.meta.media.0.codec.height">2160</property>
  <property name="kdenlive:original.meta.media.0.codec.rotate">0</property>
  <property name="kdenlive:original.meta.media.0.codec.pix_fmt">yuv420p</property>
  <property name="kdenlive:original.meta.media.0.codec.sample_aspect_ratio">0</property>
  <property name="kdenlive:original.meta.media.0.codec.colorspace">709</property>
  <property name="kdenlive:original.meta.media.0.codec.name">h264</property>
  <property name="kdenlive:original.meta.media.0.codec.long_name">H.264 / AVC / MPEG-4 AVC / MPEG-4 part 10</property>
  <property name="kdenlive:original.meta.media.0.codec.bit_rate">837010</property>
  <property name="kdenlive:original.meta.attr.0.stream.handler_name.markup">VideoHandler</property>
  <property name="kdenlive:original.meta.attr.0.stream.vendor_id.markup">[0][0][0][0]</property>
  <property name="kdenlive:original.meta.attr.major_brand.markup">isom</property>
  <property name="kdenlive:original.meta.attr.minor_version.markup">512</property>
  <property name="kdenlive:original.meta.attr.compatible_brands.markup">isomiso2avc1mp41</property>
  <property name="kdenlive:original.meta.attr.encoder.markup">Lavf58.76.100</property>
  <property name="kdenlive:original.meta.attr.comment.markup">Rendered with Manim Community v0.12.0</property>
  <property name="kdenlive:original.seekable">1</property>
  <property name="kdenlive:original.width">3840</property>
  <property name="kdenlive:original.height">2160</property>
  <property name="kdenlive:original.meta.media.sample_aspect_num">1</property>
  <property name="kdenlive:original.meta.media.sample_aspect_den">1</property>
  <property name="kdenlive:original.aspect_ratio">1</property>
  <property name="kdenlive:original.audio_index">-1</property>
  <property name="kdenlive:original.video_index">0</property>
  <property name="kdenlive:original.mute_on_pause">0</property>
  <property name="kdenlive:original.mlt_service">avformat-novalidate</property>
  <property name="kdenlive:original.kdenlive:folderid">373</property>
  <property name="kdenlive:original.meta.media.frame_rate_num">60</property>
  <property name="kdenlive:original.meta.media.frame_rate_den">1</property>
  <property name="kdenlive:original.meta.media.colorspace">709</property>
  <property name="kdenlive:original.meta.media.color_trc">2</property>
  <property name="kdenlive:original.meta.media.has_b_frames">2</property>
  <property name="kdenlive:original.meta.media.width">3840</property>
  <property name="kdenlive:original.meta.media.height">2160</property>
  <property name="kdenlive:original.meta.media.color_range">mpeg</property>
  <property name="kdenlive:original.kdenlive:id">380</property>
  <property name="kdenlive:original.kdenlive:file_size">348563</property>
  <property name="kdenlive:original.kdenlive:file_hash">89c5d69c3c2b53e225b386cea5be468a</property>
  <property name="kdenlive:original.backup">1</property>
  <property name="kdenlive:file_hash">89c5d69c3c2b53e225b386cea5be468a</property>
  <property name="xml">was here</property>
  <property name="meta.media.nb_streams">1</property>
  <property name="meta.media.0.stream.type">video</property>
  <property name="meta.media.0.stream.frame_rate">60</property>
  <property name="meta.media.0.stream.sample_aspect_ratio">0</property>
  <property name="meta.media.0.codec.width">640</property>
  <property name="meta.media.0.codec.height">360</property>
  <property name="meta.media.0.codec.rotate">0</property>
  <property name="meta.media.0.codec.pix_fmt">yuv420p</property>
  <property name="meta.media.0.codec.sample_aspect_ratio">0</property>
  <property name="meta.media.0.codec.colorspace">601</property>
  <property name="meta.media.0.codec.name">h264</property>
  <property name="meta.media.0.codec.long_name">H.264 / AVC / MPEG-4 AVC / MPEG-4 part 10</property>
  <property name="meta.media.0.codec.bit_rate">3900686</property>
  <property name="meta.attr.0.stream.handler_name.markup">VideoHandler</property>
  <property name="meta.attr.0.stream.vendor_id.markup">FFMP</property>
  <property name="meta.attr.0.stream.encoder.markup">Lavc58.134.100 libx264</property>
  <property name="meta.attr.major_brand.markup">qt  </property>
  <property name="meta.attr.minor_version.markup">512</property>
  <property name="meta.attr.compatible_brands.markup">qt  </property>
  <property name="meta.attr.encoder.markup">Lavf58.76.100</property>
  <property name="meta.attr.comment.markup">Rendered with Manim Community v0.12.0</property>
  <property name="meta.media.sample_aspect_num">1</property>
  <property name="meta.media.sample_aspect_den">1</property>
  <property name="meta.media.frame_rate_num">60</property>
  <property name="meta.media.frame_rate_den">1</property>
  <property name="meta.media.colorspace">601</property>
  <property name="meta.media.color_trc">2</property>
  <property name="meta.media.has_b_frames">0</property>
  <property name="meta.media.width">640</property>
  <property name="meta.media.height">360</property>
  <property name="meta.media.color_range">mpeg</property>
  <property name="set.test_audio">1</property>
  <property name="set.test_image">0</property>
  <property name="meta.media.top_field_first">0</property>
  <property name="meta.media.progressive">1</property>
 </producer>
 <producer id="producer503" in="00:00:00.000" out="00:00:01.083">
  <property name="length">66</property>
  <property name="eof">pause</property>
  <property name="resource">/home/xiaoxiae/.cache/kdenlive/proxy/5c5ddff67d7825493c9490d33ef4f486.mov</property>
  <property name="audio_index">-1</property>
  <property name="video_index">0</property>
  <property name="mute_on_pause">0</property>
  <property name="mlt_service">avformat-novalidate</property>
  <property name="seekable">1</property>
  <property name="aspect_ratio">1</property>
  <property name="kdenlive:clipname">8.mp4</property>
  <property name="kdenlive:folderid">373</property>
  <property name="kdenlive:id">380</property>
  <property name="kdenlive:file_size">206912</property>
  <property name="kdenlive:proxy">/home/xiaoxiae/.cache/kdenlive/proxy/5c5ddff67d7825493c9490d33ef4f486.mov</property>
  <property name="kdenlive:originalurl">video/TimeComplexity/vid/8.mp4</property>
  <property name="kdenlive:original.mlt_type">producer</property>
  <property name="kdenlive:original.in">0</property>
  <property name="kdenlive:original.out">65</property>
  <property name="kdenlive:original.length">66</property>
  <property name="kdenlive:original.eof">pause</property>
  <property name="kdenlive:original.resource">video/TimeComplexity/vid/8.mp4</property>
  <property name="kdenlive:original.meta.media.nb_streams">1</property>
  <property name="kdenlive:original.meta.media.0.stream.type">video</property>
  <property name="kdenlive:original.meta.media.0.stream.frame_rate">60</property>
  <property name="kdenlive:original.meta.media.0.stream.sample_aspect_ratio">0</property>
  <property name="kdenlive:original.meta.media.0.codec.width">3840</property>
  <property name="kdenlive:original.meta.media.0.codec.height">2160</property>
  <property name="kdenlive:original.meta.media.0.codec.rotate">0</property>
  <property name="kdenlive:original.meta.media.0.codec.pix_fmt">yuv420p</property>
  <property name="kdenlive:original.meta.media.0.codec.sample_aspect_ratio">0</property>
  <property name="kdenlive:original.meta.media.0.codec.colorspace">709</property>
  <property name="kdenlive:original.meta.media.0.codec.name">h264</property>
  <property name="kdenlive:original.meta.media.0.codec.long_name">H.264 / AVC / MPEG-4 AVC / MPEG-4 part 10</property>
  <property name="kdenlive:original.meta.media.0.codec.bit_rate">1492363</property>
  <property name="kdenlive:original.meta.attr.0.stream.handler_name.markup">VideoHandler</property>
  <property name="kdenlive:original.meta.attr.0.stream.vendor_id.markup">[0][0][0][0]</property>
  <property name="kdenlive:original.meta.attr.major_brand.markup">isom</property>
  <property name="kdenlive:original.meta.attr.minor_version.markup">512</property>
  <property name="kdenlive:original.meta.attr.compatible_brands.markup">isomiso2avc1mp41</property>
  <property name="kdenlive:original.meta.attr.encoder.markup">Lavf58.76.100</property>
  <property name="kdenlive:original.meta.attr.comment.markup">Rendered with Manim Community v0.12.0</property>
  <property name="kdenlive:original.seekable">1</property>
  <property name="kdenlive:original.width">3840</property>
  <property name="kdenlive:original.height">2160</property>
  <property name="kdenlive:original.meta.media.sample_aspect_num">1</property>
  <property name="kdenlive:original.meta.media.sample_aspect_den">1</property>
  <property name="kdenlive:original.aspect_ratio">1</property>
  <property name="kdenlive:original.audio_index">-1</property>
  <property name="kdenlive:original.video_index">0</property>
  <property name="kdenlive:original.mute_on_pause">0</property>
  <property name="kdenlive:original.mlt_service">avformat-novalidate</property>
  <property name="kdenlive:original.kdenlive:folderid">373</property>
  <property name="kdenlive:original.meta.media.frame_rate_num">60</property>
  <property name="kdenlive:original.meta.media.frame_rate_den">1</property>
  <property name="kdenlive:original.meta.media.colorspace">709</property>
  <property name="kdenlive:original.meta.media.color_trc">2</property>
  <property name="kdenlive:original.meta.media.has_b_frames">2</property>
  <property name="kdenlive:original.meta.media.width">3840</property>
  <property name="kdenlive:original.meta.media.height">2160</property>
  <property name="kdenlive:original.meta.media.color_range">mpeg</property>
  <property name="kdenlive:original.kdenlive:id">381</property>
  <property name="kdenlive:original.kdenlive:file_size">206912</property>
  <property name="kdenlive:original.kdenlive:file_hash">5c5ddff67d7825493c9490d33ef4f486</property>
  <property name="kdenlive:original.backup">1</property>
  <property name="kdenlive:file_hash">5c5ddff67d7825493c9490d33ef4f486</property>
  <property name="xml">was here</property>
  <property name="meta.media.nb_streams">1</property>
  <property name="meta.media.0.stream.type">video</property>
  <property name="meta.media.0.stream.frame_rate">60</property>
  <property name="meta.media.0.stream.sample_aspect_ratio">0</property>
  <property name="meta.media.0.codec.width">640</property>
  <property name="meta.media.0.codec.height">360</property>
  <property name="meta.media.0.codec.rotate">0</property>
  <property name="meta.media.0.codec.pix_fmt">yuv420p</property>
  <property name="meta.media.0.codec.sample_aspect_ratio">0</property>
  <property name="meta.media.0.codec.colorspace">601</property>
  <property name="meta.media.0.codec.name">h264</property>
  <property name="meta.media.0.codec.long_name">H.264 / AVC / MPEG-4 AVC / MPEG-4 part 10</property>
  <property name="meta.media.0.codec.bit_rate">4615120</property>
  <property name="meta.attr.0.stream.handler_name.markup">VideoHandler</property>
  <property name="meta.attr.0.stream.vendor_id.markup">FFMP</property>
  <property name="meta.attr.0.stream.encoder.markup">Lavc58.134.100 libx264</property>
  <property name="meta.attr.major_brand.markup">qt  </property>
  <property name="meta.attr.minor_version.markup">512</property>
  <property name="meta.attr.compatible_brands.markup">qt  </property>
  <property name="meta.attr.encoder.markup">Lavf58.76.100</property>
  <property name="meta.attr.comment.markup">Rendered with Manim Community v0.12.0</property>
  <property name="meta.media.sample_aspect_num">1</property>
  <property name="meta.media.sample_aspect_den">1</property>
  <property name="meta.media.frame_rate_num">60</property>
  <property name="meta.media.frame_rate_den">1</property>
  <property name="meta.media.colorspace">601</property>
  <property name="meta.media.color_trc">2</property>
  <property name="meta.media.has_b_frames">0</property>
  <property name="meta.media.width">640</property>
  <property name="meta.media.height">360</property>
  <property name="meta.media.color_range">mpeg</property>
  <property name="set.test_audio">1</property>
  <property name="set.test_image">0</property>
  <property name="meta.media.top_field_first">0</property>
  <property name="meta.media.progressive">1</property>
 </producer>
 <producer id="producer504" in="00:00:00.000" out="00:00:00.983">
  <property name="length">60</property>
  <property name="eof">pause</property>
  <property name="resource">/home/xiaoxiae/.cache/kdenlive/proxy/d791e11227852240cbd31befefb7963b.mov</property>
  <property name="audio_index">-1</property>
  <property name="video_index">0</property>
  <property name="mute_on_pause">0</property>
  <property name="mlt_service">avformat-novalidate</property>
  <property name="seekable">1</property>
  <property name="aspect_ratio">1</property>
  <property name="kdenlive:clipname">9.mp4</property>
  <property name="kdenlive:folderid">373</property>
  <property name="kdenlive:id">381</property>
  <property name="kdenlive:file_size">343652</property>
  <property name="kdenlive:proxy">/home/xiaoxiae/.cache/kdenlive/proxy/d791e11227852240cbd31befefb7963b.mov</property>
  <property name="kdenlive:originalurl">video/TimeComplexity/vid/9.mp4</property>
  <property name="kdenlive:original.mlt_type">producer</property>
  <property name="kdenlive:original.in">0</property>
  <property name="kdenlive:original.out">59</property>
  <property name="kdenlive:original.length">60</property>
  <property name="kdenlive:original.eof">pause</property>
  <property name="kdenlive:original.resource">video/TimeComplexity/vid/9.mp4</property>
  <property name="kdenlive:original.meta.media.nb_streams">1</property>
  <property name="kdenlive:original.meta.media.0.stream.type">video</property>
  <property name="kdenlive:original.meta.media.0.stream.frame_rate">60</property>
  <property name="kdenlive:original.meta.media.0.stream.sample_aspect_ratio">0</property>
  <property name="kdenlive:original.meta.media.0.codec.width">3840</property>
  <property name="kdenlive:original.meta.media.0.codec.height">2160</property>
  <property name="kdenlive:original.meta.media.0.codec.rotate">0</property>
  <property name="kdenlive:original.meta.media.0.codec.pix_fmt">yuv420p</property>
  <property name="kdenlive:original.meta.media.0.codec.sample_aspect_ratio">0</property>
  <property name="kdenlive:original.meta.media.0.codec.colorspace">709</property>
  <property name="kdenlive:original.meta.media.0.codec.name">h264</property>
  <property name="kdenlive:original.meta.media.0.codec.long_name">H.264 / AVC / MPEG-4 AVC / MPEG-4 part 10</property>
  <property name="kdenlive:original.meta.media.0.codec.bit_rate">2736288</property>
  <property name="kdenlive:original.meta.attr.0.stream.handler_name.markup">VideoHandler</property>
  <property name="kdenlive:original.meta.attr.0.stream.vendor_id.markup">[0][0][0][0]</property>
  <property name="kdenlive:original.meta.attr.major_brand.markup">isom</property>
  <property name="kdenlive:original.meta.attr.minor_version.markup">512</property>
  <property name="kdenlive:original.meta.attr.compatible_brands.markup">isomiso2avc1mp41</property>
  <property name="kdenlive:original.meta.attr.encoder.markup">Lavf58.76.100</property>
  <property name="kdenlive:original.meta.attr.comment.markup">Rendered with Manim Community v0.12.0</property>
  <property name="kdenlive:original.seekable">1</property>
  <property name="kdenlive:original.width">3840</property>
  <property name="kdenlive:original.height">2160</property>
  <property name="kdenlive:original.meta.media.sample_aspect_num">1</property>
  <property name="kdenlive:original.meta.media.sample_aspect_den">1</property>
  <property name="kdenlive:original.aspect_ratio">1</property>
  <property name="kdenlive:original.audio_index">-1</property>
  <property name="kdenlive:original.video_index">0</property>
  <property name="kdenlive:original.mute_on_pause">0</property>
  <property name="kdenlive:original.mlt_service">avformat-novalidate</property>
  <property name="kdenlive:original.kdenlive:folderid">373</property>
  <property name="kdenlive:original.meta.media.frame_rate_num">60</property>
  <property name="kdenlive:original.meta.media.frame_rate_den">1</property>
  <property name="kdenlive:original.meta.media.colorspace">709</property>
  <property name="kdenlive:original.meta.media.color_trc">2</property>
  <property name="kdenlive:original.meta.media.has_b_frames">2</property>
  <property name="kdenlive:original.meta.media.width">3840</property>
  <property name="kdenlive:original.meta.media.height">2160</property>
  <property name="kdenlive:original.meta.media.color_range">mpeg</property>
  <property name="kdenlive:original.kdenlive:id">382</property>
  <property name="kdenlive:original.kdenlive:file_size">343652</property>
  <property name="kdenlive:original.kdenlive:file_hash">d791e11227852240cbd31befefb7963b</property>
  <property name="kdenlive:original.backup">1</property>
  <property name="kdenlive:file_hash">d791e11227852240cbd31befefb7963b</property>
  <property name="xml">was here</property>
  <property name="meta.media.nb_streams">1</property>
  <property name="meta.media.0.stream.type">video</property>
  <property name="meta.media.0.stream.frame_rate">60</property>
  <property name="meta.media.0.stream.sample_aspect_ratio">0</property>
  <property name="meta.media.0.codec.width">640</property>
  <property name="meta.media.0.codec.height">360</property>
  <property name="meta.media.0.codec.rotate">0</property>
  <property name="meta.media.0.codec.pix_fmt">yuv420p</property>
  <property name="meta.media.0.codec.sample_aspect_ratio">0</property>
  <property name="meta.media.0.codec.colorspace">601</property>
  <property name="meta.media.0.codec.name">h264</property>
  <property name="meta.media.0.codec.long_name">H.264 / AVC / MPEG-4 AVC / MPEG-4 part 10</property>
  <property name="meta.media.0.codec.bit_rate">3384840</property>
  <property name="meta.attr.0.stream.handler_name.markup">VideoHandler</property>
  <property name="meta.attr.0.stream.vendor_id.markup">FFMP</property>
  <property name="meta.attr.0.stream.encoder.markup">Lavc58.134.100 libx264</property>
  <property name="meta.attr.major_brand.markup">qt  </property>
  <property name="meta.attr.minor_version.markup">512</property>
  <property name="meta.attr.compatible_brands.markup">qt  </property>
  <property name="meta.attr.encoder.markup">Lavf58.76.100</property>
  <property name="meta.attr.comment.markup">Rendered with Manim Community v0.12.0</property>
  <property name="meta.media.sample_aspect_num">1</property>
  <property name="meta.media.sample_aspect_den">1</property>
  <property name="meta.media.frame_rate_num">60</property>
  <property name="meta.media.frame_rate_den">1</property>
  <property name="meta.media.colorspace">601</property>
  <property name="meta.media.color_trc">2</property>
  <property name="meta.media.has_b_frames">0</property>
  <property name="meta.media.width">640</property>
  <property name="meta.media.height">360</property>
  <property name="meta.media.color_range">mpeg</property>
  <property name="set.test_audio">1</property>
  <property name="set.test_image">0</property>
  <property name="meta.media.top_field_first">0</property>
  <property name="meta.media.progressive">1</property>
 </producer>
 <producer id="producer505" in="00:00:00.000" out="00:00:00.983">
  <property name="length">60</property>
  <property name="eof">pause</property>
  <property name="resource">/home/xiaoxiae/.cache/kdenlive/proxy/191ef707f8c2070c3294ac51176aabb3.mov</property>
  <property name="audio_index">-1</property>
  <property name="video_index">0</property>
  <property name="mute_on_pause">0</property>
  <property name="mlt_service">avformat-novalidate</property>
  <property name="seekable">1</property>
  <property name="aspect_ratio">1</property>
  <property name="kdenlive:clipname">1.mp4</property>
  <property name="kdenlive:folderid">240</property>
  <property name="kdenlive:id">239</property>
  <property name="kdenlive:file_size">97562</property>
  <property name="kdenlive:proxy">/home/xiaoxiae/.cache/kdenlive/proxy/191ef707f8c2070c3294ac51176aabb3.mov</property>
  <property name="kdenlive:originalurl">video/ParenthesesExample/vid/1.mp4</property>
  <property name="kdenlive:original.mlt_type">producer</property>
  <property name="kdenlive:original.in">0</property>
  <property name="kdenlive:original.out">59</property>
  <property name="kdenlive:original.length">60</property>
  <property name="kdenlive:original.eof">pause</property>
  <property name="kdenlive:original.resource">video/ParenthesesExample/vid/1.mp4</property>
  <property name="kdenlive:original.meta.media.nb_streams">1</property>
  <property name="kdenlive:original.meta.media.0.stream.type">video</property>
  <property name="kdenlive:original.meta.media.0.stream.frame_rate">60</property>
  <property name="kdenlive:original.meta.media.0.stream.sample_aspect_ratio">0</property>
  <property name="kdenlive:original.meta.media.0.codec.width">3840</property>
  <property name="kdenlive:original.meta.media.0.codec.height">2160</property>
  <property name="kdenlive:original.meta.media.0.codec.rotate">0</property>
  <property name="kdenlive:original.meta.media.0.codec.pix_fmt">yuv420p</property>
  <property name="kdenlive:original.meta.media.0.codec.sample_aspect_ratio">0</property>
  <property name="kdenlive:original.meta.media.0.codec.colorspace">709</property>
  <property name="kdenlive:original.meta.media.0.codec.name">h264</property>
  <property name="kdenlive:original.meta.media.0.codec.long_name">H.264 / AVC / MPEG-4 AVC / MPEG-4 part 10</property>
  <property name="kdenlive:original.meta.media.0.codec.bit_rate">767568</property>
  <property name="kdenlive:original.meta.attr.0.stream.handler_name.markup">VideoHandler</property>
  <property name="kdenlive:original.meta.attr.0.stream.vendor_id.markup">[0][0][0][0]</property>
  <property name="kdenlive:original.meta.attr.major_brand.markup">isom</property>
  <property name="kdenlive:original.meta.attr.minor_version.markup">512</property>
  <property name="kdenlive:original.meta.attr.compatible_brands.markup">isomiso2avc1mp41</property>
  <property name="kdenlive:original.meta.attr.encoder.markup">Lavf58.76.100</property>
  <property name="kdenlive:original.meta.attr.comment.markup">Rendered with Manim Community v0.12.0</property>
  <property name="kdenlive:original.seekable">1</property>
  <property name="kdenlive:original.width">3840</property>
  <property name="kdenlive:original.height">2160</property>
  <property name="kdenlive:original.meta.media.sample_aspect_num">1</property>
  <property name="kdenlive:original.meta.media.sample_aspect_den">1</property>
  <property name="kdenlive:original.aspect_ratio">1</property>
  <property name="kdenlive:original.audio_index">-1</property>
  <property name="kdenlive:original.video_index">0</property>
  <property name="kdenlive:original.mute_on_pause">0</property>
  <property name="kdenlive:original.mlt_service">avformat-novalidate</property>
  <property name="kdenlive:original.kdenlive:folderid">240</property>
  <property name="kdenlive:original.meta.media.frame_rate_num">60</property>
  <property name="kdenlive:original.meta.media.frame_rate_den">1</property>
  <property name="kdenlive:original.meta.media.colorspace">709</property>
  <property name="kdenlive:original.meta.media.color_trc">2</property>
  <property name="kdenlive:original.meta.media.has_b_frames">2</property>
  <property name="kdenlive:original.meta.media.width">3840</property>
  <property name="kdenlive:original.meta.media.height">2160</property>
  <property name="kdenlive:original.meta.media.color_range">mpeg</property>
  <property name="kdenlive:original.kdenlive:id">241</property>
  <property name="kdenlive:original.kdenlive:file_size">97562</property>
  <property name="kdenlive:original.kdenlive:file_hash">191ef707f8c2070c3294ac51176aabb3</property>
  <property name="kdenlive:original.backup">1</property>
  <property name="kdenlive:file_hash">191ef707f8c2070c3294ac51176aabb3</property>
  <property name="xml">was here</property>
  <property name="meta.media.nb_streams">1</property>
  <property name="meta.media.0.stream.type">video</property>
  <property name="meta.media.0.stream.frame_rate">60</property>
  <property name="meta.media.0.stream.sample_aspect_ratio">0</property>
  <property name="meta.media.0.codec.width">640</property>
  <property name="meta.media.0.codec.height">360</property>
  <property name="meta.media.0.codec.rotate">0</property>
  <property name="meta.media.0.codec.pix_fmt">yuv420p</property>
  <property name="meta.media.0.codec.sample_aspect_ratio">0</property>
  <property name="meta.media.0.codec.colorspace">601</property>
  <property name="meta.media.0.codec.name">h264</property>
  <property name="meta.media.0.codec.long_name">H.264 / AVC / MPEG-4 AVC / MPEG-4 part 10</property>
  <property name="meta.media.0.codec.bit_rate">895800</property>
  <property name="meta.attr.0.stream.handler_name.markup">VideoHandler</property>
  <property name="meta.attr.0.stream.vendor_id.markup">FFMP</property>
  <property name="meta.attr.0.stream.encoder.markup">Lavc58.134.100 libx264</property>
  <property name="meta.attr.major_brand.markup">qt  </property>
  <property name="meta.attr.minor_version.markup">512</property>
  <property name="meta.attr.compatible_brands.markup">qt  </property>
  <property name="meta.attr.encoder.markup">Lavf58.76.100</property>
  <property name="meta.attr.comment.markup">Rendered with Manim Community v0.12.0</property>
  <property name="meta.media.sample_aspect_num">1</property>
  <property name="meta.media.sample_aspect_den">1</property>
  <property name="meta.media.frame_rate_num">60</property>
  <property name="meta.media.frame_rate_den">1</property>
  <property name="meta.media.colorspace">601</property>
  <property name="meta.media.color_trc">2</property>
  <property name="meta.media.has_b_frames">0</property>
  <property name="meta.media.width">640</property>
  <property name="meta.media.height">360</property>
  <property name="meta.media.color_range">mpeg</property>
  <property name="set.test_audio">1</property>
  <property name="set.test_image">0</property>
  <property name="meta.media.top_field_first">0</property>
  <property name="meta.media.progressive">1</property>
 </producer>
 <producer id="producer506" in="00:00:00.000" out="00:00:00.983">
  <property name="length">60</property>
  <property name="eof">pause</property>
  <property name="resource">/home/xiaoxiae/.cache/kdenlive/proxy/056f27c3c2e949a219bb63b86d5ae40f.mov</property>
  <property name="audio_index">-1</property>
  <property name="video_index">0</property>
  <property name="mute_on_pause">0</property>
  <property name="mlt_service">avformat-novalidate</property>
  <property name="seekable">1</property>
  <property name="aspect_ratio">1</property>
  <property name="kdenlive:clipname">2.mp4</property>
  <property name="kdenlive:folderid">240</property>
  <property name="kdenlive:id">251</property>
  <property name="kdenlive:file_size">166090</property>
  <property name="kdenlive:proxy">/home/xiaoxiae/.cache/kdenlive/proxy/056f27c3c2e949a219bb63b86d5ae40f.mov</property>
  <property name="kdenlive:originalurl">video/ParenthesesExample/vid/2.mp4</property>
  <property name="kdenlive:original.mlt_type">producer</property>
  <property name="kdenlive:original.in">0</property>
  <property name="kdenlive:original.out">59</property>
  <property name="kdenlive:original.length">60</property>
  <property name="kdenlive:original.eof">pause</property>
  <property name="kdenlive:original.resource">video/ParenthesesExample/vid/2.mp4</property>
  <property name="kdenlive:original.meta.media.nb_streams">1</property>
  <property name="kdenlive:original.meta.media.0.stream.type">video</property>
  <property name="kdenlive:original.meta.media.0.stream.frame_rate">60</property>
  <property name="kdenlive:original.meta.media.0.stream.sample_aspect_ratio">0</property>
  <property name="kdenlive:original.meta.media.0.codec.width">3840</property>
  <property name="kdenlive:original.meta.media.0.codec.height">2160</property>
  <property name="kdenlive:original.meta.media.0.codec.rotate">0</property>
  <property name="kdenlive:original.meta.media.0.codec.pix_fmt">yuv420p</property>
  <property name="kdenlive:original.meta.media.0.codec.sample_aspect_ratio">0</property>
  <property name="kdenlive:original.meta.media.0.codec.colorspace">709</property>
  <property name="kdenlive:original.meta.media.0.codec.name">h264</property>
  <property name="kdenlive:original.meta.media.0.codec.long_name">H.264 / AVC / MPEG-4 AVC / MPEG-4 part 10</property>
  <property name="kdenlive:original.meta.media.0.codec.bit_rate">1315920</property>
  <property name="kdenlive:original.meta.attr.0.stream.handler_name.markup">VideoHandler</property>
  <property name="kdenlive:original.meta.attr.0.stream.vendor_id.markup">[0][0][0][0]</property>
  <property name="kdenlive:original.meta.attr.major_brand.markup">isom</property>
  <property name="kdenlive:original.meta.attr.minor_version.markup">512</property>
  <property name="kdenlive:original.meta.attr.compatible_brands.markup">isomiso2avc1mp41</property>
  <property name="kdenlive:original.meta.attr.encoder.markup">Lavf58.76.100</property>
  <property name="kdenlive:original.meta.attr.comment.markup">Rendered with Manim Community v0.12.0</property>
  <property name="kdenlive:original.seekable">1</property>
  <property name="kdenlive:original.width">3840</property>
  <property name="kdenlive:original.height">2160</property>
  <property name="kdenlive:original.meta.media.sample_aspect_num">1</property>
  <property name="kdenlive:original.meta.media.sample_aspect_den">1</property>
  <property name="kdenlive:original.aspect_ratio">1</property>
  <property name="kdenlive:original.audio_index">-1</property>
  <property name="kdenlive:original.video_index">0</property>
  <property name="kdenlive:original.mute_on_pause">0</property>
  <property name="kdenlive:original.mlt_service">avformat-novalidate</property>
  <property name="kdenlive:original.kdenlive:folderid">240</property>
  <property name="kdenlive:original.meta.media.frame_rate_num">60</property>
  <property name="kdenlive:original.meta.media.frame_rate_den">1</property>
  <property name="kdenlive:original.meta.media.colorspace">709</property>
  <property name="kdenlive:original.meta.media.color_trc">2</property>
  <property name="kdenlive:original.meta.media.has_b_frames">2</property>
  <property name="kdenlive:original.meta.media.width">3840</property>
  <property name="kdenlive:original.meta.media.height">2160</property>
  <property name="kdenlive:original.meta.media.color_range">mpeg</property>
  <property name="kdenlive:original.kdenlive:id">252</property>
  <property name="kdenlive:original.kdenlive:file_size">166090</property>
  <property name="kdenlive:original.kdenlive:file_hash">056f27c3c2e949a219bb63b86d5ae40f</property>
  <property name="kdenlive:original.backup">1</property>
  <property name="kdenlive:file_hash">056f27c3c2e949a219bb63b86d5ae40f</property>
  <property name="xml">was here</property>
  <property name="meta.media.nb_streams">1</property>
  <property name="meta.media.0.stream.type">video</property>
  <property name="meta.media.0.stream.frame_rate">60</property>
  <property name="meta.media.0.stream.sample_aspect_ratio">0</property>
  <property name="meta.media.0.codec.width">640</property>
  <property name="meta.media.0.codec.height">360</property>
  <property name="meta.media.0.codec.rotate">0</property>
  <property name="meta.media.0.codec.pix_fmt">yuv420p</property>
  <property name="meta.media.0.codec.sample_aspect_ratio">0</property>
  <property name="meta.media.0.codec.colorspace">601</property>
  <property name="meta.media.0.codec.name">h264</property>
  <property name="meta.media.0.codec.long_name">H.264 / AVC / MPEG-4 AVC / MPEG-4 part 10</property>
  <property name="meta.media.0.codec.bit_rate">1616248</property>
  <property name="meta.attr.0.stream.handler_name.markup">VideoHandler</property>
  <property name="meta.attr.0.stream.vendor_id.markup">FFMP</property>
  <property name="meta.attr.0.stream.encoder.markup">Lavc58.134.100 libx264</property>
  <property name="meta.attr.major_brand.markup">qt  </property>
  <property name="meta.attr.minor_version.markup">512</property>
  <property name="meta.attr.compatible_brands.markup">qt  </property>
  <property name="meta.attr.encoder.markup">Lavf58.76.100</property>
  <property name="meta.attr.comment.markup">Rendered with Manim Community v0.12.0</property>
  <property name="meta.media.sample_aspect_num">1</property>
  <property name="meta.media.sample_aspect_den">1</property>
  <property name="meta.media.frame_rate_num">60</property>
  <property name="meta.media.frame_rate_den">1</property>
  <property name="meta.media.colorspace">601</property>
  <property name="meta.media.color_trc">2</property>
  <property name="meta.media.has_b_frames">0</property>
  <property name="meta.media.width">640</property>
  <property name="meta.media.height">360</property>
  <property name="meta.media.color_range">mpeg</property>
  <property name="set.test_audio">1</property>
  <property name="set.test_image">0</property>
  <property name="meta.media.top_field_first">0</property>
  <property name="meta.media.progressive">1</property>
 </producer>
 <producer id="producer507" in="00:00:00.000" out="00:00:00.633">
  <property name="length">39</property>
  <property name="eof">pause</property>
  <property name="resource">/home/xiaoxiae/.cache/kdenlive/proxy/4fd8daa9fca6fa00835982dbde80805f.mov</property>
  <property name="audio_index">-1</property>
  <property name="video_index">0</property>
  <property name="mute_on_pause">0</property>
  <property name="mlt_service">avformat-novalidate</property>
  <property name="seekable">1</property>
  <property name="aspect_ratio">1</property>
  <property name="kdenlive:clipname">3.mp4</property>
  <property name="kdenlive:folderid">240</property>
  <property name="kdenlive:id">257</property>
  <property name="kdenlive:file_size">50438</property>
  <property name="kdenlive:proxy">/home/xiaoxiae/.cache/kdenlive/proxy/4fd8daa9fca6fa00835982dbde80805f.mov</property>
  <property name="kdenlive:originalurl">video/ParenthesesExample/vid/3.mp4</property>
  <property name="kdenlive:original.mlt_type">producer</property>
  <property name="kdenlive:original.in">0</property>
  <property name="kdenlive:original.out">38</property>
  <property name="kdenlive:original.length">39</property>
  <property name="kdenlive:original.eof">pause</property>
  <property name="kdenlive:original.resource">video/ParenthesesExample/vid/3.mp4</property>
  <property name="kdenlive:original.meta.media.nb_streams">1</property>
  <property name="kdenlive:original.meta.media.0.stream.type">video</property>
  <property name="kdenlive:original.meta.media.0.stream.frame_rate">60</property>
  <property name="kdenlive:original.meta.media.0.stream.sample_aspect_ratio">0</property>
  <property name="kdenlive:original.meta.media.0.codec.width">3840</property>
  <property name="kdenlive:original.meta.media.0.codec.height">2160</property>
  <property name="kdenlive:original.meta.media.0.codec.rotate">0</property>
  <property name="kdenlive:original.meta.media.0.codec.pix_fmt">yuv420p</property>
  <property name="kdenlive:original.meta.media.0.codec.sample_aspect_ratio">0</property>
  <property name="kdenlive:original.meta.media.0.codec.colorspace">709</property>
  <property name="kdenlive:original.meta.media.0.codec.name">h264</property>
  <property name="kdenlive:original.meta.media.0.codec.long_name">H.264 / AVC / MPEG-4 AVC / MPEG-4 part 10</property>
  <property name="kdenlive:original.meta.media.0.codec.bit_rate">603692</property>
  <property name="kdenlive:original.meta.attr.0.stream.handler_name.markup">VideoHandler</property>
  <property name="kdenlive:original.meta.attr.0.stream.vendor_id.markup">[0][0][0][0]</property>
  <property name="kdenlive:original.meta.attr.major_brand.markup">isom</property>
  <property name="kdenlive:original.meta.attr.minor_version.markup">512</property>
  <property name="kdenlive:original.meta.attr.compatible_brands.markup">isomiso2avc1mp41</property>
  <property name="kdenlive:original.meta.attr.encoder.markup">Lavf58.76.100</property>
  <property name="kdenlive:original.meta.attr.comment.markup">Rendered with Manim Community v0.12.0</property>
  <property name="kdenlive:original.seekable">1</property>
  <property name="kdenlive:original.width">3840</property>
  <property name="kdenlive:original.height">2160</property>
  <property name="kdenlive:original.meta.media.sample_aspect_num">1</property>
  <property name="kdenlive:original.meta.media.sample_aspect_den">1</property>
  <property name="kdenlive:original.aspect_ratio">1</property>
  <property name="kdenlive:original.audio_index">-1</property>
  <property name="kdenlive:original.video_index">0</property>
  <property name="kdenlive:original.mute_on_pause">0</property>
  <property name="kdenlive:original.mlt_service">avformat-novalidate</property>
  <property name="kdenlive:original.kdenlive:folderid">240</property>
  <property name="kdenlive:original.meta.media.frame_rate_num">60</property>
  <property name="kdenlive:original.meta.media.frame_rate_den">1</property>
  <property name="kdenlive:original.meta.media.colorspace">709</property>
  <property name="kdenlive:original.meta.media.color_trc">2</property>
  <property name="kdenlive:original.meta.media.has_b_frames">2</property>
  <property name="kdenlive:original.meta.media.width">3840</property>
  <property name="kdenlive:original.meta.media.height">2160</property>
  <property name="kdenlive:original.meta.media.color_range">mpeg</property>
  <property name="kdenlive:original.kdenlive:id">258</property>
  <property name="kdenlive:original.kdenlive:file_size">50438</property>
  <property name="kdenlive:original.kdenlive:file_hash">4fd8daa9fca6fa00835982dbde80805f</property>
  <property name="kdenlive:original.backup">1</property>
  <property name="kdenlive:file_hash">4fd8daa9fca6fa00835982dbde80805f</property>
  <property name="xml">was here</property>
  <property name="meta.media.nb_streams">1</property>
  <property name="meta.media.0.stream.type">video</property>
  <property name="meta.media.0.stream.frame_rate">60</property>
  <property name="meta.media.0.stream.sample_aspect_ratio">0</property>
  <property name="meta.media.0.codec.width">640</property>
  <property name="meta.media.0.codec.height">360</property>
  <property name="meta.media.0.codec.rotate">0</property>
  <property name="meta.media.0.codec.pix_fmt">yuv420p</property>
  <property name="meta.media.0.codec.sample_aspect_ratio">0</property>
  <property name="meta.media.0.codec.colorspace">601</property>
  <property name="meta.media.0.codec.name">h264</property>
  <property name="meta.media.0.codec.long_name">H.264 / AVC / MPEG-4 AVC / MPEG-4 part 10</property>
  <property name="meta.media.0.codec.bit_rate">1889440</property>
  <property name="meta.attr.0.stream.handler_name.markup">VideoHandler</property>
  <property name="meta.attr.0.stream.vendor_id.markup">FFMP</property>
  <property name="meta.attr.0.stream.encoder.markup">Lavc58.134.100 libx264</property>
  <property name="meta.attr.major_brand.markup">qt  </property>
  <property name="meta.attr.minor_version.markup">512</property>
  <property name="meta.attr.compatible_brands.markup">qt  </property>
  <property name="meta.attr.encoder.markup">Lavf58.76.100</property>
  <property name="meta.attr.comment.markup">Rendered with Manim Community v0.12.0</property>
  <property name="meta.media.sample_aspect_num">1</property>
  <property name="meta.media.sample_aspect_den">1</property>
  <property name="meta.media.frame_rate_num">60</property>
  <property name="meta.media.frame_rate_den">1</property>
  <property name="meta.media.colorspace">601</property>
  <property name="meta.media.color_trc">2</property>
  <property name="meta.media.has_b_frames">0</property>
  <property name="meta.media.width">640</property>
  <property name="meta.media.height">360</property>
  <property name="meta.media.color_range">mpeg</property>
  <property name="set.test_audio">1</property>
  <property name="set.test_image">0</property>
 </producer>
 <producer id="producer508" in="00:00:00.000" out="00:00:00.983">
  <property name="length">60</property>
  <property name="eof">pause</property>
  <property name="resource">/home/xiaoxiae/.cache/kdenlive/proxy/9acb32fb6c3b6e5ab3333dd46d39e76e.mov</property>
  <property name="audio_index">-1</property>
  <property name="video_index">0</property>
  <property name="mute_on_pause">0</property>
  <property name="mlt_service">avformat-novalidate</property>
  <property name="seekable">1</property>
  <property name="aspect_ratio">1</property>
  <property name="kdenlive:clipname">4.mp4</property>
  <property name="kdenlive:folderid">240</property>
  <property name="kdenlive:id">258</property>
  <property name="kdenlive:file_size">401130</property>
  <property name="kdenlive:proxy">/home/xiaoxiae/.cache/kdenlive/proxy/9acb32fb6c3b6e5ab3333dd46d39e76e.mov</property>
  <property name="kdenlive:originalurl">video/ParenthesesExample/vid/4.mp4</property>
  <property name="kdenlive:original.mlt_type">producer</property>
  <property name="kdenlive:original.in">0</property>
  <property name="kdenlive:original.out">59</property>
  <property name="kdenlive:original.length">60</property>
  <property name="kdenlive:original.eof">pause</property>
  <property name="kdenlive:original.resource">video/ParenthesesExample/vid/4.mp4</property>
  <property name="kdenlive:original.meta.media.nb_streams">1</property>
  <property name="kdenlive:original.meta.media.0.stream.type">video</property>
  <property name="kdenlive:original.meta.media.0.stream.frame_rate">60</property>
  <property name="kdenlive:original.meta.media.0.stream.sample_aspect_ratio">0</property>
  <property name="kdenlive:original.meta.media.0.codec.width">3840</property>
  <property name="kdenlive:original.meta.media.0.codec.height">2160</property>
  <property name="kdenlive:original.meta.media.0.codec.rotate">0</property>
  <property name="kdenlive:original.meta.media.0.codec.pix_fmt">yuv420p</property>
  <property name="kdenlive:original.meta.media.0.codec.sample_aspect_ratio">0</property>
  <property name="kdenlive:original.meta.media.0.codec.colorspace">709</property>
  <property name="kdenlive:original.meta.media.0.codec.name">h264</property>
  <property name="kdenlive:original.meta.media.0.codec.long_name">H.264 / AVC / MPEG-4 AVC / MPEG-4 part 10</property>
  <property name="kdenlive:original.meta.media.0.codec.bit_rate">3196368</property>
  <property name="kdenlive:original.meta.attr.0.stream.handler_name.markup">VideoHandler</property>
  <property name="kdenlive:original.meta.attr.0.stream.vendor_id.markup">[0][0][0][0]</property>
  <property name="kdenlive:original.meta.attr.major_brand.markup">isom</property>
  <property name="kdenlive:original.meta.attr.minor_version.markup">512</property>
  <property name="kdenlive:original.meta.attr.compatible_brands.markup">isomiso2avc1mp41</property>
  <property name="kdenlive:original.meta.attr.encoder.markup">Lavf58.76.100</property>
  <property name="kdenlive:original.meta.attr.comment.markup">Rendered with Manim Community v0.12.0</property>
  <property name="kdenlive:original.seekable">1</property>
  <property name="kdenlive:original.width">3840</property>
  <property name="kdenlive:original.height">2160</property>
  <property name="kdenlive:original.meta.media.sample_aspect_num">1</property>
  <property name="kdenlive:original.meta.media.sample_aspect_den">1</property>
  <property name="kdenlive:original.aspect_ratio">1</property>
  <property name="kdenlive:original.audio_index">-1</property>
  <property name="kdenlive:original.video_index">0</property>
  <property name="kdenlive:original.mute_on_pause">0</property>
  <property name="kdenlive:original.mlt_service">avformat-novalidate</property>
  <property name="kdenlive:original.kdenlive:folderid">240</property>
  <property name="kdenlive:original.meta.media.frame_rate_num">60</property>
  <property name="kdenlive:original.meta.media.frame_rate_den">1</property>
  <property name="kdenlive:original.meta.media.colorspace">709</property>
  <property name="kdenlive:original.meta.media.color_trc">2</property>
  <property name="kdenlive:original.meta.media.has_b_frames">2</property>
  <property name="kdenlive:original.meta.media.width">3840</property>
  <property name="kdenlive:original.meta.media.height">2160</property>
  <property name="kdenlive:original.meta.media.color_range">mpeg</property>
  <property name="kdenlive:original.kdenlive:id">259</property>
  <property name="kdenlive:original.kdenlive:file_size">401130</property>
  <property name="kdenlive:original.kdenlive:file_hash">9acb32fb6c3b6e5ab3333dd46d39e76e</property>
  <property name="kdenlive:original.backup">1</property>
  <property name="kdenlive:file_hash">9acb32fb6c3b6e5ab3333dd46d39e76e</property>
  <property name="xml">was here</property>
  <property name="meta.media.nb_streams">1</property>
  <property name="meta.media.0.stream.type">video</property>
  <property name="meta.media.0.stream.frame_rate">60</property>
  <property name="meta.media.0.stream.sample_aspect_ratio">0</property>
  <property name="meta.media.0.codec.width">640</property>
  <property name="meta.media.0.codec.height">360</property>
  <property name="meta.media.0.codec.rotate">0</property>
  <property name="meta.media.0.codec.pix_fmt">yuv420p</property>
  <property name="meta.media.0.codec.sample_aspect_ratio">0</property>
  <property name="meta.media.0.codec.colorspace">601</property>
  <property name="meta.media.0.codec.name">h264</property>
  <property name="meta.media.0.codec.long_name">H.264 / AVC / MPEG-4 AVC / MPEG-4 part 10</property>
  <property name="meta.media.0.codec.bit_rate">2319560</property>
  <property name="meta.attr.0.stream.handler_name.markup">VideoHandler</property>
  <property name="meta.attr.0.stream.vendor_id.markup">FFMP</property>
  <property name="meta.attr.0.stream.encoder.markup">Lavc58.134.100 libx264</property>
  <property name="meta.attr.major_brand.markup">qt  </property>
  <property name="meta.attr.minor_version.markup">512</property>
  <property name="meta.attr.compatible_brands.markup">qt  </property>
  <property name="meta.attr.encoder.markup">Lavf58.76.100</property>
  <property name="meta.attr.comment.markup">Rendered with Manim Community v0.12.0</property>
  <property name="meta.media.sample_aspect_num">1</property>
  <property name="meta.media.sample_aspect_den">1</property>
  <property name="meta.media.frame_rate_num">60</property>
  <property name="meta.media.frame_rate_den">1</property>
  <property name="meta.media.colorspace">601</property>
  <property name="meta.media.color_trc">2</property>
  <property name="meta.media.has_b_frames">0</property>
  <property name="meta.media.width">640</property>
  <property name="meta.media.height">360</property>
  <property name="meta.media.color_range">mpeg</property>
  <property name="set.test_audio">1</property>
  <property name="set.test_image">0</property>
 </producer>
 <producer id="producer509" in="00:00:00.000" out="00:00:01.600">
  <property name="length">97</property>
  <property name="eof">pause</property>
  <property name="resource">/home/xiaoxiae/.cache/kdenlive/proxy/3f1636207c26afe386c4843a48736f65.mov</property>
  <property name="audio_index">-1</property>
  <property name="video_index">0</property>
  <property name="mute_on_pause">0</property>
  <property name="mlt_service">avformat-novalidate</property>
  <property name="seekable">1</property>
  <property name="aspect_ratio">1</property>
  <property name="kdenlive:clipname">5.mp4</property>
  <property name="kdenlive:folderid">240</property>
  <property name="kdenlive:id">259</property>
  <property name="kdenlive:file_size">500834</property>
  <property name="kdenlive:proxy">/home/xiaoxiae/.cache/kdenlive/proxy/3f1636207c26afe386c4843a48736f65.mov</property>
  <property name="kdenlive:originalurl">video/ParenthesesExample/vid/5.mp4</property>
  <property name="kdenlive:original.mlt_type">producer</property>
  <property name="kdenlive:original.in">0</property>
  <property name="kdenlive:original.out">96</property>
  <property name="kdenlive:original.length">97</property>
  <property name="kdenlive:original.eof">pause</property>
  <property name="kdenlive:original.resource">video/ParenthesesExample/vid/5.mp4</property>
  <property name="kdenlive:original.meta.media.nb_streams">1</property>
  <property name="kdenlive:original.meta.media.0.stream.type">video</property>
  <property name="kdenlive:original.meta.media.0.stream.frame_rate">60</property>
  <property name="kdenlive:original.meta.media.0.stream.sample_aspect_ratio">0</property>
  <property name="kdenlive:original.meta.media.0.codec.width">3840</property>
  <property name="kdenlive:original.meta.media.0.codec.height">2160</property>
  <property name="kdenlive:original.meta.media.0.codec.rotate">0</property>
  <property name="kdenlive:original.meta.media.0.codec.pix_fmt">yuv420p</property>
  <property name="kdenlive:original.meta.media.0.codec.sample_aspect_ratio">0</property>
  <property name="kdenlive:original.meta.media.0.codec.colorspace">709</property>
  <property name="kdenlive:original.meta.media.0.codec.name">h264</property>
  <property name="kdenlive:original.meta.media.0.codec.long_name">H.264 / AVC / MPEG-4 AVC / MPEG-4 part 10</property>
  <property name="kdenlive:original.meta.media.0.codec.bit_rate">2469030</property>
  <property name="kdenlive:original.meta.attr.0.stream.handler_name.markup">VideoHandler</property>
  <property name="kdenlive:original.meta.attr.0.stream.vendor_id.markup">[0][0][0][0]</property>
  <property name="kdenlive:original.meta.attr.major_brand.markup">isom</property>
  <property name="kdenlive:original.meta.attr.minor_version.markup">512</property>
  <property name="kdenlive:original.meta.attr.compatible_brands.markup">isomiso2avc1mp41</property>
  <property name="kdenlive:original.meta.attr.encoder.markup">Lavf58.76.100</property>
  <property name="kdenlive:original.meta.attr.comment.markup">Rendered with Manim Community v0.12.0</property>
  <property name="kdenlive:original.seekable">1</property>
  <property name="kdenlive:original.width">3840</property>
  <property name="kdenlive:original.height">2160</property>
  <property name="kdenlive:original.meta.media.sample_aspect_num">1</property>
  <property name="kdenlive:original.meta.media.sample_aspect_den">1</property>
  <property name="kdenlive:original.aspect_ratio">1</property>
  <property name="kdenlive:original.audio_index">-1</property>
  <property name="kdenlive:original.video_index">0</property>
  <property name="kdenlive:original.mute_on_pause">0</property>
  <property name="kdenlive:original.mlt_service">avformat-novalidate</property>
  <property name="kdenlive:original.kdenlive:folderid">240</property>
  <property name="kdenlive:original.meta.media.frame_rate_num">60</property>
  <property name="kdenlive:original.meta.media.frame_rate_den">1</property>
  <property name="kdenlive:original.meta.media.colorspace">709</property>
  <property name="kdenlive:original.meta.media.color_trc">2</property>
  <property name="kdenlive:original.meta.media.has_b_frames">2</property>
  <property name="kdenlive:original.meta.media.width">3840</property>
  <property name="kdenlive:original.meta.media.height">2160</property>
  <property name="kdenlive:original.meta.media.color_range">mpeg</property>
  <property name="kdenlive:original.kdenlive:id">260</property>
  <property name="kdenlive:original.kdenlive:file_size">500834</property>
  <property name="kdenlive:original.kdenlive:file_hash">3f1636207c26afe386c4843a48736f65</property>
  <property name="kdenlive:original.backup">1</property>
  <property name="kdenlive:file_hash">3f1636207c26afe386c4843a48736f65</property>
  <property name="xml">was here</property>
  <property name="meta.media.nb_streams">1</property>
  <property name="meta.media.0.stream.type">video</property>
  <property name="meta.media.0.stream.frame_rate">60</property>
  <property name="meta.media.0.stream.sample_aspect_ratio">0</property>
  <property name="meta.media.0.codec.width">640</property>
  <property name="meta.media.0.codec.height">360</property>
  <property name="meta.media.0.codec.rotate">0</property>
  <property name="meta.media.0.codec.pix_fmt">yuv420p</property>
  <property name="meta.media.0.codec.sample_aspect_ratio">0</property>
  <property name="meta.media.0.codec.colorspace">601</property>
  <property name="meta.media.0.codec.name">h264</property>
  <property name="meta.media.0.codec.long_name">H.264 / AVC / MPEG-4 AVC / MPEG-4 part 10</property>
  <property name="meta.media.0.codec.bit_rate">4035656</property>
  <property name="meta.attr.0.stream.handler_name.markup">VideoHandler</property>
  <property name="meta.attr.0.stream.vendor_id.markup">FFMP</property>
  <property name="meta.attr.0.stream.encoder.markup">Lavc58.134.100 libx264</property>
  <property name="meta.attr.major_brand.markup">qt  </property>
  <property name="meta.attr.minor_version.markup">512</property>
  <property name="meta.attr.compatible_brands.markup">qt  </property>
  <property name="meta.attr.encoder.markup">Lavf58.76.100</property>
  <property name="meta.attr.comment.markup">Rendered with Manim Community v0.12.0</property>
  <property name="meta.media.sample_aspect_num">1</property>
  <property name="meta.media.sample_aspect_den">1</property>
  <property name="meta.media.frame_rate_num">60</property>
  <property name="meta.media.frame_rate_den">1</property>
  <property name="meta.media.colorspace">601</property>
  <property name="meta.media.color_trc">2</property>
  <property name="meta.media.has_b_frames">0</property>
  <property name="meta.media.width">640</property>
  <property name="meta.media.height">360</property>
  <property name="meta.media.color_range">mpeg</property>
  <property name="set.test_audio">1</property>
  <property name="set.test_image">0</property>
 </producer>
 <producer id="producer510" in="00:00:00.000" out="00:00:00.983">
  <property name="length">60</property>
  <property name="eof">pause</property>
  <property name="resource">/home/xiaoxiae/.cache/kdenlive/proxy/2b788cc9cada7ec2284a8b15ab9b9ddf.mov</property>
  <property name="audio_index">-1</property>
  <property name="video_index">0</property>
  <property name="mute_on_pause">0</property>
  <property name="mlt_service">avformat-novalidate</property>
  <property name="seekable">1</property>
  <property name="aspect_ratio">1</property>
  <property name="kdenlive:clipname">6.mp4</property>
  <property name="kdenlive:file_size">141104</property>
  <property name="kdenlive:folderid">240</property>
  <property name="kdenlive:id">260</property>
  <property name="kdenlive:proxy">/home/xiaoxiae/.cache/kdenlive/proxy/2b788cc9cada7ec2284a8b15ab9b9ddf.mov</property>
  <property name="kdenlive:originalurl">video/ParenthesesExample/vid/6.mp4</property>
  <property name="kdenlive:original.mlt_type">producer</property>
  <property name="kdenlive:original.in">0</property>
  <property name="kdenlive:original.out">59</property>
  <property name="kdenlive:original.length">60</property>
  <property name="kdenlive:original.eof">pause</property>
  <property name="kdenlive:original.resource">video/ParenthesesExample/vid/6.mp4</property>
  <property name="kdenlive:original.meta.media.nb_streams">1</property>
  <property name="kdenlive:original.meta.media.0.stream.type">video</property>
  <property name="kdenlive:original.meta.media.0.stream.frame_rate">60</property>
  <property name="kdenlive:original.meta.media.0.stream.sample_aspect_ratio">0</property>
  <property name="kdenlive:original.meta.media.0.codec.width">3840</property>
  <property name="kdenlive:original.meta.media.0.codec.height">2160</property>
  <property name="kdenlive:original.meta.media.0.codec.rotate">0</property>
  <property name="kdenlive:original.meta.media.0.codec.pix_fmt">yuv420p</property>
  <property name="kdenlive:original.meta.media.0.codec.sample_aspect_ratio">0</property>
  <property name="kdenlive:original.meta.media.0.codec.colorspace">709</property>
  <property name="kdenlive:original.meta.media.0.codec.name">h264</property>
  <property name="kdenlive:original.meta.media.0.codec.long_name">H.264 / AVC / MPEG-4 AVC / MPEG-4 part 10</property>
  <property name="kdenlive:original.meta.media.0.codec.bit_rate">1115776</property>
  <property name="kdenlive:original.meta.attr.0.stream.handler_name.markup">VideoHandler</property>
  <property name="kdenlive:original.meta.attr.0.stream.vendor_id.markup">[0][0][0][0]</property>
  <property name="kdenlive:original.meta.attr.major_brand.markup">isom</property>
  <property name="kdenlive:original.meta.attr.minor_version.markup">512</property>
  <property name="kdenlive:original.meta.attr.compatible_brands.markup">isomiso2avc1mp41</property>
  <property name="kdenlive:original.meta.attr.encoder.markup">Lavf58.76.100</property>
  <property name="kdenlive:original.meta.attr.comment.markup">Rendered with Manim Community v0.12.0</property>
  <property name="kdenlive:original.seekable">1</property>
  <property name="kdenlive:original.width">3840</property>
  <property name="kdenlive:original.height">2160</property>
  <property name="kdenlive:original.meta.media.sample_aspect_num">1</property>
  <property name="kdenlive:original.meta.media.sample_aspect_den">1</property>
  <property name="kdenlive:original.aspect_ratio">1</property>
  <property name="kdenlive:original.audio_index">-1</property>
  <property name="kdenlive:original.video_index">0</property>
  <property name="kdenlive:original.mute_on_pause">0</property>
  <property name="kdenlive:original.mlt_service">avformat-novalidate</property>
  <property name="kdenlive:original.kdenlive:file_size">141104</property>
  <property name="kdenlive:original.kdenlive:folderid">240</property>
  <property name="kdenlive:original.meta.media.frame_rate_num">60</property>
  <property name="kdenlive:original.meta.media.frame_rate_den">1</property>
  <property name="kdenlive:original.meta.media.colorspace">709</property>
  <property name="kdenlive:original.meta.media.color_trc">2</property>
  <property name="kdenlive:original.meta.media.has_b_frames">2</property>
  <property name="kdenlive:original.meta.media.width">3840</property>
  <property name="kdenlive:original.meta.media.height">2160</property>
  <property name="kdenlive:original.meta.media.color_range">mpeg</property>
  <property name="kdenlive:original.kdenlive:id">261</property>
  <property name="kdenlive:original.kdenlive:file_hash">2b788cc9cada7ec2284a8b15ab9b9ddf</property>
  <property name="kdenlive:original.backup">1</property>
  <property name="kdenlive:file_hash">2b788cc9cada7ec2284a8b15ab9b9ddf</property>
  <property name="xml">was here</property>
  <property name="meta.media.nb_streams">1</property>
  <property name="meta.media.0.stream.type">video</property>
  <property name="meta.media.0.stream.frame_rate">60</property>
  <property name="meta.media.0.stream.sample_aspect_ratio">0</property>
  <property name="meta.media.0.codec.width">640</property>
  <property name="meta.media.0.codec.height">360</property>
  <property name="meta.media.0.codec.rotate">0</property>
  <property name="meta.media.0.codec.pix_fmt">yuv420p</property>
  <property name="meta.media.0.codec.sample_aspect_ratio">0</property>
  <property name="meta.media.0.codec.colorspace">601</property>
  <property name="meta.media.0.codec.name">h264</property>
  <property name="meta.media.0.codec.long_name">H.264 / AVC / MPEG-4 AVC / MPEG-4 part 10</property>
  <property name="meta.media.0.codec.bit_rate">4431864</property>
  <property name="meta.attr.0.stream.handler_name.markup">VideoHandler</property>
  <property name="meta.attr.0.stream.vendor_id.markup">FFMP</property>
  <property name="meta.attr.0.stream.encoder.markup">Lavc58.134.100 libx264</property>
  <property name="meta.attr.major_brand.markup">qt  </property>
  <property name="meta.attr.minor_version.markup">512</property>
  <property name="meta.attr.compatible_brands.markup">qt  </property>
  <property name="meta.attr.encoder.markup">Lavf58.76.100</property>
  <property name="meta.attr.comment.markup">Rendered with Manim Community v0.12.0</property>
  <property name="meta.media.sample_aspect_num">1</property>
  <property name="meta.media.sample_aspect_den">1</property>
  <property name="meta.media.frame_rate_num">60</property>
  <property name="meta.media.frame_rate_den">1</property>
  <property name="meta.media.colorspace">601</property>
  <property name="meta.media.color_trc">2</property>
  <property name="meta.media.has_b_frames">0</property>
  <property name="meta.media.width">640</property>
  <property name="meta.media.height">360</property>
  <property name="meta.media.color_range">mpeg</property>
  <property name="set.test_audio">1</property>
  <property name="set.test_image">0</property>
  <property name="meta.media.top_field_first">0</property>
  <property name="meta.media.progressive">1</property>
 </producer>
 <producer id="producer511" in="00:00:00.000" out="00:00:00.983">
  <property name="length">60</property>
  <property name="eof">pause</property>
  <property name="resource">/home/xiaoxiae/.cache/kdenlive/proxy/9a95420104653c2989898c29f021d91f.mov</property>
  <property name="audio_index">-1</property>
  <property name="video_index">0</property>
  <property name="mute_on_pause">0</property>
  <property name="mlt_service">avformat-novalidate</property>
  <property name="seekable">1</property>
  <property name="aspect_ratio">1</property>
  <property name="kdenlive:clipname">7.mp4</property>
  <property name="kdenlive:folderid">240</property>
  <property name="kdenlive:id">261</property>
  <property name="kdenlive:file_size">140774</property>
  <property name="kdenlive:proxy">/home/xiaoxiae/.cache/kdenlive/proxy/9a95420104653c2989898c29f021d91f.mov</property>
  <property name="kdenlive:originalurl">video/ParenthesesExample/vid/7.mp4</property>
  <property name="kdenlive:original.mlt_type">producer</property>
  <property name="kdenlive:original.in">0</property>
  <property name="kdenlive:original.out">59</property>
  <property name="kdenlive:original.length">60</property>
  <property name="kdenlive:original.eof">pause</property>
  <property name="kdenlive:original.resource">video/ParenthesesExample/vid/7.mp4</property>
  <property name="kdenlive:original.meta.media.nb_streams">1</property>
  <property name="kdenlive:original.meta.media.0.stream.type">video</property>
  <property name="kdenlive:original.meta.media.0.stream.frame_rate">60</property>
  <property name="kdenlive:original.meta.media.0.stream.sample_aspect_ratio">0</property>
  <property name="kdenlive:original.meta.media.0.codec.width">3840</property>
  <property name="kdenlive:original.meta.media.0.codec.height">2160</property>
  <property name="kdenlive:original.meta.media.0.codec.rotate">0</property>
  <property name="kdenlive:original.meta.media.0.codec.pix_fmt">yuv420p</property>
  <property name="kdenlive:original.meta.media.0.codec.sample_aspect_ratio">0</property>
  <property name="kdenlive:original.meta.media.0.codec.colorspace">709</property>
  <property name="kdenlive:original.meta.media.0.codec.name">h264</property>
  <property name="kdenlive:original.meta.media.0.codec.long_name">H.264 / AVC / MPEG-4 AVC / MPEG-4 part 10</property>
  <property name="kdenlive:original.meta.media.0.codec.bit_rate">1113136</property>
  <property name="kdenlive:original.meta.attr.0.stream.handler_name.markup">VideoHandler</property>
  <property name="kdenlive:original.meta.attr.0.stream.vendor_id.markup">[0][0][0][0]</property>
  <property name="kdenlive:original.meta.attr.major_brand.markup">isom</property>
  <property name="kdenlive:original.meta.attr.minor_version.markup">512</property>
  <property name="kdenlive:original.meta.attr.compatible_brands.markup">isomiso2avc1mp41</property>
  <property name="kdenlive:original.meta.attr.encoder.markup">Lavf58.76.100</property>
  <property name="kdenlive:original.meta.attr.comment.markup">Rendered with Manim Community v0.12.0</property>
  <property name="kdenlive:original.seekable">1</property>
  <property name="kdenlive:original.width">3840</property>
  <property name="kdenlive:original.height">2160</property>
  <property name="kdenlive:original.meta.media.sample_aspect_num">1</property>
  <property name="kdenlive:original.meta.media.sample_aspect_den">1</property>
  <property name="kdenlive:original.aspect_ratio">1</property>
  <property name="kdenlive:original.audio_index">-1</property>
  <property name="kdenlive:original.video_index">0</property>
  <property name="kdenlive:original.mute_on_pause">0</property>
  <property name="kdenlive:original.mlt_service">avformat-novalidate</property>
  <property name="kdenlive:original.kdenlive:folderid">240</property>
  <property name="kdenlive:original.meta.media.frame_rate_num">60</property>
  <property name="kdenlive:original.meta.media.frame_rate_den">1</property>
  <property name="kdenlive:original.meta.media.colorspace">709</property>
  <property name="kdenlive:original.meta.media.color_trc">2</property>
  <property name="kdenlive:original.meta.media.has_b_frames">2</property>
  <property name="kdenlive:original.meta.media.width">3840</property>
  <property name="kdenlive:original.meta.media.height">2160</property>
  <property name="kdenlive:original.meta.media.color_range">mpeg</property>
  <property name="kdenlive:original.kdenlive:id">262</property>
  <property name="kdenlive:original.kdenlive:file_size">140774</property>
  <property name="kdenlive:original.kdenlive:file_hash">9a95420104653c2989898c29f021d91f</property>
  <property name="kdenlive:original.backup">1</property>
  <property name="kdenlive:file_hash">9a95420104653c2989898c29f021d91f</property>
  <property name="xml">was here</property>
  <property name="meta.media.nb_streams">1</property>
  <property name="meta.media.0.stream.type">video</property>
  <property name="meta.media.0.stream.frame_rate">60</property>
  <property name="meta.media.0.stream.sample_aspect_ratio">0</property>
  <property name="meta.media.0.codec.width">640</property>
  <property name="meta.media.0.codec.height">360</property>
  <property name="meta.media.0.codec.rotate">0</property>
  <property name="meta.media.0.codec.pix_fmt">yuv420p</property>
  <property name="meta.media.0.codec.sample_aspect_ratio">0</property>
  <property name="meta.media.0.codec.colorspace">601</property>
  <property name="meta.media.0.codec.name">h264</property>
  <property name="meta.media.0.codec.long_name">H.264 / AVC / MPEG-4 AVC / MPEG-4 part 10</property>
  <property name="meta.media.0.codec.bit_rate">4372504</property>
  <property name="meta.attr.0.stream.handler_name.markup">VideoHandler</property>
  <property name="meta.attr.0.stream.vendor_id.markup">FFMP</property>
  <property name="meta.attr.0.stream.encoder.markup">Lavc58.134.100 libx264</property>
  <property name="meta.attr.major_brand.markup">qt  </property>
  <property name="meta.attr.minor_version.markup">512</property>
  <property name="meta.attr.compatible_brands.markup">qt  </property>
  <property name="meta.attr.encoder.markup">Lavf58.76.100</property>
  <property name="meta.attr.comment.markup">Rendered with Manim Community v0.12.0</property>
  <property name="meta.media.sample_aspect_num">1</property>
  <property name="meta.media.sample_aspect_den">1</property>
  <property name="meta.media.frame_rate_num">60</property>
  <property name="meta.media.frame_rate_den">1</property>
  <property name="meta.media.colorspace">601</property>
  <property name="meta.media.color_trc">2</property>
  <property name="meta.media.has_b_frames">0</property>
  <property name="meta.media.width">640</property>
  <property name="meta.media.height">360</property>
  <property name="meta.media.color_range">mpeg</property>
  <property name="set.test_audio">1</property>
  <property name="set.test_image">0</property>
  <property name="meta.media.top_field_first">0</property>
  <property name="meta.media.progressive">1</property>
 </producer>
 <producer id="producer512" in="00:00:00.000" out="00:00:00.733">
  <property name="length">45</property>
  <property name="eof">pause</property>
  <property name="resource">/home/xiaoxiae/.cache/kdenlive/proxy/5401480760063698c66b72bc304ae979.mov</property>
  <property name="audio_index">-1</property>
  <property name="video_index">0</property>
  <property name="mute_on_pause">0</property>
  <property name="mlt_service">avformat-novalidate</property>
  <property name="seekable">1</property>
  <property name="aspect_ratio">1</property>
  <property name="kdenlive:clipname">8.mp4</property>
  <property name="kdenlive:folderid">240</property>
  <property name="kdenlive:id">262</property>
  <property name="kdenlive:file_size">206441</property>
  <property name="kdenlive:proxy">/home/xiaoxiae/.cache/kdenlive/proxy/5401480760063698c66b72bc304ae979.mov</property>
  <property name="kdenlive:originalurl">video/ParenthesesExample/vid/8.mp4</property>
  <property name="kdenlive:original.mlt_type">producer</property>
  <property name="kdenlive:original.in">0</property>
  <property name="kdenlive:original.out">44</property>
  <property name="kdenlive:original.length">45</property>
  <property name="kdenlive:original.eof">pause</property>
  <property name="kdenlive:original.resource">video/ParenthesesExample/vid/8.mp4</property>
  <property name="kdenlive:original.meta.media.nb_streams">1</property>
  <property name="kdenlive:original.meta.media.0.stream.type">video</property>
  <property name="kdenlive:original.meta.media.0.stream.frame_rate">60</property>
  <property name="kdenlive:original.meta.media.0.stream.sample_aspect_ratio">0</property>
  <property name="kdenlive:original.meta.media.0.codec.width">3840</property>
  <property name="kdenlive:original.meta.media.0.codec.height">2160</property>
  <property name="kdenlive:original.meta.media.0.codec.rotate">0</property>
  <property name="kdenlive:original.meta.media.0.codec.pix_fmt">yuv420p</property>
  <property name="kdenlive:original.meta.media.0.codec.sample_aspect_ratio">0</property>
  <property name="kdenlive:original.meta.media.0.codec.colorspace">709</property>
  <property name="kdenlive:original.meta.media.0.codec.name">h264</property>
  <property name="kdenlive:original.meta.media.0.codec.long_name">H.264 / AVC / MPEG-4 AVC / MPEG-4 part 10</property>
  <property name="kdenlive:original.meta.media.0.codec.bit_rate">2186634</property>
  <property name="kdenlive:original.meta.attr.0.stream.handler_name.markup">VideoHandler</property>
  <property name="kdenlive:original.meta.attr.0.stream.vendor_id.markup">[0][0][0][0]</property>
  <property name="kdenlive:original.meta.attr.major_brand.markup">isom</property>
  <property name="kdenlive:original.meta.attr.minor_version.markup">512</property>
  <property name="kdenlive:original.meta.attr.compatible_brands.markup">isomiso2avc1mp41</property>
  <property name="kdenlive:original.meta.attr.encoder.markup">Lavf58.76.100</property>
  <property name="kdenlive:original.meta.attr.comment.markup">Rendered with Manim Community v0.12.0</property>
  <property name="kdenlive:original.seekable">1</property>
  <property name="kdenlive:original.width">3840</property>
  <property name="kdenlive:original.height">2160</property>
  <property name="kdenlive:original.meta.media.sample_aspect_num">1</property>
  <property name="kdenlive:original.meta.media.sample_aspect_den">1</property>
  <property name="kdenlive:original.aspect_ratio">1</property>
  <property name="kdenlive:original.audio_index">-1</property>
  <property name="kdenlive:original.video_index">0</property>
  <property name="kdenlive:original.mute_on_pause">0</property>
  <property name="kdenlive:original.mlt_service">avformat-novalidate</property>
  <property name="kdenlive:original.kdenlive:folderid">240</property>
  <property name="kdenlive:original.meta.media.frame_rate_num">60</property>
  <property name="kdenlive:original.meta.media.frame_rate_den">1</property>
  <property name="kdenlive:original.meta.media.colorspace">709</property>
  <property name="kdenlive:original.meta.media.color_trc">2</property>
  <property name="kdenlive:original.meta.media.has_b_frames">2</property>
  <property name="kdenlive:original.meta.media.width">3840</property>
  <property name="kdenlive:original.meta.media.height">2160</property>
  <property name="kdenlive:original.meta.media.color_range">mpeg</property>
  <property name="kdenlive:original.kdenlive:id">263</property>
  <property name="kdenlive:original.kdenlive:file_size">206441</property>
  <property name="kdenlive:original.kdenlive:file_hash">5401480760063698c66b72bc304ae979</property>
  <property name="kdenlive:original.backup">1</property>
  <property name="kdenlive:file_hash">5401480760063698c66b72bc304ae979</property>
  <property name="xml">was here</property>
  <property name="meta.media.nb_streams">1</property>
  <property name="meta.media.0.stream.type">video</property>
  <property name="meta.media.0.stream.frame_rate">60</property>
  <property name="meta.media.0.stream.sample_aspect_ratio">0</property>
  <property name="meta.media.0.codec.width">640</property>
  <property name="meta.media.0.codec.height">360</property>
  <property name="meta.media.0.codec.rotate">0</property>
  <property name="meta.media.0.codec.pix_fmt">yuv420p</property>
  <property name="meta.media.0.codec.sample_aspect_ratio">0</property>
  <property name="meta.media.0.codec.colorspace">601</property>
  <property name="meta.media.0.codec.name">h264</property>
  <property name="meta.media.0.codec.long_name">H.264 / AVC / MPEG-4 AVC / MPEG-4 part 10</property>
  <property name="meta.media.0.codec.bit_rate">4323637</property>
  <property name="meta.attr.0.stream.handler_name.markup">VideoHandler</property>
  <property name="meta.attr.0.stream.vendor_id.markup">FFMP</property>
  <property name="meta.attr.0.stream.encoder.markup">Lavc58.134.100 libx264</property>
  <property name="meta.attr.major_brand.markup">qt  </property>
  <property name="meta.attr.minor_version.markup">512</property>
  <property name="meta.attr.compatible_brands.markup">qt  </property>
  <property name="meta.attr.encoder.markup">Lavf58.76.100</property>
  <property name="meta.attr.comment.markup">Rendered with Manim Community v0.12.0</property>
  <property name="meta.media.sample_aspect_num">1</property>
  <property name="meta.media.sample_aspect_den">1</property>
  <property name="meta.media.frame_rate_num">60</property>
  <property name="meta.media.frame_rate_den">1</property>
  <property name="meta.media.colorspace">601</property>
  <property name="meta.media.color_trc">2</property>
  <property name="meta.media.has_b_frames">0</property>
  <property name="meta.media.width">640</property>
  <property name="meta.media.height">360</property>
  <property name="meta.media.color_range">mpeg</property>
  <property name="set.test_audio">1</property>
  <property name="set.test_image">0</property>
  <property name="meta.media.top_field_first">0</property>
  <property name="meta.media.progressive">1</property>
 </producer>
 <producer id="producer513" in="00:00:00.000" out="00:00:00.983">
  <property name="length">60</property>
  <property name="eof">pause</property>
  <property name="resource">/home/xiaoxiae/.cache/kdenlive/proxy/65e819e5379ec46aee69c223e0b7f8e6.mov</property>
  <property name="audio_index">-1</property>
  <property name="video_index">0</property>
  <property name="mute_on_pause">0</property>
  <property name="mlt_service">avformat-novalidate</property>
  <property name="seekable">1</property>
  <property name="aspect_ratio">1</property>
  <property name="kdenlive:clipname">9.mp4</property>
  <property name="kdenlive:folderid">240</property>
  <property name="kdenlive:id">263</property>
  <property name="kdenlive:file_size">428870</property>
  <property name="kdenlive:proxy">/home/xiaoxiae/.cache/kdenlive/proxy/65e819e5379ec46aee69c223e0b7f8e6.mov</property>
  <property name="kdenlive:originalurl">video/ParenthesesExample/vid/9.mp4</property>
  <property name="kdenlive:original.mlt_type">producer</property>
  <property name="kdenlive:original.in">0</property>
  <property name="kdenlive:original.out">59</property>
  <property name="kdenlive:original.length">60</property>
  <property name="kdenlive:original.eof">pause</property>
  <property name="kdenlive:original.resource">video/ParenthesesExample/vid/9.mp4</property>
  <property name="kdenlive:original.meta.media.nb_streams">1</property>
  <property name="kdenlive:original.meta.media.0.stream.type">video</property>
  <property name="kdenlive:original.meta.media.0.stream.frame_rate">60</property>
  <property name="kdenlive:original.meta.media.0.stream.sample_aspect_ratio">0</property>
  <property name="kdenlive:original.meta.media.0.codec.width">3840</property>
  <property name="kdenlive:original.meta.media.0.codec.height">2160</property>
  <property name="kdenlive:original.meta.media.0.codec.rotate">0</property>
  <property name="kdenlive:original.meta.media.0.codec.pix_fmt">yuv420p</property>
  <property name="kdenlive:original.meta.media.0.codec.sample_aspect_ratio">0</property>
  <property name="kdenlive:original.meta.media.0.codec.colorspace">709</property>
  <property name="kdenlive:original.meta.media.0.codec.name">h264</property>
  <property name="kdenlive:original.meta.media.0.codec.long_name">H.264 / AVC / MPEG-4 AVC / MPEG-4 part 10</property>
  <property name="kdenlive:original.meta.media.0.codec.bit_rate">3418032</property>
  <property name="kdenlive:original.meta.attr.0.stream.handler_name.markup">VideoHandler</property>
  <property name="kdenlive:original.meta.attr.0.stream.vendor_id.markup">[0][0][0][0]</property>
  <property name="kdenlive:original.meta.attr.major_brand.markup">isom</property>
  <property name="kdenlive:original.meta.attr.minor_version.markup">512</property>
  <property name="kdenlive:original.meta.attr.compatible_brands.markup">isomiso2avc1mp41</property>
  <property name="kdenlive:original.meta.attr.encoder.markup">Lavf58.76.100</property>
  <property name="kdenlive:original.meta.attr.comment.markup">Rendered with Manim Community v0.12.0</property>
  <property name="kdenlive:original.seekable">1</property>
  <property name="kdenlive:original.width">3840</property>
  <property name="kdenlive:original.height">2160</property>
  <property name="kdenlive:original.meta.media.sample_aspect_num">1</property>
  <property name="kdenlive:original.meta.media.sample_aspect_den">1</property>
  <property name="kdenlive:original.aspect_ratio">1</property>
  <property name="kdenlive:original.audio_index">-1</property>
  <property name="kdenlive:original.video_index">0</property>
  <property name="kdenlive:original.mute_on_pause">0</property>
  <property name="kdenlive:original.mlt_service">avformat-novalidate</property>
  <property name="kdenlive:original.kdenlive:folderid">240</property>
  <property name="kdenlive:original.meta.media.frame_rate_num">60</property>
  <property name="kdenlive:original.meta.media.frame_rate_den">1</property>
  <property name="kdenlive:original.meta.media.colorspace">709</property>
  <property name="kdenlive:original.meta.media.color_trc">2</property>
  <property name="kdenlive:original.meta.media.has_b_frames">2</property>
  <property name="kdenlive:original.meta.media.width">3840</property>
  <property name="kdenlive:original.meta.media.height">2160</property>
  <property name="kdenlive:original.meta.media.color_range">mpeg</property>
  <property name="kdenlive:original.kdenlive:id">264</property>
  <property name="kdenlive:original.kdenlive:file_size">428870</property>
  <property name="kdenlive:original.kdenlive:file_hash">65e819e5379ec46aee69c223e0b7f8e6</property>
  <property name="kdenlive:original.backup">1</property>
  <property name="kdenlive:file_hash">65e819e5379ec46aee69c223e0b7f8e6</property>
  <property name="xml">was here</property>
  <property name="meta.media.nb_streams">1</property>
  <property name="meta.media.0.stream.type">video</property>
  <property name="meta.media.0.stream.frame_rate">60</property>
  <property name="meta.media.0.stream.sample_aspect_ratio">0</property>
  <property name="meta.media.0.codec.width">640</property>
  <property name="meta.media.0.codec.height">360</property>
  <property name="meta.media.0.codec.rotate">0</property>
  <property name="meta.media.0.codec.pix_fmt">yuv420p</property>
  <property name="meta.media.0.codec.sample_aspect_ratio">0</property>
  <property name="meta.media.0.codec.colorspace">601</property>
  <property name="meta.media.0.codec.name">h264</property>
  <property name="meta.media.0.codec.long_name">H.264 / AVC / MPEG-4 AVC / MPEG-4 part 10</property>
  <property name="meta.media.0.codec.bit_rate">4056432</property>
  <property name="meta.attr.0.stream.handler_name.markup">VideoHandler</property>
  <property name="meta.attr.0.stream.vendor_id.markup">FFMP</property>
  <property name="meta.attr.0.stream.encoder.markup">Lavc58.134.100 libx264</property>
  <property name="meta.attr.major_brand.markup">qt  </property>
  <property name="meta.attr.minor_version.markup">512</property>
  <property name="meta.attr.compatible_brands.markup">qt  </property>
  <property name="meta.attr.encoder.markup">Lavf58.76.100</property>
  <property name="meta.attr.comment.markup">Rendered with Manim Community v0.12.0</property>
  <property name="meta.media.sample_aspect_num">1</property>
  <property name="meta.media.sample_aspect_den">1</property>
  <property name="meta.media.frame_rate_num">60</property>
  <property name="meta.media.frame_rate_den">1</property>
  <property name="meta.media.colorspace">601</property>
  <property name="meta.media.color_trc">2</property>
  <property name="meta.media.has_b_frames">0</property>
  <property name="meta.media.width">640</property>
  <property name="meta.media.height">360</property>
  <property name="meta.media.color_range">mpeg</property>
  <property name="set.test_audio">1</property>
  <property name="set.test_image">0</property>
 </producer>
 <producer id="producer514" in="00:00:00.000" out="00:00:00.983">
  <property name="length">60</property>
  <property name="eof">pause</property>
  <property name="resource">/home/xiaoxiae/.cache/kdenlive/proxy/deb3799893a3b60348b881c3850a84c3.mov</property>
  <property name="audio_index">-1</property>
  <property name="video_index">0</property>
  <property name="mute_on_pause">0</property>
  <property name="mlt_service">avformat-novalidate</property>
  <property name="seekable">1</property>
  <property name="aspect_ratio">1</property>
  <property name="kdenlive:clipname">10.mp4</property>
  <property name="kdenlive:folderid">240</property>
  <property name="kdenlive:id">241</property>
  <property name="kdenlive:file_size">337332</property>
  <property name="kdenlive:proxy">/home/xiaoxiae/.cache/kdenlive/proxy/deb3799893a3b60348b881c3850a84c3.mov</property>
  <property name="kdenlive:originalurl">video/ParenthesesExample/vid/10.mp4</property>
  <property name="kdenlive:original.mlt_type">producer</property>
  <property name="kdenlive:original.in">0</property>
  <property name="kdenlive:original.out">59</property>
  <property name="kdenlive:original.length">60</property>
  <property name="kdenlive:original.eof">pause</property>
  <property name="kdenlive:original.resource">video/ParenthesesExample/vid/10.mp4</property>
  <property name="kdenlive:original.meta.media.nb_streams">1</property>
  <property name="kdenlive:original.meta.media.0.stream.type">video</property>
  <property name="kdenlive:original.meta.media.0.stream.frame_rate">60</property>
  <property name="kdenlive:original.meta.media.0.stream.sample_aspect_ratio">0</property>
  <property name="kdenlive:original.meta.media.0.codec.width">3840</property>
  <property name="kdenlive:original.meta.media.0.codec.height">2160</property>
  <property name="kdenlive:original.meta.media.0.codec.rotate">0</property>
  <property name="kdenlive:original.meta.media.0.codec.pix_fmt">yuv420p</property>
  <property name="kdenlive:original.meta.media.0.codec.sample_aspect_ratio">0</property>
  <property name="kdenlive:original.meta.media.0.codec.colorspace">709</property>
  <property name="kdenlive:original.meta.media.0.codec.name">h264</property>
  <property name="kdenlive:original.meta.media.0.codec.long_name">H.264 / AVC / MPEG-4 AVC / MPEG-4 part 10</property>
  <property name="kdenlive:original.meta.media.0.codec.bit_rate">2685792</property>
  <property name="kdenlive:original.meta.attr.0.stream.handler_name.markup">VideoHandler</property>
  <property name="kdenlive:original.meta.attr.0.stream.vendor_id.markup">[0][0][0][0]</property>
  <property name="kdenlive:original.meta.attr.major_brand.markup">isom</property>
  <property name="kdenlive:original.meta.attr.minor_version.markup">512</property>
  <property name="kdenlive:original.meta.attr.compatible_brands.markup">isomiso2avc1mp41</property>
  <property name="kdenlive:original.meta.attr.encoder.markup">Lavf58.76.100</property>
  <property name="kdenlive:original.meta.attr.comment.markup">Rendered with Manim Community v0.12.0</property>
  <property name="kdenlive:original.seekable">1</property>
  <property name="kdenlive:original.width">3840</property>
  <property name="kdenlive:original.height">2160</property>
  <property name="kdenlive:original.meta.media.sample_aspect_num">1</property>
  <property name="kdenlive:original.meta.media.sample_aspect_den">1</property>
  <property name="kdenlive:original.aspect_ratio">1</property>
  <property name="kdenlive:original.audio_index">-1</property>
  <property name="kdenlive:original.video_index">0</property>
  <property name="kdenlive:original.mute_on_pause">0</property>
  <property name="kdenlive:original.mlt_service">avformat-novalidate</property>
  <property name="kdenlive:original.kdenlive:folderid">240</property>
  <property name="kdenlive:original.meta.media.frame_rate_num">60</property>
  <property name="kdenlive:original.meta.media.frame_rate_den">1</property>
  <property name="kdenlive:original.meta.media.colorspace">709</property>
  <property name="kdenlive:original.meta.media.color_trc">2</property>
  <property name="kdenlive:original.meta.media.has_b_frames">2</property>
  <property name="kdenlive:original.meta.media.width">3840</property>
  <property name="kdenlive:original.meta.media.height">2160</property>
  <property name="kdenlive:original.meta.media.color_range">mpeg</property>
  <property name="kdenlive:original.kdenlive:id">242</property>
  <property name="kdenlive:original.kdenlive:file_size">337332</property>
  <property name="kdenlive:original.kdenlive:file_hash">deb3799893a3b60348b881c3850a84c3</property>
  <property name="kdenlive:original.backup">1</property>
  <property name="kdenlive:file_hash">deb3799893a3b60348b881c3850a84c3</property>
  <property name="xml">was here</property>
  <property name="meta.media.nb_streams">1</property>
  <property name="meta.media.0.stream.type">video</property>
  <property name="meta.media.0.stream.frame_rate">60</property>
  <property name="meta.media.0.stream.sample_aspect_ratio">0</property>
  <property name="meta.media.0.codec.width">640</property>
  <property name="meta.media.0.codec.height">360</property>
  <property name="meta.media.0.codec.rotate">0</property>
  <property name="meta.media.0.codec.pix_fmt">yuv420p</property>
  <property name="meta.media.0.codec.sample_aspect_ratio">0</property>
  <property name="meta.media.0.codec.colorspace">601</property>
  <property name="meta.media.0.codec.name">h264</property>
  <property name="meta.media.0.codec.long_name">H.264 / AVC / MPEG-4 AVC / MPEG-4 part 10</property>
  <property name="meta.media.0.codec.bit_rate">4052872</property>
  <property name="meta.attr.0.stream.handler_name.markup">VideoHandler</property>
  <property name="meta.attr.0.stream.vendor_id.markup">FFMP</property>
  <property name="meta.attr.0.stream.encoder.markup">Lavc58.134.100 libx264</property>
  <property name="meta.attr.major_brand.markup">qt  </property>
  <property name="meta.attr.minor_version.markup">512</property>
  <property name="meta.attr.compatible_brands.markup">qt  </property>
  <property name="meta.attr.encoder.markup">Lavf58.76.100</property>
  <property name="meta.attr.comment.markup">Rendered with Manim Community v0.12.0</property>
  <property name="meta.media.sample_aspect_num">1</property>
  <property name="meta.media.sample_aspect_den">1</property>
  <property name="meta.media.frame_rate_num">60</property>
  <property name="meta.media.frame_rate_den">1</property>
  <property name="meta.media.colorspace">601</property>
  <property name="meta.media.color_trc">2</property>
  <property name="meta.media.has_b_frames">0</property>
  <property name="meta.media.width">640</property>
  <property name="meta.media.height">360</property>
  <property name="meta.media.color_range">mpeg</property>
  <property name="set.test_audio">1</property>
  <property name="set.test_image">0</property>
 </producer>
 <producer id="producer515" in="00:00:00.000" out="00:00:00.983">
  <property name="length">60</property>
  <property name="eof">pause</property>
  <property name="resource">/home/xiaoxiae/.cache/kdenlive/proxy/dde1034eefa64634b4e6c45a51621e83.mov</property>
  <property name="audio_index">-1</property>
  <property name="video_index">0</property>
  <property name="mute_on_pause">0</property>
  <property name="mlt_service">avformat-novalidate</property>
  <property name="seekable">1</property>
  <property name="aspect_ratio">1</property>
  <property name="kdenlive:clipname">11.mp4</property>
  <property name="kdenlive:folderid">240</property>
  <property name="kdenlive:id">242</property>
  <property name="kdenlive:file_size">266375</property>
  <property name="kdenlive:proxy">/home/xiaoxiae/.cache/kdenlive/proxy/dde1034eefa64634b4e6c45a51621e83.mov</property>
  <property name="kdenlive:originalurl">video/ParenthesesExample/vid/11.mp4</property>
  <property name="kdenlive:original.mlt_type">producer</property>
  <property name="kdenlive:original.in">0</property>
  <property name="kdenlive:original.out">59</property>
  <property name="kdenlive:original.length">60</property>
  <property name="kdenlive:original.eof">pause</property>
  <property name="kdenlive:original.resource">video/ParenthesesExample/vid/11.mp4</property>
  <property name="kdenlive:original.meta.media.nb_streams">1</property>
  <property name="kdenlive:original.meta.media.0.stream.type">video</property>
  <property name="kdenlive:original.meta.media.0.stream.frame_rate">60</property>
  <property name="kdenlive:original.meta.media.0.stream.sample_aspect_ratio">0</property>
  <property name="kdenlive:original.meta.media.0.codec.width">3840</property>
  <property name="kdenlive:original.meta.media.0.codec.height">2160</property>
  <property name="kdenlive:original.meta.media.0.codec.rotate">0</property>
  <property name="kdenlive:original.meta.media.0.codec.pix_fmt">yuv420p</property>
  <property name="kdenlive:original.meta.media.0.codec.sample_aspect_ratio">0</property>
  <property name="kdenlive:original.meta.media.0.codec.colorspace">709</property>
  <property name="kdenlive:original.meta.media.0.codec.name">h264</property>
  <property name="kdenlive:original.meta.media.0.codec.long_name">H.264 / AVC / MPEG-4 AVC / MPEG-4 part 10</property>
  <property name="kdenlive:original.meta.media.0.codec.bit_rate">2118136</property>
  <property name="kdenlive:original.meta.attr.0.stream.handler_name.markup">VideoHandler</property>
  <property name="kdenlive:original.meta.attr.0.stream.vendor_id.markup">[0][0][0][0]</property>
  <property name="kdenlive:original.meta.attr.major_brand.markup">isom</property>
  <property name="kdenlive:original.meta.attr.minor_version.markup">512</property>
  <property name="kdenlive:original.meta.attr.compatible_brands.markup">isomiso2avc1mp41</property>
  <property name="kdenlive:original.meta.attr.encoder.markup">Lavf58.76.100</property>
  <property name="kdenlive:original.meta.attr.comment.markup">Rendered with Manim Community v0.12.0</property>
  <property name="kdenlive:original.seekable">1</property>
  <property name="kdenlive:original.width">3840</property>
  <property name="kdenlive:original.height">2160</property>
  <property name="kdenlive:original.meta.media.sample_aspect_num">1</property>
  <property name="kdenlive:original.meta.media.sample_aspect_den">1</property>
  <property name="kdenlive:original.aspect_ratio">1</property>
  <property name="kdenlive:original.audio_index">-1</property>
  <property name="kdenlive:original.video_index">0</property>
  <property name="kdenlive:original.mute_on_pause">0</property>
  <property name="kdenlive:original.mlt_service">avformat-novalidate</property>
  <property name="kdenlive:original.kdenlive:folderid">240</property>
  <property name="kdenlive:original.meta.media.frame_rate_num">60</property>
  <property name="kdenlive:original.meta.media.frame_rate_den">1</property>
  <property name="kdenlive:original.meta.media.colorspace">709</property>
  <property name="kdenlive:original.meta.media.color_trc">2</property>
  <property name="kdenlive:original.meta.media.has_b_frames">2</property>
  <property name="kdenlive:original.meta.media.width">3840</property>
  <property name="kdenlive:original.meta.media.height">2160</property>
  <property name="kdenlive:original.meta.media.color_range">mpeg</property>
  <property name="kdenlive:original.kdenlive:id">243</property>
  <property name="kdenlive:original.kdenlive:file_size">266375</property>
  <property name="kdenlive:original.kdenlive:file_hash">dde1034eefa64634b4e6c45a51621e83</property>
  <property name="kdenlive:original.backup">1</property>
  <property name="kdenlive:file_hash">dde1034eefa64634b4e6c45a51621e83</property>
  <property name="xml">was here</property>
  <property name="meta.media.nb_streams">1</property>
  <property name="meta.media.0.stream.type">video</property>
  <property name="meta.media.0.stream.frame_rate">60</property>
  <property name="meta.media.0.stream.sample_aspect_ratio">0</property>
  <property name="meta.media.0.codec.width">640</property>
  <property name="meta.media.0.codec.height">360</property>
  <property name="meta.media.0.codec.rotate">0</property>
  <property name="meta.media.0.codec.pix_fmt">yuv420p</property>
  <property name="meta.media.0.codec.sample_aspect_ratio">0</property>
  <property name="meta.media.0.codec.colorspace">601</property>
  <property name="meta.media.0.codec.name">h264</property>
  <property name="meta.media.0.codec.long_name">H.264 / AVC / MPEG-4 AVC / MPEG-4 part 10</property>
  <property name="meta.media.0.codec.bit_rate">4063984</property>
  <property name="meta.attr.0.stream.handler_name.markup">VideoHandler</property>
  <property name="meta.attr.0.stream.vendor_id.markup">FFMP</property>
  <property name="meta.attr.0.stream.encoder.markup">Lavc58.134.100 libx264</property>
  <property name="meta.attr.major_brand.markup">qt  </property>
  <property name="meta.attr.minor_version.markup">512</property>
  <property name="meta.attr.compatible_brands.markup">qt  </property>
  <property name="meta.attr.encoder.markup">Lavf58.76.100</property>
  <property name="meta.attr.comment.markup">Rendered with Manim Community v0.12.0</property>
  <property name="meta.media.sample_aspect_num">1</property>
  <property name="meta.media.sample_aspect_den">1</property>
  <property name="meta.media.frame_rate_num">60</property>
  <property name="meta.media.frame_rate_den">1</property>
  <property name="meta.media.colorspace">601</property>
  <property name="meta.media.color_trc">2</property>
  <property name="meta.media.has_b_frames">0</property>
  <property name="meta.media.width">640</property>
  <property name="meta.media.height">360</property>
  <property name="meta.media.color_range">mpeg</property>
  <property name="set.test_audio">1</property>
  <property name="set.test_image">0</property>
 </producer>
 <producer id="producer516" in="00:00:00.000" out="00:00:00.983">
  <property name="length">60</property>
  <property name="eof">pause</property>
  <property name="resource">/home/xiaoxiae/.cache/kdenlive/proxy/c76723e2532106bf2dcc16e0ba1d8f84.mov</property>
  <property name="audio_index">-1</property>
  <property name="video_index">0</property>
  <property name="mute_on_pause">0</property>
  <property name="mlt_service">avformat-novalidate</property>
  <property name="seekable">1</property>
  <property name="aspect_ratio">1</property>
  <property name="kdenlive:clipname">12.mp4</property>
  <property name="kdenlive:folderid">240</property>
  <property name="kdenlive:id">243</property>
  <property name="kdenlive:file_size">243048</property>
  <property name="kdenlive:proxy">/home/xiaoxiae/.cache/kdenlive/proxy/c76723e2532106bf2dcc16e0ba1d8f84.mov</property>
  <property name="kdenlive:originalurl">video/ParenthesesExample/vid/12.mp4</property>
  <property name="kdenlive:original.mlt_type">producer</property>
  <property name="kdenlive:original.in">0</property>
  <property name="kdenlive:original.out">59</property>
  <property name="kdenlive:original.length">60</property>
  <property name="kdenlive:original.eof">pause</property>
  <property name="kdenlive:original.resource">video/ParenthesesExample/vid/12.mp4</property>
  <property name="kdenlive:original.meta.media.nb_streams">1</property>
  <property name="kdenlive:original.meta.media.0.stream.type">video</property>
  <property name="kdenlive:original.meta.media.0.stream.frame_rate">60</property>
  <property name="kdenlive:original.meta.media.0.stream.sample_aspect_ratio">0</property>
  <property name="kdenlive:original.meta.media.0.codec.width">3840</property>
  <property name="kdenlive:original.meta.media.0.codec.height">2160</property>
  <property name="kdenlive:original.meta.media.0.codec.rotate">0</property>
  <property name="kdenlive:original.meta.media.0.codec.pix_fmt">yuv420p</property>
  <property name="kdenlive:original.meta.media.0.codec.sample_aspect_ratio">0</property>
  <property name="kdenlive:original.meta.media.0.codec.colorspace">709</property>
  <property name="kdenlive:original.meta.media.0.codec.name">h264</property>
  <property name="kdenlive:original.meta.media.0.codec.long_name">H.264 / AVC / MPEG-4 AVC / MPEG-4 part 10</property>
  <property name="kdenlive:original.meta.media.0.codec.bit_rate">1931584</property>
  <property name="kdenlive:original.meta.attr.0.stream.handler_name.markup">VideoHandler</property>
  <property name="kdenlive:original.meta.attr.0.stream.vendor_id.markup">[0][0][0][0]</property>
  <property name="kdenlive:original.meta.attr.major_brand.markup">isom</property>
  <property name="kdenlive:original.meta.attr.minor_version.markup">512</property>
  <property name="kdenlive:original.meta.attr.compatible_brands.markup">isomiso2avc1mp41</property>
  <property name="kdenlive:original.meta.attr.encoder.markup">Lavf58.76.100</property>
  <property name="kdenlive:original.meta.attr.comment.markup">Rendered with Manim Community v0.12.0</property>
  <property name="kdenlive:original.seekable">1</property>
  <property name="kdenlive:original.width">3840</property>
  <property name="kdenlive:original.height">2160</property>
  <property name="kdenlive:original.meta.media.sample_aspect_num">1</property>
  <property name="kdenlive:original.meta.media.sample_aspect_den">1</property>
  <property name="kdenlive:original.aspect_ratio">1</property>
  <property name="kdenlive:original.audio_index">-1</property>
  <property name="kdenlive:original.video_index">0</property>
  <property name="kdenlive:original.mute_on_pause">0</property>
  <property name="kdenlive:original.mlt_service">avformat-novalidate</property>
  <property name="kdenlive:original.kdenlive:folderid">240</property>
  <property name="kdenlive:original.meta.media.frame_rate_num">60</property>
  <property name="kdenlive:original.meta.media.frame_rate_den">1</property>
  <property name="kdenlive:original.meta.media.colorspace">709</property>
  <property name="kdenlive:original.meta.media.color_trc">2</property>
  <property name="kdenlive:original.meta.media.has_b_frames">2</property>
  <property name="kdenlive:original.meta.media.width">3840</property>
  <property name="kdenlive:original.meta.media.height">2160</property>
  <property name="kdenlive:original.meta.media.color_range">mpeg</property>
  <property name="kdenlive:original.kdenlive:id">244</property>
  <property name="kdenlive:original.kdenlive:file_size">243048</property>
  <property name="kdenlive:original.kdenlive:file_hash">c76723e2532106bf2dcc16e0ba1d8f84</property>
  <property name="kdenlive:original.backup">1</property>
  <property name="kdenlive:file_hash">c76723e2532106bf2dcc16e0ba1d8f84</property>
  <property name="xml">was here</property>
  <property name="meta.media.nb_streams">1</property>
  <property name="meta.media.0.stream.type">video</property>
  <property name="meta.media.0.stream.frame_rate">60</property>
  <property name="meta.media.0.stream.sample_aspect_ratio">0</property>
  <property name="meta.media.0.codec.width">640</property>
  <property name="meta.media.0.codec.height">360</property>
  <property name="meta.media.0.codec.rotate">0</property>
  <property name="meta.media.0.codec.pix_fmt">yuv420p</property>
  <property name="meta.media.0.codec.sample_aspect_ratio">0</property>
  <property name="meta.media.0.codec.colorspace">601</property>
  <property name="meta.media.0.codec.name">h264</property>
  <property name="meta.media.0.codec.long_name">H.264 / AVC / MPEG-4 AVC / MPEG-4 part 10</property>
  <property name="meta.media.0.codec.bit_rate">4339192</property>
  <property name="meta.attr.0.stream.handler_name.markup">VideoHandler</property>
  <property name="meta.attr.0.stream.vendor_id.markup">FFMP</property>
  <property name="meta.attr.0.stream.encoder.markup">Lavc58.134.100 libx264</property>
  <property name="meta.attr.major_brand.markup">qt  </property>
  <property name="meta.attr.minor_version.markup">512</property>
  <property name="meta.attr.compatible_brands.markup">qt  </property>
  <property name="meta.attr.encoder.markup">Lavf58.76.100</property>
  <property name="meta.attr.comment.markup">Rendered with Manim Community v0.12.0</property>
  <property name="meta.media.sample_aspect_num">1</property>
  <property name="meta.media.sample_aspect_den">1</property>
  <property name="meta.media.frame_rate_num">60</property>
  <property name="meta.media.frame_rate_den">1</property>
  <property name="meta.media.colorspace">601</property>
  <property name="meta.media.color_trc">2</property>
  <property name="meta.media.has_b_frames">0</property>
  <property name="meta.media.width">640</property>
  <property name="meta.media.height">360</property>
  <property name="meta.media.color_range">mpeg</property>
  <property name="set.test_audio">1</property>
  <property name="set.test_image">0</property>
 </producer>
 <producer id="producer517" in="00:00:00.000" out="00:00:00.983">
  <property name="length">60</property>
  <property name="eof">pause</property>
  <property name="resource">/home/xiaoxiae/.cache/kdenlive/proxy/451b7e4acc4ea4095bbf9dbbcfc5ed9c.mov</property>
  <property name="audio_index">-1</property>
  <property name="video_index">0</property>
  <property name="mute_on_pause">0</property>
  <property name="mlt_service">avformat-novalidate</property>
  <property name="seekable">1</property>
  <property name="aspect_ratio">1</property>
  <property name="kdenlive:clipname">13.mp4</property>
  <property name="kdenlive:folderid">240</property>
  <property name="kdenlive:id">244</property>
  <property name="kdenlive:file_size">286867</property>
  <property name="kdenlive:proxy">/home/xiaoxiae/.cache/kdenlive/proxy/451b7e4acc4ea4095bbf9dbbcfc5ed9c.mov</property>
  <property name="kdenlive:originalurl">video/ParenthesesExample/vid/13.mp4</property>
  <property name="kdenlive:original.mlt_type">producer</property>
  <property name="kdenlive:original.in">0</property>
  <property name="kdenlive:original.out">59</property>
  <property name="kdenlive:original.length">60</property>
  <property name="kdenlive:original.eof">pause</property>
  <property name="kdenlive:original.resource">video/ParenthesesExample/vid/13.mp4</property>
  <property name="kdenlive:original.meta.media.nb_streams">1</property>
  <property name="kdenlive:original.meta.media.0.stream.type">video</property>
  <property name="kdenlive:original.meta.media.0.stream.frame_rate">60</property>
  <property name="kdenlive:original.meta.media.0.stream.sample_aspect_ratio">0</property>
  <property name="kdenlive:original.meta.media.0.codec.width">3840</property>
  <property name="kdenlive:original.meta.media.0.codec.height">2160</property>
  <property name="kdenlive:original.meta.media.0.codec.rotate">0</property>
  <property name="kdenlive:original.meta.media.0.codec.pix_fmt">yuv420p</property>
  <property name="kdenlive:original.meta.media.0.codec.sample_aspect_ratio">0</property>
  <property name="kdenlive:original.meta.media.0.codec.colorspace">709</property>
  <property name="kdenlive:original.meta.media.0.codec.name">h264</property>
  <property name="kdenlive:original.meta.media.0.codec.long_name">H.264 / AVC / MPEG-4 AVC / MPEG-4 part 10</property>
  <property name="kdenlive:original.meta.media.0.codec.bit_rate">2282072</property>
  <property name="kdenlive:original.meta.attr.0.stream.handler_name.markup">VideoHandler</property>
  <property name="kdenlive:original.meta.attr.0.stream.vendor_id.markup">[0][0][0][0]</property>
  <property name="kdenlive:original.meta.attr.major_brand.markup">isom</property>
  <property name="kdenlive:original.meta.attr.minor_version.markup">512</property>
  <property name="kdenlive:original.meta.attr.compatible_brands.markup">isomiso2avc1mp41</property>
  <property name="kdenlive:original.meta.attr.encoder.markup">Lavf58.76.100</property>
  <property name="kdenlive:original.meta.attr.comment.markup">Rendered with Manim Community v0.12.0</property>
  <property name="kdenlive:original.seekable">1</property>
  <property name="kdenlive:original.width">3840</property>
  <property name="kdenlive:original.height">2160</property>
  <property name="kdenlive:original.meta.media.sample_aspect_num">1</property>
  <property name="kdenlive:original.meta.media.sample_aspect_den">1</property>
  <property name="kdenlive:original.aspect_ratio">1</property>
  <property name="kdenlive:original.audio_index">-1</property>
  <property name="kdenlive:original.video_index">0</property>
  <property name="kdenlive:original.mute_on_pause">0</property>
  <property name="kdenlive:original.mlt_service">avformat-novalidate</property>
  <property name="kdenlive:original.kdenlive:folderid">240</property>
  <property name="kdenlive:original.meta.media.frame_rate_num">60</property>
  <property name="kdenlive:original.meta.media.frame_rate_den">1</property>
  <property name="kdenlive:original.meta.media.colorspace">709</property>
  <property name="kdenlive:original.meta.media.color_trc">2</property>
  <property name="kdenlive:original.meta.media.has_b_frames">2</property>
  <property name="kdenlive:original.meta.media.width">3840</property>
  <property name="kdenlive:original.meta.media.height">2160</property>
  <property name="kdenlive:original.meta.media.color_range">mpeg</property>
  <property name="kdenlive:original.kdenlive:id">245</property>
  <property name="kdenlive:original.kdenlive:file_size">286867</property>
  <property name="kdenlive:original.kdenlive:file_hash">451b7e4acc4ea4095bbf9dbbcfc5ed9c</property>
  <property name="kdenlive:original.backup">1</property>
  <property name="kdenlive:file_hash">451b7e4acc4ea4095bbf9dbbcfc5ed9c</property>
  <property name="xml">was here</property>
  <property name="meta.media.nb_streams">1</property>
  <property name="meta.media.0.stream.type">video</property>
  <property name="meta.media.0.stream.frame_rate">60</property>
  <property name="meta.media.0.stream.sample_aspect_ratio">0</property>
  <property name="meta.media.0.codec.width">640</property>
  <property name="meta.media.0.codec.height">360</property>
  <property name="meta.media.0.codec.rotate">0</property>
  <property name="meta.media.0.codec.pix_fmt">yuv420p</property>
  <property name="meta.media.0.codec.sample_aspect_ratio">0</property>
  <property name="meta.media.0.codec.colorspace">601</property>
  <property name="meta.media.0.codec.name">h264</property>
  <property name="meta.media.0.codec.long_name">H.264 / AVC / MPEG-4 AVC / MPEG-4 part 10</property>
  <property name="meta.media.0.codec.bit_rate">4371160</property>
  <property name="meta.attr.0.stream.handler_name.markup">VideoHandler</property>
  <property name="meta.attr.0.stream.vendor_id.markup">FFMP</property>
  <property name="meta.attr.0.stream.encoder.markup">Lavc58.134.100 libx264</property>
  <property name="meta.attr.major_brand.markup">qt  </property>
  <property name="meta.attr.minor_version.markup">512</property>
  <property name="meta.attr.compatible_brands.markup">qt  </property>
  <property name="meta.attr.encoder.markup">Lavf58.76.100</property>
  <property name="meta.attr.comment.markup">Rendered with Manim Community v0.12.0</property>
  <property name="meta.media.sample_aspect_num">1</property>
  <property name="meta.media.sample_aspect_den">1</property>
  <property name="meta.media.frame_rate_num">60</property>
  <property name="meta.media.frame_rate_den">1</property>
  <property name="meta.media.colorspace">601</property>
  <property name="meta.media.color_trc">2</property>
  <property name="meta.media.has_b_frames">0</property>
  <property name="meta.media.width">640</property>
  <property name="meta.media.height">360</property>
  <property name="meta.media.color_range">mpeg</property>
  <property name="set.test_audio">1</property>
  <property name="set.test_image">0</property>
 </producer>
 <producer id="producer518" in="00:00:00.000" out="00:00:00.983">
  <property name="length">60</property>
  <property name="eof">pause</property>
  <property name="resource">/home/xiaoxiae/.cache/kdenlive/proxy/3555892f707daefbd492b217e9ac3764.mov</property>
  <property name="audio_index">-1</property>
  <property name="video_index">0</property>
  <property name="mute_on_pause">0</property>
  <property name="mlt_service">avformat-novalidate</property>
  <property name="seekable">1</property>
  <property name="aspect_ratio">1</property>
  <property name="kdenlive:clipname">14.mp4</property>
  <property name="kdenlive:folderid">240</property>
  <property name="kdenlive:id">245</property>
  <property name="kdenlive:file_size">346777</property>
  <property name="kdenlive:proxy">/home/xiaoxiae/.cache/kdenlive/proxy/3555892f707daefbd492b217e9ac3764.mov</property>
  <property name="kdenlive:originalurl">video/ParenthesesExample/vid/14.mp4</property>
  <property name="kdenlive:original.mlt_type">producer</property>
  <property name="kdenlive:original.in">0</property>
  <property name="kdenlive:original.out">59</property>
  <property name="kdenlive:original.length">60</property>
  <property name="kdenlive:original.eof">pause</property>
  <property name="kdenlive:original.resource">video/ParenthesesExample/vid/14.mp4</property>
  <property name="kdenlive:original.meta.media.nb_streams">1</property>
  <property name="kdenlive:original.meta.media.0.stream.type">video</property>
  <property name="kdenlive:original.meta.media.0.stream.frame_rate">60</property>
  <property name="kdenlive:original.meta.media.0.stream.sample_aspect_ratio">0</property>
  <property name="kdenlive:original.meta.media.0.codec.width">3840</property>
  <property name="kdenlive:original.meta.media.0.codec.height">2160</property>
  <property name="kdenlive:original.meta.media.0.codec.rotate">0</property>
  <property name="kdenlive:original.meta.media.0.codec.pix_fmt">yuv420p</property>
  <property name="kdenlive:original.meta.media.0.codec.sample_aspect_ratio">0</property>
  <property name="kdenlive:original.meta.media.0.codec.colorspace">709</property>
  <property name="kdenlive:original.meta.media.0.codec.name">h264</property>
  <property name="kdenlive:original.meta.media.0.codec.long_name">H.264 / AVC / MPEG-4 AVC / MPEG-4 part 10</property>
  <property name="kdenlive:original.meta.media.0.codec.bit_rate">2761480</property>
  <property name="kdenlive:original.meta.attr.0.stream.handler_name.markup">VideoHandler</property>
  <property name="kdenlive:original.meta.attr.0.stream.vendor_id.markup">[0][0][0][0]</property>
  <property name="kdenlive:original.meta.attr.major_brand.markup">isom</property>
  <property name="kdenlive:original.meta.attr.minor_version.markup">512</property>
  <property name="kdenlive:original.meta.attr.compatible_brands.markup">isomiso2avc1mp41</property>
  <property name="kdenlive:original.meta.attr.encoder.markup">Lavf58.76.100</property>
  <property name="kdenlive:original.meta.attr.comment.markup">Rendered with Manim Community v0.12.0</property>
  <property name="kdenlive:original.seekable">1</property>
  <property name="kdenlive:original.width">3840</property>
  <property name="kdenlive:original.height">2160</property>
  <property name="kdenlive:original.meta.media.sample_aspect_num">1</property>
  <property name="kdenlive:original.meta.media.sample_aspect_den">1</property>
  <property name="kdenlive:original.aspect_ratio">1</property>
  <property name="kdenlive:original.audio_index">-1</property>
  <property name="kdenlive:original.video_index">0</property>
  <property name="kdenlive:original.mute_on_pause">0</property>
  <property name="kdenlive:original.mlt_service">avformat-novalidate</property>
  <property name="kdenlive:original.kdenlive:folderid">240</property>
  <property name="kdenlive:original.meta.media.frame_rate_num">60</property>
  <property name="kdenlive:original.meta.media.frame_rate_den">1</property>
  <property name="kdenlive:original.meta.media.colorspace">709</property>
  <property name="kdenlive:original.meta.media.color_trc">2</property>
  <property name="kdenlive:original.meta.media.has_b_frames">2</property>
  <property name="kdenlive:original.meta.media.width">3840</property>
  <property name="kdenlive:original.meta.media.height">2160</property>
  <property name="kdenlive:original.meta.media.color_range">mpeg</property>
  <property name="kdenlive:original.kdenlive:id">246</property>
  <property name="kdenlive:original.kdenlive:file_size">346777</property>
  <property name="kdenlive:original.kdenlive:file_hash">3555892f707daefbd492b217e9ac3764</property>
  <property name="kdenlive:original.backup">1</property>
  <property name="kdenlive:file_hash">3555892f707daefbd492b217e9ac3764</property>
  <property name="xml">was here</property>
  <property name="meta.media.nb_streams">1</property>
  <property name="meta.media.0.stream.type">video</property>
  <property name="meta.media.0.stream.frame_rate">60</property>
  <property name="meta.media.0.stream.sample_aspect_ratio">0</property>
  <property name="meta.media.0.codec.width">640</property>
  <property name="meta.media.0.codec.height">360</property>
  <property name="meta.media.0.codec.rotate">0</property>
  <property name="meta.media.0.codec.pix_fmt">yuv420p</property>
  <property name="meta.media.0.codec.sample_aspect_ratio">0</property>
  <property name="meta.media.0.codec.colorspace">601</property>
  <property name="meta.media.0.codec.name">h264</property>
  <property name="meta.media.0.codec.long_name">H.264 / AVC / MPEG-4 AVC / MPEG-4 part 10</property>
  <property name="meta.media.0.codec.bit_rate">4566352</property>
  <property name="meta.attr.0.stream.handler_name.markup">VideoHandler</property>
  <property name="meta.attr.0.stream.vendor_id.markup">FFMP</property>
  <property name="meta.attr.0.stream.encoder.markup">Lavc58.134.100 libx264</property>
  <property name="meta.attr.major_brand.markup">qt  </property>
  <property name="meta.attr.minor_version.markup">512</property>
  <property name="meta.attr.compatible_brands.markup">qt  </property>
  <property name="meta.attr.encoder.markup">Lavf58.76.100</property>
  <property name="meta.attr.comment.markup">Rendered with Manim Community v0.12.0</property>
  <property name="meta.media.sample_aspect_num">1</property>
  <property name="meta.media.sample_aspect_den">1</property>
  <property name="meta.media.frame_rate_num">60</property>
  <property name="meta.media.frame_rate_den">1</property>
  <property name="meta.media.colorspace">601</property>
  <property name="meta.media.color_trc">2</property>
  <property name="meta.media.has_b_frames">0</property>
  <property name="meta.media.width">640</property>
  <property name="meta.media.height">360</property>
  <property name="meta.media.color_range">mpeg</property>
  <property name="set.test_audio">1</property>
  <property name="set.test_image">0</property>
 </producer>
 <producer id="producer519" in="00:00:00.000" out="00:00:00.983">
  <property name="length">60</property>
  <property name="eof">pause</property>
  <property name="resource">/home/xiaoxiae/.cache/kdenlive/proxy/2b21a637c90796a005be9e478eabd29c.mov</property>
  <property name="audio_index">-1</property>
  <property name="video_index">0</property>
  <property name="mute_on_pause">0</property>
  <property name="mlt_service">avformat-novalidate</property>
  <property name="seekable">1</property>
  <property name="aspect_ratio">1</property>
  <property name="kdenlive:clipname">15.mp4</property>
  <property name="kdenlive:folderid">240</property>
  <property name="kdenlive:id">246</property>
  <property name="kdenlive:file_size">166116</property>
  <property name="kdenlive:proxy">/home/xiaoxiae/.cache/kdenlive/proxy/2b21a637c90796a005be9e478eabd29c.mov</property>
  <property name="kdenlive:originalurl">video/ParenthesesExample/vid/15.mp4</property>
  <property name="kdenlive:original.mlt_type">producer</property>
  <property name="kdenlive:original.in">0</property>
  <property name="kdenlive:original.out">59</property>
  <property name="kdenlive:original.length">60</property>
  <property name="kdenlive:original.eof">pause</property>
  <property name="kdenlive:original.resource">video/ParenthesesExample/vid/15.mp4</property>
  <property name="kdenlive:original.meta.media.nb_streams">1</property>
  <property name="kdenlive:original.meta.media.0.stream.type">video</property>
  <property name="kdenlive:original.meta.media.0.stream.frame_rate">60</property>
  <property name="kdenlive:original.meta.media.0.stream.sample_aspect_ratio">0</property>
  <property name="kdenlive:original.meta.media.0.codec.width">3840</property>
  <property name="kdenlive:original.meta.media.0.codec.height">2160</property>
  <property name="kdenlive:original.meta.media.0.codec.rotate">0</property>
  <property name="kdenlive:original.meta.media.0.codec.pix_fmt">yuv420p</property>
  <property name="kdenlive:original.meta.media.0.codec.sample_aspect_ratio">0</property>
  <property name="kdenlive:original.meta.media.0.codec.colorspace">709</property>
  <property name="kdenlive:original.meta.media.0.codec.name">h264</property>
  <property name="kdenlive:original.meta.media.0.codec.long_name">H.264 / AVC / MPEG-4 AVC / MPEG-4 part 10</property>
  <property name="kdenlive:original.meta.media.0.codec.bit_rate">1315872</property>
  <property name="kdenlive:original.meta.attr.0.stream.handler_name.markup">VideoHandler</property>
  <property name="kdenlive:original.meta.attr.0.stream.vendor_id.markup">[0][0][0][0]</property>
  <property name="kdenlive:original.meta.attr.major_brand.markup">isom</property>
  <property name="kdenlive:original.meta.attr.minor_version.markup">512</property>
  <property name="kdenlive:original.meta.attr.compatible_brands.markup">isomiso2avc1mp41</property>
  <property name="kdenlive:original.meta.attr.encoder.markup">Lavf58.76.100</property>
  <property name="kdenlive:original.meta.attr.comment.markup">Rendered with Manim Community v0.12.0</property>
  <property name="kdenlive:original.seekable">1</property>
  <property name="kdenlive:original.width">3840</property>
  <property name="kdenlive:original.height">2160</property>
  <property name="kdenlive:original.meta.media.sample_aspect_num">1</property>
  <property name="kdenlive:original.meta.media.sample_aspect_den">1</property>
  <property name="kdenlive:original.aspect_ratio">1</property>
  <property name="kdenlive:original.audio_index">-1</property>
  <property name="kdenlive:original.video_index">0</property>
  <property name="kdenlive:original.mute_on_pause">0</property>
  <property name="kdenlive:original.mlt_service">avformat-novalidate</property>
  <property name="kdenlive:original.kdenlive:folderid">240</property>
  <property name="kdenlive:original.meta.media.frame_rate_num">60</property>
  <property name="kdenlive:original.meta.media.frame_rate_den">1</property>
  <property name="kdenlive:original.meta.media.colorspace">709</property>
  <property name="kdenlive:original.meta.media.color_trc">2</property>
  <property name="kdenlive:original.meta.media.has_b_frames">2</property>
  <property name="kdenlive:original.meta.media.width">3840</property>
  <property name="kdenlive:original.meta.media.height">2160</property>
  <property name="kdenlive:original.meta.media.color_range">mpeg</property>
  <property name="kdenlive:original.kdenlive:id">247</property>
  <property name="kdenlive:original.kdenlive:file_size">166116</property>
  <property name="kdenlive:original.kdenlive:file_hash">2b21a637c90796a005be9e478eabd29c</property>
  <property name="kdenlive:original.backup">1</property>
  <property name="kdenlive:file_hash">2b21a637c90796a005be9e478eabd29c</property>
  <property name="xml">was here</property>
  <property name="meta.media.nb_streams">1</property>
  <property name="meta.media.0.stream.type">video</property>
  <property name="meta.media.0.stream.frame_rate">60</property>
  <property name="meta.media.0.stream.sample_aspect_ratio">0</property>
  <property name="meta.media.0.codec.width">640</property>
  <property name="meta.media.0.codec.height">360</property>
  <property name="meta.media.0.codec.rotate">0</property>
  <property name="meta.media.0.codec.pix_fmt">yuv420p</property>
  <property name="meta.media.0.codec.sample_aspect_ratio">0</property>
  <property name="meta.media.0.codec.colorspace">601</property>
  <property name="meta.media.0.codec.name">h264</property>
  <property name="meta.media.0.codec.long_name">H.264 / AVC / MPEG-4 AVC / MPEG-4 part 10</property>
  <property name="meta.media.0.codec.bit_rate">4724520</property>
  <property name="meta.attr.0.stream.handler_name.markup">VideoHandler</property>
  <property name="meta.attr.0.stream.vendor_id.markup">FFMP</property>
  <property name="meta.attr.0.stream.encoder.markup">Lavc58.134.100 libx264</property>
  <property name="meta.attr.major_brand.markup">qt  </property>
  <property name="meta.attr.minor_version.markup">512</property>
  <property name="meta.attr.compatible_brands.markup">qt  </property>
  <property name="meta.attr.encoder.markup">Lavf58.76.100</property>
  <property name="meta.attr.comment.markup">Rendered with Manim Community v0.12.0</property>
  <property name="meta.media.sample_aspect_num">1</property>
  <property name="meta.media.sample_aspect_den">1</property>
  <property name="meta.media.frame_rate_num">60</property>
  <property name="meta.media.frame_rate_den">1</property>
  <property name="meta.media.colorspace">601</property>
  <property name="meta.media.color_trc">2</property>
  <property name="meta.media.has_b_frames">0</property>
  <property name="meta.media.width">640</property>
  <property name="meta.media.height">360</property>
  <property name="meta.media.color_range">mpeg</property>
  <property name="set.test_audio">1</property>
  <property name="set.test_image">0</property>
  <property name="meta.media.top_field_first">0</property>
  <property name="meta.media.progressive">1</property>
 </producer>
 <producer id="producer520" in="00:00:00.000" out="00:00:00.983">
  <property name="length">60</property>
  <property name="eof">pause</property>
  <property name="resource">/home/xiaoxiae/.cache/kdenlive/proxy/ddb2dd837a65527259a7491bf431c705.mov</property>
  <property name="audio_index">-1</property>
  <property name="video_index">0</property>
  <property name="mute_on_pause">0</property>
  <property name="mlt_service">avformat-novalidate</property>
  <property name="seekable">1</property>
  <property name="aspect_ratio">1</property>
  <property name="kdenlive:clipname">16.mp4</property>
  <property name="kdenlive:folderid">240</property>
  <property name="kdenlive:id">247</property>
  <property name="kdenlive:file_size">158171</property>
  <property name="kdenlive:proxy">/home/xiaoxiae/.cache/kdenlive/proxy/ddb2dd837a65527259a7491bf431c705.mov</property>
  <property name="kdenlive:originalurl">video/ParenthesesExample/vid/16.mp4</property>
  <property name="kdenlive:original.mlt_type">producer</property>
  <property name="kdenlive:original.in">0</property>
  <property name="kdenlive:original.out">59</property>
  <property name="kdenlive:original.length">60</property>
  <property name="kdenlive:original.eof">pause</property>
  <property name="kdenlive:original.resource">video/ParenthesesExample/vid/16.mp4</property>
  <property name="kdenlive:original.meta.media.nb_streams">1</property>
  <property name="kdenlive:original.meta.media.0.stream.type">video</property>
  <property name="kdenlive:original.meta.media.0.stream.frame_rate">60</property>
  <property name="kdenlive:original.meta.media.0.stream.sample_aspect_ratio">0</property>
  <property name="kdenlive:original.meta.media.0.codec.width">3840</property>
  <property name="kdenlive:original.meta.media.0.codec.height">2160</property>
  <property name="kdenlive:original.meta.media.0.codec.rotate">0</property>
  <property name="kdenlive:original.meta.media.0.codec.pix_fmt">yuv420p</property>
  <property name="kdenlive:original.meta.media.0.codec.sample_aspect_ratio">0</property>
  <property name="kdenlive:original.meta.media.0.codec.colorspace">709</property>
  <property name="kdenlive:original.meta.media.0.codec.name">h264</property>
  <property name="kdenlive:original.meta.media.0.codec.long_name">H.264 / AVC / MPEG-4 AVC / MPEG-4 part 10</property>
  <property name="kdenlive:original.meta.media.0.codec.bit_rate">1252312</property>
  <property name="kdenlive:original.meta.attr.0.stream.handler_name.markup">VideoHandler</property>
  <property name="kdenlive:original.meta.attr.0.stream.vendor_id.markup">[0][0][0][0]</property>
  <property name="kdenlive:original.meta.attr.major_brand.markup">isom</property>
  <property name="kdenlive:original.meta.attr.minor_version.markup">512</property>
  <property name="kdenlive:original.meta.attr.compatible_brands.markup">isomiso2avc1mp41</property>
  <property name="kdenlive:original.meta.attr.encoder.markup">Lavf58.76.100</property>
  <property name="kdenlive:original.meta.attr.comment.markup">Rendered with Manim Community v0.12.0</property>
  <property name="kdenlive:original.seekable">1</property>
  <property name="kdenlive:original.width">3840</property>
  <property name="kdenlive:original.height">2160</property>
  <property name="kdenlive:original.meta.media.sample_aspect_num">1</property>
  <property name="kdenlive:original.meta.media.sample_aspect_den">1</property>
  <property name="kdenlive:original.aspect_ratio">1</property>
  <property name="kdenlive:original.audio_index">-1</property>
  <property name="kdenlive:original.video_index">0</property>
  <property name="kdenlive:original.mute_on_pause">0</property>
  <property name="kdenlive:original.mlt_service">avformat-novalidate</property>
  <property name="kdenlive:original.kdenlive:folderid">240</property>
  <property name="kdenlive:original.meta.media.frame_rate_num">60</property>
  <property name="kdenlive:original.meta.media.frame_rate_den">1</property>
  <property name="kdenlive:original.meta.media.colorspace">709</property>
  <property name="kdenlive:original.meta.media.color_trc">2</property>
  <property name="kdenlive:original.meta.media.has_b_frames">2</property>
  <property name="kdenlive:original.meta.media.width">3840</property>
  <property name="kdenlive:original.meta.media.height">2160</property>
  <property name="kdenlive:original.meta.media.color_range">mpeg</property>
  <property name="kdenlive:original.kdenlive:id">248</property>
  <property name="kdenlive:original.kdenlive:file_size">158171</property>
  <property name="kdenlive:original.kdenlive:file_hash">ddb2dd837a65527259a7491bf431c705</property>
  <property name="kdenlive:original.backup">1</property>
  <property name="kdenlive:file_hash">ddb2dd837a65527259a7491bf431c705</property>
  <property name="xml">was here</property>
  <property name="meta.media.nb_streams">1</property>
  <property name="meta.media.0.stream.type">video</property>
  <property name="meta.media.0.stream.frame_rate">60</property>
  <property name="meta.media.0.stream.sample_aspect_ratio">0</property>
  <property name="meta.media.0.codec.width">640</property>
  <property name="meta.media.0.codec.height">360</property>
  <property name="meta.media.0.codec.rotate">0</property>
  <property name="meta.media.0.codec.pix_fmt">yuv420p</property>
  <property name="meta.media.0.codec.sample_aspect_ratio">0</property>
  <property name="meta.media.0.codec.colorspace">601</property>
  <property name="meta.media.0.codec.name">h264</property>
  <property name="meta.media.0.codec.long_name">H.264 / AVC / MPEG-4 AVC / MPEG-4 part 10</property>
  <property name="meta.media.0.codec.bit_rate">4707224</property>
  <property name="meta.attr.0.stream.handler_name.markup">VideoHandler</property>
  <property name="meta.attr.0.stream.vendor_id.markup">FFMP</property>
  <property name="meta.attr.0.stream.encoder.markup">Lavc58.134.100 libx264</property>
  <property name="meta.attr.major_brand.markup">qt  </property>
  <property name="meta.attr.minor_version.markup">512</property>
  <property name="meta.attr.compatible_brands.markup">qt  </property>
  <property name="meta.attr.encoder.markup">Lavf58.76.100</property>
  <property name="meta.attr.comment.markup">Rendered with Manim Community v0.12.0</property>
  <property name="meta.media.sample_aspect_num">1</property>
  <property name="meta.media.sample_aspect_den">1</property>
  <property name="meta.media.frame_rate_num">60</property>
  <property name="meta.media.frame_rate_den">1</property>
  <property name="meta.media.colorspace">601</property>
  <property name="meta.media.color_trc">2</property>
  <property name="meta.media.has_b_frames">0</property>
  <property name="meta.media.width">640</property>
  <property name="meta.media.height">360</property>
  <property name="meta.media.color_range">mpeg</property>
  <property name="set.test_audio">1</property>
  <property name="set.test_image">0</property>
  <property name="meta.media.top_field_first">0</property>
  <property name="meta.media.progressive">1</property>
 </producer>
 <producer id="producer521" in="00:00:00.000" out="00:00:00.983">
  <property name="length">60</property>
  <property name="eof">pause</property>
  <property name="resource">/home/xiaoxiae/.cache/kdenlive/proxy/db5b1eb7a7e49d4f20e873f489ecea42.mov</property>
  <property name="audio_index">-1</property>
  <property name="video_index">0</property>
  <property name="mute_on_pause">0</property>
  <property name="mlt_service">avformat-novalidate</property>
  <property name="seekable">1</property>
  <property name="aspect_ratio">1</property>
  <property name="kdenlive:clipname">17.mp4</property>
  <property name="kdenlive:folderid">240</property>
  <property name="kdenlive:file_size">176255</property>
  <property name="kdenlive:id">248</property>
  <property name="kdenlive:proxy">/home/xiaoxiae/.cache/kdenlive/proxy/db5b1eb7a7e49d4f20e873f489ecea42.mov</property>
  <property name="kdenlive:originalurl">video/ParenthesesExample/vid/17.mp4</property>
  <property name="kdenlive:original.mlt_type">producer</property>
  <property name="kdenlive:original.in">0</property>
  <property name="kdenlive:original.out">59</property>
  <property name="kdenlive:original.length">60</property>
  <property name="kdenlive:original.eof">pause</property>
  <property name="kdenlive:original.resource">video/ParenthesesExample/vid/17.mp4</property>
  <property name="kdenlive:original.meta.media.nb_streams">1</property>
  <property name="kdenlive:original.meta.media.0.stream.type">video</property>
  <property name="kdenlive:original.meta.media.0.stream.frame_rate">60</property>
  <property name="kdenlive:original.meta.media.0.stream.sample_aspect_ratio">0</property>
  <property name="kdenlive:original.meta.media.0.codec.width">3840</property>
  <property name="kdenlive:original.meta.media.0.codec.height">2160</property>
  <property name="kdenlive:original.meta.media.0.codec.rotate">0</property>
  <property name="kdenlive:original.meta.media.0.codec.pix_fmt">yuv420p</property>
  <property name="kdenlive:original.meta.media.0.codec.sample_aspect_ratio">0</property>
  <property name="kdenlive:original.meta.media.0.codec.colorspace">709</property>
  <property name="kdenlive:original.meta.media.0.codec.name">h264</property>
  <property name="kdenlive:original.meta.media.0.codec.long_name">H.264 / AVC / MPEG-4 AVC / MPEG-4 part 10</property>
  <property name="kdenlive:original.meta.media.0.codec.bit_rate">1396984</property>
  <property name="kdenlive:original.meta.attr.0.stream.handler_name.markup">VideoHandler</property>
  <property name="kdenlive:original.meta.attr.0.stream.vendor_id.markup">[0][0][0][0]</property>
  <property name="kdenlive:original.meta.attr.major_brand.markup">isom</property>
  <property name="kdenlive:original.meta.attr.minor_version.markup">512</property>
  <property name="kdenlive:original.meta.attr.compatible_brands.markup">isomiso2avc1mp41</property>
  <property name="kdenlive:original.meta.attr.encoder.markup">Lavf58.76.100</property>
  <property name="kdenlive:original.meta.attr.comment.markup">Rendered with Manim Community v0.12.0</property>
  <property name="kdenlive:original.seekable">1</property>
  <property name="kdenlive:original.width">3840</property>
  <property name="kdenlive:original.height">2160</property>
  <property name="kdenlive:original.meta.media.sample_aspect_num">1</property>
  <property name="kdenlive:original.meta.media.sample_aspect_den">1</property>
  <property name="kdenlive:original.aspect_ratio">1</property>
  <property name="kdenlive:original.audio_index">-1</property>
  <property name="kdenlive:original.video_index">0</property>
  <property name="kdenlive:original.mute_on_pause">0</property>
  <property name="kdenlive:original.mlt_service">avformat-novalidate</property>
  <property name="kdenlive:original.kdenlive:folderid">240</property>
  <property name="kdenlive:original.meta.media.frame_rate_num">60</property>
  <property name="kdenlive:original.meta.media.frame_rate_den">1</property>
  <property name="kdenlive:original.meta.media.colorspace">709</property>
  <property name="kdenlive:original.meta.media.color_trc">2</property>
  <property name="kdenlive:original.meta.media.has_b_frames">2</property>
  <property name="kdenlive:original.meta.media.width">3840</property>
  <property name="kdenlive:original.meta.media.height">2160</property>
  <property name="kdenlive:original.meta.media.color_range">mpeg</property>
  <property name="kdenlive:original.kdenlive:file_size">176255</property>
  <property name="kdenlive:original.kdenlive:id">249</property>
  <property name="kdenlive:original.kdenlive:file_hash">db5b1eb7a7e49d4f20e873f489ecea42</property>
  <property name="kdenlive:original.backup">1</property>
  <property name="kdenlive:file_hash">db5b1eb7a7e49d4f20e873f489ecea42</property>
  <property name="xml">was here</property>
  <property name="meta.media.nb_streams">1</property>
  <property name="meta.media.0.stream.type">video</property>
  <property name="meta.media.0.stream.frame_rate">60</property>
  <property name="meta.media.0.stream.sample_aspect_ratio">0</property>
  <property name="meta.media.0.codec.width">640</property>
  <property name="meta.media.0.codec.height">360</property>
  <property name="meta.media.0.codec.rotate">0</property>
  <property name="meta.media.0.codec.pix_fmt">yuv420p</property>
  <property name="meta.media.0.codec.sample_aspect_ratio">0</property>
  <property name="meta.media.0.codec.colorspace">601</property>
  <property name="meta.media.0.codec.name">h264</property>
  <property name="meta.media.0.codec.long_name">H.264 / AVC / MPEG-4 AVC / MPEG-4 part 10</property>
  <property name="meta.media.0.codec.bit_rate">4726784</property>
  <property name="meta.attr.0.stream.handler_name.markup">VideoHandler</property>
  <property name="meta.attr.0.stream.vendor_id.markup">FFMP</property>
  <property name="meta.attr.0.stream.encoder.markup">Lavc58.134.100 libx264</property>
  <property name="meta.attr.major_brand.markup">qt  </property>
  <property name="meta.attr.minor_version.markup">512</property>
  <property name="meta.attr.compatible_brands.markup">qt  </property>
  <property name="meta.attr.encoder.markup">Lavf58.76.100</property>
  <property name="meta.attr.comment.markup">Rendered with Manim Community v0.12.0</property>
  <property name="meta.media.sample_aspect_num">1</property>
  <property name="meta.media.sample_aspect_den">1</property>
  <property name="meta.media.frame_rate_num">60</property>
  <property name="meta.media.frame_rate_den">1</property>
  <property name="meta.media.colorspace">601</property>
  <property name="meta.media.color_trc">2</property>
  <property name="meta.media.has_b_frames">0</property>
  <property name="meta.media.width">640</property>
  <property name="meta.media.height">360</property>
  <property name="meta.media.color_range">mpeg</property>
  <property name="set.test_audio">1</property>
  <property name="set.test_image">0</property>
  <property name="meta.media.top_field_first">0</property>
  <property name="meta.media.progressive">1</property>
 </producer>
 <producer id="producer522" in="00:00:00.000" out="00:00:00.983">
  <property name="length">60</property>
  <property name="eof">pause</property>
  <property name="resource">/home/xiaoxiae/.cache/kdenlive/proxy/d2fdb3459311e3c2c3e6815a9145a123.mov</property>
  <property name="audio_index">-1</property>
  <property name="video_index">0</property>
  <property name="mute_on_pause">0</property>
  <property name="mlt_service">avformat-novalidate</property>
  <property name="seekable">1</property>
  <property name="aspect_ratio">1</property>
  <property name="kdenlive:clipname">18.mp4</property>
  <property name="kdenlive:folderid">240</property>
  <property name="kdenlive:id">249</property>
  <property name="kdenlive:file_size">211854</property>
  <property name="kdenlive:proxy">/home/xiaoxiae/.cache/kdenlive/proxy/d2fdb3459311e3c2c3e6815a9145a123.mov</property>
  <property name="kdenlive:originalurl">video/ParenthesesExample/vid/18.mp4</property>
  <property name="kdenlive:original.mlt_type">producer</property>
  <property name="kdenlive:original.in">0</property>
  <property name="kdenlive:original.out">59</property>
  <property name="kdenlive:original.length">60</property>
  <property name="kdenlive:original.eof">pause</property>
  <property name="kdenlive:original.resource">video/ParenthesesExample/vid/18.mp4</property>
  <property name="kdenlive:original.meta.media.nb_streams">1</property>
  <property name="kdenlive:original.meta.media.0.stream.type">video</property>
  <property name="kdenlive:original.meta.media.0.stream.frame_rate">60</property>
  <property name="kdenlive:original.meta.media.0.stream.sample_aspect_ratio">0</property>
  <property name="kdenlive:original.meta.media.0.codec.width">3840</property>
  <property name="kdenlive:original.meta.media.0.codec.height">2160</property>
  <property name="kdenlive:original.meta.media.0.codec.rotate">0</property>
  <property name="kdenlive:original.meta.media.0.codec.pix_fmt">yuv420p</property>
  <property name="kdenlive:original.meta.media.0.codec.sample_aspect_ratio">0</property>
  <property name="kdenlive:original.meta.media.0.codec.colorspace">709</property>
  <property name="kdenlive:original.meta.media.0.codec.name">h264</property>
  <property name="kdenlive:original.meta.media.0.codec.long_name">H.264 / AVC / MPEG-4 AVC / MPEG-4 part 10</property>
  <property name="kdenlive:original.meta.media.0.codec.bit_rate">1681776</property>
  <property name="kdenlive:original.meta.attr.0.stream.handler_name.markup">VideoHandler</property>
  <property name="kdenlive:original.meta.attr.0.stream.vendor_id.markup">[0][0][0][0]</property>
  <property name="kdenlive:original.meta.attr.major_brand.markup">isom</property>
  <property name="kdenlive:original.meta.attr.minor_version.markup">512</property>
  <property name="kdenlive:original.meta.attr.compatible_brands.markup">isomiso2avc1mp41</property>
  <property name="kdenlive:original.meta.attr.encoder.markup">Lavf58.76.100</property>
  <property name="kdenlive:original.meta.attr.comment.markup">Rendered with Manim Community v0.12.0</property>
  <property name="kdenlive:original.seekable">1</property>
  <property name="kdenlive:original.width">3840</property>
  <property name="kdenlive:original.height">2160</property>
  <property name="kdenlive:original.meta.media.sample_aspect_num">1</property>
  <property name="kdenlive:original.meta.media.sample_aspect_den">1</property>
  <property name="kdenlive:original.aspect_ratio">1</property>
  <property name="kdenlive:original.audio_index">-1</property>
  <property name="kdenlive:original.video_index">0</property>
  <property name="kdenlive:original.mute_on_pause">0</property>
  <property name="kdenlive:original.mlt_service">avformat-novalidate</property>
  <property name="kdenlive:original.kdenlive:folderid">240</property>
  <property name="kdenlive:original.meta.media.frame_rate_num">60</property>
  <property name="kdenlive:original.meta.media.frame_rate_den">1</property>
  <property name="kdenlive:original.meta.media.colorspace">709</property>
  <property name="kdenlive:original.meta.media.color_trc">2</property>
  <property name="kdenlive:original.meta.media.has_b_frames">2</property>
  <property name="kdenlive:original.meta.media.width">3840</property>
  <property name="kdenlive:original.meta.media.height">2160</property>
  <property name="kdenlive:original.meta.media.color_range">mpeg</property>
  <property name="kdenlive:original.kdenlive:id">250</property>
  <property name="kdenlive:original.kdenlive:file_size">211854</property>
  <property name="kdenlive:original.kdenlive:file_hash">d2fdb3459311e3c2c3e6815a9145a123</property>
  <property name="kdenlive:original.backup">1</property>
  <property name="kdenlive:file_hash">d2fdb3459311e3c2c3e6815a9145a123</property>
  <property name="xml">was here</property>
  <property name="meta.media.nb_streams">1</property>
  <property name="meta.media.0.stream.type">video</property>
  <property name="meta.media.0.stream.frame_rate">60</property>
  <property name="meta.media.0.stream.sample_aspect_ratio">0</property>
  <property name="meta.media.0.codec.width">640</property>
  <property name="meta.media.0.codec.height">360</property>
  <property name="meta.media.0.codec.rotate">0</property>
  <property name="meta.media.0.codec.pix_fmt">yuv420p</property>
  <property name="meta.media.0.codec.sample_aspect_ratio">0</property>
  <property name="meta.media.0.codec.colorspace">601</property>
  <property name="meta.media.0.codec.name">h264</property>
  <property name="meta.media.0.codec.long_name">H.264 / AVC / MPEG-4 AVC / MPEG-4 part 10</property>
  <property name="meta.media.0.codec.bit_rate">4550720</property>
  <property name="meta.attr.0.stream.handler_name.markup">VideoHandler</property>
  <property name="meta.attr.0.stream.vendor_id.markup">FFMP</property>
  <property name="meta.attr.0.stream.encoder.markup">Lavc58.134.100 libx264</property>
  <property name="meta.attr.major_brand.markup">qt  </property>
  <property name="meta.attr.minor_version.markup">512</property>
  <property name="meta.attr.compatible_brands.markup">qt  </property>
  <property name="meta.attr.encoder.markup">Lavf58.76.100</property>
  <property name="meta.attr.comment.markup">Rendered with Manim Community v0.12.0</property>
  <property name="meta.media.sample_aspect_num">1</property>
  <property name="meta.media.sample_aspect_den">1</property>
  <property name="meta.media.frame_rate_num">60</property>
  <property name="meta.media.frame_rate_den">1</property>
  <property name="meta.media.colorspace">601</property>
  <property name="meta.media.color_trc">2</property>
  <property name="meta.media.has_b_frames">0</property>
  <property name="meta.media.width">640</property>
  <property name="meta.media.height">360</property>
  <property name="meta.media.color_range">mpeg</property>
  <property name="set.test_audio">1</property>
  <property name="set.test_image">0</property>
 </producer>
 <producer id="producer523" in="00:00:00.000" out="00:00:00.983">
  <property name="length">60</property>
  <property name="eof">pause</property>
  <property name="resource">/home/xiaoxiae/.cache/kdenlive/proxy/3120dd021374b6561584fa4f25d259e4.mov</property>
  <property name="audio_index">-1</property>
  <property name="video_index">0</property>
  <property name="mute_on_pause">0</property>
  <property name="mlt_service">avformat-novalidate</property>
  <property name="seekable">1</property>
  <property name="aspect_ratio">1</property>
  <property name="kdenlive:clipname">19.mp4</property>
  <property name="kdenlive:folderid">240</property>
  <property name="kdenlive:id">250</property>
  <property name="kdenlive:file_size">146246</property>
  <property name="kdenlive:proxy">/home/xiaoxiae/.cache/kdenlive/proxy/3120dd021374b6561584fa4f25d259e4.mov</property>
  <property name="kdenlive:originalurl">video/ParenthesesExample/vid/19.mp4</property>
  <property name="kdenlive:original.mlt_type">producer</property>
  <property name="kdenlive:original.in">0</property>
  <property name="kdenlive:original.out">59</property>
  <property name="kdenlive:original.length">60</property>
  <property name="kdenlive:original.eof">pause</property>
  <property name="kdenlive:original.resource">video/ParenthesesExample/vid/19.mp4</property>
  <property name="kdenlive:original.meta.media.nb_streams">1</property>
  <property name="kdenlive:original.meta.media.0.stream.type">video</property>
  <property name="kdenlive:original.meta.media.0.stream.frame_rate">60</property>
  <property name="kdenlive:original.meta.media.0.stream.sample_aspect_ratio">0</property>
  <property name="kdenlive:original.meta.media.0.codec.width">3840</property>
  <property name="kdenlive:original.meta.media.0.codec.height">2160</property>
  <property name="kdenlive:original.meta.media.0.codec.rotate">0</property>
  <property name="kdenlive:original.meta.media.0.codec.pix_fmt">yuv420p</property>
  <property name="kdenlive:original.meta.media.0.codec.sample_aspect_ratio">0</property>
  <property name="kdenlive:original.meta.media.0.codec.colorspace">709</property>
  <property name="kdenlive:original.meta.media.0.codec.name">h264</property>
  <property name="kdenlive:original.meta.media.0.codec.long_name">H.264 / AVC / MPEG-4 AVC / MPEG-4 part 10</property>
  <property name="kdenlive:original.meta.media.0.codec.bit_rate">1156912</property>
  <property name="kdenlive:original.meta.attr.0.stream.handler_name.markup">VideoHandler</property>
  <property name="kdenlive:original.meta.attr.0.stream.vendor_id.markup">[0][0][0][0]</property>
  <property name="kdenlive:original.meta.attr.major_brand.markup">isom</property>
  <property name="kdenlive:original.meta.attr.minor_version.markup">512</property>
  <property name="kdenlive:original.meta.attr.compatible_brands.markup">isomiso2avc1mp41</property>
  <property name="kdenlive:original.meta.attr.encoder.markup">Lavf58.76.100</property>
  <property name="kdenlive:original.meta.attr.comment.markup">Rendered with Manim Community v0.12.0</property>
  <property name="kdenlive:original.seekable">1</property>
  <property name="kdenlive:original.width">3840</property>
  <property name="kdenlive:original.height">2160</property>
  <property name="kdenlive:original.meta.media.sample_aspect_num">1</property>
  <property name="kdenlive:original.meta.media.sample_aspect_den">1</property>
  <property name="kdenlive:original.aspect_ratio">1</property>
  <property name="kdenlive:original.audio_index">-1</property>
  <property name="kdenlive:original.video_index">0</property>
  <property name="kdenlive:original.mute_on_pause">0</property>
  <property name="kdenlive:original.mlt_service">avformat-novalidate</property>
  <property name="kdenlive:original.kdenlive:folderid">240</property>
  <property name="kdenlive:original.meta.media.frame_rate_num">60</property>
  <property name="kdenlive:original.meta.media.frame_rate_den">1</property>
  <property name="kdenlive:original.meta.media.colorspace">709</property>
  <property name="kdenlive:original.meta.media.color_trc">2</property>
  <property name="kdenlive:original.meta.media.has_b_frames">2</property>
  <property name="kdenlive:original.meta.media.width">3840</property>
  <property name="kdenlive:original.meta.media.height">2160</property>
  <property name="kdenlive:original.meta.media.color_range">mpeg</property>
  <property name="kdenlive:original.kdenlive:id">251</property>
  <property name="kdenlive:original.kdenlive:file_size">146246</property>
  <property name="kdenlive:original.kdenlive:file_hash">3120dd021374b6561584fa4f25d259e4</property>
  <property name="kdenlive:original.backup">1</property>
  <property name="kdenlive:file_hash">3120dd021374b6561584fa4f25d259e4</property>
  <property name="xml">was here</property>
  <property name="meta.media.nb_streams">1</property>
  <property name="meta.media.0.stream.type">video</property>
  <property name="meta.media.0.stream.frame_rate">60</property>
  <property name="meta.media.0.stream.sample_aspect_ratio">0</property>
  <property name="meta.media.0.codec.width">640</property>
  <property name="meta.media.0.codec.height">360</property>
  <property name="meta.media.0.codec.rotate">0</property>
  <property name="meta.media.0.codec.pix_fmt">yuv420p</property>
  <property name="meta.media.0.codec.sample_aspect_ratio">0</property>
  <property name="meta.media.0.codec.colorspace">601</property>
  <property name="meta.media.0.codec.name">h264</property>
  <property name="meta.media.0.codec.long_name">H.264 / AVC / MPEG-4 AVC / MPEG-4 part 10</property>
  <property name="meta.media.0.codec.bit_rate">4283600</property>
  <property name="meta.attr.0.stream.handler_name.markup">VideoHandler</property>
  <property name="meta.attr.0.stream.vendor_id.markup">FFMP</property>
  <property name="meta.attr.0.stream.encoder.markup">Lavc58.134.100 libx264</property>
  <property name="meta.attr.major_brand.markup">qt  </property>
  <property name="meta.attr.minor_version.markup">512</property>
  <property name="meta.attr.compatible_brands.markup">qt  </property>
  <property name="meta.attr.encoder.markup">Lavf58.76.100</property>
  <property name="meta.attr.comment.markup">Rendered with Manim Community v0.12.0</property>
  <property name="meta.media.sample_aspect_num">1</property>
  <property name="meta.media.sample_aspect_den">1</property>
  <property name="meta.media.frame_rate_num">60</property>
  <property name="meta.media.frame_rate_den">1</property>
  <property name="meta.media.colorspace">601</property>
  <property name="meta.media.color_trc">2</property>
  <property name="meta.media.has_b_frames">0</property>
  <property name="meta.media.width">640</property>
  <property name="meta.media.height">360</property>
  <property name="meta.media.color_range">mpeg</property>
  <property name="set.test_audio">1</property>
  <property name="set.test_image">0</property>
  <property name="meta.media.top_field_first">0</property>
  <property name="meta.media.progressive">1</property>
 </producer>
 <producer id="producer524" in="00:00:00.000" out="00:00:00.983">
  <property name="length">60</property>
  <property name="eof">pause</property>
  <property name="resource">/home/xiaoxiae/.cache/kdenlive/proxy/58366813f681daf23beff1b2e47aadbf.mov</property>
  <property name="audio_index">-1</property>
  <property name="video_index">0</property>
  <property name="mute_on_pause">0</property>
  <property name="mlt_service">avformat-novalidate</property>
  <property name="seekable">1</property>
  <property name="aspect_ratio">1</property>
  <property name="kdenlive:clipname">20.mp4</property>
  <property name="kdenlive:folderid">240</property>
  <property name="kdenlive:id">252</property>
  <property name="kdenlive:file_size">144902</property>
  <property name="kdenlive:proxy">/home/xiaoxiae/.cache/kdenlive/proxy/58366813f681daf23beff1b2e47aadbf.mov</property>
  <property name="kdenlive:originalurl">video/ParenthesesExample/vid/20.mp4</property>
  <property name="kdenlive:original.mlt_type">producer</property>
  <property name="kdenlive:original.in">0</property>
  <property name="kdenlive:original.out">59</property>
  <property name="kdenlive:original.length">60</property>
  <property name="kdenlive:original.eof">pause</property>
  <property name="kdenlive:original.resource">video/ParenthesesExample/vid/20.mp4</property>
  <property name="kdenlive:original.meta.media.nb_streams">1</property>
  <property name="kdenlive:original.meta.media.0.stream.type">video</property>
  <property name="kdenlive:original.meta.media.0.stream.frame_rate">60</property>
  <property name="kdenlive:original.meta.media.0.stream.sample_aspect_ratio">0</property>
  <property name="kdenlive:original.meta.media.0.codec.width">3840</property>
  <property name="kdenlive:original.meta.media.0.codec.height">2160</property>
  <property name="kdenlive:original.meta.media.0.codec.rotate">0</property>
  <property name="kdenlive:original.meta.media.0.codec.pix_fmt">yuv420p</property>
  <property name="kdenlive:original.meta.media.0.codec.sample_aspect_ratio">0</property>
  <property name="kdenlive:original.meta.media.0.codec.colorspace">709</property>
  <property name="kdenlive:original.meta.media.0.codec.name">h264</property>
  <property name="kdenlive:original.meta.media.0.codec.long_name">H.264 / AVC / MPEG-4 AVC / MPEG-4 part 10</property>
  <property name="kdenlive:original.meta.media.0.codec.bit_rate">1146160</property>
  <property name="kdenlive:original.meta.attr.0.stream.handler_name.markup">VideoHandler</property>
  <property name="kdenlive:original.meta.attr.0.stream.vendor_id.markup">[0][0][0][0]</property>
  <property name="kdenlive:original.meta.attr.major_brand.markup">isom</property>
  <property name="kdenlive:original.meta.attr.minor_version.markup">512</property>
  <property name="kdenlive:original.meta.attr.compatible_brands.markup">isomiso2avc1mp41</property>
  <property name="kdenlive:original.meta.attr.encoder.markup">Lavf58.76.100</property>
  <property name="kdenlive:original.meta.attr.comment.markup">Rendered with Manim Community v0.12.0</property>
  <property name="kdenlive:original.seekable">1</property>
  <property name="kdenlive:original.width">3840</property>
  <property name="kdenlive:original.height">2160</property>
  <property name="kdenlive:original.meta.media.sample_aspect_num">1</property>
  <property name="kdenlive:original.meta.media.sample_aspect_den">1</property>
  <property name="kdenlive:original.aspect_ratio">1</property>
  <property name="kdenlive:original.audio_index">-1</property>
  <property name="kdenlive:original.video_index">0</property>
  <property name="kdenlive:original.mute_on_pause">0</property>
  <property name="kdenlive:original.mlt_service">avformat-novalidate</property>
  <property name="kdenlive:original.kdenlive:folderid">240</property>
  <property name="kdenlive:original.meta.media.frame_rate_num">60</property>
  <property name="kdenlive:original.meta.media.frame_rate_den">1</property>
  <property name="kdenlive:original.meta.media.colorspace">709</property>
  <property name="kdenlive:original.meta.media.color_trc">2</property>
  <property name="kdenlive:original.meta.media.has_b_frames">2</property>
  <property name="kdenlive:original.meta.media.width">3840</property>
  <property name="kdenlive:original.meta.media.height">2160</property>
  <property name="kdenlive:original.meta.media.color_range">mpeg</property>
  <property name="kdenlive:original.kdenlive:id">253</property>
  <property name="kdenlive:original.kdenlive:file_size">144902</property>
  <property name="kdenlive:original.kdenlive:file_hash">58366813f681daf23beff1b2e47aadbf</property>
  <property name="kdenlive:original.backup">1</property>
  <property name="kdenlive:file_hash">58366813f681daf23beff1b2e47aadbf</property>
  <property name="xml">was here</property>
  <property name="meta.media.nb_streams">1</property>
  <property name="meta.media.0.stream.type">video</property>
  <property name="meta.media.0.stream.frame_rate">60</property>
  <property name="meta.media.0.stream.sample_aspect_ratio">0</property>
  <property name="meta.media.0.codec.width">640</property>
  <property name="meta.media.0.codec.height">360</property>
  <property name="meta.media.0.codec.rotate">0</property>
  <property name="meta.media.0.codec.pix_fmt">yuv420p</property>
  <property name="meta.media.0.codec.sample_aspect_ratio">0</property>
  <property name="meta.media.0.codec.colorspace">601</property>
  <property name="meta.media.0.codec.name">h264</property>
  <property name="meta.media.0.codec.long_name">H.264 / AVC / MPEG-4 AVC / MPEG-4 part 10</property>
  <property name="meta.media.0.codec.bit_rate">4311616</property>
  <property name="meta.attr.0.stream.handler_name.markup">VideoHandler</property>
  <property name="meta.attr.0.stream.vendor_id.markup">FFMP</property>
  <property name="meta.attr.0.stream.encoder.markup">Lavc58.134.100 libx264</property>
  <property name="meta.attr.major_brand.markup">qt  </property>
  <property name="meta.attr.minor_version.markup">512</property>
  <property name="meta.attr.compatible_brands.markup">qt  </property>
  <property name="meta.attr.encoder.markup">Lavf58.76.100</property>
  <property name="meta.attr.comment.markup">Rendered with Manim Community v0.12.0</property>
  <property name="meta.media.sample_aspect_num">1</property>
  <property name="meta.media.sample_aspect_den">1</property>
  <property name="meta.media.frame_rate_num">60</property>
  <property name="meta.media.frame_rate_den">1</property>
  <property name="meta.media.colorspace">601</property>
  <property name="meta.media.color_trc">2</property>
  <property name="meta.media.has_b_frames">0</property>
  <property name="meta.media.width">640</property>
  <property name="meta.media.height">360</property>
  <property name="meta.media.color_range">mpeg</property>
  <property name="set.test_audio">1</property>
  <property name="set.test_image">0</property>
  <property name="meta.media.top_field_first">0</property>
  <property name="meta.media.progressive">1</property>
 </producer>
 <producer id="producer525" in="00:00:00.000" out="00:00:00.983">
  <property name="length">60</property>
  <property name="eof">pause</property>
  <property name="resource">/home/xiaoxiae/.cache/kdenlive/proxy/bcdda3ad7ddcdbf41bfbc0d222f72b9d.mov</property>
  <property name="audio_index">-1</property>
  <property name="video_index">0</property>
  <property name="mute_on_pause">0</property>
  <property name="mlt_service">avformat-novalidate</property>
  <property name="seekable">1</property>
  <property name="aspect_ratio">1</property>
  <property name="kdenlive:clipname">21.mp4</property>
  <property name="kdenlive:folderid">240</property>
  <property name="kdenlive:id">253</property>
  <property name="kdenlive:file_size">198757</property>
  <property name="kdenlive:proxy">/home/xiaoxiae/.cache/kdenlive/proxy/bcdda3ad7ddcdbf41bfbc0d222f72b9d.mov</property>
  <property name="kdenlive:originalurl">video/ParenthesesExample/vid/21.mp4</property>
  <property name="kdenlive:original.mlt_type">producer</property>
  <property name="kdenlive:original.in">0</property>
  <property name="kdenlive:original.out">59</property>
  <property name="kdenlive:original.length">60</property>
  <property name="kdenlive:original.eof">pause</property>
  <property name="kdenlive:original.resource">video/ParenthesesExample/vid/21.mp4</property>
  <property name="kdenlive:original.meta.media.nb_streams">1</property>
  <property name="kdenlive:original.meta.media.0.stream.type">video</property>
  <property name="kdenlive:original.meta.media.0.stream.frame_rate">60</property>
  <property name="kdenlive:original.meta.media.0.stream.sample_aspect_ratio">0</property>
  <property name="kdenlive:original.meta.media.0.codec.width">3840</property>
  <property name="kdenlive:original.meta.media.0.codec.height">2160</property>
  <property name="kdenlive:original.meta.media.0.codec.rotate">0</property>
  <property name="kdenlive:original.meta.media.0.codec.pix_fmt">yuv420p</property>
  <property name="kdenlive:original.meta.media.0.codec.sample_aspect_ratio">0</property>
  <property name="kdenlive:original.meta.media.0.codec.colorspace">709</property>
  <property name="kdenlive:original.meta.media.0.codec.name">h264</property>
  <property name="kdenlive:original.meta.media.0.codec.long_name">H.264 / AVC / MPEG-4 AVC / MPEG-4 part 10</property>
  <property name="kdenlive:original.meta.media.0.codec.bit_rate">1577192</property>
  <property name="kdenlive:original.meta.attr.0.stream.handler_name.markup">VideoHandler</property>
  <property name="kdenlive:original.meta.attr.0.stream.vendor_id.markup">[0][0][0][0]</property>
  <property name="kdenlive:original.meta.attr.major_brand.markup">isom</property>
  <property name="kdenlive:original.meta.attr.minor_version.markup">512</property>
  <property name="kdenlive:original.meta.attr.compatible_brands.markup">isomiso2avc1mp41</property>
  <property name="kdenlive:original.meta.attr.encoder.markup">Lavf58.76.100</property>
  <property name="kdenlive:original.meta.attr.comment.markup">Rendered with Manim Community v0.12.0</property>
  <property name="kdenlive:original.seekable">1</property>
  <property name="kdenlive:original.width">3840</property>
  <property name="kdenlive:original.height">2160</property>
  <property name="kdenlive:original.meta.media.sample_aspect_num">1</property>
  <property name="kdenlive:original.meta.media.sample_aspect_den">1</property>
  <property name="kdenlive:original.aspect_ratio">1</property>
  <property name="kdenlive:original.audio_index">-1</property>
  <property name="kdenlive:original.video_index">0</property>
  <property name="kdenlive:original.mute_on_pause">0</property>
  <property name="kdenlive:original.mlt_service">avformat-novalidate</property>
  <property name="kdenlive:original.kdenlive:folderid">240</property>
  <property name="kdenlive:original.meta.media.frame_rate_num">60</property>
  <property name="kdenlive:original.meta.media.frame_rate_den">1</property>
  <property name="kdenlive:original.meta.media.colorspace">709</property>
  <property name="kdenlive:original.meta.media.color_trc">2</property>
  <property name="kdenlive:original.meta.media.has_b_frames">2</property>
  <property name="kdenlive:original.meta.media.width">3840</property>
  <property name="kdenlive:original.meta.media.height">2160</property>
  <property name="kdenlive:original.meta.media.color_range">mpeg</property>
  <property name="kdenlive:original.kdenlive:id">254</property>
  <property name="kdenlive:original.kdenlive:file_size">198757</property>
  <property name="kdenlive:original.kdenlive:file_hash">bcdda3ad7ddcdbf41bfbc0d222f72b9d</property>
  <property name="kdenlive:original.backup">1</property>
  <property name="kdenlive:file_hash">bcdda3ad7ddcdbf41bfbc0d222f72b9d</property>
  <property name="xml">was here</property>
  <property name="meta.media.nb_streams">1</property>
  <property name="meta.media.0.stream.type">video</property>
  <property name="meta.media.0.stream.frame_rate">60</property>
  <property name="meta.media.0.stream.sample_aspect_ratio">0</property>
  <property name="meta.media.0.codec.width">640</property>
  <property name="meta.media.0.codec.height">360</property>
  <property name="meta.media.0.codec.rotate">0</property>
  <property name="meta.media.0.codec.pix_fmt">yuv420p</property>
  <property name="meta.media.0.codec.sample_aspect_ratio">0</property>
  <property name="meta.media.0.codec.colorspace">601</property>
  <property name="meta.media.0.codec.name">h264</property>
  <property name="meta.media.0.codec.long_name">H.264 / AVC / MPEG-4 AVC / MPEG-4 part 10</property>
  <property name="meta.media.0.codec.bit_rate">4509168</property>
  <property name="meta.attr.0.stream.handler_name.markup">VideoHandler</property>
  <property name="meta.attr.0.stream.vendor_id.markup">FFMP</property>
  <property name="meta.attr.0.stream.encoder.markup">Lavc58.134.100 libx264</property>
  <property name="meta.attr.major_brand.markup">qt  </property>
  <property name="meta.attr.minor_version.markup">512</property>
  <property name="meta.attr.compatible_brands.markup">qt  </property>
  <property name="meta.attr.encoder.markup">Lavf58.76.100</property>
  <property name="meta.attr.comment.markup">Rendered with Manim Community v0.12.0</property>
  <property name="meta.media.sample_aspect_num">1</property>
  <property name="meta.media.sample_aspect_den">1</property>
  <property name="meta.media.frame_rate_num">60</property>
  <property name="meta.media.frame_rate_den">1</property>
  <property name="meta.media.colorspace">601</property>
  <property name="meta.media.color_trc">2</property>
  <property name="meta.media.has_b_frames">0</property>
  <property name="meta.media.width">640</property>
  <property name="meta.media.height">360</property>
  <property name="meta.media.color_range">mpeg</property>
  <property name="set.test_audio">1</property>
  <property name="set.test_image">0</property>
  <property name="meta.media.top_field_first">0</property>
  <property name="meta.media.progressive">1</property>
 </producer>
 <producer id="producer526" in="00:00:00.000" out="00:00:00.983">
  <property name="length">60</property>
  <property name="eof">pause</property>
  <property name="resource">/home/xiaoxiae/.cache/kdenlive/proxy/75d54634a11093205609a25a5b856a5e.mov</property>
  <property name="audio_index">-1</property>
  <property name="video_index">0</property>
  <property name="mute_on_pause">0</property>
  <property name="mlt_service">avformat-novalidate</property>
  <property name="seekable">1</property>
  <property name="aspect_ratio">1</property>
  <property name="kdenlive:clipname">22.mp4</property>
  <property name="kdenlive:folderid">240</property>
  <property name="kdenlive:id">254</property>
  <property name="kdenlive:file_size">716872</property>
  <property name="kdenlive:proxy">/home/xiaoxiae/.cache/kdenlive/proxy/75d54634a11093205609a25a5b856a5e.mov</property>
  <property name="kdenlive:originalurl">video/ParenthesesExample/vid/22.mp4</property>
  <property name="kdenlive:original.mlt_type">producer</property>
  <property name="kdenlive:original.in">0</property>
  <property name="kdenlive:original.out">59</property>
  <property name="kdenlive:original.length">60</property>
  <property name="kdenlive:original.eof">pause</property>
  <property name="kdenlive:original.resource">video/ParenthesesExample/vid/22.mp4</property>
  <property name="kdenlive:original.meta.media.nb_streams">1</property>
  <property name="kdenlive:original.meta.media.0.stream.type">video</property>
  <property name="kdenlive:original.meta.media.0.stream.frame_rate">60</property>
  <property name="kdenlive:original.meta.media.0.stream.sample_aspect_ratio">0</property>
  <property name="kdenlive:original.meta.media.0.codec.width">3840</property>
  <property name="kdenlive:original.meta.media.0.codec.height">2160</property>
  <property name="kdenlive:original.meta.media.0.codec.rotate">0</property>
  <property name="kdenlive:original.meta.media.0.codec.pix_fmt">yuv420p</property>
  <property name="kdenlive:original.meta.media.0.codec.sample_aspect_ratio">0</property>
  <property name="kdenlive:original.meta.media.0.codec.colorspace">709</property>
  <property name="kdenlive:original.meta.media.0.codec.name">h264</property>
  <property name="kdenlive:original.meta.media.0.codec.long_name">H.264 / AVC / MPEG-4 AVC / MPEG-4 part 10</property>
  <property name="kdenlive:original.meta.media.0.codec.bit_rate">5723392</property>
  <property name="kdenlive:original.meta.attr.0.stream.handler_name.markup">VideoHandler</property>
  <property name="kdenlive:original.meta.attr.0.stream.vendor_id.markup">[0][0][0][0]</property>
  <property name="kdenlive:original.meta.attr.major_brand.markup">isom</property>
  <property name="kdenlive:original.meta.attr.minor_version.markup">512</property>
  <property name="kdenlive:original.meta.attr.compatible_brands.markup">isomiso2avc1mp41</property>
  <property name="kdenlive:original.meta.attr.encoder.markup">Lavf58.76.100</property>
  <property name="kdenlive:original.meta.attr.comment.markup">Rendered with Manim Community v0.12.0</property>
  <property name="kdenlive:original.seekable">1</property>
  <property name="kdenlive:original.width">3840</property>
  <property name="kdenlive:original.height">2160</property>
  <property name="kdenlive:original.meta.media.sample_aspect_num">1</property>
  <property name="kdenlive:original.meta.media.sample_aspect_den">1</property>
  <property name="kdenlive:original.aspect_ratio">1</property>
  <property name="kdenlive:original.audio_index">-1</property>
  <property name="kdenlive:original.video_index">0</property>
  <property name="kdenlive:original.mute_on_pause">0</property>
  <property name="kdenlive:original.mlt_service">avformat-novalidate</property>
  <property name="kdenlive:original.kdenlive:folderid">240</property>
  <property name="kdenlive:original.meta.media.frame_rate_num">60</property>
  <property name="kdenlive:original.meta.media.frame_rate_den">1</property>
  <property name="kdenlive:original.meta.media.colorspace">709</property>
  <property name="kdenlive:original.meta.media.color_trc">2</property>
  <property name="kdenlive:original.meta.media.has_b_frames">2</property>
  <property name="kdenlive:original.meta.media.width">3840</property>
  <property name="kdenlive:original.meta.media.height">2160</property>
  <property name="kdenlive:original.meta.media.color_range">mpeg</property>
  <property name="kdenlive:original.kdenlive:id">255</property>
  <property name="kdenlive:original.kdenlive:file_size">716872</property>
  <property name="kdenlive:original.kdenlive:file_hash">75d54634a11093205609a25a5b856a5e</property>
  <property name="kdenlive:original.backup">1</property>
  <property name="kdenlive:file_hash">75d54634a11093205609a25a5b856a5e</property>
  <property name="xml">was here</property>
  <property name="meta.media.nb_streams">1</property>
  <property name="meta.media.0.stream.type">video</property>
  <property name="meta.media.0.stream.frame_rate">60</property>
  <property name="meta.media.0.stream.sample_aspect_ratio">0</property>
  <property name="meta.media.0.codec.width">640</property>
  <property name="meta.media.0.codec.height">360</property>
  <property name="meta.media.0.codec.rotate">0</property>
  <property name="meta.media.0.codec.pix_fmt">yuv420p</property>
  <property name="meta.media.0.codec.sample_aspect_ratio">0</property>
  <property name="meta.media.0.codec.colorspace">601</property>
  <property name="meta.media.0.codec.name">h264</property>
  <property name="meta.media.0.codec.long_name">H.264 / AVC / MPEG-4 AVC / MPEG-4 part 10</property>
  <property name="meta.media.0.codec.bit_rate">3781352</property>
  <property name="meta.attr.0.stream.handler_name.markup">VideoHandler</property>
  <property name="meta.attr.0.stream.vendor_id.markup">FFMP</property>
  <property name="meta.attr.0.stream.encoder.markup">Lavc58.134.100 libx264</property>
  <property name="meta.attr.major_brand.markup">qt  </property>
  <property name="meta.attr.minor_version.markup">512</property>
  <property name="meta.attr.compatible_brands.markup">qt  </property>
  <property name="meta.attr.encoder.markup">Lavf58.76.100</property>
  <property name="meta.attr.comment.markup">Rendered with Manim Community v0.12.0</property>
  <property name="meta.media.sample_aspect_num">1</property>
  <property name="meta.media.sample_aspect_den">1</property>
  <property name="meta.media.frame_rate_num">60</property>
  <property name="meta.media.frame_rate_den">1</property>
  <property name="meta.media.colorspace">601</property>
  <property name="meta.media.color_trc">2</property>
  <property name="meta.media.has_b_frames">0</property>
  <property name="meta.media.width">640</property>
  <property name="meta.media.height">360</property>
  <property name="meta.media.color_range">mpeg</property>
  <property name="set.test_audio">1</property>
  <property name="set.test_image">0</property>
  <property name="meta.media.top_field_first">0</property>
  <property name="meta.media.progressive">1</property>
 </producer>
 <producer id="producer527" in="00:00:00.000" out="00:00:00.983">
  <property name="length">60</property>
  <property name="eof">pause</property>
  <property name="resource">/home/xiaoxiae/.cache/kdenlive/proxy/46afb54b4abb7fcd5807c9cc2c951fac.mov</property>
  <property name="audio_index">-1</property>
  <property name="video_index">0</property>
  <property name="mute_on_pause">0</property>
  <property name="mlt_service">avformat-novalidate</property>
  <property name="seekable">1</property>
  <property name="aspect_ratio">1</property>
  <property name="kdenlive:clipname">23.mp4</property>
  <property name="kdenlive:folderid">240</property>
  <property name="kdenlive:id">255</property>
  <property name="kdenlive:file_size">149113</property>
  <property name="kdenlive:proxy">/home/xiaoxiae/.cache/kdenlive/proxy/46afb54b4abb7fcd5807c9cc2c951fac.mov</property>
  <property name="kdenlive:originalurl">video/ParenthesesExample/vid/23.mp4</property>
  <property name="kdenlive:original.mlt_type">producer</property>
  <property name="kdenlive:original.in">0</property>
  <property name="kdenlive:original.out">59</property>
  <property name="kdenlive:original.length">60</property>
  <property name="kdenlive:original.eof">pause</property>
  <property name="kdenlive:original.resource">video/ParenthesesExample/vid/23.mp4</property>
  <property name="kdenlive:original.meta.media.nb_streams">1</property>
  <property name="kdenlive:original.meta.media.0.stream.type">video</property>
  <property name="kdenlive:original.meta.media.0.stream.frame_rate">60</property>
  <property name="kdenlive:original.meta.media.0.stream.sample_aspect_ratio">0</property>
  <property name="kdenlive:original.meta.media.0.codec.width">3840</property>
  <property name="kdenlive:original.meta.media.0.codec.height">2160</property>
  <property name="kdenlive:original.meta.media.0.codec.rotate">0</property>
  <property name="kdenlive:original.meta.media.0.codec.pix_fmt">yuv420p</property>
  <property name="kdenlive:original.meta.media.0.codec.sample_aspect_ratio">0</property>
  <property name="kdenlive:original.meta.media.0.codec.colorspace">709</property>
  <property name="kdenlive:original.meta.media.0.codec.name">h264</property>
  <property name="kdenlive:original.meta.media.0.codec.long_name">H.264 / AVC / MPEG-4 AVC / MPEG-4 part 10</property>
  <property name="kdenlive:original.meta.media.0.codec.bit_rate">1180104</property>
  <property name="kdenlive:original.meta.attr.0.stream.handler_name.markup">VideoHandler</property>
  <property name="kdenlive:original.meta.attr.0.stream.vendor_id.markup">[0][0][0][0]</property>
  <property name="kdenlive:original.meta.attr.major_brand.markup">isom</property>
  <property name="kdenlive:original.meta.attr.minor_version.markup">512</property>
  <property name="kdenlive:original.meta.attr.compatible_brands.markup">isomiso2avc1mp41</property>
  <property name="kdenlive:original.meta.attr.encoder.markup">Lavf58.76.100</property>
  <property name="kdenlive:original.meta.attr.comment.markup">Rendered with Manim Community v0.12.0</property>
  <property name="kdenlive:original.seekable">1</property>
  <property name="kdenlive:original.width">3840</property>
  <property name="kdenlive:original.height">2160</property>
  <property name="kdenlive:original.meta.media.sample_aspect_num">1</property>
  <property name="kdenlive:original.meta.media.sample_aspect_den">1</property>
  <property name="kdenlive:original.aspect_ratio">1</property>
  <property name="kdenlive:original.audio_index">-1</property>
  <property name="kdenlive:original.video_index">0</property>
  <property name="kdenlive:original.mute_on_pause">0</property>
  <property name="kdenlive:original.mlt_service">avformat-novalidate</property>
  <property name="kdenlive:original.kdenlive:folderid">240</property>
  <property name="kdenlive:original.meta.media.frame_rate_num">60</property>
  <property name="kdenlive:original.meta.media.frame_rate_den">1</property>
  <property name="kdenlive:original.meta.media.colorspace">709</property>
  <property name="kdenlive:original.meta.media.color_trc">2</property>
  <property name="kdenlive:original.meta.media.has_b_frames">2</property>
  <property name="kdenlive:original.meta.media.width">3840</property>
  <property name="kdenlive:original.meta.media.height">2160</property>
  <property name="kdenlive:original.meta.media.color_range">mpeg</property>
  <property name="kdenlive:original.kdenlive:id">256</property>
  <property name="kdenlive:original.kdenlive:file_size">149113</property>
  <property name="kdenlive:original.kdenlive:file_hash">46afb54b4abb7fcd5807c9cc2c951fac</property>
  <property name="kdenlive:original.backup">1</property>
  <property name="kdenlive:file_hash">46afb54b4abb7fcd5807c9cc2c951fac</property>
  <property name="xml">was here</property>
  <property name="meta.media.nb_streams">1</property>
  <property name="meta.media.0.stream.type">video</property>
  <property name="meta.media.0.stream.frame_rate">60</property>
  <property name="meta.media.0.stream.sample_aspect_ratio">0</property>
  <property name="meta.media.0.codec.width">640</property>
  <property name="meta.media.0.codec.height">360</property>
  <property name="meta.media.0.codec.rotate">0</property>
  <property name="meta.media.0.codec.pix_fmt">yuv420p</property>
  <property name="meta.media.0.codec.sample_aspect_ratio">0</property>
  <property name="meta.media.0.codec.colorspace">601</property>
  <property name="meta.media.0.codec.name">h264</property>
  <property name="meta.media.0.codec.long_name">H.264 / AVC / MPEG-4 AVC / MPEG-4 part 10</property>
  <property name="meta.media.0.codec.bit_rate">2292744</property>
  <property name="meta.attr.0.stream.handler_name.markup">VideoHandler</property>
  <property name="meta.attr.0.stream.vendor_id.markup">FFMP</property>
  <property name="meta.attr.0.stream.encoder.markup">Lavc58.134.100 libx264</property>
  <property name="meta.attr.major_brand.markup">qt  </property>
  <property name="meta.attr.minor_version.markup">512</property>
  <property name="meta.attr.compatible_brands.markup">qt  </property>
  <property name="meta.attr.encoder.markup">Lavf58.76.100</property>
  <property name="meta.attr.comment.markup">Rendered with Manim Community v0.12.0</property>
  <property name="meta.media.sample_aspect_num">1</property>
  <property name="meta.media.sample_aspect_den">1</property>
  <property name="meta.media.frame_rate_num">60</property>
  <property name="meta.media.frame_rate_den">1</property>
  <property name="meta.media.colorspace">601</property>
  <property name="meta.media.color_trc">2</property>
  <property name="meta.media.has_b_frames">0</property>
  <property name="meta.media.width">640</property>
  <property name="meta.media.height">360</property>
  <property name="meta.media.color_range">mpeg</property>
  <property name="set.test_audio">1</property>
  <property name="set.test_image">0</property>
  <property name="meta.media.top_field_first">0</property>
  <property name="meta.media.progressive">1</property>
 </producer>
 <producer id="producer528" in="00:00:00.000" out="00:00:00.983">
  <property name="length">60</property>
  <property name="eof">pause</property>
  <property name="resource">/home/xiaoxiae/.cache/kdenlive/proxy/9e69df7e57531a93884b3b84e529648f.mov</property>
  <property name="audio_index">-1</property>
  <property name="video_index">0</property>
  <property name="mute_on_pause">0</property>
  <property name="mlt_service">avformat-novalidate</property>
  <property name="seekable">1</property>
  <property name="aspect_ratio">1</property>
  <property name="kdenlive:clipname">1.mp4</property>
  <property name="kdenlive:folderid">126</property>
  <property name="kdenlive:id">125</property>
  <property name="kdenlive:file_size">71726</property>
  <property name="kdenlive:proxy">/home/xiaoxiae/.cache/kdenlive/proxy/9e69df7e57531a93884b3b84e529648f.mov</property>
  <property name="kdenlive:originalurl">video/ComputationalPower/vid/1.mp4</property>
  <property name="kdenlive:original.mlt_type">producer</property>
  <property name="kdenlive:original.in">0</property>
  <property name="kdenlive:original.out">59</property>
  <property name="kdenlive:original.length">60</property>
  <property name="kdenlive:original.eof">pause</property>
  <property name="kdenlive:original.resource">video/ComputationalPower/vid/1.mp4</property>
  <property name="kdenlive:original.meta.media.nb_streams">1</property>
  <property name="kdenlive:original.meta.media.0.stream.type">video</property>
  <property name="kdenlive:original.meta.media.0.stream.frame_rate">60</property>
  <property name="kdenlive:original.meta.media.0.stream.sample_aspect_ratio">0</property>
  <property name="kdenlive:original.meta.media.0.codec.width">3840</property>
  <property name="kdenlive:original.meta.media.0.codec.height">2160</property>
  <property name="kdenlive:original.meta.media.0.codec.rotate">0</property>
  <property name="kdenlive:original.meta.media.0.codec.pix_fmt">yuv420p</property>
  <property name="kdenlive:original.meta.media.0.codec.sample_aspect_ratio">0</property>
  <property name="kdenlive:original.meta.media.0.codec.colorspace">709</property>
  <property name="kdenlive:original.meta.media.0.codec.name">h264</property>
  <property name="kdenlive:original.meta.media.0.codec.long_name">H.264 / AVC / MPEG-4 AVC / MPEG-4 part 10</property>
  <property name="kdenlive:original.meta.media.0.codec.bit_rate">560752</property>
  <property name="kdenlive:original.meta.attr.0.stream.handler_name.markup">VideoHandler</property>
  <property name="kdenlive:original.meta.attr.0.stream.vendor_id.markup">[0][0][0][0]</property>
  <property name="kdenlive:original.meta.attr.major_brand.markup">isom</property>
  <property name="kdenlive:original.meta.attr.minor_version.markup">512</property>
  <property name="kdenlive:original.meta.attr.compatible_brands.markup">isomiso2avc1mp41</property>
  <property name="kdenlive:original.meta.attr.encoder.markup">Lavf58.76.100</property>
  <property name="kdenlive:original.meta.attr.comment.markup">Rendered with Manim Community v0.12.0</property>
  <property name="kdenlive:original.seekable">1</property>
  <property name="kdenlive:original.width">3840</property>
  <property name="kdenlive:original.height">2160</property>
  <property name="kdenlive:original.meta.media.sample_aspect_num">1</property>
  <property name="kdenlive:original.meta.media.sample_aspect_den">1</property>
  <property name="kdenlive:original.aspect_ratio">1</property>
  <property name="kdenlive:original.audio_index">-1</property>
  <property name="kdenlive:original.video_index">0</property>
  <property name="kdenlive:original.mute_on_pause">0</property>
  <property name="kdenlive:original.mlt_service">avformat-novalidate</property>
  <property name="kdenlive:original.kdenlive:folderid">126</property>
  <property name="kdenlive:original.meta.media.frame_rate_num">60</property>
  <property name="kdenlive:original.meta.media.frame_rate_den">1</property>
  <property name="kdenlive:original.meta.media.colorspace">709</property>
  <property name="kdenlive:original.meta.media.color_trc">2</property>
  <property name="kdenlive:original.meta.media.has_b_frames">2</property>
  <property name="kdenlive:original.meta.media.width">3840</property>
  <property name="kdenlive:original.meta.media.height">2160</property>
  <property name="kdenlive:original.meta.media.color_range">mpeg</property>
  <property name="kdenlive:original.kdenlive:id">127</property>
  <property name="kdenlive:original.kdenlive:file_size">71726</property>
  <property name="kdenlive:original.kdenlive:file_hash">9e69df7e57531a93884b3b84e529648f</property>
  <property name="kdenlive:original.backup">1</property>
  <property name="kdenlive:file_hash">9e69df7e57531a93884b3b84e529648f</property>
  <property name="xml">was here</property>
  <property name="meta.media.nb_streams">1</property>
  <property name="meta.media.0.stream.type">video</property>
  <property name="meta.media.0.stream.frame_rate">60</property>
  <property name="meta.media.0.stream.sample_aspect_ratio">0</property>
  <property name="meta.media.0.codec.width">640</property>
  <property name="meta.media.0.codec.height">360</property>
  <property name="meta.media.0.codec.rotate">0</property>
  <property name="meta.media.0.codec.pix_fmt">yuv420p</property>
  <property name="meta.media.0.codec.sample_aspect_ratio">0</property>
  <property name="meta.media.0.codec.colorspace">601</property>
  <property name="meta.media.0.codec.name">h264</property>
  <property name="meta.media.0.codec.long_name">H.264 / AVC / MPEG-4 AVC / MPEG-4 part 10</property>
  <property name="meta.media.0.codec.bit_rate">672120</property>
  <property name="meta.attr.0.stream.handler_name.markup">VideoHandler</property>
  <property name="meta.attr.0.stream.vendor_id.markup">FFMP</property>
  <property name="meta.attr.0.stream.encoder.markup">Lavc58.134.100 libx264</property>
  <property name="meta.attr.major_brand.markup">qt  </property>
  <property name="meta.attr.minor_version.markup">512</property>
  <property name="meta.attr.compatible_brands.markup">qt  </property>
  <property name="meta.attr.encoder.markup">Lavf58.76.100</property>
  <property name="meta.attr.comment.markup">Rendered with Manim Community v0.12.0</property>
  <property name="meta.media.sample_aspect_num">1</property>
  <property name="meta.media.sample_aspect_den">1</property>
  <property name="meta.media.frame_rate_num">60</property>
  <property name="meta.media.frame_rate_den">1</property>
  <property name="meta.media.colorspace">601</property>
  <property name="meta.media.color_trc">2</property>
  <property name="meta.media.has_b_frames">0</property>
  <property name="meta.media.width">640</property>
  <property name="meta.media.height">360</property>
  <property name="meta.media.color_range">mpeg</property>
  <property name="set.test_audio">1</property>
  <property name="set.test_image">0</property>
  <property name="meta.media.top_field_first">0</property>
  <property name="meta.media.progressive">1</property>
 </producer>
 <producer id="producer529" in="00:00:00.000" out="00:00:00.983">
  <property name="length">60</property>
  <property name="eof">pause</property>
  <property name="resource">/home/xiaoxiae/.cache/kdenlive/proxy/906908779767ba31a842537e00e47dbe.mov</property>
  <property name="audio_index">-1</property>
  <property name="video_index">0</property>
  <property name="mute_on_pause">0</property>
  <property name="mlt_service">avformat-novalidate</property>
  <property name="seekable">1</property>
  <property name="aspect_ratio">1</property>
  <property name="kdenlive:clipname">2.mp4</property>
  <property name="kdenlive:folderid">126</property>
  <property name="kdenlive:id">133</property>
  <property name="kdenlive:file_size">287672</property>
  <property name="kdenlive:proxy">/home/xiaoxiae/.cache/kdenlive/proxy/906908779767ba31a842537e00e47dbe.mov</property>
  <property name="kdenlive:originalurl">video/ComputationalPower/vid/2.mp4</property>
  <property name="kdenlive:original.mlt_type">producer</property>
  <property name="kdenlive:original.in">0</property>
  <property name="kdenlive:original.out">59</property>
  <property name="kdenlive:original.length">60</property>
  <property name="kdenlive:original.eof">pause</property>
  <property name="kdenlive:original.resource">video/ComputationalPower/vid/2.mp4</property>
  <property name="kdenlive:original.meta.media.nb_streams">1</property>
  <property name="kdenlive:original.meta.media.0.stream.type">video</property>
  <property name="kdenlive:original.meta.media.0.stream.frame_rate">60</property>
  <property name="kdenlive:original.meta.media.0.stream.sample_aspect_ratio">0</property>
  <property name="kdenlive:original.meta.media.0.codec.width">3840</property>
  <property name="kdenlive:original.meta.media.0.codec.height">2160</property>
  <property name="kdenlive:original.meta.media.0.codec.rotate">0</property>
  <property name="kdenlive:original.meta.media.0.codec.pix_fmt">yuv420p</property>
  <property name="kdenlive:original.meta.media.0.codec.sample_aspect_ratio">0</property>
  <property name="kdenlive:original.meta.media.0.codec.colorspace">709</property>
  <property name="kdenlive:original.meta.media.0.codec.name">h264</property>
  <property name="kdenlive:original.meta.media.0.codec.long_name">H.264 / AVC / MPEG-4 AVC / MPEG-4 part 10</property>
  <property name="kdenlive:original.meta.media.0.codec.bit_rate">2288896</property>
  <property name="kdenlive:original.meta.attr.0.stream.handler_name.markup">VideoHandler</property>
  <property name="kdenlive:original.meta.attr.0.stream.vendor_id.markup">[0][0][0][0]</property>
  <property name="kdenlive:original.meta.attr.major_brand.markup">isom</property>
  <property name="kdenlive:original.meta.attr.minor_version.markup">512</property>
  <property name="kdenlive:original.meta.attr.compatible_brands.markup">isomiso2avc1mp41</property>
  <property name="kdenlive:original.meta.attr.encoder.markup">Lavf58.76.100</property>
  <property name="kdenlive:original.meta.attr.comment.markup">Rendered with Manim Community v0.12.0</property>
  <property name="kdenlive:original.seekable">1</property>
  <property name="kdenlive:original.width">3840</property>
  <property name="kdenlive:original.height">2160</property>
  <property name="kdenlive:original.meta.media.sample_aspect_num">1</property>
  <property name="kdenlive:original.meta.media.sample_aspect_den">1</property>
  <property name="kdenlive:original.aspect_ratio">1</property>
  <property name="kdenlive:original.audio_index">-1</property>
  <property name="kdenlive:original.video_index">0</property>
  <property name="kdenlive:original.mute_on_pause">0</property>
  <property name="kdenlive:original.mlt_service">avformat-novalidate</property>
  <property name="kdenlive:original.kdenlive:folderid">126</property>
  <property name="kdenlive:original.meta.media.frame_rate_num">60</property>
  <property name="kdenlive:original.meta.media.frame_rate_den">1</property>
  <property name="kdenlive:original.meta.media.colorspace">709</property>
  <property name="kdenlive:original.meta.media.color_trc">2</property>
  <property name="kdenlive:original.meta.media.has_b_frames">2</property>
  <property name="kdenlive:original.meta.media.width">3840</property>
  <property name="kdenlive:original.meta.media.height">2160</property>
  <property name="kdenlive:original.meta.media.color_range">mpeg</property>
  <property name="kdenlive:original.kdenlive:id">134</property>
  <property name="kdenlive:original.kdenlive:file_size">287672</property>
  <property name="kdenlive:original.kdenlive:file_hash">906908779767ba31a842537e00e47dbe</property>
  <property name="kdenlive:original.backup">1</property>
  <property name="kdenlive:file_hash">906908779767ba31a842537e00e47dbe</property>
  <property name="xml">was here</property>
  <property name="meta.media.nb_streams">1</property>
  <property name="meta.media.0.stream.type">video</property>
  <property name="meta.media.0.stream.frame_rate">60</property>
  <property name="meta.media.0.stream.sample_aspect_ratio">0</property>
  <property name="meta.media.0.codec.width">640</property>
  <property name="meta.media.0.codec.height">360</property>
  <property name="meta.media.0.codec.rotate">0</property>
  <property name="meta.media.0.codec.pix_fmt">yuv420p</property>
  <property name="meta.media.0.codec.sample_aspect_ratio">0</property>
  <property name="meta.media.0.codec.colorspace">601</property>
  <property name="meta.media.0.codec.name">h264</property>
  <property name="meta.media.0.codec.long_name">H.264 / AVC / MPEG-4 AVC / MPEG-4 part 10</property>
  <property name="meta.media.0.codec.bit_rate">787696</property>
  <property name="meta.attr.0.stream.handler_name.markup">VideoHandler</property>
  <property name="meta.attr.0.stream.vendor_id.markup">FFMP</property>
  <property name="meta.attr.0.stream.encoder.markup">Lavc58.134.100 libx264</property>
  <property name="meta.attr.major_brand.markup">qt  </property>
  <property name="meta.attr.minor_version.markup">512</property>
  <property name="meta.attr.compatible_brands.markup">qt  </property>
  <property name="meta.attr.encoder.markup">Lavf58.76.100</property>
  <property name="meta.attr.comment.markup">Rendered with Manim Community v0.12.0</property>
  <property name="meta.media.sample_aspect_num">1</property>
  <property name="meta.media.sample_aspect_den">1</property>
  <property name="meta.media.frame_rate_num">60</property>
  <property name="meta.media.frame_rate_den">1</property>
  <property name="meta.media.colorspace">601</property>
  <property name="meta.media.color_trc">2</property>
  <property name="meta.media.has_b_frames">0</property>
  <property name="meta.media.width">640</property>
  <property name="meta.media.height">360</property>
  <property name="meta.media.color_range">mpeg</property>
  <property name="set.test_audio">1</property>
  <property name="set.test_image">0</property>
  <property name="meta.media.top_field_first">0</property>
  <property name="meta.media.progressive">1</property>
 </producer>
 <producer id="producer530" in="00:00:00.000" out="00:00:00.983">
  <property name="length">60</property>
  <property name="eof">pause</property>
  <property name="resource">/home/xiaoxiae/.cache/kdenlive/proxy/7422dabf97eb3a6ae8e9afffde5dc4d6.mov</property>
  <property name="audio_index">-1</property>
  <property name="video_index">0</property>
  <property name="mute_on_pause">0</property>
  <property name="mlt_service">avformat-novalidate</property>
  <property name="seekable">1</property>
  <property name="aspect_ratio">1</property>
  <property name="kdenlive:clipname">3.mp4</property>
  <property name="kdenlive:folderid">126</property>
  <property name="kdenlive:id">134</property>
  <property name="kdenlive:file_size">73057</property>
  <property name="kdenlive:proxy">/home/xiaoxiae/.cache/kdenlive/proxy/7422dabf97eb3a6ae8e9afffde5dc4d6.mov</property>
  <property name="kdenlive:originalurl">video/ComputationalPower/vid/3.mp4</property>
  <property name="kdenlive:original.mlt_type">producer</property>
  <property name="kdenlive:original.in">0</property>
  <property name="kdenlive:original.out">59</property>
  <property name="kdenlive:original.length">60</property>
  <property name="kdenlive:original.eof">pause</property>
  <property name="kdenlive:original.resource">video/ComputationalPower/vid/3.mp4</property>
  <property name="kdenlive:original.meta.media.nb_streams">1</property>
  <property name="kdenlive:original.meta.media.0.stream.type">video</property>
  <property name="kdenlive:original.meta.media.0.stream.frame_rate">60</property>
  <property name="kdenlive:original.meta.media.0.stream.sample_aspect_ratio">0</property>
  <property name="kdenlive:original.meta.media.0.codec.width">3840</property>
  <property name="kdenlive:original.meta.media.0.codec.height">2160</property>
  <property name="kdenlive:original.meta.media.0.codec.rotate">0</property>
  <property name="kdenlive:original.meta.media.0.codec.pix_fmt">yuv420p</property>
  <property name="kdenlive:original.meta.media.0.codec.sample_aspect_ratio">0</property>
  <property name="kdenlive:original.meta.media.0.codec.colorspace">709</property>
  <property name="kdenlive:original.meta.media.0.codec.name">h264</property>
  <property name="kdenlive:original.meta.media.0.codec.long_name">H.264 / AVC / MPEG-4 AVC / MPEG-4 part 10</property>
  <property name="kdenlive:original.meta.media.0.codec.bit_rate">571400</property>
  <property name="kdenlive:original.meta.attr.0.stream.handler_name.markup">VideoHandler</property>
  <property name="kdenlive:original.meta.attr.0.stream.vendor_id.markup">[0][0][0][0]</property>
  <property name="kdenlive:original.meta.attr.major_brand.markup">isom</property>
  <property name="kdenlive:original.meta.attr.minor_version.markup">512</property>
  <property name="kdenlive:original.meta.attr.compatible_brands.markup">isomiso2avc1mp41</property>
  <property name="kdenlive:original.meta.attr.encoder.markup">Lavf58.76.100</property>
  <property name="kdenlive:original.meta.attr.comment.markup">Rendered with Manim Community v0.12.0</property>
  <property name="kdenlive:original.seekable">1</property>
  <property name="kdenlive:original.width">3840</property>
  <property name="kdenlive:original.height">2160</property>
  <property name="kdenlive:original.meta.media.sample_aspect_num">1</property>
  <property name="kdenlive:original.meta.media.sample_aspect_den">1</property>
  <property name="kdenlive:original.aspect_ratio">1</property>
  <property name="kdenlive:original.audio_index">-1</property>
  <property name="kdenlive:original.video_index">0</property>
  <property name="kdenlive:original.mute_on_pause">0</property>
  <property name="kdenlive:original.mlt_service">avformat-novalidate</property>
  <property name="kdenlive:original.kdenlive:folderid">126</property>
  <property name="kdenlive:original.meta.media.frame_rate_num">60</property>
  <property name="kdenlive:original.meta.media.frame_rate_den">1</property>
  <property name="kdenlive:original.meta.media.colorspace">709</property>
  <property name="kdenlive:original.meta.media.color_trc">2</property>
  <property name="kdenlive:original.meta.media.has_b_frames">2</property>
  <property name="kdenlive:original.meta.media.width">3840</property>
  <property name="kdenlive:original.meta.media.height">2160</property>
  <property name="kdenlive:original.meta.media.color_range">mpeg</property>
  <property name="kdenlive:original.kdenlive:id">135</property>
  <property name="kdenlive:original.kdenlive:file_size">73057</property>
  <property name="kdenlive:original.kdenlive:file_hash">7422dabf97eb3a6ae8e9afffde5dc4d6</property>
  <property name="kdenlive:original.backup">1</property>
  <property name="kdenlive:file_hash">7422dabf97eb3a6ae8e9afffde5dc4d6</property>
  <property name="xml">was here</property>
  <property name="meta.media.nb_streams">1</property>
  <property name="meta.media.0.stream.type">video</property>
  <property name="meta.media.0.stream.frame_rate">60</property>
  <property name="meta.media.0.stream.sample_aspect_ratio">0</property>
  <property name="meta.media.0.codec.width">640</property>
  <property name="meta.media.0.codec.height">360</property>
  <property name="meta.media.0.codec.rotate">0</property>
  <property name="meta.media.0.codec.pix_fmt">yuv420p</property>
  <property name="meta.media.0.codec.sample_aspect_ratio">0</property>
  <property name="meta.media.0.codec.colorspace">601</property>
  <property name="meta.media.0.codec.name">h264</property>
  <property name="meta.media.0.codec.long_name">H.264 / AVC / MPEG-4 AVC / MPEG-4 part 10</property>
  <property name="meta.media.0.codec.bit_rate">585632</property>
  <property name="meta.attr.0.stream.handler_name.markup">VideoHandler</property>
  <property name="meta.attr.0.stream.vendor_id.markup">FFMP</property>
  <property name="meta.attr.0.stream.encoder.markup">Lavc58.134.100 libx264</property>
  <property name="meta.attr.major_brand.markup">qt  </property>
  <property name="meta.attr.minor_version.markup">512</property>
  <property name="meta.attr.compatible_brands.markup">qt  </property>
  <property name="meta.attr.encoder.markup">Lavf58.76.100</property>
  <property name="meta.attr.comment.markup">Rendered with Manim Community v0.12.0</property>
  <property name="meta.media.sample_aspect_num">1</property>
  <property name="meta.media.sample_aspect_den">1</property>
  <property name="meta.media.frame_rate_num">60</property>
  <property name="meta.media.frame_rate_den">1</property>
  <property name="meta.media.colorspace">601</property>
  <property name="meta.media.color_trc">2</property>
  <property name="meta.media.has_b_frames">0</property>
  <property name="meta.media.width">640</property>
  <property name="meta.media.height">360</property>
  <property name="meta.media.color_range">mpeg</property>
  <property name="set.test_audio">1</property>
  <property name="set.test_image">0</property>
  <property name="meta.media.top_field_first">0</property>
  <property name="meta.media.progressive">1</property>
 </producer>
 <producer id="producer531" in="00:00:00.000" out="00:00:00.983">
  <property name="length">60</property>
  <property name="eof">pause</property>
  <property name="resource">/home/xiaoxiae/.cache/kdenlive/proxy/d80589a8199bc211caf84f56f0299f29.mov</property>
  <property name="audio_index">-1</property>
  <property name="video_index">0</property>
  <property name="mute_on_pause">0</property>
  <property name="mlt_service">avformat-novalidate</property>
  <property name="seekable">1</property>
  <property name="aspect_ratio">1</property>
  <property name="kdenlive:clipname">4.mp4</property>
  <property name="kdenlive:folderid">126</property>
  <property name="kdenlive:id">135</property>
  <property name="kdenlive:file_size">132287</property>
  <property name="kdenlive:proxy">/home/xiaoxiae/.cache/kdenlive/proxy/d80589a8199bc211caf84f56f0299f29.mov</property>
  <property name="kdenlive:originalurl">video/ComputationalPower/vid/4.mp4</property>
  <property name="kdenlive:original.mlt_type">producer</property>
  <property name="kdenlive:original.in">0</property>
  <property name="kdenlive:original.out">59</property>
  <property name="kdenlive:original.length">60</property>
  <property name="kdenlive:original.eof">pause</property>
  <property name="kdenlive:original.resource">video/ComputationalPower/vid/4.mp4</property>
  <property name="kdenlive:original.meta.media.nb_streams">1</property>
  <property name="kdenlive:original.meta.media.0.stream.type">video</property>
  <property name="kdenlive:original.meta.media.0.stream.frame_rate">60</property>
  <property name="kdenlive:original.meta.media.0.stream.sample_aspect_ratio">0</property>
  <property name="kdenlive:original.meta.media.0.codec.width">3840</property>
  <property name="kdenlive:original.meta.media.0.codec.height">2160</property>
  <property name="kdenlive:original.meta.media.0.codec.rotate">0</property>
  <property name="kdenlive:original.meta.media.0.codec.pix_fmt">yuv420p</property>
  <property name="kdenlive:original.meta.media.0.codec.sample_aspect_ratio">0</property>
  <property name="kdenlive:original.meta.media.0.codec.colorspace">709</property>
  <property name="kdenlive:original.meta.media.0.codec.name">h264</property>
  <property name="kdenlive:original.meta.media.0.codec.long_name">H.264 / AVC / MPEG-4 AVC / MPEG-4 part 10</property>
  <property name="kdenlive:original.meta.media.0.codec.bit_rate">1045944</property>
  <property name="kdenlive:original.meta.attr.0.stream.handler_name.markup">VideoHandler</property>
  <property name="kdenlive:original.meta.attr.0.stream.vendor_id.markup">[0][0][0][0]</property>
  <property name="kdenlive:original.meta.attr.major_brand.markup">isom</property>
  <property name="kdenlive:original.meta.attr.minor_version.markup">512</property>
  <property name="kdenlive:original.meta.attr.compatible_brands.markup">isomiso2avc1mp41</property>
  <property name="kdenlive:original.meta.attr.encoder.markup">Lavf58.76.100</property>
  <property name="kdenlive:original.meta.attr.comment.markup">Rendered with Manim Community v0.12.0</property>
  <property name="kdenlive:original.seekable">1</property>
  <property name="kdenlive:original.width">3840</property>
  <property name="kdenlive:original.height">2160</property>
  <property name="kdenlive:original.meta.media.sample_aspect_num">1</property>
  <property name="kdenlive:original.meta.media.sample_aspect_den">1</property>
  <property name="kdenlive:original.aspect_ratio">1</property>
  <property name="kdenlive:original.audio_index">-1</property>
  <property name="kdenlive:original.video_index">0</property>
  <property name="kdenlive:original.mute_on_pause">0</property>
  <property name="kdenlive:original.mlt_service">avformat-novalidate</property>
  <property name="kdenlive:original.kdenlive:folderid">126</property>
  <property name="kdenlive:original.meta.media.frame_rate_num">60</property>
  <property name="kdenlive:original.meta.media.frame_rate_den">1</property>
  <property name="kdenlive:original.meta.media.colorspace">709</property>
  <property name="kdenlive:original.meta.media.color_trc">2</property>
  <property name="kdenlive:original.meta.media.has_b_frames">2</property>
  <property name="kdenlive:original.meta.media.width">3840</property>
  <property name="kdenlive:original.meta.media.height">2160</property>
  <property name="kdenlive:original.meta.media.color_range">mpeg</property>
  <property name="kdenlive:original.kdenlive:id">136</property>
  <property name="kdenlive:original.kdenlive:file_size">132287</property>
  <property name="kdenlive:original.kdenlive:file_hash">d80589a8199bc211caf84f56f0299f29</property>
  <property name="kdenlive:original.backup">1</property>
  <property name="kdenlive:file_hash">d80589a8199bc211caf84f56f0299f29</property>
  <property name="xml">was here</property>
  <property name="meta.media.nb_streams">1</property>
  <property name="meta.media.0.stream.type">video</property>
  <property name="meta.media.0.stream.frame_rate">60</property>
  <property name="meta.media.0.stream.sample_aspect_ratio">0</property>
  <property name="meta.media.0.codec.width">640</property>
  <property name="meta.media.0.codec.height">360</property>
  <property name="meta.media.0.codec.rotate">0</property>
  <property name="meta.media.0.codec.pix_fmt">yuv420p</property>
  <property name="meta.media.0.codec.sample_aspect_ratio">0</property>
  <property name="meta.media.0.codec.colorspace">601</property>
  <property name="meta.media.0.codec.name">h264</property>
  <property name="meta.media.0.codec.long_name">H.264 / AVC / MPEG-4 AVC / MPEG-4 part 10</property>
  <property name="meta.media.0.codec.bit_rate">931544</property>
  <property name="meta.attr.0.stream.handler_name.markup">VideoHandler</property>
  <property name="meta.attr.0.stream.vendor_id.markup">FFMP</property>
  <property name="meta.attr.0.stream.encoder.markup">Lavc58.134.100 libx264</property>
  <property name="meta.attr.major_brand.markup">qt  </property>
  <property name="meta.attr.minor_version.markup">512</property>
  <property name="meta.attr.compatible_brands.markup">qt  </property>
  <property name="meta.attr.encoder.markup">Lavf58.76.100</property>
  <property name="meta.attr.comment.markup">Rendered with Manim Community v0.12.0</property>
  <property name="meta.media.sample_aspect_num">1</property>
  <property name="meta.media.sample_aspect_den">1</property>
  <property name="meta.media.frame_rate_num">60</property>
  <property name="meta.media.frame_rate_den">1</property>
  <property name="meta.media.colorspace">601</property>
  <property name="meta.media.color_trc">2</property>
  <property name="meta.media.has_b_frames">0</property>
  <property name="meta.media.width">640</property>
  <property name="meta.media.height">360</property>
  <property name="meta.media.color_range">mpeg</property>
  <property name="set.test_audio">1</property>
  <property name="set.test_image">0</property>
  <property name="meta.media.top_field_first">0</property>
  <property name="meta.media.progressive">1</property>
 </producer>
 <producer id="producer532" in="00:00:00.000" out="00:00:00.983">
  <property name="length">60</property>
  <property name="eof">pause</property>
  <property name="resource">/home/xiaoxiae/.cache/kdenlive/proxy/afe1f0ec41d0a92d7162d4781dd48e1e.mov</property>
  <property name="audio_index">-1</property>
  <property name="video_index">0</property>
  <property name="mute_on_pause">0</property>
  <property name="mlt_service">avformat-novalidate</property>
  <property name="seekable">1</property>
  <property name="aspect_ratio">1</property>
  <property name="kdenlive:clipname">5.mp4</property>
  <property name="kdenlive:folderid">126</property>
  <property name="kdenlive:id">136</property>
  <property name="kdenlive:file_size">57194</property>
  <property name="kdenlive:proxy">/home/xiaoxiae/.cache/kdenlive/proxy/afe1f0ec41d0a92d7162d4781dd48e1e.mov</property>
  <property name="kdenlive:originalurl">video/ComputationalPower/vid/5.mp4</property>
  <property name="kdenlive:original.mlt_type">producer</property>
  <property name="kdenlive:original.in">0</property>
  <property name="kdenlive:original.out">59</property>
  <property name="kdenlive:original.length">60</property>
  <property name="kdenlive:original.eof">pause</property>
  <property name="kdenlive:original.resource">video/ComputationalPower/vid/5.mp4</property>
  <property name="kdenlive:original.meta.media.nb_streams">1</property>
  <property name="kdenlive:original.meta.media.0.stream.type">video</property>
  <property name="kdenlive:original.meta.media.0.stream.frame_rate">60</property>
  <property name="kdenlive:original.meta.media.0.stream.sample_aspect_ratio">0</property>
  <property name="kdenlive:original.meta.media.0.codec.width">3840</property>
  <property name="kdenlive:original.meta.media.0.codec.height">2160</property>
  <property name="kdenlive:original.meta.media.0.codec.rotate">0</property>
  <property name="kdenlive:original.meta.media.0.codec.pix_fmt">yuv420p</property>
  <property name="kdenlive:original.meta.media.0.codec.sample_aspect_ratio">0</property>
  <property name="kdenlive:original.meta.media.0.codec.colorspace">709</property>
  <property name="kdenlive:original.meta.media.0.codec.name">h264</property>
  <property name="kdenlive:original.meta.media.0.codec.long_name">H.264 / AVC / MPEG-4 AVC / MPEG-4 part 10</property>
  <property name="kdenlive:original.meta.media.0.codec.bit_rate">444496</property>
  <property name="kdenlive:original.meta.attr.0.stream.handler_name.markup">VideoHandler</property>
  <property name="kdenlive:original.meta.attr.0.stream.vendor_id.markup">[0][0][0][0]</property>
  <property name="kdenlive:original.meta.attr.major_brand.markup">isom</property>
  <property name="kdenlive:original.meta.attr.minor_version.markup">512</property>
  <property name="kdenlive:original.meta.attr.compatible_brands.markup">isomiso2avc1mp41</property>
  <property name="kdenlive:original.meta.attr.encoder.markup">Lavf58.76.100</property>
  <property name="kdenlive:original.meta.attr.comment.markup">Rendered with Manim Community v0.12.0</property>
  <property name="kdenlive:original.seekable">1</property>
  <property name="kdenlive:original.width">3840</property>
  <property name="kdenlive:original.height">2160</property>
  <property name="kdenlive:original.meta.media.sample_aspect_num">1</property>
  <property name="kdenlive:original.meta.media.sample_aspect_den">1</property>
  <property name="kdenlive:original.aspect_ratio">1</property>
  <property name="kdenlive:original.audio_index">-1</property>
  <property name="kdenlive:original.video_index">0</property>
  <property name="kdenlive:original.mute_on_pause">0</property>
  <property name="kdenlive:original.mlt_service">avformat-novalidate</property>
  <property name="kdenlive:original.kdenlive:folderid">126</property>
  <property name="kdenlive:original.meta.media.frame_rate_num">60</property>
  <property name="kdenlive:original.meta.media.frame_rate_den">1</property>
  <property name="kdenlive:original.meta.media.colorspace">709</property>
  <property name="kdenlive:original.meta.media.color_trc">2</property>
  <property name="kdenlive:original.meta.media.has_b_frames">2</property>
  <property name="kdenlive:original.meta.media.width">3840</property>
  <property name="kdenlive:original.meta.media.height">2160</property>
  <property name="kdenlive:original.meta.media.color_range">mpeg</property>
  <property name="kdenlive:original.kdenlive:id">137</property>
  <property name="kdenlive:original.kdenlive:file_size">57194</property>
  <property name="kdenlive:original.kdenlive:file_hash">afe1f0ec41d0a92d7162d4781dd48e1e</property>
  <property name="kdenlive:original.backup">1</property>
  <property name="kdenlive:file_hash">afe1f0ec41d0a92d7162d4781dd48e1e</property>
  <property name="xml">was here</property>
  <property name="meta.media.nb_streams">1</property>
  <property name="meta.media.0.stream.type">video</property>
  <property name="meta.media.0.stream.frame_rate">60</property>
  <property name="meta.media.0.stream.sample_aspect_ratio">0</property>
  <property name="meta.media.0.codec.width">640</property>
  <property name="meta.media.0.codec.height">360</property>
  <property name="meta.media.0.codec.rotate">0</property>
  <property name="meta.media.0.codec.pix_fmt">yuv420p</property>
  <property name="meta.media.0.codec.sample_aspect_ratio">0</property>
  <property name="meta.media.0.codec.colorspace">601</property>
  <property name="meta.media.0.codec.name">h264</property>
  <property name="meta.media.0.codec.long_name">H.264 / AVC / MPEG-4 AVC / MPEG-4 part 10</property>
  <property name="meta.media.0.codec.bit_rate">1106424</property>
  <property name="meta.attr.0.stream.handler_name.markup">VideoHandler</property>
  <property name="meta.attr.0.stream.vendor_id.markup">FFMP</property>
  <property name="meta.attr.0.stream.encoder.markup">Lavc58.134.100 libx264</property>
  <property name="meta.attr.major_brand.markup">qt  </property>
  <property name="meta.attr.minor_version.markup">512</property>
  <property name="meta.attr.compatible_brands.markup">qt  </property>
  <property name="meta.attr.encoder.markup">Lavf58.76.100</property>
  <property name="meta.attr.comment.markup">Rendered with Manim Community v0.12.0</property>
  <property name="meta.media.sample_aspect_num">1</property>
  <property name="meta.media.sample_aspect_den">1</property>
  <property name="meta.media.frame_rate_num">60</property>
  <property name="meta.media.frame_rate_den">1</property>
  <property name="meta.media.colorspace">601</property>
  <property name="meta.media.color_trc">2</property>
  <property name="meta.media.has_b_frames">0</property>
  <property name="meta.media.width">640</property>
  <property name="meta.media.height">360</property>
  <property name="meta.media.color_range">mpeg</property>
  <property name="set.test_audio">1</property>
  <property name="set.test_image">0</property>
  <property name="meta.media.top_field_first">0</property>
  <property name="meta.media.progressive">1</property>
 </producer>
 <producer id="producer533" in="00:00:00.000" out="00:00:00.983">
  <property name="length">60</property>
  <property name="eof">pause</property>
  <property name="resource">/home/xiaoxiae/.cache/kdenlive/proxy/df69b7c8b75b6687e58836ad054c1df8.mov</property>
  <property name="audio_index">-1</property>
  <property name="video_index">0</property>
  <property name="mute_on_pause">0</property>
  <property name="mlt_service">avformat-novalidate</property>
  <property name="seekable">1</property>
  <property name="aspect_ratio">1</property>
  <property name="kdenlive:clipname">6.mp4</property>
  <property name="kdenlive:folderid">126</property>
  <property name="kdenlive:id">137</property>
  <property name="kdenlive:file_size">73865</property>
  <property name="kdenlive:proxy">/home/xiaoxiae/.cache/kdenlive/proxy/df69b7c8b75b6687e58836ad054c1df8.mov</property>
  <property name="kdenlive:originalurl">video/ComputationalPower/vid/6.mp4</property>
  <property name="kdenlive:original.mlt_type">producer</property>
  <property name="kdenlive:original.in">0</property>
  <property name="kdenlive:original.out">59</property>
  <property name="kdenlive:original.length">60</property>
  <property name="kdenlive:original.eof">pause</property>
  <property name="kdenlive:original.resource">video/ComputationalPower/vid/6.mp4</property>
  <property name="kdenlive:original.meta.media.nb_streams">1</property>
  <property name="kdenlive:original.meta.media.0.stream.type">video</property>
  <property name="kdenlive:original.meta.media.0.stream.frame_rate">60</property>
  <property name="kdenlive:original.meta.media.0.stream.sample_aspect_ratio">0</property>
  <property name="kdenlive:original.meta.media.0.codec.width">3840</property>
  <property name="kdenlive:original.meta.media.0.codec.height">2160</property>
  <property name="kdenlive:original.meta.media.0.codec.rotate">0</property>
  <property name="kdenlive:original.meta.media.0.codec.pix_fmt">yuv420p</property>
  <property name="kdenlive:original.meta.media.0.codec.sample_aspect_ratio">0</property>
  <property name="kdenlive:original.meta.media.0.codec.colorspace">709</property>
  <property name="kdenlive:original.meta.media.0.codec.name">h264</property>
  <property name="kdenlive:original.meta.media.0.codec.long_name">H.264 / AVC / MPEG-4 AVC / MPEG-4 part 10</property>
  <property name="kdenlive:original.meta.media.0.codec.bit_rate">577864</property>
  <property name="kdenlive:original.meta.attr.0.stream.handler_name.markup">VideoHandler</property>
  <property name="kdenlive:original.meta.attr.0.stream.vendor_id.markup">[0][0][0][0]</property>
  <property name="kdenlive:original.meta.attr.major_brand.markup">isom</property>
  <property name="kdenlive:original.meta.attr.minor_version.markup">512</property>
  <property name="kdenlive:original.meta.attr.compatible_brands.markup">isomiso2avc1mp41</property>
  <property name="kdenlive:original.meta.attr.encoder.markup">Lavf58.76.100</property>
  <property name="kdenlive:original.meta.attr.comment.markup">Rendered with Manim Community v0.12.0</property>
  <property name="kdenlive:original.seekable">1</property>
  <property name="kdenlive:original.width">3840</property>
  <property name="kdenlive:original.height">2160</property>
  <property name="kdenlive:original.meta.media.sample_aspect_num">1</property>
  <property name="kdenlive:original.meta.media.sample_aspect_den">1</property>
  <property name="kdenlive:original.aspect_ratio">1</property>
  <property name="kdenlive:original.audio_index">-1</property>
  <property name="kdenlive:original.video_index">0</property>
  <property name="kdenlive:original.mute_on_pause">0</property>
  <property name="kdenlive:original.mlt_service">avformat-novalidate</property>
  <property name="kdenlive:original.kdenlive:folderid">126</property>
  <property name="kdenlive:original.meta.media.frame_rate_num">60</property>
  <property name="kdenlive:original.meta.media.frame_rate_den">1</property>
  <property name="kdenlive:original.meta.media.colorspace">709</property>
  <property name="kdenlive:original.meta.media.color_trc">2</property>
  <property name="kdenlive:original.meta.media.has_b_frames">2</property>
  <property name="kdenlive:original.meta.media.width">3840</property>
  <property name="kdenlive:original.meta.media.height">2160</property>
  <property name="kdenlive:original.meta.media.color_range">mpeg</property>
  <property name="kdenlive:original.kdenlive:id">138</property>
  <property name="kdenlive:original.kdenlive:file_size">73865</property>
  <property name="kdenlive:original.kdenlive:file_hash">df69b7c8b75b6687e58836ad054c1df8</property>
  <property name="kdenlive:original.backup">1</property>
  <property name="kdenlive:file_hash">df69b7c8b75b6687e58836ad054c1df8</property>
  <property name="xml">was here</property>
  <property name="meta.media.nb_streams">1</property>
  <property name="meta.media.0.stream.type">video</property>
  <property name="meta.media.0.stream.frame_rate">60</property>
  <property name="meta.media.0.stream.sample_aspect_ratio">0</property>
  <property name="meta.media.0.codec.width">640</property>
  <property name="meta.media.0.codec.height">360</property>
  <property name="meta.media.0.codec.rotate">0</property>
  <property name="meta.media.0.codec.pix_fmt">yuv420p</property>
  <property name="meta.media.0.codec.sample_aspect_ratio">0</property>
  <property name="meta.media.0.codec.colorspace">601</property>
  <property name="meta.media.0.codec.name">h264</property>
  <property name="meta.media.0.codec.long_name">H.264 / AVC / MPEG-4 AVC / MPEG-4 part 10</property>
  <property name="meta.media.0.codec.bit_rate">1181040</property>
  <property name="meta.attr.0.stream.handler_name.markup">VideoHandler</property>
  <property name="meta.attr.0.stream.vendor_id.markup">FFMP</property>
  <property name="meta.attr.0.stream.encoder.markup">Lavc58.134.100 libx264</property>
  <property name="meta.attr.major_brand.markup">qt  </property>
  <property name="meta.attr.minor_version.markup">512</property>
  <property name="meta.attr.compatible_brands.markup">qt  </property>
  <property name="meta.attr.encoder.markup">Lavf58.76.100</property>
  <property name="meta.attr.comment.markup">Rendered with Manim Community v0.12.0</property>
  <property name="meta.media.sample_aspect_num">1</property>
  <property name="meta.media.sample_aspect_den">1</property>
  <property name="meta.media.frame_rate_num">60</property>
  <property name="meta.media.frame_rate_den">1</property>
  <property name="meta.media.colorspace">601</property>
  <property name="meta.media.color_trc">2</property>
  <property name="meta.media.has_b_frames">0</property>
  <property name="meta.media.width">640</property>
  <property name="meta.media.height">360</property>
  <property name="meta.media.color_range">mpeg</property>
  <property name="set.test_audio">1</property>
  <property name="set.test_image">0</property>
 </producer>
 <producer id="producer534" in="00:00:00.000" out="00:00:01.483">
  <property name="length">90</property>
  <property name="eof">pause</property>
  <property name="resource">/home/xiaoxiae/.cache/kdenlive/proxy/0c1eb3d0043bd5d158d958d6da4e4d5c.mov</property>
  <property name="audio_index">-1</property>
  <property name="video_index">0</property>
  <property name="mute_on_pause">0</property>
  <property name="mlt_service">avformat-novalidate</property>
  <property name="seekable">1</property>
  <property name="aspect_ratio">1</property>
  <property name="kdenlive:clipname">7.mp4</property>
  <property name="kdenlive:folderid">126</property>
  <property name="kdenlive:id">138</property>
  <property name="kdenlive:file_size">179730</property>
  <property name="kdenlive:proxy">/home/xiaoxiae/.cache/kdenlive/proxy/0c1eb3d0043bd5d158d958d6da4e4d5c.mov</property>
  <property name="kdenlive:originalurl">video/ComputationalPower/vid/7.mp4</property>
  <property name="kdenlive:original.mlt_type">producer</property>
  <property name="kdenlive:original.in">0</property>
  <property name="kdenlive:original.out">89</property>
  <property name="kdenlive:original.length">90</property>
  <property name="kdenlive:original.eof">pause</property>
  <property name="kdenlive:original.resource">video/ComputationalPower/vid/7.mp4</property>
  <property name="kdenlive:original.meta.media.nb_streams">1</property>
  <property name="kdenlive:original.meta.media.0.stream.type">video</property>
  <property name="kdenlive:original.meta.media.0.stream.frame_rate">60</property>
  <property name="kdenlive:original.meta.media.0.stream.sample_aspect_ratio">0</property>
  <property name="kdenlive:original.meta.media.0.codec.width">3840</property>
  <property name="kdenlive:original.meta.media.0.codec.height">2160</property>
  <property name="kdenlive:original.meta.media.0.codec.rotate">0</property>
  <property name="kdenlive:original.meta.media.0.codec.pix_fmt">yuv420p</property>
  <property name="kdenlive:original.meta.media.0.codec.sample_aspect_ratio">0</property>
  <property name="kdenlive:original.meta.media.0.codec.colorspace">709</property>
  <property name="kdenlive:original.meta.media.0.codec.name">h264</property>
  <property name="kdenlive:original.meta.media.0.codec.long_name">H.264 / AVC / MPEG-4 AVC / MPEG-4 part 10</property>
  <property name="kdenlive:original.meta.media.0.codec.bit_rate">947978</property>
  <property name="kdenlive:original.meta.attr.0.stream.handler_name.markup">VideoHandler</property>
  <property name="kdenlive:original.meta.attr.0.stream.vendor_id.markup">[0][0][0][0]</property>
  <property name="kdenlive:original.meta.attr.major_brand.markup">isom</property>
  <property name="kdenlive:original.meta.attr.minor_version.markup">512</property>
  <property name="kdenlive:original.meta.attr.compatible_brands.markup">isomiso2avc1mp41</property>
  <property name="kdenlive:original.meta.attr.encoder.markup">Lavf58.76.100</property>
  <property name="kdenlive:original.meta.attr.comment.markup">Rendered with Manim Community v0.12.0</property>
  <property name="kdenlive:original.seekable">1</property>
  <property name="kdenlive:original.width">3840</property>
  <property name="kdenlive:original.height">2160</property>
  <property name="kdenlive:original.meta.media.sample_aspect_num">1</property>
  <property name="kdenlive:original.meta.media.sample_aspect_den">1</property>
  <property name="kdenlive:original.aspect_ratio">1</property>
  <property name="kdenlive:original.audio_index">-1</property>
  <property name="kdenlive:original.video_index">0</property>
  <property name="kdenlive:original.mute_on_pause">0</property>
  <property name="kdenlive:original.mlt_service">avformat-novalidate</property>
  <property name="kdenlive:original.kdenlive:folderid">126</property>
  <property name="kdenlive:original.meta.media.frame_rate_num">60</property>
  <property name="kdenlive:original.meta.media.frame_rate_den">1</property>
  <property name="kdenlive:original.meta.media.colorspace">709</property>
  <property name="kdenlive:original.meta.media.color_trc">2</property>
  <property name="kdenlive:original.meta.media.has_b_frames">2</property>
  <property name="kdenlive:original.meta.media.width">3840</property>
  <property name="kdenlive:original.meta.media.height">2160</property>
  <property name="kdenlive:original.meta.media.color_range">mpeg</property>
  <property name="kdenlive:original.kdenlive:id">139</property>
  <property name="kdenlive:original.kdenlive:file_size">179730</property>
  <property name="kdenlive:original.kdenlive:file_hash">0c1eb3d0043bd5d158d958d6da4e4d5c</property>
  <property name="kdenlive:original.backup">1</property>
  <property name="kdenlive:file_hash">0c1eb3d0043bd5d158d958d6da4e4d5c</property>
  <property name="xml">was here</property>
  <property name="meta.media.nb_streams">1</property>
  <property name="meta.media.0.stream.type">video</property>
  <property name="meta.media.0.stream.frame_rate">60</property>
  <property name="meta.media.0.stream.sample_aspect_ratio">0</property>
  <property name="meta.media.0.codec.width">640</property>
  <property name="meta.media.0.codec.height">360</property>
  <property name="meta.media.0.codec.rotate">0</property>
  <property name="meta.media.0.codec.pix_fmt">yuv420p</property>
  <property name="meta.media.0.codec.sample_aspect_ratio">0</property>
  <property name="meta.media.0.codec.colorspace">601</property>
  <property name="meta.media.0.codec.name">h264</property>
  <property name="meta.media.0.codec.long_name">H.264 / AVC / MPEG-4 AVC / MPEG-4 part 10</property>
  <property name="meta.media.0.codec.bit_rate">1352864</property>
  <property name="meta.attr.0.stream.handler_name.markup">VideoHandler</property>
  <property name="meta.attr.0.stream.vendor_id.markup">FFMP</property>
  <property name="meta.attr.0.stream.encoder.markup">Lavc58.134.100 libx264</property>
  <property name="meta.attr.major_brand.markup">qt  </property>
  <property name="meta.attr.minor_version.markup">512</property>
  <property name="meta.attr.compatible_brands.markup">qt  </property>
  <property name="meta.attr.encoder.markup">Lavf58.76.100</property>
  <property name="meta.attr.comment.markup">Rendered with Manim Community v0.12.0</property>
  <property name="meta.media.sample_aspect_num">1</property>
  <property name="meta.media.sample_aspect_den">1</property>
  <property name="meta.media.frame_rate_num">60</property>
  <property name="meta.media.frame_rate_den">1</property>
  <property name="meta.media.colorspace">601</property>
  <property name="meta.media.color_trc">2</property>
  <property name="meta.media.has_b_frames">0</property>
  <property name="meta.media.width">640</property>
  <property name="meta.media.height">360</property>
  <property name="meta.media.color_range">mpeg</property>
  <property name="set.test_audio">1</property>
  <property name="set.test_image">0</property>
 </producer>
 <producer id="producer535" in="00:00:00.000" out="00:00:00.983">
  <property name="length">60</property>
  <property name="eof">pause</property>
  <property name="resource">/home/xiaoxiae/.cache/kdenlive/proxy/24448f6ccbb33935e2248fb7113a7522.mov</property>
  <property name="audio_index">-1</property>
  <property name="video_index">0</property>
  <property name="mute_on_pause">0</property>
  <property name="mlt_service">avformat-novalidate</property>
  <property name="seekable">1</property>
  <property name="aspect_ratio">1</property>
  <property name="kdenlive:clipname">8.mp4</property>
  <property name="kdenlive:folderid">126</property>
  <property name="kdenlive:id">139</property>
  <property name="kdenlive:file_size">79900</property>
  <property name="kdenlive:proxy">/home/xiaoxiae/.cache/kdenlive/proxy/24448f6ccbb33935e2248fb7113a7522.mov</property>
  <property name="kdenlive:originalurl">video/ComputationalPower/vid/8.mp4</property>
  <property name="kdenlive:original.mlt_type">producer</property>
  <property name="kdenlive:original.in">0</property>
  <property name="kdenlive:original.out">59</property>
  <property name="kdenlive:original.length">60</property>
  <property name="kdenlive:original.eof">pause</property>
  <property name="kdenlive:original.resource">video/ComputationalPower/vid/8.mp4</property>
  <property name="kdenlive:original.meta.media.nb_streams">1</property>
  <property name="kdenlive:original.meta.media.0.stream.type">video</property>
  <property name="kdenlive:original.meta.media.0.stream.frame_rate">60</property>
  <property name="kdenlive:original.meta.media.0.stream.sample_aspect_ratio">0</property>
  <property name="kdenlive:original.meta.media.0.codec.width">3840</property>
  <property name="kdenlive:original.meta.media.0.codec.height">2160</property>
  <property name="kdenlive:original.meta.media.0.codec.rotate">0</property>
  <property name="kdenlive:original.meta.media.0.codec.pix_fmt">yuv420p</property>
  <property name="kdenlive:original.meta.media.0.codec.sample_aspect_ratio">0</property>
  <property name="kdenlive:original.meta.media.0.codec.colorspace">709</property>
  <property name="kdenlive:original.meta.media.0.codec.name">h264</property>
  <property name="kdenlive:original.meta.media.0.codec.long_name">H.264 / AVC / MPEG-4 AVC / MPEG-4 part 10</property>
  <property name="kdenlive:original.meta.media.0.codec.bit_rate">626144</property>
  <property name="kdenlive:original.meta.attr.0.stream.handler_name.markup">VideoHandler</property>
  <property name="kdenlive:original.meta.attr.0.stream.vendor_id.markup">[0][0][0][0]</property>
  <property name="kdenlive:original.meta.attr.major_brand.markup">isom</property>
  <property name="kdenlive:original.meta.attr.minor_version.markup">512</property>
  <property name="kdenlive:original.meta.attr.compatible_brands.markup">isomiso2avc1mp41</property>
  <property name="kdenlive:original.meta.attr.encoder.markup">Lavf58.76.100</property>
  <property name="kdenlive:original.meta.attr.comment.markup">Rendered with Manim Community v0.12.0</property>
  <property name="kdenlive:original.seekable">1</property>
  <property name="kdenlive:original.width">3840</property>
  <property name="kdenlive:original.height">2160</property>
  <property name="kdenlive:original.meta.media.sample_aspect_num">1</property>
  <property name="kdenlive:original.meta.media.sample_aspect_den">1</property>
  <property name="kdenlive:original.aspect_ratio">1</property>
  <property name="kdenlive:original.audio_index">-1</property>
  <property name="kdenlive:original.video_index">0</property>
  <property name="kdenlive:original.mute_on_pause">0</property>
  <property name="kdenlive:original.mlt_service">avformat-novalidate</property>
  <property name="kdenlive:original.kdenlive:folderid">126</property>
  <property name="kdenlive:original.meta.media.frame_rate_num">60</property>
  <property name="kdenlive:original.meta.media.frame_rate_den">1</property>
  <property name="kdenlive:original.meta.media.colorspace">709</property>
  <property name="kdenlive:original.meta.media.color_trc">2</property>
  <property name="kdenlive:original.meta.media.has_b_frames">2</property>
  <property name="kdenlive:original.meta.media.width">3840</property>
  <property name="kdenlive:original.meta.media.height">2160</property>
  <property name="kdenlive:original.meta.media.color_range">mpeg</property>
  <property name="kdenlive:original.kdenlive:id">140</property>
  <property name="kdenlive:original.kdenlive:file_size">79900</property>
  <property name="kdenlive:original.kdenlive:file_hash">24448f6ccbb33935e2248fb7113a7522</property>
  <property name="kdenlive:original.backup">1</property>
  <property name="kdenlive:file_hash">24448f6ccbb33935e2248fb7113a7522</property>
  <property name="xml">was here</property>
  <property name="meta.media.nb_streams">1</property>
  <property name="meta.media.0.stream.type">video</property>
  <property name="meta.media.0.stream.frame_rate">60</property>
  <property name="meta.media.0.stream.sample_aspect_ratio">0</property>
  <property name="meta.media.0.codec.width">640</property>
  <property name="meta.media.0.codec.height">360</property>
  <property name="meta.media.0.codec.rotate">0</property>
  <property name="meta.media.0.codec.pix_fmt">yuv420p</property>
  <property name="meta.media.0.codec.sample_aspect_ratio">0</property>
  <property name="meta.media.0.codec.colorspace">601</property>
  <property name="meta.media.0.codec.name">h264</property>
  <property name="meta.media.0.codec.long_name">H.264 / AVC / MPEG-4 AVC / MPEG-4 part 10</property>
  <property name="meta.media.0.codec.bit_rate">1529280</property>
  <property name="meta.attr.0.stream.handler_name.markup">VideoHandler</property>
  <property name="meta.attr.0.stream.vendor_id.markup">FFMP</property>
  <property name="meta.attr.0.stream.encoder.markup">Lavc58.134.100 libx264</property>
  <property name="meta.attr.major_brand.markup">qt  </property>
  <property name="meta.attr.minor_version.markup">512</property>
  <property name="meta.attr.compatible_brands.markup">qt  </property>
  <property name="meta.attr.encoder.markup">Lavf58.76.100</property>
  <property name="meta.attr.comment.markup">Rendered with Manim Community v0.12.0</property>
  <property name="meta.media.sample_aspect_num">1</property>
  <property name="meta.media.sample_aspect_den">1</property>
  <property name="meta.media.frame_rate_num">60</property>
  <property name="meta.media.frame_rate_den">1</property>
  <property name="meta.media.colorspace">601</property>
  <property name="meta.media.color_trc">2</property>
  <property name="meta.media.has_b_frames">0</property>
  <property name="meta.media.width">640</property>
  <property name="meta.media.height">360</property>
  <property name="meta.media.color_range">mpeg</property>
  <property name="set.test_audio">1</property>
  <property name="set.test_image">0</property>
 </producer>
 <producer id="producer536" in="00:00:00.000" out="00:00:00.983">
  <property name="length">60</property>
  <property name="eof">pause</property>
  <property name="resource">/home/xiaoxiae/.cache/kdenlive/proxy/065e428ec35232d07f7f6986f337965b.mov</property>
  <property name="audio_index">-1</property>
  <property name="video_index">0</property>
  <property name="mute_on_pause">0</property>
  <property name="mlt_service">avformat-novalidate</property>
  <property name="seekable">1</property>
  <property name="aspect_ratio">1</property>
  <property name="kdenlive:clipname">9.mp4</property>
  <property name="kdenlive:folderid">126</property>
  <property name="kdenlive:id">140</property>
  <property name="kdenlive:file_size">145255</property>
  <property name="kdenlive:proxy">/home/xiaoxiae/.cache/kdenlive/proxy/065e428ec35232d07f7f6986f337965b.mov</property>
  <property name="kdenlive:originalurl">video/ComputationalPower/vid/9.mp4</property>
  <property name="kdenlive:original.mlt_type">producer</property>
  <property name="kdenlive:original.in">0</property>
  <property name="kdenlive:original.out">59</property>
  <property name="kdenlive:original.length">60</property>
  <property name="kdenlive:original.eof">pause</property>
  <property name="kdenlive:original.resource">video/ComputationalPower/vid/9.mp4</property>
  <property name="kdenlive:original.meta.media.nb_streams">1</property>
  <property name="kdenlive:original.meta.media.0.stream.type">video</property>
  <property name="kdenlive:original.meta.media.0.stream.frame_rate">60</property>
  <property name="kdenlive:original.meta.media.0.stream.sample_aspect_ratio">0</property>
  <property name="kdenlive:original.meta.media.0.codec.width">3840</property>
  <property name="kdenlive:original.meta.media.0.codec.height">2160</property>
  <property name="kdenlive:original.meta.media.0.codec.rotate">0</property>
  <property name="kdenlive:original.meta.media.0.codec.pix_fmt">yuv420p</property>
  <property name="kdenlive:original.meta.media.0.codec.sample_aspect_ratio">0</property>
  <property name="kdenlive:original.meta.media.0.codec.colorspace">709</property>
  <property name="kdenlive:original.meta.media.0.codec.name">h264</property>
  <property name="kdenlive:original.meta.media.0.codec.long_name">H.264 / AVC / MPEG-4 AVC / MPEG-4 part 10</property>
  <property name="kdenlive:original.meta.media.0.codec.bit_rate">1148920</property>
  <property name="kdenlive:original.meta.attr.0.stream.handler_name.markup">VideoHandler</property>
  <property name="kdenlive:original.meta.attr.0.stream.vendor_id.markup">[0][0][0][0]</property>
  <property name="kdenlive:original.meta.attr.major_brand.markup">isom</property>
  <property name="kdenlive:original.meta.attr.minor_version.markup">512</property>
  <property name="kdenlive:original.meta.attr.compatible_brands.markup">isomiso2avc1mp41</property>
  <property name="kdenlive:original.meta.attr.encoder.markup">Lavf58.76.100</property>
  <property name="kdenlive:original.meta.attr.comment.markup">Rendered with Manim Community v0.12.0</property>
  <property name="kdenlive:original.seekable">1</property>
  <property name="kdenlive:original.width">3840</property>
  <property name="kdenlive:original.height">2160</property>
  <property name="kdenlive:original.meta.media.sample_aspect_num">1</property>
  <property name="kdenlive:original.meta.media.sample_aspect_den">1</property>
  <property name="kdenlive:original.aspect_ratio">1</property>
  <property name="kdenlive:original.audio_index">-1</property>
  <property name="kdenlive:original.video_index">0</property>
  <property name="kdenlive:original.mute_on_pause">0</property>
  <property name="kdenlive:original.mlt_service">avformat-novalidate</property>
  <property name="kdenlive:original.kdenlive:folderid">126</property>
  <property name="kdenlive:original.meta.media.frame_rate_num">60</property>
  <property name="kdenlive:original.meta.media.frame_rate_den">1</property>
  <property name="kdenlive:original.meta.media.colorspace">709</property>
  <property name="kdenlive:original.meta.media.color_trc">2</property>
  <property name="kdenlive:original.meta.media.has_b_frames">2</property>
  <property name="kdenlive:original.meta.media.width">3840</property>
  <property name="kdenlive:original.meta.media.height">2160</property>
  <property name="kdenlive:original.meta.media.color_range">mpeg</property>
  <property name="kdenlive:original.kdenlive:id">141</property>
  <property name="kdenlive:original.kdenlive:file_size">145255</property>
  <property name="kdenlive:original.kdenlive:file_hash">065e428ec35232d07f7f6986f337965b</property>
  <property name="kdenlive:original.backup">1</property>
  <property name="kdenlive:file_hash">065e428ec35232d07f7f6986f337965b</property>
  <property name="xml">was here</property>
  <property name="meta.media.nb_streams">1</property>
  <property name="meta.media.0.stream.type">video</property>
  <property name="meta.media.0.stream.frame_rate">60</property>
  <property name="meta.media.0.stream.sample_aspect_ratio">0</property>
  <property name="meta.media.0.codec.width">640</property>
  <property name="meta.media.0.codec.height">360</property>
  <property name="meta.media.0.codec.rotate">0</property>
  <property name="meta.media.0.codec.pix_fmt">yuv420p</property>
  <property name="meta.media.0.codec.sample_aspect_ratio">0</property>
  <property name="meta.media.0.codec.colorspace">601</property>
  <property name="meta.media.0.codec.name">h264</property>
  <property name="meta.media.0.codec.long_name">H.264 / AVC / MPEG-4 AVC / MPEG-4 part 10</property>
  <property name="meta.media.0.codec.bit_rate">1570168</property>
  <property name="meta.attr.0.stream.handler_name.markup">VideoHandler</property>
  <property name="meta.attr.0.stream.vendor_id.markup">FFMP</property>
  <property name="meta.attr.0.stream.encoder.markup">Lavc58.134.100 libx264</property>
  <property name="meta.attr.major_brand.markup">qt  </property>
  <property name="meta.attr.minor_version.markup">512</property>
  <property name="meta.attr.compatible_brands.markup">qt  </property>
  <property name="meta.attr.encoder.markup">Lavf58.76.100</property>
  <property name="meta.attr.comment.markup">Rendered with Manim Community v0.12.0</property>
  <property name="meta.media.sample_aspect_num">1</property>
  <property name="meta.media.sample_aspect_den">1</property>
  <property name="meta.media.frame_rate_num">60</property>
  <property name="meta.media.frame_rate_den">1</property>
  <property name="meta.media.colorspace">601</property>
  <property name="meta.media.color_trc">2</property>
  <property name="meta.media.has_b_frames">0</property>
  <property name="meta.media.width">640</property>
  <property name="meta.media.height">360</property>
  <property name="meta.media.color_range">mpeg</property>
  <property name="set.test_audio">1</property>
  <property name="set.test_image">0</property>
 </producer>
 <producer id="producer537" in="00:00:00.000" out="00:00:00.983">
  <property name="length">60</property>
  <property name="eof">pause</property>
  <property name="resource">/home/xiaoxiae/.cache/kdenlive/proxy/6aae208e65f47e7f0525cc513bef3618.mov</property>
  <property name="audio_index">-1</property>
  <property name="video_index">0</property>
  <property name="mute_on_pause">0</property>
  <property name="mlt_service">avformat-novalidate</property>
  <property name="seekable">1</property>
  <property name="aspect_ratio">1</property>
  <property name="kdenlive:clipname">10.mp4</property>
  <property name="kdenlive:folderid">126</property>
  <property name="kdenlive:file_size">160673</property>
  <property name="kdenlive:id">127</property>
  <property name="kdenlive:proxy">/home/xiaoxiae/.cache/kdenlive/proxy/6aae208e65f47e7f0525cc513bef3618.mov</property>
  <property name="kdenlive:originalurl">video/ComputationalPower/vid/10.mp4</property>
  <property name="kdenlive:original.mlt_type">producer</property>
  <property name="kdenlive:original.in">0</property>
  <property name="kdenlive:original.out">59</property>
  <property name="kdenlive:original.length">60</property>
  <property name="kdenlive:original.eof">pause</property>
  <property name="kdenlive:original.resource">video/ComputationalPower/vid/10.mp4</property>
  <property name="kdenlive:original.meta.media.nb_streams">1</property>
  <property name="kdenlive:original.meta.media.0.stream.type">video</property>
  <property name="kdenlive:original.meta.media.0.stream.frame_rate">60</property>
  <property name="kdenlive:original.meta.media.0.stream.sample_aspect_ratio">0</property>
  <property name="kdenlive:original.meta.media.0.codec.width">3840</property>
  <property name="kdenlive:original.meta.media.0.codec.height">2160</property>
  <property name="kdenlive:original.meta.media.0.codec.rotate">0</property>
  <property name="kdenlive:original.meta.media.0.codec.pix_fmt">yuv420p</property>
  <property name="kdenlive:original.meta.media.0.codec.sample_aspect_ratio">0</property>
  <property name="kdenlive:original.meta.media.0.codec.colorspace">709</property>
  <property name="kdenlive:original.meta.media.0.codec.name">h264</property>
  <property name="kdenlive:original.meta.media.0.codec.long_name">H.264 / AVC / MPEG-4 AVC / MPEG-4 part 10</property>
  <property name="kdenlive:original.meta.media.0.codec.bit_rate">1272328</property>
  <property name="kdenlive:original.meta.attr.0.stream.handler_name.markup">VideoHandler</property>
  <property name="kdenlive:original.meta.attr.0.stream.vendor_id.markup">[0][0][0][0]</property>
  <property name="kdenlive:original.meta.attr.major_brand.markup">isom</property>
  <property name="kdenlive:original.meta.attr.minor_version.markup">512</property>
  <property name="kdenlive:original.meta.attr.compatible_brands.markup">isomiso2avc1mp41</property>
  <property name="kdenlive:original.meta.attr.encoder.markup">Lavf58.76.100</property>
  <property name="kdenlive:original.meta.attr.comment.markup">Rendered with Manim Community v0.12.0</property>
  <property name="kdenlive:original.seekable">1</property>
  <property name="kdenlive:original.width">3840</property>
  <property name="kdenlive:original.height">2160</property>
  <property name="kdenlive:original.meta.media.sample_aspect_num">1</property>
  <property name="kdenlive:original.meta.media.sample_aspect_den">1</property>
  <property name="kdenlive:original.aspect_ratio">1</property>
  <property name="kdenlive:original.audio_index">-1</property>
  <property name="kdenlive:original.video_index">0</property>
  <property name="kdenlive:original.mute_on_pause">0</property>
  <property name="kdenlive:original.mlt_service">avformat-novalidate</property>
  <property name="kdenlive:original.kdenlive:folderid">126</property>
  <property name="kdenlive:original.kdenlive:file_size">160673</property>
  <property name="kdenlive:original.meta.media.frame_rate_num">60</property>
  <property name="kdenlive:original.meta.media.frame_rate_den">1</property>
  <property name="kdenlive:original.meta.media.colorspace">709</property>
  <property name="kdenlive:original.meta.media.color_trc">2</property>
  <property name="kdenlive:original.meta.media.has_b_frames">2</property>
  <property name="kdenlive:original.meta.media.width">3840</property>
  <property name="kdenlive:original.meta.media.height">2160</property>
  <property name="kdenlive:original.meta.media.color_range">mpeg</property>
  <property name="kdenlive:original.kdenlive:id">128</property>
  <property name="kdenlive:original.kdenlive:file_hash">6aae208e65f47e7f0525cc513bef3618</property>
  <property name="kdenlive:original.backup">1</property>
  <property name="kdenlive:file_hash">6aae208e65f47e7f0525cc513bef3618</property>
  <property name="xml">was here</property>
  <property name="meta.media.nb_streams">1</property>
  <property name="meta.media.0.stream.type">video</property>
  <property name="meta.media.0.stream.frame_rate">60</property>
  <property name="meta.media.0.stream.sample_aspect_ratio">0</property>
  <property name="meta.media.0.codec.width">640</property>
  <property name="meta.media.0.codec.height">360</property>
  <property name="meta.media.0.codec.rotate">0</property>
  <property name="meta.media.0.codec.pix_fmt">yuv420p</property>
  <property name="meta.media.0.codec.sample_aspect_ratio">0</property>
  <property name="meta.media.0.codec.colorspace">601</property>
  <property name="meta.media.0.codec.name">h264</property>
  <property name="meta.media.0.codec.long_name">H.264 / AVC / MPEG-4 AVC / MPEG-4 part 10</property>
  <property name="meta.media.0.codec.bit_rate">1661680</property>
  <property name="meta.attr.0.stream.handler_name.markup">VideoHandler</property>
  <property name="meta.attr.0.stream.vendor_id.markup">FFMP</property>
  <property name="meta.attr.0.stream.encoder.markup">Lavc58.134.100 libx264</property>
  <property name="meta.attr.major_brand.markup">qt  </property>
  <property name="meta.attr.minor_version.markup">512</property>
  <property name="meta.attr.compatible_brands.markup">qt  </property>
  <property name="meta.attr.encoder.markup">Lavf58.76.100</property>
  <property name="meta.attr.comment.markup">Rendered with Manim Community v0.12.0</property>
  <property name="meta.media.sample_aspect_num">1</property>
  <property name="meta.media.sample_aspect_den">1</property>
  <property name="meta.media.frame_rate_num">60</property>
  <property name="meta.media.frame_rate_den">1</property>
  <property name="meta.media.colorspace">601</property>
  <property name="meta.media.color_trc">2</property>
  <property name="meta.media.has_b_frames">0</property>
  <property name="meta.media.width">640</property>
  <property name="meta.media.height">360</property>
  <property name="meta.media.color_range">mpeg</property>
  <property name="set.test_audio">1</property>
  <property name="set.test_image">0</property>
 </producer>
 <producer id="producer538" in="00:00:00.000" out="00:00:00.983">
  <property name="length">60</property>
  <property name="eof">pause</property>
  <property name="resource">/home/xiaoxiae/.cache/kdenlive/proxy/8bbe2f5353ee48e8c5d055ad43d71290.mov</property>
  <property name="audio_index">-1</property>
  <property name="video_index">0</property>
  <property name="mute_on_pause">0</property>
  <property name="mlt_service">avformat-novalidate</property>
  <property name="seekable">1</property>
  <property name="aspect_ratio">1</property>
  <property name="kdenlive:clipname">11.mp4</property>
  <property name="kdenlive:folderid">126</property>
  <property name="kdenlive:id">128</property>
  <property name="kdenlive:file_size">72372</property>
  <property name="kdenlive:proxy">/home/xiaoxiae/.cache/kdenlive/proxy/8bbe2f5353ee48e8c5d055ad43d71290.mov</property>
  <property name="kdenlive:originalurl">video/ComputationalPower/vid/11.mp4</property>
  <property name="kdenlive:original.mlt_type">producer</property>
  <property name="kdenlive:original.in">0</property>
  <property name="kdenlive:original.out">59</property>
  <property name="kdenlive:original.length">60</property>
  <property name="kdenlive:original.eof">pause</property>
  <property name="kdenlive:original.resource">video/ComputationalPower/vid/11.mp4</property>
  <property name="kdenlive:original.meta.media.nb_streams">1</property>
  <property name="kdenlive:original.meta.media.0.stream.type">video</property>
  <property name="kdenlive:original.meta.media.0.stream.frame_rate">60</property>
  <property name="kdenlive:original.meta.media.0.stream.sample_aspect_ratio">0</property>
  <property name="kdenlive:original.meta.media.0.codec.width">3840</property>
  <property name="kdenlive:original.meta.media.0.codec.height">2160</property>
  <property name="kdenlive:original.meta.media.0.codec.rotate">0</property>
  <property name="kdenlive:original.meta.media.0.codec.pix_fmt">yuv420p</property>
  <property name="kdenlive:original.meta.media.0.codec.sample_aspect_ratio">0</property>
  <property name="kdenlive:original.meta.media.0.codec.colorspace">709</property>
  <property name="kdenlive:original.meta.media.0.codec.name">h264</property>
  <property name="kdenlive:original.meta.media.0.codec.long_name">H.264 / AVC / MPEG-4 AVC / MPEG-4 part 10</property>
  <property name="kdenlive:original.meta.media.0.codec.bit_rate">565920</property>
  <property name="kdenlive:original.meta.attr.0.stream.handler_name.markup">VideoHandler</property>
  <property name="kdenlive:original.meta.attr.0.stream.vendor_id.markup">[0][0][0][0]</property>
  <property name="kdenlive:original.meta.attr.major_brand.markup">isom</property>
  <property name="kdenlive:original.meta.attr.minor_version.markup">512</property>
  <property name="kdenlive:original.meta.attr.compatible_brands.markup">isomiso2avc1mp41</property>
  <property name="kdenlive:original.meta.attr.encoder.markup">Lavf58.76.100</property>
  <property name="kdenlive:original.meta.attr.comment.markup">Rendered with Manim Community v0.12.0</property>
  <property name="kdenlive:original.seekable">1</property>
  <property name="kdenlive:original.width">3840</property>
  <property name="kdenlive:original.height">2160</property>
  <property name="kdenlive:original.meta.media.sample_aspect_num">1</property>
  <property name="kdenlive:original.meta.media.sample_aspect_den">1</property>
  <property name="kdenlive:original.aspect_ratio">1</property>
  <property name="kdenlive:original.audio_index">-1</property>
  <property name="kdenlive:original.video_index">0</property>
  <property name="kdenlive:original.mute_on_pause">0</property>
  <property name="kdenlive:original.mlt_service">avformat-novalidate</property>
  <property name="kdenlive:original.kdenlive:folderid">126</property>
  <property name="kdenlive:original.meta.media.frame_rate_num">60</property>
  <property name="kdenlive:original.meta.media.frame_rate_den">1</property>
  <property name="kdenlive:original.meta.media.colorspace">709</property>
  <property name="kdenlive:original.meta.media.color_trc">2</property>
  <property name="kdenlive:original.meta.media.has_b_frames">2</property>
  <property name="kdenlive:original.meta.media.width">3840</property>
  <property name="kdenlive:original.meta.media.height">2160</property>
  <property name="kdenlive:original.meta.media.color_range">mpeg</property>
  <property name="kdenlive:original.kdenlive:id">129</property>
  <property name="kdenlive:original.kdenlive:file_size">72372</property>
  <property name="kdenlive:original.kdenlive:file_hash">8bbe2f5353ee48e8c5d055ad43d71290</property>
  <property name="kdenlive:original.backup">1</property>
  <property name="kdenlive:file_hash">8bbe2f5353ee48e8c5d055ad43d71290</property>
  <property name="xml">was here</property>
  <property name="meta.media.nb_streams">1</property>
  <property name="meta.media.0.stream.type">video</property>
  <property name="meta.media.0.stream.frame_rate">60</property>
  <property name="meta.media.0.stream.sample_aspect_ratio">0</property>
  <property name="meta.media.0.codec.width">640</property>
  <property name="meta.media.0.codec.height">360</property>
  <property name="meta.media.0.codec.rotate">0</property>
  <property name="meta.media.0.codec.pix_fmt">yuv420p</property>
  <property name="meta.media.0.codec.sample_aspect_ratio">0</property>
  <property name="meta.media.0.codec.colorspace">601</property>
  <property name="meta.media.0.codec.name">h264</property>
  <property name="meta.media.0.codec.long_name">H.264 / AVC / MPEG-4 AVC / MPEG-4 part 10</property>
  <property name="meta.media.0.codec.bit_rate">1748288</property>
  <property name="meta.attr.0.stream.handler_name.markup">VideoHandler</property>
  <property name="meta.attr.0.stream.vendor_id.markup">FFMP</property>
  <property name="meta.attr.0.stream.encoder.markup">Lavc58.134.100 libx264</property>
  <property name="meta.attr.major_brand.markup">qt  </property>
  <property name="meta.attr.minor_version.markup">512</property>
  <property name="meta.attr.compatible_brands.markup">qt  </property>
  <property name="meta.attr.encoder.markup">Lavf58.76.100</property>
  <property name="meta.attr.comment.markup">Rendered with Manim Community v0.12.0</property>
  <property name="meta.media.sample_aspect_num">1</property>
  <property name="meta.media.sample_aspect_den">1</property>
  <property name="meta.media.frame_rate_num">60</property>
  <property name="meta.media.frame_rate_den">1</property>
  <property name="meta.media.colorspace">601</property>
  <property name="meta.media.color_trc">2</property>
  <property name="meta.media.has_b_frames">0</property>
  <property name="meta.media.width">640</property>
  <property name="meta.media.height">360</property>
  <property name="meta.media.color_range">mpeg</property>
  <property name="set.test_audio">1</property>
  <property name="set.test_image">0</property>
 </producer>
 <producer id="producer539" in="00:00:00.000" out="00:00:01.333">
  <property name="length">81</property>
  <property name="eof">pause</property>
  <property name="resource">/home/xiaoxiae/.cache/kdenlive/proxy/dfb5eb1e175d011f8c5a94bbab32c7c9.mov</property>
  <property name="audio_index">-1</property>
  <property name="video_index">0</property>
  <property name="mute_on_pause">0</property>
  <property name="mlt_service">avformat-novalidate</property>
  <property name="seekable">1</property>
  <property name="aspect_ratio">1</property>
  <property name="kdenlive:clipname">12.mp4</property>
  <property name="kdenlive:folderid">126</property>
  <property name="kdenlive:id">129</property>
  <property name="kdenlive:file_size">176337</property>
  <property name="kdenlive:proxy">/home/xiaoxiae/.cache/kdenlive/proxy/dfb5eb1e175d011f8c5a94bbab32c7c9.mov</property>
  <property name="kdenlive:originalurl">video/ComputationalPower/vid/12.mp4</property>
  <property name="kdenlive:original.mlt_type">producer</property>
  <property name="kdenlive:original.in">0</property>
  <property name="kdenlive:original.out">80</property>
  <property name="kdenlive:original.length">81</property>
  <property name="kdenlive:original.eof">pause</property>
  <property name="kdenlive:original.resource">video/ComputationalPower/vid/12.mp4</property>
  <property name="kdenlive:original.meta.media.nb_streams">1</property>
  <property name="kdenlive:original.meta.media.0.stream.type">video</property>
  <property name="kdenlive:original.meta.media.0.stream.frame_rate">60</property>
  <property name="kdenlive:original.meta.media.0.stream.sample_aspect_ratio">0</property>
  <property name="kdenlive:original.meta.media.0.codec.width">3840</property>
  <property name="kdenlive:original.meta.media.0.codec.height">2160</property>
  <property name="kdenlive:original.meta.media.0.codec.rotate">0</property>
  <property name="kdenlive:original.meta.media.0.codec.pix_fmt">yuv420p</property>
  <property name="kdenlive:original.meta.media.0.codec.sample_aspect_ratio">0</property>
  <property name="kdenlive:original.meta.media.0.codec.colorspace">709</property>
  <property name="kdenlive:original.meta.media.0.codec.name">h264</property>
  <property name="kdenlive:original.meta.media.0.codec.long_name">H.264 / AVC / MPEG-4 AVC / MPEG-4 part 10</property>
  <property name="kdenlive:original.meta.media.0.codec.bit_rate">1033842</property>
  <property name="kdenlive:original.meta.attr.0.stream.handler_name.markup">VideoHandler</property>
  <property name="kdenlive:original.meta.attr.0.stream.vendor_id.markup">[0][0][0][0]</property>
  <property name="kdenlive:original.meta.attr.major_brand.markup">isom</property>
  <property name="kdenlive:original.meta.attr.minor_version.markup">512</property>
  <property name="kdenlive:original.meta.attr.compatible_brands.markup">isomiso2avc1mp41</property>
  <property name="kdenlive:original.meta.attr.encoder.markup">Lavf58.76.100</property>
  <property name="kdenlive:original.meta.attr.comment.markup">Rendered with Manim Community v0.12.0</property>
  <property name="kdenlive:original.seekable">1</property>
  <property name="kdenlive:original.width">3840</property>
  <property name="kdenlive:original.height">2160</property>
  <property name="kdenlive:original.meta.media.sample_aspect_num">1</property>
  <property name="kdenlive:original.meta.media.sample_aspect_den">1</property>
  <property name="kdenlive:original.aspect_ratio">1</property>
  <property name="kdenlive:original.audio_index">-1</property>
  <property name="kdenlive:original.video_index">0</property>
  <property name="kdenlive:original.mute_on_pause">0</property>
  <property name="kdenlive:original.mlt_service">avformat-novalidate</property>
  <property name="kdenlive:original.kdenlive:folderid">126</property>
  <property name="kdenlive:original.meta.media.frame_rate_num">60</property>
  <property name="kdenlive:original.meta.media.frame_rate_den">1</property>
  <property name="kdenlive:original.meta.media.colorspace">709</property>
  <property name="kdenlive:original.meta.media.color_trc">2</property>
  <property name="kdenlive:original.meta.media.has_b_frames">2</property>
  <property name="kdenlive:original.meta.media.width">3840</property>
  <property name="kdenlive:original.meta.media.height">2160</property>
  <property name="kdenlive:original.meta.media.color_range">mpeg</property>
  <property name="kdenlive:original.kdenlive:id">130</property>
  <property name="kdenlive:original.kdenlive:file_size">176337</property>
  <property name="kdenlive:original.kdenlive:file_hash">dfb5eb1e175d011f8c5a94bbab32c7c9</property>
  <property name="kdenlive:original.backup">1</property>
  <property name="kdenlive:file_hash">dfb5eb1e175d011f8c5a94bbab32c7c9</property>
  <property name="xml">was here</property>
  <property name="meta.media.nb_streams">1</property>
  <property name="meta.media.0.stream.type">video</property>
  <property name="meta.media.0.stream.frame_rate">60</property>
  <property name="meta.media.0.stream.sample_aspect_ratio">0</property>
  <property name="meta.media.0.codec.width">640</property>
  <property name="meta.media.0.codec.height">360</property>
  <property name="meta.media.0.codec.rotate">0</property>
  <property name="meta.media.0.codec.pix_fmt">yuv420p</property>
  <property name="meta.media.0.codec.sample_aspect_ratio">0</property>
  <property name="meta.media.0.codec.colorspace">601</property>
  <property name="meta.media.0.codec.name">h264</property>
  <property name="meta.media.0.codec.long_name">H.264 / AVC / MPEG-4 AVC / MPEG-4 part 10</property>
  <property name="meta.media.0.codec.bit_rate">1537031</property>
  <property name="meta.attr.0.stream.handler_name.markup">VideoHandler</property>
  <property name="meta.attr.0.stream.vendor_id.markup">FFMP</property>
  <property name="meta.attr.0.stream.encoder.markup">Lavc58.134.100 libx264</property>
  <property name="meta.attr.major_brand.markup">qt  </property>
  <property name="meta.attr.minor_version.markup">512</property>
  <property name="meta.attr.compatible_brands.markup">qt  </property>
  <property name="meta.attr.encoder.markup">Lavf58.76.100</property>
  <property name="meta.attr.comment.markup">Rendered with Manim Community v0.12.0</property>
  <property name="meta.media.sample_aspect_num">1</property>
  <property name="meta.media.sample_aspect_den">1</property>
  <property name="meta.media.frame_rate_num">60</property>
  <property name="meta.media.frame_rate_den">1</property>
  <property name="meta.media.colorspace">601</property>
  <property name="meta.media.color_trc">2</property>
  <property name="meta.media.has_b_frames">0</property>
  <property name="meta.media.width">640</property>
  <property name="meta.media.height">360</property>
  <property name="meta.media.color_range">mpeg</property>
  <property name="set.test_audio">1</property>
  <property name="set.test_image">0</property>
  <property name="meta.media.top_field_first">0</property>
  <property name="meta.media.progressive">1</property>
 </producer>
 <producer id="producer540" in="00:00:00.000" out="00:00:00.983">
  <property name="length">60</property>
  <property name="eof">pause</property>
  <property name="resource">/home/xiaoxiae/.cache/kdenlive/proxy/071b74f04bfdafb4747da5e4a95b9e03.mov</property>
  <property name="audio_index">-1</property>
  <property name="video_index">0</property>
  <property name="mute_on_pause">0</property>
  <property name="mlt_service">avformat-novalidate</property>
  <property name="seekable">1</property>
  <property name="aspect_ratio">1</property>
  <property name="kdenlive:clipname">13.mp4</property>
  <property name="kdenlive:folderid">126</property>
  <property name="kdenlive:id">130</property>
  <property name="kdenlive:file_size">69785</property>
  <property name="kdenlive:proxy">/home/xiaoxiae/.cache/kdenlive/proxy/071b74f04bfdafb4747da5e4a95b9e03.mov</property>
  <property name="kdenlive:originalurl">video/ComputationalPower/vid/13.mp4</property>
  <property name="kdenlive:original.mlt_type">producer</property>
  <property name="kdenlive:original.in">0</property>
  <property name="kdenlive:original.out">59</property>
  <property name="kdenlive:original.length">60</property>
  <property name="kdenlive:original.eof">pause</property>
  <property name="kdenlive:original.resource">video/ComputationalPower/vid/13.mp4</property>
  <property name="kdenlive:original.meta.media.nb_streams">1</property>
  <property name="kdenlive:original.meta.media.0.stream.type">video</property>
  <property name="kdenlive:original.meta.media.0.stream.frame_rate">60</property>
  <property name="kdenlive:original.meta.media.0.stream.sample_aspect_ratio">0</property>
  <property name="kdenlive:original.meta.media.0.codec.width">3840</property>
  <property name="kdenlive:original.meta.media.0.codec.height">2160</property>
  <property name="kdenlive:original.meta.media.0.codec.rotate">0</property>
  <property name="kdenlive:original.meta.media.0.codec.pix_fmt">yuv420p</property>
  <property name="kdenlive:original.meta.media.0.codec.sample_aspect_ratio">0</property>
  <property name="kdenlive:original.meta.media.0.codec.colorspace">709</property>
  <property name="kdenlive:original.meta.media.0.codec.name">h264</property>
  <property name="kdenlive:original.meta.media.0.codec.long_name">H.264 / AVC / MPEG-4 AVC / MPEG-4 part 10</property>
  <property name="kdenlive:original.meta.media.0.codec.bit_rate">545224</property>
  <property name="kdenlive:original.meta.attr.0.stream.handler_name.markup">VideoHandler</property>
  <property name="kdenlive:original.meta.attr.0.stream.vendor_id.markup">[0][0][0][0]</property>
  <property name="kdenlive:original.meta.attr.major_brand.markup">isom</property>
  <property name="kdenlive:original.meta.attr.minor_version.markup">512</property>
  <property name="kdenlive:original.meta.attr.compatible_brands.markup">isomiso2avc1mp41</property>
  <property name="kdenlive:original.meta.attr.encoder.markup">Lavf58.76.100</property>
  <property name="kdenlive:original.meta.attr.comment.markup">Rendered with Manim Community v0.12.0</property>
  <property name="kdenlive:original.seekable">1</property>
  <property name="kdenlive:original.width">3840</property>
  <property name="kdenlive:original.height">2160</property>
  <property name="kdenlive:original.meta.media.sample_aspect_num">1</property>
  <property name="kdenlive:original.meta.media.sample_aspect_den">1</property>
  <property name="kdenlive:original.aspect_ratio">1</property>
  <property name="kdenlive:original.audio_index">-1</property>
  <property name="kdenlive:original.video_index">0</property>
  <property name="kdenlive:original.mute_on_pause">0</property>
  <property name="kdenlive:original.mlt_service">avformat-novalidate</property>
  <property name="kdenlive:original.kdenlive:folderid">126</property>
  <property name="kdenlive:original.meta.media.frame_rate_num">60</property>
  <property name="kdenlive:original.meta.media.frame_rate_den">1</property>
  <property name="kdenlive:original.meta.media.colorspace">709</property>
  <property name="kdenlive:original.meta.media.color_trc">2</property>
  <property name="kdenlive:original.meta.media.has_b_frames">2</property>
  <property name="kdenlive:original.meta.media.width">3840</property>
  <property name="kdenlive:original.meta.media.height">2160</property>
  <property name="kdenlive:original.meta.media.color_range">mpeg</property>
  <property name="kdenlive:original.kdenlive:id">131</property>
  <property name="kdenlive:original.kdenlive:file_size">69785</property>
  <property name="kdenlive:original.kdenlive:file_hash">071b74f04bfdafb4747da5e4a95b9e03</property>
  <property name="kdenlive:original.backup">1</property>
  <property name="kdenlive:file_hash">071b74f04bfdafb4747da5e4a95b9e03</property>
  <property name="xml">was here</property>
  <property name="meta.media.nb_streams">1</property>
  <property name="meta.media.0.stream.type">video</property>
  <property name="meta.media.0.stream.frame_rate">60</property>
  <property name="meta.media.0.stream.sample_aspect_ratio">0</property>
  <property name="meta.media.0.codec.width">640</property>
  <property name="meta.media.0.codec.height">360</property>
  <property name="meta.media.0.codec.rotate">0</property>
  <property name="meta.media.0.codec.pix_fmt">yuv420p</property>
  <property name="meta.media.0.codec.sample_aspect_ratio">0</property>
  <property name="meta.media.0.codec.colorspace">601</property>
  <property name="meta.media.0.codec.name">h264</property>
  <property name="meta.media.0.codec.long_name">H.264 / AVC / MPEG-4 AVC / MPEG-4 part 10</property>
  <property name="meta.media.0.codec.bit_rate">1486536</property>
  <property name="meta.attr.0.stream.handler_name.markup">VideoHandler</property>
  <property name="meta.attr.0.stream.vendor_id.markup">FFMP</property>
  <property name="meta.attr.0.stream.encoder.markup">Lavc58.134.100 libx264</property>
  <property name="meta.attr.major_brand.markup">qt  </property>
  <property name="meta.attr.minor_version.markup">512</property>
  <property name="meta.attr.compatible_brands.markup">qt  </property>
  <property name="meta.attr.encoder.markup">Lavf58.76.100</property>
  <property name="meta.attr.comment.markup">Rendered with Manim Community v0.12.0</property>
  <property name="meta.media.sample_aspect_num">1</property>
  <property name="meta.media.sample_aspect_den">1</property>
  <property name="meta.media.frame_rate_num">60</property>
  <property name="meta.media.frame_rate_den">1</property>
  <property name="meta.media.colorspace">601</property>
  <property name="meta.media.color_trc">2</property>
  <property name="meta.media.has_b_frames">0</property>
  <property name="meta.media.width">640</property>
  <property name="meta.media.height">360</property>
  <property name="meta.media.color_range">mpeg</property>
  <property name="set.test_audio">1</property>
  <property name="set.test_image">0</property>
  <property name="meta.media.top_field_first">0</property>
  <property name="meta.media.progressive">1</property>
 </producer>
 <producer id="producer541" in="00:00:00.000" out="00:00:00.983">
  <property name="length">60</property>
  <property name="eof">pause</property>
  <property name="resource">/home/xiaoxiae/.cache/kdenlive/proxy/4e2ef92b47ef7f56bdc13b35626daef8.mov</property>
  <property name="audio_index">-1</property>
  <property name="video_index">0</property>
  <property name="mute_on_pause">0</property>
  <property name="mlt_service">avformat-novalidate</property>
  <property name="seekable">1</property>
  <property name="aspect_ratio">1</property>
  <property name="kdenlive:clipname">14.mp4</property>
  <property name="kdenlive:folderid">126</property>
  <property name="kdenlive:id">131</property>
  <property name="kdenlive:file_size">78658</property>
  <property name="kdenlive:proxy">/home/xiaoxiae/.cache/kdenlive/proxy/4e2ef92b47ef7f56bdc13b35626daef8.mov</property>
  <property name="kdenlive:originalurl">video/ComputationalPower/vid/14.mp4</property>
  <property name="kdenlive:original.mlt_type">producer</property>
  <property name="kdenlive:original.in">0</property>
  <property name="kdenlive:original.out">59</property>
  <property name="kdenlive:original.length">60</property>
  <property name="kdenlive:original.eof">pause</property>
  <property name="kdenlive:original.resource">video/ComputationalPower/vid/14.mp4</property>
  <property name="kdenlive:original.meta.media.nb_streams">1</property>
  <property name="kdenlive:original.meta.media.0.stream.type">video</property>
  <property name="kdenlive:original.meta.media.0.stream.frame_rate">60</property>
  <property name="kdenlive:original.meta.media.0.stream.sample_aspect_ratio">0</property>
  <property name="kdenlive:original.meta.media.0.codec.width">3840</property>
  <property name="kdenlive:original.meta.media.0.codec.height">2160</property>
  <property name="kdenlive:original.meta.media.0.codec.rotate">0</property>
  <property name="kdenlive:original.meta.media.0.codec.pix_fmt">yuv420p</property>
  <property name="kdenlive:original.meta.media.0.codec.sample_aspect_ratio">0</property>
  <property name="kdenlive:original.meta.media.0.codec.colorspace">709</property>
  <property name="kdenlive:original.meta.media.0.codec.name">h264</property>
  <property name="kdenlive:original.meta.media.0.codec.long_name">H.264 / AVC / MPEG-4 AVC / MPEG-4 part 10</property>
  <property name="kdenlive:original.meta.media.0.codec.bit_rate">616208</property>
  <property name="kdenlive:original.meta.attr.0.stream.handler_name.markup">VideoHandler</property>
  <property name="kdenlive:original.meta.attr.0.stream.vendor_id.markup">[0][0][0][0]</property>
  <property name="kdenlive:original.meta.attr.major_brand.markup">isom</property>
  <property name="kdenlive:original.meta.attr.minor_version.markup">512</property>
  <property name="kdenlive:original.meta.attr.compatible_brands.markup">isomiso2avc1mp41</property>
  <property name="kdenlive:original.meta.attr.encoder.markup">Lavf58.76.100</property>
  <property name="kdenlive:original.meta.attr.comment.markup">Rendered with Manim Community v0.12.0</property>
  <property name="kdenlive:original.seekable">1</property>
  <property name="kdenlive:original.width">3840</property>
  <property name="kdenlive:original.height">2160</property>
  <property name="kdenlive:original.meta.media.sample_aspect_num">1</property>
  <property name="kdenlive:original.meta.media.sample_aspect_den">1</property>
  <property name="kdenlive:original.aspect_ratio">1</property>
  <property name="kdenlive:original.audio_index">-1</property>
  <property name="kdenlive:original.video_index">0</property>
  <property name="kdenlive:original.mute_on_pause">0</property>
  <property name="kdenlive:original.mlt_service">avformat-novalidate</property>
  <property name="kdenlive:original.kdenlive:folderid">126</property>
  <property name="kdenlive:original.meta.media.frame_rate_num">60</property>
  <property name="kdenlive:original.meta.media.frame_rate_den">1</property>
  <property name="kdenlive:original.meta.media.colorspace">709</property>
  <property name="kdenlive:original.meta.media.color_trc">2</property>
  <property name="kdenlive:original.meta.media.has_b_frames">2</property>
  <property name="kdenlive:original.meta.media.width">3840</property>
  <property name="kdenlive:original.meta.media.height">2160</property>
  <property name="kdenlive:original.meta.media.color_range">mpeg</property>
  <property name="kdenlive:original.kdenlive:id">132</property>
  <property name="kdenlive:original.kdenlive:file_size">78658</property>
  <property name="kdenlive:original.kdenlive:file_hash">4e2ef92b47ef7f56bdc13b35626daef8</property>
  <property name="kdenlive:original.backup">1</property>
  <property name="kdenlive:file_hash">4e2ef92b47ef7f56bdc13b35626daef8</property>
  <property name="xml">was here</property>
  <property name="meta.media.nb_streams">1</property>
  <property name="meta.media.0.stream.type">video</property>
  <property name="meta.media.0.stream.frame_rate">60</property>
  <property name="meta.media.0.stream.sample_aspect_ratio">0</property>
  <property name="meta.media.0.codec.width">640</property>
  <property name="meta.media.0.codec.height">360</property>
  <property name="meta.media.0.codec.rotate">0</property>
  <property name="meta.media.0.codec.pix_fmt">yuv420p</property>
  <property name="meta.media.0.codec.sample_aspect_ratio">0</property>
  <property name="meta.media.0.codec.colorspace">601</property>
  <property name="meta.media.0.codec.name">h264</property>
  <property name="meta.media.0.codec.long_name">H.264 / AVC / MPEG-4 AVC / MPEG-4 part 10</property>
  <property name="meta.media.0.codec.bit_rate">1750264</property>
  <property name="meta.attr.0.stream.handler_name.markup">VideoHandler</property>
  <property name="meta.attr.0.stream.vendor_id.markup">FFMP</property>
  <property name="meta.attr.0.stream.encoder.markup">Lavc58.134.100 libx264</property>
  <property name="meta.attr.major_brand.markup">qt  </property>
  <property name="meta.attr.minor_version.markup">512</property>
  <property name="meta.attr.compatible_brands.markup">qt  </property>
  <property name="meta.attr.encoder.markup">Lavf58.76.100</property>
  <property name="meta.attr.comment.markup">Rendered with Manim Community v0.12.0</property>
  <property name="meta.media.sample_aspect_num">1</property>
  <property name="meta.media.sample_aspect_den">1</property>
  <property name="meta.media.frame_rate_num">60</property>
  <property name="meta.media.frame_rate_den">1</property>
  <property name="meta.media.colorspace">601</property>
  <property name="meta.media.color_trc">2</property>
  <property name="meta.media.has_b_frames">0</property>
  <property name="meta.media.width">640</property>
  <property name="meta.media.height">360</property>
  <property name="meta.media.color_range">mpeg</property>
  <property name="set.test_audio">1</property>
  <property name="set.test_image">0</property>
  <property name="meta.media.top_field_first">0</property>
  <property name="meta.media.progressive">1</property>
 </producer>
 <producer id="producer542" in="00:00:00.000" out="00:00:00.983">
  <property name="length">60</property>
  <property name="eof">pause</property>
  <property name="resource">/home/xiaoxiae/.cache/kdenlive/proxy/c7e0649829666257492dd5c1b970eef9.mov</property>
  <property name="audio_index">-1</property>
  <property name="video_index">0</property>
  <property name="mute_on_pause">0</property>
  <property name="mlt_service">avformat-novalidate</property>
  <property name="seekable">1</property>
  <property name="aspect_ratio">1</property>
  <property name="kdenlive:clipname">15.mp4</property>
  <property name="kdenlive:folderid">126</property>
  <property name="kdenlive:id">132</property>
  <property name="kdenlive:file_size">202896</property>
  <property name="kdenlive:proxy">/home/xiaoxiae/.cache/kdenlive/proxy/c7e0649829666257492dd5c1b970eef9.mov</property>
  <property name="kdenlive:originalurl">video/ComputationalPower/vid/15.mp4</property>
  <property name="kdenlive:original.mlt_type">producer</property>
  <property name="kdenlive:original.in">0</property>
  <property name="kdenlive:original.out">59</property>
  <property name="kdenlive:original.length">60</property>
  <property name="kdenlive:original.eof">pause</property>
  <property name="kdenlive:original.resource">video/ComputationalPower/vid/15.mp4</property>
  <property name="kdenlive:original.meta.media.nb_streams">1</property>
  <property name="kdenlive:original.meta.media.0.stream.type">video</property>
  <property name="kdenlive:original.meta.media.0.stream.frame_rate">60</property>
  <property name="kdenlive:original.meta.media.0.stream.sample_aspect_ratio">0</property>
  <property name="kdenlive:original.meta.media.0.codec.width">3840</property>
  <property name="kdenlive:original.meta.media.0.codec.height">2160</property>
  <property name="kdenlive:original.meta.media.0.codec.rotate">0</property>
  <property name="kdenlive:original.meta.media.0.codec.pix_fmt">yuv420p</property>
  <property name="kdenlive:original.meta.media.0.codec.sample_aspect_ratio">0</property>
  <property name="kdenlive:original.meta.media.0.codec.colorspace">709</property>
  <property name="kdenlive:original.meta.media.0.codec.name">h264</property>
  <property name="kdenlive:original.meta.media.0.codec.long_name">H.264 / AVC / MPEG-4 AVC / MPEG-4 part 10</property>
  <property name="kdenlive:original.meta.media.0.codec.bit_rate">1610176</property>
  <property name="kdenlive:original.meta.attr.0.stream.handler_name.markup">VideoHandler</property>
  <property name="kdenlive:original.meta.attr.0.stream.vendor_id.markup">[0][0][0][0]</property>
  <property name="kdenlive:original.meta.attr.major_brand.markup">isom</property>
  <property name="kdenlive:original.meta.attr.minor_version.markup">512</property>
  <property name="kdenlive:original.meta.attr.compatible_brands.markup">isomiso2avc1mp41</property>
  <property name="kdenlive:original.meta.attr.encoder.markup">Lavf58.76.100</property>
  <property name="kdenlive:original.meta.attr.comment.markup">Rendered with Manim Community v0.12.0</property>
  <property name="kdenlive:original.seekable">1</property>
  <property name="kdenlive:original.width">3840</property>
  <property name="kdenlive:original.height">2160</property>
  <property name="kdenlive:original.meta.media.sample_aspect_num">1</property>
  <property name="kdenlive:original.meta.media.sample_aspect_den">1</property>
  <property name="kdenlive:original.aspect_ratio">1</property>
  <property name="kdenlive:original.audio_index">-1</property>
  <property name="kdenlive:original.video_index">0</property>
  <property name="kdenlive:original.mute_on_pause">0</property>
  <property name="kdenlive:original.mlt_service">avformat-novalidate</property>
  <property name="kdenlive:original.kdenlive:folderid">126</property>
  <property name="kdenlive:original.meta.media.frame_rate_num">60</property>
  <property name="kdenlive:original.meta.media.frame_rate_den">1</property>
  <property name="kdenlive:original.meta.media.colorspace">709</property>
  <property name="kdenlive:original.meta.media.color_trc">2</property>
  <property name="kdenlive:original.meta.media.has_b_frames">2</property>
  <property name="kdenlive:original.meta.media.width">3840</property>
  <property name="kdenlive:original.meta.media.height">2160</property>
  <property name="kdenlive:original.meta.media.color_range">mpeg</property>
  <property name="kdenlive:original.kdenlive:id">133</property>
  <property name="kdenlive:original.kdenlive:file_size">202896</property>
  <property name="kdenlive:original.kdenlive:file_hash">c7e0649829666257492dd5c1b970eef9</property>
  <property name="kdenlive:original.backup">1</property>
  <property name="kdenlive:file_hash">c7e0649829666257492dd5c1b970eef9</property>
  <property name="xml">was here</property>
  <property name="meta.media.nb_streams">1</property>
  <property name="meta.media.0.stream.type">video</property>
  <property name="meta.media.0.stream.frame_rate">60</property>
  <property name="meta.media.0.stream.sample_aspect_ratio">0</property>
  <property name="meta.media.0.codec.width">640</property>
  <property name="meta.media.0.codec.height">360</property>
  <property name="meta.media.0.codec.rotate">0</property>
  <property name="meta.media.0.codec.pix_fmt">yuv420p</property>
  <property name="meta.media.0.codec.sample_aspect_ratio">0</property>
  <property name="meta.media.0.codec.colorspace">601</property>
  <property name="meta.media.0.codec.name">h264</property>
  <property name="meta.media.0.codec.long_name">H.264 / AVC / MPEG-4 AVC / MPEG-4 part 10</property>
  <property name="meta.media.0.codec.bit_rate">2597120</property>
  <property name="meta.attr.0.stream.handler_name.markup">VideoHandler</property>
  <property name="meta.attr.0.stream.vendor_id.markup">FFMP</property>
  <property name="meta.attr.0.stream.encoder.markup">Lavc58.134.100 libx264</property>
  <property name="meta.attr.major_brand.markup">qt  </property>
  <property name="meta.attr.minor_version.markup">512</property>
  <property name="meta.attr.compatible_brands.markup">qt  </property>
  <property name="meta.attr.encoder.markup">Lavf58.76.100</property>
  <property name="meta.attr.comment.markup">Rendered with Manim Community v0.12.0</property>
  <property name="meta.media.sample_aspect_num">1</property>
  <property name="meta.media.sample_aspect_den">1</property>
  <property name="meta.media.frame_rate_num">60</property>
  <property name="meta.media.frame_rate_den">1</property>
  <property name="meta.media.colorspace">601</property>
  <property name="meta.media.color_trc">2</property>
  <property name="meta.media.has_b_frames">0</property>
  <property name="meta.media.width">640</property>
  <property name="meta.media.height">360</property>
  <property name="meta.media.color_range">mpeg</property>
  <property name="set.test_audio">1</property>
  <property name="set.test_image">0</property>
  <property name="meta.media.top_field_first">0</property>
  <property name="meta.media.progressive">1</property>
 </producer>
 <producer id="producer543" in="00:00:00.000" out="00:16:39.983">
  <property name="length">60000</property>
  <property name="eof">pause</property>
  <property name="resource">0.001000:/home/xiaoxiae/.cache/kdenlive/proxy/c7e0649829666257492dd5c1b970eef9.mov</property>
  <property name="aspect_ratio">1</property>
  <property name="meta.media.nb_streams">1</property>
  <property name="meta.media.0.stream.type">video</property>
  <property name="meta.media.0.stream.frame_rate">60</property>
  <property name="meta.media.0.stream.sample_aspect_ratio">0</property>
  <property name="meta.media.0.codec.width">640</property>
  <property name="meta.media.0.codec.height">360</property>
  <property name="meta.media.0.codec.rotate">0</property>
  <property name="meta.media.0.codec.pix_fmt">yuv420p</property>
  <property name="meta.media.0.codec.sample_aspect_ratio">0</property>
  <property name="meta.media.0.codec.colorspace">601</property>
  <property name="meta.media.0.codec.name">h264</property>
  <property name="meta.media.0.codec.long_name">H.264 / AVC / MPEG-4 AVC / MPEG-4 part 10</property>
  <property name="meta.media.0.codec.bit_rate">2597120</property>
  <property name="meta.attr.0.stream.handler_name.markup">VideoHandler</property>
  <property name="meta.attr.0.stream.vendor_id.markup">FFMP</property>
  <property name="meta.attr.0.stream.encoder.markup">Lavc58.134.100 libx264</property>
  <property name="meta.attr.major_brand.markup">qt  </property>
  <property name="meta.attr.minor_version.markup">512</property>
  <property name="meta.attr.compatible_brands.markup">qt  </property>
  <property name="meta.attr.encoder.markup">Lavf58.76.100</property>
  <property name="meta.attr.comment.markup">Rendered with Manim Community v0.12.0</property>
  <property name="seekable">1</property>
  <property name="meta.media.sample_aspect_num">1</property>
  <property name="meta.media.sample_aspect_den">1</property>
  <property name="audio_index">-1</property>
  <property name="video_index">0</property>
  <property name="mute_on_pause">1</property>
  <property name="warp_speed">0.001</property>
  <property name="warp_resource">/home/xiaoxiae/.cache/kdenlive/proxy/c7e0649829666257492dd5c1b970eef9.mov</property>
  <property name="mlt_service">timewarp</property>
  <property name="kdenlive:proxy">/home/xiaoxiae/.cache/kdenlive/proxy/c7e0649829666257492dd5c1b970eef9.mov</property>
  <property name="kdenlive:originalurl">video/ComputationalPower/vid/15.mp4</property>
  <property name="set.test_audio">1</property>
  <property name="set.test_image">0</property>
  <property name="kdenlive:id">132</property>
  <property name="warp_pitch">0</property>
  <property name="meta.media.frame_rate_num">60</property>
  <property name="meta.media.frame_rate_den">1</property>
  <property name="meta.media.colorspace">601</property>
  <property name="meta.media.color_trc">2</property>
  <property name="meta.media.has_b_frames">0</property>
  <property name="meta.media.width">640</property>
  <property name="meta.media.height">360</property>
  <property name="meta.media.color_range">mpeg</property>
  <property name="meta.media.top_field_first">0</property>
  <property name="meta.media.progressive">1</property>
 </producer>
 <producer id="producer544" in="00:00:00.000" out="00:00:00.983">
  <property name="length">60</property>
  <property name="eof">pause</property>
  <property name="resource">/home/xiaoxiae/.cache/kdenlive/proxy/51c693276bcd937dc409779af0369cde.mov</property>
  <property name="audio_index">-1</property>
  <property name="video_index">0</property>
  <property name="mute_on_pause">0</property>
  <property name="mlt_service">avformat-novalidate</property>
  <property name="seekable">1</property>
  <property name="aspect_ratio">1</property>
  <property name="kdenlive:clipname">1.mp4</property>
  <property name="kdenlive:folderid">399</property>
  <property name="kdenlive:id">398</property>
  <property name="kdenlive:file_size">26152</property>
  <property name="kdenlive:proxy">/home/xiaoxiae/.cache/kdenlive/proxy/51c693276bcd937dc409779af0369cde.mov</property>
  <property name="kdenlive:originalurl">video/ToInfinity/vid/1.mp4</property>
  <property name="kdenlive:original.mlt_type">producer</property>
  <property name="kdenlive:original.in">0</property>
  <property name="kdenlive:original.out">59</property>
  <property name="kdenlive:original.length">60</property>
  <property name="kdenlive:original.eof">pause</property>
  <property name="kdenlive:original.resource">video/ToInfinity/vid/1.mp4</property>
  <property name="kdenlive:original.meta.media.nb_streams">1</property>
  <property name="kdenlive:original.meta.media.0.stream.type">video</property>
  <property name="kdenlive:original.meta.media.0.stream.frame_rate">60</property>
  <property name="kdenlive:original.meta.media.0.stream.sample_aspect_ratio">0</property>
  <property name="kdenlive:original.meta.media.0.codec.width">3840</property>
  <property name="kdenlive:original.meta.media.0.codec.height">2160</property>
  <property name="kdenlive:original.meta.media.0.codec.rotate">0</property>
  <property name="kdenlive:original.meta.media.0.codec.pix_fmt">yuv420p</property>
  <property name="kdenlive:original.meta.media.0.codec.sample_aspect_ratio">0</property>
  <property name="kdenlive:original.meta.media.0.codec.colorspace">709</property>
  <property name="kdenlive:original.meta.media.0.codec.name">h264</property>
  <property name="kdenlive:original.meta.media.0.codec.long_name">H.264 / AVC / MPEG-4 AVC / MPEG-4 part 10</property>
  <property name="kdenlive:original.meta.media.0.codec.bit_rate">196224</property>
  <property name="kdenlive:original.meta.attr.0.stream.handler_name.markup">VideoHandler</property>
  <property name="kdenlive:original.meta.attr.0.stream.vendor_id.markup">[0][0][0][0]</property>
  <property name="kdenlive:original.meta.attr.major_brand.markup">isom</property>
  <property name="kdenlive:original.meta.attr.minor_version.markup">512</property>
  <property name="kdenlive:original.meta.attr.compatible_brands.markup">isomiso2avc1mp41</property>
  <property name="kdenlive:original.meta.attr.encoder.markup">Lavf58.76.100</property>
  <property name="kdenlive:original.meta.attr.comment.markup">Rendered with Manim Community v0.12.0</property>
  <property name="kdenlive:original.seekable">1</property>
  <property name="kdenlive:original.width">3840</property>
  <property name="kdenlive:original.height">2160</property>
  <property name="kdenlive:original.meta.media.sample_aspect_num">1</property>
  <property name="kdenlive:original.meta.media.sample_aspect_den">1</property>
  <property name="kdenlive:original.aspect_ratio">1</property>
  <property name="kdenlive:original.audio_index">-1</property>
  <property name="kdenlive:original.video_index">0</property>
  <property name="kdenlive:original.mute_on_pause">0</property>
  <property name="kdenlive:original.mlt_service">avformat-novalidate</property>
  <property name="kdenlive:original.kdenlive:folderid">399</property>
  <property name="kdenlive:original.meta.media.frame_rate_num">60</property>
  <property name="kdenlive:original.meta.media.frame_rate_den">1</property>
  <property name="kdenlive:original.meta.media.colorspace">709</property>
  <property name="kdenlive:original.meta.media.color_trc">2</property>
  <property name="kdenlive:original.meta.media.has_b_frames">2</property>
  <property name="kdenlive:original.meta.media.width">3840</property>
  <property name="kdenlive:original.meta.media.height">2160</property>
  <property name="kdenlive:original.meta.media.color_range">mpeg</property>
  <property name="kdenlive:original.kdenlive:id">400</property>
  <property name="kdenlive:original.kdenlive:file_size">26152</property>
  <property name="kdenlive:original.kdenlive:file_hash">51c693276bcd937dc409779af0369cde</property>
  <property name="kdenlive:original.backup">1</property>
  <property name="kdenlive:file_hash">51c693276bcd937dc409779af0369cde</property>
  <property name="xml">was here</property>
  <property name="meta.media.nb_streams">1</property>
  <property name="meta.media.0.stream.type">video</property>
  <property name="meta.media.0.stream.frame_rate">60</property>
  <property name="meta.media.0.stream.sample_aspect_ratio">0</property>
  <property name="meta.media.0.codec.width">640</property>
  <property name="meta.media.0.codec.height">360</property>
  <property name="meta.media.0.codec.rotate">0</property>
  <property name="meta.media.0.codec.pix_fmt">yuv420p</property>
  <property name="meta.media.0.codec.sample_aspect_ratio">0</property>
  <property name="meta.media.0.codec.colorspace">601</property>
  <property name="meta.media.0.codec.name">h264</property>
  <property name="meta.media.0.codec.long_name">H.264 / AVC / MPEG-4 AVC / MPEG-4 part 10</property>
  <property name="meta.media.0.codec.bit_rate">106448</property>
  <property name="meta.attr.0.stream.handler_name.markup">VideoHandler</property>
  <property name="meta.attr.0.stream.vendor_id.markup">FFMP</property>
  <property name="meta.attr.0.stream.encoder.markup">Lavc58.134.100 libx264</property>
  <property name="meta.attr.major_brand.markup">qt  </property>
  <property name="meta.attr.minor_version.markup">512</property>
  <property name="meta.attr.compatible_brands.markup">qt  </property>
  <property name="meta.attr.encoder.markup">Lavf58.76.100</property>
  <property name="meta.attr.comment.markup">Rendered with Manim Community v0.12.0</property>
  <property name="meta.media.sample_aspect_num">1</property>
  <property name="meta.media.sample_aspect_den">1</property>
  <property name="meta.media.frame_rate_num">60</property>
  <property name="meta.media.frame_rate_den">1</property>
  <property name="meta.media.colorspace">601</property>
  <property name="meta.media.color_trc">2</property>
  <property name="meta.media.has_b_frames">0</property>
  <property name="meta.media.width">640</property>
  <property name="meta.media.height">360</property>
  <property name="meta.media.color_range">mpeg</property>
  <property name="set.test_audio">1</property>
  <property name="set.test_image">0</property>
 </producer>
 <producer id="producer545" in="00:00:00.000" out="00:00:01.383">
  <property name="length">84</property>
  <property name="eof">pause</property>
  <property name="resource">/home/xiaoxiae/.cache/kdenlive/proxy/5e4abef1b7141d6ccf5a29ecaf8c22cd.mov</property>
  <property name="audio_index">-1</property>
  <property name="video_index">0</property>
  <property name="mute_on_pause">0</property>
  <property name="mlt_service">avformat-novalidate</property>
  <property name="seekable">1</property>
  <property name="aspect_ratio">1</property>
  <property name="kdenlive:clipname">2.mp4</property>
  <property name="kdenlive:folderid">399</property>
  <property name="kdenlive:file_size">67969</property>
  <property name="kdenlive:id">405</property>
  <property name="kdenlive:proxy">/home/xiaoxiae/.cache/kdenlive/proxy/5e4abef1b7141d6ccf5a29ecaf8c22cd.mov</property>
  <property name="kdenlive:originalurl">video/ToInfinity/vid/2.mp4</property>
  <property name="kdenlive:original.mlt_type">producer</property>
  <property name="kdenlive:original.in">0</property>
  <property name="kdenlive:original.out">83</property>
  <property name="kdenlive:original.length">84</property>
  <property name="kdenlive:original.eof">pause</property>
  <property name="kdenlive:original.resource">video/ToInfinity/vid/2.mp4</property>
  <property name="kdenlive:original.meta.media.nb_streams">1</property>
  <property name="kdenlive:original.meta.media.0.stream.type">video</property>
  <property name="kdenlive:original.meta.media.0.stream.frame_rate">60</property>
  <property name="kdenlive:original.meta.media.0.stream.sample_aspect_ratio">0</property>
  <property name="kdenlive:original.meta.media.0.codec.width">3840</property>
  <property name="kdenlive:original.meta.media.0.codec.height">2160</property>
  <property name="kdenlive:original.meta.media.0.codec.rotate">0</property>
  <property name="kdenlive:original.meta.media.0.codec.pix_fmt">yuv420p</property>
  <property name="kdenlive:original.meta.media.0.codec.sample_aspect_ratio">0</property>
  <property name="kdenlive:original.meta.media.0.codec.colorspace">709</property>
  <property name="kdenlive:original.meta.media.0.codec.name">h264</property>
  <property name="kdenlive:original.meta.media.0.codec.long_name">H.264 / AVC / MPEG-4 AVC / MPEG-4 part 10</property>
  <property name="kdenlive:original.meta.media.0.codec.bit_rate">377651</property>
  <property name="kdenlive:original.meta.attr.0.stream.handler_name.markup">VideoHandler</property>
  <property name="kdenlive:original.meta.attr.0.stream.vendor_id.markup">[0][0][0][0]</property>
  <property name="kdenlive:original.meta.attr.major_brand.markup">isom</property>
  <property name="kdenlive:original.meta.attr.minor_version.markup">512</property>
  <property name="kdenlive:original.meta.attr.compatible_brands.markup">isomiso2avc1mp41</property>
  <property name="kdenlive:original.meta.attr.encoder.markup">Lavf58.76.100</property>
  <property name="kdenlive:original.meta.attr.comment.markup">Rendered with Manim Community v0.12.0</property>
  <property name="kdenlive:original.seekable">1</property>
  <property name="kdenlive:original.width">3840</property>
  <property name="kdenlive:original.height">2160</property>
  <property name="kdenlive:original.meta.media.sample_aspect_num">1</property>
  <property name="kdenlive:original.meta.media.sample_aspect_den">1</property>
  <property name="kdenlive:original.aspect_ratio">1</property>
  <property name="kdenlive:original.audio_index">-1</property>
  <property name="kdenlive:original.video_index">0</property>
  <property name="kdenlive:original.mute_on_pause">0</property>
  <property name="kdenlive:original.mlt_service">avformat-novalidate</property>
  <property name="kdenlive:original.kdenlive:folderid">399</property>
  <property name="kdenlive:original.meta.media.frame_rate_num">60</property>
  <property name="kdenlive:original.meta.media.frame_rate_den">1</property>
  <property name="kdenlive:original.meta.media.colorspace">709</property>
  <property name="kdenlive:original.meta.media.color_trc">2</property>
  <property name="kdenlive:original.meta.media.has_b_frames">2</property>
  <property name="kdenlive:original.meta.media.width">3840</property>
  <property name="kdenlive:original.meta.media.height">2160</property>
  <property name="kdenlive:original.meta.media.color_range">mpeg</property>
  <property name="kdenlive:original.kdenlive:file_size">67969</property>
  <property name="kdenlive:original.kdenlive:id">406</property>
  <property name="kdenlive:original.kdenlive:file_hash">5e4abef1b7141d6ccf5a29ecaf8c22cd</property>
  <property name="kdenlive:original.backup">1</property>
  <property name="kdenlive:file_hash">5e4abef1b7141d6ccf5a29ecaf8c22cd</property>
  <property name="xml">was here</property>
  <property name="meta.media.nb_streams">1</property>
  <property name="meta.media.0.stream.type">video</property>
  <property name="meta.media.0.stream.frame_rate">60</property>
  <property name="meta.media.0.stream.sample_aspect_ratio">0</property>
  <property name="meta.media.0.codec.width">640</property>
  <property name="meta.media.0.codec.height">360</property>
  <property name="meta.media.0.codec.rotate">0</property>
  <property name="meta.media.0.codec.pix_fmt">yuv420p</property>
  <property name="meta.media.0.codec.sample_aspect_ratio">0</property>
  <property name="meta.media.0.codec.colorspace">601</property>
  <property name="meta.media.0.codec.name">h264</property>
  <property name="meta.media.0.codec.long_name">H.264 / AVC / MPEG-4 AVC / MPEG-4 part 10</property>
  <property name="meta.media.0.codec.bit_rate">683188</property>
  <property name="meta.attr.0.stream.handler_name.markup">VideoHandler</property>
  <property name="meta.attr.0.stream.vendor_id.markup">FFMP</property>
  <property name="meta.attr.0.stream.encoder.markup">Lavc58.134.100 libx264</property>
  <property name="meta.attr.major_brand.markup">qt  </property>
  <property name="meta.attr.minor_version.markup">512</property>
  <property name="meta.attr.compatible_brands.markup">qt  </property>
  <property name="meta.attr.encoder.markup">Lavf58.76.100</property>
  <property name="meta.attr.comment.markup">Rendered with Manim Community v0.12.0</property>
  <property name="meta.media.sample_aspect_num">1</property>
  <property name="meta.media.sample_aspect_den">1</property>
  <property name="meta.media.frame_rate_num">60</property>
  <property name="meta.media.frame_rate_den">1</property>
  <property name="meta.media.colorspace">601</property>
  <property name="meta.media.color_trc">2</property>
  <property name="meta.media.has_b_frames">0</property>
  <property name="meta.media.width">640</property>
  <property name="meta.media.height">360</property>
  <property name="meta.media.color_range">mpeg</property>
  <property name="set.test_audio">1</property>
  <property name="set.test_image">0</property>
 </producer>
 <producer id="producer546" in="00:00:00.000" out="00:00:01.983">
  <property name="length">120</property>
  <property name="eof">pause</property>
  <property name="resource">/home/xiaoxiae/.cache/kdenlive/proxy/e787f5c90876a6ab5f8f35808fa8ba3d.mov</property>
  <property name="audio_index">-1</property>
  <property name="video_index">0</property>
  <property name="mute_on_pause">0</property>
  <property name="mlt_service">avformat-novalidate</property>
  <property name="seekable">1</property>
  <property name="aspect_ratio">1</property>
  <property name="kdenlive:clipname">3.mp4</property>
  <property name="kdenlive:folderid">399</property>
  <property name="kdenlive:id">406</property>
  <property name="kdenlive:file_size">101152</property>
  <property name="kdenlive:proxy">/home/xiaoxiae/.cache/kdenlive/proxy/e787f5c90876a6ab5f8f35808fa8ba3d.mov</property>
  <property name="kdenlive:originalurl">video/ToInfinity/vid/3.mp4</property>
  <property name="kdenlive:original.mlt_type">producer</property>
  <property name="kdenlive:original.in">0</property>
  <property name="kdenlive:original.out">119</property>
  <property name="kdenlive:original.length">120</property>
  <property name="kdenlive:original.eof">pause</property>
  <property name="kdenlive:original.resource">video/ToInfinity/vid/3.mp4</property>
  <property name="kdenlive:original.meta.media.nb_streams">1</property>
  <property name="kdenlive:original.meta.media.0.stream.type">video</property>
  <property name="kdenlive:original.meta.media.0.stream.frame_rate">60</property>
  <property name="kdenlive:original.meta.media.0.stream.sample_aspect_ratio">0</property>
  <property name="kdenlive:original.meta.media.0.codec.width">3840</property>
  <property name="kdenlive:original.meta.media.0.codec.height">2160</property>
  <property name="kdenlive:original.meta.media.0.codec.rotate">0</property>
  <property name="kdenlive:original.meta.media.0.codec.pix_fmt">yuv420p</property>
  <property name="kdenlive:original.meta.media.0.codec.sample_aspect_ratio">0</property>
  <property name="kdenlive:original.meta.media.0.codec.colorspace">709</property>
  <property name="kdenlive:original.meta.media.0.codec.name">h264</property>
  <property name="kdenlive:original.meta.media.0.codec.long_name">H.264 / AVC / MPEG-4 AVC / MPEG-4 part 10</property>
  <property name="kdenlive:original.meta.media.0.codec.bit_rate">395488</property>
  <property name="kdenlive:original.meta.attr.0.stream.handler_name.markup">VideoHandler</property>
  <property name="kdenlive:original.meta.attr.0.stream.vendor_id.markup">[0][0][0][0]</property>
  <property name="kdenlive:original.meta.attr.major_brand.markup">isom</property>
  <property name="kdenlive:original.meta.attr.minor_version.markup">512</property>
  <property name="kdenlive:original.meta.attr.compatible_brands.markup">isomiso2avc1mp41</property>
  <property name="kdenlive:original.meta.attr.encoder.markup">Lavf58.76.100</property>
  <property name="kdenlive:original.meta.attr.comment.markup">Rendered with Manim Community v0.12.0</property>
  <property name="kdenlive:original.seekable">1</property>
  <property name="kdenlive:original.width">3840</property>
  <property name="kdenlive:original.height">2160</property>
  <property name="kdenlive:original.meta.media.sample_aspect_num">1</property>
  <property name="kdenlive:original.meta.media.sample_aspect_den">1</property>
  <property name="kdenlive:original.aspect_ratio">1</property>
  <property name="kdenlive:original.audio_index">-1</property>
  <property name="kdenlive:original.video_index">0</property>
  <property name="kdenlive:original.mute_on_pause">0</property>
  <property name="kdenlive:original.mlt_service">avformat-novalidate</property>
  <property name="kdenlive:original.kdenlive:folderid">399</property>
  <property name="kdenlive:original.meta.media.frame_rate_num">60</property>
  <property name="kdenlive:original.meta.media.frame_rate_den">1</property>
  <property name="kdenlive:original.meta.media.colorspace">709</property>
  <property name="kdenlive:original.meta.media.color_trc">2</property>
  <property name="kdenlive:original.meta.media.has_b_frames">2</property>
  <property name="kdenlive:original.meta.media.width">3840</property>
  <property name="kdenlive:original.meta.media.height">2160</property>
  <property name="kdenlive:original.meta.media.color_range">mpeg</property>
  <property name="kdenlive:original.kdenlive:id">407</property>
  <property name="kdenlive:original.kdenlive:file_size">101152</property>
  <property name="kdenlive:original.kdenlive:file_hash">e787f5c90876a6ab5f8f35808fa8ba3d</property>
  <property name="kdenlive:original.backup">1</property>
  <property name="kdenlive:file_hash">e787f5c90876a6ab5f8f35808fa8ba3d</property>
  <property name="xml">was here</property>
  <property name="meta.media.nb_streams">1</property>
  <property name="meta.media.0.stream.type">video</property>
  <property name="meta.media.0.stream.frame_rate">60</property>
  <property name="meta.media.0.stream.sample_aspect_ratio">0</property>
  <property name="meta.media.0.codec.width">640</property>
  <property name="meta.media.0.codec.height">360</property>
  <property name="meta.media.0.codec.rotate">0</property>
  <property name="meta.media.0.codec.pix_fmt">yuv420p</property>
  <property name="meta.media.0.codec.sample_aspect_ratio">0</property>
  <property name="meta.media.0.codec.colorspace">601</property>
  <property name="meta.media.0.codec.name">h264</property>
  <property name="meta.media.0.codec.long_name">H.264 / AVC / MPEG-4 AVC / MPEG-4 part 10</property>
  <property name="meta.media.0.codec.bit_rate">1540732</property>
  <property name="meta.attr.0.stream.handler_name.markup">VideoHandler</property>
  <property name="meta.attr.0.stream.vendor_id.markup">FFMP</property>
  <property name="meta.attr.0.stream.encoder.markup">Lavc58.134.100 libx264</property>
  <property name="meta.attr.major_brand.markup">qt  </property>
  <property name="meta.attr.minor_version.markup">512</property>
  <property name="meta.attr.compatible_brands.markup">qt  </property>
  <property name="meta.attr.encoder.markup">Lavf58.76.100</property>
  <property name="meta.attr.comment.markup">Rendered with Manim Community v0.12.0</property>
  <property name="meta.media.sample_aspect_num">1</property>
  <property name="meta.media.sample_aspect_den">1</property>
  <property name="meta.media.frame_rate_num">60</property>
  <property name="meta.media.frame_rate_den">1</property>
  <property name="meta.media.colorspace">601</property>
  <property name="meta.media.color_trc">2</property>
  <property name="meta.media.has_b_frames">0</property>
  <property name="meta.media.width">640</property>
  <property name="meta.media.height">360</property>
  <property name="meta.media.color_range">mpeg</property>
  <property name="set.test_audio">1</property>
  <property name="set.test_image">0</property>
 </producer>
 <producer id="producer547" in="00:00:00.000" out="00:00:00.983">
  <property name="length">60</property>
  <property name="eof">pause</property>
  <property name="resource">/home/xiaoxiae/.cache/kdenlive/proxy/558bc8ce70be3c7b6768c64514faa21d.mov</property>
  <property name="audio_index">-1</property>
  <property name="video_index">0</property>
  <property name="mute_on_pause">0</property>
  <property name="mlt_service">avformat-novalidate</property>
  <property name="seekable">1</property>
  <property name="aspect_ratio">1</property>
  <property name="kdenlive:clipname">4.mp4</property>
  <property name="kdenlive:folderid">399</property>
  <property name="kdenlive:id">407</property>
  <property name="kdenlive:file_size">60869</property>
  <property name="kdenlive:proxy">/home/xiaoxiae/.cache/kdenlive/proxy/558bc8ce70be3c7b6768c64514faa21d.mov</property>
  <property name="kdenlive:originalurl">video/ToInfinity/vid/4.mp4</property>
  <property name="kdenlive:original.mlt_type">producer</property>
  <property name="kdenlive:original.in">0</property>
  <property name="kdenlive:original.out">59</property>
  <property name="kdenlive:original.length">60</property>
  <property name="kdenlive:original.eof">pause</property>
  <property name="kdenlive:original.resource">video/ToInfinity/vid/4.mp4</property>
  <property name="kdenlive:original.meta.media.nb_streams">1</property>
  <property name="kdenlive:original.meta.media.0.stream.type">video</property>
  <property name="kdenlive:original.meta.media.0.stream.frame_rate">60</property>
  <property name="kdenlive:original.meta.media.0.stream.sample_aspect_ratio">0</property>
  <property name="kdenlive:original.meta.media.0.codec.width">3840</property>
  <property name="kdenlive:original.meta.media.0.codec.height">2160</property>
  <property name="kdenlive:original.meta.media.0.codec.rotate">0</property>
  <property name="kdenlive:original.meta.media.0.codec.pix_fmt">yuv420p</property>
  <property name="kdenlive:original.meta.media.0.codec.sample_aspect_ratio">0</property>
  <property name="kdenlive:original.meta.media.0.codec.colorspace">709</property>
  <property name="kdenlive:original.meta.media.0.codec.name">h264</property>
  <property name="kdenlive:original.meta.media.0.codec.long_name">H.264 / AVC / MPEG-4 AVC / MPEG-4 part 10</property>
  <property name="kdenlive:original.meta.media.0.codec.bit_rate">474344</property>
  <property name="kdenlive:original.meta.attr.0.stream.handler_name.markup">VideoHandler</property>
  <property name="kdenlive:original.meta.attr.0.stream.vendor_id.markup">[0][0][0][0]</property>
  <property name="kdenlive:original.meta.attr.major_brand.markup">isom</property>
  <property name="kdenlive:original.meta.attr.minor_version.markup">512</property>
  <property name="kdenlive:original.meta.attr.compatible_brands.markup">isomiso2avc1mp41</property>
  <property name="kdenlive:original.meta.attr.encoder.markup">Lavf58.76.100</property>
  <property name="kdenlive:original.meta.attr.comment.markup">Rendered with Manim Community v0.12.0</property>
  <property name="kdenlive:original.seekable">1</property>
  <property name="kdenlive:original.width">3840</property>
  <property name="kdenlive:original.height">2160</property>
  <property name="kdenlive:original.meta.media.sample_aspect_num">1</property>
  <property name="kdenlive:original.meta.media.sample_aspect_den">1</property>
  <property name="kdenlive:original.aspect_ratio">1</property>
  <property name="kdenlive:original.audio_index">-1</property>
  <property name="kdenlive:original.video_index">0</property>
  <property name="kdenlive:original.mute_on_pause">0</property>
  <property name="kdenlive:original.mlt_service">avformat-novalidate</property>
  <property name="kdenlive:original.kdenlive:folderid">399</property>
  <property name="kdenlive:original.meta.media.frame_rate_num">60</property>
  <property name="kdenlive:original.meta.media.frame_rate_den">1</property>
  <property name="kdenlive:original.meta.media.colorspace">709</property>
  <property name="kdenlive:original.meta.media.color_trc">2</property>
  <property name="kdenlive:original.meta.media.has_b_frames">2</property>
  <property name="kdenlive:original.meta.media.width">3840</property>
  <property name="kdenlive:original.meta.media.height">2160</property>
  <property name="kdenlive:original.meta.media.color_range">mpeg</property>
  <property name="kdenlive:original.kdenlive:id">408</property>
  <property name="kdenlive:original.kdenlive:file_size">60869</property>
  <property name="kdenlive:original.kdenlive:file_hash">558bc8ce70be3c7b6768c64514faa21d</property>
  <property name="kdenlive:original.backup">1</property>
  <property name="kdenlive:file_hash">558bc8ce70be3c7b6768c64514faa21d</property>
  <property name="xml">was here</property>
  <property name="meta.media.nb_streams">1</property>
  <property name="meta.media.0.stream.type">video</property>
  <property name="meta.media.0.stream.frame_rate">60</property>
  <property name="meta.media.0.stream.sample_aspect_ratio">0</property>
  <property name="meta.media.0.codec.width">640</property>
  <property name="meta.media.0.codec.height">360</property>
  <property name="meta.media.0.codec.rotate">0</property>
  <property name="meta.media.0.codec.pix_fmt">yuv420p</property>
  <property name="meta.media.0.codec.sample_aspect_ratio">0</property>
  <property name="meta.media.0.codec.colorspace">601</property>
  <property name="meta.media.0.codec.name">h264</property>
  <property name="meta.media.0.codec.long_name">H.264 / AVC / MPEG-4 AVC / MPEG-4 part 10</property>
  <property name="meta.media.0.codec.bit_rate">1457344</property>
  <property name="meta.attr.0.stream.handler_name.markup">VideoHandler</property>
  <property name="meta.attr.0.stream.vendor_id.markup">FFMP</property>
  <property name="meta.attr.0.stream.encoder.markup">Lavc58.134.100 libx264</property>
  <property name="meta.attr.major_brand.markup">qt  </property>
  <property name="meta.attr.minor_version.markup">512</property>
  <property name="meta.attr.compatible_brands.markup">qt  </property>
  <property name="meta.attr.encoder.markup">Lavf58.76.100</property>
  <property name="meta.attr.comment.markup">Rendered with Manim Community v0.12.0</property>
  <property name="meta.media.sample_aspect_num">1</property>
  <property name="meta.media.sample_aspect_den">1</property>
  <property name="meta.media.frame_rate_num">60</property>
  <property name="meta.media.frame_rate_den">1</property>
  <property name="meta.media.colorspace">601</property>
  <property name="meta.media.color_trc">2</property>
  <property name="meta.media.has_b_frames">0</property>
  <property name="meta.media.width">640</property>
  <property name="meta.media.height">360</property>
  <property name="meta.media.color_range">mpeg</property>
  <property name="set.test_audio">1</property>
  <property name="set.test_image">0</property>
  <property name="meta.media.top_field_first">0</property>
  <property name="meta.media.progressive">1</property>
 </producer>
 <producer id="producer548" in="00:00:00.000" out="00:00:01.483">
  <property name="length">90</property>
  <property name="eof">pause</property>
  <property name="resource">/home/xiaoxiae/.cache/kdenlive/proxy/f675638f47996ba8709c7bdfedf1aee4.mov</property>
  <property name="audio_index">-1</property>
  <property name="video_index">0</property>
  <property name="mute_on_pause">0</property>
  <property name="mlt_service">avformat-novalidate</property>
  <property name="seekable">1</property>
  <property name="aspect_ratio">1</property>
  <property name="kdenlive:clipname">5.mp4</property>
  <property name="kdenlive:folderid">399</property>
  <property name="kdenlive:file_size">125234</property>
  <property name="kdenlive:id">408</property>
  <property name="kdenlive:proxy">/home/xiaoxiae/.cache/kdenlive/proxy/f675638f47996ba8709c7bdfedf1aee4.mov</property>
  <property name="kdenlive:originalurl">video/ToInfinity/vid/5.mp4</property>
  <property name="kdenlive:original.mlt_type">producer</property>
  <property name="kdenlive:original.in">0</property>
  <property name="kdenlive:original.out">89</property>
  <property name="kdenlive:original.length">90</property>
  <property name="kdenlive:original.eof">pause</property>
  <property name="kdenlive:original.resource">video/ToInfinity/vid/5.mp4</property>
  <property name="kdenlive:original.meta.media.nb_streams">1</property>
  <property name="kdenlive:original.meta.media.0.stream.type">video</property>
  <property name="kdenlive:original.meta.media.0.stream.frame_rate">60</property>
  <property name="kdenlive:original.meta.media.0.stream.sample_aspect_ratio">0</property>
  <property name="kdenlive:original.meta.media.0.codec.width">3840</property>
  <property name="kdenlive:original.meta.media.0.codec.height">2160</property>
  <property name="kdenlive:original.meta.media.0.codec.rotate">0</property>
  <property name="kdenlive:original.meta.media.0.codec.pix_fmt">yuv420p</property>
  <property name="kdenlive:original.meta.media.0.codec.sample_aspect_ratio">0</property>
  <property name="kdenlive:original.meta.media.0.codec.colorspace">709</property>
  <property name="kdenlive:original.meta.media.0.codec.name">h264</property>
  <property name="kdenlive:original.meta.media.0.codec.long_name">H.264 / AVC / MPEG-4 AVC / MPEG-4 part 10</property>
  <property name="kdenlive:original.meta.media.0.codec.bit_rate">657248</property>
  <property name="kdenlive:original.meta.attr.0.stream.handler_name.markup">VideoHandler</property>
  <property name="kdenlive:original.meta.attr.0.stream.vendor_id.markup">[0][0][0][0]</property>
  <property name="kdenlive:original.meta.attr.major_brand.markup">isom</property>
  <property name="kdenlive:original.meta.attr.minor_version.markup">512</property>
  <property name="kdenlive:original.meta.attr.compatible_brands.markup">isomiso2avc1mp41</property>
  <property name="kdenlive:original.meta.attr.encoder.markup">Lavf58.76.100</property>
  <property name="kdenlive:original.meta.attr.comment.markup">Rendered with Manim Community v0.12.0</property>
  <property name="kdenlive:original.seekable">1</property>
  <property name="kdenlive:original.width">3840</property>
  <property name="kdenlive:original.height">2160</property>
  <property name="kdenlive:original.meta.media.sample_aspect_num">1</property>
  <property name="kdenlive:original.meta.media.sample_aspect_den">1</property>
  <property name="kdenlive:original.aspect_ratio">1</property>
  <property name="kdenlive:original.audio_index">-1</property>
  <property name="kdenlive:original.video_index">0</property>
  <property name="kdenlive:original.mute_on_pause">0</property>
  <property name="kdenlive:original.mlt_service">avformat-novalidate</property>
  <property name="kdenlive:original.kdenlive:folderid">399</property>
  <property name="kdenlive:original.kdenlive:file_size">125234</property>
  <property name="kdenlive:original.meta.media.frame_rate_num">60</property>
  <property name="kdenlive:original.meta.media.frame_rate_den">1</property>
  <property name="kdenlive:original.meta.media.colorspace">709</property>
  <property name="kdenlive:original.meta.media.color_trc">2</property>
  <property name="kdenlive:original.meta.media.has_b_frames">2</property>
  <property name="kdenlive:original.meta.media.width">3840</property>
  <property name="kdenlive:original.meta.media.height">2160</property>
  <property name="kdenlive:original.meta.media.color_range">mpeg</property>
  <property name="kdenlive:original.kdenlive:id">409</property>
  <property name="kdenlive:original.kdenlive:file_hash">f675638f47996ba8709c7bdfedf1aee4</property>
  <property name="kdenlive:original.backup">1</property>
  <property name="kdenlive:file_hash">f675638f47996ba8709c7bdfedf1aee4</property>
  <property name="xml">was here</property>
  <property name="meta.media.nb_streams">1</property>
  <property name="meta.media.0.stream.type">video</property>
  <property name="meta.media.0.stream.frame_rate">60</property>
  <property name="meta.media.0.stream.sample_aspect_ratio">0</property>
  <property name="meta.media.0.codec.width">640</property>
  <property name="meta.media.0.codec.height">360</property>
  <property name="meta.media.0.codec.rotate">0</property>
  <property name="meta.media.0.codec.pix_fmt">yuv420p</property>
  <property name="meta.media.0.codec.sample_aspect_ratio">0</property>
  <property name="meta.media.0.codec.colorspace">601</property>
  <property name="meta.media.0.codec.name">h264</property>
  <property name="meta.media.0.codec.long_name">H.264 / AVC / MPEG-4 AVC / MPEG-4 part 10</property>
  <property name="meta.media.0.codec.bit_rate">1507050</property>
  <property name="meta.attr.0.stream.handler_name.markup">VideoHandler</property>
  <property name="meta.attr.0.stream.vendor_id.markup">FFMP</property>
  <property name="meta.attr.0.stream.encoder.markup">Lavc58.134.100 libx264</property>
  <property name="meta.attr.major_brand.markup">qt  </property>
  <property name="meta.attr.minor_version.markup">512</property>
  <property name="meta.attr.compatible_brands.markup">qt  </property>
  <property name="meta.attr.encoder.markup">Lavf58.76.100</property>
  <property name="meta.attr.comment.markup">Rendered with Manim Community v0.12.0</property>
  <property name="meta.media.sample_aspect_num">1</property>
  <property name="meta.media.sample_aspect_den">1</property>
  <property name="meta.media.frame_rate_num">60</property>
  <property name="meta.media.frame_rate_den">1</property>
  <property name="meta.media.colorspace">601</property>
  <property name="meta.media.color_trc">2</property>
  <property name="meta.media.has_b_frames">0</property>
  <property name="meta.media.width">640</property>
  <property name="meta.media.height">360</property>
  <property name="meta.media.color_range">mpeg</property>
  <property name="set.test_audio">1</property>
  <property name="set.test_image">0</property>
  <property name="meta.media.top_field_first">0</property>
  <property name="meta.media.progressive">1</property>
 </producer>
 <producer id="producer549" in="00:00:00.000" out="00:00:01.483">
  <property name="length">90</property>
  <property name="eof">pause</property>
  <property name="resource">/home/xiaoxiae/.cache/kdenlive/proxy/e8a5fe5747ec48f61da5ee07cd44456c.mov</property>
  <property name="audio_index">-1</property>
  <property name="video_index">0</property>
  <property name="mute_on_pause">0</property>
  <property name="mlt_service">avformat-novalidate</property>
  <property name="seekable">1</property>
  <property name="aspect_ratio">1</property>
  <property name="kdenlive:clipname">6.mp4</property>
  <property name="kdenlive:folderid">399</property>
  <property name="kdenlive:id">409</property>
  <property name="kdenlive:file_size">153998</property>
  <property name="kdenlive:proxy">/home/xiaoxiae/.cache/kdenlive/proxy/e8a5fe5747ec48f61da5ee07cd44456c.mov</property>
  <property name="kdenlive:originalurl">video/ToInfinity/vid/6.mp4</property>
  <property name="kdenlive:original.mlt_type">producer</property>
  <property name="kdenlive:original.in">0</property>
  <property name="kdenlive:original.out">89</property>
  <property name="kdenlive:original.length">90</property>
  <property name="kdenlive:original.eof">pause</property>
  <property name="kdenlive:original.resource">video/ToInfinity/vid/6.mp4</property>
  <property name="kdenlive:original.meta.media.nb_streams">1</property>
  <property name="kdenlive:original.meta.media.0.stream.type">video</property>
  <property name="kdenlive:original.meta.media.0.stream.frame_rate">60</property>
  <property name="kdenlive:original.meta.media.0.stream.sample_aspect_ratio">0</property>
  <property name="kdenlive:original.meta.media.0.codec.width">3840</property>
  <property name="kdenlive:original.meta.media.0.codec.height">2160</property>
  <property name="kdenlive:original.meta.media.0.codec.rotate">0</property>
  <property name="kdenlive:original.meta.media.0.codec.pix_fmt">yuv420p</property>
  <property name="kdenlive:original.meta.media.0.codec.sample_aspect_ratio">0</property>
  <property name="kdenlive:original.meta.media.0.codec.colorspace">709</property>
  <property name="kdenlive:original.meta.media.0.codec.name">h264</property>
  <property name="kdenlive:original.meta.media.0.codec.long_name">H.264 / AVC / MPEG-4 AVC / MPEG-4 part 10</property>
  <property name="kdenlive:original.meta.media.0.codec.bit_rate">810656</property>
  <property name="kdenlive:original.meta.attr.0.stream.handler_name.markup">VideoHandler</property>
  <property name="kdenlive:original.meta.attr.0.stream.vendor_id.markup">[0][0][0][0]</property>
  <property name="kdenlive:original.meta.attr.major_brand.markup">isom</property>
  <property name="kdenlive:original.meta.attr.minor_version.markup">512</property>
  <property name="kdenlive:original.meta.attr.compatible_brands.markup">isomiso2avc1mp41</property>
  <property name="kdenlive:original.meta.attr.encoder.markup">Lavf58.76.100</property>
  <property name="kdenlive:original.meta.attr.comment.markup">Rendered with Manim Community v0.12.0</property>
  <property name="kdenlive:original.seekable">1</property>
  <property name="kdenlive:original.width">3840</property>
  <property name="kdenlive:original.height">2160</property>
  <property name="kdenlive:original.meta.media.sample_aspect_num">1</property>
  <property name="kdenlive:original.meta.media.sample_aspect_den">1</property>
  <property name="kdenlive:original.aspect_ratio">1</property>
  <property name="kdenlive:original.audio_index">-1</property>
  <property name="kdenlive:original.video_index">0</property>
  <property name="kdenlive:original.mute_on_pause">0</property>
  <property name="kdenlive:original.mlt_service">avformat-novalidate</property>
  <property name="kdenlive:original.kdenlive:folderid">399</property>
  <property name="kdenlive:original.meta.media.frame_rate_num">60</property>
  <property name="kdenlive:original.meta.media.frame_rate_den">1</property>
  <property name="kdenlive:original.meta.media.colorspace">709</property>
  <property name="kdenlive:original.meta.media.color_trc">2</property>
  <property name="kdenlive:original.meta.media.has_b_frames">2</property>
  <property name="kdenlive:original.meta.media.width">3840</property>
  <property name="kdenlive:original.meta.media.height">2160</property>
  <property name="kdenlive:original.meta.media.color_range">mpeg</property>
  <property name="kdenlive:original.kdenlive:id">410</property>
  <property name="kdenlive:original.kdenlive:file_size">153998</property>
  <property name="kdenlive:original.kdenlive:file_hash">e8a5fe5747ec48f61da5ee07cd44456c</property>
  <property name="kdenlive:original.backup">1</property>
  <property name="kdenlive:file_hash">e8a5fe5747ec48f61da5ee07cd44456c</property>
  <property name="xml">was here</property>
  <property name="meta.media.nb_streams">1</property>
  <property name="meta.media.0.stream.type">video</property>
  <property name="meta.media.0.stream.frame_rate">60</property>
  <property name="meta.media.0.stream.sample_aspect_ratio">0</property>
  <property name="meta.media.0.codec.width">640</property>
  <property name="meta.media.0.codec.height">360</property>
  <property name="meta.media.0.codec.rotate">0</property>
  <property name="meta.media.0.codec.pix_fmt">yuv420p</property>
  <property name="meta.media.0.codec.sample_aspect_ratio">0</property>
  <property name="meta.media.0.codec.colorspace">601</property>
  <property name="meta.media.0.codec.name">h264</property>
  <property name="meta.media.0.codec.long_name">H.264 / AVC / MPEG-4 AVC / MPEG-4 part 10</property>
  <property name="meta.media.0.codec.bit_rate">2508858</property>
  <property name="meta.attr.0.stream.handler_name.markup">VideoHandler</property>
  <property name="meta.attr.0.stream.vendor_id.markup">FFMP</property>
  <property name="meta.attr.0.stream.encoder.markup">Lavc58.134.100 libx264</property>
  <property name="meta.attr.major_brand.markup">qt  </property>
  <property name="meta.attr.minor_version.markup">512</property>
  <property name="meta.attr.compatible_brands.markup">qt  </property>
  <property name="meta.attr.encoder.markup">Lavf58.76.100</property>
  <property name="meta.attr.comment.markup">Rendered with Manim Community v0.12.0</property>
  <property name="meta.media.sample_aspect_num">1</property>
  <property name="meta.media.sample_aspect_den">1</property>
  <property name="meta.media.frame_rate_num">60</property>
  <property name="meta.media.frame_rate_den">1</property>
  <property name="meta.media.colorspace">601</property>
  <property name="meta.media.color_trc">2</property>
  <property name="meta.media.has_b_frames">0</property>
  <property name="meta.media.width">640</property>
  <property name="meta.media.height">360</property>
  <property name="meta.media.color_range">mpeg</property>
  <property name="set.test_audio">1</property>
  <property name="set.test_image">0</property>
  <property name="meta.media.top_field_first">0</property>
  <property name="meta.media.progressive">1</property>
 </producer>
 <producer id="producer550" in="00:00:00.000" out="00:00:00.983">
  <property name="length">60</property>
  <property name="eof">pause</property>
  <property name="resource">/home/xiaoxiae/.cache/kdenlive/proxy/3351b8d5ed02b4b2b7ab33dc41061d4b.mov</property>
  <property name="audio_index">-1</property>
  <property name="video_index">0</property>
  <property name="mute_on_pause">0</property>
  <property name="mlt_service">avformat-novalidate</property>
  <property name="seekable">1</property>
  <property name="aspect_ratio">1</property>
  <property name="kdenlive:clipname">7.mp4</property>
  <property name="kdenlive:folderid">399</property>
  <property name="kdenlive:file_size">245179</property>
  <property name="kdenlive:id">410</property>
  <property name="kdenlive:proxy">/home/xiaoxiae/.cache/kdenlive/proxy/3351b8d5ed02b4b2b7ab33dc41061d4b.mov</property>
  <property name="kdenlive:originalurl">video/ToInfinity/vid/7.mp4</property>
  <property name="kdenlive:original.mlt_type">producer</property>
  <property name="kdenlive:original.in">0</property>
  <property name="kdenlive:original.out">59</property>
  <property name="kdenlive:original.length">60</property>
  <property name="kdenlive:original.eof">pause</property>
  <property name="kdenlive:original.resource">video/ToInfinity/vid/7.mp4</property>
  <property name="kdenlive:original.meta.media.nb_streams">1</property>
  <property name="kdenlive:original.meta.media.0.stream.type">video</property>
  <property name="kdenlive:original.meta.media.0.stream.frame_rate">60</property>
  <property name="kdenlive:original.meta.media.0.stream.sample_aspect_ratio">0</property>
  <property name="kdenlive:original.meta.media.0.codec.width">3840</property>
  <property name="kdenlive:original.meta.media.0.codec.height">2160</property>
  <property name="kdenlive:original.meta.media.0.codec.rotate">0</property>
  <property name="kdenlive:original.meta.media.0.codec.pix_fmt">yuv420p</property>
  <property name="kdenlive:original.meta.media.0.codec.sample_aspect_ratio">0</property>
  <property name="kdenlive:original.meta.media.0.codec.colorspace">709</property>
  <property name="kdenlive:original.meta.media.0.codec.name">h264</property>
  <property name="kdenlive:original.meta.media.0.codec.long_name">H.264 / AVC / MPEG-4 AVC / MPEG-4 part 10</property>
  <property name="kdenlive:original.meta.media.0.codec.bit_rate">1948824</property>
  <property name="kdenlive:original.meta.attr.0.stream.handler_name.markup">VideoHandler</property>
  <property name="kdenlive:original.meta.attr.0.stream.vendor_id.markup">[0][0][0][0]</property>
  <property name="kdenlive:original.meta.attr.major_brand.markup">isom</property>
  <property name="kdenlive:original.meta.attr.minor_version.markup">512</property>
  <property name="kdenlive:original.meta.attr.compatible_brands.markup">isomiso2avc1mp41</property>
  <property name="kdenlive:original.meta.attr.encoder.markup">Lavf58.76.100</property>
  <property name="kdenlive:original.meta.attr.comment.markup">Rendered with Manim Community v0.12.0</property>
  <property name="kdenlive:original.seekable">1</property>
  <property name="kdenlive:original.width">3840</property>
  <property name="kdenlive:original.height">2160</property>
  <property name="kdenlive:original.meta.media.sample_aspect_num">1</property>
  <property name="kdenlive:original.meta.media.sample_aspect_den">1</property>
  <property name="kdenlive:original.aspect_ratio">1</property>
  <property name="kdenlive:original.audio_index">-1</property>
  <property name="kdenlive:original.video_index">0</property>
  <property name="kdenlive:original.mute_on_pause">0</property>
  <property name="kdenlive:original.mlt_service">avformat-novalidate</property>
  <property name="kdenlive:original.kdenlive:folderid">399</property>
  <property name="kdenlive:original.kdenlive:file_size">245179</property>
  <property name="kdenlive:original.meta.media.frame_rate_num">60</property>
  <property name="kdenlive:original.meta.media.frame_rate_den">1</property>
  <property name="kdenlive:original.meta.media.colorspace">709</property>
  <property name="kdenlive:original.meta.media.color_trc">2</property>
  <property name="kdenlive:original.meta.media.has_b_frames">2</property>
  <property name="kdenlive:original.meta.media.width">3840</property>
  <property name="kdenlive:original.meta.media.height">2160</property>
  <property name="kdenlive:original.meta.media.color_range">mpeg</property>
  <property name="kdenlive:original.kdenlive:id">411</property>
  <property name="kdenlive:original.kdenlive:file_hash">3351b8d5ed02b4b2b7ab33dc41061d4b</property>
  <property name="kdenlive:original.backup">1</property>
  <property name="kdenlive:file_hash">3351b8d5ed02b4b2b7ab33dc41061d4b</property>
  <property name="xml">was here</property>
  <property name="meta.media.nb_streams">1</property>
  <property name="meta.media.0.stream.type">video</property>
  <property name="meta.media.0.stream.frame_rate">60</property>
  <property name="meta.media.0.stream.sample_aspect_ratio">0</property>
  <property name="meta.media.0.codec.width">640</property>
  <property name="meta.media.0.codec.height">360</property>
  <property name="meta.media.0.codec.rotate">0</property>
  <property name="meta.media.0.codec.pix_fmt">yuv420p</property>
  <property name="meta.media.0.codec.sample_aspect_ratio">0</property>
  <property name="meta.media.0.codec.colorspace">601</property>
  <property name="meta.media.0.codec.name">h264</property>
  <property name="meta.media.0.codec.long_name">H.264 / AVC / MPEG-4 AVC / MPEG-4 part 10</property>
  <property name="meta.media.0.codec.bit_rate">3001464</property>
  <property name="meta.attr.0.stream.handler_name.markup">VideoHandler</property>
  <property name="meta.attr.0.stream.vendor_id.markup">FFMP</property>
  <property name="meta.attr.0.stream.encoder.markup">Lavc58.134.100 libx264</property>
  <property name="meta.attr.major_brand.markup">qt  </property>
  <property name="meta.attr.minor_version.markup">512</property>
  <property name="meta.attr.compatible_brands.markup">qt  </property>
  <property name="meta.attr.encoder.markup">Lavf58.76.100</property>
  <property name="meta.attr.comment.markup">Rendered with Manim Community v0.12.0</property>
  <property name="meta.media.sample_aspect_num">1</property>
  <property name="meta.media.sample_aspect_den">1</property>
  <property name="meta.media.frame_rate_num">60</property>
  <property name="meta.media.frame_rate_den">1</property>
  <property name="meta.media.colorspace">601</property>
  <property name="meta.media.color_trc">2</property>
  <property name="meta.media.has_b_frames">0</property>
  <property name="meta.media.width">640</property>
  <property name="meta.media.height">360</property>
  <property name="meta.media.color_range">mpeg</property>
  <property name="set.test_audio">1</property>
  <property name="set.test_image">0</property>
 </producer>
 <producer id="producer551" in="00:00:00.000" out="00:00:00.983">
  <property name="length">60</property>
  <property name="eof">pause</property>
  <property name="resource">/home/xiaoxiae/.cache/kdenlive/proxy/eb2ee235b0c09380c796e9a920e94ea6.mov</property>
  <property name="audio_index">-1</property>
  <property name="video_index">0</property>
  <property name="mute_on_pause">0</property>
  <property name="mlt_service">avformat-novalidate</property>
  <property name="seekable">1</property>
  <property name="aspect_ratio">1</property>
  <property name="kdenlive:clipname">8.mp4</property>
  <property name="kdenlive:folderid">399</property>
  <property name="kdenlive:id">411</property>
  <property name="kdenlive:file_size">103846</property>
  <property name="kdenlive:proxy">/home/xiaoxiae/.cache/kdenlive/proxy/eb2ee235b0c09380c796e9a920e94ea6.mov</property>
  <property name="kdenlive:originalurl">video/ToInfinity/vid/8.mp4</property>
  <property name="kdenlive:original.mlt_type">producer</property>
  <property name="kdenlive:original.in">0</property>
  <property name="kdenlive:original.out">59</property>
  <property name="kdenlive:original.length">60</property>
  <property name="kdenlive:original.eof">pause</property>
  <property name="kdenlive:original.resource">video/ToInfinity/vid/8.mp4</property>
  <property name="kdenlive:original.meta.media.nb_streams">1</property>
  <property name="kdenlive:original.meta.media.0.stream.type">video</property>
  <property name="kdenlive:original.meta.media.0.stream.frame_rate">60</property>
  <property name="kdenlive:original.meta.media.0.stream.sample_aspect_ratio">0</property>
  <property name="kdenlive:original.meta.media.0.codec.width">3840</property>
  <property name="kdenlive:original.meta.media.0.codec.height">2160</property>
  <property name="kdenlive:original.meta.media.0.codec.rotate">0</property>
  <property name="kdenlive:original.meta.media.0.codec.pix_fmt">yuv420p</property>
  <property name="kdenlive:original.meta.media.0.codec.sample_aspect_ratio">0</property>
  <property name="kdenlive:original.meta.media.0.codec.colorspace">709</property>
  <property name="kdenlive:original.meta.media.0.codec.name">h264</property>
  <property name="kdenlive:original.meta.media.0.codec.long_name">H.264 / AVC / MPEG-4 AVC / MPEG-4 part 10</property>
  <property name="kdenlive:original.meta.media.0.codec.bit_rate">817712</property>
  <property name="kdenlive:original.meta.attr.0.stream.handler_name.markup">VideoHandler</property>
  <property name="kdenlive:original.meta.attr.0.stream.vendor_id.markup">[0][0][0][0]</property>
  <property name="kdenlive:original.meta.attr.major_brand.markup">isom</property>
  <property name="kdenlive:original.meta.attr.minor_version.markup">512</property>
  <property name="kdenlive:original.meta.attr.compatible_brands.markup">isomiso2avc1mp41</property>
  <property name="kdenlive:original.meta.attr.encoder.markup">Lavf58.76.100</property>
  <property name="kdenlive:original.meta.attr.comment.markup">Rendered with Manim Community v0.12.0</property>
  <property name="kdenlive:original.seekable">1</property>
  <property name="kdenlive:original.width">3840</property>
  <property name="kdenlive:original.height">2160</property>
  <property name="kdenlive:original.meta.media.sample_aspect_num">1</property>
  <property name="kdenlive:original.meta.media.sample_aspect_den">1</property>
  <property name="kdenlive:original.aspect_ratio">1</property>
  <property name="kdenlive:original.audio_index">-1</property>
  <property name="kdenlive:original.video_index">0</property>
  <property name="kdenlive:original.mute_on_pause">0</property>
  <property name="kdenlive:original.mlt_service">avformat-novalidate</property>
  <property name="kdenlive:original.kdenlive:folderid">399</property>
  <property name="kdenlive:original.meta.media.frame_rate_num">60</property>
  <property name="kdenlive:original.meta.media.frame_rate_den">1</property>
  <property name="kdenlive:original.meta.media.colorspace">709</property>
  <property name="kdenlive:original.meta.media.color_trc">2</property>
  <property name="kdenlive:original.meta.media.has_b_frames">2</property>
  <property name="kdenlive:original.meta.media.width">3840</property>
  <property name="kdenlive:original.meta.media.height">2160</property>
  <property name="kdenlive:original.meta.media.color_range">mpeg</property>
  <property name="kdenlive:original.kdenlive:id">412</property>
  <property name="kdenlive:original.kdenlive:file_size">103846</property>
  <property name="kdenlive:original.kdenlive:file_hash">eb2ee235b0c09380c796e9a920e94ea6</property>
  <property name="kdenlive:original.backup">1</property>
  <property name="kdenlive:file_hash">eb2ee235b0c09380c796e9a920e94ea6</property>
  <property name="xml">was here</property>
  <property name="meta.media.nb_streams">1</property>
  <property name="meta.media.0.stream.type">video</property>
  <property name="meta.media.0.stream.frame_rate">60</property>
  <property name="meta.media.0.stream.sample_aspect_ratio">0</property>
  <property name="meta.media.0.codec.width">640</property>
  <property name="meta.media.0.codec.height">360</property>
  <property name="meta.media.0.codec.rotate">0</property>
  <property name="meta.media.0.codec.pix_fmt">yuv420p</property>
  <property name="meta.media.0.codec.sample_aspect_ratio">0</property>
  <property name="meta.media.0.codec.colorspace">601</property>
  <property name="meta.media.0.codec.name">h264</property>
  <property name="meta.media.0.codec.long_name">H.264 / AVC / MPEG-4 AVC / MPEG-4 part 10</property>
  <property name="meta.media.0.codec.bit_rate">3264896</property>
  <property name="meta.attr.0.stream.handler_name.markup">VideoHandler</property>
  <property name="meta.attr.0.stream.vendor_id.markup">FFMP</property>
  <property name="meta.attr.0.stream.encoder.markup">Lavc58.134.100 libx264</property>
  <property name="meta.attr.major_brand.markup">qt  </property>
  <property name="meta.attr.minor_version.markup">512</property>
  <property name="meta.attr.compatible_brands.markup">qt  </property>
  <property name="meta.attr.encoder.markup">Lavf58.76.100</property>
  <property name="meta.attr.comment.markup">Rendered with Manim Community v0.12.0</property>
  <property name="meta.media.sample_aspect_num">1</property>
  <property name="meta.media.sample_aspect_den">1</property>
  <property name="meta.media.frame_rate_num">60</property>
  <property name="meta.media.frame_rate_den">1</property>
  <property name="meta.media.colorspace">601</property>
  <property name="meta.media.color_trc">2</property>
  <property name="meta.media.has_b_frames">0</property>
  <property name="meta.media.width">640</property>
  <property name="meta.media.height">360</property>
  <property name="meta.media.color_range">mpeg</property>
  <property name="set.test_audio">1</property>
  <property name="set.test_image">0</property>
 </producer>
 <producer id="producer552" in="00:00:00.000" out="00:00:01.483">
  <property name="length">90</property>
  <property name="eof">pause</property>
  <property name="resource">/home/xiaoxiae/.cache/kdenlive/proxy/babc82d3ead1e8bb6e67bffd2d3bef6a.mov</property>
  <property name="audio_index">-1</property>
  <property name="video_index">0</property>
  <property name="mute_on_pause">0</property>
  <property name="mlt_service">avformat-novalidate</property>
  <property name="seekable">1</property>
  <property name="aspect_ratio">1</property>
  <property name="kdenlive:clipname">9.mp4</property>
  <property name="kdenlive:folderid">399</property>
  <property name="kdenlive:id">412</property>
  <property name="kdenlive:file_size">228558</property>
  <property name="kdenlive:proxy">/home/xiaoxiae/.cache/kdenlive/proxy/babc82d3ead1e8bb6e67bffd2d3bef6a.mov</property>
  <property name="kdenlive:originalurl">video/ToInfinity/vid/9.mp4</property>
  <property name="kdenlive:original.mlt_type">producer</property>
  <property name="kdenlive:original.in">0</property>
  <property name="kdenlive:original.out">89</property>
  <property name="kdenlive:original.length">90</property>
  <property name="kdenlive:original.eof">pause</property>
  <property name="kdenlive:original.resource">video/ToInfinity/vid/9.mp4</property>
  <property name="kdenlive:original.meta.media.nb_streams">1</property>
  <property name="kdenlive:original.meta.media.0.stream.type">video</property>
  <property name="kdenlive:original.meta.media.0.stream.frame_rate">60</property>
  <property name="kdenlive:original.meta.media.0.stream.sample_aspect_ratio">0</property>
  <property name="kdenlive:original.meta.media.0.codec.width">3840</property>
  <property name="kdenlive:original.meta.media.0.codec.height">2160</property>
  <property name="kdenlive:original.meta.media.0.codec.rotate">0</property>
  <property name="kdenlive:original.meta.media.0.codec.pix_fmt">yuv420p</property>
  <property name="kdenlive:original.meta.media.0.codec.sample_aspect_ratio">0</property>
  <property name="kdenlive:original.meta.media.0.codec.colorspace">709</property>
  <property name="kdenlive:original.meta.media.0.codec.name">h264</property>
  <property name="kdenlive:original.meta.media.0.codec.long_name">H.264 / AVC / MPEG-4 AVC / MPEG-4 part 10</property>
  <property name="kdenlive:original.meta.media.0.codec.bit_rate">1209034</property>
  <property name="kdenlive:original.meta.attr.0.stream.handler_name.markup">VideoHandler</property>
  <property name="kdenlive:original.meta.attr.0.stream.vendor_id.markup">[0][0][0][0]</property>
  <property name="kdenlive:original.meta.attr.major_brand.markup">isom</property>
  <property name="kdenlive:original.meta.attr.minor_version.markup">512</property>
  <property name="kdenlive:original.meta.attr.compatible_brands.markup">isomiso2avc1mp41</property>
  <property name="kdenlive:original.meta.attr.encoder.markup">Lavf58.76.100</property>
  <property name="kdenlive:original.meta.attr.comment.markup">Rendered with Manim Community v0.12.0</property>
  <property name="kdenlive:original.seekable">1</property>
  <property name="kdenlive:original.width">3840</property>
  <property name="kdenlive:original.height">2160</property>
  <property name="kdenlive:original.meta.media.sample_aspect_num">1</property>
  <property name="kdenlive:original.meta.media.sample_aspect_den">1</property>
  <property name="kdenlive:original.aspect_ratio">1</property>
  <property name="kdenlive:original.audio_index">-1</property>
  <property name="kdenlive:original.video_index">0</property>
  <property name="kdenlive:original.mute_on_pause">0</property>
  <property name="kdenlive:original.mlt_service">avformat-novalidate</property>
  <property name="kdenlive:original.kdenlive:folderid">399</property>
  <property name="kdenlive:original.meta.media.frame_rate_num">60</property>
  <property name="kdenlive:original.meta.media.frame_rate_den">1</property>
  <property name="kdenlive:original.meta.media.colorspace">709</property>
  <property name="kdenlive:original.meta.media.color_trc">2</property>
  <property name="kdenlive:original.meta.media.has_b_frames">2</property>
  <property name="kdenlive:original.meta.media.width">3840</property>
  <property name="kdenlive:original.meta.media.height">2160</property>
  <property name="kdenlive:original.meta.media.color_range">mpeg</property>
  <property name="kdenlive:original.kdenlive:id">413</property>
  <property name="kdenlive:original.kdenlive:file_size">228558</property>
  <property name="kdenlive:original.kdenlive:file_hash">babc82d3ead1e8bb6e67bffd2d3bef6a</property>
  <property name="kdenlive:original.backup">1</property>
  <property name="kdenlive:file_hash">babc82d3ead1e8bb6e67bffd2d3bef6a</property>
  <property name="xml">was here</property>
  <property name="meta.media.nb_streams">1</property>
  <property name="meta.media.0.stream.type">video</property>
  <property name="meta.media.0.stream.frame_rate">60</property>
  <property name="meta.media.0.stream.sample_aspect_ratio">0</property>
  <property name="meta.media.0.codec.width">640</property>
  <property name="meta.media.0.codec.height">360</property>
  <property name="meta.media.0.codec.rotate">0</property>
  <property name="meta.media.0.codec.pix_fmt">yuv420p</property>
  <property name="meta.media.0.codec.sample_aspect_ratio">0</property>
  <property name="meta.media.0.codec.colorspace">601</property>
  <property name="meta.media.0.codec.name">h264</property>
  <property name="meta.media.0.codec.long_name">H.264 / AVC / MPEG-4 AVC / MPEG-4 part 10</property>
  <property name="meta.media.0.codec.bit_rate">3121269</property>
  <property name="meta.attr.0.stream.handler_name.markup">VideoHandler</property>
  <property name="meta.attr.0.stream.vendor_id.markup">FFMP</property>
  <property name="meta.attr.0.stream.encoder.markup">Lavc58.134.100 libx264</property>
  <property name="meta.attr.major_brand.markup">qt  </property>
  <property name="meta.attr.minor_version.markup">512</property>
  <property name="meta.attr.compatible_brands.markup">qt  </property>
  <property name="meta.attr.encoder.markup">Lavf58.76.100</property>
  <property name="meta.attr.comment.markup">Rendered with Manim Community v0.12.0</property>
  <property name="meta.media.sample_aspect_num">1</property>
  <property name="meta.media.sample_aspect_den">1</property>
  <property name="meta.media.frame_rate_num">60</property>
  <property name="meta.media.frame_rate_den">1</property>
  <property name="meta.media.colorspace">601</property>
  <property name="meta.media.color_trc">2</property>
  <property name="meta.media.has_b_frames">0</property>
  <property name="meta.media.width">640</property>
  <property name="meta.media.height">360</property>
  <property name="meta.media.color_range">mpeg</property>
  <property name="set.test_audio">1</property>
  <property name="set.test_image">0</property>
 </producer>
 <producer id="producer553" in="00:00:00.000" out="00:00:00.983">
  <property name="length">60</property>
  <property name="eof">pause</property>
  <property name="resource">/home/xiaoxiae/.cache/kdenlive/proxy/d178a6547980cf284b62629e9d967229.mov</property>
  <property name="audio_index">-1</property>
  <property name="video_index">0</property>
  <property name="mute_on_pause">0</property>
  <property name="mlt_service">avformat-novalidate</property>
  <property name="seekable">1</property>
  <property name="aspect_ratio">1</property>
  <property name="kdenlive:clipname">10.mp4</property>
  <property name="kdenlive:folderid">399</property>
  <property name="kdenlive:file_size">117470</property>
  <property name="kdenlive:id">400</property>
  <property name="kdenlive:proxy">/home/xiaoxiae/.cache/kdenlive/proxy/d178a6547980cf284b62629e9d967229.mov</property>
  <property name="kdenlive:originalurl">video/ToInfinity/vid/10.mp4</property>
  <property name="kdenlive:original.mlt_type">producer</property>
  <property name="kdenlive:original.in">0</property>
  <property name="kdenlive:original.out">59</property>
  <property name="kdenlive:original.length">60</property>
  <property name="kdenlive:original.eof">pause</property>
  <property name="kdenlive:original.resource">video/ToInfinity/vid/10.mp4</property>
  <property name="kdenlive:original.meta.media.nb_streams">1</property>
  <property name="kdenlive:original.meta.media.0.stream.type">video</property>
  <property name="kdenlive:original.meta.media.0.stream.frame_rate">60</property>
  <property name="kdenlive:original.meta.media.0.stream.sample_aspect_ratio">0</property>
  <property name="kdenlive:original.meta.media.0.codec.width">3840</property>
  <property name="kdenlive:original.meta.media.0.codec.height">2160</property>
  <property name="kdenlive:original.meta.media.0.codec.rotate">0</property>
  <property name="kdenlive:original.meta.media.0.codec.pix_fmt">yuv420p</property>
  <property name="kdenlive:original.meta.media.0.codec.sample_aspect_ratio">0</property>
  <property name="kdenlive:original.meta.media.0.codec.colorspace">709</property>
  <property name="kdenlive:original.meta.media.0.codec.name">h264</property>
  <property name="kdenlive:original.meta.media.0.codec.long_name">H.264 / AVC / MPEG-4 AVC / MPEG-4 part 10</property>
  <property name="kdenlive:original.meta.media.0.codec.bit_rate">926896</property>
  <property name="kdenlive:original.meta.attr.0.stream.handler_name.markup">VideoHandler</property>
  <property name="kdenlive:original.meta.attr.0.stream.vendor_id.markup">[0][0][0][0]</property>
  <property name="kdenlive:original.meta.attr.major_brand.markup">isom</property>
  <property name="kdenlive:original.meta.attr.minor_version.markup">512</property>
  <property name="kdenlive:original.meta.attr.compatible_brands.markup">isomiso2avc1mp41</property>
  <property name="kdenlive:original.meta.attr.encoder.markup">Lavf58.76.100</property>
  <property name="kdenlive:original.meta.attr.comment.markup">Rendered with Manim Community v0.12.0</property>
  <property name="kdenlive:original.seekable">1</property>
  <property name="kdenlive:original.width">3840</property>
  <property name="kdenlive:original.height">2160</property>
  <property name="kdenlive:original.meta.media.sample_aspect_num">1</property>
  <property name="kdenlive:original.meta.media.sample_aspect_den">1</property>
  <property name="kdenlive:original.aspect_ratio">1</property>
  <property name="kdenlive:original.audio_index">-1</property>
  <property name="kdenlive:original.video_index">0</property>
  <property name="kdenlive:original.mute_on_pause">0</property>
  <property name="kdenlive:original.mlt_service">avformat-novalidate</property>
  <property name="kdenlive:original.kdenlive:folderid">399</property>
  <property name="kdenlive:original.kdenlive:file_size">117470</property>
  <property name="kdenlive:original.meta.media.frame_rate_num">60</property>
  <property name="kdenlive:original.meta.media.frame_rate_den">1</property>
  <property name="kdenlive:original.meta.media.colorspace">709</property>
  <property name="kdenlive:original.meta.media.color_trc">2</property>
  <property name="kdenlive:original.meta.media.has_b_frames">2</property>
  <property name="kdenlive:original.meta.media.width">3840</property>
  <property name="kdenlive:original.meta.media.height">2160</property>
  <property name="kdenlive:original.meta.media.color_range">mpeg</property>
  <property name="kdenlive:original.kdenlive:id">401</property>
  <property name="kdenlive:original.kdenlive:file_hash">d178a6547980cf284b62629e9d967229</property>
  <property name="kdenlive:original.backup">1</property>
  <property name="kdenlive:file_hash">d178a6547980cf284b62629e9d967229</property>
  <property name="xml">was here</property>
  <property name="meta.media.nb_streams">1</property>
  <property name="meta.media.0.stream.type">video</property>
  <property name="meta.media.0.stream.frame_rate">60</property>
  <property name="meta.media.0.stream.sample_aspect_ratio">0</property>
  <property name="meta.media.0.codec.width">640</property>
  <property name="meta.media.0.codec.height">360</property>
  <property name="meta.media.0.codec.rotate">0</property>
  <property name="meta.media.0.codec.pix_fmt">yuv420p</property>
  <property name="meta.media.0.codec.sample_aspect_ratio">0</property>
  <property name="meta.media.0.codec.colorspace">601</property>
  <property name="meta.media.0.codec.name">h264</property>
  <property name="meta.media.0.codec.long_name">H.264 / AVC / MPEG-4 AVC / MPEG-4 part 10</property>
  <property name="meta.media.0.codec.bit_rate">3170032</property>
  <property name="meta.attr.0.stream.handler_name.markup">VideoHandler</property>
  <property name="meta.attr.0.stream.vendor_id.markup">FFMP</property>
  <property name="meta.attr.0.stream.encoder.markup">Lavc58.134.100 libx264</property>
  <property name="meta.attr.major_brand.markup">qt  </property>
  <property name="meta.attr.minor_version.markup">512</property>
  <property name="meta.attr.compatible_brands.markup">qt  </property>
  <property name="meta.attr.encoder.markup">Lavf58.76.100</property>
  <property name="meta.attr.comment.markup">Rendered with Manim Community v0.12.0</property>
  <property name="meta.media.sample_aspect_num">1</property>
  <property name="meta.media.sample_aspect_den">1</property>
  <property name="meta.media.frame_rate_num">60</property>
  <property name="meta.media.frame_rate_den">1</property>
  <property name="meta.media.colorspace">601</property>
  <property name="meta.media.color_trc">2</property>
  <property name="meta.media.has_b_frames">0</property>
  <property name="meta.media.width">640</property>
  <property name="meta.media.height">360</property>
  <property name="meta.media.color_range">mpeg</property>
  <property name="set.test_audio">1</property>
  <property name="set.test_image">0</property>
 </producer>
 <producer id="producer554" in="00:00:00.000" out="00:00:00.983">
  <property name="length">60</property>
  <property name="eof">pause</property>
  <property name="resource">/home/xiaoxiae/.cache/kdenlive/proxy/6db4918a01050c6271d2135bde6de546.mov</property>
  <property name="audio_index">-1</property>
  <property name="video_index">0</property>
  <property name="mute_on_pause">0</property>
  <property name="mlt_service">avformat-novalidate</property>
  <property name="seekable">1</property>
  <property name="aspect_ratio">1</property>
  <property name="kdenlive:clipname">11.mp4</property>
  <property name="kdenlive:folderid">399</property>
  <property name="kdenlive:id">401</property>
  <property name="kdenlive:file_size">95311</property>
  <property name="kdenlive:proxy">/home/xiaoxiae/.cache/kdenlive/proxy/6db4918a01050c6271d2135bde6de546.mov</property>
  <property name="kdenlive:originalurl">video/ToInfinity/vid/11.mp4</property>
  <property name="kdenlive:original.mlt_type">producer</property>
  <property name="kdenlive:original.in">0</property>
  <property name="kdenlive:original.out">59</property>
  <property name="kdenlive:original.length">60</property>
  <property name="kdenlive:original.eof">pause</property>
  <property name="kdenlive:original.resource">video/ToInfinity/vid/11.mp4</property>
  <property name="kdenlive:original.meta.media.nb_streams">1</property>
  <property name="kdenlive:original.meta.media.0.stream.type">video</property>
  <property name="kdenlive:original.meta.media.0.stream.frame_rate">60</property>
  <property name="kdenlive:original.meta.media.0.stream.sample_aspect_ratio">0</property>
  <property name="kdenlive:original.meta.media.0.codec.width">3840</property>
  <property name="kdenlive:original.meta.media.0.codec.height">2160</property>
  <property name="kdenlive:original.meta.media.0.codec.rotate">0</property>
  <property name="kdenlive:original.meta.media.0.codec.pix_fmt">yuv420p</property>
  <property name="kdenlive:original.meta.media.0.codec.sample_aspect_ratio">0</property>
  <property name="kdenlive:original.meta.media.0.codec.colorspace">709</property>
  <property name="kdenlive:original.meta.media.0.codec.name">h264</property>
  <property name="kdenlive:original.meta.media.0.codec.long_name">H.264 / AVC / MPEG-4 AVC / MPEG-4 part 10</property>
  <property name="kdenlive:original.meta.media.0.codec.bit_rate">749432</property>
  <property name="kdenlive:original.meta.attr.0.stream.handler_name.markup">VideoHandler</property>
  <property name="kdenlive:original.meta.attr.0.stream.vendor_id.markup">[0][0][0][0]</property>
  <property name="kdenlive:original.meta.attr.major_brand.markup">isom</property>
  <property name="kdenlive:original.meta.attr.minor_version.markup">512</property>
  <property name="kdenlive:original.meta.attr.compatible_brands.markup">isomiso2avc1mp41</property>
  <property name="kdenlive:original.meta.attr.encoder.markup">Lavf58.76.100</property>
  <property name="kdenlive:original.meta.attr.comment.markup">Rendered with Manim Community v0.12.0</property>
  <property name="kdenlive:original.seekable">1</property>
  <property name="kdenlive:original.width">3840</property>
  <property name="kdenlive:original.height">2160</property>
  <property name="kdenlive:original.meta.media.sample_aspect_num">1</property>
  <property name="kdenlive:original.meta.media.sample_aspect_den">1</property>
  <property name="kdenlive:original.aspect_ratio">1</property>
  <property name="kdenlive:original.audio_index">-1</property>
  <property name="kdenlive:original.video_index">0</property>
  <property name="kdenlive:original.mute_on_pause">0</property>
  <property name="kdenlive:original.mlt_service">avformat-novalidate</property>
  <property name="kdenlive:original.kdenlive:folderid">399</property>
  <property name="kdenlive:original.meta.media.frame_rate_num">60</property>
  <property name="kdenlive:original.meta.media.frame_rate_den">1</property>
  <property name="kdenlive:original.meta.media.colorspace">709</property>
  <property name="kdenlive:original.meta.media.color_trc">2</property>
  <property name="kdenlive:original.meta.media.has_b_frames">2</property>
  <property name="kdenlive:original.meta.media.width">3840</property>
  <property name="kdenlive:original.meta.media.height">2160</property>
  <property name="kdenlive:original.meta.media.color_range">mpeg</property>
  <property name="kdenlive:original.kdenlive:id">402</property>
  <property name="kdenlive:original.kdenlive:file_size">95311</property>
  <property name="kdenlive:original.kdenlive:file_hash">6db4918a01050c6271d2135bde6de546</property>
  <property name="kdenlive:original.backup">1</property>
  <property name="kdenlive:file_hash">6db4918a01050c6271d2135bde6de546</property>
  <property name="xml">was here</property>
  <property name="meta.media.nb_streams">1</property>
  <property name="meta.media.0.stream.type">video</property>
  <property name="meta.media.0.stream.frame_rate">60</property>
  <property name="meta.media.0.stream.sample_aspect_ratio">0</property>
  <property name="meta.media.0.codec.width">640</property>
  <property name="meta.media.0.codec.height">360</property>
  <property name="meta.media.0.codec.rotate">0</property>
  <property name="meta.media.0.codec.pix_fmt">yuv420p</property>
  <property name="meta.media.0.codec.sample_aspect_ratio">0</property>
  <property name="meta.media.0.codec.colorspace">601</property>
  <property name="meta.media.0.codec.name">h264</property>
  <property name="meta.media.0.codec.long_name">H.264 / AVC / MPEG-4 AVC / MPEG-4 part 10</property>
  <property name="meta.media.0.codec.bit_rate">3313464</property>
  <property name="meta.attr.0.stream.handler_name.markup">VideoHandler</property>
  <property name="meta.attr.0.stream.vendor_id.markup">FFMP</property>
  <property name="meta.attr.0.stream.encoder.markup">Lavc58.134.100 libx264</property>
  <property name="meta.attr.major_brand.markup">qt  </property>
  <property name="meta.attr.minor_version.markup">512</property>
  <property name="meta.attr.compatible_brands.markup">qt  </property>
  <property name="meta.attr.encoder.markup">Lavf58.76.100</property>
  <property name="meta.attr.comment.markup">Rendered with Manim Community v0.12.0</property>
  <property name="meta.media.sample_aspect_num">1</property>
  <property name="meta.media.sample_aspect_den">1</property>
  <property name="meta.media.frame_rate_num">60</property>
  <property name="meta.media.frame_rate_den">1</property>
  <property name="meta.media.colorspace">601</property>
  <property name="meta.media.color_trc">2</property>
  <property name="meta.media.has_b_frames">0</property>
  <property name="meta.media.width">640</property>
  <property name="meta.media.height">360</property>
  <property name="meta.media.color_range">mpeg</property>
  <property name="set.test_audio">1</property>
  <property name="set.test_image">0</property>
 </producer>
 <producer id="producer555" in="00:00:00.000" out="00:00:00.983">
  <property name="length">60</property>
  <property name="eof">pause</property>
  <property name="resource">/home/xiaoxiae/.cache/kdenlive/proxy/bef1c39a66f49c4379e43f9a7c3f7766.mov</property>
  <property name="audio_index">-1</property>
  <property name="video_index">0</property>
  <property name="mute_on_pause">0</property>
  <property name="mlt_service">avformat-novalidate</property>
  <property name="seekable">1</property>
  <property name="aspect_ratio">1</property>
  <property name="kdenlive:clipname">12.mp4</property>
  <property name="kdenlive:folderid">399</property>
  <property name="kdenlive:id">402</property>
  <property name="kdenlive:file_size">166049</property>
  <property name="kdenlive:proxy">/home/xiaoxiae/.cache/kdenlive/proxy/bef1c39a66f49c4379e43f9a7c3f7766.mov</property>
  <property name="kdenlive:originalurl">video/ToInfinity/vid/12.mp4</property>
  <property name="kdenlive:original.mlt_type">producer</property>
  <property name="kdenlive:original.in">0</property>
  <property name="kdenlive:original.out">59</property>
  <property name="kdenlive:original.length">60</property>
  <property name="kdenlive:original.eof">pause</property>
  <property name="kdenlive:original.resource">video/ToInfinity/vid/12.mp4</property>
  <property name="kdenlive:original.meta.media.nb_streams">1</property>
  <property name="kdenlive:original.meta.media.0.stream.type">video</property>
  <property name="kdenlive:original.meta.media.0.stream.frame_rate">60</property>
  <property name="kdenlive:original.meta.media.0.stream.sample_aspect_ratio">0</property>
  <property name="kdenlive:original.meta.media.0.codec.width">3840</property>
  <property name="kdenlive:original.meta.media.0.codec.height">2160</property>
  <property name="kdenlive:original.meta.media.0.codec.rotate">0</property>
  <property name="kdenlive:original.meta.media.0.codec.pix_fmt">yuv420p</property>
  <property name="kdenlive:original.meta.media.0.codec.sample_aspect_ratio">0</property>
  <property name="kdenlive:original.meta.media.0.codec.colorspace">709</property>
  <property name="kdenlive:original.meta.media.0.codec.name">h264</property>
  <property name="kdenlive:original.meta.media.0.codec.long_name">H.264 / AVC / MPEG-4 AVC / MPEG-4 part 10</property>
  <property name="kdenlive:original.meta.media.0.codec.bit_rate">1315400</property>
  <property name="kdenlive:original.meta.attr.0.stream.handler_name.markup">VideoHandler</property>
  <property name="kdenlive:original.meta.attr.0.stream.vendor_id.markup">[0][0][0][0]</property>
  <property name="kdenlive:original.meta.attr.major_brand.markup">isom</property>
  <property name="kdenlive:original.meta.attr.minor_version.markup">512</property>
  <property name="kdenlive:original.meta.attr.compatible_brands.markup">isomiso2avc1mp41</property>
  <property name="kdenlive:original.meta.attr.encoder.markup">Lavf58.76.100</property>
  <property name="kdenlive:original.meta.attr.comment.markup">Rendered with Manim Community v0.12.0</property>
  <property name="kdenlive:original.seekable">1</property>
  <property name="kdenlive:original.width">3840</property>
  <property name="kdenlive:original.height">2160</property>
  <property name="kdenlive:original.meta.media.sample_aspect_num">1</property>
  <property name="kdenlive:original.meta.media.sample_aspect_den">1</property>
  <property name="kdenlive:original.aspect_ratio">1</property>
  <property name="kdenlive:original.audio_index">-1</property>
  <property name="kdenlive:original.video_index">0</property>
  <property name="kdenlive:original.mute_on_pause">0</property>
  <property name="kdenlive:original.mlt_service">avformat-novalidate</property>
  <property name="kdenlive:original.kdenlive:folderid">399</property>
  <property name="kdenlive:original.meta.media.frame_rate_num">60</property>
  <property name="kdenlive:original.meta.media.frame_rate_den">1</property>
  <property name="kdenlive:original.meta.media.colorspace">709</property>
  <property name="kdenlive:original.meta.media.color_trc">2</property>
  <property name="kdenlive:original.meta.media.has_b_frames">2</property>
  <property name="kdenlive:original.meta.media.width">3840</property>
  <property name="kdenlive:original.meta.media.height">2160</property>
  <property name="kdenlive:original.meta.media.color_range">mpeg</property>
  <property name="kdenlive:original.kdenlive:id">403</property>
  <property name="kdenlive:original.kdenlive:file_size">166049</property>
  <property name="kdenlive:original.kdenlive:file_hash">bef1c39a66f49c4379e43f9a7c3f7766</property>
  <property name="kdenlive:original.backup">1</property>
  <property name="kdenlive:file_hash">bef1c39a66f49c4379e43f9a7c3f7766</property>
  <property name="xml">was here</property>
  <property name="meta.media.nb_streams">1</property>
  <property name="meta.media.0.stream.type">video</property>
  <property name="meta.media.0.stream.frame_rate">60</property>
  <property name="meta.media.0.stream.sample_aspect_ratio">0</property>
  <property name="meta.media.0.codec.width">640</property>
  <property name="meta.media.0.codec.height">360</property>
  <property name="meta.media.0.codec.rotate">0</property>
  <property name="meta.media.0.codec.pix_fmt">yuv420p</property>
  <property name="meta.media.0.codec.sample_aspect_ratio">0</property>
  <property name="meta.media.0.codec.colorspace">601</property>
  <property name="meta.media.0.codec.name">h264</property>
  <property name="meta.media.0.codec.long_name">H.264 / AVC / MPEG-4 AVC / MPEG-4 part 10</property>
  <property name="meta.media.0.codec.bit_rate">3394424</property>
  <property name="meta.attr.0.stream.handler_name.markup">VideoHandler</property>
  <property name="meta.attr.0.stream.vendor_id.markup">FFMP</property>
  <property name="meta.attr.0.stream.encoder.markup">Lavc58.134.100 libx264</property>
  <property name="meta.attr.major_brand.markup">qt  </property>
  <property name="meta.attr.minor_version.markup">512</property>
  <property name="meta.attr.compatible_brands.markup">qt  </property>
  <property name="meta.attr.encoder.markup">Lavf58.76.100</property>
  <property name="meta.attr.comment.markup">Rendered with Manim Community v0.12.0</property>
  <property name="meta.media.sample_aspect_num">1</property>
  <property name="meta.media.sample_aspect_den">1</property>
  <property name="meta.media.frame_rate_num">60</property>
  <property name="meta.media.frame_rate_den">1</property>
  <property name="meta.media.colorspace">601</property>
  <property name="meta.media.color_trc">2</property>
  <property name="meta.media.has_b_frames">0</property>
  <property name="meta.media.width">640</property>
  <property name="meta.media.height">360</property>
  <property name="meta.media.color_range">mpeg</property>
  <property name="set.test_audio">1</property>
  <property name="set.test_image">0</property>
 </producer>
 <producer id="producer556" in="00:00:00.000" out="00:00:00.983">
  <property name="length">60</property>
  <property name="eof">pause</property>
  <property name="resource">/home/xiaoxiae/.cache/kdenlive/proxy/3d49aeb8af8058c875fb9be6c5b93882.mov</property>
  <property name="audio_index">-1</property>
  <property name="video_index">0</property>
  <property name="mute_on_pause">0</property>
  <property name="mlt_service">avformat-novalidate</property>
  <property name="seekable">1</property>
  <property name="aspect_ratio">1</property>
  <property name="kdenlive:clipname">13.mp4</property>
  <property name="kdenlive:folderid">399</property>
  <property name="kdenlive:id">403</property>
  <property name="kdenlive:file_size">163657</property>
  <property name="kdenlive:proxy">/home/xiaoxiae/.cache/kdenlive/proxy/3d49aeb8af8058c875fb9be6c5b93882.mov</property>
  <property name="kdenlive:originalurl">video/ToInfinity/vid/13.mp4</property>
  <property name="kdenlive:original.mlt_type">producer</property>
  <property name="kdenlive:original.in">0</property>
  <property name="kdenlive:original.out">59</property>
  <property name="kdenlive:original.length">60</property>
  <property name="kdenlive:original.eof">pause</property>
  <property name="kdenlive:original.resource">video/ToInfinity/vid/13.mp4</property>
  <property name="kdenlive:original.meta.media.nb_streams">1</property>
  <property name="kdenlive:original.meta.media.0.stream.type">video</property>
  <property name="kdenlive:original.meta.media.0.stream.frame_rate">60</property>
  <property name="kdenlive:original.meta.media.0.stream.sample_aspect_ratio">0</property>
  <property name="kdenlive:original.meta.media.0.codec.width">3840</property>
  <property name="kdenlive:original.meta.media.0.codec.height">2160</property>
  <property name="kdenlive:original.meta.media.0.codec.rotate">0</property>
  <property name="kdenlive:original.meta.media.0.codec.pix_fmt">yuv420p</property>
  <property name="kdenlive:original.meta.media.0.codec.sample_aspect_ratio">0</property>
  <property name="kdenlive:original.meta.media.0.codec.colorspace">709</property>
  <property name="kdenlive:original.meta.media.0.codec.name">h264</property>
  <property name="kdenlive:original.meta.media.0.codec.long_name">H.264 / AVC / MPEG-4 AVC / MPEG-4 part 10</property>
  <property name="kdenlive:original.meta.media.0.codec.bit_rate">1296456</property>
  <property name="kdenlive:original.meta.attr.0.stream.handler_name.markup">VideoHandler</property>
  <property name="kdenlive:original.meta.attr.0.stream.vendor_id.markup">[0][0][0][0]</property>
  <property name="kdenlive:original.meta.attr.major_brand.markup">isom</property>
  <property name="kdenlive:original.meta.attr.minor_version.markup">512</property>
  <property name="kdenlive:original.meta.attr.compatible_brands.markup">isomiso2avc1mp41</property>
  <property name="kdenlive:original.meta.attr.encoder.markup">Lavf58.76.100</property>
  <property name="kdenlive:original.meta.attr.comment.markup">Rendered with Manim Community v0.12.0</property>
  <property name="kdenlive:original.seekable">1</property>
  <property name="kdenlive:original.width">3840</property>
  <property name="kdenlive:original.height">2160</property>
  <property name="kdenlive:original.meta.media.sample_aspect_num">1</property>
  <property name="kdenlive:original.meta.media.sample_aspect_den">1</property>
  <property name="kdenlive:original.aspect_ratio">1</property>
  <property name="kdenlive:original.audio_index">-1</property>
  <property name="kdenlive:original.video_index">0</property>
  <property name="kdenlive:original.mute_on_pause">0</property>
  <property name="kdenlive:original.mlt_service">avformat-novalidate</property>
  <property name="kdenlive:original.kdenlive:folderid">399</property>
  <property name="kdenlive:original.meta.media.frame_rate_num">60</property>
  <property name="kdenlive:original.meta.media.frame_rate_den">1</property>
  <property name="kdenlive:original.meta.media.colorspace">709</property>
  <property name="kdenlive:original.meta.media.color_trc">2</property>
  <property name="kdenlive:original.meta.media.has_b_frames">2</property>
  <property name="kdenlive:original.meta.media.width">3840</property>
  <property name="kdenlive:original.meta.media.height">2160</property>
  <property name="kdenlive:original.meta.media.color_range">mpeg</property>
  <property name="kdenlive:original.kdenlive:id">404</property>
  <property name="kdenlive:original.kdenlive:file_size">163657</property>
  <property name="kdenlive:original.kdenlive:file_hash">3d49aeb8af8058c875fb9be6c5b93882</property>
  <property name="kdenlive:original.backup">1</property>
  <property name="kdenlive:file_hash">3d49aeb8af8058c875fb9be6c5b93882</property>
  <property name="xml">was here</property>
  <property name="meta.media.nb_streams">1</property>
  <property name="meta.media.0.stream.type">video</property>
  <property name="meta.media.0.stream.frame_rate">60</property>
  <property name="meta.media.0.stream.sample_aspect_ratio">0</property>
  <property name="meta.media.0.codec.width">640</property>
  <property name="meta.media.0.codec.height">360</property>
  <property name="meta.media.0.codec.rotate">0</property>
  <property name="meta.media.0.codec.pix_fmt">yuv420p</property>
  <property name="meta.media.0.codec.sample_aspect_ratio">0</property>
  <property name="meta.media.0.codec.colorspace">601</property>
  <property name="meta.media.0.codec.name">h264</property>
  <property name="meta.media.0.codec.long_name">H.264 / AVC / MPEG-4 AVC / MPEG-4 part 10</property>
  <property name="meta.media.0.codec.bit_rate">3556464</property>
  <property name="meta.attr.0.stream.handler_name.markup">VideoHandler</property>
  <property name="meta.attr.0.stream.vendor_id.markup">FFMP</property>
  <property name="meta.attr.0.stream.encoder.markup">Lavc58.134.100 libx264</property>
  <property name="meta.attr.major_brand.markup">qt  </property>
  <property name="meta.attr.minor_version.markup">512</property>
  <property name="meta.attr.compatible_brands.markup">qt  </property>
  <property name="meta.attr.encoder.markup">Lavf58.76.100</property>
  <property name="meta.attr.comment.markup">Rendered with Manim Community v0.12.0</property>
  <property name="meta.media.sample_aspect_num">1</property>
  <property name="meta.media.sample_aspect_den">1</property>
  <property name="meta.media.frame_rate_num">60</property>
  <property name="meta.media.frame_rate_den">1</property>
  <property name="meta.media.colorspace">601</property>
  <property name="meta.media.color_trc">2</property>
  <property name="meta.media.has_b_frames">0</property>
  <property name="meta.media.width">640</property>
  <property name="meta.media.height">360</property>
  <property name="meta.media.color_range">mpeg</property>
  <property name="set.test_audio">1</property>
  <property name="set.test_image">0</property>
 </producer>
 <producer id="producer557" in="00:00:00.000" out="00:00:02.383">
  <property name="length">144</property>
  <property name="eof">pause</property>
  <property name="resource">/home/xiaoxiae/.cache/kdenlive/proxy/886fd11152b81f2ee7d85e22efabe39a.mov</property>
  <property name="audio_index">-1</property>
  <property name="video_index">0</property>
  <property name="mute_on_pause">0</property>
  <property name="mlt_service">avformat-novalidate</property>
  <property name="seekable">1</property>
  <property name="aspect_ratio">1</property>
  <property name="kdenlive:clipname">14.mp4</property>
  <property name="kdenlive:folderid">399</property>
  <property name="kdenlive:file_size">582567</property>
  <property name="kdenlive:id">404</property>
  <property name="kdenlive:proxy">/home/xiaoxiae/.cache/kdenlive/proxy/886fd11152b81f2ee7d85e22efabe39a.mov</property>
  <property name="kdenlive:originalurl">video/ToInfinity/vid/14.mp4</property>
  <property name="kdenlive:original.mlt_type">producer</property>
  <property name="kdenlive:original.in">0</property>
  <property name="kdenlive:original.out">143</property>
  <property name="kdenlive:original.length">144</property>
  <property name="kdenlive:original.eof">pause</property>
  <property name="kdenlive:original.resource">video/ToInfinity/vid/14.mp4</property>
  <property name="kdenlive:original.meta.media.nb_streams">1</property>
  <property name="kdenlive:original.meta.media.0.stream.type">video</property>
  <property name="kdenlive:original.meta.media.0.stream.frame_rate">60</property>
  <property name="kdenlive:original.meta.media.0.stream.sample_aspect_ratio">0</property>
  <property name="kdenlive:original.meta.media.0.codec.width">3840</property>
  <property name="kdenlive:original.meta.media.0.codec.height">2160</property>
  <property name="kdenlive:original.meta.media.0.codec.rotate">0</property>
  <property name="kdenlive:original.meta.media.0.codec.pix_fmt">yuv420p</property>
  <property name="kdenlive:original.meta.media.0.codec.sample_aspect_ratio">0</property>
  <property name="kdenlive:original.meta.media.0.codec.colorspace">709</property>
  <property name="kdenlive:original.meta.media.0.codec.name">h264</property>
  <property name="kdenlive:original.meta.media.0.codec.long_name">H.264 / AVC / MPEG-4 AVC / MPEG-4 part 10</property>
  <property name="kdenlive:original.meta.media.0.codec.bit_rate">1933116</property>
  <property name="kdenlive:original.meta.attr.0.stream.handler_name.markup">VideoHandler</property>
  <property name="kdenlive:original.meta.attr.0.stream.vendor_id.markup">[0][0][0][0]</property>
  <property name="kdenlive:original.meta.attr.major_brand.markup">isom</property>
  <property name="kdenlive:original.meta.attr.minor_version.markup">512</property>
  <property name="kdenlive:original.meta.attr.compatible_brands.markup">isomiso2avc1mp41</property>
  <property name="kdenlive:original.meta.attr.encoder.markup">Lavf58.76.100</property>
  <property name="kdenlive:original.meta.attr.comment.markup">Rendered with Manim Community v0.12.0</property>
  <property name="kdenlive:original.seekable">1</property>
  <property name="kdenlive:original.width">3840</property>
  <property name="kdenlive:original.height">2160</property>
  <property name="kdenlive:original.meta.media.sample_aspect_num">1</property>
  <property name="kdenlive:original.meta.media.sample_aspect_den">1</property>
  <property name="kdenlive:original.aspect_ratio">1</property>
  <property name="kdenlive:original.audio_index">-1</property>
  <property name="kdenlive:original.video_index">0</property>
  <property name="kdenlive:original.mute_on_pause">0</property>
  <property name="kdenlive:original.mlt_service">avformat-novalidate</property>
  <property name="kdenlive:original.kdenlive:folderid">399</property>
  <property name="kdenlive:original.kdenlive:file_size">582567</property>
  <property name="kdenlive:original.meta.media.frame_rate_num">60</property>
  <property name="kdenlive:original.meta.media.frame_rate_den">1</property>
  <property name="kdenlive:original.meta.media.colorspace">709</property>
  <property name="kdenlive:original.meta.media.color_trc">2</property>
  <property name="kdenlive:original.meta.media.has_b_frames">2</property>
  <property name="kdenlive:original.meta.media.width">3840</property>
  <property name="kdenlive:original.meta.media.height">2160</property>
  <property name="kdenlive:original.meta.media.color_range">mpeg</property>
  <property name="kdenlive:original.kdenlive:id">405</property>
  <property name="kdenlive:original.kdenlive:file_hash">886fd11152b81f2ee7d85e22efabe39a</property>
  <property name="kdenlive:original.backup">1</property>
  <property name="kdenlive:file_hash">886fd11152b81f2ee7d85e22efabe39a</property>
  <property name="xml">was here</property>
  <property name="meta.media.nb_streams">1</property>
  <property name="meta.media.0.stream.type">video</property>
  <property name="meta.media.0.stream.frame_rate">60</property>
  <property name="meta.media.0.stream.sample_aspect_ratio">0</property>
  <property name="meta.media.0.codec.width">640</property>
  <property name="meta.media.0.codec.height">360</property>
  <property name="meta.media.0.codec.rotate">0</property>
  <property name="meta.media.0.codec.pix_fmt">yuv420p</property>
  <property name="meta.media.0.codec.sample_aspect_ratio">0</property>
  <property name="meta.media.0.codec.colorspace">601</property>
  <property name="meta.media.0.codec.name">h264</property>
  <property name="meta.media.0.codec.long_name">H.264 / AVC / MPEG-4 AVC / MPEG-4 part 10</property>
  <property name="meta.media.0.codec.bit_rate">3141586</property>
  <property name="meta.attr.0.stream.handler_name.markup">VideoHandler</property>
  <property name="meta.attr.0.stream.vendor_id.markup">FFMP</property>
  <property name="meta.attr.0.stream.encoder.markup">Lavc58.134.100 libx264</property>
  <property name="meta.attr.major_brand.markup">qt  </property>
  <property name="meta.attr.minor_version.markup">512</property>
  <property name="meta.attr.compatible_brands.markup">qt  </property>
  <property name="meta.attr.encoder.markup">Lavf58.76.100</property>
  <property name="meta.attr.comment.markup">Rendered with Manim Community v0.12.0</property>
  <property name="meta.media.sample_aspect_num">1</property>
  <property name="meta.media.sample_aspect_den">1</property>
  <property name="meta.media.frame_rate_num">60</property>
  <property name="meta.media.frame_rate_den">1</property>
  <property name="meta.media.colorspace">601</property>
  <property name="meta.media.color_trc">2</property>
  <property name="meta.media.has_b_frames">0</property>
  <property name="meta.media.width">640</property>
  <property name="meta.media.height">360</property>
  <property name="meta.media.color_range">mpeg</property>
  <property name="set.test_audio">1</property>
  <property name="set.test_image">0</property>
  <property name="meta.media.top_field_first">0</property>
  <property name="meta.media.progressive">1</property>
 </producer>
 <producer id="producer558" in="00:00:00.000" out="00:39:59.983">
  <property name="length">144000</property>
  <property name="eof">pause</property>
  <property name="resource">0.001000:/home/xiaoxiae/.cache/kdenlive/proxy/886fd11152b81f2ee7d85e22efabe39a.mov</property>
  <property name="aspect_ratio">1</property>
  <property name="meta.media.nb_streams">1</property>
  <property name="meta.media.0.stream.type">video</property>
  <property name="meta.media.0.stream.frame_rate">60</property>
  <property name="meta.media.0.stream.sample_aspect_ratio">0</property>
  <property name="meta.media.0.codec.width">640</property>
  <property name="meta.media.0.codec.height">360</property>
  <property name="meta.media.0.codec.rotate">0</property>
  <property name="meta.media.0.codec.pix_fmt">yuv420p</property>
  <property name="meta.media.0.codec.sample_aspect_ratio">0</property>
  <property name="meta.media.0.codec.colorspace">601</property>
  <property name="meta.media.0.codec.name">h264</property>
  <property name="meta.media.0.codec.long_name">H.264 / AVC / MPEG-4 AVC / MPEG-4 part 10</property>
  <property name="meta.media.0.codec.bit_rate">3141586</property>
  <property name="meta.attr.0.stream.handler_name.markup">VideoHandler</property>
  <property name="meta.attr.0.stream.vendor_id.markup">FFMP</property>
  <property name="meta.attr.0.stream.encoder.markup">Lavc58.134.100 libx264</property>
  <property name="meta.attr.major_brand.markup">qt  </property>
  <property name="meta.attr.minor_version.markup">512</property>
  <property name="meta.attr.compatible_brands.markup">qt  </property>
  <property name="meta.attr.encoder.markup">Lavf58.76.100</property>
  <property name="meta.attr.comment.markup">Rendered with Manim Community v0.12.0</property>
  <property name="seekable">1</property>
  <property name="meta.media.sample_aspect_num">1</property>
  <property name="meta.media.sample_aspect_den">1</property>
  <property name="audio_index">-1</property>
  <property name="video_index">0</property>
  <property name="mute_on_pause">1</property>
  <property name="warp_speed">0.001</property>
  <property name="warp_resource">/home/xiaoxiae/.cache/kdenlive/proxy/886fd11152b81f2ee7d85e22efabe39a.mov</property>
  <property name="mlt_service">timewarp</property>
  <property name="kdenlive:proxy">/home/xiaoxiae/.cache/kdenlive/proxy/886fd11152b81f2ee7d85e22efabe39a.mov</property>
  <property name="kdenlive:originalurl">video/ToInfinity/vid/14.mp4</property>
  <property name="set.test_audio">1</property>
  <property name="set.test_image">0</property>
  <property name="kdenlive:id">404</property>
  <property name="warp_pitch">0</property>
  <property name="meta.media.frame_rate_num">60</property>
  <property name="meta.media.frame_rate_den">1</property>
  <property name="meta.media.colorspace">601</property>
  <property name="meta.media.color_trc">2</property>
  <property name="meta.media.has_b_frames">0</property>
  <property name="meta.media.width">640</property>
  <property name="meta.media.height">360</property>
  <property name="meta.media.color_range">mpeg</property>
  <property name="meta.media.top_field_first">0</property>
  <property name="meta.media.progressive">1</property>
 </producer>
 <producer id="producer559" in="00:00:00.000" out="00:00:01.733">
  <property name="length">105</property>
  <property name="eof">pause</property>
  <property name="resource">/home/xiaoxiae/.cache/kdenlive/proxy/d1e6ba8b0d574345c796262410598cef.mov</property>
  <property name="audio_index">-1</property>
  <property name="video_index">0</property>
  <property name="mute_on_pause">0</property>
  <property name="mlt_service">avformat-novalidate</property>
  <property name="seekable">1</property>
  <property name="aspect_ratio">1</property>
  <property name="kdenlive:clipname">1.mp4</property>
  <property name="kdenlive:folderid">207</property>
  <property name="kdenlive:id">206</property>
  <property name="kdenlive:file_size">404143</property>
  <property name="kdenlive:proxy">/home/xiaoxiae/.cache/kdenlive/proxy/d1e6ba8b0d574345c796262410598cef.mov</property>
  <property name="kdenlive:originalurl">video/Outro/vid/1.mp4</property>
  <property name="kdenlive:original.mlt_type">producer</property>
  <property name="kdenlive:original.in">0</property>
  <property name="kdenlive:original.out">104</property>
  <property name="kdenlive:original.length">105</property>
  <property name="kdenlive:original.eof">pause</property>
  <property name="kdenlive:original.resource">video/Outro/vid/1.mp4</property>
  <property name="kdenlive:original.meta.media.nb_streams">1</property>
  <property name="kdenlive:original.meta.media.0.stream.type">video</property>
  <property name="kdenlive:original.meta.media.0.stream.frame_rate">60</property>
  <property name="kdenlive:original.meta.media.0.stream.sample_aspect_ratio">0</property>
  <property name="kdenlive:original.meta.media.0.codec.width">3840</property>
  <property name="kdenlive:original.meta.media.0.codec.height">2160</property>
  <property name="kdenlive:original.meta.media.0.codec.rotate">0</property>
  <property name="kdenlive:original.meta.media.0.codec.pix_fmt">yuv420p</property>
  <property name="kdenlive:original.meta.media.0.codec.sample_aspect_ratio">0</property>
  <property name="kdenlive:original.meta.media.0.codec.colorspace">709</property>
  <property name="kdenlive:original.meta.media.0.codec.name">h264</property>
  <property name="kdenlive:original.meta.media.0.codec.long_name">H.264 / AVC / MPEG-4 AVC / MPEG-4 part 10</property>
  <property name="kdenlive:original.meta.media.0.codec.bit_rate">1837654</property>
  <property name="kdenlive:original.meta.attr.0.stream.handler_name.markup">VideoHandler</property>
  <property name="kdenlive:original.meta.attr.0.stream.vendor_id.markup">[0][0][0][0]</property>
  <property name="kdenlive:original.meta.attr.major_brand.markup">isom</property>
  <property name="kdenlive:original.meta.attr.minor_version.markup">512</property>
  <property name="kdenlive:original.meta.attr.compatible_brands.markup">isomiso2avc1mp41</property>
  <property name="kdenlive:original.meta.attr.encoder.markup">Lavf58.76.100</property>
  <property name="kdenlive:original.meta.attr.comment.markup">Rendered with Manim Community v0.12.0</property>
  <property name="kdenlive:original.seekable">1</property>
  <property name="kdenlive:original.width">3840</property>
  <property name="kdenlive:original.height">2160</property>
  <property name="kdenlive:original.meta.media.sample_aspect_num">1</property>
  <property name="kdenlive:original.meta.media.sample_aspect_den">1</property>
  <property name="kdenlive:original.aspect_ratio">1</property>
  <property name="kdenlive:original.audio_index">-1</property>
  <property name="kdenlive:original.video_index">0</property>
  <property name="kdenlive:original.mute_on_pause">0</property>
  <property name="kdenlive:original.mlt_service">avformat-novalidate</property>
  <property name="kdenlive:original.kdenlive:folderid">207</property>
  <property name="kdenlive:original.meta.media.frame_rate_num">60</property>
  <property name="kdenlive:original.meta.media.frame_rate_den">1</property>
  <property name="kdenlive:original.meta.media.colorspace">709</property>
  <property name="kdenlive:original.meta.media.color_trc">2</property>
  <property name="kdenlive:original.meta.media.has_b_frames">2</property>
  <property name="kdenlive:original.meta.media.width">3840</property>
  <property name="kdenlive:original.meta.media.height">2160</property>
  <property name="kdenlive:original.meta.media.color_range">mpeg</property>
  <property name="kdenlive:original.kdenlive:id">208</property>
  <property name="kdenlive:original.kdenlive:file_size">404143</property>
  <property name="kdenlive:original.kdenlive:file_hash">d1e6ba8b0d574345c796262410598cef</property>
  <property name="kdenlive:original.backup">1</property>
  <property name="kdenlive:file_hash">d1e6ba8b0d574345c796262410598cef</property>
  <property name="xml">was here</property>
  <property name="meta.media.nb_streams">1</property>
  <property name="meta.media.0.stream.type">video</property>
  <property name="meta.media.0.stream.frame_rate">60</property>
  <property name="meta.media.0.stream.sample_aspect_ratio">0</property>
  <property name="meta.media.0.codec.width">640</property>
  <property name="meta.media.0.codec.height">360</property>
  <property name="meta.media.0.codec.rotate">0</property>
  <property name="meta.media.0.codec.pix_fmt">yuv420p</property>
  <property name="meta.media.0.codec.sample_aspect_ratio">0</property>
  <property name="meta.media.0.codec.colorspace">601</property>
  <property name="meta.media.0.codec.name">h264</property>
  <property name="meta.media.0.codec.long_name">H.264 / AVC / MPEG-4 AVC / MPEG-4 part 10</property>
  <property name="meta.media.0.codec.bit_rate">2028630</property>
  <property name="meta.attr.0.stream.handler_name.markup">VideoHandler</property>
  <property name="meta.attr.0.stream.vendor_id.markup">FFMP</property>
  <property name="meta.attr.0.stream.encoder.markup">Lavc58.134.100 libx264</property>
  <property name="meta.attr.major_brand.markup">qt  </property>
  <property name="meta.attr.minor_version.markup">512</property>
  <property name="meta.attr.compatible_brands.markup">qt  </property>
  <property name="meta.attr.encoder.markup">Lavf58.76.100</property>
  <property name="meta.attr.comment.markup">Rendered with Manim Community v0.12.0</property>
  <property name="meta.media.sample_aspect_num">1</property>
  <property name="meta.media.sample_aspect_den">1</property>
  <property name="meta.media.frame_rate_num">60</property>
  <property name="meta.media.frame_rate_den">1</property>
  <property name="meta.media.colorspace">601</property>
  <property name="meta.media.color_trc">2</property>
  <property name="meta.media.has_b_frames">0</property>
  <property name="meta.media.width">640</property>
  <property name="meta.media.height">360</property>
  <property name="meta.media.color_range">mpeg</property>
  <property name="set.test_audio">1</property>
  <property name="set.test_image">0</property>
 </producer>
 <producer id="producer560" in="00:00:00.000" out="00:00:00.983">
  <property name="length">60</property>
  <property name="eof">pause</property>
  <property name="resource">/home/xiaoxiae/.cache/kdenlive/proxy/1c8dd09423013f8d35fd629cb8aa6798.mov</property>
  <property name="audio_index">-1</property>
  <property name="video_index">0</property>
  <property name="mute_on_pause">0</property>
  <property name="mlt_service">avformat-novalidate</property>
  <property name="seekable">1</property>
  <property name="aspect_ratio">1</property>
  <property name="kdenlive:clipname">2.mp4</property>
  <property name="kdenlive:folderid">207</property>
  <property name="kdenlive:id">208</property>
  <property name="kdenlive:file_size">227885</property>
  <property name="kdenlive:proxy">/home/xiaoxiae/.cache/kdenlive/proxy/1c8dd09423013f8d35fd629cb8aa6798.mov</property>
  <property name="kdenlive:originalurl">video/Outro/vid/2.mp4</property>
  <property name="kdenlive:original.mlt_type">producer</property>
  <property name="kdenlive:original.in">0</property>
  <property name="kdenlive:original.out">59</property>
  <property name="kdenlive:original.length">60</property>
  <property name="kdenlive:original.eof">pause</property>
  <property name="kdenlive:original.resource">video/Outro/vid/2.mp4</property>
  <property name="kdenlive:original.meta.media.nb_streams">1</property>
  <property name="kdenlive:original.meta.media.0.stream.type">video</property>
  <property name="kdenlive:original.meta.media.0.stream.frame_rate">60</property>
  <property name="kdenlive:original.meta.media.0.stream.sample_aspect_ratio">0</property>
  <property name="kdenlive:original.meta.media.0.codec.width">3840</property>
  <property name="kdenlive:original.meta.media.0.codec.height">2160</property>
  <property name="kdenlive:original.meta.media.0.codec.rotate">0</property>
  <property name="kdenlive:original.meta.media.0.codec.pix_fmt">yuv420p</property>
  <property name="kdenlive:original.meta.media.0.codec.sample_aspect_ratio">0</property>
  <property name="kdenlive:original.meta.media.0.codec.colorspace">709</property>
  <property name="kdenlive:original.meta.media.0.codec.name">h264</property>
  <property name="kdenlive:original.meta.media.0.codec.long_name">H.264 / AVC / MPEG-4 AVC / MPEG-4 part 10</property>
  <property name="kdenlive:original.meta.media.0.codec.bit_rate">1810344</property>
  <property name="kdenlive:original.meta.attr.0.stream.handler_name.markup">VideoHandler</property>
  <property name="kdenlive:original.meta.attr.0.stream.vendor_id.markup">[0][0][0][0]</property>
  <property name="kdenlive:original.meta.attr.major_brand.markup">isom</property>
  <property name="kdenlive:original.meta.attr.minor_version.markup">512</property>
  <property name="kdenlive:original.meta.attr.compatible_brands.markup">isomiso2avc1mp41</property>
  <property name="kdenlive:original.meta.attr.encoder.markup">Lavf58.76.100</property>
  <property name="kdenlive:original.meta.attr.comment.markup">Rendered with Manim Community v0.12.0</property>
  <property name="kdenlive:original.seekable">1</property>
  <property name="kdenlive:original.width">3840</property>
  <property name="kdenlive:original.height">2160</property>
  <property name="kdenlive:original.meta.media.sample_aspect_num">1</property>
  <property name="kdenlive:original.meta.media.sample_aspect_den">1</property>
  <property name="kdenlive:original.aspect_ratio">1</property>
  <property name="kdenlive:original.audio_index">-1</property>
  <property name="kdenlive:original.video_index">0</property>
  <property name="kdenlive:original.mute_on_pause">0</property>
  <property name="kdenlive:original.mlt_service">avformat-novalidate</property>
  <property name="kdenlive:original.kdenlive:folderid">207</property>
  <property name="kdenlive:original.meta.media.frame_rate_num">60</property>
  <property name="kdenlive:original.meta.media.frame_rate_den">1</property>
  <property name="kdenlive:original.meta.media.colorspace">709</property>
  <property name="kdenlive:original.meta.media.color_trc">2</property>
  <property name="kdenlive:original.meta.media.has_b_frames">2</property>
  <property name="kdenlive:original.meta.media.width">3840</property>
  <property name="kdenlive:original.meta.media.height">2160</property>
  <property name="kdenlive:original.meta.media.color_range">mpeg</property>
  <property name="kdenlive:original.kdenlive:id">209</property>
  <property name="kdenlive:original.kdenlive:file_size">227885</property>
  <property name="kdenlive:original.kdenlive:file_hash">1c8dd09423013f8d35fd629cb8aa6798</property>
  <property name="kdenlive:original.backup">1</property>
  <property name="kdenlive:file_hash">1c8dd09423013f8d35fd629cb8aa6798</property>
  <property name="xml">was here</property>
  <property name="meta.media.nb_streams">1</property>
  <property name="meta.media.0.stream.type">video</property>
  <property name="meta.media.0.stream.frame_rate">60</property>
  <property name="meta.media.0.stream.sample_aspect_ratio">0</property>
  <property name="meta.media.0.codec.width">640</property>
  <property name="meta.media.0.codec.height">360</property>
  <property name="meta.media.0.codec.rotate">0</property>
  <property name="meta.media.0.codec.pix_fmt">yuv420p</property>
  <property name="meta.media.0.codec.sample_aspect_ratio">0</property>
  <property name="meta.media.0.codec.colorspace">601</property>
  <property name="meta.media.0.codec.name">h264</property>
  <property name="meta.media.0.codec.long_name">H.264 / AVC / MPEG-4 AVC / MPEG-4 part 10</property>
  <property name="meta.media.0.codec.bit_rate">2288904</property>
  <property name="meta.attr.0.stream.handler_name.markup">VideoHandler</property>
  <property name="meta.attr.0.stream.vendor_id.markup">FFMP</property>
  <property name="meta.attr.0.stream.encoder.markup">Lavc58.134.100 libx264</property>
  <property name="meta.attr.major_brand.markup">qt  </property>
  <property name="meta.attr.minor_version.markup">512</property>
  <property name="meta.attr.compatible_brands.markup">qt  </property>
  <property name="meta.attr.encoder.markup">Lavf58.76.100</property>
  <property name="meta.attr.comment.markup">Rendered with Manim Community v0.12.0</property>
  <property name="meta.media.sample_aspect_num">1</property>
  <property name="meta.media.sample_aspect_den">1</property>
  <property name="meta.media.frame_rate_num">60</property>
  <property name="meta.media.frame_rate_den">1</property>
  <property name="meta.media.colorspace">601</property>
  <property name="meta.media.color_trc">2</property>
  <property name="meta.media.has_b_frames">0</property>
  <property name="meta.media.width">640</property>
  <property name="meta.media.height">360</property>
  <property name="meta.media.color_range">mpeg</property>
  <property name="set.test_audio">1</property>
  <property name="set.test_image">0</property>
 </producer>
 <producer id="producer561" in="00:00:00.000" out="00:00:01.983">
  <property name="length">120</property>
  <property name="eof">pause</property>
  <property name="resource">/home/xiaoxiae/.cache/kdenlive/proxy/7b3524f3753f34831a869a7cea020444.mov</property>
  <property name="audio_index">-1</property>
  <property name="video_index">0</property>
  <property name="mute_on_pause">0</property>
  <property name="mlt_service">avformat-novalidate</property>
  <property name="seekable">1</property>
  <property name="aspect_ratio">1</property>
  <property name="kdenlive:clipname">3.mp4</property>
  <property name="kdenlive:folderid">207</property>
  <property name="kdenlive:id">209</property>
  <property name="kdenlive:file_size">1740940</property>
  <property name="kdenlive:proxy">/home/xiaoxiae/.cache/kdenlive/proxy/7b3524f3753f34831a869a7cea020444.mov</property>
  <property name="kdenlive:originalurl">video/Outro/vid/3.mp4</property>
  <property name="kdenlive:original.mlt_type">producer</property>
  <property name="kdenlive:original.in">0</property>
  <property name="kdenlive:original.out">119</property>
  <property name="kdenlive:original.length">120</property>
  <property name="kdenlive:original.eof">pause</property>
  <property name="kdenlive:original.resource">video/Outro/vid/3.mp4</property>
  <property name="kdenlive:original.meta.media.nb_streams">1</property>
  <property name="kdenlive:original.meta.media.0.stream.type">video</property>
  <property name="kdenlive:original.meta.media.0.stream.frame_rate">60</property>
  <property name="kdenlive:original.meta.media.0.stream.sample_aspect_ratio">0</property>
  <property name="kdenlive:original.meta.media.0.codec.width">3840</property>
  <property name="kdenlive:original.meta.media.0.codec.height">2160</property>
  <property name="kdenlive:original.meta.media.0.codec.rotate">0</property>
  <property name="kdenlive:original.meta.media.0.codec.pix_fmt">yuv420p</property>
  <property name="kdenlive:original.meta.media.0.codec.sample_aspect_ratio">0</property>
  <property name="kdenlive:original.meta.media.0.codec.colorspace">709</property>
  <property name="kdenlive:original.meta.media.0.codec.name">h264</property>
  <property name="kdenlive:original.meta.media.0.codec.long_name">H.264 / AVC / MPEG-4 AVC / MPEG-4 part 10</property>
  <property name="kdenlive:original.meta.media.0.codec.bit_rate">6954288</property>
  <property name="kdenlive:original.meta.attr.0.stream.handler_name.markup">VideoHandler</property>
  <property name="kdenlive:original.meta.attr.0.stream.vendor_id.markup">[0][0][0][0]</property>
  <property name="kdenlive:original.meta.attr.major_brand.markup">isom</property>
  <property name="kdenlive:original.meta.attr.minor_version.markup">512</property>
  <property name="kdenlive:original.meta.attr.compatible_brands.markup">isomiso2avc1mp41</property>
  <property name="kdenlive:original.meta.attr.encoder.markup">Lavf58.76.100</property>
  <property name="kdenlive:original.meta.attr.comment.markup">Rendered with Manim Community v0.12.0</property>
  <property name="kdenlive:original.seekable">1</property>
  <property name="kdenlive:original.width">3840</property>
  <property name="kdenlive:original.height">2160</property>
  <property name="kdenlive:original.meta.media.sample_aspect_num">1</property>
  <property name="kdenlive:original.meta.media.sample_aspect_den">1</property>
  <property name="kdenlive:original.aspect_ratio">1</property>
  <property name="kdenlive:original.audio_index">-1</property>
  <property name="kdenlive:original.video_index">0</property>
  <property name="kdenlive:original.mute_on_pause">0</property>
  <property name="kdenlive:original.mlt_service">avformat-novalidate</property>
  <property name="kdenlive:original.kdenlive:folderid">207</property>
  <property name="kdenlive:original.meta.media.frame_rate_num">60</property>
  <property name="kdenlive:original.meta.media.frame_rate_den">1</property>
  <property name="kdenlive:original.meta.media.colorspace">709</property>
  <property name="kdenlive:original.meta.media.color_trc">2</property>
  <property name="kdenlive:original.meta.media.has_b_frames">2</property>
  <property name="kdenlive:original.meta.media.width">3840</property>
  <property name="kdenlive:original.meta.media.height">2160</property>
  <property name="kdenlive:original.meta.media.color_range">mpeg</property>
  <property name="kdenlive:original.kdenlive:id">210</property>
  <property name="kdenlive:original.kdenlive:file_size">1740940</property>
  <property name="kdenlive:original.kdenlive:file_hash">7b3524f3753f34831a869a7cea020444</property>
  <property name="kdenlive:original.backup">1</property>
  <property name="kdenlive:file_hash">7b3524f3753f34831a869a7cea020444</property>
  <property name="xml">was here</property>
  <property name="meta.media.nb_streams">1</property>
  <property name="meta.media.0.stream.type">video</property>
  <property name="meta.media.0.stream.frame_rate">60</property>
  <property name="meta.media.0.stream.sample_aspect_ratio">0</property>
  <property name="meta.media.0.codec.width">640</property>
  <property name="meta.media.0.codec.height">360</property>
  <property name="meta.media.0.codec.rotate">0</property>
  <property name="meta.media.0.codec.pix_fmt">yuv420p</property>
  <property name="meta.media.0.codec.sample_aspect_ratio">0</property>
  <property name="meta.media.0.codec.colorspace">601</property>
  <property name="meta.media.0.codec.name">h264</property>
  <property name="meta.media.0.codec.long_name">H.264 / AVC / MPEG-4 AVC / MPEG-4 part 10</property>
  <property name="meta.media.0.codec.bit_rate">6175680</property>
  <property name="meta.attr.0.stream.handler_name.markup">VideoHandler</property>
  <property name="meta.attr.0.stream.vendor_id.markup">FFMP</property>
  <property name="meta.attr.0.stream.encoder.markup">Lavc58.134.100 libx264</property>
  <property name="meta.attr.major_brand.markup">qt  </property>
  <property name="meta.attr.minor_version.markup">512</property>
  <property name="meta.attr.compatible_brands.markup">qt  </property>
  <property name="meta.attr.encoder.markup">Lavf58.76.100</property>
  <property name="meta.attr.comment.markup">Rendered with Manim Community v0.12.0</property>
  <property name="meta.media.sample_aspect_num">1</property>
  <property name="meta.media.sample_aspect_den">1</property>
  <property name="meta.media.frame_rate_num">60</property>
  <property name="meta.media.frame_rate_den">1</property>
  <property name="meta.media.colorspace">601</property>
  <property name="meta.media.color_trc">2</property>
  <property name="meta.media.has_b_frames">0</property>
  <property name="meta.media.width">640</property>
  <property name="meta.media.height">360</property>
  <property name="meta.media.color_range">mpeg</property>
  <property name="set.test_audio">1</property>
  <property name="set.test_image">0</property>
  <property name="meta.media.top_field_first">0</property>
  <property name="meta.media.progressive">1</property>
 </producer>
 <producer id="producer562" in="00:00:00.000" out="00:00:00.983">
  <property name="length">60</property>
  <property name="eof">pause</property>
  <property name="resource">/home/xiaoxiae/.cache/kdenlive/proxy/e229397abbd149fe71ff076a256861e9.mov</property>
  <property name="audio_index">-1</property>
  <property name="video_index">0</property>
  <property name="mute_on_pause">0</property>
  <property name="mlt_service">avformat-novalidate</property>
  <property name="seekable">1</property>
  <property name="aspect_ratio">1</property>
  <property name="kdenlive:clipname">4.mp4</property>
  <property name="kdenlive:folderid">207</property>
  <property name="kdenlive:id">210</property>
  <property name="kdenlive:file_size">1360174</property>
  <property name="kdenlive:proxy">/home/xiaoxiae/.cache/kdenlive/proxy/e229397abbd149fe71ff076a256861e9.mov</property>
  <property name="kdenlive:originalurl">video/Outro/vid/4.mp4</property>
  <property name="kdenlive:original.mlt_type">producer</property>
  <property name="kdenlive:original.in">0</property>
  <property name="kdenlive:original.out">59</property>
  <property name="kdenlive:original.length">60</property>
  <property name="kdenlive:original.eof">pause</property>
  <property name="kdenlive:original.resource">video/Outro/vid/4.mp4</property>
  <property name="kdenlive:original.meta.media.nb_streams">1</property>
  <property name="kdenlive:original.meta.media.0.stream.type">video</property>
  <property name="kdenlive:original.meta.media.0.stream.frame_rate">60</property>
  <property name="kdenlive:original.meta.media.0.stream.sample_aspect_ratio">0</property>
  <property name="kdenlive:original.meta.media.0.codec.width">3840</property>
  <property name="kdenlive:original.meta.media.0.codec.height">2160</property>
  <property name="kdenlive:original.meta.media.0.codec.rotate">0</property>
  <property name="kdenlive:original.meta.media.0.codec.pix_fmt">yuv420p</property>
  <property name="kdenlive:original.meta.media.0.codec.sample_aspect_ratio">0</property>
  <property name="kdenlive:original.meta.media.0.codec.colorspace">709</property>
  <property name="kdenlive:original.meta.media.0.codec.name">h264</property>
  <property name="kdenlive:original.meta.media.0.codec.long_name">H.264 / AVC / MPEG-4 AVC / MPEG-4 part 10</property>
  <property name="kdenlive:original.meta.media.0.codec.bit_rate">10868912</property>
  <property name="kdenlive:original.meta.attr.0.stream.handler_name.markup">VideoHandler</property>
  <property name="kdenlive:original.meta.attr.0.stream.vendor_id.markup">[0][0][0][0]</property>
  <property name="kdenlive:original.meta.attr.major_brand.markup">isom</property>
  <property name="kdenlive:original.meta.attr.minor_version.markup">512</property>
  <property name="kdenlive:original.meta.attr.compatible_brands.markup">isomiso2avc1mp41</property>
  <property name="kdenlive:original.meta.attr.encoder.markup">Lavf58.76.100</property>
  <property name="kdenlive:original.meta.attr.comment.markup">Rendered with Manim Community v0.12.0</property>
  <property name="kdenlive:original.seekable">1</property>
  <property name="kdenlive:original.width">3840</property>
  <property name="kdenlive:original.height">2160</property>
  <property name="kdenlive:original.meta.media.sample_aspect_num">1</property>
  <property name="kdenlive:original.meta.media.sample_aspect_den">1</property>
  <property name="kdenlive:original.aspect_ratio">1</property>
  <property name="kdenlive:original.audio_index">-1</property>
  <property name="kdenlive:original.video_index">0</property>
  <property name="kdenlive:original.mute_on_pause">0</property>
  <property name="kdenlive:original.mlt_service">avformat-novalidate</property>
  <property name="kdenlive:original.kdenlive:folderid">207</property>
  <property name="kdenlive:original.meta.media.frame_rate_num">60</property>
  <property name="kdenlive:original.meta.media.frame_rate_den">1</property>
  <property name="kdenlive:original.meta.media.colorspace">709</property>
  <property name="kdenlive:original.meta.media.color_trc">2</property>
  <property name="kdenlive:original.meta.media.has_b_frames">2</property>
  <property name="kdenlive:original.meta.media.width">3840</property>
  <property name="kdenlive:original.meta.media.height">2160</property>
  <property name="kdenlive:original.meta.media.color_range">mpeg</property>
  <property name="kdenlive:original.kdenlive:id">211</property>
  <property name="kdenlive:original.kdenlive:file_size">1360174</property>
  <property name="kdenlive:original.kdenlive:file_hash">e229397abbd149fe71ff076a256861e9</property>
  <property name="kdenlive:original.backup">1</property>
  <property name="kdenlive:file_hash">e229397abbd149fe71ff076a256861e9</property>
  <property name="xml">was here</property>
  <property name="meta.media.nb_streams">1</property>
  <property name="meta.media.0.stream.type">video</property>
  <property name="meta.media.0.stream.frame_rate">60</property>
  <property name="meta.media.0.stream.sample_aspect_ratio">0</property>
  <property name="meta.media.0.codec.width">640</property>
  <property name="meta.media.0.codec.height">360</property>
  <property name="meta.media.0.codec.rotate">0</property>
  <property name="meta.media.0.codec.pix_fmt">yuv420p</property>
  <property name="meta.media.0.codec.sample_aspect_ratio">0</property>
  <property name="meta.media.0.codec.colorspace">601</property>
  <property name="meta.media.0.codec.name">h264</property>
  <property name="meta.media.0.codec.long_name">H.264 / AVC / MPEG-4 AVC / MPEG-4 part 10</property>
  <property name="meta.media.0.codec.bit_rate">8339952</property>
  <property name="meta.attr.0.stream.handler_name.markup">VideoHandler</property>
  <property name="meta.attr.0.stream.vendor_id.markup">FFMP</property>
  <property name="meta.attr.0.stream.encoder.markup">Lavc58.134.100 libx264</property>
  <property name="meta.attr.major_brand.markup">qt  </property>
  <property name="meta.attr.minor_version.markup">512</property>
  <property name="meta.attr.compatible_brands.markup">qt  </property>
  <property name="meta.attr.encoder.markup">Lavf58.76.100</property>
  <property name="meta.attr.comment.markup">Rendered with Manim Community v0.12.0</property>
  <property name="meta.media.sample_aspect_num">1</property>
  <property name="meta.media.sample_aspect_den">1</property>
  <property name="meta.media.frame_rate_num">60</property>
  <property name="meta.media.frame_rate_den">1</property>
  <property name="meta.media.colorspace">601</property>
  <property name="meta.media.color_trc">2</property>
  <property name="meta.media.has_b_frames">0</property>
  <property name="meta.media.width">640</property>
  <property name="meta.media.height">360</property>
  <property name="meta.media.color_range">mpeg</property>
  <property name="set.test_audio">1</property>
  <property name="set.test_image">0</property>
  <property name="meta.media.top_field_first">0</property>
  <property name="meta.media.progressive">1</property>
 </producer>
 <producer id="producer563" in="00:00:00.000" out="00:00:00.983">
  <property name="length">60</property>
  <property name="eof">pause</property>
  <property name="resource">/home/xiaoxiae/.cache/kdenlive/proxy/0f1fa26e5ad411cd917a7aae9514504c.mov</property>
  <property name="audio_index">-1</property>
  <property name="video_index">0</property>
  <property name="mute_on_pause">0</property>
  <property name="mlt_service">avformat-novalidate</property>
  <property name="seekable">1</property>
  <property name="aspect_ratio">1</property>
  <property name="kdenlive:clipname">5.mp4</property>
  <property name="kdenlive:folderid">207</property>
  <property name="kdenlive:id">211</property>
  <property name="kdenlive:file_size">245417</property>
  <property name="kdenlive:proxy">/home/xiaoxiae/.cache/kdenlive/proxy/0f1fa26e5ad411cd917a7aae9514504c.mov</property>
  <property name="kdenlive:originalurl">video/Outro/vid/5.mp4</property>
  <property name="kdenlive:original.mlt_type">producer</property>
  <property name="kdenlive:original.in">0</property>
  <property name="kdenlive:original.out">59</property>
  <property name="kdenlive:original.length">60</property>
  <property name="kdenlive:original.eof">pause</property>
  <property name="kdenlive:original.resource">video/Outro/vid/5.mp4</property>
  <property name="kdenlive:original.meta.media.nb_streams">1</property>
  <property name="kdenlive:original.meta.media.0.stream.type">video</property>
  <property name="kdenlive:original.meta.media.0.stream.frame_rate">60</property>
  <property name="kdenlive:original.meta.media.0.stream.sample_aspect_ratio">0</property>
  <property name="kdenlive:original.meta.media.0.codec.width">3840</property>
  <property name="kdenlive:original.meta.media.0.codec.height">2160</property>
  <property name="kdenlive:original.meta.media.0.codec.rotate">0</property>
  <property name="kdenlive:original.meta.media.0.codec.pix_fmt">yuv420p</property>
  <property name="kdenlive:original.meta.media.0.codec.sample_aspect_ratio">0</property>
  <property name="kdenlive:original.meta.media.0.codec.colorspace">709</property>
  <property name="kdenlive:original.meta.media.0.codec.name">h264</property>
  <property name="kdenlive:original.meta.media.0.codec.long_name">H.264 / AVC / MPEG-4 AVC / MPEG-4 part 10</property>
  <property name="kdenlive:original.meta.media.0.codec.bit_rate">1950280</property>
  <property name="kdenlive:original.meta.attr.0.stream.handler_name.markup">VideoHandler</property>
  <property name="kdenlive:original.meta.attr.0.stream.vendor_id.markup">[0][0][0][0]</property>
  <property name="kdenlive:original.meta.attr.major_brand.markup">isom</property>
  <property name="kdenlive:original.meta.attr.minor_version.markup">512</property>
  <property name="kdenlive:original.meta.attr.compatible_brands.markup">isomiso2avc1mp41</property>
  <property name="kdenlive:original.meta.attr.encoder.markup">Lavf58.76.100</property>
  <property name="kdenlive:original.meta.attr.comment.markup">Rendered with Manim Community v0.12.0</property>
  <property name="kdenlive:original.seekable">1</property>
  <property name="kdenlive:original.width">3840</property>
  <property name="kdenlive:original.height">2160</property>
  <property name="kdenlive:original.meta.media.sample_aspect_num">1</property>
  <property name="kdenlive:original.meta.media.sample_aspect_den">1</property>
  <property name="kdenlive:original.aspect_ratio">1</property>
  <property name="kdenlive:original.audio_index">-1</property>
  <property name="kdenlive:original.video_index">0</property>
  <property name="kdenlive:original.mute_on_pause">0</property>
  <property name="kdenlive:original.mlt_service">avformat-novalidate</property>
  <property name="kdenlive:original.kdenlive:folderid">207</property>
  <property name="kdenlive:original.meta.media.frame_rate_num">60</property>
  <property name="kdenlive:original.meta.media.frame_rate_den">1</property>
  <property name="kdenlive:original.meta.media.colorspace">709</property>
  <property name="kdenlive:original.meta.media.color_trc">2</property>
  <property name="kdenlive:original.meta.media.has_b_frames">2</property>
  <property name="kdenlive:original.meta.media.width">3840</property>
  <property name="kdenlive:original.meta.media.height">2160</property>
  <property name="kdenlive:original.meta.media.color_range">mpeg</property>
  <property name="kdenlive:original.kdenlive:id">212</property>
  <property name="kdenlive:original.kdenlive:file_size">245417</property>
  <property name="kdenlive:original.kdenlive:file_hash">0f1fa26e5ad411cd917a7aae9514504c</property>
  <property name="kdenlive:original.backup">1</property>
  <property name="kdenlive:file_hash">0f1fa26e5ad411cd917a7aae9514504c</property>
  <property name="xml">was here</property>
  <property name="meta.media.nb_streams">1</property>
  <property name="meta.media.0.stream.type">video</property>
  <property name="meta.media.0.stream.frame_rate">60</property>
  <property name="meta.media.0.stream.sample_aspect_ratio">0</property>
  <property name="meta.media.0.codec.width">640</property>
  <property name="meta.media.0.codec.height">360</property>
  <property name="meta.media.0.codec.rotate">0</property>
  <property name="meta.media.0.codec.pix_fmt">yuv420p</property>
  <property name="meta.media.0.codec.sample_aspect_ratio">0</property>
  <property name="meta.media.0.codec.colorspace">601</property>
  <property name="meta.media.0.codec.name">h264</property>
  <property name="meta.media.0.codec.long_name">H.264 / AVC / MPEG-4 AVC / MPEG-4 part 10</property>
  <property name="meta.media.0.codec.bit_rate">6467704</property>
  <property name="meta.attr.0.stream.handler_name.markup">VideoHandler</property>
  <property name="meta.attr.0.stream.vendor_id.markup">FFMP</property>
  <property name="meta.attr.0.stream.encoder.markup">Lavc58.134.100 libx264</property>
  <property name="meta.attr.major_brand.markup">qt  </property>
  <property name="meta.attr.minor_version.markup">512</property>
  <property name="meta.attr.compatible_brands.markup">qt  </property>
  <property name="meta.attr.encoder.markup">Lavf58.76.100</property>
  <property name="meta.attr.comment.markup">Rendered with Manim Community v0.12.0</property>
  <property name="meta.media.sample_aspect_num">1</property>
  <property name="meta.media.sample_aspect_den">1</property>
  <property name="meta.media.frame_rate_num">60</property>
  <property name="meta.media.frame_rate_den">1</property>
  <property name="meta.media.colorspace">601</property>
  <property name="meta.media.color_trc">2</property>
  <property name="meta.media.has_b_frames">0</property>
  <property name="meta.media.width">640</property>
  <property name="meta.media.height">360</property>
  <property name="meta.media.color_range">mpeg</property>
  <property name="set.test_audio">1</property>
  <property name="set.test_image">0</property>
  <property name="meta.media.top_field_first">0</property>
  <property name="meta.media.progressive">1</property>
 </producer>
 <producer id="producer564" in="00:00:00.000" out="00:00:00.983">
  <property name="length">60</property>
  <property name="eof">pause</property>
  <property name="resource">/home/xiaoxiae/.cache/kdenlive/proxy/e461bd6dbbcaafb9b399bf8e1a437616.mov</property>
  <property name="audio_index">-1</property>
  <property name="video_index">0</property>
  <property name="mute_on_pause">0</property>
  <property name="mlt_service">avformat-novalidate</property>
  <property name="seekable">1</property>
  <property name="aspect_ratio">1</property>
  <property name="kdenlive:clipname">6.mp4</property>
  <property name="kdenlive:folderid">207</property>
  <property name="kdenlive:id">212</property>
  <property name="kdenlive:file_size">525200</property>
  <property name="kdenlive:proxy">/home/xiaoxiae/.cache/kdenlive/proxy/e461bd6dbbcaafb9b399bf8e1a437616.mov</property>
  <property name="kdenlive:originalurl">video/Outro/vid/6.mp4</property>
  <property name="kdenlive:original.mlt_type">producer</property>
  <property name="kdenlive:original.in">0</property>
  <property name="kdenlive:original.out">59</property>
  <property name="kdenlive:original.length">60</property>
  <property name="kdenlive:original.eof">pause</property>
  <property name="kdenlive:original.resource">video/Outro/vid/6.mp4</property>
  <property name="kdenlive:original.meta.media.nb_streams">1</property>
  <property name="kdenlive:original.meta.media.0.stream.type">video</property>
  <property name="kdenlive:original.meta.media.0.stream.frame_rate">60</property>
  <property name="kdenlive:original.meta.media.0.stream.sample_aspect_ratio">0</property>
  <property name="kdenlive:original.meta.media.0.codec.width">3840</property>
  <property name="kdenlive:original.meta.media.0.codec.height">2160</property>
  <property name="kdenlive:original.meta.media.0.codec.rotate">0</property>
  <property name="kdenlive:original.meta.media.0.codec.pix_fmt">yuv420p</property>
  <property name="kdenlive:original.meta.media.0.codec.sample_aspect_ratio">0</property>
  <property name="kdenlive:original.meta.media.0.codec.colorspace">709</property>
  <property name="kdenlive:original.meta.media.0.codec.name">h264</property>
  <property name="kdenlive:original.meta.media.0.codec.long_name">H.264 / AVC / MPEG-4 AVC / MPEG-4 part 10</property>
  <property name="kdenlive:original.meta.media.0.codec.bit_rate">4188576</property>
  <property name="kdenlive:original.meta.attr.0.stream.handler_name.markup">VideoHandler</property>
  <property name="kdenlive:original.meta.attr.0.stream.vendor_id.markup">[0][0][0][0]</property>
  <property name="kdenlive:original.meta.attr.major_brand.markup">isom</property>
  <property name="kdenlive:original.meta.attr.minor_version.markup">512</property>
  <property name="kdenlive:original.meta.attr.compatible_brands.markup">isomiso2avc1mp41</property>
  <property name="kdenlive:original.meta.attr.encoder.markup">Lavf58.76.100</property>
  <property name="kdenlive:original.meta.attr.comment.markup">Rendered with Manim Community v0.12.0</property>
  <property name="kdenlive:original.seekable">1</property>
  <property name="kdenlive:original.width">3840</property>
  <property name="kdenlive:original.height">2160</property>
  <property name="kdenlive:original.meta.media.sample_aspect_num">1</property>
  <property name="kdenlive:original.meta.media.sample_aspect_den">1</property>
  <property name="kdenlive:original.aspect_ratio">1</property>
  <property name="kdenlive:original.audio_index">-1</property>
  <property name="kdenlive:original.video_index">0</property>
  <property name="kdenlive:original.mute_on_pause">0</property>
  <property name="kdenlive:original.mlt_service">avformat-novalidate</property>
  <property name="kdenlive:original.kdenlive:folderid">207</property>
  <property name="kdenlive:original.meta.media.frame_rate_num">60</property>
  <property name="kdenlive:original.meta.media.frame_rate_den">1</property>
  <property name="kdenlive:original.meta.media.colorspace">709</property>
  <property name="kdenlive:original.meta.media.color_trc">2</property>
  <property name="kdenlive:original.meta.media.has_b_frames">2</property>
  <property name="kdenlive:original.meta.media.width">3840</property>
  <property name="kdenlive:original.meta.media.height">2160</property>
  <property name="kdenlive:original.meta.media.color_range">mpeg</property>
  <property name="kdenlive:original.kdenlive:id">213</property>
  <property name="kdenlive:original.kdenlive:file_size">525200</property>
  <property name="kdenlive:original.kdenlive:file_hash">e461bd6dbbcaafb9b399bf8e1a437616</property>
  <property name="kdenlive:original.backup">1</property>
  <property name="kdenlive:file_hash">e461bd6dbbcaafb9b399bf8e1a437616</property>
  <property name="xml">was here</property>
  <property name="meta.media.nb_streams">1</property>
  <property name="meta.media.0.stream.type">video</property>
  <property name="meta.media.0.stream.frame_rate">60</property>
  <property name="meta.media.0.stream.sample_aspect_ratio">0</property>
  <property name="meta.media.0.codec.width">640</property>
  <property name="meta.media.0.codec.height">360</property>
  <property name="meta.media.0.codec.rotate">0</property>
  <property name="meta.media.0.codec.pix_fmt">yuv420p</property>
  <property name="meta.media.0.codec.sample_aspect_ratio">0</property>
  <property name="meta.media.0.codec.colorspace">601</property>
  <property name="meta.media.0.codec.name">h264</property>
  <property name="meta.media.0.codec.long_name">H.264 / AVC / MPEG-4 AVC / MPEG-4 part 10</property>
  <property name="meta.media.0.codec.bit_rate">4068800</property>
  <property name="meta.attr.0.stream.handler_name.markup">VideoHandler</property>
  <property name="meta.attr.0.stream.vendor_id.markup">FFMP</property>
  <property name="meta.attr.0.stream.encoder.markup">Lavc58.134.100 libx264</property>
  <property name="meta.attr.major_brand.markup">qt  </property>
  <property name="meta.attr.minor_version.markup">512</property>
  <property name="meta.attr.compatible_brands.markup">qt  </property>
  <property name="meta.attr.encoder.markup">Lavf58.76.100</property>
  <property name="meta.attr.comment.markup">Rendered with Manim Community v0.12.0</property>
  <property name="meta.media.sample_aspect_num">1</property>
  <property name="meta.media.sample_aspect_den">1</property>
  <property name="meta.media.frame_rate_num">60</property>
  <property name="meta.media.frame_rate_den">1</property>
  <property name="meta.media.colorspace">601</property>
  <property name="meta.media.color_trc">2</property>
  <property name="meta.media.has_b_frames">0</property>
  <property name="meta.media.width">640</property>
  <property name="meta.media.height">360</property>
  <property name="meta.media.color_range">mpeg</property>
  <property name="set.test_audio">1</property>
  <property name="set.test_image">0</property>
 </producer>
 <playlist id="playlist6">
  <entry producer="producer423" in="00:00:00.000" out="00:00:00.983">
   <property name="kdenlive:id">170</property>
  </entry>
  <blank length="00:00:01.683"/>
  <entry producer="producer424" in="00:00:00.000" out="00:00:02.867">
   <property name="kdenlive:id">182</property>
  </entry>
  <blank length="00:00:00.683"/>
  <entry producer="producer425" in="00:00:00.000" out="00:00:00.983">
   <property name="kdenlive:id">191</property>
  </entry>
  <blank length="00:00:02.483"/>
  <entry producer="producer426" in="00:00:00.000" out="00:00:01.483">
   <property name="kdenlive:id">192</property>
  </entry>
  <blank length="00:00:01.917"/>
  <entry producer="producer427" in="00:00:00.000" out="00:00:02.800">
   <property name="kdenlive:id">193</property>
  </entry>
  <entry producer="producer428" in="00:00:00.000" out="00:00:01.783">
   <property name="kdenlive:id">194</property>
  </entry>
  <blank length="00:00:01.150"/>
  <entry producer="producer429" in="00:00:00.000" out="00:00:00.983">
   <property name="kdenlive:id">195</property>
  </entry>
  <entry producer="producer430" in="00:00:00.000" out="00:00:00.983">
   <property name="kdenlive:id">196</property>
  </entry>
  <blank length="00:00:00.250"/>
  <entry producer="producer431" in="00:00:00.000" out="00:00:01.250">
   <property name="kdenlive:id">197</property>
  </entry>
  <blank length="00:00:00.517"/>
  <entry producer="producer432" in="00:00:00.000" out="00:00:01.483">
   <property name="kdenlive:id">172</property>
  </entry>
  <entry producer="producer433" in="00:00:00.000" out="00:00:00.983">
   <property name="kdenlive:id">173</property>
  </entry>
  <entry producer="producer434" in="00:00:00.000" out="00:00:00.983">
   <property name="kdenlive:id">174</property>
  </entry>
  <entry producer="producer435" in="00:00:00.000" out="00:00:01.483">
   <property name="kdenlive:id">175</property>
  </entry>
  <blank length="00:00:01.933"/>
  <entry producer="producer436" in="00:00:00.000" out="00:00:00.983">
   <property name="kdenlive:id">176</property>
  </entry>
  <blank length="00:00:02.900"/>
  <entry producer="producer437" in="00:00:00.000" out="00:00:02.183">
   <property name="kdenlive:id">177</property>
  </entry>
  <blank length="00:00:02.333"/>
  <entry producer="producer438" in="00:00:00.000" out="00:00:00.983">
   <property name="kdenlive:id">178</property>
  </entry>
  <entry producer="producer439" in="00:00:00.000" out="00:00:02.467">
   <property name="kdenlive:id">179</property>
  </entry>
  <entry producer="producer440" in="00:00:00.000" out="00:00:00.983">
   <property name="kdenlive:id">180</property>
  </entry>
  <blank length="00:00:03.467"/>
  <entry producer="producer441" in="00:00:00.000" out="00:00:00.983">
   <property name="kdenlive:id">181</property>
  </entry>
  <entry producer="producer442" in="00:00:00.000" out="00:00:01.333">
   <property name="kdenlive:id">183</property>
  </entry>
  <blank length="00:00:00.617"/>
  <entry producer="producer443" in="00:00:00.000" out="00:00:00.983">
   <property name="kdenlive:id">184</property>
  </entry>
  <entry producer="producer444" in="00:00:00.000" out="00:00:00.483">
   <property name="kdenlive:id">185</property>
  </entry>
  <entry producer="producer445" in="00:00:00.000" out="00:00:00.983">
   <property name="kdenlive:id">186</property>
  </entry>
  <blank length="00:00:00.900"/>
  <entry producer="producer446" in="00:00:00.000" out="00:00:01.783">
   <property name="kdenlive:id">187</property>
  </entry>
  <blank length="00:00:01.733"/>
  <entry producer="producer447" in="00:00:00.000" out="00:00:00.983">
   <property name="kdenlive:id">188</property>
  </entry>
  <blank length="00:00:00.933"/>
  <entry producer="producer448" in="00:00:00.000" out="00:00:00.983">
   <property name="kdenlive:id">189</property>
  </entry>
  <blank length="00:00:04.150"/>
  <entry producer="producer449" in="00:00:00.000" out="00:00:00.983">
   <property name="kdenlive:id">190</property>
  </entry>
  <entry producer="producer450" in="00:00:00.000" out="00:00:00.983">
   <property name="kdenlive:id">313</property>
  </entry>
  <blank length="00:00:00.433"/>
  <entry producer="producer451" in="00:00:00.000" out="00:00:00.983">
   <property name="kdenlive:id">325</property>
  </entry>
  <entry producer="producer452" in="00:00:00.000" out="00:00:00.983">
   <property name="kdenlive:id">336</property>
  </entry>
  <blank length="00:00:00.967"/>
  <entry producer="producer453" in="00:00:00.000" out="00:00:02.083">
   <property name="kdenlive:id">347</property>
  </entry>
  <blank length="00:00:00.467"/>
  <entry producer="producer454" in="00:00:00.000" out="00:00:02.083">
   <property name="kdenlive:id">356</property>
  </entry>
  <blank length="00:00:01.483"/>
  <entry producer="producer455" in="00:00:00.000" out="00:00:00.983">
   <property name="kdenlive:id">357</property>
  </entry>
  <entry producer="producer456" in="00:00:00.000" out="00:00:02.783">
   <property name="kdenlive:id">358</property>
  </entry>
  <blank length="00:00:00.767"/>
  <entry producer="producer457" in="00:00:00.000" out="00:00:00.983">
   <property name="kdenlive:id">359</property>
  </entry>
  <entry producer="producer458" in="00:00:00.000" out="00:00:02.483">
   <property name="kdenlive:id">360</property>
  </entry>
  <blank length="00:00:03.650"/>
  <entry producer="producer459" in="00:00:00.000" out="00:00:01.483">
   <property name="kdenlive:id">315</property>
  </entry>
  <blank length="00:00:00.350"/>
  <entry producer="producer460" in="00:00:00.000" out="00:00:00.983">
   <property name="kdenlive:id">316</property>
  </entry>
  <blank length="00:00:06.350"/>
  <entry producer="producer461" in="00:00:00.000" out="00:00:01.183">
   <property name="kdenlive:id">317</property>
  </entry>
  <blank length="00:00:01.800"/>
  <entry producer="producer462" in="00:00:00.000" out="00:00:01.233">
   <property name="kdenlive:id">318</property>
  </entry>
  <blank length="00:00:01.467"/>
  <entry producer="producer463" in="00:00:00.000" out="00:00:01.183">
   <property name="kdenlive:id">319</property>
  </entry>
  <blank length="00:00:01.900"/>
  <entry producer="producer464" in="00:00:00.000" out="00:00:01.233">
   <property name="kdenlive:id">320</property>
  </entry>
  <entry producer="producer465" in="00:00:00.000" out="00:00:01.183">
   <property name="kdenlive:id">321</property>
  </entry>
  <entry producer="producer466" in="00:00:00.000" out="00:00:00.983">
   <property name="kdenlive:id">322</property>
  </entry>
  <blank length="00:00:06.283"/>
  <entry producer="producer467" in="00:00:00.000" out="00:00:01.583">
   <property name="kdenlive:id">323</property>
  </entry>
  <blank length="00:00:02.817"/>
  <entry producer="producer468" in="00:00:00.000" out="00:00:01.383">
   <property name="kdenlive:id">324</property>
  </entry>
  <blank length="00:00:03.133"/>
  <entry producer="producer469" in="00:00:00.000" out="00:00:01.483">
   <property name="kdenlive:id">326</property>
  </entry>
  <blank length="00:00:02.033"/>
  <entry producer="producer470" in="00:00:00.000" out="00:00:01.483">
   <property name="kdenlive:id">327</property>
  </entry>
  <blank length="00:00:06.250"/>
  <entry producer="producer471" in="00:00:00.000" out="00:00:02.483">
   <property name="kdenlive:id">328</property>
  </entry>
  <entry producer="producer472" in="00:00:00.000" out="00:00:00.983">
   <property name="kdenlive:id">329</property>
  </entry>
  <entry producer="producer473" in="00:00:00.000" out="00:00:02.517">
   <property name="kdenlive:id">330</property>
  </entry>
  <blank length="00:00:00.433"/>
  <entry producer="producer474" in="00:00:00.483" out="00:00:01.933">
   <property name="kdenlive:id">331</property>
  </entry>
  <entry producer="producer475" in="00:00:00.000" out="00:00:00.983">
   <property name="kdenlive:id">332</property>
  </entry>
  <entry producer="producer476" in="00:00:00.000" out="00:00:02.800">
   <property name="kdenlive:id">333</property>
  </entry>
  <blank length="00:00:02.317"/>
  <entry producer="producer477" in="00:00:00.000" out="00:00:00.983">
   <property name="kdenlive:id">334</property>
  </entry>
  <entry producer="producer478" in="00:00:00.000" out="00:00:01.483">
   <property name="kdenlive:id">335</property>
  </entry>
  <entry producer="producer479" in="00:00:00.000" out="00:00:00.933">
   <property name="kdenlive:id">337</property>
  </entry>
  <entry producer="producer480" in="00:00:00.000" out="00:00:01.483">
   <property name="kdenlive:id">338</property>
  </entry>
  <entry producer="producer481" in="00:00:00.000" out="00:00:00.867">
   <property name="kdenlive:id">339</property>
  </entry>
  <entry producer="producer482" in="00:00:00.000" out="00:00:01.483">
   <property name="kdenlive:id">340</property>
  </entry>
  <entry producer="producer483" in="00:00:00.000" out="00:00:00.800">
   <property name="kdenlive:id">341</property>
  </entry>
  <entry producer="producer484" in="00:00:00.000" out="00:00:01.483">
   <property name="kdenlive:id">342</property>
  </entry>
  <entry producer="producer485" in="00:00:00.000" out="00:00:00.733">
   <property name="kdenlive:id">343</property>
  </entry>
  <entry producer="producer486" in="00:00:00.000" out="00:00:01.483">
   <property name="kdenlive:id">344</property>
  </entry>
  <entry producer="producer487" in="00:00:00.000" out="00:00:00.683">
   <property name="kdenlive:id">345</property>
  </entry>
  <entry producer="producer488" in="00:00:00.000" out="00:00:01.483">
   <property name="kdenlive:id">346</property>
  </entry>
  <entry producer="producer489" in="00:00:00.000" out="00:00:00.617">
   <property name="kdenlive:id">348</property>
  </entry>
  <entry producer="producer490" in="00:00:00.000" out="00:00:01.483">
   <property name="kdenlive:id">349</property>
  </entry>
  <entry producer="producer491" in="00:00:00.000" out="00:00:00.550">
   <property name="kdenlive:id">350</property>
  </entry>
  <entry producer="producer492" in="00:00:00.000" out="00:00:01.483">
   <property name="kdenlive:id">351</property>
  </entry>
  <entry producer="producer493" in="00:00:00.000" out="00:00:00.983">
   <property name="kdenlive:id">352</property>
  </entry>
  <entry producer="producer494" in="00:00:00.000" out="00:00:02.083">
   <property name="kdenlive:id">353</property>
  </entry>
  <blank length="00:00:01.117"/>
  <entry producer="producer495" in="00:00:00.000" out="00:00:00.983">
   <property name="kdenlive:id">354</property>
  </entry>
  <entry producer="producer496" in="00:00:00.000" out="00:00:00.983">
   <property name="kdenlive:id">372</property>
  </entry>
  <blank length="00:00:02.583"/>
  <entry producer="producer497" in="00:00:00.000" out="00:00:00.983">
   <property name="kdenlive:id">374</property>
  </entry>
  <blank length="00:00:03.417"/>
  <entry producer="producer498" in="00:00:00.000" out="00:00:02.983">
   <property name="kdenlive:id">375</property>
  </entry>
  <blank length="00:00:02.533"/>
  <entry producer="producer499" in="00:00:00.000" out="00:00:00.983">
   <property name="kdenlive:id">376</property>
  </entry>
  <blank length="00:00:03.717"/>
  <entry producer="producer500" in="00:00:00.000" out="00:00:00.983">
   <property name="kdenlive:id">377</property>
  </entry>
  <blank length="00:00:03.683"/>
  <entry producer="producer501" in="00:00:00.000" out="00:00:00.983">
   <property name="kdenlive:id">378</property>
  </entry>
  <blank length="00:00:06.767"/>
  <entry producer="producer502" in="00:00:00.000" out="00:00:03.283">
   <property name="kdenlive:id">379</property>
  </entry>
  <blank length="00:00:03.150"/>
  <entry producer="producer503" in="00:00:00.000" out="00:00:01.083">
   <property name="kdenlive:id">380</property>
  </entry>
  <blank length="00:00:03.933"/>
  <entry producer="producer504" in="00:00:00.000" out="00:00:00.983">
   <property name="kdenlive:id">381</property>
  </entry>
  <entry producer="producer505" in="00:00:00.000" out="00:00:00.983">
   <property name="kdenlive:id">239</property>
  </entry>
  <blank length="00:00:02.450"/>
  <entry producer="producer506" in="00:00:00.000" out="00:00:00.983">
   <property name="kdenlive:id">251</property>
  </entry>
  <blank length="00:00:02.283"/>
  <entry producer="producer507" in="00:00:00.000" out="00:00:00.633">
   <property name="kdenlive:id">257</property>
  </entry>
  <blank length="00:00:04.567"/>
  <entry producer="producer508" in="00:00:00.000" out="00:00:00.983">
   <property name="kdenlive:id">258</property>
  </entry>
  <blank length="00:00:04.083"/>
  <entry producer="producer509" in="00:00:00.000" out="00:00:01.600">
   <property name="kdenlive:id">259</property>
  </entry>
  <entry producer="producer510" in="00:00:00.000" out="00:00:00.983">
   <property name="kdenlive:id">260</property>
  </entry>
  <blank length="00:00:08.433"/>
  <entry producer="producer511" in="00:00:00.000" out="00:00:00.983">
   <property name="kdenlive:id">261</property>
  </entry>
  <blank length="00:00:00.667"/>
  <entry producer="producer512" in="00:00:00.000" out="00:00:00.733">
   <property name="kdenlive:id">262</property>
  </entry>
  <blank length="00:00:04.433"/>
  <entry producer="producer513" in="00:00:00.000" out="00:00:00.983">
   <property name="kdenlive:id">263</property>
  </entry>
  <entry producer="producer514" in="00:00:00.000" out="00:00:00.983">
   <property name="kdenlive:id">241</property>
  </entry>
  <blank length="00:00:05.750"/>
  <entry producer="producer515" in="00:00:00.000" out="00:00:00.983">
   <property name="kdenlive:id">242</property>
  </entry>
  <blank length="00:00:01.917"/>
  <entry producer="producer516" in="00:00:00.000" out="00:00:00.983">
   <property name="kdenlive:id">243</property>
  </entry>
  <blank length="00:00:02.217"/>
  <entry producer="producer517" in="00:00:00.000" out="00:00:00.983">
   <property name="kdenlive:id">244</property>
  </entry>
  <entry producer="producer518" in="00:00:00.000" out="00:00:00.983">
   <property name="kdenlive:id">245</property>
  </entry>
  <blank length="00:00:03.967"/>
  <entry producer="producer519" in="00:00:00.000" out="00:00:00.983">
   <property name="kdenlive:id">246</property>
  </entry>
  <blank length="00:00:01.050"/>
  <entry producer="producer520" in="00:00:00.000" out="00:00:00.983">
   <property name="kdenlive:id">247</property>
  </entry>
  <blank length="00:00:02.200"/>
  <entry producer="producer521" in="00:00:00.000" out="00:00:00.983">
   <property name="kdenlive:id">248</property>
  </entry>
  <entry producer="producer522" in="00:00:00.000" out="00:00:00.983">
   <property name="kdenlive:id">249</property>
  </entry>
  <blank length="00:00:02.967"/>
  <entry producer="producer523" in="00:00:00.000" out="00:00:00.983">
   <property name="kdenlive:id">250</property>
  </entry>
  <blank length="00:00:01.350"/>
  <entry producer="producer524" in="00:00:00.000" out="00:00:00.983">
   <property name="kdenlive:id">252</property>
  </entry>
  <blank length="00:00:01.450"/>
  <entry producer="producer525" in="00:00:00.000" out="00:00:00.983">
   <property name="kdenlive:id">253</property>
  </entry>
  <blank length="00:00:02.367"/>
  <entry producer="producer526" in="00:00:00.000" out="00:00:00.983">
   <property name="kdenlive:id">254</property>
  </entry>
  <blank length="00:00:04.300"/>
  <entry producer="producer527" in="00:00:00.000" out="00:00:00.983">
   <property name="kdenlive:id">255</property>
  </entry>
  <blank length="00:00:12.917"/>
  <entry producer="producer528" in="00:00:00.000" out="00:00:00.983">
   <property name="kdenlive:id">125</property>
  </entry>
  <blank length="00:00:01.067"/>
  <entry producer="producer529" in="00:00:00.000" out="00:00:00.983">
   <property name="kdenlive:id">133</property>
  </entry>
  <entry producer="producer530" in="00:00:00.000" out="00:00:00.983">
   <property name="kdenlive:id">134</property>
  </entry>
  <blank length="00:00:01.650"/>
  <entry producer="producer531" in="00:00:00.000" out="00:00:00.983">
   <property name="kdenlive:id">135</property>
  </entry>
  <blank length="00:00:00.900"/>
  <entry producer="producer532" in="00:00:00.000" out="00:00:00.983">
   <property name="kdenlive:id">136</property>
  </entry>
  <blank length="00:00:00.767"/>
  <entry producer="producer533" in="00:00:00.000" out="00:00:00.983">
   <property name="kdenlive:id">137</property>
  </entry>
  <blank length="00:00:02.600"/>
  <entry producer="producer534" in="00:00:00.000" out="00:00:01.483">
   <property name="kdenlive:id">138</property>
  </entry>
  <blank length="00:00:07.467"/>
  <entry producer="producer535" in="00:00:00.000" out="00:00:00.983">
   <property name="kdenlive:id">139</property>
  </entry>
  <blank length="00:00:00.983"/>
  <entry producer="producer536" in="00:00:00.000" out="00:00:00.983">
   <property name="kdenlive:id">140</property>
  </entry>
  <entry producer="producer537" in="00:00:00.000" out="00:00:00.983">
   <property name="kdenlive:id">127</property>
  </entry>
  <blank length="00:00:01.950"/>
  <entry producer="producer538" in="00:00:00.000" out="00:00:00.983">
   <property name="kdenlive:id">128</property>
  </entry>
  <blank length="00:00:06.783"/>
  <entry producer="producer539" in="00:00:00.000" out="00:00:01.333">
   <property name="kdenlive:id">129</property>
  </entry>
  <blank length="00:00:00.800"/>
  <entry producer="producer540" in="00:00:00.000" out="00:00:00.983">
   <property name="kdenlive:id">130</property>
  </entry>
  <blank length="00:00:00.333"/>
  <entry producer="producer541" in="00:00:00.000" out="00:00:00.983">
   <property name="kdenlive:id">131</property>
  </entry>
  <blank length="00:00:05.600"/>
  <entry producer="producer542" in="00:00:00.000" out="00:00:00.967">
   <property name="kdenlive:id">132</property>
  </entry>
  <entry producer="producer543" in="00:16:23.333" out="00:16:31.650">
   <property name="kdenlive:id">132</property>
   <filter id="filter9" in="00:16:30.650" out="00:16:31.650">
    <property name="start">1</property>
    <property name="level">1</property>
    <property name="mlt_service">brightness</property>
    <property name="kdenlive_id">fade_to_black</property>
    <property name="alpha">00:00:00.000=1;00:00:01.000=0</property>
   </filter>
  </entry>
  <entry producer="producer544" in="00:00:00.000" out="00:00:00.983">
   <property name="kdenlive:id">398</property>
  </entry>
  <entry producer="producer545" in="00:00:00.000" out="00:00:01.383">
   <property name="kdenlive:id">405</property>
  </entry>
  <blank length="00:00:01.500"/>
  <entry producer="producer546" in="00:00:00.000" out="00:00:01.983">
   <property name="kdenlive:id">406</property>
  </entry>
  <blank length="00:00:03.167"/>
  <entry producer="producer547" in="00:00:00.000" out="00:00:00.983">
   <property name="kdenlive:id">407</property>
  </entry>
  <entry producer="producer548" in="00:00:00.000" out="00:00:01.483">
   <property name="kdenlive:id">408</property>
  </entry>
  <blank length="00:00:03.283"/>
  <entry producer="producer549" in="00:00:00.000" out="00:00:01.483">
   <property name="kdenlive:id">409</property>
  </entry>
  <blank length="00:00:07.750"/>
  <entry producer="producer550" in="00:00:00.000" out="00:00:00.983">
   <property name="kdenlive:id">410</property>
  </entry>
  <entry producer="producer551" in="00:00:00.000" out="00:00:00.983">
   <property name="kdenlive:id">411</property>
  </entry>
  <blank length="00:00:00.950"/>
  <entry producer="producer552" in="00:00:00.000" out="00:00:01.483">
   <property name="kdenlive:id">412</property>
  </entry>
  <blank length="00:00:09.967"/>
  <entry producer="producer553" in="00:00:00.000" out="00:00:00.983">
   <property name="kdenlive:id">400</property>
  </entry>
  <entry producer="producer554" in="00:00:00.000" out="00:00:00.983">
   <property name="kdenlive:id">401</property>
  </entry>
  <blank length="00:00:05.017"/>
  <entry producer="producer555" in="00:00:00.000" out="00:00:00.983">
   <property name="kdenlive:id">402</property>
  </entry>
  <blank length="00:00:00.550"/>
  <entry producer="producer556" in="00:00:00.000" out="00:00:00.983">
   <property name="kdenlive:id">403</property>
  </entry>
  <blank length="00:00:01.133"/>
  <entry producer="producer557" in="00:00:00.000" out="00:00:02.333">
   <property name="kdenlive:id">404</property>
  </entry>
  <entry producer="producer558" in="00:39:10.000" out="00:39:14.350">
   <property name="kdenlive:id">404</property>
   <filter id="filter10" in="00:39:13.400" out="00:39:14.350">
    <property name="start">1</property>
    <property name="level">1</property>
    <property name="mlt_service">brightness</property>
    <property name="kdenlive_id">fade_to_black</property>
    <property name="alpha">00:00:00.000=1;00:00:00.950=0</property>
   </filter>
  </entry>
  <entry producer="producer559" in="00:00:00.000" out="00:00:01.733">
   <property name="kdenlive:id">206</property>
  </entry>
  <blank length="00:00:03.233"/>
  <entry producer="producer560" in="00:00:00.000" out="00:00:00.983">
   <property name="kdenlive:id">208</property>
  </entry>
  <entry producer="producer561" in="00:00:00.000" out="00:00:01.983">
   <property name="kdenlive:id">209</property>
  </entry>
  <blank length="00:00:02.933"/>
  <entry producer="producer562" in="00:00:00.000" out="00:00:00.983">
   <property name="kdenlive:id">210</property>
  </entry>
  <entry producer="producer563" in="00:00:00.000" out="00:00:00.983">
   <property name="kdenlive:id">211</property>
  </entry>
  <blank length="00:00:01.683"/>
  <entry producer="producer564" in="00:00:00.000" out="00:00:00.983">
   <property name="kdenlive:id">212</property>
  </entry>
 </playlist>
 <playlist id="playlist7"/>
 <tractor id="tractor3" in="00:00:00.000" out="00:07:14.233">
  <property name="kdenlive:trackheight">67</property>
  <property name="kdenlive:timeline_active">0</property>
  <property name="kdenlive:collapsed">0</property>
  <property name="kdenlive:thumbs_format"/>
  <property name="kdenlive:audio_rec"/>
  <track hide="audio" producer="playlist6"/>
  <track hide="audio" producer="playlist7"/>
 </tractor>
 <playlist id="playlist8">
  <blank length="00:00:01.000"/>
  <entry producer="producer135" in="00:00:00.000" out="00:00:01.667">
   <property name="kdenlive:id">154</property>
  </entry>
  <blank length="00:00:02.883"/>
  <entry producer="producer144" in="00:00:00.000" out="00:00:00.667">
   <property name="kdenlive:id">163</property>
  </entry>
  <blank length="00:00:01.000"/>
  <entry producer="producer145" in="00:00:00.000" out="00:00:02.467">
   <property name="kdenlive:id">164</property>
  </entry>
  <blank length="00:00:01.500"/>
  <entry producer="producer146" in="00:00:00.000" out="00:00:01.900">
   <property name="kdenlive:id">165</property>
  </entry>
  <blank length="00:00:04.617"/>
  <entry producer="producer147" in="00:00:00.000" out="00:00:01.133">
   <property name="kdenlive:id">167</property>
  </entry>
  <blank length="00:00:02.000"/>
  <entry producer="producer152" in="00:00:00.000" out="00:00:00.233">
   <property name="kdenlive:id">169</property>
  </entry>
  <blank length="00:00:01.267"/>
  <entry producer="producer125" in="00:00:00.000" out="00:00:00.500">
   <property name="kdenlive:id">144</property>
  </entry>
  <blank length="00:00:05.000"/>
  <entry producer="producer129" in="00:00:00.000" out="00:00:01.917">
   <property name="kdenlive:id">148</property>
  </entry>
  <blank length="00:00:01.000"/>
  <entry producer="producer130" in="00:00:00.000" out="00:00:02.883">
   <property name="kdenlive:id">149</property>
  </entry>
  <blank length="00:00:02.200"/>
  <entry producer="producer131" in="00:00:00.000" out="00:00:02.317">
   <property name="kdenlive:id">150</property>
  </entry>
  <blank length="00:00:04.483"/>
  <entry producer="producer134" in="00:00:00.000" out="00:00:03.450">
   <property name="kdenlive:id">153</property>
  </entry>
  <blank length="00:00:02.350"/>
  <entry producer="producer137" in="00:00:00.000" out="00:00:00.600">
   <property name="kdenlive:id">156</property>
  </entry>
  <blank length="00:00:02.500"/>
  <entry producer="producer140" in="00:00:00.000" out="00:00:00.883">
   <property name="kdenlive:id">159</property>
  </entry>
  <blank length="00:00:01.800"/>
  <entry producer="producer141" in="00:00:00.000" out="00:00:01.717">
   <property name="kdenlive:id">160</property>
  </entry>
  <blank length="00:00:01.000"/>
  <entry producer="producer142" in="00:00:00.000" out="00:00:00.917">
   <property name="kdenlive:id">161</property>
  </entry>
  <blank length="00:00:01.000"/>
  <entry producer="producer143" in="00:00:00.000" out="00:00:04.133">
   <property name="kdenlive:id">162</property>
  </entry>
  <blank length="00:00:02.000"/>
  <entry producer="producer248" in="00:00:00.000" out="00:00:00.417">
   <property name="kdenlive:id">277</property>
  </entry>
  <blank length="00:00:02.000"/>
  <entry producer="producer271" in="00:00:00.000" out="00:00:00.950">
   <property name="kdenlive:id">299</property>
  </entry>
  <blank length="00:00:02.150"/>
  <entry producer="producer280" in="00:00:00.000" out="00:00:00.400">
   <property name="kdenlive:id">308</property>
  </entry>
  <blank length="00:00:02.100"/>
  <entry producer="producer281" in="00:00:00.000" out="00:00:01.467">
   <property name="kdenlive:id">309</property>
  </entry>
  <blank length="00:00:03.800"/>
  <entry producer="producer282" in="00:00:00.000" out="00:00:00.750">
   <property name="kdenlive:id">311</property>
  </entry>
  <blank length="00:00:03.500"/>
  <entry producer="producer239" in="00:00:00.000" out="00:00:03.633">
   <property name="kdenlive:id">267</property>
  </entry>
  <blank length="00:00:01.500"/>
  <entry producer="producer240" in="00:00:00.000" out="00:00:00.333">
   <property name="kdenlive:id">268</property>
  </entry>
  <blank length="00:00:01.000"/>
  <entry producer="producer241" in="00:00:00.000" out="00:00:06.333">
   <property name="kdenlive:id">269</property>
  </entry>
  <blank length="00:00:01.200"/>
  <entry producer="producer242" in="00:00:00.000" out="00:00:01.783">
   <property name="kdenlive:id">270</property>
  </entry>
  <blank length="00:00:01.250"/>
  <entry producer="producer243" in="00:00:00.000" out="00:00:01.450">
   <property name="kdenlive:id">271</property>
  </entry>
  <blank length="00:00:01.200"/>
  <entry producer="producer244" in="00:00:00.000" out="00:00:01.883">
   <property name="kdenlive:id">272</property>
  </entry>
  <blank length="00:00:03.450"/>
  <entry producer="producer247" in="00:00:00.000" out="00:00:06.267">
   <property name="kdenlive:id">275</property>
  </entry>
  <blank length="00:00:01.600"/>
  <entry producer="producer249" in="00:00:00.000" out="00:00:02.800">
   <property name="kdenlive:id">276</property>
  </entry>
  <blank length="00:00:01.400"/>
  <entry producer="producer250" in="00:00:00.000" out="00:00:03.117">
   <property name="kdenlive:id">278</property>
  </entry>
  <blank length="00:00:01.500"/>
  <entry producer="producer251" in="00:00:00.000" out="00:00:02.017">
   <property name="kdenlive:id">279</property>
  </entry>
  <blank length="00:00:01.500"/>
  <entry producer="producer252" in="00:00:00.000" out="00:00:06.233">
   <property name="kdenlive:id">280</property>
  </entry>
  <blank length="00:00:06.033"/>
  <entry producer="producer255" in="00:00:00.000" out="00:00:00.417">
   <property name="kdenlive:id">283</property>
  </entry>
  <blank length="00:00:05.283"/>
  <entry producer="producer257" in="00:00:00.000" out="00:00:02.300">
   <property name="kdenlive:id">286</property>
  </entry>
  <blank length="00:00:21.400"/>
  <entry producer="producer278" in="00:00:00.000" out="00:00:01.100">
   <property name="kdenlive:id">306</property>
  </entry>
  <blank length="00:00:02.000"/>
  <entry producer="producer333" in="00:00:00.000" out="00:00:02.567">
   <property name="kdenlive:id">364</property>
  </entry>
  <blank length="00:00:01.000"/>
  <entry producer="producer334" in="00:00:00.000" out="00:00:03.400">
   <property name="kdenlive:id">365</property>
  </entry>
  <blank length="00:00:03.000"/>
  <entry producer="producer335" in="00:00:00.000" out="00:00:02.517">
   <property name="kdenlive:id">366</property>
  </entry>
  <blank length="00:00:01.000"/>
  <entry producer="producer336" in="00:00:00.000" out="00:00:03.700">
   <property name="kdenlive:id">367</property>
  </entry>
  <blank length="00:00:01.000"/>
  <entry producer="producer337" in="00:00:00.000" out="00:00:03.667">
   <property name="kdenlive:id">368</property>
  </entry>
  <blank length="00:00:01.000"/>
  <entry producer="producer338" in="00:00:00.000" out="00:00:06.750">
   <property name="kdenlive:id">369</property>
  </entry>
  <blank length="00:00:03.300"/>
  <entry producer="producer340" in="00:00:00.000" out="00:00:03.133">
   <property name="kdenlive:id">370</property>
  </entry>
  <blank length="00:00:01.100"/>
  <entry producer="producer342" in="00:00:00.000" out="00:00:03.917">
   <property name="kdenlive:id">371</property>
  </entry>
  <blank length="00:00:02.000"/>
  <entry producer="producer201" in="00:00:00.000" out="00:00:02.433">
   <property name="kdenlive:id">226</property>
  </entry>
  <blank length="00:00:01.000"/>
  <entry producer="producer207" in="00:00:00.000" out="00:00:02.267">
   <property name="kdenlive:id">232</property>
  </entry>
  <blank length="00:00:00.650"/>
  <entry producer="producer208" in="00:00:00.000" out="00:00:04.550">
   <property name="kdenlive:id">233</property>
  </entry>
  <blank length="00:00:01.000"/>
  <entry producer="producer209" in="00:00:00.000" out="00:00:04.067">
   <property name="kdenlive:id">234</property>
  </entry>
  <blank length="00:00:02.617"/>
  <entry producer="producer211" in="00:00:00.000" out="00:00:08.417">
   <property name="kdenlive:id">236</property>
  </entry>
  <blank length="00:00:01.000"/>
  <entry producer="producer214" in="00:00:00.000" out="00:00:00.650">
   <property name="kdenlive:id">237</property>
  </entry>
  <blank length="00:00:00.750"/>
  <entry producer="producer215" in="00:00:00.000" out="00:00:04.417">
   <property name="kdenlive:id">238</property>
  </entry>
  <blank length="00:00:02.000"/>
  <entry producer="producer192" in="00:00:00.000" out="00:00:05.117">
   <property name="kdenlive:id">217</property>
  </entry>
  <blank length="00:00:01.617"/>
  <entry producer="producer193" in="00:00:00.000" out="00:00:01.900">
   <property name="kdenlive:id">218</property>
  </entry>
  <blank length="00:00:01.000"/>
  <entry producer="producer195" in="00:00:00.000" out="00:00:02.200">
   <property name="kdenlive:id">219</property>
  </entry>
  <blank length="00:00:02.000"/>
  <entry producer="producer196" in="00:00:00.000" out="00:00:03.950">
   <property name="kdenlive:id">221</property>
  </entry>
  <blank length="00:00:01.000"/>
  <entry producer="producer199" in="00:00:00.000" out="00:00:01.033">
   <property name="kdenlive:id">222</property>
  </entry>
  <blank length="00:00:01.000"/>
  <entry producer="producer197" in="00:00:00.000" out="00:00:02.183">
   <property name="kdenlive:id">223</property>
  </entry>
  <blank length="00:00:02.000"/>
  <entry producer="producer200" in="00:00:00.000" out="00:00:02.950">
   <property name="kdenlive:id">225</property>
  </entry>
  <blank length="00:00:01.000"/>
  <entry producer="producer202" in="00:00:00.000" out="00:00:01.333">
   <property name="kdenlive:id">227</property>
  </entry>
  <blank length="00:00:01.000"/>
  <entry producer="producer203" in="00:00:00.000" out="00:00:01.433">
   <property name="kdenlive:id">228</property>
  </entry>
  <blank length="00:00:01.000"/>
  <entry producer="producer204" in="00:00:00.000" out="00:00:02.350">
   <property name="kdenlive:id">229</property>
  </entry>
  <blank length="00:00:01.000"/>
  <entry producer="producer205" in="00:00:00.000" out="00:00:04.283">
   <property name="kdenlive:id">230</property>
  </entry>
  <blank length="00:00:01.000"/>
  <entry producer="producer206" in="00:00:00.000" out="00:00:12.900">
   <property name="kdenlive:id">231</property>
   <filter id="filter11" in="00:00:11.833" out="00:00:12.900">
    <property name="start">1</property>
    <property name="level">1</property>
    <property name="mlt_service">brightness</property>
    <property name="kdenlive_id">fade_to_black</property>
    <property name="alpha">00:00:00.000=1;00:00:01.067=0</property>
   </filter>
  </entry>
  <blank length="00:00:01.000"/>
  <entry producer="producer101" in="00:00:00.000" out="00:00:01.050">
   <property name="kdenlive:id">117</property>
  </entry>
  <blank length="00:00:02.000"/>
  <entry producer="producer102" in="00:00:00.000" out="00:00:01.633">
   <property name="kdenlive:id">119</property>
  </entry>
  <blank length="00:00:01.000"/>
  <entry producer="producer104" in="00:00:00.000" out="00:00:00.883">
   <property name="kdenlive:id">120</property>
  </entry>
  <blank length="00:00:01.000"/>
  <entry producer="producer105" in="00:00:00.000" out="00:00:00.750">
   <property name="kdenlive:id">121</property>
  </entry>
  <blank length="00:00:00.983"/>
  <entry producer="producer106" in="00:00:00.000" out="00:00:02.600">
   <property name="kdenlive:id">122</property>
  </entry>
  <blank length="00:00:01.500"/>
  <entry producer="producer107" in="00:00:00.000" out="00:00:07.450">
   <property name="kdenlive:id">123</property>
  </entry>
  <blank length="00:00:01.000"/>
  <entry producer="producer108" in="00:00:00.000" out="00:00:00.967">
   <property name="kdenlive:id">124</property>
  </entry>
  <blank length="00:00:02.000"/>
  <entry producer="producer95" in="00:00:00.000" out="00:00:01.933">
   <property name="kdenlive:id">112</property>
  </entry>
  <blank length="00:00:01.000"/>
  <entry producer="producer97" in="00:00:00.000" out="00:00:06.767">
   <property name="kdenlive:id">113</property>
  </entry>
  <blank length="00:00:01.350"/>
  <entry producer="producer98" in="00:00:00.000" out="00:00:00.783">
   <property name="kdenlive:id">114</property>
  </entry>
  <blank length="00:00:01.000"/>
  <entry producer="producer99" in="00:00:00.000" out="00:00:00.317">
   <property name="kdenlive:id">115</property>
  </entry>
  <blank length="00:00:01.000"/>
  <entry producer="producer100" in="00:00:00.000" out="00:00:05.583">
   <property name="kdenlive:id">116</property>
  </entry>
  <blank length="00:00:11.717"/>
  <entry producer="producer357" in="00:00:00.000" out="00:00:01.483">
   <property name="kdenlive:id">391</property>
  </entry>
  <blank length="00:00:02.000"/>
  <entry producer="producer358" in="00:00:00.000" out="00:00:03.150">
   <property name="kdenlive:id">392</property>
  </entry>
  <blank length="00:00:02.500"/>
  <entry producer="producer360" in="00:00:00.000" out="00:00:03.267">
   <property name="kdenlive:id">394</property>
  </entry>
  <blank length="00:00:01.500"/>
  <entry producer="producer361" in="00:00:00.000" out="00:00:07.733">
   <property name="kdenlive:id">395</property>
   <property name="kdenlive:activeeffect">-1</property>
  </entry>
  <blank length="00:00:02.000"/>
  <entry producer="producer364" in="00:00:00.000" out="00:00:00.933">
   <property name="kdenlive:id">397</property>
  </entry>
  <blank length="00:00:01.500"/>
  <entry producer="producer351" in="00:00:00.000" out="00:00:09.950">
   <property name="kdenlive:id">385</property>
  </entry>
  <blank length="00:00:02.000"/>
  <entry producer="producer352" in="00:00:00.000" out="00:00:05.000">
   <property name="kdenlive:id">387</property>
  </entry>
  <blank length="00:00:01.083"/>
  <entry producer="producer354" in="00:00:00.000" out="00:00:00.450">
   <property name="kdenlive:id">388</property>
  </entry>
  <blank length="00:00:01.000"/>
  <entry producer="producer355" in="00:00:00.000" out="00:00:01.117">
   <property name="kdenlive:id">389</property>
  </entry>
  <blank length="00:00:08.467"/>
  <entry producer="producer179" in="00:00:00.000" out="00:00:03.217">
   <property name="kdenlive:id">201</property>
  </entry>
  <blank length="00:00:03.000"/>
  <entry producer="producer184" in="00:00:00.000" out="00:00:02.917">
   <property name="kdenlive:id">203</property>
  </entry>
  <blank length="00:00:02.000"/>
  <entry producer="producer183" in="00:00:00.000" out="00:00:01.667">
   <property name="kdenlive:id">205</property>
  </entry>
 </playlist>
 <playlist id="playlist9"/>
 <tractor id="tractor4" in="00:00:00.000" out="00:07:13.233">
  <property name="kdenlive:trackheight">67</property>
  <property name="kdenlive:timeline_active">1</property>
  <property name="kdenlive:collapsed">0</property>
  <property name="kdenlive:thumbs_format"/>
  <property name="kdenlive:audio_rec"/>
  <track hide="audio" producer="playlist8"/>
  <track hide="audio" producer="playlist9"/>
 </tractor>
 <tractor id="tractor5" in="00:00:00.000" out="00:15:34.250">
  <track producer="black_track"/>
  <track producer="tractor0"/>
  <track producer="tractor1"/>
  <track producer="tractor2"/>
  <track producer="tractor3"/>
  <track producer="tractor4"/>
  <transition id="transition0">
   <property name="a_track">0</property>
   <property name="b_track">1</property>
   <property name="mlt_service">mix</property>
   <property name="kdenlive_id">mix</property>
   <property name="internal_added">237</property>
   <property name="always_active">1</property>
   <property name="accepts_blanks">1</property>
   <property name="sum">1</property>
  </transition>
  <transition id="transition1">
   <property name="a_track">0</property>
   <property name="b_track">2</property>
   <property name="mlt_service">mix</property>
   <property name="kdenlive_id">mix</property>
   <property name="internal_added">237</property>
   <property name="always_active">1</property>
   <property name="accepts_blanks">1</property>
   <property name="sum">1</property>
  </transition>
  <transition id="transition2">
   <property name="a_track">0</property>
   <property name="b_track">3</property>
   <property name="mlt_service">mix</property>
   <property name="kdenlive_id">mix</property>
   <property name="internal_added">237</property>
   <property name="always_active">1</property>
   <property name="accepts_blanks">1</property>
   <property name="sum">1</property>
  </transition>
  <transition id="transition3">
   <property name="a_track">0</property>
   <property name="b_track">4</property>
   <property name="compositing">0</property>
   <property name="distort">0</property>
   <property name="rotate_center">0</property>
   <property name="mlt_service">qtblend</property>
   <property name="kdenlive_id">qtblend</property>
   <property name="internal_added">237</property>
   <property name="always_active">1</property>
  </transition>
  <transition id="transition4">
   <property name="a_track">0</property>
   <property name="b_track">5</property>
   <property name="compositing">0</property>
   <property name="distort">0</property>
   <property name="rotate_center">0</property>
   <property name="mlt_service">qtblend</property>
   <property name="kdenlive_id">qtblend</property>
   <property name="internal_added">237</property>
   <property name="always_active">1</property>
  </transition>
  <filter id="filter12">
   <property name="window">75</property>
   <property name="max_gain">20dB</property>
   <property name="mlt_service">volume</property>
   <property name="internal_added">237</property>
   <property name="disable">1</property>
  </filter>
  <filter id="filter13">
   <property name="channel">-1</property>
   <property name="mlt_service">panner</property>
   <property name="internal_added">237</property>
   <property name="start">0.5</property>
   <property name="disable">1</property>
  </filter>
  <filter id="filter14">
   <property name="iec_scale">0</property>
   <property name="mlt_service">audiolevel</property>
   <property name="disable">1</property>
  </filter>
 </tractor>
</mlt>
