<?xml version='1.0' encoding='utf-8'?>
<mlt LC_NUMERIC="C" producer="main_bin" version="6.26.1" root="/home/xiaoxiae/Documents/Education/Programming/Manim/04-perfect-graphs">
 <profile frame_rate_num="60" sample_aspect_num="1" display_aspect_den="9" colorspace="709" progressive="1" description="4K UHD 2160p 60 fps" display_aspect_num="16" frame_rate_den="1" width="3840" height="2160" sample_aspect_den="1"/>
 <producer id="producer533" in="00:00:00.000" out="00:00:15.833">
  <property name="length">951</property>
  <property name="eof">pause</property>
  <property name="resource">/home/xiaoxiae/.cache/kdenlive/proxy/bbba658ce8da4bab7c6207c359860b96.mkv</property>
  <property name="audio_index">-1</property>
  <property name="video_index">0</property>
  <property name="mute_on_pause">0</property>
  <property name="mlt_service">avformat-novalidate</property>
  <property name="seekable">1</property>
  <property name="aspect_ratio">1</property>
  <property name="kdenlive:clipname">ChromaticNumber.mp4</property>
  <property name="kdenlive:folderid">2</property>
  <property name="kdenlive:id">3</property>
  <property name="kdenlive:file_size">2063816</property>
  <property name="kdenlive:file_hash">bbba658ce8da4bab7c6207c359860b96</property>
  <property name="kdenlive:proxy">/home/xiaoxiae/.cache/kdenlive/proxy/bbba658ce8da4bab7c6207c359860b96.mkv</property>
  <property name="kdenlive:originalurl">video/ChromaticNumber.mp4</property>
  <property name="global_feed">1</property>
  <property name="meta.media.nb_streams">1</property>
  <property name="meta.media.0.stream.type">video</property>
  <property name="meta.media.0.stream.frame_rate">60</property>
  <property name="meta.media.0.stream.sample_aspect_ratio">0</property>
  <property name="meta.media.0.codec.width">640</property>
  <property name="meta.media.0.codec.height">360</property>
  <property name="meta.media.0.codec.rotate">0</property>
  <property name="meta.media.0.codec.frame_rate">60</property>
  <property name="meta.media.0.codec.pix_fmt">yuv420p</property>
  <property name="meta.media.0.codec.sample_aspect_ratio">0</property>
  <property name="meta.media.0.codec.colorspace">601</property>
  <property name="meta.media.0.codec.name">h264</property>
  <property name="meta.media.0.codec.long_name">H.264 / AVC / MPEG-4 AVC / MPEG-4 part 10</property>
  <property name="meta.media.0.codec.bit_rate">0</property>
  <property name="meta.attr.0.stream.HANDLER_NAME.markup">VideoHandler</property>
  <property name="meta.attr.0.stream.VENDOR_ID.markup">[0][0][0][0]</property>
  <property name="meta.attr.0.stream.ENCODER.markup">Lavc58.134.100 libx264</property>
  <property name="meta.attr.0.stream.DURATION.markup">00:00:15.850000000</property>
  <property name="meta.attr.COMMENT.markup">Rendered with Manim Community v0.6.0</property>
  <property name="meta.attr.MAJOR_BRAND.markup">isom</property>
  <property name="meta.attr.MINOR_VERSION.markup">512</property>
  <property name="meta.attr.COMPATIBLE_BRANDS.markup">isomiso2avc1mp41</property>
  <property name="meta.attr.ENCODER.markup">Lavf58.76.100</property>
  <property name="meta.media.sample_aspect_num">1</property>
  <property name="meta.media.sample_aspect_den">1</property>
  <property name="meta.media.frame_rate_num">60</property>
  <property name="meta.media.frame_rate_den">1</property>
  <property name="meta.media.colorspace">601</property>
  <property name="meta.media.color_trc">2</property>
  <property name="meta.media.width">640</property>
  <property name="meta.media.height">360</property>
  <property name="meta.media.color_range">mpeg</property>
 </producer>
 <producer id="producer534" in="00:00:00.000" out="00:00:31.883">
  <property name="length">1914</property>
  <property name="eof">pause</property>
  <property name="resource">/home/xiaoxiae/.cache/kdenlive/proxy/8879ee493c52083073cde1ba967c5c2f.mkv</property>
  <property name="audio_index">-1</property>
  <property name="video_index">0</property>
  <property name="mute_on_pause">0</property>
  <property name="mlt_service">avformat-novalidate</property>
  <property name="seekable">1</property>
  <property name="aspect_ratio">1</property>
  <property name="kdenlive:clipname">CliqueAndIndependentSet.mp4</property>
  <property name="kdenlive:folderid">2</property>
  <property name="kdenlive:id">4</property>
  <property name="kdenlive:file_size">4410637</property>
  <property name="kdenlive:file_hash">8879ee493c52083073cde1ba967c5c2f</property>
  <property name="kdenlive:proxy">/home/xiaoxiae/.cache/kdenlive/proxy/8879ee493c52083073cde1ba967c5c2f.mkv</property>
  <property name="kdenlive:originalurl">video/CliqueAndIndependentSet.mp4</property>
  <property name="global_feed">1</property>
  <property name="meta.media.nb_streams">1</property>
  <property name="meta.media.0.stream.type">video</property>
  <property name="meta.media.0.stream.frame_rate">60</property>
  <property name="meta.media.0.stream.sample_aspect_ratio">0</property>
  <property name="meta.media.0.codec.width">640</property>
  <property name="meta.media.0.codec.height">360</property>
  <property name="meta.media.0.codec.rotate">0</property>
  <property name="meta.media.0.codec.frame_rate">60</property>
  <property name="meta.media.0.codec.pix_fmt">yuv420p</property>
  <property name="meta.media.0.codec.sample_aspect_ratio">0</property>
  <property name="meta.media.0.codec.colorspace">601</property>
  <property name="meta.media.0.codec.name">h264</property>
  <property name="meta.media.0.codec.long_name">H.264 / AVC / MPEG-4 AVC / MPEG-4 part 10</property>
  <property name="meta.media.0.codec.bit_rate">0</property>
  <property name="meta.attr.0.stream.HANDLER_NAME.markup">VideoHandler</property>
  <property name="meta.attr.0.stream.VENDOR_ID.markup">[0][0][0][0]</property>
  <property name="meta.attr.0.stream.ENCODER.markup">Lavc58.134.100 libx264</property>
  <property name="meta.attr.0.stream.DURATION.markup">00:00:31.900000000</property>
  <property name="meta.attr.COMMENT.markup">Rendered with Manim Community v0.6.0</property>
  <property name="meta.attr.MAJOR_BRAND.markup">isom</property>
  <property name="meta.attr.MINOR_VERSION.markup">512</property>
  <property name="meta.attr.COMPATIBLE_BRANDS.markup">isomiso2avc1mp41</property>
  <property name="meta.attr.ENCODER.markup">Lavf58.76.100</property>
  <property name="meta.media.sample_aspect_num">1</property>
  <property name="meta.media.sample_aspect_den">1</property>
  <property name="meta.media.frame_rate_num">60</property>
  <property name="meta.media.frame_rate_den">1</property>
  <property name="meta.media.colorspace">601</property>
  <property name="meta.media.color_trc">2</property>
  <property name="meta.media.width">640</property>
  <property name="meta.media.height">360</property>
  <property name="meta.media.color_range">mpeg</property>
 </producer>
 <producer id="producer535" in="00:00:00.000" out="00:00:15.033">
  <property name="length">903</property>
  <property name="eof">pause</property>
  <property name="resource">/home/xiaoxiae/.cache/kdenlive/proxy/543cc865d116f4fd34e4c341756a203a.mkv</property>
  <property name="audio_index">-1</property>
  <property name="video_index">0</property>
  <property name="mute_on_pause">0</property>
  <property name="mlt_service">avformat-novalidate</property>
  <property name="seekable">1</property>
  <property name="aspect_ratio">1</property>
  <property name="kdenlive:clipname">Complement.mp4</property>
  <property name="kdenlive:folderid">2</property>
  <property name="kdenlive:id">5</property>
  <property name="kdenlive:file_size">1699994</property>
  <property name="kdenlive:file_hash">543cc865d116f4fd34e4c341756a203a</property>
  <property name="kdenlive:proxy">/home/xiaoxiae/.cache/kdenlive/proxy/543cc865d116f4fd34e4c341756a203a.mkv</property>
  <property name="kdenlive:originalurl">video/Complement.mp4</property>
  <property name="kdenlive:original.mlt_type">mlt_producer</property>
  <property name="kdenlive:original.in">0</property>
  <property name="kdenlive:original.out">902</property>
  <property name="kdenlive:original.length">903</property>
  <property name="kdenlive:original.eof">pause</property>
  <property name="kdenlive:original.resource">video/Complement.mp4</property>
  <property name="kdenlive:original.meta.media.nb_streams">1</property>
  <property name="kdenlive:original.meta.media.0.stream.type">video</property>
  <property name="kdenlive:original.meta.media.0.stream.frame_rate">60</property>
  <property name="kdenlive:original.meta.media.0.stream.sample_aspect_ratio">0</property>
  <property name="kdenlive:original.meta.media.0.codec.width">3840</property>
  <property name="kdenlive:original.meta.media.0.codec.height">2160</property>
  <property name="kdenlive:original.meta.media.0.codec.rotate">0</property>
  <property name="kdenlive:original.meta.media.0.codec.frame_rate">60</property>
  <property name="kdenlive:original.meta.media.0.codec.pix_fmt">yuv420p</property>
  <property name="kdenlive:original.meta.media.0.codec.sample_aspect_ratio">0</property>
  <property name="kdenlive:original.meta.media.0.codec.colorspace">709</property>
  <property name="kdenlive:original.meta.media.0.codec.name">h264</property>
  <property name="kdenlive:original.meta.media.0.codec.long_name">H.264 / AVC / MPEG-4 AVC / MPEG-4 part 10</property>
  <property name="kdenlive:original.meta.media.0.codec.bit_rate">897421</property>
  <property name="kdenlive:original.meta.attr.0.stream.handler_name.markup">VideoHandler</property>
  <property name="kdenlive:original.meta.attr.0.stream.vendor_id.markup">[0][0][0][0]</property>
  <property name="kdenlive:original.meta.attr.major_brand.markup">isom</property>
  <property name="kdenlive:original.meta.attr.minor_version.markup">512</property>
  <property name="kdenlive:original.meta.attr.compatible_brands.markup">isomiso2avc1mp41</property>
  <property name="kdenlive:original.meta.attr.encoder.markup">Lavf58.76.100</property>
  <property name="kdenlive:original.meta.attr.comment.markup">Rendered with Manim Community v0.6.0</property>
  <property name="kdenlive:original.seekable">1</property>
  <property name="kdenlive:original.width">3840</property>
  <property name="kdenlive:original.height">2160</property>
  <property name="kdenlive:original.meta.media.sample_aspect_num">1</property>
  <property name="kdenlive:original.meta.media.sample_aspect_den">1</property>
  <property name="kdenlive:original.aspect_ratio">1</property>
  <property name="kdenlive:original.audio_index">-1</property>
  <property name="kdenlive:original.video_index">0</property>
  <property name="kdenlive:original.mute_on_pause">0</property>
  <property name="kdenlive:original.mlt_service">avformat-novalidate</property>
  <property name="kdenlive:original.kdenlive:folderid">2</property>
  <property name="kdenlive:original.meta.media.frame_rate_num">60</property>
  <property name="kdenlive:original.meta.media.frame_rate_den">1</property>
  <property name="kdenlive:original.meta.media.colorspace">709</property>
  <property name="kdenlive:original.meta.media.color_trc">2</property>
  <property name="kdenlive:original.meta.media.width">3840</property>
  <property name="kdenlive:original.meta.media.height">2160</property>
  <property name="kdenlive:original.meta.media.color_range">mpeg</property>
  <property name="kdenlive:original.kdenlive:id">5</property>
  <property name="kdenlive:original.kdenlive:file_size">1699994</property>
  <property name="kdenlive:original.kdenlive:file_hash">543cc865d116f4fd34e4c341756a203a</property>
  <property name="kdenlive:original.backup">1</property>
  <property name="global_feed">1</property>
  <property name="kdenlive:original.kdenlive:original.mlt_type">mlt_producer</property>
  <property name="kdenlive:original.kdenlive:original.in">0</property>
  <property name="kdenlive:original.kdenlive:original.out">902</property>
  <property name="kdenlive:original.kdenlive:original.length">903</property>
  <property name="kdenlive:original.kdenlive:original.eof">pause</property>
  <property name="kdenlive:original.kdenlive:original.resource">video/Complement.mp4</property>
  <property name="kdenlive:original.kdenlive:original.meta.media.nb_streams">1</property>
  <property name="kdenlive:original.kdenlive:original.meta.media.0.stream.type">video</property>
  <property name="kdenlive:original.kdenlive:original.meta.media.0.stream.frame_rate">60</property>
  <property name="kdenlive:original.kdenlive:original.meta.media.0.stream.sample_aspect_ratio">0</property>
  <property name="kdenlive:original.kdenlive:original.meta.media.0.codec.width">3840</property>
  <property name="kdenlive:original.kdenlive:original.meta.media.0.codec.height">2160</property>
  <property name="kdenlive:original.kdenlive:original.meta.media.0.codec.rotate">0</property>
  <property name="kdenlive:original.kdenlive:original.meta.media.0.codec.frame_rate">60</property>
  <property name="kdenlive:original.kdenlive:original.meta.media.0.codec.pix_fmt">yuv420p</property>
  <property name="kdenlive:original.kdenlive:original.meta.media.0.codec.sample_aspect_ratio">0</property>
  <property name="kdenlive:original.kdenlive:original.meta.media.0.codec.colorspace">709</property>
  <property name="kdenlive:original.kdenlive:original.meta.media.0.codec.name">h264</property>
  <property name="kdenlive:original.kdenlive:original.meta.media.0.codec.long_name">H.264 / AVC / MPEG-4 AVC / MPEG-4 part 10</property>
  <property name="kdenlive:original.kdenlive:original.meta.media.0.codec.bit_rate">897421</property>
  <property name="kdenlive:original.kdenlive:original.meta.attr.0.stream.handler_name.markup">VideoHandler</property>
  <property name="kdenlive:original.kdenlive:original.meta.attr.0.stream.vendor_id.markup">[0][0][0][0]</property>
  <property name="kdenlive:original.kdenlive:original.meta.attr.major_brand.markup">isom</property>
  <property name="kdenlive:original.kdenlive:original.meta.attr.minor_version.markup">512</property>
  <property name="kdenlive:original.kdenlive:original.meta.attr.compatible_brands.markup">isomiso2avc1mp41</property>
  <property name="kdenlive:original.kdenlive:original.meta.attr.encoder.markup">Lavf58.76.100</property>
  <property name="kdenlive:original.kdenlive:original.meta.attr.comment.markup">Rendered with Manim Community v0.6.0</property>
  <property name="kdenlive:original.kdenlive:original.seekable">1</property>
  <property name="kdenlive:original.kdenlive:original.width">3840</property>
  <property name="kdenlive:original.kdenlive:original.height">2160</property>
  <property name="kdenlive:original.kdenlive:original.meta.media.sample_aspect_num">1</property>
  <property name="kdenlive:original.kdenlive:original.meta.media.sample_aspect_den">1</property>
  <property name="kdenlive:original.kdenlive:original.aspect_ratio">1</property>
  <property name="kdenlive:original.kdenlive:original.audio_index">-1</property>
  <property name="kdenlive:original.kdenlive:original.video_index">0</property>
  <property name="kdenlive:original.kdenlive:original.mute_on_pause">0</property>
  <property name="kdenlive:original.kdenlive:original.mlt_service">avformat-novalidate</property>
  <property name="kdenlive:original.kdenlive:original.kdenlive:folderid">2</property>
  <property name="kdenlive:original.kdenlive:original.meta.media.frame_rate_num">60</property>
  <property name="kdenlive:original.kdenlive:original.meta.media.frame_rate_den">1</property>
  <property name="kdenlive:original.kdenlive:original.meta.media.colorspace">709</property>
  <property name="kdenlive:original.kdenlive:original.meta.media.color_trc">2</property>
  <property name="kdenlive:original.kdenlive:original.meta.media.width">3840</property>
  <property name="kdenlive:original.kdenlive:original.meta.media.height">2160</property>
  <property name="kdenlive:original.kdenlive:original.meta.media.color_range">mpeg</property>
  <property name="kdenlive:original.kdenlive:original.kdenlive:id">5</property>
  <property name="kdenlive:original.kdenlive:original.kdenlive:file_size">1699994</property>
  <property name="kdenlive:original.kdenlive:original.kdenlive:file_hash">543cc865d116f4fd34e4c341756a203a</property>
  <property name="kdenlive:original.root">/</property>
  <property name="kdenlive:original.global_feed">1</property>
  <property name="meta.media.nb_streams">1</property>
  <property name="meta.media.0.stream.type">video</property>
  <property name="meta.media.0.stream.frame_rate">60</property>
  <property name="meta.media.0.stream.sample_aspect_ratio">0</property>
  <property name="meta.media.0.codec.width">640</property>
  <property name="meta.media.0.codec.height">360</property>
  <property name="meta.media.0.codec.rotate">0</property>
  <property name="meta.media.0.codec.frame_rate">60</property>
  <property name="meta.media.0.codec.pix_fmt">yuv420p</property>
  <property name="meta.media.0.codec.sample_aspect_ratio">0</property>
  <property name="meta.media.0.codec.colorspace">601</property>
  <property name="meta.media.0.codec.name">h264</property>
  <property name="meta.media.0.codec.long_name">H.264 / AVC / MPEG-4 AVC / MPEG-4 part 10</property>
  <property name="meta.media.0.codec.bit_rate">0</property>
  <property name="meta.attr.0.stream.HANDLER_NAME.markup">VideoHandler</property>
  <property name="meta.attr.0.stream.VENDOR_ID.markup">[0][0][0][0]</property>
  <property name="meta.attr.0.stream.ENCODER.markup">Lavc58.134.100 libx264</property>
  <property name="meta.attr.0.stream.DURATION.markup">00:00:15.050000000</property>
  <property name="meta.attr.COMMENT.markup">Rendered with Manim Community v0.6.0</property>
  <property name="meta.attr.MAJOR_BRAND.markup">isom</property>
  <property name="meta.attr.MINOR_VERSION.markup">512</property>
  <property name="meta.attr.COMPATIBLE_BRANDS.markup">isomiso2avc1mp41</property>
  <property name="meta.attr.ENCODER.markup">Lavf58.76.100</property>
  <property name="meta.media.sample_aspect_num">1</property>
  <property name="meta.media.sample_aspect_den">1</property>
  <property name="meta.media.frame_rate_num">60</property>
  <property name="meta.media.frame_rate_den">1</property>
  <property name="meta.media.colorspace">601</property>
  <property name="meta.media.color_trc">2</property>
  <property name="meta.media.width">640</property>
  <property name="meta.media.height">360</property>
  <property name="meta.media.color_range">mpeg</property>
 </producer>
 <producer id="producer536" in="00:00:00.000" out="00:00:18.267">
  <property name="length">1097</property>
  <property name="eof">pause</property>
  <property name="resource">/home/xiaoxiae/.cache/kdenlive/proxy/7bd733c34aa9c17e5806cf9251bec995.mkv</property>
  <property name="audio_index">-1</property>
  <property name="video_index">0</property>
  <property name="mute_on_pause">0</property>
  <property name="mlt_service">avformat-novalidate</property>
  <property name="seekable">1</property>
  <property name="aspect_ratio">1</property>
  <property name="kdenlive:clipname">InducedSubgraph.mp4</property>
  <property name="kdenlive:folderid">2</property>
  <property name="kdenlive:id">6</property>
  <property name="kdenlive:file_size">2378274</property>
  <property name="kdenlive:file_hash">7bd733c34aa9c17e5806cf9251bec995</property>
  <property name="kdenlive:proxy">/home/xiaoxiae/.cache/kdenlive/proxy/7bd733c34aa9c17e5806cf9251bec995.mkv</property>
  <property name="kdenlive:originalurl">video/InducedSubgraph.mp4</property>
  <property name="global_feed">1</property>
  <property name="meta.media.nb_streams">1</property>
  <property name="meta.media.0.stream.type">video</property>
  <property name="meta.media.0.stream.frame_rate">60</property>
  <property name="meta.media.0.stream.sample_aspect_ratio">0</property>
  <property name="meta.media.0.codec.width">640</property>
  <property name="meta.media.0.codec.height">360</property>
  <property name="meta.media.0.codec.rotate">0</property>
  <property name="meta.media.0.codec.frame_rate">60</property>
  <property name="meta.media.0.codec.pix_fmt">yuv420p</property>
  <property name="meta.media.0.codec.sample_aspect_ratio">0</property>
  <property name="meta.media.0.codec.colorspace">601</property>
  <property name="meta.media.0.codec.name">h264</property>
  <property name="meta.media.0.codec.long_name">H.264 / AVC / MPEG-4 AVC / MPEG-4 part 10</property>
  <property name="meta.media.0.codec.bit_rate">0</property>
  <property name="meta.attr.0.stream.HANDLER_NAME.markup">VideoHandler</property>
  <property name="meta.attr.0.stream.VENDOR_ID.markup">[0][0][0][0]</property>
  <property name="meta.attr.0.stream.ENCODER.markup">Lavc58.134.100 libx264</property>
  <property name="meta.attr.0.stream.DURATION.markup">00:00:18.284000000</property>
  <property name="meta.attr.COMMENT.markup">Rendered with Manim Community v0.6.0</property>
  <property name="meta.attr.MAJOR_BRAND.markup">isom</property>
  <property name="meta.attr.MINOR_VERSION.markup">512</property>
  <property name="meta.attr.COMPATIBLE_BRANDS.markup">isomiso2avc1mp41</property>
  <property name="meta.attr.ENCODER.markup">Lavf58.76.100</property>
  <property name="meta.media.sample_aspect_num">1</property>
  <property name="meta.media.sample_aspect_den">1</property>
  <property name="meta.media.frame_rate_num">60</property>
  <property name="meta.media.frame_rate_den">1</property>
  <property name="meta.media.colorspace">601</property>
  <property name="meta.media.color_trc">2</property>
  <property name="meta.media.width">640</property>
  <property name="meta.media.height">360</property>
  <property name="meta.media.color_range">mpeg</property>
 </producer>
 <producer id="producer51" in="00:00:00.000" out="00:00:46.483">
  <property name="length">2790</property>
  <property name="eof">pause</property>
  <property name="resource">/home/xiaoxiae/.cache/kdenlive/proxy/7988da067c2616f79b1bd2a57c0e33ff.mkv</property>
  <property name="audio_index">-1</property>
  <property name="video_index">0</property>
  <property name="mute_on_pause">0</property>
  <property name="mlt_service">avformat-novalidate</property>
  <property name="seekable">1</property>
  <property name="aspect_ratio">1</property>
  <property name="kdenlive:clipname">Introduction.mp4</property>
  <property name="kdenlive:folderid">2</property>
  <property name="kdenlive:id">7</property>
  <property name="kdenlive:file_size">7277239</property>
  <property name="kdenlive:file_hash">7988da067c2616f79b1bd2a57c0e33ff</property>
  <property name="kdenlive:proxy">/home/xiaoxiae/.cache/kdenlive/proxy/7988da067c2616f79b1bd2a57c0e33ff.mkv</property>
  <property name="kdenlive:originalurl">video/Introduction.mp4</property>
  <property name="global_feed">1</property>
  <property name="meta.media.nb_streams">1</property>
  <property name="meta.media.0.stream.type">video</property>
  <property name="meta.media.0.stream.frame_rate">60</property>
  <property name="meta.media.0.stream.sample_aspect_ratio">0</property>
  <property name="meta.media.0.codec.width">640</property>
  <property name="meta.media.0.codec.height">360</property>
  <property name="meta.media.0.codec.rotate">0</property>
  <property name="meta.media.0.codec.frame_rate">60</property>
  <property name="meta.media.0.codec.pix_fmt">yuv420p</property>
  <property name="meta.media.0.codec.sample_aspect_ratio">0</property>
  <property name="meta.media.0.codec.colorspace">601</property>
  <property name="meta.media.0.codec.name">h264</property>
  <property name="meta.media.0.codec.long_name">H.264 / AVC / MPEG-4 AVC / MPEG-4 part 10</property>
  <property name="meta.media.0.codec.bit_rate">0</property>
  <property name="meta.attr.0.stream.HANDLER_NAME.markup">VideoHandler</property>
  <property name="meta.attr.0.stream.VENDOR_ID.markup">[0][0][0][0]</property>
  <property name="meta.attr.0.stream.ENCODER.markup">Lavc58.134.100 libx264</property>
  <property name="meta.attr.0.stream.DURATION.markup">00:00:46.500000000</property>
  <property name="meta.attr.COMMENT.markup">Rendered with Manim Community v0.6.0</property>
  <property name="meta.attr.MAJOR_BRAND.markup">isom</property>
  <property name="meta.attr.MINOR_VERSION.markup">512</property>
  <property name="meta.attr.COMPATIBLE_BRANDS.markup">isomiso2avc1mp41</property>
  <property name="meta.attr.ENCODER.markup">Lavf58.76.100</property>
  <property name="meta.media.sample_aspect_num">1</property>
  <property name="meta.media.sample_aspect_den">1</property>
  <property name="meta.media.frame_rate_num">60</property>
  <property name="meta.media.frame_rate_den">1</property>
  <property name="meta.media.colorspace">601</property>
  <property name="meta.media.color_trc">2</property>
  <property name="meta.media.width">640</property>
  <property name="meta.media.height">360</property>
  <property name="meta.media.color_range">mpeg</property>
 </producer>
 <producer id="producer49" in="00:00:00.000" out="00:00:29.033">
  <property name="length">1743</property>
  <property name="eof">pause</property>
  <property name="resource">/home/xiaoxiae/.cache/kdenlive/proxy/30c8e7db8ffdf978da4f015318b02152.mkv</property>
  <property name="audio_index">-1</property>
  <property name="video_index">0</property>
  <property name="mute_on_pause">0</property>
  <property name="mlt_service">avformat-novalidate</property>
  <property name="seekable">1</property>
  <property name="aspect_ratio">1</property>
  <property name="kdenlive:clipname">Lemma1.mp4</property>
  <property name="kdenlive:folderid">2</property>
  <property name="kdenlive:id">8</property>
  <property name="kdenlive:file_size">4467627</property>
  <property name="kdenlive:file_hash">30c8e7db8ffdf978da4f015318b02152</property>
  <property name="kdenlive:proxy">/home/xiaoxiae/.cache/kdenlive/proxy/30c8e7db8ffdf978da4f015318b02152.mkv</property>
  <property name="kdenlive:originalurl">video/Lemma1.mp4</property>
  <property name="global_feed">1</property>
  <property name="meta.media.nb_streams">1</property>
  <property name="meta.media.0.stream.type">video</property>
  <property name="meta.media.0.stream.frame_rate">60</property>
  <property name="meta.media.0.stream.sample_aspect_ratio">0</property>
  <property name="meta.media.0.codec.width">640</property>
  <property name="meta.media.0.codec.height">360</property>
  <property name="meta.media.0.codec.rotate">0</property>
  <property name="meta.media.0.codec.frame_rate">60</property>
  <property name="meta.media.0.codec.pix_fmt">yuv420p</property>
  <property name="meta.media.0.codec.sample_aspect_ratio">0</property>
  <property name="meta.media.0.codec.colorspace">601</property>
  <property name="meta.media.0.codec.name">h264</property>
  <property name="meta.media.0.codec.long_name">H.264 / AVC / MPEG-4 AVC / MPEG-4 part 10</property>
  <property name="meta.media.0.codec.bit_rate">0</property>
  <property name="meta.attr.0.stream.HANDLER_NAME.markup">VideoHandler</property>
  <property name="meta.attr.0.stream.VENDOR_ID.markup">[0][0][0][0]</property>
  <property name="meta.attr.0.stream.ENCODER.markup">Lavc58.134.100 libx264</property>
  <property name="meta.attr.0.stream.DURATION.markup">00:00:29.050000000</property>
  <property name="meta.attr.COMMENT.markup">Rendered with Manim Community v0.6.0</property>
  <property name="meta.attr.MAJOR_BRAND.markup">isom</property>
  <property name="meta.attr.MINOR_VERSION.markup">512</property>
  <property name="meta.attr.COMPATIBLE_BRANDS.markup">isomiso2avc1mp41</property>
  <property name="meta.attr.ENCODER.markup">Lavf58.76.100</property>
  <property name="meta.media.sample_aspect_num">1</property>
  <property name="meta.media.sample_aspect_den">1</property>
  <property name="meta.media.frame_rate_num">60</property>
  <property name="meta.media.frame_rate_den">1</property>
  <property name="meta.media.colorspace">601</property>
  <property name="meta.media.color_trc">2</property>
  <property name="meta.media.width">640</property>
  <property name="meta.media.height">360</property>
  <property name="meta.media.color_range">mpeg</property>
 </producer>
 <producer id="producer48" in="00:00:00.000" out="00:00:14.750">
  <property name="length">886</property>
  <property name="eof">pause</property>
  <property name="resource">/home/xiaoxiae/.cache/kdenlive/proxy/1d864d6619e6f3442fd754c0bae43361.mkv</property>
  <property name="audio_index">-1</property>
  <property name="video_index">0</property>
  <property name="mute_on_pause">0</property>
  <property name="mlt_service">avformat-novalidate</property>
  <property name="seekable">1</property>
  <property name="aspect_ratio">1</property>
  <property name="kdenlive:clipname">Lemma2.mp4</property>
  <property name="kdenlive:folderid">2</property>
  <property name="kdenlive:id">9</property>
  <property name="kdenlive:file_size">1622627</property>
  <property name="kdenlive:file_hash">1d864d6619e6f3442fd754c0bae43361</property>
  <property name="kdenlive:proxy">/home/xiaoxiae/.cache/kdenlive/proxy/1d864d6619e6f3442fd754c0bae43361.mkv</property>
  <property name="kdenlive:originalurl">video/Lemma2.mp4</property>
  <property name="global_feed">1</property>
  <property name="meta.media.nb_streams">1</property>
  <property name="meta.media.0.stream.type">video</property>
  <property name="meta.media.0.stream.frame_rate">60</property>
  <property name="meta.media.0.stream.sample_aspect_ratio">0</property>
  <property name="meta.media.0.codec.width">640</property>
  <property name="meta.media.0.codec.height">360</property>
  <property name="meta.media.0.codec.rotate">0</property>
  <property name="meta.media.0.codec.frame_rate">60</property>
  <property name="meta.media.0.codec.pix_fmt">yuv420p</property>
  <property name="meta.media.0.codec.sample_aspect_ratio">0</property>
  <property name="meta.media.0.codec.colorspace">601</property>
  <property name="meta.media.0.codec.name">h264</property>
  <property name="meta.media.0.codec.long_name">H.264 / AVC / MPEG-4 AVC / MPEG-4 part 10</property>
  <property name="meta.media.0.codec.bit_rate">0</property>
  <property name="meta.attr.0.stream.HANDLER_NAME.markup">VideoHandler</property>
  <property name="meta.attr.0.stream.VENDOR_ID.markup">[0][0][0][0]</property>
  <property name="meta.attr.0.stream.ENCODER.markup">Lavc58.134.100 libx264</property>
  <property name="meta.attr.0.stream.DURATION.markup">00:00:14.767000000</property>
  <property name="meta.attr.COMMENT.markup">Rendered with Manim Community v0.6.0</property>
  <property name="meta.attr.MAJOR_BRAND.markup">isom</property>
  <property name="meta.attr.MINOR_VERSION.markup">512</property>
  <property name="meta.attr.COMPATIBLE_BRANDS.markup">isomiso2avc1mp41</property>
  <property name="meta.attr.ENCODER.markup">Lavf58.76.100</property>
  <property name="meta.media.sample_aspect_num">1</property>
  <property name="meta.media.sample_aspect_den">1</property>
  <property name="meta.media.frame_rate_num">60</property>
  <property name="meta.media.frame_rate_den">1</property>
  <property name="meta.media.colorspace">601</property>
  <property name="meta.media.color_trc">2</property>
  <property name="meta.media.width">640</property>
  <property name="meta.media.height">360</property>
  <property name="meta.media.color_range">mpeg</property>
 </producer>
 <producer id="producer72" in="00:00:00.000" out="00:00:45.983">
  <property name="length">2760</property>
  <property name="eof">pause</property>
  <property name="resource">/home/xiaoxiae/.cache/kdenlive/proxy/3fc7cd1cca36530f53088778fbb9e7ef.mkv</property>
  <property name="audio_index">-1</property>
  <property name="video_index">0</property>
  <property name="mute_on_pause">0</property>
  <property name="mlt_service">avformat-novalidate</property>
  <property name="seekable">1</property>
  <property name="aspect_ratio">1</property>
  <property name="kdenlive:clipname">Observations.mp4</property>
  <property name="kdenlive:folderid">2</property>
  <property name="kdenlive:id">10</property>
  <property name="kdenlive:file_size">3955972</property>
  <property name="kdenlive:file_hash">3fc7cd1cca36530f53088778fbb9e7ef</property>
  <property name="kdenlive:proxy">/home/xiaoxiae/.cache/kdenlive/proxy/3fc7cd1cca36530f53088778fbb9e7ef.mkv</property>
  <property name="kdenlive:originalurl">video/Observations.mp4</property>
  <property name="global_feed">1</property>
  <property name="meta.media.nb_streams">1</property>
  <property name="meta.media.0.stream.type">video</property>
  <property name="meta.media.0.stream.frame_rate">60</property>
  <property name="meta.media.0.stream.sample_aspect_ratio">0</property>
  <property name="meta.media.0.codec.width">640</property>
  <property name="meta.media.0.codec.height">360</property>
  <property name="meta.media.0.codec.rotate">0</property>
  <property name="meta.media.0.codec.frame_rate">60</property>
  <property name="meta.media.0.codec.pix_fmt">yuv420p</property>
  <property name="meta.media.0.codec.sample_aspect_ratio">0</property>
  <property name="meta.media.0.codec.colorspace">601</property>
  <property name="meta.media.0.codec.name">h264</property>
  <property name="meta.media.0.codec.long_name">H.264 / AVC / MPEG-4 AVC / MPEG-4 part 10</property>
  <property name="meta.media.0.codec.bit_rate">0</property>
  <property name="meta.attr.0.stream.HANDLER_NAME.markup">VideoHandler</property>
  <property name="meta.attr.0.stream.VENDOR_ID.markup">[0][0][0][0]</property>
  <property name="meta.attr.0.stream.ENCODER.markup">Lavc58.134.100 libx264</property>
  <property name="meta.attr.0.stream.DURATION.markup">00:00:46.000000000</property>
  <property name="meta.attr.COMMENT.markup">Rendered with Manim Community v0.6.0</property>
  <property name="meta.attr.MAJOR_BRAND.markup">isom</property>
  <property name="meta.attr.MINOR_VERSION.markup">512</property>
  <property name="meta.attr.COMPATIBLE_BRANDS.markup">isomiso2avc1mp41</property>
  <property name="meta.attr.ENCODER.markup">Lavf58.76.100</property>
  <property name="meta.media.sample_aspect_num">1</property>
  <property name="meta.media.sample_aspect_den">1</property>
  <property name="meta.media.frame_rate_num">60</property>
  <property name="meta.media.frame_rate_den">1</property>
  <property name="meta.media.colorspace">601</property>
  <property name="meta.media.color_trc">2</property>
  <property name="meta.media.width">640</property>
  <property name="meta.media.height">360</property>
  <property name="meta.media.color_range">mpeg</property>
 </producer>
 <producer id="producer50" in="00:00:00.000" out="00:00:15.383">
  <property name="length">924</property>
  <property name="eof">pause</property>
  <property name="resource">/home/xiaoxiae/.cache/kdenlive/proxy/7c7fb4030095238edd4413db844e8344.mkv</property>
  <property name="audio_index">-1</property>
  <property name="video_index">0</property>
  <property name="mute_on_pause">0</property>
  <property name="mlt_service">avformat-novalidate</property>
  <property name="seekable">1</property>
  <property name="aspect_ratio">1</property>
  <property name="kdenlive:clipname">PerfectGraph.mp4</property>
  <property name="kdenlive:folderid">2</property>
  <property name="kdenlive:id">11</property>
  <property name="kdenlive:file_size">1758884</property>
  <property name="kdenlive:file_hash">7c7fb4030095238edd4413db844e8344</property>
  <property name="kdenlive:proxy">/home/xiaoxiae/.cache/kdenlive/proxy/7c7fb4030095238edd4413db844e8344.mkv</property>
  <property name="kdenlive:originalurl">video/PerfectGraph.mp4</property>
  <property name="global_feed">1</property>
  <property name="meta.media.nb_streams">1</property>
  <property name="meta.media.0.stream.type">video</property>
  <property name="meta.media.0.stream.frame_rate">60</property>
  <property name="meta.media.0.stream.sample_aspect_ratio">0</property>
  <property name="meta.media.0.codec.width">640</property>
  <property name="meta.media.0.codec.height">360</property>
  <property name="meta.media.0.codec.rotate">0</property>
  <property name="meta.media.0.codec.frame_rate">60</property>
  <property name="meta.media.0.codec.pix_fmt">yuv420p</property>
  <property name="meta.media.0.codec.sample_aspect_ratio">0</property>
  <property name="meta.media.0.codec.colorspace">601</property>
  <property name="meta.media.0.codec.name">h264</property>
  <property name="meta.media.0.codec.long_name">H.264 / AVC / MPEG-4 AVC / MPEG-4 part 10</property>
  <property name="meta.media.0.codec.bit_rate">0</property>
  <property name="meta.attr.0.stream.HANDLER_NAME.markup">VideoHandler</property>
  <property name="meta.attr.0.stream.VENDOR_ID.markup">[0][0][0][0]</property>
  <property name="meta.attr.0.stream.ENCODER.markup">Lavc58.134.100 libx264</property>
  <property name="meta.attr.0.stream.DURATION.markup">00:00:15.400000000</property>
  <property name="meta.attr.COMMENT.markup">Rendered with Manim Community v0.6.0</property>
  <property name="meta.attr.MAJOR_BRAND.markup">isom</property>
  <property name="meta.attr.MINOR_VERSION.markup">512</property>
  <property name="meta.attr.COMPATIBLE_BRANDS.markup">isomiso2avc1mp41</property>
  <property name="meta.attr.ENCODER.markup">Lavf58.76.100</property>
  <property name="meta.media.sample_aspect_num">1</property>
  <property name="meta.media.sample_aspect_den">1</property>
  <property name="meta.media.frame_rate_num">60</property>
  <property name="meta.media.frame_rate_den">1</property>
  <property name="meta.media.colorspace">601</property>
  <property name="meta.media.color_trc">2</property>
  <property name="meta.media.width">640</property>
  <property name="meta.media.height">360</property>
  <property name="meta.media.color_range">mpeg</property>
 </producer>
 <producer id="producer136" in="00:00:00.000" out="00:00:56.883">
  <property name="length">3414</property>
  <property name="eof">pause</property>
  <property name="resource">/home/xiaoxiae/.cache/kdenlive/proxy/18a6bf5701c76b15f4fc10c1442628f3.mkv</property>
  <property name="audio_index">-1</property>
  <property name="video_index">0</property>
  <property name="mute_on_pause">0</property>
  <property name="mlt_service">avformat-novalidate</property>
  <property name="seekable">1</property>
  <property name="aspect_ratio">1</property>
  <property name="kdenlive:clipname">Theorem.mp4</property>
  <property name="kdenlive:folderid">2</property>
  <property name="kdenlive:id">12</property>
  <property name="kdenlive:file_size">6233991</property>
  <property name="kdenlive:file_hash">18a6bf5701c76b15f4fc10c1442628f3</property>
  <property name="kdenlive:proxy">/home/xiaoxiae/.cache/kdenlive/proxy/18a6bf5701c76b15f4fc10c1442628f3.mkv</property>
  <property name="kdenlive:originalurl">video/Theorem.mp4</property>
  <property name="global_feed">1</property>
  <property name="meta.media.nb_streams">1</property>
  <property name="meta.media.0.stream.type">video</property>
  <property name="meta.media.0.stream.frame_rate">60</property>
  <property name="meta.media.0.stream.sample_aspect_ratio">0</property>
  <property name="meta.media.0.codec.width">640</property>
  <property name="meta.media.0.codec.height">360</property>
  <property name="meta.media.0.codec.rotate">0</property>
  <property name="meta.media.0.codec.frame_rate">60</property>
  <property name="meta.media.0.codec.pix_fmt">yuv420p</property>
  <property name="meta.media.0.codec.sample_aspect_ratio">0</property>
  <property name="meta.media.0.codec.colorspace">601</property>
  <property name="meta.media.0.codec.name">h264</property>
  <property name="meta.media.0.codec.long_name">H.264 / AVC / MPEG-4 AVC / MPEG-4 part 10</property>
  <property name="meta.media.0.codec.bit_rate">0</property>
  <property name="meta.attr.0.stream.HANDLER_NAME.markup">VideoHandler</property>
  <property name="meta.attr.0.stream.VENDOR_ID.markup">[0][0][0][0]</property>
  <property name="meta.attr.0.stream.ENCODER.markup">Lavc58.134.100 libx264</property>
  <property name="meta.attr.0.stream.DURATION.markup">00:00:56.900000000</property>
  <property name="meta.attr.COMMENT.markup">Rendered with Manim Community v0.6.0</property>
  <property name="meta.attr.MAJOR_BRAND.markup">isom</property>
  <property name="meta.attr.MINOR_VERSION.markup">512</property>
  <property name="meta.attr.COMPATIBLE_BRANDS.markup">isomiso2avc1mp41</property>
  <property name="meta.attr.ENCODER.markup">Lavf58.76.100</property>
  <property name="meta.media.sample_aspect_num">1</property>
  <property name="meta.media.sample_aspect_den">1</property>
  <property name="meta.media.frame_rate_num">60</property>
  <property name="meta.media.frame_rate_den">1</property>
  <property name="meta.media.colorspace">601</property>
  <property name="meta.media.color_trc">2</property>
  <property name="meta.media.width">640</property>
  <property name="meta.media.height">360</property>
  <property name="meta.media.color_range">mpeg</property>
  <property name="meta.media.top_field_first">0</property>
  <property name="meta.media.progressive">1</property>
  <property name="kdenlive:original.mlt_type">producer</property>
  <property name="kdenlive:original.in">0</property>
  <property name="kdenlive:original.out">3413</property>
  <property name="kdenlive:original.length">3414</property>
  <property name="kdenlive:original.eof">pause</property>
  <property name="kdenlive:original.resource">video/Theorem.mp4</property>
  <property name="kdenlive:original.meta.media.nb_streams">1</property>
  <property name="kdenlive:original.meta.media.0.stream.type">video</property>
  <property name="kdenlive:original.meta.media.0.stream.frame_rate">60</property>
  <property name="kdenlive:original.meta.media.0.stream.sample_aspect_ratio">0</property>
  <property name="kdenlive:original.meta.media.0.codec.width">3840</property>
  <property name="kdenlive:original.meta.media.0.codec.height">2160</property>
  <property name="kdenlive:original.meta.media.0.codec.rotate">0</property>
  <property name="kdenlive:original.meta.media.0.codec.frame_rate">60</property>
  <property name="kdenlive:original.meta.media.0.codec.pix_fmt">yuv420p</property>
  <property name="kdenlive:original.meta.media.0.codec.sample_aspect_ratio">0</property>
  <property name="kdenlive:original.meta.media.0.codec.colorspace">709</property>
  <property name="kdenlive:original.meta.media.0.codec.name">h264</property>
  <property name="kdenlive:original.meta.media.0.codec.long_name">H.264 / AVC / MPEG-4 AVC / MPEG-4 part 10</property>
  <property name="kdenlive:original.meta.media.0.codec.bit_rate">870923</property>
  <property name="kdenlive:original.meta.attr.0.stream.handler_name.markup">VideoHandler</property>
  <property name="kdenlive:original.meta.attr.0.stream.vendor_id.markup">[0][0][0][0]</property>
  <property name="kdenlive:original.meta.attr.major_brand.markup">isom</property>
  <property name="kdenlive:original.meta.attr.minor_version.markup">512</property>
  <property name="kdenlive:original.meta.attr.compatible_brands.markup">isomiso2avc1mp41</property>
  <property name="kdenlive:original.meta.attr.encoder.markup">Lavf58.76.100</property>
  <property name="kdenlive:original.meta.attr.comment.markup">Rendered with Manim Community v0.6.0</property>
  <property name="kdenlive:original.seekable">1</property>
  <property name="kdenlive:original.width">3840</property>
  <property name="kdenlive:original.height">2160</property>
  <property name="kdenlive:original.meta.media.sample_aspect_num">1</property>
  <property name="kdenlive:original.meta.media.sample_aspect_den">1</property>
  <property name="kdenlive:original.aspect_ratio">1</property>
  <property name="kdenlive:original.audio_index">-1</property>
  <property name="kdenlive:original.video_index">0</property>
  <property name="kdenlive:original.mute_on_pause">1</property>
  <property name="kdenlive:original.mlt_service">avformat</property>
  <property name="kdenlive:original.meta.media.frame_rate_num">60</property>
  <property name="kdenlive:original.meta.media.frame_rate_den">1</property>
  <property name="kdenlive:original.meta.media.colorspace">709</property>
  <property name="kdenlive:original.meta.media.color_trc">2</property>
  <property name="kdenlive:original.meta.media.width">3840</property>
  <property name="kdenlive:original.meta.media.height">2160</property>
  <property name="kdenlive:original.meta.media.color_range">mpeg</property>
  <property name="kdenlive:original.meta.media.top_field_first">0</property>
  <property name="kdenlive:original.meta.media.progressive">1</property>
  <property name="kdenlive:original.backup">1</property>
 </producer>
 <producer id="producer55" in="00:00:00.000" out="00:00:16.750">
  <property name="length">1006</property>
  <property name="eof">pause</property>
  <property name="resource">/home/xiaoxiae/.cache/kdenlive/proxy/330bb0784cc05b7179a731286afa833b.mkv</property>
  <property name="audio_index">-1</property>
  <property name="video_index">0</property>
  <property name="mute_on_pause">0</property>
  <property name="mlt_service">avformat-novalidate</property>
  <property name="seekable">1</property>
  <property name="aspect_ratio">1</property>
  <property name="kdenlive:clipname">Theorem2.mp4</property>
  <property name="kdenlive:folderid">2</property>
  <property name="kdenlive:id">13</property>
  <property name="kdenlive:file_size">2472661</property>
  <property name="kdenlive:file_hash">330bb0784cc05b7179a731286afa833b</property>
  <property name="kdenlive:proxy">/home/xiaoxiae/.cache/kdenlive/proxy/330bb0784cc05b7179a731286afa833b.mkv</property>
  <property name="kdenlive:originalurl">video/Theorem2.mp4</property>
  <property name="global_feed">1</property>
  <property name="meta.media.nb_streams">1</property>
  <property name="meta.media.0.stream.type">video</property>
  <property name="meta.media.0.stream.frame_rate">60</property>
  <property name="meta.media.0.stream.sample_aspect_ratio">0</property>
  <property name="meta.media.0.codec.width">640</property>
  <property name="meta.media.0.codec.height">360</property>
  <property name="meta.media.0.codec.rotate">0</property>
  <property name="meta.media.0.codec.frame_rate">60</property>
  <property name="meta.media.0.codec.pix_fmt">yuv420p</property>
  <property name="meta.media.0.codec.sample_aspect_ratio">0</property>
  <property name="meta.media.0.codec.colorspace">601</property>
  <property name="meta.media.0.codec.name">h264</property>
  <property name="meta.media.0.codec.long_name">H.264 / AVC / MPEG-4 AVC / MPEG-4 part 10</property>
  <property name="meta.media.0.codec.bit_rate">0</property>
  <property name="meta.attr.0.stream.HANDLER_NAME.markup">VideoHandler</property>
  <property name="meta.attr.0.stream.VENDOR_ID.markup">[0][0][0][0]</property>
  <property name="meta.attr.0.stream.ENCODER.markup">Lavc58.134.100 libx264</property>
  <property name="meta.attr.0.stream.DURATION.markup">00:00:16.767000000</property>
  <property name="meta.attr.COMMENT.markup">Rendered with Manim Community v0.6.0</property>
  <property name="meta.attr.MAJOR_BRAND.markup">isom</property>
  <property name="meta.attr.MINOR_VERSION.markup">512</property>
  <property name="meta.attr.COMPATIBLE_BRANDS.markup">isomiso2avc1mp41</property>
  <property name="meta.attr.ENCODER.markup">Lavf58.76.100</property>
  <property name="meta.media.sample_aspect_num">1</property>
  <property name="meta.media.sample_aspect_den">1</property>
  <property name="meta.media.frame_rate_num">60</property>
  <property name="meta.media.frame_rate_den">1</property>
  <property name="meta.media.colorspace">601</property>
  <property name="meta.media.color_trc">2</property>
  <property name="meta.media.width">640</property>
  <property name="meta.media.height">360</property>
  <property name="meta.media.color_range">mpeg</property>
 </producer>
 <producer id="producer52" in="00:00:00.000" out="00:00:01.983">
  <property name="length">120</property>
  <property name="eof">pause</property>
  <property name="resource">/home/xiaoxiae/.cache/kdenlive/proxy/aa027341d9a4eb929a290f4bdab212f9.mkv</property>
  <property name="audio_index">-1</property>
  <property name="video_index">0</property>
  <property name="mute_on_pause">0</property>
  <property name="mlt_service">avformat-novalidate</property>
  <property name="seekable">1</property>
  <property name="aspect_ratio">1</property>
  <property name="kdenlive:clipname">1.mp4</property>
  <property name="kdenlive:folderid">14</property>
  <property name="kdenlive:id">15</property>
  <property name="kdenlive:file_size">105977</property>
  <property name="kdenlive:file_hash">aa027341d9a4eb929a290f4bdab212f9</property>
  <property name="kdenlive:proxy">/home/xiaoxiae/.cache/kdenlive/proxy/aa027341d9a4eb929a290f4bdab212f9.mkv</property>
  <property name="kdenlive:originalurl">video/ChromaticNumber/1.mp4</property>
  <property name="global_feed">1</property>
  <property name="meta.media.nb_streams">1</property>
  <property name="meta.media.0.stream.type">video</property>
  <property name="meta.media.0.stream.frame_rate">60</property>
  <property name="meta.media.0.stream.sample_aspect_ratio">0</property>
  <property name="meta.media.0.codec.width">640</property>
  <property name="meta.media.0.codec.height">360</property>
  <property name="meta.media.0.codec.rotate">0</property>
  <property name="meta.media.0.codec.frame_rate">60</property>
  <property name="meta.media.0.codec.pix_fmt">yuv420p</property>
  <property name="meta.media.0.codec.sample_aspect_ratio">0</property>
  <property name="meta.media.0.codec.colorspace">601</property>
  <property name="meta.media.0.codec.name">h264</property>
  <property name="meta.media.0.codec.long_name">H.264 / AVC / MPEG-4 AVC / MPEG-4 part 10</property>
  <property name="meta.media.0.codec.bit_rate">0</property>
  <property name="meta.attr.0.stream.HANDLER_NAME.markup">VideoHandler</property>
  <property name="meta.attr.0.stream.VENDOR_ID.markup">[0][0][0][0]</property>
  <property name="meta.attr.0.stream.ENCODER.markup">Lavc58.134.100 libx264</property>
  <property name="meta.attr.0.stream.DURATION.markup">00:00:02.000000000</property>
  <property name="meta.attr.COMMENT.markup">Rendered with Manim Community v0.6.0</property>
  <property name="meta.attr.MAJOR_BRAND.markup">isom</property>
  <property name="meta.attr.MINOR_VERSION.markup">512</property>
  <property name="meta.attr.COMPATIBLE_BRANDS.markup">isomiso2avc1mp41</property>
  <property name="meta.attr.ENCODER.markup">Lavf58.76.100</property>
  <property name="meta.media.sample_aspect_num">1</property>
  <property name="meta.media.sample_aspect_den">1</property>
  <property name="meta.media.frame_rate_num">60</property>
  <property name="meta.media.frame_rate_den">1</property>
  <property name="meta.media.colorspace">601</property>
  <property name="meta.media.color_trc">2</property>
  <property name="meta.media.width">640</property>
  <property name="meta.media.height">360</property>
  <property name="meta.media.color_range">mpeg</property>
  <property name="meta.media.top_field_first">0</property>
  <property name="meta.media.progressive">1</property>
  <property name="kdenlive:original.mlt_type">producer</property>
  <property name="kdenlive:original.in">0</property>
  <property name="kdenlive:original.out">119</property>
  <property name="kdenlive:original.length">120</property>
  <property name="kdenlive:original.eof">pause</property>
  <property name="kdenlive:original.resource">video/ChromaticNumber/1.mp4</property>
  <property name="kdenlive:original.meta.media.nb_streams">1</property>
  <property name="kdenlive:original.meta.media.0.stream.type">video</property>
  <property name="kdenlive:original.meta.media.0.stream.frame_rate">60</property>
  <property name="kdenlive:original.meta.media.0.stream.sample_aspect_ratio">0</property>
  <property name="kdenlive:original.meta.media.0.codec.width">3840</property>
  <property name="kdenlive:original.meta.media.0.codec.height">2160</property>
  <property name="kdenlive:original.meta.media.0.codec.rotate">0</property>
  <property name="kdenlive:original.meta.media.0.codec.frame_rate">60</property>
  <property name="kdenlive:original.meta.media.0.codec.pix_fmt">yuv420p</property>
  <property name="kdenlive:original.meta.media.0.codec.sample_aspect_ratio">0</property>
  <property name="kdenlive:original.meta.media.0.codec.colorspace">709</property>
  <property name="kdenlive:original.meta.media.0.codec.name">h264</property>
  <property name="kdenlive:original.meta.media.0.codec.long_name">H.264 / AVC / MPEG-4 AVC / MPEG-4 part 10</property>
  <property name="kdenlive:original.meta.media.0.codec.bit_rate">414504</property>
  <property name="kdenlive:original.meta.attr.0.stream.handler_name.markup">VideoHandler</property>
  <property name="kdenlive:original.meta.attr.0.stream.vendor_id.markup">[0][0][0][0]</property>
  <property name="kdenlive:original.meta.attr.major_brand.markup">isom</property>
  <property name="kdenlive:original.meta.attr.minor_version.markup">512</property>
  <property name="kdenlive:original.meta.attr.compatible_brands.markup">isomiso2avc1mp41</property>
  <property name="kdenlive:original.meta.attr.encoder.markup">Lavf58.76.100</property>
  <property name="kdenlive:original.meta.attr.comment.markup">Rendered with Manim Community v0.6.0</property>
  <property name="kdenlive:original.seekable">1</property>
  <property name="kdenlive:original.width">3840</property>
  <property name="kdenlive:original.height">2160</property>
  <property name="kdenlive:original.meta.media.sample_aspect_num">1</property>
  <property name="kdenlive:original.meta.media.sample_aspect_den">1</property>
  <property name="kdenlive:original.aspect_ratio">1</property>
  <property name="kdenlive:original.audio_index">-1</property>
  <property name="kdenlive:original.video_index">0</property>
  <property name="kdenlive:original.mute_on_pause">1</property>
  <property name="kdenlive:original.mlt_service">avformat</property>
  <property name="kdenlive:original.meta.media.frame_rate_num">60</property>
  <property name="kdenlive:original.meta.media.frame_rate_den">1</property>
  <property name="kdenlive:original.meta.media.colorspace">709</property>
  <property name="kdenlive:original.meta.media.color_trc">2</property>
  <property name="kdenlive:original.meta.media.width">3840</property>
  <property name="kdenlive:original.meta.media.height">2160</property>
  <property name="kdenlive:original.meta.media.color_range">mpeg</property>
  <property name="kdenlive:original.meta.media.top_field_first">0</property>
  <property name="kdenlive:original.meta.media.progressive">1</property>
  <property name="kdenlive:original.backup">1</property>
 </producer>
 <producer id="producer54" in="00:00:00.000" out="00:00:04.983">
  <property name="length">00:00:05.000</property>
  <property name="eof">pause</property>
  <property name="resource">/home/xiaoxiae/.cache/kdenlive/proxy/c8f87ed2f1c378eb6e1ea6ba051445ac.png</property>
  <property name="ttl">25</property>
  <property name="aspect_ratio">1</property>
  <property name="progressive">1</property>
  <property name="seekable">1</property>
  <property name="meta.media.width">800</property>
  <property name="meta.media.height">450</property>
  <property name="mlt_service">qimage</property>
  <property name="kdenlive:clipname">1.png</property>
  <property name="kdenlive:duration">00:00:05.000</property>
  <property name="kdenlive:folderid">14</property>
  <property name="kdenlive:id">16</property>
  <property name="kdenlive:file_size">89199</property>
  <property name="kdenlive:file_hash">c8f87ed2f1c378eb6e1ea6ba051445ac</property>
  <property name="kdenlive:proxy">/home/xiaoxiae/.cache/kdenlive/proxy/c8f87ed2f1c378eb6e1ea6ba051445ac.png</property>
  <property name="kdenlive:originalurl">video/ChromaticNumber/1.png</property>
  <property name="global_feed">1</property>
 </producer>
 <producer id="producer53" in="00:00:00.000" out="00:00:00.983">
  <property name="length">60</property>
  <property name="eof">pause</property>
  <property name="resource">/home/xiaoxiae/.cache/kdenlive/proxy/da4fac5e64e7cf23ad7ff195075bb88f.mkv</property>
  <property name="audio_index">-1</property>
  <property name="video_index">0</property>
  <property name="mute_on_pause">0</property>
  <property name="mlt_service">avformat-novalidate</property>
  <property name="seekable">1</property>
  <property name="aspect_ratio">1</property>
  <property name="kdenlive:clipname">2.mp4</property>
  <property name="kdenlive:folderid">14</property>
  <property name="kdenlive:id">17</property>
  <property name="kdenlive:file_size">81742</property>
  <property name="kdenlive:file_hash">da4fac5e64e7cf23ad7ff195075bb88f</property>
  <property name="kdenlive:proxy">/home/xiaoxiae/.cache/kdenlive/proxy/da4fac5e64e7cf23ad7ff195075bb88f.mkv</property>
  <property name="kdenlive:originalurl">video/ChromaticNumber/2.mp4</property>
  <property name="global_feed">1</property>
  <property name="meta.media.nb_streams">1</property>
  <property name="meta.media.0.stream.type">video</property>
  <property name="meta.media.0.stream.frame_rate">60</property>
  <property name="meta.media.0.stream.sample_aspect_ratio">0</property>
  <property name="meta.media.0.codec.width">640</property>
  <property name="meta.media.0.codec.height">360</property>
  <property name="meta.media.0.codec.rotate">0</property>
  <property name="meta.media.0.codec.frame_rate">60</property>
  <property name="meta.media.0.codec.pix_fmt">yuv420p</property>
  <property name="meta.media.0.codec.sample_aspect_ratio">0</property>
  <property name="meta.media.0.codec.colorspace">601</property>
  <property name="meta.media.0.codec.name">h264</property>
  <property name="meta.media.0.codec.long_name">H.264 / AVC / MPEG-4 AVC / MPEG-4 part 10</property>
  <property name="meta.media.0.codec.bit_rate">0</property>
  <property name="meta.attr.0.stream.HANDLER_NAME.markup">VideoHandler</property>
  <property name="meta.attr.0.stream.VENDOR_ID.markup">[0][0][0][0]</property>
  <property name="meta.attr.0.stream.ENCODER.markup">Lavc58.134.100 libx264</property>
  <property name="meta.attr.0.stream.DURATION.markup">00:00:01.000000000</property>
  <property name="meta.attr.COMMENT.markup">Rendered with Manim Community v0.6.0</property>
  <property name="meta.attr.MAJOR_BRAND.markup">isom</property>
  <property name="meta.attr.MINOR_VERSION.markup">512</property>
  <property name="meta.attr.COMPATIBLE_BRANDS.markup">isomiso2avc1mp41</property>
  <property name="meta.attr.ENCODER.markup">Lavf58.76.100</property>
  <property name="meta.media.sample_aspect_num">1</property>
  <property name="meta.media.sample_aspect_den">1</property>
  <property name="meta.media.frame_rate_num">60</property>
  <property name="meta.media.frame_rate_den">1</property>
  <property name="meta.media.colorspace">601</property>
  <property name="meta.media.color_trc">2</property>
  <property name="meta.media.width">640</property>
  <property name="meta.media.height">360</property>
  <property name="meta.media.color_range">mpeg</property>
  <property name="meta.media.top_field_first">0</property>
  <property name="meta.media.progressive">1</property>
  <property name="kdenlive:original.mlt_type">producer</property>
  <property name="kdenlive:original.in">0</property>
  <property name="kdenlive:original.out">59</property>
  <property name="kdenlive:original.length">60</property>
  <property name="kdenlive:original.eof">pause</property>
  <property name="kdenlive:original.resource">video/ChromaticNumber/2.mp4</property>
  <property name="kdenlive:original.meta.media.nb_streams">1</property>
  <property name="kdenlive:original.meta.media.0.stream.type">video</property>
  <property name="kdenlive:original.meta.media.0.stream.frame_rate">60</property>
  <property name="kdenlive:original.meta.media.0.stream.sample_aspect_ratio">0</property>
  <property name="kdenlive:original.meta.media.0.codec.width">3840</property>
  <property name="kdenlive:original.meta.media.0.codec.height">2160</property>
  <property name="kdenlive:original.meta.media.0.codec.rotate">0</property>
  <property name="kdenlive:original.meta.media.0.codec.frame_rate">60</property>
  <property name="kdenlive:original.meta.media.0.codec.pix_fmt">yuv420p</property>
  <property name="kdenlive:original.meta.media.0.codec.sample_aspect_ratio">0</property>
  <property name="kdenlive:original.meta.media.0.codec.colorspace">709</property>
  <property name="kdenlive:original.meta.media.0.codec.name">h264</property>
  <property name="kdenlive:original.meta.media.0.codec.long_name">H.264 / AVC / MPEG-4 AVC / MPEG-4 part 10</property>
  <property name="kdenlive:original.meta.media.0.codec.bit_rate">641400</property>
  <property name="kdenlive:original.meta.attr.0.stream.handler_name.markup">VideoHandler</property>
  <property name="kdenlive:original.meta.attr.0.stream.vendor_id.markup">[0][0][0][0]</property>
  <property name="kdenlive:original.meta.attr.major_brand.markup">isom</property>
  <property name="kdenlive:original.meta.attr.minor_version.markup">512</property>
  <property name="kdenlive:original.meta.attr.compatible_brands.markup">isomiso2avc1mp41</property>
  <property name="kdenlive:original.meta.attr.encoder.markup">Lavf58.76.100</property>
  <property name="kdenlive:original.meta.attr.comment.markup">Rendered with Manim Community v0.6.0</property>
  <property name="kdenlive:original.seekable">1</property>
  <property name="kdenlive:original.width">3840</property>
  <property name="kdenlive:original.height">2160</property>
  <property name="kdenlive:original.meta.media.sample_aspect_num">1</property>
  <property name="kdenlive:original.meta.media.sample_aspect_den">1</property>
  <property name="kdenlive:original.aspect_ratio">1</property>
  <property name="kdenlive:original.audio_index">-1</property>
  <property name="kdenlive:original.video_index">0</property>
  <property name="kdenlive:original.mute_on_pause">1</property>
  <property name="kdenlive:original.mlt_service">avformat</property>
  <property name="kdenlive:original.meta.media.frame_rate_num">60</property>
  <property name="kdenlive:original.meta.media.frame_rate_den">1</property>
  <property name="kdenlive:original.meta.media.colorspace">709</property>
  <property name="kdenlive:original.meta.media.color_trc">2</property>
  <property name="kdenlive:original.meta.media.width">3840</property>
  <property name="kdenlive:original.meta.media.height">2160</property>
  <property name="kdenlive:original.meta.media.color_range">mpeg</property>
  <property name="kdenlive:original.meta.media.top_field_first">0</property>
  <property name="kdenlive:original.meta.media.progressive">1</property>
  <property name="kdenlive:original.backup">1</property>
 </producer>
 <producer id="producer57" in="00:00:00.000" out="00:00:04.983">
  <property name="length">00:00:05.000</property>
  <property name="eof">pause</property>
  <property name="resource">/home/xiaoxiae/.cache/kdenlive/proxy/d87e0a0792bb13b5e3fa331c02c9e339.png</property>
  <property name="ttl">25</property>
  <property name="aspect_ratio">1</property>
  <property name="progressive">1</property>
  <property name="seekable">1</property>
  <property name="meta.media.width">800</property>
  <property name="meta.media.height">450</property>
  <property name="mlt_service">qimage</property>
  <property name="kdenlive:clipname">2.png</property>
  <property name="kdenlive:duration">00:00:05.000</property>
  <property name="kdenlive:folderid">14</property>
  <property name="kdenlive:id">18</property>
  <property name="kdenlive:file_size">88185</property>
  <property name="kdenlive:file_hash">d87e0a0792bb13b5e3fa331c02c9e339</property>
  <property name="kdenlive:proxy">/home/xiaoxiae/.cache/kdenlive/proxy/d87e0a0792bb13b5e3fa331c02c9e339.png</property>
  <property name="kdenlive:originalurl">video/ChromaticNumber/2.png</property>
  <property name="global_feed">1</property>
 </producer>
 <producer id="producer62" in="00:00:00.000" out="00:00:06.833">
  <property name="length">411</property>
  <property name="eof">pause</property>
  <property name="resource">/home/xiaoxiae/.cache/kdenlive/proxy/288905035326ee9c072e284e7f693bf1.mkv</property>
  <property name="audio_index">-1</property>
  <property name="video_index">0</property>
  <property name="mute_on_pause">0</property>
  <property name="mlt_service">avformat-novalidate</property>
  <property name="seekable">1</property>
  <property name="aspect_ratio">1</property>
  <property name="kdenlive:clipname">3.mp4</property>
  <property name="kdenlive:folderid">14</property>
  <property name="kdenlive:id">19</property>
  <property name="kdenlive:file_size">973601</property>
  <property name="kdenlive:file_hash">288905035326ee9c072e284e7f693bf1</property>
  <property name="kdenlive:proxy">/home/xiaoxiae/.cache/kdenlive/proxy/288905035326ee9c072e284e7f693bf1.mkv</property>
  <property name="kdenlive:originalurl">video/ChromaticNumber/3.mp4</property>
  <property name="global_feed">1</property>
  <property name="meta.media.nb_streams">1</property>
  <property name="meta.media.0.stream.type">video</property>
  <property name="meta.media.0.stream.frame_rate">60</property>
  <property name="meta.media.0.stream.sample_aspect_ratio">0</property>
  <property name="meta.media.0.codec.width">640</property>
  <property name="meta.media.0.codec.height">360</property>
  <property name="meta.media.0.codec.rotate">0</property>
  <property name="meta.media.0.codec.frame_rate">60</property>
  <property name="meta.media.0.codec.pix_fmt">yuv420p</property>
  <property name="meta.media.0.codec.sample_aspect_ratio">0</property>
  <property name="meta.media.0.codec.colorspace">601</property>
  <property name="meta.media.0.codec.name">h264</property>
  <property name="meta.media.0.codec.long_name">H.264 / AVC / MPEG-4 AVC / MPEG-4 part 10</property>
  <property name="meta.media.0.codec.bit_rate">0</property>
  <property name="meta.attr.0.stream.HANDLER_NAME.markup">VideoHandler</property>
  <property name="meta.attr.0.stream.VENDOR_ID.markup">[0][0][0][0]</property>
  <property name="meta.attr.0.stream.ENCODER.markup">Lavc58.134.100 libx264</property>
  <property name="meta.attr.0.stream.DURATION.markup">00:00:06.850000000</property>
  <property name="meta.attr.COMMENT.markup">Rendered with Manim Community v0.6.0</property>
  <property name="meta.attr.MAJOR_BRAND.markup">isom</property>
  <property name="meta.attr.MINOR_VERSION.markup">512</property>
  <property name="meta.attr.COMPATIBLE_BRANDS.markup">isomiso2avc1mp41</property>
  <property name="meta.attr.ENCODER.markup">Lavf58.76.100</property>
  <property name="meta.media.sample_aspect_num">1</property>
  <property name="meta.media.sample_aspect_den">1</property>
  <property name="meta.media.frame_rate_num">60</property>
  <property name="meta.media.frame_rate_den">1</property>
  <property name="meta.media.colorspace">601</property>
  <property name="meta.media.color_trc">2</property>
  <property name="meta.media.width">640</property>
  <property name="meta.media.height">360</property>
  <property name="meta.media.color_range">mpeg</property>
  <property name="meta.media.top_field_first">0</property>
  <property name="meta.media.progressive">1</property>
  <property name="kdenlive:original.mlt_type">producer</property>
  <property name="kdenlive:original.in">0</property>
  <property name="kdenlive:original.out">410</property>
  <property name="kdenlive:original.length">411</property>
  <property name="kdenlive:original.eof">pause</property>
  <property name="kdenlive:original.resource">video/ChromaticNumber/3.mp4</property>
  <property name="kdenlive:original.meta.media.nb_streams">1</property>
  <property name="kdenlive:original.meta.media.0.stream.type">video</property>
  <property name="kdenlive:original.meta.media.0.stream.frame_rate">60</property>
  <property name="kdenlive:original.meta.media.0.stream.sample_aspect_ratio">0</property>
  <property name="kdenlive:original.meta.media.0.codec.width">3840</property>
  <property name="kdenlive:original.meta.media.0.codec.height">2160</property>
  <property name="kdenlive:original.meta.media.0.codec.rotate">0</property>
  <property name="kdenlive:original.meta.media.0.codec.frame_rate">60</property>
  <property name="kdenlive:original.meta.media.0.codec.pix_fmt">yuv420p</property>
  <property name="kdenlive:original.meta.media.0.codec.sample_aspect_ratio">0</property>
  <property name="kdenlive:original.meta.media.0.codec.colorspace">709</property>
  <property name="kdenlive:original.meta.media.0.codec.name">h264</property>
  <property name="kdenlive:original.meta.media.0.codec.long_name">H.264 / AVC / MPEG-4 AVC / MPEG-4 part 10</property>
  <property name="kdenlive:original.meta.media.0.codec.bit_rate">1130223</property>
  <property name="kdenlive:original.meta.attr.0.stream.handler_name.markup">VideoHandler</property>
  <property name="kdenlive:original.meta.attr.0.stream.vendor_id.markup">[0][0][0][0]</property>
  <property name="kdenlive:original.meta.attr.major_brand.markup">isom</property>
  <property name="kdenlive:original.meta.attr.minor_version.markup">512</property>
  <property name="kdenlive:original.meta.attr.compatible_brands.markup">isomiso2avc1mp41</property>
  <property name="kdenlive:original.meta.attr.encoder.markup">Lavf58.76.100</property>
  <property name="kdenlive:original.meta.attr.comment.markup">Rendered with Manim Community v0.6.0</property>
  <property name="kdenlive:original.seekable">1</property>
  <property name="kdenlive:original.width">3840</property>
  <property name="kdenlive:original.height">2160</property>
  <property name="kdenlive:original.meta.media.sample_aspect_num">1</property>
  <property name="kdenlive:original.meta.media.sample_aspect_den">1</property>
  <property name="kdenlive:original.aspect_ratio">1</property>
  <property name="kdenlive:original.audio_index">-1</property>
  <property name="kdenlive:original.video_index">0</property>
  <property name="kdenlive:original.mute_on_pause">1</property>
  <property name="kdenlive:original.mlt_service">avformat</property>
  <property name="kdenlive:original.meta.media.frame_rate_num">60</property>
  <property name="kdenlive:original.meta.media.frame_rate_den">1</property>
  <property name="kdenlive:original.meta.media.colorspace">709</property>
  <property name="kdenlive:original.meta.media.color_trc">2</property>
  <property name="kdenlive:original.meta.media.width">3840</property>
  <property name="kdenlive:original.meta.media.height">2160</property>
  <property name="kdenlive:original.meta.media.color_range">mpeg</property>
  <property name="kdenlive:original.meta.media.top_field_first">0</property>
  <property name="kdenlive:original.meta.media.progressive">1</property>
  <property name="kdenlive:original.backup">1</property>
 </producer>
 <producer id="producer59" in="00:00:00.000" out="00:00:04.983">
  <property name="length">00:00:05.000</property>
  <property name="eof">pause</property>
  <property name="resource">/home/xiaoxiae/.cache/kdenlive/proxy/88b3f7afdf2b554060f689f9fffb1795.png</property>
  <property name="ttl">25</property>
  <property name="aspect_ratio">1</property>
  <property name="progressive">1</property>
  <property name="seekable">1</property>
  <property name="meta.media.width">800</property>
  <property name="meta.media.height">450</property>
  <property name="mlt_service">qimage</property>
  <property name="kdenlive:clipname">3.png</property>
  <property name="kdenlive:duration">00:00:05.000</property>
  <property name="kdenlive:folderid">14</property>
  <property name="kdenlive:id">20</property>
  <property name="kdenlive:file_size">496438</property>
  <property name="kdenlive:file_hash">88b3f7afdf2b554060f689f9fffb1795</property>
  <property name="kdenlive:proxy">/home/xiaoxiae/.cache/kdenlive/proxy/88b3f7afdf2b554060f689f9fffb1795.png</property>
  <property name="kdenlive:originalurl">video/ChromaticNumber/3.png</property>
  <property name="global_feed">1</property>
 </producer>
 <producer id="producer56" in="00:00:00.000" out="00:00:01.983">
  <property name="length">120</property>
  <property name="eof">pause</property>
  <property name="resource">/home/xiaoxiae/.cache/kdenlive/proxy/8b52696b2e72829750a355d002e0be3e.mkv</property>
  <property name="audio_index">-1</property>
  <property name="video_index">0</property>
  <property name="mute_on_pause">0</property>
  <property name="mlt_service">avformat-novalidate</property>
  <property name="seekable">1</property>
  <property name="aspect_ratio">1</property>
  <property name="kdenlive:clipname">4.mp4</property>
  <property name="kdenlive:folderid">14</property>
  <property name="kdenlive:id">21</property>
  <property name="kdenlive:file_size">219252</property>
  <property name="kdenlive:file_hash">8b52696b2e72829750a355d002e0be3e</property>
  <property name="kdenlive:proxy">/home/xiaoxiae/.cache/kdenlive/proxy/8b52696b2e72829750a355d002e0be3e.mkv</property>
  <property name="kdenlive:originalurl">video/ChromaticNumber/4.mp4</property>
  <property name="global_feed">1</property>
  <property name="meta.media.nb_streams">1</property>
  <property name="meta.media.0.stream.type">video</property>
  <property name="meta.media.0.stream.frame_rate">60</property>
  <property name="meta.media.0.stream.sample_aspect_ratio">0</property>
  <property name="meta.media.0.codec.width">640</property>
  <property name="meta.media.0.codec.height">360</property>
  <property name="meta.media.0.codec.rotate">0</property>
  <property name="meta.media.0.codec.frame_rate">60</property>
  <property name="meta.media.0.codec.pix_fmt">yuv420p</property>
  <property name="meta.media.0.codec.sample_aspect_ratio">0</property>
  <property name="meta.media.0.codec.colorspace">601</property>
  <property name="meta.media.0.codec.name">h264</property>
  <property name="meta.media.0.codec.long_name">H.264 / AVC / MPEG-4 AVC / MPEG-4 part 10</property>
  <property name="meta.media.0.codec.bit_rate">0</property>
  <property name="meta.attr.0.stream.HANDLER_NAME.markup">VideoHandler</property>
  <property name="meta.attr.0.stream.VENDOR_ID.markup">[0][0][0][0]</property>
  <property name="meta.attr.0.stream.ENCODER.markup">Lavc58.134.100 libx264</property>
  <property name="meta.attr.0.stream.DURATION.markup">00:00:02.000000000</property>
  <property name="meta.attr.COMMENT.markup">Rendered with Manim Community v0.6.0</property>
  <property name="meta.attr.MAJOR_BRAND.markup">isom</property>
  <property name="meta.attr.MINOR_VERSION.markup">512</property>
  <property name="meta.attr.COMPATIBLE_BRANDS.markup">isomiso2avc1mp41</property>
  <property name="meta.attr.ENCODER.markup">Lavf58.76.100</property>
  <property name="meta.media.sample_aspect_num">1</property>
  <property name="meta.media.sample_aspect_den">1</property>
  <property name="meta.media.frame_rate_num">60</property>
  <property name="meta.media.frame_rate_den">1</property>
  <property name="meta.media.colorspace">601</property>
  <property name="meta.media.color_trc">2</property>
  <property name="meta.media.width">640</property>
  <property name="meta.media.height">360</property>
  <property name="meta.media.color_range">mpeg</property>
  <property name="meta.media.top_field_first">0</property>
  <property name="meta.media.progressive">1</property>
  <property name="kdenlive:original.mlt_type">producer</property>
  <property name="kdenlive:original.in">0</property>
  <property name="kdenlive:original.out">119</property>
  <property name="kdenlive:original.length">120</property>
  <property name="kdenlive:original.eof">pause</property>
  <property name="kdenlive:original.resource">video/ChromaticNumber/4.mp4</property>
  <property name="kdenlive:original.meta.media.nb_streams">1</property>
  <property name="kdenlive:original.meta.media.0.stream.type">video</property>
  <property name="kdenlive:original.meta.media.0.stream.frame_rate">60</property>
  <property name="kdenlive:original.meta.media.0.stream.sample_aspect_ratio">0</property>
  <property name="kdenlive:original.meta.media.0.codec.width">3840</property>
  <property name="kdenlive:original.meta.media.0.codec.height">2160</property>
  <property name="kdenlive:original.meta.media.0.codec.rotate">0</property>
  <property name="kdenlive:original.meta.media.0.codec.frame_rate">60</property>
  <property name="kdenlive:original.meta.media.0.codec.pix_fmt">yuv420p</property>
  <property name="kdenlive:original.meta.media.0.codec.sample_aspect_ratio">0</property>
  <property name="kdenlive:original.meta.media.0.codec.colorspace">709</property>
  <property name="kdenlive:original.meta.media.0.codec.name">h264</property>
  <property name="kdenlive:original.meta.media.0.codec.long_name">H.264 / AVC / MPEG-4 AVC / MPEG-4 part 10</property>
  <property name="kdenlive:original.meta.media.0.codec.bit_rate">867604</property>
  <property name="kdenlive:original.meta.attr.0.stream.handler_name.markup">VideoHandler</property>
  <property name="kdenlive:original.meta.attr.0.stream.vendor_id.markup">[0][0][0][0]</property>
  <property name="kdenlive:original.meta.attr.major_brand.markup">isom</property>
  <property name="kdenlive:original.meta.attr.minor_version.markup">512</property>
  <property name="kdenlive:original.meta.attr.compatible_brands.markup">isomiso2avc1mp41</property>
  <property name="kdenlive:original.meta.attr.encoder.markup">Lavf58.76.100</property>
  <property name="kdenlive:original.meta.attr.comment.markup">Rendered with Manim Community v0.6.0</property>
  <property name="kdenlive:original.seekable">1</property>
  <property name="kdenlive:original.width">3840</property>
  <property name="kdenlive:original.height">2160</property>
  <property name="kdenlive:original.meta.media.sample_aspect_num">1</property>
  <property name="kdenlive:original.meta.media.sample_aspect_den">1</property>
  <property name="kdenlive:original.aspect_ratio">1</property>
  <property name="kdenlive:original.audio_index">-1</property>
  <property name="kdenlive:original.video_index">0</property>
  <property name="kdenlive:original.mute_on_pause">1</property>
  <property name="kdenlive:original.mlt_service">avformat</property>
  <property name="kdenlive:original.meta.media.frame_rate_num">60</property>
  <property name="kdenlive:original.meta.media.frame_rate_den">1</property>
  <property name="kdenlive:original.meta.media.colorspace">709</property>
  <property name="kdenlive:original.meta.media.color_trc">2</property>
  <property name="kdenlive:original.meta.media.width">3840</property>
  <property name="kdenlive:original.meta.media.height">2160</property>
  <property name="kdenlive:original.meta.media.color_range">mpeg</property>
  <property name="kdenlive:original.meta.media.top_field_first">0</property>
  <property name="kdenlive:original.meta.media.progressive">1</property>
  <property name="kdenlive:original.backup">1</property>
 </producer>
 <producer id="producer61" in="00:00:00.000" out="00:00:04.983">
  <property name="length">00:00:05.000</property>
  <property name="eof">pause</property>
  <property name="resource">/home/xiaoxiae/.cache/kdenlive/proxy/630e64e60923f4fa2dd5573dc92ee0f0.png</property>
  <property name="ttl">25</property>
  <property name="aspect_ratio">1</property>
  <property name="progressive">1</property>
  <property name="seekable">1</property>
  <property name="meta.media.width">800</property>
  <property name="meta.media.height">450</property>
  <property name="mlt_service">qimage</property>
  <property name="kdenlive:clipname">4.png</property>
  <property name="kdenlive:duration">00:00:05.000</property>
  <property name="kdenlive:folderid">14</property>
  <property name="kdenlive:id">22</property>
  <property name="kdenlive:file_size">571008</property>
  <property name="kdenlive:file_hash">630e64e60923f4fa2dd5573dc92ee0f0</property>
  <property name="kdenlive:proxy">/home/xiaoxiae/.cache/kdenlive/proxy/630e64e60923f4fa2dd5573dc92ee0f0.png</property>
  <property name="kdenlive:originalurl">video/ChromaticNumber/4.png</property>
  <property name="global_feed">1</property>
 </producer>
 <producer id="producer58" in="00:00:00.000" out="00:00:00.983">
  <property name="length">60</property>
  <property name="eof">pause</property>
  <property name="resource">/home/xiaoxiae/.cache/kdenlive/proxy/146b835666c97180ef225fc9a5f9deb6.mkv</property>
  <property name="audio_index">-1</property>
  <property name="video_index">0</property>
  <property name="mute_on_pause">0</property>
  <property name="mlt_service">avformat-novalidate</property>
  <property name="seekable">1</property>
  <property name="aspect_ratio">1</property>
  <property name="kdenlive:clipname">5.mp4</property>
  <property name="kdenlive:folderid">14</property>
  <property name="kdenlive:id">23</property>
  <property name="kdenlive:file_size">170976</property>
  <property name="kdenlive:file_hash">146b835666c97180ef225fc9a5f9deb6</property>
  <property name="kdenlive:proxy">/home/xiaoxiae/.cache/kdenlive/proxy/146b835666c97180ef225fc9a5f9deb6.mkv</property>
  <property name="kdenlive:originalurl">video/ChromaticNumber/5.mp4</property>
  <property name="global_feed">1</property>
  <property name="meta.media.nb_streams">1</property>
  <property name="meta.media.0.stream.type">video</property>
  <property name="meta.media.0.stream.frame_rate">60</property>
  <property name="meta.media.0.stream.sample_aspect_ratio">0</property>
  <property name="meta.media.0.codec.width">640</property>
  <property name="meta.media.0.codec.height">360</property>
  <property name="meta.media.0.codec.rotate">0</property>
  <property name="meta.media.0.codec.frame_rate">60</property>
  <property name="meta.media.0.codec.pix_fmt">yuv420p</property>
  <property name="meta.media.0.codec.sample_aspect_ratio">0</property>
  <property name="meta.media.0.codec.colorspace">601</property>
  <property name="meta.media.0.codec.name">h264</property>
  <property name="meta.media.0.codec.long_name">H.264 / AVC / MPEG-4 AVC / MPEG-4 part 10</property>
  <property name="meta.media.0.codec.bit_rate">0</property>
  <property name="meta.attr.0.stream.HANDLER_NAME.markup">VideoHandler</property>
  <property name="meta.attr.0.stream.VENDOR_ID.markup">[0][0][0][0]</property>
  <property name="meta.attr.0.stream.ENCODER.markup">Lavc58.134.100 libx264</property>
  <property name="meta.attr.0.stream.DURATION.markup">00:00:01.000000000</property>
  <property name="meta.attr.COMMENT.markup">Rendered with Manim Community v0.6.0</property>
  <property name="meta.attr.MAJOR_BRAND.markup">isom</property>
  <property name="meta.attr.MINOR_VERSION.markup">512</property>
  <property name="meta.attr.COMPATIBLE_BRANDS.markup">isomiso2avc1mp41</property>
  <property name="meta.attr.ENCODER.markup">Lavf58.76.100</property>
  <property name="meta.media.sample_aspect_num">1</property>
  <property name="meta.media.sample_aspect_den">1</property>
  <property name="meta.media.frame_rate_num">60</property>
  <property name="meta.media.frame_rate_den">1</property>
  <property name="meta.media.colorspace">601</property>
  <property name="meta.media.color_trc">2</property>
  <property name="meta.media.width">640</property>
  <property name="meta.media.height">360</property>
  <property name="meta.media.color_range">mpeg</property>
  <property name="meta.media.top_field_first">0</property>
  <property name="meta.media.progressive">1</property>
  <property name="kdenlive:original.mlt_type">producer</property>
  <property name="kdenlive:original.in">0</property>
  <property name="kdenlive:original.out">59</property>
  <property name="kdenlive:original.length">60</property>
  <property name="kdenlive:original.eof">pause</property>
  <property name="kdenlive:original.resource">video/ChromaticNumber/5.mp4</property>
  <property name="kdenlive:original.meta.media.nb_streams">1</property>
  <property name="kdenlive:original.meta.media.0.stream.type">video</property>
  <property name="kdenlive:original.meta.media.0.stream.frame_rate">60</property>
  <property name="kdenlive:original.meta.media.0.stream.sample_aspect_ratio">0</property>
  <property name="kdenlive:original.meta.media.0.codec.width">3840</property>
  <property name="kdenlive:original.meta.media.0.codec.height">2160</property>
  <property name="kdenlive:original.meta.media.0.codec.rotate">0</property>
  <property name="kdenlive:original.meta.media.0.codec.frame_rate">60</property>
  <property name="kdenlive:original.meta.media.0.codec.pix_fmt">yuv420p</property>
  <property name="kdenlive:original.meta.media.0.codec.sample_aspect_ratio">0</property>
  <property name="kdenlive:original.meta.media.0.codec.colorspace">709</property>
  <property name="kdenlive:original.meta.media.0.codec.name">h264</property>
  <property name="kdenlive:original.meta.media.0.codec.long_name">H.264 / AVC / MPEG-4 AVC / MPEG-4 part 10</property>
  <property name="kdenlive:original.meta.media.0.codec.bit_rate">1354760</property>
  <property name="kdenlive:original.meta.attr.0.stream.handler_name.markup">VideoHandler</property>
  <property name="kdenlive:original.meta.attr.0.stream.vendor_id.markup">[0][0][0][0]</property>
  <property name="kdenlive:original.meta.attr.major_brand.markup">isom</property>
  <property name="kdenlive:original.meta.attr.minor_version.markup">512</property>
  <property name="kdenlive:original.meta.attr.compatible_brands.markup">isomiso2avc1mp41</property>
  <property name="kdenlive:original.meta.attr.encoder.markup">Lavf58.76.100</property>
  <property name="kdenlive:original.meta.attr.comment.markup">Rendered with Manim Community v0.6.0</property>
  <property name="kdenlive:original.seekable">1</property>
  <property name="kdenlive:original.width">3840</property>
  <property name="kdenlive:original.height">2160</property>
  <property name="kdenlive:original.meta.media.sample_aspect_num">1</property>
  <property name="kdenlive:original.meta.media.sample_aspect_den">1</property>
  <property name="kdenlive:original.aspect_ratio">1</property>
  <property name="kdenlive:original.audio_index">-1</property>
  <property name="kdenlive:original.video_index">0</property>
  <property name="kdenlive:original.mute_on_pause">1</property>
  <property name="kdenlive:original.mlt_service">avformat</property>
  <property name="kdenlive:original.meta.media.frame_rate_num">60</property>
  <property name="kdenlive:original.meta.media.frame_rate_den">1</property>
  <property name="kdenlive:original.meta.media.colorspace">709</property>
  <property name="kdenlive:original.meta.media.color_trc">2</property>
  <property name="kdenlive:original.meta.media.width">3840</property>
  <property name="kdenlive:original.meta.media.height">2160</property>
  <property name="kdenlive:original.meta.media.color_range">mpeg</property>
  <property name="kdenlive:original.meta.media.top_field_first">0</property>
  <property name="kdenlive:original.meta.media.progressive">1</property>
  <property name="kdenlive:original.backup">1</property>
 </producer>
 <producer id="producer63" in="00:00:00.000" out="00:00:04.983">
  <property name="length">00:00:05.000</property>
  <property name="eof">pause</property>
  <property name="resource">/home/xiaoxiae/.cache/kdenlive/proxy/c317fa7fde0853f7aeb8603d84c1cb41.png</property>
  <property name="ttl">25</property>
  <property name="aspect_ratio">1</property>
  <property name="progressive">1</property>
  <property name="seekable">1</property>
  <property name="meta.media.width">800</property>
  <property name="meta.media.height">450</property>
  <property name="mlt_service">qimage</property>
  <property name="kdenlive:clipname">5.png</property>
  <property name="kdenlive:duration">00:00:05.000</property>
  <property name="kdenlive:folderid">14</property>
  <property name="kdenlive:id">24</property>
  <property name="kdenlive:file_size">619121</property>
  <property name="kdenlive:file_hash">c317fa7fde0853f7aeb8603d84c1cb41</property>
  <property name="kdenlive:proxy">/home/xiaoxiae/.cache/kdenlive/proxy/c317fa7fde0853f7aeb8603d84c1cb41.png</property>
  <property name="kdenlive:originalurl">video/ChromaticNumber/5.png</property>
  <property name="global_feed">1</property>
 </producer>
 <producer id="producer60" in="00:00:00.000" out="00:00:00.983">
  <property name="length">60</property>
  <property name="eof">pause</property>
  <property name="resource">/home/xiaoxiae/.cache/kdenlive/proxy/7b7243ea0bdddab483ba9a814031862e.mkv</property>
  <property name="audio_index">-1</property>
  <property name="video_index">0</property>
  <property name="mute_on_pause">0</property>
  <property name="mlt_service">avformat-novalidate</property>
  <property name="seekable">1</property>
  <property name="aspect_ratio">1</property>
  <property name="kdenlive:clipname">6.mp4</property>
  <property name="kdenlive:folderid">14</property>
  <property name="kdenlive:id">25</property>
  <property name="kdenlive:file_size">191022</property>
  <property name="kdenlive:file_hash">7b7243ea0bdddab483ba9a814031862e</property>
  <property name="kdenlive:proxy">/home/xiaoxiae/.cache/kdenlive/proxy/7b7243ea0bdddab483ba9a814031862e.mkv</property>
  <property name="kdenlive:originalurl">video/ChromaticNumber/6.mp4</property>
  <property name="global_feed">1</property>
  <property name="meta.media.nb_streams">1</property>
  <property name="meta.media.0.stream.type">video</property>
  <property name="meta.media.0.stream.frame_rate">60</property>
  <property name="meta.media.0.stream.sample_aspect_ratio">0</property>
  <property name="meta.media.0.codec.width">640</property>
  <property name="meta.media.0.codec.height">360</property>
  <property name="meta.media.0.codec.rotate">0</property>
  <property name="meta.media.0.codec.frame_rate">60</property>
  <property name="meta.media.0.codec.pix_fmt">yuv420p</property>
  <property name="meta.media.0.codec.sample_aspect_ratio">0</property>
  <property name="meta.media.0.codec.colorspace">601</property>
  <property name="meta.media.0.codec.name">h264</property>
  <property name="meta.media.0.codec.long_name">H.264 / AVC / MPEG-4 AVC / MPEG-4 part 10</property>
  <property name="meta.media.0.codec.bit_rate">0</property>
  <property name="meta.attr.0.stream.HANDLER_NAME.markup">VideoHandler</property>
  <property name="meta.attr.0.stream.VENDOR_ID.markup">[0][0][0][0]</property>
  <property name="meta.attr.0.stream.ENCODER.markup">Lavc58.134.100 libx264</property>
  <property name="meta.attr.0.stream.DURATION.markup">00:00:01.000000000</property>
  <property name="meta.attr.COMMENT.markup">Rendered with Manim Community v0.6.0</property>
  <property name="meta.attr.MAJOR_BRAND.markup">isom</property>
  <property name="meta.attr.MINOR_VERSION.markup">512</property>
  <property name="meta.attr.COMPATIBLE_BRANDS.markup">isomiso2avc1mp41</property>
  <property name="meta.attr.ENCODER.markup">Lavf58.76.100</property>
  <property name="meta.media.sample_aspect_num">1</property>
  <property name="meta.media.sample_aspect_den">1</property>
  <property name="meta.media.frame_rate_num">60</property>
  <property name="meta.media.frame_rate_den">1</property>
  <property name="meta.media.colorspace">601</property>
  <property name="meta.media.color_trc">2</property>
  <property name="meta.media.width">640</property>
  <property name="meta.media.height">360</property>
  <property name="meta.media.color_range">mpeg</property>
  <property name="meta.media.top_field_first">0</property>
  <property name="meta.media.progressive">1</property>
  <property name="kdenlive:original.mlt_type">producer</property>
  <property name="kdenlive:original.in">0</property>
  <property name="kdenlive:original.out">59</property>
  <property name="kdenlive:original.length">60</property>
  <property name="kdenlive:original.eof">pause</property>
  <property name="kdenlive:original.resource">video/ChromaticNumber/6.mp4</property>
  <property name="kdenlive:original.meta.media.nb_streams">1</property>
  <property name="kdenlive:original.meta.media.0.stream.type">video</property>
  <property name="kdenlive:original.meta.media.0.stream.frame_rate">60</property>
  <property name="kdenlive:original.meta.media.0.stream.sample_aspect_ratio">0</property>
  <property name="kdenlive:original.meta.media.0.codec.width">3840</property>
  <property name="kdenlive:original.meta.media.0.codec.height">2160</property>
  <property name="kdenlive:original.meta.media.0.codec.rotate">0</property>
  <property name="kdenlive:original.meta.media.0.codec.frame_rate">60</property>
  <property name="kdenlive:original.meta.media.0.codec.pix_fmt">yuv420p</property>
  <property name="kdenlive:original.meta.media.0.codec.sample_aspect_ratio">0</property>
  <property name="kdenlive:original.meta.media.0.codec.colorspace">709</property>
  <property name="kdenlive:original.meta.media.0.codec.name">h264</property>
  <property name="kdenlive:original.meta.media.0.codec.long_name">H.264 / AVC / MPEG-4 AVC / MPEG-4 part 10</property>
  <property name="kdenlive:original.meta.media.0.codec.bit_rate">1515192</property>
  <property name="kdenlive:original.meta.attr.0.stream.handler_name.markup">VideoHandler</property>
  <property name="kdenlive:original.meta.attr.0.stream.vendor_id.markup">[0][0][0][0]</property>
  <property name="kdenlive:original.meta.attr.major_brand.markup">isom</property>
  <property name="kdenlive:original.meta.attr.minor_version.markup">512</property>
  <property name="kdenlive:original.meta.attr.compatible_brands.markup">isomiso2avc1mp41</property>
  <property name="kdenlive:original.meta.attr.encoder.markup">Lavf58.76.100</property>
  <property name="kdenlive:original.meta.attr.comment.markup">Rendered with Manim Community v0.6.0</property>
  <property name="kdenlive:original.seekable">1</property>
  <property name="kdenlive:original.width">3840</property>
  <property name="kdenlive:original.height">2160</property>
  <property name="kdenlive:original.meta.media.sample_aspect_num">1</property>
  <property name="kdenlive:original.meta.media.sample_aspect_den">1</property>
  <property name="kdenlive:original.aspect_ratio">1</property>
  <property name="kdenlive:original.audio_index">-1</property>
  <property name="kdenlive:original.video_index">0</property>
  <property name="kdenlive:original.mute_on_pause">1</property>
  <property name="kdenlive:original.mlt_service">avformat</property>
  <property name="kdenlive:original.meta.media.frame_rate_num">60</property>
  <property name="kdenlive:original.meta.media.frame_rate_den">1</property>
  <property name="kdenlive:original.meta.media.colorspace">709</property>
  <property name="kdenlive:original.meta.media.color_trc">2</property>
  <property name="kdenlive:original.meta.media.width">3840</property>
  <property name="kdenlive:original.meta.media.height">2160</property>
  <property name="kdenlive:original.meta.media.color_range">mpeg</property>
  <property name="kdenlive:original.meta.media.top_field_first">0</property>
  <property name="kdenlive:original.meta.media.progressive">1</property>
  <property name="kdenlive:original.backup">1</property>
 </producer>
 <producer id="producer64" in="00:00:00.000" out="00:00:04.983">
  <property name="length">00:00:05.000</property>
  <property name="eof">pause</property>
  <property name="resource">/home/xiaoxiae/.cache/kdenlive/proxy/d523bcd5ca9a9233ea6a63840a9d9f08.png</property>
  <property name="ttl">25</property>
  <property name="aspect_ratio">1</property>
  <property name="progressive">1</property>
  <property name="seekable">1</property>
  <property name="meta.media.width">800</property>
  <property name="meta.media.height">450</property>
  <property name="mlt_service">qimage</property>
  <property name="kdenlive:clipname">6.png</property>
  <property name="kdenlive:duration">00:00:05.000</property>
  <property name="kdenlive:folderid">14</property>
  <property name="kdenlive:id">26</property>
  <property name="kdenlive:file_size">625295</property>
  <property name="kdenlive:file_hash">d523bcd5ca9a9233ea6a63840a9d9f08</property>
  <property name="kdenlive:proxy">/home/xiaoxiae/.cache/kdenlive/proxy/d523bcd5ca9a9233ea6a63840a9d9f08.png</property>
  <property name="kdenlive:originalurl">video/ChromaticNumber/6.png</property>
  <property name="global_feed">1</property>
 </producer>
 <producer id="producer67" in="00:00:00.000" out="00:00:00.983">
  <property name="length">60</property>
  <property name="eof">pause</property>
  <property name="resource">/home/xiaoxiae/.cache/kdenlive/proxy/221a142b284ece156d38065bd9e75474.mkv</property>
  <property name="audio_index">-1</property>
  <property name="video_index">0</property>
  <property name="mute_on_pause">0</property>
  <property name="mlt_service">avformat-novalidate</property>
  <property name="seekable">1</property>
  <property name="aspect_ratio">1</property>
  <property name="kdenlive:clipname">7.mp4</property>
  <property name="kdenlive:folderid">14</property>
  <property name="kdenlive:id">27</property>
  <property name="kdenlive:file_size">161448</property>
  <property name="kdenlive:file_hash">221a142b284ece156d38065bd9e75474</property>
  <property name="kdenlive:proxy">/home/xiaoxiae/.cache/kdenlive/proxy/221a142b284ece156d38065bd9e75474.mkv</property>
  <property name="kdenlive:originalurl">video/ChromaticNumber/7.mp4</property>
  <property name="global_feed">1</property>
  <property name="meta.media.nb_streams">1</property>
  <property name="meta.media.0.stream.type">video</property>
  <property name="meta.media.0.stream.frame_rate">60</property>
  <property name="meta.media.0.stream.sample_aspect_ratio">0</property>
  <property name="meta.media.0.codec.width">640</property>
  <property name="meta.media.0.codec.height">360</property>
  <property name="meta.media.0.codec.rotate">0</property>
  <property name="meta.media.0.codec.frame_rate">60</property>
  <property name="meta.media.0.codec.pix_fmt">yuv420p</property>
  <property name="meta.media.0.codec.sample_aspect_ratio">0</property>
  <property name="meta.media.0.codec.colorspace">601</property>
  <property name="meta.media.0.codec.name">h264</property>
  <property name="meta.media.0.codec.long_name">H.264 / AVC / MPEG-4 AVC / MPEG-4 part 10</property>
  <property name="meta.media.0.codec.bit_rate">0</property>
  <property name="meta.attr.0.stream.HANDLER_NAME.markup">VideoHandler</property>
  <property name="meta.attr.0.stream.VENDOR_ID.markup">[0][0][0][0]</property>
  <property name="meta.attr.0.stream.ENCODER.markup">Lavc58.134.100 libx264</property>
  <property name="meta.attr.0.stream.DURATION.markup">00:00:01.000000000</property>
  <property name="meta.attr.COMMENT.markup">Rendered with Manim Community v0.6.0</property>
  <property name="meta.attr.MAJOR_BRAND.markup">isom</property>
  <property name="meta.attr.MINOR_VERSION.markup">512</property>
  <property name="meta.attr.COMPATIBLE_BRANDS.markup">isomiso2avc1mp41</property>
  <property name="meta.attr.ENCODER.markup">Lavf58.76.100</property>
  <property name="meta.media.sample_aspect_num">1</property>
  <property name="meta.media.sample_aspect_den">1</property>
  <property name="meta.media.frame_rate_num">60</property>
  <property name="meta.media.frame_rate_den">1</property>
  <property name="meta.media.colorspace">601</property>
  <property name="meta.media.color_trc">2</property>
  <property name="meta.media.width">640</property>
  <property name="meta.media.height">360</property>
  <property name="meta.media.color_range">mpeg</property>
  <property name="meta.media.top_field_first">0</property>
  <property name="meta.media.progressive">1</property>
  <property name="kdenlive:original.mlt_type">producer</property>
  <property name="kdenlive:original.in">0</property>
  <property name="kdenlive:original.out">59</property>
  <property name="kdenlive:original.length">60</property>
  <property name="kdenlive:original.eof">pause</property>
  <property name="kdenlive:original.resource">video/ChromaticNumber/7.mp4</property>
  <property name="kdenlive:original.meta.media.nb_streams">1</property>
  <property name="kdenlive:original.meta.media.0.stream.type">video</property>
  <property name="kdenlive:original.meta.media.0.stream.frame_rate">60</property>
  <property name="kdenlive:original.meta.media.0.stream.sample_aspect_ratio">0</property>
  <property name="kdenlive:original.meta.media.0.codec.width">3840</property>
  <property name="kdenlive:original.meta.media.0.codec.height">2160</property>
  <property name="kdenlive:original.meta.media.0.codec.rotate">0</property>
  <property name="kdenlive:original.meta.media.0.codec.frame_rate">60</property>
  <property name="kdenlive:original.meta.media.0.codec.pix_fmt">yuv420p</property>
  <property name="kdenlive:original.meta.media.0.codec.sample_aspect_ratio">0</property>
  <property name="kdenlive:original.meta.media.0.codec.colorspace">709</property>
  <property name="kdenlive:original.meta.media.0.codec.name">h264</property>
  <property name="kdenlive:original.meta.media.0.codec.long_name">H.264 / AVC / MPEG-4 AVC / MPEG-4 part 10</property>
  <property name="kdenlive:original.meta.media.0.codec.bit_rate">1278536</property>
  <property name="kdenlive:original.meta.attr.0.stream.handler_name.markup">VideoHandler</property>
  <property name="kdenlive:original.meta.attr.0.stream.vendor_id.markup">[0][0][0][0]</property>
  <property name="kdenlive:original.meta.attr.major_brand.markup">isom</property>
  <property name="kdenlive:original.meta.attr.minor_version.markup">512</property>
  <property name="kdenlive:original.meta.attr.compatible_brands.markup">isomiso2avc1mp41</property>
  <property name="kdenlive:original.meta.attr.encoder.markup">Lavf58.76.100</property>
  <property name="kdenlive:original.meta.attr.comment.markup">Rendered with Manim Community v0.6.0</property>
  <property name="kdenlive:original.seekable">1</property>
  <property name="kdenlive:original.width">3840</property>
  <property name="kdenlive:original.height">2160</property>
  <property name="kdenlive:original.meta.media.sample_aspect_num">1</property>
  <property name="kdenlive:original.meta.media.sample_aspect_den">1</property>
  <property name="kdenlive:original.aspect_ratio">1</property>
  <property name="kdenlive:original.audio_index">-1</property>
  <property name="kdenlive:original.video_index">0</property>
  <property name="kdenlive:original.mute_on_pause">1</property>
  <property name="kdenlive:original.mlt_service">avformat</property>
  <property name="kdenlive:original.meta.media.frame_rate_num">60</property>
  <property name="kdenlive:original.meta.media.frame_rate_den">1</property>
  <property name="kdenlive:original.meta.media.colorspace">709</property>
  <property name="kdenlive:original.meta.media.color_trc">2</property>
  <property name="kdenlive:original.meta.media.width">3840</property>
  <property name="kdenlive:original.meta.media.height">2160</property>
  <property name="kdenlive:original.meta.media.color_range">mpeg</property>
  <property name="kdenlive:original.meta.media.top_field_first">0</property>
  <property name="kdenlive:original.meta.media.progressive">1</property>
  <property name="kdenlive:original.backup">1</property>
 </producer>
 <producer id="producer65" in="00:00:00.000" out="00:00:04.983">
  <property name="length">00:00:05.000</property>
  <property name="eof">pause</property>
  <property name="resource">/home/xiaoxiae/.cache/kdenlive/proxy/9aaed0e56a6b580cdd79f71cd896f3bb.png</property>
  <property name="ttl">25</property>
  <property name="aspect_ratio">1</property>
  <property name="progressive">1</property>
  <property name="seekable">1</property>
  <property name="meta.media.width">800</property>
  <property name="meta.media.height">450</property>
  <property name="mlt_service">qimage</property>
  <property name="kdenlive:clipname">7.png</property>
  <property name="kdenlive:duration">00:00:05.000</property>
  <property name="kdenlive:folderid">14</property>
  <property name="kdenlive:id">28</property>
  <property name="kdenlive:file_size">621852</property>
  <property name="kdenlive:file_hash">9aaed0e56a6b580cdd79f71cd896f3bb</property>
  <property name="kdenlive:proxy">/home/xiaoxiae/.cache/kdenlive/proxy/9aaed0e56a6b580cdd79f71cd896f3bb.png</property>
  <property name="kdenlive:originalurl">video/ChromaticNumber/7.png</property>
  <property name="global_feed">1</property>
 </producer>
 <producer id="producer68" in="00:00:00.000" out="00:00:00.983">
  <property name="length">60</property>
  <property name="eof">pause</property>
  <property name="resource">/home/xiaoxiae/.cache/kdenlive/proxy/3826429d57968246a3db00cc6b0af598.mkv</property>
  <property name="audio_index">-1</property>
  <property name="video_index">0</property>
  <property name="mute_on_pause">0</property>
  <property name="mlt_service">avformat-novalidate</property>
  <property name="seekable">1</property>
  <property name="aspect_ratio">1</property>
  <property name="kdenlive:clipname">8.mp4</property>
  <property name="kdenlive:folderid">14</property>
  <property name="kdenlive:id">29</property>
  <property name="kdenlive:file_size">165844</property>
  <property name="kdenlive:file_hash">3826429d57968246a3db00cc6b0af598</property>
  <property name="kdenlive:proxy">/home/xiaoxiae/.cache/kdenlive/proxy/3826429d57968246a3db00cc6b0af598.mkv</property>
  <property name="kdenlive:originalurl">video/ChromaticNumber/8.mp4</property>
  <property name="global_feed">1</property>
  <property name="meta.media.nb_streams">1</property>
  <property name="meta.media.0.stream.type">video</property>
  <property name="meta.media.0.stream.frame_rate">60</property>
  <property name="meta.media.0.stream.sample_aspect_ratio">0</property>
  <property name="meta.media.0.codec.width">640</property>
  <property name="meta.media.0.codec.height">360</property>
  <property name="meta.media.0.codec.rotate">0</property>
  <property name="meta.media.0.codec.frame_rate">60</property>
  <property name="meta.media.0.codec.pix_fmt">yuv420p</property>
  <property name="meta.media.0.codec.sample_aspect_ratio">0</property>
  <property name="meta.media.0.codec.colorspace">601</property>
  <property name="meta.media.0.codec.name">h264</property>
  <property name="meta.media.0.codec.long_name">H.264 / AVC / MPEG-4 AVC / MPEG-4 part 10</property>
  <property name="meta.media.0.codec.bit_rate">0</property>
  <property name="meta.attr.0.stream.HANDLER_NAME.markup">VideoHandler</property>
  <property name="meta.attr.0.stream.VENDOR_ID.markup">[0][0][0][0]</property>
  <property name="meta.attr.0.stream.ENCODER.markup">Lavc58.134.100 libx264</property>
  <property name="meta.attr.0.stream.DURATION.markup">00:00:01.000000000</property>
  <property name="meta.attr.COMMENT.markup">Rendered with Manim Community v0.6.0</property>
  <property name="meta.attr.MAJOR_BRAND.markup">isom</property>
  <property name="meta.attr.MINOR_VERSION.markup">512</property>
  <property name="meta.attr.COMPATIBLE_BRANDS.markup">isomiso2avc1mp41</property>
  <property name="meta.attr.ENCODER.markup">Lavf58.76.100</property>
  <property name="meta.media.sample_aspect_num">1</property>
  <property name="meta.media.sample_aspect_den">1</property>
  <property name="meta.media.frame_rate_num">60</property>
  <property name="meta.media.frame_rate_den">1</property>
  <property name="meta.media.colorspace">601</property>
  <property name="meta.media.color_trc">2</property>
  <property name="meta.media.width">640</property>
  <property name="meta.media.height">360</property>
  <property name="meta.media.color_range">mpeg</property>
  <property name="meta.media.top_field_first">0</property>
  <property name="meta.media.progressive">1</property>
  <property name="kdenlive:original.mlt_type">producer</property>
  <property name="kdenlive:original.in">0</property>
  <property name="kdenlive:original.out">59</property>
  <property name="kdenlive:original.length">60</property>
  <property name="kdenlive:original.eof">pause</property>
  <property name="kdenlive:original.resource">video/ChromaticNumber/8.mp4</property>
  <property name="kdenlive:original.meta.media.nb_streams">1</property>
  <property name="kdenlive:original.meta.media.0.stream.type">video</property>
  <property name="kdenlive:original.meta.media.0.stream.frame_rate">60</property>
  <property name="kdenlive:original.meta.media.0.stream.sample_aspect_ratio">0</property>
  <property name="kdenlive:original.meta.media.0.codec.width">3840</property>
  <property name="kdenlive:original.meta.media.0.codec.height">2160</property>
  <property name="kdenlive:original.meta.media.0.codec.rotate">0</property>
  <property name="kdenlive:original.meta.media.0.codec.frame_rate">60</property>
  <property name="kdenlive:original.meta.media.0.codec.pix_fmt">yuv420p</property>
  <property name="kdenlive:original.meta.media.0.codec.sample_aspect_ratio">0</property>
  <property name="kdenlive:original.meta.media.0.codec.colorspace">709</property>
  <property name="kdenlive:original.meta.media.0.codec.name">h264</property>
  <property name="kdenlive:original.meta.media.0.codec.long_name">H.264 / AVC / MPEG-4 AVC / MPEG-4 part 10</property>
  <property name="kdenlive:original.meta.media.0.codec.bit_rate">1313960</property>
  <property name="kdenlive:original.meta.attr.0.stream.handler_name.markup">VideoHandler</property>
  <property name="kdenlive:original.meta.attr.0.stream.vendor_id.markup">[0][0][0][0]</property>
  <property name="kdenlive:original.meta.attr.major_brand.markup">isom</property>
  <property name="kdenlive:original.meta.attr.minor_version.markup">512</property>
  <property name="kdenlive:original.meta.attr.compatible_brands.markup">isomiso2avc1mp41</property>
  <property name="kdenlive:original.meta.attr.encoder.markup">Lavf58.76.100</property>
  <property name="kdenlive:original.meta.attr.comment.markup">Rendered with Manim Community v0.6.0</property>
  <property name="kdenlive:original.seekable">1</property>
  <property name="kdenlive:original.width">3840</property>
  <property name="kdenlive:original.height">2160</property>
  <property name="kdenlive:original.meta.media.sample_aspect_num">1</property>
  <property name="kdenlive:original.meta.media.sample_aspect_den">1</property>
  <property name="kdenlive:original.aspect_ratio">1</property>
  <property name="kdenlive:original.audio_index">-1</property>
  <property name="kdenlive:original.video_index">0</property>
  <property name="kdenlive:original.mute_on_pause">1</property>
  <property name="kdenlive:original.mlt_service">avformat</property>
  <property name="kdenlive:original.meta.media.frame_rate_num">60</property>
  <property name="kdenlive:original.meta.media.frame_rate_den">1</property>
  <property name="kdenlive:original.meta.media.colorspace">709</property>
  <property name="kdenlive:original.meta.media.color_trc">2</property>
  <property name="kdenlive:original.meta.media.width">3840</property>
  <property name="kdenlive:original.meta.media.height">2160</property>
  <property name="kdenlive:original.meta.media.color_range">mpeg</property>
  <property name="kdenlive:original.meta.media.top_field_first">0</property>
  <property name="kdenlive:original.meta.media.progressive">1</property>
  <property name="kdenlive:original.backup">1</property>
 </producer>
 <producer id="producer66" in="00:00:00.000" out="00:00:04.983">
  <property name="length">00:00:05.000</property>
  <property name="eof">pause</property>
  <property name="resource">/home/xiaoxiae/.cache/kdenlive/proxy/6b665121ca7b54a5f5307b69451fd23c.png</property>
  <property name="ttl">25</property>
  <property name="aspect_ratio">1</property>
  <property name="progressive">1</property>
  <property name="seekable">1</property>
  <property name="meta.media.width">800</property>
  <property name="meta.media.height">450</property>
  <property name="mlt_service">qimage</property>
  <property name="kdenlive:clipname">8.png</property>
  <property name="kdenlive:duration">00:00:05.000</property>
  <property name="kdenlive:folderid">14</property>
  <property name="kdenlive:id">30</property>
  <property name="kdenlive:file_size">24337</property>
  <property name="kdenlive:file_hash">6b665121ca7b54a5f5307b69451fd23c</property>
  <property name="kdenlive:proxy">/home/xiaoxiae/.cache/kdenlive/proxy/6b665121ca7b54a5f5307b69451fd23c.png</property>
  <property name="kdenlive:originalurl">video/ChromaticNumber/8.png</property>
  <property name="global_feed">1</property>
 </producer>
 <producer id="producer71" in="00:00:00.000" out="00:00:01.983">
  <property name="length">120</property>
  <property name="eof">pause</property>
  <property name="resource">/home/xiaoxiae/.cache/kdenlive/proxy/979da154aa9aeaed2c986fc1819525a6.mkv</property>
  <property name="audio_index">-1</property>
  <property name="video_index">0</property>
  <property name="mute_on_pause">0</property>
  <property name="mlt_service">avformat-novalidate</property>
  <property name="seekable">1</property>
  <property name="aspect_ratio">1</property>
  <property name="kdenlive:clipname">1.mp4</property>
  <property name="kdenlive:folderid">31</property>
  <property name="kdenlive:id">32</property>
  <property name="kdenlive:file_size">136308</property>
  <property name="kdenlive:file_hash">979da154aa9aeaed2c986fc1819525a6</property>
  <property name="kdenlive:proxy">/home/xiaoxiae/.cache/kdenlive/proxy/979da154aa9aeaed2c986fc1819525a6.mkv</property>
  <property name="kdenlive:originalurl">video/CliqueAndIndependentSet/1.mp4</property>
  <property name="global_feed">1</property>
  <property name="meta.media.nb_streams">1</property>
  <property name="meta.media.0.stream.type">video</property>
  <property name="meta.media.0.stream.frame_rate">60</property>
  <property name="meta.media.0.stream.sample_aspect_ratio">0</property>
  <property name="meta.media.0.codec.width">640</property>
  <property name="meta.media.0.codec.height">360</property>
  <property name="meta.media.0.codec.rotate">0</property>
  <property name="meta.media.0.codec.frame_rate">60</property>
  <property name="meta.media.0.codec.pix_fmt">yuv420p</property>
  <property name="meta.media.0.codec.sample_aspect_ratio">0</property>
  <property name="meta.media.0.codec.colorspace">601</property>
  <property name="meta.media.0.codec.name">h264</property>
  <property name="meta.media.0.codec.long_name">H.264 / AVC / MPEG-4 AVC / MPEG-4 part 10</property>
  <property name="meta.media.0.codec.bit_rate">0</property>
  <property name="meta.attr.0.stream.HANDLER_NAME.markup">VideoHandler</property>
  <property name="meta.attr.0.stream.VENDOR_ID.markup">[0][0][0][0]</property>
  <property name="meta.attr.0.stream.ENCODER.markup">Lavc58.134.100 libx264</property>
  <property name="meta.attr.0.stream.DURATION.markup">00:00:02.000000000</property>
  <property name="meta.attr.COMMENT.markup">Rendered with Manim Community v0.6.0</property>
  <property name="meta.attr.MAJOR_BRAND.markup">isom</property>
  <property name="meta.attr.MINOR_VERSION.markup">512</property>
  <property name="meta.attr.COMPATIBLE_BRANDS.markup">isomiso2avc1mp41</property>
  <property name="meta.attr.ENCODER.markup">Lavf58.76.100</property>
  <property name="meta.media.sample_aspect_num">1</property>
  <property name="meta.media.sample_aspect_den">1</property>
  <property name="meta.media.frame_rate_num">60</property>
  <property name="meta.media.frame_rate_den">1</property>
  <property name="meta.media.colorspace">601</property>
  <property name="meta.media.color_trc">2</property>
  <property name="meta.media.width">640</property>
  <property name="meta.media.height">360</property>
  <property name="meta.media.color_range">mpeg</property>
  <property name="meta.media.top_field_first">0</property>
  <property name="meta.media.progressive">1</property>
  <property name="kdenlive:original.mlt_type">producer</property>
  <property name="kdenlive:original.in">0</property>
  <property name="kdenlive:original.out">119</property>
  <property name="kdenlive:original.length">120</property>
  <property name="kdenlive:original.eof">pause</property>
  <property name="kdenlive:original.resource">video/CliqueAndIndependentSet/1.mp4</property>
  <property name="kdenlive:original.meta.media.nb_streams">1</property>
  <property name="kdenlive:original.meta.media.0.stream.type">video</property>
  <property name="kdenlive:original.meta.media.0.stream.frame_rate">60</property>
  <property name="kdenlive:original.meta.media.0.stream.sample_aspect_ratio">0</property>
  <property name="kdenlive:original.meta.media.0.codec.width">3840</property>
  <property name="kdenlive:original.meta.media.0.codec.height">2160</property>
  <property name="kdenlive:original.meta.media.0.codec.rotate">0</property>
  <property name="kdenlive:original.meta.media.0.codec.frame_rate">60</property>
  <property name="kdenlive:original.meta.media.0.codec.pix_fmt">yuv420p</property>
  <property name="kdenlive:original.meta.media.0.codec.sample_aspect_ratio">0</property>
  <property name="kdenlive:original.meta.media.0.codec.colorspace">709</property>
  <property name="kdenlive:original.meta.media.0.codec.name">h264</property>
  <property name="kdenlive:original.meta.media.0.codec.long_name">H.264 / AVC / MPEG-4 AVC / MPEG-4 part 10</property>
  <property name="kdenlive:original.meta.media.0.codec.bit_rate">535828</property>
  <property name="kdenlive:original.meta.attr.0.stream.handler_name.markup">VideoHandler</property>
  <property name="kdenlive:original.meta.attr.0.stream.vendor_id.markup">[0][0][0][0]</property>
  <property name="kdenlive:original.meta.attr.major_brand.markup">isom</property>
  <property name="kdenlive:original.meta.attr.minor_version.markup">512</property>
  <property name="kdenlive:original.meta.attr.compatible_brands.markup">isomiso2avc1mp41</property>
  <property name="kdenlive:original.meta.attr.encoder.markup">Lavf58.76.100</property>
  <property name="kdenlive:original.meta.attr.comment.markup">Rendered with Manim Community v0.6.0</property>
  <property name="kdenlive:original.seekable">1</property>
  <property name="kdenlive:original.width">3840</property>
  <property name="kdenlive:original.height">2160</property>
  <property name="kdenlive:original.meta.media.sample_aspect_num">1</property>
  <property name="kdenlive:original.meta.media.sample_aspect_den">1</property>
  <property name="kdenlive:original.aspect_ratio">1</property>
  <property name="kdenlive:original.audio_index">-1</property>
  <property name="kdenlive:original.video_index">0</property>
  <property name="kdenlive:original.mute_on_pause">1</property>
  <property name="kdenlive:original.mlt_service">avformat</property>
  <property name="kdenlive:original.meta.media.frame_rate_num">60</property>
  <property name="kdenlive:original.meta.media.frame_rate_den">1</property>
  <property name="kdenlive:original.meta.media.colorspace">709</property>
  <property name="kdenlive:original.meta.media.color_trc">2</property>
  <property name="kdenlive:original.meta.media.width">3840</property>
  <property name="kdenlive:original.meta.media.height">2160</property>
  <property name="kdenlive:original.meta.media.color_range">mpeg</property>
  <property name="kdenlive:original.meta.media.top_field_first">0</property>
  <property name="kdenlive:original.meta.media.progressive">1</property>
  <property name="kdenlive:original.backup">1</property>
 </producer>
 <producer id="producer69" in="00:00:00.000" out="00:00:04.983">
  <property name="length">00:00:05.000</property>
  <property name="eof">pause</property>
  <property name="resource">/home/xiaoxiae/.cache/kdenlive/proxy/91ac1e6a86c7d24ca552faae28009a5c.png</property>
  <property name="ttl">25</property>
  <property name="aspect_ratio">1</property>
  <property name="progressive">1</property>
  <property name="seekable">1</property>
  <property name="meta.media.width">800</property>
  <property name="meta.media.height">450</property>
  <property name="mlt_service">qimage</property>
  <property name="kdenlive:clipname">1.png</property>
  <property name="kdenlive:duration">00:00:05.000</property>
  <property name="kdenlive:folderid">31</property>
  <property name="kdenlive:id">33</property>
  <property name="kdenlive:file_size">114139</property>
  <property name="kdenlive:file_hash">91ac1e6a86c7d24ca552faae28009a5c</property>
  <property name="kdenlive:proxy">/home/xiaoxiae/.cache/kdenlive/proxy/91ac1e6a86c7d24ca552faae28009a5c.png</property>
  <property name="kdenlive:originalurl">video/CliqueAndIndependentSet/1.png</property>
  <property name="global_feed">1</property>
 </producer>
 <producer id="producer70" in="00:00:00.000" out="00:00:00.983">
  <property name="length">60</property>
  <property name="eof">pause</property>
  <property name="resource">/home/xiaoxiae/.cache/kdenlive/proxy/6c83add5bfe8350e1475297c42c3b621.mkv</property>
  <property name="audio_index">-1</property>
  <property name="video_index">0</property>
  <property name="mute_on_pause">0</property>
  <property name="mlt_service">avformat-novalidate</property>
  <property name="seekable">1</property>
  <property name="aspect_ratio">1</property>
  <property name="kdenlive:clipname">10.mp4</property>
  <property name="kdenlive:folderid">31</property>
  <property name="kdenlive:id">34</property>
  <property name="kdenlive:file_size">204264</property>
  <property name="kdenlive:file_hash">6c83add5bfe8350e1475297c42c3b621</property>
  <property name="kdenlive:proxy">/home/xiaoxiae/.cache/kdenlive/proxy/6c83add5bfe8350e1475297c42c3b621.mkv</property>
  <property name="kdenlive:originalurl">video/CliqueAndIndependentSet/10.mp4</property>
  <property name="global_feed">1</property>
  <property name="meta.media.nb_streams">1</property>
  <property name="meta.media.0.stream.type">video</property>
  <property name="meta.media.0.stream.frame_rate">60</property>
  <property name="meta.media.0.stream.sample_aspect_ratio">0</property>
  <property name="meta.media.0.codec.width">640</property>
  <property name="meta.media.0.codec.height">360</property>
  <property name="meta.media.0.codec.rotate">0</property>
  <property name="meta.media.0.codec.frame_rate">60</property>
  <property name="meta.media.0.codec.pix_fmt">yuv420p</property>
  <property name="meta.media.0.codec.sample_aspect_ratio">0</property>
  <property name="meta.media.0.codec.colorspace">601</property>
  <property name="meta.media.0.codec.name">h264</property>
  <property name="meta.media.0.codec.long_name">H.264 / AVC / MPEG-4 AVC / MPEG-4 part 10</property>
  <property name="meta.media.0.codec.bit_rate">0</property>
  <property name="meta.attr.0.stream.HANDLER_NAME.markup">VideoHandler</property>
  <property name="meta.attr.0.stream.VENDOR_ID.markup">[0][0][0][0]</property>
  <property name="meta.attr.0.stream.ENCODER.markup">Lavc58.134.100 libx264</property>
  <property name="meta.attr.0.stream.DURATION.markup">00:00:01.000000000</property>
  <property name="meta.attr.COMMENT.markup">Rendered with Manim Community v0.6.0</property>
  <property name="meta.attr.MAJOR_BRAND.markup">isom</property>
  <property name="meta.attr.MINOR_VERSION.markup">512</property>
  <property name="meta.attr.COMPATIBLE_BRANDS.markup">isomiso2avc1mp41</property>
  <property name="meta.attr.ENCODER.markup">Lavf58.76.100</property>
  <property name="meta.media.sample_aspect_num">1</property>
  <property name="meta.media.sample_aspect_den">1</property>
  <property name="meta.media.frame_rate_num">60</property>
  <property name="meta.media.frame_rate_den">1</property>
  <property name="meta.media.colorspace">601</property>
  <property name="meta.media.color_trc">2</property>
  <property name="meta.media.width">640</property>
  <property name="meta.media.height">360</property>
  <property name="meta.media.color_range">mpeg</property>
  <property name="meta.media.top_field_first">0</property>
  <property name="meta.media.progressive">1</property>
  <property name="kdenlive:original.mlt_type">producer</property>
  <property name="kdenlive:original.in">0</property>
  <property name="kdenlive:original.out">59</property>
  <property name="kdenlive:original.length">60</property>
  <property name="kdenlive:original.eof">pause</property>
  <property name="kdenlive:original.resource">video/CliqueAndIndependentSet/10.mp4</property>
  <property name="kdenlive:original.meta.media.nb_streams">1</property>
  <property name="kdenlive:original.meta.media.0.stream.type">video</property>
  <property name="kdenlive:original.meta.media.0.stream.frame_rate">60</property>
  <property name="kdenlive:original.meta.media.0.stream.sample_aspect_ratio">0</property>
  <property name="kdenlive:original.meta.media.0.codec.width">3840</property>
  <property name="kdenlive:original.meta.media.0.codec.height">2160</property>
  <property name="kdenlive:original.meta.media.0.codec.rotate">0</property>
  <property name="kdenlive:original.meta.media.0.codec.frame_rate">60</property>
  <property name="kdenlive:original.meta.media.0.codec.pix_fmt">yuv420p</property>
  <property name="kdenlive:original.meta.media.0.codec.sample_aspect_ratio">0</property>
  <property name="kdenlive:original.meta.media.0.codec.colorspace">709</property>
  <property name="kdenlive:original.meta.media.0.codec.name">h264</property>
  <property name="kdenlive:original.meta.media.0.codec.long_name">H.264 / AVC / MPEG-4 AVC / MPEG-4 part 10</property>
  <property name="kdenlive:original.meta.media.0.codec.bit_rate">1621064</property>
  <property name="kdenlive:original.meta.attr.0.stream.handler_name.markup">VideoHandler</property>
  <property name="kdenlive:original.meta.attr.0.stream.vendor_id.markup">[0][0][0][0]</property>
  <property name="kdenlive:original.meta.attr.major_brand.markup">isom</property>
  <property name="kdenlive:original.meta.attr.minor_version.markup">512</property>
  <property name="kdenlive:original.meta.attr.compatible_brands.markup">isomiso2avc1mp41</property>
  <property name="kdenlive:original.meta.attr.encoder.markup">Lavf58.76.100</property>
  <property name="kdenlive:original.meta.attr.comment.markup">Rendered with Manim Community v0.6.0</property>
  <property name="kdenlive:original.seekable">1</property>
  <property name="kdenlive:original.width">3840</property>
  <property name="kdenlive:original.height">2160</property>
  <property name="kdenlive:original.meta.media.sample_aspect_num">1</property>
  <property name="kdenlive:original.meta.media.sample_aspect_den">1</property>
  <property name="kdenlive:original.aspect_ratio">1</property>
  <property name="kdenlive:original.audio_index">-1</property>
  <property name="kdenlive:original.video_index">0</property>
  <property name="kdenlive:original.mute_on_pause">1</property>
  <property name="kdenlive:original.mlt_service">avformat</property>
  <property name="kdenlive:original.meta.media.frame_rate_num">60</property>
  <property name="kdenlive:original.meta.media.frame_rate_den">1</property>
  <property name="kdenlive:original.meta.media.colorspace">709</property>
  <property name="kdenlive:original.meta.media.color_trc">2</property>
  <property name="kdenlive:original.meta.media.width">3840</property>
  <property name="kdenlive:original.meta.media.height">2160</property>
  <property name="kdenlive:original.meta.media.color_range">mpeg</property>
  <property name="kdenlive:original.meta.media.top_field_first">0</property>
  <property name="kdenlive:original.meta.media.progressive">1</property>
  <property name="kdenlive:original.backup">1</property>
 </producer>
 <producer id="producer73" in="00:00:00.000" out="00:00:04.983">
  <property name="length">00:00:05.000</property>
  <property name="eof">pause</property>
  <property name="resource">/home/xiaoxiae/.cache/kdenlive/proxy/9f0300b273fc5ca91f0ec6484ab8cd40.png</property>
  <property name="ttl">25</property>
  <property name="aspect_ratio">1</property>
  <property name="progressive">1</property>
  <property name="seekable">1</property>
  <property name="meta.media.width">800</property>
  <property name="meta.media.height">450</property>
  <property name="mlt_service">qimage</property>
  <property name="kdenlive:clipname">10.png</property>
  <property name="kdenlive:duration">00:00:05.000</property>
  <property name="kdenlive:folderid">31</property>
  <property name="kdenlive:id">35</property>
  <property name="kdenlive:file_size">583029</property>
  <property name="kdenlive:file_hash">9f0300b273fc5ca91f0ec6484ab8cd40</property>
  <property name="kdenlive:proxy">/home/xiaoxiae/.cache/kdenlive/proxy/9f0300b273fc5ca91f0ec6484ab8cd40.png</property>
  <property name="kdenlive:originalurl">video/CliqueAndIndependentSet/10.png</property>
  <property name="global_feed">1</property>
 </producer>
 <producer id="producer75" in="00:00:00.000" out="00:00:00.983">
  <property name="length">60</property>
  <property name="eof">pause</property>
  <property name="resource">/home/xiaoxiae/.cache/kdenlive/proxy/864fa719a60f39af5a83da6bd787d971.mkv</property>
  <property name="audio_index">-1</property>
  <property name="video_index">0</property>
  <property name="mute_on_pause">0</property>
  <property name="mlt_service">avformat-novalidate</property>
  <property name="seekable">1</property>
  <property name="aspect_ratio">1</property>
  <property name="kdenlive:clipname">11.mp4</property>
  <property name="kdenlive:folderid">31</property>
  <property name="kdenlive:id">36</property>
  <property name="kdenlive:file_size">140015</property>
  <property name="kdenlive:file_hash">864fa719a60f39af5a83da6bd787d971</property>
  <property name="kdenlive:proxy">/home/xiaoxiae/.cache/kdenlive/proxy/864fa719a60f39af5a83da6bd787d971.mkv</property>
  <property name="kdenlive:originalurl">video/CliqueAndIndependentSet/11.mp4</property>
  <property name="global_feed">1</property>
  <property name="meta.media.nb_streams">1</property>
  <property name="meta.media.0.stream.type">video</property>
  <property name="meta.media.0.stream.frame_rate">60</property>
  <property name="meta.media.0.stream.sample_aspect_ratio">0</property>
  <property name="meta.media.0.codec.width">640</property>
  <property name="meta.media.0.codec.height">360</property>
  <property name="meta.media.0.codec.rotate">0</property>
  <property name="meta.media.0.codec.frame_rate">60</property>
  <property name="meta.media.0.codec.pix_fmt">yuv420p</property>
  <property name="meta.media.0.codec.sample_aspect_ratio">0</property>
  <property name="meta.media.0.codec.colorspace">601</property>
  <property name="meta.media.0.codec.name">h264</property>
  <property name="meta.media.0.codec.long_name">H.264 / AVC / MPEG-4 AVC / MPEG-4 part 10</property>
  <property name="meta.media.0.codec.bit_rate">0</property>
  <property name="meta.attr.0.stream.HANDLER_NAME.markup">VideoHandler</property>
  <property name="meta.attr.0.stream.VENDOR_ID.markup">[0][0][0][0]</property>
  <property name="meta.attr.0.stream.ENCODER.markup">Lavc58.134.100 libx264</property>
  <property name="meta.attr.0.stream.DURATION.markup">00:00:01.000000000</property>
  <property name="meta.attr.COMMENT.markup">Rendered with Manim Community v0.6.0</property>
  <property name="meta.attr.MAJOR_BRAND.markup">isom</property>
  <property name="meta.attr.MINOR_VERSION.markup">512</property>
  <property name="meta.attr.COMPATIBLE_BRANDS.markup">isomiso2avc1mp41</property>
  <property name="meta.attr.ENCODER.markup">Lavf58.76.100</property>
  <property name="meta.media.sample_aspect_num">1</property>
  <property name="meta.media.sample_aspect_den">1</property>
  <property name="meta.media.frame_rate_num">60</property>
  <property name="meta.media.frame_rate_den">1</property>
  <property name="meta.media.colorspace">601</property>
  <property name="meta.media.color_trc">2</property>
  <property name="meta.media.width">640</property>
  <property name="meta.media.height">360</property>
  <property name="meta.media.color_range">mpeg</property>
  <property name="meta.media.top_field_first">0</property>
  <property name="meta.media.progressive">1</property>
  <property name="kdenlive:original.mlt_type">producer</property>
  <property name="kdenlive:original.in">0</property>
  <property name="kdenlive:original.out">59</property>
  <property name="kdenlive:original.length">60</property>
  <property name="kdenlive:original.eof">pause</property>
  <property name="kdenlive:original.resource">video/CliqueAndIndependentSet/11.mp4</property>
  <property name="kdenlive:original.meta.media.nb_streams">1</property>
  <property name="kdenlive:original.meta.media.0.stream.type">video</property>
  <property name="kdenlive:original.meta.media.0.stream.frame_rate">60</property>
  <property name="kdenlive:original.meta.media.0.stream.sample_aspect_ratio">0</property>
  <property name="kdenlive:original.meta.media.0.codec.width">3840</property>
  <property name="kdenlive:original.meta.media.0.codec.height">2160</property>
  <property name="kdenlive:original.meta.media.0.codec.rotate">0</property>
  <property name="kdenlive:original.meta.media.0.codec.frame_rate">60</property>
  <property name="kdenlive:original.meta.media.0.codec.pix_fmt">yuv420p</property>
  <property name="kdenlive:original.meta.media.0.codec.sample_aspect_ratio">0</property>
  <property name="kdenlive:original.meta.media.0.codec.colorspace">709</property>
  <property name="kdenlive:original.meta.media.0.codec.name">h264</property>
  <property name="kdenlive:original.meta.media.0.codec.long_name">H.264 / AVC / MPEG-4 AVC / MPEG-4 part 10</property>
  <property name="kdenlive:original.meta.media.0.codec.bit_rate">1107072</property>
  <property name="kdenlive:original.meta.attr.0.stream.handler_name.markup">VideoHandler</property>
  <property name="kdenlive:original.meta.attr.0.stream.vendor_id.markup">[0][0][0][0]</property>
  <property name="kdenlive:original.meta.attr.major_brand.markup">isom</property>
  <property name="kdenlive:original.meta.attr.minor_version.markup">512</property>
  <property name="kdenlive:original.meta.attr.compatible_brands.markup">isomiso2avc1mp41</property>
  <property name="kdenlive:original.meta.attr.encoder.markup">Lavf58.76.100</property>
  <property name="kdenlive:original.meta.attr.comment.markup">Rendered with Manim Community v0.6.0</property>
  <property name="kdenlive:original.seekable">1</property>
  <property name="kdenlive:original.width">3840</property>
  <property name="kdenlive:original.height">2160</property>
  <property name="kdenlive:original.meta.media.sample_aspect_num">1</property>
  <property name="kdenlive:original.meta.media.sample_aspect_den">1</property>
  <property name="kdenlive:original.aspect_ratio">1</property>
  <property name="kdenlive:original.audio_index">-1</property>
  <property name="kdenlive:original.video_index">0</property>
  <property name="kdenlive:original.mute_on_pause">1</property>
  <property name="kdenlive:original.mlt_service">avformat</property>
  <property name="kdenlive:original.meta.media.frame_rate_num">60</property>
  <property name="kdenlive:original.meta.media.frame_rate_den">1</property>
  <property name="kdenlive:original.meta.media.colorspace">709</property>
  <property name="kdenlive:original.meta.media.color_trc">2</property>
  <property name="kdenlive:original.meta.media.width">3840</property>
  <property name="kdenlive:original.meta.media.height">2160</property>
  <property name="kdenlive:original.meta.media.color_range">mpeg</property>
  <property name="kdenlive:original.meta.media.top_field_first">0</property>
  <property name="kdenlive:original.meta.media.progressive">1</property>
  <property name="kdenlive:original.backup">1</property>
 </producer>
 <producer id="producer74" in="00:00:00.000" out="00:00:04.983">
  <property name="length">00:00:05.000</property>
  <property name="eof">pause</property>
  <property name="resource">/home/xiaoxiae/.cache/kdenlive/proxy/6375417c5a1733da403264153393b081.png</property>
  <property name="ttl">25</property>
  <property name="aspect_ratio">1</property>
  <property name="progressive">1</property>
  <property name="seekable">1</property>
  <property name="meta.media.width">800</property>
  <property name="meta.media.height">450</property>
  <property name="mlt_service">qimage</property>
  <property name="kdenlive:clipname">11.png</property>
  <property name="kdenlive:duration">00:00:05.000</property>
  <property name="kdenlive:folderid">31</property>
  <property name="kdenlive:id">37</property>
  <property name="kdenlive:file_size">563039</property>
  <property name="kdenlive:file_hash">6375417c5a1733da403264153393b081</property>
  <property name="kdenlive:proxy">/home/xiaoxiae/.cache/kdenlive/proxy/6375417c5a1733da403264153393b081.png</property>
  <property name="kdenlive:originalurl">video/CliqueAndIndependentSet/11.png</property>
  <property name="global_feed">1</property>
 </producer>
 <producer id="producer76" in="00:00:00.000" out="00:00:00.983">
  <property name="length">60</property>
  <property name="eof">pause</property>
  <property name="resource">/home/xiaoxiae/.cache/kdenlive/proxy/906b3e227ba4ed15928416a91f71b035.mkv</property>
  <property name="audio_index">-1</property>
  <property name="video_index">0</property>
  <property name="mute_on_pause">0</property>
  <property name="mlt_service">avformat-novalidate</property>
  <property name="seekable">1</property>
  <property name="aspect_ratio">1</property>
  <property name="kdenlive:clipname">12.mp4</property>
  <property name="kdenlive:folderid">31</property>
  <property name="kdenlive:id">38</property>
  <property name="kdenlive:file_size">137549</property>
  <property name="kdenlive:file_hash">906b3e227ba4ed15928416a91f71b035</property>
  <property name="kdenlive:proxy">/home/xiaoxiae/.cache/kdenlive/proxy/906b3e227ba4ed15928416a91f71b035.mkv</property>
  <property name="kdenlive:originalurl">video/CliqueAndIndependentSet/12.mp4</property>
  <property name="global_feed">1</property>
  <property name="meta.media.nb_streams">1</property>
  <property name="meta.media.0.stream.type">video</property>
  <property name="meta.media.0.stream.frame_rate">60</property>
  <property name="meta.media.0.stream.sample_aspect_ratio">0</property>
  <property name="meta.media.0.codec.width">640</property>
  <property name="meta.media.0.codec.height">360</property>
  <property name="meta.media.0.codec.rotate">0</property>
  <property name="meta.media.0.codec.frame_rate">60</property>
  <property name="meta.media.0.codec.pix_fmt">yuv420p</property>
  <property name="meta.media.0.codec.sample_aspect_ratio">0</property>
  <property name="meta.media.0.codec.colorspace">601</property>
  <property name="meta.media.0.codec.name">h264</property>
  <property name="meta.media.0.codec.long_name">H.264 / AVC / MPEG-4 AVC / MPEG-4 part 10</property>
  <property name="meta.media.0.codec.bit_rate">0</property>
  <property name="meta.attr.0.stream.HANDLER_NAME.markup">VideoHandler</property>
  <property name="meta.attr.0.stream.VENDOR_ID.markup">[0][0][0][0]</property>
  <property name="meta.attr.0.stream.ENCODER.markup">Lavc58.134.100 libx264</property>
  <property name="meta.attr.0.stream.DURATION.markup">00:00:01.000000000</property>
  <property name="meta.attr.COMMENT.markup">Rendered with Manim Community v0.6.0</property>
  <property name="meta.attr.MAJOR_BRAND.markup">isom</property>
  <property name="meta.attr.MINOR_VERSION.markup">512</property>
  <property name="meta.attr.COMPATIBLE_BRANDS.markup">isomiso2avc1mp41</property>
  <property name="meta.attr.ENCODER.markup">Lavf58.76.100</property>
  <property name="meta.media.sample_aspect_num">1</property>
  <property name="meta.media.sample_aspect_den">1</property>
  <property name="meta.media.frame_rate_num">60</property>
  <property name="meta.media.frame_rate_den">1</property>
  <property name="meta.media.colorspace">601</property>
  <property name="meta.media.color_trc">2</property>
  <property name="meta.media.width">640</property>
  <property name="meta.media.height">360</property>
  <property name="meta.media.color_range">mpeg</property>
  <property name="meta.media.top_field_first">0</property>
  <property name="meta.media.progressive">1</property>
  <property name="kdenlive:original.mlt_type">producer</property>
  <property name="kdenlive:original.in">0</property>
  <property name="kdenlive:original.out">59</property>
  <property name="kdenlive:original.length">60</property>
  <property name="kdenlive:original.eof">pause</property>
  <property name="kdenlive:original.resource">video/CliqueAndIndependentSet/12.mp4</property>
  <property name="kdenlive:original.meta.media.nb_streams">1</property>
  <property name="kdenlive:original.meta.media.0.stream.type">video</property>
  <property name="kdenlive:original.meta.media.0.stream.frame_rate">60</property>
  <property name="kdenlive:original.meta.media.0.stream.sample_aspect_ratio">0</property>
  <property name="kdenlive:original.meta.media.0.codec.width">3840</property>
  <property name="kdenlive:original.meta.media.0.codec.height">2160</property>
  <property name="kdenlive:original.meta.media.0.codec.rotate">0</property>
  <property name="kdenlive:original.meta.media.0.codec.frame_rate">60</property>
  <property name="kdenlive:original.meta.media.0.codec.pix_fmt">yuv420p</property>
  <property name="kdenlive:original.meta.media.0.codec.sample_aspect_ratio">0</property>
  <property name="kdenlive:original.meta.media.0.codec.colorspace">709</property>
  <property name="kdenlive:original.meta.media.0.codec.name">h264</property>
  <property name="kdenlive:original.meta.media.0.codec.long_name">H.264 / AVC / MPEG-4 AVC / MPEG-4 part 10</property>
  <property name="kdenlive:original.meta.media.0.codec.bit_rate">1087344</property>
  <property name="kdenlive:original.meta.attr.0.stream.handler_name.markup">VideoHandler</property>
  <property name="kdenlive:original.meta.attr.0.stream.vendor_id.markup">[0][0][0][0]</property>
  <property name="kdenlive:original.meta.attr.major_brand.markup">isom</property>
  <property name="kdenlive:original.meta.attr.minor_version.markup">512</property>
  <property name="kdenlive:original.meta.attr.compatible_brands.markup">isomiso2avc1mp41</property>
  <property name="kdenlive:original.meta.attr.encoder.markup">Lavf58.76.100</property>
  <property name="kdenlive:original.meta.attr.comment.markup">Rendered with Manim Community v0.6.0</property>
  <property name="kdenlive:original.seekable">1</property>
  <property name="kdenlive:original.width">3840</property>
  <property name="kdenlive:original.height">2160</property>
  <property name="kdenlive:original.meta.media.sample_aspect_num">1</property>
  <property name="kdenlive:original.meta.media.sample_aspect_den">1</property>
  <property name="kdenlive:original.aspect_ratio">1</property>
  <property name="kdenlive:original.audio_index">-1</property>
  <property name="kdenlive:original.video_index">0</property>
  <property name="kdenlive:original.mute_on_pause">1</property>
  <property name="kdenlive:original.mlt_service">avformat</property>
  <property name="kdenlive:original.meta.media.frame_rate_num">60</property>
  <property name="kdenlive:original.meta.media.frame_rate_den">1</property>
  <property name="kdenlive:original.meta.media.colorspace">709</property>
  <property name="kdenlive:original.meta.media.color_trc">2</property>
  <property name="kdenlive:original.meta.media.width">3840</property>
  <property name="kdenlive:original.meta.media.height">2160</property>
  <property name="kdenlive:original.meta.media.color_range">mpeg</property>
  <property name="kdenlive:original.meta.media.top_field_first">0</property>
  <property name="kdenlive:original.meta.media.progressive">1</property>
  <property name="kdenlive:original.backup">1</property>
 </producer>
 <producer id="producer77" in="00:00:00.000" out="00:00:04.983">
  <property name="length">00:00:05.000</property>
  <property name="eof">pause</property>
  <property name="resource">/home/xiaoxiae/.cache/kdenlive/proxy/0a045074b650da20739a472a933150dc.png</property>
  <property name="ttl">25</property>
  <property name="aspect_ratio">1</property>
  <property name="progressive">1</property>
  <property name="seekable">1</property>
  <property name="meta.media.width">800</property>
  <property name="meta.media.height">450</property>
  <property name="mlt_service">qimage</property>
  <property name="kdenlive:clipname">12.png</property>
  <property name="kdenlive:duration">00:00:05.000</property>
  <property name="kdenlive:folderid">31</property>
  <property name="kdenlive:id">39</property>
  <property name="kdenlive:file_size">566177</property>
  <property name="kdenlive:file_hash">0a045074b650da20739a472a933150dc</property>
  <property name="kdenlive:proxy">/home/xiaoxiae/.cache/kdenlive/proxy/0a045074b650da20739a472a933150dc.png</property>
  <property name="kdenlive:originalurl">video/CliqueAndIndependentSet/12.png</property>
  <property name="global_feed">1</property>
 </producer>
 <producer id="producer78" in="00:00:00.000" out="00:00:00.983">
  <property name="length">60</property>
  <property name="eof">pause</property>
  <property name="resource">/home/xiaoxiae/.cache/kdenlive/proxy/27b2b082d7d657359b2a018f04c0eda2.mkv</property>
  <property name="audio_index">-1</property>
  <property name="video_index">0</property>
  <property name="mute_on_pause">0</property>
  <property name="mlt_service">avformat-novalidate</property>
  <property name="seekable">1</property>
  <property name="aspect_ratio">1</property>
  <property name="kdenlive:clipname">13.mp4</property>
  <property name="kdenlive:folderid">31</property>
  <property name="kdenlive:id">40</property>
  <property name="kdenlive:file_size">204994</property>
  <property name="kdenlive:file_hash">27b2b082d7d657359b2a018f04c0eda2</property>
  <property name="kdenlive:proxy">/home/xiaoxiae/.cache/kdenlive/proxy/27b2b082d7d657359b2a018f04c0eda2.mkv</property>
  <property name="kdenlive:originalurl">video/CliqueAndIndependentSet/13.mp4</property>
  <property name="global_feed">1</property>
  <property name="meta.media.nb_streams">1</property>
  <property name="meta.media.0.stream.type">video</property>
  <property name="meta.media.0.stream.frame_rate">60</property>
  <property name="meta.media.0.stream.sample_aspect_ratio">0</property>
  <property name="meta.media.0.codec.width">640</property>
  <property name="meta.media.0.codec.height">360</property>
  <property name="meta.media.0.codec.rotate">0</property>
  <property name="meta.media.0.codec.frame_rate">60</property>
  <property name="meta.media.0.codec.pix_fmt">yuv420p</property>
  <property name="meta.media.0.codec.sample_aspect_ratio">0</property>
  <property name="meta.media.0.codec.colorspace">601</property>
  <property name="meta.media.0.codec.name">h264</property>
  <property name="meta.media.0.codec.long_name">H.264 / AVC / MPEG-4 AVC / MPEG-4 part 10</property>
  <property name="meta.media.0.codec.bit_rate">0</property>
  <property name="meta.attr.0.stream.HANDLER_NAME.markup">VideoHandler</property>
  <property name="meta.attr.0.stream.VENDOR_ID.markup">[0][0][0][0]</property>
  <property name="meta.attr.0.stream.ENCODER.markup">Lavc58.134.100 libx264</property>
  <property name="meta.attr.0.stream.DURATION.markup">00:00:01.000000000</property>
  <property name="meta.attr.COMMENT.markup">Rendered with Manim Community v0.6.0</property>
  <property name="meta.attr.MAJOR_BRAND.markup">isom</property>
  <property name="meta.attr.MINOR_VERSION.markup">512</property>
  <property name="meta.attr.COMPATIBLE_BRANDS.markup">isomiso2avc1mp41</property>
  <property name="meta.attr.ENCODER.markup">Lavf58.76.100</property>
  <property name="meta.media.sample_aspect_num">1</property>
  <property name="meta.media.sample_aspect_den">1</property>
  <property name="meta.media.frame_rate_num">60</property>
  <property name="meta.media.frame_rate_den">1</property>
  <property name="meta.media.colorspace">601</property>
  <property name="meta.media.color_trc">2</property>
  <property name="meta.media.width">640</property>
  <property name="meta.media.height">360</property>
  <property name="meta.media.color_range">mpeg</property>
  <property name="meta.media.top_field_first">0</property>
  <property name="meta.media.progressive">1</property>
  <property name="kdenlive:original.mlt_type">producer</property>
  <property name="kdenlive:original.in">0</property>
  <property name="kdenlive:original.out">59</property>
  <property name="kdenlive:original.length">60</property>
  <property name="kdenlive:original.eof">pause</property>
  <property name="kdenlive:original.resource">video/CliqueAndIndependentSet/13.mp4</property>
  <property name="kdenlive:original.meta.media.nb_streams">1</property>
  <property name="kdenlive:original.meta.media.0.stream.type">video</property>
  <property name="kdenlive:original.meta.media.0.stream.frame_rate">60</property>
  <property name="kdenlive:original.meta.media.0.stream.sample_aspect_ratio">0</property>
  <property name="kdenlive:original.meta.media.0.codec.width">3840</property>
  <property name="kdenlive:original.meta.media.0.codec.height">2160</property>
  <property name="kdenlive:original.meta.media.0.codec.rotate">0</property>
  <property name="kdenlive:original.meta.media.0.codec.frame_rate">60</property>
  <property name="kdenlive:original.meta.media.0.codec.pix_fmt">yuv420p</property>
  <property name="kdenlive:original.meta.media.0.codec.sample_aspect_ratio">0</property>
  <property name="kdenlive:original.meta.media.0.codec.colorspace">709</property>
  <property name="kdenlive:original.meta.media.0.codec.name">h264</property>
  <property name="kdenlive:original.meta.media.0.codec.long_name">H.264 / AVC / MPEG-4 AVC / MPEG-4 part 10</property>
  <property name="kdenlive:original.meta.media.0.codec.bit_rate">1626904</property>
  <property name="kdenlive:original.meta.attr.0.stream.handler_name.markup">VideoHandler</property>
  <property name="kdenlive:original.meta.attr.0.stream.vendor_id.markup">[0][0][0][0]</property>
  <property name="kdenlive:original.meta.attr.major_brand.markup">isom</property>
  <property name="kdenlive:original.meta.attr.minor_version.markup">512</property>
  <property name="kdenlive:original.meta.attr.compatible_brands.markup">isomiso2avc1mp41</property>
  <property name="kdenlive:original.meta.attr.encoder.markup">Lavf58.76.100</property>
  <property name="kdenlive:original.meta.attr.comment.markup">Rendered with Manim Community v0.6.0</property>
  <property name="kdenlive:original.seekable">1</property>
  <property name="kdenlive:original.width">3840</property>
  <property name="kdenlive:original.height">2160</property>
  <property name="kdenlive:original.meta.media.sample_aspect_num">1</property>
  <property name="kdenlive:original.meta.media.sample_aspect_den">1</property>
  <property name="kdenlive:original.aspect_ratio">1</property>
  <property name="kdenlive:original.audio_index">-1</property>
  <property name="kdenlive:original.video_index">0</property>
  <property name="kdenlive:original.mute_on_pause">1</property>
  <property name="kdenlive:original.mlt_service">avformat</property>
  <property name="kdenlive:original.meta.media.frame_rate_num">60</property>
  <property name="kdenlive:original.meta.media.frame_rate_den">1</property>
  <property name="kdenlive:original.meta.media.colorspace">709</property>
  <property name="kdenlive:original.meta.media.color_trc">2</property>
  <property name="kdenlive:original.meta.media.width">3840</property>
  <property name="kdenlive:original.meta.media.height">2160</property>
  <property name="kdenlive:original.meta.media.color_range">mpeg</property>
  <property name="kdenlive:original.meta.media.top_field_first">0</property>
  <property name="kdenlive:original.meta.media.progressive">1</property>
  <property name="kdenlive:original.backup">1</property>
 </producer>
 <producer id="producer79" in="00:00:00.000" out="00:00:04.983">
  <property name="length">00:00:05.000</property>
  <property name="eof">pause</property>
  <property name="resource">/home/xiaoxiae/.cache/kdenlive/proxy/8cfbc792b9a0e3f0bafaa8ecc88a9d56.png</property>
  <property name="ttl">25</property>
  <property name="aspect_ratio">1</property>
  <property name="progressive">1</property>
  <property name="seekable">1</property>
  <property name="meta.media.width">800</property>
  <property name="meta.media.height">450</property>
  <property name="mlt_service">qimage</property>
  <property name="kdenlive:clipname">13.png</property>
  <property name="kdenlive:duration">00:00:05.000</property>
  <property name="kdenlive:folderid">31</property>
  <property name="kdenlive:id">41</property>
  <property name="kdenlive:file_size">634764</property>
  <property name="kdenlive:file_hash">8cfbc792b9a0e3f0bafaa8ecc88a9d56</property>
  <property name="kdenlive:proxy">/home/xiaoxiae/.cache/kdenlive/proxy/8cfbc792b9a0e3f0bafaa8ecc88a9d56.png</property>
  <property name="kdenlive:originalurl">video/CliqueAndIndependentSet/13.png</property>
  <property name="global_feed">1</property>
 </producer>
 <producer id="producer80" in="00:00:00.000" out="00:00:00.983">
  <property name="length">60</property>
  <property name="eof">pause</property>
  <property name="resource">/home/xiaoxiae/.cache/kdenlive/proxy/d9f50293c8c40ba804559356f4b8727f.mkv</property>
  <property name="audio_index">-1</property>
  <property name="video_index">0</property>
  <property name="mute_on_pause">0</property>
  <property name="mlt_service">avformat-novalidate</property>
  <property name="seekable">1</property>
  <property name="aspect_ratio">1</property>
  <property name="kdenlive:clipname">14.mp4</property>
  <property name="kdenlive:folderid">31</property>
  <property name="kdenlive:id">42</property>
  <property name="kdenlive:file_size">189664</property>
  <property name="kdenlive:file_hash">d9f50293c8c40ba804559356f4b8727f</property>
  <property name="kdenlive:proxy">/home/xiaoxiae/.cache/kdenlive/proxy/d9f50293c8c40ba804559356f4b8727f.mkv</property>
  <property name="kdenlive:originalurl">video/CliqueAndIndependentSet/14.mp4</property>
  <property name="global_feed">1</property>
  <property name="meta.media.nb_streams">1</property>
  <property name="meta.media.0.stream.type">video</property>
  <property name="meta.media.0.stream.frame_rate">60</property>
  <property name="meta.media.0.stream.sample_aspect_ratio">0</property>
  <property name="meta.media.0.codec.width">640</property>
  <property name="meta.media.0.codec.height">360</property>
  <property name="meta.media.0.codec.rotate">0</property>
  <property name="meta.media.0.codec.frame_rate">60</property>
  <property name="meta.media.0.codec.pix_fmt">yuv420p</property>
  <property name="meta.media.0.codec.sample_aspect_ratio">0</property>
  <property name="meta.media.0.codec.colorspace">601</property>
  <property name="meta.media.0.codec.name">h264</property>
  <property name="meta.media.0.codec.long_name">H.264 / AVC / MPEG-4 AVC / MPEG-4 part 10</property>
  <property name="meta.media.0.codec.bit_rate">0</property>
  <property name="meta.attr.0.stream.HANDLER_NAME.markup">VideoHandler</property>
  <property name="meta.attr.0.stream.VENDOR_ID.markup">[0][0][0][0]</property>
  <property name="meta.attr.0.stream.ENCODER.markup">Lavc58.134.100 libx264</property>
  <property name="meta.attr.0.stream.DURATION.markup">00:00:01.000000000</property>
  <property name="meta.attr.COMMENT.markup">Rendered with Manim Community v0.6.0</property>
  <property name="meta.attr.MAJOR_BRAND.markup">isom</property>
  <property name="meta.attr.MINOR_VERSION.markup">512</property>
  <property name="meta.attr.COMPATIBLE_BRANDS.markup">isomiso2avc1mp41</property>
  <property name="meta.attr.ENCODER.markup">Lavf58.76.100</property>
  <property name="meta.media.sample_aspect_num">1</property>
  <property name="meta.media.sample_aspect_den">1</property>
  <property name="meta.media.frame_rate_num">60</property>
  <property name="meta.media.frame_rate_den">1</property>
  <property name="meta.media.colorspace">601</property>
  <property name="meta.media.color_trc">2</property>
  <property name="meta.media.width">640</property>
  <property name="meta.media.height">360</property>
  <property name="meta.media.color_range">mpeg</property>
  <property name="meta.media.top_field_first">0</property>
  <property name="meta.media.progressive">1</property>
  <property name="kdenlive:original.mlt_type">producer</property>
  <property name="kdenlive:original.in">0</property>
  <property name="kdenlive:original.out">59</property>
  <property name="kdenlive:original.length">60</property>
  <property name="kdenlive:original.eof">pause</property>
  <property name="kdenlive:original.resource">video/CliqueAndIndependentSet/14.mp4</property>
  <property name="kdenlive:original.meta.media.nb_streams">1</property>
  <property name="kdenlive:original.meta.media.0.stream.type">video</property>
  <property name="kdenlive:original.meta.media.0.stream.frame_rate">60</property>
  <property name="kdenlive:original.meta.media.0.stream.sample_aspect_ratio">0</property>
  <property name="kdenlive:original.meta.media.0.codec.width">3840</property>
  <property name="kdenlive:original.meta.media.0.codec.height">2160</property>
  <property name="kdenlive:original.meta.media.0.codec.rotate">0</property>
  <property name="kdenlive:original.meta.media.0.codec.frame_rate">60</property>
  <property name="kdenlive:original.meta.media.0.codec.pix_fmt">yuv420p</property>
  <property name="kdenlive:original.meta.media.0.codec.sample_aspect_ratio">0</property>
  <property name="kdenlive:original.meta.media.0.codec.colorspace">709</property>
  <property name="kdenlive:original.meta.media.0.codec.name">h264</property>
  <property name="kdenlive:original.meta.media.0.codec.long_name">H.264 / AVC / MPEG-4 AVC / MPEG-4 part 10</property>
  <property name="kdenlive:original.meta.media.0.codec.bit_rate">1504392</property>
  <property name="kdenlive:original.meta.attr.0.stream.handler_name.markup">VideoHandler</property>
  <property name="kdenlive:original.meta.attr.0.stream.vendor_id.markup">[0][0][0][0]</property>
  <property name="kdenlive:original.meta.attr.major_brand.markup">isom</property>
  <property name="kdenlive:original.meta.attr.minor_version.markup">512</property>
  <property name="kdenlive:original.meta.attr.compatible_brands.markup">isomiso2avc1mp41</property>
  <property name="kdenlive:original.meta.attr.encoder.markup">Lavf58.76.100</property>
  <property name="kdenlive:original.meta.attr.comment.markup">Rendered with Manim Community v0.6.0</property>
  <property name="kdenlive:original.seekable">1</property>
  <property name="kdenlive:original.width">3840</property>
  <property name="kdenlive:original.height">2160</property>
  <property name="kdenlive:original.meta.media.sample_aspect_num">1</property>
  <property name="kdenlive:original.meta.media.sample_aspect_den">1</property>
  <property name="kdenlive:original.aspect_ratio">1</property>
  <property name="kdenlive:original.audio_index">-1</property>
  <property name="kdenlive:original.video_index">0</property>
  <property name="kdenlive:original.mute_on_pause">1</property>
  <property name="kdenlive:original.mlt_service">avformat</property>
  <property name="kdenlive:original.meta.media.frame_rate_num">60</property>
  <property name="kdenlive:original.meta.media.frame_rate_den">1</property>
  <property name="kdenlive:original.meta.media.colorspace">709</property>
  <property name="kdenlive:original.meta.media.color_trc">2</property>
  <property name="kdenlive:original.meta.media.width">3840</property>
  <property name="kdenlive:original.meta.media.height">2160</property>
  <property name="kdenlive:original.meta.media.color_range">mpeg</property>
  <property name="kdenlive:original.meta.media.top_field_first">0</property>
  <property name="kdenlive:original.meta.media.progressive">1</property>
  <property name="kdenlive:original.backup">1</property>
 </producer>
 <producer id="producer81" in="00:00:00.000" out="00:00:04.983">
  <property name="length">00:00:05.000</property>
  <property name="eof">pause</property>
  <property name="resource">/home/xiaoxiae/.cache/kdenlive/proxy/addf1b8db5b374ab135b5335ccba66cf.png</property>
  <property name="ttl">25</property>
  <property name="aspect_ratio">1</property>
  <property name="progressive">1</property>
  <property name="seekable">1</property>
  <property name="meta.media.width">800</property>
  <property name="meta.media.height">450</property>
  <property name="mlt_service">qimage</property>
  <property name="kdenlive:clipname">14.png</property>
  <property name="kdenlive:duration">00:00:05.000</property>
  <property name="kdenlive:folderid">31</property>
  <property name="kdenlive:id">43</property>
  <property name="kdenlive:file_size">598695</property>
  <property name="kdenlive:file_hash">addf1b8db5b374ab135b5335ccba66cf</property>
  <property name="kdenlive:proxy">/home/xiaoxiae/.cache/kdenlive/proxy/addf1b8db5b374ab135b5335ccba66cf.png</property>
  <property name="kdenlive:originalurl">video/CliqueAndIndependentSet/14.png</property>
  <property name="global_feed">1</property>
 </producer>
 <producer id="producer82" in="00:00:00.000" out="00:00:00.983">
  <property name="length">60</property>
  <property name="eof">pause</property>
  <property name="resource">/home/xiaoxiae/.cache/kdenlive/proxy/5ce45cb29b2281f8cd638a3779502c4e.mkv</property>
  <property name="audio_index">-1</property>
  <property name="video_index">0</property>
  <property name="mute_on_pause">0</property>
  <property name="mlt_service">avformat-novalidate</property>
  <property name="seekable">1</property>
  <property name="aspect_ratio">1</property>
  <property name="kdenlive:clipname">15.mp4</property>
  <property name="kdenlive:folderid">31</property>
  <property name="kdenlive:id">44</property>
  <property name="kdenlive:file_size">160120</property>
  <property name="kdenlive:file_hash">5ce45cb29b2281f8cd638a3779502c4e</property>
  <property name="kdenlive:proxy">/home/xiaoxiae/.cache/kdenlive/proxy/5ce45cb29b2281f8cd638a3779502c4e.mkv</property>
  <property name="kdenlive:originalurl">video/CliqueAndIndependentSet/15.mp4</property>
  <property name="global_feed">1</property>
  <property name="meta.media.nb_streams">1</property>
  <property name="meta.media.0.stream.type">video</property>
  <property name="meta.media.0.stream.frame_rate">60</property>
  <property name="meta.media.0.stream.sample_aspect_ratio">0</property>
  <property name="meta.media.0.codec.width">640</property>
  <property name="meta.media.0.codec.height">360</property>
  <property name="meta.media.0.codec.rotate">0</property>
  <property name="meta.media.0.codec.frame_rate">60</property>
  <property name="meta.media.0.codec.pix_fmt">yuv420p</property>
  <property name="meta.media.0.codec.sample_aspect_ratio">0</property>
  <property name="meta.media.0.codec.colorspace">601</property>
  <property name="meta.media.0.codec.name">h264</property>
  <property name="meta.media.0.codec.long_name">H.264 / AVC / MPEG-4 AVC / MPEG-4 part 10</property>
  <property name="meta.media.0.codec.bit_rate">0</property>
  <property name="meta.attr.0.stream.HANDLER_NAME.markup">VideoHandler</property>
  <property name="meta.attr.0.stream.VENDOR_ID.markup">[0][0][0][0]</property>
  <property name="meta.attr.0.stream.ENCODER.markup">Lavc58.134.100 libx264</property>
  <property name="meta.attr.0.stream.DURATION.markup">00:00:01.000000000</property>
  <property name="meta.attr.COMMENT.markup">Rendered with Manim Community v0.6.0</property>
  <property name="meta.attr.MAJOR_BRAND.markup">isom</property>
  <property name="meta.attr.MINOR_VERSION.markup">512</property>
  <property name="meta.attr.COMPATIBLE_BRANDS.markup">isomiso2avc1mp41</property>
  <property name="meta.attr.ENCODER.markup">Lavf58.76.100</property>
  <property name="meta.media.sample_aspect_num">1</property>
  <property name="meta.media.sample_aspect_den">1</property>
  <property name="meta.media.frame_rate_num">60</property>
  <property name="meta.media.frame_rate_den">1</property>
  <property name="meta.media.colorspace">601</property>
  <property name="meta.media.color_trc">2</property>
  <property name="meta.media.width">640</property>
  <property name="meta.media.height">360</property>
  <property name="meta.media.color_range">mpeg</property>
  <property name="meta.media.top_field_first">0</property>
  <property name="meta.media.progressive">1</property>
  <property name="kdenlive:original.mlt_type">producer</property>
  <property name="kdenlive:original.in">0</property>
  <property name="kdenlive:original.out">59</property>
  <property name="kdenlive:original.length">60</property>
  <property name="kdenlive:original.eof">pause</property>
  <property name="kdenlive:original.resource">video/CliqueAndIndependentSet/15.mp4</property>
  <property name="kdenlive:original.meta.media.nb_streams">1</property>
  <property name="kdenlive:original.meta.media.0.stream.type">video</property>
  <property name="kdenlive:original.meta.media.0.stream.frame_rate">60</property>
  <property name="kdenlive:original.meta.media.0.stream.sample_aspect_ratio">0</property>
  <property name="kdenlive:original.meta.media.0.codec.width">3840</property>
  <property name="kdenlive:original.meta.media.0.codec.height">2160</property>
  <property name="kdenlive:original.meta.media.0.codec.rotate">0</property>
  <property name="kdenlive:original.meta.media.0.codec.frame_rate">60</property>
  <property name="kdenlive:original.meta.media.0.codec.pix_fmt">yuv420p</property>
  <property name="kdenlive:original.meta.media.0.codec.sample_aspect_ratio">0</property>
  <property name="kdenlive:original.meta.media.0.codec.colorspace">709</property>
  <property name="kdenlive:original.meta.media.0.codec.name">h264</property>
  <property name="kdenlive:original.meta.media.0.codec.long_name">H.264 / AVC / MPEG-4 AVC / MPEG-4 part 10</property>
  <property name="kdenlive:original.meta.media.0.codec.bit_rate">1267912</property>
  <property name="kdenlive:original.meta.attr.0.stream.handler_name.markup">VideoHandler</property>
  <property name="kdenlive:original.meta.attr.0.stream.vendor_id.markup">[0][0][0][0]</property>
  <property name="kdenlive:original.meta.attr.major_brand.markup">isom</property>
  <property name="kdenlive:original.meta.attr.minor_version.markup">512</property>
  <property name="kdenlive:original.meta.attr.compatible_brands.markup">isomiso2avc1mp41</property>
  <property name="kdenlive:original.meta.attr.encoder.markup">Lavf58.76.100</property>
  <property name="kdenlive:original.meta.attr.comment.markup">Rendered with Manim Community v0.6.0</property>
  <property name="kdenlive:original.seekable">1</property>
  <property name="kdenlive:original.width">3840</property>
  <property name="kdenlive:original.height">2160</property>
  <property name="kdenlive:original.meta.media.sample_aspect_num">1</property>
  <property name="kdenlive:original.meta.media.sample_aspect_den">1</property>
  <property name="kdenlive:original.aspect_ratio">1</property>
  <property name="kdenlive:original.audio_index">-1</property>
  <property name="kdenlive:original.video_index">0</property>
  <property name="kdenlive:original.mute_on_pause">1</property>
  <property name="kdenlive:original.mlt_service">avformat</property>
  <property name="kdenlive:original.meta.media.frame_rate_num">60</property>
  <property name="kdenlive:original.meta.media.frame_rate_den">1</property>
  <property name="kdenlive:original.meta.media.colorspace">709</property>
  <property name="kdenlive:original.meta.media.color_trc">2</property>
  <property name="kdenlive:original.meta.media.width">3840</property>
  <property name="kdenlive:original.meta.media.height">2160</property>
  <property name="kdenlive:original.meta.media.color_range">mpeg</property>
  <property name="kdenlive:original.meta.media.top_field_first">0</property>
  <property name="kdenlive:original.meta.media.progressive">1</property>
  <property name="kdenlive:original.backup">1</property>
 </producer>
 <producer id="producer83" in="00:00:00.000" out="00:00:04.983">
  <property name="length">00:00:05.000</property>
  <property name="eof">pause</property>
  <property name="resource">/home/xiaoxiae/.cache/kdenlive/proxy/8e357579c8493a5cd390a1cf3f6331a8.png</property>
  <property name="ttl">25</property>
  <property name="aspect_ratio">1</property>
  <property name="progressive">1</property>
  <property name="seekable">1</property>
  <property name="meta.media.width">800</property>
  <property name="meta.media.height">450</property>
  <property name="mlt_service">qimage</property>
  <property name="kdenlive:clipname">15.png</property>
  <property name="kdenlive:duration">00:00:05.000</property>
  <property name="kdenlive:folderid">31</property>
  <property name="kdenlive:id">45</property>
  <property name="kdenlive:file_size">609401</property>
  <property name="kdenlive:file_hash">8e357579c8493a5cd390a1cf3f6331a8</property>
  <property name="kdenlive:proxy">/home/xiaoxiae/.cache/kdenlive/proxy/8e357579c8493a5cd390a1cf3f6331a8.png</property>
  <property name="kdenlive:originalurl">video/CliqueAndIndependentSet/15.png</property>
  <property name="global_feed">1</property>
 </producer>
 <producer id="producer84" in="00:00:00.000" out="00:00:00.983">
  <property name="length">60</property>
  <property name="eof">pause</property>
  <property name="resource">/home/xiaoxiae/.cache/kdenlive/proxy/9bdaf3f603be2213adf30e7cec7dcfac.mkv</property>
  <property name="audio_index">-1</property>
  <property name="video_index">0</property>
  <property name="mute_on_pause">0</property>
  <property name="mlt_service">avformat-novalidate</property>
  <property name="seekable">1</property>
  <property name="aspect_ratio">1</property>
  <property name="kdenlive:clipname">16.mp4</property>
  <property name="kdenlive:folderid">31</property>
  <property name="kdenlive:id">46</property>
  <property name="kdenlive:file_size">186666</property>
  <property name="kdenlive:file_hash">9bdaf3f603be2213adf30e7cec7dcfac</property>
  <property name="kdenlive:proxy">/home/xiaoxiae/.cache/kdenlive/proxy/9bdaf3f603be2213adf30e7cec7dcfac.mkv</property>
  <property name="kdenlive:originalurl">video/CliqueAndIndependentSet/16.mp4</property>
  <property name="global_feed">1</property>
  <property name="meta.media.nb_streams">1</property>
  <property name="meta.media.0.stream.type">video</property>
  <property name="meta.media.0.stream.frame_rate">60</property>
  <property name="meta.media.0.stream.sample_aspect_ratio">0</property>
  <property name="meta.media.0.codec.width">640</property>
  <property name="meta.media.0.codec.height">360</property>
  <property name="meta.media.0.codec.rotate">0</property>
  <property name="meta.media.0.codec.frame_rate">60</property>
  <property name="meta.media.0.codec.pix_fmt">yuv420p</property>
  <property name="meta.media.0.codec.sample_aspect_ratio">0</property>
  <property name="meta.media.0.codec.colorspace">601</property>
  <property name="meta.media.0.codec.name">h264</property>
  <property name="meta.media.0.codec.long_name">H.264 / AVC / MPEG-4 AVC / MPEG-4 part 10</property>
  <property name="meta.media.0.codec.bit_rate">0</property>
  <property name="meta.attr.0.stream.HANDLER_NAME.markup">VideoHandler</property>
  <property name="meta.attr.0.stream.VENDOR_ID.markup">[0][0][0][0]</property>
  <property name="meta.attr.0.stream.ENCODER.markup">Lavc58.134.100 libx264</property>
  <property name="meta.attr.0.stream.DURATION.markup">00:00:01.000000000</property>
  <property name="meta.attr.COMMENT.markup">Rendered with Manim Community v0.6.0</property>
  <property name="meta.attr.MAJOR_BRAND.markup">isom</property>
  <property name="meta.attr.MINOR_VERSION.markup">512</property>
  <property name="meta.attr.COMPATIBLE_BRANDS.markup">isomiso2avc1mp41</property>
  <property name="meta.attr.ENCODER.markup">Lavf58.76.100</property>
  <property name="meta.media.sample_aspect_num">1</property>
  <property name="meta.media.sample_aspect_den">1</property>
  <property name="meta.media.frame_rate_num">60</property>
  <property name="meta.media.frame_rate_den">1</property>
  <property name="meta.media.colorspace">601</property>
  <property name="meta.media.color_trc">2</property>
  <property name="meta.media.width">640</property>
  <property name="meta.media.height">360</property>
  <property name="meta.media.color_range">mpeg</property>
  <property name="meta.media.top_field_first">0</property>
  <property name="meta.media.progressive">1</property>
  <property name="kdenlive:original.mlt_type">producer</property>
  <property name="kdenlive:original.in">0</property>
  <property name="kdenlive:original.out">59</property>
  <property name="kdenlive:original.length">60</property>
  <property name="kdenlive:original.eof">pause</property>
  <property name="kdenlive:original.resource">video/CliqueAndIndependentSet/16.mp4</property>
  <property name="kdenlive:original.meta.media.nb_streams">1</property>
  <property name="kdenlive:original.meta.media.0.stream.type">video</property>
  <property name="kdenlive:original.meta.media.0.stream.frame_rate">60</property>
  <property name="kdenlive:original.meta.media.0.stream.sample_aspect_ratio">0</property>
  <property name="kdenlive:original.meta.media.0.codec.width">3840</property>
  <property name="kdenlive:original.meta.media.0.codec.height">2160</property>
  <property name="kdenlive:original.meta.media.0.codec.rotate">0</property>
  <property name="kdenlive:original.meta.media.0.codec.frame_rate">60</property>
  <property name="kdenlive:original.meta.media.0.codec.pix_fmt">yuv420p</property>
  <property name="kdenlive:original.meta.media.0.codec.sample_aspect_ratio">0</property>
  <property name="kdenlive:original.meta.media.0.codec.colorspace">709</property>
  <property name="kdenlive:original.meta.media.0.codec.name">h264</property>
  <property name="kdenlive:original.meta.media.0.codec.long_name">H.264 / AVC / MPEG-4 AVC / MPEG-4 part 10</property>
  <property name="kdenlive:original.meta.media.0.codec.bit_rate">1480280</property>
  <property name="kdenlive:original.meta.attr.0.stream.handler_name.markup">VideoHandler</property>
  <property name="kdenlive:original.meta.attr.0.stream.vendor_id.markup">[0][0][0][0]</property>
  <property name="kdenlive:original.meta.attr.major_brand.markup">isom</property>
  <property name="kdenlive:original.meta.attr.minor_version.markup">512</property>
  <property name="kdenlive:original.meta.attr.compatible_brands.markup">isomiso2avc1mp41</property>
  <property name="kdenlive:original.meta.attr.encoder.markup">Lavf58.76.100</property>
  <property name="kdenlive:original.meta.attr.comment.markup">Rendered with Manim Community v0.6.0</property>
  <property name="kdenlive:original.seekable">1</property>
  <property name="kdenlive:original.width">3840</property>
  <property name="kdenlive:original.height">2160</property>
  <property name="kdenlive:original.meta.media.sample_aspect_num">1</property>
  <property name="kdenlive:original.meta.media.sample_aspect_den">1</property>
  <property name="kdenlive:original.aspect_ratio">1</property>
  <property name="kdenlive:original.audio_index">-1</property>
  <property name="kdenlive:original.video_index">0</property>
  <property name="kdenlive:original.mute_on_pause">1</property>
  <property name="kdenlive:original.mlt_service">avformat</property>
  <property name="kdenlive:original.meta.media.frame_rate_num">60</property>
  <property name="kdenlive:original.meta.media.frame_rate_den">1</property>
  <property name="kdenlive:original.meta.media.colorspace">709</property>
  <property name="kdenlive:original.meta.media.color_trc">2</property>
  <property name="kdenlive:original.meta.media.width">3840</property>
  <property name="kdenlive:original.meta.media.height">2160</property>
  <property name="kdenlive:original.meta.media.color_range">mpeg</property>
  <property name="kdenlive:original.meta.media.top_field_first">0</property>
  <property name="kdenlive:original.meta.media.progressive">1</property>
  <property name="kdenlive:original.backup">1</property>
 </producer>
 <producer id="producer87" in="00:00:00.000" out="00:00:04.983">
  <property name="length">00:00:05.000</property>
  <property name="eof">pause</property>
  <property name="resource">/home/xiaoxiae/.cache/kdenlive/proxy/dd80b29009ac7e81e9ce554eeef768af.png</property>
  <property name="ttl">25</property>
  <property name="aspect_ratio">1</property>
  <property name="progressive">1</property>
  <property name="seekable">1</property>
  <property name="meta.media.width">800</property>
  <property name="meta.media.height">450</property>
  <property name="mlt_service">qimage</property>
  <property name="kdenlive:clipname">16.png</property>
  <property name="kdenlive:duration">00:00:05.000</property>
  <property name="kdenlive:folderid">31</property>
  <property name="kdenlive:id">47</property>
  <property name="kdenlive:file_size">605826</property>
  <property name="kdenlive:file_hash">dd80b29009ac7e81e9ce554eeef768af</property>
  <property name="kdenlive:proxy">/home/xiaoxiae/.cache/kdenlive/proxy/dd80b29009ac7e81e9ce554eeef768af.png</property>
  <property name="kdenlive:originalurl">video/CliqueAndIndependentSet/16.png</property>
  <property name="global_feed">1</property>
  <property name="kdenlive:original.mlt_type">producer</property>
  <property name="kdenlive:original.in">0</property>
  <property name="kdenlive:original.out">14999</property>
  <property name="kdenlive:original.length">15000</property>
  <property name="kdenlive:original.eof">pause</property>
  <property name="kdenlive:original.resource">video/CliqueAndIndependentSet/16.png</property>
  <property name="kdenlive:original.ttl">25</property>
  <property name="kdenlive:original.aspect_ratio">1</property>
  <property name="kdenlive:original.progressive">1</property>
  <property name="kdenlive:original.seekable">1</property>
  <property name="kdenlive:original.meta.media.width">3840</property>
  <property name="kdenlive:original.meta.media.height">2160</property>
  <property name="kdenlive:original.mlt_service">qimage</property>
  <property name="kdenlive:original.backup">1</property>
 </producer>
 <producer id="producer86" in="00:00:00.000" out="00:00:00.983">
  <property name="length">60</property>
  <property name="eof">pause</property>
  <property name="resource">/home/xiaoxiae/.cache/kdenlive/proxy/67d22333e107a707fcfbad36e3c87a25.mkv</property>
  <property name="audio_index">-1</property>
  <property name="video_index">0</property>
  <property name="mute_on_pause">0</property>
  <property name="mlt_service">avformat-novalidate</property>
  <property name="seekable">1</property>
  <property name="aspect_ratio">1</property>
  <property name="kdenlive:clipname">17.mp4</property>
  <property name="kdenlive:folderid">31</property>
  <property name="kdenlive:id">48</property>
  <property name="kdenlive:file_size">188783</property>
  <property name="kdenlive:file_hash">67d22333e107a707fcfbad36e3c87a25</property>
  <property name="kdenlive:proxy">/home/xiaoxiae/.cache/kdenlive/proxy/67d22333e107a707fcfbad36e3c87a25.mkv</property>
  <property name="kdenlive:originalurl">video/CliqueAndIndependentSet/17.mp4</property>
  <property name="global_feed">1</property>
  <property name="meta.media.nb_streams">1</property>
  <property name="meta.media.0.stream.type">video</property>
  <property name="meta.media.0.stream.frame_rate">60</property>
  <property name="meta.media.0.stream.sample_aspect_ratio">0</property>
  <property name="meta.media.0.codec.width">640</property>
  <property name="meta.media.0.codec.height">360</property>
  <property name="meta.media.0.codec.rotate">0</property>
  <property name="meta.media.0.codec.frame_rate">60</property>
  <property name="meta.media.0.codec.pix_fmt">yuv420p</property>
  <property name="meta.media.0.codec.sample_aspect_ratio">0</property>
  <property name="meta.media.0.codec.colorspace">601</property>
  <property name="meta.media.0.codec.name">h264</property>
  <property name="meta.media.0.codec.long_name">H.264 / AVC / MPEG-4 AVC / MPEG-4 part 10</property>
  <property name="meta.media.0.codec.bit_rate">0</property>
  <property name="meta.attr.0.stream.HANDLER_NAME.markup">VideoHandler</property>
  <property name="meta.attr.0.stream.VENDOR_ID.markup">[0][0][0][0]</property>
  <property name="meta.attr.0.stream.ENCODER.markup">Lavc58.134.100 libx264</property>
  <property name="meta.attr.0.stream.DURATION.markup">00:00:01.000000000</property>
  <property name="meta.attr.COMMENT.markup">Rendered with Manim Community v0.6.0</property>
  <property name="meta.attr.MAJOR_BRAND.markup">isom</property>
  <property name="meta.attr.MINOR_VERSION.markup">512</property>
  <property name="meta.attr.COMPATIBLE_BRANDS.markup">isomiso2avc1mp41</property>
  <property name="meta.attr.ENCODER.markup">Lavf58.76.100</property>
  <property name="meta.media.sample_aspect_num">1</property>
  <property name="meta.media.sample_aspect_den">1</property>
  <property name="meta.media.frame_rate_num">60</property>
  <property name="meta.media.frame_rate_den">1</property>
  <property name="meta.media.colorspace">601</property>
  <property name="meta.media.color_trc">2</property>
  <property name="meta.media.width">640</property>
  <property name="meta.media.height">360</property>
  <property name="meta.media.color_range">mpeg</property>
  <property name="meta.media.top_field_first">0</property>
  <property name="meta.media.progressive">1</property>
  <property name="kdenlive:original.mlt_type">producer</property>
  <property name="kdenlive:original.in">0</property>
  <property name="kdenlive:original.out">59</property>
  <property name="kdenlive:original.length">60</property>
  <property name="kdenlive:original.eof">pause</property>
  <property name="kdenlive:original.resource">video/CliqueAndIndependentSet/17.mp4</property>
  <property name="kdenlive:original.meta.media.nb_streams">1</property>
  <property name="kdenlive:original.meta.media.0.stream.type">video</property>
  <property name="kdenlive:original.meta.media.0.stream.frame_rate">60</property>
  <property name="kdenlive:original.meta.media.0.stream.sample_aspect_ratio">0</property>
  <property name="kdenlive:original.meta.media.0.codec.width">3840</property>
  <property name="kdenlive:original.meta.media.0.codec.height">2160</property>
  <property name="kdenlive:original.meta.media.0.codec.rotate">0</property>
  <property name="kdenlive:original.meta.media.0.codec.frame_rate">60</property>
  <property name="kdenlive:original.meta.media.0.codec.pix_fmt">yuv420p</property>
  <property name="kdenlive:original.meta.media.0.codec.sample_aspect_ratio">0</property>
  <property name="kdenlive:original.meta.media.0.codec.colorspace">709</property>
  <property name="kdenlive:original.meta.media.0.codec.name">h264</property>
  <property name="kdenlive:original.meta.media.0.codec.long_name">H.264 / AVC / MPEG-4 AVC / MPEG-4 part 10</property>
  <property name="kdenlive:original.meta.media.0.codec.bit_rate">1497216</property>
  <property name="kdenlive:original.meta.attr.0.stream.handler_name.markup">VideoHandler</property>
  <property name="kdenlive:original.meta.attr.0.stream.vendor_id.markup">[0][0][0][0]</property>
  <property name="kdenlive:original.meta.attr.major_brand.markup">isom</property>
  <property name="kdenlive:original.meta.attr.minor_version.markup">512</property>
  <property name="kdenlive:original.meta.attr.compatible_brands.markup">isomiso2avc1mp41</property>
  <property name="kdenlive:original.meta.attr.encoder.markup">Lavf58.76.100</property>
  <property name="kdenlive:original.meta.attr.comment.markup">Rendered with Manim Community v0.6.0</property>
  <property name="kdenlive:original.seekable">1</property>
  <property name="kdenlive:original.width">3840</property>
  <property name="kdenlive:original.height">2160</property>
  <property name="kdenlive:original.meta.media.sample_aspect_num">1</property>
  <property name="kdenlive:original.meta.media.sample_aspect_den">1</property>
  <property name="kdenlive:original.aspect_ratio">1</property>
  <property name="kdenlive:original.audio_index">-1</property>
  <property name="kdenlive:original.video_index">0</property>
  <property name="kdenlive:original.mute_on_pause">1</property>
  <property name="kdenlive:original.mlt_service">avformat</property>
  <property name="kdenlive:original.meta.media.frame_rate_num">60</property>
  <property name="kdenlive:original.meta.media.frame_rate_den">1</property>
  <property name="kdenlive:original.meta.media.colorspace">709</property>
  <property name="kdenlive:original.meta.media.color_trc">2</property>
  <property name="kdenlive:original.meta.media.width">3840</property>
  <property name="kdenlive:original.meta.media.height">2160</property>
  <property name="kdenlive:original.meta.media.color_range">mpeg</property>
  <property name="kdenlive:original.meta.media.top_field_first">0</property>
  <property name="kdenlive:original.meta.media.progressive">1</property>
  <property name="kdenlive:original.backup">1</property>
 </producer>
 <producer id="producer85" in="00:00:00.000" out="00:00:04.983">
  <property name="length">00:00:05.000</property>
  <property name="eof">pause</property>
  <property name="resource">/home/xiaoxiae/.cache/kdenlive/proxy/8b4b0836c281d19d10617a00ec933847.png</property>
  <property name="ttl">25</property>
  <property name="aspect_ratio">1</property>
  <property name="progressive">1</property>
  <property name="seekable">1</property>
  <property name="meta.media.width">800</property>
  <property name="meta.media.height">450</property>
  <property name="mlt_service">qimage</property>
  <property name="kdenlive:clipname">17.png</property>
  <property name="kdenlive:duration">00:00:05.000</property>
  <property name="kdenlive:folderid">31</property>
  <property name="kdenlive:id">49</property>
  <property name="kdenlive:file_size">637272</property>
  <property name="kdenlive:file_hash">8b4b0836c281d19d10617a00ec933847</property>
  <property name="kdenlive:proxy">/home/xiaoxiae/.cache/kdenlive/proxy/8b4b0836c281d19d10617a00ec933847.png</property>
  <property name="kdenlive:originalurl">video/CliqueAndIndependentSet/17.png</property>
  <property name="global_feed">1</property>
 </producer>
 <producer id="producer90" in="00:00:00.000" out="00:00:00.983">
  <property name="length">60</property>
  <property name="eof">pause</property>
  <property name="resource">/home/xiaoxiae/.cache/kdenlive/proxy/9f696406d2417a2f41d28d07034362d6.mkv</property>
  <property name="audio_index">-1</property>
  <property name="video_index">0</property>
  <property name="mute_on_pause">0</property>
  <property name="mlt_service">avformat-novalidate</property>
  <property name="seekable">1</property>
  <property name="aspect_ratio">1</property>
  <property name="kdenlive:clipname">18.mp4</property>
  <property name="kdenlive:folderid">31</property>
  <property name="kdenlive:id">50</property>
  <property name="kdenlive:file_size">162252</property>
  <property name="kdenlive:file_hash">9f696406d2417a2f41d28d07034362d6</property>
  <property name="kdenlive:proxy">/home/xiaoxiae/.cache/kdenlive/proxy/9f696406d2417a2f41d28d07034362d6.mkv</property>
  <property name="kdenlive:originalurl">video/CliqueAndIndependentSet/18.mp4</property>
  <property name="global_feed">1</property>
  <property name="meta.media.nb_streams">1</property>
  <property name="meta.media.0.stream.type">video</property>
  <property name="meta.media.0.stream.frame_rate">60</property>
  <property name="meta.media.0.stream.sample_aspect_ratio">0</property>
  <property name="meta.media.0.codec.width">640</property>
  <property name="meta.media.0.codec.height">360</property>
  <property name="meta.media.0.codec.rotate">0</property>
  <property name="meta.media.0.codec.frame_rate">60</property>
  <property name="meta.media.0.codec.pix_fmt">yuv420p</property>
  <property name="meta.media.0.codec.sample_aspect_ratio">0</property>
  <property name="meta.media.0.codec.colorspace">601</property>
  <property name="meta.media.0.codec.name">h264</property>
  <property name="meta.media.0.codec.long_name">H.264 / AVC / MPEG-4 AVC / MPEG-4 part 10</property>
  <property name="meta.media.0.codec.bit_rate">0</property>
  <property name="meta.attr.0.stream.HANDLER_NAME.markup">VideoHandler</property>
  <property name="meta.attr.0.stream.VENDOR_ID.markup">[0][0][0][0]</property>
  <property name="meta.attr.0.stream.ENCODER.markup">Lavc58.134.100 libx264</property>
  <property name="meta.attr.0.stream.DURATION.markup">00:00:01.000000000</property>
  <property name="meta.attr.COMMENT.markup">Rendered with Manim Community v0.6.0</property>
  <property name="meta.attr.MAJOR_BRAND.markup">isom</property>
  <property name="meta.attr.MINOR_VERSION.markup">512</property>
  <property name="meta.attr.COMPATIBLE_BRANDS.markup">isomiso2avc1mp41</property>
  <property name="meta.attr.ENCODER.markup">Lavf58.76.100</property>
  <property name="meta.media.sample_aspect_num">1</property>
  <property name="meta.media.sample_aspect_den">1</property>
  <property name="meta.media.frame_rate_num">60</property>
  <property name="meta.media.frame_rate_den">1</property>
  <property name="meta.media.colorspace">601</property>
  <property name="meta.media.color_trc">2</property>
  <property name="meta.media.width">640</property>
  <property name="meta.media.height">360</property>
  <property name="meta.media.color_range">mpeg</property>
  <property name="meta.media.top_field_first">0</property>
  <property name="meta.media.progressive">1</property>
  <property name="kdenlive:original.mlt_type">producer</property>
  <property name="kdenlive:original.in">0</property>
  <property name="kdenlive:original.out">59</property>
  <property name="kdenlive:original.length">60</property>
  <property name="kdenlive:original.eof">pause</property>
  <property name="kdenlive:original.resource">video/CliqueAndIndependentSet/18.mp4</property>
  <property name="kdenlive:original.meta.media.nb_streams">1</property>
  <property name="kdenlive:original.meta.media.0.stream.type">video</property>
  <property name="kdenlive:original.meta.media.0.stream.frame_rate">60</property>
  <property name="kdenlive:original.meta.media.0.stream.sample_aspect_ratio">0</property>
  <property name="kdenlive:original.meta.media.0.codec.width">3840</property>
  <property name="kdenlive:original.meta.media.0.codec.height">2160</property>
  <property name="kdenlive:original.meta.media.0.codec.rotate">0</property>
  <property name="kdenlive:original.meta.media.0.codec.frame_rate">60</property>
  <property name="kdenlive:original.meta.media.0.codec.pix_fmt">yuv420p</property>
  <property name="kdenlive:original.meta.media.0.codec.sample_aspect_ratio">0</property>
  <property name="kdenlive:original.meta.media.0.codec.colorspace">709</property>
  <property name="kdenlive:original.meta.media.0.codec.name">h264</property>
  <property name="kdenlive:original.meta.media.0.codec.long_name">H.264 / AVC / MPEG-4 AVC / MPEG-4 part 10</property>
  <property name="kdenlive:original.meta.media.0.codec.bit_rate">1284968</property>
  <property name="kdenlive:original.meta.attr.0.stream.handler_name.markup">VideoHandler</property>
  <property name="kdenlive:original.meta.attr.0.stream.vendor_id.markup">[0][0][0][0]</property>
  <property name="kdenlive:original.meta.attr.major_brand.markup">isom</property>
  <property name="kdenlive:original.meta.attr.minor_version.markup">512</property>
  <property name="kdenlive:original.meta.attr.compatible_brands.markup">isomiso2avc1mp41</property>
  <property name="kdenlive:original.meta.attr.encoder.markup">Lavf58.76.100</property>
  <property name="kdenlive:original.meta.attr.comment.markup">Rendered with Manim Community v0.6.0</property>
  <property name="kdenlive:original.seekable">1</property>
  <property name="kdenlive:original.width">3840</property>
  <property name="kdenlive:original.height">2160</property>
  <property name="kdenlive:original.meta.media.sample_aspect_num">1</property>
  <property name="kdenlive:original.meta.media.sample_aspect_den">1</property>
  <property name="kdenlive:original.aspect_ratio">1</property>
  <property name="kdenlive:original.audio_index">-1</property>
  <property name="kdenlive:original.video_index">0</property>
  <property name="kdenlive:original.mute_on_pause">1</property>
  <property name="kdenlive:original.mlt_service">avformat</property>
  <property name="kdenlive:original.meta.media.frame_rate_num">60</property>
  <property name="kdenlive:original.meta.media.frame_rate_den">1</property>
  <property name="kdenlive:original.meta.media.colorspace">709</property>
  <property name="kdenlive:original.meta.media.color_trc">2</property>
  <property name="kdenlive:original.meta.media.width">3840</property>
  <property name="kdenlive:original.meta.media.height">2160</property>
  <property name="kdenlive:original.meta.media.color_range">mpeg</property>
  <property name="kdenlive:original.meta.media.top_field_first">0</property>
  <property name="kdenlive:original.meta.media.progressive">1</property>
  <property name="kdenlive:original.backup">1</property>
 </producer>
 <producer id="producer89" in="00:00:00.000" out="00:00:04.983">
  <property name="length">00:00:05.000</property>
  <property name="eof">pause</property>
  <property name="resource">/home/xiaoxiae/.cache/kdenlive/proxy/3690a240d42495b9352be1a5b1ee194d.png</property>
  <property name="ttl">25</property>
  <property name="aspect_ratio">1</property>
  <property name="progressive">1</property>
  <property name="seekable">1</property>
  <property name="meta.media.width">800</property>
  <property name="meta.media.height">450</property>
  <property name="mlt_service">qimage</property>
  <property name="kdenlive:clipname">18.png</property>
  <property name="kdenlive:duration">00:00:05.000</property>
  <property name="kdenlive:folderid">31</property>
  <property name="kdenlive:id">51</property>
  <property name="kdenlive:file_size">626434</property>
  <property name="kdenlive:file_hash">3690a240d42495b9352be1a5b1ee194d</property>
  <property name="kdenlive:proxy">/home/xiaoxiae/.cache/kdenlive/proxy/3690a240d42495b9352be1a5b1ee194d.png</property>
  <property name="kdenlive:originalurl">video/CliqueAndIndependentSet/18.png</property>
  <property name="global_feed">1</property>
 </producer>
 <producer id="producer88" in="00:00:00.000" out="00:00:00.983">
  <property name="length">60</property>
  <property name="eof">pause</property>
  <property name="resource">/home/xiaoxiae/.cache/kdenlive/proxy/9f6515b425d1c18d6474c00c620d6d12.mkv</property>
  <property name="audio_index">-1</property>
  <property name="video_index">0</property>
  <property name="mute_on_pause">0</property>
  <property name="mlt_service">avformat-novalidate</property>
  <property name="seekable">1</property>
  <property name="aspect_ratio">1</property>
  <property name="kdenlive:clipname">19.mp4</property>
  <property name="kdenlive:folderid">31</property>
  <property name="kdenlive:id">52</property>
  <property name="kdenlive:file_size">209604</property>
  <property name="kdenlive:file_hash">9f6515b425d1c18d6474c00c620d6d12</property>
  <property name="kdenlive:proxy">/home/xiaoxiae/.cache/kdenlive/proxy/9f6515b425d1c18d6474c00c620d6d12.mkv</property>
  <property name="kdenlive:originalurl">video/CliqueAndIndependentSet/19.mp4</property>
  <property name="global_feed">1</property>
  <property name="meta.media.nb_streams">1</property>
  <property name="meta.media.0.stream.type">video</property>
  <property name="meta.media.0.stream.frame_rate">60</property>
  <property name="meta.media.0.stream.sample_aspect_ratio">0</property>
  <property name="meta.media.0.codec.width">640</property>
  <property name="meta.media.0.codec.height">360</property>
  <property name="meta.media.0.codec.rotate">0</property>
  <property name="meta.media.0.codec.frame_rate">60</property>
  <property name="meta.media.0.codec.pix_fmt">yuv420p</property>
  <property name="meta.media.0.codec.sample_aspect_ratio">0</property>
  <property name="meta.media.0.codec.colorspace">601</property>
  <property name="meta.media.0.codec.name">h264</property>
  <property name="meta.media.0.codec.long_name">H.264 / AVC / MPEG-4 AVC / MPEG-4 part 10</property>
  <property name="meta.media.0.codec.bit_rate">0</property>
  <property name="meta.attr.0.stream.HANDLER_NAME.markup">VideoHandler</property>
  <property name="meta.attr.0.stream.VENDOR_ID.markup">[0][0][0][0]</property>
  <property name="meta.attr.0.stream.ENCODER.markup">Lavc58.134.100 libx264</property>
  <property name="meta.attr.0.stream.DURATION.markup">00:00:01.000000000</property>
  <property name="meta.attr.COMMENT.markup">Rendered with Manim Community v0.6.0</property>
  <property name="meta.attr.MAJOR_BRAND.markup">isom</property>
  <property name="meta.attr.MINOR_VERSION.markup">512</property>
  <property name="meta.attr.COMPATIBLE_BRANDS.markup">isomiso2avc1mp41</property>
  <property name="meta.attr.ENCODER.markup">Lavf58.76.100</property>
  <property name="meta.media.sample_aspect_num">1</property>
  <property name="meta.media.sample_aspect_den">1</property>
  <property name="meta.media.frame_rate_num">60</property>
  <property name="meta.media.frame_rate_den">1</property>
  <property name="meta.media.colorspace">601</property>
  <property name="meta.media.color_trc">2</property>
  <property name="meta.media.width">640</property>
  <property name="meta.media.height">360</property>
  <property name="meta.media.color_range">mpeg</property>
  <property name="meta.media.top_field_first">0</property>
  <property name="meta.media.progressive">1</property>
  <property name="kdenlive:original.mlt_type">producer</property>
  <property name="kdenlive:original.in">0</property>
  <property name="kdenlive:original.out">59</property>
  <property name="kdenlive:original.length">60</property>
  <property name="kdenlive:original.eof">pause</property>
  <property name="kdenlive:original.resource">video/CliqueAndIndependentSet/19.mp4</property>
  <property name="kdenlive:original.meta.media.nb_streams">1</property>
  <property name="kdenlive:original.meta.media.0.stream.type">video</property>
  <property name="kdenlive:original.meta.media.0.stream.frame_rate">60</property>
  <property name="kdenlive:original.meta.media.0.stream.sample_aspect_ratio">0</property>
  <property name="kdenlive:original.meta.media.0.codec.width">3840</property>
  <property name="kdenlive:original.meta.media.0.codec.height">2160</property>
  <property name="kdenlive:original.meta.media.0.codec.rotate">0</property>
  <property name="kdenlive:original.meta.media.0.codec.frame_rate">60</property>
  <property name="kdenlive:original.meta.media.0.codec.pix_fmt">yuv420p</property>
  <property name="kdenlive:original.meta.media.0.codec.sample_aspect_ratio">0</property>
  <property name="kdenlive:original.meta.media.0.codec.colorspace">709</property>
  <property name="kdenlive:original.meta.media.0.codec.name">h264</property>
  <property name="kdenlive:original.meta.media.0.codec.long_name">H.264 / AVC / MPEG-4 AVC / MPEG-4 part 10</property>
  <property name="kdenlive:original.meta.media.0.codec.bit_rate">1663784</property>
  <property name="kdenlive:original.meta.attr.0.stream.handler_name.markup">VideoHandler</property>
  <property name="kdenlive:original.meta.attr.0.stream.vendor_id.markup">[0][0][0][0]</property>
  <property name="kdenlive:original.meta.attr.major_brand.markup">isom</property>
  <property name="kdenlive:original.meta.attr.minor_version.markup">512</property>
  <property name="kdenlive:original.meta.attr.compatible_brands.markup">isomiso2avc1mp41</property>
  <property name="kdenlive:original.meta.attr.encoder.markup">Lavf58.76.100</property>
  <property name="kdenlive:original.meta.attr.comment.markup">Rendered with Manim Community v0.6.0</property>
  <property name="kdenlive:original.seekable">1</property>
  <property name="kdenlive:original.width">3840</property>
  <property name="kdenlive:original.height">2160</property>
  <property name="kdenlive:original.meta.media.sample_aspect_num">1</property>
  <property name="kdenlive:original.meta.media.sample_aspect_den">1</property>
  <property name="kdenlive:original.aspect_ratio">1</property>
  <property name="kdenlive:original.audio_index">-1</property>
  <property name="kdenlive:original.video_index">0</property>
  <property name="kdenlive:original.mute_on_pause">1</property>
  <property name="kdenlive:original.mlt_service">avformat</property>
  <property name="kdenlive:original.meta.media.frame_rate_num">60</property>
  <property name="kdenlive:original.meta.media.frame_rate_den">1</property>
  <property name="kdenlive:original.meta.media.colorspace">709</property>
  <property name="kdenlive:original.meta.media.color_trc">2</property>
  <property name="kdenlive:original.meta.media.width">3840</property>
  <property name="kdenlive:original.meta.media.height">2160</property>
  <property name="kdenlive:original.meta.media.color_range">mpeg</property>
  <property name="kdenlive:original.meta.media.top_field_first">0</property>
  <property name="kdenlive:original.meta.media.progressive">1</property>
  <property name="kdenlive:original.backup">1</property>
 </producer>
 <producer id="producer91" in="00:00:00.000" out="00:00:04.983">
  <property name="length">00:00:05.000</property>
  <property name="eof">pause</property>
  <property name="resource">/home/xiaoxiae/.cache/kdenlive/proxy/3ec325a5c6bd59af0bf8078c6a530a41.png</property>
  <property name="ttl">25</property>
  <property name="aspect_ratio">1</property>
  <property name="progressive">1</property>
  <property name="seekable">1</property>
  <property name="meta.media.width">800</property>
  <property name="meta.media.height">450</property>
  <property name="mlt_service">qimage</property>
  <property name="kdenlive:clipname">19.png</property>
  <property name="kdenlive:duration">00:00:05.000</property>
  <property name="kdenlive:folderid">31</property>
  <property name="kdenlive:id">53</property>
  <property name="kdenlive:file_size">618211</property>
  <property name="kdenlive:file_hash">3ec325a5c6bd59af0bf8078c6a530a41</property>
  <property name="kdenlive:proxy">/home/xiaoxiae/.cache/kdenlive/proxy/3ec325a5c6bd59af0bf8078c6a530a41.png</property>
  <property name="kdenlive:originalurl">video/CliqueAndIndependentSet/19.png</property>
  <property name="global_feed">1</property>
  <property name="kdenlive:original.mlt_type">producer</property>
  <property name="kdenlive:original.in">0</property>
  <property name="kdenlive:original.out">14999</property>
  <property name="kdenlive:original.length">15000</property>
  <property name="kdenlive:original.eof">pause</property>
  <property name="kdenlive:original.resource">video/CliqueAndIndependentSet/19.png</property>
  <property name="kdenlive:original.ttl">25</property>
  <property name="kdenlive:original.aspect_ratio">1</property>
  <property name="kdenlive:original.progressive">1</property>
  <property name="kdenlive:original.seekable">1</property>
  <property name="kdenlive:original.meta.media.width">3840</property>
  <property name="kdenlive:original.meta.media.height">2160</property>
  <property name="kdenlive:original.mlt_service">qimage</property>
  <property name="kdenlive:original.backup">1</property>
 </producer>
 <producer id="producer92" in="00:00:00.000" out="00:00:00.983">
  <property name="length">60</property>
  <property name="eof">pause</property>
  <property name="resource">/home/xiaoxiae/.cache/kdenlive/proxy/cd8d76cb66f7ef27759791f0816b4c83.mkv</property>
  <property name="audio_index">-1</property>
  <property name="video_index">0</property>
  <property name="mute_on_pause">0</property>
  <property name="mlt_service">avformat-novalidate</property>
  <property name="seekable">1</property>
  <property name="aspect_ratio">1</property>
  <property name="kdenlive:clipname">2.mp4</property>
  <property name="kdenlive:folderid">31</property>
  <property name="kdenlive:id">54</property>
  <property name="kdenlive:file_size">107207</property>
  <property name="kdenlive:file_hash">cd8d76cb66f7ef27759791f0816b4c83</property>
  <property name="kdenlive:proxy">/home/xiaoxiae/.cache/kdenlive/proxy/cd8d76cb66f7ef27759791f0816b4c83.mkv</property>
  <property name="kdenlive:originalurl">video/CliqueAndIndependentSet/2.mp4</property>
  <property name="global_feed">1</property>
  <property name="meta.media.nb_streams">1</property>
  <property name="meta.media.0.stream.type">video</property>
  <property name="meta.media.0.stream.frame_rate">60</property>
  <property name="meta.media.0.stream.sample_aspect_ratio">0</property>
  <property name="meta.media.0.codec.width">640</property>
  <property name="meta.media.0.codec.height">360</property>
  <property name="meta.media.0.codec.rotate">0</property>
  <property name="meta.media.0.codec.frame_rate">60</property>
  <property name="meta.media.0.codec.pix_fmt">yuv420p</property>
  <property name="meta.media.0.codec.sample_aspect_ratio">0</property>
  <property name="meta.media.0.codec.colorspace">601</property>
  <property name="meta.media.0.codec.name">h264</property>
  <property name="meta.media.0.codec.long_name">H.264 / AVC / MPEG-4 AVC / MPEG-4 part 10</property>
  <property name="meta.media.0.codec.bit_rate">0</property>
  <property name="meta.attr.0.stream.HANDLER_NAME.markup">VideoHandler</property>
  <property name="meta.attr.0.stream.VENDOR_ID.markup">[0][0][0][0]</property>
  <property name="meta.attr.0.stream.ENCODER.markup">Lavc58.134.100 libx264</property>
  <property name="meta.attr.0.stream.DURATION.markup">00:00:01.000000000</property>
  <property name="meta.attr.COMMENT.markup">Rendered with Manim Community v0.6.0</property>
  <property name="meta.attr.MAJOR_BRAND.markup">isom</property>
  <property name="meta.attr.MINOR_VERSION.markup">512</property>
  <property name="meta.attr.COMPATIBLE_BRANDS.markup">isomiso2avc1mp41</property>
  <property name="meta.attr.ENCODER.markup">Lavf58.76.100</property>
  <property name="meta.media.sample_aspect_num">1</property>
  <property name="meta.media.sample_aspect_den">1</property>
  <property name="meta.media.frame_rate_num">60</property>
  <property name="meta.media.frame_rate_den">1</property>
  <property name="meta.media.colorspace">601</property>
  <property name="meta.media.color_trc">2</property>
  <property name="meta.media.width">640</property>
  <property name="meta.media.height">360</property>
  <property name="meta.media.color_range">mpeg</property>
  <property name="meta.media.top_field_first">0</property>
  <property name="meta.media.progressive">1</property>
  <property name="kdenlive:original.mlt_type">producer</property>
  <property name="kdenlive:original.in">0</property>
  <property name="kdenlive:original.out">59</property>
  <property name="kdenlive:original.length">60</property>
  <property name="kdenlive:original.eof">pause</property>
  <property name="kdenlive:original.resource">video/CliqueAndIndependentSet/2.mp4</property>
  <property name="kdenlive:original.meta.media.nb_streams">1</property>
  <property name="kdenlive:original.meta.media.0.stream.type">video</property>
  <property name="kdenlive:original.meta.media.0.stream.frame_rate">60</property>
  <property name="kdenlive:original.meta.media.0.stream.sample_aspect_ratio">0</property>
  <property name="kdenlive:original.meta.media.0.codec.width">3840</property>
  <property name="kdenlive:original.meta.media.0.codec.height">2160</property>
  <property name="kdenlive:original.meta.media.0.codec.rotate">0</property>
  <property name="kdenlive:original.meta.media.0.codec.frame_rate">60</property>
  <property name="kdenlive:original.meta.media.0.codec.pix_fmt">yuv420p</property>
  <property name="kdenlive:original.meta.media.0.codec.sample_aspect_ratio">0</property>
  <property name="kdenlive:original.meta.media.0.codec.colorspace">709</property>
  <property name="kdenlive:original.meta.media.0.codec.name">h264</property>
  <property name="kdenlive:original.meta.media.0.codec.long_name">H.264 / AVC / MPEG-4 AVC / MPEG-4 part 10</property>
  <property name="kdenlive:original.meta.media.0.codec.bit_rate">845120</property>
  <property name="kdenlive:original.meta.attr.0.stream.handler_name.markup">VideoHandler</property>
  <property name="kdenlive:original.meta.attr.0.stream.vendor_id.markup">[0][0][0][0]</property>
  <property name="kdenlive:original.meta.attr.major_brand.markup">isom</property>
  <property name="kdenlive:original.meta.attr.minor_version.markup">512</property>
  <property name="kdenlive:original.meta.attr.compatible_brands.markup">isomiso2avc1mp41</property>
  <property name="kdenlive:original.meta.attr.encoder.markup">Lavf58.76.100</property>
  <property name="kdenlive:original.meta.attr.comment.markup">Rendered with Manim Community v0.6.0</property>
  <property name="kdenlive:original.seekable">1</property>
  <property name="kdenlive:original.width">3840</property>
  <property name="kdenlive:original.height">2160</property>
  <property name="kdenlive:original.meta.media.sample_aspect_num">1</property>
  <property name="kdenlive:original.meta.media.sample_aspect_den">1</property>
  <property name="kdenlive:original.aspect_ratio">1</property>
  <property name="kdenlive:original.audio_index">-1</property>
  <property name="kdenlive:original.video_index">0</property>
  <property name="kdenlive:original.mute_on_pause">1</property>
  <property name="kdenlive:original.mlt_service">avformat</property>
  <property name="kdenlive:original.meta.media.frame_rate_num">60</property>
  <property name="kdenlive:original.meta.media.frame_rate_den">1</property>
  <property name="kdenlive:original.meta.media.colorspace">709</property>
  <property name="kdenlive:original.meta.media.color_trc">2</property>
  <property name="kdenlive:original.meta.media.width">3840</property>
  <property name="kdenlive:original.meta.media.height">2160</property>
  <property name="kdenlive:original.meta.media.color_range">mpeg</property>
  <property name="kdenlive:original.meta.media.top_field_first">0</property>
  <property name="kdenlive:original.meta.media.progressive">1</property>
  <property name="kdenlive:original.backup">1</property>
 </producer>
 <producer id="producer93" in="00:00:00.000" out="00:00:04.983">
  <property name="length">00:00:05.000</property>
  <property name="eof">pause</property>
  <property name="resource">/home/xiaoxiae/.cache/kdenlive/proxy/e7da9a7bcdb87be0e743152b620112fe.png</property>
  <property name="ttl">25</property>
  <property name="aspect_ratio">1</property>
  <property name="progressive">1</property>
  <property name="seekable">1</property>
  <property name="meta.media.width">800</property>
  <property name="meta.media.height">450</property>
  <property name="mlt_service">qimage</property>
  <property name="kdenlive:clipname">2.png</property>
  <property name="kdenlive:duration">00:00:05.000</property>
  <property name="kdenlive:folderid">31</property>
  <property name="kdenlive:id">55</property>
  <property name="kdenlive:file_size">112214</property>
  <property name="kdenlive:file_hash">e7da9a7bcdb87be0e743152b620112fe</property>
  <property name="kdenlive:proxy">/home/xiaoxiae/.cache/kdenlive/proxy/e7da9a7bcdb87be0e743152b620112fe.png</property>
  <property name="kdenlive:originalurl">video/CliqueAndIndependentSet/2.png</property>
  <property name="global_feed">1</property>
 </producer>
 <producer id="producer95" in="00:00:00.000" out="00:00:00.983">
  <property name="length">60</property>
  <property name="eof">pause</property>
  <property name="resource">/home/xiaoxiae/.cache/kdenlive/proxy/2fff060f6e2fa5ce31103d5fae9fbd0e.mkv</property>
  <property name="audio_index">-1</property>
  <property name="video_index">0</property>
  <property name="mute_on_pause">0</property>
  <property name="mlt_service">avformat-novalidate</property>
  <property name="seekable">1</property>
  <property name="aspect_ratio">1</property>
  <property name="kdenlive:clipname">20.mp4</property>
  <property name="kdenlive:folderid">31</property>
  <property name="kdenlive:id">56</property>
  <property name="kdenlive:file_size">148321</property>
  <property name="kdenlive:file_hash">2fff060f6e2fa5ce31103d5fae9fbd0e</property>
  <property name="kdenlive:proxy">/home/xiaoxiae/.cache/kdenlive/proxy/2fff060f6e2fa5ce31103d5fae9fbd0e.mkv</property>
  <property name="kdenlive:originalurl">video/CliqueAndIndependentSet/20.mp4</property>
  <property name="global_feed">1</property>
  <property name="meta.media.nb_streams">1</property>
  <property name="meta.media.0.stream.type">video</property>
  <property name="meta.media.0.stream.frame_rate">60</property>
  <property name="meta.media.0.stream.sample_aspect_ratio">0</property>
  <property name="meta.media.0.codec.width">640</property>
  <property name="meta.media.0.codec.height">360</property>
  <property name="meta.media.0.codec.rotate">0</property>
  <property name="meta.media.0.codec.frame_rate">60</property>
  <property name="meta.media.0.codec.pix_fmt">yuv420p</property>
  <property name="meta.media.0.codec.sample_aspect_ratio">0</property>
  <property name="meta.media.0.codec.colorspace">601</property>
  <property name="meta.media.0.codec.name">h264</property>
  <property name="meta.media.0.codec.long_name">H.264 / AVC / MPEG-4 AVC / MPEG-4 part 10</property>
  <property name="meta.media.0.codec.bit_rate">0</property>
  <property name="meta.attr.0.stream.HANDLER_NAME.markup">VideoHandler</property>
  <property name="meta.attr.0.stream.VENDOR_ID.markup">[0][0][0][0]</property>
  <property name="meta.attr.0.stream.ENCODER.markup">Lavc58.134.100 libx264</property>
  <property name="meta.attr.0.stream.DURATION.markup">00:00:01.000000000</property>
  <property name="meta.attr.COMMENT.markup">Rendered with Manim Community v0.6.0</property>
  <property name="meta.attr.MAJOR_BRAND.markup">isom</property>
  <property name="meta.attr.MINOR_VERSION.markup">512</property>
  <property name="meta.attr.COMPATIBLE_BRANDS.markup">isomiso2avc1mp41</property>
  <property name="meta.attr.ENCODER.markup">Lavf58.76.100</property>
  <property name="meta.media.sample_aspect_num">1</property>
  <property name="meta.media.sample_aspect_den">1</property>
  <property name="meta.media.frame_rate_num">60</property>
  <property name="meta.media.frame_rate_den">1</property>
  <property name="meta.media.colorspace">601</property>
  <property name="meta.media.color_trc">2</property>
  <property name="meta.media.width">640</property>
  <property name="meta.media.height">360</property>
  <property name="meta.media.color_range">mpeg</property>
  <property name="meta.media.top_field_first">0</property>
  <property name="meta.media.progressive">1</property>
  <property name="kdenlive:original.mlt_type">producer</property>
  <property name="kdenlive:original.in">0</property>
  <property name="kdenlive:original.out">59</property>
  <property name="kdenlive:original.length">60</property>
  <property name="kdenlive:original.eof">pause</property>
  <property name="kdenlive:original.resource">video/CliqueAndIndependentSet/20.mp4</property>
  <property name="kdenlive:original.meta.media.nb_streams">1</property>
  <property name="kdenlive:original.meta.media.0.stream.type">video</property>
  <property name="kdenlive:original.meta.media.0.stream.frame_rate">60</property>
  <property name="kdenlive:original.meta.media.0.stream.sample_aspect_ratio">0</property>
  <property name="kdenlive:original.meta.media.0.codec.width">3840</property>
  <property name="kdenlive:original.meta.media.0.codec.height">2160</property>
  <property name="kdenlive:original.meta.media.0.codec.rotate">0</property>
  <property name="kdenlive:original.meta.media.0.codec.frame_rate">60</property>
  <property name="kdenlive:original.meta.media.0.codec.pix_fmt">yuv420p</property>
  <property name="kdenlive:original.meta.media.0.codec.sample_aspect_ratio">0</property>
  <property name="kdenlive:original.meta.media.0.codec.colorspace">709</property>
  <property name="kdenlive:original.meta.media.0.codec.name">h264</property>
  <property name="kdenlive:original.meta.media.0.codec.long_name">H.264 / AVC / MPEG-4 AVC / MPEG-4 part 10</property>
  <property name="kdenlive:original.meta.media.0.codec.bit_rate">1173648</property>
  <property name="kdenlive:original.meta.attr.0.stream.handler_name.markup">VideoHandler</property>
  <property name="kdenlive:original.meta.attr.0.stream.vendor_id.markup">[0][0][0][0]</property>
  <property name="kdenlive:original.meta.attr.major_brand.markup">isom</property>
  <property name="kdenlive:original.meta.attr.minor_version.markup">512</property>
  <property name="kdenlive:original.meta.attr.compatible_brands.markup">isomiso2avc1mp41</property>
  <property name="kdenlive:original.meta.attr.encoder.markup">Lavf58.76.100</property>
  <property name="kdenlive:original.meta.attr.comment.markup">Rendered with Manim Community v0.6.0</property>
  <property name="kdenlive:original.seekable">1</property>
  <property name="kdenlive:original.width">3840</property>
  <property name="kdenlive:original.height">2160</property>
  <property name="kdenlive:original.meta.media.sample_aspect_num">1</property>
  <property name="kdenlive:original.meta.media.sample_aspect_den">1</property>
  <property name="kdenlive:original.aspect_ratio">1</property>
  <property name="kdenlive:original.audio_index">-1</property>
  <property name="kdenlive:original.video_index">0</property>
  <property name="kdenlive:original.mute_on_pause">1</property>
  <property name="kdenlive:original.mlt_service">avformat</property>
  <property name="kdenlive:original.meta.media.frame_rate_num">60</property>
  <property name="kdenlive:original.meta.media.frame_rate_den">1</property>
  <property name="kdenlive:original.meta.media.colorspace">709</property>
  <property name="kdenlive:original.meta.media.color_trc">2</property>
  <property name="kdenlive:original.meta.media.width">3840</property>
  <property name="kdenlive:original.meta.media.height">2160</property>
  <property name="kdenlive:original.meta.media.color_range">mpeg</property>
  <property name="kdenlive:original.meta.media.top_field_first">0</property>
  <property name="kdenlive:original.meta.media.progressive">1</property>
  <property name="kdenlive:original.backup">1</property>
 </producer>
 <producer id="producer94" in="00:00:00.000" out="00:00:04.983">
  <property name="length">00:00:05.000</property>
  <property name="eof">pause</property>
  <property name="resource">/home/xiaoxiae/.cache/kdenlive/proxy/6b665121ca7b54a5f5307b69451fd23c.png</property>
  <property name="ttl">25</property>
  <property name="aspect_ratio">1</property>
  <property name="progressive">1</property>
  <property name="seekable">1</property>
  <property name="meta.media.width">800</property>
  <property name="meta.media.height">450</property>
  <property name="mlt_service">qimage</property>
  <property name="kdenlive:clipname">20.png</property>
  <property name="kdenlive:duration">00:00:05.000</property>
  <property name="kdenlive:folderid">31</property>
  <property name="kdenlive:id">57</property>
  <property name="kdenlive:file_size">24337</property>
  <property name="kdenlive:file_hash">6b665121ca7b54a5f5307b69451fd23c</property>
  <property name="kdenlive:proxy">/home/xiaoxiae/.cache/kdenlive/proxy/6b665121ca7b54a5f5307b69451fd23c.png</property>
  <property name="kdenlive:originalurl">video/CliqueAndIndependentSet/20.png</property>
  <property name="global_feed">1</property>
 </producer>
 <producer id="producer96" in="00:00:00.000" out="00:00:01.983">
  <property name="length">120</property>
  <property name="eof">pause</property>
  <property name="resource">/home/xiaoxiae/.cache/kdenlive/proxy/0eb332a181c8efb429c5f3f15d6010b8.mkv</property>
  <property name="audio_index">-1</property>
  <property name="video_index">0</property>
  <property name="mute_on_pause">0</property>
  <property name="mlt_service">avformat-novalidate</property>
  <property name="seekable">1</property>
  <property name="aspect_ratio">1</property>
  <property name="kdenlive:clipname">21.mp4</property>
  <property name="kdenlive:folderid">31</property>
  <property name="kdenlive:id">58</property>
  <property name="kdenlive:file_size">175894</property>
  <property name="kdenlive:file_hash">0eb332a181c8efb429c5f3f15d6010b8</property>
  <property name="kdenlive:proxy">/home/xiaoxiae/.cache/kdenlive/proxy/0eb332a181c8efb429c5f3f15d6010b8.mkv</property>
  <property name="kdenlive:originalurl">video/CliqueAndIndependentSet/21.mp4</property>
  <property name="global_feed">1</property>
  <property name="meta.media.nb_streams">1</property>
  <property name="meta.media.0.stream.type">video</property>
  <property name="meta.media.0.stream.frame_rate">60</property>
  <property name="meta.media.0.stream.sample_aspect_ratio">0</property>
  <property name="meta.media.0.codec.width">640</property>
  <property name="meta.media.0.codec.height">360</property>
  <property name="meta.media.0.codec.rotate">0</property>
  <property name="meta.media.0.codec.frame_rate">60</property>
  <property name="meta.media.0.codec.pix_fmt">yuv420p</property>
  <property name="meta.media.0.codec.sample_aspect_ratio">0</property>
  <property name="meta.media.0.codec.colorspace">601</property>
  <property name="meta.media.0.codec.name">h264</property>
  <property name="meta.media.0.codec.long_name">H.264 / AVC / MPEG-4 AVC / MPEG-4 part 10</property>
  <property name="meta.media.0.codec.bit_rate">0</property>
  <property name="meta.attr.0.stream.HANDLER_NAME.markup">VideoHandler</property>
  <property name="meta.attr.0.stream.VENDOR_ID.markup">[0][0][0][0]</property>
  <property name="meta.attr.0.stream.ENCODER.markup">Lavc58.134.100 libx264</property>
  <property name="meta.attr.0.stream.DURATION.markup">00:00:02.000000000</property>
  <property name="meta.attr.COMMENT.markup">Rendered with Manim Community v0.6.0</property>
  <property name="meta.attr.MAJOR_BRAND.markup">isom</property>
  <property name="meta.attr.MINOR_VERSION.markup">512</property>
  <property name="meta.attr.COMPATIBLE_BRANDS.markup">isomiso2avc1mp41</property>
  <property name="meta.attr.ENCODER.markup">Lavf58.76.100</property>
  <property name="meta.media.sample_aspect_num">1</property>
  <property name="meta.media.sample_aspect_den">1</property>
  <property name="meta.media.frame_rate_num">60</property>
  <property name="meta.media.frame_rate_den">1</property>
  <property name="meta.media.colorspace">601</property>
  <property name="meta.media.color_trc">2</property>
  <property name="meta.media.width">640</property>
  <property name="meta.media.height">360</property>
  <property name="meta.media.color_range">mpeg</property>
  <property name="meta.media.top_field_first">0</property>
  <property name="meta.media.progressive">1</property>
  <property name="kdenlive:original.mlt_type">producer</property>
  <property name="kdenlive:original.in">0</property>
  <property name="kdenlive:original.out">119</property>
  <property name="kdenlive:original.length">120</property>
  <property name="kdenlive:original.eof">pause</property>
  <property name="kdenlive:original.resource">video/CliqueAndIndependentSet/21.mp4</property>
  <property name="kdenlive:original.meta.media.nb_streams">1</property>
  <property name="kdenlive:original.meta.media.0.stream.type">video</property>
  <property name="kdenlive:original.meta.media.0.stream.frame_rate">60</property>
  <property name="kdenlive:original.meta.media.0.stream.sample_aspect_ratio">0</property>
  <property name="kdenlive:original.meta.media.0.codec.width">3840</property>
  <property name="kdenlive:original.meta.media.0.codec.height">2160</property>
  <property name="kdenlive:original.meta.media.0.codec.rotate">0</property>
  <property name="kdenlive:original.meta.media.0.codec.frame_rate">60</property>
  <property name="kdenlive:original.meta.media.0.codec.pix_fmt">yuv420p</property>
  <property name="kdenlive:original.meta.media.0.codec.sample_aspect_ratio">0</property>
  <property name="kdenlive:original.meta.media.0.codec.colorspace">709</property>
  <property name="kdenlive:original.meta.media.0.codec.name">h264</property>
  <property name="kdenlive:original.meta.media.0.codec.long_name">H.264 / AVC / MPEG-4 AVC / MPEG-4 part 10</property>
  <property name="kdenlive:original.meta.media.0.codec.bit_rate">694268</property>
  <property name="kdenlive:original.meta.attr.0.stream.handler_name.markup">VideoHandler</property>
  <property name="kdenlive:original.meta.attr.0.stream.vendor_id.markup">[0][0][0][0]</property>
  <property name="kdenlive:original.meta.attr.major_brand.markup">isom</property>
  <property name="kdenlive:original.meta.attr.minor_version.markup">512</property>
  <property name="kdenlive:original.meta.attr.compatible_brands.markup">isomiso2avc1mp41</property>
  <property name="kdenlive:original.meta.attr.encoder.markup">Lavf58.76.100</property>
  <property name="kdenlive:original.meta.attr.comment.markup">Rendered with Manim Community v0.6.0</property>
  <property name="kdenlive:original.seekable">1</property>
  <property name="kdenlive:original.width">3840</property>
  <property name="kdenlive:original.height">2160</property>
  <property name="kdenlive:original.meta.media.sample_aspect_num">1</property>
  <property name="kdenlive:original.meta.media.sample_aspect_den">1</property>
  <property name="kdenlive:original.aspect_ratio">1</property>
  <property name="kdenlive:original.audio_index">-1</property>
  <property name="kdenlive:original.video_index">0</property>
  <property name="kdenlive:original.mute_on_pause">1</property>
  <property name="kdenlive:original.mlt_service">avformat</property>
  <property name="kdenlive:original.meta.media.frame_rate_num">60</property>
  <property name="kdenlive:original.meta.media.frame_rate_den">1</property>
  <property name="kdenlive:original.meta.media.colorspace">709</property>
  <property name="kdenlive:original.meta.media.color_trc">2</property>
  <property name="kdenlive:original.meta.media.width">3840</property>
  <property name="kdenlive:original.meta.media.height">2160</property>
  <property name="kdenlive:original.meta.media.color_range">mpeg</property>
  <property name="kdenlive:original.meta.media.top_field_first">0</property>
  <property name="kdenlive:original.meta.media.progressive">1</property>
  <property name="kdenlive:original.backup">1</property>
 </producer>
 <producer id="producer98" in="00:00:00.000" out="00:00:04.983">
  <property name="length">00:00:05.000</property>
  <property name="eof">pause</property>
  <property name="resource">/home/xiaoxiae/.cache/kdenlive/proxy/45f4ed5b2d69436cdd3cd2bbc2db3ec8.png</property>
  <property name="ttl">25</property>
  <property name="aspect_ratio">1</property>
  <property name="progressive">1</property>
  <property name="seekable">1</property>
  <property name="meta.media.width">800</property>
  <property name="meta.media.height">450</property>
  <property name="mlt_service">qimage</property>
  <property name="kdenlive:clipname">21.png</property>
  <property name="kdenlive:duration">00:00:05.000</property>
  <property name="kdenlive:folderid">31</property>
  <property name="kdenlive:id">59</property>
  <property name="kdenlive:file_size">402907</property>
  <property name="kdenlive:file_hash">45f4ed5b2d69436cdd3cd2bbc2db3ec8</property>
  <property name="kdenlive:proxy">/home/xiaoxiae/.cache/kdenlive/proxy/45f4ed5b2d69436cdd3cd2bbc2db3ec8.png</property>
  <property name="kdenlive:originalurl">video/CliqueAndIndependentSet/21.png</property>
  <property name="global_feed">1</property>
  <property name="kdenlive:original.mlt_type">producer</property>
  <property name="kdenlive:original.in">0</property>
  <property name="kdenlive:original.out">14999</property>
  <property name="kdenlive:original.length">15000</property>
  <property name="kdenlive:original.eof">pause</property>
  <property name="kdenlive:original.resource">video/CliqueAndIndependentSet/21.png</property>
  <property name="kdenlive:original.ttl">25</property>
  <property name="kdenlive:original.aspect_ratio">1</property>
  <property name="kdenlive:original.progressive">1</property>
  <property name="kdenlive:original.seekable">1</property>
  <property name="kdenlive:original.meta.media.width">3840</property>
  <property name="kdenlive:original.meta.media.height">2160</property>
  <property name="kdenlive:original.mlt_service">qimage</property>
  <property name="kdenlive:original.backup">1</property>
 </producer>
 <producer id="producer97" in="00:00:00.000" out="00:00:00.983">
  <property name="length">60</property>
  <property name="eof">pause</property>
  <property name="resource">/home/xiaoxiae/.cache/kdenlive/proxy/c421f17e5680b7a9f34333226b463bf9.mkv</property>
  <property name="audio_index">-1</property>
  <property name="video_index">0</property>
  <property name="mute_on_pause">0</property>
  <property name="mlt_service">avformat-novalidate</property>
  <property name="seekable">1</property>
  <property name="aspect_ratio">1</property>
  <property name="kdenlive:clipname">22.mp4</property>
  <property name="kdenlive:folderid">31</property>
  <property name="kdenlive:id">60</property>
  <property name="kdenlive:file_size">95351</property>
  <property name="kdenlive:file_hash">c421f17e5680b7a9f34333226b463bf9</property>
  <property name="kdenlive:proxy">/home/xiaoxiae/.cache/kdenlive/proxy/c421f17e5680b7a9f34333226b463bf9.mkv</property>
  <property name="kdenlive:originalurl">video/CliqueAndIndependentSet/22.mp4</property>
  <property name="global_feed">1</property>
  <property name="meta.media.nb_streams">1</property>
  <property name="meta.media.0.stream.type">video</property>
  <property name="meta.media.0.stream.frame_rate">60</property>
  <property name="meta.media.0.stream.sample_aspect_ratio">0</property>
  <property name="meta.media.0.codec.width">640</property>
  <property name="meta.media.0.codec.height">360</property>
  <property name="meta.media.0.codec.rotate">0</property>
  <property name="meta.media.0.codec.frame_rate">60</property>
  <property name="meta.media.0.codec.pix_fmt">yuv420p</property>
  <property name="meta.media.0.codec.sample_aspect_ratio">0</property>
  <property name="meta.media.0.codec.colorspace">601</property>
  <property name="meta.media.0.codec.name">h264</property>
  <property name="meta.media.0.codec.long_name">H.264 / AVC / MPEG-4 AVC / MPEG-4 part 10</property>
  <property name="meta.media.0.codec.bit_rate">0</property>
  <property name="meta.attr.0.stream.HANDLER_NAME.markup">VideoHandler</property>
  <property name="meta.attr.0.stream.VENDOR_ID.markup">[0][0][0][0]</property>
  <property name="meta.attr.0.stream.ENCODER.markup">Lavc58.134.100 libx264</property>
  <property name="meta.attr.0.stream.DURATION.markup">00:00:01.000000000</property>
  <property name="meta.attr.COMMENT.markup">Rendered with Manim Community v0.6.0</property>
  <property name="meta.attr.MAJOR_BRAND.markup">isom</property>
  <property name="meta.attr.MINOR_VERSION.markup">512</property>
  <property name="meta.attr.COMPATIBLE_BRANDS.markup">isomiso2avc1mp41</property>
  <property name="meta.attr.ENCODER.markup">Lavf58.76.100</property>
  <property name="meta.media.sample_aspect_num">1</property>
  <property name="meta.media.sample_aspect_den">1</property>
  <property name="meta.media.frame_rate_num">60</property>
  <property name="meta.media.frame_rate_den">1</property>
  <property name="meta.media.colorspace">601</property>
  <property name="meta.media.color_trc">2</property>
  <property name="meta.media.width">640</property>
  <property name="meta.media.height">360</property>
  <property name="meta.media.color_range">mpeg</property>
  <property name="meta.media.top_field_first">0</property>
  <property name="meta.media.progressive">1</property>
  <property name="kdenlive:original.mlt_type">producer</property>
  <property name="kdenlive:original.in">0</property>
  <property name="kdenlive:original.out">59</property>
  <property name="kdenlive:original.length">60</property>
  <property name="kdenlive:original.eof">pause</property>
  <property name="kdenlive:original.resource">video/CliqueAndIndependentSet/22.mp4</property>
  <property name="kdenlive:original.meta.media.nb_streams">1</property>
  <property name="kdenlive:original.meta.media.0.stream.type">video</property>
  <property name="kdenlive:original.meta.media.0.stream.frame_rate">60</property>
  <property name="kdenlive:original.meta.media.0.stream.sample_aspect_ratio">0</property>
  <property name="kdenlive:original.meta.media.0.codec.width">3840</property>
  <property name="kdenlive:original.meta.media.0.codec.height">2160</property>
  <property name="kdenlive:original.meta.media.0.codec.rotate">0</property>
  <property name="kdenlive:original.meta.media.0.codec.frame_rate">60</property>
  <property name="kdenlive:original.meta.media.0.codec.pix_fmt">yuv420p</property>
  <property name="kdenlive:original.meta.media.0.codec.sample_aspect_ratio">0</property>
  <property name="kdenlive:original.meta.media.0.codec.colorspace">709</property>
  <property name="kdenlive:original.meta.media.0.codec.name">h264</property>
  <property name="kdenlive:original.meta.media.0.codec.long_name">H.264 / AVC / MPEG-4 AVC / MPEG-4 part 10</property>
  <property name="kdenlive:original.meta.media.0.codec.bit_rate">749760</property>
  <property name="kdenlive:original.meta.attr.0.stream.handler_name.markup">VideoHandler</property>
  <property name="kdenlive:original.meta.attr.0.stream.vendor_id.markup">[0][0][0][0]</property>
  <property name="kdenlive:original.meta.attr.major_brand.markup">isom</property>
  <property name="kdenlive:original.meta.attr.minor_version.markup">512</property>
  <property name="kdenlive:original.meta.attr.compatible_brands.markup">isomiso2avc1mp41</property>
  <property name="kdenlive:original.meta.attr.encoder.markup">Lavf58.76.100</property>
  <property name="kdenlive:original.meta.attr.comment.markup">Rendered with Manim Community v0.6.0</property>
  <property name="kdenlive:original.seekable">1</property>
  <property name="kdenlive:original.width">3840</property>
  <property name="kdenlive:original.height">2160</property>
  <property name="kdenlive:original.meta.media.sample_aspect_num">1</property>
  <property name="kdenlive:original.meta.media.sample_aspect_den">1</property>
  <property name="kdenlive:original.aspect_ratio">1</property>
  <property name="kdenlive:original.audio_index">-1</property>
  <property name="kdenlive:original.video_index">0</property>
  <property name="kdenlive:original.mute_on_pause">1</property>
  <property name="kdenlive:original.mlt_service">avformat</property>
  <property name="kdenlive:original.meta.media.frame_rate_num">60</property>
  <property name="kdenlive:original.meta.media.frame_rate_den">1</property>
  <property name="kdenlive:original.meta.media.colorspace">709</property>
  <property name="kdenlive:original.meta.media.color_trc">2</property>
  <property name="kdenlive:original.meta.media.width">3840</property>
  <property name="kdenlive:original.meta.media.height">2160</property>
  <property name="kdenlive:original.meta.media.color_range">mpeg</property>
  <property name="kdenlive:original.meta.media.top_field_first">0</property>
  <property name="kdenlive:original.meta.media.progressive">1</property>
  <property name="kdenlive:original.backup">1</property>
 </producer>
 <producer id="producer99" in="00:00:00.000" out="00:00:04.983">
  <property name="length">00:00:05.000</property>
  <property name="eof">pause</property>
  <property name="resource">/home/xiaoxiae/.cache/kdenlive/proxy/6977b67b198c9e666d9eb5c4b788f973.png</property>
  <property name="ttl">25</property>
  <property name="aspect_ratio">1</property>
  <property name="progressive">1</property>
  <property name="seekable">1</property>
  <property name="meta.media.width">800</property>
  <property name="meta.media.height">450</property>
  <property name="mlt_service">qimage</property>
  <property name="kdenlive:clipname">22.png</property>
  <property name="kdenlive:duration">00:00:05.000</property>
  <property name="kdenlive:folderid">31</property>
  <property name="kdenlive:id">61</property>
  <property name="kdenlive:file_size">393958</property>
  <property name="kdenlive:file_hash">6977b67b198c9e666d9eb5c4b788f973</property>
  <property name="kdenlive:proxy">/home/xiaoxiae/.cache/kdenlive/proxy/6977b67b198c9e666d9eb5c4b788f973.png</property>
  <property name="kdenlive:originalurl">video/CliqueAndIndependentSet/22.png</property>
  <property name="global_feed">1</property>
 </producer>
 <producer id="producer100" in="00:00:00.000" out="00:00:00.983">
  <property name="length">60</property>
  <property name="eof">pause</property>
  <property name="resource">/home/xiaoxiae/.cache/kdenlive/proxy/fd30927aa476e4625739535742fcd18f.mkv</property>
  <property name="audio_index">-1</property>
  <property name="video_index">0</property>
  <property name="mute_on_pause">0</property>
  <property name="mlt_service">avformat-novalidate</property>
  <property name="seekable">1</property>
  <property name="aspect_ratio">1</property>
  <property name="kdenlive:clipname">23.mp4</property>
  <property name="kdenlive:folderid">31</property>
  <property name="kdenlive:id">62</property>
  <property name="kdenlive:file_size">395435</property>
  <property name="kdenlive:file_hash">fd30927aa476e4625739535742fcd18f</property>
  <property name="kdenlive:proxy">/home/xiaoxiae/.cache/kdenlive/proxy/fd30927aa476e4625739535742fcd18f.mkv</property>
  <property name="kdenlive:originalurl">video/CliqueAndIndependentSet/23.mp4</property>
  <property name="global_feed">1</property>
  <property name="meta.media.nb_streams">1</property>
  <property name="meta.media.0.stream.type">video</property>
  <property name="meta.media.0.stream.frame_rate">60</property>
  <property name="meta.media.0.stream.sample_aspect_ratio">0</property>
  <property name="meta.media.0.codec.width">640</property>
  <property name="meta.media.0.codec.height">360</property>
  <property name="meta.media.0.codec.rotate">0</property>
  <property name="meta.media.0.codec.frame_rate">60</property>
  <property name="meta.media.0.codec.pix_fmt">yuv420p</property>
  <property name="meta.media.0.codec.sample_aspect_ratio">0</property>
  <property name="meta.media.0.codec.colorspace">601</property>
  <property name="meta.media.0.codec.name">h264</property>
  <property name="meta.media.0.codec.long_name">H.264 / AVC / MPEG-4 AVC / MPEG-4 part 10</property>
  <property name="meta.media.0.codec.bit_rate">0</property>
  <property name="meta.attr.0.stream.HANDLER_NAME.markup">VideoHandler</property>
  <property name="meta.attr.0.stream.VENDOR_ID.markup">[0][0][0][0]</property>
  <property name="meta.attr.0.stream.ENCODER.markup">Lavc58.134.100 libx264</property>
  <property name="meta.attr.0.stream.DURATION.markup">00:00:01.000000000</property>
  <property name="meta.attr.COMMENT.markup">Rendered with Manim Community v0.6.0</property>
  <property name="meta.attr.MAJOR_BRAND.markup">isom</property>
  <property name="meta.attr.MINOR_VERSION.markup">512</property>
  <property name="meta.attr.COMPATIBLE_BRANDS.markup">isomiso2avc1mp41</property>
  <property name="meta.attr.ENCODER.markup">Lavf58.76.100</property>
  <property name="meta.media.sample_aspect_num">1</property>
  <property name="meta.media.sample_aspect_den">1</property>
  <property name="meta.media.frame_rate_num">60</property>
  <property name="meta.media.frame_rate_den">1</property>
  <property name="meta.media.colorspace">601</property>
  <property name="meta.media.color_trc">2</property>
  <property name="meta.media.width">640</property>
  <property name="meta.media.height">360</property>
  <property name="meta.media.color_range">mpeg</property>
  <property name="meta.media.top_field_first">0</property>
  <property name="meta.media.progressive">1</property>
  <property name="kdenlive:original.mlt_type">producer</property>
  <property name="kdenlive:original.in">0</property>
  <property name="kdenlive:original.out">59</property>
  <property name="kdenlive:original.length">60</property>
  <property name="kdenlive:original.eof">pause</property>
  <property name="kdenlive:original.resource">video/CliqueAndIndependentSet/23.mp4</property>
  <property name="kdenlive:original.meta.media.nb_streams">1</property>
  <property name="kdenlive:original.meta.media.0.stream.type">video</property>
  <property name="kdenlive:original.meta.media.0.stream.frame_rate">60</property>
  <property name="kdenlive:original.meta.media.0.stream.sample_aspect_ratio">0</property>
  <property name="kdenlive:original.meta.media.0.codec.width">3840</property>
  <property name="kdenlive:original.meta.media.0.codec.height">2160</property>
  <property name="kdenlive:original.meta.media.0.codec.rotate">0</property>
  <property name="kdenlive:original.meta.media.0.codec.frame_rate">60</property>
  <property name="kdenlive:original.meta.media.0.codec.pix_fmt">yuv420p</property>
  <property name="kdenlive:original.meta.media.0.codec.sample_aspect_ratio">0</property>
  <property name="kdenlive:original.meta.media.0.codec.colorspace">709</property>
  <property name="kdenlive:original.meta.media.0.codec.name">h264</property>
  <property name="kdenlive:original.meta.media.0.codec.long_name">H.264 / AVC / MPEG-4 AVC / MPEG-4 part 10</property>
  <property name="kdenlive:original.meta.media.0.codec.bit_rate">3151648</property>
  <property name="kdenlive:original.meta.attr.0.stream.handler_name.markup">VideoHandler</property>
  <property name="kdenlive:original.meta.attr.0.stream.vendor_id.markup">[0][0][0][0]</property>
  <property name="kdenlive:original.meta.attr.major_brand.markup">isom</property>
  <property name="kdenlive:original.meta.attr.minor_version.markup">512</property>
  <property name="kdenlive:original.meta.attr.compatible_brands.markup">isomiso2avc1mp41</property>
  <property name="kdenlive:original.meta.attr.encoder.markup">Lavf58.76.100</property>
  <property name="kdenlive:original.meta.attr.comment.markup">Rendered with Manim Community v0.6.0</property>
  <property name="kdenlive:original.seekable">1</property>
  <property name="kdenlive:original.width">3840</property>
  <property name="kdenlive:original.height">2160</property>
  <property name="kdenlive:original.meta.media.sample_aspect_num">1</property>
  <property name="kdenlive:original.meta.media.sample_aspect_den">1</property>
  <property name="kdenlive:original.aspect_ratio">1</property>
  <property name="kdenlive:original.audio_index">-1</property>
  <property name="kdenlive:original.video_index">0</property>
  <property name="kdenlive:original.mute_on_pause">1</property>
  <property name="kdenlive:original.mlt_service">avformat</property>
  <property name="kdenlive:original.meta.media.frame_rate_num">60</property>
  <property name="kdenlive:original.meta.media.frame_rate_den">1</property>
  <property name="kdenlive:original.meta.media.colorspace">709</property>
  <property name="kdenlive:original.meta.media.color_trc">2</property>
  <property name="kdenlive:original.meta.media.width">3840</property>
  <property name="kdenlive:original.meta.media.height">2160</property>
  <property name="kdenlive:original.meta.media.color_range">mpeg</property>
  <property name="kdenlive:original.meta.media.top_field_first">0</property>
  <property name="kdenlive:original.meta.media.progressive">1</property>
  <property name="kdenlive:original.backup">1</property>
 </producer>
 <producer id="producer101" in="00:00:00.000" out="00:00:04.983">
  <property name="length">00:00:05.000</property>
  <property name="eof">pause</property>
  <property name="resource">/home/xiaoxiae/.cache/kdenlive/proxy/0948f76e922d32cc5ba0e858eb9d5ba6.png</property>
  <property name="ttl">25</property>
  <property name="aspect_ratio">1</property>
  <property name="progressive">1</property>
  <property name="seekable">1</property>
  <property name="meta.media.width">800</property>
  <property name="meta.media.height">450</property>
  <property name="mlt_service">qimage</property>
  <property name="kdenlive:clipname">23.png</property>
  <property name="kdenlive:duration">00:00:05.000</property>
  <property name="kdenlive:folderid">31</property>
  <property name="kdenlive:id">63</property>
  <property name="kdenlive:file_size">482018</property>
  <property name="kdenlive:file_hash">0948f76e922d32cc5ba0e858eb9d5ba6</property>
  <property name="kdenlive:proxy">/home/xiaoxiae/.cache/kdenlive/proxy/0948f76e922d32cc5ba0e858eb9d5ba6.png</property>
  <property name="kdenlive:originalurl">video/CliqueAndIndependentSet/23.png</property>
  <property name="global_feed">1</property>
  <property name="kdenlive:original.mlt_type">producer</property>
  <property name="kdenlive:original.in">0</property>
  <property name="kdenlive:original.out">14999</property>
  <property name="kdenlive:original.length">15000</property>
  <property name="kdenlive:original.eof">pause</property>
  <property name="kdenlive:original.resource">video/CliqueAndIndependentSet/23.png</property>
  <property name="kdenlive:original.ttl">25</property>
  <property name="kdenlive:original.aspect_ratio">1</property>
  <property name="kdenlive:original.progressive">1</property>
  <property name="kdenlive:original.seekable">1</property>
  <property name="kdenlive:original.meta.media.width">3840</property>
  <property name="kdenlive:original.meta.media.height">2160</property>
  <property name="kdenlive:original.mlt_service">qimage</property>
  <property name="kdenlive:original.backup">1</property>
 </producer>
 <producer id="producer103" in="00:00:00.000" out="00:00:00.983">
  <property name="length">60</property>
  <property name="eof">pause</property>
  <property name="resource">/home/xiaoxiae/.cache/kdenlive/proxy/1975484fe6d60ec6e103a23600b1edbb.mkv</property>
  <property name="audio_index">-1</property>
  <property name="video_index">0</property>
  <property name="mute_on_pause">0</property>
  <property name="mlt_service">avformat-novalidate</property>
  <property name="seekable">1</property>
  <property name="aspect_ratio">1</property>
  <property name="kdenlive:clipname">24.mp4</property>
  <property name="kdenlive:folderid">31</property>
  <property name="kdenlive:id">64</property>
  <property name="kdenlive:file_size">127242</property>
  <property name="kdenlive:file_hash">1975484fe6d60ec6e103a23600b1edbb</property>
  <property name="kdenlive:proxy">/home/xiaoxiae/.cache/kdenlive/proxy/1975484fe6d60ec6e103a23600b1edbb.mkv</property>
  <property name="kdenlive:originalurl">video/CliqueAndIndependentSet/24.mp4</property>
  <property name="global_feed">1</property>
  <property name="meta.media.nb_streams">1</property>
  <property name="meta.media.0.stream.type">video</property>
  <property name="meta.media.0.stream.frame_rate">60</property>
  <property name="meta.media.0.stream.sample_aspect_ratio">0</property>
  <property name="meta.media.0.codec.width">640</property>
  <property name="meta.media.0.codec.height">360</property>
  <property name="meta.media.0.codec.rotate">0</property>
  <property name="meta.media.0.codec.frame_rate">60</property>
  <property name="meta.media.0.codec.pix_fmt">yuv420p</property>
  <property name="meta.media.0.codec.sample_aspect_ratio">0</property>
  <property name="meta.media.0.codec.colorspace">601</property>
  <property name="meta.media.0.codec.name">h264</property>
  <property name="meta.media.0.codec.long_name">H.264 / AVC / MPEG-4 AVC / MPEG-4 part 10</property>
  <property name="meta.media.0.codec.bit_rate">0</property>
  <property name="meta.attr.0.stream.HANDLER_NAME.markup">VideoHandler</property>
  <property name="meta.attr.0.stream.VENDOR_ID.markup">[0][0][0][0]</property>
  <property name="meta.attr.0.stream.ENCODER.markup">Lavc58.134.100 libx264</property>
  <property name="meta.attr.0.stream.DURATION.markup">00:00:01.000000000</property>
  <property name="meta.attr.COMMENT.markup">Rendered with Manim Community v0.6.0</property>
  <property name="meta.attr.MAJOR_BRAND.markup">isom</property>
  <property name="meta.attr.MINOR_VERSION.markup">512</property>
  <property name="meta.attr.COMPATIBLE_BRANDS.markup">isomiso2avc1mp41</property>
  <property name="meta.attr.ENCODER.markup">Lavf58.76.100</property>
  <property name="meta.media.sample_aspect_num">1</property>
  <property name="meta.media.sample_aspect_den">1</property>
  <property name="meta.media.frame_rate_num">60</property>
  <property name="meta.media.frame_rate_den">1</property>
  <property name="meta.media.colorspace">601</property>
  <property name="meta.media.color_trc">2</property>
  <property name="meta.media.width">640</property>
  <property name="meta.media.height">360</property>
  <property name="meta.media.color_range">mpeg</property>
  <property name="meta.media.top_field_first">0</property>
  <property name="meta.media.progressive">1</property>
  <property name="kdenlive:original.mlt_type">producer</property>
  <property name="kdenlive:original.in">0</property>
  <property name="kdenlive:original.out">59</property>
  <property name="kdenlive:original.length">60</property>
  <property name="kdenlive:original.eof">pause</property>
  <property name="kdenlive:original.resource">video/CliqueAndIndependentSet/24.mp4</property>
  <property name="kdenlive:original.meta.media.nb_streams">1</property>
  <property name="kdenlive:original.meta.media.0.stream.type">video</property>
  <property name="kdenlive:original.meta.media.0.stream.frame_rate">60</property>
  <property name="kdenlive:original.meta.media.0.stream.sample_aspect_ratio">0</property>
  <property name="kdenlive:original.meta.media.0.codec.width">3840</property>
  <property name="kdenlive:original.meta.media.0.codec.height">2160</property>
  <property name="kdenlive:original.meta.media.0.codec.rotate">0</property>
  <property name="kdenlive:original.meta.media.0.codec.frame_rate">60</property>
  <property name="kdenlive:original.meta.media.0.codec.pix_fmt">yuv420p</property>
  <property name="kdenlive:original.meta.media.0.codec.sample_aspect_ratio">0</property>
  <property name="kdenlive:original.meta.media.0.codec.colorspace">709</property>
  <property name="kdenlive:original.meta.media.0.codec.name">h264</property>
  <property name="kdenlive:original.meta.media.0.codec.long_name">H.264 / AVC / MPEG-4 AVC / MPEG-4 part 10</property>
  <property name="kdenlive:original.meta.media.0.codec.bit_rate">1005080</property>
  <property name="kdenlive:original.meta.attr.0.stream.handler_name.markup">VideoHandler</property>
  <property name="kdenlive:original.meta.attr.0.stream.vendor_id.markup">[0][0][0][0]</property>
  <property name="kdenlive:original.meta.attr.major_brand.markup">isom</property>
  <property name="kdenlive:original.meta.attr.minor_version.markup">512</property>
  <property name="kdenlive:original.meta.attr.compatible_brands.markup">isomiso2avc1mp41</property>
  <property name="kdenlive:original.meta.attr.encoder.markup">Lavf58.76.100</property>
  <property name="kdenlive:original.meta.attr.comment.markup">Rendered with Manim Community v0.6.0</property>
  <property name="kdenlive:original.seekable">1</property>
  <property name="kdenlive:original.width">3840</property>
  <property name="kdenlive:original.height">2160</property>
  <property name="kdenlive:original.meta.media.sample_aspect_num">1</property>
  <property name="kdenlive:original.meta.media.sample_aspect_den">1</property>
  <property name="kdenlive:original.aspect_ratio">1</property>
  <property name="kdenlive:original.audio_index">-1</property>
  <property name="kdenlive:original.video_index">0</property>
  <property name="kdenlive:original.mute_on_pause">1</property>
  <property name="kdenlive:original.mlt_service">avformat</property>
  <property name="kdenlive:original.meta.media.frame_rate_num">60</property>
  <property name="kdenlive:original.meta.media.frame_rate_den">1</property>
  <property name="kdenlive:original.meta.media.colorspace">709</property>
  <property name="kdenlive:original.meta.media.color_trc">2</property>
  <property name="kdenlive:original.meta.media.width">3840</property>
  <property name="kdenlive:original.meta.media.height">2160</property>
  <property name="kdenlive:original.meta.media.color_range">mpeg</property>
  <property name="kdenlive:original.meta.media.top_field_first">0</property>
  <property name="kdenlive:original.meta.media.progressive">1</property>
  <property name="kdenlive:original.backup">1</property>
 </producer>
 <producer id="producer102" in="00:00:00.000" out="00:00:04.983">
  <property name="length">00:00:05.000</property>
  <property name="eof">pause</property>
  <property name="resource">/home/xiaoxiae/.cache/kdenlive/proxy/6b665121ca7b54a5f5307b69451fd23c.png</property>
  <property name="ttl">25</property>
  <property name="aspect_ratio">1</property>
  <property name="progressive">1</property>
  <property name="seekable">1</property>
  <property name="meta.media.width">800</property>
  <property name="meta.media.height">450</property>
  <property name="mlt_service">qimage</property>
  <property name="kdenlive:clipname">24.png</property>
  <property name="kdenlive:duration">00:00:05.000</property>
  <property name="kdenlive:folderid">31</property>
  <property name="kdenlive:id">65</property>
  <property name="kdenlive:file_size">24337</property>
  <property name="kdenlive:file_hash">6b665121ca7b54a5f5307b69451fd23c</property>
  <property name="kdenlive:proxy">/home/xiaoxiae/.cache/kdenlive/proxy/6b665121ca7b54a5f5307b69451fd23c.png</property>
  <property name="kdenlive:originalurl">video/CliqueAndIndependentSet/24.png</property>
  <property name="global_feed">1</property>
 </producer>
 <producer id="producer108" in="00:00:00.000" out="00:00:03.433">
  <property name="length">207</property>
  <property name="eof">pause</property>
  <property name="resource">/home/xiaoxiae/.cache/kdenlive/proxy/ddc2c52f9b52cee7aece6140cc0754a3.mkv</property>
  <property name="audio_index">-1</property>
  <property name="video_index">0</property>
  <property name="mute_on_pause">0</property>
  <property name="mlt_service">avformat-novalidate</property>
  <property name="seekable">1</property>
  <property name="aspect_ratio">1</property>
  <property name="kdenlive:clipname">3.mp4</property>
  <property name="kdenlive:folderid">31</property>
  <property name="kdenlive:id">66</property>
  <property name="kdenlive:file_size">319414</property>
  <property name="kdenlive:file_hash">ddc2c52f9b52cee7aece6140cc0754a3</property>
  <property name="kdenlive:proxy">/home/xiaoxiae/.cache/kdenlive/proxy/ddc2c52f9b52cee7aece6140cc0754a3.mkv</property>
  <property name="kdenlive:originalurl">video/CliqueAndIndependentSet/3.mp4</property>
  <property name="global_feed">1</property>
  <property name="meta.media.nb_streams">1</property>
  <property name="meta.media.0.stream.type">video</property>
  <property name="meta.media.0.stream.frame_rate">60</property>
  <property name="meta.media.0.stream.sample_aspect_ratio">0</property>
  <property name="meta.media.0.codec.width">640</property>
  <property name="meta.media.0.codec.height">360</property>
  <property name="meta.media.0.codec.rotate">0</property>
  <property name="meta.media.0.codec.frame_rate">60</property>
  <property name="meta.media.0.codec.pix_fmt">yuv420p</property>
  <property name="meta.media.0.codec.sample_aspect_ratio">0</property>
  <property name="meta.media.0.codec.colorspace">601</property>
  <property name="meta.media.0.codec.name">h264</property>
  <property name="meta.media.0.codec.long_name">H.264 / AVC / MPEG-4 AVC / MPEG-4 part 10</property>
  <property name="meta.media.0.codec.bit_rate">0</property>
  <property name="meta.attr.0.stream.HANDLER_NAME.markup">VideoHandler</property>
  <property name="meta.attr.0.stream.VENDOR_ID.markup">[0][0][0][0]</property>
  <property name="meta.attr.0.stream.ENCODER.markup">Lavc58.134.100 libx264</property>
  <property name="meta.attr.0.stream.DURATION.markup">00:00:03.450000000</property>
  <property name="meta.attr.COMMENT.markup">Rendered with Manim Community v0.6.0</property>
  <property name="meta.attr.MAJOR_BRAND.markup">isom</property>
  <property name="meta.attr.MINOR_VERSION.markup">512</property>
  <property name="meta.attr.COMPATIBLE_BRANDS.markup">isomiso2avc1mp41</property>
  <property name="meta.attr.ENCODER.markup">Lavf58.76.100</property>
  <property name="meta.media.sample_aspect_num">1</property>
  <property name="meta.media.sample_aspect_den">1</property>
  <property name="meta.media.frame_rate_num">60</property>
  <property name="meta.media.frame_rate_den">1</property>
  <property name="meta.media.colorspace">601</property>
  <property name="meta.media.color_trc">2</property>
  <property name="meta.media.width">640</property>
  <property name="meta.media.height">360</property>
  <property name="meta.media.color_range">mpeg</property>
  <property name="meta.media.top_field_first">0</property>
  <property name="meta.media.progressive">1</property>
  <property name="kdenlive:original.mlt_type">producer</property>
  <property name="kdenlive:original.in">0</property>
  <property name="kdenlive:original.out">206</property>
  <property name="kdenlive:original.length">207</property>
  <property name="kdenlive:original.eof">pause</property>
  <property name="kdenlive:original.resource">video/CliqueAndIndependentSet/3.mp4</property>
  <property name="kdenlive:original.meta.media.nb_streams">1</property>
  <property name="kdenlive:original.meta.media.0.stream.type">video</property>
  <property name="kdenlive:original.meta.media.0.stream.frame_rate">60</property>
  <property name="kdenlive:original.meta.media.0.stream.sample_aspect_ratio">0</property>
  <property name="kdenlive:original.meta.media.0.codec.width">3840</property>
  <property name="kdenlive:original.meta.media.0.codec.height">2160</property>
  <property name="kdenlive:original.meta.media.0.codec.rotate">0</property>
  <property name="kdenlive:original.meta.media.0.codec.frame_rate">60</property>
  <property name="kdenlive:original.meta.media.0.codec.pix_fmt">yuv420p</property>
  <property name="kdenlive:original.meta.media.0.codec.sample_aspect_ratio">0</property>
  <property name="kdenlive:original.meta.media.0.codec.colorspace">709</property>
  <property name="kdenlive:original.meta.media.0.codec.name">h264</property>
  <property name="kdenlive:original.meta.media.0.codec.long_name">H.264 / AVC / MPEG-4 AVC / MPEG-4 part 10</property>
  <property name="kdenlive:original.meta.media.0.codec.bit_rate">732779</property>
  <property name="kdenlive:original.meta.attr.0.stream.handler_name.markup">VideoHandler</property>
  <property name="kdenlive:original.meta.attr.0.stream.vendor_id.markup">[0][0][0][0]</property>
  <property name="kdenlive:original.meta.attr.major_brand.markup">isom</property>
  <property name="kdenlive:original.meta.attr.minor_version.markup">512</property>
  <property name="kdenlive:original.meta.attr.compatible_brands.markup">isomiso2avc1mp41</property>
  <property name="kdenlive:original.meta.attr.encoder.markup">Lavf58.76.100</property>
  <property name="kdenlive:original.meta.attr.comment.markup">Rendered with Manim Community v0.6.0</property>
  <property name="kdenlive:original.seekable">1</property>
  <property name="kdenlive:original.width">3840</property>
  <property name="kdenlive:original.height">2160</property>
  <property name="kdenlive:original.meta.media.sample_aspect_num">1</property>
  <property name="kdenlive:original.meta.media.sample_aspect_den">1</property>
  <property name="kdenlive:original.aspect_ratio">1</property>
  <property name="kdenlive:original.audio_index">-1</property>
  <property name="kdenlive:original.video_index">0</property>
  <property name="kdenlive:original.mute_on_pause">1</property>
  <property name="kdenlive:original.mlt_service">avformat</property>
  <property name="kdenlive:original.meta.media.frame_rate_num">60</property>
  <property name="kdenlive:original.meta.media.frame_rate_den">1</property>
  <property name="kdenlive:original.meta.media.colorspace">709</property>
  <property name="kdenlive:original.meta.media.color_trc">2</property>
  <property name="kdenlive:original.meta.media.width">3840</property>
  <property name="kdenlive:original.meta.media.height">2160</property>
  <property name="kdenlive:original.meta.media.color_range">mpeg</property>
  <property name="kdenlive:original.meta.media.top_field_first">0</property>
  <property name="kdenlive:original.meta.media.progressive">1</property>
  <property name="kdenlive:original.backup">1</property>
 </producer>
 <producer id="producer106" in="00:00:00.000" out="00:00:04.983">
  <property name="length">00:00:05.000</property>
  <property name="eof">pause</property>
  <property name="resource">/home/xiaoxiae/.cache/kdenlive/proxy/593d50aeb21376a9ad39a498d2413bf0.png</property>
  <property name="ttl">25</property>
  <property name="aspect_ratio">1</property>
  <property name="progressive">1</property>
  <property name="seekable">1</property>
  <property name="meta.media.width">800</property>
  <property name="meta.media.height">450</property>
  <property name="mlt_service">qimage</property>
  <property name="kdenlive:clipname">3.png</property>
  <property name="kdenlive:duration">00:00:05.000</property>
  <property name="kdenlive:folderid">31</property>
  <property name="kdenlive:id">67</property>
  <property name="kdenlive:file_size">313624</property>
  <property name="kdenlive:file_hash">593d50aeb21376a9ad39a498d2413bf0</property>
  <property name="kdenlive:proxy">/home/xiaoxiae/.cache/kdenlive/proxy/593d50aeb21376a9ad39a498d2413bf0.png</property>
  <property name="kdenlive:originalurl">video/CliqueAndIndependentSet/3.png</property>
  <property name="global_feed">1</property>
 </producer>
 <producer id="producer104" in="00:00:00.000" out="00:00:01.983">
  <property name="length">120</property>
  <property name="eof">pause</property>
  <property name="resource">/home/xiaoxiae/.cache/kdenlive/proxy/f441174a085459db26a27653be30acf2.mkv</property>
  <property name="audio_index">-1</property>
  <property name="video_index">0</property>
  <property name="mute_on_pause">0</property>
  <property name="mlt_service">avformat-novalidate</property>
  <property name="seekable">1</property>
  <property name="aspect_ratio">1</property>
  <property name="kdenlive:clipname">4.mp4</property>
  <property name="kdenlive:folderid">31</property>
  <property name="kdenlive:id">68</property>
  <property name="kdenlive:file_size">169762</property>
  <property name="kdenlive:file_hash">f441174a085459db26a27653be30acf2</property>
  <property name="kdenlive:proxy">/home/xiaoxiae/.cache/kdenlive/proxy/f441174a085459db26a27653be30acf2.mkv</property>
  <property name="kdenlive:originalurl">video/CliqueAndIndependentSet/4.mp4</property>
  <property name="global_feed">1</property>
  <property name="meta.media.nb_streams">1</property>
  <property name="meta.media.0.stream.type">video</property>
  <property name="meta.media.0.stream.frame_rate">60</property>
  <property name="meta.media.0.stream.sample_aspect_ratio">0</property>
  <property name="meta.media.0.codec.width">640</property>
  <property name="meta.media.0.codec.height">360</property>
  <property name="meta.media.0.codec.rotate">0</property>
  <property name="meta.media.0.codec.frame_rate">60</property>
  <property name="meta.media.0.codec.pix_fmt">yuv420p</property>
  <property name="meta.media.0.codec.sample_aspect_ratio">0</property>
  <property name="meta.media.0.codec.colorspace">601</property>
  <property name="meta.media.0.codec.name">h264</property>
  <property name="meta.media.0.codec.long_name">H.264 / AVC / MPEG-4 AVC / MPEG-4 part 10</property>
  <property name="meta.media.0.codec.bit_rate">0</property>
  <property name="meta.attr.0.stream.HANDLER_NAME.markup">VideoHandler</property>
  <property name="meta.attr.0.stream.VENDOR_ID.markup">[0][0][0][0]</property>
  <property name="meta.attr.0.stream.ENCODER.markup">Lavc58.134.100 libx264</property>
  <property name="meta.attr.0.stream.DURATION.markup">00:00:02.000000000</property>
  <property name="meta.attr.COMMENT.markup">Rendered with Manim Community v0.6.0</property>
  <property name="meta.attr.MAJOR_BRAND.markup">isom</property>
  <property name="meta.attr.MINOR_VERSION.markup">512</property>
  <property name="meta.attr.COMPATIBLE_BRANDS.markup">isomiso2avc1mp41</property>
  <property name="meta.attr.ENCODER.markup">Lavf58.76.100</property>
  <property name="meta.media.sample_aspect_num">1</property>
  <property name="meta.media.sample_aspect_den">1</property>
  <property name="meta.media.frame_rate_num">60</property>
  <property name="meta.media.frame_rate_den">1</property>
  <property name="meta.media.colorspace">601</property>
  <property name="meta.media.color_trc">2</property>
  <property name="meta.media.width">640</property>
  <property name="meta.media.height">360</property>
  <property name="meta.media.color_range">mpeg</property>
  <property name="meta.media.top_field_first">0</property>
  <property name="meta.media.progressive">1</property>
  <property name="kdenlive:original.mlt_type">producer</property>
  <property name="kdenlive:original.in">0</property>
  <property name="kdenlive:original.out">119</property>
  <property name="kdenlive:original.length">120</property>
  <property name="kdenlive:original.eof">pause</property>
  <property name="kdenlive:original.resource">video/CliqueAndIndependentSet/4.mp4</property>
  <property name="kdenlive:original.meta.media.nb_streams">1</property>
  <property name="kdenlive:original.meta.media.0.stream.type">video</property>
  <property name="kdenlive:original.meta.media.0.stream.frame_rate">60</property>
  <property name="kdenlive:original.meta.media.0.stream.sample_aspect_ratio">0</property>
  <property name="kdenlive:original.meta.media.0.codec.width">3840</property>
  <property name="kdenlive:original.meta.media.0.codec.height">2160</property>
  <property name="kdenlive:original.meta.media.0.codec.rotate">0</property>
  <property name="kdenlive:original.meta.media.0.codec.frame_rate">60</property>
  <property name="kdenlive:original.meta.media.0.codec.pix_fmt">yuv420p</property>
  <property name="kdenlive:original.meta.media.0.codec.sample_aspect_ratio">0</property>
  <property name="kdenlive:original.meta.media.0.codec.colorspace">709</property>
  <property name="kdenlive:original.meta.media.0.codec.name">h264</property>
  <property name="kdenlive:original.meta.media.0.codec.long_name">H.264 / AVC / MPEG-4 AVC / MPEG-4 part 10</property>
  <property name="kdenlive:original.meta.media.0.codec.bit_rate">669644</property>
  <property name="kdenlive:original.meta.attr.0.stream.handler_name.markup">VideoHandler</property>
  <property name="kdenlive:original.meta.attr.0.stream.vendor_id.markup">[0][0][0][0]</property>
  <property name="kdenlive:original.meta.attr.major_brand.markup">isom</property>
  <property name="kdenlive:original.meta.attr.minor_version.markup">512</property>
  <property name="kdenlive:original.meta.attr.compatible_brands.markup">isomiso2avc1mp41</property>
  <property name="kdenlive:original.meta.attr.encoder.markup">Lavf58.76.100</property>
  <property name="kdenlive:original.meta.attr.comment.markup">Rendered with Manim Community v0.6.0</property>
  <property name="kdenlive:original.seekable">1</property>
  <property name="kdenlive:original.width">3840</property>
  <property name="kdenlive:original.height">2160</property>
  <property name="kdenlive:original.meta.media.sample_aspect_num">1</property>
  <property name="kdenlive:original.meta.media.sample_aspect_den">1</property>
  <property name="kdenlive:original.aspect_ratio">1</property>
  <property name="kdenlive:original.audio_index">-1</property>
  <property name="kdenlive:original.video_index">0</property>
  <property name="kdenlive:original.mute_on_pause">1</property>
  <property name="kdenlive:original.mlt_service">avformat</property>
  <property name="kdenlive:original.meta.media.frame_rate_num">60</property>
  <property name="kdenlive:original.meta.media.frame_rate_den">1</property>
  <property name="kdenlive:original.meta.media.colorspace">709</property>
  <property name="kdenlive:original.meta.media.color_trc">2</property>
  <property name="kdenlive:original.meta.media.width">3840</property>
  <property name="kdenlive:original.meta.media.height">2160</property>
  <property name="kdenlive:original.meta.media.color_range">mpeg</property>
  <property name="kdenlive:original.meta.media.top_field_first">0</property>
  <property name="kdenlive:original.meta.media.progressive">1</property>
  <property name="kdenlive:original.backup">1</property>
 </producer>
 <producer id="producer107" in="00:00:00.000" out="00:00:04.983">
  <property name="length">00:00:05.000</property>
  <property name="eof">pause</property>
  <property name="resource">/home/xiaoxiae/.cache/kdenlive/proxy/a58ab9c44a4449b6d6c5d5d1917b5007.png</property>
  <property name="ttl">25</property>
  <property name="aspect_ratio">1</property>
  <property name="progressive">1</property>
  <property name="seekable">1</property>
  <property name="meta.media.width">800</property>
  <property name="meta.media.height">450</property>
  <property name="mlt_service">qimage</property>
  <property name="kdenlive:clipname">4.png</property>
  <property name="kdenlive:duration">00:00:05.000</property>
  <property name="kdenlive:folderid">31</property>
  <property name="kdenlive:id">69</property>
  <property name="kdenlive:file_size">405420</property>
  <property name="kdenlive:file_hash">a58ab9c44a4449b6d6c5d5d1917b5007</property>
  <property name="kdenlive:proxy">/home/xiaoxiae/.cache/kdenlive/proxy/a58ab9c44a4449b6d6c5d5d1917b5007.png</property>
  <property name="kdenlive:originalurl">video/CliqueAndIndependentSet/4.png</property>
  <property name="global_feed">1</property>
 </producer>
 <producer id="producer105" in="00:00:00.000" out="00:00:00.983">
  <property name="length">60</property>
  <property name="eof">pause</property>
  <property name="resource">/home/xiaoxiae/.cache/kdenlive/proxy/2354f08e8a198e05e2827ef2275e66e4.mkv</property>
  <property name="audio_index">-1</property>
  <property name="video_index">0</property>
  <property name="mute_on_pause">0</property>
  <property name="mlt_service">avformat-novalidate</property>
  <property name="seekable">1</property>
  <property name="aspect_ratio">1</property>
  <property name="kdenlive:clipname">5.mp4</property>
  <property name="kdenlive:folderid">31</property>
  <property name="kdenlive:id">70</property>
  <property name="kdenlive:file_size">150758</property>
  <property name="kdenlive:file_hash">2354f08e8a198e05e2827ef2275e66e4</property>
  <property name="kdenlive:proxy">/home/xiaoxiae/.cache/kdenlive/proxy/2354f08e8a198e05e2827ef2275e66e4.mkv</property>
  <property name="kdenlive:originalurl">video/CliqueAndIndependentSet/5.mp4</property>
  <property name="global_feed">1</property>
  <property name="meta.media.nb_streams">1</property>
  <property name="meta.media.0.stream.type">video</property>
  <property name="meta.media.0.stream.frame_rate">60</property>
  <property name="meta.media.0.stream.sample_aspect_ratio">0</property>
  <property name="meta.media.0.codec.width">640</property>
  <property name="meta.media.0.codec.height">360</property>
  <property name="meta.media.0.codec.rotate">0</property>
  <property name="meta.media.0.codec.frame_rate">60</property>
  <property name="meta.media.0.codec.pix_fmt">yuv420p</property>
  <property name="meta.media.0.codec.sample_aspect_ratio">0</property>
  <property name="meta.media.0.codec.colorspace">601</property>
  <property name="meta.media.0.codec.name">h264</property>
  <property name="meta.media.0.codec.long_name">H.264 / AVC / MPEG-4 AVC / MPEG-4 part 10</property>
  <property name="meta.media.0.codec.bit_rate">0</property>
  <property name="meta.attr.0.stream.HANDLER_NAME.markup">VideoHandler</property>
  <property name="meta.attr.0.stream.VENDOR_ID.markup">[0][0][0][0]</property>
  <property name="meta.attr.0.stream.ENCODER.markup">Lavc58.134.100 libx264</property>
  <property name="meta.attr.0.stream.DURATION.markup">00:00:01.000000000</property>
  <property name="meta.attr.COMMENT.markup">Rendered with Manim Community v0.6.0</property>
  <property name="meta.attr.MAJOR_BRAND.markup">isom</property>
  <property name="meta.attr.MINOR_VERSION.markup">512</property>
  <property name="meta.attr.COMPATIBLE_BRANDS.markup">isomiso2avc1mp41</property>
  <property name="meta.attr.ENCODER.markup">Lavf58.76.100</property>
  <property name="meta.media.sample_aspect_num">1</property>
  <property name="meta.media.sample_aspect_den">1</property>
  <property name="meta.media.frame_rate_num">60</property>
  <property name="meta.media.frame_rate_den">1</property>
  <property name="meta.media.colorspace">601</property>
  <property name="meta.media.color_trc">2</property>
  <property name="meta.media.width">640</property>
  <property name="meta.media.height">360</property>
  <property name="meta.media.color_range">mpeg</property>
  <property name="meta.media.top_field_first">0</property>
  <property name="meta.media.progressive">1</property>
  <property name="kdenlive:original.mlt_type">producer</property>
  <property name="kdenlive:original.in">0</property>
  <property name="kdenlive:original.out">59</property>
  <property name="kdenlive:original.length">60</property>
  <property name="kdenlive:original.eof">pause</property>
  <property name="kdenlive:original.resource">video/CliqueAndIndependentSet/5.mp4</property>
  <property name="kdenlive:original.meta.media.nb_streams">1</property>
  <property name="kdenlive:original.meta.media.0.stream.type">video</property>
  <property name="kdenlive:original.meta.media.0.stream.frame_rate">60</property>
  <property name="kdenlive:original.meta.media.0.stream.sample_aspect_ratio">0</property>
  <property name="kdenlive:original.meta.media.0.codec.width">3840</property>
  <property name="kdenlive:original.meta.media.0.codec.height">2160</property>
  <property name="kdenlive:original.meta.media.0.codec.rotate">0</property>
  <property name="kdenlive:original.meta.media.0.codec.frame_rate">60</property>
  <property name="kdenlive:original.meta.media.0.codec.pix_fmt">yuv420p</property>
  <property name="kdenlive:original.meta.media.0.codec.sample_aspect_ratio">0</property>
  <property name="kdenlive:original.meta.media.0.codec.colorspace">709</property>
  <property name="kdenlive:original.meta.media.0.codec.name">h264</property>
  <property name="kdenlive:original.meta.media.0.codec.long_name">H.264 / AVC / MPEG-4 AVC / MPEG-4 part 10</property>
  <property name="kdenlive:original.meta.media.0.codec.bit_rate">1193016</property>
  <property name="kdenlive:original.meta.attr.0.stream.handler_name.markup">VideoHandler</property>
  <property name="kdenlive:original.meta.attr.0.stream.vendor_id.markup">[0][0][0][0]</property>
  <property name="kdenlive:original.meta.attr.major_brand.markup">isom</property>
  <property name="kdenlive:original.meta.attr.minor_version.markup">512</property>
  <property name="kdenlive:original.meta.attr.compatible_brands.markup">isomiso2avc1mp41</property>
  <property name="kdenlive:original.meta.attr.encoder.markup">Lavf58.76.100</property>
  <property name="kdenlive:original.meta.attr.comment.markup">Rendered with Manim Community v0.6.0</property>
  <property name="kdenlive:original.seekable">1</property>
  <property name="kdenlive:original.width">3840</property>
  <property name="kdenlive:original.height">2160</property>
  <property name="kdenlive:original.meta.media.sample_aspect_num">1</property>
  <property name="kdenlive:original.meta.media.sample_aspect_den">1</property>
  <property name="kdenlive:original.aspect_ratio">1</property>
  <property name="kdenlive:original.audio_index">-1</property>
  <property name="kdenlive:original.video_index">0</property>
  <property name="kdenlive:original.mute_on_pause">1</property>
  <property name="kdenlive:original.mlt_service">avformat</property>
  <property name="kdenlive:original.meta.media.frame_rate_num">60</property>
  <property name="kdenlive:original.meta.media.frame_rate_den">1</property>
  <property name="kdenlive:original.meta.media.colorspace">709</property>
  <property name="kdenlive:original.meta.media.color_trc">2</property>
  <property name="kdenlive:original.meta.media.width">3840</property>
  <property name="kdenlive:original.meta.media.height">2160</property>
  <property name="kdenlive:original.meta.media.color_range">mpeg</property>
  <property name="kdenlive:original.meta.media.top_field_first">0</property>
  <property name="kdenlive:original.meta.media.progressive">1</property>
  <property name="kdenlive:original.backup">1</property>
 </producer>
 <producer id="producer109" in="00:00:00.000" out="00:00:04.983">
  <property name="length">00:00:05.000</property>
  <property name="eof">pause</property>
  <property name="resource">/home/xiaoxiae/.cache/kdenlive/proxy/1fe32f8089292e885b7405c536b0e551.png</property>
  <property name="ttl">25</property>
  <property name="aspect_ratio">1</property>
  <property name="progressive">1</property>
  <property name="seekable">1</property>
  <property name="meta.media.width">800</property>
  <property name="meta.media.height">450</property>
  <property name="mlt_service">qimage</property>
  <property name="kdenlive:clipname">5.png</property>
  <property name="kdenlive:duration">00:00:05.000</property>
  <property name="kdenlive:folderid">31</property>
  <property name="kdenlive:id">71</property>
  <property name="kdenlive:file_size">382093</property>
  <property name="kdenlive:file_hash">1fe32f8089292e885b7405c536b0e551</property>
  <property name="kdenlive:proxy">/home/xiaoxiae/.cache/kdenlive/proxy/1fe32f8089292e885b7405c536b0e551.png</property>
  <property name="kdenlive:originalurl">video/CliqueAndIndependentSet/5.png</property>
  <property name="global_feed">1</property>
 </producer>
 <producer id="producer110" in="00:00:00.000" out="00:00:00.983">
  <property name="length">60</property>
  <property name="eof">pause</property>
  <property name="resource">/home/xiaoxiae/.cache/kdenlive/proxy/4749e7bb42e9be4db1e7b625c8f25102.mkv</property>
  <property name="audio_index">-1</property>
  <property name="video_index">0</property>
  <property name="mute_on_pause">0</property>
  <property name="mlt_service">avformat-novalidate</property>
  <property name="seekable">1</property>
  <property name="aspect_ratio">1</property>
  <property name="kdenlive:clipname">6.mp4</property>
  <property name="kdenlive:folderid">31</property>
  <property name="kdenlive:id">72</property>
  <property name="kdenlive:file_size">114842</property>
  <property name="kdenlive:file_hash">4749e7bb42e9be4db1e7b625c8f25102</property>
  <property name="kdenlive:proxy">/home/xiaoxiae/.cache/kdenlive/proxy/4749e7bb42e9be4db1e7b625c8f25102.mkv</property>
  <property name="kdenlive:originalurl">video/CliqueAndIndependentSet/6.mp4</property>
  <property name="global_feed">1</property>
  <property name="meta.media.nb_streams">1</property>
  <property name="meta.media.0.stream.type">video</property>
  <property name="meta.media.0.stream.frame_rate">60</property>
  <property name="meta.media.0.stream.sample_aspect_ratio">0</property>
  <property name="meta.media.0.codec.width">640</property>
  <property name="meta.media.0.codec.height">360</property>
  <property name="meta.media.0.codec.rotate">0</property>
  <property name="meta.media.0.codec.frame_rate">60</property>
  <property name="meta.media.0.codec.pix_fmt">yuv420p</property>
  <property name="meta.media.0.codec.sample_aspect_ratio">0</property>
  <property name="meta.media.0.codec.colorspace">601</property>
  <property name="meta.media.0.codec.name">h264</property>
  <property name="meta.media.0.codec.long_name">H.264 / AVC / MPEG-4 AVC / MPEG-4 part 10</property>
  <property name="meta.media.0.codec.bit_rate">0</property>
  <property name="meta.attr.0.stream.HANDLER_NAME.markup">VideoHandler</property>
  <property name="meta.attr.0.stream.VENDOR_ID.markup">[0][0][0][0]</property>
  <property name="meta.attr.0.stream.ENCODER.markup">Lavc58.134.100 libx264</property>
  <property name="meta.attr.0.stream.DURATION.markup">00:00:01.000000000</property>
  <property name="meta.attr.COMMENT.markup">Rendered with Manim Community v0.6.0</property>
  <property name="meta.attr.MAJOR_BRAND.markup">isom</property>
  <property name="meta.attr.MINOR_VERSION.markup">512</property>
  <property name="meta.attr.COMPATIBLE_BRANDS.markup">isomiso2avc1mp41</property>
  <property name="meta.attr.ENCODER.markup">Lavf58.76.100</property>
  <property name="meta.media.sample_aspect_num">1</property>
  <property name="meta.media.sample_aspect_den">1</property>
  <property name="meta.media.frame_rate_num">60</property>
  <property name="meta.media.frame_rate_den">1</property>
  <property name="meta.media.colorspace">601</property>
  <property name="meta.media.color_trc">2</property>
  <property name="meta.media.width">640</property>
  <property name="meta.media.height">360</property>
  <property name="meta.media.color_range">mpeg</property>
  <property name="meta.media.top_field_first">0</property>
  <property name="meta.media.progressive">1</property>
  <property name="kdenlive:original.mlt_type">producer</property>
  <property name="kdenlive:original.in">0</property>
  <property name="kdenlive:original.out">59</property>
  <property name="kdenlive:original.length">60</property>
  <property name="kdenlive:original.eof">pause</property>
  <property name="kdenlive:original.resource">video/CliqueAndIndependentSet/6.mp4</property>
  <property name="kdenlive:original.meta.media.nb_streams">1</property>
  <property name="kdenlive:original.meta.media.0.stream.type">video</property>
  <property name="kdenlive:original.meta.media.0.stream.frame_rate">60</property>
  <property name="kdenlive:original.meta.media.0.stream.sample_aspect_ratio">0</property>
  <property name="kdenlive:original.meta.media.0.codec.width">3840</property>
  <property name="kdenlive:original.meta.media.0.codec.height">2160</property>
  <property name="kdenlive:original.meta.media.0.codec.rotate">0</property>
  <property name="kdenlive:original.meta.media.0.codec.frame_rate">60</property>
  <property name="kdenlive:original.meta.media.0.codec.pix_fmt">yuv420p</property>
  <property name="kdenlive:original.meta.media.0.codec.sample_aspect_ratio">0</property>
  <property name="kdenlive:original.meta.media.0.codec.colorspace">709</property>
  <property name="kdenlive:original.meta.media.0.codec.name">h264</property>
  <property name="kdenlive:original.meta.media.0.codec.long_name">H.264 / AVC / MPEG-4 AVC / MPEG-4 part 10</property>
  <property name="kdenlive:original.meta.media.0.codec.bit_rate">905688</property>
  <property name="kdenlive:original.meta.attr.0.stream.handler_name.markup">VideoHandler</property>
  <property name="kdenlive:original.meta.attr.0.stream.vendor_id.markup">[0][0][0][0]</property>
  <property name="kdenlive:original.meta.attr.major_brand.markup">isom</property>
  <property name="kdenlive:original.meta.attr.minor_version.markup">512</property>
  <property name="kdenlive:original.meta.attr.compatible_brands.markup">isomiso2avc1mp41</property>
  <property name="kdenlive:original.meta.attr.encoder.markup">Lavf58.76.100</property>
  <property name="kdenlive:original.meta.attr.comment.markup">Rendered with Manim Community v0.6.0</property>
  <property name="kdenlive:original.seekable">1</property>
  <property name="kdenlive:original.width">3840</property>
  <property name="kdenlive:original.height">2160</property>
  <property name="kdenlive:original.meta.media.sample_aspect_num">1</property>
  <property name="kdenlive:original.meta.media.sample_aspect_den">1</property>
  <property name="kdenlive:original.aspect_ratio">1</property>
  <property name="kdenlive:original.audio_index">-1</property>
  <property name="kdenlive:original.video_index">0</property>
  <property name="kdenlive:original.mute_on_pause">1</property>
  <property name="kdenlive:original.mlt_service">avformat</property>
  <property name="kdenlive:original.meta.media.frame_rate_num">60</property>
  <property name="kdenlive:original.meta.media.frame_rate_den">1</property>
  <property name="kdenlive:original.meta.media.colorspace">709</property>
  <property name="kdenlive:original.meta.media.color_trc">2</property>
  <property name="kdenlive:original.meta.media.width">3840</property>
  <property name="kdenlive:original.meta.media.height">2160</property>
  <property name="kdenlive:original.meta.media.color_range">mpeg</property>
  <property name="kdenlive:original.meta.media.top_field_first">0</property>
  <property name="kdenlive:original.meta.media.progressive">1</property>
  <property name="kdenlive:original.backup">1</property>
 </producer>
 <producer id="producer111" in="00:00:00.000" out="00:00:04.983">
  <property name="length">00:00:05.000</property>
  <property name="eof">pause</property>
  <property name="resource">/home/xiaoxiae/.cache/kdenlive/proxy/ddf2dd8ba394e08baf72be1e6001dd5f.png</property>
  <property name="ttl">25</property>
  <property name="aspect_ratio">1</property>
  <property name="progressive">1</property>
  <property name="seekable">1</property>
  <property name="meta.media.width">800</property>
  <property name="meta.media.height">450</property>
  <property name="mlt_service">qimage</property>
  <property name="kdenlive:clipname">6.png</property>
  <property name="kdenlive:duration">00:00:05.000</property>
  <property name="kdenlive:folderid">31</property>
  <property name="kdenlive:id">73</property>
  <property name="kdenlive:file_size">371486</property>
  <property name="kdenlive:file_hash">ddf2dd8ba394e08baf72be1e6001dd5f</property>
  <property name="kdenlive:proxy">/home/xiaoxiae/.cache/kdenlive/proxy/ddf2dd8ba394e08baf72be1e6001dd5f.png</property>
  <property name="kdenlive:originalurl">video/CliqueAndIndependentSet/6.png</property>
  <property name="global_feed">1</property>
 </producer>
 <producer id="producer112" in="00:00:00.000" out="00:00:00.983">
  <property name="length">60</property>
  <property name="eof">pause</property>
  <property name="resource">/home/xiaoxiae/.cache/kdenlive/proxy/704de4ef4ec2fc9678c2fc9c192e7422.mkv</property>
  <property name="audio_index">-1</property>
  <property name="video_index">0</property>
  <property name="mute_on_pause">0</property>
  <property name="mlt_service">avformat-novalidate</property>
  <property name="seekable">1</property>
  <property name="aspect_ratio">1</property>
  <property name="kdenlive:clipname">7.mp4</property>
  <property name="kdenlive:folderid">31</property>
  <property name="kdenlive:id">74</property>
  <property name="kdenlive:file_size">129474</property>
  <property name="kdenlive:file_hash">704de4ef4ec2fc9678c2fc9c192e7422</property>
  <property name="kdenlive:proxy">/home/xiaoxiae/.cache/kdenlive/proxy/704de4ef4ec2fc9678c2fc9c192e7422.mkv</property>
  <property name="kdenlive:originalurl">video/CliqueAndIndependentSet/7.mp4</property>
  <property name="global_feed">1</property>
  <property name="meta.media.nb_streams">1</property>
  <property name="meta.media.0.stream.type">video</property>
  <property name="meta.media.0.stream.frame_rate">60</property>
  <property name="meta.media.0.stream.sample_aspect_ratio">0</property>
  <property name="meta.media.0.codec.width">640</property>
  <property name="meta.media.0.codec.height">360</property>
  <property name="meta.media.0.codec.rotate">0</property>
  <property name="meta.media.0.codec.frame_rate">60</property>
  <property name="meta.media.0.codec.pix_fmt">yuv420p</property>
  <property name="meta.media.0.codec.sample_aspect_ratio">0</property>
  <property name="meta.media.0.codec.colorspace">601</property>
  <property name="meta.media.0.codec.name">h264</property>
  <property name="meta.media.0.codec.long_name">H.264 / AVC / MPEG-4 AVC / MPEG-4 part 10</property>
  <property name="meta.media.0.codec.bit_rate">0</property>
  <property name="meta.attr.0.stream.HANDLER_NAME.markup">VideoHandler</property>
  <property name="meta.attr.0.stream.VENDOR_ID.markup">[0][0][0][0]</property>
  <property name="meta.attr.0.stream.ENCODER.markup">Lavc58.134.100 libx264</property>
  <property name="meta.attr.0.stream.DURATION.markup">00:00:01.000000000</property>
  <property name="meta.attr.COMMENT.markup">Rendered with Manim Community v0.6.0</property>
  <property name="meta.attr.MAJOR_BRAND.markup">isom</property>
  <property name="meta.attr.MINOR_VERSION.markup">512</property>
  <property name="meta.attr.COMPATIBLE_BRANDS.markup">isomiso2avc1mp41</property>
  <property name="meta.attr.ENCODER.markup">Lavf58.76.100</property>
  <property name="meta.media.sample_aspect_num">1</property>
  <property name="meta.media.sample_aspect_den">1</property>
  <property name="meta.media.frame_rate_num">60</property>
  <property name="meta.media.frame_rate_den">1</property>
  <property name="meta.media.colorspace">601</property>
  <property name="meta.media.color_trc">2</property>
  <property name="meta.media.width">640</property>
  <property name="meta.media.height">360</property>
  <property name="meta.media.color_range">mpeg</property>
  <property name="meta.media.top_field_first">0</property>
  <property name="meta.media.progressive">1</property>
  <property name="kdenlive:original.mlt_type">producer</property>
  <property name="kdenlive:original.in">0</property>
  <property name="kdenlive:original.out">59</property>
  <property name="kdenlive:original.length">60</property>
  <property name="kdenlive:original.eof">pause</property>
  <property name="kdenlive:original.resource">video/CliqueAndIndependentSet/7.mp4</property>
  <property name="kdenlive:original.meta.media.nb_streams">1</property>
  <property name="kdenlive:original.meta.media.0.stream.type">video</property>
  <property name="kdenlive:original.meta.media.0.stream.frame_rate">60</property>
  <property name="kdenlive:original.meta.media.0.stream.sample_aspect_ratio">0</property>
  <property name="kdenlive:original.meta.media.0.codec.width">3840</property>
  <property name="kdenlive:original.meta.media.0.codec.height">2160</property>
  <property name="kdenlive:original.meta.media.0.codec.rotate">0</property>
  <property name="kdenlive:original.meta.media.0.codec.frame_rate">60</property>
  <property name="kdenlive:original.meta.media.0.codec.pix_fmt">yuv420p</property>
  <property name="kdenlive:original.meta.media.0.codec.sample_aspect_ratio">0</property>
  <property name="kdenlive:original.meta.media.0.codec.colorspace">709</property>
  <property name="kdenlive:original.meta.media.0.codec.name">h264</property>
  <property name="kdenlive:original.meta.media.0.codec.long_name">H.264 / AVC / MPEG-4 AVC / MPEG-4 part 10</property>
  <property name="kdenlive:original.meta.media.0.codec.bit_rate">1022744</property>
  <property name="kdenlive:original.meta.attr.0.stream.handler_name.markup">VideoHandler</property>
  <property name="kdenlive:original.meta.attr.0.stream.vendor_id.markup">[0][0][0][0]</property>
  <property name="kdenlive:original.meta.attr.major_brand.markup">isom</property>
  <property name="kdenlive:original.meta.attr.minor_version.markup">512</property>
  <property name="kdenlive:original.meta.attr.compatible_brands.markup">isomiso2avc1mp41</property>
  <property name="kdenlive:original.meta.attr.encoder.markup">Lavf58.76.100</property>
  <property name="kdenlive:original.meta.attr.comment.markup">Rendered with Manim Community v0.6.0</property>
  <property name="kdenlive:original.seekable">1</property>
  <property name="kdenlive:original.width">3840</property>
  <property name="kdenlive:original.height">2160</property>
  <property name="kdenlive:original.meta.media.sample_aspect_num">1</property>
  <property name="kdenlive:original.meta.media.sample_aspect_den">1</property>
  <property name="kdenlive:original.aspect_ratio">1</property>
  <property name="kdenlive:original.audio_index">-1</property>
  <property name="kdenlive:original.video_index">0</property>
  <property name="kdenlive:original.mute_on_pause">1</property>
  <property name="kdenlive:original.mlt_service">avformat</property>
  <property name="kdenlive:original.meta.media.frame_rate_num">60</property>
  <property name="kdenlive:original.meta.media.frame_rate_den">1</property>
  <property name="kdenlive:original.meta.media.colorspace">709</property>
  <property name="kdenlive:original.meta.media.color_trc">2</property>
  <property name="kdenlive:original.meta.media.width">3840</property>
  <property name="kdenlive:original.meta.media.height">2160</property>
  <property name="kdenlive:original.meta.media.color_range">mpeg</property>
  <property name="kdenlive:original.meta.media.top_field_first">0</property>
  <property name="kdenlive:original.meta.media.progressive">1</property>
  <property name="kdenlive:original.backup">1</property>
 </producer>
 <producer id="producer113" in="00:00:00.000" out="00:00:04.983">
  <property name="length">00:00:05.000</property>
  <property name="eof">pause</property>
  <property name="resource">/home/xiaoxiae/.cache/kdenlive/proxy/04b317203fb62306f1c34eec2323278a.png</property>
  <property name="ttl">25</property>
  <property name="aspect_ratio">1</property>
  <property name="progressive">1</property>
  <property name="seekable">1</property>
  <property name="meta.media.width">800</property>
  <property name="meta.media.height">450</property>
  <property name="mlt_service">qimage</property>
  <property name="kdenlive:clipname">7.png</property>
  <property name="kdenlive:duration">00:00:05.000</property>
  <property name="kdenlive:folderid">31</property>
  <property name="kdenlive:id">75</property>
  <property name="kdenlive:file_size">395827</property>
  <property name="kdenlive:file_hash">04b317203fb62306f1c34eec2323278a</property>
  <property name="kdenlive:proxy">/home/xiaoxiae/.cache/kdenlive/proxy/04b317203fb62306f1c34eec2323278a.png</property>
  <property name="kdenlive:originalurl">video/CliqueAndIndependentSet/7.png</property>
  <property name="global_feed">1</property>
 </producer>
 <producer id="producer115" in="00:00:00.000" out="00:00:00.983">
  <property name="length">60</property>
  <property name="eof">pause</property>
  <property name="resource">/home/xiaoxiae/.cache/kdenlive/proxy/3656ca048662848ff8c19bf575fd58fc.mkv</property>
  <property name="audio_index">-1</property>
  <property name="video_index">0</property>
  <property name="mute_on_pause">0</property>
  <property name="mlt_service">avformat-novalidate</property>
  <property name="seekable">1</property>
  <property name="aspect_ratio">1</property>
  <property name="kdenlive:clipname">8.mp4</property>
  <property name="kdenlive:folderid">31</property>
  <property name="kdenlive:id">76</property>
  <property name="kdenlive:file_size">142080</property>
  <property name="kdenlive:file_hash">3656ca048662848ff8c19bf575fd58fc</property>
  <property name="kdenlive:proxy">/home/xiaoxiae/.cache/kdenlive/proxy/3656ca048662848ff8c19bf575fd58fc.mkv</property>
  <property name="kdenlive:originalurl">video/CliqueAndIndependentSet/8.mp4</property>
  <property name="global_feed">1</property>
  <property name="meta.media.nb_streams">1</property>
  <property name="meta.media.0.stream.type">video</property>
  <property name="meta.media.0.stream.frame_rate">60</property>
  <property name="meta.media.0.stream.sample_aspect_ratio">0</property>
  <property name="meta.media.0.codec.width">640</property>
  <property name="meta.media.0.codec.height">360</property>
  <property name="meta.media.0.codec.rotate">0</property>
  <property name="meta.media.0.codec.frame_rate">60</property>
  <property name="meta.media.0.codec.pix_fmt">yuv420p</property>
  <property name="meta.media.0.codec.sample_aspect_ratio">0</property>
  <property name="meta.media.0.codec.colorspace">601</property>
  <property name="meta.media.0.codec.name">h264</property>
  <property name="meta.media.0.codec.long_name">H.264 / AVC / MPEG-4 AVC / MPEG-4 part 10</property>
  <property name="meta.media.0.codec.bit_rate">0</property>
  <property name="meta.attr.0.stream.HANDLER_NAME.markup">VideoHandler</property>
  <property name="meta.attr.0.stream.VENDOR_ID.markup">[0][0][0][0]</property>
  <property name="meta.attr.0.stream.ENCODER.markup">Lavc58.134.100 libx264</property>
  <property name="meta.attr.0.stream.DURATION.markup">00:00:01.000000000</property>
  <property name="meta.attr.COMMENT.markup">Rendered with Manim Community v0.6.0</property>
  <property name="meta.attr.MAJOR_BRAND.markup">isom</property>
  <property name="meta.attr.MINOR_VERSION.markup">512</property>
  <property name="meta.attr.COMPATIBLE_BRANDS.markup">isomiso2avc1mp41</property>
  <property name="meta.attr.ENCODER.markup">Lavf58.76.100</property>
  <property name="meta.media.sample_aspect_num">1</property>
  <property name="meta.media.sample_aspect_den">1</property>
  <property name="meta.media.frame_rate_num">60</property>
  <property name="meta.media.frame_rate_den">1</property>
  <property name="meta.media.colorspace">601</property>
  <property name="meta.media.color_trc">2</property>
  <property name="meta.media.width">640</property>
  <property name="meta.media.height">360</property>
  <property name="meta.media.color_range">mpeg</property>
  <property name="meta.media.top_field_first">0</property>
  <property name="meta.media.progressive">1</property>
  <property name="kdenlive:original.mlt_type">producer</property>
  <property name="kdenlive:original.in">0</property>
  <property name="kdenlive:original.out">59</property>
  <property name="kdenlive:original.length">60</property>
  <property name="kdenlive:original.eof">pause</property>
  <property name="kdenlive:original.resource">video/CliqueAndIndependentSet/8.mp4</property>
  <property name="kdenlive:original.meta.media.nb_streams">1</property>
  <property name="kdenlive:original.meta.media.0.stream.type">video</property>
  <property name="kdenlive:original.meta.media.0.stream.frame_rate">60</property>
  <property name="kdenlive:original.meta.media.0.stream.sample_aspect_ratio">0</property>
  <property name="kdenlive:original.meta.media.0.codec.width">3840</property>
  <property name="kdenlive:original.meta.media.0.codec.height">2160</property>
  <property name="kdenlive:original.meta.media.0.codec.rotate">0</property>
  <property name="kdenlive:original.meta.media.0.codec.frame_rate">60</property>
  <property name="kdenlive:original.meta.media.0.codec.pix_fmt">yuv420p</property>
  <property name="kdenlive:original.meta.media.0.codec.sample_aspect_ratio">0</property>
  <property name="kdenlive:original.meta.media.0.codec.colorspace">709</property>
  <property name="kdenlive:original.meta.media.0.codec.name">h264</property>
  <property name="kdenlive:original.meta.media.0.codec.long_name">H.264 / AVC / MPEG-4 AVC / MPEG-4 part 10</property>
  <property name="kdenlive:original.meta.media.0.codec.bit_rate">1123592</property>
  <property name="kdenlive:original.meta.attr.0.stream.handler_name.markup">VideoHandler</property>
  <property name="kdenlive:original.meta.attr.0.stream.vendor_id.markup">[0][0][0][0]</property>
  <property name="kdenlive:original.meta.attr.major_brand.markup">isom</property>
  <property name="kdenlive:original.meta.attr.minor_version.markup">512</property>
  <property name="kdenlive:original.meta.attr.compatible_brands.markup">isomiso2avc1mp41</property>
  <property name="kdenlive:original.meta.attr.encoder.markup">Lavf58.76.100</property>
  <property name="kdenlive:original.meta.attr.comment.markup">Rendered with Manim Community v0.6.0</property>
  <property name="kdenlive:original.seekable">1</property>
  <property name="kdenlive:original.width">3840</property>
  <property name="kdenlive:original.height">2160</property>
  <property name="kdenlive:original.meta.media.sample_aspect_num">1</property>
  <property name="kdenlive:original.meta.media.sample_aspect_den">1</property>
  <property name="kdenlive:original.aspect_ratio">1</property>
  <property name="kdenlive:original.audio_index">-1</property>
  <property name="kdenlive:original.video_index">0</property>
  <property name="kdenlive:original.mute_on_pause">1</property>
  <property name="kdenlive:original.mlt_service">avformat</property>
  <property name="kdenlive:original.meta.media.frame_rate_num">60</property>
  <property name="kdenlive:original.meta.media.frame_rate_den">1</property>
  <property name="kdenlive:original.meta.media.colorspace">709</property>
  <property name="kdenlive:original.meta.media.color_trc">2</property>
  <property name="kdenlive:original.meta.media.width">3840</property>
  <property name="kdenlive:original.meta.media.height">2160</property>
  <property name="kdenlive:original.meta.media.color_range">mpeg</property>
  <property name="kdenlive:original.meta.media.top_field_first">0</property>
  <property name="kdenlive:original.meta.media.progressive">1</property>
  <property name="kdenlive:original.backup">1</property>
 </producer>
 <producer id="producer114" in="00:00:00.000" out="00:00:04.983">
  <property name="length">00:00:05.000</property>
  <property name="eof">pause</property>
  <property name="resource">/home/xiaoxiae/.cache/kdenlive/proxy/c90faf436f11afe24c0b72bd62604837.png</property>
  <property name="ttl">25</property>
  <property name="aspect_ratio">1</property>
  <property name="progressive">1</property>
  <property name="seekable">1</property>
  <property name="meta.media.width">800</property>
  <property name="meta.media.height">450</property>
  <property name="mlt_service">qimage</property>
  <property name="kdenlive:clipname">8.png</property>
  <property name="kdenlive:duration">00:00:05.000</property>
  <property name="kdenlive:folderid">31</property>
  <property name="kdenlive:id">77</property>
  <property name="kdenlive:file_size">418934</property>
  <property name="kdenlive:file_hash">c90faf436f11afe24c0b72bd62604837</property>
  <property name="kdenlive:proxy">/home/xiaoxiae/.cache/kdenlive/proxy/c90faf436f11afe24c0b72bd62604837.png</property>
  <property name="kdenlive:originalurl">video/CliqueAndIndependentSet/8.png</property>
  <property name="global_feed">1</property>
 </producer>
 <producer id="producer120" in="00:00:00.000" out="00:00:03.433">
  <property name="length">207</property>
  <property name="eof">pause</property>
  <property name="resource">/home/xiaoxiae/.cache/kdenlive/proxy/d7cd7f0d005a732638e91d14d2ec9b24.mkv</property>
  <property name="audio_index">-1</property>
  <property name="video_index">0</property>
  <property name="mute_on_pause">0</property>
  <property name="mlt_service">avformat-novalidate</property>
  <property name="seekable">1</property>
  <property name="aspect_ratio">1</property>
  <property name="kdenlive:clipname">9.mp4</property>
  <property name="kdenlive:folderid">31</property>
  <property name="kdenlive:id">78</property>
  <property name="kdenlive:file_size">434699</property>
  <property name="kdenlive:file_hash">d7cd7f0d005a732638e91d14d2ec9b24</property>
  <property name="kdenlive:proxy">/home/xiaoxiae/.cache/kdenlive/proxy/d7cd7f0d005a732638e91d14d2ec9b24.mkv</property>
  <property name="kdenlive:originalurl">video/CliqueAndIndependentSet/9.mp4</property>
  <property name="global_feed">1</property>
  <property name="meta.media.nb_streams">1</property>
  <property name="meta.media.0.stream.type">video</property>
  <property name="meta.media.0.stream.frame_rate">60</property>
  <property name="meta.media.0.stream.sample_aspect_ratio">0</property>
  <property name="meta.media.0.codec.width">640</property>
  <property name="meta.media.0.codec.height">360</property>
  <property name="meta.media.0.codec.rotate">0</property>
  <property name="meta.media.0.codec.frame_rate">60</property>
  <property name="meta.media.0.codec.pix_fmt">yuv420p</property>
  <property name="meta.media.0.codec.sample_aspect_ratio">0</property>
  <property name="meta.media.0.codec.colorspace">601</property>
  <property name="meta.media.0.codec.name">h264</property>
  <property name="meta.media.0.codec.long_name">H.264 / AVC / MPEG-4 AVC / MPEG-4 part 10</property>
  <property name="meta.media.0.codec.bit_rate">0</property>
  <property name="meta.attr.0.stream.HANDLER_NAME.markup">VideoHandler</property>
  <property name="meta.attr.0.stream.VENDOR_ID.markup">[0][0][0][0]</property>
  <property name="meta.attr.0.stream.ENCODER.markup">Lavc58.134.100 libx264</property>
  <property name="meta.attr.0.stream.DURATION.markup">00:00:03.450000000</property>
  <property name="meta.attr.COMMENT.markup">Rendered with Manim Community v0.6.0</property>
  <property name="meta.attr.MAJOR_BRAND.markup">isom</property>
  <property name="meta.attr.MINOR_VERSION.markup">512</property>
  <property name="meta.attr.COMPATIBLE_BRANDS.markup">isomiso2avc1mp41</property>
  <property name="meta.attr.ENCODER.markup">Lavf58.76.100</property>
  <property name="meta.media.sample_aspect_num">1</property>
  <property name="meta.media.sample_aspect_den">1</property>
  <property name="meta.media.frame_rate_num">60</property>
  <property name="meta.media.frame_rate_den">1</property>
  <property name="meta.media.colorspace">601</property>
  <property name="meta.media.color_trc">2</property>
  <property name="meta.media.width">640</property>
  <property name="meta.media.height">360</property>
  <property name="meta.media.color_range">mpeg</property>
  <property name="meta.media.top_field_first">0</property>
  <property name="meta.media.progressive">1</property>
  <property name="kdenlive:original.mlt_type">producer</property>
  <property name="kdenlive:original.in">0</property>
  <property name="kdenlive:original.out">206</property>
  <property name="kdenlive:original.length">207</property>
  <property name="kdenlive:original.eof">pause</property>
  <property name="kdenlive:original.resource">video/CliqueAndIndependentSet/9.mp4</property>
  <property name="kdenlive:original.meta.media.nb_streams">1</property>
  <property name="kdenlive:original.meta.media.0.stream.type">video</property>
  <property name="kdenlive:original.meta.media.0.stream.frame_rate">60</property>
  <property name="kdenlive:original.meta.media.0.stream.sample_aspect_ratio">0</property>
  <property name="kdenlive:original.meta.media.0.codec.width">3840</property>
  <property name="kdenlive:original.meta.media.0.codec.height">2160</property>
  <property name="kdenlive:original.meta.media.0.codec.rotate">0</property>
  <property name="kdenlive:original.meta.media.0.codec.frame_rate">60</property>
  <property name="kdenlive:original.meta.media.0.codec.pix_fmt">yuv420p</property>
  <property name="kdenlive:original.meta.media.0.codec.sample_aspect_ratio">0</property>
  <property name="kdenlive:original.meta.media.0.codec.colorspace">709</property>
  <property name="kdenlive:original.meta.media.0.codec.name">h264</property>
  <property name="kdenlive:original.meta.media.0.codec.long_name">H.264 / AVC / MPEG-4 AVC / MPEG-4 part 10</property>
  <property name="kdenlive:original.meta.media.0.codec.bit_rate">1000106</property>
  <property name="kdenlive:original.meta.attr.0.stream.handler_name.markup">VideoHandler</property>
  <property name="kdenlive:original.meta.attr.0.stream.vendor_id.markup">[0][0][0][0]</property>
  <property name="kdenlive:original.meta.attr.major_brand.markup">isom</property>
  <property name="kdenlive:original.meta.attr.minor_version.markup">512</property>
  <property name="kdenlive:original.meta.attr.compatible_brands.markup">isomiso2avc1mp41</property>
  <property name="kdenlive:original.meta.attr.encoder.markup">Lavf58.76.100</property>
  <property name="kdenlive:original.meta.attr.comment.markup">Rendered with Manim Community v0.6.0</property>
  <property name="kdenlive:original.seekable">1</property>
  <property name="kdenlive:original.width">3840</property>
  <property name="kdenlive:original.height">2160</property>
  <property name="kdenlive:original.meta.media.sample_aspect_num">1</property>
  <property name="kdenlive:original.meta.media.sample_aspect_den">1</property>
  <property name="kdenlive:original.aspect_ratio">1</property>
  <property name="kdenlive:original.audio_index">-1</property>
  <property name="kdenlive:original.video_index">0</property>
  <property name="kdenlive:original.mute_on_pause">1</property>
  <property name="kdenlive:original.mlt_service">avformat</property>
  <property name="kdenlive:original.meta.media.frame_rate_num">60</property>
  <property name="kdenlive:original.meta.media.frame_rate_den">1</property>
  <property name="kdenlive:original.meta.media.colorspace">709</property>
  <property name="kdenlive:original.meta.media.color_trc">2</property>
  <property name="kdenlive:original.meta.media.width">3840</property>
  <property name="kdenlive:original.meta.media.height">2160</property>
  <property name="kdenlive:original.meta.media.color_range">mpeg</property>
  <property name="kdenlive:original.meta.media.top_field_first">0</property>
  <property name="kdenlive:original.meta.media.progressive">1</property>
  <property name="kdenlive:original.backup">1</property>
 </producer>
 <producer id="producer117" in="00:00:00.000" out="00:00:04.983">
  <property name="length">00:00:05.000</property>
  <property name="eof">pause</property>
  <property name="resource">/home/xiaoxiae/.cache/kdenlive/proxy/a09cb95a66d80a97306426c109f0a1ac.png</property>
  <property name="ttl">25</property>
  <property name="aspect_ratio">1</property>
  <property name="progressive">1</property>
  <property name="seekable">1</property>
  <property name="meta.media.width">800</property>
  <property name="meta.media.height">450</property>
  <property name="mlt_service">qimage</property>
  <property name="kdenlive:clipname">9.png</property>
  <property name="kdenlive:duration">00:00:05.000</property>
  <property name="kdenlive:folderid">31</property>
  <property name="kdenlive:id">79</property>
  <property name="kdenlive:file_size">638113</property>
  <property name="kdenlive:file_hash">a09cb95a66d80a97306426c109f0a1ac</property>
  <property name="kdenlive:proxy">/home/xiaoxiae/.cache/kdenlive/proxy/a09cb95a66d80a97306426c109f0a1ac.png</property>
  <property name="kdenlive:originalurl">video/CliqueAndIndependentSet/9.png</property>
  <property name="global_feed">1</property>
 </producer>
 <producer id="producer116" in="00:00:00.000" out="00:00:01.983">
  <property name="length">120</property>
  <property name="eof">pause</property>
  <property name="resource">/home/xiaoxiae/.cache/kdenlive/proxy/0e47773184fcfaaf1c34c8cb94aa8f9c.mkv</property>
  <property name="audio_index">-1</property>
  <property name="video_index">0</property>
  <property name="mute_on_pause">0</property>
  <property name="mlt_service">avformat-novalidate</property>
  <property name="seekable">1</property>
  <property name="aspect_ratio">1</property>
  <property name="kdenlive:clipname">1.mp4</property>
  <property name="kdenlive:folderid">80</property>
  <property name="kdenlive:id">81</property>
  <property name="kdenlive:file_size">110937</property>
  <property name="kdenlive:file_hash">0e47773184fcfaaf1c34c8cb94aa8f9c</property>
  <property name="kdenlive:proxy">/home/xiaoxiae/.cache/kdenlive/proxy/0e47773184fcfaaf1c34c8cb94aa8f9c.mkv</property>
  <property name="kdenlive:originalurl">video/Complement/1.mp4</property>
  <property name="global_feed">1</property>
  <property name="meta.media.nb_streams">1</property>
  <property name="meta.media.0.stream.type">video</property>
  <property name="meta.media.0.stream.frame_rate">60</property>
  <property name="meta.media.0.stream.sample_aspect_ratio">0</property>
  <property name="meta.media.0.codec.width">640</property>
  <property name="meta.media.0.codec.height">360</property>
  <property name="meta.media.0.codec.rotate">0</property>
  <property name="meta.media.0.codec.frame_rate">60</property>
  <property name="meta.media.0.codec.pix_fmt">yuv420p</property>
  <property name="meta.media.0.codec.sample_aspect_ratio">0</property>
  <property name="meta.media.0.codec.colorspace">601</property>
  <property name="meta.media.0.codec.name">h264</property>
  <property name="meta.media.0.codec.long_name">H.264 / AVC / MPEG-4 AVC / MPEG-4 part 10</property>
  <property name="meta.media.0.codec.bit_rate">0</property>
  <property name="meta.attr.0.stream.HANDLER_NAME.markup">VideoHandler</property>
  <property name="meta.attr.0.stream.VENDOR_ID.markup">[0][0][0][0]</property>
  <property name="meta.attr.0.stream.ENCODER.markup">Lavc58.134.100 libx264</property>
  <property name="meta.attr.0.stream.DURATION.markup">00:00:02.000000000</property>
  <property name="meta.attr.COMMENT.markup">Rendered with Manim Community v0.6.0</property>
  <property name="meta.attr.MAJOR_BRAND.markup">isom</property>
  <property name="meta.attr.MINOR_VERSION.markup">512</property>
  <property name="meta.attr.COMPATIBLE_BRANDS.markup">isomiso2avc1mp41</property>
  <property name="meta.attr.ENCODER.markup">Lavf58.76.100</property>
  <property name="meta.media.sample_aspect_num">1</property>
  <property name="meta.media.sample_aspect_den">1</property>
  <property name="meta.media.frame_rate_num">60</property>
  <property name="meta.media.frame_rate_den">1</property>
  <property name="meta.media.colorspace">601</property>
  <property name="meta.media.color_trc">2</property>
  <property name="meta.media.width">640</property>
  <property name="meta.media.height">360</property>
  <property name="meta.media.color_range">mpeg</property>
  <property name="meta.media.top_field_first">0</property>
  <property name="meta.media.progressive">1</property>
  <property name="kdenlive:original.mlt_type">producer</property>
  <property name="kdenlive:original.in">0</property>
  <property name="kdenlive:original.out">119</property>
  <property name="kdenlive:original.length">120</property>
  <property name="kdenlive:original.eof">pause</property>
  <property name="kdenlive:original.resource">video/Complement/1.mp4</property>
  <property name="kdenlive:original.meta.media.nb_streams">1</property>
  <property name="kdenlive:original.meta.media.0.stream.type">video</property>
  <property name="kdenlive:original.meta.media.0.stream.frame_rate">60</property>
  <property name="kdenlive:original.meta.media.0.stream.sample_aspect_ratio">0</property>
  <property name="kdenlive:original.meta.media.0.codec.width">3840</property>
  <property name="kdenlive:original.meta.media.0.codec.height">2160</property>
  <property name="kdenlive:original.meta.media.0.codec.rotate">0</property>
  <property name="kdenlive:original.meta.media.0.codec.frame_rate">60</property>
  <property name="kdenlive:original.meta.media.0.codec.pix_fmt">yuv420p</property>
  <property name="kdenlive:original.meta.media.0.codec.sample_aspect_ratio">0</property>
  <property name="kdenlive:original.meta.media.0.codec.colorspace">709</property>
  <property name="kdenlive:original.meta.media.0.codec.name">h264</property>
  <property name="kdenlive:original.meta.media.0.codec.long_name">H.264 / AVC / MPEG-4 AVC / MPEG-4 part 10</property>
  <property name="kdenlive:original.meta.media.0.codec.bit_rate">434344</property>
  <property name="kdenlive:original.meta.attr.0.stream.handler_name.markup">VideoHandler</property>
  <property name="kdenlive:original.meta.attr.0.stream.vendor_id.markup">[0][0][0][0]</property>
  <property name="kdenlive:original.meta.attr.major_brand.markup">isom</property>
  <property name="kdenlive:original.meta.attr.minor_version.markup">512</property>
  <property name="kdenlive:original.meta.attr.compatible_brands.markup">isomiso2avc1mp41</property>
  <property name="kdenlive:original.meta.attr.encoder.markup">Lavf58.76.100</property>
  <property name="kdenlive:original.meta.attr.comment.markup">Rendered with Manim Community v0.6.0</property>
  <property name="kdenlive:original.seekable">1</property>
  <property name="kdenlive:original.width">3840</property>
  <property name="kdenlive:original.height">2160</property>
  <property name="kdenlive:original.meta.media.sample_aspect_num">1</property>
  <property name="kdenlive:original.meta.media.sample_aspect_den">1</property>
  <property name="kdenlive:original.aspect_ratio">1</property>
  <property name="kdenlive:original.audio_index">-1</property>
  <property name="kdenlive:original.video_index">0</property>
  <property name="kdenlive:original.mute_on_pause">1</property>
  <property name="kdenlive:original.mlt_service">avformat</property>
  <property name="kdenlive:original.meta.media.frame_rate_num">60</property>
  <property name="kdenlive:original.meta.media.frame_rate_den">1</property>
  <property name="kdenlive:original.meta.media.colorspace">709</property>
  <property name="kdenlive:original.meta.media.color_trc">2</property>
  <property name="kdenlive:original.meta.media.width">3840</property>
  <property name="kdenlive:original.meta.media.height">2160</property>
  <property name="kdenlive:original.meta.media.color_range">mpeg</property>
  <property name="kdenlive:original.meta.media.top_field_first">0</property>
  <property name="kdenlive:original.meta.media.progressive">1</property>
  <property name="kdenlive:original.backup">1</property>
 </producer>
 <producer id="producer119" in="00:00:00.000" out="00:00:04.983">
  <property name="length">00:00:05.000</property>
  <property name="eof">pause</property>
  <property name="resource">/home/xiaoxiae/.cache/kdenlive/proxy/af09edccd742b0f8260a1d40e64cd108.png</property>
  <property name="ttl">25</property>
  <property name="aspect_ratio">1</property>
  <property name="progressive">1</property>
  <property name="seekable">1</property>
  <property name="meta.media.width">800</property>
  <property name="meta.media.height">450</property>
  <property name="mlt_service">qimage</property>
  <property name="kdenlive:clipname">1.png</property>
  <property name="kdenlive:duration">00:00:05.000</property>
  <property name="kdenlive:folderid">80</property>
  <property name="kdenlive:id">82</property>
  <property name="kdenlive:file_size">92299</property>
  <property name="kdenlive:file_hash">af09edccd742b0f8260a1d40e64cd108</property>
  <property name="kdenlive:proxy">/home/xiaoxiae/.cache/kdenlive/proxy/af09edccd742b0f8260a1d40e64cd108.png</property>
  <property name="kdenlive:originalurl">video/Complement/1.png</property>
  <property name="global_feed">1</property>
 </producer>
 <producer id="producer118" in="00:00:00.000" out="00:00:00.983">
  <property name="length">60</property>
  <property name="eof">pause</property>
  <property name="resource">/home/xiaoxiae/.cache/kdenlive/proxy/27c9b7eb82a9a4a682f01635a9ea8536.mkv</property>
  <property name="audio_index">-1</property>
  <property name="video_index">0</property>
  <property name="mute_on_pause">0</property>
  <property name="mlt_service">avformat-novalidate</property>
  <property name="seekable">1</property>
  <property name="aspect_ratio">1</property>
  <property name="kdenlive:clipname">2.mp4</property>
  <property name="kdenlive:folderid">80</property>
  <property name="kdenlive:id">83</property>
  <property name="kdenlive:file_size">80158</property>
  <property name="kdenlive:file_hash">27c9b7eb82a9a4a682f01635a9ea8536</property>
  <property name="kdenlive:proxy">/home/xiaoxiae/.cache/kdenlive/proxy/27c9b7eb82a9a4a682f01635a9ea8536.mkv</property>
  <property name="kdenlive:originalurl">video/Complement/2.mp4</property>
  <property name="global_feed">1</property>
  <property name="meta.media.nb_streams">1</property>
  <property name="meta.media.0.stream.type">video</property>
  <property name="meta.media.0.stream.frame_rate">60</property>
  <property name="meta.media.0.stream.sample_aspect_ratio">0</property>
  <property name="meta.media.0.codec.width">640</property>
  <property name="meta.media.0.codec.height">360</property>
  <property name="meta.media.0.codec.rotate">0</property>
  <property name="meta.media.0.codec.frame_rate">60</property>
  <property name="meta.media.0.codec.pix_fmt">yuv420p</property>
  <property name="meta.media.0.codec.sample_aspect_ratio">0</property>
  <property name="meta.media.0.codec.colorspace">601</property>
  <property name="meta.media.0.codec.name">h264</property>
  <property name="meta.media.0.codec.long_name">H.264 / AVC / MPEG-4 AVC / MPEG-4 part 10</property>
  <property name="meta.media.0.codec.bit_rate">0</property>
  <property name="meta.attr.0.stream.HANDLER_NAME.markup">VideoHandler</property>
  <property name="meta.attr.0.stream.VENDOR_ID.markup">[0][0][0][0]</property>
  <property name="meta.attr.0.stream.ENCODER.markup">Lavc58.134.100 libx264</property>
  <property name="meta.attr.0.stream.DURATION.markup">00:00:01.000000000</property>
  <property name="meta.attr.COMMENT.markup">Rendered with Manim Community v0.6.0</property>
  <property name="meta.attr.MAJOR_BRAND.markup">isom</property>
  <property name="meta.attr.MINOR_VERSION.markup">512</property>
  <property name="meta.attr.COMPATIBLE_BRANDS.markup">isomiso2avc1mp41</property>
  <property name="meta.attr.ENCODER.markup">Lavf58.76.100</property>
  <property name="meta.media.sample_aspect_num">1</property>
  <property name="meta.media.sample_aspect_den">1</property>
  <property name="meta.media.frame_rate_num">60</property>
  <property name="meta.media.frame_rate_den">1</property>
  <property name="meta.media.colorspace">601</property>
  <property name="meta.media.color_trc">2</property>
  <property name="meta.media.width">640</property>
  <property name="meta.media.height">360</property>
  <property name="meta.media.color_range">mpeg</property>
  <property name="meta.media.top_field_first">0</property>
  <property name="meta.media.progressive">1</property>
  <property name="kdenlive:original.mlt_type">producer</property>
  <property name="kdenlive:original.in">0</property>
  <property name="kdenlive:original.out">59</property>
  <property name="kdenlive:original.length">60</property>
  <property name="kdenlive:original.eof">pause</property>
  <property name="kdenlive:original.resource">video/Complement/2.mp4</property>
  <property name="kdenlive:original.meta.media.nb_streams">1</property>
  <property name="kdenlive:original.meta.media.0.stream.type">video</property>
  <property name="kdenlive:original.meta.media.0.stream.frame_rate">60</property>
  <property name="kdenlive:original.meta.media.0.stream.sample_aspect_ratio">0</property>
  <property name="kdenlive:original.meta.media.0.codec.width">3840</property>
  <property name="kdenlive:original.meta.media.0.codec.height">2160</property>
  <property name="kdenlive:original.meta.media.0.codec.rotate">0</property>
  <property name="kdenlive:original.meta.media.0.codec.frame_rate">60</property>
  <property name="kdenlive:original.meta.media.0.codec.pix_fmt">yuv420p</property>
  <property name="kdenlive:original.meta.media.0.codec.sample_aspect_ratio">0</property>
  <property name="kdenlive:original.meta.media.0.codec.colorspace">709</property>
  <property name="kdenlive:original.meta.media.0.codec.name">h264</property>
  <property name="kdenlive:original.meta.media.0.codec.long_name">H.264 / AVC / MPEG-4 AVC / MPEG-4 part 10</property>
  <property name="kdenlive:original.meta.media.0.codec.bit_rate">628344</property>
  <property name="kdenlive:original.meta.attr.0.stream.handler_name.markup">VideoHandler</property>
  <property name="kdenlive:original.meta.attr.0.stream.vendor_id.markup">[0][0][0][0]</property>
  <property name="kdenlive:original.meta.attr.major_brand.markup">isom</property>
  <property name="kdenlive:original.meta.attr.minor_version.markup">512</property>
  <property name="kdenlive:original.meta.attr.compatible_brands.markup">isomiso2avc1mp41</property>
  <property name="kdenlive:original.meta.attr.encoder.markup">Lavf58.76.100</property>
  <property name="kdenlive:original.meta.attr.comment.markup">Rendered with Manim Community v0.6.0</property>
  <property name="kdenlive:original.seekable">1</property>
  <property name="kdenlive:original.width">3840</property>
  <property name="kdenlive:original.height">2160</property>
  <property name="kdenlive:original.meta.media.sample_aspect_num">1</property>
  <property name="kdenlive:original.meta.media.sample_aspect_den">1</property>
  <property name="kdenlive:original.aspect_ratio">1</property>
  <property name="kdenlive:original.audio_index">-1</property>
  <property name="kdenlive:original.video_index">0</property>
  <property name="kdenlive:original.mute_on_pause">1</property>
  <property name="kdenlive:original.mlt_service">avformat</property>
  <property name="kdenlive:original.meta.media.frame_rate_num">60</property>
  <property name="kdenlive:original.meta.media.frame_rate_den">1</property>
  <property name="kdenlive:original.meta.media.colorspace">709</property>
  <property name="kdenlive:original.meta.media.color_trc">2</property>
  <property name="kdenlive:original.meta.media.width">3840</property>
  <property name="kdenlive:original.meta.media.height">2160</property>
  <property name="kdenlive:original.meta.media.color_range">mpeg</property>
  <property name="kdenlive:original.meta.media.top_field_first">0</property>
  <property name="kdenlive:original.meta.media.progressive">1</property>
  <property name="kdenlive:original.backup">1</property>
 </producer>
 <producer id="producer121" in="00:00:00.000" out="00:00:04.983">
  <property name="length">00:00:05.000</property>
  <property name="eof">pause</property>
  <property name="resource">/home/xiaoxiae/.cache/kdenlive/proxy/2f7d3780156fdf72901524f7b98a6e4c.png</property>
  <property name="ttl">25</property>
  <property name="aspect_ratio">1</property>
  <property name="progressive">1</property>
  <property name="seekable">1</property>
  <property name="meta.media.width">800</property>
  <property name="meta.media.height">450</property>
  <property name="mlt_service">qimage</property>
  <property name="kdenlive:clipname">2.png</property>
  <property name="kdenlive:duration">00:00:05.000</property>
  <property name="kdenlive:folderid">80</property>
  <property name="kdenlive:id">84</property>
  <property name="kdenlive:file_size">91946</property>
  <property name="kdenlive:file_hash">2f7d3780156fdf72901524f7b98a6e4c</property>
  <property name="kdenlive:proxy">/home/xiaoxiae/.cache/kdenlive/proxy/2f7d3780156fdf72901524f7b98a6e4c.png</property>
  <property name="kdenlive:originalurl">video/Complement/2.png</property>
  <property name="global_feed">1</property>
 </producer>
 <producer id="producer132" in="00:00:00.000" out="00:00:06.033">
  <property name="length">363</property>
  <property name="eof">pause</property>
  <property name="resource">/home/xiaoxiae/.cache/kdenlive/proxy/232dfb44e3ca4ddd023582a31c7bbc72.mkv</property>
  <property name="audio_index">-1</property>
  <property name="video_index">0</property>
  <property name="mute_on_pause">0</property>
  <property name="mlt_service">avformat-novalidate</property>
  <property name="seekable">1</property>
  <property name="aspect_ratio">1</property>
  <property name="kdenlive:clipname">3.mp4</property>
  <property name="kdenlive:folderid">80</property>
  <property name="kdenlive:id">85</property>
  <property name="kdenlive:file_size">715487</property>
  <property name="kdenlive:file_hash">232dfb44e3ca4ddd023582a31c7bbc72</property>
  <property name="kdenlive:proxy">/home/xiaoxiae/.cache/kdenlive/proxy/232dfb44e3ca4ddd023582a31c7bbc72.mkv</property>
  <property name="kdenlive:originalurl">video/Complement/3.mp4</property>
  <property name="global_feed">1</property>
  <property name="meta.media.nb_streams">1</property>
  <property name="meta.media.0.stream.type">video</property>
  <property name="meta.media.0.stream.frame_rate">60</property>
  <property name="meta.media.0.stream.sample_aspect_ratio">0</property>
  <property name="meta.media.0.codec.width">640</property>
  <property name="meta.media.0.codec.height">360</property>
  <property name="meta.media.0.codec.rotate">0</property>
  <property name="meta.media.0.codec.frame_rate">60</property>
  <property name="meta.media.0.codec.pix_fmt">yuv420p</property>
  <property name="meta.media.0.codec.sample_aspect_ratio">0</property>
  <property name="meta.media.0.codec.colorspace">601</property>
  <property name="meta.media.0.codec.name">h264</property>
  <property name="meta.media.0.codec.long_name">H.264 / AVC / MPEG-4 AVC / MPEG-4 part 10</property>
  <property name="meta.media.0.codec.bit_rate">0</property>
  <property name="meta.attr.0.stream.HANDLER_NAME.markup">VideoHandler</property>
  <property name="meta.attr.0.stream.VENDOR_ID.markup">[0][0][0][0]</property>
  <property name="meta.attr.0.stream.ENCODER.markup">Lavc58.134.100 libx264</property>
  <property name="meta.attr.0.stream.DURATION.markup">00:00:06.050000000</property>
  <property name="meta.attr.COMMENT.markup">Rendered with Manim Community v0.6.0</property>
  <property name="meta.attr.MAJOR_BRAND.markup">isom</property>
  <property name="meta.attr.MINOR_VERSION.markup">512</property>
  <property name="meta.attr.COMPATIBLE_BRANDS.markup">isomiso2avc1mp41</property>
  <property name="meta.attr.ENCODER.markup">Lavf58.76.100</property>
  <property name="meta.media.sample_aspect_num">1</property>
  <property name="meta.media.sample_aspect_den">1</property>
  <property name="meta.media.frame_rate_num">60</property>
  <property name="meta.media.frame_rate_den">1</property>
  <property name="meta.media.colorspace">601</property>
  <property name="meta.media.color_trc">2</property>
  <property name="meta.media.width">640</property>
  <property name="meta.media.height">360</property>
  <property name="meta.media.color_range">mpeg</property>
  <property name="meta.media.top_field_first">0</property>
  <property name="meta.media.progressive">1</property>
  <property name="kdenlive:original.mlt_type">producer</property>
  <property name="kdenlive:original.in">0</property>
  <property name="kdenlive:original.out">362</property>
  <property name="kdenlive:original.length">363</property>
  <property name="kdenlive:original.eof">pause</property>
  <property name="kdenlive:original.resource">video/Complement/3.mp4</property>
  <property name="kdenlive:original.meta.media.nb_streams">1</property>
  <property name="kdenlive:original.meta.media.0.stream.type">video</property>
  <property name="kdenlive:original.meta.media.0.stream.frame_rate">60</property>
  <property name="kdenlive:original.meta.media.0.stream.sample_aspect_ratio">0</property>
  <property name="kdenlive:original.meta.media.0.codec.width">3840</property>
  <property name="kdenlive:original.meta.media.0.codec.height">2160</property>
  <property name="kdenlive:original.meta.media.0.codec.rotate">0</property>
  <property name="kdenlive:original.meta.media.0.codec.frame_rate">60</property>
  <property name="kdenlive:original.meta.media.0.codec.pix_fmt">yuv420p</property>
  <property name="kdenlive:original.meta.media.0.codec.sample_aspect_ratio">0</property>
  <property name="kdenlive:original.meta.media.0.codec.colorspace">709</property>
  <property name="kdenlive:original.meta.media.0.codec.name">h264</property>
  <property name="kdenlive:original.meta.media.0.codec.long_name">H.264 / AVC / MPEG-4 AVC / MPEG-4 part 10</property>
  <property name="kdenlive:original.meta.media.0.codec.bit_rate">939128</property>
  <property name="kdenlive:original.meta.attr.0.stream.handler_name.markup">VideoHandler</property>
  <property name="kdenlive:original.meta.attr.0.stream.vendor_id.markup">[0][0][0][0]</property>
  <property name="kdenlive:original.meta.attr.major_brand.markup">isom</property>
  <property name="kdenlive:original.meta.attr.minor_version.markup">512</property>
  <property name="kdenlive:original.meta.attr.compatible_brands.markup">isomiso2avc1mp41</property>
  <property name="kdenlive:original.meta.attr.encoder.markup">Lavf58.76.100</property>
  <property name="kdenlive:original.meta.attr.comment.markup">Rendered with Manim Community v0.6.0</property>
  <property name="kdenlive:original.seekable">1</property>
  <property name="kdenlive:original.width">3840</property>
  <property name="kdenlive:original.height">2160</property>
  <property name="kdenlive:original.meta.media.sample_aspect_num">1</property>
  <property name="kdenlive:original.meta.media.sample_aspect_den">1</property>
  <property name="kdenlive:original.aspect_ratio">1</property>
  <property name="kdenlive:original.audio_index">-1</property>
  <property name="kdenlive:original.video_index">0</property>
  <property name="kdenlive:original.mute_on_pause">1</property>
  <property name="kdenlive:original.mlt_service">avformat</property>
  <property name="kdenlive:original.meta.media.frame_rate_num">60</property>
  <property name="kdenlive:original.meta.media.frame_rate_den">1</property>
  <property name="kdenlive:original.meta.media.colorspace">709</property>
  <property name="kdenlive:original.meta.media.color_trc">2</property>
  <property name="kdenlive:original.meta.media.width">3840</property>
  <property name="kdenlive:original.meta.media.height">2160</property>
  <property name="kdenlive:original.meta.media.color_range">mpeg</property>
  <property name="kdenlive:original.meta.media.top_field_first">0</property>
  <property name="kdenlive:original.meta.media.progressive">1</property>
  <property name="kdenlive:original.backup">1</property>
 </producer>
 <producer id="producer122" in="00:00:00.000" out="00:00:04.983">
  <property name="length">00:00:05.000</property>
  <property name="eof">pause</property>
  <property name="resource">/home/xiaoxiae/.cache/kdenlive/proxy/ca2b9df53123b0ec153385fd6613bfed.png</property>
  <property name="ttl">25</property>
  <property name="aspect_ratio">1</property>
  <property name="progressive">1</property>
  <property name="seekable">1</property>
  <property name="meta.media.width">800</property>
  <property name="meta.media.height">450</property>
  <property name="mlt_service">qimage</property>
  <property name="kdenlive:clipname">3.png</property>
  <property name="kdenlive:duration">00:00:05.000</property>
  <property name="kdenlive:folderid">80</property>
  <property name="kdenlive:id">86</property>
  <property name="kdenlive:file_size">363645</property>
  <property name="kdenlive:file_hash">ca2b9df53123b0ec153385fd6613bfed</property>
  <property name="kdenlive:proxy">/home/xiaoxiae/.cache/kdenlive/proxy/ca2b9df53123b0ec153385fd6613bfed.png</property>
  <property name="kdenlive:originalurl">video/Complement/3.png</property>
  <property name="global_feed">1</property>
 </producer>
 <producer id="producer123" in="00:00:00.000" out="00:00:00.983">
  <property name="length">60</property>
  <property name="eof">pause</property>
  <property name="resource">/home/xiaoxiae/.cache/kdenlive/proxy/990d4985ea22ef314f94f850f39ce0c7.mkv</property>
  <property name="audio_index">-1</property>
  <property name="video_index">0</property>
  <property name="mute_on_pause">0</property>
  <property name="mlt_service">avformat-novalidate</property>
  <property name="seekable">1</property>
  <property name="aspect_ratio">1</property>
  <property name="kdenlive:clipname">4.mp4</property>
  <property name="kdenlive:folderid">80</property>
  <property name="kdenlive:id">87</property>
  <property name="kdenlive:file_size">168533</property>
  <property name="kdenlive:file_hash">990d4985ea22ef314f94f850f39ce0c7</property>
  <property name="kdenlive:proxy">/home/xiaoxiae/.cache/kdenlive/proxy/990d4985ea22ef314f94f850f39ce0c7.mkv</property>
  <property name="kdenlive:originalurl">video/Complement/4.mp4</property>
  <property name="global_feed">1</property>
  <property name="meta.media.nb_streams">1</property>
  <property name="meta.media.0.stream.type">video</property>
  <property name="meta.media.0.stream.frame_rate">60</property>
  <property name="meta.media.0.stream.sample_aspect_ratio">0</property>
  <property name="meta.media.0.codec.width">640</property>
  <property name="meta.media.0.codec.height">360</property>
  <property name="meta.media.0.codec.rotate">0</property>
  <property name="meta.media.0.codec.frame_rate">60</property>
  <property name="meta.media.0.codec.pix_fmt">yuv420p</property>
  <property name="meta.media.0.codec.sample_aspect_ratio">0</property>
  <property name="meta.media.0.codec.colorspace">601</property>
  <property name="meta.media.0.codec.name">h264</property>
  <property name="meta.media.0.codec.long_name">H.264 / AVC / MPEG-4 AVC / MPEG-4 part 10</property>
  <property name="meta.media.0.codec.bit_rate">0</property>
  <property name="meta.attr.0.stream.HANDLER_NAME.markup">VideoHandler</property>
  <property name="meta.attr.0.stream.VENDOR_ID.markup">[0][0][0][0]</property>
  <property name="meta.attr.0.stream.ENCODER.markup">Lavc58.134.100 libx264</property>
  <property name="meta.attr.0.stream.DURATION.markup">00:00:01.000000000</property>
  <property name="meta.attr.COMMENT.markup">Rendered with Manim Community v0.6.0</property>
  <property name="meta.attr.MAJOR_BRAND.markup">isom</property>
  <property name="meta.attr.MINOR_VERSION.markup">512</property>
  <property name="meta.attr.COMPATIBLE_BRANDS.markup">isomiso2avc1mp41</property>
  <property name="meta.attr.ENCODER.markup">Lavf58.76.100</property>
  <property name="meta.media.sample_aspect_num">1</property>
  <property name="meta.media.sample_aspect_den">1</property>
  <property name="meta.media.frame_rate_num">60</property>
  <property name="meta.media.frame_rate_den">1</property>
  <property name="meta.media.colorspace">601</property>
  <property name="meta.media.color_trc">2</property>
  <property name="meta.media.width">640</property>
  <property name="meta.media.height">360</property>
  <property name="meta.media.color_range">mpeg</property>
  <property name="meta.media.top_field_first">0</property>
  <property name="meta.media.progressive">1</property>
  <property name="kdenlive:original.mlt_type">producer</property>
  <property name="kdenlive:original.in">0</property>
  <property name="kdenlive:original.out">59</property>
  <property name="kdenlive:original.length">60</property>
  <property name="kdenlive:original.eof">pause</property>
  <property name="kdenlive:original.resource">video/Complement/4.mp4</property>
  <property name="kdenlive:original.meta.media.nb_streams">1</property>
  <property name="kdenlive:original.meta.media.0.stream.type">video</property>
  <property name="kdenlive:original.meta.media.0.stream.frame_rate">60</property>
  <property name="kdenlive:original.meta.media.0.stream.sample_aspect_ratio">0</property>
  <property name="kdenlive:original.meta.media.0.codec.width">3840</property>
  <property name="kdenlive:original.meta.media.0.codec.height">2160</property>
  <property name="kdenlive:original.meta.media.0.codec.rotate">0</property>
  <property name="kdenlive:original.meta.media.0.codec.frame_rate">60</property>
  <property name="kdenlive:original.meta.media.0.codec.pix_fmt">yuv420p</property>
  <property name="kdenlive:original.meta.media.0.codec.sample_aspect_ratio">0</property>
  <property name="kdenlive:original.meta.media.0.codec.colorspace">709</property>
  <property name="kdenlive:original.meta.media.0.codec.name">h264</property>
  <property name="kdenlive:original.meta.media.0.codec.long_name">H.264 / AVC / MPEG-4 AVC / MPEG-4 part 10</property>
  <property name="kdenlive:original.meta.media.0.codec.bit_rate">1335216</property>
  <property name="kdenlive:original.meta.attr.0.stream.handler_name.markup">VideoHandler</property>
  <property name="kdenlive:original.meta.attr.0.stream.vendor_id.markup">[0][0][0][0]</property>
  <property name="kdenlive:original.meta.attr.major_brand.markup">isom</property>
  <property name="kdenlive:original.meta.attr.minor_version.markup">512</property>
  <property name="kdenlive:original.meta.attr.compatible_brands.markup">isomiso2avc1mp41</property>
  <property name="kdenlive:original.meta.attr.encoder.markup">Lavf58.76.100</property>
  <property name="kdenlive:original.meta.attr.comment.markup">Rendered with Manim Community v0.6.0</property>
  <property name="kdenlive:original.seekable">1</property>
  <property name="kdenlive:original.width">3840</property>
  <property name="kdenlive:original.height">2160</property>
  <property name="kdenlive:original.meta.media.sample_aspect_num">1</property>
  <property name="kdenlive:original.meta.media.sample_aspect_den">1</property>
  <property name="kdenlive:original.aspect_ratio">1</property>
  <property name="kdenlive:original.audio_index">-1</property>
  <property name="kdenlive:original.video_index">0</property>
  <property name="kdenlive:original.mute_on_pause">1</property>
  <property name="kdenlive:original.mlt_service">avformat</property>
  <property name="kdenlive:original.meta.media.frame_rate_num">60</property>
  <property name="kdenlive:original.meta.media.frame_rate_den">1</property>
  <property name="kdenlive:original.meta.media.colorspace">709</property>
  <property name="kdenlive:original.meta.media.color_trc">2</property>
  <property name="kdenlive:original.meta.media.width">3840</property>
  <property name="kdenlive:original.meta.media.height">2160</property>
  <property name="kdenlive:original.meta.media.color_range">mpeg</property>
  <property name="kdenlive:original.meta.media.top_field_first">0</property>
  <property name="kdenlive:original.meta.media.progressive">1</property>
  <property name="kdenlive:original.backup">1</property>
 </producer>
 <producer id="producer124" in="00:00:00.000" out="00:00:04.983">
  <property name="length">00:00:05.000</property>
  <property name="eof">pause</property>
  <property name="resource">/home/xiaoxiae/.cache/kdenlive/proxy/53ed1259cd693c3bce4936720b38c326.png</property>
  <property name="ttl">25</property>
  <property name="aspect_ratio">1</property>
  <property name="progressive">1</property>
  <property name="seekable">1</property>
  <property name="meta.media.width">800</property>
  <property name="meta.media.height">450</property>
  <property name="mlt_service">qimage</property>
  <property name="kdenlive:clipname">4.png</property>
  <property name="kdenlive:duration">00:00:05.000</property>
  <property name="kdenlive:folderid">80</property>
  <property name="kdenlive:id">88</property>
  <property name="kdenlive:file_size">478235</property>
  <property name="kdenlive:file_hash">53ed1259cd693c3bce4936720b38c326</property>
  <property name="kdenlive:proxy">/home/xiaoxiae/.cache/kdenlive/proxy/53ed1259cd693c3bce4936720b38c326.png</property>
  <property name="kdenlive:originalurl">video/Complement/4.png</property>
  <property name="global_feed">1</property>
 </producer>
 <producer id="producer125" in="00:00:00.000" out="00:00:00.983">
  <property name="length">60</property>
  <property name="eof">pause</property>
  <property name="resource">/home/xiaoxiae/.cache/kdenlive/proxy/0a0a8ba3bdcfe7968acf16851b064005.mkv</property>
  <property name="audio_index">-1</property>
  <property name="video_index">0</property>
  <property name="mute_on_pause">0</property>
  <property name="mlt_service">avformat-novalidate</property>
  <property name="seekable">1</property>
  <property name="aspect_ratio">1</property>
  <property name="kdenlive:clipname">5.mp4</property>
  <property name="kdenlive:folderid">80</property>
  <property name="kdenlive:id">89</property>
  <property name="kdenlive:file_size">124085</property>
  <property name="kdenlive:file_hash">0a0a8ba3bdcfe7968acf16851b064005</property>
  <property name="kdenlive:proxy">/home/xiaoxiae/.cache/kdenlive/proxy/0a0a8ba3bdcfe7968acf16851b064005.mkv</property>
  <property name="kdenlive:originalurl">video/Complement/5.mp4</property>
  <property name="global_feed">1</property>
  <property name="meta.media.nb_streams">1</property>
  <property name="meta.media.0.stream.type">video</property>
  <property name="meta.media.0.stream.frame_rate">60</property>
  <property name="meta.media.0.stream.sample_aspect_ratio">0</property>
  <property name="meta.media.0.codec.width">640</property>
  <property name="meta.media.0.codec.height">360</property>
  <property name="meta.media.0.codec.rotate">0</property>
  <property name="meta.media.0.codec.frame_rate">60</property>
  <property name="meta.media.0.codec.pix_fmt">yuv420p</property>
  <property name="meta.media.0.codec.sample_aspect_ratio">0</property>
  <property name="meta.media.0.codec.colorspace">601</property>
  <property name="meta.media.0.codec.name">h264</property>
  <property name="meta.media.0.codec.long_name">H.264 / AVC / MPEG-4 AVC / MPEG-4 part 10</property>
  <property name="meta.media.0.codec.bit_rate">0</property>
  <property name="meta.attr.0.stream.HANDLER_NAME.markup">VideoHandler</property>
  <property name="meta.attr.0.stream.VENDOR_ID.markup">[0][0][0][0]</property>
  <property name="meta.attr.0.stream.ENCODER.markup">Lavc58.134.100 libx264</property>
  <property name="meta.attr.0.stream.DURATION.markup">00:00:01.000000000</property>
  <property name="meta.attr.COMMENT.markup">Rendered with Manim Community v0.6.0</property>
  <property name="meta.attr.MAJOR_BRAND.markup">isom</property>
  <property name="meta.attr.MINOR_VERSION.markup">512</property>
  <property name="meta.attr.COMPATIBLE_BRANDS.markup">isomiso2avc1mp41</property>
  <property name="meta.attr.ENCODER.markup">Lavf58.76.100</property>
  <property name="meta.media.sample_aspect_num">1</property>
  <property name="meta.media.sample_aspect_den">1</property>
  <property name="meta.media.frame_rate_num">60</property>
  <property name="meta.media.frame_rate_den">1</property>
  <property name="meta.media.colorspace">601</property>
  <property name="meta.media.color_trc">2</property>
  <property name="meta.media.width">640</property>
  <property name="meta.media.height">360</property>
  <property name="meta.media.color_range">mpeg</property>
  <property name="meta.media.top_field_first">0</property>
  <property name="meta.media.progressive">1</property>
  <property name="kdenlive:original.mlt_type">producer</property>
  <property name="kdenlive:original.in">0</property>
  <property name="kdenlive:original.out">59</property>
  <property name="kdenlive:original.length">60</property>
  <property name="kdenlive:original.eof">pause</property>
  <property name="kdenlive:original.resource">video/Complement/5.mp4</property>
  <property name="kdenlive:original.meta.media.nb_streams">1</property>
  <property name="kdenlive:original.meta.media.0.stream.type">video</property>
  <property name="kdenlive:original.meta.media.0.stream.frame_rate">60</property>
  <property name="kdenlive:original.meta.media.0.stream.sample_aspect_ratio">0</property>
  <property name="kdenlive:original.meta.media.0.codec.width">3840</property>
  <property name="kdenlive:original.meta.media.0.codec.height">2160</property>
  <property name="kdenlive:original.meta.media.0.codec.rotate">0</property>
  <property name="kdenlive:original.meta.media.0.codec.frame_rate">60</property>
  <property name="kdenlive:original.meta.media.0.codec.pix_fmt">yuv420p</property>
  <property name="kdenlive:original.meta.media.0.codec.sample_aspect_ratio">0</property>
  <property name="kdenlive:original.meta.media.0.codec.colorspace">709</property>
  <property name="kdenlive:original.meta.media.0.codec.name">h264</property>
  <property name="kdenlive:original.meta.media.0.codec.long_name">H.264 / AVC / MPEG-4 AVC / MPEG-4 part 10</property>
  <property name="kdenlive:original.meta.media.0.codec.bit_rate">979632</property>
  <property name="kdenlive:original.meta.attr.0.stream.handler_name.markup">VideoHandler</property>
  <property name="kdenlive:original.meta.attr.0.stream.vendor_id.markup">[0][0][0][0]</property>
  <property name="kdenlive:original.meta.attr.major_brand.markup">isom</property>
  <property name="kdenlive:original.meta.attr.minor_version.markup">512</property>
  <property name="kdenlive:original.meta.attr.compatible_brands.markup">isomiso2avc1mp41</property>
  <property name="kdenlive:original.meta.attr.encoder.markup">Lavf58.76.100</property>
  <property name="kdenlive:original.meta.attr.comment.markup">Rendered with Manim Community v0.6.0</property>
  <property name="kdenlive:original.seekable">1</property>
  <property name="kdenlive:original.width">3840</property>
  <property name="kdenlive:original.height">2160</property>
  <property name="kdenlive:original.meta.media.sample_aspect_num">1</property>
  <property name="kdenlive:original.meta.media.sample_aspect_den">1</property>
  <property name="kdenlive:original.aspect_ratio">1</property>
  <property name="kdenlive:original.audio_index">-1</property>
  <property name="kdenlive:original.video_index">0</property>
  <property name="kdenlive:original.mute_on_pause">1</property>
  <property name="kdenlive:original.mlt_service">avformat</property>
  <property name="kdenlive:original.meta.media.frame_rate_num">60</property>
  <property name="kdenlive:original.meta.media.frame_rate_den">1</property>
  <property name="kdenlive:original.meta.media.colorspace">709</property>
  <property name="kdenlive:original.meta.media.color_trc">2</property>
  <property name="kdenlive:original.meta.media.width">3840</property>
  <property name="kdenlive:original.meta.media.height">2160</property>
  <property name="kdenlive:original.meta.media.color_range">mpeg</property>
  <property name="kdenlive:original.meta.media.top_field_first">0</property>
  <property name="kdenlive:original.meta.media.progressive">1</property>
  <property name="kdenlive:original.backup">1</property>
 </producer>
 <producer id="producer127" in="00:00:00.000" out="00:00:04.983">
  <property name="length">00:00:05.000</property>
  <property name="eof">pause</property>
  <property name="resource">/home/xiaoxiae/.cache/kdenlive/proxy/7bcc9a0023feaf4de020f6b4c5927e5a.png</property>
  <property name="ttl">25</property>
  <property name="aspect_ratio">1</property>
  <property name="progressive">1</property>
  <property name="seekable">1</property>
  <property name="meta.media.width">800</property>
  <property name="meta.media.height">450</property>
  <property name="mlt_service">qimage</property>
  <property name="kdenlive:clipname">5.png</property>
  <property name="kdenlive:duration">00:00:05.000</property>
  <property name="kdenlive:folderid">80</property>
  <property name="kdenlive:id">90</property>
  <property name="kdenlive:file_size">455156</property>
  <property name="kdenlive:file_hash">7bcc9a0023feaf4de020f6b4c5927e5a</property>
  <property name="kdenlive:proxy">/home/xiaoxiae/.cache/kdenlive/proxy/7bcc9a0023feaf4de020f6b4c5927e5a.png</property>
  <property name="kdenlive:originalurl">video/Complement/5.png</property>
  <property name="global_feed">1</property>
 </producer>
 <producer id="producer126" in="00:00:00.000" out="00:00:00.983">
  <property name="length">60</property>
  <property name="eof">pause</property>
  <property name="resource">/home/xiaoxiae/.cache/kdenlive/proxy/3ae86018e536d2c616b217389da58c73.mkv</property>
  <property name="audio_index">-1</property>
  <property name="video_index">0</property>
  <property name="mute_on_pause">0</property>
  <property name="mlt_service">avformat-novalidate</property>
  <property name="seekable">1</property>
  <property name="aspect_ratio">1</property>
  <property name="kdenlive:clipname">6.mp4</property>
  <property name="kdenlive:folderid">80</property>
  <property name="kdenlive:id">91</property>
  <property name="kdenlive:file_size">119480</property>
  <property name="kdenlive:file_hash">3ae86018e536d2c616b217389da58c73</property>
  <property name="kdenlive:proxy">/home/xiaoxiae/.cache/kdenlive/proxy/3ae86018e536d2c616b217389da58c73.mkv</property>
  <property name="kdenlive:originalurl">video/Complement/6.mp4</property>
  <property name="global_feed">1</property>
  <property name="meta.media.nb_streams">1</property>
  <property name="meta.media.0.stream.type">video</property>
  <property name="meta.media.0.stream.frame_rate">60</property>
  <property name="meta.media.0.stream.sample_aspect_ratio">0</property>
  <property name="meta.media.0.codec.width">640</property>
  <property name="meta.media.0.codec.height">360</property>
  <property name="meta.media.0.codec.rotate">0</property>
  <property name="meta.media.0.codec.frame_rate">60</property>
  <property name="meta.media.0.codec.pix_fmt">yuv420p</property>
  <property name="meta.media.0.codec.sample_aspect_ratio">0</property>
  <property name="meta.media.0.codec.colorspace">601</property>
  <property name="meta.media.0.codec.name">h264</property>
  <property name="meta.media.0.codec.long_name">H.264 / AVC / MPEG-4 AVC / MPEG-4 part 10</property>
  <property name="meta.media.0.codec.bit_rate">0</property>
  <property name="meta.attr.0.stream.HANDLER_NAME.markup">VideoHandler</property>
  <property name="meta.attr.0.stream.VENDOR_ID.markup">[0][0][0][0]</property>
  <property name="meta.attr.0.stream.ENCODER.markup">Lavc58.134.100 libx264</property>
  <property name="meta.attr.0.stream.DURATION.markup">00:00:01.000000000</property>
  <property name="meta.attr.COMMENT.markup">Rendered with Manim Community v0.6.0</property>
  <property name="meta.attr.MAJOR_BRAND.markup">isom</property>
  <property name="meta.attr.MINOR_VERSION.markup">512</property>
  <property name="meta.attr.COMPATIBLE_BRANDS.markup">isomiso2avc1mp41</property>
  <property name="meta.attr.ENCODER.markup">Lavf58.76.100</property>
  <property name="meta.media.sample_aspect_num">1</property>
  <property name="meta.media.sample_aspect_den">1</property>
  <property name="meta.media.frame_rate_num">60</property>
  <property name="meta.media.frame_rate_den">1</property>
  <property name="meta.media.colorspace">601</property>
  <property name="meta.media.color_trc">2</property>
  <property name="meta.media.width">640</property>
  <property name="meta.media.height">360</property>
  <property name="meta.media.color_range">mpeg</property>
  <property name="meta.media.top_field_first">0</property>
  <property name="meta.media.progressive">1</property>
  <property name="kdenlive:original.mlt_type">producer</property>
  <property name="kdenlive:original.in">0</property>
  <property name="kdenlive:original.out">59</property>
  <property name="kdenlive:original.length">60</property>
  <property name="kdenlive:original.eof">pause</property>
  <property name="kdenlive:original.resource">video/Complement/6.mp4</property>
  <property name="kdenlive:original.meta.media.nb_streams">1</property>
  <property name="kdenlive:original.meta.media.0.stream.type">video</property>
  <property name="kdenlive:original.meta.media.0.stream.frame_rate">60</property>
  <property name="kdenlive:original.meta.media.0.stream.sample_aspect_ratio">0</property>
  <property name="kdenlive:original.meta.media.0.codec.width">3840</property>
  <property name="kdenlive:original.meta.media.0.codec.height">2160</property>
  <property name="kdenlive:original.meta.media.0.codec.rotate">0</property>
  <property name="kdenlive:original.meta.media.0.codec.frame_rate">60</property>
  <property name="kdenlive:original.meta.media.0.codec.pix_fmt">yuv420p</property>
  <property name="kdenlive:original.meta.media.0.codec.sample_aspect_ratio">0</property>
  <property name="kdenlive:original.meta.media.0.codec.colorspace">709</property>
  <property name="kdenlive:original.meta.media.0.codec.name">h264</property>
  <property name="kdenlive:original.meta.media.0.codec.long_name">H.264 / AVC / MPEG-4 AVC / MPEG-4 part 10</property>
  <property name="kdenlive:original.meta.media.0.codec.bit_rate">942792</property>
  <property name="kdenlive:original.meta.attr.0.stream.handler_name.markup">VideoHandler</property>
  <property name="kdenlive:original.meta.attr.0.stream.vendor_id.markup">[0][0][0][0]</property>
  <property name="kdenlive:original.meta.attr.major_brand.markup">isom</property>
  <property name="kdenlive:original.meta.attr.minor_version.markup">512</property>
  <property name="kdenlive:original.meta.attr.compatible_brands.markup">isomiso2avc1mp41</property>
  <property name="kdenlive:original.meta.attr.encoder.markup">Lavf58.76.100</property>
  <property name="kdenlive:original.meta.attr.comment.markup">Rendered with Manim Community v0.6.0</property>
  <property name="kdenlive:original.seekable">1</property>
  <property name="kdenlive:original.width">3840</property>
  <property name="kdenlive:original.height">2160</property>
  <property name="kdenlive:original.meta.media.sample_aspect_num">1</property>
  <property name="kdenlive:original.meta.media.sample_aspect_den">1</property>
  <property name="kdenlive:original.aspect_ratio">1</property>
  <property name="kdenlive:original.audio_index">-1</property>
  <property name="kdenlive:original.video_index">0</property>
  <property name="kdenlive:original.mute_on_pause">1</property>
  <property name="kdenlive:original.mlt_service">avformat</property>
  <property name="kdenlive:original.meta.media.frame_rate_num">60</property>
  <property name="kdenlive:original.meta.media.frame_rate_den">1</property>
  <property name="kdenlive:original.meta.media.colorspace">709</property>
  <property name="kdenlive:original.meta.media.color_trc">2</property>
  <property name="kdenlive:original.meta.media.width">3840</property>
  <property name="kdenlive:original.meta.media.height">2160</property>
  <property name="kdenlive:original.meta.media.color_range">mpeg</property>
  <property name="kdenlive:original.meta.media.top_field_first">0</property>
  <property name="kdenlive:original.meta.media.progressive">1</property>
  <property name="kdenlive:original.backup">1</property>
 </producer>
 <producer id="producer129" in="00:00:00.000" out="00:00:04.983">
  <property name="length">00:00:05.000</property>
  <property name="eof">pause</property>
  <property name="resource">/home/xiaoxiae/.cache/kdenlive/proxy/6a2e8a22460c7ea8e280a966ea269e2a.png</property>
  <property name="ttl">25</property>
  <property name="aspect_ratio">1</property>
  <property name="progressive">1</property>
  <property name="seekable">1</property>
  <property name="meta.media.width">800</property>
  <property name="meta.media.height">450</property>
  <property name="mlt_service">qimage</property>
  <property name="kdenlive:clipname">6.png</property>
  <property name="kdenlive:duration">00:00:05.000</property>
  <property name="kdenlive:folderid">80</property>
  <property name="kdenlive:id">92</property>
  <property name="kdenlive:file_size">451761</property>
  <property name="kdenlive:file_hash">6a2e8a22460c7ea8e280a966ea269e2a</property>
  <property name="kdenlive:proxy">/home/xiaoxiae/.cache/kdenlive/proxy/6a2e8a22460c7ea8e280a966ea269e2a.png</property>
  <property name="kdenlive:originalurl">video/Complement/6.png</property>
  <property name="global_feed">1</property>
 </producer>
 <producer id="producer128" in="00:00:00.000" out="00:00:00.983">
  <property name="length">60</property>
  <property name="eof">pause</property>
  <property name="resource">/home/xiaoxiae/.cache/kdenlive/proxy/92b5c7d9576627913c7c501ee116347b.mkv</property>
  <property name="audio_index">-1</property>
  <property name="video_index">0</property>
  <property name="mute_on_pause">0</property>
  <property name="mlt_service">avformat-novalidate</property>
  <property name="seekable">1</property>
  <property name="aspect_ratio">1</property>
  <property name="kdenlive:clipname">7.mp4</property>
  <property name="kdenlive:folderid">80</property>
  <property name="kdenlive:id">93</property>
  <property name="kdenlive:file_size">131968</property>
  <property name="kdenlive:file_hash">92b5c7d9576627913c7c501ee116347b</property>
  <property name="kdenlive:proxy">/home/xiaoxiae/.cache/kdenlive/proxy/92b5c7d9576627913c7c501ee116347b.mkv</property>
  <property name="kdenlive:originalurl">video/Complement/7.mp4</property>
  <property name="global_feed">1</property>
  <property name="meta.media.nb_streams">1</property>
  <property name="meta.media.0.stream.type">video</property>
  <property name="meta.media.0.stream.frame_rate">60</property>
  <property name="meta.media.0.stream.sample_aspect_ratio">0</property>
  <property name="meta.media.0.codec.width">640</property>
  <property name="meta.media.0.codec.height">360</property>
  <property name="meta.media.0.codec.rotate">0</property>
  <property name="meta.media.0.codec.frame_rate">60</property>
  <property name="meta.media.0.codec.pix_fmt">yuv420p</property>
  <property name="meta.media.0.codec.sample_aspect_ratio">0</property>
  <property name="meta.media.0.codec.colorspace">601</property>
  <property name="meta.media.0.codec.name">h264</property>
  <property name="meta.media.0.codec.long_name">H.264 / AVC / MPEG-4 AVC / MPEG-4 part 10</property>
  <property name="meta.media.0.codec.bit_rate">0</property>
  <property name="meta.attr.0.stream.HANDLER_NAME.markup">VideoHandler</property>
  <property name="meta.attr.0.stream.VENDOR_ID.markup">[0][0][0][0]</property>
  <property name="meta.attr.0.stream.ENCODER.markup">Lavc58.134.100 libx264</property>
  <property name="meta.attr.0.stream.DURATION.markup">00:00:01.000000000</property>
  <property name="meta.attr.COMMENT.markup">Rendered with Manim Community v0.6.0</property>
  <property name="meta.attr.MAJOR_BRAND.markup">isom</property>
  <property name="meta.attr.MINOR_VERSION.markup">512</property>
  <property name="meta.attr.COMPATIBLE_BRANDS.markup">isomiso2avc1mp41</property>
  <property name="meta.attr.ENCODER.markup">Lavf58.76.100</property>
  <property name="meta.media.sample_aspect_num">1</property>
  <property name="meta.media.sample_aspect_den">1</property>
  <property name="meta.media.frame_rate_num">60</property>
  <property name="meta.media.frame_rate_den">1</property>
  <property name="meta.media.colorspace">601</property>
  <property name="meta.media.color_trc">2</property>
  <property name="meta.media.width">640</property>
  <property name="meta.media.height">360</property>
  <property name="meta.media.color_range">mpeg</property>
  <property name="meta.media.top_field_first">0</property>
  <property name="meta.media.progressive">1</property>
  <property name="kdenlive:original.mlt_type">producer</property>
  <property name="kdenlive:original.in">0</property>
  <property name="kdenlive:original.out">59</property>
  <property name="kdenlive:original.length">60</property>
  <property name="kdenlive:original.eof">pause</property>
  <property name="kdenlive:original.resource">video/Complement/7.mp4</property>
  <property name="kdenlive:original.meta.media.nb_streams">1</property>
  <property name="kdenlive:original.meta.media.0.stream.type">video</property>
  <property name="kdenlive:original.meta.media.0.stream.frame_rate">60</property>
  <property name="kdenlive:original.meta.media.0.stream.sample_aspect_ratio">0</property>
  <property name="kdenlive:original.meta.media.0.codec.width">3840</property>
  <property name="kdenlive:original.meta.media.0.codec.height">2160</property>
  <property name="kdenlive:original.meta.media.0.codec.rotate">0</property>
  <property name="kdenlive:original.meta.media.0.codec.frame_rate">60</property>
  <property name="kdenlive:original.meta.media.0.codec.pix_fmt">yuv420p</property>
  <property name="kdenlive:original.meta.media.0.codec.sample_aspect_ratio">0</property>
  <property name="kdenlive:original.meta.media.0.codec.colorspace">709</property>
  <property name="kdenlive:original.meta.media.0.codec.name">h264</property>
  <property name="kdenlive:original.meta.media.0.codec.long_name">H.264 / AVC / MPEG-4 AVC / MPEG-4 part 10</property>
  <property name="kdenlive:original.meta.media.0.codec.bit_rate">1042696</property>
  <property name="kdenlive:original.meta.attr.0.stream.handler_name.markup">VideoHandler</property>
  <property name="kdenlive:original.meta.attr.0.stream.vendor_id.markup">[0][0][0][0]</property>
  <property name="kdenlive:original.meta.attr.major_brand.markup">isom</property>
  <property name="kdenlive:original.meta.attr.minor_version.markup">512</property>
  <property name="kdenlive:original.meta.attr.compatible_brands.markup">isomiso2avc1mp41</property>
  <property name="kdenlive:original.meta.attr.encoder.markup">Lavf58.76.100</property>
  <property name="kdenlive:original.meta.attr.comment.markup">Rendered with Manim Community v0.6.0</property>
  <property name="kdenlive:original.seekable">1</property>
  <property name="kdenlive:original.width">3840</property>
  <property name="kdenlive:original.height">2160</property>
  <property name="kdenlive:original.meta.media.sample_aspect_num">1</property>
  <property name="kdenlive:original.meta.media.sample_aspect_den">1</property>
  <property name="kdenlive:original.aspect_ratio">1</property>
  <property name="kdenlive:original.audio_index">-1</property>
  <property name="kdenlive:original.video_index">0</property>
  <property name="kdenlive:original.mute_on_pause">1</property>
  <property name="kdenlive:original.mlt_service">avformat</property>
  <property name="kdenlive:original.meta.media.frame_rate_num">60</property>
  <property name="kdenlive:original.meta.media.frame_rate_den">1</property>
  <property name="kdenlive:original.meta.media.colorspace">709</property>
  <property name="kdenlive:original.meta.media.color_trc">2</property>
  <property name="kdenlive:original.meta.media.width">3840</property>
  <property name="kdenlive:original.meta.media.height">2160</property>
  <property name="kdenlive:original.meta.media.color_range">mpeg</property>
  <property name="kdenlive:original.meta.media.top_field_first">0</property>
  <property name="kdenlive:original.meta.media.progressive">1</property>
  <property name="kdenlive:original.backup">1</property>
 </producer>
 <producer id="producer131" in="00:00:00.000" out="00:00:04.983">
  <property name="length">00:00:05.000</property>
  <property name="eof">pause</property>
  <property name="resource">/home/xiaoxiae/.cache/kdenlive/proxy/6c5000c57a54bb00ced4cf66fd237410.png</property>
  <property name="ttl">25</property>
  <property name="aspect_ratio">1</property>
  <property name="progressive">1</property>
  <property name="seekable">1</property>
  <property name="meta.media.width">800</property>
  <property name="meta.media.height">450</property>
  <property name="mlt_service">qimage</property>
  <property name="kdenlive:clipname">7.png</property>
  <property name="kdenlive:duration">00:00:05.000</property>
  <property name="kdenlive:folderid">80</property>
  <property name="kdenlive:id">94</property>
  <property name="kdenlive:file_size">456833</property>
  <property name="kdenlive:file_hash">6c5000c57a54bb00ced4cf66fd237410</property>
  <property name="kdenlive:proxy">/home/xiaoxiae/.cache/kdenlive/proxy/6c5000c57a54bb00ced4cf66fd237410.png</property>
  <property name="kdenlive:originalurl">video/Complement/7.png</property>
  <property name="global_feed">1</property>
 </producer>
 <producer id="producer130" in="00:00:00.000" out="00:00:00.983">
  <property name="length">60</property>
  <property name="eof">pause</property>
  <property name="resource">/home/xiaoxiae/.cache/kdenlive/proxy/50fa63557874fe0614fd2c6e8d8130ca.mkv</property>
  <property name="audio_index">-1</property>
  <property name="video_index">0</property>
  <property name="mute_on_pause">0</property>
  <property name="mlt_service">avformat-novalidate</property>
  <property name="seekable">1</property>
  <property name="aspect_ratio">1</property>
  <property name="kdenlive:clipname">8.mp4</property>
  <property name="kdenlive:folderid">80</property>
  <property name="kdenlive:id">95</property>
  <property name="kdenlive:file_size">130694</property>
  <property name="kdenlive:file_hash">50fa63557874fe0614fd2c6e8d8130ca</property>
  <property name="kdenlive:proxy">/home/xiaoxiae/.cache/kdenlive/proxy/50fa63557874fe0614fd2c6e8d8130ca.mkv</property>
  <property name="kdenlive:originalurl">video/Complement/8.mp4</property>
  <property name="global_feed">1</property>
  <property name="meta.media.nb_streams">1</property>
  <property name="meta.media.0.stream.type">video</property>
  <property name="meta.media.0.stream.frame_rate">60</property>
  <property name="meta.media.0.stream.sample_aspect_ratio">0</property>
  <property name="meta.media.0.codec.width">640</property>
  <property name="meta.media.0.codec.height">360</property>
  <property name="meta.media.0.codec.rotate">0</property>
  <property name="meta.media.0.codec.frame_rate">60</property>
  <property name="meta.media.0.codec.pix_fmt">yuv420p</property>
  <property name="meta.media.0.codec.sample_aspect_ratio">0</property>
  <property name="meta.media.0.codec.colorspace">601</property>
  <property name="meta.media.0.codec.name">h264</property>
  <property name="meta.media.0.codec.long_name">H.264 / AVC / MPEG-4 AVC / MPEG-4 part 10</property>
  <property name="meta.media.0.codec.bit_rate">0</property>
  <property name="meta.attr.0.stream.HANDLER_NAME.markup">VideoHandler</property>
  <property name="meta.attr.0.stream.VENDOR_ID.markup">[0][0][0][0]</property>
  <property name="meta.attr.0.stream.ENCODER.markup">Lavc58.134.100 libx264</property>
  <property name="meta.attr.0.stream.DURATION.markup">00:00:01.000000000</property>
  <property name="meta.attr.COMMENT.markup">Rendered with Manim Community v0.6.0</property>
  <property name="meta.attr.MAJOR_BRAND.markup">isom</property>
  <property name="meta.attr.MINOR_VERSION.markup">512</property>
  <property name="meta.attr.COMPATIBLE_BRANDS.markup">isomiso2avc1mp41</property>
  <property name="meta.attr.ENCODER.markup">Lavf58.76.100</property>
  <property name="meta.media.sample_aspect_num">1</property>
  <property name="meta.media.sample_aspect_den">1</property>
  <property name="meta.media.frame_rate_num">60</property>
  <property name="meta.media.frame_rate_den">1</property>
  <property name="meta.media.colorspace">601</property>
  <property name="meta.media.color_trc">2</property>
  <property name="meta.media.width">640</property>
  <property name="meta.media.height">360</property>
  <property name="meta.media.color_range">mpeg</property>
  <property name="meta.media.top_field_first">0</property>
  <property name="meta.media.progressive">1</property>
  <property name="kdenlive:original.mlt_type">producer</property>
  <property name="kdenlive:original.in">0</property>
  <property name="kdenlive:original.out">59</property>
  <property name="kdenlive:original.length">60</property>
  <property name="kdenlive:original.eof">pause</property>
  <property name="kdenlive:original.resource">video/Complement/8.mp4</property>
  <property name="kdenlive:original.meta.media.nb_streams">1</property>
  <property name="kdenlive:original.meta.media.0.stream.type">video</property>
  <property name="kdenlive:original.meta.media.0.stream.frame_rate">60</property>
  <property name="kdenlive:original.meta.media.0.stream.sample_aspect_ratio">0</property>
  <property name="kdenlive:original.meta.media.0.codec.width">3840</property>
  <property name="kdenlive:original.meta.media.0.codec.height">2160</property>
  <property name="kdenlive:original.meta.media.0.codec.rotate">0</property>
  <property name="kdenlive:original.meta.media.0.codec.frame_rate">60</property>
  <property name="kdenlive:original.meta.media.0.codec.pix_fmt">yuv420p</property>
  <property name="kdenlive:original.meta.media.0.codec.sample_aspect_ratio">0</property>
  <property name="kdenlive:original.meta.media.0.codec.colorspace">709</property>
  <property name="kdenlive:original.meta.media.0.codec.name">h264</property>
  <property name="kdenlive:original.meta.media.0.codec.long_name">H.264 / AVC / MPEG-4 AVC / MPEG-4 part 10</property>
  <property name="kdenlive:original.meta.media.0.codec.bit_rate">1032504</property>
  <property name="kdenlive:original.meta.attr.0.stream.handler_name.markup">VideoHandler</property>
  <property name="kdenlive:original.meta.attr.0.stream.vendor_id.markup">[0][0][0][0]</property>
  <property name="kdenlive:original.meta.attr.major_brand.markup">isom</property>
  <property name="kdenlive:original.meta.attr.minor_version.markup">512</property>
  <property name="kdenlive:original.meta.attr.compatible_brands.markup">isomiso2avc1mp41</property>
  <property name="kdenlive:original.meta.attr.encoder.markup">Lavf58.76.100</property>
  <property name="kdenlive:original.meta.attr.comment.markup">Rendered with Manim Community v0.6.0</property>
  <property name="kdenlive:original.seekable">1</property>
  <property name="kdenlive:original.width">3840</property>
  <property name="kdenlive:original.height">2160</property>
  <property name="kdenlive:original.meta.media.sample_aspect_num">1</property>
  <property name="kdenlive:original.meta.media.sample_aspect_den">1</property>
  <property name="kdenlive:original.aspect_ratio">1</property>
  <property name="kdenlive:original.audio_index">-1</property>
  <property name="kdenlive:original.video_index">0</property>
  <property name="kdenlive:original.mute_on_pause">1</property>
  <property name="kdenlive:original.mlt_service">avformat</property>
  <property name="kdenlive:original.meta.media.frame_rate_num">60</property>
  <property name="kdenlive:original.meta.media.frame_rate_den">1</property>
  <property name="kdenlive:original.meta.media.colorspace">709</property>
  <property name="kdenlive:original.meta.media.color_trc">2</property>
  <property name="kdenlive:original.meta.media.width">3840</property>
  <property name="kdenlive:original.meta.media.height">2160</property>
  <property name="kdenlive:original.meta.media.color_range">mpeg</property>
  <property name="kdenlive:original.meta.media.top_field_first">0</property>
  <property name="kdenlive:original.meta.media.progressive">1</property>
  <property name="kdenlive:original.backup">1</property>
 </producer>
 <producer id="producer134" in="00:00:00.000" out="00:00:04.983">
  <property name="length">00:00:05.000</property>
  <property name="eof">pause</property>
  <property name="resource">/home/xiaoxiae/.cache/kdenlive/proxy/82881059b147924b45ecc5e47813f0e3.png</property>
  <property name="ttl">25</property>
  <property name="aspect_ratio">1</property>
  <property name="progressive">1</property>
  <property name="seekable">1</property>
  <property name="meta.media.width">800</property>
  <property name="meta.media.height">450</property>
  <property name="mlt_service">qimage</property>
  <property name="kdenlive:clipname">8.png</property>
  <property name="kdenlive:duration">00:00:05.000</property>
  <property name="kdenlive:folderid">80</property>
  <property name="kdenlive:id">96</property>
  <property name="kdenlive:file_size">456969</property>
  <property name="kdenlive:file_hash">82881059b147924b45ecc5e47813f0e3</property>
  <property name="kdenlive:proxy">/home/xiaoxiae/.cache/kdenlive/proxy/82881059b147924b45ecc5e47813f0e3.png</property>
  <property name="kdenlive:originalurl">video/Complement/8.png</property>
  <property name="global_feed">1</property>
 </producer>
 <producer id="producer133" in="00:00:00.000" out="00:00:00.983">
  <property name="length">60</property>
  <property name="eof">pause</property>
  <property name="resource">/home/xiaoxiae/.cache/kdenlive/proxy/00154daab2692ddda15a4f9e77db5876.mkv</property>
  <property name="audio_index">-1</property>
  <property name="video_index">0</property>
  <property name="mute_on_pause">0</property>
  <property name="mlt_service">avformat-novalidate</property>
  <property name="seekable">1</property>
  <property name="aspect_ratio">1</property>
  <property name="kdenlive:clipname">9.mp4</property>
  <property name="kdenlive:folderid">80</property>
  <property name="kdenlive:id">97</property>
  <property name="kdenlive:file_size">125566</property>
  <property name="kdenlive:file_hash">00154daab2692ddda15a4f9e77db5876</property>
  <property name="kdenlive:proxy">/home/xiaoxiae/.cache/kdenlive/proxy/00154daab2692ddda15a4f9e77db5876.mkv</property>
  <property name="kdenlive:originalurl">video/Complement/9.mp4</property>
  <property name="global_feed">1</property>
  <property name="meta.media.nb_streams">1</property>
  <property name="meta.media.0.stream.type">video</property>
  <property name="meta.media.0.stream.frame_rate">60</property>
  <property name="meta.media.0.stream.sample_aspect_ratio">0</property>
  <property name="meta.media.0.codec.width">640</property>
  <property name="meta.media.0.codec.height">360</property>
  <property name="meta.media.0.codec.rotate">0</property>
  <property name="meta.media.0.codec.frame_rate">60</property>
  <property name="meta.media.0.codec.pix_fmt">yuv420p</property>
  <property name="meta.media.0.codec.sample_aspect_ratio">0</property>
  <property name="meta.media.0.codec.colorspace">601</property>
  <property name="meta.media.0.codec.name">h264</property>
  <property name="meta.media.0.codec.long_name">H.264 / AVC / MPEG-4 AVC / MPEG-4 part 10</property>
  <property name="meta.media.0.codec.bit_rate">0</property>
  <property name="meta.attr.0.stream.HANDLER_NAME.markup">VideoHandler</property>
  <property name="meta.attr.0.stream.VENDOR_ID.markup">[0][0][0][0]</property>
  <property name="meta.attr.0.stream.ENCODER.markup">Lavc58.134.100 libx264</property>
  <property name="meta.attr.0.stream.DURATION.markup">00:00:01.000000000</property>
  <property name="meta.attr.COMMENT.markup">Rendered with Manim Community v0.6.0</property>
  <property name="meta.attr.MAJOR_BRAND.markup">isom</property>
  <property name="meta.attr.MINOR_VERSION.markup">512</property>
  <property name="meta.attr.COMPATIBLE_BRANDS.markup">isomiso2avc1mp41</property>
  <property name="meta.attr.ENCODER.markup">Lavf58.76.100</property>
  <property name="meta.media.sample_aspect_num">1</property>
  <property name="meta.media.sample_aspect_den">1</property>
  <property name="meta.media.frame_rate_num">60</property>
  <property name="meta.media.frame_rate_den">1</property>
  <property name="meta.media.colorspace">601</property>
  <property name="meta.media.color_trc">2</property>
  <property name="meta.media.width">640</property>
  <property name="meta.media.height">360</property>
  <property name="meta.media.color_range">mpeg</property>
  <property name="meta.media.top_field_first">0</property>
  <property name="meta.media.progressive">1</property>
  <property name="kdenlive:original.mlt_type">producer</property>
  <property name="kdenlive:original.in">0</property>
  <property name="kdenlive:original.out">59</property>
  <property name="kdenlive:original.length">60</property>
  <property name="kdenlive:original.eof">pause</property>
  <property name="kdenlive:original.resource">video/Complement/9.mp4</property>
  <property name="kdenlive:original.meta.media.nb_streams">1</property>
  <property name="kdenlive:original.meta.media.0.stream.type">video</property>
  <property name="kdenlive:original.meta.media.0.stream.frame_rate">60</property>
  <property name="kdenlive:original.meta.media.0.stream.sample_aspect_ratio">0</property>
  <property name="kdenlive:original.meta.media.0.codec.width">3840</property>
  <property name="kdenlive:original.meta.media.0.codec.height">2160</property>
  <property name="kdenlive:original.meta.media.0.codec.rotate">0</property>
  <property name="kdenlive:original.meta.media.0.codec.frame_rate">60</property>
  <property name="kdenlive:original.meta.media.0.codec.pix_fmt">yuv420p</property>
  <property name="kdenlive:original.meta.media.0.codec.sample_aspect_ratio">0</property>
  <property name="kdenlive:original.meta.media.0.codec.colorspace">709</property>
  <property name="kdenlive:original.meta.media.0.codec.name">h264</property>
  <property name="kdenlive:original.meta.media.0.codec.long_name">H.264 / AVC / MPEG-4 AVC / MPEG-4 part 10</property>
  <property name="kdenlive:original.meta.media.0.codec.bit_rate">991480</property>
  <property name="kdenlive:original.meta.attr.0.stream.handler_name.markup">VideoHandler</property>
  <property name="kdenlive:original.meta.attr.0.stream.vendor_id.markup">[0][0][0][0]</property>
  <property name="kdenlive:original.meta.attr.major_brand.markup">isom</property>
  <property name="kdenlive:original.meta.attr.minor_version.markup">512</property>
  <property name="kdenlive:original.meta.attr.compatible_brands.markup">isomiso2avc1mp41</property>
  <property name="kdenlive:original.meta.attr.encoder.markup">Lavf58.76.100</property>
  <property name="kdenlive:original.meta.attr.comment.markup">Rendered with Manim Community v0.6.0</property>
  <property name="kdenlive:original.seekable">1</property>
  <property name="kdenlive:original.width">3840</property>
  <property name="kdenlive:original.height">2160</property>
  <property name="kdenlive:original.meta.media.sample_aspect_num">1</property>
  <property name="kdenlive:original.meta.media.sample_aspect_den">1</property>
  <property name="kdenlive:original.aspect_ratio">1</property>
  <property name="kdenlive:original.audio_index">-1</property>
  <property name="kdenlive:original.video_index">0</property>
  <property name="kdenlive:original.mute_on_pause">1</property>
  <property name="kdenlive:original.mlt_service">avformat</property>
  <property name="kdenlive:original.meta.media.frame_rate_num">60</property>
  <property name="kdenlive:original.meta.media.frame_rate_den">1</property>
  <property name="kdenlive:original.meta.media.colorspace">709</property>
  <property name="kdenlive:original.meta.media.color_trc">2</property>
  <property name="kdenlive:original.meta.media.width">3840</property>
  <property name="kdenlive:original.meta.media.height">2160</property>
  <property name="kdenlive:original.meta.media.color_range">mpeg</property>
  <property name="kdenlive:original.meta.media.top_field_first">0</property>
  <property name="kdenlive:original.meta.media.progressive">1</property>
  <property name="kdenlive:original.backup">1</property>
 </producer>
 <producer id="producer135" in="00:00:00.000" out="00:00:04.983">
  <property name="length">00:00:05.000</property>
  <property name="eof">pause</property>
  <property name="resource">/home/xiaoxiae/.cache/kdenlive/proxy/6b665121ca7b54a5f5307b69451fd23c.png</property>
  <property name="ttl">25</property>
  <property name="aspect_ratio">1</property>
  <property name="progressive">1</property>
  <property name="seekable">1</property>
  <property name="meta.media.width">800</property>
  <property name="meta.media.height">450</property>
  <property name="mlt_service">qimage</property>
  <property name="kdenlive:clipname">9.png</property>
  <property name="kdenlive:duration">00:00:05.000</property>
  <property name="kdenlive:folderid">80</property>
  <property name="kdenlive:id">98</property>
  <property name="kdenlive:file_size">24337</property>
  <property name="kdenlive:file_hash">6b665121ca7b54a5f5307b69451fd23c</property>
  <property name="kdenlive:proxy">/home/xiaoxiae/.cache/kdenlive/proxy/6b665121ca7b54a5f5307b69451fd23c.png</property>
  <property name="kdenlive:originalurl">video/Complement/9.png</property>
  <property name="global_feed">1</property>
 </producer>
 <producer id="producer139" in="00:00:00.000" out="00:00:01.983">
  <property name="length">120</property>
  <property name="eof">pause</property>
  <property name="resource">/home/xiaoxiae/.cache/kdenlive/proxy/777c766ed6d476488e509404686fb27c.mkv</property>
  <property name="audio_index">-1</property>
  <property name="video_index">0</property>
  <property name="mute_on_pause">0</property>
  <property name="mlt_service">avformat-novalidate</property>
  <property name="seekable">1</property>
  <property name="aspect_ratio">1</property>
  <property name="kdenlive:clipname">1.mp4</property>
  <property name="kdenlive:folderid">99</property>
  <property name="kdenlive:id">100</property>
  <property name="kdenlive:file_size">107764</property>
  <property name="kdenlive:file_hash">777c766ed6d476488e509404686fb27c</property>
  <property name="kdenlive:proxy">/home/xiaoxiae/.cache/kdenlive/proxy/777c766ed6d476488e509404686fb27c.mkv</property>
  <property name="kdenlive:originalurl">video/InducedSubgraph/1.mp4</property>
  <property name="global_feed">1</property>
  <property name="meta.media.nb_streams">1</property>
  <property name="meta.media.0.stream.type">video</property>
  <property name="meta.media.0.stream.frame_rate">60</property>
  <property name="meta.media.0.stream.sample_aspect_ratio">0</property>
  <property name="meta.media.0.codec.width">640</property>
  <property name="meta.media.0.codec.height">360</property>
  <property name="meta.media.0.codec.rotate">0</property>
  <property name="meta.media.0.codec.frame_rate">60</property>
  <property name="meta.media.0.codec.pix_fmt">yuv420p</property>
  <property name="meta.media.0.codec.sample_aspect_ratio">0</property>
  <property name="meta.media.0.codec.colorspace">601</property>
  <property name="meta.media.0.codec.name">h264</property>
  <property name="meta.media.0.codec.long_name">H.264 / AVC / MPEG-4 AVC / MPEG-4 part 10</property>
  <property name="meta.media.0.codec.bit_rate">0</property>
  <property name="meta.attr.0.stream.HANDLER_NAME.markup">VideoHandler</property>
  <property name="meta.attr.0.stream.VENDOR_ID.markup">[0][0][0][0]</property>
  <property name="meta.attr.0.stream.ENCODER.markup">Lavc58.134.100 libx264</property>
  <property name="meta.attr.0.stream.DURATION.markup">00:00:02.000000000</property>
  <property name="meta.attr.COMMENT.markup">Rendered with Manim Community v0.6.0</property>
  <property name="meta.attr.MAJOR_BRAND.markup">isom</property>
  <property name="meta.attr.MINOR_VERSION.markup">512</property>
  <property name="meta.attr.COMPATIBLE_BRANDS.markup">isomiso2avc1mp41</property>
  <property name="meta.attr.ENCODER.markup">Lavf58.76.100</property>
  <property name="meta.media.sample_aspect_num">1</property>
  <property name="meta.media.sample_aspect_den">1</property>
  <property name="meta.media.frame_rate_num">60</property>
  <property name="meta.media.frame_rate_den">1</property>
  <property name="meta.media.colorspace">601</property>
  <property name="meta.media.color_trc">2</property>
  <property name="meta.media.width">640</property>
  <property name="meta.media.height">360</property>
  <property name="meta.media.color_range">mpeg</property>
  <property name="meta.media.top_field_first">0</property>
  <property name="meta.media.progressive">1</property>
  <property name="kdenlive:original.mlt_type">producer</property>
  <property name="kdenlive:original.in">0</property>
  <property name="kdenlive:original.out">119</property>
  <property name="kdenlive:original.length">120</property>
  <property name="kdenlive:original.eof">pause</property>
  <property name="kdenlive:original.resource">video/InducedSubgraph/1.mp4</property>
  <property name="kdenlive:original.meta.media.nb_streams">1</property>
  <property name="kdenlive:original.meta.media.0.stream.type">video</property>
  <property name="kdenlive:original.meta.media.0.stream.frame_rate">60</property>
  <property name="kdenlive:original.meta.media.0.stream.sample_aspect_ratio">0</property>
  <property name="kdenlive:original.meta.media.0.codec.width">3840</property>
  <property name="kdenlive:original.meta.media.0.codec.height">2160</property>
  <property name="kdenlive:original.meta.media.0.codec.rotate">0</property>
  <property name="kdenlive:original.meta.media.0.codec.frame_rate">60</property>
  <property name="kdenlive:original.meta.media.0.codec.pix_fmt">yuv420p</property>
  <property name="kdenlive:original.meta.media.0.codec.sample_aspect_ratio">0</property>
  <property name="kdenlive:original.meta.media.0.codec.colorspace">709</property>
  <property name="kdenlive:original.meta.media.0.codec.name">h264</property>
  <property name="kdenlive:original.meta.media.0.codec.long_name">H.264 / AVC / MPEG-4 AVC / MPEG-4 part 10</property>
  <property name="kdenlive:original.meta.media.0.codec.bit_rate">421652</property>
  <property name="kdenlive:original.meta.attr.0.stream.handler_name.markup">VideoHandler</property>
  <property name="kdenlive:original.meta.attr.0.stream.vendor_id.markup">[0][0][0][0]</property>
  <property name="kdenlive:original.meta.attr.major_brand.markup">isom</property>
  <property name="kdenlive:original.meta.attr.minor_version.markup">512</property>
  <property name="kdenlive:original.meta.attr.compatible_brands.markup">isomiso2avc1mp41</property>
  <property name="kdenlive:original.meta.attr.encoder.markup">Lavf58.76.100</property>
  <property name="kdenlive:original.meta.attr.comment.markup">Rendered with Manim Community v0.6.0</property>
  <property name="kdenlive:original.seekable">1</property>
  <property name="kdenlive:original.width">3840</property>
  <property name="kdenlive:original.height">2160</property>
  <property name="kdenlive:original.meta.media.sample_aspect_num">1</property>
  <property name="kdenlive:original.meta.media.sample_aspect_den">1</property>
  <property name="kdenlive:original.aspect_ratio">1</property>
  <property name="kdenlive:original.audio_index">-1</property>
  <property name="kdenlive:original.video_index">0</property>
  <property name="kdenlive:original.mute_on_pause">1</property>
  <property name="kdenlive:original.mlt_service">avformat</property>
  <property name="kdenlive:original.meta.media.frame_rate_num">60</property>
  <property name="kdenlive:original.meta.media.frame_rate_den">1</property>
  <property name="kdenlive:original.meta.media.colorspace">709</property>
  <property name="kdenlive:original.meta.media.color_trc">2</property>
  <property name="kdenlive:original.meta.media.width">3840</property>
  <property name="kdenlive:original.meta.media.height">2160</property>
  <property name="kdenlive:original.meta.media.color_range">mpeg</property>
  <property name="kdenlive:original.meta.media.top_field_first">0</property>
  <property name="kdenlive:original.meta.media.progressive">1</property>
  <property name="kdenlive:original.backup">1</property>
 </producer>
 <producer id="producer137" in="00:00:00.000" out="00:00:04.983">
  <property name="length">00:00:05.000</property>
  <property name="eof">pause</property>
  <property name="resource">/home/xiaoxiae/.cache/kdenlive/proxy/ccef6a0ea41475c5702ede1f97778785.png</property>
  <property name="ttl">25</property>
  <property name="aspect_ratio">1</property>
  <property name="progressive">1</property>
  <property name="seekable">1</property>
  <property name="meta.media.width">800</property>
  <property name="meta.media.height">450</property>
  <property name="mlt_service">qimage</property>
  <property name="kdenlive:clipname">1.png</property>
  <property name="kdenlive:duration">00:00:05.000</property>
  <property name="kdenlive:folderid">99</property>
  <property name="kdenlive:id">101</property>
  <property name="kdenlive:file_size">89567</property>
  <property name="kdenlive:file_hash">ccef6a0ea41475c5702ede1f97778785</property>
  <property name="kdenlive:proxy">/home/xiaoxiae/.cache/kdenlive/proxy/ccef6a0ea41475c5702ede1f97778785.png</property>
  <property name="kdenlive:originalurl">video/InducedSubgraph/1.png</property>
  <property name="global_feed">1</property>
 </producer>
 <producer id="producer138" in="00:00:00.000" out="00:00:00.983">
  <property name="length">60</property>
  <property name="eof">pause</property>
  <property name="resource">/home/xiaoxiae/.cache/kdenlive/proxy/75c3f51e3976b61f27f0923c4eef01bd.mkv</property>
  <property name="audio_index">-1</property>
  <property name="video_index">0</property>
  <property name="mute_on_pause">0</property>
  <property name="mlt_service">avformat-novalidate</property>
  <property name="seekable">1</property>
  <property name="aspect_ratio">1</property>
  <property name="kdenlive:clipname">10.mp4</property>
  <property name="kdenlive:folderid">99</property>
  <property name="kdenlive:id">102</property>
  <property name="kdenlive:file_size">139572</property>
  <property name="kdenlive:file_hash">75c3f51e3976b61f27f0923c4eef01bd</property>
  <property name="kdenlive:proxy">/home/xiaoxiae/.cache/kdenlive/proxy/75c3f51e3976b61f27f0923c4eef01bd.mkv</property>
  <property name="kdenlive:originalurl">video/InducedSubgraph/10.mp4</property>
  <property name="global_feed">1</property>
  <property name="meta.media.nb_streams">1</property>
  <property name="meta.media.0.stream.type">video</property>
  <property name="meta.media.0.stream.frame_rate">60</property>
  <property name="meta.media.0.stream.sample_aspect_ratio">0</property>
  <property name="meta.media.0.codec.width">640</property>
  <property name="meta.media.0.codec.height">360</property>
  <property name="meta.media.0.codec.rotate">0</property>
  <property name="meta.media.0.codec.frame_rate">60</property>
  <property name="meta.media.0.codec.pix_fmt">yuv420p</property>
  <property name="meta.media.0.codec.sample_aspect_ratio">0</property>
  <property name="meta.media.0.codec.colorspace">601</property>
  <property name="meta.media.0.codec.name">h264</property>
  <property name="meta.media.0.codec.long_name">H.264 / AVC / MPEG-4 AVC / MPEG-4 part 10</property>
  <property name="meta.media.0.codec.bit_rate">0</property>
  <property name="meta.attr.0.stream.HANDLER_NAME.markup">VideoHandler</property>
  <property name="meta.attr.0.stream.VENDOR_ID.markup">[0][0][0][0]</property>
  <property name="meta.attr.0.stream.ENCODER.markup">Lavc58.134.100 libx264</property>
  <property name="meta.attr.0.stream.DURATION.markup">00:00:01.000000000</property>
  <property name="meta.attr.COMMENT.markup">Rendered with Manim Community v0.6.0</property>
  <property name="meta.attr.MAJOR_BRAND.markup">isom</property>
  <property name="meta.attr.MINOR_VERSION.markup">512</property>
  <property name="meta.attr.COMPATIBLE_BRANDS.markup">isomiso2avc1mp41</property>
  <property name="meta.attr.ENCODER.markup">Lavf58.76.100</property>
  <property name="meta.media.sample_aspect_num">1</property>
  <property name="meta.media.sample_aspect_den">1</property>
  <property name="meta.media.frame_rate_num">60</property>
  <property name="meta.media.frame_rate_den">1</property>
  <property name="meta.media.colorspace">601</property>
  <property name="meta.media.color_trc">2</property>
  <property name="meta.media.width">640</property>
  <property name="meta.media.height">360</property>
  <property name="meta.media.color_range">mpeg</property>
  <property name="meta.media.top_field_first">0</property>
  <property name="meta.media.progressive">1</property>
  <property name="kdenlive:original.mlt_type">producer</property>
  <property name="kdenlive:original.in">0</property>
  <property name="kdenlive:original.out">59</property>
  <property name="kdenlive:original.length">60</property>
  <property name="kdenlive:original.eof">pause</property>
  <property name="kdenlive:original.resource">video/InducedSubgraph/10.mp4</property>
  <property name="kdenlive:original.meta.media.nb_streams">1</property>
  <property name="kdenlive:original.meta.media.0.stream.type">video</property>
  <property name="kdenlive:original.meta.media.0.stream.frame_rate">60</property>
  <property name="kdenlive:original.meta.media.0.stream.sample_aspect_ratio">0</property>
  <property name="kdenlive:original.meta.media.0.codec.width">3840</property>
  <property name="kdenlive:original.meta.media.0.codec.height">2160</property>
  <property name="kdenlive:original.meta.media.0.codec.rotate">0</property>
  <property name="kdenlive:original.meta.media.0.codec.frame_rate">60</property>
  <property name="kdenlive:original.meta.media.0.codec.pix_fmt">yuv420p</property>
  <property name="kdenlive:original.meta.media.0.codec.sample_aspect_ratio">0</property>
  <property name="kdenlive:original.meta.media.0.codec.colorspace">709</property>
  <property name="kdenlive:original.meta.media.0.codec.name">h264</property>
  <property name="kdenlive:original.meta.media.0.codec.long_name">H.264 / AVC / MPEG-4 AVC / MPEG-4 part 10</property>
  <property name="kdenlive:original.meta.media.0.codec.bit_rate">1103528</property>
  <property name="kdenlive:original.meta.attr.0.stream.handler_name.markup">VideoHandler</property>
  <property name="kdenlive:original.meta.attr.0.stream.vendor_id.markup">[0][0][0][0]</property>
  <property name="kdenlive:original.meta.attr.major_brand.markup">isom</property>
  <property name="kdenlive:original.meta.attr.minor_version.markup">512</property>
  <property name="kdenlive:original.meta.attr.compatible_brands.markup">isomiso2avc1mp41</property>
  <property name="kdenlive:original.meta.attr.encoder.markup">Lavf58.76.100</property>
  <property name="kdenlive:original.meta.attr.comment.markup">Rendered with Manim Community v0.6.0</property>
  <property name="kdenlive:original.seekable">1</property>
  <property name="kdenlive:original.width">3840</property>
  <property name="kdenlive:original.height">2160</property>
  <property name="kdenlive:original.meta.media.sample_aspect_num">1</property>
  <property name="kdenlive:original.meta.media.sample_aspect_den">1</property>
  <property name="kdenlive:original.aspect_ratio">1</property>
  <property name="kdenlive:original.audio_index">-1</property>
  <property name="kdenlive:original.video_index">0</property>
  <property name="kdenlive:original.mute_on_pause">1</property>
  <property name="kdenlive:original.mlt_service">avformat</property>
  <property name="kdenlive:original.meta.media.frame_rate_num">60</property>
  <property name="kdenlive:original.meta.media.frame_rate_den">1</property>
  <property name="kdenlive:original.meta.media.colorspace">709</property>
  <property name="kdenlive:original.meta.media.color_trc">2</property>
  <property name="kdenlive:original.meta.media.width">3840</property>
  <property name="kdenlive:original.meta.media.height">2160</property>
  <property name="kdenlive:original.meta.media.color_range">mpeg</property>
  <property name="kdenlive:original.meta.media.top_field_first">0</property>
  <property name="kdenlive:original.meta.media.progressive">1</property>
  <property name="kdenlive:original.backup">1</property>
 </producer>
 <producer id="producer140" in="00:00:00.000" out="00:00:04.983">
  <property name="length">00:00:05.000</property>
  <property name="eof">pause</property>
  <property name="resource">/home/xiaoxiae/.cache/kdenlive/proxy/37d727545170981c20ec6d6e4655be11.png</property>
  <property name="ttl">25</property>
  <property name="aspect_ratio">1</property>
  <property name="progressive">1</property>
  <property name="seekable">1</property>
  <property name="meta.media.width">800</property>
  <property name="meta.media.height">450</property>
  <property name="mlt_service">qimage</property>
  <property name="kdenlive:clipname">10.png</property>
  <property name="kdenlive:duration">00:00:05.000</property>
  <property name="kdenlive:folderid">99</property>
  <property name="kdenlive:id">103</property>
  <property name="kdenlive:file_size">495758</property>
  <property name="kdenlive:file_hash">37d727545170981c20ec6d6e4655be11</property>
  <property name="kdenlive:proxy">/home/xiaoxiae/.cache/kdenlive/proxy/37d727545170981c20ec6d6e4655be11.png</property>
  <property name="kdenlive:originalurl">video/InducedSubgraph/10.png</property>
  <property name="global_feed">1</property>
 </producer>
 <producer id="producer141" in="00:00:00.000" out="00:00:00.983">
  <property name="length">60</property>
  <property name="eof">pause</property>
  <property name="resource">/home/xiaoxiae/.cache/kdenlive/proxy/3d6eac3cb75df528b8650e2e54b2d093.mkv</property>
  <property name="audio_index">-1</property>
  <property name="video_index">0</property>
  <property name="mute_on_pause">0</property>
  <property name="mlt_service">avformat-novalidate</property>
  <property name="seekable">1</property>
  <property name="aspect_ratio">1</property>
  <property name="kdenlive:clipname">11.mp4</property>
  <property name="kdenlive:folderid">99</property>
  <property name="kdenlive:id">104</property>
  <property name="kdenlive:file_size">133465</property>
  <property name="kdenlive:file_hash">3d6eac3cb75df528b8650e2e54b2d093</property>
  <property name="kdenlive:proxy">/home/xiaoxiae/.cache/kdenlive/proxy/3d6eac3cb75df528b8650e2e54b2d093.mkv</property>
  <property name="kdenlive:originalurl">video/InducedSubgraph/11.mp4</property>
  <property name="global_feed">1</property>
  <property name="meta.media.nb_streams">1</property>
  <property name="meta.media.0.stream.type">video</property>
  <property name="meta.media.0.stream.frame_rate">60</property>
  <property name="meta.media.0.stream.sample_aspect_ratio">0</property>
  <property name="meta.media.0.codec.width">640</property>
  <property name="meta.media.0.codec.height">360</property>
  <property name="meta.media.0.codec.rotate">0</property>
  <property name="meta.media.0.codec.frame_rate">60</property>
  <property name="meta.media.0.codec.pix_fmt">yuv420p</property>
  <property name="meta.media.0.codec.sample_aspect_ratio">0</property>
  <property name="meta.media.0.codec.colorspace">601</property>
  <property name="meta.media.0.codec.name">h264</property>
  <property name="meta.media.0.codec.long_name">H.264 / AVC / MPEG-4 AVC / MPEG-4 part 10</property>
  <property name="meta.media.0.codec.bit_rate">0</property>
  <property name="meta.attr.0.stream.HANDLER_NAME.markup">VideoHandler</property>
  <property name="meta.attr.0.stream.VENDOR_ID.markup">[0][0][0][0]</property>
  <property name="meta.attr.0.stream.ENCODER.markup">Lavc58.134.100 libx264</property>
  <property name="meta.attr.0.stream.DURATION.markup">00:00:01.000000000</property>
  <property name="meta.attr.COMMENT.markup">Rendered with Manim Community v0.6.0</property>
  <property name="meta.attr.MAJOR_BRAND.markup">isom</property>
  <property name="meta.attr.MINOR_VERSION.markup">512</property>
  <property name="meta.attr.COMPATIBLE_BRANDS.markup">isomiso2avc1mp41</property>
  <property name="meta.attr.ENCODER.markup">Lavf58.76.100</property>
  <property name="meta.media.sample_aspect_num">1</property>
  <property name="meta.media.sample_aspect_den">1</property>
  <property name="meta.media.frame_rate_num">60</property>
  <property name="meta.media.frame_rate_den">1</property>
  <property name="meta.media.colorspace">601</property>
  <property name="meta.media.color_trc">2</property>
  <property name="meta.media.width">640</property>
  <property name="meta.media.height">360</property>
  <property name="meta.media.color_range">mpeg</property>
  <property name="meta.media.top_field_first">0</property>
  <property name="meta.media.progressive">1</property>
  <property name="kdenlive:original.mlt_type">producer</property>
  <property name="kdenlive:original.in">0</property>
  <property name="kdenlive:original.out">59</property>
  <property name="kdenlive:original.length">60</property>
  <property name="kdenlive:original.eof">pause</property>
  <property name="kdenlive:original.resource">video/InducedSubgraph/11.mp4</property>
  <property name="kdenlive:original.meta.media.nb_streams">1</property>
  <property name="kdenlive:original.meta.media.0.stream.type">video</property>
  <property name="kdenlive:original.meta.media.0.stream.frame_rate">60</property>
  <property name="kdenlive:original.meta.media.0.stream.sample_aspect_ratio">0</property>
  <property name="kdenlive:original.meta.media.0.codec.width">3840</property>
  <property name="kdenlive:original.meta.media.0.codec.height">2160</property>
  <property name="kdenlive:original.meta.media.0.codec.rotate">0</property>
  <property name="kdenlive:original.meta.media.0.codec.frame_rate">60</property>
  <property name="kdenlive:original.meta.media.0.codec.pix_fmt">yuv420p</property>
  <property name="kdenlive:original.meta.media.0.codec.sample_aspect_ratio">0</property>
  <property name="kdenlive:original.meta.media.0.codec.colorspace">709</property>
  <property name="kdenlive:original.meta.media.0.codec.name">h264</property>
  <property name="kdenlive:original.meta.media.0.codec.long_name">H.264 / AVC / MPEG-4 AVC / MPEG-4 part 10</property>
  <property name="kdenlive:original.meta.media.0.codec.bit_rate">1054672</property>
  <property name="kdenlive:original.meta.attr.0.stream.handler_name.markup">VideoHandler</property>
  <property name="kdenlive:original.meta.attr.0.stream.vendor_id.markup">[0][0][0][0]</property>
  <property name="kdenlive:original.meta.attr.major_brand.markup">isom</property>
  <property name="kdenlive:original.meta.attr.minor_version.markup">512</property>
  <property name="kdenlive:original.meta.attr.compatible_brands.markup">isomiso2avc1mp41</property>
  <property name="kdenlive:original.meta.attr.encoder.markup">Lavf58.76.100</property>
  <property name="kdenlive:original.meta.attr.comment.markup">Rendered with Manim Community v0.6.0</property>
  <property name="kdenlive:original.seekable">1</property>
  <property name="kdenlive:original.width">3840</property>
  <property name="kdenlive:original.height">2160</property>
  <property name="kdenlive:original.meta.media.sample_aspect_num">1</property>
  <property name="kdenlive:original.meta.media.sample_aspect_den">1</property>
  <property name="kdenlive:original.aspect_ratio">1</property>
  <property name="kdenlive:original.audio_index">-1</property>
  <property name="kdenlive:original.video_index">0</property>
  <property name="kdenlive:original.mute_on_pause">1</property>
  <property name="kdenlive:original.mlt_service">avformat</property>
  <property name="kdenlive:original.meta.media.frame_rate_num">60</property>
  <property name="kdenlive:original.meta.media.frame_rate_den">1</property>
  <property name="kdenlive:original.meta.media.colorspace">709</property>
  <property name="kdenlive:original.meta.media.color_trc">2</property>
  <property name="kdenlive:original.meta.media.width">3840</property>
  <property name="kdenlive:original.meta.media.height">2160</property>
  <property name="kdenlive:original.meta.media.color_range">mpeg</property>
  <property name="kdenlive:original.meta.media.top_field_first">0</property>
  <property name="kdenlive:original.meta.media.progressive">1</property>
  <property name="kdenlive:original.backup">1</property>
 </producer>
 <producer id="producer142" in="00:00:00.000" out="00:00:04.983">
  <property name="length">00:00:05.000</property>
  <property name="eof">pause</property>
  <property name="resource">/home/xiaoxiae/.cache/kdenlive/proxy/441594a1ca0ccf9ff77457d466f4b00a.png</property>
  <property name="ttl">25</property>
  <property name="aspect_ratio">1</property>
  <property name="progressive">1</property>
  <property name="seekable">1</property>
  <property name="meta.media.width">800</property>
  <property name="meta.media.height">450</property>
  <property name="mlt_service">qimage</property>
  <property name="kdenlive:clipname">11.png</property>
  <property name="kdenlive:duration">00:00:05.000</property>
  <property name="kdenlive:folderid">99</property>
  <property name="kdenlive:id">105</property>
  <property name="kdenlive:file_size">494940</property>
  <property name="kdenlive:file_hash">441594a1ca0ccf9ff77457d466f4b00a</property>
  <property name="kdenlive:proxy">/home/xiaoxiae/.cache/kdenlive/proxy/441594a1ca0ccf9ff77457d466f4b00a.png</property>
  <property name="kdenlive:originalurl">video/InducedSubgraph/11.png</property>
  <property name="global_feed">1</property>
 </producer>
 <producer id="producer144" in="00:00:00.000" out="00:00:00.983">
  <property name="length">60</property>
  <property name="eof">pause</property>
  <property name="resource">/home/xiaoxiae/.cache/kdenlive/proxy/416bd5f0d1ff2aea2e7df82952d40a51.mkv</property>
  <property name="audio_index">-1</property>
  <property name="video_index">0</property>
  <property name="mute_on_pause">0</property>
  <property name="mlt_service">avformat-novalidate</property>
  <property name="seekable">1</property>
  <property name="aspect_ratio">1</property>
  <property name="kdenlive:clipname">12.mp4</property>
  <property name="kdenlive:folderid">99</property>
  <property name="kdenlive:id">106</property>
  <property name="kdenlive:file_size">129957</property>
  <property name="kdenlive:file_hash">416bd5f0d1ff2aea2e7df82952d40a51</property>
  <property name="kdenlive:proxy">/home/xiaoxiae/.cache/kdenlive/proxy/416bd5f0d1ff2aea2e7df82952d40a51.mkv</property>
  <property name="kdenlive:originalurl">video/InducedSubgraph/12.mp4</property>
  <property name="global_feed">1</property>
  <property name="meta.media.nb_streams">1</property>
  <property name="meta.media.0.stream.type">video</property>
  <property name="meta.media.0.stream.frame_rate">60</property>
  <property name="meta.media.0.stream.sample_aspect_ratio">0</property>
  <property name="meta.media.0.codec.width">640</property>
  <property name="meta.media.0.codec.height">360</property>
  <property name="meta.media.0.codec.rotate">0</property>
  <property name="meta.media.0.codec.frame_rate">60</property>
  <property name="meta.media.0.codec.pix_fmt">yuv420p</property>
  <property name="meta.media.0.codec.sample_aspect_ratio">0</property>
  <property name="meta.media.0.codec.colorspace">601</property>
  <property name="meta.media.0.codec.name">h264</property>
  <property name="meta.media.0.codec.long_name">H.264 / AVC / MPEG-4 AVC / MPEG-4 part 10</property>
  <property name="meta.media.0.codec.bit_rate">0</property>
  <property name="meta.attr.0.stream.HANDLER_NAME.markup">VideoHandler</property>
  <property name="meta.attr.0.stream.VENDOR_ID.markup">[0][0][0][0]</property>
  <property name="meta.attr.0.stream.ENCODER.markup">Lavc58.134.100 libx264</property>
  <property name="meta.attr.0.stream.DURATION.markup">00:00:01.000000000</property>
  <property name="meta.attr.COMMENT.markup">Rendered with Manim Community v0.6.0</property>
  <property name="meta.attr.MAJOR_BRAND.markup">isom</property>
  <property name="meta.attr.MINOR_VERSION.markup">512</property>
  <property name="meta.attr.COMPATIBLE_BRANDS.markup">isomiso2avc1mp41</property>
  <property name="meta.attr.ENCODER.markup">Lavf58.76.100</property>
  <property name="meta.media.sample_aspect_num">1</property>
  <property name="meta.media.sample_aspect_den">1</property>
  <property name="meta.media.frame_rate_num">60</property>
  <property name="meta.media.frame_rate_den">1</property>
  <property name="meta.media.colorspace">601</property>
  <property name="meta.media.color_trc">2</property>
  <property name="meta.media.width">640</property>
  <property name="meta.media.height">360</property>
  <property name="meta.media.color_range">mpeg</property>
  <property name="meta.media.top_field_first">0</property>
  <property name="meta.media.progressive">1</property>
  <property name="kdenlive:original.mlt_type">producer</property>
  <property name="kdenlive:original.in">0</property>
  <property name="kdenlive:original.out">59</property>
  <property name="kdenlive:original.length">60</property>
  <property name="kdenlive:original.eof">pause</property>
  <property name="kdenlive:original.resource">video/InducedSubgraph/12.mp4</property>
  <property name="kdenlive:original.meta.media.nb_streams">1</property>
  <property name="kdenlive:original.meta.media.0.stream.type">video</property>
  <property name="kdenlive:original.meta.media.0.stream.frame_rate">60</property>
  <property name="kdenlive:original.meta.media.0.stream.sample_aspect_ratio">0</property>
  <property name="kdenlive:original.meta.media.0.codec.width">3840</property>
  <property name="kdenlive:original.meta.media.0.codec.height">2160</property>
  <property name="kdenlive:original.meta.media.0.codec.rotate">0</property>
  <property name="kdenlive:original.meta.media.0.codec.frame_rate">60</property>
  <property name="kdenlive:original.meta.media.0.codec.pix_fmt">yuv420p</property>
  <property name="kdenlive:original.meta.media.0.codec.sample_aspect_ratio">0</property>
  <property name="kdenlive:original.meta.media.0.codec.colorspace">709</property>
  <property name="kdenlive:original.meta.media.0.codec.name">h264</property>
  <property name="kdenlive:original.meta.media.0.codec.long_name">H.264 / AVC / MPEG-4 AVC / MPEG-4 part 10</property>
  <property name="kdenlive:original.meta.media.0.codec.bit_rate">1026544</property>
  <property name="kdenlive:original.meta.attr.0.stream.handler_name.markup">VideoHandler</property>
  <property name="kdenlive:original.meta.attr.0.stream.vendor_id.markup">[0][0][0][0]</property>
  <property name="kdenlive:original.meta.attr.major_brand.markup">isom</property>
  <property name="kdenlive:original.meta.attr.minor_version.markup">512</property>
  <property name="kdenlive:original.meta.attr.compatible_brands.markup">isomiso2avc1mp41</property>
  <property name="kdenlive:original.meta.attr.encoder.markup">Lavf58.76.100</property>
  <property name="kdenlive:original.meta.attr.comment.markup">Rendered with Manim Community v0.6.0</property>
  <property name="kdenlive:original.seekable">1</property>
  <property name="kdenlive:original.width">3840</property>
  <property name="kdenlive:original.height">2160</property>
  <property name="kdenlive:original.meta.media.sample_aspect_num">1</property>
  <property name="kdenlive:original.meta.media.sample_aspect_den">1</property>
  <property name="kdenlive:original.aspect_ratio">1</property>
  <property name="kdenlive:original.audio_index">-1</property>
  <property name="kdenlive:original.video_index">0</property>
  <property name="kdenlive:original.mute_on_pause">1</property>
  <property name="kdenlive:original.mlt_service">avformat</property>
  <property name="kdenlive:original.meta.media.frame_rate_num">60</property>
  <property name="kdenlive:original.meta.media.frame_rate_den">1</property>
  <property name="kdenlive:original.meta.media.colorspace">709</property>
  <property name="kdenlive:original.meta.media.color_trc">2</property>
  <property name="kdenlive:original.meta.media.width">3840</property>
  <property name="kdenlive:original.meta.media.height">2160</property>
  <property name="kdenlive:original.meta.media.color_range">mpeg</property>
  <property name="kdenlive:original.meta.media.top_field_first">0</property>
  <property name="kdenlive:original.meta.media.progressive">1</property>
  <property name="kdenlive:original.backup">1</property>
 </producer>
 <producer id="producer143" in="00:00:00.000" out="00:00:04.983">
  <property name="length">00:00:05.000</property>
  <property name="eof">pause</property>
  <property name="resource">/home/xiaoxiae/.cache/kdenlive/proxy/6b665121ca7b54a5f5307b69451fd23c.png</property>
  <property name="ttl">25</property>
  <property name="aspect_ratio">1</property>
  <property name="progressive">1</property>
  <property name="seekable">1</property>
  <property name="meta.media.width">800</property>
  <property name="meta.media.height">450</property>
  <property name="mlt_service">qimage</property>
  <property name="kdenlive:clipname">12.png</property>
  <property name="kdenlive:duration">00:00:05.000</property>
  <property name="kdenlive:folderid">99</property>
  <property name="kdenlive:id">107</property>
  <property name="kdenlive:file_size">24337</property>
  <property name="kdenlive:file_hash">6b665121ca7b54a5f5307b69451fd23c</property>
  <property name="kdenlive:proxy">/home/xiaoxiae/.cache/kdenlive/proxy/6b665121ca7b54a5f5307b69451fd23c.png</property>
  <property name="kdenlive:originalurl">video/InducedSubgraph/12.png</property>
  <property name="global_feed">1</property>
 </producer>
 <producer id="producer146" in="00:00:00.000" out="00:00:00.983">
  <property name="length">60</property>
  <property name="eof">pause</property>
  <property name="resource">/home/xiaoxiae/.cache/kdenlive/proxy/417a1f610a1ba6df658efea88618471b.mkv</property>
  <property name="audio_index">-1</property>
  <property name="video_index">0</property>
  <property name="mute_on_pause">0</property>
  <property name="mlt_service">avformat-novalidate</property>
  <property name="seekable">1</property>
  <property name="aspect_ratio">1</property>
  <property name="kdenlive:clipname">2.mp4</property>
  <property name="kdenlive:folderid">99</property>
  <property name="kdenlive:id">108</property>
  <property name="kdenlive:file_size">83679</property>
  <property name="kdenlive:file_hash">417a1f610a1ba6df658efea88618471b</property>
  <property name="kdenlive:proxy">/home/xiaoxiae/.cache/kdenlive/proxy/417a1f610a1ba6df658efea88618471b.mkv</property>
  <property name="kdenlive:originalurl">video/InducedSubgraph/2.mp4</property>
  <property name="global_feed">1</property>
  <property name="meta.media.nb_streams">1</property>
  <property name="meta.media.0.stream.type">video</property>
  <property name="meta.media.0.stream.frame_rate">60</property>
  <property name="meta.media.0.stream.sample_aspect_ratio">0</property>
  <property name="meta.media.0.codec.width">640</property>
  <property name="meta.media.0.codec.height">360</property>
  <property name="meta.media.0.codec.rotate">0</property>
  <property name="meta.media.0.codec.frame_rate">60</property>
  <property name="meta.media.0.codec.pix_fmt">yuv420p</property>
  <property name="meta.media.0.codec.sample_aspect_ratio">0</property>
  <property name="meta.media.0.codec.colorspace">601</property>
  <property name="meta.media.0.codec.name">h264</property>
  <property name="meta.media.0.codec.long_name">H.264 / AVC / MPEG-4 AVC / MPEG-4 part 10</property>
  <property name="meta.media.0.codec.bit_rate">0</property>
  <property name="meta.attr.0.stream.HANDLER_NAME.markup">VideoHandler</property>
  <property name="meta.attr.0.stream.VENDOR_ID.markup">[0][0][0][0]</property>
  <property name="meta.attr.0.stream.ENCODER.markup">Lavc58.134.100 libx264</property>
  <property name="meta.attr.0.stream.DURATION.markup">00:00:01.000000000</property>
  <property name="meta.attr.COMMENT.markup">Rendered with Manim Community v0.6.0</property>
  <property name="meta.attr.MAJOR_BRAND.markup">isom</property>
  <property name="meta.attr.MINOR_VERSION.markup">512</property>
  <property name="meta.attr.COMPATIBLE_BRANDS.markup">isomiso2avc1mp41</property>
  <property name="meta.attr.ENCODER.markup">Lavf58.76.100</property>
  <property name="meta.media.sample_aspect_num">1</property>
  <property name="meta.media.sample_aspect_den">1</property>
  <property name="meta.media.frame_rate_num">60</property>
  <property name="meta.media.frame_rate_den">1</property>
  <property name="meta.media.colorspace">601</property>
  <property name="meta.media.color_trc">2</property>
  <property name="meta.media.width">640</property>
  <property name="meta.media.height">360</property>
  <property name="meta.media.color_range">mpeg</property>
  <property name="meta.media.top_field_first">0</property>
  <property name="meta.media.progressive">1</property>
  <property name="kdenlive:original.mlt_type">producer</property>
  <property name="kdenlive:original.in">0</property>
  <property name="kdenlive:original.out">59</property>
  <property name="kdenlive:original.length">60</property>
  <property name="kdenlive:original.eof">pause</property>
  <property name="kdenlive:original.resource">video/InducedSubgraph/2.mp4</property>
  <property name="kdenlive:original.meta.media.nb_streams">1</property>
  <property name="kdenlive:original.meta.media.0.stream.type">video</property>
  <property name="kdenlive:original.meta.media.0.stream.frame_rate">60</property>
  <property name="kdenlive:original.meta.media.0.stream.sample_aspect_ratio">0</property>
  <property name="kdenlive:original.meta.media.0.codec.width">3840</property>
  <property name="kdenlive:original.meta.media.0.codec.height">2160</property>
  <property name="kdenlive:original.meta.media.0.codec.rotate">0</property>
  <property name="kdenlive:original.meta.media.0.codec.frame_rate">60</property>
  <property name="kdenlive:original.meta.media.0.codec.pix_fmt">yuv420p</property>
  <property name="kdenlive:original.meta.media.0.codec.sample_aspect_ratio">0</property>
  <property name="kdenlive:original.meta.media.0.codec.colorspace">709</property>
  <property name="kdenlive:original.meta.media.0.codec.name">h264</property>
  <property name="kdenlive:original.meta.media.0.codec.long_name">H.264 / AVC / MPEG-4 AVC / MPEG-4 part 10</property>
  <property name="kdenlive:original.meta.media.0.codec.bit_rate">656832</property>
  <property name="kdenlive:original.meta.attr.0.stream.handler_name.markup">VideoHandler</property>
  <property name="kdenlive:original.meta.attr.0.stream.vendor_id.markup">[0][0][0][0]</property>
  <property name="kdenlive:original.meta.attr.major_brand.markup">isom</property>
  <property name="kdenlive:original.meta.attr.minor_version.markup">512</property>
  <property name="kdenlive:original.meta.attr.compatible_brands.markup">isomiso2avc1mp41</property>
  <property name="kdenlive:original.meta.attr.encoder.markup">Lavf58.76.100</property>
  <property name="kdenlive:original.meta.attr.comment.markup">Rendered with Manim Community v0.6.0</property>
  <property name="kdenlive:original.seekable">1</property>
  <property name="kdenlive:original.width">3840</property>
  <property name="kdenlive:original.height">2160</property>
  <property name="kdenlive:original.meta.media.sample_aspect_num">1</property>
  <property name="kdenlive:original.meta.media.sample_aspect_den">1</property>
  <property name="kdenlive:original.aspect_ratio">1</property>
  <property name="kdenlive:original.audio_index">-1</property>
  <property name="kdenlive:original.video_index">0</property>
  <property name="kdenlive:original.mute_on_pause">1</property>
  <property name="kdenlive:original.mlt_service">avformat</property>
  <property name="kdenlive:original.meta.media.frame_rate_num">60</property>
  <property name="kdenlive:original.meta.media.frame_rate_den">1</property>
  <property name="kdenlive:original.meta.media.colorspace">709</property>
  <property name="kdenlive:original.meta.media.color_trc">2</property>
  <property name="kdenlive:original.meta.media.width">3840</property>
  <property name="kdenlive:original.meta.media.height">2160</property>
  <property name="kdenlive:original.meta.media.color_range">mpeg</property>
  <property name="kdenlive:original.meta.media.top_field_first">0</property>
  <property name="kdenlive:original.meta.media.progressive">1</property>
  <property name="kdenlive:original.backup">1</property>
 </producer>
 <producer id="producer145" in="00:00:00.000" out="00:00:04.983">
  <property name="length">00:00:05.000</property>
  <property name="eof">pause</property>
  <property name="resource">/home/xiaoxiae/.cache/kdenlive/proxy/9c787a1b6d4d7ec89f9481b309d22a56.png</property>
  <property name="ttl">25</property>
  <property name="aspect_ratio">1</property>
  <property name="progressive">1</property>
  <property name="seekable">1</property>
  <property name="meta.media.width">800</property>
  <property name="meta.media.height">450</property>
  <property name="mlt_service">qimage</property>
  <property name="kdenlive:clipname">2.png</property>
  <property name="kdenlive:duration">00:00:05.000</property>
  <property name="kdenlive:folderid">99</property>
  <property name="kdenlive:id">109</property>
  <property name="kdenlive:file_size">91491</property>
  <property name="kdenlive:file_hash">9c787a1b6d4d7ec89f9481b309d22a56</property>
  <property name="kdenlive:proxy">/home/xiaoxiae/.cache/kdenlive/proxy/9c787a1b6d4d7ec89f9481b309d22a56.png</property>
  <property name="kdenlive:originalurl">video/InducedSubgraph/2.png</property>
  <property name="global_feed">1</property>
 </producer>
 <producer id="producer159" in="00:00:00.000" out="00:00:05.267">
  <property name="length">317</property>
  <property name="eof">pause</property>
  <property name="resource">/home/xiaoxiae/.cache/kdenlive/proxy/5415df30483b90a7e19456268a3d45c9.mkv</property>
  <property name="audio_index">-1</property>
  <property name="video_index">0</property>
  <property name="mute_on_pause">0</property>
  <property name="mlt_service">avformat-novalidate</property>
  <property name="seekable">1</property>
  <property name="aspect_ratio">1</property>
  <property name="kdenlive:clipname">3.mp4</property>
  <property name="kdenlive:folderid">99</property>
  <property name="kdenlive:id">110</property>
  <property name="kdenlive:file_size">659881</property>
  <property name="kdenlive:file_hash">5415df30483b90a7e19456268a3d45c9</property>
  <property name="kdenlive:proxy">/home/xiaoxiae/.cache/kdenlive/proxy/5415df30483b90a7e19456268a3d45c9.mkv</property>
  <property name="kdenlive:originalurl">video/InducedSubgraph/3.mp4</property>
  <property name="global_feed">1</property>
  <property name="meta.media.nb_streams">1</property>
  <property name="meta.media.0.stream.type">video</property>
  <property name="meta.media.0.stream.frame_rate">60</property>
  <property name="meta.media.0.stream.sample_aspect_ratio">0</property>
  <property name="meta.media.0.codec.width">640</property>
  <property name="meta.media.0.codec.height">360</property>
  <property name="meta.media.0.codec.rotate">0</property>
  <property name="meta.media.0.codec.frame_rate">60</property>
  <property name="meta.media.0.codec.pix_fmt">yuv420p</property>
  <property name="meta.media.0.codec.sample_aspect_ratio">0</property>
  <property name="meta.media.0.codec.colorspace">601</property>
  <property name="meta.media.0.codec.name">h264</property>
  <property name="meta.media.0.codec.long_name">H.264 / AVC / MPEG-4 AVC / MPEG-4 part 10</property>
  <property name="meta.media.0.codec.bit_rate">0</property>
  <property name="meta.attr.0.stream.HANDLER_NAME.markup">VideoHandler</property>
  <property name="meta.attr.0.stream.VENDOR_ID.markup">[0][0][0][0]</property>
  <property name="meta.attr.0.stream.ENCODER.markup">Lavc58.134.100 libx264</property>
  <property name="meta.attr.0.stream.DURATION.markup">00:00:05.284000000</property>
  <property name="meta.attr.COMMENT.markup">Rendered with Manim Community v0.6.0</property>
  <property name="meta.attr.MAJOR_BRAND.markup">isom</property>
  <property name="meta.attr.MINOR_VERSION.markup">512</property>
  <property name="meta.attr.COMPATIBLE_BRANDS.markup">isomiso2avc1mp41</property>
  <property name="meta.attr.ENCODER.markup">Lavf58.76.100</property>
  <property name="meta.media.sample_aspect_num">1</property>
  <property name="meta.media.sample_aspect_den">1</property>
  <property name="meta.media.frame_rate_num">60</property>
  <property name="meta.media.frame_rate_den">1</property>
  <property name="meta.media.colorspace">601</property>
  <property name="meta.media.color_trc">2</property>
  <property name="meta.media.width">640</property>
  <property name="meta.media.height">360</property>
  <property name="meta.media.color_range">mpeg</property>
  <property name="meta.media.top_field_first">0</property>
  <property name="meta.media.progressive">1</property>
  <property name="kdenlive:original.mlt_type">producer</property>
  <property name="kdenlive:original.in">0</property>
  <property name="kdenlive:original.out">316</property>
  <property name="kdenlive:original.length">317</property>
  <property name="kdenlive:original.eof">pause</property>
  <property name="kdenlive:original.resource">video/InducedSubgraph/3.mp4</property>
  <property name="kdenlive:original.meta.media.nb_streams">1</property>
  <property name="kdenlive:original.meta.media.0.stream.type">video</property>
  <property name="kdenlive:original.meta.media.0.stream.frame_rate">60</property>
  <property name="kdenlive:original.meta.media.0.stream.sample_aspect_ratio">0</property>
  <property name="kdenlive:original.meta.media.0.codec.width">3840</property>
  <property name="kdenlive:original.meta.media.0.codec.height">2160</property>
  <property name="kdenlive:original.meta.media.0.codec.rotate">0</property>
  <property name="kdenlive:original.meta.media.0.codec.frame_rate">60</property>
  <property name="kdenlive:original.meta.media.0.codec.pix_fmt">yuv420p</property>
  <property name="kdenlive:original.meta.media.0.codec.sample_aspect_ratio">0</property>
  <property name="kdenlive:original.meta.media.0.codec.colorspace">709</property>
  <property name="kdenlive:original.meta.media.0.codec.name">h264</property>
  <property name="kdenlive:original.meta.media.0.codec.long_name">H.264 / AVC / MPEG-4 AVC / MPEG-4 part 10</property>
  <property name="kdenlive:original.meta.media.0.codec.bit_rate">992043</property>
  <property name="kdenlive:original.meta.attr.0.stream.handler_name.markup">VideoHandler</property>
  <property name="kdenlive:original.meta.attr.0.stream.vendor_id.markup">[0][0][0][0]</property>
  <property name="kdenlive:original.meta.attr.major_brand.markup">isom</property>
  <property name="kdenlive:original.meta.attr.minor_version.markup">512</property>
  <property name="kdenlive:original.meta.attr.compatible_brands.markup">isomiso2avc1mp41</property>
  <property name="kdenlive:original.meta.attr.encoder.markup">Lavf58.76.100</property>
  <property name="kdenlive:original.meta.attr.comment.markup">Rendered with Manim Community v0.6.0</property>
  <property name="kdenlive:original.seekable">1</property>
  <property name="kdenlive:original.width">3840</property>
  <property name="kdenlive:original.height">2160</property>
  <property name="kdenlive:original.meta.media.sample_aspect_num">1</property>
  <property name="kdenlive:original.meta.media.sample_aspect_den">1</property>
  <property name="kdenlive:original.aspect_ratio">1</property>
  <property name="kdenlive:original.audio_index">-1</property>
  <property name="kdenlive:original.video_index">0</property>
  <property name="kdenlive:original.mute_on_pause">1</property>
  <property name="kdenlive:original.mlt_service">avformat</property>
  <property name="kdenlive:original.meta.media.frame_rate_num">60</property>
  <property name="kdenlive:original.meta.media.frame_rate_den">1</property>
  <property name="kdenlive:original.meta.media.colorspace">709</property>
  <property name="kdenlive:original.meta.media.color_trc">2</property>
  <property name="kdenlive:original.meta.media.width">3840</property>
  <property name="kdenlive:original.meta.media.height">2160</property>
  <property name="kdenlive:original.meta.media.color_range">mpeg</property>
  <property name="kdenlive:original.meta.media.top_field_first">0</property>
  <property name="kdenlive:original.meta.media.progressive">1</property>
  <property name="kdenlive:original.backup">1</property>
 </producer>
 <producer id="producer147" in="00:00:00.000" out="00:00:04.983">
  <property name="length">00:00:05.000</property>
  <property name="eof">pause</property>
  <property name="resource">/home/xiaoxiae/.cache/kdenlive/proxy/fbc538af5008ff827e9c72b92b3152d1.png</property>
  <property name="ttl">25</property>
  <property name="aspect_ratio">1</property>
  <property name="progressive">1</property>
  <property name="seekable">1</property>
  <property name="meta.media.width">800</property>
  <property name="meta.media.height">450</property>
  <property name="mlt_service">qimage</property>
  <property name="kdenlive:clipname">3.png</property>
  <property name="kdenlive:duration">00:00:05.000</property>
  <property name="kdenlive:folderid">99</property>
  <property name="kdenlive:id">111</property>
  <property name="kdenlive:file_size">369077</property>
  <property name="kdenlive:file_hash">fbc538af5008ff827e9c72b92b3152d1</property>
  <property name="kdenlive:proxy">/home/xiaoxiae/.cache/kdenlive/proxy/fbc538af5008ff827e9c72b92b3152d1.png</property>
  <property name="kdenlive:originalurl">video/InducedSubgraph/3.png</property>
  <property name="global_feed">1</property>
 </producer>
 <producer id="producer148" in="00:00:00.000" out="00:00:01.983">
  <property name="length">120</property>
  <property name="eof">pause</property>
  <property name="resource">/home/xiaoxiae/.cache/kdenlive/proxy/e66bc580b498eb58a26a33281c52c0b2.mkv</property>
  <property name="audio_index">-1</property>
  <property name="video_index">0</property>
  <property name="mute_on_pause">0</property>
  <property name="mlt_service">avformat-novalidate</property>
  <property name="seekable">1</property>
  <property name="aspect_ratio">1</property>
  <property name="kdenlive:clipname">4.mp4</property>
  <property name="kdenlive:folderid">99</property>
  <property name="kdenlive:id">112</property>
  <property name="kdenlive:file_size">214269</property>
  <property name="kdenlive:file_hash">e66bc580b498eb58a26a33281c52c0b2</property>
  <property name="kdenlive:proxy">/home/xiaoxiae/.cache/kdenlive/proxy/e66bc580b498eb58a26a33281c52c0b2.mkv</property>
  <property name="kdenlive:originalurl">video/InducedSubgraph/4.mp4</property>
  <property name="global_feed">1</property>
  <property name="meta.media.nb_streams">1</property>
  <property name="meta.media.0.stream.type">video</property>
  <property name="meta.media.0.stream.frame_rate">60</property>
  <property name="meta.media.0.stream.sample_aspect_ratio">0</property>
  <property name="meta.media.0.codec.width">640</property>
  <property name="meta.media.0.codec.height">360</property>
  <property name="meta.media.0.codec.rotate">0</property>
  <property name="meta.media.0.codec.frame_rate">60</property>
  <property name="meta.media.0.codec.pix_fmt">yuv420p</property>
  <property name="meta.media.0.codec.sample_aspect_ratio">0</property>
  <property name="meta.media.0.codec.colorspace">601</property>
  <property name="meta.media.0.codec.name">h264</property>
  <property name="meta.media.0.codec.long_name">H.264 / AVC / MPEG-4 AVC / MPEG-4 part 10</property>
  <property name="meta.media.0.codec.bit_rate">0</property>
  <property name="meta.attr.0.stream.HANDLER_NAME.markup">VideoHandler</property>
  <property name="meta.attr.0.stream.VENDOR_ID.markup">[0][0][0][0]</property>
  <property name="meta.attr.0.stream.ENCODER.markup">Lavc58.134.100 libx264</property>
  <property name="meta.attr.0.stream.DURATION.markup">00:00:02.000000000</property>
  <property name="meta.attr.COMMENT.markup">Rendered with Manim Community v0.6.0</property>
  <property name="meta.attr.MAJOR_BRAND.markup">isom</property>
  <property name="meta.attr.MINOR_VERSION.markup">512</property>
  <property name="meta.attr.COMPATIBLE_BRANDS.markup">isomiso2avc1mp41</property>
  <property name="meta.attr.ENCODER.markup">Lavf58.76.100</property>
  <property name="meta.media.sample_aspect_num">1</property>
  <property name="meta.media.sample_aspect_den">1</property>
  <property name="meta.media.frame_rate_num">60</property>
  <property name="meta.media.frame_rate_den">1</property>
  <property name="meta.media.colorspace">601</property>
  <property name="meta.media.color_trc">2</property>
  <property name="meta.media.width">640</property>
  <property name="meta.media.height">360</property>
  <property name="meta.media.color_range">mpeg</property>
  <property name="meta.media.top_field_first">0</property>
  <property name="meta.media.progressive">1</property>
  <property name="kdenlive:original.mlt_type">producer</property>
  <property name="kdenlive:original.in">0</property>
  <property name="kdenlive:original.out">119</property>
  <property name="kdenlive:original.length">120</property>
  <property name="kdenlive:original.eof">pause</property>
  <property name="kdenlive:original.resource">video/InducedSubgraph/4.mp4</property>
  <property name="kdenlive:original.meta.media.nb_streams">1</property>
  <property name="kdenlive:original.meta.media.0.stream.type">video</property>
  <property name="kdenlive:original.meta.media.0.stream.frame_rate">60</property>
  <property name="kdenlive:original.meta.media.0.stream.sample_aspect_ratio">0</property>
  <property name="kdenlive:original.meta.media.0.codec.width">3840</property>
  <property name="kdenlive:original.meta.media.0.codec.height">2160</property>
  <property name="kdenlive:original.meta.media.0.codec.rotate">0</property>
  <property name="kdenlive:original.meta.media.0.codec.frame_rate">60</property>
  <property name="kdenlive:original.meta.media.0.codec.pix_fmt">yuv420p</property>
  <property name="kdenlive:original.meta.media.0.codec.sample_aspect_ratio">0</property>
  <property name="kdenlive:original.meta.media.0.codec.colorspace">709</property>
  <property name="kdenlive:original.meta.media.0.codec.name">h264</property>
  <property name="kdenlive:original.meta.media.0.codec.long_name">H.264 / AVC / MPEG-4 AVC / MPEG-4 part 10</property>
  <property name="kdenlive:original.meta.media.0.codec.bit_rate">847672</property>
  <property name="kdenlive:original.meta.attr.0.stream.handler_name.markup">VideoHandler</property>
  <property name="kdenlive:original.meta.attr.0.stream.vendor_id.markup">[0][0][0][0]</property>
  <property name="kdenlive:original.meta.attr.major_brand.markup">isom</property>
  <property name="kdenlive:original.meta.attr.minor_version.markup">512</property>
  <property name="kdenlive:original.meta.attr.compatible_brands.markup">isomiso2avc1mp41</property>
  <property name="kdenlive:original.meta.attr.encoder.markup">Lavf58.76.100</property>
  <property name="kdenlive:original.meta.attr.comment.markup">Rendered with Manim Community v0.6.0</property>
  <property name="kdenlive:original.seekable">1</property>
  <property name="kdenlive:original.width">3840</property>
  <property name="kdenlive:original.height">2160</property>
  <property name="kdenlive:original.meta.media.sample_aspect_num">1</property>
  <property name="kdenlive:original.meta.media.sample_aspect_den">1</property>
  <property name="kdenlive:original.aspect_ratio">1</property>
  <property name="kdenlive:original.audio_index">-1</property>
  <property name="kdenlive:original.video_index">0</property>
  <property name="kdenlive:original.mute_on_pause">1</property>
  <property name="kdenlive:original.mlt_service">avformat</property>
  <property name="kdenlive:original.meta.media.frame_rate_num">60</property>
  <property name="kdenlive:original.meta.media.frame_rate_den">1</property>
  <property name="kdenlive:original.meta.media.colorspace">709</property>
  <property name="kdenlive:original.meta.media.color_trc">2</property>
  <property name="kdenlive:original.meta.media.width">3840</property>
  <property name="kdenlive:original.meta.media.height">2160</property>
  <property name="kdenlive:original.meta.media.color_range">mpeg</property>
  <property name="kdenlive:original.meta.media.top_field_first">0</property>
  <property name="kdenlive:original.meta.media.progressive">1</property>
  <property name="kdenlive:original.backup">1</property>
 </producer>
 <producer id="producer150" in="00:00:00.000" out="00:00:04.983">
  <property name="length">00:00:05.000</property>
  <property name="eof">pause</property>
  <property name="resource">/home/xiaoxiae/.cache/kdenlive/proxy/124c9484e260ac32845529f0a6352ae7.png</property>
  <property name="ttl">25</property>
  <property name="aspect_ratio">1</property>
  <property name="progressive">1</property>
  <property name="seekable">1</property>
  <property name="meta.media.width">800</property>
  <property name="meta.media.height">450</property>
  <property name="mlt_service">qimage</property>
  <property name="kdenlive:clipname">4.png</property>
  <property name="kdenlive:duration">00:00:05.000</property>
  <property name="kdenlive:folderid">99</property>
  <property name="kdenlive:id">113</property>
  <property name="kdenlive:file_size">520091</property>
  <property name="kdenlive:file_hash">124c9484e260ac32845529f0a6352ae7</property>
  <property name="kdenlive:proxy">/home/xiaoxiae/.cache/kdenlive/proxy/124c9484e260ac32845529f0a6352ae7.png</property>
  <property name="kdenlive:originalurl">video/InducedSubgraph/4.png</property>
  <property name="global_feed">1</property>
 </producer>
 <producer id="producer149" in="00:00:00.000" out="00:00:00.983">
  <property name="length">60</property>
  <property name="eof">pause</property>
  <property name="resource">/home/xiaoxiae/.cache/kdenlive/proxy/320214b8d25970310f709c0e9f9880fe.mkv</property>
  <property name="audio_index">-1</property>
  <property name="video_index">0</property>
  <property name="mute_on_pause">0</property>
  <property name="mlt_service">avformat-novalidate</property>
  <property name="seekable">1</property>
  <property name="aspect_ratio">1</property>
  <property name="kdenlive:clipname">5.mp4</property>
  <property name="kdenlive:folderid">99</property>
  <property name="kdenlive:id">114</property>
  <property name="kdenlive:file_size">181507</property>
  <property name="kdenlive:file_hash">320214b8d25970310f709c0e9f9880fe</property>
  <property name="kdenlive:proxy">/home/xiaoxiae/.cache/kdenlive/proxy/320214b8d25970310f709c0e9f9880fe.mkv</property>
  <property name="kdenlive:originalurl">video/InducedSubgraph/5.mp4</property>
  <property name="global_feed">1</property>
  <property name="meta.media.nb_streams">1</property>
  <property name="meta.media.0.stream.type">video</property>
  <property name="meta.media.0.stream.frame_rate">60</property>
  <property name="meta.media.0.stream.sample_aspect_ratio">0</property>
  <property name="meta.media.0.codec.width">640</property>
  <property name="meta.media.0.codec.height">360</property>
  <property name="meta.media.0.codec.rotate">0</property>
  <property name="meta.media.0.codec.frame_rate">60</property>
  <property name="meta.media.0.codec.pix_fmt">yuv420p</property>
  <property name="meta.media.0.codec.sample_aspect_ratio">0</property>
  <property name="meta.media.0.codec.colorspace">601</property>
  <property name="meta.media.0.codec.name">h264</property>
  <property name="meta.media.0.codec.long_name">H.264 / AVC / MPEG-4 AVC / MPEG-4 part 10</property>
  <property name="meta.media.0.codec.bit_rate">0</property>
  <property name="meta.attr.0.stream.HANDLER_NAME.markup">VideoHandler</property>
  <property name="meta.attr.0.stream.VENDOR_ID.markup">[0][0][0][0]</property>
  <property name="meta.attr.0.stream.ENCODER.markup">Lavc58.134.100 libx264</property>
  <property name="meta.attr.0.stream.DURATION.markup">00:00:01.000000000</property>
  <property name="meta.attr.COMMENT.markup">Rendered with Manim Community v0.6.0</property>
  <property name="meta.attr.MAJOR_BRAND.markup">isom</property>
  <property name="meta.attr.MINOR_VERSION.markup">512</property>
  <property name="meta.attr.COMPATIBLE_BRANDS.markup">isomiso2avc1mp41</property>
  <property name="meta.attr.ENCODER.markup">Lavf58.76.100</property>
  <property name="meta.media.sample_aspect_num">1</property>
  <property name="meta.media.sample_aspect_den">1</property>
  <property name="meta.media.frame_rate_num">60</property>
  <property name="meta.media.frame_rate_den">1</property>
  <property name="meta.media.colorspace">601</property>
  <property name="meta.media.color_trc">2</property>
  <property name="meta.media.width">640</property>
  <property name="meta.media.height">360</property>
  <property name="meta.media.color_range">mpeg</property>
  <property name="meta.media.top_field_first">0</property>
  <property name="meta.media.progressive">1</property>
  <property name="kdenlive:original.mlt_type">producer</property>
  <property name="kdenlive:original.in">0</property>
  <property name="kdenlive:original.out">59</property>
  <property name="kdenlive:original.length">60</property>
  <property name="kdenlive:original.eof">pause</property>
  <property name="kdenlive:original.resource">video/InducedSubgraph/5.mp4</property>
  <property name="kdenlive:original.meta.media.nb_streams">1</property>
  <property name="kdenlive:original.meta.media.0.stream.type">video</property>
  <property name="kdenlive:original.meta.media.0.stream.frame_rate">60</property>
  <property name="kdenlive:original.meta.media.0.stream.sample_aspect_ratio">0</property>
  <property name="kdenlive:original.meta.media.0.codec.width">3840</property>
  <property name="kdenlive:original.meta.media.0.codec.height">2160</property>
  <property name="kdenlive:original.meta.media.0.codec.rotate">0</property>
  <property name="kdenlive:original.meta.media.0.codec.frame_rate">60</property>
  <property name="kdenlive:original.meta.media.0.codec.pix_fmt">yuv420p</property>
  <property name="kdenlive:original.meta.media.0.codec.sample_aspect_ratio">0</property>
  <property name="kdenlive:original.meta.media.0.codec.colorspace">709</property>
  <property name="kdenlive:original.meta.media.0.codec.name">h264</property>
  <property name="kdenlive:original.meta.media.0.codec.long_name">H.264 / AVC / MPEG-4 AVC / MPEG-4 part 10</property>
  <property name="kdenlive:original.meta.media.0.codec.bit_rate">1439008</property>
  <property name="kdenlive:original.meta.attr.0.stream.handler_name.markup">VideoHandler</property>
  <property name="kdenlive:original.meta.attr.0.stream.vendor_id.markup">[0][0][0][0]</property>
  <property name="kdenlive:original.meta.attr.major_brand.markup">isom</property>
  <property name="kdenlive:original.meta.attr.minor_version.markup">512</property>
  <property name="kdenlive:original.meta.attr.compatible_brands.markup">isomiso2avc1mp41</property>
  <property name="kdenlive:original.meta.attr.encoder.markup">Lavf58.76.100</property>
  <property name="kdenlive:original.meta.attr.comment.markup">Rendered with Manim Community v0.6.0</property>
  <property name="kdenlive:original.seekable">1</property>
  <property name="kdenlive:original.width">3840</property>
  <property name="kdenlive:original.height">2160</property>
  <property name="kdenlive:original.meta.media.sample_aspect_num">1</property>
  <property name="kdenlive:original.meta.media.sample_aspect_den">1</property>
  <property name="kdenlive:original.aspect_ratio">1</property>
  <property name="kdenlive:original.audio_index">-1</property>
  <property name="kdenlive:original.video_index">0</property>
  <property name="kdenlive:original.mute_on_pause">1</property>
  <property name="kdenlive:original.mlt_service">avformat</property>
  <property name="kdenlive:original.meta.media.frame_rate_num">60</property>
  <property name="kdenlive:original.meta.media.frame_rate_den">1</property>
  <property name="kdenlive:original.meta.media.colorspace">709</property>
  <property name="kdenlive:original.meta.media.color_trc">2</property>
  <property name="kdenlive:original.meta.media.width">3840</property>
  <property name="kdenlive:original.meta.media.height">2160</property>
  <property name="kdenlive:original.meta.media.color_range">mpeg</property>
  <property name="kdenlive:original.meta.media.top_field_first">0</property>
  <property name="kdenlive:original.meta.media.progressive">1</property>
  <property name="kdenlive:original.backup">1</property>
 </producer>
 <producer id="producer152" in="00:00:00.000" out="00:00:04.983">
  <property name="length">00:00:05.000</property>
  <property name="eof">pause</property>
  <property name="resource">/home/xiaoxiae/.cache/kdenlive/proxy/9cf3a53dcff2bba81a9ad294085258ac.png</property>
  <property name="ttl">25</property>
  <property name="aspect_ratio">1</property>
  <property name="progressive">1</property>
  <property name="seekable">1</property>
  <property name="meta.media.width">800</property>
  <property name="meta.media.height">450</property>
  <property name="mlt_service">qimage</property>
  <property name="kdenlive:clipname">5.png</property>
  <property name="kdenlive:duration">00:00:05.000</property>
  <property name="kdenlive:folderid">99</property>
  <property name="kdenlive:id">115</property>
  <property name="kdenlive:file_size">494800</property>
  <property name="kdenlive:file_hash">9cf3a53dcff2bba81a9ad294085258ac</property>
  <property name="kdenlive:proxy">/home/xiaoxiae/.cache/kdenlive/proxy/9cf3a53dcff2bba81a9ad294085258ac.png</property>
  <property name="kdenlive:originalurl">video/InducedSubgraph/5.png</property>
  <property name="global_feed">1</property>
  <property name="kdenlive:original.mlt_type">producer</property>
  <property name="kdenlive:original.in">0</property>
  <property name="kdenlive:original.out">14999</property>
  <property name="kdenlive:original.length">15000</property>
  <property name="kdenlive:original.eof">pause</property>
  <property name="kdenlive:original.resource">video/InducedSubgraph/5.png</property>
  <property name="kdenlive:original.ttl">25</property>
  <property name="kdenlive:original.aspect_ratio">1</property>
  <property name="kdenlive:original.progressive">1</property>
  <property name="kdenlive:original.seekable">1</property>
  <property name="kdenlive:original.meta.media.width">3840</property>
  <property name="kdenlive:original.meta.media.height">2160</property>
  <property name="kdenlive:original.mlt_service">qimage</property>
  <property name="kdenlive:original.backup">1</property>
 </producer>
 <producer id="producer151" in="00:00:00.000" out="00:00:00.983">
  <property name="length">60</property>
  <property name="eof">pause</property>
  <property name="resource">/home/xiaoxiae/.cache/kdenlive/proxy/624ba5b360950f7563b2e377776cddab.mkv</property>
  <property name="audio_index">-1</property>
  <property name="video_index">0</property>
  <property name="mute_on_pause">0</property>
  <property name="mlt_service">avformat-novalidate</property>
  <property name="seekable">1</property>
  <property name="aspect_ratio">1</property>
  <property name="kdenlive:clipname">6.mp4</property>
  <property name="kdenlive:folderid">99</property>
  <property name="kdenlive:id">116</property>
  <property name="kdenlive:file_size">183780</property>
  <property name="kdenlive:file_hash">624ba5b360950f7563b2e377776cddab</property>
  <property name="kdenlive:proxy">/home/xiaoxiae/.cache/kdenlive/proxy/624ba5b360950f7563b2e377776cddab.mkv</property>
  <property name="kdenlive:originalurl">video/InducedSubgraph/6.mp4</property>
  <property name="global_feed">1</property>
  <property name="meta.media.nb_streams">1</property>
  <property name="meta.media.0.stream.type">video</property>
  <property name="meta.media.0.stream.frame_rate">60</property>
  <property name="meta.media.0.stream.sample_aspect_ratio">0</property>
  <property name="meta.media.0.codec.width">640</property>
  <property name="meta.media.0.codec.height">360</property>
  <property name="meta.media.0.codec.rotate">0</property>
  <property name="meta.media.0.codec.frame_rate">60</property>
  <property name="meta.media.0.codec.pix_fmt">yuv420p</property>
  <property name="meta.media.0.codec.sample_aspect_ratio">0</property>
  <property name="meta.media.0.codec.colorspace">601</property>
  <property name="meta.media.0.codec.name">h264</property>
  <property name="meta.media.0.codec.long_name">H.264 / AVC / MPEG-4 AVC / MPEG-4 part 10</property>
  <property name="meta.media.0.codec.bit_rate">0</property>
  <property name="meta.attr.0.stream.HANDLER_NAME.markup">VideoHandler</property>
  <property name="meta.attr.0.stream.VENDOR_ID.markup">[0][0][0][0]</property>
  <property name="meta.attr.0.stream.ENCODER.markup">Lavc58.134.100 libx264</property>
  <property name="meta.attr.0.stream.DURATION.markup">00:00:01.000000000</property>
  <property name="meta.attr.COMMENT.markup">Rendered with Manim Community v0.6.0</property>
  <property name="meta.attr.MAJOR_BRAND.markup">isom</property>
  <property name="meta.attr.MINOR_VERSION.markup">512</property>
  <property name="meta.attr.COMPATIBLE_BRANDS.markup">isomiso2avc1mp41</property>
  <property name="meta.attr.ENCODER.markup">Lavf58.76.100</property>
  <property name="meta.media.sample_aspect_num">1</property>
  <property name="meta.media.sample_aspect_den">1</property>
  <property name="meta.media.frame_rate_num">60</property>
  <property name="meta.media.frame_rate_den">1</property>
  <property name="meta.media.colorspace">601</property>
  <property name="meta.media.color_trc">2</property>
  <property name="meta.media.width">640</property>
  <property name="meta.media.height">360</property>
  <property name="meta.media.color_range">mpeg</property>
  <property name="meta.media.top_field_first">0</property>
  <property name="meta.media.progressive">1</property>
  <property name="kdenlive:original.mlt_type">producer</property>
  <property name="kdenlive:original.in">0</property>
  <property name="kdenlive:original.out">59</property>
  <property name="kdenlive:original.length">60</property>
  <property name="kdenlive:original.eof">pause</property>
  <property name="kdenlive:original.resource">video/InducedSubgraph/6.mp4</property>
  <property name="kdenlive:original.meta.media.nb_streams">1</property>
  <property name="kdenlive:original.meta.media.0.stream.type">video</property>
  <property name="kdenlive:original.meta.media.0.stream.frame_rate">60</property>
  <property name="kdenlive:original.meta.media.0.stream.sample_aspect_ratio">0</property>
  <property name="kdenlive:original.meta.media.0.codec.width">3840</property>
  <property name="kdenlive:original.meta.media.0.codec.height">2160</property>
  <property name="kdenlive:original.meta.media.0.codec.rotate">0</property>
  <property name="kdenlive:original.meta.media.0.codec.frame_rate">60</property>
  <property name="kdenlive:original.meta.media.0.codec.pix_fmt">yuv420p</property>
  <property name="kdenlive:original.meta.media.0.codec.sample_aspect_ratio">0</property>
  <property name="kdenlive:original.meta.media.0.codec.colorspace">709</property>
  <property name="kdenlive:original.meta.media.0.codec.name">h264</property>
  <property name="kdenlive:original.meta.media.0.codec.long_name">H.264 / AVC / MPEG-4 AVC / MPEG-4 part 10</property>
  <property name="kdenlive:original.meta.media.0.codec.bit_rate">1457192</property>
  <property name="kdenlive:original.meta.attr.0.stream.handler_name.markup">VideoHandler</property>
  <property name="kdenlive:original.meta.attr.0.stream.vendor_id.markup">[0][0][0][0]</property>
  <property name="kdenlive:original.meta.attr.major_brand.markup">isom</property>
  <property name="kdenlive:original.meta.attr.minor_version.markup">512</property>
  <property name="kdenlive:original.meta.attr.compatible_brands.markup">isomiso2avc1mp41</property>
  <property name="kdenlive:original.meta.attr.encoder.markup">Lavf58.76.100</property>
  <property name="kdenlive:original.meta.attr.comment.markup">Rendered with Manim Community v0.6.0</property>
  <property name="kdenlive:original.seekable">1</property>
  <property name="kdenlive:original.width">3840</property>
  <property name="kdenlive:original.height">2160</property>
  <property name="kdenlive:original.meta.media.sample_aspect_num">1</property>
  <property name="kdenlive:original.meta.media.sample_aspect_den">1</property>
  <property name="kdenlive:original.aspect_ratio">1</property>
  <property name="kdenlive:original.audio_index">-1</property>
  <property name="kdenlive:original.video_index">0</property>
  <property name="kdenlive:original.mute_on_pause">1</property>
  <property name="kdenlive:original.mlt_service">avformat</property>
  <property name="kdenlive:original.meta.media.frame_rate_num">60</property>
  <property name="kdenlive:original.meta.media.frame_rate_den">1</property>
  <property name="kdenlive:original.meta.media.colorspace">709</property>
  <property name="kdenlive:original.meta.media.color_trc">2</property>
  <property name="kdenlive:original.meta.media.width">3840</property>
  <property name="kdenlive:original.meta.media.height">2160</property>
  <property name="kdenlive:original.meta.media.color_range">mpeg</property>
  <property name="kdenlive:original.meta.media.top_field_first">0</property>
  <property name="kdenlive:original.meta.media.progressive">1</property>
  <property name="kdenlive:original.backup">1</property>
 </producer>
 <producer id="producer153" in="00:00:00.000" out="00:00:04.983">
  <property name="length">00:00:05.000</property>
  <property name="eof">pause</property>
  <property name="resource">/home/xiaoxiae/.cache/kdenlive/proxy/d7f4539f0399965bee88830db1816878.png</property>
  <property name="ttl">25</property>
  <property name="aspect_ratio">1</property>
  <property name="progressive">1</property>
  <property name="seekable">1</property>
  <property name="meta.media.width">800</property>
  <property name="meta.media.height">450</property>
  <property name="mlt_service">qimage</property>
  <property name="kdenlive:clipname">6.png</property>
  <property name="kdenlive:duration">00:00:05.000</property>
  <property name="kdenlive:folderid">99</property>
  <property name="kdenlive:id">117</property>
  <property name="kdenlive:file_size">518233</property>
  <property name="kdenlive:file_hash">d7f4539f0399965bee88830db1816878</property>
  <property name="kdenlive:proxy">/home/xiaoxiae/.cache/kdenlive/proxy/d7f4539f0399965bee88830db1816878.png</property>
  <property name="kdenlive:originalurl">video/InducedSubgraph/6.png</property>
  <property name="global_feed">1</property>
  <property name="kdenlive:original.mlt_type">producer</property>
  <property name="kdenlive:original.in">0</property>
  <property name="kdenlive:original.out">14999</property>
  <property name="kdenlive:original.length">15000</property>
  <property name="kdenlive:original.eof">pause</property>
  <property name="kdenlive:original.resource">video/InducedSubgraph/6.png</property>
  <property name="kdenlive:original.ttl">25</property>
  <property name="kdenlive:original.aspect_ratio">1</property>
  <property name="kdenlive:original.progressive">1</property>
  <property name="kdenlive:original.seekable">1</property>
  <property name="kdenlive:original.meta.media.width">3840</property>
  <property name="kdenlive:original.meta.media.height">2160</property>
  <property name="kdenlive:original.mlt_service">qimage</property>
  <property name="kdenlive:original.backup">1</property>
 </producer>
 <producer id="producer154" in="00:00:00.000" out="00:00:00.983">
  <property name="length">60</property>
  <property name="eof">pause</property>
  <property name="resource">/home/xiaoxiae/.cache/kdenlive/proxy/6c036b2d8081b1bfa9ad048494e8870e.mkv</property>
  <property name="audio_index">-1</property>
  <property name="video_index">0</property>
  <property name="mute_on_pause">0</property>
  <property name="mlt_service">avformat-novalidate</property>
  <property name="seekable">1</property>
  <property name="aspect_ratio">1</property>
  <property name="kdenlive:clipname">7.mp4</property>
  <property name="kdenlive:folderid">99</property>
  <property name="kdenlive:id">118</property>
  <property name="kdenlive:file_size">167455</property>
  <property name="kdenlive:file_hash">6c036b2d8081b1bfa9ad048494e8870e</property>
  <property name="kdenlive:proxy">/home/xiaoxiae/.cache/kdenlive/proxy/6c036b2d8081b1bfa9ad048494e8870e.mkv</property>
  <property name="kdenlive:originalurl">video/InducedSubgraph/7.mp4</property>
  <property name="global_feed">1</property>
  <property name="meta.media.nb_streams">1</property>
  <property name="meta.media.0.stream.type">video</property>
  <property name="meta.media.0.stream.frame_rate">60</property>
  <property name="meta.media.0.stream.sample_aspect_ratio">0</property>
  <property name="meta.media.0.codec.width">640</property>
  <property name="meta.media.0.codec.height">360</property>
  <property name="meta.media.0.codec.rotate">0</property>
  <property name="meta.media.0.codec.frame_rate">60</property>
  <property name="meta.media.0.codec.pix_fmt">yuv420p</property>
  <property name="meta.media.0.codec.sample_aspect_ratio">0</property>
  <property name="meta.media.0.codec.colorspace">601</property>
  <property name="meta.media.0.codec.name">h264</property>
  <property name="meta.media.0.codec.long_name">H.264 / AVC / MPEG-4 AVC / MPEG-4 part 10</property>
  <property name="meta.media.0.codec.bit_rate">0</property>
  <property name="meta.attr.0.stream.HANDLER_NAME.markup">VideoHandler</property>
  <property name="meta.attr.0.stream.VENDOR_ID.markup">[0][0][0][0]</property>
  <property name="meta.attr.0.stream.ENCODER.markup">Lavc58.134.100 libx264</property>
  <property name="meta.attr.0.stream.DURATION.markup">00:00:01.000000000</property>
  <property name="meta.attr.COMMENT.markup">Rendered with Manim Community v0.6.0</property>
  <property name="meta.attr.MAJOR_BRAND.markup">isom</property>
  <property name="meta.attr.MINOR_VERSION.markup">512</property>
  <property name="meta.attr.COMPATIBLE_BRANDS.markup">isomiso2avc1mp41</property>
  <property name="meta.attr.ENCODER.markup">Lavf58.76.100</property>
  <property name="meta.media.sample_aspect_num">1</property>
  <property name="meta.media.sample_aspect_den">1</property>
  <property name="meta.media.frame_rate_num">60</property>
  <property name="meta.media.frame_rate_den">1</property>
  <property name="meta.media.colorspace">601</property>
  <property name="meta.media.color_trc">2</property>
  <property name="meta.media.width">640</property>
  <property name="meta.media.height">360</property>
  <property name="meta.media.color_range">mpeg</property>
  <property name="meta.media.top_field_first">0</property>
  <property name="meta.media.progressive">1</property>
  <property name="kdenlive:original.mlt_type">producer</property>
  <property name="kdenlive:original.in">0</property>
  <property name="kdenlive:original.out">59</property>
  <property name="kdenlive:original.length">60</property>
  <property name="kdenlive:original.eof">pause</property>
  <property name="kdenlive:original.resource">video/InducedSubgraph/7.mp4</property>
  <property name="kdenlive:original.meta.media.nb_streams">1</property>
  <property name="kdenlive:original.meta.media.0.stream.type">video</property>
  <property name="kdenlive:original.meta.media.0.stream.frame_rate">60</property>
  <property name="kdenlive:original.meta.media.0.stream.sample_aspect_ratio">0</property>
  <property name="kdenlive:original.meta.media.0.codec.width">3840</property>
  <property name="kdenlive:original.meta.media.0.codec.height">2160</property>
  <property name="kdenlive:original.meta.media.0.codec.rotate">0</property>
  <property name="kdenlive:original.meta.media.0.codec.frame_rate">60</property>
  <property name="kdenlive:original.meta.media.0.codec.pix_fmt">yuv420p</property>
  <property name="kdenlive:original.meta.media.0.codec.sample_aspect_ratio">0</property>
  <property name="kdenlive:original.meta.media.0.codec.colorspace">709</property>
  <property name="kdenlive:original.meta.media.0.codec.name">h264</property>
  <property name="kdenlive:original.meta.media.0.codec.long_name">H.264 / AVC / MPEG-4 AVC / MPEG-4 part 10</property>
  <property name="kdenlive:original.meta.media.0.codec.bit_rate">1326592</property>
  <property name="kdenlive:original.meta.attr.0.stream.handler_name.markup">VideoHandler</property>
  <property name="kdenlive:original.meta.attr.0.stream.vendor_id.markup">[0][0][0][0]</property>
  <property name="kdenlive:original.meta.attr.major_brand.markup">isom</property>
  <property name="kdenlive:original.meta.attr.minor_version.markup">512</property>
  <property name="kdenlive:original.meta.attr.compatible_brands.markup">isomiso2avc1mp41</property>
  <property name="kdenlive:original.meta.attr.encoder.markup">Lavf58.76.100</property>
  <property name="kdenlive:original.meta.attr.comment.markup">Rendered with Manim Community v0.6.0</property>
  <property name="kdenlive:original.seekable">1</property>
  <property name="kdenlive:original.width">3840</property>
  <property name="kdenlive:original.height">2160</property>
  <property name="kdenlive:original.meta.media.sample_aspect_num">1</property>
  <property name="kdenlive:original.meta.media.sample_aspect_den">1</property>
  <property name="kdenlive:original.aspect_ratio">1</property>
  <property name="kdenlive:original.audio_index">-1</property>
  <property name="kdenlive:original.video_index">0</property>
  <property name="kdenlive:original.mute_on_pause">1</property>
  <property name="kdenlive:original.mlt_service">avformat</property>
  <property name="kdenlive:original.meta.media.frame_rate_num">60</property>
  <property name="kdenlive:original.meta.media.frame_rate_den">1</property>
  <property name="kdenlive:original.meta.media.colorspace">709</property>
  <property name="kdenlive:original.meta.media.color_trc">2</property>
  <property name="kdenlive:original.meta.media.width">3840</property>
  <property name="kdenlive:original.meta.media.height">2160</property>
  <property name="kdenlive:original.meta.media.color_range">mpeg</property>
  <property name="kdenlive:original.meta.media.top_field_first">0</property>
  <property name="kdenlive:original.meta.media.progressive">1</property>
  <property name="kdenlive:original.backup">1</property>
 </producer>
 <producer id="producer157" in="00:00:00.000" out="00:00:04.983">
  <property name="length">00:00:05.000</property>
  <property name="eof">pause</property>
  <property name="resource">/home/xiaoxiae/.cache/kdenlive/proxy/abc4b77d5489c3d1dd5ed2a123632740.png</property>
  <property name="ttl">25</property>
  <property name="aspect_ratio">1</property>
  <property name="progressive">1</property>
  <property name="seekable">1</property>
  <property name="meta.media.width">800</property>
  <property name="meta.media.height">450</property>
  <property name="mlt_service">qimage</property>
  <property name="kdenlive:clipname">7.png</property>
  <property name="kdenlive:duration">00:00:05.000</property>
  <property name="kdenlive:folderid">99</property>
  <property name="kdenlive:id">119</property>
  <property name="kdenlive:file_size">503549</property>
  <property name="kdenlive:file_hash">abc4b77d5489c3d1dd5ed2a123632740</property>
  <property name="kdenlive:proxy">/home/xiaoxiae/.cache/kdenlive/proxy/abc4b77d5489c3d1dd5ed2a123632740.png</property>
  <property name="kdenlive:originalurl">video/InducedSubgraph/7.png</property>
  <property name="global_feed">1</property>
  <property name="kdenlive:original.mlt_type">producer</property>
  <property name="kdenlive:original.in">0</property>
  <property name="kdenlive:original.out">14999</property>
  <property name="kdenlive:original.length">15000</property>
  <property name="kdenlive:original.eof">pause</property>
  <property name="kdenlive:original.resource">video/InducedSubgraph/7.png</property>
  <property name="kdenlive:original.ttl">25</property>
  <property name="kdenlive:original.aspect_ratio">1</property>
  <property name="kdenlive:original.progressive">1</property>
  <property name="kdenlive:original.seekable">1</property>
  <property name="kdenlive:original.meta.media.width">3840</property>
  <property name="kdenlive:original.meta.media.height">2160</property>
  <property name="kdenlive:original.mlt_service">qimage</property>
  <property name="kdenlive:original.backup">1</property>
 </producer>
 <producer id="producer155" in="00:00:00.000" out="00:00:00.983">
  <property name="length">60</property>
  <property name="eof">pause</property>
  <property name="resource">/home/xiaoxiae/.cache/kdenlive/proxy/6667e790b1e80a2ab31ca0368269b461.mkv</property>
  <property name="audio_index">-1</property>
  <property name="video_index">0</property>
  <property name="mute_on_pause">0</property>
  <property name="mlt_service">avformat-novalidate</property>
  <property name="seekable">1</property>
  <property name="aspect_ratio">1</property>
  <property name="kdenlive:clipname">8.mp4</property>
  <property name="kdenlive:folderid">99</property>
  <property name="kdenlive:id">120</property>
  <property name="kdenlive:file_size">214649</property>
  <property name="kdenlive:file_hash">6667e790b1e80a2ab31ca0368269b461</property>
  <property name="kdenlive:proxy">/home/xiaoxiae/.cache/kdenlive/proxy/6667e790b1e80a2ab31ca0368269b461.mkv</property>
  <property name="kdenlive:originalurl">video/InducedSubgraph/8.mp4</property>
  <property name="global_feed">1</property>
  <property name="meta.media.nb_streams">1</property>
  <property name="meta.media.0.stream.type">video</property>
  <property name="meta.media.0.stream.frame_rate">60</property>
  <property name="meta.media.0.stream.sample_aspect_ratio">0</property>
  <property name="meta.media.0.codec.width">640</property>
  <property name="meta.media.0.codec.height">360</property>
  <property name="meta.media.0.codec.rotate">0</property>
  <property name="meta.media.0.codec.frame_rate">60</property>
  <property name="meta.media.0.codec.pix_fmt">yuv420p</property>
  <property name="meta.media.0.codec.sample_aspect_ratio">0</property>
  <property name="meta.media.0.codec.colorspace">601</property>
  <property name="meta.media.0.codec.name">h264</property>
  <property name="meta.media.0.codec.long_name">H.264 / AVC / MPEG-4 AVC / MPEG-4 part 10</property>
  <property name="meta.media.0.codec.bit_rate">0</property>
  <property name="meta.attr.0.stream.HANDLER_NAME.markup">VideoHandler</property>
  <property name="meta.attr.0.stream.VENDOR_ID.markup">[0][0][0][0]</property>
  <property name="meta.attr.0.stream.ENCODER.markup">Lavc58.134.100 libx264</property>
  <property name="meta.attr.0.stream.DURATION.markup">00:00:01.000000000</property>
  <property name="meta.attr.COMMENT.markup">Rendered with Manim Community v0.6.0</property>
  <property name="meta.attr.MAJOR_BRAND.markup">isom</property>
  <property name="meta.attr.MINOR_VERSION.markup">512</property>
  <property name="meta.attr.COMPATIBLE_BRANDS.markup">isomiso2avc1mp41</property>
  <property name="meta.attr.ENCODER.markup">Lavf58.76.100</property>
  <property name="meta.media.sample_aspect_num">1</property>
  <property name="meta.media.sample_aspect_den">1</property>
  <property name="meta.media.frame_rate_num">60</property>
  <property name="meta.media.frame_rate_den">1</property>
  <property name="meta.media.colorspace">601</property>
  <property name="meta.media.color_trc">2</property>
  <property name="meta.media.width">640</property>
  <property name="meta.media.height">360</property>
  <property name="meta.media.color_range">mpeg</property>
  <property name="meta.media.top_field_first">0</property>
  <property name="meta.media.progressive">1</property>
  <property name="kdenlive:original.mlt_type">producer</property>
  <property name="kdenlive:original.in">0</property>
  <property name="kdenlive:original.out">59</property>
  <property name="kdenlive:original.length">60</property>
  <property name="kdenlive:original.eof">pause</property>
  <property name="kdenlive:original.resource">video/InducedSubgraph/8.mp4</property>
  <property name="kdenlive:original.meta.media.nb_streams">1</property>
  <property name="kdenlive:original.meta.media.0.stream.type">video</property>
  <property name="kdenlive:original.meta.media.0.stream.frame_rate">60</property>
  <property name="kdenlive:original.meta.media.0.stream.sample_aspect_ratio">0</property>
  <property name="kdenlive:original.meta.media.0.codec.width">3840</property>
  <property name="kdenlive:original.meta.media.0.codec.height">2160</property>
  <property name="kdenlive:original.meta.media.0.codec.rotate">0</property>
  <property name="kdenlive:original.meta.media.0.codec.frame_rate">60</property>
  <property name="kdenlive:original.meta.media.0.codec.pix_fmt">yuv420p</property>
  <property name="kdenlive:original.meta.media.0.codec.sample_aspect_ratio">0</property>
  <property name="kdenlive:original.meta.media.0.codec.colorspace">709</property>
  <property name="kdenlive:original.meta.media.0.codec.name">h264</property>
  <property name="kdenlive:original.meta.media.0.codec.long_name">H.264 / AVC / MPEG-4 AVC / MPEG-4 part 10</property>
  <property name="kdenlive:original.meta.media.0.codec.bit_rate">1704144</property>
  <property name="kdenlive:original.meta.attr.0.stream.handler_name.markup">VideoHandler</property>
  <property name="kdenlive:original.meta.attr.0.stream.vendor_id.markup">[0][0][0][0]</property>
  <property name="kdenlive:original.meta.attr.major_brand.markup">isom</property>
  <property name="kdenlive:original.meta.attr.minor_version.markup">512</property>
  <property name="kdenlive:original.meta.attr.compatible_brands.markup">isomiso2avc1mp41</property>
  <property name="kdenlive:original.meta.attr.encoder.markup">Lavf58.76.100</property>
  <property name="kdenlive:original.meta.attr.comment.markup">Rendered with Manim Community v0.6.0</property>
  <property name="kdenlive:original.seekable">1</property>
  <property name="kdenlive:original.width">3840</property>
  <property name="kdenlive:original.height">2160</property>
  <property name="kdenlive:original.meta.media.sample_aspect_num">1</property>
  <property name="kdenlive:original.meta.media.sample_aspect_den">1</property>
  <property name="kdenlive:original.aspect_ratio">1</property>
  <property name="kdenlive:original.audio_index">-1</property>
  <property name="kdenlive:original.video_index">0</property>
  <property name="kdenlive:original.mute_on_pause">1</property>
  <property name="kdenlive:original.mlt_service">avformat</property>
  <property name="kdenlive:original.meta.media.frame_rate_num">60</property>
  <property name="kdenlive:original.meta.media.frame_rate_den">1</property>
  <property name="kdenlive:original.meta.media.colorspace">709</property>
  <property name="kdenlive:original.meta.media.color_trc">2</property>
  <property name="kdenlive:original.meta.media.width">3840</property>
  <property name="kdenlive:original.meta.media.height">2160</property>
  <property name="kdenlive:original.meta.media.color_range">mpeg</property>
  <property name="kdenlive:original.meta.media.top_field_first">0</property>
  <property name="kdenlive:original.meta.media.progressive">1</property>
  <property name="kdenlive:original.backup">1</property>
 </producer>
 <producer id="producer156" in="00:00:00.000" out="00:00:04.983">
  <property name="length">00:00:05.000</property>
  <property name="eof">pause</property>
  <property name="resource">/home/xiaoxiae/.cache/kdenlive/proxy/c5b4c5b6186acecd3ce33c49c35c7a85.png</property>
  <property name="ttl">25</property>
  <property name="aspect_ratio">1</property>
  <property name="progressive">1</property>
  <property name="seekable">1</property>
  <property name="meta.media.width">800</property>
  <property name="meta.media.height">450</property>
  <property name="mlt_service">qimage</property>
  <property name="kdenlive:clipname">8.png</property>
  <property name="kdenlive:duration">00:00:05.000</property>
  <property name="kdenlive:folderid">99</property>
  <property name="kdenlive:id">121</property>
  <property name="kdenlive:file_size">511141</property>
  <property name="kdenlive:file_hash">c5b4c5b6186acecd3ce33c49c35c7a85</property>
  <property name="kdenlive:proxy">/home/xiaoxiae/.cache/kdenlive/proxy/c5b4c5b6186acecd3ce33c49c35c7a85.png</property>
  <property name="kdenlive:originalurl">video/InducedSubgraph/8.png</property>
  <property name="global_feed">1</property>
 </producer>
 <producer id="producer158" in="00:00:00.000" out="00:00:00.983">
  <property name="length">60</property>
  <property name="eof">pause</property>
  <property name="resource">/home/xiaoxiae/.cache/kdenlive/proxy/7cfbe62e8d6a9c87d54b6841be4e6dba.mkv</property>
  <property name="audio_index">-1</property>
  <property name="video_index">0</property>
  <property name="mute_on_pause">0</property>
  <property name="mlt_service">avformat-novalidate</property>
  <property name="seekable">1</property>
  <property name="aspect_ratio">1</property>
  <property name="kdenlive:clipname">9.mp4</property>
  <property name="kdenlive:folderid">99</property>
  <property name="kdenlive:id">122</property>
  <property name="kdenlive:file_size">171806</property>
  <property name="kdenlive:file_hash">7cfbe62e8d6a9c87d54b6841be4e6dba</property>
  <property name="kdenlive:proxy">/home/xiaoxiae/.cache/kdenlive/proxy/7cfbe62e8d6a9c87d54b6841be4e6dba.mkv</property>
  <property name="kdenlive:originalurl">video/InducedSubgraph/9.mp4</property>
  <property name="global_feed">1</property>
  <property name="meta.media.nb_streams">1</property>
  <property name="meta.media.0.stream.type">video</property>
  <property name="meta.media.0.stream.frame_rate">60</property>
  <property name="meta.media.0.stream.sample_aspect_ratio">0</property>
  <property name="meta.media.0.codec.width">640</property>
  <property name="meta.media.0.codec.height">360</property>
  <property name="meta.media.0.codec.rotate">0</property>
  <property name="meta.media.0.codec.frame_rate">60</property>
  <property name="meta.media.0.codec.pix_fmt">yuv420p</property>
  <property name="meta.media.0.codec.sample_aspect_ratio">0</property>
  <property name="meta.media.0.codec.colorspace">601</property>
  <property name="meta.media.0.codec.name">h264</property>
  <property name="meta.media.0.codec.long_name">H.264 / AVC / MPEG-4 AVC / MPEG-4 part 10</property>
  <property name="meta.media.0.codec.bit_rate">0</property>
  <property name="meta.attr.0.stream.HANDLER_NAME.markup">VideoHandler</property>
  <property name="meta.attr.0.stream.VENDOR_ID.markup">[0][0][0][0]</property>
  <property name="meta.attr.0.stream.ENCODER.markup">Lavc58.134.100 libx264</property>
  <property name="meta.attr.0.stream.DURATION.markup">00:00:01.000000000</property>
  <property name="meta.attr.COMMENT.markup">Rendered with Manim Community v0.6.0</property>
  <property name="meta.attr.MAJOR_BRAND.markup">isom</property>
  <property name="meta.attr.MINOR_VERSION.markup">512</property>
  <property name="meta.attr.COMPATIBLE_BRANDS.markup">isomiso2avc1mp41</property>
  <property name="meta.attr.ENCODER.markup">Lavf58.76.100</property>
  <property name="meta.media.sample_aspect_num">1</property>
  <property name="meta.media.sample_aspect_den">1</property>
  <property name="meta.media.frame_rate_num">60</property>
  <property name="meta.media.frame_rate_den">1</property>
  <property name="meta.media.colorspace">601</property>
  <property name="meta.media.color_trc">2</property>
  <property name="meta.media.width">640</property>
  <property name="meta.media.height">360</property>
  <property name="meta.media.color_range">mpeg</property>
  <property name="meta.media.top_field_first">0</property>
  <property name="meta.media.progressive">1</property>
  <property name="kdenlive:original.mlt_type">producer</property>
  <property name="kdenlive:original.in">0</property>
  <property name="kdenlive:original.out">59</property>
  <property name="kdenlive:original.length">60</property>
  <property name="kdenlive:original.eof">pause</property>
  <property name="kdenlive:original.resource">video/InducedSubgraph/9.mp4</property>
  <property name="kdenlive:original.meta.media.nb_streams">1</property>
  <property name="kdenlive:original.meta.media.0.stream.type">video</property>
  <property name="kdenlive:original.meta.media.0.stream.frame_rate">60</property>
  <property name="kdenlive:original.meta.media.0.stream.sample_aspect_ratio">0</property>
  <property name="kdenlive:original.meta.media.0.codec.width">3840</property>
  <property name="kdenlive:original.meta.media.0.codec.height">2160</property>
  <property name="kdenlive:original.meta.media.0.codec.rotate">0</property>
  <property name="kdenlive:original.meta.media.0.codec.frame_rate">60</property>
  <property name="kdenlive:original.meta.media.0.codec.pix_fmt">yuv420p</property>
  <property name="kdenlive:original.meta.media.0.codec.sample_aspect_ratio">0</property>
  <property name="kdenlive:original.meta.media.0.codec.colorspace">709</property>
  <property name="kdenlive:original.meta.media.0.codec.name">h264</property>
  <property name="kdenlive:original.meta.media.0.codec.long_name">H.264 / AVC / MPEG-4 AVC / MPEG-4 part 10</property>
  <property name="kdenlive:original.meta.media.0.codec.bit_rate">1361400</property>
  <property name="kdenlive:original.meta.attr.0.stream.handler_name.markup">VideoHandler</property>
  <property name="kdenlive:original.meta.attr.0.stream.vendor_id.markup">[0][0][0][0]</property>
  <property name="kdenlive:original.meta.attr.major_brand.markup">isom</property>
  <property name="kdenlive:original.meta.attr.minor_version.markup">512</property>
  <property name="kdenlive:original.meta.attr.compatible_brands.markup">isomiso2avc1mp41</property>
  <property name="kdenlive:original.meta.attr.encoder.markup">Lavf58.76.100</property>
  <property name="kdenlive:original.meta.attr.comment.markup">Rendered with Manim Community v0.6.0</property>
  <property name="kdenlive:original.seekable">1</property>
  <property name="kdenlive:original.width">3840</property>
  <property name="kdenlive:original.height">2160</property>
  <property name="kdenlive:original.meta.media.sample_aspect_num">1</property>
  <property name="kdenlive:original.meta.media.sample_aspect_den">1</property>
  <property name="kdenlive:original.aspect_ratio">1</property>
  <property name="kdenlive:original.audio_index">-1</property>
  <property name="kdenlive:original.video_index">0</property>
  <property name="kdenlive:original.mute_on_pause">1</property>
  <property name="kdenlive:original.mlt_service">avformat</property>
  <property name="kdenlive:original.meta.media.frame_rate_num">60</property>
  <property name="kdenlive:original.meta.media.frame_rate_den">1</property>
  <property name="kdenlive:original.meta.media.colorspace">709</property>
  <property name="kdenlive:original.meta.media.color_trc">2</property>
  <property name="kdenlive:original.meta.media.width">3840</property>
  <property name="kdenlive:original.meta.media.height">2160</property>
  <property name="kdenlive:original.meta.media.color_range">mpeg</property>
  <property name="kdenlive:original.meta.media.top_field_first">0</property>
  <property name="kdenlive:original.meta.media.progressive">1</property>
  <property name="kdenlive:original.backup">1</property>
 </producer>
 <producer id="producer160" in="00:00:00.000" out="00:00:04.983">
  <property name="length">00:00:05.000</property>
  <property name="eof">pause</property>
  <property name="resource">/home/xiaoxiae/.cache/kdenlive/proxy/0686a390f91546cd6880d4067668ebcb.png</property>
  <property name="ttl">25</property>
  <property name="aspect_ratio">1</property>
  <property name="progressive">1</property>
  <property name="seekable">1</property>
  <property name="meta.media.width">800</property>
  <property name="meta.media.height">450</property>
  <property name="mlt_service">qimage</property>
  <property name="kdenlive:clipname">9.png</property>
  <property name="kdenlive:duration">00:00:05.000</property>
  <property name="kdenlive:folderid">99</property>
  <property name="kdenlive:id">123</property>
  <property name="kdenlive:file_size">505058</property>
  <property name="kdenlive:file_hash">0686a390f91546cd6880d4067668ebcb</property>
  <property name="kdenlive:proxy">/home/xiaoxiae/.cache/kdenlive/proxy/0686a390f91546cd6880d4067668ebcb.png</property>
  <property name="kdenlive:originalurl">video/InducedSubgraph/9.png</property>
  <property name="global_feed">1</property>
 </producer>
 <producer id="producer165" in="00:00:00.000" out="00:00:01.983">
  <property name="length">120</property>
  <property name="eof">pause</property>
  <property name="resource">/home/xiaoxiae/.cache/kdenlive/proxy/666c4ce1891b2e1b762c61f1411ff500.mkv</property>
  <property name="audio_index">-1</property>
  <property name="video_index">0</property>
  <property name="mute_on_pause">0</property>
  <property name="mlt_service">avformat-novalidate</property>
  <property name="seekable">1</property>
  <property name="aspect_ratio">1</property>
  <property name="kdenlive:clipname">1.mp4</property>
  <property name="kdenlive:folderid">124</property>
  <property name="kdenlive:id">125</property>
  <property name="kdenlive:file_size">285602</property>
  <property name="kdenlive:file_hash">666c4ce1891b2e1b762c61f1411ff500</property>
  <property name="kdenlive:proxy">/home/xiaoxiae/.cache/kdenlive/proxy/666c4ce1891b2e1b762c61f1411ff500.mkv</property>
  <property name="kdenlive:originalurl">video/Introduction/1.mp4</property>
  <property name="global_feed">1</property>
  <property name="meta.media.nb_streams">1</property>
  <property name="meta.media.0.stream.type">video</property>
  <property name="meta.media.0.stream.frame_rate">60</property>
  <property name="meta.media.0.stream.sample_aspect_ratio">0</property>
  <property name="meta.media.0.codec.width">640</property>
  <property name="meta.media.0.codec.height">360</property>
  <property name="meta.media.0.codec.rotate">0</property>
  <property name="meta.media.0.codec.frame_rate">60</property>
  <property name="meta.media.0.codec.pix_fmt">yuv420p</property>
  <property name="meta.media.0.codec.sample_aspect_ratio">0</property>
  <property name="meta.media.0.codec.colorspace">601</property>
  <property name="meta.media.0.codec.name">h264</property>
  <property name="meta.media.0.codec.long_name">H.264 / AVC / MPEG-4 AVC / MPEG-4 part 10</property>
  <property name="meta.media.0.codec.bit_rate">0</property>
  <property name="meta.attr.0.stream.HANDLER_NAME.markup">VideoHandler</property>
  <property name="meta.attr.0.stream.VENDOR_ID.markup">[0][0][0][0]</property>
  <property name="meta.attr.0.stream.ENCODER.markup">Lavc58.134.100 libx264</property>
  <property name="meta.attr.0.stream.DURATION.markup">00:00:02.000000000</property>
  <property name="meta.attr.COMMENT.markup">Rendered with Manim Community v0.6.0</property>
  <property name="meta.attr.MAJOR_BRAND.markup">isom</property>
  <property name="meta.attr.MINOR_VERSION.markup">512</property>
  <property name="meta.attr.COMPATIBLE_BRANDS.markup">isomiso2avc1mp41</property>
  <property name="meta.attr.ENCODER.markup">Lavf58.76.100</property>
  <property name="meta.media.sample_aspect_num">1</property>
  <property name="meta.media.sample_aspect_den">1</property>
  <property name="meta.media.frame_rate_num">60</property>
  <property name="meta.media.frame_rate_den">1</property>
  <property name="meta.media.colorspace">601</property>
  <property name="meta.media.color_trc">2</property>
  <property name="meta.media.width">640</property>
  <property name="meta.media.height">360</property>
  <property name="meta.media.color_range">mpeg</property>
  <property name="meta.media.top_field_first">0</property>
  <property name="meta.media.progressive">1</property>
  <property name="kdenlive:original.mlt_type">producer</property>
  <property name="kdenlive:original.in">0</property>
  <property name="kdenlive:original.out">119</property>
  <property name="kdenlive:original.length">120</property>
  <property name="kdenlive:original.eof">pause</property>
  <property name="kdenlive:original.resource">video/Introduction/1.mp4</property>
  <property name="kdenlive:original.meta.media.nb_streams">1</property>
  <property name="kdenlive:original.meta.media.0.stream.type">video</property>
  <property name="kdenlive:original.meta.media.0.stream.frame_rate">60</property>
  <property name="kdenlive:original.meta.media.0.stream.sample_aspect_ratio">0</property>
  <property name="kdenlive:original.meta.media.0.codec.width">3840</property>
  <property name="kdenlive:original.meta.media.0.codec.height">2160</property>
  <property name="kdenlive:original.meta.media.0.codec.rotate">0</property>
  <property name="kdenlive:original.meta.media.0.codec.frame_rate">60</property>
  <property name="kdenlive:original.meta.media.0.codec.pix_fmt">yuv420p</property>
  <property name="kdenlive:original.meta.media.0.codec.sample_aspect_ratio">0</property>
  <property name="kdenlive:original.meta.media.0.codec.colorspace">709</property>
  <property name="kdenlive:original.meta.media.0.codec.name">h264</property>
  <property name="kdenlive:original.meta.media.0.codec.long_name">H.264 / AVC / MPEG-4 AVC / MPEG-4 part 10</property>
  <property name="kdenlive:original.meta.media.0.codec.bit_rate">1133004</property>
  <property name="kdenlive:original.meta.attr.0.stream.handler_name.markup">VideoHandler</property>
  <property name="kdenlive:original.meta.attr.0.stream.vendor_id.markup">[0][0][0][0]</property>
  <property name="kdenlive:original.meta.attr.major_brand.markup">isom</property>
  <property name="kdenlive:original.meta.attr.minor_version.markup">512</property>
  <property name="kdenlive:original.meta.attr.compatible_brands.markup">isomiso2avc1mp41</property>
  <property name="kdenlive:original.meta.attr.encoder.markup">Lavf58.76.100</property>
  <property name="kdenlive:original.meta.attr.comment.markup">Rendered with Manim Community v0.6.0</property>
  <property name="kdenlive:original.seekable">1</property>
  <property name="kdenlive:original.width">3840</property>
  <property name="kdenlive:original.height">2160</property>
  <property name="kdenlive:original.meta.media.sample_aspect_num">1</property>
  <property name="kdenlive:original.meta.media.sample_aspect_den">1</property>
  <property name="kdenlive:original.aspect_ratio">1</property>
  <property name="kdenlive:original.audio_index">-1</property>
  <property name="kdenlive:original.video_index">0</property>
  <property name="kdenlive:original.mute_on_pause">1</property>
  <property name="kdenlive:original.mlt_service">avformat</property>
  <property name="kdenlive:original.meta.media.frame_rate_num">60</property>
  <property name="kdenlive:original.meta.media.frame_rate_den">1</property>
  <property name="kdenlive:original.meta.media.colorspace">709</property>
  <property name="kdenlive:original.meta.media.color_trc">2</property>
  <property name="kdenlive:original.meta.media.width">3840</property>
  <property name="kdenlive:original.meta.media.height">2160</property>
  <property name="kdenlive:original.meta.media.color_range">mpeg</property>
  <property name="kdenlive:original.meta.media.top_field_first">0</property>
  <property name="kdenlive:original.meta.media.progressive">1</property>
  <property name="kdenlive:original.backup">1</property>
 </producer>
 <producer id="producer162" in="00:00:00.000" out="00:00:04.983">
  <property name="length">00:00:05.000</property>
  <property name="eof">pause</property>
  <property name="resource">/home/xiaoxiae/.cache/kdenlive/proxy/e314fa7dabe776fd431a10c1c2319448.png</property>
  <property name="ttl">25</property>
  <property name="aspect_ratio">1</property>
  <property name="progressive">1</property>
  <property name="seekable">1</property>
  <property name="meta.media.width">800</property>
  <property name="meta.media.height">450</property>
  <property name="mlt_service">qimage</property>
  <property name="kdenlive:clipname">1.png</property>
  <property name="kdenlive:duration">00:00:05.000</property>
  <property name="kdenlive:folderid">124</property>
  <property name="kdenlive:id">126</property>
  <property name="kdenlive:file_size">431678</property>
  <property name="kdenlive:file_hash">e314fa7dabe776fd431a10c1c2319448</property>
  <property name="kdenlive:proxy">/home/xiaoxiae/.cache/kdenlive/proxy/e314fa7dabe776fd431a10c1c2319448.png</property>
  <property name="kdenlive:originalurl">video/Introduction/1.png</property>
  <property name="global_feed">1</property>
 </producer>
 <producer id="producer161" in="00:00:00.000" out="00:00:00.983">
  <property name="length">60</property>
  <property name="eof">pause</property>
  <property name="resource">/home/xiaoxiae/.cache/kdenlive/proxy/e906077d540a1f13452d06d4568edb03.mkv</property>
  <property name="audio_index">-1</property>
  <property name="video_index">0</property>
  <property name="mute_on_pause">0</property>
  <property name="mlt_service">avformat-novalidate</property>
  <property name="seekable">1</property>
  <property name="aspect_ratio">1</property>
  <property name="kdenlive:clipname">10.mp4</property>
  <property name="kdenlive:folderid">124</property>
  <property name="kdenlive:id">127</property>
  <property name="kdenlive:file_size">97402</property>
  <property name="kdenlive:file_hash">e906077d540a1f13452d06d4568edb03</property>
  <property name="kdenlive:proxy">/home/xiaoxiae/.cache/kdenlive/proxy/e906077d540a1f13452d06d4568edb03.mkv</property>
  <property name="kdenlive:originalurl">video/Introduction/10.mp4</property>
  <property name="global_feed">1</property>
  <property name="meta.media.nb_streams">1</property>
  <property name="meta.media.0.stream.type">video</property>
  <property name="meta.media.0.stream.frame_rate">60</property>
  <property name="meta.media.0.stream.sample_aspect_ratio">0</property>
  <property name="meta.media.0.codec.width">640</property>
  <property name="meta.media.0.codec.height">360</property>
  <property name="meta.media.0.codec.rotate">0</property>
  <property name="meta.media.0.codec.frame_rate">60</property>
  <property name="meta.media.0.codec.pix_fmt">yuv420p</property>
  <property name="meta.media.0.codec.sample_aspect_ratio">0</property>
  <property name="meta.media.0.codec.colorspace">601</property>
  <property name="meta.media.0.codec.name">h264</property>
  <property name="meta.media.0.codec.long_name">H.264 / AVC / MPEG-4 AVC / MPEG-4 part 10</property>
  <property name="meta.media.0.codec.bit_rate">0</property>
  <property name="meta.attr.0.stream.HANDLER_NAME.markup">VideoHandler</property>
  <property name="meta.attr.0.stream.VENDOR_ID.markup">[0][0][0][0]</property>
  <property name="meta.attr.0.stream.ENCODER.markup">Lavc58.134.100 libx264</property>
  <property name="meta.attr.0.stream.DURATION.markup">00:00:01.000000000</property>
  <property name="meta.attr.COMMENT.markup">Rendered with Manim Community v0.6.0</property>
  <property name="meta.attr.MAJOR_BRAND.markup">isom</property>
  <property name="meta.attr.MINOR_VERSION.markup">512</property>
  <property name="meta.attr.COMPATIBLE_BRANDS.markup">isomiso2avc1mp41</property>
  <property name="meta.attr.ENCODER.markup">Lavf58.76.100</property>
  <property name="meta.media.sample_aspect_num">1</property>
  <property name="meta.media.sample_aspect_den">1</property>
  <property name="meta.media.frame_rate_num">60</property>
  <property name="meta.media.frame_rate_den">1</property>
  <property name="meta.media.colorspace">601</property>
  <property name="meta.media.color_trc">2</property>
  <property name="meta.media.width">640</property>
  <property name="meta.media.height">360</property>
  <property name="meta.media.color_range">mpeg</property>
  <property name="meta.media.top_field_first">0</property>
  <property name="meta.media.progressive">1</property>
  <property name="kdenlive:original.mlt_type">producer</property>
  <property name="kdenlive:original.in">0</property>
  <property name="kdenlive:original.out">59</property>
  <property name="kdenlive:original.length">60</property>
  <property name="kdenlive:original.eof">pause</property>
  <property name="kdenlive:original.resource">video/Introduction/10.mp4</property>
  <property name="kdenlive:original.meta.media.nb_streams">1</property>
  <property name="kdenlive:original.meta.media.0.stream.type">video</property>
  <property name="kdenlive:original.meta.media.0.stream.frame_rate">60</property>
  <property name="kdenlive:original.meta.media.0.stream.sample_aspect_ratio">0</property>
  <property name="kdenlive:original.meta.media.0.codec.width">3840</property>
  <property name="kdenlive:original.meta.media.0.codec.height">2160</property>
  <property name="kdenlive:original.meta.media.0.codec.rotate">0</property>
  <property name="kdenlive:original.meta.media.0.codec.frame_rate">60</property>
  <property name="kdenlive:original.meta.media.0.codec.pix_fmt">yuv420p</property>
  <property name="kdenlive:original.meta.media.0.codec.sample_aspect_ratio">0</property>
  <property name="kdenlive:original.meta.media.0.codec.colorspace">709</property>
  <property name="kdenlive:original.meta.media.0.codec.name">h264</property>
  <property name="kdenlive:original.meta.media.0.codec.long_name">H.264 / AVC / MPEG-4 AVC / MPEG-4 part 10</property>
  <property name="kdenlive:original.meta.media.0.codec.bit_rate">766168</property>
  <property name="kdenlive:original.meta.attr.0.stream.handler_name.markup">VideoHandler</property>
  <property name="kdenlive:original.meta.attr.0.stream.vendor_id.markup">[0][0][0][0]</property>
  <property name="kdenlive:original.meta.attr.major_brand.markup">isom</property>
  <property name="kdenlive:original.meta.attr.minor_version.markup">512</property>
  <property name="kdenlive:original.meta.attr.compatible_brands.markup">isomiso2avc1mp41</property>
  <property name="kdenlive:original.meta.attr.encoder.markup">Lavf58.76.100</property>
  <property name="kdenlive:original.meta.attr.comment.markup">Rendered with Manim Community v0.6.0</property>
  <property name="kdenlive:original.seekable">1</property>
  <property name="kdenlive:original.width">3840</property>
  <property name="kdenlive:original.height">2160</property>
  <property name="kdenlive:original.meta.media.sample_aspect_num">1</property>
  <property name="kdenlive:original.meta.media.sample_aspect_den">1</property>
  <property name="kdenlive:original.aspect_ratio">1</property>
  <property name="kdenlive:original.audio_index">-1</property>
  <property name="kdenlive:original.video_index">0</property>
  <property name="kdenlive:original.mute_on_pause">1</property>
  <property name="kdenlive:original.mlt_service">avformat</property>
  <property name="kdenlive:original.meta.media.frame_rate_num">60</property>
  <property name="kdenlive:original.meta.media.frame_rate_den">1</property>
  <property name="kdenlive:original.meta.media.colorspace">709</property>
  <property name="kdenlive:original.meta.media.color_trc">2</property>
  <property name="kdenlive:original.meta.media.width">3840</property>
  <property name="kdenlive:original.meta.media.height">2160</property>
  <property name="kdenlive:original.meta.media.color_range">mpeg</property>
  <property name="kdenlive:original.meta.media.top_field_first">0</property>
  <property name="kdenlive:original.meta.media.progressive">1</property>
  <property name="kdenlive:original.backup">1</property>
 </producer>
 <producer id="producer163" in="00:00:00.000" out="00:00:04.983">
  <property name="length">00:00:05.000</property>
  <property name="eof">pause</property>
  <property name="resource">/home/xiaoxiae/.cache/kdenlive/proxy/bcfe67c0332d6be3ecc4fb10dd9f0be5.png</property>
  <property name="ttl">25</property>
  <property name="aspect_ratio">1</property>
  <property name="progressive">1</property>
  <property name="seekable">1</property>
  <property name="meta.media.width">800</property>
  <property name="meta.media.height">450</property>
  <property name="mlt_service">qimage</property>
  <property name="kdenlive:clipname">10.png</property>
  <property name="kdenlive:duration">00:00:05.000</property>
  <property name="kdenlive:folderid">124</property>
  <property name="kdenlive:id">128</property>
  <property name="kdenlive:file_size">291928</property>
  <property name="kdenlive:file_hash">bcfe67c0332d6be3ecc4fb10dd9f0be5</property>
  <property name="kdenlive:proxy">/home/xiaoxiae/.cache/kdenlive/proxy/bcfe67c0332d6be3ecc4fb10dd9f0be5.png</property>
  <property name="kdenlive:originalurl">video/Introduction/10.png</property>
  <property name="global_feed">1</property>
 </producer>
 <producer id="producer166" in="00:00:00.000" out="00:00:00.983">
  <property name="length">60</property>
  <property name="eof">pause</property>
  <property name="resource">/home/xiaoxiae/.cache/kdenlive/proxy/91de6f640b8dc3f546ab555f15b40ce7.mkv</property>
  <property name="audio_index">-1</property>
  <property name="video_index">0</property>
  <property name="mute_on_pause">0</property>
  <property name="mlt_service">avformat-novalidate</property>
  <property name="seekable">1</property>
  <property name="aspect_ratio">1</property>
  <property name="kdenlive:clipname">11.mp4</property>
  <property name="kdenlive:folderid">124</property>
  <property name="kdenlive:id">129</property>
  <property name="kdenlive:file_size">146333</property>
  <property name="kdenlive:file_hash">91de6f640b8dc3f546ab555f15b40ce7</property>
  <property name="kdenlive:proxy">/home/xiaoxiae/.cache/kdenlive/proxy/91de6f640b8dc3f546ab555f15b40ce7.mkv</property>
  <property name="kdenlive:originalurl">video/Introduction/11.mp4</property>
  <property name="global_feed">1</property>
  <property name="meta.media.nb_streams">1</property>
  <property name="meta.media.0.stream.type">video</property>
  <property name="meta.media.0.stream.frame_rate">60</property>
  <property name="meta.media.0.stream.sample_aspect_ratio">0</property>
  <property name="meta.media.0.codec.width">640</property>
  <property name="meta.media.0.codec.height">360</property>
  <property name="meta.media.0.codec.rotate">0</property>
  <property name="meta.media.0.codec.frame_rate">60</property>
  <property name="meta.media.0.codec.pix_fmt">yuv420p</property>
  <property name="meta.media.0.codec.sample_aspect_ratio">0</property>
  <property name="meta.media.0.codec.colorspace">601</property>
  <property name="meta.media.0.codec.name">h264</property>
  <property name="meta.media.0.codec.long_name">H.264 / AVC / MPEG-4 AVC / MPEG-4 part 10</property>
  <property name="meta.media.0.codec.bit_rate">0</property>
  <property name="meta.attr.0.stream.HANDLER_NAME.markup">VideoHandler</property>
  <property name="meta.attr.0.stream.VENDOR_ID.markup">[0][0][0][0]</property>
  <property name="meta.attr.0.stream.ENCODER.markup">Lavc58.134.100 libx264</property>
  <property name="meta.attr.0.stream.DURATION.markup">00:00:01.000000000</property>
  <property name="meta.attr.COMMENT.markup">Rendered with Manim Community v0.6.0</property>
  <property name="meta.attr.MAJOR_BRAND.markup">isom</property>
  <property name="meta.attr.MINOR_VERSION.markup">512</property>
  <property name="meta.attr.COMPATIBLE_BRANDS.markup">isomiso2avc1mp41</property>
  <property name="meta.attr.ENCODER.markup">Lavf58.76.100</property>
  <property name="meta.media.sample_aspect_num">1</property>
  <property name="meta.media.sample_aspect_den">1</property>
  <property name="meta.media.frame_rate_num">60</property>
  <property name="meta.media.frame_rate_den">1</property>
  <property name="meta.media.colorspace">601</property>
  <property name="meta.media.color_trc">2</property>
  <property name="meta.media.width">640</property>
  <property name="meta.media.height">360</property>
  <property name="meta.media.color_range">mpeg</property>
  <property name="meta.media.top_field_first">0</property>
  <property name="meta.media.progressive">1</property>
  <property name="kdenlive:original.mlt_type">producer</property>
  <property name="kdenlive:original.in">0</property>
  <property name="kdenlive:original.out">59</property>
  <property name="kdenlive:original.length">60</property>
  <property name="kdenlive:original.eof">pause</property>
  <property name="kdenlive:original.resource">video/Introduction/11.mp4</property>
  <property name="kdenlive:original.meta.media.nb_streams">1</property>
  <property name="kdenlive:original.meta.media.0.stream.type">video</property>
  <property name="kdenlive:original.meta.media.0.stream.frame_rate">60</property>
  <property name="kdenlive:original.meta.media.0.stream.sample_aspect_ratio">0</property>
  <property name="kdenlive:original.meta.media.0.codec.width">3840</property>
  <property name="kdenlive:original.meta.media.0.codec.height">2160</property>
  <property name="kdenlive:original.meta.media.0.codec.rotate">0</property>
  <property name="kdenlive:original.meta.media.0.codec.frame_rate">60</property>
  <property name="kdenlive:original.meta.media.0.codec.pix_fmt">yuv420p</property>
  <property name="kdenlive:original.meta.media.0.codec.sample_aspect_ratio">0</property>
  <property name="kdenlive:original.meta.media.0.codec.colorspace">709</property>
  <property name="kdenlive:original.meta.media.0.codec.name">h264</property>
  <property name="kdenlive:original.meta.media.0.codec.long_name">H.264 / AVC / MPEG-4 AVC / MPEG-4 part 10</property>
  <property name="kdenlive:original.meta.media.0.codec.bit_rate">1157680</property>
  <property name="kdenlive:original.meta.attr.0.stream.handler_name.markup">VideoHandler</property>
  <property name="kdenlive:original.meta.attr.0.stream.vendor_id.markup">[0][0][0][0]</property>
  <property name="kdenlive:original.meta.attr.major_brand.markup">isom</property>
  <property name="kdenlive:original.meta.attr.minor_version.markup">512</property>
  <property name="kdenlive:original.meta.attr.compatible_brands.markup">isomiso2avc1mp41</property>
  <property name="kdenlive:original.meta.attr.encoder.markup">Lavf58.76.100</property>
  <property name="kdenlive:original.meta.attr.comment.markup">Rendered with Manim Community v0.6.0</property>
  <property name="kdenlive:original.seekable">1</property>
  <property name="kdenlive:original.width">3840</property>
  <property name="kdenlive:original.height">2160</property>
  <property name="kdenlive:original.meta.media.sample_aspect_num">1</property>
  <property name="kdenlive:original.meta.media.sample_aspect_den">1</property>
  <property name="kdenlive:original.aspect_ratio">1</property>
  <property name="kdenlive:original.audio_index">-1</property>
  <property name="kdenlive:original.video_index">0</property>
  <property name="kdenlive:original.mute_on_pause">1</property>
  <property name="kdenlive:original.mlt_service">avformat</property>
  <property name="kdenlive:original.meta.media.frame_rate_num">60</property>
  <property name="kdenlive:original.meta.media.frame_rate_den">1</property>
  <property name="kdenlive:original.meta.media.colorspace">709</property>
  <property name="kdenlive:original.meta.media.color_trc">2</property>
  <property name="kdenlive:original.meta.media.width">3840</property>
  <property name="kdenlive:original.meta.media.height">2160</property>
  <property name="kdenlive:original.meta.media.color_range">mpeg</property>
  <property name="kdenlive:original.meta.media.top_field_first">0</property>
  <property name="kdenlive:original.meta.media.progressive">1</property>
  <property name="kdenlive:original.backup">1</property>
 </producer>
 <producer id="producer164" in="00:00:00.000" out="00:00:04.983">
  <property name="length">00:00:05.000</property>
  <property name="eof">pause</property>
  <property name="resource">/home/xiaoxiae/.cache/kdenlive/proxy/edb08ff56d50c4cba8031623f8cb20c9.png</property>
  <property name="ttl">25</property>
  <property name="aspect_ratio">1</property>
  <property name="progressive">1</property>
  <property name="seekable">1</property>
  <property name="meta.media.width">800</property>
  <property name="meta.media.height">450</property>
  <property name="mlt_service">qimage</property>
  <property name="kdenlive:clipname">11.png</property>
  <property name="kdenlive:duration">00:00:05.000</property>
  <property name="kdenlive:folderid">124</property>
  <property name="kdenlive:id">130</property>
  <property name="kdenlive:file_size">293705</property>
  <property name="kdenlive:file_hash">edb08ff56d50c4cba8031623f8cb20c9</property>
  <property name="kdenlive:proxy">/home/xiaoxiae/.cache/kdenlive/proxy/edb08ff56d50c4cba8031623f8cb20c9.png</property>
  <property name="kdenlive:originalurl">video/Introduction/11.png</property>
  <property name="global_feed">1</property>
 </producer>
 <producer id="producer167" in="00:00:00.000" out="00:00:00.983">
  <property name="length">60</property>
  <property name="eof">pause</property>
  <property name="resource">/home/xiaoxiae/.cache/kdenlive/proxy/5533dd7400ae3c8bf292198ffcf2e3ed.mkv</property>
  <property name="audio_index">-1</property>
  <property name="video_index">0</property>
  <property name="mute_on_pause">0</property>
  <property name="mlt_service">avformat-novalidate</property>
  <property name="seekable">1</property>
  <property name="aspect_ratio">1</property>
  <property name="kdenlive:clipname">12.mp4</property>
  <property name="kdenlive:folderid">124</property>
  <property name="kdenlive:id">131</property>
  <property name="kdenlive:file_size">86071</property>
  <property name="kdenlive:file_hash">5533dd7400ae3c8bf292198ffcf2e3ed</property>
  <property name="kdenlive:proxy">/home/xiaoxiae/.cache/kdenlive/proxy/5533dd7400ae3c8bf292198ffcf2e3ed.mkv</property>
  <property name="kdenlive:originalurl">video/Introduction/12.mp4</property>
  <property name="global_feed">1</property>
  <property name="meta.media.nb_streams">1</property>
  <property name="meta.media.0.stream.type">video</property>
  <property name="meta.media.0.stream.frame_rate">60</property>
  <property name="meta.media.0.stream.sample_aspect_ratio">0</property>
  <property name="meta.media.0.codec.width">640</property>
  <property name="meta.media.0.codec.height">360</property>
  <property name="meta.media.0.codec.rotate">0</property>
  <property name="meta.media.0.codec.frame_rate">60</property>
  <property name="meta.media.0.codec.pix_fmt">yuv420p</property>
  <property name="meta.media.0.codec.sample_aspect_ratio">0</property>
  <property name="meta.media.0.codec.colorspace">601</property>
  <property name="meta.media.0.codec.name">h264</property>
  <property name="meta.media.0.codec.long_name">H.264 / AVC / MPEG-4 AVC / MPEG-4 part 10</property>
  <property name="meta.media.0.codec.bit_rate">0</property>
  <property name="meta.attr.0.stream.HANDLER_NAME.markup">VideoHandler</property>
  <property name="meta.attr.0.stream.VENDOR_ID.markup">[0][0][0][0]</property>
  <property name="meta.attr.0.stream.ENCODER.markup">Lavc58.134.100 libx264</property>
  <property name="meta.attr.0.stream.DURATION.markup">00:00:01.000000000</property>
  <property name="meta.attr.COMMENT.markup">Rendered with Manim Community v0.6.0</property>
  <property name="meta.attr.MAJOR_BRAND.markup">isom</property>
  <property name="meta.attr.MINOR_VERSION.markup">512</property>
  <property name="meta.attr.COMPATIBLE_BRANDS.markup">isomiso2avc1mp41</property>
  <property name="meta.attr.ENCODER.markup">Lavf58.76.100</property>
  <property name="meta.media.sample_aspect_num">1</property>
  <property name="meta.media.sample_aspect_den">1</property>
  <property name="meta.media.frame_rate_num">60</property>
  <property name="meta.media.frame_rate_den">1</property>
  <property name="meta.media.colorspace">601</property>
  <property name="meta.media.color_trc">2</property>
  <property name="meta.media.width">640</property>
  <property name="meta.media.height">360</property>
  <property name="meta.media.color_range">mpeg</property>
  <property name="meta.media.top_field_first">0</property>
  <property name="meta.media.progressive">1</property>
  <property name="kdenlive:original.mlt_type">producer</property>
  <property name="kdenlive:original.in">0</property>
  <property name="kdenlive:original.out">59</property>
  <property name="kdenlive:original.length">60</property>
  <property name="kdenlive:original.eof">pause</property>
  <property name="kdenlive:original.resource">video/Introduction/12.mp4</property>
  <property name="kdenlive:original.meta.media.nb_streams">1</property>
  <property name="kdenlive:original.meta.media.0.stream.type">video</property>
  <property name="kdenlive:original.meta.media.0.stream.frame_rate">60</property>
  <property name="kdenlive:original.meta.media.0.stream.sample_aspect_ratio">0</property>
  <property name="kdenlive:original.meta.media.0.codec.width">3840</property>
  <property name="kdenlive:original.meta.media.0.codec.height">2160</property>
  <property name="kdenlive:original.meta.media.0.codec.rotate">0</property>
  <property name="kdenlive:original.meta.media.0.codec.frame_rate">60</property>
  <property name="kdenlive:original.meta.media.0.codec.pix_fmt">yuv420p</property>
  <property name="kdenlive:original.meta.media.0.codec.sample_aspect_ratio">0</property>
  <property name="kdenlive:original.meta.media.0.codec.colorspace">709</property>
  <property name="kdenlive:original.meta.media.0.codec.name">h264</property>
  <property name="kdenlive:original.meta.media.0.codec.long_name">H.264 / AVC / MPEG-4 AVC / MPEG-4 part 10</property>
  <property name="kdenlive:original.meta.media.0.codec.bit_rate">675520</property>
  <property name="kdenlive:original.meta.attr.0.stream.handler_name.markup">VideoHandler</property>
  <property name="kdenlive:original.meta.attr.0.stream.vendor_id.markup">[0][0][0][0]</property>
  <property name="kdenlive:original.meta.attr.major_brand.markup">isom</property>
  <property name="kdenlive:original.meta.attr.minor_version.markup">512</property>
  <property name="kdenlive:original.meta.attr.compatible_brands.markup">isomiso2avc1mp41</property>
  <property name="kdenlive:original.meta.attr.encoder.markup">Lavf58.76.100</property>
  <property name="kdenlive:original.meta.attr.comment.markup">Rendered with Manim Community v0.6.0</property>
  <property name="kdenlive:original.seekable">1</property>
  <property name="kdenlive:original.width">3840</property>
  <property name="kdenlive:original.height">2160</property>
  <property name="kdenlive:original.meta.media.sample_aspect_num">1</property>
  <property name="kdenlive:original.meta.media.sample_aspect_den">1</property>
  <property name="kdenlive:original.aspect_ratio">1</property>
  <property name="kdenlive:original.audio_index">-1</property>
  <property name="kdenlive:original.video_index">0</property>
  <property name="kdenlive:original.mute_on_pause">1</property>
  <property name="kdenlive:original.mlt_service">avformat</property>
  <property name="kdenlive:original.meta.media.frame_rate_num">60</property>
  <property name="kdenlive:original.meta.media.frame_rate_den">1</property>
  <property name="kdenlive:original.meta.media.colorspace">709</property>
  <property name="kdenlive:original.meta.media.color_trc">2</property>
  <property name="kdenlive:original.meta.media.width">3840</property>
  <property name="kdenlive:original.meta.media.height">2160</property>
  <property name="kdenlive:original.meta.media.color_range">mpeg</property>
  <property name="kdenlive:original.meta.media.top_field_first">0</property>
  <property name="kdenlive:original.meta.media.progressive">1</property>
  <property name="kdenlive:original.backup">1</property>
 </producer>
 <producer id="producer168" in="00:00:00.000" out="00:00:04.983">
  <property name="length">00:00:05.000</property>
  <property name="eof">pause</property>
  <property name="resource">/home/xiaoxiae/.cache/kdenlive/proxy/4f7c9bbf1e5116c2e1d39f91c7994af0.png</property>
  <property name="ttl">25</property>
  <property name="aspect_ratio">1</property>
  <property name="progressive">1</property>
  <property name="seekable">1</property>
  <property name="meta.media.width">800</property>
  <property name="meta.media.height">450</property>
  <property name="mlt_service">qimage</property>
  <property name="kdenlive:clipname">12.png</property>
  <property name="kdenlive:duration">00:00:05.000</property>
  <property name="kdenlive:folderid">124</property>
  <property name="kdenlive:id">132</property>
  <property name="kdenlive:file_size">293060</property>
  <property name="kdenlive:file_hash">4f7c9bbf1e5116c2e1d39f91c7994af0</property>
  <property name="kdenlive:proxy">/home/xiaoxiae/.cache/kdenlive/proxy/4f7c9bbf1e5116c2e1d39f91c7994af0.png</property>
  <property name="kdenlive:originalurl">video/Introduction/12.png</property>
  <property name="global_feed">1</property>
 </producer>
 <producer id="producer169" in="00:00:00.000" out="00:00:00.983">
  <property name="length">60</property>
  <property name="eof">pause</property>
  <property name="resource">/home/xiaoxiae/.cache/kdenlive/proxy/45b610c70b8cf034738e8ba8b059658a.mkv</property>
  <property name="audio_index">-1</property>
  <property name="video_index">0</property>
  <property name="mute_on_pause">0</property>
  <property name="mlt_service">avformat-novalidate</property>
  <property name="seekable">1</property>
  <property name="aspect_ratio">1</property>
  <property name="kdenlive:clipname">13.mp4</property>
  <property name="kdenlive:folderid">124</property>
  <property name="kdenlive:id">133</property>
  <property name="kdenlive:file_size">103823</property>
  <property name="kdenlive:file_hash">45b610c70b8cf034738e8ba8b059658a</property>
  <property name="kdenlive:proxy">/home/xiaoxiae/.cache/kdenlive/proxy/45b610c70b8cf034738e8ba8b059658a.mkv</property>
  <property name="kdenlive:originalurl">video/Introduction/13.mp4</property>
  <property name="global_feed">1</property>
  <property name="meta.media.nb_streams">1</property>
  <property name="meta.media.0.stream.type">video</property>
  <property name="meta.media.0.stream.frame_rate">60</property>
  <property name="meta.media.0.stream.sample_aspect_ratio">0</property>
  <property name="meta.media.0.codec.width">640</property>
  <property name="meta.media.0.codec.height">360</property>
  <property name="meta.media.0.codec.rotate">0</property>
  <property name="meta.media.0.codec.frame_rate">60</property>
  <property name="meta.media.0.codec.pix_fmt">yuv420p</property>
  <property name="meta.media.0.codec.sample_aspect_ratio">0</property>
  <property name="meta.media.0.codec.colorspace">601</property>
  <property name="meta.media.0.codec.name">h264</property>
  <property name="meta.media.0.codec.long_name">H.264 / AVC / MPEG-4 AVC / MPEG-4 part 10</property>
  <property name="meta.media.0.codec.bit_rate">0</property>
  <property name="meta.attr.0.stream.HANDLER_NAME.markup">VideoHandler</property>
  <property name="meta.attr.0.stream.VENDOR_ID.markup">[0][0][0][0]</property>
  <property name="meta.attr.0.stream.ENCODER.markup">Lavc58.134.100 libx264</property>
  <property name="meta.attr.0.stream.DURATION.markup">00:00:01.000000000</property>
  <property name="meta.attr.COMMENT.markup">Rendered with Manim Community v0.6.0</property>
  <property name="meta.attr.MAJOR_BRAND.markup">isom</property>
  <property name="meta.attr.MINOR_VERSION.markup">512</property>
  <property name="meta.attr.COMPATIBLE_BRANDS.markup">isomiso2avc1mp41</property>
  <property name="meta.attr.ENCODER.markup">Lavf58.76.100</property>
  <property name="meta.media.sample_aspect_num">1</property>
  <property name="meta.media.sample_aspect_den">1</property>
  <property name="meta.media.frame_rate_num">60</property>
  <property name="meta.media.frame_rate_den">1</property>
  <property name="meta.media.colorspace">601</property>
  <property name="meta.media.color_trc">2</property>
  <property name="meta.media.width">640</property>
  <property name="meta.media.height">360</property>
  <property name="meta.media.color_range">mpeg</property>
  <property name="meta.media.top_field_first">0</property>
  <property name="meta.media.progressive">1</property>
  <property name="kdenlive:original.mlt_type">producer</property>
  <property name="kdenlive:original.in">0</property>
  <property name="kdenlive:original.out">59</property>
  <property name="kdenlive:original.length">60</property>
  <property name="kdenlive:original.eof">pause</property>
  <property name="kdenlive:original.resource">video/Introduction/13.mp4</property>
  <property name="kdenlive:original.meta.media.nb_streams">1</property>
  <property name="kdenlive:original.meta.media.0.stream.type">video</property>
  <property name="kdenlive:original.meta.media.0.stream.frame_rate">60</property>
  <property name="kdenlive:original.meta.media.0.stream.sample_aspect_ratio">0</property>
  <property name="kdenlive:original.meta.media.0.codec.width">3840</property>
  <property name="kdenlive:original.meta.media.0.codec.height">2160</property>
  <property name="kdenlive:original.meta.media.0.codec.rotate">0</property>
  <property name="kdenlive:original.meta.media.0.codec.frame_rate">60</property>
  <property name="kdenlive:original.meta.media.0.codec.pix_fmt">yuv420p</property>
  <property name="kdenlive:original.meta.media.0.codec.sample_aspect_ratio">0</property>
  <property name="kdenlive:original.meta.media.0.codec.colorspace">709</property>
  <property name="kdenlive:original.meta.media.0.codec.name">h264</property>
  <property name="kdenlive:original.meta.media.0.codec.long_name">H.264 / AVC / MPEG-4 AVC / MPEG-4 part 10</property>
  <property name="kdenlive:original.meta.media.0.codec.bit_rate">817536</property>
  <property name="kdenlive:original.meta.attr.0.stream.handler_name.markup">VideoHandler</property>
  <property name="kdenlive:original.meta.attr.0.stream.vendor_id.markup">[0][0][0][0]</property>
  <property name="kdenlive:original.meta.attr.major_brand.markup">isom</property>
  <property name="kdenlive:original.meta.attr.minor_version.markup">512</property>
  <property name="kdenlive:original.meta.attr.compatible_brands.markup">isomiso2avc1mp41</property>
  <property name="kdenlive:original.meta.attr.encoder.markup">Lavf58.76.100</property>
  <property name="kdenlive:original.meta.attr.comment.markup">Rendered with Manim Community v0.6.0</property>
  <property name="kdenlive:original.seekable">1</property>
  <property name="kdenlive:original.width">3840</property>
  <property name="kdenlive:original.height">2160</property>
  <property name="kdenlive:original.meta.media.sample_aspect_num">1</property>
  <property name="kdenlive:original.meta.media.sample_aspect_den">1</property>
  <property name="kdenlive:original.aspect_ratio">1</property>
  <property name="kdenlive:original.audio_index">-1</property>
  <property name="kdenlive:original.video_index">0</property>
  <property name="kdenlive:original.mute_on_pause">1</property>
  <property name="kdenlive:original.mlt_service">avformat</property>
  <property name="kdenlive:original.meta.media.frame_rate_num">60</property>
  <property name="kdenlive:original.meta.media.frame_rate_den">1</property>
  <property name="kdenlive:original.meta.media.colorspace">709</property>
  <property name="kdenlive:original.meta.media.color_trc">2</property>
  <property name="kdenlive:original.meta.media.width">3840</property>
  <property name="kdenlive:original.meta.media.height">2160</property>
  <property name="kdenlive:original.meta.media.color_range">mpeg</property>
  <property name="kdenlive:original.meta.media.top_field_first">0</property>
  <property name="kdenlive:original.meta.media.progressive">1</property>
  <property name="kdenlive:original.backup">1</property>
 </producer>
 <producer id="producer172" in="00:00:00.000" out="00:00:04.983">
  <property name="length">00:00:05.000</property>
  <property name="eof">pause</property>
  <property name="resource">/home/xiaoxiae/.cache/kdenlive/proxy/9dd6519a32adbd84c036eaae5b909ff3.png</property>
  <property name="ttl">25</property>
  <property name="aspect_ratio">1</property>
  <property name="progressive">1</property>
  <property name="seekable">1</property>
  <property name="meta.media.width">800</property>
  <property name="meta.media.height">450</property>
  <property name="mlt_service">qimage</property>
  <property name="kdenlive:clipname">13.png</property>
  <property name="kdenlive:duration">00:00:05.000</property>
  <property name="kdenlive:folderid">124</property>
  <property name="kdenlive:id">134</property>
  <property name="kdenlive:file_size">306260</property>
  <property name="kdenlive:file_hash">9dd6519a32adbd84c036eaae5b909ff3</property>
  <property name="kdenlive:proxy">/home/xiaoxiae/.cache/kdenlive/proxy/9dd6519a32adbd84c036eaae5b909ff3.png</property>
  <property name="kdenlive:originalurl">video/Introduction/13.png</property>
  <property name="global_feed">1</property>
 </producer>
 <producer id="producer170" in="00:00:00.000" out="00:00:00.983">
  <property name="length">60</property>
  <property name="eof">pause</property>
  <property name="resource">/home/xiaoxiae/.cache/kdenlive/proxy/37aba6db33fdeda4bccb75a30449dab5.mkv</property>
  <property name="audio_index">-1</property>
  <property name="video_index">0</property>
  <property name="mute_on_pause">0</property>
  <property name="mlt_service">avformat-novalidate</property>
  <property name="seekable">1</property>
  <property name="aspect_ratio">1</property>
  <property name="kdenlive:clipname">14.mp4</property>
  <property name="kdenlive:folderid">124</property>
  <property name="kdenlive:id">135</property>
  <property name="kdenlive:file_size">168491</property>
  <property name="kdenlive:file_hash">37aba6db33fdeda4bccb75a30449dab5</property>
  <property name="kdenlive:proxy">/home/xiaoxiae/.cache/kdenlive/proxy/37aba6db33fdeda4bccb75a30449dab5.mkv</property>
  <property name="kdenlive:originalurl">video/Introduction/14.mp4</property>
  <property name="global_feed">1</property>
  <property name="meta.media.nb_streams">1</property>
  <property name="meta.media.0.stream.type">video</property>
  <property name="meta.media.0.stream.frame_rate">60</property>
  <property name="meta.media.0.stream.sample_aspect_ratio">0</property>
  <property name="meta.media.0.codec.width">640</property>
  <property name="meta.media.0.codec.height">360</property>
  <property name="meta.media.0.codec.rotate">0</property>
  <property name="meta.media.0.codec.frame_rate">60</property>
  <property name="meta.media.0.codec.pix_fmt">yuv420p</property>
  <property name="meta.media.0.codec.sample_aspect_ratio">0</property>
  <property name="meta.media.0.codec.colorspace">601</property>
  <property name="meta.media.0.codec.name">h264</property>
  <property name="meta.media.0.codec.long_name">H.264 / AVC / MPEG-4 AVC / MPEG-4 part 10</property>
  <property name="meta.media.0.codec.bit_rate">0</property>
  <property name="meta.attr.0.stream.HANDLER_NAME.markup">VideoHandler</property>
  <property name="meta.attr.0.stream.VENDOR_ID.markup">[0][0][0][0]</property>
  <property name="meta.attr.0.stream.ENCODER.markup">Lavc58.134.100 libx264</property>
  <property name="meta.attr.0.stream.DURATION.markup">00:00:01.000000000</property>
  <property name="meta.attr.COMMENT.markup">Rendered with Manim Community v0.6.0</property>
  <property name="meta.attr.MAJOR_BRAND.markup">isom</property>
  <property name="meta.attr.MINOR_VERSION.markup">512</property>
  <property name="meta.attr.COMPATIBLE_BRANDS.markup">isomiso2avc1mp41</property>
  <property name="meta.attr.ENCODER.markup">Lavf58.76.100</property>
  <property name="meta.media.sample_aspect_num">1</property>
  <property name="meta.media.sample_aspect_den">1</property>
  <property name="meta.media.frame_rate_num">60</property>
  <property name="meta.media.frame_rate_den">1</property>
  <property name="meta.media.colorspace">601</property>
  <property name="meta.media.color_trc">2</property>
  <property name="meta.media.width">640</property>
  <property name="meta.media.height">360</property>
  <property name="meta.media.color_range">mpeg</property>
  <property name="meta.media.top_field_first">0</property>
  <property name="meta.media.progressive">1</property>
  <property name="kdenlive:original.mlt_type">producer</property>
  <property name="kdenlive:original.in">0</property>
  <property name="kdenlive:original.out">59</property>
  <property name="kdenlive:original.length">60</property>
  <property name="kdenlive:original.eof">pause</property>
  <property name="kdenlive:original.resource">video/Introduction/14.mp4</property>
  <property name="kdenlive:original.meta.media.nb_streams">1</property>
  <property name="kdenlive:original.meta.media.0.stream.type">video</property>
  <property name="kdenlive:original.meta.media.0.stream.frame_rate">60</property>
  <property name="kdenlive:original.meta.media.0.stream.sample_aspect_ratio">0</property>
  <property name="kdenlive:original.meta.media.0.codec.width">3840</property>
  <property name="kdenlive:original.meta.media.0.codec.height">2160</property>
  <property name="kdenlive:original.meta.media.0.codec.rotate">0</property>
  <property name="kdenlive:original.meta.media.0.codec.frame_rate">60</property>
  <property name="kdenlive:original.meta.media.0.codec.pix_fmt">yuv420p</property>
  <property name="kdenlive:original.meta.media.0.codec.sample_aspect_ratio">0</property>
  <property name="kdenlive:original.meta.media.0.codec.colorspace">709</property>
  <property name="kdenlive:original.meta.media.0.codec.name">h264</property>
  <property name="kdenlive:original.meta.media.0.codec.long_name">H.264 / AVC / MPEG-4 AVC / MPEG-4 part 10</property>
  <property name="kdenlive:original.meta.media.0.codec.bit_rate">1335008</property>
  <property name="kdenlive:original.meta.attr.0.stream.handler_name.markup">VideoHandler</property>
  <property name="kdenlive:original.meta.attr.0.stream.vendor_id.markup">[0][0][0][0]</property>
  <property name="kdenlive:original.meta.attr.major_brand.markup">isom</property>
  <property name="kdenlive:original.meta.attr.minor_version.markup">512</property>
  <property name="kdenlive:original.meta.attr.compatible_brands.markup">isomiso2avc1mp41</property>
  <property name="kdenlive:original.meta.attr.encoder.markup">Lavf58.76.100</property>
  <property name="kdenlive:original.meta.attr.comment.markup">Rendered with Manim Community v0.6.0</property>
  <property name="kdenlive:original.seekable">1</property>
  <property name="kdenlive:original.width">3840</property>
  <property name="kdenlive:original.height">2160</property>
  <property name="kdenlive:original.meta.media.sample_aspect_num">1</property>
  <property name="kdenlive:original.meta.media.sample_aspect_den">1</property>
  <property name="kdenlive:original.aspect_ratio">1</property>
  <property name="kdenlive:original.audio_index">-1</property>
  <property name="kdenlive:original.video_index">0</property>
  <property name="kdenlive:original.mute_on_pause">1</property>
  <property name="kdenlive:original.mlt_service">avformat</property>
  <property name="kdenlive:original.meta.media.frame_rate_num">60</property>
  <property name="kdenlive:original.meta.media.frame_rate_den">1</property>
  <property name="kdenlive:original.meta.media.colorspace">709</property>
  <property name="kdenlive:original.meta.media.color_trc">2</property>
  <property name="kdenlive:original.meta.media.width">3840</property>
  <property name="kdenlive:original.meta.media.height">2160</property>
  <property name="kdenlive:original.meta.media.color_range">mpeg</property>
  <property name="kdenlive:original.meta.media.top_field_first">0</property>
  <property name="kdenlive:original.meta.media.progressive">1</property>
  <property name="kdenlive:original.backup">1</property>
 </producer>
 <producer id="producer171" in="00:00:00.000" out="00:00:04.983">
  <property name="length">00:00:05.000</property>
  <property name="eof">pause</property>
  <property name="resource">/home/xiaoxiae/.cache/kdenlive/proxy/773d489dd1af1a760ba49baca9fbed8a.png</property>
  <property name="ttl">25</property>
  <property name="aspect_ratio">1</property>
  <property name="progressive">1</property>
  <property name="seekable">1</property>
  <property name="meta.media.width">800</property>
  <property name="meta.media.height">450</property>
  <property name="mlt_service">qimage</property>
  <property name="kdenlive:clipname">14.png</property>
  <property name="kdenlive:duration">00:00:05.000</property>
  <property name="kdenlive:folderid">124</property>
  <property name="kdenlive:id">136</property>
  <property name="kdenlive:file_size">299266</property>
  <property name="kdenlive:file_hash">773d489dd1af1a760ba49baca9fbed8a</property>
  <property name="kdenlive:proxy">/home/xiaoxiae/.cache/kdenlive/proxy/773d489dd1af1a760ba49baca9fbed8a.png</property>
  <property name="kdenlive:originalurl">video/Introduction/14.png</property>
  <property name="global_feed">1</property>
 </producer>
 <producer id="producer173" in="00:00:00.000" out="00:00:00.983">
  <property name="length">60</property>
  <property name="eof">pause</property>
  <property name="resource">/home/xiaoxiae/.cache/kdenlive/proxy/d82b760f34ef341ad5744bd0663962f2.mkv</property>
  <property name="audio_index">-1</property>
  <property name="video_index">0</property>
  <property name="mute_on_pause">0</property>
  <property name="mlt_service">avformat-novalidate</property>
  <property name="seekable">1</property>
  <property name="aspect_ratio">1</property>
  <property name="kdenlive:clipname">15.mp4</property>
  <property name="kdenlive:folderid">124</property>
  <property name="kdenlive:id">137</property>
  <property name="kdenlive:file_size">87682</property>
  <property name="kdenlive:file_hash">d82b760f34ef341ad5744bd0663962f2</property>
  <property name="kdenlive:proxy">/home/xiaoxiae/.cache/kdenlive/proxy/d82b760f34ef341ad5744bd0663962f2.mkv</property>
  <property name="kdenlive:originalurl">video/Introduction/15.mp4</property>
  <property name="global_feed">1</property>
  <property name="meta.media.nb_streams">1</property>
  <property name="meta.media.0.stream.type">video</property>
  <property name="meta.media.0.stream.frame_rate">60</property>
  <property name="meta.media.0.stream.sample_aspect_ratio">0</property>
  <property name="meta.media.0.codec.width">640</property>
  <property name="meta.media.0.codec.height">360</property>
  <property name="meta.media.0.codec.rotate">0</property>
  <property name="meta.media.0.codec.frame_rate">60</property>
  <property name="meta.media.0.codec.pix_fmt">yuv420p</property>
  <property name="meta.media.0.codec.sample_aspect_ratio">0</property>
  <property name="meta.media.0.codec.colorspace">601</property>
  <property name="meta.media.0.codec.name">h264</property>
  <property name="meta.media.0.codec.long_name">H.264 / AVC / MPEG-4 AVC / MPEG-4 part 10</property>
  <property name="meta.media.0.codec.bit_rate">0</property>
  <property name="meta.attr.0.stream.HANDLER_NAME.markup">VideoHandler</property>
  <property name="meta.attr.0.stream.VENDOR_ID.markup">[0][0][0][0]</property>
  <property name="meta.attr.0.stream.ENCODER.markup">Lavc58.134.100 libx264</property>
  <property name="meta.attr.0.stream.DURATION.markup">00:00:01.000000000</property>
  <property name="meta.attr.COMMENT.markup">Rendered with Manim Community v0.6.0</property>
  <property name="meta.attr.MAJOR_BRAND.markup">isom</property>
  <property name="meta.attr.MINOR_VERSION.markup">512</property>
  <property name="meta.attr.COMPATIBLE_BRANDS.markup">isomiso2avc1mp41</property>
  <property name="meta.attr.ENCODER.markup">Lavf58.76.100</property>
  <property name="meta.media.sample_aspect_num">1</property>
  <property name="meta.media.sample_aspect_den">1</property>
  <property name="meta.media.frame_rate_num">60</property>
  <property name="meta.media.frame_rate_den">1</property>
  <property name="meta.media.colorspace">601</property>
  <property name="meta.media.color_trc">2</property>
  <property name="meta.media.width">640</property>
  <property name="meta.media.height">360</property>
  <property name="meta.media.color_range">mpeg</property>
  <property name="meta.media.top_field_first">0</property>
  <property name="meta.media.progressive">1</property>
  <property name="kdenlive:original.mlt_type">producer</property>
  <property name="kdenlive:original.in">0</property>
  <property name="kdenlive:original.out">59</property>
  <property name="kdenlive:original.length">60</property>
  <property name="kdenlive:original.eof">pause</property>
  <property name="kdenlive:original.resource">video/Introduction/15.mp4</property>
  <property name="kdenlive:original.meta.media.nb_streams">1</property>
  <property name="kdenlive:original.meta.media.0.stream.type">video</property>
  <property name="kdenlive:original.meta.media.0.stream.frame_rate">60</property>
  <property name="kdenlive:original.meta.media.0.stream.sample_aspect_ratio">0</property>
  <property name="kdenlive:original.meta.media.0.codec.width">3840</property>
  <property name="kdenlive:original.meta.media.0.codec.height">2160</property>
  <property name="kdenlive:original.meta.media.0.codec.rotate">0</property>
  <property name="kdenlive:original.meta.media.0.codec.frame_rate">60</property>
  <property name="kdenlive:original.meta.media.0.codec.pix_fmt">yuv420p</property>
  <property name="kdenlive:original.meta.media.0.codec.sample_aspect_ratio">0</property>
  <property name="kdenlive:original.meta.media.0.codec.colorspace">709</property>
  <property name="kdenlive:original.meta.media.0.codec.name">h264</property>
  <property name="kdenlive:original.meta.media.0.codec.long_name">H.264 / AVC / MPEG-4 AVC / MPEG-4 part 10</property>
  <property name="kdenlive:original.meta.media.0.codec.bit_rate">688408</property>
  <property name="kdenlive:original.meta.attr.0.stream.handler_name.markup">VideoHandler</property>
  <property name="kdenlive:original.meta.attr.0.stream.vendor_id.markup">[0][0][0][0]</property>
  <property name="kdenlive:original.meta.attr.major_brand.markup">isom</property>
  <property name="kdenlive:original.meta.attr.minor_version.markup">512</property>
  <property name="kdenlive:original.meta.attr.compatible_brands.markup">isomiso2avc1mp41</property>
  <property name="kdenlive:original.meta.attr.encoder.markup">Lavf58.76.100</property>
  <property name="kdenlive:original.meta.attr.comment.markup">Rendered with Manim Community v0.6.0</property>
  <property name="kdenlive:original.seekable">1</property>
  <property name="kdenlive:original.width">3840</property>
  <property name="kdenlive:original.height">2160</property>
  <property name="kdenlive:original.meta.media.sample_aspect_num">1</property>
  <property name="kdenlive:original.meta.media.sample_aspect_den">1</property>
  <property name="kdenlive:original.aspect_ratio">1</property>
  <property name="kdenlive:original.audio_index">-1</property>
  <property name="kdenlive:original.video_index">0</property>
  <property name="kdenlive:original.mute_on_pause">1</property>
  <property name="kdenlive:original.mlt_service">avformat</property>
  <property name="kdenlive:original.meta.media.frame_rate_num">60</property>
  <property name="kdenlive:original.meta.media.frame_rate_den">1</property>
  <property name="kdenlive:original.meta.media.colorspace">709</property>
  <property name="kdenlive:original.meta.media.color_trc">2</property>
  <property name="kdenlive:original.meta.media.width">3840</property>
  <property name="kdenlive:original.meta.media.height">2160</property>
  <property name="kdenlive:original.meta.media.color_range">mpeg</property>
  <property name="kdenlive:original.meta.media.top_field_first">0</property>
  <property name="kdenlive:original.meta.media.progressive">1</property>
  <property name="kdenlive:original.backup">1</property>
 </producer>
 <producer id="producer174" in="00:00:00.000" out="00:00:04.983">
  <property name="length">00:00:05.000</property>
  <property name="eof">pause</property>
  <property name="resource">/home/xiaoxiae/.cache/kdenlive/proxy/ef03fbf7cf1d3595ed2a46fd39334a5c.png</property>
  <property name="ttl">25</property>
  <property name="aspect_ratio">1</property>
  <property name="progressive">1</property>
  <property name="seekable">1</property>
  <property name="meta.media.width">800</property>
  <property name="meta.media.height">450</property>
  <property name="mlt_service">qimage</property>
  <property name="kdenlive:clipname">15.png</property>
  <property name="kdenlive:duration">00:00:05.000</property>
  <property name="kdenlive:folderid">124</property>
  <property name="kdenlive:id">138</property>
  <property name="kdenlive:file_size">297743</property>
  <property name="kdenlive:file_hash">ef03fbf7cf1d3595ed2a46fd39334a5c</property>
  <property name="kdenlive:proxy">/home/xiaoxiae/.cache/kdenlive/proxy/ef03fbf7cf1d3595ed2a46fd39334a5c.png</property>
  <property name="kdenlive:originalurl">video/Introduction/15.png</property>
  <property name="global_feed">1</property>
 </producer>
 <producer id="producer175" in="00:00:00.000" out="00:00:00.983">
  <property name="length">60</property>
  <property name="eof">pause</property>
  <property name="resource">/home/xiaoxiae/.cache/kdenlive/proxy/102a64184e99f6174013066d828e4ce7.mkv</property>
  <property name="audio_index">-1</property>
  <property name="video_index">0</property>
  <property name="mute_on_pause">0</property>
  <property name="mlt_service">avformat-novalidate</property>
  <property name="seekable">1</property>
  <property name="aspect_ratio">1</property>
  <property name="kdenlive:clipname">16.mp4</property>
  <property name="kdenlive:folderid">124</property>
  <property name="kdenlive:id">139</property>
  <property name="kdenlive:file_size">118485</property>
  <property name="kdenlive:file_hash">102a64184e99f6174013066d828e4ce7</property>
  <property name="kdenlive:proxy">/home/xiaoxiae/.cache/kdenlive/proxy/102a64184e99f6174013066d828e4ce7.mkv</property>
  <property name="kdenlive:originalurl">video/Introduction/16.mp4</property>
  <property name="global_feed">1</property>
  <property name="meta.media.nb_streams">1</property>
  <property name="meta.media.0.stream.type">video</property>
  <property name="meta.media.0.stream.frame_rate">60</property>
  <property name="meta.media.0.stream.sample_aspect_ratio">0</property>
  <property name="meta.media.0.codec.width">640</property>
  <property name="meta.media.0.codec.height">360</property>
  <property name="meta.media.0.codec.rotate">0</property>
  <property name="meta.media.0.codec.frame_rate">60</property>
  <property name="meta.media.0.codec.pix_fmt">yuv420p</property>
  <property name="meta.media.0.codec.sample_aspect_ratio">0</property>
  <property name="meta.media.0.codec.colorspace">601</property>
  <property name="meta.media.0.codec.name">h264</property>
  <property name="meta.media.0.codec.long_name">H.264 / AVC / MPEG-4 AVC / MPEG-4 part 10</property>
  <property name="meta.media.0.codec.bit_rate">0</property>
  <property name="meta.attr.0.stream.HANDLER_NAME.markup">VideoHandler</property>
  <property name="meta.attr.0.stream.VENDOR_ID.markup">[0][0][0][0]</property>
  <property name="meta.attr.0.stream.ENCODER.markup">Lavc58.134.100 libx264</property>
  <property name="meta.attr.0.stream.DURATION.markup">00:00:01.000000000</property>
  <property name="meta.attr.COMMENT.markup">Rendered with Manim Community v0.6.0</property>
  <property name="meta.attr.MAJOR_BRAND.markup">isom</property>
  <property name="meta.attr.MINOR_VERSION.markup">512</property>
  <property name="meta.attr.COMPATIBLE_BRANDS.markup">isomiso2avc1mp41</property>
  <property name="meta.attr.ENCODER.markup">Lavf58.76.100</property>
  <property name="meta.media.sample_aspect_num">1</property>
  <property name="meta.media.sample_aspect_den">1</property>
  <property name="meta.media.frame_rate_num">60</property>
  <property name="meta.media.frame_rate_den">1</property>
  <property name="meta.media.colorspace">601</property>
  <property name="meta.media.color_trc">2</property>
  <property name="meta.media.width">640</property>
  <property name="meta.media.height">360</property>
  <property name="meta.media.color_range">mpeg</property>
  <property name="meta.media.top_field_first">0</property>
  <property name="meta.media.progressive">1</property>
  <property name="kdenlive:original.mlt_type">producer</property>
  <property name="kdenlive:original.in">0</property>
  <property name="kdenlive:original.out">59</property>
  <property name="kdenlive:original.length">60</property>
  <property name="kdenlive:original.eof">pause</property>
  <property name="kdenlive:original.resource">video/Introduction/16.mp4</property>
  <property name="kdenlive:original.meta.media.nb_streams">1</property>
  <property name="kdenlive:original.meta.media.0.stream.type">video</property>
  <property name="kdenlive:original.meta.media.0.stream.frame_rate">60</property>
  <property name="kdenlive:original.meta.media.0.stream.sample_aspect_ratio">0</property>
  <property name="kdenlive:original.meta.media.0.codec.width">3840</property>
  <property name="kdenlive:original.meta.media.0.codec.height">2160</property>
  <property name="kdenlive:original.meta.media.0.codec.rotate">0</property>
  <property name="kdenlive:original.meta.media.0.codec.frame_rate">60</property>
  <property name="kdenlive:original.meta.media.0.codec.pix_fmt">yuv420p</property>
  <property name="kdenlive:original.meta.media.0.codec.sample_aspect_ratio">0</property>
  <property name="kdenlive:original.meta.media.0.codec.colorspace">709</property>
  <property name="kdenlive:original.meta.media.0.codec.name">h264</property>
  <property name="kdenlive:original.meta.media.0.codec.long_name">H.264 / AVC / MPEG-4 AVC / MPEG-4 part 10</property>
  <property name="kdenlive:original.meta.media.0.codec.bit_rate">934768</property>
  <property name="kdenlive:original.meta.attr.0.stream.handler_name.markup">VideoHandler</property>
  <property name="kdenlive:original.meta.attr.0.stream.vendor_id.markup">[0][0][0][0]</property>
  <property name="kdenlive:original.meta.attr.major_brand.markup">isom</property>
  <property name="kdenlive:original.meta.attr.minor_version.markup">512</property>
  <property name="kdenlive:original.meta.attr.compatible_brands.markup">isomiso2avc1mp41</property>
  <property name="kdenlive:original.meta.attr.encoder.markup">Lavf58.76.100</property>
  <property name="kdenlive:original.meta.attr.comment.markup">Rendered with Manim Community v0.6.0</property>
  <property name="kdenlive:original.seekable">1</property>
  <property name="kdenlive:original.width">3840</property>
  <property name="kdenlive:original.height">2160</property>
  <property name="kdenlive:original.meta.media.sample_aspect_num">1</property>
  <property name="kdenlive:original.meta.media.sample_aspect_den">1</property>
  <property name="kdenlive:original.aspect_ratio">1</property>
  <property name="kdenlive:original.audio_index">-1</property>
  <property name="kdenlive:original.video_index">0</property>
  <property name="kdenlive:original.mute_on_pause">1</property>
  <property name="kdenlive:original.mlt_service">avformat</property>
  <property name="kdenlive:original.meta.media.frame_rate_num">60</property>
  <property name="kdenlive:original.meta.media.frame_rate_den">1</property>
  <property name="kdenlive:original.meta.media.colorspace">709</property>
  <property name="kdenlive:original.meta.media.color_trc">2</property>
  <property name="kdenlive:original.meta.media.width">3840</property>
  <property name="kdenlive:original.meta.media.height">2160</property>
  <property name="kdenlive:original.meta.media.color_range">mpeg</property>
  <property name="kdenlive:original.meta.media.top_field_first">0</property>
  <property name="kdenlive:original.meta.media.progressive">1</property>
  <property name="kdenlive:original.backup">1</property>
 </producer>
 <producer id="producer176" in="00:00:00.000" out="00:00:04.983">
  <property name="length">00:00:05.000</property>
  <property name="eof">pause</property>
  <property name="resource">/home/xiaoxiae/.cache/kdenlive/proxy/529d9db31495bf62a243dc3c06dc9104.png</property>
  <property name="ttl">25</property>
  <property name="aspect_ratio">1</property>
  <property name="progressive">1</property>
  <property name="seekable">1</property>
  <property name="meta.media.width">800</property>
  <property name="meta.media.height">450</property>
  <property name="mlt_service">qimage</property>
  <property name="kdenlive:clipname">16.png</property>
  <property name="kdenlive:duration">00:00:05.000</property>
  <property name="kdenlive:folderid">124</property>
  <property name="kdenlive:id">140</property>
  <property name="kdenlive:file_size">320580</property>
  <property name="kdenlive:file_hash">529d9db31495bf62a243dc3c06dc9104</property>
  <property name="kdenlive:proxy">/home/xiaoxiae/.cache/kdenlive/proxy/529d9db31495bf62a243dc3c06dc9104.png</property>
  <property name="kdenlive:originalurl">video/Introduction/16.png</property>
  <property name="global_feed">1</property>
  <property name="kdenlive:original.mlt_type">producer</property>
  <property name="kdenlive:original.in">0</property>
  <property name="kdenlive:original.out">14999</property>
  <property name="kdenlive:original.length">15000</property>
  <property name="kdenlive:original.eof">pause</property>
  <property name="kdenlive:original.resource">video/Introduction/16.png</property>
  <property name="kdenlive:original.ttl">25</property>
  <property name="kdenlive:original.aspect_ratio">1</property>
  <property name="kdenlive:original.progressive">1</property>
  <property name="kdenlive:original.seekable">1</property>
  <property name="kdenlive:original.meta.media.width">3840</property>
  <property name="kdenlive:original.meta.media.height">2160</property>
  <property name="kdenlive:original.mlt_service">qimage</property>
  <property name="kdenlive:original.backup">1</property>
 </producer>
 <producer id="producer177" in="00:00:00.000" out="00:00:00.983">
  <property name="length">60</property>
  <property name="eof">pause</property>
  <property name="resource">/home/xiaoxiae/.cache/kdenlive/proxy/16ec84bd904e120c0ac6085cf6aa57c8.mkv</property>
  <property name="audio_index">-1</property>
  <property name="video_index">0</property>
  <property name="mute_on_pause">0</property>
  <property name="mlt_service">avformat-novalidate</property>
  <property name="seekable">1</property>
  <property name="aspect_ratio">1</property>
  <property name="kdenlive:clipname">17.mp4</property>
  <property name="kdenlive:folderid">124</property>
  <property name="kdenlive:id">141</property>
  <property name="kdenlive:file_size">139468</property>
  <property name="kdenlive:file_hash">16ec84bd904e120c0ac6085cf6aa57c8</property>
  <property name="kdenlive:proxy">/home/xiaoxiae/.cache/kdenlive/proxy/16ec84bd904e120c0ac6085cf6aa57c8.mkv</property>
  <property name="kdenlive:originalurl">video/Introduction/17.mp4</property>
  <property name="global_feed">1</property>
  <property name="meta.media.nb_streams">1</property>
  <property name="meta.media.0.stream.type">video</property>
  <property name="meta.media.0.stream.frame_rate">60</property>
  <property name="meta.media.0.stream.sample_aspect_ratio">0</property>
  <property name="meta.media.0.codec.width">640</property>
  <property name="meta.media.0.codec.height">360</property>
  <property name="meta.media.0.codec.rotate">0</property>
  <property name="meta.media.0.codec.frame_rate">60</property>
  <property name="meta.media.0.codec.pix_fmt">yuv420p</property>
  <property name="meta.media.0.codec.sample_aspect_ratio">0</property>
  <property name="meta.media.0.codec.colorspace">601</property>
  <property name="meta.media.0.codec.name">h264</property>
  <property name="meta.media.0.codec.long_name">H.264 / AVC / MPEG-4 AVC / MPEG-4 part 10</property>
  <property name="meta.media.0.codec.bit_rate">0</property>
  <property name="meta.attr.0.stream.HANDLER_NAME.markup">VideoHandler</property>
  <property name="meta.attr.0.stream.VENDOR_ID.markup">[0][0][0][0]</property>
  <property name="meta.attr.0.stream.ENCODER.markup">Lavc58.134.100 libx264</property>
  <property name="meta.attr.0.stream.DURATION.markup">00:00:01.000000000</property>
  <property name="meta.attr.COMMENT.markup">Rendered with Manim Community v0.6.0</property>
  <property name="meta.attr.MAJOR_BRAND.markup">isom</property>
  <property name="meta.attr.MINOR_VERSION.markup">512</property>
  <property name="meta.attr.COMPATIBLE_BRANDS.markup">isomiso2avc1mp41</property>
  <property name="meta.attr.ENCODER.markup">Lavf58.76.100</property>
  <property name="meta.media.sample_aspect_num">1</property>
  <property name="meta.media.sample_aspect_den">1</property>
  <property name="meta.media.frame_rate_num">60</property>
  <property name="meta.media.frame_rate_den">1</property>
  <property name="meta.media.colorspace">601</property>
  <property name="meta.media.color_trc">2</property>
  <property name="meta.media.width">640</property>
  <property name="meta.media.height">360</property>
  <property name="meta.media.color_range">mpeg</property>
  <property name="meta.media.top_field_first">0</property>
  <property name="meta.media.progressive">1</property>
  <property name="kdenlive:original.mlt_type">producer</property>
  <property name="kdenlive:original.in">0</property>
  <property name="kdenlive:original.out">59</property>
  <property name="kdenlive:original.length">60</property>
  <property name="kdenlive:original.eof">pause</property>
  <property name="kdenlive:original.resource">video/Introduction/17.mp4</property>
  <property name="kdenlive:original.meta.media.nb_streams">1</property>
  <property name="kdenlive:original.meta.media.0.stream.type">video</property>
  <property name="kdenlive:original.meta.media.0.stream.frame_rate">60</property>
  <property name="kdenlive:original.meta.media.0.stream.sample_aspect_ratio">0</property>
  <property name="kdenlive:original.meta.media.0.codec.width">3840</property>
  <property name="kdenlive:original.meta.media.0.codec.height">2160</property>
  <property name="kdenlive:original.meta.media.0.codec.rotate">0</property>
  <property name="kdenlive:original.meta.media.0.codec.frame_rate">60</property>
  <property name="kdenlive:original.meta.media.0.codec.pix_fmt">yuv420p</property>
  <property name="kdenlive:original.meta.media.0.codec.sample_aspect_ratio">0</property>
  <property name="kdenlive:original.meta.media.0.codec.colorspace">709</property>
  <property name="kdenlive:original.meta.media.0.codec.name">h264</property>
  <property name="kdenlive:original.meta.media.0.codec.long_name">H.264 / AVC / MPEG-4 AVC / MPEG-4 part 10</property>
  <property name="kdenlive:original.meta.media.0.codec.bit_rate">1102696</property>
  <property name="kdenlive:original.meta.attr.0.stream.handler_name.markup">VideoHandler</property>
  <property name="kdenlive:original.meta.attr.0.stream.vendor_id.markup">[0][0][0][0]</property>
  <property name="kdenlive:original.meta.attr.major_brand.markup">isom</property>
  <property name="kdenlive:original.meta.attr.minor_version.markup">512</property>
  <property name="kdenlive:original.meta.attr.compatible_brands.markup">isomiso2avc1mp41</property>
  <property name="kdenlive:original.meta.attr.encoder.markup">Lavf58.76.100</property>
  <property name="kdenlive:original.meta.attr.comment.markup">Rendered with Manim Community v0.6.0</property>
  <property name="kdenlive:original.seekable">1</property>
  <property name="kdenlive:original.width">3840</property>
  <property name="kdenlive:original.height">2160</property>
  <property name="kdenlive:original.meta.media.sample_aspect_num">1</property>
  <property name="kdenlive:original.meta.media.sample_aspect_den">1</property>
  <property name="kdenlive:original.aspect_ratio">1</property>
  <property name="kdenlive:original.audio_index">-1</property>
  <property name="kdenlive:original.video_index">0</property>
  <property name="kdenlive:original.mute_on_pause">1</property>
  <property name="kdenlive:original.mlt_service">avformat</property>
  <property name="kdenlive:original.meta.media.frame_rate_num">60</property>
  <property name="kdenlive:original.meta.media.frame_rate_den">1</property>
  <property name="kdenlive:original.meta.media.colorspace">709</property>
  <property name="kdenlive:original.meta.media.color_trc">2</property>
  <property name="kdenlive:original.meta.media.width">3840</property>
  <property name="kdenlive:original.meta.media.height">2160</property>
  <property name="kdenlive:original.meta.media.color_range">mpeg</property>
  <property name="kdenlive:original.meta.media.top_field_first">0</property>
  <property name="kdenlive:original.meta.media.progressive">1</property>
  <property name="kdenlive:original.backup">1</property>
 </producer>
 <producer id="producer178" in="00:00:00.000" out="00:00:04.983">
  <property name="length">00:00:05.000</property>
  <property name="eof">pause</property>
  <property name="resource">/home/xiaoxiae/.cache/kdenlive/proxy/96a10350e39d7c11db47eae38fb43f46.png</property>
  <property name="ttl">25</property>
  <property name="aspect_ratio">1</property>
  <property name="progressive">1</property>
  <property name="seekable">1</property>
  <property name="meta.media.width">800</property>
  <property name="meta.media.height">450</property>
  <property name="mlt_service">qimage</property>
  <property name="kdenlive:clipname">17.png</property>
  <property name="kdenlive:duration">00:00:05.000</property>
  <property name="kdenlive:folderid">124</property>
  <property name="kdenlive:id">142</property>
  <property name="kdenlive:file_size">311894</property>
  <property name="kdenlive:file_hash">96a10350e39d7c11db47eae38fb43f46</property>
  <property name="kdenlive:proxy">/home/xiaoxiae/.cache/kdenlive/proxy/96a10350e39d7c11db47eae38fb43f46.png</property>
  <property name="kdenlive:originalurl">video/Introduction/17.png</property>
  <property name="global_feed">1</property>
 </producer>
 <producer id="producer179" in="00:00:00.000" out="00:00:00.983">
  <property name="length">60</property>
  <property name="eof">pause</property>
  <property name="resource">/home/xiaoxiae/.cache/kdenlive/proxy/a293a02548dd9bbb5a8f580e41ced97c.mkv</property>
  <property name="audio_index">-1</property>
  <property name="video_index">0</property>
  <property name="mute_on_pause">0</property>
  <property name="mlt_service">avformat-novalidate</property>
  <property name="seekable">1</property>
  <property name="aspect_ratio">1</property>
  <property name="kdenlive:clipname">18.mp4</property>
  <property name="kdenlive:folderid">124</property>
  <property name="kdenlive:id">143</property>
  <property name="kdenlive:file_size">98868</property>
  <property name="kdenlive:file_hash">a293a02548dd9bbb5a8f580e41ced97c</property>
  <property name="kdenlive:proxy">/home/xiaoxiae/.cache/kdenlive/proxy/a293a02548dd9bbb5a8f580e41ced97c.mkv</property>
  <property name="kdenlive:originalurl">video/Introduction/18.mp4</property>
  <property name="global_feed">1</property>
  <property name="meta.media.nb_streams">1</property>
  <property name="meta.media.0.stream.type">video</property>
  <property name="meta.media.0.stream.frame_rate">60</property>
  <property name="meta.media.0.stream.sample_aspect_ratio">0</property>
  <property name="meta.media.0.codec.width">640</property>
  <property name="meta.media.0.codec.height">360</property>
  <property name="meta.media.0.codec.rotate">0</property>
  <property name="meta.media.0.codec.frame_rate">60</property>
  <property name="meta.media.0.codec.pix_fmt">yuv420p</property>
  <property name="meta.media.0.codec.sample_aspect_ratio">0</property>
  <property name="meta.media.0.codec.colorspace">601</property>
  <property name="meta.media.0.codec.name">h264</property>
  <property name="meta.media.0.codec.long_name">H.264 / AVC / MPEG-4 AVC / MPEG-4 part 10</property>
  <property name="meta.media.0.codec.bit_rate">0</property>
  <property name="meta.attr.0.stream.HANDLER_NAME.markup">VideoHandler</property>
  <property name="meta.attr.0.stream.VENDOR_ID.markup">[0][0][0][0]</property>
  <property name="meta.attr.0.stream.ENCODER.markup">Lavc58.134.100 libx264</property>
  <property name="meta.attr.0.stream.DURATION.markup">00:00:01.000000000</property>
  <property name="meta.attr.COMMENT.markup">Rendered with Manim Community v0.6.0</property>
  <property name="meta.attr.MAJOR_BRAND.markup">isom</property>
  <property name="meta.attr.MINOR_VERSION.markup">512</property>
  <property name="meta.attr.COMPATIBLE_BRANDS.markup">isomiso2avc1mp41</property>
  <property name="meta.attr.ENCODER.markup">Lavf58.76.100</property>
  <property name="meta.media.sample_aspect_num">1</property>
  <property name="meta.media.sample_aspect_den">1</property>
  <property name="meta.media.frame_rate_num">60</property>
  <property name="meta.media.frame_rate_den">1</property>
  <property name="meta.media.colorspace">601</property>
  <property name="meta.media.color_trc">2</property>
  <property name="meta.media.width">640</property>
  <property name="meta.media.height">360</property>
  <property name="meta.media.color_range">mpeg</property>
  <property name="meta.media.top_field_first">0</property>
  <property name="meta.media.progressive">1</property>
  <property name="kdenlive:original.mlt_type">producer</property>
  <property name="kdenlive:original.in">0</property>
  <property name="kdenlive:original.out">59</property>
  <property name="kdenlive:original.length">60</property>
  <property name="kdenlive:original.eof">pause</property>
  <property name="kdenlive:original.resource">video/Introduction/18.mp4</property>
  <property name="kdenlive:original.meta.media.nb_streams">1</property>
  <property name="kdenlive:original.meta.media.0.stream.type">video</property>
  <property name="kdenlive:original.meta.media.0.stream.frame_rate">60</property>
  <property name="kdenlive:original.meta.media.0.stream.sample_aspect_ratio">0</property>
  <property name="kdenlive:original.meta.media.0.codec.width">3840</property>
  <property name="kdenlive:original.meta.media.0.codec.height">2160</property>
  <property name="kdenlive:original.meta.media.0.codec.rotate">0</property>
  <property name="kdenlive:original.meta.media.0.codec.frame_rate">60</property>
  <property name="kdenlive:original.meta.media.0.codec.pix_fmt">yuv420p</property>
  <property name="kdenlive:original.meta.media.0.codec.sample_aspect_ratio">0</property>
  <property name="kdenlive:original.meta.media.0.codec.colorspace">709</property>
  <property name="kdenlive:original.meta.media.0.codec.name">h264</property>
  <property name="kdenlive:original.meta.media.0.codec.long_name">H.264 / AVC / MPEG-4 AVC / MPEG-4 part 10</property>
  <property name="kdenlive:original.meta.media.0.codec.bit_rate">777896</property>
  <property name="kdenlive:original.meta.attr.0.stream.handler_name.markup">VideoHandler</property>
  <property name="kdenlive:original.meta.attr.0.stream.vendor_id.markup">[0][0][0][0]</property>
  <property name="kdenlive:original.meta.attr.major_brand.markup">isom</property>
  <property name="kdenlive:original.meta.attr.minor_version.markup">512</property>
  <property name="kdenlive:original.meta.attr.compatible_brands.markup">isomiso2avc1mp41</property>
  <property name="kdenlive:original.meta.attr.encoder.markup">Lavf58.76.100</property>
  <property name="kdenlive:original.meta.attr.comment.markup">Rendered with Manim Community v0.6.0</property>
  <property name="kdenlive:original.seekable">1</property>
  <property name="kdenlive:original.width">3840</property>
  <property name="kdenlive:original.height">2160</property>
  <property name="kdenlive:original.meta.media.sample_aspect_num">1</property>
  <property name="kdenlive:original.meta.media.sample_aspect_den">1</property>
  <property name="kdenlive:original.aspect_ratio">1</property>
  <property name="kdenlive:original.audio_index">-1</property>
  <property name="kdenlive:original.video_index">0</property>
  <property name="kdenlive:original.mute_on_pause">1</property>
  <property name="kdenlive:original.mlt_service">avformat</property>
  <property name="kdenlive:original.meta.media.frame_rate_num">60</property>
  <property name="kdenlive:original.meta.media.frame_rate_den">1</property>
  <property name="kdenlive:original.meta.media.colorspace">709</property>
  <property name="kdenlive:original.meta.media.color_trc">2</property>
  <property name="kdenlive:original.meta.media.width">3840</property>
  <property name="kdenlive:original.meta.media.height">2160</property>
  <property name="kdenlive:original.meta.media.color_range">mpeg</property>
  <property name="kdenlive:original.meta.media.top_field_first">0</property>
  <property name="kdenlive:original.meta.media.progressive">1</property>
  <property name="kdenlive:original.backup">1</property>
 </producer>
 <producer id="producer180" in="00:00:00.000" out="00:00:04.983">
  <property name="length">00:00:05.000</property>
  <property name="eof">pause</property>
  <property name="resource">/home/xiaoxiae/.cache/kdenlive/proxy/29b0737dd4e255498571bc0424f4ffbb.png</property>
  <property name="ttl">25</property>
  <property name="aspect_ratio">1</property>
  <property name="progressive">1</property>
  <property name="seekable">1</property>
  <property name="meta.media.width">800</property>
  <property name="meta.media.height">450</property>
  <property name="mlt_service">qimage</property>
  <property name="kdenlive:clipname">18.png</property>
  <property name="kdenlive:duration">00:00:05.000</property>
  <property name="kdenlive:folderid">124</property>
  <property name="kdenlive:id">144</property>
  <property name="kdenlive:file_size">317060</property>
  <property name="kdenlive:file_hash">29b0737dd4e255498571bc0424f4ffbb</property>
  <property name="kdenlive:proxy">/home/xiaoxiae/.cache/kdenlive/proxy/29b0737dd4e255498571bc0424f4ffbb.png</property>
  <property name="kdenlive:originalurl">video/Introduction/18.png</property>
  <property name="global_feed">1</property>
 </producer>
 <producer id="producer182" in="00:00:00.000" out="00:00:00.983">
  <property name="length">60</property>
  <property name="eof">pause</property>
  <property name="resource">/home/xiaoxiae/.cache/kdenlive/proxy/3bb3c01f1a740c917e44a7f69584b97b.mkv</property>
  <property name="audio_index">-1</property>
  <property name="video_index">0</property>
  <property name="mute_on_pause">0</property>
  <property name="mlt_service">avformat-novalidate</property>
  <property name="seekable">1</property>
  <property name="aspect_ratio">1</property>
  <property name="kdenlive:clipname">19.mp4</property>
  <property name="kdenlive:folderid">124</property>
  <property name="kdenlive:id">145</property>
  <property name="kdenlive:file_size">131992</property>
  <property name="kdenlive:file_hash">3bb3c01f1a740c917e44a7f69584b97b</property>
  <property name="kdenlive:proxy">/home/xiaoxiae/.cache/kdenlive/proxy/3bb3c01f1a740c917e44a7f69584b97b.mkv</property>
  <property name="kdenlive:originalurl">video/Introduction/19.mp4</property>
  <property name="global_feed">1</property>
  <property name="meta.media.nb_streams">1</property>
  <property name="meta.media.0.stream.type">video</property>
  <property name="meta.media.0.stream.frame_rate">60</property>
  <property name="meta.media.0.stream.sample_aspect_ratio">0</property>
  <property name="meta.media.0.codec.width">640</property>
  <property name="meta.media.0.codec.height">360</property>
  <property name="meta.media.0.codec.rotate">0</property>
  <property name="meta.media.0.codec.frame_rate">60</property>
  <property name="meta.media.0.codec.pix_fmt">yuv420p</property>
  <property name="meta.media.0.codec.sample_aspect_ratio">0</property>
  <property name="meta.media.0.codec.colorspace">601</property>
  <property name="meta.media.0.codec.name">h264</property>
  <property name="meta.media.0.codec.long_name">H.264 / AVC / MPEG-4 AVC / MPEG-4 part 10</property>
  <property name="meta.media.0.codec.bit_rate">0</property>
  <property name="meta.attr.0.stream.HANDLER_NAME.markup">VideoHandler</property>
  <property name="meta.attr.0.stream.VENDOR_ID.markup">[0][0][0][0]</property>
  <property name="meta.attr.0.stream.ENCODER.markup">Lavc58.134.100 libx264</property>
  <property name="meta.attr.0.stream.DURATION.markup">00:00:01.000000000</property>
  <property name="meta.attr.COMMENT.markup">Rendered with Manim Community v0.6.0</property>
  <property name="meta.attr.MAJOR_BRAND.markup">isom</property>
  <property name="meta.attr.MINOR_VERSION.markup">512</property>
  <property name="meta.attr.COMPATIBLE_BRANDS.markup">isomiso2avc1mp41</property>
  <property name="meta.attr.ENCODER.markup">Lavf58.76.100</property>
  <property name="meta.media.sample_aspect_num">1</property>
  <property name="meta.media.sample_aspect_den">1</property>
  <property name="meta.media.frame_rate_num">60</property>
  <property name="meta.media.frame_rate_den">1</property>
  <property name="meta.media.colorspace">601</property>
  <property name="meta.media.color_trc">2</property>
  <property name="meta.media.width">640</property>
  <property name="meta.media.height">360</property>
  <property name="meta.media.color_range">mpeg</property>
  <property name="meta.media.top_field_first">0</property>
  <property name="meta.media.progressive">1</property>
  <property name="kdenlive:original.mlt_type">producer</property>
  <property name="kdenlive:original.in">0</property>
  <property name="kdenlive:original.out">59</property>
  <property name="kdenlive:original.length">60</property>
  <property name="kdenlive:original.eof">pause</property>
  <property name="kdenlive:original.resource">video/Introduction/19.mp4</property>
  <property name="kdenlive:original.meta.media.nb_streams">1</property>
  <property name="kdenlive:original.meta.media.0.stream.type">video</property>
  <property name="kdenlive:original.meta.media.0.stream.frame_rate">60</property>
  <property name="kdenlive:original.meta.media.0.stream.sample_aspect_ratio">0</property>
  <property name="kdenlive:original.meta.media.0.codec.width">3840</property>
  <property name="kdenlive:original.meta.media.0.codec.height">2160</property>
  <property name="kdenlive:original.meta.media.0.codec.rotate">0</property>
  <property name="kdenlive:original.meta.media.0.codec.frame_rate">60</property>
  <property name="kdenlive:original.meta.media.0.codec.pix_fmt">yuv420p</property>
  <property name="kdenlive:original.meta.media.0.codec.sample_aspect_ratio">0</property>
  <property name="kdenlive:original.meta.media.0.codec.colorspace">709</property>
  <property name="kdenlive:original.meta.media.0.codec.name">h264</property>
  <property name="kdenlive:original.meta.media.0.codec.long_name">H.264 / AVC / MPEG-4 AVC / MPEG-4 part 10</property>
  <property name="kdenlive:original.meta.media.0.codec.bit_rate">1042888</property>
  <property name="kdenlive:original.meta.attr.0.stream.handler_name.markup">VideoHandler</property>
  <property name="kdenlive:original.meta.attr.0.stream.vendor_id.markup">[0][0][0][0]</property>
  <property name="kdenlive:original.meta.attr.major_brand.markup">isom</property>
  <property name="kdenlive:original.meta.attr.minor_version.markup">512</property>
  <property name="kdenlive:original.meta.attr.compatible_brands.markup">isomiso2avc1mp41</property>
  <property name="kdenlive:original.meta.attr.encoder.markup">Lavf58.76.100</property>
  <property name="kdenlive:original.meta.attr.comment.markup">Rendered with Manim Community v0.6.0</property>
  <property name="kdenlive:original.seekable">1</property>
  <property name="kdenlive:original.width">3840</property>
  <property name="kdenlive:original.height">2160</property>
  <property name="kdenlive:original.meta.media.sample_aspect_num">1</property>
  <property name="kdenlive:original.meta.media.sample_aspect_den">1</property>
  <property name="kdenlive:original.aspect_ratio">1</property>
  <property name="kdenlive:original.audio_index">-1</property>
  <property name="kdenlive:original.video_index">0</property>
  <property name="kdenlive:original.mute_on_pause">1</property>
  <property name="kdenlive:original.mlt_service">avformat</property>
  <property name="kdenlive:original.meta.media.frame_rate_num">60</property>
  <property name="kdenlive:original.meta.media.frame_rate_den">1</property>
  <property name="kdenlive:original.meta.media.colorspace">709</property>
  <property name="kdenlive:original.meta.media.color_trc">2</property>
  <property name="kdenlive:original.meta.media.width">3840</property>
  <property name="kdenlive:original.meta.media.height">2160</property>
  <property name="kdenlive:original.meta.media.color_range">mpeg</property>
  <property name="kdenlive:original.meta.media.top_field_first">0</property>
  <property name="kdenlive:original.meta.media.progressive">1</property>
  <property name="kdenlive:original.backup">1</property>
 </producer>
 <producer id="producer181" in="00:00:00.000" out="00:00:04.983">
  <property name="length">00:00:05.000</property>
  <property name="eof">pause</property>
  <property name="resource">/home/xiaoxiae/.cache/kdenlive/proxy/38db25b3d955c8763f406cec93922cb9.png</property>
  <property name="ttl">25</property>
  <property name="aspect_ratio">1</property>
  <property name="progressive">1</property>
  <property name="seekable">1</property>
  <property name="meta.media.width">800</property>
  <property name="meta.media.height">450</property>
  <property name="mlt_service">qimage</property>
  <property name="kdenlive:clipname">19.png</property>
  <property name="kdenlive:duration">00:00:05.000</property>
  <property name="kdenlive:folderid">124</property>
  <property name="kdenlive:id">146</property>
  <property name="kdenlive:file_size">345506</property>
  <property name="kdenlive:file_hash">38db25b3d955c8763f406cec93922cb9</property>
  <property name="kdenlive:proxy">/home/xiaoxiae/.cache/kdenlive/proxy/38db25b3d955c8763f406cec93922cb9.png</property>
  <property name="kdenlive:originalurl">video/Introduction/19.png</property>
  <property name="global_feed">1</property>
 </producer>
 <producer id="producer183" in="00:00:00.000" out="00:00:00.983">
  <property name="length">60</property>
  <property name="eof">pause</property>
  <property name="resource">/home/xiaoxiae/.cache/kdenlive/proxy/8ccaa7d0fdb83b2fadb964f9c5751e1c.mkv</property>
  <property name="audio_index">-1</property>
  <property name="video_index">0</property>
  <property name="mute_on_pause">0</property>
  <property name="mlt_service">avformat-novalidate</property>
  <property name="seekable">1</property>
  <property name="aspect_ratio">1</property>
  <property name="kdenlive:clipname">2.mp4</property>
  <property name="kdenlive:folderid">124</property>
  <property name="kdenlive:id">147</property>
  <property name="kdenlive:file_size">164358</property>
  <property name="kdenlive:file_hash">8ccaa7d0fdb83b2fadb964f9c5751e1c</property>
  <property name="kdenlive:proxy">/home/xiaoxiae/.cache/kdenlive/proxy/8ccaa7d0fdb83b2fadb964f9c5751e1c.mkv</property>
  <property name="kdenlive:originalurl">video/Introduction/2.mp4</property>
  <property name="global_feed">1</property>
  <property name="meta.media.nb_streams">1</property>
  <property name="meta.media.0.stream.type">video</property>
  <property name="meta.media.0.stream.frame_rate">60</property>
  <property name="meta.media.0.stream.sample_aspect_ratio">0</property>
  <property name="meta.media.0.codec.width">640</property>
  <property name="meta.media.0.codec.height">360</property>
  <property name="meta.media.0.codec.rotate">0</property>
  <property name="meta.media.0.codec.frame_rate">60</property>
  <property name="meta.media.0.codec.pix_fmt">yuv420p</property>
  <property name="meta.media.0.codec.sample_aspect_ratio">0</property>
  <property name="meta.media.0.codec.colorspace">601</property>
  <property name="meta.media.0.codec.name">h264</property>
  <property name="meta.media.0.codec.long_name">H.264 / AVC / MPEG-4 AVC / MPEG-4 part 10</property>
  <property name="meta.media.0.codec.bit_rate">0</property>
  <property name="meta.attr.0.stream.HANDLER_NAME.markup">VideoHandler</property>
  <property name="meta.attr.0.stream.VENDOR_ID.markup">[0][0][0][0]</property>
  <property name="meta.attr.0.stream.ENCODER.markup">Lavc58.134.100 libx264</property>
  <property name="meta.attr.0.stream.DURATION.markup">00:00:01.000000000</property>
  <property name="meta.attr.COMMENT.markup">Rendered with Manim Community v0.6.0</property>
  <property name="meta.attr.MAJOR_BRAND.markup">isom</property>
  <property name="meta.attr.MINOR_VERSION.markup">512</property>
  <property name="meta.attr.COMPATIBLE_BRANDS.markup">isomiso2avc1mp41</property>
  <property name="meta.attr.ENCODER.markup">Lavf58.76.100</property>
  <property name="meta.media.sample_aspect_num">1</property>
  <property name="meta.media.sample_aspect_den">1</property>
  <property name="meta.media.frame_rate_num">60</property>
  <property name="meta.media.frame_rate_den">1</property>
  <property name="meta.media.colorspace">601</property>
  <property name="meta.media.color_trc">2</property>
  <property name="meta.media.width">640</property>
  <property name="meta.media.height">360</property>
  <property name="meta.media.color_range">mpeg</property>
  <property name="meta.media.top_field_first">0</property>
  <property name="meta.media.progressive">1</property>
  <property name="kdenlive:original.mlt_type">producer</property>
  <property name="kdenlive:original.in">0</property>
  <property name="kdenlive:original.out">59</property>
  <property name="kdenlive:original.length">60</property>
  <property name="kdenlive:original.eof">pause</property>
  <property name="kdenlive:original.resource">video/Introduction/2.mp4</property>
  <property name="kdenlive:original.meta.media.nb_streams">1</property>
  <property name="kdenlive:original.meta.media.0.stream.type">video</property>
  <property name="kdenlive:original.meta.media.0.stream.frame_rate">60</property>
  <property name="kdenlive:original.meta.media.0.stream.sample_aspect_ratio">0</property>
  <property name="kdenlive:original.meta.media.0.codec.width">3840</property>
  <property name="kdenlive:original.meta.media.0.codec.height">2160</property>
  <property name="kdenlive:original.meta.media.0.codec.rotate">0</property>
  <property name="kdenlive:original.meta.media.0.codec.frame_rate">60</property>
  <property name="kdenlive:original.meta.media.0.codec.pix_fmt">yuv420p</property>
  <property name="kdenlive:original.meta.media.0.codec.sample_aspect_ratio">0</property>
  <property name="kdenlive:original.meta.media.0.codec.colorspace">709</property>
  <property name="kdenlive:original.meta.media.0.codec.name">h264</property>
  <property name="kdenlive:original.meta.media.0.codec.long_name">H.264 / AVC / MPEG-4 AVC / MPEG-4 part 10</property>
  <property name="kdenlive:original.meta.media.0.codec.bit_rate">1301816</property>
  <property name="kdenlive:original.meta.attr.0.stream.handler_name.markup">VideoHandler</property>
  <property name="kdenlive:original.meta.attr.0.stream.vendor_id.markup">[0][0][0][0]</property>
  <property name="kdenlive:original.meta.attr.major_brand.markup">isom</property>
  <property name="kdenlive:original.meta.attr.minor_version.markup">512</property>
  <property name="kdenlive:original.meta.attr.compatible_brands.markup">isomiso2avc1mp41</property>
  <property name="kdenlive:original.meta.attr.encoder.markup">Lavf58.76.100</property>
  <property name="kdenlive:original.meta.attr.comment.markup">Rendered with Manim Community v0.6.0</property>
  <property name="kdenlive:original.seekable">1</property>
  <property name="kdenlive:original.width">3840</property>
  <property name="kdenlive:original.height">2160</property>
  <property name="kdenlive:original.meta.media.sample_aspect_num">1</property>
  <property name="kdenlive:original.meta.media.sample_aspect_den">1</property>
  <property name="kdenlive:original.aspect_ratio">1</property>
  <property name="kdenlive:original.audio_index">-1</property>
  <property name="kdenlive:original.video_index">0</property>
  <property name="kdenlive:original.mute_on_pause">1</property>
  <property name="kdenlive:original.mlt_service">avformat</property>
  <property name="kdenlive:original.meta.media.frame_rate_num">60</property>
  <property name="kdenlive:original.meta.media.frame_rate_den">1</property>
  <property name="kdenlive:original.meta.media.colorspace">709</property>
  <property name="kdenlive:original.meta.media.color_trc">2</property>
  <property name="kdenlive:original.meta.media.width">3840</property>
  <property name="kdenlive:original.meta.media.height">2160</property>
  <property name="kdenlive:original.meta.media.color_range">mpeg</property>
  <property name="kdenlive:original.meta.media.top_field_first">0</property>
  <property name="kdenlive:original.meta.media.progressive">1</property>
  <property name="kdenlive:original.backup">1</property>
 </producer>
 <producer id="producer184" in="00:00:00.000" out="00:00:04.983">
  <property name="length">00:00:05.000</property>
  <property name="eof">pause</property>
  <property name="resource">/home/xiaoxiae/.cache/kdenlive/proxy/f7a8fff317ce6045a2328490a0e0c15f.png</property>
  <property name="ttl">25</property>
  <property name="aspect_ratio">1</property>
  <property name="progressive">1</property>
  <property name="seekable">1</property>
  <property name="meta.media.width">800</property>
  <property name="meta.media.height">450</property>
  <property name="mlt_service">qimage</property>
  <property name="kdenlive:clipname">2.png</property>
  <property name="kdenlive:duration">00:00:05.000</property>
  <property name="kdenlive:folderid">124</property>
  <property name="kdenlive:id">148</property>
  <property name="kdenlive:file_size">491796</property>
  <property name="kdenlive:file_hash">f7a8fff317ce6045a2328490a0e0c15f</property>
  <property name="kdenlive:proxy">/home/xiaoxiae/.cache/kdenlive/proxy/f7a8fff317ce6045a2328490a0e0c15f.png</property>
  <property name="kdenlive:originalurl">video/Introduction/2.png</property>
  <property name="global_feed">1</property>
 </producer>
 <producer id="producer185" in="00:00:00.000" out="00:00:00.983">
  <property name="length">60</property>
  <property name="eof">pause</property>
  <property name="resource">/home/xiaoxiae/.cache/kdenlive/proxy/d767bbf0eeca00c353ddb528d52badaa.mkv</property>
  <property name="audio_index">-1</property>
  <property name="video_index">0</property>
  <property name="mute_on_pause">0</property>
  <property name="mlt_service">avformat-novalidate</property>
  <property name="seekable">1</property>
  <property name="aspect_ratio">1</property>
  <property name="kdenlive:clipname">20.mp4</property>
  <property name="kdenlive:folderid">124</property>
  <property name="kdenlive:id">149</property>
  <property name="kdenlive:file_size">168986</property>
  <property name="kdenlive:file_hash">d767bbf0eeca00c353ddb528d52badaa</property>
  <property name="kdenlive:proxy">/home/xiaoxiae/.cache/kdenlive/proxy/d767bbf0eeca00c353ddb528d52badaa.mkv</property>
  <property name="kdenlive:originalurl">video/Introduction/20.mp4</property>
  <property name="global_feed">1</property>
  <property name="meta.media.nb_streams">1</property>
  <property name="meta.media.0.stream.type">video</property>
  <property name="meta.media.0.stream.frame_rate">60</property>
  <property name="meta.media.0.stream.sample_aspect_ratio">0</property>
  <property name="meta.media.0.codec.width">640</property>
  <property name="meta.media.0.codec.height">360</property>
  <property name="meta.media.0.codec.rotate">0</property>
  <property name="meta.media.0.codec.frame_rate">60</property>
  <property name="meta.media.0.codec.pix_fmt">yuv420p</property>
  <property name="meta.media.0.codec.sample_aspect_ratio">0</property>
  <property name="meta.media.0.codec.colorspace">601</property>
  <property name="meta.media.0.codec.name">h264</property>
  <property name="meta.media.0.codec.long_name">H.264 / AVC / MPEG-4 AVC / MPEG-4 part 10</property>
  <property name="meta.media.0.codec.bit_rate">0</property>
  <property name="meta.attr.0.stream.HANDLER_NAME.markup">VideoHandler</property>
  <property name="meta.attr.0.stream.VENDOR_ID.markup">[0][0][0][0]</property>
  <property name="meta.attr.0.stream.ENCODER.markup">Lavc58.134.100 libx264</property>
  <property name="meta.attr.0.stream.DURATION.markup">00:00:01.000000000</property>
  <property name="meta.attr.COMMENT.markup">Rendered with Manim Community v0.6.0</property>
  <property name="meta.attr.MAJOR_BRAND.markup">isom</property>
  <property name="meta.attr.MINOR_VERSION.markup">512</property>
  <property name="meta.attr.COMPATIBLE_BRANDS.markup">isomiso2avc1mp41</property>
  <property name="meta.attr.ENCODER.markup">Lavf58.76.100</property>
  <property name="meta.media.sample_aspect_num">1</property>
  <property name="meta.media.sample_aspect_den">1</property>
  <property name="meta.media.frame_rate_num">60</property>
  <property name="meta.media.frame_rate_den">1</property>
  <property name="meta.media.colorspace">601</property>
  <property name="meta.media.color_trc">2</property>
  <property name="meta.media.width">640</property>
  <property name="meta.media.height">360</property>
  <property name="meta.media.color_range">mpeg</property>
  <property name="meta.media.top_field_first">0</property>
  <property name="meta.media.progressive">1</property>
  <property name="kdenlive:original.mlt_type">producer</property>
  <property name="kdenlive:original.in">0</property>
  <property name="kdenlive:original.out">59</property>
  <property name="kdenlive:original.length">60</property>
  <property name="kdenlive:original.eof">pause</property>
  <property name="kdenlive:original.resource">video/Introduction/20.mp4</property>
  <property name="kdenlive:original.meta.media.nb_streams">1</property>
  <property name="kdenlive:original.meta.media.0.stream.type">video</property>
  <property name="kdenlive:original.meta.media.0.stream.frame_rate">60</property>
  <property name="kdenlive:original.meta.media.0.stream.sample_aspect_ratio">0</property>
  <property name="kdenlive:original.meta.media.0.codec.width">3840</property>
  <property name="kdenlive:original.meta.media.0.codec.height">2160</property>
  <property name="kdenlive:original.meta.media.0.codec.rotate">0</property>
  <property name="kdenlive:original.meta.media.0.codec.frame_rate">60</property>
  <property name="kdenlive:original.meta.media.0.codec.pix_fmt">yuv420p</property>
  <property name="kdenlive:original.meta.media.0.codec.sample_aspect_ratio">0</property>
  <property name="kdenlive:original.meta.media.0.codec.colorspace">709</property>
  <property name="kdenlive:original.meta.media.0.codec.name">h264</property>
  <property name="kdenlive:original.meta.media.0.codec.long_name">H.264 / AVC / MPEG-4 AVC / MPEG-4 part 10</property>
  <property name="kdenlive:original.meta.media.0.codec.bit_rate">1339160</property>
  <property name="kdenlive:original.meta.attr.0.stream.handler_name.markup">VideoHandler</property>
  <property name="kdenlive:original.meta.attr.0.stream.vendor_id.markup">[0][0][0][0]</property>
  <property name="kdenlive:original.meta.attr.major_brand.markup">isom</property>
  <property name="kdenlive:original.meta.attr.minor_version.markup">512</property>
  <property name="kdenlive:original.meta.attr.compatible_brands.markup">isomiso2avc1mp41</property>
  <property name="kdenlive:original.meta.attr.encoder.markup">Lavf58.76.100</property>
  <property name="kdenlive:original.meta.attr.comment.markup">Rendered with Manim Community v0.6.0</property>
  <property name="kdenlive:original.seekable">1</property>
  <property name="kdenlive:original.width">3840</property>
  <property name="kdenlive:original.height">2160</property>
  <property name="kdenlive:original.meta.media.sample_aspect_num">1</property>
  <property name="kdenlive:original.meta.media.sample_aspect_den">1</property>
  <property name="kdenlive:original.aspect_ratio">1</property>
  <property name="kdenlive:original.audio_index">-1</property>
  <property name="kdenlive:original.video_index">0</property>
  <property name="kdenlive:original.mute_on_pause">1</property>
  <property name="kdenlive:original.mlt_service">avformat</property>
  <property name="kdenlive:original.meta.media.frame_rate_num">60</property>
  <property name="kdenlive:original.meta.media.frame_rate_den">1</property>
  <property name="kdenlive:original.meta.media.colorspace">709</property>
  <property name="kdenlive:original.meta.media.color_trc">2</property>
  <property name="kdenlive:original.meta.media.width">3840</property>
  <property name="kdenlive:original.meta.media.height">2160</property>
  <property name="kdenlive:original.meta.media.color_range">mpeg</property>
  <property name="kdenlive:original.meta.media.top_field_first">0</property>
  <property name="kdenlive:original.meta.media.progressive">1</property>
  <property name="kdenlive:original.backup">1</property>
 </producer>
 <producer id="producer186" in="00:00:00.000" out="00:00:04.983">
  <property name="length">00:00:05.000</property>
  <property name="eof">pause</property>
  <property name="resource">/home/xiaoxiae/.cache/kdenlive/proxy/17a4f1427bf992ef3eff1ceb337f7bcd.png</property>
  <property name="ttl">25</property>
  <property name="aspect_ratio">1</property>
  <property name="progressive">1</property>
  <property name="seekable">1</property>
  <property name="meta.media.width">800</property>
  <property name="meta.media.height">450</property>
  <property name="mlt_service">qimage</property>
  <property name="kdenlive:clipname">20.png</property>
  <property name="kdenlive:duration">00:00:05.000</property>
  <property name="kdenlive:folderid">124</property>
  <property name="kdenlive:id">150</property>
  <property name="kdenlive:file_size">331646</property>
  <property name="kdenlive:file_hash">17a4f1427bf992ef3eff1ceb337f7bcd</property>
  <property name="kdenlive:proxy">/home/xiaoxiae/.cache/kdenlive/proxy/17a4f1427bf992ef3eff1ceb337f7bcd.png</property>
  <property name="kdenlive:originalurl">video/Introduction/20.png</property>
  <property name="global_feed">1</property>
 </producer>
 <producer id="producer187" in="00:00:00.000" out="00:00:00.983">
  <property name="length">60</property>
  <property name="eof">pause</property>
  <property name="resource">/home/xiaoxiae/.cache/kdenlive/proxy/b5b797dd4871b6ce5f4dcde3ed4a6b00.mkv</property>
  <property name="audio_index">-1</property>
  <property name="video_index">0</property>
  <property name="mute_on_pause">0</property>
  <property name="mlt_service">avformat-novalidate</property>
  <property name="seekable">1</property>
  <property name="aspect_ratio">1</property>
  <property name="kdenlive:clipname">21.mp4</property>
  <property name="kdenlive:folderid">124</property>
  <property name="kdenlive:id">151</property>
  <property name="kdenlive:file_size">107118</property>
  <property name="kdenlive:file_hash">b5b797dd4871b6ce5f4dcde3ed4a6b00</property>
  <property name="kdenlive:proxy">/home/xiaoxiae/.cache/kdenlive/proxy/b5b797dd4871b6ce5f4dcde3ed4a6b00.mkv</property>
  <property name="kdenlive:originalurl">video/Introduction/21.mp4</property>
  <property name="global_feed">1</property>
  <property name="meta.media.nb_streams">1</property>
  <property name="meta.media.0.stream.type">video</property>
  <property name="meta.media.0.stream.frame_rate">60</property>
  <property name="meta.media.0.stream.sample_aspect_ratio">0</property>
  <property name="meta.media.0.codec.width">640</property>
  <property name="meta.media.0.codec.height">360</property>
  <property name="meta.media.0.codec.rotate">0</property>
  <property name="meta.media.0.codec.frame_rate">60</property>
  <property name="meta.media.0.codec.pix_fmt">yuv420p</property>
  <property name="meta.media.0.codec.sample_aspect_ratio">0</property>
  <property name="meta.media.0.codec.colorspace">601</property>
  <property name="meta.media.0.codec.name">h264</property>
  <property name="meta.media.0.codec.long_name">H.264 / AVC / MPEG-4 AVC / MPEG-4 part 10</property>
  <property name="meta.media.0.codec.bit_rate">0</property>
  <property name="meta.attr.0.stream.HANDLER_NAME.markup">VideoHandler</property>
  <property name="meta.attr.0.stream.VENDOR_ID.markup">[0][0][0][0]</property>
  <property name="meta.attr.0.stream.ENCODER.markup">Lavc58.134.100 libx264</property>
  <property name="meta.attr.0.stream.DURATION.markup">00:00:01.000000000</property>
  <property name="meta.attr.COMMENT.markup">Rendered with Manim Community v0.6.0</property>
  <property name="meta.attr.MAJOR_BRAND.markup">isom</property>
  <property name="meta.attr.MINOR_VERSION.markup">512</property>
  <property name="meta.attr.COMPATIBLE_BRANDS.markup">isomiso2avc1mp41</property>
  <property name="meta.attr.ENCODER.markup">Lavf58.76.100</property>
  <property name="meta.media.sample_aspect_num">1</property>
  <property name="meta.media.sample_aspect_den">1</property>
  <property name="meta.media.frame_rate_num">60</property>
  <property name="meta.media.frame_rate_den">1</property>
  <property name="meta.media.colorspace">601</property>
  <property name="meta.media.color_trc">2</property>
  <property name="meta.media.width">640</property>
  <property name="meta.media.height">360</property>
  <property name="meta.media.color_range">mpeg</property>
  <property name="meta.media.top_field_first">0</property>
  <property name="meta.media.progressive">1</property>
  <property name="kdenlive:original.mlt_type">producer</property>
  <property name="kdenlive:original.in">0</property>
  <property name="kdenlive:original.out">59</property>
  <property name="kdenlive:original.length">60</property>
  <property name="kdenlive:original.eof">pause</property>
  <property name="kdenlive:original.resource">video/Introduction/21.mp4</property>
  <property name="kdenlive:original.meta.media.nb_streams">1</property>
  <property name="kdenlive:original.meta.media.0.stream.type">video</property>
  <property name="kdenlive:original.meta.media.0.stream.frame_rate">60</property>
  <property name="kdenlive:original.meta.media.0.stream.sample_aspect_ratio">0</property>
  <property name="kdenlive:original.meta.media.0.codec.width">3840</property>
  <property name="kdenlive:original.meta.media.0.codec.height">2160</property>
  <property name="kdenlive:original.meta.media.0.codec.rotate">0</property>
  <property name="kdenlive:original.meta.media.0.codec.frame_rate">60</property>
  <property name="kdenlive:original.meta.media.0.codec.pix_fmt">yuv420p</property>
  <property name="kdenlive:original.meta.media.0.codec.sample_aspect_ratio">0</property>
  <property name="kdenlive:original.meta.media.0.codec.colorspace">709</property>
  <property name="kdenlive:original.meta.media.0.codec.name">h264</property>
  <property name="kdenlive:original.meta.media.0.codec.long_name">H.264 / AVC / MPEG-4 AVC / MPEG-4 part 10</property>
  <property name="kdenlive:original.meta.media.0.codec.bit_rate">843896</property>
  <property name="kdenlive:original.meta.attr.0.stream.handler_name.markup">VideoHandler</property>
  <property name="kdenlive:original.meta.attr.0.stream.vendor_id.markup">[0][0][0][0]</property>
  <property name="kdenlive:original.meta.attr.major_brand.markup">isom</property>
  <property name="kdenlive:original.meta.attr.minor_version.markup">512</property>
  <property name="kdenlive:original.meta.attr.compatible_brands.markup">isomiso2avc1mp41</property>
  <property name="kdenlive:original.meta.attr.encoder.markup">Lavf58.76.100</property>
  <property name="kdenlive:original.meta.attr.comment.markup">Rendered with Manim Community v0.6.0</property>
  <property name="kdenlive:original.seekable">1</property>
  <property name="kdenlive:original.width">3840</property>
  <property name="kdenlive:original.height">2160</property>
  <property name="kdenlive:original.meta.media.sample_aspect_num">1</property>
  <property name="kdenlive:original.meta.media.sample_aspect_den">1</property>
  <property name="kdenlive:original.aspect_ratio">1</property>
  <property name="kdenlive:original.audio_index">-1</property>
  <property name="kdenlive:original.video_index">0</property>
  <property name="kdenlive:original.mute_on_pause">1</property>
  <property name="kdenlive:original.mlt_service">avformat</property>
  <property name="kdenlive:original.meta.media.frame_rate_num">60</property>
  <property name="kdenlive:original.meta.media.frame_rate_den">1</property>
  <property name="kdenlive:original.meta.media.colorspace">709</property>
  <property name="kdenlive:original.meta.media.color_trc">2</property>
  <property name="kdenlive:original.meta.media.width">3840</property>
  <property name="kdenlive:original.meta.media.height">2160</property>
  <property name="kdenlive:original.meta.media.color_range">mpeg</property>
  <property name="kdenlive:original.meta.media.top_field_first">0</property>
  <property name="kdenlive:original.meta.media.progressive">1</property>
  <property name="kdenlive:original.backup">1</property>
 </producer>
 <producer id="producer189" in="00:00:00.000" out="00:00:04.983">
  <property name="length">00:00:05.000</property>
  <property name="eof">pause</property>
  <property name="resource">/home/xiaoxiae/.cache/kdenlive/proxy/c9ba02406f2cc402dab717db4d697d42.png</property>
  <property name="ttl">25</property>
  <property name="aspect_ratio">1</property>
  <property name="progressive">1</property>
  <property name="seekable">1</property>
  <property name="meta.media.width">800</property>
  <property name="meta.media.height">450</property>
  <property name="mlt_service">qimage</property>
  <property name="kdenlive:clipname">21.png</property>
  <property name="kdenlive:duration">00:00:05.000</property>
  <property name="kdenlive:folderid">124</property>
  <property name="kdenlive:id">152</property>
  <property name="kdenlive:file_size">335228</property>
  <property name="kdenlive:file_hash">c9ba02406f2cc402dab717db4d697d42</property>
  <property name="kdenlive:proxy">/home/xiaoxiae/.cache/kdenlive/proxy/c9ba02406f2cc402dab717db4d697d42.png</property>
  <property name="kdenlive:originalurl">video/Introduction/21.png</property>
  <property name="global_feed">1</property>
 </producer>
 <producer id="producer190" in="00:00:00.000" out="00:00:00.983">
  <property name="length">60</property>
  <property name="eof">pause</property>
  <property name="resource">/home/xiaoxiae/.cache/kdenlive/proxy/f72e7ba46b79298dd5bbd2f7275f4275.mkv</property>
  <property name="audio_index">-1</property>
  <property name="video_index">0</property>
  <property name="mute_on_pause">0</property>
  <property name="mlt_service">avformat-novalidate</property>
  <property name="seekable">1</property>
  <property name="aspect_ratio">1</property>
  <property name="kdenlive:clipname">22.mp4</property>
  <property name="kdenlive:folderid">124</property>
  <property name="kdenlive:id">153</property>
  <property name="kdenlive:file_size">140787</property>
  <property name="kdenlive:file_hash">f72e7ba46b79298dd5bbd2f7275f4275</property>
  <property name="kdenlive:proxy">/home/xiaoxiae/.cache/kdenlive/proxy/f72e7ba46b79298dd5bbd2f7275f4275.mkv</property>
  <property name="kdenlive:originalurl">video/Introduction/22.mp4</property>
  <property name="global_feed">1</property>
  <property name="meta.media.nb_streams">1</property>
  <property name="meta.media.0.stream.type">video</property>
  <property name="meta.media.0.stream.frame_rate">60</property>
  <property name="meta.media.0.stream.sample_aspect_ratio">0</property>
  <property name="meta.media.0.codec.width">640</property>
  <property name="meta.media.0.codec.height">360</property>
  <property name="meta.media.0.codec.rotate">0</property>
  <property name="meta.media.0.codec.frame_rate">60</property>
  <property name="meta.media.0.codec.pix_fmt">yuv420p</property>
  <property name="meta.media.0.codec.sample_aspect_ratio">0</property>
  <property name="meta.media.0.codec.colorspace">601</property>
  <property name="meta.media.0.codec.name">h264</property>
  <property name="meta.media.0.codec.long_name">H.264 / AVC / MPEG-4 AVC / MPEG-4 part 10</property>
  <property name="meta.media.0.codec.bit_rate">0</property>
  <property name="meta.attr.0.stream.HANDLER_NAME.markup">VideoHandler</property>
  <property name="meta.attr.0.stream.VENDOR_ID.markup">[0][0][0][0]</property>
  <property name="meta.attr.0.stream.ENCODER.markup">Lavc58.134.100 libx264</property>
  <property name="meta.attr.0.stream.DURATION.markup">00:00:01.000000000</property>
  <property name="meta.attr.COMMENT.markup">Rendered with Manim Community v0.6.0</property>
  <property name="meta.attr.MAJOR_BRAND.markup">isom</property>
  <property name="meta.attr.MINOR_VERSION.markup">512</property>
  <property name="meta.attr.COMPATIBLE_BRANDS.markup">isomiso2avc1mp41</property>
  <property name="meta.attr.ENCODER.markup">Lavf58.76.100</property>
  <property name="meta.media.sample_aspect_num">1</property>
  <property name="meta.media.sample_aspect_den">1</property>
  <property name="meta.media.frame_rate_num">60</property>
  <property name="meta.media.frame_rate_den">1</property>
  <property name="meta.media.colorspace">601</property>
  <property name="meta.media.color_trc">2</property>
  <property name="meta.media.width">640</property>
  <property name="meta.media.height">360</property>
  <property name="meta.media.color_range">mpeg</property>
  <property name="meta.media.top_field_first">0</property>
  <property name="meta.media.progressive">1</property>
  <property name="kdenlive:original.mlt_type">producer</property>
  <property name="kdenlive:original.in">0</property>
  <property name="kdenlive:original.out">59</property>
  <property name="kdenlive:original.length">60</property>
  <property name="kdenlive:original.eof">pause</property>
  <property name="kdenlive:original.resource">video/Introduction/22.mp4</property>
  <property name="kdenlive:original.meta.media.nb_streams">1</property>
  <property name="kdenlive:original.meta.media.0.stream.type">video</property>
  <property name="kdenlive:original.meta.media.0.stream.frame_rate">60</property>
  <property name="kdenlive:original.meta.media.0.stream.sample_aspect_ratio">0</property>
  <property name="kdenlive:original.meta.media.0.codec.width">3840</property>
  <property name="kdenlive:original.meta.media.0.codec.height">2160</property>
  <property name="kdenlive:original.meta.media.0.codec.rotate">0</property>
  <property name="kdenlive:original.meta.media.0.codec.frame_rate">60</property>
  <property name="kdenlive:original.meta.media.0.codec.pix_fmt">yuv420p</property>
  <property name="kdenlive:original.meta.media.0.codec.sample_aspect_ratio">0</property>
  <property name="kdenlive:original.meta.media.0.codec.colorspace">709</property>
  <property name="kdenlive:original.meta.media.0.codec.name">h264</property>
  <property name="kdenlive:original.meta.media.0.codec.long_name">H.264 / AVC / MPEG-4 AVC / MPEG-4 part 10</property>
  <property name="kdenlive:original.meta.media.0.codec.bit_rate">1113184</property>
  <property name="kdenlive:original.meta.attr.0.stream.handler_name.markup">VideoHandler</property>
  <property name="kdenlive:original.meta.attr.0.stream.vendor_id.markup">[0][0][0][0]</property>
  <property name="kdenlive:original.meta.attr.major_brand.markup">isom</property>
  <property name="kdenlive:original.meta.attr.minor_version.markup">512</property>
  <property name="kdenlive:original.meta.attr.compatible_brands.markup">isomiso2avc1mp41</property>
  <property name="kdenlive:original.meta.attr.encoder.markup">Lavf58.76.100</property>
  <property name="kdenlive:original.meta.attr.comment.markup">Rendered with Manim Community v0.6.0</property>
  <property name="kdenlive:original.seekable">1</property>
  <property name="kdenlive:original.width">3840</property>
  <property name="kdenlive:original.height">2160</property>
  <property name="kdenlive:original.meta.media.sample_aspect_num">1</property>
  <property name="kdenlive:original.meta.media.sample_aspect_den">1</property>
  <property name="kdenlive:original.aspect_ratio">1</property>
  <property name="kdenlive:original.audio_index">-1</property>
  <property name="kdenlive:original.video_index">0</property>
  <property name="kdenlive:original.mute_on_pause">1</property>
  <property name="kdenlive:original.mlt_service">avformat</property>
  <property name="kdenlive:original.meta.media.frame_rate_num">60</property>
  <property name="kdenlive:original.meta.media.frame_rate_den">1</property>
  <property name="kdenlive:original.meta.media.colorspace">709</property>
  <property name="kdenlive:original.meta.media.color_trc">2</property>
  <property name="kdenlive:original.meta.media.width">3840</property>
  <property name="kdenlive:original.meta.media.height">2160</property>
  <property name="kdenlive:original.meta.media.color_range">mpeg</property>
  <property name="kdenlive:original.meta.media.top_field_first">0</property>
  <property name="kdenlive:original.meta.media.progressive">1</property>
  <property name="kdenlive:original.backup">1</property>
 </producer>
 <producer id="producer188" in="00:00:00.000" out="00:00:04.983">
  <property name="length">00:00:05.000</property>
  <property name="eof">pause</property>
  <property name="resource">/home/xiaoxiae/.cache/kdenlive/proxy/68765011ea6722bd9edab68d5ce0b8b2.png</property>
  <property name="ttl">25</property>
  <property name="aspect_ratio">1</property>
  <property name="progressive">1</property>
  <property name="seekable">1</property>
  <property name="meta.media.width">800</property>
  <property name="meta.media.height">450</property>
  <property name="mlt_service">qimage</property>
  <property name="kdenlive:clipname">22.png</property>
  <property name="kdenlive:duration">00:00:05.000</property>
  <property name="kdenlive:folderid">124</property>
  <property name="kdenlive:id">154</property>
  <property name="kdenlive:file_size">361725</property>
  <property name="kdenlive:file_hash">68765011ea6722bd9edab68d5ce0b8b2</property>
  <property name="kdenlive:proxy">/home/xiaoxiae/.cache/kdenlive/proxy/68765011ea6722bd9edab68d5ce0b8b2.png</property>
  <property name="kdenlive:originalurl">video/Introduction/22.png</property>
  <property name="global_feed">1</property>
 </producer>
 <producer id="producer192" in="00:00:00.000" out="00:00:00.983">
  <property name="length">60</property>
  <property name="eof">pause</property>
  <property name="resource">/home/xiaoxiae/.cache/kdenlive/proxy/ae0a69be2b59ae0ee80f71719367f202.mkv</property>
  <property name="audio_index">-1</property>
  <property name="video_index">0</property>
  <property name="mute_on_pause">0</property>
  <property name="mlt_service">avformat-novalidate</property>
  <property name="seekable">1</property>
  <property name="aspect_ratio">1</property>
  <property name="kdenlive:clipname">23.mp4</property>
  <property name="kdenlive:folderid">124</property>
  <property name="kdenlive:id">155</property>
  <property name="kdenlive:file_size">182288</property>
  <property name="kdenlive:file_hash">ae0a69be2b59ae0ee80f71719367f202</property>
  <property name="kdenlive:proxy">/home/xiaoxiae/.cache/kdenlive/proxy/ae0a69be2b59ae0ee80f71719367f202.mkv</property>
  <property name="kdenlive:originalurl">video/Introduction/23.mp4</property>
  <property name="global_feed">1</property>
  <property name="meta.media.nb_streams">1</property>
  <property name="meta.media.0.stream.type">video</property>
  <property name="meta.media.0.stream.frame_rate">60</property>
  <property name="meta.media.0.stream.sample_aspect_ratio">0</property>
  <property name="meta.media.0.codec.width">640</property>
  <property name="meta.media.0.codec.height">360</property>
  <property name="meta.media.0.codec.rotate">0</property>
  <property name="meta.media.0.codec.frame_rate">60</property>
  <property name="meta.media.0.codec.pix_fmt">yuv420p</property>
  <property name="meta.media.0.codec.sample_aspect_ratio">0</property>
  <property name="meta.media.0.codec.colorspace">601</property>
  <property name="meta.media.0.codec.name">h264</property>
  <property name="meta.media.0.codec.long_name">H.264 / AVC / MPEG-4 AVC / MPEG-4 part 10</property>
  <property name="meta.media.0.codec.bit_rate">0</property>
  <property name="meta.attr.0.stream.HANDLER_NAME.markup">VideoHandler</property>
  <property name="meta.attr.0.stream.VENDOR_ID.markup">[0][0][0][0]</property>
  <property name="meta.attr.0.stream.ENCODER.markup">Lavc58.134.100 libx264</property>
  <property name="meta.attr.0.stream.DURATION.markup">00:00:01.000000000</property>
  <property name="meta.attr.COMMENT.markup">Rendered with Manim Community v0.6.0</property>
  <property name="meta.attr.MAJOR_BRAND.markup">isom</property>
  <property name="meta.attr.MINOR_VERSION.markup">512</property>
  <property name="meta.attr.COMPATIBLE_BRANDS.markup">isomiso2avc1mp41</property>
  <property name="meta.attr.ENCODER.markup">Lavf58.76.100</property>
  <property name="meta.media.sample_aspect_num">1</property>
  <property name="meta.media.sample_aspect_den">1</property>
  <property name="meta.media.frame_rate_num">60</property>
  <property name="meta.media.frame_rate_den">1</property>
  <property name="meta.media.colorspace">601</property>
  <property name="meta.media.color_trc">2</property>
  <property name="meta.media.width">640</property>
  <property name="meta.media.height">360</property>
  <property name="meta.media.color_range">mpeg</property>
  <property name="meta.media.top_field_first">0</property>
  <property name="meta.media.progressive">1</property>
  <property name="kdenlive:original.mlt_type">producer</property>
  <property name="kdenlive:original.in">0</property>
  <property name="kdenlive:original.out">59</property>
  <property name="kdenlive:original.length">60</property>
  <property name="kdenlive:original.eof">pause</property>
  <property name="kdenlive:original.resource">video/Introduction/23.mp4</property>
  <property name="kdenlive:original.meta.media.nb_streams">1</property>
  <property name="kdenlive:original.meta.media.0.stream.type">video</property>
  <property name="kdenlive:original.meta.media.0.stream.frame_rate">60</property>
  <property name="kdenlive:original.meta.media.0.stream.sample_aspect_ratio">0</property>
  <property name="kdenlive:original.meta.media.0.codec.width">3840</property>
  <property name="kdenlive:original.meta.media.0.codec.height">2160</property>
  <property name="kdenlive:original.meta.media.0.codec.rotate">0</property>
  <property name="kdenlive:original.meta.media.0.codec.frame_rate">60</property>
  <property name="kdenlive:original.meta.media.0.codec.pix_fmt">yuv420p</property>
  <property name="kdenlive:original.meta.media.0.codec.sample_aspect_ratio">0</property>
  <property name="kdenlive:original.meta.media.0.codec.colorspace">709</property>
  <property name="kdenlive:original.meta.media.0.codec.name">h264</property>
  <property name="kdenlive:original.meta.media.0.codec.long_name">H.264 / AVC / MPEG-4 AVC / MPEG-4 part 10</property>
  <property name="kdenlive:original.meta.media.0.codec.bit_rate">1445512</property>
  <property name="kdenlive:original.meta.attr.0.stream.handler_name.markup">VideoHandler</property>
  <property name="kdenlive:original.meta.attr.0.stream.vendor_id.markup">[0][0][0][0]</property>
  <property name="kdenlive:original.meta.attr.major_brand.markup">isom</property>
  <property name="kdenlive:original.meta.attr.minor_version.markup">512</property>
  <property name="kdenlive:original.meta.attr.compatible_brands.markup">isomiso2avc1mp41</property>
  <property name="kdenlive:original.meta.attr.encoder.markup">Lavf58.76.100</property>
  <property name="kdenlive:original.meta.attr.comment.markup">Rendered with Manim Community v0.6.0</property>
  <property name="kdenlive:original.seekable">1</property>
  <property name="kdenlive:original.width">3840</property>
  <property name="kdenlive:original.height">2160</property>
  <property name="kdenlive:original.meta.media.sample_aspect_num">1</property>
  <property name="kdenlive:original.meta.media.sample_aspect_den">1</property>
  <property name="kdenlive:original.aspect_ratio">1</property>
  <property name="kdenlive:original.audio_index">-1</property>
  <property name="kdenlive:original.video_index">0</property>
  <property name="kdenlive:original.mute_on_pause">1</property>
  <property name="kdenlive:original.mlt_service">avformat</property>
  <property name="kdenlive:original.meta.media.frame_rate_num">60</property>
  <property name="kdenlive:original.meta.media.frame_rate_den">1</property>
  <property name="kdenlive:original.meta.media.colorspace">709</property>
  <property name="kdenlive:original.meta.media.color_trc">2</property>
  <property name="kdenlive:original.meta.media.width">3840</property>
  <property name="kdenlive:original.meta.media.height">2160</property>
  <property name="kdenlive:original.meta.media.color_range">mpeg</property>
  <property name="kdenlive:original.meta.media.top_field_first">0</property>
  <property name="kdenlive:original.meta.media.progressive">1</property>
  <property name="kdenlive:original.backup">1</property>
 </producer>
 <producer id="producer191" in="00:00:00.000" out="00:00:04.983">
  <property name="length">00:00:05.000</property>
  <property name="eof">pause</property>
  <property name="resource">/home/xiaoxiae/.cache/kdenlive/proxy/a4078131ac96f2fd8d63191c2523df3e.png</property>
  <property name="ttl">25</property>
  <property name="aspect_ratio">1</property>
  <property name="progressive">1</property>
  <property name="seekable">1</property>
  <property name="meta.media.width">800</property>
  <property name="meta.media.height">450</property>
  <property name="mlt_service">qimage</property>
  <property name="kdenlive:clipname">23.png</property>
  <property name="kdenlive:duration">00:00:05.000</property>
  <property name="kdenlive:folderid">124</property>
  <property name="kdenlive:id">156</property>
  <property name="kdenlive:file_size">336939</property>
  <property name="kdenlive:file_hash">a4078131ac96f2fd8d63191c2523df3e</property>
  <property name="kdenlive:proxy">/home/xiaoxiae/.cache/kdenlive/proxy/a4078131ac96f2fd8d63191c2523df3e.png</property>
  <property name="kdenlive:originalurl">video/Introduction/23.png</property>
  <property name="global_feed">1</property>
 </producer>
 <producer id="producer193" in="00:00:00.000" out="00:00:00.983">
  <property name="length">60</property>
  <property name="eof">pause</property>
  <property name="resource">/home/xiaoxiae/.cache/kdenlive/proxy/5c943be590093004684adb65c9afe0f5.mkv</property>
  <property name="audio_index">-1</property>
  <property name="video_index">0</property>
  <property name="mute_on_pause">0</property>
  <property name="mlt_service">avformat-novalidate</property>
  <property name="seekable">1</property>
  <property name="aspect_ratio">1</property>
  <property name="kdenlive:clipname">24.mp4</property>
  <property name="kdenlive:folderid">124</property>
  <property name="kdenlive:id">157</property>
  <property name="kdenlive:file_size">90994</property>
  <property name="kdenlive:file_hash">5c943be590093004684adb65c9afe0f5</property>
  <property name="kdenlive:proxy">/home/xiaoxiae/.cache/kdenlive/proxy/5c943be590093004684adb65c9afe0f5.mkv</property>
  <property name="kdenlive:originalurl">video/Introduction/24.mp4</property>
  <property name="global_feed">1</property>
  <property name="meta.media.nb_streams">1</property>
  <property name="meta.media.0.stream.type">video</property>
  <property name="meta.media.0.stream.frame_rate">60</property>
  <property name="meta.media.0.stream.sample_aspect_ratio">0</property>
  <property name="meta.media.0.codec.width">640</property>
  <property name="meta.media.0.codec.height">360</property>
  <property name="meta.media.0.codec.rotate">0</property>
  <property name="meta.media.0.codec.frame_rate">60</property>
  <property name="meta.media.0.codec.pix_fmt">yuv420p</property>
  <property name="meta.media.0.codec.sample_aspect_ratio">0</property>
  <property name="meta.media.0.codec.colorspace">601</property>
  <property name="meta.media.0.codec.name">h264</property>
  <property name="meta.media.0.codec.long_name">H.264 / AVC / MPEG-4 AVC / MPEG-4 part 10</property>
  <property name="meta.media.0.codec.bit_rate">0</property>
  <property name="meta.attr.0.stream.HANDLER_NAME.markup">VideoHandler</property>
  <property name="meta.attr.0.stream.VENDOR_ID.markup">[0][0][0][0]</property>
  <property name="meta.attr.0.stream.ENCODER.markup">Lavc58.134.100 libx264</property>
  <property name="meta.attr.0.stream.DURATION.markup">00:00:01.000000000</property>
  <property name="meta.attr.COMMENT.markup">Rendered with Manim Community v0.6.0</property>
  <property name="meta.attr.MAJOR_BRAND.markup">isom</property>
  <property name="meta.attr.MINOR_VERSION.markup">512</property>
  <property name="meta.attr.COMPATIBLE_BRANDS.markup">isomiso2avc1mp41</property>
  <property name="meta.attr.ENCODER.markup">Lavf58.76.100</property>
  <property name="meta.media.sample_aspect_num">1</property>
  <property name="meta.media.sample_aspect_den">1</property>
  <property name="meta.media.frame_rate_num">60</property>
  <property name="meta.media.frame_rate_den">1</property>
  <property name="meta.media.colorspace">601</property>
  <property name="meta.media.color_trc">2</property>
  <property name="meta.media.width">640</property>
  <property name="meta.media.height">360</property>
  <property name="meta.media.color_range">mpeg</property>
  <property name="meta.media.top_field_first">0</property>
  <property name="meta.media.progressive">1</property>
  <property name="kdenlive:original.mlt_type">producer</property>
  <property name="kdenlive:original.in">0</property>
  <property name="kdenlive:original.out">59</property>
  <property name="kdenlive:original.length">60</property>
  <property name="kdenlive:original.eof">pause</property>
  <property name="kdenlive:original.resource">video/Introduction/24.mp4</property>
  <property name="kdenlive:original.meta.media.nb_streams">1</property>
  <property name="kdenlive:original.meta.media.0.stream.type">video</property>
  <property name="kdenlive:original.meta.media.0.stream.frame_rate">60</property>
  <property name="kdenlive:original.meta.media.0.stream.sample_aspect_ratio">0</property>
  <property name="kdenlive:original.meta.media.0.codec.width">3840</property>
  <property name="kdenlive:original.meta.media.0.codec.height">2160</property>
  <property name="kdenlive:original.meta.media.0.codec.rotate">0</property>
  <property name="kdenlive:original.meta.media.0.codec.frame_rate">60</property>
  <property name="kdenlive:original.meta.media.0.codec.pix_fmt">yuv420p</property>
  <property name="kdenlive:original.meta.media.0.codec.sample_aspect_ratio">0</property>
  <property name="kdenlive:original.meta.media.0.codec.colorspace">709</property>
  <property name="kdenlive:original.meta.media.0.codec.name">h264</property>
  <property name="kdenlive:original.meta.media.0.codec.long_name">H.264 / AVC / MPEG-4 AVC / MPEG-4 part 10</property>
  <property name="kdenlive:original.meta.media.0.codec.bit_rate">714904</property>
  <property name="kdenlive:original.meta.attr.0.stream.handler_name.markup">VideoHandler</property>
  <property name="kdenlive:original.meta.attr.0.stream.vendor_id.markup">[0][0][0][0]</property>
  <property name="kdenlive:original.meta.attr.major_brand.markup">isom</property>
  <property name="kdenlive:original.meta.attr.minor_version.markup">512</property>
  <property name="kdenlive:original.meta.attr.compatible_brands.markup">isomiso2avc1mp41</property>
  <property name="kdenlive:original.meta.attr.encoder.markup">Lavf58.76.100</property>
  <property name="kdenlive:original.meta.attr.comment.markup">Rendered with Manim Community v0.6.0</property>
  <property name="kdenlive:original.seekable">1</property>
  <property name="kdenlive:original.width">3840</property>
  <property name="kdenlive:original.height">2160</property>
  <property name="kdenlive:original.meta.media.sample_aspect_num">1</property>
  <property name="kdenlive:original.meta.media.sample_aspect_den">1</property>
  <property name="kdenlive:original.aspect_ratio">1</property>
  <property name="kdenlive:original.audio_index">-1</property>
  <property name="kdenlive:original.video_index">0</property>
  <property name="kdenlive:original.mute_on_pause">1</property>
  <property name="kdenlive:original.mlt_service">avformat</property>
  <property name="kdenlive:original.meta.media.frame_rate_num">60</property>
  <property name="kdenlive:original.meta.media.frame_rate_den">1</property>
  <property name="kdenlive:original.meta.media.colorspace">709</property>
  <property name="kdenlive:original.meta.media.color_trc">2</property>
  <property name="kdenlive:original.meta.media.width">3840</property>
  <property name="kdenlive:original.meta.media.height">2160</property>
  <property name="kdenlive:original.meta.media.color_range">mpeg</property>
  <property name="kdenlive:original.meta.media.top_field_first">0</property>
  <property name="kdenlive:original.meta.media.progressive">1</property>
  <property name="kdenlive:original.backup">1</property>
 </producer>
 <producer id="producer195" in="00:00:00.000" out="00:00:04.983">
  <property name="length">00:00:05.000</property>
  <property name="eof">pause</property>
  <property name="resource">/home/xiaoxiae/.cache/kdenlive/proxy/674d3b4ef233daa56426569875a66e35.png</property>
  <property name="ttl">25</property>
  <property name="aspect_ratio">1</property>
  <property name="progressive">1</property>
  <property name="seekable">1</property>
  <property name="meta.media.width">800</property>
  <property name="meta.media.height">450</property>
  <property name="mlt_service">qimage</property>
  <property name="kdenlive:clipname">24.png</property>
  <property name="kdenlive:duration">00:00:05.000</property>
  <property name="kdenlive:folderid">124</property>
  <property name="kdenlive:id">158</property>
  <property name="kdenlive:file_size">307940</property>
  <property name="kdenlive:file_hash">674d3b4ef233daa56426569875a66e35</property>
  <property name="kdenlive:proxy">/home/xiaoxiae/.cache/kdenlive/proxy/674d3b4ef233daa56426569875a66e35.png</property>
  <property name="kdenlive:originalurl">video/Introduction/24.png</property>
  <property name="global_feed">1</property>
 </producer>
 <producer id="producer196" in="00:00:00.000" out="00:00:00.983">
  <property name="length">60</property>
  <property name="eof">pause</property>
  <property name="resource">/home/xiaoxiae/.cache/kdenlive/proxy/feaa1151148f39346060ce02c0fd3c21.mkv</property>
  <property name="audio_index">-1</property>
  <property name="video_index">0</property>
  <property name="mute_on_pause">0</property>
  <property name="mlt_service">avformat-novalidate</property>
  <property name="seekable">1</property>
  <property name="aspect_ratio">1</property>
  <property name="kdenlive:clipname">25.mp4</property>
  <property name="kdenlive:folderid">124</property>
  <property name="kdenlive:id">159</property>
  <property name="kdenlive:file_size">122546</property>
  <property name="kdenlive:file_hash">feaa1151148f39346060ce02c0fd3c21</property>
  <property name="kdenlive:proxy">/home/xiaoxiae/.cache/kdenlive/proxy/feaa1151148f39346060ce02c0fd3c21.mkv</property>
  <property name="kdenlive:originalurl">video/Introduction/25.mp4</property>
  <property name="global_feed">1</property>
  <property name="meta.media.nb_streams">1</property>
  <property name="meta.media.0.stream.type">video</property>
  <property name="meta.media.0.stream.frame_rate">60</property>
  <property name="meta.media.0.stream.sample_aspect_ratio">0</property>
  <property name="meta.media.0.codec.width">640</property>
  <property name="meta.media.0.codec.height">360</property>
  <property name="meta.media.0.codec.rotate">0</property>
  <property name="meta.media.0.codec.frame_rate">60</property>
  <property name="meta.media.0.codec.pix_fmt">yuv420p</property>
  <property name="meta.media.0.codec.sample_aspect_ratio">0</property>
  <property name="meta.media.0.codec.colorspace">601</property>
  <property name="meta.media.0.codec.name">h264</property>
  <property name="meta.media.0.codec.long_name">H.264 / AVC / MPEG-4 AVC / MPEG-4 part 10</property>
  <property name="meta.media.0.codec.bit_rate">0</property>
  <property name="meta.attr.0.stream.HANDLER_NAME.markup">VideoHandler</property>
  <property name="meta.attr.0.stream.VENDOR_ID.markup">[0][0][0][0]</property>
  <property name="meta.attr.0.stream.ENCODER.markup">Lavc58.134.100 libx264</property>
  <property name="meta.attr.0.stream.DURATION.markup">00:00:01.000000000</property>
  <property name="meta.attr.COMMENT.markup">Rendered with Manim Community v0.6.0</property>
  <property name="meta.attr.MAJOR_BRAND.markup">isom</property>
  <property name="meta.attr.MINOR_VERSION.markup">512</property>
  <property name="meta.attr.COMPATIBLE_BRANDS.markup">isomiso2avc1mp41</property>
  <property name="meta.attr.ENCODER.markup">Lavf58.76.100</property>
  <property name="meta.media.sample_aspect_num">1</property>
  <property name="meta.media.sample_aspect_den">1</property>
  <property name="meta.media.frame_rate_num">60</property>
  <property name="meta.media.frame_rate_den">1</property>
  <property name="meta.media.colorspace">601</property>
  <property name="meta.media.color_trc">2</property>
  <property name="meta.media.width">640</property>
  <property name="meta.media.height">360</property>
  <property name="meta.media.color_range">mpeg</property>
  <property name="meta.media.top_field_first">0</property>
  <property name="meta.media.progressive">1</property>
  <property name="kdenlive:original.mlt_type">producer</property>
  <property name="kdenlive:original.in">0</property>
  <property name="kdenlive:original.out">59</property>
  <property name="kdenlive:original.length">60</property>
  <property name="kdenlive:original.eof">pause</property>
  <property name="kdenlive:original.resource">video/Introduction/25.mp4</property>
  <property name="kdenlive:original.meta.media.nb_streams">1</property>
  <property name="kdenlive:original.meta.media.0.stream.type">video</property>
  <property name="kdenlive:original.meta.media.0.stream.frame_rate">60</property>
  <property name="kdenlive:original.meta.media.0.stream.sample_aspect_ratio">0</property>
  <property name="kdenlive:original.meta.media.0.codec.width">3840</property>
  <property name="kdenlive:original.meta.media.0.codec.height">2160</property>
  <property name="kdenlive:original.meta.media.0.codec.rotate">0</property>
  <property name="kdenlive:original.meta.media.0.codec.frame_rate">60</property>
  <property name="kdenlive:original.meta.media.0.codec.pix_fmt">yuv420p</property>
  <property name="kdenlive:original.meta.media.0.codec.sample_aspect_ratio">0</property>
  <property name="kdenlive:original.meta.media.0.codec.colorspace">709</property>
  <property name="kdenlive:original.meta.media.0.codec.name">h264</property>
  <property name="kdenlive:original.meta.media.0.codec.long_name">H.264 / AVC / MPEG-4 AVC / MPEG-4 part 10</property>
  <property name="kdenlive:original.meta.media.0.codec.bit_rate">967256</property>
  <property name="kdenlive:original.meta.attr.0.stream.handler_name.markup">VideoHandler</property>
  <property name="kdenlive:original.meta.attr.0.stream.vendor_id.markup">[0][0][0][0]</property>
  <property name="kdenlive:original.meta.attr.major_brand.markup">isom</property>
  <property name="kdenlive:original.meta.attr.minor_version.markup">512</property>
  <property name="kdenlive:original.meta.attr.compatible_brands.markup">isomiso2avc1mp41</property>
  <property name="kdenlive:original.meta.attr.encoder.markup">Lavf58.76.100</property>
  <property name="kdenlive:original.meta.attr.comment.markup">Rendered with Manim Community v0.6.0</property>
  <property name="kdenlive:original.seekable">1</property>
  <property name="kdenlive:original.width">3840</property>
  <property name="kdenlive:original.height">2160</property>
  <property name="kdenlive:original.meta.media.sample_aspect_num">1</property>
  <property name="kdenlive:original.meta.media.sample_aspect_den">1</property>
  <property name="kdenlive:original.aspect_ratio">1</property>
  <property name="kdenlive:original.audio_index">-1</property>
  <property name="kdenlive:original.video_index">0</property>
  <property name="kdenlive:original.mute_on_pause">1</property>
  <property name="kdenlive:original.mlt_service">avformat</property>
  <property name="kdenlive:original.meta.media.frame_rate_num">60</property>
  <property name="kdenlive:original.meta.media.frame_rate_den">1</property>
  <property name="kdenlive:original.meta.media.colorspace">709</property>
  <property name="kdenlive:original.meta.media.color_trc">2</property>
  <property name="kdenlive:original.meta.media.width">3840</property>
  <property name="kdenlive:original.meta.media.height">2160</property>
  <property name="kdenlive:original.meta.media.color_range">mpeg</property>
  <property name="kdenlive:original.meta.media.top_field_first">0</property>
  <property name="kdenlive:original.meta.media.progressive">1</property>
  <property name="kdenlive:original.backup">1</property>
 </producer>
 <producer id="producer197" in="00:00:00.000" out="00:00:04.983">
  <property name="length">00:00:05.000</property>
  <property name="eof">pause</property>
  <property name="resource">/home/xiaoxiae/.cache/kdenlive/proxy/2d22bea2964555745251697e9c8943a3.png</property>
  <property name="ttl">25</property>
  <property name="aspect_ratio">1</property>
  <property name="progressive">1</property>
  <property name="seekable">1</property>
  <property name="meta.media.width">800</property>
  <property name="meta.media.height">450</property>
  <property name="mlt_service">qimage</property>
  <property name="kdenlive:clipname">25.png</property>
  <property name="kdenlive:duration">00:00:05.000</property>
  <property name="kdenlive:folderid">124</property>
  <property name="kdenlive:id">160</property>
  <property name="kdenlive:file_size">331993</property>
  <property name="kdenlive:file_hash">2d22bea2964555745251697e9c8943a3</property>
  <property name="kdenlive:proxy">/home/xiaoxiae/.cache/kdenlive/proxy/2d22bea2964555745251697e9c8943a3.png</property>
  <property name="kdenlive:originalurl">video/Introduction/25.png</property>
  <property name="global_feed">1</property>
 </producer>
 <producer id="producer198" in="00:00:00.000" out="00:00:00.983">
  <property name="length">60</property>
  <property name="eof">pause</property>
  <property name="resource">/home/xiaoxiae/.cache/kdenlive/proxy/8c0e2735023ce37616bc9f653091b114.mkv</property>
  <property name="audio_index">-1</property>
  <property name="video_index">0</property>
  <property name="mute_on_pause">0</property>
  <property name="mlt_service">avformat-novalidate</property>
  <property name="seekable">1</property>
  <property name="aspect_ratio">1</property>
  <property name="kdenlive:clipname">26.mp4</property>
  <property name="kdenlive:folderid">124</property>
  <property name="kdenlive:id">161</property>
  <property name="kdenlive:file_size">174499</property>
  <property name="kdenlive:file_hash">8c0e2735023ce37616bc9f653091b114</property>
  <property name="kdenlive:proxy">/home/xiaoxiae/.cache/kdenlive/proxy/8c0e2735023ce37616bc9f653091b114.mkv</property>
  <property name="kdenlive:originalurl">video/Introduction/26.mp4</property>
  <property name="global_feed">1</property>
  <property name="meta.media.nb_streams">1</property>
  <property name="meta.media.0.stream.type">video</property>
  <property name="meta.media.0.stream.frame_rate">60</property>
  <property name="meta.media.0.stream.sample_aspect_ratio">0</property>
  <property name="meta.media.0.codec.width">640</property>
  <property name="meta.media.0.codec.height">360</property>
  <property name="meta.media.0.codec.rotate">0</property>
  <property name="meta.media.0.codec.frame_rate">60</property>
  <property name="meta.media.0.codec.pix_fmt">yuv420p</property>
  <property name="meta.media.0.codec.sample_aspect_ratio">0</property>
  <property name="meta.media.0.codec.colorspace">601</property>
  <property name="meta.media.0.codec.name">h264</property>
  <property name="meta.media.0.codec.long_name">H.264 / AVC / MPEG-4 AVC / MPEG-4 part 10</property>
  <property name="meta.media.0.codec.bit_rate">0</property>
  <property name="meta.attr.0.stream.HANDLER_NAME.markup">VideoHandler</property>
  <property name="meta.attr.0.stream.VENDOR_ID.markup">[0][0][0][0]</property>
  <property name="meta.attr.0.stream.ENCODER.markup">Lavc58.134.100 libx264</property>
  <property name="meta.attr.0.stream.DURATION.markup">00:00:01.000000000</property>
  <property name="meta.attr.COMMENT.markup">Rendered with Manim Community v0.6.0</property>
  <property name="meta.attr.MAJOR_BRAND.markup">isom</property>
  <property name="meta.attr.MINOR_VERSION.markup">512</property>
  <property name="meta.attr.COMPATIBLE_BRANDS.markup">isomiso2avc1mp41</property>
  <property name="meta.attr.ENCODER.markup">Lavf58.76.100</property>
  <property name="meta.media.sample_aspect_num">1</property>
  <property name="meta.media.sample_aspect_den">1</property>
  <property name="meta.media.frame_rate_num">60</property>
  <property name="meta.media.frame_rate_den">1</property>
  <property name="meta.media.colorspace">601</property>
  <property name="meta.media.color_trc">2</property>
  <property name="meta.media.width">640</property>
  <property name="meta.media.height">360</property>
  <property name="meta.media.color_range">mpeg</property>
  <property name="meta.media.top_field_first">0</property>
  <property name="meta.media.progressive">1</property>
  <property name="kdenlive:original.mlt_type">producer</property>
  <property name="kdenlive:original.in">0</property>
  <property name="kdenlive:original.out">59</property>
  <property name="kdenlive:original.length">60</property>
  <property name="kdenlive:original.eof">pause</property>
  <property name="kdenlive:original.resource">video/Introduction/26.mp4</property>
  <property name="kdenlive:original.meta.media.nb_streams">1</property>
  <property name="kdenlive:original.meta.media.0.stream.type">video</property>
  <property name="kdenlive:original.meta.media.0.stream.frame_rate">60</property>
  <property name="kdenlive:original.meta.media.0.stream.sample_aspect_ratio">0</property>
  <property name="kdenlive:original.meta.media.0.codec.width">3840</property>
  <property name="kdenlive:original.meta.media.0.codec.height">2160</property>
  <property name="kdenlive:original.meta.media.0.codec.rotate">0</property>
  <property name="kdenlive:original.meta.media.0.codec.frame_rate">60</property>
  <property name="kdenlive:original.meta.media.0.codec.pix_fmt">yuv420p</property>
  <property name="kdenlive:original.meta.media.0.codec.sample_aspect_ratio">0</property>
  <property name="kdenlive:original.meta.media.0.codec.colorspace">709</property>
  <property name="kdenlive:original.meta.media.0.codec.name">h264</property>
  <property name="kdenlive:original.meta.media.0.codec.long_name">H.264 / AVC / MPEG-4 AVC / MPEG-4 part 10</property>
  <property name="kdenlive:original.meta.media.0.codec.bit_rate">1383328</property>
  <property name="kdenlive:original.meta.attr.0.stream.handler_name.markup">VideoHandler</property>
  <property name="kdenlive:original.meta.attr.0.stream.vendor_id.markup">[0][0][0][0]</property>
  <property name="kdenlive:original.meta.attr.major_brand.markup">isom</property>
  <property name="kdenlive:original.meta.attr.minor_version.markup">512</property>
  <property name="kdenlive:original.meta.attr.compatible_brands.markup">isomiso2avc1mp41</property>
  <property name="kdenlive:original.meta.attr.encoder.markup">Lavf58.76.100</property>
  <property name="kdenlive:original.meta.attr.comment.markup">Rendered with Manim Community v0.6.0</property>
  <property name="kdenlive:original.seekable">1</property>
  <property name="kdenlive:original.width">3840</property>
  <property name="kdenlive:original.height">2160</property>
  <property name="kdenlive:original.meta.media.sample_aspect_num">1</property>
  <property name="kdenlive:original.meta.media.sample_aspect_den">1</property>
  <property name="kdenlive:original.aspect_ratio">1</property>
  <property name="kdenlive:original.audio_index">-1</property>
  <property name="kdenlive:original.video_index">0</property>
  <property name="kdenlive:original.mute_on_pause">1</property>
  <property name="kdenlive:original.mlt_service">avformat</property>
  <property name="kdenlive:original.meta.media.frame_rate_num">60</property>
  <property name="kdenlive:original.meta.media.frame_rate_den">1</property>
  <property name="kdenlive:original.meta.media.colorspace">709</property>
  <property name="kdenlive:original.meta.media.color_trc">2</property>
  <property name="kdenlive:original.meta.media.width">3840</property>
  <property name="kdenlive:original.meta.media.height">2160</property>
  <property name="kdenlive:original.meta.media.color_range">mpeg</property>
  <property name="kdenlive:original.meta.media.top_field_first">0</property>
  <property name="kdenlive:original.meta.media.progressive">1</property>
  <property name="kdenlive:original.backup">1</property>
 </producer>
 <producer id="producer194" in="00:00:00.000" out="00:00:04.983">
  <property name="length">00:00:05.000</property>
  <property name="eof">pause</property>
  <property name="resource">/home/xiaoxiae/.cache/kdenlive/proxy/ed75e099a0b33155d66a56042918e4a7.png</property>
  <property name="ttl">25</property>
  <property name="aspect_ratio">1</property>
  <property name="progressive">1</property>
  <property name="seekable">1</property>
  <property name="meta.media.width">800</property>
  <property name="meta.media.height">450</property>
  <property name="mlt_service">qimage</property>
  <property name="kdenlive:clipname">26.png</property>
  <property name="kdenlive:duration">00:00:05.000</property>
  <property name="kdenlive:folderid">124</property>
  <property name="kdenlive:id">162</property>
  <property name="kdenlive:file_size">333998</property>
  <property name="kdenlive:file_hash">ed75e099a0b33155d66a56042918e4a7</property>
  <property name="kdenlive:proxy">/home/xiaoxiae/.cache/kdenlive/proxy/ed75e099a0b33155d66a56042918e4a7.png</property>
  <property name="kdenlive:originalurl">video/Introduction/26.png</property>
  <property name="global_feed">1</property>
 </producer>
 <producer id="producer199" in="00:00:00.000" out="00:00:00.983">
  <property name="length">60</property>
  <property name="eof">pause</property>
  <property name="resource">/home/xiaoxiae/.cache/kdenlive/proxy/9469ec3ab3de8d2354bf47f9222b10b6.mkv</property>
  <property name="audio_index">-1</property>
  <property name="video_index">0</property>
  <property name="mute_on_pause">0</property>
  <property name="mlt_service">avformat-novalidate</property>
  <property name="seekable">1</property>
  <property name="aspect_ratio">1</property>
  <property name="kdenlive:clipname">27.mp4</property>
  <property name="kdenlive:folderid">124</property>
  <property name="kdenlive:id">163</property>
  <property name="kdenlive:file_size">107384</property>
  <property name="kdenlive:file_hash">9469ec3ab3de8d2354bf47f9222b10b6</property>
  <property name="kdenlive:proxy">/home/xiaoxiae/.cache/kdenlive/proxy/9469ec3ab3de8d2354bf47f9222b10b6.mkv</property>
  <property name="kdenlive:originalurl">video/Introduction/27.mp4</property>
  <property name="global_feed">1</property>
  <property name="meta.media.nb_streams">1</property>
  <property name="meta.media.0.stream.type">video</property>
  <property name="meta.media.0.stream.frame_rate">60</property>
  <property name="meta.media.0.stream.sample_aspect_ratio">0</property>
  <property name="meta.media.0.codec.width">640</property>
  <property name="meta.media.0.codec.height">360</property>
  <property name="meta.media.0.codec.rotate">0</property>
  <property name="meta.media.0.codec.frame_rate">60</property>
  <property name="meta.media.0.codec.pix_fmt">yuv420p</property>
  <property name="meta.media.0.codec.sample_aspect_ratio">0</property>
  <property name="meta.media.0.codec.colorspace">601</property>
  <property name="meta.media.0.codec.name">h264</property>
  <property name="meta.media.0.codec.long_name">H.264 / AVC / MPEG-4 AVC / MPEG-4 part 10</property>
  <property name="meta.media.0.codec.bit_rate">0</property>
  <property name="meta.attr.0.stream.HANDLER_NAME.markup">VideoHandler</property>
  <property name="meta.attr.0.stream.VENDOR_ID.markup">[0][0][0][0]</property>
  <property name="meta.attr.0.stream.ENCODER.markup">Lavc58.134.100 libx264</property>
  <property name="meta.attr.0.stream.DURATION.markup">00:00:01.000000000</property>
  <property name="meta.attr.COMMENT.markup">Rendered with Manim Community v0.6.0</property>
  <property name="meta.attr.MAJOR_BRAND.markup">isom</property>
  <property name="meta.attr.MINOR_VERSION.markup">512</property>
  <property name="meta.attr.COMPATIBLE_BRANDS.markup">isomiso2avc1mp41</property>
  <property name="meta.attr.ENCODER.markup">Lavf58.76.100</property>
  <property name="meta.media.sample_aspect_num">1</property>
  <property name="meta.media.sample_aspect_den">1</property>
  <property name="meta.media.frame_rate_num">60</property>
  <property name="meta.media.frame_rate_den">1</property>
  <property name="meta.media.colorspace">601</property>
  <property name="meta.media.color_trc">2</property>
  <property name="meta.media.width">640</property>
  <property name="meta.media.height">360</property>
  <property name="meta.media.color_range">mpeg</property>
  <property name="meta.media.top_field_first">0</property>
  <property name="meta.media.progressive">1</property>
  <property name="kdenlive:original.mlt_type">producer</property>
  <property name="kdenlive:original.in">0</property>
  <property name="kdenlive:original.out">59</property>
  <property name="kdenlive:original.length">60</property>
  <property name="kdenlive:original.eof">pause</property>
  <property name="kdenlive:original.resource">video/Introduction/27.mp4</property>
  <property name="kdenlive:original.meta.media.nb_streams">1</property>
  <property name="kdenlive:original.meta.media.0.stream.type">video</property>
  <property name="kdenlive:original.meta.media.0.stream.frame_rate">60</property>
  <property name="kdenlive:original.meta.media.0.stream.sample_aspect_ratio">0</property>
  <property name="kdenlive:original.meta.media.0.codec.width">3840</property>
  <property name="kdenlive:original.meta.media.0.codec.height">2160</property>
  <property name="kdenlive:original.meta.media.0.codec.rotate">0</property>
  <property name="kdenlive:original.meta.media.0.codec.frame_rate">60</property>
  <property name="kdenlive:original.meta.media.0.codec.pix_fmt">yuv420p</property>
  <property name="kdenlive:original.meta.media.0.codec.sample_aspect_ratio">0</property>
  <property name="kdenlive:original.meta.media.0.codec.colorspace">709</property>
  <property name="kdenlive:original.meta.media.0.codec.name">h264</property>
  <property name="kdenlive:original.meta.media.0.codec.long_name">H.264 / AVC / MPEG-4 AVC / MPEG-4 part 10</property>
  <property name="kdenlive:original.meta.media.0.codec.bit_rate">846024</property>
  <property name="kdenlive:original.meta.attr.0.stream.handler_name.markup">VideoHandler</property>
  <property name="kdenlive:original.meta.attr.0.stream.vendor_id.markup">[0][0][0][0]</property>
  <property name="kdenlive:original.meta.attr.major_brand.markup">isom</property>
  <property name="kdenlive:original.meta.attr.minor_version.markup">512</property>
  <property name="kdenlive:original.meta.attr.compatible_brands.markup">isomiso2avc1mp41</property>
  <property name="kdenlive:original.meta.attr.encoder.markup">Lavf58.76.100</property>
  <property name="kdenlive:original.meta.attr.comment.markup">Rendered with Manim Community v0.6.0</property>
  <property name="kdenlive:original.seekable">1</property>
  <property name="kdenlive:original.width">3840</property>
  <property name="kdenlive:original.height">2160</property>
  <property name="kdenlive:original.meta.media.sample_aspect_num">1</property>
  <property name="kdenlive:original.meta.media.sample_aspect_den">1</property>
  <property name="kdenlive:original.aspect_ratio">1</property>
  <property name="kdenlive:original.audio_index">-1</property>
  <property name="kdenlive:original.video_index">0</property>
  <property name="kdenlive:original.mute_on_pause">1</property>
  <property name="kdenlive:original.mlt_service">avformat</property>
  <property name="kdenlive:original.meta.media.frame_rate_num">60</property>
  <property name="kdenlive:original.meta.media.frame_rate_den">1</property>
  <property name="kdenlive:original.meta.media.colorspace">709</property>
  <property name="kdenlive:original.meta.media.color_trc">2</property>
  <property name="kdenlive:original.meta.media.width">3840</property>
  <property name="kdenlive:original.meta.media.height">2160</property>
  <property name="kdenlive:original.meta.media.color_range">mpeg</property>
  <property name="kdenlive:original.meta.media.top_field_first">0</property>
  <property name="kdenlive:original.meta.media.progressive">1</property>
  <property name="kdenlive:original.backup">1</property>
 </producer>
 <producer id="producer200" in="00:00:00.000" out="00:00:04.983">
  <property name="length">00:00:05.000</property>
  <property name="eof">pause</property>
  <property name="resource">/home/xiaoxiae/.cache/kdenlive/proxy/912debd4773e3d61324ce1104152979d.png</property>
  <property name="ttl">25</property>
  <property name="aspect_ratio">1</property>
  <property name="progressive">1</property>
  <property name="seekable">1</property>
  <property name="meta.media.width">800</property>
  <property name="meta.media.height">450</property>
  <property name="mlt_service">qimage</property>
  <property name="kdenlive:clipname">27.png</property>
  <property name="kdenlive:duration">00:00:05.000</property>
  <property name="kdenlive:folderid">124</property>
  <property name="kdenlive:id">164</property>
  <property name="kdenlive:file_size">326130</property>
  <property name="kdenlive:file_hash">912debd4773e3d61324ce1104152979d</property>
  <property name="kdenlive:proxy">/home/xiaoxiae/.cache/kdenlive/proxy/912debd4773e3d61324ce1104152979d.png</property>
  <property name="kdenlive:originalurl">video/Introduction/27.png</property>
  <property name="global_feed">1</property>
 </producer>
 <producer id="producer201" in="00:00:00.000" out="00:00:00.983">
  <property name="length">60</property>
  <property name="eof">pause</property>
  <property name="resource">/home/xiaoxiae/.cache/kdenlive/proxy/ad163be5222ecc587cdddbf5863ccb8f.mkv</property>
  <property name="audio_index">-1</property>
  <property name="video_index">0</property>
  <property name="mute_on_pause">0</property>
  <property name="mlt_service">avformat-novalidate</property>
  <property name="seekable">1</property>
  <property name="aspect_ratio">1</property>
  <property name="kdenlive:clipname">28.mp4</property>
  <property name="kdenlive:folderid">124</property>
  <property name="kdenlive:id">165</property>
  <property name="kdenlive:file_size">127437</property>
  <property name="kdenlive:file_hash">ad163be5222ecc587cdddbf5863ccb8f</property>
  <property name="kdenlive:proxy">/home/xiaoxiae/.cache/kdenlive/proxy/ad163be5222ecc587cdddbf5863ccb8f.mkv</property>
  <property name="kdenlive:originalurl">video/Introduction/28.mp4</property>
  <property name="global_feed">1</property>
  <property name="meta.media.nb_streams">1</property>
  <property name="meta.media.0.stream.type">video</property>
  <property name="meta.media.0.stream.frame_rate">60</property>
  <property name="meta.media.0.stream.sample_aspect_ratio">0</property>
  <property name="meta.media.0.codec.width">640</property>
  <property name="meta.media.0.codec.height">360</property>
  <property name="meta.media.0.codec.rotate">0</property>
  <property name="meta.media.0.codec.frame_rate">60</property>
  <property name="meta.media.0.codec.pix_fmt">yuv420p</property>
  <property name="meta.media.0.codec.sample_aspect_ratio">0</property>
  <property name="meta.media.0.codec.colorspace">601</property>
  <property name="meta.media.0.codec.name">h264</property>
  <property name="meta.media.0.codec.long_name">H.264 / AVC / MPEG-4 AVC / MPEG-4 part 10</property>
  <property name="meta.media.0.codec.bit_rate">0</property>
  <property name="meta.attr.0.stream.HANDLER_NAME.markup">VideoHandler</property>
  <property name="meta.attr.0.stream.VENDOR_ID.markup">[0][0][0][0]</property>
  <property name="meta.attr.0.stream.ENCODER.markup">Lavc58.134.100 libx264</property>
  <property name="meta.attr.0.stream.DURATION.markup">00:00:01.000000000</property>
  <property name="meta.attr.COMMENT.markup">Rendered with Manim Community v0.6.0</property>
  <property name="meta.attr.MAJOR_BRAND.markup">isom</property>
  <property name="meta.attr.MINOR_VERSION.markup">512</property>
  <property name="meta.attr.COMPATIBLE_BRANDS.markup">isomiso2avc1mp41</property>
  <property name="meta.attr.ENCODER.markup">Lavf58.76.100</property>
  <property name="meta.media.sample_aspect_num">1</property>
  <property name="meta.media.sample_aspect_den">1</property>
  <property name="meta.media.frame_rate_num">60</property>
  <property name="meta.media.frame_rate_den">1</property>
  <property name="meta.media.colorspace">601</property>
  <property name="meta.media.color_trc">2</property>
  <property name="meta.media.width">640</property>
  <property name="meta.media.height">360</property>
  <property name="meta.media.color_range">mpeg</property>
  <property name="meta.media.top_field_first">0</property>
  <property name="meta.media.progressive">1</property>
  <property name="kdenlive:original.mlt_type">producer</property>
  <property name="kdenlive:original.in">0</property>
  <property name="kdenlive:original.out">59</property>
  <property name="kdenlive:original.length">60</property>
  <property name="kdenlive:original.eof">pause</property>
  <property name="kdenlive:original.resource">video/Introduction/28.mp4</property>
  <property name="kdenlive:original.meta.media.nb_streams">1</property>
  <property name="kdenlive:original.meta.media.0.stream.type">video</property>
  <property name="kdenlive:original.meta.media.0.stream.frame_rate">60</property>
  <property name="kdenlive:original.meta.media.0.stream.sample_aspect_ratio">0</property>
  <property name="kdenlive:original.meta.media.0.codec.width">3840</property>
  <property name="kdenlive:original.meta.media.0.codec.height">2160</property>
  <property name="kdenlive:original.meta.media.0.codec.rotate">0</property>
  <property name="kdenlive:original.meta.media.0.codec.frame_rate">60</property>
  <property name="kdenlive:original.meta.media.0.codec.pix_fmt">yuv420p</property>
  <property name="kdenlive:original.meta.media.0.codec.sample_aspect_ratio">0</property>
  <property name="kdenlive:original.meta.media.0.codec.colorspace">709</property>
  <property name="kdenlive:original.meta.media.0.codec.name">h264</property>
  <property name="kdenlive:original.meta.media.0.codec.long_name">H.264 / AVC / MPEG-4 AVC / MPEG-4 part 10</property>
  <property name="kdenlive:original.meta.media.0.codec.bit_rate">1006384</property>
  <property name="kdenlive:original.meta.attr.0.stream.handler_name.markup">VideoHandler</property>
  <property name="kdenlive:original.meta.attr.0.stream.vendor_id.markup">[0][0][0][0]</property>
  <property name="kdenlive:original.meta.attr.major_brand.markup">isom</property>
  <property name="kdenlive:original.meta.attr.minor_version.markup">512</property>
  <property name="kdenlive:original.meta.attr.compatible_brands.markup">isomiso2avc1mp41</property>
  <property name="kdenlive:original.meta.attr.encoder.markup">Lavf58.76.100</property>
  <property name="kdenlive:original.meta.attr.comment.markup">Rendered with Manim Community v0.6.0</property>
  <property name="kdenlive:original.seekable">1</property>
  <property name="kdenlive:original.width">3840</property>
  <property name="kdenlive:original.height">2160</property>
  <property name="kdenlive:original.meta.media.sample_aspect_num">1</property>
  <property name="kdenlive:original.meta.media.sample_aspect_den">1</property>
  <property name="kdenlive:original.aspect_ratio">1</property>
  <property name="kdenlive:original.audio_index">-1</property>
  <property name="kdenlive:original.video_index">0</property>
  <property name="kdenlive:original.mute_on_pause">1</property>
  <property name="kdenlive:original.mlt_service">avformat</property>
  <property name="kdenlive:original.meta.media.frame_rate_num">60</property>
  <property name="kdenlive:original.meta.media.frame_rate_den">1</property>
  <property name="kdenlive:original.meta.media.colorspace">709</property>
  <property name="kdenlive:original.meta.media.color_trc">2</property>
  <property name="kdenlive:original.meta.media.width">3840</property>
  <property name="kdenlive:original.meta.media.height">2160</property>
  <property name="kdenlive:original.meta.media.color_range">mpeg</property>
  <property name="kdenlive:original.meta.media.top_field_first">0</property>
  <property name="kdenlive:original.meta.media.progressive">1</property>
  <property name="kdenlive:original.backup">1</property>
 </producer>
 <producer id="producer202" in="00:00:00.000" out="00:00:04.983">
  <property name="length">00:00:05.000</property>
  <property name="eof">pause</property>
  <property name="resource">/home/xiaoxiae/.cache/kdenlive/proxy/74d6345e2516574f6cbd779f34690c2a.png</property>
  <property name="ttl">25</property>
  <property name="aspect_ratio">1</property>
  <property name="progressive">1</property>
  <property name="seekable">1</property>
  <property name="meta.media.width">800</property>
  <property name="meta.media.height">450</property>
  <property name="mlt_service">qimage</property>
  <property name="kdenlive:clipname">28.png</property>
  <property name="kdenlive:duration">00:00:05.000</property>
  <property name="kdenlive:folderid">124</property>
  <property name="kdenlive:id">166</property>
  <property name="kdenlive:file_size">339362</property>
  <property name="kdenlive:file_hash">74d6345e2516574f6cbd779f34690c2a</property>
  <property name="kdenlive:proxy">/home/xiaoxiae/.cache/kdenlive/proxy/74d6345e2516574f6cbd779f34690c2a.png</property>
  <property name="kdenlive:originalurl">video/Introduction/28.png</property>
  <property name="global_feed">1</property>
 </producer>
 <producer id="producer204" in="00:00:00.000" out="00:00:00.983">
  <property name="length">60</property>
  <property name="eof">pause</property>
  <property name="resource">/home/xiaoxiae/.cache/kdenlive/proxy/76085466a2cb9553a0518dfb8c4d3713.mkv</property>
  <property name="audio_index">-1</property>
  <property name="video_index">0</property>
  <property name="mute_on_pause">0</property>
  <property name="mlt_service">avformat-novalidate</property>
  <property name="seekable">1</property>
  <property name="aspect_ratio">1</property>
  <property name="kdenlive:clipname">29.mp4</property>
  <property name="kdenlive:folderid">124</property>
  <property name="kdenlive:id">167</property>
  <property name="kdenlive:file_size">162421</property>
  <property name="kdenlive:file_hash">76085466a2cb9553a0518dfb8c4d3713</property>
  <property name="kdenlive:proxy">/home/xiaoxiae/.cache/kdenlive/proxy/76085466a2cb9553a0518dfb8c4d3713.mkv</property>
  <property name="kdenlive:originalurl">video/Introduction/29.mp4</property>
  <property name="global_feed">1</property>
  <property name="meta.media.nb_streams">1</property>
  <property name="meta.media.0.stream.type">video</property>
  <property name="meta.media.0.stream.frame_rate">60</property>
  <property name="meta.media.0.stream.sample_aspect_ratio">0</property>
  <property name="meta.media.0.codec.width">640</property>
  <property name="meta.media.0.codec.height">360</property>
  <property name="meta.media.0.codec.rotate">0</property>
  <property name="meta.media.0.codec.frame_rate">60</property>
  <property name="meta.media.0.codec.pix_fmt">yuv420p</property>
  <property name="meta.media.0.codec.sample_aspect_ratio">0</property>
  <property name="meta.media.0.codec.colorspace">601</property>
  <property name="meta.media.0.codec.name">h264</property>
  <property name="meta.media.0.codec.long_name">H.264 / AVC / MPEG-4 AVC / MPEG-4 part 10</property>
  <property name="meta.media.0.codec.bit_rate">0</property>
  <property name="meta.attr.0.stream.HANDLER_NAME.markup">VideoHandler</property>
  <property name="meta.attr.0.stream.VENDOR_ID.markup">[0][0][0][0]</property>
  <property name="meta.attr.0.stream.ENCODER.markup">Lavc58.134.100 libx264</property>
  <property name="meta.attr.0.stream.DURATION.markup">00:00:01.000000000</property>
  <property name="meta.attr.COMMENT.markup">Rendered with Manim Community v0.6.0</property>
  <property name="meta.attr.MAJOR_BRAND.markup">isom</property>
  <property name="meta.attr.MINOR_VERSION.markup">512</property>
  <property name="meta.attr.COMPATIBLE_BRANDS.markup">isomiso2avc1mp41</property>
  <property name="meta.attr.ENCODER.markup">Lavf58.76.100</property>
  <property name="meta.media.sample_aspect_num">1</property>
  <property name="meta.media.sample_aspect_den">1</property>
  <property name="meta.media.frame_rate_num">60</property>
  <property name="meta.media.frame_rate_den">1</property>
  <property name="meta.media.colorspace">601</property>
  <property name="meta.media.color_trc">2</property>
  <property name="meta.media.width">640</property>
  <property name="meta.media.height">360</property>
  <property name="meta.media.color_range">mpeg</property>
  <property name="meta.media.top_field_first">0</property>
  <property name="meta.media.progressive">1</property>
  <property name="kdenlive:original.mlt_type">producer</property>
  <property name="kdenlive:original.in">0</property>
  <property name="kdenlive:original.out">59</property>
  <property name="kdenlive:original.length">60</property>
  <property name="kdenlive:original.eof">pause</property>
  <property name="kdenlive:original.resource">video/Introduction/29.mp4</property>
  <property name="kdenlive:original.meta.media.nb_streams">1</property>
  <property name="kdenlive:original.meta.media.0.stream.type">video</property>
  <property name="kdenlive:original.meta.media.0.stream.frame_rate">60</property>
  <property name="kdenlive:original.meta.media.0.stream.sample_aspect_ratio">0</property>
  <property name="kdenlive:original.meta.media.0.codec.width">3840</property>
  <property name="kdenlive:original.meta.media.0.codec.height">2160</property>
  <property name="kdenlive:original.meta.media.0.codec.rotate">0</property>
  <property name="kdenlive:original.meta.media.0.codec.frame_rate">60</property>
  <property name="kdenlive:original.meta.media.0.codec.pix_fmt">yuv420p</property>
  <property name="kdenlive:original.meta.media.0.codec.sample_aspect_ratio">0</property>
  <property name="kdenlive:original.meta.media.0.codec.colorspace">709</property>
  <property name="kdenlive:original.meta.media.0.codec.name">h264</property>
  <property name="kdenlive:original.meta.media.0.codec.long_name">H.264 / AVC / MPEG-4 AVC / MPEG-4 part 10</property>
  <property name="kdenlive:original.meta.media.0.codec.bit_rate">1286640</property>
  <property name="kdenlive:original.meta.attr.0.stream.handler_name.markup">VideoHandler</property>
  <property name="kdenlive:original.meta.attr.0.stream.vendor_id.markup">[0][0][0][0]</property>
  <property name="kdenlive:original.meta.attr.major_brand.markup">isom</property>
  <property name="kdenlive:original.meta.attr.minor_version.markup">512</property>
  <property name="kdenlive:original.meta.attr.compatible_brands.markup">isomiso2avc1mp41</property>
  <property name="kdenlive:original.meta.attr.encoder.markup">Lavf58.76.100</property>
  <property name="kdenlive:original.meta.attr.comment.markup">Rendered with Manim Community v0.6.0</property>
  <property name="kdenlive:original.seekable">1</property>
  <property name="kdenlive:original.width">3840</property>
  <property name="kdenlive:original.height">2160</property>
  <property name="kdenlive:original.meta.media.sample_aspect_num">1</property>
  <property name="kdenlive:original.meta.media.sample_aspect_den">1</property>
  <property name="kdenlive:original.aspect_ratio">1</property>
  <property name="kdenlive:original.audio_index">-1</property>
  <property name="kdenlive:original.video_index">0</property>
  <property name="kdenlive:original.mute_on_pause">1</property>
  <property name="kdenlive:original.mlt_service">avformat</property>
  <property name="kdenlive:original.meta.media.frame_rate_num">60</property>
  <property name="kdenlive:original.meta.media.frame_rate_den">1</property>
  <property name="kdenlive:original.meta.media.colorspace">709</property>
  <property name="kdenlive:original.meta.media.color_trc">2</property>
  <property name="kdenlive:original.meta.media.width">3840</property>
  <property name="kdenlive:original.meta.media.height">2160</property>
  <property name="kdenlive:original.meta.media.color_range">mpeg</property>
  <property name="kdenlive:original.meta.media.top_field_first">0</property>
  <property name="kdenlive:original.meta.media.progressive">1</property>
  <property name="kdenlive:original.backup">1</property>
 </producer>
 <producer id="producer205" in="00:00:00.000" out="00:00:04.983">
  <property name="length">00:00:05.000</property>
  <property name="eof">pause</property>
  <property name="resource">/home/xiaoxiae/.cache/kdenlive/proxy/0ec4576c546ddf8705997e2fdca306a8.png</property>
  <property name="ttl">25</property>
  <property name="aspect_ratio">1</property>
  <property name="progressive">1</property>
  <property name="seekable">1</property>
  <property name="meta.media.width">800</property>
  <property name="meta.media.height">450</property>
  <property name="mlt_service">qimage</property>
  <property name="kdenlive:clipname">29.png</property>
  <property name="kdenlive:duration">00:00:05.000</property>
  <property name="kdenlive:folderid">124</property>
  <property name="kdenlive:id">168</property>
  <property name="kdenlive:file_size">308466</property>
  <property name="kdenlive:file_hash">0ec4576c546ddf8705997e2fdca306a8</property>
  <property name="kdenlive:proxy">/home/xiaoxiae/.cache/kdenlive/proxy/0ec4576c546ddf8705997e2fdca306a8.png</property>
  <property name="kdenlive:originalurl">video/Introduction/29.png</property>
  <property name="global_feed">1</property>
 </producer>
 <producer id="producer206" in="00:00:00.000" out="00:00:00.983">
  <property name="length">60</property>
  <property name="eof">pause</property>
  <property name="resource">/home/xiaoxiae/.cache/kdenlive/proxy/9c8d12ccf3104241de1ac985a9bf62b1.mkv</property>
  <property name="audio_index">-1</property>
  <property name="video_index">0</property>
  <property name="mute_on_pause">0</property>
  <property name="mlt_service">avformat-novalidate</property>
  <property name="seekable">1</property>
  <property name="aspect_ratio">1</property>
  <property name="kdenlive:clipname">3.mp4</property>
  <property name="kdenlive:folderid">124</property>
  <property name="kdenlive:id">169</property>
  <property name="kdenlive:file_size">164947</property>
  <property name="kdenlive:file_hash">9c8d12ccf3104241de1ac985a9bf62b1</property>
  <property name="kdenlive:proxy">/home/xiaoxiae/.cache/kdenlive/proxy/9c8d12ccf3104241de1ac985a9bf62b1.mkv</property>
  <property name="kdenlive:originalurl">video/Introduction/3.mp4</property>
  <property name="global_feed">1</property>
  <property name="meta.media.nb_streams">1</property>
  <property name="meta.media.0.stream.type">video</property>
  <property name="meta.media.0.stream.frame_rate">60</property>
  <property name="meta.media.0.stream.sample_aspect_ratio">0</property>
  <property name="meta.media.0.codec.width">640</property>
  <property name="meta.media.0.codec.height">360</property>
  <property name="meta.media.0.codec.rotate">0</property>
  <property name="meta.media.0.codec.frame_rate">60</property>
  <property name="meta.media.0.codec.pix_fmt">yuv420p</property>
  <property name="meta.media.0.codec.sample_aspect_ratio">0</property>
  <property name="meta.media.0.codec.colorspace">601</property>
  <property name="meta.media.0.codec.name">h264</property>
  <property name="meta.media.0.codec.long_name">H.264 / AVC / MPEG-4 AVC / MPEG-4 part 10</property>
  <property name="meta.media.0.codec.bit_rate">0</property>
  <property name="meta.attr.0.stream.HANDLER_NAME.markup">VideoHandler</property>
  <property name="meta.attr.0.stream.VENDOR_ID.markup">[0][0][0][0]</property>
  <property name="meta.attr.0.stream.ENCODER.markup">Lavc58.134.100 libx264</property>
  <property name="meta.attr.0.stream.DURATION.markup">00:00:01.000000000</property>
  <property name="meta.attr.COMMENT.markup">Rendered with Manim Community v0.6.0</property>
  <property name="meta.attr.MAJOR_BRAND.markup">isom</property>
  <property name="meta.attr.MINOR_VERSION.markup">512</property>
  <property name="meta.attr.COMPATIBLE_BRANDS.markup">isomiso2avc1mp41</property>
  <property name="meta.attr.ENCODER.markup">Lavf58.76.100</property>
  <property name="meta.media.sample_aspect_num">1</property>
  <property name="meta.media.sample_aspect_den">1</property>
  <property name="meta.media.frame_rate_num">60</property>
  <property name="meta.media.frame_rate_den">1</property>
  <property name="meta.media.colorspace">601</property>
  <property name="meta.media.color_trc">2</property>
  <property name="meta.media.width">640</property>
  <property name="meta.media.height">360</property>
  <property name="meta.media.color_range">mpeg</property>
  <property name="meta.media.top_field_first">0</property>
  <property name="meta.media.progressive">1</property>
  <property name="kdenlive:original.mlt_type">producer</property>
  <property name="kdenlive:original.in">0</property>
  <property name="kdenlive:original.out">59</property>
  <property name="kdenlive:original.length">60</property>
  <property name="kdenlive:original.eof">pause</property>
  <property name="kdenlive:original.resource">video/Introduction/3.mp4</property>
  <property name="kdenlive:original.meta.media.nb_streams">1</property>
  <property name="kdenlive:original.meta.media.0.stream.type">video</property>
  <property name="kdenlive:original.meta.media.0.stream.frame_rate">60</property>
  <property name="kdenlive:original.meta.media.0.stream.sample_aspect_ratio">0</property>
  <property name="kdenlive:original.meta.media.0.codec.width">3840</property>
  <property name="kdenlive:original.meta.media.0.codec.height">2160</property>
  <property name="kdenlive:original.meta.media.0.codec.rotate">0</property>
  <property name="kdenlive:original.meta.media.0.codec.frame_rate">60</property>
  <property name="kdenlive:original.meta.media.0.codec.pix_fmt">yuv420p</property>
  <property name="kdenlive:original.meta.media.0.codec.sample_aspect_ratio">0</property>
  <property name="kdenlive:original.meta.media.0.codec.colorspace">709</property>
  <property name="kdenlive:original.meta.media.0.codec.name">h264</property>
  <property name="kdenlive:original.meta.media.0.codec.long_name">H.264 / AVC / MPEG-4 AVC / MPEG-4 part 10</property>
  <property name="kdenlive:original.meta.media.0.codec.bit_rate">1306592</property>
  <property name="kdenlive:original.meta.attr.0.stream.handler_name.markup">VideoHandler</property>
  <property name="kdenlive:original.meta.attr.0.stream.vendor_id.markup">[0][0][0][0]</property>
  <property name="kdenlive:original.meta.attr.major_brand.markup">isom</property>
  <property name="kdenlive:original.meta.attr.minor_version.markup">512</property>
  <property name="kdenlive:original.meta.attr.compatible_brands.markup">isomiso2avc1mp41</property>
  <property name="kdenlive:original.meta.attr.encoder.markup">Lavf58.76.100</property>
  <property name="kdenlive:original.meta.attr.comment.markup">Rendered with Manim Community v0.6.0</property>
  <property name="kdenlive:original.seekable">1</property>
  <property name="kdenlive:original.width">3840</property>
  <property name="kdenlive:original.height">2160</property>
  <property name="kdenlive:original.meta.media.sample_aspect_num">1</property>
  <property name="kdenlive:original.meta.media.sample_aspect_den">1</property>
  <property name="kdenlive:original.aspect_ratio">1</property>
  <property name="kdenlive:original.audio_index">-1</property>
  <property name="kdenlive:original.video_index">0</property>
  <property name="kdenlive:original.mute_on_pause">1</property>
  <property name="kdenlive:original.mlt_service">avformat</property>
  <property name="kdenlive:original.meta.media.frame_rate_num">60</property>
  <property name="kdenlive:original.meta.media.frame_rate_den">1</property>
  <property name="kdenlive:original.meta.media.colorspace">709</property>
  <property name="kdenlive:original.meta.media.color_trc">2</property>
  <property name="kdenlive:original.meta.media.width">3840</property>
  <property name="kdenlive:original.meta.media.height">2160</property>
  <property name="kdenlive:original.meta.media.color_range">mpeg</property>
  <property name="kdenlive:original.meta.media.top_field_first">0</property>
  <property name="kdenlive:original.meta.media.progressive">1</property>
  <property name="kdenlive:original.backup">1</property>
 </producer>
 <producer id="producer203" in="00:00:00.000" out="00:00:04.983">
  <property name="length">00:00:05.000</property>
  <property name="eof">pause</property>
  <property name="resource">/home/xiaoxiae/.cache/kdenlive/proxy/6b665121ca7b54a5f5307b69451fd23c.png</property>
  <property name="ttl">25</property>
  <property name="aspect_ratio">1</property>
  <property name="progressive">1</property>
  <property name="seekable">1</property>
  <property name="meta.media.width">800</property>
  <property name="meta.media.height">450</property>
  <property name="mlt_service">qimage</property>
  <property name="kdenlive:clipname">3.png</property>
  <property name="kdenlive:duration">00:00:05.000</property>
  <property name="kdenlive:folderid">124</property>
  <property name="kdenlive:id">170</property>
  <property name="kdenlive:file_size">24337</property>
  <property name="kdenlive:file_hash">6b665121ca7b54a5f5307b69451fd23c</property>
  <property name="kdenlive:proxy">/home/xiaoxiae/.cache/kdenlive/proxy/6b665121ca7b54a5f5307b69451fd23c.png</property>
  <property name="kdenlive:originalurl">video/Introduction/3.png</property>
  <property name="global_feed">1</property>
 </producer>
 <producer id="producer207" in="00:00:00.000" out="00:00:00.983">
  <property name="length">60</property>
  <property name="eof">pause</property>
  <property name="resource">/home/xiaoxiae/.cache/kdenlive/proxy/c705b01ed97840b4bbc0944464e20121.mkv</property>
  <property name="audio_index">-1</property>
  <property name="video_index">0</property>
  <property name="mute_on_pause">0</property>
  <property name="mlt_service">avformat-novalidate</property>
  <property name="seekable">1</property>
  <property name="aspect_ratio">1</property>
  <property name="kdenlive:clipname">30.mp4</property>
  <property name="kdenlive:folderid">124</property>
  <property name="kdenlive:id">171</property>
  <property name="kdenlive:file_size">109294</property>
  <property name="kdenlive:file_hash">c705b01ed97840b4bbc0944464e20121</property>
  <property name="kdenlive:proxy">/home/xiaoxiae/.cache/kdenlive/proxy/c705b01ed97840b4bbc0944464e20121.mkv</property>
  <property name="kdenlive:originalurl">video/Introduction/30.mp4</property>
  <property name="global_feed">1</property>
  <property name="meta.media.nb_streams">1</property>
  <property name="meta.media.0.stream.type">video</property>
  <property name="meta.media.0.stream.frame_rate">60</property>
  <property name="meta.media.0.stream.sample_aspect_ratio">0</property>
  <property name="meta.media.0.codec.width">640</property>
  <property name="meta.media.0.codec.height">360</property>
  <property name="meta.media.0.codec.rotate">0</property>
  <property name="meta.media.0.codec.frame_rate">60</property>
  <property name="meta.media.0.codec.pix_fmt">yuv420p</property>
  <property name="meta.media.0.codec.sample_aspect_ratio">0</property>
  <property name="meta.media.0.codec.colorspace">601</property>
  <property name="meta.media.0.codec.name">h264</property>
  <property name="meta.media.0.codec.long_name">H.264 / AVC / MPEG-4 AVC / MPEG-4 part 10</property>
  <property name="meta.media.0.codec.bit_rate">0</property>
  <property name="meta.attr.0.stream.HANDLER_NAME.markup">VideoHandler</property>
  <property name="meta.attr.0.stream.VENDOR_ID.markup">[0][0][0][0]</property>
  <property name="meta.attr.0.stream.ENCODER.markup">Lavc58.134.100 libx264</property>
  <property name="meta.attr.0.stream.DURATION.markup">00:00:01.000000000</property>
  <property name="meta.attr.COMMENT.markup">Rendered with Manim Community v0.6.0</property>
  <property name="meta.attr.MAJOR_BRAND.markup">isom</property>
  <property name="meta.attr.MINOR_VERSION.markup">512</property>
  <property name="meta.attr.COMPATIBLE_BRANDS.markup">isomiso2avc1mp41</property>
  <property name="meta.attr.ENCODER.markup">Lavf58.76.100</property>
  <property name="meta.media.sample_aspect_num">1</property>
  <property name="meta.media.sample_aspect_den">1</property>
  <property name="meta.media.frame_rate_num">60</property>
  <property name="meta.media.frame_rate_den">1</property>
  <property name="meta.media.colorspace">601</property>
  <property name="meta.media.color_trc">2</property>
  <property name="meta.media.width">640</property>
  <property name="meta.media.height">360</property>
  <property name="meta.media.color_range">mpeg</property>
  <property name="meta.media.top_field_first">0</property>
  <property name="meta.media.progressive">1</property>
  <property name="kdenlive:original.mlt_type">producer</property>
  <property name="kdenlive:original.in">0</property>
  <property name="kdenlive:original.out">59</property>
  <property name="kdenlive:original.length">60</property>
  <property name="kdenlive:original.eof">pause</property>
  <property name="kdenlive:original.resource">video/Introduction/30.mp4</property>
  <property name="kdenlive:original.meta.media.nb_streams">1</property>
  <property name="kdenlive:original.meta.media.0.stream.type">video</property>
  <property name="kdenlive:original.meta.media.0.stream.frame_rate">60</property>
  <property name="kdenlive:original.meta.media.0.stream.sample_aspect_ratio">0</property>
  <property name="kdenlive:original.meta.media.0.codec.width">3840</property>
  <property name="kdenlive:original.meta.media.0.codec.height">2160</property>
  <property name="kdenlive:original.meta.media.0.codec.rotate">0</property>
  <property name="kdenlive:original.meta.media.0.codec.frame_rate">60</property>
  <property name="kdenlive:original.meta.media.0.codec.pix_fmt">yuv420p</property>
  <property name="kdenlive:original.meta.media.0.codec.sample_aspect_ratio">0</property>
  <property name="kdenlive:original.meta.media.0.codec.colorspace">709</property>
  <property name="kdenlive:original.meta.media.0.codec.name">h264</property>
  <property name="kdenlive:original.meta.media.0.codec.long_name">H.264 / AVC / MPEG-4 AVC / MPEG-4 part 10</property>
  <property name="kdenlive:original.meta.media.0.codec.bit_rate">861304</property>
  <property name="kdenlive:original.meta.attr.0.stream.handler_name.markup">VideoHandler</property>
  <property name="kdenlive:original.meta.attr.0.stream.vendor_id.markup">[0][0][0][0]</property>
  <property name="kdenlive:original.meta.attr.major_brand.markup">isom</property>
  <property name="kdenlive:original.meta.attr.minor_version.markup">512</property>
  <property name="kdenlive:original.meta.attr.compatible_brands.markup">isomiso2avc1mp41</property>
  <property name="kdenlive:original.meta.attr.encoder.markup">Lavf58.76.100</property>
  <property name="kdenlive:original.meta.attr.comment.markup">Rendered with Manim Community v0.6.0</property>
  <property name="kdenlive:original.seekable">1</property>
  <property name="kdenlive:original.width">3840</property>
  <property name="kdenlive:original.height">2160</property>
  <property name="kdenlive:original.meta.media.sample_aspect_num">1</property>
  <property name="kdenlive:original.meta.media.sample_aspect_den">1</property>
  <property name="kdenlive:original.aspect_ratio">1</property>
  <property name="kdenlive:original.audio_index">-1</property>
  <property name="kdenlive:original.video_index">0</property>
  <property name="kdenlive:original.mute_on_pause">1</property>
  <property name="kdenlive:original.mlt_service">avformat</property>
  <property name="kdenlive:original.meta.media.frame_rate_num">60</property>
  <property name="kdenlive:original.meta.media.frame_rate_den">1</property>
  <property name="kdenlive:original.meta.media.colorspace">709</property>
  <property name="kdenlive:original.meta.media.color_trc">2</property>
  <property name="kdenlive:original.meta.media.width">3840</property>
  <property name="kdenlive:original.meta.media.height">2160</property>
  <property name="kdenlive:original.meta.media.color_range">mpeg</property>
  <property name="kdenlive:original.meta.media.top_field_first">0</property>
  <property name="kdenlive:original.meta.media.progressive">1</property>
  <property name="kdenlive:original.backup">1</property>
 </producer>
 <producer id="producer208" in="00:00:00.000" out="00:00:04.983">
  <property name="length">00:00:05.000</property>
  <property name="eof">pause</property>
  <property name="resource">/home/xiaoxiae/.cache/kdenlive/proxy/a2aa42c21f1e89f3f542946b9e65422f.png</property>
  <property name="ttl">25</property>
  <property name="aspect_ratio">1</property>
  <property name="progressive">1</property>
  <property name="seekable">1</property>
  <property name="meta.media.width">800</property>
  <property name="meta.media.height">450</property>
  <property name="mlt_service">qimage</property>
  <property name="kdenlive:clipname">30.png</property>
  <property name="kdenlive:duration">00:00:05.000</property>
  <property name="kdenlive:folderid">124</property>
  <property name="kdenlive:id">172</property>
  <property name="kdenlive:file_size">337924</property>
  <property name="kdenlive:file_hash">a2aa42c21f1e89f3f542946b9e65422f</property>
  <property name="kdenlive:proxy">/home/xiaoxiae/.cache/kdenlive/proxy/a2aa42c21f1e89f3f542946b9e65422f.png</property>
  <property name="kdenlive:originalurl">video/Introduction/30.png</property>
  <property name="global_feed">1</property>
 </producer>
 <producer id="producer209" in="00:00:00.000" out="00:00:00.983">
  <property name="length">60</property>
  <property name="eof">pause</property>
  <property name="resource">/home/xiaoxiae/.cache/kdenlive/proxy/3ae1a198deb4919965c45c9ba5b7d717.mkv</property>
  <property name="audio_index">-1</property>
  <property name="video_index">0</property>
  <property name="mute_on_pause">0</property>
  <property name="mlt_service">avformat-novalidate</property>
  <property name="seekable">1</property>
  <property name="aspect_ratio">1</property>
  <property name="kdenlive:clipname">31.mp4</property>
  <property name="kdenlive:folderid">124</property>
  <property name="kdenlive:id">173</property>
  <property name="kdenlive:file_size">143468</property>
  <property name="kdenlive:file_hash">3ae1a198deb4919965c45c9ba5b7d717</property>
  <property name="kdenlive:proxy">/home/xiaoxiae/.cache/kdenlive/proxy/3ae1a198deb4919965c45c9ba5b7d717.mkv</property>
  <property name="kdenlive:originalurl">video/Introduction/31.mp4</property>
  <property name="global_feed">1</property>
  <property name="meta.media.nb_streams">1</property>
  <property name="meta.media.0.stream.type">video</property>
  <property name="meta.media.0.stream.frame_rate">60</property>
  <property name="meta.media.0.stream.sample_aspect_ratio">0</property>
  <property name="meta.media.0.codec.width">640</property>
  <property name="meta.media.0.codec.height">360</property>
  <property name="meta.media.0.codec.rotate">0</property>
  <property name="meta.media.0.codec.frame_rate">60</property>
  <property name="meta.media.0.codec.pix_fmt">yuv420p</property>
  <property name="meta.media.0.codec.sample_aspect_ratio">0</property>
  <property name="meta.media.0.codec.colorspace">601</property>
  <property name="meta.media.0.codec.name">h264</property>
  <property name="meta.media.0.codec.long_name">H.264 / AVC / MPEG-4 AVC / MPEG-4 part 10</property>
  <property name="meta.media.0.codec.bit_rate">0</property>
  <property name="meta.attr.0.stream.HANDLER_NAME.markup">VideoHandler</property>
  <property name="meta.attr.0.stream.VENDOR_ID.markup">[0][0][0][0]</property>
  <property name="meta.attr.0.stream.ENCODER.markup">Lavc58.134.100 libx264</property>
  <property name="meta.attr.0.stream.DURATION.markup">00:00:01.000000000</property>
  <property name="meta.attr.COMMENT.markup">Rendered with Manim Community v0.6.0</property>
  <property name="meta.attr.MAJOR_BRAND.markup">isom</property>
  <property name="meta.attr.MINOR_VERSION.markup">512</property>
  <property name="meta.attr.COMPATIBLE_BRANDS.markup">isomiso2avc1mp41</property>
  <property name="meta.attr.ENCODER.markup">Lavf58.76.100</property>
  <property name="meta.media.sample_aspect_num">1</property>
  <property name="meta.media.sample_aspect_den">1</property>
  <property name="meta.media.frame_rate_num">60</property>
  <property name="meta.media.frame_rate_den">1</property>
  <property name="meta.media.colorspace">601</property>
  <property name="meta.media.color_trc">2</property>
  <property name="meta.media.width">640</property>
  <property name="meta.media.height">360</property>
  <property name="meta.media.color_range">mpeg</property>
  <property name="meta.media.top_field_first">0</property>
  <property name="meta.media.progressive">1</property>
  <property name="kdenlive:original.mlt_type">producer</property>
  <property name="kdenlive:original.in">0</property>
  <property name="kdenlive:original.out">59</property>
  <property name="kdenlive:original.length">60</property>
  <property name="kdenlive:original.eof">pause</property>
  <property name="kdenlive:original.resource">video/Introduction/31.mp4</property>
  <property name="kdenlive:original.meta.media.nb_streams">1</property>
  <property name="kdenlive:original.meta.media.0.stream.type">video</property>
  <property name="kdenlive:original.meta.media.0.stream.frame_rate">60</property>
  <property name="kdenlive:original.meta.media.0.stream.sample_aspect_ratio">0</property>
  <property name="kdenlive:original.meta.media.0.codec.width">3840</property>
  <property name="kdenlive:original.meta.media.0.codec.height">2160</property>
  <property name="kdenlive:original.meta.media.0.codec.rotate">0</property>
  <property name="kdenlive:original.meta.media.0.codec.frame_rate">60</property>
  <property name="kdenlive:original.meta.media.0.codec.pix_fmt">yuv420p</property>
  <property name="kdenlive:original.meta.media.0.codec.sample_aspect_ratio">0</property>
  <property name="kdenlive:original.meta.media.0.codec.colorspace">709</property>
  <property name="kdenlive:original.meta.media.0.codec.name">h264</property>
  <property name="kdenlive:original.meta.media.0.codec.long_name">H.264 / AVC / MPEG-4 AVC / MPEG-4 part 10</property>
  <property name="kdenlive:original.meta.media.0.codec.bit_rate">1134632</property>
  <property name="kdenlive:original.meta.attr.0.stream.handler_name.markup">VideoHandler</property>
  <property name="kdenlive:original.meta.attr.0.stream.vendor_id.markup">[0][0][0][0]</property>
  <property name="kdenlive:original.meta.attr.major_brand.markup">isom</property>
  <property name="kdenlive:original.meta.attr.minor_version.markup">512</property>
  <property name="kdenlive:original.meta.attr.compatible_brands.markup">isomiso2avc1mp41</property>
  <property name="kdenlive:original.meta.attr.encoder.markup">Lavf58.76.100</property>
  <property name="kdenlive:original.meta.attr.comment.markup">Rendered with Manim Community v0.6.0</property>
  <property name="kdenlive:original.seekable">1</property>
  <property name="kdenlive:original.width">3840</property>
  <property name="kdenlive:original.height">2160</property>
  <property name="kdenlive:original.meta.media.sample_aspect_num">1</property>
  <property name="kdenlive:original.meta.media.sample_aspect_den">1</property>
  <property name="kdenlive:original.aspect_ratio">1</property>
  <property name="kdenlive:original.audio_index">-1</property>
  <property name="kdenlive:original.video_index">0</property>
  <property name="kdenlive:original.mute_on_pause">1</property>
  <property name="kdenlive:original.mlt_service">avformat</property>
  <property name="kdenlive:original.meta.media.frame_rate_num">60</property>
  <property name="kdenlive:original.meta.media.frame_rate_den">1</property>
  <property name="kdenlive:original.meta.media.colorspace">709</property>
  <property name="kdenlive:original.meta.media.color_trc">2</property>
  <property name="kdenlive:original.meta.media.width">3840</property>
  <property name="kdenlive:original.meta.media.height">2160</property>
  <property name="kdenlive:original.meta.media.color_range">mpeg</property>
  <property name="kdenlive:original.meta.media.top_field_first">0</property>
  <property name="kdenlive:original.meta.media.progressive">1</property>
  <property name="kdenlive:original.backup">1</property>
 </producer>
 <producer id="producer210" in="00:00:00.000" out="00:00:04.983">
  <property name="length">00:00:05.000</property>
  <property name="eof">pause</property>
  <property name="resource">/home/xiaoxiae/.cache/kdenlive/proxy/499050f75f222fca073525184be3a09a.png</property>
  <property name="ttl">25</property>
  <property name="aspect_ratio">1</property>
  <property name="progressive">1</property>
  <property name="seekable">1</property>
  <property name="meta.media.width">800</property>
  <property name="meta.media.height">450</property>
  <property name="mlt_service">qimage</property>
  <property name="kdenlive:clipname">31.png</property>
  <property name="kdenlive:duration">00:00:05.000</property>
  <property name="kdenlive:folderid">124</property>
  <property name="kdenlive:id">174</property>
  <property name="kdenlive:file_size">359889</property>
  <property name="kdenlive:file_hash">499050f75f222fca073525184be3a09a</property>
  <property name="kdenlive:proxy">/home/xiaoxiae/.cache/kdenlive/proxy/499050f75f222fca073525184be3a09a.png</property>
  <property name="kdenlive:originalurl">video/Introduction/31.png</property>
  <property name="global_feed">1</property>
 </producer>
 <producer id="producer211" in="00:00:00.000" out="00:00:00.983">
  <property name="length">60</property>
  <property name="eof">pause</property>
  <property name="resource">/home/xiaoxiae/.cache/kdenlive/proxy/c9de33a3433f161323f898bfd4232a96.mkv</property>
  <property name="audio_index">-1</property>
  <property name="video_index">0</property>
  <property name="mute_on_pause">0</property>
  <property name="mlt_service">avformat-novalidate</property>
  <property name="seekable">1</property>
  <property name="aspect_ratio">1</property>
  <property name="kdenlive:clipname">32.mp4</property>
  <property name="kdenlive:folderid">124</property>
  <property name="kdenlive:id">175</property>
  <property name="kdenlive:file_size">175136</property>
  <property name="kdenlive:file_hash">c9de33a3433f161323f898bfd4232a96</property>
  <property name="kdenlive:proxy">/home/xiaoxiae/.cache/kdenlive/proxy/c9de33a3433f161323f898bfd4232a96.mkv</property>
  <property name="kdenlive:originalurl">video/Introduction/32.mp4</property>
  <property name="global_feed">1</property>
  <property name="meta.media.nb_streams">1</property>
  <property name="meta.media.0.stream.type">video</property>
  <property name="meta.media.0.stream.frame_rate">60</property>
  <property name="meta.media.0.stream.sample_aspect_ratio">0</property>
  <property name="meta.media.0.codec.width">640</property>
  <property name="meta.media.0.codec.height">360</property>
  <property name="meta.media.0.codec.rotate">0</property>
  <property name="meta.media.0.codec.frame_rate">60</property>
  <property name="meta.media.0.codec.pix_fmt">yuv420p</property>
  <property name="meta.media.0.codec.sample_aspect_ratio">0</property>
  <property name="meta.media.0.codec.colorspace">601</property>
  <property name="meta.media.0.codec.name">h264</property>
  <property name="meta.media.0.codec.long_name">H.264 / AVC / MPEG-4 AVC / MPEG-4 part 10</property>
  <property name="meta.media.0.codec.bit_rate">0</property>
  <property name="meta.attr.0.stream.HANDLER_NAME.markup">VideoHandler</property>
  <property name="meta.attr.0.stream.VENDOR_ID.markup">[0][0][0][0]</property>
  <property name="meta.attr.0.stream.ENCODER.markup">Lavc58.134.100 libx264</property>
  <property name="meta.attr.0.stream.DURATION.markup">00:00:01.000000000</property>
  <property name="meta.attr.COMMENT.markup">Rendered with Manim Community v0.6.0</property>
  <property name="meta.attr.MAJOR_BRAND.markup">isom</property>
  <property name="meta.attr.MINOR_VERSION.markup">512</property>
  <property name="meta.attr.COMPATIBLE_BRANDS.markup">isomiso2avc1mp41</property>
  <property name="meta.attr.ENCODER.markup">Lavf58.76.100</property>
  <property name="meta.media.sample_aspect_num">1</property>
  <property name="meta.media.sample_aspect_den">1</property>
  <property name="meta.media.frame_rate_num">60</property>
  <property name="meta.media.frame_rate_den">1</property>
  <property name="meta.media.colorspace">601</property>
  <property name="meta.media.color_trc">2</property>
  <property name="meta.media.width">640</property>
  <property name="meta.media.height">360</property>
  <property name="meta.media.color_range">mpeg</property>
  <property name="meta.media.top_field_first">0</property>
  <property name="meta.media.progressive">1</property>
  <property name="kdenlive:original.mlt_type">producer</property>
  <property name="kdenlive:original.in">0</property>
  <property name="kdenlive:original.out">59</property>
  <property name="kdenlive:original.length">60</property>
  <property name="kdenlive:original.eof">pause</property>
  <property name="kdenlive:original.resource">video/Introduction/32.mp4</property>
  <property name="kdenlive:original.meta.media.nb_streams">1</property>
  <property name="kdenlive:original.meta.media.0.stream.type">video</property>
  <property name="kdenlive:original.meta.media.0.stream.frame_rate">60</property>
  <property name="kdenlive:original.meta.media.0.stream.sample_aspect_ratio">0</property>
  <property name="kdenlive:original.meta.media.0.codec.width">3840</property>
  <property name="kdenlive:original.meta.media.0.codec.height">2160</property>
  <property name="kdenlive:original.meta.media.0.codec.rotate">0</property>
  <property name="kdenlive:original.meta.media.0.codec.frame_rate">60</property>
  <property name="kdenlive:original.meta.media.0.codec.pix_fmt">yuv420p</property>
  <property name="kdenlive:original.meta.media.0.codec.sample_aspect_ratio">0</property>
  <property name="kdenlive:original.meta.media.0.codec.colorspace">709</property>
  <property name="kdenlive:original.meta.media.0.codec.name">h264</property>
  <property name="kdenlive:original.meta.media.0.codec.long_name">H.264 / AVC / MPEG-4 AVC / MPEG-4 part 10</property>
  <property name="kdenlive:original.meta.media.0.codec.bit_rate">1388232</property>
  <property name="kdenlive:original.meta.attr.0.stream.handler_name.markup">VideoHandler</property>
  <property name="kdenlive:original.meta.attr.0.stream.vendor_id.markup">[0][0][0][0]</property>
  <property name="kdenlive:original.meta.attr.major_brand.markup">isom</property>
  <property name="kdenlive:original.meta.attr.minor_version.markup">512</property>
  <property name="kdenlive:original.meta.attr.compatible_brands.markup">isomiso2avc1mp41</property>
  <property name="kdenlive:original.meta.attr.encoder.markup">Lavf58.76.100</property>
  <property name="kdenlive:original.meta.attr.comment.markup">Rendered with Manim Community v0.6.0</property>
  <property name="kdenlive:original.seekable">1</property>
  <property name="kdenlive:original.width">3840</property>
  <property name="kdenlive:original.height">2160</property>
  <property name="kdenlive:original.meta.media.sample_aspect_num">1</property>
  <property name="kdenlive:original.meta.media.sample_aspect_den">1</property>
  <property name="kdenlive:original.aspect_ratio">1</property>
  <property name="kdenlive:original.audio_index">-1</property>
  <property name="kdenlive:original.video_index">0</property>
  <property name="kdenlive:original.mute_on_pause">1</property>
  <property name="kdenlive:original.mlt_service">avformat</property>
  <property name="kdenlive:original.meta.media.frame_rate_num">60</property>
  <property name="kdenlive:original.meta.media.frame_rate_den">1</property>
  <property name="kdenlive:original.meta.media.colorspace">709</property>
  <property name="kdenlive:original.meta.media.color_trc">2</property>
  <property name="kdenlive:original.meta.media.width">3840</property>
  <property name="kdenlive:original.meta.media.height">2160</property>
  <property name="kdenlive:original.meta.media.color_range">mpeg</property>
  <property name="kdenlive:original.meta.media.top_field_first">0</property>
  <property name="kdenlive:original.meta.media.progressive">1</property>
  <property name="kdenlive:original.backup">1</property>
 </producer>
 <producer id="producer212" in="00:00:00.000" out="00:00:04.983">
  <property name="length">00:00:05.000</property>
  <property name="eof">pause</property>
  <property name="resource">/home/xiaoxiae/.cache/kdenlive/proxy/63c4ad8aad4fd043957e31b84d1f2ed5.png</property>
  <property name="ttl">25</property>
  <property name="aspect_ratio">1</property>
  <property name="progressive">1</property>
  <property name="seekable">1</property>
  <property name="meta.media.width">800</property>
  <property name="meta.media.height">450</property>
  <property name="mlt_service">qimage</property>
  <property name="kdenlive:clipname">32.png</property>
  <property name="kdenlive:duration">00:00:05.000</property>
  <property name="kdenlive:folderid">124</property>
  <property name="kdenlive:id">176</property>
  <property name="kdenlive:file_size">318158</property>
  <property name="kdenlive:file_hash">63c4ad8aad4fd043957e31b84d1f2ed5</property>
  <property name="kdenlive:proxy">/home/xiaoxiae/.cache/kdenlive/proxy/63c4ad8aad4fd043957e31b84d1f2ed5.png</property>
  <property name="kdenlive:originalurl">video/Introduction/32.png</property>
  <property name="global_feed">1</property>
 </producer>
 <producer id="producer214" in="00:00:00.000" out="00:00:00.983">
  <property name="length">60</property>
  <property name="eof">pause</property>
  <property name="resource">/home/xiaoxiae/.cache/kdenlive/proxy/3d816f8c1a380c72a2f3d4c0c2ac0a40.mkv</property>
  <property name="audio_index">-1</property>
  <property name="video_index">0</property>
  <property name="mute_on_pause">0</property>
  <property name="mlt_service">avformat-novalidate</property>
  <property name="seekable">1</property>
  <property name="aspect_ratio">1</property>
  <property name="kdenlive:clipname">33.mp4</property>
  <property name="kdenlive:folderid">124</property>
  <property name="kdenlive:id">177</property>
  <property name="kdenlive:file_size">94557</property>
  <property name="kdenlive:file_hash">3d816f8c1a380c72a2f3d4c0c2ac0a40</property>
  <property name="kdenlive:proxy">/home/xiaoxiae/.cache/kdenlive/proxy/3d816f8c1a380c72a2f3d4c0c2ac0a40.mkv</property>
  <property name="kdenlive:originalurl">video/Introduction/33.mp4</property>
  <property name="global_feed">1</property>
  <property name="meta.media.nb_streams">1</property>
  <property name="meta.media.0.stream.type">video</property>
  <property name="meta.media.0.stream.frame_rate">60</property>
  <property name="meta.media.0.stream.sample_aspect_ratio">0</property>
  <property name="meta.media.0.codec.width">640</property>
  <property name="meta.media.0.codec.height">360</property>
  <property name="meta.media.0.codec.rotate">0</property>
  <property name="meta.media.0.codec.frame_rate">60</property>
  <property name="meta.media.0.codec.pix_fmt">yuv420p</property>
  <property name="meta.media.0.codec.sample_aspect_ratio">0</property>
  <property name="meta.media.0.codec.colorspace">601</property>
  <property name="meta.media.0.codec.name">h264</property>
  <property name="meta.media.0.codec.long_name">H.264 / AVC / MPEG-4 AVC / MPEG-4 part 10</property>
  <property name="meta.media.0.codec.bit_rate">0</property>
  <property name="meta.attr.0.stream.HANDLER_NAME.markup">VideoHandler</property>
  <property name="meta.attr.0.stream.VENDOR_ID.markup">[0][0][0][0]</property>
  <property name="meta.attr.0.stream.ENCODER.markup">Lavc58.134.100 libx264</property>
  <property name="meta.attr.0.stream.DURATION.markup">00:00:01.000000000</property>
  <property name="meta.attr.COMMENT.markup">Rendered with Manim Community v0.6.0</property>
  <property name="meta.attr.MAJOR_BRAND.markup">isom</property>
  <property name="meta.attr.MINOR_VERSION.markup">512</property>
  <property name="meta.attr.COMPATIBLE_BRANDS.markup">isomiso2avc1mp41</property>
  <property name="meta.attr.ENCODER.markup">Lavf58.76.100</property>
  <property name="meta.media.sample_aspect_num">1</property>
  <property name="meta.media.sample_aspect_den">1</property>
  <property name="meta.media.frame_rate_num">60</property>
  <property name="meta.media.frame_rate_den">1</property>
  <property name="meta.media.colorspace">601</property>
  <property name="meta.media.color_trc">2</property>
  <property name="meta.media.width">640</property>
  <property name="meta.media.height">360</property>
  <property name="meta.media.color_range">mpeg</property>
  <property name="meta.media.top_field_first">0</property>
  <property name="meta.media.progressive">1</property>
  <property name="kdenlive:original.mlt_type">producer</property>
  <property name="kdenlive:original.in">0</property>
  <property name="kdenlive:original.out">59</property>
  <property name="kdenlive:original.length">60</property>
  <property name="kdenlive:original.eof">pause</property>
  <property name="kdenlive:original.resource">video/Introduction/33.mp4</property>
  <property name="kdenlive:original.meta.media.nb_streams">1</property>
  <property name="kdenlive:original.meta.media.0.stream.type">video</property>
  <property name="kdenlive:original.meta.media.0.stream.frame_rate">60</property>
  <property name="kdenlive:original.meta.media.0.stream.sample_aspect_ratio">0</property>
  <property name="kdenlive:original.meta.media.0.codec.width">3840</property>
  <property name="kdenlive:original.meta.media.0.codec.height">2160</property>
  <property name="kdenlive:original.meta.media.0.codec.rotate">0</property>
  <property name="kdenlive:original.meta.media.0.codec.frame_rate">60</property>
  <property name="kdenlive:original.meta.media.0.codec.pix_fmt">yuv420p</property>
  <property name="kdenlive:original.meta.media.0.codec.sample_aspect_ratio">0</property>
  <property name="kdenlive:original.meta.media.0.codec.colorspace">709</property>
  <property name="kdenlive:original.meta.media.0.codec.name">h264</property>
  <property name="kdenlive:original.meta.media.0.codec.long_name">H.264 / AVC / MPEG-4 AVC / MPEG-4 part 10</property>
  <property name="kdenlive:original.meta.media.0.codec.bit_rate">743408</property>
  <property name="kdenlive:original.meta.attr.0.stream.handler_name.markup">VideoHandler</property>
  <property name="kdenlive:original.meta.attr.0.stream.vendor_id.markup">[0][0][0][0]</property>
  <property name="kdenlive:original.meta.attr.major_brand.markup">isom</property>
  <property name="kdenlive:original.meta.attr.minor_version.markup">512</property>
  <property name="kdenlive:original.meta.attr.compatible_brands.markup">isomiso2avc1mp41</property>
  <property name="kdenlive:original.meta.attr.encoder.markup">Lavf58.76.100</property>
  <property name="kdenlive:original.meta.attr.comment.markup">Rendered with Manim Community v0.6.0</property>
  <property name="kdenlive:original.seekable">1</property>
  <property name="kdenlive:original.width">3840</property>
  <property name="kdenlive:original.height">2160</property>
  <property name="kdenlive:original.meta.media.sample_aspect_num">1</property>
  <property name="kdenlive:original.meta.media.sample_aspect_den">1</property>
  <property name="kdenlive:original.aspect_ratio">1</property>
  <property name="kdenlive:original.audio_index">-1</property>
  <property name="kdenlive:original.video_index">0</property>
  <property name="kdenlive:original.mute_on_pause">1</property>
  <property name="kdenlive:original.mlt_service">avformat</property>
  <property name="kdenlive:original.meta.media.frame_rate_num">60</property>
  <property name="kdenlive:original.meta.media.frame_rate_den">1</property>
  <property name="kdenlive:original.meta.media.colorspace">709</property>
  <property name="kdenlive:original.meta.media.color_trc">2</property>
  <property name="kdenlive:original.meta.media.width">3840</property>
  <property name="kdenlive:original.meta.media.height">2160</property>
  <property name="kdenlive:original.meta.media.color_range">mpeg</property>
  <property name="kdenlive:original.meta.media.top_field_first">0</property>
  <property name="kdenlive:original.meta.media.progressive">1</property>
  <property name="kdenlive:original.backup">1</property>
 </producer>
 <producer id="producer213" in="00:00:00.000" out="00:00:04.983">
  <property name="length">00:00:05.000</property>
  <property name="eof">pause</property>
  <property name="resource">/home/xiaoxiae/.cache/kdenlive/proxy/eb6715e69ff52b90087c6a487ba4e577.png</property>
  <property name="ttl">25</property>
  <property name="aspect_ratio">1</property>
  <property name="progressive">1</property>
  <property name="seekable">1</property>
  <property name="meta.media.width">800</property>
  <property name="meta.media.height">450</property>
  <property name="mlt_service">qimage</property>
  <property name="kdenlive:clipname">33.png</property>
  <property name="kdenlive:duration">00:00:05.000</property>
  <property name="kdenlive:folderid">124</property>
  <property name="kdenlive:id">178</property>
  <property name="kdenlive:file_size">307597</property>
  <property name="kdenlive:file_hash">eb6715e69ff52b90087c6a487ba4e577</property>
  <property name="kdenlive:proxy">/home/xiaoxiae/.cache/kdenlive/proxy/eb6715e69ff52b90087c6a487ba4e577.png</property>
  <property name="kdenlive:originalurl">video/Introduction/33.png</property>
  <property name="global_feed">1</property>
 </producer>
 <producer id="producer215" in="00:00:00.000" out="00:00:00.983">
  <property name="length">60</property>
  <property name="eof">pause</property>
  <property name="resource">/home/xiaoxiae/.cache/kdenlive/proxy/413f3e4dc672a33931153c823cef2203.mkv</property>
  <property name="audio_index">-1</property>
  <property name="video_index">0</property>
  <property name="mute_on_pause">0</property>
  <property name="mlt_service">avformat-novalidate</property>
  <property name="seekable">1</property>
  <property name="aspect_ratio">1</property>
  <property name="kdenlive:clipname">34.mp4</property>
  <property name="kdenlive:folderid">124</property>
  <property name="kdenlive:id">179</property>
  <property name="kdenlive:file_size">114909</property>
  <property name="kdenlive:file_hash">413f3e4dc672a33931153c823cef2203</property>
  <property name="kdenlive:proxy">/home/xiaoxiae/.cache/kdenlive/proxy/413f3e4dc672a33931153c823cef2203.mkv</property>
  <property name="kdenlive:originalurl">video/Introduction/34.mp4</property>
  <property name="global_feed">1</property>
  <property name="meta.media.nb_streams">1</property>
  <property name="meta.media.0.stream.type">video</property>
  <property name="meta.media.0.stream.frame_rate">60</property>
  <property name="meta.media.0.stream.sample_aspect_ratio">0</property>
  <property name="meta.media.0.codec.width">640</property>
  <property name="meta.media.0.codec.height">360</property>
  <property name="meta.media.0.codec.rotate">0</property>
  <property name="meta.media.0.codec.frame_rate">60</property>
  <property name="meta.media.0.codec.pix_fmt">yuv420p</property>
  <property name="meta.media.0.codec.sample_aspect_ratio">0</property>
  <property name="meta.media.0.codec.colorspace">601</property>
  <property name="meta.media.0.codec.name">h264</property>
  <property name="meta.media.0.codec.long_name">H.264 / AVC / MPEG-4 AVC / MPEG-4 part 10</property>
  <property name="meta.media.0.codec.bit_rate">0</property>
  <property name="meta.attr.0.stream.HANDLER_NAME.markup">VideoHandler</property>
  <property name="meta.attr.0.stream.VENDOR_ID.markup">[0][0][0][0]</property>
  <property name="meta.attr.0.stream.ENCODER.markup">Lavc58.134.100 libx264</property>
  <property name="meta.attr.0.stream.DURATION.markup">00:00:01.000000000</property>
  <property name="meta.attr.COMMENT.markup">Rendered with Manim Community v0.6.0</property>
  <property name="meta.attr.MAJOR_BRAND.markup">isom</property>
  <property name="meta.attr.MINOR_VERSION.markup">512</property>
  <property name="meta.attr.COMPATIBLE_BRANDS.markup">isomiso2avc1mp41</property>
  <property name="meta.attr.ENCODER.markup">Lavf58.76.100</property>
  <property name="meta.media.sample_aspect_num">1</property>
  <property name="meta.media.sample_aspect_den">1</property>
  <property name="meta.media.frame_rate_num">60</property>
  <property name="meta.media.frame_rate_den">1</property>
  <property name="meta.media.colorspace">601</property>
  <property name="meta.media.color_trc">2</property>
  <property name="meta.media.width">640</property>
  <property name="meta.media.height">360</property>
  <property name="meta.media.color_range">mpeg</property>
  <property name="meta.media.top_field_first">0</property>
  <property name="meta.media.progressive">1</property>
  <property name="kdenlive:original.mlt_type">producer</property>
  <property name="kdenlive:original.in">0</property>
  <property name="kdenlive:original.out">59</property>
  <property name="kdenlive:original.length">60</property>
  <property name="kdenlive:original.eof">pause</property>
  <property name="kdenlive:original.resource">video/Introduction/34.mp4</property>
  <property name="kdenlive:original.meta.media.nb_streams">1</property>
  <property name="kdenlive:original.meta.media.0.stream.type">video</property>
  <property name="kdenlive:original.meta.media.0.stream.frame_rate">60</property>
  <property name="kdenlive:original.meta.media.0.stream.sample_aspect_ratio">0</property>
  <property name="kdenlive:original.meta.media.0.codec.width">3840</property>
  <property name="kdenlive:original.meta.media.0.codec.height">2160</property>
  <property name="kdenlive:original.meta.media.0.codec.rotate">0</property>
  <property name="kdenlive:original.meta.media.0.codec.frame_rate">60</property>
  <property name="kdenlive:original.meta.media.0.codec.pix_fmt">yuv420p</property>
  <property name="kdenlive:original.meta.media.0.codec.sample_aspect_ratio">0</property>
  <property name="kdenlive:original.meta.media.0.codec.colorspace">709</property>
  <property name="kdenlive:original.meta.media.0.codec.name">h264</property>
  <property name="kdenlive:original.meta.media.0.codec.long_name">H.264 / AVC / MPEG-4 AVC / MPEG-4 part 10</property>
  <property name="kdenlive:original.meta.media.0.codec.bit_rate">906224</property>
  <property name="kdenlive:original.meta.attr.0.stream.handler_name.markup">VideoHandler</property>
  <property name="kdenlive:original.meta.attr.0.stream.vendor_id.markup">[0][0][0][0]</property>
  <property name="kdenlive:original.meta.attr.major_brand.markup">isom</property>
  <property name="kdenlive:original.meta.attr.minor_version.markup">512</property>
  <property name="kdenlive:original.meta.attr.compatible_brands.markup">isomiso2avc1mp41</property>
  <property name="kdenlive:original.meta.attr.encoder.markup">Lavf58.76.100</property>
  <property name="kdenlive:original.meta.attr.comment.markup">Rendered with Manim Community v0.6.0</property>
  <property name="kdenlive:original.seekable">1</property>
  <property name="kdenlive:original.width">3840</property>
  <property name="kdenlive:original.height">2160</property>
  <property name="kdenlive:original.meta.media.sample_aspect_num">1</property>
  <property name="kdenlive:original.meta.media.sample_aspect_den">1</property>
  <property name="kdenlive:original.aspect_ratio">1</property>
  <property name="kdenlive:original.audio_index">-1</property>
  <property name="kdenlive:original.video_index">0</property>
  <property name="kdenlive:original.mute_on_pause">1</property>
  <property name="kdenlive:original.mlt_service">avformat</property>
  <property name="kdenlive:original.meta.media.frame_rate_num">60</property>
  <property name="kdenlive:original.meta.media.frame_rate_den">1</property>
  <property name="kdenlive:original.meta.media.colorspace">709</property>
  <property name="kdenlive:original.meta.media.color_trc">2</property>
  <property name="kdenlive:original.meta.media.width">3840</property>
  <property name="kdenlive:original.meta.media.height">2160</property>
  <property name="kdenlive:original.meta.media.color_range">mpeg</property>
  <property name="kdenlive:original.meta.media.top_field_first">0</property>
  <property name="kdenlive:original.meta.media.progressive">1</property>
  <property name="kdenlive:original.backup">1</property>
 </producer>
 <producer id="producer216" in="00:00:00.000" out="00:00:04.983">
  <property name="length">00:00:05.000</property>
  <property name="eof">pause</property>
  <property name="resource">/home/xiaoxiae/.cache/kdenlive/proxy/bf6a5557f3e7e9bdc147ab4a7703b24a.png</property>
  <property name="ttl">25</property>
  <property name="aspect_ratio">1</property>
  <property name="progressive">1</property>
  <property name="seekable">1</property>
  <property name="meta.media.width">800</property>
  <property name="meta.media.height">450</property>
  <property name="mlt_service">qimage</property>
  <property name="kdenlive:clipname">34.png</property>
  <property name="kdenlive:duration">00:00:05.000</property>
  <property name="kdenlive:folderid">124</property>
  <property name="kdenlive:id">180</property>
  <property name="kdenlive:file_size">321456</property>
  <property name="kdenlive:file_hash">bf6a5557f3e7e9bdc147ab4a7703b24a</property>
  <property name="kdenlive:proxy">/home/xiaoxiae/.cache/kdenlive/proxy/bf6a5557f3e7e9bdc147ab4a7703b24a.png</property>
  <property name="kdenlive:originalurl">video/Introduction/34.png</property>
  <property name="global_feed">1</property>
 </producer>
 <producer id="producer218" in="00:00:00.000" out="00:00:00.983">
  <property name="length">60</property>
  <property name="eof">pause</property>
  <property name="resource">/home/xiaoxiae/.cache/kdenlive/proxy/1c47780f2b765cd04ac30720de160a94.mkv</property>
  <property name="audio_index">-1</property>
  <property name="video_index">0</property>
  <property name="mute_on_pause">0</property>
  <property name="mlt_service">avformat-novalidate</property>
  <property name="seekable">1</property>
  <property name="aspect_ratio">1</property>
  <property name="kdenlive:clipname">35.mp4</property>
  <property name="kdenlive:folderid">124</property>
  <property name="kdenlive:id">181</property>
  <property name="kdenlive:file_size">77310</property>
  <property name="kdenlive:file_hash">1c47780f2b765cd04ac30720de160a94</property>
  <property name="kdenlive:proxy">/home/xiaoxiae/.cache/kdenlive/proxy/1c47780f2b765cd04ac30720de160a94.mkv</property>
  <property name="kdenlive:originalurl">video/Introduction/35.mp4</property>
  <property name="global_feed">1</property>
  <property name="meta.media.nb_streams">1</property>
  <property name="meta.media.0.stream.type">video</property>
  <property name="meta.media.0.stream.frame_rate">60</property>
  <property name="meta.media.0.stream.sample_aspect_ratio">0</property>
  <property name="meta.media.0.codec.width">640</property>
  <property name="meta.media.0.codec.height">360</property>
  <property name="meta.media.0.codec.rotate">0</property>
  <property name="meta.media.0.codec.frame_rate">60</property>
  <property name="meta.media.0.codec.pix_fmt">yuv420p</property>
  <property name="meta.media.0.codec.sample_aspect_ratio">0</property>
  <property name="meta.media.0.codec.colorspace">601</property>
  <property name="meta.media.0.codec.name">h264</property>
  <property name="meta.media.0.codec.long_name">H.264 / AVC / MPEG-4 AVC / MPEG-4 part 10</property>
  <property name="meta.media.0.codec.bit_rate">0</property>
  <property name="meta.attr.0.stream.HANDLER_NAME.markup">VideoHandler</property>
  <property name="meta.attr.0.stream.VENDOR_ID.markup">[0][0][0][0]</property>
  <property name="meta.attr.0.stream.ENCODER.markup">Lavc58.134.100 libx264</property>
  <property name="meta.attr.0.stream.DURATION.markup">00:00:01.000000000</property>
  <property name="meta.attr.COMMENT.markup">Rendered with Manim Community v0.6.0</property>
  <property name="meta.attr.MAJOR_BRAND.markup">isom</property>
  <property name="meta.attr.MINOR_VERSION.markup">512</property>
  <property name="meta.attr.COMPATIBLE_BRANDS.markup">isomiso2avc1mp41</property>
  <property name="meta.attr.ENCODER.markup">Lavf58.76.100</property>
  <property name="meta.media.sample_aspect_num">1</property>
  <property name="meta.media.sample_aspect_den">1</property>
  <property name="meta.media.frame_rate_num">60</property>
  <property name="meta.media.frame_rate_den">1</property>
  <property name="meta.media.colorspace">601</property>
  <property name="meta.media.color_trc">2</property>
  <property name="meta.media.width">640</property>
  <property name="meta.media.height">360</property>
  <property name="meta.media.color_range">mpeg</property>
  <property name="meta.media.top_field_first">0</property>
  <property name="meta.media.progressive">1</property>
  <property name="kdenlive:original.mlt_type">producer</property>
  <property name="kdenlive:original.in">0</property>
  <property name="kdenlive:original.out">59</property>
  <property name="kdenlive:original.length">60</property>
  <property name="kdenlive:original.eof">pause</property>
  <property name="kdenlive:original.resource">video/Introduction/35.mp4</property>
  <property name="kdenlive:original.meta.media.nb_streams">1</property>
  <property name="kdenlive:original.meta.media.0.stream.type">video</property>
  <property name="kdenlive:original.meta.media.0.stream.frame_rate">60</property>
  <property name="kdenlive:original.meta.media.0.stream.sample_aspect_ratio">0</property>
  <property name="kdenlive:original.meta.media.0.codec.width">3840</property>
  <property name="kdenlive:original.meta.media.0.codec.height">2160</property>
  <property name="kdenlive:original.meta.media.0.codec.rotate">0</property>
  <property name="kdenlive:original.meta.media.0.codec.frame_rate">60</property>
  <property name="kdenlive:original.meta.media.0.codec.pix_fmt">yuv420p</property>
  <property name="kdenlive:original.meta.media.0.codec.sample_aspect_ratio">0</property>
  <property name="kdenlive:original.meta.media.0.codec.colorspace">709</property>
  <property name="kdenlive:original.meta.media.0.codec.name">h264</property>
  <property name="kdenlive:original.meta.media.0.codec.long_name">H.264 / AVC / MPEG-4 AVC / MPEG-4 part 10</property>
  <property name="kdenlive:original.meta.media.0.codec.bit_rate">605432</property>
  <property name="kdenlive:original.meta.attr.0.stream.handler_name.markup">VideoHandler</property>
  <property name="kdenlive:original.meta.attr.0.stream.vendor_id.markup">[0][0][0][0]</property>
  <property name="kdenlive:original.meta.attr.major_brand.markup">isom</property>
  <property name="kdenlive:original.meta.attr.minor_version.markup">512</property>
  <property name="kdenlive:original.meta.attr.compatible_brands.markup">isomiso2avc1mp41</property>
  <property name="kdenlive:original.meta.attr.encoder.markup">Lavf58.76.100</property>
  <property name="kdenlive:original.meta.attr.comment.markup">Rendered with Manim Community v0.6.0</property>
  <property name="kdenlive:original.seekable">1</property>
  <property name="kdenlive:original.width">3840</property>
  <property name="kdenlive:original.height">2160</property>
  <property name="kdenlive:original.meta.media.sample_aspect_num">1</property>
  <property name="kdenlive:original.meta.media.sample_aspect_den">1</property>
  <property name="kdenlive:original.aspect_ratio">1</property>
  <property name="kdenlive:original.audio_index">-1</property>
  <property name="kdenlive:original.video_index">0</property>
  <property name="kdenlive:original.mute_on_pause">1</property>
  <property name="kdenlive:original.mlt_service">avformat</property>
  <property name="kdenlive:original.meta.media.frame_rate_num">60</property>
  <property name="kdenlive:original.meta.media.frame_rate_den">1</property>
  <property name="kdenlive:original.meta.media.colorspace">709</property>
  <property name="kdenlive:original.meta.media.color_trc">2</property>
  <property name="kdenlive:original.meta.media.width">3840</property>
  <property name="kdenlive:original.meta.media.height">2160</property>
  <property name="kdenlive:original.meta.media.color_range">mpeg</property>
  <property name="kdenlive:original.meta.media.top_field_first">0</property>
  <property name="kdenlive:original.meta.media.progressive">1</property>
  <property name="kdenlive:original.backup">1</property>
 </producer>
 <producer id="producer217" in="00:00:00.000" out="00:00:04.983">
  <property name="length">00:00:05.000</property>
  <property name="eof">pause</property>
  <property name="resource">/home/xiaoxiae/.cache/kdenlive/proxy/6b665121ca7b54a5f5307b69451fd23c.png</property>
  <property name="ttl">25</property>
  <property name="aspect_ratio">1</property>
  <property name="progressive">1</property>
  <property name="seekable">1</property>
  <property name="meta.media.width">800</property>
  <property name="meta.media.height">450</property>
  <property name="mlt_service">qimage</property>
  <property name="kdenlive:clipname">35.png</property>
  <property name="kdenlive:duration">00:00:05.000</property>
  <property name="kdenlive:folderid">124</property>
  <property name="kdenlive:id">182</property>
  <property name="kdenlive:file_size">24337</property>
  <property name="kdenlive:file_hash">6b665121ca7b54a5f5307b69451fd23c</property>
  <property name="kdenlive:proxy">/home/xiaoxiae/.cache/kdenlive/proxy/6b665121ca7b54a5f5307b69451fd23c.png</property>
  <property name="kdenlive:originalurl">video/Introduction/35.png</property>
  <property name="global_feed">1</property>
 </producer>
 <producer id="producer225" in="00:00:00.000" out="00:00:03.483">
  <property name="length">210</property>
  <property name="eof">pause</property>
  <property name="resource">/home/xiaoxiae/.cache/kdenlive/proxy/5d49918fbf5a4ce2ec7b39ff8b444e0f.mkv</property>
  <property name="audio_index">-1</property>
  <property name="video_index">0</property>
  <property name="mute_on_pause">0</property>
  <property name="mlt_service">avformat-novalidate</property>
  <property name="seekable">1</property>
  <property name="aspect_ratio">1</property>
  <property name="kdenlive:clipname">36.mp4</property>
  <property name="kdenlive:folderid">124</property>
  <property name="kdenlive:id">183</property>
  <property name="kdenlive:file_size">1575112</property>
  <property name="kdenlive:file_hash">5d49918fbf5a4ce2ec7b39ff8b444e0f</property>
  <property name="kdenlive:proxy">/home/xiaoxiae/.cache/kdenlive/proxy/5d49918fbf5a4ce2ec7b39ff8b444e0f.mkv</property>
  <property name="kdenlive:originalurl">video/Introduction/36.mp4</property>
  <property name="global_feed">1</property>
  <property name="meta.media.nb_streams">1</property>
  <property name="meta.media.0.stream.type">video</property>
  <property name="meta.media.0.stream.frame_rate">60</property>
  <property name="meta.media.0.stream.sample_aspect_ratio">0</property>
  <property name="meta.media.0.codec.width">640</property>
  <property name="meta.media.0.codec.height">360</property>
  <property name="meta.media.0.codec.rotate">0</property>
  <property name="meta.media.0.codec.frame_rate">60</property>
  <property name="meta.media.0.codec.pix_fmt">yuv420p</property>
  <property name="meta.media.0.codec.sample_aspect_ratio">0</property>
  <property name="meta.media.0.codec.colorspace">601</property>
  <property name="meta.media.0.codec.name">h264</property>
  <property name="meta.media.0.codec.long_name">H.264 / AVC / MPEG-4 AVC / MPEG-4 part 10</property>
  <property name="meta.media.0.codec.bit_rate">0</property>
  <property name="meta.attr.0.stream.HANDLER_NAME.markup">VideoHandler</property>
  <property name="meta.attr.0.stream.VENDOR_ID.markup">[0][0][0][0]</property>
  <property name="meta.attr.0.stream.ENCODER.markup">Lavc58.134.100 libx264</property>
  <property name="meta.attr.0.stream.DURATION.markup">00:00:03.500000000</property>
  <property name="meta.attr.COMMENT.markup">Rendered with Manim Community v0.6.0</property>
  <property name="meta.attr.MAJOR_BRAND.markup">isom</property>
  <property name="meta.attr.MINOR_VERSION.markup">512</property>
  <property name="meta.attr.COMPATIBLE_BRANDS.markup">isomiso2avc1mp41</property>
  <property name="meta.attr.ENCODER.markup">Lavf58.76.100</property>
  <property name="meta.media.sample_aspect_num">1</property>
  <property name="meta.media.sample_aspect_den">1</property>
  <property name="meta.media.frame_rate_num">60</property>
  <property name="meta.media.frame_rate_den">1</property>
  <property name="meta.media.colorspace">601</property>
  <property name="meta.media.color_trc">2</property>
  <property name="meta.media.width">640</property>
  <property name="meta.media.height">360</property>
  <property name="meta.media.color_range">mpeg</property>
  <property name="meta.media.top_field_first">0</property>
  <property name="meta.media.progressive">1</property>
  <property name="kdenlive:original.mlt_type">producer</property>
  <property name="kdenlive:original.in">0</property>
  <property name="kdenlive:original.out">209</property>
  <property name="kdenlive:original.length">210</property>
  <property name="kdenlive:original.eof">pause</property>
  <property name="kdenlive:original.resource">video/Introduction/36.mp4</property>
  <property name="kdenlive:original.meta.media.nb_streams">1</property>
  <property name="kdenlive:original.meta.media.0.stream.type">video</property>
  <property name="kdenlive:original.meta.media.0.stream.frame_rate">60</property>
  <property name="kdenlive:original.meta.media.0.stream.sample_aspect_ratio">0</property>
  <property name="kdenlive:original.meta.media.0.codec.width">3840</property>
  <property name="kdenlive:original.meta.media.0.codec.height">2160</property>
  <property name="kdenlive:original.meta.media.0.codec.rotate">0</property>
  <property name="kdenlive:original.meta.media.0.codec.frame_rate">60</property>
  <property name="kdenlive:original.meta.media.0.codec.pix_fmt">yuv420p</property>
  <property name="kdenlive:original.meta.media.0.codec.sample_aspect_ratio">0</property>
  <property name="kdenlive:original.meta.media.0.codec.colorspace">709</property>
  <property name="kdenlive:original.meta.media.0.codec.name">h264</property>
  <property name="kdenlive:original.meta.media.0.codec.long_name">H.264 / AVC / MPEG-4 AVC / MPEG-4 part 10</property>
  <property name="kdenlive:original.meta.media.0.codec.bit_rate">3593145</property>
  <property name="kdenlive:original.meta.attr.0.stream.handler_name.markup">VideoHandler</property>
  <property name="kdenlive:original.meta.attr.0.stream.vendor_id.markup">[0][0][0][0]</property>
  <property name="kdenlive:original.meta.attr.major_brand.markup">isom</property>
  <property name="kdenlive:original.meta.attr.minor_version.markup">512</property>
  <property name="kdenlive:original.meta.attr.compatible_brands.markup">isomiso2avc1mp41</property>
  <property name="kdenlive:original.meta.attr.encoder.markup">Lavf58.76.100</property>
  <property name="kdenlive:original.meta.attr.comment.markup">Rendered with Manim Community v0.6.0</property>
  <property name="kdenlive:original.seekable">1</property>
  <property name="kdenlive:original.width">3840</property>
  <property name="kdenlive:original.height">2160</property>
  <property name="kdenlive:original.meta.media.sample_aspect_num">1</property>
  <property name="kdenlive:original.meta.media.sample_aspect_den">1</property>
  <property name="kdenlive:original.aspect_ratio">1</property>
  <property name="kdenlive:original.audio_index">-1</property>
  <property name="kdenlive:original.video_index">0</property>
  <property name="kdenlive:original.mute_on_pause">1</property>
  <property name="kdenlive:original.mlt_service">avformat</property>
  <property name="kdenlive:original.meta.media.frame_rate_num">60</property>
  <property name="kdenlive:original.meta.media.frame_rate_den">1</property>
  <property name="kdenlive:original.meta.media.colorspace">709</property>
  <property name="kdenlive:original.meta.media.color_trc">2</property>
  <property name="kdenlive:original.meta.media.width">3840</property>
  <property name="kdenlive:original.meta.media.height">2160</property>
  <property name="kdenlive:original.meta.media.color_range">mpeg</property>
  <property name="kdenlive:original.meta.media.top_field_first">0</property>
  <property name="kdenlive:original.meta.media.progressive">1</property>
  <property name="kdenlive:original.backup">1</property>
 </producer>
 <producer id="producer224" in="00:00:00.000" out="00:00:04.983">
  <property name="length">00:00:05.000</property>
  <property name="eof">pause</property>
  <property name="resource">/home/xiaoxiae/.cache/kdenlive/proxy/76eaa09cec7f984aa7b06c5430414f92.png</property>
  <property name="ttl">25</property>
  <property name="aspect_ratio">1</property>
  <property name="progressive">1</property>
  <property name="seekable">1</property>
  <property name="meta.media.width">800</property>
  <property name="meta.media.height">450</property>
  <property name="mlt_service">qimage</property>
  <property name="kdenlive:clipname">36.png</property>
  <property name="kdenlive:duration">00:00:05.000</property>
  <property name="kdenlive:folderid">124</property>
  <property name="kdenlive:id">184</property>
  <property name="kdenlive:file_size">1549319</property>
  <property name="kdenlive:file_hash">76eaa09cec7f984aa7b06c5430414f92</property>
  <property name="kdenlive:proxy">/home/xiaoxiae/.cache/kdenlive/proxy/76eaa09cec7f984aa7b06c5430414f92.png</property>
  <property name="kdenlive:originalurl">video/Introduction/36.png</property>
  <property name="global_feed">1</property>
 </producer>
 <producer id="producer220" in="00:00:00.000" out="00:00:00.983">
  <property name="length">60</property>
  <property name="eof">pause</property>
  <property name="resource">/home/xiaoxiae/.cache/kdenlive/proxy/ae6fb1dbe766d2b5016243e2ff8a56e2.mkv</property>
  <property name="audio_index">-1</property>
  <property name="video_index">0</property>
  <property name="mute_on_pause">0</property>
  <property name="mlt_service">avformat-novalidate</property>
  <property name="seekable">1</property>
  <property name="aspect_ratio">1</property>
  <property name="kdenlive:clipname">37.mp4</property>
  <property name="kdenlive:folderid">124</property>
  <property name="kdenlive:id">185</property>
  <property name="kdenlive:file_size">344594</property>
  <property name="kdenlive:file_hash">ae6fb1dbe766d2b5016243e2ff8a56e2</property>
  <property name="kdenlive:proxy">/home/xiaoxiae/.cache/kdenlive/proxy/ae6fb1dbe766d2b5016243e2ff8a56e2.mkv</property>
  <property name="kdenlive:originalurl">video/Introduction/37.mp4</property>
  <property name="global_feed">1</property>
  <property name="meta.media.nb_streams">1</property>
  <property name="meta.media.0.stream.type">video</property>
  <property name="meta.media.0.stream.frame_rate">60</property>
  <property name="meta.media.0.stream.sample_aspect_ratio">0</property>
  <property name="meta.media.0.codec.width">640</property>
  <property name="meta.media.0.codec.height">360</property>
  <property name="meta.media.0.codec.rotate">0</property>
  <property name="meta.media.0.codec.frame_rate">60</property>
  <property name="meta.media.0.codec.pix_fmt">yuv420p</property>
  <property name="meta.media.0.codec.sample_aspect_ratio">0</property>
  <property name="meta.media.0.codec.colorspace">601</property>
  <property name="meta.media.0.codec.name">h264</property>
  <property name="meta.media.0.codec.long_name">H.264 / AVC / MPEG-4 AVC / MPEG-4 part 10</property>
  <property name="meta.media.0.codec.bit_rate">0</property>
  <property name="meta.attr.0.stream.HANDLER_NAME.markup">VideoHandler</property>
  <property name="meta.attr.0.stream.VENDOR_ID.markup">[0][0][0][0]</property>
  <property name="meta.attr.0.stream.ENCODER.markup">Lavc58.134.100 libx264</property>
  <property name="meta.attr.0.stream.DURATION.markup">00:00:01.000000000</property>
  <property name="meta.attr.COMMENT.markup">Rendered with Manim Community v0.6.0</property>
  <property name="meta.attr.MAJOR_BRAND.markup">isom</property>
  <property name="meta.attr.MINOR_VERSION.markup">512</property>
  <property name="meta.attr.COMPATIBLE_BRANDS.markup">isomiso2avc1mp41</property>
  <property name="meta.attr.ENCODER.markup">Lavf58.76.100</property>
  <property name="meta.media.sample_aspect_num">1</property>
  <property name="meta.media.sample_aspect_den">1</property>
  <property name="meta.media.frame_rate_num">60</property>
  <property name="meta.media.frame_rate_den">1</property>
  <property name="meta.media.colorspace">601</property>
  <property name="meta.media.color_trc">2</property>
  <property name="meta.media.width">640</property>
  <property name="meta.media.height">360</property>
  <property name="meta.media.color_range">mpeg</property>
  <property name="meta.media.top_field_first">0</property>
  <property name="meta.media.progressive">1</property>
  <property name="kdenlive:original.mlt_type">producer</property>
  <property name="kdenlive:original.in">0</property>
  <property name="kdenlive:original.out">59</property>
  <property name="kdenlive:original.length">60</property>
  <property name="kdenlive:original.eof">pause</property>
  <property name="kdenlive:original.resource">video/Introduction/37.mp4</property>
  <property name="kdenlive:original.meta.media.nb_streams">1</property>
  <property name="kdenlive:original.meta.media.0.stream.type">video</property>
  <property name="kdenlive:original.meta.media.0.stream.frame_rate">60</property>
  <property name="kdenlive:original.meta.media.0.stream.sample_aspect_ratio">0</property>
  <property name="kdenlive:original.meta.media.0.codec.width">3840</property>
  <property name="kdenlive:original.meta.media.0.codec.height">2160</property>
  <property name="kdenlive:original.meta.media.0.codec.rotate">0</property>
  <property name="kdenlive:original.meta.media.0.codec.frame_rate">60</property>
  <property name="kdenlive:original.meta.media.0.codec.pix_fmt">yuv420p</property>
  <property name="kdenlive:original.meta.media.0.codec.sample_aspect_ratio">0</property>
  <property name="kdenlive:original.meta.media.0.codec.colorspace">709</property>
  <property name="kdenlive:original.meta.media.0.codec.name">h264</property>
  <property name="kdenlive:original.meta.media.0.codec.long_name">H.264 / AVC / MPEG-4 AVC / MPEG-4 part 10</property>
  <property name="kdenlive:original.meta.media.0.codec.bit_rate">2744152</property>
  <property name="kdenlive:original.meta.attr.0.stream.handler_name.markup">VideoHandler</property>
  <property name="kdenlive:original.meta.attr.0.stream.vendor_id.markup">[0][0][0][0]</property>
  <property name="kdenlive:original.meta.attr.major_brand.markup">isom</property>
  <property name="kdenlive:original.meta.attr.minor_version.markup">512</property>
  <property name="kdenlive:original.meta.attr.compatible_brands.markup">isomiso2avc1mp41</property>
  <property name="kdenlive:original.meta.attr.encoder.markup">Lavf58.76.100</property>
  <property name="kdenlive:original.meta.attr.comment.markup">Rendered with Manim Community v0.6.0</property>
  <property name="kdenlive:original.seekable">1</property>
  <property name="kdenlive:original.width">3840</property>
  <property name="kdenlive:original.height">2160</property>
  <property name="kdenlive:original.meta.media.sample_aspect_num">1</property>
  <property name="kdenlive:original.meta.media.sample_aspect_den">1</property>
  <property name="kdenlive:original.aspect_ratio">1</property>
  <property name="kdenlive:original.audio_index">-1</property>
  <property name="kdenlive:original.video_index">0</property>
  <property name="kdenlive:original.mute_on_pause">1</property>
  <property name="kdenlive:original.mlt_service">avformat</property>
  <property name="kdenlive:original.meta.media.frame_rate_num">60</property>
  <property name="kdenlive:original.meta.media.frame_rate_den">1</property>
  <property name="kdenlive:original.meta.media.colorspace">709</property>
  <property name="kdenlive:original.meta.media.color_trc">2</property>
  <property name="kdenlive:original.meta.media.width">3840</property>
  <property name="kdenlive:original.meta.media.height">2160</property>
  <property name="kdenlive:original.meta.media.color_range">mpeg</property>
  <property name="kdenlive:original.meta.media.top_field_first">0</property>
  <property name="kdenlive:original.meta.media.progressive">1</property>
  <property name="kdenlive:original.backup">1</property>
 </producer>
 <producer id="producer221" in="00:00:00.000" out="00:00:04.983">
  <property name="length">00:00:05.000</property>
  <property name="eof">pause</property>
  <property name="resource">/home/xiaoxiae/.cache/kdenlive/proxy/6b665121ca7b54a5f5307b69451fd23c.png</property>
  <property name="ttl">25</property>
  <property name="aspect_ratio">1</property>
  <property name="progressive">1</property>
  <property name="seekable">1</property>
  <property name="meta.media.width">800</property>
  <property name="meta.media.height">450</property>
  <property name="mlt_service">qimage</property>
  <property name="kdenlive:clipname">37.png</property>
  <property name="kdenlive:duration">00:00:05.000</property>
  <property name="kdenlive:folderid">124</property>
  <property name="kdenlive:id">186</property>
  <property name="kdenlive:file_size">24337</property>
  <property name="kdenlive:file_hash">6b665121ca7b54a5f5307b69451fd23c</property>
  <property name="kdenlive:proxy">/home/xiaoxiae/.cache/kdenlive/proxy/6b665121ca7b54a5f5307b69451fd23c.png</property>
  <property name="kdenlive:originalurl">video/Introduction/37.png</property>
  <property name="global_feed">1</property>
 </producer>
 <producer id="producer219" in="00:00:00.000" out="00:00:00.983">
  <property name="length">60</property>
  <property name="eof">pause</property>
  <property name="resource">/home/xiaoxiae/.cache/kdenlive/proxy/88c8de13fb510a026ff6bd9264011fc0.mkv</property>
  <property name="audio_index">-1</property>
  <property name="video_index">0</property>
  <property name="mute_on_pause">0</property>
  <property name="mlt_service">avformat-novalidate</property>
  <property name="seekable">1</property>
  <property name="aspect_ratio">1</property>
  <property name="kdenlive:clipname">38.mp4</property>
  <property name="kdenlive:folderid">124</property>
  <property name="kdenlive:id">187</property>
  <property name="kdenlive:file_size">53175</property>
  <property name="kdenlive:file_hash">88c8de13fb510a026ff6bd9264011fc0</property>
  <property name="kdenlive:proxy">/home/xiaoxiae/.cache/kdenlive/proxy/88c8de13fb510a026ff6bd9264011fc0.mkv</property>
  <property name="kdenlive:originalurl">video/Introduction/38.mp4</property>
  <property name="global_feed">1</property>
  <property name="meta.media.nb_streams">1</property>
  <property name="meta.media.0.stream.type">video</property>
  <property name="meta.media.0.stream.frame_rate">60</property>
  <property name="meta.media.0.stream.sample_aspect_ratio">0</property>
  <property name="meta.media.0.codec.width">640</property>
  <property name="meta.media.0.codec.height">360</property>
  <property name="meta.media.0.codec.rotate">0</property>
  <property name="meta.media.0.codec.frame_rate">60</property>
  <property name="meta.media.0.codec.pix_fmt">yuv420p</property>
  <property name="meta.media.0.codec.sample_aspect_ratio">0</property>
  <property name="meta.media.0.codec.colorspace">601</property>
  <property name="meta.media.0.codec.name">h264</property>
  <property name="meta.media.0.codec.long_name">H.264 / AVC / MPEG-4 AVC / MPEG-4 part 10</property>
  <property name="meta.media.0.codec.bit_rate">0</property>
  <property name="meta.attr.0.stream.HANDLER_NAME.markup">VideoHandler</property>
  <property name="meta.attr.0.stream.VENDOR_ID.markup">[0][0][0][0]</property>
  <property name="meta.attr.0.stream.ENCODER.markup">Lavc58.134.100 libx264</property>
  <property name="meta.attr.0.stream.DURATION.markup">00:00:01.000000000</property>
  <property name="meta.attr.COMMENT.markup">Rendered with Manim Community v0.6.0</property>
  <property name="meta.attr.MAJOR_BRAND.markup">isom</property>
  <property name="meta.attr.MINOR_VERSION.markup">512</property>
  <property name="meta.attr.COMPATIBLE_BRANDS.markup">isomiso2avc1mp41</property>
  <property name="meta.attr.ENCODER.markup">Lavf58.76.100</property>
  <property name="meta.media.sample_aspect_num">1</property>
  <property name="meta.media.sample_aspect_den">1</property>
  <property name="meta.media.frame_rate_num">60</property>
  <property name="meta.media.frame_rate_den">1</property>
  <property name="meta.media.colorspace">601</property>
  <property name="meta.media.color_trc">2</property>
  <property name="meta.media.width">640</property>
  <property name="meta.media.height">360</property>
  <property name="meta.media.color_range">mpeg</property>
  <property name="meta.media.top_field_first">0</property>
  <property name="meta.media.progressive">1</property>
  <property name="kdenlive:original.mlt_type">producer</property>
  <property name="kdenlive:original.in">0</property>
  <property name="kdenlive:original.out">59</property>
  <property name="kdenlive:original.length">60</property>
  <property name="kdenlive:original.eof">pause</property>
  <property name="kdenlive:original.resource">video/Introduction/38.mp4</property>
  <property name="kdenlive:original.meta.media.nb_streams">1</property>
  <property name="kdenlive:original.meta.media.0.stream.type">video</property>
  <property name="kdenlive:original.meta.media.0.stream.frame_rate">60</property>
  <property name="kdenlive:original.meta.media.0.stream.sample_aspect_ratio">0</property>
  <property name="kdenlive:original.meta.media.0.codec.width">3840</property>
  <property name="kdenlive:original.meta.media.0.codec.height">2160</property>
  <property name="kdenlive:original.meta.media.0.codec.rotate">0</property>
  <property name="kdenlive:original.meta.media.0.codec.frame_rate">60</property>
  <property name="kdenlive:original.meta.media.0.codec.pix_fmt">yuv420p</property>
  <property name="kdenlive:original.meta.media.0.codec.sample_aspect_ratio">0</property>
  <property name="kdenlive:original.meta.media.0.codec.colorspace">709</property>
  <property name="kdenlive:original.meta.media.0.codec.name">h264</property>
  <property name="kdenlive:original.meta.media.0.codec.long_name">H.264 / AVC / MPEG-4 AVC / MPEG-4 part 10</property>
  <property name="kdenlive:original.meta.media.0.codec.bit_rate">412352</property>
  <property name="kdenlive:original.meta.attr.0.stream.handler_name.markup">VideoHandler</property>
  <property name="kdenlive:original.meta.attr.0.stream.vendor_id.markup">[0][0][0][0]</property>
  <property name="kdenlive:original.meta.attr.major_brand.markup">isom</property>
  <property name="kdenlive:original.meta.attr.minor_version.markup">512</property>
  <property name="kdenlive:original.meta.attr.compatible_brands.markup">isomiso2avc1mp41</property>
  <property name="kdenlive:original.meta.attr.encoder.markup">Lavf58.76.100</property>
  <property name="kdenlive:original.meta.attr.comment.markup">Rendered with Manim Community v0.6.0</property>
  <property name="kdenlive:original.seekable">1</property>
  <property name="kdenlive:original.width">3840</property>
  <property name="kdenlive:original.height">2160</property>
  <property name="kdenlive:original.meta.media.sample_aspect_num">1</property>
  <property name="kdenlive:original.meta.media.sample_aspect_den">1</property>
  <property name="kdenlive:original.aspect_ratio">1</property>
  <property name="kdenlive:original.audio_index">-1</property>
  <property name="kdenlive:original.video_index">0</property>
  <property name="kdenlive:original.mute_on_pause">1</property>
  <property name="kdenlive:original.mlt_service">avformat</property>
  <property name="kdenlive:original.meta.media.frame_rate_num">60</property>
  <property name="kdenlive:original.meta.media.frame_rate_den">1</property>
  <property name="kdenlive:original.meta.media.colorspace">709</property>
  <property name="kdenlive:original.meta.media.color_trc">2</property>
  <property name="kdenlive:original.meta.media.width">3840</property>
  <property name="kdenlive:original.meta.media.height">2160</property>
  <property name="kdenlive:original.meta.media.color_range">mpeg</property>
  <property name="kdenlive:original.meta.media.top_field_first">0</property>
  <property name="kdenlive:original.meta.media.progressive">1</property>
  <property name="kdenlive:original.backup">1</property>
 </producer>
 <producer id="producer222" in="00:00:00.000" out="00:00:04.983">
  <property name="length">00:00:05.000</property>
  <property name="eof">pause</property>
  <property name="resource">/home/xiaoxiae/.cache/kdenlive/proxy/fed423a763358a7ff33116cbbba693db.png</property>
  <property name="ttl">25</property>
  <property name="aspect_ratio">1</property>
  <property name="progressive">1</property>
  <property name="seekable">1</property>
  <property name="meta.media.width">800</property>
  <property name="meta.media.height">450</property>
  <property name="mlt_service">qimage</property>
  <property name="kdenlive:clipname">38.png</property>
  <property name="kdenlive:duration">00:00:05.000</property>
  <property name="kdenlive:folderid">124</property>
  <property name="kdenlive:id">188</property>
  <property name="kdenlive:file_size">63716</property>
  <property name="kdenlive:file_hash">fed423a763358a7ff33116cbbba693db</property>
  <property name="kdenlive:proxy">/home/xiaoxiae/.cache/kdenlive/proxy/fed423a763358a7ff33116cbbba693db.png</property>
  <property name="kdenlive:originalurl">video/Introduction/38.png</property>
  <property name="global_feed">1</property>
 </producer>
 <producer id="producer223" in="00:00:00.000" out="00:00:00.983">
  <property name="length">60</property>
  <property name="eof">pause</property>
  <property name="resource">/home/xiaoxiae/.cache/kdenlive/proxy/24abdac31a7d3a25917ff62e028821f7.mkv</property>
  <property name="audio_index">-1</property>
  <property name="video_index">0</property>
  <property name="mute_on_pause">0</property>
  <property name="mlt_service">avformat-novalidate</property>
  <property name="seekable">1</property>
  <property name="aspect_ratio">1</property>
  <property name="kdenlive:clipname">39.mp4</property>
  <property name="kdenlive:folderid">124</property>
  <property name="kdenlive:id">189</property>
  <property name="kdenlive:file_size">241804</property>
  <property name="kdenlive:file_hash">24abdac31a7d3a25917ff62e028821f7</property>
  <property name="kdenlive:proxy">/home/xiaoxiae/.cache/kdenlive/proxy/24abdac31a7d3a25917ff62e028821f7.mkv</property>
  <property name="kdenlive:originalurl">video/Introduction/39.mp4</property>
  <property name="global_feed">1</property>
  <property name="meta.media.nb_streams">1</property>
  <property name="meta.media.0.stream.type">video</property>
  <property name="meta.media.0.stream.frame_rate">60</property>
  <property name="meta.media.0.stream.sample_aspect_ratio">0</property>
  <property name="meta.media.0.codec.width">640</property>
  <property name="meta.media.0.codec.height">360</property>
  <property name="meta.media.0.codec.rotate">0</property>
  <property name="meta.media.0.codec.frame_rate">60</property>
  <property name="meta.media.0.codec.pix_fmt">yuv420p</property>
  <property name="meta.media.0.codec.sample_aspect_ratio">0</property>
  <property name="meta.media.0.codec.colorspace">601</property>
  <property name="meta.media.0.codec.name">h264</property>
  <property name="meta.media.0.codec.long_name">H.264 / AVC / MPEG-4 AVC / MPEG-4 part 10</property>
  <property name="meta.media.0.codec.bit_rate">0</property>
  <property name="meta.attr.0.stream.HANDLER_NAME.markup">VideoHandler</property>
  <property name="meta.attr.0.stream.VENDOR_ID.markup">[0][0][0][0]</property>
  <property name="meta.attr.0.stream.ENCODER.markup">Lavc58.134.100 libx264</property>
  <property name="meta.attr.0.stream.DURATION.markup">00:00:01.000000000</property>
  <property name="meta.attr.COMMENT.markup">Rendered with Manim Community v0.6.0</property>
  <property name="meta.attr.MAJOR_BRAND.markup">isom</property>
  <property name="meta.attr.MINOR_VERSION.markup">512</property>
  <property name="meta.attr.COMPATIBLE_BRANDS.markup">isomiso2avc1mp41</property>
  <property name="meta.attr.ENCODER.markup">Lavf58.76.100</property>
  <property name="meta.media.sample_aspect_num">1</property>
  <property name="meta.media.sample_aspect_den">1</property>
  <property name="meta.media.frame_rate_num">60</property>
  <property name="meta.media.frame_rate_den">1</property>
  <property name="meta.media.colorspace">601</property>
  <property name="meta.media.color_trc">2</property>
  <property name="meta.media.width">640</property>
  <property name="meta.media.height">360</property>
  <property name="meta.media.color_range">mpeg</property>
  <property name="meta.media.top_field_first">0</property>
  <property name="meta.media.progressive">1</property>
  <property name="kdenlive:original.mlt_type">producer</property>
  <property name="kdenlive:original.in">0</property>
  <property name="kdenlive:original.out">59</property>
  <property name="kdenlive:original.length">60</property>
  <property name="kdenlive:original.eof">pause</property>
  <property name="kdenlive:original.resource">video/Introduction/39.mp4</property>
  <property name="kdenlive:original.meta.media.nb_streams">1</property>
  <property name="kdenlive:original.meta.media.0.stream.type">video</property>
  <property name="kdenlive:original.meta.media.0.stream.frame_rate">60</property>
  <property name="kdenlive:original.meta.media.0.stream.sample_aspect_ratio">0</property>
  <property name="kdenlive:original.meta.media.0.codec.width">3840</property>
  <property name="kdenlive:original.meta.media.0.codec.height">2160</property>
  <property name="kdenlive:original.meta.media.0.codec.rotate">0</property>
  <property name="kdenlive:original.meta.media.0.codec.frame_rate">60</property>
  <property name="kdenlive:original.meta.media.0.codec.pix_fmt">yuv420p</property>
  <property name="kdenlive:original.meta.media.0.codec.sample_aspect_ratio">0</property>
  <property name="kdenlive:original.meta.media.0.codec.colorspace">709</property>
  <property name="kdenlive:original.meta.media.0.codec.name">h264</property>
  <property name="kdenlive:original.meta.media.0.codec.long_name">H.264 / AVC / MPEG-4 AVC / MPEG-4 part 10</property>
  <property name="kdenlive:original.meta.media.0.codec.bit_rate">1921384</property>
  <property name="kdenlive:original.meta.attr.0.stream.handler_name.markup">VideoHandler</property>
  <property name="kdenlive:original.meta.attr.0.stream.vendor_id.markup">[0][0][0][0]</property>
  <property name="kdenlive:original.meta.attr.major_brand.markup">isom</property>
  <property name="kdenlive:original.meta.attr.minor_version.markup">512</property>
  <property name="kdenlive:original.meta.attr.compatible_brands.markup">isomiso2avc1mp41</property>
  <property name="kdenlive:original.meta.attr.encoder.markup">Lavf58.76.100</property>
  <property name="kdenlive:original.meta.attr.comment.markup">Rendered with Manim Community v0.6.0</property>
  <property name="kdenlive:original.seekable">1</property>
  <property name="kdenlive:original.width">3840</property>
  <property name="kdenlive:original.height">2160</property>
  <property name="kdenlive:original.meta.media.sample_aspect_num">1</property>
  <property name="kdenlive:original.meta.media.sample_aspect_den">1</property>
  <property name="kdenlive:original.aspect_ratio">1</property>
  <property name="kdenlive:original.audio_index">-1</property>
  <property name="kdenlive:original.video_index">0</property>
  <property name="kdenlive:original.mute_on_pause">1</property>
  <property name="kdenlive:original.mlt_service">avformat</property>
  <property name="kdenlive:original.meta.media.frame_rate_num">60</property>
  <property name="kdenlive:original.meta.media.frame_rate_den">1</property>
  <property name="kdenlive:original.meta.media.colorspace">709</property>
  <property name="kdenlive:original.meta.media.color_trc">2</property>
  <property name="kdenlive:original.meta.media.width">3840</property>
  <property name="kdenlive:original.meta.media.height">2160</property>
  <property name="kdenlive:original.meta.media.color_range">mpeg</property>
  <property name="kdenlive:original.meta.media.top_field_first">0</property>
  <property name="kdenlive:original.meta.media.progressive">1</property>
  <property name="kdenlive:original.backup">1</property>
 </producer>
 <producer id="producer226" in="00:00:00.000" out="00:00:04.983">
  <property name="length">00:00:05.000</property>
  <property name="eof">pause</property>
  <property name="resource">/home/xiaoxiae/.cache/kdenlive/proxy/fd8292512425b35d3f1cea94e860c22b.png</property>
  <property name="ttl">25</property>
  <property name="aspect_ratio">1</property>
  <property name="progressive">1</property>
  <property name="seekable">1</property>
  <property name="meta.media.width">800</property>
  <property name="meta.media.height">450</property>
  <property name="mlt_service">qimage</property>
  <property name="kdenlive:clipname">39.png</property>
  <property name="kdenlive:duration">00:00:05.000</property>
  <property name="kdenlive:folderid">124</property>
  <property name="kdenlive:id">190</property>
  <property name="kdenlive:file_size">309375</property>
  <property name="kdenlive:file_hash">fd8292512425b35d3f1cea94e860c22b</property>
  <property name="kdenlive:proxy">/home/xiaoxiae/.cache/kdenlive/proxy/fd8292512425b35d3f1cea94e860c22b.png</property>
  <property name="kdenlive:originalurl">video/Introduction/39.png</property>
  <property name="global_feed">1</property>
 </producer>
 <producer id="producer231" in="00:00:00.000" out="00:00:01.983">
  <property name="length">120</property>
  <property name="eof">pause</property>
  <property name="resource">/home/xiaoxiae/.cache/kdenlive/proxy/8772c6a6d3096a7819fa3980c8b6545b.mkv</property>
  <property name="audio_index">-1</property>
  <property name="video_index">0</property>
  <property name="mute_on_pause">0</property>
  <property name="mlt_service">avformat-novalidate</property>
  <property name="seekable">1</property>
  <property name="aspect_ratio">1</property>
  <property name="kdenlive:clipname">4.mp4</property>
  <property name="kdenlive:folderid">124</property>
  <property name="kdenlive:id">191</property>
  <property name="kdenlive:file_size">205529</property>
  <property name="kdenlive:file_hash">8772c6a6d3096a7819fa3980c8b6545b</property>
  <property name="kdenlive:proxy">/home/xiaoxiae/.cache/kdenlive/proxy/8772c6a6d3096a7819fa3980c8b6545b.mkv</property>
  <property name="kdenlive:originalurl">video/Introduction/4.mp4</property>
  <property name="global_feed">1</property>
  <property name="meta.media.nb_streams">1</property>
  <property name="meta.media.0.stream.type">video</property>
  <property name="meta.media.0.stream.frame_rate">60</property>
  <property name="meta.media.0.stream.sample_aspect_ratio">0</property>
  <property name="meta.media.0.codec.width">640</property>
  <property name="meta.media.0.codec.height">360</property>
  <property name="meta.media.0.codec.rotate">0</property>
  <property name="meta.media.0.codec.frame_rate">60</property>
  <property name="meta.media.0.codec.pix_fmt">yuv420p</property>
  <property name="meta.media.0.codec.sample_aspect_ratio">0</property>
  <property name="meta.media.0.codec.colorspace">601</property>
  <property name="meta.media.0.codec.name">h264</property>
  <property name="meta.media.0.codec.long_name">H.264 / AVC / MPEG-4 AVC / MPEG-4 part 10</property>
  <property name="meta.media.0.codec.bit_rate">0</property>
  <property name="meta.attr.0.stream.HANDLER_NAME.markup">VideoHandler</property>
  <property name="meta.attr.0.stream.VENDOR_ID.markup">[0][0][0][0]</property>
  <property name="meta.attr.0.stream.ENCODER.markup">Lavc58.134.100 libx264</property>
  <property name="meta.attr.0.stream.DURATION.markup">00:00:02.000000000</property>
  <property name="meta.attr.COMMENT.markup">Rendered with Manim Community v0.6.0</property>
  <property name="meta.attr.MAJOR_BRAND.markup">isom</property>
  <property name="meta.attr.MINOR_VERSION.markup">512</property>
  <property name="meta.attr.COMPATIBLE_BRANDS.markup">isomiso2avc1mp41</property>
  <property name="meta.attr.ENCODER.markup">Lavf58.76.100</property>
  <property name="meta.media.sample_aspect_num">1</property>
  <property name="meta.media.sample_aspect_den">1</property>
  <property name="meta.media.frame_rate_num">60</property>
  <property name="meta.media.frame_rate_den">1</property>
  <property name="meta.media.colorspace">601</property>
  <property name="meta.media.color_trc">2</property>
  <property name="meta.media.width">640</property>
  <property name="meta.media.height">360</property>
  <property name="meta.media.color_range">mpeg</property>
  <property name="meta.media.top_field_first">0</property>
  <property name="meta.media.progressive">1</property>
  <property name="kdenlive:original.mlt_type">producer</property>
  <property name="kdenlive:original.in">0</property>
  <property name="kdenlive:original.out">119</property>
  <property name="kdenlive:original.length">120</property>
  <property name="kdenlive:original.eof">pause</property>
  <property name="kdenlive:original.resource">video/Introduction/4.mp4</property>
  <property name="kdenlive:original.meta.media.nb_streams">1</property>
  <property name="kdenlive:original.meta.media.0.stream.type">video</property>
  <property name="kdenlive:original.meta.media.0.stream.frame_rate">60</property>
  <property name="kdenlive:original.meta.media.0.stream.sample_aspect_ratio">0</property>
  <property name="kdenlive:original.meta.media.0.codec.width">3840</property>
  <property name="kdenlive:original.meta.media.0.codec.height">2160</property>
  <property name="kdenlive:original.meta.media.0.codec.rotate">0</property>
  <property name="kdenlive:original.meta.media.0.codec.frame_rate">60</property>
  <property name="kdenlive:original.meta.media.0.codec.pix_fmt">yuv420p</property>
  <property name="kdenlive:original.meta.media.0.codec.sample_aspect_ratio">0</property>
  <property name="kdenlive:original.meta.media.0.codec.colorspace">709</property>
  <property name="kdenlive:original.meta.media.0.codec.name">h264</property>
  <property name="kdenlive:original.meta.media.0.codec.long_name">H.264 / AVC / MPEG-4 AVC / MPEG-4 part 10</property>
  <property name="kdenlive:original.meta.media.0.codec.bit_rate">812712</property>
  <property name="kdenlive:original.meta.attr.0.stream.handler_name.markup">VideoHandler</property>
  <property name="kdenlive:original.meta.attr.0.stream.vendor_id.markup">[0][0][0][0]</property>
  <property name="kdenlive:original.meta.attr.major_brand.markup">isom</property>
  <property name="kdenlive:original.meta.attr.minor_version.markup">512</property>
  <property name="kdenlive:original.meta.attr.compatible_brands.markup">isomiso2avc1mp41</property>
  <property name="kdenlive:original.meta.attr.encoder.markup">Lavf58.76.100</property>
  <property name="kdenlive:original.meta.attr.comment.markup">Rendered with Manim Community v0.6.0</property>
  <property name="kdenlive:original.seekable">1</property>
  <property name="kdenlive:original.width">3840</property>
  <property name="kdenlive:original.height">2160</property>
  <property name="kdenlive:original.meta.media.sample_aspect_num">1</property>
  <property name="kdenlive:original.meta.media.sample_aspect_den">1</property>
  <property name="kdenlive:original.aspect_ratio">1</property>
  <property name="kdenlive:original.audio_index">-1</property>
  <property name="kdenlive:original.video_index">0</property>
  <property name="kdenlive:original.mute_on_pause">1</property>
  <property name="kdenlive:original.mlt_service">avformat</property>
  <property name="kdenlive:original.meta.media.frame_rate_num">60</property>
  <property name="kdenlive:original.meta.media.frame_rate_den">1</property>
  <property name="kdenlive:original.meta.media.colorspace">709</property>
  <property name="kdenlive:original.meta.media.color_trc">2</property>
  <property name="kdenlive:original.meta.media.width">3840</property>
  <property name="kdenlive:original.meta.media.height">2160</property>
  <property name="kdenlive:original.meta.media.color_range">mpeg</property>
  <property name="kdenlive:original.meta.media.top_field_first">0</property>
  <property name="kdenlive:original.meta.media.progressive">1</property>
  <property name="kdenlive:original.backup">1</property>
 </producer>
 <producer id="producer228" in="00:00:00.000" out="00:00:04.983">
  <property name="length">00:00:05.000</property>
  <property name="eof">pause</property>
  <property name="resource">/home/xiaoxiae/.cache/kdenlive/proxy/2fdbfab30749ff9304f4c18d491d6460.png</property>
  <property name="ttl">25</property>
  <property name="aspect_ratio">1</property>
  <property name="progressive">1</property>
  <property name="seekable">1</property>
  <property name="meta.media.width">800</property>
  <property name="meta.media.height">450</property>
  <property name="mlt_service">qimage</property>
  <property name="kdenlive:clipname">4.png</property>
  <property name="kdenlive:duration">00:00:05.000</property>
  <property name="kdenlive:folderid">124</property>
  <property name="kdenlive:id">192</property>
  <property name="kdenlive:file_size">311426</property>
  <property name="kdenlive:file_hash">2fdbfab30749ff9304f4c18d491d6460</property>
  <property name="kdenlive:proxy">/home/xiaoxiae/.cache/kdenlive/proxy/2fdbfab30749ff9304f4c18d491d6460.png</property>
  <property name="kdenlive:originalurl">video/Introduction/4.png</property>
  <property name="global_feed">1</property>
 </producer>
 <producer id="producer227" in="00:00:00.000" out="00:00:00.983">
  <property name="length">60</property>
  <property name="eof">pause</property>
  <property name="resource">/home/xiaoxiae/.cache/kdenlive/proxy/8f16dcd1946b7e7e1a2c097096c00247.mkv</property>
  <property name="audio_index">-1</property>
  <property name="video_index">0</property>
  <property name="mute_on_pause">0</property>
  <property name="mlt_service">avformat-novalidate</property>
  <property name="seekable">1</property>
  <property name="aspect_ratio">1</property>
  <property name="kdenlive:clipname">40.mp4</property>
  <property name="kdenlive:folderid">124</property>
  <property name="kdenlive:id">193</property>
  <property name="kdenlive:file_size">74817</property>
  <property name="kdenlive:file_hash">8f16dcd1946b7e7e1a2c097096c00247</property>
  <property name="kdenlive:proxy">/home/xiaoxiae/.cache/kdenlive/proxy/8f16dcd1946b7e7e1a2c097096c00247.mkv</property>
  <property name="kdenlive:originalurl">video/Introduction/40.mp4</property>
  <property name="global_feed">1</property>
  <property name="meta.media.nb_streams">1</property>
  <property name="meta.media.0.stream.type">video</property>
  <property name="meta.media.0.stream.frame_rate">60</property>
  <property name="meta.media.0.stream.sample_aspect_ratio">0</property>
  <property name="meta.media.0.codec.width">640</property>
  <property name="meta.media.0.codec.height">360</property>
  <property name="meta.media.0.codec.rotate">0</property>
  <property name="meta.media.0.codec.frame_rate">60</property>
  <property name="meta.media.0.codec.pix_fmt">yuv420p</property>
  <property name="meta.media.0.codec.sample_aspect_ratio">0</property>
  <property name="meta.media.0.codec.colorspace">601</property>
  <property name="meta.media.0.codec.name">h264</property>
  <property name="meta.media.0.codec.long_name">H.264 / AVC / MPEG-4 AVC / MPEG-4 part 10</property>
  <property name="meta.media.0.codec.bit_rate">0</property>
  <property name="meta.attr.0.stream.HANDLER_NAME.markup">VideoHandler</property>
  <property name="meta.attr.0.stream.VENDOR_ID.markup">[0][0][0][0]</property>
  <property name="meta.attr.0.stream.ENCODER.markup">Lavc58.134.100 libx264</property>
  <property name="meta.attr.0.stream.DURATION.markup">00:00:01.000000000</property>
  <property name="meta.attr.COMMENT.markup">Rendered with Manim Community v0.6.0</property>
  <property name="meta.attr.MAJOR_BRAND.markup">isom</property>
  <property name="meta.attr.MINOR_VERSION.markup">512</property>
  <property name="meta.attr.COMPATIBLE_BRANDS.markup">isomiso2avc1mp41</property>
  <property name="meta.attr.ENCODER.markup">Lavf58.76.100</property>
  <property name="meta.media.sample_aspect_num">1</property>
  <property name="meta.media.sample_aspect_den">1</property>
  <property name="meta.media.frame_rate_num">60</property>
  <property name="meta.media.frame_rate_den">1</property>
  <property name="meta.media.colorspace">601</property>
  <property name="meta.media.color_trc">2</property>
  <property name="meta.media.width">640</property>
  <property name="meta.media.height">360</property>
  <property name="meta.media.color_range">mpeg</property>
  <property name="meta.media.top_field_first">0</property>
  <property name="meta.media.progressive">1</property>
  <property name="kdenlive:original.mlt_type">producer</property>
  <property name="kdenlive:original.in">0</property>
  <property name="kdenlive:original.out">59</property>
  <property name="kdenlive:original.length">60</property>
  <property name="kdenlive:original.eof">pause</property>
  <property name="kdenlive:original.resource">video/Introduction/40.mp4</property>
  <property name="kdenlive:original.meta.media.nb_streams">1</property>
  <property name="kdenlive:original.meta.media.0.stream.type">video</property>
  <property name="kdenlive:original.meta.media.0.stream.frame_rate">60</property>
  <property name="kdenlive:original.meta.media.0.stream.sample_aspect_ratio">0</property>
  <property name="kdenlive:original.meta.media.0.codec.width">3840</property>
  <property name="kdenlive:original.meta.media.0.codec.height">2160</property>
  <property name="kdenlive:original.meta.media.0.codec.rotate">0</property>
  <property name="kdenlive:original.meta.media.0.codec.frame_rate">60</property>
  <property name="kdenlive:original.meta.media.0.codec.pix_fmt">yuv420p</property>
  <property name="kdenlive:original.meta.media.0.codec.sample_aspect_ratio">0</property>
  <property name="kdenlive:original.meta.media.0.codec.colorspace">709</property>
  <property name="kdenlive:original.meta.media.0.codec.name">h264</property>
  <property name="kdenlive:original.meta.media.0.codec.long_name">H.264 / AVC / MPEG-4 AVC / MPEG-4 part 10</property>
  <property name="kdenlive:original.meta.media.0.codec.bit_rate">585488</property>
  <property name="kdenlive:original.meta.attr.0.stream.handler_name.markup">VideoHandler</property>
  <property name="kdenlive:original.meta.attr.0.stream.vendor_id.markup">[0][0][0][0]</property>
  <property name="kdenlive:original.meta.attr.major_brand.markup">isom</property>
  <property name="kdenlive:original.meta.attr.minor_version.markup">512</property>
  <property name="kdenlive:original.meta.attr.compatible_brands.markup">isomiso2avc1mp41</property>
  <property name="kdenlive:original.meta.attr.encoder.markup">Lavf58.76.100</property>
  <property name="kdenlive:original.meta.attr.comment.markup">Rendered with Manim Community v0.6.0</property>
  <property name="kdenlive:original.seekable">1</property>
  <property name="kdenlive:original.width">3840</property>
  <property name="kdenlive:original.height">2160</property>
  <property name="kdenlive:original.meta.media.sample_aspect_num">1</property>
  <property name="kdenlive:original.meta.media.sample_aspect_den">1</property>
  <property name="kdenlive:original.aspect_ratio">1</property>
  <property name="kdenlive:original.audio_index">-1</property>
  <property name="kdenlive:original.video_index">0</property>
  <property name="kdenlive:original.mute_on_pause">1</property>
  <property name="kdenlive:original.mlt_service">avformat</property>
  <property name="kdenlive:original.meta.media.frame_rate_num">60</property>
  <property name="kdenlive:original.meta.media.frame_rate_den">1</property>
  <property name="kdenlive:original.meta.media.colorspace">709</property>
  <property name="kdenlive:original.meta.media.color_trc">2</property>
  <property name="kdenlive:original.meta.media.width">3840</property>
  <property name="kdenlive:original.meta.media.height">2160</property>
  <property name="kdenlive:original.meta.media.color_range">mpeg</property>
  <property name="kdenlive:original.meta.media.top_field_first">0</property>
  <property name="kdenlive:original.meta.media.progressive">1</property>
  <property name="kdenlive:original.backup">1</property>
 </producer>
 <producer id="producer230" in="00:00:00.000" out="00:00:04.983">
  <property name="length">00:00:05.000</property>
  <property name="eof">pause</property>
  <property name="resource">/home/xiaoxiae/.cache/kdenlive/proxy/4424bdf1e3988b7548765ca6d928c3be.png</property>
  <property name="ttl">25</property>
  <property name="aspect_ratio">1</property>
  <property name="progressive">1</property>
  <property name="seekable">1</property>
  <property name="meta.media.width">800</property>
  <property name="meta.media.height">450</property>
  <property name="mlt_service">qimage</property>
  <property name="kdenlive:clipname">40.png</property>
  <property name="kdenlive:duration">00:00:05.000</property>
  <property name="kdenlive:folderid">124</property>
  <property name="kdenlive:id">194</property>
  <property name="kdenlive:file_size">265953</property>
  <property name="kdenlive:file_hash">4424bdf1e3988b7548765ca6d928c3be</property>
  <property name="kdenlive:proxy">/home/xiaoxiae/.cache/kdenlive/proxy/4424bdf1e3988b7548765ca6d928c3be.png</property>
  <property name="kdenlive:originalurl">video/Introduction/40.png</property>
  <property name="global_feed">1</property>
 </producer>
 <producer id="producer229" in="00:00:00.000" out="00:00:00.983">
  <property name="length">60</property>
  <property name="eof">pause</property>
  <property name="resource">/home/xiaoxiae/.cache/kdenlive/proxy/9fe4e8d6c090aa232b96bf9ccc99b0c0.mkv</property>
  <property name="audio_index">-1</property>
  <property name="video_index">0</property>
  <property name="mute_on_pause">0</property>
  <property name="mlt_service">avformat-novalidate</property>
  <property name="seekable">1</property>
  <property name="aspect_ratio">1</property>
  <property name="kdenlive:clipname">41.mp4</property>
  <property name="kdenlive:folderid">124</property>
  <property name="kdenlive:id">195</property>
  <property name="kdenlive:file_size">196942</property>
  <property name="kdenlive:file_hash">9fe4e8d6c090aa232b96bf9ccc99b0c0</property>
  <property name="kdenlive:proxy">/home/xiaoxiae/.cache/kdenlive/proxy/9fe4e8d6c090aa232b96bf9ccc99b0c0.mkv</property>
  <property name="kdenlive:originalurl">video/Introduction/41.mp4</property>
  <property name="global_feed">1</property>
  <property name="meta.media.nb_streams">1</property>
  <property name="meta.media.0.stream.type">video</property>
  <property name="meta.media.0.stream.frame_rate">60</property>
  <property name="meta.media.0.stream.sample_aspect_ratio">0</property>
  <property name="meta.media.0.codec.width">640</property>
  <property name="meta.media.0.codec.height">360</property>
  <property name="meta.media.0.codec.rotate">0</property>
  <property name="meta.media.0.codec.frame_rate">60</property>
  <property name="meta.media.0.codec.pix_fmt">yuv420p</property>
  <property name="meta.media.0.codec.sample_aspect_ratio">0</property>
  <property name="meta.media.0.codec.colorspace">601</property>
  <property name="meta.media.0.codec.name">h264</property>
  <property name="meta.media.0.codec.long_name">H.264 / AVC / MPEG-4 AVC / MPEG-4 part 10</property>
  <property name="meta.media.0.codec.bit_rate">0</property>
  <property name="meta.attr.0.stream.HANDLER_NAME.markup">VideoHandler</property>
  <property name="meta.attr.0.stream.VENDOR_ID.markup">[0][0][0][0]</property>
  <property name="meta.attr.0.stream.ENCODER.markup">Lavc58.134.100 libx264</property>
  <property name="meta.attr.0.stream.DURATION.markup">00:00:01.000000000</property>
  <property name="meta.attr.COMMENT.markup">Rendered with Manim Community v0.6.0</property>
  <property name="meta.attr.MAJOR_BRAND.markup">isom</property>
  <property name="meta.attr.MINOR_VERSION.markup">512</property>
  <property name="meta.attr.COMPATIBLE_BRANDS.markup">isomiso2avc1mp41</property>
  <property name="meta.attr.ENCODER.markup">Lavf58.76.100</property>
  <property name="meta.media.sample_aspect_num">1</property>
  <property name="meta.media.sample_aspect_den">1</property>
  <property name="meta.media.frame_rate_num">60</property>
  <property name="meta.media.frame_rate_den">1</property>
  <property name="meta.media.colorspace">601</property>
  <property name="meta.media.color_trc">2</property>
  <property name="meta.media.width">640</property>
  <property name="meta.media.height">360</property>
  <property name="meta.media.color_range">mpeg</property>
  <property name="meta.media.top_field_first">0</property>
  <property name="meta.media.progressive">1</property>
  <property name="kdenlive:original.mlt_type">producer</property>
  <property name="kdenlive:original.in">0</property>
  <property name="kdenlive:original.out">59</property>
  <property name="kdenlive:original.length">60</property>
  <property name="kdenlive:original.eof">pause</property>
  <property name="kdenlive:original.resource">video/Introduction/41.mp4</property>
  <property name="kdenlive:original.meta.media.nb_streams">1</property>
  <property name="kdenlive:original.meta.media.0.stream.type">video</property>
  <property name="kdenlive:original.meta.media.0.stream.frame_rate">60</property>
  <property name="kdenlive:original.meta.media.0.stream.sample_aspect_ratio">0</property>
  <property name="kdenlive:original.meta.media.0.codec.width">3840</property>
  <property name="kdenlive:original.meta.media.0.codec.height">2160</property>
  <property name="kdenlive:original.meta.media.0.codec.rotate">0</property>
  <property name="kdenlive:original.meta.media.0.codec.frame_rate">60</property>
  <property name="kdenlive:original.meta.media.0.codec.pix_fmt">yuv420p</property>
  <property name="kdenlive:original.meta.media.0.codec.sample_aspect_ratio">0</property>
  <property name="kdenlive:original.meta.media.0.codec.colorspace">709</property>
  <property name="kdenlive:original.meta.media.0.codec.name">h264</property>
  <property name="kdenlive:original.meta.media.0.codec.long_name">H.264 / AVC / MPEG-4 AVC / MPEG-4 part 10</property>
  <property name="kdenlive:original.meta.media.0.codec.bit_rate">1562488</property>
  <property name="kdenlive:original.meta.attr.0.stream.handler_name.markup">VideoHandler</property>
  <property name="kdenlive:original.meta.attr.0.stream.vendor_id.markup">[0][0][0][0]</property>
  <property name="kdenlive:original.meta.attr.major_brand.markup">isom</property>
  <property name="kdenlive:original.meta.attr.minor_version.markup">512</property>
  <property name="kdenlive:original.meta.attr.compatible_brands.markup">isomiso2avc1mp41</property>
  <property name="kdenlive:original.meta.attr.encoder.markup">Lavf58.76.100</property>
  <property name="kdenlive:original.meta.attr.comment.markup">Rendered with Manim Community v0.6.0</property>
  <property name="kdenlive:original.seekable">1</property>
  <property name="kdenlive:original.width">3840</property>
  <property name="kdenlive:original.height">2160</property>
  <property name="kdenlive:original.meta.media.sample_aspect_num">1</property>
  <property name="kdenlive:original.meta.media.sample_aspect_den">1</property>
  <property name="kdenlive:original.aspect_ratio">1</property>
  <property name="kdenlive:original.audio_index">-1</property>
  <property name="kdenlive:original.video_index">0</property>
  <property name="kdenlive:original.mute_on_pause">1</property>
  <property name="kdenlive:original.mlt_service">avformat</property>
  <property name="kdenlive:original.meta.media.frame_rate_num">60</property>
  <property name="kdenlive:original.meta.media.frame_rate_den">1</property>
  <property name="kdenlive:original.meta.media.colorspace">709</property>
  <property name="kdenlive:original.meta.media.color_trc">2</property>
  <property name="kdenlive:original.meta.media.width">3840</property>
  <property name="kdenlive:original.meta.media.height">2160</property>
  <property name="kdenlive:original.meta.media.color_range">mpeg</property>
  <property name="kdenlive:original.meta.media.top_field_first">0</property>
  <property name="kdenlive:original.meta.media.progressive">1</property>
  <property name="kdenlive:original.backup">1</property>
 </producer>
 <producer id="producer232" in="00:00:00.000" out="00:00:06.617">
  <property name="length">398</property>
  <property name="eof">pause</property>
  <property name="resource">/home/xiaoxiae/.cache/kdenlive/proxy/ec955a7c1a49a19ae2175436c3c49ffe.png</property>
  <property name="ttl">25</property>
  <property name="aspect_ratio">1</property>
  <property name="progressive">1</property>
  <property name="seekable">1</property>
  <property name="meta.media.width">800</property>
  <property name="meta.media.height">450</property>
  <property name="mlt_service">qimage</property>
  <property name="kdenlive:clipname">41.png</property>
  <property name="kdenlive:duration">00:00:05.000</property>
  <property name="kdenlive:folderid">124</property>
  <property name="kdenlive:id">196</property>
  <property name="kdenlive:file_size">453680</property>
  <property name="kdenlive:file_hash">ec955a7c1a49a19ae2175436c3c49ffe</property>
  <property name="kdenlive:proxy">/home/xiaoxiae/.cache/kdenlive/proxy/ec955a7c1a49a19ae2175436c3c49ffe.png</property>
  <property name="kdenlive:originalurl">video/Introduction/41.png</property>
  <property name="global_feed">1</property>
  <property name="kdenlive:original.mlt_type">producer</property>
  <property name="kdenlive:original.in">0</property>
  <property name="kdenlive:original.out">14999</property>
  <property name="kdenlive:original.length">15000</property>
  <property name="kdenlive:original.eof">pause</property>
  <property name="kdenlive:original.resource">video/Introduction/41.png</property>
  <property name="kdenlive:original.ttl">25</property>
  <property name="kdenlive:original.aspect_ratio">1</property>
  <property name="kdenlive:original.progressive">1</property>
  <property name="kdenlive:original.seekable">1</property>
  <property name="kdenlive:original.meta.media.width">3840</property>
  <property name="kdenlive:original.meta.media.height">2160</property>
  <property name="kdenlive:original.mlt_service">qimage</property>
  <property name="kdenlive:original.backup">1</property>
 </producer>
 <producer id="producer233" in="00:00:00.000" out="00:00:00.983">
  <property name="length">60</property>
  <property name="eof">pause</property>
  <property name="resource">/home/xiaoxiae/.cache/kdenlive/proxy/6d2a281b0cae61b675fd101ebadfdb81.mkv</property>
  <property name="audio_index">-1</property>
  <property name="video_index">0</property>
  <property name="mute_on_pause">0</property>
  <property name="mlt_service">avformat-novalidate</property>
  <property name="seekable">1</property>
  <property name="aspect_ratio">1</property>
  <property name="kdenlive:clipname">42.mp4</property>
  <property name="kdenlive:folderid">124</property>
  <property name="kdenlive:id">197</property>
  <property name="kdenlive:file_size">106223</property>
  <property name="kdenlive:file_hash">6d2a281b0cae61b675fd101ebadfdb81</property>
  <property name="kdenlive:proxy">/home/xiaoxiae/.cache/kdenlive/proxy/6d2a281b0cae61b675fd101ebadfdb81.mkv</property>
  <property name="kdenlive:originalurl">video/Introduction/42.mp4</property>
  <property name="global_feed">1</property>
  <property name="meta.media.nb_streams">1</property>
  <property name="meta.media.0.stream.type">video</property>
  <property name="meta.media.0.stream.frame_rate">60</property>
  <property name="meta.media.0.stream.sample_aspect_ratio">0</property>
  <property name="meta.media.0.codec.width">640</property>
  <property name="meta.media.0.codec.height">360</property>
  <property name="meta.media.0.codec.rotate">0</property>
  <property name="meta.media.0.codec.frame_rate">60</property>
  <property name="meta.media.0.codec.pix_fmt">yuv420p</property>
  <property name="meta.media.0.codec.sample_aspect_ratio">0</property>
  <property name="meta.media.0.codec.colorspace">601</property>
  <property name="meta.media.0.codec.name">h264</property>
  <property name="meta.media.0.codec.long_name">H.264 / AVC / MPEG-4 AVC / MPEG-4 part 10</property>
  <property name="meta.media.0.codec.bit_rate">0</property>
  <property name="meta.attr.0.stream.HANDLER_NAME.markup">VideoHandler</property>
  <property name="meta.attr.0.stream.VENDOR_ID.markup">[0][0][0][0]</property>
  <property name="meta.attr.0.stream.ENCODER.markup">Lavc58.134.100 libx264</property>
  <property name="meta.attr.0.stream.DURATION.markup">00:00:01.000000000</property>
  <property name="meta.attr.COMMENT.markup">Rendered with Manim Community v0.6.0</property>
  <property name="meta.attr.MAJOR_BRAND.markup">isom</property>
  <property name="meta.attr.MINOR_VERSION.markup">512</property>
  <property name="meta.attr.COMPATIBLE_BRANDS.markup">isomiso2avc1mp41</property>
  <property name="meta.attr.ENCODER.markup">Lavf58.76.100</property>
  <property name="meta.media.sample_aspect_num">1</property>
  <property name="meta.media.sample_aspect_den">1</property>
  <property name="meta.media.frame_rate_num">60</property>
  <property name="meta.media.frame_rate_den">1</property>
  <property name="meta.media.colorspace">601</property>
  <property name="meta.media.color_trc">2</property>
  <property name="meta.media.width">640</property>
  <property name="meta.media.height">360</property>
  <property name="meta.media.color_range">mpeg</property>
  <property name="meta.media.top_field_first">0</property>
  <property name="meta.media.progressive">1</property>
  <property name="kdenlive:original.mlt_type">producer</property>
  <property name="kdenlive:original.in">0</property>
  <property name="kdenlive:original.out">59</property>
  <property name="kdenlive:original.length">60</property>
  <property name="kdenlive:original.eof">pause</property>
  <property name="kdenlive:original.resource">video/Introduction/42.mp4</property>
  <property name="kdenlive:original.meta.media.nb_streams">1</property>
  <property name="kdenlive:original.meta.media.0.stream.type">video</property>
  <property name="kdenlive:original.meta.media.0.stream.frame_rate">60</property>
  <property name="kdenlive:original.meta.media.0.stream.sample_aspect_ratio">0</property>
  <property name="kdenlive:original.meta.media.0.codec.width">3840</property>
  <property name="kdenlive:original.meta.media.0.codec.height">2160</property>
  <property name="kdenlive:original.meta.media.0.codec.rotate">0</property>
  <property name="kdenlive:original.meta.media.0.codec.frame_rate">60</property>
  <property name="kdenlive:original.meta.media.0.codec.pix_fmt">yuv420p</property>
  <property name="kdenlive:original.meta.media.0.codec.sample_aspect_ratio">0</property>
  <property name="kdenlive:original.meta.media.0.codec.colorspace">709</property>
  <property name="kdenlive:original.meta.media.0.codec.name">h264</property>
  <property name="kdenlive:original.meta.media.0.codec.long_name">H.264 / AVC / MPEG-4 AVC / MPEG-4 part 10</property>
  <property name="kdenlive:original.meta.media.0.codec.bit_rate">836800</property>
  <property name="kdenlive:original.meta.attr.0.stream.handler_name.markup">VideoHandler</property>
  <property name="kdenlive:original.meta.attr.0.stream.vendor_id.markup">[0][0][0][0]</property>
  <property name="kdenlive:original.meta.attr.major_brand.markup">isom</property>
  <property name="kdenlive:original.meta.attr.minor_version.markup">512</property>
  <property name="kdenlive:original.meta.attr.compatible_brands.markup">isomiso2avc1mp41</property>
  <property name="kdenlive:original.meta.attr.encoder.markup">Lavf58.76.100</property>
  <property name="kdenlive:original.meta.attr.comment.markup">Rendered with Manim Community v0.6.0</property>
  <property name="kdenlive:original.seekable">1</property>
  <property name="kdenlive:original.width">3840</property>
  <property name="kdenlive:original.height">2160</property>
  <property name="kdenlive:original.meta.media.sample_aspect_num">1</property>
  <property name="kdenlive:original.meta.media.sample_aspect_den">1</property>
  <property name="kdenlive:original.aspect_ratio">1</property>
  <property name="kdenlive:original.audio_index">-1</property>
  <property name="kdenlive:original.video_index">0</property>
  <property name="kdenlive:original.mute_on_pause">1</property>
  <property name="kdenlive:original.mlt_service">avformat</property>
  <property name="kdenlive:original.meta.media.frame_rate_num">60</property>
  <property name="kdenlive:original.meta.media.frame_rate_den">1</property>
  <property name="kdenlive:original.meta.media.colorspace">709</property>
  <property name="kdenlive:original.meta.media.color_trc">2</property>
  <property name="kdenlive:original.meta.media.width">3840</property>
  <property name="kdenlive:original.meta.media.height">2160</property>
  <property name="kdenlive:original.meta.media.color_range">mpeg</property>
  <property name="kdenlive:original.meta.media.top_field_first">0</property>
  <property name="kdenlive:original.meta.media.progressive">1</property>
  <property name="kdenlive:original.backup">1</property>
 </producer>
 <producer id="producer234" in="00:00:00.000" out="00:00:04.983">
  <property name="length">00:00:05.000</property>
  <property name="eof">pause</property>
  <property name="resource">/home/xiaoxiae/.cache/kdenlive/proxy/6b665121ca7b54a5f5307b69451fd23c.png</property>
  <property name="ttl">25</property>
  <property name="aspect_ratio">1</property>
  <property name="progressive">1</property>
  <property name="seekable">1</property>
  <property name="meta.media.width">800</property>
  <property name="meta.media.height">450</property>
  <property name="mlt_service">qimage</property>
  <property name="kdenlive:clipname">42.png</property>
  <property name="kdenlive:duration">00:00:05.000</property>
  <property name="kdenlive:folderid">124</property>
  <property name="kdenlive:id">198</property>
  <property name="kdenlive:file_size">24337</property>
  <property name="kdenlive:file_hash">6b665121ca7b54a5f5307b69451fd23c</property>
  <property name="kdenlive:proxy">/home/xiaoxiae/.cache/kdenlive/proxy/6b665121ca7b54a5f5307b69451fd23c.png</property>
  <property name="kdenlive:originalurl">video/Introduction/42.png</property>
  <property name="global_feed">1</property>
 </producer>
 <producer id="producer235" in="00:00:00.000" out="00:00:00.983">
  <property name="length">60</property>
  <property name="eof">pause</property>
  <property name="resource">/home/xiaoxiae/.cache/kdenlive/proxy/8d51ad5894ff4d50321f2fa3a016d708.mkv</property>
  <property name="audio_index">-1</property>
  <property name="video_index">0</property>
  <property name="mute_on_pause">0</property>
  <property name="mlt_service">avformat-novalidate</property>
  <property name="seekable">1</property>
  <property name="aspect_ratio">1</property>
  <property name="kdenlive:clipname">5.mp4</property>
  <property name="kdenlive:folderid">124</property>
  <property name="kdenlive:id">199</property>
  <property name="kdenlive:file_size">178045</property>
  <property name="kdenlive:file_hash">8d51ad5894ff4d50321f2fa3a016d708</property>
  <property name="kdenlive:proxy">/home/xiaoxiae/.cache/kdenlive/proxy/8d51ad5894ff4d50321f2fa3a016d708.mkv</property>
  <property name="kdenlive:originalurl">video/Introduction/5.mp4</property>
  <property name="global_feed">1</property>
  <property name="meta.media.nb_streams">1</property>
  <property name="meta.media.0.stream.type">video</property>
  <property name="meta.media.0.stream.frame_rate">60</property>
  <property name="meta.media.0.stream.sample_aspect_ratio">0</property>
  <property name="meta.media.0.codec.width">640</property>
  <property name="meta.media.0.codec.height">360</property>
  <property name="meta.media.0.codec.rotate">0</property>
  <property name="meta.media.0.codec.frame_rate">60</property>
  <property name="meta.media.0.codec.pix_fmt">yuv420p</property>
  <property name="meta.media.0.codec.sample_aspect_ratio">0</property>
  <property name="meta.media.0.codec.colorspace">601</property>
  <property name="meta.media.0.codec.name">h264</property>
  <property name="meta.media.0.codec.long_name">H.264 / AVC / MPEG-4 AVC / MPEG-4 part 10</property>
  <property name="meta.media.0.codec.bit_rate">0</property>
  <property name="meta.attr.0.stream.HANDLER_NAME.markup">VideoHandler</property>
  <property name="meta.attr.0.stream.VENDOR_ID.markup">[0][0][0][0]</property>
  <property name="meta.attr.0.stream.ENCODER.markup">Lavc58.134.100 libx264</property>
  <property name="meta.attr.0.stream.DURATION.markup">00:00:01.000000000</property>
  <property name="meta.attr.COMMENT.markup">Rendered with Manim Community v0.6.0</property>
  <property name="meta.attr.MAJOR_BRAND.markup">isom</property>
  <property name="meta.attr.MINOR_VERSION.markup">512</property>
  <property name="meta.attr.COMPATIBLE_BRANDS.markup">isomiso2avc1mp41</property>
  <property name="meta.attr.ENCODER.markup">Lavf58.76.100</property>
  <property name="meta.media.sample_aspect_num">1</property>
  <property name="meta.media.sample_aspect_den">1</property>
  <property name="meta.media.frame_rate_num">60</property>
  <property name="meta.media.frame_rate_den">1</property>
  <property name="meta.media.colorspace">601</property>
  <property name="meta.media.color_trc">2</property>
  <property name="meta.media.width">640</property>
  <property name="meta.media.height">360</property>
  <property name="meta.media.color_range">mpeg</property>
  <property name="meta.media.top_field_first">0</property>
  <property name="meta.media.progressive">1</property>
  <property name="kdenlive:original.mlt_type">producer</property>
  <property name="kdenlive:original.in">0</property>
  <property name="kdenlive:original.out">59</property>
  <property name="kdenlive:original.length">60</property>
  <property name="kdenlive:original.eof">pause</property>
  <property name="kdenlive:original.resource">video/Introduction/5.mp4</property>
  <property name="kdenlive:original.meta.media.nb_streams">1</property>
  <property name="kdenlive:original.meta.media.0.stream.type">video</property>
  <property name="kdenlive:original.meta.media.0.stream.frame_rate">60</property>
  <property name="kdenlive:original.meta.media.0.stream.sample_aspect_ratio">0</property>
  <property name="kdenlive:original.meta.media.0.codec.width">3840</property>
  <property name="kdenlive:original.meta.media.0.codec.height">2160</property>
  <property name="kdenlive:original.meta.media.0.codec.rotate">0</property>
  <property name="kdenlive:original.meta.media.0.codec.frame_rate">60</property>
  <property name="kdenlive:original.meta.media.0.codec.pix_fmt">yuv420p</property>
  <property name="kdenlive:original.meta.media.0.codec.sample_aspect_ratio">0</property>
  <property name="kdenlive:original.meta.media.0.codec.colorspace">709</property>
  <property name="kdenlive:original.meta.media.0.codec.name">h264</property>
  <property name="kdenlive:original.meta.media.0.codec.long_name">H.264 / AVC / MPEG-4 AVC / MPEG-4 part 10</property>
  <property name="kdenlive:original.meta.media.0.codec.bit_rate">1411632</property>
  <property name="kdenlive:original.meta.attr.0.stream.handler_name.markup">VideoHandler</property>
  <property name="kdenlive:original.meta.attr.0.stream.vendor_id.markup">[0][0][0][0]</property>
  <property name="kdenlive:original.meta.attr.major_brand.markup">isom</property>
  <property name="kdenlive:original.meta.attr.minor_version.markup">512</property>
  <property name="kdenlive:original.meta.attr.compatible_brands.markup">isomiso2avc1mp41</property>
  <property name="kdenlive:original.meta.attr.encoder.markup">Lavf58.76.100</property>
  <property name="kdenlive:original.meta.attr.comment.markup">Rendered with Manim Community v0.6.0</property>
  <property name="kdenlive:original.seekable">1</property>
  <property name="kdenlive:original.width">3840</property>
  <property name="kdenlive:original.height">2160</property>
  <property name="kdenlive:original.meta.media.sample_aspect_num">1</property>
  <property name="kdenlive:original.meta.media.sample_aspect_den">1</property>
  <property name="kdenlive:original.aspect_ratio">1</property>
  <property name="kdenlive:original.audio_index">-1</property>
  <property name="kdenlive:original.video_index">0</property>
  <property name="kdenlive:original.mute_on_pause">1</property>
  <property name="kdenlive:original.mlt_service">avformat</property>
  <property name="kdenlive:original.meta.media.frame_rate_num">60</property>
  <property name="kdenlive:original.meta.media.frame_rate_den">1</property>
  <property name="kdenlive:original.meta.media.colorspace">709</property>
  <property name="kdenlive:original.meta.media.color_trc">2</property>
  <property name="kdenlive:original.meta.media.width">3840</property>
  <property name="kdenlive:original.meta.media.height">2160</property>
  <property name="kdenlive:original.meta.media.color_range">mpeg</property>
  <property name="kdenlive:original.meta.media.top_field_first">0</property>
  <property name="kdenlive:original.meta.media.progressive">1</property>
  <property name="kdenlive:original.backup">1</property>
 </producer>
 <producer id="producer236" in="00:00:00.000" out="00:00:04.983">
  <property name="length">00:00:05.000</property>
  <property name="eof">pause</property>
  <property name="resource">/home/xiaoxiae/.cache/kdenlive/proxy/c6f7b751f7837546c6a55c2d77e402ab.png</property>
  <property name="ttl">25</property>
  <property name="aspect_ratio">1</property>
  <property name="progressive">1</property>
  <property name="seekable">1</property>
  <property name="meta.media.width">800</property>
  <property name="meta.media.height">450</property>
  <property name="mlt_service">qimage</property>
  <property name="kdenlive:clipname">5.png</property>
  <property name="kdenlive:duration">00:00:05.000</property>
  <property name="kdenlive:folderid">124</property>
  <property name="kdenlive:id">200</property>
  <property name="kdenlive:file_size">270807</property>
  <property name="kdenlive:file_hash">c6f7b751f7837546c6a55c2d77e402ab</property>
  <property name="kdenlive:proxy">/home/xiaoxiae/.cache/kdenlive/proxy/c6f7b751f7837546c6a55c2d77e402ab.png</property>
  <property name="kdenlive:originalurl">video/Introduction/5.png</property>
  <property name="global_feed">1</property>
 </producer>
 <producer id="producer237" in="00:00:00.000" out="00:00:00.983">
  <property name="length">60</property>
  <property name="eof">pause</property>
  <property name="resource">/home/xiaoxiae/.cache/kdenlive/proxy/6310ee84495a5fbb85c13f881c3b0ff9.mkv</property>
  <property name="audio_index">-1</property>
  <property name="video_index">0</property>
  <property name="mute_on_pause">0</property>
  <property name="mlt_service">avformat-novalidate</property>
  <property name="seekable">1</property>
  <property name="aspect_ratio">1</property>
  <property name="kdenlive:clipname">6.mp4</property>
  <property name="kdenlive:folderid">124</property>
  <property name="kdenlive:id">201</property>
  <property name="kdenlive:file_size">93580</property>
  <property name="kdenlive:file_hash">6310ee84495a5fbb85c13f881c3b0ff9</property>
  <property name="kdenlive:proxy">/home/xiaoxiae/.cache/kdenlive/proxy/6310ee84495a5fbb85c13f881c3b0ff9.mkv</property>
  <property name="kdenlive:originalurl">video/Introduction/6.mp4</property>
  <property name="global_feed">1</property>
  <property name="meta.media.nb_streams">1</property>
  <property name="meta.media.0.stream.type">video</property>
  <property name="meta.media.0.stream.frame_rate">60</property>
  <property name="meta.media.0.stream.sample_aspect_ratio">0</property>
  <property name="meta.media.0.codec.width">640</property>
  <property name="meta.media.0.codec.height">360</property>
  <property name="meta.media.0.codec.rotate">0</property>
  <property name="meta.media.0.codec.frame_rate">60</property>
  <property name="meta.media.0.codec.pix_fmt">yuv420p</property>
  <property name="meta.media.0.codec.sample_aspect_ratio">0</property>
  <property name="meta.media.0.codec.colorspace">601</property>
  <property name="meta.media.0.codec.name">h264</property>
  <property name="meta.media.0.codec.long_name">H.264 / AVC / MPEG-4 AVC / MPEG-4 part 10</property>
  <property name="meta.media.0.codec.bit_rate">0</property>
  <property name="meta.attr.0.stream.HANDLER_NAME.markup">VideoHandler</property>
  <property name="meta.attr.0.stream.VENDOR_ID.markup">[0][0][0][0]</property>
  <property name="meta.attr.0.stream.ENCODER.markup">Lavc58.134.100 libx264</property>
  <property name="meta.attr.0.stream.DURATION.markup">00:00:01.000000000</property>
  <property name="meta.attr.COMMENT.markup">Rendered with Manim Community v0.6.0</property>
  <property name="meta.attr.MAJOR_BRAND.markup">isom</property>
  <property name="meta.attr.MINOR_VERSION.markup">512</property>
  <property name="meta.attr.COMPATIBLE_BRANDS.markup">isomiso2avc1mp41</property>
  <property name="meta.attr.ENCODER.markup">Lavf58.76.100</property>
  <property name="meta.media.sample_aspect_num">1</property>
  <property name="meta.media.sample_aspect_den">1</property>
  <property name="meta.media.frame_rate_num">60</property>
  <property name="meta.media.frame_rate_den">1</property>
  <property name="meta.media.colorspace">601</property>
  <property name="meta.media.color_trc">2</property>
  <property name="meta.media.width">640</property>
  <property name="meta.media.height">360</property>
  <property name="meta.media.color_range">mpeg</property>
  <property name="meta.media.top_field_first">0</property>
  <property name="meta.media.progressive">1</property>
  <property name="kdenlive:original.mlt_type">producer</property>
  <property name="kdenlive:original.in">0</property>
  <property name="kdenlive:original.out">59</property>
  <property name="kdenlive:original.length">60</property>
  <property name="kdenlive:original.eof">pause</property>
  <property name="kdenlive:original.resource">video/Introduction/6.mp4</property>
  <property name="kdenlive:original.meta.media.nb_streams">1</property>
  <property name="kdenlive:original.meta.media.0.stream.type">video</property>
  <property name="kdenlive:original.meta.media.0.stream.frame_rate">60</property>
  <property name="kdenlive:original.meta.media.0.stream.sample_aspect_ratio">0</property>
  <property name="kdenlive:original.meta.media.0.codec.width">3840</property>
  <property name="kdenlive:original.meta.media.0.codec.height">2160</property>
  <property name="kdenlive:original.meta.media.0.codec.rotate">0</property>
  <property name="kdenlive:original.meta.media.0.codec.frame_rate">60</property>
  <property name="kdenlive:original.meta.media.0.codec.pix_fmt">yuv420p</property>
  <property name="kdenlive:original.meta.media.0.codec.sample_aspect_ratio">0</property>
  <property name="kdenlive:original.meta.media.0.codec.colorspace">709</property>
  <property name="kdenlive:original.meta.media.0.codec.name">h264</property>
  <property name="kdenlive:original.meta.media.0.codec.long_name">H.264 / AVC / MPEG-4 AVC / MPEG-4 part 10</property>
  <property name="kdenlive:original.meta.media.0.codec.bit_rate">735592</property>
  <property name="kdenlive:original.meta.attr.0.stream.handler_name.markup">VideoHandler</property>
  <property name="kdenlive:original.meta.attr.0.stream.vendor_id.markup">[0][0][0][0]</property>
  <property name="kdenlive:original.meta.attr.major_brand.markup">isom</property>
  <property name="kdenlive:original.meta.attr.minor_version.markup">512</property>
  <property name="kdenlive:original.meta.attr.compatible_brands.markup">isomiso2avc1mp41</property>
  <property name="kdenlive:original.meta.attr.encoder.markup">Lavf58.76.100</property>
  <property name="kdenlive:original.meta.attr.comment.markup">Rendered with Manim Community v0.6.0</property>
  <property name="kdenlive:original.seekable">1</property>
  <property name="kdenlive:original.width">3840</property>
  <property name="kdenlive:original.height">2160</property>
  <property name="kdenlive:original.meta.media.sample_aspect_num">1</property>
  <property name="kdenlive:original.meta.media.sample_aspect_den">1</property>
  <property name="kdenlive:original.aspect_ratio">1</property>
  <property name="kdenlive:original.audio_index">-1</property>
  <property name="kdenlive:original.video_index">0</property>
  <property name="kdenlive:original.mute_on_pause">1</property>
  <property name="kdenlive:original.mlt_service">avformat</property>
  <property name="kdenlive:original.meta.media.frame_rate_num">60</property>
  <property name="kdenlive:original.meta.media.frame_rate_den">1</property>
  <property name="kdenlive:original.meta.media.colorspace">709</property>
  <property name="kdenlive:original.meta.media.color_trc">2</property>
  <property name="kdenlive:original.meta.media.width">3840</property>
  <property name="kdenlive:original.meta.media.height">2160</property>
  <property name="kdenlive:original.meta.media.color_range">mpeg</property>
  <property name="kdenlive:original.meta.media.top_field_first">0</property>
  <property name="kdenlive:original.meta.media.progressive">1</property>
  <property name="kdenlive:original.backup">1</property>
 </producer>
 <producer id="producer238" in="00:00:00.000" out="00:00:04.983">
  <property name="length">00:00:05.000</property>
  <property name="eof">pause</property>
  <property name="resource">/home/xiaoxiae/.cache/kdenlive/proxy/2ea12c87b6df044970731a765f036cf9.png</property>
  <property name="ttl">25</property>
  <property name="aspect_ratio">1</property>
  <property name="progressive">1</property>
  <property name="seekable">1</property>
  <property name="meta.media.width">800</property>
  <property name="meta.media.height">450</property>
  <property name="mlt_service">qimage</property>
  <property name="kdenlive:clipname">6.png</property>
  <property name="kdenlive:duration">00:00:05.000</property>
  <property name="kdenlive:folderid">124</property>
  <property name="kdenlive:id">202</property>
  <property name="kdenlive:file_size">303991</property>
  <property name="kdenlive:file_hash">2ea12c87b6df044970731a765f036cf9</property>
  <property name="kdenlive:proxy">/home/xiaoxiae/.cache/kdenlive/proxy/2ea12c87b6df044970731a765f036cf9.png</property>
  <property name="kdenlive:originalurl">video/Introduction/6.png</property>
  <property name="global_feed">1</property>
 </producer>
 <producer id="producer240" in="00:00:00.000" out="00:00:00.983">
  <property name="length">60</property>
  <property name="eof">pause</property>
  <property name="resource">/home/xiaoxiae/.cache/kdenlive/proxy/9dae55fc0fbe79ddeb31a1dec89ae229.mkv</property>
  <property name="audio_index">-1</property>
  <property name="video_index">0</property>
  <property name="mute_on_pause">0</property>
  <property name="mlt_service">avformat-novalidate</property>
  <property name="seekable">1</property>
  <property name="aspect_ratio">1</property>
  <property name="kdenlive:clipname">7.mp4</property>
  <property name="kdenlive:folderid">124</property>
  <property name="kdenlive:id">203</property>
  <property name="kdenlive:file_size">112355</property>
  <property name="kdenlive:file_hash">9dae55fc0fbe79ddeb31a1dec89ae229</property>
  <property name="kdenlive:proxy">/home/xiaoxiae/.cache/kdenlive/proxy/9dae55fc0fbe79ddeb31a1dec89ae229.mkv</property>
  <property name="kdenlive:originalurl">video/Introduction/7.mp4</property>
  <property name="global_feed">1</property>
  <property name="meta.media.nb_streams">1</property>
  <property name="meta.media.0.stream.type">video</property>
  <property name="meta.media.0.stream.frame_rate">60</property>
  <property name="meta.media.0.stream.sample_aspect_ratio">0</property>
  <property name="meta.media.0.codec.width">640</property>
  <property name="meta.media.0.codec.height">360</property>
  <property name="meta.media.0.codec.rotate">0</property>
  <property name="meta.media.0.codec.frame_rate">60</property>
  <property name="meta.media.0.codec.pix_fmt">yuv420p</property>
  <property name="meta.media.0.codec.sample_aspect_ratio">0</property>
  <property name="meta.media.0.codec.colorspace">601</property>
  <property name="meta.media.0.codec.name">h264</property>
  <property name="meta.media.0.codec.long_name">H.264 / AVC / MPEG-4 AVC / MPEG-4 part 10</property>
  <property name="meta.media.0.codec.bit_rate">0</property>
  <property name="meta.attr.0.stream.HANDLER_NAME.markup">VideoHandler</property>
  <property name="meta.attr.0.stream.VENDOR_ID.markup">[0][0][0][0]</property>
  <property name="meta.attr.0.stream.ENCODER.markup">Lavc58.134.100 libx264</property>
  <property name="meta.attr.0.stream.DURATION.markup">00:00:01.000000000</property>
  <property name="meta.attr.COMMENT.markup">Rendered with Manim Community v0.6.0</property>
  <property name="meta.attr.MAJOR_BRAND.markup">isom</property>
  <property name="meta.attr.MINOR_VERSION.markup">512</property>
  <property name="meta.attr.COMPATIBLE_BRANDS.markup">isomiso2avc1mp41</property>
  <property name="meta.attr.ENCODER.markup">Lavf58.76.100</property>
  <property name="meta.media.sample_aspect_num">1</property>
  <property name="meta.media.sample_aspect_den">1</property>
  <property name="meta.media.frame_rate_num">60</property>
  <property name="meta.media.frame_rate_den">1</property>
  <property name="meta.media.colorspace">601</property>
  <property name="meta.media.color_trc">2</property>
  <property name="meta.media.width">640</property>
  <property name="meta.media.height">360</property>
  <property name="meta.media.color_range">mpeg</property>
  <property name="meta.media.top_field_first">0</property>
  <property name="meta.media.progressive">1</property>
  <property name="kdenlive:original.mlt_type">producer</property>
  <property name="kdenlive:original.in">0</property>
  <property name="kdenlive:original.out">59</property>
  <property name="kdenlive:original.length">60</property>
  <property name="kdenlive:original.eof">pause</property>
  <property name="kdenlive:original.resource">video/Introduction/7.mp4</property>
  <property name="kdenlive:original.meta.media.nb_streams">1</property>
  <property name="kdenlive:original.meta.media.0.stream.type">video</property>
  <property name="kdenlive:original.meta.media.0.stream.frame_rate">60</property>
  <property name="kdenlive:original.meta.media.0.stream.sample_aspect_ratio">0</property>
  <property name="kdenlive:original.meta.media.0.codec.width">3840</property>
  <property name="kdenlive:original.meta.media.0.codec.height">2160</property>
  <property name="kdenlive:original.meta.media.0.codec.rotate">0</property>
  <property name="kdenlive:original.meta.media.0.codec.frame_rate">60</property>
  <property name="kdenlive:original.meta.media.0.codec.pix_fmt">yuv420p</property>
  <property name="kdenlive:original.meta.media.0.codec.sample_aspect_ratio">0</property>
  <property name="kdenlive:original.meta.media.0.codec.colorspace">709</property>
  <property name="kdenlive:original.meta.media.0.codec.name">h264</property>
  <property name="kdenlive:original.meta.media.0.codec.long_name">H.264 / AVC / MPEG-4 AVC / MPEG-4 part 10</property>
  <property name="kdenlive:original.meta.media.0.codec.bit_rate">885728</property>
  <property name="kdenlive:original.meta.attr.0.stream.handler_name.markup">VideoHandler</property>
  <property name="kdenlive:original.meta.attr.0.stream.vendor_id.markup">[0][0][0][0]</property>
  <property name="kdenlive:original.meta.attr.major_brand.markup">isom</property>
  <property name="kdenlive:original.meta.attr.minor_version.markup">512</property>
  <property name="kdenlive:original.meta.attr.compatible_brands.markup">isomiso2avc1mp41</property>
  <property name="kdenlive:original.meta.attr.encoder.markup">Lavf58.76.100</property>
  <property name="kdenlive:original.meta.attr.comment.markup">Rendered with Manim Community v0.6.0</property>
  <property name="kdenlive:original.seekable">1</property>
  <property name="kdenlive:original.width">3840</property>
  <property name="kdenlive:original.height">2160</property>
  <property name="kdenlive:original.meta.media.sample_aspect_num">1</property>
  <property name="kdenlive:original.meta.media.sample_aspect_den">1</property>
  <property name="kdenlive:original.aspect_ratio">1</property>
  <property name="kdenlive:original.audio_index">-1</property>
  <property name="kdenlive:original.video_index">0</property>
  <property name="kdenlive:original.mute_on_pause">1</property>
  <property name="kdenlive:original.mlt_service">avformat</property>
  <property name="kdenlive:original.meta.media.frame_rate_num">60</property>
  <property name="kdenlive:original.meta.media.frame_rate_den">1</property>
  <property name="kdenlive:original.meta.media.colorspace">709</property>
  <property name="kdenlive:original.meta.media.color_trc">2</property>
  <property name="kdenlive:original.meta.media.width">3840</property>
  <property name="kdenlive:original.meta.media.height">2160</property>
  <property name="kdenlive:original.meta.media.color_range">mpeg</property>
  <property name="kdenlive:original.meta.media.top_field_first">0</property>
  <property name="kdenlive:original.meta.media.progressive">1</property>
  <property name="kdenlive:original.backup">1</property>
 </producer>
 <producer id="producer239" in="00:00:00.000" out="00:00:04.983">
  <property name="length">00:00:05.000</property>
  <property name="eof">pause</property>
  <property name="resource">/home/xiaoxiae/.cache/kdenlive/proxy/f760e81c055e5587a42b5ce5a32ac35f.png</property>
  <property name="ttl">25</property>
  <property name="aspect_ratio">1</property>
  <property name="progressive">1</property>
  <property name="seekable">1</property>
  <property name="meta.media.width">800</property>
  <property name="meta.media.height">450</property>
  <property name="mlt_service">qimage</property>
  <property name="kdenlive:clipname">7.png</property>
  <property name="kdenlive:duration">00:00:05.000</property>
  <property name="kdenlive:folderid">124</property>
  <property name="kdenlive:id">204</property>
  <property name="kdenlive:file_size">313615</property>
  <property name="kdenlive:file_hash">f760e81c055e5587a42b5ce5a32ac35f</property>
  <property name="kdenlive:proxy">/home/xiaoxiae/.cache/kdenlive/proxy/f760e81c055e5587a42b5ce5a32ac35f.png</property>
  <property name="kdenlive:originalurl">video/Introduction/7.png</property>
  <property name="global_feed">1</property>
 </producer>
 <producer id="producer241" in="00:00:00.000" out="00:00:00.983">
  <property name="length">60</property>
  <property name="eof">pause</property>
  <property name="resource">/home/xiaoxiae/.cache/kdenlive/proxy/e0d498e34da7a11a07adb32e0b443b1a.mkv</property>
  <property name="audio_index">-1</property>
  <property name="video_index">0</property>
  <property name="mute_on_pause">0</property>
  <property name="mlt_service">avformat-novalidate</property>
  <property name="seekable">1</property>
  <property name="aspect_ratio">1</property>
  <property name="kdenlive:clipname">8.mp4</property>
  <property name="kdenlive:folderid">124</property>
  <property name="kdenlive:id">205</property>
  <property name="kdenlive:file_size">158929</property>
  <property name="kdenlive:file_hash">e0d498e34da7a11a07adb32e0b443b1a</property>
  <property name="kdenlive:proxy">/home/xiaoxiae/.cache/kdenlive/proxy/e0d498e34da7a11a07adb32e0b443b1a.mkv</property>
  <property name="kdenlive:originalurl">video/Introduction/8.mp4</property>
  <property name="global_feed">1</property>
  <property name="meta.media.nb_streams">1</property>
  <property name="meta.media.0.stream.type">video</property>
  <property name="meta.media.0.stream.frame_rate">60</property>
  <property name="meta.media.0.stream.sample_aspect_ratio">0</property>
  <property name="meta.media.0.codec.width">640</property>
  <property name="meta.media.0.codec.height">360</property>
  <property name="meta.media.0.codec.rotate">0</property>
  <property name="meta.media.0.codec.frame_rate">60</property>
  <property name="meta.media.0.codec.pix_fmt">yuv420p</property>
  <property name="meta.media.0.codec.sample_aspect_ratio">0</property>
  <property name="meta.media.0.codec.colorspace">601</property>
  <property name="meta.media.0.codec.name">h264</property>
  <property name="meta.media.0.codec.long_name">H.264 / AVC / MPEG-4 AVC / MPEG-4 part 10</property>
  <property name="meta.media.0.codec.bit_rate">0</property>
  <property name="meta.attr.0.stream.HANDLER_NAME.markup">VideoHandler</property>
  <property name="meta.attr.0.stream.VENDOR_ID.markup">[0][0][0][0]</property>
  <property name="meta.attr.0.stream.ENCODER.markup">Lavc58.134.100 libx264</property>
  <property name="meta.attr.0.stream.DURATION.markup">00:00:01.000000000</property>
  <property name="meta.attr.COMMENT.markup">Rendered with Manim Community v0.6.0</property>
  <property name="meta.attr.MAJOR_BRAND.markup">isom</property>
  <property name="meta.attr.MINOR_VERSION.markup">512</property>
  <property name="meta.attr.COMPATIBLE_BRANDS.markup">isomiso2avc1mp41</property>
  <property name="meta.attr.ENCODER.markup">Lavf58.76.100</property>
  <property name="meta.media.sample_aspect_num">1</property>
  <property name="meta.media.sample_aspect_den">1</property>
  <property name="meta.media.frame_rate_num">60</property>
  <property name="meta.media.frame_rate_den">1</property>
  <property name="meta.media.colorspace">601</property>
  <property name="meta.media.color_trc">2</property>
  <property name="meta.media.width">640</property>
  <property name="meta.media.height">360</property>
  <property name="meta.media.color_range">mpeg</property>
  <property name="meta.media.top_field_first">0</property>
  <property name="meta.media.progressive">1</property>
  <property name="kdenlive:original.mlt_type">producer</property>
  <property name="kdenlive:original.in">0</property>
  <property name="kdenlive:original.out">59</property>
  <property name="kdenlive:original.length">60</property>
  <property name="kdenlive:original.eof">pause</property>
  <property name="kdenlive:original.resource">video/Introduction/8.mp4</property>
  <property name="kdenlive:original.meta.media.nb_streams">1</property>
  <property name="kdenlive:original.meta.media.0.stream.type">video</property>
  <property name="kdenlive:original.meta.media.0.stream.frame_rate">60</property>
  <property name="kdenlive:original.meta.media.0.stream.sample_aspect_ratio">0</property>
  <property name="kdenlive:original.meta.media.0.codec.width">3840</property>
  <property name="kdenlive:original.meta.media.0.codec.height">2160</property>
  <property name="kdenlive:original.meta.media.0.codec.rotate">0</property>
  <property name="kdenlive:original.meta.media.0.codec.frame_rate">60</property>
  <property name="kdenlive:original.meta.media.0.codec.pix_fmt">yuv420p</property>
  <property name="kdenlive:original.meta.media.0.codec.sample_aspect_ratio">0</property>
  <property name="kdenlive:original.meta.media.0.codec.colorspace">709</property>
  <property name="kdenlive:original.meta.media.0.codec.name">h264</property>
  <property name="kdenlive:original.meta.media.0.codec.long_name">H.264 / AVC / MPEG-4 AVC / MPEG-4 part 10</property>
  <property name="kdenlive:original.meta.media.0.codec.bit_rate">1258768</property>
  <property name="kdenlive:original.meta.attr.0.stream.handler_name.markup">VideoHandler</property>
  <property name="kdenlive:original.meta.attr.0.stream.vendor_id.markup">[0][0][0][0]</property>
  <property name="kdenlive:original.meta.attr.major_brand.markup">isom</property>
  <property name="kdenlive:original.meta.attr.minor_version.markup">512</property>
  <property name="kdenlive:original.meta.attr.compatible_brands.markup">isomiso2avc1mp41</property>
  <property name="kdenlive:original.meta.attr.encoder.markup">Lavf58.76.100</property>
  <property name="kdenlive:original.meta.attr.comment.markup">Rendered with Manim Community v0.6.0</property>
  <property name="kdenlive:original.seekable">1</property>
  <property name="kdenlive:original.width">3840</property>
  <property name="kdenlive:original.height">2160</property>
  <property name="kdenlive:original.meta.media.sample_aspect_num">1</property>
  <property name="kdenlive:original.meta.media.sample_aspect_den">1</property>
  <property name="kdenlive:original.aspect_ratio">1</property>
  <property name="kdenlive:original.audio_index">-1</property>
  <property name="kdenlive:original.video_index">0</property>
  <property name="kdenlive:original.mute_on_pause">1</property>
  <property name="kdenlive:original.mlt_service">avformat</property>
  <property name="kdenlive:original.meta.media.frame_rate_num">60</property>
  <property name="kdenlive:original.meta.media.frame_rate_den">1</property>
  <property name="kdenlive:original.meta.media.colorspace">709</property>
  <property name="kdenlive:original.meta.media.color_trc">2</property>
  <property name="kdenlive:original.meta.media.width">3840</property>
  <property name="kdenlive:original.meta.media.height">2160</property>
  <property name="kdenlive:original.meta.media.color_range">mpeg</property>
  <property name="kdenlive:original.meta.media.top_field_first">0</property>
  <property name="kdenlive:original.meta.media.progressive">1</property>
  <property name="kdenlive:original.backup">1</property>
 </producer>
 <producer id="producer242" in="00:00:00.000" out="00:00:04.983">
  <property name="length">00:00:05.000</property>
  <property name="eof">pause</property>
  <property name="resource">/home/xiaoxiae/.cache/kdenlive/proxy/e448441ced7952f1b9132610eb012074.png</property>
  <property name="ttl">25</property>
  <property name="aspect_ratio">1</property>
  <property name="progressive">1</property>
  <property name="seekable">1</property>
  <property name="meta.media.width">800</property>
  <property name="meta.media.height">450</property>
  <property name="mlt_service">qimage</property>
  <property name="kdenlive:clipname">8.png</property>
  <property name="kdenlive:duration">00:00:05.000</property>
  <property name="kdenlive:folderid">124</property>
  <property name="kdenlive:id">206</property>
  <property name="kdenlive:file_size">284541</property>
  <property name="kdenlive:file_hash">e448441ced7952f1b9132610eb012074</property>
  <property name="kdenlive:proxy">/home/xiaoxiae/.cache/kdenlive/proxy/e448441ced7952f1b9132610eb012074.png</property>
  <property name="kdenlive:originalurl">video/Introduction/8.png</property>
  <property name="global_feed">1</property>
 </producer>
 <producer id="producer244" in="00:00:00.000" out="00:00:00.983">
  <property name="length">60</property>
  <property name="eof">pause</property>
  <property name="resource">/home/xiaoxiae/.cache/kdenlive/proxy/09799ef0c5b7bca8be7d021a1c6aa493.mkv</property>
  <property name="audio_index">-1</property>
  <property name="video_index">0</property>
  <property name="mute_on_pause">0</property>
  <property name="mlt_service">avformat-novalidate</property>
  <property name="seekable">1</property>
  <property name="aspect_ratio">1</property>
  <property name="kdenlive:clipname">9.mp4</property>
  <property name="kdenlive:folderid">124</property>
  <property name="kdenlive:id">207</property>
  <property name="kdenlive:file_size">79331</property>
  <property name="kdenlive:file_hash">09799ef0c5b7bca8be7d021a1c6aa493</property>
  <property name="kdenlive:proxy">/home/xiaoxiae/.cache/kdenlive/proxy/09799ef0c5b7bca8be7d021a1c6aa493.mkv</property>
  <property name="kdenlive:originalurl">video/Introduction/9.mp4</property>
  <property name="global_feed">1</property>
  <property name="meta.media.nb_streams">1</property>
  <property name="meta.media.0.stream.type">video</property>
  <property name="meta.media.0.stream.frame_rate">60</property>
  <property name="meta.media.0.stream.sample_aspect_ratio">0</property>
  <property name="meta.media.0.codec.width">640</property>
  <property name="meta.media.0.codec.height">360</property>
  <property name="meta.media.0.codec.rotate">0</property>
  <property name="meta.media.0.codec.frame_rate">60</property>
  <property name="meta.media.0.codec.pix_fmt">yuv420p</property>
  <property name="meta.media.0.codec.sample_aspect_ratio">0</property>
  <property name="meta.media.0.codec.colorspace">601</property>
  <property name="meta.media.0.codec.name">h264</property>
  <property name="meta.media.0.codec.long_name">H.264 / AVC / MPEG-4 AVC / MPEG-4 part 10</property>
  <property name="meta.media.0.codec.bit_rate">0</property>
  <property name="meta.attr.0.stream.HANDLER_NAME.markup">VideoHandler</property>
  <property name="meta.attr.0.stream.VENDOR_ID.markup">[0][0][0][0]</property>
  <property name="meta.attr.0.stream.ENCODER.markup">Lavc58.134.100 libx264</property>
  <property name="meta.attr.0.stream.DURATION.markup">00:00:01.000000000</property>
  <property name="meta.attr.COMMENT.markup">Rendered with Manim Community v0.6.0</property>
  <property name="meta.attr.MAJOR_BRAND.markup">isom</property>
  <property name="meta.attr.MINOR_VERSION.markup">512</property>
  <property name="meta.attr.COMPATIBLE_BRANDS.markup">isomiso2avc1mp41</property>
  <property name="meta.attr.ENCODER.markup">Lavf58.76.100</property>
  <property name="meta.media.sample_aspect_num">1</property>
  <property name="meta.media.sample_aspect_den">1</property>
  <property name="meta.media.frame_rate_num">60</property>
  <property name="meta.media.frame_rate_den">1</property>
  <property name="meta.media.colorspace">601</property>
  <property name="meta.media.color_trc">2</property>
  <property name="meta.media.width">640</property>
  <property name="meta.media.height">360</property>
  <property name="meta.media.color_range">mpeg</property>
  <property name="meta.media.top_field_first">0</property>
  <property name="meta.media.progressive">1</property>
  <property name="kdenlive:original.mlt_type">producer</property>
  <property name="kdenlive:original.in">0</property>
  <property name="kdenlive:original.out">59</property>
  <property name="kdenlive:original.length">60</property>
  <property name="kdenlive:original.eof">pause</property>
  <property name="kdenlive:original.resource">video/Introduction/9.mp4</property>
  <property name="kdenlive:original.meta.media.nb_streams">1</property>
  <property name="kdenlive:original.meta.media.0.stream.type">video</property>
  <property name="kdenlive:original.meta.media.0.stream.frame_rate">60</property>
  <property name="kdenlive:original.meta.media.0.stream.sample_aspect_ratio">0</property>
  <property name="kdenlive:original.meta.media.0.codec.width">3840</property>
  <property name="kdenlive:original.meta.media.0.codec.height">2160</property>
  <property name="kdenlive:original.meta.media.0.codec.rotate">0</property>
  <property name="kdenlive:original.meta.media.0.codec.frame_rate">60</property>
  <property name="kdenlive:original.meta.media.0.codec.pix_fmt">yuv420p</property>
  <property name="kdenlive:original.meta.media.0.codec.sample_aspect_ratio">0</property>
  <property name="kdenlive:original.meta.media.0.codec.colorspace">709</property>
  <property name="kdenlive:original.meta.media.0.codec.name">h264</property>
  <property name="kdenlive:original.meta.media.0.codec.long_name">H.264 / AVC / MPEG-4 AVC / MPEG-4 part 10</property>
  <property name="kdenlive:original.meta.media.0.codec.bit_rate">621600</property>
  <property name="kdenlive:original.meta.attr.0.stream.handler_name.markup">VideoHandler</property>
  <property name="kdenlive:original.meta.attr.0.stream.vendor_id.markup">[0][0][0][0]</property>
  <property name="kdenlive:original.meta.attr.major_brand.markup">isom</property>
  <property name="kdenlive:original.meta.attr.minor_version.markup">512</property>
  <property name="kdenlive:original.meta.attr.compatible_brands.markup">isomiso2avc1mp41</property>
  <property name="kdenlive:original.meta.attr.encoder.markup">Lavf58.76.100</property>
  <property name="kdenlive:original.meta.attr.comment.markup">Rendered with Manim Community v0.6.0</property>
  <property name="kdenlive:original.seekable">1</property>
  <property name="kdenlive:original.width">3840</property>
  <property name="kdenlive:original.height">2160</property>
  <property name="kdenlive:original.meta.media.sample_aspect_num">1</property>
  <property name="kdenlive:original.meta.media.sample_aspect_den">1</property>
  <property name="kdenlive:original.aspect_ratio">1</property>
  <property name="kdenlive:original.audio_index">-1</property>
  <property name="kdenlive:original.video_index">0</property>
  <property name="kdenlive:original.mute_on_pause">1</property>
  <property name="kdenlive:original.mlt_service">avformat</property>
  <property name="kdenlive:original.meta.media.frame_rate_num">60</property>
  <property name="kdenlive:original.meta.media.frame_rate_den">1</property>
  <property name="kdenlive:original.meta.media.colorspace">709</property>
  <property name="kdenlive:original.meta.media.color_trc">2</property>
  <property name="kdenlive:original.meta.media.width">3840</property>
  <property name="kdenlive:original.meta.media.height">2160</property>
  <property name="kdenlive:original.meta.media.color_range">mpeg</property>
  <property name="kdenlive:original.meta.media.top_field_first">0</property>
  <property name="kdenlive:original.meta.media.progressive">1</property>
  <property name="kdenlive:original.backup">1</property>
 </producer>
 <producer id="producer245" in="00:00:00.000" out="00:00:04.983">
  <property name="length">00:00:05.000</property>
  <property name="eof">pause</property>
  <property name="resource">/home/xiaoxiae/.cache/kdenlive/proxy/7f7ac54ce7999c1c882d77cfc8f32f41.png</property>
  <property name="ttl">25</property>
  <property name="aspect_ratio">1</property>
  <property name="progressive">1</property>
  <property name="seekable">1</property>
  <property name="meta.media.width">800</property>
  <property name="meta.media.height">450</property>
  <property name="mlt_service">qimage</property>
  <property name="kdenlive:clipname">9.png</property>
  <property name="kdenlive:duration">00:00:05.000</property>
  <property name="kdenlive:folderid">124</property>
  <property name="kdenlive:id">208</property>
  <property name="kdenlive:file_size">280020</property>
  <property name="kdenlive:file_hash">7f7ac54ce7999c1c882d77cfc8f32f41</property>
  <property name="kdenlive:proxy">/home/xiaoxiae/.cache/kdenlive/proxy/7f7ac54ce7999c1c882d77cfc8f32f41.png</property>
  <property name="kdenlive:originalurl">video/Introduction/9.png</property>
  <property name="global_feed">1</property>
 </producer>
 <producer id="producer247" in="00:00:00.000" out="00:00:00.983">
  <property name="length">60</property>
  <property name="eof">pause</property>
  <property name="resource">/home/xiaoxiae/.cache/kdenlive/proxy/ebea164ec448919175c3cf625928f4df.mkv</property>
  <property name="audio_index">-1</property>
  <property name="video_index">0</property>
  <property name="mute_on_pause">0</property>
  <property name="mlt_service">avformat-novalidate</property>
  <property name="seekable">1</property>
  <property name="aspect_ratio">1</property>
  <property name="kdenlive:clipname">1.mp4</property>
  <property name="kdenlive:folderid">209</property>
  <property name="kdenlive:id">210</property>
  <property name="kdenlive:file_size">45821</property>
  <property name="kdenlive:file_hash">ebea164ec448919175c3cf625928f4df</property>
  <property name="kdenlive:proxy">/home/xiaoxiae/.cache/kdenlive/proxy/ebea164ec448919175c3cf625928f4df.mkv</property>
  <property name="kdenlive:originalurl">video/Lemma1/1.mp4</property>
  <property name="global_feed">1</property>
  <property name="meta.media.nb_streams">1</property>
  <property name="meta.media.0.stream.type">video</property>
  <property name="meta.media.0.stream.frame_rate">60</property>
  <property name="meta.media.0.stream.sample_aspect_ratio">0</property>
  <property name="meta.media.0.codec.width">640</property>
  <property name="meta.media.0.codec.height">360</property>
  <property name="meta.media.0.codec.rotate">0</property>
  <property name="meta.media.0.codec.frame_rate">60</property>
  <property name="meta.media.0.codec.pix_fmt">yuv420p</property>
  <property name="meta.media.0.codec.sample_aspect_ratio">0</property>
  <property name="meta.media.0.codec.colorspace">601</property>
  <property name="meta.media.0.codec.name">h264</property>
  <property name="meta.media.0.codec.long_name">H.264 / AVC / MPEG-4 AVC / MPEG-4 part 10</property>
  <property name="meta.media.0.codec.bit_rate">0</property>
  <property name="meta.attr.0.stream.HANDLER_NAME.markup">VideoHandler</property>
  <property name="meta.attr.0.stream.VENDOR_ID.markup">[0][0][0][0]</property>
  <property name="meta.attr.0.stream.ENCODER.markup">Lavc58.134.100 libx264</property>
  <property name="meta.attr.0.stream.DURATION.markup">00:00:01.000000000</property>
  <property name="meta.attr.COMMENT.markup">Rendered with Manim Community v0.6.0</property>
  <property name="meta.attr.MAJOR_BRAND.markup">isom</property>
  <property name="meta.attr.MINOR_VERSION.markup">512</property>
  <property name="meta.attr.COMPATIBLE_BRANDS.markup">isomiso2avc1mp41</property>
  <property name="meta.attr.ENCODER.markup">Lavf58.76.100</property>
  <property name="meta.media.sample_aspect_num">1</property>
  <property name="meta.media.sample_aspect_den">1</property>
  <property name="meta.media.frame_rate_num">60</property>
  <property name="meta.media.frame_rate_den">1</property>
  <property name="meta.media.colorspace">601</property>
  <property name="meta.media.color_trc">2</property>
  <property name="meta.media.width">640</property>
  <property name="meta.media.height">360</property>
  <property name="meta.media.color_range">mpeg</property>
  <property name="meta.media.top_field_first">0</property>
  <property name="meta.media.progressive">1</property>
  <property name="kdenlive:original.mlt_type">producer</property>
  <property name="kdenlive:original.in">0</property>
  <property name="kdenlive:original.out">59</property>
  <property name="kdenlive:original.length">60</property>
  <property name="kdenlive:original.eof">pause</property>
  <property name="kdenlive:original.resource">video/Lemma1/1.mp4</property>
  <property name="kdenlive:original.meta.media.nb_streams">1</property>
  <property name="kdenlive:original.meta.media.0.stream.type">video</property>
  <property name="kdenlive:original.meta.media.0.stream.frame_rate">60</property>
  <property name="kdenlive:original.meta.media.0.stream.sample_aspect_ratio">0</property>
  <property name="kdenlive:original.meta.media.0.codec.width">3840</property>
  <property name="kdenlive:original.meta.media.0.codec.height">2160</property>
  <property name="kdenlive:original.meta.media.0.codec.rotate">0</property>
  <property name="kdenlive:original.meta.media.0.codec.frame_rate">60</property>
  <property name="kdenlive:original.meta.media.0.codec.pix_fmt">yuv420p</property>
  <property name="kdenlive:original.meta.media.0.codec.sample_aspect_ratio">0</property>
  <property name="kdenlive:original.meta.media.0.codec.colorspace">709</property>
  <property name="kdenlive:original.meta.media.0.codec.name">h264</property>
  <property name="kdenlive:original.meta.media.0.codec.long_name">H.264 / AVC / MPEG-4 AVC / MPEG-4 part 10</property>
  <property name="kdenlive:original.meta.media.0.codec.bit_rate">353520</property>
  <property name="kdenlive:original.meta.attr.0.stream.handler_name.markup">VideoHandler</property>
  <property name="kdenlive:original.meta.attr.0.stream.vendor_id.markup">[0][0][0][0]</property>
  <property name="kdenlive:original.meta.attr.major_brand.markup">isom</property>
  <property name="kdenlive:original.meta.attr.minor_version.markup">512</property>
  <property name="kdenlive:original.meta.attr.compatible_brands.markup">isomiso2avc1mp41</property>
  <property name="kdenlive:original.meta.attr.encoder.markup">Lavf58.76.100</property>
  <property name="kdenlive:original.meta.attr.comment.markup">Rendered with Manim Community v0.6.0</property>
  <property name="kdenlive:original.seekable">1</property>
  <property name="kdenlive:original.width">3840</property>
  <property name="kdenlive:original.height">2160</property>
  <property name="kdenlive:original.meta.media.sample_aspect_num">1</property>
  <property name="kdenlive:original.meta.media.sample_aspect_den">1</property>
  <property name="kdenlive:original.aspect_ratio">1</property>
  <property name="kdenlive:original.audio_index">-1</property>
  <property name="kdenlive:original.video_index">0</property>
  <property name="kdenlive:original.mute_on_pause">1</property>
  <property name="kdenlive:original.mlt_service">avformat</property>
  <property name="kdenlive:original.meta.media.frame_rate_num">60</property>
  <property name="kdenlive:original.meta.media.frame_rate_den">1</property>
  <property name="kdenlive:original.meta.media.colorspace">709</property>
  <property name="kdenlive:original.meta.media.color_trc">2</property>
  <property name="kdenlive:original.meta.media.width">3840</property>
  <property name="kdenlive:original.meta.media.height">2160</property>
  <property name="kdenlive:original.meta.media.color_range">mpeg</property>
  <property name="kdenlive:original.meta.media.top_field_first">0</property>
  <property name="kdenlive:original.meta.media.progressive">1</property>
  <property name="kdenlive:original.backup">1</property>
 </producer>
 <producer id="producer243" in="00:00:00.000" out="00:00:04.983">
  <property name="length">00:00:05.000</property>
  <property name="eof">pause</property>
  <property name="resource">/home/xiaoxiae/.cache/kdenlive/proxy/5dd2af59aa3871c44edcdb8ccffb77fc.png</property>
  <property name="ttl">25</property>
  <property name="aspect_ratio">1</property>
  <property name="progressive">1</property>
  <property name="seekable">1</property>
  <property name="meta.media.width">800</property>
  <property name="meta.media.height">450</property>
  <property name="mlt_service">qimage</property>
  <property name="kdenlive:clipname">1.png</property>
  <property name="kdenlive:duration">00:00:05.000</property>
  <property name="kdenlive:folderid">209</property>
  <property name="kdenlive:id">211</property>
  <property name="kdenlive:file_size">53560</property>
  <property name="kdenlive:file_hash">5dd2af59aa3871c44edcdb8ccffb77fc</property>
  <property name="kdenlive:proxy">/home/xiaoxiae/.cache/kdenlive/proxy/5dd2af59aa3871c44edcdb8ccffb77fc.png</property>
  <property name="kdenlive:originalurl">video/Lemma1/1.png</property>
  <property name="global_feed">1</property>
 </producer>
 <producer id="producer248" in="00:00:00.000" out="00:00:00.983">
  <property name="length">60</property>
  <property name="eof">pause</property>
  <property name="resource">/home/xiaoxiae/.cache/kdenlive/proxy/74adb60aef614b1d3d0300d565509752.mkv</property>
  <property name="audio_index">-1</property>
  <property name="video_index">0</property>
  <property name="mute_on_pause">0</property>
  <property name="mlt_service">avformat-novalidate</property>
  <property name="seekable">1</property>
  <property name="aspect_ratio">1</property>
  <property name="kdenlive:clipname">10.mp4</property>
  <property name="kdenlive:folderid">209</property>
  <property name="kdenlive:id">212</property>
  <property name="kdenlive:file_size">201887</property>
  <property name="kdenlive:file_hash">74adb60aef614b1d3d0300d565509752</property>
  <property name="kdenlive:proxy">/home/xiaoxiae/.cache/kdenlive/proxy/74adb60aef614b1d3d0300d565509752.mkv</property>
  <property name="kdenlive:originalurl">video/Lemma1/10.mp4</property>
  <property name="global_feed">1</property>
  <property name="meta.media.nb_streams">1</property>
  <property name="meta.media.0.stream.type">video</property>
  <property name="meta.media.0.stream.frame_rate">60</property>
  <property name="meta.media.0.stream.sample_aspect_ratio">0</property>
  <property name="meta.media.0.codec.width">640</property>
  <property name="meta.media.0.codec.height">360</property>
  <property name="meta.media.0.codec.rotate">0</property>
  <property name="meta.media.0.codec.frame_rate">60</property>
  <property name="meta.media.0.codec.pix_fmt">yuv420p</property>
  <property name="meta.media.0.codec.sample_aspect_ratio">0</property>
  <property name="meta.media.0.codec.colorspace">601</property>
  <property name="meta.media.0.codec.name">h264</property>
  <property name="meta.media.0.codec.long_name">H.264 / AVC / MPEG-4 AVC / MPEG-4 part 10</property>
  <property name="meta.media.0.codec.bit_rate">0</property>
  <property name="meta.attr.0.stream.HANDLER_NAME.markup">VideoHandler</property>
  <property name="meta.attr.0.stream.VENDOR_ID.markup">[0][0][0][0]</property>
  <property name="meta.attr.0.stream.ENCODER.markup">Lavc58.134.100 libx264</property>
  <property name="meta.attr.0.stream.DURATION.markup">00:00:01.000000000</property>
  <property name="meta.attr.COMMENT.markup">Rendered with Manim Community v0.6.0</property>
  <property name="meta.attr.MAJOR_BRAND.markup">isom</property>
  <property name="meta.attr.MINOR_VERSION.markup">512</property>
  <property name="meta.attr.COMPATIBLE_BRANDS.markup">isomiso2avc1mp41</property>
  <property name="meta.attr.ENCODER.markup">Lavf58.76.100</property>
  <property name="meta.media.sample_aspect_num">1</property>
  <property name="meta.media.sample_aspect_den">1</property>
  <property name="meta.media.frame_rate_num">60</property>
  <property name="meta.media.frame_rate_den">1</property>
  <property name="meta.media.colorspace">601</property>
  <property name="meta.media.color_trc">2</property>
  <property name="meta.media.width">640</property>
  <property name="meta.media.height">360</property>
  <property name="meta.media.color_range">mpeg</property>
  <property name="meta.media.top_field_first">0</property>
  <property name="meta.media.progressive">1</property>
  <property name="kdenlive:original.mlt_type">producer</property>
  <property name="kdenlive:original.in">0</property>
  <property name="kdenlive:original.out">59</property>
  <property name="kdenlive:original.length">60</property>
  <property name="kdenlive:original.eof">pause</property>
  <property name="kdenlive:original.resource">video/Lemma1/10.mp4</property>
  <property name="kdenlive:original.meta.media.nb_streams">1</property>
  <property name="kdenlive:original.meta.media.0.stream.type">video</property>
  <property name="kdenlive:original.meta.media.0.stream.frame_rate">60</property>
  <property name="kdenlive:original.meta.media.0.stream.sample_aspect_ratio">0</property>
  <property name="kdenlive:original.meta.media.0.codec.width">3840</property>
  <property name="kdenlive:original.meta.media.0.codec.height">2160</property>
  <property name="kdenlive:original.meta.media.0.codec.rotate">0</property>
  <property name="kdenlive:original.meta.media.0.codec.frame_rate">60</property>
  <property name="kdenlive:original.meta.media.0.codec.pix_fmt">yuv420p</property>
  <property name="kdenlive:original.meta.media.0.codec.sample_aspect_ratio">0</property>
  <property name="kdenlive:original.meta.media.0.codec.colorspace">709</property>
  <property name="kdenlive:original.meta.media.0.codec.name">h264</property>
  <property name="kdenlive:original.meta.media.0.codec.long_name">H.264 / AVC / MPEG-4 AVC / MPEG-4 part 10</property>
  <property name="kdenlive:original.meta.media.0.codec.bit_rate">1602304</property>
  <property name="kdenlive:original.meta.attr.0.stream.handler_name.markup">VideoHandler</property>
  <property name="kdenlive:original.meta.attr.0.stream.vendor_id.markup">[0][0][0][0]</property>
  <property name="kdenlive:original.meta.attr.major_brand.markup">isom</property>
  <property name="kdenlive:original.meta.attr.minor_version.markup">512</property>
  <property name="kdenlive:original.meta.attr.compatible_brands.markup">isomiso2avc1mp41</property>
  <property name="kdenlive:original.meta.attr.encoder.markup">Lavf58.76.100</property>
  <property name="kdenlive:original.meta.attr.comment.markup">Rendered with Manim Community v0.6.0</property>
  <property name="kdenlive:original.seekable">1</property>
  <property name="kdenlive:original.width">3840</property>
  <property name="kdenlive:original.height">2160</property>
  <property name="kdenlive:original.meta.media.sample_aspect_num">1</property>
  <property name="kdenlive:original.meta.media.sample_aspect_den">1</property>
  <property name="kdenlive:original.aspect_ratio">1</property>
  <property name="kdenlive:original.audio_index">-1</property>
  <property name="kdenlive:original.video_index">0</property>
  <property name="kdenlive:original.mute_on_pause">1</property>
  <property name="kdenlive:original.mlt_service">avformat</property>
  <property name="kdenlive:original.meta.media.frame_rate_num">60</property>
  <property name="kdenlive:original.meta.media.frame_rate_den">1</property>
  <property name="kdenlive:original.meta.media.colorspace">709</property>
  <property name="kdenlive:original.meta.media.color_trc">2</property>
  <property name="kdenlive:original.meta.media.width">3840</property>
  <property name="kdenlive:original.meta.media.height">2160</property>
  <property name="kdenlive:original.meta.media.color_range">mpeg</property>
  <property name="kdenlive:original.meta.media.top_field_first">0</property>
  <property name="kdenlive:original.meta.media.progressive">1</property>
  <property name="kdenlive:original.backup">1</property>
 </producer>
 <producer id="producer246" in="00:00:00.000" out="00:00:04.983">
  <property name="length">00:00:05.000</property>
  <property name="eof">pause</property>
  <property name="resource">/home/xiaoxiae/.cache/kdenlive/proxy/687dcc861ea4f3e04af7c8b847e7b8ce.png</property>
  <property name="ttl">25</property>
  <property name="aspect_ratio">1</property>
  <property name="progressive">1</property>
  <property name="seekable">1</property>
  <property name="meta.media.width">800</property>
  <property name="meta.media.height">450</property>
  <property name="mlt_service">qimage</property>
  <property name="kdenlive:clipname">10.png</property>
  <property name="kdenlive:duration">00:00:05.000</property>
  <property name="kdenlive:folderid">209</property>
  <property name="kdenlive:id">213</property>
  <property name="kdenlive:file_size">627583</property>
  <property name="kdenlive:file_hash">687dcc861ea4f3e04af7c8b847e7b8ce</property>
  <property name="kdenlive:proxy">/home/xiaoxiae/.cache/kdenlive/proxy/687dcc861ea4f3e04af7c8b847e7b8ce.png</property>
  <property name="kdenlive:originalurl">video/Lemma1/10.png</property>
  <property name="global_feed">1</property>
  <property name="kdenlive:original.mlt_type">producer</property>
  <property name="kdenlive:original.in">0</property>
  <property name="kdenlive:original.out">14999</property>
  <property name="kdenlive:original.length">15000</property>
  <property name="kdenlive:original.eof">pause</property>
  <property name="kdenlive:original.resource">video/Lemma1/10.png</property>
  <property name="kdenlive:original.ttl">25</property>
  <property name="kdenlive:original.aspect_ratio">1</property>
  <property name="kdenlive:original.progressive">1</property>
  <property name="kdenlive:original.seekable">1</property>
  <property name="kdenlive:original.meta.media.width">3840</property>
  <property name="kdenlive:original.meta.media.height">2160</property>
  <property name="kdenlive:original.mlt_service">qimage</property>
  <property name="kdenlive:original.backup">1</property>
 </producer>
 <producer id="producer249" in="00:00:00.000" out="00:00:00.983">
  <property name="length">60</property>
  <property name="eof">pause</property>
  <property name="resource">/home/xiaoxiae/.cache/kdenlive/proxy/0278365b0aff644fc2ba587a0cc73e41.mkv</property>
  <property name="audio_index">-1</property>
  <property name="video_index">0</property>
  <property name="mute_on_pause">0</property>
  <property name="mlt_service">avformat-novalidate</property>
  <property name="seekable">1</property>
  <property name="aspect_ratio">1</property>
  <property name="kdenlive:clipname">11.mp4</property>
  <property name="kdenlive:folderid">209</property>
  <property name="kdenlive:id">214</property>
  <property name="kdenlive:file_size">184067</property>
  <property name="kdenlive:file_hash">0278365b0aff644fc2ba587a0cc73e41</property>
  <property name="kdenlive:proxy">/home/xiaoxiae/.cache/kdenlive/proxy/0278365b0aff644fc2ba587a0cc73e41.mkv</property>
  <property name="kdenlive:originalurl">video/Lemma1/11.mp4</property>
  <property name="global_feed">1</property>
  <property name="meta.media.nb_streams">1</property>
  <property name="meta.media.0.stream.type">video</property>
  <property name="meta.media.0.stream.frame_rate">60</property>
  <property name="meta.media.0.stream.sample_aspect_ratio">0</property>
  <property name="meta.media.0.codec.width">640</property>
  <property name="meta.media.0.codec.height">360</property>
  <property name="meta.media.0.codec.rotate">0</property>
  <property name="meta.media.0.codec.frame_rate">60</property>
  <property name="meta.media.0.codec.pix_fmt">yuv420p</property>
  <property name="meta.media.0.codec.sample_aspect_ratio">0</property>
  <property name="meta.media.0.codec.colorspace">601</property>
  <property name="meta.media.0.codec.name">h264</property>
  <property name="meta.media.0.codec.long_name">H.264 / AVC / MPEG-4 AVC / MPEG-4 part 10</property>
  <property name="meta.media.0.codec.bit_rate">0</property>
  <property name="meta.attr.0.stream.HANDLER_NAME.markup">VideoHandler</property>
  <property name="meta.attr.0.stream.VENDOR_ID.markup">[0][0][0][0]</property>
  <property name="meta.attr.0.stream.ENCODER.markup">Lavc58.134.100 libx264</property>
  <property name="meta.attr.0.stream.DURATION.markup">00:00:01.000000000</property>
  <property name="meta.attr.COMMENT.markup">Rendered with Manim Community v0.6.0</property>
  <property name="meta.attr.MAJOR_BRAND.markup">isom</property>
  <property name="meta.attr.MINOR_VERSION.markup">512</property>
  <property name="meta.attr.COMPATIBLE_BRANDS.markup">isomiso2avc1mp41</property>
  <property name="meta.attr.ENCODER.markup">Lavf58.76.100</property>
  <property name="meta.media.sample_aspect_num">1</property>
  <property name="meta.media.sample_aspect_den">1</property>
  <property name="meta.media.frame_rate_num">60</property>
  <property name="meta.media.frame_rate_den">1</property>
  <property name="meta.media.colorspace">601</property>
  <property name="meta.media.color_trc">2</property>
  <property name="meta.media.width">640</property>
  <property name="meta.media.height">360</property>
  <property name="meta.media.color_range">mpeg</property>
  <property name="meta.media.top_field_first">0</property>
  <property name="meta.media.progressive">1</property>
  <property name="kdenlive:original.mlt_type">producer</property>
  <property name="kdenlive:original.in">0</property>
  <property name="kdenlive:original.out">59</property>
  <property name="kdenlive:original.length">60</property>
  <property name="kdenlive:original.eof">pause</property>
  <property name="kdenlive:original.resource">video/Lemma1/11.mp4</property>
  <property name="kdenlive:original.meta.media.nb_streams">1</property>
  <property name="kdenlive:original.meta.media.0.stream.type">video</property>
  <property name="kdenlive:original.meta.media.0.stream.frame_rate">60</property>
  <property name="kdenlive:original.meta.media.0.stream.sample_aspect_ratio">0</property>
  <property name="kdenlive:original.meta.media.0.codec.width">3840</property>
  <property name="kdenlive:original.meta.media.0.codec.height">2160</property>
  <property name="kdenlive:original.meta.media.0.codec.rotate">0</property>
  <property name="kdenlive:original.meta.media.0.codec.frame_rate">60</property>
  <property name="kdenlive:original.meta.media.0.codec.pix_fmt">yuv420p</property>
  <property name="kdenlive:original.meta.media.0.codec.sample_aspect_ratio">0</property>
  <property name="kdenlive:original.meta.media.0.codec.colorspace">709</property>
  <property name="kdenlive:original.meta.media.0.codec.name">h264</property>
  <property name="kdenlive:original.meta.media.0.codec.long_name">H.264 / AVC / MPEG-4 AVC / MPEG-4 part 10</property>
  <property name="kdenlive:original.meta.media.0.codec.bit_rate">1459488</property>
  <property name="kdenlive:original.meta.attr.0.stream.handler_name.markup">VideoHandler</property>
  <property name="kdenlive:original.meta.attr.0.stream.vendor_id.markup">[0][0][0][0]</property>
  <property name="kdenlive:original.meta.attr.major_brand.markup">isom</property>
  <property name="kdenlive:original.meta.attr.minor_version.markup">512</property>
  <property name="kdenlive:original.meta.attr.compatible_brands.markup">isomiso2avc1mp41</property>
  <property name="kdenlive:original.meta.attr.encoder.markup">Lavf58.76.100</property>
  <property name="kdenlive:original.meta.attr.comment.markup">Rendered with Manim Community v0.6.0</property>
  <property name="kdenlive:original.seekable">1</property>
  <property name="kdenlive:original.width">3840</property>
  <property name="kdenlive:original.height">2160</property>
  <property name="kdenlive:original.meta.media.sample_aspect_num">1</property>
  <property name="kdenlive:original.meta.media.sample_aspect_den">1</property>
  <property name="kdenlive:original.aspect_ratio">1</property>
  <property name="kdenlive:original.audio_index">-1</property>
  <property name="kdenlive:original.video_index">0</property>
  <property name="kdenlive:original.mute_on_pause">1</property>
  <property name="kdenlive:original.mlt_service">avformat</property>
  <property name="kdenlive:original.meta.media.frame_rate_num">60</property>
  <property name="kdenlive:original.meta.media.frame_rate_den">1</property>
  <property name="kdenlive:original.meta.media.colorspace">709</property>
  <property name="kdenlive:original.meta.media.color_trc">2</property>
  <property name="kdenlive:original.meta.media.width">3840</property>
  <property name="kdenlive:original.meta.media.height">2160</property>
  <property name="kdenlive:original.meta.media.color_range">mpeg</property>
  <property name="kdenlive:original.meta.media.top_field_first">0</property>
  <property name="kdenlive:original.meta.media.progressive">1</property>
  <property name="kdenlive:original.backup">1</property>
 </producer>
 <producer id="producer250" in="00:00:00.000" out="00:00:06.533">
  <property name="length">393</property>
  <property name="eof">pause</property>
  <property name="resource">/home/xiaoxiae/.cache/kdenlive/proxy/357123adf7f83f4849f63078a6983518.png</property>
  <property name="ttl">25</property>
  <property name="aspect_ratio">1</property>
  <property name="progressive">1</property>
  <property name="seekable">1</property>
  <property name="meta.media.width">800</property>
  <property name="meta.media.height">450</property>
  <property name="mlt_service">qimage</property>
  <property name="kdenlive:clipname">11.png</property>
  <property name="kdenlive:duration">00:00:05.000</property>
  <property name="kdenlive:folderid">209</property>
  <property name="kdenlive:id">215</property>
  <property name="kdenlive:file_size">620442</property>
  <property name="kdenlive:file_hash">357123adf7f83f4849f63078a6983518</property>
  <property name="kdenlive:proxy">/home/xiaoxiae/.cache/kdenlive/proxy/357123adf7f83f4849f63078a6983518.png</property>
  <property name="kdenlive:originalurl">video/Lemma1/11.png</property>
  <property name="global_feed">1</property>
  <property name="kdenlive:original.mlt_type">producer</property>
  <property name="kdenlive:original.in">0</property>
  <property name="kdenlive:original.out">14999</property>
  <property name="kdenlive:original.length">15000</property>
  <property name="kdenlive:original.eof">pause</property>
  <property name="kdenlive:original.resource">video/Lemma1/11.png</property>
  <property name="kdenlive:original.ttl">25</property>
  <property name="kdenlive:original.aspect_ratio">1</property>
  <property name="kdenlive:original.progressive">1</property>
  <property name="kdenlive:original.seekable">1</property>
  <property name="kdenlive:original.meta.media.width">3840</property>
  <property name="kdenlive:original.meta.media.height">2160</property>
  <property name="kdenlive:original.mlt_service">qimage</property>
  <property name="kdenlive:original.backup">1</property>
 </producer>
 <producer id="producer251" in="00:00:00.000" out="00:00:00.983">
  <property name="length">60</property>
  <property name="eof">pause</property>
  <property name="resource">/home/xiaoxiae/.cache/kdenlive/proxy/0bd7405233c39310914f27eb216768c8.mkv</property>
  <property name="audio_index">-1</property>
  <property name="video_index">0</property>
  <property name="mute_on_pause">0</property>
  <property name="mlt_service">avformat-novalidate</property>
  <property name="seekable">1</property>
  <property name="aspect_ratio">1</property>
  <property name="kdenlive:clipname">12.mp4</property>
  <property name="kdenlive:folderid">209</property>
  <property name="kdenlive:id">216</property>
  <property name="kdenlive:file_size">210743</property>
  <property name="kdenlive:file_hash">0bd7405233c39310914f27eb216768c8</property>
  <property name="kdenlive:proxy">/home/xiaoxiae/.cache/kdenlive/proxy/0bd7405233c39310914f27eb216768c8.mkv</property>
  <property name="kdenlive:originalurl">video/Lemma1/12.mp4</property>
  <property name="global_feed">1</property>
  <property name="meta.media.nb_streams">1</property>
  <property name="meta.media.0.stream.type">video</property>
  <property name="meta.media.0.stream.frame_rate">60</property>
  <property name="meta.media.0.stream.sample_aspect_ratio">0</property>
  <property name="meta.media.0.codec.width">640</property>
  <property name="meta.media.0.codec.height">360</property>
  <property name="meta.media.0.codec.rotate">0</property>
  <property name="meta.media.0.codec.frame_rate">60</property>
  <property name="meta.media.0.codec.pix_fmt">yuv420p</property>
  <property name="meta.media.0.codec.sample_aspect_ratio">0</property>
  <property name="meta.media.0.codec.colorspace">601</property>
  <property name="meta.media.0.codec.name">h264</property>
  <property name="meta.media.0.codec.long_name">H.264 / AVC / MPEG-4 AVC / MPEG-4 part 10</property>
  <property name="meta.media.0.codec.bit_rate">0</property>
  <property name="meta.attr.0.stream.HANDLER_NAME.markup">VideoHandler</property>
  <property name="meta.attr.0.stream.VENDOR_ID.markup">[0][0][0][0]</property>
  <property name="meta.attr.0.stream.ENCODER.markup">Lavc58.134.100 libx264</property>
  <property name="meta.attr.0.stream.DURATION.markup">00:00:01.000000000</property>
  <property name="meta.attr.COMMENT.markup">Rendered with Manim Community v0.6.0</property>
  <property name="meta.attr.MAJOR_BRAND.markup">isom</property>
  <property name="meta.attr.MINOR_VERSION.markup">512</property>
  <property name="meta.attr.COMPATIBLE_BRANDS.markup">isomiso2avc1mp41</property>
  <property name="meta.attr.ENCODER.markup">Lavf58.76.100</property>
  <property name="meta.media.sample_aspect_num">1</property>
  <property name="meta.media.sample_aspect_den">1</property>
  <property name="meta.media.frame_rate_num">60</property>
  <property name="meta.media.frame_rate_den">1</property>
  <property name="meta.media.colorspace">601</property>
  <property name="meta.media.color_trc">2</property>
  <property name="meta.media.width">640</property>
  <property name="meta.media.height">360</property>
  <property name="meta.media.color_range">mpeg</property>
  <property name="meta.media.top_field_first">0</property>
  <property name="meta.media.progressive">1</property>
  <property name="kdenlive:original.mlt_type">producer</property>
  <property name="kdenlive:original.in">0</property>
  <property name="kdenlive:original.out">59</property>
  <property name="kdenlive:original.length">60</property>
  <property name="kdenlive:original.eof">pause</property>
  <property name="kdenlive:original.resource">video/Lemma1/12.mp4</property>
  <property name="kdenlive:original.meta.media.nb_streams">1</property>
  <property name="kdenlive:original.meta.media.0.stream.type">video</property>
  <property name="kdenlive:original.meta.media.0.stream.frame_rate">60</property>
  <property name="kdenlive:original.meta.media.0.stream.sample_aspect_ratio">0</property>
  <property name="kdenlive:original.meta.media.0.codec.width">3840</property>
  <property name="kdenlive:original.meta.media.0.codec.height">2160</property>
  <property name="kdenlive:original.meta.media.0.codec.rotate">0</property>
  <property name="kdenlive:original.meta.media.0.codec.frame_rate">60</property>
  <property name="kdenlive:original.meta.media.0.codec.pix_fmt">yuv420p</property>
  <property name="kdenlive:original.meta.media.0.codec.sample_aspect_ratio">0</property>
  <property name="kdenlive:original.meta.media.0.codec.colorspace">709</property>
  <property name="kdenlive:original.meta.media.0.codec.name">h264</property>
  <property name="kdenlive:original.meta.media.0.codec.long_name">H.264 / AVC / MPEG-4 AVC / MPEG-4 part 10</property>
  <property name="kdenlive:original.meta.media.0.codec.bit_rate">1673024</property>
  <property name="kdenlive:original.meta.attr.0.stream.handler_name.markup">VideoHandler</property>
  <property name="kdenlive:original.meta.attr.0.stream.vendor_id.markup">[0][0][0][0]</property>
  <property name="kdenlive:original.meta.attr.major_brand.markup">isom</property>
  <property name="kdenlive:original.meta.attr.minor_version.markup">512</property>
  <property name="kdenlive:original.meta.attr.compatible_brands.markup">isomiso2avc1mp41</property>
  <property name="kdenlive:original.meta.attr.encoder.markup">Lavf58.76.100</property>
  <property name="kdenlive:original.meta.attr.comment.markup">Rendered with Manim Community v0.6.0</property>
  <property name="kdenlive:original.seekable">1</property>
  <property name="kdenlive:original.width">3840</property>
  <property name="kdenlive:original.height">2160</property>
  <property name="kdenlive:original.meta.media.sample_aspect_num">1</property>
  <property name="kdenlive:original.meta.media.sample_aspect_den">1</property>
  <property name="kdenlive:original.aspect_ratio">1</property>
  <property name="kdenlive:original.audio_index">-1</property>
  <property name="kdenlive:original.video_index">0</property>
  <property name="kdenlive:original.mute_on_pause">1</property>
  <property name="kdenlive:original.mlt_service">avformat</property>
  <property name="kdenlive:original.meta.media.frame_rate_num">60</property>
  <property name="kdenlive:original.meta.media.frame_rate_den">1</property>
  <property name="kdenlive:original.meta.media.colorspace">709</property>
  <property name="kdenlive:original.meta.media.color_trc">2</property>
  <property name="kdenlive:original.meta.media.width">3840</property>
  <property name="kdenlive:original.meta.media.height">2160</property>
  <property name="kdenlive:original.meta.media.color_range">mpeg</property>
  <property name="kdenlive:original.meta.media.top_field_first">0</property>
  <property name="kdenlive:original.meta.media.progressive">1</property>
  <property name="kdenlive:original.backup">1</property>
 </producer>
 <producer id="producer252" in="00:00:00.000" out="00:00:04.983">
  <property name="length">00:00:05.000</property>
  <property name="eof">pause</property>
  <property name="resource">/home/xiaoxiae/.cache/kdenlive/proxy/2e50ea7b7248d833b3cdcb9d1e8450be.png</property>
  <property name="ttl">25</property>
  <property name="aspect_ratio">1</property>
  <property name="progressive">1</property>
  <property name="seekable">1</property>
  <property name="meta.media.width">800</property>
  <property name="meta.media.height">450</property>
  <property name="mlt_service">qimage</property>
  <property name="kdenlive:clipname">12.png</property>
  <property name="kdenlive:duration">00:00:05.000</property>
  <property name="kdenlive:folderid">209</property>
  <property name="kdenlive:id">217</property>
  <property name="kdenlive:file_size">430253</property>
  <property name="kdenlive:file_hash">2e50ea7b7248d833b3cdcb9d1e8450be</property>
  <property name="kdenlive:proxy">/home/xiaoxiae/.cache/kdenlive/proxy/2e50ea7b7248d833b3cdcb9d1e8450be.png</property>
  <property name="kdenlive:originalurl">video/Lemma1/12.png</property>
  <property name="global_feed">1</property>
 </producer>
 <producer id="producer255" in="00:00:00.000" out="00:00:00.983">
  <property name="length">60</property>
  <property name="eof">pause</property>
  <property name="resource">/home/xiaoxiae/.cache/kdenlive/proxy/1ff33b6e7eafd8c6c945870113e618bd.mkv</property>
  <property name="audio_index">-1</property>
  <property name="video_index">0</property>
  <property name="mute_on_pause">0</property>
  <property name="mlt_service">avformat-novalidate</property>
  <property name="seekable">1</property>
  <property name="aspect_ratio">1</property>
  <property name="kdenlive:clipname">13.mp4</property>
  <property name="kdenlive:folderid">209</property>
  <property name="kdenlive:id">218</property>
  <property name="kdenlive:file_size">112649</property>
  <property name="kdenlive:file_hash">1ff33b6e7eafd8c6c945870113e618bd</property>
  <property name="kdenlive:proxy">/home/xiaoxiae/.cache/kdenlive/proxy/1ff33b6e7eafd8c6c945870113e618bd.mkv</property>
  <property name="kdenlive:originalurl">video/Lemma1/13.mp4</property>
  <property name="global_feed">1</property>
  <property name="meta.media.nb_streams">1</property>
  <property name="meta.media.0.stream.type">video</property>
  <property name="meta.media.0.stream.frame_rate">60</property>
  <property name="meta.media.0.stream.sample_aspect_ratio">0</property>
  <property name="meta.media.0.codec.width">640</property>
  <property name="meta.media.0.codec.height">360</property>
  <property name="meta.media.0.codec.rotate">0</property>
  <property name="meta.media.0.codec.frame_rate">60</property>
  <property name="meta.media.0.codec.pix_fmt">yuv420p</property>
  <property name="meta.media.0.codec.sample_aspect_ratio">0</property>
  <property name="meta.media.0.codec.colorspace">601</property>
  <property name="meta.media.0.codec.name">h264</property>
  <property name="meta.media.0.codec.long_name">H.264 / AVC / MPEG-4 AVC / MPEG-4 part 10</property>
  <property name="meta.media.0.codec.bit_rate">0</property>
  <property name="meta.attr.0.stream.HANDLER_NAME.markup">VideoHandler</property>
  <property name="meta.attr.0.stream.VENDOR_ID.markup">[0][0][0][0]</property>
  <property name="meta.attr.0.stream.ENCODER.markup">Lavc58.134.100 libx264</property>
  <property name="meta.attr.0.stream.DURATION.markup">00:00:01.000000000</property>
  <property name="meta.attr.COMMENT.markup">Rendered with Manim Community v0.6.0</property>
  <property name="meta.attr.MAJOR_BRAND.markup">isom</property>
  <property name="meta.attr.MINOR_VERSION.markup">512</property>
  <property name="meta.attr.COMPATIBLE_BRANDS.markup">isomiso2avc1mp41</property>
  <property name="meta.attr.ENCODER.markup">Lavf58.76.100</property>
  <property name="meta.media.sample_aspect_num">1</property>
  <property name="meta.media.sample_aspect_den">1</property>
  <property name="meta.media.frame_rate_num">60</property>
  <property name="meta.media.frame_rate_den">1</property>
  <property name="meta.media.colorspace">601</property>
  <property name="meta.media.color_trc">2</property>
  <property name="meta.media.width">640</property>
  <property name="meta.media.height">360</property>
  <property name="meta.media.color_range">mpeg</property>
  <property name="meta.media.top_field_first">0</property>
  <property name="meta.media.progressive">1</property>
  <property name="kdenlive:original.mlt_type">producer</property>
  <property name="kdenlive:original.in">0</property>
  <property name="kdenlive:original.out">59</property>
  <property name="kdenlive:original.length">60</property>
  <property name="kdenlive:original.eof">pause</property>
  <property name="kdenlive:original.resource">video/Lemma1/13.mp4</property>
  <property name="kdenlive:original.meta.media.nb_streams">1</property>
  <property name="kdenlive:original.meta.media.0.stream.type">video</property>
  <property name="kdenlive:original.meta.media.0.stream.frame_rate">60</property>
  <property name="kdenlive:original.meta.media.0.stream.sample_aspect_ratio">0</property>
  <property name="kdenlive:original.meta.media.0.codec.width">3840</property>
  <property name="kdenlive:original.meta.media.0.codec.height">2160</property>
  <property name="kdenlive:original.meta.media.0.codec.rotate">0</property>
  <property name="kdenlive:original.meta.media.0.codec.frame_rate">60</property>
  <property name="kdenlive:original.meta.media.0.codec.pix_fmt">yuv420p</property>
  <property name="kdenlive:original.meta.media.0.codec.sample_aspect_ratio">0</property>
  <property name="kdenlive:original.meta.media.0.codec.colorspace">709</property>
  <property name="kdenlive:original.meta.media.0.codec.name">h264</property>
  <property name="kdenlive:original.meta.media.0.codec.long_name">H.264 / AVC / MPEG-4 AVC / MPEG-4 part 10</property>
  <property name="kdenlive:original.meta.media.0.codec.bit_rate">888144</property>
  <property name="kdenlive:original.meta.attr.0.stream.handler_name.markup">VideoHandler</property>
  <property name="kdenlive:original.meta.attr.0.stream.vendor_id.markup">[0][0][0][0]</property>
  <property name="kdenlive:original.meta.attr.major_brand.markup">isom</property>
  <property name="kdenlive:original.meta.attr.minor_version.markup">512</property>
  <property name="kdenlive:original.meta.attr.compatible_brands.markup">isomiso2avc1mp41</property>
  <property name="kdenlive:original.meta.attr.encoder.markup">Lavf58.76.100</property>
  <property name="kdenlive:original.meta.attr.comment.markup">Rendered with Manim Community v0.6.0</property>
  <property name="kdenlive:original.seekable">1</property>
  <property name="kdenlive:original.width">3840</property>
  <property name="kdenlive:original.height">2160</property>
  <property name="kdenlive:original.meta.media.sample_aspect_num">1</property>
  <property name="kdenlive:original.meta.media.sample_aspect_den">1</property>
  <property name="kdenlive:original.aspect_ratio">1</property>
  <property name="kdenlive:original.audio_index">-1</property>
  <property name="kdenlive:original.video_index">0</property>
  <property name="kdenlive:original.mute_on_pause">1</property>
  <property name="kdenlive:original.mlt_service">avformat</property>
  <property name="kdenlive:original.meta.media.frame_rate_num">60</property>
  <property name="kdenlive:original.meta.media.frame_rate_den">1</property>
  <property name="kdenlive:original.meta.media.colorspace">709</property>
  <property name="kdenlive:original.meta.media.color_trc">2</property>
  <property name="kdenlive:original.meta.media.width">3840</property>
  <property name="kdenlive:original.meta.media.height">2160</property>
  <property name="kdenlive:original.meta.media.color_range">mpeg</property>
  <property name="kdenlive:original.meta.media.top_field_first">0</property>
  <property name="kdenlive:original.meta.media.progressive">1</property>
  <property name="kdenlive:original.backup">1</property>
 </producer>
 <producer id="producer253" in="00:00:00.000" out="00:00:04.983">
  <property name="length">00:00:05.000</property>
  <property name="eof">pause</property>
  <property name="resource">/home/xiaoxiae/.cache/kdenlive/proxy/2cd2b46fd067c317e33b1c224a8dcebb.png</property>
  <property name="ttl">25</property>
  <property name="aspect_ratio">1</property>
  <property name="progressive">1</property>
  <property name="seekable">1</property>
  <property name="meta.media.width">800</property>
  <property name="meta.media.height">450</property>
  <property name="mlt_service">qimage</property>
  <property name="kdenlive:clipname">13.png</property>
  <property name="kdenlive:duration">00:00:05.000</property>
  <property name="kdenlive:folderid">209</property>
  <property name="kdenlive:id">219</property>
  <property name="kdenlive:file_size">430424</property>
  <property name="kdenlive:file_hash">2cd2b46fd067c317e33b1c224a8dcebb</property>
  <property name="kdenlive:proxy">/home/xiaoxiae/.cache/kdenlive/proxy/2cd2b46fd067c317e33b1c224a8dcebb.png</property>
  <property name="kdenlive:originalurl">video/Lemma1/13.png</property>
  <property name="global_feed">1</property>
  <property name="kdenlive:original.mlt_type">producer</property>
  <property name="kdenlive:original.in">0</property>
  <property name="kdenlive:original.out">14999</property>
  <property name="kdenlive:original.length">15000</property>
  <property name="kdenlive:original.eof">pause</property>
  <property name="kdenlive:original.resource">video/Lemma1/13.png</property>
  <property name="kdenlive:original.ttl">25</property>
  <property name="kdenlive:original.aspect_ratio">1</property>
  <property name="kdenlive:original.progressive">1</property>
  <property name="kdenlive:original.seekable">1</property>
  <property name="kdenlive:original.meta.media.width">3840</property>
  <property name="kdenlive:original.meta.media.height">2160</property>
  <property name="kdenlive:original.mlt_service">qimage</property>
  <property name="kdenlive:original.backup">1</property>
 </producer>
 <producer id="producer256" in="00:00:00.000" out="00:00:00.983">
  <property name="length">60</property>
  <property name="eof">pause</property>
  <property name="resource">/home/xiaoxiae/.cache/kdenlive/proxy/3e9660c357a2001ae9b156b0e3503a91.mkv</property>
  <property name="audio_index">-1</property>
  <property name="video_index">0</property>
  <property name="mute_on_pause">0</property>
  <property name="mlt_service">avformat-novalidate</property>
  <property name="seekable">1</property>
  <property name="aspect_ratio">1</property>
  <property name="kdenlive:clipname">14.mp4</property>
  <property name="kdenlive:folderid">209</property>
  <property name="kdenlive:id">220</property>
  <property name="kdenlive:file_size">110879</property>
  <property name="kdenlive:file_hash">3e9660c357a2001ae9b156b0e3503a91</property>
  <property name="kdenlive:proxy">/home/xiaoxiae/.cache/kdenlive/proxy/3e9660c357a2001ae9b156b0e3503a91.mkv</property>
  <property name="kdenlive:originalurl">video/Lemma1/14.mp4</property>
  <property name="global_feed">1</property>
  <property name="meta.media.nb_streams">1</property>
  <property name="meta.media.0.stream.type">video</property>
  <property name="meta.media.0.stream.frame_rate">60</property>
  <property name="meta.media.0.stream.sample_aspect_ratio">0</property>
  <property name="meta.media.0.codec.width">640</property>
  <property name="meta.media.0.codec.height">360</property>
  <property name="meta.media.0.codec.rotate">0</property>
  <property name="meta.media.0.codec.frame_rate">60</property>
  <property name="meta.media.0.codec.pix_fmt">yuv420p</property>
  <property name="meta.media.0.codec.sample_aspect_ratio">0</property>
  <property name="meta.media.0.codec.colorspace">601</property>
  <property name="meta.media.0.codec.name">h264</property>
  <property name="meta.media.0.codec.long_name">H.264 / AVC / MPEG-4 AVC / MPEG-4 part 10</property>
  <property name="meta.media.0.codec.bit_rate">0</property>
  <property name="meta.attr.0.stream.HANDLER_NAME.markup">VideoHandler</property>
  <property name="meta.attr.0.stream.VENDOR_ID.markup">[0][0][0][0]</property>
  <property name="meta.attr.0.stream.ENCODER.markup">Lavc58.134.100 libx264</property>
  <property name="meta.attr.0.stream.DURATION.markup">00:00:01.000000000</property>
  <property name="meta.attr.COMMENT.markup">Rendered with Manim Community v0.6.0</property>
  <property name="meta.attr.MAJOR_BRAND.markup">isom</property>
  <property name="meta.attr.MINOR_VERSION.markup">512</property>
  <property name="meta.attr.COMPATIBLE_BRANDS.markup">isomiso2avc1mp41</property>
  <property name="meta.attr.ENCODER.markup">Lavf58.76.100</property>
  <property name="meta.media.sample_aspect_num">1</property>
  <property name="meta.media.sample_aspect_den">1</property>
  <property name="meta.media.frame_rate_num">60</property>
  <property name="meta.media.frame_rate_den">1</property>
  <property name="meta.media.colorspace">601</property>
  <property name="meta.media.color_trc">2</property>
  <property name="meta.media.width">640</property>
  <property name="meta.media.height">360</property>
  <property name="meta.media.color_range">mpeg</property>
  <property name="meta.media.top_field_first">0</property>
  <property name="meta.media.progressive">1</property>
  <property name="kdenlive:original.mlt_type">producer</property>
  <property name="kdenlive:original.in">0</property>
  <property name="kdenlive:original.out">59</property>
  <property name="kdenlive:original.length">60</property>
  <property name="kdenlive:original.eof">pause</property>
  <property name="kdenlive:original.resource">video/Lemma1/14.mp4</property>
  <property name="kdenlive:original.meta.media.nb_streams">1</property>
  <property name="kdenlive:original.meta.media.0.stream.type">video</property>
  <property name="kdenlive:original.meta.media.0.stream.frame_rate">60</property>
  <property name="kdenlive:original.meta.media.0.stream.sample_aspect_ratio">0</property>
  <property name="kdenlive:original.meta.media.0.codec.width">3840</property>
  <property name="kdenlive:original.meta.media.0.codec.height">2160</property>
  <property name="kdenlive:original.meta.media.0.codec.rotate">0</property>
  <property name="kdenlive:original.meta.media.0.codec.frame_rate">60</property>
  <property name="kdenlive:original.meta.media.0.codec.pix_fmt">yuv420p</property>
  <property name="kdenlive:original.meta.media.0.codec.sample_aspect_ratio">0</property>
  <property name="kdenlive:original.meta.media.0.codec.colorspace">709</property>
  <property name="kdenlive:original.meta.media.0.codec.name">h264</property>
  <property name="kdenlive:original.meta.media.0.codec.long_name">H.264 / AVC / MPEG-4 AVC / MPEG-4 part 10</property>
  <property name="kdenlive:original.meta.media.0.codec.bit_rate">873984</property>
  <property name="kdenlive:original.meta.attr.0.stream.handler_name.markup">VideoHandler</property>
  <property name="kdenlive:original.meta.attr.0.stream.vendor_id.markup">[0][0][0][0]</property>
  <property name="kdenlive:original.meta.attr.major_brand.markup">isom</property>
  <property name="kdenlive:original.meta.attr.minor_version.markup">512</property>
  <property name="kdenlive:original.meta.attr.compatible_brands.markup">isomiso2avc1mp41</property>
  <property name="kdenlive:original.meta.attr.encoder.markup">Lavf58.76.100</property>
  <property name="kdenlive:original.meta.attr.comment.markup">Rendered with Manim Community v0.6.0</property>
  <property name="kdenlive:original.seekable">1</property>
  <property name="kdenlive:original.width">3840</property>
  <property name="kdenlive:original.height">2160</property>
  <property name="kdenlive:original.meta.media.sample_aspect_num">1</property>
  <property name="kdenlive:original.meta.media.sample_aspect_den">1</property>
  <property name="kdenlive:original.aspect_ratio">1</property>
  <property name="kdenlive:original.audio_index">-1</property>
  <property name="kdenlive:original.video_index">0</property>
  <property name="kdenlive:original.mute_on_pause">1</property>
  <property name="kdenlive:original.mlt_service">avformat</property>
  <property name="kdenlive:original.meta.media.frame_rate_num">60</property>
  <property name="kdenlive:original.meta.media.frame_rate_den">1</property>
  <property name="kdenlive:original.meta.media.colorspace">709</property>
  <property name="kdenlive:original.meta.media.color_trc">2</property>
  <property name="kdenlive:original.meta.media.width">3840</property>
  <property name="kdenlive:original.meta.media.height">2160</property>
  <property name="kdenlive:original.meta.media.color_range">mpeg</property>
  <property name="kdenlive:original.meta.media.top_field_first">0</property>
  <property name="kdenlive:original.meta.media.progressive">1</property>
  <property name="kdenlive:original.backup">1</property>
 </producer>
 <producer id="producer254" in="00:00:00.000" out="00:00:05.000">
  <property name="length">301</property>
  <property name="eof">pause</property>
  <property name="resource">/home/xiaoxiae/.cache/kdenlive/proxy/d7517d117f7ec224af36da299e380b6a.png</property>
  <property name="ttl">25</property>
  <property name="aspect_ratio">1</property>
  <property name="progressive">1</property>
  <property name="seekable">1</property>
  <property name="meta.media.width">800</property>
  <property name="meta.media.height">450</property>
  <property name="mlt_service">qimage</property>
  <property name="kdenlive:clipname">14.png</property>
  <property name="kdenlive:duration">00:00:05.000</property>
  <property name="kdenlive:folderid">209</property>
  <property name="kdenlive:id">221</property>
  <property name="kdenlive:file_size">435098</property>
  <property name="kdenlive:file_hash">d7517d117f7ec224af36da299e380b6a</property>
  <property name="kdenlive:proxy">/home/xiaoxiae/.cache/kdenlive/proxy/d7517d117f7ec224af36da299e380b6a.png</property>
  <property name="kdenlive:originalurl">video/Lemma1/14.png</property>
  <property name="global_feed">1</property>
  <property name="kdenlive:original.mlt_type">producer</property>
  <property name="kdenlive:original.in">0</property>
  <property name="kdenlive:original.out">14999</property>
  <property name="kdenlive:original.length">15000</property>
  <property name="kdenlive:original.eof">pause</property>
  <property name="kdenlive:original.resource">video/Lemma1/14.png</property>
  <property name="kdenlive:original.ttl">25</property>
  <property name="kdenlive:original.aspect_ratio">1</property>
  <property name="kdenlive:original.progressive">1</property>
  <property name="kdenlive:original.seekable">1</property>
  <property name="kdenlive:original.meta.media.width">3840</property>
  <property name="kdenlive:original.meta.media.height">2160</property>
  <property name="kdenlive:original.mlt_service">qimage</property>
  <property name="kdenlive:original.backup">1</property>
 </producer>
 <producer id="producer257" in="00:00:00.000" out="00:00:00.983">
  <property name="length">60</property>
  <property name="eof">pause</property>
  <property name="resource">/home/xiaoxiae/.cache/kdenlive/proxy/28bb2a69112939ee2e6651e90796efdd.mkv</property>
  <property name="audio_index">-1</property>
  <property name="video_index">0</property>
  <property name="mute_on_pause">0</property>
  <property name="mlt_service">avformat-novalidate</property>
  <property name="seekable">1</property>
  <property name="aspect_ratio">1</property>
  <property name="kdenlive:clipname">15.mp4</property>
  <property name="kdenlive:folderid">209</property>
  <property name="kdenlive:id">222</property>
  <property name="kdenlive:file_size">275805</property>
  <property name="kdenlive:file_hash">28bb2a69112939ee2e6651e90796efdd</property>
  <property name="kdenlive:proxy">/home/xiaoxiae/.cache/kdenlive/proxy/28bb2a69112939ee2e6651e90796efdd.mkv</property>
  <property name="kdenlive:originalurl">video/Lemma1/15.mp4</property>
  <property name="global_feed">1</property>
  <property name="meta.media.nb_streams">1</property>
  <property name="meta.media.0.stream.type">video</property>
  <property name="meta.media.0.stream.frame_rate">60</property>
  <property name="meta.media.0.stream.sample_aspect_ratio">0</property>
  <property name="meta.media.0.codec.width">640</property>
  <property name="meta.media.0.codec.height">360</property>
  <property name="meta.media.0.codec.rotate">0</property>
  <property name="meta.media.0.codec.frame_rate">60</property>
  <property name="meta.media.0.codec.pix_fmt">yuv420p</property>
  <property name="meta.media.0.codec.sample_aspect_ratio">0</property>
  <property name="meta.media.0.codec.colorspace">601</property>
  <property name="meta.media.0.codec.name">h264</property>
  <property name="meta.media.0.codec.long_name">H.264 / AVC / MPEG-4 AVC / MPEG-4 part 10</property>
  <property name="meta.media.0.codec.bit_rate">0</property>
  <property name="meta.attr.0.stream.HANDLER_NAME.markup">VideoHandler</property>
  <property name="meta.attr.0.stream.VENDOR_ID.markup">[0][0][0][0]</property>
  <property name="meta.attr.0.stream.ENCODER.markup">Lavc58.134.100 libx264</property>
  <property name="meta.attr.0.stream.DURATION.markup">00:00:01.000000000</property>
  <property name="meta.attr.COMMENT.markup">Rendered with Manim Community v0.6.0</property>
  <property name="meta.attr.MAJOR_BRAND.markup">isom</property>
  <property name="meta.attr.MINOR_VERSION.markup">512</property>
  <property name="meta.attr.COMPATIBLE_BRANDS.markup">isomiso2avc1mp41</property>
  <property name="meta.attr.ENCODER.markup">Lavf58.76.100</property>
  <property name="meta.media.sample_aspect_num">1</property>
  <property name="meta.media.sample_aspect_den">1</property>
  <property name="meta.media.frame_rate_num">60</property>
  <property name="meta.media.frame_rate_den">1</property>
  <property name="meta.media.colorspace">601</property>
  <property name="meta.media.color_trc">2</property>
  <property name="meta.media.width">640</property>
  <property name="meta.media.height">360</property>
  <property name="meta.media.color_range">mpeg</property>
  <property name="meta.media.top_field_first">0</property>
  <property name="meta.media.progressive">1</property>
  <property name="kdenlive:original.mlt_type">producer</property>
  <property name="kdenlive:original.in">0</property>
  <property name="kdenlive:original.out">59</property>
  <property name="kdenlive:original.length">60</property>
  <property name="kdenlive:original.eof">pause</property>
  <property name="kdenlive:original.resource">video/Lemma1/15.mp4</property>
  <property name="kdenlive:original.meta.media.nb_streams">1</property>
  <property name="kdenlive:original.meta.media.0.stream.type">video</property>
  <property name="kdenlive:original.meta.media.0.stream.frame_rate">60</property>
  <property name="kdenlive:original.meta.media.0.stream.sample_aspect_ratio">0</property>
  <property name="kdenlive:original.meta.media.0.codec.width">3840</property>
  <property name="kdenlive:original.meta.media.0.codec.height">2160</property>
  <property name="kdenlive:original.meta.media.0.codec.rotate">0</property>
  <property name="kdenlive:original.meta.media.0.codec.frame_rate">60</property>
  <property name="kdenlive:original.meta.media.0.codec.pix_fmt">yuv420p</property>
  <property name="kdenlive:original.meta.media.0.codec.sample_aspect_ratio">0</property>
  <property name="kdenlive:original.meta.media.0.codec.colorspace">709</property>
  <property name="kdenlive:original.meta.media.0.codec.name">h264</property>
  <property name="kdenlive:original.meta.media.0.codec.long_name">H.264 / AVC / MPEG-4 AVC / MPEG-4 part 10</property>
  <property name="kdenlive:original.meta.media.0.codec.bit_rate">2194160</property>
  <property name="kdenlive:original.meta.attr.0.stream.handler_name.markup">VideoHandler</property>
  <property name="kdenlive:original.meta.attr.0.stream.vendor_id.markup">[0][0][0][0]</property>
  <property name="kdenlive:original.meta.attr.major_brand.markup">isom</property>
  <property name="kdenlive:original.meta.attr.minor_version.markup">512</property>
  <property name="kdenlive:original.meta.attr.compatible_brands.markup">isomiso2avc1mp41</property>
  <property name="kdenlive:original.meta.attr.encoder.markup">Lavf58.76.100</property>
  <property name="kdenlive:original.meta.attr.comment.markup">Rendered with Manim Community v0.6.0</property>
  <property name="kdenlive:original.seekable">1</property>
  <property name="kdenlive:original.width">3840</property>
  <property name="kdenlive:original.height">2160</property>
  <property name="kdenlive:original.meta.media.sample_aspect_num">1</property>
  <property name="kdenlive:original.meta.media.sample_aspect_den">1</property>
  <property name="kdenlive:original.aspect_ratio">1</property>
  <property name="kdenlive:original.audio_index">-1</property>
  <property name="kdenlive:original.video_index">0</property>
  <property name="kdenlive:original.mute_on_pause">1</property>
  <property name="kdenlive:original.mlt_service">avformat</property>
  <property name="kdenlive:original.meta.media.frame_rate_num">60</property>
  <property name="kdenlive:original.meta.media.frame_rate_den">1</property>
  <property name="kdenlive:original.meta.media.colorspace">709</property>
  <property name="kdenlive:original.meta.media.color_trc">2</property>
  <property name="kdenlive:original.meta.media.width">3840</property>
  <property name="kdenlive:original.meta.media.height">2160</property>
  <property name="kdenlive:original.meta.media.color_range">mpeg</property>
  <property name="kdenlive:original.meta.media.top_field_first">0</property>
  <property name="kdenlive:original.meta.media.progressive">1</property>
  <property name="kdenlive:original.backup">1</property>
 </producer>
 <producer id="producer258" in="00:00:00.000" out="00:00:04.983">
  <property name="length">00:00:05.000</property>
  <property name="eof">pause</property>
  <property name="resource">/home/xiaoxiae/.cache/kdenlive/proxy/d9d4e6cb787bf9c2cc1ad4d8159ba00f.png</property>
  <property name="ttl">25</property>
  <property name="aspect_ratio">1</property>
  <property name="progressive">1</property>
  <property name="seekable">1</property>
  <property name="meta.media.width">800</property>
  <property name="meta.media.height">450</property>
  <property name="mlt_service">qimage</property>
  <property name="kdenlive:clipname">15.png</property>
  <property name="kdenlive:duration">00:00:05.000</property>
  <property name="kdenlive:folderid">209</property>
  <property name="kdenlive:id">223</property>
  <property name="kdenlive:file_size">623305</property>
  <property name="kdenlive:file_hash">d9d4e6cb787bf9c2cc1ad4d8159ba00f</property>
  <property name="kdenlive:proxy">/home/xiaoxiae/.cache/kdenlive/proxy/d9d4e6cb787bf9c2cc1ad4d8159ba00f.png</property>
  <property name="kdenlive:originalurl">video/Lemma1/15.png</property>
  <property name="global_feed">1</property>
  <property name="kdenlive:original.mlt_type">producer</property>
  <property name="kdenlive:original.in">0</property>
  <property name="kdenlive:original.out">14999</property>
  <property name="kdenlive:original.length">15000</property>
  <property name="kdenlive:original.eof">pause</property>
  <property name="kdenlive:original.resource">video/Lemma1/15.png</property>
  <property name="kdenlive:original.ttl">25</property>
  <property name="kdenlive:original.aspect_ratio">1</property>
  <property name="kdenlive:original.progressive">1</property>
  <property name="kdenlive:original.seekable">1</property>
  <property name="kdenlive:original.meta.media.width">3840</property>
  <property name="kdenlive:original.meta.media.height">2160</property>
  <property name="kdenlive:original.mlt_service">qimage</property>
  <property name="kdenlive:original.backup">1</property>
 </producer>
 <producer id="producer260" in="00:00:00.000" out="00:00:00.983">
  <property name="length">60</property>
  <property name="eof">pause</property>
  <property name="resource">/home/xiaoxiae/.cache/kdenlive/proxy/c4cbf2f8363a3f01ce8d21aabb2b9a42.mkv</property>
  <property name="audio_index">-1</property>
  <property name="video_index">0</property>
  <property name="mute_on_pause">0</property>
  <property name="mlt_service">avformat-novalidate</property>
  <property name="seekable">1</property>
  <property name="aspect_ratio">1</property>
  <property name="kdenlive:clipname">16.mp4</property>
  <property name="kdenlive:folderid">209</property>
  <property name="kdenlive:id">224</property>
  <property name="kdenlive:file_size">142351</property>
  <property name="kdenlive:file_hash">c4cbf2f8363a3f01ce8d21aabb2b9a42</property>
  <property name="kdenlive:proxy">/home/xiaoxiae/.cache/kdenlive/proxy/c4cbf2f8363a3f01ce8d21aabb2b9a42.mkv</property>
  <property name="kdenlive:originalurl">video/Lemma1/16.mp4</property>
  <property name="global_feed">1</property>
  <property name="meta.media.nb_streams">1</property>
  <property name="meta.media.0.stream.type">video</property>
  <property name="meta.media.0.stream.frame_rate">60</property>
  <property name="meta.media.0.stream.sample_aspect_ratio">0</property>
  <property name="meta.media.0.codec.width">640</property>
  <property name="meta.media.0.codec.height">360</property>
  <property name="meta.media.0.codec.rotate">0</property>
  <property name="meta.media.0.codec.frame_rate">60</property>
  <property name="meta.media.0.codec.pix_fmt">yuv420p</property>
  <property name="meta.media.0.codec.sample_aspect_ratio">0</property>
  <property name="meta.media.0.codec.colorspace">601</property>
  <property name="meta.media.0.codec.name">h264</property>
  <property name="meta.media.0.codec.long_name">H.264 / AVC / MPEG-4 AVC / MPEG-4 part 10</property>
  <property name="meta.media.0.codec.bit_rate">0</property>
  <property name="meta.attr.0.stream.HANDLER_NAME.markup">VideoHandler</property>
  <property name="meta.attr.0.stream.VENDOR_ID.markup">[0][0][0][0]</property>
  <property name="meta.attr.0.stream.ENCODER.markup">Lavc58.134.100 libx264</property>
  <property name="meta.attr.0.stream.DURATION.markup">00:00:01.000000000</property>
  <property name="meta.attr.COMMENT.markup">Rendered with Manim Community v0.6.0</property>
  <property name="meta.attr.MAJOR_BRAND.markup">isom</property>
  <property name="meta.attr.MINOR_VERSION.markup">512</property>
  <property name="meta.attr.COMPATIBLE_BRANDS.markup">isomiso2avc1mp41</property>
  <property name="meta.attr.ENCODER.markup">Lavf58.76.100</property>
  <property name="meta.media.sample_aspect_num">1</property>
  <property name="meta.media.sample_aspect_den">1</property>
  <property name="meta.media.frame_rate_num">60</property>
  <property name="meta.media.frame_rate_den">1</property>
  <property name="meta.media.colorspace">601</property>
  <property name="meta.media.color_trc">2</property>
  <property name="meta.media.width">640</property>
  <property name="meta.media.height">360</property>
  <property name="meta.media.color_range">mpeg</property>
  <property name="meta.media.top_field_first">0</property>
  <property name="meta.media.progressive">1</property>
  <property name="kdenlive:original.mlt_type">producer</property>
  <property name="kdenlive:original.in">0</property>
  <property name="kdenlive:original.out">59</property>
  <property name="kdenlive:original.length">60</property>
  <property name="kdenlive:original.eof">pause</property>
  <property name="kdenlive:original.resource">video/Lemma1/16.mp4</property>
  <property name="kdenlive:original.meta.media.nb_streams">1</property>
  <property name="kdenlive:original.meta.media.0.stream.type">video</property>
  <property name="kdenlive:original.meta.media.0.stream.frame_rate">60</property>
  <property name="kdenlive:original.meta.media.0.stream.sample_aspect_ratio">0</property>
  <property name="kdenlive:original.meta.media.0.codec.width">3840</property>
  <property name="kdenlive:original.meta.media.0.codec.height">2160</property>
  <property name="kdenlive:original.meta.media.0.codec.rotate">0</property>
  <property name="kdenlive:original.meta.media.0.codec.frame_rate">60</property>
  <property name="kdenlive:original.meta.media.0.codec.pix_fmt">yuv420p</property>
  <property name="kdenlive:original.meta.media.0.codec.sample_aspect_ratio">0</property>
  <property name="kdenlive:original.meta.media.0.codec.colorspace">709</property>
  <property name="kdenlive:original.meta.media.0.codec.name">h264</property>
  <property name="kdenlive:original.meta.media.0.codec.long_name">H.264 / AVC / MPEG-4 AVC / MPEG-4 part 10</property>
  <property name="kdenlive:original.meta.media.0.codec.bit_rate">1125760</property>
  <property name="kdenlive:original.meta.attr.0.stream.handler_name.markup">VideoHandler</property>
  <property name="kdenlive:original.meta.attr.0.stream.vendor_id.markup">[0][0][0][0]</property>
  <property name="kdenlive:original.meta.attr.major_brand.markup">isom</property>
  <property name="kdenlive:original.meta.attr.minor_version.markup">512</property>
  <property name="kdenlive:original.meta.attr.compatible_brands.markup">isomiso2avc1mp41</property>
  <property name="kdenlive:original.meta.attr.encoder.markup">Lavf58.76.100</property>
  <property name="kdenlive:original.meta.attr.comment.markup">Rendered with Manim Community v0.6.0</property>
  <property name="kdenlive:original.seekable">1</property>
  <property name="kdenlive:original.width">3840</property>
  <property name="kdenlive:original.height">2160</property>
  <property name="kdenlive:original.meta.media.sample_aspect_num">1</property>
  <property name="kdenlive:original.meta.media.sample_aspect_den">1</property>
  <property name="kdenlive:original.aspect_ratio">1</property>
  <property name="kdenlive:original.audio_index">-1</property>
  <property name="kdenlive:original.video_index">0</property>
  <property name="kdenlive:original.mute_on_pause">1</property>
  <property name="kdenlive:original.mlt_service">avformat</property>
  <property name="kdenlive:original.meta.media.frame_rate_num">60</property>
  <property name="kdenlive:original.meta.media.frame_rate_den">1</property>
  <property name="kdenlive:original.meta.media.colorspace">709</property>
  <property name="kdenlive:original.meta.media.color_trc">2</property>
  <property name="kdenlive:original.meta.media.width">3840</property>
  <property name="kdenlive:original.meta.media.height">2160</property>
  <property name="kdenlive:original.meta.media.color_range">mpeg</property>
  <property name="kdenlive:original.meta.media.top_field_first">0</property>
  <property name="kdenlive:original.meta.media.progressive">1</property>
  <property name="kdenlive:original.backup">1</property>
 </producer>
 <producer id="producer259" in="00:00:00.000" out="00:00:04.983">
  <property name="length">00:00:05.000</property>
  <property name="eof">pause</property>
  <property name="resource">/home/xiaoxiae/.cache/kdenlive/proxy/4e9a9806fe128ec23d864e4cd3715f19.png</property>
  <property name="ttl">25</property>
  <property name="aspect_ratio">1</property>
  <property name="progressive">1</property>
  <property name="seekable">1</property>
  <property name="meta.media.width">800</property>
  <property name="meta.media.height">450</property>
  <property name="mlt_service">qimage</property>
  <property name="kdenlive:clipname">16.png</property>
  <property name="kdenlive:duration">00:00:05.000</property>
  <property name="kdenlive:folderid">209</property>
  <property name="kdenlive:id">225</property>
  <property name="kdenlive:file_size">577148</property>
  <property name="kdenlive:file_hash">4e9a9806fe128ec23d864e4cd3715f19</property>
  <property name="kdenlive:proxy">/home/xiaoxiae/.cache/kdenlive/proxy/4e9a9806fe128ec23d864e4cd3715f19.png</property>
  <property name="kdenlive:originalurl">video/Lemma1/16.png</property>
  <property name="global_feed">1</property>
  <property name="kdenlive:original.mlt_type">producer</property>
  <property name="kdenlive:original.in">0</property>
  <property name="kdenlive:original.out">14999</property>
  <property name="kdenlive:original.length">15000</property>
  <property name="kdenlive:original.eof">pause</property>
  <property name="kdenlive:original.resource">video/Lemma1/16.png</property>
  <property name="kdenlive:original.ttl">25</property>
  <property name="kdenlive:original.aspect_ratio">1</property>
  <property name="kdenlive:original.progressive">1</property>
  <property name="kdenlive:original.seekable">1</property>
  <property name="kdenlive:original.meta.media.width">3840</property>
  <property name="kdenlive:original.meta.media.height">2160</property>
  <property name="kdenlive:original.mlt_service">qimage</property>
  <property name="kdenlive:original.backup">1</property>
 </producer>
 <producer id="producer262" in="00:00:00.000" out="00:00:00.983">
  <property name="length">60</property>
  <property name="eof">pause</property>
  <property name="resource">/home/xiaoxiae/.cache/kdenlive/proxy/771e46649adb2247e737402183ac24e5.mkv</property>
  <property name="audio_index">-1</property>
  <property name="video_index">0</property>
  <property name="mute_on_pause">0</property>
  <property name="mlt_service">avformat-novalidate</property>
  <property name="seekable">1</property>
  <property name="aspect_ratio">1</property>
  <property name="kdenlive:clipname">17.mp4</property>
  <property name="kdenlive:folderid">209</property>
  <property name="kdenlive:id">226</property>
  <property name="kdenlive:file_size">149542</property>
  <property name="kdenlive:file_hash">771e46649adb2247e737402183ac24e5</property>
  <property name="kdenlive:proxy">/home/xiaoxiae/.cache/kdenlive/proxy/771e46649adb2247e737402183ac24e5.mkv</property>
  <property name="kdenlive:originalurl">video/Lemma1/17.mp4</property>
  <property name="global_feed">1</property>
  <property name="meta.media.nb_streams">1</property>
  <property name="meta.media.0.stream.type">video</property>
  <property name="meta.media.0.stream.frame_rate">60</property>
  <property name="meta.media.0.stream.sample_aspect_ratio">0</property>
  <property name="meta.media.0.codec.width">640</property>
  <property name="meta.media.0.codec.height">360</property>
  <property name="meta.media.0.codec.rotate">0</property>
  <property name="meta.media.0.codec.frame_rate">60</property>
  <property name="meta.media.0.codec.pix_fmt">yuv420p</property>
  <property name="meta.media.0.codec.sample_aspect_ratio">0</property>
  <property name="meta.media.0.codec.colorspace">601</property>
  <property name="meta.media.0.codec.name">h264</property>
  <property name="meta.media.0.codec.long_name">H.264 / AVC / MPEG-4 AVC / MPEG-4 part 10</property>
  <property name="meta.media.0.codec.bit_rate">0</property>
  <property name="meta.attr.0.stream.HANDLER_NAME.markup">VideoHandler</property>
  <property name="meta.attr.0.stream.VENDOR_ID.markup">[0][0][0][0]</property>
  <property name="meta.attr.0.stream.ENCODER.markup">Lavc58.134.100 libx264</property>
  <property name="meta.attr.0.stream.DURATION.markup">00:00:01.000000000</property>
  <property name="meta.attr.COMMENT.markup">Rendered with Manim Community v0.6.0</property>
  <property name="meta.attr.MAJOR_BRAND.markup">isom</property>
  <property name="meta.attr.MINOR_VERSION.markup">512</property>
  <property name="meta.attr.COMPATIBLE_BRANDS.markup">isomiso2avc1mp41</property>
  <property name="meta.attr.ENCODER.markup">Lavf58.76.100</property>
  <property name="meta.media.sample_aspect_num">1</property>
  <property name="meta.media.sample_aspect_den">1</property>
  <property name="meta.media.frame_rate_num">60</property>
  <property name="meta.media.frame_rate_den">1</property>
  <property name="meta.media.colorspace">601</property>
  <property name="meta.media.color_trc">2</property>
  <property name="meta.media.width">640</property>
  <property name="meta.media.height">360</property>
  <property name="meta.media.color_range">mpeg</property>
  <property name="meta.media.top_field_first">0</property>
  <property name="meta.media.progressive">1</property>
  <property name="kdenlive:original.mlt_type">producer</property>
  <property name="kdenlive:original.in">0</property>
  <property name="kdenlive:original.out">59</property>
  <property name="kdenlive:original.length">60</property>
  <property name="kdenlive:original.eof">pause</property>
  <property name="kdenlive:original.resource">video/Lemma1/17.mp4</property>
  <property name="kdenlive:original.meta.media.nb_streams">1</property>
  <property name="kdenlive:original.meta.media.0.stream.type">video</property>
  <property name="kdenlive:original.meta.media.0.stream.frame_rate">60</property>
  <property name="kdenlive:original.meta.media.0.stream.sample_aspect_ratio">0</property>
  <property name="kdenlive:original.meta.media.0.codec.width">3840</property>
  <property name="kdenlive:original.meta.media.0.codec.height">2160</property>
  <property name="kdenlive:original.meta.media.0.codec.rotate">0</property>
  <property name="kdenlive:original.meta.media.0.codec.frame_rate">60</property>
  <property name="kdenlive:original.meta.media.0.codec.pix_fmt">yuv420p</property>
  <property name="kdenlive:original.meta.media.0.codec.sample_aspect_ratio">0</property>
  <property name="kdenlive:original.meta.media.0.codec.colorspace">709</property>
  <property name="kdenlive:original.meta.media.0.codec.name">h264</property>
  <property name="kdenlive:original.meta.media.0.codec.long_name">H.264 / AVC / MPEG-4 AVC / MPEG-4 part 10</property>
  <property name="kdenlive:original.meta.media.0.codec.bit_rate">1183288</property>
  <property name="kdenlive:original.meta.attr.0.stream.handler_name.markup">VideoHandler</property>
  <property name="kdenlive:original.meta.attr.0.stream.vendor_id.markup">[0][0][0][0]</property>
  <property name="kdenlive:original.meta.attr.major_brand.markup">isom</property>
  <property name="kdenlive:original.meta.attr.minor_version.markup">512</property>
  <property name="kdenlive:original.meta.attr.compatible_brands.markup">isomiso2avc1mp41</property>
  <property name="kdenlive:original.meta.attr.encoder.markup">Lavf58.76.100</property>
  <property name="kdenlive:original.meta.attr.comment.markup">Rendered with Manim Community v0.6.0</property>
  <property name="kdenlive:original.seekable">1</property>
  <property name="kdenlive:original.width">3840</property>
  <property name="kdenlive:original.height">2160</property>
  <property name="kdenlive:original.meta.media.sample_aspect_num">1</property>
  <property name="kdenlive:original.meta.media.sample_aspect_den">1</property>
  <property name="kdenlive:original.aspect_ratio">1</property>
  <property name="kdenlive:original.audio_index">-1</property>
  <property name="kdenlive:original.video_index">0</property>
  <property name="kdenlive:original.mute_on_pause">1</property>
  <property name="kdenlive:original.mlt_service">avformat</property>
  <property name="kdenlive:original.meta.media.frame_rate_num">60</property>
  <property name="kdenlive:original.meta.media.frame_rate_den">1</property>
  <property name="kdenlive:original.meta.media.colorspace">709</property>
  <property name="kdenlive:original.meta.media.color_trc">2</property>
  <property name="kdenlive:original.meta.media.width">3840</property>
  <property name="kdenlive:original.meta.media.height">2160</property>
  <property name="kdenlive:original.meta.media.color_range">mpeg</property>
  <property name="kdenlive:original.meta.media.top_field_first">0</property>
  <property name="kdenlive:original.meta.media.progressive">1</property>
  <property name="kdenlive:original.backup">1</property>
 </producer>
 <producer id="producer261" in="00:00:00.000" out="00:00:04.983">
  <property name="length">00:00:05.000</property>
  <property name="eof">pause</property>
  <property name="resource">/home/xiaoxiae/.cache/kdenlive/proxy/a96aa6f6b5af729a4060cc752ea572e0.png</property>
  <property name="ttl">25</property>
  <property name="aspect_ratio">1</property>
  <property name="progressive">1</property>
  <property name="seekable">1</property>
  <property name="meta.media.width">800</property>
  <property name="meta.media.height">450</property>
  <property name="mlt_service">qimage</property>
  <property name="kdenlive:clipname">17.png</property>
  <property name="kdenlive:duration">00:00:05.000</property>
  <property name="kdenlive:folderid">209</property>
  <property name="kdenlive:id">227</property>
  <property name="kdenlive:file_size">582676</property>
  <property name="kdenlive:file_hash">a96aa6f6b5af729a4060cc752ea572e0</property>
  <property name="kdenlive:proxy">/home/xiaoxiae/.cache/kdenlive/proxy/a96aa6f6b5af729a4060cc752ea572e0.png</property>
  <property name="kdenlive:originalurl">video/Lemma1/17.png</property>
  <property name="global_feed">1</property>
  <property name="kdenlive:original.mlt_type">producer</property>
  <property name="kdenlive:original.in">0</property>
  <property name="kdenlive:original.out">14999</property>
  <property name="kdenlive:original.length">15000</property>
  <property name="kdenlive:original.eof">pause</property>
  <property name="kdenlive:original.resource">video/Lemma1/17.png</property>
  <property name="kdenlive:original.ttl">25</property>
  <property name="kdenlive:original.aspect_ratio">1</property>
  <property name="kdenlive:original.progressive">1</property>
  <property name="kdenlive:original.seekable">1</property>
  <property name="kdenlive:original.meta.media.width">3840</property>
  <property name="kdenlive:original.meta.media.height">2160</property>
  <property name="kdenlive:original.mlt_service">qimage</property>
  <property name="kdenlive:original.backup">1</property>
 </producer>
 <producer id="producer263" in="00:00:00.000" out="00:00:00.983">
  <property name="length">60</property>
  <property name="eof">pause</property>
  <property name="resource">/home/xiaoxiae/.cache/kdenlive/proxy/db0925890ff0c237fbad16c8467dda1c.mkv</property>
  <property name="audio_index">-1</property>
  <property name="video_index">0</property>
  <property name="mute_on_pause">0</property>
  <property name="mlt_service">avformat-novalidate</property>
  <property name="seekable">1</property>
  <property name="aspect_ratio">1</property>
  <property name="kdenlive:clipname">18.mp4</property>
  <property name="kdenlive:folderid">209</property>
  <property name="kdenlive:id">228</property>
  <property name="kdenlive:file_size">141545</property>
  <property name="kdenlive:file_hash">db0925890ff0c237fbad16c8467dda1c</property>
  <property name="kdenlive:proxy">/home/xiaoxiae/.cache/kdenlive/proxy/db0925890ff0c237fbad16c8467dda1c.mkv</property>
  <property name="kdenlive:originalurl">video/Lemma1/18.mp4</property>
  <property name="global_feed">1</property>
  <property name="meta.media.nb_streams">1</property>
  <property name="meta.media.0.stream.type">video</property>
  <property name="meta.media.0.stream.frame_rate">60</property>
  <property name="meta.media.0.stream.sample_aspect_ratio">0</property>
  <property name="meta.media.0.codec.width">640</property>
  <property name="meta.media.0.codec.height">360</property>
  <property name="meta.media.0.codec.rotate">0</property>
  <property name="meta.media.0.codec.frame_rate">60</property>
  <property name="meta.media.0.codec.pix_fmt">yuv420p</property>
  <property name="meta.media.0.codec.sample_aspect_ratio">0</property>
  <property name="meta.media.0.codec.colorspace">601</property>
  <property name="meta.media.0.codec.name">h264</property>
  <property name="meta.media.0.codec.long_name">H.264 / AVC / MPEG-4 AVC / MPEG-4 part 10</property>
  <property name="meta.media.0.codec.bit_rate">0</property>
  <property name="meta.attr.0.stream.HANDLER_NAME.markup">VideoHandler</property>
  <property name="meta.attr.0.stream.VENDOR_ID.markup">[0][0][0][0]</property>
  <property name="meta.attr.0.stream.ENCODER.markup">Lavc58.134.100 libx264</property>
  <property name="meta.attr.0.stream.DURATION.markup">00:00:01.000000000</property>
  <property name="meta.attr.COMMENT.markup">Rendered with Manim Community v0.6.0</property>
  <property name="meta.attr.MAJOR_BRAND.markup">isom</property>
  <property name="meta.attr.MINOR_VERSION.markup">512</property>
  <property name="meta.attr.COMPATIBLE_BRANDS.markup">isomiso2avc1mp41</property>
  <property name="meta.attr.ENCODER.markup">Lavf58.76.100</property>
  <property name="meta.media.sample_aspect_num">1</property>
  <property name="meta.media.sample_aspect_den">1</property>
  <property name="meta.media.frame_rate_num">60</property>
  <property name="meta.media.frame_rate_den">1</property>
  <property name="meta.media.colorspace">601</property>
  <property name="meta.media.color_trc">2</property>
  <property name="meta.media.width">640</property>
  <property name="meta.media.height">360</property>
  <property name="meta.media.color_range">mpeg</property>
  <property name="meta.media.top_field_first">0</property>
  <property name="meta.media.progressive">1</property>
  <property name="kdenlive:original.mlt_type">producer</property>
  <property name="kdenlive:original.in">0</property>
  <property name="kdenlive:original.out">59</property>
  <property name="kdenlive:original.length">60</property>
  <property name="kdenlive:original.eof">pause</property>
  <property name="kdenlive:original.resource">video/Lemma1/18.mp4</property>
  <property name="kdenlive:original.meta.media.nb_streams">1</property>
  <property name="kdenlive:original.meta.media.0.stream.type">video</property>
  <property name="kdenlive:original.meta.media.0.stream.frame_rate">60</property>
  <property name="kdenlive:original.meta.media.0.stream.sample_aspect_ratio">0</property>
  <property name="kdenlive:original.meta.media.0.codec.width">3840</property>
  <property name="kdenlive:original.meta.media.0.codec.height">2160</property>
  <property name="kdenlive:original.meta.media.0.codec.rotate">0</property>
  <property name="kdenlive:original.meta.media.0.codec.frame_rate">60</property>
  <property name="kdenlive:original.meta.media.0.codec.pix_fmt">yuv420p</property>
  <property name="kdenlive:original.meta.media.0.codec.sample_aspect_ratio">0</property>
  <property name="kdenlive:original.meta.media.0.codec.colorspace">709</property>
  <property name="kdenlive:original.meta.media.0.codec.name">h264</property>
  <property name="kdenlive:original.meta.media.0.codec.long_name">H.264 / AVC / MPEG-4 AVC / MPEG-4 part 10</property>
  <property name="kdenlive:original.meta.media.0.codec.bit_rate">1119312</property>
  <property name="kdenlive:original.meta.attr.0.stream.handler_name.markup">VideoHandler</property>
  <property name="kdenlive:original.meta.attr.0.stream.vendor_id.markup">[0][0][0][0]</property>
  <property name="kdenlive:original.meta.attr.major_brand.markup">isom</property>
  <property name="kdenlive:original.meta.attr.minor_version.markup">512</property>
  <property name="kdenlive:original.meta.attr.compatible_brands.markup">isomiso2avc1mp41</property>
  <property name="kdenlive:original.meta.attr.encoder.markup">Lavf58.76.100</property>
  <property name="kdenlive:original.meta.attr.comment.markup">Rendered with Manim Community v0.6.0</property>
  <property name="kdenlive:original.seekable">1</property>
  <property name="kdenlive:original.width">3840</property>
  <property name="kdenlive:original.height">2160</property>
  <property name="kdenlive:original.meta.media.sample_aspect_num">1</property>
  <property name="kdenlive:original.meta.media.sample_aspect_den">1</property>
  <property name="kdenlive:original.aspect_ratio">1</property>
  <property name="kdenlive:original.audio_index">-1</property>
  <property name="kdenlive:original.video_index">0</property>
  <property name="kdenlive:original.mute_on_pause">1</property>
  <property name="kdenlive:original.mlt_service">avformat</property>
  <property name="kdenlive:original.meta.media.frame_rate_num">60</property>
  <property name="kdenlive:original.meta.media.frame_rate_den">1</property>
  <property name="kdenlive:original.meta.media.colorspace">709</property>
  <property name="kdenlive:original.meta.media.color_trc">2</property>
  <property name="kdenlive:original.meta.media.width">3840</property>
  <property name="kdenlive:original.meta.media.height">2160</property>
  <property name="kdenlive:original.meta.media.color_range">mpeg</property>
  <property name="kdenlive:original.meta.media.top_field_first">0</property>
  <property name="kdenlive:original.meta.media.progressive">1</property>
  <property name="kdenlive:original.backup">1</property>
 </producer>
 <producer id="producer264" in="00:00:00.000" out="00:00:04.983">
  <property name="length">00:00:05.000</property>
  <property name="eof">pause</property>
  <property name="resource">/home/xiaoxiae/.cache/kdenlive/proxy/c6afe41dbb91f8a0193a65cd0d0c9d7b.png</property>
  <property name="ttl">25</property>
  <property name="aspect_ratio">1</property>
  <property name="progressive">1</property>
  <property name="seekable">1</property>
  <property name="meta.media.width">800</property>
  <property name="meta.media.height">450</property>
  <property name="mlt_service">qimage</property>
  <property name="kdenlive:clipname">18.png</property>
  <property name="kdenlive:duration">00:00:05.000</property>
  <property name="kdenlive:folderid">209</property>
  <property name="kdenlive:id">229</property>
  <property name="kdenlive:file_size">583276</property>
  <property name="kdenlive:file_hash">c6afe41dbb91f8a0193a65cd0d0c9d7b</property>
  <property name="kdenlive:proxy">/home/xiaoxiae/.cache/kdenlive/proxy/c6afe41dbb91f8a0193a65cd0d0c9d7b.png</property>
  <property name="kdenlive:originalurl">video/Lemma1/18.png</property>
  <property name="global_feed">1</property>
 </producer>
 <producer id="producer266" in="00:00:00.000" out="00:00:00.983">
  <property name="length">60</property>
  <property name="eof">pause</property>
  <property name="resource">/home/xiaoxiae/.cache/kdenlive/proxy/4dcd519f96296421a63f521214987f10.mkv</property>
  <property name="audio_index">-1</property>
  <property name="video_index">0</property>
  <property name="mute_on_pause">0</property>
  <property name="mlt_service">avformat-novalidate</property>
  <property name="seekable">1</property>
  <property name="aspect_ratio">1</property>
  <property name="kdenlive:clipname">19.mp4</property>
  <property name="kdenlive:folderid">209</property>
  <property name="kdenlive:id">230</property>
  <property name="kdenlive:file_size">167262</property>
  <property name="kdenlive:file_hash">4dcd519f96296421a63f521214987f10</property>
  <property name="kdenlive:proxy">/home/xiaoxiae/.cache/kdenlive/proxy/4dcd519f96296421a63f521214987f10.mkv</property>
  <property name="kdenlive:originalurl">video/Lemma1/19.mp4</property>
  <property name="global_feed">1</property>
  <property name="meta.media.nb_streams">1</property>
  <property name="meta.media.0.stream.type">video</property>
  <property name="meta.media.0.stream.frame_rate">60</property>
  <property name="meta.media.0.stream.sample_aspect_ratio">0</property>
  <property name="meta.media.0.codec.width">640</property>
  <property name="meta.media.0.codec.height">360</property>
  <property name="meta.media.0.codec.rotate">0</property>
  <property name="meta.media.0.codec.frame_rate">60</property>
  <property name="meta.media.0.codec.pix_fmt">yuv420p</property>
  <property name="meta.media.0.codec.sample_aspect_ratio">0</property>
  <property name="meta.media.0.codec.colorspace">601</property>
  <property name="meta.media.0.codec.name">h264</property>
  <property name="meta.media.0.codec.long_name">H.264 / AVC / MPEG-4 AVC / MPEG-4 part 10</property>
  <property name="meta.media.0.codec.bit_rate">0</property>
  <property name="meta.attr.0.stream.HANDLER_NAME.markup">VideoHandler</property>
  <property name="meta.attr.0.stream.VENDOR_ID.markup">[0][0][0][0]</property>
  <property name="meta.attr.0.stream.ENCODER.markup">Lavc58.134.100 libx264</property>
  <property name="meta.attr.0.stream.DURATION.markup">00:00:01.000000000</property>
  <property name="meta.attr.COMMENT.markup">Rendered with Manim Community v0.6.0</property>
  <property name="meta.attr.MAJOR_BRAND.markup">isom</property>
  <property name="meta.attr.MINOR_VERSION.markup">512</property>
  <property name="meta.attr.COMPATIBLE_BRANDS.markup">isomiso2avc1mp41</property>
  <property name="meta.attr.ENCODER.markup">Lavf58.76.100</property>
  <property name="meta.media.sample_aspect_num">1</property>
  <property name="meta.media.sample_aspect_den">1</property>
  <property name="meta.media.frame_rate_num">60</property>
  <property name="meta.media.frame_rate_den">1</property>
  <property name="meta.media.colorspace">601</property>
  <property name="meta.media.color_trc">2</property>
  <property name="meta.media.width">640</property>
  <property name="meta.media.height">360</property>
  <property name="meta.media.color_range">mpeg</property>
  <property name="meta.media.top_field_first">0</property>
  <property name="meta.media.progressive">1</property>
  <property name="kdenlive:original.mlt_type">producer</property>
  <property name="kdenlive:original.in">0</property>
  <property name="kdenlive:original.out">59</property>
  <property name="kdenlive:original.length">60</property>
  <property name="kdenlive:original.eof">pause</property>
  <property name="kdenlive:original.resource">video/Lemma1/19.mp4</property>
  <property name="kdenlive:original.meta.media.nb_streams">1</property>
  <property name="kdenlive:original.meta.media.0.stream.type">video</property>
  <property name="kdenlive:original.meta.media.0.stream.frame_rate">60</property>
  <property name="kdenlive:original.meta.media.0.stream.sample_aspect_ratio">0</property>
  <property name="kdenlive:original.meta.media.0.codec.width">3840</property>
  <property name="kdenlive:original.meta.media.0.codec.height">2160</property>
  <property name="kdenlive:original.meta.media.0.codec.rotate">0</property>
  <property name="kdenlive:original.meta.media.0.codec.frame_rate">60</property>
  <property name="kdenlive:original.meta.media.0.codec.pix_fmt">yuv420p</property>
  <property name="kdenlive:original.meta.media.0.codec.sample_aspect_ratio">0</property>
  <property name="kdenlive:original.meta.media.0.codec.colorspace">709</property>
  <property name="kdenlive:original.meta.media.0.codec.name">h264</property>
  <property name="kdenlive:original.meta.media.0.codec.long_name">H.264 / AVC / MPEG-4 AVC / MPEG-4 part 10</property>
  <property name="kdenlive:original.meta.media.0.codec.bit_rate">1325048</property>
  <property name="kdenlive:original.meta.attr.0.stream.handler_name.markup">VideoHandler</property>
  <property name="kdenlive:original.meta.attr.0.stream.vendor_id.markup">[0][0][0][0]</property>
  <property name="kdenlive:original.meta.attr.major_brand.markup">isom</property>
  <property name="kdenlive:original.meta.attr.minor_version.markup">512</property>
  <property name="kdenlive:original.meta.attr.compatible_brands.markup">isomiso2avc1mp41</property>
  <property name="kdenlive:original.meta.attr.encoder.markup">Lavf58.76.100</property>
  <property name="kdenlive:original.meta.attr.comment.markup">Rendered with Manim Community v0.6.0</property>
  <property name="kdenlive:original.seekable">1</property>
  <property name="kdenlive:original.width">3840</property>
  <property name="kdenlive:original.height">2160</property>
  <property name="kdenlive:original.meta.media.sample_aspect_num">1</property>
  <property name="kdenlive:original.meta.media.sample_aspect_den">1</property>
  <property name="kdenlive:original.aspect_ratio">1</property>
  <property name="kdenlive:original.audio_index">-1</property>
  <property name="kdenlive:original.video_index">0</property>
  <property name="kdenlive:original.mute_on_pause">1</property>
  <property name="kdenlive:original.mlt_service">avformat</property>
  <property name="kdenlive:original.meta.media.frame_rate_num">60</property>
  <property name="kdenlive:original.meta.media.frame_rate_den">1</property>
  <property name="kdenlive:original.meta.media.colorspace">709</property>
  <property name="kdenlive:original.meta.media.color_trc">2</property>
  <property name="kdenlive:original.meta.media.width">3840</property>
  <property name="kdenlive:original.meta.media.height">2160</property>
  <property name="kdenlive:original.meta.media.color_range">mpeg</property>
  <property name="kdenlive:original.meta.media.top_field_first">0</property>
  <property name="kdenlive:original.meta.media.progressive">1</property>
  <property name="kdenlive:original.backup">1</property>
 </producer>
 <producer id="producer265" in="00:00:00.000" out="00:00:13.617">
  <property name="length">818</property>
  <property name="eof">pause</property>
  <property name="resource">/home/xiaoxiae/.cache/kdenlive/proxy/65c20bddf2c9c9dc56466b04884b3450.png</property>
  <property name="ttl">25</property>
  <property name="aspect_ratio">1</property>
  <property name="progressive">1</property>
  <property name="seekable">1</property>
  <property name="meta.media.width">800</property>
  <property name="meta.media.height">450</property>
  <property name="mlt_service">qimage</property>
  <property name="kdenlive:clipname">19.png</property>
  <property name="kdenlive:duration">00:00:05.000</property>
  <property name="kdenlive:folderid">209</property>
  <property name="kdenlive:id">231</property>
  <property name="kdenlive:file_size">543873</property>
  <property name="kdenlive:file_hash">65c20bddf2c9c9dc56466b04884b3450</property>
  <property name="kdenlive:proxy">/home/xiaoxiae/.cache/kdenlive/proxy/65c20bddf2c9c9dc56466b04884b3450.png</property>
  <property name="kdenlive:originalurl">video/Lemma1/19.png</property>
  <property name="global_feed">1</property>
  <property name="kdenlive:original.mlt_type">producer</property>
  <property name="kdenlive:original.in">0</property>
  <property name="kdenlive:original.out">14999</property>
  <property name="kdenlive:original.length">15000</property>
  <property name="kdenlive:original.eof">pause</property>
  <property name="kdenlive:original.resource">video/Lemma1/19.png</property>
  <property name="kdenlive:original.ttl">25</property>
  <property name="kdenlive:original.aspect_ratio">1</property>
  <property name="kdenlive:original.progressive">1</property>
  <property name="kdenlive:original.seekable">1</property>
  <property name="kdenlive:original.meta.media.width">3840</property>
  <property name="kdenlive:original.meta.media.height">2160</property>
  <property name="kdenlive:original.mlt_service">qimage</property>
  <property name="kdenlive:original.backup">1</property>
 </producer>
 <producer id="producer268" in="00:00:00.000" out="00:00:00.983">
  <property name="length">60</property>
  <property name="eof">pause</property>
  <property name="resource">/home/xiaoxiae/.cache/kdenlive/proxy/e76da7b847370e6003b094d41eec030e.mkv</property>
  <property name="audio_index">-1</property>
  <property name="video_index">0</property>
  <property name="mute_on_pause">0</property>
  <property name="mlt_service">avformat-novalidate</property>
  <property name="seekable">1</property>
  <property name="aspect_ratio">1</property>
  <property name="kdenlive:clipname">2.mp4</property>
  <property name="kdenlive:folderid">209</property>
  <property name="kdenlive:id">232</property>
  <property name="kdenlive:file_size">44603</property>
  <property name="kdenlive:file_hash">e76da7b847370e6003b094d41eec030e</property>
  <property name="kdenlive:proxy">/home/xiaoxiae/.cache/kdenlive/proxy/e76da7b847370e6003b094d41eec030e.mkv</property>
  <property name="kdenlive:originalurl">video/Lemma1/2.mp4</property>
  <property name="global_feed">1</property>
  <property name="meta.media.nb_streams">1</property>
  <property name="meta.media.0.stream.type">video</property>
  <property name="meta.media.0.stream.frame_rate">60</property>
  <property name="meta.media.0.stream.sample_aspect_ratio">0</property>
  <property name="meta.media.0.codec.width">640</property>
  <property name="meta.media.0.codec.height">360</property>
  <property name="meta.media.0.codec.rotate">0</property>
  <property name="meta.media.0.codec.frame_rate">60</property>
  <property name="meta.media.0.codec.pix_fmt">yuv420p</property>
  <property name="meta.media.0.codec.sample_aspect_ratio">0</property>
  <property name="meta.media.0.codec.colorspace">601</property>
  <property name="meta.media.0.codec.name">h264</property>
  <property name="meta.media.0.codec.long_name">H.264 / AVC / MPEG-4 AVC / MPEG-4 part 10</property>
  <property name="meta.media.0.codec.bit_rate">0</property>
  <property name="meta.attr.0.stream.HANDLER_NAME.markup">VideoHandler</property>
  <property name="meta.attr.0.stream.VENDOR_ID.markup">[0][0][0][0]</property>
  <property name="meta.attr.0.stream.ENCODER.markup">Lavc58.134.100 libx264</property>
  <property name="meta.attr.0.stream.DURATION.markup">00:00:01.000000000</property>
  <property name="meta.attr.COMMENT.markup">Rendered with Manim Community v0.6.0</property>
  <property name="meta.attr.MAJOR_BRAND.markup">isom</property>
  <property name="meta.attr.MINOR_VERSION.markup">512</property>
  <property name="meta.attr.COMPATIBLE_BRANDS.markup">isomiso2avc1mp41</property>
  <property name="meta.attr.ENCODER.markup">Lavf58.76.100</property>
  <property name="meta.media.sample_aspect_num">1</property>
  <property name="meta.media.sample_aspect_den">1</property>
  <property name="meta.media.frame_rate_num">60</property>
  <property name="meta.media.frame_rate_den">1</property>
  <property name="meta.media.colorspace">601</property>
  <property name="meta.media.color_trc">2</property>
  <property name="meta.media.width">640</property>
  <property name="meta.media.height">360</property>
  <property name="meta.media.color_range">mpeg</property>
  <property name="meta.media.top_field_first">0</property>
  <property name="meta.media.progressive">1</property>
  <property name="kdenlive:original.mlt_type">producer</property>
  <property name="kdenlive:original.in">0</property>
  <property name="kdenlive:original.out">59</property>
  <property name="kdenlive:original.length">60</property>
  <property name="kdenlive:original.eof">pause</property>
  <property name="kdenlive:original.resource">video/Lemma1/2.mp4</property>
  <property name="kdenlive:original.meta.media.nb_streams">1</property>
  <property name="kdenlive:original.meta.media.0.stream.type">video</property>
  <property name="kdenlive:original.meta.media.0.stream.frame_rate">60</property>
  <property name="kdenlive:original.meta.media.0.stream.sample_aspect_ratio">0</property>
  <property name="kdenlive:original.meta.media.0.codec.width">3840</property>
  <property name="kdenlive:original.meta.media.0.codec.height">2160</property>
  <property name="kdenlive:original.meta.media.0.codec.rotate">0</property>
  <property name="kdenlive:original.meta.media.0.codec.frame_rate">60</property>
  <property name="kdenlive:original.meta.media.0.codec.pix_fmt">yuv420p</property>
  <property name="kdenlive:original.meta.media.0.codec.sample_aspect_ratio">0</property>
  <property name="kdenlive:original.meta.media.0.codec.colorspace">709</property>
  <property name="kdenlive:original.meta.media.0.codec.name">h264</property>
  <property name="kdenlive:original.meta.media.0.codec.long_name">H.264 / AVC / MPEG-4 AVC / MPEG-4 part 10</property>
  <property name="kdenlive:original.meta.media.0.codec.bit_rate">343776</property>
  <property name="kdenlive:original.meta.attr.0.stream.handler_name.markup">VideoHandler</property>
  <property name="kdenlive:original.meta.attr.0.stream.vendor_id.markup">[0][0][0][0]</property>
  <property name="kdenlive:original.meta.attr.major_brand.markup">isom</property>
  <property name="kdenlive:original.meta.attr.minor_version.markup">512</property>
  <property name="kdenlive:original.meta.attr.compatible_brands.markup">isomiso2avc1mp41</property>
  <property name="kdenlive:original.meta.attr.encoder.markup">Lavf58.76.100</property>
  <property name="kdenlive:original.meta.attr.comment.markup">Rendered with Manim Community v0.6.0</property>
  <property name="kdenlive:original.seekable">1</property>
  <property name="kdenlive:original.width">3840</property>
  <property name="kdenlive:original.height">2160</property>
  <property name="kdenlive:original.meta.media.sample_aspect_num">1</property>
  <property name="kdenlive:original.meta.media.sample_aspect_den">1</property>
  <property name="kdenlive:original.aspect_ratio">1</property>
  <property name="kdenlive:original.audio_index">-1</property>
  <property name="kdenlive:original.video_index">0</property>
  <property name="kdenlive:original.mute_on_pause">1</property>
  <property name="kdenlive:original.mlt_service">avformat</property>
  <property name="kdenlive:original.meta.media.frame_rate_num">60</property>
  <property name="kdenlive:original.meta.media.frame_rate_den">1</property>
  <property name="kdenlive:original.meta.media.colorspace">709</property>
  <property name="kdenlive:original.meta.media.color_trc">2</property>
  <property name="kdenlive:original.meta.media.width">3840</property>
  <property name="kdenlive:original.meta.media.height">2160</property>
  <property name="kdenlive:original.meta.media.color_range">mpeg</property>
  <property name="kdenlive:original.meta.media.top_field_first">0</property>
  <property name="kdenlive:original.meta.media.progressive">1</property>
  <property name="kdenlive:original.backup">1</property>
 </producer>
 <producer id="producer267" in="00:00:00.000" out="00:00:04.983">
  <property name="length">00:00:05.000</property>
  <property name="eof">pause</property>
  <property name="resource">/home/xiaoxiae/.cache/kdenlive/proxy/6fd34a91171ca6a3b0488095b31cdad4.png</property>
  <property name="ttl">25</property>
  <property name="aspect_ratio">1</property>
  <property name="progressive">1</property>
  <property name="seekable">1</property>
  <property name="meta.media.width">800</property>
  <property name="meta.media.height">450</property>
  <property name="mlt_service">qimage</property>
  <property name="kdenlive:clipname">2.png</property>
  <property name="kdenlive:duration">00:00:05.000</property>
  <property name="kdenlive:folderid">209</property>
  <property name="kdenlive:id">233</property>
  <property name="kdenlive:file_size">52344</property>
  <property name="kdenlive:file_hash">6fd34a91171ca6a3b0488095b31cdad4</property>
  <property name="kdenlive:proxy">/home/xiaoxiae/.cache/kdenlive/proxy/6fd34a91171ca6a3b0488095b31cdad4.png</property>
  <property name="kdenlive:originalurl">video/Lemma1/2.png</property>
  <property name="global_feed">1</property>
  <property name="kdenlive:original.mlt_type">producer</property>
  <property name="kdenlive:original.in">0</property>
  <property name="kdenlive:original.out">14999</property>
  <property name="kdenlive:original.length">15000</property>
  <property name="kdenlive:original.eof">pause</property>
  <property name="kdenlive:original.resource">video/Lemma1/2.png</property>
  <property name="kdenlive:original.ttl">25</property>
  <property name="kdenlive:original.aspect_ratio">1</property>
  <property name="kdenlive:original.progressive">1</property>
  <property name="kdenlive:original.seekable">1</property>
  <property name="kdenlive:original.meta.media.width">3840</property>
  <property name="kdenlive:original.meta.media.height">2160</property>
  <property name="kdenlive:original.mlt_service">qimage</property>
  <property name="kdenlive:original.backup">1</property>
 </producer>
 <producer id="producer269" in="00:00:00.000" out="00:00:00.983">
  <property name="length">60</property>
  <property name="eof">pause</property>
  <property name="resource">/home/xiaoxiae/.cache/kdenlive/proxy/fac643a87951b35818d777efcf1efd6c.mkv</property>
  <property name="audio_index">-1</property>
  <property name="video_index">0</property>
  <property name="mute_on_pause">0</property>
  <property name="mlt_service">avformat-novalidate</property>
  <property name="seekable">1</property>
  <property name="aspect_ratio">1</property>
  <property name="kdenlive:clipname">20.mp4</property>
  <property name="kdenlive:folderid">209</property>
  <property name="kdenlive:id">234</property>
  <property name="kdenlive:file_size">168926</property>
  <property name="kdenlive:file_hash">fac643a87951b35818d777efcf1efd6c</property>
  <property name="kdenlive:proxy">/home/xiaoxiae/.cache/kdenlive/proxy/fac643a87951b35818d777efcf1efd6c.mkv</property>
  <property name="kdenlive:originalurl">video/Lemma1/20.mp4</property>
  <property name="global_feed">1</property>
  <property name="meta.media.nb_streams">1</property>
  <property name="meta.media.0.stream.type">video</property>
  <property name="meta.media.0.stream.frame_rate">60</property>
  <property name="meta.media.0.stream.sample_aspect_ratio">0</property>
  <property name="meta.media.0.codec.width">640</property>
  <property name="meta.media.0.codec.height">360</property>
  <property name="meta.media.0.codec.rotate">0</property>
  <property name="meta.media.0.codec.frame_rate">60</property>
  <property name="meta.media.0.codec.pix_fmt">yuv420p</property>
  <property name="meta.media.0.codec.sample_aspect_ratio">0</property>
  <property name="meta.media.0.codec.colorspace">601</property>
  <property name="meta.media.0.codec.name">h264</property>
  <property name="meta.media.0.codec.long_name">H.264 / AVC / MPEG-4 AVC / MPEG-4 part 10</property>
  <property name="meta.media.0.codec.bit_rate">0</property>
  <property name="meta.attr.0.stream.HANDLER_NAME.markup">VideoHandler</property>
  <property name="meta.attr.0.stream.VENDOR_ID.markup">[0][0][0][0]</property>
  <property name="meta.attr.0.stream.ENCODER.markup">Lavc58.134.100 libx264</property>
  <property name="meta.attr.0.stream.DURATION.markup">00:00:01.000000000</property>
  <property name="meta.attr.COMMENT.markup">Rendered with Manim Community v0.6.0</property>
  <property name="meta.attr.MAJOR_BRAND.markup">isom</property>
  <property name="meta.attr.MINOR_VERSION.markup">512</property>
  <property name="meta.attr.COMPATIBLE_BRANDS.markup">isomiso2avc1mp41</property>
  <property name="meta.attr.ENCODER.markup">Lavf58.76.100</property>
  <property name="meta.media.sample_aspect_num">1</property>
  <property name="meta.media.sample_aspect_den">1</property>
  <property name="meta.media.frame_rate_num">60</property>
  <property name="meta.media.frame_rate_den">1</property>
  <property name="meta.media.colorspace">601</property>
  <property name="meta.media.color_trc">2</property>
  <property name="meta.media.width">640</property>
  <property name="meta.media.height">360</property>
  <property name="meta.media.color_range">mpeg</property>
  <property name="meta.media.top_field_first">0</property>
  <property name="meta.media.progressive">1</property>
  <property name="kdenlive:original.mlt_type">producer</property>
  <property name="kdenlive:original.in">0</property>
  <property name="kdenlive:original.out">59</property>
  <property name="kdenlive:original.length">60</property>
  <property name="kdenlive:original.eof">pause</property>
  <property name="kdenlive:original.resource">video/Lemma1/20.mp4</property>
  <property name="kdenlive:original.meta.media.nb_streams">1</property>
  <property name="kdenlive:original.meta.media.0.stream.type">video</property>
  <property name="kdenlive:original.meta.media.0.stream.frame_rate">60</property>
  <property name="kdenlive:original.meta.media.0.stream.sample_aspect_ratio">0</property>
  <property name="kdenlive:original.meta.media.0.codec.width">3840</property>
  <property name="kdenlive:original.meta.media.0.codec.height">2160</property>
  <property name="kdenlive:original.meta.media.0.codec.rotate">0</property>
  <property name="kdenlive:original.meta.media.0.codec.frame_rate">60</property>
  <property name="kdenlive:original.meta.media.0.codec.pix_fmt">yuv420p</property>
  <property name="kdenlive:original.meta.media.0.codec.sample_aspect_ratio">0</property>
  <property name="kdenlive:original.meta.media.0.codec.colorspace">709</property>
  <property name="kdenlive:original.meta.media.0.codec.name">h264</property>
  <property name="kdenlive:original.meta.media.0.codec.long_name">H.264 / AVC / MPEG-4 AVC / MPEG-4 part 10</property>
  <property name="kdenlive:original.meta.media.0.codec.bit_rate">1338360</property>
  <property name="kdenlive:original.meta.attr.0.stream.handler_name.markup">VideoHandler</property>
  <property name="kdenlive:original.meta.attr.0.stream.vendor_id.markup">[0][0][0][0]</property>
  <property name="kdenlive:original.meta.attr.major_brand.markup">isom</property>
  <property name="kdenlive:original.meta.attr.minor_version.markup">512</property>
  <property name="kdenlive:original.meta.attr.compatible_brands.markup">isomiso2avc1mp41</property>
  <property name="kdenlive:original.meta.attr.encoder.markup">Lavf58.76.100</property>
  <property name="kdenlive:original.meta.attr.comment.markup">Rendered with Manim Community v0.6.0</property>
  <property name="kdenlive:original.seekable">1</property>
  <property name="kdenlive:original.width">3840</property>
  <property name="kdenlive:original.height">2160</property>
  <property name="kdenlive:original.meta.media.sample_aspect_num">1</property>
  <property name="kdenlive:original.meta.media.sample_aspect_den">1</property>
  <property name="kdenlive:original.aspect_ratio">1</property>
  <property name="kdenlive:original.audio_index">-1</property>
  <property name="kdenlive:original.video_index">0</property>
  <property name="kdenlive:original.mute_on_pause">1</property>
  <property name="kdenlive:original.mlt_service">avformat</property>
  <property name="kdenlive:original.meta.media.frame_rate_num">60</property>
  <property name="kdenlive:original.meta.media.frame_rate_den">1</property>
  <property name="kdenlive:original.meta.media.colorspace">709</property>
  <property name="kdenlive:original.meta.media.color_trc">2</property>
  <property name="kdenlive:original.meta.media.width">3840</property>
  <property name="kdenlive:original.meta.media.height">2160</property>
  <property name="kdenlive:original.meta.media.color_range">mpeg</property>
  <property name="kdenlive:original.meta.media.top_field_first">0</property>
  <property name="kdenlive:original.meta.media.progressive">1</property>
  <property name="kdenlive:original.backup">1</property>
 </producer>
 <producer id="producer271" in="00:00:00.000" out="00:00:05.717">
  <property name="length">344</property>
  <property name="eof">pause</property>
  <property name="resource">/home/xiaoxiae/.cache/kdenlive/proxy/d8509b5c3c8e8bc9561c5ebb0fb7836d.png</property>
  <property name="ttl">25</property>
  <property name="aspect_ratio">1</property>
  <property name="progressive">1</property>
  <property name="seekable">1</property>
  <property name="meta.media.width">800</property>
  <property name="meta.media.height">450</property>
  <property name="mlt_service">qimage</property>
  <property name="kdenlive:clipname">20.png</property>
  <property name="kdenlive:duration">00:00:05.000</property>
  <property name="kdenlive:folderid">209</property>
  <property name="kdenlive:id">235</property>
  <property name="kdenlive:file_size">597374</property>
  <property name="kdenlive:file_hash">d8509b5c3c8e8bc9561c5ebb0fb7836d</property>
  <property name="kdenlive:proxy">/home/xiaoxiae/.cache/kdenlive/proxy/d8509b5c3c8e8bc9561c5ebb0fb7836d.png</property>
  <property name="kdenlive:originalurl">video/Lemma1/20.png</property>
  <property name="global_feed">1</property>
  <property name="kdenlive:original.mlt_type">producer</property>
  <property name="kdenlive:original.in">0</property>
  <property name="kdenlive:original.out">14999</property>
  <property name="kdenlive:original.length">15000</property>
  <property name="kdenlive:original.eof">pause</property>
  <property name="kdenlive:original.resource">video/Lemma1/20.png</property>
  <property name="kdenlive:original.ttl">25</property>
  <property name="kdenlive:original.aspect_ratio">1</property>
  <property name="kdenlive:original.progressive">1</property>
  <property name="kdenlive:original.seekable">1</property>
  <property name="kdenlive:original.meta.media.width">3840</property>
  <property name="kdenlive:original.meta.media.height">2160</property>
  <property name="kdenlive:original.mlt_service">qimage</property>
  <property name="kdenlive:original.backup">1</property>
 </producer>
 <producer id="producer270" in="00:00:00.000" out="00:00:00.983">
  <property name="length">60</property>
  <property name="eof">pause</property>
  <property name="resource">/home/xiaoxiae/.cache/kdenlive/proxy/1325c1ac6e0e6a0eff2f4148caf808dd.mkv</property>
  <property name="audio_index">-1</property>
  <property name="video_index">0</property>
  <property name="mute_on_pause">0</property>
  <property name="mlt_service">avformat-novalidate</property>
  <property name="seekable">1</property>
  <property name="aspect_ratio">1</property>
  <property name="kdenlive:clipname">21.mp4</property>
  <property name="kdenlive:folderid">209</property>
  <property name="kdenlive:id">236</property>
  <property name="kdenlive:file_size">172718</property>
  <property name="kdenlive:file_hash">1325c1ac6e0e6a0eff2f4148caf808dd</property>
  <property name="kdenlive:proxy">/home/xiaoxiae/.cache/kdenlive/proxy/1325c1ac6e0e6a0eff2f4148caf808dd.mkv</property>
  <property name="kdenlive:originalurl">video/Lemma1/21.mp4</property>
  <property name="global_feed">1</property>
  <property name="meta.media.nb_streams">1</property>
  <property name="meta.media.0.stream.type">video</property>
  <property name="meta.media.0.stream.frame_rate">60</property>
  <property name="meta.media.0.stream.sample_aspect_ratio">0</property>
  <property name="meta.media.0.codec.width">640</property>
  <property name="meta.media.0.codec.height">360</property>
  <property name="meta.media.0.codec.rotate">0</property>
  <property name="meta.media.0.codec.frame_rate">60</property>
  <property name="meta.media.0.codec.pix_fmt">yuv420p</property>
  <property name="meta.media.0.codec.sample_aspect_ratio">0</property>
  <property name="meta.media.0.codec.colorspace">601</property>
  <property name="meta.media.0.codec.name">h264</property>
  <property name="meta.media.0.codec.long_name">H.264 / AVC / MPEG-4 AVC / MPEG-4 part 10</property>
  <property name="meta.media.0.codec.bit_rate">0</property>
  <property name="meta.attr.0.stream.HANDLER_NAME.markup">VideoHandler</property>
  <property name="meta.attr.0.stream.VENDOR_ID.markup">[0][0][0][0]</property>
  <property name="meta.attr.0.stream.ENCODER.markup">Lavc58.134.100 libx264</property>
  <property name="meta.attr.0.stream.DURATION.markup">00:00:01.000000000</property>
  <property name="meta.attr.COMMENT.markup">Rendered with Manim Community v0.6.0</property>
  <property name="meta.attr.MAJOR_BRAND.markup">isom</property>
  <property name="meta.attr.MINOR_VERSION.markup">512</property>
  <property name="meta.attr.COMPATIBLE_BRANDS.markup">isomiso2avc1mp41</property>
  <property name="meta.attr.ENCODER.markup">Lavf58.76.100</property>
  <property name="meta.media.sample_aspect_num">1</property>
  <property name="meta.media.sample_aspect_den">1</property>
  <property name="meta.media.frame_rate_num">60</property>
  <property name="meta.media.frame_rate_den">1</property>
  <property name="meta.media.colorspace">601</property>
  <property name="meta.media.color_trc">2</property>
  <property name="meta.media.width">640</property>
  <property name="meta.media.height">360</property>
  <property name="meta.media.color_range">mpeg</property>
  <property name="meta.media.top_field_first">0</property>
  <property name="meta.media.progressive">1</property>
  <property name="kdenlive:original.mlt_type">producer</property>
  <property name="kdenlive:original.in">0</property>
  <property name="kdenlive:original.out">59</property>
  <property name="kdenlive:original.length">60</property>
  <property name="kdenlive:original.eof">pause</property>
  <property name="kdenlive:original.resource">video/Lemma1/21.mp4</property>
  <property name="kdenlive:original.meta.media.nb_streams">1</property>
  <property name="kdenlive:original.meta.media.0.stream.type">video</property>
  <property name="kdenlive:original.meta.media.0.stream.frame_rate">60</property>
  <property name="kdenlive:original.meta.media.0.stream.sample_aspect_ratio">0</property>
  <property name="kdenlive:original.meta.media.0.codec.width">3840</property>
  <property name="kdenlive:original.meta.media.0.codec.height">2160</property>
  <property name="kdenlive:original.meta.media.0.codec.rotate">0</property>
  <property name="kdenlive:original.meta.media.0.codec.frame_rate">60</property>
  <property name="kdenlive:original.meta.media.0.codec.pix_fmt">yuv420p</property>
  <property name="kdenlive:original.meta.media.0.codec.sample_aspect_ratio">0</property>
  <property name="kdenlive:original.meta.media.0.codec.colorspace">709</property>
  <property name="kdenlive:original.meta.media.0.codec.name">h264</property>
  <property name="kdenlive:original.meta.media.0.codec.long_name">H.264 / AVC / MPEG-4 AVC / MPEG-4 part 10</property>
  <property name="kdenlive:original.meta.media.0.codec.bit_rate">1368696</property>
  <property name="kdenlive:original.meta.attr.0.stream.handler_name.markup">VideoHandler</property>
  <property name="kdenlive:original.meta.attr.0.stream.vendor_id.markup">[0][0][0][0]</property>
  <property name="kdenlive:original.meta.attr.major_brand.markup">isom</property>
  <property name="kdenlive:original.meta.attr.minor_version.markup">512</property>
  <property name="kdenlive:original.meta.attr.compatible_brands.markup">isomiso2avc1mp41</property>
  <property name="kdenlive:original.meta.attr.encoder.markup">Lavf58.76.100</property>
  <property name="kdenlive:original.meta.attr.comment.markup">Rendered with Manim Community v0.6.0</property>
  <property name="kdenlive:original.seekable">1</property>
  <property name="kdenlive:original.width">3840</property>
  <property name="kdenlive:original.height">2160</property>
  <property name="kdenlive:original.meta.media.sample_aspect_num">1</property>
  <property name="kdenlive:original.meta.media.sample_aspect_den">1</property>
  <property name="kdenlive:original.aspect_ratio">1</property>
  <property name="kdenlive:original.audio_index">-1</property>
  <property name="kdenlive:original.video_index">0</property>
  <property name="kdenlive:original.mute_on_pause">1</property>
  <property name="kdenlive:original.mlt_service">avformat</property>
  <property name="kdenlive:original.meta.media.frame_rate_num">60</property>
  <property name="kdenlive:original.meta.media.frame_rate_den">1</property>
  <property name="kdenlive:original.meta.media.colorspace">709</property>
  <property name="kdenlive:original.meta.media.color_trc">2</property>
  <property name="kdenlive:original.meta.media.width">3840</property>
  <property name="kdenlive:original.meta.media.height">2160</property>
  <property name="kdenlive:original.meta.media.color_range">mpeg</property>
  <property name="kdenlive:original.meta.media.top_field_first">0</property>
  <property name="kdenlive:original.meta.media.progressive">1</property>
  <property name="kdenlive:original.backup">1</property>
 </producer>
 <producer id="producer272" in="00:00:00.000" out="00:00:06.933">
  <property name="length">417</property>
  <property name="eof">pause</property>
  <property name="resource">/home/xiaoxiae/.cache/kdenlive/proxy/d8b972121b5c2a9a67ee27c55a01fbd4.png</property>
  <property name="ttl">25</property>
  <property name="aspect_ratio">1</property>
  <property name="progressive">1</property>
  <property name="seekable">1</property>
  <property name="meta.media.width">800</property>
  <property name="meta.media.height">450</property>
  <property name="mlt_service">qimage</property>
  <property name="kdenlive:clipname">21.png</property>
  <property name="kdenlive:duration">00:00:05.000</property>
  <property name="kdenlive:folderid">209</property>
  <property name="kdenlive:id">237</property>
  <property name="kdenlive:file_size">637353</property>
  <property name="kdenlive:file_hash">d8b972121b5c2a9a67ee27c55a01fbd4</property>
  <property name="kdenlive:proxy">/home/xiaoxiae/.cache/kdenlive/proxy/d8b972121b5c2a9a67ee27c55a01fbd4.png</property>
  <property name="kdenlive:originalurl">video/Lemma1/21.png</property>
  <property name="global_feed">1</property>
  <property name="kdenlive:original.mlt_type">producer</property>
  <property name="kdenlive:original.in">0</property>
  <property name="kdenlive:original.out">14999</property>
  <property name="kdenlive:original.length">15000</property>
  <property name="kdenlive:original.eof">pause</property>
  <property name="kdenlive:original.resource">video/Lemma1/21.png</property>
  <property name="kdenlive:original.ttl">25</property>
  <property name="kdenlive:original.aspect_ratio">1</property>
  <property name="kdenlive:original.progressive">1</property>
  <property name="kdenlive:original.seekable">1</property>
  <property name="kdenlive:original.meta.media.width">3840</property>
  <property name="kdenlive:original.meta.media.height">2160</property>
  <property name="kdenlive:original.mlt_service">qimage</property>
  <property name="kdenlive:original.backup">1</property>
 </producer>
 <producer id="producer274" in="00:00:00.000" out="00:00:00.983">
  <property name="length">60</property>
  <property name="eof">pause</property>
  <property name="resource">/home/xiaoxiae/.cache/kdenlive/proxy/99934949cc194a2708dfc94185dfec58.mkv</property>
  <property name="audio_index">-1</property>
  <property name="video_index">0</property>
  <property name="mute_on_pause">0</property>
  <property name="mlt_service">avformat-novalidate</property>
  <property name="seekable">1</property>
  <property name="aspect_ratio">1</property>
  <property name="kdenlive:clipname">22.mp4</property>
  <property name="kdenlive:folderid">209</property>
  <property name="kdenlive:id">238</property>
  <property name="kdenlive:file_size">155587</property>
  <property name="kdenlive:file_hash">99934949cc194a2708dfc94185dfec58</property>
  <property name="kdenlive:proxy">/home/xiaoxiae/.cache/kdenlive/proxy/99934949cc194a2708dfc94185dfec58.mkv</property>
  <property name="kdenlive:originalurl">video/Lemma1/22.mp4</property>
  <property name="global_feed">1</property>
  <property name="meta.media.nb_streams">1</property>
  <property name="meta.media.0.stream.type">video</property>
  <property name="meta.media.0.stream.frame_rate">60</property>
  <property name="meta.media.0.stream.sample_aspect_ratio">0</property>
  <property name="meta.media.0.codec.width">640</property>
  <property name="meta.media.0.codec.height">360</property>
  <property name="meta.media.0.codec.rotate">0</property>
  <property name="meta.media.0.codec.frame_rate">60</property>
  <property name="meta.media.0.codec.pix_fmt">yuv420p</property>
  <property name="meta.media.0.codec.sample_aspect_ratio">0</property>
  <property name="meta.media.0.codec.colorspace">601</property>
  <property name="meta.media.0.codec.name">h264</property>
  <property name="meta.media.0.codec.long_name">H.264 / AVC / MPEG-4 AVC / MPEG-4 part 10</property>
  <property name="meta.media.0.codec.bit_rate">0</property>
  <property name="meta.attr.0.stream.HANDLER_NAME.markup">VideoHandler</property>
  <property name="meta.attr.0.stream.VENDOR_ID.markup">[0][0][0][0]</property>
  <property name="meta.attr.0.stream.ENCODER.markup">Lavc58.134.100 libx264</property>
  <property name="meta.attr.0.stream.DURATION.markup">00:00:01.000000000</property>
  <property name="meta.attr.COMMENT.markup">Rendered with Manim Community v0.6.0</property>
  <property name="meta.attr.MAJOR_BRAND.markup">isom</property>
  <property name="meta.attr.MINOR_VERSION.markup">512</property>
  <property name="meta.attr.COMPATIBLE_BRANDS.markup">isomiso2avc1mp41</property>
  <property name="meta.attr.ENCODER.markup">Lavf58.76.100</property>
  <property name="meta.media.sample_aspect_num">1</property>
  <property name="meta.media.sample_aspect_den">1</property>
  <property name="meta.media.frame_rate_num">60</property>
  <property name="meta.media.frame_rate_den">1</property>
  <property name="meta.media.colorspace">601</property>
  <property name="meta.media.color_trc">2</property>
  <property name="meta.media.width">640</property>
  <property name="meta.media.height">360</property>
  <property name="meta.media.color_range">mpeg</property>
  <property name="meta.media.top_field_first">0</property>
  <property name="meta.media.progressive">1</property>
  <property name="kdenlive:original.mlt_type">producer</property>
  <property name="kdenlive:original.in">0</property>
  <property name="kdenlive:original.out">59</property>
  <property name="kdenlive:original.length">60</property>
  <property name="kdenlive:original.eof">pause</property>
  <property name="kdenlive:original.resource">video/Lemma1/22.mp4</property>
  <property name="kdenlive:original.meta.media.nb_streams">1</property>
  <property name="kdenlive:original.meta.media.0.stream.type">video</property>
  <property name="kdenlive:original.meta.media.0.stream.frame_rate">60</property>
  <property name="kdenlive:original.meta.media.0.stream.sample_aspect_ratio">0</property>
  <property name="kdenlive:original.meta.media.0.codec.width">3840</property>
  <property name="kdenlive:original.meta.media.0.codec.height">2160</property>
  <property name="kdenlive:original.meta.media.0.codec.rotate">0</property>
  <property name="kdenlive:original.meta.media.0.codec.frame_rate">60</property>
  <property name="kdenlive:original.meta.media.0.codec.pix_fmt">yuv420p</property>
  <property name="kdenlive:original.meta.media.0.codec.sample_aspect_ratio">0</property>
  <property name="kdenlive:original.meta.media.0.codec.colorspace">709</property>
  <property name="kdenlive:original.meta.media.0.codec.name">h264</property>
  <property name="kdenlive:original.meta.media.0.codec.long_name">H.264 / AVC / MPEG-4 AVC / MPEG-4 part 10</property>
  <property name="kdenlive:original.meta.media.0.codec.bit_rate">1231648</property>
  <property name="kdenlive:original.meta.attr.0.stream.handler_name.markup">VideoHandler</property>
  <property name="kdenlive:original.meta.attr.0.stream.vendor_id.markup">[0][0][0][0]</property>
  <property name="kdenlive:original.meta.attr.major_brand.markup">isom</property>
  <property name="kdenlive:original.meta.attr.minor_version.markup">512</property>
  <property name="kdenlive:original.meta.attr.compatible_brands.markup">isomiso2avc1mp41</property>
  <property name="kdenlive:original.meta.attr.encoder.markup">Lavf58.76.100</property>
  <property name="kdenlive:original.meta.attr.comment.markup">Rendered with Manim Community v0.6.0</property>
  <property name="kdenlive:original.seekable">1</property>
  <property name="kdenlive:original.width">3840</property>
  <property name="kdenlive:original.height">2160</property>
  <property name="kdenlive:original.meta.media.sample_aspect_num">1</property>
  <property name="kdenlive:original.meta.media.sample_aspect_den">1</property>
  <property name="kdenlive:original.aspect_ratio">1</property>
  <property name="kdenlive:original.audio_index">-1</property>
  <property name="kdenlive:original.video_index">0</property>
  <property name="kdenlive:original.mute_on_pause">1</property>
  <property name="kdenlive:original.mlt_service">avformat</property>
  <property name="kdenlive:original.meta.media.frame_rate_num">60</property>
  <property name="kdenlive:original.meta.media.frame_rate_den">1</property>
  <property name="kdenlive:original.meta.media.colorspace">709</property>
  <property name="kdenlive:original.meta.media.color_trc">2</property>
  <property name="kdenlive:original.meta.media.width">3840</property>
  <property name="kdenlive:original.meta.media.height">2160</property>
  <property name="kdenlive:original.meta.media.color_range">mpeg</property>
  <property name="kdenlive:original.meta.media.top_field_first">0</property>
  <property name="kdenlive:original.meta.media.progressive">1</property>
  <property name="kdenlive:original.backup">1</property>
 </producer>
 <producer id="producer273" in="00:00:00.000" out="00:00:04.983">
  <property name="length">00:00:05.000</property>
  <property name="eof">pause</property>
  <property name="resource">/home/xiaoxiae/.cache/kdenlive/proxy/6b665121ca7b54a5f5307b69451fd23c.png</property>
  <property name="ttl">25</property>
  <property name="aspect_ratio">1</property>
  <property name="progressive">1</property>
  <property name="seekable">1</property>
  <property name="meta.media.width">800</property>
  <property name="meta.media.height">450</property>
  <property name="mlt_service">qimage</property>
  <property name="kdenlive:clipname">22.png</property>
  <property name="kdenlive:duration">00:00:05.000</property>
  <property name="kdenlive:folderid">209</property>
  <property name="kdenlive:id">239</property>
  <property name="kdenlive:file_size">24337</property>
  <property name="kdenlive:file_hash">6b665121ca7b54a5f5307b69451fd23c</property>
  <property name="kdenlive:proxy">/home/xiaoxiae/.cache/kdenlive/proxy/6b665121ca7b54a5f5307b69451fd23c.png</property>
  <property name="kdenlive:originalurl">video/Lemma1/22.png</property>
  <property name="global_feed">1</property>
 </producer>
 <producer id="producer288" in="00:00:00.000" out="00:00:07.033">
  <property name="length">423</property>
  <property name="eof">pause</property>
  <property name="resource">/home/xiaoxiae/.cache/kdenlive/proxy/cdf1d650b0cac7275e1d55a757b9a7e1.mkv</property>
  <property name="audio_index">-1</property>
  <property name="video_index">0</property>
  <property name="mute_on_pause">0</property>
  <property name="mlt_service">avformat-novalidate</property>
  <property name="seekable">1</property>
  <property name="aspect_ratio">1</property>
  <property name="kdenlive:clipname">3.mp4</property>
  <property name="kdenlive:folderid">209</property>
  <property name="kdenlive:id">240</property>
  <property name="kdenlive:file_size">1019562</property>
  <property name="kdenlive:file_hash">cdf1d650b0cac7275e1d55a757b9a7e1</property>
  <property name="kdenlive:proxy">/home/xiaoxiae/.cache/kdenlive/proxy/cdf1d650b0cac7275e1d55a757b9a7e1.mkv</property>
  <property name="kdenlive:originalurl">video/Lemma1/3.mp4</property>
  <property name="global_feed">1</property>
  <property name="meta.media.nb_streams">1</property>
  <property name="meta.media.0.stream.type">video</property>
  <property name="meta.media.0.stream.frame_rate">60</property>
  <property name="meta.media.0.stream.sample_aspect_ratio">0</property>
  <property name="meta.media.0.codec.width">640</property>
  <property name="meta.media.0.codec.height">360</property>
  <property name="meta.media.0.codec.rotate">0</property>
  <property name="meta.media.0.codec.frame_rate">60</property>
  <property name="meta.media.0.codec.pix_fmt">yuv420p</property>
  <property name="meta.media.0.codec.sample_aspect_ratio">0</property>
  <property name="meta.media.0.codec.colorspace">601</property>
  <property name="meta.media.0.codec.name">h264</property>
  <property name="meta.media.0.codec.long_name">H.264 / AVC / MPEG-4 AVC / MPEG-4 part 10</property>
  <property name="meta.media.0.codec.bit_rate">0</property>
  <property name="meta.attr.0.stream.HANDLER_NAME.markup">VideoHandler</property>
  <property name="meta.attr.0.stream.VENDOR_ID.markup">[0][0][0][0]</property>
  <property name="meta.attr.0.stream.ENCODER.markup">Lavc58.134.100 libx264</property>
  <property name="meta.attr.0.stream.DURATION.markup">00:00:07.050000000</property>
  <property name="meta.attr.COMMENT.markup">Rendered with Manim Community v0.6.0</property>
  <property name="meta.attr.MAJOR_BRAND.markup">isom</property>
  <property name="meta.attr.MINOR_VERSION.markup">512</property>
  <property name="meta.attr.COMPATIBLE_BRANDS.markup">isomiso2avc1mp41</property>
  <property name="meta.attr.ENCODER.markup">Lavf58.76.100</property>
  <property name="meta.media.sample_aspect_num">1</property>
  <property name="meta.media.sample_aspect_den">1</property>
  <property name="meta.media.frame_rate_num">60</property>
  <property name="meta.media.frame_rate_den">1</property>
  <property name="meta.media.colorspace">601</property>
  <property name="meta.media.color_trc">2</property>
  <property name="meta.media.width">640</property>
  <property name="meta.media.height">360</property>
  <property name="meta.media.color_range">mpeg</property>
  <property name="meta.media.top_field_first">0</property>
  <property name="meta.media.progressive">1</property>
  <property name="kdenlive:original.mlt_type">producer</property>
  <property name="kdenlive:original.in">0</property>
  <property name="kdenlive:original.out">422</property>
  <property name="kdenlive:original.length">423</property>
  <property name="kdenlive:original.eof">pause</property>
  <property name="kdenlive:original.resource">video/Lemma1/3.mp4</property>
  <property name="kdenlive:original.meta.media.nb_streams">1</property>
  <property name="kdenlive:original.meta.media.0.stream.type">video</property>
  <property name="kdenlive:original.meta.media.0.stream.frame_rate">60</property>
  <property name="kdenlive:original.meta.media.0.stream.sample_aspect_ratio">0</property>
  <property name="kdenlive:original.meta.media.0.codec.width">3840</property>
  <property name="kdenlive:original.meta.media.0.codec.height">2160</property>
  <property name="kdenlive:original.meta.media.0.codec.rotate">0</property>
  <property name="kdenlive:original.meta.media.0.codec.frame_rate">60</property>
  <property name="kdenlive:original.meta.media.0.codec.pix_fmt">yuv420p</property>
  <property name="kdenlive:original.meta.media.0.codec.sample_aspect_ratio">0</property>
  <property name="kdenlive:original.meta.media.0.codec.colorspace">709</property>
  <property name="kdenlive:original.meta.media.0.codec.name">h264</property>
  <property name="kdenlive:original.meta.media.0.codec.long_name">H.264 / AVC / MPEG-4 AVC / MPEG-4 part 10</property>
  <property name="kdenlive:original.meta.media.0.codec.bit_rate">1150151</property>
  <property name="kdenlive:original.meta.attr.0.stream.handler_name.markup">VideoHandler</property>
  <property name="kdenlive:original.meta.attr.0.stream.vendor_id.markup">[0][0][0][0]</property>
  <property name="kdenlive:original.meta.attr.major_brand.markup">isom</property>
  <property name="kdenlive:original.meta.attr.minor_version.markup">512</property>
  <property name="kdenlive:original.meta.attr.compatible_brands.markup">isomiso2avc1mp41</property>
  <property name="kdenlive:original.meta.attr.encoder.markup">Lavf58.76.100</property>
  <property name="kdenlive:original.meta.attr.comment.markup">Rendered with Manim Community v0.6.0</property>
  <property name="kdenlive:original.seekable">1</property>
  <property name="kdenlive:original.width">3840</property>
  <property name="kdenlive:original.height">2160</property>
  <property name="kdenlive:original.meta.media.sample_aspect_num">1</property>
  <property name="kdenlive:original.meta.media.sample_aspect_den">1</property>
  <property name="kdenlive:original.aspect_ratio">1</property>
  <property name="kdenlive:original.audio_index">-1</property>
  <property name="kdenlive:original.video_index">0</property>
  <property name="kdenlive:original.mute_on_pause">1</property>
  <property name="kdenlive:original.mlt_service">avformat</property>
  <property name="kdenlive:original.meta.media.frame_rate_num">60</property>
  <property name="kdenlive:original.meta.media.frame_rate_den">1</property>
  <property name="kdenlive:original.meta.media.colorspace">709</property>
  <property name="kdenlive:original.meta.media.color_trc">2</property>
  <property name="kdenlive:original.meta.media.width">3840</property>
  <property name="kdenlive:original.meta.media.height">2160</property>
  <property name="kdenlive:original.meta.media.color_range">mpeg</property>
  <property name="kdenlive:original.meta.media.top_field_first">0</property>
  <property name="kdenlive:original.meta.media.progressive">1</property>
  <property name="kdenlive:original.backup">1</property>
 </producer>
 <producer id="producer276" in="00:00:00.000" out="00:00:04.983">
  <property name="length">00:00:05.000</property>
  <property name="eof">pause</property>
  <property name="resource">/home/xiaoxiae/.cache/kdenlive/proxy/37ae09424865533436c6f722c89a6e3d.png</property>
  <property name="ttl">25</property>
  <property name="aspect_ratio">1</property>
  <property name="progressive">1</property>
  <property name="seekable">1</property>
  <property name="meta.media.width">800</property>
  <property name="meta.media.height">450</property>
  <property name="mlt_service">qimage</property>
  <property name="kdenlive:clipname">3.png</property>
  <property name="kdenlive:duration">00:00:05.000</property>
  <property name="kdenlive:folderid">209</property>
  <property name="kdenlive:id">241</property>
  <property name="kdenlive:file_size">495834</property>
  <property name="kdenlive:file_hash">37ae09424865533436c6f722c89a6e3d</property>
  <property name="kdenlive:proxy">/home/xiaoxiae/.cache/kdenlive/proxy/37ae09424865533436c6f722c89a6e3d.png</property>
  <property name="kdenlive:originalurl">video/Lemma1/3.png</property>
  <property name="global_feed">1</property>
  <property name="kdenlive:original.mlt_type">producer</property>
  <property name="kdenlive:original.in">0</property>
  <property name="kdenlive:original.out">14999</property>
  <property name="kdenlive:original.length">15000</property>
  <property name="kdenlive:original.eof">pause</property>
  <property name="kdenlive:original.resource">video/Lemma1/3.png</property>
  <property name="kdenlive:original.ttl">25</property>
  <property name="kdenlive:original.aspect_ratio">1</property>
  <property name="kdenlive:original.progressive">1</property>
  <property name="kdenlive:original.seekable">1</property>
  <property name="kdenlive:original.meta.media.width">3840</property>
  <property name="kdenlive:original.meta.media.height">2160</property>
  <property name="kdenlive:original.mlt_service">qimage</property>
  <property name="kdenlive:original.backup">1</property>
 </producer>
 <producer id="producer275" in="00:00:00.000" out="00:00:00.983">
  <property name="length">60</property>
  <property name="eof">pause</property>
  <property name="resource">/home/xiaoxiae/.cache/kdenlive/proxy/6d65083134b0b0eedddc153cd3574e43.mkv</property>
  <property name="audio_index">-1</property>
  <property name="video_index">0</property>
  <property name="mute_on_pause">0</property>
  <property name="mlt_service">avformat-novalidate</property>
  <property name="seekable">1</property>
  <property name="aspect_ratio">1</property>
  <property name="kdenlive:clipname">4.mp4</property>
  <property name="kdenlive:folderid">209</property>
  <property name="kdenlive:id">242</property>
  <property name="kdenlive:file_size">122594</property>
  <property name="kdenlive:file_hash">6d65083134b0b0eedddc153cd3574e43</property>
  <property name="kdenlive:proxy">/home/xiaoxiae/.cache/kdenlive/proxy/6d65083134b0b0eedddc153cd3574e43.mkv</property>
  <property name="kdenlive:originalurl">video/Lemma1/4.mp4</property>
  <property name="global_feed">1</property>
  <property name="meta.media.nb_streams">1</property>
  <property name="meta.media.0.stream.type">video</property>
  <property name="meta.media.0.stream.frame_rate">60</property>
  <property name="meta.media.0.stream.sample_aspect_ratio">0</property>
  <property name="meta.media.0.codec.width">640</property>
  <property name="meta.media.0.codec.height">360</property>
  <property name="meta.media.0.codec.rotate">0</property>
  <property name="meta.media.0.codec.frame_rate">60</property>
  <property name="meta.media.0.codec.pix_fmt">yuv420p</property>
  <property name="meta.media.0.codec.sample_aspect_ratio">0</property>
  <property name="meta.media.0.codec.colorspace">601</property>
  <property name="meta.media.0.codec.name">h264</property>
  <property name="meta.media.0.codec.long_name">H.264 / AVC / MPEG-4 AVC / MPEG-4 part 10</property>
  <property name="meta.media.0.codec.bit_rate">0</property>
  <property name="meta.attr.0.stream.HANDLER_NAME.markup">VideoHandler</property>
  <property name="meta.attr.0.stream.VENDOR_ID.markup">[0][0][0][0]</property>
  <property name="meta.attr.0.stream.ENCODER.markup">Lavc58.134.100 libx264</property>
  <property name="meta.attr.0.stream.DURATION.markup">00:00:01.000000000</property>
  <property name="meta.attr.COMMENT.markup">Rendered with Manim Community v0.6.0</property>
  <property name="meta.attr.MAJOR_BRAND.markup">isom</property>
  <property name="meta.attr.MINOR_VERSION.markup">512</property>
  <property name="meta.attr.COMPATIBLE_BRANDS.markup">isomiso2avc1mp41</property>
  <property name="meta.attr.ENCODER.markup">Lavf58.76.100</property>
  <property name="meta.media.sample_aspect_num">1</property>
  <property name="meta.media.sample_aspect_den">1</property>
  <property name="meta.media.frame_rate_num">60</property>
  <property name="meta.media.frame_rate_den">1</property>
  <property name="meta.media.colorspace">601</property>
  <property name="meta.media.color_trc">2</property>
  <property name="meta.media.width">640</property>
  <property name="meta.media.height">360</property>
  <property name="meta.media.color_range">mpeg</property>
  <property name="meta.media.top_field_first">0</property>
  <property name="meta.media.progressive">1</property>
  <property name="kdenlive:original.mlt_type">producer</property>
  <property name="kdenlive:original.in">0</property>
  <property name="kdenlive:original.out">59</property>
  <property name="kdenlive:original.length">60</property>
  <property name="kdenlive:original.eof">pause</property>
  <property name="kdenlive:original.resource">video/Lemma1/4.mp4</property>
  <property name="kdenlive:original.meta.media.nb_streams">1</property>
  <property name="kdenlive:original.meta.media.0.stream.type">video</property>
  <property name="kdenlive:original.meta.media.0.stream.frame_rate">60</property>
  <property name="kdenlive:original.meta.media.0.stream.sample_aspect_ratio">0</property>
  <property name="kdenlive:original.meta.media.0.codec.width">3840</property>
  <property name="kdenlive:original.meta.media.0.codec.height">2160</property>
  <property name="kdenlive:original.meta.media.0.codec.rotate">0</property>
  <property name="kdenlive:original.meta.media.0.codec.frame_rate">60</property>
  <property name="kdenlive:original.meta.media.0.codec.pix_fmt">yuv420p</property>
  <property name="kdenlive:original.meta.media.0.codec.sample_aspect_ratio">0</property>
  <property name="kdenlive:original.meta.media.0.codec.colorspace">709</property>
  <property name="kdenlive:original.meta.media.0.codec.name">h264</property>
  <property name="kdenlive:original.meta.media.0.codec.long_name">H.264 / AVC / MPEG-4 AVC / MPEG-4 part 10</property>
  <property name="kdenlive:original.meta.media.0.codec.bit_rate">967704</property>
  <property name="kdenlive:original.meta.attr.0.stream.handler_name.markup">VideoHandler</property>
  <property name="kdenlive:original.meta.attr.0.stream.vendor_id.markup">[0][0][0][0]</property>
  <property name="kdenlive:original.meta.attr.major_brand.markup">isom</property>
  <property name="kdenlive:original.meta.attr.minor_version.markup">512</property>
  <property name="kdenlive:original.meta.attr.compatible_brands.markup">isomiso2avc1mp41</property>
  <property name="kdenlive:original.meta.attr.encoder.markup">Lavf58.76.100</property>
  <property name="kdenlive:original.meta.attr.comment.markup">Rendered with Manim Community v0.6.0</property>
  <property name="kdenlive:original.seekable">1</property>
  <property name="kdenlive:original.width">3840</property>
  <property name="kdenlive:original.height">2160</property>
  <property name="kdenlive:original.meta.media.sample_aspect_num">1</property>
  <property name="kdenlive:original.meta.media.sample_aspect_den">1</property>
  <property name="kdenlive:original.aspect_ratio">1</property>
  <property name="kdenlive:original.audio_index">-1</property>
  <property name="kdenlive:original.video_index">0</property>
  <property name="kdenlive:original.mute_on_pause">1</property>
  <property name="kdenlive:original.mlt_service">avformat</property>
  <property name="kdenlive:original.meta.media.frame_rate_num">60</property>
  <property name="kdenlive:original.meta.media.frame_rate_den">1</property>
  <property name="kdenlive:original.meta.media.colorspace">709</property>
  <property name="kdenlive:original.meta.media.color_trc">2</property>
  <property name="kdenlive:original.meta.media.width">3840</property>
  <property name="kdenlive:original.meta.media.height">2160</property>
  <property name="kdenlive:original.meta.media.color_range">mpeg</property>
  <property name="kdenlive:original.meta.media.top_field_first">0</property>
  <property name="kdenlive:original.meta.media.progressive">1</property>
  <property name="kdenlive:original.backup">1</property>
 </producer>
 <producer id="producer278" in="00:00:00.000" out="00:00:04.983">
  <property name="length">00:00:05.000</property>
  <property name="eof">pause</property>
  <property name="resource">/home/xiaoxiae/.cache/kdenlive/proxy/41d9016df73fb92ac9eac7995a624590.png</property>
  <property name="ttl">25</property>
  <property name="aspect_ratio">1</property>
  <property name="progressive">1</property>
  <property name="seekable">1</property>
  <property name="meta.media.width">800</property>
  <property name="meta.media.height">450</property>
  <property name="mlt_service">qimage</property>
  <property name="kdenlive:clipname">4.png</property>
  <property name="kdenlive:duration">00:00:05.000</property>
  <property name="kdenlive:folderid">209</property>
  <property name="kdenlive:id">243</property>
  <property name="kdenlive:file_size">422470</property>
  <property name="kdenlive:file_hash">41d9016df73fb92ac9eac7995a624590</property>
  <property name="kdenlive:proxy">/home/xiaoxiae/.cache/kdenlive/proxy/41d9016df73fb92ac9eac7995a624590.png</property>
  <property name="kdenlive:originalurl">video/Lemma1/4.png</property>
  <property name="global_feed">1</property>
 </producer>
 <producer id="producer279" in="00:00:00.000" out="00:00:00.983">
  <property name="length">60</property>
  <property name="eof">pause</property>
  <property name="resource">/home/xiaoxiae/.cache/kdenlive/proxy/d8f20339d1b938d8e448a35e6e41529e.mkv</property>
  <property name="audio_index">-1</property>
  <property name="video_index">0</property>
  <property name="mute_on_pause">0</property>
  <property name="mlt_service">avformat-novalidate</property>
  <property name="seekable">1</property>
  <property name="aspect_ratio">1</property>
  <property name="kdenlive:clipname">5.mp4</property>
  <property name="kdenlive:folderid">209</property>
  <property name="kdenlive:id">244</property>
  <property name="kdenlive:file_size">434433</property>
  <property name="kdenlive:file_hash">d8f20339d1b938d8e448a35e6e41529e</property>
  <property name="kdenlive:proxy">/home/xiaoxiae/.cache/kdenlive/proxy/d8f20339d1b938d8e448a35e6e41529e.mkv</property>
  <property name="kdenlive:originalurl">video/Lemma1/5.mp4</property>
  <property name="global_feed">1</property>
  <property name="meta.media.nb_streams">1</property>
  <property name="meta.media.0.stream.type">video</property>
  <property name="meta.media.0.stream.frame_rate">60</property>
  <property name="meta.media.0.stream.sample_aspect_ratio">0</property>
  <property name="meta.media.0.codec.width">640</property>
  <property name="meta.media.0.codec.height">360</property>
  <property name="meta.media.0.codec.rotate">0</property>
  <property name="meta.media.0.codec.frame_rate">60</property>
  <property name="meta.media.0.codec.pix_fmt">yuv420p</property>
  <property name="meta.media.0.codec.sample_aspect_ratio">0</property>
  <property name="meta.media.0.codec.colorspace">601</property>
  <property name="meta.media.0.codec.name">h264</property>
  <property name="meta.media.0.codec.long_name">H.264 / AVC / MPEG-4 AVC / MPEG-4 part 10</property>
  <property name="meta.media.0.codec.bit_rate">0</property>
  <property name="meta.attr.0.stream.HANDLER_NAME.markup">VideoHandler</property>
  <property name="meta.attr.0.stream.VENDOR_ID.markup">[0][0][0][0]</property>
  <property name="meta.attr.0.stream.ENCODER.markup">Lavc58.134.100 libx264</property>
  <property name="meta.attr.0.stream.DURATION.markup">00:00:01.000000000</property>
  <property name="meta.attr.COMMENT.markup">Rendered with Manim Community v0.6.0</property>
  <property name="meta.attr.MAJOR_BRAND.markup">isom</property>
  <property name="meta.attr.MINOR_VERSION.markup">512</property>
  <property name="meta.attr.COMPATIBLE_BRANDS.markup">isomiso2avc1mp41</property>
  <property name="meta.attr.ENCODER.markup">Lavf58.76.100</property>
  <property name="meta.media.sample_aspect_num">1</property>
  <property name="meta.media.sample_aspect_den">1</property>
  <property name="meta.media.frame_rate_num">60</property>
  <property name="meta.media.frame_rate_den">1</property>
  <property name="meta.media.colorspace">601</property>
  <property name="meta.media.color_trc">2</property>
  <property name="meta.media.width">640</property>
  <property name="meta.media.height">360</property>
  <property name="meta.media.color_range">mpeg</property>
  <property name="meta.media.top_field_first">0</property>
  <property name="meta.media.progressive">1</property>
  <property name="kdenlive:original.mlt_type">producer</property>
  <property name="kdenlive:original.in">0</property>
  <property name="kdenlive:original.out">59</property>
  <property name="kdenlive:original.length">60</property>
  <property name="kdenlive:original.eof">pause</property>
  <property name="kdenlive:original.resource">video/Lemma1/5.mp4</property>
  <property name="kdenlive:original.meta.media.nb_streams">1</property>
  <property name="kdenlive:original.meta.media.0.stream.type">video</property>
  <property name="kdenlive:original.meta.media.0.stream.frame_rate">60</property>
  <property name="kdenlive:original.meta.media.0.stream.sample_aspect_ratio">0</property>
  <property name="kdenlive:original.meta.media.0.codec.width">3840</property>
  <property name="kdenlive:original.meta.media.0.codec.height">2160</property>
  <property name="kdenlive:original.meta.media.0.codec.rotate">0</property>
  <property name="kdenlive:original.meta.media.0.codec.frame_rate">60</property>
  <property name="kdenlive:original.meta.media.0.codec.pix_fmt">yuv420p</property>
  <property name="kdenlive:original.meta.media.0.codec.sample_aspect_ratio">0</property>
  <property name="kdenlive:original.meta.media.0.codec.colorspace">709</property>
  <property name="kdenlive:original.meta.media.0.codec.name">h264</property>
  <property name="kdenlive:original.meta.media.0.codec.long_name">H.264 / AVC / MPEG-4 AVC / MPEG-4 part 10</property>
  <property name="kdenlive:original.meta.media.0.codec.bit_rate">3463568</property>
  <property name="kdenlive:original.meta.attr.0.stream.handler_name.markup">VideoHandler</property>
  <property name="kdenlive:original.meta.attr.0.stream.vendor_id.markup">[0][0][0][0]</property>
  <property name="kdenlive:original.meta.attr.major_brand.markup">isom</property>
  <property name="kdenlive:original.meta.attr.minor_version.markup">512</property>
  <property name="kdenlive:original.meta.attr.compatible_brands.markup">isomiso2avc1mp41</property>
  <property name="kdenlive:original.meta.attr.encoder.markup">Lavf58.76.100</property>
  <property name="kdenlive:original.meta.attr.comment.markup">Rendered with Manim Community v0.6.0</property>
  <property name="kdenlive:original.seekable">1</property>
  <property name="kdenlive:original.width">3840</property>
  <property name="kdenlive:original.height">2160</property>
  <property name="kdenlive:original.meta.media.sample_aspect_num">1</property>
  <property name="kdenlive:original.meta.media.sample_aspect_den">1</property>
  <property name="kdenlive:original.aspect_ratio">1</property>
  <property name="kdenlive:original.audio_index">-1</property>
  <property name="kdenlive:original.video_index">0</property>
  <property name="kdenlive:original.mute_on_pause">1</property>
  <property name="kdenlive:original.mlt_service">avformat</property>
  <property name="kdenlive:original.meta.media.frame_rate_num">60</property>
  <property name="kdenlive:original.meta.media.frame_rate_den">1</property>
  <property name="kdenlive:original.meta.media.colorspace">709</property>
  <property name="kdenlive:original.meta.media.color_trc">2</property>
  <property name="kdenlive:original.meta.media.width">3840</property>
  <property name="kdenlive:original.meta.media.height">2160</property>
  <property name="kdenlive:original.meta.media.color_range">mpeg</property>
  <property name="kdenlive:original.meta.media.top_field_first">0</property>
  <property name="kdenlive:original.meta.media.progressive">1</property>
  <property name="kdenlive:original.backup">1</property>
 </producer>
 <producer id="producer277" in="00:00:00.000" out="00:00:04.983">
  <property name="length">00:00:05.000</property>
  <property name="eof">pause</property>
  <property name="resource">/home/xiaoxiae/.cache/kdenlive/proxy/5b0487b7dbe4d94afc4a81ff5748d68a.png</property>
  <property name="ttl">25</property>
  <property name="aspect_ratio">1</property>
  <property name="progressive">1</property>
  <property name="seekable">1</property>
  <property name="meta.media.width">800</property>
  <property name="meta.media.height">450</property>
  <property name="mlt_service">qimage</property>
  <property name="kdenlive:clipname">5.png</property>
  <property name="kdenlive:duration">00:00:05.000</property>
  <property name="kdenlive:folderid">209</property>
  <property name="kdenlive:id">245</property>
  <property name="kdenlive:file_size">491951</property>
  <property name="kdenlive:file_hash">5b0487b7dbe4d94afc4a81ff5748d68a</property>
  <property name="kdenlive:proxy">/home/xiaoxiae/.cache/kdenlive/proxy/5b0487b7dbe4d94afc4a81ff5748d68a.png</property>
  <property name="kdenlive:originalurl">video/Lemma1/5.png</property>
  <property name="global_feed">1</property>
 </producer>
 <producer id="producer281" in="00:00:00.000" out="00:00:00.983">
  <property name="length">60</property>
  <property name="eof">pause</property>
  <property name="resource">/home/xiaoxiae/.cache/kdenlive/proxy/6e3a52fdbe37b9c66c5b28296d5d6a63.mkv</property>
  <property name="audio_index">-1</property>
  <property name="video_index">0</property>
  <property name="mute_on_pause">0</property>
  <property name="mlt_service">avformat-novalidate</property>
  <property name="seekable">1</property>
  <property name="aspect_ratio">1</property>
  <property name="kdenlive:clipname">6.mp4</property>
  <property name="kdenlive:folderid">209</property>
  <property name="kdenlive:id">246</property>
  <property name="kdenlive:file_size">107471</property>
  <property name="kdenlive:file_hash">6e3a52fdbe37b9c66c5b28296d5d6a63</property>
  <property name="kdenlive:proxy">/home/xiaoxiae/.cache/kdenlive/proxy/6e3a52fdbe37b9c66c5b28296d5d6a63.mkv</property>
  <property name="kdenlive:originalurl">video/Lemma1/6.mp4</property>
  <property name="global_feed">1</property>
  <property name="meta.media.nb_streams">1</property>
  <property name="meta.media.0.stream.type">video</property>
  <property name="meta.media.0.stream.frame_rate">60</property>
  <property name="meta.media.0.stream.sample_aspect_ratio">0</property>
  <property name="meta.media.0.codec.width">640</property>
  <property name="meta.media.0.codec.height">360</property>
  <property name="meta.media.0.codec.rotate">0</property>
  <property name="meta.media.0.codec.frame_rate">60</property>
  <property name="meta.media.0.codec.pix_fmt">yuv420p</property>
  <property name="meta.media.0.codec.sample_aspect_ratio">0</property>
  <property name="meta.media.0.codec.colorspace">601</property>
  <property name="meta.media.0.codec.name">h264</property>
  <property name="meta.media.0.codec.long_name">H.264 / AVC / MPEG-4 AVC / MPEG-4 part 10</property>
  <property name="meta.media.0.codec.bit_rate">0</property>
  <property name="meta.attr.0.stream.HANDLER_NAME.markup">VideoHandler</property>
  <property name="meta.attr.0.stream.VENDOR_ID.markup">[0][0][0][0]</property>
  <property name="meta.attr.0.stream.ENCODER.markup">Lavc58.134.100 libx264</property>
  <property name="meta.attr.0.stream.DURATION.markup">00:00:01.000000000</property>
  <property name="meta.attr.COMMENT.markup">Rendered with Manim Community v0.6.0</property>
  <property name="meta.attr.MAJOR_BRAND.markup">isom</property>
  <property name="meta.attr.MINOR_VERSION.markup">512</property>
  <property name="meta.attr.COMPATIBLE_BRANDS.markup">isomiso2avc1mp41</property>
  <property name="meta.attr.ENCODER.markup">Lavf58.76.100</property>
  <property name="meta.media.sample_aspect_num">1</property>
  <property name="meta.media.sample_aspect_den">1</property>
  <property name="meta.media.frame_rate_num">60</property>
  <property name="meta.media.frame_rate_den">1</property>
  <property name="meta.media.colorspace">601</property>
  <property name="meta.media.color_trc">2</property>
  <property name="meta.media.width">640</property>
  <property name="meta.media.height">360</property>
  <property name="meta.media.color_range">mpeg</property>
  <property name="meta.media.top_field_first">0</property>
  <property name="meta.media.progressive">1</property>
  <property name="kdenlive:original.mlt_type">producer</property>
  <property name="kdenlive:original.in">0</property>
  <property name="kdenlive:original.out">59</property>
  <property name="kdenlive:original.length">60</property>
  <property name="kdenlive:original.eof">pause</property>
  <property name="kdenlive:original.resource">video/Lemma1/6.mp4</property>
  <property name="kdenlive:original.meta.media.nb_streams">1</property>
  <property name="kdenlive:original.meta.media.0.stream.type">video</property>
  <property name="kdenlive:original.meta.media.0.stream.frame_rate">60</property>
  <property name="kdenlive:original.meta.media.0.stream.sample_aspect_ratio">0</property>
  <property name="kdenlive:original.meta.media.0.codec.width">3840</property>
  <property name="kdenlive:original.meta.media.0.codec.height">2160</property>
  <property name="kdenlive:original.meta.media.0.codec.rotate">0</property>
  <property name="kdenlive:original.meta.media.0.codec.frame_rate">60</property>
  <property name="kdenlive:original.meta.media.0.codec.pix_fmt">yuv420p</property>
  <property name="kdenlive:original.meta.media.0.codec.sample_aspect_ratio">0</property>
  <property name="kdenlive:original.meta.media.0.codec.colorspace">709</property>
  <property name="kdenlive:original.meta.media.0.codec.name">h264</property>
  <property name="kdenlive:original.meta.media.0.codec.long_name">H.264 / AVC / MPEG-4 AVC / MPEG-4 part 10</property>
  <property name="kdenlive:original.meta.media.0.codec.bit_rate">846784</property>
  <property name="kdenlive:original.meta.attr.0.stream.handler_name.markup">VideoHandler</property>
  <property name="kdenlive:original.meta.attr.0.stream.vendor_id.markup">[0][0][0][0]</property>
  <property name="kdenlive:original.meta.attr.major_brand.markup">isom</property>
  <property name="kdenlive:original.meta.attr.minor_version.markup">512</property>
  <property name="kdenlive:original.meta.attr.compatible_brands.markup">isomiso2avc1mp41</property>
  <property name="kdenlive:original.meta.attr.encoder.markup">Lavf58.76.100</property>
  <property name="kdenlive:original.meta.attr.comment.markup">Rendered with Manim Community v0.6.0</property>
  <property name="kdenlive:original.seekable">1</property>
  <property name="kdenlive:original.width">3840</property>
  <property name="kdenlive:original.height">2160</property>
  <property name="kdenlive:original.meta.media.sample_aspect_num">1</property>
  <property name="kdenlive:original.meta.media.sample_aspect_den">1</property>
  <property name="kdenlive:original.aspect_ratio">1</property>
  <property name="kdenlive:original.audio_index">-1</property>
  <property name="kdenlive:original.video_index">0</property>
  <property name="kdenlive:original.mute_on_pause">1</property>
  <property name="kdenlive:original.mlt_service">avformat</property>
  <property name="kdenlive:original.meta.media.frame_rate_num">60</property>
  <property name="kdenlive:original.meta.media.frame_rate_den">1</property>
  <property name="kdenlive:original.meta.media.colorspace">709</property>
  <property name="kdenlive:original.meta.media.color_trc">2</property>
  <property name="kdenlive:original.meta.media.width">3840</property>
  <property name="kdenlive:original.meta.media.height">2160</property>
  <property name="kdenlive:original.meta.media.color_range">mpeg</property>
  <property name="kdenlive:original.meta.media.top_field_first">0</property>
  <property name="kdenlive:original.meta.media.progressive">1</property>
  <property name="kdenlive:original.backup">1</property>
 </producer>
 <producer id="producer280" in="00:00:00.000" out="00:00:04.983">
  <property name="length">00:00:05.000</property>
  <property name="eof">pause</property>
  <property name="resource">/home/xiaoxiae/.cache/kdenlive/proxy/b55dac99fc2960b8f46cf91294187ef7.png</property>
  <property name="ttl">25</property>
  <property name="aspect_ratio">1</property>
  <property name="progressive">1</property>
  <property name="seekable">1</property>
  <property name="meta.media.width">800</property>
  <property name="meta.media.height">450</property>
  <property name="mlt_service">qimage</property>
  <property name="kdenlive:clipname">6.png</property>
  <property name="kdenlive:duration">00:00:05.000</property>
  <property name="kdenlive:folderid">209</property>
  <property name="kdenlive:id">247</property>
  <property name="kdenlive:file_size">426806</property>
  <property name="kdenlive:file_hash">b55dac99fc2960b8f46cf91294187ef7</property>
  <property name="kdenlive:proxy">/home/xiaoxiae/.cache/kdenlive/proxy/b55dac99fc2960b8f46cf91294187ef7.png</property>
  <property name="kdenlive:originalurl">video/Lemma1/6.png</property>
  <property name="global_feed">1</property>
 </producer>
 <producer id="producer282" in="00:00:00.000" out="00:00:00.983">
  <property name="length">60</property>
  <property name="eof">pause</property>
  <property name="resource">/home/xiaoxiae/.cache/kdenlive/proxy/a4a65150ab220a81db20602a60938136.mkv</property>
  <property name="audio_index">-1</property>
  <property name="video_index">0</property>
  <property name="mute_on_pause">0</property>
  <property name="mlt_service">avformat-novalidate</property>
  <property name="seekable">1</property>
  <property name="aspect_ratio">1</property>
  <property name="kdenlive:clipname">7.mp4</property>
  <property name="kdenlive:folderid">209</property>
  <property name="kdenlive:id">248</property>
  <property name="kdenlive:file_size">109529</property>
  <property name="kdenlive:file_hash">a4a65150ab220a81db20602a60938136</property>
  <property name="kdenlive:proxy">/home/xiaoxiae/.cache/kdenlive/proxy/a4a65150ab220a81db20602a60938136.mkv</property>
  <property name="kdenlive:originalurl">video/Lemma1/7.mp4</property>
  <property name="global_feed">1</property>
  <property name="meta.media.nb_streams">1</property>
  <property name="meta.media.0.stream.type">video</property>
  <property name="meta.media.0.stream.frame_rate">60</property>
  <property name="meta.media.0.stream.sample_aspect_ratio">0</property>
  <property name="meta.media.0.codec.width">640</property>
  <property name="meta.media.0.codec.height">360</property>
  <property name="meta.media.0.codec.rotate">0</property>
  <property name="meta.media.0.codec.frame_rate">60</property>
  <property name="meta.media.0.codec.pix_fmt">yuv420p</property>
  <property name="meta.media.0.codec.sample_aspect_ratio">0</property>
  <property name="meta.media.0.codec.colorspace">601</property>
  <property name="meta.media.0.codec.name">h264</property>
  <property name="meta.media.0.codec.long_name">H.264 / AVC / MPEG-4 AVC / MPEG-4 part 10</property>
  <property name="meta.media.0.codec.bit_rate">0</property>
  <property name="meta.attr.0.stream.HANDLER_NAME.markup">VideoHandler</property>
  <property name="meta.attr.0.stream.VENDOR_ID.markup">[0][0][0][0]</property>
  <property name="meta.attr.0.stream.ENCODER.markup">Lavc58.134.100 libx264</property>
  <property name="meta.attr.0.stream.DURATION.markup">00:00:01.000000000</property>
  <property name="meta.attr.COMMENT.markup">Rendered with Manim Community v0.6.0</property>
  <property name="meta.attr.MAJOR_BRAND.markup">isom</property>
  <property name="meta.attr.MINOR_VERSION.markup">512</property>
  <property name="meta.attr.COMPATIBLE_BRANDS.markup">isomiso2avc1mp41</property>
  <property name="meta.attr.ENCODER.markup">Lavf58.76.100</property>
  <property name="meta.media.sample_aspect_num">1</property>
  <property name="meta.media.sample_aspect_den">1</property>
  <property name="meta.media.frame_rate_num">60</property>
  <property name="meta.media.frame_rate_den">1</property>
  <property name="meta.media.colorspace">601</property>
  <property name="meta.media.color_trc">2</property>
  <property name="meta.media.width">640</property>
  <property name="meta.media.height">360</property>
  <property name="meta.media.color_range">mpeg</property>
  <property name="meta.media.top_field_first">0</property>
  <property name="meta.media.progressive">1</property>
  <property name="kdenlive:original.mlt_type">producer</property>
  <property name="kdenlive:original.in">0</property>
  <property name="kdenlive:original.out">59</property>
  <property name="kdenlive:original.length">60</property>
  <property name="kdenlive:original.eof">pause</property>
  <property name="kdenlive:original.resource">video/Lemma1/7.mp4</property>
  <property name="kdenlive:original.meta.media.nb_streams">1</property>
  <property name="kdenlive:original.meta.media.0.stream.type">video</property>
  <property name="kdenlive:original.meta.media.0.stream.frame_rate">60</property>
  <property name="kdenlive:original.meta.media.0.stream.sample_aspect_ratio">0</property>
  <property name="kdenlive:original.meta.media.0.codec.width">3840</property>
  <property name="kdenlive:original.meta.media.0.codec.height">2160</property>
  <property name="kdenlive:original.meta.media.0.codec.rotate">0</property>
  <property name="kdenlive:original.meta.media.0.codec.frame_rate">60</property>
  <property name="kdenlive:original.meta.media.0.codec.pix_fmt">yuv420p</property>
  <property name="kdenlive:original.meta.media.0.codec.sample_aspect_ratio">0</property>
  <property name="kdenlive:original.meta.media.0.codec.colorspace">709</property>
  <property name="kdenlive:original.meta.media.0.codec.name">h264</property>
  <property name="kdenlive:original.meta.media.0.codec.long_name">H.264 / AVC / MPEG-4 AVC / MPEG-4 part 10</property>
  <property name="kdenlive:original.meta.media.0.codec.bit_rate">863184</property>
  <property name="kdenlive:original.meta.attr.0.stream.handler_name.markup">VideoHandler</property>
  <property name="kdenlive:original.meta.attr.0.stream.vendor_id.markup">[0][0][0][0]</property>
  <property name="kdenlive:original.meta.attr.major_brand.markup">isom</property>
  <property name="kdenlive:original.meta.attr.minor_version.markup">512</property>
  <property name="kdenlive:original.meta.attr.compatible_brands.markup">isomiso2avc1mp41</property>
  <property name="kdenlive:original.meta.attr.encoder.markup">Lavf58.76.100</property>
  <property name="kdenlive:original.meta.attr.comment.markup">Rendered with Manim Community v0.6.0</property>
  <property name="kdenlive:original.seekable">1</property>
  <property name="kdenlive:original.width">3840</property>
  <property name="kdenlive:original.height">2160</property>
  <property name="kdenlive:original.meta.media.sample_aspect_num">1</property>
  <property name="kdenlive:original.meta.media.sample_aspect_den">1</property>
  <property name="kdenlive:original.aspect_ratio">1</property>
  <property name="kdenlive:original.audio_index">-1</property>
  <property name="kdenlive:original.video_index">0</property>
  <property name="kdenlive:original.mute_on_pause">1</property>
  <property name="kdenlive:original.mlt_service">avformat</property>
  <property name="kdenlive:original.meta.media.frame_rate_num">60</property>
  <property name="kdenlive:original.meta.media.frame_rate_den">1</property>
  <property name="kdenlive:original.meta.media.colorspace">709</property>
  <property name="kdenlive:original.meta.media.color_trc">2</property>
  <property name="kdenlive:original.meta.media.width">3840</property>
  <property name="kdenlive:original.meta.media.height">2160</property>
  <property name="kdenlive:original.meta.media.color_range">mpeg</property>
  <property name="kdenlive:original.meta.media.top_field_first">0</property>
  <property name="kdenlive:original.meta.media.progressive">1</property>
  <property name="kdenlive:original.backup">1</property>
 </producer>
 <producer id="producer284" in="00:00:00.000" out="00:00:04.983">
  <property name="length">00:00:05.000</property>
  <property name="eof">pause</property>
  <property name="resource">/home/xiaoxiae/.cache/kdenlive/proxy/0e713bd3e29786b3f6a5c5a1a0efe707.png</property>
  <property name="ttl">25</property>
  <property name="aspect_ratio">1</property>
  <property name="progressive">1</property>
  <property name="seekable">1</property>
  <property name="meta.media.width">800</property>
  <property name="meta.media.height">450</property>
  <property name="mlt_service">qimage</property>
  <property name="kdenlive:clipname">7.png</property>
  <property name="kdenlive:duration">00:00:05.000</property>
  <property name="kdenlive:folderid">209</property>
  <property name="kdenlive:id">249</property>
  <property name="kdenlive:file_size">431405</property>
  <property name="kdenlive:file_hash">0e713bd3e29786b3f6a5c5a1a0efe707</property>
  <property name="kdenlive:proxy">/home/xiaoxiae/.cache/kdenlive/proxy/0e713bd3e29786b3f6a5c5a1a0efe707.png</property>
  <property name="kdenlive:originalurl">video/Lemma1/7.png</property>
  <property name="global_feed">1</property>
 </producer>
 <producer id="producer285" in="00:00:00.000" out="00:00:01.983">
  <property name="length">120</property>
  <property name="eof">pause</property>
  <property name="resource">/home/xiaoxiae/.cache/kdenlive/proxy/4ce2b82bb966a326c6dd781c1517d877.mkv</property>
  <property name="audio_index">-1</property>
  <property name="video_index">0</property>
  <property name="mute_on_pause">0</property>
  <property name="mlt_service">avformat-novalidate</property>
  <property name="seekable">1</property>
  <property name="aspect_ratio">1</property>
  <property name="kdenlive:clipname">8.mp4</property>
  <property name="kdenlive:folderid">209</property>
  <property name="kdenlive:id">250</property>
  <property name="kdenlive:file_size">231728</property>
  <property name="kdenlive:file_hash">4ce2b82bb966a326c6dd781c1517d877</property>
  <property name="kdenlive:proxy">/home/xiaoxiae/.cache/kdenlive/proxy/4ce2b82bb966a326c6dd781c1517d877.mkv</property>
  <property name="kdenlive:originalurl">video/Lemma1/8.mp4</property>
  <property name="global_feed">1</property>
  <property name="meta.media.nb_streams">1</property>
  <property name="meta.media.0.stream.type">video</property>
  <property name="meta.media.0.stream.frame_rate">60</property>
  <property name="meta.media.0.stream.sample_aspect_ratio">0</property>
  <property name="meta.media.0.codec.width">640</property>
  <property name="meta.media.0.codec.height">360</property>
  <property name="meta.media.0.codec.rotate">0</property>
  <property name="meta.media.0.codec.frame_rate">60</property>
  <property name="meta.media.0.codec.pix_fmt">yuv420p</property>
  <property name="meta.media.0.codec.sample_aspect_ratio">0</property>
  <property name="meta.media.0.codec.colorspace">601</property>
  <property name="meta.media.0.codec.name">h264</property>
  <property name="meta.media.0.codec.long_name">H.264 / AVC / MPEG-4 AVC / MPEG-4 part 10</property>
  <property name="meta.media.0.codec.bit_rate">0</property>
  <property name="meta.attr.0.stream.HANDLER_NAME.markup">VideoHandler</property>
  <property name="meta.attr.0.stream.VENDOR_ID.markup">[0][0][0][0]</property>
  <property name="meta.attr.0.stream.ENCODER.markup">Lavc58.134.100 libx264</property>
  <property name="meta.attr.0.stream.DURATION.markup">00:00:02.000000000</property>
  <property name="meta.attr.COMMENT.markup">Rendered with Manim Community v0.6.0</property>
  <property name="meta.attr.MAJOR_BRAND.markup">isom</property>
  <property name="meta.attr.MINOR_VERSION.markup">512</property>
  <property name="meta.attr.COMPATIBLE_BRANDS.markup">isomiso2avc1mp41</property>
  <property name="meta.attr.ENCODER.markup">Lavf58.76.100</property>
  <property name="meta.media.sample_aspect_num">1</property>
  <property name="meta.media.sample_aspect_den">1</property>
  <property name="meta.media.frame_rate_num">60</property>
  <property name="meta.media.frame_rate_den">1</property>
  <property name="meta.media.colorspace">601</property>
  <property name="meta.media.color_trc">2</property>
  <property name="meta.media.width">640</property>
  <property name="meta.media.height">360</property>
  <property name="meta.media.color_range">mpeg</property>
  <property name="meta.media.top_field_first">0</property>
  <property name="meta.media.progressive">1</property>
  <property name="kdenlive:original.mlt_type">producer</property>
  <property name="kdenlive:original.in">0</property>
  <property name="kdenlive:original.out">119</property>
  <property name="kdenlive:original.length">120</property>
  <property name="kdenlive:original.eof">pause</property>
  <property name="kdenlive:original.resource">video/Lemma1/8.mp4</property>
  <property name="kdenlive:original.meta.media.nb_streams">1</property>
  <property name="kdenlive:original.meta.media.0.stream.type">video</property>
  <property name="kdenlive:original.meta.media.0.stream.frame_rate">60</property>
  <property name="kdenlive:original.meta.media.0.stream.sample_aspect_ratio">0</property>
  <property name="kdenlive:original.meta.media.0.codec.width">3840</property>
  <property name="kdenlive:original.meta.media.0.codec.height">2160</property>
  <property name="kdenlive:original.meta.media.0.codec.rotate">0</property>
  <property name="kdenlive:original.meta.media.0.codec.frame_rate">60</property>
  <property name="kdenlive:original.meta.media.0.codec.pix_fmt">yuv420p</property>
  <property name="kdenlive:original.meta.media.0.codec.sample_aspect_ratio">0</property>
  <property name="kdenlive:original.meta.media.0.codec.colorspace">709</property>
  <property name="kdenlive:original.meta.media.0.codec.name">h264</property>
  <property name="kdenlive:original.meta.media.0.codec.long_name">H.264 / AVC / MPEG-4 AVC / MPEG-4 part 10</property>
  <property name="kdenlive:original.meta.media.0.codec.bit_rate">917508</property>
  <property name="kdenlive:original.meta.attr.0.stream.handler_name.markup">VideoHandler</property>
  <property name="kdenlive:original.meta.attr.0.stream.vendor_id.markup">[0][0][0][0]</property>
  <property name="kdenlive:original.meta.attr.major_brand.markup">isom</property>
  <property name="kdenlive:original.meta.attr.minor_version.markup">512</property>
  <property name="kdenlive:original.meta.attr.compatible_brands.markup">isomiso2avc1mp41</property>
  <property name="kdenlive:original.meta.attr.encoder.markup">Lavf58.76.100</property>
  <property name="kdenlive:original.meta.attr.comment.markup">Rendered with Manim Community v0.6.0</property>
  <property name="kdenlive:original.seekable">1</property>
  <property name="kdenlive:original.width">3840</property>
  <property name="kdenlive:original.height">2160</property>
  <property name="kdenlive:original.meta.media.sample_aspect_num">1</property>
  <property name="kdenlive:original.meta.media.sample_aspect_den">1</property>
  <property name="kdenlive:original.aspect_ratio">1</property>
  <property name="kdenlive:original.audio_index">-1</property>
  <property name="kdenlive:original.video_index">0</property>
  <property name="kdenlive:original.mute_on_pause">1</property>
  <property name="kdenlive:original.mlt_service">avformat</property>
  <property name="kdenlive:original.meta.media.frame_rate_num">60</property>
  <property name="kdenlive:original.meta.media.frame_rate_den">1</property>
  <property name="kdenlive:original.meta.media.colorspace">709</property>
  <property name="kdenlive:original.meta.media.color_trc">2</property>
  <property name="kdenlive:original.meta.media.width">3840</property>
  <property name="kdenlive:original.meta.media.height">2160</property>
  <property name="kdenlive:original.meta.media.color_range">mpeg</property>
  <property name="kdenlive:original.meta.media.top_field_first">0</property>
  <property name="kdenlive:original.meta.media.progressive">1</property>
  <property name="kdenlive:original.backup">1</property>
 </producer>
 <producer id="producer286" in="00:00:00.000" out="00:00:04.983">
  <property name="length">00:00:05.000</property>
  <property name="eof">pause</property>
  <property name="resource">/home/xiaoxiae/.cache/kdenlive/proxy/90910a3944ff118badcd1abb0626271b.png</property>
  <property name="ttl">25</property>
  <property name="aspect_ratio">1</property>
  <property name="progressive">1</property>
  <property name="seekable">1</property>
  <property name="meta.media.width">800</property>
  <property name="meta.media.height">450</property>
  <property name="mlt_service">qimage</property>
  <property name="kdenlive:clipname">8.png</property>
  <property name="kdenlive:duration">00:00:05.000</property>
  <property name="kdenlive:folderid">209</property>
  <property name="kdenlive:id">251</property>
  <property name="kdenlive:file_size">615907</property>
  <property name="kdenlive:file_hash">90910a3944ff118badcd1abb0626271b</property>
  <property name="kdenlive:proxy">/home/xiaoxiae/.cache/kdenlive/proxy/90910a3944ff118badcd1abb0626271b.png</property>
  <property name="kdenlive:originalurl">video/Lemma1/8.png</property>
  <property name="global_feed">1</property>
  <property name="kdenlive:original.mlt_type">producer</property>
  <property name="kdenlive:original.in">0</property>
  <property name="kdenlive:original.out">14999</property>
  <property name="kdenlive:original.length">15000</property>
  <property name="kdenlive:original.eof">pause</property>
  <property name="kdenlive:original.resource">video/Lemma1/8.png</property>
  <property name="kdenlive:original.ttl">25</property>
  <property name="kdenlive:original.aspect_ratio">1</property>
  <property name="kdenlive:original.progressive">1</property>
  <property name="kdenlive:original.seekable">1</property>
  <property name="kdenlive:original.meta.media.width">3840</property>
  <property name="kdenlive:original.meta.media.height">2160</property>
  <property name="kdenlive:original.mlt_service">qimage</property>
  <property name="kdenlive:original.backup">1</property>
 </producer>
 <producer id="producer283" in="00:00:00.000" out="00:00:00.983">
  <property name="length">60</property>
  <property name="eof">pause</property>
  <property name="resource">/home/xiaoxiae/.cache/kdenlive/proxy/ac777e3c7188d2ad21d76823b29fd27a.mkv</property>
  <property name="audio_index">-1</property>
  <property name="video_index">0</property>
  <property name="mute_on_pause">0</property>
  <property name="mlt_service">avformat-novalidate</property>
  <property name="seekable">1</property>
  <property name="aspect_ratio">1</property>
  <property name="kdenlive:clipname">9.mp4</property>
  <property name="kdenlive:folderid">209</property>
  <property name="kdenlive:id">252</property>
  <property name="kdenlive:file_size">176187</property>
  <property name="kdenlive:file_hash">ac777e3c7188d2ad21d76823b29fd27a</property>
  <property name="kdenlive:proxy">/home/xiaoxiae/.cache/kdenlive/proxy/ac777e3c7188d2ad21d76823b29fd27a.mkv</property>
  <property name="kdenlive:originalurl">video/Lemma1/9.mp4</property>
  <property name="global_feed">1</property>
  <property name="meta.media.nb_streams">1</property>
  <property name="meta.media.0.stream.type">video</property>
  <property name="meta.media.0.stream.frame_rate">60</property>
  <property name="meta.media.0.stream.sample_aspect_ratio">0</property>
  <property name="meta.media.0.codec.width">640</property>
  <property name="meta.media.0.codec.height">360</property>
  <property name="meta.media.0.codec.rotate">0</property>
  <property name="meta.media.0.codec.frame_rate">60</property>
  <property name="meta.media.0.codec.pix_fmt">yuv420p</property>
  <property name="meta.media.0.codec.sample_aspect_ratio">0</property>
  <property name="meta.media.0.codec.colorspace">601</property>
  <property name="meta.media.0.codec.name">h264</property>
  <property name="meta.media.0.codec.long_name">H.264 / AVC / MPEG-4 AVC / MPEG-4 part 10</property>
  <property name="meta.media.0.codec.bit_rate">0</property>
  <property name="meta.attr.0.stream.HANDLER_NAME.markup">VideoHandler</property>
  <property name="meta.attr.0.stream.VENDOR_ID.markup">[0][0][0][0]</property>
  <property name="meta.attr.0.stream.ENCODER.markup">Lavc58.134.100 libx264</property>
  <property name="meta.attr.0.stream.DURATION.markup">00:00:01.000000000</property>
  <property name="meta.attr.COMMENT.markup">Rendered with Manim Community v0.6.0</property>
  <property name="meta.attr.MAJOR_BRAND.markup">isom</property>
  <property name="meta.attr.MINOR_VERSION.markup">512</property>
  <property name="meta.attr.COMPATIBLE_BRANDS.markup">isomiso2avc1mp41</property>
  <property name="meta.attr.ENCODER.markup">Lavf58.76.100</property>
  <property name="meta.media.sample_aspect_num">1</property>
  <property name="meta.media.sample_aspect_den">1</property>
  <property name="meta.media.frame_rate_num">60</property>
  <property name="meta.media.frame_rate_den">1</property>
  <property name="meta.media.colorspace">601</property>
  <property name="meta.media.color_trc">2</property>
  <property name="meta.media.width">640</property>
  <property name="meta.media.height">360</property>
  <property name="meta.media.color_range">mpeg</property>
  <property name="meta.media.top_field_first">0</property>
  <property name="meta.media.progressive">1</property>
  <property name="kdenlive:original.mlt_type">producer</property>
  <property name="kdenlive:original.in">0</property>
  <property name="kdenlive:original.out">59</property>
  <property name="kdenlive:original.length">60</property>
  <property name="kdenlive:original.eof">pause</property>
  <property name="kdenlive:original.resource">video/Lemma1/9.mp4</property>
  <property name="kdenlive:original.meta.media.nb_streams">1</property>
  <property name="kdenlive:original.meta.media.0.stream.type">video</property>
  <property name="kdenlive:original.meta.media.0.stream.frame_rate">60</property>
  <property name="kdenlive:original.meta.media.0.stream.sample_aspect_ratio">0</property>
  <property name="kdenlive:original.meta.media.0.codec.width">3840</property>
  <property name="kdenlive:original.meta.media.0.codec.height">2160</property>
  <property name="kdenlive:original.meta.media.0.codec.rotate">0</property>
  <property name="kdenlive:original.meta.media.0.codec.frame_rate">60</property>
  <property name="kdenlive:original.meta.media.0.codec.pix_fmt">yuv420p</property>
  <property name="kdenlive:original.meta.media.0.codec.sample_aspect_ratio">0</property>
  <property name="kdenlive:original.meta.media.0.codec.colorspace">709</property>
  <property name="kdenlive:original.meta.media.0.codec.name">h264</property>
  <property name="kdenlive:original.meta.media.0.codec.long_name">H.264 / AVC / MPEG-4 AVC / MPEG-4 part 10</property>
  <property name="kdenlive:original.meta.media.0.codec.bit_rate">1396448</property>
  <property name="kdenlive:original.meta.attr.0.stream.handler_name.markup">VideoHandler</property>
  <property name="kdenlive:original.meta.attr.0.stream.vendor_id.markup">[0][0][0][0]</property>
  <property name="kdenlive:original.meta.attr.major_brand.markup">isom</property>
  <property name="kdenlive:original.meta.attr.minor_version.markup">512</property>
  <property name="kdenlive:original.meta.attr.compatible_brands.markup">isomiso2avc1mp41</property>
  <property name="kdenlive:original.meta.attr.encoder.markup">Lavf58.76.100</property>
  <property name="kdenlive:original.meta.attr.comment.markup">Rendered with Manim Community v0.6.0</property>
  <property name="kdenlive:original.seekable">1</property>
  <property name="kdenlive:original.width">3840</property>
  <property name="kdenlive:original.height">2160</property>
  <property name="kdenlive:original.meta.media.sample_aspect_num">1</property>
  <property name="kdenlive:original.meta.media.sample_aspect_den">1</property>
  <property name="kdenlive:original.aspect_ratio">1</property>
  <property name="kdenlive:original.audio_index">-1</property>
  <property name="kdenlive:original.video_index">0</property>
  <property name="kdenlive:original.mute_on_pause">1</property>
  <property name="kdenlive:original.mlt_service">avformat</property>
  <property name="kdenlive:original.meta.media.frame_rate_num">60</property>
  <property name="kdenlive:original.meta.media.frame_rate_den">1</property>
  <property name="kdenlive:original.meta.media.colorspace">709</property>
  <property name="kdenlive:original.meta.media.color_trc">2</property>
  <property name="kdenlive:original.meta.media.width">3840</property>
  <property name="kdenlive:original.meta.media.height">2160</property>
  <property name="kdenlive:original.meta.media.color_range">mpeg</property>
  <property name="kdenlive:original.meta.media.top_field_first">0</property>
  <property name="kdenlive:original.meta.media.progressive">1</property>
  <property name="kdenlive:original.backup">1</property>
 </producer>
 <producer id="producer287" in="00:00:00.000" out="00:00:04.983">
  <property name="length">00:00:05.000</property>
  <property name="eof">pause</property>
  <property name="resource">/home/xiaoxiae/.cache/kdenlive/proxy/ff7ad65336346f0b06d79f658492d27b.png</property>
  <property name="ttl">25</property>
  <property name="aspect_ratio">1</property>
  <property name="progressive">1</property>
  <property name="seekable">1</property>
  <property name="meta.media.width">800</property>
  <property name="meta.media.height">450</property>
  <property name="mlt_service">qimage</property>
  <property name="kdenlive:clipname">9.png</property>
  <property name="kdenlive:duration">00:00:05.000</property>
  <property name="kdenlive:folderid">209</property>
  <property name="kdenlive:id">253</property>
  <property name="kdenlive:file_size">653051</property>
  <property name="kdenlive:file_hash">ff7ad65336346f0b06d79f658492d27b</property>
  <property name="kdenlive:proxy">/home/xiaoxiae/.cache/kdenlive/proxy/ff7ad65336346f0b06d79f658492d27b.png</property>
  <property name="kdenlive:originalurl">video/Lemma1/9.png</property>
  <property name="global_feed">1</property>
  <property name="kdenlive:original.mlt_type">producer</property>
  <property name="kdenlive:original.in">0</property>
  <property name="kdenlive:original.out">14999</property>
  <property name="kdenlive:original.length">15000</property>
  <property name="kdenlive:original.eof">pause</property>
  <property name="kdenlive:original.resource">video/Lemma1/9.png</property>
  <property name="kdenlive:original.ttl">25</property>
  <property name="kdenlive:original.aspect_ratio">1</property>
  <property name="kdenlive:original.progressive">1</property>
  <property name="kdenlive:original.seekable">1</property>
  <property name="kdenlive:original.meta.media.width">3840</property>
  <property name="kdenlive:original.meta.media.height">2160</property>
  <property name="kdenlive:original.mlt_service">qimage</property>
  <property name="kdenlive:original.backup">1</property>
 </producer>
 <producer id="producer290" in="00:00:00.000" out="00:00:00.983">
  <property name="length">60</property>
  <property name="eof">pause</property>
  <property name="resource">/home/xiaoxiae/.cache/kdenlive/proxy/6346117d294ce3147616173d3618e956.mkv</property>
  <property name="audio_index">-1</property>
  <property name="video_index">0</property>
  <property name="mute_on_pause">0</property>
  <property name="mlt_service">avformat-novalidate</property>
  <property name="seekable">1</property>
  <property name="aspect_ratio">1</property>
  <property name="kdenlive:clipname">1.mp4</property>
  <property name="kdenlive:folderid">277</property>
  <property name="kdenlive:id">254</property>
  <property name="kdenlive:file_size">64388</property>
  <property name="kdenlive:file_hash">6346117d294ce3147616173d3618e956</property>
  <property name="kdenlive:proxy">/home/xiaoxiae/.cache/kdenlive/proxy/6346117d294ce3147616173d3618e956.mkv</property>
  <property name="kdenlive:originalurl">video/Observations/1.mp4</property>
  <property name="global_feed">1</property>
  <property name="meta.media.nb_streams">1</property>
  <property name="meta.media.0.stream.type">video</property>
  <property name="meta.media.0.stream.frame_rate">60</property>
  <property name="meta.media.0.stream.sample_aspect_ratio">0</property>
  <property name="meta.media.0.codec.width">640</property>
  <property name="meta.media.0.codec.height">360</property>
  <property name="meta.media.0.codec.rotate">0</property>
  <property name="meta.media.0.codec.frame_rate">60</property>
  <property name="meta.media.0.codec.pix_fmt">yuv420p</property>
  <property name="meta.media.0.codec.sample_aspect_ratio">0</property>
  <property name="meta.media.0.codec.colorspace">601</property>
  <property name="meta.media.0.codec.name">h264</property>
  <property name="meta.media.0.codec.long_name">H.264 / AVC / MPEG-4 AVC / MPEG-4 part 10</property>
  <property name="meta.media.0.codec.bit_rate">0</property>
  <property name="meta.attr.0.stream.HANDLER_NAME.markup">VideoHandler</property>
  <property name="meta.attr.0.stream.VENDOR_ID.markup">[0][0][0][0]</property>
  <property name="meta.attr.0.stream.ENCODER.markup">Lavc58.134.100 libx264</property>
  <property name="meta.attr.0.stream.DURATION.markup">00:00:01.000000000</property>
  <property name="meta.attr.COMMENT.markup">Rendered with Manim Community v0.6.0</property>
  <property name="meta.attr.MAJOR_BRAND.markup">isom</property>
  <property name="meta.attr.MINOR_VERSION.markup">512</property>
  <property name="meta.attr.COMPATIBLE_BRANDS.markup">isomiso2avc1mp41</property>
  <property name="meta.attr.ENCODER.markup">Lavf58.76.100</property>
  <property name="meta.media.sample_aspect_num">1</property>
  <property name="meta.media.sample_aspect_den">1</property>
  <property name="meta.media.frame_rate_num">60</property>
  <property name="meta.media.frame_rate_den">1</property>
  <property name="meta.media.colorspace">601</property>
  <property name="meta.media.color_trc">2</property>
  <property name="meta.media.width">640</property>
  <property name="meta.media.height">360</property>
  <property name="meta.media.color_range">mpeg</property>
  <property name="meta.media.top_field_first">0</property>
  <property name="meta.media.progressive">1</property>
  <property name="kdenlive:original.mlt_type">producer</property>
  <property name="kdenlive:original.in">0</property>
  <property name="kdenlive:original.out">59</property>
  <property name="kdenlive:original.length">60</property>
  <property name="kdenlive:original.eof">pause</property>
  <property name="kdenlive:original.resource">video/Observations/1.mp4</property>
  <property name="kdenlive:original.meta.media.nb_streams">1</property>
  <property name="kdenlive:original.meta.media.0.stream.type">video</property>
  <property name="kdenlive:original.meta.media.0.stream.frame_rate">60</property>
  <property name="kdenlive:original.meta.media.0.stream.sample_aspect_ratio">0</property>
  <property name="kdenlive:original.meta.media.0.codec.width">3840</property>
  <property name="kdenlive:original.meta.media.0.codec.height">2160</property>
  <property name="kdenlive:original.meta.media.0.codec.rotate">0</property>
  <property name="kdenlive:original.meta.media.0.codec.frame_rate">60</property>
  <property name="kdenlive:original.meta.media.0.codec.pix_fmt">yuv420p</property>
  <property name="kdenlive:original.meta.media.0.codec.sample_aspect_ratio">0</property>
  <property name="kdenlive:original.meta.media.0.codec.colorspace">709</property>
  <property name="kdenlive:original.meta.media.0.codec.name">h264</property>
  <property name="kdenlive:original.meta.media.0.codec.long_name">H.264 / AVC / MPEG-4 AVC / MPEG-4 part 10</property>
  <property name="kdenlive:original.meta.media.0.codec.bit_rate">501992</property>
  <property name="kdenlive:original.meta.attr.0.stream.handler_name.markup">VideoHandler</property>
  <property name="kdenlive:original.meta.attr.0.stream.vendor_id.markup">[0][0][0][0]</property>
  <property name="kdenlive:original.meta.attr.major_brand.markup">isom</property>
  <property name="kdenlive:original.meta.attr.minor_version.markup">512</property>
  <property name="kdenlive:original.meta.attr.compatible_brands.markup">isomiso2avc1mp41</property>
  <property name="kdenlive:original.meta.attr.encoder.markup">Lavf58.76.100</property>
  <property name="kdenlive:original.meta.attr.comment.markup">Rendered with Manim Community v0.6.0</property>
  <property name="kdenlive:original.seekable">1</property>
  <property name="kdenlive:original.width">3840</property>
  <property name="kdenlive:original.height">2160</property>
  <property name="kdenlive:original.meta.media.sample_aspect_num">1</property>
  <property name="kdenlive:original.meta.media.sample_aspect_den">1</property>
  <property name="kdenlive:original.aspect_ratio">1</property>
  <property name="kdenlive:original.audio_index">-1</property>
  <property name="kdenlive:original.video_index">0</property>
  <property name="kdenlive:original.mute_on_pause">1</property>
  <property name="kdenlive:original.mlt_service">avformat</property>
  <property name="kdenlive:original.meta.media.frame_rate_num">60</property>
  <property name="kdenlive:original.meta.media.frame_rate_den">1</property>
  <property name="kdenlive:original.meta.media.colorspace">709</property>
  <property name="kdenlive:original.meta.media.color_trc">2</property>
  <property name="kdenlive:original.meta.media.width">3840</property>
  <property name="kdenlive:original.meta.media.height">2160</property>
  <property name="kdenlive:original.meta.media.color_range">mpeg</property>
  <property name="kdenlive:original.meta.media.top_field_first">0</property>
  <property name="kdenlive:original.meta.media.progressive">1</property>
  <property name="kdenlive:original.backup">1</property>
 </producer>
 <producer id="producer289" in="00:00:00.000" out="00:00:07.583">
  <property name="length">456</property>
  <property name="eof">pause</property>
  <property name="resource">/home/xiaoxiae/.cache/kdenlive/proxy/0381b097588f106ae6a1475dd40ddcf5.png</property>
  <property name="ttl">25</property>
  <property name="aspect_ratio">1</property>
  <property name="progressive">1</property>
  <property name="seekable">1</property>
  <property name="meta.media.width">800</property>
  <property name="meta.media.height">450</property>
  <property name="mlt_service">qimage</property>
  <property name="kdenlive:clipname">1.png</property>
  <property name="kdenlive:duration">00:00:05.000</property>
  <property name="kdenlive:folderid">277</property>
  <property name="kdenlive:id">255</property>
  <property name="kdenlive:file_size">78668</property>
  <property name="kdenlive:file_hash">0381b097588f106ae6a1475dd40ddcf5</property>
  <property name="kdenlive:proxy">/home/xiaoxiae/.cache/kdenlive/proxy/0381b097588f106ae6a1475dd40ddcf5.png</property>
  <property name="kdenlive:originalurl">video/Observations/1.png</property>
  <property name="global_feed">1</property>
  <property name="kdenlive:original.mlt_type">producer</property>
  <property name="kdenlive:original.in">0</property>
  <property name="kdenlive:original.out">14999</property>
  <property name="kdenlive:original.length">15000</property>
  <property name="kdenlive:original.eof">pause</property>
  <property name="kdenlive:original.resource">video/Observations/1.png</property>
  <property name="kdenlive:original.ttl">25</property>
  <property name="kdenlive:original.aspect_ratio">1</property>
  <property name="kdenlive:original.progressive">1</property>
  <property name="kdenlive:original.seekable">1</property>
  <property name="kdenlive:original.meta.media.width">3840</property>
  <property name="kdenlive:original.meta.media.height">2160</property>
  <property name="kdenlive:original.mlt_service">qimage</property>
  <property name="kdenlive:original.backup">1</property>
 </producer>
 <producer id="producer291" in="00:00:00.000" out="00:00:00.983">
  <property name="length">60</property>
  <property name="eof">pause</property>
  <property name="resource">/home/xiaoxiae/.cache/kdenlive/proxy/bc916d17fb1a050ff14f87958142ccad.mkv</property>
  <property name="audio_index">-1</property>
  <property name="video_index">0</property>
  <property name="mute_on_pause">0</property>
  <property name="mlt_service">avformat-novalidate</property>
  <property name="seekable">1</property>
  <property name="aspect_ratio">1</property>
  <property name="kdenlive:clipname">10.mp4</property>
  <property name="kdenlive:folderid">277</property>
  <property name="kdenlive:id">256</property>
  <property name="kdenlive:file_size">127385</property>
  <property name="kdenlive:file_hash">bc916d17fb1a050ff14f87958142ccad</property>
  <property name="kdenlive:proxy">/home/xiaoxiae/.cache/kdenlive/proxy/bc916d17fb1a050ff14f87958142ccad.mkv</property>
  <property name="kdenlive:originalurl">video/Observations/10.mp4</property>
  <property name="global_feed">1</property>
  <property name="meta.media.nb_streams">1</property>
  <property name="meta.media.0.stream.type">video</property>
  <property name="meta.media.0.stream.frame_rate">60</property>
  <property name="meta.media.0.stream.sample_aspect_ratio">0</property>
  <property name="meta.media.0.codec.width">640</property>
  <property name="meta.media.0.codec.height">360</property>
  <property name="meta.media.0.codec.rotate">0</property>
  <property name="meta.media.0.codec.frame_rate">60</property>
  <property name="meta.media.0.codec.pix_fmt">yuv420p</property>
  <property name="meta.media.0.codec.sample_aspect_ratio">0</property>
  <property name="meta.media.0.codec.colorspace">601</property>
  <property name="meta.media.0.codec.name">h264</property>
  <property name="meta.media.0.codec.long_name">H.264 / AVC / MPEG-4 AVC / MPEG-4 part 10</property>
  <property name="meta.media.0.codec.bit_rate">0</property>
  <property name="meta.attr.0.stream.HANDLER_NAME.markup">VideoHandler</property>
  <property name="meta.attr.0.stream.VENDOR_ID.markup">[0][0][0][0]</property>
  <property name="meta.attr.0.stream.ENCODER.markup">Lavc58.134.100 libx264</property>
  <property name="meta.attr.0.stream.DURATION.markup">00:00:01.000000000</property>
  <property name="meta.attr.COMMENT.markup">Rendered with Manim Community v0.6.0</property>
  <property name="meta.attr.MAJOR_BRAND.markup">isom</property>
  <property name="meta.attr.MINOR_VERSION.markup">512</property>
  <property name="meta.attr.COMPATIBLE_BRANDS.markup">isomiso2avc1mp41</property>
  <property name="meta.attr.ENCODER.markup">Lavf58.76.100</property>
  <property name="meta.media.sample_aspect_num">1</property>
  <property name="meta.media.sample_aspect_den">1</property>
  <property name="meta.media.frame_rate_num">60</property>
  <property name="meta.media.frame_rate_den">1</property>
  <property name="meta.media.colorspace">601</property>
  <property name="meta.media.color_trc">2</property>
  <property name="meta.media.width">640</property>
  <property name="meta.media.height">360</property>
  <property name="meta.media.color_range">mpeg</property>
  <property name="meta.media.top_field_first">0</property>
  <property name="meta.media.progressive">1</property>
  <property name="kdenlive:original.mlt_type">producer</property>
  <property name="kdenlive:original.in">0</property>
  <property name="kdenlive:original.out">59</property>
  <property name="kdenlive:original.length">60</property>
  <property name="kdenlive:original.eof">pause</property>
  <property name="kdenlive:original.resource">video/Observations/10.mp4</property>
  <property name="kdenlive:original.meta.media.nb_streams">1</property>
  <property name="kdenlive:original.meta.media.0.stream.type">video</property>
  <property name="kdenlive:original.meta.media.0.stream.frame_rate">60</property>
  <property name="kdenlive:original.meta.media.0.stream.sample_aspect_ratio">0</property>
  <property name="kdenlive:original.meta.media.0.codec.width">3840</property>
  <property name="kdenlive:original.meta.media.0.codec.height">2160</property>
  <property name="kdenlive:original.meta.media.0.codec.rotate">0</property>
  <property name="kdenlive:original.meta.media.0.codec.frame_rate">60</property>
  <property name="kdenlive:original.meta.media.0.codec.pix_fmt">yuv420p</property>
  <property name="kdenlive:original.meta.media.0.codec.sample_aspect_ratio">0</property>
  <property name="kdenlive:original.meta.media.0.codec.colorspace">709</property>
  <property name="kdenlive:original.meta.media.0.codec.name">h264</property>
  <property name="kdenlive:original.meta.media.0.codec.long_name">H.264 / AVC / MPEG-4 AVC / MPEG-4 part 10</property>
  <property name="kdenlive:original.meta.media.0.codec.bit_rate">1006032</property>
  <property name="kdenlive:original.meta.attr.0.stream.handler_name.markup">VideoHandler</property>
  <property name="kdenlive:original.meta.attr.0.stream.vendor_id.markup">[0][0][0][0]</property>
  <property name="kdenlive:original.meta.attr.major_brand.markup">isom</property>
  <property name="kdenlive:original.meta.attr.minor_version.markup">512</property>
  <property name="kdenlive:original.meta.attr.compatible_brands.markup">isomiso2avc1mp41</property>
  <property name="kdenlive:original.meta.attr.encoder.markup">Lavf58.76.100</property>
  <property name="kdenlive:original.meta.attr.comment.markup">Rendered with Manim Community v0.6.0</property>
  <property name="kdenlive:original.seekable">1</property>
  <property name="kdenlive:original.width">3840</property>
  <property name="kdenlive:original.height">2160</property>
  <property name="kdenlive:original.meta.media.sample_aspect_num">1</property>
  <property name="kdenlive:original.meta.media.sample_aspect_den">1</property>
  <property name="kdenlive:original.aspect_ratio">1</property>
  <property name="kdenlive:original.audio_index">-1</property>
  <property name="kdenlive:original.video_index">0</property>
  <property name="kdenlive:original.mute_on_pause">1</property>
  <property name="kdenlive:original.mlt_service">avformat</property>
  <property name="kdenlive:original.meta.media.frame_rate_num">60</property>
  <property name="kdenlive:original.meta.media.frame_rate_den">1</property>
  <property name="kdenlive:original.meta.media.colorspace">709</property>
  <property name="kdenlive:original.meta.media.color_trc">2</property>
  <property name="kdenlive:original.meta.media.width">3840</property>
  <property name="kdenlive:original.meta.media.height">2160</property>
  <property name="kdenlive:original.meta.media.color_range">mpeg</property>
  <property name="kdenlive:original.meta.media.top_field_first">0</property>
  <property name="kdenlive:original.meta.media.progressive">1</property>
  <property name="kdenlive:original.backup">1</property>
 </producer>
 <producer id="producer293" in="00:00:00.000" out="00:00:04.983">
  <property name="length">00:00:05.000</property>
  <property name="eof">pause</property>
  <property name="resource">/home/xiaoxiae/.cache/kdenlive/proxy/1384ed1d8b419500ce28079768e77e31.png</property>
  <property name="ttl">25</property>
  <property name="aspect_ratio">1</property>
  <property name="progressive">1</property>
  <property name="seekable">1</property>
  <property name="meta.media.width">800</property>
  <property name="meta.media.height">450</property>
  <property name="mlt_service">qimage</property>
  <property name="kdenlive:clipname">10.png</property>
  <property name="kdenlive:duration">00:00:05.000</property>
  <property name="kdenlive:folderid">277</property>
  <property name="kdenlive:id">257</property>
  <property name="kdenlive:file_size">342808</property>
  <property name="kdenlive:file_hash">1384ed1d8b419500ce28079768e77e31</property>
  <property name="kdenlive:proxy">/home/xiaoxiae/.cache/kdenlive/proxy/1384ed1d8b419500ce28079768e77e31.png</property>
  <property name="kdenlive:originalurl">video/Observations/10.png</property>
  <property name="global_feed">1</property>
 </producer>
 <producer id="producer292" in="00:00:00.000" out="00:00:00.983">
  <property name="length">60</property>
  <property name="eof">pause</property>
  <property name="resource">/home/xiaoxiae/.cache/kdenlive/proxy/7e16e3392c13e799f095c2589391a7e1.mkv</property>
  <property name="audio_index">-1</property>
  <property name="video_index">0</property>
  <property name="mute_on_pause">0</property>
  <property name="mlt_service">avformat-novalidate</property>
  <property name="seekable">1</property>
  <property name="aspect_ratio">1</property>
  <property name="kdenlive:clipname">11.mp4</property>
  <property name="kdenlive:folderid">277</property>
  <property name="kdenlive:id">258</property>
  <property name="kdenlive:file_size">94190</property>
  <property name="kdenlive:file_hash">7e16e3392c13e799f095c2589391a7e1</property>
  <property name="kdenlive:proxy">/home/xiaoxiae/.cache/kdenlive/proxy/7e16e3392c13e799f095c2589391a7e1.mkv</property>
  <property name="kdenlive:originalurl">video/Observations/11.mp4</property>
  <property name="global_feed">1</property>
  <property name="meta.media.nb_streams">1</property>
  <property name="meta.media.0.stream.type">video</property>
  <property name="meta.media.0.stream.frame_rate">60</property>
  <property name="meta.media.0.stream.sample_aspect_ratio">0</property>
  <property name="meta.media.0.codec.width">640</property>
  <property name="meta.media.0.codec.height">360</property>
  <property name="meta.media.0.codec.rotate">0</property>
  <property name="meta.media.0.codec.frame_rate">60</property>
  <property name="meta.media.0.codec.pix_fmt">yuv420p</property>
  <property name="meta.media.0.codec.sample_aspect_ratio">0</property>
  <property name="meta.media.0.codec.colorspace">601</property>
  <property name="meta.media.0.codec.name">h264</property>
  <property name="meta.media.0.codec.long_name">H.264 / AVC / MPEG-4 AVC / MPEG-4 part 10</property>
  <property name="meta.media.0.codec.bit_rate">0</property>
  <property name="meta.attr.0.stream.HANDLER_NAME.markup">VideoHandler</property>
  <property name="meta.attr.0.stream.VENDOR_ID.markup">[0][0][0][0]</property>
  <property name="meta.attr.0.stream.ENCODER.markup">Lavc58.134.100 libx264</property>
  <property name="meta.attr.0.stream.DURATION.markup">00:00:01.000000000</property>
  <property name="meta.attr.COMMENT.markup">Rendered with Manim Community v0.6.0</property>
  <property name="meta.attr.MAJOR_BRAND.markup">isom</property>
  <property name="meta.attr.MINOR_VERSION.markup">512</property>
  <property name="meta.attr.COMPATIBLE_BRANDS.markup">isomiso2avc1mp41</property>
  <property name="meta.attr.ENCODER.markup">Lavf58.76.100</property>
  <property name="meta.media.sample_aspect_num">1</property>
  <property name="meta.media.sample_aspect_den">1</property>
  <property name="meta.media.frame_rate_num">60</property>
  <property name="meta.media.frame_rate_den">1</property>
  <property name="meta.media.colorspace">601</property>
  <property name="meta.media.color_trc">2</property>
  <property name="meta.media.width">640</property>
  <property name="meta.media.height">360</property>
  <property name="meta.media.color_range">mpeg</property>
  <property name="meta.media.top_field_first">0</property>
  <property name="meta.media.progressive">1</property>
  <property name="kdenlive:original.mlt_type">producer</property>
  <property name="kdenlive:original.in">0</property>
  <property name="kdenlive:original.out">59</property>
  <property name="kdenlive:original.length">60</property>
  <property name="kdenlive:original.eof">pause</property>
  <property name="kdenlive:original.resource">video/Observations/11.mp4</property>
  <property name="kdenlive:original.meta.media.nb_streams">1</property>
  <property name="kdenlive:original.meta.media.0.stream.type">video</property>
  <property name="kdenlive:original.meta.media.0.stream.frame_rate">60</property>
  <property name="kdenlive:original.meta.media.0.stream.sample_aspect_ratio">0</property>
  <property name="kdenlive:original.meta.media.0.codec.width">3840</property>
  <property name="kdenlive:original.meta.media.0.codec.height">2160</property>
  <property name="kdenlive:original.meta.media.0.codec.rotate">0</property>
  <property name="kdenlive:original.meta.media.0.codec.frame_rate">60</property>
  <property name="kdenlive:original.meta.media.0.codec.pix_fmt">yuv420p</property>
  <property name="kdenlive:original.meta.media.0.codec.sample_aspect_ratio">0</property>
  <property name="kdenlive:original.meta.media.0.codec.colorspace">709</property>
  <property name="kdenlive:original.meta.media.0.codec.name">h264</property>
  <property name="kdenlive:original.meta.media.0.codec.long_name">H.264 / AVC / MPEG-4 AVC / MPEG-4 part 10</property>
  <property name="kdenlive:original.meta.media.0.codec.bit_rate">740472</property>
  <property name="kdenlive:original.meta.attr.0.stream.handler_name.markup">VideoHandler</property>
  <property name="kdenlive:original.meta.attr.0.stream.vendor_id.markup">[0][0][0][0]</property>
  <property name="kdenlive:original.meta.attr.major_brand.markup">isom</property>
  <property name="kdenlive:original.meta.attr.minor_version.markup">512</property>
  <property name="kdenlive:original.meta.attr.compatible_brands.markup">isomiso2avc1mp41</property>
  <property name="kdenlive:original.meta.attr.encoder.markup">Lavf58.76.100</property>
  <property name="kdenlive:original.meta.attr.comment.markup">Rendered with Manim Community v0.6.0</property>
  <property name="kdenlive:original.seekable">1</property>
  <property name="kdenlive:original.width">3840</property>
  <property name="kdenlive:original.height">2160</property>
  <property name="kdenlive:original.meta.media.sample_aspect_num">1</property>
  <property name="kdenlive:original.meta.media.sample_aspect_den">1</property>
  <property name="kdenlive:original.aspect_ratio">1</property>
  <property name="kdenlive:original.audio_index">-1</property>
  <property name="kdenlive:original.video_index">0</property>
  <property name="kdenlive:original.mute_on_pause">1</property>
  <property name="kdenlive:original.mlt_service">avformat</property>
  <property name="kdenlive:original.meta.media.frame_rate_num">60</property>
  <property name="kdenlive:original.meta.media.frame_rate_den">1</property>
  <property name="kdenlive:original.meta.media.colorspace">709</property>
  <property name="kdenlive:original.meta.media.color_trc">2</property>
  <property name="kdenlive:original.meta.media.width">3840</property>
  <property name="kdenlive:original.meta.media.height">2160</property>
  <property name="kdenlive:original.meta.media.color_range">mpeg</property>
  <property name="kdenlive:original.meta.media.top_field_first">0</property>
  <property name="kdenlive:original.meta.media.progressive">1</property>
  <property name="kdenlive:original.backup">1</property>
 </producer>
 <producer id="producer294" in="00:00:00.000" out="00:00:04.983">
  <property name="length">00:00:05.000</property>
  <property name="eof">pause</property>
  <property name="resource">/home/xiaoxiae/.cache/kdenlive/proxy/786139212802fdb3392a45214149a3de.png</property>
  <property name="ttl">25</property>
  <property name="aspect_ratio">1</property>
  <property name="progressive">1</property>
  <property name="seekable">1</property>
  <property name="meta.media.width">800</property>
  <property name="meta.media.height">450</property>
  <property name="mlt_service">qimage</property>
  <property name="kdenlive:clipname">11.png</property>
  <property name="kdenlive:duration">00:00:05.000</property>
  <property name="kdenlive:folderid">277</property>
  <property name="kdenlive:id">259</property>
  <property name="kdenlive:file_size">340561</property>
  <property name="kdenlive:file_hash">786139212802fdb3392a45214149a3de</property>
  <property name="kdenlive:proxy">/home/xiaoxiae/.cache/kdenlive/proxy/786139212802fdb3392a45214149a3de.png</property>
  <property name="kdenlive:originalurl">video/Observations/11.png</property>
  <property name="global_feed">1</property>
 </producer>
 <producer id="producer295" in="00:00:00.000" out="00:00:00.983">
  <property name="length">60</property>
  <property name="eof">pause</property>
  <property name="resource">/home/xiaoxiae/.cache/kdenlive/proxy/af899b5a2b8fee4af9847a53d7223be9.mkv</property>
  <property name="audio_index">-1</property>
  <property name="video_index">0</property>
  <property name="mute_on_pause">0</property>
  <property name="mlt_service">avformat-novalidate</property>
  <property name="seekable">1</property>
  <property name="aspect_ratio">1</property>
  <property name="kdenlive:clipname">12.mp4</property>
  <property name="kdenlive:folderid">277</property>
  <property name="kdenlive:id">260</property>
  <property name="kdenlive:file_size">107599</property>
  <property name="kdenlive:file_hash">af899b5a2b8fee4af9847a53d7223be9</property>
  <property name="kdenlive:proxy">/home/xiaoxiae/.cache/kdenlive/proxy/af899b5a2b8fee4af9847a53d7223be9.mkv</property>
  <property name="kdenlive:originalurl">video/Observations/12.mp4</property>
  <property name="global_feed">1</property>
  <property name="meta.media.nb_streams">1</property>
  <property name="meta.media.0.stream.type">video</property>
  <property name="meta.media.0.stream.frame_rate">60</property>
  <property name="meta.media.0.stream.sample_aspect_ratio">0</property>
  <property name="meta.media.0.codec.width">640</property>
  <property name="meta.media.0.codec.height">360</property>
  <property name="meta.media.0.codec.rotate">0</property>
  <property name="meta.media.0.codec.frame_rate">60</property>
  <property name="meta.media.0.codec.pix_fmt">yuv420p</property>
  <property name="meta.media.0.codec.sample_aspect_ratio">0</property>
  <property name="meta.media.0.codec.colorspace">601</property>
  <property name="meta.media.0.codec.name">h264</property>
  <property name="meta.media.0.codec.long_name">H.264 / AVC / MPEG-4 AVC / MPEG-4 part 10</property>
  <property name="meta.media.0.codec.bit_rate">0</property>
  <property name="meta.attr.0.stream.HANDLER_NAME.markup">VideoHandler</property>
  <property name="meta.attr.0.stream.VENDOR_ID.markup">[0][0][0][0]</property>
  <property name="meta.attr.0.stream.ENCODER.markup">Lavc58.134.100 libx264</property>
  <property name="meta.attr.0.stream.DURATION.markup">00:00:01.000000000</property>
  <property name="meta.attr.COMMENT.markup">Rendered with Manim Community v0.6.0</property>
  <property name="meta.attr.MAJOR_BRAND.markup">isom</property>
  <property name="meta.attr.MINOR_VERSION.markup">512</property>
  <property name="meta.attr.COMPATIBLE_BRANDS.markup">isomiso2avc1mp41</property>
  <property name="meta.attr.ENCODER.markup">Lavf58.76.100</property>
  <property name="meta.media.sample_aspect_num">1</property>
  <property name="meta.media.sample_aspect_den">1</property>
  <property name="meta.media.frame_rate_num">60</property>
  <property name="meta.media.frame_rate_den">1</property>
  <property name="meta.media.colorspace">601</property>
  <property name="meta.media.color_trc">2</property>
  <property name="meta.media.width">640</property>
  <property name="meta.media.height">360</property>
  <property name="meta.media.color_range">mpeg</property>
  <property name="meta.media.top_field_first">0</property>
  <property name="meta.media.progressive">1</property>
  <property name="kdenlive:original.mlt_type">producer</property>
  <property name="kdenlive:original.in">0</property>
  <property name="kdenlive:original.out">59</property>
  <property name="kdenlive:original.length">60</property>
  <property name="kdenlive:original.eof">pause</property>
  <property name="kdenlive:original.resource">video/Observations/12.mp4</property>
  <property name="kdenlive:original.meta.media.nb_streams">1</property>
  <property name="kdenlive:original.meta.media.0.stream.type">video</property>
  <property name="kdenlive:original.meta.media.0.stream.frame_rate">60</property>
  <property name="kdenlive:original.meta.media.0.stream.sample_aspect_ratio">0</property>
  <property name="kdenlive:original.meta.media.0.codec.width">3840</property>
  <property name="kdenlive:original.meta.media.0.codec.height">2160</property>
  <property name="kdenlive:original.meta.media.0.codec.rotate">0</property>
  <property name="kdenlive:original.meta.media.0.codec.frame_rate">60</property>
  <property name="kdenlive:original.meta.media.0.codec.pix_fmt">yuv420p</property>
  <property name="kdenlive:original.meta.media.0.codec.sample_aspect_ratio">0</property>
  <property name="kdenlive:original.meta.media.0.codec.colorspace">709</property>
  <property name="kdenlive:original.meta.media.0.codec.name">h264</property>
  <property name="kdenlive:original.meta.media.0.codec.long_name">H.264 / AVC / MPEG-4 AVC / MPEG-4 part 10</property>
  <property name="kdenlive:original.meta.media.0.codec.bit_rate">847744</property>
  <property name="kdenlive:original.meta.attr.0.stream.handler_name.markup">VideoHandler</property>
  <property name="kdenlive:original.meta.attr.0.stream.vendor_id.markup">[0][0][0][0]</property>
  <property name="kdenlive:original.meta.attr.major_brand.markup">isom</property>
  <property name="kdenlive:original.meta.attr.minor_version.markup">512</property>
  <property name="kdenlive:original.meta.attr.compatible_brands.markup">isomiso2avc1mp41</property>
  <property name="kdenlive:original.meta.attr.encoder.markup">Lavf58.76.100</property>
  <property name="kdenlive:original.meta.attr.comment.markup">Rendered with Manim Community v0.6.0</property>
  <property name="kdenlive:original.seekable">1</property>
  <property name="kdenlive:original.width">3840</property>
  <property name="kdenlive:original.height">2160</property>
  <property name="kdenlive:original.meta.media.sample_aspect_num">1</property>
  <property name="kdenlive:original.meta.media.sample_aspect_den">1</property>
  <property name="kdenlive:original.aspect_ratio">1</property>
  <property name="kdenlive:original.audio_index">-1</property>
  <property name="kdenlive:original.video_index">0</property>
  <property name="kdenlive:original.mute_on_pause">1</property>
  <property name="kdenlive:original.mlt_service">avformat</property>
  <property name="kdenlive:original.meta.media.frame_rate_num">60</property>
  <property name="kdenlive:original.meta.media.frame_rate_den">1</property>
  <property name="kdenlive:original.meta.media.colorspace">709</property>
  <property name="kdenlive:original.meta.media.color_trc">2</property>
  <property name="kdenlive:original.meta.media.width">3840</property>
  <property name="kdenlive:original.meta.media.height">2160</property>
  <property name="kdenlive:original.meta.media.color_range">mpeg</property>
  <property name="kdenlive:original.meta.media.top_field_first">0</property>
  <property name="kdenlive:original.meta.media.progressive">1</property>
  <property name="kdenlive:original.backup">1</property>
 </producer>
 <producer id="producer296" in="00:00:00.000" out="00:00:04.983">
  <property name="length">00:00:05.000</property>
  <property name="eof">pause</property>
  <property name="resource">/home/xiaoxiae/.cache/kdenlive/proxy/ff8ceb98f61f0db3c8701aafdd71ba4b.png</property>
  <property name="ttl">25</property>
  <property name="aspect_ratio">1</property>
  <property name="progressive">1</property>
  <property name="seekable">1</property>
  <property name="meta.media.width">800</property>
  <property name="meta.media.height">450</property>
  <property name="mlt_service">qimage</property>
  <property name="kdenlive:clipname">12.png</property>
  <property name="kdenlive:duration">00:00:05.000</property>
  <property name="kdenlive:folderid">277</property>
  <property name="kdenlive:id">261</property>
  <property name="kdenlive:file_size">342067</property>
  <property name="kdenlive:file_hash">ff8ceb98f61f0db3c8701aafdd71ba4b</property>
  <property name="kdenlive:proxy">/home/xiaoxiae/.cache/kdenlive/proxy/ff8ceb98f61f0db3c8701aafdd71ba4b.png</property>
  <property name="kdenlive:originalurl">video/Observations/12.png</property>
  <property name="global_feed">1</property>
 </producer>
 <producer id="producer297" in="00:00:00.000" out="00:00:00.983">
  <property name="length">60</property>
  <property name="eof">pause</property>
  <property name="resource">/home/xiaoxiae/.cache/kdenlive/proxy/e52dfd52345ea2bf50bafd45c2277aaa.mkv</property>
  <property name="audio_index">-1</property>
  <property name="video_index">0</property>
  <property name="mute_on_pause">0</property>
  <property name="mlt_service">avformat-novalidate</property>
  <property name="seekable">1</property>
  <property name="aspect_ratio">1</property>
  <property name="kdenlive:clipname">13.mp4</property>
  <property name="kdenlive:folderid">277</property>
  <property name="kdenlive:id">262</property>
  <property name="kdenlive:file_size">94393</property>
  <property name="kdenlive:file_hash">e52dfd52345ea2bf50bafd45c2277aaa</property>
  <property name="kdenlive:proxy">/home/xiaoxiae/.cache/kdenlive/proxy/e52dfd52345ea2bf50bafd45c2277aaa.mkv</property>
  <property name="kdenlive:originalurl">video/Observations/13.mp4</property>
  <property name="global_feed">1</property>
  <property name="meta.media.nb_streams">1</property>
  <property name="meta.media.0.stream.type">video</property>
  <property name="meta.media.0.stream.frame_rate">60</property>
  <property name="meta.media.0.stream.sample_aspect_ratio">0</property>
  <property name="meta.media.0.codec.width">640</property>
  <property name="meta.media.0.codec.height">360</property>
  <property name="meta.media.0.codec.rotate">0</property>
  <property name="meta.media.0.codec.frame_rate">60</property>
  <property name="meta.media.0.codec.pix_fmt">yuv420p</property>
  <property name="meta.media.0.codec.sample_aspect_ratio">0</property>
  <property name="meta.media.0.codec.colorspace">601</property>
  <property name="meta.media.0.codec.name">h264</property>
  <property name="meta.media.0.codec.long_name">H.264 / AVC / MPEG-4 AVC / MPEG-4 part 10</property>
  <property name="meta.media.0.codec.bit_rate">0</property>
  <property name="meta.attr.0.stream.HANDLER_NAME.markup">VideoHandler</property>
  <property name="meta.attr.0.stream.VENDOR_ID.markup">[0][0][0][0]</property>
  <property name="meta.attr.0.stream.ENCODER.markup">Lavc58.134.100 libx264</property>
  <property name="meta.attr.0.stream.DURATION.markup">00:00:01.000000000</property>
  <property name="meta.attr.COMMENT.markup">Rendered with Manim Community v0.6.0</property>
  <property name="meta.attr.MAJOR_BRAND.markup">isom</property>
  <property name="meta.attr.MINOR_VERSION.markup">512</property>
  <property name="meta.attr.COMPATIBLE_BRANDS.markup">isomiso2avc1mp41</property>
  <property name="meta.attr.ENCODER.markup">Lavf58.76.100</property>
  <property name="meta.media.sample_aspect_num">1</property>
  <property name="meta.media.sample_aspect_den">1</property>
  <property name="meta.media.frame_rate_num">60</property>
  <property name="meta.media.frame_rate_den">1</property>
  <property name="meta.media.colorspace">601</property>
  <property name="meta.media.color_trc">2</property>
  <property name="meta.media.width">640</property>
  <property name="meta.media.height">360</property>
  <property name="meta.media.color_range">mpeg</property>
  <property name="meta.media.top_field_first">0</property>
  <property name="meta.media.progressive">1</property>
  <property name="kdenlive:original.mlt_type">producer</property>
  <property name="kdenlive:original.in">0</property>
  <property name="kdenlive:original.out">59</property>
  <property name="kdenlive:original.length">60</property>
  <property name="kdenlive:original.eof">pause</property>
  <property name="kdenlive:original.resource">video/Observations/13.mp4</property>
  <property name="kdenlive:original.meta.media.nb_streams">1</property>
  <property name="kdenlive:original.meta.media.0.stream.type">video</property>
  <property name="kdenlive:original.meta.media.0.stream.frame_rate">60</property>
  <property name="kdenlive:original.meta.media.0.stream.sample_aspect_ratio">0</property>
  <property name="kdenlive:original.meta.media.0.codec.width">3840</property>
  <property name="kdenlive:original.meta.media.0.codec.height">2160</property>
  <property name="kdenlive:original.meta.media.0.codec.rotate">0</property>
  <property name="kdenlive:original.meta.media.0.codec.frame_rate">60</property>
  <property name="kdenlive:original.meta.media.0.codec.pix_fmt">yuv420p</property>
  <property name="kdenlive:original.meta.media.0.codec.sample_aspect_ratio">0</property>
  <property name="kdenlive:original.meta.media.0.codec.colorspace">709</property>
  <property name="kdenlive:original.meta.media.0.codec.name">h264</property>
  <property name="kdenlive:original.meta.media.0.codec.long_name">H.264 / AVC / MPEG-4 AVC / MPEG-4 part 10</property>
  <property name="kdenlive:original.meta.media.0.codec.bit_rate">742096</property>
  <property name="kdenlive:original.meta.attr.0.stream.handler_name.markup">VideoHandler</property>
  <property name="kdenlive:original.meta.attr.0.stream.vendor_id.markup">[0][0][0][0]</property>
  <property name="kdenlive:original.meta.attr.major_brand.markup">isom</property>
  <property name="kdenlive:original.meta.attr.minor_version.markup">512</property>
  <property name="kdenlive:original.meta.attr.compatible_brands.markup">isomiso2avc1mp41</property>
  <property name="kdenlive:original.meta.attr.encoder.markup">Lavf58.76.100</property>
  <property name="kdenlive:original.meta.attr.comment.markup">Rendered with Manim Community v0.6.0</property>
  <property name="kdenlive:original.seekable">1</property>
  <property name="kdenlive:original.width">3840</property>
  <property name="kdenlive:original.height">2160</property>
  <property name="kdenlive:original.meta.media.sample_aspect_num">1</property>
  <property name="kdenlive:original.meta.media.sample_aspect_den">1</property>
  <property name="kdenlive:original.aspect_ratio">1</property>
  <property name="kdenlive:original.audio_index">-1</property>
  <property name="kdenlive:original.video_index">0</property>
  <property name="kdenlive:original.mute_on_pause">1</property>
  <property name="kdenlive:original.mlt_service">avformat</property>
  <property name="kdenlive:original.meta.media.frame_rate_num">60</property>
  <property name="kdenlive:original.meta.media.frame_rate_den">1</property>
  <property name="kdenlive:original.meta.media.colorspace">709</property>
  <property name="kdenlive:original.meta.media.color_trc">2</property>
  <property name="kdenlive:original.meta.media.width">3840</property>
  <property name="kdenlive:original.meta.media.height">2160</property>
  <property name="kdenlive:original.meta.media.color_range">mpeg</property>
  <property name="kdenlive:original.meta.media.top_field_first">0</property>
  <property name="kdenlive:original.meta.media.progressive">1</property>
  <property name="kdenlive:original.backup">1</property>
 </producer>
 <producer id="producer300" in="00:00:00.000" out="00:00:04.983">
  <property name="length">00:00:05.000</property>
  <property name="eof">pause</property>
  <property name="resource">/home/xiaoxiae/.cache/kdenlive/proxy/c0e81e8dd512206e0332ea1edd75f655.png</property>
  <property name="ttl">25</property>
  <property name="aspect_ratio">1</property>
  <property name="progressive">1</property>
  <property name="seekable">1</property>
  <property name="meta.media.width">800</property>
  <property name="meta.media.height">450</property>
  <property name="mlt_service">qimage</property>
  <property name="kdenlive:clipname">13.png</property>
  <property name="kdenlive:duration">00:00:05.000</property>
  <property name="kdenlive:folderid">277</property>
  <property name="kdenlive:id">263</property>
  <property name="kdenlive:file_size">334441</property>
  <property name="kdenlive:file_hash">c0e81e8dd512206e0332ea1edd75f655</property>
  <property name="kdenlive:proxy">/home/xiaoxiae/.cache/kdenlive/proxy/c0e81e8dd512206e0332ea1edd75f655.png</property>
  <property name="kdenlive:originalurl">video/Observations/13.png</property>
  <property name="global_feed">1</property>
  <property name="kdenlive:original.mlt_type">producer</property>
  <property name="kdenlive:original.in">0</property>
  <property name="kdenlive:original.out">14999</property>
  <property name="kdenlive:original.length">15000</property>
  <property name="kdenlive:original.eof">pause</property>
  <property name="kdenlive:original.resource">video/Observations/13.png</property>
  <property name="kdenlive:original.ttl">25</property>
  <property name="kdenlive:original.aspect_ratio">1</property>
  <property name="kdenlive:original.progressive">1</property>
  <property name="kdenlive:original.seekable">1</property>
  <property name="kdenlive:original.meta.media.width">3840</property>
  <property name="kdenlive:original.meta.media.height">2160</property>
  <property name="kdenlive:original.mlt_service">qimage</property>
  <property name="kdenlive:original.backup">1</property>
 </producer>
 <producer id="producer299" in="00:00:00.000" out="00:00:00.983">
  <property name="length">60</property>
  <property name="eof">pause</property>
  <property name="resource">/home/xiaoxiae/.cache/kdenlive/proxy/f139f8d8fc2061890c7d1ee2111c62d0.mkv</property>
  <property name="audio_index">-1</property>
  <property name="video_index">0</property>
  <property name="mute_on_pause">0</property>
  <property name="mlt_service">avformat-novalidate</property>
  <property name="seekable">1</property>
  <property name="aspect_ratio">1</property>
  <property name="kdenlive:clipname">14.mp4</property>
  <property name="kdenlive:folderid">277</property>
  <property name="kdenlive:id">264</property>
  <property name="kdenlive:file_size">128547</property>
  <property name="kdenlive:file_hash">f139f8d8fc2061890c7d1ee2111c62d0</property>
  <property name="kdenlive:proxy">/home/xiaoxiae/.cache/kdenlive/proxy/f139f8d8fc2061890c7d1ee2111c62d0.mkv</property>
  <property name="kdenlive:originalurl">video/Observations/14.mp4</property>
  <property name="global_feed">1</property>
  <property name="meta.media.nb_streams">1</property>
  <property name="meta.media.0.stream.type">video</property>
  <property name="meta.media.0.stream.frame_rate">60</property>
  <property name="meta.media.0.stream.sample_aspect_ratio">0</property>
  <property name="meta.media.0.codec.width">640</property>
  <property name="meta.media.0.codec.height">360</property>
  <property name="meta.media.0.codec.rotate">0</property>
  <property name="meta.media.0.codec.frame_rate">60</property>
  <property name="meta.media.0.codec.pix_fmt">yuv420p</property>
  <property name="meta.media.0.codec.sample_aspect_ratio">0</property>
  <property name="meta.media.0.codec.colorspace">601</property>
  <property name="meta.media.0.codec.name">h264</property>
  <property name="meta.media.0.codec.long_name">H.264 / AVC / MPEG-4 AVC / MPEG-4 part 10</property>
  <property name="meta.media.0.codec.bit_rate">0</property>
  <property name="meta.attr.0.stream.HANDLER_NAME.markup">VideoHandler</property>
  <property name="meta.attr.0.stream.VENDOR_ID.markup">[0][0][0][0]</property>
  <property name="meta.attr.0.stream.ENCODER.markup">Lavc58.134.100 libx264</property>
  <property name="meta.attr.0.stream.DURATION.markup">00:00:01.000000000</property>
  <property name="meta.attr.COMMENT.markup">Rendered with Manim Community v0.6.0</property>
  <property name="meta.attr.MAJOR_BRAND.markup">isom</property>
  <property name="meta.attr.MINOR_VERSION.markup">512</property>
  <property name="meta.attr.COMPATIBLE_BRANDS.markup">isomiso2avc1mp41</property>
  <property name="meta.attr.ENCODER.markup">Lavf58.76.100</property>
  <property name="meta.media.sample_aspect_num">1</property>
  <property name="meta.media.sample_aspect_den">1</property>
  <property name="meta.media.frame_rate_num">60</property>
  <property name="meta.media.frame_rate_den">1</property>
  <property name="meta.media.colorspace">601</property>
  <property name="meta.media.color_trc">2</property>
  <property name="meta.media.width">640</property>
  <property name="meta.media.height">360</property>
  <property name="meta.media.color_range">mpeg</property>
  <property name="meta.media.top_field_first">0</property>
  <property name="meta.media.progressive">1</property>
  <property name="kdenlive:original.mlt_type">producer</property>
  <property name="kdenlive:original.in">0</property>
  <property name="kdenlive:original.out">59</property>
  <property name="kdenlive:original.length">60</property>
  <property name="kdenlive:original.eof">pause</property>
  <property name="kdenlive:original.resource">video/Observations/14.mp4</property>
  <property name="kdenlive:original.meta.media.nb_streams">1</property>
  <property name="kdenlive:original.meta.media.0.stream.type">video</property>
  <property name="kdenlive:original.meta.media.0.stream.frame_rate">60</property>
  <property name="kdenlive:original.meta.media.0.stream.sample_aspect_ratio">0</property>
  <property name="kdenlive:original.meta.media.0.codec.width">3840</property>
  <property name="kdenlive:original.meta.media.0.codec.height">2160</property>
  <property name="kdenlive:original.meta.media.0.codec.rotate">0</property>
  <property name="kdenlive:original.meta.media.0.codec.frame_rate">60</property>
  <property name="kdenlive:original.meta.media.0.codec.pix_fmt">yuv420p</property>
  <property name="kdenlive:original.meta.media.0.codec.sample_aspect_ratio">0</property>
  <property name="kdenlive:original.meta.media.0.codec.colorspace">709</property>
  <property name="kdenlive:original.meta.media.0.codec.name">h264</property>
  <property name="kdenlive:original.meta.media.0.codec.long_name">H.264 / AVC / MPEG-4 AVC / MPEG-4 part 10</property>
  <property name="kdenlive:original.meta.media.0.codec.bit_rate">1015328</property>
  <property name="kdenlive:original.meta.attr.0.stream.handler_name.markup">VideoHandler</property>
  <property name="kdenlive:original.meta.attr.0.stream.vendor_id.markup">[0][0][0][0]</property>
  <property name="kdenlive:original.meta.attr.major_brand.markup">isom</property>
  <property name="kdenlive:original.meta.attr.minor_version.markup">512</property>
  <property name="kdenlive:original.meta.attr.compatible_brands.markup">isomiso2avc1mp41</property>
  <property name="kdenlive:original.meta.attr.encoder.markup">Lavf58.76.100</property>
  <property name="kdenlive:original.meta.attr.comment.markup">Rendered with Manim Community v0.6.0</property>
  <property name="kdenlive:original.seekable">1</property>
  <property name="kdenlive:original.width">3840</property>
  <property name="kdenlive:original.height">2160</property>
  <property name="kdenlive:original.meta.media.sample_aspect_num">1</property>
  <property name="kdenlive:original.meta.media.sample_aspect_den">1</property>
  <property name="kdenlive:original.aspect_ratio">1</property>
  <property name="kdenlive:original.audio_index">-1</property>
  <property name="kdenlive:original.video_index">0</property>
  <property name="kdenlive:original.mute_on_pause">1</property>
  <property name="kdenlive:original.mlt_service">avformat</property>
  <property name="kdenlive:original.meta.media.frame_rate_num">60</property>
  <property name="kdenlive:original.meta.media.frame_rate_den">1</property>
  <property name="kdenlive:original.meta.media.colorspace">709</property>
  <property name="kdenlive:original.meta.media.color_trc">2</property>
  <property name="kdenlive:original.meta.media.width">3840</property>
  <property name="kdenlive:original.meta.media.height">2160</property>
  <property name="kdenlive:original.meta.media.color_range">mpeg</property>
  <property name="kdenlive:original.meta.media.top_field_first">0</property>
  <property name="kdenlive:original.meta.media.progressive">1</property>
  <property name="kdenlive:original.backup">1</property>
 </producer>
 <producer id="producer298" in="00:00:00.000" out="00:00:04.983">
  <property name="length">00:00:05.000</property>
  <property name="eof">pause</property>
  <property name="resource">/home/xiaoxiae/.cache/kdenlive/proxy/07b504183e38ada20abb934de1d97749.png</property>
  <property name="ttl">25</property>
  <property name="aspect_ratio">1</property>
  <property name="progressive">1</property>
  <property name="seekable">1</property>
  <property name="meta.media.width">800</property>
  <property name="meta.media.height">450</property>
  <property name="mlt_service">qimage</property>
  <property name="kdenlive:clipname">14.png</property>
  <property name="kdenlive:duration">00:00:05.000</property>
  <property name="kdenlive:folderid">277</property>
  <property name="kdenlive:id">265</property>
  <property name="kdenlive:file_size">347178</property>
  <property name="kdenlive:file_hash">07b504183e38ada20abb934de1d97749</property>
  <property name="kdenlive:proxy">/home/xiaoxiae/.cache/kdenlive/proxy/07b504183e38ada20abb934de1d97749.png</property>
  <property name="kdenlive:originalurl">video/Observations/14.png</property>
  <property name="global_feed">1</property>
  <property name="kdenlive:original.mlt_type">producer</property>
  <property name="kdenlive:original.in">0</property>
  <property name="kdenlive:original.out">14999</property>
  <property name="kdenlive:original.length">15000</property>
  <property name="kdenlive:original.eof">pause</property>
  <property name="kdenlive:original.resource">video/Observations/14.png</property>
  <property name="kdenlive:original.ttl">25</property>
  <property name="kdenlive:original.aspect_ratio">1</property>
  <property name="kdenlive:original.progressive">1</property>
  <property name="kdenlive:original.seekable">1</property>
  <property name="kdenlive:original.meta.media.width">3840</property>
  <property name="kdenlive:original.meta.media.height">2160</property>
  <property name="kdenlive:original.mlt_service">qimage</property>
  <property name="kdenlive:original.backup">1</property>
 </producer>
 <producer id="producer301" in="00:00:00.000" out="00:00:00.983">
  <property name="length">60</property>
  <property name="eof">pause</property>
  <property name="resource">/home/xiaoxiae/.cache/kdenlive/proxy/c33541dc3e882436a557c2ffb1ad0113.mkv</property>
  <property name="audio_index">-1</property>
  <property name="video_index">0</property>
  <property name="mute_on_pause">0</property>
  <property name="mlt_service">avformat-novalidate</property>
  <property name="seekable">1</property>
  <property name="aspect_ratio">1</property>
  <property name="kdenlive:clipname">15.mp4</property>
  <property name="kdenlive:folderid">277</property>
  <property name="kdenlive:id">266</property>
  <property name="kdenlive:file_size">92399</property>
  <property name="kdenlive:file_hash">c33541dc3e882436a557c2ffb1ad0113</property>
  <property name="kdenlive:proxy">/home/xiaoxiae/.cache/kdenlive/proxy/c33541dc3e882436a557c2ffb1ad0113.mkv</property>
  <property name="kdenlive:originalurl">video/Observations/15.mp4</property>
  <property name="global_feed">1</property>
  <property name="meta.media.nb_streams">1</property>
  <property name="meta.media.0.stream.type">video</property>
  <property name="meta.media.0.stream.frame_rate">60</property>
  <property name="meta.media.0.stream.sample_aspect_ratio">0</property>
  <property name="meta.media.0.codec.width">640</property>
  <property name="meta.media.0.codec.height">360</property>
  <property name="meta.media.0.codec.rotate">0</property>
  <property name="meta.media.0.codec.frame_rate">60</property>
  <property name="meta.media.0.codec.pix_fmt">yuv420p</property>
  <property name="meta.media.0.codec.sample_aspect_ratio">0</property>
  <property name="meta.media.0.codec.colorspace">601</property>
  <property name="meta.media.0.codec.name">h264</property>
  <property name="meta.media.0.codec.long_name">H.264 / AVC / MPEG-4 AVC / MPEG-4 part 10</property>
  <property name="meta.media.0.codec.bit_rate">0</property>
  <property name="meta.attr.0.stream.HANDLER_NAME.markup">VideoHandler</property>
  <property name="meta.attr.0.stream.VENDOR_ID.markup">[0][0][0][0]</property>
  <property name="meta.attr.0.stream.ENCODER.markup">Lavc58.134.100 libx264</property>
  <property name="meta.attr.0.stream.DURATION.markup">00:00:01.000000000</property>
  <property name="meta.attr.COMMENT.markup">Rendered with Manim Community v0.6.0</property>
  <property name="meta.attr.MAJOR_BRAND.markup">isom</property>
  <property name="meta.attr.MINOR_VERSION.markup">512</property>
  <property name="meta.attr.COMPATIBLE_BRANDS.markup">isomiso2avc1mp41</property>
  <property name="meta.attr.ENCODER.markup">Lavf58.76.100</property>
  <property name="meta.media.sample_aspect_num">1</property>
  <property name="meta.media.sample_aspect_den">1</property>
  <property name="meta.media.frame_rate_num">60</property>
  <property name="meta.media.frame_rate_den">1</property>
  <property name="meta.media.colorspace">601</property>
  <property name="meta.media.color_trc">2</property>
  <property name="meta.media.width">640</property>
  <property name="meta.media.height">360</property>
  <property name="meta.media.color_range">mpeg</property>
  <property name="meta.media.top_field_first">0</property>
  <property name="meta.media.progressive">1</property>
  <property name="kdenlive:original.mlt_type">producer</property>
  <property name="kdenlive:original.in">0</property>
  <property name="kdenlive:original.out">59</property>
  <property name="kdenlive:original.length">60</property>
  <property name="kdenlive:original.eof">pause</property>
  <property name="kdenlive:original.resource">video/Observations/15.mp4</property>
  <property name="kdenlive:original.meta.media.nb_streams">1</property>
  <property name="kdenlive:original.meta.media.0.stream.type">video</property>
  <property name="kdenlive:original.meta.media.0.stream.frame_rate">60</property>
  <property name="kdenlive:original.meta.media.0.stream.sample_aspect_ratio">0</property>
  <property name="kdenlive:original.meta.media.0.codec.width">3840</property>
  <property name="kdenlive:original.meta.media.0.codec.height">2160</property>
  <property name="kdenlive:original.meta.media.0.codec.rotate">0</property>
  <property name="kdenlive:original.meta.media.0.codec.frame_rate">60</property>
  <property name="kdenlive:original.meta.media.0.codec.pix_fmt">yuv420p</property>
  <property name="kdenlive:original.meta.media.0.codec.sample_aspect_ratio">0</property>
  <property name="kdenlive:original.meta.media.0.codec.colorspace">709</property>
  <property name="kdenlive:original.meta.media.0.codec.name">h264</property>
  <property name="kdenlive:original.meta.media.0.codec.long_name">H.264 / AVC / MPEG-4 AVC / MPEG-4 part 10</property>
  <property name="kdenlive:original.meta.media.0.codec.bit_rate">726144</property>
  <property name="kdenlive:original.meta.attr.0.stream.handler_name.markup">VideoHandler</property>
  <property name="kdenlive:original.meta.attr.0.stream.vendor_id.markup">[0][0][0][0]</property>
  <property name="kdenlive:original.meta.attr.major_brand.markup">isom</property>
  <property name="kdenlive:original.meta.attr.minor_version.markup">512</property>
  <property name="kdenlive:original.meta.attr.compatible_brands.markup">isomiso2avc1mp41</property>
  <property name="kdenlive:original.meta.attr.encoder.markup">Lavf58.76.100</property>
  <property name="kdenlive:original.meta.attr.comment.markup">Rendered with Manim Community v0.6.0</property>
  <property name="kdenlive:original.seekable">1</property>
  <property name="kdenlive:original.width">3840</property>
  <property name="kdenlive:original.height">2160</property>
  <property name="kdenlive:original.meta.media.sample_aspect_num">1</property>
  <property name="kdenlive:original.meta.media.sample_aspect_den">1</property>
  <property name="kdenlive:original.aspect_ratio">1</property>
  <property name="kdenlive:original.audio_index">-1</property>
  <property name="kdenlive:original.video_index">0</property>
  <property name="kdenlive:original.mute_on_pause">1</property>
  <property name="kdenlive:original.mlt_service">avformat</property>
  <property name="kdenlive:original.meta.media.frame_rate_num">60</property>
  <property name="kdenlive:original.meta.media.frame_rate_den">1</property>
  <property name="kdenlive:original.meta.media.colorspace">709</property>
  <property name="kdenlive:original.meta.media.color_trc">2</property>
  <property name="kdenlive:original.meta.media.width">3840</property>
  <property name="kdenlive:original.meta.media.height">2160</property>
  <property name="kdenlive:original.meta.media.color_range">mpeg</property>
  <property name="kdenlive:original.meta.media.top_field_first">0</property>
  <property name="kdenlive:original.meta.media.progressive">1</property>
  <property name="kdenlive:original.backup">1</property>
 </producer>
 <producer id="producer304" in="00:00:00.000" out="00:00:04.983">
  <property name="length">00:00:05.000</property>
  <property name="eof">pause</property>
  <property name="resource">/home/xiaoxiae/.cache/kdenlive/proxy/e4ce4b3f0e2eb541b4784a83718f8007.png</property>
  <property name="ttl">25</property>
  <property name="aspect_ratio">1</property>
  <property name="progressive">1</property>
  <property name="seekable">1</property>
  <property name="meta.media.width">800</property>
  <property name="meta.media.height">450</property>
  <property name="mlt_service">qimage</property>
  <property name="kdenlive:clipname">15.png</property>
  <property name="kdenlive:duration">00:00:05.000</property>
  <property name="kdenlive:folderid">277</property>
  <property name="kdenlive:id">267</property>
  <property name="kdenlive:file_size">334088</property>
  <property name="kdenlive:file_hash">e4ce4b3f0e2eb541b4784a83718f8007</property>
  <property name="kdenlive:proxy">/home/xiaoxiae/.cache/kdenlive/proxy/e4ce4b3f0e2eb541b4784a83718f8007.png</property>
  <property name="kdenlive:originalurl">video/Observations/15.png</property>
  <property name="global_feed">1</property>
 </producer>
 <producer id="producer302" in="00:00:00.000" out="00:00:00.983">
  <property name="length">60</property>
  <property name="eof">pause</property>
  <property name="resource">/home/xiaoxiae/.cache/kdenlive/proxy/faab785265943f12fd7c1f891ce3951e.mkv</property>
  <property name="audio_index">-1</property>
  <property name="video_index">0</property>
  <property name="mute_on_pause">0</property>
  <property name="mlt_service">avformat-novalidate</property>
  <property name="seekable">1</property>
  <property name="aspect_ratio">1</property>
  <property name="kdenlive:clipname">16.mp4</property>
  <property name="kdenlive:folderid">277</property>
  <property name="kdenlive:id">268</property>
  <property name="kdenlive:file_size">106679</property>
  <property name="kdenlive:file_hash">faab785265943f12fd7c1f891ce3951e</property>
  <property name="kdenlive:proxy">/home/xiaoxiae/.cache/kdenlive/proxy/faab785265943f12fd7c1f891ce3951e.mkv</property>
  <property name="kdenlive:originalurl">video/Observations/16.mp4</property>
  <property name="global_feed">1</property>
  <property name="meta.media.nb_streams">1</property>
  <property name="meta.media.0.stream.type">video</property>
  <property name="meta.media.0.stream.frame_rate">60</property>
  <property name="meta.media.0.stream.sample_aspect_ratio">0</property>
  <property name="meta.media.0.codec.width">640</property>
  <property name="meta.media.0.codec.height">360</property>
  <property name="meta.media.0.codec.rotate">0</property>
  <property name="meta.media.0.codec.frame_rate">60</property>
  <property name="meta.media.0.codec.pix_fmt">yuv420p</property>
  <property name="meta.media.0.codec.sample_aspect_ratio">0</property>
  <property name="meta.media.0.codec.colorspace">601</property>
  <property name="meta.media.0.codec.name">h264</property>
  <property name="meta.media.0.codec.long_name">H.264 / AVC / MPEG-4 AVC / MPEG-4 part 10</property>
  <property name="meta.media.0.codec.bit_rate">0</property>
  <property name="meta.attr.0.stream.HANDLER_NAME.markup">VideoHandler</property>
  <property name="meta.attr.0.stream.VENDOR_ID.markup">[0][0][0][0]</property>
  <property name="meta.attr.0.stream.ENCODER.markup">Lavc58.134.100 libx264</property>
  <property name="meta.attr.0.stream.DURATION.markup">00:00:01.000000000</property>
  <property name="meta.attr.COMMENT.markup">Rendered with Manim Community v0.6.0</property>
  <property name="meta.attr.MAJOR_BRAND.markup">isom</property>
  <property name="meta.attr.MINOR_VERSION.markup">512</property>
  <property name="meta.attr.COMPATIBLE_BRANDS.markup">isomiso2avc1mp41</property>
  <property name="meta.attr.ENCODER.markup">Lavf58.76.100</property>
  <property name="meta.media.sample_aspect_num">1</property>
  <property name="meta.media.sample_aspect_den">1</property>
  <property name="meta.media.frame_rate_num">60</property>
  <property name="meta.media.frame_rate_den">1</property>
  <property name="meta.media.colorspace">601</property>
  <property name="meta.media.color_trc">2</property>
  <property name="meta.media.width">640</property>
  <property name="meta.media.height">360</property>
  <property name="meta.media.color_range">mpeg</property>
  <property name="meta.media.top_field_first">0</property>
  <property name="meta.media.progressive">1</property>
  <property name="kdenlive:original.mlt_type">producer</property>
  <property name="kdenlive:original.in">0</property>
  <property name="kdenlive:original.out">59</property>
  <property name="kdenlive:original.length">60</property>
  <property name="kdenlive:original.eof">pause</property>
  <property name="kdenlive:original.resource">video/Observations/16.mp4</property>
  <property name="kdenlive:original.meta.media.nb_streams">1</property>
  <property name="kdenlive:original.meta.media.0.stream.type">video</property>
  <property name="kdenlive:original.meta.media.0.stream.frame_rate">60</property>
  <property name="kdenlive:original.meta.media.0.stream.sample_aspect_ratio">0</property>
  <property name="kdenlive:original.meta.media.0.codec.width">3840</property>
  <property name="kdenlive:original.meta.media.0.codec.height">2160</property>
  <property name="kdenlive:original.meta.media.0.codec.rotate">0</property>
  <property name="kdenlive:original.meta.media.0.codec.frame_rate">60</property>
  <property name="kdenlive:original.meta.media.0.codec.pix_fmt">yuv420p</property>
  <property name="kdenlive:original.meta.media.0.codec.sample_aspect_ratio">0</property>
  <property name="kdenlive:original.meta.media.0.codec.colorspace">709</property>
  <property name="kdenlive:original.meta.media.0.codec.name">h264</property>
  <property name="kdenlive:original.meta.media.0.codec.long_name">H.264 / AVC / MPEG-4 AVC / MPEG-4 part 10</property>
  <property name="kdenlive:original.meta.media.0.codec.bit_rate">840384</property>
  <property name="kdenlive:original.meta.attr.0.stream.handler_name.markup">VideoHandler</property>
  <property name="kdenlive:original.meta.attr.0.stream.vendor_id.markup">[0][0][0][0]</property>
  <property name="kdenlive:original.meta.attr.major_brand.markup">isom</property>
  <property name="kdenlive:original.meta.attr.minor_version.markup">512</property>
  <property name="kdenlive:original.meta.attr.compatible_brands.markup">isomiso2avc1mp41</property>
  <property name="kdenlive:original.meta.attr.encoder.markup">Lavf58.76.100</property>
  <property name="kdenlive:original.meta.attr.comment.markup">Rendered with Manim Community v0.6.0</property>
  <property name="kdenlive:original.seekable">1</property>
  <property name="kdenlive:original.width">3840</property>
  <property name="kdenlive:original.height">2160</property>
  <property name="kdenlive:original.meta.media.sample_aspect_num">1</property>
  <property name="kdenlive:original.meta.media.sample_aspect_den">1</property>
  <property name="kdenlive:original.aspect_ratio">1</property>
  <property name="kdenlive:original.audio_index">-1</property>
  <property name="kdenlive:original.video_index">0</property>
  <property name="kdenlive:original.mute_on_pause">1</property>
  <property name="kdenlive:original.mlt_service">avformat</property>
  <property name="kdenlive:original.meta.media.frame_rate_num">60</property>
  <property name="kdenlive:original.meta.media.frame_rate_den">1</property>
  <property name="kdenlive:original.meta.media.colorspace">709</property>
  <property name="kdenlive:original.meta.media.color_trc">2</property>
  <property name="kdenlive:original.meta.media.width">3840</property>
  <property name="kdenlive:original.meta.media.height">2160</property>
  <property name="kdenlive:original.meta.media.color_range">mpeg</property>
  <property name="kdenlive:original.meta.media.top_field_first">0</property>
  <property name="kdenlive:original.meta.media.progressive">1</property>
  <property name="kdenlive:original.backup">1</property>
 </producer>
 <producer id="producer303" in="00:00:00.000" out="00:00:04.983">
  <property name="length">00:00:05.000</property>
  <property name="eof">pause</property>
  <property name="resource">/home/xiaoxiae/.cache/kdenlive/proxy/43d4cb1c9337feaa59e3539804bee891.png</property>
  <property name="ttl">25</property>
  <property name="aspect_ratio">1</property>
  <property name="progressive">1</property>
  <property name="seekable">1</property>
  <property name="meta.media.width">800</property>
  <property name="meta.media.height">450</property>
  <property name="mlt_service">qimage</property>
  <property name="kdenlive:clipname">16.png</property>
  <property name="kdenlive:duration">00:00:05.000</property>
  <property name="kdenlive:folderid">277</property>
  <property name="kdenlive:id">269</property>
  <property name="kdenlive:file_size">339693</property>
  <property name="kdenlive:file_hash">43d4cb1c9337feaa59e3539804bee891</property>
  <property name="kdenlive:proxy">/home/xiaoxiae/.cache/kdenlive/proxy/43d4cb1c9337feaa59e3539804bee891.png</property>
  <property name="kdenlive:originalurl">video/Observations/16.png</property>
  <property name="global_feed">1</property>
 </producer>
 <producer id="producer305" in="00:00:00.000" out="00:00:00.983">
  <property name="length">60</property>
  <property name="eof">pause</property>
  <property name="resource">/home/xiaoxiae/.cache/kdenlive/proxy/24f1251840f688d8ee969bfeaf2e119c.mkv</property>
  <property name="audio_index">-1</property>
  <property name="video_index">0</property>
  <property name="mute_on_pause">0</property>
  <property name="mlt_service">avformat-novalidate</property>
  <property name="seekable">1</property>
  <property name="aspect_ratio">1</property>
  <property name="kdenlive:clipname">17.mp4</property>
  <property name="kdenlive:folderid">277</property>
  <property name="kdenlive:id">270</property>
  <property name="kdenlive:file_size">92471</property>
  <property name="kdenlive:file_hash">24f1251840f688d8ee969bfeaf2e119c</property>
  <property name="kdenlive:proxy">/home/xiaoxiae/.cache/kdenlive/proxy/24f1251840f688d8ee969bfeaf2e119c.mkv</property>
  <property name="kdenlive:originalurl">video/Observations/17.mp4</property>
  <property name="global_feed">1</property>
  <property name="meta.media.nb_streams">1</property>
  <property name="meta.media.0.stream.type">video</property>
  <property name="meta.media.0.stream.frame_rate">60</property>
  <property name="meta.media.0.stream.sample_aspect_ratio">0</property>
  <property name="meta.media.0.codec.width">640</property>
  <property name="meta.media.0.codec.height">360</property>
  <property name="meta.media.0.codec.rotate">0</property>
  <property name="meta.media.0.codec.frame_rate">60</property>
  <property name="meta.media.0.codec.pix_fmt">yuv420p</property>
  <property name="meta.media.0.codec.sample_aspect_ratio">0</property>
  <property name="meta.media.0.codec.colorspace">601</property>
  <property name="meta.media.0.codec.name">h264</property>
  <property name="meta.media.0.codec.long_name">H.264 / AVC / MPEG-4 AVC / MPEG-4 part 10</property>
  <property name="meta.media.0.codec.bit_rate">0</property>
  <property name="meta.attr.0.stream.HANDLER_NAME.markup">VideoHandler</property>
  <property name="meta.attr.0.stream.VENDOR_ID.markup">[0][0][0][0]</property>
  <property name="meta.attr.0.stream.ENCODER.markup">Lavc58.134.100 libx264</property>
  <property name="meta.attr.0.stream.DURATION.markup">00:00:01.000000000</property>
  <property name="meta.attr.COMMENT.markup">Rendered with Manim Community v0.6.0</property>
  <property name="meta.attr.MAJOR_BRAND.markup">isom</property>
  <property name="meta.attr.MINOR_VERSION.markup">512</property>
  <property name="meta.attr.COMPATIBLE_BRANDS.markup">isomiso2avc1mp41</property>
  <property name="meta.attr.ENCODER.markup">Lavf58.76.100</property>
  <property name="meta.media.sample_aspect_num">1</property>
  <property name="meta.media.sample_aspect_den">1</property>
  <property name="meta.media.frame_rate_num">60</property>
  <property name="meta.media.frame_rate_den">1</property>
  <property name="meta.media.colorspace">601</property>
  <property name="meta.media.color_trc">2</property>
  <property name="meta.media.width">640</property>
  <property name="meta.media.height">360</property>
  <property name="meta.media.color_range">mpeg</property>
  <property name="meta.media.top_field_first">0</property>
  <property name="meta.media.progressive">1</property>
  <property name="kdenlive:original.mlt_type">producer</property>
  <property name="kdenlive:original.in">0</property>
  <property name="kdenlive:original.out">59</property>
  <property name="kdenlive:original.length">60</property>
  <property name="kdenlive:original.eof">pause</property>
  <property name="kdenlive:original.resource">video/Observations/17.mp4</property>
  <property name="kdenlive:original.meta.media.nb_streams">1</property>
  <property name="kdenlive:original.meta.media.0.stream.type">video</property>
  <property name="kdenlive:original.meta.media.0.stream.frame_rate">60</property>
  <property name="kdenlive:original.meta.media.0.stream.sample_aspect_ratio">0</property>
  <property name="kdenlive:original.meta.media.0.codec.width">3840</property>
  <property name="kdenlive:original.meta.media.0.codec.height">2160</property>
  <property name="kdenlive:original.meta.media.0.codec.rotate">0</property>
  <property name="kdenlive:original.meta.media.0.codec.frame_rate">60</property>
  <property name="kdenlive:original.meta.media.0.codec.pix_fmt">yuv420p</property>
  <property name="kdenlive:original.meta.media.0.codec.sample_aspect_ratio">0</property>
  <property name="kdenlive:original.meta.media.0.codec.colorspace">709</property>
  <property name="kdenlive:original.meta.media.0.codec.name">h264</property>
  <property name="kdenlive:original.meta.media.0.codec.long_name">H.264 / AVC / MPEG-4 AVC / MPEG-4 part 10</property>
  <property name="kdenlive:original.meta.media.0.codec.bit_rate">726720</property>
  <property name="kdenlive:original.meta.attr.0.stream.handler_name.markup">VideoHandler</property>
  <property name="kdenlive:original.meta.attr.0.stream.vendor_id.markup">[0][0][0][0]</property>
  <property name="kdenlive:original.meta.attr.major_brand.markup">isom</property>
  <property name="kdenlive:original.meta.attr.minor_version.markup">512</property>
  <property name="kdenlive:original.meta.attr.compatible_brands.markup">isomiso2avc1mp41</property>
  <property name="kdenlive:original.meta.attr.encoder.markup">Lavf58.76.100</property>
  <property name="kdenlive:original.meta.attr.comment.markup">Rendered with Manim Community v0.6.0</property>
  <property name="kdenlive:original.seekable">1</property>
  <property name="kdenlive:original.width">3840</property>
  <property name="kdenlive:original.height">2160</property>
  <property name="kdenlive:original.meta.media.sample_aspect_num">1</property>
  <property name="kdenlive:original.meta.media.sample_aspect_den">1</property>
  <property name="kdenlive:original.aspect_ratio">1</property>
  <property name="kdenlive:original.audio_index">-1</property>
  <property name="kdenlive:original.video_index">0</property>
  <property name="kdenlive:original.mute_on_pause">1</property>
  <property name="kdenlive:original.mlt_service">avformat</property>
  <property name="kdenlive:original.meta.media.frame_rate_num">60</property>
  <property name="kdenlive:original.meta.media.frame_rate_den">1</property>
  <property name="kdenlive:original.meta.media.colorspace">709</property>
  <property name="kdenlive:original.meta.media.color_trc">2</property>
  <property name="kdenlive:original.meta.media.width">3840</property>
  <property name="kdenlive:original.meta.media.height">2160</property>
  <property name="kdenlive:original.meta.media.color_range">mpeg</property>
  <property name="kdenlive:original.meta.media.top_field_first">0</property>
  <property name="kdenlive:original.meta.media.progressive">1</property>
  <property name="kdenlive:original.backup">1</property>
 </producer>
 <producer id="producer306" in="00:00:00.000" out="00:00:04.983">
  <property name="length">00:00:05.000</property>
  <property name="eof">pause</property>
  <property name="resource">/home/xiaoxiae/.cache/kdenlive/proxy/92a1c7d02869106151253fe5b387bb4f.png</property>
  <property name="ttl">25</property>
  <property name="aspect_ratio">1</property>
  <property name="progressive">1</property>
  <property name="seekable">1</property>
  <property name="meta.media.width">800</property>
  <property name="meta.media.height">450</property>
  <property name="mlt_service">qimage</property>
  <property name="kdenlive:clipname">17.png</property>
  <property name="kdenlive:duration">00:00:05.000</property>
  <property name="kdenlive:folderid">277</property>
  <property name="kdenlive:id">271</property>
  <property name="kdenlive:file_size">334584</property>
  <property name="kdenlive:file_hash">92a1c7d02869106151253fe5b387bb4f</property>
  <property name="kdenlive:proxy">/home/xiaoxiae/.cache/kdenlive/proxy/92a1c7d02869106151253fe5b387bb4f.png</property>
  <property name="kdenlive:originalurl">video/Observations/17.png</property>
  <property name="global_feed">1</property>
 </producer>
 <producer id="producer307" in="00:00:00.000" out="00:00:00.983">
  <property name="length">60</property>
  <property name="eof">pause</property>
  <property name="resource">/home/xiaoxiae/.cache/kdenlive/proxy/c23d0778c5b5027551b0fcb0db201ca5.mkv</property>
  <property name="audio_index">-1</property>
  <property name="video_index">0</property>
  <property name="mute_on_pause">0</property>
  <property name="mlt_service">avformat-novalidate</property>
  <property name="seekable">1</property>
  <property name="aspect_ratio">1</property>
  <property name="kdenlive:clipname">18.mp4</property>
  <property name="kdenlive:folderid">277</property>
  <property name="kdenlive:id">272</property>
  <property name="kdenlive:file_size">126677</property>
  <property name="kdenlive:file_hash">c23d0778c5b5027551b0fcb0db201ca5</property>
  <property name="kdenlive:proxy">/home/xiaoxiae/.cache/kdenlive/proxy/c23d0778c5b5027551b0fcb0db201ca5.mkv</property>
  <property name="kdenlive:originalurl">video/Observations/18.mp4</property>
  <property name="global_feed">1</property>
  <property name="meta.media.nb_streams">1</property>
  <property name="meta.media.0.stream.type">video</property>
  <property name="meta.media.0.stream.frame_rate">60</property>
  <property name="meta.media.0.stream.sample_aspect_ratio">0</property>
  <property name="meta.media.0.codec.width">640</property>
  <property name="meta.media.0.codec.height">360</property>
  <property name="meta.media.0.codec.rotate">0</property>
  <property name="meta.media.0.codec.frame_rate">60</property>
  <property name="meta.media.0.codec.pix_fmt">yuv420p</property>
  <property name="meta.media.0.codec.sample_aspect_ratio">0</property>
  <property name="meta.media.0.codec.colorspace">601</property>
  <property name="meta.media.0.codec.name">h264</property>
  <property name="meta.media.0.codec.long_name">H.264 / AVC / MPEG-4 AVC / MPEG-4 part 10</property>
  <property name="meta.media.0.codec.bit_rate">0</property>
  <property name="meta.attr.0.stream.HANDLER_NAME.markup">VideoHandler</property>
  <property name="meta.attr.0.stream.VENDOR_ID.markup">[0][0][0][0]</property>
  <property name="meta.attr.0.stream.ENCODER.markup">Lavc58.134.100 libx264</property>
  <property name="meta.attr.0.stream.DURATION.markup">00:00:01.000000000</property>
  <property name="meta.attr.COMMENT.markup">Rendered with Manim Community v0.6.0</property>
  <property name="meta.attr.MAJOR_BRAND.markup">isom</property>
  <property name="meta.attr.MINOR_VERSION.markup">512</property>
  <property name="meta.attr.COMPATIBLE_BRANDS.markup">isomiso2avc1mp41</property>
  <property name="meta.attr.ENCODER.markup">Lavf58.76.100</property>
  <property name="meta.media.sample_aspect_num">1</property>
  <property name="meta.media.sample_aspect_den">1</property>
  <property name="meta.media.frame_rate_num">60</property>
  <property name="meta.media.frame_rate_den">1</property>
  <property name="meta.media.colorspace">601</property>
  <property name="meta.media.color_trc">2</property>
  <property name="meta.media.width">640</property>
  <property name="meta.media.height">360</property>
  <property name="meta.media.color_range">mpeg</property>
  <property name="meta.media.top_field_first">0</property>
  <property name="meta.media.progressive">1</property>
  <property name="kdenlive:original.mlt_type">producer</property>
  <property name="kdenlive:original.in">0</property>
  <property name="kdenlive:original.out">59</property>
  <property name="kdenlive:original.length">60</property>
  <property name="kdenlive:original.eof">pause</property>
  <property name="kdenlive:original.resource">video/Observations/18.mp4</property>
  <property name="kdenlive:original.meta.media.nb_streams">1</property>
  <property name="kdenlive:original.meta.media.0.stream.type">video</property>
  <property name="kdenlive:original.meta.media.0.stream.frame_rate">60</property>
  <property name="kdenlive:original.meta.media.0.stream.sample_aspect_ratio">0</property>
  <property name="kdenlive:original.meta.media.0.codec.width">3840</property>
  <property name="kdenlive:original.meta.media.0.codec.height">2160</property>
  <property name="kdenlive:original.meta.media.0.codec.rotate">0</property>
  <property name="kdenlive:original.meta.media.0.codec.frame_rate">60</property>
  <property name="kdenlive:original.meta.media.0.codec.pix_fmt">yuv420p</property>
  <property name="kdenlive:original.meta.media.0.codec.sample_aspect_ratio">0</property>
  <property name="kdenlive:original.meta.media.0.codec.colorspace">709</property>
  <property name="kdenlive:original.meta.media.0.codec.name">h264</property>
  <property name="kdenlive:original.meta.media.0.codec.long_name">H.264 / AVC / MPEG-4 AVC / MPEG-4 part 10</property>
  <property name="kdenlive:original.meta.media.0.codec.bit_rate">1000368</property>
  <property name="kdenlive:original.meta.attr.0.stream.handler_name.markup">VideoHandler</property>
  <property name="kdenlive:original.meta.attr.0.stream.vendor_id.markup">[0][0][0][0]</property>
  <property name="kdenlive:original.meta.attr.major_brand.markup">isom</property>
  <property name="kdenlive:original.meta.attr.minor_version.markup">512</property>
  <property name="kdenlive:original.meta.attr.compatible_brands.markup">isomiso2avc1mp41</property>
  <property name="kdenlive:original.meta.attr.encoder.markup">Lavf58.76.100</property>
  <property name="kdenlive:original.meta.attr.comment.markup">Rendered with Manim Community v0.6.0</property>
  <property name="kdenlive:original.seekable">1</property>
  <property name="kdenlive:original.width">3840</property>
  <property name="kdenlive:original.height">2160</property>
  <property name="kdenlive:original.meta.media.sample_aspect_num">1</property>
  <property name="kdenlive:original.meta.media.sample_aspect_den">1</property>
  <property name="kdenlive:original.aspect_ratio">1</property>
  <property name="kdenlive:original.audio_index">-1</property>
  <property name="kdenlive:original.video_index">0</property>
  <property name="kdenlive:original.mute_on_pause">1</property>
  <property name="kdenlive:original.mlt_service">avformat</property>
  <property name="kdenlive:original.meta.media.frame_rate_num">60</property>
  <property name="kdenlive:original.meta.media.frame_rate_den">1</property>
  <property name="kdenlive:original.meta.media.colorspace">709</property>
  <property name="kdenlive:original.meta.media.color_trc">2</property>
  <property name="kdenlive:original.meta.media.width">3840</property>
  <property name="kdenlive:original.meta.media.height">2160</property>
  <property name="kdenlive:original.meta.media.color_range">mpeg</property>
  <property name="kdenlive:original.meta.media.top_field_first">0</property>
  <property name="kdenlive:original.meta.media.progressive">1</property>
  <property name="kdenlive:original.backup">1</property>
 </producer>
 <producer id="producer308" in="00:00:00.000" out="00:00:04.983">
  <property name="length">00:00:05.000</property>
  <property name="eof">pause</property>
  <property name="resource">/home/xiaoxiae/.cache/kdenlive/proxy/3fb696a9a83691140c77e6911e5c60d4.png</property>
  <property name="ttl">25</property>
  <property name="aspect_ratio">1</property>
  <property name="progressive">1</property>
  <property name="seekable">1</property>
  <property name="meta.media.width">800</property>
  <property name="meta.media.height">450</property>
  <property name="mlt_service">qimage</property>
  <property name="kdenlive:clipname">18.png</property>
  <property name="kdenlive:duration">00:00:05.000</property>
  <property name="kdenlive:folderid">277</property>
  <property name="kdenlive:id">273</property>
  <property name="kdenlive:file_size">347960</property>
  <property name="kdenlive:file_hash">3fb696a9a83691140c77e6911e5c60d4</property>
  <property name="kdenlive:proxy">/home/xiaoxiae/.cache/kdenlive/proxy/3fb696a9a83691140c77e6911e5c60d4.png</property>
  <property name="kdenlive:originalurl">video/Observations/18.png</property>
  <property name="global_feed">1</property>
 </producer>
 <producer id="producer309" in="00:00:00.000" out="00:00:00.983">
  <property name="length">60</property>
  <property name="eof">pause</property>
  <property name="resource">/home/xiaoxiae/.cache/kdenlive/proxy/c01b8f1efb737d8bfa99dc173751c1ed.mkv</property>
  <property name="audio_index">-1</property>
  <property name="video_index">0</property>
  <property name="mute_on_pause">0</property>
  <property name="mlt_service">avformat-novalidate</property>
  <property name="seekable">1</property>
  <property name="aspect_ratio">1</property>
  <property name="kdenlive:clipname">19.mp4</property>
  <property name="kdenlive:folderid">277</property>
  <property name="kdenlive:id">274</property>
  <property name="kdenlive:file_size">98278</property>
  <property name="kdenlive:file_hash">c01b8f1efb737d8bfa99dc173751c1ed</property>
  <property name="kdenlive:proxy">/home/xiaoxiae/.cache/kdenlive/proxy/c01b8f1efb737d8bfa99dc173751c1ed.mkv</property>
  <property name="kdenlive:originalurl">video/Observations/19.mp4</property>
  <property name="global_feed">1</property>
  <property name="meta.media.nb_streams">1</property>
  <property name="meta.media.0.stream.type">video</property>
  <property name="meta.media.0.stream.frame_rate">60</property>
  <property name="meta.media.0.stream.sample_aspect_ratio">0</property>
  <property name="meta.media.0.codec.width">640</property>
  <property name="meta.media.0.codec.height">360</property>
  <property name="meta.media.0.codec.rotate">0</property>
  <property name="meta.media.0.codec.frame_rate">60</property>
  <property name="meta.media.0.codec.pix_fmt">yuv420p</property>
  <property name="meta.media.0.codec.sample_aspect_ratio">0</property>
  <property name="meta.media.0.codec.colorspace">601</property>
  <property name="meta.media.0.codec.name">h264</property>
  <property name="meta.media.0.codec.long_name">H.264 / AVC / MPEG-4 AVC / MPEG-4 part 10</property>
  <property name="meta.media.0.codec.bit_rate">0</property>
  <property name="meta.attr.0.stream.HANDLER_NAME.markup">VideoHandler</property>
  <property name="meta.attr.0.stream.VENDOR_ID.markup">[0][0][0][0]</property>
  <property name="meta.attr.0.stream.ENCODER.markup">Lavc58.134.100 libx264</property>
  <property name="meta.attr.0.stream.DURATION.markup">00:00:01.000000000</property>
  <property name="meta.attr.COMMENT.markup">Rendered with Manim Community v0.6.0</property>
  <property name="meta.attr.MAJOR_BRAND.markup">isom</property>
  <property name="meta.attr.MINOR_VERSION.markup">512</property>
  <property name="meta.attr.COMPATIBLE_BRANDS.markup">isomiso2avc1mp41</property>
  <property name="meta.attr.ENCODER.markup">Lavf58.76.100</property>
  <property name="meta.media.sample_aspect_num">1</property>
  <property name="meta.media.sample_aspect_den">1</property>
  <property name="meta.media.frame_rate_num">60</property>
  <property name="meta.media.frame_rate_den">1</property>
  <property name="meta.media.colorspace">601</property>
  <property name="meta.media.color_trc">2</property>
  <property name="meta.media.width">640</property>
  <property name="meta.media.height">360</property>
  <property name="meta.media.color_range">mpeg</property>
  <property name="meta.media.top_field_first">0</property>
  <property name="meta.media.progressive">1</property>
  <property name="kdenlive:original.mlt_type">producer</property>
  <property name="kdenlive:original.in">0</property>
  <property name="kdenlive:original.out">59</property>
  <property name="kdenlive:original.length">60</property>
  <property name="kdenlive:original.eof">pause</property>
  <property name="kdenlive:original.resource">video/Observations/19.mp4</property>
  <property name="kdenlive:original.meta.media.nb_streams">1</property>
  <property name="kdenlive:original.meta.media.0.stream.type">video</property>
  <property name="kdenlive:original.meta.media.0.stream.frame_rate">60</property>
  <property name="kdenlive:original.meta.media.0.stream.sample_aspect_ratio">0</property>
  <property name="kdenlive:original.meta.media.0.codec.width">3840</property>
  <property name="kdenlive:original.meta.media.0.codec.height">2160</property>
  <property name="kdenlive:original.meta.media.0.codec.rotate">0</property>
  <property name="kdenlive:original.meta.media.0.codec.frame_rate">60</property>
  <property name="kdenlive:original.meta.media.0.codec.pix_fmt">yuv420p</property>
  <property name="kdenlive:original.meta.media.0.codec.sample_aspect_ratio">0</property>
  <property name="kdenlive:original.meta.media.0.codec.colorspace">709</property>
  <property name="kdenlive:original.meta.media.0.codec.name">h264</property>
  <property name="kdenlive:original.meta.media.0.codec.long_name">H.264 / AVC / MPEG-4 AVC / MPEG-4 part 10</property>
  <property name="kdenlive:original.meta.media.0.codec.bit_rate">773176</property>
  <property name="kdenlive:original.meta.attr.0.stream.handler_name.markup">VideoHandler</property>
  <property name="kdenlive:original.meta.attr.0.stream.vendor_id.markup">[0][0][0][0]</property>
  <property name="kdenlive:original.meta.attr.major_brand.markup">isom</property>
  <property name="kdenlive:original.meta.attr.minor_version.markup">512</property>
  <property name="kdenlive:original.meta.attr.compatible_brands.markup">isomiso2avc1mp41</property>
  <property name="kdenlive:original.meta.attr.encoder.markup">Lavf58.76.100</property>
  <property name="kdenlive:original.meta.attr.comment.markup">Rendered with Manim Community v0.6.0</property>
  <property name="kdenlive:original.seekable">1</property>
  <property name="kdenlive:original.width">3840</property>
  <property name="kdenlive:original.height">2160</property>
  <property name="kdenlive:original.meta.media.sample_aspect_num">1</property>
  <property name="kdenlive:original.meta.media.sample_aspect_den">1</property>
  <property name="kdenlive:original.aspect_ratio">1</property>
  <property name="kdenlive:original.audio_index">-1</property>
  <property name="kdenlive:original.video_index">0</property>
  <property name="kdenlive:original.mute_on_pause">1</property>
  <property name="kdenlive:original.mlt_service">avformat</property>
  <property name="kdenlive:original.meta.media.frame_rate_num">60</property>
  <property name="kdenlive:original.meta.media.frame_rate_den">1</property>
  <property name="kdenlive:original.meta.media.colorspace">709</property>
  <property name="kdenlive:original.meta.media.color_trc">2</property>
  <property name="kdenlive:original.meta.media.width">3840</property>
  <property name="kdenlive:original.meta.media.height">2160</property>
  <property name="kdenlive:original.meta.media.color_range">mpeg</property>
  <property name="kdenlive:original.meta.media.top_field_first">0</property>
  <property name="kdenlive:original.meta.media.progressive">1</property>
  <property name="kdenlive:original.backup">1</property>
 </producer>
 <producer id="producer311" in="00:00:00.000" out="00:00:04.983">
  <property name="length">00:00:05.000</property>
  <property name="eof">pause</property>
  <property name="resource">/home/xiaoxiae/.cache/kdenlive/proxy/952c4f85a8bf6852e72013401fdb60f1.png</property>
  <property name="ttl">25</property>
  <property name="aspect_ratio">1</property>
  <property name="progressive">1</property>
  <property name="seekable">1</property>
  <property name="meta.media.width">800</property>
  <property name="meta.media.height">450</property>
  <property name="mlt_service">qimage</property>
  <property name="kdenlive:clipname">19.png</property>
  <property name="kdenlive:duration">00:00:05.000</property>
  <property name="kdenlive:folderid">277</property>
  <property name="kdenlive:id">275</property>
  <property name="kdenlive:file_size">345901</property>
  <property name="kdenlive:file_hash">952c4f85a8bf6852e72013401fdb60f1</property>
  <property name="kdenlive:proxy">/home/xiaoxiae/.cache/kdenlive/proxy/952c4f85a8bf6852e72013401fdb60f1.png</property>
  <property name="kdenlive:originalurl">video/Observations/19.png</property>
  <property name="global_feed">1</property>
 </producer>
 <producer id="producer310" in="00:00:00.000" out="00:00:00.983">
  <property name="length">60</property>
  <property name="eof">pause</property>
  <property name="resource">/home/xiaoxiae/.cache/kdenlive/proxy/f6d496e00b424906f5cd0640c3a90ad5.mkv</property>
  <property name="audio_index">-1</property>
  <property name="video_index">0</property>
  <property name="mute_on_pause">0</property>
  <property name="mlt_service">avformat-novalidate</property>
  <property name="seekable">1</property>
  <property name="aspect_ratio">1</property>
  <property name="kdenlive:clipname">2.mp4</property>
  <property name="kdenlive:folderid">277</property>
  <property name="kdenlive:id">276</property>
  <property name="kdenlive:file_size">65071</property>
  <property name="kdenlive:file_hash">f6d496e00b424906f5cd0640c3a90ad5</property>
  <property name="kdenlive:proxy">/home/xiaoxiae/.cache/kdenlive/proxy/f6d496e00b424906f5cd0640c3a90ad5.mkv</property>
  <property name="kdenlive:originalurl">video/Observations/2.mp4</property>
  <property name="global_feed">1</property>
  <property name="meta.media.nb_streams">1</property>
  <property name="meta.media.0.stream.type">video</property>
  <property name="meta.media.0.stream.frame_rate">60</property>
  <property name="meta.media.0.stream.sample_aspect_ratio">0</property>
  <property name="meta.media.0.codec.width">640</property>
  <property name="meta.media.0.codec.height">360</property>
  <property name="meta.media.0.codec.rotate">0</property>
  <property name="meta.media.0.codec.frame_rate">60</property>
  <property name="meta.media.0.codec.pix_fmt">yuv420p</property>
  <property name="meta.media.0.codec.sample_aspect_ratio">0</property>
  <property name="meta.media.0.codec.colorspace">601</property>
  <property name="meta.media.0.codec.name">h264</property>
  <property name="meta.media.0.codec.long_name">H.264 / AVC / MPEG-4 AVC / MPEG-4 part 10</property>
  <property name="meta.media.0.codec.bit_rate">0</property>
  <property name="meta.attr.0.stream.HANDLER_NAME.markup">VideoHandler</property>
  <property name="meta.attr.0.stream.VENDOR_ID.markup">[0][0][0][0]</property>
  <property name="meta.attr.0.stream.ENCODER.markup">Lavc58.134.100 libx264</property>
  <property name="meta.attr.0.stream.DURATION.markup">00:00:01.000000000</property>
  <property name="meta.attr.COMMENT.markup">Rendered with Manim Community v0.6.0</property>
  <property name="meta.attr.MAJOR_BRAND.markup">isom</property>
  <property name="meta.attr.MINOR_VERSION.markup">512</property>
  <property name="meta.attr.COMPATIBLE_BRANDS.markup">isomiso2avc1mp41</property>
  <property name="meta.attr.ENCODER.markup">Lavf58.76.100</property>
  <property name="meta.media.sample_aspect_num">1</property>
  <property name="meta.media.sample_aspect_den">1</property>
  <property name="meta.media.frame_rate_num">60</property>
  <property name="meta.media.frame_rate_den">1</property>
  <property name="meta.media.colorspace">601</property>
  <property name="meta.media.color_trc">2</property>
  <property name="meta.media.width">640</property>
  <property name="meta.media.height">360</property>
  <property name="meta.media.color_range">mpeg</property>
  <property name="meta.media.top_field_first">0</property>
  <property name="meta.media.progressive">1</property>
  <property name="kdenlive:original.mlt_type">producer</property>
  <property name="kdenlive:original.in">0</property>
  <property name="kdenlive:original.out">59</property>
  <property name="kdenlive:original.length">60</property>
  <property name="kdenlive:original.eof">pause</property>
  <property name="kdenlive:original.resource">video/Observations/2.mp4</property>
  <property name="kdenlive:original.meta.media.nb_streams">1</property>
  <property name="kdenlive:original.meta.media.0.stream.type">video</property>
  <property name="kdenlive:original.meta.media.0.stream.frame_rate">60</property>
  <property name="kdenlive:original.meta.media.0.stream.sample_aspect_ratio">0</property>
  <property name="kdenlive:original.meta.media.0.codec.width">3840</property>
  <property name="kdenlive:original.meta.media.0.codec.height">2160</property>
  <property name="kdenlive:original.meta.media.0.codec.rotate">0</property>
  <property name="kdenlive:original.meta.media.0.codec.frame_rate">60</property>
  <property name="kdenlive:original.meta.media.0.codec.pix_fmt">yuv420p</property>
  <property name="kdenlive:original.meta.media.0.codec.sample_aspect_ratio">0</property>
  <property name="kdenlive:original.meta.media.0.codec.colorspace">709</property>
  <property name="kdenlive:original.meta.media.0.codec.name">h264</property>
  <property name="kdenlive:original.meta.media.0.codec.long_name">H.264 / AVC / MPEG-4 AVC / MPEG-4 part 10</property>
  <property name="kdenlive:original.meta.media.0.codec.bit_rate">507776</property>
  <property name="kdenlive:original.meta.attr.0.stream.handler_name.markup">VideoHandler</property>
  <property name="kdenlive:original.meta.attr.0.stream.vendor_id.markup">[0][0][0][0]</property>
  <property name="kdenlive:original.meta.attr.major_brand.markup">isom</property>
  <property name="kdenlive:original.meta.attr.minor_version.markup">512</property>
  <property name="kdenlive:original.meta.attr.compatible_brands.markup">isomiso2avc1mp41</property>
  <property name="kdenlive:original.meta.attr.encoder.markup">Lavf58.76.100</property>
  <property name="kdenlive:original.meta.attr.comment.markup">Rendered with Manim Community v0.6.0</property>
  <property name="kdenlive:original.seekable">1</property>
  <property name="kdenlive:original.width">3840</property>
  <property name="kdenlive:original.height">2160</property>
  <property name="kdenlive:original.meta.media.sample_aspect_num">1</property>
  <property name="kdenlive:original.meta.media.sample_aspect_den">1</property>
  <property name="kdenlive:original.aspect_ratio">1</property>
  <property name="kdenlive:original.audio_index">-1</property>
  <property name="kdenlive:original.video_index">0</property>
  <property name="kdenlive:original.mute_on_pause">1</property>
  <property name="kdenlive:original.mlt_service">avformat</property>
  <property name="kdenlive:original.meta.media.frame_rate_num">60</property>
  <property name="kdenlive:original.meta.media.frame_rate_den">1</property>
  <property name="kdenlive:original.meta.media.colorspace">709</property>
  <property name="kdenlive:original.meta.media.color_trc">2</property>
  <property name="kdenlive:original.meta.media.width">3840</property>
  <property name="kdenlive:original.meta.media.height">2160</property>
  <property name="kdenlive:original.meta.media.color_range">mpeg</property>
  <property name="kdenlive:original.meta.media.top_field_first">0</property>
  <property name="kdenlive:original.meta.media.progressive">1</property>
  <property name="kdenlive:original.backup">1</property>
 </producer>
 <producer id="producer312" in="00:00:00.000" out="00:00:04.983">
  <property name="length">00:00:05.000</property>
  <property name="eof">pause</property>
  <property name="resource">/home/xiaoxiae/.cache/kdenlive/proxy/d330d987c5dabac88bcf7dd83bf81d7b.png</property>
  <property name="ttl">25</property>
  <property name="aspect_ratio">1</property>
  <property name="progressive">1</property>
  <property name="seekable">1</property>
  <property name="meta.media.width">800</property>
  <property name="meta.media.height">450</property>
  <property name="mlt_service">qimage</property>
  <property name="kdenlive:clipname">2.png</property>
  <property name="kdenlive:duration">00:00:05.000</property>
  <property name="kdenlive:folderid">277</property>
  <property name="kdenlive:id">278</property>
  <property name="kdenlive:file_size">78259</property>
  <property name="kdenlive:file_hash">d330d987c5dabac88bcf7dd83bf81d7b</property>
  <property name="kdenlive:proxy">/home/xiaoxiae/.cache/kdenlive/proxy/d330d987c5dabac88bcf7dd83bf81d7b.png</property>
  <property name="kdenlive:originalurl">video/Observations/2.png</property>
  <property name="global_feed">1</property>
 </producer>
 <producer id="producer314" in="00:00:00.000" out="00:00:00.983">
  <property name="length">60</property>
  <property name="eof">pause</property>
  <property name="resource">/home/xiaoxiae/.cache/kdenlive/proxy/c38365c60c2ff38a4996e7c4b74af01d.mkv</property>
  <property name="audio_index">-1</property>
  <property name="video_index">0</property>
  <property name="mute_on_pause">0</property>
  <property name="mlt_service">avformat-novalidate</property>
  <property name="seekable">1</property>
  <property name="aspect_ratio">1</property>
  <property name="kdenlive:clipname">20.mp4</property>
  <property name="kdenlive:folderid">277</property>
  <property name="kdenlive:id">279</property>
  <property name="kdenlive:file_size">112444</property>
  <property name="kdenlive:file_hash">c38365c60c2ff38a4996e7c4b74af01d</property>
  <property name="kdenlive:proxy">/home/xiaoxiae/.cache/kdenlive/proxy/c38365c60c2ff38a4996e7c4b74af01d.mkv</property>
  <property name="kdenlive:originalurl">video/Observations/20.mp4</property>
  <property name="global_feed">1</property>
  <property name="meta.media.nb_streams">1</property>
  <property name="meta.media.0.stream.type">video</property>
  <property name="meta.media.0.stream.frame_rate">60</property>
  <property name="meta.media.0.stream.sample_aspect_ratio">0</property>
  <property name="meta.media.0.codec.width">640</property>
  <property name="meta.media.0.codec.height">360</property>
  <property name="meta.media.0.codec.rotate">0</property>
  <property name="meta.media.0.codec.frame_rate">60</property>
  <property name="meta.media.0.codec.pix_fmt">yuv420p</property>
  <property name="meta.media.0.codec.sample_aspect_ratio">0</property>
  <property name="meta.media.0.codec.colorspace">601</property>
  <property name="meta.media.0.codec.name">h264</property>
  <property name="meta.media.0.codec.long_name">H.264 / AVC / MPEG-4 AVC / MPEG-4 part 10</property>
  <property name="meta.media.0.codec.bit_rate">0</property>
  <property name="meta.attr.0.stream.HANDLER_NAME.markup">VideoHandler</property>
  <property name="meta.attr.0.stream.VENDOR_ID.markup">[0][0][0][0]</property>
  <property name="meta.attr.0.stream.ENCODER.markup">Lavc58.134.100 libx264</property>
  <property name="meta.attr.0.stream.DURATION.markup">00:00:01.000000000</property>
  <property name="meta.attr.COMMENT.markup">Rendered with Manim Community v0.6.0</property>
  <property name="meta.attr.MAJOR_BRAND.markup">isom</property>
  <property name="meta.attr.MINOR_VERSION.markup">512</property>
  <property name="meta.attr.COMPATIBLE_BRANDS.markup">isomiso2avc1mp41</property>
  <property name="meta.attr.ENCODER.markup">Lavf58.76.100</property>
  <property name="meta.media.sample_aspect_num">1</property>
  <property name="meta.media.sample_aspect_den">1</property>
  <property name="meta.media.frame_rate_num">60</property>
  <property name="meta.media.frame_rate_den">1</property>
  <property name="meta.media.colorspace">601</property>
  <property name="meta.media.color_trc">2</property>
  <property name="meta.media.width">640</property>
  <property name="meta.media.height">360</property>
  <property name="meta.media.color_range">mpeg</property>
  <property name="meta.media.top_field_first">0</property>
  <property name="meta.media.progressive">1</property>
  <property name="kdenlive:original.mlt_type">producer</property>
  <property name="kdenlive:original.in">0</property>
  <property name="kdenlive:original.out">59</property>
  <property name="kdenlive:original.length">60</property>
  <property name="kdenlive:original.eof">pause</property>
  <property name="kdenlive:original.resource">video/Observations/20.mp4</property>
  <property name="kdenlive:original.meta.media.nb_streams">1</property>
  <property name="kdenlive:original.meta.media.0.stream.type">video</property>
  <property name="kdenlive:original.meta.media.0.stream.frame_rate">60</property>
  <property name="kdenlive:original.meta.media.0.stream.sample_aspect_ratio">0</property>
  <property name="kdenlive:original.meta.media.0.codec.width">3840</property>
  <property name="kdenlive:original.meta.media.0.codec.height">2160</property>
  <property name="kdenlive:original.meta.media.0.codec.rotate">0</property>
  <property name="kdenlive:original.meta.media.0.codec.frame_rate">60</property>
  <property name="kdenlive:original.meta.media.0.codec.pix_fmt">yuv420p</property>
  <property name="kdenlive:original.meta.media.0.codec.sample_aspect_ratio">0</property>
  <property name="kdenlive:original.meta.media.0.codec.colorspace">709</property>
  <property name="kdenlive:original.meta.media.0.codec.name">h264</property>
  <property name="kdenlive:original.meta.media.0.codec.long_name">H.264 / AVC / MPEG-4 AVC / MPEG-4 part 10</property>
  <property name="kdenlive:original.meta.media.0.codec.bit_rate">886504</property>
  <property name="kdenlive:original.meta.attr.0.stream.handler_name.markup">VideoHandler</property>
  <property name="kdenlive:original.meta.attr.0.stream.vendor_id.markup">[0][0][0][0]</property>
  <property name="kdenlive:original.meta.attr.major_brand.markup">isom</property>
  <property name="kdenlive:original.meta.attr.minor_version.markup">512</property>
  <property name="kdenlive:original.meta.attr.compatible_brands.markup">isomiso2avc1mp41</property>
  <property name="kdenlive:original.meta.attr.encoder.markup">Lavf58.76.100</property>
  <property name="kdenlive:original.meta.attr.comment.markup">Rendered with Manim Community v0.6.0</property>
  <property name="kdenlive:original.seekable">1</property>
  <property name="kdenlive:original.width">3840</property>
  <property name="kdenlive:original.height">2160</property>
  <property name="kdenlive:original.meta.media.sample_aspect_num">1</property>
  <property name="kdenlive:original.meta.media.sample_aspect_den">1</property>
  <property name="kdenlive:original.aspect_ratio">1</property>
  <property name="kdenlive:original.audio_index">-1</property>
  <property name="kdenlive:original.video_index">0</property>
  <property name="kdenlive:original.mute_on_pause">1</property>
  <property name="kdenlive:original.mlt_service">avformat</property>
  <property name="kdenlive:original.meta.media.frame_rate_num">60</property>
  <property name="kdenlive:original.meta.media.frame_rate_den">1</property>
  <property name="kdenlive:original.meta.media.colorspace">709</property>
  <property name="kdenlive:original.meta.media.color_trc">2</property>
  <property name="kdenlive:original.meta.media.width">3840</property>
  <property name="kdenlive:original.meta.media.height">2160</property>
  <property name="kdenlive:original.meta.media.color_range">mpeg</property>
  <property name="kdenlive:original.meta.media.top_field_first">0</property>
  <property name="kdenlive:original.meta.media.progressive">1</property>
  <property name="kdenlive:original.backup">1</property>
 </producer>
 <producer id="producer313" in="00:00:00.000" out="00:00:04.983">
  <property name="length">00:00:05.000</property>
  <property name="eof">pause</property>
  <property name="resource">/home/xiaoxiae/.cache/kdenlive/proxy/9dfecc3e24abb2416b52bedf4d237625.png</property>
  <property name="ttl">25</property>
  <property name="aspect_ratio">1</property>
  <property name="progressive">1</property>
  <property name="seekable">1</property>
  <property name="meta.media.width">800</property>
  <property name="meta.media.height">450</property>
  <property name="mlt_service">qimage</property>
  <property name="kdenlive:clipname">20.png</property>
  <property name="kdenlive:duration">00:00:05.000</property>
  <property name="kdenlive:folderid">277</property>
  <property name="kdenlive:id">280</property>
  <property name="kdenlive:file_size">340983</property>
  <property name="kdenlive:file_hash">9dfecc3e24abb2416b52bedf4d237625</property>
  <property name="kdenlive:proxy">/home/xiaoxiae/.cache/kdenlive/proxy/9dfecc3e24abb2416b52bedf4d237625.png</property>
  <property name="kdenlive:originalurl">video/Observations/20.png</property>
  <property name="global_feed">1</property>
 </producer>
 <producer id="producer315" in="00:00:00.000" out="00:00:00.983">
  <property name="length">60</property>
  <property name="eof">pause</property>
  <property name="resource">/home/xiaoxiae/.cache/kdenlive/proxy/d0216017fc80f0aad6b436156bc123c9.mkv</property>
  <property name="audio_index">-1</property>
  <property name="video_index">0</property>
  <property name="mute_on_pause">0</property>
  <property name="mlt_service">avformat-novalidate</property>
  <property name="seekable">1</property>
  <property name="aspect_ratio">1</property>
  <property name="kdenlive:clipname">21.mp4</property>
  <property name="kdenlive:folderid">277</property>
  <property name="kdenlive:id">281</property>
  <property name="kdenlive:file_size">94067</property>
  <property name="kdenlive:file_hash">d0216017fc80f0aad6b436156bc123c9</property>
  <property name="kdenlive:proxy">/home/xiaoxiae/.cache/kdenlive/proxy/d0216017fc80f0aad6b436156bc123c9.mkv</property>
  <property name="kdenlive:originalurl">video/Observations/21.mp4</property>
  <property name="global_feed">1</property>
  <property name="meta.media.nb_streams">1</property>
  <property name="meta.media.0.stream.type">video</property>
  <property name="meta.media.0.stream.frame_rate">60</property>
  <property name="meta.media.0.stream.sample_aspect_ratio">0</property>
  <property name="meta.media.0.codec.width">640</property>
  <property name="meta.media.0.codec.height">360</property>
  <property name="meta.media.0.codec.rotate">0</property>
  <property name="meta.media.0.codec.frame_rate">60</property>
  <property name="meta.media.0.codec.pix_fmt">yuv420p</property>
  <property name="meta.media.0.codec.sample_aspect_ratio">0</property>
  <property name="meta.media.0.codec.colorspace">601</property>
  <property name="meta.media.0.codec.name">h264</property>
  <property name="meta.media.0.codec.long_name">H.264 / AVC / MPEG-4 AVC / MPEG-4 part 10</property>
  <property name="meta.media.0.codec.bit_rate">0</property>
  <property name="meta.attr.0.stream.HANDLER_NAME.markup">VideoHandler</property>
  <property name="meta.attr.0.stream.VENDOR_ID.markup">[0][0][0][0]</property>
  <property name="meta.attr.0.stream.ENCODER.markup">Lavc58.134.100 libx264</property>
  <property name="meta.attr.0.stream.DURATION.markup">00:00:01.000000000</property>
  <property name="meta.attr.COMMENT.markup">Rendered with Manim Community v0.6.0</property>
  <property name="meta.attr.MAJOR_BRAND.markup">isom</property>
  <property name="meta.attr.MINOR_VERSION.markup">512</property>
  <property name="meta.attr.COMPATIBLE_BRANDS.markup">isomiso2avc1mp41</property>
  <property name="meta.attr.ENCODER.markup">Lavf58.76.100</property>
  <property name="meta.media.sample_aspect_num">1</property>
  <property name="meta.media.sample_aspect_den">1</property>
  <property name="meta.media.frame_rate_num">60</property>
  <property name="meta.media.frame_rate_den">1</property>
  <property name="meta.media.colorspace">601</property>
  <property name="meta.media.color_trc">2</property>
  <property name="meta.media.width">640</property>
  <property name="meta.media.height">360</property>
  <property name="meta.media.color_range">mpeg</property>
  <property name="meta.media.top_field_first">0</property>
  <property name="meta.media.progressive">1</property>
  <property name="kdenlive:original.mlt_type">producer</property>
  <property name="kdenlive:original.in">0</property>
  <property name="kdenlive:original.out">59</property>
  <property name="kdenlive:original.length">60</property>
  <property name="kdenlive:original.eof">pause</property>
  <property name="kdenlive:original.resource">video/Observations/21.mp4</property>
  <property name="kdenlive:original.meta.media.nb_streams">1</property>
  <property name="kdenlive:original.meta.media.0.stream.type">video</property>
  <property name="kdenlive:original.meta.media.0.stream.frame_rate">60</property>
  <property name="kdenlive:original.meta.media.0.stream.sample_aspect_ratio">0</property>
  <property name="kdenlive:original.meta.media.0.codec.width">3840</property>
  <property name="kdenlive:original.meta.media.0.codec.height">2160</property>
  <property name="kdenlive:original.meta.media.0.codec.rotate">0</property>
  <property name="kdenlive:original.meta.media.0.codec.frame_rate">60</property>
  <property name="kdenlive:original.meta.media.0.codec.pix_fmt">yuv420p</property>
  <property name="kdenlive:original.meta.media.0.codec.sample_aspect_ratio">0</property>
  <property name="kdenlive:original.meta.media.0.codec.colorspace">709</property>
  <property name="kdenlive:original.meta.media.0.codec.name">h264</property>
  <property name="kdenlive:original.meta.media.0.codec.long_name">H.264 / AVC / MPEG-4 AVC / MPEG-4 part 10</property>
  <property name="kdenlive:original.meta.media.0.codec.bit_rate">739488</property>
  <property name="kdenlive:original.meta.attr.0.stream.handler_name.markup">VideoHandler</property>
  <property name="kdenlive:original.meta.attr.0.stream.vendor_id.markup">[0][0][0][0]</property>
  <property name="kdenlive:original.meta.attr.major_brand.markup">isom</property>
  <property name="kdenlive:original.meta.attr.minor_version.markup">512</property>
  <property name="kdenlive:original.meta.attr.compatible_brands.markup">isomiso2avc1mp41</property>
  <property name="kdenlive:original.meta.attr.encoder.markup">Lavf58.76.100</property>
  <property name="kdenlive:original.meta.attr.comment.markup">Rendered with Manim Community v0.6.0</property>
  <property name="kdenlive:original.seekable">1</property>
  <property name="kdenlive:original.width">3840</property>
  <property name="kdenlive:original.height">2160</property>
  <property name="kdenlive:original.meta.media.sample_aspect_num">1</property>
  <property name="kdenlive:original.meta.media.sample_aspect_den">1</property>
  <property name="kdenlive:original.aspect_ratio">1</property>
  <property name="kdenlive:original.audio_index">-1</property>
  <property name="kdenlive:original.video_index">0</property>
  <property name="kdenlive:original.mute_on_pause">1</property>
  <property name="kdenlive:original.mlt_service">avformat</property>
  <property name="kdenlive:original.meta.media.frame_rate_num">60</property>
  <property name="kdenlive:original.meta.media.frame_rate_den">1</property>
  <property name="kdenlive:original.meta.media.colorspace">709</property>
  <property name="kdenlive:original.meta.media.color_trc">2</property>
  <property name="kdenlive:original.meta.media.width">3840</property>
  <property name="kdenlive:original.meta.media.height">2160</property>
  <property name="kdenlive:original.meta.media.color_range">mpeg</property>
  <property name="kdenlive:original.meta.media.top_field_first">0</property>
  <property name="kdenlive:original.meta.media.progressive">1</property>
  <property name="kdenlive:original.backup">1</property>
 </producer>
 <producer id="producer316" in="00:00:00.000" out="00:00:04.983">
  <property name="length">00:00:05.000</property>
  <property name="eof">pause</property>
  <property name="resource">/home/xiaoxiae/.cache/kdenlive/proxy/acd576895730bf2f56bc221c0b9dd02d.png</property>
  <property name="ttl">25</property>
  <property name="aspect_ratio">1</property>
  <property name="progressive">1</property>
  <property name="seekable">1</property>
  <property name="meta.media.width">800</property>
  <property name="meta.media.height">450</property>
  <property name="mlt_service">qimage</property>
  <property name="kdenlive:clipname">21.png</property>
  <property name="kdenlive:duration">00:00:05.000</property>
  <property name="kdenlive:folderid">277</property>
  <property name="kdenlive:id">282</property>
  <property name="kdenlive:file_size">338588</property>
  <property name="kdenlive:file_hash">acd576895730bf2f56bc221c0b9dd02d</property>
  <property name="kdenlive:proxy">/home/xiaoxiae/.cache/kdenlive/proxy/acd576895730bf2f56bc221c0b9dd02d.png</property>
  <property name="kdenlive:originalurl">video/Observations/21.png</property>
  <property name="global_feed">1</property>
 </producer>
 <producer id="producer318" in="00:00:00.000" out="00:00:00.983">
  <property name="length">60</property>
  <property name="eof">pause</property>
  <property name="resource">/home/xiaoxiae/.cache/kdenlive/proxy/ecaa26545d0d3ac402033fb4072320eb.mkv</property>
  <property name="audio_index">-1</property>
  <property name="video_index">0</property>
  <property name="mute_on_pause">0</property>
  <property name="mlt_service">avformat-novalidate</property>
  <property name="seekable">1</property>
  <property name="aspect_ratio">1</property>
  <property name="kdenlive:clipname">22.mp4</property>
  <property name="kdenlive:folderid">277</property>
  <property name="kdenlive:id">283</property>
  <property name="kdenlive:file_size">121972</property>
  <property name="kdenlive:file_hash">ecaa26545d0d3ac402033fb4072320eb</property>
  <property name="kdenlive:proxy">/home/xiaoxiae/.cache/kdenlive/proxy/ecaa26545d0d3ac402033fb4072320eb.mkv</property>
  <property name="kdenlive:originalurl">video/Observations/22.mp4</property>
  <property name="global_feed">1</property>
  <property name="meta.media.nb_streams">1</property>
  <property name="meta.media.0.stream.type">video</property>
  <property name="meta.media.0.stream.frame_rate">60</property>
  <property name="meta.media.0.stream.sample_aspect_ratio">0</property>
  <property name="meta.media.0.codec.width">640</property>
  <property name="meta.media.0.codec.height">360</property>
  <property name="meta.media.0.codec.rotate">0</property>
  <property name="meta.media.0.codec.frame_rate">60</property>
  <property name="meta.media.0.codec.pix_fmt">yuv420p</property>
  <property name="meta.media.0.codec.sample_aspect_ratio">0</property>
  <property name="meta.media.0.codec.colorspace">601</property>
  <property name="meta.media.0.codec.name">h264</property>
  <property name="meta.media.0.codec.long_name">H.264 / AVC / MPEG-4 AVC / MPEG-4 part 10</property>
  <property name="meta.media.0.codec.bit_rate">0</property>
  <property name="meta.attr.0.stream.HANDLER_NAME.markup">VideoHandler</property>
  <property name="meta.attr.0.stream.VENDOR_ID.markup">[0][0][0][0]</property>
  <property name="meta.attr.0.stream.ENCODER.markup">Lavc58.134.100 libx264</property>
  <property name="meta.attr.0.stream.DURATION.markup">00:00:01.000000000</property>
  <property name="meta.attr.COMMENT.markup">Rendered with Manim Community v0.6.0</property>
  <property name="meta.attr.MAJOR_BRAND.markup">isom</property>
  <property name="meta.attr.MINOR_VERSION.markup">512</property>
  <property name="meta.attr.COMPATIBLE_BRANDS.markup">isomiso2avc1mp41</property>
  <property name="meta.attr.ENCODER.markup">Lavf58.76.100</property>
  <property name="meta.media.sample_aspect_num">1</property>
  <property name="meta.media.sample_aspect_den">1</property>
  <property name="meta.media.frame_rate_num">60</property>
  <property name="meta.media.frame_rate_den">1</property>
  <property name="meta.media.colorspace">601</property>
  <property name="meta.media.color_trc">2</property>
  <property name="meta.media.width">640</property>
  <property name="meta.media.height">360</property>
  <property name="meta.media.color_range">mpeg</property>
  <property name="meta.media.top_field_first">0</property>
  <property name="meta.media.progressive">1</property>
  <property name="kdenlive:original.mlt_type">producer</property>
  <property name="kdenlive:original.in">0</property>
  <property name="kdenlive:original.out">59</property>
  <property name="kdenlive:original.length">60</property>
  <property name="kdenlive:original.eof">pause</property>
  <property name="kdenlive:original.resource">video/Observations/22.mp4</property>
  <property name="kdenlive:original.meta.media.nb_streams">1</property>
  <property name="kdenlive:original.meta.media.0.stream.type">video</property>
  <property name="kdenlive:original.meta.media.0.stream.frame_rate">60</property>
  <property name="kdenlive:original.meta.media.0.stream.sample_aspect_ratio">0</property>
  <property name="kdenlive:original.meta.media.0.codec.width">3840</property>
  <property name="kdenlive:original.meta.media.0.codec.height">2160</property>
  <property name="kdenlive:original.meta.media.0.codec.rotate">0</property>
  <property name="kdenlive:original.meta.media.0.codec.frame_rate">60</property>
  <property name="kdenlive:original.meta.media.0.codec.pix_fmt">yuv420p</property>
  <property name="kdenlive:original.meta.media.0.codec.sample_aspect_ratio">0</property>
  <property name="kdenlive:original.meta.media.0.codec.colorspace">709</property>
  <property name="kdenlive:original.meta.media.0.codec.name">h264</property>
  <property name="kdenlive:original.meta.media.0.codec.long_name">H.264 / AVC / MPEG-4 AVC / MPEG-4 part 10</property>
  <property name="kdenlive:original.meta.media.0.codec.bit_rate">962728</property>
  <property name="kdenlive:original.meta.attr.0.stream.handler_name.markup">VideoHandler</property>
  <property name="kdenlive:original.meta.attr.0.stream.vendor_id.markup">[0][0][0][0]</property>
  <property name="kdenlive:original.meta.attr.major_brand.markup">isom</property>
  <property name="kdenlive:original.meta.attr.minor_version.markup">512</property>
  <property name="kdenlive:original.meta.attr.compatible_brands.markup">isomiso2avc1mp41</property>
  <property name="kdenlive:original.meta.attr.encoder.markup">Lavf58.76.100</property>
  <property name="kdenlive:original.meta.attr.comment.markup">Rendered with Manim Community v0.6.0</property>
  <property name="kdenlive:original.seekable">1</property>
  <property name="kdenlive:original.width">3840</property>
  <property name="kdenlive:original.height">2160</property>
  <property name="kdenlive:original.meta.media.sample_aspect_num">1</property>
  <property name="kdenlive:original.meta.media.sample_aspect_den">1</property>
  <property name="kdenlive:original.aspect_ratio">1</property>
  <property name="kdenlive:original.audio_index">-1</property>
  <property name="kdenlive:original.video_index">0</property>
  <property name="kdenlive:original.mute_on_pause">1</property>
  <property name="kdenlive:original.mlt_service">avformat</property>
  <property name="kdenlive:original.meta.media.frame_rate_num">60</property>
  <property name="kdenlive:original.meta.media.frame_rate_den">1</property>
  <property name="kdenlive:original.meta.media.colorspace">709</property>
  <property name="kdenlive:original.meta.media.color_trc">2</property>
  <property name="kdenlive:original.meta.media.width">3840</property>
  <property name="kdenlive:original.meta.media.height">2160</property>
  <property name="kdenlive:original.meta.media.color_range">mpeg</property>
  <property name="kdenlive:original.meta.media.top_field_first">0</property>
  <property name="kdenlive:original.meta.media.progressive">1</property>
  <property name="kdenlive:original.backup">1</property>
 </producer>
 <producer id="producer317" in="00:00:00.000" out="00:00:04.983">
  <property name="length">00:00:05.000</property>
  <property name="eof">pause</property>
  <property name="resource">/home/xiaoxiae/.cache/kdenlive/proxy/66f9164f0a029cdaf894a88c83b421bb.png</property>
  <property name="ttl">25</property>
  <property name="aspect_ratio">1</property>
  <property name="progressive">1</property>
  <property name="seekable">1</property>
  <property name="meta.media.width">800</property>
  <property name="meta.media.height">450</property>
  <property name="mlt_service">qimage</property>
  <property name="kdenlive:clipname">22.png</property>
  <property name="kdenlive:duration">00:00:05.000</property>
  <property name="kdenlive:folderid">277</property>
  <property name="kdenlive:id">284</property>
  <property name="kdenlive:file_size">335932</property>
  <property name="kdenlive:file_hash">66f9164f0a029cdaf894a88c83b421bb</property>
  <property name="kdenlive:proxy">/home/xiaoxiae/.cache/kdenlive/proxy/66f9164f0a029cdaf894a88c83b421bb.png</property>
  <property name="kdenlive:originalurl">video/Observations/22.png</property>
  <property name="global_feed">1</property>
 </producer>
 <producer id="producer319" in="00:00:00.000" out="00:00:00.983">
  <property name="length">60</property>
  <property name="eof">pause</property>
  <property name="resource">/home/xiaoxiae/.cache/kdenlive/proxy/7e64797392f4531eb73ef0b1de640435.mkv</property>
  <property name="audio_index">-1</property>
  <property name="video_index">0</property>
  <property name="mute_on_pause">0</property>
  <property name="mlt_service">avformat-novalidate</property>
  <property name="seekable">1</property>
  <property name="aspect_ratio">1</property>
  <property name="kdenlive:clipname">23.mp4</property>
  <property name="kdenlive:folderid">277</property>
  <property name="kdenlive:id">285</property>
  <property name="kdenlive:file_size">89024</property>
  <property name="kdenlive:file_hash">7e64797392f4531eb73ef0b1de640435</property>
  <property name="kdenlive:proxy">/home/xiaoxiae/.cache/kdenlive/proxy/7e64797392f4531eb73ef0b1de640435.mkv</property>
  <property name="kdenlive:originalurl">video/Observations/23.mp4</property>
  <property name="global_feed">1</property>
  <property name="meta.media.nb_streams">1</property>
  <property name="meta.media.0.stream.type">video</property>
  <property name="meta.media.0.stream.frame_rate">60</property>
  <property name="meta.media.0.stream.sample_aspect_ratio">0</property>
  <property name="meta.media.0.codec.width">640</property>
  <property name="meta.media.0.codec.height">360</property>
  <property name="meta.media.0.codec.rotate">0</property>
  <property name="meta.media.0.codec.frame_rate">60</property>
  <property name="meta.media.0.codec.pix_fmt">yuv420p</property>
  <property name="meta.media.0.codec.sample_aspect_ratio">0</property>
  <property name="meta.media.0.codec.colorspace">601</property>
  <property name="meta.media.0.codec.name">h264</property>
  <property name="meta.media.0.codec.long_name">H.264 / AVC / MPEG-4 AVC / MPEG-4 part 10</property>
  <property name="meta.media.0.codec.bit_rate">0</property>
  <property name="meta.attr.0.stream.HANDLER_NAME.markup">VideoHandler</property>
  <property name="meta.attr.0.stream.VENDOR_ID.markup">[0][0][0][0]</property>
  <property name="meta.attr.0.stream.ENCODER.markup">Lavc58.134.100 libx264</property>
  <property name="meta.attr.0.stream.DURATION.markup">00:00:01.000000000</property>
  <property name="meta.attr.COMMENT.markup">Rendered with Manim Community v0.6.0</property>
  <property name="meta.attr.MAJOR_BRAND.markup">isom</property>
  <property name="meta.attr.MINOR_VERSION.markup">512</property>
  <property name="meta.attr.COMPATIBLE_BRANDS.markup">isomiso2avc1mp41</property>
  <property name="meta.attr.ENCODER.markup">Lavf58.76.100</property>
  <property name="meta.media.sample_aspect_num">1</property>
  <property name="meta.media.sample_aspect_den">1</property>
  <property name="meta.media.frame_rate_num">60</property>
  <property name="meta.media.frame_rate_den">1</property>
  <property name="meta.media.colorspace">601</property>
  <property name="meta.media.color_trc">2</property>
  <property name="meta.media.width">640</property>
  <property name="meta.media.height">360</property>
  <property name="meta.media.color_range">mpeg</property>
  <property name="meta.media.top_field_first">0</property>
  <property name="meta.media.progressive">1</property>
  <property name="kdenlive:original.mlt_type">producer</property>
  <property name="kdenlive:original.in">0</property>
  <property name="kdenlive:original.out">59</property>
  <property name="kdenlive:original.length">60</property>
  <property name="kdenlive:original.eof">pause</property>
  <property name="kdenlive:original.resource">video/Observations/23.mp4</property>
  <property name="kdenlive:original.meta.media.nb_streams">1</property>
  <property name="kdenlive:original.meta.media.0.stream.type">video</property>
  <property name="kdenlive:original.meta.media.0.stream.frame_rate">60</property>
  <property name="kdenlive:original.meta.media.0.stream.sample_aspect_ratio">0</property>
  <property name="kdenlive:original.meta.media.0.codec.width">3840</property>
  <property name="kdenlive:original.meta.media.0.codec.height">2160</property>
  <property name="kdenlive:original.meta.media.0.codec.rotate">0</property>
  <property name="kdenlive:original.meta.media.0.codec.frame_rate">60</property>
  <property name="kdenlive:original.meta.media.0.codec.pix_fmt">yuv420p</property>
  <property name="kdenlive:original.meta.media.0.codec.sample_aspect_ratio">0</property>
  <property name="kdenlive:original.meta.media.0.codec.colorspace">709</property>
  <property name="kdenlive:original.meta.media.0.codec.name">h264</property>
  <property name="kdenlive:original.meta.media.0.codec.long_name">H.264 / AVC / MPEG-4 AVC / MPEG-4 part 10</property>
  <property name="kdenlive:original.meta.media.0.codec.bit_rate">699144</property>
  <property name="kdenlive:original.meta.attr.0.stream.handler_name.markup">VideoHandler</property>
  <property name="kdenlive:original.meta.attr.0.stream.vendor_id.markup">[0][0][0][0]</property>
  <property name="kdenlive:original.meta.attr.major_brand.markup">isom</property>
  <property name="kdenlive:original.meta.attr.minor_version.markup">512</property>
  <property name="kdenlive:original.meta.attr.compatible_brands.markup">isomiso2avc1mp41</property>
  <property name="kdenlive:original.meta.attr.encoder.markup">Lavf58.76.100</property>
  <property name="kdenlive:original.meta.attr.comment.markup">Rendered with Manim Community v0.6.0</property>
  <property name="kdenlive:original.seekable">1</property>
  <property name="kdenlive:original.width">3840</property>
  <property name="kdenlive:original.height">2160</property>
  <property name="kdenlive:original.meta.media.sample_aspect_num">1</property>
  <property name="kdenlive:original.meta.media.sample_aspect_den">1</property>
  <property name="kdenlive:original.aspect_ratio">1</property>
  <property name="kdenlive:original.audio_index">-1</property>
  <property name="kdenlive:original.video_index">0</property>
  <property name="kdenlive:original.mute_on_pause">1</property>
  <property name="kdenlive:original.mlt_service">avformat</property>
  <property name="kdenlive:original.meta.media.frame_rate_num">60</property>
  <property name="kdenlive:original.meta.media.frame_rate_den">1</property>
  <property name="kdenlive:original.meta.media.colorspace">709</property>
  <property name="kdenlive:original.meta.media.color_trc">2</property>
  <property name="kdenlive:original.meta.media.width">3840</property>
  <property name="kdenlive:original.meta.media.height">2160</property>
  <property name="kdenlive:original.meta.media.color_range">mpeg</property>
  <property name="kdenlive:original.meta.media.top_field_first">0</property>
  <property name="kdenlive:original.meta.media.progressive">1</property>
  <property name="kdenlive:original.backup">1</property>
 </producer>
 <producer id="producer322" in="00:00:00.000" out="00:00:04.983">
  <property name="length">00:00:05.000</property>
  <property name="eof">pause</property>
  <property name="resource">/home/xiaoxiae/.cache/kdenlive/proxy/8e0a29063897521f28c10063760e236f.png</property>
  <property name="ttl">25</property>
  <property name="aspect_ratio">1</property>
  <property name="progressive">1</property>
  <property name="seekable">1</property>
  <property name="meta.media.width">800</property>
  <property name="meta.media.height">450</property>
  <property name="mlt_service">qimage</property>
  <property name="kdenlive:clipname">23.png</property>
  <property name="kdenlive:duration">00:00:05.000</property>
  <property name="kdenlive:folderid">277</property>
  <property name="kdenlive:id">286</property>
  <property name="kdenlive:file_size">324151</property>
  <property name="kdenlive:file_hash">8e0a29063897521f28c10063760e236f</property>
  <property name="kdenlive:proxy">/home/xiaoxiae/.cache/kdenlive/proxy/8e0a29063897521f28c10063760e236f.png</property>
  <property name="kdenlive:originalurl">video/Observations/23.png</property>
  <property name="global_feed">1</property>
 </producer>
 <producer id="producer321" in="00:00:00.000" out="00:00:00.983">
  <property name="length">60</property>
  <property name="eof">pause</property>
  <property name="resource">/home/xiaoxiae/.cache/kdenlive/proxy/d72b0e67bddc5a5a308e00d7919af276.mkv</property>
  <property name="audio_index">-1</property>
  <property name="video_index">0</property>
  <property name="mute_on_pause">0</property>
  <property name="mlt_service">avformat-novalidate</property>
  <property name="seekable">1</property>
  <property name="aspect_ratio">1</property>
  <property name="kdenlive:clipname">24.mp4</property>
  <property name="kdenlive:folderid">277</property>
  <property name="kdenlive:id">287</property>
  <property name="kdenlive:file_size">122216</property>
  <property name="kdenlive:file_hash">d72b0e67bddc5a5a308e00d7919af276</property>
  <property name="kdenlive:proxy">/home/xiaoxiae/.cache/kdenlive/proxy/d72b0e67bddc5a5a308e00d7919af276.mkv</property>
  <property name="kdenlive:originalurl">video/Observations/24.mp4</property>
  <property name="global_feed">1</property>
  <property name="meta.media.nb_streams">1</property>
  <property name="meta.media.0.stream.type">video</property>
  <property name="meta.media.0.stream.frame_rate">60</property>
  <property name="meta.media.0.stream.sample_aspect_ratio">0</property>
  <property name="meta.media.0.codec.width">640</property>
  <property name="meta.media.0.codec.height">360</property>
  <property name="meta.media.0.codec.rotate">0</property>
  <property name="meta.media.0.codec.frame_rate">60</property>
  <property name="meta.media.0.codec.pix_fmt">yuv420p</property>
  <property name="meta.media.0.codec.sample_aspect_ratio">0</property>
  <property name="meta.media.0.codec.colorspace">601</property>
  <property name="meta.media.0.codec.name">h264</property>
  <property name="meta.media.0.codec.long_name">H.264 / AVC / MPEG-4 AVC / MPEG-4 part 10</property>
  <property name="meta.media.0.codec.bit_rate">0</property>
  <property name="meta.attr.0.stream.HANDLER_NAME.markup">VideoHandler</property>
  <property name="meta.attr.0.stream.VENDOR_ID.markup">[0][0][0][0]</property>
  <property name="meta.attr.0.stream.ENCODER.markup">Lavc58.134.100 libx264</property>
  <property name="meta.attr.0.stream.DURATION.markup">00:00:01.000000000</property>
  <property name="meta.attr.COMMENT.markup">Rendered with Manim Community v0.6.0</property>
  <property name="meta.attr.MAJOR_BRAND.markup">isom</property>
  <property name="meta.attr.MINOR_VERSION.markup">512</property>
  <property name="meta.attr.COMPATIBLE_BRANDS.markup">isomiso2avc1mp41</property>
  <property name="meta.attr.ENCODER.markup">Lavf58.76.100</property>
  <property name="meta.media.sample_aspect_num">1</property>
  <property name="meta.media.sample_aspect_den">1</property>
  <property name="meta.media.frame_rate_num">60</property>
  <property name="meta.media.frame_rate_den">1</property>
  <property name="meta.media.colorspace">601</property>
  <property name="meta.media.color_trc">2</property>
  <property name="meta.media.width">640</property>
  <property name="meta.media.height">360</property>
  <property name="meta.media.color_range">mpeg</property>
  <property name="meta.media.top_field_first">0</property>
  <property name="meta.media.progressive">1</property>
  <property name="kdenlive:original.mlt_type">producer</property>
  <property name="kdenlive:original.in">0</property>
  <property name="kdenlive:original.out">59</property>
  <property name="kdenlive:original.length">60</property>
  <property name="kdenlive:original.eof">pause</property>
  <property name="kdenlive:original.resource">video/Observations/24.mp4</property>
  <property name="kdenlive:original.meta.media.nb_streams">1</property>
  <property name="kdenlive:original.meta.media.0.stream.type">video</property>
  <property name="kdenlive:original.meta.media.0.stream.frame_rate">60</property>
  <property name="kdenlive:original.meta.media.0.stream.sample_aspect_ratio">0</property>
  <property name="kdenlive:original.meta.media.0.codec.width">3840</property>
  <property name="kdenlive:original.meta.media.0.codec.height">2160</property>
  <property name="kdenlive:original.meta.media.0.codec.rotate">0</property>
  <property name="kdenlive:original.meta.media.0.codec.frame_rate">60</property>
  <property name="kdenlive:original.meta.media.0.codec.pix_fmt">yuv420p</property>
  <property name="kdenlive:original.meta.media.0.codec.sample_aspect_ratio">0</property>
  <property name="kdenlive:original.meta.media.0.codec.colorspace">709</property>
  <property name="kdenlive:original.meta.media.0.codec.name">h264</property>
  <property name="kdenlive:original.meta.media.0.codec.long_name">H.264 / AVC / MPEG-4 AVC / MPEG-4 part 10</property>
  <property name="kdenlive:original.meta.media.0.codec.bit_rate">964680</property>
  <property name="kdenlive:original.meta.attr.0.stream.handler_name.markup">VideoHandler</property>
  <property name="kdenlive:original.meta.attr.0.stream.vendor_id.markup">[0][0][0][0]</property>
  <property name="kdenlive:original.meta.attr.major_brand.markup">isom</property>
  <property name="kdenlive:original.meta.attr.minor_version.markup">512</property>
  <property name="kdenlive:original.meta.attr.compatible_brands.markup">isomiso2avc1mp41</property>
  <property name="kdenlive:original.meta.attr.encoder.markup">Lavf58.76.100</property>
  <property name="kdenlive:original.meta.attr.comment.markup">Rendered with Manim Community v0.6.0</property>
  <property name="kdenlive:original.seekable">1</property>
  <property name="kdenlive:original.width">3840</property>
  <property name="kdenlive:original.height">2160</property>
  <property name="kdenlive:original.meta.media.sample_aspect_num">1</property>
  <property name="kdenlive:original.meta.media.sample_aspect_den">1</property>
  <property name="kdenlive:original.aspect_ratio">1</property>
  <property name="kdenlive:original.audio_index">-1</property>
  <property name="kdenlive:original.video_index">0</property>
  <property name="kdenlive:original.mute_on_pause">1</property>
  <property name="kdenlive:original.mlt_service">avformat</property>
  <property name="kdenlive:original.meta.media.frame_rate_num">60</property>
  <property name="kdenlive:original.meta.media.frame_rate_den">1</property>
  <property name="kdenlive:original.meta.media.colorspace">709</property>
  <property name="kdenlive:original.meta.media.color_trc">2</property>
  <property name="kdenlive:original.meta.media.width">3840</property>
  <property name="kdenlive:original.meta.media.height">2160</property>
  <property name="kdenlive:original.meta.media.color_range">mpeg</property>
  <property name="kdenlive:original.meta.media.top_field_first">0</property>
  <property name="kdenlive:original.meta.media.progressive">1</property>
  <property name="kdenlive:original.backup">1</property>
 </producer>
 <producer id="producer320" in="00:00:00.000" out="00:00:04.983">
  <property name="length">00:00:05.000</property>
  <property name="eof">pause</property>
  <property name="resource">/home/xiaoxiae/.cache/kdenlive/proxy/3a8cafd7455758fd8a5f029a49d88204.png</property>
  <property name="ttl">25</property>
  <property name="aspect_ratio">1</property>
  <property name="progressive">1</property>
  <property name="seekable">1</property>
  <property name="meta.media.width">800</property>
  <property name="meta.media.height">450</property>
  <property name="mlt_service">qimage</property>
  <property name="kdenlive:clipname">24.png</property>
  <property name="kdenlive:duration">00:00:05.000</property>
  <property name="kdenlive:folderid">277</property>
  <property name="kdenlive:id">288</property>
  <property name="kdenlive:file_size">343617</property>
  <property name="kdenlive:file_hash">3a8cafd7455758fd8a5f029a49d88204</property>
  <property name="kdenlive:proxy">/home/xiaoxiae/.cache/kdenlive/proxy/3a8cafd7455758fd8a5f029a49d88204.png</property>
  <property name="kdenlive:originalurl">video/Observations/24.png</property>
  <property name="global_feed">1</property>
 </producer>
 <producer id="producer323" in="00:00:00.000" out="00:00:00.983">
  <property name="length">60</property>
  <property name="eof">pause</property>
  <property name="resource">/home/xiaoxiae/.cache/kdenlive/proxy/cd799834d47dafcf673ecb0d96d0e9fa.mkv</property>
  <property name="audio_index">-1</property>
  <property name="video_index">0</property>
  <property name="mute_on_pause">0</property>
  <property name="mlt_service">avformat-novalidate</property>
  <property name="seekable">1</property>
  <property name="aspect_ratio">1</property>
  <property name="kdenlive:clipname">25.mp4</property>
  <property name="kdenlive:folderid">277</property>
  <property name="kdenlive:id">289</property>
  <property name="kdenlive:file_size">95754</property>
  <property name="kdenlive:file_hash">cd799834d47dafcf673ecb0d96d0e9fa</property>
  <property name="kdenlive:proxy">/home/xiaoxiae/.cache/kdenlive/proxy/cd799834d47dafcf673ecb0d96d0e9fa.mkv</property>
  <property name="kdenlive:originalurl">video/Observations/25.mp4</property>
  <property name="global_feed">1</property>
  <property name="meta.media.nb_streams">1</property>
  <property name="meta.media.0.stream.type">video</property>
  <property name="meta.media.0.stream.frame_rate">60</property>
  <property name="meta.media.0.stream.sample_aspect_ratio">0</property>
  <property name="meta.media.0.codec.width">640</property>
  <property name="meta.media.0.codec.height">360</property>
  <property name="meta.media.0.codec.rotate">0</property>
  <property name="meta.media.0.codec.frame_rate">60</property>
  <property name="meta.media.0.codec.pix_fmt">yuv420p</property>
  <property name="meta.media.0.codec.sample_aspect_ratio">0</property>
  <property name="meta.media.0.codec.colorspace">601</property>
  <property name="meta.media.0.codec.name">h264</property>
  <property name="meta.media.0.codec.long_name">H.264 / AVC / MPEG-4 AVC / MPEG-4 part 10</property>
  <property name="meta.media.0.codec.bit_rate">0</property>
  <property name="meta.attr.0.stream.HANDLER_NAME.markup">VideoHandler</property>
  <property name="meta.attr.0.stream.VENDOR_ID.markup">[0][0][0][0]</property>
  <property name="meta.attr.0.stream.ENCODER.markup">Lavc58.134.100 libx264</property>
  <property name="meta.attr.0.stream.DURATION.markup">00:00:01.000000000</property>
  <property name="meta.attr.COMMENT.markup">Rendered with Manim Community v0.6.0</property>
  <property name="meta.attr.MAJOR_BRAND.markup">isom</property>
  <property name="meta.attr.MINOR_VERSION.markup">512</property>
  <property name="meta.attr.COMPATIBLE_BRANDS.markup">isomiso2avc1mp41</property>
  <property name="meta.attr.ENCODER.markup">Lavf58.76.100</property>
  <property name="meta.media.sample_aspect_num">1</property>
  <property name="meta.media.sample_aspect_den">1</property>
  <property name="meta.media.frame_rate_num">60</property>
  <property name="meta.media.frame_rate_den">1</property>
  <property name="meta.media.colorspace">601</property>
  <property name="meta.media.color_trc">2</property>
  <property name="meta.media.width">640</property>
  <property name="meta.media.height">360</property>
  <property name="meta.media.color_range">mpeg</property>
  <property name="meta.media.top_field_first">0</property>
  <property name="meta.media.progressive">1</property>
  <property name="kdenlive:original.mlt_type">producer</property>
  <property name="kdenlive:original.in">0</property>
  <property name="kdenlive:original.out">59</property>
  <property name="kdenlive:original.length">60</property>
  <property name="kdenlive:original.eof">pause</property>
  <property name="kdenlive:original.resource">video/Observations/25.mp4</property>
  <property name="kdenlive:original.meta.media.nb_streams">1</property>
  <property name="kdenlive:original.meta.media.0.stream.type">video</property>
  <property name="kdenlive:original.meta.media.0.stream.frame_rate">60</property>
  <property name="kdenlive:original.meta.media.0.stream.sample_aspect_ratio">0</property>
  <property name="kdenlive:original.meta.media.0.codec.width">3840</property>
  <property name="kdenlive:original.meta.media.0.codec.height">2160</property>
  <property name="kdenlive:original.meta.media.0.codec.rotate">0</property>
  <property name="kdenlive:original.meta.media.0.codec.frame_rate">60</property>
  <property name="kdenlive:original.meta.media.0.codec.pix_fmt">yuv420p</property>
  <property name="kdenlive:original.meta.media.0.codec.sample_aspect_ratio">0</property>
  <property name="kdenlive:original.meta.media.0.codec.colorspace">709</property>
  <property name="kdenlive:original.meta.media.0.codec.name">h264</property>
  <property name="kdenlive:original.meta.media.0.codec.long_name">H.264 / AVC / MPEG-4 AVC / MPEG-4 part 10</property>
  <property name="kdenlive:original.meta.media.0.codec.bit_rate">752984</property>
  <property name="kdenlive:original.meta.attr.0.stream.handler_name.markup">VideoHandler</property>
  <property name="kdenlive:original.meta.attr.0.stream.vendor_id.markup">[0][0][0][0]</property>
  <property name="kdenlive:original.meta.attr.major_brand.markup">isom</property>
  <property name="kdenlive:original.meta.attr.minor_version.markup">512</property>
  <property name="kdenlive:original.meta.attr.compatible_brands.markup">isomiso2avc1mp41</property>
  <property name="kdenlive:original.meta.attr.encoder.markup">Lavf58.76.100</property>
  <property name="kdenlive:original.meta.attr.comment.markup">Rendered with Manim Community v0.6.0</property>
  <property name="kdenlive:original.seekable">1</property>
  <property name="kdenlive:original.width">3840</property>
  <property name="kdenlive:original.height">2160</property>
  <property name="kdenlive:original.meta.media.sample_aspect_num">1</property>
  <property name="kdenlive:original.meta.media.sample_aspect_den">1</property>
  <property name="kdenlive:original.aspect_ratio">1</property>
  <property name="kdenlive:original.audio_index">-1</property>
  <property name="kdenlive:original.video_index">0</property>
  <property name="kdenlive:original.mute_on_pause">1</property>
  <property name="kdenlive:original.mlt_service">avformat</property>
  <property name="kdenlive:original.meta.media.frame_rate_num">60</property>
  <property name="kdenlive:original.meta.media.frame_rate_den">1</property>
  <property name="kdenlive:original.meta.media.colorspace">709</property>
  <property name="kdenlive:original.meta.media.color_trc">2</property>
  <property name="kdenlive:original.meta.media.width">3840</property>
  <property name="kdenlive:original.meta.media.height">2160</property>
  <property name="kdenlive:original.meta.media.color_range">mpeg</property>
  <property name="kdenlive:original.meta.media.top_field_first">0</property>
  <property name="kdenlive:original.meta.media.progressive">1</property>
  <property name="kdenlive:original.backup">1</property>
 </producer>
 <producer id="producer324" in="00:00:00.000" out="00:00:04.983">
  <property name="length">00:00:05.000</property>
  <property name="eof">pause</property>
  <property name="resource">/home/xiaoxiae/.cache/kdenlive/proxy/aae752a9e81c6d23a3bc82a6015a3577.png</property>
  <property name="ttl">25</property>
  <property name="aspect_ratio">1</property>
  <property name="progressive">1</property>
  <property name="seekable">1</property>
  <property name="meta.media.width">800</property>
  <property name="meta.media.height">450</property>
  <property name="mlt_service">qimage</property>
  <property name="kdenlive:clipname">25.png</property>
  <property name="kdenlive:duration">00:00:05.000</property>
  <property name="kdenlive:folderid">277</property>
  <property name="kdenlive:id">290</property>
  <property name="kdenlive:file_size">339167</property>
  <property name="kdenlive:file_hash">aae752a9e81c6d23a3bc82a6015a3577</property>
  <property name="kdenlive:proxy">/home/xiaoxiae/.cache/kdenlive/proxy/aae752a9e81c6d23a3bc82a6015a3577.png</property>
  <property name="kdenlive:originalurl">video/Observations/25.png</property>
  <property name="global_feed">1</property>
 </producer>
 <producer id="producer326" in="00:00:00.000" out="00:00:00.983">
  <property name="length">60</property>
  <property name="eof">pause</property>
  <property name="resource">/home/xiaoxiae/.cache/kdenlive/proxy/acd4478385fa8c5428bdae9968a13125.mkv</property>
  <property name="audio_index">-1</property>
  <property name="video_index">0</property>
  <property name="mute_on_pause">0</property>
  <property name="mlt_service">avformat-novalidate</property>
  <property name="seekable">1</property>
  <property name="aspect_ratio">1</property>
  <property name="kdenlive:clipname">26.mp4</property>
  <property name="kdenlive:folderid">277</property>
  <property name="kdenlive:id">291</property>
  <property name="kdenlive:file_size">120816</property>
  <property name="kdenlive:file_hash">acd4478385fa8c5428bdae9968a13125</property>
  <property name="kdenlive:proxy">/home/xiaoxiae/.cache/kdenlive/proxy/acd4478385fa8c5428bdae9968a13125.mkv</property>
  <property name="kdenlive:originalurl">video/Observations/26.mp4</property>
  <property name="global_feed">1</property>
  <property name="meta.media.nb_streams">1</property>
  <property name="meta.media.0.stream.type">video</property>
  <property name="meta.media.0.stream.frame_rate">60</property>
  <property name="meta.media.0.stream.sample_aspect_ratio">0</property>
  <property name="meta.media.0.codec.width">640</property>
  <property name="meta.media.0.codec.height">360</property>
  <property name="meta.media.0.codec.rotate">0</property>
  <property name="meta.media.0.codec.frame_rate">60</property>
  <property name="meta.media.0.codec.pix_fmt">yuv420p</property>
  <property name="meta.media.0.codec.sample_aspect_ratio">0</property>
  <property name="meta.media.0.codec.colorspace">601</property>
  <property name="meta.media.0.codec.name">h264</property>
  <property name="meta.media.0.codec.long_name">H.264 / AVC / MPEG-4 AVC / MPEG-4 part 10</property>
  <property name="meta.media.0.codec.bit_rate">0</property>
  <property name="meta.attr.0.stream.HANDLER_NAME.markup">VideoHandler</property>
  <property name="meta.attr.0.stream.VENDOR_ID.markup">[0][0][0][0]</property>
  <property name="meta.attr.0.stream.ENCODER.markup">Lavc58.134.100 libx264</property>
  <property name="meta.attr.0.stream.DURATION.markup">00:00:01.000000000</property>
  <property name="meta.attr.COMMENT.markup">Rendered with Manim Community v0.6.0</property>
  <property name="meta.attr.MAJOR_BRAND.markup">isom</property>
  <property name="meta.attr.MINOR_VERSION.markup">512</property>
  <property name="meta.attr.COMPATIBLE_BRANDS.markup">isomiso2avc1mp41</property>
  <property name="meta.attr.ENCODER.markup">Lavf58.76.100</property>
  <property name="meta.media.sample_aspect_num">1</property>
  <property name="meta.media.sample_aspect_den">1</property>
  <property name="meta.media.frame_rate_num">60</property>
  <property name="meta.media.frame_rate_den">1</property>
  <property name="meta.media.colorspace">601</property>
  <property name="meta.media.color_trc">2</property>
  <property name="meta.media.width">640</property>
  <property name="meta.media.height">360</property>
  <property name="meta.media.color_range">mpeg</property>
  <property name="meta.media.top_field_first">0</property>
  <property name="meta.media.progressive">1</property>
  <property name="kdenlive:original.mlt_type">producer</property>
  <property name="kdenlive:original.in">0</property>
  <property name="kdenlive:original.out">59</property>
  <property name="kdenlive:original.length">60</property>
  <property name="kdenlive:original.eof">pause</property>
  <property name="kdenlive:original.resource">video/Observations/26.mp4</property>
  <property name="kdenlive:original.meta.media.nb_streams">1</property>
  <property name="kdenlive:original.meta.media.0.stream.type">video</property>
  <property name="kdenlive:original.meta.media.0.stream.frame_rate">60</property>
  <property name="kdenlive:original.meta.media.0.stream.sample_aspect_ratio">0</property>
  <property name="kdenlive:original.meta.media.0.codec.width">3840</property>
  <property name="kdenlive:original.meta.media.0.codec.height">2160</property>
  <property name="kdenlive:original.meta.media.0.codec.rotate">0</property>
  <property name="kdenlive:original.meta.media.0.codec.frame_rate">60</property>
  <property name="kdenlive:original.meta.media.0.codec.pix_fmt">yuv420p</property>
  <property name="kdenlive:original.meta.media.0.codec.sample_aspect_ratio">0</property>
  <property name="kdenlive:original.meta.media.0.codec.colorspace">709</property>
  <property name="kdenlive:original.meta.media.0.codec.name">h264</property>
  <property name="kdenlive:original.meta.media.0.codec.long_name">H.264 / AVC / MPEG-4 AVC / MPEG-4 part 10</property>
  <property name="kdenlive:original.meta.media.0.codec.bit_rate">953480</property>
  <property name="kdenlive:original.meta.attr.0.stream.handler_name.markup">VideoHandler</property>
  <property name="kdenlive:original.meta.attr.0.stream.vendor_id.markup">[0][0][0][0]</property>
  <property name="kdenlive:original.meta.attr.major_brand.markup">isom</property>
  <property name="kdenlive:original.meta.attr.minor_version.markup">512</property>
  <property name="kdenlive:original.meta.attr.compatible_brands.markup">isomiso2avc1mp41</property>
  <property name="kdenlive:original.meta.attr.encoder.markup">Lavf58.76.100</property>
  <property name="kdenlive:original.meta.attr.comment.markup">Rendered with Manim Community v0.6.0</property>
  <property name="kdenlive:original.seekable">1</property>
  <property name="kdenlive:original.width">3840</property>
  <property name="kdenlive:original.height">2160</property>
  <property name="kdenlive:original.meta.media.sample_aspect_num">1</property>
  <property name="kdenlive:original.meta.media.sample_aspect_den">1</property>
  <property name="kdenlive:original.aspect_ratio">1</property>
  <property name="kdenlive:original.audio_index">-1</property>
  <property name="kdenlive:original.video_index">0</property>
  <property name="kdenlive:original.mute_on_pause">1</property>
  <property name="kdenlive:original.mlt_service">avformat</property>
  <property name="kdenlive:original.meta.media.frame_rate_num">60</property>
  <property name="kdenlive:original.meta.media.frame_rate_den">1</property>
  <property name="kdenlive:original.meta.media.colorspace">709</property>
  <property name="kdenlive:original.meta.media.color_trc">2</property>
  <property name="kdenlive:original.meta.media.width">3840</property>
  <property name="kdenlive:original.meta.media.height">2160</property>
  <property name="kdenlive:original.meta.media.color_range">mpeg</property>
  <property name="kdenlive:original.meta.media.top_field_first">0</property>
  <property name="kdenlive:original.meta.media.progressive">1</property>
  <property name="kdenlive:original.backup">1</property>
 </producer>
 <producer id="producer325" in="00:00:00.000" out="00:00:04.983">
  <property name="length">00:00:05.000</property>
  <property name="eof">pause</property>
  <property name="resource">/home/xiaoxiae/.cache/kdenlive/proxy/d474b9089ca61b492b69ffecd4d3b7f6.png</property>
  <property name="ttl">25</property>
  <property name="aspect_ratio">1</property>
  <property name="progressive">1</property>
  <property name="seekable">1</property>
  <property name="meta.media.width">800</property>
  <property name="meta.media.height">450</property>
  <property name="mlt_service">qimage</property>
  <property name="kdenlive:clipname">26.png</property>
  <property name="kdenlive:duration">00:00:05.000</property>
  <property name="kdenlive:folderid">277</property>
  <property name="kdenlive:id">292</property>
  <property name="kdenlive:file_size">346887</property>
  <property name="kdenlive:file_hash">d474b9089ca61b492b69ffecd4d3b7f6</property>
  <property name="kdenlive:proxy">/home/xiaoxiae/.cache/kdenlive/proxy/d474b9089ca61b492b69ffecd4d3b7f6.png</property>
  <property name="kdenlive:originalurl">video/Observations/26.png</property>
  <property name="global_feed">1</property>
 </producer>
 <producer id="producer328" in="00:00:00.000" out="00:00:00.983">
  <property name="length">60</property>
  <property name="eof">pause</property>
  <property name="resource">/home/xiaoxiae/.cache/kdenlive/proxy/ec3a294f74844828fdd935a146d9ca40.mkv</property>
  <property name="audio_index">-1</property>
  <property name="video_index">0</property>
  <property name="mute_on_pause">0</property>
  <property name="mlt_service">avformat-novalidate</property>
  <property name="seekable">1</property>
  <property name="aspect_ratio">1</property>
  <property name="kdenlive:clipname">27.mp4</property>
  <property name="kdenlive:folderid">277</property>
  <property name="kdenlive:id">293</property>
  <property name="kdenlive:file_size">94496</property>
  <property name="kdenlive:file_hash">ec3a294f74844828fdd935a146d9ca40</property>
  <property name="kdenlive:proxy">/home/xiaoxiae/.cache/kdenlive/proxy/ec3a294f74844828fdd935a146d9ca40.mkv</property>
  <property name="kdenlive:originalurl">video/Observations/27.mp4</property>
  <property name="global_feed">1</property>
  <property name="meta.media.nb_streams">1</property>
  <property name="meta.media.0.stream.type">video</property>
  <property name="meta.media.0.stream.frame_rate">60</property>
  <property name="meta.media.0.stream.sample_aspect_ratio">0</property>
  <property name="meta.media.0.codec.width">640</property>
  <property name="meta.media.0.codec.height">360</property>
  <property name="meta.media.0.codec.rotate">0</property>
  <property name="meta.media.0.codec.frame_rate">60</property>
  <property name="meta.media.0.codec.pix_fmt">yuv420p</property>
  <property name="meta.media.0.codec.sample_aspect_ratio">0</property>
  <property name="meta.media.0.codec.colorspace">601</property>
  <property name="meta.media.0.codec.name">h264</property>
  <property name="meta.media.0.codec.long_name">H.264 / AVC / MPEG-4 AVC / MPEG-4 part 10</property>
  <property name="meta.media.0.codec.bit_rate">0</property>
  <property name="meta.attr.0.stream.HANDLER_NAME.markup">VideoHandler</property>
  <property name="meta.attr.0.stream.VENDOR_ID.markup">[0][0][0][0]</property>
  <property name="meta.attr.0.stream.ENCODER.markup">Lavc58.134.100 libx264</property>
  <property name="meta.attr.0.stream.DURATION.markup">00:00:01.000000000</property>
  <property name="meta.attr.COMMENT.markup">Rendered with Manim Community v0.6.0</property>
  <property name="meta.attr.MAJOR_BRAND.markup">isom</property>
  <property name="meta.attr.MINOR_VERSION.markup">512</property>
  <property name="meta.attr.COMPATIBLE_BRANDS.markup">isomiso2avc1mp41</property>
  <property name="meta.attr.ENCODER.markup">Lavf58.76.100</property>
  <property name="meta.media.sample_aspect_num">1</property>
  <property name="meta.media.sample_aspect_den">1</property>
  <property name="meta.media.frame_rate_num">60</property>
  <property name="meta.media.frame_rate_den">1</property>
  <property name="meta.media.colorspace">601</property>
  <property name="meta.media.color_trc">2</property>
  <property name="meta.media.width">640</property>
  <property name="meta.media.height">360</property>
  <property name="meta.media.color_range">mpeg</property>
  <property name="meta.media.top_field_first">0</property>
  <property name="meta.media.progressive">1</property>
  <property name="kdenlive:original.mlt_type">producer</property>
  <property name="kdenlive:original.in">0</property>
  <property name="kdenlive:original.out">59</property>
  <property name="kdenlive:original.length">60</property>
  <property name="kdenlive:original.eof">pause</property>
  <property name="kdenlive:original.resource">video/Observations/27.mp4</property>
  <property name="kdenlive:original.meta.media.nb_streams">1</property>
  <property name="kdenlive:original.meta.media.0.stream.type">video</property>
  <property name="kdenlive:original.meta.media.0.stream.frame_rate">60</property>
  <property name="kdenlive:original.meta.media.0.stream.sample_aspect_ratio">0</property>
  <property name="kdenlive:original.meta.media.0.codec.width">3840</property>
  <property name="kdenlive:original.meta.media.0.codec.height">2160</property>
  <property name="kdenlive:original.meta.media.0.codec.rotate">0</property>
  <property name="kdenlive:original.meta.media.0.codec.frame_rate">60</property>
  <property name="kdenlive:original.meta.media.0.codec.pix_fmt">yuv420p</property>
  <property name="kdenlive:original.meta.media.0.codec.sample_aspect_ratio">0</property>
  <property name="kdenlive:original.meta.media.0.codec.colorspace">709</property>
  <property name="kdenlive:original.meta.media.0.codec.name">h264</property>
  <property name="kdenlive:original.meta.media.0.codec.long_name">H.264 / AVC / MPEG-4 AVC / MPEG-4 part 10</property>
  <property name="kdenlive:original.meta.media.0.codec.bit_rate">742920</property>
  <property name="kdenlive:original.meta.attr.0.stream.handler_name.markup">VideoHandler</property>
  <property name="kdenlive:original.meta.attr.0.stream.vendor_id.markup">[0][0][0][0]</property>
  <property name="kdenlive:original.meta.attr.major_brand.markup">isom</property>
  <property name="kdenlive:original.meta.attr.minor_version.markup">512</property>
  <property name="kdenlive:original.meta.attr.compatible_brands.markup">isomiso2avc1mp41</property>
  <property name="kdenlive:original.meta.attr.encoder.markup">Lavf58.76.100</property>
  <property name="kdenlive:original.meta.attr.comment.markup">Rendered with Manim Community v0.6.0</property>
  <property name="kdenlive:original.seekable">1</property>
  <property name="kdenlive:original.width">3840</property>
  <property name="kdenlive:original.height">2160</property>
  <property name="kdenlive:original.meta.media.sample_aspect_num">1</property>
  <property name="kdenlive:original.meta.media.sample_aspect_den">1</property>
  <property name="kdenlive:original.aspect_ratio">1</property>
  <property name="kdenlive:original.audio_index">-1</property>
  <property name="kdenlive:original.video_index">0</property>
  <property name="kdenlive:original.mute_on_pause">1</property>
  <property name="kdenlive:original.mlt_service">avformat</property>
  <property name="kdenlive:original.meta.media.frame_rate_num">60</property>
  <property name="kdenlive:original.meta.media.frame_rate_den">1</property>
  <property name="kdenlive:original.meta.media.colorspace">709</property>
  <property name="kdenlive:original.meta.media.color_trc">2</property>
  <property name="kdenlive:original.meta.media.width">3840</property>
  <property name="kdenlive:original.meta.media.height">2160</property>
  <property name="kdenlive:original.meta.media.color_range">mpeg</property>
  <property name="kdenlive:original.meta.media.top_field_first">0</property>
  <property name="kdenlive:original.meta.media.progressive">1</property>
  <property name="kdenlive:original.backup">1</property>
 </producer>
 <producer id="producer327" in="00:00:00.000" out="00:00:04.983">
  <property name="length">00:00:05.000</property>
  <property name="eof">pause</property>
  <property name="resource">/home/xiaoxiae/.cache/kdenlive/proxy/424a1cda7fefd463e15388ed88c0d14a.png</property>
  <property name="ttl">25</property>
  <property name="aspect_ratio">1</property>
  <property name="progressive">1</property>
  <property name="seekable">1</property>
  <property name="meta.media.width">800</property>
  <property name="meta.media.height">450</property>
  <property name="mlt_service">qimage</property>
  <property name="kdenlive:clipname">27.png</property>
  <property name="kdenlive:duration">00:00:05.000</property>
  <property name="kdenlive:folderid">277</property>
  <property name="kdenlive:id">294</property>
  <property name="kdenlive:file_size">339030</property>
  <property name="kdenlive:file_hash">424a1cda7fefd463e15388ed88c0d14a</property>
  <property name="kdenlive:proxy">/home/xiaoxiae/.cache/kdenlive/proxy/424a1cda7fefd463e15388ed88c0d14a.png</property>
  <property name="kdenlive:originalurl">video/Observations/27.png</property>
  <property name="global_feed">1</property>
 </producer>
 <producer id="producer329" in="00:00:00.000" out="00:00:00.983">
  <property name="length">60</property>
  <property name="eof">pause</property>
  <property name="resource">/home/xiaoxiae/.cache/kdenlive/proxy/fa51f517d11ea49c5f917b5fa5545df5.mkv</property>
  <property name="audio_index">-1</property>
  <property name="video_index">0</property>
  <property name="mute_on_pause">0</property>
  <property name="mlt_service">avformat-novalidate</property>
  <property name="seekable">1</property>
  <property name="aspect_ratio">1</property>
  <property name="kdenlive:clipname">28.mp4</property>
  <property name="kdenlive:folderid">277</property>
  <property name="kdenlive:id">295</property>
  <property name="kdenlive:file_size">97014</property>
  <property name="kdenlive:file_hash">fa51f517d11ea49c5f917b5fa5545df5</property>
  <property name="kdenlive:proxy">/home/xiaoxiae/.cache/kdenlive/proxy/fa51f517d11ea49c5f917b5fa5545df5.mkv</property>
  <property name="kdenlive:originalurl">video/Observations/28.mp4</property>
  <property name="global_feed">1</property>
  <property name="meta.media.nb_streams">1</property>
  <property name="meta.media.0.stream.type">video</property>
  <property name="meta.media.0.stream.frame_rate">60</property>
  <property name="meta.media.0.stream.sample_aspect_ratio">0</property>
  <property name="meta.media.0.codec.width">640</property>
  <property name="meta.media.0.codec.height">360</property>
  <property name="meta.media.0.codec.rotate">0</property>
  <property name="meta.media.0.codec.frame_rate">60</property>
  <property name="meta.media.0.codec.pix_fmt">yuv420p</property>
  <property name="meta.media.0.codec.sample_aspect_ratio">0</property>
  <property name="meta.media.0.codec.colorspace">601</property>
  <property name="meta.media.0.codec.name">h264</property>
  <property name="meta.media.0.codec.long_name">H.264 / AVC / MPEG-4 AVC / MPEG-4 part 10</property>
  <property name="meta.media.0.codec.bit_rate">0</property>
  <property name="meta.attr.0.stream.HANDLER_NAME.markup">VideoHandler</property>
  <property name="meta.attr.0.stream.VENDOR_ID.markup">[0][0][0][0]</property>
  <property name="meta.attr.0.stream.ENCODER.markup">Lavc58.134.100 libx264</property>
  <property name="meta.attr.0.stream.DURATION.markup">00:00:01.000000000</property>
  <property name="meta.attr.COMMENT.markup">Rendered with Manim Community v0.6.0</property>
  <property name="meta.attr.MAJOR_BRAND.markup">isom</property>
  <property name="meta.attr.MINOR_VERSION.markup">512</property>
  <property name="meta.attr.COMPATIBLE_BRANDS.markup">isomiso2avc1mp41</property>
  <property name="meta.attr.ENCODER.markup">Lavf58.76.100</property>
  <property name="meta.media.sample_aspect_num">1</property>
  <property name="meta.media.sample_aspect_den">1</property>
  <property name="meta.media.frame_rate_num">60</property>
  <property name="meta.media.frame_rate_den">1</property>
  <property name="meta.media.colorspace">601</property>
  <property name="meta.media.color_trc">2</property>
  <property name="meta.media.width">640</property>
  <property name="meta.media.height">360</property>
  <property name="meta.media.color_range">mpeg</property>
  <property name="meta.media.top_field_first">0</property>
  <property name="meta.media.progressive">1</property>
  <property name="kdenlive:original.mlt_type">producer</property>
  <property name="kdenlive:original.in">0</property>
  <property name="kdenlive:original.out">59</property>
  <property name="kdenlive:original.length">60</property>
  <property name="kdenlive:original.eof">pause</property>
  <property name="kdenlive:original.resource">video/Observations/28.mp4</property>
  <property name="kdenlive:original.meta.media.nb_streams">1</property>
  <property name="kdenlive:original.meta.media.0.stream.type">video</property>
  <property name="kdenlive:original.meta.media.0.stream.frame_rate">60</property>
  <property name="kdenlive:original.meta.media.0.stream.sample_aspect_ratio">0</property>
  <property name="kdenlive:original.meta.media.0.codec.width">3840</property>
  <property name="kdenlive:original.meta.media.0.codec.height">2160</property>
  <property name="kdenlive:original.meta.media.0.codec.rotate">0</property>
  <property name="kdenlive:original.meta.media.0.codec.frame_rate">60</property>
  <property name="kdenlive:original.meta.media.0.codec.pix_fmt">yuv420p</property>
  <property name="kdenlive:original.meta.media.0.codec.sample_aspect_ratio">0</property>
  <property name="kdenlive:original.meta.media.0.codec.colorspace">709</property>
  <property name="kdenlive:original.meta.media.0.codec.name">h264</property>
  <property name="kdenlive:original.meta.media.0.codec.long_name">H.264 / AVC / MPEG-4 AVC / MPEG-4 part 10</property>
  <property name="kdenlive:original.meta.media.0.codec.bit_rate">763000</property>
  <property name="kdenlive:original.meta.attr.0.stream.handler_name.markup">VideoHandler</property>
  <property name="kdenlive:original.meta.attr.0.stream.vendor_id.markup">[0][0][0][0]</property>
  <property name="kdenlive:original.meta.attr.major_brand.markup">isom</property>
  <property name="kdenlive:original.meta.attr.minor_version.markup">512</property>
  <property name="kdenlive:original.meta.attr.compatible_brands.markup">isomiso2avc1mp41</property>
  <property name="kdenlive:original.meta.attr.encoder.markup">Lavf58.76.100</property>
  <property name="kdenlive:original.meta.attr.comment.markup">Rendered with Manim Community v0.6.0</property>
  <property name="kdenlive:original.seekable">1</property>
  <property name="kdenlive:original.width">3840</property>
  <property name="kdenlive:original.height">2160</property>
  <property name="kdenlive:original.meta.media.sample_aspect_num">1</property>
  <property name="kdenlive:original.meta.media.sample_aspect_den">1</property>
  <property name="kdenlive:original.aspect_ratio">1</property>
  <property name="kdenlive:original.audio_index">-1</property>
  <property name="kdenlive:original.video_index">0</property>
  <property name="kdenlive:original.mute_on_pause">1</property>
  <property name="kdenlive:original.mlt_service">avformat</property>
  <property name="kdenlive:original.meta.media.frame_rate_num">60</property>
  <property name="kdenlive:original.meta.media.frame_rate_den">1</property>
  <property name="kdenlive:original.meta.media.colorspace">709</property>
  <property name="kdenlive:original.meta.media.color_trc">2</property>
  <property name="kdenlive:original.meta.media.width">3840</property>
  <property name="kdenlive:original.meta.media.height">2160</property>
  <property name="kdenlive:original.meta.media.color_range">mpeg</property>
  <property name="kdenlive:original.meta.media.top_field_first">0</property>
  <property name="kdenlive:original.meta.media.progressive">1</property>
  <property name="kdenlive:original.backup">1</property>
 </producer>
 <producer id="producer330" in="00:00:00.000" out="00:00:04.983">
  <property name="length">00:00:05.000</property>
  <property name="eof">pause</property>
  <property name="resource">/home/xiaoxiae/.cache/kdenlive/proxy/6b665121ca7b54a5f5307b69451fd23c.png</property>
  <property name="ttl">25</property>
  <property name="aspect_ratio">1</property>
  <property name="progressive">1</property>
  <property name="seekable">1</property>
  <property name="meta.media.width">800</property>
  <property name="meta.media.height">450</property>
  <property name="mlt_service">qimage</property>
  <property name="kdenlive:clipname">28.png</property>
  <property name="kdenlive:duration">00:00:05.000</property>
  <property name="kdenlive:folderid">277</property>
  <property name="kdenlive:id">296</property>
  <property name="kdenlive:file_size">24337</property>
  <property name="kdenlive:file_hash">6b665121ca7b54a5f5307b69451fd23c</property>
  <property name="kdenlive:proxy">/home/xiaoxiae/.cache/kdenlive/proxy/6b665121ca7b54a5f5307b69451fd23c.png</property>
  <property name="kdenlive:originalurl">video/Observations/28.png</property>
  <property name="global_feed">1</property>
  <property name="kdenlive:original.mlt_type">producer</property>
  <property name="kdenlive:original.in">0</property>
  <property name="kdenlive:original.out">14999</property>
  <property name="kdenlive:original.length">15000</property>
  <property name="kdenlive:original.eof">pause</property>
  <property name="kdenlive:original.resource">video/Observations/28.png</property>
  <property name="kdenlive:original.ttl">25</property>
  <property name="kdenlive:original.aspect_ratio">1</property>
  <property name="kdenlive:original.progressive">1</property>
  <property name="kdenlive:original.seekable">1</property>
  <property name="kdenlive:original.meta.media.width">3840</property>
  <property name="kdenlive:original.meta.media.height">2160</property>
  <property name="kdenlive:original.mlt_service">qimage</property>
  <property name="kdenlive:original.backup">1</property>
 </producer>
 <producer id="producer331" in="00:00:00.000" out="00:00:00.983">
  <property name="length">60</property>
  <property name="eof">pause</property>
  <property name="resource">/home/xiaoxiae/.cache/kdenlive/proxy/4fcba474d736c43e6f4d2fc9dd829f93.mkv</property>
  <property name="audio_index">-1</property>
  <property name="video_index">0</property>
  <property name="mute_on_pause">0</property>
  <property name="mlt_service">avformat-novalidate</property>
  <property name="seekable">1</property>
  <property name="aspect_ratio">1</property>
  <property name="kdenlive:clipname">29.mp4</property>
  <property name="kdenlive:folderid">277</property>
  <property name="kdenlive:id">297</property>
  <property name="kdenlive:file_size">55371</property>
  <property name="kdenlive:file_hash">4fcba474d736c43e6f4d2fc9dd829f93</property>
  <property name="kdenlive:proxy">/home/xiaoxiae/.cache/kdenlive/proxy/4fcba474d736c43e6f4d2fc9dd829f93.mkv</property>
  <property name="kdenlive:originalurl">video/Observations/29.mp4</property>
  <property name="global_feed">1</property>
  <property name="meta.media.nb_streams">1</property>
  <property name="meta.media.0.stream.type">video</property>
  <property name="meta.media.0.stream.frame_rate">60</property>
  <property name="meta.media.0.stream.sample_aspect_ratio">0</property>
  <property name="meta.media.0.codec.width">640</property>
  <property name="meta.media.0.codec.height">360</property>
  <property name="meta.media.0.codec.rotate">0</property>
  <property name="meta.media.0.codec.frame_rate">60</property>
  <property name="meta.media.0.codec.pix_fmt">yuv420p</property>
  <property name="meta.media.0.codec.sample_aspect_ratio">0</property>
  <property name="meta.media.0.codec.colorspace">601</property>
  <property name="meta.media.0.codec.name">h264</property>
  <property name="meta.media.0.codec.long_name">H.264 / AVC / MPEG-4 AVC / MPEG-4 part 10</property>
  <property name="meta.media.0.codec.bit_rate">0</property>
  <property name="meta.attr.0.stream.HANDLER_NAME.markup">VideoHandler</property>
  <property name="meta.attr.0.stream.VENDOR_ID.markup">[0][0][0][0]</property>
  <property name="meta.attr.0.stream.ENCODER.markup">Lavc58.134.100 libx264</property>
  <property name="meta.attr.0.stream.DURATION.markup">00:00:01.000000000</property>
  <property name="meta.attr.COMMENT.markup">Rendered with Manim Community v0.6.0</property>
  <property name="meta.attr.MAJOR_BRAND.markup">isom</property>
  <property name="meta.attr.MINOR_VERSION.markup">512</property>
  <property name="meta.attr.COMPATIBLE_BRANDS.markup">isomiso2avc1mp41</property>
  <property name="meta.attr.ENCODER.markup">Lavf58.76.100</property>
  <property name="meta.media.sample_aspect_num">1</property>
  <property name="meta.media.sample_aspect_den">1</property>
  <property name="meta.media.frame_rate_num">60</property>
  <property name="meta.media.frame_rate_den">1</property>
  <property name="meta.media.colorspace">601</property>
  <property name="meta.media.color_trc">2</property>
  <property name="meta.media.width">640</property>
  <property name="meta.media.height">360</property>
  <property name="meta.media.color_range">mpeg</property>
  <property name="meta.media.top_field_first">0</property>
  <property name="meta.media.progressive">1</property>
  <property name="kdenlive:original.mlt_type">producer</property>
  <property name="kdenlive:original.in">0</property>
  <property name="kdenlive:original.out">59</property>
  <property name="kdenlive:original.length">60</property>
  <property name="kdenlive:original.eof">pause</property>
  <property name="kdenlive:original.resource">video/Observations/29.mp4</property>
  <property name="kdenlive:original.meta.media.nb_streams">1</property>
  <property name="kdenlive:original.meta.media.0.stream.type">video</property>
  <property name="kdenlive:original.meta.media.0.stream.frame_rate">60</property>
  <property name="kdenlive:original.meta.media.0.stream.sample_aspect_ratio">0</property>
  <property name="kdenlive:original.meta.media.0.codec.width">3840</property>
  <property name="kdenlive:original.meta.media.0.codec.height">2160</property>
  <property name="kdenlive:original.meta.media.0.codec.rotate">0</property>
  <property name="kdenlive:original.meta.media.0.codec.frame_rate">60</property>
  <property name="kdenlive:original.meta.media.0.codec.pix_fmt">yuv420p</property>
  <property name="kdenlive:original.meta.media.0.codec.sample_aspect_ratio">0</property>
  <property name="kdenlive:original.meta.media.0.codec.colorspace">709</property>
  <property name="kdenlive:original.meta.media.0.codec.name">h264</property>
  <property name="kdenlive:original.meta.media.0.codec.long_name">H.264 / AVC / MPEG-4 AVC / MPEG-4 part 10</property>
  <property name="kdenlive:original.meta.media.0.codec.bit_rate">429920</property>
  <property name="kdenlive:original.meta.attr.0.stream.handler_name.markup">VideoHandler</property>
  <property name="kdenlive:original.meta.attr.0.stream.vendor_id.markup">[0][0][0][0]</property>
  <property name="kdenlive:original.meta.attr.major_brand.markup">isom</property>
  <property name="kdenlive:original.meta.attr.minor_version.markup">512</property>
  <property name="kdenlive:original.meta.attr.compatible_brands.markup">isomiso2avc1mp41</property>
  <property name="kdenlive:original.meta.attr.encoder.markup">Lavf58.76.100</property>
  <property name="kdenlive:original.meta.attr.comment.markup">Rendered with Manim Community v0.6.0</property>
  <property name="kdenlive:original.seekable">1</property>
  <property name="kdenlive:original.width">3840</property>
  <property name="kdenlive:original.height">2160</property>
  <property name="kdenlive:original.meta.media.sample_aspect_num">1</property>
  <property name="kdenlive:original.meta.media.sample_aspect_den">1</property>
  <property name="kdenlive:original.aspect_ratio">1</property>
  <property name="kdenlive:original.audio_index">-1</property>
  <property name="kdenlive:original.video_index">0</property>
  <property name="kdenlive:original.mute_on_pause">1</property>
  <property name="kdenlive:original.mlt_service">avformat</property>
  <property name="kdenlive:original.meta.media.frame_rate_num">60</property>
  <property name="kdenlive:original.meta.media.frame_rate_den">1</property>
  <property name="kdenlive:original.meta.media.colorspace">709</property>
  <property name="kdenlive:original.meta.media.color_trc">2</property>
  <property name="kdenlive:original.meta.media.width">3840</property>
  <property name="kdenlive:original.meta.media.height">2160</property>
  <property name="kdenlive:original.meta.media.color_range">mpeg</property>
  <property name="kdenlive:original.meta.media.top_field_first">0</property>
  <property name="kdenlive:original.meta.media.progressive">1</property>
  <property name="kdenlive:original.backup">1</property>
 </producer>
 <producer id="producer332" in="00:00:00.000" out="00:00:04.983">
  <property name="length">00:00:05.000</property>
  <property name="eof">pause</property>
  <property name="resource">/home/xiaoxiae/.cache/kdenlive/proxy/266c0540b89e2f07d515744aa1c1f297.png</property>
  <property name="ttl">25</property>
  <property name="aspect_ratio">1</property>
  <property name="progressive">1</property>
  <property name="seekable">1</property>
  <property name="meta.media.width">800</property>
  <property name="meta.media.height">450</property>
  <property name="mlt_service">qimage</property>
  <property name="kdenlive:clipname">29.png</property>
  <property name="kdenlive:duration">00:00:05.000</property>
  <property name="kdenlive:folderid">277</property>
  <property name="kdenlive:id">298</property>
  <property name="kdenlive:file_size">65434</property>
  <property name="kdenlive:file_hash">266c0540b89e2f07d515744aa1c1f297</property>
  <property name="kdenlive:proxy">/home/xiaoxiae/.cache/kdenlive/proxy/266c0540b89e2f07d515744aa1c1f297.png</property>
  <property name="kdenlive:originalurl">video/Observations/29.png</property>
  <property name="global_feed">1</property>
  <property name="kdenlive:original.mlt_type">producer</property>
  <property name="kdenlive:original.in">0</property>
  <property name="kdenlive:original.out">14999</property>
  <property name="kdenlive:original.length">15000</property>
  <property name="kdenlive:original.eof">pause</property>
  <property name="kdenlive:original.resource">video/Observations/29.png</property>
  <property name="kdenlive:original.ttl">25</property>
  <property name="kdenlive:original.aspect_ratio">1</property>
  <property name="kdenlive:original.progressive">1</property>
  <property name="kdenlive:original.seekable">1</property>
  <property name="kdenlive:original.meta.media.width">3840</property>
  <property name="kdenlive:original.meta.media.height">2160</property>
  <property name="kdenlive:original.mlt_service">qimage</property>
  <property name="kdenlive:original.backup">1</property>
 </producer>
 <producer id="producer334" in="00:00:00.000" out="00:00:00.983">
  <property name="length">60</property>
  <property name="eof">pause</property>
  <property name="resource">/home/xiaoxiae/.cache/kdenlive/proxy/6a75fc1841b9fe80cab537f789f00c54.mkv</property>
  <property name="audio_index">-1</property>
  <property name="video_index">0</property>
  <property name="mute_on_pause">0</property>
  <property name="mlt_service">avformat-novalidate</property>
  <property name="seekable">1</property>
  <property name="aspect_ratio">1</property>
  <property name="kdenlive:clipname">3.mp4</property>
  <property name="kdenlive:folderid">277</property>
  <property name="kdenlive:id">299</property>
  <property name="kdenlive:file_size">70387</property>
  <property name="kdenlive:file_hash">6a75fc1841b9fe80cab537f789f00c54</property>
  <property name="kdenlive:proxy">/home/xiaoxiae/.cache/kdenlive/proxy/6a75fc1841b9fe80cab537f789f00c54.mkv</property>
  <property name="kdenlive:originalurl">video/Observations/3.mp4</property>
  <property name="global_feed">1</property>
  <property name="meta.media.nb_streams">1</property>
  <property name="meta.media.0.stream.type">video</property>
  <property name="meta.media.0.stream.frame_rate">60</property>
  <property name="meta.media.0.stream.sample_aspect_ratio">0</property>
  <property name="meta.media.0.codec.width">640</property>
  <property name="meta.media.0.codec.height">360</property>
  <property name="meta.media.0.codec.rotate">0</property>
  <property name="meta.media.0.codec.frame_rate">60</property>
  <property name="meta.media.0.codec.pix_fmt">yuv420p</property>
  <property name="meta.media.0.codec.sample_aspect_ratio">0</property>
  <property name="meta.media.0.codec.colorspace">601</property>
  <property name="meta.media.0.codec.name">h264</property>
  <property name="meta.media.0.codec.long_name">H.264 / AVC / MPEG-4 AVC / MPEG-4 part 10</property>
  <property name="meta.media.0.codec.bit_rate">0</property>
  <property name="meta.attr.0.stream.HANDLER_NAME.markup">VideoHandler</property>
  <property name="meta.attr.0.stream.VENDOR_ID.markup">[0][0][0][0]</property>
  <property name="meta.attr.0.stream.ENCODER.markup">Lavc58.134.100 libx264</property>
  <property name="meta.attr.0.stream.DURATION.markup">00:00:01.000000000</property>
  <property name="meta.attr.COMMENT.markup">Rendered with Manim Community v0.6.0</property>
  <property name="meta.attr.MAJOR_BRAND.markup">isom</property>
  <property name="meta.attr.MINOR_VERSION.markup">512</property>
  <property name="meta.attr.COMPATIBLE_BRANDS.markup">isomiso2avc1mp41</property>
  <property name="meta.attr.ENCODER.markup">Lavf58.76.100</property>
  <property name="meta.media.sample_aspect_num">1</property>
  <property name="meta.media.sample_aspect_den">1</property>
  <property name="meta.media.frame_rate_num">60</property>
  <property name="meta.media.frame_rate_den">1</property>
  <property name="meta.media.colorspace">601</property>
  <property name="meta.media.color_trc">2</property>
  <property name="meta.media.width">640</property>
  <property name="meta.media.height">360</property>
  <property name="meta.media.color_range">mpeg</property>
  <property name="meta.media.top_field_first">0</property>
  <property name="meta.media.progressive">1</property>
  <property name="kdenlive:original.mlt_type">producer</property>
  <property name="kdenlive:original.in">0</property>
  <property name="kdenlive:original.out">59</property>
  <property name="kdenlive:original.length">60</property>
  <property name="kdenlive:original.eof">pause</property>
  <property name="kdenlive:original.resource">video/Observations/3.mp4</property>
  <property name="kdenlive:original.meta.media.nb_streams">1</property>
  <property name="kdenlive:original.meta.media.0.stream.type">video</property>
  <property name="kdenlive:original.meta.media.0.stream.frame_rate">60</property>
  <property name="kdenlive:original.meta.media.0.stream.sample_aspect_ratio">0</property>
  <property name="kdenlive:original.meta.media.0.codec.width">3840</property>
  <property name="kdenlive:original.meta.media.0.codec.height">2160</property>
  <property name="kdenlive:original.meta.media.0.codec.rotate">0</property>
  <property name="kdenlive:original.meta.media.0.codec.frame_rate">60</property>
  <property name="kdenlive:original.meta.media.0.codec.pix_fmt">yuv420p</property>
  <property name="kdenlive:original.meta.media.0.codec.sample_aspect_ratio">0</property>
  <property name="kdenlive:original.meta.media.0.codec.colorspace">709</property>
  <property name="kdenlive:original.meta.media.0.codec.name">h264</property>
  <property name="kdenlive:original.meta.media.0.codec.long_name">H.264 / AVC / MPEG-4 AVC / MPEG-4 part 10</property>
  <property name="kdenlive:original.meta.media.0.codec.bit_rate">550048</property>
  <property name="kdenlive:original.meta.attr.0.stream.handler_name.markup">VideoHandler</property>
  <property name="kdenlive:original.meta.attr.0.stream.vendor_id.markup">[0][0][0][0]</property>
  <property name="kdenlive:original.meta.attr.major_brand.markup">isom</property>
  <property name="kdenlive:original.meta.attr.minor_version.markup">512</property>
  <property name="kdenlive:original.meta.attr.compatible_brands.markup">isomiso2avc1mp41</property>
  <property name="kdenlive:original.meta.attr.encoder.markup">Lavf58.76.100</property>
  <property name="kdenlive:original.meta.attr.comment.markup">Rendered with Manim Community v0.6.0</property>
  <property name="kdenlive:original.seekable">1</property>
  <property name="kdenlive:original.width">3840</property>
  <property name="kdenlive:original.height">2160</property>
  <property name="kdenlive:original.meta.media.sample_aspect_num">1</property>
  <property name="kdenlive:original.meta.media.sample_aspect_den">1</property>
  <property name="kdenlive:original.aspect_ratio">1</property>
  <property name="kdenlive:original.audio_index">-1</property>
  <property name="kdenlive:original.video_index">0</property>
  <property name="kdenlive:original.mute_on_pause">1</property>
  <property name="kdenlive:original.mlt_service">avformat</property>
  <property name="kdenlive:original.meta.media.frame_rate_num">60</property>
  <property name="kdenlive:original.meta.media.frame_rate_den">1</property>
  <property name="kdenlive:original.meta.media.colorspace">709</property>
  <property name="kdenlive:original.meta.media.color_trc">2</property>
  <property name="kdenlive:original.meta.media.width">3840</property>
  <property name="kdenlive:original.meta.media.height">2160</property>
  <property name="kdenlive:original.meta.media.color_range">mpeg</property>
  <property name="kdenlive:original.meta.media.top_field_first">0</property>
  <property name="kdenlive:original.meta.media.progressive">1</property>
  <property name="kdenlive:original.backup">1</property>
 </producer>
 <producer id="producer333" in="00:00:00.000" out="00:00:05.583">
  <property name="length">336</property>
  <property name="eof">pause</property>
  <property name="resource">/home/xiaoxiae/.cache/kdenlive/proxy/18b925eff89d8a2a0bc09251f8c6f5f5.png</property>
  <property name="ttl">25</property>
  <property name="aspect_ratio">1</property>
  <property name="progressive">1</property>
  <property name="seekable">1</property>
  <property name="meta.media.width">800</property>
  <property name="meta.media.height">450</property>
  <property name="mlt_service">qimage</property>
  <property name="kdenlive:clipname">3.png</property>
  <property name="kdenlive:duration">00:00:05.000</property>
  <property name="kdenlive:folderid">277</property>
  <property name="kdenlive:id">300</property>
  <property name="kdenlive:file_size">123565</property>
  <property name="kdenlive:file_hash">18b925eff89d8a2a0bc09251f8c6f5f5</property>
  <property name="kdenlive:proxy">/home/xiaoxiae/.cache/kdenlive/proxy/18b925eff89d8a2a0bc09251f8c6f5f5.png</property>
  <property name="kdenlive:originalurl">video/Observations/3.png</property>
  <property name="global_feed">1</property>
  <property name="kdenlive:original.mlt_type">producer</property>
  <property name="kdenlive:original.in">0</property>
  <property name="kdenlive:original.out">14999</property>
  <property name="kdenlive:original.length">15000</property>
  <property name="kdenlive:original.eof">pause</property>
  <property name="kdenlive:original.resource">video/Observations/3.png</property>
  <property name="kdenlive:original.ttl">25</property>
  <property name="kdenlive:original.aspect_ratio">1</property>
  <property name="kdenlive:original.progressive">1</property>
  <property name="kdenlive:original.seekable">1</property>
  <property name="kdenlive:original.meta.media.width">3840</property>
  <property name="kdenlive:original.meta.media.height">2160</property>
  <property name="kdenlive:original.mlt_service">qimage</property>
  <property name="kdenlive:original.backup">1</property>
 </producer>
 <producer id="producer335" in="00:00:00.000" out="00:00:00.983">
  <property name="length">60</property>
  <property name="eof">pause</property>
  <property name="resource">/home/xiaoxiae/.cache/kdenlive/proxy/ef86dd7e123e54de8bfebb5b74605f65.mkv</property>
  <property name="audio_index">-1</property>
  <property name="video_index">0</property>
  <property name="mute_on_pause">0</property>
  <property name="mlt_service">avformat-novalidate</property>
  <property name="seekable">1</property>
  <property name="aspect_ratio">1</property>
  <property name="kdenlive:clipname">30.mp4</property>
  <property name="kdenlive:folderid">277</property>
  <property name="kdenlive:id">301</property>
  <property name="kdenlive:file_size">55312</property>
  <property name="kdenlive:file_hash">ef86dd7e123e54de8bfebb5b74605f65</property>
  <property name="kdenlive:proxy">/home/xiaoxiae/.cache/kdenlive/proxy/ef86dd7e123e54de8bfebb5b74605f65.mkv</property>
  <property name="kdenlive:originalurl">video/Observations/30.mp4</property>
  <property name="global_feed">1</property>
  <property name="meta.media.nb_streams">1</property>
  <property name="meta.media.0.stream.type">video</property>
  <property name="meta.media.0.stream.frame_rate">60</property>
  <property name="meta.media.0.stream.sample_aspect_ratio">0</property>
  <property name="meta.media.0.codec.width">640</property>
  <property name="meta.media.0.codec.height">360</property>
  <property name="meta.media.0.codec.rotate">0</property>
  <property name="meta.media.0.codec.frame_rate">60</property>
  <property name="meta.media.0.codec.pix_fmt">yuv420p</property>
  <property name="meta.media.0.codec.sample_aspect_ratio">0</property>
  <property name="meta.media.0.codec.colorspace">601</property>
  <property name="meta.media.0.codec.name">h264</property>
  <property name="meta.media.0.codec.long_name">H.264 / AVC / MPEG-4 AVC / MPEG-4 part 10</property>
  <property name="meta.media.0.codec.bit_rate">0</property>
  <property name="meta.attr.0.stream.HANDLER_NAME.markup">VideoHandler</property>
  <property name="meta.attr.0.stream.VENDOR_ID.markup">[0][0][0][0]</property>
  <property name="meta.attr.0.stream.ENCODER.markup">Lavc58.134.100 libx264</property>
  <property name="meta.attr.0.stream.DURATION.markup">00:00:01.000000000</property>
  <property name="meta.attr.COMMENT.markup">Rendered with Manim Community v0.6.0</property>
  <property name="meta.attr.MAJOR_BRAND.markup">isom</property>
  <property name="meta.attr.MINOR_VERSION.markup">512</property>
  <property name="meta.attr.COMPATIBLE_BRANDS.markup">isomiso2avc1mp41</property>
  <property name="meta.attr.ENCODER.markup">Lavf58.76.100</property>
  <property name="meta.media.sample_aspect_num">1</property>
  <property name="meta.media.sample_aspect_den">1</property>
  <property name="meta.media.frame_rate_num">60</property>
  <property name="meta.media.frame_rate_den">1</property>
  <property name="meta.media.colorspace">601</property>
  <property name="meta.media.color_trc">2</property>
  <property name="meta.media.width">640</property>
  <property name="meta.media.height">360</property>
  <property name="meta.media.color_range">mpeg</property>
  <property name="meta.media.top_field_first">0</property>
  <property name="meta.media.progressive">1</property>
  <property name="kdenlive:original.mlt_type">producer</property>
  <property name="kdenlive:original.in">0</property>
  <property name="kdenlive:original.out">59</property>
  <property name="kdenlive:original.length">60</property>
  <property name="kdenlive:original.eof">pause</property>
  <property name="kdenlive:original.resource">video/Observations/30.mp4</property>
  <property name="kdenlive:original.meta.media.nb_streams">1</property>
  <property name="kdenlive:original.meta.media.0.stream.type">video</property>
  <property name="kdenlive:original.meta.media.0.stream.frame_rate">60</property>
  <property name="kdenlive:original.meta.media.0.stream.sample_aspect_ratio">0</property>
  <property name="kdenlive:original.meta.media.0.codec.width">3840</property>
  <property name="kdenlive:original.meta.media.0.codec.height">2160</property>
  <property name="kdenlive:original.meta.media.0.codec.rotate">0</property>
  <property name="kdenlive:original.meta.media.0.codec.frame_rate">60</property>
  <property name="kdenlive:original.meta.media.0.codec.pix_fmt">yuv420p</property>
  <property name="kdenlive:original.meta.media.0.codec.sample_aspect_ratio">0</property>
  <property name="kdenlive:original.meta.media.0.codec.colorspace">709</property>
  <property name="kdenlive:original.meta.media.0.codec.name">h264</property>
  <property name="kdenlive:original.meta.media.0.codec.long_name">H.264 / AVC / MPEG-4 AVC / MPEG-4 part 10</property>
  <property name="kdenlive:original.meta.media.0.codec.bit_rate">430088</property>
  <property name="kdenlive:original.meta.attr.0.stream.handler_name.markup">VideoHandler</property>
  <property name="kdenlive:original.meta.attr.0.stream.vendor_id.markup">[0][0][0][0]</property>
  <property name="kdenlive:original.meta.attr.major_brand.markup">isom</property>
  <property name="kdenlive:original.meta.attr.minor_version.markup">512</property>
  <property name="kdenlive:original.meta.attr.compatible_brands.markup">isomiso2avc1mp41</property>
  <property name="kdenlive:original.meta.attr.encoder.markup">Lavf58.76.100</property>
  <property name="kdenlive:original.meta.attr.comment.markup">Rendered with Manim Community v0.6.0</property>
  <property name="kdenlive:original.seekable">1</property>
  <property name="kdenlive:original.width">3840</property>
  <property name="kdenlive:original.height">2160</property>
  <property name="kdenlive:original.meta.media.sample_aspect_num">1</property>
  <property name="kdenlive:original.meta.media.sample_aspect_den">1</property>
  <property name="kdenlive:original.aspect_ratio">1</property>
  <property name="kdenlive:original.audio_index">-1</property>
  <property name="kdenlive:original.video_index">0</property>
  <property name="kdenlive:original.mute_on_pause">1</property>
  <property name="kdenlive:original.mlt_service">avformat</property>
  <property name="kdenlive:original.meta.media.frame_rate_num">60</property>
  <property name="kdenlive:original.meta.media.frame_rate_den">1</property>
  <property name="kdenlive:original.meta.media.colorspace">709</property>
  <property name="kdenlive:original.meta.media.color_trc">2</property>
  <property name="kdenlive:original.meta.media.width">3840</property>
  <property name="kdenlive:original.meta.media.height">2160</property>
  <property name="kdenlive:original.meta.media.color_range">mpeg</property>
  <property name="kdenlive:original.meta.media.top_field_first">0</property>
  <property name="kdenlive:original.meta.media.progressive">1</property>
  <property name="kdenlive:original.backup">1</property>
 </producer>
 <producer id="producer336" in="00:00:00.000" out="00:00:04.983">
  <property name="length">00:00:05.000</property>
  <property name="eof">pause</property>
  <property name="resource">/home/xiaoxiae/.cache/kdenlive/proxy/0a88a5f8a10c355fb5cf83dc3f153c6c.png</property>
  <property name="ttl">25</property>
  <property name="aspect_ratio">1</property>
  <property name="progressive">1</property>
  <property name="seekable">1</property>
  <property name="meta.media.width">800</property>
  <property name="meta.media.height">450</property>
  <property name="mlt_service">qimage</property>
  <property name="kdenlive:clipname">30.png</property>
  <property name="kdenlive:duration">00:00:05.000</property>
  <property name="kdenlive:folderid">277</property>
  <property name="kdenlive:id">302</property>
  <property name="kdenlive:file_size">63901</property>
  <property name="kdenlive:file_hash">0a88a5f8a10c355fb5cf83dc3f153c6c</property>
  <property name="kdenlive:proxy">/home/xiaoxiae/.cache/kdenlive/proxy/0a88a5f8a10c355fb5cf83dc3f153c6c.png</property>
  <property name="kdenlive:originalurl">video/Observations/30.png</property>
  <property name="global_feed">1</property>
  <property name="kdenlive:original.mlt_type">producer</property>
  <property name="kdenlive:original.in">0</property>
  <property name="kdenlive:original.out">14999</property>
  <property name="kdenlive:original.length">15000</property>
  <property name="kdenlive:original.eof">pause</property>
  <property name="kdenlive:original.resource">video/Observations/30.png</property>
  <property name="kdenlive:original.ttl">25</property>
  <property name="kdenlive:original.aspect_ratio">1</property>
  <property name="kdenlive:original.progressive">1</property>
  <property name="kdenlive:original.seekable">1</property>
  <property name="kdenlive:original.meta.media.width">3840</property>
  <property name="kdenlive:original.meta.media.height">2160</property>
  <property name="kdenlive:original.mlt_service">qimage</property>
  <property name="kdenlive:original.backup">1</property>
 </producer>
 <producer id="producer339" in="00:00:00.000" out="00:00:00.983">
  <property name="length">60</property>
  <property name="eof">pause</property>
  <property name="resource">/home/xiaoxiae/.cache/kdenlive/proxy/41153a8e6de7a5b1c87c720cd44daba1.mkv</property>
  <property name="audio_index">-1</property>
  <property name="video_index">0</property>
  <property name="mute_on_pause">0</property>
  <property name="mlt_service">avformat-novalidate</property>
  <property name="seekable">1</property>
  <property name="aspect_ratio">1</property>
  <property name="kdenlive:clipname">31.mp4</property>
  <property name="kdenlive:folderid">277</property>
  <property name="kdenlive:id">303</property>
  <property name="kdenlive:file_size">49972</property>
  <property name="kdenlive:file_hash">41153a8e6de7a5b1c87c720cd44daba1</property>
  <property name="kdenlive:proxy">/home/xiaoxiae/.cache/kdenlive/proxy/41153a8e6de7a5b1c87c720cd44daba1.mkv</property>
  <property name="kdenlive:originalurl">video/Observations/31.mp4</property>
  <property name="global_feed">1</property>
  <property name="meta.media.nb_streams">1</property>
  <property name="meta.media.0.stream.type">video</property>
  <property name="meta.media.0.stream.frame_rate">60</property>
  <property name="meta.media.0.stream.sample_aspect_ratio">0</property>
  <property name="meta.media.0.codec.width">640</property>
  <property name="meta.media.0.codec.height">360</property>
  <property name="meta.media.0.codec.rotate">0</property>
  <property name="meta.media.0.codec.frame_rate">60</property>
  <property name="meta.media.0.codec.pix_fmt">yuv420p</property>
  <property name="meta.media.0.codec.sample_aspect_ratio">0</property>
  <property name="meta.media.0.codec.colorspace">601</property>
  <property name="meta.media.0.codec.name">h264</property>
  <property name="meta.media.0.codec.long_name">H.264 / AVC / MPEG-4 AVC / MPEG-4 part 10</property>
  <property name="meta.media.0.codec.bit_rate">0</property>
  <property name="meta.attr.0.stream.HANDLER_NAME.markup">VideoHandler</property>
  <property name="meta.attr.0.stream.VENDOR_ID.markup">[0][0][0][0]</property>
  <property name="meta.attr.0.stream.ENCODER.markup">Lavc58.134.100 libx264</property>
  <property name="meta.attr.0.stream.DURATION.markup">00:00:01.000000000</property>
  <property name="meta.attr.COMMENT.markup">Rendered with Manim Community v0.6.0</property>
  <property name="meta.attr.MAJOR_BRAND.markup">isom</property>
  <property name="meta.attr.MINOR_VERSION.markup">512</property>
  <property name="meta.attr.COMPATIBLE_BRANDS.markup">isomiso2avc1mp41</property>
  <property name="meta.attr.ENCODER.markup">Lavf58.76.100</property>
  <property name="meta.media.sample_aspect_num">1</property>
  <property name="meta.media.sample_aspect_den">1</property>
  <property name="meta.media.frame_rate_num">60</property>
  <property name="meta.media.frame_rate_den">1</property>
  <property name="meta.media.colorspace">601</property>
  <property name="meta.media.color_trc">2</property>
  <property name="meta.media.width">640</property>
  <property name="meta.media.height">360</property>
  <property name="meta.media.color_range">mpeg</property>
  <property name="meta.media.top_field_first">0</property>
  <property name="meta.media.progressive">1</property>
  <property name="kdenlive:original.mlt_type">producer</property>
  <property name="kdenlive:original.in">0</property>
  <property name="kdenlive:original.out">59</property>
  <property name="kdenlive:original.length">60</property>
  <property name="kdenlive:original.eof">pause</property>
  <property name="kdenlive:original.resource">video/Observations/31.mp4</property>
  <property name="kdenlive:original.meta.media.nb_streams">1</property>
  <property name="kdenlive:original.meta.media.0.stream.type">video</property>
  <property name="kdenlive:original.meta.media.0.stream.frame_rate">60</property>
  <property name="kdenlive:original.meta.media.0.stream.sample_aspect_ratio">0</property>
  <property name="kdenlive:original.meta.media.0.codec.width">3840</property>
  <property name="kdenlive:original.meta.media.0.codec.height">2160</property>
  <property name="kdenlive:original.meta.media.0.codec.rotate">0</property>
  <property name="kdenlive:original.meta.media.0.codec.frame_rate">60</property>
  <property name="kdenlive:original.meta.media.0.codec.pix_fmt">yuv420p</property>
  <property name="kdenlive:original.meta.media.0.codec.sample_aspect_ratio">0</property>
  <property name="kdenlive:original.meta.media.0.codec.colorspace">709</property>
  <property name="kdenlive:original.meta.media.0.codec.name">h264</property>
  <property name="kdenlive:original.meta.media.0.codec.long_name">H.264 / AVC / MPEG-4 AVC / MPEG-4 part 10</property>
  <property name="kdenlive:original.meta.media.0.codec.bit_rate">386728</property>
  <property name="kdenlive:original.meta.attr.0.stream.handler_name.markup">VideoHandler</property>
  <property name="kdenlive:original.meta.attr.0.stream.vendor_id.markup">[0][0][0][0]</property>
  <property name="kdenlive:original.meta.attr.major_brand.markup">isom</property>
  <property name="kdenlive:original.meta.attr.minor_version.markup">512</property>
  <property name="kdenlive:original.meta.attr.compatible_brands.markup">isomiso2avc1mp41</property>
  <property name="kdenlive:original.meta.attr.encoder.markup">Lavf58.76.100</property>
  <property name="kdenlive:original.meta.attr.comment.markup">Rendered with Manim Community v0.6.0</property>
  <property name="kdenlive:original.seekable">1</property>
  <property name="kdenlive:original.width">3840</property>
  <property name="kdenlive:original.height">2160</property>
  <property name="kdenlive:original.meta.media.sample_aspect_num">1</property>
  <property name="kdenlive:original.meta.media.sample_aspect_den">1</property>
  <property name="kdenlive:original.aspect_ratio">1</property>
  <property name="kdenlive:original.audio_index">-1</property>
  <property name="kdenlive:original.video_index">0</property>
  <property name="kdenlive:original.mute_on_pause">1</property>
  <property name="kdenlive:original.mlt_service">avformat</property>
  <property name="kdenlive:original.meta.media.frame_rate_num">60</property>
  <property name="kdenlive:original.meta.media.frame_rate_den">1</property>
  <property name="kdenlive:original.meta.media.colorspace">709</property>
  <property name="kdenlive:original.meta.media.color_trc">2</property>
  <property name="kdenlive:original.meta.media.width">3840</property>
  <property name="kdenlive:original.meta.media.height">2160</property>
  <property name="kdenlive:original.meta.media.color_range">mpeg</property>
  <property name="kdenlive:original.meta.media.top_field_first">0</property>
  <property name="kdenlive:original.meta.media.progressive">1</property>
  <property name="kdenlive:original.backup">1</property>
 </producer>
 <producer id="producer337" in="00:00:00.000" out="00:00:04.983">
  <property name="length">00:00:05.000</property>
  <property name="eof">pause</property>
  <property name="resource">/home/xiaoxiae/.cache/kdenlive/proxy/c565ab6a745f6df6f46fde0558ad48f8.png</property>
  <property name="ttl">25</property>
  <property name="aspect_ratio">1</property>
  <property name="progressive">1</property>
  <property name="seekable">1</property>
  <property name="meta.media.width">800</property>
  <property name="meta.media.height">450</property>
  <property name="mlt_service">qimage</property>
  <property name="kdenlive:clipname">31.png</property>
  <property name="kdenlive:duration">00:00:05.000</property>
  <property name="kdenlive:folderid">277</property>
  <property name="kdenlive:id">304</property>
  <property name="kdenlive:file_size">84222</property>
  <property name="kdenlive:file_hash">c565ab6a745f6df6f46fde0558ad48f8</property>
  <property name="kdenlive:proxy">/home/xiaoxiae/.cache/kdenlive/proxy/c565ab6a745f6df6f46fde0558ad48f8.png</property>
  <property name="kdenlive:originalurl">video/Observations/31.png</property>
  <property name="global_feed">1</property>
 </producer>
 <producer id="producer340" in="00:00:00.000" out="00:00:00.983">
  <property name="length">60</property>
  <property name="eof">pause</property>
  <property name="resource">/home/xiaoxiae/.cache/kdenlive/proxy/78503917825c1dc4c4d62a84188cdb3e.mkv</property>
  <property name="audio_index">-1</property>
  <property name="video_index">0</property>
  <property name="mute_on_pause">0</property>
  <property name="mlt_service">avformat-novalidate</property>
  <property name="seekable">1</property>
  <property name="aspect_ratio">1</property>
  <property name="kdenlive:clipname">32.mp4</property>
  <property name="kdenlive:folderid">277</property>
  <property name="kdenlive:id">305</property>
  <property name="kdenlive:file_size">52654</property>
  <property name="kdenlive:file_hash">78503917825c1dc4c4d62a84188cdb3e</property>
  <property name="kdenlive:proxy">/home/xiaoxiae/.cache/kdenlive/proxy/78503917825c1dc4c4d62a84188cdb3e.mkv</property>
  <property name="kdenlive:originalurl">video/Observations/32.mp4</property>
  <property name="global_feed">1</property>
  <property name="meta.media.nb_streams">1</property>
  <property name="meta.media.0.stream.type">video</property>
  <property name="meta.media.0.stream.frame_rate">60</property>
  <property name="meta.media.0.stream.sample_aspect_ratio">0</property>
  <property name="meta.media.0.codec.width">640</property>
  <property name="meta.media.0.codec.height">360</property>
  <property name="meta.media.0.codec.rotate">0</property>
  <property name="meta.media.0.codec.frame_rate">60</property>
  <property name="meta.media.0.codec.pix_fmt">yuv420p</property>
  <property name="meta.media.0.codec.sample_aspect_ratio">0</property>
  <property name="meta.media.0.codec.colorspace">601</property>
  <property name="meta.media.0.codec.name">h264</property>
  <property name="meta.media.0.codec.long_name">H.264 / AVC / MPEG-4 AVC / MPEG-4 part 10</property>
  <property name="meta.media.0.codec.bit_rate">0</property>
  <property name="meta.attr.0.stream.HANDLER_NAME.markup">VideoHandler</property>
  <property name="meta.attr.0.stream.VENDOR_ID.markup">[0][0][0][0]</property>
  <property name="meta.attr.0.stream.ENCODER.markup">Lavc58.134.100 libx264</property>
  <property name="meta.attr.0.stream.DURATION.markup">00:00:01.000000000</property>
  <property name="meta.attr.COMMENT.markup">Rendered with Manim Community v0.6.0</property>
  <property name="meta.attr.MAJOR_BRAND.markup">isom</property>
  <property name="meta.attr.MINOR_VERSION.markup">512</property>
  <property name="meta.attr.COMPATIBLE_BRANDS.markup">isomiso2avc1mp41</property>
  <property name="meta.attr.ENCODER.markup">Lavf58.76.100</property>
  <property name="meta.media.sample_aspect_num">1</property>
  <property name="meta.media.sample_aspect_den">1</property>
  <property name="meta.media.frame_rate_num">60</property>
  <property name="meta.media.frame_rate_den">1</property>
  <property name="meta.media.colorspace">601</property>
  <property name="meta.media.color_trc">2</property>
  <property name="meta.media.width">640</property>
  <property name="meta.media.height">360</property>
  <property name="meta.media.color_range">mpeg</property>
  <property name="meta.media.top_field_first">0</property>
  <property name="meta.media.progressive">1</property>
  <property name="kdenlive:original.mlt_type">producer</property>
  <property name="kdenlive:original.in">0</property>
  <property name="kdenlive:original.out">59</property>
  <property name="kdenlive:original.length">60</property>
  <property name="kdenlive:original.eof">pause</property>
  <property name="kdenlive:original.resource">video/Observations/32.mp4</property>
  <property name="kdenlive:original.meta.media.nb_streams">1</property>
  <property name="kdenlive:original.meta.media.0.stream.type">video</property>
  <property name="kdenlive:original.meta.media.0.stream.frame_rate">60</property>
  <property name="kdenlive:original.meta.media.0.stream.sample_aspect_ratio">0</property>
  <property name="kdenlive:original.meta.media.0.codec.width">3840</property>
  <property name="kdenlive:original.meta.media.0.codec.height">2160</property>
  <property name="kdenlive:original.meta.media.0.codec.rotate">0</property>
  <property name="kdenlive:original.meta.media.0.codec.frame_rate">60</property>
  <property name="kdenlive:original.meta.media.0.codec.pix_fmt">yuv420p</property>
  <property name="kdenlive:original.meta.media.0.codec.sample_aspect_ratio">0</property>
  <property name="kdenlive:original.meta.media.0.codec.colorspace">709</property>
  <property name="kdenlive:original.meta.media.0.codec.name">h264</property>
  <property name="kdenlive:original.meta.media.0.codec.long_name">H.264 / AVC / MPEG-4 AVC / MPEG-4 part 10</property>
  <property name="kdenlive:original.meta.media.0.codec.bit_rate">408184</property>
  <property name="kdenlive:original.meta.attr.0.stream.handler_name.markup">VideoHandler</property>
  <property name="kdenlive:original.meta.attr.0.stream.vendor_id.markup">[0][0][0][0]</property>
  <property name="kdenlive:original.meta.attr.major_brand.markup">isom</property>
  <property name="kdenlive:original.meta.attr.minor_version.markup">512</property>
  <property name="kdenlive:original.meta.attr.compatible_brands.markup">isomiso2avc1mp41</property>
  <property name="kdenlive:original.meta.attr.encoder.markup">Lavf58.76.100</property>
  <property name="kdenlive:original.meta.attr.comment.markup">Rendered with Manim Community v0.6.0</property>
  <property name="kdenlive:original.seekable">1</property>
  <property name="kdenlive:original.width">3840</property>
  <property name="kdenlive:original.height">2160</property>
  <property name="kdenlive:original.meta.media.sample_aspect_num">1</property>
  <property name="kdenlive:original.meta.media.sample_aspect_den">1</property>
  <property name="kdenlive:original.aspect_ratio">1</property>
  <property name="kdenlive:original.audio_index">-1</property>
  <property name="kdenlive:original.video_index">0</property>
  <property name="kdenlive:original.mute_on_pause">1</property>
  <property name="kdenlive:original.mlt_service">avformat</property>
  <property name="kdenlive:original.meta.media.frame_rate_num">60</property>
  <property name="kdenlive:original.meta.media.frame_rate_den">1</property>
  <property name="kdenlive:original.meta.media.colorspace">709</property>
  <property name="kdenlive:original.meta.media.color_trc">2</property>
  <property name="kdenlive:original.meta.media.width">3840</property>
  <property name="kdenlive:original.meta.media.height">2160</property>
  <property name="kdenlive:original.meta.media.color_range">mpeg</property>
  <property name="kdenlive:original.meta.media.top_field_first">0</property>
  <property name="kdenlive:original.meta.media.progressive">1</property>
  <property name="kdenlive:original.backup">1</property>
 </producer>
 <producer id="producer338" in="00:00:00.000" out="00:00:04.983">
  <property name="length">00:00:05.000</property>
  <property name="eof">pause</property>
  <property name="resource">/home/xiaoxiae/.cache/kdenlive/proxy/b8c3f9d003ecb64edfb9667de3add66a.png</property>
  <property name="ttl">25</property>
  <property name="aspect_ratio">1</property>
  <property name="progressive">1</property>
  <property name="seekable">1</property>
  <property name="meta.media.width">800</property>
  <property name="meta.media.height">450</property>
  <property name="mlt_service">qimage</property>
  <property name="kdenlive:clipname">32.png</property>
  <property name="kdenlive:duration">00:00:05.000</property>
  <property name="kdenlive:folderid">277</property>
  <property name="kdenlive:id">306</property>
  <property name="kdenlive:file_size">119801</property>
  <property name="kdenlive:file_hash">b8c3f9d003ecb64edfb9667de3add66a</property>
  <property name="kdenlive:proxy">/home/xiaoxiae/.cache/kdenlive/proxy/b8c3f9d003ecb64edfb9667de3add66a.png</property>
  <property name="kdenlive:originalurl">video/Observations/32.png</property>
  <property name="global_feed">1</property>
 </producer>
 <producer id="producer341" in="00:00:00.000" out="00:00:00.983">
  <property name="length">60</property>
  <property name="eof">pause</property>
  <property name="resource">/home/xiaoxiae/.cache/kdenlive/proxy/77f090b43531c63e1984713803755320.mkv</property>
  <property name="audio_index">-1</property>
  <property name="video_index">0</property>
  <property name="mute_on_pause">0</property>
  <property name="mlt_service">avformat-novalidate</property>
  <property name="seekable">1</property>
  <property name="aspect_ratio">1</property>
  <property name="kdenlive:clipname">33.mp4</property>
  <property name="kdenlive:folderid">277</property>
  <property name="kdenlive:id">307</property>
  <property name="kdenlive:file_size">48032</property>
  <property name="kdenlive:file_hash">77f090b43531c63e1984713803755320</property>
  <property name="kdenlive:proxy">/home/xiaoxiae/.cache/kdenlive/proxy/77f090b43531c63e1984713803755320.mkv</property>
  <property name="kdenlive:originalurl">video/Observations/33.mp4</property>
  <property name="global_feed">1</property>
  <property name="meta.media.nb_streams">1</property>
  <property name="meta.media.0.stream.type">video</property>
  <property name="meta.media.0.stream.frame_rate">60</property>
  <property name="meta.media.0.stream.sample_aspect_ratio">0</property>
  <property name="meta.media.0.codec.width">640</property>
  <property name="meta.media.0.codec.height">360</property>
  <property name="meta.media.0.codec.rotate">0</property>
  <property name="meta.media.0.codec.frame_rate">60</property>
  <property name="meta.media.0.codec.pix_fmt">yuv420p</property>
  <property name="meta.media.0.codec.sample_aspect_ratio">0</property>
  <property name="meta.media.0.codec.colorspace">601</property>
  <property name="meta.media.0.codec.name">h264</property>
  <property name="meta.media.0.codec.long_name">H.264 / AVC / MPEG-4 AVC / MPEG-4 part 10</property>
  <property name="meta.media.0.codec.bit_rate">0</property>
  <property name="meta.attr.0.stream.HANDLER_NAME.markup">VideoHandler</property>
  <property name="meta.attr.0.stream.VENDOR_ID.markup">[0][0][0][0]</property>
  <property name="meta.attr.0.stream.ENCODER.markup">Lavc58.134.100 libx264</property>
  <property name="meta.attr.0.stream.DURATION.markup">00:00:01.000000000</property>
  <property name="meta.attr.COMMENT.markup">Rendered with Manim Community v0.6.0</property>
  <property name="meta.attr.MAJOR_BRAND.markup">isom</property>
  <property name="meta.attr.MINOR_VERSION.markup">512</property>
  <property name="meta.attr.COMPATIBLE_BRANDS.markup">isomiso2avc1mp41</property>
  <property name="meta.attr.ENCODER.markup">Lavf58.76.100</property>
  <property name="meta.media.sample_aspect_num">1</property>
  <property name="meta.media.sample_aspect_den">1</property>
  <property name="meta.media.frame_rate_num">60</property>
  <property name="meta.media.frame_rate_den">1</property>
  <property name="meta.media.colorspace">601</property>
  <property name="meta.media.color_trc">2</property>
  <property name="meta.media.width">640</property>
  <property name="meta.media.height">360</property>
  <property name="meta.media.color_range">mpeg</property>
  <property name="meta.media.top_field_first">0</property>
  <property name="meta.media.progressive">1</property>
  <property name="kdenlive:original.mlt_type">producer</property>
  <property name="kdenlive:original.in">0</property>
  <property name="kdenlive:original.out">59</property>
  <property name="kdenlive:original.length">60</property>
  <property name="kdenlive:original.eof">pause</property>
  <property name="kdenlive:original.resource">video/Observations/33.mp4</property>
  <property name="kdenlive:original.meta.media.nb_streams">1</property>
  <property name="kdenlive:original.meta.media.0.stream.type">video</property>
  <property name="kdenlive:original.meta.media.0.stream.frame_rate">60</property>
  <property name="kdenlive:original.meta.media.0.stream.sample_aspect_ratio">0</property>
  <property name="kdenlive:original.meta.media.0.codec.width">3840</property>
  <property name="kdenlive:original.meta.media.0.codec.height">2160</property>
  <property name="kdenlive:original.meta.media.0.codec.rotate">0</property>
  <property name="kdenlive:original.meta.media.0.codec.frame_rate">60</property>
  <property name="kdenlive:original.meta.media.0.codec.pix_fmt">yuv420p</property>
  <property name="kdenlive:original.meta.media.0.codec.sample_aspect_ratio">0</property>
  <property name="kdenlive:original.meta.media.0.codec.colorspace">709</property>
  <property name="kdenlive:original.meta.media.0.codec.name">h264</property>
  <property name="kdenlive:original.meta.media.0.codec.long_name">H.264 / AVC / MPEG-4 AVC / MPEG-4 part 10</property>
  <property name="kdenlive:original.meta.media.0.codec.bit_rate">371208</property>
  <property name="kdenlive:original.meta.attr.0.stream.handler_name.markup">VideoHandler</property>
  <property name="kdenlive:original.meta.attr.0.stream.vendor_id.markup">[0][0][0][0]</property>
  <property name="kdenlive:original.meta.attr.major_brand.markup">isom</property>
  <property name="kdenlive:original.meta.attr.minor_version.markup">512</property>
  <property name="kdenlive:original.meta.attr.compatible_brands.markup">isomiso2avc1mp41</property>
  <property name="kdenlive:original.meta.attr.encoder.markup">Lavf58.76.100</property>
  <property name="kdenlive:original.meta.attr.comment.markup">Rendered with Manim Community v0.6.0</property>
  <property name="kdenlive:original.seekable">1</property>
  <property name="kdenlive:original.width">3840</property>
  <property name="kdenlive:original.height">2160</property>
  <property name="kdenlive:original.meta.media.sample_aspect_num">1</property>
  <property name="kdenlive:original.meta.media.sample_aspect_den">1</property>
  <property name="kdenlive:original.aspect_ratio">1</property>
  <property name="kdenlive:original.audio_index">-1</property>
  <property name="kdenlive:original.video_index">0</property>
  <property name="kdenlive:original.mute_on_pause">1</property>
  <property name="kdenlive:original.mlt_service">avformat</property>
  <property name="kdenlive:original.meta.media.frame_rate_num">60</property>
  <property name="kdenlive:original.meta.media.frame_rate_den">1</property>
  <property name="kdenlive:original.meta.media.colorspace">709</property>
  <property name="kdenlive:original.meta.media.color_trc">2</property>
  <property name="kdenlive:original.meta.media.width">3840</property>
  <property name="kdenlive:original.meta.media.height">2160</property>
  <property name="kdenlive:original.meta.media.color_range">mpeg</property>
  <property name="kdenlive:original.meta.media.top_field_first">0</property>
  <property name="kdenlive:original.meta.media.progressive">1</property>
  <property name="kdenlive:original.backup">1</property>
 </producer>
 <producer id="producer342" in="00:00:00.000" out="00:00:04.983">
  <property name="length">00:00:05.000</property>
  <property name="eof">pause</property>
  <property name="resource">/home/xiaoxiae/.cache/kdenlive/proxy/b1dda7ec6213732fb3e68211c8739abd.png</property>
  <property name="ttl">25</property>
  <property name="aspect_ratio">1</property>
  <property name="progressive">1</property>
  <property name="seekable">1</property>
  <property name="meta.media.width">800</property>
  <property name="meta.media.height">450</property>
  <property name="mlt_service">qimage</property>
  <property name="kdenlive:clipname">33.png</property>
  <property name="kdenlive:duration">00:00:05.000</property>
  <property name="kdenlive:folderid">277</property>
  <property name="kdenlive:id">308</property>
  <property name="kdenlive:file_size">128371</property>
  <property name="kdenlive:file_hash">b1dda7ec6213732fb3e68211c8739abd</property>
  <property name="kdenlive:proxy">/home/xiaoxiae/.cache/kdenlive/proxy/b1dda7ec6213732fb3e68211c8739abd.png</property>
  <property name="kdenlive:originalurl">video/Observations/33.png</property>
  <property name="global_feed">1</property>
  <property name="kdenlive:original.mlt_type">producer</property>
  <property name="kdenlive:original.in">0</property>
  <property name="kdenlive:original.out">14999</property>
  <property name="kdenlive:original.length">15000</property>
  <property name="kdenlive:original.eof">pause</property>
  <property name="kdenlive:original.resource">video/Observations/33.png</property>
  <property name="kdenlive:original.ttl">25</property>
  <property name="kdenlive:original.aspect_ratio">1</property>
  <property name="kdenlive:original.progressive">1</property>
  <property name="kdenlive:original.seekable">1</property>
  <property name="kdenlive:original.meta.media.width">3840</property>
  <property name="kdenlive:original.meta.media.height">2160</property>
  <property name="kdenlive:original.mlt_service">qimage</property>
  <property name="kdenlive:original.backup">1</property>
 </producer>
 <producer id="producer343" in="00:00:00.000" out="00:00:00.983">
  <property name="length">60</property>
  <property name="eof">pause</property>
  <property name="resource">/home/xiaoxiae/.cache/kdenlive/proxy/08f54c4a67adc8da76869794951057c2.mkv</property>
  <property name="audio_index">-1</property>
  <property name="video_index">0</property>
  <property name="mute_on_pause">0</property>
  <property name="mlt_service">avformat-novalidate</property>
  <property name="seekable">1</property>
  <property name="aspect_ratio">1</property>
  <property name="kdenlive:clipname">34.mp4</property>
  <property name="kdenlive:folderid">277</property>
  <property name="kdenlive:id">309</property>
  <property name="kdenlive:file_size">61867</property>
  <property name="kdenlive:file_hash">08f54c4a67adc8da76869794951057c2</property>
  <property name="kdenlive:proxy">/home/xiaoxiae/.cache/kdenlive/proxy/08f54c4a67adc8da76869794951057c2.mkv</property>
  <property name="kdenlive:originalurl">video/Observations/34.mp4</property>
  <property name="global_feed">1</property>
  <property name="meta.media.nb_streams">1</property>
  <property name="meta.media.0.stream.type">video</property>
  <property name="meta.media.0.stream.frame_rate">60</property>
  <property name="meta.media.0.stream.sample_aspect_ratio">0</property>
  <property name="meta.media.0.codec.width">640</property>
  <property name="meta.media.0.codec.height">360</property>
  <property name="meta.media.0.codec.rotate">0</property>
  <property name="meta.media.0.codec.frame_rate">60</property>
  <property name="meta.media.0.codec.pix_fmt">yuv420p</property>
  <property name="meta.media.0.codec.sample_aspect_ratio">0</property>
  <property name="meta.media.0.codec.colorspace">601</property>
  <property name="meta.media.0.codec.name">h264</property>
  <property name="meta.media.0.codec.long_name">H.264 / AVC / MPEG-4 AVC / MPEG-4 part 10</property>
  <property name="meta.media.0.codec.bit_rate">0</property>
  <property name="meta.attr.0.stream.HANDLER_NAME.markup">VideoHandler</property>
  <property name="meta.attr.0.stream.VENDOR_ID.markup">[0][0][0][0]</property>
  <property name="meta.attr.0.stream.ENCODER.markup">Lavc58.134.100 libx264</property>
  <property name="meta.attr.0.stream.DURATION.markup">00:00:01.000000000</property>
  <property name="meta.attr.COMMENT.markup">Rendered with Manim Community v0.6.0</property>
  <property name="meta.attr.MAJOR_BRAND.markup">isom</property>
  <property name="meta.attr.MINOR_VERSION.markup">512</property>
  <property name="meta.attr.COMPATIBLE_BRANDS.markup">isomiso2avc1mp41</property>
  <property name="meta.attr.ENCODER.markup">Lavf58.76.100</property>
  <property name="meta.media.sample_aspect_num">1</property>
  <property name="meta.media.sample_aspect_den">1</property>
  <property name="meta.media.frame_rate_num">60</property>
  <property name="meta.media.frame_rate_den">1</property>
  <property name="meta.media.colorspace">601</property>
  <property name="meta.media.color_trc">2</property>
  <property name="meta.media.width">640</property>
  <property name="meta.media.height">360</property>
  <property name="meta.media.color_range">mpeg</property>
  <property name="meta.media.top_field_first">0</property>
  <property name="meta.media.progressive">1</property>
  <property name="kdenlive:original.mlt_type">producer</property>
  <property name="kdenlive:original.in">0</property>
  <property name="kdenlive:original.out">59</property>
  <property name="kdenlive:original.length">60</property>
  <property name="kdenlive:original.eof">pause</property>
  <property name="kdenlive:original.resource">video/Observations/34.mp4</property>
  <property name="kdenlive:original.meta.media.nb_streams">1</property>
  <property name="kdenlive:original.meta.media.0.stream.type">video</property>
  <property name="kdenlive:original.meta.media.0.stream.frame_rate">60</property>
  <property name="kdenlive:original.meta.media.0.stream.sample_aspect_ratio">0</property>
  <property name="kdenlive:original.meta.media.0.codec.width">3840</property>
  <property name="kdenlive:original.meta.media.0.codec.height">2160</property>
  <property name="kdenlive:original.meta.media.0.codec.rotate">0</property>
  <property name="kdenlive:original.meta.media.0.codec.frame_rate">60</property>
  <property name="kdenlive:original.meta.media.0.codec.pix_fmt">yuv420p</property>
  <property name="kdenlive:original.meta.media.0.codec.sample_aspect_ratio">0</property>
  <property name="kdenlive:original.meta.media.0.codec.colorspace">709</property>
  <property name="kdenlive:original.meta.media.0.codec.name">h264</property>
  <property name="kdenlive:original.meta.media.0.codec.long_name">H.264 / AVC / MPEG-4 AVC / MPEG-4 part 10</property>
  <property name="kdenlive:original.meta.media.0.codec.bit_rate">481888</property>
  <property name="kdenlive:original.meta.attr.0.stream.handler_name.markup">VideoHandler</property>
  <property name="kdenlive:original.meta.attr.0.stream.vendor_id.markup">[0][0][0][0]</property>
  <property name="kdenlive:original.meta.attr.major_brand.markup">isom</property>
  <property name="kdenlive:original.meta.attr.minor_version.markup">512</property>
  <property name="kdenlive:original.meta.attr.compatible_brands.markup">isomiso2avc1mp41</property>
  <property name="kdenlive:original.meta.attr.encoder.markup">Lavf58.76.100</property>
  <property name="kdenlive:original.meta.attr.comment.markup">Rendered with Manim Community v0.6.0</property>
  <property name="kdenlive:original.seekable">1</property>
  <property name="kdenlive:original.width">3840</property>
  <property name="kdenlive:original.height">2160</property>
  <property name="kdenlive:original.meta.media.sample_aspect_num">1</property>
  <property name="kdenlive:original.meta.media.sample_aspect_den">1</property>
  <property name="kdenlive:original.aspect_ratio">1</property>
  <property name="kdenlive:original.audio_index">-1</property>
  <property name="kdenlive:original.video_index">0</property>
  <property name="kdenlive:original.mute_on_pause">1</property>
  <property name="kdenlive:original.mlt_service">avformat</property>
  <property name="kdenlive:original.meta.media.frame_rate_num">60</property>
  <property name="kdenlive:original.meta.media.frame_rate_den">1</property>
  <property name="kdenlive:original.meta.media.colorspace">709</property>
  <property name="kdenlive:original.meta.media.color_trc">2</property>
  <property name="kdenlive:original.meta.media.width">3840</property>
  <property name="kdenlive:original.meta.media.height">2160</property>
  <property name="kdenlive:original.meta.media.color_range">mpeg</property>
  <property name="kdenlive:original.meta.media.top_field_first">0</property>
  <property name="kdenlive:original.meta.media.progressive">1</property>
  <property name="kdenlive:original.backup">1</property>
 </producer>
 <producer id="producer344" in="00:00:00.000" out="00:00:04.983">
  <property name="length">00:00:05.000</property>
  <property name="eof">pause</property>
  <property name="resource">/home/xiaoxiae/.cache/kdenlive/proxy/f952997b7b57941a0d1b226048cee8b1.png</property>
  <property name="ttl">25</property>
  <property name="aspect_ratio">1</property>
  <property name="progressive">1</property>
  <property name="seekable">1</property>
  <property name="meta.media.width">800</property>
  <property name="meta.media.height">450</property>
  <property name="mlt_service">qimage</property>
  <property name="kdenlive:clipname">34.png</property>
  <property name="kdenlive:duration">00:00:05.000</property>
  <property name="kdenlive:folderid">277</property>
  <property name="kdenlive:id">310</property>
  <property name="kdenlive:file_size">145049</property>
  <property name="kdenlive:file_hash">f952997b7b57941a0d1b226048cee8b1</property>
  <property name="kdenlive:proxy">/home/xiaoxiae/.cache/kdenlive/proxy/f952997b7b57941a0d1b226048cee8b1.png</property>
  <property name="kdenlive:originalurl">video/Observations/34.png</property>
  <property name="global_feed">1</property>
 </producer>
 <producer id="producer345" in="00:00:00.000" out="00:00:00.983">
  <property name="length">60</property>
  <property name="eof">pause</property>
  <property name="resource">/home/xiaoxiae/.cache/kdenlive/proxy/8c24b94e35b11d981e7a1558f10148f8.mkv</property>
  <property name="audio_index">-1</property>
  <property name="video_index">0</property>
  <property name="mute_on_pause">0</property>
  <property name="mlt_service">avformat-novalidate</property>
  <property name="seekable">1</property>
  <property name="aspect_ratio">1</property>
  <property name="kdenlive:clipname">35.mp4</property>
  <property name="kdenlive:folderid">277</property>
  <property name="kdenlive:id">311</property>
  <property name="kdenlive:file_size">74196</property>
  <property name="kdenlive:file_hash">8c24b94e35b11d981e7a1558f10148f8</property>
  <property name="kdenlive:proxy">/home/xiaoxiae/.cache/kdenlive/proxy/8c24b94e35b11d981e7a1558f10148f8.mkv</property>
  <property name="kdenlive:originalurl">video/Observations/35.mp4</property>
  <property name="global_feed">1</property>
  <property name="meta.media.nb_streams">1</property>
  <property name="meta.media.0.stream.type">video</property>
  <property name="meta.media.0.stream.frame_rate">60</property>
  <property name="meta.media.0.stream.sample_aspect_ratio">0</property>
  <property name="meta.media.0.codec.width">640</property>
  <property name="meta.media.0.codec.height">360</property>
  <property name="meta.media.0.codec.rotate">0</property>
  <property name="meta.media.0.codec.frame_rate">60</property>
  <property name="meta.media.0.codec.pix_fmt">yuv420p</property>
  <property name="meta.media.0.codec.sample_aspect_ratio">0</property>
  <property name="meta.media.0.codec.colorspace">601</property>
  <property name="meta.media.0.codec.name">h264</property>
  <property name="meta.media.0.codec.long_name">H.264 / AVC / MPEG-4 AVC / MPEG-4 part 10</property>
  <property name="meta.media.0.codec.bit_rate">0</property>
  <property name="meta.attr.0.stream.HANDLER_NAME.markup">VideoHandler</property>
  <property name="meta.attr.0.stream.VENDOR_ID.markup">[0][0][0][0]</property>
  <property name="meta.attr.0.stream.ENCODER.markup">Lavc58.134.100 libx264</property>
  <property name="meta.attr.0.stream.DURATION.markup">00:00:01.000000000</property>
  <property name="meta.attr.COMMENT.markup">Rendered with Manim Community v0.6.0</property>
  <property name="meta.attr.MAJOR_BRAND.markup">isom</property>
  <property name="meta.attr.MINOR_VERSION.markup">512</property>
  <property name="meta.attr.COMPATIBLE_BRANDS.markup">isomiso2avc1mp41</property>
  <property name="meta.attr.ENCODER.markup">Lavf58.76.100</property>
  <property name="meta.media.sample_aspect_num">1</property>
  <property name="meta.media.sample_aspect_den">1</property>
  <property name="meta.media.frame_rate_num">60</property>
  <property name="meta.media.frame_rate_den">1</property>
  <property name="meta.media.colorspace">601</property>
  <property name="meta.media.color_trc">2</property>
  <property name="meta.media.width">640</property>
  <property name="meta.media.height">360</property>
  <property name="meta.media.color_range">mpeg</property>
  <property name="meta.media.top_field_first">0</property>
  <property name="meta.media.progressive">1</property>
  <property name="kdenlive:original.mlt_type">producer</property>
  <property name="kdenlive:original.in">0</property>
  <property name="kdenlive:original.out">59</property>
  <property name="kdenlive:original.length">60</property>
  <property name="kdenlive:original.eof">pause</property>
  <property name="kdenlive:original.resource">video/Observations/35.mp4</property>
  <property name="kdenlive:original.meta.media.nb_streams">1</property>
  <property name="kdenlive:original.meta.media.0.stream.type">video</property>
  <property name="kdenlive:original.meta.media.0.stream.frame_rate">60</property>
  <property name="kdenlive:original.meta.media.0.stream.sample_aspect_ratio">0</property>
  <property name="kdenlive:original.meta.media.0.codec.width">3840</property>
  <property name="kdenlive:original.meta.media.0.codec.height">2160</property>
  <property name="kdenlive:original.meta.media.0.codec.rotate">0</property>
  <property name="kdenlive:original.meta.media.0.codec.frame_rate">60</property>
  <property name="kdenlive:original.meta.media.0.codec.pix_fmt">yuv420p</property>
  <property name="kdenlive:original.meta.media.0.codec.sample_aspect_ratio">0</property>
  <property name="kdenlive:original.meta.media.0.codec.colorspace">709</property>
  <property name="kdenlive:original.meta.media.0.codec.name">h264</property>
  <property name="kdenlive:original.meta.media.0.codec.long_name">H.264 / AVC / MPEG-4 AVC / MPEG-4 part 10</property>
  <property name="kdenlive:original.meta.media.0.codec.bit_rate">580520</property>
  <property name="kdenlive:original.meta.attr.0.stream.handler_name.markup">VideoHandler</property>
  <property name="kdenlive:original.meta.attr.0.stream.vendor_id.markup">[0][0][0][0]</property>
  <property name="kdenlive:original.meta.attr.major_brand.markup">isom</property>
  <property name="kdenlive:original.meta.attr.minor_version.markup">512</property>
  <property name="kdenlive:original.meta.attr.compatible_brands.markup">isomiso2avc1mp41</property>
  <property name="kdenlive:original.meta.attr.encoder.markup">Lavf58.76.100</property>
  <property name="kdenlive:original.meta.attr.comment.markup">Rendered with Manim Community v0.6.0</property>
  <property name="kdenlive:original.seekable">1</property>
  <property name="kdenlive:original.width">3840</property>
  <property name="kdenlive:original.height">2160</property>
  <property name="kdenlive:original.meta.media.sample_aspect_num">1</property>
  <property name="kdenlive:original.meta.media.sample_aspect_den">1</property>
  <property name="kdenlive:original.aspect_ratio">1</property>
  <property name="kdenlive:original.audio_index">-1</property>
  <property name="kdenlive:original.video_index">0</property>
  <property name="kdenlive:original.mute_on_pause">1</property>
  <property name="kdenlive:original.mlt_service">avformat</property>
  <property name="kdenlive:original.meta.media.frame_rate_num">60</property>
  <property name="kdenlive:original.meta.media.frame_rate_den">1</property>
  <property name="kdenlive:original.meta.media.colorspace">709</property>
  <property name="kdenlive:original.meta.media.color_trc">2</property>
  <property name="kdenlive:original.meta.media.width">3840</property>
  <property name="kdenlive:original.meta.media.height">2160</property>
  <property name="kdenlive:original.meta.media.color_range">mpeg</property>
  <property name="kdenlive:original.meta.media.top_field_first">0</property>
  <property name="kdenlive:original.meta.media.progressive">1</property>
  <property name="kdenlive:original.backup">1</property>
 </producer>
 <producer id="producer346" in="00:00:00.000" out="00:00:04.983">
  <property name="length">00:00:05.000</property>
  <property name="eof">pause</property>
  <property name="resource">/home/xiaoxiae/.cache/kdenlive/proxy/80fb0bcf2712a0b3668ad33fcc0e3296.png</property>
  <property name="ttl">25</property>
  <property name="aspect_ratio">1</property>
  <property name="progressive">1</property>
  <property name="seekable">1</property>
  <property name="meta.media.width">800</property>
  <property name="meta.media.height">450</property>
  <property name="mlt_service">qimage</property>
  <property name="kdenlive:clipname">35.png</property>
  <property name="kdenlive:duration">00:00:05.000</property>
  <property name="kdenlive:folderid">277</property>
  <property name="kdenlive:id">312</property>
  <property name="kdenlive:file_size">199037</property>
  <property name="kdenlive:file_hash">80fb0bcf2712a0b3668ad33fcc0e3296</property>
  <property name="kdenlive:proxy">/home/xiaoxiae/.cache/kdenlive/proxy/80fb0bcf2712a0b3668ad33fcc0e3296.png</property>
  <property name="kdenlive:originalurl">video/Observations/35.png</property>
  <property name="global_feed">1</property>
 </producer>
 <producer id="producer347" in="00:00:00.000" out="00:00:00.983">
  <property name="length">60</property>
  <property name="eof">pause</property>
  <property name="resource">/home/xiaoxiae/.cache/kdenlive/proxy/916f93138867f7b4b2789c121f95b3b1.mkv</property>
  <property name="audio_index">-1</property>
  <property name="video_index">0</property>
  <property name="mute_on_pause">0</property>
  <property name="mlt_service">avformat-novalidate</property>
  <property name="seekable">1</property>
  <property name="aspect_ratio">1</property>
  <property name="kdenlive:clipname">36.mp4</property>
  <property name="kdenlive:folderid">277</property>
  <property name="kdenlive:id">313</property>
  <property name="kdenlive:file_size">66326</property>
  <property name="kdenlive:file_hash">916f93138867f7b4b2789c121f95b3b1</property>
  <property name="kdenlive:proxy">/home/xiaoxiae/.cache/kdenlive/proxy/916f93138867f7b4b2789c121f95b3b1.mkv</property>
  <property name="kdenlive:originalurl">video/Observations/36.mp4</property>
  <property name="global_feed">1</property>
  <property name="meta.media.nb_streams">1</property>
  <property name="meta.media.0.stream.type">video</property>
  <property name="meta.media.0.stream.frame_rate">60</property>
  <property name="meta.media.0.stream.sample_aspect_ratio">0</property>
  <property name="meta.media.0.codec.width">640</property>
  <property name="meta.media.0.codec.height">360</property>
  <property name="meta.media.0.codec.rotate">0</property>
  <property name="meta.media.0.codec.frame_rate">60</property>
  <property name="meta.media.0.codec.pix_fmt">yuv420p</property>
  <property name="meta.media.0.codec.sample_aspect_ratio">0</property>
  <property name="meta.media.0.codec.colorspace">601</property>
  <property name="meta.media.0.codec.name">h264</property>
  <property name="meta.media.0.codec.long_name">H.264 / AVC / MPEG-4 AVC / MPEG-4 part 10</property>
  <property name="meta.media.0.codec.bit_rate">0</property>
  <property name="meta.attr.0.stream.HANDLER_NAME.markup">VideoHandler</property>
  <property name="meta.attr.0.stream.VENDOR_ID.markup">[0][0][0][0]</property>
  <property name="meta.attr.0.stream.ENCODER.markup">Lavc58.134.100 libx264</property>
  <property name="meta.attr.0.stream.DURATION.markup">00:00:01.000000000</property>
  <property name="meta.attr.COMMENT.markup">Rendered with Manim Community v0.6.0</property>
  <property name="meta.attr.MAJOR_BRAND.markup">isom</property>
  <property name="meta.attr.MINOR_VERSION.markup">512</property>
  <property name="meta.attr.COMPATIBLE_BRANDS.markup">isomiso2avc1mp41</property>
  <property name="meta.attr.ENCODER.markup">Lavf58.76.100</property>
  <property name="meta.media.sample_aspect_num">1</property>
  <property name="meta.media.sample_aspect_den">1</property>
  <property name="meta.media.frame_rate_num">60</property>
  <property name="meta.media.frame_rate_den">1</property>
  <property name="meta.media.colorspace">601</property>
  <property name="meta.media.color_trc">2</property>
  <property name="meta.media.width">640</property>
  <property name="meta.media.height">360</property>
  <property name="meta.media.color_range">mpeg</property>
  <property name="meta.media.top_field_first">0</property>
  <property name="meta.media.progressive">1</property>
  <property name="kdenlive:original.mlt_type">producer</property>
  <property name="kdenlive:original.in">0</property>
  <property name="kdenlive:original.out">59</property>
  <property name="kdenlive:original.length">60</property>
  <property name="kdenlive:original.eof">pause</property>
  <property name="kdenlive:original.resource">video/Observations/36.mp4</property>
  <property name="kdenlive:original.meta.media.nb_streams">1</property>
  <property name="kdenlive:original.meta.media.0.stream.type">video</property>
  <property name="kdenlive:original.meta.media.0.stream.frame_rate">60</property>
  <property name="kdenlive:original.meta.media.0.stream.sample_aspect_ratio">0</property>
  <property name="kdenlive:original.meta.media.0.codec.width">3840</property>
  <property name="kdenlive:original.meta.media.0.codec.height">2160</property>
  <property name="kdenlive:original.meta.media.0.codec.rotate">0</property>
  <property name="kdenlive:original.meta.media.0.codec.frame_rate">60</property>
  <property name="kdenlive:original.meta.media.0.codec.pix_fmt">yuv420p</property>
  <property name="kdenlive:original.meta.media.0.codec.sample_aspect_ratio">0</property>
  <property name="kdenlive:original.meta.media.0.codec.colorspace">709</property>
  <property name="kdenlive:original.meta.media.0.codec.name">h264</property>
  <property name="kdenlive:original.meta.media.0.codec.long_name">H.264 / AVC / MPEG-4 AVC / MPEG-4 part 10</property>
  <property name="kdenlive:original.meta.media.0.codec.bit_rate">517560</property>
  <property name="kdenlive:original.meta.attr.0.stream.handler_name.markup">VideoHandler</property>
  <property name="kdenlive:original.meta.attr.0.stream.vendor_id.markup">[0][0][0][0]</property>
  <property name="kdenlive:original.meta.attr.major_brand.markup">isom</property>
  <property name="kdenlive:original.meta.attr.minor_version.markup">512</property>
  <property name="kdenlive:original.meta.attr.compatible_brands.markup">isomiso2avc1mp41</property>
  <property name="kdenlive:original.meta.attr.encoder.markup">Lavf58.76.100</property>
  <property name="kdenlive:original.meta.attr.comment.markup">Rendered with Manim Community v0.6.0</property>
  <property name="kdenlive:original.seekable">1</property>
  <property name="kdenlive:original.width">3840</property>
  <property name="kdenlive:original.height">2160</property>
  <property name="kdenlive:original.meta.media.sample_aspect_num">1</property>
  <property name="kdenlive:original.meta.media.sample_aspect_den">1</property>
  <property name="kdenlive:original.aspect_ratio">1</property>
  <property name="kdenlive:original.audio_index">-1</property>
  <property name="kdenlive:original.video_index">0</property>
  <property name="kdenlive:original.mute_on_pause">1</property>
  <property name="kdenlive:original.mlt_service">avformat</property>
  <property name="kdenlive:original.meta.media.frame_rate_num">60</property>
  <property name="kdenlive:original.meta.media.frame_rate_den">1</property>
  <property name="kdenlive:original.meta.media.colorspace">709</property>
  <property name="kdenlive:original.meta.media.color_trc">2</property>
  <property name="kdenlive:original.meta.media.width">3840</property>
  <property name="kdenlive:original.meta.media.height">2160</property>
  <property name="kdenlive:original.meta.media.color_range">mpeg</property>
  <property name="kdenlive:original.meta.media.top_field_first">0</property>
  <property name="kdenlive:original.meta.media.progressive">1</property>
  <property name="kdenlive:original.backup">1</property>
 </producer>
 <producer id="producer349" in="00:00:00.000" out="00:00:06.633">
  <property name="length">399</property>
  <property name="eof">pause</property>
  <property name="resource">/home/xiaoxiae/.cache/kdenlive/proxy/244fb8c457c4a0a7a14fb847b3fd4b7e.png</property>
  <property name="ttl">25</property>
  <property name="aspect_ratio">1</property>
  <property name="progressive">1</property>
  <property name="seekable">1</property>
  <property name="meta.media.width">800</property>
  <property name="meta.media.height">450</property>
  <property name="mlt_service">qimage</property>
  <property name="kdenlive:clipname">36.png</property>
  <property name="kdenlive:duration">00:00:05.000</property>
  <property name="kdenlive:folderid">277</property>
  <property name="kdenlive:id">314</property>
  <property name="kdenlive:file_size">210301</property>
  <property name="kdenlive:file_hash">244fb8c457c4a0a7a14fb847b3fd4b7e</property>
  <property name="kdenlive:proxy">/home/xiaoxiae/.cache/kdenlive/proxy/244fb8c457c4a0a7a14fb847b3fd4b7e.png</property>
  <property name="kdenlive:originalurl">video/Observations/36.png</property>
  <property name="global_feed">1</property>
  <property name="kdenlive:original.mlt_type">producer</property>
  <property name="kdenlive:original.in">0</property>
  <property name="kdenlive:original.out">14999</property>
  <property name="kdenlive:original.length">15000</property>
  <property name="kdenlive:original.eof">pause</property>
  <property name="kdenlive:original.resource">video/Observations/36.png</property>
  <property name="kdenlive:original.ttl">25</property>
  <property name="kdenlive:original.aspect_ratio">1</property>
  <property name="kdenlive:original.progressive">1</property>
  <property name="kdenlive:original.seekable">1</property>
  <property name="kdenlive:original.meta.media.width">3840</property>
  <property name="kdenlive:original.meta.media.height">2160</property>
  <property name="kdenlive:original.mlt_service">qimage</property>
  <property name="kdenlive:original.backup">1</property>
 </producer>
 <producer id="producer348" in="00:00:00.000" out="00:00:00.983">
  <property name="length">60</property>
  <property name="eof">pause</property>
  <property name="resource">/home/xiaoxiae/.cache/kdenlive/proxy/5261f743a2f9c688e4c6aea0b1e2fb20.mkv</property>
  <property name="audio_index">-1</property>
  <property name="video_index">0</property>
  <property name="mute_on_pause">0</property>
  <property name="mlt_service">avformat-novalidate</property>
  <property name="seekable">1</property>
  <property name="aspect_ratio">1</property>
  <property name="kdenlive:clipname">37.mp4</property>
  <property name="kdenlive:folderid">277</property>
  <property name="kdenlive:id">315</property>
  <property name="kdenlive:file_size">83632</property>
  <property name="kdenlive:file_hash">5261f743a2f9c688e4c6aea0b1e2fb20</property>
  <property name="kdenlive:proxy">/home/xiaoxiae/.cache/kdenlive/proxy/5261f743a2f9c688e4c6aea0b1e2fb20.mkv</property>
  <property name="kdenlive:originalurl">video/Observations/37.mp4</property>
  <property name="global_feed">1</property>
  <property name="meta.media.nb_streams">1</property>
  <property name="meta.media.0.stream.type">video</property>
  <property name="meta.media.0.stream.frame_rate">60</property>
  <property name="meta.media.0.stream.sample_aspect_ratio">0</property>
  <property name="meta.media.0.codec.width">640</property>
  <property name="meta.media.0.codec.height">360</property>
  <property name="meta.media.0.codec.rotate">0</property>
  <property name="meta.media.0.codec.frame_rate">60</property>
  <property name="meta.media.0.codec.pix_fmt">yuv420p</property>
  <property name="meta.media.0.codec.sample_aspect_ratio">0</property>
  <property name="meta.media.0.codec.colorspace">601</property>
  <property name="meta.media.0.codec.name">h264</property>
  <property name="meta.media.0.codec.long_name">H.264 / AVC / MPEG-4 AVC / MPEG-4 part 10</property>
  <property name="meta.media.0.codec.bit_rate">0</property>
  <property name="meta.attr.0.stream.HANDLER_NAME.markup">VideoHandler</property>
  <property name="meta.attr.0.stream.VENDOR_ID.markup">[0][0][0][0]</property>
  <property name="meta.attr.0.stream.ENCODER.markup">Lavc58.134.100 libx264</property>
  <property name="meta.attr.0.stream.DURATION.markup">00:00:01.000000000</property>
  <property name="meta.attr.COMMENT.markup">Rendered with Manim Community v0.6.0</property>
  <property name="meta.attr.MAJOR_BRAND.markup">isom</property>
  <property name="meta.attr.MINOR_VERSION.markup">512</property>
  <property name="meta.attr.COMPATIBLE_BRANDS.markup">isomiso2avc1mp41</property>
  <property name="meta.attr.ENCODER.markup">Lavf58.76.100</property>
  <property name="meta.media.sample_aspect_num">1</property>
  <property name="meta.media.sample_aspect_den">1</property>
  <property name="meta.media.frame_rate_num">60</property>
  <property name="meta.media.frame_rate_den">1</property>
  <property name="meta.media.colorspace">601</property>
  <property name="meta.media.color_trc">2</property>
  <property name="meta.media.width">640</property>
  <property name="meta.media.height">360</property>
  <property name="meta.media.color_range">mpeg</property>
  <property name="meta.media.top_field_first">0</property>
  <property name="meta.media.progressive">1</property>
  <property name="kdenlive:original.mlt_type">producer</property>
  <property name="kdenlive:original.in">0</property>
  <property name="kdenlive:original.out">59</property>
  <property name="kdenlive:original.length">60</property>
  <property name="kdenlive:original.eof">pause</property>
  <property name="kdenlive:original.resource">video/Observations/37.mp4</property>
  <property name="kdenlive:original.meta.media.nb_streams">1</property>
  <property name="kdenlive:original.meta.media.0.stream.type">video</property>
  <property name="kdenlive:original.meta.media.0.stream.frame_rate">60</property>
  <property name="kdenlive:original.meta.media.0.stream.sample_aspect_ratio">0</property>
  <property name="kdenlive:original.meta.media.0.codec.width">3840</property>
  <property name="kdenlive:original.meta.media.0.codec.height">2160</property>
  <property name="kdenlive:original.meta.media.0.codec.rotate">0</property>
  <property name="kdenlive:original.meta.media.0.codec.frame_rate">60</property>
  <property name="kdenlive:original.meta.media.0.codec.pix_fmt">yuv420p</property>
  <property name="kdenlive:original.meta.media.0.codec.sample_aspect_ratio">0</property>
  <property name="kdenlive:original.meta.media.0.codec.colorspace">709</property>
  <property name="kdenlive:original.meta.media.0.codec.name">h264</property>
  <property name="kdenlive:original.meta.media.0.codec.long_name">H.264 / AVC / MPEG-4 AVC / MPEG-4 part 10</property>
  <property name="kdenlive:original.meta.media.0.codec.bit_rate">656008</property>
  <property name="kdenlive:original.meta.attr.0.stream.handler_name.markup">VideoHandler</property>
  <property name="kdenlive:original.meta.attr.0.stream.vendor_id.markup">[0][0][0][0]</property>
  <property name="kdenlive:original.meta.attr.major_brand.markup">isom</property>
  <property name="kdenlive:original.meta.attr.minor_version.markup">512</property>
  <property name="kdenlive:original.meta.attr.compatible_brands.markup">isomiso2avc1mp41</property>
  <property name="kdenlive:original.meta.attr.encoder.markup">Lavf58.76.100</property>
  <property name="kdenlive:original.meta.attr.comment.markup">Rendered with Manim Community v0.6.0</property>
  <property name="kdenlive:original.seekable">1</property>
  <property name="kdenlive:original.width">3840</property>
  <property name="kdenlive:original.height">2160</property>
  <property name="kdenlive:original.meta.media.sample_aspect_num">1</property>
  <property name="kdenlive:original.meta.media.sample_aspect_den">1</property>
  <property name="kdenlive:original.aspect_ratio">1</property>
  <property name="kdenlive:original.audio_index">-1</property>
  <property name="kdenlive:original.video_index">0</property>
  <property name="kdenlive:original.mute_on_pause">1</property>
  <property name="kdenlive:original.mlt_service">avformat</property>
  <property name="kdenlive:original.meta.media.frame_rate_num">60</property>
  <property name="kdenlive:original.meta.media.frame_rate_den">1</property>
  <property name="kdenlive:original.meta.media.colorspace">709</property>
  <property name="kdenlive:original.meta.media.color_trc">2</property>
  <property name="kdenlive:original.meta.media.width">3840</property>
  <property name="kdenlive:original.meta.media.height">2160</property>
  <property name="kdenlive:original.meta.media.color_range">mpeg</property>
  <property name="kdenlive:original.meta.media.top_field_first">0</property>
  <property name="kdenlive:original.meta.media.progressive">1</property>
  <property name="kdenlive:original.backup">1</property>
 </producer>
 <producer id="producer350" in="00:00:00.000" out="00:00:04.983">
  <property name="length">00:00:05.000</property>
  <property name="eof">pause</property>
  <property name="resource">/home/xiaoxiae/.cache/kdenlive/proxy/8ba734d12d492a6ea9406471cb57f878.png</property>
  <property name="ttl">25</property>
  <property name="aspect_ratio">1</property>
  <property name="progressive">1</property>
  <property name="seekable">1</property>
  <property name="meta.media.width">800</property>
  <property name="meta.media.height">450</property>
  <property name="mlt_service">qimage</property>
  <property name="kdenlive:clipname">37.png</property>
  <property name="kdenlive:duration">00:00:05.000</property>
  <property name="kdenlive:folderid">277</property>
  <property name="kdenlive:id">316</property>
  <property name="kdenlive:file_size">233120</property>
  <property name="kdenlive:file_hash">8ba734d12d492a6ea9406471cb57f878</property>
  <property name="kdenlive:proxy">/home/xiaoxiae/.cache/kdenlive/proxy/8ba734d12d492a6ea9406471cb57f878.png</property>
  <property name="kdenlive:originalurl">video/Observations/37.png</property>
  <property name="global_feed">1</property>
 </producer>
 <producer id="producer351" in="00:00:00.000" out="00:00:00.983">
  <property name="length">60</property>
  <property name="eof">pause</property>
  <property name="resource">/home/xiaoxiae/.cache/kdenlive/proxy/34dd0dcaa85fbbce90db359c06e8da68.mkv</property>
  <property name="audio_index">-1</property>
  <property name="video_index">0</property>
  <property name="mute_on_pause">0</property>
  <property name="mlt_service">avformat-novalidate</property>
  <property name="seekable">1</property>
  <property name="aspect_ratio">1</property>
  <property name="kdenlive:clipname">38.mp4</property>
  <property name="kdenlive:folderid">277</property>
  <property name="kdenlive:id">317</property>
  <property name="kdenlive:file_size">85251</property>
  <property name="kdenlive:file_hash">34dd0dcaa85fbbce90db359c06e8da68</property>
  <property name="kdenlive:proxy">/home/xiaoxiae/.cache/kdenlive/proxy/34dd0dcaa85fbbce90db359c06e8da68.mkv</property>
  <property name="kdenlive:originalurl">video/Observations/38.mp4</property>
  <property name="global_feed">1</property>
  <property name="meta.media.nb_streams">1</property>
  <property name="meta.media.0.stream.type">video</property>
  <property name="meta.media.0.stream.frame_rate">60</property>
  <property name="meta.media.0.stream.sample_aspect_ratio">0</property>
  <property name="meta.media.0.codec.width">640</property>
  <property name="meta.media.0.codec.height">360</property>
  <property name="meta.media.0.codec.rotate">0</property>
  <property name="meta.media.0.codec.frame_rate">60</property>
  <property name="meta.media.0.codec.pix_fmt">yuv420p</property>
  <property name="meta.media.0.codec.sample_aspect_ratio">0</property>
  <property name="meta.media.0.codec.colorspace">601</property>
  <property name="meta.media.0.codec.name">h264</property>
  <property name="meta.media.0.codec.long_name">H.264 / AVC / MPEG-4 AVC / MPEG-4 part 10</property>
  <property name="meta.media.0.codec.bit_rate">0</property>
  <property name="meta.attr.0.stream.HANDLER_NAME.markup">VideoHandler</property>
  <property name="meta.attr.0.stream.VENDOR_ID.markup">[0][0][0][0]</property>
  <property name="meta.attr.0.stream.ENCODER.markup">Lavc58.134.100 libx264</property>
  <property name="meta.attr.0.stream.DURATION.markup">00:00:01.000000000</property>
  <property name="meta.attr.COMMENT.markup">Rendered with Manim Community v0.6.0</property>
  <property name="meta.attr.MAJOR_BRAND.markup">isom</property>
  <property name="meta.attr.MINOR_VERSION.markup">512</property>
  <property name="meta.attr.COMPATIBLE_BRANDS.markup">isomiso2avc1mp41</property>
  <property name="meta.attr.ENCODER.markup">Lavf58.76.100</property>
  <property name="meta.media.sample_aspect_num">1</property>
  <property name="meta.media.sample_aspect_den">1</property>
  <property name="meta.media.frame_rate_num">60</property>
  <property name="meta.media.frame_rate_den">1</property>
  <property name="meta.media.colorspace">601</property>
  <property name="meta.media.color_trc">2</property>
  <property name="meta.media.width">640</property>
  <property name="meta.media.height">360</property>
  <property name="meta.media.color_range">mpeg</property>
  <property name="meta.media.top_field_first">0</property>
  <property name="meta.media.progressive">1</property>
  <property name="kdenlive:original.mlt_type">producer</property>
  <property name="kdenlive:original.in">0</property>
  <property name="kdenlive:original.out">59</property>
  <property name="kdenlive:original.length">60</property>
  <property name="kdenlive:original.eof">pause</property>
  <property name="kdenlive:original.resource">video/Observations/38.mp4</property>
  <property name="kdenlive:original.meta.media.nb_streams">1</property>
  <property name="kdenlive:original.meta.media.0.stream.type">video</property>
  <property name="kdenlive:original.meta.media.0.stream.frame_rate">60</property>
  <property name="kdenlive:original.meta.media.0.stream.sample_aspect_ratio">0</property>
  <property name="kdenlive:original.meta.media.0.codec.width">3840</property>
  <property name="kdenlive:original.meta.media.0.codec.height">2160</property>
  <property name="kdenlive:original.meta.media.0.codec.rotate">0</property>
  <property name="kdenlive:original.meta.media.0.codec.frame_rate">60</property>
  <property name="kdenlive:original.meta.media.0.codec.pix_fmt">yuv420p</property>
  <property name="kdenlive:original.meta.media.0.codec.sample_aspect_ratio">0</property>
  <property name="kdenlive:original.meta.media.0.codec.colorspace">709</property>
  <property name="kdenlive:original.meta.media.0.codec.name">h264</property>
  <property name="kdenlive:original.meta.media.0.codec.long_name">H.264 / AVC / MPEG-4 AVC / MPEG-4 part 10</property>
  <property name="kdenlive:original.meta.media.0.codec.bit_rate">668960</property>
  <property name="kdenlive:original.meta.attr.0.stream.handler_name.markup">VideoHandler</property>
  <property name="kdenlive:original.meta.attr.0.stream.vendor_id.markup">[0][0][0][0]</property>
  <property name="kdenlive:original.meta.attr.major_brand.markup">isom</property>
  <property name="kdenlive:original.meta.attr.minor_version.markup">512</property>
  <property name="kdenlive:original.meta.attr.compatible_brands.markup">isomiso2avc1mp41</property>
  <property name="kdenlive:original.meta.attr.encoder.markup">Lavf58.76.100</property>
  <property name="kdenlive:original.meta.attr.comment.markup">Rendered with Manim Community v0.6.0</property>
  <property name="kdenlive:original.seekable">1</property>
  <property name="kdenlive:original.width">3840</property>
  <property name="kdenlive:original.height">2160</property>
  <property name="kdenlive:original.meta.media.sample_aspect_num">1</property>
  <property name="kdenlive:original.meta.media.sample_aspect_den">1</property>
  <property name="kdenlive:original.aspect_ratio">1</property>
  <property name="kdenlive:original.audio_index">-1</property>
  <property name="kdenlive:original.video_index">0</property>
  <property name="kdenlive:original.mute_on_pause">1</property>
  <property name="kdenlive:original.mlt_service">avformat</property>
  <property name="kdenlive:original.meta.media.frame_rate_num">60</property>
  <property name="kdenlive:original.meta.media.frame_rate_den">1</property>
  <property name="kdenlive:original.meta.media.colorspace">709</property>
  <property name="kdenlive:original.meta.media.color_trc">2</property>
  <property name="kdenlive:original.meta.media.width">3840</property>
  <property name="kdenlive:original.meta.media.height">2160</property>
  <property name="kdenlive:original.meta.media.color_range">mpeg</property>
  <property name="kdenlive:original.meta.media.top_field_first">0</property>
  <property name="kdenlive:original.meta.media.progressive">1</property>
  <property name="kdenlive:original.backup">1</property>
 </producer>
 <producer id="producer352" in="00:00:00.000" out="00:00:04.983">
  <property name="length">00:00:05.000</property>
  <property name="eof">pause</property>
  <property name="resource">/home/xiaoxiae/.cache/kdenlive/proxy/fa1e50005c9b684ac3b66a890ac72725.png</property>
  <property name="ttl">25</property>
  <property name="aspect_ratio">1</property>
  <property name="progressive">1</property>
  <property name="seekable">1</property>
  <property name="meta.media.width">800</property>
  <property name="meta.media.height">450</property>
  <property name="mlt_service">qimage</property>
  <property name="kdenlive:clipname">38.png</property>
  <property name="kdenlive:duration">00:00:05.000</property>
  <property name="kdenlive:folderid">277</property>
  <property name="kdenlive:id">318</property>
  <property name="kdenlive:file_size">267405</property>
  <property name="kdenlive:file_hash">fa1e50005c9b684ac3b66a890ac72725</property>
  <property name="kdenlive:proxy">/home/xiaoxiae/.cache/kdenlive/proxy/fa1e50005c9b684ac3b66a890ac72725.png</property>
  <property name="kdenlive:originalurl">video/Observations/38.png</property>
  <property name="global_feed">1</property>
 </producer>
 <producer id="producer354" in="00:00:00.000" out="00:00:00.983">
  <property name="length">60</property>
  <property name="eof">pause</property>
  <property name="resource">/home/xiaoxiae/.cache/kdenlive/proxy/8e8b268c57b3f16164334f2ab25c7ce8.mkv</property>
  <property name="audio_index">-1</property>
  <property name="video_index">0</property>
  <property name="mute_on_pause">0</property>
  <property name="mlt_service">avformat-novalidate</property>
  <property name="seekable">1</property>
  <property name="aspect_ratio">1</property>
  <property name="kdenlive:clipname">39.mp4</property>
  <property name="kdenlive:folderid">277</property>
  <property name="kdenlive:id">319</property>
  <property name="kdenlive:file_size">80407</property>
  <property name="kdenlive:file_hash">8e8b268c57b3f16164334f2ab25c7ce8</property>
  <property name="kdenlive:proxy">/home/xiaoxiae/.cache/kdenlive/proxy/8e8b268c57b3f16164334f2ab25c7ce8.mkv</property>
  <property name="kdenlive:originalurl">video/Observations/39.mp4</property>
  <property name="global_feed">1</property>
  <property name="meta.media.nb_streams">1</property>
  <property name="meta.media.0.stream.type">video</property>
  <property name="meta.media.0.stream.frame_rate">60</property>
  <property name="meta.media.0.stream.sample_aspect_ratio">0</property>
  <property name="meta.media.0.codec.width">640</property>
  <property name="meta.media.0.codec.height">360</property>
  <property name="meta.media.0.codec.rotate">0</property>
  <property name="meta.media.0.codec.frame_rate">60</property>
  <property name="meta.media.0.codec.pix_fmt">yuv420p</property>
  <property name="meta.media.0.codec.sample_aspect_ratio">0</property>
  <property name="meta.media.0.codec.colorspace">601</property>
  <property name="meta.media.0.codec.name">h264</property>
  <property name="meta.media.0.codec.long_name">H.264 / AVC / MPEG-4 AVC / MPEG-4 part 10</property>
  <property name="meta.media.0.codec.bit_rate">0</property>
  <property name="meta.attr.0.stream.HANDLER_NAME.markup">VideoHandler</property>
  <property name="meta.attr.0.stream.VENDOR_ID.markup">[0][0][0][0]</property>
  <property name="meta.attr.0.stream.ENCODER.markup">Lavc58.134.100 libx264</property>
  <property name="meta.attr.0.stream.DURATION.markup">00:00:01.000000000</property>
  <property name="meta.attr.COMMENT.markup">Rendered with Manim Community v0.6.0</property>
  <property name="meta.attr.MAJOR_BRAND.markup">isom</property>
  <property name="meta.attr.MINOR_VERSION.markup">512</property>
  <property name="meta.attr.COMPATIBLE_BRANDS.markup">isomiso2avc1mp41</property>
  <property name="meta.attr.ENCODER.markup">Lavf58.76.100</property>
  <property name="meta.media.sample_aspect_num">1</property>
  <property name="meta.media.sample_aspect_den">1</property>
  <property name="meta.media.frame_rate_num">60</property>
  <property name="meta.media.frame_rate_den">1</property>
  <property name="meta.media.colorspace">601</property>
  <property name="meta.media.color_trc">2</property>
  <property name="meta.media.width">640</property>
  <property name="meta.media.height">360</property>
  <property name="meta.media.color_range">mpeg</property>
  <property name="meta.media.top_field_first">0</property>
  <property name="meta.media.progressive">1</property>
  <property name="kdenlive:original.mlt_type">producer</property>
  <property name="kdenlive:original.in">0</property>
  <property name="kdenlive:original.out">59</property>
  <property name="kdenlive:original.length">60</property>
  <property name="kdenlive:original.eof">pause</property>
  <property name="kdenlive:original.resource">video/Observations/39.mp4</property>
  <property name="kdenlive:original.meta.media.nb_streams">1</property>
  <property name="kdenlive:original.meta.media.0.stream.type">video</property>
  <property name="kdenlive:original.meta.media.0.stream.frame_rate">60</property>
  <property name="kdenlive:original.meta.media.0.stream.sample_aspect_ratio">0</property>
  <property name="kdenlive:original.meta.media.0.codec.width">3840</property>
  <property name="kdenlive:original.meta.media.0.codec.height">2160</property>
  <property name="kdenlive:original.meta.media.0.codec.rotate">0</property>
  <property name="kdenlive:original.meta.media.0.codec.frame_rate">60</property>
  <property name="kdenlive:original.meta.media.0.codec.pix_fmt">yuv420p</property>
  <property name="kdenlive:original.meta.media.0.codec.sample_aspect_ratio">0</property>
  <property name="kdenlive:original.meta.media.0.codec.colorspace">709</property>
  <property name="kdenlive:original.meta.media.0.codec.name">h264</property>
  <property name="kdenlive:original.meta.media.0.codec.long_name">H.264 / AVC / MPEG-4 AVC / MPEG-4 part 10</property>
  <property name="kdenlive:original.meta.media.0.codec.bit_rate">630208</property>
  <property name="kdenlive:original.meta.attr.0.stream.handler_name.markup">VideoHandler</property>
  <property name="kdenlive:original.meta.attr.0.stream.vendor_id.markup">[0][0][0][0]</property>
  <property name="kdenlive:original.meta.attr.major_brand.markup">isom</property>
  <property name="kdenlive:original.meta.attr.minor_version.markup">512</property>
  <property name="kdenlive:original.meta.attr.compatible_brands.markup">isomiso2avc1mp41</property>
  <property name="kdenlive:original.meta.attr.encoder.markup">Lavf58.76.100</property>
  <property name="kdenlive:original.meta.attr.comment.markup">Rendered with Manim Community v0.6.0</property>
  <property name="kdenlive:original.seekable">1</property>
  <property name="kdenlive:original.width">3840</property>
  <property name="kdenlive:original.height">2160</property>
  <property name="kdenlive:original.meta.media.sample_aspect_num">1</property>
  <property name="kdenlive:original.meta.media.sample_aspect_den">1</property>
  <property name="kdenlive:original.aspect_ratio">1</property>
  <property name="kdenlive:original.audio_index">-1</property>
  <property name="kdenlive:original.video_index">0</property>
  <property name="kdenlive:original.mute_on_pause">1</property>
  <property name="kdenlive:original.mlt_service">avformat</property>
  <property name="kdenlive:original.meta.media.frame_rate_num">60</property>
  <property name="kdenlive:original.meta.media.frame_rate_den">1</property>
  <property name="kdenlive:original.meta.media.colorspace">709</property>
  <property name="kdenlive:original.meta.media.color_trc">2</property>
  <property name="kdenlive:original.meta.media.width">3840</property>
  <property name="kdenlive:original.meta.media.height">2160</property>
  <property name="kdenlive:original.meta.media.color_range">mpeg</property>
  <property name="kdenlive:original.meta.media.top_field_first">0</property>
  <property name="kdenlive:original.meta.media.progressive">1</property>
  <property name="kdenlive:original.backup">1</property>
 </producer>
 <producer id="producer353" in="00:00:00.000" out="00:00:04.983">
  <property name="length">00:00:05.000</property>
  <property name="eof">pause</property>
  <property name="resource">/home/xiaoxiae/.cache/kdenlive/proxy/7d07e7d5e86a0e1c52f8979c7ea5878b.png</property>
  <property name="ttl">25</property>
  <property name="aspect_ratio">1</property>
  <property name="progressive">1</property>
  <property name="seekable">1</property>
  <property name="meta.media.width">800</property>
  <property name="meta.media.height">450</property>
  <property name="mlt_service">qimage</property>
  <property name="kdenlive:clipname">39.png</property>
  <property name="kdenlive:duration">00:00:05.000</property>
  <property name="kdenlive:folderid">277</property>
  <property name="kdenlive:id">320</property>
  <property name="kdenlive:file_size">283174</property>
  <property name="kdenlive:file_hash">7d07e7d5e86a0e1c52f8979c7ea5878b</property>
  <property name="kdenlive:proxy">/home/xiaoxiae/.cache/kdenlive/proxy/7d07e7d5e86a0e1c52f8979c7ea5878b.png</property>
  <property name="kdenlive:originalurl">video/Observations/39.png</property>
  <property name="global_feed">1</property>
  <property name="kdenlive:original.mlt_type">producer</property>
  <property name="kdenlive:original.in">0</property>
  <property name="kdenlive:original.out">14999</property>
  <property name="kdenlive:original.length">15000</property>
  <property name="kdenlive:original.eof">pause</property>
  <property name="kdenlive:original.resource">video/Observations/39.png</property>
  <property name="kdenlive:original.ttl">25</property>
  <property name="kdenlive:original.aspect_ratio">1</property>
  <property name="kdenlive:original.progressive">1</property>
  <property name="kdenlive:original.seekable">1</property>
  <property name="kdenlive:original.meta.media.width">3840</property>
  <property name="kdenlive:original.meta.media.height">2160</property>
  <property name="kdenlive:original.mlt_service">qimage</property>
  <property name="kdenlive:original.backup">1</property>
 </producer>
 <producer id="producer357" in="00:00:00.000" out="00:00:01.983">
  <property name="length">120</property>
  <property name="eof">pause</property>
  <property name="resource">/home/xiaoxiae/.cache/kdenlive/proxy/78c2313bd65e73ef22c05b0458a18139.mkv</property>
  <property name="audio_index">-1</property>
  <property name="video_index">0</property>
  <property name="mute_on_pause">0</property>
  <property name="mlt_service">avformat-novalidate</property>
  <property name="seekable">1</property>
  <property name="aspect_ratio">1</property>
  <property name="kdenlive:clipname">4.mp4</property>
  <property name="kdenlive:folderid">277</property>
  <property name="kdenlive:id">321</property>
  <property name="kdenlive:file_size">109593</property>
  <property name="kdenlive:file_hash">78c2313bd65e73ef22c05b0458a18139</property>
  <property name="kdenlive:proxy">/home/xiaoxiae/.cache/kdenlive/proxy/78c2313bd65e73ef22c05b0458a18139.mkv</property>
  <property name="kdenlive:originalurl">video/Observations/4.mp4</property>
  <property name="global_feed">1</property>
  <property name="meta.media.nb_streams">1</property>
  <property name="meta.media.0.stream.type">video</property>
  <property name="meta.media.0.stream.frame_rate">60</property>
  <property name="meta.media.0.stream.sample_aspect_ratio">0</property>
  <property name="meta.media.0.codec.width">640</property>
  <property name="meta.media.0.codec.height">360</property>
  <property name="meta.media.0.codec.rotate">0</property>
  <property name="meta.media.0.codec.frame_rate">60</property>
  <property name="meta.media.0.codec.pix_fmt">yuv420p</property>
  <property name="meta.media.0.codec.sample_aspect_ratio">0</property>
  <property name="meta.media.0.codec.colorspace">601</property>
  <property name="meta.media.0.codec.name">h264</property>
  <property name="meta.media.0.codec.long_name">H.264 / AVC / MPEG-4 AVC / MPEG-4 part 10</property>
  <property name="meta.media.0.codec.bit_rate">0</property>
  <property name="meta.attr.0.stream.HANDLER_NAME.markup">VideoHandler</property>
  <property name="meta.attr.0.stream.VENDOR_ID.markup">[0][0][0][0]</property>
  <property name="meta.attr.0.stream.ENCODER.markup">Lavc58.134.100 libx264</property>
  <property name="meta.attr.0.stream.DURATION.markup">00:00:02.000000000</property>
  <property name="meta.attr.COMMENT.markup">Rendered with Manim Community v0.6.0</property>
  <property name="meta.attr.MAJOR_BRAND.markup">isom</property>
  <property name="meta.attr.MINOR_VERSION.markup">512</property>
  <property name="meta.attr.COMPATIBLE_BRANDS.markup">isomiso2avc1mp41</property>
  <property name="meta.attr.ENCODER.markup">Lavf58.76.100</property>
  <property name="meta.media.sample_aspect_num">1</property>
  <property name="meta.media.sample_aspect_den">1</property>
  <property name="meta.media.frame_rate_num">60</property>
  <property name="meta.media.frame_rate_den">1</property>
  <property name="meta.media.colorspace">601</property>
  <property name="meta.media.color_trc">2</property>
  <property name="meta.media.width">640</property>
  <property name="meta.media.height">360</property>
  <property name="meta.media.color_range">mpeg</property>
  <property name="meta.media.top_field_first">0</property>
  <property name="meta.media.progressive">1</property>
  <property name="kdenlive:original.mlt_type">producer</property>
  <property name="kdenlive:original.in">0</property>
  <property name="kdenlive:original.out">119</property>
  <property name="kdenlive:original.length">120</property>
  <property name="kdenlive:original.eof">pause</property>
  <property name="kdenlive:original.resource">video/Observations/4.mp4</property>
  <property name="kdenlive:original.meta.media.nb_streams">1</property>
  <property name="kdenlive:original.meta.media.0.stream.type">video</property>
  <property name="kdenlive:original.meta.media.0.stream.frame_rate">60</property>
  <property name="kdenlive:original.meta.media.0.stream.sample_aspect_ratio">0</property>
  <property name="kdenlive:original.meta.media.0.codec.width">3840</property>
  <property name="kdenlive:original.meta.media.0.codec.height">2160</property>
  <property name="kdenlive:original.meta.media.0.codec.rotate">0</property>
  <property name="kdenlive:original.meta.media.0.codec.frame_rate">60</property>
  <property name="kdenlive:original.meta.media.0.codec.pix_fmt">yuv420p</property>
  <property name="kdenlive:original.meta.media.0.codec.sample_aspect_ratio">0</property>
  <property name="kdenlive:original.meta.media.0.codec.colorspace">709</property>
  <property name="kdenlive:original.meta.media.0.codec.name">h264</property>
  <property name="kdenlive:original.meta.media.0.codec.long_name">H.264 / AVC / MPEG-4 AVC / MPEG-4 part 10</property>
  <property name="kdenlive:original.meta.media.0.codec.bit_rate">428968</property>
  <property name="kdenlive:original.meta.attr.0.stream.handler_name.markup">VideoHandler</property>
  <property name="kdenlive:original.meta.attr.0.stream.vendor_id.markup">[0][0][0][0]</property>
  <property name="kdenlive:original.meta.attr.major_brand.markup">isom</property>
  <property name="kdenlive:original.meta.attr.minor_version.markup">512</property>
  <property name="kdenlive:original.meta.attr.compatible_brands.markup">isomiso2avc1mp41</property>
  <property name="kdenlive:original.meta.attr.encoder.markup">Lavf58.76.100</property>
  <property name="kdenlive:original.meta.attr.comment.markup">Rendered with Manim Community v0.6.0</property>
  <property name="kdenlive:original.seekable">1</property>
  <property name="kdenlive:original.width">3840</property>
  <property name="kdenlive:original.height">2160</property>
  <property name="kdenlive:original.meta.media.sample_aspect_num">1</property>
  <property name="kdenlive:original.meta.media.sample_aspect_den">1</property>
  <property name="kdenlive:original.aspect_ratio">1</property>
  <property name="kdenlive:original.audio_index">-1</property>
  <property name="kdenlive:original.video_index">0</property>
  <property name="kdenlive:original.mute_on_pause">1</property>
  <property name="kdenlive:original.mlt_service">avformat</property>
  <property name="kdenlive:original.meta.media.frame_rate_num">60</property>
  <property name="kdenlive:original.meta.media.frame_rate_den">1</property>
  <property name="kdenlive:original.meta.media.colorspace">709</property>
  <property name="kdenlive:original.meta.media.color_trc">2</property>
  <property name="kdenlive:original.meta.media.width">3840</property>
  <property name="kdenlive:original.meta.media.height">2160</property>
  <property name="kdenlive:original.meta.media.color_range">mpeg</property>
  <property name="kdenlive:original.meta.media.top_field_first">0</property>
  <property name="kdenlive:original.meta.media.progressive">1</property>
  <property name="kdenlive:original.backup">1</property>
 </producer>
 <producer id="producer356" in="00:00:00.000" out="00:00:04.983">
  <property name="length">00:00:05.000</property>
  <property name="eof">pause</property>
  <property name="resource">/home/xiaoxiae/.cache/kdenlive/proxy/2fa2f153cb4f7065e53a5afb8c1ca699.png</property>
  <property name="ttl">25</property>
  <property name="aspect_ratio">1</property>
  <property name="progressive">1</property>
  <property name="seekable">1</property>
  <property name="meta.media.width">800</property>
  <property name="meta.media.height">450</property>
  <property name="mlt_service">qimage</property>
  <property name="kdenlive:clipname">4.png</property>
  <property name="kdenlive:duration">00:00:05.000</property>
  <property name="kdenlive:folderid">277</property>
  <property name="kdenlive:id">322</property>
  <property name="kdenlive:file_size">209083</property>
  <property name="kdenlive:file_hash">2fa2f153cb4f7065e53a5afb8c1ca699</property>
  <property name="kdenlive:proxy">/home/xiaoxiae/.cache/kdenlive/proxy/2fa2f153cb4f7065e53a5afb8c1ca699.png</property>
  <property name="kdenlive:originalurl">video/Observations/4.png</property>
  <property name="global_feed">1</property>
 </producer>
 <producer id="producer355" in="00:00:00.000" out="00:00:00.983">
  <property name="length">60</property>
  <property name="eof">pause</property>
  <property name="resource">/home/xiaoxiae/.cache/kdenlive/proxy/3717437aa7b5f0192a58c31ba1a2ecd9.mkv</property>
  <property name="audio_index">-1</property>
  <property name="video_index">0</property>
  <property name="mute_on_pause">0</property>
  <property name="mlt_service">avformat-novalidate</property>
  <property name="seekable">1</property>
  <property name="aspect_ratio">1</property>
  <property name="kdenlive:clipname">40.mp4</property>
  <property name="kdenlive:folderid">277</property>
  <property name="kdenlive:id">323</property>
  <property name="kdenlive:file_size">90351</property>
  <property name="kdenlive:file_hash">3717437aa7b5f0192a58c31ba1a2ecd9</property>
  <property name="kdenlive:proxy">/home/xiaoxiae/.cache/kdenlive/proxy/3717437aa7b5f0192a58c31ba1a2ecd9.mkv</property>
  <property name="kdenlive:originalurl">video/Observations/40.mp4</property>
  <property name="global_feed">1</property>
  <property name="meta.media.nb_streams">1</property>
  <property name="meta.media.0.stream.type">video</property>
  <property name="meta.media.0.stream.frame_rate">60</property>
  <property name="meta.media.0.stream.sample_aspect_ratio">0</property>
  <property name="meta.media.0.codec.width">640</property>
  <property name="meta.media.0.codec.height">360</property>
  <property name="meta.media.0.codec.rotate">0</property>
  <property name="meta.media.0.codec.frame_rate">60</property>
  <property name="meta.media.0.codec.pix_fmt">yuv420p</property>
  <property name="meta.media.0.codec.sample_aspect_ratio">0</property>
  <property name="meta.media.0.codec.colorspace">601</property>
  <property name="meta.media.0.codec.name">h264</property>
  <property name="meta.media.0.codec.long_name">H.264 / AVC / MPEG-4 AVC / MPEG-4 part 10</property>
  <property name="meta.media.0.codec.bit_rate">0</property>
  <property name="meta.attr.0.stream.HANDLER_NAME.markup">VideoHandler</property>
  <property name="meta.attr.0.stream.VENDOR_ID.markup">[0][0][0][0]</property>
  <property name="meta.attr.0.stream.ENCODER.markup">Lavc58.134.100 libx264</property>
  <property name="meta.attr.0.stream.DURATION.markup">00:00:01.000000000</property>
  <property name="meta.attr.COMMENT.markup">Rendered with Manim Community v0.6.0</property>
  <property name="meta.attr.MAJOR_BRAND.markup">isom</property>
  <property name="meta.attr.MINOR_VERSION.markup">512</property>
  <property name="meta.attr.COMPATIBLE_BRANDS.markup">isomiso2avc1mp41</property>
  <property name="meta.attr.ENCODER.markup">Lavf58.76.100</property>
  <property name="meta.media.sample_aspect_num">1</property>
  <property name="meta.media.sample_aspect_den">1</property>
  <property name="meta.media.frame_rate_num">60</property>
  <property name="meta.media.frame_rate_den">1</property>
  <property name="meta.media.colorspace">601</property>
  <property name="meta.media.color_trc">2</property>
  <property name="meta.media.width">640</property>
  <property name="meta.media.height">360</property>
  <property name="meta.media.color_range">mpeg</property>
  <property name="meta.media.top_field_first">0</property>
  <property name="meta.media.progressive">1</property>
  <property name="kdenlive:original.mlt_type">producer</property>
  <property name="kdenlive:original.in">0</property>
  <property name="kdenlive:original.out">59</property>
  <property name="kdenlive:original.length">60</property>
  <property name="kdenlive:original.eof">pause</property>
  <property name="kdenlive:original.resource">video/Observations/40.mp4</property>
  <property name="kdenlive:original.meta.media.nb_streams">1</property>
  <property name="kdenlive:original.meta.media.0.stream.type">video</property>
  <property name="kdenlive:original.meta.media.0.stream.frame_rate">60</property>
  <property name="kdenlive:original.meta.media.0.stream.sample_aspect_ratio">0</property>
  <property name="kdenlive:original.meta.media.0.codec.width">3840</property>
  <property name="kdenlive:original.meta.media.0.codec.height">2160</property>
  <property name="kdenlive:original.meta.media.0.codec.rotate">0</property>
  <property name="kdenlive:original.meta.media.0.codec.frame_rate">60</property>
  <property name="kdenlive:original.meta.media.0.codec.pix_fmt">yuv420p</property>
  <property name="kdenlive:original.meta.media.0.codec.sample_aspect_ratio">0</property>
  <property name="kdenlive:original.meta.media.0.codec.colorspace">709</property>
  <property name="kdenlive:original.meta.media.0.codec.name">h264</property>
  <property name="kdenlive:original.meta.media.0.codec.long_name">H.264 / AVC / MPEG-4 AVC / MPEG-4 part 10</property>
  <property name="kdenlive:original.meta.media.0.codec.bit_rate">709760</property>
  <property name="kdenlive:original.meta.attr.0.stream.handler_name.markup">VideoHandler</property>
  <property name="kdenlive:original.meta.attr.0.stream.vendor_id.markup">[0][0][0][0]</property>
  <property name="kdenlive:original.meta.attr.major_brand.markup">isom</property>
  <property name="kdenlive:original.meta.attr.minor_version.markup">512</property>
  <property name="kdenlive:original.meta.attr.compatible_brands.markup">isomiso2avc1mp41</property>
  <property name="kdenlive:original.meta.attr.encoder.markup">Lavf58.76.100</property>
  <property name="kdenlive:original.meta.attr.comment.markup">Rendered with Manim Community v0.6.0</property>
  <property name="kdenlive:original.seekable">1</property>
  <property name="kdenlive:original.width">3840</property>
  <property name="kdenlive:original.height">2160</property>
  <property name="kdenlive:original.meta.media.sample_aspect_num">1</property>
  <property name="kdenlive:original.meta.media.sample_aspect_den">1</property>
  <property name="kdenlive:original.aspect_ratio">1</property>
  <property name="kdenlive:original.audio_index">-1</property>
  <property name="kdenlive:original.video_index">0</property>
  <property name="kdenlive:original.mute_on_pause">1</property>
  <property name="kdenlive:original.mlt_service">avformat</property>
  <property name="kdenlive:original.meta.media.frame_rate_num">60</property>
  <property name="kdenlive:original.meta.media.frame_rate_den">1</property>
  <property name="kdenlive:original.meta.media.colorspace">709</property>
  <property name="kdenlive:original.meta.media.color_trc">2</property>
  <property name="kdenlive:original.meta.media.width">3840</property>
  <property name="kdenlive:original.meta.media.height">2160</property>
  <property name="kdenlive:original.meta.media.color_range">mpeg</property>
  <property name="kdenlive:original.meta.media.top_field_first">0</property>
  <property name="kdenlive:original.meta.media.progressive">1</property>
  <property name="kdenlive:original.backup">1</property>
 </producer>
 <producer id="producer359" in="00:00:00.000" out="00:00:04.983">
  <property name="length">00:00:05.000</property>
  <property name="eof">pause</property>
  <property name="resource">/home/xiaoxiae/.cache/kdenlive/proxy/72ffd5ba7e9e128ccc568b5fd3912ebb.png</property>
  <property name="ttl">25</property>
  <property name="aspect_ratio">1</property>
  <property name="progressive">1</property>
  <property name="seekable">1</property>
  <property name="meta.media.width">800</property>
  <property name="meta.media.height">450</property>
  <property name="mlt_service">qimage</property>
  <property name="kdenlive:clipname">40.png</property>
  <property name="kdenlive:duration">00:00:05.000</property>
  <property name="kdenlive:folderid">277</property>
  <property name="kdenlive:id">324</property>
  <property name="kdenlive:file_size">295282</property>
  <property name="kdenlive:file_hash">72ffd5ba7e9e128ccc568b5fd3912ebb</property>
  <property name="kdenlive:proxy">/home/xiaoxiae/.cache/kdenlive/proxy/72ffd5ba7e9e128ccc568b5fd3912ebb.png</property>
  <property name="kdenlive:originalurl">video/Observations/40.png</property>
  <property name="global_feed">1</property>
 </producer>
 <producer id="producer361" in="00:00:00.000" out="00:00:01.983">
  <property name="length">120</property>
  <property name="eof">pause</property>
  <property name="resource">/home/xiaoxiae/.cache/kdenlive/proxy/ae265bf06de1d332e1dbfd6e28848d43.mkv</property>
  <property name="audio_index">-1</property>
  <property name="video_index">0</property>
  <property name="mute_on_pause">0</property>
  <property name="mlt_service">avformat-novalidate</property>
  <property name="seekable">1</property>
  <property name="aspect_ratio">1</property>
  <property name="kdenlive:clipname">41.mp4</property>
  <property name="kdenlive:folderid">277</property>
  <property name="kdenlive:id">325</property>
  <property name="kdenlive:file_size">132289</property>
  <property name="kdenlive:file_hash">ae265bf06de1d332e1dbfd6e28848d43</property>
  <property name="kdenlive:proxy">/home/xiaoxiae/.cache/kdenlive/proxy/ae265bf06de1d332e1dbfd6e28848d43.mkv</property>
  <property name="kdenlive:originalurl">video/Observations/41.mp4</property>
  <property name="global_feed">1</property>
  <property name="meta.media.nb_streams">1</property>
  <property name="meta.media.0.stream.type">video</property>
  <property name="meta.media.0.stream.frame_rate">60</property>
  <property name="meta.media.0.stream.sample_aspect_ratio">0</property>
  <property name="meta.media.0.codec.width">640</property>
  <property name="meta.media.0.codec.height">360</property>
  <property name="meta.media.0.codec.rotate">0</property>
  <property name="meta.media.0.codec.frame_rate">60</property>
  <property name="meta.media.0.codec.pix_fmt">yuv420p</property>
  <property name="meta.media.0.codec.sample_aspect_ratio">0</property>
  <property name="meta.media.0.codec.colorspace">601</property>
  <property name="meta.media.0.codec.name">h264</property>
  <property name="meta.media.0.codec.long_name">H.264 / AVC / MPEG-4 AVC / MPEG-4 part 10</property>
  <property name="meta.media.0.codec.bit_rate">0</property>
  <property name="meta.attr.0.stream.HANDLER_NAME.markup">VideoHandler</property>
  <property name="meta.attr.0.stream.VENDOR_ID.markup">[0][0][0][0]</property>
  <property name="meta.attr.0.stream.ENCODER.markup">Lavc58.134.100 libx264</property>
  <property name="meta.attr.0.stream.DURATION.markup">00:00:02.000000000</property>
  <property name="meta.attr.COMMENT.markup">Rendered with Manim Community v0.6.0</property>
  <property name="meta.attr.MAJOR_BRAND.markup">isom</property>
  <property name="meta.attr.MINOR_VERSION.markup">512</property>
  <property name="meta.attr.COMPATIBLE_BRANDS.markup">isomiso2avc1mp41</property>
  <property name="meta.attr.ENCODER.markup">Lavf58.76.100</property>
  <property name="meta.media.sample_aspect_num">1</property>
  <property name="meta.media.sample_aspect_den">1</property>
  <property name="meta.media.frame_rate_num">60</property>
  <property name="meta.media.frame_rate_den">1</property>
  <property name="meta.media.colorspace">601</property>
  <property name="meta.media.color_trc">2</property>
  <property name="meta.media.width">640</property>
  <property name="meta.media.height">360</property>
  <property name="meta.media.color_range">mpeg</property>
  <property name="meta.media.top_field_first">0</property>
  <property name="meta.media.progressive">1</property>
  <property name="kdenlive:original.mlt_type">producer</property>
  <property name="kdenlive:original.in">0</property>
  <property name="kdenlive:original.out">119</property>
  <property name="kdenlive:original.length">120</property>
  <property name="kdenlive:original.eof">pause</property>
  <property name="kdenlive:original.resource">video/Observations/41.mp4</property>
  <property name="kdenlive:original.meta.media.nb_streams">1</property>
  <property name="kdenlive:original.meta.media.0.stream.type">video</property>
  <property name="kdenlive:original.meta.media.0.stream.frame_rate">60</property>
  <property name="kdenlive:original.meta.media.0.stream.sample_aspect_ratio">0</property>
  <property name="kdenlive:original.meta.media.0.codec.width">3840</property>
  <property name="kdenlive:original.meta.media.0.codec.height">2160</property>
  <property name="kdenlive:original.meta.media.0.codec.rotate">0</property>
  <property name="kdenlive:original.meta.media.0.codec.frame_rate">60</property>
  <property name="kdenlive:original.meta.media.0.codec.pix_fmt">yuv420p</property>
  <property name="kdenlive:original.meta.media.0.codec.sample_aspect_ratio">0</property>
  <property name="kdenlive:original.meta.media.0.codec.colorspace">709</property>
  <property name="kdenlive:original.meta.media.0.codec.name">h264</property>
  <property name="kdenlive:original.meta.media.0.codec.long_name">H.264 / AVC / MPEG-4 AVC / MPEG-4 part 10</property>
  <property name="kdenlive:original.meta.media.0.codec.bit_rate">519752</property>
  <property name="kdenlive:original.meta.attr.0.stream.handler_name.markup">VideoHandler</property>
  <property name="kdenlive:original.meta.attr.0.stream.vendor_id.markup">[0][0][0][0]</property>
  <property name="kdenlive:original.meta.attr.major_brand.markup">isom</property>
  <property name="kdenlive:original.meta.attr.minor_version.markup">512</property>
  <property name="kdenlive:original.meta.attr.compatible_brands.markup">isomiso2avc1mp41</property>
  <property name="kdenlive:original.meta.attr.encoder.markup">Lavf58.76.100</property>
  <property name="kdenlive:original.meta.attr.comment.markup">Rendered with Manim Community v0.6.0</property>
  <property name="kdenlive:original.seekable">1</property>
  <property name="kdenlive:original.width">3840</property>
  <property name="kdenlive:original.height">2160</property>
  <property name="kdenlive:original.meta.media.sample_aspect_num">1</property>
  <property name="kdenlive:original.meta.media.sample_aspect_den">1</property>
  <property name="kdenlive:original.aspect_ratio">1</property>
  <property name="kdenlive:original.audio_index">-1</property>
  <property name="kdenlive:original.video_index">0</property>
  <property name="kdenlive:original.mute_on_pause">1</property>
  <property name="kdenlive:original.mlt_service">avformat</property>
  <property name="kdenlive:original.meta.media.frame_rate_num">60</property>
  <property name="kdenlive:original.meta.media.frame_rate_den">1</property>
  <property name="kdenlive:original.meta.media.colorspace">709</property>
  <property name="kdenlive:original.meta.media.color_trc">2</property>
  <property name="kdenlive:original.meta.media.width">3840</property>
  <property name="kdenlive:original.meta.media.height">2160</property>
  <property name="kdenlive:original.meta.media.color_range">mpeg</property>
  <property name="kdenlive:original.meta.media.top_field_first">0</property>
  <property name="kdenlive:original.meta.media.progressive">1</property>
  <property name="kdenlive:original.backup">1</property>
 </producer>
 <producer id="producer358" in="00:00:00.000" out="00:00:04.983">
  <property name="length">00:00:05.000</property>
  <property name="eof">pause</property>
  <property name="resource">/home/xiaoxiae/.cache/kdenlive/proxy/7995c7447adc992b6fe7dbc39164db7d.png</property>
  <property name="ttl">25</property>
  <property name="aspect_ratio">1</property>
  <property name="progressive">1</property>
  <property name="seekable">1</property>
  <property name="meta.media.width">800</property>
  <property name="meta.media.height">450</property>
  <property name="mlt_service">qimage</property>
  <property name="kdenlive:clipname">41.png</property>
  <property name="kdenlive:duration">00:00:05.000</property>
  <property name="kdenlive:folderid">277</property>
  <property name="kdenlive:id">326</property>
  <property name="kdenlive:file_size">346914</property>
  <property name="kdenlive:file_hash">7995c7447adc992b6fe7dbc39164db7d</property>
  <property name="kdenlive:proxy">/home/xiaoxiae/.cache/kdenlive/proxy/7995c7447adc992b6fe7dbc39164db7d.png</property>
  <property name="kdenlive:originalurl">video/Observations/41.png</property>
  <property name="global_feed">1</property>
 </producer>
 <producer id="producer360" in="00:00:00.000" out="00:00:00.983">
  <property name="length">60</property>
  <property name="eof">pause</property>
  <property name="resource">/home/xiaoxiae/.cache/kdenlive/proxy/85d0580544aed17e896fc2f4c871cced.mkv</property>
  <property name="audio_index">-1</property>
  <property name="video_index">0</property>
  <property name="mute_on_pause">0</property>
  <property name="mlt_service">avformat-novalidate</property>
  <property name="seekable">1</property>
  <property name="aspect_ratio">1</property>
  <property name="kdenlive:clipname">42.mp4</property>
  <property name="kdenlive:folderid">277</property>
  <property name="kdenlive:id">327</property>
  <property name="kdenlive:file_size">100847</property>
  <property name="kdenlive:file_hash">85d0580544aed17e896fc2f4c871cced</property>
  <property name="kdenlive:proxy">/home/xiaoxiae/.cache/kdenlive/proxy/85d0580544aed17e896fc2f4c871cced.mkv</property>
  <property name="kdenlive:originalurl">video/Observations/42.mp4</property>
  <property name="global_feed">1</property>
  <property name="meta.media.nb_streams">1</property>
  <property name="meta.media.0.stream.type">video</property>
  <property name="meta.media.0.stream.frame_rate">60</property>
  <property name="meta.media.0.stream.sample_aspect_ratio">0</property>
  <property name="meta.media.0.codec.width">640</property>
  <property name="meta.media.0.codec.height">360</property>
  <property name="meta.media.0.codec.rotate">0</property>
  <property name="meta.media.0.codec.frame_rate">60</property>
  <property name="meta.media.0.codec.pix_fmt">yuv420p</property>
  <property name="meta.media.0.codec.sample_aspect_ratio">0</property>
  <property name="meta.media.0.codec.colorspace">601</property>
  <property name="meta.media.0.codec.name">h264</property>
  <property name="meta.media.0.codec.long_name">H.264 / AVC / MPEG-4 AVC / MPEG-4 part 10</property>
  <property name="meta.media.0.codec.bit_rate">0</property>
  <property name="meta.attr.0.stream.HANDLER_NAME.markup">VideoHandler</property>
  <property name="meta.attr.0.stream.VENDOR_ID.markup">[0][0][0][0]</property>
  <property name="meta.attr.0.stream.ENCODER.markup">Lavc58.134.100 libx264</property>
  <property name="meta.attr.0.stream.DURATION.markup">00:00:01.000000000</property>
  <property name="meta.attr.COMMENT.markup">Rendered with Manim Community v0.6.0</property>
  <property name="meta.attr.MAJOR_BRAND.markup">isom</property>
  <property name="meta.attr.MINOR_VERSION.markup">512</property>
  <property name="meta.attr.COMPATIBLE_BRANDS.markup">isomiso2avc1mp41</property>
  <property name="meta.attr.ENCODER.markup">Lavf58.76.100</property>
  <property name="meta.media.sample_aspect_num">1</property>
  <property name="meta.media.sample_aspect_den">1</property>
  <property name="meta.media.frame_rate_num">60</property>
  <property name="meta.media.frame_rate_den">1</property>
  <property name="meta.media.colorspace">601</property>
  <property name="meta.media.color_trc">2</property>
  <property name="meta.media.width">640</property>
  <property name="meta.media.height">360</property>
  <property name="meta.media.color_range">mpeg</property>
  <property name="meta.media.top_field_first">0</property>
  <property name="meta.media.progressive">1</property>
  <property name="kdenlive:original.mlt_type">producer</property>
  <property name="kdenlive:original.in">0</property>
  <property name="kdenlive:original.out">59</property>
  <property name="kdenlive:original.length">60</property>
  <property name="kdenlive:original.eof">pause</property>
  <property name="kdenlive:original.resource">video/Observations/42.mp4</property>
  <property name="kdenlive:original.meta.media.nb_streams">1</property>
  <property name="kdenlive:original.meta.media.0.stream.type">video</property>
  <property name="kdenlive:original.meta.media.0.stream.frame_rate">60</property>
  <property name="kdenlive:original.meta.media.0.stream.sample_aspect_ratio">0</property>
  <property name="kdenlive:original.meta.media.0.codec.width">3840</property>
  <property name="kdenlive:original.meta.media.0.codec.height">2160</property>
  <property name="kdenlive:original.meta.media.0.codec.rotate">0</property>
  <property name="kdenlive:original.meta.media.0.codec.frame_rate">60</property>
  <property name="kdenlive:original.meta.media.0.codec.pix_fmt">yuv420p</property>
  <property name="kdenlive:original.meta.media.0.codec.sample_aspect_ratio">0</property>
  <property name="kdenlive:original.meta.media.0.codec.colorspace">709</property>
  <property name="kdenlive:original.meta.media.0.codec.name">h264</property>
  <property name="kdenlive:original.meta.media.0.codec.long_name">H.264 / AVC / MPEG-4 AVC / MPEG-4 part 10</property>
  <property name="kdenlive:original.meta.media.0.codec.bit_rate">793728</property>
  <property name="kdenlive:original.meta.attr.0.stream.handler_name.markup">VideoHandler</property>
  <property name="kdenlive:original.meta.attr.0.stream.vendor_id.markup">[0][0][0][0]</property>
  <property name="kdenlive:original.meta.attr.major_brand.markup">isom</property>
  <property name="kdenlive:original.meta.attr.minor_version.markup">512</property>
  <property name="kdenlive:original.meta.attr.compatible_brands.markup">isomiso2avc1mp41</property>
  <property name="kdenlive:original.meta.attr.encoder.markup">Lavf58.76.100</property>
  <property name="kdenlive:original.meta.attr.comment.markup">Rendered with Manim Community v0.6.0</property>
  <property name="kdenlive:original.seekable">1</property>
  <property name="kdenlive:original.width">3840</property>
  <property name="kdenlive:original.height">2160</property>
  <property name="kdenlive:original.meta.media.sample_aspect_num">1</property>
  <property name="kdenlive:original.meta.media.sample_aspect_den">1</property>
  <property name="kdenlive:original.aspect_ratio">1</property>
  <property name="kdenlive:original.audio_index">-1</property>
  <property name="kdenlive:original.video_index">0</property>
  <property name="kdenlive:original.mute_on_pause">1</property>
  <property name="kdenlive:original.mlt_service">avformat</property>
  <property name="kdenlive:original.meta.media.frame_rate_num">60</property>
  <property name="kdenlive:original.meta.media.frame_rate_den">1</property>
  <property name="kdenlive:original.meta.media.colorspace">709</property>
  <property name="kdenlive:original.meta.media.color_trc">2</property>
  <property name="kdenlive:original.meta.media.width">3840</property>
  <property name="kdenlive:original.meta.media.height">2160</property>
  <property name="kdenlive:original.meta.media.color_range">mpeg</property>
  <property name="kdenlive:original.meta.media.top_field_first">0</property>
  <property name="kdenlive:original.meta.media.progressive">1</property>
  <property name="kdenlive:original.backup">1</property>
 </producer>
 <producer id="producer362" in="00:00:00.000" out="00:00:04.983">
  <property name="length">00:00:05.000</property>
  <property name="eof">pause</property>
  <property name="resource">/home/xiaoxiae/.cache/kdenlive/proxy/806a446092fb61846e9f5ff3f586ae17.png</property>
  <property name="ttl">25</property>
  <property name="aspect_ratio">1</property>
  <property name="progressive">1</property>
  <property name="seekable">1</property>
  <property name="meta.media.width">800</property>
  <property name="meta.media.height">450</property>
  <property name="mlt_service">qimage</property>
  <property name="kdenlive:clipname">42.png</property>
  <property name="kdenlive:duration">00:00:05.000</property>
  <property name="kdenlive:folderid">277</property>
  <property name="kdenlive:id">328</property>
  <property name="kdenlive:file_size">365228</property>
  <property name="kdenlive:file_hash">806a446092fb61846e9f5ff3f586ae17</property>
  <property name="kdenlive:proxy">/home/xiaoxiae/.cache/kdenlive/proxy/806a446092fb61846e9f5ff3f586ae17.png</property>
  <property name="kdenlive:originalurl">video/Observations/42.png</property>
  <property name="global_feed">1</property>
  <property name="kdenlive:original.mlt_type">producer</property>
  <property name="kdenlive:original.in">0</property>
  <property name="kdenlive:original.out">14999</property>
  <property name="kdenlive:original.length">15000</property>
  <property name="kdenlive:original.eof">pause</property>
  <property name="kdenlive:original.resource">video/Observations/42.png</property>
  <property name="kdenlive:original.ttl">25</property>
  <property name="kdenlive:original.aspect_ratio">1</property>
  <property name="kdenlive:original.progressive">1</property>
  <property name="kdenlive:original.seekable">1</property>
  <property name="kdenlive:original.meta.media.width">3840</property>
  <property name="kdenlive:original.meta.media.height">2160</property>
  <property name="kdenlive:original.mlt_service">qimage</property>
  <property name="kdenlive:original.backup">1</property>
 </producer>
 <producer id="producer363" in="00:00:00.000" out="00:00:00.983">
  <property name="length">60</property>
  <property name="eof">pause</property>
  <property name="resource">/home/xiaoxiae/.cache/kdenlive/proxy/77f89d9b80df1355136425b0624be718.mkv</property>
  <property name="audio_index">-1</property>
  <property name="video_index">0</property>
  <property name="mute_on_pause">0</property>
  <property name="mlt_service">avformat-novalidate</property>
  <property name="seekable">1</property>
  <property name="aspect_ratio">1</property>
  <property name="kdenlive:clipname">43.mp4</property>
  <property name="kdenlive:folderid">277</property>
  <property name="kdenlive:id">329</property>
  <property name="kdenlive:file_size">123862</property>
  <property name="kdenlive:file_hash">77f89d9b80df1355136425b0624be718</property>
  <property name="kdenlive:proxy">/home/xiaoxiae/.cache/kdenlive/proxy/77f89d9b80df1355136425b0624be718.mkv</property>
  <property name="kdenlive:originalurl">video/Observations/43.mp4</property>
  <property name="global_feed">1</property>
  <property name="meta.media.nb_streams">1</property>
  <property name="meta.media.0.stream.type">video</property>
  <property name="meta.media.0.stream.frame_rate">60</property>
  <property name="meta.media.0.stream.sample_aspect_ratio">0</property>
  <property name="meta.media.0.codec.width">640</property>
  <property name="meta.media.0.codec.height">360</property>
  <property name="meta.media.0.codec.rotate">0</property>
  <property name="meta.media.0.codec.frame_rate">60</property>
  <property name="meta.media.0.codec.pix_fmt">yuv420p</property>
  <property name="meta.media.0.codec.sample_aspect_ratio">0</property>
  <property name="meta.media.0.codec.colorspace">601</property>
  <property name="meta.media.0.codec.name">h264</property>
  <property name="meta.media.0.codec.long_name">H.264 / AVC / MPEG-4 AVC / MPEG-4 part 10</property>
  <property name="meta.media.0.codec.bit_rate">0</property>
  <property name="meta.attr.0.stream.HANDLER_NAME.markup">VideoHandler</property>
  <property name="meta.attr.0.stream.VENDOR_ID.markup">[0][0][0][0]</property>
  <property name="meta.attr.0.stream.ENCODER.markup">Lavc58.134.100 libx264</property>
  <property name="meta.attr.0.stream.DURATION.markup">00:00:01.000000000</property>
  <property name="meta.attr.COMMENT.markup">Rendered with Manim Community v0.6.0</property>
  <property name="meta.attr.MAJOR_BRAND.markup">isom</property>
  <property name="meta.attr.MINOR_VERSION.markup">512</property>
  <property name="meta.attr.COMPATIBLE_BRANDS.markup">isomiso2avc1mp41</property>
  <property name="meta.attr.ENCODER.markup">Lavf58.76.100</property>
  <property name="meta.media.sample_aspect_num">1</property>
  <property name="meta.media.sample_aspect_den">1</property>
  <property name="meta.media.frame_rate_num">60</property>
  <property name="meta.media.frame_rate_den">1</property>
  <property name="meta.media.colorspace">601</property>
  <property name="meta.media.color_trc">2</property>
  <property name="meta.media.width">640</property>
  <property name="meta.media.height">360</property>
  <property name="meta.media.color_range">mpeg</property>
  <property name="meta.media.top_field_first">0</property>
  <property name="meta.media.progressive">1</property>
  <property name="kdenlive:original.mlt_type">producer</property>
  <property name="kdenlive:original.in">0</property>
  <property name="kdenlive:original.out">59</property>
  <property name="kdenlive:original.length">60</property>
  <property name="kdenlive:original.eof">pause</property>
  <property name="kdenlive:original.resource">video/Observations/43.mp4</property>
  <property name="kdenlive:original.meta.media.nb_streams">1</property>
  <property name="kdenlive:original.meta.media.0.stream.type">video</property>
  <property name="kdenlive:original.meta.media.0.stream.frame_rate">60</property>
  <property name="kdenlive:original.meta.media.0.stream.sample_aspect_ratio">0</property>
  <property name="kdenlive:original.meta.media.0.codec.width">3840</property>
  <property name="kdenlive:original.meta.media.0.codec.height">2160</property>
  <property name="kdenlive:original.meta.media.0.codec.rotate">0</property>
  <property name="kdenlive:original.meta.media.0.codec.frame_rate">60</property>
  <property name="kdenlive:original.meta.media.0.codec.pix_fmt">yuv420p</property>
  <property name="kdenlive:original.meta.media.0.codec.sample_aspect_ratio">0</property>
  <property name="kdenlive:original.meta.media.0.codec.colorspace">709</property>
  <property name="kdenlive:original.meta.media.0.codec.name">h264</property>
  <property name="kdenlive:original.meta.media.0.codec.long_name">H.264 / AVC / MPEG-4 AVC / MPEG-4 part 10</property>
  <property name="kdenlive:original.meta.media.0.codec.bit_rate">978040</property>
  <property name="kdenlive:original.meta.attr.0.stream.handler_name.markup">VideoHandler</property>
  <property name="kdenlive:original.meta.attr.0.stream.vendor_id.markup">[0][0][0][0]</property>
  <property name="kdenlive:original.meta.attr.major_brand.markup">isom</property>
  <property name="kdenlive:original.meta.attr.minor_version.markup">512</property>
  <property name="kdenlive:original.meta.attr.compatible_brands.markup">isomiso2avc1mp41</property>
  <property name="kdenlive:original.meta.attr.encoder.markup">Lavf58.76.100</property>
  <property name="kdenlive:original.meta.attr.comment.markup">Rendered with Manim Community v0.6.0</property>
  <property name="kdenlive:original.seekable">1</property>
  <property name="kdenlive:original.width">3840</property>
  <property name="kdenlive:original.height">2160</property>
  <property name="kdenlive:original.meta.media.sample_aspect_num">1</property>
  <property name="kdenlive:original.meta.media.sample_aspect_den">1</property>
  <property name="kdenlive:original.aspect_ratio">1</property>
  <property name="kdenlive:original.audio_index">-1</property>
  <property name="kdenlive:original.video_index">0</property>
  <property name="kdenlive:original.mute_on_pause">1</property>
  <property name="kdenlive:original.mlt_service">avformat</property>
  <property name="kdenlive:original.meta.media.frame_rate_num">60</property>
  <property name="kdenlive:original.meta.media.frame_rate_den">1</property>
  <property name="kdenlive:original.meta.media.colorspace">709</property>
  <property name="kdenlive:original.meta.media.color_trc">2</property>
  <property name="kdenlive:original.meta.media.width">3840</property>
  <property name="kdenlive:original.meta.media.height">2160</property>
  <property name="kdenlive:original.meta.media.color_range">mpeg</property>
  <property name="kdenlive:original.meta.media.top_field_first">0</property>
  <property name="kdenlive:original.meta.media.progressive">1</property>
  <property name="kdenlive:original.backup">1</property>
 </producer>
 <producer id="producer365" in="00:00:00.000" out="00:00:04.983">
  <property name="length">00:00:05.000</property>
  <property name="eof">pause</property>
  <property name="resource">/home/xiaoxiae/.cache/kdenlive/proxy/6b665121ca7b54a5f5307b69451fd23c.png</property>
  <property name="ttl">25</property>
  <property name="aspect_ratio">1</property>
  <property name="progressive">1</property>
  <property name="seekable">1</property>
  <property name="meta.media.width">800</property>
  <property name="meta.media.height">450</property>
  <property name="mlt_service">qimage</property>
  <property name="kdenlive:clipname">43.png</property>
  <property name="kdenlive:duration">00:00:05.000</property>
  <property name="kdenlive:folderid">277</property>
  <property name="kdenlive:id">330</property>
  <property name="kdenlive:file_size">24337</property>
  <property name="kdenlive:file_hash">6b665121ca7b54a5f5307b69451fd23c</property>
  <property name="kdenlive:proxy">/home/xiaoxiae/.cache/kdenlive/proxy/6b665121ca7b54a5f5307b69451fd23c.png</property>
  <property name="kdenlive:originalurl">video/Observations/43.png</property>
  <property name="global_feed">1</property>
 </producer>
 <producer id="producer364" in="00:00:00.000" out="00:00:00.983">
  <property name="length">60</property>
  <property name="eof">pause</property>
  <property name="resource">/home/xiaoxiae/.cache/kdenlive/proxy/6c05875cb4e6e3e804dd1a8cc8a4db86.mkv</property>
  <property name="audio_index">-1</property>
  <property name="video_index">0</property>
  <property name="mute_on_pause">0</property>
  <property name="mlt_service">avformat-novalidate</property>
  <property name="seekable">1</property>
  <property name="aspect_ratio">1</property>
  <property name="kdenlive:clipname">5.mp4</property>
  <property name="kdenlive:folderid">277</property>
  <property name="kdenlive:id">331</property>
  <property name="kdenlive:file_size">68865</property>
  <property name="kdenlive:file_hash">6c05875cb4e6e3e804dd1a8cc8a4db86</property>
  <property name="kdenlive:proxy">/home/xiaoxiae/.cache/kdenlive/proxy/6c05875cb4e6e3e804dd1a8cc8a4db86.mkv</property>
  <property name="kdenlive:originalurl">video/Observations/5.mp4</property>
  <property name="global_feed">1</property>
  <property name="meta.media.nb_streams">1</property>
  <property name="meta.media.0.stream.type">video</property>
  <property name="meta.media.0.stream.frame_rate">60</property>
  <property name="meta.media.0.stream.sample_aspect_ratio">0</property>
  <property name="meta.media.0.codec.width">640</property>
  <property name="meta.media.0.codec.height">360</property>
  <property name="meta.media.0.codec.rotate">0</property>
  <property name="meta.media.0.codec.frame_rate">60</property>
  <property name="meta.media.0.codec.pix_fmt">yuv420p</property>
  <property name="meta.media.0.codec.sample_aspect_ratio">0</property>
  <property name="meta.media.0.codec.colorspace">601</property>
  <property name="meta.media.0.codec.name">h264</property>
  <property name="meta.media.0.codec.long_name">H.264 / AVC / MPEG-4 AVC / MPEG-4 part 10</property>
  <property name="meta.media.0.codec.bit_rate">0</property>
  <property name="meta.attr.0.stream.HANDLER_NAME.markup">VideoHandler</property>
  <property name="meta.attr.0.stream.VENDOR_ID.markup">[0][0][0][0]</property>
  <property name="meta.attr.0.stream.ENCODER.markup">Lavc58.134.100 libx264</property>
  <property name="meta.attr.0.stream.DURATION.markup">00:00:01.000000000</property>
  <property name="meta.attr.COMMENT.markup">Rendered with Manim Community v0.6.0</property>
  <property name="meta.attr.MAJOR_BRAND.markup">isom</property>
  <property name="meta.attr.MINOR_VERSION.markup">512</property>
  <property name="meta.attr.COMPATIBLE_BRANDS.markup">isomiso2avc1mp41</property>
  <property name="meta.attr.ENCODER.markup">Lavf58.76.100</property>
  <property name="meta.media.sample_aspect_num">1</property>
  <property name="meta.media.sample_aspect_den">1</property>
  <property name="meta.media.frame_rate_num">60</property>
  <property name="meta.media.frame_rate_den">1</property>
  <property name="meta.media.colorspace">601</property>
  <property name="meta.media.color_trc">2</property>
  <property name="meta.media.width">640</property>
  <property name="meta.media.height">360</property>
  <property name="meta.media.color_range">mpeg</property>
  <property name="meta.media.top_field_first">0</property>
  <property name="meta.media.progressive">1</property>
  <property name="kdenlive:original.mlt_type">producer</property>
  <property name="kdenlive:original.in">0</property>
  <property name="kdenlive:original.out">59</property>
  <property name="kdenlive:original.length">60</property>
  <property name="kdenlive:original.eof">pause</property>
  <property name="kdenlive:original.resource">video/Observations/5.mp4</property>
  <property name="kdenlive:original.meta.media.nb_streams">1</property>
  <property name="kdenlive:original.meta.media.0.stream.type">video</property>
  <property name="kdenlive:original.meta.media.0.stream.frame_rate">60</property>
  <property name="kdenlive:original.meta.media.0.stream.sample_aspect_ratio">0</property>
  <property name="kdenlive:original.meta.media.0.codec.width">3840</property>
  <property name="kdenlive:original.meta.media.0.codec.height">2160</property>
  <property name="kdenlive:original.meta.media.0.codec.rotate">0</property>
  <property name="kdenlive:original.meta.media.0.codec.frame_rate">60</property>
  <property name="kdenlive:original.meta.media.0.codec.pix_fmt">yuv420p</property>
  <property name="kdenlive:original.meta.media.0.codec.sample_aspect_ratio">0</property>
  <property name="kdenlive:original.meta.media.0.codec.colorspace">709</property>
  <property name="kdenlive:original.meta.media.0.codec.name">h264</property>
  <property name="kdenlive:original.meta.media.0.codec.long_name">H.264 / AVC / MPEG-4 AVC / MPEG-4 part 10</property>
  <property name="kdenlive:original.meta.media.0.codec.bit_rate">537872</property>
  <property name="kdenlive:original.meta.attr.0.stream.handler_name.markup">VideoHandler</property>
  <property name="kdenlive:original.meta.attr.0.stream.vendor_id.markup">[0][0][0][0]</property>
  <property name="kdenlive:original.meta.attr.major_brand.markup">isom</property>
  <property name="kdenlive:original.meta.attr.minor_version.markup">512</property>
  <property name="kdenlive:original.meta.attr.compatible_brands.markup">isomiso2avc1mp41</property>
  <property name="kdenlive:original.meta.attr.encoder.markup">Lavf58.76.100</property>
  <property name="kdenlive:original.meta.attr.comment.markup">Rendered with Manim Community v0.6.0</property>
  <property name="kdenlive:original.seekable">1</property>
  <property name="kdenlive:original.width">3840</property>
  <property name="kdenlive:original.height">2160</property>
  <property name="kdenlive:original.meta.media.sample_aspect_num">1</property>
  <property name="kdenlive:original.meta.media.sample_aspect_den">1</property>
  <property name="kdenlive:original.aspect_ratio">1</property>
  <property name="kdenlive:original.audio_index">-1</property>
  <property name="kdenlive:original.video_index">0</property>
  <property name="kdenlive:original.mute_on_pause">1</property>
  <property name="kdenlive:original.mlt_service">avformat</property>
  <property name="kdenlive:original.meta.media.frame_rate_num">60</property>
  <property name="kdenlive:original.meta.media.frame_rate_den">1</property>
  <property name="kdenlive:original.meta.media.colorspace">709</property>
  <property name="kdenlive:original.meta.media.color_trc">2</property>
  <property name="kdenlive:original.meta.media.width">3840</property>
  <property name="kdenlive:original.meta.media.height">2160</property>
  <property name="kdenlive:original.meta.media.color_range">mpeg</property>
  <property name="kdenlive:original.meta.media.top_field_first">0</property>
  <property name="kdenlive:original.meta.media.progressive">1</property>
  <property name="kdenlive:original.backup">1</property>
 </producer>
 <producer id="producer368" in="00:00:00.000" out="00:00:06.033">
  <property name="length">363</property>
  <property name="eof">pause</property>
  <property name="resource">/home/xiaoxiae/.cache/kdenlive/proxy/96af784e74cb7481af2f319da7de2f23.png</property>
  <property name="ttl">25</property>
  <property name="aspect_ratio">1</property>
  <property name="progressive">1</property>
  <property name="seekable">1</property>
  <property name="meta.media.width">800</property>
  <property name="meta.media.height">450</property>
  <property name="mlt_service">qimage</property>
  <property name="kdenlive:clipname">5.png</property>
  <property name="kdenlive:duration">00:00:05.000</property>
  <property name="kdenlive:folderid">277</property>
  <property name="kdenlive:id">332</property>
  <property name="kdenlive:file_size">220437</property>
  <property name="kdenlive:file_hash">96af784e74cb7481af2f319da7de2f23</property>
  <property name="kdenlive:proxy">/home/xiaoxiae/.cache/kdenlive/proxy/96af784e74cb7481af2f319da7de2f23.png</property>
  <property name="kdenlive:originalurl">video/Observations/5.png</property>
  <property name="global_feed">1</property>
  <property name="kdenlive:original.mlt_type">producer</property>
  <property name="kdenlive:original.in">0</property>
  <property name="kdenlive:original.out">14999</property>
  <property name="kdenlive:original.length">15000</property>
  <property name="kdenlive:original.eof">pause</property>
  <property name="kdenlive:original.resource">video/Observations/5.png</property>
  <property name="kdenlive:original.ttl">25</property>
  <property name="kdenlive:original.aspect_ratio">1</property>
  <property name="kdenlive:original.progressive">1</property>
  <property name="kdenlive:original.seekable">1</property>
  <property name="kdenlive:original.meta.media.width">3840</property>
  <property name="kdenlive:original.meta.media.height">2160</property>
  <property name="kdenlive:original.mlt_service">qimage</property>
  <property name="kdenlive:original.backup">1</property>
 </producer>
 <producer id="producer367" in="00:00:00.000" out="00:00:00.983">
  <property name="length">60</property>
  <property name="eof">pause</property>
  <property name="resource">/home/xiaoxiae/.cache/kdenlive/proxy/69e2a6dbff377d042b0586cc15261310.mkv</property>
  <property name="audio_index">-1</property>
  <property name="video_index">0</property>
  <property name="mute_on_pause">0</property>
  <property name="mlt_service">avformat-novalidate</property>
  <property name="seekable">1</property>
  <property name="aspect_ratio">1</property>
  <property name="kdenlive:clipname">6.mp4</property>
  <property name="kdenlive:folderid">277</property>
  <property name="kdenlive:id">333</property>
  <property name="kdenlive:file_size">92230</property>
  <property name="kdenlive:file_hash">69e2a6dbff377d042b0586cc15261310</property>
  <property name="kdenlive:proxy">/home/xiaoxiae/.cache/kdenlive/proxy/69e2a6dbff377d042b0586cc15261310.mkv</property>
  <property name="kdenlive:originalurl">video/Observations/6.mp4</property>
  <property name="global_feed">1</property>
  <property name="meta.media.nb_streams">1</property>
  <property name="meta.media.0.stream.type">video</property>
  <property name="meta.media.0.stream.frame_rate">60</property>
  <property name="meta.media.0.stream.sample_aspect_ratio">0</property>
  <property name="meta.media.0.codec.width">640</property>
  <property name="meta.media.0.codec.height">360</property>
  <property name="meta.media.0.codec.rotate">0</property>
  <property name="meta.media.0.codec.frame_rate">60</property>
  <property name="meta.media.0.codec.pix_fmt">yuv420p</property>
  <property name="meta.media.0.codec.sample_aspect_ratio">0</property>
  <property name="meta.media.0.codec.colorspace">601</property>
  <property name="meta.media.0.codec.name">h264</property>
  <property name="meta.media.0.codec.long_name">H.264 / AVC / MPEG-4 AVC / MPEG-4 part 10</property>
  <property name="meta.media.0.codec.bit_rate">0</property>
  <property name="meta.attr.0.stream.HANDLER_NAME.markup">VideoHandler</property>
  <property name="meta.attr.0.stream.VENDOR_ID.markup">[0][0][0][0]</property>
  <property name="meta.attr.0.stream.ENCODER.markup">Lavc58.134.100 libx264</property>
  <property name="meta.attr.0.stream.DURATION.markup">00:00:01.000000000</property>
  <property name="meta.attr.COMMENT.markup">Rendered with Manim Community v0.6.0</property>
  <property name="meta.attr.MAJOR_BRAND.markup">isom</property>
  <property name="meta.attr.MINOR_VERSION.markup">512</property>
  <property name="meta.attr.COMPATIBLE_BRANDS.markup">isomiso2avc1mp41</property>
  <property name="meta.attr.ENCODER.markup">Lavf58.76.100</property>
  <property name="meta.media.sample_aspect_num">1</property>
  <property name="meta.media.sample_aspect_den">1</property>
  <property name="meta.media.frame_rate_num">60</property>
  <property name="meta.media.frame_rate_den">1</property>
  <property name="meta.media.colorspace">601</property>
  <property name="meta.media.color_trc">2</property>
  <property name="meta.media.width">640</property>
  <property name="meta.media.height">360</property>
  <property name="meta.media.color_range">mpeg</property>
  <property name="meta.media.top_field_first">0</property>
  <property name="meta.media.progressive">1</property>
  <property name="kdenlive:original.mlt_type">producer</property>
  <property name="kdenlive:original.in">0</property>
  <property name="kdenlive:original.out">59</property>
  <property name="kdenlive:original.length">60</property>
  <property name="kdenlive:original.eof">pause</property>
  <property name="kdenlive:original.resource">video/Observations/6.mp4</property>
  <property name="kdenlive:original.meta.media.nb_streams">1</property>
  <property name="kdenlive:original.meta.media.0.stream.type">video</property>
  <property name="kdenlive:original.meta.media.0.stream.frame_rate">60</property>
  <property name="kdenlive:original.meta.media.0.stream.sample_aspect_ratio">0</property>
  <property name="kdenlive:original.meta.media.0.codec.width">3840</property>
  <property name="kdenlive:original.meta.media.0.codec.height">2160</property>
  <property name="kdenlive:original.meta.media.0.codec.rotate">0</property>
  <property name="kdenlive:original.meta.media.0.codec.frame_rate">60</property>
  <property name="kdenlive:original.meta.media.0.codec.pix_fmt">yuv420p</property>
  <property name="kdenlive:original.meta.media.0.codec.sample_aspect_ratio">0</property>
  <property name="kdenlive:original.meta.media.0.codec.colorspace">709</property>
  <property name="kdenlive:original.meta.media.0.codec.name">h264</property>
  <property name="kdenlive:original.meta.media.0.codec.long_name">H.264 / AVC / MPEG-4 AVC / MPEG-4 part 10</property>
  <property name="kdenlive:original.meta.media.0.codec.bit_rate">724792</property>
  <property name="kdenlive:original.meta.attr.0.stream.handler_name.markup">VideoHandler</property>
  <property name="kdenlive:original.meta.attr.0.stream.vendor_id.markup">[0][0][0][0]</property>
  <property name="kdenlive:original.meta.attr.major_brand.markup">isom</property>
  <property name="kdenlive:original.meta.attr.minor_version.markup">512</property>
  <property name="kdenlive:original.meta.attr.compatible_brands.markup">isomiso2avc1mp41</property>
  <property name="kdenlive:original.meta.attr.encoder.markup">Lavf58.76.100</property>
  <property name="kdenlive:original.meta.attr.comment.markup">Rendered with Manim Community v0.6.0</property>
  <property name="kdenlive:original.seekable">1</property>
  <property name="kdenlive:original.width">3840</property>
  <property name="kdenlive:original.height">2160</property>
  <property name="kdenlive:original.meta.media.sample_aspect_num">1</property>
  <property name="kdenlive:original.meta.media.sample_aspect_den">1</property>
  <property name="kdenlive:original.aspect_ratio">1</property>
  <property name="kdenlive:original.audio_index">-1</property>
  <property name="kdenlive:original.video_index">0</property>
  <property name="kdenlive:original.mute_on_pause">1</property>
  <property name="kdenlive:original.mlt_service">avformat</property>
  <property name="kdenlive:original.meta.media.frame_rate_num">60</property>
  <property name="kdenlive:original.meta.media.frame_rate_den">1</property>
  <property name="kdenlive:original.meta.media.colorspace">709</property>
  <property name="kdenlive:original.meta.media.color_trc">2</property>
  <property name="kdenlive:original.meta.media.width">3840</property>
  <property name="kdenlive:original.meta.media.height">2160</property>
  <property name="kdenlive:original.meta.media.color_range">mpeg</property>
  <property name="kdenlive:original.meta.media.top_field_first">0</property>
  <property name="kdenlive:original.meta.media.progressive">1</property>
  <property name="kdenlive:original.backup">1</property>
 </producer>
 <producer id="producer366" in="00:00:00.000" out="00:00:04.983">
  <property name="length">00:00:05.000</property>
  <property name="eof">pause</property>
  <property name="resource">/home/xiaoxiae/.cache/kdenlive/proxy/4b056789e946143832e673919aed3293.png</property>
  <property name="ttl">25</property>
  <property name="aspect_ratio">1</property>
  <property name="progressive">1</property>
  <property name="seekable">1</property>
  <property name="meta.media.width">800</property>
  <property name="meta.media.height">450</property>
  <property name="mlt_service">qimage</property>
  <property name="kdenlive:clipname">6.png</property>
  <property name="kdenlive:duration">00:00:05.000</property>
  <property name="kdenlive:folderid">277</property>
  <property name="kdenlive:id">334</property>
  <property name="kdenlive:file_size">243495</property>
  <property name="kdenlive:file_hash">4b056789e946143832e673919aed3293</property>
  <property name="kdenlive:proxy">/home/xiaoxiae/.cache/kdenlive/proxy/4b056789e946143832e673919aed3293.png</property>
  <property name="kdenlive:originalurl">video/Observations/6.png</property>
  <property name="global_feed">1</property>
 </producer>
 <producer id="producer370" in="00:00:00.000" out="00:00:01.983">
  <property name="length">120</property>
  <property name="eof">pause</property>
  <property name="resource">/home/xiaoxiae/.cache/kdenlive/proxy/5fe242b5d2d2313a663a97301fb6c6ca.mkv</property>
  <property name="audio_index">-1</property>
  <property name="video_index">0</property>
  <property name="mute_on_pause">0</property>
  <property name="mlt_service">avformat-novalidate</property>
  <property name="seekable">1</property>
  <property name="aspect_ratio">1</property>
  <property name="kdenlive:clipname">7.mp4</property>
  <property name="kdenlive:folderid">277</property>
  <property name="kdenlive:id">335</property>
  <property name="kdenlive:file_size">143208</property>
  <property name="kdenlive:file_hash">5fe242b5d2d2313a663a97301fb6c6ca</property>
  <property name="kdenlive:proxy">/home/xiaoxiae/.cache/kdenlive/proxy/5fe242b5d2d2313a663a97301fb6c6ca.mkv</property>
  <property name="kdenlive:originalurl">video/Observations/7.mp4</property>
  <property name="global_feed">1</property>
  <property name="meta.media.nb_streams">1</property>
  <property name="meta.media.0.stream.type">video</property>
  <property name="meta.media.0.stream.frame_rate">60</property>
  <property name="meta.media.0.stream.sample_aspect_ratio">0</property>
  <property name="meta.media.0.codec.width">640</property>
  <property name="meta.media.0.codec.height">360</property>
  <property name="meta.media.0.codec.rotate">0</property>
  <property name="meta.media.0.codec.frame_rate">60</property>
  <property name="meta.media.0.codec.pix_fmt">yuv420p</property>
  <property name="meta.media.0.codec.sample_aspect_ratio">0</property>
  <property name="meta.media.0.codec.colorspace">601</property>
  <property name="meta.media.0.codec.name">h264</property>
  <property name="meta.media.0.codec.long_name">H.264 / AVC / MPEG-4 AVC / MPEG-4 part 10</property>
  <property name="meta.media.0.codec.bit_rate">0</property>
  <property name="meta.attr.0.stream.HANDLER_NAME.markup">VideoHandler</property>
  <property name="meta.attr.0.stream.VENDOR_ID.markup">[0][0][0][0]</property>
  <property name="meta.attr.0.stream.ENCODER.markup">Lavc58.134.100 libx264</property>
  <property name="meta.attr.0.stream.DURATION.markup">00:00:02.000000000</property>
  <property name="meta.attr.COMMENT.markup">Rendered with Manim Community v0.6.0</property>
  <property name="meta.attr.MAJOR_BRAND.markup">isom</property>
  <property name="meta.attr.MINOR_VERSION.markup">512</property>
  <property name="meta.attr.COMPATIBLE_BRANDS.markup">isomiso2avc1mp41</property>
  <property name="meta.attr.ENCODER.markup">Lavf58.76.100</property>
  <property name="meta.media.sample_aspect_num">1</property>
  <property name="meta.media.sample_aspect_den">1</property>
  <property name="meta.media.frame_rate_num">60</property>
  <property name="meta.media.frame_rate_den">1</property>
  <property name="meta.media.colorspace">601</property>
  <property name="meta.media.color_trc">2</property>
  <property name="meta.media.width">640</property>
  <property name="meta.media.height">360</property>
  <property name="meta.media.color_range">mpeg</property>
  <property name="meta.media.top_field_first">0</property>
  <property name="meta.media.progressive">1</property>
  <property name="kdenlive:original.mlt_type">producer</property>
  <property name="kdenlive:original.in">0</property>
  <property name="kdenlive:original.out">119</property>
  <property name="kdenlive:original.length">120</property>
  <property name="kdenlive:original.eof">pause</property>
  <property name="kdenlive:original.resource">video/Observations/7.mp4</property>
  <property name="kdenlive:original.meta.media.nb_streams">1</property>
  <property name="kdenlive:original.meta.media.0.stream.type">video</property>
  <property name="kdenlive:original.meta.media.0.stream.frame_rate">60</property>
  <property name="kdenlive:original.meta.media.0.stream.sample_aspect_ratio">0</property>
  <property name="kdenlive:original.meta.media.0.codec.width">3840</property>
  <property name="kdenlive:original.meta.media.0.codec.height">2160</property>
  <property name="kdenlive:original.meta.media.0.codec.rotate">0</property>
  <property name="kdenlive:original.meta.media.0.codec.frame_rate">60</property>
  <property name="kdenlive:original.meta.media.0.codec.pix_fmt">yuv420p</property>
  <property name="kdenlive:original.meta.media.0.codec.sample_aspect_ratio">0</property>
  <property name="kdenlive:original.meta.media.0.codec.colorspace">709</property>
  <property name="kdenlive:original.meta.media.0.codec.name">h264</property>
  <property name="kdenlive:original.meta.media.0.codec.long_name">H.264 / AVC / MPEG-4 AVC / MPEG-4 part 10</property>
  <property name="kdenlive:original.meta.media.0.codec.bit_rate">563428</property>
  <property name="kdenlive:original.meta.attr.0.stream.handler_name.markup">VideoHandler</property>
  <property name="kdenlive:original.meta.attr.0.stream.vendor_id.markup">[0][0][0][0]</property>
  <property name="kdenlive:original.meta.attr.major_brand.markup">isom</property>
  <property name="kdenlive:original.meta.attr.minor_version.markup">512</property>
  <property name="kdenlive:original.meta.attr.compatible_brands.markup">isomiso2avc1mp41</property>
  <property name="kdenlive:original.meta.attr.encoder.markup">Lavf58.76.100</property>
  <property name="kdenlive:original.meta.attr.comment.markup">Rendered with Manim Community v0.6.0</property>
  <property name="kdenlive:original.seekable">1</property>
  <property name="kdenlive:original.width">3840</property>
  <property name="kdenlive:original.height">2160</property>
  <property name="kdenlive:original.meta.media.sample_aspect_num">1</property>
  <property name="kdenlive:original.meta.media.sample_aspect_den">1</property>
  <property name="kdenlive:original.aspect_ratio">1</property>
  <property name="kdenlive:original.audio_index">-1</property>
  <property name="kdenlive:original.video_index">0</property>
  <property name="kdenlive:original.mute_on_pause">1</property>
  <property name="kdenlive:original.mlt_service">avformat</property>
  <property name="kdenlive:original.meta.media.frame_rate_num">60</property>
  <property name="kdenlive:original.meta.media.frame_rate_den">1</property>
  <property name="kdenlive:original.meta.media.colorspace">709</property>
  <property name="kdenlive:original.meta.media.color_trc">2</property>
  <property name="kdenlive:original.meta.media.width">3840</property>
  <property name="kdenlive:original.meta.media.height">2160</property>
  <property name="kdenlive:original.meta.media.color_range">mpeg</property>
  <property name="kdenlive:original.meta.media.top_field_first">0</property>
  <property name="kdenlive:original.meta.media.progressive">1</property>
  <property name="kdenlive:original.backup">1</property>
 </producer>
 <producer id="producer371" in="00:00:00.000" out="00:00:04.983">
  <property name="length">00:00:05.000</property>
  <property name="eof">pause</property>
  <property name="resource">/home/xiaoxiae/.cache/kdenlive/proxy/279d1f08457f7865d39bea5ef3e003c7.png</property>
  <property name="ttl">25</property>
  <property name="aspect_ratio">1</property>
  <property name="progressive">1</property>
  <property name="seekable">1</property>
  <property name="meta.media.width">800</property>
  <property name="meta.media.height">450</property>
  <property name="mlt_service">qimage</property>
  <property name="kdenlive:clipname">7.png</property>
  <property name="kdenlive:duration">00:00:05.000</property>
  <property name="kdenlive:folderid">277</property>
  <property name="kdenlive:id">336</property>
  <property name="kdenlive:file_size">326379</property>
  <property name="kdenlive:file_hash">279d1f08457f7865d39bea5ef3e003c7</property>
  <property name="kdenlive:proxy">/home/xiaoxiae/.cache/kdenlive/proxy/279d1f08457f7865d39bea5ef3e003c7.png</property>
  <property name="kdenlive:originalurl">video/Observations/7.png</property>
  <property name="global_feed">1</property>
  <property name="kdenlive:original.mlt_type">producer</property>
  <property name="kdenlive:original.in">0</property>
  <property name="kdenlive:original.out">14999</property>
  <property name="kdenlive:original.length">15000</property>
  <property name="kdenlive:original.eof">pause</property>
  <property name="kdenlive:original.resource">video/Observations/7.png</property>
  <property name="kdenlive:original.ttl">25</property>
  <property name="kdenlive:original.aspect_ratio">1</property>
  <property name="kdenlive:original.progressive">1</property>
  <property name="kdenlive:original.seekable">1</property>
  <property name="kdenlive:original.meta.media.width">3840</property>
  <property name="kdenlive:original.meta.media.height">2160</property>
  <property name="kdenlive:original.mlt_service">qimage</property>
  <property name="kdenlive:original.backup">1</property>
 </producer>
 <producer id="producer369" in="00:00:00.000" out="00:00:00.983">
  <property name="length">60</property>
  <property name="eof">pause</property>
  <property name="resource">/home/xiaoxiae/.cache/kdenlive/proxy/f1a11243b8927ee0f69f766c2b283dda.mkv</property>
  <property name="audio_index">-1</property>
  <property name="video_index">0</property>
  <property name="mute_on_pause">0</property>
  <property name="mlt_service">avformat-novalidate</property>
  <property name="seekable">1</property>
  <property name="aspect_ratio">1</property>
  <property name="kdenlive:clipname">8.mp4</property>
  <property name="kdenlive:folderid">277</property>
  <property name="kdenlive:id">337</property>
  <property name="kdenlive:file_size">112880</property>
  <property name="kdenlive:file_hash">f1a11243b8927ee0f69f766c2b283dda</property>
  <property name="kdenlive:proxy">/home/xiaoxiae/.cache/kdenlive/proxy/f1a11243b8927ee0f69f766c2b283dda.mkv</property>
  <property name="kdenlive:originalurl">video/Observations/8.mp4</property>
  <property name="global_feed">1</property>
  <property name="meta.media.nb_streams">1</property>
  <property name="meta.media.0.stream.type">video</property>
  <property name="meta.media.0.stream.frame_rate">60</property>
  <property name="meta.media.0.stream.sample_aspect_ratio">0</property>
  <property name="meta.media.0.codec.width">640</property>
  <property name="meta.media.0.codec.height">360</property>
  <property name="meta.media.0.codec.rotate">0</property>
  <property name="meta.media.0.codec.frame_rate">60</property>
  <property name="meta.media.0.codec.pix_fmt">yuv420p</property>
  <property name="meta.media.0.codec.sample_aspect_ratio">0</property>
  <property name="meta.media.0.codec.colorspace">601</property>
  <property name="meta.media.0.codec.name">h264</property>
  <property name="meta.media.0.codec.long_name">H.264 / AVC / MPEG-4 AVC / MPEG-4 part 10</property>
  <property name="meta.media.0.codec.bit_rate">0</property>
  <property name="meta.attr.0.stream.HANDLER_NAME.markup">VideoHandler</property>
  <property name="meta.attr.0.stream.VENDOR_ID.markup">[0][0][0][0]</property>
  <property name="meta.attr.0.stream.ENCODER.markup">Lavc58.134.100 libx264</property>
  <property name="meta.attr.0.stream.DURATION.markup">00:00:01.000000000</property>
  <property name="meta.attr.COMMENT.markup">Rendered with Manim Community v0.6.0</property>
  <property name="meta.attr.MAJOR_BRAND.markup">isom</property>
  <property name="meta.attr.MINOR_VERSION.markup">512</property>
  <property name="meta.attr.COMPATIBLE_BRANDS.markup">isomiso2avc1mp41</property>
  <property name="meta.attr.ENCODER.markup">Lavf58.76.100</property>
  <property name="meta.media.sample_aspect_num">1</property>
  <property name="meta.media.sample_aspect_den">1</property>
  <property name="meta.media.frame_rate_num">60</property>
  <property name="meta.media.frame_rate_den">1</property>
  <property name="meta.media.colorspace">601</property>
  <property name="meta.media.color_trc">2</property>
  <property name="meta.media.width">640</property>
  <property name="meta.media.height">360</property>
  <property name="meta.media.color_range">mpeg</property>
  <property name="meta.media.top_field_first">0</property>
  <property name="meta.media.progressive">1</property>
  <property name="kdenlive:original.mlt_type">producer</property>
  <property name="kdenlive:original.in">0</property>
  <property name="kdenlive:original.out">59</property>
  <property name="kdenlive:original.length">60</property>
  <property name="kdenlive:original.eof">pause</property>
  <property name="kdenlive:original.resource">video/Observations/8.mp4</property>
  <property name="kdenlive:original.meta.media.nb_streams">1</property>
  <property name="kdenlive:original.meta.media.0.stream.type">video</property>
  <property name="kdenlive:original.meta.media.0.stream.frame_rate">60</property>
  <property name="kdenlive:original.meta.media.0.stream.sample_aspect_ratio">0</property>
  <property name="kdenlive:original.meta.media.0.codec.width">3840</property>
  <property name="kdenlive:original.meta.media.0.codec.height">2160</property>
  <property name="kdenlive:original.meta.media.0.codec.rotate">0</property>
  <property name="kdenlive:original.meta.media.0.codec.frame_rate">60</property>
  <property name="kdenlive:original.meta.media.0.codec.pix_fmt">yuv420p</property>
  <property name="kdenlive:original.meta.media.0.codec.sample_aspect_ratio">0</property>
  <property name="kdenlive:original.meta.media.0.codec.colorspace">709</property>
  <property name="kdenlive:original.meta.media.0.codec.name">h264</property>
  <property name="kdenlive:original.meta.media.0.codec.long_name">H.264 / AVC / MPEG-4 AVC / MPEG-4 part 10</property>
  <property name="kdenlive:original.meta.media.0.codec.bit_rate">889992</property>
  <property name="kdenlive:original.meta.attr.0.stream.handler_name.markup">VideoHandler</property>
  <property name="kdenlive:original.meta.attr.0.stream.vendor_id.markup">[0][0][0][0]</property>
  <property name="kdenlive:original.meta.attr.major_brand.markup">isom</property>
  <property name="kdenlive:original.meta.attr.minor_version.markup">512</property>
  <property name="kdenlive:original.meta.attr.compatible_brands.markup">isomiso2avc1mp41</property>
  <property name="kdenlive:original.meta.attr.encoder.markup">Lavf58.76.100</property>
  <property name="kdenlive:original.meta.attr.comment.markup">Rendered with Manim Community v0.6.0</property>
  <property name="kdenlive:original.seekable">1</property>
  <property name="kdenlive:original.width">3840</property>
  <property name="kdenlive:original.height">2160</property>
  <property name="kdenlive:original.meta.media.sample_aspect_num">1</property>
  <property name="kdenlive:original.meta.media.sample_aspect_den">1</property>
  <property name="kdenlive:original.aspect_ratio">1</property>
  <property name="kdenlive:original.audio_index">-1</property>
  <property name="kdenlive:original.video_index">0</property>
  <property name="kdenlive:original.mute_on_pause">1</property>
  <property name="kdenlive:original.mlt_service">avformat</property>
  <property name="kdenlive:original.meta.media.frame_rate_num">60</property>
  <property name="kdenlive:original.meta.media.frame_rate_den">1</property>
  <property name="kdenlive:original.meta.media.colorspace">709</property>
  <property name="kdenlive:original.meta.media.color_trc">2</property>
  <property name="kdenlive:original.meta.media.width">3840</property>
  <property name="kdenlive:original.meta.media.height">2160</property>
  <property name="kdenlive:original.meta.media.color_range">mpeg</property>
  <property name="kdenlive:original.meta.media.top_field_first">0</property>
  <property name="kdenlive:original.meta.media.progressive">1</property>
  <property name="kdenlive:original.backup">1</property>
 </producer>
 <producer id="producer373" in="00:00:00.000" out="00:00:04.983">
  <property name="length">00:00:05.000</property>
  <property name="eof">pause</property>
  <property name="resource">/home/xiaoxiae/.cache/kdenlive/proxy/01e1ce297e653356144bdd22482019ce.png</property>
  <property name="ttl">25</property>
  <property name="aspect_ratio">1</property>
  <property name="progressive">1</property>
  <property name="seekable">1</property>
  <property name="meta.media.width">800</property>
  <property name="meta.media.height">450</property>
  <property name="mlt_service">qimage</property>
  <property name="kdenlive:clipname">8.png</property>
  <property name="kdenlive:duration">00:00:05.000</property>
  <property name="kdenlive:folderid">277</property>
  <property name="kdenlive:id">338</property>
  <property name="kdenlive:file_size">313811</property>
  <property name="kdenlive:file_hash">01e1ce297e653356144bdd22482019ce</property>
  <property name="kdenlive:proxy">/home/xiaoxiae/.cache/kdenlive/proxy/01e1ce297e653356144bdd22482019ce.png</property>
  <property name="kdenlive:originalurl">video/Observations/8.png</property>
  <property name="global_feed">1</property>
 </producer>
 <producer id="producer372" in="00:00:00.000" out="00:00:00.983">
  <property name="length">60</property>
  <property name="eof">pause</property>
  <property name="resource">/home/xiaoxiae/.cache/kdenlive/proxy/dba9f0a6389e3fea7dce376c0b0bab74.mkv</property>
  <property name="audio_index">-1</property>
  <property name="video_index">0</property>
  <property name="mute_on_pause">0</property>
  <property name="mlt_service">avformat-novalidate</property>
  <property name="seekable">1</property>
  <property name="aspect_ratio">1</property>
  <property name="kdenlive:clipname">9.mp4</property>
  <property name="kdenlive:folderid">277</property>
  <property name="kdenlive:id">339</property>
  <property name="kdenlive:file_size">89281</property>
  <property name="kdenlive:file_hash">dba9f0a6389e3fea7dce376c0b0bab74</property>
  <property name="kdenlive:proxy">/home/xiaoxiae/.cache/kdenlive/proxy/dba9f0a6389e3fea7dce376c0b0bab74.mkv</property>
  <property name="kdenlive:originalurl">video/Observations/9.mp4</property>
  <property name="global_feed">1</property>
  <property name="meta.media.nb_streams">1</property>
  <property name="meta.media.0.stream.type">video</property>
  <property name="meta.media.0.stream.frame_rate">60</property>
  <property name="meta.media.0.stream.sample_aspect_ratio">0</property>
  <property name="meta.media.0.codec.width">640</property>
  <property name="meta.media.0.codec.height">360</property>
  <property name="meta.media.0.codec.rotate">0</property>
  <property name="meta.media.0.codec.frame_rate">60</property>
  <property name="meta.media.0.codec.pix_fmt">yuv420p</property>
  <property name="meta.media.0.codec.sample_aspect_ratio">0</property>
  <property name="meta.media.0.codec.colorspace">601</property>
  <property name="meta.media.0.codec.name">h264</property>
  <property name="meta.media.0.codec.long_name">H.264 / AVC / MPEG-4 AVC / MPEG-4 part 10</property>
  <property name="meta.media.0.codec.bit_rate">0</property>
  <property name="meta.attr.0.stream.HANDLER_NAME.markup">VideoHandler</property>
  <property name="meta.attr.0.stream.VENDOR_ID.markup">[0][0][0][0]</property>
  <property name="meta.attr.0.stream.ENCODER.markup">Lavc58.134.100 libx264</property>
  <property name="meta.attr.0.stream.DURATION.markup">00:00:01.000000000</property>
  <property name="meta.attr.COMMENT.markup">Rendered with Manim Community v0.6.0</property>
  <property name="meta.attr.MAJOR_BRAND.markup">isom</property>
  <property name="meta.attr.MINOR_VERSION.markup">512</property>
  <property name="meta.attr.COMPATIBLE_BRANDS.markup">isomiso2avc1mp41</property>
  <property name="meta.attr.ENCODER.markup">Lavf58.76.100</property>
  <property name="meta.media.sample_aspect_num">1</property>
  <property name="meta.media.sample_aspect_den">1</property>
  <property name="meta.media.frame_rate_num">60</property>
  <property name="meta.media.frame_rate_den">1</property>
  <property name="meta.media.colorspace">601</property>
  <property name="meta.media.color_trc">2</property>
  <property name="meta.media.width">640</property>
  <property name="meta.media.height">360</property>
  <property name="meta.media.color_range">mpeg</property>
  <property name="meta.media.top_field_first">0</property>
  <property name="meta.media.progressive">1</property>
  <property name="kdenlive:original.mlt_type">producer</property>
  <property name="kdenlive:original.in">0</property>
  <property name="kdenlive:original.out">59</property>
  <property name="kdenlive:original.length">60</property>
  <property name="kdenlive:original.eof">pause</property>
  <property name="kdenlive:original.resource">video/Observations/9.mp4</property>
  <property name="kdenlive:original.meta.media.nb_streams">1</property>
  <property name="kdenlive:original.meta.media.0.stream.type">video</property>
  <property name="kdenlive:original.meta.media.0.stream.frame_rate">60</property>
  <property name="kdenlive:original.meta.media.0.stream.sample_aspect_ratio">0</property>
  <property name="kdenlive:original.meta.media.0.codec.width">3840</property>
  <property name="kdenlive:original.meta.media.0.codec.height">2160</property>
  <property name="kdenlive:original.meta.media.0.codec.rotate">0</property>
  <property name="kdenlive:original.meta.media.0.codec.frame_rate">60</property>
  <property name="kdenlive:original.meta.media.0.codec.pix_fmt">yuv420p</property>
  <property name="kdenlive:original.meta.media.0.codec.sample_aspect_ratio">0</property>
  <property name="kdenlive:original.meta.media.0.codec.colorspace">709</property>
  <property name="kdenlive:original.meta.media.0.codec.name">h264</property>
  <property name="kdenlive:original.meta.media.0.codec.long_name">H.264 / AVC / MPEG-4 AVC / MPEG-4 part 10</property>
  <property name="kdenlive:original.meta.media.0.codec.bit_rate">701200</property>
  <property name="kdenlive:original.meta.attr.0.stream.handler_name.markup">VideoHandler</property>
  <property name="kdenlive:original.meta.attr.0.stream.vendor_id.markup">[0][0][0][0]</property>
  <property name="kdenlive:original.meta.attr.major_brand.markup">isom</property>
  <property name="kdenlive:original.meta.attr.minor_version.markup">512</property>
  <property name="kdenlive:original.meta.attr.compatible_brands.markup">isomiso2avc1mp41</property>
  <property name="kdenlive:original.meta.attr.encoder.markup">Lavf58.76.100</property>
  <property name="kdenlive:original.meta.attr.comment.markup">Rendered with Manim Community v0.6.0</property>
  <property name="kdenlive:original.seekable">1</property>
  <property name="kdenlive:original.width">3840</property>
  <property name="kdenlive:original.height">2160</property>
  <property name="kdenlive:original.meta.media.sample_aspect_num">1</property>
  <property name="kdenlive:original.meta.media.sample_aspect_den">1</property>
  <property name="kdenlive:original.aspect_ratio">1</property>
  <property name="kdenlive:original.audio_index">-1</property>
  <property name="kdenlive:original.video_index">0</property>
  <property name="kdenlive:original.mute_on_pause">1</property>
  <property name="kdenlive:original.mlt_service">avformat</property>
  <property name="kdenlive:original.meta.media.frame_rate_num">60</property>
  <property name="kdenlive:original.meta.media.frame_rate_den">1</property>
  <property name="kdenlive:original.meta.media.colorspace">709</property>
  <property name="kdenlive:original.meta.media.color_trc">2</property>
  <property name="kdenlive:original.meta.media.width">3840</property>
  <property name="kdenlive:original.meta.media.height">2160</property>
  <property name="kdenlive:original.meta.media.color_range">mpeg</property>
  <property name="kdenlive:original.meta.media.top_field_first">0</property>
  <property name="kdenlive:original.meta.media.progressive">1</property>
  <property name="kdenlive:original.backup">1</property>
 </producer>
 <producer id="producer374" in="00:00:00.000" out="00:00:04.983">
  <property name="length">00:00:05.000</property>
  <property name="eof">pause</property>
  <property name="resource">/home/xiaoxiae/.cache/kdenlive/proxy/94b088941d807ad2728e001de13840e6.png</property>
  <property name="ttl">25</property>
  <property name="aspect_ratio">1</property>
  <property name="progressive">1</property>
  <property name="seekable">1</property>
  <property name="meta.media.width">800</property>
  <property name="meta.media.height">450</property>
  <property name="mlt_service">qimage</property>
  <property name="kdenlive:clipname">9.png</property>
  <property name="kdenlive:duration">00:00:05.000</property>
  <property name="kdenlive:folderid">277</property>
  <property name="kdenlive:id">340</property>
  <property name="kdenlive:file_size">324848</property>
  <property name="kdenlive:file_hash">94b088941d807ad2728e001de13840e6</property>
  <property name="kdenlive:proxy">/home/xiaoxiae/.cache/kdenlive/proxy/94b088941d807ad2728e001de13840e6.png</property>
  <property name="kdenlive:originalurl">video/Observations/9.png</property>
  <property name="global_feed">1</property>
 </producer>
 <producer id="producer375" in="00:00:00.000" out="00:00:00.983">
  <property name="length">60</property>
  <property name="eof">pause</property>
  <property name="resource">/home/xiaoxiae/.cache/kdenlive/proxy/89cdce7ef819eaf838d8013a6134651f.mkv</property>
  <property name="audio_index">-1</property>
  <property name="video_index">0</property>
  <property name="mute_on_pause">0</property>
  <property name="mlt_service">avformat-novalidate</property>
  <property name="seekable">1</property>
  <property name="aspect_ratio">1</property>
  <property name="kdenlive:clipname">1.mp4</property>
  <property name="kdenlive:folderid">364</property>
  <property name="kdenlive:id">341</property>
  <property name="kdenlive:file_size">64942</property>
  <property name="kdenlive:file_hash">89cdce7ef819eaf838d8013a6134651f</property>
  <property name="kdenlive:proxy">/home/xiaoxiae/.cache/kdenlive/proxy/89cdce7ef819eaf838d8013a6134651f.mkv</property>
  <property name="kdenlive:originalurl">video/PerfectGraph/1.mp4</property>
  <property name="global_feed">1</property>
  <property name="meta.media.nb_streams">1</property>
  <property name="meta.media.0.stream.type">video</property>
  <property name="meta.media.0.stream.frame_rate">60</property>
  <property name="meta.media.0.stream.sample_aspect_ratio">0</property>
  <property name="meta.media.0.codec.width">640</property>
  <property name="meta.media.0.codec.height">360</property>
  <property name="meta.media.0.codec.rotate">0</property>
  <property name="meta.media.0.codec.frame_rate">60</property>
  <property name="meta.media.0.codec.pix_fmt">yuv420p</property>
  <property name="meta.media.0.codec.sample_aspect_ratio">0</property>
  <property name="meta.media.0.codec.colorspace">601</property>
  <property name="meta.media.0.codec.name">h264</property>
  <property name="meta.media.0.codec.long_name">H.264 / AVC / MPEG-4 AVC / MPEG-4 part 10</property>
  <property name="meta.media.0.codec.bit_rate">0</property>
  <property name="meta.attr.0.stream.HANDLER_NAME.markup">VideoHandler</property>
  <property name="meta.attr.0.stream.VENDOR_ID.markup">[0][0][0][0]</property>
  <property name="meta.attr.0.stream.ENCODER.markup">Lavc58.134.100 libx264</property>
  <property name="meta.attr.0.stream.DURATION.markup">00:00:01.000000000</property>
  <property name="meta.attr.COMMENT.markup">Rendered with Manim Community v0.6.0</property>
  <property name="meta.attr.MAJOR_BRAND.markup">isom</property>
  <property name="meta.attr.MINOR_VERSION.markup">512</property>
  <property name="meta.attr.COMPATIBLE_BRANDS.markup">isomiso2avc1mp41</property>
  <property name="meta.attr.ENCODER.markup">Lavf58.76.100</property>
  <property name="meta.media.sample_aspect_num">1</property>
  <property name="meta.media.sample_aspect_den">1</property>
  <property name="meta.media.frame_rate_num">60</property>
  <property name="meta.media.frame_rate_den">1</property>
  <property name="meta.media.colorspace">601</property>
  <property name="meta.media.color_trc">2</property>
  <property name="meta.media.width">640</property>
  <property name="meta.media.height">360</property>
  <property name="meta.media.color_range">mpeg</property>
  <property name="meta.media.top_field_first">0</property>
  <property name="meta.media.progressive">1</property>
  <property name="kdenlive:original.mlt_type">producer</property>
  <property name="kdenlive:original.in">0</property>
  <property name="kdenlive:original.out">59</property>
  <property name="kdenlive:original.length">60</property>
  <property name="kdenlive:original.eof">pause</property>
  <property name="kdenlive:original.resource">video/PerfectGraph/1.mp4</property>
  <property name="kdenlive:original.meta.media.nb_streams">1</property>
  <property name="kdenlive:original.meta.media.0.stream.type">video</property>
  <property name="kdenlive:original.meta.media.0.stream.frame_rate">60</property>
  <property name="kdenlive:original.meta.media.0.stream.sample_aspect_ratio">0</property>
  <property name="kdenlive:original.meta.media.0.codec.width">3840</property>
  <property name="kdenlive:original.meta.media.0.codec.height">2160</property>
  <property name="kdenlive:original.meta.media.0.codec.rotate">0</property>
  <property name="kdenlive:original.meta.media.0.codec.frame_rate">60</property>
  <property name="kdenlive:original.meta.media.0.codec.pix_fmt">yuv420p</property>
  <property name="kdenlive:original.meta.media.0.codec.sample_aspect_ratio">0</property>
  <property name="kdenlive:original.meta.media.0.codec.colorspace">709</property>
  <property name="kdenlive:original.meta.media.0.codec.name">h264</property>
  <property name="kdenlive:original.meta.media.0.codec.long_name">H.264 / AVC / MPEG-4 AVC / MPEG-4 part 10</property>
  <property name="kdenlive:original.meta.media.0.codec.bit_rate">506488</property>
  <property name="kdenlive:original.meta.attr.0.stream.handler_name.markup">VideoHandler</property>
  <property name="kdenlive:original.meta.attr.0.stream.vendor_id.markup">[0][0][0][0]</property>
  <property name="kdenlive:original.meta.attr.major_brand.markup">isom</property>
  <property name="kdenlive:original.meta.attr.minor_version.markup">512</property>
  <property name="kdenlive:original.meta.attr.compatible_brands.markup">isomiso2avc1mp41</property>
  <property name="kdenlive:original.meta.attr.encoder.markup">Lavf58.76.100</property>
  <property name="kdenlive:original.meta.attr.comment.markup">Rendered with Manim Community v0.6.0</property>
  <property name="kdenlive:original.seekable">1</property>
  <property name="kdenlive:original.width">3840</property>
  <property name="kdenlive:original.height">2160</property>
  <property name="kdenlive:original.meta.media.sample_aspect_num">1</property>
  <property name="kdenlive:original.meta.media.sample_aspect_den">1</property>
  <property name="kdenlive:original.aspect_ratio">1</property>
  <property name="kdenlive:original.audio_index">-1</property>
  <property name="kdenlive:original.video_index">0</property>
  <property name="kdenlive:original.mute_on_pause">1</property>
  <property name="kdenlive:original.mlt_service">avformat</property>
  <property name="kdenlive:original.meta.media.frame_rate_num">60</property>
  <property name="kdenlive:original.meta.media.frame_rate_den">1</property>
  <property name="kdenlive:original.meta.media.colorspace">709</property>
  <property name="kdenlive:original.meta.media.color_trc">2</property>
  <property name="kdenlive:original.meta.media.width">3840</property>
  <property name="kdenlive:original.meta.media.height">2160</property>
  <property name="kdenlive:original.meta.media.color_range">mpeg</property>
  <property name="kdenlive:original.meta.media.top_field_first">0</property>
  <property name="kdenlive:original.meta.media.progressive">1</property>
  <property name="kdenlive:original.backup">1</property>
 </producer>
 <producer id="producer376" in="00:00:00.000" out="00:00:04.983">
  <property name="length">00:00:05.000</property>
  <property name="eof">pause</property>
  <property name="resource">/home/xiaoxiae/.cache/kdenlive/proxy/96b78c29b8f592109a5793105499b7f5.png</property>
  <property name="ttl">25</property>
  <property name="aspect_ratio">1</property>
  <property name="progressive">1</property>
  <property name="seekable">1</property>
  <property name="meta.media.width">800</property>
  <property name="meta.media.height">450</property>
  <property name="mlt_service">qimage</property>
  <property name="kdenlive:clipname">1.png</property>
  <property name="kdenlive:duration">00:00:05.000</property>
  <property name="kdenlive:folderid">364</property>
  <property name="kdenlive:id">342</property>
  <property name="kdenlive:file_size">78049</property>
  <property name="kdenlive:file_hash">96b78c29b8f592109a5793105499b7f5</property>
  <property name="kdenlive:proxy">/home/xiaoxiae/.cache/kdenlive/proxy/96b78c29b8f592109a5793105499b7f5.png</property>
  <property name="kdenlive:originalurl">video/PerfectGraph/1.png</property>
  <property name="global_feed">1</property>
 </producer>
 <producer id="producer378" in="00:00:00.000" out="00:00:00.983">
  <property name="length">60</property>
  <property name="eof">pause</property>
  <property name="resource">/home/xiaoxiae/.cache/kdenlive/proxy/78b5795f989ba9b24d30333a536bb35b.mkv</property>
  <property name="audio_index">-1</property>
  <property name="video_index">0</property>
  <property name="mute_on_pause">0</property>
  <property name="mlt_service">avformat-novalidate</property>
  <property name="seekable">1</property>
  <property name="aspect_ratio">1</property>
  <property name="kdenlive:clipname">10.mp4</property>
  <property name="kdenlive:folderid">364</property>
  <property name="kdenlive:id">343</property>
  <property name="kdenlive:file_size">141565</property>
  <property name="kdenlive:file_hash">78b5795f989ba9b24d30333a536bb35b</property>
  <property name="kdenlive:proxy">/home/xiaoxiae/.cache/kdenlive/proxy/78b5795f989ba9b24d30333a536bb35b.mkv</property>
  <property name="kdenlive:originalurl">video/PerfectGraph/10.mp4</property>
  <property name="global_feed">1</property>
  <property name="meta.media.nb_streams">1</property>
  <property name="meta.media.0.stream.type">video</property>
  <property name="meta.media.0.stream.frame_rate">60</property>
  <property name="meta.media.0.stream.sample_aspect_ratio">0</property>
  <property name="meta.media.0.codec.width">640</property>
  <property name="meta.media.0.codec.height">360</property>
  <property name="meta.media.0.codec.rotate">0</property>
  <property name="meta.media.0.codec.frame_rate">60</property>
  <property name="meta.media.0.codec.pix_fmt">yuv420p</property>
  <property name="meta.media.0.codec.sample_aspect_ratio">0</property>
  <property name="meta.media.0.codec.colorspace">601</property>
  <property name="meta.media.0.codec.name">h264</property>
  <property name="meta.media.0.codec.long_name">H.264 / AVC / MPEG-4 AVC / MPEG-4 part 10</property>
  <property name="meta.media.0.codec.bit_rate">0</property>
  <property name="meta.attr.0.stream.HANDLER_NAME.markup">VideoHandler</property>
  <property name="meta.attr.0.stream.VENDOR_ID.markup">[0][0][0][0]</property>
  <property name="meta.attr.0.stream.ENCODER.markup">Lavc58.134.100 libx264</property>
  <property name="meta.attr.0.stream.DURATION.markup">00:00:01.000000000</property>
  <property name="meta.attr.COMMENT.markup">Rendered with Manim Community v0.6.0</property>
  <property name="meta.attr.MAJOR_BRAND.markup">isom</property>
  <property name="meta.attr.MINOR_VERSION.markup">512</property>
  <property name="meta.attr.COMPATIBLE_BRANDS.markup">isomiso2avc1mp41</property>
  <property name="meta.attr.ENCODER.markup">Lavf58.76.100</property>
  <property name="meta.media.sample_aspect_num">1</property>
  <property name="meta.media.sample_aspect_den">1</property>
  <property name="meta.media.frame_rate_num">60</property>
  <property name="meta.media.frame_rate_den">1</property>
  <property name="meta.media.colorspace">601</property>
  <property name="meta.media.color_trc">2</property>
  <property name="meta.media.width">640</property>
  <property name="meta.media.height">360</property>
  <property name="meta.media.color_range">mpeg</property>
  <property name="meta.media.top_field_first">0</property>
  <property name="meta.media.progressive">1</property>
  <property name="kdenlive:original.mlt_type">producer</property>
  <property name="kdenlive:original.in">0</property>
  <property name="kdenlive:original.out">59</property>
  <property name="kdenlive:original.length">60</property>
  <property name="kdenlive:original.eof">pause</property>
  <property name="kdenlive:original.resource">video/PerfectGraph/10.mp4</property>
  <property name="kdenlive:original.meta.media.nb_streams">1</property>
  <property name="kdenlive:original.meta.media.0.stream.type">video</property>
  <property name="kdenlive:original.meta.media.0.stream.frame_rate">60</property>
  <property name="kdenlive:original.meta.media.0.stream.sample_aspect_ratio">0</property>
  <property name="kdenlive:original.meta.media.0.codec.width">3840</property>
  <property name="kdenlive:original.meta.media.0.codec.height">2160</property>
  <property name="kdenlive:original.meta.media.0.codec.rotate">0</property>
  <property name="kdenlive:original.meta.media.0.codec.frame_rate">60</property>
  <property name="kdenlive:original.meta.media.0.codec.pix_fmt">yuv420p</property>
  <property name="kdenlive:original.meta.media.0.codec.sample_aspect_ratio">0</property>
  <property name="kdenlive:original.meta.media.0.codec.colorspace">709</property>
  <property name="kdenlive:original.meta.media.0.codec.name">h264</property>
  <property name="kdenlive:original.meta.media.0.codec.long_name">H.264 / AVC / MPEG-4 AVC / MPEG-4 part 10</property>
  <property name="kdenlive:original.meta.media.0.codec.bit_rate">1119472</property>
  <property name="kdenlive:original.meta.attr.0.stream.handler_name.markup">VideoHandler</property>
  <property name="kdenlive:original.meta.attr.0.stream.vendor_id.markup">[0][0][0][0]</property>
  <property name="kdenlive:original.meta.attr.major_brand.markup">isom</property>
  <property name="kdenlive:original.meta.attr.minor_version.markup">512</property>
  <property name="kdenlive:original.meta.attr.compatible_brands.markup">isomiso2avc1mp41</property>
  <property name="kdenlive:original.meta.attr.encoder.markup">Lavf58.76.100</property>
  <property name="kdenlive:original.meta.attr.comment.markup">Rendered with Manim Community v0.6.0</property>
  <property name="kdenlive:original.seekable">1</property>
  <property name="kdenlive:original.width">3840</property>
  <property name="kdenlive:original.height">2160</property>
  <property name="kdenlive:original.meta.media.sample_aspect_num">1</property>
  <property name="kdenlive:original.meta.media.sample_aspect_den">1</property>
  <property name="kdenlive:original.aspect_ratio">1</property>
  <property name="kdenlive:original.audio_index">-1</property>
  <property name="kdenlive:original.video_index">0</property>
  <property name="kdenlive:original.mute_on_pause">1</property>
  <property name="kdenlive:original.mlt_service">avformat</property>
  <property name="kdenlive:original.meta.media.frame_rate_num">60</property>
  <property name="kdenlive:original.meta.media.frame_rate_den">1</property>
  <property name="kdenlive:original.meta.media.colorspace">709</property>
  <property name="kdenlive:original.meta.media.color_trc">2</property>
  <property name="kdenlive:original.meta.media.width">3840</property>
  <property name="kdenlive:original.meta.media.height">2160</property>
  <property name="kdenlive:original.meta.media.color_range">mpeg</property>
  <property name="kdenlive:original.meta.media.top_field_first">0</property>
  <property name="kdenlive:original.meta.media.progressive">1</property>
  <property name="kdenlive:original.backup">1</property>
 </producer>
 <producer id="producer381" in="00:00:00.000" out="00:00:04.983">
  <property name="length">00:00:05.000</property>
  <property name="eof">pause</property>
  <property name="resource">/home/xiaoxiae/.cache/kdenlive/proxy/fa680385542e19e39dd4a91b7fd340a0.png</property>
  <property name="ttl">25</property>
  <property name="aspect_ratio">1</property>
  <property name="progressive">1</property>
  <property name="seekable">1</property>
  <property name="meta.media.width">800</property>
  <property name="meta.media.height">450</property>
  <property name="mlt_service">qimage</property>
  <property name="kdenlive:clipname">10.png</property>
  <property name="kdenlive:duration">00:00:05.000</property>
  <property name="kdenlive:folderid">364</property>
  <property name="kdenlive:id">344</property>
  <property name="kdenlive:file_size">441385</property>
  <property name="kdenlive:file_hash">fa680385542e19e39dd4a91b7fd340a0</property>
  <property name="kdenlive:proxy">/home/xiaoxiae/.cache/kdenlive/proxy/fa680385542e19e39dd4a91b7fd340a0.png</property>
  <property name="kdenlive:originalurl">video/PerfectGraph/10.png</property>
  <property name="global_feed">1</property>
 </producer>
 <producer id="producer380" in="00:00:00.000" out="00:00:00.983">
  <property name="length">60</property>
  <property name="eof">pause</property>
  <property name="resource">/home/xiaoxiae/.cache/kdenlive/proxy/b01e5a63fbbaca750be57ae8cee1ecbd.mkv</property>
  <property name="audio_index">-1</property>
  <property name="video_index">0</property>
  <property name="mute_on_pause">0</property>
  <property name="mlt_service">avformat-novalidate</property>
  <property name="seekable">1</property>
  <property name="aspect_ratio">1</property>
  <property name="kdenlive:clipname">11.mp4</property>
  <property name="kdenlive:folderid">364</property>
  <property name="kdenlive:id">345</property>
  <property name="kdenlive:file_size">113292</property>
  <property name="kdenlive:file_hash">b01e5a63fbbaca750be57ae8cee1ecbd</property>
  <property name="kdenlive:proxy">/home/xiaoxiae/.cache/kdenlive/proxy/b01e5a63fbbaca750be57ae8cee1ecbd.mkv</property>
  <property name="kdenlive:originalurl">video/PerfectGraph/11.mp4</property>
  <property name="global_feed">1</property>
  <property name="meta.media.nb_streams">1</property>
  <property name="meta.media.0.stream.type">video</property>
  <property name="meta.media.0.stream.frame_rate">60</property>
  <property name="meta.media.0.stream.sample_aspect_ratio">0</property>
  <property name="meta.media.0.codec.width">640</property>
  <property name="meta.media.0.codec.height">360</property>
  <property name="meta.media.0.codec.rotate">0</property>
  <property name="meta.media.0.codec.frame_rate">60</property>
  <property name="meta.media.0.codec.pix_fmt">yuv420p</property>
  <property name="meta.media.0.codec.sample_aspect_ratio">0</property>
  <property name="meta.media.0.codec.colorspace">601</property>
  <property name="meta.media.0.codec.name">h264</property>
  <property name="meta.media.0.codec.long_name">H.264 / AVC / MPEG-4 AVC / MPEG-4 part 10</property>
  <property name="meta.media.0.codec.bit_rate">0</property>
  <property name="meta.attr.0.stream.HANDLER_NAME.markup">VideoHandler</property>
  <property name="meta.attr.0.stream.VENDOR_ID.markup">[0][0][0][0]</property>
  <property name="meta.attr.0.stream.ENCODER.markup">Lavc58.134.100 libx264</property>
  <property name="meta.attr.0.stream.DURATION.markup">00:00:01.000000000</property>
  <property name="meta.attr.COMMENT.markup">Rendered with Manim Community v0.6.0</property>
  <property name="meta.attr.MAJOR_BRAND.markup">isom</property>
  <property name="meta.attr.MINOR_VERSION.markup">512</property>
  <property name="meta.attr.COMPATIBLE_BRANDS.markup">isomiso2avc1mp41</property>
  <property name="meta.attr.ENCODER.markup">Lavf58.76.100</property>
  <property name="meta.media.sample_aspect_num">1</property>
  <property name="meta.media.sample_aspect_den">1</property>
  <property name="meta.media.frame_rate_num">60</property>
  <property name="meta.media.frame_rate_den">1</property>
  <property name="meta.media.colorspace">601</property>
  <property name="meta.media.color_trc">2</property>
  <property name="meta.media.width">640</property>
  <property name="meta.media.height">360</property>
  <property name="meta.media.color_range">mpeg</property>
  <property name="meta.media.top_field_first">0</property>
  <property name="meta.media.progressive">1</property>
  <property name="kdenlive:original.mlt_type">producer</property>
  <property name="kdenlive:original.in">0</property>
  <property name="kdenlive:original.out">59</property>
  <property name="kdenlive:original.length">60</property>
  <property name="kdenlive:original.eof">pause</property>
  <property name="kdenlive:original.resource">video/PerfectGraph/11.mp4</property>
  <property name="kdenlive:original.meta.media.nb_streams">1</property>
  <property name="kdenlive:original.meta.media.0.stream.type">video</property>
  <property name="kdenlive:original.meta.media.0.stream.frame_rate">60</property>
  <property name="kdenlive:original.meta.media.0.stream.sample_aspect_ratio">0</property>
  <property name="kdenlive:original.meta.media.0.codec.width">3840</property>
  <property name="kdenlive:original.meta.media.0.codec.height">2160</property>
  <property name="kdenlive:original.meta.media.0.codec.rotate">0</property>
  <property name="kdenlive:original.meta.media.0.codec.frame_rate">60</property>
  <property name="kdenlive:original.meta.media.0.codec.pix_fmt">yuv420p</property>
  <property name="kdenlive:original.meta.media.0.codec.sample_aspect_ratio">0</property>
  <property name="kdenlive:original.meta.media.0.codec.colorspace">709</property>
  <property name="kdenlive:original.meta.media.0.codec.name">h264</property>
  <property name="kdenlive:original.meta.media.0.codec.long_name">H.264 / AVC / MPEG-4 AVC / MPEG-4 part 10</property>
  <property name="kdenlive:original.meta.media.0.codec.bit_rate">893352</property>
  <property name="kdenlive:original.meta.attr.0.stream.handler_name.markup">VideoHandler</property>
  <property name="kdenlive:original.meta.attr.0.stream.vendor_id.markup">[0][0][0][0]</property>
  <property name="kdenlive:original.meta.attr.major_brand.markup">isom</property>
  <property name="kdenlive:original.meta.attr.minor_version.markup">512</property>
  <property name="kdenlive:original.meta.attr.compatible_brands.markup">isomiso2avc1mp41</property>
  <property name="kdenlive:original.meta.attr.encoder.markup">Lavf58.76.100</property>
  <property name="kdenlive:original.meta.attr.comment.markup">Rendered with Manim Community v0.6.0</property>
  <property name="kdenlive:original.seekable">1</property>
  <property name="kdenlive:original.width">3840</property>
  <property name="kdenlive:original.height">2160</property>
  <property name="kdenlive:original.meta.media.sample_aspect_num">1</property>
  <property name="kdenlive:original.meta.media.sample_aspect_den">1</property>
  <property name="kdenlive:original.aspect_ratio">1</property>
  <property name="kdenlive:original.audio_index">-1</property>
  <property name="kdenlive:original.video_index">0</property>
  <property name="kdenlive:original.mute_on_pause">1</property>
  <property name="kdenlive:original.mlt_service">avformat</property>
  <property name="kdenlive:original.meta.media.frame_rate_num">60</property>
  <property name="kdenlive:original.meta.media.frame_rate_den">1</property>
  <property name="kdenlive:original.meta.media.colorspace">709</property>
  <property name="kdenlive:original.meta.media.color_trc">2</property>
  <property name="kdenlive:original.meta.media.width">3840</property>
  <property name="kdenlive:original.meta.media.height">2160</property>
  <property name="kdenlive:original.meta.media.color_range">mpeg</property>
  <property name="kdenlive:original.meta.media.top_field_first">0</property>
  <property name="kdenlive:original.meta.media.progressive">1</property>
  <property name="kdenlive:original.backup">1</property>
 </producer>
 <producer id="producer379" in="00:00:00.000" out="00:00:04.983">
  <property name="length">00:00:05.000</property>
  <property name="eof">pause</property>
  <property name="resource">/home/xiaoxiae/.cache/kdenlive/proxy/6b665121ca7b54a5f5307b69451fd23c.png</property>
  <property name="ttl">25</property>
  <property name="aspect_ratio">1</property>
  <property name="progressive">1</property>
  <property name="seekable">1</property>
  <property name="meta.media.width">800</property>
  <property name="meta.media.height">450</property>
  <property name="mlt_service">qimage</property>
  <property name="kdenlive:clipname">11.png</property>
  <property name="kdenlive:duration">00:00:05.000</property>
  <property name="kdenlive:folderid">364</property>
  <property name="kdenlive:id">346</property>
  <property name="kdenlive:file_size">24337</property>
  <property name="kdenlive:file_hash">6b665121ca7b54a5f5307b69451fd23c</property>
  <property name="kdenlive:proxy">/home/xiaoxiae/.cache/kdenlive/proxy/6b665121ca7b54a5f5307b69451fd23c.png</property>
  <property name="kdenlive:originalurl">video/PerfectGraph/11.png</property>
  <property name="global_feed">1</property>
 </producer>
 <producer id="producer382" in="00:00:00.000" out="00:00:00.983">
  <property name="length">60</property>
  <property name="eof">pause</property>
  <property name="resource">/home/xiaoxiae/.cache/kdenlive/proxy/5c70380c7d57d1257dc0e3013305dcac.mkv</property>
  <property name="audio_index">-1</property>
  <property name="video_index">0</property>
  <property name="mute_on_pause">0</property>
  <property name="mlt_service">avformat-novalidate</property>
  <property name="seekable">1</property>
  <property name="aspect_ratio">1</property>
  <property name="kdenlive:clipname">2.mp4</property>
  <property name="kdenlive:folderid">364</property>
  <property name="kdenlive:id">347</property>
  <property name="kdenlive:file_size">68774</property>
  <property name="kdenlive:file_hash">5c70380c7d57d1257dc0e3013305dcac</property>
  <property name="kdenlive:proxy">/home/xiaoxiae/.cache/kdenlive/proxy/5c70380c7d57d1257dc0e3013305dcac.mkv</property>
  <property name="kdenlive:originalurl">video/PerfectGraph/2.mp4</property>
  <property name="global_feed">1</property>
  <property name="meta.media.nb_streams">1</property>
  <property name="meta.media.0.stream.type">video</property>
  <property name="meta.media.0.stream.frame_rate">60</property>
  <property name="meta.media.0.stream.sample_aspect_ratio">0</property>
  <property name="meta.media.0.codec.width">640</property>
  <property name="meta.media.0.codec.height">360</property>
  <property name="meta.media.0.codec.rotate">0</property>
  <property name="meta.media.0.codec.frame_rate">60</property>
  <property name="meta.media.0.codec.pix_fmt">yuv420p</property>
  <property name="meta.media.0.codec.sample_aspect_ratio">0</property>
  <property name="meta.media.0.codec.colorspace">601</property>
  <property name="meta.media.0.codec.name">h264</property>
  <property name="meta.media.0.codec.long_name">H.264 / AVC / MPEG-4 AVC / MPEG-4 part 10</property>
  <property name="meta.media.0.codec.bit_rate">0</property>
  <property name="meta.attr.0.stream.HANDLER_NAME.markup">VideoHandler</property>
  <property name="meta.attr.0.stream.VENDOR_ID.markup">[0][0][0][0]</property>
  <property name="meta.attr.0.stream.ENCODER.markup">Lavc58.134.100 libx264</property>
  <property name="meta.attr.0.stream.DURATION.markup">00:00:01.000000000</property>
  <property name="meta.attr.COMMENT.markup">Rendered with Manim Community v0.6.0</property>
  <property name="meta.attr.MAJOR_BRAND.markup">isom</property>
  <property name="meta.attr.MINOR_VERSION.markup">512</property>
  <property name="meta.attr.COMPATIBLE_BRANDS.markup">isomiso2avc1mp41</property>
  <property name="meta.attr.ENCODER.markup">Lavf58.76.100</property>
  <property name="meta.media.sample_aspect_num">1</property>
  <property name="meta.media.sample_aspect_den">1</property>
  <property name="meta.media.frame_rate_num">60</property>
  <property name="meta.media.frame_rate_den">1</property>
  <property name="meta.media.colorspace">601</property>
  <property name="meta.media.color_trc">2</property>
  <property name="meta.media.width">640</property>
  <property name="meta.media.height">360</property>
  <property name="meta.media.color_range">mpeg</property>
  <property name="meta.media.top_field_first">0</property>
  <property name="meta.media.progressive">1</property>
  <property name="kdenlive:original.mlt_type">producer</property>
  <property name="kdenlive:original.in">0</property>
  <property name="kdenlive:original.out">59</property>
  <property name="kdenlive:original.length">60</property>
  <property name="kdenlive:original.eof">pause</property>
  <property name="kdenlive:original.resource">video/PerfectGraph/2.mp4</property>
  <property name="kdenlive:original.meta.media.nb_streams">1</property>
  <property name="kdenlive:original.meta.media.0.stream.type">video</property>
  <property name="kdenlive:original.meta.media.0.stream.frame_rate">60</property>
  <property name="kdenlive:original.meta.media.0.stream.sample_aspect_ratio">0</property>
  <property name="kdenlive:original.meta.media.0.codec.width">3840</property>
  <property name="kdenlive:original.meta.media.0.codec.height">2160</property>
  <property name="kdenlive:original.meta.media.0.codec.rotate">0</property>
  <property name="kdenlive:original.meta.media.0.codec.frame_rate">60</property>
  <property name="kdenlive:original.meta.media.0.codec.pix_fmt">yuv420p</property>
  <property name="kdenlive:original.meta.media.0.codec.sample_aspect_ratio">0</property>
  <property name="kdenlive:original.meta.media.0.codec.colorspace">709</property>
  <property name="kdenlive:original.meta.media.0.codec.name">h264</property>
  <property name="kdenlive:original.meta.media.0.codec.long_name">H.264 / AVC / MPEG-4 AVC / MPEG-4 part 10</property>
  <property name="kdenlive:original.meta.media.0.codec.bit_rate">538104</property>
  <property name="kdenlive:original.meta.attr.0.stream.handler_name.markup">VideoHandler</property>
  <property name="kdenlive:original.meta.attr.0.stream.vendor_id.markup">[0][0][0][0]</property>
  <property name="kdenlive:original.meta.attr.major_brand.markup">isom</property>
  <property name="kdenlive:original.meta.attr.minor_version.markup">512</property>
  <property name="kdenlive:original.meta.attr.compatible_brands.markup">isomiso2avc1mp41</property>
  <property name="kdenlive:original.meta.attr.encoder.markup">Lavf58.76.100</property>
  <property name="kdenlive:original.meta.attr.comment.markup">Rendered with Manim Community v0.6.0</property>
  <property name="kdenlive:original.seekable">1</property>
  <property name="kdenlive:original.width">3840</property>
  <property name="kdenlive:original.height">2160</property>
  <property name="kdenlive:original.meta.media.sample_aspect_num">1</property>
  <property name="kdenlive:original.meta.media.sample_aspect_den">1</property>
  <property name="kdenlive:original.aspect_ratio">1</property>
  <property name="kdenlive:original.audio_index">-1</property>
  <property name="kdenlive:original.video_index">0</property>
  <property name="kdenlive:original.mute_on_pause">1</property>
  <property name="kdenlive:original.mlt_service">avformat</property>
  <property name="kdenlive:original.meta.media.frame_rate_num">60</property>
  <property name="kdenlive:original.meta.media.frame_rate_den">1</property>
  <property name="kdenlive:original.meta.media.colorspace">709</property>
  <property name="kdenlive:original.meta.media.color_trc">2</property>
  <property name="kdenlive:original.meta.media.width">3840</property>
  <property name="kdenlive:original.meta.media.height">2160</property>
  <property name="kdenlive:original.meta.media.color_range">mpeg</property>
  <property name="kdenlive:original.meta.media.top_field_first">0</property>
  <property name="kdenlive:original.meta.media.progressive">1</property>
  <property name="kdenlive:original.backup">1</property>
 </producer>
 <producer id="producer377" in="00:00:00.000" out="00:00:04.983">
  <property name="length">00:00:05.000</property>
  <property name="eof">pause</property>
  <property name="resource">/home/xiaoxiae/.cache/kdenlive/proxy/f09ba6f1355a0f9e10700f019ecd8074.png</property>
  <property name="ttl">25</property>
  <property name="aspect_ratio">1</property>
  <property name="progressive">1</property>
  <property name="seekable">1</property>
  <property name="meta.media.width">800</property>
  <property name="meta.media.height">450</property>
  <property name="mlt_service">qimage</property>
  <property name="kdenlive:clipname">2.png</property>
  <property name="kdenlive:duration">00:00:05.000</property>
  <property name="kdenlive:folderid">364</property>
  <property name="kdenlive:id">348</property>
  <property name="kdenlive:file_size">77185</property>
  <property name="kdenlive:file_hash">f09ba6f1355a0f9e10700f019ecd8074</property>
  <property name="kdenlive:proxy">/home/xiaoxiae/.cache/kdenlive/proxy/f09ba6f1355a0f9e10700f019ecd8074.png</property>
  <property name="kdenlive:originalurl">video/PerfectGraph/2.png</property>
  <property name="global_feed">1</property>
 </producer>
 <producer id="producer392" in="00:00:00.000" out="00:00:04.383">
  <property name="length">264</property>
  <property name="eof">pause</property>
  <property name="resource">/home/xiaoxiae/.cache/kdenlive/proxy/6b6f7c866a323ab5821e73a32d3b50ca.mkv</property>
  <property name="audio_index">-1</property>
  <property name="video_index">0</property>
  <property name="mute_on_pause">0</property>
  <property name="mlt_service">avformat-novalidate</property>
  <property name="seekable">1</property>
  <property name="aspect_ratio">1</property>
  <property name="kdenlive:clipname">3.mp4</property>
  <property name="kdenlive:folderid">364</property>
  <property name="kdenlive:id">349</property>
  <property name="kdenlive:file_size">408157</property>
  <property name="kdenlive:file_hash">6b6f7c866a323ab5821e73a32d3b50ca</property>
  <property name="kdenlive:proxy">/home/xiaoxiae/.cache/kdenlive/proxy/6b6f7c866a323ab5821e73a32d3b50ca.mkv</property>
  <property name="kdenlive:originalurl">video/PerfectGraph/3.mp4</property>
  <property name="global_feed">1</property>
  <property name="meta.media.nb_streams">1</property>
  <property name="meta.media.0.stream.type">video</property>
  <property name="meta.media.0.stream.frame_rate">60</property>
  <property name="meta.media.0.stream.sample_aspect_ratio">0</property>
  <property name="meta.media.0.codec.width">640</property>
  <property name="meta.media.0.codec.height">360</property>
  <property name="meta.media.0.codec.rotate">0</property>
  <property name="meta.media.0.codec.frame_rate">60</property>
  <property name="meta.media.0.codec.pix_fmt">yuv420p</property>
  <property name="meta.media.0.codec.sample_aspect_ratio">0</property>
  <property name="meta.media.0.codec.colorspace">601</property>
  <property name="meta.media.0.codec.name">h264</property>
  <property name="meta.media.0.codec.long_name">H.264 / AVC / MPEG-4 AVC / MPEG-4 part 10</property>
  <property name="meta.media.0.codec.bit_rate">0</property>
  <property name="meta.attr.0.stream.HANDLER_NAME.markup">VideoHandler</property>
  <property name="meta.attr.0.stream.VENDOR_ID.markup">[0][0][0][0]</property>
  <property name="meta.attr.0.stream.ENCODER.markup">Lavc58.134.100 libx264</property>
  <property name="meta.attr.0.stream.DURATION.markup">00:00:04.400000000</property>
  <property name="meta.attr.COMMENT.markup">Rendered with Manim Community v0.6.0</property>
  <property name="meta.attr.MAJOR_BRAND.markup">isom</property>
  <property name="meta.attr.MINOR_VERSION.markup">512</property>
  <property name="meta.attr.COMPATIBLE_BRANDS.markup">isomiso2avc1mp41</property>
  <property name="meta.attr.ENCODER.markup">Lavf58.76.100</property>
  <property name="meta.media.sample_aspect_num">1</property>
  <property name="meta.media.sample_aspect_den">1</property>
  <property name="meta.media.frame_rate_num">60</property>
  <property name="meta.media.frame_rate_den">1</property>
  <property name="meta.media.colorspace">601</property>
  <property name="meta.media.color_trc">2</property>
  <property name="meta.media.width">640</property>
  <property name="meta.media.height">360</property>
  <property name="meta.media.color_range">mpeg</property>
  <property name="meta.media.top_field_first">0</property>
  <property name="meta.media.progressive">1</property>
  <property name="kdenlive:original.mlt_type">producer</property>
  <property name="kdenlive:original.in">0</property>
  <property name="kdenlive:original.out">263</property>
  <property name="kdenlive:original.length">264</property>
  <property name="kdenlive:original.eof">pause</property>
  <property name="kdenlive:original.resource">video/PerfectGraph/3.mp4</property>
  <property name="kdenlive:original.meta.media.nb_streams">1</property>
  <property name="kdenlive:original.meta.media.0.stream.type">video</property>
  <property name="kdenlive:original.meta.media.0.stream.frame_rate">60</property>
  <property name="kdenlive:original.meta.media.0.stream.sample_aspect_ratio">0</property>
  <property name="kdenlive:original.meta.media.0.codec.width">3840</property>
  <property name="kdenlive:original.meta.media.0.codec.height">2160</property>
  <property name="kdenlive:original.meta.media.0.codec.rotate">0</property>
  <property name="kdenlive:original.meta.media.0.codec.frame_rate">60</property>
  <property name="kdenlive:original.meta.media.0.codec.pix_fmt">yuv420p</property>
  <property name="kdenlive:original.meta.media.0.codec.sample_aspect_ratio">0</property>
  <property name="kdenlive:original.meta.media.0.codec.colorspace">709</property>
  <property name="kdenlive:original.meta.media.0.codec.name">h264</property>
  <property name="kdenlive:original.meta.media.0.codec.long_name">H.264 / AVC / MPEG-4 AVC / MPEG-4 part 10</property>
  <property name="kdenlive:original.meta.media.0.codec.bit_rate">734680</property>
  <property name="kdenlive:original.meta.attr.0.stream.handler_name.markup">VideoHandler</property>
  <property name="kdenlive:original.meta.attr.0.stream.vendor_id.markup">[0][0][0][0]</property>
  <property name="kdenlive:original.meta.attr.major_brand.markup">isom</property>
  <property name="kdenlive:original.meta.attr.minor_version.markup">512</property>
  <property name="kdenlive:original.meta.attr.compatible_brands.markup">isomiso2avc1mp41</property>
  <property name="kdenlive:original.meta.attr.encoder.markup">Lavf58.76.100</property>
  <property name="kdenlive:original.meta.attr.comment.markup">Rendered with Manim Community v0.6.0</property>
  <property name="kdenlive:original.seekable">1</property>
  <property name="kdenlive:original.width">3840</property>
  <property name="kdenlive:original.height">2160</property>
  <property name="kdenlive:original.meta.media.sample_aspect_num">1</property>
  <property name="kdenlive:original.meta.media.sample_aspect_den">1</property>
  <property name="kdenlive:original.aspect_ratio">1</property>
  <property name="kdenlive:original.audio_index">-1</property>
  <property name="kdenlive:original.video_index">0</property>
  <property name="kdenlive:original.mute_on_pause">1</property>
  <property name="kdenlive:original.mlt_service">avformat</property>
  <property name="kdenlive:original.meta.media.frame_rate_num">60</property>
  <property name="kdenlive:original.meta.media.frame_rate_den">1</property>
  <property name="kdenlive:original.meta.media.colorspace">709</property>
  <property name="kdenlive:original.meta.media.color_trc">2</property>
  <property name="kdenlive:original.meta.media.width">3840</property>
  <property name="kdenlive:original.meta.media.height">2160</property>
  <property name="kdenlive:original.meta.media.color_range">mpeg</property>
  <property name="kdenlive:original.meta.media.top_field_first">0</property>
  <property name="kdenlive:original.meta.media.progressive">1</property>
  <property name="kdenlive:original.backup">1</property>
 </producer>
 <producer id="producer384" in="00:00:00.000" out="00:00:04.983">
  <property name="length">00:00:05.000</property>
  <property name="eof">pause</property>
  <property name="resource">/home/xiaoxiae/.cache/kdenlive/proxy/acd643ac10a4095012d112bbdfb59c12.png</property>
  <property name="ttl">25</property>
  <property name="aspect_ratio">1</property>
  <property name="progressive">1</property>
  <property name="seekable">1</property>
  <property name="meta.media.width">800</property>
  <property name="meta.media.height">450</property>
  <property name="mlt_service">qimage</property>
  <property name="kdenlive:clipname">3.png</property>
  <property name="kdenlive:duration">00:00:05.000</property>
  <property name="kdenlive:folderid">364</property>
  <property name="kdenlive:id">350</property>
  <property name="kdenlive:file_size">242436</property>
  <property name="kdenlive:file_hash">acd643ac10a4095012d112bbdfb59c12</property>
  <property name="kdenlive:proxy">/home/xiaoxiae/.cache/kdenlive/proxy/acd643ac10a4095012d112bbdfb59c12.png</property>
  <property name="kdenlive:originalurl">video/PerfectGraph/3.png</property>
  <property name="global_feed">1</property>
 </producer>
 <producer id="producer387" in="00:00:00.000" out="00:00:01.983">
  <property name="length">120</property>
  <property name="eof">pause</property>
  <property name="resource">/home/xiaoxiae/.cache/kdenlive/proxy/e1e16cfbd5dc12f9cc4d0bbdd55eca19.mkv</property>
  <property name="audio_index">-1</property>
  <property name="video_index">0</property>
  <property name="mute_on_pause">0</property>
  <property name="mlt_service">avformat-novalidate</property>
  <property name="seekable">1</property>
  <property name="aspect_ratio">1</property>
  <property name="kdenlive:clipname">4.mp4</property>
  <property name="kdenlive:folderid">364</property>
  <property name="kdenlive:id">351</property>
  <property name="kdenlive:file_size">185032</property>
  <property name="kdenlive:file_hash">e1e16cfbd5dc12f9cc4d0bbdd55eca19</property>
  <property name="kdenlive:proxy">/home/xiaoxiae/.cache/kdenlive/proxy/e1e16cfbd5dc12f9cc4d0bbdd55eca19.mkv</property>
  <property name="kdenlive:originalurl">video/PerfectGraph/4.mp4</property>
  <property name="global_feed">1</property>
  <property name="meta.media.nb_streams">1</property>
  <property name="meta.media.0.stream.type">video</property>
  <property name="meta.media.0.stream.frame_rate">60</property>
  <property name="meta.media.0.stream.sample_aspect_ratio">0</property>
  <property name="meta.media.0.codec.width">640</property>
  <property name="meta.media.0.codec.height">360</property>
  <property name="meta.media.0.codec.rotate">0</property>
  <property name="meta.media.0.codec.frame_rate">60</property>
  <property name="meta.media.0.codec.pix_fmt">yuv420p</property>
  <property name="meta.media.0.codec.sample_aspect_ratio">0</property>
  <property name="meta.media.0.codec.colorspace">601</property>
  <property name="meta.media.0.codec.name">h264</property>
  <property name="meta.media.0.codec.long_name">H.264 / AVC / MPEG-4 AVC / MPEG-4 part 10</property>
  <property name="meta.media.0.codec.bit_rate">0</property>
  <property name="meta.attr.0.stream.HANDLER_NAME.markup">VideoHandler</property>
  <property name="meta.attr.0.stream.VENDOR_ID.markup">[0][0][0][0]</property>
  <property name="meta.attr.0.stream.ENCODER.markup">Lavc58.134.100 libx264</property>
  <property name="meta.attr.0.stream.DURATION.markup">00:00:02.000000000</property>
  <property name="meta.attr.COMMENT.markup">Rendered with Manim Community v0.6.0</property>
  <property name="meta.attr.MAJOR_BRAND.markup">isom</property>
  <property name="meta.attr.MINOR_VERSION.markup">512</property>
  <property name="meta.attr.COMPATIBLE_BRANDS.markup">isomiso2avc1mp41</property>
  <property name="meta.attr.ENCODER.markup">Lavf58.76.100</property>
  <property name="meta.media.sample_aspect_num">1</property>
  <property name="meta.media.sample_aspect_den">1</property>
  <property name="meta.media.frame_rate_num">60</property>
  <property name="meta.media.frame_rate_den">1</property>
  <property name="meta.media.colorspace">601</property>
  <property name="meta.media.color_trc">2</property>
  <property name="meta.media.width">640</property>
  <property name="meta.media.height">360</property>
  <property name="meta.media.color_range">mpeg</property>
  <property name="meta.media.top_field_first">0</property>
  <property name="meta.media.progressive">1</property>
  <property name="kdenlive:original.mlt_type">producer</property>
  <property name="kdenlive:original.in">0</property>
  <property name="kdenlive:original.out">119</property>
  <property name="kdenlive:original.length">120</property>
  <property name="kdenlive:original.eof">pause</property>
  <property name="kdenlive:original.resource">video/PerfectGraph/4.mp4</property>
  <property name="kdenlive:original.meta.media.nb_streams">1</property>
  <property name="kdenlive:original.meta.media.0.stream.type">video</property>
  <property name="kdenlive:original.meta.media.0.stream.frame_rate">60</property>
  <property name="kdenlive:original.meta.media.0.stream.sample_aspect_ratio">0</property>
  <property name="kdenlive:original.meta.media.0.codec.width">3840</property>
  <property name="kdenlive:original.meta.media.0.codec.height">2160</property>
  <property name="kdenlive:original.meta.media.0.codec.rotate">0</property>
  <property name="kdenlive:original.meta.media.0.codec.frame_rate">60</property>
  <property name="kdenlive:original.meta.media.0.codec.pix_fmt">yuv420p</property>
  <property name="kdenlive:original.meta.media.0.codec.sample_aspect_ratio">0</property>
  <property name="kdenlive:original.meta.media.0.codec.colorspace">709</property>
  <property name="kdenlive:original.meta.media.0.codec.name">h264</property>
  <property name="kdenlive:original.meta.media.0.codec.long_name">H.264 / AVC / MPEG-4 AVC / MPEG-4 part 10</property>
  <property name="kdenlive:original.meta.media.0.codec.bit_rate">730724</property>
  <property name="kdenlive:original.meta.attr.0.stream.handler_name.markup">VideoHandler</property>
  <property name="kdenlive:original.meta.attr.0.stream.vendor_id.markup">[0][0][0][0]</property>
  <property name="kdenlive:original.meta.attr.major_brand.markup">isom</property>
  <property name="kdenlive:original.meta.attr.minor_version.markup">512</property>
  <property name="kdenlive:original.meta.attr.compatible_brands.markup">isomiso2avc1mp41</property>
  <property name="kdenlive:original.meta.attr.encoder.markup">Lavf58.76.100</property>
  <property name="kdenlive:original.meta.attr.comment.markup">Rendered with Manim Community v0.6.0</property>
  <property name="kdenlive:original.seekable">1</property>
  <property name="kdenlive:original.width">3840</property>
  <property name="kdenlive:original.height">2160</property>
  <property name="kdenlive:original.meta.media.sample_aspect_num">1</property>
  <property name="kdenlive:original.meta.media.sample_aspect_den">1</property>
  <property name="kdenlive:original.aspect_ratio">1</property>
  <property name="kdenlive:original.audio_index">-1</property>
  <property name="kdenlive:original.video_index">0</property>
  <property name="kdenlive:original.mute_on_pause">1</property>
  <property name="kdenlive:original.mlt_service">avformat</property>
  <property name="kdenlive:original.meta.media.frame_rate_num">60</property>
  <property name="kdenlive:original.meta.media.frame_rate_den">1</property>
  <property name="kdenlive:original.meta.media.colorspace">709</property>
  <property name="kdenlive:original.meta.media.color_trc">2</property>
  <property name="kdenlive:original.meta.media.width">3840</property>
  <property name="kdenlive:original.meta.media.height">2160</property>
  <property name="kdenlive:original.meta.media.color_range">mpeg</property>
  <property name="kdenlive:original.meta.media.top_field_first">0</property>
  <property name="kdenlive:original.meta.media.progressive">1</property>
  <property name="kdenlive:original.backup">1</property>
 </producer>
 <producer id="producer385" in="00:00:00.000" out="00:00:04.983">
  <property name="length">00:00:05.000</property>
  <property name="eof">pause</property>
  <property name="resource">/home/xiaoxiae/.cache/kdenlive/proxy/cff81046ee47514ccdc580eab36d4fb2.png</property>
  <property name="ttl">25</property>
  <property name="aspect_ratio">1</property>
  <property name="progressive">1</property>
  <property name="seekable">1</property>
  <property name="meta.media.width">800</property>
  <property name="meta.media.height">450</property>
  <property name="mlt_service">qimage</property>
  <property name="kdenlive:clipname">4.png</property>
  <property name="kdenlive:duration">00:00:05.000</property>
  <property name="kdenlive:folderid">364</property>
  <property name="kdenlive:id">352</property>
  <property name="kdenlive:file_size">401148</property>
  <property name="kdenlive:file_hash">cff81046ee47514ccdc580eab36d4fb2</property>
  <property name="kdenlive:proxy">/home/xiaoxiae/.cache/kdenlive/proxy/cff81046ee47514ccdc580eab36d4fb2.png</property>
  <property name="kdenlive:originalurl">video/PerfectGraph/4.png</property>
  <property name="global_feed">1</property>
 </producer>
 <producer id="producer383" in="00:00:00.000" out="00:00:00.983">
  <property name="length">60</property>
  <property name="eof">pause</property>
  <property name="resource">/home/xiaoxiae/.cache/kdenlive/proxy/1e96761aadae1f90337f89a68034d317.mkv</property>
  <property name="audio_index">-1</property>
  <property name="video_index">0</property>
  <property name="mute_on_pause">0</property>
  <property name="mlt_service">avformat-novalidate</property>
  <property name="seekable">1</property>
  <property name="aspect_ratio">1</property>
  <property name="kdenlive:clipname">5.mp4</property>
  <property name="kdenlive:folderid">364</property>
  <property name="kdenlive:id">353</property>
  <property name="kdenlive:file_size">158452</property>
  <property name="kdenlive:file_hash">1e96761aadae1f90337f89a68034d317</property>
  <property name="kdenlive:proxy">/home/xiaoxiae/.cache/kdenlive/proxy/1e96761aadae1f90337f89a68034d317.mkv</property>
  <property name="kdenlive:originalurl">video/PerfectGraph/5.mp4</property>
  <property name="global_feed">1</property>
  <property name="meta.media.nb_streams">1</property>
  <property name="meta.media.0.stream.type">video</property>
  <property name="meta.media.0.stream.frame_rate">60</property>
  <property name="meta.media.0.stream.sample_aspect_ratio">0</property>
  <property name="meta.media.0.codec.width">640</property>
  <property name="meta.media.0.codec.height">360</property>
  <property name="meta.media.0.codec.rotate">0</property>
  <property name="meta.media.0.codec.frame_rate">60</property>
  <property name="meta.media.0.codec.pix_fmt">yuv420p</property>
  <property name="meta.media.0.codec.sample_aspect_ratio">0</property>
  <property name="meta.media.0.codec.colorspace">601</property>
  <property name="meta.media.0.codec.name">h264</property>
  <property name="meta.media.0.codec.long_name">H.264 / AVC / MPEG-4 AVC / MPEG-4 part 10</property>
  <property name="meta.media.0.codec.bit_rate">0</property>
  <property name="meta.attr.0.stream.HANDLER_NAME.markup">VideoHandler</property>
  <property name="meta.attr.0.stream.VENDOR_ID.markup">[0][0][0][0]</property>
  <property name="meta.attr.0.stream.ENCODER.markup">Lavc58.134.100 libx264</property>
  <property name="meta.attr.0.stream.DURATION.markup">00:00:01.000000000</property>
  <property name="meta.attr.COMMENT.markup">Rendered with Manim Community v0.6.0</property>
  <property name="meta.attr.MAJOR_BRAND.markup">isom</property>
  <property name="meta.attr.MINOR_VERSION.markup">512</property>
  <property name="meta.attr.COMPATIBLE_BRANDS.markup">isomiso2avc1mp41</property>
  <property name="meta.attr.ENCODER.markup">Lavf58.76.100</property>
  <property name="meta.media.sample_aspect_num">1</property>
  <property name="meta.media.sample_aspect_den">1</property>
  <property name="meta.media.frame_rate_num">60</property>
  <property name="meta.media.frame_rate_den">1</property>
  <property name="meta.media.colorspace">601</property>
  <property name="meta.media.color_trc">2</property>
  <property name="meta.media.width">640</property>
  <property name="meta.media.height">360</property>
  <property name="meta.media.color_range">mpeg</property>
  <property name="meta.media.top_field_first">0</property>
  <property name="meta.media.progressive">1</property>
  <property name="kdenlive:original.mlt_type">producer</property>
  <property name="kdenlive:original.in">0</property>
  <property name="kdenlive:original.out">59</property>
  <property name="kdenlive:original.length">60</property>
  <property name="kdenlive:original.eof">pause</property>
  <property name="kdenlive:original.resource">video/PerfectGraph/5.mp4</property>
  <property name="kdenlive:original.meta.media.nb_streams">1</property>
  <property name="kdenlive:original.meta.media.0.stream.type">video</property>
  <property name="kdenlive:original.meta.media.0.stream.frame_rate">60</property>
  <property name="kdenlive:original.meta.media.0.stream.sample_aspect_ratio">0</property>
  <property name="kdenlive:original.meta.media.0.codec.width">3840</property>
  <property name="kdenlive:original.meta.media.0.codec.height">2160</property>
  <property name="kdenlive:original.meta.media.0.codec.rotate">0</property>
  <property name="kdenlive:original.meta.media.0.codec.frame_rate">60</property>
  <property name="kdenlive:original.meta.media.0.codec.pix_fmt">yuv420p</property>
  <property name="kdenlive:original.meta.media.0.codec.sample_aspect_ratio">0</property>
  <property name="kdenlive:original.meta.media.0.codec.colorspace">709</property>
  <property name="kdenlive:original.meta.media.0.codec.name">h264</property>
  <property name="kdenlive:original.meta.media.0.codec.long_name">H.264 / AVC / MPEG-4 AVC / MPEG-4 part 10</property>
  <property name="kdenlive:original.meta.media.0.codec.bit_rate">1254568</property>
  <property name="kdenlive:original.meta.attr.0.stream.handler_name.markup">VideoHandler</property>
  <property name="kdenlive:original.meta.attr.0.stream.vendor_id.markup">[0][0][0][0]</property>
  <property name="kdenlive:original.meta.attr.major_brand.markup">isom</property>
  <property name="kdenlive:original.meta.attr.minor_version.markup">512</property>
  <property name="kdenlive:original.meta.attr.compatible_brands.markup">isomiso2avc1mp41</property>
  <property name="kdenlive:original.meta.attr.encoder.markup">Lavf58.76.100</property>
  <property name="kdenlive:original.meta.attr.comment.markup">Rendered with Manim Community v0.6.0</property>
  <property name="kdenlive:original.seekable">1</property>
  <property name="kdenlive:original.width">3840</property>
  <property name="kdenlive:original.height">2160</property>
  <property name="kdenlive:original.meta.media.sample_aspect_num">1</property>
  <property name="kdenlive:original.meta.media.sample_aspect_den">1</property>
  <property name="kdenlive:original.aspect_ratio">1</property>
  <property name="kdenlive:original.audio_index">-1</property>
  <property name="kdenlive:original.video_index">0</property>
  <property name="kdenlive:original.mute_on_pause">1</property>
  <property name="kdenlive:original.mlt_service">avformat</property>
  <property name="kdenlive:original.meta.media.frame_rate_num">60</property>
  <property name="kdenlive:original.meta.media.frame_rate_den">1</property>
  <property name="kdenlive:original.meta.media.colorspace">709</property>
  <property name="kdenlive:original.meta.media.color_trc">2</property>
  <property name="kdenlive:original.meta.media.width">3840</property>
  <property name="kdenlive:original.meta.media.height">2160</property>
  <property name="kdenlive:original.meta.media.color_range">mpeg</property>
  <property name="kdenlive:original.meta.media.top_field_first">0</property>
  <property name="kdenlive:original.meta.media.progressive">1</property>
  <property name="kdenlive:original.backup">1</property>
 </producer>
 <producer id="producer388" in="00:00:00.000" out="00:00:04.983">
  <property name="length">00:00:05.000</property>
  <property name="eof">pause</property>
  <property name="resource">/home/xiaoxiae/.cache/kdenlive/proxy/16477135f2db6018b0bfb7b48d511acc.png</property>
  <property name="ttl">25</property>
  <property name="aspect_ratio">1</property>
  <property name="progressive">1</property>
  <property name="seekable">1</property>
  <property name="meta.media.width">800</property>
  <property name="meta.media.height">450</property>
  <property name="mlt_service">qimage</property>
  <property name="kdenlive:clipname">5.png</property>
  <property name="kdenlive:duration">00:00:05.000</property>
  <property name="kdenlive:folderid">364</property>
  <property name="kdenlive:id">354</property>
  <property name="kdenlive:file_size">392538</property>
  <property name="kdenlive:file_hash">16477135f2db6018b0bfb7b48d511acc</property>
  <property name="kdenlive:proxy">/home/xiaoxiae/.cache/kdenlive/proxy/16477135f2db6018b0bfb7b48d511acc.png</property>
  <property name="kdenlive:originalurl">video/PerfectGraph/5.png</property>
  <property name="global_feed">1</property>
 </producer>
 <producer id="producer386" in="00:00:00.000" out="00:00:00.983">
  <property name="length">60</property>
  <property name="eof">pause</property>
  <property name="resource">/home/xiaoxiae/.cache/kdenlive/proxy/dd43c6b8ce0e69badeae7060d1c20166.mkv</property>
  <property name="audio_index">-1</property>
  <property name="video_index">0</property>
  <property name="mute_on_pause">0</property>
  <property name="mlt_service">avformat-novalidate</property>
  <property name="seekable">1</property>
  <property name="aspect_ratio">1</property>
  <property name="kdenlive:clipname">6.mp4</property>
  <property name="kdenlive:folderid">364</property>
  <property name="kdenlive:id">355</property>
  <property name="kdenlive:file_size">150314</property>
  <property name="kdenlive:file_hash">dd43c6b8ce0e69badeae7060d1c20166</property>
  <property name="kdenlive:proxy">/home/xiaoxiae/.cache/kdenlive/proxy/dd43c6b8ce0e69badeae7060d1c20166.mkv</property>
  <property name="kdenlive:originalurl">video/PerfectGraph/6.mp4</property>
  <property name="global_feed">1</property>
  <property name="meta.media.nb_streams">1</property>
  <property name="meta.media.0.stream.type">video</property>
  <property name="meta.media.0.stream.frame_rate">60</property>
  <property name="meta.media.0.stream.sample_aspect_ratio">0</property>
  <property name="meta.media.0.codec.width">640</property>
  <property name="meta.media.0.codec.height">360</property>
  <property name="meta.media.0.codec.rotate">0</property>
  <property name="meta.media.0.codec.frame_rate">60</property>
  <property name="meta.media.0.codec.pix_fmt">yuv420p</property>
  <property name="meta.media.0.codec.sample_aspect_ratio">0</property>
  <property name="meta.media.0.codec.colorspace">601</property>
  <property name="meta.media.0.codec.name">h264</property>
  <property name="meta.media.0.codec.long_name">H.264 / AVC / MPEG-4 AVC / MPEG-4 part 10</property>
  <property name="meta.media.0.codec.bit_rate">0</property>
  <property name="meta.attr.0.stream.HANDLER_NAME.markup">VideoHandler</property>
  <property name="meta.attr.0.stream.VENDOR_ID.markup">[0][0][0][0]</property>
  <property name="meta.attr.0.stream.ENCODER.markup">Lavc58.134.100 libx264</property>
  <property name="meta.attr.0.stream.DURATION.markup">00:00:01.000000000</property>
  <property name="meta.attr.COMMENT.markup">Rendered with Manim Community v0.6.0</property>
  <property name="meta.attr.MAJOR_BRAND.markup">isom</property>
  <property name="meta.attr.MINOR_VERSION.markup">512</property>
  <property name="meta.attr.COMPATIBLE_BRANDS.markup">isomiso2avc1mp41</property>
  <property name="meta.attr.ENCODER.markup">Lavf58.76.100</property>
  <property name="meta.media.sample_aspect_num">1</property>
  <property name="meta.media.sample_aspect_den">1</property>
  <property name="meta.media.frame_rate_num">60</property>
  <property name="meta.media.frame_rate_den">1</property>
  <property name="meta.media.colorspace">601</property>
  <property name="meta.media.color_trc">2</property>
  <property name="meta.media.width">640</property>
  <property name="meta.media.height">360</property>
  <property name="meta.media.color_range">mpeg</property>
  <property name="meta.media.top_field_first">0</property>
  <property name="meta.media.progressive">1</property>
  <property name="kdenlive:original.mlt_type">producer</property>
  <property name="kdenlive:original.in">0</property>
  <property name="kdenlive:original.out">59</property>
  <property name="kdenlive:original.length">60</property>
  <property name="kdenlive:original.eof">pause</property>
  <property name="kdenlive:original.resource">video/PerfectGraph/6.mp4</property>
  <property name="kdenlive:original.meta.media.nb_streams">1</property>
  <property name="kdenlive:original.meta.media.0.stream.type">video</property>
  <property name="kdenlive:original.meta.media.0.stream.frame_rate">60</property>
  <property name="kdenlive:original.meta.media.0.stream.sample_aspect_ratio">0</property>
  <property name="kdenlive:original.meta.media.0.codec.width">3840</property>
  <property name="kdenlive:original.meta.media.0.codec.height">2160</property>
  <property name="kdenlive:original.meta.media.0.codec.rotate">0</property>
  <property name="kdenlive:original.meta.media.0.codec.frame_rate">60</property>
  <property name="kdenlive:original.meta.media.0.codec.pix_fmt">yuv420p</property>
  <property name="kdenlive:original.meta.media.0.codec.sample_aspect_ratio">0</property>
  <property name="kdenlive:original.meta.media.0.codec.colorspace">709</property>
  <property name="kdenlive:original.meta.media.0.codec.name">h264</property>
  <property name="kdenlive:original.meta.media.0.codec.long_name">H.264 / AVC / MPEG-4 AVC / MPEG-4 part 10</property>
  <property name="kdenlive:original.meta.media.0.codec.bit_rate">1189464</property>
  <property name="kdenlive:original.meta.attr.0.stream.handler_name.markup">VideoHandler</property>
  <property name="kdenlive:original.meta.attr.0.stream.vendor_id.markup">[0][0][0][0]</property>
  <property name="kdenlive:original.meta.attr.major_brand.markup">isom</property>
  <property name="kdenlive:original.meta.attr.minor_version.markup">512</property>
  <property name="kdenlive:original.meta.attr.compatible_brands.markup">isomiso2avc1mp41</property>
  <property name="kdenlive:original.meta.attr.encoder.markup">Lavf58.76.100</property>
  <property name="kdenlive:original.meta.attr.comment.markup">Rendered with Manim Community v0.6.0</property>
  <property name="kdenlive:original.seekable">1</property>
  <property name="kdenlive:original.width">3840</property>
  <property name="kdenlive:original.height">2160</property>
  <property name="kdenlive:original.meta.media.sample_aspect_num">1</property>
  <property name="kdenlive:original.meta.media.sample_aspect_den">1</property>
  <property name="kdenlive:original.aspect_ratio">1</property>
  <property name="kdenlive:original.audio_index">-1</property>
  <property name="kdenlive:original.video_index">0</property>
  <property name="kdenlive:original.mute_on_pause">1</property>
  <property name="kdenlive:original.mlt_service">avformat</property>
  <property name="kdenlive:original.meta.media.frame_rate_num">60</property>
  <property name="kdenlive:original.meta.media.frame_rate_den">1</property>
  <property name="kdenlive:original.meta.media.colorspace">709</property>
  <property name="kdenlive:original.meta.media.color_trc">2</property>
  <property name="kdenlive:original.meta.media.width">3840</property>
  <property name="kdenlive:original.meta.media.height">2160</property>
  <property name="kdenlive:original.meta.media.color_range">mpeg</property>
  <property name="kdenlive:original.meta.media.top_field_first">0</property>
  <property name="kdenlive:original.meta.media.progressive">1</property>
  <property name="kdenlive:original.backup">1</property>
 </producer>
 <producer id="producer390" in="00:00:00.000" out="00:00:04.983">
  <property name="length">00:00:05.000</property>
  <property name="eof">pause</property>
  <property name="resource">/home/xiaoxiae/.cache/kdenlive/proxy/1e6336d44d0710954a73b51d539f16be.png</property>
  <property name="ttl">25</property>
  <property name="aspect_ratio">1</property>
  <property name="progressive">1</property>
  <property name="seekable">1</property>
  <property name="meta.media.width">800</property>
  <property name="meta.media.height">450</property>
  <property name="mlt_service">qimage</property>
  <property name="kdenlive:clipname">6.png</property>
  <property name="kdenlive:duration">00:00:05.000</property>
  <property name="kdenlive:folderid">364</property>
  <property name="kdenlive:id">356</property>
  <property name="kdenlive:file_size">461357</property>
  <property name="kdenlive:file_hash">1e6336d44d0710954a73b51d539f16be</property>
  <property name="kdenlive:proxy">/home/xiaoxiae/.cache/kdenlive/proxy/1e6336d44d0710954a73b51d539f16be.png</property>
  <property name="kdenlive:originalurl">video/PerfectGraph/6.png</property>
  <property name="global_feed">1</property>
 </producer>
 <producer id="producer391" in="00:00:00.000" out="00:00:00.983">
  <property name="length">60</property>
  <property name="eof">pause</property>
  <property name="resource">/home/xiaoxiae/.cache/kdenlive/proxy/bd27b6f6f3d5aede684874e0160164c2.mkv</property>
  <property name="audio_index">-1</property>
  <property name="video_index">0</property>
  <property name="mute_on_pause">0</property>
  <property name="mlt_service">avformat-novalidate</property>
  <property name="seekable">1</property>
  <property name="aspect_ratio">1</property>
  <property name="kdenlive:clipname">7.mp4</property>
  <property name="kdenlive:folderid">364</property>
  <property name="kdenlive:id">357</property>
  <property name="kdenlive:file_size">173692</property>
  <property name="kdenlive:file_hash">bd27b6f6f3d5aede684874e0160164c2</property>
  <property name="kdenlive:proxy">/home/xiaoxiae/.cache/kdenlive/proxy/bd27b6f6f3d5aede684874e0160164c2.mkv</property>
  <property name="kdenlive:originalurl">video/PerfectGraph/7.mp4</property>
  <property name="global_feed">1</property>
  <property name="meta.media.nb_streams">1</property>
  <property name="meta.media.0.stream.type">video</property>
  <property name="meta.media.0.stream.frame_rate">60</property>
  <property name="meta.media.0.stream.sample_aspect_ratio">0</property>
  <property name="meta.media.0.codec.width">640</property>
  <property name="meta.media.0.codec.height">360</property>
  <property name="meta.media.0.codec.rotate">0</property>
  <property name="meta.media.0.codec.frame_rate">60</property>
  <property name="meta.media.0.codec.pix_fmt">yuv420p</property>
  <property name="meta.media.0.codec.sample_aspect_ratio">0</property>
  <property name="meta.media.0.codec.colorspace">601</property>
  <property name="meta.media.0.codec.name">h264</property>
  <property name="meta.media.0.codec.long_name">H.264 / AVC / MPEG-4 AVC / MPEG-4 part 10</property>
  <property name="meta.media.0.codec.bit_rate">0</property>
  <property name="meta.attr.0.stream.HANDLER_NAME.markup">VideoHandler</property>
  <property name="meta.attr.0.stream.VENDOR_ID.markup">[0][0][0][0]</property>
  <property name="meta.attr.0.stream.ENCODER.markup">Lavc58.134.100 libx264</property>
  <property name="meta.attr.0.stream.DURATION.markup">00:00:01.000000000</property>
  <property name="meta.attr.COMMENT.markup">Rendered with Manim Community v0.6.0</property>
  <property name="meta.attr.MAJOR_BRAND.markup">isom</property>
  <property name="meta.attr.MINOR_VERSION.markup">512</property>
  <property name="meta.attr.COMPATIBLE_BRANDS.markup">isomiso2avc1mp41</property>
  <property name="meta.attr.ENCODER.markup">Lavf58.76.100</property>
  <property name="meta.media.sample_aspect_num">1</property>
  <property name="meta.media.sample_aspect_den">1</property>
  <property name="meta.media.frame_rate_num">60</property>
  <property name="meta.media.frame_rate_den">1</property>
  <property name="meta.media.colorspace">601</property>
  <property name="meta.media.color_trc">2</property>
  <property name="meta.media.width">640</property>
  <property name="meta.media.height">360</property>
  <property name="meta.media.color_range">mpeg</property>
  <property name="meta.media.top_field_first">0</property>
  <property name="meta.media.progressive">1</property>
  <property name="kdenlive:original.mlt_type">producer</property>
  <property name="kdenlive:original.in">0</property>
  <property name="kdenlive:original.out">59</property>
  <property name="kdenlive:original.length">60</property>
  <property name="kdenlive:original.eof">pause</property>
  <property name="kdenlive:original.resource">video/PerfectGraph/7.mp4</property>
  <property name="kdenlive:original.meta.media.nb_streams">1</property>
  <property name="kdenlive:original.meta.media.0.stream.type">video</property>
  <property name="kdenlive:original.meta.media.0.stream.frame_rate">60</property>
  <property name="kdenlive:original.meta.media.0.stream.sample_aspect_ratio">0</property>
  <property name="kdenlive:original.meta.media.0.codec.width">3840</property>
  <property name="kdenlive:original.meta.media.0.codec.height">2160</property>
  <property name="kdenlive:original.meta.media.0.codec.rotate">0</property>
  <property name="kdenlive:original.meta.media.0.codec.frame_rate">60</property>
  <property name="kdenlive:original.meta.media.0.codec.pix_fmt">yuv420p</property>
  <property name="kdenlive:original.meta.media.0.codec.sample_aspect_ratio">0</property>
  <property name="kdenlive:original.meta.media.0.codec.colorspace">709</property>
  <property name="kdenlive:original.meta.media.0.codec.name">h264</property>
  <property name="kdenlive:original.meta.media.0.codec.long_name">H.264 / AVC / MPEG-4 AVC / MPEG-4 part 10</property>
  <property name="kdenlive:original.meta.media.0.codec.bit_rate">1376488</property>
  <property name="kdenlive:original.meta.attr.0.stream.handler_name.markup">VideoHandler</property>
  <property name="kdenlive:original.meta.attr.0.stream.vendor_id.markup">[0][0][0][0]</property>
  <property name="kdenlive:original.meta.attr.major_brand.markup">isom</property>
  <property name="kdenlive:original.meta.attr.minor_version.markup">512</property>
  <property name="kdenlive:original.meta.attr.compatible_brands.markup">isomiso2avc1mp41</property>
  <property name="kdenlive:original.meta.attr.encoder.markup">Lavf58.76.100</property>
  <property name="kdenlive:original.meta.attr.comment.markup">Rendered with Manim Community v0.6.0</property>
  <property name="kdenlive:original.seekable">1</property>
  <property name="kdenlive:original.width">3840</property>
  <property name="kdenlive:original.height">2160</property>
  <property name="kdenlive:original.meta.media.sample_aspect_num">1</property>
  <property name="kdenlive:original.meta.media.sample_aspect_den">1</property>
  <property name="kdenlive:original.aspect_ratio">1</property>
  <property name="kdenlive:original.audio_index">-1</property>
  <property name="kdenlive:original.video_index">0</property>
  <property name="kdenlive:original.mute_on_pause">1</property>
  <property name="kdenlive:original.mlt_service">avformat</property>
  <property name="kdenlive:original.meta.media.frame_rate_num">60</property>
  <property name="kdenlive:original.meta.media.frame_rate_den">1</property>
  <property name="kdenlive:original.meta.media.colorspace">709</property>
  <property name="kdenlive:original.meta.media.color_trc">2</property>
  <property name="kdenlive:original.meta.media.width">3840</property>
  <property name="kdenlive:original.meta.media.height">2160</property>
  <property name="kdenlive:original.meta.media.color_range">mpeg</property>
  <property name="kdenlive:original.meta.media.top_field_first">0</property>
  <property name="kdenlive:original.meta.media.progressive">1</property>
  <property name="kdenlive:original.backup">1</property>
 </producer>
 <producer id="producer389" in="00:00:00.000" out="00:00:04.983">
  <property name="length">00:00:05.000</property>
  <property name="eof">pause</property>
  <property name="resource">/home/xiaoxiae/.cache/kdenlive/proxy/652eee792a7c1f6acbce31f28780ab57.png</property>
  <property name="ttl">25</property>
  <property name="aspect_ratio">1</property>
  <property name="progressive">1</property>
  <property name="seekable">1</property>
  <property name="meta.media.width">800</property>
  <property name="meta.media.height">450</property>
  <property name="mlt_service">qimage</property>
  <property name="kdenlive:clipname">7.png</property>
  <property name="kdenlive:duration">00:00:05.000</property>
  <property name="kdenlive:folderid">364</property>
  <property name="kdenlive:id">358</property>
  <property name="kdenlive:file_size">500545</property>
  <property name="kdenlive:file_hash">652eee792a7c1f6acbce31f28780ab57</property>
  <property name="kdenlive:proxy">/home/xiaoxiae/.cache/kdenlive/proxy/652eee792a7c1f6acbce31f28780ab57.png</property>
  <property name="kdenlive:originalurl">video/PerfectGraph/7.png</property>
  <property name="global_feed">1</property>
 </producer>
 <producer id="producer393" in="00:00:00.000" out="00:00:00.983">
  <property name="length">60</property>
  <property name="eof">pause</property>
  <property name="resource">/home/xiaoxiae/.cache/kdenlive/proxy/7b7087c12f5d8ccfdf4cad9a46857efc.mkv</property>
  <property name="audio_index">-1</property>
  <property name="video_index">0</property>
  <property name="mute_on_pause">0</property>
  <property name="mlt_service">avformat-novalidate</property>
  <property name="seekable">1</property>
  <property name="aspect_ratio">1</property>
  <property name="kdenlive:clipname">8.mp4</property>
  <property name="kdenlive:folderid">364</property>
  <property name="kdenlive:id">359</property>
  <property name="kdenlive:file_size">172834</property>
  <property name="kdenlive:file_hash">7b7087c12f5d8ccfdf4cad9a46857efc</property>
  <property name="kdenlive:proxy">/home/xiaoxiae/.cache/kdenlive/proxy/7b7087c12f5d8ccfdf4cad9a46857efc.mkv</property>
  <property name="kdenlive:originalurl">video/PerfectGraph/8.mp4</property>
  <property name="global_feed">1</property>
  <property name="meta.media.nb_streams">1</property>
  <property name="meta.media.0.stream.type">video</property>
  <property name="meta.media.0.stream.frame_rate">60</property>
  <property name="meta.media.0.stream.sample_aspect_ratio">0</property>
  <property name="meta.media.0.codec.width">640</property>
  <property name="meta.media.0.codec.height">360</property>
  <property name="meta.media.0.codec.rotate">0</property>
  <property name="meta.media.0.codec.frame_rate">60</property>
  <property name="meta.media.0.codec.pix_fmt">yuv420p</property>
  <property name="meta.media.0.codec.sample_aspect_ratio">0</property>
  <property name="meta.media.0.codec.colorspace">601</property>
  <property name="meta.media.0.codec.name">h264</property>
  <property name="meta.media.0.codec.long_name">H.264 / AVC / MPEG-4 AVC / MPEG-4 part 10</property>
  <property name="meta.media.0.codec.bit_rate">0</property>
  <property name="meta.attr.0.stream.HANDLER_NAME.markup">VideoHandler</property>
  <property name="meta.attr.0.stream.VENDOR_ID.markup">[0][0][0][0]</property>
  <property name="meta.attr.0.stream.ENCODER.markup">Lavc58.134.100 libx264</property>
  <property name="meta.attr.0.stream.DURATION.markup">00:00:01.000000000</property>
  <property name="meta.attr.COMMENT.markup">Rendered with Manim Community v0.6.0</property>
  <property name="meta.attr.MAJOR_BRAND.markup">isom</property>
  <property name="meta.attr.MINOR_VERSION.markup">512</property>
  <property name="meta.attr.COMPATIBLE_BRANDS.markup">isomiso2avc1mp41</property>
  <property name="meta.attr.ENCODER.markup">Lavf58.76.100</property>
  <property name="meta.media.sample_aspect_num">1</property>
  <property name="meta.media.sample_aspect_den">1</property>
  <property name="meta.media.frame_rate_num">60</property>
  <property name="meta.media.frame_rate_den">1</property>
  <property name="meta.media.colorspace">601</property>
  <property name="meta.media.color_trc">2</property>
  <property name="meta.media.width">640</property>
  <property name="meta.media.height">360</property>
  <property name="meta.media.color_range">mpeg</property>
  <property name="meta.media.top_field_first">0</property>
  <property name="meta.media.progressive">1</property>
  <property name="kdenlive:original.mlt_type">producer</property>
  <property name="kdenlive:original.in">0</property>
  <property name="kdenlive:original.out">59</property>
  <property name="kdenlive:original.length">60</property>
  <property name="kdenlive:original.eof">pause</property>
  <property name="kdenlive:original.resource">video/PerfectGraph/8.mp4</property>
  <property name="kdenlive:original.meta.media.nb_streams">1</property>
  <property name="kdenlive:original.meta.media.0.stream.type">video</property>
  <property name="kdenlive:original.meta.media.0.stream.frame_rate">60</property>
  <property name="kdenlive:original.meta.media.0.stream.sample_aspect_ratio">0</property>
  <property name="kdenlive:original.meta.media.0.codec.width">3840</property>
  <property name="kdenlive:original.meta.media.0.codec.height">2160</property>
  <property name="kdenlive:original.meta.media.0.codec.rotate">0</property>
  <property name="kdenlive:original.meta.media.0.codec.frame_rate">60</property>
  <property name="kdenlive:original.meta.media.0.codec.pix_fmt">yuv420p</property>
  <property name="kdenlive:original.meta.media.0.codec.sample_aspect_ratio">0</property>
  <property name="kdenlive:original.meta.media.0.codec.colorspace">709</property>
  <property name="kdenlive:original.meta.media.0.codec.name">h264</property>
  <property name="kdenlive:original.meta.media.0.codec.long_name">H.264 / AVC / MPEG-4 AVC / MPEG-4 part 10</property>
  <property name="kdenlive:original.meta.media.0.codec.bit_rate">1369624</property>
  <property name="kdenlive:original.meta.attr.0.stream.handler_name.markup">VideoHandler</property>
  <property name="kdenlive:original.meta.attr.0.stream.vendor_id.markup">[0][0][0][0]</property>
  <property name="kdenlive:original.meta.attr.major_brand.markup">isom</property>
  <property name="kdenlive:original.meta.attr.minor_version.markup">512</property>
  <property name="kdenlive:original.meta.attr.compatible_brands.markup">isomiso2avc1mp41</property>
  <property name="kdenlive:original.meta.attr.encoder.markup">Lavf58.76.100</property>
  <property name="kdenlive:original.meta.attr.comment.markup">Rendered with Manim Community v0.6.0</property>
  <property name="kdenlive:original.seekable">1</property>
  <property name="kdenlive:original.width">3840</property>
  <property name="kdenlive:original.height">2160</property>
  <property name="kdenlive:original.meta.media.sample_aspect_num">1</property>
  <property name="kdenlive:original.meta.media.sample_aspect_den">1</property>
  <property name="kdenlive:original.aspect_ratio">1</property>
  <property name="kdenlive:original.audio_index">-1</property>
  <property name="kdenlive:original.video_index">0</property>
  <property name="kdenlive:original.mute_on_pause">1</property>
  <property name="kdenlive:original.mlt_service">avformat</property>
  <property name="kdenlive:original.meta.media.frame_rate_num">60</property>
  <property name="kdenlive:original.meta.media.frame_rate_den">1</property>
  <property name="kdenlive:original.meta.media.colorspace">709</property>
  <property name="kdenlive:original.meta.media.color_trc">2</property>
  <property name="kdenlive:original.meta.media.width">3840</property>
  <property name="kdenlive:original.meta.media.height">2160</property>
  <property name="kdenlive:original.meta.media.color_range">mpeg</property>
  <property name="kdenlive:original.meta.media.top_field_first">0</property>
  <property name="kdenlive:original.meta.media.progressive">1</property>
  <property name="kdenlive:original.backup">1</property>
 </producer>
 <producer id="producer394" in="00:00:00.000" out="00:00:04.983">
  <property name="length">00:00:05.000</property>
  <property name="eof">pause</property>
  <property name="resource">/home/xiaoxiae/.cache/kdenlive/proxy/d10ce61b86af1f1a6e18fd8076def7cc.png</property>
  <property name="ttl">25</property>
  <property name="aspect_ratio">1</property>
  <property name="progressive">1</property>
  <property name="seekable">1</property>
  <property name="meta.media.width">800</property>
  <property name="meta.media.height">450</property>
  <property name="mlt_service">qimage</property>
  <property name="kdenlive:clipname">8.png</property>
  <property name="kdenlive:duration">00:00:05.000</property>
  <property name="kdenlive:folderid">364</property>
  <property name="kdenlive:id">360</property>
  <property name="kdenlive:file_size">429906</property>
  <property name="kdenlive:file_hash">d10ce61b86af1f1a6e18fd8076def7cc</property>
  <property name="kdenlive:proxy">/home/xiaoxiae/.cache/kdenlive/proxy/d10ce61b86af1f1a6e18fd8076def7cc.png</property>
  <property name="kdenlive:originalurl">video/PerfectGraph/8.png</property>
  <property name="global_feed">1</property>
 </producer>
 <producer id="producer395" in="00:00:00.000" out="00:00:00.983">
  <property name="length">60</property>
  <property name="eof">pause</property>
  <property name="resource">/home/xiaoxiae/.cache/kdenlive/proxy/7c288b3341602be957e415e741b02fc2.mkv</property>
  <property name="audio_index">-1</property>
  <property name="video_index">0</property>
  <property name="mute_on_pause">0</property>
  <property name="mlt_service">avformat-novalidate</property>
  <property name="seekable">1</property>
  <property name="aspect_ratio">1</property>
  <property name="kdenlive:clipname">9.mp4</property>
  <property name="kdenlive:folderid">364</property>
  <property name="kdenlive:id">361</property>
  <property name="kdenlive:file_size">130504</property>
  <property name="kdenlive:file_hash">7c288b3341602be957e415e741b02fc2</property>
  <property name="kdenlive:proxy">/home/xiaoxiae/.cache/kdenlive/proxy/7c288b3341602be957e415e741b02fc2.mkv</property>
  <property name="kdenlive:originalurl">video/PerfectGraph/9.mp4</property>
  <property name="global_feed">1</property>
  <property name="meta.media.nb_streams">1</property>
  <property name="meta.media.0.stream.type">video</property>
  <property name="meta.media.0.stream.frame_rate">60</property>
  <property name="meta.media.0.stream.sample_aspect_ratio">0</property>
  <property name="meta.media.0.codec.width">640</property>
  <property name="meta.media.0.codec.height">360</property>
  <property name="meta.media.0.codec.rotate">0</property>
  <property name="meta.media.0.codec.frame_rate">60</property>
  <property name="meta.media.0.codec.pix_fmt">yuv420p</property>
  <property name="meta.media.0.codec.sample_aspect_ratio">0</property>
  <property name="meta.media.0.codec.colorspace">601</property>
  <property name="meta.media.0.codec.name">h264</property>
  <property name="meta.media.0.codec.long_name">H.264 / AVC / MPEG-4 AVC / MPEG-4 part 10</property>
  <property name="meta.media.0.codec.bit_rate">0</property>
  <property name="meta.attr.0.stream.HANDLER_NAME.markup">VideoHandler</property>
  <property name="meta.attr.0.stream.VENDOR_ID.markup">[0][0][0][0]</property>
  <property name="meta.attr.0.stream.ENCODER.markup">Lavc58.134.100 libx264</property>
  <property name="meta.attr.0.stream.DURATION.markup">00:00:01.000000000</property>
  <property name="meta.attr.COMMENT.markup">Rendered with Manim Community v0.6.0</property>
  <property name="meta.attr.MAJOR_BRAND.markup">isom</property>
  <property name="meta.attr.MINOR_VERSION.markup">512</property>
  <property name="meta.attr.COMPATIBLE_BRANDS.markup">isomiso2avc1mp41</property>
  <property name="meta.attr.ENCODER.markup">Lavf58.76.100</property>
  <property name="meta.media.sample_aspect_num">1</property>
  <property name="meta.media.sample_aspect_den">1</property>
  <property name="meta.media.frame_rate_num">60</property>
  <property name="meta.media.frame_rate_den">1</property>
  <property name="meta.media.colorspace">601</property>
  <property name="meta.media.color_trc">2</property>
  <property name="meta.media.width">640</property>
  <property name="meta.media.height">360</property>
  <property name="meta.media.color_range">mpeg</property>
  <property name="meta.media.top_field_first">0</property>
  <property name="meta.media.progressive">1</property>
  <property name="kdenlive:original.mlt_type">producer</property>
  <property name="kdenlive:original.in">0</property>
  <property name="kdenlive:original.out">59</property>
  <property name="kdenlive:original.length">60</property>
  <property name="kdenlive:original.eof">pause</property>
  <property name="kdenlive:original.resource">video/PerfectGraph/9.mp4</property>
  <property name="kdenlive:original.meta.media.nb_streams">1</property>
  <property name="kdenlive:original.meta.media.0.stream.type">video</property>
  <property name="kdenlive:original.meta.media.0.stream.frame_rate">60</property>
  <property name="kdenlive:original.meta.media.0.stream.sample_aspect_ratio">0</property>
  <property name="kdenlive:original.meta.media.0.codec.width">3840</property>
  <property name="kdenlive:original.meta.media.0.codec.height">2160</property>
  <property name="kdenlive:original.meta.media.0.codec.rotate">0</property>
  <property name="kdenlive:original.meta.media.0.codec.frame_rate">60</property>
  <property name="kdenlive:original.meta.media.0.codec.pix_fmt">yuv420p</property>
  <property name="kdenlive:original.meta.media.0.codec.sample_aspect_ratio">0</property>
  <property name="kdenlive:original.meta.media.0.codec.colorspace">709</property>
  <property name="kdenlive:original.meta.media.0.codec.name">h264</property>
  <property name="kdenlive:original.meta.media.0.codec.long_name">H.264 / AVC / MPEG-4 AVC / MPEG-4 part 10</property>
  <property name="kdenlive:original.meta.media.0.codec.bit_rate">1030920</property>
  <property name="kdenlive:original.meta.attr.0.stream.handler_name.markup">VideoHandler</property>
  <property name="kdenlive:original.meta.attr.0.stream.vendor_id.markup">[0][0][0][0]</property>
  <property name="kdenlive:original.meta.attr.major_brand.markup">isom</property>
  <property name="kdenlive:original.meta.attr.minor_version.markup">512</property>
  <property name="kdenlive:original.meta.attr.compatible_brands.markup">isomiso2avc1mp41</property>
  <property name="kdenlive:original.meta.attr.encoder.markup">Lavf58.76.100</property>
  <property name="kdenlive:original.meta.attr.comment.markup">Rendered with Manim Community v0.6.0</property>
  <property name="kdenlive:original.seekable">1</property>
  <property name="kdenlive:original.width">3840</property>
  <property name="kdenlive:original.height">2160</property>
  <property name="kdenlive:original.meta.media.sample_aspect_num">1</property>
  <property name="kdenlive:original.meta.media.sample_aspect_den">1</property>
  <property name="kdenlive:original.aspect_ratio">1</property>
  <property name="kdenlive:original.audio_index">-1</property>
  <property name="kdenlive:original.video_index">0</property>
  <property name="kdenlive:original.mute_on_pause">1</property>
  <property name="kdenlive:original.mlt_service">avformat</property>
  <property name="kdenlive:original.meta.media.frame_rate_num">60</property>
  <property name="kdenlive:original.meta.media.frame_rate_den">1</property>
  <property name="kdenlive:original.meta.media.colorspace">709</property>
  <property name="kdenlive:original.meta.media.color_trc">2</property>
  <property name="kdenlive:original.meta.media.width">3840</property>
  <property name="kdenlive:original.meta.media.height">2160</property>
  <property name="kdenlive:original.meta.media.color_range">mpeg</property>
  <property name="kdenlive:original.meta.media.top_field_first">0</property>
  <property name="kdenlive:original.meta.media.progressive">1</property>
  <property name="kdenlive:original.backup">1</property>
 </producer>
 <producer id="producer398" in="00:00:00.000" out="00:00:04.983">
  <property name="length">00:00:05.000</property>
  <property name="eof">pause</property>
  <property name="resource">/home/xiaoxiae/.cache/kdenlive/proxy/7f36663a622206d35af5f85f0cfccb5a.png</property>
  <property name="ttl">25</property>
  <property name="aspect_ratio">1</property>
  <property name="progressive">1</property>
  <property name="seekable">1</property>
  <property name="meta.media.width">800</property>
  <property name="meta.media.height">450</property>
  <property name="mlt_service">qimage</property>
  <property name="kdenlive:clipname">9.png</property>
  <property name="kdenlive:duration">00:00:05.000</property>
  <property name="kdenlive:folderid">364</property>
  <property name="kdenlive:id">362</property>
  <property name="kdenlive:file_size">425432</property>
  <property name="kdenlive:file_hash">7f36663a622206d35af5f85f0cfccb5a</property>
  <property name="kdenlive:proxy">/home/xiaoxiae/.cache/kdenlive/proxy/7f36663a622206d35af5f85f0cfccb5a.png</property>
  <property name="kdenlive:originalurl">video/PerfectGraph/9.png</property>
  <property name="global_feed">1</property>
 </producer>
 <producer id="producer400" in="00:00:00.000" out="00:00:01.983">
  <property name="length">120</property>
  <property name="eof">pause</property>
  <property name="resource">/home/xiaoxiae/.cache/kdenlive/proxy/bfcb2ac3b817d2ff4f67dcd10b92a01a.mkv</property>
  <property name="audio_index">-1</property>
  <property name="video_index">0</property>
  <property name="mute_on_pause">0</property>
  <property name="mlt_service">avformat-novalidate</property>
  <property name="seekable">1</property>
  <property name="aspect_ratio">1</property>
  <property name="kdenlive:clipname">1.mp4</property>
  <property name="kdenlive:folderid">387</property>
  <property name="kdenlive:id">363</property>
  <property name="kdenlive:file_size">147228</property>
  <property name="kdenlive:file_hash">bfcb2ac3b817d2ff4f67dcd10b92a01a</property>
  <property name="kdenlive:proxy">/home/xiaoxiae/.cache/kdenlive/proxy/bfcb2ac3b817d2ff4f67dcd10b92a01a.mkv</property>
  <property name="kdenlive:originalurl">video/Theorem/1.mp4</property>
  <property name="global_feed">1</property>
  <property name="meta.media.nb_streams">1</property>
  <property name="meta.media.0.stream.type">video</property>
  <property name="meta.media.0.stream.frame_rate">60</property>
  <property name="meta.media.0.stream.sample_aspect_ratio">0</property>
  <property name="meta.media.0.codec.width">640</property>
  <property name="meta.media.0.codec.height">360</property>
  <property name="meta.media.0.codec.rotate">0</property>
  <property name="meta.media.0.codec.frame_rate">60</property>
  <property name="meta.media.0.codec.pix_fmt">yuv420p</property>
  <property name="meta.media.0.codec.sample_aspect_ratio">0</property>
  <property name="meta.media.0.codec.colorspace">601</property>
  <property name="meta.media.0.codec.name">h264</property>
  <property name="meta.media.0.codec.long_name">H.264 / AVC / MPEG-4 AVC / MPEG-4 part 10</property>
  <property name="meta.media.0.codec.bit_rate">0</property>
  <property name="meta.attr.0.stream.HANDLER_NAME.markup">VideoHandler</property>
  <property name="meta.attr.0.stream.VENDOR_ID.markup">[0][0][0][0]</property>
  <property name="meta.attr.0.stream.ENCODER.markup">Lavc58.134.100 libx264</property>
  <property name="meta.attr.0.stream.DURATION.markup">00:00:02.000000000</property>
  <property name="meta.attr.COMMENT.markup">Rendered with Manim Community v0.6.0</property>
  <property name="meta.attr.MAJOR_BRAND.markup">isom</property>
  <property name="meta.attr.MINOR_VERSION.markup">512</property>
  <property name="meta.attr.COMPATIBLE_BRANDS.markup">isomiso2avc1mp41</property>
  <property name="meta.attr.ENCODER.markup">Lavf58.76.100</property>
  <property name="meta.media.sample_aspect_num">1</property>
  <property name="meta.media.sample_aspect_den">1</property>
  <property name="meta.media.frame_rate_num">60</property>
  <property name="meta.media.frame_rate_den">1</property>
  <property name="meta.media.colorspace">601</property>
  <property name="meta.media.color_trc">2</property>
  <property name="meta.media.width">640</property>
  <property name="meta.media.height">360</property>
  <property name="meta.media.color_range">mpeg</property>
 </producer>
 <producer id="producer396" in="00:00:00.000" out="00:00:04.983">
  <property name="length">00:00:05.000</property>
  <property name="eof">pause</property>
  <property name="resource">/home/xiaoxiae/.cache/kdenlive/proxy/defccd1d6893b2dd2f7a7ce425d16dc0.png</property>
  <property name="ttl">25</property>
  <property name="aspect_ratio">1</property>
  <property name="progressive">1</property>
  <property name="seekable">1</property>
  <property name="meta.media.width">800</property>
  <property name="meta.media.height">450</property>
  <property name="mlt_service">qimage</property>
  <property name="kdenlive:clipname">1.png</property>
  <property name="kdenlive:duration">00:00:05.000</property>
  <property name="kdenlive:folderid">387</property>
  <property name="kdenlive:id">365</property>
  <property name="kdenlive:file_size">125658</property>
  <property name="kdenlive:file_hash">defccd1d6893b2dd2f7a7ce425d16dc0</property>
  <property name="kdenlive:proxy">/home/xiaoxiae/.cache/kdenlive/proxy/defccd1d6893b2dd2f7a7ce425d16dc0.png</property>
  <property name="kdenlive:originalurl">video/Theorem/1.png</property>
  <property name="global_feed">1</property>
 </producer>
 <producer id="producer399" in="00:00:00.000" out="00:00:00.983">
  <property name="length">60</property>
  <property name="eof">pause</property>
  <property name="resource">/home/xiaoxiae/.cache/kdenlive/proxy/f6d8255bbcb0541a69e4a57adf843437.mkv</property>
  <property name="audio_index">-1</property>
  <property name="video_index">0</property>
  <property name="mute_on_pause">0</property>
  <property name="mlt_service">avformat-novalidate</property>
  <property name="seekable">1</property>
  <property name="aspect_ratio">1</property>
  <property name="kdenlive:clipname">10.mp4</property>
  <property name="kdenlive:folderid">387</property>
  <property name="kdenlive:id">366</property>
  <property name="kdenlive:file_size">94444</property>
  <property name="kdenlive:file_hash">f6d8255bbcb0541a69e4a57adf843437</property>
  <property name="kdenlive:proxy">/home/xiaoxiae/.cache/kdenlive/proxy/f6d8255bbcb0541a69e4a57adf843437.mkv</property>
  <property name="kdenlive:originalurl">video/Theorem/10.mp4</property>
  <property name="global_feed">1</property>
  <property name="meta.media.nb_streams">1</property>
  <property name="meta.media.0.stream.type">video</property>
  <property name="meta.media.0.stream.frame_rate">60</property>
  <property name="meta.media.0.stream.sample_aspect_ratio">0</property>
  <property name="meta.media.0.codec.width">640</property>
  <property name="meta.media.0.codec.height">360</property>
  <property name="meta.media.0.codec.rotate">0</property>
  <property name="meta.media.0.codec.frame_rate">60</property>
  <property name="meta.media.0.codec.pix_fmt">yuv420p</property>
  <property name="meta.media.0.codec.sample_aspect_ratio">0</property>
  <property name="meta.media.0.codec.colorspace">601</property>
  <property name="meta.media.0.codec.name">h264</property>
  <property name="meta.media.0.codec.long_name">H.264 / AVC / MPEG-4 AVC / MPEG-4 part 10</property>
  <property name="meta.media.0.codec.bit_rate">0</property>
  <property name="meta.attr.0.stream.HANDLER_NAME.markup">VideoHandler</property>
  <property name="meta.attr.0.stream.VENDOR_ID.markup">[0][0][0][0]</property>
  <property name="meta.attr.0.stream.ENCODER.markup">Lavc58.134.100 libx264</property>
  <property name="meta.attr.0.stream.DURATION.markup">00:00:01.000000000</property>
  <property name="meta.attr.COMMENT.markup">Rendered with Manim Community v0.6.0</property>
  <property name="meta.attr.MAJOR_BRAND.markup">isom</property>
  <property name="meta.attr.MINOR_VERSION.markup">512</property>
  <property name="meta.attr.COMPATIBLE_BRANDS.markup">isomiso2avc1mp41</property>
  <property name="meta.attr.ENCODER.markup">Lavf58.76.100</property>
  <property name="meta.media.sample_aspect_num">1</property>
  <property name="meta.media.sample_aspect_den">1</property>
  <property name="meta.media.frame_rate_num">60</property>
  <property name="meta.media.frame_rate_den">1</property>
  <property name="meta.media.colorspace">601</property>
  <property name="meta.media.color_trc">2</property>
  <property name="meta.media.width">640</property>
  <property name="meta.media.height">360</property>
  <property name="meta.media.color_range">mpeg</property>
 </producer>
 <producer id="producer397" in="00:00:00.000" out="00:00:04.983">
  <property name="length">00:00:05.000</property>
  <property name="eof">pause</property>
  <property name="resource">/home/xiaoxiae/.cache/kdenlive/proxy/83d3897dd12d07d520723a723f08e0a6.png</property>
  <property name="ttl">25</property>
  <property name="aspect_ratio">1</property>
  <property name="progressive">1</property>
  <property name="seekable">1</property>
  <property name="meta.media.width">800</property>
  <property name="meta.media.height">450</property>
  <property name="mlt_service">qimage</property>
  <property name="kdenlive:clipname">10.png</property>
  <property name="kdenlive:duration">00:00:05.000</property>
  <property name="kdenlive:folderid">387</property>
  <property name="kdenlive:id">367</property>
  <property name="kdenlive:file_size">306572</property>
  <property name="kdenlive:file_hash">83d3897dd12d07d520723a723f08e0a6</property>
  <property name="kdenlive:proxy">/home/xiaoxiae/.cache/kdenlive/proxy/83d3897dd12d07d520723a723f08e0a6.png</property>
  <property name="kdenlive:originalurl">video/Theorem/10.png</property>
  <property name="global_feed">1</property>
 </producer>
 <producer id="producer402" in="00:00:00.000" out="00:00:00.983">
  <property name="length">60</property>
  <property name="eof">pause</property>
  <property name="resource">/home/xiaoxiae/.cache/kdenlive/proxy/3e49589270123952433e5be03b2ed3c0.mkv</property>
  <property name="audio_index">-1</property>
  <property name="video_index">0</property>
  <property name="mute_on_pause">0</property>
  <property name="mlt_service">avformat-novalidate</property>
  <property name="seekable">1</property>
  <property name="aspect_ratio">1</property>
  <property name="kdenlive:clipname">11.mp4</property>
  <property name="kdenlive:folderid">387</property>
  <property name="kdenlive:id">368</property>
  <property name="kdenlive:file_size">104889</property>
  <property name="kdenlive:file_hash">3e49589270123952433e5be03b2ed3c0</property>
  <property name="kdenlive:proxy">/home/xiaoxiae/.cache/kdenlive/proxy/3e49589270123952433e5be03b2ed3c0.mkv</property>
  <property name="kdenlive:originalurl">video/Theorem/11.mp4</property>
  <property name="global_feed">1</property>
  <property name="meta.media.nb_streams">1</property>
  <property name="meta.media.0.stream.type">video</property>
  <property name="meta.media.0.stream.frame_rate">60</property>
  <property name="meta.media.0.stream.sample_aspect_ratio">0</property>
  <property name="meta.media.0.codec.width">640</property>
  <property name="meta.media.0.codec.height">360</property>
  <property name="meta.media.0.codec.rotate">0</property>
  <property name="meta.media.0.codec.frame_rate">60</property>
  <property name="meta.media.0.codec.pix_fmt">yuv420p</property>
  <property name="meta.media.0.codec.sample_aspect_ratio">0</property>
  <property name="meta.media.0.codec.colorspace">601</property>
  <property name="meta.media.0.codec.name">h264</property>
  <property name="meta.media.0.codec.long_name">H.264 / AVC / MPEG-4 AVC / MPEG-4 part 10</property>
  <property name="meta.media.0.codec.bit_rate">0</property>
  <property name="meta.attr.0.stream.HANDLER_NAME.markup">VideoHandler</property>
  <property name="meta.attr.0.stream.VENDOR_ID.markup">[0][0][0][0]</property>
  <property name="meta.attr.0.stream.ENCODER.markup">Lavc58.134.100 libx264</property>
  <property name="meta.attr.0.stream.DURATION.markup">00:00:01.000000000</property>
  <property name="meta.attr.COMMENT.markup">Rendered with Manim Community v0.6.0</property>
  <property name="meta.attr.MAJOR_BRAND.markup">isom</property>
  <property name="meta.attr.MINOR_VERSION.markup">512</property>
  <property name="meta.attr.COMPATIBLE_BRANDS.markup">isomiso2avc1mp41</property>
  <property name="meta.attr.ENCODER.markup">Lavf58.76.100</property>
  <property name="meta.media.sample_aspect_num">1</property>
  <property name="meta.media.sample_aspect_den">1</property>
  <property name="meta.media.frame_rate_num">60</property>
  <property name="meta.media.frame_rate_den">1</property>
  <property name="meta.media.colorspace">601</property>
  <property name="meta.media.color_trc">2</property>
  <property name="meta.media.width">640</property>
  <property name="meta.media.height">360</property>
  <property name="meta.media.color_range">mpeg</property>
 </producer>
 <producer id="producer401" in="00:00:00.000" out="00:00:04.983">
  <property name="length">00:00:05.000</property>
  <property name="eof">pause</property>
  <property name="resource">/home/xiaoxiae/.cache/kdenlive/proxy/b59b203e5baca187ed3a9927642b1d18.png</property>
  <property name="ttl">25</property>
  <property name="aspect_ratio">1</property>
  <property name="progressive">1</property>
  <property name="seekable">1</property>
  <property name="meta.media.width">800</property>
  <property name="meta.media.height">450</property>
  <property name="mlt_service">qimage</property>
  <property name="kdenlive:clipname">11.png</property>
  <property name="kdenlive:duration">00:00:05.000</property>
  <property name="kdenlive:folderid">387</property>
  <property name="kdenlive:id">369</property>
  <property name="kdenlive:file_size">339179</property>
  <property name="kdenlive:file_hash">b59b203e5baca187ed3a9927642b1d18</property>
  <property name="kdenlive:proxy">/home/xiaoxiae/.cache/kdenlive/proxy/b59b203e5baca187ed3a9927642b1d18.png</property>
  <property name="kdenlive:originalurl">video/Theorem/11.png</property>
  <property name="global_feed">1</property>
 </producer>
 <producer id="producer403" in="00:00:00.000" out="00:00:00.983">
  <property name="length">60</property>
  <property name="eof">pause</property>
  <property name="resource">/home/xiaoxiae/.cache/kdenlive/proxy/9f9ea5c0cb9744a4214639b002c52780.mkv</property>
  <property name="audio_index">-1</property>
  <property name="video_index">0</property>
  <property name="mute_on_pause">0</property>
  <property name="mlt_service">avformat-novalidate</property>
  <property name="seekable">1</property>
  <property name="aspect_ratio">1</property>
  <property name="kdenlive:clipname">12.mp4</property>
  <property name="kdenlive:folderid">387</property>
  <property name="kdenlive:id">370</property>
  <property name="kdenlive:file_size">195944</property>
  <property name="kdenlive:file_hash">9f9ea5c0cb9744a4214639b002c52780</property>
  <property name="kdenlive:proxy">/home/xiaoxiae/.cache/kdenlive/proxy/9f9ea5c0cb9744a4214639b002c52780.mkv</property>
  <property name="kdenlive:originalurl">video/Theorem/12.mp4</property>
  <property name="global_feed">1</property>
  <property name="meta.media.nb_streams">1</property>
  <property name="meta.media.0.stream.type">video</property>
  <property name="meta.media.0.stream.frame_rate">60</property>
  <property name="meta.media.0.stream.sample_aspect_ratio">0</property>
  <property name="meta.media.0.codec.width">640</property>
  <property name="meta.media.0.codec.height">360</property>
  <property name="meta.media.0.codec.rotate">0</property>
  <property name="meta.media.0.codec.frame_rate">60</property>
  <property name="meta.media.0.codec.pix_fmt">yuv420p</property>
  <property name="meta.media.0.codec.sample_aspect_ratio">0</property>
  <property name="meta.media.0.codec.colorspace">601</property>
  <property name="meta.media.0.codec.name">h264</property>
  <property name="meta.media.0.codec.long_name">H.264 / AVC / MPEG-4 AVC / MPEG-4 part 10</property>
  <property name="meta.media.0.codec.bit_rate">0</property>
  <property name="meta.attr.0.stream.HANDLER_NAME.markup">VideoHandler</property>
  <property name="meta.attr.0.stream.VENDOR_ID.markup">[0][0][0][0]</property>
  <property name="meta.attr.0.stream.ENCODER.markup">Lavc58.134.100 libx264</property>
  <property name="meta.attr.0.stream.DURATION.markup">00:00:01.000000000</property>
  <property name="meta.attr.COMMENT.markup">Rendered with Manim Community v0.6.0</property>
  <property name="meta.attr.MAJOR_BRAND.markup">isom</property>
  <property name="meta.attr.MINOR_VERSION.markup">512</property>
  <property name="meta.attr.COMPATIBLE_BRANDS.markup">isomiso2avc1mp41</property>
  <property name="meta.attr.ENCODER.markup">Lavf58.76.100</property>
  <property name="meta.media.sample_aspect_num">1</property>
  <property name="meta.media.sample_aspect_den">1</property>
  <property name="meta.media.frame_rate_num">60</property>
  <property name="meta.media.frame_rate_den">1</property>
  <property name="meta.media.colorspace">601</property>
  <property name="meta.media.color_trc">2</property>
  <property name="meta.media.width">640</property>
  <property name="meta.media.height">360</property>
  <property name="meta.media.color_range">mpeg</property>
 </producer>
 <producer id="producer404" in="00:00:00.000" out="00:00:04.983">
  <property name="length">00:00:05.000</property>
  <property name="eof">pause</property>
  <property name="resource">/home/xiaoxiae/.cache/kdenlive/proxy/2e225405b0df7b2882f12dbc20cddd7a.png</property>
  <property name="ttl">25</property>
  <property name="aspect_ratio">1</property>
  <property name="progressive">1</property>
  <property name="seekable">1</property>
  <property name="meta.media.width">800</property>
  <property name="meta.media.height">450</property>
  <property name="mlt_service">qimage</property>
  <property name="kdenlive:clipname">12.png</property>
  <property name="kdenlive:duration">00:00:05.000</property>
  <property name="kdenlive:folderid">387</property>
  <property name="kdenlive:id">371</property>
  <property name="kdenlive:file_size">283948</property>
  <property name="kdenlive:file_hash">2e225405b0df7b2882f12dbc20cddd7a</property>
  <property name="kdenlive:proxy">/home/xiaoxiae/.cache/kdenlive/proxy/2e225405b0df7b2882f12dbc20cddd7a.png</property>
  <property name="kdenlive:originalurl">video/Theorem/12.png</property>
  <property name="global_feed">1</property>
 </producer>
 <producer id="producer405" in="00:00:00.000" out="00:00:00.983">
  <property name="length">60</property>
  <property name="eof">pause</property>
  <property name="resource">/home/xiaoxiae/.cache/kdenlive/proxy/b595bb3bdb0079326f71423b07bf1ed9.mkv</property>
  <property name="audio_index">-1</property>
  <property name="video_index">0</property>
  <property name="mute_on_pause">0</property>
  <property name="mlt_service">avformat-novalidate</property>
  <property name="seekable">1</property>
  <property name="aspect_ratio">1</property>
  <property name="kdenlive:clipname">13.mp4</property>
  <property name="kdenlive:folderid">387</property>
  <property name="kdenlive:id">372</property>
  <property name="kdenlive:file_size">392555</property>
  <property name="kdenlive:file_hash">b595bb3bdb0079326f71423b07bf1ed9</property>
  <property name="kdenlive:proxy">/home/xiaoxiae/.cache/kdenlive/proxy/b595bb3bdb0079326f71423b07bf1ed9.mkv</property>
  <property name="kdenlive:originalurl">video/Theorem/13.mp4</property>
  <property name="global_feed">1</property>
  <property name="meta.media.nb_streams">1</property>
  <property name="meta.media.0.stream.type">video</property>
  <property name="meta.media.0.stream.frame_rate">60</property>
  <property name="meta.media.0.stream.sample_aspect_ratio">0</property>
  <property name="meta.media.0.codec.width">640</property>
  <property name="meta.media.0.codec.height">360</property>
  <property name="meta.media.0.codec.rotate">0</property>
  <property name="meta.media.0.codec.frame_rate">60</property>
  <property name="meta.media.0.codec.pix_fmt">yuv420p</property>
  <property name="meta.media.0.codec.sample_aspect_ratio">0</property>
  <property name="meta.media.0.codec.colorspace">601</property>
  <property name="meta.media.0.codec.name">h264</property>
  <property name="meta.media.0.codec.long_name">H.264 / AVC / MPEG-4 AVC / MPEG-4 part 10</property>
  <property name="meta.media.0.codec.bit_rate">0</property>
  <property name="meta.attr.0.stream.HANDLER_NAME.markup">VideoHandler</property>
  <property name="meta.attr.0.stream.VENDOR_ID.markup">[0][0][0][0]</property>
  <property name="meta.attr.0.stream.ENCODER.markup">Lavc58.134.100 libx264</property>
  <property name="meta.attr.0.stream.DURATION.markup">00:00:01.000000000</property>
  <property name="meta.attr.COMMENT.markup">Rendered with Manim Community v0.6.0</property>
  <property name="meta.attr.MAJOR_BRAND.markup">isom</property>
  <property name="meta.attr.MINOR_VERSION.markup">512</property>
  <property name="meta.attr.COMPATIBLE_BRANDS.markup">isomiso2avc1mp41</property>
  <property name="meta.attr.ENCODER.markup">Lavf58.76.100</property>
  <property name="meta.media.sample_aspect_num">1</property>
  <property name="meta.media.sample_aspect_den">1</property>
  <property name="meta.media.frame_rate_num">60</property>
  <property name="meta.media.frame_rate_den">1</property>
  <property name="meta.media.colorspace">601</property>
  <property name="meta.media.color_trc">2</property>
  <property name="meta.media.width">640</property>
  <property name="meta.media.height">360</property>
  <property name="meta.media.color_range">mpeg</property>
 </producer>
 <producer id="producer406" in="00:00:00.000" out="00:00:04.983">
  <property name="length">00:00:05.000</property>
  <property name="eof">pause</property>
  <property name="resource">/home/xiaoxiae/.cache/kdenlive/proxy/dcd99ebc504b7aa28b0577185db1a1b1.png</property>
  <property name="ttl">25</property>
  <property name="aspect_ratio">1</property>
  <property name="progressive">1</property>
  <property name="seekable">1</property>
  <property name="meta.media.width">800</property>
  <property name="meta.media.height">450</property>
  <property name="mlt_service">qimage</property>
  <property name="kdenlive:clipname">13.png</property>
  <property name="kdenlive:duration">00:00:05.000</property>
  <property name="kdenlive:folderid">387</property>
  <property name="kdenlive:id">373</property>
  <property name="kdenlive:file_size">154455</property>
  <property name="kdenlive:file_hash">dcd99ebc504b7aa28b0577185db1a1b1</property>
  <property name="kdenlive:proxy">/home/xiaoxiae/.cache/kdenlive/proxy/dcd99ebc504b7aa28b0577185db1a1b1.png</property>
  <property name="kdenlive:originalurl">video/Theorem/13.png</property>
  <property name="global_feed">1</property>
 </producer>
 <producer id="producer410" in="00:00:00.000" out="00:00:01.983">
  <property name="length">120</property>
  <property name="eof">pause</property>
  <property name="resource">/home/xiaoxiae/.cache/kdenlive/proxy/9218f26b90c2f4a015ed49f2ec43cd12.mkv</property>
  <property name="audio_index">-1</property>
  <property name="video_index">0</property>
  <property name="mute_on_pause">0</property>
  <property name="mlt_service">avformat-novalidate</property>
  <property name="seekable">1</property>
  <property name="aspect_ratio">1</property>
  <property name="kdenlive:clipname">14.mp4</property>
  <property name="kdenlive:folderid">387</property>
  <property name="kdenlive:id">374</property>
  <property name="kdenlive:file_size">92548</property>
  <property name="kdenlive:file_hash">9218f26b90c2f4a015ed49f2ec43cd12</property>
  <property name="kdenlive:proxy">/home/xiaoxiae/.cache/kdenlive/proxy/9218f26b90c2f4a015ed49f2ec43cd12.mkv</property>
  <property name="kdenlive:originalurl">video/Theorem/14.mp4</property>
  <property name="global_feed">1</property>
  <property name="meta.media.nb_streams">1</property>
  <property name="meta.media.0.stream.type">video</property>
  <property name="meta.media.0.stream.frame_rate">60</property>
  <property name="meta.media.0.stream.sample_aspect_ratio">0</property>
  <property name="meta.media.0.codec.width">640</property>
  <property name="meta.media.0.codec.height">360</property>
  <property name="meta.media.0.codec.rotate">0</property>
  <property name="meta.media.0.codec.frame_rate">60</property>
  <property name="meta.media.0.codec.pix_fmt">yuv420p</property>
  <property name="meta.media.0.codec.sample_aspect_ratio">0</property>
  <property name="meta.media.0.codec.colorspace">601</property>
  <property name="meta.media.0.codec.name">h264</property>
  <property name="meta.media.0.codec.long_name">H.264 / AVC / MPEG-4 AVC / MPEG-4 part 10</property>
  <property name="meta.media.0.codec.bit_rate">0</property>
  <property name="meta.attr.0.stream.HANDLER_NAME.markup">VideoHandler</property>
  <property name="meta.attr.0.stream.VENDOR_ID.markup">[0][0][0][0]</property>
  <property name="meta.attr.0.stream.ENCODER.markup">Lavc58.134.100 libx264</property>
  <property name="meta.attr.0.stream.DURATION.markup">00:00:02.000000000</property>
  <property name="meta.attr.COMMENT.markup">Rendered with Manim Community v0.6.0</property>
  <property name="meta.attr.MAJOR_BRAND.markup">isom</property>
  <property name="meta.attr.MINOR_VERSION.markup">512</property>
  <property name="meta.attr.COMPATIBLE_BRANDS.markup">isomiso2avc1mp41</property>
  <property name="meta.attr.ENCODER.markup">Lavf58.76.100</property>
  <property name="meta.media.sample_aspect_num">1</property>
  <property name="meta.media.sample_aspect_den">1</property>
  <property name="meta.media.frame_rate_num">60</property>
  <property name="meta.media.frame_rate_den">1</property>
  <property name="meta.media.colorspace">601</property>
  <property name="meta.media.color_trc">2</property>
  <property name="meta.media.width">640</property>
  <property name="meta.media.height">360</property>
  <property name="meta.media.color_range">mpeg</property>
 </producer>
 <producer id="producer408" in="00:00:00.000" out="00:00:04.983">
  <property name="length">00:00:05.000</property>
  <property name="eof">pause</property>
  <property name="resource">/home/xiaoxiae/.cache/kdenlive/proxy/c0b6fb88aaa03e4a0ef94efa9ce460b4.png</property>
  <property name="ttl">25</property>
  <property name="aspect_ratio">1</property>
  <property name="progressive">1</property>
  <property name="seekable">1</property>
  <property name="meta.media.width">800</property>
  <property name="meta.media.height">450</property>
  <property name="mlt_service">qimage</property>
  <property name="kdenlive:clipname">14.png</property>
  <property name="kdenlive:duration">00:00:05.000</property>
  <property name="kdenlive:folderid">387</property>
  <property name="kdenlive:id">375</property>
  <property name="kdenlive:file_size">202124</property>
  <property name="kdenlive:file_hash">c0b6fb88aaa03e4a0ef94efa9ce460b4</property>
  <property name="kdenlive:proxy">/home/xiaoxiae/.cache/kdenlive/proxy/c0b6fb88aaa03e4a0ef94efa9ce460b4.png</property>
  <property name="kdenlive:originalurl">video/Theorem/14.png</property>
  <property name="global_feed">1</property>
 </producer>
 <producer id="producer407" in="00:00:00.000" out="00:00:00.983">
  <property name="length">60</property>
  <property name="eof">pause</property>
  <property name="resource">/home/xiaoxiae/.cache/kdenlive/proxy/ae8ab6b80b00701fc588bf69fca1e228.mkv</property>
  <property name="audio_index">-1</property>
  <property name="video_index">0</property>
  <property name="mute_on_pause">0</property>
  <property name="mlt_service">avformat-novalidate</property>
  <property name="seekable">1</property>
  <property name="aspect_ratio">1</property>
  <property name="kdenlive:clipname">15.mp4</property>
  <property name="kdenlive:folderid">387</property>
  <property name="kdenlive:id">376</property>
  <property name="kdenlive:file_size">82767</property>
  <property name="kdenlive:file_hash">ae8ab6b80b00701fc588bf69fca1e228</property>
  <property name="kdenlive:proxy">/home/xiaoxiae/.cache/kdenlive/proxy/ae8ab6b80b00701fc588bf69fca1e228.mkv</property>
  <property name="kdenlive:originalurl">video/Theorem/15.mp4</property>
  <property name="global_feed">1</property>
  <property name="meta.media.nb_streams">1</property>
  <property name="meta.media.0.stream.type">video</property>
  <property name="meta.media.0.stream.frame_rate">60</property>
  <property name="meta.media.0.stream.sample_aspect_ratio">0</property>
  <property name="meta.media.0.codec.width">640</property>
  <property name="meta.media.0.codec.height">360</property>
  <property name="meta.media.0.codec.rotate">0</property>
  <property name="meta.media.0.codec.frame_rate">60</property>
  <property name="meta.media.0.codec.pix_fmt">yuv420p</property>
  <property name="meta.media.0.codec.sample_aspect_ratio">0</property>
  <property name="meta.media.0.codec.colorspace">601</property>
  <property name="meta.media.0.codec.name">h264</property>
  <property name="meta.media.0.codec.long_name">H.264 / AVC / MPEG-4 AVC / MPEG-4 part 10</property>
  <property name="meta.media.0.codec.bit_rate">0</property>
  <property name="meta.attr.0.stream.HANDLER_NAME.markup">VideoHandler</property>
  <property name="meta.attr.0.stream.VENDOR_ID.markup">[0][0][0][0]</property>
  <property name="meta.attr.0.stream.ENCODER.markup">Lavc58.134.100 libx264</property>
  <property name="meta.attr.0.stream.DURATION.markup">00:00:01.000000000</property>
  <property name="meta.attr.COMMENT.markup">Rendered with Manim Community v0.6.0</property>
  <property name="meta.attr.MAJOR_BRAND.markup">isom</property>
  <property name="meta.attr.MINOR_VERSION.markup">512</property>
  <property name="meta.attr.COMPATIBLE_BRANDS.markup">isomiso2avc1mp41</property>
  <property name="meta.attr.ENCODER.markup">Lavf58.76.100</property>
  <property name="meta.media.sample_aspect_num">1</property>
  <property name="meta.media.sample_aspect_den">1</property>
  <property name="meta.media.frame_rate_num">60</property>
  <property name="meta.media.frame_rate_den">1</property>
  <property name="meta.media.colorspace">601</property>
  <property name="meta.media.color_trc">2</property>
  <property name="meta.media.width">640</property>
  <property name="meta.media.height">360</property>
  <property name="meta.media.color_range">mpeg</property>
 </producer>
 <producer id="producer409" in="00:00:00.000" out="00:00:04.983">
  <property name="length">00:00:05.000</property>
  <property name="eof">pause</property>
  <property name="resource">/home/xiaoxiae/.cache/kdenlive/proxy/41c5514cd45203fea476199eff607e60.png</property>
  <property name="ttl">25</property>
  <property name="aspect_ratio">1</property>
  <property name="progressive">1</property>
  <property name="seekable">1</property>
  <property name="meta.media.width">800</property>
  <property name="meta.media.height">450</property>
  <property name="mlt_service">qimage</property>
  <property name="kdenlive:clipname">15.png</property>
  <property name="kdenlive:duration">00:00:05.000</property>
  <property name="kdenlive:folderid">387</property>
  <property name="kdenlive:id">377</property>
  <property name="kdenlive:file_size">263721</property>
  <property name="kdenlive:file_hash">41c5514cd45203fea476199eff607e60</property>
  <property name="kdenlive:proxy">/home/xiaoxiae/.cache/kdenlive/proxy/41c5514cd45203fea476199eff607e60.png</property>
  <property name="kdenlive:originalurl">video/Theorem/15.png</property>
  <property name="global_feed">1</property>
 </producer>
 <producer id="producer412" in="00:00:00.000" out="00:00:01.483">
  <property name="length">90</property>
  <property name="eof">pause</property>
  <property name="resource">/home/xiaoxiae/.cache/kdenlive/proxy/e4b042bdc79e011458e7b4be661ea5ea.mkv</property>
  <property name="audio_index">-1</property>
  <property name="video_index">0</property>
  <property name="mute_on_pause">0</property>
  <property name="mlt_service">avformat-novalidate</property>
  <property name="seekable">1</property>
  <property name="aspect_ratio">1</property>
  <property name="kdenlive:clipname">16.mp4</property>
  <property name="kdenlive:folderid">387</property>
  <property name="kdenlive:id">378</property>
  <property name="kdenlive:file_size">170501</property>
  <property name="kdenlive:file_hash">e4b042bdc79e011458e7b4be661ea5ea</property>
  <property name="kdenlive:proxy">/home/xiaoxiae/.cache/kdenlive/proxy/e4b042bdc79e011458e7b4be661ea5ea.mkv</property>
  <property name="kdenlive:originalurl">video/Theorem/16.mp4</property>
  <property name="global_feed">1</property>
  <property name="meta.media.nb_streams">1</property>
  <property name="meta.media.0.stream.type">video</property>
  <property name="meta.media.0.stream.frame_rate">60</property>
  <property name="meta.media.0.stream.sample_aspect_ratio">0</property>
  <property name="meta.media.0.codec.width">640</property>
  <property name="meta.media.0.codec.height">360</property>
  <property name="meta.media.0.codec.rotate">0</property>
  <property name="meta.media.0.codec.frame_rate">60</property>
  <property name="meta.media.0.codec.pix_fmt">yuv420p</property>
  <property name="meta.media.0.codec.sample_aspect_ratio">0</property>
  <property name="meta.media.0.codec.colorspace">601</property>
  <property name="meta.media.0.codec.name">h264</property>
  <property name="meta.media.0.codec.long_name">H.264 / AVC / MPEG-4 AVC / MPEG-4 part 10</property>
  <property name="meta.media.0.codec.bit_rate">0</property>
  <property name="meta.attr.0.stream.HANDLER_NAME.markup">VideoHandler</property>
  <property name="meta.attr.0.stream.VENDOR_ID.markup">[0][0][0][0]</property>
  <property name="meta.attr.0.stream.ENCODER.markup">Lavc58.134.100 libx264</property>
  <property name="meta.attr.0.stream.DURATION.markup">00:00:01.500000000</property>
  <property name="meta.attr.COMMENT.markup">Rendered with Manim Community v0.6.0</property>
  <property name="meta.attr.MAJOR_BRAND.markup">isom</property>
  <property name="meta.attr.MINOR_VERSION.markup">512</property>
  <property name="meta.attr.COMPATIBLE_BRANDS.markup">isomiso2avc1mp41</property>
  <property name="meta.attr.ENCODER.markup">Lavf58.76.100</property>
  <property name="meta.media.sample_aspect_num">1</property>
  <property name="meta.media.sample_aspect_den">1</property>
  <property name="meta.media.frame_rate_num">60</property>
  <property name="meta.media.frame_rate_den">1</property>
  <property name="meta.media.colorspace">601</property>
  <property name="meta.media.color_trc">2</property>
  <property name="meta.media.width">640</property>
  <property name="meta.media.height">360</property>
  <property name="meta.media.color_range">mpeg</property>
 </producer>
 <producer id="producer411" in="00:00:00.000" out="00:00:04.983">
  <property name="length">00:00:05.000</property>
  <property name="eof">pause</property>
  <property name="resource">/home/xiaoxiae/.cache/kdenlive/proxy/b1242ec38e6bf832f74e027e71eb58b3.png</property>
  <property name="ttl">25</property>
  <property name="aspect_ratio">1</property>
  <property name="progressive">1</property>
  <property name="seekable">1</property>
  <property name="meta.media.width">800</property>
  <property name="meta.media.height">450</property>
  <property name="mlt_service">qimage</property>
  <property name="kdenlive:clipname">16.png</property>
  <property name="kdenlive:duration">00:00:05.000</property>
  <property name="kdenlive:folderid">387</property>
  <property name="kdenlive:id">379</property>
  <property name="kdenlive:file_size">199955</property>
  <property name="kdenlive:file_hash">b1242ec38e6bf832f74e027e71eb58b3</property>
  <property name="kdenlive:proxy">/home/xiaoxiae/.cache/kdenlive/proxy/b1242ec38e6bf832f74e027e71eb58b3.png</property>
  <property name="kdenlive:originalurl">video/Theorem/16.png</property>
  <property name="global_feed">1</property>
 </producer>
 <producer id="producer413" in="00:00:00.000" out="00:00:00.983">
  <property name="length">60</property>
  <property name="eof">pause</property>
  <property name="resource">/home/xiaoxiae/.cache/kdenlive/proxy/3f3415dd4d42b9f1d9a6db08360855b9.mkv</property>
  <property name="audio_index">-1</property>
  <property name="video_index">0</property>
  <property name="mute_on_pause">0</property>
  <property name="mlt_service">avformat-novalidate</property>
  <property name="seekable">1</property>
  <property name="aspect_ratio">1</property>
  <property name="kdenlive:clipname">17.mp4</property>
  <property name="kdenlive:folderid">387</property>
  <property name="kdenlive:id">380</property>
  <property name="kdenlive:file_size">63538</property>
  <property name="kdenlive:file_hash">3f3415dd4d42b9f1d9a6db08360855b9</property>
  <property name="kdenlive:proxy">/home/xiaoxiae/.cache/kdenlive/proxy/3f3415dd4d42b9f1d9a6db08360855b9.mkv</property>
  <property name="kdenlive:originalurl">video/Theorem/17.mp4</property>
  <property name="global_feed">1</property>
  <property name="meta.media.nb_streams">1</property>
  <property name="meta.media.0.stream.type">video</property>
  <property name="meta.media.0.stream.frame_rate">60</property>
  <property name="meta.media.0.stream.sample_aspect_ratio">0</property>
  <property name="meta.media.0.codec.width">640</property>
  <property name="meta.media.0.codec.height">360</property>
  <property name="meta.media.0.codec.rotate">0</property>
  <property name="meta.media.0.codec.frame_rate">60</property>
  <property name="meta.media.0.codec.pix_fmt">yuv420p</property>
  <property name="meta.media.0.codec.sample_aspect_ratio">0</property>
  <property name="meta.media.0.codec.colorspace">601</property>
  <property name="meta.media.0.codec.name">h264</property>
  <property name="meta.media.0.codec.long_name">H.264 / AVC / MPEG-4 AVC / MPEG-4 part 10</property>
  <property name="meta.media.0.codec.bit_rate">0</property>
  <property name="meta.attr.0.stream.HANDLER_NAME.markup">VideoHandler</property>
  <property name="meta.attr.0.stream.VENDOR_ID.markup">[0][0][0][0]</property>
  <property name="meta.attr.0.stream.ENCODER.markup">Lavc58.134.100 libx264</property>
  <property name="meta.attr.0.stream.DURATION.markup">00:00:01.000000000</property>
  <property name="meta.attr.COMMENT.markup">Rendered with Manim Community v0.6.0</property>
  <property name="meta.attr.MAJOR_BRAND.markup">isom</property>
  <property name="meta.attr.MINOR_VERSION.markup">512</property>
  <property name="meta.attr.COMPATIBLE_BRANDS.markup">isomiso2avc1mp41</property>
  <property name="meta.attr.ENCODER.markup">Lavf58.76.100</property>
  <property name="meta.media.sample_aspect_num">1</property>
  <property name="meta.media.sample_aspect_den">1</property>
  <property name="meta.media.frame_rate_num">60</property>
  <property name="meta.media.frame_rate_den">1</property>
  <property name="meta.media.colorspace">601</property>
  <property name="meta.media.color_trc">2</property>
  <property name="meta.media.width">640</property>
  <property name="meta.media.height">360</property>
  <property name="meta.media.color_range">mpeg</property>
 </producer>
 <producer id="producer414" in="00:00:00.000" out="00:00:04.983">
  <property name="length">00:00:05.000</property>
  <property name="eof">pause</property>
  <property name="resource">/home/xiaoxiae/.cache/kdenlive/proxy/9c9e63e3d2ac6fd963f65c441a2ba957.png</property>
  <property name="ttl">25</property>
  <property name="aspect_ratio">1</property>
  <property name="progressive">1</property>
  <property name="seekable">1</property>
  <property name="meta.media.width">800</property>
  <property name="meta.media.height">450</property>
  <property name="mlt_service">qimage</property>
  <property name="kdenlive:clipname">17.png</property>
  <property name="kdenlive:duration">00:00:05.000</property>
  <property name="kdenlive:folderid">387</property>
  <property name="kdenlive:id">381</property>
  <property name="kdenlive:file_size">201378</property>
  <property name="kdenlive:file_hash">9c9e63e3d2ac6fd963f65c441a2ba957</property>
  <property name="kdenlive:proxy">/home/xiaoxiae/.cache/kdenlive/proxy/9c9e63e3d2ac6fd963f65c441a2ba957.png</property>
  <property name="kdenlive:originalurl">video/Theorem/17.png</property>
  <property name="global_feed">1</property>
 </producer>
 <producer id="producer415" in="00:00:00.000" out="00:00:00.983">
  <property name="length">60</property>
  <property name="eof">pause</property>
  <property name="resource">/home/xiaoxiae/.cache/kdenlive/proxy/3002fa503ff160db685dd5ff51ebfad0.mkv</property>
  <property name="audio_index">-1</property>
  <property name="video_index">0</property>
  <property name="mute_on_pause">0</property>
  <property name="mlt_service">avformat-novalidate</property>
  <property name="seekable">1</property>
  <property name="aspect_ratio">1</property>
  <property name="kdenlive:clipname">18.mp4</property>
  <property name="kdenlive:folderid">387</property>
  <property name="kdenlive:id">382</property>
  <property name="kdenlive:file_size">60438</property>
  <property name="kdenlive:file_hash">3002fa503ff160db685dd5ff51ebfad0</property>
  <property name="kdenlive:proxy">/home/xiaoxiae/.cache/kdenlive/proxy/3002fa503ff160db685dd5ff51ebfad0.mkv</property>
  <property name="kdenlive:originalurl">video/Theorem/18.mp4</property>
  <property name="global_feed">1</property>
  <property name="meta.media.nb_streams">1</property>
  <property name="meta.media.0.stream.type">video</property>
  <property name="meta.media.0.stream.frame_rate">60</property>
  <property name="meta.media.0.stream.sample_aspect_ratio">0</property>
  <property name="meta.media.0.codec.width">640</property>
  <property name="meta.media.0.codec.height">360</property>
  <property name="meta.media.0.codec.rotate">0</property>
  <property name="meta.media.0.codec.frame_rate">60</property>
  <property name="meta.media.0.codec.pix_fmt">yuv420p</property>
  <property name="meta.media.0.codec.sample_aspect_ratio">0</property>
  <property name="meta.media.0.codec.colorspace">601</property>
  <property name="meta.media.0.codec.name">h264</property>
  <property name="meta.media.0.codec.long_name">H.264 / AVC / MPEG-4 AVC / MPEG-4 part 10</property>
  <property name="meta.media.0.codec.bit_rate">0</property>
  <property name="meta.attr.0.stream.HANDLER_NAME.markup">VideoHandler</property>
  <property name="meta.attr.0.stream.VENDOR_ID.markup">[0][0][0][0]</property>
  <property name="meta.attr.0.stream.ENCODER.markup">Lavc58.134.100 libx264</property>
  <property name="meta.attr.0.stream.DURATION.markup">00:00:01.000000000</property>
  <property name="meta.attr.COMMENT.markup">Rendered with Manim Community v0.6.0</property>
  <property name="meta.attr.MAJOR_BRAND.markup">isom</property>
  <property name="meta.attr.MINOR_VERSION.markup">512</property>
  <property name="meta.attr.COMPATIBLE_BRANDS.markup">isomiso2avc1mp41</property>
  <property name="meta.attr.ENCODER.markup">Lavf58.76.100</property>
  <property name="meta.media.sample_aspect_num">1</property>
  <property name="meta.media.sample_aspect_den">1</property>
  <property name="meta.media.frame_rate_num">60</property>
  <property name="meta.media.frame_rate_den">1</property>
  <property name="meta.media.colorspace">601</property>
  <property name="meta.media.color_trc">2</property>
  <property name="meta.media.width">640</property>
  <property name="meta.media.height">360</property>
  <property name="meta.media.color_range">mpeg</property>
 </producer>
 <producer id="producer419" in="00:00:00.000" out="00:00:04.983">
  <property name="length">00:00:05.000</property>
  <property name="eof">pause</property>
  <property name="resource">/home/xiaoxiae/.cache/kdenlive/proxy/814295e9abd0a1b7861d84cfcc2b2286.png</property>
  <property name="ttl">25</property>
  <property name="aspect_ratio">1</property>
  <property name="progressive">1</property>
  <property name="seekable">1</property>
  <property name="meta.media.width">800</property>
  <property name="meta.media.height">450</property>
  <property name="mlt_service">qimage</property>
  <property name="kdenlive:clipname">18.png</property>
  <property name="kdenlive:duration">00:00:05.000</property>
  <property name="kdenlive:folderid">387</property>
  <property name="kdenlive:id">383</property>
  <property name="kdenlive:file_size">203405</property>
  <property name="kdenlive:file_hash">814295e9abd0a1b7861d84cfcc2b2286</property>
  <property name="kdenlive:proxy">/home/xiaoxiae/.cache/kdenlive/proxy/814295e9abd0a1b7861d84cfcc2b2286.png</property>
  <property name="kdenlive:originalurl">video/Theorem/18.png</property>
  <property name="global_feed">1</property>
 </producer>
 <producer id="producer417" in="00:00:00.000" out="00:00:00.983">
  <property name="length">60</property>
  <property name="eof">pause</property>
  <property name="resource">/home/xiaoxiae/.cache/kdenlive/proxy/73ff219fe85bde220167209f1dd410c6.mkv</property>
  <property name="audio_index">-1</property>
  <property name="video_index">0</property>
  <property name="mute_on_pause">0</property>
  <property name="mlt_service">avformat-novalidate</property>
  <property name="seekable">1</property>
  <property name="aspect_ratio">1</property>
  <property name="kdenlive:clipname">19.mp4</property>
  <property name="kdenlive:folderid">387</property>
  <property name="kdenlive:id">384</property>
  <property name="kdenlive:file_size">145033</property>
  <property name="kdenlive:file_hash">73ff219fe85bde220167209f1dd410c6</property>
  <property name="kdenlive:proxy">/home/xiaoxiae/.cache/kdenlive/proxy/73ff219fe85bde220167209f1dd410c6.mkv</property>
  <property name="kdenlive:originalurl">video/Theorem/19.mp4</property>
  <property name="global_feed">1</property>
  <property name="meta.media.nb_streams">1</property>
  <property name="meta.media.0.stream.type">video</property>
  <property name="meta.media.0.stream.frame_rate">60</property>
  <property name="meta.media.0.stream.sample_aspect_ratio">0</property>
  <property name="meta.media.0.codec.width">640</property>
  <property name="meta.media.0.codec.height">360</property>
  <property name="meta.media.0.codec.rotate">0</property>
  <property name="meta.media.0.codec.frame_rate">60</property>
  <property name="meta.media.0.codec.pix_fmt">yuv420p</property>
  <property name="meta.media.0.codec.sample_aspect_ratio">0</property>
  <property name="meta.media.0.codec.colorspace">601</property>
  <property name="meta.media.0.codec.name">h264</property>
  <property name="meta.media.0.codec.long_name">H.264 / AVC / MPEG-4 AVC / MPEG-4 part 10</property>
  <property name="meta.media.0.codec.bit_rate">0</property>
  <property name="meta.attr.0.stream.HANDLER_NAME.markup">VideoHandler</property>
  <property name="meta.attr.0.stream.VENDOR_ID.markup">[0][0][0][0]</property>
  <property name="meta.attr.0.stream.ENCODER.markup">Lavc58.134.100 libx264</property>
  <property name="meta.attr.0.stream.DURATION.markup">00:00:01.000000000</property>
  <property name="meta.attr.COMMENT.markup">Rendered with Manim Community v0.6.0</property>
  <property name="meta.attr.MAJOR_BRAND.markup">isom</property>
  <property name="meta.attr.MINOR_VERSION.markup">512</property>
  <property name="meta.attr.COMPATIBLE_BRANDS.markup">isomiso2avc1mp41</property>
  <property name="meta.attr.ENCODER.markup">Lavf58.76.100</property>
  <property name="meta.media.sample_aspect_num">1</property>
  <property name="meta.media.sample_aspect_den">1</property>
  <property name="meta.media.frame_rate_num">60</property>
  <property name="meta.media.frame_rate_den">1</property>
  <property name="meta.media.colorspace">601</property>
  <property name="meta.media.color_trc">2</property>
  <property name="meta.media.width">640</property>
  <property name="meta.media.height">360</property>
  <property name="meta.media.color_range">mpeg</property>
 </producer>
 <producer id="producer416" in="00:00:00.000" out="00:00:04.983">
  <property name="length">00:00:05.000</property>
  <property name="eof">pause</property>
  <property name="resource">/home/xiaoxiae/.cache/kdenlive/proxy/5c93d6c309bf7d10e768322e5203358f.png</property>
  <property name="ttl">25</property>
  <property name="aspect_ratio">1</property>
  <property name="progressive">1</property>
  <property name="seekable">1</property>
  <property name="meta.media.width">800</property>
  <property name="meta.media.height">450</property>
  <property name="mlt_service">qimage</property>
  <property name="kdenlive:clipname">19.png</property>
  <property name="kdenlive:duration">00:00:05.000</property>
  <property name="kdenlive:folderid">387</property>
  <property name="kdenlive:id">385</property>
  <property name="kdenlive:file_size">217334</property>
  <property name="kdenlive:file_hash">5c93d6c309bf7d10e768322e5203358f</property>
  <property name="kdenlive:proxy">/home/xiaoxiae/.cache/kdenlive/proxy/5c93d6c309bf7d10e768322e5203358f.png</property>
  <property name="kdenlive:originalurl">video/Theorem/19.png</property>
  <property name="global_feed">1</property>
 </producer>
 <producer id="producer420" in="00:00:00.000" out="00:00:00.983">
  <property name="length">60</property>
  <property name="eof">pause</property>
  <property name="resource">/home/xiaoxiae/.cache/kdenlive/proxy/1213b606e6669342ffb680ffd7cff7c1.mkv</property>
  <property name="audio_index">-1</property>
  <property name="video_index">0</property>
  <property name="mute_on_pause">0</property>
  <property name="mlt_service">avformat-novalidate</property>
  <property name="seekable">1</property>
  <property name="aspect_ratio">1</property>
  <property name="kdenlive:clipname">2.mp4</property>
  <property name="kdenlive:folderid">387</property>
  <property name="kdenlive:id">386</property>
  <property name="kdenlive:file_size">105431</property>
  <property name="kdenlive:file_hash">1213b606e6669342ffb680ffd7cff7c1</property>
  <property name="kdenlive:proxy">/home/xiaoxiae/.cache/kdenlive/proxy/1213b606e6669342ffb680ffd7cff7c1.mkv</property>
  <property name="kdenlive:originalurl">video/Theorem/2.mp4</property>
  <property name="global_feed">1</property>
  <property name="meta.media.nb_streams">1</property>
  <property name="meta.media.0.stream.type">video</property>
  <property name="meta.media.0.stream.frame_rate">60</property>
  <property name="meta.media.0.stream.sample_aspect_ratio">0</property>
  <property name="meta.media.0.codec.width">640</property>
  <property name="meta.media.0.codec.height">360</property>
  <property name="meta.media.0.codec.rotate">0</property>
  <property name="meta.media.0.codec.frame_rate">60</property>
  <property name="meta.media.0.codec.pix_fmt">yuv420p</property>
  <property name="meta.media.0.codec.sample_aspect_ratio">0</property>
  <property name="meta.media.0.codec.colorspace">601</property>
  <property name="meta.media.0.codec.name">h264</property>
  <property name="meta.media.0.codec.long_name">H.264 / AVC / MPEG-4 AVC / MPEG-4 part 10</property>
  <property name="meta.media.0.codec.bit_rate">0</property>
  <property name="meta.attr.0.stream.HANDLER_NAME.markup">VideoHandler</property>
  <property name="meta.attr.0.stream.VENDOR_ID.markup">[0][0][0][0]</property>
  <property name="meta.attr.0.stream.ENCODER.markup">Lavc58.134.100 libx264</property>
  <property name="meta.attr.0.stream.DURATION.markup">00:00:01.000000000</property>
  <property name="meta.attr.COMMENT.markup">Rendered with Manim Community v0.6.0</property>
  <property name="meta.attr.MAJOR_BRAND.markup">isom</property>
  <property name="meta.attr.MINOR_VERSION.markup">512</property>
  <property name="meta.attr.COMPATIBLE_BRANDS.markup">isomiso2avc1mp41</property>
  <property name="meta.attr.ENCODER.markup">Lavf58.76.100</property>
  <property name="meta.media.sample_aspect_num">1</property>
  <property name="meta.media.sample_aspect_den">1</property>
  <property name="meta.media.frame_rate_num">60</property>
  <property name="meta.media.frame_rate_den">1</property>
  <property name="meta.media.colorspace">601</property>
  <property name="meta.media.color_trc">2</property>
  <property name="meta.media.width">640</property>
  <property name="meta.media.height">360</property>
  <property name="meta.media.color_range">mpeg</property>
 </producer>
 <producer id="producer418" in="00:00:00.000" out="00:00:04.983">
  <property name="length">00:00:05.000</property>
  <property name="eof">pause</property>
  <property name="resource">/home/xiaoxiae/.cache/kdenlive/proxy/984d09e658935952e723785cfe8dab46.png</property>
  <property name="ttl">25</property>
  <property name="aspect_ratio">1</property>
  <property name="progressive">1</property>
  <property name="seekable">1</property>
  <property name="meta.media.width">800</property>
  <property name="meta.media.height">450</property>
  <property name="mlt_service">qimage</property>
  <property name="kdenlive:clipname">2.png</property>
  <property name="kdenlive:duration">00:00:05.000</property>
  <property name="kdenlive:folderid">387</property>
  <property name="kdenlive:id">388</property>
  <property name="kdenlive:file_size">121034</property>
  <property name="kdenlive:file_hash">984d09e658935952e723785cfe8dab46</property>
  <property name="kdenlive:proxy">/home/xiaoxiae/.cache/kdenlive/proxy/984d09e658935952e723785cfe8dab46.png</property>
  <property name="kdenlive:originalurl">video/Theorem/2.png</property>
  <property name="global_feed">1</property>
 </producer>
 <producer id="producer421" in="00:00:00.000" out="00:00:00.983">
  <property name="length">60</property>
  <property name="eof">pause</property>
  <property name="resource">/home/xiaoxiae/.cache/kdenlive/proxy/c5dbe57d8cdeca20dc46a26abf30685a.mkv</property>
  <property name="audio_index">-1</property>
  <property name="video_index">0</property>
  <property name="mute_on_pause">0</property>
  <property name="mlt_service">avformat-novalidate</property>
  <property name="seekable">1</property>
  <property name="aspect_ratio">1</property>
  <property name="kdenlive:clipname">20.mp4</property>
  <property name="kdenlive:folderid">387</property>
  <property name="kdenlive:id">389</property>
  <property name="kdenlive:file_size">147346</property>
  <property name="kdenlive:file_hash">c5dbe57d8cdeca20dc46a26abf30685a</property>
  <property name="kdenlive:proxy">/home/xiaoxiae/.cache/kdenlive/proxy/c5dbe57d8cdeca20dc46a26abf30685a.mkv</property>
  <property name="kdenlive:originalurl">video/Theorem/20.mp4</property>
  <property name="global_feed">1</property>
  <property name="meta.media.nb_streams">1</property>
  <property name="meta.media.0.stream.type">video</property>
  <property name="meta.media.0.stream.frame_rate">60</property>
  <property name="meta.media.0.stream.sample_aspect_ratio">0</property>
  <property name="meta.media.0.codec.width">640</property>
  <property name="meta.media.0.codec.height">360</property>
  <property name="meta.media.0.codec.rotate">0</property>
  <property name="meta.media.0.codec.frame_rate">60</property>
  <property name="meta.media.0.codec.pix_fmt">yuv420p</property>
  <property name="meta.media.0.codec.sample_aspect_ratio">0</property>
  <property name="meta.media.0.codec.colorspace">601</property>
  <property name="meta.media.0.codec.name">h264</property>
  <property name="meta.media.0.codec.long_name">H.264 / AVC / MPEG-4 AVC / MPEG-4 part 10</property>
  <property name="meta.media.0.codec.bit_rate">0</property>
  <property name="meta.attr.0.stream.HANDLER_NAME.markup">VideoHandler</property>
  <property name="meta.attr.0.stream.VENDOR_ID.markup">[0][0][0][0]</property>
  <property name="meta.attr.0.stream.ENCODER.markup">Lavc58.134.100 libx264</property>
  <property name="meta.attr.0.stream.DURATION.markup">00:00:01.000000000</property>
  <property name="meta.attr.COMMENT.markup">Rendered with Manim Community v0.6.0</property>
  <property name="meta.attr.MAJOR_BRAND.markup">isom</property>
  <property name="meta.attr.MINOR_VERSION.markup">512</property>
  <property name="meta.attr.COMPATIBLE_BRANDS.markup">isomiso2avc1mp41</property>
  <property name="meta.attr.ENCODER.markup">Lavf58.76.100</property>
  <property name="meta.media.sample_aspect_num">1</property>
  <property name="meta.media.sample_aspect_den">1</property>
  <property name="meta.media.frame_rate_num">60</property>
  <property name="meta.media.frame_rate_den">1</property>
  <property name="meta.media.colorspace">601</property>
  <property name="meta.media.color_trc">2</property>
  <property name="meta.media.width">640</property>
  <property name="meta.media.height">360</property>
  <property name="meta.media.color_range">mpeg</property>
 </producer>
 <producer id="producer422" in="00:00:00.000" out="00:00:04.983">
  <property name="length">00:00:05.000</property>
  <property name="eof">pause</property>
  <property name="resource">/home/xiaoxiae/.cache/kdenlive/proxy/9e430ad7963843e749af4c19043c5ca7.png</property>
  <property name="ttl">25</property>
  <property name="aspect_ratio">1</property>
  <property name="progressive">1</property>
  <property name="seekable">1</property>
  <property name="meta.media.width">800</property>
  <property name="meta.media.height">450</property>
  <property name="mlt_service">qimage</property>
  <property name="kdenlive:clipname">20.png</property>
  <property name="kdenlive:duration">00:00:05.000</property>
  <property name="kdenlive:folderid">387</property>
  <property name="kdenlive:id">390</property>
  <property name="kdenlive:file_size">226289</property>
  <property name="kdenlive:file_hash">9e430ad7963843e749af4c19043c5ca7</property>
  <property name="kdenlive:proxy">/home/xiaoxiae/.cache/kdenlive/proxy/9e430ad7963843e749af4c19043c5ca7.png</property>
  <property name="kdenlive:originalurl">video/Theorem/20.png</property>
  <property name="global_feed">1</property>
 </producer>
 <producer id="producer423" in="00:00:00.000" out="00:00:00.983">
  <property name="length">60</property>
  <property name="eof">pause</property>
  <property name="resource">/home/xiaoxiae/.cache/kdenlive/proxy/ed435d56d1cf6abae4ceb8674ec35553.mkv</property>
  <property name="audio_index">-1</property>
  <property name="video_index">0</property>
  <property name="mute_on_pause">0</property>
  <property name="mlt_service">avformat-novalidate</property>
  <property name="seekable">1</property>
  <property name="aspect_ratio">1</property>
  <property name="kdenlive:clipname">21.mp4</property>
  <property name="kdenlive:folderid">387</property>
  <property name="kdenlive:id">391</property>
  <property name="kdenlive:file_size">134316</property>
  <property name="kdenlive:file_hash">ed435d56d1cf6abae4ceb8674ec35553</property>
  <property name="kdenlive:proxy">/home/xiaoxiae/.cache/kdenlive/proxy/ed435d56d1cf6abae4ceb8674ec35553.mkv</property>
  <property name="kdenlive:originalurl">video/Theorem/21.mp4</property>
  <property name="global_feed">1</property>
  <property name="meta.media.nb_streams">1</property>
  <property name="meta.media.0.stream.type">video</property>
  <property name="meta.media.0.stream.frame_rate">60</property>
  <property name="meta.media.0.stream.sample_aspect_ratio">0</property>
  <property name="meta.media.0.codec.width">640</property>
  <property name="meta.media.0.codec.height">360</property>
  <property name="meta.media.0.codec.rotate">0</property>
  <property name="meta.media.0.codec.frame_rate">60</property>
  <property name="meta.media.0.codec.pix_fmt">yuv420p</property>
  <property name="meta.media.0.codec.sample_aspect_ratio">0</property>
  <property name="meta.media.0.codec.colorspace">601</property>
  <property name="meta.media.0.codec.name">h264</property>
  <property name="meta.media.0.codec.long_name">H.264 / AVC / MPEG-4 AVC / MPEG-4 part 10</property>
  <property name="meta.media.0.codec.bit_rate">0</property>
  <property name="meta.attr.0.stream.HANDLER_NAME.markup">VideoHandler</property>
  <property name="meta.attr.0.stream.VENDOR_ID.markup">[0][0][0][0]</property>
  <property name="meta.attr.0.stream.ENCODER.markup">Lavc58.134.100 libx264</property>
  <property name="meta.attr.0.stream.DURATION.markup">00:00:01.000000000</property>
  <property name="meta.attr.COMMENT.markup">Rendered with Manim Community v0.6.0</property>
  <property name="meta.attr.MAJOR_BRAND.markup">isom</property>
  <property name="meta.attr.MINOR_VERSION.markup">512</property>
  <property name="meta.attr.COMPATIBLE_BRANDS.markup">isomiso2avc1mp41</property>
  <property name="meta.attr.ENCODER.markup">Lavf58.76.100</property>
  <property name="meta.media.sample_aspect_num">1</property>
  <property name="meta.media.sample_aspect_den">1</property>
  <property name="meta.media.frame_rate_num">60</property>
  <property name="meta.media.frame_rate_den">1</property>
  <property name="meta.media.colorspace">601</property>
  <property name="meta.media.color_trc">2</property>
  <property name="meta.media.width">640</property>
  <property name="meta.media.height">360</property>
  <property name="meta.media.color_range">mpeg</property>
 </producer>
 <producer id="producer424" in="00:00:00.000" out="00:00:04.983">
  <property name="length">00:00:05.000</property>
  <property name="eof">pause</property>
  <property name="resource">/home/xiaoxiae/.cache/kdenlive/proxy/1966162e5575d159740a17787eb97145.png</property>
  <property name="ttl">25</property>
  <property name="aspect_ratio">1</property>
  <property name="progressive">1</property>
  <property name="seekable">1</property>
  <property name="meta.media.width">800</property>
  <property name="meta.media.height">450</property>
  <property name="mlt_service">qimage</property>
  <property name="kdenlive:clipname">21.png</property>
  <property name="kdenlive:duration">00:00:05.000</property>
  <property name="kdenlive:folderid">387</property>
  <property name="kdenlive:id">392</property>
  <property name="kdenlive:file_size">224728</property>
  <property name="kdenlive:file_hash">1966162e5575d159740a17787eb97145</property>
  <property name="kdenlive:proxy">/home/xiaoxiae/.cache/kdenlive/proxy/1966162e5575d159740a17787eb97145.png</property>
  <property name="kdenlive:originalurl">video/Theorem/21.png</property>
  <property name="global_feed">1</property>
 </producer>
 <producer id="producer425" in="00:00:00.000" out="00:00:00.983">
  <property name="length">60</property>
  <property name="eof">pause</property>
  <property name="resource">/home/xiaoxiae/.cache/kdenlive/proxy/68459bd7b7ffb34e56792441f05a9cb6.mkv</property>
  <property name="audio_index">-1</property>
  <property name="video_index">0</property>
  <property name="mute_on_pause">0</property>
  <property name="mlt_service">avformat-novalidate</property>
  <property name="seekable">1</property>
  <property name="aspect_ratio">1</property>
  <property name="kdenlive:clipname">22.mp4</property>
  <property name="kdenlive:folderid">387</property>
  <property name="kdenlive:id">393</property>
  <property name="kdenlive:file_size">138835</property>
  <property name="kdenlive:file_hash">68459bd7b7ffb34e56792441f05a9cb6</property>
  <property name="kdenlive:proxy">/home/xiaoxiae/.cache/kdenlive/proxy/68459bd7b7ffb34e56792441f05a9cb6.mkv</property>
  <property name="kdenlive:originalurl">video/Theorem/22.mp4</property>
  <property name="global_feed">1</property>
  <property name="meta.media.nb_streams">1</property>
  <property name="meta.media.0.stream.type">video</property>
  <property name="meta.media.0.stream.frame_rate">60</property>
  <property name="meta.media.0.stream.sample_aspect_ratio">0</property>
  <property name="meta.media.0.codec.width">640</property>
  <property name="meta.media.0.codec.height">360</property>
  <property name="meta.media.0.codec.rotate">0</property>
  <property name="meta.media.0.codec.frame_rate">60</property>
  <property name="meta.media.0.codec.pix_fmt">yuv420p</property>
  <property name="meta.media.0.codec.sample_aspect_ratio">0</property>
  <property name="meta.media.0.codec.colorspace">601</property>
  <property name="meta.media.0.codec.name">h264</property>
  <property name="meta.media.0.codec.long_name">H.264 / AVC / MPEG-4 AVC / MPEG-4 part 10</property>
  <property name="meta.media.0.codec.bit_rate">0</property>
  <property name="meta.attr.0.stream.HANDLER_NAME.markup">VideoHandler</property>
  <property name="meta.attr.0.stream.VENDOR_ID.markup">[0][0][0][0]</property>
  <property name="meta.attr.0.stream.ENCODER.markup">Lavc58.134.100 libx264</property>
  <property name="meta.attr.0.stream.DURATION.markup">00:00:01.000000000</property>
  <property name="meta.attr.COMMENT.markup">Rendered with Manim Community v0.6.0</property>
  <property name="meta.attr.MAJOR_BRAND.markup">isom</property>
  <property name="meta.attr.MINOR_VERSION.markup">512</property>
  <property name="meta.attr.COMPATIBLE_BRANDS.markup">isomiso2avc1mp41</property>
  <property name="meta.attr.ENCODER.markup">Lavf58.76.100</property>
  <property name="meta.media.sample_aspect_num">1</property>
  <property name="meta.media.sample_aspect_den">1</property>
  <property name="meta.media.frame_rate_num">60</property>
  <property name="meta.media.frame_rate_den">1</property>
  <property name="meta.media.colorspace">601</property>
  <property name="meta.media.color_trc">2</property>
  <property name="meta.media.width">640</property>
  <property name="meta.media.height">360</property>
  <property name="meta.media.color_range">mpeg</property>
 </producer>
 <producer id="producer426" in="00:00:00.000" out="00:00:04.983">
  <property name="length">00:00:05.000</property>
  <property name="eof">pause</property>
  <property name="resource">/home/xiaoxiae/.cache/kdenlive/proxy/3ee407497af6c76e9222e2500d48945b.png</property>
  <property name="ttl">25</property>
  <property name="aspect_ratio">1</property>
  <property name="progressive">1</property>
  <property name="seekable">1</property>
  <property name="meta.media.width">800</property>
  <property name="meta.media.height">450</property>
  <property name="mlt_service">qimage</property>
  <property name="kdenlive:clipname">22.png</property>
  <property name="kdenlive:duration">00:00:05.000</property>
  <property name="kdenlive:folderid">387</property>
  <property name="kdenlive:id">394</property>
  <property name="kdenlive:file_size">212291</property>
  <property name="kdenlive:file_hash">3ee407497af6c76e9222e2500d48945b</property>
  <property name="kdenlive:proxy">/home/xiaoxiae/.cache/kdenlive/proxy/3ee407497af6c76e9222e2500d48945b.png</property>
  <property name="kdenlive:originalurl">video/Theorem/22.png</property>
  <property name="global_feed">1</property>
 </producer>
 <producer id="producer427" in="00:00:00.000" out="00:00:00.983">
  <property name="length">60</property>
  <property name="eof">pause</property>
  <property name="resource">/home/xiaoxiae/.cache/kdenlive/proxy/7bc771e30017c5806286caeee8037b4e.mkv</property>
  <property name="audio_index">-1</property>
  <property name="video_index">0</property>
  <property name="mute_on_pause">0</property>
  <property name="mlt_service">avformat-novalidate</property>
  <property name="seekable">1</property>
  <property name="aspect_ratio">1</property>
  <property name="kdenlive:clipname">23.mp4</property>
  <property name="kdenlive:folderid">387</property>
  <property name="kdenlive:id">395</property>
  <property name="kdenlive:file_size">81879</property>
  <property name="kdenlive:file_hash">7bc771e30017c5806286caeee8037b4e</property>
  <property name="kdenlive:proxy">/home/xiaoxiae/.cache/kdenlive/proxy/7bc771e30017c5806286caeee8037b4e.mkv</property>
  <property name="kdenlive:originalurl">video/Theorem/23.mp4</property>
  <property name="global_feed">1</property>
  <property name="meta.media.nb_streams">1</property>
  <property name="meta.media.0.stream.type">video</property>
  <property name="meta.media.0.stream.frame_rate">60</property>
  <property name="meta.media.0.stream.sample_aspect_ratio">0</property>
  <property name="meta.media.0.codec.width">640</property>
  <property name="meta.media.0.codec.height">360</property>
  <property name="meta.media.0.codec.rotate">0</property>
  <property name="meta.media.0.codec.frame_rate">60</property>
  <property name="meta.media.0.codec.pix_fmt">yuv420p</property>
  <property name="meta.media.0.codec.sample_aspect_ratio">0</property>
  <property name="meta.media.0.codec.colorspace">601</property>
  <property name="meta.media.0.codec.name">h264</property>
  <property name="meta.media.0.codec.long_name">H.264 / AVC / MPEG-4 AVC / MPEG-4 part 10</property>
  <property name="meta.media.0.codec.bit_rate">0</property>
  <property name="meta.attr.0.stream.HANDLER_NAME.markup">VideoHandler</property>
  <property name="meta.attr.0.stream.VENDOR_ID.markup">[0][0][0][0]</property>
  <property name="meta.attr.0.stream.ENCODER.markup">Lavc58.134.100 libx264</property>
  <property name="meta.attr.0.stream.DURATION.markup">00:00:01.000000000</property>
  <property name="meta.attr.COMMENT.markup">Rendered with Manim Community v0.6.0</property>
  <property name="meta.attr.MAJOR_BRAND.markup">isom</property>
  <property name="meta.attr.MINOR_VERSION.markup">512</property>
  <property name="meta.attr.COMPATIBLE_BRANDS.markup">isomiso2avc1mp41</property>
  <property name="meta.attr.ENCODER.markup">Lavf58.76.100</property>
  <property name="meta.media.sample_aspect_num">1</property>
  <property name="meta.media.sample_aspect_den">1</property>
  <property name="meta.media.frame_rate_num">60</property>
  <property name="meta.media.frame_rate_den">1</property>
  <property name="meta.media.colorspace">601</property>
  <property name="meta.media.color_trc">2</property>
  <property name="meta.media.width">640</property>
  <property name="meta.media.height">360</property>
  <property name="meta.media.color_range">mpeg</property>
 </producer>
 <producer id="producer428" in="00:00:00.000" out="00:00:04.983">
  <property name="length">00:00:05.000</property>
  <property name="eof">pause</property>
  <property name="resource">/home/xiaoxiae/.cache/kdenlive/proxy/d3209caf93c5dc7ce3e1a36497f895b3.png</property>
  <property name="ttl">25</property>
  <property name="aspect_ratio">1</property>
  <property name="progressive">1</property>
  <property name="seekable">1</property>
  <property name="meta.media.width">800</property>
  <property name="meta.media.height">450</property>
  <property name="mlt_service">qimage</property>
  <property name="kdenlive:clipname">23.png</property>
  <property name="kdenlive:duration">00:00:05.000</property>
  <property name="kdenlive:folderid">387</property>
  <property name="kdenlive:id">396</property>
  <property name="kdenlive:file_size">132407</property>
  <property name="kdenlive:file_hash">d3209caf93c5dc7ce3e1a36497f895b3</property>
  <property name="kdenlive:proxy">/home/xiaoxiae/.cache/kdenlive/proxy/d3209caf93c5dc7ce3e1a36497f895b3.png</property>
  <property name="kdenlive:originalurl">video/Theorem/23.png</property>
  <property name="global_feed">1</property>
 </producer>
 <producer id="producer430" in="00:00:00.000" out="00:00:00.983">
  <property name="length">60</property>
  <property name="eof">pause</property>
  <property name="resource">/home/xiaoxiae/.cache/kdenlive/proxy/2bce55f8ca8b21e8447530ef83f3ce91.mkv</property>
  <property name="audio_index">-1</property>
  <property name="video_index">0</property>
  <property name="mute_on_pause">0</property>
  <property name="mlt_service">avformat-novalidate</property>
  <property name="seekable">1</property>
  <property name="aspect_ratio">1</property>
  <property name="kdenlive:clipname">24.mp4</property>
  <property name="kdenlive:folderid">387</property>
  <property name="kdenlive:id">397</property>
  <property name="kdenlive:file_size">52661</property>
  <property name="kdenlive:file_hash">2bce55f8ca8b21e8447530ef83f3ce91</property>
  <property name="kdenlive:proxy">/home/xiaoxiae/.cache/kdenlive/proxy/2bce55f8ca8b21e8447530ef83f3ce91.mkv</property>
  <property name="kdenlive:originalurl">video/Theorem/24.mp4</property>
  <property name="global_feed">1</property>
  <property name="meta.media.nb_streams">1</property>
  <property name="meta.media.0.stream.type">video</property>
  <property name="meta.media.0.stream.frame_rate">60</property>
  <property name="meta.media.0.stream.sample_aspect_ratio">0</property>
  <property name="meta.media.0.codec.width">640</property>
  <property name="meta.media.0.codec.height">360</property>
  <property name="meta.media.0.codec.rotate">0</property>
  <property name="meta.media.0.codec.frame_rate">60</property>
  <property name="meta.media.0.codec.pix_fmt">yuv420p</property>
  <property name="meta.media.0.codec.sample_aspect_ratio">0</property>
  <property name="meta.media.0.codec.colorspace">601</property>
  <property name="meta.media.0.codec.name">h264</property>
  <property name="meta.media.0.codec.long_name">H.264 / AVC / MPEG-4 AVC / MPEG-4 part 10</property>
  <property name="meta.media.0.codec.bit_rate">0</property>
  <property name="meta.attr.0.stream.HANDLER_NAME.markup">VideoHandler</property>
  <property name="meta.attr.0.stream.VENDOR_ID.markup">[0][0][0][0]</property>
  <property name="meta.attr.0.stream.ENCODER.markup">Lavc58.134.100 libx264</property>
  <property name="meta.attr.0.stream.DURATION.markup">00:00:01.000000000</property>
  <property name="meta.attr.COMMENT.markup">Rendered with Manim Community v0.6.0</property>
  <property name="meta.attr.MAJOR_BRAND.markup">isom</property>
  <property name="meta.attr.MINOR_VERSION.markup">512</property>
  <property name="meta.attr.COMPATIBLE_BRANDS.markup">isomiso2avc1mp41</property>
  <property name="meta.attr.ENCODER.markup">Lavf58.76.100</property>
  <property name="meta.media.sample_aspect_num">1</property>
  <property name="meta.media.sample_aspect_den">1</property>
  <property name="meta.media.frame_rate_num">60</property>
  <property name="meta.media.frame_rate_den">1</property>
  <property name="meta.media.colorspace">601</property>
  <property name="meta.media.color_trc">2</property>
  <property name="meta.media.width">640</property>
  <property name="meta.media.height">360</property>
  <property name="meta.media.color_range">mpeg</property>
 </producer>
 <producer id="producer429" in="00:00:00.000" out="00:00:04.983">
  <property name="length">00:00:05.000</property>
  <property name="eof">pause</property>
  <property name="resource">/home/xiaoxiae/.cache/kdenlive/proxy/a3e23d5c2ca3d2d10ca9ac8772058c6f.png</property>
  <property name="ttl">25</property>
  <property name="aspect_ratio">1</property>
  <property name="progressive">1</property>
  <property name="seekable">1</property>
  <property name="meta.media.width">800</property>
  <property name="meta.media.height">450</property>
  <property name="mlt_service">qimage</property>
  <property name="kdenlive:clipname">24.png</property>
  <property name="kdenlive:duration">00:00:05.000</property>
  <property name="kdenlive:folderid">387</property>
  <property name="kdenlive:id">398</property>
  <property name="kdenlive:file_size">143322</property>
  <property name="kdenlive:file_hash">a3e23d5c2ca3d2d10ca9ac8772058c6f</property>
  <property name="kdenlive:proxy">/home/xiaoxiae/.cache/kdenlive/proxy/a3e23d5c2ca3d2d10ca9ac8772058c6f.png</property>
  <property name="kdenlive:originalurl">video/Theorem/24.png</property>
  <property name="global_feed">1</property>
 </producer>
 <producer id="producer431" in="00:00:00.000" out="00:00:00.983">
  <property name="length">60</property>
  <property name="eof">pause</property>
  <property name="resource">/home/xiaoxiae/.cache/kdenlive/proxy/1d13697013f7151010d6924ff42d5efb.mkv</property>
  <property name="audio_index">-1</property>
  <property name="video_index">0</property>
  <property name="mute_on_pause">0</property>
  <property name="mlt_service">avformat-novalidate</property>
  <property name="seekable">1</property>
  <property name="aspect_ratio">1</property>
  <property name="kdenlive:clipname">25.mp4</property>
  <property name="kdenlive:folderid">387</property>
  <property name="kdenlive:id">399</property>
  <property name="kdenlive:file_size">116019</property>
  <property name="kdenlive:file_hash">1d13697013f7151010d6924ff42d5efb</property>
  <property name="kdenlive:proxy">/home/xiaoxiae/.cache/kdenlive/proxy/1d13697013f7151010d6924ff42d5efb.mkv</property>
  <property name="kdenlive:originalurl">video/Theorem/25.mp4</property>
  <property name="global_feed">1</property>
  <property name="meta.media.nb_streams">1</property>
  <property name="meta.media.0.stream.type">video</property>
  <property name="meta.media.0.stream.frame_rate">60</property>
  <property name="meta.media.0.stream.sample_aspect_ratio">0</property>
  <property name="meta.media.0.codec.width">640</property>
  <property name="meta.media.0.codec.height">360</property>
  <property name="meta.media.0.codec.rotate">0</property>
  <property name="meta.media.0.codec.frame_rate">60</property>
  <property name="meta.media.0.codec.pix_fmt">yuv420p</property>
  <property name="meta.media.0.codec.sample_aspect_ratio">0</property>
  <property name="meta.media.0.codec.colorspace">601</property>
  <property name="meta.media.0.codec.name">h264</property>
  <property name="meta.media.0.codec.long_name">H.264 / AVC / MPEG-4 AVC / MPEG-4 part 10</property>
  <property name="meta.media.0.codec.bit_rate">0</property>
  <property name="meta.attr.0.stream.HANDLER_NAME.markup">VideoHandler</property>
  <property name="meta.attr.0.stream.VENDOR_ID.markup">[0][0][0][0]</property>
  <property name="meta.attr.0.stream.ENCODER.markup">Lavc58.134.100 libx264</property>
  <property name="meta.attr.0.stream.DURATION.markup">00:00:01.000000000</property>
  <property name="meta.attr.COMMENT.markup">Rendered with Manim Community v0.6.0</property>
  <property name="meta.attr.MAJOR_BRAND.markup">isom</property>
  <property name="meta.attr.MINOR_VERSION.markup">512</property>
  <property name="meta.attr.COMPATIBLE_BRANDS.markup">isomiso2avc1mp41</property>
  <property name="meta.attr.ENCODER.markup">Lavf58.76.100</property>
  <property name="meta.media.sample_aspect_num">1</property>
  <property name="meta.media.sample_aspect_den">1</property>
  <property name="meta.media.frame_rate_num">60</property>
  <property name="meta.media.frame_rate_den">1</property>
  <property name="meta.media.colorspace">601</property>
  <property name="meta.media.color_trc">2</property>
  <property name="meta.media.width">640</property>
  <property name="meta.media.height">360</property>
  <property name="meta.media.color_range">mpeg</property>
 </producer>
 <producer id="producer432" in="00:00:00.000" out="00:00:04.983">
  <property name="length">00:00:05.000</property>
  <property name="eof">pause</property>
  <property name="resource">/home/xiaoxiae/.cache/kdenlive/proxy/392719c4a3469622c71df8eba1998d79.png</property>
  <property name="ttl">25</property>
  <property name="aspect_ratio">1</property>
  <property name="progressive">1</property>
  <property name="seekable">1</property>
  <property name="meta.media.width">800</property>
  <property name="meta.media.height">450</property>
  <property name="mlt_service">qimage</property>
  <property name="kdenlive:clipname">25.png</property>
  <property name="kdenlive:duration">00:00:05.000</property>
  <property name="kdenlive:folderid">387</property>
  <property name="kdenlive:id">400</property>
  <property name="kdenlive:file_size">267022</property>
  <property name="kdenlive:file_hash">392719c4a3469622c71df8eba1998d79</property>
  <property name="kdenlive:proxy">/home/xiaoxiae/.cache/kdenlive/proxy/392719c4a3469622c71df8eba1998d79.png</property>
  <property name="kdenlive:originalurl">video/Theorem/25.png</property>
  <property name="global_feed">1</property>
 </producer>
 <producer id="producer433" in="00:00:00.000" out="00:00:00.983">
  <property name="length">60</property>
  <property name="eof">pause</property>
  <property name="resource">/home/xiaoxiae/.cache/kdenlive/proxy/2d465274f68fb81f20458d6d33670997.mkv</property>
  <property name="audio_index">-1</property>
  <property name="video_index">0</property>
  <property name="mute_on_pause">0</property>
  <property name="mlt_service">avformat-novalidate</property>
  <property name="seekable">1</property>
  <property name="aspect_ratio">1</property>
  <property name="kdenlive:clipname">26.mp4</property>
  <property name="kdenlive:folderid">387</property>
  <property name="kdenlive:id">401</property>
  <property name="kdenlive:file_size">75908</property>
  <property name="kdenlive:file_hash">2d465274f68fb81f20458d6d33670997</property>
  <property name="kdenlive:proxy">/home/xiaoxiae/.cache/kdenlive/proxy/2d465274f68fb81f20458d6d33670997.mkv</property>
  <property name="kdenlive:originalurl">video/Theorem/26.mp4</property>
  <property name="kdenlive:original.mlt_type">mlt_producer</property>
  <property name="kdenlive:original.in">0</property>
  <property name="kdenlive:original.out">59</property>
  <property name="kdenlive:original.length">60</property>
  <property name="kdenlive:original.eof">pause</property>
  <property name="kdenlive:original.resource">video/Theorem/26.mp4</property>
  <property name="kdenlive:original.meta.media.nb_streams">1</property>
  <property name="kdenlive:original.meta.media.0.stream.type">video</property>
  <property name="kdenlive:original.meta.media.0.stream.frame_rate">60</property>
  <property name="kdenlive:original.meta.media.0.stream.sample_aspect_ratio">0</property>
  <property name="kdenlive:original.meta.media.0.codec.width">3840</property>
  <property name="kdenlive:original.meta.media.0.codec.height">2160</property>
  <property name="kdenlive:original.meta.media.0.codec.rotate">0</property>
  <property name="kdenlive:original.meta.media.0.codec.frame_rate">60</property>
  <property name="kdenlive:original.meta.media.0.codec.pix_fmt">yuv420p</property>
  <property name="kdenlive:original.meta.media.0.codec.sample_aspect_ratio">0</property>
  <property name="kdenlive:original.meta.media.0.codec.colorspace">709</property>
  <property name="kdenlive:original.meta.media.0.codec.name">h264</property>
  <property name="kdenlive:original.meta.media.0.codec.long_name">H.264 / AVC / MPEG-4 AVC / MPEG-4 part 10</property>
  <property name="kdenlive:original.meta.media.0.codec.bit_rate">594216</property>
  <property name="kdenlive:original.meta.attr.0.stream.handler_name.markup">VideoHandler</property>
  <property name="kdenlive:original.meta.attr.0.stream.vendor_id.markup">[0][0][0][0]</property>
  <property name="kdenlive:original.meta.attr.major_brand.markup">isom</property>
  <property name="kdenlive:original.meta.attr.minor_version.markup">512</property>
  <property name="kdenlive:original.meta.attr.compatible_brands.markup">isomiso2avc1mp41</property>
  <property name="kdenlive:original.meta.attr.encoder.markup">Lavf58.76.100</property>
  <property name="kdenlive:original.meta.attr.comment.markup">Rendered with Manim Community v0.6.0</property>
  <property name="kdenlive:original.seekable">1</property>
  <property name="kdenlive:original.width">3840</property>
  <property name="kdenlive:original.height">2160</property>
  <property name="kdenlive:original.meta.media.sample_aspect_num">1</property>
  <property name="kdenlive:original.meta.media.sample_aspect_den">1</property>
  <property name="kdenlive:original.aspect_ratio">1</property>
  <property name="kdenlive:original.audio_index">-1</property>
  <property name="kdenlive:original.video_index">0</property>
  <property name="kdenlive:original.mute_on_pause">0</property>
  <property name="kdenlive:original.mlt_service">avformat-novalidate</property>
  <property name="kdenlive:original.kdenlive:folderid">387</property>
  <property name="kdenlive:original.meta.media.frame_rate_num">60</property>
  <property name="kdenlive:original.meta.media.frame_rate_den">1</property>
  <property name="kdenlive:original.meta.media.colorspace">709</property>
  <property name="kdenlive:original.meta.media.color_trc">2</property>
  <property name="kdenlive:original.meta.media.width">3840</property>
  <property name="kdenlive:original.meta.media.height">2160</property>
  <property name="kdenlive:original.meta.media.color_range">mpeg</property>
  <property name="kdenlive:original.kdenlive:id">424</property>
  <property name="kdenlive:original.kdenlive:file_size">75908</property>
  <property name="kdenlive:original.kdenlive:file_hash">2d465274f68fb81f20458d6d33670997</property>
  <property name="kdenlive:original.backup">1</property>
  <property name="global_feed">1</property>
  <property name="kdenlive:original.kdenlive:original.mlt_type">mlt_producer</property>
  <property name="kdenlive:original.kdenlive:original.in">0</property>
  <property name="kdenlive:original.kdenlive:original.out">59</property>
  <property name="kdenlive:original.kdenlive:original.length">60</property>
  <property name="kdenlive:original.kdenlive:original.eof">pause</property>
  <property name="kdenlive:original.kdenlive:original.resource">video/Theorem/26.mp4</property>
  <property name="kdenlive:original.kdenlive:original.meta.media.nb_streams">1</property>
  <property name="kdenlive:original.kdenlive:original.meta.media.0.stream.type">video</property>
  <property name="kdenlive:original.kdenlive:original.meta.media.0.stream.frame_rate">60</property>
  <property name="kdenlive:original.kdenlive:original.meta.media.0.stream.sample_aspect_ratio">0</property>
  <property name="kdenlive:original.kdenlive:original.meta.media.0.codec.width">3840</property>
  <property name="kdenlive:original.kdenlive:original.meta.media.0.codec.height">2160</property>
  <property name="kdenlive:original.kdenlive:original.meta.media.0.codec.rotate">0</property>
  <property name="kdenlive:original.kdenlive:original.meta.media.0.codec.frame_rate">60</property>
  <property name="kdenlive:original.kdenlive:original.meta.media.0.codec.pix_fmt">yuv420p</property>
  <property name="kdenlive:original.kdenlive:original.meta.media.0.codec.sample_aspect_ratio">0</property>
  <property name="kdenlive:original.kdenlive:original.meta.media.0.codec.colorspace">709</property>
  <property name="kdenlive:original.kdenlive:original.meta.media.0.codec.name">h264</property>
  <property name="kdenlive:original.kdenlive:original.meta.media.0.codec.long_name">H.264 / AVC / MPEG-4 AVC / MPEG-4 part 10</property>
  <property name="kdenlive:original.kdenlive:original.meta.media.0.codec.bit_rate">594216</property>
  <property name="kdenlive:original.kdenlive:original.meta.attr.0.stream.handler_name.markup">VideoHandler</property>
  <property name="kdenlive:original.kdenlive:original.meta.attr.0.stream.vendor_id.markup">[0][0][0][0]</property>
  <property name="kdenlive:original.kdenlive:original.meta.attr.major_brand.markup">isom</property>
  <property name="kdenlive:original.kdenlive:original.meta.attr.minor_version.markup">512</property>
  <property name="kdenlive:original.kdenlive:original.meta.attr.compatible_brands.markup">isomiso2avc1mp41</property>
  <property name="kdenlive:original.kdenlive:original.meta.attr.encoder.markup">Lavf58.76.100</property>
  <property name="kdenlive:original.kdenlive:original.meta.attr.comment.markup">Rendered with Manim Community v0.6.0</property>
  <property name="kdenlive:original.kdenlive:original.seekable">1</property>
  <property name="kdenlive:original.kdenlive:original.width">3840</property>
  <property name="kdenlive:original.kdenlive:original.height">2160</property>
  <property name="kdenlive:original.kdenlive:original.meta.media.sample_aspect_num">1</property>
  <property name="kdenlive:original.kdenlive:original.meta.media.sample_aspect_den">1</property>
  <property name="kdenlive:original.kdenlive:original.aspect_ratio">1</property>
  <property name="kdenlive:original.kdenlive:original.audio_index">-1</property>
  <property name="kdenlive:original.kdenlive:original.video_index">0</property>
  <property name="kdenlive:original.kdenlive:original.mute_on_pause">0</property>
  <property name="kdenlive:original.kdenlive:original.mlt_service">avformat-novalidate</property>
  <property name="kdenlive:original.kdenlive:original.kdenlive:folderid">387</property>
  <property name="kdenlive:original.kdenlive:original.meta.media.frame_rate_num">60</property>
  <property name="kdenlive:original.kdenlive:original.meta.media.frame_rate_den">1</property>
  <property name="kdenlive:original.kdenlive:original.meta.media.colorspace">709</property>
  <property name="kdenlive:original.kdenlive:original.meta.media.color_trc">2</property>
  <property name="kdenlive:original.kdenlive:original.meta.media.width">3840</property>
  <property name="kdenlive:original.kdenlive:original.meta.media.height">2160</property>
  <property name="kdenlive:original.kdenlive:original.meta.media.color_range">mpeg</property>
  <property name="kdenlive:original.kdenlive:original.kdenlive:id">424</property>
  <property name="kdenlive:original.kdenlive:original.kdenlive:file_size">75908</property>
  <property name="kdenlive:original.kdenlive:original.kdenlive:file_hash">2d465274f68fb81f20458d6d33670997</property>
  <property name="kdenlive:original.root">/</property>
  <property name="kdenlive:original.global_feed">1</property>
  <property name="meta.media.nb_streams">1</property>
  <property name="meta.media.0.stream.type">video</property>
  <property name="meta.media.0.stream.frame_rate">60</property>
  <property name="meta.media.0.stream.sample_aspect_ratio">0</property>
  <property name="meta.media.0.codec.width">640</property>
  <property name="meta.media.0.codec.height">360</property>
  <property name="meta.media.0.codec.rotate">0</property>
  <property name="meta.media.0.codec.frame_rate">60</property>
  <property name="meta.media.0.codec.pix_fmt">yuv420p</property>
  <property name="meta.media.0.codec.sample_aspect_ratio">0</property>
  <property name="meta.media.0.codec.colorspace">601</property>
  <property name="meta.media.0.codec.name">h264</property>
  <property name="meta.media.0.codec.long_name">H.264 / AVC / MPEG-4 AVC / MPEG-4 part 10</property>
  <property name="meta.media.0.codec.bit_rate">0</property>
  <property name="meta.attr.0.stream.HANDLER_NAME.markup">VideoHandler</property>
  <property name="meta.attr.0.stream.VENDOR_ID.markup">[0][0][0][0]</property>
  <property name="meta.attr.0.stream.ENCODER.markup">Lavc58.134.100 libx264</property>
  <property name="meta.attr.0.stream.DURATION.markup">00:00:01.000000000</property>
  <property name="meta.attr.COMMENT.markup">Rendered with Manim Community v0.6.0</property>
  <property name="meta.attr.MAJOR_BRAND.markup">isom</property>
  <property name="meta.attr.MINOR_VERSION.markup">512</property>
  <property name="meta.attr.COMPATIBLE_BRANDS.markup">isomiso2avc1mp41</property>
  <property name="meta.attr.ENCODER.markup">Lavf58.76.100</property>
  <property name="meta.media.sample_aspect_num">1</property>
  <property name="meta.media.sample_aspect_den">1</property>
  <property name="meta.media.frame_rate_num">60</property>
  <property name="meta.media.frame_rate_den">1</property>
  <property name="meta.media.colorspace">601</property>
  <property name="meta.media.color_trc">2</property>
  <property name="meta.media.width">640</property>
  <property name="meta.media.height">360</property>
  <property name="meta.media.color_range">mpeg</property>
 </producer>
 <producer id="producer435" in="00:00:00.000" out="00:00:04.983">
  <property name="length">00:00:05.000</property>
  <property name="eof">pause</property>
  <property name="resource">/home/xiaoxiae/.cache/kdenlive/proxy/0b5d4c0c0ba09241d7f214c538d64e61.png</property>
  <property name="ttl">25</property>
  <property name="aspect_ratio">1</property>
  <property name="progressive">1</property>
  <property name="seekable">1</property>
  <property name="meta.media.width">800</property>
  <property name="meta.media.height">450</property>
  <property name="mlt_service">qimage</property>
  <property name="kdenlive:clipname">26.png</property>
  <property name="kdenlive:duration">00:00:05.000</property>
  <property name="kdenlive:folderid">387</property>
  <property name="kdenlive:id">402</property>
  <property name="kdenlive:file_size">251315</property>
  <property name="kdenlive:file_hash">0b5d4c0c0ba09241d7f214c538d64e61</property>
  <property name="kdenlive:proxy">/home/xiaoxiae/.cache/kdenlive/proxy/0b5d4c0c0ba09241d7f214c538d64e61.png</property>
  <property name="kdenlive:originalurl">video/Theorem/26.png</property>
  <property name="global_feed">1</property>
 </producer>
 <producer id="producer436" in="00:00:00.000" out="00:00:00.983">
  <property name="length">60</property>
  <property name="eof">pause</property>
  <property name="resource">/home/xiaoxiae/.cache/kdenlive/proxy/c63eb50119b2eb0a2154b072d88b7aa4.mkv</property>
  <property name="audio_index">-1</property>
  <property name="video_index">0</property>
  <property name="mute_on_pause">0</property>
  <property name="mlt_service">avformat-novalidate</property>
  <property name="seekable">1</property>
  <property name="aspect_ratio">1</property>
  <property name="kdenlive:clipname">27.mp4</property>
  <property name="kdenlive:folderid">387</property>
  <property name="kdenlive:id">403</property>
  <property name="kdenlive:file_size">78978</property>
  <property name="kdenlive:file_hash">c63eb50119b2eb0a2154b072d88b7aa4</property>
  <property name="kdenlive:proxy">/home/xiaoxiae/.cache/kdenlive/proxy/c63eb50119b2eb0a2154b072d88b7aa4.mkv</property>
  <property name="kdenlive:originalurl">video/Theorem/27.mp4</property>
  <property name="kdenlive:original.mlt_type">mlt_producer</property>
  <property name="kdenlive:original.in">0</property>
  <property name="kdenlive:original.out">59</property>
  <property name="kdenlive:original.length">60</property>
  <property name="kdenlive:original.eof">pause</property>
  <property name="kdenlive:original.resource">video/Theorem/27.mp4</property>
  <property name="kdenlive:original.meta.media.nb_streams">1</property>
  <property name="kdenlive:original.meta.media.0.stream.type">video</property>
  <property name="kdenlive:original.meta.media.0.stream.frame_rate">60</property>
  <property name="kdenlive:original.meta.media.0.stream.sample_aspect_ratio">0</property>
  <property name="kdenlive:original.meta.media.0.codec.width">3840</property>
  <property name="kdenlive:original.meta.media.0.codec.height">2160</property>
  <property name="kdenlive:original.meta.media.0.codec.rotate">0</property>
  <property name="kdenlive:original.meta.media.0.codec.frame_rate">60</property>
  <property name="kdenlive:original.meta.media.0.codec.pix_fmt">yuv420p</property>
  <property name="kdenlive:original.meta.media.0.codec.sample_aspect_ratio">0</property>
  <property name="kdenlive:original.meta.media.0.codec.colorspace">709</property>
  <property name="kdenlive:original.meta.media.0.codec.name">h264</property>
  <property name="kdenlive:original.meta.media.0.codec.long_name">H.264 / AVC / MPEG-4 AVC / MPEG-4 part 10</property>
  <property name="kdenlive:original.meta.media.0.codec.bit_rate">618904</property>
  <property name="kdenlive:original.meta.attr.0.stream.handler_name.markup">VideoHandler</property>
  <property name="kdenlive:original.meta.attr.0.stream.vendor_id.markup">[0][0][0][0]</property>
  <property name="kdenlive:original.meta.attr.major_brand.markup">isom</property>
  <property name="kdenlive:original.meta.attr.minor_version.markup">512</property>
  <property name="kdenlive:original.meta.attr.compatible_brands.markup">isomiso2avc1mp41</property>
  <property name="kdenlive:original.meta.attr.encoder.markup">Lavf58.76.100</property>
  <property name="kdenlive:original.meta.attr.comment.markup">Rendered with Manim Community v0.6.0</property>
  <property name="kdenlive:original.seekable">1</property>
  <property name="kdenlive:original.width">3840</property>
  <property name="kdenlive:original.height">2160</property>
  <property name="kdenlive:original.meta.media.sample_aspect_num">1</property>
  <property name="kdenlive:original.meta.media.sample_aspect_den">1</property>
  <property name="kdenlive:original.aspect_ratio">1</property>
  <property name="kdenlive:original.audio_index">-1</property>
  <property name="kdenlive:original.video_index">0</property>
  <property name="kdenlive:original.mute_on_pause">0</property>
  <property name="kdenlive:original.mlt_service">avformat-novalidate</property>
  <property name="kdenlive:original.kdenlive:folderid">387</property>
  <property name="kdenlive:original.meta.media.frame_rate_num">60</property>
  <property name="kdenlive:original.meta.media.frame_rate_den">1</property>
  <property name="kdenlive:original.meta.media.colorspace">709</property>
  <property name="kdenlive:original.meta.media.color_trc">2</property>
  <property name="kdenlive:original.meta.media.width">3840</property>
  <property name="kdenlive:original.meta.media.height">2160</property>
  <property name="kdenlive:original.meta.media.color_range">mpeg</property>
  <property name="kdenlive:original.kdenlive:id">426</property>
  <property name="kdenlive:original.kdenlive:file_size">78978</property>
  <property name="kdenlive:original.kdenlive:file_hash">c63eb50119b2eb0a2154b072d88b7aa4</property>
  <property name="kdenlive:original.backup">1</property>
  <property name="global_feed">1</property>
  <property name="kdenlive:original.kdenlive:original.mlt_type">mlt_producer</property>
  <property name="kdenlive:original.kdenlive:original.in">0</property>
  <property name="kdenlive:original.kdenlive:original.out">59</property>
  <property name="kdenlive:original.kdenlive:original.length">60</property>
  <property name="kdenlive:original.kdenlive:original.eof">pause</property>
  <property name="kdenlive:original.kdenlive:original.resource">video/Theorem/27.mp4</property>
  <property name="kdenlive:original.kdenlive:original.meta.media.nb_streams">1</property>
  <property name="kdenlive:original.kdenlive:original.meta.media.0.stream.type">video</property>
  <property name="kdenlive:original.kdenlive:original.meta.media.0.stream.frame_rate">60</property>
  <property name="kdenlive:original.kdenlive:original.meta.media.0.stream.sample_aspect_ratio">0</property>
  <property name="kdenlive:original.kdenlive:original.meta.media.0.codec.width">3840</property>
  <property name="kdenlive:original.kdenlive:original.meta.media.0.codec.height">2160</property>
  <property name="kdenlive:original.kdenlive:original.meta.media.0.codec.rotate">0</property>
  <property name="kdenlive:original.kdenlive:original.meta.media.0.codec.frame_rate">60</property>
  <property name="kdenlive:original.kdenlive:original.meta.media.0.codec.pix_fmt">yuv420p</property>
  <property name="kdenlive:original.kdenlive:original.meta.media.0.codec.sample_aspect_ratio">0</property>
  <property name="kdenlive:original.kdenlive:original.meta.media.0.codec.colorspace">709</property>
  <property name="kdenlive:original.kdenlive:original.meta.media.0.codec.name">h264</property>
  <property name="kdenlive:original.kdenlive:original.meta.media.0.codec.long_name">H.264 / AVC / MPEG-4 AVC / MPEG-4 part 10</property>
  <property name="kdenlive:original.kdenlive:original.meta.media.0.codec.bit_rate">618904</property>
  <property name="kdenlive:original.kdenlive:original.meta.attr.0.stream.handler_name.markup">VideoHandler</property>
  <property name="kdenlive:original.kdenlive:original.meta.attr.0.stream.vendor_id.markup">[0][0][0][0]</property>
  <property name="kdenlive:original.kdenlive:original.meta.attr.major_brand.markup">isom</property>
  <property name="kdenlive:original.kdenlive:original.meta.attr.minor_version.markup">512</property>
  <property name="kdenlive:original.kdenlive:original.meta.attr.compatible_brands.markup">isomiso2avc1mp41</property>
  <property name="kdenlive:original.kdenlive:original.meta.attr.encoder.markup">Lavf58.76.100</property>
  <property name="kdenlive:original.kdenlive:original.meta.attr.comment.markup">Rendered with Manim Community v0.6.0</property>
  <property name="kdenlive:original.kdenlive:original.seekable">1</property>
  <property name="kdenlive:original.kdenlive:original.width">3840</property>
  <property name="kdenlive:original.kdenlive:original.height">2160</property>
  <property name="kdenlive:original.kdenlive:original.meta.media.sample_aspect_num">1</property>
  <property name="kdenlive:original.kdenlive:original.meta.media.sample_aspect_den">1</property>
  <property name="kdenlive:original.kdenlive:original.aspect_ratio">1</property>
  <property name="kdenlive:original.kdenlive:original.audio_index">-1</property>
  <property name="kdenlive:original.kdenlive:original.video_index">0</property>
  <property name="kdenlive:original.kdenlive:original.mute_on_pause">0</property>
  <property name="kdenlive:original.kdenlive:original.mlt_service">avformat-novalidate</property>
  <property name="kdenlive:original.kdenlive:original.kdenlive:folderid">387</property>
  <property name="kdenlive:original.kdenlive:original.meta.media.frame_rate_num">60</property>
  <property name="kdenlive:original.kdenlive:original.meta.media.frame_rate_den">1</property>
  <property name="kdenlive:original.kdenlive:original.meta.media.colorspace">709</property>
  <property name="kdenlive:original.kdenlive:original.meta.media.color_trc">2</property>
  <property name="kdenlive:original.kdenlive:original.meta.media.width">3840</property>
  <property name="kdenlive:original.kdenlive:original.meta.media.height">2160</property>
  <property name="kdenlive:original.kdenlive:original.meta.media.color_range">mpeg</property>
  <property name="kdenlive:original.kdenlive:original.kdenlive:id">426</property>
  <property name="kdenlive:original.kdenlive:original.kdenlive:file_size">78978</property>
  <property name="kdenlive:original.kdenlive:original.kdenlive:file_hash">c63eb50119b2eb0a2154b072d88b7aa4</property>
  <property name="kdenlive:original.root">/</property>
  <property name="kdenlive:original.global_feed">1</property>
  <property name="meta.media.nb_streams">1</property>
  <property name="meta.media.0.stream.type">video</property>
  <property name="meta.media.0.stream.frame_rate">60</property>
  <property name="meta.media.0.stream.sample_aspect_ratio">0</property>
  <property name="meta.media.0.codec.width">640</property>
  <property name="meta.media.0.codec.height">360</property>
  <property name="meta.media.0.codec.rotate">0</property>
  <property name="meta.media.0.codec.frame_rate">60</property>
  <property name="meta.media.0.codec.pix_fmt">yuv420p</property>
  <property name="meta.media.0.codec.sample_aspect_ratio">0</property>
  <property name="meta.media.0.codec.colorspace">601</property>
  <property name="meta.media.0.codec.name">h264</property>
  <property name="meta.media.0.codec.long_name">H.264 / AVC / MPEG-4 AVC / MPEG-4 part 10</property>
  <property name="meta.media.0.codec.bit_rate">0</property>
  <property name="meta.attr.0.stream.HANDLER_NAME.markup">VideoHandler</property>
  <property name="meta.attr.0.stream.VENDOR_ID.markup">[0][0][0][0]</property>
  <property name="meta.attr.0.stream.ENCODER.markup">Lavc58.134.100 libx264</property>
  <property name="meta.attr.0.stream.DURATION.markup">00:00:01.000000000</property>
  <property name="meta.attr.COMMENT.markup">Rendered with Manim Community v0.6.0</property>
  <property name="meta.attr.MAJOR_BRAND.markup">isom</property>
  <property name="meta.attr.MINOR_VERSION.markup">512</property>
  <property name="meta.attr.COMPATIBLE_BRANDS.markup">isomiso2avc1mp41</property>
  <property name="meta.attr.ENCODER.markup">Lavf58.76.100</property>
  <property name="meta.media.sample_aspect_num">1</property>
  <property name="meta.media.sample_aspect_den">1</property>
  <property name="meta.media.frame_rate_num">60</property>
  <property name="meta.media.frame_rate_den">1</property>
  <property name="meta.media.colorspace">601</property>
  <property name="meta.media.color_trc">2</property>
  <property name="meta.media.width">640</property>
  <property name="meta.media.height">360</property>
  <property name="meta.media.color_range">mpeg</property>
 </producer>
 <producer id="producer434" in="00:00:00.000" out="00:00:04.983">
  <property name="length">00:00:05.000</property>
  <property name="eof">pause</property>
  <property name="resource">/home/xiaoxiae/.cache/kdenlive/proxy/92bd98b727602e6f9a05f81cd5b87a42.png</property>
  <property name="ttl">25</property>
  <property name="aspect_ratio">1</property>
  <property name="progressive">1</property>
  <property name="seekable">1</property>
  <property name="meta.media.width">800</property>
  <property name="meta.media.height">450</property>
  <property name="mlt_service">qimage</property>
  <property name="kdenlive:clipname">27.png</property>
  <property name="kdenlive:duration">00:00:05.000</property>
  <property name="kdenlive:folderid">387</property>
  <property name="kdenlive:id">404</property>
  <property name="kdenlive:file_size">211779</property>
  <property name="kdenlive:file_hash">92bd98b727602e6f9a05f81cd5b87a42</property>
  <property name="kdenlive:proxy">/home/xiaoxiae/.cache/kdenlive/proxy/92bd98b727602e6f9a05f81cd5b87a42.png</property>
  <property name="kdenlive:originalurl">video/Theorem/27.png</property>
  <property name="global_feed">1</property>
 </producer>
 <producer id="producer437" in="00:00:00.000" out="00:00:00.983">
  <property name="length">60</property>
  <property name="eof">pause</property>
  <property name="resource">/home/xiaoxiae/.cache/kdenlive/proxy/36c17f73afb7507b08abf4bc396ca32e.mkv</property>
  <property name="audio_index">-1</property>
  <property name="video_index">0</property>
  <property name="mute_on_pause">0</property>
  <property name="mlt_service">avformat-novalidate</property>
  <property name="seekable">1</property>
  <property name="aspect_ratio">1</property>
  <property name="kdenlive:clipname">28.mp4</property>
  <property name="kdenlive:folderid">387</property>
  <property name="kdenlive:id">405</property>
  <property name="kdenlive:file_size">299918</property>
  <property name="kdenlive:file_hash">36c17f73afb7507b08abf4bc396ca32e</property>
  <property name="kdenlive:proxy">/home/xiaoxiae/.cache/kdenlive/proxy/36c17f73afb7507b08abf4bc396ca32e.mkv</property>
  <property name="kdenlive:originalurl">video/Theorem/28.mp4</property>
  <property name="kdenlive:original.mlt_type">mlt_producer</property>
  <property name="kdenlive:original.in">0</property>
  <property name="kdenlive:original.out">59</property>
  <property name="kdenlive:original.length">60</property>
  <property name="kdenlive:original.eof">pause</property>
  <property name="kdenlive:original.resource">video/Theorem/28.mp4</property>
  <property name="kdenlive:original.meta.media.nb_streams">1</property>
  <property name="kdenlive:original.meta.media.0.stream.type">video</property>
  <property name="kdenlive:original.meta.media.0.stream.frame_rate">60</property>
  <property name="kdenlive:original.meta.media.0.stream.sample_aspect_ratio">0</property>
  <property name="kdenlive:original.meta.media.0.codec.width">3840</property>
  <property name="kdenlive:original.meta.media.0.codec.height">2160</property>
  <property name="kdenlive:original.meta.media.0.codec.rotate">0</property>
  <property name="kdenlive:original.meta.media.0.codec.frame_rate">60</property>
  <property name="kdenlive:original.meta.media.0.codec.pix_fmt">yuv420p</property>
  <property name="kdenlive:original.meta.media.0.codec.sample_aspect_ratio">0</property>
  <property name="kdenlive:original.meta.media.0.codec.colorspace">709</property>
  <property name="kdenlive:original.meta.media.0.codec.name">h264</property>
  <property name="kdenlive:original.meta.media.0.codec.long_name">H.264 / AVC / MPEG-4 AVC / MPEG-4 part 10</property>
  <property name="kdenlive:original.meta.media.0.codec.bit_rate">2386616</property>
  <property name="kdenlive:original.meta.attr.0.stream.handler_name.markup">VideoHandler</property>
  <property name="kdenlive:original.meta.attr.0.stream.vendor_id.markup">[0][0][0][0]</property>
  <property name="kdenlive:original.meta.attr.major_brand.markup">isom</property>
  <property name="kdenlive:original.meta.attr.minor_version.markup">512</property>
  <property name="kdenlive:original.meta.attr.compatible_brands.markup">isomiso2avc1mp41</property>
  <property name="kdenlive:original.meta.attr.encoder.markup">Lavf58.76.100</property>
  <property name="kdenlive:original.meta.attr.comment.markup">Rendered with Manim Community v0.6.0</property>
  <property name="kdenlive:original.seekable">1</property>
  <property name="kdenlive:original.width">3840</property>
  <property name="kdenlive:original.height">2160</property>
  <property name="kdenlive:original.meta.media.sample_aspect_num">1</property>
  <property name="kdenlive:original.meta.media.sample_aspect_den">1</property>
  <property name="kdenlive:original.aspect_ratio">1</property>
  <property name="kdenlive:original.audio_index">-1</property>
  <property name="kdenlive:original.video_index">0</property>
  <property name="kdenlive:original.mute_on_pause">0</property>
  <property name="kdenlive:original.mlt_service">avformat-novalidate</property>
  <property name="kdenlive:original.kdenlive:folderid">387</property>
  <property name="kdenlive:original.meta.media.frame_rate_num">60</property>
  <property name="kdenlive:original.meta.media.frame_rate_den">1</property>
  <property name="kdenlive:original.meta.media.colorspace">709</property>
  <property name="kdenlive:original.meta.media.color_trc">2</property>
  <property name="kdenlive:original.meta.media.width">3840</property>
  <property name="kdenlive:original.meta.media.height">2160</property>
  <property name="kdenlive:original.meta.media.color_range">mpeg</property>
  <property name="kdenlive:original.kdenlive:id">428</property>
  <property name="kdenlive:original.kdenlive:file_size">299918</property>
  <property name="kdenlive:original.kdenlive:file_hash">36c17f73afb7507b08abf4bc396ca32e</property>
  <property name="kdenlive:original.backup">1</property>
  <property name="global_feed">1</property>
  <property name="kdenlive:original.kdenlive:original.mlt_type">mlt_producer</property>
  <property name="kdenlive:original.kdenlive:original.in">0</property>
  <property name="kdenlive:original.kdenlive:original.out">59</property>
  <property name="kdenlive:original.kdenlive:original.length">60</property>
  <property name="kdenlive:original.kdenlive:original.eof">pause</property>
  <property name="kdenlive:original.kdenlive:original.resource">video/Theorem/28.mp4</property>
  <property name="kdenlive:original.kdenlive:original.meta.media.nb_streams">1</property>
  <property name="kdenlive:original.kdenlive:original.meta.media.0.stream.type">video</property>
  <property name="kdenlive:original.kdenlive:original.meta.media.0.stream.frame_rate">60</property>
  <property name="kdenlive:original.kdenlive:original.meta.media.0.stream.sample_aspect_ratio">0</property>
  <property name="kdenlive:original.kdenlive:original.meta.media.0.codec.width">3840</property>
  <property name="kdenlive:original.kdenlive:original.meta.media.0.codec.height">2160</property>
  <property name="kdenlive:original.kdenlive:original.meta.media.0.codec.rotate">0</property>
  <property name="kdenlive:original.kdenlive:original.meta.media.0.codec.frame_rate">60</property>
  <property name="kdenlive:original.kdenlive:original.meta.media.0.codec.pix_fmt">yuv420p</property>
  <property name="kdenlive:original.kdenlive:original.meta.media.0.codec.sample_aspect_ratio">0</property>
  <property name="kdenlive:original.kdenlive:original.meta.media.0.codec.colorspace">709</property>
  <property name="kdenlive:original.kdenlive:original.meta.media.0.codec.name">h264</property>
  <property name="kdenlive:original.kdenlive:original.meta.media.0.codec.long_name">H.264 / AVC / MPEG-4 AVC / MPEG-4 part 10</property>
  <property name="kdenlive:original.kdenlive:original.meta.media.0.codec.bit_rate">2386616</property>
  <property name="kdenlive:original.kdenlive:original.meta.attr.0.stream.handler_name.markup">VideoHandler</property>
  <property name="kdenlive:original.kdenlive:original.meta.attr.0.stream.vendor_id.markup">[0][0][0][0]</property>
  <property name="kdenlive:original.kdenlive:original.meta.attr.major_brand.markup">isom</property>
  <property name="kdenlive:original.kdenlive:original.meta.attr.minor_version.markup">512</property>
  <property name="kdenlive:original.kdenlive:original.meta.attr.compatible_brands.markup">isomiso2avc1mp41</property>
  <property name="kdenlive:original.kdenlive:original.meta.attr.encoder.markup">Lavf58.76.100</property>
  <property name="kdenlive:original.kdenlive:original.meta.attr.comment.markup">Rendered with Manim Community v0.6.0</property>
  <property name="kdenlive:original.kdenlive:original.seekable">1</property>
  <property name="kdenlive:original.kdenlive:original.width">3840</property>
  <property name="kdenlive:original.kdenlive:original.height">2160</property>
  <property name="kdenlive:original.kdenlive:original.meta.media.sample_aspect_num">1</property>
  <property name="kdenlive:original.kdenlive:original.meta.media.sample_aspect_den">1</property>
  <property name="kdenlive:original.kdenlive:original.aspect_ratio">1</property>
  <property name="kdenlive:original.kdenlive:original.audio_index">-1</property>
  <property name="kdenlive:original.kdenlive:original.video_index">0</property>
  <property name="kdenlive:original.kdenlive:original.mute_on_pause">0</property>
  <property name="kdenlive:original.kdenlive:original.mlt_service">avformat-novalidate</property>
  <property name="kdenlive:original.kdenlive:original.kdenlive:folderid">387</property>
  <property name="kdenlive:original.kdenlive:original.meta.media.frame_rate_num">60</property>
  <property name="kdenlive:original.kdenlive:original.meta.media.frame_rate_den">1</property>
  <property name="kdenlive:original.kdenlive:original.meta.media.colorspace">709</property>
  <property name="kdenlive:original.kdenlive:original.meta.media.color_trc">2</property>
  <property name="kdenlive:original.kdenlive:original.meta.media.width">3840</property>
  <property name="kdenlive:original.kdenlive:original.meta.media.height">2160</property>
  <property name="kdenlive:original.kdenlive:original.meta.media.color_range">mpeg</property>
  <property name="kdenlive:original.kdenlive:original.kdenlive:id">428</property>
  <property name="kdenlive:original.kdenlive:original.kdenlive:file_size">299918</property>
  <property name="kdenlive:original.kdenlive:original.kdenlive:file_hash">36c17f73afb7507b08abf4bc396ca32e</property>
  <property name="kdenlive:original.root">/</property>
  <property name="kdenlive:original.global_feed">1</property>
  <property name="meta.media.nb_streams">1</property>
  <property name="meta.media.0.stream.type">video</property>
  <property name="meta.media.0.stream.frame_rate">60</property>
  <property name="meta.media.0.stream.sample_aspect_ratio">0</property>
  <property name="meta.media.0.codec.width">640</property>
  <property name="meta.media.0.codec.height">360</property>
  <property name="meta.media.0.codec.rotate">0</property>
  <property name="meta.media.0.codec.frame_rate">60</property>
  <property name="meta.media.0.codec.pix_fmt">yuv420p</property>
  <property name="meta.media.0.codec.sample_aspect_ratio">0</property>
  <property name="meta.media.0.codec.colorspace">601</property>
  <property name="meta.media.0.codec.name">h264</property>
  <property name="meta.media.0.codec.long_name">H.264 / AVC / MPEG-4 AVC / MPEG-4 part 10</property>
  <property name="meta.media.0.codec.bit_rate">0</property>
  <property name="meta.attr.0.stream.HANDLER_NAME.markup">VideoHandler</property>
  <property name="meta.attr.0.stream.VENDOR_ID.markup">[0][0][0][0]</property>
  <property name="meta.attr.0.stream.ENCODER.markup">Lavc58.134.100 libx264</property>
  <property name="meta.attr.0.stream.DURATION.markup">00:00:01.000000000</property>
  <property name="meta.attr.COMMENT.markup">Rendered with Manim Community v0.6.0</property>
  <property name="meta.attr.MAJOR_BRAND.markup">isom</property>
  <property name="meta.attr.MINOR_VERSION.markup">512</property>
  <property name="meta.attr.COMPATIBLE_BRANDS.markup">isomiso2avc1mp41</property>
  <property name="meta.attr.ENCODER.markup">Lavf58.76.100</property>
  <property name="meta.media.sample_aspect_num">1</property>
  <property name="meta.media.sample_aspect_den">1</property>
  <property name="meta.media.frame_rate_num">60</property>
  <property name="meta.media.frame_rate_den">1</property>
  <property name="meta.media.colorspace">601</property>
  <property name="meta.media.color_trc">2</property>
  <property name="meta.media.width">640</property>
  <property name="meta.media.height">360</property>
  <property name="meta.media.color_range">mpeg</property>
 </producer>
 <producer id="producer438" in="00:00:00.000" out="00:00:04.983">
  <property name="length">00:00:05.000</property>
  <property name="eof">pause</property>
  <property name="resource">/home/xiaoxiae/.cache/kdenlive/proxy/aba2028d5d47f4a4cee5e0b0429c75c8.png</property>
  <property name="ttl">25</property>
  <property name="aspect_ratio">1</property>
  <property name="progressive">1</property>
  <property name="seekable">1</property>
  <property name="meta.media.width">800</property>
  <property name="meta.media.height">450</property>
  <property name="mlt_service">qimage</property>
  <property name="kdenlive:clipname">28.png</property>
  <property name="kdenlive:duration">00:00:05.000</property>
  <property name="kdenlive:folderid">387</property>
  <property name="kdenlive:id">406</property>
  <property name="kdenlive:file_size">524375</property>
  <property name="kdenlive:file_hash">aba2028d5d47f4a4cee5e0b0429c75c8</property>
  <property name="kdenlive:proxy">/home/xiaoxiae/.cache/kdenlive/proxy/aba2028d5d47f4a4cee5e0b0429c75c8.png</property>
  <property name="kdenlive:originalurl">video/Theorem/28.png</property>
  <property name="global_feed">1</property>
 </producer>
 <producer id="producer441" in="00:00:00.000" out="00:00:00.983">
  <property name="length">60</property>
  <property name="eof">pause</property>
  <property name="resource">/home/xiaoxiae/.cache/kdenlive/proxy/cb50ac0abb54136af1b4c022c987991a.mkv</property>
  <property name="audio_index">-1</property>
  <property name="video_index">0</property>
  <property name="mute_on_pause">0</property>
  <property name="mlt_service">avformat-novalidate</property>
  <property name="seekable">1</property>
  <property name="aspect_ratio">1</property>
  <property name="kdenlive:clipname">29.mp4</property>
  <property name="kdenlive:folderid">387</property>
  <property name="kdenlive:id">407</property>
  <property name="kdenlive:file_size">230126</property>
  <property name="kdenlive:file_hash">cb50ac0abb54136af1b4c022c987991a</property>
  <property name="kdenlive:proxy">/home/xiaoxiae/.cache/kdenlive/proxy/cb50ac0abb54136af1b4c022c987991a.mkv</property>
  <property name="kdenlive:originalurl">video/Theorem/29.mp4</property>
  <property name="kdenlive:original.mlt_type">mlt_producer</property>
  <property name="kdenlive:original.in">0</property>
  <property name="kdenlive:original.out">59</property>
  <property name="kdenlive:original.length">60</property>
  <property name="kdenlive:original.eof">pause</property>
  <property name="kdenlive:original.resource">video/Theorem/29.mp4</property>
  <property name="kdenlive:original.meta.media.nb_streams">1</property>
  <property name="kdenlive:original.meta.media.0.stream.type">video</property>
  <property name="kdenlive:original.meta.media.0.stream.frame_rate">60</property>
  <property name="kdenlive:original.meta.media.0.stream.sample_aspect_ratio">0</property>
  <property name="kdenlive:original.meta.media.0.codec.width">3840</property>
  <property name="kdenlive:original.meta.media.0.codec.height">2160</property>
  <property name="kdenlive:original.meta.media.0.codec.rotate">0</property>
  <property name="kdenlive:original.meta.media.0.codec.frame_rate">60</property>
  <property name="kdenlive:original.meta.media.0.codec.pix_fmt">yuv420p</property>
  <property name="kdenlive:original.meta.media.0.codec.sample_aspect_ratio">0</property>
  <property name="kdenlive:original.meta.media.0.codec.colorspace">709</property>
  <property name="kdenlive:original.meta.media.0.codec.name">h264</property>
  <property name="kdenlive:original.meta.media.0.codec.long_name">H.264 / AVC / MPEG-4 AVC / MPEG-4 part 10</property>
  <property name="kdenlive:original.meta.media.0.codec.bit_rate">1828856</property>
  <property name="kdenlive:original.meta.attr.0.stream.handler_name.markup">VideoHandler</property>
  <property name="kdenlive:original.meta.attr.0.stream.vendor_id.markup">[0][0][0][0]</property>
  <property name="kdenlive:original.meta.attr.major_brand.markup">isom</property>
  <property name="kdenlive:original.meta.attr.minor_version.markup">512</property>
  <property name="kdenlive:original.meta.attr.compatible_brands.markup">isomiso2avc1mp41</property>
  <property name="kdenlive:original.meta.attr.encoder.markup">Lavf58.76.100</property>
  <property name="kdenlive:original.meta.attr.comment.markup">Rendered with Manim Community v0.6.0</property>
  <property name="kdenlive:original.seekable">1</property>
  <property name="kdenlive:original.width">3840</property>
  <property name="kdenlive:original.height">2160</property>
  <property name="kdenlive:original.meta.media.sample_aspect_num">1</property>
  <property name="kdenlive:original.meta.media.sample_aspect_den">1</property>
  <property name="kdenlive:original.aspect_ratio">1</property>
  <property name="kdenlive:original.audio_index">-1</property>
  <property name="kdenlive:original.video_index">0</property>
  <property name="kdenlive:original.mute_on_pause">0</property>
  <property name="kdenlive:original.mlt_service">avformat-novalidate</property>
  <property name="kdenlive:original.kdenlive:folderid">387</property>
  <property name="kdenlive:original.meta.media.frame_rate_num">60</property>
  <property name="kdenlive:original.meta.media.frame_rate_den">1</property>
  <property name="kdenlive:original.meta.media.colorspace">709</property>
  <property name="kdenlive:original.meta.media.color_trc">2</property>
  <property name="kdenlive:original.meta.media.width">3840</property>
  <property name="kdenlive:original.meta.media.height">2160</property>
  <property name="kdenlive:original.meta.media.color_range">mpeg</property>
  <property name="kdenlive:original.kdenlive:id">430</property>
  <property name="kdenlive:original.kdenlive:file_size">230126</property>
  <property name="kdenlive:original.kdenlive:file_hash">cb50ac0abb54136af1b4c022c987991a</property>
  <property name="kdenlive:original.backup">1</property>
  <property name="global_feed">1</property>
  <property name="kdenlive:original.kdenlive:original.mlt_type">mlt_producer</property>
  <property name="kdenlive:original.kdenlive:original.in">0</property>
  <property name="kdenlive:original.kdenlive:original.out">59</property>
  <property name="kdenlive:original.kdenlive:original.length">60</property>
  <property name="kdenlive:original.kdenlive:original.eof">pause</property>
  <property name="kdenlive:original.kdenlive:original.resource">video/Theorem/29.mp4</property>
  <property name="kdenlive:original.kdenlive:original.meta.media.nb_streams">1</property>
  <property name="kdenlive:original.kdenlive:original.meta.media.0.stream.type">video</property>
  <property name="kdenlive:original.kdenlive:original.meta.media.0.stream.frame_rate">60</property>
  <property name="kdenlive:original.kdenlive:original.meta.media.0.stream.sample_aspect_ratio">0</property>
  <property name="kdenlive:original.kdenlive:original.meta.media.0.codec.width">3840</property>
  <property name="kdenlive:original.kdenlive:original.meta.media.0.codec.height">2160</property>
  <property name="kdenlive:original.kdenlive:original.meta.media.0.codec.rotate">0</property>
  <property name="kdenlive:original.kdenlive:original.meta.media.0.codec.frame_rate">60</property>
  <property name="kdenlive:original.kdenlive:original.meta.media.0.codec.pix_fmt">yuv420p</property>
  <property name="kdenlive:original.kdenlive:original.meta.media.0.codec.sample_aspect_ratio">0</property>
  <property name="kdenlive:original.kdenlive:original.meta.media.0.codec.colorspace">709</property>
  <property name="kdenlive:original.kdenlive:original.meta.media.0.codec.name">h264</property>
  <property name="kdenlive:original.kdenlive:original.meta.media.0.codec.long_name">H.264 / AVC / MPEG-4 AVC / MPEG-4 part 10</property>
  <property name="kdenlive:original.kdenlive:original.meta.media.0.codec.bit_rate">1828856</property>
  <property name="kdenlive:original.kdenlive:original.meta.attr.0.stream.handler_name.markup">VideoHandler</property>
  <property name="kdenlive:original.kdenlive:original.meta.attr.0.stream.vendor_id.markup">[0][0][0][0]</property>
  <property name="kdenlive:original.kdenlive:original.meta.attr.major_brand.markup">isom</property>
  <property name="kdenlive:original.kdenlive:original.meta.attr.minor_version.markup">512</property>
  <property name="kdenlive:original.kdenlive:original.meta.attr.compatible_brands.markup">isomiso2avc1mp41</property>
  <property name="kdenlive:original.kdenlive:original.meta.attr.encoder.markup">Lavf58.76.100</property>
  <property name="kdenlive:original.kdenlive:original.meta.attr.comment.markup">Rendered with Manim Community v0.6.0</property>
  <property name="kdenlive:original.kdenlive:original.seekable">1</property>
  <property name="kdenlive:original.kdenlive:original.width">3840</property>
  <property name="kdenlive:original.kdenlive:original.height">2160</property>
  <property name="kdenlive:original.kdenlive:original.meta.media.sample_aspect_num">1</property>
  <property name="kdenlive:original.kdenlive:original.meta.media.sample_aspect_den">1</property>
  <property name="kdenlive:original.kdenlive:original.aspect_ratio">1</property>
  <property name="kdenlive:original.kdenlive:original.audio_index">-1</property>
  <property name="kdenlive:original.kdenlive:original.video_index">0</property>
  <property name="kdenlive:original.kdenlive:original.mute_on_pause">0</property>
  <property name="kdenlive:original.kdenlive:original.mlt_service">avformat-novalidate</property>
  <property name="kdenlive:original.kdenlive:original.kdenlive:folderid">387</property>
  <property name="kdenlive:original.kdenlive:original.meta.media.frame_rate_num">60</property>
  <property name="kdenlive:original.kdenlive:original.meta.media.frame_rate_den">1</property>
  <property name="kdenlive:original.kdenlive:original.meta.media.colorspace">709</property>
  <property name="kdenlive:original.kdenlive:original.meta.media.color_trc">2</property>
  <property name="kdenlive:original.kdenlive:original.meta.media.width">3840</property>
  <property name="kdenlive:original.kdenlive:original.meta.media.height">2160</property>
  <property name="kdenlive:original.kdenlive:original.meta.media.color_range">mpeg</property>
  <property name="kdenlive:original.kdenlive:original.kdenlive:id">430</property>
  <property name="kdenlive:original.kdenlive:original.kdenlive:file_size">230126</property>
  <property name="kdenlive:original.kdenlive:original.kdenlive:file_hash">cb50ac0abb54136af1b4c022c987991a</property>
  <property name="kdenlive:original.root">/</property>
  <property name="kdenlive:original.global_feed">1</property>
  <property name="meta.media.nb_streams">1</property>
  <property name="meta.media.0.stream.type">video</property>
  <property name="meta.media.0.stream.frame_rate">60</property>
  <property name="meta.media.0.stream.sample_aspect_ratio">0</property>
  <property name="meta.media.0.codec.width">640</property>
  <property name="meta.media.0.codec.height">360</property>
  <property name="meta.media.0.codec.rotate">0</property>
  <property name="meta.media.0.codec.frame_rate">60</property>
  <property name="meta.media.0.codec.pix_fmt">yuv420p</property>
  <property name="meta.media.0.codec.sample_aspect_ratio">0</property>
  <property name="meta.media.0.codec.colorspace">601</property>
  <property name="meta.media.0.codec.name">h264</property>
  <property name="meta.media.0.codec.long_name">H.264 / AVC / MPEG-4 AVC / MPEG-4 part 10</property>
  <property name="meta.media.0.codec.bit_rate">0</property>
  <property name="meta.attr.0.stream.HANDLER_NAME.markup">VideoHandler</property>
  <property name="meta.attr.0.stream.VENDOR_ID.markup">[0][0][0][0]</property>
  <property name="meta.attr.0.stream.ENCODER.markup">Lavc58.134.100 libx264</property>
  <property name="meta.attr.0.stream.DURATION.markup">00:00:01.000000000</property>
  <property name="meta.attr.COMMENT.markup">Rendered with Manim Community v0.6.0</property>
  <property name="meta.attr.MAJOR_BRAND.markup">isom</property>
  <property name="meta.attr.MINOR_VERSION.markup">512</property>
  <property name="meta.attr.COMPATIBLE_BRANDS.markup">isomiso2avc1mp41</property>
  <property name="meta.attr.ENCODER.markup">Lavf58.76.100</property>
  <property name="meta.media.sample_aspect_num">1</property>
  <property name="meta.media.sample_aspect_den">1</property>
  <property name="meta.media.frame_rate_num">60</property>
  <property name="meta.media.frame_rate_den">1</property>
  <property name="meta.media.colorspace">601</property>
  <property name="meta.media.color_trc">2</property>
  <property name="meta.media.width">640</property>
  <property name="meta.media.height">360</property>
  <property name="meta.media.color_range">mpeg</property>
 </producer>
 <producer id="producer439" in="00:00:00.000" out="00:00:04.983">
  <property name="length">00:00:05.000</property>
  <property name="eof">pause</property>
  <property name="resource">/home/xiaoxiae/.cache/kdenlive/proxy/8b9de1c2ef1c69f1af955bcc1de9cce4.png</property>
  <property name="ttl">25</property>
  <property name="aspect_ratio">1</property>
  <property name="progressive">1</property>
  <property name="seekable">1</property>
  <property name="meta.media.width">800</property>
  <property name="meta.media.height">450</property>
  <property name="mlt_service">qimage</property>
  <property name="kdenlive:clipname">29.png</property>
  <property name="kdenlive:duration">00:00:05.000</property>
  <property name="kdenlive:folderid">387</property>
  <property name="kdenlive:id">408</property>
  <property name="kdenlive:file_size">126221</property>
  <property name="kdenlive:file_hash">8b9de1c2ef1c69f1af955bcc1de9cce4</property>
  <property name="kdenlive:proxy">/home/xiaoxiae/.cache/kdenlive/proxy/8b9de1c2ef1c69f1af955bcc1de9cce4.png</property>
  <property name="kdenlive:originalurl">video/Theorem/29.png</property>
  <property name="kdenlive:original.mlt_type">mlt_producer</property>
  <property name="kdenlive:original.in">0</property>
  <property name="kdenlive:original.out">299</property>
  <property name="kdenlive:original.length">00:00:05.000</property>
  <property name="kdenlive:original.eof">pause</property>
  <property name="kdenlive:original.resource">video/Theorem/29.png</property>
  <property name="kdenlive:original.ttl">25</property>
  <property name="kdenlive:original.aspect_ratio">1</property>
  <property name="kdenlive:original.progressive">1</property>
  <property name="kdenlive:original.seekable">1</property>
  <property name="kdenlive:original.meta.media.width">3840</property>
  <property name="kdenlive:original.meta.media.height">2160</property>
  <property name="kdenlive:original.mlt_service">qimage</property>
  <property name="kdenlive:original.kdenlive:duration">00:00:05.000</property>
  <property name="kdenlive:original.kdenlive:folderid">387</property>
  <property name="kdenlive:original.kdenlive:id">431</property>
  <property name="kdenlive:original.kdenlive:file_size">126221</property>
  <property name="kdenlive:original.kdenlive:file_hash">8b9de1c2ef1c69f1af955bcc1de9cce4</property>
  <property name="kdenlive:original.backup">1</property>
  <property name="global_feed">1</property>
  <property name="kdenlive:original.kdenlive:original.mlt_type">mlt_producer</property>
  <property name="kdenlive:original.kdenlive:original.in">0</property>
  <property name="kdenlive:original.kdenlive:original.out">299</property>
  <property name="kdenlive:original.kdenlive:original.length">00:00:05.000</property>
  <property name="kdenlive:original.kdenlive:original.eof">pause</property>
  <property name="kdenlive:original.kdenlive:original.resource">video/Theorem/29.png</property>
  <property name="kdenlive:original.kdenlive:original.ttl">25</property>
  <property name="kdenlive:original.kdenlive:original.aspect_ratio">1</property>
  <property name="kdenlive:original.kdenlive:original.progressive">1</property>
  <property name="kdenlive:original.kdenlive:original.seekable">1</property>
  <property name="kdenlive:original.kdenlive:original.meta.media.width">3840</property>
  <property name="kdenlive:original.kdenlive:original.meta.media.height">2160</property>
  <property name="kdenlive:original.kdenlive:original.mlt_service">qimage</property>
  <property name="kdenlive:original.kdenlive:original.kdenlive:duration">00:00:05.000</property>
  <property name="kdenlive:original.kdenlive:original.kdenlive:folderid">387</property>
  <property name="kdenlive:original.kdenlive:original.kdenlive:id">431</property>
  <property name="kdenlive:original.kdenlive:original.kdenlive:file_size">126221</property>
  <property name="kdenlive:original.kdenlive:original.kdenlive:file_hash">8b9de1c2ef1c69f1af955bcc1de9cce4</property>
  <property name="kdenlive:original.root">/</property>
  <property name="kdenlive:original.global_feed">1</property>
 </producer>
 <producer id="producer448" in="00:00:00.000" out="00:00:02.383">
  <property name="length">144</property>
  <property name="eof">pause</property>
  <property name="resource">/home/xiaoxiae/.cache/kdenlive/proxy/071eac84974baf2d17549257f2f39341.mkv</property>
  <property name="audio_index">-1</property>
  <property name="video_index">0</property>
  <property name="mute_on_pause">0</property>
  <property name="mlt_service">avformat-novalidate</property>
  <property name="seekable">1</property>
  <property name="aspect_ratio">1</property>
  <property name="kdenlive:clipname">3.mp4</property>
  <property name="kdenlive:folderid">387</property>
  <property name="kdenlive:id">409</property>
  <property name="kdenlive:file_size">193603</property>
  <property name="kdenlive:file_hash">071eac84974baf2d17549257f2f39341</property>
  <property name="kdenlive:proxy">/home/xiaoxiae/.cache/kdenlive/proxy/071eac84974baf2d17549257f2f39341.mkv</property>
  <property name="kdenlive:originalurl">video/Theorem/3.mp4</property>
  <property name="kdenlive:original.mlt_type">mlt_producer</property>
  <property name="kdenlive:original.in">0</property>
  <property name="kdenlive:original.out">143</property>
  <property name="kdenlive:original.length">144</property>
  <property name="kdenlive:original.eof">pause</property>
  <property name="kdenlive:original.resource">video/Theorem/3.mp4</property>
  <property name="kdenlive:original.meta.media.nb_streams">1</property>
  <property name="kdenlive:original.meta.media.0.stream.type">video</property>
  <property name="kdenlive:original.meta.media.0.stream.frame_rate">60</property>
  <property name="kdenlive:original.meta.media.0.stream.sample_aspect_ratio">0</property>
  <property name="kdenlive:original.meta.media.0.codec.width">3840</property>
  <property name="kdenlive:original.meta.media.0.codec.height">2160</property>
  <property name="kdenlive:original.meta.media.0.codec.rotate">0</property>
  <property name="kdenlive:original.meta.media.0.codec.frame_rate">60</property>
  <property name="kdenlive:original.meta.media.0.codec.pix_fmt">yuv420p</property>
  <property name="kdenlive:original.meta.media.0.codec.sample_aspect_ratio">0</property>
  <property name="kdenlive:original.meta.media.0.codec.colorspace">709</property>
  <property name="kdenlive:original.meta.media.0.codec.name">h264</property>
  <property name="kdenlive:original.meta.media.0.codec.long_name">H.264 / AVC / MPEG-4 AVC / MPEG-4 part 10</property>
  <property name="kdenlive:original.meta.media.0.codec.bit_rate">636546</property>
  <property name="kdenlive:original.meta.attr.0.stream.handler_name.markup">VideoHandler</property>
  <property name="kdenlive:original.meta.attr.0.stream.vendor_id.markup">[0][0][0][0]</property>
  <property name="kdenlive:original.meta.attr.major_brand.markup">isom</property>
  <property name="kdenlive:original.meta.attr.minor_version.markup">512</property>
  <property name="kdenlive:original.meta.attr.compatible_brands.markup">isomiso2avc1mp41</property>
  <property name="kdenlive:original.meta.attr.encoder.markup">Lavf58.76.100</property>
  <property name="kdenlive:original.meta.attr.comment.markup">Rendered with Manim Community v0.6.0</property>
  <property name="kdenlive:original.seekable">1</property>
  <property name="kdenlive:original.width">3840</property>
  <property name="kdenlive:original.height">2160</property>
  <property name="kdenlive:original.meta.media.sample_aspect_num">1</property>
  <property name="kdenlive:original.meta.media.sample_aspect_den">1</property>
  <property name="kdenlive:original.aspect_ratio">1</property>
  <property name="kdenlive:original.audio_index">-1</property>
  <property name="kdenlive:original.video_index">0</property>
  <property name="kdenlive:original.mute_on_pause">0</property>
  <property name="kdenlive:original.mlt_service">avformat-novalidate</property>
  <property name="kdenlive:original.kdenlive:folderid">387</property>
  <property name="kdenlive:original.meta.media.frame_rate_num">60</property>
  <property name="kdenlive:original.meta.media.frame_rate_den">1</property>
  <property name="kdenlive:original.meta.media.colorspace">709</property>
  <property name="kdenlive:original.meta.media.color_trc">2</property>
  <property name="kdenlive:original.meta.media.width">3840</property>
  <property name="kdenlive:original.meta.media.height">2160</property>
  <property name="kdenlive:original.meta.media.color_range">mpeg</property>
  <property name="kdenlive:original.kdenlive:id">432</property>
  <property name="kdenlive:original.kdenlive:file_size">193603</property>
  <property name="kdenlive:original.kdenlive:file_hash">071eac84974baf2d17549257f2f39341</property>
  <property name="kdenlive:original.backup">1</property>
  <property name="global_feed">1</property>
  <property name="kdenlive:original.kdenlive:original.mlt_type">mlt_producer</property>
  <property name="kdenlive:original.kdenlive:original.in">0</property>
  <property name="kdenlive:original.kdenlive:original.out">143</property>
  <property name="kdenlive:original.kdenlive:original.length">144</property>
  <property name="kdenlive:original.kdenlive:original.eof">pause</property>
  <property name="kdenlive:original.kdenlive:original.resource">video/Theorem/3.mp4</property>
  <property name="kdenlive:original.kdenlive:original.meta.media.nb_streams">1</property>
  <property name="kdenlive:original.kdenlive:original.meta.media.0.stream.type">video</property>
  <property name="kdenlive:original.kdenlive:original.meta.media.0.stream.frame_rate">60</property>
  <property name="kdenlive:original.kdenlive:original.meta.media.0.stream.sample_aspect_ratio">0</property>
  <property name="kdenlive:original.kdenlive:original.meta.media.0.codec.width">3840</property>
  <property name="kdenlive:original.kdenlive:original.meta.media.0.codec.height">2160</property>
  <property name="kdenlive:original.kdenlive:original.meta.media.0.codec.rotate">0</property>
  <property name="kdenlive:original.kdenlive:original.meta.media.0.codec.frame_rate">60</property>
  <property name="kdenlive:original.kdenlive:original.meta.media.0.codec.pix_fmt">yuv420p</property>
  <property name="kdenlive:original.kdenlive:original.meta.media.0.codec.sample_aspect_ratio">0</property>
  <property name="kdenlive:original.kdenlive:original.meta.media.0.codec.colorspace">709</property>
  <property name="kdenlive:original.kdenlive:original.meta.media.0.codec.name">h264</property>
  <property name="kdenlive:original.kdenlive:original.meta.media.0.codec.long_name">H.264 / AVC / MPEG-4 AVC / MPEG-4 part 10</property>
  <property name="kdenlive:original.kdenlive:original.meta.media.0.codec.bit_rate">636546</property>
  <property name="kdenlive:original.kdenlive:original.meta.attr.0.stream.handler_name.markup">VideoHandler</property>
  <property name="kdenlive:original.kdenlive:original.meta.attr.0.stream.vendor_id.markup">[0][0][0][0]</property>
  <property name="kdenlive:original.kdenlive:original.meta.attr.major_brand.markup">isom</property>
  <property name="kdenlive:original.kdenlive:original.meta.attr.minor_version.markup">512</property>
  <property name="kdenlive:original.kdenlive:original.meta.attr.compatible_brands.markup">isomiso2avc1mp41</property>
  <property name="kdenlive:original.kdenlive:original.meta.attr.encoder.markup">Lavf58.76.100</property>
  <property name="kdenlive:original.kdenlive:original.meta.attr.comment.markup">Rendered with Manim Community v0.6.0</property>
  <property name="kdenlive:original.kdenlive:original.seekable">1</property>
  <property name="kdenlive:original.kdenlive:original.width">3840</property>
  <property name="kdenlive:original.kdenlive:original.height">2160</property>
  <property name="kdenlive:original.kdenlive:original.meta.media.sample_aspect_num">1</property>
  <property name="kdenlive:original.kdenlive:original.meta.media.sample_aspect_den">1</property>
  <property name="kdenlive:original.kdenlive:original.aspect_ratio">1</property>
  <property name="kdenlive:original.kdenlive:original.audio_index">-1</property>
  <property name="kdenlive:original.kdenlive:original.video_index">0</property>
  <property name="kdenlive:original.kdenlive:original.mute_on_pause">0</property>
  <property name="kdenlive:original.kdenlive:original.mlt_service">avformat-novalidate</property>
  <property name="kdenlive:original.kdenlive:original.kdenlive:folderid">387</property>
  <property name="kdenlive:original.kdenlive:original.meta.media.frame_rate_num">60</property>
  <property name="kdenlive:original.kdenlive:original.meta.media.frame_rate_den">1</property>
  <property name="kdenlive:original.kdenlive:original.meta.media.colorspace">709</property>
  <property name="kdenlive:original.kdenlive:original.meta.media.color_trc">2</property>
  <property name="kdenlive:original.kdenlive:original.meta.media.width">3840</property>
  <property name="kdenlive:original.kdenlive:original.meta.media.height">2160</property>
  <property name="kdenlive:original.kdenlive:original.meta.media.color_range">mpeg</property>
  <property name="kdenlive:original.kdenlive:original.kdenlive:id">432</property>
  <property name="kdenlive:original.kdenlive:original.kdenlive:file_size">193603</property>
  <property name="kdenlive:original.kdenlive:original.kdenlive:file_hash">071eac84974baf2d17549257f2f39341</property>
  <property name="kdenlive:original.root">/</property>
  <property name="kdenlive:original.global_feed">1</property>
  <property name="meta.media.nb_streams">1</property>
  <property name="meta.media.0.stream.type">video</property>
  <property name="meta.media.0.stream.frame_rate">60</property>
  <property name="meta.media.0.stream.sample_aspect_ratio">0</property>
  <property name="meta.media.0.codec.width">640</property>
  <property name="meta.media.0.codec.height">360</property>
  <property name="meta.media.0.codec.rotate">0</property>
  <property name="meta.media.0.codec.frame_rate">60</property>
  <property name="meta.media.0.codec.pix_fmt">yuv420p</property>
  <property name="meta.media.0.codec.sample_aspect_ratio">0</property>
  <property name="meta.media.0.codec.colorspace">601</property>
  <property name="meta.media.0.codec.name">h264</property>
  <property name="meta.media.0.codec.long_name">H.264 / AVC / MPEG-4 AVC / MPEG-4 part 10</property>
  <property name="meta.media.0.codec.bit_rate">0</property>
  <property name="meta.attr.0.stream.HANDLER_NAME.markup">VideoHandler</property>
  <property name="meta.attr.0.stream.VENDOR_ID.markup">[0][0][0][0]</property>
  <property name="meta.attr.0.stream.ENCODER.markup">Lavc58.134.100 libx264</property>
  <property name="meta.attr.0.stream.DURATION.markup">00:00:02.400000000</property>
  <property name="meta.attr.COMMENT.markup">Rendered with Manim Community v0.6.0</property>
  <property name="meta.attr.MAJOR_BRAND.markup">isom</property>
  <property name="meta.attr.MINOR_VERSION.markup">512</property>
  <property name="meta.attr.COMPATIBLE_BRANDS.markup">isomiso2avc1mp41</property>
  <property name="meta.attr.ENCODER.markup">Lavf58.76.100</property>
  <property name="meta.media.sample_aspect_num">1</property>
  <property name="meta.media.sample_aspect_den">1</property>
  <property name="meta.media.frame_rate_num">60</property>
  <property name="meta.media.frame_rate_den">1</property>
  <property name="meta.media.colorspace">601</property>
  <property name="meta.media.color_trc">2</property>
  <property name="meta.media.width">640</property>
  <property name="meta.media.height">360</property>
  <property name="meta.media.color_range">mpeg</property>
 </producer>
 <producer id="producer440" in="00:00:00.000" out="00:00:04.983">
  <property name="length">00:00:05.000</property>
  <property name="eof">pause</property>
  <property name="resource">/home/xiaoxiae/.cache/kdenlive/proxy/1858b19877c752650e76c513d382c8d8.png</property>
  <property name="ttl">25</property>
  <property name="aspect_ratio">1</property>
  <property name="progressive">1</property>
  <property name="seekable">1</property>
  <property name="meta.media.width">800</property>
  <property name="meta.media.height">450</property>
  <property name="mlt_service">qimage</property>
  <property name="kdenlive:clipname">3.png</property>
  <property name="kdenlive:duration">00:00:05.000</property>
  <property name="kdenlive:folderid">387</property>
  <property name="kdenlive:id">410</property>
  <property name="kdenlive:file_size">249544</property>
  <property name="kdenlive:file_hash">1858b19877c752650e76c513d382c8d8</property>
  <property name="kdenlive:proxy">/home/xiaoxiae/.cache/kdenlive/proxy/1858b19877c752650e76c513d382c8d8.png</property>
  <property name="kdenlive:originalurl">video/Theorem/3.png</property>
  <property name="kdenlive:original.mlt_type">mlt_producer</property>
  <property name="kdenlive:original.in">0</property>
  <property name="kdenlive:original.out">299</property>
  <property name="kdenlive:original.length">00:00:05.000</property>
  <property name="kdenlive:original.eof">pause</property>
  <property name="kdenlive:original.resource">video/Theorem/3.png</property>
  <property name="kdenlive:original.ttl">25</property>
  <property name="kdenlive:original.aspect_ratio">1</property>
  <property name="kdenlive:original.progressive">1</property>
  <property name="kdenlive:original.seekable">1</property>
  <property name="kdenlive:original.meta.media.width">3840</property>
  <property name="kdenlive:original.meta.media.height">2160</property>
  <property name="kdenlive:original.mlt_service">qimage</property>
  <property name="kdenlive:original.kdenlive:duration">00:00:05.000</property>
  <property name="kdenlive:original.kdenlive:folderid">387</property>
  <property name="kdenlive:original.kdenlive:id">433</property>
  <property name="kdenlive:original.kdenlive:file_size">249544</property>
  <property name="kdenlive:original.kdenlive:file_hash">1858b19877c752650e76c513d382c8d8</property>
  <property name="kdenlive:original.backup">1</property>
  <property name="global_feed">1</property>
  <property name="kdenlive:original.kdenlive:original.mlt_type">mlt_producer</property>
  <property name="kdenlive:original.kdenlive:original.in">0</property>
  <property name="kdenlive:original.kdenlive:original.out">299</property>
  <property name="kdenlive:original.kdenlive:original.length">00:00:05.000</property>
  <property name="kdenlive:original.kdenlive:original.eof">pause</property>
  <property name="kdenlive:original.kdenlive:original.resource">video/Theorem/3.png</property>
  <property name="kdenlive:original.kdenlive:original.ttl">25</property>
  <property name="kdenlive:original.kdenlive:original.aspect_ratio">1</property>
  <property name="kdenlive:original.kdenlive:original.progressive">1</property>
  <property name="kdenlive:original.kdenlive:original.seekable">1</property>
  <property name="kdenlive:original.kdenlive:original.meta.media.width">3840</property>
  <property name="kdenlive:original.kdenlive:original.meta.media.height">2160</property>
  <property name="kdenlive:original.kdenlive:original.mlt_service">qimage</property>
  <property name="kdenlive:original.kdenlive:original.kdenlive:duration">00:00:05.000</property>
  <property name="kdenlive:original.kdenlive:original.kdenlive:folderid">387</property>
  <property name="kdenlive:original.kdenlive:original.kdenlive:id">433</property>
  <property name="kdenlive:original.kdenlive:original.kdenlive:file_size">249544</property>
  <property name="kdenlive:original.kdenlive:original.kdenlive:file_hash">1858b19877c752650e76c513d382c8d8</property>
  <property name="kdenlive:original.root">/</property>
  <property name="kdenlive:original.global_feed">1</property>
 </producer>
 <producer id="producer442" in="00:00:00.000" out="00:00:00.983">
  <property name="length">60</property>
  <property name="eof">pause</property>
  <property name="resource">/home/xiaoxiae/.cache/kdenlive/proxy/54c1a74226379deaba70dc838cfaa075.mkv</property>
  <property name="audio_index">-1</property>
  <property name="video_index">0</property>
  <property name="mute_on_pause">0</property>
  <property name="mlt_service">avformat-novalidate</property>
  <property name="seekable">1</property>
  <property name="aspect_ratio">1</property>
  <property name="kdenlive:clipname">30.mp4</property>
  <property name="kdenlive:folderid">387</property>
  <property name="kdenlive:id">411</property>
  <property name="kdenlive:file_size">60050</property>
  <property name="kdenlive:file_hash">54c1a74226379deaba70dc838cfaa075</property>
  <property name="kdenlive:proxy">/home/xiaoxiae/.cache/kdenlive/proxy/54c1a74226379deaba70dc838cfaa075.mkv</property>
  <property name="kdenlive:originalurl">video/Theorem/30.mp4</property>
  <property name="kdenlive:original.mlt_type">mlt_producer</property>
  <property name="kdenlive:original.in">0</property>
  <property name="kdenlive:original.out">59</property>
  <property name="kdenlive:original.length">60</property>
  <property name="kdenlive:original.eof">pause</property>
  <property name="kdenlive:original.resource">video/Theorem/30.mp4</property>
  <property name="kdenlive:original.meta.media.nb_streams">1</property>
  <property name="kdenlive:original.meta.media.0.stream.type">video</property>
  <property name="kdenlive:original.meta.media.0.stream.frame_rate">60</property>
  <property name="kdenlive:original.meta.media.0.stream.sample_aspect_ratio">0</property>
  <property name="kdenlive:original.meta.media.0.codec.width">3840</property>
  <property name="kdenlive:original.meta.media.0.codec.height">2160</property>
  <property name="kdenlive:original.meta.media.0.codec.rotate">0</property>
  <property name="kdenlive:original.meta.media.0.codec.frame_rate">60</property>
  <property name="kdenlive:original.meta.media.0.codec.pix_fmt">yuv420p</property>
  <property name="kdenlive:original.meta.media.0.codec.sample_aspect_ratio">0</property>
  <property name="kdenlive:original.meta.media.0.codec.colorspace">709</property>
  <property name="kdenlive:original.meta.media.0.codec.name">h264</property>
  <property name="kdenlive:original.meta.media.0.codec.long_name">H.264 / AVC / MPEG-4 AVC / MPEG-4 part 10</property>
  <property name="kdenlive:original.meta.media.0.codec.bit_rate">467352</property>
  <property name="kdenlive:original.meta.attr.0.stream.handler_name.markup">VideoHandler</property>
  <property name="kdenlive:original.meta.attr.0.stream.vendor_id.markup">[0][0][0][0]</property>
  <property name="kdenlive:original.meta.attr.major_brand.markup">isom</property>
  <property name="kdenlive:original.meta.attr.minor_version.markup">512</property>
  <property name="kdenlive:original.meta.attr.compatible_brands.markup">isomiso2avc1mp41</property>
  <property name="kdenlive:original.meta.attr.encoder.markup">Lavf58.76.100</property>
  <property name="kdenlive:original.meta.attr.comment.markup">Rendered with Manim Community v0.6.0</property>
  <property name="kdenlive:original.seekable">1</property>
  <property name="kdenlive:original.width">3840</property>
  <property name="kdenlive:original.height">2160</property>
  <property name="kdenlive:original.meta.media.sample_aspect_num">1</property>
  <property name="kdenlive:original.meta.media.sample_aspect_den">1</property>
  <property name="kdenlive:original.aspect_ratio">1</property>
  <property name="kdenlive:original.audio_index">-1</property>
  <property name="kdenlive:original.video_index">0</property>
  <property name="kdenlive:original.mute_on_pause">0</property>
  <property name="kdenlive:original.mlt_service">avformat-novalidate</property>
  <property name="kdenlive:original.kdenlive:folderid">387</property>
  <property name="kdenlive:original.meta.media.frame_rate_num">60</property>
  <property name="kdenlive:original.meta.media.frame_rate_den">1</property>
  <property name="kdenlive:original.meta.media.colorspace">709</property>
  <property name="kdenlive:original.meta.media.color_trc">2</property>
  <property name="kdenlive:original.meta.media.width">3840</property>
  <property name="kdenlive:original.meta.media.height">2160</property>
  <property name="kdenlive:original.meta.media.color_range">mpeg</property>
  <property name="kdenlive:original.kdenlive:id">434</property>
  <property name="kdenlive:original.kdenlive:file_size">60050</property>
  <property name="kdenlive:original.kdenlive:file_hash">54c1a74226379deaba70dc838cfaa075</property>
  <property name="kdenlive:original.backup">1</property>
  <property name="global_feed">1</property>
  <property name="kdenlive:original.kdenlive:original.mlt_type">mlt_producer</property>
  <property name="kdenlive:original.kdenlive:original.in">0</property>
  <property name="kdenlive:original.kdenlive:original.out">59</property>
  <property name="kdenlive:original.kdenlive:original.length">60</property>
  <property name="kdenlive:original.kdenlive:original.eof">pause</property>
  <property name="kdenlive:original.kdenlive:original.resource">video/Theorem/30.mp4</property>
  <property name="kdenlive:original.kdenlive:original.meta.media.nb_streams">1</property>
  <property name="kdenlive:original.kdenlive:original.meta.media.0.stream.type">video</property>
  <property name="kdenlive:original.kdenlive:original.meta.media.0.stream.frame_rate">60</property>
  <property name="kdenlive:original.kdenlive:original.meta.media.0.stream.sample_aspect_ratio">0</property>
  <property name="kdenlive:original.kdenlive:original.meta.media.0.codec.width">3840</property>
  <property name="kdenlive:original.kdenlive:original.meta.media.0.codec.height">2160</property>
  <property name="kdenlive:original.kdenlive:original.meta.media.0.codec.rotate">0</property>
  <property name="kdenlive:original.kdenlive:original.meta.media.0.codec.frame_rate">60</property>
  <property name="kdenlive:original.kdenlive:original.meta.media.0.codec.pix_fmt">yuv420p</property>
  <property name="kdenlive:original.kdenlive:original.meta.media.0.codec.sample_aspect_ratio">0</property>
  <property name="kdenlive:original.kdenlive:original.meta.media.0.codec.colorspace">709</property>
  <property name="kdenlive:original.kdenlive:original.meta.media.0.codec.name">h264</property>
  <property name="kdenlive:original.kdenlive:original.meta.media.0.codec.long_name">H.264 / AVC / MPEG-4 AVC / MPEG-4 part 10</property>
  <property name="kdenlive:original.kdenlive:original.meta.media.0.codec.bit_rate">467352</property>
  <property name="kdenlive:original.kdenlive:original.meta.attr.0.stream.handler_name.markup">VideoHandler</property>
  <property name="kdenlive:original.kdenlive:original.meta.attr.0.stream.vendor_id.markup">[0][0][0][0]</property>
  <property name="kdenlive:original.kdenlive:original.meta.attr.major_brand.markup">isom</property>
  <property name="kdenlive:original.kdenlive:original.meta.attr.minor_version.markup">512</property>
  <property name="kdenlive:original.kdenlive:original.meta.attr.compatible_brands.markup">isomiso2avc1mp41</property>
  <property name="kdenlive:original.kdenlive:original.meta.attr.encoder.markup">Lavf58.76.100</property>
  <property name="kdenlive:original.kdenlive:original.meta.attr.comment.markup">Rendered with Manim Community v0.6.0</property>
  <property name="kdenlive:original.kdenlive:original.seekable">1</property>
  <property name="kdenlive:original.kdenlive:original.width">3840</property>
  <property name="kdenlive:original.kdenlive:original.height">2160</property>
  <property name="kdenlive:original.kdenlive:original.meta.media.sample_aspect_num">1</property>
  <property name="kdenlive:original.kdenlive:original.meta.media.sample_aspect_den">1</property>
  <property name="kdenlive:original.kdenlive:original.aspect_ratio">1</property>
  <property name="kdenlive:original.kdenlive:original.audio_index">-1</property>
  <property name="kdenlive:original.kdenlive:original.video_index">0</property>
  <property name="kdenlive:original.kdenlive:original.mute_on_pause">0</property>
  <property name="kdenlive:original.kdenlive:original.mlt_service">avformat-novalidate</property>
  <property name="kdenlive:original.kdenlive:original.kdenlive:folderid">387</property>
  <property name="kdenlive:original.kdenlive:original.meta.media.frame_rate_num">60</property>
  <property name="kdenlive:original.kdenlive:original.meta.media.frame_rate_den">1</property>
  <property name="kdenlive:original.kdenlive:original.meta.media.colorspace">709</property>
  <property name="kdenlive:original.kdenlive:original.meta.media.color_trc">2</property>
  <property name="kdenlive:original.kdenlive:original.meta.media.width">3840</property>
  <property name="kdenlive:original.kdenlive:original.meta.media.height">2160</property>
  <property name="kdenlive:original.kdenlive:original.meta.media.color_range">mpeg</property>
  <property name="kdenlive:original.kdenlive:original.kdenlive:id">434</property>
  <property name="kdenlive:original.kdenlive:original.kdenlive:file_size">60050</property>
  <property name="kdenlive:original.kdenlive:original.kdenlive:file_hash">54c1a74226379deaba70dc838cfaa075</property>
  <property name="kdenlive:original.root">/</property>
  <property name="kdenlive:original.global_feed">1</property>
  <property name="meta.media.nb_streams">1</property>
  <property name="meta.media.0.stream.type">video</property>
  <property name="meta.media.0.stream.frame_rate">60</property>
  <property name="meta.media.0.stream.sample_aspect_ratio">0</property>
  <property name="meta.media.0.codec.width">640</property>
  <property name="meta.media.0.codec.height">360</property>
  <property name="meta.media.0.codec.rotate">0</property>
  <property name="meta.media.0.codec.frame_rate">60</property>
  <property name="meta.media.0.codec.pix_fmt">yuv420p</property>
  <property name="meta.media.0.codec.sample_aspect_ratio">0</property>
  <property name="meta.media.0.codec.colorspace">601</property>
  <property name="meta.media.0.codec.name">h264</property>
  <property name="meta.media.0.codec.long_name">H.264 / AVC / MPEG-4 AVC / MPEG-4 part 10</property>
  <property name="meta.media.0.codec.bit_rate">0</property>
  <property name="meta.attr.0.stream.HANDLER_NAME.markup">VideoHandler</property>
  <property name="meta.attr.0.stream.VENDOR_ID.markup">[0][0][0][0]</property>
  <property name="meta.attr.0.stream.ENCODER.markup">Lavc58.134.100 libx264</property>
  <property name="meta.attr.0.stream.DURATION.markup">00:00:01.000000000</property>
  <property name="meta.attr.COMMENT.markup">Rendered with Manim Community v0.6.0</property>
  <property name="meta.attr.MAJOR_BRAND.markup">isom</property>
  <property name="meta.attr.MINOR_VERSION.markup">512</property>
  <property name="meta.attr.COMPATIBLE_BRANDS.markup">isomiso2avc1mp41</property>
  <property name="meta.attr.ENCODER.markup">Lavf58.76.100</property>
  <property name="meta.media.sample_aspect_num">1</property>
  <property name="meta.media.sample_aspect_den">1</property>
  <property name="meta.media.frame_rate_num">60</property>
  <property name="meta.media.frame_rate_den">1</property>
  <property name="meta.media.colorspace">601</property>
  <property name="meta.media.color_trc">2</property>
  <property name="meta.media.width">640</property>
  <property name="meta.media.height">360</property>
  <property name="meta.media.color_range">mpeg</property>
 </producer>
 <producer id="producer443" in="00:00:00.000" out="00:00:04.983">
  <property name="length">00:00:05.000</property>
  <property name="eof">pause</property>
  <property name="resource">/home/xiaoxiae/.cache/kdenlive/proxy/a23940180db393c29fa96e7d695a9092.png</property>
  <property name="ttl">25</property>
  <property name="aspect_ratio">1</property>
  <property name="progressive">1</property>
  <property name="seekable">1</property>
  <property name="meta.media.width">800</property>
  <property name="meta.media.height">450</property>
  <property name="mlt_service">qimage</property>
  <property name="kdenlive:clipname">30.png</property>
  <property name="kdenlive:duration">00:00:05.000</property>
  <property name="kdenlive:folderid">387</property>
  <property name="kdenlive:id">412</property>
  <property name="kdenlive:file_size">146989</property>
  <property name="kdenlive:file_hash">a23940180db393c29fa96e7d695a9092</property>
  <property name="kdenlive:proxy">/home/xiaoxiae/.cache/kdenlive/proxy/a23940180db393c29fa96e7d695a9092.png</property>
  <property name="kdenlive:originalurl">video/Theorem/30.png</property>
  <property name="kdenlive:original.mlt_type">mlt_producer</property>
  <property name="kdenlive:original.in">0</property>
  <property name="kdenlive:original.out">299</property>
  <property name="kdenlive:original.length">00:00:05.000</property>
  <property name="kdenlive:original.eof">pause</property>
  <property name="kdenlive:original.resource">video/Theorem/30.png</property>
  <property name="kdenlive:original.ttl">25</property>
  <property name="kdenlive:original.aspect_ratio">1</property>
  <property name="kdenlive:original.progressive">1</property>
  <property name="kdenlive:original.seekable">1</property>
  <property name="kdenlive:original.meta.media.width">3840</property>
  <property name="kdenlive:original.meta.media.height">2160</property>
  <property name="kdenlive:original.mlt_service">qimage</property>
  <property name="kdenlive:original.kdenlive:duration">00:00:05.000</property>
  <property name="kdenlive:original.kdenlive:folderid">387</property>
  <property name="kdenlive:original.kdenlive:id">435</property>
  <property name="kdenlive:original.kdenlive:file_size">146989</property>
  <property name="kdenlive:original.kdenlive:file_hash">a23940180db393c29fa96e7d695a9092</property>
  <property name="kdenlive:original.backup">1</property>
  <property name="global_feed">1</property>
  <property name="kdenlive:original.kdenlive:original.mlt_type">mlt_producer</property>
  <property name="kdenlive:original.kdenlive:original.in">0</property>
  <property name="kdenlive:original.kdenlive:original.out">299</property>
  <property name="kdenlive:original.kdenlive:original.length">00:00:05.000</property>
  <property name="kdenlive:original.kdenlive:original.eof">pause</property>
  <property name="kdenlive:original.kdenlive:original.resource">video/Theorem/30.png</property>
  <property name="kdenlive:original.kdenlive:original.ttl">25</property>
  <property name="kdenlive:original.kdenlive:original.aspect_ratio">1</property>
  <property name="kdenlive:original.kdenlive:original.progressive">1</property>
  <property name="kdenlive:original.kdenlive:original.seekable">1</property>
  <property name="kdenlive:original.kdenlive:original.meta.media.width">3840</property>
  <property name="kdenlive:original.kdenlive:original.meta.media.height">2160</property>
  <property name="kdenlive:original.kdenlive:original.mlt_service">qimage</property>
  <property name="kdenlive:original.kdenlive:original.kdenlive:duration">00:00:05.000</property>
  <property name="kdenlive:original.kdenlive:original.kdenlive:folderid">387</property>
  <property name="kdenlive:original.kdenlive:original.kdenlive:id">435</property>
  <property name="kdenlive:original.kdenlive:original.kdenlive:file_size">146989</property>
  <property name="kdenlive:original.kdenlive:original.kdenlive:file_hash">a23940180db393c29fa96e7d695a9092</property>
  <property name="kdenlive:original.root">/</property>
  <property name="kdenlive:original.global_feed">1</property>
 </producer>
 <producer id="producer445" in="00:00:00.000" out="00:00:00.983">
  <property name="length">60</property>
  <property name="eof">pause</property>
  <property name="resource">/home/xiaoxiae/.cache/kdenlive/proxy/de7b82ab8e546f1f1e9df2caa1f6fb30.mkv</property>
  <property name="audio_index">-1</property>
  <property name="video_index">0</property>
  <property name="mute_on_pause">0</property>
  <property name="mlt_service">avformat-novalidate</property>
  <property name="seekable">1</property>
  <property name="aspect_ratio">1</property>
  <property name="kdenlive:clipname">31.mp4</property>
  <property name="kdenlive:folderid">387</property>
  <property name="kdenlive:id">413</property>
  <property name="kdenlive:file_size">49052</property>
  <property name="kdenlive:file_hash">de7b82ab8e546f1f1e9df2caa1f6fb30</property>
  <property name="kdenlive:proxy">/home/xiaoxiae/.cache/kdenlive/proxy/de7b82ab8e546f1f1e9df2caa1f6fb30.mkv</property>
  <property name="kdenlive:originalurl">video/Theorem/31.mp4</property>
  <property name="kdenlive:original.mlt_type">mlt_producer</property>
  <property name="kdenlive:original.in">0</property>
  <property name="kdenlive:original.out">59</property>
  <property name="kdenlive:original.length">60</property>
  <property name="kdenlive:original.eof">pause</property>
  <property name="kdenlive:original.resource">video/Theorem/31.mp4</property>
  <property name="kdenlive:original.meta.media.nb_streams">1</property>
  <property name="kdenlive:original.meta.media.0.stream.type">video</property>
  <property name="kdenlive:original.meta.media.0.stream.frame_rate">60</property>
  <property name="kdenlive:original.meta.media.0.stream.sample_aspect_ratio">0</property>
  <property name="kdenlive:original.meta.media.0.codec.width">3840</property>
  <property name="kdenlive:original.meta.media.0.codec.height">2160</property>
  <property name="kdenlive:original.meta.media.0.codec.rotate">0</property>
  <property name="kdenlive:original.meta.media.0.codec.frame_rate">60</property>
  <property name="kdenlive:original.meta.media.0.codec.pix_fmt">yuv420p</property>
  <property name="kdenlive:original.meta.media.0.codec.sample_aspect_ratio">0</property>
  <property name="kdenlive:original.meta.media.0.codec.colorspace">709</property>
  <property name="kdenlive:original.meta.media.0.codec.name">h264</property>
  <property name="kdenlive:original.meta.media.0.codec.long_name">H.264 / AVC / MPEG-4 AVC / MPEG-4 part 10</property>
  <property name="kdenlive:original.meta.media.0.codec.bit_rate">379368</property>
  <property name="kdenlive:original.meta.attr.0.stream.handler_name.markup">VideoHandler</property>
  <property name="kdenlive:original.meta.attr.0.stream.vendor_id.markup">[0][0][0][0]</property>
  <property name="kdenlive:original.meta.attr.major_brand.markup">isom</property>
  <property name="kdenlive:original.meta.attr.minor_version.markup">512</property>
  <property name="kdenlive:original.meta.attr.compatible_brands.markup">isomiso2avc1mp41</property>
  <property name="kdenlive:original.meta.attr.encoder.markup">Lavf58.76.100</property>
  <property name="kdenlive:original.meta.attr.comment.markup">Rendered with Manim Community v0.6.0</property>
  <property name="kdenlive:original.seekable">1</property>
  <property name="kdenlive:original.width">3840</property>
  <property name="kdenlive:original.height">2160</property>
  <property name="kdenlive:original.meta.media.sample_aspect_num">1</property>
  <property name="kdenlive:original.meta.media.sample_aspect_den">1</property>
  <property name="kdenlive:original.aspect_ratio">1</property>
  <property name="kdenlive:original.audio_index">-1</property>
  <property name="kdenlive:original.video_index">0</property>
  <property name="kdenlive:original.mute_on_pause">0</property>
  <property name="kdenlive:original.mlt_service">avformat-novalidate</property>
  <property name="kdenlive:original.kdenlive:folderid">387</property>
  <property name="kdenlive:original.meta.media.frame_rate_num">60</property>
  <property name="kdenlive:original.meta.media.frame_rate_den">1</property>
  <property name="kdenlive:original.meta.media.colorspace">709</property>
  <property name="kdenlive:original.meta.media.color_trc">2</property>
  <property name="kdenlive:original.meta.media.width">3840</property>
  <property name="kdenlive:original.meta.media.height">2160</property>
  <property name="kdenlive:original.meta.media.color_range">mpeg</property>
  <property name="kdenlive:original.kdenlive:id">436</property>
  <property name="kdenlive:original.kdenlive:file_size">49052</property>
  <property name="kdenlive:original.kdenlive:file_hash">de7b82ab8e546f1f1e9df2caa1f6fb30</property>
  <property name="kdenlive:original.backup">1</property>
  <property name="global_feed">1</property>
  <property name="kdenlive:original.kdenlive:original.mlt_type">mlt_producer</property>
  <property name="kdenlive:original.kdenlive:original.in">0</property>
  <property name="kdenlive:original.kdenlive:original.out">59</property>
  <property name="kdenlive:original.kdenlive:original.length">60</property>
  <property name="kdenlive:original.kdenlive:original.eof">pause</property>
  <property name="kdenlive:original.kdenlive:original.resource">video/Theorem/31.mp4</property>
  <property name="kdenlive:original.kdenlive:original.meta.media.nb_streams">1</property>
  <property name="kdenlive:original.kdenlive:original.meta.media.0.stream.type">video</property>
  <property name="kdenlive:original.kdenlive:original.meta.media.0.stream.frame_rate">60</property>
  <property name="kdenlive:original.kdenlive:original.meta.media.0.stream.sample_aspect_ratio">0</property>
  <property name="kdenlive:original.kdenlive:original.meta.media.0.codec.width">3840</property>
  <property name="kdenlive:original.kdenlive:original.meta.media.0.codec.height">2160</property>
  <property name="kdenlive:original.kdenlive:original.meta.media.0.codec.rotate">0</property>
  <property name="kdenlive:original.kdenlive:original.meta.media.0.codec.frame_rate">60</property>
  <property name="kdenlive:original.kdenlive:original.meta.media.0.codec.pix_fmt">yuv420p</property>
  <property name="kdenlive:original.kdenlive:original.meta.media.0.codec.sample_aspect_ratio">0</property>
  <property name="kdenlive:original.kdenlive:original.meta.media.0.codec.colorspace">709</property>
  <property name="kdenlive:original.kdenlive:original.meta.media.0.codec.name">h264</property>
  <property name="kdenlive:original.kdenlive:original.meta.media.0.codec.long_name">H.264 / AVC / MPEG-4 AVC / MPEG-4 part 10</property>
  <property name="kdenlive:original.kdenlive:original.meta.media.0.codec.bit_rate">379368</property>
  <property name="kdenlive:original.kdenlive:original.meta.attr.0.stream.handler_name.markup">VideoHandler</property>
  <property name="kdenlive:original.kdenlive:original.meta.attr.0.stream.vendor_id.markup">[0][0][0][0]</property>
  <property name="kdenlive:original.kdenlive:original.meta.attr.major_brand.markup">isom</property>
  <property name="kdenlive:original.kdenlive:original.meta.attr.minor_version.markup">512</property>
  <property name="kdenlive:original.kdenlive:original.meta.attr.compatible_brands.markup">isomiso2avc1mp41</property>
  <property name="kdenlive:original.kdenlive:original.meta.attr.encoder.markup">Lavf58.76.100</property>
  <property name="kdenlive:original.kdenlive:original.meta.attr.comment.markup">Rendered with Manim Community v0.6.0</property>
  <property name="kdenlive:original.kdenlive:original.seekable">1</property>
  <property name="kdenlive:original.kdenlive:original.width">3840</property>
  <property name="kdenlive:original.kdenlive:original.height">2160</property>
  <property name="kdenlive:original.kdenlive:original.meta.media.sample_aspect_num">1</property>
  <property name="kdenlive:original.kdenlive:original.meta.media.sample_aspect_den">1</property>
  <property name="kdenlive:original.kdenlive:original.aspect_ratio">1</property>
  <property name="kdenlive:original.kdenlive:original.audio_index">-1</property>
  <property name="kdenlive:original.kdenlive:original.video_index">0</property>
  <property name="kdenlive:original.kdenlive:original.mute_on_pause">0</property>
  <property name="kdenlive:original.kdenlive:original.mlt_service">avformat-novalidate</property>
  <property name="kdenlive:original.kdenlive:original.kdenlive:folderid">387</property>
  <property name="kdenlive:original.kdenlive:original.meta.media.frame_rate_num">60</property>
  <property name="kdenlive:original.kdenlive:original.meta.media.frame_rate_den">1</property>
  <property name="kdenlive:original.kdenlive:original.meta.media.colorspace">709</property>
  <property name="kdenlive:original.kdenlive:original.meta.media.color_trc">2</property>
  <property name="kdenlive:original.kdenlive:original.meta.media.width">3840</property>
  <property name="kdenlive:original.kdenlive:original.meta.media.height">2160</property>
  <property name="kdenlive:original.kdenlive:original.meta.media.color_range">mpeg</property>
  <property name="kdenlive:original.kdenlive:original.kdenlive:id">436</property>
  <property name="kdenlive:original.kdenlive:original.kdenlive:file_size">49052</property>
  <property name="kdenlive:original.kdenlive:original.kdenlive:file_hash">de7b82ab8e546f1f1e9df2caa1f6fb30</property>
  <property name="kdenlive:original.root">/</property>
  <property name="kdenlive:original.global_feed">1</property>
  <property name="meta.media.nb_streams">1</property>
  <property name="meta.media.0.stream.type">video</property>
  <property name="meta.media.0.stream.frame_rate">60</property>
  <property name="meta.media.0.stream.sample_aspect_ratio">0</property>
  <property name="meta.media.0.codec.width">640</property>
  <property name="meta.media.0.codec.height">360</property>
  <property name="meta.media.0.codec.rotate">0</property>
  <property name="meta.media.0.codec.frame_rate">60</property>
  <property name="meta.media.0.codec.pix_fmt">yuv420p</property>
  <property name="meta.media.0.codec.sample_aspect_ratio">0</property>
  <property name="meta.media.0.codec.colorspace">601</property>
  <property name="meta.media.0.codec.name">h264</property>
  <property name="meta.media.0.codec.long_name">H.264 / AVC / MPEG-4 AVC / MPEG-4 part 10</property>
  <property name="meta.media.0.codec.bit_rate">0</property>
  <property name="meta.attr.0.stream.HANDLER_NAME.markup">VideoHandler</property>
  <property name="meta.attr.0.stream.VENDOR_ID.markup">[0][0][0][0]</property>
  <property name="meta.attr.0.stream.ENCODER.markup">Lavc58.134.100 libx264</property>
  <property name="meta.attr.0.stream.DURATION.markup">00:00:01.000000000</property>
  <property name="meta.attr.COMMENT.markup">Rendered with Manim Community v0.6.0</property>
  <property name="meta.attr.MAJOR_BRAND.markup">isom</property>
  <property name="meta.attr.MINOR_VERSION.markup">512</property>
  <property name="meta.attr.COMPATIBLE_BRANDS.markup">isomiso2avc1mp41</property>
  <property name="meta.attr.ENCODER.markup">Lavf58.76.100</property>
  <property name="meta.media.sample_aspect_num">1</property>
  <property name="meta.media.sample_aspect_den">1</property>
  <property name="meta.media.frame_rate_num">60</property>
  <property name="meta.media.frame_rate_den">1</property>
  <property name="meta.media.colorspace">601</property>
  <property name="meta.media.color_trc">2</property>
  <property name="meta.media.width">640</property>
  <property name="meta.media.height">360</property>
  <property name="meta.media.color_range">mpeg</property>
 </producer>
 <producer id="producer444" in="00:00:00.000" out="00:00:04.983">
  <property name="length">00:00:05.000</property>
  <property name="eof">pause</property>
  <property name="resource">/home/xiaoxiae/.cache/kdenlive/proxy/22b8b6403ef2e82945ca14efefeee772.png</property>
  <property name="ttl">25</property>
  <property name="aspect_ratio">1</property>
  <property name="progressive">1</property>
  <property name="seekable">1</property>
  <property name="meta.media.width">800</property>
  <property name="meta.media.height">450</property>
  <property name="mlt_service">qimage</property>
  <property name="kdenlive:clipname">31.png</property>
  <property name="kdenlive:duration">00:00:05.000</property>
  <property name="kdenlive:folderid">387</property>
  <property name="kdenlive:id">414</property>
  <property name="kdenlive:file_size">159263</property>
  <property name="kdenlive:file_hash">22b8b6403ef2e82945ca14efefeee772</property>
  <property name="kdenlive:proxy">/home/xiaoxiae/.cache/kdenlive/proxy/22b8b6403ef2e82945ca14efefeee772.png</property>
  <property name="kdenlive:originalurl">video/Theorem/31.png</property>
  <property name="kdenlive:original.mlt_type">mlt_producer</property>
  <property name="kdenlive:original.in">0</property>
  <property name="kdenlive:original.out">299</property>
  <property name="kdenlive:original.length">00:00:05.000</property>
  <property name="kdenlive:original.eof">pause</property>
  <property name="kdenlive:original.resource">video/Theorem/31.png</property>
  <property name="kdenlive:original.ttl">25</property>
  <property name="kdenlive:original.aspect_ratio">1</property>
  <property name="kdenlive:original.progressive">1</property>
  <property name="kdenlive:original.seekable">1</property>
  <property name="kdenlive:original.meta.media.width">3840</property>
  <property name="kdenlive:original.meta.media.height">2160</property>
  <property name="kdenlive:original.mlt_service">qimage</property>
  <property name="kdenlive:original.kdenlive:duration">00:00:05.000</property>
  <property name="kdenlive:original.kdenlive:folderid">387</property>
  <property name="kdenlive:original.kdenlive:id">437</property>
  <property name="kdenlive:original.kdenlive:file_size">159263</property>
  <property name="kdenlive:original.kdenlive:file_hash">22b8b6403ef2e82945ca14efefeee772</property>
  <property name="kdenlive:original.backup">1</property>
  <property name="global_feed">1</property>
  <property name="kdenlive:original.kdenlive:original.mlt_type">mlt_producer</property>
  <property name="kdenlive:original.kdenlive:original.in">0</property>
  <property name="kdenlive:original.kdenlive:original.out">299</property>
  <property name="kdenlive:original.kdenlive:original.length">00:00:05.000</property>
  <property name="kdenlive:original.kdenlive:original.eof">pause</property>
  <property name="kdenlive:original.kdenlive:original.resource">video/Theorem/31.png</property>
  <property name="kdenlive:original.kdenlive:original.ttl">25</property>
  <property name="kdenlive:original.kdenlive:original.aspect_ratio">1</property>
  <property name="kdenlive:original.kdenlive:original.progressive">1</property>
  <property name="kdenlive:original.kdenlive:original.seekable">1</property>
  <property name="kdenlive:original.kdenlive:original.meta.media.width">3840</property>
  <property name="kdenlive:original.kdenlive:original.meta.media.height">2160</property>
  <property name="kdenlive:original.kdenlive:original.mlt_service">qimage</property>
  <property name="kdenlive:original.kdenlive:original.kdenlive:duration">00:00:05.000</property>
  <property name="kdenlive:original.kdenlive:original.kdenlive:folderid">387</property>
  <property name="kdenlive:original.kdenlive:original.kdenlive:id">437</property>
  <property name="kdenlive:original.kdenlive:original.kdenlive:file_size">159263</property>
  <property name="kdenlive:original.kdenlive:original.kdenlive:file_hash">22b8b6403ef2e82945ca14efefeee772</property>
  <property name="kdenlive:original.root">/</property>
  <property name="kdenlive:original.global_feed">1</property>
 </producer>
 <producer id="producer446" in="00:00:00.000" out="00:00:00.983">
  <property name="length">60</property>
  <property name="eof">pause</property>
  <property name="resource">/home/xiaoxiae/.cache/kdenlive/proxy/b21b4b4a069be09d09d495d7096b18cc.mkv</property>
  <property name="audio_index">-1</property>
  <property name="video_index">0</property>
  <property name="mute_on_pause">0</property>
  <property name="mlt_service">avformat-novalidate</property>
  <property name="seekable">1</property>
  <property name="aspect_ratio">1</property>
  <property name="kdenlive:clipname">32.mp4</property>
  <property name="kdenlive:folderid">387</property>
  <property name="kdenlive:id">415</property>
  <property name="kdenlive:file_size">77235</property>
  <property name="kdenlive:file_hash">b21b4b4a069be09d09d495d7096b18cc</property>
  <property name="kdenlive:proxy">/home/xiaoxiae/.cache/kdenlive/proxy/b21b4b4a069be09d09d495d7096b18cc.mkv</property>
  <property name="kdenlive:originalurl">video/Theorem/32.mp4</property>
  <property name="kdenlive:original.mlt_type">mlt_producer</property>
  <property name="kdenlive:original.in">0</property>
  <property name="kdenlive:original.out">59</property>
  <property name="kdenlive:original.length">60</property>
  <property name="kdenlive:original.eof">pause</property>
  <property name="kdenlive:original.resource">video/Theorem/32.mp4</property>
  <property name="kdenlive:original.meta.media.nb_streams">1</property>
  <property name="kdenlive:original.meta.media.0.stream.type">video</property>
  <property name="kdenlive:original.meta.media.0.stream.frame_rate">60</property>
  <property name="kdenlive:original.meta.media.0.stream.sample_aspect_ratio">0</property>
  <property name="kdenlive:original.meta.media.0.codec.width">3840</property>
  <property name="kdenlive:original.meta.media.0.codec.height">2160</property>
  <property name="kdenlive:original.meta.media.0.codec.rotate">0</property>
  <property name="kdenlive:original.meta.media.0.codec.frame_rate">60</property>
  <property name="kdenlive:original.meta.media.0.codec.pix_fmt">yuv420p</property>
  <property name="kdenlive:original.meta.media.0.codec.sample_aspect_ratio">0</property>
  <property name="kdenlive:original.meta.media.0.codec.colorspace">709</property>
  <property name="kdenlive:original.meta.media.0.codec.name">h264</property>
  <property name="kdenlive:original.meta.media.0.codec.long_name">H.264 / AVC / MPEG-4 AVC / MPEG-4 part 10</property>
  <property name="kdenlive:original.meta.media.0.codec.bit_rate">604832</property>
  <property name="kdenlive:original.meta.attr.0.stream.handler_name.markup">VideoHandler</property>
  <property name="kdenlive:original.meta.attr.0.stream.vendor_id.markup">[0][0][0][0]</property>
  <property name="kdenlive:original.meta.attr.major_brand.markup">isom</property>
  <property name="kdenlive:original.meta.attr.minor_version.markup">512</property>
  <property name="kdenlive:original.meta.attr.compatible_brands.markup">isomiso2avc1mp41</property>
  <property name="kdenlive:original.meta.attr.encoder.markup">Lavf58.76.100</property>
  <property name="kdenlive:original.meta.attr.comment.markup">Rendered with Manim Community v0.6.0</property>
  <property name="kdenlive:original.seekable">1</property>
  <property name="kdenlive:original.width">3840</property>
  <property name="kdenlive:original.height">2160</property>
  <property name="kdenlive:original.meta.media.sample_aspect_num">1</property>
  <property name="kdenlive:original.meta.media.sample_aspect_den">1</property>
  <property name="kdenlive:original.aspect_ratio">1</property>
  <property name="kdenlive:original.audio_index">-1</property>
  <property name="kdenlive:original.video_index">0</property>
  <property name="kdenlive:original.mute_on_pause">0</property>
  <property name="kdenlive:original.mlt_service">avformat-novalidate</property>
  <property name="kdenlive:original.kdenlive:folderid">387</property>
  <property name="kdenlive:original.meta.media.frame_rate_num">60</property>
  <property name="kdenlive:original.meta.media.frame_rate_den">1</property>
  <property name="kdenlive:original.meta.media.colorspace">709</property>
  <property name="kdenlive:original.meta.media.color_trc">2</property>
  <property name="kdenlive:original.meta.media.width">3840</property>
  <property name="kdenlive:original.meta.media.height">2160</property>
  <property name="kdenlive:original.meta.media.color_range">mpeg</property>
  <property name="kdenlive:original.kdenlive:id">438</property>
  <property name="kdenlive:original.kdenlive:file_size">77235</property>
  <property name="kdenlive:original.kdenlive:file_hash">b21b4b4a069be09d09d495d7096b18cc</property>
  <property name="kdenlive:original.backup">1</property>
  <property name="global_feed">1</property>
  <property name="kdenlive:original.kdenlive:original.mlt_type">mlt_producer</property>
  <property name="kdenlive:original.kdenlive:original.in">0</property>
  <property name="kdenlive:original.kdenlive:original.out">59</property>
  <property name="kdenlive:original.kdenlive:original.length">60</property>
  <property name="kdenlive:original.kdenlive:original.eof">pause</property>
  <property name="kdenlive:original.kdenlive:original.resource">video/Theorem/32.mp4</property>
  <property name="kdenlive:original.kdenlive:original.meta.media.nb_streams">1</property>
  <property name="kdenlive:original.kdenlive:original.meta.media.0.stream.type">video</property>
  <property name="kdenlive:original.kdenlive:original.meta.media.0.stream.frame_rate">60</property>
  <property name="kdenlive:original.kdenlive:original.meta.media.0.stream.sample_aspect_ratio">0</property>
  <property name="kdenlive:original.kdenlive:original.meta.media.0.codec.width">3840</property>
  <property name="kdenlive:original.kdenlive:original.meta.media.0.codec.height">2160</property>
  <property name="kdenlive:original.kdenlive:original.meta.media.0.codec.rotate">0</property>
  <property name="kdenlive:original.kdenlive:original.meta.media.0.codec.frame_rate">60</property>
  <property name="kdenlive:original.kdenlive:original.meta.media.0.codec.pix_fmt">yuv420p</property>
  <property name="kdenlive:original.kdenlive:original.meta.media.0.codec.sample_aspect_ratio">0</property>
  <property name="kdenlive:original.kdenlive:original.meta.media.0.codec.colorspace">709</property>
  <property name="kdenlive:original.kdenlive:original.meta.media.0.codec.name">h264</property>
  <property name="kdenlive:original.kdenlive:original.meta.media.0.codec.long_name">H.264 / AVC / MPEG-4 AVC / MPEG-4 part 10</property>
  <property name="kdenlive:original.kdenlive:original.meta.media.0.codec.bit_rate">604832</property>
  <property name="kdenlive:original.kdenlive:original.meta.attr.0.stream.handler_name.markup">VideoHandler</property>
  <property name="kdenlive:original.kdenlive:original.meta.attr.0.stream.vendor_id.markup">[0][0][0][0]</property>
  <property name="kdenlive:original.kdenlive:original.meta.attr.major_brand.markup">isom</property>
  <property name="kdenlive:original.kdenlive:original.meta.attr.minor_version.markup">512</property>
  <property name="kdenlive:original.kdenlive:original.meta.attr.compatible_brands.markup">isomiso2avc1mp41</property>
  <property name="kdenlive:original.kdenlive:original.meta.attr.encoder.markup">Lavf58.76.100</property>
  <property name="kdenlive:original.kdenlive:original.meta.attr.comment.markup">Rendered with Manim Community v0.6.0</property>
  <property name="kdenlive:original.kdenlive:original.seekable">1</property>
  <property name="kdenlive:original.kdenlive:original.width">3840</property>
  <property name="kdenlive:original.kdenlive:original.height">2160</property>
  <property name="kdenlive:original.kdenlive:original.meta.media.sample_aspect_num">1</property>
  <property name="kdenlive:original.kdenlive:original.meta.media.sample_aspect_den">1</property>
  <property name="kdenlive:original.kdenlive:original.aspect_ratio">1</property>
  <property name="kdenlive:original.kdenlive:original.audio_index">-1</property>
  <property name="kdenlive:original.kdenlive:original.video_index">0</property>
  <property name="kdenlive:original.kdenlive:original.mute_on_pause">0</property>
  <property name="kdenlive:original.kdenlive:original.mlt_service">avformat-novalidate</property>
  <property name="kdenlive:original.kdenlive:original.kdenlive:folderid">387</property>
  <property name="kdenlive:original.kdenlive:original.meta.media.frame_rate_num">60</property>
  <property name="kdenlive:original.kdenlive:original.meta.media.frame_rate_den">1</property>
  <property name="kdenlive:original.kdenlive:original.meta.media.colorspace">709</property>
  <property name="kdenlive:original.kdenlive:original.meta.media.color_trc">2</property>
  <property name="kdenlive:original.kdenlive:original.meta.media.width">3840</property>
  <property name="kdenlive:original.kdenlive:original.meta.media.height">2160</property>
  <property name="kdenlive:original.kdenlive:original.meta.media.color_range">mpeg</property>
  <property name="kdenlive:original.kdenlive:original.kdenlive:id">438</property>
  <property name="kdenlive:original.kdenlive:original.kdenlive:file_size">77235</property>
  <property name="kdenlive:original.kdenlive:original.kdenlive:file_hash">b21b4b4a069be09d09d495d7096b18cc</property>
  <property name="kdenlive:original.root">/</property>
  <property name="kdenlive:original.global_feed">1</property>
  <property name="meta.media.nb_streams">1</property>
  <property name="meta.media.0.stream.type">video</property>
  <property name="meta.media.0.stream.frame_rate">60</property>
  <property name="meta.media.0.stream.sample_aspect_ratio">0</property>
  <property name="meta.media.0.codec.width">640</property>
  <property name="meta.media.0.codec.height">360</property>
  <property name="meta.media.0.codec.rotate">0</property>
  <property name="meta.media.0.codec.frame_rate">60</property>
  <property name="meta.media.0.codec.pix_fmt">yuv420p</property>
  <property name="meta.media.0.codec.sample_aspect_ratio">0</property>
  <property name="meta.media.0.codec.colorspace">601</property>
  <property name="meta.media.0.codec.name">h264</property>
  <property name="meta.media.0.codec.long_name">H.264 / AVC / MPEG-4 AVC / MPEG-4 part 10</property>
  <property name="meta.media.0.codec.bit_rate">0</property>
  <property name="meta.attr.0.stream.HANDLER_NAME.markup">VideoHandler</property>
  <property name="meta.attr.0.stream.VENDOR_ID.markup">[0][0][0][0]</property>
  <property name="meta.attr.0.stream.ENCODER.markup">Lavc58.134.100 libx264</property>
  <property name="meta.attr.0.stream.DURATION.markup">00:00:01.000000000</property>
  <property name="meta.attr.COMMENT.markup">Rendered with Manim Community v0.6.0</property>
  <property name="meta.attr.MAJOR_BRAND.markup">isom</property>
  <property name="meta.attr.MINOR_VERSION.markup">512</property>
  <property name="meta.attr.COMPATIBLE_BRANDS.markup">isomiso2avc1mp41</property>
  <property name="meta.attr.ENCODER.markup">Lavf58.76.100</property>
  <property name="meta.media.sample_aspect_num">1</property>
  <property name="meta.media.sample_aspect_den">1</property>
  <property name="meta.media.frame_rate_num">60</property>
  <property name="meta.media.frame_rate_den">1</property>
  <property name="meta.media.colorspace">601</property>
  <property name="meta.media.color_trc">2</property>
  <property name="meta.media.width">640</property>
  <property name="meta.media.height">360</property>
  <property name="meta.media.color_range">mpeg</property>
 </producer>
 <producer id="producer447" in="00:00:00.000" out="00:00:04.983">
  <property name="length">00:00:05.000</property>
  <property name="eof">pause</property>
  <property name="resource">/home/xiaoxiae/.cache/kdenlive/proxy/9738e092501031f1647f316d3d4c6c71.png</property>
  <property name="ttl">25</property>
  <property name="aspect_ratio">1</property>
  <property name="progressive">1</property>
  <property name="seekable">1</property>
  <property name="meta.media.width">800</property>
  <property name="meta.media.height">450</property>
  <property name="mlt_service">qimage</property>
  <property name="kdenlive:clipname">32.png</property>
  <property name="kdenlive:duration">00:00:05.000</property>
  <property name="kdenlive:folderid">387</property>
  <property name="kdenlive:id">416</property>
  <property name="kdenlive:file_size">188371</property>
  <property name="kdenlive:file_hash">9738e092501031f1647f316d3d4c6c71</property>
  <property name="kdenlive:proxy">/home/xiaoxiae/.cache/kdenlive/proxy/9738e092501031f1647f316d3d4c6c71.png</property>
  <property name="kdenlive:originalurl">video/Theorem/32.png</property>
  <property name="kdenlive:original.mlt_type">mlt_producer</property>
  <property name="kdenlive:original.in">0</property>
  <property name="kdenlive:original.out">299</property>
  <property name="kdenlive:original.length">00:00:05.000</property>
  <property name="kdenlive:original.eof">pause</property>
  <property name="kdenlive:original.resource">video/Theorem/32.png</property>
  <property name="kdenlive:original.ttl">25</property>
  <property name="kdenlive:original.aspect_ratio">1</property>
  <property name="kdenlive:original.progressive">1</property>
  <property name="kdenlive:original.seekable">1</property>
  <property name="kdenlive:original.meta.media.width">3840</property>
  <property name="kdenlive:original.meta.media.height">2160</property>
  <property name="kdenlive:original.mlt_service">qimage</property>
  <property name="kdenlive:original.kdenlive:duration">00:00:05.000</property>
  <property name="kdenlive:original.kdenlive:folderid">387</property>
  <property name="kdenlive:original.kdenlive:id">439</property>
  <property name="kdenlive:original.kdenlive:file_size">188371</property>
  <property name="kdenlive:original.kdenlive:file_hash">9738e092501031f1647f316d3d4c6c71</property>
  <property name="kdenlive:original.backup">1</property>
  <property name="global_feed">1</property>
  <property name="kdenlive:original.kdenlive:original.mlt_type">mlt_producer</property>
  <property name="kdenlive:original.kdenlive:original.in">0</property>
  <property name="kdenlive:original.kdenlive:original.out">299</property>
  <property name="kdenlive:original.kdenlive:original.length">00:00:05.000</property>
  <property name="kdenlive:original.kdenlive:original.eof">pause</property>
  <property name="kdenlive:original.kdenlive:original.resource">video/Theorem/32.png</property>
  <property name="kdenlive:original.kdenlive:original.ttl">25</property>
  <property name="kdenlive:original.kdenlive:original.aspect_ratio">1</property>
  <property name="kdenlive:original.kdenlive:original.progressive">1</property>
  <property name="kdenlive:original.kdenlive:original.seekable">1</property>
  <property name="kdenlive:original.kdenlive:original.meta.media.width">3840</property>
  <property name="kdenlive:original.kdenlive:original.meta.media.height">2160</property>
  <property name="kdenlive:original.kdenlive:original.mlt_service">qimage</property>
  <property name="kdenlive:original.kdenlive:original.kdenlive:duration">00:00:05.000</property>
  <property name="kdenlive:original.kdenlive:original.kdenlive:folderid">387</property>
  <property name="kdenlive:original.kdenlive:original.kdenlive:id">439</property>
  <property name="kdenlive:original.kdenlive:original.kdenlive:file_size">188371</property>
  <property name="kdenlive:original.kdenlive:original.kdenlive:file_hash">9738e092501031f1647f316d3d4c6c71</property>
  <property name="kdenlive:original.root">/</property>
  <property name="kdenlive:original.global_feed">1</property>
 </producer>
 <producer id="producer451" in="00:00:00.000" out="00:00:00.983">
  <property name="length">60</property>
  <property name="eof">pause</property>
  <property name="resource">/home/xiaoxiae/.cache/kdenlive/proxy/d1cd9d127677914c8335451b20ec3201.mkv</property>
  <property name="audio_index">-1</property>
  <property name="video_index">0</property>
  <property name="mute_on_pause">0</property>
  <property name="mlt_service">avformat-novalidate</property>
  <property name="seekable">1</property>
  <property name="aspect_ratio">1</property>
  <property name="kdenlive:clipname">33.mp4</property>
  <property name="kdenlive:folderid">387</property>
  <property name="kdenlive:id">417</property>
  <property name="kdenlive:file_size">64267</property>
  <property name="kdenlive:file_hash">d1cd9d127677914c8335451b20ec3201</property>
  <property name="kdenlive:proxy">/home/xiaoxiae/.cache/kdenlive/proxy/d1cd9d127677914c8335451b20ec3201.mkv</property>
  <property name="kdenlive:originalurl">video/Theorem/33.mp4</property>
  <property name="kdenlive:original.mlt_type">mlt_producer</property>
  <property name="kdenlive:original.in">0</property>
  <property name="kdenlive:original.out">59</property>
  <property name="kdenlive:original.length">60</property>
  <property name="kdenlive:original.eof">pause</property>
  <property name="kdenlive:original.resource">video/Theorem/33.mp4</property>
  <property name="kdenlive:original.meta.media.nb_streams">1</property>
  <property name="kdenlive:original.meta.media.0.stream.type">video</property>
  <property name="kdenlive:original.meta.media.0.stream.frame_rate">60</property>
  <property name="kdenlive:original.meta.media.0.stream.sample_aspect_ratio">0</property>
  <property name="kdenlive:original.meta.media.0.codec.width">3840</property>
  <property name="kdenlive:original.meta.media.0.codec.height">2160</property>
  <property name="kdenlive:original.meta.media.0.codec.rotate">0</property>
  <property name="kdenlive:original.meta.media.0.codec.frame_rate">60</property>
  <property name="kdenlive:original.meta.media.0.codec.pix_fmt">yuv420p</property>
  <property name="kdenlive:original.meta.media.0.codec.sample_aspect_ratio">0</property>
  <property name="kdenlive:original.meta.media.0.codec.colorspace">709</property>
  <property name="kdenlive:original.meta.media.0.codec.name">h264</property>
  <property name="kdenlive:original.meta.media.0.codec.long_name">H.264 / AVC / MPEG-4 AVC / MPEG-4 part 10</property>
  <property name="kdenlive:original.meta.media.0.codec.bit_rate">502176</property>
  <property name="kdenlive:original.meta.attr.0.stream.handler_name.markup">VideoHandler</property>
  <property name="kdenlive:original.meta.attr.0.stream.vendor_id.markup">[0][0][0][0]</property>
  <property name="kdenlive:original.meta.attr.major_brand.markup">isom</property>
  <property name="kdenlive:original.meta.attr.minor_version.markup">512</property>
  <property name="kdenlive:original.meta.attr.compatible_brands.markup">isomiso2avc1mp41</property>
  <property name="kdenlive:original.meta.attr.encoder.markup">Lavf58.76.100</property>
  <property name="kdenlive:original.meta.attr.comment.markup">Rendered with Manim Community v0.6.0</property>
  <property name="kdenlive:original.seekable">1</property>
  <property name="kdenlive:original.width">3840</property>
  <property name="kdenlive:original.height">2160</property>
  <property name="kdenlive:original.meta.media.sample_aspect_num">1</property>
  <property name="kdenlive:original.meta.media.sample_aspect_den">1</property>
  <property name="kdenlive:original.aspect_ratio">1</property>
  <property name="kdenlive:original.audio_index">-1</property>
  <property name="kdenlive:original.video_index">0</property>
  <property name="kdenlive:original.mute_on_pause">0</property>
  <property name="kdenlive:original.mlt_service">avformat-novalidate</property>
  <property name="kdenlive:original.kdenlive:folderid">387</property>
  <property name="kdenlive:original.meta.media.frame_rate_num">60</property>
  <property name="kdenlive:original.meta.media.frame_rate_den">1</property>
  <property name="kdenlive:original.meta.media.colorspace">709</property>
  <property name="kdenlive:original.meta.media.color_trc">2</property>
  <property name="kdenlive:original.meta.media.width">3840</property>
  <property name="kdenlive:original.meta.media.height">2160</property>
  <property name="kdenlive:original.meta.media.color_range">mpeg</property>
  <property name="kdenlive:original.kdenlive:id">440</property>
  <property name="kdenlive:original.kdenlive:file_size">64267</property>
  <property name="kdenlive:original.kdenlive:file_hash">d1cd9d127677914c8335451b20ec3201</property>
  <property name="kdenlive:original.backup">1</property>
  <property name="global_feed">1</property>
  <property name="kdenlive:original.kdenlive:original.mlt_type">mlt_producer</property>
  <property name="kdenlive:original.kdenlive:original.in">0</property>
  <property name="kdenlive:original.kdenlive:original.out">59</property>
  <property name="kdenlive:original.kdenlive:original.length">60</property>
  <property name="kdenlive:original.kdenlive:original.eof">pause</property>
  <property name="kdenlive:original.kdenlive:original.resource">video/Theorem/33.mp4</property>
  <property name="kdenlive:original.kdenlive:original.meta.media.nb_streams">1</property>
  <property name="kdenlive:original.kdenlive:original.meta.media.0.stream.type">video</property>
  <property name="kdenlive:original.kdenlive:original.meta.media.0.stream.frame_rate">60</property>
  <property name="kdenlive:original.kdenlive:original.meta.media.0.stream.sample_aspect_ratio">0</property>
  <property name="kdenlive:original.kdenlive:original.meta.media.0.codec.width">3840</property>
  <property name="kdenlive:original.kdenlive:original.meta.media.0.codec.height">2160</property>
  <property name="kdenlive:original.kdenlive:original.meta.media.0.codec.rotate">0</property>
  <property name="kdenlive:original.kdenlive:original.meta.media.0.codec.frame_rate">60</property>
  <property name="kdenlive:original.kdenlive:original.meta.media.0.codec.pix_fmt">yuv420p</property>
  <property name="kdenlive:original.kdenlive:original.meta.media.0.codec.sample_aspect_ratio">0</property>
  <property name="kdenlive:original.kdenlive:original.meta.media.0.codec.colorspace">709</property>
  <property name="kdenlive:original.kdenlive:original.meta.media.0.codec.name">h264</property>
  <property name="kdenlive:original.kdenlive:original.meta.media.0.codec.long_name">H.264 / AVC / MPEG-4 AVC / MPEG-4 part 10</property>
  <property name="kdenlive:original.kdenlive:original.meta.media.0.codec.bit_rate">502176</property>
  <property name="kdenlive:original.kdenlive:original.meta.attr.0.stream.handler_name.markup">VideoHandler</property>
  <property name="kdenlive:original.kdenlive:original.meta.attr.0.stream.vendor_id.markup">[0][0][0][0]</property>
  <property name="kdenlive:original.kdenlive:original.meta.attr.major_brand.markup">isom</property>
  <property name="kdenlive:original.kdenlive:original.meta.attr.minor_version.markup">512</property>
  <property name="kdenlive:original.kdenlive:original.meta.attr.compatible_brands.markup">isomiso2avc1mp41</property>
  <property name="kdenlive:original.kdenlive:original.meta.attr.encoder.markup">Lavf58.76.100</property>
  <property name="kdenlive:original.kdenlive:original.meta.attr.comment.markup">Rendered with Manim Community v0.6.0</property>
  <property name="kdenlive:original.kdenlive:original.seekable">1</property>
  <property name="kdenlive:original.kdenlive:original.width">3840</property>
  <property name="kdenlive:original.kdenlive:original.height">2160</property>
  <property name="kdenlive:original.kdenlive:original.meta.media.sample_aspect_num">1</property>
  <property name="kdenlive:original.kdenlive:original.meta.media.sample_aspect_den">1</property>
  <property name="kdenlive:original.kdenlive:original.aspect_ratio">1</property>
  <property name="kdenlive:original.kdenlive:original.audio_index">-1</property>
  <property name="kdenlive:original.kdenlive:original.video_index">0</property>
  <property name="kdenlive:original.kdenlive:original.mute_on_pause">0</property>
  <property name="kdenlive:original.kdenlive:original.mlt_service">avformat-novalidate</property>
  <property name="kdenlive:original.kdenlive:original.kdenlive:folderid">387</property>
  <property name="kdenlive:original.kdenlive:original.meta.media.frame_rate_num">60</property>
  <property name="kdenlive:original.kdenlive:original.meta.media.frame_rate_den">1</property>
  <property name="kdenlive:original.kdenlive:original.meta.media.colorspace">709</property>
  <property name="kdenlive:original.kdenlive:original.meta.media.color_trc">2</property>
  <property name="kdenlive:original.kdenlive:original.meta.media.width">3840</property>
  <property name="kdenlive:original.kdenlive:original.meta.media.height">2160</property>
  <property name="kdenlive:original.kdenlive:original.meta.media.color_range">mpeg</property>
  <property name="kdenlive:original.kdenlive:original.kdenlive:id">440</property>
  <property name="kdenlive:original.kdenlive:original.kdenlive:file_size">64267</property>
  <property name="kdenlive:original.kdenlive:original.kdenlive:file_hash">d1cd9d127677914c8335451b20ec3201</property>
  <property name="kdenlive:original.root">/</property>
  <property name="kdenlive:original.global_feed">1</property>
  <property name="meta.media.nb_streams">1</property>
  <property name="meta.media.0.stream.type">video</property>
  <property name="meta.media.0.stream.frame_rate">60</property>
  <property name="meta.media.0.stream.sample_aspect_ratio">0</property>
  <property name="meta.media.0.codec.width">640</property>
  <property name="meta.media.0.codec.height">360</property>
  <property name="meta.media.0.codec.rotate">0</property>
  <property name="meta.media.0.codec.frame_rate">60</property>
  <property name="meta.media.0.codec.pix_fmt">yuv420p</property>
  <property name="meta.media.0.codec.sample_aspect_ratio">0</property>
  <property name="meta.media.0.codec.colorspace">601</property>
  <property name="meta.media.0.codec.name">h264</property>
  <property name="meta.media.0.codec.long_name">H.264 / AVC / MPEG-4 AVC / MPEG-4 part 10</property>
  <property name="meta.media.0.codec.bit_rate">0</property>
  <property name="meta.attr.0.stream.HANDLER_NAME.markup">VideoHandler</property>
  <property name="meta.attr.0.stream.VENDOR_ID.markup">[0][0][0][0]</property>
  <property name="meta.attr.0.stream.ENCODER.markup">Lavc58.134.100 libx264</property>
  <property name="meta.attr.0.stream.DURATION.markup">00:00:01.000000000</property>
  <property name="meta.attr.COMMENT.markup">Rendered with Manim Community v0.6.0</property>
  <property name="meta.attr.MAJOR_BRAND.markup">isom</property>
  <property name="meta.attr.MINOR_VERSION.markup">512</property>
  <property name="meta.attr.COMPATIBLE_BRANDS.markup">isomiso2avc1mp41</property>
  <property name="meta.attr.ENCODER.markup">Lavf58.76.100</property>
  <property name="meta.media.sample_aspect_num">1</property>
  <property name="meta.media.sample_aspect_den">1</property>
  <property name="meta.media.frame_rate_num">60</property>
  <property name="meta.media.frame_rate_den">1</property>
  <property name="meta.media.colorspace">601</property>
  <property name="meta.media.color_trc">2</property>
  <property name="meta.media.width">640</property>
  <property name="meta.media.height">360</property>
  <property name="meta.media.color_range">mpeg</property>
 </producer>
 <producer id="producer449" in="00:00:00.000" out="00:00:04.983">
  <property name="length">00:00:05.000</property>
  <property name="eof">pause</property>
  <property name="resource">/home/xiaoxiae/.cache/kdenlive/proxy/c1d8811517f75d657350b622cfc2fa16.png</property>
  <property name="ttl">25</property>
  <property name="aspect_ratio">1</property>
  <property name="progressive">1</property>
  <property name="seekable">1</property>
  <property name="meta.media.width">800</property>
  <property name="meta.media.height">450</property>
  <property name="mlt_service">qimage</property>
  <property name="kdenlive:clipname">33.png</property>
  <property name="kdenlive:duration">00:00:05.000</property>
  <property name="kdenlive:folderid">387</property>
  <property name="kdenlive:id">418</property>
  <property name="kdenlive:file_size">172147</property>
  <property name="kdenlive:file_hash">c1d8811517f75d657350b622cfc2fa16</property>
  <property name="kdenlive:proxy">/home/xiaoxiae/.cache/kdenlive/proxy/c1d8811517f75d657350b622cfc2fa16.png</property>
  <property name="kdenlive:originalurl">video/Theorem/33.png</property>
  <property name="kdenlive:original.mlt_type">mlt_producer</property>
  <property name="kdenlive:original.in">0</property>
  <property name="kdenlive:original.out">299</property>
  <property name="kdenlive:original.length">00:00:05.000</property>
  <property name="kdenlive:original.eof">pause</property>
  <property name="kdenlive:original.resource">video/Theorem/33.png</property>
  <property name="kdenlive:original.ttl">25</property>
  <property name="kdenlive:original.aspect_ratio">1</property>
  <property name="kdenlive:original.progressive">1</property>
  <property name="kdenlive:original.seekable">1</property>
  <property name="kdenlive:original.meta.media.width">3840</property>
  <property name="kdenlive:original.meta.media.height">2160</property>
  <property name="kdenlive:original.mlt_service">qimage</property>
  <property name="kdenlive:original.kdenlive:duration">00:00:05.000</property>
  <property name="kdenlive:original.kdenlive:folderid">387</property>
  <property name="kdenlive:original.kdenlive:id">441</property>
  <property name="kdenlive:original.kdenlive:file_size">172147</property>
  <property name="kdenlive:original.kdenlive:file_hash">c1d8811517f75d657350b622cfc2fa16</property>
  <property name="kdenlive:original.backup">1</property>
  <property name="global_feed">1</property>
  <property name="kdenlive:original.kdenlive:original.mlt_type">mlt_producer</property>
  <property name="kdenlive:original.kdenlive:original.in">0</property>
  <property name="kdenlive:original.kdenlive:original.out">299</property>
  <property name="kdenlive:original.kdenlive:original.length">00:00:05.000</property>
  <property name="kdenlive:original.kdenlive:original.eof">pause</property>
  <property name="kdenlive:original.kdenlive:original.resource">video/Theorem/33.png</property>
  <property name="kdenlive:original.kdenlive:original.ttl">25</property>
  <property name="kdenlive:original.kdenlive:original.aspect_ratio">1</property>
  <property name="kdenlive:original.kdenlive:original.progressive">1</property>
  <property name="kdenlive:original.kdenlive:original.seekable">1</property>
  <property name="kdenlive:original.kdenlive:original.meta.media.width">3840</property>
  <property name="kdenlive:original.kdenlive:original.meta.media.height">2160</property>
  <property name="kdenlive:original.kdenlive:original.mlt_service">qimage</property>
  <property name="kdenlive:original.kdenlive:original.kdenlive:duration">00:00:05.000</property>
  <property name="kdenlive:original.kdenlive:original.kdenlive:folderid">387</property>
  <property name="kdenlive:original.kdenlive:original.kdenlive:id">441</property>
  <property name="kdenlive:original.kdenlive:original.kdenlive:file_size">172147</property>
  <property name="kdenlive:original.kdenlive:original.kdenlive:file_hash">c1d8811517f75d657350b622cfc2fa16</property>
  <property name="kdenlive:original.root">/</property>
  <property name="kdenlive:original.global_feed">1</property>
 </producer>
 <producer id="producer454" in="00:00:00.000" out="00:00:00.983">
  <property name="length">60</property>
  <property name="eof">pause</property>
  <property name="resource">/home/xiaoxiae/.cache/kdenlive/proxy/14ad878b44c6db5617c4cdf73e3e2214.mkv</property>
  <property name="audio_index">-1</property>
  <property name="video_index">0</property>
  <property name="mute_on_pause">0</property>
  <property name="mlt_service">avformat-novalidate</property>
  <property name="seekable">1</property>
  <property name="aspect_ratio">1</property>
  <property name="kdenlive:clipname">34.mp4</property>
  <property name="kdenlive:folderid">387</property>
  <property name="kdenlive:id">419</property>
  <property name="kdenlive:file_size">72796</property>
  <property name="kdenlive:file_hash">14ad878b44c6db5617c4cdf73e3e2214</property>
  <property name="kdenlive:proxy">/home/xiaoxiae/.cache/kdenlive/proxy/14ad878b44c6db5617c4cdf73e3e2214.mkv</property>
  <property name="kdenlive:originalurl">video/Theorem/34.mp4</property>
  <property name="kdenlive:original.mlt_type">mlt_producer</property>
  <property name="kdenlive:original.in">0</property>
  <property name="kdenlive:original.out">59</property>
  <property name="kdenlive:original.length">60</property>
  <property name="kdenlive:original.eof">pause</property>
  <property name="kdenlive:original.resource">video/Theorem/34.mp4</property>
  <property name="kdenlive:original.meta.media.nb_streams">1</property>
  <property name="kdenlive:original.meta.media.0.stream.type">video</property>
  <property name="kdenlive:original.meta.media.0.stream.frame_rate">60</property>
  <property name="kdenlive:original.meta.media.0.stream.sample_aspect_ratio">0</property>
  <property name="kdenlive:original.meta.media.0.codec.width">3840</property>
  <property name="kdenlive:original.meta.media.0.codec.height">2160</property>
  <property name="kdenlive:original.meta.media.0.codec.rotate">0</property>
  <property name="kdenlive:original.meta.media.0.codec.frame_rate">60</property>
  <property name="kdenlive:original.meta.media.0.codec.pix_fmt">yuv420p</property>
  <property name="kdenlive:original.meta.media.0.codec.sample_aspect_ratio">0</property>
  <property name="kdenlive:original.meta.media.0.codec.colorspace">709</property>
  <property name="kdenlive:original.meta.media.0.codec.name">h264</property>
  <property name="kdenlive:original.meta.media.0.codec.long_name">H.264 / AVC / MPEG-4 AVC / MPEG-4 part 10</property>
  <property name="kdenlive:original.meta.media.0.codec.bit_rate">569320</property>
  <property name="kdenlive:original.meta.attr.0.stream.handler_name.markup">VideoHandler</property>
  <property name="kdenlive:original.meta.attr.0.stream.vendor_id.markup">[0][0][0][0]</property>
  <property name="kdenlive:original.meta.attr.major_brand.markup">isom</property>
  <property name="kdenlive:original.meta.attr.minor_version.markup">512</property>
  <property name="kdenlive:original.meta.attr.compatible_brands.markup">isomiso2avc1mp41</property>
  <property name="kdenlive:original.meta.attr.encoder.markup">Lavf58.76.100</property>
  <property name="kdenlive:original.meta.attr.comment.markup">Rendered with Manim Community v0.6.0</property>
  <property name="kdenlive:original.seekable">1</property>
  <property name="kdenlive:original.width">3840</property>
  <property name="kdenlive:original.height">2160</property>
  <property name="kdenlive:original.meta.media.sample_aspect_num">1</property>
  <property name="kdenlive:original.meta.media.sample_aspect_den">1</property>
  <property name="kdenlive:original.aspect_ratio">1</property>
  <property name="kdenlive:original.audio_index">-1</property>
  <property name="kdenlive:original.video_index">0</property>
  <property name="kdenlive:original.mute_on_pause">0</property>
  <property name="kdenlive:original.mlt_service">avformat-novalidate</property>
  <property name="kdenlive:original.kdenlive:folderid">387</property>
  <property name="kdenlive:original.meta.media.frame_rate_num">60</property>
  <property name="kdenlive:original.meta.media.frame_rate_den">1</property>
  <property name="kdenlive:original.meta.media.colorspace">709</property>
  <property name="kdenlive:original.meta.media.color_trc">2</property>
  <property name="kdenlive:original.meta.media.width">3840</property>
  <property name="kdenlive:original.meta.media.height">2160</property>
  <property name="kdenlive:original.meta.media.color_range">mpeg</property>
  <property name="kdenlive:original.kdenlive:id">442</property>
  <property name="kdenlive:original.kdenlive:file_size">72796</property>
  <property name="kdenlive:original.kdenlive:file_hash">14ad878b44c6db5617c4cdf73e3e2214</property>
  <property name="kdenlive:original.backup">1</property>
  <property name="global_feed">1</property>
  <property name="kdenlive:original.kdenlive:original.mlt_type">mlt_producer</property>
  <property name="kdenlive:original.kdenlive:original.in">0</property>
  <property name="kdenlive:original.kdenlive:original.out">59</property>
  <property name="kdenlive:original.kdenlive:original.length">60</property>
  <property name="kdenlive:original.kdenlive:original.eof">pause</property>
  <property name="kdenlive:original.kdenlive:original.resource">video/Theorem/34.mp4</property>
  <property name="kdenlive:original.kdenlive:original.meta.media.nb_streams">1</property>
  <property name="kdenlive:original.kdenlive:original.meta.media.0.stream.type">video</property>
  <property name="kdenlive:original.kdenlive:original.meta.media.0.stream.frame_rate">60</property>
  <property name="kdenlive:original.kdenlive:original.meta.media.0.stream.sample_aspect_ratio">0</property>
  <property name="kdenlive:original.kdenlive:original.meta.media.0.codec.width">3840</property>
  <property name="kdenlive:original.kdenlive:original.meta.media.0.codec.height">2160</property>
  <property name="kdenlive:original.kdenlive:original.meta.media.0.codec.rotate">0</property>
  <property name="kdenlive:original.kdenlive:original.meta.media.0.codec.frame_rate">60</property>
  <property name="kdenlive:original.kdenlive:original.meta.media.0.codec.pix_fmt">yuv420p</property>
  <property name="kdenlive:original.kdenlive:original.meta.media.0.codec.sample_aspect_ratio">0</property>
  <property name="kdenlive:original.kdenlive:original.meta.media.0.codec.colorspace">709</property>
  <property name="kdenlive:original.kdenlive:original.meta.media.0.codec.name">h264</property>
  <property name="kdenlive:original.kdenlive:original.meta.media.0.codec.long_name">H.264 / AVC / MPEG-4 AVC / MPEG-4 part 10</property>
  <property name="kdenlive:original.kdenlive:original.meta.media.0.codec.bit_rate">569320</property>
  <property name="kdenlive:original.kdenlive:original.meta.attr.0.stream.handler_name.markup">VideoHandler</property>
  <property name="kdenlive:original.kdenlive:original.meta.attr.0.stream.vendor_id.markup">[0][0][0][0]</property>
  <property name="kdenlive:original.kdenlive:original.meta.attr.major_brand.markup">isom</property>
  <property name="kdenlive:original.kdenlive:original.meta.attr.minor_version.markup">512</property>
  <property name="kdenlive:original.kdenlive:original.meta.attr.compatible_brands.markup">isomiso2avc1mp41</property>
  <property name="kdenlive:original.kdenlive:original.meta.attr.encoder.markup">Lavf58.76.100</property>
  <property name="kdenlive:original.kdenlive:original.meta.attr.comment.markup">Rendered with Manim Community v0.6.0</property>
  <property name="kdenlive:original.kdenlive:original.seekable">1</property>
  <property name="kdenlive:original.kdenlive:original.width">3840</property>
  <property name="kdenlive:original.kdenlive:original.height">2160</property>
  <property name="kdenlive:original.kdenlive:original.meta.media.sample_aspect_num">1</property>
  <property name="kdenlive:original.kdenlive:original.meta.media.sample_aspect_den">1</property>
  <property name="kdenlive:original.kdenlive:original.aspect_ratio">1</property>
  <property name="kdenlive:original.kdenlive:original.audio_index">-1</property>
  <property name="kdenlive:original.kdenlive:original.video_index">0</property>
  <property name="kdenlive:original.kdenlive:original.mute_on_pause">0</property>
  <property name="kdenlive:original.kdenlive:original.mlt_service">avformat-novalidate</property>
  <property name="kdenlive:original.kdenlive:original.kdenlive:folderid">387</property>
  <property name="kdenlive:original.kdenlive:original.meta.media.frame_rate_num">60</property>
  <property name="kdenlive:original.kdenlive:original.meta.media.frame_rate_den">1</property>
  <property name="kdenlive:original.kdenlive:original.meta.media.colorspace">709</property>
  <property name="kdenlive:original.kdenlive:original.meta.media.color_trc">2</property>
  <property name="kdenlive:original.kdenlive:original.meta.media.width">3840</property>
  <property name="kdenlive:original.kdenlive:original.meta.media.height">2160</property>
  <property name="kdenlive:original.kdenlive:original.meta.media.color_range">mpeg</property>
  <property name="kdenlive:original.kdenlive:original.kdenlive:id">442</property>
  <property name="kdenlive:original.kdenlive:original.kdenlive:file_size">72796</property>
  <property name="kdenlive:original.kdenlive:original.kdenlive:file_hash">14ad878b44c6db5617c4cdf73e3e2214</property>
  <property name="kdenlive:original.root">/</property>
  <property name="kdenlive:original.global_feed">1</property>
  <property name="meta.media.nb_streams">1</property>
  <property name="meta.media.0.stream.type">video</property>
  <property name="meta.media.0.stream.frame_rate">60</property>
  <property name="meta.media.0.stream.sample_aspect_ratio">0</property>
  <property name="meta.media.0.codec.width">640</property>
  <property name="meta.media.0.codec.height">360</property>
  <property name="meta.media.0.codec.rotate">0</property>
  <property name="meta.media.0.codec.frame_rate">60</property>
  <property name="meta.media.0.codec.pix_fmt">yuv420p</property>
  <property name="meta.media.0.codec.sample_aspect_ratio">0</property>
  <property name="meta.media.0.codec.colorspace">601</property>
  <property name="meta.media.0.codec.name">h264</property>
  <property name="meta.media.0.codec.long_name">H.264 / AVC / MPEG-4 AVC / MPEG-4 part 10</property>
  <property name="meta.media.0.codec.bit_rate">0</property>
  <property name="meta.attr.0.stream.HANDLER_NAME.markup">VideoHandler</property>
  <property name="meta.attr.0.stream.VENDOR_ID.markup">[0][0][0][0]</property>
  <property name="meta.attr.0.stream.ENCODER.markup">Lavc58.134.100 libx264</property>
  <property name="meta.attr.0.stream.DURATION.markup">00:00:01.000000000</property>
  <property name="meta.attr.COMMENT.markup">Rendered with Manim Community v0.6.0</property>
  <property name="meta.attr.MAJOR_BRAND.markup">isom</property>
  <property name="meta.attr.MINOR_VERSION.markup">512</property>
  <property name="meta.attr.COMPATIBLE_BRANDS.markup">isomiso2avc1mp41</property>
  <property name="meta.attr.ENCODER.markup">Lavf58.76.100</property>
  <property name="meta.media.sample_aspect_num">1</property>
  <property name="meta.media.sample_aspect_den">1</property>
  <property name="meta.media.frame_rate_num">60</property>
  <property name="meta.media.frame_rate_den">1</property>
  <property name="meta.media.colorspace">601</property>
  <property name="meta.media.color_trc">2</property>
  <property name="meta.media.width">640</property>
  <property name="meta.media.height">360</property>
  <property name="meta.media.color_range">mpeg</property>
 </producer>
 <producer id="producer450" in="00:00:00.000" out="00:00:04.983">
  <property name="length">00:00:05.000</property>
  <property name="eof">pause</property>
  <property name="resource">/home/xiaoxiae/.cache/kdenlive/proxy/3f68e07fa766d87febf570d4548d9e39.png</property>
  <property name="ttl">25</property>
  <property name="aspect_ratio">1</property>
  <property name="progressive">1</property>
  <property name="seekable">1</property>
  <property name="meta.media.width">800</property>
  <property name="meta.media.height">450</property>
  <property name="mlt_service">qimage</property>
  <property name="kdenlive:clipname">34.png</property>
  <property name="kdenlive:duration">00:00:05.000</property>
  <property name="kdenlive:folderid">387</property>
  <property name="kdenlive:id">420</property>
  <property name="kdenlive:file_size">193334</property>
  <property name="kdenlive:file_hash">3f68e07fa766d87febf570d4548d9e39</property>
  <property name="kdenlive:proxy">/home/xiaoxiae/.cache/kdenlive/proxy/3f68e07fa766d87febf570d4548d9e39.png</property>
  <property name="kdenlive:originalurl">video/Theorem/34.png</property>
  <property name="kdenlive:original.mlt_type">mlt_producer</property>
  <property name="kdenlive:original.in">0</property>
  <property name="kdenlive:original.out">299</property>
  <property name="kdenlive:original.length">00:00:05.000</property>
  <property name="kdenlive:original.eof">pause</property>
  <property name="kdenlive:original.resource">video/Theorem/34.png</property>
  <property name="kdenlive:original.ttl">25</property>
  <property name="kdenlive:original.aspect_ratio">1</property>
  <property name="kdenlive:original.progressive">1</property>
  <property name="kdenlive:original.seekable">1</property>
  <property name="kdenlive:original.meta.media.width">3840</property>
  <property name="kdenlive:original.meta.media.height">2160</property>
  <property name="kdenlive:original.mlt_service">qimage</property>
  <property name="kdenlive:original.kdenlive:duration">00:00:05.000</property>
  <property name="kdenlive:original.kdenlive:folderid">387</property>
  <property name="kdenlive:original.kdenlive:id">443</property>
  <property name="kdenlive:original.kdenlive:file_size">193334</property>
  <property name="kdenlive:original.kdenlive:file_hash">3f68e07fa766d87febf570d4548d9e39</property>
  <property name="kdenlive:original.backup">1</property>
  <property name="global_feed">1</property>
  <property name="kdenlive:original.kdenlive:original.mlt_type">mlt_producer</property>
  <property name="kdenlive:original.kdenlive:original.in">0</property>
  <property name="kdenlive:original.kdenlive:original.out">299</property>
  <property name="kdenlive:original.kdenlive:original.length">00:00:05.000</property>
  <property name="kdenlive:original.kdenlive:original.eof">pause</property>
  <property name="kdenlive:original.kdenlive:original.resource">video/Theorem/34.png</property>
  <property name="kdenlive:original.kdenlive:original.ttl">25</property>
  <property name="kdenlive:original.kdenlive:original.aspect_ratio">1</property>
  <property name="kdenlive:original.kdenlive:original.progressive">1</property>
  <property name="kdenlive:original.kdenlive:original.seekable">1</property>
  <property name="kdenlive:original.kdenlive:original.meta.media.width">3840</property>
  <property name="kdenlive:original.kdenlive:original.meta.media.height">2160</property>
  <property name="kdenlive:original.kdenlive:original.mlt_service">qimage</property>
  <property name="kdenlive:original.kdenlive:original.kdenlive:duration">00:00:05.000</property>
  <property name="kdenlive:original.kdenlive:original.kdenlive:folderid">387</property>
  <property name="kdenlive:original.kdenlive:original.kdenlive:id">443</property>
  <property name="kdenlive:original.kdenlive:original.kdenlive:file_size">193334</property>
  <property name="kdenlive:original.kdenlive:original.kdenlive:file_hash">3f68e07fa766d87febf570d4548d9e39</property>
  <property name="kdenlive:original.root">/</property>
  <property name="kdenlive:original.global_feed">1</property>
 </producer>
 <producer id="producer453" in="00:00:00.000" out="00:00:00.983">
  <property name="length">60</property>
  <property name="eof">pause</property>
  <property name="resource">/home/xiaoxiae/.cache/kdenlive/proxy/62cd4815232f758661d526ab038bbb4e.mkv</property>
  <property name="audio_index">-1</property>
  <property name="video_index">0</property>
  <property name="mute_on_pause">0</property>
  <property name="mlt_service">avformat-novalidate</property>
  <property name="seekable">1</property>
  <property name="aspect_ratio">1</property>
  <property name="kdenlive:clipname">35.mp4</property>
  <property name="kdenlive:folderid">387</property>
  <property name="kdenlive:id">421</property>
  <property name="kdenlive:file_size">154154</property>
  <property name="kdenlive:file_hash">62cd4815232f758661d526ab038bbb4e</property>
  <property name="kdenlive:proxy">/home/xiaoxiae/.cache/kdenlive/proxy/62cd4815232f758661d526ab038bbb4e.mkv</property>
  <property name="kdenlive:originalurl">video/Theorem/35.mp4</property>
  <property name="global_feed">1</property>
  <property name="meta.media.nb_streams">1</property>
  <property name="meta.media.0.stream.type">video</property>
  <property name="meta.media.0.stream.frame_rate">60</property>
  <property name="meta.media.0.stream.sample_aspect_ratio">0</property>
  <property name="meta.media.0.codec.width">640</property>
  <property name="meta.media.0.codec.height">360</property>
  <property name="meta.media.0.codec.rotate">0</property>
  <property name="meta.media.0.codec.frame_rate">60</property>
  <property name="meta.media.0.codec.pix_fmt">yuv420p</property>
  <property name="meta.media.0.codec.sample_aspect_ratio">0</property>
  <property name="meta.media.0.codec.colorspace">601</property>
  <property name="meta.media.0.codec.name">h264</property>
  <property name="meta.media.0.codec.long_name">H.264 / AVC / MPEG-4 AVC / MPEG-4 part 10</property>
  <property name="meta.media.0.codec.bit_rate">0</property>
  <property name="meta.attr.0.stream.HANDLER_NAME.markup">VideoHandler</property>
  <property name="meta.attr.0.stream.VENDOR_ID.markup">[0][0][0][0]</property>
  <property name="meta.attr.0.stream.ENCODER.markup">Lavc58.134.100 libx264</property>
  <property name="meta.attr.0.stream.DURATION.markup">00:00:01.000000000</property>
  <property name="meta.attr.COMMENT.markup">Rendered with Manim Community v0.6.0</property>
  <property name="meta.attr.MAJOR_BRAND.markup">isom</property>
  <property name="meta.attr.MINOR_VERSION.markup">512</property>
  <property name="meta.attr.COMPATIBLE_BRANDS.markup">isomiso2avc1mp41</property>
  <property name="meta.attr.ENCODER.markup">Lavf58.76.100</property>
  <property name="meta.media.sample_aspect_num">1</property>
  <property name="meta.media.sample_aspect_den">1</property>
  <property name="meta.media.frame_rate_num">60</property>
  <property name="meta.media.frame_rate_den">1</property>
  <property name="meta.media.colorspace">601</property>
  <property name="meta.media.color_trc">2</property>
  <property name="meta.media.width">640</property>
  <property name="meta.media.height">360</property>
  <property name="meta.media.color_range">mpeg</property>
 </producer>
 <producer id="producer452" in="00:00:00.000" out="00:00:04.983">
  <property name="length">00:00:05.000</property>
  <property name="eof">pause</property>
  <property name="resource">/home/xiaoxiae/.cache/kdenlive/proxy/5470cab3df6ec862e5d6fb4475b29445.png</property>
  <property name="ttl">25</property>
  <property name="aspect_ratio">1</property>
  <property name="progressive">1</property>
  <property name="seekable">1</property>
  <property name="meta.media.width">800</property>
  <property name="meta.media.height">450</property>
  <property name="mlt_service">qimage</property>
  <property name="kdenlive:clipname">35.png</property>
  <property name="kdenlive:duration">00:00:05.000</property>
  <property name="kdenlive:folderid">387</property>
  <property name="kdenlive:id">422</property>
  <property name="kdenlive:file_size">172586</property>
  <property name="kdenlive:file_hash">5470cab3df6ec862e5d6fb4475b29445</property>
  <property name="kdenlive:proxy">/home/xiaoxiae/.cache/kdenlive/proxy/5470cab3df6ec862e5d6fb4475b29445.png</property>
  <property name="kdenlive:originalurl">video/Theorem/35.png</property>
  <property name="kdenlive:original.mlt_type">mlt_producer</property>
  <property name="kdenlive:original.in">0</property>
  <property name="kdenlive:original.out">299</property>
  <property name="kdenlive:original.length">00:00:05.000</property>
  <property name="kdenlive:original.eof">pause</property>
  <property name="kdenlive:original.resource">video/Theorem/35.png</property>
  <property name="kdenlive:original.ttl">25</property>
  <property name="kdenlive:original.aspect_ratio">1</property>
  <property name="kdenlive:original.progressive">1</property>
  <property name="kdenlive:original.seekable">1</property>
  <property name="kdenlive:original.meta.media.width">3840</property>
  <property name="kdenlive:original.meta.media.height">2160</property>
  <property name="kdenlive:original.mlt_service">qimage</property>
  <property name="kdenlive:original.kdenlive:duration">00:00:05.000</property>
  <property name="kdenlive:original.kdenlive:folderid">387</property>
  <property name="kdenlive:original.kdenlive:id">445</property>
  <property name="kdenlive:original.kdenlive:file_size">172586</property>
  <property name="kdenlive:original.kdenlive:file_hash">5470cab3df6ec862e5d6fb4475b29445</property>
  <property name="kdenlive:original.backup">1</property>
  <property name="global_feed">1</property>
  <property name="kdenlive:original.kdenlive:original.mlt_type">mlt_producer</property>
  <property name="kdenlive:original.kdenlive:original.in">0</property>
  <property name="kdenlive:original.kdenlive:original.out">299</property>
  <property name="kdenlive:original.kdenlive:original.length">00:00:05.000</property>
  <property name="kdenlive:original.kdenlive:original.eof">pause</property>
  <property name="kdenlive:original.kdenlive:original.resource">video/Theorem/35.png</property>
  <property name="kdenlive:original.kdenlive:original.ttl">25</property>
  <property name="kdenlive:original.kdenlive:original.aspect_ratio">1</property>
  <property name="kdenlive:original.kdenlive:original.progressive">1</property>
  <property name="kdenlive:original.kdenlive:original.seekable">1</property>
  <property name="kdenlive:original.kdenlive:original.meta.media.width">3840</property>
  <property name="kdenlive:original.kdenlive:original.meta.media.height">2160</property>
  <property name="kdenlive:original.kdenlive:original.mlt_service">qimage</property>
  <property name="kdenlive:original.kdenlive:original.kdenlive:duration">00:00:05.000</property>
  <property name="kdenlive:original.kdenlive:original.kdenlive:folderid">387</property>
  <property name="kdenlive:original.kdenlive:original.kdenlive:id">445</property>
  <property name="kdenlive:original.kdenlive:original.kdenlive:file_size">172586</property>
  <property name="kdenlive:original.kdenlive:original.kdenlive:file_hash">5470cab3df6ec862e5d6fb4475b29445</property>
  <property name="kdenlive:original.root">/</property>
  <property name="kdenlive:original.global_feed">1</property>
 </producer>
 <producer id="producer456" in="00:00:00.000" out="00:00:00.983">
  <property name="length">60</property>
  <property name="eof">pause</property>
  <property name="resource">/home/xiaoxiae/.cache/kdenlive/proxy/9e17a93b7d93ec67707be078049b85f0.mkv</property>
  <property name="audio_index">-1</property>
  <property name="video_index">0</property>
  <property name="mute_on_pause">0</property>
  <property name="mlt_service">avformat-novalidate</property>
  <property name="seekable">1</property>
  <property name="aspect_ratio">1</property>
  <property name="kdenlive:clipname">36.mp4</property>
  <property name="kdenlive:folderid">387</property>
  <property name="kdenlive:id">423</property>
  <property name="kdenlive:file_size">67502</property>
  <property name="kdenlive:file_hash">9e17a93b7d93ec67707be078049b85f0</property>
  <property name="kdenlive:proxy">/home/xiaoxiae/.cache/kdenlive/proxy/9e17a93b7d93ec67707be078049b85f0.mkv</property>
  <property name="kdenlive:originalurl">video/Theorem/36.mp4</property>
  <property name="global_feed">1</property>
  <property name="meta.media.nb_streams">1</property>
  <property name="meta.media.0.stream.type">video</property>
  <property name="meta.media.0.stream.frame_rate">60</property>
  <property name="meta.media.0.stream.sample_aspect_ratio">0</property>
  <property name="meta.media.0.codec.width">640</property>
  <property name="meta.media.0.codec.height">360</property>
  <property name="meta.media.0.codec.rotate">0</property>
  <property name="meta.media.0.codec.frame_rate">60</property>
  <property name="meta.media.0.codec.pix_fmt">yuv420p</property>
  <property name="meta.media.0.codec.sample_aspect_ratio">0</property>
  <property name="meta.media.0.codec.colorspace">601</property>
  <property name="meta.media.0.codec.name">h264</property>
  <property name="meta.media.0.codec.long_name">H.264 / AVC / MPEG-4 AVC / MPEG-4 part 10</property>
  <property name="meta.media.0.codec.bit_rate">0</property>
  <property name="meta.attr.0.stream.HANDLER_NAME.markup">VideoHandler</property>
  <property name="meta.attr.0.stream.VENDOR_ID.markup">[0][0][0][0]</property>
  <property name="meta.attr.0.stream.ENCODER.markup">Lavc58.134.100 libx264</property>
  <property name="meta.attr.0.stream.DURATION.markup">00:00:01.000000000</property>
  <property name="meta.attr.COMMENT.markup">Rendered with Manim Community v0.6.0</property>
  <property name="meta.attr.MAJOR_BRAND.markup">isom</property>
  <property name="meta.attr.MINOR_VERSION.markup">512</property>
  <property name="meta.attr.COMPATIBLE_BRANDS.markup">isomiso2avc1mp41</property>
  <property name="meta.attr.ENCODER.markup">Lavf58.76.100</property>
  <property name="meta.media.sample_aspect_num">1</property>
  <property name="meta.media.sample_aspect_den">1</property>
  <property name="meta.media.frame_rate_num">60</property>
  <property name="meta.media.frame_rate_den">1</property>
  <property name="meta.media.colorspace">601</property>
  <property name="meta.media.color_trc">2</property>
  <property name="meta.media.width">640</property>
  <property name="meta.media.height">360</property>
  <property name="meta.media.color_range">mpeg</property>
 </producer>
 <producer id="producer455" in="00:00:00.000" out="00:00:04.983">
  <property name="length">00:00:05.000</property>
  <property name="eof">pause</property>
  <property name="resource">/home/xiaoxiae/.cache/kdenlive/proxy/ddf09f8ddf7e5c2658cf4c0576096adc.png</property>
  <property name="ttl">25</property>
  <property name="aspect_ratio">1</property>
  <property name="progressive">1</property>
  <property name="seekable">1</property>
  <property name="meta.media.width">800</property>
  <property name="meta.media.height">450</property>
  <property name="mlt_service">qimage</property>
  <property name="kdenlive:clipname">36.png</property>
  <property name="kdenlive:duration">00:00:05.000</property>
  <property name="kdenlive:folderid">387</property>
  <property name="kdenlive:id">424</property>
  <property name="kdenlive:file_size">185162</property>
  <property name="kdenlive:file_hash">ddf09f8ddf7e5c2658cf4c0576096adc</property>
  <property name="kdenlive:proxy">/home/xiaoxiae/.cache/kdenlive/proxy/ddf09f8ddf7e5c2658cf4c0576096adc.png</property>
  <property name="kdenlive:originalurl">video/Theorem/36.png</property>
  <property name="kdenlive:original.mlt_type">mlt_producer</property>
  <property name="kdenlive:original.in">0</property>
  <property name="kdenlive:original.out">299</property>
  <property name="kdenlive:original.length">00:00:05.000</property>
  <property name="kdenlive:original.eof">pause</property>
  <property name="kdenlive:original.resource">video/Theorem/36.png</property>
  <property name="kdenlive:original.ttl">25</property>
  <property name="kdenlive:original.aspect_ratio">1</property>
  <property name="kdenlive:original.progressive">1</property>
  <property name="kdenlive:original.seekable">1</property>
  <property name="kdenlive:original.meta.media.width">3840</property>
  <property name="kdenlive:original.meta.media.height">2160</property>
  <property name="kdenlive:original.mlt_service">qimage</property>
  <property name="kdenlive:original.kdenlive:duration">00:00:05.000</property>
  <property name="kdenlive:original.kdenlive:folderid">387</property>
  <property name="kdenlive:original.kdenlive:id">447</property>
  <property name="kdenlive:original.kdenlive:file_size">185162</property>
  <property name="kdenlive:original.kdenlive:file_hash">ddf09f8ddf7e5c2658cf4c0576096adc</property>
  <property name="kdenlive:original.backup">1</property>
  <property name="global_feed">1</property>
  <property name="kdenlive:original.kdenlive:original.mlt_type">mlt_producer</property>
  <property name="kdenlive:original.kdenlive:original.in">0</property>
  <property name="kdenlive:original.kdenlive:original.out">299</property>
  <property name="kdenlive:original.kdenlive:original.length">00:00:05.000</property>
  <property name="kdenlive:original.kdenlive:original.eof">pause</property>
  <property name="kdenlive:original.kdenlive:original.resource">video/Theorem/36.png</property>
  <property name="kdenlive:original.kdenlive:original.ttl">25</property>
  <property name="kdenlive:original.kdenlive:original.aspect_ratio">1</property>
  <property name="kdenlive:original.kdenlive:original.progressive">1</property>
  <property name="kdenlive:original.kdenlive:original.seekable">1</property>
  <property name="kdenlive:original.kdenlive:original.meta.media.width">3840</property>
  <property name="kdenlive:original.kdenlive:original.meta.media.height">2160</property>
  <property name="kdenlive:original.kdenlive:original.mlt_service">qimage</property>
  <property name="kdenlive:original.kdenlive:original.kdenlive:duration">00:00:05.000</property>
  <property name="kdenlive:original.kdenlive:original.kdenlive:folderid">387</property>
  <property name="kdenlive:original.kdenlive:original.kdenlive:id">447</property>
  <property name="kdenlive:original.kdenlive:original.kdenlive:file_size">185162</property>
  <property name="kdenlive:original.kdenlive:original.kdenlive:file_hash">ddf09f8ddf7e5c2658cf4c0576096adc</property>
  <property name="kdenlive:original.root">/</property>
  <property name="kdenlive:original.global_feed">1</property>
 </producer>
 <producer id="producer463" in="00:00:00.000" out="00:00:01.983">
  <property name="length">120</property>
  <property name="eof">pause</property>
  <property name="resource">/home/xiaoxiae/.cache/kdenlive/proxy/fa1f165ec542321c317805ce05e70ad4.mkv</property>
  <property name="audio_index">-1</property>
  <property name="video_index">0</property>
  <property name="mute_on_pause">0</property>
  <property name="mlt_service">avformat-novalidate</property>
  <property name="seekable">1</property>
  <property name="aspect_ratio">1</property>
  <property name="kdenlive:clipname">37.mp4</property>
  <property name="kdenlive:folderid">387</property>
  <property name="kdenlive:id">425</property>
  <property name="kdenlive:file_size">154099</property>
  <property name="kdenlive:file_hash">fa1f165ec542321c317805ce05e70ad4</property>
  <property name="kdenlive:proxy">/home/xiaoxiae/.cache/kdenlive/proxy/fa1f165ec542321c317805ce05e70ad4.mkv</property>
  <property name="kdenlive:originalurl">video/Theorem/37.mp4</property>
  <property name="global_feed">1</property>
  <property name="meta.media.nb_streams">1</property>
  <property name="meta.media.0.stream.type">video</property>
  <property name="meta.media.0.stream.frame_rate">60</property>
  <property name="meta.media.0.stream.sample_aspect_ratio">0</property>
  <property name="meta.media.0.codec.width">640</property>
  <property name="meta.media.0.codec.height">360</property>
  <property name="meta.media.0.codec.rotate">0</property>
  <property name="meta.media.0.codec.frame_rate">60</property>
  <property name="meta.media.0.codec.pix_fmt">yuv420p</property>
  <property name="meta.media.0.codec.sample_aspect_ratio">0</property>
  <property name="meta.media.0.codec.colorspace">601</property>
  <property name="meta.media.0.codec.name">h264</property>
  <property name="meta.media.0.codec.long_name">H.264 / AVC / MPEG-4 AVC / MPEG-4 part 10</property>
  <property name="meta.media.0.codec.bit_rate">0</property>
  <property name="meta.attr.0.stream.HANDLER_NAME.markup">VideoHandler</property>
  <property name="meta.attr.0.stream.VENDOR_ID.markup">[0][0][0][0]</property>
  <property name="meta.attr.0.stream.ENCODER.markup">Lavc58.134.100 libx264</property>
  <property name="meta.attr.0.stream.DURATION.markup">00:00:02.000000000</property>
  <property name="meta.attr.COMMENT.markup">Rendered with Manim Community v0.6.0</property>
  <property name="meta.attr.MAJOR_BRAND.markup">isom</property>
  <property name="meta.attr.MINOR_VERSION.markup">512</property>
  <property name="meta.attr.COMPATIBLE_BRANDS.markup">isomiso2avc1mp41</property>
  <property name="meta.attr.ENCODER.markup">Lavf58.76.100</property>
  <property name="meta.media.sample_aspect_num">1</property>
  <property name="meta.media.sample_aspect_den">1</property>
  <property name="meta.media.frame_rate_num">60</property>
  <property name="meta.media.frame_rate_den">1</property>
  <property name="meta.media.colorspace">601</property>
  <property name="meta.media.color_trc">2</property>
  <property name="meta.media.width">640</property>
  <property name="meta.media.height">360</property>
  <property name="meta.media.color_range">mpeg</property>
 </producer>
 <producer id="producer458" in="00:00:00.000" out="00:00:04.983">
  <property name="length">00:00:05.000</property>
  <property name="eof">pause</property>
  <property name="resource">/home/xiaoxiae/.cache/kdenlive/proxy/012726c6a933e0d1344bfdf214488d71.png</property>
  <property name="ttl">25</property>
  <property name="aspect_ratio">1</property>
  <property name="progressive">1</property>
  <property name="seekable">1</property>
  <property name="meta.media.width">800</property>
  <property name="meta.media.height">450</property>
  <property name="mlt_service">qimage</property>
  <property name="kdenlive:clipname">37.png</property>
  <property name="kdenlive:duration">00:00:05.000</property>
  <property name="kdenlive:folderid">387</property>
  <property name="kdenlive:id">426</property>
  <property name="kdenlive:file_size">308024</property>
  <property name="kdenlive:file_hash">012726c6a933e0d1344bfdf214488d71</property>
  <property name="kdenlive:proxy">/home/xiaoxiae/.cache/kdenlive/proxy/012726c6a933e0d1344bfdf214488d71.png</property>
  <property name="kdenlive:originalurl">video/Theorem/37.png</property>
  <property name="global_feed">1</property>
 </producer>
 <producer id="producer457" in="00:00:00.000" out="00:00:00.983">
  <property name="length">60</property>
  <property name="eof">pause</property>
  <property name="resource">/home/xiaoxiae/.cache/kdenlive/proxy/11e8f703448aa9ce2af03c42f62fdea1.mkv</property>
  <property name="audio_index">-1</property>
  <property name="video_index">0</property>
  <property name="mute_on_pause">0</property>
  <property name="mlt_service">avformat-novalidate</property>
  <property name="seekable">1</property>
  <property name="aspect_ratio">1</property>
  <property name="kdenlive:clipname">38.mp4</property>
  <property name="kdenlive:folderid">387</property>
  <property name="kdenlive:id">427</property>
  <property name="kdenlive:file_size">90661</property>
  <property name="kdenlive:file_hash">11e8f703448aa9ce2af03c42f62fdea1</property>
  <property name="kdenlive:proxy">/home/xiaoxiae/.cache/kdenlive/proxy/11e8f703448aa9ce2af03c42f62fdea1.mkv</property>
  <property name="kdenlive:originalurl">video/Theorem/38.mp4</property>
  <property name="global_feed">1</property>
  <property name="meta.media.nb_streams">1</property>
  <property name="meta.media.0.stream.type">video</property>
  <property name="meta.media.0.stream.frame_rate">60</property>
  <property name="meta.media.0.stream.sample_aspect_ratio">0</property>
  <property name="meta.media.0.codec.width">640</property>
  <property name="meta.media.0.codec.height">360</property>
  <property name="meta.media.0.codec.rotate">0</property>
  <property name="meta.media.0.codec.frame_rate">60</property>
  <property name="meta.media.0.codec.pix_fmt">yuv420p</property>
  <property name="meta.media.0.codec.sample_aspect_ratio">0</property>
  <property name="meta.media.0.codec.colorspace">601</property>
  <property name="meta.media.0.codec.name">h264</property>
  <property name="meta.media.0.codec.long_name">H.264 / AVC / MPEG-4 AVC / MPEG-4 part 10</property>
  <property name="meta.media.0.codec.bit_rate">0</property>
  <property name="meta.attr.0.stream.HANDLER_NAME.markup">VideoHandler</property>
  <property name="meta.attr.0.stream.VENDOR_ID.markup">[0][0][0][0]</property>
  <property name="meta.attr.0.stream.ENCODER.markup">Lavc58.134.100 libx264</property>
  <property name="meta.attr.0.stream.DURATION.markup">00:00:01.000000000</property>
  <property name="meta.attr.COMMENT.markup">Rendered with Manim Community v0.6.0</property>
  <property name="meta.attr.MAJOR_BRAND.markup">isom</property>
  <property name="meta.attr.MINOR_VERSION.markup">512</property>
  <property name="meta.attr.COMPATIBLE_BRANDS.markup">isomiso2avc1mp41</property>
  <property name="meta.attr.ENCODER.markup">Lavf58.76.100</property>
  <property name="meta.media.sample_aspect_num">1</property>
  <property name="meta.media.sample_aspect_den">1</property>
  <property name="meta.media.frame_rate_num">60</property>
  <property name="meta.media.frame_rate_den">1</property>
  <property name="meta.media.colorspace">601</property>
  <property name="meta.media.color_trc">2</property>
  <property name="meta.media.width">640</property>
  <property name="meta.media.height">360</property>
  <property name="meta.media.color_range">mpeg</property>
 </producer>
 <producer id="producer461" in="00:00:00.000" out="00:00:04.983">
  <property name="length">00:00:05.000</property>
  <property name="eof">pause</property>
  <property name="resource">/home/xiaoxiae/.cache/kdenlive/proxy/d2896a15cf6ea82af1281a89fdfcad8c.png</property>
  <property name="ttl">25</property>
  <property name="aspect_ratio">1</property>
  <property name="progressive">1</property>
  <property name="seekable">1</property>
  <property name="meta.media.width">800</property>
  <property name="meta.media.height">450</property>
  <property name="mlt_service">qimage</property>
  <property name="kdenlive:clipname">38.png</property>
  <property name="kdenlive:duration">00:00:05.000</property>
  <property name="kdenlive:folderid">387</property>
  <property name="kdenlive:id">428</property>
  <property name="kdenlive:file_size">291501</property>
  <property name="kdenlive:file_hash">d2896a15cf6ea82af1281a89fdfcad8c</property>
  <property name="kdenlive:proxy">/home/xiaoxiae/.cache/kdenlive/proxy/d2896a15cf6ea82af1281a89fdfcad8c.png</property>
  <property name="kdenlive:originalurl">video/Theorem/38.png</property>
  <property name="global_feed">1</property>
 </producer>
 <producer id="producer459" in="00:00:00.000" out="00:00:00.983">
  <property name="length">60</property>
  <property name="eof">pause</property>
  <property name="resource">/home/xiaoxiae/.cache/kdenlive/proxy/338226408c93a0355cfd78e308aef70f.mkv</property>
  <property name="audio_index">-1</property>
  <property name="video_index">0</property>
  <property name="mute_on_pause">0</property>
  <property name="mlt_service">avformat-novalidate</property>
  <property name="seekable">1</property>
  <property name="aspect_ratio">1</property>
  <property name="kdenlive:clipname">39.mp4</property>
  <property name="kdenlive:folderid">387</property>
  <property name="kdenlive:id">429</property>
  <property name="kdenlive:file_size">122039</property>
  <property name="kdenlive:file_hash">338226408c93a0355cfd78e308aef70f</property>
  <property name="kdenlive:proxy">/home/xiaoxiae/.cache/kdenlive/proxy/338226408c93a0355cfd78e308aef70f.mkv</property>
  <property name="kdenlive:originalurl">video/Theorem/39.mp4</property>
  <property name="global_feed">1</property>
  <property name="meta.media.nb_streams">1</property>
  <property name="meta.media.0.stream.type">video</property>
  <property name="meta.media.0.stream.frame_rate">60</property>
  <property name="meta.media.0.stream.sample_aspect_ratio">0</property>
  <property name="meta.media.0.codec.width">640</property>
  <property name="meta.media.0.codec.height">360</property>
  <property name="meta.media.0.codec.rotate">0</property>
  <property name="meta.media.0.codec.frame_rate">60</property>
  <property name="meta.media.0.codec.pix_fmt">yuv420p</property>
  <property name="meta.media.0.codec.sample_aspect_ratio">0</property>
  <property name="meta.media.0.codec.colorspace">601</property>
  <property name="meta.media.0.codec.name">h264</property>
  <property name="meta.media.0.codec.long_name">H.264 / AVC / MPEG-4 AVC / MPEG-4 part 10</property>
  <property name="meta.media.0.codec.bit_rate">0</property>
  <property name="meta.attr.0.stream.HANDLER_NAME.markup">VideoHandler</property>
  <property name="meta.attr.0.stream.VENDOR_ID.markup">[0][0][0][0]</property>
  <property name="meta.attr.0.stream.ENCODER.markup">Lavc58.134.100 libx264</property>
  <property name="meta.attr.0.stream.DURATION.markup">00:00:01.000000000</property>
  <property name="meta.attr.COMMENT.markup">Rendered with Manim Community v0.6.0</property>
  <property name="meta.attr.MAJOR_BRAND.markup">isom</property>
  <property name="meta.attr.MINOR_VERSION.markup">512</property>
  <property name="meta.attr.COMPATIBLE_BRANDS.markup">isomiso2avc1mp41</property>
  <property name="meta.attr.ENCODER.markup">Lavf58.76.100</property>
  <property name="meta.media.sample_aspect_num">1</property>
  <property name="meta.media.sample_aspect_den">1</property>
  <property name="meta.media.frame_rate_num">60</property>
  <property name="meta.media.frame_rate_den">1</property>
  <property name="meta.media.colorspace">601</property>
  <property name="meta.media.color_trc">2</property>
  <property name="meta.media.width">640</property>
  <property name="meta.media.height">360</property>
  <property name="meta.media.color_range">mpeg</property>
 </producer>
 <producer id="producer460" in="00:00:00.000" out="00:00:04.983">
  <property name="length">00:00:05.000</property>
  <property name="eof">pause</property>
  <property name="resource">/home/xiaoxiae/.cache/kdenlive/proxy/2eb37e16e58795b6c8a1ba7529914094.png</property>
  <property name="ttl">25</property>
  <property name="aspect_ratio">1</property>
  <property name="progressive">1</property>
  <property name="seekable">1</property>
  <property name="meta.media.width">800</property>
  <property name="meta.media.height">450</property>
  <property name="mlt_service">qimage</property>
  <property name="kdenlive:clipname">39.png</property>
  <property name="kdenlive:duration">00:00:05.000</property>
  <property name="kdenlive:folderid">387</property>
  <property name="kdenlive:id">430</property>
  <property name="kdenlive:file_size">338420</property>
  <property name="kdenlive:file_hash">2eb37e16e58795b6c8a1ba7529914094</property>
  <property name="kdenlive:proxy">/home/xiaoxiae/.cache/kdenlive/proxy/2eb37e16e58795b6c8a1ba7529914094.png</property>
  <property name="kdenlive:originalurl">video/Theorem/39.png</property>
  <property name="global_feed">1</property>
 </producer>
 <producer id="producer464" in="00:00:00.000" out="00:00:00.983">
  <property name="length">60</property>
  <property name="eof">pause</property>
  <property name="resource">/home/xiaoxiae/.cache/kdenlive/proxy/afa4cbb9fbd46db85e0594f92e8b90ef.mkv</property>
  <property name="audio_index">-1</property>
  <property name="video_index">0</property>
  <property name="mute_on_pause">0</property>
  <property name="mlt_service">avformat-novalidate</property>
  <property name="seekable">1</property>
  <property name="aspect_ratio">1</property>
  <property name="kdenlive:clipname">4.mp4</property>
  <property name="kdenlive:folderid">387</property>
  <property name="kdenlive:id">431</property>
  <property name="kdenlive:file_size">106898</property>
  <property name="kdenlive:file_hash">afa4cbb9fbd46db85e0594f92e8b90ef</property>
  <property name="kdenlive:proxy">/home/xiaoxiae/.cache/kdenlive/proxy/afa4cbb9fbd46db85e0594f92e8b90ef.mkv</property>
  <property name="kdenlive:originalurl">video/Theorem/4.mp4</property>
  <property name="global_feed">1</property>
  <property name="meta.media.nb_streams">1</property>
  <property name="meta.media.0.stream.type">video</property>
  <property name="meta.media.0.stream.frame_rate">60</property>
  <property name="meta.media.0.stream.sample_aspect_ratio">0</property>
  <property name="meta.media.0.codec.width">640</property>
  <property name="meta.media.0.codec.height">360</property>
  <property name="meta.media.0.codec.rotate">0</property>
  <property name="meta.media.0.codec.frame_rate">60</property>
  <property name="meta.media.0.codec.pix_fmt">yuv420p</property>
  <property name="meta.media.0.codec.sample_aspect_ratio">0</property>
  <property name="meta.media.0.codec.colorspace">601</property>
  <property name="meta.media.0.codec.name">h264</property>
  <property name="meta.media.0.codec.long_name">H.264 / AVC / MPEG-4 AVC / MPEG-4 part 10</property>
  <property name="meta.media.0.codec.bit_rate">0</property>
  <property name="meta.attr.0.stream.HANDLER_NAME.markup">VideoHandler</property>
  <property name="meta.attr.0.stream.VENDOR_ID.markup">[0][0][0][0]</property>
  <property name="meta.attr.0.stream.ENCODER.markup">Lavc58.134.100 libx264</property>
  <property name="meta.attr.0.stream.DURATION.markup">00:00:01.000000000</property>
  <property name="meta.attr.COMMENT.markup">Rendered with Manim Community v0.6.0</property>
  <property name="meta.attr.MAJOR_BRAND.markup">isom</property>
  <property name="meta.attr.MINOR_VERSION.markup">512</property>
  <property name="meta.attr.COMPATIBLE_BRANDS.markup">isomiso2avc1mp41</property>
  <property name="meta.attr.ENCODER.markup">Lavf58.76.100</property>
  <property name="meta.media.sample_aspect_num">1</property>
  <property name="meta.media.sample_aspect_den">1</property>
  <property name="meta.media.frame_rate_num">60</property>
  <property name="meta.media.frame_rate_den">1</property>
  <property name="meta.media.colorspace">601</property>
  <property name="meta.media.color_trc">2</property>
  <property name="meta.media.width">640</property>
  <property name="meta.media.height">360</property>
  <property name="meta.media.color_range">mpeg</property>
 </producer>
 <producer id="producer462" in="00:00:00.000" out="00:00:04.983">
  <property name="length">00:00:05.000</property>
  <property name="eof">pause</property>
  <property name="resource">/home/xiaoxiae/.cache/kdenlive/proxy/3b484b877b2ac3540312743ad25f5528.png</property>
  <property name="ttl">25</property>
  <property name="aspect_ratio">1</property>
  <property name="progressive">1</property>
  <property name="seekable">1</property>
  <property name="meta.media.width">800</property>
  <property name="meta.media.height">450</property>
  <property name="mlt_service">qimage</property>
  <property name="kdenlive:clipname">4.png</property>
  <property name="kdenlive:duration">00:00:05.000</property>
  <property name="kdenlive:folderid">387</property>
  <property name="kdenlive:id">432</property>
  <property name="kdenlive:file_size">137968</property>
  <property name="kdenlive:file_hash">3b484b877b2ac3540312743ad25f5528</property>
  <property name="kdenlive:proxy">/home/xiaoxiae/.cache/kdenlive/proxy/3b484b877b2ac3540312743ad25f5528.png</property>
  <property name="kdenlive:originalurl">video/Theorem/4.png</property>
  <property name="global_feed">1</property>
 </producer>
 <producer id="producer465" in="00:00:00.000" out="00:00:00.983">
  <property name="length">60</property>
  <property name="eof">pause</property>
  <property name="resource">/home/xiaoxiae/.cache/kdenlive/proxy/a2dea5f2957457b6b93eb620cefa7315.mkv</property>
  <property name="audio_index">-1</property>
  <property name="video_index">0</property>
  <property name="mute_on_pause">0</property>
  <property name="mlt_service">avformat-novalidate</property>
  <property name="seekable">1</property>
  <property name="aspect_ratio">1</property>
  <property name="kdenlive:clipname">40.mp4</property>
  <property name="kdenlive:folderid">387</property>
  <property name="kdenlive:id">433</property>
  <property name="kdenlive:file_size">140243</property>
  <property name="kdenlive:file_hash">a2dea5f2957457b6b93eb620cefa7315</property>
  <property name="kdenlive:proxy">/home/xiaoxiae/.cache/kdenlive/proxy/a2dea5f2957457b6b93eb620cefa7315.mkv</property>
  <property name="kdenlive:originalurl">video/Theorem/40.mp4</property>
  <property name="global_feed">1</property>
  <property name="meta.media.nb_streams">1</property>
  <property name="meta.media.0.stream.type">video</property>
  <property name="meta.media.0.stream.frame_rate">60</property>
  <property name="meta.media.0.stream.sample_aspect_ratio">0</property>
  <property name="meta.media.0.codec.width">640</property>
  <property name="meta.media.0.codec.height">360</property>
  <property name="meta.media.0.codec.rotate">0</property>
  <property name="meta.media.0.codec.frame_rate">60</property>
  <property name="meta.media.0.codec.pix_fmt">yuv420p</property>
  <property name="meta.media.0.codec.sample_aspect_ratio">0</property>
  <property name="meta.media.0.codec.colorspace">601</property>
  <property name="meta.media.0.codec.name">h264</property>
  <property name="meta.media.0.codec.long_name">H.264 / AVC / MPEG-4 AVC / MPEG-4 part 10</property>
  <property name="meta.media.0.codec.bit_rate">0</property>
  <property name="meta.attr.0.stream.HANDLER_NAME.markup">VideoHandler</property>
  <property name="meta.attr.0.stream.VENDOR_ID.markup">[0][0][0][0]</property>
  <property name="meta.attr.0.stream.ENCODER.markup">Lavc58.134.100 libx264</property>
  <property name="meta.attr.0.stream.DURATION.markup">00:00:01.000000000</property>
  <property name="meta.attr.COMMENT.markup">Rendered with Manim Community v0.6.0</property>
  <property name="meta.attr.MAJOR_BRAND.markup">isom</property>
  <property name="meta.attr.MINOR_VERSION.markup">512</property>
  <property name="meta.attr.COMPATIBLE_BRANDS.markup">isomiso2avc1mp41</property>
  <property name="meta.attr.ENCODER.markup">Lavf58.76.100</property>
  <property name="meta.media.sample_aspect_num">1</property>
  <property name="meta.media.sample_aspect_den">1</property>
  <property name="meta.media.frame_rate_num">60</property>
  <property name="meta.media.frame_rate_den">1</property>
  <property name="meta.media.colorspace">601</property>
  <property name="meta.media.color_trc">2</property>
  <property name="meta.media.width">640</property>
  <property name="meta.media.height">360</property>
  <property name="meta.media.color_range">mpeg</property>
 </producer>
 <producer id="producer466" in="00:00:00.000" out="00:00:04.983">
  <property name="length">00:00:05.000</property>
  <property name="eof">pause</property>
  <property name="resource">/home/xiaoxiae/.cache/kdenlive/proxy/3f7822e44f3116195ca84aa8be7b9c03.png</property>
  <property name="ttl">25</property>
  <property name="aspect_ratio">1</property>
  <property name="progressive">1</property>
  <property name="seekable">1</property>
  <property name="meta.media.width">800</property>
  <property name="meta.media.height">450</property>
  <property name="mlt_service">qimage</property>
  <property name="kdenlive:clipname">40.png</property>
  <property name="kdenlive:duration">00:00:05.000</property>
  <property name="kdenlive:folderid">387</property>
  <property name="kdenlive:id">434</property>
  <property name="kdenlive:file_size">368574</property>
  <property name="kdenlive:file_hash">3f7822e44f3116195ca84aa8be7b9c03</property>
  <property name="kdenlive:proxy">/home/xiaoxiae/.cache/kdenlive/proxy/3f7822e44f3116195ca84aa8be7b9c03.png</property>
  <property name="kdenlive:originalurl">video/Theorem/40.png</property>
  <property name="global_feed">1</property>
 </producer>
 <producer id="producer467" in="00:00:00.000" out="00:00:00.983">
  <property name="length">60</property>
  <property name="eof">pause</property>
  <property name="resource">/home/xiaoxiae/.cache/kdenlive/proxy/b1c4160afdf4c14317e1b37c7ed50894.mkv</property>
  <property name="audio_index">-1</property>
  <property name="video_index">0</property>
  <property name="mute_on_pause">0</property>
  <property name="mlt_service">avformat-novalidate</property>
  <property name="seekable">1</property>
  <property name="aspect_ratio">1</property>
  <property name="kdenlive:clipname">41.mp4</property>
  <property name="kdenlive:folderid">387</property>
  <property name="kdenlive:id">435</property>
  <property name="kdenlive:file_size">99623</property>
  <property name="kdenlive:file_hash">b1c4160afdf4c14317e1b37c7ed50894</property>
  <property name="kdenlive:proxy">/home/xiaoxiae/.cache/kdenlive/proxy/b1c4160afdf4c14317e1b37c7ed50894.mkv</property>
  <property name="kdenlive:originalurl">video/Theorem/41.mp4</property>
  <property name="global_feed">1</property>
  <property name="meta.media.nb_streams">1</property>
  <property name="meta.media.0.stream.type">video</property>
  <property name="meta.media.0.stream.frame_rate">60</property>
  <property name="meta.media.0.stream.sample_aspect_ratio">0</property>
  <property name="meta.media.0.codec.width">640</property>
  <property name="meta.media.0.codec.height">360</property>
  <property name="meta.media.0.codec.rotate">0</property>
  <property name="meta.media.0.codec.frame_rate">60</property>
  <property name="meta.media.0.codec.pix_fmt">yuv420p</property>
  <property name="meta.media.0.codec.sample_aspect_ratio">0</property>
  <property name="meta.media.0.codec.colorspace">601</property>
  <property name="meta.media.0.codec.name">h264</property>
  <property name="meta.media.0.codec.long_name">H.264 / AVC / MPEG-4 AVC / MPEG-4 part 10</property>
  <property name="meta.media.0.codec.bit_rate">0</property>
  <property name="meta.attr.0.stream.HANDLER_NAME.markup">VideoHandler</property>
  <property name="meta.attr.0.stream.VENDOR_ID.markup">[0][0][0][0]</property>
  <property name="meta.attr.0.stream.ENCODER.markup">Lavc58.134.100 libx264</property>
  <property name="meta.attr.0.stream.DURATION.markup">00:00:01.000000000</property>
  <property name="meta.attr.COMMENT.markup">Rendered with Manim Community v0.6.0</property>
  <property name="meta.attr.MAJOR_BRAND.markup">isom</property>
  <property name="meta.attr.MINOR_VERSION.markup">512</property>
  <property name="meta.attr.COMPATIBLE_BRANDS.markup">isomiso2avc1mp41</property>
  <property name="meta.attr.ENCODER.markup">Lavf58.76.100</property>
  <property name="meta.media.sample_aspect_num">1</property>
  <property name="meta.media.sample_aspect_den">1</property>
  <property name="meta.media.frame_rate_num">60</property>
  <property name="meta.media.frame_rate_den">1</property>
  <property name="meta.media.colorspace">601</property>
  <property name="meta.media.color_trc">2</property>
  <property name="meta.media.width">640</property>
  <property name="meta.media.height">360</property>
  <property name="meta.media.color_range">mpeg</property>
 </producer>
 <producer id="producer469" in="00:00:00.000" out="00:00:04.983">
  <property name="length">00:00:05.000</property>
  <property name="eof">pause</property>
  <property name="resource">/home/xiaoxiae/.cache/kdenlive/proxy/64db6235e73cb32efa7bc94deaf0b9fd.png</property>
  <property name="ttl">25</property>
  <property name="aspect_ratio">1</property>
  <property name="progressive">1</property>
  <property name="seekable">1</property>
  <property name="meta.media.width">800</property>
  <property name="meta.media.height">450</property>
  <property name="mlt_service">qimage</property>
  <property name="kdenlive:clipname">41.png</property>
  <property name="kdenlive:duration">00:00:05.000</property>
  <property name="kdenlive:folderid">387</property>
  <property name="kdenlive:id">436</property>
  <property name="kdenlive:file_size">375904</property>
  <property name="kdenlive:file_hash">64db6235e73cb32efa7bc94deaf0b9fd</property>
  <property name="kdenlive:proxy">/home/xiaoxiae/.cache/kdenlive/proxy/64db6235e73cb32efa7bc94deaf0b9fd.png</property>
  <property name="kdenlive:originalurl">video/Theorem/41.png</property>
  <property name="global_feed">1</property>
 </producer>
 <producer id="producer470" in="00:00:00.000" out="00:00:00.983">
  <property name="length">60</property>
  <property name="eof">pause</property>
  <property name="resource">/home/xiaoxiae/.cache/kdenlive/proxy/6e2f35a272dae5a97dbda8318cf6ced1.mkv</property>
  <property name="audio_index">-1</property>
  <property name="video_index">0</property>
  <property name="mute_on_pause">0</property>
  <property name="mlt_service">avformat-novalidate</property>
  <property name="seekable">1</property>
  <property name="aspect_ratio">1</property>
  <property name="kdenlive:clipname">42.mp4</property>
  <property name="kdenlive:folderid">387</property>
  <property name="kdenlive:id">437</property>
  <property name="kdenlive:file_size">95743</property>
  <property name="kdenlive:file_hash">6e2f35a272dae5a97dbda8318cf6ced1</property>
  <property name="kdenlive:proxy">/home/xiaoxiae/.cache/kdenlive/proxy/6e2f35a272dae5a97dbda8318cf6ced1.mkv</property>
  <property name="kdenlive:originalurl">video/Theorem/42.mp4</property>
  <property name="global_feed">1</property>
  <property name="meta.media.nb_streams">1</property>
  <property name="meta.media.0.stream.type">video</property>
  <property name="meta.media.0.stream.frame_rate">60</property>
  <property name="meta.media.0.stream.sample_aspect_ratio">0</property>
  <property name="meta.media.0.codec.width">640</property>
  <property name="meta.media.0.codec.height">360</property>
  <property name="meta.media.0.codec.rotate">0</property>
  <property name="meta.media.0.codec.frame_rate">60</property>
  <property name="meta.media.0.codec.pix_fmt">yuv420p</property>
  <property name="meta.media.0.codec.sample_aspect_ratio">0</property>
  <property name="meta.media.0.codec.colorspace">601</property>
  <property name="meta.media.0.codec.name">h264</property>
  <property name="meta.media.0.codec.long_name">H.264 / AVC / MPEG-4 AVC / MPEG-4 part 10</property>
  <property name="meta.media.0.codec.bit_rate">0</property>
  <property name="meta.attr.0.stream.HANDLER_NAME.markup">VideoHandler</property>
  <property name="meta.attr.0.stream.VENDOR_ID.markup">[0][0][0][0]</property>
  <property name="meta.attr.0.stream.ENCODER.markup">Lavc58.134.100 libx264</property>
  <property name="meta.attr.0.stream.DURATION.markup">00:00:01.000000000</property>
  <property name="meta.attr.COMMENT.markup">Rendered with Manim Community v0.6.0</property>
  <property name="meta.attr.MAJOR_BRAND.markup">isom</property>
  <property name="meta.attr.MINOR_VERSION.markup">512</property>
  <property name="meta.attr.COMPATIBLE_BRANDS.markup">isomiso2avc1mp41</property>
  <property name="meta.attr.ENCODER.markup">Lavf58.76.100</property>
  <property name="meta.media.sample_aspect_num">1</property>
  <property name="meta.media.sample_aspect_den">1</property>
  <property name="meta.media.frame_rate_num">60</property>
  <property name="meta.media.frame_rate_den">1</property>
  <property name="meta.media.colorspace">601</property>
  <property name="meta.media.color_trc">2</property>
  <property name="meta.media.width">640</property>
  <property name="meta.media.height">360</property>
  <property name="meta.media.color_range">mpeg</property>
 </producer>
 <producer id="producer468" in="00:00:00.000" out="00:00:04.983">
  <property name="length">00:00:05.000</property>
  <property name="eof">pause</property>
  <property name="resource">/home/xiaoxiae/.cache/kdenlive/proxy/bded19fb40e669f7d6057fc5bd8adf7d.png</property>
  <property name="ttl">25</property>
  <property name="aspect_ratio">1</property>
  <property name="progressive">1</property>
  <property name="seekable">1</property>
  <property name="meta.media.width">800</property>
  <property name="meta.media.height">450</property>
  <property name="mlt_service">qimage</property>
  <property name="kdenlive:clipname">42.png</property>
  <property name="kdenlive:duration">00:00:05.000</property>
  <property name="kdenlive:folderid">387</property>
  <property name="kdenlive:id">438</property>
  <property name="kdenlive:file_size">367153</property>
  <property name="kdenlive:file_hash">bded19fb40e669f7d6057fc5bd8adf7d</property>
  <property name="kdenlive:proxy">/home/xiaoxiae/.cache/kdenlive/proxy/bded19fb40e669f7d6057fc5bd8adf7d.png</property>
  <property name="kdenlive:originalurl">video/Theorem/42.png</property>
  <property name="global_feed">1</property>
 </producer>
 <producer id="producer472" in="00:00:00.000" out="00:00:00.983">
  <property name="length">60</property>
  <property name="eof">pause</property>
  <property name="resource">/home/xiaoxiae/.cache/kdenlive/proxy/07cff339b9e07bdd42a43c01cf92f6d8.mkv</property>
  <property name="audio_index">-1</property>
  <property name="video_index">0</property>
  <property name="mute_on_pause">0</property>
  <property name="mlt_service">avformat-novalidate</property>
  <property name="seekable">1</property>
  <property name="aspect_ratio">1</property>
  <property name="kdenlive:clipname">43.mp4</property>
  <property name="kdenlive:folderid">387</property>
  <property name="kdenlive:id">439</property>
  <property name="kdenlive:file_size">169714</property>
  <property name="kdenlive:file_hash">07cff339b9e07bdd42a43c01cf92f6d8</property>
  <property name="kdenlive:proxy">/home/xiaoxiae/.cache/kdenlive/proxy/07cff339b9e07bdd42a43c01cf92f6d8.mkv</property>
  <property name="kdenlive:originalurl">video/Theorem/43.mp4</property>
  <property name="global_feed">1</property>
  <property name="meta.media.nb_streams">1</property>
  <property name="meta.media.0.stream.type">video</property>
  <property name="meta.media.0.stream.frame_rate">60</property>
  <property name="meta.media.0.stream.sample_aspect_ratio">0</property>
  <property name="meta.media.0.codec.width">640</property>
  <property name="meta.media.0.codec.height">360</property>
  <property name="meta.media.0.codec.rotate">0</property>
  <property name="meta.media.0.codec.frame_rate">60</property>
  <property name="meta.media.0.codec.pix_fmt">yuv420p</property>
  <property name="meta.media.0.codec.sample_aspect_ratio">0</property>
  <property name="meta.media.0.codec.colorspace">601</property>
  <property name="meta.media.0.codec.name">h264</property>
  <property name="meta.media.0.codec.long_name">H.264 / AVC / MPEG-4 AVC / MPEG-4 part 10</property>
  <property name="meta.media.0.codec.bit_rate">0</property>
  <property name="meta.attr.0.stream.HANDLER_NAME.markup">VideoHandler</property>
  <property name="meta.attr.0.stream.VENDOR_ID.markup">[0][0][0][0]</property>
  <property name="meta.attr.0.stream.ENCODER.markup">Lavc58.134.100 libx264</property>
  <property name="meta.attr.0.stream.DURATION.markup">00:00:01.000000000</property>
  <property name="meta.attr.COMMENT.markup">Rendered with Manim Community v0.6.0</property>
  <property name="meta.attr.MAJOR_BRAND.markup">isom</property>
  <property name="meta.attr.MINOR_VERSION.markup">512</property>
  <property name="meta.attr.COMPATIBLE_BRANDS.markup">isomiso2avc1mp41</property>
  <property name="meta.attr.ENCODER.markup">Lavf58.76.100</property>
  <property name="meta.media.sample_aspect_num">1</property>
  <property name="meta.media.sample_aspect_den">1</property>
  <property name="meta.media.frame_rate_num">60</property>
  <property name="meta.media.frame_rate_den">1</property>
  <property name="meta.media.colorspace">601</property>
  <property name="meta.media.color_trc">2</property>
  <property name="meta.media.width">640</property>
  <property name="meta.media.height">360</property>
  <property name="meta.media.color_range">mpeg</property>
 </producer>
 <producer id="producer471" in="00:00:00.000" out="00:00:04.983">
  <property name="length">00:00:05.000</property>
  <property name="eof">pause</property>
  <property name="resource">/home/xiaoxiae/.cache/kdenlive/proxy/6906b36cfb1968eb8a7175d79269a7fc.png</property>
  <property name="ttl">25</property>
  <property name="aspect_ratio">1</property>
  <property name="progressive">1</property>
  <property name="seekable">1</property>
  <property name="meta.media.width">800</property>
  <property name="meta.media.height">450</property>
  <property name="mlt_service">qimage</property>
  <property name="kdenlive:clipname">43.png</property>
  <property name="kdenlive:duration">00:00:05.000</property>
  <property name="kdenlive:folderid">387</property>
  <property name="kdenlive:id">440</property>
  <property name="kdenlive:file_size">374907</property>
  <property name="kdenlive:file_hash">6906b36cfb1968eb8a7175d79269a7fc</property>
  <property name="kdenlive:proxy">/home/xiaoxiae/.cache/kdenlive/proxy/6906b36cfb1968eb8a7175d79269a7fc.png</property>
  <property name="kdenlive:originalurl">video/Theorem/43.png</property>
  <property name="global_feed">1</property>
 </producer>
 <producer id="producer473" in="00:00:00.000" out="00:00:00.983">
  <property name="length">60</property>
  <property name="eof">pause</property>
  <property name="resource">/home/xiaoxiae/.cache/kdenlive/proxy/27fc3686f0399e2f2a5b105c04831968.mkv</property>
  <property name="audio_index">-1</property>
  <property name="video_index">0</property>
  <property name="mute_on_pause">0</property>
  <property name="mlt_service">avformat-novalidate</property>
  <property name="seekable">1</property>
  <property name="aspect_ratio">1</property>
  <property name="kdenlive:clipname">44.mp4</property>
  <property name="kdenlive:folderid">387</property>
  <property name="kdenlive:id">441</property>
  <property name="kdenlive:file_size">139138</property>
  <property name="kdenlive:file_hash">27fc3686f0399e2f2a5b105c04831968</property>
  <property name="kdenlive:proxy">/home/xiaoxiae/.cache/kdenlive/proxy/27fc3686f0399e2f2a5b105c04831968.mkv</property>
  <property name="kdenlive:originalurl">video/Theorem/44.mp4</property>
  <property name="global_feed">1</property>
  <property name="meta.media.nb_streams">1</property>
  <property name="meta.media.0.stream.type">video</property>
  <property name="meta.media.0.stream.frame_rate">60</property>
  <property name="meta.media.0.stream.sample_aspect_ratio">0</property>
  <property name="meta.media.0.codec.width">640</property>
  <property name="meta.media.0.codec.height">360</property>
  <property name="meta.media.0.codec.rotate">0</property>
  <property name="meta.media.0.codec.frame_rate">60</property>
  <property name="meta.media.0.codec.pix_fmt">yuv420p</property>
  <property name="meta.media.0.codec.sample_aspect_ratio">0</property>
  <property name="meta.media.0.codec.colorspace">601</property>
  <property name="meta.media.0.codec.name">h264</property>
  <property name="meta.media.0.codec.long_name">H.264 / AVC / MPEG-4 AVC / MPEG-4 part 10</property>
  <property name="meta.media.0.codec.bit_rate">0</property>
  <property name="meta.attr.0.stream.HANDLER_NAME.markup">VideoHandler</property>
  <property name="meta.attr.0.stream.VENDOR_ID.markup">[0][0][0][0]</property>
  <property name="meta.attr.0.stream.ENCODER.markup">Lavc58.134.100 libx264</property>
  <property name="meta.attr.0.stream.DURATION.markup">00:00:01.000000000</property>
  <property name="meta.attr.COMMENT.markup">Rendered with Manim Community v0.6.0</property>
  <property name="meta.attr.MAJOR_BRAND.markup">isom</property>
  <property name="meta.attr.MINOR_VERSION.markup">512</property>
  <property name="meta.attr.COMPATIBLE_BRANDS.markup">isomiso2avc1mp41</property>
  <property name="meta.attr.ENCODER.markup">Lavf58.76.100</property>
  <property name="meta.media.sample_aspect_num">1</property>
  <property name="meta.media.sample_aspect_den">1</property>
  <property name="meta.media.frame_rate_num">60</property>
  <property name="meta.media.frame_rate_den">1</property>
  <property name="meta.media.colorspace">601</property>
  <property name="meta.media.color_trc">2</property>
  <property name="meta.media.width">640</property>
  <property name="meta.media.height">360</property>
  <property name="meta.media.color_range">mpeg</property>
 </producer>
 <producer id="producer477" in="00:00:00.000" out="00:00:04.983">
  <property name="length">00:00:05.000</property>
  <property name="eof">pause</property>
  <property name="resource">/home/xiaoxiae/.cache/kdenlive/proxy/6c8fce83018dc1b370ad5703b35518f7.png</property>
  <property name="ttl">25</property>
  <property name="aspect_ratio">1</property>
  <property name="progressive">1</property>
  <property name="seekable">1</property>
  <property name="meta.media.width">800</property>
  <property name="meta.media.height">450</property>
  <property name="mlt_service">qimage</property>
  <property name="kdenlive:clipname">44.png</property>
  <property name="kdenlive:duration">00:00:05.000</property>
  <property name="kdenlive:folderid">387</property>
  <property name="kdenlive:id">442</property>
  <property name="kdenlive:file_size">334543</property>
  <property name="kdenlive:file_hash">6c8fce83018dc1b370ad5703b35518f7</property>
  <property name="kdenlive:proxy">/home/xiaoxiae/.cache/kdenlive/proxy/6c8fce83018dc1b370ad5703b35518f7.png</property>
  <property name="kdenlive:originalurl">video/Theorem/44.png</property>
  <property name="global_feed">1</property>
 </producer>
 <producer id="producer475" in="00:00:00.000" out="00:00:00.983">
  <property name="length">60</property>
  <property name="eof">pause</property>
  <property name="resource">/home/xiaoxiae/.cache/kdenlive/proxy/bdc376807b1e3550368ceafeaf9c74d7.mkv</property>
  <property name="audio_index">-1</property>
  <property name="video_index">0</property>
  <property name="mute_on_pause">0</property>
  <property name="mlt_service">avformat-novalidate</property>
  <property name="seekable">1</property>
  <property name="aspect_ratio">1</property>
  <property name="kdenlive:clipname">45.mp4</property>
  <property name="kdenlive:folderid">387</property>
  <property name="kdenlive:id">443</property>
  <property name="kdenlive:file_size">253742</property>
  <property name="kdenlive:file_hash">bdc376807b1e3550368ceafeaf9c74d7</property>
  <property name="kdenlive:proxy">/home/xiaoxiae/.cache/kdenlive/proxy/bdc376807b1e3550368ceafeaf9c74d7.mkv</property>
  <property name="kdenlive:originalurl">video/Theorem/45.mp4</property>
  <property name="global_feed">1</property>
  <property name="meta.media.nb_streams">1</property>
  <property name="meta.media.0.stream.type">video</property>
  <property name="meta.media.0.stream.frame_rate">60</property>
  <property name="meta.media.0.stream.sample_aspect_ratio">0</property>
  <property name="meta.media.0.codec.width">640</property>
  <property name="meta.media.0.codec.height">360</property>
  <property name="meta.media.0.codec.rotate">0</property>
  <property name="meta.media.0.codec.frame_rate">60</property>
  <property name="meta.media.0.codec.pix_fmt">yuv420p</property>
  <property name="meta.media.0.codec.sample_aspect_ratio">0</property>
  <property name="meta.media.0.codec.colorspace">601</property>
  <property name="meta.media.0.codec.name">h264</property>
  <property name="meta.media.0.codec.long_name">H.264 / AVC / MPEG-4 AVC / MPEG-4 part 10</property>
  <property name="meta.media.0.codec.bit_rate">0</property>
  <property name="meta.attr.0.stream.HANDLER_NAME.markup">VideoHandler</property>
  <property name="meta.attr.0.stream.VENDOR_ID.markup">[0][0][0][0]</property>
  <property name="meta.attr.0.stream.ENCODER.markup">Lavc58.134.100 libx264</property>
  <property name="meta.attr.0.stream.DURATION.markup">00:00:01.000000000</property>
  <property name="meta.attr.COMMENT.markup">Rendered with Manim Community v0.6.0</property>
  <property name="meta.attr.MAJOR_BRAND.markup">isom</property>
  <property name="meta.attr.MINOR_VERSION.markup">512</property>
  <property name="meta.attr.COMPATIBLE_BRANDS.markup">isomiso2avc1mp41</property>
  <property name="meta.attr.ENCODER.markup">Lavf58.76.100</property>
  <property name="meta.media.sample_aspect_num">1</property>
  <property name="meta.media.sample_aspect_den">1</property>
  <property name="meta.media.frame_rate_num">60</property>
  <property name="meta.media.frame_rate_den">1</property>
  <property name="meta.media.colorspace">601</property>
  <property name="meta.media.color_trc">2</property>
  <property name="meta.media.width">640</property>
  <property name="meta.media.height">360</property>
  <property name="meta.media.color_range">mpeg</property>
 </producer>
 <producer id="producer474" in="00:00:00.000" out="00:00:04.983">
  <property name="length">00:00:05.000</property>
  <property name="eof">pause</property>
  <property name="resource">/home/xiaoxiae/.cache/kdenlive/proxy/b79ba91d38a63eaf21278101f742bc37.png</property>
  <property name="ttl">25</property>
  <property name="aspect_ratio">1</property>
  <property name="progressive">1</property>
  <property name="seekable">1</property>
  <property name="meta.media.width">800</property>
  <property name="meta.media.height">450</property>
  <property name="mlt_service">qimage</property>
  <property name="kdenlive:clipname">45.png</property>
  <property name="kdenlive:duration">00:00:05.000</property>
  <property name="kdenlive:folderid">387</property>
  <property name="kdenlive:id">444</property>
  <property name="kdenlive:file_size">193448</property>
  <property name="kdenlive:file_hash">b79ba91d38a63eaf21278101f742bc37</property>
  <property name="kdenlive:proxy">/home/xiaoxiae/.cache/kdenlive/proxy/b79ba91d38a63eaf21278101f742bc37.png</property>
  <property name="kdenlive:originalurl">video/Theorem/45.png</property>
  <property name="global_feed">1</property>
 </producer>
 <producer id="producer480" in="00:00:00.000" out="00:00:01.983">
  <property name="length">120</property>
  <property name="eof">pause</property>
  <property name="resource">/home/xiaoxiae/.cache/kdenlive/proxy/ecabd4a1db9ccf0df1faab6d25eb9941.mkv</property>
  <property name="audio_index">-1</property>
  <property name="video_index">0</property>
  <property name="mute_on_pause">0</property>
  <property name="mlt_service">avformat-novalidate</property>
  <property name="seekable">1</property>
  <property name="aspect_ratio">1</property>
  <property name="kdenlive:clipname">46.mp4</property>
  <property name="kdenlive:folderid">387</property>
  <property name="kdenlive:id">445</property>
  <property name="kdenlive:file_size">151832</property>
  <property name="kdenlive:file_hash">ecabd4a1db9ccf0df1faab6d25eb9941</property>
  <property name="kdenlive:proxy">/home/xiaoxiae/.cache/kdenlive/proxy/ecabd4a1db9ccf0df1faab6d25eb9941.mkv</property>
  <property name="kdenlive:originalurl">video/Theorem/46.mp4</property>
  <property name="global_feed">1</property>
  <property name="meta.media.nb_streams">1</property>
  <property name="meta.media.0.stream.type">video</property>
  <property name="meta.media.0.stream.frame_rate">60</property>
  <property name="meta.media.0.stream.sample_aspect_ratio">0</property>
  <property name="meta.media.0.codec.width">640</property>
  <property name="meta.media.0.codec.height">360</property>
  <property name="meta.media.0.codec.rotate">0</property>
  <property name="meta.media.0.codec.frame_rate">60</property>
  <property name="meta.media.0.codec.pix_fmt">yuv420p</property>
  <property name="meta.media.0.codec.sample_aspect_ratio">0</property>
  <property name="meta.media.0.codec.colorspace">601</property>
  <property name="meta.media.0.codec.name">h264</property>
  <property name="meta.media.0.codec.long_name">H.264 / AVC / MPEG-4 AVC / MPEG-4 part 10</property>
  <property name="meta.media.0.codec.bit_rate">0</property>
  <property name="meta.attr.0.stream.HANDLER_NAME.markup">VideoHandler</property>
  <property name="meta.attr.0.stream.VENDOR_ID.markup">[0][0][0][0]</property>
  <property name="meta.attr.0.stream.ENCODER.markup">Lavc58.134.100 libx264</property>
  <property name="meta.attr.0.stream.DURATION.markup">00:00:02.000000000</property>
  <property name="meta.attr.COMMENT.markup">Rendered with Manim Community v0.6.0</property>
  <property name="meta.attr.MAJOR_BRAND.markup">isom</property>
  <property name="meta.attr.MINOR_VERSION.markup">512</property>
  <property name="meta.attr.COMPATIBLE_BRANDS.markup">isomiso2avc1mp41</property>
  <property name="meta.attr.ENCODER.markup">Lavf58.76.100</property>
  <property name="meta.media.sample_aspect_num">1</property>
  <property name="meta.media.sample_aspect_den">1</property>
  <property name="meta.media.frame_rate_num">60</property>
  <property name="meta.media.frame_rate_den">1</property>
  <property name="meta.media.colorspace">601</property>
  <property name="meta.media.color_trc">2</property>
  <property name="meta.media.width">640</property>
  <property name="meta.media.height">360</property>
  <property name="meta.media.color_range">mpeg</property>
 </producer>
 <producer id="producer476" in="00:00:00.000" out="00:00:04.983">
  <property name="length">00:00:05.000</property>
  <property name="eof">pause</property>
  <property name="resource">/home/xiaoxiae/.cache/kdenlive/proxy/7bb399a148f2c0aba4f2315373e3c2de.png</property>
  <property name="ttl">25</property>
  <property name="aspect_ratio">1</property>
  <property name="progressive">1</property>
  <property name="seekable">1</property>
  <property name="meta.media.width">800</property>
  <property name="meta.media.height">450</property>
  <property name="mlt_service">qimage</property>
  <property name="kdenlive:clipname">46.png</property>
  <property name="kdenlive:duration">00:00:05.000</property>
  <property name="kdenlive:folderid">387</property>
  <property name="kdenlive:id">446</property>
  <property name="kdenlive:file_size">278284</property>
  <property name="kdenlive:file_hash">7bb399a148f2c0aba4f2315373e3c2de</property>
  <property name="kdenlive:proxy">/home/xiaoxiae/.cache/kdenlive/proxy/7bb399a148f2c0aba4f2315373e3c2de.png</property>
  <property name="kdenlive:originalurl">video/Theorem/46.png</property>
  <property name="global_feed">1</property>
 </producer>
 <producer id="producer478" in="00:00:00.000" out="00:00:00.983">
  <property name="length">60</property>
  <property name="eof">pause</property>
  <property name="resource">/home/xiaoxiae/.cache/kdenlive/proxy/3bdbf9e5c6e69a5463db8959efa3e2ed.mkv</property>
  <property name="audio_index">-1</property>
  <property name="video_index">0</property>
  <property name="mute_on_pause">0</property>
  <property name="mlt_service">avformat-novalidate</property>
  <property name="seekable">1</property>
  <property name="aspect_ratio">1</property>
  <property name="kdenlive:clipname">47.mp4</property>
  <property name="kdenlive:folderid">387</property>
  <property name="kdenlive:id">447</property>
  <property name="kdenlive:file_size">115365</property>
  <property name="kdenlive:file_hash">3bdbf9e5c6e69a5463db8959efa3e2ed</property>
  <property name="kdenlive:proxy">/home/xiaoxiae/.cache/kdenlive/proxy/3bdbf9e5c6e69a5463db8959efa3e2ed.mkv</property>
  <property name="kdenlive:originalurl">video/Theorem/47.mp4</property>
  <property name="global_feed">1</property>
  <property name="meta.media.nb_streams">1</property>
  <property name="meta.media.0.stream.type">video</property>
  <property name="meta.media.0.stream.frame_rate">60</property>
  <property name="meta.media.0.stream.sample_aspect_ratio">0</property>
  <property name="meta.media.0.codec.width">640</property>
  <property name="meta.media.0.codec.height">360</property>
  <property name="meta.media.0.codec.rotate">0</property>
  <property name="meta.media.0.codec.frame_rate">60</property>
  <property name="meta.media.0.codec.pix_fmt">yuv420p</property>
  <property name="meta.media.0.codec.sample_aspect_ratio">0</property>
  <property name="meta.media.0.codec.colorspace">601</property>
  <property name="meta.media.0.codec.name">h264</property>
  <property name="meta.media.0.codec.long_name">H.264 / AVC / MPEG-4 AVC / MPEG-4 part 10</property>
  <property name="meta.media.0.codec.bit_rate">0</property>
  <property name="meta.attr.0.stream.HANDLER_NAME.markup">VideoHandler</property>
  <property name="meta.attr.0.stream.VENDOR_ID.markup">[0][0][0][0]</property>
  <property name="meta.attr.0.stream.ENCODER.markup">Lavc58.134.100 libx264</property>
  <property name="meta.attr.0.stream.DURATION.markup">00:00:01.000000000</property>
  <property name="meta.attr.COMMENT.markup">Rendered with Manim Community v0.6.0</property>
  <property name="meta.attr.MAJOR_BRAND.markup">isom</property>
  <property name="meta.attr.MINOR_VERSION.markup">512</property>
  <property name="meta.attr.COMPATIBLE_BRANDS.markup">isomiso2avc1mp41</property>
  <property name="meta.attr.ENCODER.markup">Lavf58.76.100</property>
  <property name="meta.media.sample_aspect_num">1</property>
  <property name="meta.media.sample_aspect_den">1</property>
  <property name="meta.media.frame_rate_num">60</property>
  <property name="meta.media.frame_rate_den">1</property>
  <property name="meta.media.colorspace">601</property>
  <property name="meta.media.color_trc">2</property>
  <property name="meta.media.width">640</property>
  <property name="meta.media.height">360</property>
  <property name="meta.media.color_range">mpeg</property>
 </producer>
 <producer id="producer479" in="00:00:00.000" out="00:00:04.983">
  <property name="length">00:00:05.000</property>
  <property name="eof">pause</property>
  <property name="resource">/home/xiaoxiae/.cache/kdenlive/proxy/e6375134be1efd52ea4157c02c20bc7a.png</property>
  <property name="ttl">25</property>
  <property name="aspect_ratio">1</property>
  <property name="progressive">1</property>
  <property name="seekable">1</property>
  <property name="meta.media.width">800</property>
  <property name="meta.media.height">450</property>
  <property name="mlt_service">qimage</property>
  <property name="kdenlive:clipname">47.png</property>
  <property name="kdenlive:duration">00:00:05.000</property>
  <property name="kdenlive:folderid">387</property>
  <property name="kdenlive:id">448</property>
  <property name="kdenlive:file_size">374767</property>
  <property name="kdenlive:file_hash">e6375134be1efd52ea4157c02c20bc7a</property>
  <property name="kdenlive:proxy">/home/xiaoxiae/.cache/kdenlive/proxy/e6375134be1efd52ea4157c02c20bc7a.png</property>
  <property name="kdenlive:originalurl">video/Theorem/47.png</property>
  <property name="global_feed">1</property>
 </producer>
 <producer id="producer481" in="00:00:00.000" out="00:00:00.983">
  <property name="length">60</property>
  <property name="eof">pause</property>
  <property name="resource">/home/xiaoxiae/.cache/kdenlive/proxy/d863da239c80fe19b0feac1e1863b89e.mkv</property>
  <property name="audio_index">-1</property>
  <property name="video_index">0</property>
  <property name="mute_on_pause">0</property>
  <property name="mlt_service">avformat-novalidate</property>
  <property name="seekable">1</property>
  <property name="aspect_ratio">1</property>
  <property name="kdenlive:clipname">48.mp4</property>
  <property name="kdenlive:folderid">387</property>
  <property name="kdenlive:id">449</property>
  <property name="kdenlive:file_size">90893</property>
  <property name="kdenlive:file_hash">d863da239c80fe19b0feac1e1863b89e</property>
  <property name="kdenlive:proxy">/home/xiaoxiae/.cache/kdenlive/proxy/d863da239c80fe19b0feac1e1863b89e.mkv</property>
  <property name="kdenlive:originalurl">video/Theorem/48.mp4</property>
  <property name="global_feed">1</property>
  <property name="meta.media.nb_streams">1</property>
  <property name="meta.media.0.stream.type">video</property>
  <property name="meta.media.0.stream.frame_rate">60</property>
  <property name="meta.media.0.stream.sample_aspect_ratio">0</property>
  <property name="meta.media.0.codec.width">640</property>
  <property name="meta.media.0.codec.height">360</property>
  <property name="meta.media.0.codec.rotate">0</property>
  <property name="meta.media.0.codec.frame_rate">60</property>
  <property name="meta.media.0.codec.pix_fmt">yuv420p</property>
  <property name="meta.media.0.codec.sample_aspect_ratio">0</property>
  <property name="meta.media.0.codec.colorspace">601</property>
  <property name="meta.media.0.codec.name">h264</property>
  <property name="meta.media.0.codec.long_name">H.264 / AVC / MPEG-4 AVC / MPEG-4 part 10</property>
  <property name="meta.media.0.codec.bit_rate">0</property>
  <property name="meta.attr.0.stream.HANDLER_NAME.markup">VideoHandler</property>
  <property name="meta.attr.0.stream.VENDOR_ID.markup">[0][0][0][0]</property>
  <property name="meta.attr.0.stream.ENCODER.markup">Lavc58.134.100 libx264</property>
  <property name="meta.attr.0.stream.DURATION.markup">00:00:01.000000000</property>
  <property name="meta.attr.COMMENT.markup">Rendered with Manim Community v0.6.0</property>
  <property name="meta.attr.MAJOR_BRAND.markup">isom</property>
  <property name="meta.attr.MINOR_VERSION.markup">512</property>
  <property name="meta.attr.COMPATIBLE_BRANDS.markup">isomiso2avc1mp41</property>
  <property name="meta.attr.ENCODER.markup">Lavf58.76.100</property>
  <property name="meta.media.sample_aspect_num">1</property>
  <property name="meta.media.sample_aspect_den">1</property>
  <property name="meta.media.frame_rate_num">60</property>
  <property name="meta.media.frame_rate_den">1</property>
  <property name="meta.media.colorspace">601</property>
  <property name="meta.media.color_trc">2</property>
  <property name="meta.media.width">640</property>
  <property name="meta.media.height">360</property>
  <property name="meta.media.color_range">mpeg</property>
 </producer>
 <producer id="producer482" in="00:00:00.000" out="00:00:04.983">
  <property name="length">00:00:05.000</property>
  <property name="eof">pause</property>
  <property name="resource">/home/xiaoxiae/.cache/kdenlive/proxy/3c4b96e70cfe6fa291a6fbe6b0dbed1a.png</property>
  <property name="ttl">25</property>
  <property name="aspect_ratio">1</property>
  <property name="progressive">1</property>
  <property name="seekable">1</property>
  <property name="meta.media.width">800</property>
  <property name="meta.media.height">450</property>
  <property name="mlt_service">qimage</property>
  <property name="kdenlive:clipname">48.png</property>
  <property name="kdenlive:duration">00:00:05.000</property>
  <property name="kdenlive:folderid">387</property>
  <property name="kdenlive:id">450</property>
  <property name="kdenlive:file_size">348926</property>
  <property name="kdenlive:file_hash">3c4b96e70cfe6fa291a6fbe6b0dbed1a</property>
  <property name="kdenlive:proxy">/home/xiaoxiae/.cache/kdenlive/proxy/3c4b96e70cfe6fa291a6fbe6b0dbed1a.png</property>
  <property name="kdenlive:originalurl">video/Theorem/48.png</property>
  <property name="global_feed">1</property>
 </producer>
 <producer id="producer485" in="00:00:00.000" out="00:00:00.983">
  <property name="length">60</property>
  <property name="eof">pause</property>
  <property name="resource">/home/xiaoxiae/.cache/kdenlive/proxy/6b715893c69c050df3cc59af627f5241.mkv</property>
  <property name="audio_index">-1</property>
  <property name="video_index">0</property>
  <property name="mute_on_pause">0</property>
  <property name="mlt_service">avformat-novalidate</property>
  <property name="seekable">1</property>
  <property name="aspect_ratio">1</property>
  <property name="kdenlive:clipname">49.mp4</property>
  <property name="kdenlive:folderid">387</property>
  <property name="kdenlive:id">451</property>
  <property name="kdenlive:file_size">77021</property>
  <property name="kdenlive:file_hash">6b715893c69c050df3cc59af627f5241</property>
  <property name="kdenlive:proxy">/home/xiaoxiae/.cache/kdenlive/proxy/6b715893c69c050df3cc59af627f5241.mkv</property>
  <property name="kdenlive:originalurl">video/Theorem/49.mp4</property>
  <property name="global_feed">1</property>
  <property name="meta.media.nb_streams">1</property>
  <property name="meta.media.0.stream.type">video</property>
  <property name="meta.media.0.stream.frame_rate">60</property>
  <property name="meta.media.0.stream.sample_aspect_ratio">0</property>
  <property name="meta.media.0.codec.width">640</property>
  <property name="meta.media.0.codec.height">360</property>
  <property name="meta.media.0.codec.rotate">0</property>
  <property name="meta.media.0.codec.frame_rate">60</property>
  <property name="meta.media.0.codec.pix_fmt">yuv420p</property>
  <property name="meta.media.0.codec.sample_aspect_ratio">0</property>
  <property name="meta.media.0.codec.colorspace">601</property>
  <property name="meta.media.0.codec.name">h264</property>
  <property name="meta.media.0.codec.long_name">H.264 / AVC / MPEG-4 AVC / MPEG-4 part 10</property>
  <property name="meta.media.0.codec.bit_rate">0</property>
  <property name="meta.attr.0.stream.HANDLER_NAME.markup">VideoHandler</property>
  <property name="meta.attr.0.stream.VENDOR_ID.markup">[0][0][0][0]</property>
  <property name="meta.attr.0.stream.ENCODER.markup">Lavc58.134.100 libx264</property>
  <property name="meta.attr.0.stream.DURATION.markup">00:00:01.000000000</property>
  <property name="meta.attr.COMMENT.markup">Rendered with Manim Community v0.6.0</property>
  <property name="meta.attr.MAJOR_BRAND.markup">isom</property>
  <property name="meta.attr.MINOR_VERSION.markup">512</property>
  <property name="meta.attr.COMPATIBLE_BRANDS.markup">isomiso2avc1mp41</property>
  <property name="meta.attr.ENCODER.markup">Lavf58.76.100</property>
  <property name="meta.media.sample_aspect_num">1</property>
  <property name="meta.media.sample_aspect_den">1</property>
  <property name="meta.media.frame_rate_num">60</property>
  <property name="meta.media.frame_rate_den">1</property>
  <property name="meta.media.colorspace">601</property>
  <property name="meta.media.color_trc">2</property>
  <property name="meta.media.width">640</property>
  <property name="meta.media.height">360</property>
  <property name="meta.media.color_range">mpeg</property>
 </producer>
 <producer id="producer484" in="00:00:00.000" out="00:00:04.983">
  <property name="length">00:00:05.000</property>
  <property name="eof">pause</property>
  <property name="resource">/home/xiaoxiae/.cache/kdenlive/proxy/6405c0087fc0dbeecb7c5e9c3c5676b9.png</property>
  <property name="ttl">25</property>
  <property name="aspect_ratio">1</property>
  <property name="progressive">1</property>
  <property name="seekable">1</property>
  <property name="meta.media.width">800</property>
  <property name="meta.media.height">450</property>
  <property name="mlt_service">qimage</property>
  <property name="kdenlive:clipname">49.png</property>
  <property name="kdenlive:duration">00:00:05.000</property>
  <property name="kdenlive:folderid">387</property>
  <property name="kdenlive:id">452</property>
  <property name="kdenlive:file_size">339346</property>
  <property name="kdenlive:file_hash">6405c0087fc0dbeecb7c5e9c3c5676b9</property>
  <property name="kdenlive:proxy">/home/xiaoxiae/.cache/kdenlive/proxy/6405c0087fc0dbeecb7c5e9c3c5676b9.png</property>
  <property name="kdenlive:originalurl">video/Theorem/49.png</property>
  <property name="global_feed">1</property>
 </producer>
 <producer id="producer486" in="00:00:00.000" out="00:00:00.983">
  <property name="length">60</property>
  <property name="eof">pause</property>
  <property name="resource">/home/xiaoxiae/.cache/kdenlive/proxy/3efee459175bf862c782b29625247fd9.mkv</property>
  <property name="audio_index">-1</property>
  <property name="video_index">0</property>
  <property name="mute_on_pause">0</property>
  <property name="mlt_service">avformat-novalidate</property>
  <property name="seekable">1</property>
  <property name="aspect_ratio">1</property>
  <property name="kdenlive:clipname">5.mp4</property>
  <property name="kdenlive:folderid">387</property>
  <property name="kdenlive:id">453</property>
  <property name="kdenlive:file_size">154149</property>
  <property name="kdenlive:file_hash">3efee459175bf862c782b29625247fd9</property>
  <property name="kdenlive:proxy">/home/xiaoxiae/.cache/kdenlive/proxy/3efee459175bf862c782b29625247fd9.mkv</property>
  <property name="kdenlive:originalurl">video/Theorem/5.mp4</property>
  <property name="global_feed">1</property>
  <property name="meta.media.nb_streams">1</property>
  <property name="meta.media.0.stream.type">video</property>
  <property name="meta.media.0.stream.frame_rate">60</property>
  <property name="meta.media.0.stream.sample_aspect_ratio">0</property>
  <property name="meta.media.0.codec.width">640</property>
  <property name="meta.media.0.codec.height">360</property>
  <property name="meta.media.0.codec.rotate">0</property>
  <property name="meta.media.0.codec.frame_rate">60</property>
  <property name="meta.media.0.codec.pix_fmt">yuv420p</property>
  <property name="meta.media.0.codec.sample_aspect_ratio">0</property>
  <property name="meta.media.0.codec.colorspace">601</property>
  <property name="meta.media.0.codec.name">h264</property>
  <property name="meta.media.0.codec.long_name">H.264 / AVC / MPEG-4 AVC / MPEG-4 part 10</property>
  <property name="meta.media.0.codec.bit_rate">0</property>
  <property name="meta.attr.0.stream.HANDLER_NAME.markup">VideoHandler</property>
  <property name="meta.attr.0.stream.VENDOR_ID.markup">[0][0][0][0]</property>
  <property name="meta.attr.0.stream.ENCODER.markup">Lavc58.134.100 libx264</property>
  <property name="meta.attr.0.stream.DURATION.markup">00:00:01.000000000</property>
  <property name="meta.attr.COMMENT.markup">Rendered with Manim Community v0.6.0</property>
  <property name="meta.attr.MAJOR_BRAND.markup">isom</property>
  <property name="meta.attr.MINOR_VERSION.markup">512</property>
  <property name="meta.attr.COMPATIBLE_BRANDS.markup">isomiso2avc1mp41</property>
  <property name="meta.attr.ENCODER.markup">Lavf58.76.100</property>
  <property name="meta.media.sample_aspect_num">1</property>
  <property name="meta.media.sample_aspect_den">1</property>
  <property name="meta.media.frame_rate_num">60</property>
  <property name="meta.media.frame_rate_den">1</property>
  <property name="meta.media.colorspace">601</property>
  <property name="meta.media.color_trc">2</property>
  <property name="meta.media.width">640</property>
  <property name="meta.media.height">360</property>
  <property name="meta.media.color_range">mpeg</property>
 </producer>
 <producer id="producer483" in="00:00:00.000" out="00:00:04.983">
  <property name="length">00:00:05.000</property>
  <property name="eof">pause</property>
  <property name="resource">/home/xiaoxiae/.cache/kdenlive/proxy/6bca8da48c31e62ad260d40252b217ba.png</property>
  <property name="ttl">25</property>
  <property name="aspect_ratio">1</property>
  <property name="progressive">1</property>
  <property name="seekable">1</property>
  <property name="meta.media.width">800</property>
  <property name="meta.media.height">450</property>
  <property name="mlt_service">qimage</property>
  <property name="kdenlive:clipname">5.png</property>
  <property name="kdenlive:duration">00:00:05.000</property>
  <property name="kdenlive:folderid">387</property>
  <property name="kdenlive:id">454</property>
  <property name="kdenlive:file_size">166388</property>
  <property name="kdenlive:file_hash">6bca8da48c31e62ad260d40252b217ba</property>
  <property name="kdenlive:proxy">/home/xiaoxiae/.cache/kdenlive/proxy/6bca8da48c31e62ad260d40252b217ba.png</property>
  <property name="kdenlive:originalurl">video/Theorem/5.png</property>
  <property name="global_feed">1</property>
 </producer>
 <producer id="producer487" in="00:00:00.000" out="00:00:00.983">
  <property name="length">60</property>
  <property name="eof">pause</property>
  <property name="resource">/home/xiaoxiae/.cache/kdenlive/proxy/77f5d348f28477ebe4e1856b6c3afef2.mkv</property>
  <property name="audio_index">-1</property>
  <property name="video_index">0</property>
  <property name="mute_on_pause">0</property>
  <property name="mlt_service">avformat-novalidate</property>
  <property name="seekable">1</property>
  <property name="aspect_ratio">1</property>
  <property name="kdenlive:clipname">50.mp4</property>
  <property name="kdenlive:folderid">387</property>
  <property name="kdenlive:id">455</property>
  <property name="kdenlive:file_size">92267</property>
  <property name="kdenlive:file_hash">77f5d348f28477ebe4e1856b6c3afef2</property>
  <property name="kdenlive:proxy">/home/xiaoxiae/.cache/kdenlive/proxy/77f5d348f28477ebe4e1856b6c3afef2.mkv</property>
  <property name="kdenlive:originalurl">video/Theorem/50.mp4</property>
  <property name="global_feed">1</property>
  <property name="meta.media.nb_streams">1</property>
  <property name="meta.media.0.stream.type">video</property>
  <property name="meta.media.0.stream.frame_rate">60</property>
  <property name="meta.media.0.stream.sample_aspect_ratio">0</property>
  <property name="meta.media.0.codec.width">640</property>
  <property name="meta.media.0.codec.height">360</property>
  <property name="meta.media.0.codec.rotate">0</property>
  <property name="meta.media.0.codec.frame_rate">60</property>
  <property name="meta.media.0.codec.pix_fmt">yuv420p</property>
  <property name="meta.media.0.codec.sample_aspect_ratio">0</property>
  <property name="meta.media.0.codec.colorspace">601</property>
  <property name="meta.media.0.codec.name">h264</property>
  <property name="meta.media.0.codec.long_name">H.264 / AVC / MPEG-4 AVC / MPEG-4 part 10</property>
  <property name="meta.media.0.codec.bit_rate">0</property>
  <property name="meta.attr.0.stream.HANDLER_NAME.markup">VideoHandler</property>
  <property name="meta.attr.0.stream.VENDOR_ID.markup">[0][0][0][0]</property>
  <property name="meta.attr.0.stream.ENCODER.markup">Lavc58.134.100 libx264</property>
  <property name="meta.attr.0.stream.DURATION.markup">00:00:01.000000000</property>
  <property name="meta.attr.COMMENT.markup">Rendered with Manim Community v0.6.0</property>
  <property name="meta.attr.MAJOR_BRAND.markup">isom</property>
  <property name="meta.attr.MINOR_VERSION.markup">512</property>
  <property name="meta.attr.COMPATIBLE_BRANDS.markup">isomiso2avc1mp41</property>
  <property name="meta.attr.ENCODER.markup">Lavf58.76.100</property>
  <property name="meta.media.sample_aspect_num">1</property>
  <property name="meta.media.sample_aspect_den">1</property>
  <property name="meta.media.frame_rate_num">60</property>
  <property name="meta.media.frame_rate_den">1</property>
  <property name="meta.media.colorspace">601</property>
  <property name="meta.media.color_trc">2</property>
  <property name="meta.media.width">640</property>
  <property name="meta.media.height">360</property>
  <property name="meta.media.color_range">mpeg</property>
 </producer>
 <producer id="producer488" in="00:00:00.000" out="00:00:04.983">
  <property name="length">00:00:05.000</property>
  <property name="eof">pause</property>
  <property name="resource">/home/xiaoxiae/.cache/kdenlive/proxy/9823b497ecd0dc88fcd3c4b90f058e3a.png</property>
  <property name="ttl">25</property>
  <property name="aspect_ratio">1</property>
  <property name="progressive">1</property>
  <property name="seekable">1</property>
  <property name="meta.media.width">800</property>
  <property name="meta.media.height">450</property>
  <property name="mlt_service">qimage</property>
  <property name="kdenlive:clipname">50.png</property>
  <property name="kdenlive:duration">00:00:05.000</property>
  <property name="kdenlive:folderid">387</property>
  <property name="kdenlive:id">456</property>
  <property name="kdenlive:file_size">360789</property>
  <property name="kdenlive:file_hash">9823b497ecd0dc88fcd3c4b90f058e3a</property>
  <property name="kdenlive:proxy">/home/xiaoxiae/.cache/kdenlive/proxy/9823b497ecd0dc88fcd3c4b90f058e3a.png</property>
  <property name="kdenlive:originalurl">video/Theorem/50.png</property>
  <property name="global_feed">1</property>
 </producer>
 <producer id="producer489" in="00:00:00.000" out="00:00:00.983">
  <property name="length">60</property>
  <property name="eof">pause</property>
  <property name="resource">/home/xiaoxiae/.cache/kdenlive/proxy/ab2695dab3ae7f6c8005adeb046f5311.mkv</property>
  <property name="audio_index">-1</property>
  <property name="video_index">0</property>
  <property name="mute_on_pause">0</property>
  <property name="mlt_service">avformat-novalidate</property>
  <property name="seekable">1</property>
  <property name="aspect_ratio">1</property>
  <property name="kdenlive:clipname">51.mp4</property>
  <property name="kdenlive:folderid">387</property>
  <property name="kdenlive:id">457</property>
  <property name="kdenlive:file_size">87848</property>
  <property name="kdenlive:file_hash">ab2695dab3ae7f6c8005adeb046f5311</property>
  <property name="kdenlive:proxy">/home/xiaoxiae/.cache/kdenlive/proxy/ab2695dab3ae7f6c8005adeb046f5311.mkv</property>
  <property name="kdenlive:originalurl">video/Theorem/51.mp4</property>
  <property name="global_feed">1</property>
  <property name="meta.media.nb_streams">1</property>
  <property name="meta.media.0.stream.type">video</property>
  <property name="meta.media.0.stream.frame_rate">60</property>
  <property name="meta.media.0.stream.sample_aspect_ratio">0</property>
  <property name="meta.media.0.codec.width">640</property>
  <property name="meta.media.0.codec.height">360</property>
  <property name="meta.media.0.codec.rotate">0</property>
  <property name="meta.media.0.codec.frame_rate">60</property>
  <property name="meta.media.0.codec.pix_fmt">yuv420p</property>
  <property name="meta.media.0.codec.sample_aspect_ratio">0</property>
  <property name="meta.media.0.codec.colorspace">601</property>
  <property name="meta.media.0.codec.name">h264</property>
  <property name="meta.media.0.codec.long_name">H.264 / AVC / MPEG-4 AVC / MPEG-4 part 10</property>
  <property name="meta.media.0.codec.bit_rate">0</property>
  <property name="meta.attr.0.stream.HANDLER_NAME.markup">VideoHandler</property>
  <property name="meta.attr.0.stream.VENDOR_ID.markup">[0][0][0][0]</property>
  <property name="meta.attr.0.stream.ENCODER.markup">Lavc58.134.100 libx264</property>
  <property name="meta.attr.0.stream.DURATION.markup">00:00:01.000000000</property>
  <property name="meta.attr.COMMENT.markup">Rendered with Manim Community v0.6.0</property>
  <property name="meta.attr.MAJOR_BRAND.markup">isom</property>
  <property name="meta.attr.MINOR_VERSION.markup">512</property>
  <property name="meta.attr.COMPATIBLE_BRANDS.markup">isomiso2avc1mp41</property>
  <property name="meta.attr.ENCODER.markup">Lavf58.76.100</property>
  <property name="meta.media.sample_aspect_num">1</property>
  <property name="meta.media.sample_aspect_den">1</property>
  <property name="meta.media.frame_rate_num">60</property>
  <property name="meta.media.frame_rate_den">1</property>
  <property name="meta.media.colorspace">601</property>
  <property name="meta.media.color_trc">2</property>
  <property name="meta.media.width">640</property>
  <property name="meta.media.height">360</property>
  <property name="meta.media.color_range">mpeg</property>
 </producer>
 <producer id="producer490" in="00:00:00.000" out="00:00:04.983">
  <property name="length">00:00:05.000</property>
  <property name="eof">pause</property>
  <property name="resource">/home/xiaoxiae/.cache/kdenlive/proxy/6b665121ca7b54a5f5307b69451fd23c.png</property>
  <property name="ttl">25</property>
  <property name="aspect_ratio">1</property>
  <property name="progressive">1</property>
  <property name="seekable">1</property>
  <property name="meta.media.width">800</property>
  <property name="meta.media.height">450</property>
  <property name="mlt_service">qimage</property>
  <property name="kdenlive:clipname">51.png</property>
  <property name="kdenlive:duration">00:00:05.000</property>
  <property name="kdenlive:folderid">387</property>
  <property name="kdenlive:id">458</property>
  <property name="kdenlive:file_size">24337</property>
  <property name="kdenlive:file_hash">6b665121ca7b54a5f5307b69451fd23c</property>
  <property name="kdenlive:proxy">/home/xiaoxiae/.cache/kdenlive/proxy/6b665121ca7b54a5f5307b69451fd23c.png</property>
  <property name="kdenlive:originalurl">video/Theorem/51.png</property>
  <property name="global_feed">1</property>
 </producer>
 <producer id="producer492" in="00:00:00.000" out="00:00:00.983">
  <property name="length">60</property>
  <property name="eof">pause</property>
  <property name="resource">/home/xiaoxiae/.cache/kdenlive/proxy/9c16d30906593cdfe7dd5c3047cf037e.mkv</property>
  <property name="audio_index">-1</property>
  <property name="video_index">0</property>
  <property name="mute_on_pause">0</property>
  <property name="mlt_service">avformat-novalidate</property>
  <property name="seekable">1</property>
  <property name="aspect_ratio">1</property>
  <property name="kdenlive:clipname">6.mp4</property>
  <property name="kdenlive:folderid">387</property>
  <property name="kdenlive:id">459</property>
  <property name="kdenlive:file_size">44591</property>
  <property name="kdenlive:file_hash">9c16d30906593cdfe7dd5c3047cf037e</property>
  <property name="kdenlive:proxy">/home/xiaoxiae/.cache/kdenlive/proxy/9c16d30906593cdfe7dd5c3047cf037e.mkv</property>
  <property name="kdenlive:originalurl">video/Theorem/6.mp4</property>
  <property name="global_feed">1</property>
  <property name="meta.media.nb_streams">1</property>
  <property name="meta.media.0.stream.type">video</property>
  <property name="meta.media.0.stream.frame_rate">60</property>
  <property name="meta.media.0.stream.sample_aspect_ratio">0</property>
  <property name="meta.media.0.codec.width">640</property>
  <property name="meta.media.0.codec.height">360</property>
  <property name="meta.media.0.codec.rotate">0</property>
  <property name="meta.media.0.codec.frame_rate">60</property>
  <property name="meta.media.0.codec.pix_fmt">yuv420p</property>
  <property name="meta.media.0.codec.sample_aspect_ratio">0</property>
  <property name="meta.media.0.codec.colorspace">601</property>
  <property name="meta.media.0.codec.name">h264</property>
  <property name="meta.media.0.codec.long_name">H.264 / AVC / MPEG-4 AVC / MPEG-4 part 10</property>
  <property name="meta.media.0.codec.bit_rate">0</property>
  <property name="meta.attr.0.stream.HANDLER_NAME.markup">VideoHandler</property>
  <property name="meta.attr.0.stream.VENDOR_ID.markup">[0][0][0][0]</property>
  <property name="meta.attr.0.stream.ENCODER.markup">Lavc58.134.100 libx264</property>
  <property name="meta.attr.0.stream.DURATION.markup">00:00:01.000000000</property>
  <property name="meta.attr.COMMENT.markup">Rendered with Manim Community v0.6.0</property>
  <property name="meta.attr.MAJOR_BRAND.markup">isom</property>
  <property name="meta.attr.MINOR_VERSION.markup">512</property>
  <property name="meta.attr.COMPATIBLE_BRANDS.markup">isomiso2avc1mp41</property>
  <property name="meta.attr.ENCODER.markup">Lavf58.76.100</property>
  <property name="meta.media.sample_aspect_num">1</property>
  <property name="meta.media.sample_aspect_den">1</property>
  <property name="meta.media.frame_rate_num">60</property>
  <property name="meta.media.frame_rate_den">1</property>
  <property name="meta.media.colorspace">601</property>
  <property name="meta.media.color_trc">2</property>
  <property name="meta.media.width">640</property>
  <property name="meta.media.height">360</property>
  <property name="meta.media.color_range">mpeg</property>
 </producer>
 <producer id="producer491" in="00:00:00.000" out="00:00:04.983">
  <property name="length">00:00:05.000</property>
  <property name="eof">pause</property>
  <property name="resource">/home/xiaoxiae/.cache/kdenlive/proxy/33e63168729ead94ea6d922b04096cbb.png</property>
  <property name="ttl">25</property>
  <property name="aspect_ratio">1</property>
  <property name="progressive">1</property>
  <property name="seekable">1</property>
  <property name="meta.media.width">800</property>
  <property name="meta.media.height">450</property>
  <property name="mlt_service">qimage</property>
  <property name="kdenlive:clipname">6.png</property>
  <property name="kdenlive:duration">00:00:05.000</property>
  <property name="kdenlive:folderid">387</property>
  <property name="kdenlive:id">460</property>
  <property name="kdenlive:file_size">139760</property>
  <property name="kdenlive:file_hash">33e63168729ead94ea6d922b04096cbb</property>
  <property name="kdenlive:proxy">/home/xiaoxiae/.cache/kdenlive/proxy/33e63168729ead94ea6d922b04096cbb.png</property>
  <property name="kdenlive:originalurl">video/Theorem/6.png</property>
  <property name="global_feed">1</property>
 </producer>
 <producer id="producer494" in="00:00:00.000" out="00:00:00.983">
  <property name="length">60</property>
  <property name="eof">pause</property>
  <property name="resource">/home/xiaoxiae/.cache/kdenlive/proxy/be139699f176f77225ee4176de5ca3e2.mkv</property>
  <property name="audio_index">-1</property>
  <property name="video_index">0</property>
  <property name="mute_on_pause">0</property>
  <property name="mlt_service">avformat-novalidate</property>
  <property name="seekable">1</property>
  <property name="aspect_ratio">1</property>
  <property name="kdenlive:clipname">7.mp4</property>
  <property name="kdenlive:folderid">387</property>
  <property name="kdenlive:id">461</property>
  <property name="kdenlive:file_size">170752</property>
  <property name="kdenlive:file_hash">be139699f176f77225ee4176de5ca3e2</property>
  <property name="kdenlive:proxy">/home/xiaoxiae/.cache/kdenlive/proxy/be139699f176f77225ee4176de5ca3e2.mkv</property>
  <property name="kdenlive:originalurl">video/Theorem/7.mp4</property>
  <property name="global_feed">1</property>
  <property name="meta.media.nb_streams">1</property>
  <property name="meta.media.0.stream.type">video</property>
  <property name="meta.media.0.stream.frame_rate">60</property>
  <property name="meta.media.0.stream.sample_aspect_ratio">0</property>
  <property name="meta.media.0.codec.width">640</property>
  <property name="meta.media.0.codec.height">360</property>
  <property name="meta.media.0.codec.rotate">0</property>
  <property name="meta.media.0.codec.frame_rate">60</property>
  <property name="meta.media.0.codec.pix_fmt">yuv420p</property>
  <property name="meta.media.0.codec.sample_aspect_ratio">0</property>
  <property name="meta.media.0.codec.colorspace">601</property>
  <property name="meta.media.0.codec.name">h264</property>
  <property name="meta.media.0.codec.long_name">H.264 / AVC / MPEG-4 AVC / MPEG-4 part 10</property>
  <property name="meta.media.0.codec.bit_rate">0</property>
  <property name="meta.attr.0.stream.HANDLER_NAME.markup">VideoHandler</property>
  <property name="meta.attr.0.stream.VENDOR_ID.markup">[0][0][0][0]</property>
  <property name="meta.attr.0.stream.ENCODER.markup">Lavc58.134.100 libx264</property>
  <property name="meta.attr.0.stream.DURATION.markup">00:00:01.000000000</property>
  <property name="meta.attr.COMMENT.markup">Rendered with Manim Community v0.6.0</property>
  <property name="meta.attr.MAJOR_BRAND.markup">isom</property>
  <property name="meta.attr.MINOR_VERSION.markup">512</property>
  <property name="meta.attr.COMPATIBLE_BRANDS.markup">isomiso2avc1mp41</property>
  <property name="meta.attr.ENCODER.markup">Lavf58.76.100</property>
  <property name="meta.media.sample_aspect_num">1</property>
  <property name="meta.media.sample_aspect_den">1</property>
  <property name="meta.media.frame_rate_num">60</property>
  <property name="meta.media.frame_rate_den">1</property>
  <property name="meta.media.colorspace">601</property>
  <property name="meta.media.color_trc">2</property>
  <property name="meta.media.width">640</property>
  <property name="meta.media.height">360</property>
  <property name="meta.media.color_range">mpeg</property>
 </producer>
 <producer id="producer493" in="00:00:00.000" out="00:00:04.983">
  <property name="length">00:00:05.000</property>
  <property name="eof">pause</property>
  <property name="resource">/home/xiaoxiae/.cache/kdenlive/proxy/8f112aa756e16096eb3940a1b96b1294.png</property>
  <property name="ttl">25</property>
  <property name="aspect_ratio">1</property>
  <property name="progressive">1</property>
  <property name="seekable">1</property>
  <property name="meta.media.width">800</property>
  <property name="meta.media.height">450</property>
  <property name="mlt_service">qimage</property>
  <property name="kdenlive:clipname">7.png</property>
  <property name="kdenlive:duration">00:00:05.000</property>
  <property name="kdenlive:folderid">387</property>
  <property name="kdenlive:id">462</property>
  <property name="kdenlive:file_size">148636</property>
  <property name="kdenlive:file_hash">8f112aa756e16096eb3940a1b96b1294</property>
  <property name="kdenlive:proxy">/home/xiaoxiae/.cache/kdenlive/proxy/8f112aa756e16096eb3940a1b96b1294.png</property>
  <property name="kdenlive:originalurl">video/Theorem/7.png</property>
  <property name="global_feed">1</property>
 </producer>
 <producer id="producer495" in="00:00:00.000" out="00:00:00.983">
  <property name="length">60</property>
  <property name="eof">pause</property>
  <property name="resource">/home/xiaoxiae/.cache/kdenlive/proxy/cb6065f76c75070633290fc9cc940bda.mkv</property>
  <property name="audio_index">-1</property>
  <property name="video_index">0</property>
  <property name="mute_on_pause">0</property>
  <property name="mlt_service">avformat-novalidate</property>
  <property name="seekable">1</property>
  <property name="aspect_ratio">1</property>
  <property name="kdenlive:clipname">8.mp4</property>
  <property name="kdenlive:folderid">387</property>
  <property name="kdenlive:id">463</property>
  <property name="kdenlive:file_size">78882</property>
  <property name="kdenlive:file_hash">cb6065f76c75070633290fc9cc940bda</property>
  <property name="kdenlive:proxy">/home/xiaoxiae/.cache/kdenlive/proxy/cb6065f76c75070633290fc9cc940bda.mkv</property>
  <property name="kdenlive:originalurl">video/Theorem/8.mp4</property>
  <property name="global_feed">1</property>
  <property name="meta.media.nb_streams">1</property>
  <property name="meta.media.0.stream.type">video</property>
  <property name="meta.media.0.stream.frame_rate">60</property>
  <property name="meta.media.0.stream.sample_aspect_ratio">0</property>
  <property name="meta.media.0.codec.width">640</property>
  <property name="meta.media.0.codec.height">360</property>
  <property name="meta.media.0.codec.rotate">0</property>
  <property name="meta.media.0.codec.frame_rate">60</property>
  <property name="meta.media.0.codec.pix_fmt">yuv420p</property>
  <property name="meta.media.0.codec.sample_aspect_ratio">0</property>
  <property name="meta.media.0.codec.colorspace">601</property>
  <property name="meta.media.0.codec.name">h264</property>
  <property name="meta.media.0.codec.long_name">H.264 / AVC / MPEG-4 AVC / MPEG-4 part 10</property>
  <property name="meta.media.0.codec.bit_rate">0</property>
  <property name="meta.attr.0.stream.HANDLER_NAME.markup">VideoHandler</property>
  <property name="meta.attr.0.stream.VENDOR_ID.markup">[0][0][0][0]</property>
  <property name="meta.attr.0.stream.ENCODER.markup">Lavc58.134.100 libx264</property>
  <property name="meta.attr.0.stream.DURATION.markup">00:00:01.000000000</property>
  <property name="meta.attr.COMMENT.markup">Rendered with Manim Community v0.6.0</property>
  <property name="meta.attr.MAJOR_BRAND.markup">isom</property>
  <property name="meta.attr.MINOR_VERSION.markup">512</property>
  <property name="meta.attr.COMPATIBLE_BRANDS.markup">isomiso2avc1mp41</property>
  <property name="meta.attr.ENCODER.markup">Lavf58.76.100</property>
  <property name="meta.media.sample_aspect_num">1</property>
  <property name="meta.media.sample_aspect_den">1</property>
  <property name="meta.media.frame_rate_num">60</property>
  <property name="meta.media.frame_rate_den">1</property>
  <property name="meta.media.colorspace">601</property>
  <property name="meta.media.color_trc">2</property>
  <property name="meta.media.width">640</property>
  <property name="meta.media.height">360</property>
  <property name="meta.media.color_range">mpeg</property>
 </producer>
 <producer id="producer497" in="00:00:00.000" out="00:00:04.983">
  <property name="length">00:00:05.000</property>
  <property name="eof">pause</property>
  <property name="resource">/home/xiaoxiae/.cache/kdenlive/proxy/cbbc36602e3dc9d7adb95055f7fa78f1.png</property>
  <property name="ttl">25</property>
  <property name="aspect_ratio">1</property>
  <property name="progressive">1</property>
  <property name="seekable">1</property>
  <property name="meta.media.width">800</property>
  <property name="meta.media.height">450</property>
  <property name="mlt_service">qimage</property>
  <property name="kdenlive:clipname">8.png</property>
  <property name="kdenlive:duration">00:00:05.000</property>
  <property name="kdenlive:folderid">387</property>
  <property name="kdenlive:id">464</property>
  <property name="kdenlive:file_size">215932</property>
  <property name="kdenlive:file_hash">cbbc36602e3dc9d7adb95055f7fa78f1</property>
  <property name="kdenlive:proxy">/home/xiaoxiae/.cache/kdenlive/proxy/cbbc36602e3dc9d7adb95055f7fa78f1.png</property>
  <property name="kdenlive:originalurl">video/Theorem/8.png</property>
  <property name="global_feed">1</property>
 </producer>
 <producer id="producer498" in="00:00:00.000" out="00:00:00.983">
  <property name="length">60</property>
  <property name="eof">pause</property>
  <property name="resource">/home/xiaoxiae/.cache/kdenlive/proxy/af79227b1afe1494c5f7b7cf6477c86c.mkv</property>
  <property name="audio_index">-1</property>
  <property name="video_index">0</property>
  <property name="mute_on_pause">0</property>
  <property name="mlt_service">avformat-novalidate</property>
  <property name="seekable">1</property>
  <property name="aspect_ratio">1</property>
  <property name="kdenlive:clipname">9.mp4</property>
  <property name="kdenlive:folderid">387</property>
  <property name="kdenlive:id">465</property>
  <property name="kdenlive:file_size">92267</property>
  <property name="kdenlive:file_hash">af79227b1afe1494c5f7b7cf6477c86c</property>
  <property name="kdenlive:proxy">/home/xiaoxiae/.cache/kdenlive/proxy/af79227b1afe1494c5f7b7cf6477c86c.mkv</property>
  <property name="kdenlive:originalurl">video/Theorem/9.mp4</property>
  <property name="global_feed">1</property>
  <property name="meta.media.nb_streams">1</property>
  <property name="meta.media.0.stream.type">video</property>
  <property name="meta.media.0.stream.frame_rate">60</property>
  <property name="meta.media.0.stream.sample_aspect_ratio">0</property>
  <property name="meta.media.0.codec.width">640</property>
  <property name="meta.media.0.codec.height">360</property>
  <property name="meta.media.0.codec.rotate">0</property>
  <property name="meta.media.0.codec.frame_rate">60</property>
  <property name="meta.media.0.codec.pix_fmt">yuv420p</property>
  <property name="meta.media.0.codec.sample_aspect_ratio">0</property>
  <property name="meta.media.0.codec.colorspace">601</property>
  <property name="meta.media.0.codec.name">h264</property>
  <property name="meta.media.0.codec.long_name">H.264 / AVC / MPEG-4 AVC / MPEG-4 part 10</property>
  <property name="meta.media.0.codec.bit_rate">0</property>
  <property name="meta.attr.0.stream.HANDLER_NAME.markup">VideoHandler</property>
  <property name="meta.attr.0.stream.VENDOR_ID.markup">[0][0][0][0]</property>
  <property name="meta.attr.0.stream.ENCODER.markup">Lavc58.134.100 libx264</property>
  <property name="meta.attr.0.stream.DURATION.markup">00:00:01.000000000</property>
  <property name="meta.attr.COMMENT.markup">Rendered with Manim Community v0.6.0</property>
  <property name="meta.attr.MAJOR_BRAND.markup">isom</property>
  <property name="meta.attr.MINOR_VERSION.markup">512</property>
  <property name="meta.attr.COMPATIBLE_BRANDS.markup">isomiso2avc1mp41</property>
  <property name="meta.attr.ENCODER.markup">Lavf58.76.100</property>
  <property name="meta.media.sample_aspect_num">1</property>
  <property name="meta.media.sample_aspect_den">1</property>
  <property name="meta.media.frame_rate_num">60</property>
  <property name="meta.media.frame_rate_den">1</property>
  <property name="meta.media.colorspace">601</property>
  <property name="meta.media.color_trc">2</property>
  <property name="meta.media.width">640</property>
  <property name="meta.media.height">360</property>
  <property name="meta.media.color_range">mpeg</property>
 </producer>
 <producer id="producer496" in="00:00:00.000" out="00:00:04.983">
  <property name="length">00:00:05.000</property>
  <property name="eof">pause</property>
  <property name="resource">/home/xiaoxiae/.cache/kdenlive/proxy/26fb47bc4362c5f800d989e68a2999ec.png</property>
  <property name="ttl">25</property>
  <property name="aspect_ratio">1</property>
  <property name="progressive">1</property>
  <property name="seekable">1</property>
  <property name="meta.media.width">800</property>
  <property name="meta.media.height">450</property>
  <property name="mlt_service">qimage</property>
  <property name="kdenlive:clipname">9.png</property>
  <property name="kdenlive:duration">00:00:05.000</property>
  <property name="kdenlive:folderid">387</property>
  <property name="kdenlive:id">466</property>
  <property name="kdenlive:file_size">280825</property>
  <property name="kdenlive:file_hash">26fb47bc4362c5f800d989e68a2999ec</property>
  <property name="kdenlive:proxy">/home/xiaoxiae/.cache/kdenlive/proxy/26fb47bc4362c5f800d989e68a2999ec.png</property>
  <property name="kdenlive:originalurl">video/Theorem/9.png</property>
  <property name="global_feed">1</property>
 </producer>
 <producer id="producer501" in="00:00:00.000" out="00:00:01.983">
  <property name="length">120</property>
  <property name="eof">pause</property>
  <property name="resource">/home/xiaoxiae/.cache/kdenlive/proxy/851456ed4791b54c71c9e925c6373570.mkv</property>
  <property name="audio_index">-1</property>
  <property name="video_index">0</property>
  <property name="mute_on_pause">0</property>
  <property name="mlt_service">avformat-novalidate</property>
  <property name="seekable">1</property>
  <property name="aspect_ratio">1</property>
  <property name="kdenlive:clipname">1.mp4</property>
  <property name="kdenlive:folderid">490</property>
  <property name="kdenlive:id">467</property>
  <property name="kdenlive:file_size">148897</property>
  <property name="kdenlive:file_hash">851456ed4791b54c71c9e925c6373570</property>
  <property name="kdenlive:proxy">/home/xiaoxiae/.cache/kdenlive/proxy/851456ed4791b54c71c9e925c6373570.mkv</property>
  <property name="kdenlive:originalurl">video/Theorem2/1.mp4</property>
  <property name="global_feed">1</property>
  <property name="meta.media.nb_streams">1</property>
  <property name="meta.media.0.stream.type">video</property>
  <property name="meta.media.0.stream.frame_rate">60</property>
  <property name="meta.media.0.stream.sample_aspect_ratio">0</property>
  <property name="meta.media.0.codec.width">640</property>
  <property name="meta.media.0.codec.height">360</property>
  <property name="meta.media.0.codec.rotate">0</property>
  <property name="meta.media.0.codec.frame_rate">60</property>
  <property name="meta.media.0.codec.pix_fmt">yuv420p</property>
  <property name="meta.media.0.codec.sample_aspect_ratio">0</property>
  <property name="meta.media.0.codec.colorspace">601</property>
  <property name="meta.media.0.codec.name">h264</property>
  <property name="meta.media.0.codec.long_name">H.264 / AVC / MPEG-4 AVC / MPEG-4 part 10</property>
  <property name="meta.media.0.codec.bit_rate">0</property>
  <property name="meta.attr.0.stream.HANDLER_NAME.markup">VideoHandler</property>
  <property name="meta.attr.0.stream.VENDOR_ID.markup">[0][0][0][0]</property>
  <property name="meta.attr.0.stream.ENCODER.markup">Lavc58.134.100 libx264</property>
  <property name="meta.attr.0.stream.DURATION.markup">00:00:02.000000000</property>
  <property name="meta.attr.COMMENT.markup">Rendered with Manim Community v0.6.0</property>
  <property name="meta.attr.MAJOR_BRAND.markup">isom</property>
  <property name="meta.attr.MINOR_VERSION.markup">512</property>
  <property name="meta.attr.COMPATIBLE_BRANDS.markup">isomiso2avc1mp41</property>
  <property name="meta.attr.ENCODER.markup">Lavf58.76.100</property>
  <property name="meta.media.sample_aspect_num">1</property>
  <property name="meta.media.sample_aspect_den">1</property>
  <property name="meta.media.frame_rate_num">60</property>
  <property name="meta.media.frame_rate_den">1</property>
  <property name="meta.media.colorspace">601</property>
  <property name="meta.media.color_trc">2</property>
  <property name="meta.media.width">640</property>
  <property name="meta.media.height">360</property>
  <property name="meta.media.color_range">mpeg</property>
 </producer>
 <producer id="producer499" in="00:00:00.000" out="00:00:04.983">
  <property name="length">00:00:05.000</property>
  <property name="eof">pause</property>
  <property name="resource">/home/xiaoxiae/.cache/kdenlive/proxy/fa248c683ec3fc810009e1123b7d26b0.png</property>
  <property name="ttl">25</property>
  <property name="aspect_ratio">1</property>
  <property name="progressive">1</property>
  <property name="seekable">1</property>
  <property name="meta.media.width">800</property>
  <property name="meta.media.height">450</property>
  <property name="mlt_service">qimage</property>
  <property name="kdenlive:clipname">1.png</property>
  <property name="kdenlive:duration">00:00:05.000</property>
  <property name="kdenlive:folderid">490</property>
  <property name="kdenlive:id">468</property>
  <property name="kdenlive:file_size">131623</property>
  <property name="kdenlive:file_hash">fa248c683ec3fc810009e1123b7d26b0</property>
  <property name="kdenlive:proxy">/home/xiaoxiae/.cache/kdenlive/proxy/fa248c683ec3fc810009e1123b7d26b0.png</property>
  <property name="kdenlive:originalurl">video/Theorem2/1.png</property>
  <property name="global_feed">1</property>
 </producer>
 <producer id="producer500" in="00:00:00.000" out="00:00:00.983">
  <property name="length">60</property>
  <property name="eof">pause</property>
  <property name="resource">/home/xiaoxiae/.cache/kdenlive/proxy/473ab0b8a897245e5de0e8c632ca3717.mkv</property>
  <property name="audio_index">-1</property>
  <property name="video_index">0</property>
  <property name="mute_on_pause">0</property>
  <property name="mlt_service">avformat-novalidate</property>
  <property name="seekable">1</property>
  <property name="aspect_ratio">1</property>
  <property name="kdenlive:clipname">10.mp4</property>
  <property name="kdenlive:folderid">490</property>
  <property name="kdenlive:id">469</property>
  <property name="kdenlive:file_size">288665</property>
  <property name="kdenlive:file_hash">473ab0b8a897245e5de0e8c632ca3717</property>
  <property name="kdenlive:proxy">/home/xiaoxiae/.cache/kdenlive/proxy/473ab0b8a897245e5de0e8c632ca3717.mkv</property>
  <property name="kdenlive:originalurl">video/Theorem2/10.mp4</property>
  <property name="global_feed">1</property>
  <property name="meta.media.nb_streams">1</property>
  <property name="meta.media.0.stream.type">video</property>
  <property name="meta.media.0.stream.frame_rate">60</property>
  <property name="meta.media.0.stream.sample_aspect_ratio">0</property>
  <property name="meta.media.0.codec.width">640</property>
  <property name="meta.media.0.codec.height">360</property>
  <property name="meta.media.0.codec.rotate">0</property>
  <property name="meta.media.0.codec.frame_rate">60</property>
  <property name="meta.media.0.codec.pix_fmt">yuv420p</property>
  <property name="meta.media.0.codec.sample_aspect_ratio">0</property>
  <property name="meta.media.0.codec.colorspace">601</property>
  <property name="meta.media.0.codec.name">h264</property>
  <property name="meta.media.0.codec.long_name">H.264 / AVC / MPEG-4 AVC / MPEG-4 part 10</property>
  <property name="meta.media.0.codec.bit_rate">0</property>
  <property name="meta.attr.0.stream.HANDLER_NAME.markup">VideoHandler</property>
  <property name="meta.attr.0.stream.VENDOR_ID.markup">[0][0][0][0]</property>
  <property name="meta.attr.0.stream.ENCODER.markup">Lavc58.134.100 libx264</property>
  <property name="meta.attr.0.stream.DURATION.markup">00:00:01.000000000</property>
  <property name="meta.attr.COMMENT.markup">Rendered with Manim Community v0.6.0</property>
  <property name="meta.attr.MAJOR_BRAND.markup">isom</property>
  <property name="meta.attr.MINOR_VERSION.markup">512</property>
  <property name="meta.attr.COMPATIBLE_BRANDS.markup">isomiso2avc1mp41</property>
  <property name="meta.attr.ENCODER.markup">Lavf58.76.100</property>
  <property name="meta.media.sample_aspect_num">1</property>
  <property name="meta.media.sample_aspect_den">1</property>
  <property name="meta.media.frame_rate_num">60</property>
  <property name="meta.media.frame_rate_den">1</property>
  <property name="meta.media.colorspace">601</property>
  <property name="meta.media.color_trc">2</property>
  <property name="meta.media.width">640</property>
  <property name="meta.media.height">360</property>
  <property name="meta.media.color_range">mpeg</property>
 </producer>
 <producer id="producer502" in="00:00:00.000" out="00:00:04.983">
  <property name="length">00:00:05.000</property>
  <property name="eof">pause</property>
  <property name="resource">/home/xiaoxiae/.cache/kdenlive/proxy/498d550c801c412f90d4b5cbb9715e7d.png</property>
  <property name="ttl">25</property>
  <property name="aspect_ratio">1</property>
  <property name="progressive">1</property>
  <property name="seekable">1</property>
  <property name="meta.media.width">800</property>
  <property name="meta.media.height">450</property>
  <property name="mlt_service">qimage</property>
  <property name="kdenlive:clipname">10.png</property>
  <property name="kdenlive:duration">00:00:05.000</property>
  <property name="kdenlive:folderid">490</property>
  <property name="kdenlive:id">470</property>
  <property name="kdenlive:file_size">632648</property>
  <property name="kdenlive:file_hash">498d550c801c412f90d4b5cbb9715e7d</property>
  <property name="kdenlive:proxy">/home/xiaoxiae/.cache/kdenlive/proxy/498d550c801c412f90d4b5cbb9715e7d.png</property>
  <property name="kdenlive:originalurl">video/Theorem2/10.png</property>
  <property name="global_feed">1</property>
 </producer>
 <producer id="producer503" in="00:00:00.000" out="00:00:00.983">
  <property name="length">60</property>
  <property name="eof">pause</property>
  <property name="resource">/home/xiaoxiae/.cache/kdenlive/proxy/1d867d383fd40d8badf7df290252b386.mkv</property>
  <property name="audio_index">-1</property>
  <property name="video_index">0</property>
  <property name="mute_on_pause">0</property>
  <property name="mlt_service">avformat-novalidate</property>
  <property name="seekable">1</property>
  <property name="aspect_ratio">1</property>
  <property name="kdenlive:clipname">11.mp4</property>
  <property name="kdenlive:folderid">490</property>
  <property name="kdenlive:id">471</property>
  <property name="kdenlive:file_size">232731</property>
  <property name="kdenlive:file_hash">1d867d383fd40d8badf7df290252b386</property>
  <property name="kdenlive:proxy">/home/xiaoxiae/.cache/kdenlive/proxy/1d867d383fd40d8badf7df290252b386.mkv</property>
  <property name="kdenlive:originalurl">video/Theorem2/11.mp4</property>
  <property name="global_feed">1</property>
  <property name="meta.media.nb_streams">1</property>
  <property name="meta.media.0.stream.type">video</property>
  <property name="meta.media.0.stream.frame_rate">60</property>
  <property name="meta.media.0.stream.sample_aspect_ratio">0</property>
  <property name="meta.media.0.codec.width">640</property>
  <property name="meta.media.0.codec.height">360</property>
  <property name="meta.media.0.codec.rotate">0</property>
  <property name="meta.media.0.codec.frame_rate">60</property>
  <property name="meta.media.0.codec.pix_fmt">yuv420p</property>
  <property name="meta.media.0.codec.sample_aspect_ratio">0</property>
  <property name="meta.media.0.codec.colorspace">601</property>
  <property name="meta.media.0.codec.name">h264</property>
  <property name="meta.media.0.codec.long_name">H.264 / AVC / MPEG-4 AVC / MPEG-4 part 10</property>
  <property name="meta.media.0.codec.bit_rate">0</property>
  <property name="meta.attr.0.stream.HANDLER_NAME.markup">VideoHandler</property>
  <property name="meta.attr.0.stream.VENDOR_ID.markup">[0][0][0][0]</property>
  <property name="meta.attr.0.stream.ENCODER.markup">Lavc58.134.100 libx264</property>
  <property name="meta.attr.0.stream.DURATION.markup">00:00:01.000000000</property>
  <property name="meta.attr.COMMENT.markup">Rendered with Manim Community v0.6.0</property>
  <property name="meta.attr.MAJOR_BRAND.markup">isom</property>
  <property name="meta.attr.MINOR_VERSION.markup">512</property>
  <property name="meta.attr.COMPATIBLE_BRANDS.markup">isomiso2avc1mp41</property>
  <property name="meta.attr.ENCODER.markup">Lavf58.76.100</property>
  <property name="meta.media.sample_aspect_num">1</property>
  <property name="meta.media.sample_aspect_den">1</property>
  <property name="meta.media.frame_rate_num">60</property>
  <property name="meta.media.frame_rate_den">1</property>
  <property name="meta.media.colorspace">601</property>
  <property name="meta.media.color_trc">2</property>
  <property name="meta.media.width">640</property>
  <property name="meta.media.height">360</property>
  <property name="meta.media.color_range">mpeg</property>
 </producer>
 <producer id="producer505" in="00:00:00.000" out="00:00:04.983">
  <property name="length">00:00:05.000</property>
  <property name="eof">pause</property>
  <property name="resource">/home/xiaoxiae/.cache/kdenlive/proxy/6b665121ca7b54a5f5307b69451fd23c.png</property>
  <property name="ttl">25</property>
  <property name="aspect_ratio">1</property>
  <property name="progressive">1</property>
  <property name="seekable">1</property>
  <property name="meta.media.width">800</property>
  <property name="meta.media.height">450</property>
  <property name="mlt_service">qimage</property>
  <property name="kdenlive:clipname">11.png</property>
  <property name="kdenlive:duration">00:00:05.000</property>
  <property name="kdenlive:folderid">490</property>
  <property name="kdenlive:id">472</property>
  <property name="kdenlive:file_size">24337</property>
  <property name="kdenlive:file_hash">6b665121ca7b54a5f5307b69451fd23c</property>
  <property name="kdenlive:proxy">/home/xiaoxiae/.cache/kdenlive/proxy/6b665121ca7b54a5f5307b69451fd23c.png</property>
  <property name="kdenlive:originalurl">video/Theorem2/11.png</property>
  <property name="global_feed">1</property>
 </producer>
 <producer id="producer504" in="00:00:00.000" out="00:00:00.983">
  <property name="length">60</property>
  <property name="eof">pause</property>
  <property name="resource">/home/xiaoxiae/.cache/kdenlive/proxy/9332331103e2165b3878feb509ba8722.mkv</property>
  <property name="audio_index">-1</property>
  <property name="video_index">0</property>
  <property name="mute_on_pause">0</property>
  <property name="mlt_service">avformat-novalidate</property>
  <property name="seekable">1</property>
  <property name="aspect_ratio">1</property>
  <property name="kdenlive:clipname">2.mp4</property>
  <property name="kdenlive:folderid">490</property>
  <property name="kdenlive:id">473</property>
  <property name="kdenlive:file_size">112918</property>
  <property name="kdenlive:file_hash">9332331103e2165b3878feb509ba8722</property>
  <property name="kdenlive:proxy">/home/xiaoxiae/.cache/kdenlive/proxy/9332331103e2165b3878feb509ba8722.mkv</property>
  <property name="kdenlive:originalurl">video/Theorem2/2.mp4</property>
  <property name="global_feed">1</property>
  <property name="meta.media.nb_streams">1</property>
  <property name="meta.media.0.stream.type">video</property>
  <property name="meta.media.0.stream.frame_rate">60</property>
  <property name="meta.media.0.stream.sample_aspect_ratio">0</property>
  <property name="meta.media.0.codec.width">640</property>
  <property name="meta.media.0.codec.height">360</property>
  <property name="meta.media.0.codec.rotate">0</property>
  <property name="meta.media.0.codec.frame_rate">60</property>
  <property name="meta.media.0.codec.pix_fmt">yuv420p</property>
  <property name="meta.media.0.codec.sample_aspect_ratio">0</property>
  <property name="meta.media.0.codec.colorspace">601</property>
  <property name="meta.media.0.codec.name">h264</property>
  <property name="meta.media.0.codec.long_name">H.264 / AVC / MPEG-4 AVC / MPEG-4 part 10</property>
  <property name="meta.media.0.codec.bit_rate">0</property>
  <property name="meta.attr.0.stream.HANDLER_NAME.markup">VideoHandler</property>
  <property name="meta.attr.0.stream.VENDOR_ID.markup">[0][0][0][0]</property>
  <property name="meta.attr.0.stream.ENCODER.markup">Lavc58.134.100 libx264</property>
  <property name="meta.attr.0.stream.DURATION.markup">00:00:01.000000000</property>
  <property name="meta.attr.COMMENT.markup">Rendered with Manim Community v0.6.0</property>
  <property name="meta.attr.MAJOR_BRAND.markup">isom</property>
  <property name="meta.attr.MINOR_VERSION.markup">512</property>
  <property name="meta.attr.COMPATIBLE_BRANDS.markup">isomiso2avc1mp41</property>
  <property name="meta.attr.ENCODER.markup">Lavf58.76.100</property>
  <property name="meta.media.sample_aspect_num">1</property>
  <property name="meta.media.sample_aspect_den">1</property>
  <property name="meta.media.frame_rate_num">60</property>
  <property name="meta.media.frame_rate_den">1</property>
  <property name="meta.media.colorspace">601</property>
  <property name="meta.media.color_trc">2</property>
  <property name="meta.media.width">640</property>
  <property name="meta.media.height">360</property>
  <property name="meta.media.color_range">mpeg</property>
 </producer>
 <producer id="producer506" in="00:00:00.000" out="00:00:04.983">
  <property name="length">00:00:05.000</property>
  <property name="eof">pause</property>
  <property name="resource">/home/xiaoxiae/.cache/kdenlive/proxy/560956d1e28b07b1504baa67a9d2d35c.png</property>
  <property name="ttl">25</property>
  <property name="aspect_ratio">1</property>
  <property name="progressive">1</property>
  <property name="seekable">1</property>
  <property name="meta.media.width">800</property>
  <property name="meta.media.height">450</property>
  <property name="mlt_service">qimage</property>
  <property name="kdenlive:clipname">2.png</property>
  <property name="kdenlive:duration">00:00:05.000</property>
  <property name="kdenlive:folderid">490</property>
  <property name="kdenlive:id">474</property>
  <property name="kdenlive:file_size">130077</property>
  <property name="kdenlive:file_hash">560956d1e28b07b1504baa67a9d2d35c</property>
  <property name="kdenlive:proxy">/home/xiaoxiae/.cache/kdenlive/proxy/560956d1e28b07b1504baa67a9d2d35c.png</property>
  <property name="kdenlive:originalurl">video/Theorem2/2.png</property>
  <property name="global_feed">1</property>
 </producer>
 <producer id="producer518" in="00:00:00.000" out="00:00:04.750">
  <property name="length">286</property>
  <property name="eof">pause</property>
  <property name="resource">/home/xiaoxiae/.cache/kdenlive/proxy/78f56a57c555dab2493a79df0994b2fc.mkv</property>
  <property name="audio_index">-1</property>
  <property name="video_index">0</property>
  <property name="mute_on_pause">0</property>
  <property name="mlt_service">avformat-novalidate</property>
  <property name="seekable">1</property>
  <property name="aspect_ratio">1</property>
  <property name="kdenlive:clipname">3.mp4</property>
  <property name="kdenlive:folderid">490</property>
  <property name="kdenlive:id">475</property>
  <property name="kdenlive:file_size">632200</property>
  <property name="kdenlive:file_hash">78f56a57c555dab2493a79df0994b2fc</property>
  <property name="kdenlive:proxy">/home/xiaoxiae/.cache/kdenlive/proxy/78f56a57c555dab2493a79df0994b2fc.mkv</property>
  <property name="kdenlive:originalurl">video/Theorem2/3.mp4</property>
  <property name="global_feed">1</property>
  <property name="meta.media.nb_streams">1</property>
  <property name="meta.media.0.stream.type">video</property>
  <property name="meta.media.0.stream.frame_rate">60</property>
  <property name="meta.media.0.stream.sample_aspect_ratio">0</property>
  <property name="meta.media.0.codec.width">640</property>
  <property name="meta.media.0.codec.height">360</property>
  <property name="meta.media.0.codec.rotate">0</property>
  <property name="meta.media.0.codec.frame_rate">60</property>
  <property name="meta.media.0.codec.pix_fmt">yuv420p</property>
  <property name="meta.media.0.codec.sample_aspect_ratio">0</property>
  <property name="meta.media.0.codec.colorspace">601</property>
  <property name="meta.media.0.codec.name">h264</property>
  <property name="meta.media.0.codec.long_name">H.264 / AVC / MPEG-4 AVC / MPEG-4 part 10</property>
  <property name="meta.media.0.codec.bit_rate">0</property>
  <property name="meta.attr.0.stream.HANDLER_NAME.markup">VideoHandler</property>
  <property name="meta.attr.0.stream.VENDOR_ID.markup">[0][0][0][0]</property>
  <property name="meta.attr.0.stream.ENCODER.markup">Lavc58.134.100 libx264</property>
  <property name="meta.attr.0.stream.DURATION.markup">00:00:04.767000000</property>
  <property name="meta.attr.COMMENT.markup">Rendered with Manim Community v0.6.0</property>
  <property name="meta.attr.MAJOR_BRAND.markup">isom</property>
  <property name="meta.attr.MINOR_VERSION.markup">512</property>
  <property name="meta.attr.COMPATIBLE_BRANDS.markup">isomiso2avc1mp41</property>
  <property name="meta.attr.ENCODER.markup">Lavf58.76.100</property>
  <property name="meta.media.sample_aspect_num">1</property>
  <property name="meta.media.sample_aspect_den">1</property>
  <property name="meta.media.frame_rate_num">60</property>
  <property name="meta.media.frame_rate_den">1</property>
  <property name="meta.media.colorspace">601</property>
  <property name="meta.media.color_trc">2</property>
  <property name="meta.media.width">640</property>
  <property name="meta.media.height">360</property>
  <property name="meta.media.color_range">mpeg</property>
 </producer>
 <producer id="producer508" in="00:00:00.000" out="00:00:04.983">
  <property name="length">00:00:05.000</property>
  <property name="eof">pause</property>
  <property name="resource">/home/xiaoxiae/.cache/kdenlive/proxy/4093ccc25ce34268f96001bbd9d75483.png</property>
  <property name="ttl">25</property>
  <property name="aspect_ratio">1</property>
  <property name="progressive">1</property>
  <property name="seekable">1</property>
  <property name="meta.media.width">800</property>
  <property name="meta.media.height">450</property>
  <property name="mlt_service">qimage</property>
  <property name="kdenlive:clipname">3.png</property>
  <property name="kdenlive:duration">00:00:05.000</property>
  <property name="kdenlive:folderid">490</property>
  <property name="kdenlive:id">476</property>
  <property name="kdenlive:file_size">385001</property>
  <property name="kdenlive:file_hash">4093ccc25ce34268f96001bbd9d75483</property>
  <property name="kdenlive:proxy">/home/xiaoxiae/.cache/kdenlive/proxy/4093ccc25ce34268f96001bbd9d75483.png</property>
  <property name="kdenlive:originalurl">video/Theorem2/3.png</property>
  <property name="global_feed">1</property>
 </producer>
 <producer id="producer507" in="00:00:00.000" out="00:00:00.983">
  <property name="length">60</property>
  <property name="eof">pause</property>
  <property name="resource">/home/xiaoxiae/.cache/kdenlive/proxy/d518ccfb407762f42b055c26422ecee7.mkv</property>
  <property name="audio_index">-1</property>
  <property name="video_index">0</property>
  <property name="mute_on_pause">0</property>
  <property name="mlt_service">avformat-novalidate</property>
  <property name="seekable">1</property>
  <property name="aspect_ratio">1</property>
  <property name="kdenlive:clipname">4.mp4</property>
  <property name="kdenlive:folderid">490</property>
  <property name="kdenlive:id">477</property>
  <property name="kdenlive:file_size">150753</property>
  <property name="kdenlive:file_hash">d518ccfb407762f42b055c26422ecee7</property>
  <property name="kdenlive:proxy">/home/xiaoxiae/.cache/kdenlive/proxy/d518ccfb407762f42b055c26422ecee7.mkv</property>
  <property name="kdenlive:originalurl">video/Theorem2/4.mp4</property>
  <property name="global_feed">1</property>
  <property name="meta.media.nb_streams">1</property>
  <property name="meta.media.0.stream.type">video</property>
  <property name="meta.media.0.stream.frame_rate">60</property>
  <property name="meta.media.0.stream.sample_aspect_ratio">0</property>
  <property name="meta.media.0.codec.width">640</property>
  <property name="meta.media.0.codec.height">360</property>
  <property name="meta.media.0.codec.rotate">0</property>
  <property name="meta.media.0.codec.frame_rate">60</property>
  <property name="meta.media.0.codec.pix_fmt">yuv420p</property>
  <property name="meta.media.0.codec.sample_aspect_ratio">0</property>
  <property name="meta.media.0.codec.colorspace">601</property>
  <property name="meta.media.0.codec.name">h264</property>
  <property name="meta.media.0.codec.long_name">H.264 / AVC / MPEG-4 AVC / MPEG-4 part 10</property>
  <property name="meta.media.0.codec.bit_rate">0</property>
  <property name="meta.attr.0.stream.HANDLER_NAME.markup">VideoHandler</property>
  <property name="meta.attr.0.stream.VENDOR_ID.markup">[0][0][0][0]</property>
  <property name="meta.attr.0.stream.ENCODER.markup">Lavc58.134.100 libx264</property>
  <property name="meta.attr.0.stream.DURATION.markup">00:00:01.000000000</property>
  <property name="meta.attr.COMMENT.markup">Rendered with Manim Community v0.6.0</property>
  <property name="meta.attr.MAJOR_BRAND.markup">isom</property>
  <property name="meta.attr.MINOR_VERSION.markup">512</property>
  <property name="meta.attr.COMPATIBLE_BRANDS.markup">isomiso2avc1mp41</property>
  <property name="meta.attr.ENCODER.markup">Lavf58.76.100</property>
  <property name="meta.media.sample_aspect_num">1</property>
  <property name="meta.media.sample_aspect_den">1</property>
  <property name="meta.media.frame_rate_num">60</property>
  <property name="meta.media.frame_rate_den">1</property>
  <property name="meta.media.colorspace">601</property>
  <property name="meta.media.color_trc">2</property>
  <property name="meta.media.width">640</property>
  <property name="meta.media.height">360</property>
  <property name="meta.media.color_range">mpeg</property>
 </producer>
 <producer id="producer509" in="00:00:00.000" out="00:00:04.983">
  <property name="length">00:00:05.000</property>
  <property name="eof">pause</property>
  <property name="resource">/home/xiaoxiae/.cache/kdenlive/proxy/fc23f6ee8b5240c3b5872782b7f816ab.png</property>
  <property name="ttl">25</property>
  <property name="aspect_ratio">1</property>
  <property name="progressive">1</property>
  <property name="seekable">1</property>
  <property name="meta.media.width">800</property>
  <property name="meta.media.height">450</property>
  <property name="mlt_service">qimage</property>
  <property name="kdenlive:clipname">4.png</property>
  <property name="kdenlive:duration">00:00:05.000</property>
  <property name="kdenlive:folderid">490</property>
  <property name="kdenlive:id">478</property>
  <property name="kdenlive:file_size">299246</property>
  <property name="kdenlive:file_hash">fc23f6ee8b5240c3b5872782b7f816ab</property>
  <property name="kdenlive:proxy">/home/xiaoxiae/.cache/kdenlive/proxy/fc23f6ee8b5240c3b5872782b7f816ab.png</property>
  <property name="kdenlive:originalurl">video/Theorem2/4.png</property>
  <property name="global_feed">1</property>
 </producer>
 <producer id="producer510" in="00:00:00.000" out="00:00:00.983">
  <property name="length">60</property>
  <property name="eof">pause</property>
  <property name="resource">/home/xiaoxiae/.cache/kdenlive/proxy/48c54f9ae8602ac7e9a9d4cf269752ad.mkv</property>
  <property name="audio_index">-1</property>
  <property name="video_index">0</property>
  <property name="mute_on_pause">0</property>
  <property name="mlt_service">avformat-novalidate</property>
  <property name="seekable">1</property>
  <property name="aspect_ratio">1</property>
  <property name="kdenlive:clipname">5.mp4</property>
  <property name="kdenlive:folderid">490</property>
  <property name="kdenlive:id">479</property>
  <property name="kdenlive:file_size">301251</property>
  <property name="kdenlive:file_hash">48c54f9ae8602ac7e9a9d4cf269752ad</property>
  <property name="kdenlive:proxy">/home/xiaoxiae/.cache/kdenlive/proxy/48c54f9ae8602ac7e9a9d4cf269752ad.mkv</property>
  <property name="kdenlive:originalurl">video/Theorem2/5.mp4</property>
  <property name="global_feed">1</property>
  <property name="meta.media.nb_streams">1</property>
  <property name="meta.media.0.stream.type">video</property>
  <property name="meta.media.0.stream.frame_rate">60</property>
  <property name="meta.media.0.stream.sample_aspect_ratio">0</property>
  <property name="meta.media.0.codec.width">640</property>
  <property name="meta.media.0.codec.height">360</property>
  <property name="meta.media.0.codec.rotate">0</property>
  <property name="meta.media.0.codec.frame_rate">60</property>
  <property name="meta.media.0.codec.pix_fmt">yuv420p</property>
  <property name="meta.media.0.codec.sample_aspect_ratio">0</property>
  <property name="meta.media.0.codec.colorspace">601</property>
  <property name="meta.media.0.codec.name">h264</property>
  <property name="meta.media.0.codec.long_name">H.264 / AVC / MPEG-4 AVC / MPEG-4 part 10</property>
  <property name="meta.media.0.codec.bit_rate">0</property>
  <property name="meta.attr.0.stream.HANDLER_NAME.markup">VideoHandler</property>
  <property name="meta.attr.0.stream.VENDOR_ID.markup">[0][0][0][0]</property>
  <property name="meta.attr.0.stream.ENCODER.markup">Lavc58.134.100 libx264</property>
  <property name="meta.attr.0.stream.DURATION.markup">00:00:01.000000000</property>
  <property name="meta.attr.COMMENT.markup">Rendered with Manim Community v0.6.0</property>
  <property name="meta.attr.MAJOR_BRAND.markup">isom</property>
  <property name="meta.attr.MINOR_VERSION.markup">512</property>
  <property name="meta.attr.COMPATIBLE_BRANDS.markup">isomiso2avc1mp41</property>
  <property name="meta.attr.ENCODER.markup">Lavf58.76.100</property>
  <property name="meta.media.sample_aspect_num">1</property>
  <property name="meta.media.sample_aspect_den">1</property>
  <property name="meta.media.frame_rate_num">60</property>
  <property name="meta.media.frame_rate_den">1</property>
  <property name="meta.media.colorspace">601</property>
  <property name="meta.media.color_trc">2</property>
  <property name="meta.media.width">640</property>
  <property name="meta.media.height">360</property>
  <property name="meta.media.color_range">mpeg</property>
 </producer>
 <producer id="producer513" in="00:00:00.000" out="00:00:04.983">
  <property name="length">00:00:05.000</property>
  <property name="eof">pause</property>
  <property name="resource">/home/xiaoxiae/.cache/kdenlive/proxy/32475c0c2b5fcd50c9734cfb3e194e97.png</property>
  <property name="ttl">25</property>
  <property name="aspect_ratio">1</property>
  <property name="progressive">1</property>
  <property name="seekable">1</property>
  <property name="meta.media.width">800</property>
  <property name="meta.media.height">450</property>
  <property name="mlt_service">qimage</property>
  <property name="kdenlive:clipname">5.png</property>
  <property name="kdenlive:duration">00:00:05.000</property>
  <property name="kdenlive:folderid">490</property>
  <property name="kdenlive:id">480</property>
  <property name="kdenlive:file_size">359005</property>
  <property name="kdenlive:file_hash">32475c0c2b5fcd50c9734cfb3e194e97</property>
  <property name="kdenlive:proxy">/home/xiaoxiae/.cache/kdenlive/proxy/32475c0c2b5fcd50c9734cfb3e194e97.png</property>
  <property name="kdenlive:originalurl">video/Theorem2/5.png</property>
  <property name="global_feed">1</property>
 </producer>
 <producer id="producer512" in="00:00:00.000" out="00:00:00.983">
  <property name="length">60</property>
  <property name="eof">pause</property>
  <property name="resource">/home/xiaoxiae/.cache/kdenlive/proxy/613f29a325b13907e00d6335ab70f771.mkv</property>
  <property name="audio_index">-1</property>
  <property name="video_index">0</property>
  <property name="mute_on_pause">0</property>
  <property name="mlt_service">avformat-novalidate</property>
  <property name="seekable">1</property>
  <property name="aspect_ratio">1</property>
  <property name="kdenlive:clipname">6.mp4</property>
  <property name="kdenlive:folderid">490</property>
  <property name="kdenlive:id">481</property>
  <property name="kdenlive:file_size">78244</property>
  <property name="kdenlive:file_hash">613f29a325b13907e00d6335ab70f771</property>
  <property name="kdenlive:proxy">/home/xiaoxiae/.cache/kdenlive/proxy/613f29a325b13907e00d6335ab70f771.mkv</property>
  <property name="kdenlive:originalurl">video/Theorem2/6.mp4</property>
  <property name="global_feed">1</property>
  <property name="meta.media.nb_streams">1</property>
  <property name="meta.media.0.stream.type">video</property>
  <property name="meta.media.0.stream.frame_rate">60</property>
  <property name="meta.media.0.stream.sample_aspect_ratio">0</property>
  <property name="meta.media.0.codec.width">640</property>
  <property name="meta.media.0.codec.height">360</property>
  <property name="meta.media.0.codec.rotate">0</property>
  <property name="meta.media.0.codec.frame_rate">60</property>
  <property name="meta.media.0.codec.pix_fmt">yuv420p</property>
  <property name="meta.media.0.codec.sample_aspect_ratio">0</property>
  <property name="meta.media.0.codec.colorspace">601</property>
  <property name="meta.media.0.codec.name">h264</property>
  <property name="meta.media.0.codec.long_name">H.264 / AVC / MPEG-4 AVC / MPEG-4 part 10</property>
  <property name="meta.media.0.codec.bit_rate">0</property>
  <property name="meta.attr.0.stream.HANDLER_NAME.markup">VideoHandler</property>
  <property name="meta.attr.0.stream.VENDOR_ID.markup">[0][0][0][0]</property>
  <property name="meta.attr.0.stream.ENCODER.markup">Lavc58.134.100 libx264</property>
  <property name="meta.attr.0.stream.DURATION.markup">00:00:01.000000000</property>
  <property name="meta.attr.COMMENT.markup">Rendered with Manim Community v0.6.0</property>
  <property name="meta.attr.MAJOR_BRAND.markup">isom</property>
  <property name="meta.attr.MINOR_VERSION.markup">512</property>
  <property name="meta.attr.COMPATIBLE_BRANDS.markup">isomiso2avc1mp41</property>
  <property name="meta.attr.ENCODER.markup">Lavf58.76.100</property>
  <property name="meta.media.sample_aspect_num">1</property>
  <property name="meta.media.sample_aspect_den">1</property>
  <property name="meta.media.frame_rate_num">60</property>
  <property name="meta.media.frame_rate_den">1</property>
  <property name="meta.media.colorspace">601</property>
  <property name="meta.media.color_trc">2</property>
  <property name="meta.media.width">640</property>
  <property name="meta.media.height">360</property>
  <property name="meta.media.color_range">mpeg</property>
 </producer>
 <producer id="producer511" in="00:00:00.000" out="00:00:04.983">
  <property name="length">00:00:05.000</property>
  <property name="eof">pause</property>
  <property name="resource">/home/xiaoxiae/.cache/kdenlive/proxy/124d9302ebf3e920381042629a82a38f.png</property>
  <property name="ttl">25</property>
  <property name="aspect_ratio">1</property>
  <property name="progressive">1</property>
  <property name="seekable">1</property>
  <property name="meta.media.width">800</property>
  <property name="meta.media.height">450</property>
  <property name="mlt_service">qimage</property>
  <property name="kdenlive:clipname">6.png</property>
  <property name="kdenlive:duration">00:00:05.000</property>
  <property name="kdenlive:folderid">490</property>
  <property name="kdenlive:id">482</property>
  <property name="kdenlive:file_size">297453</property>
  <property name="kdenlive:file_hash">124d9302ebf3e920381042629a82a38f</property>
  <property name="kdenlive:proxy">/home/xiaoxiae/.cache/kdenlive/proxy/124d9302ebf3e920381042629a82a38f.png</property>
  <property name="kdenlive:originalurl">video/Theorem2/6.png</property>
  <property name="global_feed">1</property>
 </producer>
 <producer id="producer516" in="00:00:00.000" out="00:00:01.983">
  <property name="length">120</property>
  <property name="eof">pause</property>
  <property name="resource">/home/xiaoxiae/.cache/kdenlive/proxy/1cecc79b56b9d75e94e8a30969af620e.mkv</property>
  <property name="audio_index">-1</property>
  <property name="video_index">0</property>
  <property name="mute_on_pause">0</property>
  <property name="mlt_service">avformat-novalidate</property>
  <property name="seekable">1</property>
  <property name="aspect_ratio">1</property>
  <property name="kdenlive:clipname">7.mp4</property>
  <property name="kdenlive:folderid">490</property>
  <property name="kdenlive:id">483</property>
  <property name="kdenlive:file_size">223160</property>
  <property name="kdenlive:file_hash">1cecc79b56b9d75e94e8a30969af620e</property>
  <property name="kdenlive:proxy">/home/xiaoxiae/.cache/kdenlive/proxy/1cecc79b56b9d75e94e8a30969af620e.mkv</property>
  <property name="kdenlive:originalurl">video/Theorem2/7.mp4</property>
  <property name="global_feed">1</property>
  <property name="meta.media.nb_streams">1</property>
  <property name="meta.media.0.stream.type">video</property>
  <property name="meta.media.0.stream.frame_rate">60</property>
  <property name="meta.media.0.stream.sample_aspect_ratio">0</property>
  <property name="meta.media.0.codec.width">640</property>
  <property name="meta.media.0.codec.height">360</property>
  <property name="meta.media.0.codec.rotate">0</property>
  <property name="meta.media.0.codec.frame_rate">60</property>
  <property name="meta.media.0.codec.pix_fmt">yuv420p</property>
  <property name="meta.media.0.codec.sample_aspect_ratio">0</property>
  <property name="meta.media.0.codec.colorspace">601</property>
  <property name="meta.media.0.codec.name">h264</property>
  <property name="meta.media.0.codec.long_name">H.264 / AVC / MPEG-4 AVC / MPEG-4 part 10</property>
  <property name="meta.media.0.codec.bit_rate">0</property>
  <property name="meta.attr.0.stream.HANDLER_NAME.markup">VideoHandler</property>
  <property name="meta.attr.0.stream.VENDOR_ID.markup">[0][0][0][0]</property>
  <property name="meta.attr.0.stream.ENCODER.markup">Lavc58.134.100 libx264</property>
  <property name="meta.attr.0.stream.DURATION.markup">00:00:02.000000000</property>
  <property name="meta.attr.COMMENT.markup">Rendered with Manim Community v0.6.0</property>
  <property name="meta.attr.MAJOR_BRAND.markup">isom</property>
  <property name="meta.attr.MINOR_VERSION.markup">512</property>
  <property name="meta.attr.COMPATIBLE_BRANDS.markup">isomiso2avc1mp41</property>
  <property name="meta.attr.ENCODER.markup">Lavf58.76.100</property>
  <property name="meta.media.sample_aspect_num">1</property>
  <property name="meta.media.sample_aspect_den">1</property>
  <property name="meta.media.frame_rate_num">60</property>
  <property name="meta.media.frame_rate_den">1</property>
  <property name="meta.media.colorspace">601</property>
  <property name="meta.media.color_trc">2</property>
  <property name="meta.media.width">640</property>
  <property name="meta.media.height">360</property>
  <property name="meta.media.color_range">mpeg</property>
 </producer>
 <producer id="producer517" in="00:00:00.000" out="00:00:04.983">
  <property name="length">00:00:05.000</property>
  <property name="eof">pause</property>
  <property name="resource">/home/xiaoxiae/.cache/kdenlive/proxy/3ffa89eac74c6c68d5534bed995cc90d.png</property>
  <property name="ttl">25</property>
  <property name="aspect_ratio">1</property>
  <property name="progressive">1</property>
  <property name="seekable">1</property>
  <property name="meta.media.width">800</property>
  <property name="meta.media.height">450</property>
  <property name="mlt_service">qimage</property>
  <property name="kdenlive:clipname">7.png</property>
  <property name="kdenlive:duration">00:00:05.000</property>
  <property name="kdenlive:folderid">490</property>
  <property name="kdenlive:id">484</property>
  <property name="kdenlive:file_size">467035</property>
  <property name="kdenlive:file_hash">3ffa89eac74c6c68d5534bed995cc90d</property>
  <property name="kdenlive:proxy">/home/xiaoxiae/.cache/kdenlive/proxy/3ffa89eac74c6c68d5534bed995cc90d.png</property>
  <property name="kdenlive:originalurl">video/Theorem2/7.png</property>
  <property name="global_feed">1</property>
 </producer>
 <producer id="producer514" in="00:00:00.000" out="00:00:00.983">
  <property name="length">60</property>
  <property name="eof">pause</property>
  <property name="resource">/home/xiaoxiae/.cache/kdenlive/proxy/788f8131fb83c618f921b773bd1b553d.mkv</property>
  <property name="audio_index">-1</property>
  <property name="video_index">0</property>
  <property name="mute_on_pause">0</property>
  <property name="mlt_service">avformat-novalidate</property>
  <property name="seekable">1</property>
  <property name="aspect_ratio">1</property>
  <property name="kdenlive:clipname">8.mp4</property>
  <property name="kdenlive:folderid">490</property>
  <property name="kdenlive:id">485</property>
  <property name="kdenlive:file_size">135547</property>
  <property name="kdenlive:file_hash">788f8131fb83c618f921b773bd1b553d</property>
  <property name="kdenlive:proxy">/home/xiaoxiae/.cache/kdenlive/proxy/788f8131fb83c618f921b773bd1b553d.mkv</property>
  <property name="kdenlive:originalurl">video/Theorem2/8.mp4</property>
  <property name="global_feed">1</property>
  <property name="meta.media.nb_streams">1</property>
  <property name="meta.media.0.stream.type">video</property>
  <property name="meta.media.0.stream.frame_rate">60</property>
  <property name="meta.media.0.stream.sample_aspect_ratio">0</property>
  <property name="meta.media.0.codec.width">640</property>
  <property name="meta.media.0.codec.height">360</property>
  <property name="meta.media.0.codec.rotate">0</property>
  <property name="meta.media.0.codec.frame_rate">60</property>
  <property name="meta.media.0.codec.pix_fmt">yuv420p</property>
  <property name="meta.media.0.codec.sample_aspect_ratio">0</property>
  <property name="meta.media.0.codec.colorspace">601</property>
  <property name="meta.media.0.codec.name">h264</property>
  <property name="meta.media.0.codec.long_name">H.264 / AVC / MPEG-4 AVC / MPEG-4 part 10</property>
  <property name="meta.media.0.codec.bit_rate">0</property>
  <property name="meta.attr.0.stream.HANDLER_NAME.markup">VideoHandler</property>
  <property name="meta.attr.0.stream.VENDOR_ID.markup">[0][0][0][0]</property>
  <property name="meta.attr.0.stream.ENCODER.markup">Lavc58.134.100 libx264</property>
  <property name="meta.attr.0.stream.DURATION.markup">00:00:01.000000000</property>
  <property name="meta.attr.COMMENT.markup">Rendered with Manim Community v0.6.0</property>
  <property name="meta.attr.MAJOR_BRAND.markup">isom</property>
  <property name="meta.attr.MINOR_VERSION.markup">512</property>
  <property name="meta.attr.COMPATIBLE_BRANDS.markup">isomiso2avc1mp41</property>
  <property name="meta.attr.ENCODER.markup">Lavf58.76.100</property>
  <property name="meta.media.sample_aspect_num">1</property>
  <property name="meta.media.sample_aspect_den">1</property>
  <property name="meta.media.frame_rate_num">60</property>
  <property name="meta.media.frame_rate_den">1</property>
  <property name="meta.media.colorspace">601</property>
  <property name="meta.media.color_trc">2</property>
  <property name="meta.media.width">640</property>
  <property name="meta.media.height">360</property>
  <property name="meta.media.color_range">mpeg</property>
 </producer>
 <producer id="producer519" in="00:00:00.000" out="00:00:04.983">
  <property name="length">00:00:05.000</property>
  <property name="eof">pause</property>
  <property name="resource">/home/xiaoxiae/.cache/kdenlive/proxy/18ee70414940a70023320020f25fce75.png</property>
  <property name="ttl">25</property>
  <property name="aspect_ratio">1</property>
  <property name="progressive">1</property>
  <property name="seekable">1</property>
  <property name="meta.media.width">800</property>
  <property name="meta.media.height">450</property>
  <property name="mlt_service">qimage</property>
  <property name="kdenlive:clipname">8.png</property>
  <property name="kdenlive:duration">00:00:05.000</property>
  <property name="kdenlive:folderid">490</property>
  <property name="kdenlive:id">486</property>
  <property name="kdenlive:file_size">441021</property>
  <property name="kdenlive:file_hash">18ee70414940a70023320020f25fce75</property>
  <property name="kdenlive:proxy">/home/xiaoxiae/.cache/kdenlive/proxy/18ee70414940a70023320020f25fce75.png</property>
  <property name="kdenlive:originalurl">video/Theorem2/8.png</property>
  <property name="global_feed">1</property>
 </producer>
 <producer id="producer515" in="00:00:00.000" out="00:00:00.983">
  <property name="length">60</property>
  <property name="eof">pause</property>
  <property name="resource">/home/xiaoxiae/.cache/kdenlive/proxy/782479be785813e51b3969578652688b.mkv</property>
  <property name="audio_index">-1</property>
  <property name="video_index">0</property>
  <property name="mute_on_pause">0</property>
  <property name="mlt_service">avformat-novalidate</property>
  <property name="seekable">1</property>
  <property name="aspect_ratio">1</property>
  <property name="kdenlive:clipname">9.mp4</property>
  <property name="kdenlive:folderid">490</property>
  <property name="kdenlive:id">487</property>
  <property name="kdenlive:file_size">176937</property>
  <property name="kdenlive:file_hash">782479be785813e51b3969578652688b</property>
  <property name="kdenlive:proxy">/home/xiaoxiae/.cache/kdenlive/proxy/782479be785813e51b3969578652688b.mkv</property>
  <property name="kdenlive:originalurl">video/Theorem2/9.mp4</property>
  <property name="global_feed">1</property>
  <property name="meta.media.nb_streams">1</property>
  <property name="meta.media.0.stream.type">video</property>
  <property name="meta.media.0.stream.frame_rate">60</property>
  <property name="meta.media.0.stream.sample_aspect_ratio">0</property>
  <property name="meta.media.0.codec.width">640</property>
  <property name="meta.media.0.codec.height">360</property>
  <property name="meta.media.0.codec.rotate">0</property>
  <property name="meta.media.0.codec.frame_rate">60</property>
  <property name="meta.media.0.codec.pix_fmt">yuv420p</property>
  <property name="meta.media.0.codec.sample_aspect_ratio">0</property>
  <property name="meta.media.0.codec.colorspace">601</property>
  <property name="meta.media.0.codec.name">h264</property>
  <property name="meta.media.0.codec.long_name">H.264 / AVC / MPEG-4 AVC / MPEG-4 part 10</property>
  <property name="meta.media.0.codec.bit_rate">0</property>
  <property name="meta.attr.0.stream.HANDLER_NAME.markup">VideoHandler</property>
  <property name="meta.attr.0.stream.VENDOR_ID.markup">[0][0][0][0]</property>
  <property name="meta.attr.0.stream.ENCODER.markup">Lavc58.134.100 libx264</property>
  <property name="meta.attr.0.stream.DURATION.markup">00:00:01.000000000</property>
  <property name="meta.attr.COMMENT.markup">Rendered with Manim Community v0.6.0</property>
  <property name="meta.attr.MAJOR_BRAND.markup">isom</property>
  <property name="meta.attr.MINOR_VERSION.markup">512</property>
  <property name="meta.attr.COMPATIBLE_BRANDS.markup">isomiso2avc1mp41</property>
  <property name="meta.attr.ENCODER.markup">Lavf58.76.100</property>
  <property name="meta.media.sample_aspect_num">1</property>
  <property name="meta.media.sample_aspect_den">1</property>
  <property name="meta.media.frame_rate_num">60</property>
  <property name="meta.media.frame_rate_den">1</property>
  <property name="meta.media.colorspace">601</property>
  <property name="meta.media.color_trc">2</property>
  <property name="meta.media.width">640</property>
  <property name="meta.media.height">360</property>
  <property name="meta.media.color_range">mpeg</property>
 </producer>
 <producer id="producer520" in="00:00:00.000" out="00:00:04.983">
  <property name="length">00:00:05.000</property>
  <property name="eof">pause</property>
  <property name="resource">/home/xiaoxiae/.cache/kdenlive/proxy/63f14d323fac7fcfde40f99a3f174a9a.png</property>
  <property name="ttl">25</property>
  <property name="aspect_ratio">1</property>
  <property name="progressive">1</property>
  <property name="seekable">1</property>
  <property name="meta.media.width">800</property>
  <property name="meta.media.height">450</property>
  <property name="mlt_service">qimage</property>
  <property name="kdenlive:clipname">9.png</property>
  <property name="kdenlive:duration">00:00:05.000</property>
  <property name="kdenlive:folderid">490</property>
  <property name="kdenlive:id">488</property>
  <property name="kdenlive:file_size">298695</property>
  <property name="kdenlive:file_hash">63f14d323fac7fcfde40f99a3f174a9a</property>
  <property name="kdenlive:proxy">/home/xiaoxiae/.cache/kdenlive/proxy/63f14d323fac7fcfde40f99a3f174a9a.png</property>
  <property name="kdenlive:originalurl">video/Theorem2/9.png</property>
  <property name="global_feed">1</property>
 </producer>
 <producer id="producer0" in="00:00:00.000" out="00:00:10.583">
  <property name="length">636</property>
  <property name="eof">pause</property>
  <property name="resource">audio/c1.wav</property>
  <property name="meta.media.nb_streams">1</property>
  <property name="meta.media.0.stream.type">audio</property>
  <property name="meta.media.0.codec.sample_fmt">s16</property>
  <property name="meta.media.0.codec.sample_rate">48000</property>
  <property name="meta.media.0.codec.channels">2</property>
  <property name="meta.media.0.codec.name">pcm_s16le</property>
  <property name="meta.media.0.codec.long_name">PCM signed 16-bit little-endian</property>
  <property name="meta.media.0.codec.bit_rate">1536000</property>
  <property name="seekable">1</property>
  <property name="audio_index">0</property>
  <property name="video_index">-1</property>
  <property name="mute_on_pause">1</property>
  <property name="mlt_service">avformat</property>
  <property name="kdenlive:clipname"/>
  <property name="kdenlive:folderid">513</property>
  <property name="kdenlive:id">489</property>
  <property name="kdenlive:file_size">2034060</property>
  <property name="global_feed">1</property>
  <property name="kdenlive:file_hash">0511dccd2ff06977bf7a12b9786f00e1</property>
  <property name="kdenlive:audio_max">3</property>
 </producer>
 <producer id="producer1" in="00:00:00.000" out="00:00:16.950">
  <property name="length">1018</property>
  <property name="eof">pause</property>
  <property name="resource">audio/cis1.wav</property>
  <property name="meta.media.nb_streams">1</property>
  <property name="meta.media.0.stream.type">audio</property>
  <property name="meta.media.0.codec.sample_fmt">s16</property>
  <property name="meta.media.0.codec.sample_rate">48000</property>
  <property name="meta.media.0.codec.channels">2</property>
  <property name="meta.media.0.codec.name">pcm_s16le</property>
  <property name="meta.media.0.codec.long_name">PCM signed 16-bit little-endian</property>
  <property name="meta.media.0.codec.bit_rate">1536000</property>
  <property name="seekable">1</property>
  <property name="audio_index">0</property>
  <property name="video_index">-1</property>
  <property name="mute_on_pause">1</property>
  <property name="mlt_service">avformat</property>
  <property name="kdenlive:clipname"/>
  <property name="kdenlive:folderid">513</property>
  <property name="kdenlive:id">491</property>
  <property name="kdenlive:file_size">3258412</property>
  <property name="global_feed">1</property>
  <property name="kdenlive:file_hash">2eadd4ddfc44a48d18bf837c2bb678c5</property>
  <property name="kdenlive:audio_max">3</property>
 </producer>
 <producer id="producer2" in="00:00:00.000" out="00:00:13.333">
  <property name="length">801</property>
  <property name="eof">pause</property>
  <property name="resource">audio/cis2.wav</property>
  <property name="meta.media.nb_streams">1</property>
  <property name="meta.media.0.stream.type">audio</property>
  <property name="meta.media.0.codec.sample_fmt">s16</property>
  <property name="meta.media.0.codec.sample_rate">48000</property>
  <property name="meta.media.0.codec.channels">2</property>
  <property name="meta.media.0.codec.name">pcm_s16le</property>
  <property name="meta.media.0.codec.long_name">PCM signed 16-bit little-endian</property>
  <property name="meta.media.0.codec.bit_rate">1536000</property>
  <property name="seekable">1</property>
  <property name="audio_index">0</property>
  <property name="video_index">-1</property>
  <property name="mute_on_pause">1</property>
  <property name="mlt_service">avformat</property>
  <property name="kdenlive:clipname"/>
  <property name="kdenlive:folderid">513</property>
  <property name="kdenlive:id">492</property>
  <property name="kdenlive:file_size">2562252</property>
  <property name="global_feed">1</property>
  <property name="kdenlive:file_hash">3bb4d13910ad42d658c0b00cfc6f52e4</property>
  <property name="kdenlive:audio_max">1</property>
 </producer>
 <producer id="producer3" in="00:00:00.000" out="00:00:10.467">
  <property name="length">629</property>
  <property name="eof">pause</property>
  <property name="resource">audio/cis3.wav</property>
  <property name="meta.media.nb_streams">1</property>
  <property name="meta.media.0.stream.type">audio</property>
  <property name="meta.media.0.codec.sample_fmt">s16</property>
  <property name="meta.media.0.codec.sample_rate">48000</property>
  <property name="meta.media.0.codec.channels">2</property>
  <property name="meta.media.0.codec.name">pcm_s16le</property>
  <property name="meta.media.0.codec.long_name">PCM signed 16-bit little-endian</property>
  <property name="meta.media.0.codec.bit_rate">1536000</property>
  <property name="seekable">1</property>
  <property name="audio_index">0</property>
  <property name="video_index">-1</property>
  <property name="mute_on_pause">1</property>
  <property name="mlt_service">avformat</property>
  <property name="kdenlive:clipname"/>
  <property name="kdenlive:folderid">513</property>
  <property name="kdenlive:id">493</property>
  <property name="kdenlive:file_size">2011820</property>
  <property name="global_feed">1</property>
  <property name="kdenlive:file_hash">6884ae949f4754d711cc368cd8e46c04</property>
  <property name="kdenlive:audio_max">4</property>
 </producer>
 <producer id="producer4" in="00:00:00.000" out="00:00:11.450">
  <property name="length">688</property>
  <property name="eof">pause</property>
  <property name="resource">audio/cn1.wav</property>
  <property name="meta.media.nb_streams">1</property>
  <property name="meta.media.0.stream.type">audio</property>
  <property name="meta.media.0.codec.sample_fmt">s16</property>
  <property name="meta.media.0.codec.sample_rate">48000</property>
  <property name="meta.media.0.codec.channels">2</property>
  <property name="meta.media.0.codec.name">pcm_s16le</property>
  <property name="meta.media.0.codec.long_name">PCM signed 16-bit little-endian</property>
  <property name="meta.media.0.codec.bit_rate">1536000</property>
  <property name="seekable">1</property>
  <property name="audio_index">0</property>
  <property name="video_index">-1</property>
  <property name="mute_on_pause">1</property>
  <property name="mlt_service">avformat</property>
  <property name="kdenlive:clipname"/>
  <property name="kdenlive:folderid">513</property>
  <property name="kdenlive:id">494</property>
  <property name="kdenlive:file_size">2202028</property>
  <property name="global_feed">1</property>
  <property name="kdenlive:file_hash">1138057a1797f5cdb517224b654469ea</property>
  <property name="kdenlive:audio_max">3</property>
 </producer>
 <producer id="producer5" in="00:00:00.000" out="00:00:12.217">
  <property name="length">734</property>
  <property name="eof">pause</property>
  <property name="resource">audio/i1.wav</property>
  <property name="meta.media.nb_streams">1</property>
  <property name="meta.media.0.stream.type">audio</property>
  <property name="meta.media.0.codec.sample_fmt">s16</property>
  <property name="meta.media.0.codec.sample_rate">48000</property>
  <property name="meta.media.0.codec.channels">2</property>
  <property name="meta.media.0.codec.name">pcm_s16le</property>
  <property name="meta.media.0.codec.long_name">PCM signed 16-bit little-endian</property>
  <property name="meta.media.0.codec.bit_rate">1536000</property>
  <property name="seekable">1</property>
  <property name="audio_index">0</property>
  <property name="video_index">-1</property>
  <property name="mute_on_pause">1</property>
  <property name="mlt_service">avformat</property>
  <property name="kdenlive:clipname"/>
  <property name="kdenlive:folderid">513</property>
  <property name="kdenlive:id">495</property>
  <property name="kdenlive:file_size">2347756</property>
  <property name="global_feed">1</property>
  <property name="kdenlive:file_hash">65f0a3505af214a37757135d654ebcb2</property>
  <property name="kdenlive:audio_max">2</property>
 </producer>
 <producer id="producer6" in="00:00:00.000" out="00:00:19.083">
  <property name="length">1146</property>
  <property name="eof">pause</property>
  <property name="resource">audio/i2.wav</property>
  <property name="meta.media.nb_streams">1</property>
  <property name="meta.media.0.stream.type">audio</property>
  <property name="meta.media.0.codec.sample_fmt">s16</property>
  <property name="meta.media.0.codec.sample_rate">48000</property>
  <property name="meta.media.0.codec.channels">2</property>
  <property name="meta.media.0.codec.name">pcm_s16le</property>
  <property name="meta.media.0.codec.long_name">PCM signed 16-bit little-endian</property>
  <property name="meta.media.0.codec.bit_rate">1536000</property>
  <property name="seekable">1</property>
  <property name="audio_index">0</property>
  <property name="video_index">-1</property>
  <property name="mute_on_pause">1</property>
  <property name="mlt_service">avformat</property>
  <property name="kdenlive:clipname"/>
  <property name="kdenlive:folderid">513</property>
  <property name="kdenlive:id">496</property>
  <property name="kdenlive:file_size">3667212</property>
  <property name="global_feed">1</property>
  <property name="kdenlive:file_hash">a5dc8a285712b8a892c020f3ce68ac45</property>
  <property name="kdenlive:audio_max">2</property>
 </producer>
 <producer id="producer7" in="00:00:00.000" out="00:00:12.833">
  <property name="length">771</property>
  <property name="eof">pause</property>
  <property name="resource">audio/i3.wav</property>
  <property name="meta.media.nb_streams">1</property>
  <property name="meta.media.0.stream.type">audio</property>
  <property name="meta.media.0.codec.sample_fmt">s16</property>
  <property name="meta.media.0.codec.sample_rate">48000</property>
  <property name="meta.media.0.codec.channels">2</property>
  <property name="meta.media.0.codec.name">pcm_s16le</property>
  <property name="meta.media.0.codec.long_name">PCM signed 16-bit little-endian</property>
  <property name="meta.media.0.codec.bit_rate">1536000</property>
  <property name="seekable">1</property>
  <property name="audio_index">0</property>
  <property name="video_index">-1</property>
  <property name="mute_on_pause">1</property>
  <property name="mlt_service">avformat</property>
  <property name="kdenlive:clipname"/>
  <property name="kdenlive:folderid">513</property>
  <property name="kdenlive:id">497</property>
  <property name="kdenlive:file_size">2467148</property>
  <property name="global_feed">1</property>
  <property name="kdenlive:file_hash">80762d19c590fcb2bda0eaf6b4bbfbd9</property>
  <property name="kdenlive:audio_max">3</property>
 </producer>
 <producer id="producer8" in="00:00:00.000" out="00:00:12.583">
  <property name="length">756</property>
  <property name="eof">pause</property>
  <property name="resource">audio/is1.wav</property>
  <property name="meta.media.nb_streams">1</property>
  <property name="meta.media.0.stream.type">audio</property>
  <property name="meta.media.0.codec.sample_fmt">s16</property>
  <property name="meta.media.0.codec.sample_rate">48000</property>
  <property name="meta.media.0.codec.channels">2</property>
  <property name="meta.media.0.codec.name">pcm_s16le</property>
  <property name="meta.media.0.codec.long_name">PCM signed 16-bit little-endian</property>
  <property name="meta.media.0.codec.bit_rate">1536000</property>
  <property name="seekable">1</property>
  <property name="audio_index">0</property>
  <property name="video_index">-1</property>
  <property name="mute_on_pause">1</property>
  <property name="mlt_service">avformat</property>
  <property name="kdenlive:clipname"/>
  <property name="kdenlive:folderid">513</property>
  <property name="kdenlive:id">498</property>
  <property name="kdenlive:file_size">2418572</property>
  <property name="global_feed">1</property>
  <property name="kdenlive:file_hash">a59fbd40e5304222cfa848c576737187</property>
  <property name="kdenlive:audio_max">2</property>
 </producer>
 <producer id="producer9" in="00:00:00.000" out="00:00:08.200">
  <property name="length">493</property>
  <property name="eof">pause</property>
  <property name="resource">audio/is2.wav</property>
  <property name="meta.media.nb_streams">1</property>
  <property name="meta.media.0.stream.type">audio</property>
  <property name="meta.media.0.codec.sample_fmt">s16</property>
  <property name="meta.media.0.codec.sample_rate">48000</property>
  <property name="meta.media.0.codec.channels">2</property>
  <property name="meta.media.0.codec.name">pcm_s16le</property>
  <property name="meta.media.0.codec.long_name">PCM signed 16-bit little-endian</property>
  <property name="meta.media.0.codec.bit_rate">1536000</property>
  <property name="seekable">1</property>
  <property name="audio_index">0</property>
  <property name="video_index">-1</property>
  <property name="mute_on_pause">1</property>
  <property name="mlt_service">avformat</property>
  <property name="kdenlive:clipname"/>
  <property name="kdenlive:folderid">513</property>
  <property name="kdenlive:id">499</property>
  <property name="kdenlive:file_size">1578732</property>
  <property name="global_feed">1</property>
  <property name="kdenlive:file_hash">9f01814d90188f5a4595fa80cac45a9e</property>
  <property name="kdenlive:audio_max">2</property>
 </producer>
 <producer id="producer10" in="00:00:00.000" out="00:00:17.700">
  <property name="length">1063</property>
  <property name="eof">pause</property>
  <property name="resource">audio/lone1.wav</property>
  <property name="meta.media.nb_streams">1</property>
  <property name="meta.media.0.stream.type">audio</property>
  <property name="meta.media.0.codec.sample_fmt">s16</property>
  <property name="meta.media.0.codec.sample_rate">48000</property>
  <property name="meta.media.0.codec.channels">2</property>
  <property name="meta.media.0.codec.name">pcm_s16le</property>
  <property name="meta.media.0.codec.long_name">PCM signed 16-bit little-endian</property>
  <property name="meta.media.0.codec.bit_rate">1536000</property>
  <property name="seekable">1</property>
  <property name="audio_index">0</property>
  <property name="video_index">-1</property>
  <property name="mute_on_pause">1</property>
  <property name="mlt_service">avformat</property>
  <property name="kdenlive:clipname"/>
  <property name="kdenlive:folderid">513</property>
  <property name="kdenlive:id">500</property>
  <property name="kdenlive:file_size">3402092</property>
  <property name="global_feed">1</property>
  <property name="kdenlive:file_hash">f803973308927965d0ab3dc73abdd5cf</property>
  <property name="kdenlive:audio_max">3</property>
 </producer>
 <producer id="producer11" in="00:00:00.000" out="00:00:26.833">
  <property name="length">1611</property>
  <property name="eof">pause</property>
  <property name="resource">audio/lone2.wav</property>
  <property name="meta.media.nb_streams">1</property>
  <property name="meta.media.0.stream.type">audio</property>
  <property name="meta.media.0.codec.sample_fmt">s16</property>
  <property name="meta.media.0.codec.sample_rate">48000</property>
  <property name="meta.media.0.codec.channels">2</property>
  <property name="meta.media.0.codec.name">pcm_s16le</property>
  <property name="meta.media.0.codec.long_name">PCM signed 16-bit little-endian</property>
  <property name="meta.media.0.codec.bit_rate">1536000</property>
  <property name="seekable">1</property>
  <property name="audio_index">0</property>
  <property name="video_index">-1</property>
  <property name="mute_on_pause">1</property>
  <property name="mlt_service">avformat</property>
  <property name="kdenlive:clipname"/>
  <property name="kdenlive:folderid">513</property>
  <property name="kdenlive:id">501</property>
  <property name="kdenlive:file_size">5154636</property>
  <property name="global_feed">1</property>
  <property name="kdenlive:file_hash">1fa4e92e3fb2215f569fd575767b12f4</property>
  <property name="kdenlive:audio_max">4</property>
 </producer>
 <producer id="producer12" in="00:00:00.000" out="00:00:11.450">
  <property name="length">688</property>
  <property name="eof">pause</property>
  <property name="resource">audio/lone3.wav</property>
  <property name="meta.media.nb_streams">1</property>
  <property name="meta.media.0.stream.type">audio</property>
  <property name="meta.media.0.codec.sample_fmt">s16</property>
  <property name="meta.media.0.codec.sample_rate">48000</property>
  <property name="meta.media.0.codec.channels">2</property>
  <property name="meta.media.0.codec.name">pcm_s16le</property>
  <property name="meta.media.0.codec.long_name">PCM signed 16-bit little-endian</property>
  <property name="meta.media.0.codec.bit_rate">1536000</property>
  <property name="seekable">1</property>
  <property name="audio_index">0</property>
  <property name="video_index">-1</property>
  <property name="mute_on_pause">1</property>
  <property name="mlt_service">avformat</property>
  <property name="kdenlive:clipname"/>
  <property name="kdenlive:folderid">513</property>
  <property name="kdenlive:id">502</property>
  <property name="kdenlive:file_size">2202028</property>
  <property name="global_feed">1</property>
  <property name="kdenlive:file_hash">aea2c05f7cf5d9f1b7fecf1e7876c406</property>
  <property name="kdenlive:audio_max">5</property>
 </producer>
 <producer id="producer13" in="00:00:00.000" out="00:00:14.083">
  <property name="length">846</property>
  <property name="eof">pause</property>
  <property name="resource">audio/lone4.wav</property>
  <property name="meta.media.nb_streams">1</property>
  <property name="meta.media.0.stream.type">audio</property>
  <property name="meta.media.0.codec.sample_fmt">s16</property>
  <property name="meta.media.0.codec.sample_rate">48000</property>
  <property name="meta.media.0.codec.channels">2</property>
  <property name="meta.media.0.codec.name">pcm_s16le</property>
  <property name="meta.media.0.codec.long_name">PCM signed 16-bit little-endian</property>
  <property name="meta.media.0.codec.bit_rate">1536000</property>
  <property name="seekable">1</property>
  <property name="audio_index">0</property>
  <property name="video_index">-1</property>
  <property name="mute_on_pause">1</property>
  <property name="mlt_service">avformat</property>
  <property name="kdenlive:clipname"/>
  <property name="kdenlive:folderid">513</property>
  <property name="kdenlive:id">503</property>
  <property name="kdenlive:file_size">2705932</property>
  <property name="global_feed">1</property>
  <property name="kdenlive:file_hash">6977cdde9972a1b396c42a4ec2d11a27</property>
  <property name="kdenlive:audio_max">3</property>
 </producer>
 <producer id="producer14" in="00:00:00.000" out="00:00:26.583">
  <property name="length">1596</property>
  <property name="eof">pause</property>
  <property name="resource">audio/lone5.wav</property>
  <property name="meta.media.nb_streams">1</property>
  <property name="meta.media.0.stream.type">audio</property>
  <property name="meta.media.0.codec.sample_fmt">s16</property>
  <property name="meta.media.0.codec.sample_rate">48000</property>
  <property name="meta.media.0.codec.channels">2</property>
  <property name="meta.media.0.codec.name">pcm_s16le</property>
  <property name="meta.media.0.codec.long_name">PCM signed 16-bit little-endian</property>
  <property name="meta.media.0.codec.bit_rate">1536000</property>
  <property name="seekable">1</property>
  <property name="audio_index">0</property>
  <property name="video_index">-1</property>
  <property name="mute_on_pause">1</property>
  <property name="mlt_service">avformat</property>
  <property name="kdenlive:clipname"/>
  <property name="kdenlive:folderid">513</property>
  <property name="kdenlive:id">504</property>
  <property name="kdenlive:file_size">5106060</property>
  <property name="global_feed">1</property>
  <property name="kdenlive:file_hash">507fb1c5a5699357ec63591ed6e5bdd3</property>
  <property name="kdenlive:audio_max">3</property>
 </producer>
 <producer id="producer15" in="00:00:00.000" out="00:00:16.333">
  <property name="length">981</property>
  <property name="eof">pause</property>
  <property name="resource">audio/ltwo1.wav</property>
  <property name="meta.media.nb_streams">1</property>
  <property name="meta.media.0.stream.type">audio</property>
  <property name="meta.media.0.codec.sample_fmt">s16</property>
  <property name="meta.media.0.codec.sample_rate">48000</property>
  <property name="meta.media.0.codec.channels">2</property>
  <property name="meta.media.0.codec.name">pcm_s16le</property>
  <property name="meta.media.0.codec.long_name">PCM signed 16-bit little-endian</property>
  <property name="meta.media.0.codec.bit_rate">1536000</property>
  <property name="seekable">1</property>
  <property name="audio_index">0</property>
  <property name="video_index">-1</property>
  <property name="mute_on_pause">1</property>
  <property name="mlt_service">avformat</property>
  <property name="kdenlive:clipname"/>
  <property name="kdenlive:folderid">513</property>
  <property name="kdenlive:id">505</property>
  <property name="kdenlive:file_size">3139020</property>
  <property name="global_feed">1</property>
  <property name="kdenlive:file_hash">5f9c05fee5c55d1e7fe39388b1c2f8e3</property>
  <property name="kdenlive:audio_max">4</property>
 </producer>
 <producer id="producer16" in="00:00:00.000" out="00:00:10.217">
  <property name="length">614</property>
  <property name="eof">pause</property>
  <property name="resource">audio/ltwo2.wav</property>
  <property name="meta.media.nb_streams">1</property>
  <property name="meta.media.0.stream.type">audio</property>
  <property name="meta.media.0.codec.sample_fmt">s16</property>
  <property name="meta.media.0.codec.sample_rate">48000</property>
  <property name="meta.media.0.codec.channels">2</property>
  <property name="meta.media.0.codec.name">pcm_s16le</property>
  <property name="meta.media.0.codec.long_name">PCM signed 16-bit little-endian</property>
  <property name="meta.media.0.codec.bit_rate">1536000</property>
  <property name="seekable">1</property>
  <property name="audio_index">0</property>
  <property name="video_index">-1</property>
  <property name="mute_on_pause">1</property>
  <property name="mlt_service">avformat</property>
  <property name="kdenlive:clipname"/>
  <property name="kdenlive:folderid">513</property>
  <property name="kdenlive:id">506</property>
  <property name="kdenlive:file_size">1963244</property>
  <property name="global_feed">1</property>
  <property name="kdenlive:file_hash">1e9adfe79268ba9f83871b70c2474b86</property>
  <property name="kdenlive:audio_max">6</property>
 </producer>
 <producer id="producer17" in="00:00:00.000" out="00:00:18.467">
  <property name="length">1109</property>
  <property name="eof">pause</property>
  <property name="resource">audio/ltwo3.wav</property>
  <property name="meta.media.nb_streams">1</property>
  <property name="meta.media.0.stream.type">audio</property>
  <property name="meta.media.0.codec.sample_fmt">s16</property>
  <property name="meta.media.0.codec.sample_rate">48000</property>
  <property name="meta.media.0.codec.channels">2</property>
  <property name="meta.media.0.codec.name">pcm_s16le</property>
  <property name="meta.media.0.codec.long_name">PCM signed 16-bit little-endian</property>
  <property name="meta.media.0.codec.bit_rate">1536000</property>
  <property name="seekable">1</property>
  <property name="audio_index">0</property>
  <property name="video_index">-1</property>
  <property name="mute_on_pause">1</property>
  <property name="mlt_service">avformat</property>
  <property name="kdenlive:clipname"/>
  <property name="kdenlive:folderid">513</property>
  <property name="kdenlive:id">507</property>
  <property name="kdenlive:file_size">3547820</property>
  <property name="global_feed">1</property>
  <property name="kdenlive:file_hash">b5d22848cd8d43849c5d347e727c2ca5</property>
  <property name="kdenlive:audio_max">4</property>
 </producer>
 <producer id="producer18" in="00:00:00.000" out="00:00:11.583">
  <property name="length">696</property>
  <property name="eof">pause</property>
  <property name="resource">audio/ltwo4.wav</property>
  <property name="meta.media.nb_streams">1</property>
  <property name="meta.media.0.stream.type">audio</property>
  <property name="meta.media.0.codec.sample_fmt">s16</property>
  <property name="meta.media.0.codec.sample_rate">48000</property>
  <property name="meta.media.0.codec.channels">2</property>
  <property name="meta.media.0.codec.name">pcm_s16le</property>
  <property name="meta.media.0.codec.long_name">PCM signed 16-bit little-endian</property>
  <property name="meta.media.0.codec.bit_rate">1536000</property>
  <property name="seekable">1</property>
  <property name="audio_index">0</property>
  <property name="video_index">-1</property>
  <property name="mute_on_pause">1</property>
  <property name="mlt_service">avformat</property>
  <property name="kdenlive:clipname"/>
  <property name="kdenlive:folderid">513</property>
  <property name="kdenlive:id">508</property>
  <property name="kdenlive:file_size">2226316</property>
  <property name="global_feed">1</property>
  <property name="kdenlive:file_hash">6f11fd3d28a0caf5708f3b2b511fc49c</property>
  <property name="kdenlive:audio_max">6</property>
 </producer>
 <producer id="producer19" in="00:00:00.000" out="00:00:21.083">
  <property name="length">1266</property>
  <property name="eof">pause</property>
  <property name="resource">audio/ltwo5.wav</property>
  <property name="meta.media.nb_streams">1</property>
  <property name="meta.media.0.stream.type">audio</property>
  <property name="meta.media.0.codec.sample_fmt">s16</property>
  <property name="meta.media.0.codec.sample_rate">48000</property>
  <property name="meta.media.0.codec.channels">2</property>
  <property name="meta.media.0.codec.name">pcm_s16le</property>
  <property name="meta.media.0.codec.long_name">PCM signed 16-bit little-endian</property>
  <property name="meta.media.0.codec.bit_rate">1536000</property>
  <property name="seekable">1</property>
  <property name="audio_index">0</property>
  <property name="video_index">-1</property>
  <property name="mute_on_pause">1</property>
  <property name="mlt_service">avformat</property>
  <property name="kdenlive:clipname"/>
  <property name="kdenlive:folderid">513</property>
  <property name="kdenlive:id">509</property>
  <property name="kdenlive:file_size">4051724</property>
  <property name="global_feed">1</property>
  <property name="kdenlive:file_hash">c40c546abb91d48c529757f0d3e99ebf</property>
  <property name="kdenlive:audio_max">5</property>
 </producer>
 <producer id="producer20" in="00:00:00.000" out="00:00:15.717">
  <property name="length">944</property>
  <property name="eof">pause</property>
  <property name="resource">audio/ltwo6.wav</property>
  <property name="meta.media.nb_streams">1</property>
  <property name="meta.media.0.stream.type">audio</property>
  <property name="meta.media.0.codec.sample_fmt">s16</property>
  <property name="meta.media.0.codec.sample_rate">48000</property>
  <property name="meta.media.0.codec.channels">2</property>
  <property name="meta.media.0.codec.name">pcm_s16le</property>
  <property name="meta.media.0.codec.long_name">PCM signed 16-bit little-endian</property>
  <property name="meta.media.0.codec.bit_rate">1536000</property>
  <property name="seekable">1</property>
  <property name="audio_index">0</property>
  <property name="video_index">-1</property>
  <property name="mute_on_pause">1</property>
  <property name="mlt_service">avformat</property>
  <property name="kdenlive:clipname"/>
  <property name="kdenlive:folderid">513</property>
  <property name="kdenlive:id">510</property>
  <property name="kdenlive:file_size">3019628</property>
  <property name="global_feed">1</property>
  <property name="kdenlive:file_hash">a21d03b4675e19cea456f03c965eabc7</property>
  <property name="kdenlive:audio_max">6</property>
 </producer>
 <producer id="producer21" in="00:00:00.000" out="00:00:09.083">
  <property name="length">546</property>
  <property name="eof">pause</property>
  <property name="resource">audio/o1.wav</property>
  <property name="meta.media.nb_streams">1</property>
  <property name="meta.media.0.stream.type">audio</property>
  <property name="meta.media.0.codec.sample_fmt">s16</property>
  <property name="meta.media.0.codec.sample_rate">48000</property>
  <property name="meta.media.0.codec.channels">2</property>
  <property name="meta.media.0.codec.name">pcm_s16le</property>
  <property name="meta.media.0.codec.long_name">PCM signed 16-bit little-endian</property>
  <property name="meta.media.0.codec.bit_rate">1536000</property>
  <property name="seekable">1</property>
  <property name="audio_index">0</property>
  <property name="video_index">-1</property>
  <property name="mute_on_pause">1</property>
  <property name="mlt_service">avformat</property>
  <property name="kdenlive:clipname"/>
  <property name="kdenlive:folderid">513</property>
  <property name="kdenlive:id">511</property>
  <property name="kdenlive:file_size">1746700</property>
  <property name="global_feed">1</property>
  <property name="kdenlive:file_hash">dd37c609ff560d6973a2ac3e0dbfb34c</property>
  <property name="kdenlive:audio_max">4</property>
 </producer>
 <producer id="producer22" in="00:00:00.000" out="00:00:20.217">
  <property name="length">1214</property>
  <property name="eof">pause</property>
  <property name="resource">audio/o2.wav</property>
  <property name="meta.media.nb_streams">1</property>
  <property name="meta.media.0.stream.type">audio</property>
  <property name="meta.media.0.codec.sample_fmt">s16</property>
  <property name="meta.media.0.codec.sample_rate">48000</property>
  <property name="meta.media.0.codec.channels">2</property>
  <property name="meta.media.0.codec.name">pcm_s16le</property>
  <property name="meta.media.0.codec.long_name">PCM signed 16-bit little-endian</property>
  <property name="meta.media.0.codec.bit_rate">1536000</property>
  <property name="seekable">1</property>
  <property name="audio_index">0</property>
  <property name="video_index">-1</property>
  <property name="mute_on_pause">1</property>
  <property name="mlt_service">avformat</property>
  <property name="kdenlive:clipname"/>
  <property name="kdenlive:folderid">513</property>
  <property name="kdenlive:id">512</property>
  <property name="kdenlive:file_size">3883756</property>
  <property name="global_feed">1</property>
  <property name="kdenlive:file_hash">3b04cb02042351ba78ecde62df2f39c7</property>
  <property name="kdenlive:audio_max">4</property>
 </producer>
 <producer id="producer23" in="00:00:00.000" out="00:00:13.700">
  <property name="length">823</property>
  <property name="eof">pause</property>
  <property name="resource">audio/o3.wav</property>
  <property name="meta.media.nb_streams">1</property>
  <property name="meta.media.0.stream.type">audio</property>
  <property name="meta.media.0.codec.sample_fmt">s16</property>
  <property name="meta.media.0.codec.sample_rate">48000</property>
  <property name="meta.media.0.codec.channels">2</property>
  <property name="meta.media.0.codec.name">pcm_s16le</property>
  <property name="meta.media.0.codec.long_name">PCM signed 16-bit little-endian</property>
  <property name="meta.media.0.codec.bit_rate">1536000</property>
  <property name="seekable">1</property>
  <property name="audio_index">0</property>
  <property name="video_index">-1</property>
  <property name="mute_on_pause">1</property>
  <property name="mlt_service">avformat</property>
  <property name="kdenlive:clipname"/>
  <property name="kdenlive:folderid">513</property>
  <property name="kdenlive:id">514</property>
  <property name="kdenlive:file_size">2635116</property>
  <property name="global_feed">1</property>
  <property name="kdenlive:file_hash">29b15defa5f3434aa84214db6259437f</property>
  <property name="kdenlive:audio_max">3</property>
 </producer>
 <producer id="producer24" in="00:00:00.000" out="00:00:16.467">
  <property name="length">989</property>
  <property name="eof">pause</property>
  <property name="resource">audio/o4.wav</property>
  <property name="meta.media.nb_streams">1</property>
  <property name="meta.media.0.stream.type">audio</property>
  <property name="meta.media.0.codec.sample_fmt">s16</property>
  <property name="meta.media.0.codec.sample_rate">48000</property>
  <property name="meta.media.0.codec.channels">2</property>
  <property name="meta.media.0.codec.name">pcm_s16le</property>
  <property name="meta.media.0.codec.long_name">PCM signed 16-bit little-endian</property>
  <property name="meta.media.0.codec.bit_rate">1536000</property>
  <property name="seekable">1</property>
  <property name="audio_index">0</property>
  <property name="video_index">-1</property>
  <property name="mute_on_pause">1</property>
  <property name="mlt_service">avformat</property>
  <property name="kdenlive:clipname"/>
  <property name="kdenlive:folderid">513</property>
  <property name="kdenlive:id">515</property>
  <property name="kdenlive:file_size">3163308</property>
  <property name="global_feed">1</property>
  <property name="kdenlive:file_hash">b3720c5f99cfe94cafaff299d29965f3</property>
  <property name="kdenlive:audio_max">4</property>
 </producer>
 <producer id="producer25" in="00:00:00.000" out="00:00:13.333">
  <property name="length">801</property>
  <property name="eof">pause</property>
  <property name="resource">audio/o5.wav</property>
  <property name="meta.media.nb_streams">1</property>
  <property name="meta.media.0.stream.type">audio</property>
  <property name="meta.media.0.codec.sample_fmt">s16</property>
  <property name="meta.media.0.codec.sample_rate">48000</property>
  <property name="meta.media.0.codec.channels">2</property>
  <property name="meta.media.0.codec.name">pcm_s16le</property>
  <property name="meta.media.0.codec.long_name">PCM signed 16-bit little-endian</property>
  <property name="meta.media.0.codec.bit_rate">1536000</property>
  <property name="seekable">1</property>
  <property name="audio_index">0</property>
  <property name="video_index">-1</property>
  <property name="mute_on_pause">1</property>
  <property name="mlt_service">avformat</property>
  <property name="kdenlive:clipname"/>
  <property name="kdenlive:folderid">513</property>
  <property name="kdenlive:id">516</property>
  <property name="kdenlive:file_size">2562252</property>
  <property name="global_feed">1</property>
  <property name="kdenlive:file_hash">ac462b36a091cf210d8fcd2289699757</property>
  <property name="kdenlive:audio_max">4</property>
 </producer>
 <producer id="producer26" in="00:00:00.000" out="00:00:12.967">
  <property name="length">779</property>
  <property name="eof">pause</property>
  <property name="resource">audio/p1.wav</property>
  <property name="meta.media.nb_streams">1</property>
  <property name="meta.media.0.stream.type">audio</property>
  <property name="meta.media.0.codec.sample_fmt">s16</property>
  <property name="meta.media.0.codec.sample_rate">48000</property>
  <property name="meta.media.0.codec.channels">2</property>
  <property name="meta.media.0.codec.name">pcm_s16le</property>
  <property name="meta.media.0.codec.long_name">PCM signed 16-bit little-endian</property>
  <property name="meta.media.0.codec.bit_rate">1536000</property>
  <property name="seekable">1</property>
  <property name="audio_index">0</property>
  <property name="video_index">-1</property>
  <property name="mute_on_pause">1</property>
  <property name="mlt_service">avformat</property>
  <property name="kdenlive:clipname"/>
  <property name="kdenlive:folderid">513</property>
  <property name="kdenlive:id">517</property>
  <property name="kdenlive:file_size">2491436</property>
  <property name="global_feed">1</property>
  <property name="kdenlive:file_hash">190b29c9de8ecf4b66a280ea3dd3bb69</property>
  <property name="kdenlive:audio_max">5</property>
 </producer>
 <producer id="producer27" in="00:00:00.000" out="00:00:07.833">
  <property name="length">471</property>
  <property name="eof">pause</property>
  <property name="resource">audio/tone1.wav</property>
  <property name="meta.media.nb_streams">1</property>
  <property name="meta.media.0.stream.type">audio</property>
  <property name="meta.media.0.codec.sample_fmt">s16</property>
  <property name="meta.media.0.codec.sample_rate">48000</property>
  <property name="meta.media.0.codec.channels">2</property>
  <property name="meta.media.0.codec.name">pcm_s16le</property>
  <property name="meta.media.0.codec.long_name">PCM signed 16-bit little-endian</property>
  <property name="meta.media.0.codec.bit_rate">1536000</property>
  <property name="seekable">1</property>
  <property name="audio_index">0</property>
  <property name="video_index">-1</property>
  <property name="mute_on_pause">1</property>
  <property name="mlt_service">avformat</property>
  <property name="kdenlive:clipname"/>
  <property name="kdenlive:folderid">513</property>
  <property name="kdenlive:id">518</property>
  <property name="kdenlive:file_size">1507916</property>
  <property name="kdenlive:file_hash">828269ab375b24d3260f23a1127c2236</property>
  <property name="kdenlive:audio_max">5</property>
 </producer>
 <producer id="producer28" in="00:00:00.000" out="00:00:11.583">
  <property name="length">696</property>
  <property name="eof">pause</property>
  <property name="resource">audio/tone10.wav</property>
  <property name="meta.media.nb_streams">1</property>
  <property name="meta.media.0.stream.type">audio</property>
  <property name="meta.media.0.codec.sample_fmt">s16</property>
  <property name="meta.media.0.codec.sample_rate">48000</property>
  <property name="meta.media.0.codec.channels">2</property>
  <property name="meta.media.0.codec.name">pcm_s16le</property>
  <property name="meta.media.0.codec.long_name">PCM signed 16-bit little-endian</property>
  <property name="meta.media.0.codec.bit_rate">1536000</property>
  <property name="seekable">1</property>
  <property name="audio_index">0</property>
  <property name="video_index">-1</property>
  <property name="mute_on_pause">1</property>
  <property name="mlt_service">avformat</property>
  <property name="kdenlive:clipname"/>
  <property name="kdenlive:folderid">513</property>
  <property name="kdenlive:id">519</property>
  <property name="kdenlive:file_size">2226316</property>
  <property name="kdenlive:file_hash">a97a2d7e47ff816daf92b3801a50bb4e</property>
  <property name="kdenlive:audio_max">8</property>
 </producer>
 <producer id="producer29" in="00:00:00.000" out="00:00:10.950">
  <property name="length">658</property>
  <property name="eof">pause</property>
  <property name="resource">audio/tone11.wav</property>
  <property name="meta.media.nb_streams">1</property>
  <property name="meta.media.0.stream.type">audio</property>
  <property name="meta.media.0.codec.sample_fmt">s16</property>
  <property name="meta.media.0.codec.sample_rate">48000</property>
  <property name="meta.media.0.codec.channels">2</property>
  <property name="meta.media.0.codec.name">pcm_s16le</property>
  <property name="meta.media.0.codec.long_name">PCM signed 16-bit little-endian</property>
  <property name="meta.media.0.codec.bit_rate">1536000</property>
  <property name="seekable">1</property>
  <property name="audio_index">0</property>
  <property name="video_index">-1</property>
  <property name="mute_on_pause">1</property>
  <property name="mlt_service">avformat</property>
  <property name="kdenlive:clipname"/>
  <property name="kdenlive:folderid">513</property>
  <property name="kdenlive:id">520</property>
  <property name="kdenlive:file_size">2106924</property>
  <property name="kdenlive:file_hash">46a38ac59d663cf27be3420cf4d128ab</property>
  <property name="kdenlive:audio_max">6</property>
 </producer>
 <producer id="producer30" in="00:00:00.000" out="00:00:16.333">
  <property name="length">981</property>
  <property name="eof">pause</property>
  <property name="resource">audio/tone12.wav</property>
  <property name="meta.media.nb_streams">1</property>
  <property name="meta.media.0.stream.type">audio</property>
  <property name="meta.media.0.codec.sample_fmt">s16</property>
  <property name="meta.media.0.codec.sample_rate">48000</property>
  <property name="meta.media.0.codec.channels">2</property>
  <property name="meta.media.0.codec.name">pcm_s16le</property>
  <property name="meta.media.0.codec.long_name">PCM signed 16-bit little-endian</property>
  <property name="meta.media.0.codec.bit_rate">1536000</property>
  <property name="seekable">1</property>
  <property name="audio_index">0</property>
  <property name="video_index">-1</property>
  <property name="mute_on_pause">1</property>
  <property name="mlt_service">avformat</property>
  <property name="kdenlive:clipname"/>
  <property name="kdenlive:folderid">513</property>
  <property name="kdenlive:id">521</property>
  <property name="kdenlive:file_size">3139020</property>
  <property name="kdenlive:file_hash">ab03021f70d54b3712d0a3e906988473</property>
  <property name="kdenlive:audio_max">6</property>
 </producer>
 <producer id="producer31" in="00:00:00.000" out="00:00:08.083">
  <property name="length">486</property>
  <property name="eof">pause</property>
  <property name="resource">audio/tone13.wav</property>
  <property name="meta.media.nb_streams">1</property>
  <property name="meta.media.0.stream.type">audio</property>
  <property name="meta.media.0.codec.sample_fmt">s16</property>
  <property name="meta.media.0.codec.sample_rate">48000</property>
  <property name="meta.media.0.codec.channels">2</property>
  <property name="meta.media.0.codec.name">pcm_s16le</property>
  <property name="meta.media.0.codec.long_name">PCM signed 16-bit little-endian</property>
  <property name="meta.media.0.codec.bit_rate">1536000</property>
  <property name="seekable">1</property>
  <property name="audio_index">0</property>
  <property name="video_index">-1</property>
  <property name="mute_on_pause">1</property>
  <property name="mlt_service">avformat</property>
  <property name="kdenlive:clipname"/>
  <property name="kdenlive:folderid">513</property>
  <property name="kdenlive:id">522</property>
  <property name="kdenlive:file_size">1554444</property>
  <property name="kdenlive:file_hash">d5ee8629aeb65c276789370312153273</property>
  <property name="kdenlive:audio_max">5</property>
 </producer>
 <producer id="producer32" in="00:00:00.000" out="00:00:04.083">
  <property name="length">246</property>
  <property name="eof">pause</property>
  <property name="resource">audio/tone14.wav</property>
  <property name="meta.media.nb_streams">1</property>
  <property name="meta.media.0.stream.type">audio</property>
  <property name="meta.media.0.codec.sample_fmt">s16</property>
  <property name="meta.media.0.codec.sample_rate">48000</property>
  <property name="meta.media.0.codec.channels">2</property>
  <property name="meta.media.0.codec.name">pcm_s16le</property>
  <property name="meta.media.0.codec.long_name">PCM signed 16-bit little-endian</property>
  <property name="meta.media.0.codec.bit_rate">1536000</property>
  <property name="seekable">1</property>
  <property name="audio_index">0</property>
  <property name="video_index">-1</property>
  <property name="mute_on_pause">1</property>
  <property name="mlt_service">avformat</property>
  <property name="kdenlive:clipname"/>
  <property name="kdenlive:folderid">513</property>
  <property name="kdenlive:id">523</property>
  <property name="kdenlive:file_size">787468</property>
  <property name="kdenlive:file_hash">b67b390a3de8df96a3f74d88a09d7488</property>
  <property name="kdenlive:audio_max">7</property>
 </producer>
 <producer id="producer33" in="00:00:00.000" out="00:00:03.333">
  <property name="length">201</property>
  <property name="eof">pause</property>
  <property name="resource">audio/tone15.wav</property>
  <property name="meta.media.nb_streams">1</property>
  <property name="meta.media.0.stream.type">audio</property>
  <property name="meta.media.0.codec.sample_fmt">s16</property>
  <property name="meta.media.0.codec.sample_rate">48000</property>
  <property name="meta.media.0.codec.channels">2</property>
  <property name="meta.media.0.codec.name">pcm_s16le</property>
  <property name="meta.media.0.codec.long_name">PCM signed 16-bit little-endian</property>
  <property name="meta.media.0.codec.bit_rate">1536000</property>
  <property name="seekable">1</property>
  <property name="audio_index">0</property>
  <property name="video_index">-1</property>
  <property name="mute_on_pause">1</property>
  <property name="mlt_service">avformat</property>
  <property name="kdenlive:clipname"/>
  <property name="kdenlive:folderid">513</property>
  <property name="kdenlive:id">524</property>
  <property name="kdenlive:file_size">643788</property>
  <property name="kdenlive:file_hash">cda3973b44aab4984996a2f3048461fc</property>
  <property name="kdenlive:audio_max">8</property>
 </producer>
 <producer id="producer34" in="00:00:00.000" out="00:00:43.700">
  <property name="length">2623</property>
  <property name="eof">pause</property>
  <property name="resource">audio/tone16.wav</property>
  <property name="meta.media.nb_streams">1</property>
  <property name="meta.media.0.stream.type">audio</property>
  <property name="meta.media.0.codec.sample_fmt">s16</property>
  <property name="meta.media.0.codec.sample_rate">48000</property>
  <property name="meta.media.0.codec.channels">2</property>
  <property name="meta.media.0.codec.name">pcm_s16le</property>
  <property name="meta.media.0.codec.long_name">PCM signed 16-bit little-endian</property>
  <property name="meta.media.0.codec.bit_rate">1536000</property>
  <property name="seekable">1</property>
  <property name="audio_index">0</property>
  <property name="video_index">-1</property>
  <property name="mute_on_pause">1</property>
  <property name="mlt_service">avformat</property>
  <property name="kdenlive:clipname"/>
  <property name="kdenlive:folderid">513</property>
  <property name="kdenlive:id">525</property>
  <property name="kdenlive:file_size">8394604</property>
  <property name="kdenlive:file_hash">9647d30f9daeb900c1555eb4983207d9</property>
  <property name="kdenlive:audio_max">6</property>
 </producer>
 <producer id="producer35" in="00:00:00.000" out="00:00:12.833">
  <property name="length">771</property>
  <property name="eof">pause</property>
  <property name="resource">audio/tone17.wav</property>
  <property name="meta.media.nb_streams">1</property>
  <property name="meta.media.0.stream.type">audio</property>
  <property name="meta.media.0.codec.sample_fmt">s16</property>
  <property name="meta.media.0.codec.sample_rate">48000</property>
  <property name="meta.media.0.codec.channels">2</property>
  <property name="meta.media.0.codec.name">pcm_s16le</property>
  <property name="meta.media.0.codec.long_name">PCM signed 16-bit little-endian</property>
  <property name="meta.media.0.codec.bit_rate">1536000</property>
  <property name="seekable">1</property>
  <property name="audio_index">0</property>
  <property name="video_index">-1</property>
  <property name="mute_on_pause">1</property>
  <property name="mlt_service">avformat</property>
  <property name="kdenlive:clipname"/>
  <property name="kdenlive:folderid">513</property>
  <property name="kdenlive:id">526</property>
  <property name="kdenlive:file_size">2467148</property>
  <property name="kdenlive:file_hash">b7b943f0db0a25c73385e6dc91892e18</property>
  <property name="kdenlive:audio_max">4</property>
 </producer>
 <producer id="producer36" in="00:00:00.000" out="00:00:07.083">
  <property name="length">426</property>
  <property name="eof">pause</property>
  <property name="resource">audio/tone2.wav</property>
  <property name="meta.media.nb_streams">1</property>
  <property name="meta.media.0.stream.type">audio</property>
  <property name="meta.media.0.codec.sample_fmt">s16</property>
  <property name="meta.media.0.codec.sample_rate">48000</property>
  <property name="meta.media.0.codec.channels">2</property>
  <property name="meta.media.0.codec.name">pcm_s16le</property>
  <property name="meta.media.0.codec.long_name">PCM signed 16-bit little-endian</property>
  <property name="meta.media.0.codec.bit_rate">1536000</property>
  <property name="seekable">1</property>
  <property name="audio_index">0</property>
  <property name="video_index">-1</property>
  <property name="mute_on_pause">1</property>
  <property name="mlt_service">avformat</property>
  <property name="kdenlive:clipname"/>
  <property name="kdenlive:folderid">513</property>
  <property name="kdenlive:id">527</property>
  <property name="kdenlive:file_size">1362188</property>
  <property name="kdenlive:file_hash">a7b5b6b2ac5a1f887ae8938f29f69937</property>
  <property name="kdenlive:audio_max">6</property>
 </producer>
 <producer id="producer37" in="00:00:00.000" out="00:00:07.450">
  <property name="length">448</property>
  <property name="eof">pause</property>
  <property name="resource">audio/tone3.wav</property>
  <property name="meta.media.nb_streams">1</property>
  <property name="meta.media.0.stream.type">audio</property>
  <property name="meta.media.0.codec.sample_fmt">s16</property>
  <property name="meta.media.0.codec.sample_rate">48000</property>
  <property name="meta.media.0.codec.channels">2</property>
  <property name="meta.media.0.codec.name">pcm_s16le</property>
  <property name="meta.media.0.codec.long_name">PCM signed 16-bit little-endian</property>
  <property name="meta.media.0.codec.bit_rate">1536000</property>
  <property name="seekable">1</property>
  <property name="audio_index">0</property>
  <property name="video_index">-1</property>
  <property name="mute_on_pause">1</property>
  <property name="mlt_service">avformat</property>
  <property name="kdenlive:clipname"/>
  <property name="kdenlive:folderid">513</property>
  <property name="kdenlive:id">528</property>
  <property name="kdenlive:file_size">1435052</property>
  <property name="kdenlive:file_hash">bd50280b8f13392bee1e977b5224946c</property>
  <property name="kdenlive:audio_max">7</property>
 </producer>
 <producer id="producer38" in="00:00:00.000" out="00:00:42.833">
  <property name="length">2571</property>
  <property name="eof">pause</property>
  <property name="resource">audio/tone4-1.wav</property>
  <property name="meta.media.nb_streams">1</property>
  <property name="meta.media.0.stream.type">audio</property>
  <property name="meta.media.0.codec.sample_fmt">s16</property>
  <property name="meta.media.0.codec.sample_rate">48000</property>
  <property name="meta.media.0.codec.channels">2</property>
  <property name="meta.media.0.codec.name">pcm_s16le</property>
  <property name="meta.media.0.codec.long_name">PCM signed 16-bit little-endian</property>
  <property name="meta.media.0.codec.bit_rate">1536000</property>
  <property name="seekable">1</property>
  <property name="audio_index">0</property>
  <property name="video_index">-1</property>
  <property name="mute_on_pause">1</property>
  <property name="mlt_service">avformat</property>
  <property name="kdenlive:clipname"/>
  <property name="kdenlive:folderid">513</property>
  <property name="kdenlive:id">529</property>
  <property name="kdenlive:file_size">8226636</property>
  <property name="kdenlive:file_hash">87479539bc4d3bb38e67492a73cbf293</property>
  <property name="kdenlive:audio_max">11</property>
 </producer>
 <producer id="producer39" in="00:00:00.000" out="00:00:41.333">
  <property name="length">2481</property>
  <property name="eof">pause</property>
  <property name="resource">audio/tone4.wav</property>
  <property name="meta.media.nb_streams">1</property>
  <property name="meta.media.0.stream.type">audio</property>
  <property name="meta.media.0.codec.sample_fmt">s16</property>
  <property name="meta.media.0.codec.sample_rate">48000</property>
  <property name="meta.media.0.codec.channels">2</property>
  <property name="meta.media.0.codec.name">pcm_s16le</property>
  <property name="meta.media.0.codec.long_name">PCM signed 16-bit little-endian</property>
  <property name="meta.media.0.codec.bit_rate">1536000</property>
  <property name="seekable">1</property>
  <property name="audio_index">0</property>
  <property name="video_index">-1</property>
  <property name="mute_on_pause">1</property>
  <property name="mlt_service">avformat</property>
  <property name="kdenlive:clipname"/>
  <property name="kdenlive:folderid">513</property>
  <property name="kdenlive:id">530</property>
  <property name="kdenlive:file_size">7939276</property>
  <property name="kdenlive:file_hash">e8934169bf821ba77e89cd9870597a12</property>
  <property name="kdenlive:audio_max">3</property>
 </producer>
 <producer id="producer40" in="00:00:00.000" out="00:00:13.333">
  <property name="length">801</property>
  <property name="eof">pause</property>
  <property name="resource">audio/tone5.wav</property>
  <property name="meta.media.nb_streams">1</property>
  <property name="meta.media.0.stream.type">audio</property>
  <property name="meta.media.0.codec.sample_fmt">s16</property>
  <property name="meta.media.0.codec.sample_rate">48000</property>
  <property name="meta.media.0.codec.channels">2</property>
  <property name="meta.media.0.codec.name">pcm_s16le</property>
  <property name="meta.media.0.codec.long_name">PCM signed 16-bit little-endian</property>
  <property name="meta.media.0.codec.bit_rate">1536000</property>
  <property name="seekable">1</property>
  <property name="audio_index">0</property>
  <property name="video_index">-1</property>
  <property name="mute_on_pause">1</property>
  <property name="mlt_service">avformat</property>
  <property name="kdenlive:clipname"/>
  <property name="kdenlive:folderid">513</property>
  <property name="kdenlive:id">531</property>
  <property name="kdenlive:file_size">2562252</property>
  <property name="kdenlive:file_hash">4d9eece2cbb0cb53bd6b2b0003e49ccc</property>
  <property name="kdenlive:audio_max">5</property>
 </producer>
 <producer id="producer41" in="00:00:00.000" out="00:00:11.950">
  <property name="length">718</property>
  <property name="eof">pause</property>
  <property name="resource">audio/tone6.wav</property>
  <property name="meta.media.nb_streams">1</property>
  <property name="meta.media.0.stream.type">audio</property>
  <property name="meta.media.0.codec.sample_fmt">s16</property>
  <property name="meta.media.0.codec.sample_rate">48000</property>
  <property name="meta.media.0.codec.channels">2</property>
  <property name="meta.media.0.codec.name">pcm_s16le</property>
  <property name="meta.media.0.codec.long_name">PCM signed 16-bit little-endian</property>
  <property name="meta.media.0.codec.bit_rate">1536000</property>
  <property name="seekable">1</property>
  <property name="audio_index">0</property>
  <property name="video_index">-1</property>
  <property name="mute_on_pause">1</property>
  <property name="mlt_service">avformat</property>
  <property name="kdenlive:clipname"/>
  <property name="kdenlive:folderid">513</property>
  <property name="kdenlive:id">532</property>
  <property name="kdenlive:file_size">2299180</property>
  <property name="kdenlive:file_hash">36f821b3a5534d27aad601c2ee08804c</property>
  <property name="kdenlive:audio_max">6</property>
 </producer>
 <producer id="producer42" in="00:00:00.000" out="00:00:11.083">
  <property name="length">666</property>
  <property name="eof">pause</property>
  <property name="resource">audio/tone7.wav</property>
  <property name="meta.media.nb_streams">1</property>
  <property name="meta.media.0.stream.type">audio</property>
  <property name="meta.media.0.codec.sample_fmt">s16</property>
  <property name="meta.media.0.codec.sample_rate">48000</property>
  <property name="meta.media.0.codec.channels">2</property>
  <property name="meta.media.0.codec.name">pcm_s16le</property>
  <property name="meta.media.0.codec.long_name">PCM signed 16-bit little-endian</property>
  <property name="meta.media.0.codec.bit_rate">1536000</property>
  <property name="seekable">1</property>
  <property name="audio_index">0</property>
  <property name="video_index">-1</property>
  <property name="mute_on_pause">1</property>
  <property name="mlt_service">avformat</property>
  <property name="kdenlive:clipname"/>
  <property name="kdenlive:folderid">513</property>
  <property name="kdenlive:id">533</property>
  <property name="kdenlive:file_size">2131212</property>
  <property name="kdenlive:file_hash">278495e649b10f5e20023ef662573287</property>
  <property name="kdenlive:audio_max">6</property>
 </producer>
 <producer id="producer43" in="00:00:00.000" out="00:00:04.333">
  <property name="length">261</property>
  <property name="eof">pause</property>
  <property name="resource">audio/tone8.wav</property>
  <property name="meta.media.nb_streams">1</property>
  <property name="meta.media.0.stream.type">audio</property>
  <property name="meta.media.0.codec.sample_fmt">s16</property>
  <property name="meta.media.0.codec.sample_rate">48000</property>
  <property name="meta.media.0.codec.channels">2</property>
  <property name="meta.media.0.codec.name">pcm_s16le</property>
  <property name="meta.media.0.codec.long_name">PCM signed 16-bit little-endian</property>
  <property name="meta.media.0.codec.bit_rate">1536000</property>
  <property name="seekable">1</property>
  <property name="audio_index">0</property>
  <property name="video_index">-1</property>
  <property name="mute_on_pause">1</property>
  <property name="mlt_service">avformat</property>
  <property name="kdenlive:clipname"/>
  <property name="kdenlive:folderid">513</property>
  <property name="kdenlive:id">534</property>
  <property name="kdenlive:file_size">833996</property>
  <property name="kdenlive:file_hash">fdf75a501ce99dfc138c1dd3df4bc348</property>
  <property name="kdenlive:audio_max">6</property>
 </producer>
 <producer id="producer44" in="00:00:00.000" out="00:00:07.333">
  <property name="length">441</property>
  <property name="eof">pause</property>
  <property name="resource">audio/tone9.wav</property>
  <property name="meta.media.nb_streams">1</property>
  <property name="meta.media.0.stream.type">audio</property>
  <property name="meta.media.0.codec.sample_fmt">s16</property>
  <property name="meta.media.0.codec.sample_rate">48000</property>
  <property name="meta.media.0.codec.channels">2</property>
  <property name="meta.media.0.codec.name">pcm_s16le</property>
  <property name="meta.media.0.codec.long_name">PCM signed 16-bit little-endian</property>
  <property name="meta.media.0.codec.bit_rate">1536000</property>
  <property name="seekable">1</property>
  <property name="audio_index">0</property>
  <property name="video_index">-1</property>
  <property name="mute_on_pause">1</property>
  <property name="mlt_service">avformat</property>
  <property name="kdenlive:clipname"/>
  <property name="kdenlive:folderid">513</property>
  <property name="kdenlive:id">535</property>
  <property name="kdenlive:file_size">1410764</property>
  <property name="kdenlive:file_hash">7acbf57dd36e8359be967ed1dc1c94e0</property>
  <property name="kdenlive:audio_max">7</property>
 </producer>
 <producer id="producer45" in="00:00:00.000" out="00:00:38.967">
  <property name="length">2339</property>
  <property name="eof">pause</property>
  <property name="resource">audio/ttwo1.wav</property>
  <property name="meta.media.nb_streams">1</property>
  <property name="meta.media.0.stream.type">audio</property>
  <property name="meta.media.0.codec.sample_fmt">s16</property>
  <property name="meta.media.0.codec.sample_rate">48000</property>
  <property name="meta.media.0.codec.channels">2</property>
  <property name="meta.media.0.codec.name">pcm_s16le</property>
  <property name="meta.media.0.codec.long_name">PCM signed 16-bit little-endian</property>
  <property name="meta.media.0.codec.bit_rate">1536000</property>
  <property name="seekable">1</property>
  <property name="audio_index">0</property>
  <property name="video_index">-1</property>
  <property name="mute_on_pause">1</property>
  <property name="mlt_service">avformat</property>
  <property name="kdenlive:clipname"/>
  <property name="kdenlive:folderid">513</property>
  <property name="kdenlive:id">536</property>
  <property name="kdenlive:file_size">7483948</property>
  <property name="kdenlive:file_hash">487726649b1b821bfd71bf4185da3f35</property>
  <property name="kdenlive:audio_max">4</property>
 </producer>
 <producer id="producer46" in="00:00:00.000" out="00:00:07.450">
  <property name="length">448</property>
  <property name="eof">pause</property>
  <property name="resource">audio/ttwo2.wav</property>
  <property name="meta.media.nb_streams">1</property>
  <property name="meta.media.0.stream.type">audio</property>
  <property name="meta.media.0.codec.sample_fmt">s16</property>
  <property name="meta.media.0.codec.sample_rate">48000</property>
  <property name="meta.media.0.codec.channels">2</property>
  <property name="meta.media.0.codec.name">pcm_s16le</property>
  <property name="meta.media.0.codec.long_name">PCM signed 16-bit little-endian</property>
  <property name="meta.media.0.codec.bit_rate">1536000</property>
  <property name="seekable">1</property>
  <property name="audio_index">0</property>
  <property name="video_index">-1</property>
  <property name="mute_on_pause">1</property>
  <property name="mlt_service">avformat</property>
  <property name="kdenlive:clipname"/>
  <property name="kdenlive:folderid">513</property>
  <property name="kdenlive:id">537</property>
  <property name="kdenlive:file_size">1435052</property>
  <property name="kdenlive:file_hash">db8b9db2221a19a3049c3093eac6d2ec</property>
  <property name="kdenlive:audio_max">4</property>
 </producer>
 <producer id="producer47" in="00:00:00.000" out="00:00:17.333">
  <property name="length">1041</property>
  <property name="eof">pause</property>
  <property name="resource">audio/ttwo3.wav</property>
  <property name="meta.media.nb_streams">1</property>
  <property name="meta.media.0.stream.type">audio</property>
  <property name="meta.media.0.codec.sample_fmt">s16</property>
  <property name="meta.media.0.codec.sample_rate">48000</property>
  <property name="meta.media.0.codec.channels">2</property>
  <property name="meta.media.0.codec.name">pcm_s16le</property>
  <property name="meta.media.0.codec.long_name">PCM signed 16-bit little-endian</property>
  <property name="meta.media.0.codec.bit_rate">1536000</property>
  <property name="seekable">1</property>
  <property name="audio_index">0</property>
  <property name="video_index">-1</property>
  <property name="mute_on_pause">1</property>
  <property name="mlt_service">avformat</property>
  <property name="kdenlive:clipname"/>
  <property name="kdenlive:folderid">513</property>
  <property name="kdenlive:id">538</property>
  <property name="kdenlive:file_size">3331276</property>
  <property name="kdenlive:file_hash">52c2995eceb6e0abbc48cfc7cdf32ca9</property>
  <property name="kdenlive:audio_max">3</property>
 </producer>
 <producer id="producer521" in="00:00:00.000" out="00:02:46.650">
  <property name="length">10000</property>
  <property name="eof">pause</property>
  <property name="resource">music/Confectionery - Beignet.mp3</property>
  <property name="meta.media.nb_streams">1</property>
  <property name="meta.media.0.stream.type">audio</property>
  <property name="meta.media.0.codec.sample_fmt">fltp</property>
  <property name="meta.media.0.codec.sample_rate">44100</property>
  <property name="meta.media.0.codec.channels">2</property>
  <property name="meta.media.0.codec.name">mp3float</property>
  <property name="meta.media.0.codec.long_name">MP3 (MPEG audio layer 3)</property>
  <property name="meta.media.0.codec.bit_rate">128000</property>
  <property name="meta.attr.comment.markup">For track information and licensing visit www.sessions.blue</property>
  <property name="meta.attr.title.markup">Beignet</property>
  <property name="meta.attr.album.markup">Confectionery</property>
  <property name="meta.attr.composer.markup">Galen Huckins</property>
  <property name="meta.attr.artist.markup">Blue Dot Sessions</property>
  <property name="meta.attr.publisher.markup">Blue Dot Studios</property>
  <property name="meta.attr.genre.markup">instrumental</property>
  <property name="meta.attr.TKEY.markup">F</property>
  <property name="meta.attr.TBPM.markup">130</property>
  <property name="meta.attr.TSRC.markup">USL4R1810588</property>
  <property name="meta.attr.website.markup">www.sessions.blue</property>
  <property name="meta.attr.copyright.markup">(CCBYNC) 2018 Creative Commons NonCommercial-Attribution</property>
  <property name="meta.attr.date.markup">2018</property>
  <property name="seekable">1</property>
  <property name="audio_index">0</property>
  <property name="video_index">-1</property>
  <property name="mute_on_pause">1</property>
  <property name="mlt_service">avformat</property>
  <property name="kdenlive:clipname"/>
  <property name="kdenlive:folderid">575</property>
  <property name="kdenlive:id">539</property>
  <property name="kdenlive:file_size">2667281</property>
  <property name="kdenlive:file_hash">20d55602226233b791982303dde83926</property>
 </producer>
 <producer id="producer522" in="00:00:00.000" out="00:02:10.250">
  <property name="length">7816</property>
  <property name="eof">pause</property>
  <property name="resource">music/Confectionery - Bundt.mp3</property>
  <property name="meta.media.nb_streams">1</property>
  <property name="meta.media.0.stream.type">audio</property>
  <property name="meta.media.0.codec.sample_fmt">fltp</property>
  <property name="meta.media.0.codec.sample_rate">44100</property>
  <property name="meta.media.0.codec.channels">2</property>
  <property name="meta.media.0.codec.name">mp3float</property>
  <property name="meta.media.0.codec.long_name">MP3 (MPEG audio layer 3)</property>
  <property name="meta.media.0.codec.bit_rate">128000</property>
  <property name="meta.attr.comment.markup">For track information and licensing visit www.sessions.blue</property>
  <property name="meta.attr.title.markup">Bundt</property>
  <property name="meta.attr.album.markup">Confectionery</property>
  <property name="meta.attr.composer.markup">Galen Huckins</property>
  <property name="meta.attr.artist.markup">Blue Dot Sessions</property>
  <property name="meta.attr.publisher.markup">Blue Dot Studios</property>
  <property name="meta.attr.genre.markup">instrumental</property>
  <property name="meta.attr.TKEY.markup">C</property>
  <property name="meta.attr.TBPM.markup">135</property>
  <property name="meta.attr.TSRC.markup">USL4R1810603</property>
  <property name="meta.attr.website.markup">www.sessions.blue</property>
  <property name="meta.attr.copyright.markup">(CCBYNC) 2018 Creative Commons NonCommercial-Attribution</property>
  <property name="meta.attr.date.markup">2018</property>
  <property name="seekable">1</property>
  <property name="audio_index">0</property>
  <property name="video_index">-1</property>
  <property name="mute_on_pause">1</property>
  <property name="mlt_service">avformat</property>
  <property name="kdenlive:clipname"/>
  <property name="kdenlive:folderid">575</property>
  <property name="kdenlive:id">540</property>
  <property name="kdenlive:file_size">2085060</property>
  <property name="kdenlive:file_hash">3a1817a2b457b870d719e4fd583aeff4</property>
 </producer>
 <producer id="producer523" in="00:00:00.000" out="00:02:33.117">
  <property name="length">9188</property>
  <property name="eof">pause</property>
  <property name="resource">music/Confectionery - Maisie Dreamer.mp3</property>
  <property name="meta.media.nb_streams">1</property>
  <property name="meta.media.0.stream.type">audio</property>
  <property name="meta.media.0.codec.sample_fmt">fltp</property>
  <property name="meta.media.0.codec.sample_rate">44100</property>
  <property name="meta.media.0.codec.channels">2</property>
  <property name="meta.media.0.codec.name">mp3float</property>
  <property name="meta.media.0.codec.long_name">MP3 (MPEG audio layer 3)</property>
  <property name="meta.media.0.codec.bit_rate">128000</property>
  <property name="meta.attr.comment.markup">For track information and licensing visit www.sessions.blue</property>
  <property name="meta.attr.title.markup">Maisie Dreamer</property>
  <property name="meta.attr.album.markup">Nursery</property>
  <property name="meta.attr.composer.markup">Galen Huckins</property>
  <property name="meta.attr.artist.markup">Blue Dot Sessions</property>
  <property name="meta.attr.publisher.markup">Blue Dot Studios</property>
  <property name="meta.attr.genre.markup">instrumental</property>
  <property name="meta.attr.TKEY.markup">C</property>
  <property name="meta.attr.TBPM.markup">109</property>
  <property name="meta.attr.TSRC.markup">USHM81825738</property>
  <property name="meta.attr.website.markup">www.sessions.blue</property>
  <property name="meta.attr.copyright.markup">(CCBYNC) 2018 Creative Commons NonCommercial-Attribution</property>
  <property name="meta.attr.date.markup">2018</property>
  <property name="seekable">1</property>
  <property name="audio_index">0</property>
  <property name="video_index">-1</property>
  <property name="mute_on_pause">1</property>
  <property name="mlt_service">avformat</property>
  <property name="kdenlive:clipname"/>
  <property name="kdenlive:folderid">575</property>
  <property name="kdenlive:id">541</property>
  <property name="kdenlive:file_size">2450780</property>
  <property name="kdenlive:file_hash">ac8f85e444fd454c4971e32c6de23466</property>
  <property name="global_feed">1</property>
 </producer>
 <producer id="producer524" in="00:00:00.000" out="00:03:46.050">
  <property name="length">13564</property>
  <property name="eof">pause</property>
  <property name="resource">music/Confectionery - Palms Down.mp3</property>
  <property name="meta.media.nb_streams">1</property>
  <property name="meta.media.0.stream.type">audio</property>
  <property name="meta.media.0.codec.sample_fmt">fltp</property>
  <property name="meta.media.0.codec.sample_rate">44100</property>
  <property name="meta.media.0.codec.channels">2</property>
  <property name="meta.media.0.codec.name">mp3float</property>
  <property name="meta.media.0.codec.long_name">MP3 (MPEG audio layer 3)</property>
  <property name="meta.media.0.codec.bit_rate">128000</property>
  <property name="meta.attr.comment.markup">For track information and licensing visit www.sessions.blue</property>
  <property name="meta.attr.title.markup">Palms Down</property>
  <property name="meta.attr.album.markup">Confectionery</property>
  <property name="meta.attr.composer.markup">Galen Huckins</property>
  <property name="meta.attr.artist.markup">Blue Dot Sessions</property>
  <property name="meta.attr.publisher.markup">Blue Dot Studios</property>
  <property name="meta.attr.genre.markup">instrumental</property>
  <property name="meta.attr.TKEY.markup">C</property>
  <property name="meta.attr.TBPM.markup">128</property>
  <property name="meta.attr.TSRC.markup">USL4R1810602</property>
  <property name="meta.attr.website.markup">www.sessions.blue</property>
  <property name="meta.attr.copyright.markup">(CCBYNC) 2018 Creative Commons NonCommercial-Attribution</property>
  <property name="meta.attr.date.markup">2018</property>
  <property name="seekable">1</property>
  <property name="audio_index">0</property>
  <property name="video_index">-1</property>
  <property name="mute_on_pause">1</property>
  <property name="mlt_service">avformat</property>
  <property name="kdenlive:clipname"/>
  <property name="kdenlive:folderid">575</property>
  <property name="kdenlive:id">542</property>
  <property name="kdenlive:file_size">3617726</property>
  <property name="kdenlive:file_hash">f54be5ed1354cfa7769dde43694fbed5</property>
 </producer>
 <producer id="producer525" in="00:00:00.000" out="00:02:59.500">
  <property name="length">10771</property>
  <property name="eof">pause</property>
  <property name="resource">music/Glass Obelisk - Dell Mare.mp3</property>
  <property name="meta.media.nb_streams">1</property>
  <property name="meta.media.0.stream.type">audio</property>
  <property name="meta.media.0.codec.sample_fmt">fltp</property>
  <property name="meta.media.0.codec.sample_rate">44100</property>
  <property name="meta.media.0.codec.channels">2</property>
  <property name="meta.media.0.codec.name">mp3float</property>
  <property name="meta.media.0.codec.long_name">MP3 (MPEG audio layer 3)</property>
  <property name="meta.media.0.codec.bit_rate">128000</property>
  <property name="meta.attr.comment.markup">For track information and licensing visit www.sessions.blue</property>
  <property name="meta.attr.title.markup">Dell Mare</property>
  <property name="meta.attr.album.markup">Glass Obelisk</property>
  <property name="meta.attr.composer.markup">Galen Huckins</property>
  <property name="meta.attr.artist.markup">Blue Dot Sessions</property>
  <property name="meta.attr.publisher.markup">Blue Dot Studios</property>
  <property name="meta.attr.genre.markup">instrumental</property>
  <property name="meta.attr.TKEY.markup">G</property>
  <property name="meta.attr.TBPM.markup">115</property>
  <property name="meta.attr.website.markup">www.sessions.blue</property>
  <property name="meta.attr.copyright.markup">(CCBYNC) 2020 Creative Commons NonCommercial-Attribution</property>
  <property name="meta.attr.date.markup">2020</property>
  <property name="seekable">1</property>
  <property name="audio_index">0</property>
  <property name="video_index">-1</property>
  <property name="mute_on_pause">1</property>
  <property name="mlt_service">avformat</property>
  <property name="kdenlive:clipname"/>
  <property name="kdenlive:folderid">575</property>
  <property name="kdenlive:id">543</property>
  <property name="kdenlive:file_size">2872884</property>
  <property name="kdenlive:file_hash">63e1874b3fbd6452cb40b0a1b07b5f17</property>
 </producer>
 <producer id="producer526" in="00:00:00.000" out="00:02:47.633">
  <property name="length">10059</property>
  <property name="eof">pause</property>
  <property name="resource">music/Glass Obelisk - Morning Glare.mp3</property>
  <property name="meta.media.nb_streams">1</property>
  <property name="meta.media.0.stream.type">audio</property>
  <property name="meta.media.0.codec.sample_fmt">fltp</property>
  <property name="meta.media.0.codec.sample_rate">44100</property>
  <property name="meta.media.0.codec.channels">2</property>
  <property name="meta.media.0.codec.name">mp3float</property>
  <property name="meta.media.0.codec.long_name">MP3 (MPEG audio layer 3)</property>
  <property name="meta.media.0.codec.bit_rate">128000</property>
  <property name="meta.attr.comment.markup">For track information and licensing visit www.sessions.blue</property>
  <property name="meta.attr.title.markup">Morning Glare</property>
  <property name="meta.attr.album.markup">Glass Obelisk</property>
  <property name="meta.attr.composer.markup">Galen Huckins</property>
  <property name="meta.attr.artist.markup">Blue Dot Sessions</property>
  <property name="meta.attr.publisher.markup">Blue Dot Studios</property>
  <property name="meta.attr.genre.markup">instrumental</property>
  <property name="meta.attr.TKEY.markup">C#m</property>
  <property name="meta.attr.TBPM.markup">115</property>
  <property name="meta.attr.website.markup">www.sessions.blue</property>
  <property name="meta.attr.copyright.markup">(CCBYNC) 2020 Creative Commons NonCommercial-Attribution</property>
  <property name="meta.attr.date.markup">2020</property>
  <property name="seekable">1</property>
  <property name="audio_index">0</property>
  <property name="video_index">-1</property>
  <property name="mute_on_pause">1</property>
  <property name="mlt_service">avformat</property>
  <property name="kdenlive:clipname"/>
  <property name="kdenlive:folderid">575</property>
  <property name="kdenlive:id">544</property>
  <property name="kdenlive:file_size">2683143</property>
  <property name="kdenlive:file_hash">3736407e9170fe2b3adcf27fbe6e58ac</property>
 </producer>
 <producer id="producer527" in="00:00:00.000" out="00:03:11.383">
  <property name="length">11484</property>
  <property name="eof">pause</property>
  <property name="resource">music/Glass Obelisk - Pacific Time.mp3</property>
  <property name="meta.media.nb_streams">1</property>
  <property name="meta.media.0.stream.type">audio</property>
  <property name="meta.media.0.codec.sample_fmt">fltp</property>
  <property name="meta.media.0.codec.sample_rate">44100</property>
  <property name="meta.media.0.codec.channels">2</property>
  <property name="meta.media.0.codec.name">mp3float</property>
  <property name="meta.media.0.codec.long_name">MP3 (MPEG audio layer 3)</property>
  <property name="meta.media.0.codec.bit_rate">128000</property>
  <property name="meta.attr.comment.markup">For track information and licensing visit www.sessions.blue</property>
  <property name="meta.attr.title.markup">Pacific Time</property>
  <property name="meta.attr.album.markup">Glass Obelisk</property>
  <property name="meta.attr.composer.markup">Galen Huckins</property>
  <property name="meta.attr.artist.markup">Blue Dot Sessions</property>
  <property name="meta.attr.publisher.markup">Blue Dot Studios</property>
  <property name="meta.attr.genre.markup">instrumental</property>
  <property name="meta.attr.TKEY.markup">C</property>
  <property name="meta.attr.TBPM.markup">95</property>
  <property name="meta.attr.website.markup">www.sessions.blue</property>
  <property name="meta.attr.copyright.markup">(CCBYNC) 2020 Creative Commons NonCommercial-Attribution</property>
  <property name="meta.attr.date.markup">2020</property>
  <property name="seekable">1</property>
  <property name="audio_index">0</property>
  <property name="video_index">-1</property>
  <property name="mute_on_pause">1</property>
  <property name="mlt_service">avformat</property>
  <property name="kdenlive:clipname"/>
  <property name="kdenlive:folderid">575</property>
  <property name="kdenlive:id">545</property>
  <property name="kdenlive:file_size">3063059</property>
  <property name="kdenlive:file_hash">20b6ce6fc1cbfb73b5b5595ea96835c6</property>
 </producer>
 <producer id="producer528" in="00:00:00.000" out="00:03:08.383">
  <property name="length">11304</property>
  <property name="eof">pause</property>
  <property name="resource">music/Glass Obelisk - Plate Glass.mp3</property>
  <property name="meta.media.nb_streams">1</property>
  <property name="meta.media.0.stream.type">audio</property>
  <property name="meta.media.0.codec.sample_fmt">fltp</property>
  <property name="meta.media.0.codec.sample_rate">44100</property>
  <property name="meta.media.0.codec.channels">2</property>
  <property name="meta.media.0.codec.name">mp3float</property>
  <property name="meta.media.0.codec.long_name">MP3 (MPEG audio layer 3)</property>
  <property name="meta.media.0.codec.bit_rate">128000</property>
  <property name="meta.attr.comment.markup">For track information and licensing visit www.sessions.blue</property>
  <property name="meta.attr.title.markup">Plate Glass</property>
  <property name="meta.attr.album.markup">Glass Obelisk</property>
  <property name="meta.attr.composer.markup">Galen Huckins</property>
  <property name="meta.attr.artist.markup">Blue Dot Sessions</property>
  <property name="meta.attr.publisher.markup">Blue Dot Studios</property>
  <property name="meta.attr.genre.markup">instrumental</property>
  <property name="meta.attr.TKEY.markup">G</property>
  <property name="meta.attr.TBPM.markup">115</property>
  <property name="meta.attr.website.markup">www.sessions.blue</property>
  <property name="meta.attr.copyright.markup">(CCBYNC) 2020 Creative Commons NonCommercial-Attribution</property>
  <property name="meta.attr.date.markup">2020</property>
  <property name="seekable">1</property>
  <property name="audio_index">0</property>
  <property name="video_index">-1</property>
  <property name="mute_on_pause">1</property>
  <property name="mlt_service">avformat</property>
  <property name="kdenlive:clipname"/>
  <property name="kdenlive:folderid">575</property>
  <property name="kdenlive:id">546</property>
  <property name="kdenlive:file_size">3014994</property>
  <property name="kdenlive:file_hash">f638bc12f1c14e40c6ea0291e2335f3e</property>
 </producer>
 <producer id="producer529" in="00:00:00.000" out="00:02:54.800">
  <property name="length">10489</property>
  <property name="eof">pause</property>
  <property name="resource">music/Nursery - A Little Powder.mp3</property>
  <property name="meta.media.nb_streams">1</property>
  <property name="meta.media.0.stream.type">audio</property>
  <property name="meta.media.0.codec.sample_fmt">fltp</property>
  <property name="meta.media.0.codec.sample_rate">44100</property>
  <property name="meta.media.0.codec.channels">2</property>
  <property name="meta.media.0.codec.name">mp3float</property>
  <property name="meta.media.0.codec.long_name">MP3 (MPEG audio layer 3)</property>
  <property name="meta.media.0.codec.bit_rate">128000</property>
  <property name="meta.attr.comment.markup">For track information and licensing visit www.sessions.blue</property>
  <property name="meta.attr.title.markup">A Little Powder</property>
  <property name="meta.attr.album.markup">Nursery</property>
  <property name="meta.attr.composer.markup">Galen Huckins</property>
  <property name="meta.attr.artist.markup">Blue Dot Sessions</property>
  <property name="meta.attr.publisher.markup">Blue Dot Studios</property>
  <property name="meta.attr.genre.markup">instrumental</property>
  <property name="meta.attr.TKEY.markup">C</property>
  <property name="meta.attr.TBPM.markup">146</property>
  <property name="meta.attr.TSRC.markup">USHM81825733</property>
  <property name="meta.attr.website.markup">www.sessions.blue</property>
  <property name="meta.attr.copyright.markup">(CCBYNC) 2018 Creative Commons NonCommercial-Attribution</property>
  <property name="meta.attr.date.markup">2018</property>
  <property name="seekable">1</property>
  <property name="audio_index">0</property>
  <property name="video_index">-1</property>
  <property name="mute_on_pause">1</property>
  <property name="mlt_service">avformat</property>
  <property name="kdenlive:clipname"/>
  <property name="kdenlive:folderid">575</property>
  <property name="kdenlive:id">547</property>
  <property name="kdenlive:file_size">2797688</property>
  <property name="kdenlive:file_hash">647f99d349b7d7c18f2ddbbf9e146b9b</property>
 </producer>
 <producer id="producer530" in="00:00:00.000" out="00:02:38.883">
  <property name="length">9534</property>
  <property name="eof">pause</property>
  <property name="resource">music/Nursery - Lick Stick.mp3</property>
  <property name="meta.media.nb_streams">1</property>
  <property name="meta.media.0.stream.type">audio</property>
  <property name="meta.media.0.codec.sample_fmt">fltp</property>
  <property name="meta.media.0.codec.sample_rate">44100</property>
  <property name="meta.media.0.codec.channels">2</property>
  <property name="meta.media.0.codec.name">mp3float</property>
  <property name="meta.media.0.codec.long_name">MP3 (MPEG audio layer 3)</property>
  <property name="meta.media.0.codec.bit_rate">128000</property>
  <property name="meta.attr.comment.markup">For track information and licensing visit www.sessions.blue</property>
  <property name="meta.attr.title.markup">Lick Stick</property>
  <property name="meta.attr.album.markup">Nursery</property>
  <property name="meta.attr.composer.markup">Galen Huckins</property>
  <property name="meta.attr.artist.markup">Blue Dot Sessions</property>
  <property name="meta.attr.publisher.markup">Blue Dot Studios</property>
  <property name="meta.attr.genre.markup">instrumental</property>
  <property name="meta.attr.TKEY.markup">C</property>
  <property name="meta.attr.TBPM.markup">109</property>
  <property name="meta.attr.TSRC.markup">USHM81825736</property>
  <property name="meta.attr.website.markup">www.sessions.blue</property>
  <property name="meta.attr.copyright.markup">(CCBYNC) 2018 Creative Commons NonCommercial-Attribution</property>
  <property name="meta.attr.date.markup">2018</property>
  <property name="seekable">1</property>
  <property name="audio_index">0</property>
  <property name="video_index">-1</property>
  <property name="mute_on_pause">1</property>
  <property name="mlt_service">avformat</property>
  <property name="kdenlive:clipname"/>
  <property name="kdenlive:folderid">575</property>
  <property name="kdenlive:id">548</property>
  <property name="kdenlive:file_size">2543141</property>
  <property name="kdenlive:file_hash">890700dc2513679c17d3e85f213b18d8</property>
 </producer>
 <producer id="producer531" in="00:00:00.000" out="00:04:25.133">
  <property name="length">15909</property>
  <property name="eof">pause</property>
  <property name="resource">music/Nursery - Night Light.mp3</property>
  <property name="meta.media.nb_streams">1</property>
  <property name="meta.media.0.stream.type">audio</property>
  <property name="meta.media.0.codec.sample_fmt">fltp</property>
  <property name="meta.media.0.codec.sample_rate">44100</property>
  <property name="meta.media.0.codec.channels">2</property>
  <property name="meta.media.0.codec.name">mp3float</property>
  <property name="meta.media.0.codec.long_name">MP3 (MPEG audio layer 3)</property>
  <property name="meta.media.0.codec.bit_rate">128000</property>
  <property name="meta.attr.album.markup">Nursery</property>
  <property name="meta.attr.artist.markup">Blue Dot Sessions</property>
  <property name="meta.attr.composer.markup">Galen Huckins</property>
  <property name="meta.attr.genre.markup">instrumental</property>
  <property name="meta.attr.comment.markup">For track information and licensing visit www.sessions.blue</property>
  <property name="meta.attr.title.markup">Night Light</property>
  <property name="meta.attr.track.markup">6</property>
  <property name="meta.attr.TSRC.markup">USHM81825743</property>
  <property name="meta.attr.publisher.markup">Blue Dot Studios</property>
  <property name="meta.attr.website.markup">www.sessions.blue</property>
  <property name="meta.attr.copyright.markup">(CCBYNC) 2020 Creative Commons NonCommercial-Attribution</property>
  <property name="seekable">1</property>
  <property name="audio_index">0</property>
  <property name="video_index">-1</property>
  <property name="mute_on_pause">1</property>
  <property name="mlt_service">avformat</property>
  <property name="kdenlive:clipname"/>
  <property name="kdenlive:folderid">575</property>
  <property name="kdenlive:id">549</property>
  <property name="kdenlive:file_size">4242905</property>
  <property name="kdenlive:file_hash">07f35c306665862499367216a9e09885</property>
 </producer>
 <producer id="producer532" in="00:00:00.000" out="00:02:54.683">
  <property name="length">10482</property>
  <property name="eof">pause</property>
  <property name="resource">music/Nursery - ZigZag Heart.mp3</property>
  <property name="meta.media.nb_streams">1</property>
  <property name="meta.media.0.stream.type">audio</property>
  <property name="meta.media.0.codec.sample_fmt">fltp</property>
  <property name="meta.media.0.codec.sample_rate">44100</property>
  <property name="meta.media.0.codec.channels">2</property>
  <property name="meta.media.0.codec.name">mp3float</property>
  <property name="meta.media.0.codec.long_name">MP3 (MPEG audio layer 3)</property>
  <property name="meta.media.0.codec.bit_rate">128000</property>
  <property name="meta.attr.comment.markup">For track information and licensing visit www.sessions.blue</property>
  <property name="meta.attr.title.markup">ZigZag Heart</property>
  <property name="meta.attr.album.markup">Nursery</property>
  <property name="meta.attr.composer.markup">Galen Huckins</property>
  <property name="meta.attr.artist.markup">Blue Dot Sessions</property>
  <property name="meta.attr.publisher.markup">Blue Dot Studios</property>
  <property name="meta.attr.genre.markup">instrumental</property>
  <property name="meta.attr.TKEY.markup">C</property>
  <property name="meta.attr.TBPM.markup">90</property>
  <property name="meta.attr.TSRC.markup">USHM81825732</property>
  <property name="meta.attr.website.markup">www.sessions.blue</property>
  <property name="meta.attr.copyright.markup">(CCBYNC) 2018 Creative Commons NonCommercial-Attribution</property>
  <property name="meta.attr.date.markup">2018</property>
  <property name="seekable">1</property>
  <property name="audio_index">0</property>
  <property name="video_index">-1</property>
  <property name="mute_on_pause">1</property>
  <property name="mlt_service">avformat</property>
  <property name="kdenlive:clipname"/>
  <property name="kdenlive:folderid">575</property>
  <property name="kdenlive:id">550</property>
  <property name="kdenlive:file_size">2796009</property>
  <property name="kdenlive:file_hash">9a7e1ba96769741a9429da8d689ac9cb</property>
 </producer>
 <playlist id="main_bin">
  <property name="kdenlive:folder.-1.2">video</property>
  <property name="kdenlive:folder.-1.513">audio</property>
  <property name="kdenlive:folder.-1.575">music</property>
  <property name="kdenlive:folder.2.14">ChromaticNumber</property>
  <property name="kdenlive:folder.2.31">CliqueAndIndependentSet</property>
  <property name="kdenlive:folder.2.80">Complement</property>
  <property name="kdenlive:folder.2.99">InducedSubgraph</property>
  <property name="kdenlive:folder.2.124">Introduction</property>
  <property name="kdenlive:folder.2.209">Lemma1</property>
  <property name="kdenlive:folder.2.277">Observations</property>
  <property name="kdenlive:folder.2.364">PerfectGraph</property>
  <property name="kdenlive:folder.2.387">Theorem</property>
  <property name="kdenlive:folder.2.490">Theorem2</property>
  <property name="kdenlive:docproperties.activeTrack">1</property>
  <property name="kdenlive:docproperties.audioChannels">2</property>
  <property name="kdenlive:docproperties.audioTarget">-1</property>
  <property name="kdenlive:docproperties.disablepreview">0</property>
  <property name="kdenlive:docproperties.documentid">1619043766034</property>
  <property name="kdenlive:docproperties.enableTimelineZone">0</property>
  <property name="kdenlive:docproperties.enableexternalproxy">0</property>
  <property name="kdenlive:docproperties.enableproxy">1</property>
  <property name="kdenlive:docproperties.externalproxyparams"/>
  <property name="kdenlive:docproperties.generateimageproxy">0</property>
  <property name="kdenlive:docproperties.generateproxy">0</property>
  <property name="kdenlive:docproperties.groups">[
]
</property>
  <property name="kdenlive:docproperties.kdenliveversion">21.04.0</property>
  <property name="kdenlive:docproperties.position">18345</property>
  <property name="kdenlive:docproperties.previewextension"/>
  <property name="kdenlive:docproperties.previewparameters"/>
  <property name="kdenlive:docproperties.profile">uhd_2160p_60</property>
  <property name="kdenlive:docproperties.proxyextension">mov</property>
  <property name="kdenlive:docproperties.proxyimageminsize">2000</property>
  <property name="kdenlive:docproperties.proxyimagesize">800</property>
  <property name="kdenlive:docproperties.proxyminsize">1000</property>
  <property name="kdenlive:docproperties.proxyparams">-vf scale=640:-2 -vcodec libx264 -g 1 -bf 0 -vb 0 -crf 20 -preset veryfast -acodec aac -ab 128k</property>
  <property name="kdenlive:docproperties.renderaudioquality">192</property>
  <property name="kdenlive:docproperties.rendercategory">Ultra-High Definition (4K)</property>
  <property name="kdenlive:docproperties.renderendguide">-1</property>
  <property name="kdenlive:docproperties.renderexportaudio">0</property>
  <property name="kdenlive:docproperties.renderfield">0</property>
  <property name="kdenlive:docproperties.renderguide">0</property>
  <property name="kdenlive:docproperties.renderplay">0</property>
  <property name="kdenlive:docproperties.renderprofile">MP4-H265 (HEVC)</property>
  <property name="kdenlive:docproperties.renderquality">23</property>
  <property name="kdenlive:docproperties.renderratio">1</property>
  <property name="kdenlive:docproperties.renderrescale">0</property>
  <property name="kdenlive:docproperties.renderrescaleheight">1080</property>
  <property name="kdenlive:docproperties.renderrescalewidth">1920</property>
  <property name="kdenlive:docproperties.renderscanning">0</property>
  <property name="kdenlive:docproperties.renderspeed">2</property>
  <property name="kdenlive:docproperties.renderstartguide">-1</property>
  <property name="kdenlive:docproperties.rendertcoverlay">0</property>
  <property name="kdenlive:docproperties.rendertctype">0</property>
  <property name="kdenlive:docproperties.rendertwopass">0</property>
  <property name="kdenlive:docproperties.renderurl">/home/xiaoxiae/video.mp4</property>
  <property name="kdenlive:docproperties.renderzone">0</property>
  <property name="kdenlive:docproperties.scrollPos">0</property>
  <property name="kdenlive:docproperties.seekOffset">30000</property>
  <property name="kdenlive:docproperties.version">1</property>
  <property name="kdenlive:docproperties.verticalzoom">1</property>
  <property name="kdenlive:docproperties.videoTarget">-1</property>
  <property name="kdenlive:docproperties.zonein">0</property>
  <property name="kdenlive:docproperties.zoneout">75</property>
  <property name="kdenlive:docproperties.zoom">11</property>
  <property name="kdenlive:expandedFolders">513;2</property>
  <property name="kdenlive:documentnotes"/>
  <property name="xml_retain">1</property>
  <entry producer="producer533" in="00:00:00.000" out="00:00:15.833"/>
  <entry producer="producer534" in="00:00:00.000" out="00:00:31.883"/>
  <entry producer="producer535" in="00:00:00.000" out="00:00:15.033"/>
  <entry producer="producer536" in="00:00:00.000" out="00:00:18.267"/>
  <entry producer="producer51" in="00:00:00.000" out="00:00:46.483"/>
  <entry producer="producer49" in="00:00:00.000" out="00:00:29.033"/>
  <entry producer="producer48" in="00:00:00.000" out="00:00:14.750"/>
  <entry producer="producer72" in="00:00:00.000" out="00:00:45.983"/>
  <entry producer="producer50" in="00:00:00.000" out="00:00:15.383"/>
  <entry producer="producer136" in="00:00:00.000" out="00:00:56.883"/>
  <entry producer="producer55" in="00:00:00.000" out="00:00:16.750"/>
  <entry producer="producer52" in="00:00:00.000" out="00:00:01.983"/>
  <entry producer="producer54" in="00:00:00.000" out="00:00:04.983"/>
  <entry producer="producer53" in="00:00:00.000" out="00:00:00.983"/>
  <entry producer="producer57" in="00:00:00.000" out="00:00:04.983"/>
  <entry producer="producer62" in="00:00:00.000" out="00:00:06.833"/>
  <entry producer="producer59" in="00:00:00.000" out="00:00:04.983"/>
  <entry producer="producer56" in="00:00:00.000" out="00:00:01.983"/>
  <entry producer="producer61" in="00:00:00.000" out="00:00:04.983"/>
  <entry producer="producer58" in="00:00:00.000" out="00:00:00.983"/>
  <entry producer="producer63" in="00:00:00.000" out="00:00:04.983"/>
  <entry producer="producer60" in="00:00:00.000" out="00:00:00.983"/>
  <entry producer="producer64" in="00:00:00.000" out="00:00:04.983"/>
  <entry producer="producer67" in="00:00:00.000" out="00:00:00.983"/>
  <entry producer="producer65" in="00:00:00.000" out="00:00:04.983"/>
  <entry producer="producer68" in="00:00:00.000" out="00:00:00.983"/>
  <entry producer="producer66" in="00:00:00.000" out="00:00:04.983"/>
  <entry producer="producer71" in="00:00:00.000" out="00:00:01.983"/>
  <entry producer="producer69" in="00:00:00.000" out="00:00:04.983"/>
  <entry producer="producer70" in="00:00:00.000" out="00:00:00.983"/>
  <entry producer="producer73" in="00:00:00.000" out="00:00:04.983"/>
  <entry producer="producer75" in="00:00:00.000" out="00:00:00.983"/>
  <entry producer="producer74" in="00:00:00.000" out="00:00:04.983"/>
  <entry producer="producer76" in="00:00:00.000" out="00:00:00.983"/>
  <entry producer="producer77" in="00:00:00.000" out="00:00:04.983"/>
  <entry producer="producer78" in="00:00:00.000" out="00:00:00.983"/>
  <entry producer="producer79" in="00:00:00.000" out="00:00:04.983"/>
  <entry producer="producer80" in="00:00:00.000" out="00:00:00.983"/>
  <entry producer="producer81" in="00:00:00.000" out="00:00:04.983"/>
  <entry producer="producer82" in="00:00:00.000" out="00:00:00.983"/>
  <entry producer="producer83" in="00:00:00.000" out="00:00:04.983"/>
  <entry producer="producer84" in="00:00:00.000" out="00:00:00.983"/>
  <entry producer="producer87" in="00:00:00.000" out="00:00:04.983"/>
  <entry producer="producer86" in="00:00:00.000" out="00:00:00.983"/>
  <entry producer="producer85" in="00:00:00.000" out="00:00:04.983"/>
  <entry producer="producer90" in="00:00:00.000" out="00:00:00.983"/>
  <entry producer="producer89" in="00:00:00.000" out="00:00:04.983"/>
  <entry producer="producer88" in="00:00:00.000" out="00:00:00.983"/>
  <entry producer="producer91" in="00:00:00.000" out="00:00:04.983"/>
  <entry producer="producer92" in="00:00:00.000" out="00:00:00.983"/>
  <entry producer="producer93" in="00:00:00.000" out="00:00:04.983"/>
  <entry producer="producer95" in="00:00:00.000" out="00:00:00.983"/>
  <entry producer="producer94" in="00:00:00.000" out="00:00:04.983"/>
  <entry producer="producer96" in="00:00:00.000" out="00:00:01.983"/>
  <entry producer="producer98" in="00:00:00.000" out="00:00:04.983"/>
  <entry producer="producer97" in="00:00:00.000" out="00:00:00.983"/>
  <entry producer="producer99" in="00:00:00.000" out="00:00:04.983"/>
  <entry producer="producer100" in="00:00:00.000" out="00:00:00.983"/>
  <entry producer="producer101" in="00:00:00.000" out="00:00:04.983"/>
  <entry producer="producer103" in="00:00:00.000" out="00:00:00.983"/>
  <entry producer="producer102" in="00:00:00.000" out="00:00:04.983"/>
  <entry producer="producer108" in="00:00:00.000" out="00:00:03.433"/>
  <entry producer="producer106" in="00:00:00.000" out="00:00:04.983"/>
  <entry producer="producer104" in="00:00:00.000" out="00:00:01.983"/>
  <entry producer="producer107" in="00:00:00.000" out="00:00:04.983"/>
  <entry producer="producer105" in="00:00:00.000" out="00:00:00.983"/>
  <entry producer="producer109" in="00:00:00.000" out="00:00:04.983"/>
  <entry producer="producer110" in="00:00:00.000" out="00:00:00.983"/>
  <entry producer="producer111" in="00:00:00.000" out="00:00:04.983"/>
  <entry producer="producer112" in="00:00:00.000" out="00:00:00.983"/>
  <entry producer="producer113" in="00:00:00.000" out="00:00:04.983"/>
  <entry producer="producer115" in="00:00:00.000" out="00:00:00.983"/>
  <entry producer="producer114" in="00:00:00.000" out="00:00:04.983"/>
  <entry producer="producer120" in="00:00:00.000" out="00:00:03.433"/>
  <entry producer="producer117" in="00:00:00.000" out="00:00:04.983"/>
  <entry producer="producer116" in="00:00:00.000" out="00:00:01.983"/>
  <entry producer="producer119" in="00:00:00.000" out="00:00:04.983"/>
  <entry producer="producer118" in="00:00:00.000" out="00:00:00.983"/>
  <entry producer="producer121" in="00:00:00.000" out="00:00:04.983"/>
  <entry producer="producer132" in="00:00:00.000" out="00:00:06.033"/>
  <entry producer="producer122" in="00:00:00.000" out="00:00:04.983"/>
  <entry producer="producer123" in="00:00:00.000" out="00:00:00.983"/>
  <entry producer="producer124" in="00:00:00.000" out="00:00:04.983"/>
  <entry producer="producer125" in="00:00:00.000" out="00:00:00.983"/>
  <entry producer="producer127" in="00:00:00.000" out="00:00:04.983"/>
  <entry producer="producer126" in="00:00:00.000" out="00:00:00.983"/>
  <entry producer="producer129" in="00:00:00.000" out="00:00:04.983"/>
  <entry producer="producer128" in="00:00:00.000" out="00:00:00.983"/>
  <entry producer="producer131" in="00:00:00.000" out="00:00:04.983"/>
  <entry producer="producer130" in="00:00:00.000" out="00:00:00.983"/>
  <entry producer="producer134" in="00:00:00.000" out="00:00:04.983"/>
  <entry producer="producer133" in="00:00:00.000" out="00:00:00.983"/>
  <entry producer="producer135" in="00:00:00.000" out="00:00:04.983"/>
  <entry producer="producer139" in="00:00:00.000" out="00:00:01.983"/>
  <entry producer="producer137" in="00:00:00.000" out="00:00:04.983"/>
  <entry producer="producer138" in="00:00:00.000" out="00:00:00.983"/>
  <entry producer="producer140" in="00:00:00.000" out="00:00:04.983"/>
  <entry producer="producer141" in="00:00:00.000" out="00:00:00.983"/>
  <entry producer="producer142" in="00:00:00.000" out="00:00:04.983"/>
  <entry producer="producer144" in="00:00:00.000" out="00:00:00.983"/>
  <entry producer="producer143" in="00:00:00.000" out="00:00:04.983"/>
  <entry producer="producer146" in="00:00:00.000" out="00:00:00.983"/>
  <entry producer="producer145" in="00:00:00.000" out="00:00:04.983"/>
  <entry producer="producer159" in="00:00:00.000" out="00:00:05.267"/>
  <entry producer="producer147" in="00:00:00.000" out="00:00:04.983"/>
  <entry producer="producer148" in="00:00:00.000" out="00:00:01.983"/>
  <entry producer="producer150" in="00:00:00.000" out="00:00:04.983"/>
  <entry producer="producer149" in="00:00:00.000" out="00:00:00.983"/>
  <entry producer="producer152" in="00:00:00.000" out="00:00:04.983"/>
  <entry producer="producer151" in="00:00:00.000" out="00:00:00.983"/>
  <entry producer="producer153" in="00:00:00.000" out="00:00:04.983"/>
  <entry producer="producer154" in="00:00:00.000" out="00:00:00.983"/>
  <entry producer="producer157" in="00:00:00.000" out="00:00:04.983"/>
  <entry producer="producer155" in="00:00:00.000" out="00:00:00.983"/>
  <entry producer="producer156" in="00:00:00.000" out="00:00:04.983"/>
  <entry producer="producer158" in="00:00:00.000" out="00:00:00.983"/>
  <entry producer="producer160" in="00:00:00.000" out="00:00:04.983"/>
  <entry producer="producer165" in="00:00:00.000" out="00:00:01.983"/>
  <entry producer="producer162" in="00:00:00.000" out="00:00:04.983"/>
  <entry producer="producer161" in="00:00:00.000" out="00:00:00.983"/>
  <entry producer="producer163" in="00:00:00.000" out="00:00:04.983"/>
  <entry producer="producer166" in="00:00:00.000" out="00:00:00.983"/>
  <entry producer="producer164" in="00:00:00.000" out="00:00:04.983"/>
  <entry producer="producer167" in="00:00:00.000" out="00:00:00.983"/>
  <entry producer="producer168" in="00:00:00.000" out="00:00:04.983"/>
  <entry producer="producer169" in="00:00:00.000" out="00:00:00.983"/>
  <entry producer="producer172" in="00:00:00.000" out="00:00:04.983"/>
  <entry producer="producer170" in="00:00:00.000" out="00:00:00.983"/>
  <entry producer="producer171" in="00:00:00.000" out="00:00:04.983"/>
  <entry producer="producer173" in="00:00:00.000" out="00:00:00.983"/>
  <entry producer="producer174" in="00:00:00.000" out="00:00:04.983"/>
  <entry producer="producer175" in="00:00:00.000" out="00:00:00.983"/>
  <entry producer="producer176" in="00:00:00.000" out="00:00:04.983"/>
  <entry producer="producer177" in="00:00:00.000" out="00:00:00.983"/>
  <entry producer="producer178" in="00:00:00.000" out="00:00:04.983"/>
  <entry producer="producer179" in="00:00:00.000" out="00:00:00.983"/>
  <entry producer="producer180" in="00:00:00.000" out="00:00:04.983"/>
  <entry producer="producer182" in="00:00:00.000" out="00:00:00.983"/>
  <entry producer="producer181" in="00:00:00.000" out="00:00:04.983"/>
  <entry producer="producer183" in="00:00:00.000" out="00:00:00.983"/>
  <entry producer="producer184" in="00:00:00.000" out="00:00:04.983"/>
  <entry producer="producer185" in="00:00:00.000" out="00:00:00.983"/>
  <entry producer="producer186" in="00:00:00.000" out="00:00:04.983"/>
  <entry producer="producer187" in="00:00:00.000" out="00:00:00.983"/>
  <entry producer="producer189" in="00:00:00.000" out="00:00:04.983"/>
  <entry producer="producer190" in="00:00:00.000" out="00:00:00.983"/>
  <entry producer="producer188" in="00:00:00.000" out="00:00:04.983"/>
  <entry producer="producer192" in="00:00:00.000" out="00:00:00.983"/>
  <entry producer="producer191" in="00:00:00.000" out="00:00:04.983"/>
  <entry producer="producer193" in="00:00:00.000" out="00:00:00.983"/>
  <entry producer="producer195" in="00:00:00.000" out="00:00:04.983"/>
  <entry producer="producer196" in="00:00:00.000" out="00:00:00.983"/>
  <entry producer="producer197" in="00:00:00.000" out="00:00:04.983"/>
  <entry producer="producer198" in="00:00:00.000" out="00:00:00.983"/>
  <entry producer="producer194" in="00:00:00.000" out="00:00:04.983"/>
  <entry producer="producer199" in="00:00:00.000" out="00:00:00.983"/>
  <entry producer="producer200" in="00:00:00.000" out="00:00:04.983"/>
  <entry producer="producer201" in="00:00:00.000" out="00:00:00.983"/>
  <entry producer="producer202" in="00:00:00.000" out="00:00:04.983"/>
  <entry producer="producer204" in="00:00:00.000" out="00:00:00.983"/>
  <entry producer="producer205" in="00:00:00.000" out="00:00:04.983"/>
  <entry producer="producer206" in="00:00:00.000" out="00:00:00.983"/>
  <entry producer="producer203" in="00:00:00.000" out="00:00:04.983"/>
  <entry producer="producer207" in="00:00:00.000" out="00:00:00.983"/>
  <entry producer="producer208" in="00:00:00.000" out="00:00:04.983"/>
  <entry producer="producer209" in="00:00:00.000" out="00:00:00.983"/>
  <entry producer="producer210" in="00:00:00.000" out="00:00:04.983"/>
  <entry producer="producer211" in="00:00:00.000" out="00:00:00.983"/>
  <entry producer="producer212" in="00:00:00.000" out="00:00:04.983"/>
  <entry producer="producer214" in="00:00:00.000" out="00:00:00.983"/>
  <entry producer="producer213" in="00:00:00.000" out="00:00:04.983"/>
  <entry producer="producer215" in="00:00:00.000" out="00:00:00.983"/>
  <entry producer="producer216" in="00:00:00.000" out="00:00:04.983"/>
  <entry producer="producer218" in="00:00:00.000" out="00:00:00.983"/>
  <entry producer="producer217" in="00:00:00.000" out="00:00:04.983"/>
  <entry producer="producer225" in="00:00:00.000" out="00:00:03.483"/>
  <entry producer="producer224" in="00:00:00.000" out="00:00:04.983"/>
  <entry producer="producer220" in="00:00:00.000" out="00:00:00.983"/>
  <entry producer="producer221" in="00:00:00.000" out="00:00:04.983"/>
  <entry producer="producer219" in="00:00:00.000" out="00:00:00.983"/>
  <entry producer="producer222" in="00:00:00.000" out="00:00:04.983"/>
  <entry producer="producer223" in="00:00:00.000" out="00:00:00.983"/>
  <entry producer="producer226" in="00:00:00.000" out="00:00:04.983"/>
  <entry producer="producer231" in="00:00:00.000" out="00:00:01.983"/>
  <entry producer="producer228" in="00:00:00.000" out="00:00:04.983"/>
  <entry producer="producer227" in="00:00:00.000" out="00:00:00.983"/>
  <entry producer="producer230" in="00:00:00.000" out="00:00:04.983"/>
  <entry producer="producer229" in="00:00:00.000" out="00:00:00.983"/>
  <entry producer="producer232" in="00:00:00.000" out="00:00:06.617"/>
  <entry producer="producer233" in="00:00:00.000" out="00:00:00.983"/>
  <entry producer="producer234" in="00:00:00.000" out="00:00:04.983"/>
  <entry producer="producer235" in="00:00:00.000" out="00:00:00.983"/>
  <entry producer="producer236" in="00:00:00.000" out="00:00:04.983"/>
  <entry producer="producer237" in="00:00:00.000" out="00:00:00.983"/>
  <entry producer="producer238" in="00:00:00.000" out="00:00:04.983"/>
  <entry producer="producer240" in="00:00:00.000" out="00:00:00.983"/>
  <entry producer="producer239" in="00:00:00.000" out="00:00:04.983"/>
  <entry producer="producer241" in="00:00:00.000" out="00:00:00.983"/>
  <entry producer="producer242" in="00:00:00.000" out="00:00:04.983"/>
  <entry producer="producer244" in="00:00:00.000" out="00:00:00.983"/>
  <entry producer="producer245" in="00:00:00.000" out="00:00:04.983"/>
  <entry producer="producer247" in="00:00:00.000" out="00:00:00.983"/>
  <entry producer="producer243" in="00:00:00.000" out="00:00:04.983"/>
  <entry producer="producer248" in="00:00:00.000" out="00:00:00.983"/>
  <entry producer="producer246" in="00:00:00.000" out="00:00:04.983"/>
  <entry producer="producer249" in="00:00:00.000" out="00:00:00.983"/>
  <entry producer="producer250" in="00:00:00.000" out="00:00:06.533"/>
  <entry producer="producer251" in="00:00:00.000" out="00:00:00.983"/>
  <entry producer="producer252" in="00:00:00.000" out="00:00:04.983"/>
  <entry producer="producer255" in="00:00:00.000" out="00:00:00.983"/>
  <entry producer="producer253" in="00:00:00.000" out="00:00:04.983"/>
  <entry producer="producer256" in="00:00:00.000" out="00:00:00.983"/>
  <entry producer="producer254" in="00:00:00.000" out="00:00:05.000"/>
  <entry producer="producer257" in="00:00:00.000" out="00:00:00.983"/>
  <entry producer="producer258" in="00:00:00.000" out="00:00:04.983"/>
  <entry producer="producer260" in="00:00:00.000" out="00:00:00.983"/>
  <entry producer="producer259" in="00:00:00.000" out="00:00:04.983"/>
  <entry producer="producer262" in="00:00:00.000" out="00:00:00.983"/>
  <entry producer="producer261" in="00:00:00.000" out="00:00:04.983"/>
  <entry producer="producer263" in="00:00:00.000" out="00:00:00.983"/>
  <entry producer="producer264" in="00:00:00.000" out="00:00:04.983"/>
  <entry producer="producer266" in="00:00:00.000" out="00:00:00.983"/>
  <entry producer="producer265" in="00:00:00.000" out="00:00:13.617"/>
  <entry producer="producer268" in="00:00:00.000" out="00:00:00.983"/>
  <entry producer="producer267" in="00:00:00.000" out="00:00:04.983"/>
  <entry producer="producer269" in="00:00:00.000" out="00:00:00.983"/>
  <entry producer="producer271" in="00:00:00.000" out="00:00:05.717"/>
  <entry producer="producer270" in="00:00:00.000" out="00:00:00.983"/>
  <entry producer="producer272" in="00:00:00.000" out="00:00:06.933"/>
  <entry producer="producer274" in="00:00:00.000" out="00:00:00.983"/>
  <entry producer="producer273" in="00:00:00.000" out="00:00:04.983"/>
  <entry producer="producer288" in="00:00:00.000" out="00:00:07.033"/>
  <entry producer="producer276" in="00:00:00.000" out="00:00:04.983"/>
  <entry producer="producer275" in="00:00:00.000" out="00:00:00.983"/>
  <entry producer="producer278" in="00:00:00.000" out="00:00:04.983"/>
  <entry producer="producer279" in="00:00:00.000" out="00:00:00.983"/>
  <entry producer="producer277" in="00:00:00.000" out="00:00:04.983"/>
  <entry producer="producer281" in="00:00:00.000" out="00:00:00.983"/>
  <entry producer="producer280" in="00:00:00.000" out="00:00:04.983"/>
  <entry producer="producer282" in="00:00:00.000" out="00:00:00.983"/>
  <entry producer="producer284" in="00:00:00.000" out="00:00:04.983"/>
  <entry producer="producer285" in="00:00:00.000" out="00:00:01.983"/>
  <entry producer="producer286" in="00:00:00.000" out="00:00:04.983"/>
  <entry producer="producer283" in="00:00:00.000" out="00:00:00.983"/>
  <entry producer="producer287" in="00:00:00.000" out="00:00:04.983"/>
  <entry producer="producer290" in="00:00:00.000" out="00:00:00.983"/>
  <entry producer="producer289" in="00:00:00.000" out="00:00:07.583"/>
  <entry producer="producer291" in="00:00:00.000" out="00:00:00.983"/>
  <entry producer="producer293" in="00:00:00.000" out="00:00:04.983"/>
  <entry producer="producer292" in="00:00:00.000" out="00:00:00.983"/>
  <entry producer="producer294" in="00:00:00.000" out="00:00:04.983"/>
  <entry producer="producer295" in="00:00:00.000" out="00:00:00.983"/>
  <entry producer="producer296" in="00:00:00.000" out="00:00:04.983"/>
  <entry producer="producer297" in="00:00:00.000" out="00:00:00.983"/>
  <entry producer="producer300" in="00:00:00.000" out="00:00:04.983"/>
  <entry producer="producer299" in="00:00:00.000" out="00:00:00.983"/>
  <entry producer="producer298" in="00:00:00.000" out="00:00:04.983"/>
  <entry producer="producer301" in="00:00:00.000" out="00:00:00.983"/>
  <entry producer="producer304" in="00:00:00.000" out="00:00:04.983"/>
  <entry producer="producer302" in="00:00:00.000" out="00:00:00.983"/>
  <entry producer="producer303" in="00:00:00.000" out="00:00:04.983"/>
  <entry producer="producer305" in="00:00:00.000" out="00:00:00.983"/>
  <entry producer="producer306" in="00:00:00.000" out="00:00:04.983"/>
  <entry producer="producer307" in="00:00:00.000" out="00:00:00.983"/>
  <entry producer="producer308" in="00:00:00.000" out="00:00:04.983"/>
  <entry producer="producer309" in="00:00:00.000" out="00:00:00.983"/>
  <entry producer="producer311" in="00:00:00.000" out="00:00:04.983"/>
  <entry producer="producer310" in="00:00:00.000" out="00:00:00.983"/>
  <entry producer="producer312" in="00:00:00.000" out="00:00:04.983"/>
  <entry producer="producer314" in="00:00:00.000" out="00:00:00.983"/>
  <entry producer="producer313" in="00:00:00.000" out="00:00:04.983"/>
  <entry producer="producer315" in="00:00:00.000" out="00:00:00.983"/>
  <entry producer="producer316" in="00:00:00.000" out="00:00:04.983"/>
  <entry producer="producer318" in="00:00:00.000" out="00:00:00.983"/>
  <entry producer="producer317" in="00:00:00.000" out="00:00:04.983"/>
  <entry producer="producer319" in="00:00:00.000" out="00:00:00.983"/>
  <entry producer="producer322" in="00:00:00.000" out="00:00:04.983"/>
  <entry producer="producer321" in="00:00:00.000" out="00:00:00.983"/>
  <entry producer="producer320" in="00:00:00.000" out="00:00:04.983"/>
  <entry producer="producer323" in="00:00:00.000" out="00:00:00.983"/>
  <entry producer="producer324" in="00:00:00.000" out="00:00:04.983"/>
  <entry producer="producer326" in="00:00:00.000" out="00:00:00.983"/>
  <entry producer="producer325" in="00:00:00.000" out="00:00:04.983"/>
  <entry producer="producer328" in="00:00:00.000" out="00:00:00.983"/>
  <entry producer="producer327" in="00:00:00.000" out="00:00:04.983"/>
  <entry producer="producer329" in="00:00:00.000" out="00:00:00.983"/>
  <entry producer="producer330" in="00:00:00.000" out="00:00:04.983"/>
  <entry producer="producer331" in="00:00:00.000" out="00:00:00.983"/>
  <entry producer="producer332" in="00:00:00.000" out="00:00:04.983"/>
  <entry producer="producer334" in="00:00:00.000" out="00:00:00.983"/>
  <entry producer="producer333" in="00:00:00.000" out="00:00:05.583"/>
  <entry producer="producer335" in="00:00:00.000" out="00:00:00.983"/>
  <entry producer="producer336" in="00:00:00.000" out="00:00:04.983"/>
  <entry producer="producer339" in="00:00:00.000" out="00:00:00.983"/>
  <entry producer="producer337" in="00:00:00.000" out="00:00:04.983"/>
  <entry producer="producer340" in="00:00:00.000" out="00:00:00.983"/>
  <entry producer="producer338" in="00:00:00.000" out="00:00:04.983"/>
  <entry producer="producer341" in="00:00:00.000" out="00:00:00.983"/>
  <entry producer="producer342" in="00:00:00.000" out="00:00:04.983"/>
  <entry producer="producer343" in="00:00:00.000" out="00:00:00.983"/>
  <entry producer="producer344" in="00:00:00.000" out="00:00:04.983"/>
  <entry producer="producer345" in="00:00:00.000" out="00:00:00.983"/>
  <entry producer="producer346" in="00:00:00.000" out="00:00:04.983"/>
  <entry producer="producer347" in="00:00:00.000" out="00:00:00.983"/>
  <entry producer="producer349" in="00:00:00.000" out="00:00:06.633"/>
  <entry producer="producer348" in="00:00:00.000" out="00:00:00.983"/>
  <entry producer="producer350" in="00:00:00.000" out="00:00:04.983"/>
  <entry producer="producer351" in="00:00:00.000" out="00:00:00.983"/>
  <entry producer="producer352" in="00:00:00.000" out="00:00:04.983"/>
  <entry producer="producer354" in="00:00:00.000" out="00:00:00.983"/>
  <entry producer="producer353" in="00:00:00.000" out="00:00:04.983"/>
  <entry producer="producer357" in="00:00:00.000" out="00:00:01.983"/>
  <entry producer="producer356" in="00:00:00.000" out="00:00:04.983"/>
  <entry producer="producer355" in="00:00:00.000" out="00:00:00.983"/>
  <entry producer="producer359" in="00:00:00.000" out="00:00:04.983"/>
  <entry producer="producer361" in="00:00:00.000" out="00:00:01.983"/>
  <entry producer="producer358" in="00:00:00.000" out="00:00:04.983"/>
  <entry producer="producer360" in="00:00:00.000" out="00:00:00.983"/>
  <entry producer="producer362" in="00:00:00.000" out="00:00:04.983"/>
  <entry producer="producer363" in="00:00:00.000" out="00:00:00.983"/>
  <entry producer="producer365" in="00:00:00.000" out="00:00:04.983"/>
  <entry producer="producer364" in="00:00:00.000" out="00:00:00.983"/>
  <entry producer="producer368" in="00:00:00.000" out="00:00:06.033"/>
  <entry producer="producer367" in="00:00:00.000" out="00:00:00.983"/>
  <entry producer="producer366" in="00:00:00.000" out="00:00:04.983"/>
  <entry producer="producer370" in="00:00:00.000" out="00:00:01.983"/>
  <entry producer="producer371" in="00:00:00.000" out="00:00:04.983"/>
  <entry producer="producer369" in="00:00:00.000" out="00:00:00.983"/>
  <entry producer="producer373" in="00:00:00.000" out="00:00:04.983"/>
  <entry producer="producer372" in="00:00:00.000" out="00:00:00.983"/>
  <entry producer="producer374" in="00:00:00.000" out="00:00:04.983"/>
  <entry producer="producer375" in="00:00:00.000" out="00:00:00.983"/>
  <entry producer="producer376" in="00:00:00.000" out="00:00:04.983"/>
  <entry producer="producer378" in="00:00:00.000" out="00:00:00.983"/>
  <entry producer="producer381" in="00:00:00.000" out="00:00:04.983"/>
  <entry producer="producer380" in="00:00:00.000" out="00:00:00.983"/>
  <entry producer="producer379" in="00:00:00.000" out="00:00:04.983"/>
  <entry producer="producer382" in="00:00:00.000" out="00:00:00.983"/>
  <entry producer="producer377" in="00:00:00.000" out="00:00:04.983"/>
  <entry producer="producer392" in="00:00:00.000" out="00:00:04.383"/>
  <entry producer="producer384" in="00:00:00.000" out="00:00:04.983"/>
  <entry producer="producer387" in="00:00:00.000" out="00:00:01.983"/>
  <entry producer="producer385" in="00:00:00.000" out="00:00:04.983"/>
  <entry producer="producer383" in="00:00:00.000" out="00:00:00.983"/>
  <entry producer="producer388" in="00:00:00.000" out="00:00:04.983"/>
  <entry producer="producer386" in="00:00:00.000" out="00:00:00.983"/>
  <entry producer="producer390" in="00:00:00.000" out="00:00:04.983"/>
  <entry producer="producer391" in="00:00:00.000" out="00:00:00.983"/>
  <entry producer="producer389" in="00:00:00.000" out="00:00:04.983"/>
  <entry producer="producer393" in="00:00:00.000" out="00:00:00.983"/>
  <entry producer="producer394" in="00:00:00.000" out="00:00:04.983"/>
  <entry producer="producer395" in="00:00:00.000" out="00:00:00.983"/>
  <entry producer="producer398" in="00:00:00.000" out="00:00:04.983"/>
  <entry producer="producer400" in="00:00:00.000" out="00:00:01.983"/>
  <entry producer="producer396" in="00:00:00.000" out="00:00:04.983"/>
  <entry producer="producer399" in="00:00:00.000" out="00:00:00.983"/>
  <entry producer="producer397" in="00:00:00.000" out="00:00:04.983"/>
  <entry producer="producer402" in="00:00:00.000" out="00:00:00.983"/>
  <entry producer="producer401" in="00:00:00.000" out="00:00:04.983"/>
  <entry producer="producer403" in="00:00:00.000" out="00:00:00.983"/>
  <entry producer="producer404" in="00:00:00.000" out="00:00:04.983"/>
  <entry producer="producer405" in="00:00:00.000" out="00:00:00.983"/>
  <entry producer="producer406" in="00:00:00.000" out="00:00:04.983"/>
  <entry producer="producer410" in="00:00:00.000" out="00:00:01.983"/>
  <entry producer="producer408" in="00:00:00.000" out="00:00:04.983"/>
  <entry producer="producer407" in="00:00:00.000" out="00:00:00.983"/>
  <entry producer="producer409" in="00:00:00.000" out="00:00:04.983"/>
  <entry producer="producer412" in="00:00:00.000" out="00:00:01.483"/>
  <entry producer="producer411" in="00:00:00.000" out="00:00:04.983"/>
  <entry producer="producer413" in="00:00:00.000" out="00:00:00.983"/>
  <entry producer="producer414" in="00:00:00.000" out="00:00:04.983"/>
  <entry producer="producer415" in="00:00:00.000" out="00:00:00.983"/>
  <entry producer="producer419" in="00:00:00.000" out="00:00:04.983"/>
  <entry producer="producer417" in="00:00:00.000" out="00:00:00.983"/>
  <entry producer="producer416" in="00:00:00.000" out="00:00:04.983"/>
  <entry producer="producer420" in="00:00:00.000" out="00:00:00.983"/>
  <entry producer="producer418" in="00:00:00.000" out="00:00:04.983"/>
  <entry producer="producer421" in="00:00:00.000" out="00:00:00.983"/>
  <entry producer="producer422" in="00:00:00.000" out="00:00:04.983"/>
  <entry producer="producer423" in="00:00:00.000" out="00:00:00.983"/>
  <entry producer="producer424" in="00:00:00.000" out="00:00:04.983"/>
  <entry producer="producer425" in="00:00:00.000" out="00:00:00.983"/>
  <entry producer="producer426" in="00:00:00.000" out="00:00:04.983"/>
  <entry producer="producer427" in="00:00:00.000" out="00:00:00.983"/>
  <entry producer="producer428" in="00:00:00.000" out="00:00:04.983"/>
  <entry producer="producer430" in="00:00:00.000" out="00:00:00.983"/>
  <entry producer="producer429" in="00:00:00.000" out="00:00:04.983"/>
  <entry producer="producer431" in="00:00:00.000" out="00:00:00.983"/>
  <entry producer="producer432" in="00:00:00.000" out="00:00:04.983"/>
  <entry producer="producer433" in="00:00:00.000" out="00:00:00.983"/>
  <entry producer="producer435" in="00:00:00.000" out="00:00:04.983"/>
  <entry producer="producer436" in="00:00:00.000" out="00:00:00.983"/>
  <entry producer="producer434" in="00:00:00.000" out="00:00:04.983"/>
  <entry producer="producer437" in="00:00:00.000" out="00:00:00.983"/>
  <entry producer="producer438" in="00:00:00.000" out="00:00:04.983"/>
  <entry producer="producer441" in="00:00:00.000" out="00:00:00.983"/>
  <entry producer="producer439" in="00:00:00.000" out="00:00:04.983"/>
  <entry producer="producer448" in="00:00:00.000" out="00:00:02.383"/>
  <entry producer="producer440" in="00:00:00.000" out="00:00:04.983"/>
  <entry producer="producer442" in="00:00:00.000" out="00:00:00.983"/>
  <entry producer="producer443" in="00:00:00.000" out="00:00:04.983"/>
  <entry producer="producer445" in="00:00:00.000" out="00:00:00.983"/>
  <entry producer="producer444" in="00:00:00.000" out="00:00:04.983"/>
  <entry producer="producer446" in="00:00:00.000" out="00:00:00.983"/>
  <entry producer="producer447" in="00:00:00.000" out="00:00:04.983"/>
  <entry producer="producer451" in="00:00:00.000" out="00:00:00.983"/>
  <entry producer="producer449" in="00:00:00.000" out="00:00:04.983"/>
  <entry producer="producer454" in="00:00:00.000" out="00:00:00.983"/>
  <entry producer="producer450" in="00:00:00.000" out="00:00:04.983"/>
  <entry producer="producer453" in="00:00:00.000" out="00:00:00.983"/>
  <entry producer="producer452" in="00:00:00.000" out="00:00:04.983"/>
  <entry producer="producer456" in="00:00:00.000" out="00:00:00.983"/>
  <entry producer="producer455" in="00:00:00.000" out="00:00:04.983"/>
  <entry producer="producer463" in="00:00:00.000" out="00:00:01.983"/>
  <entry producer="producer458" in="00:00:00.000" out="00:00:04.983"/>
  <entry producer="producer457" in="00:00:00.000" out="00:00:00.983"/>
  <entry producer="producer461" in="00:00:00.000" out="00:00:04.983"/>
  <entry producer="producer459" in="00:00:00.000" out="00:00:00.983"/>
  <entry producer="producer460" in="00:00:00.000" out="00:00:04.983"/>
  <entry producer="producer464" in="00:00:00.000" out="00:00:00.983"/>
  <entry producer="producer462" in="00:00:00.000" out="00:00:04.983"/>
  <entry producer="producer465" in="00:00:00.000" out="00:00:00.983"/>
  <entry producer="producer466" in="00:00:00.000" out="00:00:04.983"/>
  <entry producer="producer467" in="00:00:00.000" out="00:00:00.983"/>
  <entry producer="producer469" in="00:00:00.000" out="00:00:04.983"/>
  <entry producer="producer470" in="00:00:00.000" out="00:00:00.983"/>
  <entry producer="producer468" in="00:00:00.000" out="00:00:04.983"/>
  <entry producer="producer472" in="00:00:00.000" out="00:00:00.983"/>
  <entry producer="producer471" in="00:00:00.000" out="00:00:04.983"/>
  <entry producer="producer473" in="00:00:00.000" out="00:00:00.983"/>
  <entry producer="producer477" in="00:00:00.000" out="00:00:04.983"/>
  <entry producer="producer475" in="00:00:00.000" out="00:00:00.983"/>
  <entry producer="producer474" in="00:00:00.000" out="00:00:04.983"/>
  <entry producer="producer480" in="00:00:00.000" out="00:00:01.983"/>
  <entry producer="producer476" in="00:00:00.000" out="00:00:04.983"/>
  <entry producer="producer478" in="00:00:00.000" out="00:00:00.983"/>
  <entry producer="producer479" in="00:00:00.000" out="00:00:04.983"/>
  <entry producer="producer481" in="00:00:00.000" out="00:00:00.983"/>
  <entry producer="producer482" in="00:00:00.000" out="00:00:04.983"/>
  <entry producer="producer485" in="00:00:00.000" out="00:00:00.983"/>
  <entry producer="producer484" in="00:00:00.000" out="00:00:04.983"/>
  <entry producer="producer486" in="00:00:00.000" out="00:00:00.983"/>
  <entry producer="producer483" in="00:00:00.000" out="00:00:04.983"/>
  <entry producer="producer487" in="00:00:00.000" out="00:00:00.983"/>
  <entry producer="producer488" in="00:00:00.000" out="00:00:04.983"/>
  <entry producer="producer489" in="00:00:00.000" out="00:00:00.983"/>
  <entry producer="producer490" in="00:00:00.000" out="00:00:04.983"/>
  <entry producer="producer492" in="00:00:00.000" out="00:00:00.983"/>
  <entry producer="producer491" in="00:00:00.000" out="00:00:04.983"/>
  <entry producer="producer494" in="00:00:00.000" out="00:00:00.983"/>
  <entry producer="producer493" in="00:00:00.000" out="00:00:04.983"/>
  <entry producer="producer495" in="00:00:00.000" out="00:00:00.983"/>
  <entry producer="producer497" in="00:00:00.000" out="00:00:04.983"/>
  <entry producer="producer498" in="00:00:00.000" out="00:00:00.983"/>
  <entry producer="producer496" in="00:00:00.000" out="00:00:04.983"/>
  <entry producer="producer501" in="00:00:00.000" out="00:00:01.983"/>
  <entry producer="producer499" in="00:00:00.000" out="00:00:04.983"/>
  <entry producer="producer500" in="00:00:00.000" out="00:00:00.983"/>
  <entry producer="producer502" in="00:00:00.000" out="00:00:04.983"/>
  <entry producer="producer503" in="00:00:00.000" out="00:00:00.983"/>
  <entry producer="producer505" in="00:00:00.000" out="00:00:04.983"/>
  <entry producer="producer504" in="00:00:00.000" out="00:00:00.983"/>
  <entry producer="producer506" in="00:00:00.000" out="00:00:04.983"/>
  <entry producer="producer518" in="00:00:00.000" out="00:00:04.750"/>
  <entry producer="producer508" in="00:00:00.000" out="00:00:04.983"/>
  <entry producer="producer507" in="00:00:00.000" out="00:00:00.983"/>
  <entry producer="producer509" in="00:00:00.000" out="00:00:04.983"/>
  <entry producer="producer510" in="00:00:00.000" out="00:00:00.983"/>
  <entry producer="producer513" in="00:00:00.000" out="00:00:04.983"/>
  <entry producer="producer512" in="00:00:00.000" out="00:00:00.983"/>
  <entry producer="producer511" in="00:00:00.000" out="00:00:04.983"/>
  <entry producer="producer516" in="00:00:00.000" out="00:00:01.983"/>
  <entry producer="producer517" in="00:00:00.000" out="00:00:04.983"/>
  <entry producer="producer514" in="00:00:00.000" out="00:00:00.983"/>
  <entry producer="producer519" in="00:00:00.000" out="00:00:04.983"/>
  <entry producer="producer515" in="00:00:00.000" out="00:00:00.983"/>
  <entry producer="producer520" in="00:00:00.000" out="00:00:04.983"/>
  <entry producer="producer0" in="00:00:00.000" out="00:00:10.583"/>
  <entry producer="producer1" in="00:00:00.000" out="00:00:16.950"/>
  <entry producer="producer2" in="00:00:00.000" out="00:00:13.333"/>
  <entry producer="producer3" in="00:00:00.000" out="00:00:10.467"/>
  <entry producer="producer4" in="00:00:00.000" out="00:00:11.450"/>
  <entry producer="producer5" in="00:00:00.000" out="00:00:12.217"/>
  <entry producer="producer6" in="00:00:00.000" out="00:00:19.083"/>
  <entry producer="producer7" in="00:00:00.000" out="00:00:12.833"/>
  <entry producer="producer8" in="00:00:00.000" out="00:00:12.583"/>
  <entry producer="producer9" in="00:00:00.000" out="00:00:08.200"/>
  <entry producer="producer10" in="00:00:00.000" out="00:00:17.700"/>
  <entry producer="producer11" in="00:00:00.000" out="00:00:26.833"/>
  <entry producer="producer12" in="00:00:00.000" out="00:00:11.450"/>
  <entry producer="producer13" in="00:00:00.000" out="00:00:14.083"/>
  <entry producer="producer14" in="00:00:00.000" out="00:00:26.583"/>
  <entry producer="producer15" in="00:00:00.000" out="00:00:16.333"/>
  <entry producer="producer16" in="00:00:00.000" out="00:00:10.217"/>
  <entry producer="producer17" in="00:00:00.000" out="00:00:18.467"/>
  <entry producer="producer18" in="00:00:00.000" out="00:00:11.583"/>
  <entry producer="producer19" in="00:00:00.000" out="00:00:21.083"/>
  <entry producer="producer20" in="00:00:00.000" out="00:00:15.717"/>
  <entry producer="producer21" in="00:00:00.000" out="00:00:09.083"/>
  <entry producer="producer22" in="00:00:00.000" out="00:00:20.217"/>
  <entry producer="producer23" in="00:00:00.000" out="00:00:13.700"/>
  <entry producer="producer24" in="00:00:00.000" out="00:00:16.467"/>
  <entry producer="producer25" in="00:00:00.000" out="00:00:13.333"/>
  <entry producer="producer26" in="00:00:00.000" out="00:00:12.967"/>
  <entry producer="producer27" in="00:00:00.000" out="00:00:07.833"/>
  <entry producer="producer28" in="00:00:00.000" out="00:00:11.583"/>
  <entry producer="producer29" in="00:00:00.000" out="00:00:10.950"/>
  <entry producer="producer30" in="00:00:00.000" out="00:00:16.333"/>
  <entry producer="producer31" in="00:00:00.000" out="00:00:08.083"/>
  <entry producer="producer32" in="00:00:00.000" out="00:00:04.083"/>
  <entry producer="producer33" in="00:00:00.000" out="00:00:03.333"/>
  <entry producer="producer34" in="00:00:00.000" out="00:00:43.700"/>
  <entry producer="producer35" in="00:00:00.000" out="00:00:12.833"/>
  <entry producer="producer36" in="00:00:00.000" out="00:00:07.083"/>
  <entry producer="producer37" in="00:00:00.000" out="00:00:07.450"/>
  <entry producer="producer38" in="00:00:00.000" out="00:00:42.833"/>
  <entry producer="producer39" in="00:00:00.000" out="00:00:41.333"/>
  <entry producer="producer40" in="00:00:00.000" out="00:00:13.333"/>
  <entry producer="producer41" in="00:00:00.000" out="00:00:11.950"/>
  <entry producer="producer42" in="00:00:00.000" out="00:00:11.083"/>
  <entry producer="producer43" in="00:00:00.000" out="00:00:04.333"/>
  <entry producer="producer44" in="00:00:00.000" out="00:00:07.333"/>
  <entry producer="producer45" in="00:00:00.000" out="00:00:38.967"/>
  <entry producer="producer46" in="00:00:00.000" out="00:00:07.450"/>
  <entry producer="producer47" in="00:00:00.000" out="00:00:17.333"/>
  <entry producer="producer521" in="00:00:00.000" out="00:02:46.650"/>
  <entry producer="producer522" in="00:00:00.000" out="00:02:10.250"/>
  <entry producer="producer523" in="00:00:00.000" out="00:02:33.117"/>
  <entry producer="producer524" in="00:00:00.000" out="00:03:46.050"/>
  <entry producer="producer525" in="00:00:00.000" out="00:02:59.500"/>
  <entry producer="producer526" in="00:00:00.000" out="00:02:47.633"/>
  <entry producer="producer527" in="00:00:00.000" out="00:03:11.383"/>
  <entry producer="producer528" in="00:00:00.000" out="00:03:08.383"/>
  <entry producer="producer529" in="00:00:00.000" out="00:02:54.800"/>
  <entry producer="producer530" in="00:00:00.000" out="00:02:38.883"/>
  <entry producer="producer531" in="00:00:00.000" out="00:04:25.133"/>
  <entry producer="producer532" in="00:00:00.000" out="00:02:54.683"/>
 </playlist>
 <producer id="black_track" in="00:00:00.000" out="00:14:49.933">
  <property name="length">2147483647</property>
  <property name="eof">continue</property>
  <property name="resource">black</property>
  <property name="aspect_ratio">1</property>
  <property name="mlt_service">color</property>
  <property name="mlt_image_format">rgb24a</property>
  <property name="set.test_audio">0</property>
 </producer>
 <producer id="producer537" in="00:00:00.000" out="00:02:33.117">
  <property name="length">9188</property>
  <property name="eof">pause</property>
  <property name="resource">music/Confectionery - Maisie Dreamer.mp3</property>
  <property name="audio_index">0</property>
  <property name="video_index">-1</property>
  <property name="mute_on_pause">0</property>
  <property name="mlt_service">avformat-novalidate</property>
  <property name="meta.media.nb_streams">1</property>
  <property name="meta.media.0.stream.type">audio</property>
  <property name="meta.media.0.codec.sample_fmt">fltp</property>
  <property name="meta.media.0.codec.sample_rate">44100</property>
  <property name="meta.media.0.codec.channels">2</property>
  <property name="meta.media.0.codec.name">mp3float</property>
  <property name="meta.media.0.codec.long_name">MP3 (MPEG audio layer 3)</property>
  <property name="meta.media.0.codec.bit_rate">128000</property>
  <property name="meta.attr.comment.markup">For track information and licensing visit www.sessions.blue</property>
  <property name="meta.attr.title.markup">Maisie Dreamer</property>
  <property name="meta.attr.album.markup">Nursery</property>
  <property name="meta.attr.composer.markup">Galen Huckins</property>
  <property name="meta.attr.artist.markup">Blue Dot Sessions</property>
  <property name="meta.attr.publisher.markup">Blue Dot Studios</property>
  <property name="meta.attr.genre.markup">instrumental</property>
  <property name="meta.attr.TKEY.markup">C</property>
  <property name="meta.attr.TBPM.markup">109</property>
  <property name="meta.attr.TSRC.markup">USHM81825738</property>
  <property name="meta.attr.website.markup">www.sessions.blue</property>
  <property name="meta.attr.copyright.markup">(CCBYNC) 2018 Creative Commons NonCommercial-Attribution</property>
  <property name="meta.attr.date.markup">2018</property>
  <property name="seekable">1</property>
  <property name="kdenlive:clipname"/>
  <property name="kdenlive:folderid">575</property>
  <property name="kdenlive:id">541</property>
  <property name="kdenlive:file_size">2450780</property>
  <property name="kdenlive:file_hash">ac8f85e444fd454c4971e32c6de23466</property>
  <property name="global_feed">1</property>
  <property name="xml">was here</property>
  <property name="set.test_audio">0</property>
  <property name="set.test_image">1</property>
 </producer>
 <playlist id="playlist0">
  <property name="kdenlive:audio_track">1</property>
  <entry producer="producer537" in="00:00:00.000" out="00:02:33.117">
   <property name="kdenlive:id">541</property>
  </entry>
 </playlist>
 <playlist id="playlist1"/>
 <tractor id="tractor0" in="00:00:00.000" out="00:02:33.117">
  <property name="kdenlive:audio_track">1</property>
  <property name="kdenlive:trackheight">67</property>
  <property name="kdenlive:timeline_active">1</property>
  <property name="kdenlive:collapsed">0</property>
  <property name="kdenlive:thumbs_format"/>
  <property name="kdenlive:audio_rec"/>
  <track hide="video" producer="playlist0"/>
  <track hide="video" producer="playlist1"/>
  <filter id="filter0">
   <property name="window">75</property>
   <property name="max_gain">20dB</property>
   <property name="level">-17.1932</property>
   <property name="mlt_service">volume</property>
   <property name="internal_added">237</property>
   <property name="disable">0</property>
  </filter>
  <filter id="filter1">
   <property name="channel">-1</property>
   <property name="mlt_service">panner</property>
   <property name="internal_added">237</property>
   <property name="start">0.5</property>
   <property name="disable">1</property>
  </filter>
  <filter id="filter2">
   <property name="iec_scale">0</property>
   <property name="mlt_service">audiolevel</property>
   <property name="disable">1</property>
  </filter>
 </tractor>
 <producer id="producer538" in="00:00:00.000" out="00:00:12.217">
  <property name="length">734</property>
  <property name="eof">pause</property>
  <property name="resource">audio/i1.wav</property>
  <property name="audio_index">0</property>
  <property name="video_index">-1</property>
  <property name="mute_on_pause">0</property>
  <property name="mlt_service">avformat-novalidate</property>
  <property name="meta.media.nb_streams">1</property>
  <property name="meta.media.0.stream.type">audio</property>
  <property name="meta.media.0.codec.sample_fmt">s16</property>
  <property name="meta.media.0.codec.sample_rate">48000</property>
  <property name="meta.media.0.codec.channels">2</property>
  <property name="meta.media.0.codec.name">pcm_s16le</property>
  <property name="meta.media.0.codec.long_name">PCM signed 16-bit little-endian</property>
  <property name="meta.media.0.codec.bit_rate">1536000</property>
  <property name="seekable">1</property>
  <property name="kdenlive:clipname"/>
  <property name="kdenlive:folderid">513</property>
  <property name="kdenlive:id">495</property>
  <property name="kdenlive:file_size">2347756</property>
  <property name="kdenlive:file_hash">81ab7e44170d0dd11ab58cb8fef7b475</property>
  <property name="global_feed">1</property>
  <property name="xml">was here</property>
  <property name="set.test_audio">0</property>
  <property name="set.test_image">1</property>
 </producer>
 <producer id="producer539" in="00:00:00.000" out="00:00:19.083">
  <property name="length">1146</property>
  <property name="eof">pause</property>
  <property name="resource">audio/i2.wav</property>
  <property name="audio_index">0</property>
  <property name="video_index">-1</property>
  <property name="mute_on_pause">0</property>
  <property name="mlt_service">avformat-novalidate</property>
  <property name="meta.media.nb_streams">1</property>
  <property name="meta.media.0.stream.type">audio</property>
  <property name="meta.media.0.codec.sample_fmt">s16</property>
  <property name="meta.media.0.codec.sample_rate">48000</property>
  <property name="meta.media.0.codec.channels">2</property>
  <property name="meta.media.0.codec.name">pcm_s16le</property>
  <property name="meta.media.0.codec.long_name">PCM signed 16-bit little-endian</property>
  <property name="meta.media.0.codec.bit_rate">1536000</property>
  <property name="seekable">1</property>
  <property name="kdenlive:clipname"/>
  <property name="kdenlive:folderid">513</property>
  <property name="kdenlive:id">496</property>
  <property name="kdenlive:file_size">3667212</property>
  <property name="kdenlive:file_hash">f909ba44ebb582e00c4b89426922a200</property>
  <property name="global_feed">1</property>
  <property name="xml">was here</property>
  <property name="set.test_audio">0</property>
  <property name="set.test_image">1</property>
 </producer>
 <producer id="producer540" in="00:00:00.000" out="00:00:12.833">
  <property name="length">771</property>
  <property name="eof">pause</property>
  <property name="resource">audio/i3.wav</property>
  <property name="audio_index">0</property>
  <property name="video_index">-1</property>
  <property name="mute_on_pause">0</property>
  <property name="mlt_service">avformat-novalidate</property>
  <property name="meta.media.nb_streams">1</property>
  <property name="meta.media.0.stream.type">audio</property>
  <property name="meta.media.0.codec.sample_fmt">s16</property>
  <property name="meta.media.0.codec.sample_rate">48000</property>
  <property name="meta.media.0.codec.channels">2</property>
  <property name="meta.media.0.codec.name">pcm_s16le</property>
  <property name="meta.media.0.codec.long_name">PCM signed 16-bit little-endian</property>
  <property name="meta.media.0.codec.bit_rate">1536000</property>
  <property name="seekable">1</property>
  <property name="kdenlive:clipname"/>
  <property name="kdenlive:folderid">513</property>
  <property name="kdenlive:id">497</property>
  <property name="kdenlive:file_size">2467148</property>
  <property name="kdenlive:file_hash">6d2f490d4695b6ea87460ab81dd21585</property>
  <property name="global_feed">1</property>
  <property name="xml">was here</property>
  <property name="set.test_audio">0</property>
  <property name="set.test_image">1</property>
 </producer>
 <producer id="producer541" in="00:00:00.000" out="00:00:10.583">
  <property name="length">636</property>
  <property name="eof">pause</property>
  <property name="resource">audio/c1.wav</property>
  <property name="audio_index">0</property>
  <property name="video_index">-1</property>
  <property name="mute_on_pause">0</property>
  <property name="mlt_service">avformat-novalidate</property>
  <property name="meta.media.nb_streams">1</property>
  <property name="meta.media.0.stream.type">audio</property>
  <property name="meta.media.0.codec.sample_fmt">s16</property>
  <property name="meta.media.0.codec.sample_rate">48000</property>
  <property name="meta.media.0.codec.channels">2</property>
  <property name="meta.media.0.codec.name">pcm_s16le</property>
  <property name="meta.media.0.codec.long_name">PCM signed 16-bit little-endian</property>
  <property name="meta.media.0.codec.bit_rate">1536000</property>
  <property name="seekable">1</property>
  <property name="kdenlive:clipname"/>
  <property name="kdenlive:folderid">513</property>
  <property name="kdenlive:id">489</property>
  <property name="kdenlive:file_size">2034060</property>
  <property name="kdenlive:file_hash">8ff6acc06925abcafc5b5990e38e7b42</property>
  <property name="global_feed">1</property>
  <property name="xml">was here</property>
  <property name="set.test_audio">0</property>
  <property name="set.test_image">1</property>
 </producer>
 <producer id="producer542" in="00:00:00.000" out="00:00:16.950">
  <property name="length">1018</property>
  <property name="eof">pause</property>
  <property name="resource">audio/cis1.wav</property>
  <property name="audio_index">0</property>
  <property name="video_index">-1</property>
  <property name="mute_on_pause">0</property>
  <property name="mlt_service">avformat-novalidate</property>
  <property name="meta.media.nb_streams">1</property>
  <property name="meta.media.0.stream.type">audio</property>
  <property name="meta.media.0.codec.sample_fmt">s16</property>
  <property name="meta.media.0.codec.sample_rate">48000</property>
  <property name="meta.media.0.codec.channels">2</property>
  <property name="meta.media.0.codec.name">pcm_s16le</property>
  <property name="meta.media.0.codec.long_name">PCM signed 16-bit little-endian</property>
  <property name="meta.media.0.codec.bit_rate">1536000</property>
  <property name="seekable">1</property>
  <property name="kdenlive:clipname"/>
  <property name="kdenlive:folderid">513</property>
  <property name="kdenlive:id">491</property>
  <property name="kdenlive:file_size">3258412</property>
  <property name="kdenlive:file_hash">787844bdb566a21a8374568c85575f83</property>
  <property name="global_feed">1</property>
  <property name="xml">was here</property>
  <property name="set.test_audio">0</property>
  <property name="set.test_image">1</property>
 </producer>
 <producer id="producer543" in="00:00:00.000" out="00:00:13.333">
  <property name="length">801</property>
  <property name="eof">pause</property>
  <property name="resource">audio/cis2.wav</property>
  <property name="audio_index">0</property>
  <property name="video_index">-1</property>
  <property name="mute_on_pause">0</property>
  <property name="mlt_service">avformat-novalidate</property>
  <property name="meta.media.nb_streams">1</property>
  <property name="meta.media.0.stream.type">audio</property>
  <property name="meta.media.0.codec.sample_fmt">s16</property>
  <property name="meta.media.0.codec.sample_rate">48000</property>
  <property name="meta.media.0.codec.channels">2</property>
  <property name="meta.media.0.codec.name">pcm_s16le</property>
  <property name="meta.media.0.codec.long_name">PCM signed 16-bit little-endian</property>
  <property name="meta.media.0.codec.bit_rate">1536000</property>
  <property name="seekable">1</property>
  <property name="kdenlive:clipname"/>
  <property name="kdenlive:folderid">513</property>
  <property name="kdenlive:id">492</property>
  <property name="kdenlive:file_size">2562252</property>
  <property name="kdenlive:file_hash">021bcb27a19d7abf0416e5cda62bc066</property>
  <property name="global_feed">1</property>
  <property name="xml">was here</property>
  <property name="set.test_audio">0</property>
  <property name="set.test_image">1</property>
 </producer>
 <producer id="producer544" in="00:00:00.000" out="00:00:10.467">
  <property name="length">629</property>
  <property name="eof">pause</property>
  <property name="resource">audio/cis3.wav</property>
  <property name="audio_index">0</property>
  <property name="video_index">-1</property>
  <property name="mute_on_pause">0</property>
  <property name="mlt_service">avformat-novalidate</property>
  <property name="meta.media.nb_streams">1</property>
  <property name="meta.media.0.stream.type">audio</property>
  <property name="meta.media.0.codec.sample_fmt">s16</property>
  <property name="meta.media.0.codec.sample_rate">48000</property>
  <property name="meta.media.0.codec.channels">2</property>
  <property name="meta.media.0.codec.name">pcm_s16le</property>
  <property name="meta.media.0.codec.long_name">PCM signed 16-bit little-endian</property>
  <property name="meta.media.0.codec.bit_rate">1536000</property>
  <property name="seekable">1</property>
  <property name="kdenlive:clipname"/>
  <property name="kdenlive:folderid">513</property>
  <property name="kdenlive:id">493</property>
  <property name="kdenlive:file_size">2011820</property>
  <property name="kdenlive:file_hash">d31d1aa2d84f6fb85e7f40168d543d15</property>
  <property name="global_feed">1</property>
  <property name="xml">was here</property>
  <property name="set.test_audio">0</property>
  <property name="set.test_image">1</property>
 </producer>
 <producer id="producer545" in="00:00:00.000" out="00:00:12.583">
  <property name="length">756</property>
  <property name="eof">pause</property>
  <property name="resource">audio/is1.wav</property>
  <property name="audio_index">0</property>
  <property name="video_index">-1</property>
  <property name="mute_on_pause">0</property>
  <property name="mlt_service">avformat-novalidate</property>
  <property name="meta.media.nb_streams">1</property>
  <property name="meta.media.0.stream.type">audio</property>
  <property name="meta.media.0.codec.sample_fmt">s16</property>
  <property name="meta.media.0.codec.sample_rate">48000</property>
  <property name="meta.media.0.codec.channels">2</property>
  <property name="meta.media.0.codec.name">pcm_s16le</property>
  <property name="meta.media.0.codec.long_name">PCM signed 16-bit little-endian</property>
  <property name="meta.media.0.codec.bit_rate">1536000</property>
  <property name="seekable">1</property>
  <property name="kdenlive:clipname"/>
  <property name="kdenlive:folderid">513</property>
  <property name="kdenlive:id">498</property>
  <property name="kdenlive:file_size">2418572</property>
  <property name="kdenlive:file_hash">8c96ff5bed7383c77f0646cef4236ab2</property>
  <property name="global_feed">1</property>
  <property name="xml">was here</property>
  <property name="set.test_audio">0</property>
  <property name="set.test_image">1</property>
 </producer>
 <producer id="producer546" in="00:00:00.000" out="00:00:08.200">
  <property name="length">493</property>
  <property name="eof">pause</property>
  <property name="resource">audio/is2.wav</property>
  <property name="audio_index">0</property>
  <property name="video_index">-1</property>
  <property name="mute_on_pause">0</property>
  <property name="mlt_service">avformat-novalidate</property>
  <property name="meta.media.nb_streams">1</property>
  <property name="meta.media.0.stream.type">audio</property>
  <property name="meta.media.0.codec.sample_fmt">s16</property>
  <property name="meta.media.0.codec.sample_rate">48000</property>
  <property name="meta.media.0.codec.channels">2</property>
  <property name="meta.media.0.codec.name">pcm_s16le</property>
  <property name="meta.media.0.codec.long_name">PCM signed 16-bit little-endian</property>
  <property name="meta.media.0.codec.bit_rate">1536000</property>
  <property name="seekable">1</property>
  <property name="kdenlive:clipname"/>
  <property name="kdenlive:folderid">513</property>
  <property name="kdenlive:id">499</property>
  <property name="kdenlive:file_size">1578732</property>
  <property name="kdenlive:file_hash">32636a629ed48b8a98b8524303e2137c</property>
  <property name="global_feed">1</property>
  <property name="xml">was here</property>
  <property name="set.test_audio">0</property>
  <property name="set.test_image">1</property>
 </producer>
 <producer id="producer547" in="00:00:00.000" out="00:00:11.450">
  <property name="length">688</property>
  <property name="eof">pause</property>
  <property name="resource">audio/cn1.wav</property>
  <property name="audio_index">0</property>
  <property name="video_index">-1</property>
  <property name="mute_on_pause">0</property>
  <property name="mlt_service">avformat-novalidate</property>
  <property name="meta.media.nb_streams">1</property>
  <property name="meta.media.0.stream.type">audio</property>
  <property name="meta.media.0.codec.sample_fmt">s16</property>
  <property name="meta.media.0.codec.sample_rate">48000</property>
  <property name="meta.media.0.codec.channels">2</property>
  <property name="meta.media.0.codec.name">pcm_s16le</property>
  <property name="meta.media.0.codec.long_name">PCM signed 16-bit little-endian</property>
  <property name="meta.media.0.codec.bit_rate">1536000</property>
  <property name="seekable">1</property>
  <property name="kdenlive:clipname"/>
  <property name="kdenlive:folderid">513</property>
  <property name="kdenlive:id">494</property>
  <property name="kdenlive:file_size">2202028</property>
  <property name="kdenlive:file_hash">58e627e8053b41bd89dcde7f3615268c</property>
  <property name="global_feed">1</property>
  <property name="xml">was here</property>
  <property name="set.test_audio">0</property>
  <property name="set.test_image">1</property>
 </producer>
 <producer id="producer548" in="00:00:00.000" out="00:00:12.967">
  <property name="length">779</property>
  <property name="eof">pause</property>
  <property name="resource">audio/p1.wav</property>
  <property name="audio_index">0</property>
  <property name="video_index">-1</property>
  <property name="mute_on_pause">0</property>
  <property name="mlt_service">avformat-novalidate</property>
  <property name="meta.media.nb_streams">1</property>
  <property name="meta.media.0.stream.type">audio</property>
  <property name="meta.media.0.codec.sample_fmt">s16</property>
  <property name="meta.media.0.codec.sample_rate">48000</property>
  <property name="meta.media.0.codec.channels">2</property>
  <property name="meta.media.0.codec.name">pcm_s16le</property>
  <property name="meta.media.0.codec.long_name">PCM signed 16-bit little-endian</property>
  <property name="meta.media.0.codec.bit_rate">1536000</property>
  <property name="seekable">1</property>
  <property name="kdenlive:clipname"/>
  <property name="kdenlive:folderid">513</property>
  <property name="kdenlive:id">517</property>
  <property name="kdenlive:file_size">2491436</property>
  <property name="kdenlive:file_hash">e0d1b58bc11c5931c7d6ebddec7ef019</property>
  <property name="global_feed">1</property>
  <property name="xml">was here</property>
  <property name="set.test_audio">0</property>
  <property name="set.test_image">1</property>
 </producer>
 <producer id="producer549" in="00:00:00.000" out="00:00:09.083">
  <property name="length">546</property>
  <property name="eof">pause</property>
  <property name="resource">audio/o1.wav</property>
  <property name="audio_index">0</property>
  <property name="video_index">-1</property>
  <property name="mute_on_pause">0</property>
  <property name="mlt_service">avformat-novalidate</property>
  <property name="meta.media.nb_streams">1</property>
  <property name="meta.media.0.stream.type">audio</property>
  <property name="meta.media.0.codec.sample_fmt">s16</property>
  <property name="meta.media.0.codec.sample_rate">48000</property>
  <property name="meta.media.0.codec.channels">2</property>
  <property name="meta.media.0.codec.name">pcm_s16le</property>
  <property name="meta.media.0.codec.long_name">PCM signed 16-bit little-endian</property>
  <property name="meta.media.0.codec.bit_rate">1536000</property>
  <property name="seekable">1</property>
  <property name="kdenlive:clipname"/>
  <property name="kdenlive:folderid">513</property>
  <property name="kdenlive:id">511</property>
  <property name="kdenlive:file_size">1746700</property>
  <property name="kdenlive:file_hash">729ad56e739c23519c91f75c85fe2d06</property>
  <property name="global_feed">1</property>
  <property name="xml">was here</property>
  <property name="set.test_audio">0</property>
  <property name="set.test_image">1</property>
 </producer>
 <producer id="producer550" in="00:00:00.000" out="00:00:20.217">
  <property name="length">1214</property>
  <property name="eof">pause</property>
  <property name="resource">audio/o2.wav</property>
  <property name="audio_index">0</property>
  <property name="video_index">-1</property>
  <property name="mute_on_pause">0</property>
  <property name="mlt_service">avformat-novalidate</property>
  <property name="meta.media.nb_streams">1</property>
  <property name="meta.media.0.stream.type">audio</property>
  <property name="meta.media.0.codec.sample_fmt">s16</property>
  <property name="meta.media.0.codec.sample_rate">48000</property>
  <property name="meta.media.0.codec.channels">2</property>
  <property name="meta.media.0.codec.name">pcm_s16le</property>
  <property name="meta.media.0.codec.long_name">PCM signed 16-bit little-endian</property>
  <property name="meta.media.0.codec.bit_rate">1536000</property>
  <property name="seekable">1</property>
  <property name="kdenlive:clipname"/>
  <property name="kdenlive:folderid">513</property>
  <property name="kdenlive:id">512</property>
  <property name="kdenlive:file_size">3883756</property>
  <property name="kdenlive:file_hash">0f40440d9baf07ed71425641a0868db0</property>
  <property name="global_feed">1</property>
  <property name="xml">was here</property>
  <property name="set.test_audio">0</property>
  <property name="set.test_image">1</property>
 </producer>
 <producer id="producer551" in="00:00:00.000" out="00:00:13.700">
  <property name="length">823</property>
  <property name="eof">pause</property>
  <property name="resource">audio/o3.wav</property>
  <property name="audio_index">0</property>
  <property name="video_index">-1</property>
  <property name="mute_on_pause">0</property>
  <property name="mlt_service">avformat-novalidate</property>
  <property name="meta.media.nb_streams">1</property>
  <property name="meta.media.0.stream.type">audio</property>
  <property name="meta.media.0.codec.sample_fmt">s16</property>
  <property name="meta.media.0.codec.sample_rate">48000</property>
  <property name="meta.media.0.codec.channels">2</property>
  <property name="meta.media.0.codec.name">pcm_s16le</property>
  <property name="meta.media.0.codec.long_name">PCM signed 16-bit little-endian</property>
  <property name="meta.media.0.codec.bit_rate">1536000</property>
  <property name="seekable">1</property>
  <property name="kdenlive:clipname"/>
  <property name="kdenlive:folderid">513</property>
  <property name="kdenlive:id">514</property>
  <property name="kdenlive:file_size">2635116</property>
  <property name="kdenlive:file_hash">c1a73298b073aba4f96d98b691609a96</property>
  <property name="global_feed">1</property>
  <property name="xml">was here</property>
  <property name="set.test_audio">0</property>
  <property name="set.test_image">1</property>
 </producer>
 <producer id="producer552" in="00:00:00.000" out="00:00:16.467">
  <property name="length">989</property>
  <property name="eof">pause</property>
  <property name="resource">audio/o4.wav</property>
  <property name="audio_index">0</property>
  <property name="video_index">-1</property>
  <property name="mute_on_pause">0</property>
  <property name="mlt_service">avformat-novalidate</property>
  <property name="meta.media.nb_streams">1</property>
  <property name="meta.media.0.stream.type">audio</property>
  <property name="meta.media.0.codec.sample_fmt">s16</property>
  <property name="meta.media.0.codec.sample_rate">48000</property>
  <property name="meta.media.0.codec.channels">2</property>
  <property name="meta.media.0.codec.name">pcm_s16le</property>
  <property name="meta.media.0.codec.long_name">PCM signed 16-bit little-endian</property>
  <property name="meta.media.0.codec.bit_rate">1536000</property>
  <property name="seekable">1</property>
  <property name="kdenlive:clipname"/>
  <property name="kdenlive:folderid">513</property>
  <property name="kdenlive:id">515</property>
  <property name="kdenlive:file_size">3163308</property>
  <property name="kdenlive:file_hash">e3e2c471b3cd2ab87e476fe8e2f3086e</property>
  <property name="global_feed">1</property>
  <property name="xml">was here</property>
  <property name="set.test_audio">0</property>
  <property name="set.test_image">1</property>
 </producer>
 <producer id="producer553" in="00:00:00.000" out="00:00:13.333">
  <property name="length">801</property>
  <property name="eof">pause</property>
  <property name="resource">audio/o5.wav</property>
  <property name="audio_index">0</property>
  <property name="video_index">-1</property>
  <property name="mute_on_pause">0</property>
  <property name="mlt_service">avformat-novalidate</property>
  <property name="meta.media.nb_streams">1</property>
  <property name="meta.media.0.stream.type">audio</property>
  <property name="meta.media.0.codec.sample_fmt">s16</property>
  <property name="meta.media.0.codec.sample_rate">48000</property>
  <property name="meta.media.0.codec.channels">2</property>
  <property name="meta.media.0.codec.name">pcm_s16le</property>
  <property name="meta.media.0.codec.long_name">PCM signed 16-bit little-endian</property>
  <property name="meta.media.0.codec.bit_rate">1536000</property>
  <property name="seekable">1</property>
  <property name="kdenlive:clipname"/>
  <property name="kdenlive:folderid">513</property>
  <property name="kdenlive:id">516</property>
  <property name="kdenlive:file_size">2562252</property>
  <property name="kdenlive:file_hash">6ccf515e63353bf787a71fc78cdfca3d</property>
  <property name="global_feed">1</property>
  <property name="xml">was here</property>
  <property name="set.test_audio">0</property>
  <property name="set.test_image">1</property>
 </producer>
 <producer id="producer554" in="00:00:00.000" out="00:00:17.700">
  <property name="length">1063</property>
  <property name="eof">pause</property>
  <property name="resource">audio/lone1.wav</property>
  <property name="audio_index">0</property>
  <property name="video_index">-1</property>
  <property name="mute_on_pause">0</property>
  <property name="mlt_service">avformat-novalidate</property>
  <property name="meta.media.nb_streams">1</property>
  <property name="meta.media.0.stream.type">audio</property>
  <property name="meta.media.0.codec.sample_fmt">s16</property>
  <property name="meta.media.0.codec.sample_rate">48000</property>
  <property name="meta.media.0.codec.channels">2</property>
  <property name="meta.media.0.codec.name">pcm_s16le</property>
  <property name="meta.media.0.codec.long_name">PCM signed 16-bit little-endian</property>
  <property name="meta.media.0.codec.bit_rate">1536000</property>
  <property name="seekable">1</property>
  <property name="kdenlive:clipname"/>
  <property name="kdenlive:folderid">513</property>
  <property name="kdenlive:id">500</property>
  <property name="kdenlive:file_size">3402092</property>
  <property name="kdenlive:file_hash">4d9e80781f075f1a29762fb706b4725a</property>
  <property name="global_feed">1</property>
  <property name="xml">was here</property>
  <property name="set.test_audio">0</property>
  <property name="set.test_image">1</property>
 </producer>
 <producer id="producer555" in="00:00:00.000" out="00:00:26.833">
  <property name="length">1611</property>
  <property name="eof">pause</property>
  <property name="resource">audio/lone2.wav</property>
  <property name="audio_index">0</property>
  <property name="video_index">-1</property>
  <property name="mute_on_pause">0</property>
  <property name="mlt_service">avformat-novalidate</property>
  <property name="meta.media.nb_streams">1</property>
  <property name="meta.media.0.stream.type">audio</property>
  <property name="meta.media.0.codec.sample_fmt">s16</property>
  <property name="meta.media.0.codec.sample_rate">48000</property>
  <property name="meta.media.0.codec.channels">2</property>
  <property name="meta.media.0.codec.name">pcm_s16le</property>
  <property name="meta.media.0.codec.long_name">PCM signed 16-bit little-endian</property>
  <property name="meta.media.0.codec.bit_rate">1536000</property>
  <property name="seekable">1</property>
  <property name="kdenlive:clipname"/>
  <property name="kdenlive:folderid">513</property>
  <property name="kdenlive:id">501</property>
  <property name="kdenlive:file_size">5154636</property>
  <property name="kdenlive:file_hash">dc1121ca02fdffce4f8fa70842a1ec84</property>
  <property name="global_feed">1</property>
  <property name="xml">was here</property>
  <property name="set.test_audio">0</property>
  <property name="set.test_image">1</property>
 </producer>
 <producer id="producer556" in="00:00:00.000" out="00:00:11.450">
  <property name="length">688</property>
  <property name="eof">pause</property>
  <property name="resource">audio/lone3.wav</property>
  <property name="audio_index">0</property>
  <property name="video_index">-1</property>
  <property name="mute_on_pause">0</property>
  <property name="mlt_service">avformat-novalidate</property>
  <property name="meta.media.nb_streams">1</property>
  <property name="meta.media.0.stream.type">audio</property>
  <property name="meta.media.0.codec.sample_fmt">s16</property>
  <property name="meta.media.0.codec.sample_rate">48000</property>
  <property name="meta.media.0.codec.channels">2</property>
  <property name="meta.media.0.codec.name">pcm_s16le</property>
  <property name="meta.media.0.codec.long_name">PCM signed 16-bit little-endian</property>
  <property name="meta.media.0.codec.bit_rate">1536000</property>
  <property name="seekable">1</property>
  <property name="kdenlive:clipname"/>
  <property name="kdenlive:folderid">513</property>
  <property name="kdenlive:id">502</property>
  <property name="kdenlive:file_size">2202028</property>
  <property name="kdenlive:file_hash">2d76c7ce0c8fe0df4854acf0dd913862</property>
  <property name="global_feed">1</property>
  <property name="xml">was here</property>
  <property name="set.test_audio">0</property>
  <property name="set.test_image">1</property>
 </producer>
 <producer id="producer557" in="00:00:00.000" out="00:00:14.083">
  <property name="length">846</property>
  <property name="eof">pause</property>
  <property name="resource">audio/lone4.wav</property>
  <property name="audio_index">0</property>
  <property name="video_index">-1</property>
  <property name="mute_on_pause">0</property>
  <property name="mlt_service">avformat-novalidate</property>
  <property name="meta.media.nb_streams">1</property>
  <property name="meta.media.0.stream.type">audio</property>
  <property name="meta.media.0.codec.sample_fmt">s16</property>
  <property name="meta.media.0.codec.sample_rate">48000</property>
  <property name="meta.media.0.codec.channels">2</property>
  <property name="meta.media.0.codec.name">pcm_s16le</property>
  <property name="meta.media.0.codec.long_name">PCM signed 16-bit little-endian</property>
  <property name="meta.media.0.codec.bit_rate">1536000</property>
  <property name="seekable">1</property>
  <property name="kdenlive:clipname"/>
  <property name="kdenlive:folderid">513</property>
  <property name="kdenlive:id">503</property>
  <property name="kdenlive:file_size">2705932</property>
  <property name="kdenlive:file_hash">8a9bd231586d92aa8ff969dfcd5b31e9</property>
  <property name="global_feed">1</property>
  <property name="xml">was here</property>
  <property name="set.test_audio">0</property>
  <property name="set.test_image">1</property>
 </producer>
 <producer id="producer558" in="00:00:00.000" out="00:00:26.583">
  <property name="length">1596</property>
  <property name="eof">pause</property>
  <property name="resource">audio/lone5.wav</property>
  <property name="audio_index">0</property>
  <property name="video_index">-1</property>
  <property name="mute_on_pause">0</property>
  <property name="mlt_service">avformat-novalidate</property>
  <property name="meta.media.nb_streams">1</property>
  <property name="meta.media.0.stream.type">audio</property>
  <property name="meta.media.0.codec.sample_fmt">s16</property>
  <property name="meta.media.0.codec.sample_rate">48000</property>
  <property name="meta.media.0.codec.channels">2</property>
  <property name="meta.media.0.codec.name">pcm_s16le</property>
  <property name="meta.media.0.codec.long_name">PCM signed 16-bit little-endian</property>
  <property name="meta.media.0.codec.bit_rate">1536000</property>
  <property name="seekable">1</property>
  <property name="kdenlive:clipname"/>
  <property name="kdenlive:folderid">513</property>
  <property name="kdenlive:id">504</property>
  <property name="kdenlive:file_size">5106060</property>
  <property name="kdenlive:file_hash">74ba82d79c5f1faeb3027c8c0dd73619</property>
  <property name="global_feed">1</property>
  <property name="xml">was here</property>
  <property name="set.test_audio">0</property>
  <property name="set.test_image">1</property>
 </producer>
 <producer id="producer559" in="00:00:00.000" out="00:00:16.333">
  <property name="length">981</property>
  <property name="eof">pause</property>
  <property name="resource">audio/ltwo1.wav</property>
  <property name="audio_index">0</property>
  <property name="video_index">-1</property>
  <property name="mute_on_pause">0</property>
  <property name="mlt_service">avformat-novalidate</property>
  <property name="meta.media.nb_streams">1</property>
  <property name="meta.media.0.stream.type">audio</property>
  <property name="meta.media.0.codec.sample_fmt">s16</property>
  <property name="meta.media.0.codec.sample_rate">48000</property>
  <property name="meta.media.0.codec.channels">2</property>
  <property name="meta.media.0.codec.name">pcm_s16le</property>
  <property name="meta.media.0.codec.long_name">PCM signed 16-bit little-endian</property>
  <property name="meta.media.0.codec.bit_rate">1536000</property>
  <property name="seekable">1</property>
  <property name="kdenlive:clipname"/>
  <property name="kdenlive:folderid">513</property>
  <property name="kdenlive:id">505</property>
  <property name="kdenlive:file_size">3139020</property>
  <property name="kdenlive:file_hash">ed2df8b0759ab87b3235b138f65cb38d</property>
  <property name="global_feed">1</property>
  <property name="xml">was here</property>
  <property name="set.test_audio">0</property>
  <property name="set.test_image">1</property>
 </producer>
 <producer id="producer560" in="00:00:00.000" out="00:00:10.217">
  <property name="length">614</property>
  <property name="eof">pause</property>
  <property name="resource">audio/ltwo2.wav</property>
  <property name="audio_index">0</property>
  <property name="video_index">-1</property>
  <property name="mute_on_pause">0</property>
  <property name="mlt_service">avformat-novalidate</property>
  <property name="meta.media.nb_streams">1</property>
  <property name="meta.media.0.stream.type">audio</property>
  <property name="meta.media.0.codec.sample_fmt">s16</property>
  <property name="meta.media.0.codec.sample_rate">48000</property>
  <property name="meta.media.0.codec.channels">2</property>
  <property name="meta.media.0.codec.name">pcm_s16le</property>
  <property name="meta.media.0.codec.long_name">PCM signed 16-bit little-endian</property>
  <property name="meta.media.0.codec.bit_rate">1536000</property>
  <property name="seekable">1</property>
  <property name="kdenlive:clipname"/>
  <property name="kdenlive:folderid">513</property>
  <property name="kdenlive:id">506</property>
  <property name="kdenlive:file_size">1963244</property>
  <property name="kdenlive:file_hash">1845968582a404f638c814e62d39a660</property>
  <property name="global_feed">1</property>
  <property name="xml">was here</property>
  <property name="set.test_audio">0</property>
  <property name="set.test_image">1</property>
 </producer>
 <producer id="producer561" in="00:00:00.000" out="00:00:18.467">
  <property name="length">1109</property>
  <property name="eof">pause</property>
  <property name="resource">audio/ltwo3.wav</property>
  <property name="audio_index">0</property>
  <property name="video_index">-1</property>
  <property name="mute_on_pause">0</property>
  <property name="mlt_service">avformat-novalidate</property>
  <property name="meta.media.nb_streams">1</property>
  <property name="meta.media.0.stream.type">audio</property>
  <property name="meta.media.0.codec.sample_fmt">s16</property>
  <property name="meta.media.0.codec.sample_rate">48000</property>
  <property name="meta.media.0.codec.channels">2</property>
  <property name="meta.media.0.codec.name">pcm_s16le</property>
  <property name="meta.media.0.codec.long_name">PCM signed 16-bit little-endian</property>
  <property name="meta.media.0.codec.bit_rate">1536000</property>
  <property name="seekable">1</property>
  <property name="kdenlive:clipname"/>
  <property name="kdenlive:folderid">513</property>
  <property name="kdenlive:id">507</property>
  <property name="kdenlive:file_size">3547820</property>
  <property name="kdenlive:file_hash">6046ae78e7708e0b17a331f62aede9be</property>
  <property name="global_feed">1</property>
  <property name="xml">was here</property>
  <property name="set.test_audio">0</property>
  <property name="set.test_image">1</property>
 </producer>
 <producer id="producer562" in="00:00:00.000" out="00:00:11.583">
  <property name="length">696</property>
  <property name="eof">pause</property>
  <property name="resource">audio/ltwo4.wav</property>
  <property name="audio_index">0</property>
  <property name="video_index">-1</property>
  <property name="mute_on_pause">0</property>
  <property name="mlt_service">avformat-novalidate</property>
  <property name="meta.media.nb_streams">1</property>
  <property name="meta.media.0.stream.type">audio</property>
  <property name="meta.media.0.codec.sample_fmt">s16</property>
  <property name="meta.media.0.codec.sample_rate">48000</property>
  <property name="meta.media.0.codec.channels">2</property>
  <property name="meta.media.0.codec.name">pcm_s16le</property>
  <property name="meta.media.0.codec.long_name">PCM signed 16-bit little-endian</property>
  <property name="meta.media.0.codec.bit_rate">1536000</property>
  <property name="seekable">1</property>
  <property name="kdenlive:clipname"/>
  <property name="kdenlive:folderid">513</property>
  <property name="kdenlive:id">508</property>
  <property name="kdenlive:file_size">2226316</property>
  <property name="kdenlive:file_hash">85d6cc9e7a368d3385fa87cbfc186dab</property>
  <property name="global_feed">1</property>
  <property name="xml">was here</property>
  <property name="set.test_audio">0</property>
  <property name="set.test_image">1</property>
 </producer>
 <producer id="producer563" in="00:00:00.000" out="00:00:21.083">
  <property name="length">1266</property>
  <property name="eof">pause</property>
  <property name="resource">audio/ltwo5.wav</property>
  <property name="audio_index">0</property>
  <property name="video_index">-1</property>
  <property name="mute_on_pause">0</property>
  <property name="mlt_service">avformat-novalidate</property>
  <property name="meta.media.nb_streams">1</property>
  <property name="meta.media.0.stream.type">audio</property>
  <property name="meta.media.0.codec.sample_fmt">s16</property>
  <property name="meta.media.0.codec.sample_rate">48000</property>
  <property name="meta.media.0.codec.channels">2</property>
  <property name="meta.media.0.codec.name">pcm_s16le</property>
  <property name="meta.media.0.codec.long_name">PCM signed 16-bit little-endian</property>
  <property name="meta.media.0.codec.bit_rate">1536000</property>
  <property name="seekable">1</property>
  <property name="kdenlive:clipname"/>
  <property name="kdenlive:folderid">513</property>
  <property name="kdenlive:id">509</property>
  <property name="kdenlive:file_size">4051724</property>
  <property name="kdenlive:file_hash">6473c80f2825a92766e73a34336f49bc</property>
  <property name="global_feed">1</property>
  <property name="xml">was here</property>
  <property name="set.test_audio">0</property>
  <property name="set.test_image">1</property>
 </producer>
 <producer id="producer564" in="00:00:00.000" out="00:00:15.717">
  <property name="length">944</property>
  <property name="eof">pause</property>
  <property name="resource">audio/ltwo6.wav</property>
  <property name="audio_index">0</property>
  <property name="video_index">-1</property>
  <property name="mute_on_pause">0</property>
  <property name="mlt_service">avformat-novalidate</property>
  <property name="meta.media.nb_streams">1</property>
  <property name="meta.media.0.stream.type">audio</property>
  <property name="meta.media.0.codec.sample_fmt">s16</property>
  <property name="meta.media.0.codec.sample_rate">48000</property>
  <property name="meta.media.0.codec.channels">2</property>
  <property name="meta.media.0.codec.name">pcm_s16le</property>
  <property name="meta.media.0.codec.long_name">PCM signed 16-bit little-endian</property>
  <property name="meta.media.0.codec.bit_rate">1536000</property>
  <property name="seekable">1</property>
  <property name="kdenlive:clipname"/>
  <property name="kdenlive:folderid">513</property>
  <property name="kdenlive:id">510</property>
  <property name="kdenlive:file_size">3019628</property>
  <property name="kdenlive:file_hash">1238088806c21685ef9a9035065831d0</property>
  <property name="global_feed">1</property>
  <property name="xml">was here</property>
  <property name="set.test_audio">0</property>
  <property name="set.test_image">1</property>
 </producer>
 <playlist id="playlist2">
  <property name="kdenlive:audio_track">1</property>
  <blank length="00:00:00.633"/>
  <entry producer="producer538" in="00:00:00.867" out="00:00:10.967">
   <property name="kdenlive:id">495</property>
  </entry>
  <blank length="00:00:01.250"/>
  <entry producer="producer539" in="00:00:01.300" out="00:00:08.650">
   <property name="kdenlive:id">496</property>
  </entry>
  <entry producer="producer539" in="00:00:15.483" out="00:00:18.067">
   <property name="kdenlive:id">496</property>
  </entry>
  <blank length="00:00:00.850"/>
  <entry producer="producer540" in="00:00:01.517" out="00:00:12.283">
   <property name="kdenlive:id">497</property>
  </entry>
  <blank length="00:00:03.867"/>
  <entry producer="producer541" in="00:00:00.917" out="00:00:10.583">
   <property name="kdenlive:id">489</property>
  </entry>
  <blank length="00:00:05.300"/>
  <entry producer="producer542" in="00:00:01.567" out="00:00:06.400">
   <property name="kdenlive:id">491</property>
  </entry>
  <blank length="00:00:04.333"/>
  <entry producer="producer542" in="00:00:09.467" out="00:00:15.400">
   <property name="kdenlive:id">491</property>
  </entry>
  <blank length="00:00:01.833"/>
  <entry producer="producer543" in="00:00:00.567" out="00:00:11.833">
   <property name="kdenlive:id">492</property>
  </entry>
  <blank length="00:00:00.633"/>
  <entry producer="producer544" in="00:00:01.483" out="00:00:10.467">
   <property name="kdenlive:id">493</property>
  </entry>
  <blank length="00:00:03.983"/>
  <entry producer="producer545" in="00:00:01.883" out="00:00:12.583">
   <property name="kdenlive:id">498</property>
  </entry>
  <entry producer="producer546" in="00:00:00.883" out="00:00:06.750">
   <property name="kdenlive:id">499</property>
  </entry>
  <blank length="00:00:03.883"/>
  <entry producer="producer547" in="00:00:01.083" out="00:00:11.450">
   <property name="kdenlive:id">494</property>
  </entry>
  <blank length="00:00:03.483"/>
  <entry producer="producer548" in="00:00:00.950" out="00:00:12.083">
   <property name="kdenlive:id">517</property>
  </entry>
  <blank length="00:00:03.467"/>
  <entry producer="producer549" in="00:00:01.100" out="00:00:08.567">
   <property name="kdenlive:id">511</property>
  </entry>
  <entry producer="producer550" in="00:00:00.000" out="00:00:11.833">
   <property name="kdenlive:id">512</property>
  </entry>
  <entry producer="producer550" in="00:00:15.933" out="00:00:19.550">
   <property name="kdenlive:id">512</property>
  </entry>
  <blank length="00:00:00.867"/>
  <entry producer="producer551" in="00:00:01.067" out="00:00:13.100">
   <property name="kdenlive:id">514</property>
  </entry>
  <blank length="00:00:00.500"/>
  <entry producer="producer552" in="00:00:00.900" out="00:00:09.350">
   <property name="kdenlive:id">515</property>
  </entry>
  <entry producer="producer552" in="00:00:09.367" out="00:00:09.917">
   <property name="kdenlive:id">515</property>
  </entry>
  <entry producer="producer552" in="00:00:09.933" out="00:00:15.633">
   <property name="kdenlive:id">515</property>
  </entry>
  <blank length="00:00:00.617"/>
  <entry producer="producer553" in="00:00:01.167" out="00:00:12.617">
   <property name="kdenlive:id">516</property>
  </entry>
  <blank length="00:00:01.067"/>
  <entry producer="producer554" in="00:00:02.717" out="00:00:17.700">
   <property name="kdenlive:id">500</property>
   <filter id="filter3" in="00:00:17.650" out="00:00:17.700">
    <property name="window">75</property>
    <property name="max_gain">20dB</property>
    <property name="mlt_service">volume</property>
    <property name="kdenlive_id">fadeout</property>
    <property name="gain">1</property>
    <property name="end">0</property>
   </filter>
  </entry>
  <blank length="00:00:02.750"/>
  <entry producer="producer555" in="00:00:00.650" out="00:00:15.333">
   <property name="kdenlive:id">501</property>
  </entry>
  <entry producer="producer555" in="00:00:23.633" out="00:00:26.833">
   <property name="kdenlive:id">501</property>
  </entry>
  <blank length="00:00:00.933"/>
  <entry producer="producer556" in="00:00:00.933" out="00:00:11.267">
   <property name="kdenlive:id">502</property>
  </entry>
  <entry producer="producer552" in="00:00:09.367" out="00:00:09.917">
   <property name="kdenlive:id">515</property>
  </entry>
  <blank length="00:00:00.917"/>
  <entry producer="producer557" in="00:00:00.800" out="00:00:13.483">
   <property name="kdenlive:id">503</property>
  </entry>
  <blank length="00:00:00.650"/>
  <entry producer="producer558" in="00:00:00.567" out="00:00:25.633">
   <property name="kdenlive:id">504</property>
  </entry>
  <blank length="00:00:02.000"/>
  <entry producer="producer559" in="00:00:00.000" out="00:00:16.333">
   <property name="kdenlive:id">505</property>
  </entry>
  <entry producer="producer560" in="00:00:00.000" out="00:00:10.217">
   <property name="kdenlive:id">506</property>
  </entry>
  <entry producer="producer561" in="00:00:00.000" out="00:00:18.467">
   <property name="kdenlive:id">507</property>
  </entry>
  <entry producer="producer562" in="00:00:00.000" out="00:00:11.583">
   <property name="kdenlive:id">508</property>
  </entry>
  <entry producer="producer563" in="00:00:00.000" out="00:00:21.083">
   <property name="kdenlive:id">509</property>
  </entry>
  <entry producer="producer564" in="00:00:00.000" out="00:00:15.717">
   <property name="kdenlive:id">510</property>
  </entry>
 </playlist>
 <playlist id="playlist3"/>
 <tractor id="tractor1" in="00:00:00.000" out="00:06:29.917">
  <property name="kdenlive:audio_track">1</property>
  <property name="kdenlive:trackheight">67</property>
  <property name="kdenlive:timeline_active">1</property>
  <property name="kdenlive:collapsed">28</property>
  <property name="kdenlive:thumbs_format"/>
  <property name="kdenlive:audio_rec"/>
  <track hide="video" producer="playlist2"/>
  <track hide="video" producer="playlist3"/>
  <filter id="filter4">
   <property name="window">75</property>
   <property name="max_gain">20dB</property>
   <property name="level">-0</property>
   <property name="mlt_service">volume</property>
   <property name="internal_added">237</property>
   <property name="disable">0</property>
  </filter>
  <filter id="filter5">
   <property name="channel">-1</property>
   <property name="mlt_service">panner</property>
   <property name="internal_added">237</property>
   <property name="start">0.5</property>
   <property name="disable">1</property>
  </filter>
  <filter id="filter6">
   <property name="iec_scale">0</property>
   <property name="mlt_service">audiolevel</property>
   <property name="disable">1</property>
  </filter>
 </tractor>
 <producer id="producer565" in="00:00:00.000" out="00:00:01.983">
  <property name="length">120</property>
  <property name="eof">pause</property>
  <property name="resource">/home/xiaoxiae/.cache/kdenlive/proxy/666c4ce1891b2e1b762c61f1411ff500.mkv</property>
  <property name="audio_index">-1</property>
  <property name="video_index">0</property>
  <property name="mute_on_pause">0</property>
  <property name="mlt_service">avformat-novalidate</property>
  <property name="seekable">1</property>
  <property name="aspect_ratio">1</property>
  <property name="kdenlive:clipname">1.mp4</property>
  <property name="kdenlive:folderid">124</property>
  <property name="kdenlive:id">125</property>
  <property name="kdenlive:file_size">285602</property>
  <property name="kdenlive:file_hash">666c4ce1891b2e1b762c61f1411ff500</property>
  <property name="kdenlive:proxy">/home/xiaoxiae/.cache/kdenlive/proxy/666c4ce1891b2e1b762c61f1411ff500.mkv</property>
  <property name="kdenlive:originalurl">video/Introduction/1.mp4</property>
  <property name="global_feed">1</property>
  <property name="kdenlive:original.mlt_type">producer</property>
  <property name="kdenlive:original.in">0</property>
  <property name="kdenlive:original.out">119</property>
  <property name="kdenlive:original.length">120</property>
  <property name="kdenlive:original.eof">pause</property>
  <property name="kdenlive:original.resource">video/Introduction/1.mp4</property>
  <property name="kdenlive:original.meta.media.nb_streams">1</property>
  <property name="kdenlive:original.meta.media.0.stream.type">video</property>
  <property name="kdenlive:original.meta.media.0.stream.frame_rate">60</property>
  <property name="kdenlive:original.meta.media.0.stream.sample_aspect_ratio">0</property>
  <property name="kdenlive:original.meta.media.0.codec.width">3840</property>
  <property name="kdenlive:original.meta.media.0.codec.height">2160</property>
  <property name="kdenlive:original.meta.media.0.codec.rotate">0</property>
  <property name="kdenlive:original.meta.media.0.codec.frame_rate">60</property>
  <property name="kdenlive:original.meta.media.0.codec.pix_fmt">yuv420p</property>
  <property name="kdenlive:original.meta.media.0.codec.sample_aspect_ratio">0</property>
  <property name="kdenlive:original.meta.media.0.codec.colorspace">709</property>
  <property name="kdenlive:original.meta.media.0.codec.name">h264</property>
  <property name="kdenlive:original.meta.media.0.codec.long_name">H.264 / AVC / MPEG-4 AVC / MPEG-4 part 10</property>
  <property name="kdenlive:original.meta.media.0.codec.bit_rate">1133004</property>
  <property name="kdenlive:original.meta.attr.0.stream.handler_name.markup">VideoHandler</property>
  <property name="kdenlive:original.meta.attr.0.stream.vendor_id.markup">[0][0][0][0]</property>
  <property name="kdenlive:original.meta.attr.major_brand.markup">isom</property>
  <property name="kdenlive:original.meta.attr.minor_version.markup">512</property>
  <property name="kdenlive:original.meta.attr.compatible_brands.markup">isomiso2avc1mp41</property>
  <property name="kdenlive:original.meta.attr.encoder.markup">Lavf58.76.100</property>
  <property name="kdenlive:original.meta.attr.comment.markup">Rendered with Manim Community v0.6.0</property>
  <property name="kdenlive:original.seekable">1</property>
  <property name="kdenlive:original.width">3840</property>
  <property name="kdenlive:original.height">2160</property>
  <property name="kdenlive:original.meta.media.sample_aspect_num">1</property>
  <property name="kdenlive:original.meta.media.sample_aspect_den">1</property>
  <property name="kdenlive:original.aspect_ratio">1</property>
  <property name="kdenlive:original.audio_index">-1</property>
  <property name="kdenlive:original.video_index">0</property>
  <property name="kdenlive:original.mute_on_pause">1</property>
  <property name="kdenlive:original.mlt_service">avformat</property>
  <property name="kdenlive:original.meta.media.frame_rate_num">60</property>
  <property name="kdenlive:original.meta.media.frame_rate_den">1</property>
  <property name="kdenlive:original.meta.media.colorspace">709</property>
  <property name="kdenlive:original.meta.media.color_trc">2</property>
  <property name="kdenlive:original.meta.media.width">3840</property>
  <property name="kdenlive:original.meta.media.height">2160</property>
  <property name="kdenlive:original.meta.media.color_range">mpeg</property>
  <property name="kdenlive:original.meta.media.top_field_first">0</property>
  <property name="kdenlive:original.meta.media.progressive">1</property>
  <property name="kdenlive:original.backup">1</property>
  <property name="xml">was here</property>
  <property name="meta.media.nb_streams">1</property>
  <property name="meta.media.0.stream.type">video</property>
  <property name="meta.media.0.stream.frame_rate">60</property>
  <property name="meta.media.0.stream.sample_aspect_ratio">0</property>
  <property name="meta.media.0.codec.width">640</property>
  <property name="meta.media.0.codec.height">360</property>
  <property name="meta.media.0.codec.rotate">0</property>
  <property name="meta.media.0.codec.frame_rate">60</property>
  <property name="meta.media.0.codec.pix_fmt">yuv420p</property>
  <property name="meta.media.0.codec.sample_aspect_ratio">0</property>
  <property name="meta.media.0.codec.colorspace">601</property>
  <property name="meta.media.0.codec.name">h264</property>
  <property name="meta.media.0.codec.long_name">H.264 / AVC / MPEG-4 AVC / MPEG-4 part 10</property>
  <property name="meta.media.0.codec.bit_rate">0</property>
  <property name="meta.attr.0.stream.HANDLER_NAME.markup">VideoHandler</property>
  <property name="meta.attr.0.stream.VENDOR_ID.markup">[0][0][0][0]</property>
  <property name="meta.attr.0.stream.ENCODER.markup">Lavc58.134.100 libx264</property>
  <property name="meta.attr.0.stream.DURATION.markup">00:00:02.000000000</property>
  <property name="meta.attr.COMMENT.markup">Rendered with Manim Community v0.6.0</property>
  <property name="meta.attr.MAJOR_BRAND.markup">isom</property>
  <property name="meta.attr.MINOR_VERSION.markup">512</property>
  <property name="meta.attr.COMPATIBLE_BRANDS.markup">isomiso2avc1mp41</property>
  <property name="meta.attr.ENCODER.markup">Lavf58.76.100</property>
  <property name="meta.media.sample_aspect_num">1</property>
  <property name="meta.media.sample_aspect_den">1</property>
  <property name="meta.media.frame_rate_num">60</property>
  <property name="meta.media.frame_rate_den">1</property>
  <property name="meta.media.colorspace">601</property>
  <property name="meta.media.color_trc">2</property>
  <property name="meta.media.width">640</property>
  <property name="meta.media.height">360</property>
  <property name="meta.media.color_range">mpeg</property>
  <property name="meta.media.top_field_first">0</property>
  <property name="meta.media.progressive">1</property>
  <property name="set.test_audio">1</property>
  <property name="set.test_image">0</property>
 </producer>
 <producer id="producer566" in="00:00:00.000" out="00:00:00.983">
  <property name="length">60</property>
  <property name="eof">pause</property>
  <property name="resource">/home/xiaoxiae/.cache/kdenlive/proxy/8ccaa7d0fdb83b2fadb964f9c5751e1c.mkv</property>
  <property name="audio_index">-1</property>
  <property name="video_index">0</property>
  <property name="mute_on_pause">0</property>
  <property name="mlt_service">avformat-novalidate</property>
  <property name="seekable">1</property>
  <property name="aspect_ratio">1</property>
  <property name="kdenlive:clipname">2.mp4</property>
  <property name="kdenlive:folderid">124</property>
  <property name="kdenlive:id">147</property>
  <property name="kdenlive:file_size">164358</property>
  <property name="kdenlive:file_hash">8ccaa7d0fdb83b2fadb964f9c5751e1c</property>
  <property name="kdenlive:proxy">/home/xiaoxiae/.cache/kdenlive/proxy/8ccaa7d0fdb83b2fadb964f9c5751e1c.mkv</property>
  <property name="kdenlive:originalurl">video/Introduction/2.mp4</property>
  <property name="global_feed">1</property>
  <property name="kdenlive:original.mlt_type">producer</property>
  <property name="kdenlive:original.in">0</property>
  <property name="kdenlive:original.out">59</property>
  <property name="kdenlive:original.length">60</property>
  <property name="kdenlive:original.eof">pause</property>
  <property name="kdenlive:original.resource">video/Introduction/2.mp4</property>
  <property name="kdenlive:original.meta.media.nb_streams">1</property>
  <property name="kdenlive:original.meta.media.0.stream.type">video</property>
  <property name="kdenlive:original.meta.media.0.stream.frame_rate">60</property>
  <property name="kdenlive:original.meta.media.0.stream.sample_aspect_ratio">0</property>
  <property name="kdenlive:original.meta.media.0.codec.width">3840</property>
  <property name="kdenlive:original.meta.media.0.codec.height">2160</property>
  <property name="kdenlive:original.meta.media.0.codec.rotate">0</property>
  <property name="kdenlive:original.meta.media.0.codec.frame_rate">60</property>
  <property name="kdenlive:original.meta.media.0.codec.pix_fmt">yuv420p</property>
  <property name="kdenlive:original.meta.media.0.codec.sample_aspect_ratio">0</property>
  <property name="kdenlive:original.meta.media.0.codec.colorspace">709</property>
  <property name="kdenlive:original.meta.media.0.codec.name">h264</property>
  <property name="kdenlive:original.meta.media.0.codec.long_name">H.264 / AVC / MPEG-4 AVC / MPEG-4 part 10</property>
  <property name="kdenlive:original.meta.media.0.codec.bit_rate">1301816</property>
  <property name="kdenlive:original.meta.attr.0.stream.handler_name.markup">VideoHandler</property>
  <property name="kdenlive:original.meta.attr.0.stream.vendor_id.markup">[0][0][0][0]</property>
  <property name="kdenlive:original.meta.attr.major_brand.markup">isom</property>
  <property name="kdenlive:original.meta.attr.minor_version.markup">512</property>
  <property name="kdenlive:original.meta.attr.compatible_brands.markup">isomiso2avc1mp41</property>
  <property name="kdenlive:original.meta.attr.encoder.markup">Lavf58.76.100</property>
  <property name="kdenlive:original.meta.attr.comment.markup">Rendered with Manim Community v0.6.0</property>
  <property name="kdenlive:original.seekable">1</property>
  <property name="kdenlive:original.width">3840</property>
  <property name="kdenlive:original.height">2160</property>
  <property name="kdenlive:original.meta.media.sample_aspect_num">1</property>
  <property name="kdenlive:original.meta.media.sample_aspect_den">1</property>
  <property name="kdenlive:original.aspect_ratio">1</property>
  <property name="kdenlive:original.audio_index">-1</property>
  <property name="kdenlive:original.video_index">0</property>
  <property name="kdenlive:original.mute_on_pause">1</property>
  <property name="kdenlive:original.mlt_service">avformat</property>
  <property name="kdenlive:original.meta.media.frame_rate_num">60</property>
  <property name="kdenlive:original.meta.media.frame_rate_den">1</property>
  <property name="kdenlive:original.meta.media.colorspace">709</property>
  <property name="kdenlive:original.meta.media.color_trc">2</property>
  <property name="kdenlive:original.meta.media.width">3840</property>
  <property name="kdenlive:original.meta.media.height">2160</property>
  <property name="kdenlive:original.meta.media.color_range">mpeg</property>
  <property name="kdenlive:original.meta.media.top_field_first">0</property>
  <property name="kdenlive:original.meta.media.progressive">1</property>
  <property name="kdenlive:original.backup">1</property>
  <property name="xml">was here</property>
  <property name="meta.media.nb_streams">1</property>
  <property name="meta.media.0.stream.type">video</property>
  <property name="meta.media.0.stream.frame_rate">60</property>
  <property name="meta.media.0.stream.sample_aspect_ratio">0</property>
  <property name="meta.media.0.codec.width">640</property>
  <property name="meta.media.0.codec.height">360</property>
  <property name="meta.media.0.codec.rotate">0</property>
  <property name="meta.media.0.codec.frame_rate">60</property>
  <property name="meta.media.0.codec.pix_fmt">yuv420p</property>
  <property name="meta.media.0.codec.sample_aspect_ratio">0</property>
  <property name="meta.media.0.codec.colorspace">601</property>
  <property name="meta.media.0.codec.name">h264</property>
  <property name="meta.media.0.codec.long_name">H.264 / AVC / MPEG-4 AVC / MPEG-4 part 10</property>
  <property name="meta.media.0.codec.bit_rate">0</property>
  <property name="meta.attr.0.stream.HANDLER_NAME.markup">VideoHandler</property>
  <property name="meta.attr.0.stream.VENDOR_ID.markup">[0][0][0][0]</property>
  <property name="meta.attr.0.stream.ENCODER.markup">Lavc58.134.100 libx264</property>
  <property name="meta.attr.0.stream.DURATION.markup">00:00:01.000000000</property>
  <property name="meta.attr.COMMENT.markup">Rendered with Manim Community v0.6.0</property>
  <property name="meta.attr.MAJOR_BRAND.markup">isom</property>
  <property name="meta.attr.MINOR_VERSION.markup">512</property>
  <property name="meta.attr.COMPATIBLE_BRANDS.markup">isomiso2avc1mp41</property>
  <property name="meta.attr.ENCODER.markup">Lavf58.76.100</property>
  <property name="meta.media.sample_aspect_num">1</property>
  <property name="meta.media.sample_aspect_den">1</property>
  <property name="meta.media.frame_rate_num">60</property>
  <property name="meta.media.frame_rate_den">1</property>
  <property name="meta.media.colorspace">601</property>
  <property name="meta.media.color_trc">2</property>
  <property name="meta.media.width">640</property>
  <property name="meta.media.height">360</property>
  <property name="meta.media.color_range">mpeg</property>
  <property name="meta.media.top_field_first">0</property>
  <property name="meta.media.progressive">1</property>
  <property name="set.test_audio">1</property>
  <property name="set.test_image">0</property>
 </producer>
 <producer id="producer567" in="00:00:00.000" out="00:00:00.983">
  <property name="length">60</property>
  <property name="eof">pause</property>
  <property name="resource">/home/xiaoxiae/.cache/kdenlive/proxy/9c8d12ccf3104241de1ac985a9bf62b1.mkv</property>
  <property name="audio_index">-1</property>
  <property name="video_index">0</property>
  <property name="mute_on_pause">0</property>
  <property name="mlt_service">avformat-novalidate</property>
  <property name="seekable">1</property>
  <property name="aspect_ratio">1</property>
  <property name="kdenlive:clipname">3.mp4</property>
  <property name="kdenlive:folderid">124</property>
  <property name="kdenlive:id">169</property>
  <property name="kdenlive:file_size">164947</property>
  <property name="kdenlive:file_hash">9c8d12ccf3104241de1ac985a9bf62b1</property>
  <property name="kdenlive:proxy">/home/xiaoxiae/.cache/kdenlive/proxy/9c8d12ccf3104241de1ac985a9bf62b1.mkv</property>
  <property name="kdenlive:originalurl">video/Introduction/3.mp4</property>
  <property name="global_feed">1</property>
  <property name="kdenlive:original.mlt_type">producer</property>
  <property name="kdenlive:original.in">0</property>
  <property name="kdenlive:original.out">59</property>
  <property name="kdenlive:original.length">60</property>
  <property name="kdenlive:original.eof">pause</property>
  <property name="kdenlive:original.resource">video/Introduction/3.mp4</property>
  <property name="kdenlive:original.meta.media.nb_streams">1</property>
  <property name="kdenlive:original.meta.media.0.stream.type">video</property>
  <property name="kdenlive:original.meta.media.0.stream.frame_rate">60</property>
  <property name="kdenlive:original.meta.media.0.stream.sample_aspect_ratio">0</property>
  <property name="kdenlive:original.meta.media.0.codec.width">3840</property>
  <property name="kdenlive:original.meta.media.0.codec.height">2160</property>
  <property name="kdenlive:original.meta.media.0.codec.rotate">0</property>
  <property name="kdenlive:original.meta.media.0.codec.frame_rate">60</property>
  <property name="kdenlive:original.meta.media.0.codec.pix_fmt">yuv420p</property>
  <property name="kdenlive:original.meta.media.0.codec.sample_aspect_ratio">0</property>
  <property name="kdenlive:original.meta.media.0.codec.colorspace">709</property>
  <property name="kdenlive:original.meta.media.0.codec.name">h264</property>
  <property name="kdenlive:original.meta.media.0.codec.long_name">H.264 / AVC / MPEG-4 AVC / MPEG-4 part 10</property>
  <property name="kdenlive:original.meta.media.0.codec.bit_rate">1306592</property>
  <property name="kdenlive:original.meta.attr.0.stream.handler_name.markup">VideoHandler</property>
  <property name="kdenlive:original.meta.attr.0.stream.vendor_id.markup">[0][0][0][0]</property>
  <property name="kdenlive:original.meta.attr.major_brand.markup">isom</property>
  <property name="kdenlive:original.meta.attr.minor_version.markup">512</property>
  <property name="kdenlive:original.meta.attr.compatible_brands.markup">isomiso2avc1mp41</property>
  <property name="kdenlive:original.meta.attr.encoder.markup">Lavf58.76.100</property>
  <property name="kdenlive:original.meta.attr.comment.markup">Rendered with Manim Community v0.6.0</property>
  <property name="kdenlive:original.seekable">1</property>
  <property name="kdenlive:original.width">3840</property>
  <property name="kdenlive:original.height">2160</property>
  <property name="kdenlive:original.meta.media.sample_aspect_num">1</property>
  <property name="kdenlive:original.meta.media.sample_aspect_den">1</property>
  <property name="kdenlive:original.aspect_ratio">1</property>
  <property name="kdenlive:original.audio_index">-1</property>
  <property name="kdenlive:original.video_index">0</property>
  <property name="kdenlive:original.mute_on_pause">1</property>
  <property name="kdenlive:original.mlt_service">avformat</property>
  <property name="kdenlive:original.meta.media.frame_rate_num">60</property>
  <property name="kdenlive:original.meta.media.frame_rate_den">1</property>
  <property name="kdenlive:original.meta.media.colorspace">709</property>
  <property name="kdenlive:original.meta.media.color_trc">2</property>
  <property name="kdenlive:original.meta.media.width">3840</property>
  <property name="kdenlive:original.meta.media.height">2160</property>
  <property name="kdenlive:original.meta.media.color_range">mpeg</property>
  <property name="kdenlive:original.meta.media.top_field_first">0</property>
  <property name="kdenlive:original.meta.media.progressive">1</property>
  <property name="kdenlive:original.backup">1</property>
  <property name="xml">was here</property>
  <property name="meta.media.nb_streams">1</property>
  <property name="meta.media.0.stream.type">video</property>
  <property name="meta.media.0.stream.frame_rate">60</property>
  <property name="meta.media.0.stream.sample_aspect_ratio">0</property>
  <property name="meta.media.0.codec.width">640</property>
  <property name="meta.media.0.codec.height">360</property>
  <property name="meta.media.0.codec.rotate">0</property>
  <property name="meta.media.0.codec.frame_rate">60</property>
  <property name="meta.media.0.codec.pix_fmt">yuv420p</property>
  <property name="meta.media.0.codec.sample_aspect_ratio">0</property>
  <property name="meta.media.0.codec.colorspace">601</property>
  <property name="meta.media.0.codec.name">h264</property>
  <property name="meta.media.0.codec.long_name">H.264 / AVC / MPEG-4 AVC / MPEG-4 part 10</property>
  <property name="meta.media.0.codec.bit_rate">0</property>
  <property name="meta.attr.0.stream.HANDLER_NAME.markup">VideoHandler</property>
  <property name="meta.attr.0.stream.VENDOR_ID.markup">[0][0][0][0]</property>
  <property name="meta.attr.0.stream.ENCODER.markup">Lavc58.134.100 libx264</property>
  <property name="meta.attr.0.stream.DURATION.markup">00:00:01.000000000</property>
  <property name="meta.attr.COMMENT.markup">Rendered with Manim Community v0.6.0</property>
  <property name="meta.attr.MAJOR_BRAND.markup">isom</property>
  <property name="meta.attr.MINOR_VERSION.markup">512</property>
  <property name="meta.attr.COMPATIBLE_BRANDS.markup">isomiso2avc1mp41</property>
  <property name="meta.attr.ENCODER.markup">Lavf58.76.100</property>
  <property name="meta.media.sample_aspect_num">1</property>
  <property name="meta.media.sample_aspect_den">1</property>
  <property name="meta.media.frame_rate_num">60</property>
  <property name="meta.media.frame_rate_den">1</property>
  <property name="meta.media.colorspace">601</property>
  <property name="meta.media.color_trc">2</property>
  <property name="meta.media.width">640</property>
  <property name="meta.media.height">360</property>
  <property name="meta.media.color_range">mpeg</property>
  <property name="meta.media.top_field_first">0</property>
  <property name="meta.media.progressive">1</property>
  <property name="set.test_audio">1</property>
  <property name="set.test_image">0</property>
 </producer>
 <producer id="producer568" in="00:00:00.000" out="00:00:01.983">
  <property name="length">120</property>
  <property name="eof">pause</property>
  <property name="resource">/home/xiaoxiae/.cache/kdenlive/proxy/8772c6a6d3096a7819fa3980c8b6545b.mkv</property>
  <property name="audio_index">-1</property>
  <property name="video_index">0</property>
  <property name="mute_on_pause">0</property>
  <property name="mlt_service">avformat-novalidate</property>
  <property name="seekable">1</property>
  <property name="aspect_ratio">1</property>
  <property name="kdenlive:clipname">4.mp4</property>
  <property name="kdenlive:folderid">124</property>
  <property name="kdenlive:id">191</property>
  <property name="kdenlive:file_size">205529</property>
  <property name="kdenlive:file_hash">8772c6a6d3096a7819fa3980c8b6545b</property>
  <property name="kdenlive:proxy">/home/xiaoxiae/.cache/kdenlive/proxy/8772c6a6d3096a7819fa3980c8b6545b.mkv</property>
  <property name="kdenlive:originalurl">video/Introduction/4.mp4</property>
  <property name="global_feed">1</property>
  <property name="kdenlive:original.mlt_type">producer</property>
  <property name="kdenlive:original.in">0</property>
  <property name="kdenlive:original.out">119</property>
  <property name="kdenlive:original.length">120</property>
  <property name="kdenlive:original.eof">pause</property>
  <property name="kdenlive:original.resource">video/Introduction/4.mp4</property>
  <property name="kdenlive:original.meta.media.nb_streams">1</property>
  <property name="kdenlive:original.meta.media.0.stream.type">video</property>
  <property name="kdenlive:original.meta.media.0.stream.frame_rate">60</property>
  <property name="kdenlive:original.meta.media.0.stream.sample_aspect_ratio">0</property>
  <property name="kdenlive:original.meta.media.0.codec.width">3840</property>
  <property name="kdenlive:original.meta.media.0.codec.height">2160</property>
  <property name="kdenlive:original.meta.media.0.codec.rotate">0</property>
  <property name="kdenlive:original.meta.media.0.codec.frame_rate">60</property>
  <property name="kdenlive:original.meta.media.0.codec.pix_fmt">yuv420p</property>
  <property name="kdenlive:original.meta.media.0.codec.sample_aspect_ratio">0</property>
  <property name="kdenlive:original.meta.media.0.codec.colorspace">709</property>
  <property name="kdenlive:original.meta.media.0.codec.name">h264</property>
  <property name="kdenlive:original.meta.media.0.codec.long_name">H.264 / AVC / MPEG-4 AVC / MPEG-4 part 10</property>
  <property name="kdenlive:original.meta.media.0.codec.bit_rate">812712</property>
  <property name="kdenlive:original.meta.attr.0.stream.handler_name.markup">VideoHandler</property>
  <property name="kdenlive:original.meta.attr.0.stream.vendor_id.markup">[0][0][0][0]</property>
  <property name="kdenlive:original.meta.attr.major_brand.markup">isom</property>
  <property name="kdenlive:original.meta.attr.minor_version.markup">512</property>
  <property name="kdenlive:original.meta.attr.compatible_brands.markup">isomiso2avc1mp41</property>
  <property name="kdenlive:original.meta.attr.encoder.markup">Lavf58.76.100</property>
  <property name="kdenlive:original.meta.attr.comment.markup">Rendered with Manim Community v0.6.0</property>
  <property name="kdenlive:original.seekable">1</property>
  <property name="kdenlive:original.width">3840</property>
  <property name="kdenlive:original.height">2160</property>
  <property name="kdenlive:original.meta.media.sample_aspect_num">1</property>
  <property name="kdenlive:original.meta.media.sample_aspect_den">1</property>
  <property name="kdenlive:original.aspect_ratio">1</property>
  <property name="kdenlive:original.audio_index">-1</property>
  <property name="kdenlive:original.video_index">0</property>
  <property name="kdenlive:original.mute_on_pause">1</property>
  <property name="kdenlive:original.mlt_service">avformat</property>
  <property name="kdenlive:original.meta.media.frame_rate_num">60</property>
  <property name="kdenlive:original.meta.media.frame_rate_den">1</property>
  <property name="kdenlive:original.meta.media.colorspace">709</property>
  <property name="kdenlive:original.meta.media.color_trc">2</property>
  <property name="kdenlive:original.meta.media.width">3840</property>
  <property name="kdenlive:original.meta.media.height">2160</property>
  <property name="kdenlive:original.meta.media.color_range">mpeg</property>
  <property name="kdenlive:original.meta.media.top_field_first">0</property>
  <property name="kdenlive:original.meta.media.progressive">1</property>
  <property name="kdenlive:original.backup">1</property>
  <property name="xml">was here</property>
  <property name="meta.media.nb_streams">1</property>
  <property name="meta.media.0.stream.type">video</property>
  <property name="meta.media.0.stream.frame_rate">60</property>
  <property name="meta.media.0.stream.sample_aspect_ratio">0</property>
  <property name="meta.media.0.codec.width">640</property>
  <property name="meta.media.0.codec.height">360</property>
  <property name="meta.media.0.codec.rotate">0</property>
  <property name="meta.media.0.codec.frame_rate">60</property>
  <property name="meta.media.0.codec.pix_fmt">yuv420p</property>
  <property name="meta.media.0.codec.sample_aspect_ratio">0</property>
  <property name="meta.media.0.codec.colorspace">601</property>
  <property name="meta.media.0.codec.name">h264</property>
  <property name="meta.media.0.codec.long_name">H.264 / AVC / MPEG-4 AVC / MPEG-4 part 10</property>
  <property name="meta.media.0.codec.bit_rate">0</property>
  <property name="meta.attr.0.stream.HANDLER_NAME.markup">VideoHandler</property>
  <property name="meta.attr.0.stream.VENDOR_ID.markup">[0][0][0][0]</property>
  <property name="meta.attr.0.stream.ENCODER.markup">Lavc58.134.100 libx264</property>
  <property name="meta.attr.0.stream.DURATION.markup">00:00:02.000000000</property>
  <property name="meta.attr.COMMENT.markup">Rendered with Manim Community v0.6.0</property>
  <property name="meta.attr.MAJOR_BRAND.markup">isom</property>
  <property name="meta.attr.MINOR_VERSION.markup">512</property>
  <property name="meta.attr.COMPATIBLE_BRANDS.markup">isomiso2avc1mp41</property>
  <property name="meta.attr.ENCODER.markup">Lavf58.76.100</property>
  <property name="meta.media.sample_aspect_num">1</property>
  <property name="meta.media.sample_aspect_den">1</property>
  <property name="meta.media.frame_rate_num">60</property>
  <property name="meta.media.frame_rate_den">1</property>
  <property name="meta.media.colorspace">601</property>
  <property name="meta.media.color_trc">2</property>
  <property name="meta.media.width">640</property>
  <property name="meta.media.height">360</property>
  <property name="meta.media.color_range">mpeg</property>
  <property name="meta.media.top_field_first">0</property>
  <property name="meta.media.progressive">1</property>
  <property name="set.test_audio">1</property>
  <property name="set.test_image">0</property>
 </producer>
 <producer id="producer569" in="00:00:00.000" out="00:00:00.983">
  <property name="length">60</property>
  <property name="eof">pause</property>
  <property name="resource">/home/xiaoxiae/.cache/kdenlive/proxy/8d51ad5894ff4d50321f2fa3a016d708.mkv</property>
  <property name="audio_index">-1</property>
  <property name="video_index">0</property>
  <property name="mute_on_pause">0</property>
  <property name="mlt_service">avformat-novalidate</property>
  <property name="seekable">1</property>
  <property name="aspect_ratio">1</property>
  <property name="kdenlive:clipname">5.mp4</property>
  <property name="kdenlive:folderid">124</property>
  <property name="kdenlive:id">199</property>
  <property name="kdenlive:file_size">178045</property>
  <property name="kdenlive:file_hash">8d51ad5894ff4d50321f2fa3a016d708</property>
  <property name="kdenlive:proxy">/home/xiaoxiae/.cache/kdenlive/proxy/8d51ad5894ff4d50321f2fa3a016d708.mkv</property>
  <property name="kdenlive:originalurl">video/Introduction/5.mp4</property>
  <property name="global_feed">1</property>
  <property name="kdenlive:original.mlt_type">producer</property>
  <property name="kdenlive:original.in">0</property>
  <property name="kdenlive:original.out">59</property>
  <property name="kdenlive:original.length">60</property>
  <property name="kdenlive:original.eof">pause</property>
  <property name="kdenlive:original.resource">video/Introduction/5.mp4</property>
  <property name="kdenlive:original.meta.media.nb_streams">1</property>
  <property name="kdenlive:original.meta.media.0.stream.type">video</property>
  <property name="kdenlive:original.meta.media.0.stream.frame_rate">60</property>
  <property name="kdenlive:original.meta.media.0.stream.sample_aspect_ratio">0</property>
  <property name="kdenlive:original.meta.media.0.codec.width">3840</property>
  <property name="kdenlive:original.meta.media.0.codec.height">2160</property>
  <property name="kdenlive:original.meta.media.0.codec.rotate">0</property>
  <property name="kdenlive:original.meta.media.0.codec.frame_rate">60</property>
  <property name="kdenlive:original.meta.media.0.codec.pix_fmt">yuv420p</property>
  <property name="kdenlive:original.meta.media.0.codec.sample_aspect_ratio">0</property>
  <property name="kdenlive:original.meta.media.0.codec.colorspace">709</property>
  <property name="kdenlive:original.meta.media.0.codec.name">h264</property>
  <property name="kdenlive:original.meta.media.0.codec.long_name">H.264 / AVC / MPEG-4 AVC / MPEG-4 part 10</property>
  <property name="kdenlive:original.meta.media.0.codec.bit_rate">1411632</property>
  <property name="kdenlive:original.meta.attr.0.stream.handler_name.markup">VideoHandler</property>
  <property name="kdenlive:original.meta.attr.0.stream.vendor_id.markup">[0][0][0][0]</property>
  <property name="kdenlive:original.meta.attr.major_brand.markup">isom</property>
  <property name="kdenlive:original.meta.attr.minor_version.markup">512</property>
  <property name="kdenlive:original.meta.attr.compatible_brands.markup">isomiso2avc1mp41</property>
  <property name="kdenlive:original.meta.attr.encoder.markup">Lavf58.76.100</property>
  <property name="kdenlive:original.meta.attr.comment.markup">Rendered with Manim Community v0.6.0</property>
  <property name="kdenlive:original.seekable">1</property>
  <property name="kdenlive:original.width">3840</property>
  <property name="kdenlive:original.height">2160</property>
  <property name="kdenlive:original.meta.media.sample_aspect_num">1</property>
  <property name="kdenlive:original.meta.media.sample_aspect_den">1</property>
  <property name="kdenlive:original.aspect_ratio">1</property>
  <property name="kdenlive:original.audio_index">-1</property>
  <property name="kdenlive:original.video_index">0</property>
  <property name="kdenlive:original.mute_on_pause">1</property>
  <property name="kdenlive:original.mlt_service">avformat</property>
  <property name="kdenlive:original.meta.media.frame_rate_num">60</property>
  <property name="kdenlive:original.meta.media.frame_rate_den">1</property>
  <property name="kdenlive:original.meta.media.colorspace">709</property>
  <property name="kdenlive:original.meta.media.color_trc">2</property>
  <property name="kdenlive:original.meta.media.width">3840</property>
  <property name="kdenlive:original.meta.media.height">2160</property>
  <property name="kdenlive:original.meta.media.color_range">mpeg</property>
  <property name="kdenlive:original.meta.media.top_field_first">0</property>
  <property name="kdenlive:original.meta.media.progressive">1</property>
  <property name="kdenlive:original.backup">1</property>
  <property name="xml">was here</property>
  <property name="meta.media.nb_streams">1</property>
  <property name="meta.media.0.stream.type">video</property>
  <property name="meta.media.0.stream.frame_rate">60</property>
  <property name="meta.media.0.stream.sample_aspect_ratio">0</property>
  <property name="meta.media.0.codec.width">640</property>
  <property name="meta.media.0.codec.height">360</property>
  <property name="meta.media.0.codec.rotate">0</property>
  <property name="meta.media.0.codec.frame_rate">60</property>
  <property name="meta.media.0.codec.pix_fmt">yuv420p</property>
  <property name="meta.media.0.codec.sample_aspect_ratio">0</property>
  <property name="meta.media.0.codec.colorspace">601</property>
  <property name="meta.media.0.codec.name">h264</property>
  <property name="meta.media.0.codec.long_name">H.264 / AVC / MPEG-4 AVC / MPEG-4 part 10</property>
  <property name="meta.media.0.codec.bit_rate">0</property>
  <property name="meta.attr.0.stream.HANDLER_NAME.markup">VideoHandler</property>
  <property name="meta.attr.0.stream.VENDOR_ID.markup">[0][0][0][0]</property>
  <property name="meta.attr.0.stream.ENCODER.markup">Lavc58.134.100 libx264</property>
  <property name="meta.attr.0.stream.DURATION.markup">00:00:01.000000000</property>
  <property name="meta.attr.COMMENT.markup">Rendered with Manim Community v0.6.0</property>
  <property name="meta.attr.MAJOR_BRAND.markup">isom</property>
  <property name="meta.attr.MINOR_VERSION.markup">512</property>
  <property name="meta.attr.COMPATIBLE_BRANDS.markup">isomiso2avc1mp41</property>
  <property name="meta.attr.ENCODER.markup">Lavf58.76.100</property>
  <property name="meta.media.sample_aspect_num">1</property>
  <property name="meta.media.sample_aspect_den">1</property>
  <property name="meta.media.frame_rate_num">60</property>
  <property name="meta.media.frame_rate_den">1</property>
  <property name="meta.media.colorspace">601</property>
  <property name="meta.media.color_trc">2</property>
  <property name="meta.media.width">640</property>
  <property name="meta.media.height">360</property>
  <property name="meta.media.color_range">mpeg</property>
  <property name="meta.media.top_field_first">0</property>
  <property name="meta.media.progressive">1</property>
  <property name="set.test_audio">1</property>
  <property name="set.test_image">0</property>
 </producer>
 <producer id="producer570" in="00:00:00.000" out="00:00:00.983">
  <property name="length">60</property>
  <property name="eof">pause</property>
  <property name="resource">/home/xiaoxiae/.cache/kdenlive/proxy/6310ee84495a5fbb85c13f881c3b0ff9.mkv</property>
  <property name="audio_index">-1</property>
  <property name="video_index">0</property>
  <property name="mute_on_pause">0</property>
  <property name="mlt_service">avformat-novalidate</property>
  <property name="seekable">1</property>
  <property name="aspect_ratio">1</property>
  <property name="kdenlive:clipname">6.mp4</property>
  <property name="kdenlive:folderid">124</property>
  <property name="kdenlive:id">201</property>
  <property name="kdenlive:file_size">93580</property>
  <property name="kdenlive:file_hash">6310ee84495a5fbb85c13f881c3b0ff9</property>
  <property name="kdenlive:proxy">/home/xiaoxiae/.cache/kdenlive/proxy/6310ee84495a5fbb85c13f881c3b0ff9.mkv</property>
  <property name="kdenlive:originalurl">video/Introduction/6.mp4</property>
  <property name="global_feed">1</property>
  <property name="kdenlive:original.mlt_type">producer</property>
  <property name="kdenlive:original.in">0</property>
  <property name="kdenlive:original.out">59</property>
  <property name="kdenlive:original.length">60</property>
  <property name="kdenlive:original.eof">pause</property>
  <property name="kdenlive:original.resource">video/Introduction/6.mp4</property>
  <property name="kdenlive:original.meta.media.nb_streams">1</property>
  <property name="kdenlive:original.meta.media.0.stream.type">video</property>
  <property name="kdenlive:original.meta.media.0.stream.frame_rate">60</property>
  <property name="kdenlive:original.meta.media.0.stream.sample_aspect_ratio">0</property>
  <property name="kdenlive:original.meta.media.0.codec.width">3840</property>
  <property name="kdenlive:original.meta.media.0.codec.height">2160</property>
  <property name="kdenlive:original.meta.media.0.codec.rotate">0</property>
  <property name="kdenlive:original.meta.media.0.codec.frame_rate">60</property>
  <property name="kdenlive:original.meta.media.0.codec.pix_fmt">yuv420p</property>
  <property name="kdenlive:original.meta.media.0.codec.sample_aspect_ratio">0</property>
  <property name="kdenlive:original.meta.media.0.codec.colorspace">709</property>
  <property name="kdenlive:original.meta.media.0.codec.name">h264</property>
  <property name="kdenlive:original.meta.media.0.codec.long_name">H.264 / AVC / MPEG-4 AVC / MPEG-4 part 10</property>
  <property name="kdenlive:original.meta.media.0.codec.bit_rate">735592</property>
  <property name="kdenlive:original.meta.attr.0.stream.handler_name.markup">VideoHandler</property>
  <property name="kdenlive:original.meta.attr.0.stream.vendor_id.markup">[0][0][0][0]</property>
  <property name="kdenlive:original.meta.attr.major_brand.markup">isom</property>
  <property name="kdenlive:original.meta.attr.minor_version.markup">512</property>
  <property name="kdenlive:original.meta.attr.compatible_brands.markup">isomiso2avc1mp41</property>
  <property name="kdenlive:original.meta.attr.encoder.markup">Lavf58.76.100</property>
  <property name="kdenlive:original.meta.attr.comment.markup">Rendered with Manim Community v0.6.0</property>
  <property name="kdenlive:original.seekable">1</property>
  <property name="kdenlive:original.width">3840</property>
  <property name="kdenlive:original.height">2160</property>
  <property name="kdenlive:original.meta.media.sample_aspect_num">1</property>
  <property name="kdenlive:original.meta.media.sample_aspect_den">1</property>
  <property name="kdenlive:original.aspect_ratio">1</property>
  <property name="kdenlive:original.audio_index">-1</property>
  <property name="kdenlive:original.video_index">0</property>
  <property name="kdenlive:original.mute_on_pause">1</property>
  <property name="kdenlive:original.mlt_service">avformat</property>
  <property name="kdenlive:original.meta.media.frame_rate_num">60</property>
  <property name="kdenlive:original.meta.media.frame_rate_den">1</property>
  <property name="kdenlive:original.meta.media.colorspace">709</property>
  <property name="kdenlive:original.meta.media.color_trc">2</property>
  <property name="kdenlive:original.meta.media.width">3840</property>
  <property name="kdenlive:original.meta.media.height">2160</property>
  <property name="kdenlive:original.meta.media.color_range">mpeg</property>
  <property name="kdenlive:original.meta.media.top_field_first">0</property>
  <property name="kdenlive:original.meta.media.progressive">1</property>
  <property name="kdenlive:original.backup">1</property>
  <property name="xml">was here</property>
  <property name="meta.media.nb_streams">1</property>
  <property name="meta.media.0.stream.type">video</property>
  <property name="meta.media.0.stream.frame_rate">60</property>
  <property name="meta.media.0.stream.sample_aspect_ratio">0</property>
  <property name="meta.media.0.codec.width">640</property>
  <property name="meta.media.0.codec.height">360</property>
  <property name="meta.media.0.codec.rotate">0</property>
  <property name="meta.media.0.codec.frame_rate">60</property>
  <property name="meta.media.0.codec.pix_fmt">yuv420p</property>
  <property name="meta.media.0.codec.sample_aspect_ratio">0</property>
  <property name="meta.media.0.codec.colorspace">601</property>
  <property name="meta.media.0.codec.name">h264</property>
  <property name="meta.media.0.codec.long_name">H.264 / AVC / MPEG-4 AVC / MPEG-4 part 10</property>
  <property name="meta.media.0.codec.bit_rate">0</property>
  <property name="meta.attr.0.stream.HANDLER_NAME.markup">VideoHandler</property>
  <property name="meta.attr.0.stream.VENDOR_ID.markup">[0][0][0][0]</property>
  <property name="meta.attr.0.stream.ENCODER.markup">Lavc58.134.100 libx264</property>
  <property name="meta.attr.0.stream.DURATION.markup">00:00:01.000000000</property>
  <property name="meta.attr.COMMENT.markup">Rendered with Manim Community v0.6.0</property>
  <property name="meta.attr.MAJOR_BRAND.markup">isom</property>
  <property name="meta.attr.MINOR_VERSION.markup">512</property>
  <property name="meta.attr.COMPATIBLE_BRANDS.markup">isomiso2avc1mp41</property>
  <property name="meta.attr.ENCODER.markup">Lavf58.76.100</property>
  <property name="meta.media.sample_aspect_num">1</property>
  <property name="meta.media.sample_aspect_den">1</property>
  <property name="meta.media.frame_rate_num">60</property>
  <property name="meta.media.frame_rate_den">1</property>
  <property name="meta.media.colorspace">601</property>
  <property name="meta.media.color_trc">2</property>
  <property name="meta.media.width">640</property>
  <property name="meta.media.height">360</property>
  <property name="meta.media.color_range">mpeg</property>
  <property name="meta.media.top_field_first">0</property>
  <property name="meta.media.progressive">1</property>
  <property name="set.test_audio">1</property>
  <property name="set.test_image">0</property>
 </producer>
 <producer id="producer571" in="00:00:00.000" out="00:00:00.983">
  <property name="length">60</property>
  <property name="eof">pause</property>
  <property name="resource">/home/xiaoxiae/.cache/kdenlive/proxy/9dae55fc0fbe79ddeb31a1dec89ae229.mkv</property>
  <property name="audio_index">-1</property>
  <property name="video_index">0</property>
  <property name="mute_on_pause">0</property>
  <property name="mlt_service">avformat-novalidate</property>
  <property name="seekable">1</property>
  <property name="aspect_ratio">1</property>
  <property name="kdenlive:clipname">7.mp4</property>
  <property name="kdenlive:folderid">124</property>
  <property name="kdenlive:id">203</property>
  <property name="kdenlive:file_size">112355</property>
  <property name="kdenlive:file_hash">9dae55fc0fbe79ddeb31a1dec89ae229</property>
  <property name="kdenlive:proxy">/home/xiaoxiae/.cache/kdenlive/proxy/9dae55fc0fbe79ddeb31a1dec89ae229.mkv</property>
  <property name="kdenlive:originalurl">video/Introduction/7.mp4</property>
  <property name="global_feed">1</property>
  <property name="kdenlive:original.mlt_type">producer</property>
  <property name="kdenlive:original.in">0</property>
  <property name="kdenlive:original.out">59</property>
  <property name="kdenlive:original.length">60</property>
  <property name="kdenlive:original.eof">pause</property>
  <property name="kdenlive:original.resource">video/Introduction/7.mp4</property>
  <property name="kdenlive:original.meta.media.nb_streams">1</property>
  <property name="kdenlive:original.meta.media.0.stream.type">video</property>
  <property name="kdenlive:original.meta.media.0.stream.frame_rate">60</property>
  <property name="kdenlive:original.meta.media.0.stream.sample_aspect_ratio">0</property>
  <property name="kdenlive:original.meta.media.0.codec.width">3840</property>
  <property name="kdenlive:original.meta.media.0.codec.height">2160</property>
  <property name="kdenlive:original.meta.media.0.codec.rotate">0</property>
  <property name="kdenlive:original.meta.media.0.codec.frame_rate">60</property>
  <property name="kdenlive:original.meta.media.0.codec.pix_fmt">yuv420p</property>
  <property name="kdenlive:original.meta.media.0.codec.sample_aspect_ratio">0</property>
  <property name="kdenlive:original.meta.media.0.codec.colorspace">709</property>
  <property name="kdenlive:original.meta.media.0.codec.name">h264</property>
  <property name="kdenlive:original.meta.media.0.codec.long_name">H.264 / AVC / MPEG-4 AVC / MPEG-4 part 10</property>
  <property name="kdenlive:original.meta.media.0.codec.bit_rate">885728</property>
  <property name="kdenlive:original.meta.attr.0.stream.handler_name.markup">VideoHandler</property>
  <property name="kdenlive:original.meta.attr.0.stream.vendor_id.markup">[0][0][0][0]</property>
  <property name="kdenlive:original.meta.attr.major_brand.markup">isom</property>
  <property name="kdenlive:original.meta.attr.minor_version.markup">512</property>
  <property name="kdenlive:original.meta.attr.compatible_brands.markup">isomiso2avc1mp41</property>
  <property name="kdenlive:original.meta.attr.encoder.markup">Lavf58.76.100</property>
  <property name="kdenlive:original.meta.attr.comment.markup">Rendered with Manim Community v0.6.0</property>
  <property name="kdenlive:original.seekable">1</property>
  <property name="kdenlive:original.width">3840</property>
  <property name="kdenlive:original.height">2160</property>
  <property name="kdenlive:original.meta.media.sample_aspect_num">1</property>
  <property name="kdenlive:original.meta.media.sample_aspect_den">1</property>
  <property name="kdenlive:original.aspect_ratio">1</property>
  <property name="kdenlive:original.audio_index">-1</property>
  <property name="kdenlive:original.video_index">0</property>
  <property name="kdenlive:original.mute_on_pause">1</property>
  <property name="kdenlive:original.mlt_service">avformat</property>
  <property name="kdenlive:original.meta.media.frame_rate_num">60</property>
  <property name="kdenlive:original.meta.media.frame_rate_den">1</property>
  <property name="kdenlive:original.meta.media.colorspace">709</property>
  <property name="kdenlive:original.meta.media.color_trc">2</property>
  <property name="kdenlive:original.meta.media.width">3840</property>
  <property name="kdenlive:original.meta.media.height">2160</property>
  <property name="kdenlive:original.meta.media.color_range">mpeg</property>
  <property name="kdenlive:original.meta.media.top_field_first">0</property>
  <property name="kdenlive:original.meta.media.progressive">1</property>
  <property name="kdenlive:original.backup">1</property>
  <property name="xml">was here</property>
  <property name="meta.media.nb_streams">1</property>
  <property name="meta.media.0.stream.type">video</property>
  <property name="meta.media.0.stream.frame_rate">60</property>
  <property name="meta.media.0.stream.sample_aspect_ratio">0</property>
  <property name="meta.media.0.codec.width">640</property>
  <property name="meta.media.0.codec.height">360</property>
  <property name="meta.media.0.codec.rotate">0</property>
  <property name="meta.media.0.codec.frame_rate">60</property>
  <property name="meta.media.0.codec.pix_fmt">yuv420p</property>
  <property name="meta.media.0.codec.sample_aspect_ratio">0</property>
  <property name="meta.media.0.codec.colorspace">601</property>
  <property name="meta.media.0.codec.name">h264</property>
  <property name="meta.media.0.codec.long_name">H.264 / AVC / MPEG-4 AVC / MPEG-4 part 10</property>
  <property name="meta.media.0.codec.bit_rate">0</property>
  <property name="meta.attr.0.stream.HANDLER_NAME.markup">VideoHandler</property>
  <property name="meta.attr.0.stream.VENDOR_ID.markup">[0][0][0][0]</property>
  <property name="meta.attr.0.stream.ENCODER.markup">Lavc58.134.100 libx264</property>
  <property name="meta.attr.0.stream.DURATION.markup">00:00:01.000000000</property>
  <property name="meta.attr.COMMENT.markup">Rendered with Manim Community v0.6.0</property>
  <property name="meta.attr.MAJOR_BRAND.markup">isom</property>
  <property name="meta.attr.MINOR_VERSION.markup">512</property>
  <property name="meta.attr.COMPATIBLE_BRANDS.markup">isomiso2avc1mp41</property>
  <property name="meta.attr.ENCODER.markup">Lavf58.76.100</property>
  <property name="meta.media.sample_aspect_num">1</property>
  <property name="meta.media.sample_aspect_den">1</property>
  <property name="meta.media.frame_rate_num">60</property>
  <property name="meta.media.frame_rate_den">1</property>
  <property name="meta.media.colorspace">601</property>
  <property name="meta.media.color_trc">2</property>
  <property name="meta.media.width">640</property>
  <property name="meta.media.height">360</property>
  <property name="meta.media.color_range">mpeg</property>
  <property name="meta.media.top_field_first">0</property>
  <property name="meta.media.progressive">1</property>
  <property name="set.test_audio">1</property>
  <property name="set.test_image">0</property>
 </producer>
 <producer id="producer572" in="00:00:00.000" out="00:00:00.983">
  <property name="length">60</property>
  <property name="eof">pause</property>
  <property name="resource">/home/xiaoxiae/.cache/kdenlive/proxy/e0d498e34da7a11a07adb32e0b443b1a.mkv</property>
  <property name="audio_index">-1</property>
  <property name="video_index">0</property>
  <property name="mute_on_pause">0</property>
  <property name="mlt_service">avformat-novalidate</property>
  <property name="seekable">1</property>
  <property name="aspect_ratio">1</property>
  <property name="kdenlive:clipname">8.mp4</property>
  <property name="kdenlive:folderid">124</property>
  <property name="kdenlive:id">205</property>
  <property name="kdenlive:file_size">158929</property>
  <property name="kdenlive:file_hash">e0d498e34da7a11a07adb32e0b443b1a</property>
  <property name="kdenlive:proxy">/home/xiaoxiae/.cache/kdenlive/proxy/e0d498e34da7a11a07adb32e0b443b1a.mkv</property>
  <property name="kdenlive:originalurl">video/Introduction/8.mp4</property>
  <property name="global_feed">1</property>
  <property name="kdenlive:original.mlt_type">producer</property>
  <property name="kdenlive:original.in">0</property>
  <property name="kdenlive:original.out">59</property>
  <property name="kdenlive:original.length">60</property>
  <property name="kdenlive:original.eof">pause</property>
  <property name="kdenlive:original.resource">video/Introduction/8.mp4</property>
  <property name="kdenlive:original.meta.media.nb_streams">1</property>
  <property name="kdenlive:original.meta.media.0.stream.type">video</property>
  <property name="kdenlive:original.meta.media.0.stream.frame_rate">60</property>
  <property name="kdenlive:original.meta.media.0.stream.sample_aspect_ratio">0</property>
  <property name="kdenlive:original.meta.media.0.codec.width">3840</property>
  <property name="kdenlive:original.meta.media.0.codec.height">2160</property>
  <property name="kdenlive:original.meta.media.0.codec.rotate">0</property>
  <property name="kdenlive:original.meta.media.0.codec.frame_rate">60</property>
  <property name="kdenlive:original.meta.media.0.codec.pix_fmt">yuv420p</property>
  <property name="kdenlive:original.meta.media.0.codec.sample_aspect_ratio">0</property>
  <property name="kdenlive:original.meta.media.0.codec.colorspace">709</property>
  <property name="kdenlive:original.meta.media.0.codec.name">h264</property>
  <property name="kdenlive:original.meta.media.0.codec.long_name">H.264 / AVC / MPEG-4 AVC / MPEG-4 part 10</property>
  <property name="kdenlive:original.meta.media.0.codec.bit_rate">1258768</property>
  <property name="kdenlive:original.meta.attr.0.stream.handler_name.markup">VideoHandler</property>
  <property name="kdenlive:original.meta.attr.0.stream.vendor_id.markup">[0][0][0][0]</property>
  <property name="kdenlive:original.meta.attr.major_brand.markup">isom</property>
  <property name="kdenlive:original.meta.attr.minor_version.markup">512</property>
  <property name="kdenlive:original.meta.attr.compatible_brands.markup">isomiso2avc1mp41</property>
  <property name="kdenlive:original.meta.attr.encoder.markup">Lavf58.76.100</property>
  <property name="kdenlive:original.meta.attr.comment.markup">Rendered with Manim Community v0.6.0</property>
  <property name="kdenlive:original.seekable">1</property>
  <property name="kdenlive:original.width">3840</property>
  <property name="kdenlive:original.height">2160</property>
  <property name="kdenlive:original.meta.media.sample_aspect_num">1</property>
  <property name="kdenlive:original.meta.media.sample_aspect_den">1</property>
  <property name="kdenlive:original.aspect_ratio">1</property>
  <property name="kdenlive:original.audio_index">-1</property>
  <property name="kdenlive:original.video_index">0</property>
  <property name="kdenlive:original.mute_on_pause">1</property>
  <property name="kdenlive:original.mlt_service">avformat</property>
  <property name="kdenlive:original.meta.media.frame_rate_num">60</property>
  <property name="kdenlive:original.meta.media.frame_rate_den">1</property>
  <property name="kdenlive:original.meta.media.colorspace">709</property>
  <property name="kdenlive:original.meta.media.color_trc">2</property>
  <property name="kdenlive:original.meta.media.width">3840</property>
  <property name="kdenlive:original.meta.media.height">2160</property>
  <property name="kdenlive:original.meta.media.color_range">mpeg</property>
  <property name="kdenlive:original.meta.media.top_field_first">0</property>
  <property name="kdenlive:original.meta.media.progressive">1</property>
  <property name="kdenlive:original.backup">1</property>
  <property name="xml">was here</property>
  <property name="meta.media.nb_streams">1</property>
  <property name="meta.media.0.stream.type">video</property>
  <property name="meta.media.0.stream.frame_rate">60</property>
  <property name="meta.media.0.stream.sample_aspect_ratio">0</property>
  <property name="meta.media.0.codec.width">640</property>
  <property name="meta.media.0.codec.height">360</property>
  <property name="meta.media.0.codec.rotate">0</property>
  <property name="meta.media.0.codec.frame_rate">60</property>
  <property name="meta.media.0.codec.pix_fmt">yuv420p</property>
  <property name="meta.media.0.codec.sample_aspect_ratio">0</property>
  <property name="meta.media.0.codec.colorspace">601</property>
  <property name="meta.media.0.codec.name">h264</property>
  <property name="meta.media.0.codec.long_name">H.264 / AVC / MPEG-4 AVC / MPEG-4 part 10</property>
  <property name="meta.media.0.codec.bit_rate">0</property>
  <property name="meta.attr.0.stream.HANDLER_NAME.markup">VideoHandler</property>
  <property name="meta.attr.0.stream.VENDOR_ID.markup">[0][0][0][0]</property>
  <property name="meta.attr.0.stream.ENCODER.markup">Lavc58.134.100 libx264</property>
  <property name="meta.attr.0.stream.DURATION.markup">00:00:01.000000000</property>
  <property name="meta.attr.COMMENT.markup">Rendered with Manim Community v0.6.0</property>
  <property name="meta.attr.MAJOR_BRAND.markup">isom</property>
  <property name="meta.attr.MINOR_VERSION.markup">512</property>
  <property name="meta.attr.COMPATIBLE_BRANDS.markup">isomiso2avc1mp41</property>
  <property name="meta.attr.ENCODER.markup">Lavf58.76.100</property>
  <property name="meta.media.sample_aspect_num">1</property>
  <property name="meta.media.sample_aspect_den">1</property>
  <property name="meta.media.frame_rate_num">60</property>
  <property name="meta.media.frame_rate_den">1</property>
  <property name="meta.media.colorspace">601</property>
  <property name="meta.media.color_trc">2</property>
  <property name="meta.media.width">640</property>
  <property name="meta.media.height">360</property>
  <property name="meta.media.color_range">mpeg</property>
  <property name="meta.media.top_field_first">0</property>
  <property name="meta.media.progressive">1</property>
  <property name="set.test_audio">1</property>
  <property name="set.test_image">0</property>
 </producer>
 <producer id="producer573" in="00:00:00.000" out="00:00:00.983">
  <property name="length">60</property>
  <property name="eof">pause</property>
  <property name="resource">/home/xiaoxiae/.cache/kdenlive/proxy/09799ef0c5b7bca8be7d021a1c6aa493.mkv</property>
  <property name="audio_index">-1</property>
  <property name="video_index">0</property>
  <property name="mute_on_pause">0</property>
  <property name="mlt_service">avformat-novalidate</property>
  <property name="seekable">1</property>
  <property name="aspect_ratio">1</property>
  <property name="kdenlive:clipname">9.mp4</property>
  <property name="kdenlive:folderid">124</property>
  <property name="kdenlive:id">207</property>
  <property name="kdenlive:file_size">79331</property>
  <property name="kdenlive:file_hash">09799ef0c5b7bca8be7d021a1c6aa493</property>
  <property name="kdenlive:proxy">/home/xiaoxiae/.cache/kdenlive/proxy/09799ef0c5b7bca8be7d021a1c6aa493.mkv</property>
  <property name="kdenlive:originalurl">video/Introduction/9.mp4</property>
  <property name="global_feed">1</property>
  <property name="kdenlive:original.mlt_type">producer</property>
  <property name="kdenlive:original.in">0</property>
  <property name="kdenlive:original.out">59</property>
  <property name="kdenlive:original.length">60</property>
  <property name="kdenlive:original.eof">pause</property>
  <property name="kdenlive:original.resource">video/Introduction/9.mp4</property>
  <property name="kdenlive:original.meta.media.nb_streams">1</property>
  <property name="kdenlive:original.meta.media.0.stream.type">video</property>
  <property name="kdenlive:original.meta.media.0.stream.frame_rate">60</property>
  <property name="kdenlive:original.meta.media.0.stream.sample_aspect_ratio">0</property>
  <property name="kdenlive:original.meta.media.0.codec.width">3840</property>
  <property name="kdenlive:original.meta.media.0.codec.height">2160</property>
  <property name="kdenlive:original.meta.media.0.codec.rotate">0</property>
  <property name="kdenlive:original.meta.media.0.codec.frame_rate">60</property>
  <property name="kdenlive:original.meta.media.0.codec.pix_fmt">yuv420p</property>
  <property name="kdenlive:original.meta.media.0.codec.sample_aspect_ratio">0</property>
  <property name="kdenlive:original.meta.media.0.codec.colorspace">709</property>
  <property name="kdenlive:original.meta.media.0.codec.name">h264</property>
  <property name="kdenlive:original.meta.media.0.codec.long_name">H.264 / AVC / MPEG-4 AVC / MPEG-4 part 10</property>
  <property name="kdenlive:original.meta.media.0.codec.bit_rate">621600</property>
  <property name="kdenlive:original.meta.attr.0.stream.handler_name.markup">VideoHandler</property>
  <property name="kdenlive:original.meta.attr.0.stream.vendor_id.markup">[0][0][0][0]</property>
  <property name="kdenlive:original.meta.attr.major_brand.markup">isom</property>
  <property name="kdenlive:original.meta.attr.minor_version.markup">512</property>
  <property name="kdenlive:original.meta.attr.compatible_brands.markup">isomiso2avc1mp41</property>
  <property name="kdenlive:original.meta.attr.encoder.markup">Lavf58.76.100</property>
  <property name="kdenlive:original.meta.attr.comment.markup">Rendered with Manim Community v0.6.0</property>
  <property name="kdenlive:original.seekable">1</property>
  <property name="kdenlive:original.width">3840</property>
  <property name="kdenlive:original.height">2160</property>
  <property name="kdenlive:original.meta.media.sample_aspect_num">1</property>
  <property name="kdenlive:original.meta.media.sample_aspect_den">1</property>
  <property name="kdenlive:original.aspect_ratio">1</property>
  <property name="kdenlive:original.audio_index">-1</property>
  <property name="kdenlive:original.video_index">0</property>
  <property name="kdenlive:original.mute_on_pause">1</property>
  <property name="kdenlive:original.mlt_service">avformat</property>
  <property name="kdenlive:original.meta.media.frame_rate_num">60</property>
  <property name="kdenlive:original.meta.media.frame_rate_den">1</property>
  <property name="kdenlive:original.meta.media.colorspace">709</property>
  <property name="kdenlive:original.meta.media.color_trc">2</property>
  <property name="kdenlive:original.meta.media.width">3840</property>
  <property name="kdenlive:original.meta.media.height">2160</property>
  <property name="kdenlive:original.meta.media.color_range">mpeg</property>
  <property name="kdenlive:original.meta.media.top_field_first">0</property>
  <property name="kdenlive:original.meta.media.progressive">1</property>
  <property name="kdenlive:original.backup">1</property>
  <property name="xml">was here</property>
  <property name="meta.media.nb_streams">1</property>
  <property name="meta.media.0.stream.type">video</property>
  <property name="meta.media.0.stream.frame_rate">60</property>
  <property name="meta.media.0.stream.sample_aspect_ratio">0</property>
  <property name="meta.media.0.codec.width">640</property>
  <property name="meta.media.0.codec.height">360</property>
  <property name="meta.media.0.codec.rotate">0</property>
  <property name="meta.media.0.codec.frame_rate">60</property>
  <property name="meta.media.0.codec.pix_fmt">yuv420p</property>
  <property name="meta.media.0.codec.sample_aspect_ratio">0</property>
  <property name="meta.media.0.codec.colorspace">601</property>
  <property name="meta.media.0.codec.name">h264</property>
  <property name="meta.media.0.codec.long_name">H.264 / AVC / MPEG-4 AVC / MPEG-4 part 10</property>
  <property name="meta.media.0.codec.bit_rate">0</property>
  <property name="meta.attr.0.stream.HANDLER_NAME.markup">VideoHandler</property>
  <property name="meta.attr.0.stream.VENDOR_ID.markup">[0][0][0][0]</property>
  <property name="meta.attr.0.stream.ENCODER.markup">Lavc58.134.100 libx264</property>
  <property name="meta.attr.0.stream.DURATION.markup">00:00:01.000000000</property>
  <property name="meta.attr.COMMENT.markup">Rendered with Manim Community v0.6.0</property>
  <property name="meta.attr.MAJOR_BRAND.markup">isom</property>
  <property name="meta.attr.MINOR_VERSION.markup">512</property>
  <property name="meta.attr.COMPATIBLE_BRANDS.markup">isomiso2avc1mp41</property>
  <property name="meta.attr.ENCODER.markup">Lavf58.76.100</property>
  <property name="meta.media.sample_aspect_num">1</property>
  <property name="meta.media.sample_aspect_den">1</property>
  <property name="meta.media.frame_rate_num">60</property>
  <property name="meta.media.frame_rate_den">1</property>
  <property name="meta.media.colorspace">601</property>
  <property name="meta.media.color_trc">2</property>
  <property name="meta.media.width">640</property>
  <property name="meta.media.height">360</property>
  <property name="meta.media.color_range">mpeg</property>
  <property name="meta.media.top_field_first">0</property>
  <property name="meta.media.progressive">1</property>
  <property name="set.test_audio">1</property>
  <property name="set.test_image">0</property>
 </producer>
 <producer id="producer574" in="00:00:00.000" out="00:00:00.983">
  <property name="length">60</property>
  <property name="eof">pause</property>
  <property name="resource">/home/xiaoxiae/.cache/kdenlive/proxy/e906077d540a1f13452d06d4568edb03.mkv</property>
  <property name="audio_index">-1</property>
  <property name="video_index">0</property>
  <property name="mute_on_pause">0</property>
  <property name="mlt_service">avformat-novalidate</property>
  <property name="seekable">1</property>
  <property name="aspect_ratio">1</property>
  <property name="kdenlive:clipname">10.mp4</property>
  <property name="kdenlive:folderid">124</property>
  <property name="kdenlive:id">127</property>
  <property name="kdenlive:file_size">97402</property>
  <property name="kdenlive:file_hash">e906077d540a1f13452d06d4568edb03</property>
  <property name="kdenlive:proxy">/home/xiaoxiae/.cache/kdenlive/proxy/e906077d540a1f13452d06d4568edb03.mkv</property>
  <property name="kdenlive:originalurl">video/Introduction/10.mp4</property>
  <property name="global_feed">1</property>
  <property name="kdenlive:original.mlt_type">producer</property>
  <property name="kdenlive:original.in">0</property>
  <property name="kdenlive:original.out">59</property>
  <property name="kdenlive:original.length">60</property>
  <property name="kdenlive:original.eof">pause</property>
  <property name="kdenlive:original.resource">video/Introduction/10.mp4</property>
  <property name="kdenlive:original.meta.media.nb_streams">1</property>
  <property name="kdenlive:original.meta.media.0.stream.type">video</property>
  <property name="kdenlive:original.meta.media.0.stream.frame_rate">60</property>
  <property name="kdenlive:original.meta.media.0.stream.sample_aspect_ratio">0</property>
  <property name="kdenlive:original.meta.media.0.codec.width">3840</property>
  <property name="kdenlive:original.meta.media.0.codec.height">2160</property>
  <property name="kdenlive:original.meta.media.0.codec.rotate">0</property>
  <property name="kdenlive:original.meta.media.0.codec.frame_rate">60</property>
  <property name="kdenlive:original.meta.media.0.codec.pix_fmt">yuv420p</property>
  <property name="kdenlive:original.meta.media.0.codec.sample_aspect_ratio">0</property>
  <property name="kdenlive:original.meta.media.0.codec.colorspace">709</property>
  <property name="kdenlive:original.meta.media.0.codec.name">h264</property>
  <property name="kdenlive:original.meta.media.0.codec.long_name">H.264 / AVC / MPEG-4 AVC / MPEG-4 part 10</property>
  <property name="kdenlive:original.meta.media.0.codec.bit_rate">766168</property>
  <property name="kdenlive:original.meta.attr.0.stream.handler_name.markup">VideoHandler</property>
  <property name="kdenlive:original.meta.attr.0.stream.vendor_id.markup">[0][0][0][0]</property>
  <property name="kdenlive:original.meta.attr.major_brand.markup">isom</property>
  <property name="kdenlive:original.meta.attr.minor_version.markup">512</property>
  <property name="kdenlive:original.meta.attr.compatible_brands.markup">isomiso2avc1mp41</property>
  <property name="kdenlive:original.meta.attr.encoder.markup">Lavf58.76.100</property>
  <property name="kdenlive:original.meta.attr.comment.markup">Rendered with Manim Community v0.6.0</property>
  <property name="kdenlive:original.seekable">1</property>
  <property name="kdenlive:original.width">3840</property>
  <property name="kdenlive:original.height">2160</property>
  <property name="kdenlive:original.meta.media.sample_aspect_num">1</property>
  <property name="kdenlive:original.meta.media.sample_aspect_den">1</property>
  <property name="kdenlive:original.aspect_ratio">1</property>
  <property name="kdenlive:original.audio_index">-1</property>
  <property name="kdenlive:original.video_index">0</property>
  <property name="kdenlive:original.mute_on_pause">1</property>
  <property name="kdenlive:original.mlt_service">avformat</property>
  <property name="kdenlive:original.meta.media.frame_rate_num">60</property>
  <property name="kdenlive:original.meta.media.frame_rate_den">1</property>
  <property name="kdenlive:original.meta.media.colorspace">709</property>
  <property name="kdenlive:original.meta.media.color_trc">2</property>
  <property name="kdenlive:original.meta.media.width">3840</property>
  <property name="kdenlive:original.meta.media.height">2160</property>
  <property name="kdenlive:original.meta.media.color_range">mpeg</property>
  <property name="kdenlive:original.meta.media.top_field_first">0</property>
  <property name="kdenlive:original.meta.media.progressive">1</property>
  <property name="kdenlive:original.backup">1</property>
  <property name="xml">was here</property>
  <property name="meta.media.nb_streams">1</property>
  <property name="meta.media.0.stream.type">video</property>
  <property name="meta.media.0.stream.frame_rate">60</property>
  <property name="meta.media.0.stream.sample_aspect_ratio">0</property>
  <property name="meta.media.0.codec.width">640</property>
  <property name="meta.media.0.codec.height">360</property>
  <property name="meta.media.0.codec.rotate">0</property>
  <property name="meta.media.0.codec.frame_rate">60</property>
  <property name="meta.media.0.codec.pix_fmt">yuv420p</property>
  <property name="meta.media.0.codec.sample_aspect_ratio">0</property>
  <property name="meta.media.0.codec.colorspace">601</property>
  <property name="meta.media.0.codec.name">h264</property>
  <property name="meta.media.0.codec.long_name">H.264 / AVC / MPEG-4 AVC / MPEG-4 part 10</property>
  <property name="meta.media.0.codec.bit_rate">0</property>
  <property name="meta.attr.0.stream.HANDLER_NAME.markup">VideoHandler</property>
  <property name="meta.attr.0.stream.VENDOR_ID.markup">[0][0][0][0]</property>
  <property name="meta.attr.0.stream.ENCODER.markup">Lavc58.134.100 libx264</property>
  <property name="meta.attr.0.stream.DURATION.markup">00:00:01.000000000</property>
  <property name="meta.attr.COMMENT.markup">Rendered with Manim Community v0.6.0</property>
  <property name="meta.attr.MAJOR_BRAND.markup">isom</property>
  <property name="meta.attr.MINOR_VERSION.markup">512</property>
  <property name="meta.attr.COMPATIBLE_BRANDS.markup">isomiso2avc1mp41</property>
  <property name="meta.attr.ENCODER.markup">Lavf58.76.100</property>
  <property name="meta.media.sample_aspect_num">1</property>
  <property name="meta.media.sample_aspect_den">1</property>
  <property name="meta.media.frame_rate_num">60</property>
  <property name="meta.media.frame_rate_den">1</property>
  <property name="meta.media.colorspace">601</property>
  <property name="meta.media.color_trc">2</property>
  <property name="meta.media.width">640</property>
  <property name="meta.media.height">360</property>
  <property name="meta.media.color_range">mpeg</property>
  <property name="meta.media.top_field_first">0</property>
  <property name="meta.media.progressive">1</property>
  <property name="set.test_audio">1</property>
  <property name="set.test_image">0</property>
 </producer>
 <producer id="producer575" in="00:00:00.000" out="00:00:00.983">
  <property name="length">60</property>
  <property name="eof">pause</property>
  <property name="resource">/home/xiaoxiae/.cache/kdenlive/proxy/91de6f640b8dc3f546ab555f15b40ce7.mkv</property>
  <property name="audio_index">-1</property>
  <property name="video_index">0</property>
  <property name="mute_on_pause">0</property>
  <property name="mlt_service">avformat-novalidate</property>
  <property name="seekable">1</property>
  <property name="aspect_ratio">1</property>
  <property name="kdenlive:clipname">11.mp4</property>
  <property name="kdenlive:folderid">124</property>
  <property name="kdenlive:id">129</property>
  <property name="kdenlive:file_size">146333</property>
  <property name="kdenlive:file_hash">91de6f640b8dc3f546ab555f15b40ce7</property>
  <property name="kdenlive:proxy">/home/xiaoxiae/.cache/kdenlive/proxy/91de6f640b8dc3f546ab555f15b40ce7.mkv</property>
  <property name="kdenlive:originalurl">video/Introduction/11.mp4</property>
  <property name="global_feed">1</property>
  <property name="kdenlive:original.mlt_type">producer</property>
  <property name="kdenlive:original.in">0</property>
  <property name="kdenlive:original.out">59</property>
  <property name="kdenlive:original.length">60</property>
  <property name="kdenlive:original.eof">pause</property>
  <property name="kdenlive:original.resource">video/Introduction/11.mp4</property>
  <property name="kdenlive:original.meta.media.nb_streams">1</property>
  <property name="kdenlive:original.meta.media.0.stream.type">video</property>
  <property name="kdenlive:original.meta.media.0.stream.frame_rate">60</property>
  <property name="kdenlive:original.meta.media.0.stream.sample_aspect_ratio">0</property>
  <property name="kdenlive:original.meta.media.0.codec.width">3840</property>
  <property name="kdenlive:original.meta.media.0.codec.height">2160</property>
  <property name="kdenlive:original.meta.media.0.codec.rotate">0</property>
  <property name="kdenlive:original.meta.media.0.codec.frame_rate">60</property>
  <property name="kdenlive:original.meta.media.0.codec.pix_fmt">yuv420p</property>
  <property name="kdenlive:original.meta.media.0.codec.sample_aspect_ratio">0</property>
  <property name="kdenlive:original.meta.media.0.codec.colorspace">709</property>
  <property name="kdenlive:original.meta.media.0.codec.name">h264</property>
  <property name="kdenlive:original.meta.media.0.codec.long_name">H.264 / AVC / MPEG-4 AVC / MPEG-4 part 10</property>
  <property name="kdenlive:original.meta.media.0.codec.bit_rate">1157680</property>
  <property name="kdenlive:original.meta.attr.0.stream.handler_name.markup">VideoHandler</property>
  <property name="kdenlive:original.meta.attr.0.stream.vendor_id.markup">[0][0][0][0]</property>
  <property name="kdenlive:original.meta.attr.major_brand.markup">isom</property>
  <property name="kdenlive:original.meta.attr.minor_version.markup">512</property>
  <property name="kdenlive:original.meta.attr.compatible_brands.markup">isomiso2avc1mp41</property>
  <property name="kdenlive:original.meta.attr.encoder.markup">Lavf58.76.100</property>
  <property name="kdenlive:original.meta.attr.comment.markup">Rendered with Manim Community v0.6.0</property>
  <property name="kdenlive:original.seekable">1</property>
  <property name="kdenlive:original.width">3840</property>
  <property name="kdenlive:original.height">2160</property>
  <property name="kdenlive:original.meta.media.sample_aspect_num">1</property>
  <property name="kdenlive:original.meta.media.sample_aspect_den">1</property>
  <property name="kdenlive:original.aspect_ratio">1</property>
  <property name="kdenlive:original.audio_index">-1</property>
  <property name="kdenlive:original.video_index">0</property>
  <property name="kdenlive:original.mute_on_pause">1</property>
  <property name="kdenlive:original.mlt_service">avformat</property>
  <property name="kdenlive:original.meta.media.frame_rate_num">60</property>
  <property name="kdenlive:original.meta.media.frame_rate_den">1</property>
  <property name="kdenlive:original.meta.media.colorspace">709</property>
  <property name="kdenlive:original.meta.media.color_trc">2</property>
  <property name="kdenlive:original.meta.media.width">3840</property>
  <property name="kdenlive:original.meta.media.height">2160</property>
  <property name="kdenlive:original.meta.media.color_range">mpeg</property>
  <property name="kdenlive:original.meta.media.top_field_first">0</property>
  <property name="kdenlive:original.meta.media.progressive">1</property>
  <property name="kdenlive:original.backup">1</property>
  <property name="xml">was here</property>
  <property name="meta.media.nb_streams">1</property>
  <property name="meta.media.0.stream.type">video</property>
  <property name="meta.media.0.stream.frame_rate">60</property>
  <property name="meta.media.0.stream.sample_aspect_ratio">0</property>
  <property name="meta.media.0.codec.width">640</property>
  <property name="meta.media.0.codec.height">360</property>
  <property name="meta.media.0.codec.rotate">0</property>
  <property name="meta.media.0.codec.frame_rate">60</property>
  <property name="meta.media.0.codec.pix_fmt">yuv420p</property>
  <property name="meta.media.0.codec.sample_aspect_ratio">0</property>
  <property name="meta.media.0.codec.colorspace">601</property>
  <property name="meta.media.0.codec.name">h264</property>
  <property name="meta.media.0.codec.long_name">H.264 / AVC / MPEG-4 AVC / MPEG-4 part 10</property>
  <property name="meta.media.0.codec.bit_rate">0</property>
  <property name="meta.attr.0.stream.HANDLER_NAME.markup">VideoHandler</property>
  <property name="meta.attr.0.stream.VENDOR_ID.markup">[0][0][0][0]</property>
  <property name="meta.attr.0.stream.ENCODER.markup">Lavc58.134.100 libx264</property>
  <property name="meta.attr.0.stream.DURATION.markup">00:00:01.000000000</property>
  <property name="meta.attr.COMMENT.markup">Rendered with Manim Community v0.6.0</property>
  <property name="meta.attr.MAJOR_BRAND.markup">isom</property>
  <property name="meta.attr.MINOR_VERSION.markup">512</property>
  <property name="meta.attr.COMPATIBLE_BRANDS.markup">isomiso2avc1mp41</property>
  <property name="meta.attr.ENCODER.markup">Lavf58.76.100</property>
  <property name="meta.media.sample_aspect_num">1</property>
  <property name="meta.media.sample_aspect_den">1</property>
  <property name="meta.media.frame_rate_num">60</property>
  <property name="meta.media.frame_rate_den">1</property>
  <property name="meta.media.colorspace">601</property>
  <property name="meta.media.color_trc">2</property>
  <property name="meta.media.width">640</property>
  <property name="meta.media.height">360</property>
  <property name="meta.media.color_range">mpeg</property>
  <property name="meta.media.top_field_first">0</property>
  <property name="meta.media.progressive">1</property>
  <property name="set.test_audio">1</property>
  <property name="set.test_image">0</property>
 </producer>
 <producer id="producer576" in="00:00:00.000" out="00:00:00.983">
  <property name="length">60</property>
  <property name="eof">pause</property>
  <property name="resource">/home/xiaoxiae/.cache/kdenlive/proxy/5533dd7400ae3c8bf292198ffcf2e3ed.mkv</property>
  <property name="audio_index">-1</property>
  <property name="video_index">0</property>
  <property name="mute_on_pause">0</property>
  <property name="mlt_service">avformat-novalidate</property>
  <property name="seekable">1</property>
  <property name="aspect_ratio">1</property>
  <property name="kdenlive:clipname">12.mp4</property>
  <property name="kdenlive:folderid">124</property>
  <property name="kdenlive:id">131</property>
  <property name="kdenlive:file_size">86071</property>
  <property name="kdenlive:file_hash">5533dd7400ae3c8bf292198ffcf2e3ed</property>
  <property name="kdenlive:proxy">/home/xiaoxiae/.cache/kdenlive/proxy/5533dd7400ae3c8bf292198ffcf2e3ed.mkv</property>
  <property name="kdenlive:originalurl">video/Introduction/12.mp4</property>
  <property name="global_feed">1</property>
  <property name="kdenlive:original.mlt_type">producer</property>
  <property name="kdenlive:original.in">0</property>
  <property name="kdenlive:original.out">59</property>
  <property name="kdenlive:original.length">60</property>
  <property name="kdenlive:original.eof">pause</property>
  <property name="kdenlive:original.resource">video/Introduction/12.mp4</property>
  <property name="kdenlive:original.meta.media.nb_streams">1</property>
  <property name="kdenlive:original.meta.media.0.stream.type">video</property>
  <property name="kdenlive:original.meta.media.0.stream.frame_rate">60</property>
  <property name="kdenlive:original.meta.media.0.stream.sample_aspect_ratio">0</property>
  <property name="kdenlive:original.meta.media.0.codec.width">3840</property>
  <property name="kdenlive:original.meta.media.0.codec.height">2160</property>
  <property name="kdenlive:original.meta.media.0.codec.rotate">0</property>
  <property name="kdenlive:original.meta.media.0.codec.frame_rate">60</property>
  <property name="kdenlive:original.meta.media.0.codec.pix_fmt">yuv420p</property>
  <property name="kdenlive:original.meta.media.0.codec.sample_aspect_ratio">0</property>
  <property name="kdenlive:original.meta.media.0.codec.colorspace">709</property>
  <property name="kdenlive:original.meta.media.0.codec.name">h264</property>
  <property name="kdenlive:original.meta.media.0.codec.long_name">H.264 / AVC / MPEG-4 AVC / MPEG-4 part 10</property>
  <property name="kdenlive:original.meta.media.0.codec.bit_rate">675520</property>
  <property name="kdenlive:original.meta.attr.0.stream.handler_name.markup">VideoHandler</property>
  <property name="kdenlive:original.meta.attr.0.stream.vendor_id.markup">[0][0][0][0]</property>
  <property name="kdenlive:original.meta.attr.major_brand.markup">isom</property>
  <property name="kdenlive:original.meta.attr.minor_version.markup">512</property>
  <property name="kdenlive:original.meta.attr.compatible_brands.markup">isomiso2avc1mp41</property>
  <property name="kdenlive:original.meta.attr.encoder.markup">Lavf58.76.100</property>
  <property name="kdenlive:original.meta.attr.comment.markup">Rendered with Manim Community v0.6.0</property>
  <property name="kdenlive:original.seekable">1</property>
  <property name="kdenlive:original.width">3840</property>
  <property name="kdenlive:original.height">2160</property>
  <property name="kdenlive:original.meta.media.sample_aspect_num">1</property>
  <property name="kdenlive:original.meta.media.sample_aspect_den">1</property>
  <property name="kdenlive:original.aspect_ratio">1</property>
  <property name="kdenlive:original.audio_index">-1</property>
  <property name="kdenlive:original.video_index">0</property>
  <property name="kdenlive:original.mute_on_pause">1</property>
  <property name="kdenlive:original.mlt_service">avformat</property>
  <property name="kdenlive:original.meta.media.frame_rate_num">60</property>
  <property name="kdenlive:original.meta.media.frame_rate_den">1</property>
  <property name="kdenlive:original.meta.media.colorspace">709</property>
  <property name="kdenlive:original.meta.media.color_trc">2</property>
  <property name="kdenlive:original.meta.media.width">3840</property>
  <property name="kdenlive:original.meta.media.height">2160</property>
  <property name="kdenlive:original.meta.media.color_range">mpeg</property>
  <property name="kdenlive:original.meta.media.top_field_first">0</property>
  <property name="kdenlive:original.meta.media.progressive">1</property>
  <property name="kdenlive:original.backup">1</property>
  <property name="xml">was here</property>
  <property name="meta.media.nb_streams">1</property>
  <property name="meta.media.0.stream.type">video</property>
  <property name="meta.media.0.stream.frame_rate">60</property>
  <property name="meta.media.0.stream.sample_aspect_ratio">0</property>
  <property name="meta.media.0.codec.width">640</property>
  <property name="meta.media.0.codec.height">360</property>
  <property name="meta.media.0.codec.rotate">0</property>
  <property name="meta.media.0.codec.frame_rate">60</property>
  <property name="meta.media.0.codec.pix_fmt">yuv420p</property>
  <property name="meta.media.0.codec.sample_aspect_ratio">0</property>
  <property name="meta.media.0.codec.colorspace">601</property>
  <property name="meta.media.0.codec.name">h264</property>
  <property name="meta.media.0.codec.long_name">H.264 / AVC / MPEG-4 AVC / MPEG-4 part 10</property>
  <property name="meta.media.0.codec.bit_rate">0</property>
  <property name="meta.attr.0.stream.HANDLER_NAME.markup">VideoHandler</property>
  <property name="meta.attr.0.stream.VENDOR_ID.markup">[0][0][0][0]</property>
  <property name="meta.attr.0.stream.ENCODER.markup">Lavc58.134.100 libx264</property>
  <property name="meta.attr.0.stream.DURATION.markup">00:00:01.000000000</property>
  <property name="meta.attr.COMMENT.markup">Rendered with Manim Community v0.6.0</property>
  <property name="meta.attr.MAJOR_BRAND.markup">isom</property>
  <property name="meta.attr.MINOR_VERSION.markup">512</property>
  <property name="meta.attr.COMPATIBLE_BRANDS.markup">isomiso2avc1mp41</property>
  <property name="meta.attr.ENCODER.markup">Lavf58.76.100</property>
  <property name="meta.media.sample_aspect_num">1</property>
  <property name="meta.media.sample_aspect_den">1</property>
  <property name="meta.media.frame_rate_num">60</property>
  <property name="meta.media.frame_rate_den">1</property>
  <property name="meta.media.colorspace">601</property>
  <property name="meta.media.color_trc">2</property>
  <property name="meta.media.width">640</property>
  <property name="meta.media.height">360</property>
  <property name="meta.media.color_range">mpeg</property>
  <property name="meta.media.top_field_first">0</property>
  <property name="meta.media.progressive">1</property>
  <property name="set.test_audio">1</property>
  <property name="set.test_image">0</property>
 </producer>
 <producer id="producer577" in="00:00:00.000" out="00:00:00.983">
  <property name="length">60</property>
  <property name="eof">pause</property>
  <property name="resource">/home/xiaoxiae/.cache/kdenlive/proxy/45b610c70b8cf034738e8ba8b059658a.mkv</property>
  <property name="audio_index">-1</property>
  <property name="video_index">0</property>
  <property name="mute_on_pause">0</property>
  <property name="mlt_service">avformat-novalidate</property>
  <property name="seekable">1</property>
  <property name="aspect_ratio">1</property>
  <property name="kdenlive:clipname">13.mp4</property>
  <property name="kdenlive:folderid">124</property>
  <property name="kdenlive:id">133</property>
  <property name="kdenlive:file_size">103823</property>
  <property name="kdenlive:file_hash">45b610c70b8cf034738e8ba8b059658a</property>
  <property name="kdenlive:proxy">/home/xiaoxiae/.cache/kdenlive/proxy/45b610c70b8cf034738e8ba8b059658a.mkv</property>
  <property name="kdenlive:originalurl">video/Introduction/13.mp4</property>
  <property name="global_feed">1</property>
  <property name="kdenlive:original.mlt_type">producer</property>
  <property name="kdenlive:original.in">0</property>
  <property name="kdenlive:original.out">59</property>
  <property name="kdenlive:original.length">60</property>
  <property name="kdenlive:original.eof">pause</property>
  <property name="kdenlive:original.resource">video/Introduction/13.mp4</property>
  <property name="kdenlive:original.meta.media.nb_streams">1</property>
  <property name="kdenlive:original.meta.media.0.stream.type">video</property>
  <property name="kdenlive:original.meta.media.0.stream.frame_rate">60</property>
  <property name="kdenlive:original.meta.media.0.stream.sample_aspect_ratio">0</property>
  <property name="kdenlive:original.meta.media.0.codec.width">3840</property>
  <property name="kdenlive:original.meta.media.0.codec.height">2160</property>
  <property name="kdenlive:original.meta.media.0.codec.rotate">0</property>
  <property name="kdenlive:original.meta.media.0.codec.frame_rate">60</property>
  <property name="kdenlive:original.meta.media.0.codec.pix_fmt">yuv420p</property>
  <property name="kdenlive:original.meta.media.0.codec.sample_aspect_ratio">0</property>
  <property name="kdenlive:original.meta.media.0.codec.colorspace">709</property>
  <property name="kdenlive:original.meta.media.0.codec.name">h264</property>
  <property name="kdenlive:original.meta.media.0.codec.long_name">H.264 / AVC / MPEG-4 AVC / MPEG-4 part 10</property>
  <property name="kdenlive:original.meta.media.0.codec.bit_rate">817536</property>
  <property name="kdenlive:original.meta.attr.0.stream.handler_name.markup">VideoHandler</property>
  <property name="kdenlive:original.meta.attr.0.stream.vendor_id.markup">[0][0][0][0]</property>
  <property name="kdenlive:original.meta.attr.major_brand.markup">isom</property>
  <property name="kdenlive:original.meta.attr.minor_version.markup">512</property>
  <property name="kdenlive:original.meta.attr.compatible_brands.markup">isomiso2avc1mp41</property>
  <property name="kdenlive:original.meta.attr.encoder.markup">Lavf58.76.100</property>
  <property name="kdenlive:original.meta.attr.comment.markup">Rendered with Manim Community v0.6.0</property>
  <property name="kdenlive:original.seekable">1</property>
  <property name="kdenlive:original.width">3840</property>
  <property name="kdenlive:original.height">2160</property>
  <property name="kdenlive:original.meta.media.sample_aspect_num">1</property>
  <property name="kdenlive:original.meta.media.sample_aspect_den">1</property>
  <property name="kdenlive:original.aspect_ratio">1</property>
  <property name="kdenlive:original.audio_index">-1</property>
  <property name="kdenlive:original.video_index">0</property>
  <property name="kdenlive:original.mute_on_pause">1</property>
  <property name="kdenlive:original.mlt_service">avformat</property>
  <property name="kdenlive:original.meta.media.frame_rate_num">60</property>
  <property name="kdenlive:original.meta.media.frame_rate_den">1</property>
  <property name="kdenlive:original.meta.media.colorspace">709</property>
  <property name="kdenlive:original.meta.media.color_trc">2</property>
  <property name="kdenlive:original.meta.media.width">3840</property>
  <property name="kdenlive:original.meta.media.height">2160</property>
  <property name="kdenlive:original.meta.media.color_range">mpeg</property>
  <property name="kdenlive:original.meta.media.top_field_first">0</property>
  <property name="kdenlive:original.meta.media.progressive">1</property>
  <property name="kdenlive:original.backup">1</property>
  <property name="xml">was here</property>
  <property name="meta.media.nb_streams">1</property>
  <property name="meta.media.0.stream.type">video</property>
  <property name="meta.media.0.stream.frame_rate">60</property>
  <property name="meta.media.0.stream.sample_aspect_ratio">0</property>
  <property name="meta.media.0.codec.width">640</property>
  <property name="meta.media.0.codec.height">360</property>
  <property name="meta.media.0.codec.rotate">0</property>
  <property name="meta.media.0.codec.frame_rate">60</property>
  <property name="meta.media.0.codec.pix_fmt">yuv420p</property>
  <property name="meta.media.0.codec.sample_aspect_ratio">0</property>
  <property name="meta.media.0.codec.colorspace">601</property>
  <property name="meta.media.0.codec.name">h264</property>
  <property name="meta.media.0.codec.long_name">H.264 / AVC / MPEG-4 AVC / MPEG-4 part 10</property>
  <property name="meta.media.0.codec.bit_rate">0</property>
  <property name="meta.attr.0.stream.HANDLER_NAME.markup">VideoHandler</property>
  <property name="meta.attr.0.stream.VENDOR_ID.markup">[0][0][0][0]</property>
  <property name="meta.attr.0.stream.ENCODER.markup">Lavc58.134.100 libx264</property>
  <property name="meta.attr.0.stream.DURATION.markup">00:00:01.000000000</property>
  <property name="meta.attr.COMMENT.markup">Rendered with Manim Community v0.6.0</property>
  <property name="meta.attr.MAJOR_BRAND.markup">isom</property>
  <property name="meta.attr.MINOR_VERSION.markup">512</property>
  <property name="meta.attr.COMPATIBLE_BRANDS.markup">isomiso2avc1mp41</property>
  <property name="meta.attr.ENCODER.markup">Lavf58.76.100</property>
  <property name="meta.media.sample_aspect_num">1</property>
  <property name="meta.media.sample_aspect_den">1</property>
  <property name="meta.media.frame_rate_num">60</property>
  <property name="meta.media.frame_rate_den">1</property>
  <property name="meta.media.colorspace">601</property>
  <property name="meta.media.color_trc">2</property>
  <property name="meta.media.width">640</property>
  <property name="meta.media.height">360</property>
  <property name="meta.media.color_range">mpeg</property>
  <property name="meta.media.top_field_first">0</property>
  <property name="meta.media.progressive">1</property>
  <property name="set.test_audio">1</property>
  <property name="set.test_image">0</property>
 </producer>
 <producer id="producer578" in="00:00:00.000" out="00:00:00.983">
  <property name="length">60</property>
  <property name="eof">pause</property>
  <property name="resource">/home/xiaoxiae/.cache/kdenlive/proxy/37aba6db33fdeda4bccb75a30449dab5.mkv</property>
  <property name="audio_index">-1</property>
  <property name="video_index">0</property>
  <property name="mute_on_pause">0</property>
  <property name="mlt_service">avformat-novalidate</property>
  <property name="seekable">1</property>
  <property name="aspect_ratio">1</property>
  <property name="kdenlive:clipname">14.mp4</property>
  <property name="kdenlive:folderid">124</property>
  <property name="kdenlive:id">135</property>
  <property name="kdenlive:file_size">168491</property>
  <property name="kdenlive:file_hash">37aba6db33fdeda4bccb75a30449dab5</property>
  <property name="kdenlive:proxy">/home/xiaoxiae/.cache/kdenlive/proxy/37aba6db33fdeda4bccb75a30449dab5.mkv</property>
  <property name="kdenlive:originalurl">video/Introduction/14.mp4</property>
  <property name="global_feed">1</property>
  <property name="kdenlive:original.mlt_type">producer</property>
  <property name="kdenlive:original.in">0</property>
  <property name="kdenlive:original.out">59</property>
  <property name="kdenlive:original.length">60</property>
  <property name="kdenlive:original.eof">pause</property>
  <property name="kdenlive:original.resource">video/Introduction/14.mp4</property>
  <property name="kdenlive:original.meta.media.nb_streams">1</property>
  <property name="kdenlive:original.meta.media.0.stream.type">video</property>
  <property name="kdenlive:original.meta.media.0.stream.frame_rate">60</property>
  <property name="kdenlive:original.meta.media.0.stream.sample_aspect_ratio">0</property>
  <property name="kdenlive:original.meta.media.0.codec.width">3840</property>
  <property name="kdenlive:original.meta.media.0.codec.height">2160</property>
  <property name="kdenlive:original.meta.media.0.codec.rotate">0</property>
  <property name="kdenlive:original.meta.media.0.codec.frame_rate">60</property>
  <property name="kdenlive:original.meta.media.0.codec.pix_fmt">yuv420p</property>
  <property name="kdenlive:original.meta.media.0.codec.sample_aspect_ratio">0</property>
  <property name="kdenlive:original.meta.media.0.codec.colorspace">709</property>
  <property name="kdenlive:original.meta.media.0.codec.name">h264</property>
  <property name="kdenlive:original.meta.media.0.codec.long_name">H.264 / AVC / MPEG-4 AVC / MPEG-4 part 10</property>
  <property name="kdenlive:original.meta.media.0.codec.bit_rate">1335008</property>
  <property name="kdenlive:original.meta.attr.0.stream.handler_name.markup">VideoHandler</property>
  <property name="kdenlive:original.meta.attr.0.stream.vendor_id.markup">[0][0][0][0]</property>
  <property name="kdenlive:original.meta.attr.major_brand.markup">isom</property>
  <property name="kdenlive:original.meta.attr.minor_version.markup">512</property>
  <property name="kdenlive:original.meta.attr.compatible_brands.markup">isomiso2avc1mp41</property>
  <property name="kdenlive:original.meta.attr.encoder.markup">Lavf58.76.100</property>
  <property name="kdenlive:original.meta.attr.comment.markup">Rendered with Manim Community v0.6.0</property>
  <property name="kdenlive:original.seekable">1</property>
  <property name="kdenlive:original.width">3840</property>
  <property name="kdenlive:original.height">2160</property>
  <property name="kdenlive:original.meta.media.sample_aspect_num">1</property>
  <property name="kdenlive:original.meta.media.sample_aspect_den">1</property>
  <property name="kdenlive:original.aspect_ratio">1</property>
  <property name="kdenlive:original.audio_index">-1</property>
  <property name="kdenlive:original.video_index">0</property>
  <property name="kdenlive:original.mute_on_pause">1</property>
  <property name="kdenlive:original.mlt_service">avformat</property>
  <property name="kdenlive:original.meta.media.frame_rate_num">60</property>
  <property name="kdenlive:original.meta.media.frame_rate_den">1</property>
  <property name="kdenlive:original.meta.media.colorspace">709</property>
  <property name="kdenlive:original.meta.media.color_trc">2</property>
  <property name="kdenlive:original.meta.media.width">3840</property>
  <property name="kdenlive:original.meta.media.height">2160</property>
  <property name="kdenlive:original.meta.media.color_range">mpeg</property>
  <property name="kdenlive:original.meta.media.top_field_first">0</property>
  <property name="kdenlive:original.meta.media.progressive">1</property>
  <property name="kdenlive:original.backup">1</property>
  <property name="xml">was here</property>
  <property name="meta.media.nb_streams">1</property>
  <property name="meta.media.0.stream.type">video</property>
  <property name="meta.media.0.stream.frame_rate">60</property>
  <property name="meta.media.0.stream.sample_aspect_ratio">0</property>
  <property name="meta.media.0.codec.width">640</property>
  <property name="meta.media.0.codec.height">360</property>
  <property name="meta.media.0.codec.rotate">0</property>
  <property name="meta.media.0.codec.frame_rate">60</property>
  <property name="meta.media.0.codec.pix_fmt">yuv420p</property>
  <property name="meta.media.0.codec.sample_aspect_ratio">0</property>
  <property name="meta.media.0.codec.colorspace">601</property>
  <property name="meta.media.0.codec.name">h264</property>
  <property name="meta.media.0.codec.long_name">H.264 / AVC / MPEG-4 AVC / MPEG-4 part 10</property>
  <property name="meta.media.0.codec.bit_rate">0</property>
  <property name="meta.attr.0.stream.HANDLER_NAME.markup">VideoHandler</property>
  <property name="meta.attr.0.stream.VENDOR_ID.markup">[0][0][0][0]</property>
  <property name="meta.attr.0.stream.ENCODER.markup">Lavc58.134.100 libx264</property>
  <property name="meta.attr.0.stream.DURATION.markup">00:00:01.000000000</property>
  <property name="meta.attr.COMMENT.markup">Rendered with Manim Community v0.6.0</property>
  <property name="meta.attr.MAJOR_BRAND.markup">isom</property>
  <property name="meta.attr.MINOR_VERSION.markup">512</property>
  <property name="meta.attr.COMPATIBLE_BRANDS.markup">isomiso2avc1mp41</property>
  <property name="meta.attr.ENCODER.markup">Lavf58.76.100</property>
  <property name="meta.media.sample_aspect_num">1</property>
  <property name="meta.media.sample_aspect_den">1</property>
  <property name="meta.media.frame_rate_num">60</property>
  <property name="meta.media.frame_rate_den">1</property>
  <property name="meta.media.colorspace">601</property>
  <property name="meta.media.color_trc">2</property>
  <property name="meta.media.width">640</property>
  <property name="meta.media.height">360</property>
  <property name="meta.media.color_range">mpeg</property>
  <property name="meta.media.top_field_first">0</property>
  <property name="meta.media.progressive">1</property>
  <property name="set.test_audio">1</property>
  <property name="set.test_image">0</property>
 </producer>
 <producer id="producer579" in="00:00:00.000" out="00:00:00.983">
  <property name="length">60</property>
  <property name="eof">pause</property>
  <property name="resource">/home/xiaoxiae/.cache/kdenlive/proxy/d82b760f34ef341ad5744bd0663962f2.mkv</property>
  <property name="audio_index">-1</property>
  <property name="video_index">0</property>
  <property name="mute_on_pause">0</property>
  <property name="mlt_service">avformat-novalidate</property>
  <property name="seekable">1</property>
  <property name="aspect_ratio">1</property>
  <property name="kdenlive:clipname">15.mp4</property>
  <property name="kdenlive:folderid">124</property>
  <property name="kdenlive:id">137</property>
  <property name="kdenlive:file_size">87682</property>
  <property name="kdenlive:file_hash">d82b760f34ef341ad5744bd0663962f2</property>
  <property name="kdenlive:proxy">/home/xiaoxiae/.cache/kdenlive/proxy/d82b760f34ef341ad5744bd0663962f2.mkv</property>
  <property name="kdenlive:originalurl">video/Introduction/15.mp4</property>
  <property name="global_feed">1</property>
  <property name="kdenlive:original.mlt_type">producer</property>
  <property name="kdenlive:original.in">0</property>
  <property name="kdenlive:original.out">59</property>
  <property name="kdenlive:original.length">60</property>
  <property name="kdenlive:original.eof">pause</property>
  <property name="kdenlive:original.resource">video/Introduction/15.mp4</property>
  <property name="kdenlive:original.meta.media.nb_streams">1</property>
  <property name="kdenlive:original.meta.media.0.stream.type">video</property>
  <property name="kdenlive:original.meta.media.0.stream.frame_rate">60</property>
  <property name="kdenlive:original.meta.media.0.stream.sample_aspect_ratio">0</property>
  <property name="kdenlive:original.meta.media.0.codec.width">3840</property>
  <property name="kdenlive:original.meta.media.0.codec.height">2160</property>
  <property name="kdenlive:original.meta.media.0.codec.rotate">0</property>
  <property name="kdenlive:original.meta.media.0.codec.frame_rate">60</property>
  <property name="kdenlive:original.meta.media.0.codec.pix_fmt">yuv420p</property>
  <property name="kdenlive:original.meta.media.0.codec.sample_aspect_ratio">0</property>
  <property name="kdenlive:original.meta.media.0.codec.colorspace">709</property>
  <property name="kdenlive:original.meta.media.0.codec.name">h264</property>
  <property name="kdenlive:original.meta.media.0.codec.long_name">H.264 / AVC / MPEG-4 AVC / MPEG-4 part 10</property>
  <property name="kdenlive:original.meta.media.0.codec.bit_rate">688408</property>
  <property name="kdenlive:original.meta.attr.0.stream.handler_name.markup">VideoHandler</property>
  <property name="kdenlive:original.meta.attr.0.stream.vendor_id.markup">[0][0][0][0]</property>
  <property name="kdenlive:original.meta.attr.major_brand.markup">isom</property>
  <property name="kdenlive:original.meta.attr.minor_version.markup">512</property>
  <property name="kdenlive:original.meta.attr.compatible_brands.markup">isomiso2avc1mp41</property>
  <property name="kdenlive:original.meta.attr.encoder.markup">Lavf58.76.100</property>
  <property name="kdenlive:original.meta.attr.comment.markup">Rendered with Manim Community v0.6.0</property>
  <property name="kdenlive:original.seekable">1</property>
  <property name="kdenlive:original.width">3840</property>
  <property name="kdenlive:original.height">2160</property>
  <property name="kdenlive:original.meta.media.sample_aspect_num">1</property>
  <property name="kdenlive:original.meta.media.sample_aspect_den">1</property>
  <property name="kdenlive:original.aspect_ratio">1</property>
  <property name="kdenlive:original.audio_index">-1</property>
  <property name="kdenlive:original.video_index">0</property>
  <property name="kdenlive:original.mute_on_pause">1</property>
  <property name="kdenlive:original.mlt_service">avformat</property>
  <property name="kdenlive:original.meta.media.frame_rate_num">60</property>
  <property name="kdenlive:original.meta.media.frame_rate_den">1</property>
  <property name="kdenlive:original.meta.media.colorspace">709</property>
  <property name="kdenlive:original.meta.media.color_trc">2</property>
  <property name="kdenlive:original.meta.media.width">3840</property>
  <property name="kdenlive:original.meta.media.height">2160</property>
  <property name="kdenlive:original.meta.media.color_range">mpeg</property>
  <property name="kdenlive:original.meta.media.top_field_first">0</property>
  <property name="kdenlive:original.meta.media.progressive">1</property>
  <property name="kdenlive:original.backup">1</property>
  <property name="xml">was here</property>
  <property name="meta.media.nb_streams">1</property>
  <property name="meta.media.0.stream.type">video</property>
  <property name="meta.media.0.stream.frame_rate">60</property>
  <property name="meta.media.0.stream.sample_aspect_ratio">0</property>
  <property name="meta.media.0.codec.width">640</property>
  <property name="meta.media.0.codec.height">360</property>
  <property name="meta.media.0.codec.rotate">0</property>
  <property name="meta.media.0.codec.frame_rate">60</property>
  <property name="meta.media.0.codec.pix_fmt">yuv420p</property>
  <property name="meta.media.0.codec.sample_aspect_ratio">0</property>
  <property name="meta.media.0.codec.colorspace">601</property>
  <property name="meta.media.0.codec.name">h264</property>
  <property name="meta.media.0.codec.long_name">H.264 / AVC / MPEG-4 AVC / MPEG-4 part 10</property>
  <property name="meta.media.0.codec.bit_rate">0</property>
  <property name="meta.attr.0.stream.HANDLER_NAME.markup">VideoHandler</property>
  <property name="meta.attr.0.stream.VENDOR_ID.markup">[0][0][0][0]</property>
  <property name="meta.attr.0.stream.ENCODER.markup">Lavc58.134.100 libx264</property>
  <property name="meta.attr.0.stream.DURATION.markup">00:00:01.000000000</property>
  <property name="meta.attr.COMMENT.markup">Rendered with Manim Community v0.6.0</property>
  <property name="meta.attr.MAJOR_BRAND.markup">isom</property>
  <property name="meta.attr.MINOR_VERSION.markup">512</property>
  <property name="meta.attr.COMPATIBLE_BRANDS.markup">isomiso2avc1mp41</property>
  <property name="meta.attr.ENCODER.markup">Lavf58.76.100</property>
  <property name="meta.media.sample_aspect_num">1</property>
  <property name="meta.media.sample_aspect_den">1</property>
  <property name="meta.media.frame_rate_num">60</property>
  <property name="meta.media.frame_rate_den">1</property>
  <property name="meta.media.colorspace">601</property>
  <property name="meta.media.color_trc">2</property>
  <property name="meta.media.width">640</property>
  <property name="meta.media.height">360</property>
  <property name="meta.media.color_range">mpeg</property>
  <property name="meta.media.top_field_first">0</property>
  <property name="meta.media.progressive">1</property>
  <property name="set.test_audio">1</property>
  <property name="set.test_image">0</property>
 </producer>
 <producer id="producer580" in="00:00:00.000" out="00:00:00.983">
  <property name="length">60</property>
  <property name="eof">pause</property>
  <property name="resource">/home/xiaoxiae/.cache/kdenlive/proxy/102a64184e99f6174013066d828e4ce7.mkv</property>
  <property name="audio_index">-1</property>
  <property name="video_index">0</property>
  <property name="mute_on_pause">0</property>
  <property name="mlt_service">avformat-novalidate</property>
  <property name="seekable">1</property>
  <property name="aspect_ratio">1</property>
  <property name="kdenlive:clipname">16.mp4</property>
  <property name="kdenlive:folderid">124</property>
  <property name="kdenlive:id">139</property>
  <property name="kdenlive:file_size">118485</property>
  <property name="kdenlive:file_hash">102a64184e99f6174013066d828e4ce7</property>
  <property name="kdenlive:proxy">/home/xiaoxiae/.cache/kdenlive/proxy/102a64184e99f6174013066d828e4ce7.mkv</property>
  <property name="kdenlive:originalurl">video/Introduction/16.mp4</property>
  <property name="global_feed">1</property>
  <property name="kdenlive:original.mlt_type">producer</property>
  <property name="kdenlive:original.in">0</property>
  <property name="kdenlive:original.out">59</property>
  <property name="kdenlive:original.length">60</property>
  <property name="kdenlive:original.eof">pause</property>
  <property name="kdenlive:original.resource">video/Introduction/16.mp4</property>
  <property name="kdenlive:original.meta.media.nb_streams">1</property>
  <property name="kdenlive:original.meta.media.0.stream.type">video</property>
  <property name="kdenlive:original.meta.media.0.stream.frame_rate">60</property>
  <property name="kdenlive:original.meta.media.0.stream.sample_aspect_ratio">0</property>
  <property name="kdenlive:original.meta.media.0.codec.width">3840</property>
  <property name="kdenlive:original.meta.media.0.codec.height">2160</property>
  <property name="kdenlive:original.meta.media.0.codec.rotate">0</property>
  <property name="kdenlive:original.meta.media.0.codec.frame_rate">60</property>
  <property name="kdenlive:original.meta.media.0.codec.pix_fmt">yuv420p</property>
  <property name="kdenlive:original.meta.media.0.codec.sample_aspect_ratio">0</property>
  <property name="kdenlive:original.meta.media.0.codec.colorspace">709</property>
  <property name="kdenlive:original.meta.media.0.codec.name">h264</property>
  <property name="kdenlive:original.meta.media.0.codec.long_name">H.264 / AVC / MPEG-4 AVC / MPEG-4 part 10</property>
  <property name="kdenlive:original.meta.media.0.codec.bit_rate">934768</property>
  <property name="kdenlive:original.meta.attr.0.stream.handler_name.markup">VideoHandler</property>
  <property name="kdenlive:original.meta.attr.0.stream.vendor_id.markup">[0][0][0][0]</property>
  <property name="kdenlive:original.meta.attr.major_brand.markup">isom</property>
  <property name="kdenlive:original.meta.attr.minor_version.markup">512</property>
  <property name="kdenlive:original.meta.attr.compatible_brands.markup">isomiso2avc1mp41</property>
  <property name="kdenlive:original.meta.attr.encoder.markup">Lavf58.76.100</property>
  <property name="kdenlive:original.meta.attr.comment.markup">Rendered with Manim Community v0.6.0</property>
  <property name="kdenlive:original.seekable">1</property>
  <property name="kdenlive:original.width">3840</property>
  <property name="kdenlive:original.height">2160</property>
  <property name="kdenlive:original.meta.media.sample_aspect_num">1</property>
  <property name="kdenlive:original.meta.media.sample_aspect_den">1</property>
  <property name="kdenlive:original.aspect_ratio">1</property>
  <property name="kdenlive:original.audio_index">-1</property>
  <property name="kdenlive:original.video_index">0</property>
  <property name="kdenlive:original.mute_on_pause">1</property>
  <property name="kdenlive:original.mlt_service">avformat</property>
  <property name="kdenlive:original.meta.media.frame_rate_num">60</property>
  <property name="kdenlive:original.meta.media.frame_rate_den">1</property>
  <property name="kdenlive:original.meta.media.colorspace">709</property>
  <property name="kdenlive:original.meta.media.color_trc">2</property>
  <property name="kdenlive:original.meta.media.width">3840</property>
  <property name="kdenlive:original.meta.media.height">2160</property>
  <property name="kdenlive:original.meta.media.color_range">mpeg</property>
  <property name="kdenlive:original.meta.media.top_field_first">0</property>
  <property name="kdenlive:original.meta.media.progressive">1</property>
  <property name="kdenlive:original.backup">1</property>
  <property name="xml">was here</property>
  <property name="meta.media.nb_streams">1</property>
  <property name="meta.media.0.stream.type">video</property>
  <property name="meta.media.0.stream.frame_rate">60</property>
  <property name="meta.media.0.stream.sample_aspect_ratio">0</property>
  <property name="meta.media.0.codec.width">640</property>
  <property name="meta.media.0.codec.height">360</property>
  <property name="meta.media.0.codec.rotate">0</property>
  <property name="meta.media.0.codec.frame_rate">60</property>
  <property name="meta.media.0.codec.pix_fmt">yuv420p</property>
  <property name="meta.media.0.codec.sample_aspect_ratio">0</property>
  <property name="meta.media.0.codec.colorspace">601</property>
  <property name="meta.media.0.codec.name">h264</property>
  <property name="meta.media.0.codec.long_name">H.264 / AVC / MPEG-4 AVC / MPEG-4 part 10</property>
  <property name="meta.media.0.codec.bit_rate">0</property>
  <property name="meta.attr.0.stream.HANDLER_NAME.markup">VideoHandler</property>
  <property name="meta.attr.0.stream.VENDOR_ID.markup">[0][0][0][0]</property>
  <property name="meta.attr.0.stream.ENCODER.markup">Lavc58.134.100 libx264</property>
  <property name="meta.attr.0.stream.DURATION.markup">00:00:01.000000000</property>
  <property name="meta.attr.COMMENT.markup">Rendered with Manim Community v0.6.0</property>
  <property name="meta.attr.MAJOR_BRAND.markup">isom</property>
  <property name="meta.attr.MINOR_VERSION.markup">512</property>
  <property name="meta.attr.COMPATIBLE_BRANDS.markup">isomiso2avc1mp41</property>
  <property name="meta.attr.ENCODER.markup">Lavf58.76.100</property>
  <property name="meta.media.sample_aspect_num">1</property>
  <property name="meta.media.sample_aspect_den">1</property>
  <property name="meta.media.frame_rate_num">60</property>
  <property name="meta.media.frame_rate_den">1</property>
  <property name="meta.media.colorspace">601</property>
  <property name="meta.media.color_trc">2</property>
  <property name="meta.media.width">640</property>
  <property name="meta.media.height">360</property>
  <property name="meta.media.color_range">mpeg</property>
  <property name="meta.media.top_field_first">0</property>
  <property name="meta.media.progressive">1</property>
  <property name="set.test_audio">1</property>
  <property name="set.test_image">0</property>
 </producer>
 <producer id="producer581" in="00:00:00.000" out="00:00:03.483">
  <property name="length">210</property>
  <property name="eof">pause</property>
  <property name="resource">/home/xiaoxiae/.cache/kdenlive/proxy/5d49918fbf5a4ce2ec7b39ff8b444e0f.mkv</property>
  <property name="audio_index">-1</property>
  <property name="video_index">0</property>
  <property name="mute_on_pause">0</property>
  <property name="mlt_service">avformat-novalidate</property>
  <property name="seekable">1</property>
  <property name="aspect_ratio">1</property>
  <property name="kdenlive:clipname">36.mp4</property>
  <property name="kdenlive:folderid">124</property>
  <property name="kdenlive:id">183</property>
  <property name="kdenlive:file_size">1575112</property>
  <property name="kdenlive:file_hash">5d49918fbf5a4ce2ec7b39ff8b444e0f</property>
  <property name="kdenlive:proxy">/home/xiaoxiae/.cache/kdenlive/proxy/5d49918fbf5a4ce2ec7b39ff8b444e0f.mkv</property>
  <property name="kdenlive:originalurl">video/Introduction/36.mp4</property>
  <property name="global_feed">1</property>
  <property name="kdenlive:original.mlt_type">producer</property>
  <property name="kdenlive:original.in">0</property>
  <property name="kdenlive:original.out">209</property>
  <property name="kdenlive:original.length">210</property>
  <property name="kdenlive:original.eof">pause</property>
  <property name="kdenlive:original.resource">video/Introduction/36.mp4</property>
  <property name="kdenlive:original.meta.media.nb_streams">1</property>
  <property name="kdenlive:original.meta.media.0.stream.type">video</property>
  <property name="kdenlive:original.meta.media.0.stream.frame_rate">60</property>
  <property name="kdenlive:original.meta.media.0.stream.sample_aspect_ratio">0</property>
  <property name="kdenlive:original.meta.media.0.codec.width">3840</property>
  <property name="kdenlive:original.meta.media.0.codec.height">2160</property>
  <property name="kdenlive:original.meta.media.0.codec.rotate">0</property>
  <property name="kdenlive:original.meta.media.0.codec.frame_rate">60</property>
  <property name="kdenlive:original.meta.media.0.codec.pix_fmt">yuv420p</property>
  <property name="kdenlive:original.meta.media.0.codec.sample_aspect_ratio">0</property>
  <property name="kdenlive:original.meta.media.0.codec.colorspace">709</property>
  <property name="kdenlive:original.meta.media.0.codec.name">h264</property>
  <property name="kdenlive:original.meta.media.0.codec.long_name">H.264 / AVC / MPEG-4 AVC / MPEG-4 part 10</property>
  <property name="kdenlive:original.meta.media.0.codec.bit_rate">3593145</property>
  <property name="kdenlive:original.meta.attr.0.stream.handler_name.markup">VideoHandler</property>
  <property name="kdenlive:original.meta.attr.0.stream.vendor_id.markup">[0][0][0][0]</property>
  <property name="kdenlive:original.meta.attr.major_brand.markup">isom</property>
  <property name="kdenlive:original.meta.attr.minor_version.markup">512</property>
  <property name="kdenlive:original.meta.attr.compatible_brands.markup">isomiso2avc1mp41</property>
  <property name="kdenlive:original.meta.attr.encoder.markup">Lavf58.76.100</property>
  <property name="kdenlive:original.meta.attr.comment.markup">Rendered with Manim Community v0.6.0</property>
  <property name="kdenlive:original.seekable">1</property>
  <property name="kdenlive:original.width">3840</property>
  <property name="kdenlive:original.height">2160</property>
  <property name="kdenlive:original.meta.media.sample_aspect_num">1</property>
  <property name="kdenlive:original.meta.media.sample_aspect_den">1</property>
  <property name="kdenlive:original.aspect_ratio">1</property>
  <property name="kdenlive:original.audio_index">-1</property>
  <property name="kdenlive:original.video_index">0</property>
  <property name="kdenlive:original.mute_on_pause">1</property>
  <property name="kdenlive:original.mlt_service">avformat</property>
  <property name="kdenlive:original.meta.media.frame_rate_num">60</property>
  <property name="kdenlive:original.meta.media.frame_rate_den">1</property>
  <property name="kdenlive:original.meta.media.colorspace">709</property>
  <property name="kdenlive:original.meta.media.color_trc">2</property>
  <property name="kdenlive:original.meta.media.width">3840</property>
  <property name="kdenlive:original.meta.media.height">2160</property>
  <property name="kdenlive:original.meta.media.color_range">mpeg</property>
  <property name="kdenlive:original.meta.media.top_field_first">0</property>
  <property name="kdenlive:original.meta.media.progressive">1</property>
  <property name="kdenlive:original.backup">1</property>
  <property name="xml">was here</property>
  <property name="meta.media.nb_streams">1</property>
  <property name="meta.media.0.stream.type">video</property>
  <property name="meta.media.0.stream.frame_rate">60</property>
  <property name="meta.media.0.stream.sample_aspect_ratio">0</property>
  <property name="meta.media.0.codec.width">640</property>
  <property name="meta.media.0.codec.height">360</property>
  <property name="meta.media.0.codec.rotate">0</property>
  <property name="meta.media.0.codec.frame_rate">60</property>
  <property name="meta.media.0.codec.pix_fmt">yuv420p</property>
  <property name="meta.media.0.codec.sample_aspect_ratio">0</property>
  <property name="meta.media.0.codec.colorspace">601</property>
  <property name="meta.media.0.codec.name">h264</property>
  <property name="meta.media.0.codec.long_name">H.264 / AVC / MPEG-4 AVC / MPEG-4 part 10</property>
  <property name="meta.media.0.codec.bit_rate">0</property>
  <property name="meta.attr.0.stream.HANDLER_NAME.markup">VideoHandler</property>
  <property name="meta.attr.0.stream.VENDOR_ID.markup">[0][0][0][0]</property>
  <property name="meta.attr.0.stream.ENCODER.markup">Lavc58.134.100 libx264</property>
  <property name="meta.attr.0.stream.DURATION.markup">00:00:03.500000000</property>
  <property name="meta.attr.COMMENT.markup">Rendered with Manim Community v0.6.0</property>
  <property name="meta.attr.MAJOR_BRAND.markup">isom</property>
  <property name="meta.attr.MINOR_VERSION.markup">512</property>
  <property name="meta.attr.COMPATIBLE_BRANDS.markup">isomiso2avc1mp41</property>
  <property name="meta.attr.ENCODER.markup">Lavf58.76.100</property>
  <property name="meta.media.sample_aspect_num">1</property>
  <property name="meta.media.sample_aspect_den">1</property>
  <property name="meta.media.frame_rate_num">60</property>
  <property name="meta.media.frame_rate_den">1</property>
  <property name="meta.media.colorspace">601</property>
  <property name="meta.media.color_trc">2</property>
  <property name="meta.media.width">640</property>
  <property name="meta.media.height">360</property>
  <property name="meta.media.color_range">mpeg</property>
  <property name="meta.media.top_field_first">0</property>
  <property name="meta.media.progressive">1</property>
  <property name="set.test_audio">1</property>
  <property name="set.test_image">0</property>
 </producer>
 <producer id="producer582" in="00:00:00.000" out="00:00:00.983">
  <property name="length">60</property>
  <property name="eof">pause</property>
  <property name="resource">/home/xiaoxiae/.cache/kdenlive/proxy/ae6fb1dbe766d2b5016243e2ff8a56e2.mkv</property>
  <property name="audio_index">-1</property>
  <property name="video_index">0</property>
  <property name="mute_on_pause">0</property>
  <property name="mlt_service">avformat-novalidate</property>
  <property name="seekable">1</property>
  <property name="aspect_ratio">1</property>
  <property name="kdenlive:clipname">37.mp4</property>
  <property name="kdenlive:folderid">124</property>
  <property name="kdenlive:id">185</property>
  <property name="kdenlive:file_size">344594</property>
  <property name="kdenlive:file_hash">ae6fb1dbe766d2b5016243e2ff8a56e2</property>
  <property name="kdenlive:proxy">/home/xiaoxiae/.cache/kdenlive/proxy/ae6fb1dbe766d2b5016243e2ff8a56e2.mkv</property>
  <property name="kdenlive:originalurl">video/Introduction/37.mp4</property>
  <property name="global_feed">1</property>
  <property name="kdenlive:original.mlt_type">producer</property>
  <property name="kdenlive:original.in">0</property>
  <property name="kdenlive:original.out">59</property>
  <property name="kdenlive:original.length">60</property>
  <property name="kdenlive:original.eof">pause</property>
  <property name="kdenlive:original.resource">video/Introduction/37.mp4</property>
  <property name="kdenlive:original.meta.media.nb_streams">1</property>
  <property name="kdenlive:original.meta.media.0.stream.type">video</property>
  <property name="kdenlive:original.meta.media.0.stream.frame_rate">60</property>
  <property name="kdenlive:original.meta.media.0.stream.sample_aspect_ratio">0</property>
  <property name="kdenlive:original.meta.media.0.codec.width">3840</property>
  <property name="kdenlive:original.meta.media.0.codec.height">2160</property>
  <property name="kdenlive:original.meta.media.0.codec.rotate">0</property>
  <property name="kdenlive:original.meta.media.0.codec.frame_rate">60</property>
  <property name="kdenlive:original.meta.media.0.codec.pix_fmt">yuv420p</property>
  <property name="kdenlive:original.meta.media.0.codec.sample_aspect_ratio">0</property>
  <property name="kdenlive:original.meta.media.0.codec.colorspace">709</property>
  <property name="kdenlive:original.meta.media.0.codec.name">h264</property>
  <property name="kdenlive:original.meta.media.0.codec.long_name">H.264 / AVC / MPEG-4 AVC / MPEG-4 part 10</property>
  <property name="kdenlive:original.meta.media.0.codec.bit_rate">2744152</property>
  <property name="kdenlive:original.meta.attr.0.stream.handler_name.markup">VideoHandler</property>
  <property name="kdenlive:original.meta.attr.0.stream.vendor_id.markup">[0][0][0][0]</property>
  <property name="kdenlive:original.meta.attr.major_brand.markup">isom</property>
  <property name="kdenlive:original.meta.attr.minor_version.markup">512</property>
  <property name="kdenlive:original.meta.attr.compatible_brands.markup">isomiso2avc1mp41</property>
  <property name="kdenlive:original.meta.attr.encoder.markup">Lavf58.76.100</property>
  <property name="kdenlive:original.meta.attr.comment.markup">Rendered with Manim Community v0.6.0</property>
  <property name="kdenlive:original.seekable">1</property>
  <property name="kdenlive:original.width">3840</property>
  <property name="kdenlive:original.height">2160</property>
  <property name="kdenlive:original.meta.media.sample_aspect_num">1</property>
  <property name="kdenlive:original.meta.media.sample_aspect_den">1</property>
  <property name="kdenlive:original.aspect_ratio">1</property>
  <property name="kdenlive:original.audio_index">-1</property>
  <property name="kdenlive:original.video_index">0</property>
  <property name="kdenlive:original.mute_on_pause">1</property>
  <property name="kdenlive:original.mlt_service">avformat</property>
  <property name="kdenlive:original.meta.media.frame_rate_num">60</property>
  <property name="kdenlive:original.meta.media.frame_rate_den">1</property>
  <property name="kdenlive:original.meta.media.colorspace">709</property>
  <property name="kdenlive:original.meta.media.color_trc">2</property>
  <property name="kdenlive:original.meta.media.width">3840</property>
  <property name="kdenlive:original.meta.media.height">2160</property>
  <property name="kdenlive:original.meta.media.color_range">mpeg</property>
  <property name="kdenlive:original.meta.media.top_field_first">0</property>
  <property name="kdenlive:original.meta.media.progressive">1</property>
  <property name="kdenlive:original.backup">1</property>
  <property name="xml">was here</property>
  <property name="meta.media.nb_streams">1</property>
  <property name="meta.media.0.stream.type">video</property>
  <property name="meta.media.0.stream.frame_rate">60</property>
  <property name="meta.media.0.stream.sample_aspect_ratio">0</property>
  <property name="meta.media.0.codec.width">640</property>
  <property name="meta.media.0.codec.height">360</property>
  <property name="meta.media.0.codec.rotate">0</property>
  <property name="meta.media.0.codec.frame_rate">60</property>
  <property name="meta.media.0.codec.pix_fmt">yuv420p</property>
  <property name="meta.media.0.codec.sample_aspect_ratio">0</property>
  <property name="meta.media.0.codec.colorspace">601</property>
  <property name="meta.media.0.codec.name">h264</property>
  <property name="meta.media.0.codec.long_name">H.264 / AVC / MPEG-4 AVC / MPEG-4 part 10</property>
  <property name="meta.media.0.codec.bit_rate">0</property>
  <property name="meta.attr.0.stream.HANDLER_NAME.markup">VideoHandler</property>
  <property name="meta.attr.0.stream.VENDOR_ID.markup">[0][0][0][0]</property>
  <property name="meta.attr.0.stream.ENCODER.markup">Lavc58.134.100 libx264</property>
  <property name="meta.attr.0.stream.DURATION.markup">00:00:01.000000000</property>
  <property name="meta.attr.COMMENT.markup">Rendered with Manim Community v0.6.0</property>
  <property name="meta.attr.MAJOR_BRAND.markup">isom</property>
  <property name="meta.attr.MINOR_VERSION.markup">512</property>
  <property name="meta.attr.COMPATIBLE_BRANDS.markup">isomiso2avc1mp41</property>
  <property name="meta.attr.ENCODER.markup">Lavf58.76.100</property>
  <property name="meta.media.sample_aspect_num">1</property>
  <property name="meta.media.sample_aspect_den">1</property>
  <property name="meta.media.frame_rate_num">60</property>
  <property name="meta.media.frame_rate_den">1</property>
  <property name="meta.media.colorspace">601</property>
  <property name="meta.media.color_trc">2</property>
  <property name="meta.media.width">640</property>
  <property name="meta.media.height">360</property>
  <property name="meta.media.color_range">mpeg</property>
  <property name="meta.media.top_field_first">0</property>
  <property name="meta.media.progressive">1</property>
  <property name="set.test_audio">1</property>
  <property name="set.test_image">0</property>
 </producer>
 <producer id="producer583" in="00:00:00.000" out="00:00:00.983">
  <property name="length">60</property>
  <property name="eof">pause</property>
  <property name="resource">/home/xiaoxiae/.cache/kdenlive/proxy/88c8de13fb510a026ff6bd9264011fc0.mkv</property>
  <property name="audio_index">-1</property>
  <property name="video_index">0</property>
  <property name="mute_on_pause">0</property>
  <property name="mlt_service">avformat-novalidate</property>
  <property name="seekable">1</property>
  <property name="aspect_ratio">1</property>
  <property name="kdenlive:clipname">38.mp4</property>
  <property name="kdenlive:folderid">124</property>
  <property name="kdenlive:id">187</property>
  <property name="kdenlive:file_size">53175</property>
  <property name="kdenlive:file_hash">88c8de13fb510a026ff6bd9264011fc0</property>
  <property name="kdenlive:proxy">/home/xiaoxiae/.cache/kdenlive/proxy/88c8de13fb510a026ff6bd9264011fc0.mkv</property>
  <property name="kdenlive:originalurl">video/Introduction/38.mp4</property>
  <property name="global_feed">1</property>
  <property name="kdenlive:original.mlt_type">producer</property>
  <property name="kdenlive:original.in">0</property>
  <property name="kdenlive:original.out">59</property>
  <property name="kdenlive:original.length">60</property>
  <property name="kdenlive:original.eof">pause</property>
  <property name="kdenlive:original.resource">video/Introduction/38.mp4</property>
  <property name="kdenlive:original.meta.media.nb_streams">1</property>
  <property name="kdenlive:original.meta.media.0.stream.type">video</property>
  <property name="kdenlive:original.meta.media.0.stream.frame_rate">60</property>
  <property name="kdenlive:original.meta.media.0.stream.sample_aspect_ratio">0</property>
  <property name="kdenlive:original.meta.media.0.codec.width">3840</property>
  <property name="kdenlive:original.meta.media.0.codec.height">2160</property>
  <property name="kdenlive:original.meta.media.0.codec.rotate">0</property>
  <property name="kdenlive:original.meta.media.0.codec.frame_rate">60</property>
  <property name="kdenlive:original.meta.media.0.codec.pix_fmt">yuv420p</property>
  <property name="kdenlive:original.meta.media.0.codec.sample_aspect_ratio">0</property>
  <property name="kdenlive:original.meta.media.0.codec.colorspace">709</property>
  <property name="kdenlive:original.meta.media.0.codec.name">h264</property>
  <property name="kdenlive:original.meta.media.0.codec.long_name">H.264 / AVC / MPEG-4 AVC / MPEG-4 part 10</property>
  <property name="kdenlive:original.meta.media.0.codec.bit_rate">412352</property>
  <property name="kdenlive:original.meta.attr.0.stream.handler_name.markup">VideoHandler</property>
  <property name="kdenlive:original.meta.attr.0.stream.vendor_id.markup">[0][0][0][0]</property>
  <property name="kdenlive:original.meta.attr.major_brand.markup">isom</property>
  <property name="kdenlive:original.meta.attr.minor_version.markup">512</property>
  <property name="kdenlive:original.meta.attr.compatible_brands.markup">isomiso2avc1mp41</property>
  <property name="kdenlive:original.meta.attr.encoder.markup">Lavf58.76.100</property>
  <property name="kdenlive:original.meta.attr.comment.markup">Rendered with Manim Community v0.6.0</property>
  <property name="kdenlive:original.seekable">1</property>
  <property name="kdenlive:original.width">3840</property>
  <property name="kdenlive:original.height">2160</property>
  <property name="kdenlive:original.meta.media.sample_aspect_num">1</property>
  <property name="kdenlive:original.meta.media.sample_aspect_den">1</property>
  <property name="kdenlive:original.aspect_ratio">1</property>
  <property name="kdenlive:original.audio_index">-1</property>
  <property name="kdenlive:original.video_index">0</property>
  <property name="kdenlive:original.mute_on_pause">1</property>
  <property name="kdenlive:original.mlt_service">avformat</property>
  <property name="kdenlive:original.meta.media.frame_rate_num">60</property>
  <property name="kdenlive:original.meta.media.frame_rate_den">1</property>
  <property name="kdenlive:original.meta.media.colorspace">709</property>
  <property name="kdenlive:original.meta.media.color_trc">2</property>
  <property name="kdenlive:original.meta.media.width">3840</property>
  <property name="kdenlive:original.meta.media.height">2160</property>
  <property name="kdenlive:original.meta.media.color_range">mpeg</property>
  <property name="kdenlive:original.meta.media.top_field_first">0</property>
  <property name="kdenlive:original.meta.media.progressive">1</property>
  <property name="kdenlive:original.backup">1</property>
  <property name="xml">was here</property>
  <property name="meta.media.nb_streams">1</property>
  <property name="meta.media.0.stream.type">video</property>
  <property name="meta.media.0.stream.frame_rate">60</property>
  <property name="meta.media.0.stream.sample_aspect_ratio">0</property>
  <property name="meta.media.0.codec.width">640</property>
  <property name="meta.media.0.codec.height">360</property>
  <property name="meta.media.0.codec.rotate">0</property>
  <property name="meta.media.0.codec.frame_rate">60</property>
  <property name="meta.media.0.codec.pix_fmt">yuv420p</property>
  <property name="meta.media.0.codec.sample_aspect_ratio">0</property>
  <property name="meta.media.0.codec.colorspace">601</property>
  <property name="meta.media.0.codec.name">h264</property>
  <property name="meta.media.0.codec.long_name">H.264 / AVC / MPEG-4 AVC / MPEG-4 part 10</property>
  <property name="meta.media.0.codec.bit_rate">0</property>
  <property name="meta.attr.0.stream.HANDLER_NAME.markup">VideoHandler</property>
  <property name="meta.attr.0.stream.VENDOR_ID.markup">[0][0][0][0]</property>
  <property name="meta.attr.0.stream.ENCODER.markup">Lavc58.134.100 libx264</property>
  <property name="meta.attr.0.stream.DURATION.markup">00:00:01.000000000</property>
  <property name="meta.attr.COMMENT.markup">Rendered with Manim Community v0.6.0</property>
  <property name="meta.attr.MAJOR_BRAND.markup">isom</property>
  <property name="meta.attr.MINOR_VERSION.markup">512</property>
  <property name="meta.attr.COMPATIBLE_BRANDS.markup">isomiso2avc1mp41</property>
  <property name="meta.attr.ENCODER.markup">Lavf58.76.100</property>
  <property name="meta.media.sample_aspect_num">1</property>
  <property name="meta.media.sample_aspect_den">1</property>
  <property name="meta.media.frame_rate_num">60</property>
  <property name="meta.media.frame_rate_den">1</property>
  <property name="meta.media.colorspace">601</property>
  <property name="meta.media.color_trc">2</property>
  <property name="meta.media.width">640</property>
  <property name="meta.media.height">360</property>
  <property name="meta.media.color_range">mpeg</property>
  <property name="meta.media.top_field_first">0</property>
  <property name="meta.media.progressive">1</property>
  <property name="set.test_audio">1</property>
  <property name="set.test_image">0</property>
 </producer>
 <producer id="producer584" in="00:00:00.000" out="00:00:00.983">
  <property name="length">60</property>
  <property name="eof">pause</property>
  <property name="resource">/home/xiaoxiae/.cache/kdenlive/proxy/24abdac31a7d3a25917ff62e028821f7.mkv</property>
  <property name="audio_index">-1</property>
  <property name="video_index">0</property>
  <property name="mute_on_pause">0</property>
  <property name="mlt_service">avformat-novalidate</property>
  <property name="seekable">1</property>
  <property name="aspect_ratio">1</property>
  <property name="kdenlive:clipname">39.mp4</property>
  <property name="kdenlive:folderid">124</property>
  <property name="kdenlive:id">189</property>
  <property name="kdenlive:file_size">241804</property>
  <property name="kdenlive:file_hash">24abdac31a7d3a25917ff62e028821f7</property>
  <property name="kdenlive:proxy">/home/xiaoxiae/.cache/kdenlive/proxy/24abdac31a7d3a25917ff62e028821f7.mkv</property>
  <property name="kdenlive:originalurl">video/Introduction/39.mp4</property>
  <property name="global_feed">1</property>
  <property name="kdenlive:original.mlt_type">producer</property>
  <property name="kdenlive:original.in">0</property>
  <property name="kdenlive:original.out">59</property>
  <property name="kdenlive:original.length">60</property>
  <property name="kdenlive:original.eof">pause</property>
  <property name="kdenlive:original.resource">video/Introduction/39.mp4</property>
  <property name="kdenlive:original.meta.media.nb_streams">1</property>
  <property name="kdenlive:original.meta.media.0.stream.type">video</property>
  <property name="kdenlive:original.meta.media.0.stream.frame_rate">60</property>
  <property name="kdenlive:original.meta.media.0.stream.sample_aspect_ratio">0</property>
  <property name="kdenlive:original.meta.media.0.codec.width">3840</property>
  <property name="kdenlive:original.meta.media.0.codec.height">2160</property>
  <property name="kdenlive:original.meta.media.0.codec.rotate">0</property>
  <property name="kdenlive:original.meta.media.0.codec.frame_rate">60</property>
  <property name="kdenlive:original.meta.media.0.codec.pix_fmt">yuv420p</property>
  <property name="kdenlive:original.meta.media.0.codec.sample_aspect_ratio">0</property>
  <property name="kdenlive:original.meta.media.0.codec.colorspace">709</property>
  <property name="kdenlive:original.meta.media.0.codec.name">h264</property>
  <property name="kdenlive:original.meta.media.0.codec.long_name">H.264 / AVC / MPEG-4 AVC / MPEG-4 part 10</property>
  <property name="kdenlive:original.meta.media.0.codec.bit_rate">1921384</property>
  <property name="kdenlive:original.meta.attr.0.stream.handler_name.markup">VideoHandler</property>
  <property name="kdenlive:original.meta.attr.0.stream.vendor_id.markup">[0][0][0][0]</property>
  <property name="kdenlive:original.meta.attr.major_brand.markup">isom</property>
  <property name="kdenlive:original.meta.attr.minor_version.markup">512</property>
  <property name="kdenlive:original.meta.attr.compatible_brands.markup">isomiso2avc1mp41</property>
  <property name="kdenlive:original.meta.attr.encoder.markup">Lavf58.76.100</property>
  <property name="kdenlive:original.meta.attr.comment.markup">Rendered with Manim Community v0.6.0</property>
  <property name="kdenlive:original.seekable">1</property>
  <property name="kdenlive:original.width">3840</property>
  <property name="kdenlive:original.height">2160</property>
  <property name="kdenlive:original.meta.media.sample_aspect_num">1</property>
  <property name="kdenlive:original.meta.media.sample_aspect_den">1</property>
  <property name="kdenlive:original.aspect_ratio">1</property>
  <property name="kdenlive:original.audio_index">-1</property>
  <property name="kdenlive:original.video_index">0</property>
  <property name="kdenlive:original.mute_on_pause">1</property>
  <property name="kdenlive:original.mlt_service">avformat</property>
  <property name="kdenlive:original.meta.media.frame_rate_num">60</property>
  <property name="kdenlive:original.meta.media.frame_rate_den">1</property>
  <property name="kdenlive:original.meta.media.colorspace">709</property>
  <property name="kdenlive:original.meta.media.color_trc">2</property>
  <property name="kdenlive:original.meta.media.width">3840</property>
  <property name="kdenlive:original.meta.media.height">2160</property>
  <property name="kdenlive:original.meta.media.color_range">mpeg</property>
  <property name="kdenlive:original.meta.media.top_field_first">0</property>
  <property name="kdenlive:original.meta.media.progressive">1</property>
  <property name="kdenlive:original.backup">1</property>
  <property name="xml">was here</property>
  <property name="meta.media.nb_streams">1</property>
  <property name="meta.media.0.stream.type">video</property>
  <property name="meta.media.0.stream.frame_rate">60</property>
  <property name="meta.media.0.stream.sample_aspect_ratio">0</property>
  <property name="meta.media.0.codec.width">640</property>
  <property name="meta.media.0.codec.height">360</property>
  <property name="meta.media.0.codec.rotate">0</property>
  <property name="meta.media.0.codec.frame_rate">60</property>
  <property name="meta.media.0.codec.pix_fmt">yuv420p</property>
  <property name="meta.media.0.codec.sample_aspect_ratio">0</property>
  <property name="meta.media.0.codec.colorspace">601</property>
  <property name="meta.media.0.codec.name">h264</property>
  <property name="meta.media.0.codec.long_name">H.264 / AVC / MPEG-4 AVC / MPEG-4 part 10</property>
  <property name="meta.media.0.codec.bit_rate">0</property>
  <property name="meta.attr.0.stream.HANDLER_NAME.markup">VideoHandler</property>
  <property name="meta.attr.0.stream.VENDOR_ID.markup">[0][0][0][0]</property>
  <property name="meta.attr.0.stream.ENCODER.markup">Lavc58.134.100 libx264</property>
  <property name="meta.attr.0.stream.DURATION.markup">00:00:01.000000000</property>
  <property name="meta.attr.COMMENT.markup">Rendered with Manim Community v0.6.0</property>
  <property name="meta.attr.MAJOR_BRAND.markup">isom</property>
  <property name="meta.attr.MINOR_VERSION.markup">512</property>
  <property name="meta.attr.COMPATIBLE_BRANDS.markup">isomiso2avc1mp41</property>
  <property name="meta.attr.ENCODER.markup">Lavf58.76.100</property>
  <property name="meta.media.sample_aspect_num">1</property>
  <property name="meta.media.sample_aspect_den">1</property>
  <property name="meta.media.frame_rate_num">60</property>
  <property name="meta.media.frame_rate_den">1</property>
  <property name="meta.media.colorspace">601</property>
  <property name="meta.media.color_trc">2</property>
  <property name="meta.media.width">640</property>
  <property name="meta.media.height">360</property>
  <property name="meta.media.color_range">mpeg</property>
  <property name="meta.media.top_field_first">0</property>
  <property name="meta.media.progressive">1</property>
  <property name="set.test_audio">1</property>
  <property name="set.test_image">0</property>
 </producer>
 <producer id="producer585" in="00:00:00.000" out="00:00:00.983">
  <property name="length">60</property>
  <property name="eof">pause</property>
  <property name="resource">/home/xiaoxiae/.cache/kdenlive/proxy/8f16dcd1946b7e7e1a2c097096c00247.mkv</property>
  <property name="audio_index">-1</property>
  <property name="video_index">0</property>
  <property name="mute_on_pause">0</property>
  <property name="mlt_service">avformat-novalidate</property>
  <property name="seekable">1</property>
  <property name="aspect_ratio">1</property>
  <property name="kdenlive:clipname">40.mp4</property>
  <property name="kdenlive:folderid">124</property>
  <property name="kdenlive:id">193</property>
  <property name="kdenlive:file_size">74817</property>
  <property name="kdenlive:file_hash">8f16dcd1946b7e7e1a2c097096c00247</property>
  <property name="kdenlive:proxy">/home/xiaoxiae/.cache/kdenlive/proxy/8f16dcd1946b7e7e1a2c097096c00247.mkv</property>
  <property name="kdenlive:originalurl">video/Introduction/40.mp4</property>
  <property name="global_feed">1</property>
  <property name="kdenlive:original.mlt_type">producer</property>
  <property name="kdenlive:original.in">0</property>
  <property name="kdenlive:original.out">59</property>
  <property name="kdenlive:original.length">60</property>
  <property name="kdenlive:original.eof">pause</property>
  <property name="kdenlive:original.resource">video/Introduction/40.mp4</property>
  <property name="kdenlive:original.meta.media.nb_streams">1</property>
  <property name="kdenlive:original.meta.media.0.stream.type">video</property>
  <property name="kdenlive:original.meta.media.0.stream.frame_rate">60</property>
  <property name="kdenlive:original.meta.media.0.stream.sample_aspect_ratio">0</property>
  <property name="kdenlive:original.meta.media.0.codec.width">3840</property>
  <property name="kdenlive:original.meta.media.0.codec.height">2160</property>
  <property name="kdenlive:original.meta.media.0.codec.rotate">0</property>
  <property name="kdenlive:original.meta.media.0.codec.frame_rate">60</property>
  <property name="kdenlive:original.meta.media.0.codec.pix_fmt">yuv420p</property>
  <property name="kdenlive:original.meta.media.0.codec.sample_aspect_ratio">0</property>
  <property name="kdenlive:original.meta.media.0.codec.colorspace">709</property>
  <property name="kdenlive:original.meta.media.0.codec.name">h264</property>
  <property name="kdenlive:original.meta.media.0.codec.long_name">H.264 / AVC / MPEG-4 AVC / MPEG-4 part 10</property>
  <property name="kdenlive:original.meta.media.0.codec.bit_rate">585488</property>
  <property name="kdenlive:original.meta.attr.0.stream.handler_name.markup">VideoHandler</property>
  <property name="kdenlive:original.meta.attr.0.stream.vendor_id.markup">[0][0][0][0]</property>
  <property name="kdenlive:original.meta.attr.major_brand.markup">isom</property>
  <property name="kdenlive:original.meta.attr.minor_version.markup">512</property>
  <property name="kdenlive:original.meta.attr.compatible_brands.markup">isomiso2avc1mp41</property>
  <property name="kdenlive:original.meta.attr.encoder.markup">Lavf58.76.100</property>
  <property name="kdenlive:original.meta.attr.comment.markup">Rendered with Manim Community v0.6.0</property>
  <property name="kdenlive:original.seekable">1</property>
  <property name="kdenlive:original.width">3840</property>
  <property name="kdenlive:original.height">2160</property>
  <property name="kdenlive:original.meta.media.sample_aspect_num">1</property>
  <property name="kdenlive:original.meta.media.sample_aspect_den">1</property>
  <property name="kdenlive:original.aspect_ratio">1</property>
  <property name="kdenlive:original.audio_index">-1</property>
  <property name="kdenlive:original.video_index">0</property>
  <property name="kdenlive:original.mute_on_pause">1</property>
  <property name="kdenlive:original.mlt_service">avformat</property>
  <property name="kdenlive:original.meta.media.frame_rate_num">60</property>
  <property name="kdenlive:original.meta.media.frame_rate_den">1</property>
  <property name="kdenlive:original.meta.media.colorspace">709</property>
  <property name="kdenlive:original.meta.media.color_trc">2</property>
  <property name="kdenlive:original.meta.media.width">3840</property>
  <property name="kdenlive:original.meta.media.height">2160</property>
  <property name="kdenlive:original.meta.media.color_range">mpeg</property>
  <property name="kdenlive:original.meta.media.top_field_first">0</property>
  <property name="kdenlive:original.meta.media.progressive">1</property>
  <property name="kdenlive:original.backup">1</property>
  <property name="xml">was here</property>
  <property name="meta.media.nb_streams">1</property>
  <property name="meta.media.0.stream.type">video</property>
  <property name="meta.media.0.stream.frame_rate">60</property>
  <property name="meta.media.0.stream.sample_aspect_ratio">0</property>
  <property name="meta.media.0.codec.width">640</property>
  <property name="meta.media.0.codec.height">360</property>
  <property name="meta.media.0.codec.rotate">0</property>
  <property name="meta.media.0.codec.frame_rate">60</property>
  <property name="meta.media.0.codec.pix_fmt">yuv420p</property>
  <property name="meta.media.0.codec.sample_aspect_ratio">0</property>
  <property name="meta.media.0.codec.colorspace">601</property>
  <property name="meta.media.0.codec.name">h264</property>
  <property name="meta.media.0.codec.long_name">H.264 / AVC / MPEG-4 AVC / MPEG-4 part 10</property>
  <property name="meta.media.0.codec.bit_rate">0</property>
  <property name="meta.attr.0.stream.HANDLER_NAME.markup">VideoHandler</property>
  <property name="meta.attr.0.stream.VENDOR_ID.markup">[0][0][0][0]</property>
  <property name="meta.attr.0.stream.ENCODER.markup">Lavc58.134.100 libx264</property>
  <property name="meta.attr.0.stream.DURATION.markup">00:00:01.000000000</property>
  <property name="meta.attr.COMMENT.markup">Rendered with Manim Community v0.6.0</property>
  <property name="meta.attr.MAJOR_BRAND.markup">isom</property>
  <property name="meta.attr.MINOR_VERSION.markup">512</property>
  <property name="meta.attr.COMPATIBLE_BRANDS.markup">isomiso2avc1mp41</property>
  <property name="meta.attr.ENCODER.markup">Lavf58.76.100</property>
  <property name="meta.media.sample_aspect_num">1</property>
  <property name="meta.media.sample_aspect_den">1</property>
  <property name="meta.media.frame_rate_num">60</property>
  <property name="meta.media.frame_rate_den">1</property>
  <property name="meta.media.colorspace">601</property>
  <property name="meta.media.color_trc">2</property>
  <property name="meta.media.width">640</property>
  <property name="meta.media.height">360</property>
  <property name="meta.media.color_range">mpeg</property>
  <property name="meta.media.top_field_first">0</property>
  <property name="meta.media.progressive">1</property>
  <property name="set.test_audio">1</property>
  <property name="set.test_image">0</property>
 </producer>
 <producer id="producer586" in="00:00:00.000" out="00:00:00.983">
  <property name="length">60</property>
  <property name="eof">pause</property>
  <property name="resource">/home/xiaoxiae/.cache/kdenlive/proxy/9fe4e8d6c090aa232b96bf9ccc99b0c0.mkv</property>
  <property name="audio_index">-1</property>
  <property name="video_index">0</property>
  <property name="mute_on_pause">0</property>
  <property name="mlt_service">avformat-novalidate</property>
  <property name="seekable">1</property>
  <property name="aspect_ratio">1</property>
  <property name="kdenlive:clipname">41.mp4</property>
  <property name="kdenlive:folderid">124</property>
  <property name="kdenlive:id">195</property>
  <property name="kdenlive:file_size">196942</property>
  <property name="kdenlive:file_hash">9fe4e8d6c090aa232b96bf9ccc99b0c0</property>
  <property name="kdenlive:proxy">/home/xiaoxiae/.cache/kdenlive/proxy/9fe4e8d6c090aa232b96bf9ccc99b0c0.mkv</property>
  <property name="kdenlive:originalurl">video/Introduction/41.mp4</property>
  <property name="global_feed">1</property>
  <property name="kdenlive:original.mlt_type">producer</property>
  <property name="kdenlive:original.in">0</property>
  <property name="kdenlive:original.out">59</property>
  <property name="kdenlive:original.length">60</property>
  <property name="kdenlive:original.eof">pause</property>
  <property name="kdenlive:original.resource">video/Introduction/41.mp4</property>
  <property name="kdenlive:original.meta.media.nb_streams">1</property>
  <property name="kdenlive:original.meta.media.0.stream.type">video</property>
  <property name="kdenlive:original.meta.media.0.stream.frame_rate">60</property>
  <property name="kdenlive:original.meta.media.0.stream.sample_aspect_ratio">0</property>
  <property name="kdenlive:original.meta.media.0.codec.width">3840</property>
  <property name="kdenlive:original.meta.media.0.codec.height">2160</property>
  <property name="kdenlive:original.meta.media.0.codec.rotate">0</property>
  <property name="kdenlive:original.meta.media.0.codec.frame_rate">60</property>
  <property name="kdenlive:original.meta.media.0.codec.pix_fmt">yuv420p</property>
  <property name="kdenlive:original.meta.media.0.codec.sample_aspect_ratio">0</property>
  <property name="kdenlive:original.meta.media.0.codec.colorspace">709</property>
  <property name="kdenlive:original.meta.media.0.codec.name">h264</property>
  <property name="kdenlive:original.meta.media.0.codec.long_name">H.264 / AVC / MPEG-4 AVC / MPEG-4 part 10</property>
  <property name="kdenlive:original.meta.media.0.codec.bit_rate">1562488</property>
  <property name="kdenlive:original.meta.attr.0.stream.handler_name.markup">VideoHandler</property>
  <property name="kdenlive:original.meta.attr.0.stream.vendor_id.markup">[0][0][0][0]</property>
  <property name="kdenlive:original.meta.attr.major_brand.markup">isom</property>
  <property name="kdenlive:original.meta.attr.minor_version.markup">512</property>
  <property name="kdenlive:original.meta.attr.compatible_brands.markup">isomiso2avc1mp41</property>
  <property name="kdenlive:original.meta.attr.encoder.markup">Lavf58.76.100</property>
  <property name="kdenlive:original.meta.attr.comment.markup">Rendered with Manim Community v0.6.0</property>
  <property name="kdenlive:original.seekable">1</property>
  <property name="kdenlive:original.width">3840</property>
  <property name="kdenlive:original.height">2160</property>
  <property name="kdenlive:original.meta.media.sample_aspect_num">1</property>
  <property name="kdenlive:original.meta.media.sample_aspect_den">1</property>
  <property name="kdenlive:original.aspect_ratio">1</property>
  <property name="kdenlive:original.audio_index">-1</property>
  <property name="kdenlive:original.video_index">0</property>
  <property name="kdenlive:original.mute_on_pause">1</property>
  <property name="kdenlive:original.mlt_service">avformat</property>
  <property name="kdenlive:original.meta.media.frame_rate_num">60</property>
  <property name="kdenlive:original.meta.media.frame_rate_den">1</property>
  <property name="kdenlive:original.meta.media.colorspace">709</property>
  <property name="kdenlive:original.meta.media.color_trc">2</property>
  <property name="kdenlive:original.meta.media.width">3840</property>
  <property name="kdenlive:original.meta.media.height">2160</property>
  <property name="kdenlive:original.meta.media.color_range">mpeg</property>
  <property name="kdenlive:original.meta.media.top_field_first">0</property>
  <property name="kdenlive:original.meta.media.progressive">1</property>
  <property name="kdenlive:original.backup">1</property>
  <property name="xml">was here</property>
  <property name="meta.media.nb_streams">1</property>
  <property name="meta.media.0.stream.type">video</property>
  <property name="meta.media.0.stream.frame_rate">60</property>
  <property name="meta.media.0.stream.sample_aspect_ratio">0</property>
  <property name="meta.media.0.codec.width">640</property>
  <property name="meta.media.0.codec.height">360</property>
  <property name="meta.media.0.codec.rotate">0</property>
  <property name="meta.media.0.codec.frame_rate">60</property>
  <property name="meta.media.0.codec.pix_fmt">yuv420p</property>
  <property name="meta.media.0.codec.sample_aspect_ratio">0</property>
  <property name="meta.media.0.codec.colorspace">601</property>
  <property name="meta.media.0.codec.name">h264</property>
  <property name="meta.media.0.codec.long_name">H.264 / AVC / MPEG-4 AVC / MPEG-4 part 10</property>
  <property name="meta.media.0.codec.bit_rate">0</property>
  <property name="meta.attr.0.stream.HANDLER_NAME.markup">VideoHandler</property>
  <property name="meta.attr.0.stream.VENDOR_ID.markup">[0][0][0][0]</property>
  <property name="meta.attr.0.stream.ENCODER.markup">Lavc58.134.100 libx264</property>
  <property name="meta.attr.0.stream.DURATION.markup">00:00:01.000000000</property>
  <property name="meta.attr.COMMENT.markup">Rendered with Manim Community v0.6.0</property>
  <property name="meta.attr.MAJOR_BRAND.markup">isom</property>
  <property name="meta.attr.MINOR_VERSION.markup">512</property>
  <property name="meta.attr.COMPATIBLE_BRANDS.markup">isomiso2avc1mp41</property>
  <property name="meta.attr.ENCODER.markup">Lavf58.76.100</property>
  <property name="meta.media.sample_aspect_num">1</property>
  <property name="meta.media.sample_aspect_den">1</property>
  <property name="meta.media.frame_rate_num">60</property>
  <property name="meta.media.frame_rate_den">1</property>
  <property name="meta.media.colorspace">601</property>
  <property name="meta.media.color_trc">2</property>
  <property name="meta.media.width">640</property>
  <property name="meta.media.height">360</property>
  <property name="meta.media.color_range">mpeg</property>
  <property name="meta.media.top_field_first">0</property>
  <property name="meta.media.progressive">1</property>
  <property name="set.test_audio">1</property>
  <property name="set.test_image">0</property>
 </producer>
 <producer id="producer587" in="00:00:00.000" out="00:00:00.983">
  <property name="length">60</property>
  <property name="eof">pause</property>
  <property name="resource">/home/xiaoxiae/.cache/kdenlive/proxy/6d2a281b0cae61b675fd101ebadfdb81.mkv</property>
  <property name="audio_index">-1</property>
  <property name="video_index">0</property>
  <property name="mute_on_pause">0</property>
  <property name="mlt_service">avformat-novalidate</property>
  <property name="seekable">1</property>
  <property name="aspect_ratio">1</property>
  <property name="kdenlive:clipname">42.mp4</property>
  <property name="kdenlive:folderid">124</property>
  <property name="kdenlive:id">197</property>
  <property name="kdenlive:file_size">106223</property>
  <property name="kdenlive:file_hash">6d2a281b0cae61b675fd101ebadfdb81</property>
  <property name="kdenlive:proxy">/home/xiaoxiae/.cache/kdenlive/proxy/6d2a281b0cae61b675fd101ebadfdb81.mkv</property>
  <property name="kdenlive:originalurl">video/Introduction/42.mp4</property>
  <property name="global_feed">1</property>
  <property name="kdenlive:original.mlt_type">producer</property>
  <property name="kdenlive:original.in">0</property>
  <property name="kdenlive:original.out">59</property>
  <property name="kdenlive:original.length">60</property>
  <property name="kdenlive:original.eof">pause</property>
  <property name="kdenlive:original.resource">video/Introduction/42.mp4</property>
  <property name="kdenlive:original.meta.media.nb_streams">1</property>
  <property name="kdenlive:original.meta.media.0.stream.type">video</property>
  <property name="kdenlive:original.meta.media.0.stream.frame_rate">60</property>
  <property name="kdenlive:original.meta.media.0.stream.sample_aspect_ratio">0</property>
  <property name="kdenlive:original.meta.media.0.codec.width">3840</property>
  <property name="kdenlive:original.meta.media.0.codec.height">2160</property>
  <property name="kdenlive:original.meta.media.0.codec.rotate">0</property>
  <property name="kdenlive:original.meta.media.0.codec.frame_rate">60</property>
  <property name="kdenlive:original.meta.media.0.codec.pix_fmt">yuv420p</property>
  <property name="kdenlive:original.meta.media.0.codec.sample_aspect_ratio">0</property>
  <property name="kdenlive:original.meta.media.0.codec.colorspace">709</property>
  <property name="kdenlive:original.meta.media.0.codec.name">h264</property>
  <property name="kdenlive:original.meta.media.0.codec.long_name">H.264 / AVC / MPEG-4 AVC / MPEG-4 part 10</property>
  <property name="kdenlive:original.meta.media.0.codec.bit_rate">836800</property>
  <property name="kdenlive:original.meta.attr.0.stream.handler_name.markup">VideoHandler</property>
  <property name="kdenlive:original.meta.attr.0.stream.vendor_id.markup">[0][0][0][0]</property>
  <property name="kdenlive:original.meta.attr.major_brand.markup">isom</property>
  <property name="kdenlive:original.meta.attr.minor_version.markup">512</property>
  <property name="kdenlive:original.meta.attr.compatible_brands.markup">isomiso2avc1mp41</property>
  <property name="kdenlive:original.meta.attr.encoder.markup">Lavf58.76.100</property>
  <property name="kdenlive:original.meta.attr.comment.markup">Rendered with Manim Community v0.6.0</property>
  <property name="kdenlive:original.seekable">1</property>
  <property name="kdenlive:original.width">3840</property>
  <property name="kdenlive:original.height">2160</property>
  <property name="kdenlive:original.meta.media.sample_aspect_num">1</property>
  <property name="kdenlive:original.meta.media.sample_aspect_den">1</property>
  <property name="kdenlive:original.aspect_ratio">1</property>
  <property name="kdenlive:original.audio_index">-1</property>
  <property name="kdenlive:original.video_index">0</property>
  <property name="kdenlive:original.mute_on_pause">1</property>
  <property name="kdenlive:original.mlt_service">avformat</property>
  <property name="kdenlive:original.meta.media.frame_rate_num">60</property>
  <property name="kdenlive:original.meta.media.frame_rate_den">1</property>
  <property name="kdenlive:original.meta.media.colorspace">709</property>
  <property name="kdenlive:original.meta.media.color_trc">2</property>
  <property name="kdenlive:original.meta.media.width">3840</property>
  <property name="kdenlive:original.meta.media.height">2160</property>
  <property name="kdenlive:original.meta.media.color_range">mpeg</property>
  <property name="kdenlive:original.meta.media.top_field_first">0</property>
  <property name="kdenlive:original.meta.media.progressive">1</property>
  <property name="kdenlive:original.backup">1</property>
  <property name="xml">was here</property>
  <property name="meta.media.nb_streams">1</property>
  <property name="meta.media.0.stream.type">video</property>
  <property name="meta.media.0.stream.frame_rate">60</property>
  <property name="meta.media.0.stream.sample_aspect_ratio">0</property>
  <property name="meta.media.0.codec.width">640</property>
  <property name="meta.media.0.codec.height">360</property>
  <property name="meta.media.0.codec.rotate">0</property>
  <property name="meta.media.0.codec.frame_rate">60</property>
  <property name="meta.media.0.codec.pix_fmt">yuv420p</property>
  <property name="meta.media.0.codec.sample_aspect_ratio">0</property>
  <property name="meta.media.0.codec.colorspace">601</property>
  <property name="meta.media.0.codec.name">h264</property>
  <property name="meta.media.0.codec.long_name">H.264 / AVC / MPEG-4 AVC / MPEG-4 part 10</property>
  <property name="meta.media.0.codec.bit_rate">0</property>
  <property name="meta.attr.0.stream.HANDLER_NAME.markup">VideoHandler</property>
  <property name="meta.attr.0.stream.VENDOR_ID.markup">[0][0][0][0]</property>
  <property name="meta.attr.0.stream.ENCODER.markup">Lavc58.134.100 libx264</property>
  <property name="meta.attr.0.stream.DURATION.markup">00:00:01.000000000</property>
  <property name="meta.attr.COMMENT.markup">Rendered with Manim Community v0.6.0</property>
  <property name="meta.attr.MAJOR_BRAND.markup">isom</property>
  <property name="meta.attr.MINOR_VERSION.markup">512</property>
  <property name="meta.attr.COMPATIBLE_BRANDS.markup">isomiso2avc1mp41</property>
  <property name="meta.attr.ENCODER.markup">Lavf58.76.100</property>
  <property name="meta.media.sample_aspect_num">1</property>
  <property name="meta.media.sample_aspect_den">1</property>
  <property name="meta.media.frame_rate_num">60</property>
  <property name="meta.media.frame_rate_den">1</property>
  <property name="meta.media.colorspace">601</property>
  <property name="meta.media.color_trc">2</property>
  <property name="meta.media.width">640</property>
  <property name="meta.media.height">360</property>
  <property name="meta.media.color_range">mpeg</property>
  <property name="meta.media.top_field_first">0</property>
  <property name="meta.media.progressive">1</property>
  <property name="set.test_audio">1</property>
  <property name="set.test_image">0</property>
 </producer>
 <producer id="producer588" in="00:00:00.000" out="00:00:01.983">
  <property name="length">120</property>
  <property name="eof">pause</property>
  <property name="resource">/home/xiaoxiae/.cache/kdenlive/proxy/0e47773184fcfaaf1c34c8cb94aa8f9c.mkv</property>
  <property name="audio_index">-1</property>
  <property name="video_index">0</property>
  <property name="mute_on_pause">0</property>
  <property name="mlt_service">avformat-novalidate</property>
  <property name="seekable">1</property>
  <property name="aspect_ratio">1</property>
  <property name="kdenlive:clipname">1.mp4</property>
  <property name="kdenlive:folderid">80</property>
  <property name="kdenlive:id">81</property>
  <property name="kdenlive:file_size">110937</property>
  <property name="kdenlive:file_hash">0e47773184fcfaaf1c34c8cb94aa8f9c</property>
  <property name="kdenlive:proxy">/home/xiaoxiae/.cache/kdenlive/proxy/0e47773184fcfaaf1c34c8cb94aa8f9c.mkv</property>
  <property name="kdenlive:originalurl">video/Complement/1.mp4</property>
  <property name="global_feed">1</property>
  <property name="kdenlive:original.mlt_type">producer</property>
  <property name="kdenlive:original.in">0</property>
  <property name="kdenlive:original.out">119</property>
  <property name="kdenlive:original.length">120</property>
  <property name="kdenlive:original.eof">pause</property>
  <property name="kdenlive:original.resource">video/Complement/1.mp4</property>
  <property name="kdenlive:original.meta.media.nb_streams">1</property>
  <property name="kdenlive:original.meta.media.0.stream.type">video</property>
  <property name="kdenlive:original.meta.media.0.stream.frame_rate">60</property>
  <property name="kdenlive:original.meta.media.0.stream.sample_aspect_ratio">0</property>
  <property name="kdenlive:original.meta.media.0.codec.width">3840</property>
  <property name="kdenlive:original.meta.media.0.codec.height">2160</property>
  <property name="kdenlive:original.meta.media.0.codec.rotate">0</property>
  <property name="kdenlive:original.meta.media.0.codec.frame_rate">60</property>
  <property name="kdenlive:original.meta.media.0.codec.pix_fmt">yuv420p</property>
  <property name="kdenlive:original.meta.media.0.codec.sample_aspect_ratio">0</property>
  <property name="kdenlive:original.meta.media.0.codec.colorspace">709</property>
  <property name="kdenlive:original.meta.media.0.codec.name">h264</property>
  <property name="kdenlive:original.meta.media.0.codec.long_name">H.264 / AVC / MPEG-4 AVC / MPEG-4 part 10</property>
  <property name="kdenlive:original.meta.media.0.codec.bit_rate">434344</property>
  <property name="kdenlive:original.meta.attr.0.stream.handler_name.markup">VideoHandler</property>
  <property name="kdenlive:original.meta.attr.0.stream.vendor_id.markup">[0][0][0][0]</property>
  <property name="kdenlive:original.meta.attr.major_brand.markup">isom</property>
  <property name="kdenlive:original.meta.attr.minor_version.markup">512</property>
  <property name="kdenlive:original.meta.attr.compatible_brands.markup">isomiso2avc1mp41</property>
  <property name="kdenlive:original.meta.attr.encoder.markup">Lavf58.76.100</property>
  <property name="kdenlive:original.meta.attr.comment.markup">Rendered with Manim Community v0.6.0</property>
  <property name="kdenlive:original.seekable">1</property>
  <property name="kdenlive:original.width">3840</property>
  <property name="kdenlive:original.height">2160</property>
  <property name="kdenlive:original.meta.media.sample_aspect_num">1</property>
  <property name="kdenlive:original.meta.media.sample_aspect_den">1</property>
  <property name="kdenlive:original.aspect_ratio">1</property>
  <property name="kdenlive:original.audio_index">-1</property>
  <property name="kdenlive:original.video_index">0</property>
  <property name="kdenlive:original.mute_on_pause">1</property>
  <property name="kdenlive:original.mlt_service">avformat</property>
  <property name="kdenlive:original.meta.media.frame_rate_num">60</property>
  <property name="kdenlive:original.meta.media.frame_rate_den">1</property>
  <property name="kdenlive:original.meta.media.colorspace">709</property>
  <property name="kdenlive:original.meta.media.color_trc">2</property>
  <property name="kdenlive:original.meta.media.width">3840</property>
  <property name="kdenlive:original.meta.media.height">2160</property>
  <property name="kdenlive:original.meta.media.color_range">mpeg</property>
  <property name="kdenlive:original.meta.media.top_field_first">0</property>
  <property name="kdenlive:original.meta.media.progressive">1</property>
  <property name="kdenlive:original.backup">1</property>
  <property name="xml">was here</property>
  <property name="meta.media.nb_streams">1</property>
  <property name="meta.media.0.stream.type">video</property>
  <property name="meta.media.0.stream.frame_rate">60</property>
  <property name="meta.media.0.stream.sample_aspect_ratio">0</property>
  <property name="meta.media.0.codec.width">640</property>
  <property name="meta.media.0.codec.height">360</property>
  <property name="meta.media.0.codec.rotate">0</property>
  <property name="meta.media.0.codec.frame_rate">60</property>
  <property name="meta.media.0.codec.pix_fmt">yuv420p</property>
  <property name="meta.media.0.codec.sample_aspect_ratio">0</property>
  <property name="meta.media.0.codec.colorspace">601</property>
  <property name="meta.media.0.codec.name">h264</property>
  <property name="meta.media.0.codec.long_name">H.264 / AVC / MPEG-4 AVC / MPEG-4 part 10</property>
  <property name="meta.media.0.codec.bit_rate">0</property>
  <property name="meta.attr.0.stream.HANDLER_NAME.markup">VideoHandler</property>
  <property name="meta.attr.0.stream.VENDOR_ID.markup">[0][0][0][0]</property>
  <property name="meta.attr.0.stream.ENCODER.markup">Lavc58.134.100 libx264</property>
  <property name="meta.attr.0.stream.DURATION.markup">00:00:02.000000000</property>
  <property name="meta.attr.COMMENT.markup">Rendered with Manim Community v0.6.0</property>
  <property name="meta.attr.MAJOR_BRAND.markup">isom</property>
  <property name="meta.attr.MINOR_VERSION.markup">512</property>
  <property name="meta.attr.COMPATIBLE_BRANDS.markup">isomiso2avc1mp41</property>
  <property name="meta.attr.ENCODER.markup">Lavf58.76.100</property>
  <property name="meta.media.sample_aspect_num">1</property>
  <property name="meta.media.sample_aspect_den">1</property>
  <property name="meta.media.frame_rate_num">60</property>
  <property name="meta.media.frame_rate_den">1</property>
  <property name="meta.media.colorspace">601</property>
  <property name="meta.media.color_trc">2</property>
  <property name="meta.media.width">640</property>
  <property name="meta.media.height">360</property>
  <property name="meta.media.color_range">mpeg</property>
  <property name="meta.media.top_field_first">0</property>
  <property name="meta.media.progressive">1</property>
  <property name="set.test_audio">1</property>
  <property name="set.test_image">0</property>
 </producer>
 <producer id="producer589" in="00:00:00.000" out="00:00:00.983">
  <property name="length">60</property>
  <property name="eof">pause</property>
  <property name="resource">/home/xiaoxiae/.cache/kdenlive/proxy/27c9b7eb82a9a4a682f01635a9ea8536.mkv</property>
  <property name="audio_index">-1</property>
  <property name="video_index">0</property>
  <property name="mute_on_pause">0</property>
  <property name="mlt_service">avformat-novalidate</property>
  <property name="seekable">1</property>
  <property name="aspect_ratio">1</property>
  <property name="kdenlive:clipname">2.mp4</property>
  <property name="kdenlive:folderid">80</property>
  <property name="kdenlive:id">83</property>
  <property name="kdenlive:file_size">80158</property>
  <property name="kdenlive:file_hash">27c9b7eb82a9a4a682f01635a9ea8536</property>
  <property name="kdenlive:proxy">/home/xiaoxiae/.cache/kdenlive/proxy/27c9b7eb82a9a4a682f01635a9ea8536.mkv</property>
  <property name="kdenlive:originalurl">video/Complement/2.mp4</property>
  <property name="global_feed">1</property>
  <property name="kdenlive:original.mlt_type">producer</property>
  <property name="kdenlive:original.in">0</property>
  <property name="kdenlive:original.out">59</property>
  <property name="kdenlive:original.length">60</property>
  <property name="kdenlive:original.eof">pause</property>
  <property name="kdenlive:original.resource">video/Complement/2.mp4</property>
  <property name="kdenlive:original.meta.media.nb_streams">1</property>
  <property name="kdenlive:original.meta.media.0.stream.type">video</property>
  <property name="kdenlive:original.meta.media.0.stream.frame_rate">60</property>
  <property name="kdenlive:original.meta.media.0.stream.sample_aspect_ratio">0</property>
  <property name="kdenlive:original.meta.media.0.codec.width">3840</property>
  <property name="kdenlive:original.meta.media.0.codec.height">2160</property>
  <property name="kdenlive:original.meta.media.0.codec.rotate">0</property>
  <property name="kdenlive:original.meta.media.0.codec.frame_rate">60</property>
  <property name="kdenlive:original.meta.media.0.codec.pix_fmt">yuv420p</property>
  <property name="kdenlive:original.meta.media.0.codec.sample_aspect_ratio">0</property>
  <property name="kdenlive:original.meta.media.0.codec.colorspace">709</property>
  <property name="kdenlive:original.meta.media.0.codec.name">h264</property>
  <property name="kdenlive:original.meta.media.0.codec.long_name">H.264 / AVC / MPEG-4 AVC / MPEG-4 part 10</property>
  <property name="kdenlive:original.meta.media.0.codec.bit_rate">628344</property>
  <property name="kdenlive:original.meta.attr.0.stream.handler_name.markup">VideoHandler</property>
  <property name="kdenlive:original.meta.attr.0.stream.vendor_id.markup">[0][0][0][0]</property>
  <property name="kdenlive:original.meta.attr.major_brand.markup">isom</property>
  <property name="kdenlive:original.meta.attr.minor_version.markup">512</property>
  <property name="kdenlive:original.meta.attr.compatible_brands.markup">isomiso2avc1mp41</property>
  <property name="kdenlive:original.meta.attr.encoder.markup">Lavf58.76.100</property>
  <property name="kdenlive:original.meta.attr.comment.markup">Rendered with Manim Community v0.6.0</property>
  <property name="kdenlive:original.seekable">1</property>
  <property name="kdenlive:original.width">3840</property>
  <property name="kdenlive:original.height">2160</property>
  <property name="kdenlive:original.meta.media.sample_aspect_num">1</property>
  <property name="kdenlive:original.meta.media.sample_aspect_den">1</property>
  <property name="kdenlive:original.aspect_ratio">1</property>
  <property name="kdenlive:original.audio_index">-1</property>
  <property name="kdenlive:original.video_index">0</property>
  <property name="kdenlive:original.mute_on_pause">1</property>
  <property name="kdenlive:original.mlt_service">avformat</property>
  <property name="kdenlive:original.meta.media.frame_rate_num">60</property>
  <property name="kdenlive:original.meta.media.frame_rate_den">1</property>
  <property name="kdenlive:original.meta.media.colorspace">709</property>
  <property name="kdenlive:original.meta.media.color_trc">2</property>
  <property name="kdenlive:original.meta.media.width">3840</property>
  <property name="kdenlive:original.meta.media.height">2160</property>
  <property name="kdenlive:original.meta.media.color_range">mpeg</property>
  <property name="kdenlive:original.meta.media.top_field_first">0</property>
  <property name="kdenlive:original.meta.media.progressive">1</property>
  <property name="kdenlive:original.backup">1</property>
  <property name="xml">was here</property>
  <property name="meta.media.nb_streams">1</property>
  <property name="meta.media.0.stream.type">video</property>
  <property name="meta.media.0.stream.frame_rate">60</property>
  <property name="meta.media.0.stream.sample_aspect_ratio">0</property>
  <property name="meta.media.0.codec.width">640</property>
  <property name="meta.media.0.codec.height">360</property>
  <property name="meta.media.0.codec.rotate">0</property>
  <property name="meta.media.0.codec.frame_rate">60</property>
  <property name="meta.media.0.codec.pix_fmt">yuv420p</property>
  <property name="meta.media.0.codec.sample_aspect_ratio">0</property>
  <property name="meta.media.0.codec.colorspace">601</property>
  <property name="meta.media.0.codec.name">h264</property>
  <property name="meta.media.0.codec.long_name">H.264 / AVC / MPEG-4 AVC / MPEG-4 part 10</property>
  <property name="meta.media.0.codec.bit_rate">0</property>
  <property name="meta.attr.0.stream.HANDLER_NAME.markup">VideoHandler</property>
  <property name="meta.attr.0.stream.VENDOR_ID.markup">[0][0][0][0]</property>
  <property name="meta.attr.0.stream.ENCODER.markup">Lavc58.134.100 libx264</property>
  <property name="meta.attr.0.stream.DURATION.markup">00:00:01.000000000</property>
  <property name="meta.attr.COMMENT.markup">Rendered with Manim Community v0.6.0</property>
  <property name="meta.attr.MAJOR_BRAND.markup">isom</property>
  <property name="meta.attr.MINOR_VERSION.markup">512</property>
  <property name="meta.attr.COMPATIBLE_BRANDS.markup">isomiso2avc1mp41</property>
  <property name="meta.attr.ENCODER.markup">Lavf58.76.100</property>
  <property name="meta.media.sample_aspect_num">1</property>
  <property name="meta.media.sample_aspect_den">1</property>
  <property name="meta.media.frame_rate_num">60</property>
  <property name="meta.media.frame_rate_den">1</property>
  <property name="meta.media.colorspace">601</property>
  <property name="meta.media.color_trc">2</property>
  <property name="meta.media.width">640</property>
  <property name="meta.media.height">360</property>
  <property name="meta.media.color_range">mpeg</property>
  <property name="meta.media.top_field_first">0</property>
  <property name="meta.media.progressive">1</property>
  <property name="set.test_audio">1</property>
  <property name="set.test_image">0</property>
 </producer>
 <producer id="producer590" in="00:00:00.000" out="00:00:06.033">
  <property name="length">363</property>
  <property name="eof">pause</property>
  <property name="resource">/home/xiaoxiae/.cache/kdenlive/proxy/232dfb44e3ca4ddd023582a31c7bbc72.mkv</property>
  <property name="audio_index">-1</property>
  <property name="video_index">0</property>
  <property name="mute_on_pause">0</property>
  <property name="mlt_service">avformat-novalidate</property>
  <property name="seekable">1</property>
  <property name="aspect_ratio">1</property>
  <property name="kdenlive:clipname">3.mp4</property>
  <property name="kdenlive:folderid">80</property>
  <property name="kdenlive:id">85</property>
  <property name="kdenlive:file_size">715487</property>
  <property name="kdenlive:file_hash">232dfb44e3ca4ddd023582a31c7bbc72</property>
  <property name="kdenlive:proxy">/home/xiaoxiae/.cache/kdenlive/proxy/232dfb44e3ca4ddd023582a31c7bbc72.mkv</property>
  <property name="kdenlive:originalurl">video/Complement/3.mp4</property>
  <property name="global_feed">1</property>
  <property name="kdenlive:original.mlt_type">producer</property>
  <property name="kdenlive:original.in">0</property>
  <property name="kdenlive:original.out">362</property>
  <property name="kdenlive:original.length">363</property>
  <property name="kdenlive:original.eof">pause</property>
  <property name="kdenlive:original.resource">video/Complement/3.mp4</property>
  <property name="kdenlive:original.meta.media.nb_streams">1</property>
  <property name="kdenlive:original.meta.media.0.stream.type">video</property>
  <property name="kdenlive:original.meta.media.0.stream.frame_rate">60</property>
  <property name="kdenlive:original.meta.media.0.stream.sample_aspect_ratio">0</property>
  <property name="kdenlive:original.meta.media.0.codec.width">3840</property>
  <property name="kdenlive:original.meta.media.0.codec.height">2160</property>
  <property name="kdenlive:original.meta.media.0.codec.rotate">0</property>
  <property name="kdenlive:original.meta.media.0.codec.frame_rate">60</property>
  <property name="kdenlive:original.meta.media.0.codec.pix_fmt">yuv420p</property>
  <property name="kdenlive:original.meta.media.0.codec.sample_aspect_ratio">0</property>
  <property name="kdenlive:original.meta.media.0.codec.colorspace">709</property>
  <property name="kdenlive:original.meta.media.0.codec.name">h264</property>
  <property name="kdenlive:original.meta.media.0.codec.long_name">H.264 / AVC / MPEG-4 AVC / MPEG-4 part 10</property>
  <property name="kdenlive:original.meta.media.0.codec.bit_rate">939128</property>
  <property name="kdenlive:original.meta.attr.0.stream.handler_name.markup">VideoHandler</property>
  <property name="kdenlive:original.meta.attr.0.stream.vendor_id.markup">[0][0][0][0]</property>
  <property name="kdenlive:original.meta.attr.major_brand.markup">isom</property>
  <property name="kdenlive:original.meta.attr.minor_version.markup">512</property>
  <property name="kdenlive:original.meta.attr.compatible_brands.markup">isomiso2avc1mp41</property>
  <property name="kdenlive:original.meta.attr.encoder.markup">Lavf58.76.100</property>
  <property name="kdenlive:original.meta.attr.comment.markup">Rendered with Manim Community v0.6.0</property>
  <property name="kdenlive:original.seekable">1</property>
  <property name="kdenlive:original.width">3840</property>
  <property name="kdenlive:original.height">2160</property>
  <property name="kdenlive:original.meta.media.sample_aspect_num">1</property>
  <property name="kdenlive:original.meta.media.sample_aspect_den">1</property>
  <property name="kdenlive:original.aspect_ratio">1</property>
  <property name="kdenlive:original.audio_index">-1</property>
  <property name="kdenlive:original.video_index">0</property>
  <property name="kdenlive:original.mute_on_pause">1</property>
  <property name="kdenlive:original.mlt_service">avformat</property>
  <property name="kdenlive:original.meta.media.frame_rate_num">60</property>
  <property name="kdenlive:original.meta.media.frame_rate_den">1</property>
  <property name="kdenlive:original.meta.media.colorspace">709</property>
  <property name="kdenlive:original.meta.media.color_trc">2</property>
  <property name="kdenlive:original.meta.media.width">3840</property>
  <property name="kdenlive:original.meta.media.height">2160</property>
  <property name="kdenlive:original.meta.media.color_range">mpeg</property>
  <property name="kdenlive:original.meta.media.top_field_first">0</property>
  <property name="kdenlive:original.meta.media.progressive">1</property>
  <property name="kdenlive:original.backup">1</property>
  <property name="xml">was here</property>
  <property name="meta.media.nb_streams">1</property>
  <property name="meta.media.0.stream.type">video</property>
  <property name="meta.media.0.stream.frame_rate">60</property>
  <property name="meta.media.0.stream.sample_aspect_ratio">0</property>
  <property name="meta.media.0.codec.width">640</property>
  <property name="meta.media.0.codec.height">360</property>
  <property name="meta.media.0.codec.rotate">0</property>
  <property name="meta.media.0.codec.frame_rate">60</property>
  <property name="meta.media.0.codec.pix_fmt">yuv420p</property>
  <property name="meta.media.0.codec.sample_aspect_ratio">0</property>
  <property name="meta.media.0.codec.colorspace">601</property>
  <property name="meta.media.0.codec.name">h264</property>
  <property name="meta.media.0.codec.long_name">H.264 / AVC / MPEG-4 AVC / MPEG-4 part 10</property>
  <property name="meta.media.0.codec.bit_rate">0</property>
  <property name="meta.attr.0.stream.HANDLER_NAME.markup">VideoHandler</property>
  <property name="meta.attr.0.stream.VENDOR_ID.markup">[0][0][0][0]</property>
  <property name="meta.attr.0.stream.ENCODER.markup">Lavc58.134.100 libx264</property>
  <property name="meta.attr.0.stream.DURATION.markup">00:00:06.050000000</property>
  <property name="meta.attr.COMMENT.markup">Rendered with Manim Community v0.6.0</property>
  <property name="meta.attr.MAJOR_BRAND.markup">isom</property>
  <property name="meta.attr.MINOR_VERSION.markup">512</property>
  <property name="meta.attr.COMPATIBLE_BRANDS.markup">isomiso2avc1mp41</property>
  <property name="meta.attr.ENCODER.markup">Lavf58.76.100</property>
  <property name="meta.media.sample_aspect_num">1</property>
  <property name="meta.media.sample_aspect_den">1</property>
  <property name="meta.media.frame_rate_num">60</property>
  <property name="meta.media.frame_rate_den">1</property>
  <property name="meta.media.colorspace">601</property>
  <property name="meta.media.color_trc">2</property>
  <property name="meta.media.width">640</property>
  <property name="meta.media.height">360</property>
  <property name="meta.media.color_range">mpeg</property>
  <property name="meta.media.top_field_first">0</property>
  <property name="meta.media.progressive">1</property>
  <property name="set.test_audio">1</property>
  <property name="set.test_image">0</property>
 </producer>
 <producer id="producer591" in="00:00:00.000" out="00:00:00.983">
  <property name="length">60</property>
  <property name="eof">pause</property>
  <property name="resource">/home/xiaoxiae/.cache/kdenlive/proxy/990d4985ea22ef314f94f850f39ce0c7.mkv</property>
  <property name="audio_index">-1</property>
  <property name="video_index">0</property>
  <property name="mute_on_pause">0</property>
  <property name="mlt_service">avformat-novalidate</property>
  <property name="seekable">1</property>
  <property name="aspect_ratio">1</property>
  <property name="kdenlive:clipname">4.mp4</property>
  <property name="kdenlive:folderid">80</property>
  <property name="kdenlive:id">87</property>
  <property name="kdenlive:file_size">168533</property>
  <property name="kdenlive:file_hash">990d4985ea22ef314f94f850f39ce0c7</property>
  <property name="kdenlive:proxy">/home/xiaoxiae/.cache/kdenlive/proxy/990d4985ea22ef314f94f850f39ce0c7.mkv</property>
  <property name="kdenlive:originalurl">video/Complement/4.mp4</property>
  <property name="global_feed">1</property>
  <property name="kdenlive:original.mlt_type">producer</property>
  <property name="kdenlive:original.in">0</property>
  <property name="kdenlive:original.out">59</property>
  <property name="kdenlive:original.length">60</property>
  <property name="kdenlive:original.eof">pause</property>
  <property name="kdenlive:original.resource">video/Complement/4.mp4</property>
  <property name="kdenlive:original.meta.media.nb_streams">1</property>
  <property name="kdenlive:original.meta.media.0.stream.type">video</property>
  <property name="kdenlive:original.meta.media.0.stream.frame_rate">60</property>
  <property name="kdenlive:original.meta.media.0.stream.sample_aspect_ratio">0</property>
  <property name="kdenlive:original.meta.media.0.codec.width">3840</property>
  <property name="kdenlive:original.meta.media.0.codec.height">2160</property>
  <property name="kdenlive:original.meta.media.0.codec.rotate">0</property>
  <property name="kdenlive:original.meta.media.0.codec.frame_rate">60</property>
  <property name="kdenlive:original.meta.media.0.codec.pix_fmt">yuv420p</property>
  <property name="kdenlive:original.meta.media.0.codec.sample_aspect_ratio">0</property>
  <property name="kdenlive:original.meta.media.0.codec.colorspace">709</property>
  <property name="kdenlive:original.meta.media.0.codec.name">h264</property>
  <property name="kdenlive:original.meta.media.0.codec.long_name">H.264 / AVC / MPEG-4 AVC / MPEG-4 part 10</property>
  <property name="kdenlive:original.meta.media.0.codec.bit_rate">1335216</property>
  <property name="kdenlive:original.meta.attr.0.stream.handler_name.markup">VideoHandler</property>
  <property name="kdenlive:original.meta.attr.0.stream.vendor_id.markup">[0][0][0][0]</property>
  <property name="kdenlive:original.meta.attr.major_brand.markup">isom</property>
  <property name="kdenlive:original.meta.attr.minor_version.markup">512</property>
  <property name="kdenlive:original.meta.attr.compatible_brands.markup">isomiso2avc1mp41</property>
  <property name="kdenlive:original.meta.attr.encoder.markup">Lavf58.76.100</property>
  <property name="kdenlive:original.meta.attr.comment.markup">Rendered with Manim Community v0.6.0</property>
  <property name="kdenlive:original.seekable">1</property>
  <property name="kdenlive:original.width">3840</property>
  <property name="kdenlive:original.height">2160</property>
  <property name="kdenlive:original.meta.media.sample_aspect_num">1</property>
  <property name="kdenlive:original.meta.media.sample_aspect_den">1</property>
  <property name="kdenlive:original.aspect_ratio">1</property>
  <property name="kdenlive:original.audio_index">-1</property>
  <property name="kdenlive:original.video_index">0</property>
  <property name="kdenlive:original.mute_on_pause">1</property>
  <property name="kdenlive:original.mlt_service">avformat</property>
  <property name="kdenlive:original.meta.media.frame_rate_num">60</property>
  <property name="kdenlive:original.meta.media.frame_rate_den">1</property>
  <property name="kdenlive:original.meta.media.colorspace">709</property>
  <property name="kdenlive:original.meta.media.color_trc">2</property>
  <property name="kdenlive:original.meta.media.width">3840</property>
  <property name="kdenlive:original.meta.media.height">2160</property>
  <property name="kdenlive:original.meta.media.color_range">mpeg</property>
  <property name="kdenlive:original.meta.media.top_field_first">0</property>
  <property name="kdenlive:original.meta.media.progressive">1</property>
  <property name="kdenlive:original.backup">1</property>
  <property name="xml">was here</property>
  <property name="meta.media.nb_streams">1</property>
  <property name="meta.media.0.stream.type">video</property>
  <property name="meta.media.0.stream.frame_rate">60</property>
  <property name="meta.media.0.stream.sample_aspect_ratio">0</property>
  <property name="meta.media.0.codec.width">640</property>
  <property name="meta.media.0.codec.height">360</property>
  <property name="meta.media.0.codec.rotate">0</property>
  <property name="meta.media.0.codec.frame_rate">60</property>
  <property name="meta.media.0.codec.pix_fmt">yuv420p</property>
  <property name="meta.media.0.codec.sample_aspect_ratio">0</property>
  <property name="meta.media.0.codec.colorspace">601</property>
  <property name="meta.media.0.codec.name">h264</property>
  <property name="meta.media.0.codec.long_name">H.264 / AVC / MPEG-4 AVC / MPEG-4 part 10</property>
  <property name="meta.media.0.codec.bit_rate">0</property>
  <property name="meta.attr.0.stream.HANDLER_NAME.markup">VideoHandler</property>
  <property name="meta.attr.0.stream.VENDOR_ID.markup">[0][0][0][0]</property>
  <property name="meta.attr.0.stream.ENCODER.markup">Lavc58.134.100 libx264</property>
  <property name="meta.attr.0.stream.DURATION.markup">00:00:01.000000000</property>
  <property name="meta.attr.COMMENT.markup">Rendered with Manim Community v0.6.0</property>
  <property name="meta.attr.MAJOR_BRAND.markup">isom</property>
  <property name="meta.attr.MINOR_VERSION.markup">512</property>
  <property name="meta.attr.COMPATIBLE_BRANDS.markup">isomiso2avc1mp41</property>
  <property name="meta.attr.ENCODER.markup">Lavf58.76.100</property>
  <property name="meta.media.sample_aspect_num">1</property>
  <property name="meta.media.sample_aspect_den">1</property>
  <property name="meta.media.frame_rate_num">60</property>
  <property name="meta.media.frame_rate_den">1</property>
  <property name="meta.media.colorspace">601</property>
  <property name="meta.media.color_trc">2</property>
  <property name="meta.media.width">640</property>
  <property name="meta.media.height">360</property>
  <property name="meta.media.color_range">mpeg</property>
  <property name="meta.media.top_field_first">0</property>
  <property name="meta.media.progressive">1</property>
  <property name="set.test_audio">1</property>
  <property name="set.test_image">0</property>
 </producer>
 <producer id="producer592" in="00:00:00.000" out="00:00:00.983">
  <property name="length">60</property>
  <property name="eof">pause</property>
  <property name="resource">/home/xiaoxiae/.cache/kdenlive/proxy/0a0a8ba3bdcfe7968acf16851b064005.mkv</property>
  <property name="audio_index">-1</property>
  <property name="video_index">0</property>
  <property name="mute_on_pause">0</property>
  <property name="mlt_service">avformat-novalidate</property>
  <property name="seekable">1</property>
  <property name="aspect_ratio">1</property>
  <property name="kdenlive:clipname">5.mp4</property>
  <property name="kdenlive:folderid">80</property>
  <property name="kdenlive:id">89</property>
  <property name="kdenlive:file_size">124085</property>
  <property name="kdenlive:file_hash">0a0a8ba3bdcfe7968acf16851b064005</property>
  <property name="kdenlive:proxy">/home/xiaoxiae/.cache/kdenlive/proxy/0a0a8ba3bdcfe7968acf16851b064005.mkv</property>
  <property name="kdenlive:originalurl">video/Complement/5.mp4</property>
  <property name="global_feed">1</property>
  <property name="kdenlive:original.mlt_type">producer</property>
  <property name="kdenlive:original.in">0</property>
  <property name="kdenlive:original.out">59</property>
  <property name="kdenlive:original.length">60</property>
  <property name="kdenlive:original.eof">pause</property>
  <property name="kdenlive:original.resource">video/Complement/5.mp4</property>
  <property name="kdenlive:original.meta.media.nb_streams">1</property>
  <property name="kdenlive:original.meta.media.0.stream.type">video</property>
  <property name="kdenlive:original.meta.media.0.stream.frame_rate">60</property>
  <property name="kdenlive:original.meta.media.0.stream.sample_aspect_ratio">0</property>
  <property name="kdenlive:original.meta.media.0.codec.width">3840</property>
  <property name="kdenlive:original.meta.media.0.codec.height">2160</property>
  <property name="kdenlive:original.meta.media.0.codec.rotate">0</property>
  <property name="kdenlive:original.meta.media.0.codec.frame_rate">60</property>
  <property name="kdenlive:original.meta.media.0.codec.pix_fmt">yuv420p</property>
  <property name="kdenlive:original.meta.media.0.codec.sample_aspect_ratio">0</property>
  <property name="kdenlive:original.meta.media.0.codec.colorspace">709</property>
  <property name="kdenlive:original.meta.media.0.codec.name">h264</property>
  <property name="kdenlive:original.meta.media.0.codec.long_name">H.264 / AVC / MPEG-4 AVC / MPEG-4 part 10</property>
  <property name="kdenlive:original.meta.media.0.codec.bit_rate">979632</property>
  <property name="kdenlive:original.meta.attr.0.stream.handler_name.markup">VideoHandler</property>
  <property name="kdenlive:original.meta.attr.0.stream.vendor_id.markup">[0][0][0][0]</property>
  <property name="kdenlive:original.meta.attr.major_brand.markup">isom</property>
  <property name="kdenlive:original.meta.attr.minor_version.markup">512</property>
  <property name="kdenlive:original.meta.attr.compatible_brands.markup">isomiso2avc1mp41</property>
  <property name="kdenlive:original.meta.attr.encoder.markup">Lavf58.76.100</property>
  <property name="kdenlive:original.meta.attr.comment.markup">Rendered with Manim Community v0.6.0</property>
  <property name="kdenlive:original.seekable">1</property>
  <property name="kdenlive:original.width">3840</property>
  <property name="kdenlive:original.height">2160</property>
  <property name="kdenlive:original.meta.media.sample_aspect_num">1</property>
  <property name="kdenlive:original.meta.media.sample_aspect_den">1</property>
  <property name="kdenlive:original.aspect_ratio">1</property>
  <property name="kdenlive:original.audio_index">-1</property>
  <property name="kdenlive:original.video_index">0</property>
  <property name="kdenlive:original.mute_on_pause">1</property>
  <property name="kdenlive:original.mlt_service">avformat</property>
  <property name="kdenlive:original.meta.media.frame_rate_num">60</property>
  <property name="kdenlive:original.meta.media.frame_rate_den">1</property>
  <property name="kdenlive:original.meta.media.colorspace">709</property>
  <property name="kdenlive:original.meta.media.color_trc">2</property>
  <property name="kdenlive:original.meta.media.width">3840</property>
  <property name="kdenlive:original.meta.media.height">2160</property>
  <property name="kdenlive:original.meta.media.color_range">mpeg</property>
  <property name="kdenlive:original.meta.media.top_field_first">0</property>
  <property name="kdenlive:original.meta.media.progressive">1</property>
  <property name="kdenlive:original.backup">1</property>
  <property name="xml">was here</property>
  <property name="meta.media.nb_streams">1</property>
  <property name="meta.media.0.stream.type">video</property>
  <property name="meta.media.0.stream.frame_rate">60</property>
  <property name="meta.media.0.stream.sample_aspect_ratio">0</property>
  <property name="meta.media.0.codec.width">640</property>
  <property name="meta.media.0.codec.height">360</property>
  <property name="meta.media.0.codec.rotate">0</property>
  <property name="meta.media.0.codec.frame_rate">60</property>
  <property name="meta.media.0.codec.pix_fmt">yuv420p</property>
  <property name="meta.media.0.codec.sample_aspect_ratio">0</property>
  <property name="meta.media.0.codec.colorspace">601</property>
  <property name="meta.media.0.codec.name">h264</property>
  <property name="meta.media.0.codec.long_name">H.264 / AVC / MPEG-4 AVC / MPEG-4 part 10</property>
  <property name="meta.media.0.codec.bit_rate">0</property>
  <property name="meta.attr.0.stream.HANDLER_NAME.markup">VideoHandler</property>
  <property name="meta.attr.0.stream.VENDOR_ID.markup">[0][0][0][0]</property>
  <property name="meta.attr.0.stream.ENCODER.markup">Lavc58.134.100 libx264</property>
  <property name="meta.attr.0.stream.DURATION.markup">00:00:01.000000000</property>
  <property name="meta.attr.COMMENT.markup">Rendered with Manim Community v0.6.0</property>
  <property name="meta.attr.MAJOR_BRAND.markup">isom</property>
  <property name="meta.attr.MINOR_VERSION.markup">512</property>
  <property name="meta.attr.COMPATIBLE_BRANDS.markup">isomiso2avc1mp41</property>
  <property name="meta.attr.ENCODER.markup">Lavf58.76.100</property>
  <property name="meta.media.sample_aspect_num">1</property>
  <property name="meta.media.sample_aspect_den">1</property>
  <property name="meta.media.frame_rate_num">60</property>
  <property name="meta.media.frame_rate_den">1</property>
  <property name="meta.media.colorspace">601</property>
  <property name="meta.media.color_trc">2</property>
  <property name="meta.media.width">640</property>
  <property name="meta.media.height">360</property>
  <property name="meta.media.color_range">mpeg</property>
  <property name="meta.media.top_field_first">0</property>
  <property name="meta.media.progressive">1</property>
  <property name="set.test_audio">1</property>
  <property name="set.test_image">0</property>
 </producer>
 <producer id="producer593" in="00:00:00.000" out="00:00:00.983">
  <property name="length">60</property>
  <property name="eof">pause</property>
  <property name="resource">/home/xiaoxiae/.cache/kdenlive/proxy/3ae86018e536d2c616b217389da58c73.mkv</property>
  <property name="audio_index">-1</property>
  <property name="video_index">0</property>
  <property name="mute_on_pause">0</property>
  <property name="mlt_service">avformat-novalidate</property>
  <property name="seekable">1</property>
  <property name="aspect_ratio">1</property>
  <property name="kdenlive:clipname">6.mp4</property>
  <property name="kdenlive:folderid">80</property>
  <property name="kdenlive:id">91</property>
  <property name="kdenlive:file_size">119480</property>
  <property name="kdenlive:file_hash">3ae86018e536d2c616b217389da58c73</property>
  <property name="kdenlive:proxy">/home/xiaoxiae/.cache/kdenlive/proxy/3ae86018e536d2c616b217389da58c73.mkv</property>
  <property name="kdenlive:originalurl">video/Complement/6.mp4</property>
  <property name="global_feed">1</property>
  <property name="kdenlive:original.mlt_type">producer</property>
  <property name="kdenlive:original.in">0</property>
  <property name="kdenlive:original.out">59</property>
  <property name="kdenlive:original.length">60</property>
  <property name="kdenlive:original.eof">pause</property>
  <property name="kdenlive:original.resource">video/Complement/6.mp4</property>
  <property name="kdenlive:original.meta.media.nb_streams">1</property>
  <property name="kdenlive:original.meta.media.0.stream.type">video</property>
  <property name="kdenlive:original.meta.media.0.stream.frame_rate">60</property>
  <property name="kdenlive:original.meta.media.0.stream.sample_aspect_ratio">0</property>
  <property name="kdenlive:original.meta.media.0.codec.width">3840</property>
  <property name="kdenlive:original.meta.media.0.codec.height">2160</property>
  <property name="kdenlive:original.meta.media.0.codec.rotate">0</property>
  <property name="kdenlive:original.meta.media.0.codec.frame_rate">60</property>
  <property name="kdenlive:original.meta.media.0.codec.pix_fmt">yuv420p</property>
  <property name="kdenlive:original.meta.media.0.codec.sample_aspect_ratio">0</property>
  <property name="kdenlive:original.meta.media.0.codec.colorspace">709</property>
  <property name="kdenlive:original.meta.media.0.codec.name">h264</property>
  <property name="kdenlive:original.meta.media.0.codec.long_name">H.264 / AVC / MPEG-4 AVC / MPEG-4 part 10</property>
  <property name="kdenlive:original.meta.media.0.codec.bit_rate">942792</property>
  <property name="kdenlive:original.meta.attr.0.stream.handler_name.markup">VideoHandler</property>
  <property name="kdenlive:original.meta.attr.0.stream.vendor_id.markup">[0][0][0][0]</property>
  <property name="kdenlive:original.meta.attr.major_brand.markup">isom</property>
  <property name="kdenlive:original.meta.attr.minor_version.markup">512</property>
  <property name="kdenlive:original.meta.attr.compatible_brands.markup">isomiso2avc1mp41</property>
  <property name="kdenlive:original.meta.attr.encoder.markup">Lavf58.76.100</property>
  <property name="kdenlive:original.meta.attr.comment.markup">Rendered with Manim Community v0.6.0</property>
  <property name="kdenlive:original.seekable">1</property>
  <property name="kdenlive:original.width">3840</property>
  <property name="kdenlive:original.height">2160</property>
  <property name="kdenlive:original.meta.media.sample_aspect_num">1</property>
  <property name="kdenlive:original.meta.media.sample_aspect_den">1</property>
  <property name="kdenlive:original.aspect_ratio">1</property>
  <property name="kdenlive:original.audio_index">-1</property>
  <property name="kdenlive:original.video_index">0</property>
  <property name="kdenlive:original.mute_on_pause">1</property>
  <property name="kdenlive:original.mlt_service">avformat</property>
  <property name="kdenlive:original.meta.media.frame_rate_num">60</property>
  <property name="kdenlive:original.meta.media.frame_rate_den">1</property>
  <property name="kdenlive:original.meta.media.colorspace">709</property>
  <property name="kdenlive:original.meta.media.color_trc">2</property>
  <property name="kdenlive:original.meta.media.width">3840</property>
  <property name="kdenlive:original.meta.media.height">2160</property>
  <property name="kdenlive:original.meta.media.color_range">mpeg</property>
  <property name="kdenlive:original.meta.media.top_field_first">0</property>
  <property name="kdenlive:original.meta.media.progressive">1</property>
  <property name="kdenlive:original.backup">1</property>
  <property name="xml">was here</property>
  <property name="meta.media.nb_streams">1</property>
  <property name="meta.media.0.stream.type">video</property>
  <property name="meta.media.0.stream.frame_rate">60</property>
  <property name="meta.media.0.stream.sample_aspect_ratio">0</property>
  <property name="meta.media.0.codec.width">640</property>
  <property name="meta.media.0.codec.height">360</property>
  <property name="meta.media.0.codec.rotate">0</property>
  <property name="meta.media.0.codec.frame_rate">60</property>
  <property name="meta.media.0.codec.pix_fmt">yuv420p</property>
  <property name="meta.media.0.codec.sample_aspect_ratio">0</property>
  <property name="meta.media.0.codec.colorspace">601</property>
  <property name="meta.media.0.codec.name">h264</property>
  <property name="meta.media.0.codec.long_name">H.264 / AVC / MPEG-4 AVC / MPEG-4 part 10</property>
  <property name="meta.media.0.codec.bit_rate">0</property>
  <property name="meta.attr.0.stream.HANDLER_NAME.markup">VideoHandler</property>
  <property name="meta.attr.0.stream.VENDOR_ID.markup">[0][0][0][0]</property>
  <property name="meta.attr.0.stream.ENCODER.markup">Lavc58.134.100 libx264</property>
  <property name="meta.attr.0.stream.DURATION.markup">00:00:01.000000000</property>
  <property name="meta.attr.COMMENT.markup">Rendered with Manim Community v0.6.0</property>
  <property name="meta.attr.MAJOR_BRAND.markup">isom</property>
  <property name="meta.attr.MINOR_VERSION.markup">512</property>
  <property name="meta.attr.COMPATIBLE_BRANDS.markup">isomiso2avc1mp41</property>
  <property name="meta.attr.ENCODER.markup">Lavf58.76.100</property>
  <property name="meta.media.sample_aspect_num">1</property>
  <property name="meta.media.sample_aspect_den">1</property>
  <property name="meta.media.frame_rate_num">60</property>
  <property name="meta.media.frame_rate_den">1</property>
  <property name="meta.media.colorspace">601</property>
  <property name="meta.media.color_trc">2</property>
  <property name="meta.media.width">640</property>
  <property name="meta.media.height">360</property>
  <property name="meta.media.color_range">mpeg</property>
  <property name="meta.media.top_field_first">0</property>
  <property name="meta.media.progressive">1</property>
  <property name="set.test_audio">1</property>
  <property name="set.test_image">0</property>
 </producer>
 <producer id="producer594" in="00:00:00.000" out="00:00:00.983">
  <property name="length">60</property>
  <property name="eof">pause</property>
  <property name="resource">/home/xiaoxiae/.cache/kdenlive/proxy/92b5c7d9576627913c7c501ee116347b.mkv</property>
  <property name="audio_index">-1</property>
  <property name="video_index">0</property>
  <property name="mute_on_pause">0</property>
  <property name="mlt_service">avformat-novalidate</property>
  <property name="seekable">1</property>
  <property name="aspect_ratio">1</property>
  <property name="kdenlive:clipname">7.mp4</property>
  <property name="kdenlive:folderid">80</property>
  <property name="kdenlive:id">93</property>
  <property name="kdenlive:file_size">131968</property>
  <property name="kdenlive:file_hash">92b5c7d9576627913c7c501ee116347b</property>
  <property name="kdenlive:proxy">/home/xiaoxiae/.cache/kdenlive/proxy/92b5c7d9576627913c7c501ee116347b.mkv</property>
  <property name="kdenlive:originalurl">video/Complement/7.mp4</property>
  <property name="global_feed">1</property>
  <property name="kdenlive:original.mlt_type">producer</property>
  <property name="kdenlive:original.in">0</property>
  <property name="kdenlive:original.out">59</property>
  <property name="kdenlive:original.length">60</property>
  <property name="kdenlive:original.eof">pause</property>
  <property name="kdenlive:original.resource">video/Complement/7.mp4</property>
  <property name="kdenlive:original.meta.media.nb_streams">1</property>
  <property name="kdenlive:original.meta.media.0.stream.type">video</property>
  <property name="kdenlive:original.meta.media.0.stream.frame_rate">60</property>
  <property name="kdenlive:original.meta.media.0.stream.sample_aspect_ratio">0</property>
  <property name="kdenlive:original.meta.media.0.codec.width">3840</property>
  <property name="kdenlive:original.meta.media.0.codec.height">2160</property>
  <property name="kdenlive:original.meta.media.0.codec.rotate">0</property>
  <property name="kdenlive:original.meta.media.0.codec.frame_rate">60</property>
  <property name="kdenlive:original.meta.media.0.codec.pix_fmt">yuv420p</property>
  <property name="kdenlive:original.meta.media.0.codec.sample_aspect_ratio">0</property>
  <property name="kdenlive:original.meta.media.0.codec.colorspace">709</property>
  <property name="kdenlive:original.meta.media.0.codec.name">h264</property>
  <property name="kdenlive:original.meta.media.0.codec.long_name">H.264 / AVC / MPEG-4 AVC / MPEG-4 part 10</property>
  <property name="kdenlive:original.meta.media.0.codec.bit_rate">1042696</property>
  <property name="kdenlive:original.meta.attr.0.stream.handler_name.markup">VideoHandler</property>
  <property name="kdenlive:original.meta.attr.0.stream.vendor_id.markup">[0][0][0][0]</property>
  <property name="kdenlive:original.meta.attr.major_brand.markup">isom</property>
  <property name="kdenlive:original.meta.attr.minor_version.markup">512</property>
  <property name="kdenlive:original.meta.attr.compatible_brands.markup">isomiso2avc1mp41</property>
  <property name="kdenlive:original.meta.attr.encoder.markup">Lavf58.76.100</property>
  <property name="kdenlive:original.meta.attr.comment.markup">Rendered with Manim Community v0.6.0</property>
  <property name="kdenlive:original.seekable">1</property>
  <property name="kdenlive:original.width">3840</property>
  <property name="kdenlive:original.height">2160</property>
  <property name="kdenlive:original.meta.media.sample_aspect_num">1</property>
  <property name="kdenlive:original.meta.media.sample_aspect_den">1</property>
  <property name="kdenlive:original.aspect_ratio">1</property>
  <property name="kdenlive:original.audio_index">-1</property>
  <property name="kdenlive:original.video_index">0</property>
  <property name="kdenlive:original.mute_on_pause">1</property>
  <property name="kdenlive:original.mlt_service">avformat</property>
  <property name="kdenlive:original.meta.media.frame_rate_num">60</property>
  <property name="kdenlive:original.meta.media.frame_rate_den">1</property>
  <property name="kdenlive:original.meta.media.colorspace">709</property>
  <property name="kdenlive:original.meta.media.color_trc">2</property>
  <property name="kdenlive:original.meta.media.width">3840</property>
  <property name="kdenlive:original.meta.media.height">2160</property>
  <property name="kdenlive:original.meta.media.color_range">mpeg</property>
  <property name="kdenlive:original.meta.media.top_field_first">0</property>
  <property name="kdenlive:original.meta.media.progressive">1</property>
  <property name="kdenlive:original.backup">1</property>
  <property name="xml">was here</property>
  <property name="meta.media.nb_streams">1</property>
  <property name="meta.media.0.stream.type">video</property>
  <property name="meta.media.0.stream.frame_rate">60</property>
  <property name="meta.media.0.stream.sample_aspect_ratio">0</property>
  <property name="meta.media.0.codec.width">640</property>
  <property name="meta.media.0.codec.height">360</property>
  <property name="meta.media.0.codec.rotate">0</property>
  <property name="meta.media.0.codec.frame_rate">60</property>
  <property name="meta.media.0.codec.pix_fmt">yuv420p</property>
  <property name="meta.media.0.codec.sample_aspect_ratio">0</property>
  <property name="meta.media.0.codec.colorspace">601</property>
  <property name="meta.media.0.codec.name">h264</property>
  <property name="meta.media.0.codec.long_name">H.264 / AVC / MPEG-4 AVC / MPEG-4 part 10</property>
  <property name="meta.media.0.codec.bit_rate">0</property>
  <property name="meta.attr.0.stream.HANDLER_NAME.markup">VideoHandler</property>
  <property name="meta.attr.0.stream.VENDOR_ID.markup">[0][0][0][0]</property>
  <property name="meta.attr.0.stream.ENCODER.markup">Lavc58.134.100 libx264</property>
  <property name="meta.attr.0.stream.DURATION.markup">00:00:01.000000000</property>
  <property name="meta.attr.COMMENT.markup">Rendered with Manim Community v0.6.0</property>
  <property name="meta.attr.MAJOR_BRAND.markup">isom</property>
  <property name="meta.attr.MINOR_VERSION.markup">512</property>
  <property name="meta.attr.COMPATIBLE_BRANDS.markup">isomiso2avc1mp41</property>
  <property name="meta.attr.ENCODER.markup">Lavf58.76.100</property>
  <property name="meta.media.sample_aspect_num">1</property>
  <property name="meta.media.sample_aspect_den">1</property>
  <property name="meta.media.frame_rate_num">60</property>
  <property name="meta.media.frame_rate_den">1</property>
  <property name="meta.media.colorspace">601</property>
  <property name="meta.media.color_trc">2</property>
  <property name="meta.media.width">640</property>
  <property name="meta.media.height">360</property>
  <property name="meta.media.color_range">mpeg</property>
  <property name="meta.media.top_field_first">0</property>
  <property name="meta.media.progressive">1</property>
  <property name="set.test_audio">1</property>
  <property name="set.test_image">0</property>
 </producer>
 <producer id="producer595" in="00:00:00.000" out="00:00:00.983">
  <property name="length">60</property>
  <property name="eof">pause</property>
  <property name="resource">/home/xiaoxiae/.cache/kdenlive/proxy/50fa63557874fe0614fd2c6e8d8130ca.mkv</property>
  <property name="audio_index">-1</property>
  <property name="video_index">0</property>
  <property name="mute_on_pause">0</property>
  <property name="mlt_service">avformat-novalidate</property>
  <property name="seekable">1</property>
  <property name="aspect_ratio">1</property>
  <property name="kdenlive:clipname">8.mp4</property>
  <property name="kdenlive:folderid">80</property>
  <property name="kdenlive:id">95</property>
  <property name="kdenlive:file_size">130694</property>
  <property name="kdenlive:file_hash">50fa63557874fe0614fd2c6e8d8130ca</property>
  <property name="kdenlive:proxy">/home/xiaoxiae/.cache/kdenlive/proxy/50fa63557874fe0614fd2c6e8d8130ca.mkv</property>
  <property name="kdenlive:originalurl">video/Complement/8.mp4</property>
  <property name="global_feed">1</property>
  <property name="kdenlive:original.mlt_type">producer</property>
  <property name="kdenlive:original.in">0</property>
  <property name="kdenlive:original.out">59</property>
  <property name="kdenlive:original.length">60</property>
  <property name="kdenlive:original.eof">pause</property>
  <property name="kdenlive:original.resource">video/Complement/8.mp4</property>
  <property name="kdenlive:original.meta.media.nb_streams">1</property>
  <property name="kdenlive:original.meta.media.0.stream.type">video</property>
  <property name="kdenlive:original.meta.media.0.stream.frame_rate">60</property>
  <property name="kdenlive:original.meta.media.0.stream.sample_aspect_ratio">0</property>
  <property name="kdenlive:original.meta.media.0.codec.width">3840</property>
  <property name="kdenlive:original.meta.media.0.codec.height">2160</property>
  <property name="kdenlive:original.meta.media.0.codec.rotate">0</property>
  <property name="kdenlive:original.meta.media.0.codec.frame_rate">60</property>
  <property name="kdenlive:original.meta.media.0.codec.pix_fmt">yuv420p</property>
  <property name="kdenlive:original.meta.media.0.codec.sample_aspect_ratio">0</property>
  <property name="kdenlive:original.meta.media.0.codec.colorspace">709</property>
  <property name="kdenlive:original.meta.media.0.codec.name">h264</property>
  <property name="kdenlive:original.meta.media.0.codec.long_name">H.264 / AVC / MPEG-4 AVC / MPEG-4 part 10</property>
  <property name="kdenlive:original.meta.media.0.codec.bit_rate">1032504</property>
  <property name="kdenlive:original.meta.attr.0.stream.handler_name.markup">VideoHandler</property>
  <property name="kdenlive:original.meta.attr.0.stream.vendor_id.markup">[0][0][0][0]</property>
  <property name="kdenlive:original.meta.attr.major_brand.markup">isom</property>
  <property name="kdenlive:original.meta.attr.minor_version.markup">512</property>
  <property name="kdenlive:original.meta.attr.compatible_brands.markup">isomiso2avc1mp41</property>
  <property name="kdenlive:original.meta.attr.encoder.markup">Lavf58.76.100</property>
  <property name="kdenlive:original.meta.attr.comment.markup">Rendered with Manim Community v0.6.0</property>
  <property name="kdenlive:original.seekable">1</property>
  <property name="kdenlive:original.width">3840</property>
  <property name="kdenlive:original.height">2160</property>
  <property name="kdenlive:original.meta.media.sample_aspect_num">1</property>
  <property name="kdenlive:original.meta.media.sample_aspect_den">1</property>
  <property name="kdenlive:original.aspect_ratio">1</property>
  <property name="kdenlive:original.audio_index">-1</property>
  <property name="kdenlive:original.video_index">0</property>
  <property name="kdenlive:original.mute_on_pause">1</property>
  <property name="kdenlive:original.mlt_service">avformat</property>
  <property name="kdenlive:original.meta.media.frame_rate_num">60</property>
  <property name="kdenlive:original.meta.media.frame_rate_den">1</property>
  <property name="kdenlive:original.meta.media.colorspace">709</property>
  <property name="kdenlive:original.meta.media.color_trc">2</property>
  <property name="kdenlive:original.meta.media.width">3840</property>
  <property name="kdenlive:original.meta.media.height">2160</property>
  <property name="kdenlive:original.meta.media.color_range">mpeg</property>
  <property name="kdenlive:original.meta.media.top_field_first">0</property>
  <property name="kdenlive:original.meta.media.progressive">1</property>
  <property name="kdenlive:original.backup">1</property>
  <property name="xml">was here</property>
  <property name="meta.media.nb_streams">1</property>
  <property name="meta.media.0.stream.type">video</property>
  <property name="meta.media.0.stream.frame_rate">60</property>
  <property name="meta.media.0.stream.sample_aspect_ratio">0</property>
  <property name="meta.media.0.codec.width">640</property>
  <property name="meta.media.0.codec.height">360</property>
  <property name="meta.media.0.codec.rotate">0</property>
  <property name="meta.media.0.codec.frame_rate">60</property>
  <property name="meta.media.0.codec.pix_fmt">yuv420p</property>
  <property name="meta.media.0.codec.sample_aspect_ratio">0</property>
  <property name="meta.media.0.codec.colorspace">601</property>
  <property name="meta.media.0.codec.name">h264</property>
  <property name="meta.media.0.codec.long_name">H.264 / AVC / MPEG-4 AVC / MPEG-4 part 10</property>
  <property name="meta.media.0.codec.bit_rate">0</property>
  <property name="meta.attr.0.stream.HANDLER_NAME.markup">VideoHandler</property>
  <property name="meta.attr.0.stream.VENDOR_ID.markup">[0][0][0][0]</property>
  <property name="meta.attr.0.stream.ENCODER.markup">Lavc58.134.100 libx264</property>
  <property name="meta.attr.0.stream.DURATION.markup">00:00:01.000000000</property>
  <property name="meta.attr.COMMENT.markup">Rendered with Manim Community v0.6.0</property>
  <property name="meta.attr.MAJOR_BRAND.markup">isom</property>
  <property name="meta.attr.MINOR_VERSION.markup">512</property>
  <property name="meta.attr.COMPATIBLE_BRANDS.markup">isomiso2avc1mp41</property>
  <property name="meta.attr.ENCODER.markup">Lavf58.76.100</property>
  <property name="meta.media.sample_aspect_num">1</property>
  <property name="meta.media.sample_aspect_den">1</property>
  <property name="meta.media.frame_rate_num">60</property>
  <property name="meta.media.frame_rate_den">1</property>
  <property name="meta.media.colorspace">601</property>
  <property name="meta.media.color_trc">2</property>
  <property name="meta.media.width">640</property>
  <property name="meta.media.height">360</property>
  <property name="meta.media.color_range">mpeg</property>
  <property name="meta.media.top_field_first">0</property>
  <property name="meta.media.progressive">1</property>
  <property name="set.test_audio">1</property>
  <property name="set.test_image">0</property>
 </producer>
 <producer id="producer596" in="00:00:00.000" out="00:00:00.983">
  <property name="length">60</property>
  <property name="eof">pause</property>
  <property name="resource">/home/xiaoxiae/.cache/kdenlive/proxy/00154daab2692ddda15a4f9e77db5876.mkv</property>
  <property name="audio_index">-1</property>
  <property name="video_index">0</property>
  <property name="mute_on_pause">0</property>
  <property name="mlt_service">avformat-novalidate</property>
  <property name="seekable">1</property>
  <property name="aspect_ratio">1</property>
  <property name="kdenlive:clipname">9.mp4</property>
  <property name="kdenlive:folderid">80</property>
  <property name="kdenlive:id">97</property>
  <property name="kdenlive:file_size">125566</property>
  <property name="kdenlive:file_hash">00154daab2692ddda15a4f9e77db5876</property>
  <property name="kdenlive:proxy">/home/xiaoxiae/.cache/kdenlive/proxy/00154daab2692ddda15a4f9e77db5876.mkv</property>
  <property name="kdenlive:originalurl">video/Complement/9.mp4</property>
  <property name="global_feed">1</property>
  <property name="kdenlive:original.mlt_type">producer</property>
  <property name="kdenlive:original.in">0</property>
  <property name="kdenlive:original.out">59</property>
  <property name="kdenlive:original.length">60</property>
  <property name="kdenlive:original.eof">pause</property>
  <property name="kdenlive:original.resource">video/Complement/9.mp4</property>
  <property name="kdenlive:original.meta.media.nb_streams">1</property>
  <property name="kdenlive:original.meta.media.0.stream.type">video</property>
  <property name="kdenlive:original.meta.media.0.stream.frame_rate">60</property>
  <property name="kdenlive:original.meta.media.0.stream.sample_aspect_ratio">0</property>
  <property name="kdenlive:original.meta.media.0.codec.width">3840</property>
  <property name="kdenlive:original.meta.media.0.codec.height">2160</property>
  <property name="kdenlive:original.meta.media.0.codec.rotate">0</property>
  <property name="kdenlive:original.meta.media.0.codec.frame_rate">60</property>
  <property name="kdenlive:original.meta.media.0.codec.pix_fmt">yuv420p</property>
  <property name="kdenlive:original.meta.media.0.codec.sample_aspect_ratio">0</property>
  <property name="kdenlive:original.meta.media.0.codec.colorspace">709</property>
  <property name="kdenlive:original.meta.media.0.codec.name">h264</property>
  <property name="kdenlive:original.meta.media.0.codec.long_name">H.264 / AVC / MPEG-4 AVC / MPEG-4 part 10</property>
  <property name="kdenlive:original.meta.media.0.codec.bit_rate">991480</property>
  <property name="kdenlive:original.meta.attr.0.stream.handler_name.markup">VideoHandler</property>
  <property name="kdenlive:original.meta.attr.0.stream.vendor_id.markup">[0][0][0][0]</property>
  <property name="kdenlive:original.meta.attr.major_brand.markup">isom</property>
  <property name="kdenlive:original.meta.attr.minor_version.markup">512</property>
  <property name="kdenlive:original.meta.attr.compatible_brands.markup">isomiso2avc1mp41</property>
  <property name="kdenlive:original.meta.attr.encoder.markup">Lavf58.76.100</property>
  <property name="kdenlive:original.meta.attr.comment.markup">Rendered with Manim Community v0.6.0</property>
  <property name="kdenlive:original.seekable">1</property>
  <property name="kdenlive:original.width">3840</property>
  <property name="kdenlive:original.height">2160</property>
  <property name="kdenlive:original.meta.media.sample_aspect_num">1</property>
  <property name="kdenlive:original.meta.media.sample_aspect_den">1</property>
  <property name="kdenlive:original.aspect_ratio">1</property>
  <property name="kdenlive:original.audio_index">-1</property>
  <property name="kdenlive:original.video_index">0</property>
  <property name="kdenlive:original.mute_on_pause">1</property>
  <property name="kdenlive:original.mlt_service">avformat</property>
  <property name="kdenlive:original.meta.media.frame_rate_num">60</property>
  <property name="kdenlive:original.meta.media.frame_rate_den">1</property>
  <property name="kdenlive:original.meta.media.colorspace">709</property>
  <property name="kdenlive:original.meta.media.color_trc">2</property>
  <property name="kdenlive:original.meta.media.width">3840</property>
  <property name="kdenlive:original.meta.media.height">2160</property>
  <property name="kdenlive:original.meta.media.color_range">mpeg</property>
  <property name="kdenlive:original.meta.media.top_field_first">0</property>
  <property name="kdenlive:original.meta.media.progressive">1</property>
  <property name="kdenlive:original.backup">1</property>
  <property name="xml">was here</property>
  <property name="meta.media.nb_streams">1</property>
  <property name="meta.media.0.stream.type">video</property>
  <property name="meta.media.0.stream.frame_rate">60</property>
  <property name="meta.media.0.stream.sample_aspect_ratio">0</property>
  <property name="meta.media.0.codec.width">640</property>
  <property name="meta.media.0.codec.height">360</property>
  <property name="meta.media.0.codec.rotate">0</property>
  <property name="meta.media.0.codec.frame_rate">60</property>
  <property name="meta.media.0.codec.pix_fmt">yuv420p</property>
  <property name="meta.media.0.codec.sample_aspect_ratio">0</property>
  <property name="meta.media.0.codec.colorspace">601</property>
  <property name="meta.media.0.codec.name">h264</property>
  <property name="meta.media.0.codec.long_name">H.264 / AVC / MPEG-4 AVC / MPEG-4 part 10</property>
  <property name="meta.media.0.codec.bit_rate">0</property>
  <property name="meta.attr.0.stream.HANDLER_NAME.markup">VideoHandler</property>
  <property name="meta.attr.0.stream.VENDOR_ID.markup">[0][0][0][0]</property>
  <property name="meta.attr.0.stream.ENCODER.markup">Lavc58.134.100 libx264</property>
  <property name="meta.attr.0.stream.DURATION.markup">00:00:01.000000000</property>
  <property name="meta.attr.COMMENT.markup">Rendered with Manim Community v0.6.0</property>
  <property name="meta.attr.MAJOR_BRAND.markup">isom</property>
  <property name="meta.attr.MINOR_VERSION.markup">512</property>
  <property name="meta.attr.COMPATIBLE_BRANDS.markup">isomiso2avc1mp41</property>
  <property name="meta.attr.ENCODER.markup">Lavf58.76.100</property>
  <property name="meta.media.sample_aspect_num">1</property>
  <property name="meta.media.sample_aspect_den">1</property>
  <property name="meta.media.frame_rate_num">60</property>
  <property name="meta.media.frame_rate_den">1</property>
  <property name="meta.media.colorspace">601</property>
  <property name="meta.media.color_trc">2</property>
  <property name="meta.media.width">640</property>
  <property name="meta.media.height">360</property>
  <property name="meta.media.color_range">mpeg</property>
  <property name="meta.media.top_field_first">0</property>
  <property name="meta.media.progressive">1</property>
  <property name="set.test_audio">1</property>
  <property name="set.test_image">0</property>
 </producer>
 <producer id="producer597" in="00:00:00.000" out="00:00:01.983">
  <property name="length">120</property>
  <property name="eof">pause</property>
  <property name="resource">/home/xiaoxiae/.cache/kdenlive/proxy/979da154aa9aeaed2c986fc1819525a6.mkv</property>
  <property name="audio_index">-1</property>
  <property name="video_index">0</property>
  <property name="mute_on_pause">0</property>
  <property name="mlt_service">avformat-novalidate</property>
  <property name="seekable">1</property>
  <property name="aspect_ratio">1</property>
  <property name="kdenlive:clipname">1.mp4</property>
  <property name="kdenlive:folderid">31</property>
  <property name="kdenlive:id">32</property>
  <property name="kdenlive:file_size">136308</property>
  <property name="kdenlive:file_hash">979da154aa9aeaed2c986fc1819525a6</property>
  <property name="kdenlive:proxy">/home/xiaoxiae/.cache/kdenlive/proxy/979da154aa9aeaed2c986fc1819525a6.mkv</property>
  <property name="kdenlive:originalurl">video/CliqueAndIndependentSet/1.mp4</property>
  <property name="global_feed">1</property>
  <property name="kdenlive:original.mlt_type">producer</property>
  <property name="kdenlive:original.in">0</property>
  <property name="kdenlive:original.out">119</property>
  <property name="kdenlive:original.length">120</property>
  <property name="kdenlive:original.eof">pause</property>
  <property name="kdenlive:original.resource">video/CliqueAndIndependentSet/1.mp4</property>
  <property name="kdenlive:original.meta.media.nb_streams">1</property>
  <property name="kdenlive:original.meta.media.0.stream.type">video</property>
  <property name="kdenlive:original.meta.media.0.stream.frame_rate">60</property>
  <property name="kdenlive:original.meta.media.0.stream.sample_aspect_ratio">0</property>
  <property name="kdenlive:original.meta.media.0.codec.width">3840</property>
  <property name="kdenlive:original.meta.media.0.codec.height">2160</property>
  <property name="kdenlive:original.meta.media.0.codec.rotate">0</property>
  <property name="kdenlive:original.meta.media.0.codec.frame_rate">60</property>
  <property name="kdenlive:original.meta.media.0.codec.pix_fmt">yuv420p</property>
  <property name="kdenlive:original.meta.media.0.codec.sample_aspect_ratio">0</property>
  <property name="kdenlive:original.meta.media.0.codec.colorspace">709</property>
  <property name="kdenlive:original.meta.media.0.codec.name">h264</property>
  <property name="kdenlive:original.meta.media.0.codec.long_name">H.264 / AVC / MPEG-4 AVC / MPEG-4 part 10</property>
  <property name="kdenlive:original.meta.media.0.codec.bit_rate">535828</property>
  <property name="kdenlive:original.meta.attr.0.stream.handler_name.markup">VideoHandler</property>
  <property name="kdenlive:original.meta.attr.0.stream.vendor_id.markup">[0][0][0][0]</property>
  <property name="kdenlive:original.meta.attr.major_brand.markup">isom</property>
  <property name="kdenlive:original.meta.attr.minor_version.markup">512</property>
  <property name="kdenlive:original.meta.attr.compatible_brands.markup">isomiso2avc1mp41</property>
  <property name="kdenlive:original.meta.attr.encoder.markup">Lavf58.76.100</property>
  <property name="kdenlive:original.meta.attr.comment.markup">Rendered with Manim Community v0.6.0</property>
  <property name="kdenlive:original.seekable">1</property>
  <property name="kdenlive:original.width">3840</property>
  <property name="kdenlive:original.height">2160</property>
  <property name="kdenlive:original.meta.media.sample_aspect_num">1</property>
  <property name="kdenlive:original.meta.media.sample_aspect_den">1</property>
  <property name="kdenlive:original.aspect_ratio">1</property>
  <property name="kdenlive:original.audio_index">-1</property>
  <property name="kdenlive:original.video_index">0</property>
  <property name="kdenlive:original.mute_on_pause">1</property>
  <property name="kdenlive:original.mlt_service">avformat</property>
  <property name="kdenlive:original.meta.media.frame_rate_num">60</property>
  <property name="kdenlive:original.meta.media.frame_rate_den">1</property>
  <property name="kdenlive:original.meta.media.colorspace">709</property>
  <property name="kdenlive:original.meta.media.color_trc">2</property>
  <property name="kdenlive:original.meta.media.width">3840</property>
  <property name="kdenlive:original.meta.media.height">2160</property>
  <property name="kdenlive:original.meta.media.color_range">mpeg</property>
  <property name="kdenlive:original.meta.media.top_field_first">0</property>
  <property name="kdenlive:original.meta.media.progressive">1</property>
  <property name="kdenlive:original.backup">1</property>
  <property name="xml">was here</property>
  <property name="meta.media.nb_streams">1</property>
  <property name="meta.media.0.stream.type">video</property>
  <property name="meta.media.0.stream.frame_rate">60</property>
  <property name="meta.media.0.stream.sample_aspect_ratio">0</property>
  <property name="meta.media.0.codec.width">640</property>
  <property name="meta.media.0.codec.height">360</property>
  <property name="meta.media.0.codec.rotate">0</property>
  <property name="meta.media.0.codec.frame_rate">60</property>
  <property name="meta.media.0.codec.pix_fmt">yuv420p</property>
  <property name="meta.media.0.codec.sample_aspect_ratio">0</property>
  <property name="meta.media.0.codec.colorspace">601</property>
  <property name="meta.media.0.codec.name">h264</property>
  <property name="meta.media.0.codec.long_name">H.264 / AVC / MPEG-4 AVC / MPEG-4 part 10</property>
  <property name="meta.media.0.codec.bit_rate">0</property>
  <property name="meta.attr.0.stream.HANDLER_NAME.markup">VideoHandler</property>
  <property name="meta.attr.0.stream.VENDOR_ID.markup">[0][0][0][0]</property>
  <property name="meta.attr.0.stream.ENCODER.markup">Lavc58.134.100 libx264</property>
  <property name="meta.attr.0.stream.DURATION.markup">00:00:02.000000000</property>
  <property name="meta.attr.COMMENT.markup">Rendered with Manim Community v0.6.0</property>
  <property name="meta.attr.MAJOR_BRAND.markup">isom</property>
  <property name="meta.attr.MINOR_VERSION.markup">512</property>
  <property name="meta.attr.COMPATIBLE_BRANDS.markup">isomiso2avc1mp41</property>
  <property name="meta.attr.ENCODER.markup">Lavf58.76.100</property>
  <property name="meta.media.sample_aspect_num">1</property>
  <property name="meta.media.sample_aspect_den">1</property>
  <property name="meta.media.frame_rate_num">60</property>
  <property name="meta.media.frame_rate_den">1</property>
  <property name="meta.media.colorspace">601</property>
  <property name="meta.media.color_trc">2</property>
  <property name="meta.media.width">640</property>
  <property name="meta.media.height">360</property>
  <property name="meta.media.color_range">mpeg</property>
  <property name="meta.media.top_field_first">0</property>
  <property name="meta.media.progressive">1</property>
  <property name="set.test_audio">1</property>
  <property name="set.test_image">0</property>
 </producer>
 <producer id="producer598" in="00:00:00.000" out="00:00:00.983">
  <property name="length">60</property>
  <property name="eof">pause</property>
  <property name="resource">/home/xiaoxiae/.cache/kdenlive/proxy/cd8d76cb66f7ef27759791f0816b4c83.mkv</property>
  <property name="audio_index">-1</property>
  <property name="video_index">0</property>
  <property name="mute_on_pause">0</property>
  <property name="mlt_service">avformat-novalidate</property>
  <property name="seekable">1</property>
  <property name="aspect_ratio">1</property>
  <property name="kdenlive:clipname">2.mp4</property>
  <property name="kdenlive:folderid">31</property>
  <property name="kdenlive:id">54</property>
  <property name="kdenlive:file_size">107207</property>
  <property name="kdenlive:file_hash">cd8d76cb66f7ef27759791f0816b4c83</property>
  <property name="kdenlive:proxy">/home/xiaoxiae/.cache/kdenlive/proxy/cd8d76cb66f7ef27759791f0816b4c83.mkv</property>
  <property name="kdenlive:originalurl">video/CliqueAndIndependentSet/2.mp4</property>
  <property name="global_feed">1</property>
  <property name="kdenlive:original.mlt_type">producer</property>
  <property name="kdenlive:original.in">0</property>
  <property name="kdenlive:original.out">59</property>
  <property name="kdenlive:original.length">60</property>
  <property name="kdenlive:original.eof">pause</property>
  <property name="kdenlive:original.resource">video/CliqueAndIndependentSet/2.mp4</property>
  <property name="kdenlive:original.meta.media.nb_streams">1</property>
  <property name="kdenlive:original.meta.media.0.stream.type">video</property>
  <property name="kdenlive:original.meta.media.0.stream.frame_rate">60</property>
  <property name="kdenlive:original.meta.media.0.stream.sample_aspect_ratio">0</property>
  <property name="kdenlive:original.meta.media.0.codec.width">3840</property>
  <property name="kdenlive:original.meta.media.0.codec.height">2160</property>
  <property name="kdenlive:original.meta.media.0.codec.rotate">0</property>
  <property name="kdenlive:original.meta.media.0.codec.frame_rate">60</property>
  <property name="kdenlive:original.meta.media.0.codec.pix_fmt">yuv420p</property>
  <property name="kdenlive:original.meta.media.0.codec.sample_aspect_ratio">0</property>
  <property name="kdenlive:original.meta.media.0.codec.colorspace">709</property>
  <property name="kdenlive:original.meta.media.0.codec.name">h264</property>
  <property name="kdenlive:original.meta.media.0.codec.long_name">H.264 / AVC / MPEG-4 AVC / MPEG-4 part 10</property>
  <property name="kdenlive:original.meta.media.0.codec.bit_rate">845120</property>
  <property name="kdenlive:original.meta.attr.0.stream.handler_name.markup">VideoHandler</property>
  <property name="kdenlive:original.meta.attr.0.stream.vendor_id.markup">[0][0][0][0]</property>
  <property name="kdenlive:original.meta.attr.major_brand.markup">isom</property>
  <property name="kdenlive:original.meta.attr.minor_version.markup">512</property>
  <property name="kdenlive:original.meta.attr.compatible_brands.markup">isomiso2avc1mp41</property>
  <property name="kdenlive:original.meta.attr.encoder.markup">Lavf58.76.100</property>
  <property name="kdenlive:original.meta.attr.comment.markup">Rendered with Manim Community v0.6.0</property>
  <property name="kdenlive:original.seekable">1</property>
  <property name="kdenlive:original.width">3840</property>
  <property name="kdenlive:original.height">2160</property>
  <property name="kdenlive:original.meta.media.sample_aspect_num">1</property>
  <property name="kdenlive:original.meta.media.sample_aspect_den">1</property>
  <property name="kdenlive:original.aspect_ratio">1</property>
  <property name="kdenlive:original.audio_index">-1</property>
  <property name="kdenlive:original.video_index">0</property>
  <property name="kdenlive:original.mute_on_pause">1</property>
  <property name="kdenlive:original.mlt_service">avformat</property>
  <property name="kdenlive:original.meta.media.frame_rate_num">60</property>
  <property name="kdenlive:original.meta.media.frame_rate_den">1</property>
  <property name="kdenlive:original.meta.media.colorspace">709</property>
  <property name="kdenlive:original.meta.media.color_trc">2</property>
  <property name="kdenlive:original.meta.media.width">3840</property>
  <property name="kdenlive:original.meta.media.height">2160</property>
  <property name="kdenlive:original.meta.media.color_range">mpeg</property>
  <property name="kdenlive:original.meta.media.top_field_first">0</property>
  <property name="kdenlive:original.meta.media.progressive">1</property>
  <property name="kdenlive:original.backup">1</property>
  <property name="xml">was here</property>
  <property name="meta.media.nb_streams">1</property>
  <property name="meta.media.0.stream.type">video</property>
  <property name="meta.media.0.stream.frame_rate">60</property>
  <property name="meta.media.0.stream.sample_aspect_ratio">0</property>
  <property name="meta.media.0.codec.width">640</property>
  <property name="meta.media.0.codec.height">360</property>
  <property name="meta.media.0.codec.rotate">0</property>
  <property name="meta.media.0.codec.frame_rate">60</property>
  <property name="meta.media.0.codec.pix_fmt">yuv420p</property>
  <property name="meta.media.0.codec.sample_aspect_ratio">0</property>
  <property name="meta.media.0.codec.colorspace">601</property>
  <property name="meta.media.0.codec.name">h264</property>
  <property name="meta.media.0.codec.long_name">H.264 / AVC / MPEG-4 AVC / MPEG-4 part 10</property>
  <property name="meta.media.0.codec.bit_rate">0</property>
  <property name="meta.attr.0.stream.HANDLER_NAME.markup">VideoHandler</property>
  <property name="meta.attr.0.stream.VENDOR_ID.markup">[0][0][0][0]</property>
  <property name="meta.attr.0.stream.ENCODER.markup">Lavc58.134.100 libx264</property>
  <property name="meta.attr.0.stream.DURATION.markup">00:00:01.000000000</property>
  <property name="meta.attr.COMMENT.markup">Rendered with Manim Community v0.6.0</property>
  <property name="meta.attr.MAJOR_BRAND.markup">isom</property>
  <property name="meta.attr.MINOR_VERSION.markup">512</property>
  <property name="meta.attr.COMPATIBLE_BRANDS.markup">isomiso2avc1mp41</property>
  <property name="meta.attr.ENCODER.markup">Lavf58.76.100</property>
  <property name="meta.media.sample_aspect_num">1</property>
  <property name="meta.media.sample_aspect_den">1</property>
  <property name="meta.media.frame_rate_num">60</property>
  <property name="meta.media.frame_rate_den">1</property>
  <property name="meta.media.colorspace">601</property>
  <property name="meta.media.color_trc">2</property>
  <property name="meta.media.width">640</property>
  <property name="meta.media.height">360</property>
  <property name="meta.media.color_range">mpeg</property>
  <property name="meta.media.top_field_first">0</property>
  <property name="meta.media.progressive">1</property>
  <property name="set.test_audio">1</property>
  <property name="set.test_image">0</property>
 </producer>
 <producer id="producer599" in="00:00:00.000" out="00:00:03.433">
  <property name="length">207</property>
  <property name="eof">pause</property>
  <property name="resource">/home/xiaoxiae/.cache/kdenlive/proxy/ddc2c52f9b52cee7aece6140cc0754a3.mkv</property>
  <property name="audio_index">-1</property>
  <property name="video_index">0</property>
  <property name="mute_on_pause">0</property>
  <property name="mlt_service">avformat-novalidate</property>
  <property name="seekable">1</property>
  <property name="aspect_ratio">1</property>
  <property name="kdenlive:clipname">3.mp4</property>
  <property name="kdenlive:folderid">31</property>
  <property name="kdenlive:id">66</property>
  <property name="kdenlive:file_size">319414</property>
  <property name="kdenlive:file_hash">ddc2c52f9b52cee7aece6140cc0754a3</property>
  <property name="kdenlive:proxy">/home/xiaoxiae/.cache/kdenlive/proxy/ddc2c52f9b52cee7aece6140cc0754a3.mkv</property>
  <property name="kdenlive:originalurl">video/CliqueAndIndependentSet/3.mp4</property>
  <property name="global_feed">1</property>
  <property name="kdenlive:original.mlt_type">producer</property>
  <property name="kdenlive:original.in">0</property>
  <property name="kdenlive:original.out">206</property>
  <property name="kdenlive:original.length">207</property>
  <property name="kdenlive:original.eof">pause</property>
  <property name="kdenlive:original.resource">video/CliqueAndIndependentSet/3.mp4</property>
  <property name="kdenlive:original.meta.media.nb_streams">1</property>
  <property name="kdenlive:original.meta.media.0.stream.type">video</property>
  <property name="kdenlive:original.meta.media.0.stream.frame_rate">60</property>
  <property name="kdenlive:original.meta.media.0.stream.sample_aspect_ratio">0</property>
  <property name="kdenlive:original.meta.media.0.codec.width">3840</property>
  <property name="kdenlive:original.meta.media.0.codec.height">2160</property>
  <property name="kdenlive:original.meta.media.0.codec.rotate">0</property>
  <property name="kdenlive:original.meta.media.0.codec.frame_rate">60</property>
  <property name="kdenlive:original.meta.media.0.codec.pix_fmt">yuv420p</property>
  <property name="kdenlive:original.meta.media.0.codec.sample_aspect_ratio">0</property>
  <property name="kdenlive:original.meta.media.0.codec.colorspace">709</property>
  <property name="kdenlive:original.meta.media.0.codec.name">h264</property>
  <property name="kdenlive:original.meta.media.0.codec.long_name">H.264 / AVC / MPEG-4 AVC / MPEG-4 part 10</property>
  <property name="kdenlive:original.meta.media.0.codec.bit_rate">732779</property>
  <property name="kdenlive:original.meta.attr.0.stream.handler_name.markup">VideoHandler</property>
  <property name="kdenlive:original.meta.attr.0.stream.vendor_id.markup">[0][0][0][0]</property>
  <property name="kdenlive:original.meta.attr.major_brand.markup">isom</property>
  <property name="kdenlive:original.meta.attr.minor_version.markup">512</property>
  <property name="kdenlive:original.meta.attr.compatible_brands.markup">isomiso2avc1mp41</property>
  <property name="kdenlive:original.meta.attr.encoder.markup">Lavf58.76.100</property>
  <property name="kdenlive:original.meta.attr.comment.markup">Rendered with Manim Community v0.6.0</property>
  <property name="kdenlive:original.seekable">1</property>
  <property name="kdenlive:original.width">3840</property>
  <property name="kdenlive:original.height">2160</property>
  <property name="kdenlive:original.meta.media.sample_aspect_num">1</property>
  <property name="kdenlive:original.meta.media.sample_aspect_den">1</property>
  <property name="kdenlive:original.aspect_ratio">1</property>
  <property name="kdenlive:original.audio_index">-1</property>
  <property name="kdenlive:original.video_index">0</property>
  <property name="kdenlive:original.mute_on_pause">1</property>
  <property name="kdenlive:original.mlt_service">avformat</property>
  <property name="kdenlive:original.meta.media.frame_rate_num">60</property>
  <property name="kdenlive:original.meta.media.frame_rate_den">1</property>
  <property name="kdenlive:original.meta.media.colorspace">709</property>
  <property name="kdenlive:original.meta.media.color_trc">2</property>
  <property name="kdenlive:original.meta.media.width">3840</property>
  <property name="kdenlive:original.meta.media.height">2160</property>
  <property name="kdenlive:original.meta.media.color_range">mpeg</property>
  <property name="kdenlive:original.meta.media.top_field_first">0</property>
  <property name="kdenlive:original.meta.media.progressive">1</property>
  <property name="kdenlive:original.backup">1</property>
  <property name="xml">was here</property>
  <property name="meta.media.nb_streams">1</property>
  <property name="meta.media.0.stream.type">video</property>
  <property name="meta.media.0.stream.frame_rate">60</property>
  <property name="meta.media.0.stream.sample_aspect_ratio">0</property>
  <property name="meta.media.0.codec.width">640</property>
  <property name="meta.media.0.codec.height">360</property>
  <property name="meta.media.0.codec.rotate">0</property>
  <property name="meta.media.0.codec.frame_rate">60</property>
  <property name="meta.media.0.codec.pix_fmt">yuv420p</property>
  <property name="meta.media.0.codec.sample_aspect_ratio">0</property>
  <property name="meta.media.0.codec.colorspace">601</property>
  <property name="meta.media.0.codec.name">h264</property>
  <property name="meta.media.0.codec.long_name">H.264 / AVC / MPEG-4 AVC / MPEG-4 part 10</property>
  <property name="meta.media.0.codec.bit_rate">0</property>
  <property name="meta.attr.0.stream.HANDLER_NAME.markup">VideoHandler</property>
  <property name="meta.attr.0.stream.VENDOR_ID.markup">[0][0][0][0]</property>
  <property name="meta.attr.0.stream.ENCODER.markup">Lavc58.134.100 libx264</property>
  <property name="meta.attr.0.stream.DURATION.markup">00:00:03.450000000</property>
  <property name="meta.attr.COMMENT.markup">Rendered with Manim Community v0.6.0</property>
  <property name="meta.attr.MAJOR_BRAND.markup">isom</property>
  <property name="meta.attr.MINOR_VERSION.markup">512</property>
  <property name="meta.attr.COMPATIBLE_BRANDS.markup">isomiso2avc1mp41</property>
  <property name="meta.attr.ENCODER.markup">Lavf58.76.100</property>
  <property name="meta.media.sample_aspect_num">1</property>
  <property name="meta.media.sample_aspect_den">1</property>
  <property name="meta.media.frame_rate_num">60</property>
  <property name="meta.media.frame_rate_den">1</property>
  <property name="meta.media.colorspace">601</property>
  <property name="meta.media.color_trc">2</property>
  <property name="meta.media.width">640</property>
  <property name="meta.media.height">360</property>
  <property name="meta.media.color_range">mpeg</property>
  <property name="meta.media.top_field_first">0</property>
  <property name="meta.media.progressive">1</property>
  <property name="set.test_audio">1</property>
  <property name="set.test_image">0</property>
 </producer>
 <producer id="producer600" in="00:00:00.000" out="00:00:01.983">
  <property name="length">120</property>
  <property name="eof">pause</property>
  <property name="resource">/home/xiaoxiae/.cache/kdenlive/proxy/f441174a085459db26a27653be30acf2.mkv</property>
  <property name="audio_index">-1</property>
  <property name="video_index">0</property>
  <property name="mute_on_pause">0</property>
  <property name="mlt_service">avformat-novalidate</property>
  <property name="seekable">1</property>
  <property name="aspect_ratio">1</property>
  <property name="kdenlive:clipname">4.mp4</property>
  <property name="kdenlive:folderid">31</property>
  <property name="kdenlive:id">68</property>
  <property name="kdenlive:file_size">169762</property>
  <property name="kdenlive:file_hash">f441174a085459db26a27653be30acf2</property>
  <property name="kdenlive:proxy">/home/xiaoxiae/.cache/kdenlive/proxy/f441174a085459db26a27653be30acf2.mkv</property>
  <property name="kdenlive:originalurl">video/CliqueAndIndependentSet/4.mp4</property>
  <property name="global_feed">1</property>
  <property name="kdenlive:original.mlt_type">producer</property>
  <property name="kdenlive:original.in">0</property>
  <property name="kdenlive:original.out">119</property>
  <property name="kdenlive:original.length">120</property>
  <property name="kdenlive:original.eof">pause</property>
  <property name="kdenlive:original.resource">video/CliqueAndIndependentSet/4.mp4</property>
  <property name="kdenlive:original.meta.media.nb_streams">1</property>
  <property name="kdenlive:original.meta.media.0.stream.type">video</property>
  <property name="kdenlive:original.meta.media.0.stream.frame_rate">60</property>
  <property name="kdenlive:original.meta.media.0.stream.sample_aspect_ratio">0</property>
  <property name="kdenlive:original.meta.media.0.codec.width">3840</property>
  <property name="kdenlive:original.meta.media.0.codec.height">2160</property>
  <property name="kdenlive:original.meta.media.0.codec.rotate">0</property>
  <property name="kdenlive:original.meta.media.0.codec.frame_rate">60</property>
  <property name="kdenlive:original.meta.media.0.codec.pix_fmt">yuv420p</property>
  <property name="kdenlive:original.meta.media.0.codec.sample_aspect_ratio">0</property>
  <property name="kdenlive:original.meta.media.0.codec.colorspace">709</property>
  <property name="kdenlive:original.meta.media.0.codec.name">h264</property>
  <property name="kdenlive:original.meta.media.0.codec.long_name">H.264 / AVC / MPEG-4 AVC / MPEG-4 part 10</property>
  <property name="kdenlive:original.meta.media.0.codec.bit_rate">669644</property>
  <property name="kdenlive:original.meta.attr.0.stream.handler_name.markup">VideoHandler</property>
  <property name="kdenlive:original.meta.attr.0.stream.vendor_id.markup">[0][0][0][0]</property>
  <property name="kdenlive:original.meta.attr.major_brand.markup">isom</property>
  <property name="kdenlive:original.meta.attr.minor_version.markup">512</property>
  <property name="kdenlive:original.meta.attr.compatible_brands.markup">isomiso2avc1mp41</property>
  <property name="kdenlive:original.meta.attr.encoder.markup">Lavf58.76.100</property>
  <property name="kdenlive:original.meta.attr.comment.markup">Rendered with Manim Community v0.6.0</property>
  <property name="kdenlive:original.seekable">1</property>
  <property name="kdenlive:original.width">3840</property>
  <property name="kdenlive:original.height">2160</property>
  <property name="kdenlive:original.meta.media.sample_aspect_num">1</property>
  <property name="kdenlive:original.meta.media.sample_aspect_den">1</property>
  <property name="kdenlive:original.aspect_ratio">1</property>
  <property name="kdenlive:original.audio_index">-1</property>
  <property name="kdenlive:original.video_index">0</property>
  <property name="kdenlive:original.mute_on_pause">1</property>
  <property name="kdenlive:original.mlt_service">avformat</property>
  <property name="kdenlive:original.meta.media.frame_rate_num">60</property>
  <property name="kdenlive:original.meta.media.frame_rate_den">1</property>
  <property name="kdenlive:original.meta.media.colorspace">709</property>
  <property name="kdenlive:original.meta.media.color_trc">2</property>
  <property name="kdenlive:original.meta.media.width">3840</property>
  <property name="kdenlive:original.meta.media.height">2160</property>
  <property name="kdenlive:original.meta.media.color_range">mpeg</property>
  <property name="kdenlive:original.meta.media.top_field_first">0</property>
  <property name="kdenlive:original.meta.media.progressive">1</property>
  <property name="kdenlive:original.backup">1</property>
  <property name="xml">was here</property>
  <property name="meta.media.nb_streams">1</property>
  <property name="meta.media.0.stream.type">video</property>
  <property name="meta.media.0.stream.frame_rate">60</property>
  <property name="meta.media.0.stream.sample_aspect_ratio">0</property>
  <property name="meta.media.0.codec.width">640</property>
  <property name="meta.media.0.codec.height">360</property>
  <property name="meta.media.0.codec.rotate">0</property>
  <property name="meta.media.0.codec.frame_rate">60</property>
  <property name="meta.media.0.codec.pix_fmt">yuv420p</property>
  <property name="meta.media.0.codec.sample_aspect_ratio">0</property>
  <property name="meta.media.0.codec.colorspace">601</property>
  <property name="meta.media.0.codec.name">h264</property>
  <property name="meta.media.0.codec.long_name">H.264 / AVC / MPEG-4 AVC / MPEG-4 part 10</property>
  <property name="meta.media.0.codec.bit_rate">0</property>
  <property name="meta.attr.0.stream.HANDLER_NAME.markup">VideoHandler</property>
  <property name="meta.attr.0.stream.VENDOR_ID.markup">[0][0][0][0]</property>
  <property name="meta.attr.0.stream.ENCODER.markup">Lavc58.134.100 libx264</property>
  <property name="meta.attr.0.stream.DURATION.markup">00:00:02.000000000</property>
  <property name="meta.attr.COMMENT.markup">Rendered with Manim Community v0.6.0</property>
  <property name="meta.attr.MAJOR_BRAND.markup">isom</property>
  <property name="meta.attr.MINOR_VERSION.markup">512</property>
  <property name="meta.attr.COMPATIBLE_BRANDS.markup">isomiso2avc1mp41</property>
  <property name="meta.attr.ENCODER.markup">Lavf58.76.100</property>
  <property name="meta.media.sample_aspect_num">1</property>
  <property name="meta.media.sample_aspect_den">1</property>
  <property name="meta.media.frame_rate_num">60</property>
  <property name="meta.media.frame_rate_den">1</property>
  <property name="meta.media.colorspace">601</property>
  <property name="meta.media.color_trc">2</property>
  <property name="meta.media.width">640</property>
  <property name="meta.media.height">360</property>
  <property name="meta.media.color_range">mpeg</property>
  <property name="meta.media.top_field_first">0</property>
  <property name="meta.media.progressive">1</property>
  <property name="set.test_audio">1</property>
  <property name="set.test_image">0</property>
 </producer>
 <producer id="producer601" in="00:00:00.000" out="00:00:00.983">
  <property name="length">60</property>
  <property name="eof">pause</property>
  <property name="resource">/home/xiaoxiae/.cache/kdenlive/proxy/2354f08e8a198e05e2827ef2275e66e4.mkv</property>
  <property name="audio_index">-1</property>
  <property name="video_index">0</property>
  <property name="mute_on_pause">0</property>
  <property name="mlt_service">avformat-novalidate</property>
  <property name="seekable">1</property>
  <property name="aspect_ratio">1</property>
  <property name="kdenlive:clipname">5.mp4</property>
  <property name="kdenlive:folderid">31</property>
  <property name="kdenlive:id">70</property>
  <property name="kdenlive:file_size">150758</property>
  <property name="kdenlive:file_hash">2354f08e8a198e05e2827ef2275e66e4</property>
  <property name="kdenlive:proxy">/home/xiaoxiae/.cache/kdenlive/proxy/2354f08e8a198e05e2827ef2275e66e4.mkv</property>
  <property name="kdenlive:originalurl">video/CliqueAndIndependentSet/5.mp4</property>
  <property name="global_feed">1</property>
  <property name="kdenlive:original.mlt_type">producer</property>
  <property name="kdenlive:original.in">0</property>
  <property name="kdenlive:original.out">59</property>
  <property name="kdenlive:original.length">60</property>
  <property name="kdenlive:original.eof">pause</property>
  <property name="kdenlive:original.resource">video/CliqueAndIndependentSet/5.mp4</property>
  <property name="kdenlive:original.meta.media.nb_streams">1</property>
  <property name="kdenlive:original.meta.media.0.stream.type">video</property>
  <property name="kdenlive:original.meta.media.0.stream.frame_rate">60</property>
  <property name="kdenlive:original.meta.media.0.stream.sample_aspect_ratio">0</property>
  <property name="kdenlive:original.meta.media.0.codec.width">3840</property>
  <property name="kdenlive:original.meta.media.0.codec.height">2160</property>
  <property name="kdenlive:original.meta.media.0.codec.rotate">0</property>
  <property name="kdenlive:original.meta.media.0.codec.frame_rate">60</property>
  <property name="kdenlive:original.meta.media.0.codec.pix_fmt">yuv420p</property>
  <property name="kdenlive:original.meta.media.0.codec.sample_aspect_ratio">0</property>
  <property name="kdenlive:original.meta.media.0.codec.colorspace">709</property>
  <property name="kdenlive:original.meta.media.0.codec.name">h264</property>
  <property name="kdenlive:original.meta.media.0.codec.long_name">H.264 / AVC / MPEG-4 AVC / MPEG-4 part 10</property>
  <property name="kdenlive:original.meta.media.0.codec.bit_rate">1193016</property>
  <property name="kdenlive:original.meta.attr.0.stream.handler_name.markup">VideoHandler</property>
  <property name="kdenlive:original.meta.attr.0.stream.vendor_id.markup">[0][0][0][0]</property>
  <property name="kdenlive:original.meta.attr.major_brand.markup">isom</property>
  <property name="kdenlive:original.meta.attr.minor_version.markup">512</property>
  <property name="kdenlive:original.meta.attr.compatible_brands.markup">isomiso2avc1mp41</property>
  <property name="kdenlive:original.meta.attr.encoder.markup">Lavf58.76.100</property>
  <property name="kdenlive:original.meta.attr.comment.markup">Rendered with Manim Community v0.6.0</property>
  <property name="kdenlive:original.seekable">1</property>
  <property name="kdenlive:original.width">3840</property>
  <property name="kdenlive:original.height">2160</property>
  <property name="kdenlive:original.meta.media.sample_aspect_num">1</property>
  <property name="kdenlive:original.meta.media.sample_aspect_den">1</property>
  <property name="kdenlive:original.aspect_ratio">1</property>
  <property name="kdenlive:original.audio_index">-1</property>
  <property name="kdenlive:original.video_index">0</property>
  <property name="kdenlive:original.mute_on_pause">1</property>
  <property name="kdenlive:original.mlt_service">avformat</property>
  <property name="kdenlive:original.meta.media.frame_rate_num">60</property>
  <property name="kdenlive:original.meta.media.frame_rate_den">1</property>
  <property name="kdenlive:original.meta.media.colorspace">709</property>
  <property name="kdenlive:original.meta.media.color_trc">2</property>
  <property name="kdenlive:original.meta.media.width">3840</property>
  <property name="kdenlive:original.meta.media.height">2160</property>
  <property name="kdenlive:original.meta.media.color_range">mpeg</property>
  <property name="kdenlive:original.meta.media.top_field_first">0</property>
  <property name="kdenlive:original.meta.media.progressive">1</property>
  <property name="kdenlive:original.backup">1</property>
  <property name="xml">was here</property>
  <property name="meta.media.nb_streams">1</property>
  <property name="meta.media.0.stream.type">video</property>
  <property name="meta.media.0.stream.frame_rate">60</property>
  <property name="meta.media.0.stream.sample_aspect_ratio">0</property>
  <property name="meta.media.0.codec.width">640</property>
  <property name="meta.media.0.codec.height">360</property>
  <property name="meta.media.0.codec.rotate">0</property>
  <property name="meta.media.0.codec.frame_rate">60</property>
  <property name="meta.media.0.codec.pix_fmt">yuv420p</property>
  <property name="meta.media.0.codec.sample_aspect_ratio">0</property>
  <property name="meta.media.0.codec.colorspace">601</property>
  <property name="meta.media.0.codec.name">h264</property>
  <property name="meta.media.0.codec.long_name">H.264 / AVC / MPEG-4 AVC / MPEG-4 part 10</property>
  <property name="meta.media.0.codec.bit_rate">0</property>
  <property name="meta.attr.0.stream.HANDLER_NAME.markup">VideoHandler</property>
  <property name="meta.attr.0.stream.VENDOR_ID.markup">[0][0][0][0]</property>
  <property name="meta.attr.0.stream.ENCODER.markup">Lavc58.134.100 libx264</property>
  <property name="meta.attr.0.stream.DURATION.markup">00:00:01.000000000</property>
  <property name="meta.attr.COMMENT.markup">Rendered with Manim Community v0.6.0</property>
  <property name="meta.attr.MAJOR_BRAND.markup">isom</property>
  <property name="meta.attr.MINOR_VERSION.markup">512</property>
  <property name="meta.attr.COMPATIBLE_BRANDS.markup">isomiso2avc1mp41</property>
  <property name="meta.attr.ENCODER.markup">Lavf58.76.100</property>
  <property name="meta.media.sample_aspect_num">1</property>
  <property name="meta.media.sample_aspect_den">1</property>
  <property name="meta.media.frame_rate_num">60</property>
  <property name="meta.media.frame_rate_den">1</property>
  <property name="meta.media.colorspace">601</property>
  <property name="meta.media.color_trc">2</property>
  <property name="meta.media.width">640</property>
  <property name="meta.media.height">360</property>
  <property name="meta.media.color_range">mpeg</property>
  <property name="meta.media.top_field_first">0</property>
  <property name="meta.media.progressive">1</property>
  <property name="set.test_audio">1</property>
  <property name="set.test_image">0</property>
 </producer>
 <producer id="producer602" in="00:00:00.000" out="00:00:00.983">
  <property name="length">60</property>
  <property name="eof">pause</property>
  <property name="resource">/home/xiaoxiae/.cache/kdenlive/proxy/4749e7bb42e9be4db1e7b625c8f25102.mkv</property>
  <property name="audio_index">-1</property>
  <property name="video_index">0</property>
  <property name="mute_on_pause">0</property>
  <property name="mlt_service">avformat-novalidate</property>
  <property name="seekable">1</property>
  <property name="aspect_ratio">1</property>
  <property name="kdenlive:clipname">6.mp4</property>
  <property name="kdenlive:folderid">31</property>
  <property name="kdenlive:id">72</property>
  <property name="kdenlive:file_size">114842</property>
  <property name="kdenlive:file_hash">4749e7bb42e9be4db1e7b625c8f25102</property>
  <property name="kdenlive:proxy">/home/xiaoxiae/.cache/kdenlive/proxy/4749e7bb42e9be4db1e7b625c8f25102.mkv</property>
  <property name="kdenlive:originalurl">video/CliqueAndIndependentSet/6.mp4</property>
  <property name="global_feed">1</property>
  <property name="kdenlive:original.mlt_type">producer</property>
  <property name="kdenlive:original.in">0</property>
  <property name="kdenlive:original.out">59</property>
  <property name="kdenlive:original.length">60</property>
  <property name="kdenlive:original.eof">pause</property>
  <property name="kdenlive:original.resource">video/CliqueAndIndependentSet/6.mp4</property>
  <property name="kdenlive:original.meta.media.nb_streams">1</property>
  <property name="kdenlive:original.meta.media.0.stream.type">video</property>
  <property name="kdenlive:original.meta.media.0.stream.frame_rate">60</property>
  <property name="kdenlive:original.meta.media.0.stream.sample_aspect_ratio">0</property>
  <property name="kdenlive:original.meta.media.0.codec.width">3840</property>
  <property name="kdenlive:original.meta.media.0.codec.height">2160</property>
  <property name="kdenlive:original.meta.media.0.codec.rotate">0</property>
  <property name="kdenlive:original.meta.media.0.codec.frame_rate">60</property>
  <property name="kdenlive:original.meta.media.0.codec.pix_fmt">yuv420p</property>
  <property name="kdenlive:original.meta.media.0.codec.sample_aspect_ratio">0</property>
  <property name="kdenlive:original.meta.media.0.codec.colorspace">709</property>
  <property name="kdenlive:original.meta.media.0.codec.name">h264</property>
  <property name="kdenlive:original.meta.media.0.codec.long_name">H.264 / AVC / MPEG-4 AVC / MPEG-4 part 10</property>
  <property name="kdenlive:original.meta.media.0.codec.bit_rate">905688</property>
  <property name="kdenlive:original.meta.attr.0.stream.handler_name.markup">VideoHandler</property>
  <property name="kdenlive:original.meta.attr.0.stream.vendor_id.markup">[0][0][0][0]</property>
  <property name="kdenlive:original.meta.attr.major_brand.markup">isom</property>
  <property name="kdenlive:original.meta.attr.minor_version.markup">512</property>
  <property name="kdenlive:original.meta.attr.compatible_brands.markup">isomiso2avc1mp41</property>
  <property name="kdenlive:original.meta.attr.encoder.markup">Lavf58.76.100</property>
  <property name="kdenlive:original.meta.attr.comment.markup">Rendered with Manim Community v0.6.0</property>
  <property name="kdenlive:original.seekable">1</property>
  <property name="kdenlive:original.width">3840</property>
  <property name="kdenlive:original.height">2160</property>
  <property name="kdenlive:original.meta.media.sample_aspect_num">1</property>
  <property name="kdenlive:original.meta.media.sample_aspect_den">1</property>
  <property name="kdenlive:original.aspect_ratio">1</property>
  <property name="kdenlive:original.audio_index">-1</property>
  <property name="kdenlive:original.video_index">0</property>
  <property name="kdenlive:original.mute_on_pause">1</property>
  <property name="kdenlive:original.mlt_service">avformat</property>
  <property name="kdenlive:original.meta.media.frame_rate_num">60</property>
  <property name="kdenlive:original.meta.media.frame_rate_den">1</property>
  <property name="kdenlive:original.meta.media.colorspace">709</property>
  <property name="kdenlive:original.meta.media.color_trc">2</property>
  <property name="kdenlive:original.meta.media.width">3840</property>
  <property name="kdenlive:original.meta.media.height">2160</property>
  <property name="kdenlive:original.meta.media.color_range">mpeg</property>
  <property name="kdenlive:original.meta.media.top_field_first">0</property>
  <property name="kdenlive:original.meta.media.progressive">1</property>
  <property name="kdenlive:original.backup">1</property>
  <property name="xml">was here</property>
  <property name="meta.media.nb_streams">1</property>
  <property name="meta.media.0.stream.type">video</property>
  <property name="meta.media.0.stream.frame_rate">60</property>
  <property name="meta.media.0.stream.sample_aspect_ratio">0</property>
  <property name="meta.media.0.codec.width">640</property>
  <property name="meta.media.0.codec.height">360</property>
  <property name="meta.media.0.codec.rotate">0</property>
  <property name="meta.media.0.codec.frame_rate">60</property>
  <property name="meta.media.0.codec.pix_fmt">yuv420p</property>
  <property name="meta.media.0.codec.sample_aspect_ratio">0</property>
  <property name="meta.media.0.codec.colorspace">601</property>
  <property name="meta.media.0.codec.name">h264</property>
  <property name="meta.media.0.codec.long_name">H.264 / AVC / MPEG-4 AVC / MPEG-4 part 10</property>
  <property name="meta.media.0.codec.bit_rate">0</property>
  <property name="meta.attr.0.stream.HANDLER_NAME.markup">VideoHandler</property>
  <property name="meta.attr.0.stream.VENDOR_ID.markup">[0][0][0][0]</property>
  <property name="meta.attr.0.stream.ENCODER.markup">Lavc58.134.100 libx264</property>
  <property name="meta.attr.0.stream.DURATION.markup">00:00:01.000000000</property>
  <property name="meta.attr.COMMENT.markup">Rendered with Manim Community v0.6.0</property>
  <property name="meta.attr.MAJOR_BRAND.markup">isom</property>
  <property name="meta.attr.MINOR_VERSION.markup">512</property>
  <property name="meta.attr.COMPATIBLE_BRANDS.markup">isomiso2avc1mp41</property>
  <property name="meta.attr.ENCODER.markup">Lavf58.76.100</property>
  <property name="meta.media.sample_aspect_num">1</property>
  <property name="meta.media.sample_aspect_den">1</property>
  <property name="meta.media.frame_rate_num">60</property>
  <property name="meta.media.frame_rate_den">1</property>
  <property name="meta.media.colorspace">601</property>
  <property name="meta.media.color_trc">2</property>
  <property name="meta.media.width">640</property>
  <property name="meta.media.height">360</property>
  <property name="meta.media.color_range">mpeg</property>
  <property name="meta.media.top_field_first">0</property>
  <property name="meta.media.progressive">1</property>
  <property name="set.test_audio">1</property>
  <property name="set.test_image">0</property>
 </producer>
 <producer id="producer603" in="00:00:00.000" out="00:00:00.983">
  <property name="length">60</property>
  <property name="eof">pause</property>
  <property name="resource">/home/xiaoxiae/.cache/kdenlive/proxy/704de4ef4ec2fc9678c2fc9c192e7422.mkv</property>
  <property name="audio_index">-1</property>
  <property name="video_index">0</property>
  <property name="mute_on_pause">0</property>
  <property name="mlt_service">avformat-novalidate</property>
  <property name="seekable">1</property>
  <property name="aspect_ratio">1</property>
  <property name="kdenlive:clipname">7.mp4</property>
  <property name="kdenlive:folderid">31</property>
  <property name="kdenlive:id">74</property>
  <property name="kdenlive:file_size">129474</property>
  <property name="kdenlive:file_hash">704de4ef4ec2fc9678c2fc9c192e7422</property>
  <property name="kdenlive:proxy">/home/xiaoxiae/.cache/kdenlive/proxy/704de4ef4ec2fc9678c2fc9c192e7422.mkv</property>
  <property name="kdenlive:originalurl">video/CliqueAndIndependentSet/7.mp4</property>
  <property name="global_feed">1</property>
  <property name="kdenlive:original.mlt_type">producer</property>
  <property name="kdenlive:original.in">0</property>
  <property name="kdenlive:original.out">59</property>
  <property name="kdenlive:original.length">60</property>
  <property name="kdenlive:original.eof">pause</property>
  <property name="kdenlive:original.resource">video/CliqueAndIndependentSet/7.mp4</property>
  <property name="kdenlive:original.meta.media.nb_streams">1</property>
  <property name="kdenlive:original.meta.media.0.stream.type">video</property>
  <property name="kdenlive:original.meta.media.0.stream.frame_rate">60</property>
  <property name="kdenlive:original.meta.media.0.stream.sample_aspect_ratio">0</property>
  <property name="kdenlive:original.meta.media.0.codec.width">3840</property>
  <property name="kdenlive:original.meta.media.0.codec.height">2160</property>
  <property name="kdenlive:original.meta.media.0.codec.rotate">0</property>
  <property name="kdenlive:original.meta.media.0.codec.frame_rate">60</property>
  <property name="kdenlive:original.meta.media.0.codec.pix_fmt">yuv420p</property>
  <property name="kdenlive:original.meta.media.0.codec.sample_aspect_ratio">0</property>
  <property name="kdenlive:original.meta.media.0.codec.colorspace">709</property>
  <property name="kdenlive:original.meta.media.0.codec.name">h264</property>
  <property name="kdenlive:original.meta.media.0.codec.long_name">H.264 / AVC / MPEG-4 AVC / MPEG-4 part 10</property>
  <property name="kdenlive:original.meta.media.0.codec.bit_rate">1022744</property>
  <property name="kdenlive:original.meta.attr.0.stream.handler_name.markup">VideoHandler</property>
  <property name="kdenlive:original.meta.attr.0.stream.vendor_id.markup">[0][0][0][0]</property>
  <property name="kdenlive:original.meta.attr.major_brand.markup">isom</property>
  <property name="kdenlive:original.meta.attr.minor_version.markup">512</property>
  <property name="kdenlive:original.meta.attr.compatible_brands.markup">isomiso2avc1mp41</property>
  <property name="kdenlive:original.meta.attr.encoder.markup">Lavf58.76.100</property>
  <property name="kdenlive:original.meta.attr.comment.markup">Rendered with Manim Community v0.6.0</property>
  <property name="kdenlive:original.seekable">1</property>
  <property name="kdenlive:original.width">3840</property>
  <property name="kdenlive:original.height">2160</property>
  <property name="kdenlive:original.meta.media.sample_aspect_num">1</property>
  <property name="kdenlive:original.meta.media.sample_aspect_den">1</property>
  <property name="kdenlive:original.aspect_ratio">1</property>
  <property name="kdenlive:original.audio_index">-1</property>
  <property name="kdenlive:original.video_index">0</property>
  <property name="kdenlive:original.mute_on_pause">1</property>
  <property name="kdenlive:original.mlt_service">avformat</property>
  <property name="kdenlive:original.meta.media.frame_rate_num">60</property>
  <property name="kdenlive:original.meta.media.frame_rate_den">1</property>
  <property name="kdenlive:original.meta.media.colorspace">709</property>
  <property name="kdenlive:original.meta.media.color_trc">2</property>
  <property name="kdenlive:original.meta.media.width">3840</property>
  <property name="kdenlive:original.meta.media.height">2160</property>
  <property name="kdenlive:original.meta.media.color_range">mpeg</property>
  <property name="kdenlive:original.meta.media.top_field_first">0</property>
  <property name="kdenlive:original.meta.media.progressive">1</property>
  <property name="kdenlive:original.backup">1</property>
  <property name="xml">was here</property>
  <property name="meta.media.nb_streams">1</property>
  <property name="meta.media.0.stream.type">video</property>
  <property name="meta.media.0.stream.frame_rate">60</property>
  <property name="meta.media.0.stream.sample_aspect_ratio">0</property>
  <property name="meta.media.0.codec.width">640</property>
  <property name="meta.media.0.codec.height">360</property>
  <property name="meta.media.0.codec.rotate">0</property>
  <property name="meta.media.0.codec.frame_rate">60</property>
  <property name="meta.media.0.codec.pix_fmt">yuv420p</property>
  <property name="meta.media.0.codec.sample_aspect_ratio">0</property>
  <property name="meta.media.0.codec.colorspace">601</property>
  <property name="meta.media.0.codec.name">h264</property>
  <property name="meta.media.0.codec.long_name">H.264 / AVC / MPEG-4 AVC / MPEG-4 part 10</property>
  <property name="meta.media.0.codec.bit_rate">0</property>
  <property name="meta.attr.0.stream.HANDLER_NAME.markup">VideoHandler</property>
  <property name="meta.attr.0.stream.VENDOR_ID.markup">[0][0][0][0]</property>
  <property name="meta.attr.0.stream.ENCODER.markup">Lavc58.134.100 libx264</property>
  <property name="meta.attr.0.stream.DURATION.markup">00:00:01.000000000</property>
  <property name="meta.attr.COMMENT.markup">Rendered with Manim Community v0.6.0</property>
  <property name="meta.attr.MAJOR_BRAND.markup">isom</property>
  <property name="meta.attr.MINOR_VERSION.markup">512</property>
  <property name="meta.attr.COMPATIBLE_BRANDS.markup">isomiso2avc1mp41</property>
  <property name="meta.attr.ENCODER.markup">Lavf58.76.100</property>
  <property name="meta.media.sample_aspect_num">1</property>
  <property name="meta.media.sample_aspect_den">1</property>
  <property name="meta.media.frame_rate_num">60</property>
  <property name="meta.media.frame_rate_den">1</property>
  <property name="meta.media.colorspace">601</property>
  <property name="meta.media.color_trc">2</property>
  <property name="meta.media.width">640</property>
  <property name="meta.media.height">360</property>
  <property name="meta.media.color_range">mpeg</property>
  <property name="meta.media.top_field_first">0</property>
  <property name="meta.media.progressive">1</property>
  <property name="set.test_audio">1</property>
  <property name="set.test_image">0</property>
 </producer>
 <producer id="producer604" in="00:00:00.000" out="00:00:00.983">
  <property name="length">60</property>
  <property name="eof">pause</property>
  <property name="resource">/home/xiaoxiae/.cache/kdenlive/proxy/3656ca048662848ff8c19bf575fd58fc.mkv</property>
  <property name="audio_index">-1</property>
  <property name="video_index">0</property>
  <property name="mute_on_pause">0</property>
  <property name="mlt_service">avformat-novalidate</property>
  <property name="seekable">1</property>
  <property name="aspect_ratio">1</property>
  <property name="kdenlive:clipname">8.mp4</property>
  <property name="kdenlive:folderid">31</property>
  <property name="kdenlive:id">76</property>
  <property name="kdenlive:file_size">142080</property>
  <property name="kdenlive:file_hash">3656ca048662848ff8c19bf575fd58fc</property>
  <property name="kdenlive:proxy">/home/xiaoxiae/.cache/kdenlive/proxy/3656ca048662848ff8c19bf575fd58fc.mkv</property>
  <property name="kdenlive:originalurl">video/CliqueAndIndependentSet/8.mp4</property>
  <property name="global_feed">1</property>
  <property name="kdenlive:original.mlt_type">producer</property>
  <property name="kdenlive:original.in">0</property>
  <property name="kdenlive:original.out">59</property>
  <property name="kdenlive:original.length">60</property>
  <property name="kdenlive:original.eof">pause</property>
  <property name="kdenlive:original.resource">video/CliqueAndIndependentSet/8.mp4</property>
  <property name="kdenlive:original.meta.media.nb_streams">1</property>
  <property name="kdenlive:original.meta.media.0.stream.type">video</property>
  <property name="kdenlive:original.meta.media.0.stream.frame_rate">60</property>
  <property name="kdenlive:original.meta.media.0.stream.sample_aspect_ratio">0</property>
  <property name="kdenlive:original.meta.media.0.codec.width">3840</property>
  <property name="kdenlive:original.meta.media.0.codec.height">2160</property>
  <property name="kdenlive:original.meta.media.0.codec.rotate">0</property>
  <property name="kdenlive:original.meta.media.0.codec.frame_rate">60</property>
  <property name="kdenlive:original.meta.media.0.codec.pix_fmt">yuv420p</property>
  <property name="kdenlive:original.meta.media.0.codec.sample_aspect_ratio">0</property>
  <property name="kdenlive:original.meta.media.0.codec.colorspace">709</property>
  <property name="kdenlive:original.meta.media.0.codec.name">h264</property>
  <property name="kdenlive:original.meta.media.0.codec.long_name">H.264 / AVC / MPEG-4 AVC / MPEG-4 part 10</property>
  <property name="kdenlive:original.meta.media.0.codec.bit_rate">1123592</property>
  <property name="kdenlive:original.meta.attr.0.stream.handler_name.markup">VideoHandler</property>
  <property name="kdenlive:original.meta.attr.0.stream.vendor_id.markup">[0][0][0][0]</property>
  <property name="kdenlive:original.meta.attr.major_brand.markup">isom</property>
  <property name="kdenlive:original.meta.attr.minor_version.markup">512</property>
  <property name="kdenlive:original.meta.attr.compatible_brands.markup">isomiso2avc1mp41</property>
  <property name="kdenlive:original.meta.attr.encoder.markup">Lavf58.76.100</property>
  <property name="kdenlive:original.meta.attr.comment.markup">Rendered with Manim Community v0.6.0</property>
  <property name="kdenlive:original.seekable">1</property>
  <property name="kdenlive:original.width">3840</property>
  <property name="kdenlive:original.height">2160</property>
  <property name="kdenlive:original.meta.media.sample_aspect_num">1</property>
  <property name="kdenlive:original.meta.media.sample_aspect_den">1</property>
  <property name="kdenlive:original.aspect_ratio">1</property>
  <property name="kdenlive:original.audio_index">-1</property>
  <property name="kdenlive:original.video_index">0</property>
  <property name="kdenlive:original.mute_on_pause">1</property>
  <property name="kdenlive:original.mlt_service">avformat</property>
  <property name="kdenlive:original.meta.media.frame_rate_num">60</property>
  <property name="kdenlive:original.meta.media.frame_rate_den">1</property>
  <property name="kdenlive:original.meta.media.colorspace">709</property>
  <property name="kdenlive:original.meta.media.color_trc">2</property>
  <property name="kdenlive:original.meta.media.width">3840</property>
  <property name="kdenlive:original.meta.media.height">2160</property>
  <property name="kdenlive:original.meta.media.color_range">mpeg</property>
  <property name="kdenlive:original.meta.media.top_field_first">0</property>
  <property name="kdenlive:original.meta.media.progressive">1</property>
  <property name="kdenlive:original.backup">1</property>
  <property name="xml">was here</property>
  <property name="meta.media.nb_streams">1</property>
  <property name="meta.media.0.stream.type">video</property>
  <property name="meta.media.0.stream.frame_rate">60</property>
  <property name="meta.media.0.stream.sample_aspect_ratio">0</property>
  <property name="meta.media.0.codec.width">640</property>
  <property name="meta.media.0.codec.height">360</property>
  <property name="meta.media.0.codec.rotate">0</property>
  <property name="meta.media.0.codec.frame_rate">60</property>
  <property name="meta.media.0.codec.pix_fmt">yuv420p</property>
  <property name="meta.media.0.codec.sample_aspect_ratio">0</property>
  <property name="meta.media.0.codec.colorspace">601</property>
  <property name="meta.media.0.codec.name">h264</property>
  <property name="meta.media.0.codec.long_name">H.264 / AVC / MPEG-4 AVC / MPEG-4 part 10</property>
  <property name="meta.media.0.codec.bit_rate">0</property>
  <property name="meta.attr.0.stream.HANDLER_NAME.markup">VideoHandler</property>
  <property name="meta.attr.0.stream.VENDOR_ID.markup">[0][0][0][0]</property>
  <property name="meta.attr.0.stream.ENCODER.markup">Lavc58.134.100 libx264</property>
  <property name="meta.attr.0.stream.DURATION.markup">00:00:01.000000000</property>
  <property name="meta.attr.COMMENT.markup">Rendered with Manim Community v0.6.0</property>
  <property name="meta.attr.MAJOR_BRAND.markup">isom</property>
  <property name="meta.attr.MINOR_VERSION.markup">512</property>
  <property name="meta.attr.COMPATIBLE_BRANDS.markup">isomiso2avc1mp41</property>
  <property name="meta.attr.ENCODER.markup">Lavf58.76.100</property>
  <property name="meta.media.sample_aspect_num">1</property>
  <property name="meta.media.sample_aspect_den">1</property>
  <property name="meta.media.frame_rate_num">60</property>
  <property name="meta.media.frame_rate_den">1</property>
  <property name="meta.media.colorspace">601</property>
  <property name="meta.media.color_trc">2</property>
  <property name="meta.media.width">640</property>
  <property name="meta.media.height">360</property>
  <property name="meta.media.color_range">mpeg</property>
  <property name="meta.media.top_field_first">0</property>
  <property name="meta.media.progressive">1</property>
  <property name="set.test_audio">1</property>
  <property name="set.test_image">0</property>
 </producer>
 <producer id="producer605" in="00:00:00.000" out="00:00:03.433">
  <property name="length">207</property>
  <property name="eof">pause</property>
  <property name="resource">/home/xiaoxiae/.cache/kdenlive/proxy/d7cd7f0d005a732638e91d14d2ec9b24.mkv</property>
  <property name="audio_index">-1</property>
  <property name="video_index">0</property>
  <property name="mute_on_pause">0</property>
  <property name="mlt_service">avformat-novalidate</property>
  <property name="seekable">1</property>
  <property name="aspect_ratio">1</property>
  <property name="kdenlive:clipname">9.mp4</property>
  <property name="kdenlive:folderid">31</property>
  <property name="kdenlive:id">78</property>
  <property name="kdenlive:file_size">434699</property>
  <property name="kdenlive:file_hash">d7cd7f0d005a732638e91d14d2ec9b24</property>
  <property name="kdenlive:proxy">/home/xiaoxiae/.cache/kdenlive/proxy/d7cd7f0d005a732638e91d14d2ec9b24.mkv</property>
  <property name="kdenlive:originalurl">video/CliqueAndIndependentSet/9.mp4</property>
  <property name="global_feed">1</property>
  <property name="kdenlive:original.mlt_type">producer</property>
  <property name="kdenlive:original.in">0</property>
  <property name="kdenlive:original.out">206</property>
  <property name="kdenlive:original.length">207</property>
  <property name="kdenlive:original.eof">pause</property>
  <property name="kdenlive:original.resource">video/CliqueAndIndependentSet/9.mp4</property>
  <property name="kdenlive:original.meta.media.nb_streams">1</property>
  <property name="kdenlive:original.meta.media.0.stream.type">video</property>
  <property name="kdenlive:original.meta.media.0.stream.frame_rate">60</property>
  <property name="kdenlive:original.meta.media.0.stream.sample_aspect_ratio">0</property>
  <property name="kdenlive:original.meta.media.0.codec.width">3840</property>
  <property name="kdenlive:original.meta.media.0.codec.height">2160</property>
  <property name="kdenlive:original.meta.media.0.codec.rotate">0</property>
  <property name="kdenlive:original.meta.media.0.codec.frame_rate">60</property>
  <property name="kdenlive:original.meta.media.0.codec.pix_fmt">yuv420p</property>
  <property name="kdenlive:original.meta.media.0.codec.sample_aspect_ratio">0</property>
  <property name="kdenlive:original.meta.media.0.codec.colorspace">709</property>
  <property name="kdenlive:original.meta.media.0.codec.name">h264</property>
  <property name="kdenlive:original.meta.media.0.codec.long_name">H.264 / AVC / MPEG-4 AVC / MPEG-4 part 10</property>
  <property name="kdenlive:original.meta.media.0.codec.bit_rate">1000106</property>
  <property name="kdenlive:original.meta.attr.0.stream.handler_name.markup">VideoHandler</property>
  <property name="kdenlive:original.meta.attr.0.stream.vendor_id.markup">[0][0][0][0]</property>
  <property name="kdenlive:original.meta.attr.major_brand.markup">isom</property>
  <property name="kdenlive:original.meta.attr.minor_version.markup">512</property>
  <property name="kdenlive:original.meta.attr.compatible_brands.markup">isomiso2avc1mp41</property>
  <property name="kdenlive:original.meta.attr.encoder.markup">Lavf58.76.100</property>
  <property name="kdenlive:original.meta.attr.comment.markup">Rendered with Manim Community v0.6.0</property>
  <property name="kdenlive:original.seekable">1</property>
  <property name="kdenlive:original.width">3840</property>
  <property name="kdenlive:original.height">2160</property>
  <property name="kdenlive:original.meta.media.sample_aspect_num">1</property>
  <property name="kdenlive:original.meta.media.sample_aspect_den">1</property>
  <property name="kdenlive:original.aspect_ratio">1</property>
  <property name="kdenlive:original.audio_index">-1</property>
  <property name="kdenlive:original.video_index">0</property>
  <property name="kdenlive:original.mute_on_pause">1</property>
  <property name="kdenlive:original.mlt_service">avformat</property>
  <property name="kdenlive:original.meta.media.frame_rate_num">60</property>
  <property name="kdenlive:original.meta.media.frame_rate_den">1</property>
  <property name="kdenlive:original.meta.media.colorspace">709</property>
  <property name="kdenlive:original.meta.media.color_trc">2</property>
  <property name="kdenlive:original.meta.media.width">3840</property>
  <property name="kdenlive:original.meta.media.height">2160</property>
  <property name="kdenlive:original.meta.media.color_range">mpeg</property>
  <property name="kdenlive:original.meta.media.top_field_first">0</property>
  <property name="kdenlive:original.meta.media.progressive">1</property>
  <property name="kdenlive:original.backup">1</property>
  <property name="xml">was here</property>
  <property name="meta.media.nb_streams">1</property>
  <property name="meta.media.0.stream.type">video</property>
  <property name="meta.media.0.stream.frame_rate">60</property>
  <property name="meta.media.0.stream.sample_aspect_ratio">0</property>
  <property name="meta.media.0.codec.width">640</property>
  <property name="meta.media.0.codec.height">360</property>
  <property name="meta.media.0.codec.rotate">0</property>
  <property name="meta.media.0.codec.frame_rate">60</property>
  <property name="meta.media.0.codec.pix_fmt">yuv420p</property>
  <property name="meta.media.0.codec.sample_aspect_ratio">0</property>
  <property name="meta.media.0.codec.colorspace">601</property>
  <property name="meta.media.0.codec.name">h264</property>
  <property name="meta.media.0.codec.long_name">H.264 / AVC / MPEG-4 AVC / MPEG-4 part 10</property>
  <property name="meta.media.0.codec.bit_rate">0</property>
  <property name="meta.attr.0.stream.HANDLER_NAME.markup">VideoHandler</property>
  <property name="meta.attr.0.stream.VENDOR_ID.markup">[0][0][0][0]</property>
  <property name="meta.attr.0.stream.ENCODER.markup">Lavc58.134.100 libx264</property>
  <property name="meta.attr.0.stream.DURATION.markup">00:00:03.450000000</property>
  <property name="meta.attr.COMMENT.markup">Rendered with Manim Community v0.6.0</property>
  <property name="meta.attr.MAJOR_BRAND.markup">isom</property>
  <property name="meta.attr.MINOR_VERSION.markup">512</property>
  <property name="meta.attr.COMPATIBLE_BRANDS.markup">isomiso2avc1mp41</property>
  <property name="meta.attr.ENCODER.markup">Lavf58.76.100</property>
  <property name="meta.media.sample_aspect_num">1</property>
  <property name="meta.media.sample_aspect_den">1</property>
  <property name="meta.media.frame_rate_num">60</property>
  <property name="meta.media.frame_rate_den">1</property>
  <property name="meta.media.colorspace">601</property>
  <property name="meta.media.color_trc">2</property>
  <property name="meta.media.width">640</property>
  <property name="meta.media.height">360</property>
  <property name="meta.media.color_range">mpeg</property>
  <property name="meta.media.top_field_first">0</property>
  <property name="meta.media.progressive">1</property>
  <property name="set.test_audio">1</property>
  <property name="set.test_image">0</property>
 </producer>
 <producer id="producer606" in="00:00:00.000" out="00:00:00.983">
  <property name="length">60</property>
  <property name="eof">pause</property>
  <property name="resource">/home/xiaoxiae/.cache/kdenlive/proxy/6c83add5bfe8350e1475297c42c3b621.mkv</property>
  <property name="audio_index">-1</property>
  <property name="video_index">0</property>
  <property name="mute_on_pause">0</property>
  <property name="mlt_service">avformat-novalidate</property>
  <property name="seekable">1</property>
  <property name="aspect_ratio">1</property>
  <property name="kdenlive:clipname">10.mp4</property>
  <property name="kdenlive:folderid">31</property>
  <property name="kdenlive:id">34</property>
  <property name="kdenlive:file_size">204264</property>
  <property name="kdenlive:file_hash">6c83add5bfe8350e1475297c42c3b621</property>
  <property name="kdenlive:proxy">/home/xiaoxiae/.cache/kdenlive/proxy/6c83add5bfe8350e1475297c42c3b621.mkv</property>
  <property name="kdenlive:originalurl">video/CliqueAndIndependentSet/10.mp4</property>
  <property name="global_feed">1</property>
  <property name="kdenlive:original.mlt_type">producer</property>
  <property name="kdenlive:original.in">0</property>
  <property name="kdenlive:original.out">59</property>
  <property name="kdenlive:original.length">60</property>
  <property name="kdenlive:original.eof">pause</property>
  <property name="kdenlive:original.resource">video/CliqueAndIndependentSet/10.mp4</property>
  <property name="kdenlive:original.meta.media.nb_streams">1</property>
  <property name="kdenlive:original.meta.media.0.stream.type">video</property>
  <property name="kdenlive:original.meta.media.0.stream.frame_rate">60</property>
  <property name="kdenlive:original.meta.media.0.stream.sample_aspect_ratio">0</property>
  <property name="kdenlive:original.meta.media.0.codec.width">3840</property>
  <property name="kdenlive:original.meta.media.0.codec.height">2160</property>
  <property name="kdenlive:original.meta.media.0.codec.rotate">0</property>
  <property name="kdenlive:original.meta.media.0.codec.frame_rate">60</property>
  <property name="kdenlive:original.meta.media.0.codec.pix_fmt">yuv420p</property>
  <property name="kdenlive:original.meta.media.0.codec.sample_aspect_ratio">0</property>
  <property name="kdenlive:original.meta.media.0.codec.colorspace">709</property>
  <property name="kdenlive:original.meta.media.0.codec.name">h264</property>
  <property name="kdenlive:original.meta.media.0.codec.long_name">H.264 / AVC / MPEG-4 AVC / MPEG-4 part 10</property>
  <property name="kdenlive:original.meta.media.0.codec.bit_rate">1621064</property>
  <property name="kdenlive:original.meta.attr.0.stream.handler_name.markup">VideoHandler</property>
  <property name="kdenlive:original.meta.attr.0.stream.vendor_id.markup">[0][0][0][0]</property>
  <property name="kdenlive:original.meta.attr.major_brand.markup">isom</property>
  <property name="kdenlive:original.meta.attr.minor_version.markup">512</property>
  <property name="kdenlive:original.meta.attr.compatible_brands.markup">isomiso2avc1mp41</property>
  <property name="kdenlive:original.meta.attr.encoder.markup">Lavf58.76.100</property>
  <property name="kdenlive:original.meta.attr.comment.markup">Rendered with Manim Community v0.6.0</property>
  <property name="kdenlive:original.seekable">1</property>
  <property name="kdenlive:original.width">3840</property>
  <property name="kdenlive:original.height">2160</property>
  <property name="kdenlive:original.meta.media.sample_aspect_num">1</property>
  <property name="kdenlive:original.meta.media.sample_aspect_den">1</property>
  <property name="kdenlive:original.aspect_ratio">1</property>
  <property name="kdenlive:original.audio_index">-1</property>
  <property name="kdenlive:original.video_index">0</property>
  <property name="kdenlive:original.mute_on_pause">1</property>
  <property name="kdenlive:original.mlt_service">avformat</property>
  <property name="kdenlive:original.meta.media.frame_rate_num">60</property>
  <property name="kdenlive:original.meta.media.frame_rate_den">1</property>
  <property name="kdenlive:original.meta.media.colorspace">709</property>
  <property name="kdenlive:original.meta.media.color_trc">2</property>
  <property name="kdenlive:original.meta.media.width">3840</property>
  <property name="kdenlive:original.meta.media.height">2160</property>
  <property name="kdenlive:original.meta.media.color_range">mpeg</property>
  <property name="kdenlive:original.meta.media.top_field_first">0</property>
  <property name="kdenlive:original.meta.media.progressive">1</property>
  <property name="kdenlive:original.backup">1</property>
  <property name="xml">was here</property>
  <property name="meta.media.nb_streams">1</property>
  <property name="meta.media.0.stream.type">video</property>
  <property name="meta.media.0.stream.frame_rate">60</property>
  <property name="meta.media.0.stream.sample_aspect_ratio">0</property>
  <property name="meta.media.0.codec.width">640</property>
  <property name="meta.media.0.codec.height">360</property>
  <property name="meta.media.0.codec.rotate">0</property>
  <property name="meta.media.0.codec.frame_rate">60</property>
  <property name="meta.media.0.codec.pix_fmt">yuv420p</property>
  <property name="meta.media.0.codec.sample_aspect_ratio">0</property>
  <property name="meta.media.0.codec.colorspace">601</property>
  <property name="meta.media.0.codec.name">h264</property>
  <property name="meta.media.0.codec.long_name">H.264 / AVC / MPEG-4 AVC / MPEG-4 part 10</property>
  <property name="meta.media.0.codec.bit_rate">0</property>
  <property name="meta.attr.0.stream.HANDLER_NAME.markup">VideoHandler</property>
  <property name="meta.attr.0.stream.VENDOR_ID.markup">[0][0][0][0]</property>
  <property name="meta.attr.0.stream.ENCODER.markup">Lavc58.134.100 libx264</property>
  <property name="meta.attr.0.stream.DURATION.markup">00:00:01.000000000</property>
  <property name="meta.attr.COMMENT.markup">Rendered with Manim Community v0.6.0</property>
  <property name="meta.attr.MAJOR_BRAND.markup">isom</property>
  <property name="meta.attr.MINOR_VERSION.markup">512</property>
  <property name="meta.attr.COMPATIBLE_BRANDS.markup">isomiso2avc1mp41</property>
  <property name="meta.attr.ENCODER.markup">Lavf58.76.100</property>
  <property name="meta.media.sample_aspect_num">1</property>
  <property name="meta.media.sample_aspect_den">1</property>
  <property name="meta.media.frame_rate_num">60</property>
  <property name="meta.media.frame_rate_den">1</property>
  <property name="meta.media.colorspace">601</property>
  <property name="meta.media.color_trc">2</property>
  <property name="meta.media.width">640</property>
  <property name="meta.media.height">360</property>
  <property name="meta.media.color_range">mpeg</property>
  <property name="meta.media.top_field_first">0</property>
  <property name="meta.media.progressive">1</property>
  <property name="set.test_audio">1</property>
  <property name="set.test_image">0</property>
 </producer>
 <producer id="producer607" in="00:00:00.000" out="00:00:00.983">
  <property name="length">60</property>
  <property name="eof">pause</property>
  <property name="resource">/home/xiaoxiae/.cache/kdenlive/proxy/864fa719a60f39af5a83da6bd787d971.mkv</property>
  <property name="audio_index">-1</property>
  <property name="video_index">0</property>
  <property name="mute_on_pause">0</property>
  <property name="mlt_service">avformat-novalidate</property>
  <property name="seekable">1</property>
  <property name="aspect_ratio">1</property>
  <property name="kdenlive:clipname">11.mp4</property>
  <property name="kdenlive:folderid">31</property>
  <property name="kdenlive:id">36</property>
  <property name="kdenlive:file_size">140015</property>
  <property name="kdenlive:file_hash">864fa719a60f39af5a83da6bd787d971</property>
  <property name="kdenlive:proxy">/home/xiaoxiae/.cache/kdenlive/proxy/864fa719a60f39af5a83da6bd787d971.mkv</property>
  <property name="kdenlive:originalurl">video/CliqueAndIndependentSet/11.mp4</property>
  <property name="global_feed">1</property>
  <property name="kdenlive:original.mlt_type">producer</property>
  <property name="kdenlive:original.in">0</property>
  <property name="kdenlive:original.out">59</property>
  <property name="kdenlive:original.length">60</property>
  <property name="kdenlive:original.eof">pause</property>
  <property name="kdenlive:original.resource">video/CliqueAndIndependentSet/11.mp4</property>
  <property name="kdenlive:original.meta.media.nb_streams">1</property>
  <property name="kdenlive:original.meta.media.0.stream.type">video</property>
  <property name="kdenlive:original.meta.media.0.stream.frame_rate">60</property>
  <property name="kdenlive:original.meta.media.0.stream.sample_aspect_ratio">0</property>
  <property name="kdenlive:original.meta.media.0.codec.width">3840</property>
  <property name="kdenlive:original.meta.media.0.codec.height">2160</property>
  <property name="kdenlive:original.meta.media.0.codec.rotate">0</property>
  <property name="kdenlive:original.meta.media.0.codec.frame_rate">60</property>
  <property name="kdenlive:original.meta.media.0.codec.pix_fmt">yuv420p</property>
  <property name="kdenlive:original.meta.media.0.codec.sample_aspect_ratio">0</property>
  <property name="kdenlive:original.meta.media.0.codec.colorspace">709</property>
  <property name="kdenlive:original.meta.media.0.codec.name">h264</property>
  <property name="kdenlive:original.meta.media.0.codec.long_name">H.264 / AVC / MPEG-4 AVC / MPEG-4 part 10</property>
  <property name="kdenlive:original.meta.media.0.codec.bit_rate">1107072</property>
  <property name="kdenlive:original.meta.attr.0.stream.handler_name.markup">VideoHandler</property>
  <property name="kdenlive:original.meta.attr.0.stream.vendor_id.markup">[0][0][0][0]</property>
  <property name="kdenlive:original.meta.attr.major_brand.markup">isom</property>
  <property name="kdenlive:original.meta.attr.minor_version.markup">512</property>
  <property name="kdenlive:original.meta.attr.compatible_brands.markup">isomiso2avc1mp41</property>
  <property name="kdenlive:original.meta.attr.encoder.markup">Lavf58.76.100</property>
  <property name="kdenlive:original.meta.attr.comment.markup">Rendered with Manim Community v0.6.0</property>
  <property name="kdenlive:original.seekable">1</property>
  <property name="kdenlive:original.width">3840</property>
  <property name="kdenlive:original.height">2160</property>
  <property name="kdenlive:original.meta.media.sample_aspect_num">1</property>
  <property name="kdenlive:original.meta.media.sample_aspect_den">1</property>
  <property name="kdenlive:original.aspect_ratio">1</property>
  <property name="kdenlive:original.audio_index">-1</property>
  <property name="kdenlive:original.video_index">0</property>
  <property name="kdenlive:original.mute_on_pause">1</property>
  <property name="kdenlive:original.mlt_service">avformat</property>
  <property name="kdenlive:original.meta.media.frame_rate_num">60</property>
  <property name="kdenlive:original.meta.media.frame_rate_den">1</property>
  <property name="kdenlive:original.meta.media.colorspace">709</property>
  <property name="kdenlive:original.meta.media.color_trc">2</property>
  <property name="kdenlive:original.meta.media.width">3840</property>
  <property name="kdenlive:original.meta.media.height">2160</property>
  <property name="kdenlive:original.meta.media.color_range">mpeg</property>
  <property name="kdenlive:original.meta.media.top_field_first">0</property>
  <property name="kdenlive:original.meta.media.progressive">1</property>
  <property name="kdenlive:original.backup">1</property>
  <property name="xml">was here</property>
  <property name="meta.media.nb_streams">1</property>
  <property name="meta.media.0.stream.type">video</property>
  <property name="meta.media.0.stream.frame_rate">60</property>
  <property name="meta.media.0.stream.sample_aspect_ratio">0</property>
  <property name="meta.media.0.codec.width">640</property>
  <property name="meta.media.0.codec.height">360</property>
  <property name="meta.media.0.codec.rotate">0</property>
  <property name="meta.media.0.codec.frame_rate">60</property>
  <property name="meta.media.0.codec.pix_fmt">yuv420p</property>
  <property name="meta.media.0.codec.sample_aspect_ratio">0</property>
  <property name="meta.media.0.codec.colorspace">601</property>
  <property name="meta.media.0.codec.name">h264</property>
  <property name="meta.media.0.codec.long_name">H.264 / AVC / MPEG-4 AVC / MPEG-4 part 10</property>
  <property name="meta.media.0.codec.bit_rate">0</property>
  <property name="meta.attr.0.stream.HANDLER_NAME.markup">VideoHandler</property>
  <property name="meta.attr.0.stream.VENDOR_ID.markup">[0][0][0][0]</property>
  <property name="meta.attr.0.stream.ENCODER.markup">Lavc58.134.100 libx264</property>
  <property name="meta.attr.0.stream.DURATION.markup">00:00:01.000000000</property>
  <property name="meta.attr.COMMENT.markup">Rendered with Manim Community v0.6.0</property>
  <property name="meta.attr.MAJOR_BRAND.markup">isom</property>
  <property name="meta.attr.MINOR_VERSION.markup">512</property>
  <property name="meta.attr.COMPATIBLE_BRANDS.markup">isomiso2avc1mp41</property>
  <property name="meta.attr.ENCODER.markup">Lavf58.76.100</property>
  <property name="meta.media.sample_aspect_num">1</property>
  <property name="meta.media.sample_aspect_den">1</property>
  <property name="meta.media.frame_rate_num">60</property>
  <property name="meta.media.frame_rate_den">1</property>
  <property name="meta.media.colorspace">601</property>
  <property name="meta.media.color_trc">2</property>
  <property name="meta.media.width">640</property>
  <property name="meta.media.height">360</property>
  <property name="meta.media.color_range">mpeg</property>
  <property name="meta.media.top_field_first">0</property>
  <property name="meta.media.progressive">1</property>
  <property name="set.test_audio">1</property>
  <property name="set.test_image">0</property>
 </producer>
 <producer id="producer608" in="00:00:00.000" out="00:00:00.983">
  <property name="length">60</property>
  <property name="eof">pause</property>
  <property name="resource">/home/xiaoxiae/.cache/kdenlive/proxy/906b3e227ba4ed15928416a91f71b035.mkv</property>
  <property name="audio_index">-1</property>
  <property name="video_index">0</property>
  <property name="mute_on_pause">0</property>
  <property name="mlt_service">avformat-novalidate</property>
  <property name="seekable">1</property>
  <property name="aspect_ratio">1</property>
  <property name="kdenlive:clipname">12.mp4</property>
  <property name="kdenlive:folderid">31</property>
  <property name="kdenlive:id">38</property>
  <property name="kdenlive:file_size">137549</property>
  <property name="kdenlive:file_hash">906b3e227ba4ed15928416a91f71b035</property>
  <property name="kdenlive:proxy">/home/xiaoxiae/.cache/kdenlive/proxy/906b3e227ba4ed15928416a91f71b035.mkv</property>
  <property name="kdenlive:originalurl">video/CliqueAndIndependentSet/12.mp4</property>
  <property name="global_feed">1</property>
  <property name="kdenlive:original.mlt_type">producer</property>
  <property name="kdenlive:original.in">0</property>
  <property name="kdenlive:original.out">59</property>
  <property name="kdenlive:original.length">60</property>
  <property name="kdenlive:original.eof">pause</property>
  <property name="kdenlive:original.resource">video/CliqueAndIndependentSet/12.mp4</property>
  <property name="kdenlive:original.meta.media.nb_streams">1</property>
  <property name="kdenlive:original.meta.media.0.stream.type">video</property>
  <property name="kdenlive:original.meta.media.0.stream.frame_rate">60</property>
  <property name="kdenlive:original.meta.media.0.stream.sample_aspect_ratio">0</property>
  <property name="kdenlive:original.meta.media.0.codec.width">3840</property>
  <property name="kdenlive:original.meta.media.0.codec.height">2160</property>
  <property name="kdenlive:original.meta.media.0.codec.rotate">0</property>
  <property name="kdenlive:original.meta.media.0.codec.frame_rate">60</property>
  <property name="kdenlive:original.meta.media.0.codec.pix_fmt">yuv420p</property>
  <property name="kdenlive:original.meta.media.0.codec.sample_aspect_ratio">0</property>
  <property name="kdenlive:original.meta.media.0.codec.colorspace">709</property>
  <property name="kdenlive:original.meta.media.0.codec.name">h264</property>
  <property name="kdenlive:original.meta.media.0.codec.long_name">H.264 / AVC / MPEG-4 AVC / MPEG-4 part 10</property>
  <property name="kdenlive:original.meta.media.0.codec.bit_rate">1087344</property>
  <property name="kdenlive:original.meta.attr.0.stream.handler_name.markup">VideoHandler</property>
  <property name="kdenlive:original.meta.attr.0.stream.vendor_id.markup">[0][0][0][0]</property>
  <property name="kdenlive:original.meta.attr.major_brand.markup">isom</property>
  <property name="kdenlive:original.meta.attr.minor_version.markup">512</property>
  <property name="kdenlive:original.meta.attr.compatible_brands.markup">isomiso2avc1mp41</property>
  <property name="kdenlive:original.meta.attr.encoder.markup">Lavf58.76.100</property>
  <property name="kdenlive:original.meta.attr.comment.markup">Rendered with Manim Community v0.6.0</property>
  <property name="kdenlive:original.seekable">1</property>
  <property name="kdenlive:original.width">3840</property>
  <property name="kdenlive:original.height">2160</property>
  <property name="kdenlive:original.meta.media.sample_aspect_num">1</property>
  <property name="kdenlive:original.meta.media.sample_aspect_den">1</property>
  <property name="kdenlive:original.aspect_ratio">1</property>
  <property name="kdenlive:original.audio_index">-1</property>
  <property name="kdenlive:original.video_index">0</property>
  <property name="kdenlive:original.mute_on_pause">1</property>
  <property name="kdenlive:original.mlt_service">avformat</property>
  <property name="kdenlive:original.meta.media.frame_rate_num">60</property>
  <property name="kdenlive:original.meta.media.frame_rate_den">1</property>
  <property name="kdenlive:original.meta.media.colorspace">709</property>
  <property name="kdenlive:original.meta.media.color_trc">2</property>
  <property name="kdenlive:original.meta.media.width">3840</property>
  <property name="kdenlive:original.meta.media.height">2160</property>
  <property name="kdenlive:original.meta.media.color_range">mpeg</property>
  <property name="kdenlive:original.meta.media.top_field_first">0</property>
  <property name="kdenlive:original.meta.media.progressive">1</property>
  <property name="kdenlive:original.backup">1</property>
  <property name="xml">was here</property>
  <property name="meta.media.nb_streams">1</property>
  <property name="meta.media.0.stream.type">video</property>
  <property name="meta.media.0.stream.frame_rate">60</property>
  <property name="meta.media.0.stream.sample_aspect_ratio">0</property>
  <property name="meta.media.0.codec.width">640</property>
  <property name="meta.media.0.codec.height">360</property>
  <property name="meta.media.0.codec.rotate">0</property>
  <property name="meta.media.0.codec.frame_rate">60</property>
  <property name="meta.media.0.codec.pix_fmt">yuv420p</property>
  <property name="meta.media.0.codec.sample_aspect_ratio">0</property>
  <property name="meta.media.0.codec.colorspace">601</property>
  <property name="meta.media.0.codec.name">h264</property>
  <property name="meta.media.0.codec.long_name">H.264 / AVC / MPEG-4 AVC / MPEG-4 part 10</property>
  <property name="meta.media.0.codec.bit_rate">0</property>
  <property name="meta.attr.0.stream.HANDLER_NAME.markup">VideoHandler</property>
  <property name="meta.attr.0.stream.VENDOR_ID.markup">[0][0][0][0]</property>
  <property name="meta.attr.0.stream.ENCODER.markup">Lavc58.134.100 libx264</property>
  <property name="meta.attr.0.stream.DURATION.markup">00:00:01.000000000</property>
  <property name="meta.attr.COMMENT.markup">Rendered with Manim Community v0.6.0</property>
  <property name="meta.attr.MAJOR_BRAND.markup">isom</property>
  <property name="meta.attr.MINOR_VERSION.markup">512</property>
  <property name="meta.attr.COMPATIBLE_BRANDS.markup">isomiso2avc1mp41</property>
  <property name="meta.attr.ENCODER.markup">Lavf58.76.100</property>
  <property name="meta.media.sample_aspect_num">1</property>
  <property name="meta.media.sample_aspect_den">1</property>
  <property name="meta.media.frame_rate_num">60</property>
  <property name="meta.media.frame_rate_den">1</property>
  <property name="meta.media.colorspace">601</property>
  <property name="meta.media.color_trc">2</property>
  <property name="meta.media.width">640</property>
  <property name="meta.media.height">360</property>
  <property name="meta.media.color_range">mpeg</property>
  <property name="meta.media.top_field_first">0</property>
  <property name="meta.media.progressive">1</property>
  <property name="set.test_audio">1</property>
  <property name="set.test_image">0</property>
 </producer>
 <producer id="producer609" in="00:00:00.000" out="00:00:00.983">
  <property name="length">60</property>
  <property name="eof">pause</property>
  <property name="resource">/home/xiaoxiae/.cache/kdenlive/proxy/27b2b082d7d657359b2a018f04c0eda2.mkv</property>
  <property name="audio_index">-1</property>
  <property name="video_index">0</property>
  <property name="mute_on_pause">0</property>
  <property name="mlt_service">avformat-novalidate</property>
  <property name="seekable">1</property>
  <property name="aspect_ratio">1</property>
  <property name="kdenlive:clipname">13.mp4</property>
  <property name="kdenlive:folderid">31</property>
  <property name="kdenlive:id">40</property>
  <property name="kdenlive:file_size">204994</property>
  <property name="kdenlive:file_hash">27b2b082d7d657359b2a018f04c0eda2</property>
  <property name="kdenlive:proxy">/home/xiaoxiae/.cache/kdenlive/proxy/27b2b082d7d657359b2a018f04c0eda2.mkv</property>
  <property name="kdenlive:originalurl">video/CliqueAndIndependentSet/13.mp4</property>
  <property name="global_feed">1</property>
  <property name="kdenlive:original.mlt_type">producer</property>
  <property name="kdenlive:original.in">0</property>
  <property name="kdenlive:original.out">59</property>
  <property name="kdenlive:original.length">60</property>
  <property name="kdenlive:original.eof">pause</property>
  <property name="kdenlive:original.resource">video/CliqueAndIndependentSet/13.mp4</property>
  <property name="kdenlive:original.meta.media.nb_streams">1</property>
  <property name="kdenlive:original.meta.media.0.stream.type">video</property>
  <property name="kdenlive:original.meta.media.0.stream.frame_rate">60</property>
  <property name="kdenlive:original.meta.media.0.stream.sample_aspect_ratio">0</property>
  <property name="kdenlive:original.meta.media.0.codec.width">3840</property>
  <property name="kdenlive:original.meta.media.0.codec.height">2160</property>
  <property name="kdenlive:original.meta.media.0.codec.rotate">0</property>
  <property name="kdenlive:original.meta.media.0.codec.frame_rate">60</property>
  <property name="kdenlive:original.meta.media.0.codec.pix_fmt">yuv420p</property>
  <property name="kdenlive:original.meta.media.0.codec.sample_aspect_ratio">0</property>
  <property name="kdenlive:original.meta.media.0.codec.colorspace">709</property>
  <property name="kdenlive:original.meta.media.0.codec.name">h264</property>
  <property name="kdenlive:original.meta.media.0.codec.long_name">H.264 / AVC / MPEG-4 AVC / MPEG-4 part 10</property>
  <property name="kdenlive:original.meta.media.0.codec.bit_rate">1626904</property>
  <property name="kdenlive:original.meta.attr.0.stream.handler_name.markup">VideoHandler</property>
  <property name="kdenlive:original.meta.attr.0.stream.vendor_id.markup">[0][0][0][0]</property>
  <property name="kdenlive:original.meta.attr.major_brand.markup">isom</property>
  <property name="kdenlive:original.meta.attr.minor_version.markup">512</property>
  <property name="kdenlive:original.meta.attr.compatible_brands.markup">isomiso2avc1mp41</property>
  <property name="kdenlive:original.meta.attr.encoder.markup">Lavf58.76.100</property>
  <property name="kdenlive:original.meta.attr.comment.markup">Rendered with Manim Community v0.6.0</property>
  <property name="kdenlive:original.seekable">1</property>
  <property name="kdenlive:original.width">3840</property>
  <property name="kdenlive:original.height">2160</property>
  <property name="kdenlive:original.meta.media.sample_aspect_num">1</property>
  <property name="kdenlive:original.meta.media.sample_aspect_den">1</property>
  <property name="kdenlive:original.aspect_ratio">1</property>
  <property name="kdenlive:original.audio_index">-1</property>
  <property name="kdenlive:original.video_index">0</property>
  <property name="kdenlive:original.mute_on_pause">1</property>
  <property name="kdenlive:original.mlt_service">avformat</property>
  <property name="kdenlive:original.meta.media.frame_rate_num">60</property>
  <property name="kdenlive:original.meta.media.frame_rate_den">1</property>
  <property name="kdenlive:original.meta.media.colorspace">709</property>
  <property name="kdenlive:original.meta.media.color_trc">2</property>
  <property name="kdenlive:original.meta.media.width">3840</property>
  <property name="kdenlive:original.meta.media.height">2160</property>
  <property name="kdenlive:original.meta.media.color_range">mpeg</property>
  <property name="kdenlive:original.meta.media.top_field_first">0</property>
  <property name="kdenlive:original.meta.media.progressive">1</property>
  <property name="kdenlive:original.backup">1</property>
  <property name="xml">was here</property>
  <property name="meta.media.nb_streams">1</property>
  <property name="meta.media.0.stream.type">video</property>
  <property name="meta.media.0.stream.frame_rate">60</property>
  <property name="meta.media.0.stream.sample_aspect_ratio">0</property>
  <property name="meta.media.0.codec.width">640</property>
  <property name="meta.media.0.codec.height">360</property>
  <property name="meta.media.0.codec.rotate">0</property>
  <property name="meta.media.0.codec.frame_rate">60</property>
  <property name="meta.media.0.codec.pix_fmt">yuv420p</property>
  <property name="meta.media.0.codec.sample_aspect_ratio">0</property>
  <property name="meta.media.0.codec.colorspace">601</property>
  <property name="meta.media.0.codec.name">h264</property>
  <property name="meta.media.0.codec.long_name">H.264 / AVC / MPEG-4 AVC / MPEG-4 part 10</property>
  <property name="meta.media.0.codec.bit_rate">0</property>
  <property name="meta.attr.0.stream.HANDLER_NAME.markup">VideoHandler</property>
  <property name="meta.attr.0.stream.VENDOR_ID.markup">[0][0][0][0]</property>
  <property name="meta.attr.0.stream.ENCODER.markup">Lavc58.134.100 libx264</property>
  <property name="meta.attr.0.stream.DURATION.markup">00:00:01.000000000</property>
  <property name="meta.attr.COMMENT.markup">Rendered with Manim Community v0.6.0</property>
  <property name="meta.attr.MAJOR_BRAND.markup">isom</property>
  <property name="meta.attr.MINOR_VERSION.markup">512</property>
  <property name="meta.attr.COMPATIBLE_BRANDS.markup">isomiso2avc1mp41</property>
  <property name="meta.attr.ENCODER.markup">Lavf58.76.100</property>
  <property name="meta.media.sample_aspect_num">1</property>
  <property name="meta.media.sample_aspect_den">1</property>
  <property name="meta.media.frame_rate_num">60</property>
  <property name="meta.media.frame_rate_den">1</property>
  <property name="meta.media.colorspace">601</property>
  <property name="meta.media.color_trc">2</property>
  <property name="meta.media.width">640</property>
  <property name="meta.media.height">360</property>
  <property name="meta.media.color_range">mpeg</property>
  <property name="meta.media.top_field_first">0</property>
  <property name="meta.media.progressive">1</property>
  <property name="set.test_audio">1</property>
  <property name="set.test_image">0</property>
 </producer>
 <producer id="producer610" in="00:00:00.000" out="00:00:00.983">
  <property name="length">60</property>
  <property name="eof">pause</property>
  <property name="resource">/home/xiaoxiae/.cache/kdenlive/proxy/d9f50293c8c40ba804559356f4b8727f.mkv</property>
  <property name="audio_index">-1</property>
  <property name="video_index">0</property>
  <property name="mute_on_pause">0</property>
  <property name="mlt_service">avformat-novalidate</property>
  <property name="seekable">1</property>
  <property name="aspect_ratio">1</property>
  <property name="kdenlive:clipname">14.mp4</property>
  <property name="kdenlive:folderid">31</property>
  <property name="kdenlive:id">42</property>
  <property name="kdenlive:file_size">189664</property>
  <property name="kdenlive:file_hash">d9f50293c8c40ba804559356f4b8727f</property>
  <property name="kdenlive:proxy">/home/xiaoxiae/.cache/kdenlive/proxy/d9f50293c8c40ba804559356f4b8727f.mkv</property>
  <property name="kdenlive:originalurl">video/CliqueAndIndependentSet/14.mp4</property>
  <property name="global_feed">1</property>
  <property name="kdenlive:original.mlt_type">producer</property>
  <property name="kdenlive:original.in">0</property>
  <property name="kdenlive:original.out">59</property>
  <property name="kdenlive:original.length">60</property>
  <property name="kdenlive:original.eof">pause</property>
  <property name="kdenlive:original.resource">video/CliqueAndIndependentSet/14.mp4</property>
  <property name="kdenlive:original.meta.media.nb_streams">1</property>
  <property name="kdenlive:original.meta.media.0.stream.type">video</property>
  <property name="kdenlive:original.meta.media.0.stream.frame_rate">60</property>
  <property name="kdenlive:original.meta.media.0.stream.sample_aspect_ratio">0</property>
  <property name="kdenlive:original.meta.media.0.codec.width">3840</property>
  <property name="kdenlive:original.meta.media.0.codec.height">2160</property>
  <property name="kdenlive:original.meta.media.0.codec.rotate">0</property>
  <property name="kdenlive:original.meta.media.0.codec.frame_rate">60</property>
  <property name="kdenlive:original.meta.media.0.codec.pix_fmt">yuv420p</property>
  <property name="kdenlive:original.meta.media.0.codec.sample_aspect_ratio">0</property>
  <property name="kdenlive:original.meta.media.0.codec.colorspace">709</property>
  <property name="kdenlive:original.meta.media.0.codec.name">h264</property>
  <property name="kdenlive:original.meta.media.0.codec.long_name">H.264 / AVC / MPEG-4 AVC / MPEG-4 part 10</property>
  <property name="kdenlive:original.meta.media.0.codec.bit_rate">1504392</property>
  <property name="kdenlive:original.meta.attr.0.stream.handler_name.markup">VideoHandler</property>
  <property name="kdenlive:original.meta.attr.0.stream.vendor_id.markup">[0][0][0][0]</property>
  <property name="kdenlive:original.meta.attr.major_brand.markup">isom</property>
  <property name="kdenlive:original.meta.attr.minor_version.markup">512</property>
  <property name="kdenlive:original.meta.attr.compatible_brands.markup">isomiso2avc1mp41</property>
  <property name="kdenlive:original.meta.attr.encoder.markup">Lavf58.76.100</property>
  <property name="kdenlive:original.meta.attr.comment.markup">Rendered with Manim Community v0.6.0</property>
  <property name="kdenlive:original.seekable">1</property>
  <property name="kdenlive:original.width">3840</property>
  <property name="kdenlive:original.height">2160</property>
  <property name="kdenlive:original.meta.media.sample_aspect_num">1</property>
  <property name="kdenlive:original.meta.media.sample_aspect_den">1</property>
  <property name="kdenlive:original.aspect_ratio">1</property>
  <property name="kdenlive:original.audio_index">-1</property>
  <property name="kdenlive:original.video_index">0</property>
  <property name="kdenlive:original.mute_on_pause">1</property>
  <property name="kdenlive:original.mlt_service">avformat</property>
  <property name="kdenlive:original.meta.media.frame_rate_num">60</property>
  <property name="kdenlive:original.meta.media.frame_rate_den">1</property>
  <property name="kdenlive:original.meta.media.colorspace">709</property>
  <property name="kdenlive:original.meta.media.color_trc">2</property>
  <property name="kdenlive:original.meta.media.width">3840</property>
  <property name="kdenlive:original.meta.media.height">2160</property>
  <property name="kdenlive:original.meta.media.color_range">mpeg</property>
  <property name="kdenlive:original.meta.media.top_field_first">0</property>
  <property name="kdenlive:original.meta.media.progressive">1</property>
  <property name="kdenlive:original.backup">1</property>
  <property name="xml">was here</property>
  <property name="meta.media.nb_streams">1</property>
  <property name="meta.media.0.stream.type">video</property>
  <property name="meta.media.0.stream.frame_rate">60</property>
  <property name="meta.media.0.stream.sample_aspect_ratio">0</property>
  <property name="meta.media.0.codec.width">640</property>
  <property name="meta.media.0.codec.height">360</property>
  <property name="meta.media.0.codec.rotate">0</property>
  <property name="meta.media.0.codec.frame_rate">60</property>
  <property name="meta.media.0.codec.pix_fmt">yuv420p</property>
  <property name="meta.media.0.codec.sample_aspect_ratio">0</property>
  <property name="meta.media.0.codec.colorspace">601</property>
  <property name="meta.media.0.codec.name">h264</property>
  <property name="meta.media.0.codec.long_name">H.264 / AVC / MPEG-4 AVC / MPEG-4 part 10</property>
  <property name="meta.media.0.codec.bit_rate">0</property>
  <property name="meta.attr.0.stream.HANDLER_NAME.markup">VideoHandler</property>
  <property name="meta.attr.0.stream.VENDOR_ID.markup">[0][0][0][0]</property>
  <property name="meta.attr.0.stream.ENCODER.markup">Lavc58.134.100 libx264</property>
  <property name="meta.attr.0.stream.DURATION.markup">00:00:01.000000000</property>
  <property name="meta.attr.COMMENT.markup">Rendered with Manim Community v0.6.0</property>
  <property name="meta.attr.MAJOR_BRAND.markup">isom</property>
  <property name="meta.attr.MINOR_VERSION.markup">512</property>
  <property name="meta.attr.COMPATIBLE_BRANDS.markup">isomiso2avc1mp41</property>
  <property name="meta.attr.ENCODER.markup">Lavf58.76.100</property>
  <property name="meta.media.sample_aspect_num">1</property>
  <property name="meta.media.sample_aspect_den">1</property>
  <property name="meta.media.frame_rate_num">60</property>
  <property name="meta.media.frame_rate_den">1</property>
  <property name="meta.media.colorspace">601</property>
  <property name="meta.media.color_trc">2</property>
  <property name="meta.media.width">640</property>
  <property name="meta.media.height">360</property>
  <property name="meta.media.color_range">mpeg</property>
  <property name="meta.media.top_field_first">0</property>
  <property name="meta.media.progressive">1</property>
  <property name="set.test_audio">1</property>
  <property name="set.test_image">0</property>
 </producer>
 <producer id="producer611" in="00:00:00.000" out="00:00:00.983">
  <property name="length">60</property>
  <property name="eof">pause</property>
  <property name="resource">/home/xiaoxiae/.cache/kdenlive/proxy/5ce45cb29b2281f8cd638a3779502c4e.mkv</property>
  <property name="audio_index">-1</property>
  <property name="video_index">0</property>
  <property name="mute_on_pause">0</property>
  <property name="mlt_service">avformat-novalidate</property>
  <property name="seekable">1</property>
  <property name="aspect_ratio">1</property>
  <property name="kdenlive:clipname">15.mp4</property>
  <property name="kdenlive:folderid">31</property>
  <property name="kdenlive:id">44</property>
  <property name="kdenlive:file_size">160120</property>
  <property name="kdenlive:file_hash">5ce45cb29b2281f8cd638a3779502c4e</property>
  <property name="kdenlive:proxy">/home/xiaoxiae/.cache/kdenlive/proxy/5ce45cb29b2281f8cd638a3779502c4e.mkv</property>
  <property name="kdenlive:originalurl">video/CliqueAndIndependentSet/15.mp4</property>
  <property name="global_feed">1</property>
  <property name="kdenlive:original.mlt_type">producer</property>
  <property name="kdenlive:original.in">0</property>
  <property name="kdenlive:original.out">59</property>
  <property name="kdenlive:original.length">60</property>
  <property name="kdenlive:original.eof">pause</property>
  <property name="kdenlive:original.resource">video/CliqueAndIndependentSet/15.mp4</property>
  <property name="kdenlive:original.meta.media.nb_streams">1</property>
  <property name="kdenlive:original.meta.media.0.stream.type">video</property>
  <property name="kdenlive:original.meta.media.0.stream.frame_rate">60</property>
  <property name="kdenlive:original.meta.media.0.stream.sample_aspect_ratio">0</property>
  <property name="kdenlive:original.meta.media.0.codec.width">3840</property>
  <property name="kdenlive:original.meta.media.0.codec.height">2160</property>
  <property name="kdenlive:original.meta.media.0.codec.rotate">0</property>
  <property name="kdenlive:original.meta.media.0.codec.frame_rate">60</property>
  <property name="kdenlive:original.meta.media.0.codec.pix_fmt">yuv420p</property>
  <property name="kdenlive:original.meta.media.0.codec.sample_aspect_ratio">0</property>
  <property name="kdenlive:original.meta.media.0.codec.colorspace">709</property>
  <property name="kdenlive:original.meta.media.0.codec.name">h264</property>
  <property name="kdenlive:original.meta.media.0.codec.long_name">H.264 / AVC / MPEG-4 AVC / MPEG-4 part 10</property>
  <property name="kdenlive:original.meta.media.0.codec.bit_rate">1267912</property>
  <property name="kdenlive:original.meta.attr.0.stream.handler_name.markup">VideoHandler</property>
  <property name="kdenlive:original.meta.attr.0.stream.vendor_id.markup">[0][0][0][0]</property>
  <property name="kdenlive:original.meta.attr.major_brand.markup">isom</property>
  <property name="kdenlive:original.meta.attr.minor_version.markup">512</property>
  <property name="kdenlive:original.meta.attr.compatible_brands.markup">isomiso2avc1mp41</property>
  <property name="kdenlive:original.meta.attr.encoder.markup">Lavf58.76.100</property>
  <property name="kdenlive:original.meta.attr.comment.markup">Rendered with Manim Community v0.6.0</property>
  <property name="kdenlive:original.seekable">1</property>
  <property name="kdenlive:original.width">3840</property>
  <property name="kdenlive:original.height">2160</property>
  <property name="kdenlive:original.meta.media.sample_aspect_num">1</property>
  <property name="kdenlive:original.meta.media.sample_aspect_den">1</property>
  <property name="kdenlive:original.aspect_ratio">1</property>
  <property name="kdenlive:original.audio_index">-1</property>
  <property name="kdenlive:original.video_index">0</property>
  <property name="kdenlive:original.mute_on_pause">1</property>
  <property name="kdenlive:original.mlt_service">avformat</property>
  <property name="kdenlive:original.meta.media.frame_rate_num">60</property>
  <property name="kdenlive:original.meta.media.frame_rate_den">1</property>
  <property name="kdenlive:original.meta.media.colorspace">709</property>
  <property name="kdenlive:original.meta.media.color_trc">2</property>
  <property name="kdenlive:original.meta.media.width">3840</property>
  <property name="kdenlive:original.meta.media.height">2160</property>
  <property name="kdenlive:original.meta.media.color_range">mpeg</property>
  <property name="kdenlive:original.meta.media.top_field_first">0</property>
  <property name="kdenlive:original.meta.media.progressive">1</property>
  <property name="kdenlive:original.backup">1</property>
  <property name="xml">was here</property>
  <property name="meta.media.nb_streams">1</property>
  <property name="meta.media.0.stream.type">video</property>
  <property name="meta.media.0.stream.frame_rate">60</property>
  <property name="meta.media.0.stream.sample_aspect_ratio">0</property>
  <property name="meta.media.0.codec.width">640</property>
  <property name="meta.media.0.codec.height">360</property>
  <property name="meta.media.0.codec.rotate">0</property>
  <property name="meta.media.0.codec.frame_rate">60</property>
  <property name="meta.media.0.codec.pix_fmt">yuv420p</property>
  <property name="meta.media.0.codec.sample_aspect_ratio">0</property>
  <property name="meta.media.0.codec.colorspace">601</property>
  <property name="meta.media.0.codec.name">h264</property>
  <property name="meta.media.0.codec.long_name">H.264 / AVC / MPEG-4 AVC / MPEG-4 part 10</property>
  <property name="meta.media.0.codec.bit_rate">0</property>
  <property name="meta.attr.0.stream.HANDLER_NAME.markup">VideoHandler</property>
  <property name="meta.attr.0.stream.VENDOR_ID.markup">[0][0][0][0]</property>
  <property name="meta.attr.0.stream.ENCODER.markup">Lavc58.134.100 libx264</property>
  <property name="meta.attr.0.stream.DURATION.markup">00:00:01.000000000</property>
  <property name="meta.attr.COMMENT.markup">Rendered with Manim Community v0.6.0</property>
  <property name="meta.attr.MAJOR_BRAND.markup">isom</property>
  <property name="meta.attr.MINOR_VERSION.markup">512</property>
  <property name="meta.attr.COMPATIBLE_BRANDS.markup">isomiso2avc1mp41</property>
  <property name="meta.attr.ENCODER.markup">Lavf58.76.100</property>
  <property name="meta.media.sample_aspect_num">1</property>
  <property name="meta.media.sample_aspect_den">1</property>
  <property name="meta.media.frame_rate_num">60</property>
  <property name="meta.media.frame_rate_den">1</property>
  <property name="meta.media.colorspace">601</property>
  <property name="meta.media.color_trc">2</property>
  <property name="meta.media.width">640</property>
  <property name="meta.media.height">360</property>
  <property name="meta.media.color_range">mpeg</property>
  <property name="meta.media.top_field_first">0</property>
  <property name="meta.media.progressive">1</property>
  <property name="set.test_audio">1</property>
  <property name="set.test_image">0</property>
 </producer>
 <producer id="producer612" in="00:00:00.000" out="00:00:00.983">
  <property name="length">60</property>
  <property name="eof">pause</property>
  <property name="resource">/home/xiaoxiae/.cache/kdenlive/proxy/9bdaf3f603be2213adf30e7cec7dcfac.mkv</property>
  <property name="audio_index">-1</property>
  <property name="video_index">0</property>
  <property name="mute_on_pause">0</property>
  <property name="mlt_service">avformat-novalidate</property>
  <property name="seekable">1</property>
  <property name="aspect_ratio">1</property>
  <property name="kdenlive:clipname">16.mp4</property>
  <property name="kdenlive:folderid">31</property>
  <property name="kdenlive:id">46</property>
  <property name="kdenlive:file_size">186666</property>
  <property name="kdenlive:file_hash">9bdaf3f603be2213adf30e7cec7dcfac</property>
  <property name="kdenlive:proxy">/home/xiaoxiae/.cache/kdenlive/proxy/9bdaf3f603be2213adf30e7cec7dcfac.mkv</property>
  <property name="kdenlive:originalurl">video/CliqueAndIndependentSet/16.mp4</property>
  <property name="global_feed">1</property>
  <property name="kdenlive:original.mlt_type">producer</property>
  <property name="kdenlive:original.in">0</property>
  <property name="kdenlive:original.out">59</property>
  <property name="kdenlive:original.length">60</property>
  <property name="kdenlive:original.eof">pause</property>
  <property name="kdenlive:original.resource">video/CliqueAndIndependentSet/16.mp4</property>
  <property name="kdenlive:original.meta.media.nb_streams">1</property>
  <property name="kdenlive:original.meta.media.0.stream.type">video</property>
  <property name="kdenlive:original.meta.media.0.stream.frame_rate">60</property>
  <property name="kdenlive:original.meta.media.0.stream.sample_aspect_ratio">0</property>
  <property name="kdenlive:original.meta.media.0.codec.width">3840</property>
  <property name="kdenlive:original.meta.media.0.codec.height">2160</property>
  <property name="kdenlive:original.meta.media.0.codec.rotate">0</property>
  <property name="kdenlive:original.meta.media.0.codec.frame_rate">60</property>
  <property name="kdenlive:original.meta.media.0.codec.pix_fmt">yuv420p</property>
  <property name="kdenlive:original.meta.media.0.codec.sample_aspect_ratio">0</property>
  <property name="kdenlive:original.meta.media.0.codec.colorspace">709</property>
  <property name="kdenlive:original.meta.media.0.codec.name">h264</property>
  <property name="kdenlive:original.meta.media.0.codec.long_name">H.264 / AVC / MPEG-4 AVC / MPEG-4 part 10</property>
  <property name="kdenlive:original.meta.media.0.codec.bit_rate">1480280</property>
  <property name="kdenlive:original.meta.attr.0.stream.handler_name.markup">VideoHandler</property>
  <property name="kdenlive:original.meta.attr.0.stream.vendor_id.markup">[0][0][0][0]</property>
  <property name="kdenlive:original.meta.attr.major_brand.markup">isom</property>
  <property name="kdenlive:original.meta.attr.minor_version.markup">512</property>
  <property name="kdenlive:original.meta.attr.compatible_brands.markup">isomiso2avc1mp41</property>
  <property name="kdenlive:original.meta.attr.encoder.markup">Lavf58.76.100</property>
  <property name="kdenlive:original.meta.attr.comment.markup">Rendered with Manim Community v0.6.0</property>
  <property name="kdenlive:original.seekable">1</property>
  <property name="kdenlive:original.width">3840</property>
  <property name="kdenlive:original.height">2160</property>
  <property name="kdenlive:original.meta.media.sample_aspect_num">1</property>
  <property name="kdenlive:original.meta.media.sample_aspect_den">1</property>
  <property name="kdenlive:original.aspect_ratio">1</property>
  <property name="kdenlive:original.audio_index">-1</property>
  <property name="kdenlive:original.video_index">0</property>
  <property name="kdenlive:original.mute_on_pause">1</property>
  <property name="kdenlive:original.mlt_service">avformat</property>
  <property name="kdenlive:original.meta.media.frame_rate_num">60</property>
  <property name="kdenlive:original.meta.media.frame_rate_den">1</property>
  <property name="kdenlive:original.meta.media.colorspace">709</property>
  <property name="kdenlive:original.meta.media.color_trc">2</property>
  <property name="kdenlive:original.meta.media.width">3840</property>
  <property name="kdenlive:original.meta.media.height">2160</property>
  <property name="kdenlive:original.meta.media.color_range">mpeg</property>
  <property name="kdenlive:original.meta.media.top_field_first">0</property>
  <property name="kdenlive:original.meta.media.progressive">1</property>
  <property name="kdenlive:original.backup">1</property>
  <property name="xml">was here</property>
  <property name="meta.media.nb_streams">1</property>
  <property name="meta.media.0.stream.type">video</property>
  <property name="meta.media.0.stream.frame_rate">60</property>
  <property name="meta.media.0.stream.sample_aspect_ratio">0</property>
  <property name="meta.media.0.codec.width">640</property>
  <property name="meta.media.0.codec.height">360</property>
  <property name="meta.media.0.codec.rotate">0</property>
  <property name="meta.media.0.codec.frame_rate">60</property>
  <property name="meta.media.0.codec.pix_fmt">yuv420p</property>
  <property name="meta.media.0.codec.sample_aspect_ratio">0</property>
  <property name="meta.media.0.codec.colorspace">601</property>
  <property name="meta.media.0.codec.name">h264</property>
  <property name="meta.media.0.codec.long_name">H.264 / AVC / MPEG-4 AVC / MPEG-4 part 10</property>
  <property name="meta.media.0.codec.bit_rate">0</property>
  <property name="meta.attr.0.stream.HANDLER_NAME.markup">VideoHandler</property>
  <property name="meta.attr.0.stream.VENDOR_ID.markup">[0][0][0][0]</property>
  <property name="meta.attr.0.stream.ENCODER.markup">Lavc58.134.100 libx264</property>
  <property name="meta.attr.0.stream.DURATION.markup">00:00:01.000000000</property>
  <property name="meta.attr.COMMENT.markup">Rendered with Manim Community v0.6.0</property>
  <property name="meta.attr.MAJOR_BRAND.markup">isom</property>
  <property name="meta.attr.MINOR_VERSION.markup">512</property>
  <property name="meta.attr.COMPATIBLE_BRANDS.markup">isomiso2avc1mp41</property>
  <property name="meta.attr.ENCODER.markup">Lavf58.76.100</property>
  <property name="meta.media.sample_aspect_num">1</property>
  <property name="meta.media.sample_aspect_den">1</property>
  <property name="meta.media.frame_rate_num">60</property>
  <property name="meta.media.frame_rate_den">1</property>
  <property name="meta.media.colorspace">601</property>
  <property name="meta.media.color_trc">2</property>
  <property name="meta.media.width">640</property>
  <property name="meta.media.height">360</property>
  <property name="meta.media.color_range">mpeg</property>
  <property name="meta.media.top_field_first">0</property>
  <property name="meta.media.progressive">1</property>
  <property name="set.test_audio">1</property>
  <property name="set.test_image">0</property>
 </producer>
 <producer id="producer613" in="00:00:00.000" out="00:00:00.983">
  <property name="length">60</property>
  <property name="eof">pause</property>
  <property name="resource">/home/xiaoxiae/.cache/kdenlive/proxy/67d22333e107a707fcfbad36e3c87a25.mkv</property>
  <property name="audio_index">-1</property>
  <property name="video_index">0</property>
  <property name="mute_on_pause">0</property>
  <property name="mlt_service">avformat-novalidate</property>
  <property name="seekable">1</property>
  <property name="aspect_ratio">1</property>
  <property name="kdenlive:clipname">17.mp4</property>
  <property name="kdenlive:folderid">31</property>
  <property name="kdenlive:id">48</property>
  <property name="kdenlive:file_size">188783</property>
  <property name="kdenlive:file_hash">67d22333e107a707fcfbad36e3c87a25</property>
  <property name="kdenlive:proxy">/home/xiaoxiae/.cache/kdenlive/proxy/67d22333e107a707fcfbad36e3c87a25.mkv</property>
  <property name="kdenlive:originalurl">video/CliqueAndIndependentSet/17.mp4</property>
  <property name="global_feed">1</property>
  <property name="kdenlive:original.mlt_type">producer</property>
  <property name="kdenlive:original.in">0</property>
  <property name="kdenlive:original.out">59</property>
  <property name="kdenlive:original.length">60</property>
  <property name="kdenlive:original.eof">pause</property>
  <property name="kdenlive:original.resource">video/CliqueAndIndependentSet/17.mp4</property>
  <property name="kdenlive:original.meta.media.nb_streams">1</property>
  <property name="kdenlive:original.meta.media.0.stream.type">video</property>
  <property name="kdenlive:original.meta.media.0.stream.frame_rate">60</property>
  <property name="kdenlive:original.meta.media.0.stream.sample_aspect_ratio">0</property>
  <property name="kdenlive:original.meta.media.0.codec.width">3840</property>
  <property name="kdenlive:original.meta.media.0.codec.height">2160</property>
  <property name="kdenlive:original.meta.media.0.codec.rotate">0</property>
  <property name="kdenlive:original.meta.media.0.codec.frame_rate">60</property>
  <property name="kdenlive:original.meta.media.0.codec.pix_fmt">yuv420p</property>
  <property name="kdenlive:original.meta.media.0.codec.sample_aspect_ratio">0</property>
  <property name="kdenlive:original.meta.media.0.codec.colorspace">709</property>
  <property name="kdenlive:original.meta.media.0.codec.name">h264</property>
  <property name="kdenlive:original.meta.media.0.codec.long_name">H.264 / AVC / MPEG-4 AVC / MPEG-4 part 10</property>
  <property name="kdenlive:original.meta.media.0.codec.bit_rate">1497216</property>
  <property name="kdenlive:original.meta.attr.0.stream.handler_name.markup">VideoHandler</property>
  <property name="kdenlive:original.meta.attr.0.stream.vendor_id.markup">[0][0][0][0]</property>
  <property name="kdenlive:original.meta.attr.major_brand.markup">isom</property>
  <property name="kdenlive:original.meta.attr.minor_version.markup">512</property>
  <property name="kdenlive:original.meta.attr.compatible_brands.markup">isomiso2avc1mp41</property>
  <property name="kdenlive:original.meta.attr.encoder.markup">Lavf58.76.100</property>
  <property name="kdenlive:original.meta.attr.comment.markup">Rendered with Manim Community v0.6.0</property>
  <property name="kdenlive:original.seekable">1</property>
  <property name="kdenlive:original.width">3840</property>
  <property name="kdenlive:original.height">2160</property>
  <property name="kdenlive:original.meta.media.sample_aspect_num">1</property>
  <property name="kdenlive:original.meta.media.sample_aspect_den">1</property>
  <property name="kdenlive:original.aspect_ratio">1</property>
  <property name="kdenlive:original.audio_index">-1</property>
  <property name="kdenlive:original.video_index">0</property>
  <property name="kdenlive:original.mute_on_pause">1</property>
  <property name="kdenlive:original.mlt_service">avformat</property>
  <property name="kdenlive:original.meta.media.frame_rate_num">60</property>
  <property name="kdenlive:original.meta.media.frame_rate_den">1</property>
  <property name="kdenlive:original.meta.media.colorspace">709</property>
  <property name="kdenlive:original.meta.media.color_trc">2</property>
  <property name="kdenlive:original.meta.media.width">3840</property>
  <property name="kdenlive:original.meta.media.height">2160</property>
  <property name="kdenlive:original.meta.media.color_range">mpeg</property>
  <property name="kdenlive:original.meta.media.top_field_first">0</property>
  <property name="kdenlive:original.meta.media.progressive">1</property>
  <property name="kdenlive:original.backup">1</property>
  <property name="xml">was here</property>
  <property name="meta.media.nb_streams">1</property>
  <property name="meta.media.0.stream.type">video</property>
  <property name="meta.media.0.stream.frame_rate">60</property>
  <property name="meta.media.0.stream.sample_aspect_ratio">0</property>
  <property name="meta.media.0.codec.width">640</property>
  <property name="meta.media.0.codec.height">360</property>
  <property name="meta.media.0.codec.rotate">0</property>
  <property name="meta.media.0.codec.frame_rate">60</property>
  <property name="meta.media.0.codec.pix_fmt">yuv420p</property>
  <property name="meta.media.0.codec.sample_aspect_ratio">0</property>
  <property name="meta.media.0.codec.colorspace">601</property>
  <property name="meta.media.0.codec.name">h264</property>
  <property name="meta.media.0.codec.long_name">H.264 / AVC / MPEG-4 AVC / MPEG-4 part 10</property>
  <property name="meta.media.0.codec.bit_rate">0</property>
  <property name="meta.attr.0.stream.HANDLER_NAME.markup">VideoHandler</property>
  <property name="meta.attr.0.stream.VENDOR_ID.markup">[0][0][0][0]</property>
  <property name="meta.attr.0.stream.ENCODER.markup">Lavc58.134.100 libx264</property>
  <property name="meta.attr.0.stream.DURATION.markup">00:00:01.000000000</property>
  <property name="meta.attr.COMMENT.markup">Rendered with Manim Community v0.6.0</property>
  <property name="meta.attr.MAJOR_BRAND.markup">isom</property>
  <property name="meta.attr.MINOR_VERSION.markup">512</property>
  <property name="meta.attr.COMPATIBLE_BRANDS.markup">isomiso2avc1mp41</property>
  <property name="meta.attr.ENCODER.markup">Lavf58.76.100</property>
  <property name="meta.media.sample_aspect_num">1</property>
  <property name="meta.media.sample_aspect_den">1</property>
  <property name="meta.media.frame_rate_num">60</property>
  <property name="meta.media.frame_rate_den">1</property>
  <property name="meta.media.colorspace">601</property>
  <property name="meta.media.color_trc">2</property>
  <property name="meta.media.width">640</property>
  <property name="meta.media.height">360</property>
  <property name="meta.media.color_range">mpeg</property>
  <property name="meta.media.top_field_first">0</property>
  <property name="meta.media.progressive">1</property>
  <property name="set.test_audio">1</property>
  <property name="set.test_image">0</property>
 </producer>
 <producer id="producer614" in="00:00:00.000" out="00:00:00.983">
  <property name="length">60</property>
  <property name="eof">pause</property>
  <property name="resource">/home/xiaoxiae/.cache/kdenlive/proxy/9f696406d2417a2f41d28d07034362d6.mkv</property>
  <property name="audio_index">-1</property>
  <property name="video_index">0</property>
  <property name="mute_on_pause">0</property>
  <property name="mlt_service">avformat-novalidate</property>
  <property name="seekable">1</property>
  <property name="aspect_ratio">1</property>
  <property name="kdenlive:clipname">18.mp4</property>
  <property name="kdenlive:folderid">31</property>
  <property name="kdenlive:id">50</property>
  <property name="kdenlive:file_size">162252</property>
  <property name="kdenlive:file_hash">9f696406d2417a2f41d28d07034362d6</property>
  <property name="kdenlive:proxy">/home/xiaoxiae/.cache/kdenlive/proxy/9f696406d2417a2f41d28d07034362d6.mkv</property>
  <property name="kdenlive:originalurl">video/CliqueAndIndependentSet/18.mp4</property>
  <property name="global_feed">1</property>
  <property name="kdenlive:original.mlt_type">producer</property>
  <property name="kdenlive:original.in">0</property>
  <property name="kdenlive:original.out">59</property>
  <property name="kdenlive:original.length">60</property>
  <property name="kdenlive:original.eof">pause</property>
  <property name="kdenlive:original.resource">video/CliqueAndIndependentSet/18.mp4</property>
  <property name="kdenlive:original.meta.media.nb_streams">1</property>
  <property name="kdenlive:original.meta.media.0.stream.type">video</property>
  <property name="kdenlive:original.meta.media.0.stream.frame_rate">60</property>
  <property name="kdenlive:original.meta.media.0.stream.sample_aspect_ratio">0</property>
  <property name="kdenlive:original.meta.media.0.codec.width">3840</property>
  <property name="kdenlive:original.meta.media.0.codec.height">2160</property>
  <property name="kdenlive:original.meta.media.0.codec.rotate">0</property>
  <property name="kdenlive:original.meta.media.0.codec.frame_rate">60</property>
  <property name="kdenlive:original.meta.media.0.codec.pix_fmt">yuv420p</property>
  <property name="kdenlive:original.meta.media.0.codec.sample_aspect_ratio">0</property>
  <property name="kdenlive:original.meta.media.0.codec.colorspace">709</property>
  <property name="kdenlive:original.meta.media.0.codec.name">h264</property>
  <property name="kdenlive:original.meta.media.0.codec.long_name">H.264 / AVC / MPEG-4 AVC / MPEG-4 part 10</property>
  <property name="kdenlive:original.meta.media.0.codec.bit_rate">1284968</property>
  <property name="kdenlive:original.meta.attr.0.stream.handler_name.markup">VideoHandler</property>
  <property name="kdenlive:original.meta.attr.0.stream.vendor_id.markup">[0][0][0][0]</property>
  <property name="kdenlive:original.meta.attr.major_brand.markup">isom</property>
  <property name="kdenlive:original.meta.attr.minor_version.markup">512</property>
  <property name="kdenlive:original.meta.attr.compatible_brands.markup">isomiso2avc1mp41</property>
  <property name="kdenlive:original.meta.attr.encoder.markup">Lavf58.76.100</property>
  <property name="kdenlive:original.meta.attr.comment.markup">Rendered with Manim Community v0.6.0</property>
  <property name="kdenlive:original.seekable">1</property>
  <property name="kdenlive:original.width">3840</property>
  <property name="kdenlive:original.height">2160</property>
  <property name="kdenlive:original.meta.media.sample_aspect_num">1</property>
  <property name="kdenlive:original.meta.media.sample_aspect_den">1</property>
  <property name="kdenlive:original.aspect_ratio">1</property>
  <property name="kdenlive:original.audio_index">-1</property>
  <property name="kdenlive:original.video_index">0</property>
  <property name="kdenlive:original.mute_on_pause">1</property>
  <property name="kdenlive:original.mlt_service">avformat</property>
  <property name="kdenlive:original.meta.media.frame_rate_num">60</property>
  <property name="kdenlive:original.meta.media.frame_rate_den">1</property>
  <property name="kdenlive:original.meta.media.colorspace">709</property>
  <property name="kdenlive:original.meta.media.color_trc">2</property>
  <property name="kdenlive:original.meta.media.width">3840</property>
  <property name="kdenlive:original.meta.media.height">2160</property>
  <property name="kdenlive:original.meta.media.color_range">mpeg</property>
  <property name="kdenlive:original.meta.media.top_field_first">0</property>
  <property name="kdenlive:original.meta.media.progressive">1</property>
  <property name="kdenlive:original.backup">1</property>
  <property name="xml">was here</property>
  <property name="meta.media.nb_streams">1</property>
  <property name="meta.media.0.stream.type">video</property>
  <property name="meta.media.0.stream.frame_rate">60</property>
  <property name="meta.media.0.stream.sample_aspect_ratio">0</property>
  <property name="meta.media.0.codec.width">640</property>
  <property name="meta.media.0.codec.height">360</property>
  <property name="meta.media.0.codec.rotate">0</property>
  <property name="meta.media.0.codec.frame_rate">60</property>
  <property name="meta.media.0.codec.pix_fmt">yuv420p</property>
  <property name="meta.media.0.codec.sample_aspect_ratio">0</property>
  <property name="meta.media.0.codec.colorspace">601</property>
  <property name="meta.media.0.codec.name">h264</property>
  <property name="meta.media.0.codec.long_name">H.264 / AVC / MPEG-4 AVC / MPEG-4 part 10</property>
  <property name="meta.media.0.codec.bit_rate">0</property>
  <property name="meta.attr.0.stream.HANDLER_NAME.markup">VideoHandler</property>
  <property name="meta.attr.0.stream.VENDOR_ID.markup">[0][0][0][0]</property>
  <property name="meta.attr.0.stream.ENCODER.markup">Lavc58.134.100 libx264</property>
  <property name="meta.attr.0.stream.DURATION.markup">00:00:01.000000000</property>
  <property name="meta.attr.COMMENT.markup">Rendered with Manim Community v0.6.0</property>
  <property name="meta.attr.MAJOR_BRAND.markup">isom</property>
  <property name="meta.attr.MINOR_VERSION.markup">512</property>
  <property name="meta.attr.COMPATIBLE_BRANDS.markup">isomiso2avc1mp41</property>
  <property name="meta.attr.ENCODER.markup">Lavf58.76.100</property>
  <property name="meta.media.sample_aspect_num">1</property>
  <property name="meta.media.sample_aspect_den">1</property>
  <property name="meta.media.frame_rate_num">60</property>
  <property name="meta.media.frame_rate_den">1</property>
  <property name="meta.media.colorspace">601</property>
  <property name="meta.media.color_trc">2</property>
  <property name="meta.media.width">640</property>
  <property name="meta.media.height">360</property>
  <property name="meta.media.color_range">mpeg</property>
  <property name="meta.media.top_field_first">0</property>
  <property name="meta.media.progressive">1</property>
  <property name="set.test_audio">1</property>
  <property name="set.test_image">0</property>
 </producer>
 <producer id="producer615" in="00:00:00.000" out="00:00:00.983">
  <property name="length">60</property>
  <property name="eof">pause</property>
  <property name="resource">/home/xiaoxiae/.cache/kdenlive/proxy/9f6515b425d1c18d6474c00c620d6d12.mkv</property>
  <property name="audio_index">-1</property>
  <property name="video_index">0</property>
  <property name="mute_on_pause">0</property>
  <property name="mlt_service">avformat-novalidate</property>
  <property name="seekable">1</property>
  <property name="aspect_ratio">1</property>
  <property name="kdenlive:clipname">19.mp4</property>
  <property name="kdenlive:folderid">31</property>
  <property name="kdenlive:id">52</property>
  <property name="kdenlive:file_size">209604</property>
  <property name="kdenlive:file_hash">9f6515b425d1c18d6474c00c620d6d12</property>
  <property name="kdenlive:proxy">/home/xiaoxiae/.cache/kdenlive/proxy/9f6515b425d1c18d6474c00c620d6d12.mkv</property>
  <property name="kdenlive:originalurl">video/CliqueAndIndependentSet/19.mp4</property>
  <property name="global_feed">1</property>
  <property name="kdenlive:original.mlt_type">producer</property>
  <property name="kdenlive:original.in">0</property>
  <property name="kdenlive:original.out">59</property>
  <property name="kdenlive:original.length">60</property>
  <property name="kdenlive:original.eof">pause</property>
  <property name="kdenlive:original.resource">video/CliqueAndIndependentSet/19.mp4</property>
  <property name="kdenlive:original.meta.media.nb_streams">1</property>
  <property name="kdenlive:original.meta.media.0.stream.type">video</property>
  <property name="kdenlive:original.meta.media.0.stream.frame_rate">60</property>
  <property name="kdenlive:original.meta.media.0.stream.sample_aspect_ratio">0</property>
  <property name="kdenlive:original.meta.media.0.codec.width">3840</property>
  <property name="kdenlive:original.meta.media.0.codec.height">2160</property>
  <property name="kdenlive:original.meta.media.0.codec.rotate">0</property>
  <property name="kdenlive:original.meta.media.0.codec.frame_rate">60</property>
  <property name="kdenlive:original.meta.media.0.codec.pix_fmt">yuv420p</property>
  <property name="kdenlive:original.meta.media.0.codec.sample_aspect_ratio">0</property>
  <property name="kdenlive:original.meta.media.0.codec.colorspace">709</property>
  <property name="kdenlive:original.meta.media.0.codec.name">h264</property>
  <property name="kdenlive:original.meta.media.0.codec.long_name">H.264 / AVC / MPEG-4 AVC / MPEG-4 part 10</property>
  <property name="kdenlive:original.meta.media.0.codec.bit_rate">1663784</property>
  <property name="kdenlive:original.meta.attr.0.stream.handler_name.markup">VideoHandler</property>
  <property name="kdenlive:original.meta.attr.0.stream.vendor_id.markup">[0][0][0][0]</property>
  <property name="kdenlive:original.meta.attr.major_brand.markup">isom</property>
  <property name="kdenlive:original.meta.attr.minor_version.markup">512</property>
  <property name="kdenlive:original.meta.attr.compatible_brands.markup">isomiso2avc1mp41</property>
  <property name="kdenlive:original.meta.attr.encoder.markup">Lavf58.76.100</property>
  <property name="kdenlive:original.meta.attr.comment.markup">Rendered with Manim Community v0.6.0</property>
  <property name="kdenlive:original.seekable">1</property>
  <property name="kdenlive:original.width">3840</property>
  <property name="kdenlive:original.height">2160</property>
  <property name="kdenlive:original.meta.media.sample_aspect_num">1</property>
  <property name="kdenlive:original.meta.media.sample_aspect_den">1</property>
  <property name="kdenlive:original.aspect_ratio">1</property>
  <property name="kdenlive:original.audio_index">-1</property>
  <property name="kdenlive:original.video_index">0</property>
  <property name="kdenlive:original.mute_on_pause">1</property>
  <property name="kdenlive:original.mlt_service">avformat</property>
  <property name="kdenlive:original.meta.media.frame_rate_num">60</property>
  <property name="kdenlive:original.meta.media.frame_rate_den">1</property>
  <property name="kdenlive:original.meta.media.colorspace">709</property>
  <property name="kdenlive:original.meta.media.color_trc">2</property>
  <property name="kdenlive:original.meta.media.width">3840</property>
  <property name="kdenlive:original.meta.media.height">2160</property>
  <property name="kdenlive:original.meta.media.color_range">mpeg</property>
  <property name="kdenlive:original.meta.media.top_field_first">0</property>
  <property name="kdenlive:original.meta.media.progressive">1</property>
  <property name="kdenlive:original.backup">1</property>
  <property name="xml">was here</property>
  <property name="meta.media.nb_streams">1</property>
  <property name="meta.media.0.stream.type">video</property>
  <property name="meta.media.0.stream.frame_rate">60</property>
  <property name="meta.media.0.stream.sample_aspect_ratio">0</property>
  <property name="meta.media.0.codec.width">640</property>
  <property name="meta.media.0.codec.height">360</property>
  <property name="meta.media.0.codec.rotate">0</property>
  <property name="meta.media.0.codec.frame_rate">60</property>
  <property name="meta.media.0.codec.pix_fmt">yuv420p</property>
  <property name="meta.media.0.codec.sample_aspect_ratio">0</property>
  <property name="meta.media.0.codec.colorspace">601</property>
  <property name="meta.media.0.codec.name">h264</property>
  <property name="meta.media.0.codec.long_name">H.264 / AVC / MPEG-4 AVC / MPEG-4 part 10</property>
  <property name="meta.media.0.codec.bit_rate">0</property>
  <property name="meta.attr.0.stream.HANDLER_NAME.markup">VideoHandler</property>
  <property name="meta.attr.0.stream.VENDOR_ID.markup">[0][0][0][0]</property>
  <property name="meta.attr.0.stream.ENCODER.markup">Lavc58.134.100 libx264</property>
  <property name="meta.attr.0.stream.DURATION.markup">00:00:01.000000000</property>
  <property name="meta.attr.COMMENT.markup">Rendered with Manim Community v0.6.0</property>
  <property name="meta.attr.MAJOR_BRAND.markup">isom</property>
  <property name="meta.attr.MINOR_VERSION.markup">512</property>
  <property name="meta.attr.COMPATIBLE_BRANDS.markup">isomiso2avc1mp41</property>
  <property name="meta.attr.ENCODER.markup">Lavf58.76.100</property>
  <property name="meta.media.sample_aspect_num">1</property>
  <property name="meta.media.sample_aspect_den">1</property>
  <property name="meta.media.frame_rate_num">60</property>
  <property name="meta.media.frame_rate_den">1</property>
  <property name="meta.media.colorspace">601</property>
  <property name="meta.media.color_trc">2</property>
  <property name="meta.media.width">640</property>
  <property name="meta.media.height">360</property>
  <property name="meta.media.color_range">mpeg</property>
  <property name="meta.media.top_field_first">0</property>
  <property name="meta.media.progressive">1</property>
  <property name="set.test_audio">1</property>
  <property name="set.test_image">0</property>
 </producer>
 <producer id="producer616" in="00:00:00.000" out="00:00:00.983">
  <property name="length">60</property>
  <property name="eof">pause</property>
  <property name="resource">/home/xiaoxiae/.cache/kdenlive/proxy/2fff060f6e2fa5ce31103d5fae9fbd0e.mkv</property>
  <property name="audio_index">-1</property>
  <property name="video_index">0</property>
  <property name="mute_on_pause">0</property>
  <property name="mlt_service">avformat-novalidate</property>
  <property name="seekable">1</property>
  <property name="aspect_ratio">1</property>
  <property name="kdenlive:clipname">20.mp4</property>
  <property name="kdenlive:folderid">31</property>
  <property name="kdenlive:id">56</property>
  <property name="kdenlive:file_size">148321</property>
  <property name="kdenlive:file_hash">2fff060f6e2fa5ce31103d5fae9fbd0e</property>
  <property name="kdenlive:proxy">/home/xiaoxiae/.cache/kdenlive/proxy/2fff060f6e2fa5ce31103d5fae9fbd0e.mkv</property>
  <property name="kdenlive:originalurl">video/CliqueAndIndependentSet/20.mp4</property>
  <property name="global_feed">1</property>
  <property name="kdenlive:original.mlt_type">producer</property>
  <property name="kdenlive:original.in">0</property>
  <property name="kdenlive:original.out">59</property>
  <property name="kdenlive:original.length">60</property>
  <property name="kdenlive:original.eof">pause</property>
  <property name="kdenlive:original.resource">video/CliqueAndIndependentSet/20.mp4</property>
  <property name="kdenlive:original.meta.media.nb_streams">1</property>
  <property name="kdenlive:original.meta.media.0.stream.type">video</property>
  <property name="kdenlive:original.meta.media.0.stream.frame_rate">60</property>
  <property name="kdenlive:original.meta.media.0.stream.sample_aspect_ratio">0</property>
  <property name="kdenlive:original.meta.media.0.codec.width">3840</property>
  <property name="kdenlive:original.meta.media.0.codec.height">2160</property>
  <property name="kdenlive:original.meta.media.0.codec.rotate">0</property>
  <property name="kdenlive:original.meta.media.0.codec.frame_rate">60</property>
  <property name="kdenlive:original.meta.media.0.codec.pix_fmt">yuv420p</property>
  <property name="kdenlive:original.meta.media.0.codec.sample_aspect_ratio">0</property>
  <property name="kdenlive:original.meta.media.0.codec.colorspace">709</property>
  <property name="kdenlive:original.meta.media.0.codec.name">h264</property>
  <property name="kdenlive:original.meta.media.0.codec.long_name">H.264 / AVC / MPEG-4 AVC / MPEG-4 part 10</property>
  <property name="kdenlive:original.meta.media.0.codec.bit_rate">1173648</property>
  <property name="kdenlive:original.meta.attr.0.stream.handler_name.markup">VideoHandler</property>
  <property name="kdenlive:original.meta.attr.0.stream.vendor_id.markup">[0][0][0][0]</property>
  <property name="kdenlive:original.meta.attr.major_brand.markup">isom</property>
  <property name="kdenlive:original.meta.attr.minor_version.markup">512</property>
  <property name="kdenlive:original.meta.attr.compatible_brands.markup">isomiso2avc1mp41</property>
  <property name="kdenlive:original.meta.attr.encoder.markup">Lavf58.76.100</property>
  <property name="kdenlive:original.meta.attr.comment.markup">Rendered with Manim Community v0.6.0</property>
  <property name="kdenlive:original.seekable">1</property>
  <property name="kdenlive:original.width">3840</property>
  <property name="kdenlive:original.height">2160</property>
  <property name="kdenlive:original.meta.media.sample_aspect_num">1</property>
  <property name="kdenlive:original.meta.media.sample_aspect_den">1</property>
  <property name="kdenlive:original.aspect_ratio">1</property>
  <property name="kdenlive:original.audio_index">-1</property>
  <property name="kdenlive:original.video_index">0</property>
  <property name="kdenlive:original.mute_on_pause">1</property>
  <property name="kdenlive:original.mlt_service">avformat</property>
  <property name="kdenlive:original.meta.media.frame_rate_num">60</property>
  <property name="kdenlive:original.meta.media.frame_rate_den">1</property>
  <property name="kdenlive:original.meta.media.colorspace">709</property>
  <property name="kdenlive:original.meta.media.color_trc">2</property>
  <property name="kdenlive:original.meta.media.width">3840</property>
  <property name="kdenlive:original.meta.media.height">2160</property>
  <property name="kdenlive:original.meta.media.color_range">mpeg</property>
  <property name="kdenlive:original.meta.media.top_field_first">0</property>
  <property name="kdenlive:original.meta.media.progressive">1</property>
  <property name="kdenlive:original.backup">1</property>
  <property name="xml">was here</property>
  <property name="meta.media.nb_streams">1</property>
  <property name="meta.media.0.stream.type">video</property>
  <property name="meta.media.0.stream.frame_rate">60</property>
  <property name="meta.media.0.stream.sample_aspect_ratio">0</property>
  <property name="meta.media.0.codec.width">640</property>
  <property name="meta.media.0.codec.height">360</property>
  <property name="meta.media.0.codec.rotate">0</property>
  <property name="meta.media.0.codec.frame_rate">60</property>
  <property name="meta.media.0.codec.pix_fmt">yuv420p</property>
  <property name="meta.media.0.codec.sample_aspect_ratio">0</property>
  <property name="meta.media.0.codec.colorspace">601</property>
  <property name="meta.media.0.codec.name">h264</property>
  <property name="meta.media.0.codec.long_name">H.264 / AVC / MPEG-4 AVC / MPEG-4 part 10</property>
  <property name="meta.media.0.codec.bit_rate">0</property>
  <property name="meta.attr.0.stream.HANDLER_NAME.markup">VideoHandler</property>
  <property name="meta.attr.0.stream.VENDOR_ID.markup">[0][0][0][0]</property>
  <property name="meta.attr.0.stream.ENCODER.markup">Lavc58.134.100 libx264</property>
  <property name="meta.attr.0.stream.DURATION.markup">00:00:01.000000000</property>
  <property name="meta.attr.COMMENT.markup">Rendered with Manim Community v0.6.0</property>
  <property name="meta.attr.MAJOR_BRAND.markup">isom</property>
  <property name="meta.attr.MINOR_VERSION.markup">512</property>
  <property name="meta.attr.COMPATIBLE_BRANDS.markup">isomiso2avc1mp41</property>
  <property name="meta.attr.ENCODER.markup">Lavf58.76.100</property>
  <property name="meta.media.sample_aspect_num">1</property>
  <property name="meta.media.sample_aspect_den">1</property>
  <property name="meta.media.frame_rate_num">60</property>
  <property name="meta.media.frame_rate_den">1</property>
  <property name="meta.media.colorspace">601</property>
  <property name="meta.media.color_trc">2</property>
  <property name="meta.media.width">640</property>
  <property name="meta.media.height">360</property>
  <property name="meta.media.color_range">mpeg</property>
  <property name="meta.media.top_field_first">0</property>
  <property name="meta.media.progressive">1</property>
  <property name="set.test_audio">1</property>
  <property name="set.test_image">0</property>
 </producer>
 <producer id="producer617" in="00:00:00.000" out="00:00:01.983">
  <property name="length">120</property>
  <property name="eof">pause</property>
  <property name="resource">/home/xiaoxiae/.cache/kdenlive/proxy/0eb332a181c8efb429c5f3f15d6010b8.mkv</property>
  <property name="audio_index">-1</property>
  <property name="video_index">0</property>
  <property name="mute_on_pause">0</property>
  <property name="mlt_service">avformat-novalidate</property>
  <property name="seekable">1</property>
  <property name="aspect_ratio">1</property>
  <property name="kdenlive:clipname">21.mp4</property>
  <property name="kdenlive:folderid">31</property>
  <property name="kdenlive:id">58</property>
  <property name="kdenlive:file_size">175894</property>
  <property name="kdenlive:file_hash">0eb332a181c8efb429c5f3f15d6010b8</property>
  <property name="kdenlive:proxy">/home/xiaoxiae/.cache/kdenlive/proxy/0eb332a181c8efb429c5f3f15d6010b8.mkv</property>
  <property name="kdenlive:originalurl">video/CliqueAndIndependentSet/21.mp4</property>
  <property name="global_feed">1</property>
  <property name="kdenlive:original.mlt_type">producer</property>
  <property name="kdenlive:original.in">0</property>
  <property name="kdenlive:original.out">119</property>
  <property name="kdenlive:original.length">120</property>
  <property name="kdenlive:original.eof">pause</property>
  <property name="kdenlive:original.resource">video/CliqueAndIndependentSet/21.mp4</property>
  <property name="kdenlive:original.meta.media.nb_streams">1</property>
  <property name="kdenlive:original.meta.media.0.stream.type">video</property>
  <property name="kdenlive:original.meta.media.0.stream.frame_rate">60</property>
  <property name="kdenlive:original.meta.media.0.stream.sample_aspect_ratio">0</property>
  <property name="kdenlive:original.meta.media.0.codec.width">3840</property>
  <property name="kdenlive:original.meta.media.0.codec.height">2160</property>
  <property name="kdenlive:original.meta.media.0.codec.rotate">0</property>
  <property name="kdenlive:original.meta.media.0.codec.frame_rate">60</property>
  <property name="kdenlive:original.meta.media.0.codec.pix_fmt">yuv420p</property>
  <property name="kdenlive:original.meta.media.0.codec.sample_aspect_ratio">0</property>
  <property name="kdenlive:original.meta.media.0.codec.colorspace">709</property>
  <property name="kdenlive:original.meta.media.0.codec.name">h264</property>
  <property name="kdenlive:original.meta.media.0.codec.long_name">H.264 / AVC / MPEG-4 AVC / MPEG-4 part 10</property>
  <property name="kdenlive:original.meta.media.0.codec.bit_rate">694268</property>
  <property name="kdenlive:original.meta.attr.0.stream.handler_name.markup">VideoHandler</property>
  <property name="kdenlive:original.meta.attr.0.stream.vendor_id.markup">[0][0][0][0]</property>
  <property name="kdenlive:original.meta.attr.major_brand.markup">isom</property>
  <property name="kdenlive:original.meta.attr.minor_version.markup">512</property>
  <property name="kdenlive:original.meta.attr.compatible_brands.markup">isomiso2avc1mp41</property>
  <property name="kdenlive:original.meta.attr.encoder.markup">Lavf58.76.100</property>
  <property name="kdenlive:original.meta.attr.comment.markup">Rendered with Manim Community v0.6.0</property>
  <property name="kdenlive:original.seekable">1</property>
  <property name="kdenlive:original.width">3840</property>
  <property name="kdenlive:original.height">2160</property>
  <property name="kdenlive:original.meta.media.sample_aspect_num">1</property>
  <property name="kdenlive:original.meta.media.sample_aspect_den">1</property>
  <property name="kdenlive:original.aspect_ratio">1</property>
  <property name="kdenlive:original.audio_index">-1</property>
  <property name="kdenlive:original.video_index">0</property>
  <property name="kdenlive:original.mute_on_pause">1</property>
  <property name="kdenlive:original.mlt_service">avformat</property>
  <property name="kdenlive:original.meta.media.frame_rate_num">60</property>
  <property name="kdenlive:original.meta.media.frame_rate_den">1</property>
  <property name="kdenlive:original.meta.media.colorspace">709</property>
  <property name="kdenlive:original.meta.media.color_trc">2</property>
  <property name="kdenlive:original.meta.media.width">3840</property>
  <property name="kdenlive:original.meta.media.height">2160</property>
  <property name="kdenlive:original.meta.media.color_range">mpeg</property>
  <property name="kdenlive:original.meta.media.top_field_first">0</property>
  <property name="kdenlive:original.meta.media.progressive">1</property>
  <property name="kdenlive:original.backup">1</property>
  <property name="xml">was here</property>
  <property name="meta.media.nb_streams">1</property>
  <property name="meta.media.0.stream.type">video</property>
  <property name="meta.media.0.stream.frame_rate">60</property>
  <property name="meta.media.0.stream.sample_aspect_ratio">0</property>
  <property name="meta.media.0.codec.width">640</property>
  <property name="meta.media.0.codec.height">360</property>
  <property name="meta.media.0.codec.rotate">0</property>
  <property name="meta.media.0.codec.frame_rate">60</property>
  <property name="meta.media.0.codec.pix_fmt">yuv420p</property>
  <property name="meta.media.0.codec.sample_aspect_ratio">0</property>
  <property name="meta.media.0.codec.colorspace">601</property>
  <property name="meta.media.0.codec.name">h264</property>
  <property name="meta.media.0.codec.long_name">H.264 / AVC / MPEG-4 AVC / MPEG-4 part 10</property>
  <property name="meta.media.0.codec.bit_rate">0</property>
  <property name="meta.attr.0.stream.HANDLER_NAME.markup">VideoHandler</property>
  <property name="meta.attr.0.stream.VENDOR_ID.markup">[0][0][0][0]</property>
  <property name="meta.attr.0.stream.ENCODER.markup">Lavc58.134.100 libx264</property>
  <property name="meta.attr.0.stream.DURATION.markup">00:00:02.000000000</property>
  <property name="meta.attr.COMMENT.markup">Rendered with Manim Community v0.6.0</property>
  <property name="meta.attr.MAJOR_BRAND.markup">isom</property>
  <property name="meta.attr.MINOR_VERSION.markup">512</property>
  <property name="meta.attr.COMPATIBLE_BRANDS.markup">isomiso2avc1mp41</property>
  <property name="meta.attr.ENCODER.markup">Lavf58.76.100</property>
  <property name="meta.media.sample_aspect_num">1</property>
  <property name="meta.media.sample_aspect_den">1</property>
  <property name="meta.media.frame_rate_num">60</property>
  <property name="meta.media.frame_rate_den">1</property>
  <property name="meta.media.colorspace">601</property>
  <property name="meta.media.color_trc">2</property>
  <property name="meta.media.width">640</property>
  <property name="meta.media.height">360</property>
  <property name="meta.media.color_range">mpeg</property>
  <property name="meta.media.top_field_first">0</property>
  <property name="meta.media.progressive">1</property>
  <property name="set.test_audio">1</property>
  <property name="set.test_image">0</property>
 </producer>
 <producer id="producer618" in="00:00:00.000" out="00:00:00.983">
  <property name="length">60</property>
  <property name="eof">pause</property>
  <property name="resource">/home/xiaoxiae/.cache/kdenlive/proxy/c421f17e5680b7a9f34333226b463bf9.mkv</property>
  <property name="audio_index">-1</property>
  <property name="video_index">0</property>
  <property name="mute_on_pause">0</property>
  <property name="mlt_service">avformat-novalidate</property>
  <property name="seekable">1</property>
  <property name="aspect_ratio">1</property>
  <property name="kdenlive:clipname">22.mp4</property>
  <property name="kdenlive:folderid">31</property>
  <property name="kdenlive:id">60</property>
  <property name="kdenlive:file_size">95351</property>
  <property name="kdenlive:file_hash">c421f17e5680b7a9f34333226b463bf9</property>
  <property name="kdenlive:proxy">/home/xiaoxiae/.cache/kdenlive/proxy/c421f17e5680b7a9f34333226b463bf9.mkv</property>
  <property name="kdenlive:originalurl">video/CliqueAndIndependentSet/22.mp4</property>
  <property name="global_feed">1</property>
  <property name="kdenlive:original.mlt_type">producer</property>
  <property name="kdenlive:original.in">0</property>
  <property name="kdenlive:original.out">59</property>
  <property name="kdenlive:original.length">60</property>
  <property name="kdenlive:original.eof">pause</property>
  <property name="kdenlive:original.resource">video/CliqueAndIndependentSet/22.mp4</property>
  <property name="kdenlive:original.meta.media.nb_streams">1</property>
  <property name="kdenlive:original.meta.media.0.stream.type">video</property>
  <property name="kdenlive:original.meta.media.0.stream.frame_rate">60</property>
  <property name="kdenlive:original.meta.media.0.stream.sample_aspect_ratio">0</property>
  <property name="kdenlive:original.meta.media.0.codec.width">3840</property>
  <property name="kdenlive:original.meta.media.0.codec.height">2160</property>
  <property name="kdenlive:original.meta.media.0.codec.rotate">0</property>
  <property name="kdenlive:original.meta.media.0.codec.frame_rate">60</property>
  <property name="kdenlive:original.meta.media.0.codec.pix_fmt">yuv420p</property>
  <property name="kdenlive:original.meta.media.0.codec.sample_aspect_ratio">0</property>
  <property name="kdenlive:original.meta.media.0.codec.colorspace">709</property>
  <property name="kdenlive:original.meta.media.0.codec.name">h264</property>
  <property name="kdenlive:original.meta.media.0.codec.long_name">H.264 / AVC / MPEG-4 AVC / MPEG-4 part 10</property>
  <property name="kdenlive:original.meta.media.0.codec.bit_rate">749760</property>
  <property name="kdenlive:original.meta.attr.0.stream.handler_name.markup">VideoHandler</property>
  <property name="kdenlive:original.meta.attr.0.stream.vendor_id.markup">[0][0][0][0]</property>
  <property name="kdenlive:original.meta.attr.major_brand.markup">isom</property>
  <property name="kdenlive:original.meta.attr.minor_version.markup">512</property>
  <property name="kdenlive:original.meta.attr.compatible_brands.markup">isomiso2avc1mp41</property>
  <property name="kdenlive:original.meta.attr.encoder.markup">Lavf58.76.100</property>
  <property name="kdenlive:original.meta.attr.comment.markup">Rendered with Manim Community v0.6.0</property>
  <property name="kdenlive:original.seekable">1</property>
  <property name="kdenlive:original.width">3840</property>
  <property name="kdenlive:original.height">2160</property>
  <property name="kdenlive:original.meta.media.sample_aspect_num">1</property>
  <property name="kdenlive:original.meta.media.sample_aspect_den">1</property>
  <property name="kdenlive:original.aspect_ratio">1</property>
  <property name="kdenlive:original.audio_index">-1</property>
  <property name="kdenlive:original.video_index">0</property>
  <property name="kdenlive:original.mute_on_pause">1</property>
  <property name="kdenlive:original.mlt_service">avformat</property>
  <property name="kdenlive:original.meta.media.frame_rate_num">60</property>
  <property name="kdenlive:original.meta.media.frame_rate_den">1</property>
  <property name="kdenlive:original.meta.media.colorspace">709</property>
  <property name="kdenlive:original.meta.media.color_trc">2</property>
  <property name="kdenlive:original.meta.media.width">3840</property>
  <property name="kdenlive:original.meta.media.height">2160</property>
  <property name="kdenlive:original.meta.media.color_range">mpeg</property>
  <property name="kdenlive:original.meta.media.top_field_first">0</property>
  <property name="kdenlive:original.meta.media.progressive">1</property>
  <property name="kdenlive:original.backup">1</property>
  <property name="xml">was here</property>
  <property name="meta.media.nb_streams">1</property>
  <property name="meta.media.0.stream.type">video</property>
  <property name="meta.media.0.stream.frame_rate">60</property>
  <property name="meta.media.0.stream.sample_aspect_ratio">0</property>
  <property name="meta.media.0.codec.width">640</property>
  <property name="meta.media.0.codec.height">360</property>
  <property name="meta.media.0.codec.rotate">0</property>
  <property name="meta.media.0.codec.frame_rate">60</property>
  <property name="meta.media.0.codec.pix_fmt">yuv420p</property>
  <property name="meta.media.0.codec.sample_aspect_ratio">0</property>
  <property name="meta.media.0.codec.colorspace">601</property>
  <property name="meta.media.0.codec.name">h264</property>
  <property name="meta.media.0.codec.long_name">H.264 / AVC / MPEG-4 AVC / MPEG-4 part 10</property>
  <property name="meta.media.0.codec.bit_rate">0</property>
  <property name="meta.attr.0.stream.HANDLER_NAME.markup">VideoHandler</property>
  <property name="meta.attr.0.stream.VENDOR_ID.markup">[0][0][0][0]</property>
  <property name="meta.attr.0.stream.ENCODER.markup">Lavc58.134.100 libx264</property>
  <property name="meta.attr.0.stream.DURATION.markup">00:00:01.000000000</property>
  <property name="meta.attr.COMMENT.markup">Rendered with Manim Community v0.6.0</property>
  <property name="meta.attr.MAJOR_BRAND.markup">isom</property>
  <property name="meta.attr.MINOR_VERSION.markup">512</property>
  <property name="meta.attr.COMPATIBLE_BRANDS.markup">isomiso2avc1mp41</property>
  <property name="meta.attr.ENCODER.markup">Lavf58.76.100</property>
  <property name="meta.media.sample_aspect_num">1</property>
  <property name="meta.media.sample_aspect_den">1</property>
  <property name="meta.media.frame_rate_num">60</property>
  <property name="meta.media.frame_rate_den">1</property>
  <property name="meta.media.colorspace">601</property>
  <property name="meta.media.color_trc">2</property>
  <property name="meta.media.width">640</property>
  <property name="meta.media.height">360</property>
  <property name="meta.media.color_range">mpeg</property>
  <property name="meta.media.top_field_first">0</property>
  <property name="meta.media.progressive">1</property>
  <property name="set.test_audio">1</property>
  <property name="set.test_image">0</property>
 </producer>
 <producer id="producer619" in="00:00:00.000" out="00:00:00.983">
  <property name="length">60</property>
  <property name="eof">pause</property>
  <property name="resource">/home/xiaoxiae/.cache/kdenlive/proxy/fd30927aa476e4625739535742fcd18f.mkv</property>
  <property name="audio_index">-1</property>
  <property name="video_index">0</property>
  <property name="mute_on_pause">0</property>
  <property name="mlt_service">avformat-novalidate</property>
  <property name="seekable">1</property>
  <property name="aspect_ratio">1</property>
  <property name="kdenlive:clipname">23.mp4</property>
  <property name="kdenlive:folderid">31</property>
  <property name="kdenlive:id">62</property>
  <property name="kdenlive:file_size">395435</property>
  <property name="kdenlive:file_hash">fd30927aa476e4625739535742fcd18f</property>
  <property name="kdenlive:proxy">/home/xiaoxiae/.cache/kdenlive/proxy/fd30927aa476e4625739535742fcd18f.mkv</property>
  <property name="kdenlive:originalurl">video/CliqueAndIndependentSet/23.mp4</property>
  <property name="global_feed">1</property>
  <property name="kdenlive:original.mlt_type">producer</property>
  <property name="kdenlive:original.in">0</property>
  <property name="kdenlive:original.out">59</property>
  <property name="kdenlive:original.length">60</property>
  <property name="kdenlive:original.eof">pause</property>
  <property name="kdenlive:original.resource">video/CliqueAndIndependentSet/23.mp4</property>
  <property name="kdenlive:original.meta.media.nb_streams">1</property>
  <property name="kdenlive:original.meta.media.0.stream.type">video</property>
  <property name="kdenlive:original.meta.media.0.stream.frame_rate">60</property>
  <property name="kdenlive:original.meta.media.0.stream.sample_aspect_ratio">0</property>
  <property name="kdenlive:original.meta.media.0.codec.width">3840</property>
  <property name="kdenlive:original.meta.media.0.codec.height">2160</property>
  <property name="kdenlive:original.meta.media.0.codec.rotate">0</property>
  <property name="kdenlive:original.meta.media.0.codec.frame_rate">60</property>
  <property name="kdenlive:original.meta.media.0.codec.pix_fmt">yuv420p</property>
  <property name="kdenlive:original.meta.media.0.codec.sample_aspect_ratio">0</property>
  <property name="kdenlive:original.meta.media.0.codec.colorspace">709</property>
  <property name="kdenlive:original.meta.media.0.codec.name">h264</property>
  <property name="kdenlive:original.meta.media.0.codec.long_name">H.264 / AVC / MPEG-4 AVC / MPEG-4 part 10</property>
  <property name="kdenlive:original.meta.media.0.codec.bit_rate">3151648</property>
  <property name="kdenlive:original.meta.attr.0.stream.handler_name.markup">VideoHandler</property>
  <property name="kdenlive:original.meta.attr.0.stream.vendor_id.markup">[0][0][0][0]</property>
  <property name="kdenlive:original.meta.attr.major_brand.markup">isom</property>
  <property name="kdenlive:original.meta.attr.minor_version.markup">512</property>
  <property name="kdenlive:original.meta.attr.compatible_brands.markup">isomiso2avc1mp41</property>
  <property name="kdenlive:original.meta.attr.encoder.markup">Lavf58.76.100</property>
  <property name="kdenlive:original.meta.attr.comment.markup">Rendered with Manim Community v0.6.0</property>
  <property name="kdenlive:original.seekable">1</property>
  <property name="kdenlive:original.width">3840</property>
  <property name="kdenlive:original.height">2160</property>
  <property name="kdenlive:original.meta.media.sample_aspect_num">1</property>
  <property name="kdenlive:original.meta.media.sample_aspect_den">1</property>
  <property name="kdenlive:original.aspect_ratio">1</property>
  <property name="kdenlive:original.audio_index">-1</property>
  <property name="kdenlive:original.video_index">0</property>
  <property name="kdenlive:original.mute_on_pause">1</property>
  <property name="kdenlive:original.mlt_service">avformat</property>
  <property name="kdenlive:original.meta.media.frame_rate_num">60</property>
  <property name="kdenlive:original.meta.media.frame_rate_den">1</property>
  <property name="kdenlive:original.meta.media.colorspace">709</property>
  <property name="kdenlive:original.meta.media.color_trc">2</property>
  <property name="kdenlive:original.meta.media.width">3840</property>
  <property name="kdenlive:original.meta.media.height">2160</property>
  <property name="kdenlive:original.meta.media.color_range">mpeg</property>
  <property name="kdenlive:original.meta.media.top_field_first">0</property>
  <property name="kdenlive:original.meta.media.progressive">1</property>
  <property name="kdenlive:original.backup">1</property>
  <property name="xml">was here</property>
  <property name="meta.media.nb_streams">1</property>
  <property name="meta.media.0.stream.type">video</property>
  <property name="meta.media.0.stream.frame_rate">60</property>
  <property name="meta.media.0.stream.sample_aspect_ratio">0</property>
  <property name="meta.media.0.codec.width">640</property>
  <property name="meta.media.0.codec.height">360</property>
  <property name="meta.media.0.codec.rotate">0</property>
  <property name="meta.media.0.codec.frame_rate">60</property>
  <property name="meta.media.0.codec.pix_fmt">yuv420p</property>
  <property name="meta.media.0.codec.sample_aspect_ratio">0</property>
  <property name="meta.media.0.codec.colorspace">601</property>
  <property name="meta.media.0.codec.name">h264</property>
  <property name="meta.media.0.codec.long_name">H.264 / AVC / MPEG-4 AVC / MPEG-4 part 10</property>
  <property name="meta.media.0.codec.bit_rate">0</property>
  <property name="meta.attr.0.stream.HANDLER_NAME.markup">VideoHandler</property>
  <property name="meta.attr.0.stream.VENDOR_ID.markup">[0][0][0][0]</property>
  <property name="meta.attr.0.stream.ENCODER.markup">Lavc58.134.100 libx264</property>
  <property name="meta.attr.0.stream.DURATION.markup">00:00:01.000000000</property>
  <property name="meta.attr.COMMENT.markup">Rendered with Manim Community v0.6.0</property>
  <property name="meta.attr.MAJOR_BRAND.markup">isom</property>
  <property name="meta.attr.MINOR_VERSION.markup">512</property>
  <property name="meta.attr.COMPATIBLE_BRANDS.markup">isomiso2avc1mp41</property>
  <property name="meta.attr.ENCODER.markup">Lavf58.76.100</property>
  <property name="meta.media.sample_aspect_num">1</property>
  <property name="meta.media.sample_aspect_den">1</property>
  <property name="meta.media.frame_rate_num">60</property>
  <property name="meta.media.frame_rate_den">1</property>
  <property name="meta.media.colorspace">601</property>
  <property name="meta.media.color_trc">2</property>
  <property name="meta.media.width">640</property>
  <property name="meta.media.height">360</property>
  <property name="meta.media.color_range">mpeg</property>
  <property name="meta.media.top_field_first">0</property>
  <property name="meta.media.progressive">1</property>
  <property name="set.test_audio">1</property>
  <property name="set.test_image">0</property>
 </producer>
 <producer id="producer620" in="00:00:00.000" out="00:00:00.983">
  <property name="length">60</property>
  <property name="eof">pause</property>
  <property name="resource">/home/xiaoxiae/.cache/kdenlive/proxy/1975484fe6d60ec6e103a23600b1edbb.mkv</property>
  <property name="audio_index">-1</property>
  <property name="video_index">0</property>
  <property name="mute_on_pause">0</property>
  <property name="mlt_service">avformat-novalidate</property>
  <property name="seekable">1</property>
  <property name="aspect_ratio">1</property>
  <property name="kdenlive:clipname">24.mp4</property>
  <property name="kdenlive:folderid">31</property>
  <property name="kdenlive:id">64</property>
  <property name="kdenlive:file_size">127242</property>
  <property name="kdenlive:file_hash">1975484fe6d60ec6e103a23600b1edbb</property>
  <property name="kdenlive:proxy">/home/xiaoxiae/.cache/kdenlive/proxy/1975484fe6d60ec6e103a23600b1edbb.mkv</property>
  <property name="kdenlive:originalurl">video/CliqueAndIndependentSet/24.mp4</property>
  <property name="global_feed">1</property>
  <property name="kdenlive:original.mlt_type">producer</property>
  <property name="kdenlive:original.in">0</property>
  <property name="kdenlive:original.out">59</property>
  <property name="kdenlive:original.length">60</property>
  <property name="kdenlive:original.eof">pause</property>
  <property name="kdenlive:original.resource">video/CliqueAndIndependentSet/24.mp4</property>
  <property name="kdenlive:original.meta.media.nb_streams">1</property>
  <property name="kdenlive:original.meta.media.0.stream.type">video</property>
  <property name="kdenlive:original.meta.media.0.stream.frame_rate">60</property>
  <property name="kdenlive:original.meta.media.0.stream.sample_aspect_ratio">0</property>
  <property name="kdenlive:original.meta.media.0.codec.width">3840</property>
  <property name="kdenlive:original.meta.media.0.codec.height">2160</property>
  <property name="kdenlive:original.meta.media.0.codec.rotate">0</property>
  <property name="kdenlive:original.meta.media.0.codec.frame_rate">60</property>
  <property name="kdenlive:original.meta.media.0.codec.pix_fmt">yuv420p</property>
  <property name="kdenlive:original.meta.media.0.codec.sample_aspect_ratio">0</property>
  <property name="kdenlive:original.meta.media.0.codec.colorspace">709</property>
  <property name="kdenlive:original.meta.media.0.codec.name">h264</property>
  <property name="kdenlive:original.meta.media.0.codec.long_name">H.264 / AVC / MPEG-4 AVC / MPEG-4 part 10</property>
  <property name="kdenlive:original.meta.media.0.codec.bit_rate">1005080</property>
  <property name="kdenlive:original.meta.attr.0.stream.handler_name.markup">VideoHandler</property>
  <property name="kdenlive:original.meta.attr.0.stream.vendor_id.markup">[0][0][0][0]</property>
  <property name="kdenlive:original.meta.attr.major_brand.markup">isom</property>
  <property name="kdenlive:original.meta.attr.minor_version.markup">512</property>
  <property name="kdenlive:original.meta.attr.compatible_brands.markup">isomiso2avc1mp41</property>
  <property name="kdenlive:original.meta.attr.encoder.markup">Lavf58.76.100</property>
  <property name="kdenlive:original.meta.attr.comment.markup">Rendered with Manim Community v0.6.0</property>
  <property name="kdenlive:original.seekable">1</property>
  <property name="kdenlive:original.width">3840</property>
  <property name="kdenlive:original.height">2160</property>
  <property name="kdenlive:original.meta.media.sample_aspect_num">1</property>
  <property name="kdenlive:original.meta.media.sample_aspect_den">1</property>
  <property name="kdenlive:original.aspect_ratio">1</property>
  <property name="kdenlive:original.audio_index">-1</property>
  <property name="kdenlive:original.video_index">0</property>
  <property name="kdenlive:original.mute_on_pause">1</property>
  <property name="kdenlive:original.mlt_service">avformat</property>
  <property name="kdenlive:original.meta.media.frame_rate_num">60</property>
  <property name="kdenlive:original.meta.media.frame_rate_den">1</property>
  <property name="kdenlive:original.meta.media.colorspace">709</property>
  <property name="kdenlive:original.meta.media.color_trc">2</property>
  <property name="kdenlive:original.meta.media.width">3840</property>
  <property name="kdenlive:original.meta.media.height">2160</property>
  <property name="kdenlive:original.meta.media.color_range">mpeg</property>
  <property name="kdenlive:original.meta.media.top_field_first">0</property>
  <property name="kdenlive:original.meta.media.progressive">1</property>
  <property name="kdenlive:original.backup">1</property>
  <property name="xml">was here</property>
  <property name="meta.media.nb_streams">1</property>
  <property name="meta.media.0.stream.type">video</property>
  <property name="meta.media.0.stream.frame_rate">60</property>
  <property name="meta.media.0.stream.sample_aspect_ratio">0</property>
  <property name="meta.media.0.codec.width">640</property>
  <property name="meta.media.0.codec.height">360</property>
  <property name="meta.media.0.codec.rotate">0</property>
  <property name="meta.media.0.codec.frame_rate">60</property>
  <property name="meta.media.0.codec.pix_fmt">yuv420p</property>
  <property name="meta.media.0.codec.sample_aspect_ratio">0</property>
  <property name="meta.media.0.codec.colorspace">601</property>
  <property name="meta.media.0.codec.name">h264</property>
  <property name="meta.media.0.codec.long_name">H.264 / AVC / MPEG-4 AVC / MPEG-4 part 10</property>
  <property name="meta.media.0.codec.bit_rate">0</property>
  <property name="meta.attr.0.stream.HANDLER_NAME.markup">VideoHandler</property>
  <property name="meta.attr.0.stream.VENDOR_ID.markup">[0][0][0][0]</property>
  <property name="meta.attr.0.stream.ENCODER.markup">Lavc58.134.100 libx264</property>
  <property name="meta.attr.0.stream.DURATION.markup">00:00:01.000000000</property>
  <property name="meta.attr.COMMENT.markup">Rendered with Manim Community v0.6.0</property>
  <property name="meta.attr.MAJOR_BRAND.markup">isom</property>
  <property name="meta.attr.MINOR_VERSION.markup">512</property>
  <property name="meta.attr.COMPATIBLE_BRANDS.markup">isomiso2avc1mp41</property>
  <property name="meta.attr.ENCODER.markup">Lavf58.76.100</property>
  <property name="meta.media.sample_aspect_num">1</property>
  <property name="meta.media.sample_aspect_den">1</property>
  <property name="meta.media.frame_rate_num">60</property>
  <property name="meta.media.frame_rate_den">1</property>
  <property name="meta.media.colorspace">601</property>
  <property name="meta.media.color_trc">2</property>
  <property name="meta.media.width">640</property>
  <property name="meta.media.height">360</property>
  <property name="meta.media.color_range">mpeg</property>
  <property name="meta.media.top_field_first">0</property>
  <property name="meta.media.progressive">1</property>
  <property name="set.test_audio">1</property>
  <property name="set.test_image">0</property>
 </producer>
 <producer id="producer621" in="00:00:00.000" out="00:00:01.983">
  <property name="length">120</property>
  <property name="eof">pause</property>
  <property name="resource">/home/xiaoxiae/.cache/kdenlive/proxy/777c766ed6d476488e509404686fb27c.mkv</property>
  <property name="audio_index">-1</property>
  <property name="video_index">0</property>
  <property name="mute_on_pause">0</property>
  <property name="mlt_service">avformat-novalidate</property>
  <property name="seekable">1</property>
  <property name="aspect_ratio">1</property>
  <property name="kdenlive:clipname">1.mp4</property>
  <property name="kdenlive:folderid">99</property>
  <property name="kdenlive:id">100</property>
  <property name="kdenlive:file_size">107764</property>
  <property name="kdenlive:file_hash">777c766ed6d476488e509404686fb27c</property>
  <property name="kdenlive:proxy">/home/xiaoxiae/.cache/kdenlive/proxy/777c766ed6d476488e509404686fb27c.mkv</property>
  <property name="kdenlive:originalurl">video/InducedSubgraph/1.mp4</property>
  <property name="global_feed">1</property>
  <property name="kdenlive:original.mlt_type">producer</property>
  <property name="kdenlive:original.in">0</property>
  <property name="kdenlive:original.out">119</property>
  <property name="kdenlive:original.length">120</property>
  <property name="kdenlive:original.eof">pause</property>
  <property name="kdenlive:original.resource">video/InducedSubgraph/1.mp4</property>
  <property name="kdenlive:original.meta.media.nb_streams">1</property>
  <property name="kdenlive:original.meta.media.0.stream.type">video</property>
  <property name="kdenlive:original.meta.media.0.stream.frame_rate">60</property>
  <property name="kdenlive:original.meta.media.0.stream.sample_aspect_ratio">0</property>
  <property name="kdenlive:original.meta.media.0.codec.width">3840</property>
  <property name="kdenlive:original.meta.media.0.codec.height">2160</property>
  <property name="kdenlive:original.meta.media.0.codec.rotate">0</property>
  <property name="kdenlive:original.meta.media.0.codec.frame_rate">60</property>
  <property name="kdenlive:original.meta.media.0.codec.pix_fmt">yuv420p</property>
  <property name="kdenlive:original.meta.media.0.codec.sample_aspect_ratio">0</property>
  <property name="kdenlive:original.meta.media.0.codec.colorspace">709</property>
  <property name="kdenlive:original.meta.media.0.codec.name">h264</property>
  <property name="kdenlive:original.meta.media.0.codec.long_name">H.264 / AVC / MPEG-4 AVC / MPEG-4 part 10</property>
  <property name="kdenlive:original.meta.media.0.codec.bit_rate">421652</property>
  <property name="kdenlive:original.meta.attr.0.stream.handler_name.markup">VideoHandler</property>
  <property name="kdenlive:original.meta.attr.0.stream.vendor_id.markup">[0][0][0][0]</property>
  <property name="kdenlive:original.meta.attr.major_brand.markup">isom</property>
  <property name="kdenlive:original.meta.attr.minor_version.markup">512</property>
  <property name="kdenlive:original.meta.attr.compatible_brands.markup">isomiso2avc1mp41</property>
  <property name="kdenlive:original.meta.attr.encoder.markup">Lavf58.76.100</property>
  <property name="kdenlive:original.meta.attr.comment.markup">Rendered with Manim Community v0.6.0</property>
  <property name="kdenlive:original.seekable">1</property>
  <property name="kdenlive:original.width">3840</property>
  <property name="kdenlive:original.height">2160</property>
  <property name="kdenlive:original.meta.media.sample_aspect_num">1</property>
  <property name="kdenlive:original.meta.media.sample_aspect_den">1</property>
  <property name="kdenlive:original.aspect_ratio">1</property>
  <property name="kdenlive:original.audio_index">-1</property>
  <property name="kdenlive:original.video_index">0</property>
  <property name="kdenlive:original.mute_on_pause">1</property>
  <property name="kdenlive:original.mlt_service">avformat</property>
  <property name="kdenlive:original.meta.media.frame_rate_num">60</property>
  <property name="kdenlive:original.meta.media.frame_rate_den">1</property>
  <property name="kdenlive:original.meta.media.colorspace">709</property>
  <property name="kdenlive:original.meta.media.color_trc">2</property>
  <property name="kdenlive:original.meta.media.width">3840</property>
  <property name="kdenlive:original.meta.media.height">2160</property>
  <property name="kdenlive:original.meta.media.color_range">mpeg</property>
  <property name="kdenlive:original.meta.media.top_field_first">0</property>
  <property name="kdenlive:original.meta.media.progressive">1</property>
  <property name="kdenlive:original.backup">1</property>
  <property name="xml">was here</property>
  <property name="meta.media.nb_streams">1</property>
  <property name="meta.media.0.stream.type">video</property>
  <property name="meta.media.0.stream.frame_rate">60</property>
  <property name="meta.media.0.stream.sample_aspect_ratio">0</property>
  <property name="meta.media.0.codec.width">640</property>
  <property name="meta.media.0.codec.height">360</property>
  <property name="meta.media.0.codec.rotate">0</property>
  <property name="meta.media.0.codec.frame_rate">60</property>
  <property name="meta.media.0.codec.pix_fmt">yuv420p</property>
  <property name="meta.media.0.codec.sample_aspect_ratio">0</property>
  <property name="meta.media.0.codec.colorspace">601</property>
  <property name="meta.media.0.codec.name">h264</property>
  <property name="meta.media.0.codec.long_name">H.264 / AVC / MPEG-4 AVC / MPEG-4 part 10</property>
  <property name="meta.media.0.codec.bit_rate">0</property>
  <property name="meta.attr.0.stream.HANDLER_NAME.markup">VideoHandler</property>
  <property name="meta.attr.0.stream.VENDOR_ID.markup">[0][0][0][0]</property>
  <property name="meta.attr.0.stream.ENCODER.markup">Lavc58.134.100 libx264</property>
  <property name="meta.attr.0.stream.DURATION.markup">00:00:02.000000000</property>
  <property name="meta.attr.COMMENT.markup">Rendered with Manim Community v0.6.0</property>
  <property name="meta.attr.MAJOR_BRAND.markup">isom</property>
  <property name="meta.attr.MINOR_VERSION.markup">512</property>
  <property name="meta.attr.COMPATIBLE_BRANDS.markup">isomiso2avc1mp41</property>
  <property name="meta.attr.ENCODER.markup">Lavf58.76.100</property>
  <property name="meta.media.sample_aspect_num">1</property>
  <property name="meta.media.sample_aspect_den">1</property>
  <property name="meta.media.frame_rate_num">60</property>
  <property name="meta.media.frame_rate_den">1</property>
  <property name="meta.media.colorspace">601</property>
  <property name="meta.media.color_trc">2</property>
  <property name="meta.media.width">640</property>
  <property name="meta.media.height">360</property>
  <property name="meta.media.color_range">mpeg</property>
  <property name="meta.media.top_field_first">0</property>
  <property name="meta.media.progressive">1</property>
  <property name="set.test_audio">1</property>
  <property name="set.test_image">0</property>
 </producer>
 <producer id="producer622" in="00:00:00.000" out="00:00:00.983">
  <property name="length">60</property>
  <property name="eof">pause</property>
  <property name="resource">/home/xiaoxiae/.cache/kdenlive/proxy/417a1f610a1ba6df658efea88618471b.mkv</property>
  <property name="audio_index">-1</property>
  <property name="video_index">0</property>
  <property name="mute_on_pause">0</property>
  <property name="mlt_service">avformat-novalidate</property>
  <property name="seekable">1</property>
  <property name="aspect_ratio">1</property>
  <property name="kdenlive:clipname">2.mp4</property>
  <property name="kdenlive:folderid">99</property>
  <property name="kdenlive:id">108</property>
  <property name="kdenlive:file_size">83679</property>
  <property name="kdenlive:file_hash">417a1f610a1ba6df658efea88618471b</property>
  <property name="kdenlive:proxy">/home/xiaoxiae/.cache/kdenlive/proxy/417a1f610a1ba6df658efea88618471b.mkv</property>
  <property name="kdenlive:originalurl">video/InducedSubgraph/2.mp4</property>
  <property name="global_feed">1</property>
  <property name="kdenlive:original.mlt_type">producer</property>
  <property name="kdenlive:original.in">0</property>
  <property name="kdenlive:original.out">59</property>
  <property name="kdenlive:original.length">60</property>
  <property name="kdenlive:original.eof">pause</property>
  <property name="kdenlive:original.resource">video/InducedSubgraph/2.mp4</property>
  <property name="kdenlive:original.meta.media.nb_streams">1</property>
  <property name="kdenlive:original.meta.media.0.stream.type">video</property>
  <property name="kdenlive:original.meta.media.0.stream.frame_rate">60</property>
  <property name="kdenlive:original.meta.media.0.stream.sample_aspect_ratio">0</property>
  <property name="kdenlive:original.meta.media.0.codec.width">3840</property>
  <property name="kdenlive:original.meta.media.0.codec.height">2160</property>
  <property name="kdenlive:original.meta.media.0.codec.rotate">0</property>
  <property name="kdenlive:original.meta.media.0.codec.frame_rate">60</property>
  <property name="kdenlive:original.meta.media.0.codec.pix_fmt">yuv420p</property>
  <property name="kdenlive:original.meta.media.0.codec.sample_aspect_ratio">0</property>
  <property name="kdenlive:original.meta.media.0.codec.colorspace">709</property>
  <property name="kdenlive:original.meta.media.0.codec.name">h264</property>
  <property name="kdenlive:original.meta.media.0.codec.long_name">H.264 / AVC / MPEG-4 AVC / MPEG-4 part 10</property>
  <property name="kdenlive:original.meta.media.0.codec.bit_rate">656832</property>
  <property name="kdenlive:original.meta.attr.0.stream.handler_name.markup">VideoHandler</property>
  <property name="kdenlive:original.meta.attr.0.stream.vendor_id.markup">[0][0][0][0]</property>
  <property name="kdenlive:original.meta.attr.major_brand.markup">isom</property>
  <property name="kdenlive:original.meta.attr.minor_version.markup">512</property>
  <property name="kdenlive:original.meta.attr.compatible_brands.markup">isomiso2avc1mp41</property>
  <property name="kdenlive:original.meta.attr.encoder.markup">Lavf58.76.100</property>
  <property name="kdenlive:original.meta.attr.comment.markup">Rendered with Manim Community v0.6.0</property>
  <property name="kdenlive:original.seekable">1</property>
  <property name="kdenlive:original.width">3840</property>
  <property name="kdenlive:original.height">2160</property>
  <property name="kdenlive:original.meta.media.sample_aspect_num">1</property>
  <property name="kdenlive:original.meta.media.sample_aspect_den">1</property>
  <property name="kdenlive:original.aspect_ratio">1</property>
  <property name="kdenlive:original.audio_index">-1</property>
  <property name="kdenlive:original.video_index">0</property>
  <property name="kdenlive:original.mute_on_pause">1</property>
  <property name="kdenlive:original.mlt_service">avformat</property>
  <property name="kdenlive:original.meta.media.frame_rate_num">60</property>
  <property name="kdenlive:original.meta.media.frame_rate_den">1</property>
  <property name="kdenlive:original.meta.media.colorspace">709</property>
  <property name="kdenlive:original.meta.media.color_trc">2</property>
  <property name="kdenlive:original.meta.media.width">3840</property>
  <property name="kdenlive:original.meta.media.height">2160</property>
  <property name="kdenlive:original.meta.media.color_range">mpeg</property>
  <property name="kdenlive:original.meta.media.top_field_first">0</property>
  <property name="kdenlive:original.meta.media.progressive">1</property>
  <property name="kdenlive:original.backup">1</property>
  <property name="xml">was here</property>
  <property name="meta.media.nb_streams">1</property>
  <property name="meta.media.0.stream.type">video</property>
  <property name="meta.media.0.stream.frame_rate">60</property>
  <property name="meta.media.0.stream.sample_aspect_ratio">0</property>
  <property name="meta.media.0.codec.width">640</property>
  <property name="meta.media.0.codec.height">360</property>
  <property name="meta.media.0.codec.rotate">0</property>
  <property name="meta.media.0.codec.frame_rate">60</property>
  <property name="meta.media.0.codec.pix_fmt">yuv420p</property>
  <property name="meta.media.0.codec.sample_aspect_ratio">0</property>
  <property name="meta.media.0.codec.colorspace">601</property>
  <property name="meta.media.0.codec.name">h264</property>
  <property name="meta.media.0.codec.long_name">H.264 / AVC / MPEG-4 AVC / MPEG-4 part 10</property>
  <property name="meta.media.0.codec.bit_rate">0</property>
  <property name="meta.attr.0.stream.HANDLER_NAME.markup">VideoHandler</property>
  <property name="meta.attr.0.stream.VENDOR_ID.markup">[0][0][0][0]</property>
  <property name="meta.attr.0.stream.ENCODER.markup">Lavc58.134.100 libx264</property>
  <property name="meta.attr.0.stream.DURATION.markup">00:00:01.000000000</property>
  <property name="meta.attr.COMMENT.markup">Rendered with Manim Community v0.6.0</property>
  <property name="meta.attr.MAJOR_BRAND.markup">isom</property>
  <property name="meta.attr.MINOR_VERSION.markup">512</property>
  <property name="meta.attr.COMPATIBLE_BRANDS.markup">isomiso2avc1mp41</property>
  <property name="meta.attr.ENCODER.markup">Lavf58.76.100</property>
  <property name="meta.media.sample_aspect_num">1</property>
  <property name="meta.media.sample_aspect_den">1</property>
  <property name="meta.media.frame_rate_num">60</property>
  <property name="meta.media.frame_rate_den">1</property>
  <property name="meta.media.colorspace">601</property>
  <property name="meta.media.color_trc">2</property>
  <property name="meta.media.width">640</property>
  <property name="meta.media.height">360</property>
  <property name="meta.media.color_range">mpeg</property>
  <property name="meta.media.top_field_first">0</property>
  <property name="meta.media.progressive">1</property>
  <property name="set.test_audio">1</property>
  <property name="set.test_image">0</property>
 </producer>
 <producer id="producer623" in="00:00:00.000" out="00:00:05.267">
  <property name="length">317</property>
  <property name="eof">pause</property>
  <property name="resource">/home/xiaoxiae/.cache/kdenlive/proxy/5415df30483b90a7e19456268a3d45c9.mkv</property>
  <property name="audio_index">-1</property>
  <property name="video_index">0</property>
  <property name="mute_on_pause">0</property>
  <property name="mlt_service">avformat-novalidate</property>
  <property name="seekable">1</property>
  <property name="aspect_ratio">1</property>
  <property name="kdenlive:clipname">3.mp4</property>
  <property name="kdenlive:folderid">99</property>
  <property name="kdenlive:id">110</property>
  <property name="kdenlive:file_size">659881</property>
  <property name="kdenlive:file_hash">5415df30483b90a7e19456268a3d45c9</property>
  <property name="kdenlive:proxy">/home/xiaoxiae/.cache/kdenlive/proxy/5415df30483b90a7e19456268a3d45c9.mkv</property>
  <property name="kdenlive:originalurl">video/InducedSubgraph/3.mp4</property>
  <property name="global_feed">1</property>
  <property name="kdenlive:original.mlt_type">producer</property>
  <property name="kdenlive:original.in">0</property>
  <property name="kdenlive:original.out">316</property>
  <property name="kdenlive:original.length">317</property>
  <property name="kdenlive:original.eof">pause</property>
  <property name="kdenlive:original.resource">video/InducedSubgraph/3.mp4</property>
  <property name="kdenlive:original.meta.media.nb_streams">1</property>
  <property name="kdenlive:original.meta.media.0.stream.type">video</property>
  <property name="kdenlive:original.meta.media.0.stream.frame_rate">60</property>
  <property name="kdenlive:original.meta.media.0.stream.sample_aspect_ratio">0</property>
  <property name="kdenlive:original.meta.media.0.codec.width">3840</property>
  <property name="kdenlive:original.meta.media.0.codec.height">2160</property>
  <property name="kdenlive:original.meta.media.0.codec.rotate">0</property>
  <property name="kdenlive:original.meta.media.0.codec.frame_rate">60</property>
  <property name="kdenlive:original.meta.media.0.codec.pix_fmt">yuv420p</property>
  <property name="kdenlive:original.meta.media.0.codec.sample_aspect_ratio">0</property>
  <property name="kdenlive:original.meta.media.0.codec.colorspace">709</property>
  <property name="kdenlive:original.meta.media.0.codec.name">h264</property>
  <property name="kdenlive:original.meta.media.0.codec.long_name">H.264 / AVC / MPEG-4 AVC / MPEG-4 part 10</property>
  <property name="kdenlive:original.meta.media.0.codec.bit_rate">992043</property>
  <property name="kdenlive:original.meta.attr.0.stream.handler_name.markup">VideoHandler</property>
  <property name="kdenlive:original.meta.attr.0.stream.vendor_id.markup">[0][0][0][0]</property>
  <property name="kdenlive:original.meta.attr.major_brand.markup">isom</property>
  <property name="kdenlive:original.meta.attr.minor_version.markup">512</property>
  <property name="kdenlive:original.meta.attr.compatible_brands.markup">isomiso2avc1mp41</property>
  <property name="kdenlive:original.meta.attr.encoder.markup">Lavf58.76.100</property>
  <property name="kdenlive:original.meta.attr.comment.markup">Rendered with Manim Community v0.6.0</property>
  <property name="kdenlive:original.seekable">1</property>
  <property name="kdenlive:original.width">3840</property>
  <property name="kdenlive:original.height">2160</property>
  <property name="kdenlive:original.meta.media.sample_aspect_num">1</property>
  <property name="kdenlive:original.meta.media.sample_aspect_den">1</property>
  <property name="kdenlive:original.aspect_ratio">1</property>
  <property name="kdenlive:original.audio_index">-1</property>
  <property name="kdenlive:original.video_index">0</property>
  <property name="kdenlive:original.mute_on_pause">1</property>
  <property name="kdenlive:original.mlt_service">avformat</property>
  <property name="kdenlive:original.meta.media.frame_rate_num">60</property>
  <property name="kdenlive:original.meta.media.frame_rate_den">1</property>
  <property name="kdenlive:original.meta.media.colorspace">709</property>
  <property name="kdenlive:original.meta.media.color_trc">2</property>
  <property name="kdenlive:original.meta.media.width">3840</property>
  <property name="kdenlive:original.meta.media.height">2160</property>
  <property name="kdenlive:original.meta.media.color_range">mpeg</property>
  <property name="kdenlive:original.meta.media.top_field_first">0</property>
  <property name="kdenlive:original.meta.media.progressive">1</property>
  <property name="kdenlive:original.backup">1</property>
  <property name="xml">was here</property>
  <property name="meta.media.nb_streams">1</property>
  <property name="meta.media.0.stream.type">video</property>
  <property name="meta.media.0.stream.frame_rate">60</property>
  <property name="meta.media.0.stream.sample_aspect_ratio">0</property>
  <property name="meta.media.0.codec.width">640</property>
  <property name="meta.media.0.codec.height">360</property>
  <property name="meta.media.0.codec.rotate">0</property>
  <property name="meta.media.0.codec.frame_rate">60</property>
  <property name="meta.media.0.codec.pix_fmt">yuv420p</property>
  <property name="meta.media.0.codec.sample_aspect_ratio">0</property>
  <property name="meta.media.0.codec.colorspace">601</property>
  <property name="meta.media.0.codec.name">h264</property>
  <property name="meta.media.0.codec.long_name">H.264 / AVC / MPEG-4 AVC / MPEG-4 part 10</property>
  <property name="meta.media.0.codec.bit_rate">0</property>
  <property name="meta.attr.0.stream.HANDLER_NAME.markup">VideoHandler</property>
  <property name="meta.attr.0.stream.VENDOR_ID.markup">[0][0][0][0]</property>
  <property name="meta.attr.0.stream.ENCODER.markup">Lavc58.134.100 libx264</property>
  <property name="meta.attr.0.stream.DURATION.markup">00:00:05.284000000</property>
  <property name="meta.attr.COMMENT.markup">Rendered with Manim Community v0.6.0</property>
  <property name="meta.attr.MAJOR_BRAND.markup">isom</property>
  <property name="meta.attr.MINOR_VERSION.markup">512</property>
  <property name="meta.attr.COMPATIBLE_BRANDS.markup">isomiso2avc1mp41</property>
  <property name="meta.attr.ENCODER.markup">Lavf58.76.100</property>
  <property name="meta.media.sample_aspect_num">1</property>
  <property name="meta.media.sample_aspect_den">1</property>
  <property name="meta.media.frame_rate_num">60</property>
  <property name="meta.media.frame_rate_den">1</property>
  <property name="meta.media.colorspace">601</property>
  <property name="meta.media.color_trc">2</property>
  <property name="meta.media.width">640</property>
  <property name="meta.media.height">360</property>
  <property name="meta.media.color_range">mpeg</property>
  <property name="meta.media.top_field_first">0</property>
  <property name="meta.media.progressive">1</property>
  <property name="set.test_audio">1</property>
  <property name="set.test_image">0</property>
 </producer>
 <producer id="producer624" in="00:00:00.000" out="00:00:01.983">
  <property name="length">120</property>
  <property name="eof">pause</property>
  <property name="resource">/home/xiaoxiae/.cache/kdenlive/proxy/e66bc580b498eb58a26a33281c52c0b2.mkv</property>
  <property name="audio_index">-1</property>
  <property name="video_index">0</property>
  <property name="mute_on_pause">0</property>
  <property name="mlt_service">avformat-novalidate</property>
  <property name="seekable">1</property>
  <property name="aspect_ratio">1</property>
  <property name="kdenlive:clipname">4.mp4</property>
  <property name="kdenlive:folderid">99</property>
  <property name="kdenlive:id">112</property>
  <property name="kdenlive:file_size">214269</property>
  <property name="kdenlive:file_hash">e66bc580b498eb58a26a33281c52c0b2</property>
  <property name="kdenlive:proxy">/home/xiaoxiae/.cache/kdenlive/proxy/e66bc580b498eb58a26a33281c52c0b2.mkv</property>
  <property name="kdenlive:originalurl">video/InducedSubgraph/4.mp4</property>
  <property name="global_feed">1</property>
  <property name="kdenlive:original.mlt_type">producer</property>
  <property name="kdenlive:original.in">0</property>
  <property name="kdenlive:original.out">119</property>
  <property name="kdenlive:original.length">120</property>
  <property name="kdenlive:original.eof">pause</property>
  <property name="kdenlive:original.resource">video/InducedSubgraph/4.mp4</property>
  <property name="kdenlive:original.meta.media.nb_streams">1</property>
  <property name="kdenlive:original.meta.media.0.stream.type">video</property>
  <property name="kdenlive:original.meta.media.0.stream.frame_rate">60</property>
  <property name="kdenlive:original.meta.media.0.stream.sample_aspect_ratio">0</property>
  <property name="kdenlive:original.meta.media.0.codec.width">3840</property>
  <property name="kdenlive:original.meta.media.0.codec.height">2160</property>
  <property name="kdenlive:original.meta.media.0.codec.rotate">0</property>
  <property name="kdenlive:original.meta.media.0.codec.frame_rate">60</property>
  <property name="kdenlive:original.meta.media.0.codec.pix_fmt">yuv420p</property>
  <property name="kdenlive:original.meta.media.0.codec.sample_aspect_ratio">0</property>
  <property name="kdenlive:original.meta.media.0.codec.colorspace">709</property>
  <property name="kdenlive:original.meta.media.0.codec.name">h264</property>
  <property name="kdenlive:original.meta.media.0.codec.long_name">H.264 / AVC / MPEG-4 AVC / MPEG-4 part 10</property>
  <property name="kdenlive:original.meta.media.0.codec.bit_rate">847672</property>
  <property name="kdenlive:original.meta.attr.0.stream.handler_name.markup">VideoHandler</property>
  <property name="kdenlive:original.meta.attr.0.stream.vendor_id.markup">[0][0][0][0]</property>
  <property name="kdenlive:original.meta.attr.major_brand.markup">isom</property>
  <property name="kdenlive:original.meta.attr.minor_version.markup">512</property>
  <property name="kdenlive:original.meta.attr.compatible_brands.markup">isomiso2avc1mp41</property>
  <property name="kdenlive:original.meta.attr.encoder.markup">Lavf58.76.100</property>
  <property name="kdenlive:original.meta.attr.comment.markup">Rendered with Manim Community v0.6.0</property>
  <property name="kdenlive:original.seekable">1</property>
  <property name="kdenlive:original.width">3840</property>
  <property name="kdenlive:original.height">2160</property>
  <property name="kdenlive:original.meta.media.sample_aspect_num">1</property>
  <property name="kdenlive:original.meta.media.sample_aspect_den">1</property>
  <property name="kdenlive:original.aspect_ratio">1</property>
  <property name="kdenlive:original.audio_index">-1</property>
  <property name="kdenlive:original.video_index">0</property>
  <property name="kdenlive:original.mute_on_pause">1</property>
  <property name="kdenlive:original.mlt_service">avformat</property>
  <property name="kdenlive:original.meta.media.frame_rate_num">60</property>
  <property name="kdenlive:original.meta.media.frame_rate_den">1</property>
  <property name="kdenlive:original.meta.media.colorspace">709</property>
  <property name="kdenlive:original.meta.media.color_trc">2</property>
  <property name="kdenlive:original.meta.media.width">3840</property>
  <property name="kdenlive:original.meta.media.height">2160</property>
  <property name="kdenlive:original.meta.media.color_range">mpeg</property>
  <property name="kdenlive:original.meta.media.top_field_first">0</property>
  <property name="kdenlive:original.meta.media.progressive">1</property>
  <property name="kdenlive:original.backup">1</property>
  <property name="xml">was here</property>
  <property name="meta.media.nb_streams">1</property>
  <property name="meta.media.0.stream.type">video</property>
  <property name="meta.media.0.stream.frame_rate">60</property>
  <property name="meta.media.0.stream.sample_aspect_ratio">0</property>
  <property name="meta.media.0.codec.width">640</property>
  <property name="meta.media.0.codec.height">360</property>
  <property name="meta.media.0.codec.rotate">0</property>
  <property name="meta.media.0.codec.frame_rate">60</property>
  <property name="meta.media.0.codec.pix_fmt">yuv420p</property>
  <property name="meta.media.0.codec.sample_aspect_ratio">0</property>
  <property name="meta.media.0.codec.colorspace">601</property>
  <property name="meta.media.0.codec.name">h264</property>
  <property name="meta.media.0.codec.long_name">H.264 / AVC / MPEG-4 AVC / MPEG-4 part 10</property>
  <property name="meta.media.0.codec.bit_rate">0</property>
  <property name="meta.attr.0.stream.HANDLER_NAME.markup">VideoHandler</property>
  <property name="meta.attr.0.stream.VENDOR_ID.markup">[0][0][0][0]</property>
  <property name="meta.attr.0.stream.ENCODER.markup">Lavc58.134.100 libx264</property>
  <property name="meta.attr.0.stream.DURATION.markup">00:00:02.000000000</property>
  <property name="meta.attr.COMMENT.markup">Rendered with Manim Community v0.6.0</property>
  <property name="meta.attr.MAJOR_BRAND.markup">isom</property>
  <property name="meta.attr.MINOR_VERSION.markup">512</property>
  <property name="meta.attr.COMPATIBLE_BRANDS.markup">isomiso2avc1mp41</property>
  <property name="meta.attr.ENCODER.markup">Lavf58.76.100</property>
  <property name="meta.media.sample_aspect_num">1</property>
  <property name="meta.media.sample_aspect_den">1</property>
  <property name="meta.media.frame_rate_num">60</property>
  <property name="meta.media.frame_rate_den">1</property>
  <property name="meta.media.colorspace">601</property>
  <property name="meta.media.color_trc">2</property>
  <property name="meta.media.width">640</property>
  <property name="meta.media.height">360</property>
  <property name="meta.media.color_range">mpeg</property>
  <property name="meta.media.top_field_first">0</property>
  <property name="meta.media.progressive">1</property>
  <property name="set.test_audio">1</property>
  <property name="set.test_image">0</property>
 </producer>
 <producer id="producer625" in="00:00:00.000" out="00:00:00.983">
  <property name="length">60</property>
  <property name="eof">pause</property>
  <property name="resource">/home/xiaoxiae/.cache/kdenlive/proxy/320214b8d25970310f709c0e9f9880fe.mkv</property>
  <property name="audio_index">-1</property>
  <property name="video_index">0</property>
  <property name="mute_on_pause">0</property>
  <property name="mlt_service">avformat-novalidate</property>
  <property name="seekable">1</property>
  <property name="aspect_ratio">1</property>
  <property name="kdenlive:clipname">5.mp4</property>
  <property name="kdenlive:folderid">99</property>
  <property name="kdenlive:id">114</property>
  <property name="kdenlive:file_size">181507</property>
  <property name="kdenlive:file_hash">320214b8d25970310f709c0e9f9880fe</property>
  <property name="kdenlive:proxy">/home/xiaoxiae/.cache/kdenlive/proxy/320214b8d25970310f709c0e9f9880fe.mkv</property>
  <property name="kdenlive:originalurl">video/InducedSubgraph/5.mp4</property>
  <property name="global_feed">1</property>
  <property name="kdenlive:original.mlt_type">producer</property>
  <property name="kdenlive:original.in">0</property>
  <property name="kdenlive:original.out">59</property>
  <property name="kdenlive:original.length">60</property>
  <property name="kdenlive:original.eof">pause</property>
  <property name="kdenlive:original.resource">video/InducedSubgraph/5.mp4</property>
  <property name="kdenlive:original.meta.media.nb_streams">1</property>
  <property name="kdenlive:original.meta.media.0.stream.type">video</property>
  <property name="kdenlive:original.meta.media.0.stream.frame_rate">60</property>
  <property name="kdenlive:original.meta.media.0.stream.sample_aspect_ratio">0</property>
  <property name="kdenlive:original.meta.media.0.codec.width">3840</property>
  <property name="kdenlive:original.meta.media.0.codec.height">2160</property>
  <property name="kdenlive:original.meta.media.0.codec.rotate">0</property>
  <property name="kdenlive:original.meta.media.0.codec.frame_rate">60</property>
  <property name="kdenlive:original.meta.media.0.codec.pix_fmt">yuv420p</property>
  <property name="kdenlive:original.meta.media.0.codec.sample_aspect_ratio">0</property>
  <property name="kdenlive:original.meta.media.0.codec.colorspace">709</property>
  <property name="kdenlive:original.meta.media.0.codec.name">h264</property>
  <property name="kdenlive:original.meta.media.0.codec.long_name">H.264 / AVC / MPEG-4 AVC / MPEG-4 part 10</property>
  <property name="kdenlive:original.meta.media.0.codec.bit_rate">1439008</property>
  <property name="kdenlive:original.meta.attr.0.stream.handler_name.markup">VideoHandler</property>
  <property name="kdenlive:original.meta.attr.0.stream.vendor_id.markup">[0][0][0][0]</property>
  <property name="kdenlive:original.meta.attr.major_brand.markup">isom</property>
  <property name="kdenlive:original.meta.attr.minor_version.markup">512</property>
  <property name="kdenlive:original.meta.attr.compatible_brands.markup">isomiso2avc1mp41</property>
  <property name="kdenlive:original.meta.attr.encoder.markup">Lavf58.76.100</property>
  <property name="kdenlive:original.meta.attr.comment.markup">Rendered with Manim Community v0.6.0</property>
  <property name="kdenlive:original.seekable">1</property>
  <property name="kdenlive:original.width">3840</property>
  <property name="kdenlive:original.height">2160</property>
  <property name="kdenlive:original.meta.media.sample_aspect_num">1</property>
  <property name="kdenlive:original.meta.media.sample_aspect_den">1</property>
  <property name="kdenlive:original.aspect_ratio">1</property>
  <property name="kdenlive:original.audio_index">-1</property>
  <property name="kdenlive:original.video_index">0</property>
  <property name="kdenlive:original.mute_on_pause">1</property>
  <property name="kdenlive:original.mlt_service">avformat</property>
  <property name="kdenlive:original.meta.media.frame_rate_num">60</property>
  <property name="kdenlive:original.meta.media.frame_rate_den">1</property>
  <property name="kdenlive:original.meta.media.colorspace">709</property>
  <property name="kdenlive:original.meta.media.color_trc">2</property>
  <property name="kdenlive:original.meta.media.width">3840</property>
  <property name="kdenlive:original.meta.media.height">2160</property>
  <property name="kdenlive:original.meta.media.color_range">mpeg</property>
  <property name="kdenlive:original.meta.media.top_field_first">0</property>
  <property name="kdenlive:original.meta.media.progressive">1</property>
  <property name="kdenlive:original.backup">1</property>
  <property name="xml">was here</property>
  <property name="meta.media.nb_streams">1</property>
  <property name="meta.media.0.stream.type">video</property>
  <property name="meta.media.0.stream.frame_rate">60</property>
  <property name="meta.media.0.stream.sample_aspect_ratio">0</property>
  <property name="meta.media.0.codec.width">640</property>
  <property name="meta.media.0.codec.height">360</property>
  <property name="meta.media.0.codec.rotate">0</property>
  <property name="meta.media.0.codec.frame_rate">60</property>
  <property name="meta.media.0.codec.pix_fmt">yuv420p</property>
  <property name="meta.media.0.codec.sample_aspect_ratio">0</property>
  <property name="meta.media.0.codec.colorspace">601</property>
  <property name="meta.media.0.codec.name">h264</property>
  <property name="meta.media.0.codec.long_name">H.264 / AVC / MPEG-4 AVC / MPEG-4 part 10</property>
  <property name="meta.media.0.codec.bit_rate">0</property>
  <property name="meta.attr.0.stream.HANDLER_NAME.markup">VideoHandler</property>
  <property name="meta.attr.0.stream.VENDOR_ID.markup">[0][0][0][0]</property>
  <property name="meta.attr.0.stream.ENCODER.markup">Lavc58.134.100 libx264</property>
  <property name="meta.attr.0.stream.DURATION.markup">00:00:01.000000000</property>
  <property name="meta.attr.COMMENT.markup">Rendered with Manim Community v0.6.0</property>
  <property name="meta.attr.MAJOR_BRAND.markup">isom</property>
  <property name="meta.attr.MINOR_VERSION.markup">512</property>
  <property name="meta.attr.COMPATIBLE_BRANDS.markup">isomiso2avc1mp41</property>
  <property name="meta.attr.ENCODER.markup">Lavf58.76.100</property>
  <property name="meta.media.sample_aspect_num">1</property>
  <property name="meta.media.sample_aspect_den">1</property>
  <property name="meta.media.frame_rate_num">60</property>
  <property name="meta.media.frame_rate_den">1</property>
  <property name="meta.media.colorspace">601</property>
  <property name="meta.media.color_trc">2</property>
  <property name="meta.media.width">640</property>
  <property name="meta.media.height">360</property>
  <property name="meta.media.color_range">mpeg</property>
  <property name="meta.media.top_field_first">0</property>
  <property name="meta.media.progressive">1</property>
  <property name="set.test_audio">1</property>
  <property name="set.test_image">0</property>
 </producer>
 <producer id="producer626" in="00:00:00.000" out="00:00:00.983">
  <property name="length">60</property>
  <property name="eof">pause</property>
  <property name="resource">/home/xiaoxiae/.cache/kdenlive/proxy/624ba5b360950f7563b2e377776cddab.mkv</property>
  <property name="audio_index">-1</property>
  <property name="video_index">0</property>
  <property name="mute_on_pause">0</property>
  <property name="mlt_service">avformat-novalidate</property>
  <property name="seekable">1</property>
  <property name="aspect_ratio">1</property>
  <property name="kdenlive:clipname">6.mp4</property>
  <property name="kdenlive:folderid">99</property>
  <property name="kdenlive:id">116</property>
  <property name="kdenlive:file_size">183780</property>
  <property name="kdenlive:file_hash">624ba5b360950f7563b2e377776cddab</property>
  <property name="kdenlive:proxy">/home/xiaoxiae/.cache/kdenlive/proxy/624ba5b360950f7563b2e377776cddab.mkv</property>
  <property name="kdenlive:originalurl">video/InducedSubgraph/6.mp4</property>
  <property name="global_feed">1</property>
  <property name="kdenlive:original.mlt_type">producer</property>
  <property name="kdenlive:original.in">0</property>
  <property name="kdenlive:original.out">59</property>
  <property name="kdenlive:original.length">60</property>
  <property name="kdenlive:original.eof">pause</property>
  <property name="kdenlive:original.resource">video/InducedSubgraph/6.mp4</property>
  <property name="kdenlive:original.meta.media.nb_streams">1</property>
  <property name="kdenlive:original.meta.media.0.stream.type">video</property>
  <property name="kdenlive:original.meta.media.0.stream.frame_rate">60</property>
  <property name="kdenlive:original.meta.media.0.stream.sample_aspect_ratio">0</property>
  <property name="kdenlive:original.meta.media.0.codec.width">3840</property>
  <property name="kdenlive:original.meta.media.0.codec.height">2160</property>
  <property name="kdenlive:original.meta.media.0.codec.rotate">0</property>
  <property name="kdenlive:original.meta.media.0.codec.frame_rate">60</property>
  <property name="kdenlive:original.meta.media.0.codec.pix_fmt">yuv420p</property>
  <property name="kdenlive:original.meta.media.0.codec.sample_aspect_ratio">0</property>
  <property name="kdenlive:original.meta.media.0.codec.colorspace">709</property>
  <property name="kdenlive:original.meta.media.0.codec.name">h264</property>
  <property name="kdenlive:original.meta.media.0.codec.long_name">H.264 / AVC / MPEG-4 AVC / MPEG-4 part 10</property>
  <property name="kdenlive:original.meta.media.0.codec.bit_rate">1457192</property>
  <property name="kdenlive:original.meta.attr.0.stream.handler_name.markup">VideoHandler</property>
  <property name="kdenlive:original.meta.attr.0.stream.vendor_id.markup">[0][0][0][0]</property>
  <property name="kdenlive:original.meta.attr.major_brand.markup">isom</property>
  <property name="kdenlive:original.meta.attr.minor_version.markup">512</property>
  <property name="kdenlive:original.meta.attr.compatible_brands.markup">isomiso2avc1mp41</property>
  <property name="kdenlive:original.meta.attr.encoder.markup">Lavf58.76.100</property>
  <property name="kdenlive:original.meta.attr.comment.markup">Rendered with Manim Community v0.6.0</property>
  <property name="kdenlive:original.seekable">1</property>
  <property name="kdenlive:original.width">3840</property>
  <property name="kdenlive:original.height">2160</property>
  <property name="kdenlive:original.meta.media.sample_aspect_num">1</property>
  <property name="kdenlive:original.meta.media.sample_aspect_den">1</property>
  <property name="kdenlive:original.aspect_ratio">1</property>
  <property name="kdenlive:original.audio_index">-1</property>
  <property name="kdenlive:original.video_index">0</property>
  <property name="kdenlive:original.mute_on_pause">1</property>
  <property name="kdenlive:original.mlt_service">avformat</property>
  <property name="kdenlive:original.meta.media.frame_rate_num">60</property>
  <property name="kdenlive:original.meta.media.frame_rate_den">1</property>
  <property name="kdenlive:original.meta.media.colorspace">709</property>
  <property name="kdenlive:original.meta.media.color_trc">2</property>
  <property name="kdenlive:original.meta.media.width">3840</property>
  <property name="kdenlive:original.meta.media.height">2160</property>
  <property name="kdenlive:original.meta.media.color_range">mpeg</property>
  <property name="kdenlive:original.meta.media.top_field_first">0</property>
  <property name="kdenlive:original.meta.media.progressive">1</property>
  <property name="kdenlive:original.backup">1</property>
  <property name="xml">was here</property>
  <property name="meta.media.nb_streams">1</property>
  <property name="meta.media.0.stream.type">video</property>
  <property name="meta.media.0.stream.frame_rate">60</property>
  <property name="meta.media.0.stream.sample_aspect_ratio">0</property>
  <property name="meta.media.0.codec.width">640</property>
  <property name="meta.media.0.codec.height">360</property>
  <property name="meta.media.0.codec.rotate">0</property>
  <property name="meta.media.0.codec.frame_rate">60</property>
  <property name="meta.media.0.codec.pix_fmt">yuv420p</property>
  <property name="meta.media.0.codec.sample_aspect_ratio">0</property>
  <property name="meta.media.0.codec.colorspace">601</property>
  <property name="meta.media.0.codec.name">h264</property>
  <property name="meta.media.0.codec.long_name">H.264 / AVC / MPEG-4 AVC / MPEG-4 part 10</property>
  <property name="meta.media.0.codec.bit_rate">0</property>
  <property name="meta.attr.0.stream.HANDLER_NAME.markup">VideoHandler</property>
  <property name="meta.attr.0.stream.VENDOR_ID.markup">[0][0][0][0]</property>
  <property name="meta.attr.0.stream.ENCODER.markup">Lavc58.134.100 libx264</property>
  <property name="meta.attr.0.stream.DURATION.markup">00:00:01.000000000</property>
  <property name="meta.attr.COMMENT.markup">Rendered with Manim Community v0.6.0</property>
  <property name="meta.attr.MAJOR_BRAND.markup">isom</property>
  <property name="meta.attr.MINOR_VERSION.markup">512</property>
  <property name="meta.attr.COMPATIBLE_BRANDS.markup">isomiso2avc1mp41</property>
  <property name="meta.attr.ENCODER.markup">Lavf58.76.100</property>
  <property name="meta.media.sample_aspect_num">1</property>
  <property name="meta.media.sample_aspect_den">1</property>
  <property name="meta.media.frame_rate_num">60</property>
  <property name="meta.media.frame_rate_den">1</property>
  <property name="meta.media.colorspace">601</property>
  <property name="meta.media.color_trc">2</property>
  <property name="meta.media.width">640</property>
  <property name="meta.media.height">360</property>
  <property name="meta.media.color_range">mpeg</property>
  <property name="meta.media.top_field_first">0</property>
  <property name="meta.media.progressive">1</property>
  <property name="set.test_audio">1</property>
  <property name="set.test_image">0</property>
 </producer>
 <producer id="producer627" in="00:00:00.000" out="00:00:00.983">
  <property name="length">60</property>
  <property name="eof">pause</property>
  <property name="resource">/home/xiaoxiae/.cache/kdenlive/proxy/6c036b2d8081b1bfa9ad048494e8870e.mkv</property>
  <property name="audio_index">-1</property>
  <property name="video_index">0</property>
  <property name="mute_on_pause">0</property>
  <property name="mlt_service">avformat-novalidate</property>
  <property name="seekable">1</property>
  <property name="aspect_ratio">1</property>
  <property name="kdenlive:clipname">7.mp4</property>
  <property name="kdenlive:folderid">99</property>
  <property name="kdenlive:id">118</property>
  <property name="kdenlive:file_size">167455</property>
  <property name="kdenlive:file_hash">6c036b2d8081b1bfa9ad048494e8870e</property>
  <property name="kdenlive:proxy">/home/xiaoxiae/.cache/kdenlive/proxy/6c036b2d8081b1bfa9ad048494e8870e.mkv</property>
  <property name="kdenlive:originalurl">video/InducedSubgraph/7.mp4</property>
  <property name="global_feed">1</property>
  <property name="kdenlive:original.mlt_type">producer</property>
  <property name="kdenlive:original.in">0</property>
  <property name="kdenlive:original.out">59</property>
  <property name="kdenlive:original.length">60</property>
  <property name="kdenlive:original.eof">pause</property>
  <property name="kdenlive:original.resource">video/InducedSubgraph/7.mp4</property>
  <property name="kdenlive:original.meta.media.nb_streams">1</property>
  <property name="kdenlive:original.meta.media.0.stream.type">video</property>
  <property name="kdenlive:original.meta.media.0.stream.frame_rate">60</property>
  <property name="kdenlive:original.meta.media.0.stream.sample_aspect_ratio">0</property>
  <property name="kdenlive:original.meta.media.0.codec.width">3840</property>
  <property name="kdenlive:original.meta.media.0.codec.height">2160</property>
  <property name="kdenlive:original.meta.media.0.codec.rotate">0</property>
  <property name="kdenlive:original.meta.media.0.codec.frame_rate">60</property>
  <property name="kdenlive:original.meta.media.0.codec.pix_fmt">yuv420p</property>
  <property name="kdenlive:original.meta.media.0.codec.sample_aspect_ratio">0</property>
  <property name="kdenlive:original.meta.media.0.codec.colorspace">709</property>
  <property name="kdenlive:original.meta.media.0.codec.name">h264</property>
  <property name="kdenlive:original.meta.media.0.codec.long_name">H.264 / AVC / MPEG-4 AVC / MPEG-4 part 10</property>
  <property name="kdenlive:original.meta.media.0.codec.bit_rate">1326592</property>
  <property name="kdenlive:original.meta.attr.0.stream.handler_name.markup">VideoHandler</property>
  <property name="kdenlive:original.meta.attr.0.stream.vendor_id.markup">[0][0][0][0]</property>
  <property name="kdenlive:original.meta.attr.major_brand.markup">isom</property>
  <property name="kdenlive:original.meta.attr.minor_version.markup">512</property>
  <property name="kdenlive:original.meta.attr.compatible_brands.markup">isomiso2avc1mp41</property>
  <property name="kdenlive:original.meta.attr.encoder.markup">Lavf58.76.100</property>
  <property name="kdenlive:original.meta.attr.comment.markup">Rendered with Manim Community v0.6.0</property>
  <property name="kdenlive:original.seekable">1</property>
  <property name="kdenlive:original.width">3840</property>
  <property name="kdenlive:original.height">2160</property>
  <property name="kdenlive:original.meta.media.sample_aspect_num">1</property>
  <property name="kdenlive:original.meta.media.sample_aspect_den">1</property>
  <property name="kdenlive:original.aspect_ratio">1</property>
  <property name="kdenlive:original.audio_index">-1</property>
  <property name="kdenlive:original.video_index">0</property>
  <property name="kdenlive:original.mute_on_pause">1</property>
  <property name="kdenlive:original.mlt_service">avformat</property>
  <property name="kdenlive:original.meta.media.frame_rate_num">60</property>
  <property name="kdenlive:original.meta.media.frame_rate_den">1</property>
  <property name="kdenlive:original.meta.media.colorspace">709</property>
  <property name="kdenlive:original.meta.media.color_trc">2</property>
  <property name="kdenlive:original.meta.media.width">3840</property>
  <property name="kdenlive:original.meta.media.height">2160</property>
  <property name="kdenlive:original.meta.media.color_range">mpeg</property>
  <property name="kdenlive:original.meta.media.top_field_first">0</property>
  <property name="kdenlive:original.meta.media.progressive">1</property>
  <property name="kdenlive:original.backup">1</property>
  <property name="xml">was here</property>
  <property name="meta.media.nb_streams">1</property>
  <property name="meta.media.0.stream.type">video</property>
  <property name="meta.media.0.stream.frame_rate">60</property>
  <property name="meta.media.0.stream.sample_aspect_ratio">0</property>
  <property name="meta.media.0.codec.width">640</property>
  <property name="meta.media.0.codec.height">360</property>
  <property name="meta.media.0.codec.rotate">0</property>
  <property name="meta.media.0.codec.frame_rate">60</property>
  <property name="meta.media.0.codec.pix_fmt">yuv420p</property>
  <property name="meta.media.0.codec.sample_aspect_ratio">0</property>
  <property name="meta.media.0.codec.colorspace">601</property>
  <property name="meta.media.0.codec.name">h264</property>
  <property name="meta.media.0.codec.long_name">H.264 / AVC / MPEG-4 AVC / MPEG-4 part 10</property>
  <property name="meta.media.0.codec.bit_rate">0</property>
  <property name="meta.attr.0.stream.HANDLER_NAME.markup">VideoHandler</property>
  <property name="meta.attr.0.stream.VENDOR_ID.markup">[0][0][0][0]</property>
  <property name="meta.attr.0.stream.ENCODER.markup">Lavc58.134.100 libx264</property>
  <property name="meta.attr.0.stream.DURATION.markup">00:00:01.000000000</property>
  <property name="meta.attr.COMMENT.markup">Rendered with Manim Community v0.6.0</property>
  <property name="meta.attr.MAJOR_BRAND.markup">isom</property>
  <property name="meta.attr.MINOR_VERSION.markup">512</property>
  <property name="meta.attr.COMPATIBLE_BRANDS.markup">isomiso2avc1mp41</property>
  <property name="meta.attr.ENCODER.markup">Lavf58.76.100</property>
  <property name="meta.media.sample_aspect_num">1</property>
  <property name="meta.media.sample_aspect_den">1</property>
  <property name="meta.media.frame_rate_num">60</property>
  <property name="meta.media.frame_rate_den">1</property>
  <property name="meta.media.colorspace">601</property>
  <property name="meta.media.color_trc">2</property>
  <property name="meta.media.width">640</property>
  <property name="meta.media.height">360</property>
  <property name="meta.media.color_range">mpeg</property>
  <property name="meta.media.top_field_first">0</property>
  <property name="meta.media.progressive">1</property>
  <property name="set.test_audio">1</property>
  <property name="set.test_image">0</property>
 </producer>
 <producer id="producer628" in="00:00:00.000" out="00:00:00.983">
  <property name="length">60</property>
  <property name="eof">pause</property>
  <property name="resource">/home/xiaoxiae/.cache/kdenlive/proxy/6667e790b1e80a2ab31ca0368269b461.mkv</property>
  <property name="audio_index">-1</property>
  <property name="video_index">0</property>
  <property name="mute_on_pause">0</property>
  <property name="mlt_service">avformat-novalidate</property>
  <property name="seekable">1</property>
  <property name="aspect_ratio">1</property>
  <property name="kdenlive:clipname">8.mp4</property>
  <property name="kdenlive:folderid">99</property>
  <property name="kdenlive:id">120</property>
  <property name="kdenlive:file_size">214649</property>
  <property name="kdenlive:file_hash">6667e790b1e80a2ab31ca0368269b461</property>
  <property name="kdenlive:proxy">/home/xiaoxiae/.cache/kdenlive/proxy/6667e790b1e80a2ab31ca0368269b461.mkv</property>
  <property name="kdenlive:originalurl">video/InducedSubgraph/8.mp4</property>
  <property name="global_feed">1</property>
  <property name="kdenlive:original.mlt_type">producer</property>
  <property name="kdenlive:original.in">0</property>
  <property name="kdenlive:original.out">59</property>
  <property name="kdenlive:original.length">60</property>
  <property name="kdenlive:original.eof">pause</property>
  <property name="kdenlive:original.resource">video/InducedSubgraph/8.mp4</property>
  <property name="kdenlive:original.meta.media.nb_streams">1</property>
  <property name="kdenlive:original.meta.media.0.stream.type">video</property>
  <property name="kdenlive:original.meta.media.0.stream.frame_rate">60</property>
  <property name="kdenlive:original.meta.media.0.stream.sample_aspect_ratio">0</property>
  <property name="kdenlive:original.meta.media.0.codec.width">3840</property>
  <property name="kdenlive:original.meta.media.0.codec.height">2160</property>
  <property name="kdenlive:original.meta.media.0.codec.rotate">0</property>
  <property name="kdenlive:original.meta.media.0.codec.frame_rate">60</property>
  <property name="kdenlive:original.meta.media.0.codec.pix_fmt">yuv420p</property>
  <property name="kdenlive:original.meta.media.0.codec.sample_aspect_ratio">0</property>
  <property name="kdenlive:original.meta.media.0.codec.colorspace">709</property>
  <property name="kdenlive:original.meta.media.0.codec.name">h264</property>
  <property name="kdenlive:original.meta.media.0.codec.long_name">H.264 / AVC / MPEG-4 AVC / MPEG-4 part 10</property>
  <property name="kdenlive:original.meta.media.0.codec.bit_rate">1704144</property>
  <property name="kdenlive:original.meta.attr.0.stream.handler_name.markup">VideoHandler</property>
  <property name="kdenlive:original.meta.attr.0.stream.vendor_id.markup">[0][0][0][0]</property>
  <property name="kdenlive:original.meta.attr.major_brand.markup">isom</property>
  <property name="kdenlive:original.meta.attr.minor_version.markup">512</property>
  <property name="kdenlive:original.meta.attr.compatible_brands.markup">isomiso2avc1mp41</property>
  <property name="kdenlive:original.meta.attr.encoder.markup">Lavf58.76.100</property>
  <property name="kdenlive:original.meta.attr.comment.markup">Rendered with Manim Community v0.6.0</property>
  <property name="kdenlive:original.seekable">1</property>
  <property name="kdenlive:original.width">3840</property>
  <property name="kdenlive:original.height">2160</property>
  <property name="kdenlive:original.meta.media.sample_aspect_num">1</property>
  <property name="kdenlive:original.meta.media.sample_aspect_den">1</property>
  <property name="kdenlive:original.aspect_ratio">1</property>
  <property name="kdenlive:original.audio_index">-1</property>
  <property name="kdenlive:original.video_index">0</property>
  <property name="kdenlive:original.mute_on_pause">1</property>
  <property name="kdenlive:original.mlt_service">avformat</property>
  <property name="kdenlive:original.meta.media.frame_rate_num">60</property>
  <property name="kdenlive:original.meta.media.frame_rate_den">1</property>
  <property name="kdenlive:original.meta.media.colorspace">709</property>
  <property name="kdenlive:original.meta.media.color_trc">2</property>
  <property name="kdenlive:original.meta.media.width">3840</property>
  <property name="kdenlive:original.meta.media.height">2160</property>
  <property name="kdenlive:original.meta.media.color_range">mpeg</property>
  <property name="kdenlive:original.meta.media.top_field_first">0</property>
  <property name="kdenlive:original.meta.media.progressive">1</property>
  <property name="kdenlive:original.backup">1</property>
  <property name="xml">was here</property>
  <property name="meta.media.nb_streams">1</property>
  <property name="meta.media.0.stream.type">video</property>
  <property name="meta.media.0.stream.frame_rate">60</property>
  <property name="meta.media.0.stream.sample_aspect_ratio">0</property>
  <property name="meta.media.0.codec.width">640</property>
  <property name="meta.media.0.codec.height">360</property>
  <property name="meta.media.0.codec.rotate">0</property>
  <property name="meta.media.0.codec.frame_rate">60</property>
  <property name="meta.media.0.codec.pix_fmt">yuv420p</property>
  <property name="meta.media.0.codec.sample_aspect_ratio">0</property>
  <property name="meta.media.0.codec.colorspace">601</property>
  <property name="meta.media.0.codec.name">h264</property>
  <property name="meta.media.0.codec.long_name">H.264 / AVC / MPEG-4 AVC / MPEG-4 part 10</property>
  <property name="meta.media.0.codec.bit_rate">0</property>
  <property name="meta.attr.0.stream.HANDLER_NAME.markup">VideoHandler</property>
  <property name="meta.attr.0.stream.VENDOR_ID.markup">[0][0][0][0]</property>
  <property name="meta.attr.0.stream.ENCODER.markup">Lavc58.134.100 libx264</property>
  <property name="meta.attr.0.stream.DURATION.markup">00:00:01.000000000</property>
  <property name="meta.attr.COMMENT.markup">Rendered with Manim Community v0.6.0</property>
  <property name="meta.attr.MAJOR_BRAND.markup">isom</property>
  <property name="meta.attr.MINOR_VERSION.markup">512</property>
  <property name="meta.attr.COMPATIBLE_BRANDS.markup">isomiso2avc1mp41</property>
  <property name="meta.attr.ENCODER.markup">Lavf58.76.100</property>
  <property name="meta.media.sample_aspect_num">1</property>
  <property name="meta.media.sample_aspect_den">1</property>
  <property name="meta.media.frame_rate_num">60</property>
  <property name="meta.media.frame_rate_den">1</property>
  <property name="meta.media.colorspace">601</property>
  <property name="meta.media.color_trc">2</property>
  <property name="meta.media.width">640</property>
  <property name="meta.media.height">360</property>
  <property name="meta.media.color_range">mpeg</property>
  <property name="meta.media.top_field_first">0</property>
  <property name="meta.media.progressive">1</property>
  <property name="set.test_audio">1</property>
  <property name="set.test_image">0</property>
 </producer>
 <producer id="producer629" in="00:00:00.000" out="00:00:00.983">
  <property name="length">60</property>
  <property name="eof">pause</property>
  <property name="resource">/home/xiaoxiae/.cache/kdenlive/proxy/7cfbe62e8d6a9c87d54b6841be4e6dba.mkv</property>
  <property name="audio_index">-1</property>
  <property name="video_index">0</property>
  <property name="mute_on_pause">0</property>
  <property name="mlt_service">avformat-novalidate</property>
  <property name="seekable">1</property>
  <property name="aspect_ratio">1</property>
  <property name="kdenlive:clipname">9.mp4</property>
  <property name="kdenlive:folderid">99</property>
  <property name="kdenlive:id">122</property>
  <property name="kdenlive:file_size">171806</property>
  <property name="kdenlive:file_hash">7cfbe62e8d6a9c87d54b6841be4e6dba</property>
  <property name="kdenlive:proxy">/home/xiaoxiae/.cache/kdenlive/proxy/7cfbe62e8d6a9c87d54b6841be4e6dba.mkv</property>
  <property name="kdenlive:originalurl">video/InducedSubgraph/9.mp4</property>
  <property name="global_feed">1</property>
  <property name="kdenlive:original.mlt_type">producer</property>
  <property name="kdenlive:original.in">0</property>
  <property name="kdenlive:original.out">59</property>
  <property name="kdenlive:original.length">60</property>
  <property name="kdenlive:original.eof">pause</property>
  <property name="kdenlive:original.resource">video/InducedSubgraph/9.mp4</property>
  <property name="kdenlive:original.meta.media.nb_streams">1</property>
  <property name="kdenlive:original.meta.media.0.stream.type">video</property>
  <property name="kdenlive:original.meta.media.0.stream.frame_rate">60</property>
  <property name="kdenlive:original.meta.media.0.stream.sample_aspect_ratio">0</property>
  <property name="kdenlive:original.meta.media.0.codec.width">3840</property>
  <property name="kdenlive:original.meta.media.0.codec.height">2160</property>
  <property name="kdenlive:original.meta.media.0.codec.rotate">0</property>
  <property name="kdenlive:original.meta.media.0.codec.frame_rate">60</property>
  <property name="kdenlive:original.meta.media.0.codec.pix_fmt">yuv420p</property>
  <property name="kdenlive:original.meta.media.0.codec.sample_aspect_ratio">0</property>
  <property name="kdenlive:original.meta.media.0.codec.colorspace">709</property>
  <property name="kdenlive:original.meta.media.0.codec.name">h264</property>
  <property name="kdenlive:original.meta.media.0.codec.long_name">H.264 / AVC / MPEG-4 AVC / MPEG-4 part 10</property>
  <property name="kdenlive:original.meta.media.0.codec.bit_rate">1361400</property>
  <property name="kdenlive:original.meta.attr.0.stream.handler_name.markup">VideoHandler</property>
  <property name="kdenlive:original.meta.attr.0.stream.vendor_id.markup">[0][0][0][0]</property>
  <property name="kdenlive:original.meta.attr.major_brand.markup">isom</property>
  <property name="kdenlive:original.meta.attr.minor_version.markup">512</property>
  <property name="kdenlive:original.meta.attr.compatible_brands.markup">isomiso2avc1mp41</property>
  <property name="kdenlive:original.meta.attr.encoder.markup">Lavf58.76.100</property>
  <property name="kdenlive:original.meta.attr.comment.markup">Rendered with Manim Community v0.6.0</property>
  <property name="kdenlive:original.seekable">1</property>
  <property name="kdenlive:original.width">3840</property>
  <property name="kdenlive:original.height">2160</property>
  <property name="kdenlive:original.meta.media.sample_aspect_num">1</property>
  <property name="kdenlive:original.meta.media.sample_aspect_den">1</property>
  <property name="kdenlive:original.aspect_ratio">1</property>
  <property name="kdenlive:original.audio_index">-1</property>
  <property name="kdenlive:original.video_index">0</property>
  <property name="kdenlive:original.mute_on_pause">1</property>
  <property name="kdenlive:original.mlt_service">avformat</property>
  <property name="kdenlive:original.meta.media.frame_rate_num">60</property>
  <property name="kdenlive:original.meta.media.frame_rate_den">1</property>
  <property name="kdenlive:original.meta.media.colorspace">709</property>
  <property name="kdenlive:original.meta.media.color_trc">2</property>
  <property name="kdenlive:original.meta.media.width">3840</property>
  <property name="kdenlive:original.meta.media.height">2160</property>
  <property name="kdenlive:original.meta.media.color_range">mpeg</property>
  <property name="kdenlive:original.meta.media.top_field_first">0</property>
  <property name="kdenlive:original.meta.media.progressive">1</property>
  <property name="kdenlive:original.backup">1</property>
  <property name="xml">was here</property>
  <property name="meta.media.nb_streams">1</property>
  <property name="meta.media.0.stream.type">video</property>
  <property name="meta.media.0.stream.frame_rate">60</property>
  <property name="meta.media.0.stream.sample_aspect_ratio">0</property>
  <property name="meta.media.0.codec.width">640</property>
  <property name="meta.media.0.codec.height">360</property>
  <property name="meta.media.0.codec.rotate">0</property>
  <property name="meta.media.0.codec.frame_rate">60</property>
  <property name="meta.media.0.codec.pix_fmt">yuv420p</property>
  <property name="meta.media.0.codec.sample_aspect_ratio">0</property>
  <property name="meta.media.0.codec.colorspace">601</property>
  <property name="meta.media.0.codec.name">h264</property>
  <property name="meta.media.0.codec.long_name">H.264 / AVC / MPEG-4 AVC / MPEG-4 part 10</property>
  <property name="meta.media.0.codec.bit_rate">0</property>
  <property name="meta.attr.0.stream.HANDLER_NAME.markup">VideoHandler</property>
  <property name="meta.attr.0.stream.VENDOR_ID.markup">[0][0][0][0]</property>
  <property name="meta.attr.0.stream.ENCODER.markup">Lavc58.134.100 libx264</property>
  <property name="meta.attr.0.stream.DURATION.markup">00:00:01.000000000</property>
  <property name="meta.attr.COMMENT.markup">Rendered with Manim Community v0.6.0</property>
  <property name="meta.attr.MAJOR_BRAND.markup">isom</property>
  <property name="meta.attr.MINOR_VERSION.markup">512</property>
  <property name="meta.attr.COMPATIBLE_BRANDS.markup">isomiso2avc1mp41</property>
  <property name="meta.attr.ENCODER.markup">Lavf58.76.100</property>
  <property name="meta.media.sample_aspect_num">1</property>
  <property name="meta.media.sample_aspect_den">1</property>
  <property name="meta.media.frame_rate_num">60</property>
  <property name="meta.media.frame_rate_den">1</property>
  <property name="meta.media.colorspace">601</property>
  <property name="meta.media.color_trc">2</property>
  <property name="meta.media.width">640</property>
  <property name="meta.media.height">360</property>
  <property name="meta.media.color_range">mpeg</property>
  <property name="meta.media.top_field_first">0</property>
  <property name="meta.media.progressive">1</property>
  <property name="set.test_audio">1</property>
  <property name="set.test_image">0</property>
 </producer>
 <producer id="producer630" in="00:00:00.000" out="00:00:00.983">
  <property name="length">60</property>
  <property name="eof">pause</property>
  <property name="resource">/home/xiaoxiae/.cache/kdenlive/proxy/75c3f51e3976b61f27f0923c4eef01bd.mkv</property>
  <property name="audio_index">-1</property>
  <property name="video_index">0</property>
  <property name="mute_on_pause">0</property>
  <property name="mlt_service">avformat-novalidate</property>
  <property name="seekable">1</property>
  <property name="aspect_ratio">1</property>
  <property name="kdenlive:clipname">10.mp4</property>
  <property name="kdenlive:folderid">99</property>
  <property name="kdenlive:id">102</property>
  <property name="kdenlive:file_size">139572</property>
  <property name="kdenlive:file_hash">75c3f51e3976b61f27f0923c4eef01bd</property>
  <property name="kdenlive:proxy">/home/xiaoxiae/.cache/kdenlive/proxy/75c3f51e3976b61f27f0923c4eef01bd.mkv</property>
  <property name="kdenlive:originalurl">video/InducedSubgraph/10.mp4</property>
  <property name="global_feed">1</property>
  <property name="kdenlive:original.mlt_type">producer</property>
  <property name="kdenlive:original.in">0</property>
  <property name="kdenlive:original.out">59</property>
  <property name="kdenlive:original.length">60</property>
  <property name="kdenlive:original.eof">pause</property>
  <property name="kdenlive:original.resource">video/InducedSubgraph/10.mp4</property>
  <property name="kdenlive:original.meta.media.nb_streams">1</property>
  <property name="kdenlive:original.meta.media.0.stream.type">video</property>
  <property name="kdenlive:original.meta.media.0.stream.frame_rate">60</property>
  <property name="kdenlive:original.meta.media.0.stream.sample_aspect_ratio">0</property>
  <property name="kdenlive:original.meta.media.0.codec.width">3840</property>
  <property name="kdenlive:original.meta.media.0.codec.height">2160</property>
  <property name="kdenlive:original.meta.media.0.codec.rotate">0</property>
  <property name="kdenlive:original.meta.media.0.codec.frame_rate">60</property>
  <property name="kdenlive:original.meta.media.0.codec.pix_fmt">yuv420p</property>
  <property name="kdenlive:original.meta.media.0.codec.sample_aspect_ratio">0</property>
  <property name="kdenlive:original.meta.media.0.codec.colorspace">709</property>
  <property name="kdenlive:original.meta.media.0.codec.name">h264</property>
  <property name="kdenlive:original.meta.media.0.codec.long_name">H.264 / AVC / MPEG-4 AVC / MPEG-4 part 10</property>
  <property name="kdenlive:original.meta.media.0.codec.bit_rate">1103528</property>
  <property name="kdenlive:original.meta.attr.0.stream.handler_name.markup">VideoHandler</property>
  <property name="kdenlive:original.meta.attr.0.stream.vendor_id.markup">[0][0][0][0]</property>
  <property name="kdenlive:original.meta.attr.major_brand.markup">isom</property>
  <property name="kdenlive:original.meta.attr.minor_version.markup">512</property>
  <property name="kdenlive:original.meta.attr.compatible_brands.markup">isomiso2avc1mp41</property>
  <property name="kdenlive:original.meta.attr.encoder.markup">Lavf58.76.100</property>
  <property name="kdenlive:original.meta.attr.comment.markup">Rendered with Manim Community v0.6.0</property>
  <property name="kdenlive:original.seekable">1</property>
  <property name="kdenlive:original.width">3840</property>
  <property name="kdenlive:original.height">2160</property>
  <property name="kdenlive:original.meta.media.sample_aspect_num">1</property>
  <property name="kdenlive:original.meta.media.sample_aspect_den">1</property>
  <property name="kdenlive:original.aspect_ratio">1</property>
  <property name="kdenlive:original.audio_index">-1</property>
  <property name="kdenlive:original.video_index">0</property>
  <property name="kdenlive:original.mute_on_pause">1</property>
  <property name="kdenlive:original.mlt_service">avformat</property>
  <property name="kdenlive:original.meta.media.frame_rate_num">60</property>
  <property name="kdenlive:original.meta.media.frame_rate_den">1</property>
  <property name="kdenlive:original.meta.media.colorspace">709</property>
  <property name="kdenlive:original.meta.media.color_trc">2</property>
  <property name="kdenlive:original.meta.media.width">3840</property>
  <property name="kdenlive:original.meta.media.height">2160</property>
  <property name="kdenlive:original.meta.media.color_range">mpeg</property>
  <property name="kdenlive:original.meta.media.top_field_first">0</property>
  <property name="kdenlive:original.meta.media.progressive">1</property>
  <property name="kdenlive:original.backup">1</property>
  <property name="xml">was here</property>
  <property name="meta.media.nb_streams">1</property>
  <property name="meta.media.0.stream.type">video</property>
  <property name="meta.media.0.stream.frame_rate">60</property>
  <property name="meta.media.0.stream.sample_aspect_ratio">0</property>
  <property name="meta.media.0.codec.width">640</property>
  <property name="meta.media.0.codec.height">360</property>
  <property name="meta.media.0.codec.rotate">0</property>
  <property name="meta.media.0.codec.frame_rate">60</property>
  <property name="meta.media.0.codec.pix_fmt">yuv420p</property>
  <property name="meta.media.0.codec.sample_aspect_ratio">0</property>
  <property name="meta.media.0.codec.colorspace">601</property>
  <property name="meta.media.0.codec.name">h264</property>
  <property name="meta.media.0.codec.long_name">H.264 / AVC / MPEG-4 AVC / MPEG-4 part 10</property>
  <property name="meta.media.0.codec.bit_rate">0</property>
  <property name="meta.attr.0.stream.HANDLER_NAME.markup">VideoHandler</property>
  <property name="meta.attr.0.stream.VENDOR_ID.markup">[0][0][0][0]</property>
  <property name="meta.attr.0.stream.ENCODER.markup">Lavc58.134.100 libx264</property>
  <property name="meta.attr.0.stream.DURATION.markup">00:00:01.000000000</property>
  <property name="meta.attr.COMMENT.markup">Rendered with Manim Community v0.6.0</property>
  <property name="meta.attr.MAJOR_BRAND.markup">isom</property>
  <property name="meta.attr.MINOR_VERSION.markup">512</property>
  <property name="meta.attr.COMPATIBLE_BRANDS.markup">isomiso2avc1mp41</property>
  <property name="meta.attr.ENCODER.markup">Lavf58.76.100</property>
  <property name="meta.media.sample_aspect_num">1</property>
  <property name="meta.media.sample_aspect_den">1</property>
  <property name="meta.media.frame_rate_num">60</property>
  <property name="meta.media.frame_rate_den">1</property>
  <property name="meta.media.colorspace">601</property>
  <property name="meta.media.color_trc">2</property>
  <property name="meta.media.width">640</property>
  <property name="meta.media.height">360</property>
  <property name="meta.media.color_range">mpeg</property>
  <property name="meta.media.top_field_first">0</property>
  <property name="meta.media.progressive">1</property>
  <property name="set.test_audio">1</property>
  <property name="set.test_image">0</property>
 </producer>
 <producer id="producer631" in="00:00:00.000" out="00:00:00.983">
  <property name="length">60</property>
  <property name="eof">pause</property>
  <property name="resource">/home/xiaoxiae/.cache/kdenlive/proxy/3d6eac3cb75df528b8650e2e54b2d093.mkv</property>
  <property name="audio_index">-1</property>
  <property name="video_index">0</property>
  <property name="mute_on_pause">0</property>
  <property name="mlt_service">avformat-novalidate</property>
  <property name="seekable">1</property>
  <property name="aspect_ratio">1</property>
  <property name="kdenlive:clipname">11.mp4</property>
  <property name="kdenlive:folderid">99</property>
  <property name="kdenlive:id">104</property>
  <property name="kdenlive:file_size">133465</property>
  <property name="kdenlive:file_hash">3d6eac3cb75df528b8650e2e54b2d093</property>
  <property name="kdenlive:proxy">/home/xiaoxiae/.cache/kdenlive/proxy/3d6eac3cb75df528b8650e2e54b2d093.mkv</property>
  <property name="kdenlive:originalurl">video/InducedSubgraph/11.mp4</property>
  <property name="global_feed">1</property>
  <property name="kdenlive:original.mlt_type">producer</property>
  <property name="kdenlive:original.in">0</property>
  <property name="kdenlive:original.out">59</property>
  <property name="kdenlive:original.length">60</property>
  <property name="kdenlive:original.eof">pause</property>
  <property name="kdenlive:original.resource">video/InducedSubgraph/11.mp4</property>
  <property name="kdenlive:original.meta.media.nb_streams">1</property>
  <property name="kdenlive:original.meta.media.0.stream.type">video</property>
  <property name="kdenlive:original.meta.media.0.stream.frame_rate">60</property>
  <property name="kdenlive:original.meta.media.0.stream.sample_aspect_ratio">0</property>
  <property name="kdenlive:original.meta.media.0.codec.width">3840</property>
  <property name="kdenlive:original.meta.media.0.codec.height">2160</property>
  <property name="kdenlive:original.meta.media.0.codec.rotate">0</property>
  <property name="kdenlive:original.meta.media.0.codec.frame_rate">60</property>
  <property name="kdenlive:original.meta.media.0.codec.pix_fmt">yuv420p</property>
  <property name="kdenlive:original.meta.media.0.codec.sample_aspect_ratio">0</property>
  <property name="kdenlive:original.meta.media.0.codec.colorspace">709</property>
  <property name="kdenlive:original.meta.media.0.codec.name">h264</property>
  <property name="kdenlive:original.meta.media.0.codec.long_name">H.264 / AVC / MPEG-4 AVC / MPEG-4 part 10</property>
  <property name="kdenlive:original.meta.media.0.codec.bit_rate">1054672</property>
  <property name="kdenlive:original.meta.attr.0.stream.handler_name.markup">VideoHandler</property>
  <property name="kdenlive:original.meta.attr.0.stream.vendor_id.markup">[0][0][0][0]</property>
  <property name="kdenlive:original.meta.attr.major_brand.markup">isom</property>
  <property name="kdenlive:original.meta.attr.minor_version.markup">512</property>
  <property name="kdenlive:original.meta.attr.compatible_brands.markup">isomiso2avc1mp41</property>
  <property name="kdenlive:original.meta.attr.encoder.markup">Lavf58.76.100</property>
  <property name="kdenlive:original.meta.attr.comment.markup">Rendered with Manim Community v0.6.0</property>
  <property name="kdenlive:original.seekable">1</property>
  <property name="kdenlive:original.width">3840</property>
  <property name="kdenlive:original.height">2160</property>
  <property name="kdenlive:original.meta.media.sample_aspect_num">1</property>
  <property name="kdenlive:original.meta.media.sample_aspect_den">1</property>
  <property name="kdenlive:original.aspect_ratio">1</property>
  <property name="kdenlive:original.audio_index">-1</property>
  <property name="kdenlive:original.video_index">0</property>
  <property name="kdenlive:original.mute_on_pause">1</property>
  <property name="kdenlive:original.mlt_service">avformat</property>
  <property name="kdenlive:original.meta.media.frame_rate_num">60</property>
  <property name="kdenlive:original.meta.media.frame_rate_den">1</property>
  <property name="kdenlive:original.meta.media.colorspace">709</property>
  <property name="kdenlive:original.meta.media.color_trc">2</property>
  <property name="kdenlive:original.meta.media.width">3840</property>
  <property name="kdenlive:original.meta.media.height">2160</property>
  <property name="kdenlive:original.meta.media.color_range">mpeg</property>
  <property name="kdenlive:original.meta.media.top_field_first">0</property>
  <property name="kdenlive:original.meta.media.progressive">1</property>
  <property name="kdenlive:original.backup">1</property>
  <property name="xml">was here</property>
  <property name="meta.media.nb_streams">1</property>
  <property name="meta.media.0.stream.type">video</property>
  <property name="meta.media.0.stream.frame_rate">60</property>
  <property name="meta.media.0.stream.sample_aspect_ratio">0</property>
  <property name="meta.media.0.codec.width">640</property>
  <property name="meta.media.0.codec.height">360</property>
  <property name="meta.media.0.codec.rotate">0</property>
  <property name="meta.media.0.codec.frame_rate">60</property>
  <property name="meta.media.0.codec.pix_fmt">yuv420p</property>
  <property name="meta.media.0.codec.sample_aspect_ratio">0</property>
  <property name="meta.media.0.codec.colorspace">601</property>
  <property name="meta.media.0.codec.name">h264</property>
  <property name="meta.media.0.codec.long_name">H.264 / AVC / MPEG-4 AVC / MPEG-4 part 10</property>
  <property name="meta.media.0.codec.bit_rate">0</property>
  <property name="meta.attr.0.stream.HANDLER_NAME.markup">VideoHandler</property>
  <property name="meta.attr.0.stream.VENDOR_ID.markup">[0][0][0][0]</property>
  <property name="meta.attr.0.stream.ENCODER.markup">Lavc58.134.100 libx264</property>
  <property name="meta.attr.0.stream.DURATION.markup">00:00:01.000000000</property>
  <property name="meta.attr.COMMENT.markup">Rendered with Manim Community v0.6.0</property>
  <property name="meta.attr.MAJOR_BRAND.markup">isom</property>
  <property name="meta.attr.MINOR_VERSION.markup">512</property>
  <property name="meta.attr.COMPATIBLE_BRANDS.markup">isomiso2avc1mp41</property>
  <property name="meta.attr.ENCODER.markup">Lavf58.76.100</property>
  <property name="meta.media.sample_aspect_num">1</property>
  <property name="meta.media.sample_aspect_den">1</property>
  <property name="meta.media.frame_rate_num">60</property>
  <property name="meta.media.frame_rate_den">1</property>
  <property name="meta.media.colorspace">601</property>
  <property name="meta.media.color_trc">2</property>
  <property name="meta.media.width">640</property>
  <property name="meta.media.height">360</property>
  <property name="meta.media.color_range">mpeg</property>
  <property name="meta.media.top_field_first">0</property>
  <property name="meta.media.progressive">1</property>
  <property name="set.test_audio">1</property>
  <property name="set.test_image">0</property>
 </producer>
 <producer id="producer632" in="00:00:00.000" out="00:00:00.983">
  <property name="length">60</property>
  <property name="eof">pause</property>
  <property name="resource">/home/xiaoxiae/.cache/kdenlive/proxy/416bd5f0d1ff2aea2e7df82952d40a51.mkv</property>
  <property name="audio_index">-1</property>
  <property name="video_index">0</property>
  <property name="mute_on_pause">0</property>
  <property name="mlt_service">avformat-novalidate</property>
  <property name="seekable">1</property>
  <property name="aspect_ratio">1</property>
  <property name="kdenlive:clipname">12.mp4</property>
  <property name="kdenlive:folderid">99</property>
  <property name="kdenlive:id">106</property>
  <property name="kdenlive:file_size">129957</property>
  <property name="kdenlive:file_hash">416bd5f0d1ff2aea2e7df82952d40a51</property>
  <property name="kdenlive:proxy">/home/xiaoxiae/.cache/kdenlive/proxy/416bd5f0d1ff2aea2e7df82952d40a51.mkv</property>
  <property name="kdenlive:originalurl">video/InducedSubgraph/12.mp4</property>
  <property name="global_feed">1</property>
  <property name="kdenlive:original.mlt_type">producer</property>
  <property name="kdenlive:original.in">0</property>
  <property name="kdenlive:original.out">59</property>
  <property name="kdenlive:original.length">60</property>
  <property name="kdenlive:original.eof">pause</property>
  <property name="kdenlive:original.resource">video/InducedSubgraph/12.mp4</property>
  <property name="kdenlive:original.meta.media.nb_streams">1</property>
  <property name="kdenlive:original.meta.media.0.stream.type">video</property>
  <property name="kdenlive:original.meta.media.0.stream.frame_rate">60</property>
  <property name="kdenlive:original.meta.media.0.stream.sample_aspect_ratio">0</property>
  <property name="kdenlive:original.meta.media.0.codec.width">3840</property>
  <property name="kdenlive:original.meta.media.0.codec.height">2160</property>
  <property name="kdenlive:original.meta.media.0.codec.rotate">0</property>
  <property name="kdenlive:original.meta.media.0.codec.frame_rate">60</property>
  <property name="kdenlive:original.meta.media.0.codec.pix_fmt">yuv420p</property>
  <property name="kdenlive:original.meta.media.0.codec.sample_aspect_ratio">0</property>
  <property name="kdenlive:original.meta.media.0.codec.colorspace">709</property>
  <property name="kdenlive:original.meta.media.0.codec.name">h264</property>
  <property name="kdenlive:original.meta.media.0.codec.long_name">H.264 / AVC / MPEG-4 AVC / MPEG-4 part 10</property>
  <property name="kdenlive:original.meta.media.0.codec.bit_rate">1026544</property>
  <property name="kdenlive:original.meta.attr.0.stream.handler_name.markup">VideoHandler</property>
  <property name="kdenlive:original.meta.attr.0.stream.vendor_id.markup">[0][0][0][0]</property>
  <property name="kdenlive:original.meta.attr.major_brand.markup">isom</property>
  <property name="kdenlive:original.meta.attr.minor_version.markup">512</property>
  <property name="kdenlive:original.meta.attr.compatible_brands.markup">isomiso2avc1mp41</property>
  <property name="kdenlive:original.meta.attr.encoder.markup">Lavf58.76.100</property>
  <property name="kdenlive:original.meta.attr.comment.markup">Rendered with Manim Community v0.6.0</property>
  <property name="kdenlive:original.seekable">1</property>
  <property name="kdenlive:original.width">3840</property>
  <property name="kdenlive:original.height">2160</property>
  <property name="kdenlive:original.meta.media.sample_aspect_num">1</property>
  <property name="kdenlive:original.meta.media.sample_aspect_den">1</property>
  <property name="kdenlive:original.aspect_ratio">1</property>
  <property name="kdenlive:original.audio_index">-1</property>
  <property name="kdenlive:original.video_index">0</property>
  <property name="kdenlive:original.mute_on_pause">1</property>
  <property name="kdenlive:original.mlt_service">avformat</property>
  <property name="kdenlive:original.meta.media.frame_rate_num">60</property>
  <property name="kdenlive:original.meta.media.frame_rate_den">1</property>
  <property name="kdenlive:original.meta.media.colorspace">709</property>
  <property name="kdenlive:original.meta.media.color_trc">2</property>
  <property name="kdenlive:original.meta.media.width">3840</property>
  <property name="kdenlive:original.meta.media.height">2160</property>
  <property name="kdenlive:original.meta.media.color_range">mpeg</property>
  <property name="kdenlive:original.meta.media.top_field_first">0</property>
  <property name="kdenlive:original.meta.media.progressive">1</property>
  <property name="kdenlive:original.backup">1</property>
  <property name="xml">was here</property>
  <property name="meta.media.nb_streams">1</property>
  <property name="meta.media.0.stream.type">video</property>
  <property name="meta.media.0.stream.frame_rate">60</property>
  <property name="meta.media.0.stream.sample_aspect_ratio">0</property>
  <property name="meta.media.0.codec.width">640</property>
  <property name="meta.media.0.codec.height">360</property>
  <property name="meta.media.0.codec.rotate">0</property>
  <property name="meta.media.0.codec.frame_rate">60</property>
  <property name="meta.media.0.codec.pix_fmt">yuv420p</property>
  <property name="meta.media.0.codec.sample_aspect_ratio">0</property>
  <property name="meta.media.0.codec.colorspace">601</property>
  <property name="meta.media.0.codec.name">h264</property>
  <property name="meta.media.0.codec.long_name">H.264 / AVC / MPEG-4 AVC / MPEG-4 part 10</property>
  <property name="meta.media.0.codec.bit_rate">0</property>
  <property name="meta.attr.0.stream.HANDLER_NAME.markup">VideoHandler</property>
  <property name="meta.attr.0.stream.VENDOR_ID.markup">[0][0][0][0]</property>
  <property name="meta.attr.0.stream.ENCODER.markup">Lavc58.134.100 libx264</property>
  <property name="meta.attr.0.stream.DURATION.markup">00:00:01.000000000</property>
  <property name="meta.attr.COMMENT.markup">Rendered with Manim Community v0.6.0</property>
  <property name="meta.attr.MAJOR_BRAND.markup">isom</property>
  <property name="meta.attr.MINOR_VERSION.markup">512</property>
  <property name="meta.attr.COMPATIBLE_BRANDS.markup">isomiso2avc1mp41</property>
  <property name="meta.attr.ENCODER.markup">Lavf58.76.100</property>
  <property name="meta.media.sample_aspect_num">1</property>
  <property name="meta.media.sample_aspect_den">1</property>
  <property name="meta.media.frame_rate_num">60</property>
  <property name="meta.media.frame_rate_den">1</property>
  <property name="meta.media.colorspace">601</property>
  <property name="meta.media.color_trc">2</property>
  <property name="meta.media.width">640</property>
  <property name="meta.media.height">360</property>
  <property name="meta.media.color_range">mpeg</property>
  <property name="meta.media.top_field_first">0</property>
  <property name="meta.media.progressive">1</property>
  <property name="set.test_audio">1</property>
  <property name="set.test_image">0</property>
 </producer>
 <producer id="producer633" in="00:00:00.000" out="00:00:01.983">
  <property name="length">120</property>
  <property name="eof">pause</property>
  <property name="resource">/home/xiaoxiae/.cache/kdenlive/proxy/aa027341d9a4eb929a290f4bdab212f9.mkv</property>
  <property name="audio_index">-1</property>
  <property name="video_index">0</property>
  <property name="mute_on_pause">0</property>
  <property name="mlt_service">avformat-novalidate</property>
  <property name="seekable">1</property>
  <property name="aspect_ratio">1</property>
  <property name="kdenlive:clipname">1.mp4</property>
  <property name="kdenlive:folderid">14</property>
  <property name="kdenlive:id">15</property>
  <property name="kdenlive:file_size">105977</property>
  <property name="kdenlive:file_hash">aa027341d9a4eb929a290f4bdab212f9</property>
  <property name="kdenlive:proxy">/home/xiaoxiae/.cache/kdenlive/proxy/aa027341d9a4eb929a290f4bdab212f9.mkv</property>
  <property name="kdenlive:originalurl">video/ChromaticNumber/1.mp4</property>
  <property name="global_feed">1</property>
  <property name="kdenlive:original.mlt_type">producer</property>
  <property name="kdenlive:original.in">0</property>
  <property name="kdenlive:original.out">119</property>
  <property name="kdenlive:original.length">120</property>
  <property name="kdenlive:original.eof">pause</property>
  <property name="kdenlive:original.resource">video/ChromaticNumber/1.mp4</property>
  <property name="kdenlive:original.meta.media.nb_streams">1</property>
  <property name="kdenlive:original.meta.media.0.stream.type">video</property>
  <property name="kdenlive:original.meta.media.0.stream.frame_rate">60</property>
  <property name="kdenlive:original.meta.media.0.stream.sample_aspect_ratio">0</property>
  <property name="kdenlive:original.meta.media.0.codec.width">3840</property>
  <property name="kdenlive:original.meta.media.0.codec.height">2160</property>
  <property name="kdenlive:original.meta.media.0.codec.rotate">0</property>
  <property name="kdenlive:original.meta.media.0.codec.frame_rate">60</property>
  <property name="kdenlive:original.meta.media.0.codec.pix_fmt">yuv420p</property>
  <property name="kdenlive:original.meta.media.0.codec.sample_aspect_ratio">0</property>
  <property name="kdenlive:original.meta.media.0.codec.colorspace">709</property>
  <property name="kdenlive:original.meta.media.0.codec.name">h264</property>
  <property name="kdenlive:original.meta.media.0.codec.long_name">H.264 / AVC / MPEG-4 AVC / MPEG-4 part 10</property>
  <property name="kdenlive:original.meta.media.0.codec.bit_rate">414504</property>
  <property name="kdenlive:original.meta.attr.0.stream.handler_name.markup">VideoHandler</property>
  <property name="kdenlive:original.meta.attr.0.stream.vendor_id.markup">[0][0][0][0]</property>
  <property name="kdenlive:original.meta.attr.major_brand.markup">isom</property>
  <property name="kdenlive:original.meta.attr.minor_version.markup">512</property>
  <property name="kdenlive:original.meta.attr.compatible_brands.markup">isomiso2avc1mp41</property>
  <property name="kdenlive:original.meta.attr.encoder.markup">Lavf58.76.100</property>
  <property name="kdenlive:original.meta.attr.comment.markup">Rendered with Manim Community v0.6.0</property>
  <property name="kdenlive:original.seekable">1</property>
  <property name="kdenlive:original.width">3840</property>
  <property name="kdenlive:original.height">2160</property>
  <property name="kdenlive:original.meta.media.sample_aspect_num">1</property>
  <property name="kdenlive:original.meta.media.sample_aspect_den">1</property>
  <property name="kdenlive:original.aspect_ratio">1</property>
  <property name="kdenlive:original.audio_index">-1</property>
  <property name="kdenlive:original.video_index">0</property>
  <property name="kdenlive:original.mute_on_pause">1</property>
  <property name="kdenlive:original.mlt_service">avformat</property>
  <property name="kdenlive:original.meta.media.frame_rate_num">60</property>
  <property name="kdenlive:original.meta.media.frame_rate_den">1</property>
  <property name="kdenlive:original.meta.media.colorspace">709</property>
  <property name="kdenlive:original.meta.media.color_trc">2</property>
  <property name="kdenlive:original.meta.media.width">3840</property>
  <property name="kdenlive:original.meta.media.height">2160</property>
  <property name="kdenlive:original.meta.media.color_range">mpeg</property>
  <property name="kdenlive:original.meta.media.top_field_first">0</property>
  <property name="kdenlive:original.meta.media.progressive">1</property>
  <property name="kdenlive:original.backup">1</property>
  <property name="xml">was here</property>
  <property name="meta.media.nb_streams">1</property>
  <property name="meta.media.0.stream.type">video</property>
  <property name="meta.media.0.stream.frame_rate">60</property>
  <property name="meta.media.0.stream.sample_aspect_ratio">0</property>
  <property name="meta.media.0.codec.width">640</property>
  <property name="meta.media.0.codec.height">360</property>
  <property name="meta.media.0.codec.rotate">0</property>
  <property name="meta.media.0.codec.frame_rate">60</property>
  <property name="meta.media.0.codec.pix_fmt">yuv420p</property>
  <property name="meta.media.0.codec.sample_aspect_ratio">0</property>
  <property name="meta.media.0.codec.colorspace">601</property>
  <property name="meta.media.0.codec.name">h264</property>
  <property name="meta.media.0.codec.long_name">H.264 / AVC / MPEG-4 AVC / MPEG-4 part 10</property>
  <property name="meta.media.0.codec.bit_rate">0</property>
  <property name="meta.attr.0.stream.HANDLER_NAME.markup">VideoHandler</property>
  <property name="meta.attr.0.stream.VENDOR_ID.markup">[0][0][0][0]</property>
  <property name="meta.attr.0.stream.ENCODER.markup">Lavc58.134.100 libx264</property>
  <property name="meta.attr.0.stream.DURATION.markup">00:00:02.000000000</property>
  <property name="meta.attr.COMMENT.markup">Rendered with Manim Community v0.6.0</property>
  <property name="meta.attr.MAJOR_BRAND.markup">isom</property>
  <property name="meta.attr.MINOR_VERSION.markup">512</property>
  <property name="meta.attr.COMPATIBLE_BRANDS.markup">isomiso2avc1mp41</property>
  <property name="meta.attr.ENCODER.markup">Lavf58.76.100</property>
  <property name="meta.media.sample_aspect_num">1</property>
  <property name="meta.media.sample_aspect_den">1</property>
  <property name="meta.media.frame_rate_num">60</property>
  <property name="meta.media.frame_rate_den">1</property>
  <property name="meta.media.colorspace">601</property>
  <property name="meta.media.color_trc">2</property>
  <property name="meta.media.width">640</property>
  <property name="meta.media.height">360</property>
  <property name="meta.media.color_range">mpeg</property>
  <property name="meta.media.top_field_first">0</property>
  <property name="meta.media.progressive">1</property>
  <property name="set.test_audio">1</property>
  <property name="set.test_image">0</property>
 </producer>
 <producer id="producer634" in="00:00:00.000" out="00:00:00.983">
  <property name="length">60</property>
  <property name="eof">pause</property>
  <property name="resource">/home/xiaoxiae/.cache/kdenlive/proxy/da4fac5e64e7cf23ad7ff195075bb88f.mkv</property>
  <property name="audio_index">-1</property>
  <property name="video_index">0</property>
  <property name="mute_on_pause">0</property>
  <property name="mlt_service">avformat-novalidate</property>
  <property name="seekable">1</property>
  <property name="aspect_ratio">1</property>
  <property name="kdenlive:clipname">2.mp4</property>
  <property name="kdenlive:folderid">14</property>
  <property name="kdenlive:id">17</property>
  <property name="kdenlive:file_size">81742</property>
  <property name="kdenlive:file_hash">da4fac5e64e7cf23ad7ff195075bb88f</property>
  <property name="kdenlive:proxy">/home/xiaoxiae/.cache/kdenlive/proxy/da4fac5e64e7cf23ad7ff195075bb88f.mkv</property>
  <property name="kdenlive:originalurl">video/ChromaticNumber/2.mp4</property>
  <property name="global_feed">1</property>
  <property name="kdenlive:original.mlt_type">producer</property>
  <property name="kdenlive:original.in">0</property>
  <property name="kdenlive:original.out">59</property>
  <property name="kdenlive:original.length">60</property>
  <property name="kdenlive:original.eof">pause</property>
  <property name="kdenlive:original.resource">video/ChromaticNumber/2.mp4</property>
  <property name="kdenlive:original.meta.media.nb_streams">1</property>
  <property name="kdenlive:original.meta.media.0.stream.type">video</property>
  <property name="kdenlive:original.meta.media.0.stream.frame_rate">60</property>
  <property name="kdenlive:original.meta.media.0.stream.sample_aspect_ratio">0</property>
  <property name="kdenlive:original.meta.media.0.codec.width">3840</property>
  <property name="kdenlive:original.meta.media.0.codec.height">2160</property>
  <property name="kdenlive:original.meta.media.0.codec.rotate">0</property>
  <property name="kdenlive:original.meta.media.0.codec.frame_rate">60</property>
  <property name="kdenlive:original.meta.media.0.codec.pix_fmt">yuv420p</property>
  <property name="kdenlive:original.meta.media.0.codec.sample_aspect_ratio">0</property>
  <property name="kdenlive:original.meta.media.0.codec.colorspace">709</property>
  <property name="kdenlive:original.meta.media.0.codec.name">h264</property>
  <property name="kdenlive:original.meta.media.0.codec.long_name">H.264 / AVC / MPEG-4 AVC / MPEG-4 part 10</property>
  <property name="kdenlive:original.meta.media.0.codec.bit_rate">641400</property>
  <property name="kdenlive:original.meta.attr.0.stream.handler_name.markup">VideoHandler</property>
  <property name="kdenlive:original.meta.attr.0.stream.vendor_id.markup">[0][0][0][0]</property>
  <property name="kdenlive:original.meta.attr.major_brand.markup">isom</property>
  <property name="kdenlive:original.meta.attr.minor_version.markup">512</property>
  <property name="kdenlive:original.meta.attr.compatible_brands.markup">isomiso2avc1mp41</property>
  <property name="kdenlive:original.meta.attr.encoder.markup">Lavf58.76.100</property>
  <property name="kdenlive:original.meta.attr.comment.markup">Rendered with Manim Community v0.6.0</property>
  <property name="kdenlive:original.seekable">1</property>
  <property name="kdenlive:original.width">3840</property>
  <property name="kdenlive:original.height">2160</property>
  <property name="kdenlive:original.meta.media.sample_aspect_num">1</property>
  <property name="kdenlive:original.meta.media.sample_aspect_den">1</property>
  <property name="kdenlive:original.aspect_ratio">1</property>
  <property name="kdenlive:original.audio_index">-1</property>
  <property name="kdenlive:original.video_index">0</property>
  <property name="kdenlive:original.mute_on_pause">1</property>
  <property name="kdenlive:original.mlt_service">avformat</property>
  <property name="kdenlive:original.meta.media.frame_rate_num">60</property>
  <property name="kdenlive:original.meta.media.frame_rate_den">1</property>
  <property name="kdenlive:original.meta.media.colorspace">709</property>
  <property name="kdenlive:original.meta.media.color_trc">2</property>
  <property name="kdenlive:original.meta.media.width">3840</property>
  <property name="kdenlive:original.meta.media.height">2160</property>
  <property name="kdenlive:original.meta.media.color_range">mpeg</property>
  <property name="kdenlive:original.meta.media.top_field_first">0</property>
  <property name="kdenlive:original.meta.media.progressive">1</property>
  <property name="kdenlive:original.backup">1</property>
  <property name="xml">was here</property>
  <property name="meta.media.nb_streams">1</property>
  <property name="meta.media.0.stream.type">video</property>
  <property name="meta.media.0.stream.frame_rate">60</property>
  <property name="meta.media.0.stream.sample_aspect_ratio">0</property>
  <property name="meta.media.0.codec.width">640</property>
  <property name="meta.media.0.codec.height">360</property>
  <property name="meta.media.0.codec.rotate">0</property>
  <property name="meta.media.0.codec.frame_rate">60</property>
  <property name="meta.media.0.codec.pix_fmt">yuv420p</property>
  <property name="meta.media.0.codec.sample_aspect_ratio">0</property>
  <property name="meta.media.0.codec.colorspace">601</property>
  <property name="meta.media.0.codec.name">h264</property>
  <property name="meta.media.0.codec.long_name">H.264 / AVC / MPEG-4 AVC / MPEG-4 part 10</property>
  <property name="meta.media.0.codec.bit_rate">0</property>
  <property name="meta.attr.0.stream.HANDLER_NAME.markup">VideoHandler</property>
  <property name="meta.attr.0.stream.VENDOR_ID.markup">[0][0][0][0]</property>
  <property name="meta.attr.0.stream.ENCODER.markup">Lavc58.134.100 libx264</property>
  <property name="meta.attr.0.stream.DURATION.markup">00:00:01.000000000</property>
  <property name="meta.attr.COMMENT.markup">Rendered with Manim Community v0.6.0</property>
  <property name="meta.attr.MAJOR_BRAND.markup">isom</property>
  <property name="meta.attr.MINOR_VERSION.markup">512</property>
  <property name="meta.attr.COMPATIBLE_BRANDS.markup">isomiso2avc1mp41</property>
  <property name="meta.attr.ENCODER.markup">Lavf58.76.100</property>
  <property name="meta.media.sample_aspect_num">1</property>
  <property name="meta.media.sample_aspect_den">1</property>
  <property name="meta.media.frame_rate_num">60</property>
  <property name="meta.media.frame_rate_den">1</property>
  <property name="meta.media.colorspace">601</property>
  <property name="meta.media.color_trc">2</property>
  <property name="meta.media.width">640</property>
  <property name="meta.media.height">360</property>
  <property name="meta.media.color_range">mpeg</property>
  <property name="meta.media.top_field_first">0</property>
  <property name="meta.media.progressive">1</property>
  <property name="set.test_audio">1</property>
  <property name="set.test_image">0</property>
 </producer>
 <producer id="producer635" in="00:00:00.000" out="00:00:06.833">
  <property name="length">411</property>
  <property name="eof">pause</property>
  <property name="resource">/home/xiaoxiae/.cache/kdenlive/proxy/288905035326ee9c072e284e7f693bf1.mkv</property>
  <property name="audio_index">-1</property>
  <property name="video_index">0</property>
  <property name="mute_on_pause">0</property>
  <property name="mlt_service">avformat-novalidate</property>
  <property name="seekable">1</property>
  <property name="aspect_ratio">1</property>
  <property name="kdenlive:clipname">3.mp4</property>
  <property name="kdenlive:folderid">14</property>
  <property name="kdenlive:id">19</property>
  <property name="kdenlive:file_size">973601</property>
  <property name="kdenlive:file_hash">288905035326ee9c072e284e7f693bf1</property>
  <property name="kdenlive:proxy">/home/xiaoxiae/.cache/kdenlive/proxy/288905035326ee9c072e284e7f693bf1.mkv</property>
  <property name="kdenlive:originalurl">video/ChromaticNumber/3.mp4</property>
  <property name="global_feed">1</property>
  <property name="kdenlive:original.mlt_type">producer</property>
  <property name="kdenlive:original.in">0</property>
  <property name="kdenlive:original.out">410</property>
  <property name="kdenlive:original.length">411</property>
  <property name="kdenlive:original.eof">pause</property>
  <property name="kdenlive:original.resource">video/ChromaticNumber/3.mp4</property>
  <property name="kdenlive:original.meta.media.nb_streams">1</property>
  <property name="kdenlive:original.meta.media.0.stream.type">video</property>
  <property name="kdenlive:original.meta.media.0.stream.frame_rate">60</property>
  <property name="kdenlive:original.meta.media.0.stream.sample_aspect_ratio">0</property>
  <property name="kdenlive:original.meta.media.0.codec.width">3840</property>
  <property name="kdenlive:original.meta.media.0.codec.height">2160</property>
  <property name="kdenlive:original.meta.media.0.codec.rotate">0</property>
  <property name="kdenlive:original.meta.media.0.codec.frame_rate">60</property>
  <property name="kdenlive:original.meta.media.0.codec.pix_fmt">yuv420p</property>
  <property name="kdenlive:original.meta.media.0.codec.sample_aspect_ratio">0</property>
  <property name="kdenlive:original.meta.media.0.codec.colorspace">709</property>
  <property name="kdenlive:original.meta.media.0.codec.name">h264</property>
  <property name="kdenlive:original.meta.media.0.codec.long_name">H.264 / AVC / MPEG-4 AVC / MPEG-4 part 10</property>
  <property name="kdenlive:original.meta.media.0.codec.bit_rate">1130223</property>
  <property name="kdenlive:original.meta.attr.0.stream.handler_name.markup">VideoHandler</property>
  <property name="kdenlive:original.meta.attr.0.stream.vendor_id.markup">[0][0][0][0]</property>
  <property name="kdenlive:original.meta.attr.major_brand.markup">isom</property>
  <property name="kdenlive:original.meta.attr.minor_version.markup">512</property>
  <property name="kdenlive:original.meta.attr.compatible_brands.markup">isomiso2avc1mp41</property>
  <property name="kdenlive:original.meta.attr.encoder.markup">Lavf58.76.100</property>
  <property name="kdenlive:original.meta.attr.comment.markup">Rendered with Manim Community v0.6.0</property>
  <property name="kdenlive:original.seekable">1</property>
  <property name="kdenlive:original.width">3840</property>
  <property name="kdenlive:original.height">2160</property>
  <property name="kdenlive:original.meta.media.sample_aspect_num">1</property>
  <property name="kdenlive:original.meta.media.sample_aspect_den">1</property>
  <property name="kdenlive:original.aspect_ratio">1</property>
  <property name="kdenlive:original.audio_index">-1</property>
  <property name="kdenlive:original.video_index">0</property>
  <property name="kdenlive:original.mute_on_pause">1</property>
  <property name="kdenlive:original.mlt_service">avformat</property>
  <property name="kdenlive:original.meta.media.frame_rate_num">60</property>
  <property name="kdenlive:original.meta.media.frame_rate_den">1</property>
  <property name="kdenlive:original.meta.media.colorspace">709</property>
  <property name="kdenlive:original.meta.media.color_trc">2</property>
  <property name="kdenlive:original.meta.media.width">3840</property>
  <property name="kdenlive:original.meta.media.height">2160</property>
  <property name="kdenlive:original.meta.media.color_range">mpeg</property>
  <property name="kdenlive:original.meta.media.top_field_first">0</property>
  <property name="kdenlive:original.meta.media.progressive">1</property>
  <property name="kdenlive:original.backup">1</property>
  <property name="xml">was here</property>
  <property name="meta.media.nb_streams">1</property>
  <property name="meta.media.0.stream.type">video</property>
  <property name="meta.media.0.stream.frame_rate">60</property>
  <property name="meta.media.0.stream.sample_aspect_ratio">0</property>
  <property name="meta.media.0.codec.width">640</property>
  <property name="meta.media.0.codec.height">360</property>
  <property name="meta.media.0.codec.rotate">0</property>
  <property name="meta.media.0.codec.frame_rate">60</property>
  <property name="meta.media.0.codec.pix_fmt">yuv420p</property>
  <property name="meta.media.0.codec.sample_aspect_ratio">0</property>
  <property name="meta.media.0.codec.colorspace">601</property>
  <property name="meta.media.0.codec.name">h264</property>
  <property name="meta.media.0.codec.long_name">H.264 / AVC / MPEG-4 AVC / MPEG-4 part 10</property>
  <property name="meta.media.0.codec.bit_rate">0</property>
  <property name="meta.attr.0.stream.HANDLER_NAME.markup">VideoHandler</property>
  <property name="meta.attr.0.stream.VENDOR_ID.markup">[0][0][0][0]</property>
  <property name="meta.attr.0.stream.ENCODER.markup">Lavc58.134.100 libx264</property>
  <property name="meta.attr.0.stream.DURATION.markup">00:00:06.850000000</property>
  <property name="meta.attr.COMMENT.markup">Rendered with Manim Community v0.6.0</property>
  <property name="meta.attr.MAJOR_BRAND.markup">isom</property>
  <property name="meta.attr.MINOR_VERSION.markup">512</property>
  <property name="meta.attr.COMPATIBLE_BRANDS.markup">isomiso2avc1mp41</property>
  <property name="meta.attr.ENCODER.markup">Lavf58.76.100</property>
  <property name="meta.media.sample_aspect_num">1</property>
  <property name="meta.media.sample_aspect_den">1</property>
  <property name="meta.media.frame_rate_num">60</property>
  <property name="meta.media.frame_rate_den">1</property>
  <property name="meta.media.colorspace">601</property>
  <property name="meta.media.color_trc">2</property>
  <property name="meta.media.width">640</property>
  <property name="meta.media.height">360</property>
  <property name="meta.media.color_range">mpeg</property>
  <property name="meta.media.top_field_first">0</property>
  <property name="meta.media.progressive">1</property>
  <property name="set.test_audio">1</property>
  <property name="set.test_image">0</property>
 </producer>
 <producer id="producer636" in="00:00:00.000" out="00:00:01.983">
  <property name="length">120</property>
  <property name="eof">pause</property>
  <property name="resource">/home/xiaoxiae/.cache/kdenlive/proxy/8b52696b2e72829750a355d002e0be3e.mkv</property>
  <property name="audio_index">-1</property>
  <property name="video_index">0</property>
  <property name="mute_on_pause">0</property>
  <property name="mlt_service">avformat-novalidate</property>
  <property name="seekable">1</property>
  <property name="aspect_ratio">1</property>
  <property name="kdenlive:clipname">4.mp4</property>
  <property name="kdenlive:folderid">14</property>
  <property name="kdenlive:id">21</property>
  <property name="kdenlive:file_size">219252</property>
  <property name="kdenlive:file_hash">8b52696b2e72829750a355d002e0be3e</property>
  <property name="kdenlive:proxy">/home/xiaoxiae/.cache/kdenlive/proxy/8b52696b2e72829750a355d002e0be3e.mkv</property>
  <property name="kdenlive:originalurl">video/ChromaticNumber/4.mp4</property>
  <property name="global_feed">1</property>
  <property name="kdenlive:original.mlt_type">producer</property>
  <property name="kdenlive:original.in">0</property>
  <property name="kdenlive:original.out">119</property>
  <property name="kdenlive:original.length">120</property>
  <property name="kdenlive:original.eof">pause</property>
  <property name="kdenlive:original.resource">video/ChromaticNumber/4.mp4</property>
  <property name="kdenlive:original.meta.media.nb_streams">1</property>
  <property name="kdenlive:original.meta.media.0.stream.type">video</property>
  <property name="kdenlive:original.meta.media.0.stream.frame_rate">60</property>
  <property name="kdenlive:original.meta.media.0.stream.sample_aspect_ratio">0</property>
  <property name="kdenlive:original.meta.media.0.codec.width">3840</property>
  <property name="kdenlive:original.meta.media.0.codec.height">2160</property>
  <property name="kdenlive:original.meta.media.0.codec.rotate">0</property>
  <property name="kdenlive:original.meta.media.0.codec.frame_rate">60</property>
  <property name="kdenlive:original.meta.media.0.codec.pix_fmt">yuv420p</property>
  <property name="kdenlive:original.meta.media.0.codec.sample_aspect_ratio">0</property>
  <property name="kdenlive:original.meta.media.0.codec.colorspace">709</property>
  <property name="kdenlive:original.meta.media.0.codec.name">h264</property>
  <property name="kdenlive:original.meta.media.0.codec.long_name">H.264 / AVC / MPEG-4 AVC / MPEG-4 part 10</property>
  <property name="kdenlive:original.meta.media.0.codec.bit_rate">867604</property>
  <property name="kdenlive:original.meta.attr.0.stream.handler_name.markup">VideoHandler</property>
  <property name="kdenlive:original.meta.attr.0.stream.vendor_id.markup">[0][0][0][0]</property>
  <property name="kdenlive:original.meta.attr.major_brand.markup">isom</property>
  <property name="kdenlive:original.meta.attr.minor_version.markup">512</property>
  <property name="kdenlive:original.meta.attr.compatible_brands.markup">isomiso2avc1mp41</property>
  <property name="kdenlive:original.meta.attr.encoder.markup">Lavf58.76.100</property>
  <property name="kdenlive:original.meta.attr.comment.markup">Rendered with Manim Community v0.6.0</property>
  <property name="kdenlive:original.seekable">1</property>
  <property name="kdenlive:original.width">3840</property>
  <property name="kdenlive:original.height">2160</property>
  <property name="kdenlive:original.meta.media.sample_aspect_num">1</property>
  <property name="kdenlive:original.meta.media.sample_aspect_den">1</property>
  <property name="kdenlive:original.aspect_ratio">1</property>
  <property name="kdenlive:original.audio_index">-1</property>
  <property name="kdenlive:original.video_index">0</property>
  <property name="kdenlive:original.mute_on_pause">1</property>
  <property name="kdenlive:original.mlt_service">avformat</property>
  <property name="kdenlive:original.meta.media.frame_rate_num">60</property>
  <property name="kdenlive:original.meta.media.frame_rate_den">1</property>
  <property name="kdenlive:original.meta.media.colorspace">709</property>
  <property name="kdenlive:original.meta.media.color_trc">2</property>
  <property name="kdenlive:original.meta.media.width">3840</property>
  <property name="kdenlive:original.meta.media.height">2160</property>
  <property name="kdenlive:original.meta.media.color_range">mpeg</property>
  <property name="kdenlive:original.meta.media.top_field_first">0</property>
  <property name="kdenlive:original.meta.media.progressive">1</property>
  <property name="kdenlive:original.backup">1</property>
  <property name="xml">was here</property>
  <property name="meta.media.nb_streams">1</property>
  <property name="meta.media.0.stream.type">video</property>
  <property name="meta.media.0.stream.frame_rate">60</property>
  <property name="meta.media.0.stream.sample_aspect_ratio">0</property>
  <property name="meta.media.0.codec.width">640</property>
  <property name="meta.media.0.codec.height">360</property>
  <property name="meta.media.0.codec.rotate">0</property>
  <property name="meta.media.0.codec.frame_rate">60</property>
  <property name="meta.media.0.codec.pix_fmt">yuv420p</property>
  <property name="meta.media.0.codec.sample_aspect_ratio">0</property>
  <property name="meta.media.0.codec.colorspace">601</property>
  <property name="meta.media.0.codec.name">h264</property>
  <property name="meta.media.0.codec.long_name">H.264 / AVC / MPEG-4 AVC / MPEG-4 part 10</property>
  <property name="meta.media.0.codec.bit_rate">0</property>
  <property name="meta.attr.0.stream.HANDLER_NAME.markup">VideoHandler</property>
  <property name="meta.attr.0.stream.VENDOR_ID.markup">[0][0][0][0]</property>
  <property name="meta.attr.0.stream.ENCODER.markup">Lavc58.134.100 libx264</property>
  <property name="meta.attr.0.stream.DURATION.markup">00:00:02.000000000</property>
  <property name="meta.attr.COMMENT.markup">Rendered with Manim Community v0.6.0</property>
  <property name="meta.attr.MAJOR_BRAND.markup">isom</property>
  <property name="meta.attr.MINOR_VERSION.markup">512</property>
  <property name="meta.attr.COMPATIBLE_BRANDS.markup">isomiso2avc1mp41</property>
  <property name="meta.attr.ENCODER.markup">Lavf58.76.100</property>
  <property name="meta.media.sample_aspect_num">1</property>
  <property name="meta.media.sample_aspect_den">1</property>
  <property name="meta.media.frame_rate_num">60</property>
  <property name="meta.media.frame_rate_den">1</property>
  <property name="meta.media.colorspace">601</property>
  <property name="meta.media.color_trc">2</property>
  <property name="meta.media.width">640</property>
  <property name="meta.media.height">360</property>
  <property name="meta.media.color_range">mpeg</property>
  <property name="meta.media.top_field_first">0</property>
  <property name="meta.media.progressive">1</property>
  <property name="set.test_audio">1</property>
  <property name="set.test_image">0</property>
 </producer>
 <producer id="producer637" in="00:00:00.000" out="00:00:00.983">
  <property name="length">60</property>
  <property name="eof">pause</property>
  <property name="resource">/home/xiaoxiae/.cache/kdenlive/proxy/146b835666c97180ef225fc9a5f9deb6.mkv</property>
  <property name="audio_index">-1</property>
  <property name="video_index">0</property>
  <property name="mute_on_pause">0</property>
  <property name="mlt_service">avformat-novalidate</property>
  <property name="seekable">1</property>
  <property name="aspect_ratio">1</property>
  <property name="kdenlive:clipname">5.mp4</property>
  <property name="kdenlive:folderid">14</property>
  <property name="kdenlive:id">23</property>
  <property name="kdenlive:file_size">170976</property>
  <property name="kdenlive:file_hash">146b835666c97180ef225fc9a5f9deb6</property>
  <property name="kdenlive:proxy">/home/xiaoxiae/.cache/kdenlive/proxy/146b835666c97180ef225fc9a5f9deb6.mkv</property>
  <property name="kdenlive:originalurl">video/ChromaticNumber/5.mp4</property>
  <property name="global_feed">1</property>
  <property name="kdenlive:original.mlt_type">producer</property>
  <property name="kdenlive:original.in">0</property>
  <property name="kdenlive:original.out">59</property>
  <property name="kdenlive:original.length">60</property>
  <property name="kdenlive:original.eof">pause</property>
  <property name="kdenlive:original.resource">video/ChromaticNumber/5.mp4</property>
  <property name="kdenlive:original.meta.media.nb_streams">1</property>
  <property name="kdenlive:original.meta.media.0.stream.type">video</property>
  <property name="kdenlive:original.meta.media.0.stream.frame_rate">60</property>
  <property name="kdenlive:original.meta.media.0.stream.sample_aspect_ratio">0</property>
  <property name="kdenlive:original.meta.media.0.codec.width">3840</property>
  <property name="kdenlive:original.meta.media.0.codec.height">2160</property>
  <property name="kdenlive:original.meta.media.0.codec.rotate">0</property>
  <property name="kdenlive:original.meta.media.0.codec.frame_rate">60</property>
  <property name="kdenlive:original.meta.media.0.codec.pix_fmt">yuv420p</property>
  <property name="kdenlive:original.meta.media.0.codec.sample_aspect_ratio">0</property>
  <property name="kdenlive:original.meta.media.0.codec.colorspace">709</property>
  <property name="kdenlive:original.meta.media.0.codec.name">h264</property>
  <property name="kdenlive:original.meta.media.0.codec.long_name">H.264 / AVC / MPEG-4 AVC / MPEG-4 part 10</property>
  <property name="kdenlive:original.meta.media.0.codec.bit_rate">1354760</property>
  <property name="kdenlive:original.meta.attr.0.stream.handler_name.markup">VideoHandler</property>
  <property name="kdenlive:original.meta.attr.0.stream.vendor_id.markup">[0][0][0][0]</property>
  <property name="kdenlive:original.meta.attr.major_brand.markup">isom</property>
  <property name="kdenlive:original.meta.attr.minor_version.markup">512</property>
  <property name="kdenlive:original.meta.attr.compatible_brands.markup">isomiso2avc1mp41</property>
  <property name="kdenlive:original.meta.attr.encoder.markup">Lavf58.76.100</property>
  <property name="kdenlive:original.meta.attr.comment.markup">Rendered with Manim Community v0.6.0</property>
  <property name="kdenlive:original.seekable">1</property>
  <property name="kdenlive:original.width">3840</property>
  <property name="kdenlive:original.height">2160</property>
  <property name="kdenlive:original.meta.media.sample_aspect_num">1</property>
  <property name="kdenlive:original.meta.media.sample_aspect_den">1</property>
  <property name="kdenlive:original.aspect_ratio">1</property>
  <property name="kdenlive:original.audio_index">-1</property>
  <property name="kdenlive:original.video_index">0</property>
  <property name="kdenlive:original.mute_on_pause">1</property>
  <property name="kdenlive:original.mlt_service">avformat</property>
  <property name="kdenlive:original.meta.media.frame_rate_num">60</property>
  <property name="kdenlive:original.meta.media.frame_rate_den">1</property>
  <property name="kdenlive:original.meta.media.colorspace">709</property>
  <property name="kdenlive:original.meta.media.color_trc">2</property>
  <property name="kdenlive:original.meta.media.width">3840</property>
  <property name="kdenlive:original.meta.media.height">2160</property>
  <property name="kdenlive:original.meta.media.color_range">mpeg</property>
  <property name="kdenlive:original.meta.media.top_field_first">0</property>
  <property name="kdenlive:original.meta.media.progressive">1</property>
  <property name="kdenlive:original.backup">1</property>
  <property name="xml">was here</property>
  <property name="meta.media.nb_streams">1</property>
  <property name="meta.media.0.stream.type">video</property>
  <property name="meta.media.0.stream.frame_rate">60</property>
  <property name="meta.media.0.stream.sample_aspect_ratio">0</property>
  <property name="meta.media.0.codec.width">640</property>
  <property name="meta.media.0.codec.height">360</property>
  <property name="meta.media.0.codec.rotate">0</property>
  <property name="meta.media.0.codec.frame_rate">60</property>
  <property name="meta.media.0.codec.pix_fmt">yuv420p</property>
  <property name="meta.media.0.codec.sample_aspect_ratio">0</property>
  <property name="meta.media.0.codec.colorspace">601</property>
  <property name="meta.media.0.codec.name">h264</property>
  <property name="meta.media.0.codec.long_name">H.264 / AVC / MPEG-4 AVC / MPEG-4 part 10</property>
  <property name="meta.media.0.codec.bit_rate">0</property>
  <property name="meta.attr.0.stream.HANDLER_NAME.markup">VideoHandler</property>
  <property name="meta.attr.0.stream.VENDOR_ID.markup">[0][0][0][0]</property>
  <property name="meta.attr.0.stream.ENCODER.markup">Lavc58.134.100 libx264</property>
  <property name="meta.attr.0.stream.DURATION.markup">00:00:01.000000000</property>
  <property name="meta.attr.COMMENT.markup">Rendered with Manim Community v0.6.0</property>
  <property name="meta.attr.MAJOR_BRAND.markup">isom</property>
  <property name="meta.attr.MINOR_VERSION.markup">512</property>
  <property name="meta.attr.COMPATIBLE_BRANDS.markup">isomiso2avc1mp41</property>
  <property name="meta.attr.ENCODER.markup">Lavf58.76.100</property>
  <property name="meta.media.sample_aspect_num">1</property>
  <property name="meta.media.sample_aspect_den">1</property>
  <property name="meta.media.frame_rate_num">60</property>
  <property name="meta.media.frame_rate_den">1</property>
  <property name="meta.media.colorspace">601</property>
  <property name="meta.media.color_trc">2</property>
  <property name="meta.media.width">640</property>
  <property name="meta.media.height">360</property>
  <property name="meta.media.color_range">mpeg</property>
  <property name="meta.media.top_field_first">0</property>
  <property name="meta.media.progressive">1</property>
  <property name="set.test_audio">1</property>
  <property name="set.test_image">0</property>
 </producer>
 <producer id="producer638" in="00:00:00.000" out="00:00:00.983">
  <property name="length">60</property>
  <property name="eof">pause</property>
  <property name="resource">/home/xiaoxiae/.cache/kdenlive/proxy/7b7243ea0bdddab483ba9a814031862e.mkv</property>
  <property name="audio_index">-1</property>
  <property name="video_index">0</property>
  <property name="mute_on_pause">0</property>
  <property name="mlt_service">avformat-novalidate</property>
  <property name="seekable">1</property>
  <property name="aspect_ratio">1</property>
  <property name="kdenlive:clipname">6.mp4</property>
  <property name="kdenlive:folderid">14</property>
  <property name="kdenlive:id">25</property>
  <property name="kdenlive:file_size">191022</property>
  <property name="kdenlive:file_hash">7b7243ea0bdddab483ba9a814031862e</property>
  <property name="kdenlive:proxy">/home/xiaoxiae/.cache/kdenlive/proxy/7b7243ea0bdddab483ba9a814031862e.mkv</property>
  <property name="kdenlive:originalurl">video/ChromaticNumber/6.mp4</property>
  <property name="global_feed">1</property>
  <property name="kdenlive:original.mlt_type">producer</property>
  <property name="kdenlive:original.in">0</property>
  <property name="kdenlive:original.out">59</property>
  <property name="kdenlive:original.length">60</property>
  <property name="kdenlive:original.eof">pause</property>
  <property name="kdenlive:original.resource">video/ChromaticNumber/6.mp4</property>
  <property name="kdenlive:original.meta.media.nb_streams">1</property>
  <property name="kdenlive:original.meta.media.0.stream.type">video</property>
  <property name="kdenlive:original.meta.media.0.stream.frame_rate">60</property>
  <property name="kdenlive:original.meta.media.0.stream.sample_aspect_ratio">0</property>
  <property name="kdenlive:original.meta.media.0.codec.width">3840</property>
  <property name="kdenlive:original.meta.media.0.codec.height">2160</property>
  <property name="kdenlive:original.meta.media.0.codec.rotate">0</property>
  <property name="kdenlive:original.meta.media.0.codec.frame_rate">60</property>
  <property name="kdenlive:original.meta.media.0.codec.pix_fmt">yuv420p</property>
  <property name="kdenlive:original.meta.media.0.codec.sample_aspect_ratio">0</property>
  <property name="kdenlive:original.meta.media.0.codec.colorspace">709</property>
  <property name="kdenlive:original.meta.media.0.codec.name">h264</property>
  <property name="kdenlive:original.meta.media.0.codec.long_name">H.264 / AVC / MPEG-4 AVC / MPEG-4 part 10</property>
  <property name="kdenlive:original.meta.media.0.codec.bit_rate">1515192</property>
  <property name="kdenlive:original.meta.attr.0.stream.handler_name.markup">VideoHandler</property>
  <property name="kdenlive:original.meta.attr.0.stream.vendor_id.markup">[0][0][0][0]</property>
  <property name="kdenlive:original.meta.attr.major_brand.markup">isom</property>
  <property name="kdenlive:original.meta.attr.minor_version.markup">512</property>
  <property name="kdenlive:original.meta.attr.compatible_brands.markup">isomiso2avc1mp41</property>
  <property name="kdenlive:original.meta.attr.encoder.markup">Lavf58.76.100</property>
  <property name="kdenlive:original.meta.attr.comment.markup">Rendered with Manim Community v0.6.0</property>
  <property name="kdenlive:original.seekable">1</property>
  <property name="kdenlive:original.width">3840</property>
  <property name="kdenlive:original.height">2160</property>
  <property name="kdenlive:original.meta.media.sample_aspect_num">1</property>
  <property name="kdenlive:original.meta.media.sample_aspect_den">1</property>
  <property name="kdenlive:original.aspect_ratio">1</property>
  <property name="kdenlive:original.audio_index">-1</property>
  <property name="kdenlive:original.video_index">0</property>
  <property name="kdenlive:original.mute_on_pause">1</property>
  <property name="kdenlive:original.mlt_service">avformat</property>
  <property name="kdenlive:original.meta.media.frame_rate_num">60</property>
  <property name="kdenlive:original.meta.media.frame_rate_den">1</property>
  <property name="kdenlive:original.meta.media.colorspace">709</property>
  <property name="kdenlive:original.meta.media.color_trc">2</property>
  <property name="kdenlive:original.meta.media.width">3840</property>
  <property name="kdenlive:original.meta.media.height">2160</property>
  <property name="kdenlive:original.meta.media.color_range">mpeg</property>
  <property name="kdenlive:original.meta.media.top_field_first">0</property>
  <property name="kdenlive:original.meta.media.progressive">1</property>
  <property name="kdenlive:original.backup">1</property>
  <property name="xml">was here</property>
  <property name="meta.media.nb_streams">1</property>
  <property name="meta.media.0.stream.type">video</property>
  <property name="meta.media.0.stream.frame_rate">60</property>
  <property name="meta.media.0.stream.sample_aspect_ratio">0</property>
  <property name="meta.media.0.codec.width">640</property>
  <property name="meta.media.0.codec.height">360</property>
  <property name="meta.media.0.codec.rotate">0</property>
  <property name="meta.media.0.codec.frame_rate">60</property>
  <property name="meta.media.0.codec.pix_fmt">yuv420p</property>
  <property name="meta.media.0.codec.sample_aspect_ratio">0</property>
  <property name="meta.media.0.codec.colorspace">601</property>
  <property name="meta.media.0.codec.name">h264</property>
  <property name="meta.media.0.codec.long_name">H.264 / AVC / MPEG-4 AVC / MPEG-4 part 10</property>
  <property name="meta.media.0.codec.bit_rate">0</property>
  <property name="meta.attr.0.stream.HANDLER_NAME.markup">VideoHandler</property>
  <property name="meta.attr.0.stream.VENDOR_ID.markup">[0][0][0][0]</property>
  <property name="meta.attr.0.stream.ENCODER.markup">Lavc58.134.100 libx264</property>
  <property name="meta.attr.0.stream.DURATION.markup">00:00:01.000000000</property>
  <property name="meta.attr.COMMENT.markup">Rendered with Manim Community v0.6.0</property>
  <property name="meta.attr.MAJOR_BRAND.markup">isom</property>
  <property name="meta.attr.MINOR_VERSION.markup">512</property>
  <property name="meta.attr.COMPATIBLE_BRANDS.markup">isomiso2avc1mp41</property>
  <property name="meta.attr.ENCODER.markup">Lavf58.76.100</property>
  <property name="meta.media.sample_aspect_num">1</property>
  <property name="meta.media.sample_aspect_den">1</property>
  <property name="meta.media.frame_rate_num">60</property>
  <property name="meta.media.frame_rate_den">1</property>
  <property name="meta.media.colorspace">601</property>
  <property name="meta.media.color_trc">2</property>
  <property name="meta.media.width">640</property>
  <property name="meta.media.height">360</property>
  <property name="meta.media.color_range">mpeg</property>
  <property name="meta.media.top_field_first">0</property>
  <property name="meta.media.progressive">1</property>
  <property name="set.test_audio">1</property>
  <property name="set.test_image">0</property>
 </producer>
 <producer id="producer639" in="00:00:00.000" out="00:00:00.983">
  <property name="length">60</property>
  <property name="eof">pause</property>
  <property name="resource">/home/xiaoxiae/.cache/kdenlive/proxy/221a142b284ece156d38065bd9e75474.mkv</property>
  <property name="audio_index">-1</property>
  <property name="video_index">0</property>
  <property name="mute_on_pause">0</property>
  <property name="mlt_service">avformat-novalidate</property>
  <property name="seekable">1</property>
  <property name="aspect_ratio">1</property>
  <property name="kdenlive:clipname">7.mp4</property>
  <property name="kdenlive:folderid">14</property>
  <property name="kdenlive:id">27</property>
  <property name="kdenlive:file_size">161448</property>
  <property name="kdenlive:file_hash">221a142b284ece156d38065bd9e75474</property>
  <property name="kdenlive:proxy">/home/xiaoxiae/.cache/kdenlive/proxy/221a142b284ece156d38065bd9e75474.mkv</property>
  <property name="kdenlive:originalurl">video/ChromaticNumber/7.mp4</property>
  <property name="global_feed">1</property>
  <property name="kdenlive:original.mlt_type">producer</property>
  <property name="kdenlive:original.in">0</property>
  <property name="kdenlive:original.out">59</property>
  <property name="kdenlive:original.length">60</property>
  <property name="kdenlive:original.eof">pause</property>
  <property name="kdenlive:original.resource">video/ChromaticNumber/7.mp4</property>
  <property name="kdenlive:original.meta.media.nb_streams">1</property>
  <property name="kdenlive:original.meta.media.0.stream.type">video</property>
  <property name="kdenlive:original.meta.media.0.stream.frame_rate">60</property>
  <property name="kdenlive:original.meta.media.0.stream.sample_aspect_ratio">0</property>
  <property name="kdenlive:original.meta.media.0.codec.width">3840</property>
  <property name="kdenlive:original.meta.media.0.codec.height">2160</property>
  <property name="kdenlive:original.meta.media.0.codec.rotate">0</property>
  <property name="kdenlive:original.meta.media.0.codec.frame_rate">60</property>
  <property name="kdenlive:original.meta.media.0.codec.pix_fmt">yuv420p</property>
  <property name="kdenlive:original.meta.media.0.codec.sample_aspect_ratio">0</property>
  <property name="kdenlive:original.meta.media.0.codec.colorspace">709</property>
  <property name="kdenlive:original.meta.media.0.codec.name">h264</property>
  <property name="kdenlive:original.meta.media.0.codec.long_name">H.264 / AVC / MPEG-4 AVC / MPEG-4 part 10</property>
  <property name="kdenlive:original.meta.media.0.codec.bit_rate">1278536</property>
  <property name="kdenlive:original.meta.attr.0.stream.handler_name.markup">VideoHandler</property>
  <property name="kdenlive:original.meta.attr.0.stream.vendor_id.markup">[0][0][0][0]</property>
  <property name="kdenlive:original.meta.attr.major_brand.markup">isom</property>
  <property name="kdenlive:original.meta.attr.minor_version.markup">512</property>
  <property name="kdenlive:original.meta.attr.compatible_brands.markup">isomiso2avc1mp41</property>
  <property name="kdenlive:original.meta.attr.encoder.markup">Lavf58.76.100</property>
  <property name="kdenlive:original.meta.attr.comment.markup">Rendered with Manim Community v0.6.0</property>
  <property name="kdenlive:original.seekable">1</property>
  <property name="kdenlive:original.width">3840</property>
  <property name="kdenlive:original.height">2160</property>
  <property name="kdenlive:original.meta.media.sample_aspect_num">1</property>
  <property name="kdenlive:original.meta.media.sample_aspect_den">1</property>
  <property name="kdenlive:original.aspect_ratio">1</property>
  <property name="kdenlive:original.audio_index">-1</property>
  <property name="kdenlive:original.video_index">0</property>
  <property name="kdenlive:original.mute_on_pause">1</property>
  <property name="kdenlive:original.mlt_service">avformat</property>
  <property name="kdenlive:original.meta.media.frame_rate_num">60</property>
  <property name="kdenlive:original.meta.media.frame_rate_den">1</property>
  <property name="kdenlive:original.meta.media.colorspace">709</property>
  <property name="kdenlive:original.meta.media.color_trc">2</property>
  <property name="kdenlive:original.meta.media.width">3840</property>
  <property name="kdenlive:original.meta.media.height">2160</property>
  <property name="kdenlive:original.meta.media.color_range">mpeg</property>
  <property name="kdenlive:original.meta.media.top_field_first">0</property>
  <property name="kdenlive:original.meta.media.progressive">1</property>
  <property name="kdenlive:original.backup">1</property>
  <property name="xml">was here</property>
  <property name="meta.media.nb_streams">1</property>
  <property name="meta.media.0.stream.type">video</property>
  <property name="meta.media.0.stream.frame_rate">60</property>
  <property name="meta.media.0.stream.sample_aspect_ratio">0</property>
  <property name="meta.media.0.codec.width">640</property>
  <property name="meta.media.0.codec.height">360</property>
  <property name="meta.media.0.codec.rotate">0</property>
  <property name="meta.media.0.codec.frame_rate">60</property>
  <property name="meta.media.0.codec.pix_fmt">yuv420p</property>
  <property name="meta.media.0.codec.sample_aspect_ratio">0</property>
  <property name="meta.media.0.codec.colorspace">601</property>
  <property name="meta.media.0.codec.name">h264</property>
  <property name="meta.media.0.codec.long_name">H.264 / AVC / MPEG-4 AVC / MPEG-4 part 10</property>
  <property name="meta.media.0.codec.bit_rate">0</property>
  <property name="meta.attr.0.stream.HANDLER_NAME.markup">VideoHandler</property>
  <property name="meta.attr.0.stream.VENDOR_ID.markup">[0][0][0][0]</property>
  <property name="meta.attr.0.stream.ENCODER.markup">Lavc58.134.100 libx264</property>
  <property name="meta.attr.0.stream.DURATION.markup">00:00:01.000000000</property>
  <property name="meta.attr.COMMENT.markup">Rendered with Manim Community v0.6.0</property>
  <property name="meta.attr.MAJOR_BRAND.markup">isom</property>
  <property name="meta.attr.MINOR_VERSION.markup">512</property>
  <property name="meta.attr.COMPATIBLE_BRANDS.markup">isomiso2avc1mp41</property>
  <property name="meta.attr.ENCODER.markup">Lavf58.76.100</property>
  <property name="meta.media.sample_aspect_num">1</property>
  <property name="meta.media.sample_aspect_den">1</property>
  <property name="meta.media.frame_rate_num">60</property>
  <property name="meta.media.frame_rate_den">1</property>
  <property name="meta.media.colorspace">601</property>
  <property name="meta.media.color_trc">2</property>
  <property name="meta.media.width">640</property>
  <property name="meta.media.height">360</property>
  <property name="meta.media.color_range">mpeg</property>
  <property name="meta.media.top_field_first">0</property>
  <property name="meta.media.progressive">1</property>
  <property name="set.test_audio">1</property>
  <property name="set.test_image">0</property>
 </producer>
 <producer id="producer640" in="00:00:00.000" out="00:00:00.983">
  <property name="length">60</property>
  <property name="eof">pause</property>
  <property name="resource">/home/xiaoxiae/.cache/kdenlive/proxy/3826429d57968246a3db00cc6b0af598.mkv</property>
  <property name="audio_index">-1</property>
  <property name="video_index">0</property>
  <property name="mute_on_pause">0</property>
  <property name="mlt_service">avformat-novalidate</property>
  <property name="seekable">1</property>
  <property name="aspect_ratio">1</property>
  <property name="kdenlive:clipname">8.mp4</property>
  <property name="kdenlive:folderid">14</property>
  <property name="kdenlive:id">29</property>
  <property name="kdenlive:file_size">165844</property>
  <property name="kdenlive:file_hash">3826429d57968246a3db00cc6b0af598</property>
  <property name="kdenlive:proxy">/home/xiaoxiae/.cache/kdenlive/proxy/3826429d57968246a3db00cc6b0af598.mkv</property>
  <property name="kdenlive:originalurl">video/ChromaticNumber/8.mp4</property>
  <property name="global_feed">1</property>
  <property name="kdenlive:original.mlt_type">producer</property>
  <property name="kdenlive:original.in">0</property>
  <property name="kdenlive:original.out">59</property>
  <property name="kdenlive:original.length">60</property>
  <property name="kdenlive:original.eof">pause</property>
  <property name="kdenlive:original.resource">video/ChromaticNumber/8.mp4</property>
  <property name="kdenlive:original.meta.media.nb_streams">1</property>
  <property name="kdenlive:original.meta.media.0.stream.type">video</property>
  <property name="kdenlive:original.meta.media.0.stream.frame_rate">60</property>
  <property name="kdenlive:original.meta.media.0.stream.sample_aspect_ratio">0</property>
  <property name="kdenlive:original.meta.media.0.codec.width">3840</property>
  <property name="kdenlive:original.meta.media.0.codec.height">2160</property>
  <property name="kdenlive:original.meta.media.0.codec.rotate">0</property>
  <property name="kdenlive:original.meta.media.0.codec.frame_rate">60</property>
  <property name="kdenlive:original.meta.media.0.codec.pix_fmt">yuv420p</property>
  <property name="kdenlive:original.meta.media.0.codec.sample_aspect_ratio">0</property>
  <property name="kdenlive:original.meta.media.0.codec.colorspace">709</property>
  <property name="kdenlive:original.meta.media.0.codec.name">h264</property>
  <property name="kdenlive:original.meta.media.0.codec.long_name">H.264 / AVC / MPEG-4 AVC / MPEG-4 part 10</property>
  <property name="kdenlive:original.meta.media.0.codec.bit_rate">1313960</property>
  <property name="kdenlive:original.meta.attr.0.stream.handler_name.markup">VideoHandler</property>
  <property name="kdenlive:original.meta.attr.0.stream.vendor_id.markup">[0][0][0][0]</property>
  <property name="kdenlive:original.meta.attr.major_brand.markup">isom</property>
  <property name="kdenlive:original.meta.attr.minor_version.markup">512</property>
  <property name="kdenlive:original.meta.attr.compatible_brands.markup">isomiso2avc1mp41</property>
  <property name="kdenlive:original.meta.attr.encoder.markup">Lavf58.76.100</property>
  <property name="kdenlive:original.meta.attr.comment.markup">Rendered with Manim Community v0.6.0</property>
  <property name="kdenlive:original.seekable">1</property>
  <property name="kdenlive:original.width">3840</property>
  <property name="kdenlive:original.height">2160</property>
  <property name="kdenlive:original.meta.media.sample_aspect_num">1</property>
  <property name="kdenlive:original.meta.media.sample_aspect_den">1</property>
  <property name="kdenlive:original.aspect_ratio">1</property>
  <property name="kdenlive:original.audio_index">-1</property>
  <property name="kdenlive:original.video_index">0</property>
  <property name="kdenlive:original.mute_on_pause">1</property>
  <property name="kdenlive:original.mlt_service">avformat</property>
  <property name="kdenlive:original.meta.media.frame_rate_num">60</property>
  <property name="kdenlive:original.meta.media.frame_rate_den">1</property>
  <property name="kdenlive:original.meta.media.colorspace">709</property>
  <property name="kdenlive:original.meta.media.color_trc">2</property>
  <property name="kdenlive:original.meta.media.width">3840</property>
  <property name="kdenlive:original.meta.media.height">2160</property>
  <property name="kdenlive:original.meta.media.color_range">mpeg</property>
  <property name="kdenlive:original.meta.media.top_field_first">0</property>
  <property name="kdenlive:original.meta.media.progressive">1</property>
  <property name="kdenlive:original.backup">1</property>
  <property name="xml">was here</property>
  <property name="meta.media.nb_streams">1</property>
  <property name="meta.media.0.stream.type">video</property>
  <property name="meta.media.0.stream.frame_rate">60</property>
  <property name="meta.media.0.stream.sample_aspect_ratio">0</property>
  <property name="meta.media.0.codec.width">640</property>
  <property name="meta.media.0.codec.height">360</property>
  <property name="meta.media.0.codec.rotate">0</property>
  <property name="meta.media.0.codec.frame_rate">60</property>
  <property name="meta.media.0.codec.pix_fmt">yuv420p</property>
  <property name="meta.media.0.codec.sample_aspect_ratio">0</property>
  <property name="meta.media.0.codec.colorspace">601</property>
  <property name="meta.media.0.codec.name">h264</property>
  <property name="meta.media.0.codec.long_name">H.264 / AVC / MPEG-4 AVC / MPEG-4 part 10</property>
  <property name="meta.media.0.codec.bit_rate">0</property>
  <property name="meta.attr.0.stream.HANDLER_NAME.markup">VideoHandler</property>
  <property name="meta.attr.0.stream.VENDOR_ID.markup">[0][0][0][0]</property>
  <property name="meta.attr.0.stream.ENCODER.markup">Lavc58.134.100 libx264</property>
  <property name="meta.attr.0.stream.DURATION.markup">00:00:01.000000000</property>
  <property name="meta.attr.COMMENT.markup">Rendered with Manim Community v0.6.0</property>
  <property name="meta.attr.MAJOR_BRAND.markup">isom</property>
  <property name="meta.attr.MINOR_VERSION.markup">512</property>
  <property name="meta.attr.COMPATIBLE_BRANDS.markup">isomiso2avc1mp41</property>
  <property name="meta.attr.ENCODER.markup">Lavf58.76.100</property>
  <property name="meta.media.sample_aspect_num">1</property>
  <property name="meta.media.sample_aspect_den">1</property>
  <property name="meta.media.frame_rate_num">60</property>
  <property name="meta.media.frame_rate_den">1</property>
  <property name="meta.media.colorspace">601</property>
  <property name="meta.media.color_trc">2</property>
  <property name="meta.media.width">640</property>
  <property name="meta.media.height">360</property>
  <property name="meta.media.color_range">mpeg</property>
  <property name="meta.media.top_field_first">0</property>
  <property name="meta.media.progressive">1</property>
  <property name="set.test_audio">1</property>
  <property name="set.test_image">0</property>
 </producer>
 <producer id="producer641" in="00:00:00.000" out="00:00:00.983">
  <property name="length">60</property>
  <property name="eof">pause</property>
  <property name="resource">/home/xiaoxiae/.cache/kdenlive/proxy/89cdce7ef819eaf838d8013a6134651f.mkv</property>
  <property name="audio_index">-1</property>
  <property name="video_index">0</property>
  <property name="mute_on_pause">0</property>
  <property name="mlt_service">avformat-novalidate</property>
  <property name="seekable">1</property>
  <property name="aspect_ratio">1</property>
  <property name="kdenlive:clipname">1.mp4</property>
  <property name="kdenlive:folderid">364</property>
  <property name="kdenlive:id">341</property>
  <property name="kdenlive:file_size">64942</property>
  <property name="kdenlive:file_hash">89cdce7ef819eaf838d8013a6134651f</property>
  <property name="kdenlive:proxy">/home/xiaoxiae/.cache/kdenlive/proxy/89cdce7ef819eaf838d8013a6134651f.mkv</property>
  <property name="kdenlive:originalurl">video/PerfectGraph/1.mp4</property>
  <property name="global_feed">1</property>
  <property name="kdenlive:original.mlt_type">producer</property>
  <property name="kdenlive:original.in">0</property>
  <property name="kdenlive:original.out">59</property>
  <property name="kdenlive:original.length">60</property>
  <property name="kdenlive:original.eof">pause</property>
  <property name="kdenlive:original.resource">video/PerfectGraph/1.mp4</property>
  <property name="kdenlive:original.meta.media.nb_streams">1</property>
  <property name="kdenlive:original.meta.media.0.stream.type">video</property>
  <property name="kdenlive:original.meta.media.0.stream.frame_rate">60</property>
  <property name="kdenlive:original.meta.media.0.stream.sample_aspect_ratio">0</property>
  <property name="kdenlive:original.meta.media.0.codec.width">3840</property>
  <property name="kdenlive:original.meta.media.0.codec.height">2160</property>
  <property name="kdenlive:original.meta.media.0.codec.rotate">0</property>
  <property name="kdenlive:original.meta.media.0.codec.frame_rate">60</property>
  <property name="kdenlive:original.meta.media.0.codec.pix_fmt">yuv420p</property>
  <property name="kdenlive:original.meta.media.0.codec.sample_aspect_ratio">0</property>
  <property name="kdenlive:original.meta.media.0.codec.colorspace">709</property>
  <property name="kdenlive:original.meta.media.0.codec.name">h264</property>
  <property name="kdenlive:original.meta.media.0.codec.long_name">H.264 / AVC / MPEG-4 AVC / MPEG-4 part 10</property>
  <property name="kdenlive:original.meta.media.0.codec.bit_rate">506488</property>
  <property name="kdenlive:original.meta.attr.0.stream.handler_name.markup">VideoHandler</property>
  <property name="kdenlive:original.meta.attr.0.stream.vendor_id.markup">[0][0][0][0]</property>
  <property name="kdenlive:original.meta.attr.major_brand.markup">isom</property>
  <property name="kdenlive:original.meta.attr.minor_version.markup">512</property>
  <property name="kdenlive:original.meta.attr.compatible_brands.markup">isomiso2avc1mp41</property>
  <property name="kdenlive:original.meta.attr.encoder.markup">Lavf58.76.100</property>
  <property name="kdenlive:original.meta.attr.comment.markup">Rendered with Manim Community v0.6.0</property>
  <property name="kdenlive:original.seekable">1</property>
  <property name="kdenlive:original.width">3840</property>
  <property name="kdenlive:original.height">2160</property>
  <property name="kdenlive:original.meta.media.sample_aspect_num">1</property>
  <property name="kdenlive:original.meta.media.sample_aspect_den">1</property>
  <property name="kdenlive:original.aspect_ratio">1</property>
  <property name="kdenlive:original.audio_index">-1</property>
  <property name="kdenlive:original.video_index">0</property>
  <property name="kdenlive:original.mute_on_pause">1</property>
  <property name="kdenlive:original.mlt_service">avformat</property>
  <property name="kdenlive:original.meta.media.frame_rate_num">60</property>
  <property name="kdenlive:original.meta.media.frame_rate_den">1</property>
  <property name="kdenlive:original.meta.media.colorspace">709</property>
  <property name="kdenlive:original.meta.media.color_trc">2</property>
  <property name="kdenlive:original.meta.media.width">3840</property>
  <property name="kdenlive:original.meta.media.height">2160</property>
  <property name="kdenlive:original.meta.media.color_range">mpeg</property>
  <property name="kdenlive:original.meta.media.top_field_first">0</property>
  <property name="kdenlive:original.meta.media.progressive">1</property>
  <property name="kdenlive:original.backup">1</property>
  <property name="xml">was here</property>
  <property name="meta.media.nb_streams">1</property>
  <property name="meta.media.0.stream.type">video</property>
  <property name="meta.media.0.stream.frame_rate">60</property>
  <property name="meta.media.0.stream.sample_aspect_ratio">0</property>
  <property name="meta.media.0.codec.width">640</property>
  <property name="meta.media.0.codec.height">360</property>
  <property name="meta.media.0.codec.rotate">0</property>
  <property name="meta.media.0.codec.frame_rate">60</property>
  <property name="meta.media.0.codec.pix_fmt">yuv420p</property>
  <property name="meta.media.0.codec.sample_aspect_ratio">0</property>
  <property name="meta.media.0.codec.colorspace">601</property>
  <property name="meta.media.0.codec.name">h264</property>
  <property name="meta.media.0.codec.long_name">H.264 / AVC / MPEG-4 AVC / MPEG-4 part 10</property>
  <property name="meta.media.0.codec.bit_rate">0</property>
  <property name="meta.attr.0.stream.HANDLER_NAME.markup">VideoHandler</property>
  <property name="meta.attr.0.stream.VENDOR_ID.markup">[0][0][0][0]</property>
  <property name="meta.attr.0.stream.ENCODER.markup">Lavc58.134.100 libx264</property>
  <property name="meta.attr.0.stream.DURATION.markup">00:00:01.000000000</property>
  <property name="meta.attr.COMMENT.markup">Rendered with Manim Community v0.6.0</property>
  <property name="meta.attr.MAJOR_BRAND.markup">isom</property>
  <property name="meta.attr.MINOR_VERSION.markup">512</property>
  <property name="meta.attr.COMPATIBLE_BRANDS.markup">isomiso2avc1mp41</property>
  <property name="meta.attr.ENCODER.markup">Lavf58.76.100</property>
  <property name="meta.media.sample_aspect_num">1</property>
  <property name="meta.media.sample_aspect_den">1</property>
  <property name="meta.media.frame_rate_num">60</property>
  <property name="meta.media.frame_rate_den">1</property>
  <property name="meta.media.colorspace">601</property>
  <property name="meta.media.color_trc">2</property>
  <property name="meta.media.width">640</property>
  <property name="meta.media.height">360</property>
  <property name="meta.media.color_range">mpeg</property>
  <property name="meta.media.top_field_first">0</property>
  <property name="meta.media.progressive">1</property>
  <property name="set.test_audio">1</property>
  <property name="set.test_image">0</property>
 </producer>
 <producer id="producer642" in="00:00:00.000" out="00:00:00.983">
  <property name="length">60</property>
  <property name="eof">pause</property>
  <property name="resource">/home/xiaoxiae/.cache/kdenlive/proxy/5c70380c7d57d1257dc0e3013305dcac.mkv</property>
  <property name="audio_index">-1</property>
  <property name="video_index">0</property>
  <property name="mute_on_pause">0</property>
  <property name="mlt_service">avformat-novalidate</property>
  <property name="seekable">1</property>
  <property name="aspect_ratio">1</property>
  <property name="kdenlive:clipname">2.mp4</property>
  <property name="kdenlive:folderid">364</property>
  <property name="kdenlive:id">347</property>
  <property name="kdenlive:file_size">68774</property>
  <property name="kdenlive:file_hash">5c70380c7d57d1257dc0e3013305dcac</property>
  <property name="kdenlive:proxy">/home/xiaoxiae/.cache/kdenlive/proxy/5c70380c7d57d1257dc0e3013305dcac.mkv</property>
  <property name="kdenlive:originalurl">video/PerfectGraph/2.mp4</property>
  <property name="global_feed">1</property>
  <property name="kdenlive:original.mlt_type">producer</property>
  <property name="kdenlive:original.in">0</property>
  <property name="kdenlive:original.out">59</property>
  <property name="kdenlive:original.length">60</property>
  <property name="kdenlive:original.eof">pause</property>
  <property name="kdenlive:original.resource">video/PerfectGraph/2.mp4</property>
  <property name="kdenlive:original.meta.media.nb_streams">1</property>
  <property name="kdenlive:original.meta.media.0.stream.type">video</property>
  <property name="kdenlive:original.meta.media.0.stream.frame_rate">60</property>
  <property name="kdenlive:original.meta.media.0.stream.sample_aspect_ratio">0</property>
  <property name="kdenlive:original.meta.media.0.codec.width">3840</property>
  <property name="kdenlive:original.meta.media.0.codec.height">2160</property>
  <property name="kdenlive:original.meta.media.0.codec.rotate">0</property>
  <property name="kdenlive:original.meta.media.0.codec.frame_rate">60</property>
  <property name="kdenlive:original.meta.media.0.codec.pix_fmt">yuv420p</property>
  <property name="kdenlive:original.meta.media.0.codec.sample_aspect_ratio">0</property>
  <property name="kdenlive:original.meta.media.0.codec.colorspace">709</property>
  <property name="kdenlive:original.meta.media.0.codec.name">h264</property>
  <property name="kdenlive:original.meta.media.0.codec.long_name">H.264 / AVC / MPEG-4 AVC / MPEG-4 part 10</property>
  <property name="kdenlive:original.meta.media.0.codec.bit_rate">538104</property>
  <property name="kdenlive:original.meta.attr.0.stream.handler_name.markup">VideoHandler</property>
  <property name="kdenlive:original.meta.attr.0.stream.vendor_id.markup">[0][0][0][0]</property>
  <property name="kdenlive:original.meta.attr.major_brand.markup">isom</property>
  <property name="kdenlive:original.meta.attr.minor_version.markup">512</property>
  <property name="kdenlive:original.meta.attr.compatible_brands.markup">isomiso2avc1mp41</property>
  <property name="kdenlive:original.meta.attr.encoder.markup">Lavf58.76.100</property>
  <property name="kdenlive:original.meta.attr.comment.markup">Rendered with Manim Community v0.6.0</property>
  <property name="kdenlive:original.seekable">1</property>
  <property name="kdenlive:original.width">3840</property>
  <property name="kdenlive:original.height">2160</property>
  <property name="kdenlive:original.meta.media.sample_aspect_num">1</property>
  <property name="kdenlive:original.meta.media.sample_aspect_den">1</property>
  <property name="kdenlive:original.aspect_ratio">1</property>
  <property name="kdenlive:original.audio_index">-1</property>
  <property name="kdenlive:original.video_index">0</property>
  <property name="kdenlive:original.mute_on_pause">1</property>
  <property name="kdenlive:original.mlt_service">avformat</property>
  <property name="kdenlive:original.meta.media.frame_rate_num">60</property>
  <property name="kdenlive:original.meta.media.frame_rate_den">1</property>
  <property name="kdenlive:original.meta.media.colorspace">709</property>
  <property name="kdenlive:original.meta.media.color_trc">2</property>
  <property name="kdenlive:original.meta.media.width">3840</property>
  <property name="kdenlive:original.meta.media.height">2160</property>
  <property name="kdenlive:original.meta.media.color_range">mpeg</property>
  <property name="kdenlive:original.meta.media.top_field_first">0</property>
  <property name="kdenlive:original.meta.media.progressive">1</property>
  <property name="kdenlive:original.backup">1</property>
  <property name="xml">was here</property>
  <property name="meta.media.nb_streams">1</property>
  <property name="meta.media.0.stream.type">video</property>
  <property name="meta.media.0.stream.frame_rate">60</property>
  <property name="meta.media.0.stream.sample_aspect_ratio">0</property>
  <property name="meta.media.0.codec.width">640</property>
  <property name="meta.media.0.codec.height">360</property>
  <property name="meta.media.0.codec.rotate">0</property>
  <property name="meta.media.0.codec.frame_rate">60</property>
  <property name="meta.media.0.codec.pix_fmt">yuv420p</property>
  <property name="meta.media.0.codec.sample_aspect_ratio">0</property>
  <property name="meta.media.0.codec.colorspace">601</property>
  <property name="meta.media.0.codec.name">h264</property>
  <property name="meta.media.0.codec.long_name">H.264 / AVC / MPEG-4 AVC / MPEG-4 part 10</property>
  <property name="meta.media.0.codec.bit_rate">0</property>
  <property name="meta.attr.0.stream.HANDLER_NAME.markup">VideoHandler</property>
  <property name="meta.attr.0.stream.VENDOR_ID.markup">[0][0][0][0]</property>
  <property name="meta.attr.0.stream.ENCODER.markup">Lavc58.134.100 libx264</property>
  <property name="meta.attr.0.stream.DURATION.markup">00:00:01.000000000</property>
  <property name="meta.attr.COMMENT.markup">Rendered with Manim Community v0.6.0</property>
  <property name="meta.attr.MAJOR_BRAND.markup">isom</property>
  <property name="meta.attr.MINOR_VERSION.markup">512</property>
  <property name="meta.attr.COMPATIBLE_BRANDS.markup">isomiso2avc1mp41</property>
  <property name="meta.attr.ENCODER.markup">Lavf58.76.100</property>
  <property name="meta.media.sample_aspect_num">1</property>
  <property name="meta.media.sample_aspect_den">1</property>
  <property name="meta.media.frame_rate_num">60</property>
  <property name="meta.media.frame_rate_den">1</property>
  <property name="meta.media.colorspace">601</property>
  <property name="meta.media.color_trc">2</property>
  <property name="meta.media.width">640</property>
  <property name="meta.media.height">360</property>
  <property name="meta.media.color_range">mpeg</property>
  <property name="meta.media.top_field_first">0</property>
  <property name="meta.media.progressive">1</property>
  <property name="set.test_audio">1</property>
  <property name="set.test_image">0</property>
 </producer>
 <producer id="producer643" in="00:00:00.000" out="00:00:04.383">
  <property name="length">264</property>
  <property name="eof">pause</property>
  <property name="resource">/home/xiaoxiae/.cache/kdenlive/proxy/6b6f7c866a323ab5821e73a32d3b50ca.mkv</property>
  <property name="audio_index">-1</property>
  <property name="video_index">0</property>
  <property name="mute_on_pause">0</property>
  <property name="mlt_service">avformat-novalidate</property>
  <property name="seekable">1</property>
  <property name="aspect_ratio">1</property>
  <property name="kdenlive:clipname">3.mp4</property>
  <property name="kdenlive:folderid">364</property>
  <property name="kdenlive:id">349</property>
  <property name="kdenlive:file_size">408157</property>
  <property name="kdenlive:file_hash">6b6f7c866a323ab5821e73a32d3b50ca</property>
  <property name="kdenlive:proxy">/home/xiaoxiae/.cache/kdenlive/proxy/6b6f7c866a323ab5821e73a32d3b50ca.mkv</property>
  <property name="kdenlive:originalurl">video/PerfectGraph/3.mp4</property>
  <property name="global_feed">1</property>
  <property name="kdenlive:original.mlt_type">producer</property>
  <property name="kdenlive:original.in">0</property>
  <property name="kdenlive:original.out">263</property>
  <property name="kdenlive:original.length">264</property>
  <property name="kdenlive:original.eof">pause</property>
  <property name="kdenlive:original.resource">video/PerfectGraph/3.mp4</property>
  <property name="kdenlive:original.meta.media.nb_streams">1</property>
  <property name="kdenlive:original.meta.media.0.stream.type">video</property>
  <property name="kdenlive:original.meta.media.0.stream.frame_rate">60</property>
  <property name="kdenlive:original.meta.media.0.stream.sample_aspect_ratio">0</property>
  <property name="kdenlive:original.meta.media.0.codec.width">3840</property>
  <property name="kdenlive:original.meta.media.0.codec.height">2160</property>
  <property name="kdenlive:original.meta.media.0.codec.rotate">0</property>
  <property name="kdenlive:original.meta.media.0.codec.frame_rate">60</property>
  <property name="kdenlive:original.meta.media.0.codec.pix_fmt">yuv420p</property>
  <property name="kdenlive:original.meta.media.0.codec.sample_aspect_ratio">0</property>
  <property name="kdenlive:original.meta.media.0.codec.colorspace">709</property>
  <property name="kdenlive:original.meta.media.0.codec.name">h264</property>
  <property name="kdenlive:original.meta.media.0.codec.long_name">H.264 / AVC / MPEG-4 AVC / MPEG-4 part 10</property>
  <property name="kdenlive:original.meta.media.0.codec.bit_rate">734680</property>
  <property name="kdenlive:original.meta.attr.0.stream.handler_name.markup">VideoHandler</property>
  <property name="kdenlive:original.meta.attr.0.stream.vendor_id.markup">[0][0][0][0]</property>
  <property name="kdenlive:original.meta.attr.major_brand.markup">isom</property>
  <property name="kdenlive:original.meta.attr.minor_version.markup">512</property>
  <property name="kdenlive:original.meta.attr.compatible_brands.markup">isomiso2avc1mp41</property>
  <property name="kdenlive:original.meta.attr.encoder.markup">Lavf58.76.100</property>
  <property name="kdenlive:original.meta.attr.comment.markup">Rendered with Manim Community v0.6.0</property>
  <property name="kdenlive:original.seekable">1</property>
  <property name="kdenlive:original.width">3840</property>
  <property name="kdenlive:original.height">2160</property>
  <property name="kdenlive:original.meta.media.sample_aspect_num">1</property>
  <property name="kdenlive:original.meta.media.sample_aspect_den">1</property>
  <property name="kdenlive:original.aspect_ratio">1</property>
  <property name="kdenlive:original.audio_index">-1</property>
  <property name="kdenlive:original.video_index">0</property>
  <property name="kdenlive:original.mute_on_pause">1</property>
  <property name="kdenlive:original.mlt_service">avformat</property>
  <property name="kdenlive:original.meta.media.frame_rate_num">60</property>
  <property name="kdenlive:original.meta.media.frame_rate_den">1</property>
  <property name="kdenlive:original.meta.media.colorspace">709</property>
  <property name="kdenlive:original.meta.media.color_trc">2</property>
  <property name="kdenlive:original.meta.media.width">3840</property>
  <property name="kdenlive:original.meta.media.height">2160</property>
  <property name="kdenlive:original.meta.media.color_range">mpeg</property>
  <property name="kdenlive:original.meta.media.top_field_first">0</property>
  <property name="kdenlive:original.meta.media.progressive">1</property>
  <property name="kdenlive:original.backup">1</property>
  <property name="xml">was here</property>
  <property name="meta.media.nb_streams">1</property>
  <property name="meta.media.0.stream.type">video</property>
  <property name="meta.media.0.stream.frame_rate">60</property>
  <property name="meta.media.0.stream.sample_aspect_ratio">0</property>
  <property name="meta.media.0.codec.width">640</property>
  <property name="meta.media.0.codec.height">360</property>
  <property name="meta.media.0.codec.rotate">0</property>
  <property name="meta.media.0.codec.frame_rate">60</property>
  <property name="meta.media.0.codec.pix_fmt">yuv420p</property>
  <property name="meta.media.0.codec.sample_aspect_ratio">0</property>
  <property name="meta.media.0.codec.colorspace">601</property>
  <property name="meta.media.0.codec.name">h264</property>
  <property name="meta.media.0.codec.long_name">H.264 / AVC / MPEG-4 AVC / MPEG-4 part 10</property>
  <property name="meta.media.0.codec.bit_rate">0</property>
  <property name="meta.attr.0.stream.HANDLER_NAME.markup">VideoHandler</property>
  <property name="meta.attr.0.stream.VENDOR_ID.markup">[0][0][0][0]</property>
  <property name="meta.attr.0.stream.ENCODER.markup">Lavc58.134.100 libx264</property>
  <property name="meta.attr.0.stream.DURATION.markup">00:00:04.400000000</property>
  <property name="meta.attr.COMMENT.markup">Rendered with Manim Community v0.6.0</property>
  <property name="meta.attr.MAJOR_BRAND.markup">isom</property>
  <property name="meta.attr.MINOR_VERSION.markup">512</property>
  <property name="meta.attr.COMPATIBLE_BRANDS.markup">isomiso2avc1mp41</property>
  <property name="meta.attr.ENCODER.markup">Lavf58.76.100</property>
  <property name="meta.media.sample_aspect_num">1</property>
  <property name="meta.media.sample_aspect_den">1</property>
  <property name="meta.media.frame_rate_num">60</property>
  <property name="meta.media.frame_rate_den">1</property>
  <property name="meta.media.colorspace">601</property>
  <property name="meta.media.color_trc">2</property>
  <property name="meta.media.width">640</property>
  <property name="meta.media.height">360</property>
  <property name="meta.media.color_range">mpeg</property>
  <property name="meta.media.top_field_first">0</property>
  <property name="meta.media.progressive">1</property>
  <property name="set.test_audio">1</property>
  <property name="set.test_image">0</property>
 </producer>
 <producer id="producer644" in="00:00:00.000" out="00:00:01.983">
  <property name="length">120</property>
  <property name="eof">pause</property>
  <property name="resource">/home/xiaoxiae/.cache/kdenlive/proxy/e1e16cfbd5dc12f9cc4d0bbdd55eca19.mkv</property>
  <property name="audio_index">-1</property>
  <property name="video_index">0</property>
  <property name="mute_on_pause">0</property>
  <property name="mlt_service">avformat-novalidate</property>
  <property name="seekable">1</property>
  <property name="aspect_ratio">1</property>
  <property name="kdenlive:clipname">4.mp4</property>
  <property name="kdenlive:folderid">364</property>
  <property name="kdenlive:id">351</property>
  <property name="kdenlive:file_size">185032</property>
  <property name="kdenlive:file_hash">e1e16cfbd5dc12f9cc4d0bbdd55eca19</property>
  <property name="kdenlive:proxy">/home/xiaoxiae/.cache/kdenlive/proxy/e1e16cfbd5dc12f9cc4d0bbdd55eca19.mkv</property>
  <property name="kdenlive:originalurl">video/PerfectGraph/4.mp4</property>
  <property name="global_feed">1</property>
  <property name="kdenlive:original.mlt_type">producer</property>
  <property name="kdenlive:original.in">0</property>
  <property name="kdenlive:original.out">119</property>
  <property name="kdenlive:original.length">120</property>
  <property name="kdenlive:original.eof">pause</property>
  <property name="kdenlive:original.resource">video/PerfectGraph/4.mp4</property>
  <property name="kdenlive:original.meta.media.nb_streams">1</property>
  <property name="kdenlive:original.meta.media.0.stream.type">video</property>
  <property name="kdenlive:original.meta.media.0.stream.frame_rate">60</property>
  <property name="kdenlive:original.meta.media.0.stream.sample_aspect_ratio">0</property>
  <property name="kdenlive:original.meta.media.0.codec.width">3840</property>
  <property name="kdenlive:original.meta.media.0.codec.height">2160</property>
  <property name="kdenlive:original.meta.media.0.codec.rotate">0</property>
  <property name="kdenlive:original.meta.media.0.codec.frame_rate">60</property>
  <property name="kdenlive:original.meta.media.0.codec.pix_fmt">yuv420p</property>
  <property name="kdenlive:original.meta.media.0.codec.sample_aspect_ratio">0</property>
  <property name="kdenlive:original.meta.media.0.codec.colorspace">709</property>
  <property name="kdenlive:original.meta.media.0.codec.name">h264</property>
  <property name="kdenlive:original.meta.media.0.codec.long_name">H.264 / AVC / MPEG-4 AVC / MPEG-4 part 10</property>
  <property name="kdenlive:original.meta.media.0.codec.bit_rate">730724</property>
  <property name="kdenlive:original.meta.attr.0.stream.handler_name.markup">VideoHandler</property>
  <property name="kdenlive:original.meta.attr.0.stream.vendor_id.markup">[0][0][0][0]</property>
  <property name="kdenlive:original.meta.attr.major_brand.markup">isom</property>
  <property name="kdenlive:original.meta.attr.minor_version.markup">512</property>
  <property name="kdenlive:original.meta.attr.compatible_brands.markup">isomiso2avc1mp41</property>
  <property name="kdenlive:original.meta.attr.encoder.markup">Lavf58.76.100</property>
  <property name="kdenlive:original.meta.attr.comment.markup">Rendered with Manim Community v0.6.0</property>
  <property name="kdenlive:original.seekable">1</property>
  <property name="kdenlive:original.width">3840</property>
  <property name="kdenlive:original.height">2160</property>
  <property name="kdenlive:original.meta.media.sample_aspect_num">1</property>
  <property name="kdenlive:original.meta.media.sample_aspect_den">1</property>
  <property name="kdenlive:original.aspect_ratio">1</property>
  <property name="kdenlive:original.audio_index">-1</property>
  <property name="kdenlive:original.video_index">0</property>
  <property name="kdenlive:original.mute_on_pause">1</property>
  <property name="kdenlive:original.mlt_service">avformat</property>
  <property name="kdenlive:original.meta.media.frame_rate_num">60</property>
  <property name="kdenlive:original.meta.media.frame_rate_den">1</property>
  <property name="kdenlive:original.meta.media.colorspace">709</property>
  <property name="kdenlive:original.meta.media.color_trc">2</property>
  <property name="kdenlive:original.meta.media.width">3840</property>
  <property name="kdenlive:original.meta.media.height">2160</property>
  <property name="kdenlive:original.meta.media.color_range">mpeg</property>
  <property name="kdenlive:original.meta.media.top_field_first">0</property>
  <property name="kdenlive:original.meta.media.progressive">1</property>
  <property name="kdenlive:original.backup">1</property>
  <property name="xml">was here</property>
  <property name="meta.media.nb_streams">1</property>
  <property name="meta.media.0.stream.type">video</property>
  <property name="meta.media.0.stream.frame_rate">60</property>
  <property name="meta.media.0.stream.sample_aspect_ratio">0</property>
  <property name="meta.media.0.codec.width">640</property>
  <property name="meta.media.0.codec.height">360</property>
  <property name="meta.media.0.codec.rotate">0</property>
  <property name="meta.media.0.codec.frame_rate">60</property>
  <property name="meta.media.0.codec.pix_fmt">yuv420p</property>
  <property name="meta.media.0.codec.sample_aspect_ratio">0</property>
  <property name="meta.media.0.codec.colorspace">601</property>
  <property name="meta.media.0.codec.name">h264</property>
  <property name="meta.media.0.codec.long_name">H.264 / AVC / MPEG-4 AVC / MPEG-4 part 10</property>
  <property name="meta.media.0.codec.bit_rate">0</property>
  <property name="meta.attr.0.stream.HANDLER_NAME.markup">VideoHandler</property>
  <property name="meta.attr.0.stream.VENDOR_ID.markup">[0][0][0][0]</property>
  <property name="meta.attr.0.stream.ENCODER.markup">Lavc58.134.100 libx264</property>
  <property name="meta.attr.0.stream.DURATION.markup">00:00:02.000000000</property>
  <property name="meta.attr.COMMENT.markup">Rendered with Manim Community v0.6.0</property>
  <property name="meta.attr.MAJOR_BRAND.markup">isom</property>
  <property name="meta.attr.MINOR_VERSION.markup">512</property>
  <property name="meta.attr.COMPATIBLE_BRANDS.markup">isomiso2avc1mp41</property>
  <property name="meta.attr.ENCODER.markup">Lavf58.76.100</property>
  <property name="meta.media.sample_aspect_num">1</property>
  <property name="meta.media.sample_aspect_den">1</property>
  <property name="meta.media.frame_rate_num">60</property>
  <property name="meta.media.frame_rate_den">1</property>
  <property name="meta.media.colorspace">601</property>
  <property name="meta.media.color_trc">2</property>
  <property name="meta.media.width">640</property>
  <property name="meta.media.height">360</property>
  <property name="meta.media.color_range">mpeg</property>
  <property name="meta.media.top_field_first">0</property>
  <property name="meta.media.progressive">1</property>
  <property name="set.test_audio">1</property>
  <property name="set.test_image">0</property>
 </producer>
 <producer id="producer645" in="00:00:00.000" out="00:00:00.983">
  <property name="length">60</property>
  <property name="eof">pause</property>
  <property name="resource">/home/xiaoxiae/.cache/kdenlive/proxy/1e96761aadae1f90337f89a68034d317.mkv</property>
  <property name="audio_index">-1</property>
  <property name="video_index">0</property>
  <property name="mute_on_pause">0</property>
  <property name="mlt_service">avformat-novalidate</property>
  <property name="seekable">1</property>
  <property name="aspect_ratio">1</property>
  <property name="kdenlive:clipname">5.mp4</property>
  <property name="kdenlive:folderid">364</property>
  <property name="kdenlive:id">353</property>
  <property name="kdenlive:file_size">158452</property>
  <property name="kdenlive:file_hash">1e96761aadae1f90337f89a68034d317</property>
  <property name="kdenlive:proxy">/home/xiaoxiae/.cache/kdenlive/proxy/1e96761aadae1f90337f89a68034d317.mkv</property>
  <property name="kdenlive:originalurl">video/PerfectGraph/5.mp4</property>
  <property name="global_feed">1</property>
  <property name="kdenlive:original.mlt_type">producer</property>
  <property name="kdenlive:original.in">0</property>
  <property name="kdenlive:original.out">59</property>
  <property name="kdenlive:original.length">60</property>
  <property name="kdenlive:original.eof">pause</property>
  <property name="kdenlive:original.resource">video/PerfectGraph/5.mp4</property>
  <property name="kdenlive:original.meta.media.nb_streams">1</property>
  <property name="kdenlive:original.meta.media.0.stream.type">video</property>
  <property name="kdenlive:original.meta.media.0.stream.frame_rate">60</property>
  <property name="kdenlive:original.meta.media.0.stream.sample_aspect_ratio">0</property>
  <property name="kdenlive:original.meta.media.0.codec.width">3840</property>
  <property name="kdenlive:original.meta.media.0.codec.height">2160</property>
  <property name="kdenlive:original.meta.media.0.codec.rotate">0</property>
  <property name="kdenlive:original.meta.media.0.codec.frame_rate">60</property>
  <property name="kdenlive:original.meta.media.0.codec.pix_fmt">yuv420p</property>
  <property name="kdenlive:original.meta.media.0.codec.sample_aspect_ratio">0</property>
  <property name="kdenlive:original.meta.media.0.codec.colorspace">709</property>
  <property name="kdenlive:original.meta.media.0.codec.name">h264</property>
  <property name="kdenlive:original.meta.media.0.codec.long_name">H.264 / AVC / MPEG-4 AVC / MPEG-4 part 10</property>
  <property name="kdenlive:original.meta.media.0.codec.bit_rate">1254568</property>
  <property name="kdenlive:original.meta.attr.0.stream.handler_name.markup">VideoHandler</property>
  <property name="kdenlive:original.meta.attr.0.stream.vendor_id.markup">[0][0][0][0]</property>
  <property name="kdenlive:original.meta.attr.major_brand.markup">isom</property>
  <property name="kdenlive:original.meta.attr.minor_version.markup">512</property>
  <property name="kdenlive:original.meta.attr.compatible_brands.markup">isomiso2avc1mp41</property>
  <property name="kdenlive:original.meta.attr.encoder.markup">Lavf58.76.100</property>
  <property name="kdenlive:original.meta.attr.comment.markup">Rendered with Manim Community v0.6.0</property>
  <property name="kdenlive:original.seekable">1</property>
  <property name="kdenlive:original.width">3840</property>
  <property name="kdenlive:original.height">2160</property>
  <property name="kdenlive:original.meta.media.sample_aspect_num">1</property>
  <property name="kdenlive:original.meta.media.sample_aspect_den">1</property>
  <property name="kdenlive:original.aspect_ratio">1</property>
  <property name="kdenlive:original.audio_index">-1</property>
  <property name="kdenlive:original.video_index">0</property>
  <property name="kdenlive:original.mute_on_pause">1</property>
  <property name="kdenlive:original.mlt_service">avformat</property>
  <property name="kdenlive:original.meta.media.frame_rate_num">60</property>
  <property name="kdenlive:original.meta.media.frame_rate_den">1</property>
  <property name="kdenlive:original.meta.media.colorspace">709</property>
  <property name="kdenlive:original.meta.media.color_trc">2</property>
  <property name="kdenlive:original.meta.media.width">3840</property>
  <property name="kdenlive:original.meta.media.height">2160</property>
  <property name="kdenlive:original.meta.media.color_range">mpeg</property>
  <property name="kdenlive:original.meta.media.top_field_first">0</property>
  <property name="kdenlive:original.meta.media.progressive">1</property>
  <property name="kdenlive:original.backup">1</property>
  <property name="xml">was here</property>
  <property name="meta.media.nb_streams">1</property>
  <property name="meta.media.0.stream.type">video</property>
  <property name="meta.media.0.stream.frame_rate">60</property>
  <property name="meta.media.0.stream.sample_aspect_ratio">0</property>
  <property name="meta.media.0.codec.width">640</property>
  <property name="meta.media.0.codec.height">360</property>
  <property name="meta.media.0.codec.rotate">0</property>
  <property name="meta.media.0.codec.frame_rate">60</property>
  <property name="meta.media.0.codec.pix_fmt">yuv420p</property>
  <property name="meta.media.0.codec.sample_aspect_ratio">0</property>
  <property name="meta.media.0.codec.colorspace">601</property>
  <property name="meta.media.0.codec.name">h264</property>
  <property name="meta.media.0.codec.long_name">H.264 / AVC / MPEG-4 AVC / MPEG-4 part 10</property>
  <property name="meta.media.0.codec.bit_rate">0</property>
  <property name="meta.attr.0.stream.HANDLER_NAME.markup">VideoHandler</property>
  <property name="meta.attr.0.stream.VENDOR_ID.markup">[0][0][0][0]</property>
  <property name="meta.attr.0.stream.ENCODER.markup">Lavc58.134.100 libx264</property>
  <property name="meta.attr.0.stream.DURATION.markup">00:00:01.000000000</property>
  <property name="meta.attr.COMMENT.markup">Rendered with Manim Community v0.6.0</property>
  <property name="meta.attr.MAJOR_BRAND.markup">isom</property>
  <property name="meta.attr.MINOR_VERSION.markup">512</property>
  <property name="meta.attr.COMPATIBLE_BRANDS.markup">isomiso2avc1mp41</property>
  <property name="meta.attr.ENCODER.markup">Lavf58.76.100</property>
  <property name="meta.media.sample_aspect_num">1</property>
  <property name="meta.media.sample_aspect_den">1</property>
  <property name="meta.media.frame_rate_num">60</property>
  <property name="meta.media.frame_rate_den">1</property>
  <property name="meta.media.colorspace">601</property>
  <property name="meta.media.color_trc">2</property>
  <property name="meta.media.width">640</property>
  <property name="meta.media.height">360</property>
  <property name="meta.media.color_range">mpeg</property>
  <property name="meta.media.top_field_first">0</property>
  <property name="meta.media.progressive">1</property>
  <property name="set.test_audio">1</property>
  <property name="set.test_image">0</property>
 </producer>
 <producer id="producer646" in="00:00:00.000" out="00:00:00.983">
  <property name="length">60</property>
  <property name="eof">pause</property>
  <property name="resource">/home/xiaoxiae/.cache/kdenlive/proxy/dd43c6b8ce0e69badeae7060d1c20166.mkv</property>
  <property name="audio_index">-1</property>
  <property name="video_index">0</property>
  <property name="mute_on_pause">0</property>
  <property name="mlt_service">avformat-novalidate</property>
  <property name="seekable">1</property>
  <property name="aspect_ratio">1</property>
  <property name="kdenlive:clipname">6.mp4</property>
  <property name="kdenlive:folderid">364</property>
  <property name="kdenlive:id">355</property>
  <property name="kdenlive:file_size">150314</property>
  <property name="kdenlive:file_hash">dd43c6b8ce0e69badeae7060d1c20166</property>
  <property name="kdenlive:proxy">/home/xiaoxiae/.cache/kdenlive/proxy/dd43c6b8ce0e69badeae7060d1c20166.mkv</property>
  <property name="kdenlive:originalurl">video/PerfectGraph/6.mp4</property>
  <property name="global_feed">1</property>
  <property name="kdenlive:original.mlt_type">producer</property>
  <property name="kdenlive:original.in">0</property>
  <property name="kdenlive:original.out">59</property>
  <property name="kdenlive:original.length">60</property>
  <property name="kdenlive:original.eof">pause</property>
  <property name="kdenlive:original.resource">video/PerfectGraph/6.mp4</property>
  <property name="kdenlive:original.meta.media.nb_streams">1</property>
  <property name="kdenlive:original.meta.media.0.stream.type">video</property>
  <property name="kdenlive:original.meta.media.0.stream.frame_rate">60</property>
  <property name="kdenlive:original.meta.media.0.stream.sample_aspect_ratio">0</property>
  <property name="kdenlive:original.meta.media.0.codec.width">3840</property>
  <property name="kdenlive:original.meta.media.0.codec.height">2160</property>
  <property name="kdenlive:original.meta.media.0.codec.rotate">0</property>
  <property name="kdenlive:original.meta.media.0.codec.frame_rate">60</property>
  <property name="kdenlive:original.meta.media.0.codec.pix_fmt">yuv420p</property>
  <property name="kdenlive:original.meta.media.0.codec.sample_aspect_ratio">0</property>
  <property name="kdenlive:original.meta.media.0.codec.colorspace">709</property>
  <property name="kdenlive:original.meta.media.0.codec.name">h264</property>
  <property name="kdenlive:original.meta.media.0.codec.long_name">H.264 / AVC / MPEG-4 AVC / MPEG-4 part 10</property>
  <property name="kdenlive:original.meta.media.0.codec.bit_rate">1189464</property>
  <property name="kdenlive:original.meta.attr.0.stream.handler_name.markup">VideoHandler</property>
  <property name="kdenlive:original.meta.attr.0.stream.vendor_id.markup">[0][0][0][0]</property>
  <property name="kdenlive:original.meta.attr.major_brand.markup">isom</property>
  <property name="kdenlive:original.meta.attr.minor_version.markup">512</property>
  <property name="kdenlive:original.meta.attr.compatible_brands.markup">isomiso2avc1mp41</property>
  <property name="kdenlive:original.meta.attr.encoder.markup">Lavf58.76.100</property>
  <property name="kdenlive:original.meta.attr.comment.markup">Rendered with Manim Community v0.6.0</property>
  <property name="kdenlive:original.seekable">1</property>
  <property name="kdenlive:original.width">3840</property>
  <property name="kdenlive:original.height">2160</property>
  <property name="kdenlive:original.meta.media.sample_aspect_num">1</property>
  <property name="kdenlive:original.meta.media.sample_aspect_den">1</property>
  <property name="kdenlive:original.aspect_ratio">1</property>
  <property name="kdenlive:original.audio_index">-1</property>
  <property name="kdenlive:original.video_index">0</property>
  <property name="kdenlive:original.mute_on_pause">1</property>
  <property name="kdenlive:original.mlt_service">avformat</property>
  <property name="kdenlive:original.meta.media.frame_rate_num">60</property>
  <property name="kdenlive:original.meta.media.frame_rate_den">1</property>
  <property name="kdenlive:original.meta.media.colorspace">709</property>
  <property name="kdenlive:original.meta.media.color_trc">2</property>
  <property name="kdenlive:original.meta.media.width">3840</property>
  <property name="kdenlive:original.meta.media.height">2160</property>
  <property name="kdenlive:original.meta.media.color_range">mpeg</property>
  <property name="kdenlive:original.meta.media.top_field_first">0</property>
  <property name="kdenlive:original.meta.media.progressive">1</property>
  <property name="kdenlive:original.backup">1</property>
  <property name="xml">was here</property>
  <property name="meta.media.nb_streams">1</property>
  <property name="meta.media.0.stream.type">video</property>
  <property name="meta.media.0.stream.frame_rate">60</property>
  <property name="meta.media.0.stream.sample_aspect_ratio">0</property>
  <property name="meta.media.0.codec.width">640</property>
  <property name="meta.media.0.codec.height">360</property>
  <property name="meta.media.0.codec.rotate">0</property>
  <property name="meta.media.0.codec.frame_rate">60</property>
  <property name="meta.media.0.codec.pix_fmt">yuv420p</property>
  <property name="meta.media.0.codec.sample_aspect_ratio">0</property>
  <property name="meta.media.0.codec.colorspace">601</property>
  <property name="meta.media.0.codec.name">h264</property>
  <property name="meta.media.0.codec.long_name">H.264 / AVC / MPEG-4 AVC / MPEG-4 part 10</property>
  <property name="meta.media.0.codec.bit_rate">0</property>
  <property name="meta.attr.0.stream.HANDLER_NAME.markup">VideoHandler</property>
  <property name="meta.attr.0.stream.VENDOR_ID.markup">[0][0][0][0]</property>
  <property name="meta.attr.0.stream.ENCODER.markup">Lavc58.134.100 libx264</property>
  <property name="meta.attr.0.stream.DURATION.markup">00:00:01.000000000</property>
  <property name="meta.attr.COMMENT.markup">Rendered with Manim Community v0.6.0</property>
  <property name="meta.attr.MAJOR_BRAND.markup">isom</property>
  <property name="meta.attr.MINOR_VERSION.markup">512</property>
  <property name="meta.attr.COMPATIBLE_BRANDS.markup">isomiso2avc1mp41</property>
  <property name="meta.attr.ENCODER.markup">Lavf58.76.100</property>
  <property name="meta.media.sample_aspect_num">1</property>
  <property name="meta.media.sample_aspect_den">1</property>
  <property name="meta.media.frame_rate_num">60</property>
  <property name="meta.media.frame_rate_den">1</property>
  <property name="meta.media.colorspace">601</property>
  <property name="meta.media.color_trc">2</property>
  <property name="meta.media.width">640</property>
  <property name="meta.media.height">360</property>
  <property name="meta.media.color_range">mpeg</property>
  <property name="meta.media.top_field_first">0</property>
  <property name="meta.media.progressive">1</property>
  <property name="set.test_audio">1</property>
  <property name="set.test_image">0</property>
 </producer>
 <producer id="producer647" in="00:00:00.000" out="00:00:00.983">
  <property name="length">60</property>
  <property name="eof">pause</property>
  <property name="resource">/home/xiaoxiae/.cache/kdenlive/proxy/bd27b6f6f3d5aede684874e0160164c2.mkv</property>
  <property name="audio_index">-1</property>
  <property name="video_index">0</property>
  <property name="mute_on_pause">0</property>
  <property name="mlt_service">avformat-novalidate</property>
  <property name="seekable">1</property>
  <property name="aspect_ratio">1</property>
  <property name="kdenlive:clipname">7.mp4</property>
  <property name="kdenlive:folderid">364</property>
  <property name="kdenlive:id">357</property>
  <property name="kdenlive:file_size">173692</property>
  <property name="kdenlive:file_hash">bd27b6f6f3d5aede684874e0160164c2</property>
  <property name="kdenlive:proxy">/home/xiaoxiae/.cache/kdenlive/proxy/bd27b6f6f3d5aede684874e0160164c2.mkv</property>
  <property name="kdenlive:originalurl">video/PerfectGraph/7.mp4</property>
  <property name="global_feed">1</property>
  <property name="kdenlive:original.mlt_type">producer</property>
  <property name="kdenlive:original.in">0</property>
  <property name="kdenlive:original.out">59</property>
  <property name="kdenlive:original.length">60</property>
  <property name="kdenlive:original.eof">pause</property>
  <property name="kdenlive:original.resource">video/PerfectGraph/7.mp4</property>
  <property name="kdenlive:original.meta.media.nb_streams">1</property>
  <property name="kdenlive:original.meta.media.0.stream.type">video</property>
  <property name="kdenlive:original.meta.media.0.stream.frame_rate">60</property>
  <property name="kdenlive:original.meta.media.0.stream.sample_aspect_ratio">0</property>
  <property name="kdenlive:original.meta.media.0.codec.width">3840</property>
  <property name="kdenlive:original.meta.media.0.codec.height">2160</property>
  <property name="kdenlive:original.meta.media.0.codec.rotate">0</property>
  <property name="kdenlive:original.meta.media.0.codec.frame_rate">60</property>
  <property name="kdenlive:original.meta.media.0.codec.pix_fmt">yuv420p</property>
  <property name="kdenlive:original.meta.media.0.codec.sample_aspect_ratio">0</property>
  <property name="kdenlive:original.meta.media.0.codec.colorspace">709</property>
  <property name="kdenlive:original.meta.media.0.codec.name">h264</property>
  <property name="kdenlive:original.meta.media.0.codec.long_name">H.264 / AVC / MPEG-4 AVC / MPEG-4 part 10</property>
  <property name="kdenlive:original.meta.media.0.codec.bit_rate">1376488</property>
  <property name="kdenlive:original.meta.attr.0.stream.handler_name.markup">VideoHandler</property>
  <property name="kdenlive:original.meta.attr.0.stream.vendor_id.markup">[0][0][0][0]</property>
  <property name="kdenlive:original.meta.attr.major_brand.markup">isom</property>
  <property name="kdenlive:original.meta.attr.minor_version.markup">512</property>
  <property name="kdenlive:original.meta.attr.compatible_brands.markup">isomiso2avc1mp41</property>
  <property name="kdenlive:original.meta.attr.encoder.markup">Lavf58.76.100</property>
  <property name="kdenlive:original.meta.attr.comment.markup">Rendered with Manim Community v0.6.0</property>
  <property name="kdenlive:original.seekable">1</property>
  <property name="kdenlive:original.width">3840</property>
  <property name="kdenlive:original.height">2160</property>
  <property name="kdenlive:original.meta.media.sample_aspect_num">1</property>
  <property name="kdenlive:original.meta.media.sample_aspect_den">1</property>
  <property name="kdenlive:original.aspect_ratio">1</property>
  <property name="kdenlive:original.audio_index">-1</property>
  <property name="kdenlive:original.video_index">0</property>
  <property name="kdenlive:original.mute_on_pause">1</property>
  <property name="kdenlive:original.mlt_service">avformat</property>
  <property name="kdenlive:original.meta.media.frame_rate_num">60</property>
  <property name="kdenlive:original.meta.media.frame_rate_den">1</property>
  <property name="kdenlive:original.meta.media.colorspace">709</property>
  <property name="kdenlive:original.meta.media.color_trc">2</property>
  <property name="kdenlive:original.meta.media.width">3840</property>
  <property name="kdenlive:original.meta.media.height">2160</property>
  <property name="kdenlive:original.meta.media.color_range">mpeg</property>
  <property name="kdenlive:original.meta.media.top_field_first">0</property>
  <property name="kdenlive:original.meta.media.progressive">1</property>
  <property name="kdenlive:original.backup">1</property>
  <property name="xml">was here</property>
  <property name="meta.media.nb_streams">1</property>
  <property name="meta.media.0.stream.type">video</property>
  <property name="meta.media.0.stream.frame_rate">60</property>
  <property name="meta.media.0.stream.sample_aspect_ratio">0</property>
  <property name="meta.media.0.codec.width">640</property>
  <property name="meta.media.0.codec.height">360</property>
  <property name="meta.media.0.codec.rotate">0</property>
  <property name="meta.media.0.codec.frame_rate">60</property>
  <property name="meta.media.0.codec.pix_fmt">yuv420p</property>
  <property name="meta.media.0.codec.sample_aspect_ratio">0</property>
  <property name="meta.media.0.codec.colorspace">601</property>
  <property name="meta.media.0.codec.name">h264</property>
  <property name="meta.media.0.codec.long_name">H.264 / AVC / MPEG-4 AVC / MPEG-4 part 10</property>
  <property name="meta.media.0.codec.bit_rate">0</property>
  <property name="meta.attr.0.stream.HANDLER_NAME.markup">VideoHandler</property>
  <property name="meta.attr.0.stream.VENDOR_ID.markup">[0][0][0][0]</property>
  <property name="meta.attr.0.stream.ENCODER.markup">Lavc58.134.100 libx264</property>
  <property name="meta.attr.0.stream.DURATION.markup">00:00:01.000000000</property>
  <property name="meta.attr.COMMENT.markup">Rendered with Manim Community v0.6.0</property>
  <property name="meta.attr.MAJOR_BRAND.markup">isom</property>
  <property name="meta.attr.MINOR_VERSION.markup">512</property>
  <property name="meta.attr.COMPATIBLE_BRANDS.markup">isomiso2avc1mp41</property>
  <property name="meta.attr.ENCODER.markup">Lavf58.76.100</property>
  <property name="meta.media.sample_aspect_num">1</property>
  <property name="meta.media.sample_aspect_den">1</property>
  <property name="meta.media.frame_rate_num">60</property>
  <property name="meta.media.frame_rate_den">1</property>
  <property name="meta.media.colorspace">601</property>
  <property name="meta.media.color_trc">2</property>
  <property name="meta.media.width">640</property>
  <property name="meta.media.height">360</property>
  <property name="meta.media.color_range">mpeg</property>
  <property name="meta.media.top_field_first">0</property>
  <property name="meta.media.progressive">1</property>
  <property name="set.test_audio">1</property>
  <property name="set.test_image">0</property>
 </producer>
 <producer id="producer648" in="00:00:00.000" out="00:00:00.983">
  <property name="length">60</property>
  <property name="eof">pause</property>
  <property name="resource">/home/xiaoxiae/.cache/kdenlive/proxy/7b7087c12f5d8ccfdf4cad9a46857efc.mkv</property>
  <property name="audio_index">-1</property>
  <property name="video_index">0</property>
  <property name="mute_on_pause">0</property>
  <property name="mlt_service">avformat-novalidate</property>
  <property name="seekable">1</property>
  <property name="aspect_ratio">1</property>
  <property name="kdenlive:clipname">8.mp4</property>
  <property name="kdenlive:folderid">364</property>
  <property name="kdenlive:id">359</property>
  <property name="kdenlive:file_size">172834</property>
  <property name="kdenlive:file_hash">7b7087c12f5d8ccfdf4cad9a46857efc</property>
  <property name="kdenlive:proxy">/home/xiaoxiae/.cache/kdenlive/proxy/7b7087c12f5d8ccfdf4cad9a46857efc.mkv</property>
  <property name="kdenlive:originalurl">video/PerfectGraph/8.mp4</property>
  <property name="global_feed">1</property>
  <property name="kdenlive:original.mlt_type">producer</property>
  <property name="kdenlive:original.in">0</property>
  <property name="kdenlive:original.out">59</property>
  <property name="kdenlive:original.length">60</property>
  <property name="kdenlive:original.eof">pause</property>
  <property name="kdenlive:original.resource">video/PerfectGraph/8.mp4</property>
  <property name="kdenlive:original.meta.media.nb_streams">1</property>
  <property name="kdenlive:original.meta.media.0.stream.type">video</property>
  <property name="kdenlive:original.meta.media.0.stream.frame_rate">60</property>
  <property name="kdenlive:original.meta.media.0.stream.sample_aspect_ratio">0</property>
  <property name="kdenlive:original.meta.media.0.codec.width">3840</property>
  <property name="kdenlive:original.meta.media.0.codec.height">2160</property>
  <property name="kdenlive:original.meta.media.0.codec.rotate">0</property>
  <property name="kdenlive:original.meta.media.0.codec.frame_rate">60</property>
  <property name="kdenlive:original.meta.media.0.codec.pix_fmt">yuv420p</property>
  <property name="kdenlive:original.meta.media.0.codec.sample_aspect_ratio">0</property>
  <property name="kdenlive:original.meta.media.0.codec.colorspace">709</property>
  <property name="kdenlive:original.meta.media.0.codec.name">h264</property>
  <property name="kdenlive:original.meta.media.0.codec.long_name">H.264 / AVC / MPEG-4 AVC / MPEG-4 part 10</property>
  <property name="kdenlive:original.meta.media.0.codec.bit_rate">1369624</property>
  <property name="kdenlive:original.meta.attr.0.stream.handler_name.markup">VideoHandler</property>
  <property name="kdenlive:original.meta.attr.0.stream.vendor_id.markup">[0][0][0][0]</property>
  <property name="kdenlive:original.meta.attr.major_brand.markup">isom</property>
  <property name="kdenlive:original.meta.attr.minor_version.markup">512</property>
  <property name="kdenlive:original.meta.attr.compatible_brands.markup">isomiso2avc1mp41</property>
  <property name="kdenlive:original.meta.attr.encoder.markup">Lavf58.76.100</property>
  <property name="kdenlive:original.meta.attr.comment.markup">Rendered with Manim Community v0.6.0</property>
  <property name="kdenlive:original.seekable">1</property>
  <property name="kdenlive:original.width">3840</property>
  <property name="kdenlive:original.height">2160</property>
  <property name="kdenlive:original.meta.media.sample_aspect_num">1</property>
  <property name="kdenlive:original.meta.media.sample_aspect_den">1</property>
  <property name="kdenlive:original.aspect_ratio">1</property>
  <property name="kdenlive:original.audio_index">-1</property>
  <property name="kdenlive:original.video_index">0</property>
  <property name="kdenlive:original.mute_on_pause">1</property>
  <property name="kdenlive:original.mlt_service">avformat</property>
  <property name="kdenlive:original.meta.media.frame_rate_num">60</property>
  <property name="kdenlive:original.meta.media.frame_rate_den">1</property>
  <property name="kdenlive:original.meta.media.colorspace">709</property>
  <property name="kdenlive:original.meta.media.color_trc">2</property>
  <property name="kdenlive:original.meta.media.width">3840</property>
  <property name="kdenlive:original.meta.media.height">2160</property>
  <property name="kdenlive:original.meta.media.color_range">mpeg</property>
  <property name="kdenlive:original.meta.media.top_field_first">0</property>
  <property name="kdenlive:original.meta.media.progressive">1</property>
  <property name="kdenlive:original.backup">1</property>
  <property name="xml">was here</property>
  <property name="meta.media.nb_streams">1</property>
  <property name="meta.media.0.stream.type">video</property>
  <property name="meta.media.0.stream.frame_rate">60</property>
  <property name="meta.media.0.stream.sample_aspect_ratio">0</property>
  <property name="meta.media.0.codec.width">640</property>
  <property name="meta.media.0.codec.height">360</property>
  <property name="meta.media.0.codec.rotate">0</property>
  <property name="meta.media.0.codec.frame_rate">60</property>
  <property name="meta.media.0.codec.pix_fmt">yuv420p</property>
  <property name="meta.media.0.codec.sample_aspect_ratio">0</property>
  <property name="meta.media.0.codec.colorspace">601</property>
  <property name="meta.media.0.codec.name">h264</property>
  <property name="meta.media.0.codec.long_name">H.264 / AVC / MPEG-4 AVC / MPEG-4 part 10</property>
  <property name="meta.media.0.codec.bit_rate">0</property>
  <property name="meta.attr.0.stream.HANDLER_NAME.markup">VideoHandler</property>
  <property name="meta.attr.0.stream.VENDOR_ID.markup">[0][0][0][0]</property>
  <property name="meta.attr.0.stream.ENCODER.markup">Lavc58.134.100 libx264</property>
  <property name="meta.attr.0.stream.DURATION.markup">00:00:01.000000000</property>
  <property name="meta.attr.COMMENT.markup">Rendered with Manim Community v0.6.0</property>
  <property name="meta.attr.MAJOR_BRAND.markup">isom</property>
  <property name="meta.attr.MINOR_VERSION.markup">512</property>
  <property name="meta.attr.COMPATIBLE_BRANDS.markup">isomiso2avc1mp41</property>
  <property name="meta.attr.ENCODER.markup">Lavf58.76.100</property>
  <property name="meta.media.sample_aspect_num">1</property>
  <property name="meta.media.sample_aspect_den">1</property>
  <property name="meta.media.frame_rate_num">60</property>
  <property name="meta.media.frame_rate_den">1</property>
  <property name="meta.media.colorspace">601</property>
  <property name="meta.media.color_trc">2</property>
  <property name="meta.media.width">640</property>
  <property name="meta.media.height">360</property>
  <property name="meta.media.color_range">mpeg</property>
  <property name="meta.media.top_field_first">0</property>
  <property name="meta.media.progressive">1</property>
  <property name="set.test_audio">1</property>
  <property name="set.test_image">0</property>
 </producer>
 <producer id="producer649" in="00:00:00.000" out="00:00:00.983">
  <property name="length">60</property>
  <property name="eof">pause</property>
  <property name="resource">/home/xiaoxiae/.cache/kdenlive/proxy/7c288b3341602be957e415e741b02fc2.mkv</property>
  <property name="audio_index">-1</property>
  <property name="video_index">0</property>
  <property name="mute_on_pause">0</property>
  <property name="mlt_service">avformat-novalidate</property>
  <property name="seekable">1</property>
  <property name="aspect_ratio">1</property>
  <property name="kdenlive:clipname">9.mp4</property>
  <property name="kdenlive:folderid">364</property>
  <property name="kdenlive:id">361</property>
  <property name="kdenlive:file_size">130504</property>
  <property name="kdenlive:file_hash">7c288b3341602be957e415e741b02fc2</property>
  <property name="kdenlive:proxy">/home/xiaoxiae/.cache/kdenlive/proxy/7c288b3341602be957e415e741b02fc2.mkv</property>
  <property name="kdenlive:originalurl">video/PerfectGraph/9.mp4</property>
  <property name="global_feed">1</property>
  <property name="kdenlive:original.mlt_type">producer</property>
  <property name="kdenlive:original.in">0</property>
  <property name="kdenlive:original.out">59</property>
  <property name="kdenlive:original.length">60</property>
  <property name="kdenlive:original.eof">pause</property>
  <property name="kdenlive:original.resource">video/PerfectGraph/9.mp4</property>
  <property name="kdenlive:original.meta.media.nb_streams">1</property>
  <property name="kdenlive:original.meta.media.0.stream.type">video</property>
  <property name="kdenlive:original.meta.media.0.stream.frame_rate">60</property>
  <property name="kdenlive:original.meta.media.0.stream.sample_aspect_ratio">0</property>
  <property name="kdenlive:original.meta.media.0.codec.width">3840</property>
  <property name="kdenlive:original.meta.media.0.codec.height">2160</property>
  <property name="kdenlive:original.meta.media.0.codec.rotate">0</property>
  <property name="kdenlive:original.meta.media.0.codec.frame_rate">60</property>
  <property name="kdenlive:original.meta.media.0.codec.pix_fmt">yuv420p</property>
  <property name="kdenlive:original.meta.media.0.codec.sample_aspect_ratio">0</property>
  <property name="kdenlive:original.meta.media.0.codec.colorspace">709</property>
  <property name="kdenlive:original.meta.media.0.codec.name">h264</property>
  <property name="kdenlive:original.meta.media.0.codec.long_name">H.264 / AVC / MPEG-4 AVC / MPEG-4 part 10</property>
  <property name="kdenlive:original.meta.media.0.codec.bit_rate">1030920</property>
  <property name="kdenlive:original.meta.attr.0.stream.handler_name.markup">VideoHandler</property>
  <property name="kdenlive:original.meta.attr.0.stream.vendor_id.markup">[0][0][0][0]</property>
  <property name="kdenlive:original.meta.attr.major_brand.markup">isom</property>
  <property name="kdenlive:original.meta.attr.minor_version.markup">512</property>
  <property name="kdenlive:original.meta.attr.compatible_brands.markup">isomiso2avc1mp41</property>
  <property name="kdenlive:original.meta.attr.encoder.markup">Lavf58.76.100</property>
  <property name="kdenlive:original.meta.attr.comment.markup">Rendered with Manim Community v0.6.0</property>
  <property name="kdenlive:original.seekable">1</property>
  <property name="kdenlive:original.width">3840</property>
  <property name="kdenlive:original.height">2160</property>
  <property name="kdenlive:original.meta.media.sample_aspect_num">1</property>
  <property name="kdenlive:original.meta.media.sample_aspect_den">1</property>
  <property name="kdenlive:original.aspect_ratio">1</property>
  <property name="kdenlive:original.audio_index">-1</property>
  <property name="kdenlive:original.video_index">0</property>
  <property name="kdenlive:original.mute_on_pause">1</property>
  <property name="kdenlive:original.mlt_service">avformat</property>
  <property name="kdenlive:original.meta.media.frame_rate_num">60</property>
  <property name="kdenlive:original.meta.media.frame_rate_den">1</property>
  <property name="kdenlive:original.meta.media.colorspace">709</property>
  <property name="kdenlive:original.meta.media.color_trc">2</property>
  <property name="kdenlive:original.meta.media.width">3840</property>
  <property name="kdenlive:original.meta.media.height">2160</property>
  <property name="kdenlive:original.meta.media.color_range">mpeg</property>
  <property name="kdenlive:original.meta.media.top_field_first">0</property>
  <property name="kdenlive:original.meta.media.progressive">1</property>
  <property name="kdenlive:original.backup">1</property>
  <property name="xml">was here</property>
  <property name="meta.media.nb_streams">1</property>
  <property name="meta.media.0.stream.type">video</property>
  <property name="meta.media.0.stream.frame_rate">60</property>
  <property name="meta.media.0.stream.sample_aspect_ratio">0</property>
  <property name="meta.media.0.codec.width">640</property>
  <property name="meta.media.0.codec.height">360</property>
  <property name="meta.media.0.codec.rotate">0</property>
  <property name="meta.media.0.codec.frame_rate">60</property>
  <property name="meta.media.0.codec.pix_fmt">yuv420p</property>
  <property name="meta.media.0.codec.sample_aspect_ratio">0</property>
  <property name="meta.media.0.codec.colorspace">601</property>
  <property name="meta.media.0.codec.name">h264</property>
  <property name="meta.media.0.codec.long_name">H.264 / AVC / MPEG-4 AVC / MPEG-4 part 10</property>
  <property name="meta.media.0.codec.bit_rate">0</property>
  <property name="meta.attr.0.stream.HANDLER_NAME.markup">VideoHandler</property>
  <property name="meta.attr.0.stream.VENDOR_ID.markup">[0][0][0][0]</property>
  <property name="meta.attr.0.stream.ENCODER.markup">Lavc58.134.100 libx264</property>
  <property name="meta.attr.0.stream.DURATION.markup">00:00:01.000000000</property>
  <property name="meta.attr.COMMENT.markup">Rendered with Manim Community v0.6.0</property>
  <property name="meta.attr.MAJOR_BRAND.markup">isom</property>
  <property name="meta.attr.MINOR_VERSION.markup">512</property>
  <property name="meta.attr.COMPATIBLE_BRANDS.markup">isomiso2avc1mp41</property>
  <property name="meta.attr.ENCODER.markup">Lavf58.76.100</property>
  <property name="meta.media.sample_aspect_num">1</property>
  <property name="meta.media.sample_aspect_den">1</property>
  <property name="meta.media.frame_rate_num">60</property>
  <property name="meta.media.frame_rate_den">1</property>
  <property name="meta.media.colorspace">601</property>
  <property name="meta.media.color_trc">2</property>
  <property name="meta.media.width">640</property>
  <property name="meta.media.height">360</property>
  <property name="meta.media.color_range">mpeg</property>
  <property name="meta.media.top_field_first">0</property>
  <property name="meta.media.progressive">1</property>
  <property name="set.test_audio">1</property>
  <property name="set.test_image">0</property>
 </producer>
 <producer id="producer650" in="00:00:00.000" out="00:00:00.983">
  <property name="length">60</property>
  <property name="eof">pause</property>
  <property name="resource">/home/xiaoxiae/.cache/kdenlive/proxy/78b5795f989ba9b24d30333a536bb35b.mkv</property>
  <property name="audio_index">-1</property>
  <property name="video_index">0</property>
  <property name="mute_on_pause">0</property>
  <property name="mlt_service">avformat-novalidate</property>
  <property name="seekable">1</property>
  <property name="aspect_ratio">1</property>
  <property name="kdenlive:clipname">10.mp4</property>
  <property name="kdenlive:folderid">364</property>
  <property name="kdenlive:id">343</property>
  <property name="kdenlive:file_size">141565</property>
  <property name="kdenlive:file_hash">78b5795f989ba9b24d30333a536bb35b</property>
  <property name="kdenlive:proxy">/home/xiaoxiae/.cache/kdenlive/proxy/78b5795f989ba9b24d30333a536bb35b.mkv</property>
  <property name="kdenlive:originalurl">video/PerfectGraph/10.mp4</property>
  <property name="global_feed">1</property>
  <property name="kdenlive:original.mlt_type">producer</property>
  <property name="kdenlive:original.in">0</property>
  <property name="kdenlive:original.out">59</property>
  <property name="kdenlive:original.length">60</property>
  <property name="kdenlive:original.eof">pause</property>
  <property name="kdenlive:original.resource">video/PerfectGraph/10.mp4</property>
  <property name="kdenlive:original.meta.media.nb_streams">1</property>
  <property name="kdenlive:original.meta.media.0.stream.type">video</property>
  <property name="kdenlive:original.meta.media.0.stream.frame_rate">60</property>
  <property name="kdenlive:original.meta.media.0.stream.sample_aspect_ratio">0</property>
  <property name="kdenlive:original.meta.media.0.codec.width">3840</property>
  <property name="kdenlive:original.meta.media.0.codec.height">2160</property>
  <property name="kdenlive:original.meta.media.0.codec.rotate">0</property>
  <property name="kdenlive:original.meta.media.0.codec.frame_rate">60</property>
  <property name="kdenlive:original.meta.media.0.codec.pix_fmt">yuv420p</property>
  <property name="kdenlive:original.meta.media.0.codec.sample_aspect_ratio">0</property>
  <property name="kdenlive:original.meta.media.0.codec.colorspace">709</property>
  <property name="kdenlive:original.meta.media.0.codec.name">h264</property>
  <property name="kdenlive:original.meta.media.0.codec.long_name">H.264 / AVC / MPEG-4 AVC / MPEG-4 part 10</property>
  <property name="kdenlive:original.meta.media.0.codec.bit_rate">1119472</property>
  <property name="kdenlive:original.meta.attr.0.stream.handler_name.markup">VideoHandler</property>
  <property name="kdenlive:original.meta.attr.0.stream.vendor_id.markup">[0][0][0][0]</property>
  <property name="kdenlive:original.meta.attr.major_brand.markup">isom</property>
  <property name="kdenlive:original.meta.attr.minor_version.markup">512</property>
  <property name="kdenlive:original.meta.attr.compatible_brands.markup">isomiso2avc1mp41</property>
  <property name="kdenlive:original.meta.attr.encoder.markup">Lavf58.76.100</property>
  <property name="kdenlive:original.meta.attr.comment.markup">Rendered with Manim Community v0.6.0</property>
  <property name="kdenlive:original.seekable">1</property>
  <property name="kdenlive:original.width">3840</property>
  <property name="kdenlive:original.height">2160</property>
  <property name="kdenlive:original.meta.media.sample_aspect_num">1</property>
  <property name="kdenlive:original.meta.media.sample_aspect_den">1</property>
  <property name="kdenlive:original.aspect_ratio">1</property>
  <property name="kdenlive:original.audio_index">-1</property>
  <property name="kdenlive:original.video_index">0</property>
  <property name="kdenlive:original.mute_on_pause">1</property>
  <property name="kdenlive:original.mlt_service">avformat</property>
  <property name="kdenlive:original.meta.media.frame_rate_num">60</property>
  <property name="kdenlive:original.meta.media.frame_rate_den">1</property>
  <property name="kdenlive:original.meta.media.colorspace">709</property>
  <property name="kdenlive:original.meta.media.color_trc">2</property>
  <property name="kdenlive:original.meta.media.width">3840</property>
  <property name="kdenlive:original.meta.media.height">2160</property>
  <property name="kdenlive:original.meta.media.color_range">mpeg</property>
  <property name="kdenlive:original.meta.media.top_field_first">0</property>
  <property name="kdenlive:original.meta.media.progressive">1</property>
  <property name="kdenlive:original.backup">1</property>
  <property name="xml">was here</property>
  <property name="meta.media.nb_streams">1</property>
  <property name="meta.media.0.stream.type">video</property>
  <property name="meta.media.0.stream.frame_rate">60</property>
  <property name="meta.media.0.stream.sample_aspect_ratio">0</property>
  <property name="meta.media.0.codec.width">640</property>
  <property name="meta.media.0.codec.height">360</property>
  <property name="meta.media.0.codec.rotate">0</property>
  <property name="meta.media.0.codec.frame_rate">60</property>
  <property name="meta.media.0.codec.pix_fmt">yuv420p</property>
  <property name="meta.media.0.codec.sample_aspect_ratio">0</property>
  <property name="meta.media.0.codec.colorspace">601</property>
  <property name="meta.media.0.codec.name">h264</property>
  <property name="meta.media.0.codec.long_name">H.264 / AVC / MPEG-4 AVC / MPEG-4 part 10</property>
  <property name="meta.media.0.codec.bit_rate">0</property>
  <property name="meta.attr.0.stream.HANDLER_NAME.markup">VideoHandler</property>
  <property name="meta.attr.0.stream.VENDOR_ID.markup">[0][0][0][0]</property>
  <property name="meta.attr.0.stream.ENCODER.markup">Lavc58.134.100 libx264</property>
  <property name="meta.attr.0.stream.DURATION.markup">00:00:01.000000000</property>
  <property name="meta.attr.COMMENT.markup">Rendered with Manim Community v0.6.0</property>
  <property name="meta.attr.MAJOR_BRAND.markup">isom</property>
  <property name="meta.attr.MINOR_VERSION.markup">512</property>
  <property name="meta.attr.COMPATIBLE_BRANDS.markup">isomiso2avc1mp41</property>
  <property name="meta.attr.ENCODER.markup">Lavf58.76.100</property>
  <property name="meta.media.sample_aspect_num">1</property>
  <property name="meta.media.sample_aspect_den">1</property>
  <property name="meta.media.frame_rate_num">60</property>
  <property name="meta.media.frame_rate_den">1</property>
  <property name="meta.media.colorspace">601</property>
  <property name="meta.media.color_trc">2</property>
  <property name="meta.media.width">640</property>
  <property name="meta.media.height">360</property>
  <property name="meta.media.color_range">mpeg</property>
  <property name="meta.media.top_field_first">0</property>
  <property name="meta.media.progressive">1</property>
  <property name="set.test_audio">1</property>
  <property name="set.test_image">0</property>
 </producer>
 <producer id="producer651" in="00:00:00.000" out="00:00:00.983">
  <property name="length">60</property>
  <property name="eof">pause</property>
  <property name="resource">/home/xiaoxiae/.cache/kdenlive/proxy/b01e5a63fbbaca750be57ae8cee1ecbd.mkv</property>
  <property name="audio_index">-1</property>
  <property name="video_index">0</property>
  <property name="mute_on_pause">0</property>
  <property name="mlt_service">avformat-novalidate</property>
  <property name="seekable">1</property>
  <property name="aspect_ratio">1</property>
  <property name="kdenlive:clipname">11.mp4</property>
  <property name="kdenlive:folderid">364</property>
  <property name="kdenlive:id">345</property>
  <property name="kdenlive:file_size">113292</property>
  <property name="kdenlive:file_hash">b01e5a63fbbaca750be57ae8cee1ecbd</property>
  <property name="kdenlive:proxy">/home/xiaoxiae/.cache/kdenlive/proxy/b01e5a63fbbaca750be57ae8cee1ecbd.mkv</property>
  <property name="kdenlive:originalurl">video/PerfectGraph/11.mp4</property>
  <property name="global_feed">1</property>
  <property name="kdenlive:original.mlt_type">producer</property>
  <property name="kdenlive:original.in">0</property>
  <property name="kdenlive:original.out">59</property>
  <property name="kdenlive:original.length">60</property>
  <property name="kdenlive:original.eof">pause</property>
  <property name="kdenlive:original.resource">video/PerfectGraph/11.mp4</property>
  <property name="kdenlive:original.meta.media.nb_streams">1</property>
  <property name="kdenlive:original.meta.media.0.stream.type">video</property>
  <property name="kdenlive:original.meta.media.0.stream.frame_rate">60</property>
  <property name="kdenlive:original.meta.media.0.stream.sample_aspect_ratio">0</property>
  <property name="kdenlive:original.meta.media.0.codec.width">3840</property>
  <property name="kdenlive:original.meta.media.0.codec.height">2160</property>
  <property name="kdenlive:original.meta.media.0.codec.rotate">0</property>
  <property name="kdenlive:original.meta.media.0.codec.frame_rate">60</property>
  <property name="kdenlive:original.meta.media.0.codec.pix_fmt">yuv420p</property>
  <property name="kdenlive:original.meta.media.0.codec.sample_aspect_ratio">0</property>
  <property name="kdenlive:original.meta.media.0.codec.colorspace">709</property>
  <property name="kdenlive:original.meta.media.0.codec.name">h264</property>
  <property name="kdenlive:original.meta.media.0.codec.long_name">H.264 / AVC / MPEG-4 AVC / MPEG-4 part 10</property>
  <property name="kdenlive:original.meta.media.0.codec.bit_rate">893352</property>
  <property name="kdenlive:original.meta.attr.0.stream.handler_name.markup">VideoHandler</property>
  <property name="kdenlive:original.meta.attr.0.stream.vendor_id.markup">[0][0][0][0]</property>
  <property name="kdenlive:original.meta.attr.major_brand.markup">isom</property>
  <property name="kdenlive:original.meta.attr.minor_version.markup">512</property>
  <property name="kdenlive:original.meta.attr.compatible_brands.markup">isomiso2avc1mp41</property>
  <property name="kdenlive:original.meta.attr.encoder.markup">Lavf58.76.100</property>
  <property name="kdenlive:original.meta.attr.comment.markup">Rendered with Manim Community v0.6.0</property>
  <property name="kdenlive:original.seekable">1</property>
  <property name="kdenlive:original.width">3840</property>
  <property name="kdenlive:original.height">2160</property>
  <property name="kdenlive:original.meta.media.sample_aspect_num">1</property>
  <property name="kdenlive:original.meta.media.sample_aspect_den">1</property>
  <property name="kdenlive:original.aspect_ratio">1</property>
  <property name="kdenlive:original.audio_index">-1</property>
  <property name="kdenlive:original.video_index">0</property>
  <property name="kdenlive:original.mute_on_pause">1</property>
  <property name="kdenlive:original.mlt_service">avformat</property>
  <property name="kdenlive:original.meta.media.frame_rate_num">60</property>
  <property name="kdenlive:original.meta.media.frame_rate_den">1</property>
  <property name="kdenlive:original.meta.media.colorspace">709</property>
  <property name="kdenlive:original.meta.media.color_trc">2</property>
  <property name="kdenlive:original.meta.media.width">3840</property>
  <property name="kdenlive:original.meta.media.height">2160</property>
  <property name="kdenlive:original.meta.media.color_range">mpeg</property>
  <property name="kdenlive:original.meta.media.top_field_first">0</property>
  <property name="kdenlive:original.meta.media.progressive">1</property>
  <property name="kdenlive:original.backup">1</property>
  <property name="xml">was here</property>
  <property name="meta.media.nb_streams">1</property>
  <property name="meta.media.0.stream.type">video</property>
  <property name="meta.media.0.stream.frame_rate">60</property>
  <property name="meta.media.0.stream.sample_aspect_ratio">0</property>
  <property name="meta.media.0.codec.width">640</property>
  <property name="meta.media.0.codec.height">360</property>
  <property name="meta.media.0.codec.rotate">0</property>
  <property name="meta.media.0.codec.frame_rate">60</property>
  <property name="meta.media.0.codec.pix_fmt">yuv420p</property>
  <property name="meta.media.0.codec.sample_aspect_ratio">0</property>
  <property name="meta.media.0.codec.colorspace">601</property>
  <property name="meta.media.0.codec.name">h264</property>
  <property name="meta.media.0.codec.long_name">H.264 / AVC / MPEG-4 AVC / MPEG-4 part 10</property>
  <property name="meta.media.0.codec.bit_rate">0</property>
  <property name="meta.attr.0.stream.HANDLER_NAME.markup">VideoHandler</property>
  <property name="meta.attr.0.stream.VENDOR_ID.markup">[0][0][0][0]</property>
  <property name="meta.attr.0.stream.ENCODER.markup">Lavc58.134.100 libx264</property>
  <property name="meta.attr.0.stream.DURATION.markup">00:00:01.000000000</property>
  <property name="meta.attr.COMMENT.markup">Rendered with Manim Community v0.6.0</property>
  <property name="meta.attr.MAJOR_BRAND.markup">isom</property>
  <property name="meta.attr.MINOR_VERSION.markup">512</property>
  <property name="meta.attr.COMPATIBLE_BRANDS.markup">isomiso2avc1mp41</property>
  <property name="meta.attr.ENCODER.markup">Lavf58.76.100</property>
  <property name="meta.media.sample_aspect_num">1</property>
  <property name="meta.media.sample_aspect_den">1</property>
  <property name="meta.media.frame_rate_num">60</property>
  <property name="meta.media.frame_rate_den">1</property>
  <property name="meta.media.colorspace">601</property>
  <property name="meta.media.color_trc">2</property>
  <property name="meta.media.width">640</property>
  <property name="meta.media.height">360</property>
  <property name="meta.media.color_range">mpeg</property>
  <property name="meta.media.top_field_first">0</property>
  <property name="meta.media.progressive">1</property>
  <property name="set.test_audio">1</property>
  <property name="set.test_image">0</property>
 </producer>
 <producer id="producer652" in="00:00:00.000" out="00:00:00.983">
  <property name="length">60</property>
  <property name="eof">pause</property>
  <property name="resource">/home/xiaoxiae/.cache/kdenlive/proxy/6346117d294ce3147616173d3618e956.mkv</property>
  <property name="audio_index">-1</property>
  <property name="video_index">0</property>
  <property name="mute_on_pause">0</property>
  <property name="mlt_service">avformat-novalidate</property>
  <property name="seekable">1</property>
  <property name="aspect_ratio">1</property>
  <property name="kdenlive:clipname">1.mp4</property>
  <property name="kdenlive:folderid">277</property>
  <property name="kdenlive:id">254</property>
  <property name="kdenlive:file_size">64388</property>
  <property name="kdenlive:file_hash">6346117d294ce3147616173d3618e956</property>
  <property name="kdenlive:proxy">/home/xiaoxiae/.cache/kdenlive/proxy/6346117d294ce3147616173d3618e956.mkv</property>
  <property name="kdenlive:originalurl">video/Observations/1.mp4</property>
  <property name="global_feed">1</property>
  <property name="kdenlive:original.mlt_type">producer</property>
  <property name="kdenlive:original.in">0</property>
  <property name="kdenlive:original.out">59</property>
  <property name="kdenlive:original.length">60</property>
  <property name="kdenlive:original.eof">pause</property>
  <property name="kdenlive:original.resource">video/Observations/1.mp4</property>
  <property name="kdenlive:original.meta.media.nb_streams">1</property>
  <property name="kdenlive:original.meta.media.0.stream.type">video</property>
  <property name="kdenlive:original.meta.media.0.stream.frame_rate">60</property>
  <property name="kdenlive:original.meta.media.0.stream.sample_aspect_ratio">0</property>
  <property name="kdenlive:original.meta.media.0.codec.width">3840</property>
  <property name="kdenlive:original.meta.media.0.codec.height">2160</property>
  <property name="kdenlive:original.meta.media.0.codec.rotate">0</property>
  <property name="kdenlive:original.meta.media.0.codec.frame_rate">60</property>
  <property name="kdenlive:original.meta.media.0.codec.pix_fmt">yuv420p</property>
  <property name="kdenlive:original.meta.media.0.codec.sample_aspect_ratio">0</property>
  <property name="kdenlive:original.meta.media.0.codec.colorspace">709</property>
  <property name="kdenlive:original.meta.media.0.codec.name">h264</property>
  <property name="kdenlive:original.meta.media.0.codec.long_name">H.264 / AVC / MPEG-4 AVC / MPEG-4 part 10</property>
  <property name="kdenlive:original.meta.media.0.codec.bit_rate">501992</property>
  <property name="kdenlive:original.meta.attr.0.stream.handler_name.markup">VideoHandler</property>
  <property name="kdenlive:original.meta.attr.0.stream.vendor_id.markup">[0][0][0][0]</property>
  <property name="kdenlive:original.meta.attr.major_brand.markup">isom</property>
  <property name="kdenlive:original.meta.attr.minor_version.markup">512</property>
  <property name="kdenlive:original.meta.attr.compatible_brands.markup">isomiso2avc1mp41</property>
  <property name="kdenlive:original.meta.attr.encoder.markup">Lavf58.76.100</property>
  <property name="kdenlive:original.meta.attr.comment.markup">Rendered with Manim Community v0.6.0</property>
  <property name="kdenlive:original.seekable">1</property>
  <property name="kdenlive:original.width">3840</property>
  <property name="kdenlive:original.height">2160</property>
  <property name="kdenlive:original.meta.media.sample_aspect_num">1</property>
  <property name="kdenlive:original.meta.media.sample_aspect_den">1</property>
  <property name="kdenlive:original.aspect_ratio">1</property>
  <property name="kdenlive:original.audio_index">-1</property>
  <property name="kdenlive:original.video_index">0</property>
  <property name="kdenlive:original.mute_on_pause">1</property>
  <property name="kdenlive:original.mlt_service">avformat</property>
  <property name="kdenlive:original.meta.media.frame_rate_num">60</property>
  <property name="kdenlive:original.meta.media.frame_rate_den">1</property>
  <property name="kdenlive:original.meta.media.colorspace">709</property>
  <property name="kdenlive:original.meta.media.color_trc">2</property>
  <property name="kdenlive:original.meta.media.width">3840</property>
  <property name="kdenlive:original.meta.media.height">2160</property>
  <property name="kdenlive:original.meta.media.color_range">mpeg</property>
  <property name="kdenlive:original.meta.media.top_field_first">0</property>
  <property name="kdenlive:original.meta.media.progressive">1</property>
  <property name="kdenlive:original.backup">1</property>
  <property name="xml">was here</property>
  <property name="meta.media.nb_streams">1</property>
  <property name="meta.media.0.stream.type">video</property>
  <property name="meta.media.0.stream.frame_rate">60</property>
  <property name="meta.media.0.stream.sample_aspect_ratio">0</property>
  <property name="meta.media.0.codec.width">640</property>
  <property name="meta.media.0.codec.height">360</property>
  <property name="meta.media.0.codec.rotate">0</property>
  <property name="meta.media.0.codec.frame_rate">60</property>
  <property name="meta.media.0.codec.pix_fmt">yuv420p</property>
  <property name="meta.media.0.codec.sample_aspect_ratio">0</property>
  <property name="meta.media.0.codec.colorspace">601</property>
  <property name="meta.media.0.codec.name">h264</property>
  <property name="meta.media.0.codec.long_name">H.264 / AVC / MPEG-4 AVC / MPEG-4 part 10</property>
  <property name="meta.media.0.codec.bit_rate">0</property>
  <property name="meta.attr.0.stream.HANDLER_NAME.markup">VideoHandler</property>
  <property name="meta.attr.0.stream.VENDOR_ID.markup">[0][0][0][0]</property>
  <property name="meta.attr.0.stream.ENCODER.markup">Lavc58.134.100 libx264</property>
  <property name="meta.attr.0.stream.DURATION.markup">00:00:01.000000000</property>
  <property name="meta.attr.COMMENT.markup">Rendered with Manim Community v0.6.0</property>
  <property name="meta.attr.MAJOR_BRAND.markup">isom</property>
  <property name="meta.attr.MINOR_VERSION.markup">512</property>
  <property name="meta.attr.COMPATIBLE_BRANDS.markup">isomiso2avc1mp41</property>
  <property name="meta.attr.ENCODER.markup">Lavf58.76.100</property>
  <property name="meta.media.sample_aspect_num">1</property>
  <property name="meta.media.sample_aspect_den">1</property>
  <property name="meta.media.frame_rate_num">60</property>
  <property name="meta.media.frame_rate_den">1</property>
  <property name="meta.media.colorspace">601</property>
  <property name="meta.media.color_trc">2</property>
  <property name="meta.media.width">640</property>
  <property name="meta.media.height">360</property>
  <property name="meta.media.color_range">mpeg</property>
  <property name="meta.media.top_field_first">0</property>
  <property name="meta.media.progressive">1</property>
  <property name="set.test_audio">1</property>
  <property name="set.test_image">0</property>
 </producer>
 <producer id="producer653" in="00:00:00.000" out="00:00:00.983">
  <property name="length">60</property>
  <property name="eof">pause</property>
  <property name="resource">/home/xiaoxiae/.cache/kdenlive/proxy/f6d496e00b424906f5cd0640c3a90ad5.mkv</property>
  <property name="audio_index">-1</property>
  <property name="video_index">0</property>
  <property name="mute_on_pause">0</property>
  <property name="mlt_service">avformat-novalidate</property>
  <property name="seekable">1</property>
  <property name="aspect_ratio">1</property>
  <property name="kdenlive:clipname">2.mp4</property>
  <property name="kdenlive:folderid">277</property>
  <property name="kdenlive:id">276</property>
  <property name="kdenlive:file_size">65071</property>
  <property name="kdenlive:file_hash">f6d496e00b424906f5cd0640c3a90ad5</property>
  <property name="kdenlive:proxy">/home/xiaoxiae/.cache/kdenlive/proxy/f6d496e00b424906f5cd0640c3a90ad5.mkv</property>
  <property name="kdenlive:originalurl">video/Observations/2.mp4</property>
  <property name="global_feed">1</property>
  <property name="kdenlive:original.mlt_type">producer</property>
  <property name="kdenlive:original.in">0</property>
  <property name="kdenlive:original.out">59</property>
  <property name="kdenlive:original.length">60</property>
  <property name="kdenlive:original.eof">pause</property>
  <property name="kdenlive:original.resource">video/Observations/2.mp4</property>
  <property name="kdenlive:original.meta.media.nb_streams">1</property>
  <property name="kdenlive:original.meta.media.0.stream.type">video</property>
  <property name="kdenlive:original.meta.media.0.stream.frame_rate">60</property>
  <property name="kdenlive:original.meta.media.0.stream.sample_aspect_ratio">0</property>
  <property name="kdenlive:original.meta.media.0.codec.width">3840</property>
  <property name="kdenlive:original.meta.media.0.codec.height">2160</property>
  <property name="kdenlive:original.meta.media.0.codec.rotate">0</property>
  <property name="kdenlive:original.meta.media.0.codec.frame_rate">60</property>
  <property name="kdenlive:original.meta.media.0.codec.pix_fmt">yuv420p</property>
  <property name="kdenlive:original.meta.media.0.codec.sample_aspect_ratio">0</property>
  <property name="kdenlive:original.meta.media.0.codec.colorspace">709</property>
  <property name="kdenlive:original.meta.media.0.codec.name">h264</property>
  <property name="kdenlive:original.meta.media.0.codec.long_name">H.264 / AVC / MPEG-4 AVC / MPEG-4 part 10</property>
  <property name="kdenlive:original.meta.media.0.codec.bit_rate">507776</property>
  <property name="kdenlive:original.meta.attr.0.stream.handler_name.markup">VideoHandler</property>
  <property name="kdenlive:original.meta.attr.0.stream.vendor_id.markup">[0][0][0][0]</property>
  <property name="kdenlive:original.meta.attr.major_brand.markup">isom</property>
  <property name="kdenlive:original.meta.attr.minor_version.markup">512</property>
  <property name="kdenlive:original.meta.attr.compatible_brands.markup">isomiso2avc1mp41</property>
  <property name="kdenlive:original.meta.attr.encoder.markup">Lavf58.76.100</property>
  <property name="kdenlive:original.meta.attr.comment.markup">Rendered with Manim Community v0.6.0</property>
  <property name="kdenlive:original.seekable">1</property>
  <property name="kdenlive:original.width">3840</property>
  <property name="kdenlive:original.height">2160</property>
  <property name="kdenlive:original.meta.media.sample_aspect_num">1</property>
  <property name="kdenlive:original.meta.media.sample_aspect_den">1</property>
  <property name="kdenlive:original.aspect_ratio">1</property>
  <property name="kdenlive:original.audio_index">-1</property>
  <property name="kdenlive:original.video_index">0</property>
  <property name="kdenlive:original.mute_on_pause">1</property>
  <property name="kdenlive:original.mlt_service">avformat</property>
  <property name="kdenlive:original.meta.media.frame_rate_num">60</property>
  <property name="kdenlive:original.meta.media.frame_rate_den">1</property>
  <property name="kdenlive:original.meta.media.colorspace">709</property>
  <property name="kdenlive:original.meta.media.color_trc">2</property>
  <property name="kdenlive:original.meta.media.width">3840</property>
  <property name="kdenlive:original.meta.media.height">2160</property>
  <property name="kdenlive:original.meta.media.color_range">mpeg</property>
  <property name="kdenlive:original.meta.media.top_field_first">0</property>
  <property name="kdenlive:original.meta.media.progressive">1</property>
  <property name="kdenlive:original.backup">1</property>
  <property name="xml">was here</property>
  <property name="meta.media.nb_streams">1</property>
  <property name="meta.media.0.stream.type">video</property>
  <property name="meta.media.0.stream.frame_rate">60</property>
  <property name="meta.media.0.stream.sample_aspect_ratio">0</property>
  <property name="meta.media.0.codec.width">640</property>
  <property name="meta.media.0.codec.height">360</property>
  <property name="meta.media.0.codec.rotate">0</property>
  <property name="meta.media.0.codec.frame_rate">60</property>
  <property name="meta.media.0.codec.pix_fmt">yuv420p</property>
  <property name="meta.media.0.codec.sample_aspect_ratio">0</property>
  <property name="meta.media.0.codec.colorspace">601</property>
  <property name="meta.media.0.codec.name">h264</property>
  <property name="meta.media.0.codec.long_name">H.264 / AVC / MPEG-4 AVC / MPEG-4 part 10</property>
  <property name="meta.media.0.codec.bit_rate">0</property>
  <property name="meta.attr.0.stream.HANDLER_NAME.markup">VideoHandler</property>
  <property name="meta.attr.0.stream.VENDOR_ID.markup">[0][0][0][0]</property>
  <property name="meta.attr.0.stream.ENCODER.markup">Lavc58.134.100 libx264</property>
  <property name="meta.attr.0.stream.DURATION.markup">00:00:01.000000000</property>
  <property name="meta.attr.COMMENT.markup">Rendered with Manim Community v0.6.0</property>
  <property name="meta.attr.MAJOR_BRAND.markup">isom</property>
  <property name="meta.attr.MINOR_VERSION.markup">512</property>
  <property name="meta.attr.COMPATIBLE_BRANDS.markup">isomiso2avc1mp41</property>
  <property name="meta.attr.ENCODER.markup">Lavf58.76.100</property>
  <property name="meta.media.sample_aspect_num">1</property>
  <property name="meta.media.sample_aspect_den">1</property>
  <property name="meta.media.frame_rate_num">60</property>
  <property name="meta.media.frame_rate_den">1</property>
  <property name="meta.media.colorspace">601</property>
  <property name="meta.media.color_trc">2</property>
  <property name="meta.media.width">640</property>
  <property name="meta.media.height">360</property>
  <property name="meta.media.color_range">mpeg</property>
  <property name="meta.media.top_field_first">0</property>
  <property name="meta.media.progressive">1</property>
  <property name="set.test_audio">1</property>
  <property name="set.test_image">0</property>
 </producer>
 <producer id="producer654" in="00:00:00.000" out="00:00:00.983">
  <property name="length">60</property>
  <property name="eof">pause</property>
  <property name="resource">/home/xiaoxiae/.cache/kdenlive/proxy/6a75fc1841b9fe80cab537f789f00c54.mkv</property>
  <property name="audio_index">-1</property>
  <property name="video_index">0</property>
  <property name="mute_on_pause">0</property>
  <property name="mlt_service">avformat-novalidate</property>
  <property name="seekable">1</property>
  <property name="aspect_ratio">1</property>
  <property name="kdenlive:clipname">3.mp4</property>
  <property name="kdenlive:folderid">277</property>
  <property name="kdenlive:id">299</property>
  <property name="kdenlive:file_size">70387</property>
  <property name="kdenlive:file_hash">6a75fc1841b9fe80cab537f789f00c54</property>
  <property name="kdenlive:proxy">/home/xiaoxiae/.cache/kdenlive/proxy/6a75fc1841b9fe80cab537f789f00c54.mkv</property>
  <property name="kdenlive:originalurl">video/Observations/3.mp4</property>
  <property name="global_feed">1</property>
  <property name="kdenlive:original.mlt_type">producer</property>
  <property name="kdenlive:original.in">0</property>
  <property name="kdenlive:original.out">59</property>
  <property name="kdenlive:original.length">60</property>
  <property name="kdenlive:original.eof">pause</property>
  <property name="kdenlive:original.resource">video/Observations/3.mp4</property>
  <property name="kdenlive:original.meta.media.nb_streams">1</property>
  <property name="kdenlive:original.meta.media.0.stream.type">video</property>
  <property name="kdenlive:original.meta.media.0.stream.frame_rate">60</property>
  <property name="kdenlive:original.meta.media.0.stream.sample_aspect_ratio">0</property>
  <property name="kdenlive:original.meta.media.0.codec.width">3840</property>
  <property name="kdenlive:original.meta.media.0.codec.height">2160</property>
  <property name="kdenlive:original.meta.media.0.codec.rotate">0</property>
  <property name="kdenlive:original.meta.media.0.codec.frame_rate">60</property>
  <property name="kdenlive:original.meta.media.0.codec.pix_fmt">yuv420p</property>
  <property name="kdenlive:original.meta.media.0.codec.sample_aspect_ratio">0</property>
  <property name="kdenlive:original.meta.media.0.codec.colorspace">709</property>
  <property name="kdenlive:original.meta.media.0.codec.name">h264</property>
  <property name="kdenlive:original.meta.media.0.codec.long_name">H.264 / AVC / MPEG-4 AVC / MPEG-4 part 10</property>
  <property name="kdenlive:original.meta.media.0.codec.bit_rate">550048</property>
  <property name="kdenlive:original.meta.attr.0.stream.handler_name.markup">VideoHandler</property>
  <property name="kdenlive:original.meta.attr.0.stream.vendor_id.markup">[0][0][0][0]</property>
  <property name="kdenlive:original.meta.attr.major_brand.markup">isom</property>
  <property name="kdenlive:original.meta.attr.minor_version.markup">512</property>
  <property name="kdenlive:original.meta.attr.compatible_brands.markup">isomiso2avc1mp41</property>
  <property name="kdenlive:original.meta.attr.encoder.markup">Lavf58.76.100</property>
  <property name="kdenlive:original.meta.attr.comment.markup">Rendered with Manim Community v0.6.0</property>
  <property name="kdenlive:original.seekable">1</property>
  <property name="kdenlive:original.width">3840</property>
  <property name="kdenlive:original.height">2160</property>
  <property name="kdenlive:original.meta.media.sample_aspect_num">1</property>
  <property name="kdenlive:original.meta.media.sample_aspect_den">1</property>
  <property name="kdenlive:original.aspect_ratio">1</property>
  <property name="kdenlive:original.audio_index">-1</property>
  <property name="kdenlive:original.video_index">0</property>
  <property name="kdenlive:original.mute_on_pause">1</property>
  <property name="kdenlive:original.mlt_service">avformat</property>
  <property name="kdenlive:original.meta.media.frame_rate_num">60</property>
  <property name="kdenlive:original.meta.media.frame_rate_den">1</property>
  <property name="kdenlive:original.meta.media.colorspace">709</property>
  <property name="kdenlive:original.meta.media.color_trc">2</property>
  <property name="kdenlive:original.meta.media.width">3840</property>
  <property name="kdenlive:original.meta.media.height">2160</property>
  <property name="kdenlive:original.meta.media.color_range">mpeg</property>
  <property name="kdenlive:original.meta.media.top_field_first">0</property>
  <property name="kdenlive:original.meta.media.progressive">1</property>
  <property name="kdenlive:original.backup">1</property>
  <property name="xml">was here</property>
  <property name="meta.media.nb_streams">1</property>
  <property name="meta.media.0.stream.type">video</property>
  <property name="meta.media.0.stream.frame_rate">60</property>
  <property name="meta.media.0.stream.sample_aspect_ratio">0</property>
  <property name="meta.media.0.codec.width">640</property>
  <property name="meta.media.0.codec.height">360</property>
  <property name="meta.media.0.codec.rotate">0</property>
  <property name="meta.media.0.codec.frame_rate">60</property>
  <property name="meta.media.0.codec.pix_fmt">yuv420p</property>
  <property name="meta.media.0.codec.sample_aspect_ratio">0</property>
  <property name="meta.media.0.codec.colorspace">601</property>
  <property name="meta.media.0.codec.name">h264</property>
  <property name="meta.media.0.codec.long_name">H.264 / AVC / MPEG-4 AVC / MPEG-4 part 10</property>
  <property name="meta.media.0.codec.bit_rate">0</property>
  <property name="meta.attr.0.stream.HANDLER_NAME.markup">VideoHandler</property>
  <property name="meta.attr.0.stream.VENDOR_ID.markup">[0][0][0][0]</property>
  <property name="meta.attr.0.stream.ENCODER.markup">Lavc58.134.100 libx264</property>
  <property name="meta.attr.0.stream.DURATION.markup">00:00:01.000000000</property>
  <property name="meta.attr.COMMENT.markup">Rendered with Manim Community v0.6.0</property>
  <property name="meta.attr.MAJOR_BRAND.markup">isom</property>
  <property name="meta.attr.MINOR_VERSION.markup">512</property>
  <property name="meta.attr.COMPATIBLE_BRANDS.markup">isomiso2avc1mp41</property>
  <property name="meta.attr.ENCODER.markup">Lavf58.76.100</property>
  <property name="meta.media.sample_aspect_num">1</property>
  <property name="meta.media.sample_aspect_den">1</property>
  <property name="meta.media.frame_rate_num">60</property>
  <property name="meta.media.frame_rate_den">1</property>
  <property name="meta.media.colorspace">601</property>
  <property name="meta.media.color_trc">2</property>
  <property name="meta.media.width">640</property>
  <property name="meta.media.height">360</property>
  <property name="meta.media.color_range">mpeg</property>
  <property name="meta.media.top_field_first">0</property>
  <property name="meta.media.progressive">1</property>
  <property name="set.test_audio">1</property>
  <property name="set.test_image">0</property>
 </producer>
 <producer id="producer655" in="00:00:00.000" out="00:00:01.983">
  <property name="length">120</property>
  <property name="eof">pause</property>
  <property name="resource">/home/xiaoxiae/.cache/kdenlive/proxy/78c2313bd65e73ef22c05b0458a18139.mkv</property>
  <property name="audio_index">-1</property>
  <property name="video_index">0</property>
  <property name="mute_on_pause">0</property>
  <property name="mlt_service">avformat-novalidate</property>
  <property name="seekable">1</property>
  <property name="aspect_ratio">1</property>
  <property name="kdenlive:clipname">4.mp4</property>
  <property name="kdenlive:folderid">277</property>
  <property name="kdenlive:id">321</property>
  <property name="kdenlive:file_size">109593</property>
  <property name="kdenlive:file_hash">78c2313bd65e73ef22c05b0458a18139</property>
  <property name="kdenlive:proxy">/home/xiaoxiae/.cache/kdenlive/proxy/78c2313bd65e73ef22c05b0458a18139.mkv</property>
  <property name="kdenlive:originalurl">video/Observations/4.mp4</property>
  <property name="global_feed">1</property>
  <property name="kdenlive:original.mlt_type">producer</property>
  <property name="kdenlive:original.in">0</property>
  <property name="kdenlive:original.out">119</property>
  <property name="kdenlive:original.length">120</property>
  <property name="kdenlive:original.eof">pause</property>
  <property name="kdenlive:original.resource">video/Observations/4.mp4</property>
  <property name="kdenlive:original.meta.media.nb_streams">1</property>
  <property name="kdenlive:original.meta.media.0.stream.type">video</property>
  <property name="kdenlive:original.meta.media.0.stream.frame_rate">60</property>
  <property name="kdenlive:original.meta.media.0.stream.sample_aspect_ratio">0</property>
  <property name="kdenlive:original.meta.media.0.codec.width">3840</property>
  <property name="kdenlive:original.meta.media.0.codec.height">2160</property>
  <property name="kdenlive:original.meta.media.0.codec.rotate">0</property>
  <property name="kdenlive:original.meta.media.0.codec.frame_rate">60</property>
  <property name="kdenlive:original.meta.media.0.codec.pix_fmt">yuv420p</property>
  <property name="kdenlive:original.meta.media.0.codec.sample_aspect_ratio">0</property>
  <property name="kdenlive:original.meta.media.0.codec.colorspace">709</property>
  <property name="kdenlive:original.meta.media.0.codec.name">h264</property>
  <property name="kdenlive:original.meta.media.0.codec.long_name">H.264 / AVC / MPEG-4 AVC / MPEG-4 part 10</property>
  <property name="kdenlive:original.meta.media.0.codec.bit_rate">428968</property>
  <property name="kdenlive:original.meta.attr.0.stream.handler_name.markup">VideoHandler</property>
  <property name="kdenlive:original.meta.attr.0.stream.vendor_id.markup">[0][0][0][0]</property>
  <property name="kdenlive:original.meta.attr.major_brand.markup">isom</property>
  <property name="kdenlive:original.meta.attr.minor_version.markup">512</property>
  <property name="kdenlive:original.meta.attr.compatible_brands.markup">isomiso2avc1mp41</property>
  <property name="kdenlive:original.meta.attr.encoder.markup">Lavf58.76.100</property>
  <property name="kdenlive:original.meta.attr.comment.markup">Rendered with Manim Community v0.6.0</property>
  <property name="kdenlive:original.seekable">1</property>
  <property name="kdenlive:original.width">3840</property>
  <property name="kdenlive:original.height">2160</property>
  <property name="kdenlive:original.meta.media.sample_aspect_num">1</property>
  <property name="kdenlive:original.meta.media.sample_aspect_den">1</property>
  <property name="kdenlive:original.aspect_ratio">1</property>
  <property name="kdenlive:original.audio_index">-1</property>
  <property name="kdenlive:original.video_index">0</property>
  <property name="kdenlive:original.mute_on_pause">1</property>
  <property name="kdenlive:original.mlt_service">avformat</property>
  <property name="kdenlive:original.meta.media.frame_rate_num">60</property>
  <property name="kdenlive:original.meta.media.frame_rate_den">1</property>
  <property name="kdenlive:original.meta.media.colorspace">709</property>
  <property name="kdenlive:original.meta.media.color_trc">2</property>
  <property name="kdenlive:original.meta.media.width">3840</property>
  <property name="kdenlive:original.meta.media.height">2160</property>
  <property name="kdenlive:original.meta.media.color_range">mpeg</property>
  <property name="kdenlive:original.meta.media.top_field_first">0</property>
  <property name="kdenlive:original.meta.media.progressive">1</property>
  <property name="kdenlive:original.backup">1</property>
  <property name="xml">was here</property>
  <property name="meta.media.nb_streams">1</property>
  <property name="meta.media.0.stream.type">video</property>
  <property name="meta.media.0.stream.frame_rate">60</property>
  <property name="meta.media.0.stream.sample_aspect_ratio">0</property>
  <property name="meta.media.0.codec.width">640</property>
  <property name="meta.media.0.codec.height">360</property>
  <property name="meta.media.0.codec.rotate">0</property>
  <property name="meta.media.0.codec.frame_rate">60</property>
  <property name="meta.media.0.codec.pix_fmt">yuv420p</property>
  <property name="meta.media.0.codec.sample_aspect_ratio">0</property>
  <property name="meta.media.0.codec.colorspace">601</property>
  <property name="meta.media.0.codec.name">h264</property>
  <property name="meta.media.0.codec.long_name">H.264 / AVC / MPEG-4 AVC / MPEG-4 part 10</property>
  <property name="meta.media.0.codec.bit_rate">0</property>
  <property name="meta.attr.0.stream.HANDLER_NAME.markup">VideoHandler</property>
  <property name="meta.attr.0.stream.VENDOR_ID.markup">[0][0][0][0]</property>
  <property name="meta.attr.0.stream.ENCODER.markup">Lavc58.134.100 libx264</property>
  <property name="meta.attr.0.stream.DURATION.markup">00:00:02.000000000</property>
  <property name="meta.attr.COMMENT.markup">Rendered with Manim Community v0.6.0</property>
  <property name="meta.attr.MAJOR_BRAND.markup">isom</property>
  <property name="meta.attr.MINOR_VERSION.markup">512</property>
  <property name="meta.attr.COMPATIBLE_BRANDS.markup">isomiso2avc1mp41</property>
  <property name="meta.attr.ENCODER.markup">Lavf58.76.100</property>
  <property name="meta.media.sample_aspect_num">1</property>
  <property name="meta.media.sample_aspect_den">1</property>
  <property name="meta.media.frame_rate_num">60</property>
  <property name="meta.media.frame_rate_den">1</property>
  <property name="meta.media.colorspace">601</property>
  <property name="meta.media.color_trc">2</property>
  <property name="meta.media.width">640</property>
  <property name="meta.media.height">360</property>
  <property name="meta.media.color_range">mpeg</property>
  <property name="meta.media.top_field_first">0</property>
  <property name="meta.media.progressive">1</property>
  <property name="set.test_audio">1</property>
  <property name="set.test_image">0</property>
 </producer>
 <producer id="producer656" in="00:00:00.000" out="00:00:00.983">
  <property name="length">60</property>
  <property name="eof">pause</property>
  <property name="resource">/home/xiaoxiae/.cache/kdenlive/proxy/6c05875cb4e6e3e804dd1a8cc8a4db86.mkv</property>
  <property name="audio_index">-1</property>
  <property name="video_index">0</property>
  <property name="mute_on_pause">0</property>
  <property name="mlt_service">avformat-novalidate</property>
  <property name="seekable">1</property>
  <property name="aspect_ratio">1</property>
  <property name="kdenlive:clipname">5.mp4</property>
  <property name="kdenlive:folderid">277</property>
  <property name="kdenlive:id">331</property>
  <property name="kdenlive:file_size">68865</property>
  <property name="kdenlive:file_hash">6c05875cb4e6e3e804dd1a8cc8a4db86</property>
  <property name="kdenlive:proxy">/home/xiaoxiae/.cache/kdenlive/proxy/6c05875cb4e6e3e804dd1a8cc8a4db86.mkv</property>
  <property name="kdenlive:originalurl">video/Observations/5.mp4</property>
  <property name="global_feed">1</property>
  <property name="kdenlive:original.mlt_type">producer</property>
  <property name="kdenlive:original.in">0</property>
  <property name="kdenlive:original.out">59</property>
  <property name="kdenlive:original.length">60</property>
  <property name="kdenlive:original.eof">pause</property>
  <property name="kdenlive:original.resource">video/Observations/5.mp4</property>
  <property name="kdenlive:original.meta.media.nb_streams">1</property>
  <property name="kdenlive:original.meta.media.0.stream.type">video</property>
  <property name="kdenlive:original.meta.media.0.stream.frame_rate">60</property>
  <property name="kdenlive:original.meta.media.0.stream.sample_aspect_ratio">0</property>
  <property name="kdenlive:original.meta.media.0.codec.width">3840</property>
  <property name="kdenlive:original.meta.media.0.codec.height">2160</property>
  <property name="kdenlive:original.meta.media.0.codec.rotate">0</property>
  <property name="kdenlive:original.meta.media.0.codec.frame_rate">60</property>
  <property name="kdenlive:original.meta.media.0.codec.pix_fmt">yuv420p</property>
  <property name="kdenlive:original.meta.media.0.codec.sample_aspect_ratio">0</property>
  <property name="kdenlive:original.meta.media.0.codec.colorspace">709</property>
  <property name="kdenlive:original.meta.media.0.codec.name">h264</property>
  <property name="kdenlive:original.meta.media.0.codec.long_name">H.264 / AVC / MPEG-4 AVC / MPEG-4 part 10</property>
  <property name="kdenlive:original.meta.media.0.codec.bit_rate">537872</property>
  <property name="kdenlive:original.meta.attr.0.stream.handler_name.markup">VideoHandler</property>
  <property name="kdenlive:original.meta.attr.0.stream.vendor_id.markup">[0][0][0][0]</property>
  <property name="kdenlive:original.meta.attr.major_brand.markup">isom</property>
  <property name="kdenlive:original.meta.attr.minor_version.markup">512</property>
  <property name="kdenlive:original.meta.attr.compatible_brands.markup">isomiso2avc1mp41</property>
  <property name="kdenlive:original.meta.attr.encoder.markup">Lavf58.76.100</property>
  <property name="kdenlive:original.meta.attr.comment.markup">Rendered with Manim Community v0.6.0</property>
  <property name="kdenlive:original.seekable">1</property>
  <property name="kdenlive:original.width">3840</property>
  <property name="kdenlive:original.height">2160</property>
  <property name="kdenlive:original.meta.media.sample_aspect_num">1</property>
  <property name="kdenlive:original.meta.media.sample_aspect_den">1</property>
  <property name="kdenlive:original.aspect_ratio">1</property>
  <property name="kdenlive:original.audio_index">-1</property>
  <property name="kdenlive:original.video_index">0</property>
  <property name="kdenlive:original.mute_on_pause">1</property>
  <property name="kdenlive:original.mlt_service">avformat</property>
  <property name="kdenlive:original.meta.media.frame_rate_num">60</property>
  <property name="kdenlive:original.meta.media.frame_rate_den">1</property>
  <property name="kdenlive:original.meta.media.colorspace">709</property>
  <property name="kdenlive:original.meta.media.color_trc">2</property>
  <property name="kdenlive:original.meta.media.width">3840</property>
  <property name="kdenlive:original.meta.media.height">2160</property>
  <property name="kdenlive:original.meta.media.color_range">mpeg</property>
  <property name="kdenlive:original.meta.media.top_field_first">0</property>
  <property name="kdenlive:original.meta.media.progressive">1</property>
  <property name="kdenlive:original.backup">1</property>
  <property name="xml">was here</property>
  <property name="meta.media.nb_streams">1</property>
  <property name="meta.media.0.stream.type">video</property>
  <property name="meta.media.0.stream.frame_rate">60</property>
  <property name="meta.media.0.stream.sample_aspect_ratio">0</property>
  <property name="meta.media.0.codec.width">640</property>
  <property name="meta.media.0.codec.height">360</property>
  <property name="meta.media.0.codec.rotate">0</property>
  <property name="meta.media.0.codec.frame_rate">60</property>
  <property name="meta.media.0.codec.pix_fmt">yuv420p</property>
  <property name="meta.media.0.codec.sample_aspect_ratio">0</property>
  <property name="meta.media.0.codec.colorspace">601</property>
  <property name="meta.media.0.codec.name">h264</property>
  <property name="meta.media.0.codec.long_name">H.264 / AVC / MPEG-4 AVC / MPEG-4 part 10</property>
  <property name="meta.media.0.codec.bit_rate">0</property>
  <property name="meta.attr.0.stream.HANDLER_NAME.markup">VideoHandler</property>
  <property name="meta.attr.0.stream.VENDOR_ID.markup">[0][0][0][0]</property>
  <property name="meta.attr.0.stream.ENCODER.markup">Lavc58.134.100 libx264</property>
  <property name="meta.attr.0.stream.DURATION.markup">00:00:01.000000000</property>
  <property name="meta.attr.COMMENT.markup">Rendered with Manim Community v0.6.0</property>
  <property name="meta.attr.MAJOR_BRAND.markup">isom</property>
  <property name="meta.attr.MINOR_VERSION.markup">512</property>
  <property name="meta.attr.COMPATIBLE_BRANDS.markup">isomiso2avc1mp41</property>
  <property name="meta.attr.ENCODER.markup">Lavf58.76.100</property>
  <property name="meta.media.sample_aspect_num">1</property>
  <property name="meta.media.sample_aspect_den">1</property>
  <property name="meta.media.frame_rate_num">60</property>
  <property name="meta.media.frame_rate_den">1</property>
  <property name="meta.media.colorspace">601</property>
  <property name="meta.media.color_trc">2</property>
  <property name="meta.media.width">640</property>
  <property name="meta.media.height">360</property>
  <property name="meta.media.color_range">mpeg</property>
  <property name="meta.media.top_field_first">0</property>
  <property name="meta.media.progressive">1</property>
  <property name="set.test_audio">1</property>
  <property name="set.test_image">0</property>
 </producer>
 <producer id="producer657" in="00:00:00.000" out="00:00:00.983">
  <property name="length">60</property>
  <property name="eof">pause</property>
  <property name="resource">/home/xiaoxiae/.cache/kdenlive/proxy/69e2a6dbff377d042b0586cc15261310.mkv</property>
  <property name="audio_index">-1</property>
  <property name="video_index">0</property>
  <property name="mute_on_pause">0</property>
  <property name="mlt_service">avformat-novalidate</property>
  <property name="seekable">1</property>
  <property name="aspect_ratio">1</property>
  <property name="kdenlive:clipname">6.mp4</property>
  <property name="kdenlive:folderid">277</property>
  <property name="kdenlive:id">333</property>
  <property name="kdenlive:file_size">92230</property>
  <property name="kdenlive:file_hash">69e2a6dbff377d042b0586cc15261310</property>
  <property name="kdenlive:proxy">/home/xiaoxiae/.cache/kdenlive/proxy/69e2a6dbff377d042b0586cc15261310.mkv</property>
  <property name="kdenlive:originalurl">video/Observations/6.mp4</property>
  <property name="global_feed">1</property>
  <property name="kdenlive:original.mlt_type">producer</property>
  <property name="kdenlive:original.in">0</property>
  <property name="kdenlive:original.out">59</property>
  <property name="kdenlive:original.length">60</property>
  <property name="kdenlive:original.eof">pause</property>
  <property name="kdenlive:original.resource">video/Observations/6.mp4</property>
  <property name="kdenlive:original.meta.media.nb_streams">1</property>
  <property name="kdenlive:original.meta.media.0.stream.type">video</property>
  <property name="kdenlive:original.meta.media.0.stream.frame_rate">60</property>
  <property name="kdenlive:original.meta.media.0.stream.sample_aspect_ratio">0</property>
  <property name="kdenlive:original.meta.media.0.codec.width">3840</property>
  <property name="kdenlive:original.meta.media.0.codec.height">2160</property>
  <property name="kdenlive:original.meta.media.0.codec.rotate">0</property>
  <property name="kdenlive:original.meta.media.0.codec.frame_rate">60</property>
  <property name="kdenlive:original.meta.media.0.codec.pix_fmt">yuv420p</property>
  <property name="kdenlive:original.meta.media.0.codec.sample_aspect_ratio">0</property>
  <property name="kdenlive:original.meta.media.0.codec.colorspace">709</property>
  <property name="kdenlive:original.meta.media.0.codec.name">h264</property>
  <property name="kdenlive:original.meta.media.0.codec.long_name">H.264 / AVC / MPEG-4 AVC / MPEG-4 part 10</property>
  <property name="kdenlive:original.meta.media.0.codec.bit_rate">724792</property>
  <property name="kdenlive:original.meta.attr.0.stream.handler_name.markup">VideoHandler</property>
  <property name="kdenlive:original.meta.attr.0.stream.vendor_id.markup">[0][0][0][0]</property>
  <property name="kdenlive:original.meta.attr.major_brand.markup">isom</property>
  <property name="kdenlive:original.meta.attr.minor_version.markup">512</property>
  <property name="kdenlive:original.meta.attr.compatible_brands.markup">isomiso2avc1mp41</property>
  <property name="kdenlive:original.meta.attr.encoder.markup">Lavf58.76.100</property>
  <property name="kdenlive:original.meta.attr.comment.markup">Rendered with Manim Community v0.6.0</property>
  <property name="kdenlive:original.seekable">1</property>
  <property name="kdenlive:original.width">3840</property>
  <property name="kdenlive:original.height">2160</property>
  <property name="kdenlive:original.meta.media.sample_aspect_num">1</property>
  <property name="kdenlive:original.meta.media.sample_aspect_den">1</property>
  <property name="kdenlive:original.aspect_ratio">1</property>
  <property name="kdenlive:original.audio_index">-1</property>
  <property name="kdenlive:original.video_index">0</property>
  <property name="kdenlive:original.mute_on_pause">1</property>
  <property name="kdenlive:original.mlt_service">avformat</property>
  <property name="kdenlive:original.meta.media.frame_rate_num">60</property>
  <property name="kdenlive:original.meta.media.frame_rate_den">1</property>
  <property name="kdenlive:original.meta.media.colorspace">709</property>
  <property name="kdenlive:original.meta.media.color_trc">2</property>
  <property name="kdenlive:original.meta.media.width">3840</property>
  <property name="kdenlive:original.meta.media.height">2160</property>
  <property name="kdenlive:original.meta.media.color_range">mpeg</property>
  <property name="kdenlive:original.meta.media.top_field_first">0</property>
  <property name="kdenlive:original.meta.media.progressive">1</property>
  <property name="kdenlive:original.backup">1</property>
  <property name="xml">was here</property>
  <property name="meta.media.nb_streams">1</property>
  <property name="meta.media.0.stream.type">video</property>
  <property name="meta.media.0.stream.frame_rate">60</property>
  <property name="meta.media.0.stream.sample_aspect_ratio">0</property>
  <property name="meta.media.0.codec.width">640</property>
  <property name="meta.media.0.codec.height">360</property>
  <property name="meta.media.0.codec.rotate">0</property>
  <property name="meta.media.0.codec.frame_rate">60</property>
  <property name="meta.media.0.codec.pix_fmt">yuv420p</property>
  <property name="meta.media.0.codec.sample_aspect_ratio">0</property>
  <property name="meta.media.0.codec.colorspace">601</property>
  <property name="meta.media.0.codec.name">h264</property>
  <property name="meta.media.0.codec.long_name">H.264 / AVC / MPEG-4 AVC / MPEG-4 part 10</property>
  <property name="meta.media.0.codec.bit_rate">0</property>
  <property name="meta.attr.0.stream.HANDLER_NAME.markup">VideoHandler</property>
  <property name="meta.attr.0.stream.VENDOR_ID.markup">[0][0][0][0]</property>
  <property name="meta.attr.0.stream.ENCODER.markup">Lavc58.134.100 libx264</property>
  <property name="meta.attr.0.stream.DURATION.markup">00:00:01.000000000</property>
  <property name="meta.attr.COMMENT.markup">Rendered with Manim Community v0.6.0</property>
  <property name="meta.attr.MAJOR_BRAND.markup">isom</property>
  <property name="meta.attr.MINOR_VERSION.markup">512</property>
  <property name="meta.attr.COMPATIBLE_BRANDS.markup">isomiso2avc1mp41</property>
  <property name="meta.attr.ENCODER.markup">Lavf58.76.100</property>
  <property name="meta.media.sample_aspect_num">1</property>
  <property name="meta.media.sample_aspect_den">1</property>
  <property name="meta.media.frame_rate_num">60</property>
  <property name="meta.media.frame_rate_den">1</property>
  <property name="meta.media.colorspace">601</property>
  <property name="meta.media.color_trc">2</property>
  <property name="meta.media.width">640</property>
  <property name="meta.media.height">360</property>
  <property name="meta.media.color_range">mpeg</property>
  <property name="meta.media.top_field_first">0</property>
  <property name="meta.media.progressive">1</property>
  <property name="set.test_audio">1</property>
  <property name="set.test_image">0</property>
 </producer>
 <producer id="producer658" in="00:00:00.000" out="00:00:01.983">
  <property name="length">120</property>
  <property name="eof">pause</property>
  <property name="resource">/home/xiaoxiae/.cache/kdenlive/proxy/5fe242b5d2d2313a663a97301fb6c6ca.mkv</property>
  <property name="audio_index">-1</property>
  <property name="video_index">0</property>
  <property name="mute_on_pause">0</property>
  <property name="mlt_service">avformat-novalidate</property>
  <property name="seekable">1</property>
  <property name="aspect_ratio">1</property>
  <property name="kdenlive:clipname">7.mp4</property>
  <property name="kdenlive:folderid">277</property>
  <property name="kdenlive:id">335</property>
  <property name="kdenlive:file_size">143208</property>
  <property name="kdenlive:file_hash">5fe242b5d2d2313a663a97301fb6c6ca</property>
  <property name="kdenlive:proxy">/home/xiaoxiae/.cache/kdenlive/proxy/5fe242b5d2d2313a663a97301fb6c6ca.mkv</property>
  <property name="kdenlive:originalurl">video/Observations/7.mp4</property>
  <property name="global_feed">1</property>
  <property name="kdenlive:original.mlt_type">producer</property>
  <property name="kdenlive:original.in">0</property>
  <property name="kdenlive:original.out">119</property>
  <property name="kdenlive:original.length">120</property>
  <property name="kdenlive:original.eof">pause</property>
  <property name="kdenlive:original.resource">video/Observations/7.mp4</property>
  <property name="kdenlive:original.meta.media.nb_streams">1</property>
  <property name="kdenlive:original.meta.media.0.stream.type">video</property>
  <property name="kdenlive:original.meta.media.0.stream.frame_rate">60</property>
  <property name="kdenlive:original.meta.media.0.stream.sample_aspect_ratio">0</property>
  <property name="kdenlive:original.meta.media.0.codec.width">3840</property>
  <property name="kdenlive:original.meta.media.0.codec.height">2160</property>
  <property name="kdenlive:original.meta.media.0.codec.rotate">0</property>
  <property name="kdenlive:original.meta.media.0.codec.frame_rate">60</property>
  <property name="kdenlive:original.meta.media.0.codec.pix_fmt">yuv420p</property>
  <property name="kdenlive:original.meta.media.0.codec.sample_aspect_ratio">0</property>
  <property name="kdenlive:original.meta.media.0.codec.colorspace">709</property>
  <property name="kdenlive:original.meta.media.0.codec.name">h264</property>
  <property name="kdenlive:original.meta.media.0.codec.long_name">H.264 / AVC / MPEG-4 AVC / MPEG-4 part 10</property>
  <property name="kdenlive:original.meta.media.0.codec.bit_rate">563428</property>
  <property name="kdenlive:original.meta.attr.0.stream.handler_name.markup">VideoHandler</property>
  <property name="kdenlive:original.meta.attr.0.stream.vendor_id.markup">[0][0][0][0]</property>
  <property name="kdenlive:original.meta.attr.major_brand.markup">isom</property>
  <property name="kdenlive:original.meta.attr.minor_version.markup">512</property>
  <property name="kdenlive:original.meta.attr.compatible_brands.markup">isomiso2avc1mp41</property>
  <property name="kdenlive:original.meta.attr.encoder.markup">Lavf58.76.100</property>
  <property name="kdenlive:original.meta.attr.comment.markup">Rendered with Manim Community v0.6.0</property>
  <property name="kdenlive:original.seekable">1</property>
  <property name="kdenlive:original.width">3840</property>
  <property name="kdenlive:original.height">2160</property>
  <property name="kdenlive:original.meta.media.sample_aspect_num">1</property>
  <property name="kdenlive:original.meta.media.sample_aspect_den">1</property>
  <property name="kdenlive:original.aspect_ratio">1</property>
  <property name="kdenlive:original.audio_index">-1</property>
  <property name="kdenlive:original.video_index">0</property>
  <property name="kdenlive:original.mute_on_pause">1</property>
  <property name="kdenlive:original.mlt_service">avformat</property>
  <property name="kdenlive:original.meta.media.frame_rate_num">60</property>
  <property name="kdenlive:original.meta.media.frame_rate_den">1</property>
  <property name="kdenlive:original.meta.media.colorspace">709</property>
  <property name="kdenlive:original.meta.media.color_trc">2</property>
  <property name="kdenlive:original.meta.media.width">3840</property>
  <property name="kdenlive:original.meta.media.height">2160</property>
  <property name="kdenlive:original.meta.media.color_range">mpeg</property>
  <property name="kdenlive:original.meta.media.top_field_first">0</property>
  <property name="kdenlive:original.meta.media.progressive">1</property>
  <property name="kdenlive:original.backup">1</property>
  <property name="xml">was here</property>
  <property name="meta.media.nb_streams">1</property>
  <property name="meta.media.0.stream.type">video</property>
  <property name="meta.media.0.stream.frame_rate">60</property>
  <property name="meta.media.0.stream.sample_aspect_ratio">0</property>
  <property name="meta.media.0.codec.width">640</property>
  <property name="meta.media.0.codec.height">360</property>
  <property name="meta.media.0.codec.rotate">0</property>
  <property name="meta.media.0.codec.frame_rate">60</property>
  <property name="meta.media.0.codec.pix_fmt">yuv420p</property>
  <property name="meta.media.0.codec.sample_aspect_ratio">0</property>
  <property name="meta.media.0.codec.colorspace">601</property>
  <property name="meta.media.0.codec.name">h264</property>
  <property name="meta.media.0.codec.long_name">H.264 / AVC / MPEG-4 AVC / MPEG-4 part 10</property>
  <property name="meta.media.0.codec.bit_rate">0</property>
  <property name="meta.attr.0.stream.HANDLER_NAME.markup">VideoHandler</property>
  <property name="meta.attr.0.stream.VENDOR_ID.markup">[0][0][0][0]</property>
  <property name="meta.attr.0.stream.ENCODER.markup">Lavc58.134.100 libx264</property>
  <property name="meta.attr.0.stream.DURATION.markup">00:00:02.000000000</property>
  <property name="meta.attr.COMMENT.markup">Rendered with Manim Community v0.6.0</property>
  <property name="meta.attr.MAJOR_BRAND.markup">isom</property>
  <property name="meta.attr.MINOR_VERSION.markup">512</property>
  <property name="meta.attr.COMPATIBLE_BRANDS.markup">isomiso2avc1mp41</property>
  <property name="meta.attr.ENCODER.markup">Lavf58.76.100</property>
  <property name="meta.media.sample_aspect_num">1</property>
  <property name="meta.media.sample_aspect_den">1</property>
  <property name="meta.media.frame_rate_num">60</property>
  <property name="meta.media.frame_rate_den">1</property>
  <property name="meta.media.colorspace">601</property>
  <property name="meta.media.color_trc">2</property>
  <property name="meta.media.width">640</property>
  <property name="meta.media.height">360</property>
  <property name="meta.media.color_range">mpeg</property>
  <property name="meta.media.top_field_first">0</property>
  <property name="meta.media.progressive">1</property>
  <property name="set.test_audio">1</property>
  <property name="set.test_image">0</property>
 </producer>
 <producer id="producer659" in="00:00:00.000" out="00:00:00.983">
  <property name="length">60</property>
  <property name="eof">pause</property>
  <property name="resource">/home/xiaoxiae/.cache/kdenlive/proxy/f1a11243b8927ee0f69f766c2b283dda.mkv</property>
  <property name="audio_index">-1</property>
  <property name="video_index">0</property>
  <property name="mute_on_pause">0</property>
  <property name="mlt_service">avformat-novalidate</property>
  <property name="seekable">1</property>
  <property name="aspect_ratio">1</property>
  <property name="kdenlive:clipname">8.mp4</property>
  <property name="kdenlive:folderid">277</property>
  <property name="kdenlive:id">337</property>
  <property name="kdenlive:file_size">112880</property>
  <property name="kdenlive:file_hash">f1a11243b8927ee0f69f766c2b283dda</property>
  <property name="kdenlive:proxy">/home/xiaoxiae/.cache/kdenlive/proxy/f1a11243b8927ee0f69f766c2b283dda.mkv</property>
  <property name="kdenlive:originalurl">video/Observations/8.mp4</property>
  <property name="global_feed">1</property>
  <property name="kdenlive:original.mlt_type">producer</property>
  <property name="kdenlive:original.in">0</property>
  <property name="kdenlive:original.out">59</property>
  <property name="kdenlive:original.length">60</property>
  <property name="kdenlive:original.eof">pause</property>
  <property name="kdenlive:original.resource">video/Observations/8.mp4</property>
  <property name="kdenlive:original.meta.media.nb_streams">1</property>
  <property name="kdenlive:original.meta.media.0.stream.type">video</property>
  <property name="kdenlive:original.meta.media.0.stream.frame_rate">60</property>
  <property name="kdenlive:original.meta.media.0.stream.sample_aspect_ratio">0</property>
  <property name="kdenlive:original.meta.media.0.codec.width">3840</property>
  <property name="kdenlive:original.meta.media.0.codec.height">2160</property>
  <property name="kdenlive:original.meta.media.0.codec.rotate">0</property>
  <property name="kdenlive:original.meta.media.0.codec.frame_rate">60</property>
  <property name="kdenlive:original.meta.media.0.codec.pix_fmt">yuv420p</property>
  <property name="kdenlive:original.meta.media.0.codec.sample_aspect_ratio">0</property>
  <property name="kdenlive:original.meta.media.0.codec.colorspace">709</property>
  <property name="kdenlive:original.meta.media.0.codec.name">h264</property>
  <property name="kdenlive:original.meta.media.0.codec.long_name">H.264 / AVC / MPEG-4 AVC / MPEG-4 part 10</property>
  <property name="kdenlive:original.meta.media.0.codec.bit_rate">889992</property>
  <property name="kdenlive:original.meta.attr.0.stream.handler_name.markup">VideoHandler</property>
  <property name="kdenlive:original.meta.attr.0.stream.vendor_id.markup">[0][0][0][0]</property>
  <property name="kdenlive:original.meta.attr.major_brand.markup">isom</property>
  <property name="kdenlive:original.meta.attr.minor_version.markup">512</property>
  <property name="kdenlive:original.meta.attr.compatible_brands.markup">isomiso2avc1mp41</property>
  <property name="kdenlive:original.meta.attr.encoder.markup">Lavf58.76.100</property>
  <property name="kdenlive:original.meta.attr.comment.markup">Rendered with Manim Community v0.6.0</property>
  <property name="kdenlive:original.seekable">1</property>
  <property name="kdenlive:original.width">3840</property>
  <property name="kdenlive:original.height">2160</property>
  <property name="kdenlive:original.meta.media.sample_aspect_num">1</property>
  <property name="kdenlive:original.meta.media.sample_aspect_den">1</property>
  <property name="kdenlive:original.aspect_ratio">1</property>
  <property name="kdenlive:original.audio_index">-1</property>
  <property name="kdenlive:original.video_index">0</property>
  <property name="kdenlive:original.mute_on_pause">1</property>
  <property name="kdenlive:original.mlt_service">avformat</property>
  <property name="kdenlive:original.meta.media.frame_rate_num">60</property>
  <property name="kdenlive:original.meta.media.frame_rate_den">1</property>
  <property name="kdenlive:original.meta.media.colorspace">709</property>
  <property name="kdenlive:original.meta.media.color_trc">2</property>
  <property name="kdenlive:original.meta.media.width">3840</property>
  <property name="kdenlive:original.meta.media.height">2160</property>
  <property name="kdenlive:original.meta.media.color_range">mpeg</property>
  <property name="kdenlive:original.meta.media.top_field_first">0</property>
  <property name="kdenlive:original.meta.media.progressive">1</property>
  <property name="kdenlive:original.backup">1</property>
  <property name="xml">was here</property>
  <property name="meta.media.nb_streams">1</property>
  <property name="meta.media.0.stream.type">video</property>
  <property name="meta.media.0.stream.frame_rate">60</property>
  <property name="meta.media.0.stream.sample_aspect_ratio">0</property>
  <property name="meta.media.0.codec.width">640</property>
  <property name="meta.media.0.codec.height">360</property>
  <property name="meta.media.0.codec.rotate">0</property>
  <property name="meta.media.0.codec.frame_rate">60</property>
  <property name="meta.media.0.codec.pix_fmt">yuv420p</property>
  <property name="meta.media.0.codec.sample_aspect_ratio">0</property>
  <property name="meta.media.0.codec.colorspace">601</property>
  <property name="meta.media.0.codec.name">h264</property>
  <property name="meta.media.0.codec.long_name">H.264 / AVC / MPEG-4 AVC / MPEG-4 part 10</property>
  <property name="meta.media.0.codec.bit_rate">0</property>
  <property name="meta.attr.0.stream.HANDLER_NAME.markup">VideoHandler</property>
  <property name="meta.attr.0.stream.VENDOR_ID.markup">[0][0][0][0]</property>
  <property name="meta.attr.0.stream.ENCODER.markup">Lavc58.134.100 libx264</property>
  <property name="meta.attr.0.stream.DURATION.markup">00:00:01.000000000</property>
  <property name="meta.attr.COMMENT.markup">Rendered with Manim Community v0.6.0</property>
  <property name="meta.attr.MAJOR_BRAND.markup">isom</property>
  <property name="meta.attr.MINOR_VERSION.markup">512</property>
  <property name="meta.attr.COMPATIBLE_BRANDS.markup">isomiso2avc1mp41</property>
  <property name="meta.attr.ENCODER.markup">Lavf58.76.100</property>
  <property name="meta.media.sample_aspect_num">1</property>
  <property name="meta.media.sample_aspect_den">1</property>
  <property name="meta.media.frame_rate_num">60</property>
  <property name="meta.media.frame_rate_den">1</property>
  <property name="meta.media.colorspace">601</property>
  <property name="meta.media.color_trc">2</property>
  <property name="meta.media.width">640</property>
  <property name="meta.media.height">360</property>
  <property name="meta.media.color_range">mpeg</property>
  <property name="meta.media.top_field_first">0</property>
  <property name="meta.media.progressive">1</property>
  <property name="set.test_audio">1</property>
  <property name="set.test_image">0</property>
 </producer>
 <producer id="producer660" in="00:00:00.000" out="00:00:00.983">
  <property name="length">60</property>
  <property name="eof">pause</property>
  <property name="resource">/home/xiaoxiae/.cache/kdenlive/proxy/dba9f0a6389e3fea7dce376c0b0bab74.mkv</property>
  <property name="audio_index">-1</property>
  <property name="video_index">0</property>
  <property name="mute_on_pause">0</property>
  <property name="mlt_service">avformat-novalidate</property>
  <property name="seekable">1</property>
  <property name="aspect_ratio">1</property>
  <property name="kdenlive:clipname">9.mp4</property>
  <property name="kdenlive:folderid">277</property>
  <property name="kdenlive:id">339</property>
  <property name="kdenlive:file_size">89281</property>
  <property name="kdenlive:file_hash">dba9f0a6389e3fea7dce376c0b0bab74</property>
  <property name="kdenlive:proxy">/home/xiaoxiae/.cache/kdenlive/proxy/dba9f0a6389e3fea7dce376c0b0bab74.mkv</property>
  <property name="kdenlive:originalurl">video/Observations/9.mp4</property>
  <property name="global_feed">1</property>
  <property name="kdenlive:original.mlt_type">producer</property>
  <property name="kdenlive:original.in">0</property>
  <property name="kdenlive:original.out">59</property>
  <property name="kdenlive:original.length">60</property>
  <property name="kdenlive:original.eof">pause</property>
  <property name="kdenlive:original.resource">video/Observations/9.mp4</property>
  <property name="kdenlive:original.meta.media.nb_streams">1</property>
  <property name="kdenlive:original.meta.media.0.stream.type">video</property>
  <property name="kdenlive:original.meta.media.0.stream.frame_rate">60</property>
  <property name="kdenlive:original.meta.media.0.stream.sample_aspect_ratio">0</property>
  <property name="kdenlive:original.meta.media.0.codec.width">3840</property>
  <property name="kdenlive:original.meta.media.0.codec.height">2160</property>
  <property name="kdenlive:original.meta.media.0.codec.rotate">0</property>
  <property name="kdenlive:original.meta.media.0.codec.frame_rate">60</property>
  <property name="kdenlive:original.meta.media.0.codec.pix_fmt">yuv420p</property>
  <property name="kdenlive:original.meta.media.0.codec.sample_aspect_ratio">0</property>
  <property name="kdenlive:original.meta.media.0.codec.colorspace">709</property>
  <property name="kdenlive:original.meta.media.0.codec.name">h264</property>
  <property name="kdenlive:original.meta.media.0.codec.long_name">H.264 / AVC / MPEG-4 AVC / MPEG-4 part 10</property>
  <property name="kdenlive:original.meta.media.0.codec.bit_rate">701200</property>
  <property name="kdenlive:original.meta.attr.0.stream.handler_name.markup">VideoHandler</property>
  <property name="kdenlive:original.meta.attr.0.stream.vendor_id.markup">[0][0][0][0]</property>
  <property name="kdenlive:original.meta.attr.major_brand.markup">isom</property>
  <property name="kdenlive:original.meta.attr.minor_version.markup">512</property>
  <property name="kdenlive:original.meta.attr.compatible_brands.markup">isomiso2avc1mp41</property>
  <property name="kdenlive:original.meta.attr.encoder.markup">Lavf58.76.100</property>
  <property name="kdenlive:original.meta.attr.comment.markup">Rendered with Manim Community v0.6.0</property>
  <property name="kdenlive:original.seekable">1</property>
  <property name="kdenlive:original.width">3840</property>
  <property name="kdenlive:original.height">2160</property>
  <property name="kdenlive:original.meta.media.sample_aspect_num">1</property>
  <property name="kdenlive:original.meta.media.sample_aspect_den">1</property>
  <property name="kdenlive:original.aspect_ratio">1</property>
  <property name="kdenlive:original.audio_index">-1</property>
  <property name="kdenlive:original.video_index">0</property>
  <property name="kdenlive:original.mute_on_pause">1</property>
  <property name="kdenlive:original.mlt_service">avformat</property>
  <property name="kdenlive:original.meta.media.frame_rate_num">60</property>
  <property name="kdenlive:original.meta.media.frame_rate_den">1</property>
  <property name="kdenlive:original.meta.media.colorspace">709</property>
  <property name="kdenlive:original.meta.media.color_trc">2</property>
  <property name="kdenlive:original.meta.media.width">3840</property>
  <property name="kdenlive:original.meta.media.height">2160</property>
  <property name="kdenlive:original.meta.media.color_range">mpeg</property>
  <property name="kdenlive:original.meta.media.top_field_first">0</property>
  <property name="kdenlive:original.meta.media.progressive">1</property>
  <property name="kdenlive:original.backup">1</property>
  <property name="xml">was here</property>
  <property name="meta.media.nb_streams">1</property>
  <property name="meta.media.0.stream.type">video</property>
  <property name="meta.media.0.stream.frame_rate">60</property>
  <property name="meta.media.0.stream.sample_aspect_ratio">0</property>
  <property name="meta.media.0.codec.width">640</property>
  <property name="meta.media.0.codec.height">360</property>
  <property name="meta.media.0.codec.rotate">0</property>
  <property name="meta.media.0.codec.frame_rate">60</property>
  <property name="meta.media.0.codec.pix_fmt">yuv420p</property>
  <property name="meta.media.0.codec.sample_aspect_ratio">0</property>
  <property name="meta.media.0.codec.colorspace">601</property>
  <property name="meta.media.0.codec.name">h264</property>
  <property name="meta.media.0.codec.long_name">H.264 / AVC / MPEG-4 AVC / MPEG-4 part 10</property>
  <property name="meta.media.0.codec.bit_rate">0</property>
  <property name="meta.attr.0.stream.HANDLER_NAME.markup">VideoHandler</property>
  <property name="meta.attr.0.stream.VENDOR_ID.markup">[0][0][0][0]</property>
  <property name="meta.attr.0.stream.ENCODER.markup">Lavc58.134.100 libx264</property>
  <property name="meta.attr.0.stream.DURATION.markup">00:00:01.000000000</property>
  <property name="meta.attr.COMMENT.markup">Rendered with Manim Community v0.6.0</property>
  <property name="meta.attr.MAJOR_BRAND.markup">isom</property>
  <property name="meta.attr.MINOR_VERSION.markup">512</property>
  <property name="meta.attr.COMPATIBLE_BRANDS.markup">isomiso2avc1mp41</property>
  <property name="meta.attr.ENCODER.markup">Lavf58.76.100</property>
  <property name="meta.media.sample_aspect_num">1</property>
  <property name="meta.media.sample_aspect_den">1</property>
  <property name="meta.media.frame_rate_num">60</property>
  <property name="meta.media.frame_rate_den">1</property>
  <property name="meta.media.colorspace">601</property>
  <property name="meta.media.color_trc">2</property>
  <property name="meta.media.width">640</property>
  <property name="meta.media.height">360</property>
  <property name="meta.media.color_range">mpeg</property>
  <property name="meta.media.top_field_first">0</property>
  <property name="meta.media.progressive">1</property>
  <property name="set.test_audio">1</property>
  <property name="set.test_image">0</property>
 </producer>
 <producer id="producer661" in="00:00:00.000" out="00:00:00.983">
  <property name="length">60</property>
  <property name="eof">pause</property>
  <property name="resource">/home/xiaoxiae/.cache/kdenlive/proxy/bc916d17fb1a050ff14f87958142ccad.mkv</property>
  <property name="audio_index">-1</property>
  <property name="video_index">0</property>
  <property name="mute_on_pause">0</property>
  <property name="mlt_service">avformat-novalidate</property>
  <property name="seekable">1</property>
  <property name="aspect_ratio">1</property>
  <property name="kdenlive:clipname">10.mp4</property>
  <property name="kdenlive:folderid">277</property>
  <property name="kdenlive:id">256</property>
  <property name="kdenlive:file_size">127385</property>
  <property name="kdenlive:file_hash">bc916d17fb1a050ff14f87958142ccad</property>
  <property name="kdenlive:proxy">/home/xiaoxiae/.cache/kdenlive/proxy/bc916d17fb1a050ff14f87958142ccad.mkv</property>
  <property name="kdenlive:originalurl">video/Observations/10.mp4</property>
  <property name="global_feed">1</property>
  <property name="kdenlive:original.mlt_type">producer</property>
  <property name="kdenlive:original.in">0</property>
  <property name="kdenlive:original.out">59</property>
  <property name="kdenlive:original.length">60</property>
  <property name="kdenlive:original.eof">pause</property>
  <property name="kdenlive:original.resource">video/Observations/10.mp4</property>
  <property name="kdenlive:original.meta.media.nb_streams">1</property>
  <property name="kdenlive:original.meta.media.0.stream.type">video</property>
  <property name="kdenlive:original.meta.media.0.stream.frame_rate">60</property>
  <property name="kdenlive:original.meta.media.0.stream.sample_aspect_ratio">0</property>
  <property name="kdenlive:original.meta.media.0.codec.width">3840</property>
  <property name="kdenlive:original.meta.media.0.codec.height">2160</property>
  <property name="kdenlive:original.meta.media.0.codec.rotate">0</property>
  <property name="kdenlive:original.meta.media.0.codec.frame_rate">60</property>
  <property name="kdenlive:original.meta.media.0.codec.pix_fmt">yuv420p</property>
  <property name="kdenlive:original.meta.media.0.codec.sample_aspect_ratio">0</property>
  <property name="kdenlive:original.meta.media.0.codec.colorspace">709</property>
  <property name="kdenlive:original.meta.media.0.codec.name">h264</property>
  <property name="kdenlive:original.meta.media.0.codec.long_name">H.264 / AVC / MPEG-4 AVC / MPEG-4 part 10</property>
  <property name="kdenlive:original.meta.media.0.codec.bit_rate">1006032</property>
  <property name="kdenlive:original.meta.attr.0.stream.handler_name.markup">VideoHandler</property>
  <property name="kdenlive:original.meta.attr.0.stream.vendor_id.markup">[0][0][0][0]</property>
  <property name="kdenlive:original.meta.attr.major_brand.markup">isom</property>
  <property name="kdenlive:original.meta.attr.minor_version.markup">512</property>
  <property name="kdenlive:original.meta.attr.compatible_brands.markup">isomiso2avc1mp41</property>
  <property name="kdenlive:original.meta.attr.encoder.markup">Lavf58.76.100</property>
  <property name="kdenlive:original.meta.attr.comment.markup">Rendered with Manim Community v0.6.0</property>
  <property name="kdenlive:original.seekable">1</property>
  <property name="kdenlive:original.width">3840</property>
  <property name="kdenlive:original.height">2160</property>
  <property name="kdenlive:original.meta.media.sample_aspect_num">1</property>
  <property name="kdenlive:original.meta.media.sample_aspect_den">1</property>
  <property name="kdenlive:original.aspect_ratio">1</property>
  <property name="kdenlive:original.audio_index">-1</property>
  <property name="kdenlive:original.video_index">0</property>
  <property name="kdenlive:original.mute_on_pause">1</property>
  <property name="kdenlive:original.mlt_service">avformat</property>
  <property name="kdenlive:original.meta.media.frame_rate_num">60</property>
  <property name="kdenlive:original.meta.media.frame_rate_den">1</property>
  <property name="kdenlive:original.meta.media.colorspace">709</property>
  <property name="kdenlive:original.meta.media.color_trc">2</property>
  <property name="kdenlive:original.meta.media.width">3840</property>
  <property name="kdenlive:original.meta.media.height">2160</property>
  <property name="kdenlive:original.meta.media.color_range">mpeg</property>
  <property name="kdenlive:original.meta.media.top_field_first">0</property>
  <property name="kdenlive:original.meta.media.progressive">1</property>
  <property name="kdenlive:original.backup">1</property>
  <property name="xml">was here</property>
  <property name="meta.media.nb_streams">1</property>
  <property name="meta.media.0.stream.type">video</property>
  <property name="meta.media.0.stream.frame_rate">60</property>
  <property name="meta.media.0.stream.sample_aspect_ratio">0</property>
  <property name="meta.media.0.codec.width">640</property>
  <property name="meta.media.0.codec.height">360</property>
  <property name="meta.media.0.codec.rotate">0</property>
  <property name="meta.media.0.codec.frame_rate">60</property>
  <property name="meta.media.0.codec.pix_fmt">yuv420p</property>
  <property name="meta.media.0.codec.sample_aspect_ratio">0</property>
  <property name="meta.media.0.codec.colorspace">601</property>
  <property name="meta.media.0.codec.name">h264</property>
  <property name="meta.media.0.codec.long_name">H.264 / AVC / MPEG-4 AVC / MPEG-4 part 10</property>
  <property name="meta.media.0.codec.bit_rate">0</property>
  <property name="meta.attr.0.stream.HANDLER_NAME.markup">VideoHandler</property>
  <property name="meta.attr.0.stream.VENDOR_ID.markup">[0][0][0][0]</property>
  <property name="meta.attr.0.stream.ENCODER.markup">Lavc58.134.100 libx264</property>
  <property name="meta.attr.0.stream.DURATION.markup">00:00:01.000000000</property>
  <property name="meta.attr.COMMENT.markup">Rendered with Manim Community v0.6.0</property>
  <property name="meta.attr.MAJOR_BRAND.markup">isom</property>
  <property name="meta.attr.MINOR_VERSION.markup">512</property>
  <property name="meta.attr.COMPATIBLE_BRANDS.markup">isomiso2avc1mp41</property>
  <property name="meta.attr.ENCODER.markup">Lavf58.76.100</property>
  <property name="meta.media.sample_aspect_num">1</property>
  <property name="meta.media.sample_aspect_den">1</property>
  <property name="meta.media.frame_rate_num">60</property>
  <property name="meta.media.frame_rate_den">1</property>
  <property name="meta.media.colorspace">601</property>
  <property name="meta.media.color_trc">2</property>
  <property name="meta.media.width">640</property>
  <property name="meta.media.height">360</property>
  <property name="meta.media.color_range">mpeg</property>
  <property name="meta.media.top_field_first">0</property>
  <property name="meta.media.progressive">1</property>
  <property name="set.test_audio">1</property>
  <property name="set.test_image">0</property>
 </producer>
 <producer id="producer662" in="00:00:00.000" out="00:00:00.983">
  <property name="length">60</property>
  <property name="eof">pause</property>
  <property name="resource">/home/xiaoxiae/.cache/kdenlive/proxy/7e16e3392c13e799f095c2589391a7e1.mkv</property>
  <property name="audio_index">-1</property>
  <property name="video_index">0</property>
  <property name="mute_on_pause">0</property>
  <property name="mlt_service">avformat-novalidate</property>
  <property name="seekable">1</property>
  <property name="aspect_ratio">1</property>
  <property name="kdenlive:clipname">11.mp4</property>
  <property name="kdenlive:folderid">277</property>
  <property name="kdenlive:id">258</property>
  <property name="kdenlive:file_size">94190</property>
  <property name="kdenlive:file_hash">7e16e3392c13e799f095c2589391a7e1</property>
  <property name="kdenlive:proxy">/home/xiaoxiae/.cache/kdenlive/proxy/7e16e3392c13e799f095c2589391a7e1.mkv</property>
  <property name="kdenlive:originalurl">video/Observations/11.mp4</property>
  <property name="global_feed">1</property>
  <property name="kdenlive:original.mlt_type">producer</property>
  <property name="kdenlive:original.in">0</property>
  <property name="kdenlive:original.out">59</property>
  <property name="kdenlive:original.length">60</property>
  <property name="kdenlive:original.eof">pause</property>
  <property name="kdenlive:original.resource">video/Observations/11.mp4</property>
  <property name="kdenlive:original.meta.media.nb_streams">1</property>
  <property name="kdenlive:original.meta.media.0.stream.type">video</property>
  <property name="kdenlive:original.meta.media.0.stream.frame_rate">60</property>
  <property name="kdenlive:original.meta.media.0.stream.sample_aspect_ratio">0</property>
  <property name="kdenlive:original.meta.media.0.codec.width">3840</property>
  <property name="kdenlive:original.meta.media.0.codec.height">2160</property>
  <property name="kdenlive:original.meta.media.0.codec.rotate">0</property>
  <property name="kdenlive:original.meta.media.0.codec.frame_rate">60</property>
  <property name="kdenlive:original.meta.media.0.codec.pix_fmt">yuv420p</property>
  <property name="kdenlive:original.meta.media.0.codec.sample_aspect_ratio">0</property>
  <property name="kdenlive:original.meta.media.0.codec.colorspace">709</property>
  <property name="kdenlive:original.meta.media.0.codec.name">h264</property>
  <property name="kdenlive:original.meta.media.0.codec.long_name">H.264 / AVC / MPEG-4 AVC / MPEG-4 part 10</property>
  <property name="kdenlive:original.meta.media.0.codec.bit_rate">740472</property>
  <property name="kdenlive:original.meta.attr.0.stream.handler_name.markup">VideoHandler</property>
  <property name="kdenlive:original.meta.attr.0.stream.vendor_id.markup">[0][0][0][0]</property>
  <property name="kdenlive:original.meta.attr.major_brand.markup">isom</property>
  <property name="kdenlive:original.meta.attr.minor_version.markup">512</property>
  <property name="kdenlive:original.meta.attr.compatible_brands.markup">isomiso2avc1mp41</property>
  <property name="kdenlive:original.meta.attr.encoder.markup">Lavf58.76.100</property>
  <property name="kdenlive:original.meta.attr.comment.markup">Rendered with Manim Community v0.6.0</property>
  <property name="kdenlive:original.seekable">1</property>
  <property name="kdenlive:original.width">3840</property>
  <property name="kdenlive:original.height">2160</property>
  <property name="kdenlive:original.meta.media.sample_aspect_num">1</property>
  <property name="kdenlive:original.meta.media.sample_aspect_den">1</property>
  <property name="kdenlive:original.aspect_ratio">1</property>
  <property name="kdenlive:original.audio_index">-1</property>
  <property name="kdenlive:original.video_index">0</property>
  <property name="kdenlive:original.mute_on_pause">1</property>
  <property name="kdenlive:original.mlt_service">avformat</property>
  <property name="kdenlive:original.meta.media.frame_rate_num">60</property>
  <property name="kdenlive:original.meta.media.frame_rate_den">1</property>
  <property name="kdenlive:original.meta.media.colorspace">709</property>
  <property name="kdenlive:original.meta.media.color_trc">2</property>
  <property name="kdenlive:original.meta.media.width">3840</property>
  <property name="kdenlive:original.meta.media.height">2160</property>
  <property name="kdenlive:original.meta.media.color_range">mpeg</property>
  <property name="kdenlive:original.meta.media.top_field_first">0</property>
  <property name="kdenlive:original.meta.media.progressive">1</property>
  <property name="kdenlive:original.backup">1</property>
  <property name="xml">was here</property>
  <property name="meta.media.nb_streams">1</property>
  <property name="meta.media.0.stream.type">video</property>
  <property name="meta.media.0.stream.frame_rate">60</property>
  <property name="meta.media.0.stream.sample_aspect_ratio">0</property>
  <property name="meta.media.0.codec.width">640</property>
  <property name="meta.media.0.codec.height">360</property>
  <property name="meta.media.0.codec.rotate">0</property>
  <property name="meta.media.0.codec.frame_rate">60</property>
  <property name="meta.media.0.codec.pix_fmt">yuv420p</property>
  <property name="meta.media.0.codec.sample_aspect_ratio">0</property>
  <property name="meta.media.0.codec.colorspace">601</property>
  <property name="meta.media.0.codec.name">h264</property>
  <property name="meta.media.0.codec.long_name">H.264 / AVC / MPEG-4 AVC / MPEG-4 part 10</property>
  <property name="meta.media.0.codec.bit_rate">0</property>
  <property name="meta.attr.0.stream.HANDLER_NAME.markup">VideoHandler</property>
  <property name="meta.attr.0.stream.VENDOR_ID.markup">[0][0][0][0]</property>
  <property name="meta.attr.0.stream.ENCODER.markup">Lavc58.134.100 libx264</property>
  <property name="meta.attr.0.stream.DURATION.markup">00:00:01.000000000</property>
  <property name="meta.attr.COMMENT.markup">Rendered with Manim Community v0.6.0</property>
  <property name="meta.attr.MAJOR_BRAND.markup">isom</property>
  <property name="meta.attr.MINOR_VERSION.markup">512</property>
  <property name="meta.attr.COMPATIBLE_BRANDS.markup">isomiso2avc1mp41</property>
  <property name="meta.attr.ENCODER.markup">Lavf58.76.100</property>
  <property name="meta.media.sample_aspect_num">1</property>
  <property name="meta.media.sample_aspect_den">1</property>
  <property name="meta.media.frame_rate_num">60</property>
  <property name="meta.media.frame_rate_den">1</property>
  <property name="meta.media.colorspace">601</property>
  <property name="meta.media.color_trc">2</property>
  <property name="meta.media.width">640</property>
  <property name="meta.media.height">360</property>
  <property name="meta.media.color_range">mpeg</property>
  <property name="meta.media.top_field_first">0</property>
  <property name="meta.media.progressive">1</property>
  <property name="set.test_audio">1</property>
  <property name="set.test_image">0</property>
 </producer>
 <producer id="producer663" in="00:00:00.000" out="00:00:00.983">
  <property name="length">60</property>
  <property name="eof">pause</property>
  <property name="resource">/home/xiaoxiae/.cache/kdenlive/proxy/af899b5a2b8fee4af9847a53d7223be9.mkv</property>
  <property name="audio_index">-1</property>
  <property name="video_index">0</property>
  <property name="mute_on_pause">0</property>
  <property name="mlt_service">avformat-novalidate</property>
  <property name="seekable">1</property>
  <property name="aspect_ratio">1</property>
  <property name="kdenlive:clipname">12.mp4</property>
  <property name="kdenlive:folderid">277</property>
  <property name="kdenlive:id">260</property>
  <property name="kdenlive:file_size">107599</property>
  <property name="kdenlive:file_hash">af899b5a2b8fee4af9847a53d7223be9</property>
  <property name="kdenlive:proxy">/home/xiaoxiae/.cache/kdenlive/proxy/af899b5a2b8fee4af9847a53d7223be9.mkv</property>
  <property name="kdenlive:originalurl">video/Observations/12.mp4</property>
  <property name="global_feed">1</property>
  <property name="kdenlive:original.mlt_type">producer</property>
  <property name="kdenlive:original.in">0</property>
  <property name="kdenlive:original.out">59</property>
  <property name="kdenlive:original.length">60</property>
  <property name="kdenlive:original.eof">pause</property>
  <property name="kdenlive:original.resource">video/Observations/12.mp4</property>
  <property name="kdenlive:original.meta.media.nb_streams">1</property>
  <property name="kdenlive:original.meta.media.0.stream.type">video</property>
  <property name="kdenlive:original.meta.media.0.stream.frame_rate">60</property>
  <property name="kdenlive:original.meta.media.0.stream.sample_aspect_ratio">0</property>
  <property name="kdenlive:original.meta.media.0.codec.width">3840</property>
  <property name="kdenlive:original.meta.media.0.codec.height">2160</property>
  <property name="kdenlive:original.meta.media.0.codec.rotate">0</property>
  <property name="kdenlive:original.meta.media.0.codec.frame_rate">60</property>
  <property name="kdenlive:original.meta.media.0.codec.pix_fmt">yuv420p</property>
  <property name="kdenlive:original.meta.media.0.codec.sample_aspect_ratio">0</property>
  <property name="kdenlive:original.meta.media.0.codec.colorspace">709</property>
  <property name="kdenlive:original.meta.media.0.codec.name">h264</property>
  <property name="kdenlive:original.meta.media.0.codec.long_name">H.264 / AVC / MPEG-4 AVC / MPEG-4 part 10</property>
  <property name="kdenlive:original.meta.media.0.codec.bit_rate">847744</property>
  <property name="kdenlive:original.meta.attr.0.stream.handler_name.markup">VideoHandler</property>
  <property name="kdenlive:original.meta.attr.0.stream.vendor_id.markup">[0][0][0][0]</property>
  <property name="kdenlive:original.meta.attr.major_brand.markup">isom</property>
  <property name="kdenlive:original.meta.attr.minor_version.markup">512</property>
  <property name="kdenlive:original.meta.attr.compatible_brands.markup">isomiso2avc1mp41</property>
  <property name="kdenlive:original.meta.attr.encoder.markup">Lavf58.76.100</property>
  <property name="kdenlive:original.meta.attr.comment.markup">Rendered with Manim Community v0.6.0</property>
  <property name="kdenlive:original.seekable">1</property>
  <property name="kdenlive:original.width">3840</property>
  <property name="kdenlive:original.height">2160</property>
  <property name="kdenlive:original.meta.media.sample_aspect_num">1</property>
  <property name="kdenlive:original.meta.media.sample_aspect_den">1</property>
  <property name="kdenlive:original.aspect_ratio">1</property>
  <property name="kdenlive:original.audio_index">-1</property>
  <property name="kdenlive:original.video_index">0</property>
  <property name="kdenlive:original.mute_on_pause">1</property>
  <property name="kdenlive:original.mlt_service">avformat</property>
  <property name="kdenlive:original.meta.media.frame_rate_num">60</property>
  <property name="kdenlive:original.meta.media.frame_rate_den">1</property>
  <property name="kdenlive:original.meta.media.colorspace">709</property>
  <property name="kdenlive:original.meta.media.color_trc">2</property>
  <property name="kdenlive:original.meta.media.width">3840</property>
  <property name="kdenlive:original.meta.media.height">2160</property>
  <property name="kdenlive:original.meta.media.color_range">mpeg</property>
  <property name="kdenlive:original.meta.media.top_field_first">0</property>
  <property name="kdenlive:original.meta.media.progressive">1</property>
  <property name="kdenlive:original.backup">1</property>
  <property name="xml">was here</property>
  <property name="meta.media.nb_streams">1</property>
  <property name="meta.media.0.stream.type">video</property>
  <property name="meta.media.0.stream.frame_rate">60</property>
  <property name="meta.media.0.stream.sample_aspect_ratio">0</property>
  <property name="meta.media.0.codec.width">640</property>
  <property name="meta.media.0.codec.height">360</property>
  <property name="meta.media.0.codec.rotate">0</property>
  <property name="meta.media.0.codec.frame_rate">60</property>
  <property name="meta.media.0.codec.pix_fmt">yuv420p</property>
  <property name="meta.media.0.codec.sample_aspect_ratio">0</property>
  <property name="meta.media.0.codec.colorspace">601</property>
  <property name="meta.media.0.codec.name">h264</property>
  <property name="meta.media.0.codec.long_name">H.264 / AVC / MPEG-4 AVC / MPEG-4 part 10</property>
  <property name="meta.media.0.codec.bit_rate">0</property>
  <property name="meta.attr.0.stream.HANDLER_NAME.markup">VideoHandler</property>
  <property name="meta.attr.0.stream.VENDOR_ID.markup">[0][0][0][0]</property>
  <property name="meta.attr.0.stream.ENCODER.markup">Lavc58.134.100 libx264</property>
  <property name="meta.attr.0.stream.DURATION.markup">00:00:01.000000000</property>
  <property name="meta.attr.COMMENT.markup">Rendered with Manim Community v0.6.0</property>
  <property name="meta.attr.MAJOR_BRAND.markup">isom</property>
  <property name="meta.attr.MINOR_VERSION.markup">512</property>
  <property name="meta.attr.COMPATIBLE_BRANDS.markup">isomiso2avc1mp41</property>
  <property name="meta.attr.ENCODER.markup">Lavf58.76.100</property>
  <property name="meta.media.sample_aspect_num">1</property>
  <property name="meta.media.sample_aspect_den">1</property>
  <property name="meta.media.frame_rate_num">60</property>
  <property name="meta.media.frame_rate_den">1</property>
  <property name="meta.media.colorspace">601</property>
  <property name="meta.media.color_trc">2</property>
  <property name="meta.media.width">640</property>
  <property name="meta.media.height">360</property>
  <property name="meta.media.color_range">mpeg</property>
  <property name="meta.media.top_field_first">0</property>
  <property name="meta.media.progressive">1</property>
  <property name="set.test_audio">1</property>
  <property name="set.test_image">0</property>
 </producer>
 <producer id="producer664" in="00:00:00.000" out="00:00:00.983">
  <property name="length">60</property>
  <property name="eof">pause</property>
  <property name="resource">/home/xiaoxiae/.cache/kdenlive/proxy/e52dfd52345ea2bf50bafd45c2277aaa.mkv</property>
  <property name="audio_index">-1</property>
  <property name="video_index">0</property>
  <property name="mute_on_pause">0</property>
  <property name="mlt_service">avformat-novalidate</property>
  <property name="seekable">1</property>
  <property name="aspect_ratio">1</property>
  <property name="kdenlive:clipname">13.mp4</property>
  <property name="kdenlive:folderid">277</property>
  <property name="kdenlive:id">262</property>
  <property name="kdenlive:file_size">94393</property>
  <property name="kdenlive:file_hash">e52dfd52345ea2bf50bafd45c2277aaa</property>
  <property name="kdenlive:proxy">/home/xiaoxiae/.cache/kdenlive/proxy/e52dfd52345ea2bf50bafd45c2277aaa.mkv</property>
  <property name="kdenlive:originalurl">video/Observations/13.mp4</property>
  <property name="global_feed">1</property>
  <property name="kdenlive:original.mlt_type">producer</property>
  <property name="kdenlive:original.in">0</property>
  <property name="kdenlive:original.out">59</property>
  <property name="kdenlive:original.length">60</property>
  <property name="kdenlive:original.eof">pause</property>
  <property name="kdenlive:original.resource">video/Observations/13.mp4</property>
  <property name="kdenlive:original.meta.media.nb_streams">1</property>
  <property name="kdenlive:original.meta.media.0.stream.type">video</property>
  <property name="kdenlive:original.meta.media.0.stream.frame_rate">60</property>
  <property name="kdenlive:original.meta.media.0.stream.sample_aspect_ratio">0</property>
  <property name="kdenlive:original.meta.media.0.codec.width">3840</property>
  <property name="kdenlive:original.meta.media.0.codec.height">2160</property>
  <property name="kdenlive:original.meta.media.0.codec.rotate">0</property>
  <property name="kdenlive:original.meta.media.0.codec.frame_rate">60</property>
  <property name="kdenlive:original.meta.media.0.codec.pix_fmt">yuv420p</property>
  <property name="kdenlive:original.meta.media.0.codec.sample_aspect_ratio">0</property>
  <property name="kdenlive:original.meta.media.0.codec.colorspace">709</property>
  <property name="kdenlive:original.meta.media.0.codec.name">h264</property>
  <property name="kdenlive:original.meta.media.0.codec.long_name">H.264 / AVC / MPEG-4 AVC / MPEG-4 part 10</property>
  <property name="kdenlive:original.meta.media.0.codec.bit_rate">742096</property>
  <property name="kdenlive:original.meta.attr.0.stream.handler_name.markup">VideoHandler</property>
  <property name="kdenlive:original.meta.attr.0.stream.vendor_id.markup">[0][0][0][0]</property>
  <property name="kdenlive:original.meta.attr.major_brand.markup">isom</property>
  <property name="kdenlive:original.meta.attr.minor_version.markup">512</property>
  <property name="kdenlive:original.meta.attr.compatible_brands.markup">isomiso2avc1mp41</property>
  <property name="kdenlive:original.meta.attr.encoder.markup">Lavf58.76.100</property>
  <property name="kdenlive:original.meta.attr.comment.markup">Rendered with Manim Community v0.6.0</property>
  <property name="kdenlive:original.seekable">1</property>
  <property name="kdenlive:original.width">3840</property>
  <property name="kdenlive:original.height">2160</property>
  <property name="kdenlive:original.meta.media.sample_aspect_num">1</property>
  <property name="kdenlive:original.meta.media.sample_aspect_den">1</property>
  <property name="kdenlive:original.aspect_ratio">1</property>
  <property name="kdenlive:original.audio_index">-1</property>
  <property name="kdenlive:original.video_index">0</property>
  <property name="kdenlive:original.mute_on_pause">1</property>
  <property name="kdenlive:original.mlt_service">avformat</property>
  <property name="kdenlive:original.meta.media.frame_rate_num">60</property>
  <property name="kdenlive:original.meta.media.frame_rate_den">1</property>
  <property name="kdenlive:original.meta.media.colorspace">709</property>
  <property name="kdenlive:original.meta.media.color_trc">2</property>
  <property name="kdenlive:original.meta.media.width">3840</property>
  <property name="kdenlive:original.meta.media.height">2160</property>
  <property name="kdenlive:original.meta.media.color_range">mpeg</property>
  <property name="kdenlive:original.meta.media.top_field_first">0</property>
  <property name="kdenlive:original.meta.media.progressive">1</property>
  <property name="kdenlive:original.backup">1</property>
  <property name="xml">was here</property>
  <property name="meta.media.nb_streams">1</property>
  <property name="meta.media.0.stream.type">video</property>
  <property name="meta.media.0.stream.frame_rate">60</property>
  <property name="meta.media.0.stream.sample_aspect_ratio">0</property>
  <property name="meta.media.0.codec.width">640</property>
  <property name="meta.media.0.codec.height">360</property>
  <property name="meta.media.0.codec.rotate">0</property>
  <property name="meta.media.0.codec.frame_rate">60</property>
  <property name="meta.media.0.codec.pix_fmt">yuv420p</property>
  <property name="meta.media.0.codec.sample_aspect_ratio">0</property>
  <property name="meta.media.0.codec.colorspace">601</property>
  <property name="meta.media.0.codec.name">h264</property>
  <property name="meta.media.0.codec.long_name">H.264 / AVC / MPEG-4 AVC / MPEG-4 part 10</property>
  <property name="meta.media.0.codec.bit_rate">0</property>
  <property name="meta.attr.0.stream.HANDLER_NAME.markup">VideoHandler</property>
  <property name="meta.attr.0.stream.VENDOR_ID.markup">[0][0][0][0]</property>
  <property name="meta.attr.0.stream.ENCODER.markup">Lavc58.134.100 libx264</property>
  <property name="meta.attr.0.stream.DURATION.markup">00:00:01.000000000</property>
  <property name="meta.attr.COMMENT.markup">Rendered with Manim Community v0.6.0</property>
  <property name="meta.attr.MAJOR_BRAND.markup">isom</property>
  <property name="meta.attr.MINOR_VERSION.markup">512</property>
  <property name="meta.attr.COMPATIBLE_BRANDS.markup">isomiso2avc1mp41</property>
  <property name="meta.attr.ENCODER.markup">Lavf58.76.100</property>
  <property name="meta.media.sample_aspect_num">1</property>
  <property name="meta.media.sample_aspect_den">1</property>
  <property name="meta.media.frame_rate_num">60</property>
  <property name="meta.media.frame_rate_den">1</property>
  <property name="meta.media.colorspace">601</property>
  <property name="meta.media.color_trc">2</property>
  <property name="meta.media.width">640</property>
  <property name="meta.media.height">360</property>
  <property name="meta.media.color_range">mpeg</property>
  <property name="meta.media.top_field_first">0</property>
  <property name="meta.media.progressive">1</property>
  <property name="set.test_audio">1</property>
  <property name="set.test_image">0</property>
 </producer>
 <producer id="producer665" in="00:00:00.000" out="00:00:00.983">
  <property name="length">60</property>
  <property name="eof">pause</property>
  <property name="resource">/home/xiaoxiae/.cache/kdenlive/proxy/4fcba474d736c43e6f4d2fc9dd829f93.mkv</property>
  <property name="audio_index">-1</property>
  <property name="video_index">0</property>
  <property name="mute_on_pause">0</property>
  <property name="mlt_service">avformat-novalidate</property>
  <property name="seekable">1</property>
  <property name="aspect_ratio">1</property>
  <property name="kdenlive:clipname">29.mp4</property>
  <property name="kdenlive:folderid">277</property>
  <property name="kdenlive:id">297</property>
  <property name="kdenlive:file_size">55371</property>
  <property name="kdenlive:file_hash">4fcba474d736c43e6f4d2fc9dd829f93</property>
  <property name="kdenlive:proxy">/home/xiaoxiae/.cache/kdenlive/proxy/4fcba474d736c43e6f4d2fc9dd829f93.mkv</property>
  <property name="kdenlive:originalurl">video/Observations/29.mp4</property>
  <property name="global_feed">1</property>
  <property name="kdenlive:original.mlt_type">producer</property>
  <property name="kdenlive:original.in">0</property>
  <property name="kdenlive:original.out">59</property>
  <property name="kdenlive:original.length">60</property>
  <property name="kdenlive:original.eof">pause</property>
  <property name="kdenlive:original.resource">video/Observations/29.mp4</property>
  <property name="kdenlive:original.meta.media.nb_streams">1</property>
  <property name="kdenlive:original.meta.media.0.stream.type">video</property>
  <property name="kdenlive:original.meta.media.0.stream.frame_rate">60</property>
  <property name="kdenlive:original.meta.media.0.stream.sample_aspect_ratio">0</property>
  <property name="kdenlive:original.meta.media.0.codec.width">3840</property>
  <property name="kdenlive:original.meta.media.0.codec.height">2160</property>
  <property name="kdenlive:original.meta.media.0.codec.rotate">0</property>
  <property name="kdenlive:original.meta.media.0.codec.frame_rate">60</property>
  <property name="kdenlive:original.meta.media.0.codec.pix_fmt">yuv420p</property>
  <property name="kdenlive:original.meta.media.0.codec.sample_aspect_ratio">0</property>
  <property name="kdenlive:original.meta.media.0.codec.colorspace">709</property>
  <property name="kdenlive:original.meta.media.0.codec.name">h264</property>
  <property name="kdenlive:original.meta.media.0.codec.long_name">H.264 / AVC / MPEG-4 AVC / MPEG-4 part 10</property>
  <property name="kdenlive:original.meta.media.0.codec.bit_rate">429920</property>
  <property name="kdenlive:original.meta.attr.0.stream.handler_name.markup">VideoHandler</property>
  <property name="kdenlive:original.meta.attr.0.stream.vendor_id.markup">[0][0][0][0]</property>
  <property name="kdenlive:original.meta.attr.major_brand.markup">isom</property>
  <property name="kdenlive:original.meta.attr.minor_version.markup">512</property>
  <property name="kdenlive:original.meta.attr.compatible_brands.markup">isomiso2avc1mp41</property>
  <property name="kdenlive:original.meta.attr.encoder.markup">Lavf58.76.100</property>
  <property name="kdenlive:original.meta.attr.comment.markup">Rendered with Manim Community v0.6.0</property>
  <property name="kdenlive:original.seekable">1</property>
  <property name="kdenlive:original.width">3840</property>
  <property name="kdenlive:original.height">2160</property>
  <property name="kdenlive:original.meta.media.sample_aspect_num">1</property>
  <property name="kdenlive:original.meta.media.sample_aspect_den">1</property>
  <property name="kdenlive:original.aspect_ratio">1</property>
  <property name="kdenlive:original.audio_index">-1</property>
  <property name="kdenlive:original.video_index">0</property>
  <property name="kdenlive:original.mute_on_pause">1</property>
  <property name="kdenlive:original.mlt_service">avformat</property>
  <property name="kdenlive:original.meta.media.frame_rate_num">60</property>
  <property name="kdenlive:original.meta.media.frame_rate_den">1</property>
  <property name="kdenlive:original.meta.media.colorspace">709</property>
  <property name="kdenlive:original.meta.media.color_trc">2</property>
  <property name="kdenlive:original.meta.media.width">3840</property>
  <property name="kdenlive:original.meta.media.height">2160</property>
  <property name="kdenlive:original.meta.media.color_range">mpeg</property>
  <property name="kdenlive:original.meta.media.top_field_first">0</property>
  <property name="kdenlive:original.meta.media.progressive">1</property>
  <property name="kdenlive:original.backup">1</property>
  <property name="xml">was here</property>
  <property name="meta.media.nb_streams">1</property>
  <property name="meta.media.0.stream.type">video</property>
  <property name="meta.media.0.stream.frame_rate">60</property>
  <property name="meta.media.0.stream.sample_aspect_ratio">0</property>
  <property name="meta.media.0.codec.width">640</property>
  <property name="meta.media.0.codec.height">360</property>
  <property name="meta.media.0.codec.rotate">0</property>
  <property name="meta.media.0.codec.frame_rate">60</property>
  <property name="meta.media.0.codec.pix_fmt">yuv420p</property>
  <property name="meta.media.0.codec.sample_aspect_ratio">0</property>
  <property name="meta.media.0.codec.colorspace">601</property>
  <property name="meta.media.0.codec.name">h264</property>
  <property name="meta.media.0.codec.long_name">H.264 / AVC / MPEG-4 AVC / MPEG-4 part 10</property>
  <property name="meta.media.0.codec.bit_rate">0</property>
  <property name="meta.attr.0.stream.HANDLER_NAME.markup">VideoHandler</property>
  <property name="meta.attr.0.stream.VENDOR_ID.markup">[0][0][0][0]</property>
  <property name="meta.attr.0.stream.ENCODER.markup">Lavc58.134.100 libx264</property>
  <property name="meta.attr.0.stream.DURATION.markup">00:00:01.000000000</property>
  <property name="meta.attr.COMMENT.markup">Rendered with Manim Community v0.6.0</property>
  <property name="meta.attr.MAJOR_BRAND.markup">isom</property>
  <property name="meta.attr.MINOR_VERSION.markup">512</property>
  <property name="meta.attr.COMPATIBLE_BRANDS.markup">isomiso2avc1mp41</property>
  <property name="meta.attr.ENCODER.markup">Lavf58.76.100</property>
  <property name="meta.media.sample_aspect_num">1</property>
  <property name="meta.media.sample_aspect_den">1</property>
  <property name="meta.media.frame_rate_num">60</property>
  <property name="meta.media.frame_rate_den">1</property>
  <property name="meta.media.colorspace">601</property>
  <property name="meta.media.color_trc">2</property>
  <property name="meta.media.width">640</property>
  <property name="meta.media.height">360</property>
  <property name="meta.media.color_range">mpeg</property>
  <property name="meta.media.top_field_first">0</property>
  <property name="meta.media.progressive">1</property>
  <property name="set.test_audio">1</property>
  <property name="set.test_image">0</property>
 </producer>
 <producer id="producer666" in="00:00:00.000" out="00:00:00.983">
  <property name="length">60</property>
  <property name="eof">pause</property>
  <property name="resource">/home/xiaoxiae/.cache/kdenlive/proxy/ef86dd7e123e54de8bfebb5b74605f65.mkv</property>
  <property name="audio_index">-1</property>
  <property name="video_index">0</property>
  <property name="mute_on_pause">0</property>
  <property name="mlt_service">avformat-novalidate</property>
  <property name="seekable">1</property>
  <property name="aspect_ratio">1</property>
  <property name="kdenlive:clipname">30.mp4</property>
  <property name="kdenlive:folderid">277</property>
  <property name="kdenlive:id">301</property>
  <property name="kdenlive:file_size">55312</property>
  <property name="kdenlive:file_hash">ef86dd7e123e54de8bfebb5b74605f65</property>
  <property name="kdenlive:proxy">/home/xiaoxiae/.cache/kdenlive/proxy/ef86dd7e123e54de8bfebb5b74605f65.mkv</property>
  <property name="kdenlive:originalurl">video/Observations/30.mp4</property>
  <property name="global_feed">1</property>
  <property name="kdenlive:original.mlt_type">producer</property>
  <property name="kdenlive:original.in">0</property>
  <property name="kdenlive:original.out">59</property>
  <property name="kdenlive:original.length">60</property>
  <property name="kdenlive:original.eof">pause</property>
  <property name="kdenlive:original.resource">video/Observations/30.mp4</property>
  <property name="kdenlive:original.meta.media.nb_streams">1</property>
  <property name="kdenlive:original.meta.media.0.stream.type">video</property>
  <property name="kdenlive:original.meta.media.0.stream.frame_rate">60</property>
  <property name="kdenlive:original.meta.media.0.stream.sample_aspect_ratio">0</property>
  <property name="kdenlive:original.meta.media.0.codec.width">3840</property>
  <property name="kdenlive:original.meta.media.0.codec.height">2160</property>
  <property name="kdenlive:original.meta.media.0.codec.rotate">0</property>
  <property name="kdenlive:original.meta.media.0.codec.frame_rate">60</property>
  <property name="kdenlive:original.meta.media.0.codec.pix_fmt">yuv420p</property>
  <property name="kdenlive:original.meta.media.0.codec.sample_aspect_ratio">0</property>
  <property name="kdenlive:original.meta.media.0.codec.colorspace">709</property>
  <property name="kdenlive:original.meta.media.0.codec.name">h264</property>
  <property name="kdenlive:original.meta.media.0.codec.long_name">H.264 / AVC / MPEG-4 AVC / MPEG-4 part 10</property>
  <property name="kdenlive:original.meta.media.0.codec.bit_rate">430088</property>
  <property name="kdenlive:original.meta.attr.0.stream.handler_name.markup">VideoHandler</property>
  <property name="kdenlive:original.meta.attr.0.stream.vendor_id.markup">[0][0][0][0]</property>
  <property name="kdenlive:original.meta.attr.major_brand.markup">isom</property>
  <property name="kdenlive:original.meta.attr.minor_version.markup">512</property>
  <property name="kdenlive:original.meta.attr.compatible_brands.markup">isomiso2avc1mp41</property>
  <property name="kdenlive:original.meta.attr.encoder.markup">Lavf58.76.100</property>
  <property name="kdenlive:original.meta.attr.comment.markup">Rendered with Manim Community v0.6.0</property>
  <property name="kdenlive:original.seekable">1</property>
  <property name="kdenlive:original.width">3840</property>
  <property name="kdenlive:original.height">2160</property>
  <property name="kdenlive:original.meta.media.sample_aspect_num">1</property>
  <property name="kdenlive:original.meta.media.sample_aspect_den">1</property>
  <property name="kdenlive:original.aspect_ratio">1</property>
  <property name="kdenlive:original.audio_index">-1</property>
  <property name="kdenlive:original.video_index">0</property>
  <property name="kdenlive:original.mute_on_pause">1</property>
  <property name="kdenlive:original.mlt_service">avformat</property>
  <property name="kdenlive:original.meta.media.frame_rate_num">60</property>
  <property name="kdenlive:original.meta.media.frame_rate_den">1</property>
  <property name="kdenlive:original.meta.media.colorspace">709</property>
  <property name="kdenlive:original.meta.media.color_trc">2</property>
  <property name="kdenlive:original.meta.media.width">3840</property>
  <property name="kdenlive:original.meta.media.height">2160</property>
  <property name="kdenlive:original.meta.media.color_range">mpeg</property>
  <property name="kdenlive:original.meta.media.top_field_first">0</property>
  <property name="kdenlive:original.meta.media.progressive">1</property>
  <property name="kdenlive:original.backup">1</property>
  <property name="xml">was here</property>
  <property name="meta.media.nb_streams">1</property>
  <property name="meta.media.0.stream.type">video</property>
  <property name="meta.media.0.stream.frame_rate">60</property>
  <property name="meta.media.0.stream.sample_aspect_ratio">0</property>
  <property name="meta.media.0.codec.width">640</property>
  <property name="meta.media.0.codec.height">360</property>
  <property name="meta.media.0.codec.rotate">0</property>
  <property name="meta.media.0.codec.frame_rate">60</property>
  <property name="meta.media.0.codec.pix_fmt">yuv420p</property>
  <property name="meta.media.0.codec.sample_aspect_ratio">0</property>
  <property name="meta.media.0.codec.colorspace">601</property>
  <property name="meta.media.0.codec.name">h264</property>
  <property name="meta.media.0.codec.long_name">H.264 / AVC / MPEG-4 AVC / MPEG-4 part 10</property>
  <property name="meta.media.0.codec.bit_rate">0</property>
  <property name="meta.attr.0.stream.HANDLER_NAME.markup">VideoHandler</property>
  <property name="meta.attr.0.stream.VENDOR_ID.markup">[0][0][0][0]</property>
  <property name="meta.attr.0.stream.ENCODER.markup">Lavc58.134.100 libx264</property>
  <property name="meta.attr.0.stream.DURATION.markup">00:00:01.000000000</property>
  <property name="meta.attr.COMMENT.markup">Rendered with Manim Community v0.6.0</property>
  <property name="meta.attr.MAJOR_BRAND.markup">isom</property>
  <property name="meta.attr.MINOR_VERSION.markup">512</property>
  <property name="meta.attr.COMPATIBLE_BRANDS.markup">isomiso2avc1mp41</property>
  <property name="meta.attr.ENCODER.markup">Lavf58.76.100</property>
  <property name="meta.media.sample_aspect_num">1</property>
  <property name="meta.media.sample_aspect_den">1</property>
  <property name="meta.media.frame_rate_num">60</property>
  <property name="meta.media.frame_rate_den">1</property>
  <property name="meta.media.colorspace">601</property>
  <property name="meta.media.color_trc">2</property>
  <property name="meta.media.width">640</property>
  <property name="meta.media.height">360</property>
  <property name="meta.media.color_range">mpeg</property>
  <property name="meta.media.top_field_first">0</property>
  <property name="meta.media.progressive">1</property>
  <property name="set.test_audio">1</property>
  <property name="set.test_image">0</property>
 </producer>
 <producer id="producer667" in="00:00:00.000" out="00:00:00.983">
  <property name="length">60</property>
  <property name="eof">pause</property>
  <property name="resource">/home/xiaoxiae/.cache/kdenlive/proxy/41153a8e6de7a5b1c87c720cd44daba1.mkv</property>
  <property name="audio_index">-1</property>
  <property name="video_index">0</property>
  <property name="mute_on_pause">0</property>
  <property name="mlt_service">avformat-novalidate</property>
  <property name="seekable">1</property>
  <property name="aspect_ratio">1</property>
  <property name="kdenlive:clipname">31.mp4</property>
  <property name="kdenlive:folderid">277</property>
  <property name="kdenlive:id">303</property>
  <property name="kdenlive:file_size">49972</property>
  <property name="kdenlive:file_hash">41153a8e6de7a5b1c87c720cd44daba1</property>
  <property name="kdenlive:proxy">/home/xiaoxiae/.cache/kdenlive/proxy/41153a8e6de7a5b1c87c720cd44daba1.mkv</property>
  <property name="kdenlive:originalurl">video/Observations/31.mp4</property>
  <property name="global_feed">1</property>
  <property name="kdenlive:original.mlt_type">producer</property>
  <property name="kdenlive:original.in">0</property>
  <property name="kdenlive:original.out">59</property>
  <property name="kdenlive:original.length">60</property>
  <property name="kdenlive:original.eof">pause</property>
  <property name="kdenlive:original.resource">video/Observations/31.mp4</property>
  <property name="kdenlive:original.meta.media.nb_streams">1</property>
  <property name="kdenlive:original.meta.media.0.stream.type">video</property>
  <property name="kdenlive:original.meta.media.0.stream.frame_rate">60</property>
  <property name="kdenlive:original.meta.media.0.stream.sample_aspect_ratio">0</property>
  <property name="kdenlive:original.meta.media.0.codec.width">3840</property>
  <property name="kdenlive:original.meta.media.0.codec.height">2160</property>
  <property name="kdenlive:original.meta.media.0.codec.rotate">0</property>
  <property name="kdenlive:original.meta.media.0.codec.frame_rate">60</property>
  <property name="kdenlive:original.meta.media.0.codec.pix_fmt">yuv420p</property>
  <property name="kdenlive:original.meta.media.0.codec.sample_aspect_ratio">0</property>
  <property name="kdenlive:original.meta.media.0.codec.colorspace">709</property>
  <property name="kdenlive:original.meta.media.0.codec.name">h264</property>
  <property name="kdenlive:original.meta.media.0.codec.long_name">H.264 / AVC / MPEG-4 AVC / MPEG-4 part 10</property>
  <property name="kdenlive:original.meta.media.0.codec.bit_rate">386728</property>
  <property name="kdenlive:original.meta.attr.0.stream.handler_name.markup">VideoHandler</property>
  <property name="kdenlive:original.meta.attr.0.stream.vendor_id.markup">[0][0][0][0]</property>
  <property name="kdenlive:original.meta.attr.major_brand.markup">isom</property>
  <property name="kdenlive:original.meta.attr.minor_version.markup">512</property>
  <property name="kdenlive:original.meta.attr.compatible_brands.markup">isomiso2avc1mp41</property>
  <property name="kdenlive:original.meta.attr.encoder.markup">Lavf58.76.100</property>
  <property name="kdenlive:original.meta.attr.comment.markup">Rendered with Manim Community v0.6.0</property>
  <property name="kdenlive:original.seekable">1</property>
  <property name="kdenlive:original.width">3840</property>
  <property name="kdenlive:original.height">2160</property>
  <property name="kdenlive:original.meta.media.sample_aspect_num">1</property>
  <property name="kdenlive:original.meta.media.sample_aspect_den">1</property>
  <property name="kdenlive:original.aspect_ratio">1</property>
  <property name="kdenlive:original.audio_index">-1</property>
  <property name="kdenlive:original.video_index">0</property>
  <property name="kdenlive:original.mute_on_pause">1</property>
  <property name="kdenlive:original.mlt_service">avformat</property>
  <property name="kdenlive:original.meta.media.frame_rate_num">60</property>
  <property name="kdenlive:original.meta.media.frame_rate_den">1</property>
  <property name="kdenlive:original.meta.media.colorspace">709</property>
  <property name="kdenlive:original.meta.media.color_trc">2</property>
  <property name="kdenlive:original.meta.media.width">3840</property>
  <property name="kdenlive:original.meta.media.height">2160</property>
  <property name="kdenlive:original.meta.media.color_range">mpeg</property>
  <property name="kdenlive:original.meta.media.top_field_first">0</property>
  <property name="kdenlive:original.meta.media.progressive">1</property>
  <property name="kdenlive:original.backup">1</property>
  <property name="xml">was here</property>
  <property name="meta.media.nb_streams">1</property>
  <property name="meta.media.0.stream.type">video</property>
  <property name="meta.media.0.stream.frame_rate">60</property>
  <property name="meta.media.0.stream.sample_aspect_ratio">0</property>
  <property name="meta.media.0.codec.width">640</property>
  <property name="meta.media.0.codec.height">360</property>
  <property name="meta.media.0.codec.rotate">0</property>
  <property name="meta.media.0.codec.frame_rate">60</property>
  <property name="meta.media.0.codec.pix_fmt">yuv420p</property>
  <property name="meta.media.0.codec.sample_aspect_ratio">0</property>
  <property name="meta.media.0.codec.colorspace">601</property>
  <property name="meta.media.0.codec.name">h264</property>
  <property name="meta.media.0.codec.long_name">H.264 / AVC / MPEG-4 AVC / MPEG-4 part 10</property>
  <property name="meta.media.0.codec.bit_rate">0</property>
  <property name="meta.attr.0.stream.HANDLER_NAME.markup">VideoHandler</property>
  <property name="meta.attr.0.stream.VENDOR_ID.markup">[0][0][0][0]</property>
  <property name="meta.attr.0.stream.ENCODER.markup">Lavc58.134.100 libx264</property>
  <property name="meta.attr.0.stream.DURATION.markup">00:00:01.000000000</property>
  <property name="meta.attr.COMMENT.markup">Rendered with Manim Community v0.6.0</property>
  <property name="meta.attr.MAJOR_BRAND.markup">isom</property>
  <property name="meta.attr.MINOR_VERSION.markup">512</property>
  <property name="meta.attr.COMPATIBLE_BRANDS.markup">isomiso2avc1mp41</property>
  <property name="meta.attr.ENCODER.markup">Lavf58.76.100</property>
  <property name="meta.media.sample_aspect_num">1</property>
  <property name="meta.media.sample_aspect_den">1</property>
  <property name="meta.media.frame_rate_num">60</property>
  <property name="meta.media.frame_rate_den">1</property>
  <property name="meta.media.colorspace">601</property>
  <property name="meta.media.color_trc">2</property>
  <property name="meta.media.width">640</property>
  <property name="meta.media.height">360</property>
  <property name="meta.media.color_range">mpeg</property>
  <property name="meta.media.top_field_first">0</property>
  <property name="meta.media.progressive">1</property>
  <property name="set.test_audio">1</property>
  <property name="set.test_image">0</property>
 </producer>
 <producer id="producer668" in="00:00:00.000" out="00:00:00.983">
  <property name="length">60</property>
  <property name="eof">pause</property>
  <property name="resource">/home/xiaoxiae/.cache/kdenlive/proxy/78503917825c1dc4c4d62a84188cdb3e.mkv</property>
  <property name="audio_index">-1</property>
  <property name="video_index">0</property>
  <property name="mute_on_pause">0</property>
  <property name="mlt_service">avformat-novalidate</property>
  <property name="seekable">1</property>
  <property name="aspect_ratio">1</property>
  <property name="kdenlive:clipname">32.mp4</property>
  <property name="kdenlive:folderid">277</property>
  <property name="kdenlive:id">305</property>
  <property name="kdenlive:file_size">52654</property>
  <property name="kdenlive:file_hash">78503917825c1dc4c4d62a84188cdb3e</property>
  <property name="kdenlive:proxy">/home/xiaoxiae/.cache/kdenlive/proxy/78503917825c1dc4c4d62a84188cdb3e.mkv</property>
  <property name="kdenlive:originalurl">video/Observations/32.mp4</property>
  <property name="global_feed">1</property>
  <property name="kdenlive:original.mlt_type">producer</property>
  <property name="kdenlive:original.in">0</property>
  <property name="kdenlive:original.out">59</property>
  <property name="kdenlive:original.length">60</property>
  <property name="kdenlive:original.eof">pause</property>
  <property name="kdenlive:original.resource">video/Observations/32.mp4</property>
  <property name="kdenlive:original.meta.media.nb_streams">1</property>
  <property name="kdenlive:original.meta.media.0.stream.type">video</property>
  <property name="kdenlive:original.meta.media.0.stream.frame_rate">60</property>
  <property name="kdenlive:original.meta.media.0.stream.sample_aspect_ratio">0</property>
  <property name="kdenlive:original.meta.media.0.codec.width">3840</property>
  <property name="kdenlive:original.meta.media.0.codec.height">2160</property>
  <property name="kdenlive:original.meta.media.0.codec.rotate">0</property>
  <property name="kdenlive:original.meta.media.0.codec.frame_rate">60</property>
  <property name="kdenlive:original.meta.media.0.codec.pix_fmt">yuv420p</property>
  <property name="kdenlive:original.meta.media.0.codec.sample_aspect_ratio">0</property>
  <property name="kdenlive:original.meta.media.0.codec.colorspace">709</property>
  <property name="kdenlive:original.meta.media.0.codec.name">h264</property>
  <property name="kdenlive:original.meta.media.0.codec.long_name">H.264 / AVC / MPEG-4 AVC / MPEG-4 part 10</property>
  <property name="kdenlive:original.meta.media.0.codec.bit_rate">408184</property>
  <property name="kdenlive:original.meta.attr.0.stream.handler_name.markup">VideoHandler</property>
  <property name="kdenlive:original.meta.attr.0.stream.vendor_id.markup">[0][0][0][0]</property>
  <property name="kdenlive:original.meta.attr.major_brand.markup">isom</property>
  <property name="kdenlive:original.meta.attr.minor_version.markup">512</property>
  <property name="kdenlive:original.meta.attr.compatible_brands.markup">isomiso2avc1mp41</property>
  <property name="kdenlive:original.meta.attr.encoder.markup">Lavf58.76.100</property>
  <property name="kdenlive:original.meta.attr.comment.markup">Rendered with Manim Community v0.6.0</property>
  <property name="kdenlive:original.seekable">1</property>
  <property name="kdenlive:original.width">3840</property>
  <property name="kdenlive:original.height">2160</property>
  <property name="kdenlive:original.meta.media.sample_aspect_num">1</property>
  <property name="kdenlive:original.meta.media.sample_aspect_den">1</property>
  <property name="kdenlive:original.aspect_ratio">1</property>
  <property name="kdenlive:original.audio_index">-1</property>
  <property name="kdenlive:original.video_index">0</property>
  <property name="kdenlive:original.mute_on_pause">1</property>
  <property name="kdenlive:original.mlt_service">avformat</property>
  <property name="kdenlive:original.meta.media.frame_rate_num">60</property>
  <property name="kdenlive:original.meta.media.frame_rate_den">1</property>
  <property name="kdenlive:original.meta.media.colorspace">709</property>
  <property name="kdenlive:original.meta.media.color_trc">2</property>
  <property name="kdenlive:original.meta.media.width">3840</property>
  <property name="kdenlive:original.meta.media.height">2160</property>
  <property name="kdenlive:original.meta.media.color_range">mpeg</property>
  <property name="kdenlive:original.meta.media.top_field_first">0</property>
  <property name="kdenlive:original.meta.media.progressive">1</property>
  <property name="kdenlive:original.backup">1</property>
  <property name="xml">was here</property>
  <property name="meta.media.nb_streams">1</property>
  <property name="meta.media.0.stream.type">video</property>
  <property name="meta.media.0.stream.frame_rate">60</property>
  <property name="meta.media.0.stream.sample_aspect_ratio">0</property>
  <property name="meta.media.0.codec.width">640</property>
  <property name="meta.media.0.codec.height">360</property>
  <property name="meta.media.0.codec.rotate">0</property>
  <property name="meta.media.0.codec.frame_rate">60</property>
  <property name="meta.media.0.codec.pix_fmt">yuv420p</property>
  <property name="meta.media.0.codec.sample_aspect_ratio">0</property>
  <property name="meta.media.0.codec.colorspace">601</property>
  <property name="meta.media.0.codec.name">h264</property>
  <property name="meta.media.0.codec.long_name">H.264 / AVC / MPEG-4 AVC / MPEG-4 part 10</property>
  <property name="meta.media.0.codec.bit_rate">0</property>
  <property name="meta.attr.0.stream.HANDLER_NAME.markup">VideoHandler</property>
  <property name="meta.attr.0.stream.VENDOR_ID.markup">[0][0][0][0]</property>
  <property name="meta.attr.0.stream.ENCODER.markup">Lavc58.134.100 libx264</property>
  <property name="meta.attr.0.stream.DURATION.markup">00:00:01.000000000</property>
  <property name="meta.attr.COMMENT.markup">Rendered with Manim Community v0.6.0</property>
  <property name="meta.attr.MAJOR_BRAND.markup">isom</property>
  <property name="meta.attr.MINOR_VERSION.markup">512</property>
  <property name="meta.attr.COMPATIBLE_BRANDS.markup">isomiso2avc1mp41</property>
  <property name="meta.attr.ENCODER.markup">Lavf58.76.100</property>
  <property name="meta.media.sample_aspect_num">1</property>
  <property name="meta.media.sample_aspect_den">1</property>
  <property name="meta.media.frame_rate_num">60</property>
  <property name="meta.media.frame_rate_den">1</property>
  <property name="meta.media.colorspace">601</property>
  <property name="meta.media.color_trc">2</property>
  <property name="meta.media.width">640</property>
  <property name="meta.media.height">360</property>
  <property name="meta.media.color_range">mpeg</property>
  <property name="meta.media.top_field_first">0</property>
  <property name="meta.media.progressive">1</property>
  <property name="set.test_audio">1</property>
  <property name="set.test_image">0</property>
 </producer>
 <producer id="producer669" in="00:00:00.000" out="00:00:00.983">
  <property name="length">60</property>
  <property name="eof">pause</property>
  <property name="resource">/home/xiaoxiae/.cache/kdenlive/proxy/77f090b43531c63e1984713803755320.mkv</property>
  <property name="audio_index">-1</property>
  <property name="video_index">0</property>
  <property name="mute_on_pause">0</property>
  <property name="mlt_service">avformat-novalidate</property>
  <property name="seekable">1</property>
  <property name="aspect_ratio">1</property>
  <property name="kdenlive:clipname">33.mp4</property>
  <property name="kdenlive:folderid">277</property>
  <property name="kdenlive:id">307</property>
  <property name="kdenlive:file_size">48032</property>
  <property name="kdenlive:file_hash">77f090b43531c63e1984713803755320</property>
  <property name="kdenlive:proxy">/home/xiaoxiae/.cache/kdenlive/proxy/77f090b43531c63e1984713803755320.mkv</property>
  <property name="kdenlive:originalurl">video/Observations/33.mp4</property>
  <property name="global_feed">1</property>
  <property name="kdenlive:original.mlt_type">producer</property>
  <property name="kdenlive:original.in">0</property>
  <property name="kdenlive:original.out">59</property>
  <property name="kdenlive:original.length">60</property>
  <property name="kdenlive:original.eof">pause</property>
  <property name="kdenlive:original.resource">video/Observations/33.mp4</property>
  <property name="kdenlive:original.meta.media.nb_streams">1</property>
  <property name="kdenlive:original.meta.media.0.stream.type">video</property>
  <property name="kdenlive:original.meta.media.0.stream.frame_rate">60</property>
  <property name="kdenlive:original.meta.media.0.stream.sample_aspect_ratio">0</property>
  <property name="kdenlive:original.meta.media.0.codec.width">3840</property>
  <property name="kdenlive:original.meta.media.0.codec.height">2160</property>
  <property name="kdenlive:original.meta.media.0.codec.rotate">0</property>
  <property name="kdenlive:original.meta.media.0.codec.frame_rate">60</property>
  <property name="kdenlive:original.meta.media.0.codec.pix_fmt">yuv420p</property>
  <property name="kdenlive:original.meta.media.0.codec.sample_aspect_ratio">0</property>
  <property name="kdenlive:original.meta.media.0.codec.colorspace">709</property>
  <property name="kdenlive:original.meta.media.0.codec.name">h264</property>
  <property name="kdenlive:original.meta.media.0.codec.long_name">H.264 / AVC / MPEG-4 AVC / MPEG-4 part 10</property>
  <property name="kdenlive:original.meta.media.0.codec.bit_rate">371208</property>
  <property name="kdenlive:original.meta.attr.0.stream.handler_name.markup">VideoHandler</property>
  <property name="kdenlive:original.meta.attr.0.stream.vendor_id.markup">[0][0][0][0]</property>
  <property name="kdenlive:original.meta.attr.major_brand.markup">isom</property>
  <property name="kdenlive:original.meta.attr.minor_version.markup">512</property>
  <property name="kdenlive:original.meta.attr.compatible_brands.markup">isomiso2avc1mp41</property>
  <property name="kdenlive:original.meta.attr.encoder.markup">Lavf58.76.100</property>
  <property name="kdenlive:original.meta.attr.comment.markup">Rendered with Manim Community v0.6.0</property>
  <property name="kdenlive:original.seekable">1</property>
  <property name="kdenlive:original.width">3840</property>
  <property name="kdenlive:original.height">2160</property>
  <property name="kdenlive:original.meta.media.sample_aspect_num">1</property>
  <property name="kdenlive:original.meta.media.sample_aspect_den">1</property>
  <property name="kdenlive:original.aspect_ratio">1</property>
  <property name="kdenlive:original.audio_index">-1</property>
  <property name="kdenlive:original.video_index">0</property>
  <property name="kdenlive:original.mute_on_pause">1</property>
  <property name="kdenlive:original.mlt_service">avformat</property>
  <property name="kdenlive:original.meta.media.frame_rate_num">60</property>
  <property name="kdenlive:original.meta.media.frame_rate_den">1</property>
  <property name="kdenlive:original.meta.media.colorspace">709</property>
  <property name="kdenlive:original.meta.media.color_trc">2</property>
  <property name="kdenlive:original.meta.media.width">3840</property>
  <property name="kdenlive:original.meta.media.height">2160</property>
  <property name="kdenlive:original.meta.media.color_range">mpeg</property>
  <property name="kdenlive:original.meta.media.top_field_first">0</property>
  <property name="kdenlive:original.meta.media.progressive">1</property>
  <property name="kdenlive:original.backup">1</property>
  <property name="xml">was here</property>
  <property name="meta.media.nb_streams">1</property>
  <property name="meta.media.0.stream.type">video</property>
  <property name="meta.media.0.stream.frame_rate">60</property>
  <property name="meta.media.0.stream.sample_aspect_ratio">0</property>
  <property name="meta.media.0.codec.width">640</property>
  <property name="meta.media.0.codec.height">360</property>
  <property name="meta.media.0.codec.rotate">0</property>
  <property name="meta.media.0.codec.frame_rate">60</property>
  <property name="meta.media.0.codec.pix_fmt">yuv420p</property>
  <property name="meta.media.0.codec.sample_aspect_ratio">0</property>
  <property name="meta.media.0.codec.colorspace">601</property>
  <property name="meta.media.0.codec.name">h264</property>
  <property name="meta.media.0.codec.long_name">H.264 / AVC / MPEG-4 AVC / MPEG-4 part 10</property>
  <property name="meta.media.0.codec.bit_rate">0</property>
  <property name="meta.attr.0.stream.HANDLER_NAME.markup">VideoHandler</property>
  <property name="meta.attr.0.stream.VENDOR_ID.markup">[0][0][0][0]</property>
  <property name="meta.attr.0.stream.ENCODER.markup">Lavc58.134.100 libx264</property>
  <property name="meta.attr.0.stream.DURATION.markup">00:00:01.000000000</property>
  <property name="meta.attr.COMMENT.markup">Rendered with Manim Community v0.6.0</property>
  <property name="meta.attr.MAJOR_BRAND.markup">isom</property>
  <property name="meta.attr.MINOR_VERSION.markup">512</property>
  <property name="meta.attr.COMPATIBLE_BRANDS.markup">isomiso2avc1mp41</property>
  <property name="meta.attr.ENCODER.markup">Lavf58.76.100</property>
  <property name="meta.media.sample_aspect_num">1</property>
  <property name="meta.media.sample_aspect_den">1</property>
  <property name="meta.media.frame_rate_num">60</property>
  <property name="meta.media.frame_rate_den">1</property>
  <property name="meta.media.colorspace">601</property>
  <property name="meta.media.color_trc">2</property>
  <property name="meta.media.width">640</property>
  <property name="meta.media.height">360</property>
  <property name="meta.media.color_range">mpeg</property>
  <property name="meta.media.top_field_first">0</property>
  <property name="meta.media.progressive">1</property>
  <property name="set.test_audio">1</property>
  <property name="set.test_image">0</property>
 </producer>
 <producer id="producer670" in="00:00:00.000" out="00:00:00.983">
  <property name="length">60</property>
  <property name="eof">pause</property>
  <property name="resource">/home/xiaoxiae/.cache/kdenlive/proxy/08f54c4a67adc8da76869794951057c2.mkv</property>
  <property name="audio_index">-1</property>
  <property name="video_index">0</property>
  <property name="mute_on_pause">0</property>
  <property name="mlt_service">avformat-novalidate</property>
  <property name="seekable">1</property>
  <property name="aspect_ratio">1</property>
  <property name="kdenlive:clipname">34.mp4</property>
  <property name="kdenlive:folderid">277</property>
  <property name="kdenlive:id">309</property>
  <property name="kdenlive:file_size">61867</property>
  <property name="kdenlive:file_hash">08f54c4a67adc8da76869794951057c2</property>
  <property name="kdenlive:proxy">/home/xiaoxiae/.cache/kdenlive/proxy/08f54c4a67adc8da76869794951057c2.mkv</property>
  <property name="kdenlive:originalurl">video/Observations/34.mp4</property>
  <property name="global_feed">1</property>
  <property name="kdenlive:original.mlt_type">producer</property>
  <property name="kdenlive:original.in">0</property>
  <property name="kdenlive:original.out">59</property>
  <property name="kdenlive:original.length">60</property>
  <property name="kdenlive:original.eof">pause</property>
  <property name="kdenlive:original.resource">video/Observations/34.mp4</property>
  <property name="kdenlive:original.meta.media.nb_streams">1</property>
  <property name="kdenlive:original.meta.media.0.stream.type">video</property>
  <property name="kdenlive:original.meta.media.0.stream.frame_rate">60</property>
  <property name="kdenlive:original.meta.media.0.stream.sample_aspect_ratio">0</property>
  <property name="kdenlive:original.meta.media.0.codec.width">3840</property>
  <property name="kdenlive:original.meta.media.0.codec.height">2160</property>
  <property name="kdenlive:original.meta.media.0.codec.rotate">0</property>
  <property name="kdenlive:original.meta.media.0.codec.frame_rate">60</property>
  <property name="kdenlive:original.meta.media.0.codec.pix_fmt">yuv420p</property>
  <property name="kdenlive:original.meta.media.0.codec.sample_aspect_ratio">0</property>
  <property name="kdenlive:original.meta.media.0.codec.colorspace">709</property>
  <property name="kdenlive:original.meta.media.0.codec.name">h264</property>
  <property name="kdenlive:original.meta.media.0.codec.long_name">H.264 / AVC / MPEG-4 AVC / MPEG-4 part 10</property>
  <property name="kdenlive:original.meta.media.0.codec.bit_rate">481888</property>
  <property name="kdenlive:original.meta.attr.0.stream.handler_name.markup">VideoHandler</property>
  <property name="kdenlive:original.meta.attr.0.stream.vendor_id.markup">[0][0][0][0]</property>
  <property name="kdenlive:original.meta.attr.major_brand.markup">isom</property>
  <property name="kdenlive:original.meta.attr.minor_version.markup">512</property>
  <property name="kdenlive:original.meta.attr.compatible_brands.markup">isomiso2avc1mp41</property>
  <property name="kdenlive:original.meta.attr.encoder.markup">Lavf58.76.100</property>
  <property name="kdenlive:original.meta.attr.comment.markup">Rendered with Manim Community v0.6.0</property>
  <property name="kdenlive:original.seekable">1</property>
  <property name="kdenlive:original.width">3840</property>
  <property name="kdenlive:original.height">2160</property>
  <property name="kdenlive:original.meta.media.sample_aspect_num">1</property>
  <property name="kdenlive:original.meta.media.sample_aspect_den">1</property>
  <property name="kdenlive:original.aspect_ratio">1</property>
  <property name="kdenlive:original.audio_index">-1</property>
  <property name="kdenlive:original.video_index">0</property>
  <property name="kdenlive:original.mute_on_pause">1</property>
  <property name="kdenlive:original.mlt_service">avformat</property>
  <property name="kdenlive:original.meta.media.frame_rate_num">60</property>
  <property name="kdenlive:original.meta.media.frame_rate_den">1</property>
  <property name="kdenlive:original.meta.media.colorspace">709</property>
  <property name="kdenlive:original.meta.media.color_trc">2</property>
  <property name="kdenlive:original.meta.media.width">3840</property>
  <property name="kdenlive:original.meta.media.height">2160</property>
  <property name="kdenlive:original.meta.media.color_range">mpeg</property>
  <property name="kdenlive:original.meta.media.top_field_first">0</property>
  <property name="kdenlive:original.meta.media.progressive">1</property>
  <property name="kdenlive:original.backup">1</property>
  <property name="xml">was here</property>
  <property name="meta.media.nb_streams">1</property>
  <property name="meta.media.0.stream.type">video</property>
  <property name="meta.media.0.stream.frame_rate">60</property>
  <property name="meta.media.0.stream.sample_aspect_ratio">0</property>
  <property name="meta.media.0.codec.width">640</property>
  <property name="meta.media.0.codec.height">360</property>
  <property name="meta.media.0.codec.rotate">0</property>
  <property name="meta.media.0.codec.frame_rate">60</property>
  <property name="meta.media.0.codec.pix_fmt">yuv420p</property>
  <property name="meta.media.0.codec.sample_aspect_ratio">0</property>
  <property name="meta.media.0.codec.colorspace">601</property>
  <property name="meta.media.0.codec.name">h264</property>
  <property name="meta.media.0.codec.long_name">H.264 / AVC / MPEG-4 AVC / MPEG-4 part 10</property>
  <property name="meta.media.0.codec.bit_rate">0</property>
  <property name="meta.attr.0.stream.HANDLER_NAME.markup">VideoHandler</property>
  <property name="meta.attr.0.stream.VENDOR_ID.markup">[0][0][0][0]</property>
  <property name="meta.attr.0.stream.ENCODER.markup">Lavc58.134.100 libx264</property>
  <property name="meta.attr.0.stream.DURATION.markup">00:00:01.000000000</property>
  <property name="meta.attr.COMMENT.markup">Rendered with Manim Community v0.6.0</property>
  <property name="meta.attr.MAJOR_BRAND.markup">isom</property>
  <property name="meta.attr.MINOR_VERSION.markup">512</property>
  <property name="meta.attr.COMPATIBLE_BRANDS.markup">isomiso2avc1mp41</property>
  <property name="meta.attr.ENCODER.markup">Lavf58.76.100</property>
  <property name="meta.media.sample_aspect_num">1</property>
  <property name="meta.media.sample_aspect_den">1</property>
  <property name="meta.media.frame_rate_num">60</property>
  <property name="meta.media.frame_rate_den">1</property>
  <property name="meta.media.colorspace">601</property>
  <property name="meta.media.color_trc">2</property>
  <property name="meta.media.width">640</property>
  <property name="meta.media.height">360</property>
  <property name="meta.media.color_range">mpeg</property>
  <property name="meta.media.top_field_first">0</property>
  <property name="meta.media.progressive">1</property>
  <property name="set.test_audio">1</property>
  <property name="set.test_image">0</property>
 </producer>
 <producer id="producer671" in="00:00:00.000" out="00:00:00.983">
  <property name="length">60</property>
  <property name="eof">pause</property>
  <property name="resource">/home/xiaoxiae/.cache/kdenlive/proxy/8c24b94e35b11d981e7a1558f10148f8.mkv</property>
  <property name="audio_index">-1</property>
  <property name="video_index">0</property>
  <property name="mute_on_pause">0</property>
  <property name="mlt_service">avformat-novalidate</property>
  <property name="seekable">1</property>
  <property name="aspect_ratio">1</property>
  <property name="kdenlive:clipname">35.mp4</property>
  <property name="kdenlive:folderid">277</property>
  <property name="kdenlive:id">311</property>
  <property name="kdenlive:file_size">74196</property>
  <property name="kdenlive:file_hash">8c24b94e35b11d981e7a1558f10148f8</property>
  <property name="kdenlive:proxy">/home/xiaoxiae/.cache/kdenlive/proxy/8c24b94e35b11d981e7a1558f10148f8.mkv</property>
  <property name="kdenlive:originalurl">video/Observations/35.mp4</property>
  <property name="global_feed">1</property>
  <property name="kdenlive:original.mlt_type">producer</property>
  <property name="kdenlive:original.in">0</property>
  <property name="kdenlive:original.out">59</property>
  <property name="kdenlive:original.length">60</property>
  <property name="kdenlive:original.eof">pause</property>
  <property name="kdenlive:original.resource">video/Observations/35.mp4</property>
  <property name="kdenlive:original.meta.media.nb_streams">1</property>
  <property name="kdenlive:original.meta.media.0.stream.type">video</property>
  <property name="kdenlive:original.meta.media.0.stream.frame_rate">60</property>
  <property name="kdenlive:original.meta.media.0.stream.sample_aspect_ratio">0</property>
  <property name="kdenlive:original.meta.media.0.codec.width">3840</property>
  <property name="kdenlive:original.meta.media.0.codec.height">2160</property>
  <property name="kdenlive:original.meta.media.0.codec.rotate">0</property>
  <property name="kdenlive:original.meta.media.0.codec.frame_rate">60</property>
  <property name="kdenlive:original.meta.media.0.codec.pix_fmt">yuv420p</property>
  <property name="kdenlive:original.meta.media.0.codec.sample_aspect_ratio">0</property>
  <property name="kdenlive:original.meta.media.0.codec.colorspace">709</property>
  <property name="kdenlive:original.meta.media.0.codec.name">h264</property>
  <property name="kdenlive:original.meta.media.0.codec.long_name">H.264 / AVC / MPEG-4 AVC / MPEG-4 part 10</property>
  <property name="kdenlive:original.meta.media.0.codec.bit_rate">580520</property>
  <property name="kdenlive:original.meta.attr.0.stream.handler_name.markup">VideoHandler</property>
  <property name="kdenlive:original.meta.attr.0.stream.vendor_id.markup">[0][0][0][0]</property>
  <property name="kdenlive:original.meta.attr.major_brand.markup">isom</property>
  <property name="kdenlive:original.meta.attr.minor_version.markup">512</property>
  <property name="kdenlive:original.meta.attr.compatible_brands.markup">isomiso2avc1mp41</property>
  <property name="kdenlive:original.meta.attr.encoder.markup">Lavf58.76.100</property>
  <property name="kdenlive:original.meta.attr.comment.markup">Rendered with Manim Community v0.6.0</property>
  <property name="kdenlive:original.seekable">1</property>
  <property name="kdenlive:original.width">3840</property>
  <property name="kdenlive:original.height">2160</property>
  <property name="kdenlive:original.meta.media.sample_aspect_num">1</property>
  <property name="kdenlive:original.meta.media.sample_aspect_den">1</property>
  <property name="kdenlive:original.aspect_ratio">1</property>
  <property name="kdenlive:original.audio_index">-1</property>
  <property name="kdenlive:original.video_index">0</property>
  <property name="kdenlive:original.mute_on_pause">1</property>
  <property name="kdenlive:original.mlt_service">avformat</property>
  <property name="kdenlive:original.meta.media.frame_rate_num">60</property>
  <property name="kdenlive:original.meta.media.frame_rate_den">1</property>
  <property name="kdenlive:original.meta.media.colorspace">709</property>
  <property name="kdenlive:original.meta.media.color_trc">2</property>
  <property name="kdenlive:original.meta.media.width">3840</property>
  <property name="kdenlive:original.meta.media.height">2160</property>
  <property name="kdenlive:original.meta.media.color_range">mpeg</property>
  <property name="kdenlive:original.meta.media.top_field_first">0</property>
  <property name="kdenlive:original.meta.media.progressive">1</property>
  <property name="kdenlive:original.backup">1</property>
  <property name="xml">was here</property>
  <property name="meta.media.nb_streams">1</property>
  <property name="meta.media.0.stream.type">video</property>
  <property name="meta.media.0.stream.frame_rate">60</property>
  <property name="meta.media.0.stream.sample_aspect_ratio">0</property>
  <property name="meta.media.0.codec.width">640</property>
  <property name="meta.media.0.codec.height">360</property>
  <property name="meta.media.0.codec.rotate">0</property>
  <property name="meta.media.0.codec.frame_rate">60</property>
  <property name="meta.media.0.codec.pix_fmt">yuv420p</property>
  <property name="meta.media.0.codec.sample_aspect_ratio">0</property>
  <property name="meta.media.0.codec.colorspace">601</property>
  <property name="meta.media.0.codec.name">h264</property>
  <property name="meta.media.0.codec.long_name">H.264 / AVC / MPEG-4 AVC / MPEG-4 part 10</property>
  <property name="meta.media.0.codec.bit_rate">0</property>
  <property name="meta.attr.0.stream.HANDLER_NAME.markup">VideoHandler</property>
  <property name="meta.attr.0.stream.VENDOR_ID.markup">[0][0][0][0]</property>
  <property name="meta.attr.0.stream.ENCODER.markup">Lavc58.134.100 libx264</property>
  <property name="meta.attr.0.stream.DURATION.markup">00:00:01.000000000</property>
  <property name="meta.attr.COMMENT.markup">Rendered with Manim Community v0.6.0</property>
  <property name="meta.attr.MAJOR_BRAND.markup">isom</property>
  <property name="meta.attr.MINOR_VERSION.markup">512</property>
  <property name="meta.attr.COMPATIBLE_BRANDS.markup">isomiso2avc1mp41</property>
  <property name="meta.attr.ENCODER.markup">Lavf58.76.100</property>
  <property name="meta.media.sample_aspect_num">1</property>
  <property name="meta.media.sample_aspect_den">1</property>
  <property name="meta.media.frame_rate_num">60</property>
  <property name="meta.media.frame_rate_den">1</property>
  <property name="meta.media.colorspace">601</property>
  <property name="meta.media.color_trc">2</property>
  <property name="meta.media.width">640</property>
  <property name="meta.media.height">360</property>
  <property name="meta.media.color_range">mpeg</property>
  <property name="meta.media.top_field_first">0</property>
  <property name="meta.media.progressive">1</property>
  <property name="set.test_audio">1</property>
  <property name="set.test_image">0</property>
 </producer>
 <producer id="producer672" in="00:00:00.000" out="00:00:00.983">
  <property name="length">60</property>
  <property name="eof">pause</property>
  <property name="resource">/home/xiaoxiae/.cache/kdenlive/proxy/916f93138867f7b4b2789c121f95b3b1.mkv</property>
  <property name="audio_index">-1</property>
  <property name="video_index">0</property>
  <property name="mute_on_pause">0</property>
  <property name="mlt_service">avformat-novalidate</property>
  <property name="seekable">1</property>
  <property name="aspect_ratio">1</property>
  <property name="kdenlive:clipname">36.mp4</property>
  <property name="kdenlive:folderid">277</property>
  <property name="kdenlive:id">313</property>
  <property name="kdenlive:file_size">66326</property>
  <property name="kdenlive:file_hash">916f93138867f7b4b2789c121f95b3b1</property>
  <property name="kdenlive:proxy">/home/xiaoxiae/.cache/kdenlive/proxy/916f93138867f7b4b2789c121f95b3b1.mkv</property>
  <property name="kdenlive:originalurl">video/Observations/36.mp4</property>
  <property name="global_feed">1</property>
  <property name="kdenlive:original.mlt_type">producer</property>
  <property name="kdenlive:original.in">0</property>
  <property name="kdenlive:original.out">59</property>
  <property name="kdenlive:original.length">60</property>
  <property name="kdenlive:original.eof">pause</property>
  <property name="kdenlive:original.resource">video/Observations/36.mp4</property>
  <property name="kdenlive:original.meta.media.nb_streams">1</property>
  <property name="kdenlive:original.meta.media.0.stream.type">video</property>
  <property name="kdenlive:original.meta.media.0.stream.frame_rate">60</property>
  <property name="kdenlive:original.meta.media.0.stream.sample_aspect_ratio">0</property>
  <property name="kdenlive:original.meta.media.0.codec.width">3840</property>
  <property name="kdenlive:original.meta.media.0.codec.height">2160</property>
  <property name="kdenlive:original.meta.media.0.codec.rotate">0</property>
  <property name="kdenlive:original.meta.media.0.codec.frame_rate">60</property>
  <property name="kdenlive:original.meta.media.0.codec.pix_fmt">yuv420p</property>
  <property name="kdenlive:original.meta.media.0.codec.sample_aspect_ratio">0</property>
  <property name="kdenlive:original.meta.media.0.codec.colorspace">709</property>
  <property name="kdenlive:original.meta.media.0.codec.name">h264</property>
  <property name="kdenlive:original.meta.media.0.codec.long_name">H.264 / AVC / MPEG-4 AVC / MPEG-4 part 10</property>
  <property name="kdenlive:original.meta.media.0.codec.bit_rate">517560</property>
  <property name="kdenlive:original.meta.attr.0.stream.handler_name.markup">VideoHandler</property>
  <property name="kdenlive:original.meta.attr.0.stream.vendor_id.markup">[0][0][0][0]</property>
  <property name="kdenlive:original.meta.attr.major_brand.markup">isom</property>
  <property name="kdenlive:original.meta.attr.minor_version.markup">512</property>
  <property name="kdenlive:original.meta.attr.compatible_brands.markup">isomiso2avc1mp41</property>
  <property name="kdenlive:original.meta.attr.encoder.markup">Lavf58.76.100</property>
  <property name="kdenlive:original.meta.attr.comment.markup">Rendered with Manim Community v0.6.0</property>
  <property name="kdenlive:original.seekable">1</property>
  <property name="kdenlive:original.width">3840</property>
  <property name="kdenlive:original.height">2160</property>
  <property name="kdenlive:original.meta.media.sample_aspect_num">1</property>
  <property name="kdenlive:original.meta.media.sample_aspect_den">1</property>
  <property name="kdenlive:original.aspect_ratio">1</property>
  <property name="kdenlive:original.audio_index">-1</property>
  <property name="kdenlive:original.video_index">0</property>
  <property name="kdenlive:original.mute_on_pause">1</property>
  <property name="kdenlive:original.mlt_service">avformat</property>
  <property name="kdenlive:original.meta.media.frame_rate_num">60</property>
  <property name="kdenlive:original.meta.media.frame_rate_den">1</property>
  <property name="kdenlive:original.meta.media.colorspace">709</property>
  <property name="kdenlive:original.meta.media.color_trc">2</property>
  <property name="kdenlive:original.meta.media.width">3840</property>
  <property name="kdenlive:original.meta.media.height">2160</property>
  <property name="kdenlive:original.meta.media.color_range">mpeg</property>
  <property name="kdenlive:original.meta.media.top_field_first">0</property>
  <property name="kdenlive:original.meta.media.progressive">1</property>
  <property name="kdenlive:original.backup">1</property>
  <property name="xml">was here</property>
  <property name="meta.media.nb_streams">1</property>
  <property name="meta.media.0.stream.type">video</property>
  <property name="meta.media.0.stream.frame_rate">60</property>
  <property name="meta.media.0.stream.sample_aspect_ratio">0</property>
  <property name="meta.media.0.codec.width">640</property>
  <property name="meta.media.0.codec.height">360</property>
  <property name="meta.media.0.codec.rotate">0</property>
  <property name="meta.media.0.codec.frame_rate">60</property>
  <property name="meta.media.0.codec.pix_fmt">yuv420p</property>
  <property name="meta.media.0.codec.sample_aspect_ratio">0</property>
  <property name="meta.media.0.codec.colorspace">601</property>
  <property name="meta.media.0.codec.name">h264</property>
  <property name="meta.media.0.codec.long_name">H.264 / AVC / MPEG-4 AVC / MPEG-4 part 10</property>
  <property name="meta.media.0.codec.bit_rate">0</property>
  <property name="meta.attr.0.stream.HANDLER_NAME.markup">VideoHandler</property>
  <property name="meta.attr.0.stream.VENDOR_ID.markup">[0][0][0][0]</property>
  <property name="meta.attr.0.stream.ENCODER.markup">Lavc58.134.100 libx264</property>
  <property name="meta.attr.0.stream.DURATION.markup">00:00:01.000000000</property>
  <property name="meta.attr.COMMENT.markup">Rendered with Manim Community v0.6.0</property>
  <property name="meta.attr.MAJOR_BRAND.markup">isom</property>
  <property name="meta.attr.MINOR_VERSION.markup">512</property>
  <property name="meta.attr.COMPATIBLE_BRANDS.markup">isomiso2avc1mp41</property>
  <property name="meta.attr.ENCODER.markup">Lavf58.76.100</property>
  <property name="meta.media.sample_aspect_num">1</property>
  <property name="meta.media.sample_aspect_den">1</property>
  <property name="meta.media.frame_rate_num">60</property>
  <property name="meta.media.frame_rate_den">1</property>
  <property name="meta.media.colorspace">601</property>
  <property name="meta.media.color_trc">2</property>
  <property name="meta.media.width">640</property>
  <property name="meta.media.height">360</property>
  <property name="meta.media.color_range">mpeg</property>
  <property name="meta.media.top_field_first">0</property>
  <property name="meta.media.progressive">1</property>
  <property name="set.test_audio">1</property>
  <property name="set.test_image">0</property>
 </producer>
 <producer id="producer673" in="00:00:00.000" out="00:00:00.983">
  <property name="length">60</property>
  <property name="eof">pause</property>
  <property name="resource">/home/xiaoxiae/.cache/kdenlive/proxy/5261f743a2f9c688e4c6aea0b1e2fb20.mkv</property>
  <property name="audio_index">-1</property>
  <property name="video_index">0</property>
  <property name="mute_on_pause">0</property>
  <property name="mlt_service">avformat-novalidate</property>
  <property name="seekable">1</property>
  <property name="aspect_ratio">1</property>
  <property name="kdenlive:clipname">37.mp4</property>
  <property name="kdenlive:folderid">277</property>
  <property name="kdenlive:id">315</property>
  <property name="kdenlive:file_size">83632</property>
  <property name="kdenlive:file_hash">5261f743a2f9c688e4c6aea0b1e2fb20</property>
  <property name="kdenlive:proxy">/home/xiaoxiae/.cache/kdenlive/proxy/5261f743a2f9c688e4c6aea0b1e2fb20.mkv</property>
  <property name="kdenlive:originalurl">video/Observations/37.mp4</property>
  <property name="global_feed">1</property>
  <property name="kdenlive:original.mlt_type">producer</property>
  <property name="kdenlive:original.in">0</property>
  <property name="kdenlive:original.out">59</property>
  <property name="kdenlive:original.length">60</property>
  <property name="kdenlive:original.eof">pause</property>
  <property name="kdenlive:original.resource">video/Observations/37.mp4</property>
  <property name="kdenlive:original.meta.media.nb_streams">1</property>
  <property name="kdenlive:original.meta.media.0.stream.type">video</property>
  <property name="kdenlive:original.meta.media.0.stream.frame_rate">60</property>
  <property name="kdenlive:original.meta.media.0.stream.sample_aspect_ratio">0</property>
  <property name="kdenlive:original.meta.media.0.codec.width">3840</property>
  <property name="kdenlive:original.meta.media.0.codec.height">2160</property>
  <property name="kdenlive:original.meta.media.0.codec.rotate">0</property>
  <property name="kdenlive:original.meta.media.0.codec.frame_rate">60</property>
  <property name="kdenlive:original.meta.media.0.codec.pix_fmt">yuv420p</property>
  <property name="kdenlive:original.meta.media.0.codec.sample_aspect_ratio">0</property>
  <property name="kdenlive:original.meta.media.0.codec.colorspace">709</property>
  <property name="kdenlive:original.meta.media.0.codec.name">h264</property>
  <property name="kdenlive:original.meta.media.0.codec.long_name">H.264 / AVC / MPEG-4 AVC / MPEG-4 part 10</property>
  <property name="kdenlive:original.meta.media.0.codec.bit_rate">656008</property>
  <property name="kdenlive:original.meta.attr.0.stream.handler_name.markup">VideoHandler</property>
  <property name="kdenlive:original.meta.attr.0.stream.vendor_id.markup">[0][0][0][0]</property>
  <property name="kdenlive:original.meta.attr.major_brand.markup">isom</property>
  <property name="kdenlive:original.meta.attr.minor_version.markup">512</property>
  <property name="kdenlive:original.meta.attr.compatible_brands.markup">isomiso2avc1mp41</property>
  <property name="kdenlive:original.meta.attr.encoder.markup">Lavf58.76.100</property>
  <property name="kdenlive:original.meta.attr.comment.markup">Rendered with Manim Community v0.6.0</property>
  <property name="kdenlive:original.seekable">1</property>
  <property name="kdenlive:original.width">3840</property>
  <property name="kdenlive:original.height">2160</property>
  <property name="kdenlive:original.meta.media.sample_aspect_num">1</property>
  <property name="kdenlive:original.meta.media.sample_aspect_den">1</property>
  <property name="kdenlive:original.aspect_ratio">1</property>
  <property name="kdenlive:original.audio_index">-1</property>
  <property name="kdenlive:original.video_index">0</property>
  <property name="kdenlive:original.mute_on_pause">1</property>
  <property name="kdenlive:original.mlt_service">avformat</property>
  <property name="kdenlive:original.meta.media.frame_rate_num">60</property>
  <property name="kdenlive:original.meta.media.frame_rate_den">1</property>
  <property name="kdenlive:original.meta.media.colorspace">709</property>
  <property name="kdenlive:original.meta.media.color_trc">2</property>
  <property name="kdenlive:original.meta.media.width">3840</property>
  <property name="kdenlive:original.meta.media.height">2160</property>
  <property name="kdenlive:original.meta.media.color_range">mpeg</property>
  <property name="kdenlive:original.meta.media.top_field_first">0</property>
  <property name="kdenlive:original.meta.media.progressive">1</property>
  <property name="kdenlive:original.backup">1</property>
  <property name="xml">was here</property>
  <property name="meta.media.nb_streams">1</property>
  <property name="meta.media.0.stream.type">video</property>
  <property name="meta.media.0.stream.frame_rate">60</property>
  <property name="meta.media.0.stream.sample_aspect_ratio">0</property>
  <property name="meta.media.0.codec.width">640</property>
  <property name="meta.media.0.codec.height">360</property>
  <property name="meta.media.0.codec.rotate">0</property>
  <property name="meta.media.0.codec.frame_rate">60</property>
  <property name="meta.media.0.codec.pix_fmt">yuv420p</property>
  <property name="meta.media.0.codec.sample_aspect_ratio">0</property>
  <property name="meta.media.0.codec.colorspace">601</property>
  <property name="meta.media.0.codec.name">h264</property>
  <property name="meta.media.0.codec.long_name">H.264 / AVC / MPEG-4 AVC / MPEG-4 part 10</property>
  <property name="meta.media.0.codec.bit_rate">0</property>
  <property name="meta.attr.0.stream.HANDLER_NAME.markup">VideoHandler</property>
  <property name="meta.attr.0.stream.VENDOR_ID.markup">[0][0][0][0]</property>
  <property name="meta.attr.0.stream.ENCODER.markup">Lavc58.134.100 libx264</property>
  <property name="meta.attr.0.stream.DURATION.markup">00:00:01.000000000</property>
  <property name="meta.attr.COMMENT.markup">Rendered with Manim Community v0.6.0</property>
  <property name="meta.attr.MAJOR_BRAND.markup">isom</property>
  <property name="meta.attr.MINOR_VERSION.markup">512</property>
  <property name="meta.attr.COMPATIBLE_BRANDS.markup">isomiso2avc1mp41</property>
  <property name="meta.attr.ENCODER.markup">Lavf58.76.100</property>
  <property name="meta.media.sample_aspect_num">1</property>
  <property name="meta.media.sample_aspect_den">1</property>
  <property name="meta.media.frame_rate_num">60</property>
  <property name="meta.media.frame_rate_den">1</property>
  <property name="meta.media.colorspace">601</property>
  <property name="meta.media.color_trc">2</property>
  <property name="meta.media.width">640</property>
  <property name="meta.media.height">360</property>
  <property name="meta.media.color_range">mpeg</property>
  <property name="meta.media.top_field_first">0</property>
  <property name="meta.media.progressive">1</property>
  <property name="set.test_audio">1</property>
  <property name="set.test_image">0</property>
 </producer>
 <producer id="producer674" in="00:00:00.000" out="00:00:00.983">
  <property name="length">60</property>
  <property name="eof">pause</property>
  <property name="resource">/home/xiaoxiae/.cache/kdenlive/proxy/34dd0dcaa85fbbce90db359c06e8da68.mkv</property>
  <property name="audio_index">-1</property>
  <property name="video_index">0</property>
  <property name="mute_on_pause">0</property>
  <property name="mlt_service">avformat-novalidate</property>
  <property name="seekable">1</property>
  <property name="aspect_ratio">1</property>
  <property name="kdenlive:clipname">38.mp4</property>
  <property name="kdenlive:folderid">277</property>
  <property name="kdenlive:id">317</property>
  <property name="kdenlive:file_size">85251</property>
  <property name="kdenlive:file_hash">34dd0dcaa85fbbce90db359c06e8da68</property>
  <property name="kdenlive:proxy">/home/xiaoxiae/.cache/kdenlive/proxy/34dd0dcaa85fbbce90db359c06e8da68.mkv</property>
  <property name="kdenlive:originalurl">video/Observations/38.mp4</property>
  <property name="global_feed">1</property>
  <property name="kdenlive:original.mlt_type">producer</property>
  <property name="kdenlive:original.in">0</property>
  <property name="kdenlive:original.out">59</property>
  <property name="kdenlive:original.length">60</property>
  <property name="kdenlive:original.eof">pause</property>
  <property name="kdenlive:original.resource">video/Observations/38.mp4</property>
  <property name="kdenlive:original.meta.media.nb_streams">1</property>
  <property name="kdenlive:original.meta.media.0.stream.type">video</property>
  <property name="kdenlive:original.meta.media.0.stream.frame_rate">60</property>
  <property name="kdenlive:original.meta.media.0.stream.sample_aspect_ratio">0</property>
  <property name="kdenlive:original.meta.media.0.codec.width">3840</property>
  <property name="kdenlive:original.meta.media.0.codec.height">2160</property>
  <property name="kdenlive:original.meta.media.0.codec.rotate">0</property>
  <property name="kdenlive:original.meta.media.0.codec.frame_rate">60</property>
  <property name="kdenlive:original.meta.media.0.codec.pix_fmt">yuv420p</property>
  <property name="kdenlive:original.meta.media.0.codec.sample_aspect_ratio">0</property>
  <property name="kdenlive:original.meta.media.0.codec.colorspace">709</property>
  <property name="kdenlive:original.meta.media.0.codec.name">h264</property>
  <property name="kdenlive:original.meta.media.0.codec.long_name">H.264 / AVC / MPEG-4 AVC / MPEG-4 part 10</property>
  <property name="kdenlive:original.meta.media.0.codec.bit_rate">668960</property>
  <property name="kdenlive:original.meta.attr.0.stream.handler_name.markup">VideoHandler</property>
  <property name="kdenlive:original.meta.attr.0.stream.vendor_id.markup">[0][0][0][0]</property>
  <property name="kdenlive:original.meta.attr.major_brand.markup">isom</property>
  <property name="kdenlive:original.meta.attr.minor_version.markup">512</property>
  <property name="kdenlive:original.meta.attr.compatible_brands.markup">isomiso2avc1mp41</property>
  <property name="kdenlive:original.meta.attr.encoder.markup">Lavf58.76.100</property>
  <property name="kdenlive:original.meta.attr.comment.markup">Rendered with Manim Community v0.6.0</property>
  <property name="kdenlive:original.seekable">1</property>
  <property name="kdenlive:original.width">3840</property>
  <property name="kdenlive:original.height">2160</property>
  <property name="kdenlive:original.meta.media.sample_aspect_num">1</property>
  <property name="kdenlive:original.meta.media.sample_aspect_den">1</property>
  <property name="kdenlive:original.aspect_ratio">1</property>
  <property name="kdenlive:original.audio_index">-1</property>
  <property name="kdenlive:original.video_index">0</property>
  <property name="kdenlive:original.mute_on_pause">1</property>
  <property name="kdenlive:original.mlt_service">avformat</property>
  <property name="kdenlive:original.meta.media.frame_rate_num">60</property>
  <property name="kdenlive:original.meta.media.frame_rate_den">1</property>
  <property name="kdenlive:original.meta.media.colorspace">709</property>
  <property name="kdenlive:original.meta.media.color_trc">2</property>
  <property name="kdenlive:original.meta.media.width">3840</property>
  <property name="kdenlive:original.meta.media.height">2160</property>
  <property name="kdenlive:original.meta.media.color_range">mpeg</property>
  <property name="kdenlive:original.meta.media.top_field_first">0</property>
  <property name="kdenlive:original.meta.media.progressive">1</property>
  <property name="kdenlive:original.backup">1</property>
  <property name="xml">was here</property>
  <property name="meta.media.nb_streams">1</property>
  <property name="meta.media.0.stream.type">video</property>
  <property name="meta.media.0.stream.frame_rate">60</property>
  <property name="meta.media.0.stream.sample_aspect_ratio">0</property>
  <property name="meta.media.0.codec.width">640</property>
  <property name="meta.media.0.codec.height">360</property>
  <property name="meta.media.0.codec.rotate">0</property>
  <property name="meta.media.0.codec.frame_rate">60</property>
  <property name="meta.media.0.codec.pix_fmt">yuv420p</property>
  <property name="meta.media.0.codec.sample_aspect_ratio">0</property>
  <property name="meta.media.0.codec.colorspace">601</property>
  <property name="meta.media.0.codec.name">h264</property>
  <property name="meta.media.0.codec.long_name">H.264 / AVC / MPEG-4 AVC / MPEG-4 part 10</property>
  <property name="meta.media.0.codec.bit_rate">0</property>
  <property name="meta.attr.0.stream.HANDLER_NAME.markup">VideoHandler</property>
  <property name="meta.attr.0.stream.VENDOR_ID.markup">[0][0][0][0]</property>
  <property name="meta.attr.0.stream.ENCODER.markup">Lavc58.134.100 libx264</property>
  <property name="meta.attr.0.stream.DURATION.markup">00:00:01.000000000</property>
  <property name="meta.attr.COMMENT.markup">Rendered with Manim Community v0.6.0</property>
  <property name="meta.attr.MAJOR_BRAND.markup">isom</property>
  <property name="meta.attr.MINOR_VERSION.markup">512</property>
  <property name="meta.attr.COMPATIBLE_BRANDS.markup">isomiso2avc1mp41</property>
  <property name="meta.attr.ENCODER.markup">Lavf58.76.100</property>
  <property name="meta.media.sample_aspect_num">1</property>
  <property name="meta.media.sample_aspect_den">1</property>
  <property name="meta.media.frame_rate_num">60</property>
  <property name="meta.media.frame_rate_den">1</property>
  <property name="meta.media.colorspace">601</property>
  <property name="meta.media.color_trc">2</property>
  <property name="meta.media.width">640</property>
  <property name="meta.media.height">360</property>
  <property name="meta.media.color_range">mpeg</property>
  <property name="meta.media.top_field_first">0</property>
  <property name="meta.media.progressive">1</property>
  <property name="set.test_audio">1</property>
  <property name="set.test_image">0</property>
 </producer>
 <producer id="producer675" in="00:00:00.000" out="00:00:00.983">
  <property name="length">60</property>
  <property name="eof">pause</property>
  <property name="resource">/home/xiaoxiae/.cache/kdenlive/proxy/8e8b268c57b3f16164334f2ab25c7ce8.mkv</property>
  <property name="audio_index">-1</property>
  <property name="video_index">0</property>
  <property name="mute_on_pause">0</property>
  <property name="mlt_service">avformat-novalidate</property>
  <property name="seekable">1</property>
  <property name="aspect_ratio">1</property>
  <property name="kdenlive:clipname">39.mp4</property>
  <property name="kdenlive:folderid">277</property>
  <property name="kdenlive:id">319</property>
  <property name="kdenlive:file_size">80407</property>
  <property name="kdenlive:file_hash">8e8b268c57b3f16164334f2ab25c7ce8</property>
  <property name="kdenlive:proxy">/home/xiaoxiae/.cache/kdenlive/proxy/8e8b268c57b3f16164334f2ab25c7ce8.mkv</property>
  <property name="kdenlive:originalurl">video/Observations/39.mp4</property>
  <property name="global_feed">1</property>
  <property name="kdenlive:original.mlt_type">producer</property>
  <property name="kdenlive:original.in">0</property>
  <property name="kdenlive:original.out">59</property>
  <property name="kdenlive:original.length">60</property>
  <property name="kdenlive:original.eof">pause</property>
  <property name="kdenlive:original.resource">video/Observations/39.mp4</property>
  <property name="kdenlive:original.meta.media.nb_streams">1</property>
  <property name="kdenlive:original.meta.media.0.stream.type">video</property>
  <property name="kdenlive:original.meta.media.0.stream.frame_rate">60</property>
  <property name="kdenlive:original.meta.media.0.stream.sample_aspect_ratio">0</property>
  <property name="kdenlive:original.meta.media.0.codec.width">3840</property>
  <property name="kdenlive:original.meta.media.0.codec.height">2160</property>
  <property name="kdenlive:original.meta.media.0.codec.rotate">0</property>
  <property name="kdenlive:original.meta.media.0.codec.frame_rate">60</property>
  <property name="kdenlive:original.meta.media.0.codec.pix_fmt">yuv420p</property>
  <property name="kdenlive:original.meta.media.0.codec.sample_aspect_ratio">0</property>
  <property name="kdenlive:original.meta.media.0.codec.colorspace">709</property>
  <property name="kdenlive:original.meta.media.0.codec.name">h264</property>
  <property name="kdenlive:original.meta.media.0.codec.long_name">H.264 / AVC / MPEG-4 AVC / MPEG-4 part 10</property>
  <property name="kdenlive:original.meta.media.0.codec.bit_rate">630208</property>
  <property name="kdenlive:original.meta.attr.0.stream.handler_name.markup">VideoHandler</property>
  <property name="kdenlive:original.meta.attr.0.stream.vendor_id.markup">[0][0][0][0]</property>
  <property name="kdenlive:original.meta.attr.major_brand.markup">isom</property>
  <property name="kdenlive:original.meta.attr.minor_version.markup">512</property>
  <property name="kdenlive:original.meta.attr.compatible_brands.markup">isomiso2avc1mp41</property>
  <property name="kdenlive:original.meta.attr.encoder.markup">Lavf58.76.100</property>
  <property name="kdenlive:original.meta.attr.comment.markup">Rendered with Manim Community v0.6.0</property>
  <property name="kdenlive:original.seekable">1</property>
  <property name="kdenlive:original.width">3840</property>
  <property name="kdenlive:original.height">2160</property>
  <property name="kdenlive:original.meta.media.sample_aspect_num">1</property>
  <property name="kdenlive:original.meta.media.sample_aspect_den">1</property>
  <property name="kdenlive:original.aspect_ratio">1</property>
  <property name="kdenlive:original.audio_index">-1</property>
  <property name="kdenlive:original.video_index">0</property>
  <property name="kdenlive:original.mute_on_pause">1</property>
  <property name="kdenlive:original.mlt_service">avformat</property>
  <property name="kdenlive:original.meta.media.frame_rate_num">60</property>
  <property name="kdenlive:original.meta.media.frame_rate_den">1</property>
  <property name="kdenlive:original.meta.media.colorspace">709</property>
  <property name="kdenlive:original.meta.media.color_trc">2</property>
  <property name="kdenlive:original.meta.media.width">3840</property>
  <property name="kdenlive:original.meta.media.height">2160</property>
  <property name="kdenlive:original.meta.media.color_range">mpeg</property>
  <property name="kdenlive:original.meta.media.top_field_first">0</property>
  <property name="kdenlive:original.meta.media.progressive">1</property>
  <property name="kdenlive:original.backup">1</property>
  <property name="xml">was here</property>
  <property name="meta.media.nb_streams">1</property>
  <property name="meta.media.0.stream.type">video</property>
  <property name="meta.media.0.stream.frame_rate">60</property>
  <property name="meta.media.0.stream.sample_aspect_ratio">0</property>
  <property name="meta.media.0.codec.width">640</property>
  <property name="meta.media.0.codec.height">360</property>
  <property name="meta.media.0.codec.rotate">0</property>
  <property name="meta.media.0.codec.frame_rate">60</property>
  <property name="meta.media.0.codec.pix_fmt">yuv420p</property>
  <property name="meta.media.0.codec.sample_aspect_ratio">0</property>
  <property name="meta.media.0.codec.colorspace">601</property>
  <property name="meta.media.0.codec.name">h264</property>
  <property name="meta.media.0.codec.long_name">H.264 / AVC / MPEG-4 AVC / MPEG-4 part 10</property>
  <property name="meta.media.0.codec.bit_rate">0</property>
  <property name="meta.attr.0.stream.HANDLER_NAME.markup">VideoHandler</property>
  <property name="meta.attr.0.stream.VENDOR_ID.markup">[0][0][0][0]</property>
  <property name="meta.attr.0.stream.ENCODER.markup">Lavc58.134.100 libx264</property>
  <property name="meta.attr.0.stream.DURATION.markup">00:00:01.000000000</property>
  <property name="meta.attr.COMMENT.markup">Rendered with Manim Community v0.6.0</property>
  <property name="meta.attr.MAJOR_BRAND.markup">isom</property>
  <property name="meta.attr.MINOR_VERSION.markup">512</property>
  <property name="meta.attr.COMPATIBLE_BRANDS.markup">isomiso2avc1mp41</property>
  <property name="meta.attr.ENCODER.markup">Lavf58.76.100</property>
  <property name="meta.media.sample_aspect_num">1</property>
  <property name="meta.media.sample_aspect_den">1</property>
  <property name="meta.media.frame_rate_num">60</property>
  <property name="meta.media.frame_rate_den">1</property>
  <property name="meta.media.colorspace">601</property>
  <property name="meta.media.color_trc">2</property>
  <property name="meta.media.width">640</property>
  <property name="meta.media.height">360</property>
  <property name="meta.media.color_range">mpeg</property>
  <property name="meta.media.top_field_first">0</property>
  <property name="meta.media.progressive">1</property>
  <property name="set.test_audio">1</property>
  <property name="set.test_image">0</property>
 </producer>
 <producer id="producer676" in="00:00:00.000" out="00:00:00.983">
  <property name="length">60</property>
  <property name="eof">pause</property>
  <property name="resource">/home/xiaoxiae/.cache/kdenlive/proxy/3717437aa7b5f0192a58c31ba1a2ecd9.mkv</property>
  <property name="audio_index">-1</property>
  <property name="video_index">0</property>
  <property name="mute_on_pause">0</property>
  <property name="mlt_service">avformat-novalidate</property>
  <property name="seekable">1</property>
  <property name="aspect_ratio">1</property>
  <property name="kdenlive:clipname">40.mp4</property>
  <property name="kdenlive:folderid">277</property>
  <property name="kdenlive:id">323</property>
  <property name="kdenlive:file_size">90351</property>
  <property name="kdenlive:file_hash">3717437aa7b5f0192a58c31ba1a2ecd9</property>
  <property name="kdenlive:proxy">/home/xiaoxiae/.cache/kdenlive/proxy/3717437aa7b5f0192a58c31ba1a2ecd9.mkv</property>
  <property name="kdenlive:originalurl">video/Observations/40.mp4</property>
  <property name="global_feed">1</property>
  <property name="kdenlive:original.mlt_type">producer</property>
  <property name="kdenlive:original.in">0</property>
  <property name="kdenlive:original.out">59</property>
  <property name="kdenlive:original.length">60</property>
  <property name="kdenlive:original.eof">pause</property>
  <property name="kdenlive:original.resource">video/Observations/40.mp4</property>
  <property name="kdenlive:original.meta.media.nb_streams">1</property>
  <property name="kdenlive:original.meta.media.0.stream.type">video</property>
  <property name="kdenlive:original.meta.media.0.stream.frame_rate">60</property>
  <property name="kdenlive:original.meta.media.0.stream.sample_aspect_ratio">0</property>
  <property name="kdenlive:original.meta.media.0.codec.width">3840</property>
  <property name="kdenlive:original.meta.media.0.codec.height">2160</property>
  <property name="kdenlive:original.meta.media.0.codec.rotate">0</property>
  <property name="kdenlive:original.meta.media.0.codec.frame_rate">60</property>
  <property name="kdenlive:original.meta.media.0.codec.pix_fmt">yuv420p</property>
  <property name="kdenlive:original.meta.media.0.codec.sample_aspect_ratio">0</property>
  <property name="kdenlive:original.meta.media.0.codec.colorspace">709</property>
  <property name="kdenlive:original.meta.media.0.codec.name">h264</property>
  <property name="kdenlive:original.meta.media.0.codec.long_name">H.264 / AVC / MPEG-4 AVC / MPEG-4 part 10</property>
  <property name="kdenlive:original.meta.media.0.codec.bit_rate">709760</property>
  <property name="kdenlive:original.meta.attr.0.stream.handler_name.markup">VideoHandler</property>
  <property name="kdenlive:original.meta.attr.0.stream.vendor_id.markup">[0][0][0][0]</property>
  <property name="kdenlive:original.meta.attr.major_brand.markup">isom</property>
  <property name="kdenlive:original.meta.attr.minor_version.markup">512</property>
  <property name="kdenlive:original.meta.attr.compatible_brands.markup">isomiso2avc1mp41</property>
  <property name="kdenlive:original.meta.attr.encoder.markup">Lavf58.76.100</property>
  <property name="kdenlive:original.meta.attr.comment.markup">Rendered with Manim Community v0.6.0</property>
  <property name="kdenlive:original.seekable">1</property>
  <property name="kdenlive:original.width">3840</property>
  <property name="kdenlive:original.height">2160</property>
  <property name="kdenlive:original.meta.media.sample_aspect_num">1</property>
  <property name="kdenlive:original.meta.media.sample_aspect_den">1</property>
  <property name="kdenlive:original.aspect_ratio">1</property>
  <property name="kdenlive:original.audio_index">-1</property>
  <property name="kdenlive:original.video_index">0</property>
  <property name="kdenlive:original.mute_on_pause">1</property>
  <property name="kdenlive:original.mlt_service">avformat</property>
  <property name="kdenlive:original.meta.media.frame_rate_num">60</property>
  <property name="kdenlive:original.meta.media.frame_rate_den">1</property>
  <property name="kdenlive:original.meta.media.colorspace">709</property>
  <property name="kdenlive:original.meta.media.color_trc">2</property>
  <property name="kdenlive:original.meta.media.width">3840</property>
  <property name="kdenlive:original.meta.media.height">2160</property>
  <property name="kdenlive:original.meta.media.color_range">mpeg</property>
  <property name="kdenlive:original.meta.media.top_field_first">0</property>
  <property name="kdenlive:original.meta.media.progressive">1</property>
  <property name="kdenlive:original.backup">1</property>
  <property name="xml">was here</property>
  <property name="meta.media.nb_streams">1</property>
  <property name="meta.media.0.stream.type">video</property>
  <property name="meta.media.0.stream.frame_rate">60</property>
  <property name="meta.media.0.stream.sample_aspect_ratio">0</property>
  <property name="meta.media.0.codec.width">640</property>
  <property name="meta.media.0.codec.height">360</property>
  <property name="meta.media.0.codec.rotate">0</property>
  <property name="meta.media.0.codec.frame_rate">60</property>
  <property name="meta.media.0.codec.pix_fmt">yuv420p</property>
  <property name="meta.media.0.codec.sample_aspect_ratio">0</property>
  <property name="meta.media.0.codec.colorspace">601</property>
  <property name="meta.media.0.codec.name">h264</property>
  <property name="meta.media.0.codec.long_name">H.264 / AVC / MPEG-4 AVC / MPEG-4 part 10</property>
  <property name="meta.media.0.codec.bit_rate">0</property>
  <property name="meta.attr.0.stream.HANDLER_NAME.markup">VideoHandler</property>
  <property name="meta.attr.0.stream.VENDOR_ID.markup">[0][0][0][0]</property>
  <property name="meta.attr.0.stream.ENCODER.markup">Lavc58.134.100 libx264</property>
  <property name="meta.attr.0.stream.DURATION.markup">00:00:01.000000000</property>
  <property name="meta.attr.COMMENT.markup">Rendered with Manim Community v0.6.0</property>
  <property name="meta.attr.MAJOR_BRAND.markup">isom</property>
  <property name="meta.attr.MINOR_VERSION.markup">512</property>
  <property name="meta.attr.COMPATIBLE_BRANDS.markup">isomiso2avc1mp41</property>
  <property name="meta.attr.ENCODER.markup">Lavf58.76.100</property>
  <property name="meta.media.sample_aspect_num">1</property>
  <property name="meta.media.sample_aspect_den">1</property>
  <property name="meta.media.frame_rate_num">60</property>
  <property name="meta.media.frame_rate_den">1</property>
  <property name="meta.media.colorspace">601</property>
  <property name="meta.media.color_trc">2</property>
  <property name="meta.media.width">640</property>
  <property name="meta.media.height">360</property>
  <property name="meta.media.color_range">mpeg</property>
  <property name="meta.media.top_field_first">0</property>
  <property name="meta.media.progressive">1</property>
  <property name="set.test_audio">1</property>
  <property name="set.test_image">0</property>
 </producer>
 <producer id="producer677" in="00:00:00.000" out="00:00:01.983">
  <property name="length">120</property>
  <property name="eof">pause</property>
  <property name="resource">/home/xiaoxiae/.cache/kdenlive/proxy/ae265bf06de1d332e1dbfd6e28848d43.mkv</property>
  <property name="audio_index">-1</property>
  <property name="video_index">0</property>
  <property name="mute_on_pause">0</property>
  <property name="mlt_service">avformat-novalidate</property>
  <property name="seekable">1</property>
  <property name="aspect_ratio">1</property>
  <property name="kdenlive:clipname">41.mp4</property>
  <property name="kdenlive:folderid">277</property>
  <property name="kdenlive:id">325</property>
  <property name="kdenlive:file_size">132289</property>
  <property name="kdenlive:file_hash">ae265bf06de1d332e1dbfd6e28848d43</property>
  <property name="kdenlive:proxy">/home/xiaoxiae/.cache/kdenlive/proxy/ae265bf06de1d332e1dbfd6e28848d43.mkv</property>
  <property name="kdenlive:originalurl">video/Observations/41.mp4</property>
  <property name="global_feed">1</property>
  <property name="kdenlive:original.mlt_type">producer</property>
  <property name="kdenlive:original.in">0</property>
  <property name="kdenlive:original.out">119</property>
  <property name="kdenlive:original.length">120</property>
  <property name="kdenlive:original.eof">pause</property>
  <property name="kdenlive:original.resource">video/Observations/41.mp4</property>
  <property name="kdenlive:original.meta.media.nb_streams">1</property>
  <property name="kdenlive:original.meta.media.0.stream.type">video</property>
  <property name="kdenlive:original.meta.media.0.stream.frame_rate">60</property>
  <property name="kdenlive:original.meta.media.0.stream.sample_aspect_ratio">0</property>
  <property name="kdenlive:original.meta.media.0.codec.width">3840</property>
  <property name="kdenlive:original.meta.media.0.codec.height">2160</property>
  <property name="kdenlive:original.meta.media.0.codec.rotate">0</property>
  <property name="kdenlive:original.meta.media.0.codec.frame_rate">60</property>
  <property name="kdenlive:original.meta.media.0.codec.pix_fmt">yuv420p</property>
  <property name="kdenlive:original.meta.media.0.codec.sample_aspect_ratio">0</property>
  <property name="kdenlive:original.meta.media.0.codec.colorspace">709</property>
  <property name="kdenlive:original.meta.media.0.codec.name">h264</property>
  <property name="kdenlive:original.meta.media.0.codec.long_name">H.264 / AVC / MPEG-4 AVC / MPEG-4 part 10</property>
  <property name="kdenlive:original.meta.media.0.codec.bit_rate">519752</property>
  <property name="kdenlive:original.meta.attr.0.stream.handler_name.markup">VideoHandler</property>
  <property name="kdenlive:original.meta.attr.0.stream.vendor_id.markup">[0][0][0][0]</property>
  <property name="kdenlive:original.meta.attr.major_brand.markup">isom</property>
  <property name="kdenlive:original.meta.attr.minor_version.markup">512</property>
  <property name="kdenlive:original.meta.attr.compatible_brands.markup">isomiso2avc1mp41</property>
  <property name="kdenlive:original.meta.attr.encoder.markup">Lavf58.76.100</property>
  <property name="kdenlive:original.meta.attr.comment.markup">Rendered with Manim Community v0.6.0</property>
  <property name="kdenlive:original.seekable">1</property>
  <property name="kdenlive:original.width">3840</property>
  <property name="kdenlive:original.height">2160</property>
  <property name="kdenlive:original.meta.media.sample_aspect_num">1</property>
  <property name="kdenlive:original.meta.media.sample_aspect_den">1</property>
  <property name="kdenlive:original.aspect_ratio">1</property>
  <property name="kdenlive:original.audio_index">-1</property>
  <property name="kdenlive:original.video_index">0</property>
  <property name="kdenlive:original.mute_on_pause">1</property>
  <property name="kdenlive:original.mlt_service">avformat</property>
  <property name="kdenlive:original.meta.media.frame_rate_num">60</property>
  <property name="kdenlive:original.meta.media.frame_rate_den">1</property>
  <property name="kdenlive:original.meta.media.colorspace">709</property>
  <property name="kdenlive:original.meta.media.color_trc">2</property>
  <property name="kdenlive:original.meta.media.width">3840</property>
  <property name="kdenlive:original.meta.media.height">2160</property>
  <property name="kdenlive:original.meta.media.color_range">mpeg</property>
  <property name="kdenlive:original.meta.media.top_field_first">0</property>
  <property name="kdenlive:original.meta.media.progressive">1</property>
  <property name="kdenlive:original.backup">1</property>
  <property name="xml">was here</property>
  <property name="meta.media.nb_streams">1</property>
  <property name="meta.media.0.stream.type">video</property>
  <property name="meta.media.0.stream.frame_rate">60</property>
  <property name="meta.media.0.stream.sample_aspect_ratio">0</property>
  <property name="meta.media.0.codec.width">640</property>
  <property name="meta.media.0.codec.height">360</property>
  <property name="meta.media.0.codec.rotate">0</property>
  <property name="meta.media.0.codec.frame_rate">60</property>
  <property name="meta.media.0.codec.pix_fmt">yuv420p</property>
  <property name="meta.media.0.codec.sample_aspect_ratio">0</property>
  <property name="meta.media.0.codec.colorspace">601</property>
  <property name="meta.media.0.codec.name">h264</property>
  <property name="meta.media.0.codec.long_name">H.264 / AVC / MPEG-4 AVC / MPEG-4 part 10</property>
  <property name="meta.media.0.codec.bit_rate">0</property>
  <property name="meta.attr.0.stream.HANDLER_NAME.markup">VideoHandler</property>
  <property name="meta.attr.0.stream.VENDOR_ID.markup">[0][0][0][0]</property>
  <property name="meta.attr.0.stream.ENCODER.markup">Lavc58.134.100 libx264</property>
  <property name="meta.attr.0.stream.DURATION.markup">00:00:02.000000000</property>
  <property name="meta.attr.COMMENT.markup">Rendered with Manim Community v0.6.0</property>
  <property name="meta.attr.MAJOR_BRAND.markup">isom</property>
  <property name="meta.attr.MINOR_VERSION.markup">512</property>
  <property name="meta.attr.COMPATIBLE_BRANDS.markup">isomiso2avc1mp41</property>
  <property name="meta.attr.ENCODER.markup">Lavf58.76.100</property>
  <property name="meta.media.sample_aspect_num">1</property>
  <property name="meta.media.sample_aspect_den">1</property>
  <property name="meta.media.frame_rate_num">60</property>
  <property name="meta.media.frame_rate_den">1</property>
  <property name="meta.media.colorspace">601</property>
  <property name="meta.media.color_trc">2</property>
  <property name="meta.media.width">640</property>
  <property name="meta.media.height">360</property>
  <property name="meta.media.color_range">mpeg</property>
  <property name="meta.media.top_field_first">0</property>
  <property name="meta.media.progressive">1</property>
  <property name="set.test_audio">1</property>
  <property name="set.test_image">0</property>
 </producer>
 <producer id="producer678" in="00:00:00.000" out="00:00:00.983">
  <property name="length">60</property>
  <property name="eof">pause</property>
  <property name="resource">/home/xiaoxiae/.cache/kdenlive/proxy/85d0580544aed17e896fc2f4c871cced.mkv</property>
  <property name="audio_index">-1</property>
  <property name="video_index">0</property>
  <property name="mute_on_pause">0</property>
  <property name="mlt_service">avformat-novalidate</property>
  <property name="seekable">1</property>
  <property name="aspect_ratio">1</property>
  <property name="kdenlive:clipname">42.mp4</property>
  <property name="kdenlive:folderid">277</property>
  <property name="kdenlive:id">327</property>
  <property name="kdenlive:file_size">100847</property>
  <property name="kdenlive:file_hash">85d0580544aed17e896fc2f4c871cced</property>
  <property name="kdenlive:proxy">/home/xiaoxiae/.cache/kdenlive/proxy/85d0580544aed17e896fc2f4c871cced.mkv</property>
  <property name="kdenlive:originalurl">video/Observations/42.mp4</property>
  <property name="global_feed">1</property>
  <property name="kdenlive:original.mlt_type">producer</property>
  <property name="kdenlive:original.in">0</property>
  <property name="kdenlive:original.out">59</property>
  <property name="kdenlive:original.length">60</property>
  <property name="kdenlive:original.eof">pause</property>
  <property name="kdenlive:original.resource">video/Observations/42.mp4</property>
  <property name="kdenlive:original.meta.media.nb_streams">1</property>
  <property name="kdenlive:original.meta.media.0.stream.type">video</property>
  <property name="kdenlive:original.meta.media.0.stream.frame_rate">60</property>
  <property name="kdenlive:original.meta.media.0.stream.sample_aspect_ratio">0</property>
  <property name="kdenlive:original.meta.media.0.codec.width">3840</property>
  <property name="kdenlive:original.meta.media.0.codec.height">2160</property>
  <property name="kdenlive:original.meta.media.0.codec.rotate">0</property>
  <property name="kdenlive:original.meta.media.0.codec.frame_rate">60</property>
  <property name="kdenlive:original.meta.media.0.codec.pix_fmt">yuv420p</property>
  <property name="kdenlive:original.meta.media.0.codec.sample_aspect_ratio">0</property>
  <property name="kdenlive:original.meta.media.0.codec.colorspace">709</property>
  <property name="kdenlive:original.meta.media.0.codec.name">h264</property>
  <property name="kdenlive:original.meta.media.0.codec.long_name">H.264 / AVC / MPEG-4 AVC / MPEG-4 part 10</property>
  <property name="kdenlive:original.meta.media.0.codec.bit_rate">793728</property>
  <property name="kdenlive:original.meta.attr.0.stream.handler_name.markup">VideoHandler</property>
  <property name="kdenlive:original.meta.attr.0.stream.vendor_id.markup">[0][0][0][0]</property>
  <property name="kdenlive:original.meta.attr.major_brand.markup">isom</property>
  <property name="kdenlive:original.meta.attr.minor_version.markup">512</property>
  <property name="kdenlive:original.meta.attr.compatible_brands.markup">isomiso2avc1mp41</property>
  <property name="kdenlive:original.meta.attr.encoder.markup">Lavf58.76.100</property>
  <property name="kdenlive:original.meta.attr.comment.markup">Rendered with Manim Community v0.6.0</property>
  <property name="kdenlive:original.seekable">1</property>
  <property name="kdenlive:original.width">3840</property>
  <property name="kdenlive:original.height">2160</property>
  <property name="kdenlive:original.meta.media.sample_aspect_num">1</property>
  <property name="kdenlive:original.meta.media.sample_aspect_den">1</property>
  <property name="kdenlive:original.aspect_ratio">1</property>
  <property name="kdenlive:original.audio_index">-1</property>
  <property name="kdenlive:original.video_index">0</property>
  <property name="kdenlive:original.mute_on_pause">1</property>
  <property name="kdenlive:original.mlt_service">avformat</property>
  <property name="kdenlive:original.meta.media.frame_rate_num">60</property>
  <property name="kdenlive:original.meta.media.frame_rate_den">1</property>
  <property name="kdenlive:original.meta.media.colorspace">709</property>
  <property name="kdenlive:original.meta.media.color_trc">2</property>
  <property name="kdenlive:original.meta.media.width">3840</property>
  <property name="kdenlive:original.meta.media.height">2160</property>
  <property name="kdenlive:original.meta.media.color_range">mpeg</property>
  <property name="kdenlive:original.meta.media.top_field_first">0</property>
  <property name="kdenlive:original.meta.media.progressive">1</property>
  <property name="kdenlive:original.backup">1</property>
  <property name="xml">was here</property>
  <property name="meta.media.nb_streams">1</property>
  <property name="meta.media.0.stream.type">video</property>
  <property name="meta.media.0.stream.frame_rate">60</property>
  <property name="meta.media.0.stream.sample_aspect_ratio">0</property>
  <property name="meta.media.0.codec.width">640</property>
  <property name="meta.media.0.codec.height">360</property>
  <property name="meta.media.0.codec.rotate">0</property>
  <property name="meta.media.0.codec.frame_rate">60</property>
  <property name="meta.media.0.codec.pix_fmt">yuv420p</property>
  <property name="meta.media.0.codec.sample_aspect_ratio">0</property>
  <property name="meta.media.0.codec.colorspace">601</property>
  <property name="meta.media.0.codec.name">h264</property>
  <property name="meta.media.0.codec.long_name">H.264 / AVC / MPEG-4 AVC / MPEG-4 part 10</property>
  <property name="meta.media.0.codec.bit_rate">0</property>
  <property name="meta.attr.0.stream.HANDLER_NAME.markup">VideoHandler</property>
  <property name="meta.attr.0.stream.VENDOR_ID.markup">[0][0][0][0]</property>
  <property name="meta.attr.0.stream.ENCODER.markup">Lavc58.134.100 libx264</property>
  <property name="meta.attr.0.stream.DURATION.markup">00:00:01.000000000</property>
  <property name="meta.attr.COMMENT.markup">Rendered with Manim Community v0.6.0</property>
  <property name="meta.attr.MAJOR_BRAND.markup">isom</property>
  <property name="meta.attr.MINOR_VERSION.markup">512</property>
  <property name="meta.attr.COMPATIBLE_BRANDS.markup">isomiso2avc1mp41</property>
  <property name="meta.attr.ENCODER.markup">Lavf58.76.100</property>
  <property name="meta.media.sample_aspect_num">1</property>
  <property name="meta.media.sample_aspect_den">1</property>
  <property name="meta.media.frame_rate_num">60</property>
  <property name="meta.media.frame_rate_den">1</property>
  <property name="meta.media.colorspace">601</property>
  <property name="meta.media.color_trc">2</property>
  <property name="meta.media.width">640</property>
  <property name="meta.media.height">360</property>
  <property name="meta.media.color_range">mpeg</property>
  <property name="meta.media.top_field_first">0</property>
  <property name="meta.media.progressive">1</property>
  <property name="set.test_audio">1</property>
  <property name="set.test_image">0</property>
 </producer>
 <producer id="producer679" in="00:00:00.000" out="00:00:00.983">
  <property name="length">60</property>
  <property name="eof">pause</property>
  <property name="resource">/home/xiaoxiae/.cache/kdenlive/proxy/77f89d9b80df1355136425b0624be718.mkv</property>
  <property name="audio_index">-1</property>
  <property name="video_index">0</property>
  <property name="mute_on_pause">0</property>
  <property name="mlt_service">avformat-novalidate</property>
  <property name="seekable">1</property>
  <property name="aspect_ratio">1</property>
  <property name="kdenlive:clipname">43.mp4</property>
  <property name="kdenlive:folderid">277</property>
  <property name="kdenlive:id">329</property>
  <property name="kdenlive:file_size">123862</property>
  <property name="kdenlive:file_hash">77f89d9b80df1355136425b0624be718</property>
  <property name="kdenlive:proxy">/home/xiaoxiae/.cache/kdenlive/proxy/77f89d9b80df1355136425b0624be718.mkv</property>
  <property name="kdenlive:originalurl">video/Observations/43.mp4</property>
  <property name="global_feed">1</property>
  <property name="kdenlive:original.mlt_type">producer</property>
  <property name="kdenlive:original.in">0</property>
  <property name="kdenlive:original.out">59</property>
  <property name="kdenlive:original.length">60</property>
  <property name="kdenlive:original.eof">pause</property>
  <property name="kdenlive:original.resource">video/Observations/43.mp4</property>
  <property name="kdenlive:original.meta.media.nb_streams">1</property>
  <property name="kdenlive:original.meta.media.0.stream.type">video</property>
  <property name="kdenlive:original.meta.media.0.stream.frame_rate">60</property>
  <property name="kdenlive:original.meta.media.0.stream.sample_aspect_ratio">0</property>
  <property name="kdenlive:original.meta.media.0.codec.width">3840</property>
  <property name="kdenlive:original.meta.media.0.codec.height">2160</property>
  <property name="kdenlive:original.meta.media.0.codec.rotate">0</property>
  <property name="kdenlive:original.meta.media.0.codec.frame_rate">60</property>
  <property name="kdenlive:original.meta.media.0.codec.pix_fmt">yuv420p</property>
  <property name="kdenlive:original.meta.media.0.codec.sample_aspect_ratio">0</property>
  <property name="kdenlive:original.meta.media.0.codec.colorspace">709</property>
  <property name="kdenlive:original.meta.media.0.codec.name">h264</property>
  <property name="kdenlive:original.meta.media.0.codec.long_name">H.264 / AVC / MPEG-4 AVC / MPEG-4 part 10</property>
  <property name="kdenlive:original.meta.media.0.codec.bit_rate">978040</property>
  <property name="kdenlive:original.meta.attr.0.stream.handler_name.markup">VideoHandler</property>
  <property name="kdenlive:original.meta.attr.0.stream.vendor_id.markup">[0][0][0][0]</property>
  <property name="kdenlive:original.meta.attr.major_brand.markup">isom</property>
  <property name="kdenlive:original.meta.attr.minor_version.markup">512</property>
  <property name="kdenlive:original.meta.attr.compatible_brands.markup">isomiso2avc1mp41</property>
  <property name="kdenlive:original.meta.attr.encoder.markup">Lavf58.76.100</property>
  <property name="kdenlive:original.meta.attr.comment.markup">Rendered with Manim Community v0.6.0</property>
  <property name="kdenlive:original.seekable">1</property>
  <property name="kdenlive:original.width">3840</property>
  <property name="kdenlive:original.height">2160</property>
  <property name="kdenlive:original.meta.media.sample_aspect_num">1</property>
  <property name="kdenlive:original.meta.media.sample_aspect_den">1</property>
  <property name="kdenlive:original.aspect_ratio">1</property>
  <property name="kdenlive:original.audio_index">-1</property>
  <property name="kdenlive:original.video_index">0</property>
  <property name="kdenlive:original.mute_on_pause">1</property>
  <property name="kdenlive:original.mlt_service">avformat</property>
  <property name="kdenlive:original.meta.media.frame_rate_num">60</property>
  <property name="kdenlive:original.meta.media.frame_rate_den">1</property>
  <property name="kdenlive:original.meta.media.colorspace">709</property>
  <property name="kdenlive:original.meta.media.color_trc">2</property>
  <property name="kdenlive:original.meta.media.width">3840</property>
  <property name="kdenlive:original.meta.media.height">2160</property>
  <property name="kdenlive:original.meta.media.color_range">mpeg</property>
  <property name="kdenlive:original.meta.media.top_field_first">0</property>
  <property name="kdenlive:original.meta.media.progressive">1</property>
  <property name="kdenlive:original.backup">1</property>
  <property name="xml">was here</property>
  <property name="meta.media.nb_streams">1</property>
  <property name="meta.media.0.stream.type">video</property>
  <property name="meta.media.0.stream.frame_rate">60</property>
  <property name="meta.media.0.stream.sample_aspect_ratio">0</property>
  <property name="meta.media.0.codec.width">640</property>
  <property name="meta.media.0.codec.height">360</property>
  <property name="meta.media.0.codec.rotate">0</property>
  <property name="meta.media.0.codec.frame_rate">60</property>
  <property name="meta.media.0.codec.pix_fmt">yuv420p</property>
  <property name="meta.media.0.codec.sample_aspect_ratio">0</property>
  <property name="meta.media.0.codec.colorspace">601</property>
  <property name="meta.media.0.codec.name">h264</property>
  <property name="meta.media.0.codec.long_name">H.264 / AVC / MPEG-4 AVC / MPEG-4 part 10</property>
  <property name="meta.media.0.codec.bit_rate">0</property>
  <property name="meta.attr.0.stream.HANDLER_NAME.markup">VideoHandler</property>
  <property name="meta.attr.0.stream.VENDOR_ID.markup">[0][0][0][0]</property>
  <property name="meta.attr.0.stream.ENCODER.markup">Lavc58.134.100 libx264</property>
  <property name="meta.attr.0.stream.DURATION.markup">00:00:01.000000000</property>
  <property name="meta.attr.COMMENT.markup">Rendered with Manim Community v0.6.0</property>
  <property name="meta.attr.MAJOR_BRAND.markup">isom</property>
  <property name="meta.attr.MINOR_VERSION.markup">512</property>
  <property name="meta.attr.COMPATIBLE_BRANDS.markup">isomiso2avc1mp41</property>
  <property name="meta.attr.ENCODER.markup">Lavf58.76.100</property>
  <property name="meta.media.sample_aspect_num">1</property>
  <property name="meta.media.sample_aspect_den">1</property>
  <property name="meta.media.frame_rate_num">60</property>
  <property name="meta.media.frame_rate_den">1</property>
  <property name="meta.media.colorspace">601</property>
  <property name="meta.media.color_trc">2</property>
  <property name="meta.media.width">640</property>
  <property name="meta.media.height">360</property>
  <property name="meta.media.color_range">mpeg</property>
  <property name="meta.media.top_field_first">0</property>
  <property name="meta.media.progressive">1</property>
  <property name="set.test_audio">1</property>
  <property name="set.test_image">0</property>
 </producer>
 <producer id="producer680" in="00:00:00.000" out="00:00:00.983">
  <property name="length">60</property>
  <property name="eof">pause</property>
  <property name="resource">/home/xiaoxiae/.cache/kdenlive/proxy/ebea164ec448919175c3cf625928f4df.mkv</property>
  <property name="audio_index">-1</property>
  <property name="video_index">0</property>
  <property name="mute_on_pause">0</property>
  <property name="mlt_service">avformat-novalidate</property>
  <property name="seekable">1</property>
  <property name="aspect_ratio">1</property>
  <property name="kdenlive:clipname">1.mp4</property>
  <property name="kdenlive:folderid">209</property>
  <property name="kdenlive:id">210</property>
  <property name="kdenlive:file_size">45821</property>
  <property name="kdenlive:file_hash">ebea164ec448919175c3cf625928f4df</property>
  <property name="kdenlive:proxy">/home/xiaoxiae/.cache/kdenlive/proxy/ebea164ec448919175c3cf625928f4df.mkv</property>
  <property name="kdenlive:originalurl">video/Lemma1/1.mp4</property>
  <property name="global_feed">1</property>
  <property name="kdenlive:original.mlt_type">producer</property>
  <property name="kdenlive:original.in">0</property>
  <property name="kdenlive:original.out">59</property>
  <property name="kdenlive:original.length">60</property>
  <property name="kdenlive:original.eof">pause</property>
  <property name="kdenlive:original.resource">video/Lemma1/1.mp4</property>
  <property name="kdenlive:original.meta.media.nb_streams">1</property>
  <property name="kdenlive:original.meta.media.0.stream.type">video</property>
  <property name="kdenlive:original.meta.media.0.stream.frame_rate">60</property>
  <property name="kdenlive:original.meta.media.0.stream.sample_aspect_ratio">0</property>
  <property name="kdenlive:original.meta.media.0.codec.width">3840</property>
  <property name="kdenlive:original.meta.media.0.codec.height">2160</property>
  <property name="kdenlive:original.meta.media.0.codec.rotate">0</property>
  <property name="kdenlive:original.meta.media.0.codec.frame_rate">60</property>
  <property name="kdenlive:original.meta.media.0.codec.pix_fmt">yuv420p</property>
  <property name="kdenlive:original.meta.media.0.codec.sample_aspect_ratio">0</property>
  <property name="kdenlive:original.meta.media.0.codec.colorspace">709</property>
  <property name="kdenlive:original.meta.media.0.codec.name">h264</property>
  <property name="kdenlive:original.meta.media.0.codec.long_name">H.264 / AVC / MPEG-4 AVC / MPEG-4 part 10</property>
  <property name="kdenlive:original.meta.media.0.codec.bit_rate">353520</property>
  <property name="kdenlive:original.meta.attr.0.stream.handler_name.markup">VideoHandler</property>
  <property name="kdenlive:original.meta.attr.0.stream.vendor_id.markup">[0][0][0][0]</property>
  <property name="kdenlive:original.meta.attr.major_brand.markup">isom</property>
  <property name="kdenlive:original.meta.attr.minor_version.markup">512</property>
  <property name="kdenlive:original.meta.attr.compatible_brands.markup">isomiso2avc1mp41</property>
  <property name="kdenlive:original.meta.attr.encoder.markup">Lavf58.76.100</property>
  <property name="kdenlive:original.meta.attr.comment.markup">Rendered with Manim Community v0.6.0</property>
  <property name="kdenlive:original.seekable">1</property>
  <property name="kdenlive:original.width">3840</property>
  <property name="kdenlive:original.height">2160</property>
  <property name="kdenlive:original.meta.media.sample_aspect_num">1</property>
  <property name="kdenlive:original.meta.media.sample_aspect_den">1</property>
  <property name="kdenlive:original.aspect_ratio">1</property>
  <property name="kdenlive:original.audio_index">-1</property>
  <property name="kdenlive:original.video_index">0</property>
  <property name="kdenlive:original.mute_on_pause">1</property>
  <property name="kdenlive:original.mlt_service">avformat</property>
  <property name="kdenlive:original.meta.media.frame_rate_num">60</property>
  <property name="kdenlive:original.meta.media.frame_rate_den">1</property>
  <property name="kdenlive:original.meta.media.colorspace">709</property>
  <property name="kdenlive:original.meta.media.color_trc">2</property>
  <property name="kdenlive:original.meta.media.width">3840</property>
  <property name="kdenlive:original.meta.media.height">2160</property>
  <property name="kdenlive:original.meta.media.color_range">mpeg</property>
  <property name="kdenlive:original.meta.media.top_field_first">0</property>
  <property name="kdenlive:original.meta.media.progressive">1</property>
  <property name="kdenlive:original.backup">1</property>
  <property name="xml">was here</property>
  <property name="meta.media.nb_streams">1</property>
  <property name="meta.media.0.stream.type">video</property>
  <property name="meta.media.0.stream.frame_rate">60</property>
  <property name="meta.media.0.stream.sample_aspect_ratio">0</property>
  <property name="meta.media.0.codec.width">640</property>
  <property name="meta.media.0.codec.height">360</property>
  <property name="meta.media.0.codec.rotate">0</property>
  <property name="meta.media.0.codec.frame_rate">60</property>
  <property name="meta.media.0.codec.pix_fmt">yuv420p</property>
  <property name="meta.media.0.codec.sample_aspect_ratio">0</property>
  <property name="meta.media.0.codec.colorspace">601</property>
  <property name="meta.media.0.codec.name">h264</property>
  <property name="meta.media.0.codec.long_name">H.264 / AVC / MPEG-4 AVC / MPEG-4 part 10</property>
  <property name="meta.media.0.codec.bit_rate">0</property>
  <property name="meta.attr.0.stream.HANDLER_NAME.markup">VideoHandler</property>
  <property name="meta.attr.0.stream.VENDOR_ID.markup">[0][0][0][0]</property>
  <property name="meta.attr.0.stream.ENCODER.markup">Lavc58.134.100 libx264</property>
  <property name="meta.attr.0.stream.DURATION.markup">00:00:01.000000000</property>
  <property name="meta.attr.COMMENT.markup">Rendered with Manim Community v0.6.0</property>
  <property name="meta.attr.MAJOR_BRAND.markup">isom</property>
  <property name="meta.attr.MINOR_VERSION.markup">512</property>
  <property name="meta.attr.COMPATIBLE_BRANDS.markup">isomiso2avc1mp41</property>
  <property name="meta.attr.ENCODER.markup">Lavf58.76.100</property>
  <property name="meta.media.sample_aspect_num">1</property>
  <property name="meta.media.sample_aspect_den">1</property>
  <property name="meta.media.frame_rate_num">60</property>
  <property name="meta.media.frame_rate_den">1</property>
  <property name="meta.media.colorspace">601</property>
  <property name="meta.media.color_trc">2</property>
  <property name="meta.media.width">640</property>
  <property name="meta.media.height">360</property>
  <property name="meta.media.color_range">mpeg</property>
  <property name="meta.media.top_field_first">0</property>
  <property name="meta.media.progressive">1</property>
  <property name="set.test_audio">1</property>
  <property name="set.test_image">0</property>
 </producer>
 <producer id="producer681" in="00:00:00.000" out="00:00:00.983">
  <property name="length">60</property>
  <property name="eof">pause</property>
  <property name="resource">/home/xiaoxiae/.cache/kdenlive/proxy/e76da7b847370e6003b094d41eec030e.mkv</property>
  <property name="audio_index">-1</property>
  <property name="video_index">0</property>
  <property name="mute_on_pause">0</property>
  <property name="mlt_service">avformat-novalidate</property>
  <property name="seekable">1</property>
  <property name="aspect_ratio">1</property>
  <property name="kdenlive:clipname">2.mp4</property>
  <property name="kdenlive:folderid">209</property>
  <property name="kdenlive:id">232</property>
  <property name="kdenlive:file_size">44603</property>
  <property name="kdenlive:file_hash">e76da7b847370e6003b094d41eec030e</property>
  <property name="kdenlive:proxy">/home/xiaoxiae/.cache/kdenlive/proxy/e76da7b847370e6003b094d41eec030e.mkv</property>
  <property name="kdenlive:originalurl">video/Lemma1/2.mp4</property>
  <property name="global_feed">1</property>
  <property name="kdenlive:original.mlt_type">producer</property>
  <property name="kdenlive:original.in">0</property>
  <property name="kdenlive:original.out">59</property>
  <property name="kdenlive:original.length">60</property>
  <property name="kdenlive:original.eof">pause</property>
  <property name="kdenlive:original.resource">video/Lemma1/2.mp4</property>
  <property name="kdenlive:original.meta.media.nb_streams">1</property>
  <property name="kdenlive:original.meta.media.0.stream.type">video</property>
  <property name="kdenlive:original.meta.media.0.stream.frame_rate">60</property>
  <property name="kdenlive:original.meta.media.0.stream.sample_aspect_ratio">0</property>
  <property name="kdenlive:original.meta.media.0.codec.width">3840</property>
  <property name="kdenlive:original.meta.media.0.codec.height">2160</property>
  <property name="kdenlive:original.meta.media.0.codec.rotate">0</property>
  <property name="kdenlive:original.meta.media.0.codec.frame_rate">60</property>
  <property name="kdenlive:original.meta.media.0.codec.pix_fmt">yuv420p</property>
  <property name="kdenlive:original.meta.media.0.codec.sample_aspect_ratio">0</property>
  <property name="kdenlive:original.meta.media.0.codec.colorspace">709</property>
  <property name="kdenlive:original.meta.media.0.codec.name">h264</property>
  <property name="kdenlive:original.meta.media.0.codec.long_name">H.264 / AVC / MPEG-4 AVC / MPEG-4 part 10</property>
  <property name="kdenlive:original.meta.media.0.codec.bit_rate">343776</property>
  <property name="kdenlive:original.meta.attr.0.stream.handler_name.markup">VideoHandler</property>
  <property name="kdenlive:original.meta.attr.0.stream.vendor_id.markup">[0][0][0][0]</property>
  <property name="kdenlive:original.meta.attr.major_brand.markup">isom</property>
  <property name="kdenlive:original.meta.attr.minor_version.markup">512</property>
  <property name="kdenlive:original.meta.attr.compatible_brands.markup">isomiso2avc1mp41</property>
  <property name="kdenlive:original.meta.attr.encoder.markup">Lavf58.76.100</property>
  <property name="kdenlive:original.meta.attr.comment.markup">Rendered with Manim Community v0.6.0</property>
  <property name="kdenlive:original.seekable">1</property>
  <property name="kdenlive:original.width">3840</property>
  <property name="kdenlive:original.height">2160</property>
  <property name="kdenlive:original.meta.media.sample_aspect_num">1</property>
  <property name="kdenlive:original.meta.media.sample_aspect_den">1</property>
  <property name="kdenlive:original.aspect_ratio">1</property>
  <property name="kdenlive:original.audio_index">-1</property>
  <property name="kdenlive:original.video_index">0</property>
  <property name="kdenlive:original.mute_on_pause">1</property>
  <property name="kdenlive:original.mlt_service">avformat</property>
  <property name="kdenlive:original.meta.media.frame_rate_num">60</property>
  <property name="kdenlive:original.meta.media.frame_rate_den">1</property>
  <property name="kdenlive:original.meta.media.colorspace">709</property>
  <property name="kdenlive:original.meta.media.color_trc">2</property>
  <property name="kdenlive:original.meta.media.width">3840</property>
  <property name="kdenlive:original.meta.media.height">2160</property>
  <property name="kdenlive:original.meta.media.color_range">mpeg</property>
  <property name="kdenlive:original.meta.media.top_field_first">0</property>
  <property name="kdenlive:original.meta.media.progressive">1</property>
  <property name="kdenlive:original.backup">1</property>
  <property name="xml">was here</property>
  <property name="meta.media.nb_streams">1</property>
  <property name="meta.media.0.stream.type">video</property>
  <property name="meta.media.0.stream.frame_rate">60</property>
  <property name="meta.media.0.stream.sample_aspect_ratio">0</property>
  <property name="meta.media.0.codec.width">640</property>
  <property name="meta.media.0.codec.height">360</property>
  <property name="meta.media.0.codec.rotate">0</property>
  <property name="meta.media.0.codec.frame_rate">60</property>
  <property name="meta.media.0.codec.pix_fmt">yuv420p</property>
  <property name="meta.media.0.codec.sample_aspect_ratio">0</property>
  <property name="meta.media.0.codec.colorspace">601</property>
  <property name="meta.media.0.codec.name">h264</property>
  <property name="meta.media.0.codec.long_name">H.264 / AVC / MPEG-4 AVC / MPEG-4 part 10</property>
  <property name="meta.media.0.codec.bit_rate">0</property>
  <property name="meta.attr.0.stream.HANDLER_NAME.markup">VideoHandler</property>
  <property name="meta.attr.0.stream.VENDOR_ID.markup">[0][0][0][0]</property>
  <property name="meta.attr.0.stream.ENCODER.markup">Lavc58.134.100 libx264</property>
  <property name="meta.attr.0.stream.DURATION.markup">00:00:01.000000000</property>
  <property name="meta.attr.COMMENT.markup">Rendered with Manim Community v0.6.0</property>
  <property name="meta.attr.MAJOR_BRAND.markup">isom</property>
  <property name="meta.attr.MINOR_VERSION.markup">512</property>
  <property name="meta.attr.COMPATIBLE_BRANDS.markup">isomiso2avc1mp41</property>
  <property name="meta.attr.ENCODER.markup">Lavf58.76.100</property>
  <property name="meta.media.sample_aspect_num">1</property>
  <property name="meta.media.sample_aspect_den">1</property>
  <property name="meta.media.frame_rate_num">60</property>
  <property name="meta.media.frame_rate_den">1</property>
  <property name="meta.media.colorspace">601</property>
  <property name="meta.media.color_trc">2</property>
  <property name="meta.media.width">640</property>
  <property name="meta.media.height">360</property>
  <property name="meta.media.color_range">mpeg</property>
  <property name="meta.media.top_field_first">0</property>
  <property name="meta.media.progressive">1</property>
  <property name="set.test_audio">1</property>
  <property name="set.test_image">0</property>
 </producer>
 <producer id="producer682" in="00:00:00.000" out="00:00:07.033">
  <property name="length">423</property>
  <property name="eof">pause</property>
  <property name="resource">/home/xiaoxiae/.cache/kdenlive/proxy/cdf1d650b0cac7275e1d55a757b9a7e1.mkv</property>
  <property name="audio_index">-1</property>
  <property name="video_index">0</property>
  <property name="mute_on_pause">0</property>
  <property name="mlt_service">avformat-novalidate</property>
  <property name="seekable">1</property>
  <property name="aspect_ratio">1</property>
  <property name="kdenlive:clipname">3.mp4</property>
  <property name="kdenlive:folderid">209</property>
  <property name="kdenlive:id">240</property>
  <property name="kdenlive:file_size">1019562</property>
  <property name="kdenlive:file_hash">cdf1d650b0cac7275e1d55a757b9a7e1</property>
  <property name="kdenlive:proxy">/home/xiaoxiae/.cache/kdenlive/proxy/cdf1d650b0cac7275e1d55a757b9a7e1.mkv</property>
  <property name="kdenlive:originalurl">video/Lemma1/3.mp4</property>
  <property name="global_feed">1</property>
  <property name="kdenlive:original.mlt_type">producer</property>
  <property name="kdenlive:original.in">0</property>
  <property name="kdenlive:original.out">422</property>
  <property name="kdenlive:original.length">423</property>
  <property name="kdenlive:original.eof">pause</property>
  <property name="kdenlive:original.resource">video/Lemma1/3.mp4</property>
  <property name="kdenlive:original.meta.media.nb_streams">1</property>
  <property name="kdenlive:original.meta.media.0.stream.type">video</property>
  <property name="kdenlive:original.meta.media.0.stream.frame_rate">60</property>
  <property name="kdenlive:original.meta.media.0.stream.sample_aspect_ratio">0</property>
  <property name="kdenlive:original.meta.media.0.codec.width">3840</property>
  <property name="kdenlive:original.meta.media.0.codec.height">2160</property>
  <property name="kdenlive:original.meta.media.0.codec.rotate">0</property>
  <property name="kdenlive:original.meta.media.0.codec.frame_rate">60</property>
  <property name="kdenlive:original.meta.media.0.codec.pix_fmt">yuv420p</property>
  <property name="kdenlive:original.meta.media.0.codec.sample_aspect_ratio">0</property>
  <property name="kdenlive:original.meta.media.0.codec.colorspace">709</property>
  <property name="kdenlive:original.meta.media.0.codec.name">h264</property>
  <property name="kdenlive:original.meta.media.0.codec.long_name">H.264 / AVC / MPEG-4 AVC / MPEG-4 part 10</property>
  <property name="kdenlive:original.meta.media.0.codec.bit_rate">1150151</property>
  <property name="kdenlive:original.meta.attr.0.stream.handler_name.markup">VideoHandler</property>
  <property name="kdenlive:original.meta.attr.0.stream.vendor_id.markup">[0][0][0][0]</property>
  <property name="kdenlive:original.meta.attr.major_brand.markup">isom</property>
  <property name="kdenlive:original.meta.attr.minor_version.markup">512</property>
  <property name="kdenlive:original.meta.attr.compatible_brands.markup">isomiso2avc1mp41</property>
  <property name="kdenlive:original.meta.attr.encoder.markup">Lavf58.76.100</property>
  <property name="kdenlive:original.meta.attr.comment.markup">Rendered with Manim Community v0.6.0</property>
  <property name="kdenlive:original.seekable">1</property>
  <property name="kdenlive:original.width">3840</property>
  <property name="kdenlive:original.height">2160</property>
  <property name="kdenlive:original.meta.media.sample_aspect_num">1</property>
  <property name="kdenlive:original.meta.media.sample_aspect_den">1</property>
  <property name="kdenlive:original.aspect_ratio">1</property>
  <property name="kdenlive:original.audio_index">-1</property>
  <property name="kdenlive:original.video_index">0</property>
  <property name="kdenlive:original.mute_on_pause">1</property>
  <property name="kdenlive:original.mlt_service">avformat</property>
  <property name="kdenlive:original.meta.media.frame_rate_num">60</property>
  <property name="kdenlive:original.meta.media.frame_rate_den">1</property>
  <property name="kdenlive:original.meta.media.colorspace">709</property>
  <property name="kdenlive:original.meta.media.color_trc">2</property>
  <property name="kdenlive:original.meta.media.width">3840</property>
  <property name="kdenlive:original.meta.media.height">2160</property>
  <property name="kdenlive:original.meta.media.color_range">mpeg</property>
  <property name="kdenlive:original.meta.media.top_field_first">0</property>
  <property name="kdenlive:original.meta.media.progressive">1</property>
  <property name="kdenlive:original.backup">1</property>
  <property name="xml">was here</property>
  <property name="meta.media.nb_streams">1</property>
  <property name="meta.media.0.stream.type">video</property>
  <property name="meta.media.0.stream.frame_rate">60</property>
  <property name="meta.media.0.stream.sample_aspect_ratio">0</property>
  <property name="meta.media.0.codec.width">640</property>
  <property name="meta.media.0.codec.height">360</property>
  <property name="meta.media.0.codec.rotate">0</property>
  <property name="meta.media.0.codec.frame_rate">60</property>
  <property name="meta.media.0.codec.pix_fmt">yuv420p</property>
  <property name="meta.media.0.codec.sample_aspect_ratio">0</property>
  <property name="meta.media.0.codec.colorspace">601</property>
  <property name="meta.media.0.codec.name">h264</property>
  <property name="meta.media.0.codec.long_name">H.264 / AVC / MPEG-4 AVC / MPEG-4 part 10</property>
  <property name="meta.media.0.codec.bit_rate">0</property>
  <property name="meta.attr.0.stream.HANDLER_NAME.markup">VideoHandler</property>
  <property name="meta.attr.0.stream.VENDOR_ID.markup">[0][0][0][0]</property>
  <property name="meta.attr.0.stream.ENCODER.markup">Lavc58.134.100 libx264</property>
  <property name="meta.attr.0.stream.DURATION.markup">00:00:07.050000000</property>
  <property name="meta.attr.COMMENT.markup">Rendered with Manim Community v0.6.0</property>
  <property name="meta.attr.MAJOR_BRAND.markup">isom</property>
  <property name="meta.attr.MINOR_VERSION.markup">512</property>
  <property name="meta.attr.COMPATIBLE_BRANDS.markup">isomiso2avc1mp41</property>
  <property name="meta.attr.ENCODER.markup">Lavf58.76.100</property>
  <property name="meta.media.sample_aspect_num">1</property>
  <property name="meta.media.sample_aspect_den">1</property>
  <property name="meta.media.frame_rate_num">60</property>
  <property name="meta.media.frame_rate_den">1</property>
  <property name="meta.media.colorspace">601</property>
  <property name="meta.media.color_trc">2</property>
  <property name="meta.media.width">640</property>
  <property name="meta.media.height">360</property>
  <property name="meta.media.color_range">mpeg</property>
  <property name="meta.media.top_field_first">0</property>
  <property name="meta.media.progressive">1</property>
  <property name="set.test_audio">1</property>
  <property name="set.test_image">0</property>
 </producer>
 <producer id="producer683" in="00:00:00.000" out="00:00:00.983">
  <property name="length">60</property>
  <property name="eof">pause</property>
  <property name="resource">/home/xiaoxiae/.cache/kdenlive/proxy/6d65083134b0b0eedddc153cd3574e43.mkv</property>
  <property name="audio_index">-1</property>
  <property name="video_index">0</property>
  <property name="mute_on_pause">0</property>
  <property name="mlt_service">avformat-novalidate</property>
  <property name="seekable">1</property>
  <property name="aspect_ratio">1</property>
  <property name="kdenlive:clipname">4.mp4</property>
  <property name="kdenlive:folderid">209</property>
  <property name="kdenlive:id">242</property>
  <property name="kdenlive:file_size">122594</property>
  <property name="kdenlive:file_hash">6d65083134b0b0eedddc153cd3574e43</property>
  <property name="kdenlive:proxy">/home/xiaoxiae/.cache/kdenlive/proxy/6d65083134b0b0eedddc153cd3574e43.mkv</property>
  <property name="kdenlive:originalurl">video/Lemma1/4.mp4</property>
  <property name="global_feed">1</property>
  <property name="kdenlive:original.mlt_type">producer</property>
  <property name="kdenlive:original.in">0</property>
  <property name="kdenlive:original.out">59</property>
  <property name="kdenlive:original.length">60</property>
  <property name="kdenlive:original.eof">pause</property>
  <property name="kdenlive:original.resource">video/Lemma1/4.mp4</property>
  <property name="kdenlive:original.meta.media.nb_streams">1</property>
  <property name="kdenlive:original.meta.media.0.stream.type">video</property>
  <property name="kdenlive:original.meta.media.0.stream.frame_rate">60</property>
  <property name="kdenlive:original.meta.media.0.stream.sample_aspect_ratio">0</property>
  <property name="kdenlive:original.meta.media.0.codec.width">3840</property>
  <property name="kdenlive:original.meta.media.0.codec.height">2160</property>
  <property name="kdenlive:original.meta.media.0.codec.rotate">0</property>
  <property name="kdenlive:original.meta.media.0.codec.frame_rate">60</property>
  <property name="kdenlive:original.meta.media.0.codec.pix_fmt">yuv420p</property>
  <property name="kdenlive:original.meta.media.0.codec.sample_aspect_ratio">0</property>
  <property name="kdenlive:original.meta.media.0.codec.colorspace">709</property>
  <property name="kdenlive:original.meta.media.0.codec.name">h264</property>
  <property name="kdenlive:original.meta.media.0.codec.long_name">H.264 / AVC / MPEG-4 AVC / MPEG-4 part 10</property>
  <property name="kdenlive:original.meta.media.0.codec.bit_rate">967704</property>
  <property name="kdenlive:original.meta.attr.0.stream.handler_name.markup">VideoHandler</property>
  <property name="kdenlive:original.meta.attr.0.stream.vendor_id.markup">[0][0][0][0]</property>
  <property name="kdenlive:original.meta.attr.major_brand.markup">isom</property>
  <property name="kdenlive:original.meta.attr.minor_version.markup">512</property>
  <property name="kdenlive:original.meta.attr.compatible_brands.markup">isomiso2avc1mp41</property>
  <property name="kdenlive:original.meta.attr.encoder.markup">Lavf58.76.100</property>
  <property name="kdenlive:original.meta.attr.comment.markup">Rendered with Manim Community v0.6.0</property>
  <property name="kdenlive:original.seekable">1</property>
  <property name="kdenlive:original.width">3840</property>
  <property name="kdenlive:original.height">2160</property>
  <property name="kdenlive:original.meta.media.sample_aspect_num">1</property>
  <property name="kdenlive:original.meta.media.sample_aspect_den">1</property>
  <property name="kdenlive:original.aspect_ratio">1</property>
  <property name="kdenlive:original.audio_index">-1</property>
  <property name="kdenlive:original.video_index">0</property>
  <property name="kdenlive:original.mute_on_pause">1</property>
  <property name="kdenlive:original.mlt_service">avformat</property>
  <property name="kdenlive:original.meta.media.frame_rate_num">60</property>
  <property name="kdenlive:original.meta.media.frame_rate_den">1</property>
  <property name="kdenlive:original.meta.media.colorspace">709</property>
  <property name="kdenlive:original.meta.media.color_trc">2</property>
  <property name="kdenlive:original.meta.media.width">3840</property>
  <property name="kdenlive:original.meta.media.height">2160</property>
  <property name="kdenlive:original.meta.media.color_range">mpeg</property>
  <property name="kdenlive:original.meta.media.top_field_first">0</property>
  <property name="kdenlive:original.meta.media.progressive">1</property>
  <property name="kdenlive:original.backup">1</property>
  <property name="xml">was here</property>
  <property name="meta.media.nb_streams">1</property>
  <property name="meta.media.0.stream.type">video</property>
  <property name="meta.media.0.stream.frame_rate">60</property>
  <property name="meta.media.0.stream.sample_aspect_ratio">0</property>
  <property name="meta.media.0.codec.width">640</property>
  <property name="meta.media.0.codec.height">360</property>
  <property name="meta.media.0.codec.rotate">0</property>
  <property name="meta.media.0.codec.frame_rate">60</property>
  <property name="meta.media.0.codec.pix_fmt">yuv420p</property>
  <property name="meta.media.0.codec.sample_aspect_ratio">0</property>
  <property name="meta.media.0.codec.colorspace">601</property>
  <property name="meta.media.0.codec.name">h264</property>
  <property name="meta.media.0.codec.long_name">H.264 / AVC / MPEG-4 AVC / MPEG-4 part 10</property>
  <property name="meta.media.0.codec.bit_rate">0</property>
  <property name="meta.attr.0.stream.HANDLER_NAME.markup">VideoHandler</property>
  <property name="meta.attr.0.stream.VENDOR_ID.markup">[0][0][0][0]</property>
  <property name="meta.attr.0.stream.ENCODER.markup">Lavc58.134.100 libx264</property>
  <property name="meta.attr.0.stream.DURATION.markup">00:00:01.000000000</property>
  <property name="meta.attr.COMMENT.markup">Rendered with Manim Community v0.6.0</property>
  <property name="meta.attr.MAJOR_BRAND.markup">isom</property>
  <property name="meta.attr.MINOR_VERSION.markup">512</property>
  <property name="meta.attr.COMPATIBLE_BRANDS.markup">isomiso2avc1mp41</property>
  <property name="meta.attr.ENCODER.markup">Lavf58.76.100</property>
  <property name="meta.media.sample_aspect_num">1</property>
  <property name="meta.media.sample_aspect_den">1</property>
  <property name="meta.media.frame_rate_num">60</property>
  <property name="meta.media.frame_rate_den">1</property>
  <property name="meta.media.colorspace">601</property>
  <property name="meta.media.color_trc">2</property>
  <property name="meta.media.width">640</property>
  <property name="meta.media.height">360</property>
  <property name="meta.media.color_range">mpeg</property>
  <property name="meta.media.top_field_first">0</property>
  <property name="meta.media.progressive">1</property>
  <property name="set.test_audio">1</property>
  <property name="set.test_image">0</property>
 </producer>
 <producer id="producer684" in="00:00:00.000" out="00:00:00.983">
  <property name="length">60</property>
  <property name="eof">pause</property>
  <property name="resource">/home/xiaoxiae/.cache/kdenlive/proxy/d8f20339d1b938d8e448a35e6e41529e.mkv</property>
  <property name="audio_index">-1</property>
  <property name="video_index">0</property>
  <property name="mute_on_pause">0</property>
  <property name="mlt_service">avformat-novalidate</property>
  <property name="seekable">1</property>
  <property name="aspect_ratio">1</property>
  <property name="kdenlive:clipname">5.mp4</property>
  <property name="kdenlive:folderid">209</property>
  <property name="kdenlive:id">244</property>
  <property name="kdenlive:file_size">434433</property>
  <property name="kdenlive:file_hash">d8f20339d1b938d8e448a35e6e41529e</property>
  <property name="kdenlive:proxy">/home/xiaoxiae/.cache/kdenlive/proxy/d8f20339d1b938d8e448a35e6e41529e.mkv</property>
  <property name="kdenlive:originalurl">video/Lemma1/5.mp4</property>
  <property name="global_feed">1</property>
  <property name="kdenlive:original.mlt_type">producer</property>
  <property name="kdenlive:original.in">0</property>
  <property name="kdenlive:original.out">59</property>
  <property name="kdenlive:original.length">60</property>
  <property name="kdenlive:original.eof">pause</property>
  <property name="kdenlive:original.resource">video/Lemma1/5.mp4</property>
  <property name="kdenlive:original.meta.media.nb_streams">1</property>
  <property name="kdenlive:original.meta.media.0.stream.type">video</property>
  <property name="kdenlive:original.meta.media.0.stream.frame_rate">60</property>
  <property name="kdenlive:original.meta.media.0.stream.sample_aspect_ratio">0</property>
  <property name="kdenlive:original.meta.media.0.codec.width">3840</property>
  <property name="kdenlive:original.meta.media.0.codec.height">2160</property>
  <property name="kdenlive:original.meta.media.0.codec.rotate">0</property>
  <property name="kdenlive:original.meta.media.0.codec.frame_rate">60</property>
  <property name="kdenlive:original.meta.media.0.codec.pix_fmt">yuv420p</property>
  <property name="kdenlive:original.meta.media.0.codec.sample_aspect_ratio">0</property>
  <property name="kdenlive:original.meta.media.0.codec.colorspace">709</property>
  <property name="kdenlive:original.meta.media.0.codec.name">h264</property>
  <property name="kdenlive:original.meta.media.0.codec.long_name">H.264 / AVC / MPEG-4 AVC / MPEG-4 part 10</property>
  <property name="kdenlive:original.meta.media.0.codec.bit_rate">3463568</property>
  <property name="kdenlive:original.meta.attr.0.stream.handler_name.markup">VideoHandler</property>
  <property name="kdenlive:original.meta.attr.0.stream.vendor_id.markup">[0][0][0][0]</property>
  <property name="kdenlive:original.meta.attr.major_brand.markup">isom</property>
  <property name="kdenlive:original.meta.attr.minor_version.markup">512</property>
  <property name="kdenlive:original.meta.attr.compatible_brands.markup">isomiso2avc1mp41</property>
  <property name="kdenlive:original.meta.attr.encoder.markup">Lavf58.76.100</property>
  <property name="kdenlive:original.meta.attr.comment.markup">Rendered with Manim Community v0.6.0</property>
  <property name="kdenlive:original.seekable">1</property>
  <property name="kdenlive:original.width">3840</property>
  <property name="kdenlive:original.height">2160</property>
  <property name="kdenlive:original.meta.media.sample_aspect_num">1</property>
  <property name="kdenlive:original.meta.media.sample_aspect_den">1</property>
  <property name="kdenlive:original.aspect_ratio">1</property>
  <property name="kdenlive:original.audio_index">-1</property>
  <property name="kdenlive:original.video_index">0</property>
  <property name="kdenlive:original.mute_on_pause">1</property>
  <property name="kdenlive:original.mlt_service">avformat</property>
  <property name="kdenlive:original.meta.media.frame_rate_num">60</property>
  <property name="kdenlive:original.meta.media.frame_rate_den">1</property>
  <property name="kdenlive:original.meta.media.colorspace">709</property>
  <property name="kdenlive:original.meta.media.color_trc">2</property>
  <property name="kdenlive:original.meta.media.width">3840</property>
  <property name="kdenlive:original.meta.media.height">2160</property>
  <property name="kdenlive:original.meta.media.color_range">mpeg</property>
  <property name="kdenlive:original.meta.media.top_field_first">0</property>
  <property name="kdenlive:original.meta.media.progressive">1</property>
  <property name="kdenlive:original.backup">1</property>
  <property name="xml">was here</property>
  <property name="meta.media.nb_streams">1</property>
  <property name="meta.media.0.stream.type">video</property>
  <property name="meta.media.0.stream.frame_rate">60</property>
  <property name="meta.media.0.stream.sample_aspect_ratio">0</property>
  <property name="meta.media.0.codec.width">640</property>
  <property name="meta.media.0.codec.height">360</property>
  <property name="meta.media.0.codec.rotate">0</property>
  <property name="meta.media.0.codec.frame_rate">60</property>
  <property name="meta.media.0.codec.pix_fmt">yuv420p</property>
  <property name="meta.media.0.codec.sample_aspect_ratio">0</property>
  <property name="meta.media.0.codec.colorspace">601</property>
  <property name="meta.media.0.codec.name">h264</property>
  <property name="meta.media.0.codec.long_name">H.264 / AVC / MPEG-4 AVC / MPEG-4 part 10</property>
  <property name="meta.media.0.codec.bit_rate">0</property>
  <property name="meta.attr.0.stream.HANDLER_NAME.markup">VideoHandler</property>
  <property name="meta.attr.0.stream.VENDOR_ID.markup">[0][0][0][0]</property>
  <property name="meta.attr.0.stream.ENCODER.markup">Lavc58.134.100 libx264</property>
  <property name="meta.attr.0.stream.DURATION.markup">00:00:01.000000000</property>
  <property name="meta.attr.COMMENT.markup">Rendered with Manim Community v0.6.0</property>
  <property name="meta.attr.MAJOR_BRAND.markup">isom</property>
  <property name="meta.attr.MINOR_VERSION.markup">512</property>
  <property name="meta.attr.COMPATIBLE_BRANDS.markup">isomiso2avc1mp41</property>
  <property name="meta.attr.ENCODER.markup">Lavf58.76.100</property>
  <property name="meta.media.sample_aspect_num">1</property>
  <property name="meta.media.sample_aspect_den">1</property>
  <property name="meta.media.frame_rate_num">60</property>
  <property name="meta.media.frame_rate_den">1</property>
  <property name="meta.media.colorspace">601</property>
  <property name="meta.media.color_trc">2</property>
  <property name="meta.media.width">640</property>
  <property name="meta.media.height">360</property>
  <property name="meta.media.color_range">mpeg</property>
  <property name="meta.media.top_field_first">0</property>
  <property name="meta.media.progressive">1</property>
  <property name="set.test_audio">1</property>
  <property name="set.test_image">0</property>
 </producer>
 <producer id="producer685" in="00:00:00.000" out="00:00:00.983">
  <property name="length">60</property>
  <property name="eof">pause</property>
  <property name="resource">/home/xiaoxiae/.cache/kdenlive/proxy/6e3a52fdbe37b9c66c5b28296d5d6a63.mkv</property>
  <property name="audio_index">-1</property>
  <property name="video_index">0</property>
  <property name="mute_on_pause">0</property>
  <property name="mlt_service">avformat-novalidate</property>
  <property name="seekable">1</property>
  <property name="aspect_ratio">1</property>
  <property name="kdenlive:clipname">6.mp4</property>
  <property name="kdenlive:folderid">209</property>
  <property name="kdenlive:id">246</property>
  <property name="kdenlive:file_size">107471</property>
  <property name="kdenlive:file_hash">6e3a52fdbe37b9c66c5b28296d5d6a63</property>
  <property name="kdenlive:proxy">/home/xiaoxiae/.cache/kdenlive/proxy/6e3a52fdbe37b9c66c5b28296d5d6a63.mkv</property>
  <property name="kdenlive:originalurl">video/Lemma1/6.mp4</property>
  <property name="global_feed">1</property>
  <property name="kdenlive:original.mlt_type">producer</property>
  <property name="kdenlive:original.in">0</property>
  <property name="kdenlive:original.out">59</property>
  <property name="kdenlive:original.length">60</property>
  <property name="kdenlive:original.eof">pause</property>
  <property name="kdenlive:original.resource">video/Lemma1/6.mp4</property>
  <property name="kdenlive:original.meta.media.nb_streams">1</property>
  <property name="kdenlive:original.meta.media.0.stream.type">video</property>
  <property name="kdenlive:original.meta.media.0.stream.frame_rate">60</property>
  <property name="kdenlive:original.meta.media.0.stream.sample_aspect_ratio">0</property>
  <property name="kdenlive:original.meta.media.0.codec.width">3840</property>
  <property name="kdenlive:original.meta.media.0.codec.height">2160</property>
  <property name="kdenlive:original.meta.media.0.codec.rotate">0</property>
  <property name="kdenlive:original.meta.media.0.codec.frame_rate">60</property>
  <property name="kdenlive:original.meta.media.0.codec.pix_fmt">yuv420p</property>
  <property name="kdenlive:original.meta.media.0.codec.sample_aspect_ratio">0</property>
  <property name="kdenlive:original.meta.media.0.codec.colorspace">709</property>
  <property name="kdenlive:original.meta.media.0.codec.name">h264</property>
  <property name="kdenlive:original.meta.media.0.codec.long_name">H.264 / AVC / MPEG-4 AVC / MPEG-4 part 10</property>
  <property name="kdenlive:original.meta.media.0.codec.bit_rate">846784</property>
  <property name="kdenlive:original.meta.attr.0.stream.handler_name.markup">VideoHandler</property>
  <property name="kdenlive:original.meta.attr.0.stream.vendor_id.markup">[0][0][0][0]</property>
  <property name="kdenlive:original.meta.attr.major_brand.markup">isom</property>
  <property name="kdenlive:original.meta.attr.minor_version.markup">512</property>
  <property name="kdenlive:original.meta.attr.compatible_brands.markup">isomiso2avc1mp41</property>
  <property name="kdenlive:original.meta.attr.encoder.markup">Lavf58.76.100</property>
  <property name="kdenlive:original.meta.attr.comment.markup">Rendered with Manim Community v0.6.0</property>
  <property name="kdenlive:original.seekable">1</property>
  <property name="kdenlive:original.width">3840</property>
  <property name="kdenlive:original.height">2160</property>
  <property name="kdenlive:original.meta.media.sample_aspect_num">1</property>
  <property name="kdenlive:original.meta.media.sample_aspect_den">1</property>
  <property name="kdenlive:original.aspect_ratio">1</property>
  <property name="kdenlive:original.audio_index">-1</property>
  <property name="kdenlive:original.video_index">0</property>
  <property name="kdenlive:original.mute_on_pause">1</property>
  <property name="kdenlive:original.mlt_service">avformat</property>
  <property name="kdenlive:original.meta.media.frame_rate_num">60</property>
  <property name="kdenlive:original.meta.media.frame_rate_den">1</property>
  <property name="kdenlive:original.meta.media.colorspace">709</property>
  <property name="kdenlive:original.meta.media.color_trc">2</property>
  <property name="kdenlive:original.meta.media.width">3840</property>
  <property name="kdenlive:original.meta.media.height">2160</property>
  <property name="kdenlive:original.meta.media.color_range">mpeg</property>
  <property name="kdenlive:original.meta.media.top_field_first">0</property>
  <property name="kdenlive:original.meta.media.progressive">1</property>
  <property name="kdenlive:original.backup">1</property>
  <property name="xml">was here</property>
  <property name="meta.media.nb_streams">1</property>
  <property name="meta.media.0.stream.type">video</property>
  <property name="meta.media.0.stream.frame_rate">60</property>
  <property name="meta.media.0.stream.sample_aspect_ratio">0</property>
  <property name="meta.media.0.codec.width">640</property>
  <property name="meta.media.0.codec.height">360</property>
  <property name="meta.media.0.codec.rotate">0</property>
  <property name="meta.media.0.codec.frame_rate">60</property>
  <property name="meta.media.0.codec.pix_fmt">yuv420p</property>
  <property name="meta.media.0.codec.sample_aspect_ratio">0</property>
  <property name="meta.media.0.codec.colorspace">601</property>
  <property name="meta.media.0.codec.name">h264</property>
  <property name="meta.media.0.codec.long_name">H.264 / AVC / MPEG-4 AVC / MPEG-4 part 10</property>
  <property name="meta.media.0.codec.bit_rate">0</property>
  <property name="meta.attr.0.stream.HANDLER_NAME.markup">VideoHandler</property>
  <property name="meta.attr.0.stream.VENDOR_ID.markup">[0][0][0][0]</property>
  <property name="meta.attr.0.stream.ENCODER.markup">Lavc58.134.100 libx264</property>
  <property name="meta.attr.0.stream.DURATION.markup">00:00:01.000000000</property>
  <property name="meta.attr.COMMENT.markup">Rendered with Manim Community v0.6.0</property>
  <property name="meta.attr.MAJOR_BRAND.markup">isom</property>
  <property name="meta.attr.MINOR_VERSION.markup">512</property>
  <property name="meta.attr.COMPATIBLE_BRANDS.markup">isomiso2avc1mp41</property>
  <property name="meta.attr.ENCODER.markup">Lavf58.76.100</property>
  <property name="meta.media.sample_aspect_num">1</property>
  <property name="meta.media.sample_aspect_den">1</property>
  <property name="meta.media.frame_rate_num">60</property>
  <property name="meta.media.frame_rate_den">1</property>
  <property name="meta.media.colorspace">601</property>
  <property name="meta.media.color_trc">2</property>
  <property name="meta.media.width">640</property>
  <property name="meta.media.height">360</property>
  <property name="meta.media.color_range">mpeg</property>
  <property name="meta.media.top_field_first">0</property>
  <property name="meta.media.progressive">1</property>
  <property name="set.test_audio">1</property>
  <property name="set.test_image">0</property>
 </producer>
 <producer id="producer686" in="00:00:00.000" out="00:00:00.983">
  <property name="length">60</property>
  <property name="eof">pause</property>
  <property name="resource">/home/xiaoxiae/.cache/kdenlive/proxy/a4a65150ab220a81db20602a60938136.mkv</property>
  <property name="audio_index">-1</property>
  <property name="video_index">0</property>
  <property name="mute_on_pause">0</property>
  <property name="mlt_service">avformat-novalidate</property>
  <property name="seekable">1</property>
  <property name="aspect_ratio">1</property>
  <property name="kdenlive:clipname">7.mp4</property>
  <property name="kdenlive:folderid">209</property>
  <property name="kdenlive:id">248</property>
  <property name="kdenlive:file_size">109529</property>
  <property name="kdenlive:file_hash">a4a65150ab220a81db20602a60938136</property>
  <property name="kdenlive:proxy">/home/xiaoxiae/.cache/kdenlive/proxy/a4a65150ab220a81db20602a60938136.mkv</property>
  <property name="kdenlive:originalurl">video/Lemma1/7.mp4</property>
  <property name="global_feed">1</property>
  <property name="kdenlive:original.mlt_type">producer</property>
  <property name="kdenlive:original.in">0</property>
  <property name="kdenlive:original.out">59</property>
  <property name="kdenlive:original.length">60</property>
  <property name="kdenlive:original.eof">pause</property>
  <property name="kdenlive:original.resource">video/Lemma1/7.mp4</property>
  <property name="kdenlive:original.meta.media.nb_streams">1</property>
  <property name="kdenlive:original.meta.media.0.stream.type">video</property>
  <property name="kdenlive:original.meta.media.0.stream.frame_rate">60</property>
  <property name="kdenlive:original.meta.media.0.stream.sample_aspect_ratio">0</property>
  <property name="kdenlive:original.meta.media.0.codec.width">3840</property>
  <property name="kdenlive:original.meta.media.0.codec.height">2160</property>
  <property name="kdenlive:original.meta.media.0.codec.rotate">0</property>
  <property name="kdenlive:original.meta.media.0.codec.frame_rate">60</property>
  <property name="kdenlive:original.meta.media.0.codec.pix_fmt">yuv420p</property>
  <property name="kdenlive:original.meta.media.0.codec.sample_aspect_ratio">0</property>
  <property name="kdenlive:original.meta.media.0.codec.colorspace">709</property>
  <property name="kdenlive:original.meta.media.0.codec.name">h264</property>
  <property name="kdenlive:original.meta.media.0.codec.long_name">H.264 / AVC / MPEG-4 AVC / MPEG-4 part 10</property>
  <property name="kdenlive:original.meta.media.0.codec.bit_rate">863184</property>
  <property name="kdenlive:original.meta.attr.0.stream.handler_name.markup">VideoHandler</property>
  <property name="kdenlive:original.meta.attr.0.stream.vendor_id.markup">[0][0][0][0]</property>
  <property name="kdenlive:original.meta.attr.major_brand.markup">isom</property>
  <property name="kdenlive:original.meta.attr.minor_version.markup">512</property>
  <property name="kdenlive:original.meta.attr.compatible_brands.markup">isomiso2avc1mp41</property>
  <property name="kdenlive:original.meta.attr.encoder.markup">Lavf58.76.100</property>
  <property name="kdenlive:original.meta.attr.comment.markup">Rendered with Manim Community v0.6.0</property>
  <property name="kdenlive:original.seekable">1</property>
  <property name="kdenlive:original.width">3840</property>
  <property name="kdenlive:original.height">2160</property>
  <property name="kdenlive:original.meta.media.sample_aspect_num">1</property>
  <property name="kdenlive:original.meta.media.sample_aspect_den">1</property>
  <property name="kdenlive:original.aspect_ratio">1</property>
  <property name="kdenlive:original.audio_index">-1</property>
  <property name="kdenlive:original.video_index">0</property>
  <property name="kdenlive:original.mute_on_pause">1</property>
  <property name="kdenlive:original.mlt_service">avformat</property>
  <property name="kdenlive:original.meta.media.frame_rate_num">60</property>
  <property name="kdenlive:original.meta.media.frame_rate_den">1</property>
  <property name="kdenlive:original.meta.media.colorspace">709</property>
  <property name="kdenlive:original.meta.media.color_trc">2</property>
  <property name="kdenlive:original.meta.media.width">3840</property>
  <property name="kdenlive:original.meta.media.height">2160</property>
  <property name="kdenlive:original.meta.media.color_range">mpeg</property>
  <property name="kdenlive:original.meta.media.top_field_first">0</property>
  <property name="kdenlive:original.meta.media.progressive">1</property>
  <property name="kdenlive:original.backup">1</property>
  <property name="xml">was here</property>
  <property name="meta.media.nb_streams">1</property>
  <property name="meta.media.0.stream.type">video</property>
  <property name="meta.media.0.stream.frame_rate">60</property>
  <property name="meta.media.0.stream.sample_aspect_ratio">0</property>
  <property name="meta.media.0.codec.width">640</property>
  <property name="meta.media.0.codec.height">360</property>
  <property name="meta.media.0.codec.rotate">0</property>
  <property name="meta.media.0.codec.frame_rate">60</property>
  <property name="meta.media.0.codec.pix_fmt">yuv420p</property>
  <property name="meta.media.0.codec.sample_aspect_ratio">0</property>
  <property name="meta.media.0.codec.colorspace">601</property>
  <property name="meta.media.0.codec.name">h264</property>
  <property name="meta.media.0.codec.long_name">H.264 / AVC / MPEG-4 AVC / MPEG-4 part 10</property>
  <property name="meta.media.0.codec.bit_rate">0</property>
  <property name="meta.attr.0.stream.HANDLER_NAME.markup">VideoHandler</property>
  <property name="meta.attr.0.stream.VENDOR_ID.markup">[0][0][0][0]</property>
  <property name="meta.attr.0.stream.ENCODER.markup">Lavc58.134.100 libx264</property>
  <property name="meta.attr.0.stream.DURATION.markup">00:00:01.000000000</property>
  <property name="meta.attr.COMMENT.markup">Rendered with Manim Community v0.6.0</property>
  <property name="meta.attr.MAJOR_BRAND.markup">isom</property>
  <property name="meta.attr.MINOR_VERSION.markup">512</property>
  <property name="meta.attr.COMPATIBLE_BRANDS.markup">isomiso2avc1mp41</property>
  <property name="meta.attr.ENCODER.markup">Lavf58.76.100</property>
  <property name="meta.media.sample_aspect_num">1</property>
  <property name="meta.media.sample_aspect_den">1</property>
  <property name="meta.media.frame_rate_num">60</property>
  <property name="meta.media.frame_rate_den">1</property>
  <property name="meta.media.colorspace">601</property>
  <property name="meta.media.color_trc">2</property>
  <property name="meta.media.width">640</property>
  <property name="meta.media.height">360</property>
  <property name="meta.media.color_range">mpeg</property>
  <property name="meta.media.top_field_first">0</property>
  <property name="meta.media.progressive">1</property>
  <property name="set.test_audio">1</property>
  <property name="set.test_image">0</property>
 </producer>
 <producer id="producer687" in="00:00:00.000" out="00:00:01.983">
  <property name="length">120</property>
  <property name="eof">pause</property>
  <property name="resource">/home/xiaoxiae/.cache/kdenlive/proxy/4ce2b82bb966a326c6dd781c1517d877.mkv</property>
  <property name="audio_index">-1</property>
  <property name="video_index">0</property>
  <property name="mute_on_pause">0</property>
  <property name="mlt_service">avformat-novalidate</property>
  <property name="seekable">1</property>
  <property name="aspect_ratio">1</property>
  <property name="kdenlive:clipname">8.mp4</property>
  <property name="kdenlive:folderid">209</property>
  <property name="kdenlive:id">250</property>
  <property name="kdenlive:file_size">231728</property>
  <property name="kdenlive:file_hash">4ce2b82bb966a326c6dd781c1517d877</property>
  <property name="kdenlive:proxy">/home/xiaoxiae/.cache/kdenlive/proxy/4ce2b82bb966a326c6dd781c1517d877.mkv</property>
  <property name="kdenlive:originalurl">video/Lemma1/8.mp4</property>
  <property name="global_feed">1</property>
  <property name="kdenlive:original.mlt_type">producer</property>
  <property name="kdenlive:original.in">0</property>
  <property name="kdenlive:original.out">119</property>
  <property name="kdenlive:original.length">120</property>
  <property name="kdenlive:original.eof">pause</property>
  <property name="kdenlive:original.resource">video/Lemma1/8.mp4</property>
  <property name="kdenlive:original.meta.media.nb_streams">1</property>
  <property name="kdenlive:original.meta.media.0.stream.type">video</property>
  <property name="kdenlive:original.meta.media.0.stream.frame_rate">60</property>
  <property name="kdenlive:original.meta.media.0.stream.sample_aspect_ratio">0</property>
  <property name="kdenlive:original.meta.media.0.codec.width">3840</property>
  <property name="kdenlive:original.meta.media.0.codec.height">2160</property>
  <property name="kdenlive:original.meta.media.0.codec.rotate">0</property>
  <property name="kdenlive:original.meta.media.0.codec.frame_rate">60</property>
  <property name="kdenlive:original.meta.media.0.codec.pix_fmt">yuv420p</property>
  <property name="kdenlive:original.meta.media.0.codec.sample_aspect_ratio">0</property>
  <property name="kdenlive:original.meta.media.0.codec.colorspace">709</property>
  <property name="kdenlive:original.meta.media.0.codec.name">h264</property>
  <property name="kdenlive:original.meta.media.0.codec.long_name">H.264 / AVC / MPEG-4 AVC / MPEG-4 part 10</property>
  <property name="kdenlive:original.meta.media.0.codec.bit_rate">917508</property>
  <property name="kdenlive:original.meta.attr.0.stream.handler_name.markup">VideoHandler</property>
  <property name="kdenlive:original.meta.attr.0.stream.vendor_id.markup">[0][0][0][0]</property>
  <property name="kdenlive:original.meta.attr.major_brand.markup">isom</property>
  <property name="kdenlive:original.meta.attr.minor_version.markup">512</property>
  <property name="kdenlive:original.meta.attr.compatible_brands.markup">isomiso2avc1mp41</property>
  <property name="kdenlive:original.meta.attr.encoder.markup">Lavf58.76.100</property>
  <property name="kdenlive:original.meta.attr.comment.markup">Rendered with Manim Community v0.6.0</property>
  <property name="kdenlive:original.seekable">1</property>
  <property name="kdenlive:original.width">3840</property>
  <property name="kdenlive:original.height">2160</property>
  <property name="kdenlive:original.meta.media.sample_aspect_num">1</property>
  <property name="kdenlive:original.meta.media.sample_aspect_den">1</property>
  <property name="kdenlive:original.aspect_ratio">1</property>
  <property name="kdenlive:original.audio_index">-1</property>
  <property name="kdenlive:original.video_index">0</property>
  <property name="kdenlive:original.mute_on_pause">1</property>
  <property name="kdenlive:original.mlt_service">avformat</property>
  <property name="kdenlive:original.meta.media.frame_rate_num">60</property>
  <property name="kdenlive:original.meta.media.frame_rate_den">1</property>
  <property name="kdenlive:original.meta.media.colorspace">709</property>
  <property name="kdenlive:original.meta.media.color_trc">2</property>
  <property name="kdenlive:original.meta.media.width">3840</property>
  <property name="kdenlive:original.meta.media.height">2160</property>
  <property name="kdenlive:original.meta.media.color_range">mpeg</property>
  <property name="kdenlive:original.meta.media.top_field_first">0</property>
  <property name="kdenlive:original.meta.media.progressive">1</property>
  <property name="kdenlive:original.backup">1</property>
  <property name="xml">was here</property>
  <property name="meta.media.nb_streams">1</property>
  <property name="meta.media.0.stream.type">video</property>
  <property name="meta.media.0.stream.frame_rate">60</property>
  <property name="meta.media.0.stream.sample_aspect_ratio">0</property>
  <property name="meta.media.0.codec.width">640</property>
  <property name="meta.media.0.codec.height">360</property>
  <property name="meta.media.0.codec.rotate">0</property>
  <property name="meta.media.0.codec.frame_rate">60</property>
  <property name="meta.media.0.codec.pix_fmt">yuv420p</property>
  <property name="meta.media.0.codec.sample_aspect_ratio">0</property>
  <property name="meta.media.0.codec.colorspace">601</property>
  <property name="meta.media.0.codec.name">h264</property>
  <property name="meta.media.0.codec.long_name">H.264 / AVC / MPEG-4 AVC / MPEG-4 part 10</property>
  <property name="meta.media.0.codec.bit_rate">0</property>
  <property name="meta.attr.0.stream.HANDLER_NAME.markup">VideoHandler</property>
  <property name="meta.attr.0.stream.VENDOR_ID.markup">[0][0][0][0]</property>
  <property name="meta.attr.0.stream.ENCODER.markup">Lavc58.134.100 libx264</property>
  <property name="meta.attr.0.stream.DURATION.markup">00:00:02.000000000</property>
  <property name="meta.attr.COMMENT.markup">Rendered with Manim Community v0.6.0</property>
  <property name="meta.attr.MAJOR_BRAND.markup">isom</property>
  <property name="meta.attr.MINOR_VERSION.markup">512</property>
  <property name="meta.attr.COMPATIBLE_BRANDS.markup">isomiso2avc1mp41</property>
  <property name="meta.attr.ENCODER.markup">Lavf58.76.100</property>
  <property name="meta.media.sample_aspect_num">1</property>
  <property name="meta.media.sample_aspect_den">1</property>
  <property name="meta.media.frame_rate_num">60</property>
  <property name="meta.media.frame_rate_den">1</property>
  <property name="meta.media.colorspace">601</property>
  <property name="meta.media.color_trc">2</property>
  <property name="meta.media.width">640</property>
  <property name="meta.media.height">360</property>
  <property name="meta.media.color_range">mpeg</property>
  <property name="meta.media.top_field_first">0</property>
  <property name="meta.media.progressive">1</property>
  <property name="set.test_audio">1</property>
  <property name="set.test_image">0</property>
 </producer>
 <producer id="producer688" in="00:00:00.000" out="00:00:00.983">
  <property name="length">60</property>
  <property name="eof">pause</property>
  <property name="resource">/home/xiaoxiae/.cache/kdenlive/proxy/ac777e3c7188d2ad21d76823b29fd27a.mkv</property>
  <property name="audio_index">-1</property>
  <property name="video_index">0</property>
  <property name="mute_on_pause">0</property>
  <property name="mlt_service">avformat-novalidate</property>
  <property name="seekable">1</property>
  <property name="aspect_ratio">1</property>
  <property name="kdenlive:clipname">9.mp4</property>
  <property name="kdenlive:folderid">209</property>
  <property name="kdenlive:id">252</property>
  <property name="kdenlive:file_size">176187</property>
  <property name="kdenlive:file_hash">ac777e3c7188d2ad21d76823b29fd27a</property>
  <property name="kdenlive:proxy">/home/xiaoxiae/.cache/kdenlive/proxy/ac777e3c7188d2ad21d76823b29fd27a.mkv</property>
  <property name="kdenlive:originalurl">video/Lemma1/9.mp4</property>
  <property name="global_feed">1</property>
  <property name="kdenlive:original.mlt_type">producer</property>
  <property name="kdenlive:original.in">0</property>
  <property name="kdenlive:original.out">59</property>
  <property name="kdenlive:original.length">60</property>
  <property name="kdenlive:original.eof">pause</property>
  <property name="kdenlive:original.resource">video/Lemma1/9.mp4</property>
  <property name="kdenlive:original.meta.media.nb_streams">1</property>
  <property name="kdenlive:original.meta.media.0.stream.type">video</property>
  <property name="kdenlive:original.meta.media.0.stream.frame_rate">60</property>
  <property name="kdenlive:original.meta.media.0.stream.sample_aspect_ratio">0</property>
  <property name="kdenlive:original.meta.media.0.codec.width">3840</property>
  <property name="kdenlive:original.meta.media.0.codec.height">2160</property>
  <property name="kdenlive:original.meta.media.0.codec.rotate">0</property>
  <property name="kdenlive:original.meta.media.0.codec.frame_rate">60</property>
  <property name="kdenlive:original.meta.media.0.codec.pix_fmt">yuv420p</property>
  <property name="kdenlive:original.meta.media.0.codec.sample_aspect_ratio">0</property>
  <property name="kdenlive:original.meta.media.0.codec.colorspace">709</property>
  <property name="kdenlive:original.meta.media.0.codec.name">h264</property>
  <property name="kdenlive:original.meta.media.0.codec.long_name">H.264 / AVC / MPEG-4 AVC / MPEG-4 part 10</property>
  <property name="kdenlive:original.meta.media.0.codec.bit_rate">1396448</property>
  <property name="kdenlive:original.meta.attr.0.stream.handler_name.markup">VideoHandler</property>
  <property name="kdenlive:original.meta.attr.0.stream.vendor_id.markup">[0][0][0][0]</property>
  <property name="kdenlive:original.meta.attr.major_brand.markup">isom</property>
  <property name="kdenlive:original.meta.attr.minor_version.markup">512</property>
  <property name="kdenlive:original.meta.attr.compatible_brands.markup">isomiso2avc1mp41</property>
  <property name="kdenlive:original.meta.attr.encoder.markup">Lavf58.76.100</property>
  <property name="kdenlive:original.meta.attr.comment.markup">Rendered with Manim Community v0.6.0</property>
  <property name="kdenlive:original.seekable">1</property>
  <property name="kdenlive:original.width">3840</property>
  <property name="kdenlive:original.height">2160</property>
  <property name="kdenlive:original.meta.media.sample_aspect_num">1</property>
  <property name="kdenlive:original.meta.media.sample_aspect_den">1</property>
  <property name="kdenlive:original.aspect_ratio">1</property>
  <property name="kdenlive:original.audio_index">-1</property>
  <property name="kdenlive:original.video_index">0</property>
  <property name="kdenlive:original.mute_on_pause">1</property>
  <property name="kdenlive:original.mlt_service">avformat</property>
  <property name="kdenlive:original.meta.media.frame_rate_num">60</property>
  <property name="kdenlive:original.meta.media.frame_rate_den">1</property>
  <property name="kdenlive:original.meta.media.colorspace">709</property>
  <property name="kdenlive:original.meta.media.color_trc">2</property>
  <property name="kdenlive:original.meta.media.width">3840</property>
  <property name="kdenlive:original.meta.media.height">2160</property>
  <property name="kdenlive:original.meta.media.color_range">mpeg</property>
  <property name="kdenlive:original.meta.media.top_field_first">0</property>
  <property name="kdenlive:original.meta.media.progressive">1</property>
  <property name="kdenlive:original.backup">1</property>
  <property name="xml">was here</property>
  <property name="meta.media.nb_streams">1</property>
  <property name="meta.media.0.stream.type">video</property>
  <property name="meta.media.0.stream.frame_rate">60</property>
  <property name="meta.media.0.stream.sample_aspect_ratio">0</property>
  <property name="meta.media.0.codec.width">640</property>
  <property name="meta.media.0.codec.height">360</property>
  <property name="meta.media.0.codec.rotate">0</property>
  <property name="meta.media.0.codec.frame_rate">60</property>
  <property name="meta.media.0.codec.pix_fmt">yuv420p</property>
  <property name="meta.media.0.codec.sample_aspect_ratio">0</property>
  <property name="meta.media.0.codec.colorspace">601</property>
  <property name="meta.media.0.codec.name">h264</property>
  <property name="meta.media.0.codec.long_name">H.264 / AVC / MPEG-4 AVC / MPEG-4 part 10</property>
  <property name="meta.media.0.codec.bit_rate">0</property>
  <property name="meta.attr.0.stream.HANDLER_NAME.markup">VideoHandler</property>
  <property name="meta.attr.0.stream.VENDOR_ID.markup">[0][0][0][0]</property>
  <property name="meta.attr.0.stream.ENCODER.markup">Lavc58.134.100 libx264</property>
  <property name="meta.attr.0.stream.DURATION.markup">00:00:01.000000000</property>
  <property name="meta.attr.COMMENT.markup">Rendered with Manim Community v0.6.0</property>
  <property name="meta.attr.MAJOR_BRAND.markup">isom</property>
  <property name="meta.attr.MINOR_VERSION.markup">512</property>
  <property name="meta.attr.COMPATIBLE_BRANDS.markup">isomiso2avc1mp41</property>
  <property name="meta.attr.ENCODER.markup">Lavf58.76.100</property>
  <property name="meta.media.sample_aspect_num">1</property>
  <property name="meta.media.sample_aspect_den">1</property>
  <property name="meta.media.frame_rate_num">60</property>
  <property name="meta.media.frame_rate_den">1</property>
  <property name="meta.media.colorspace">601</property>
  <property name="meta.media.color_trc">2</property>
  <property name="meta.media.width">640</property>
  <property name="meta.media.height">360</property>
  <property name="meta.media.color_range">mpeg</property>
  <property name="meta.media.top_field_first">0</property>
  <property name="meta.media.progressive">1</property>
  <property name="set.test_audio">1</property>
  <property name="set.test_image">0</property>
 </producer>
 <producer id="producer689" in="00:00:00.000" out="00:00:00.983">
  <property name="length">60</property>
  <property name="eof">pause</property>
  <property name="resource">/home/xiaoxiae/.cache/kdenlive/proxy/74adb60aef614b1d3d0300d565509752.mkv</property>
  <property name="audio_index">-1</property>
  <property name="video_index">0</property>
  <property name="mute_on_pause">0</property>
  <property name="mlt_service">avformat-novalidate</property>
  <property name="seekable">1</property>
  <property name="aspect_ratio">1</property>
  <property name="kdenlive:clipname">10.mp4</property>
  <property name="kdenlive:folderid">209</property>
  <property name="kdenlive:id">212</property>
  <property name="kdenlive:file_size">201887</property>
  <property name="kdenlive:file_hash">74adb60aef614b1d3d0300d565509752</property>
  <property name="kdenlive:proxy">/home/xiaoxiae/.cache/kdenlive/proxy/74adb60aef614b1d3d0300d565509752.mkv</property>
  <property name="kdenlive:originalurl">video/Lemma1/10.mp4</property>
  <property name="global_feed">1</property>
  <property name="kdenlive:original.mlt_type">producer</property>
  <property name="kdenlive:original.in">0</property>
  <property name="kdenlive:original.out">59</property>
  <property name="kdenlive:original.length">60</property>
  <property name="kdenlive:original.eof">pause</property>
  <property name="kdenlive:original.resource">video/Lemma1/10.mp4</property>
  <property name="kdenlive:original.meta.media.nb_streams">1</property>
  <property name="kdenlive:original.meta.media.0.stream.type">video</property>
  <property name="kdenlive:original.meta.media.0.stream.frame_rate">60</property>
  <property name="kdenlive:original.meta.media.0.stream.sample_aspect_ratio">0</property>
  <property name="kdenlive:original.meta.media.0.codec.width">3840</property>
  <property name="kdenlive:original.meta.media.0.codec.height">2160</property>
  <property name="kdenlive:original.meta.media.0.codec.rotate">0</property>
  <property name="kdenlive:original.meta.media.0.codec.frame_rate">60</property>
  <property name="kdenlive:original.meta.media.0.codec.pix_fmt">yuv420p</property>
  <property name="kdenlive:original.meta.media.0.codec.sample_aspect_ratio">0</property>
  <property name="kdenlive:original.meta.media.0.codec.colorspace">709</property>
  <property name="kdenlive:original.meta.media.0.codec.name">h264</property>
  <property name="kdenlive:original.meta.media.0.codec.long_name">H.264 / AVC / MPEG-4 AVC / MPEG-4 part 10</property>
  <property name="kdenlive:original.meta.media.0.codec.bit_rate">1602304</property>
  <property name="kdenlive:original.meta.attr.0.stream.handler_name.markup">VideoHandler</property>
  <property name="kdenlive:original.meta.attr.0.stream.vendor_id.markup">[0][0][0][0]</property>
  <property name="kdenlive:original.meta.attr.major_brand.markup">isom</property>
  <property name="kdenlive:original.meta.attr.minor_version.markup">512</property>
  <property name="kdenlive:original.meta.attr.compatible_brands.markup">isomiso2avc1mp41</property>
  <property name="kdenlive:original.meta.attr.encoder.markup">Lavf58.76.100</property>
  <property name="kdenlive:original.meta.attr.comment.markup">Rendered with Manim Community v0.6.0</property>
  <property name="kdenlive:original.seekable">1</property>
  <property name="kdenlive:original.width">3840</property>
  <property name="kdenlive:original.height">2160</property>
  <property name="kdenlive:original.meta.media.sample_aspect_num">1</property>
  <property name="kdenlive:original.meta.media.sample_aspect_den">1</property>
  <property name="kdenlive:original.aspect_ratio">1</property>
  <property name="kdenlive:original.audio_index">-1</property>
  <property name="kdenlive:original.video_index">0</property>
  <property name="kdenlive:original.mute_on_pause">1</property>
  <property name="kdenlive:original.mlt_service">avformat</property>
  <property name="kdenlive:original.meta.media.frame_rate_num">60</property>
  <property name="kdenlive:original.meta.media.frame_rate_den">1</property>
  <property name="kdenlive:original.meta.media.colorspace">709</property>
  <property name="kdenlive:original.meta.media.color_trc">2</property>
  <property name="kdenlive:original.meta.media.width">3840</property>
  <property name="kdenlive:original.meta.media.height">2160</property>
  <property name="kdenlive:original.meta.media.color_range">mpeg</property>
  <property name="kdenlive:original.meta.media.top_field_first">0</property>
  <property name="kdenlive:original.meta.media.progressive">1</property>
  <property name="kdenlive:original.backup">1</property>
  <property name="xml">was here</property>
  <property name="meta.media.nb_streams">1</property>
  <property name="meta.media.0.stream.type">video</property>
  <property name="meta.media.0.stream.frame_rate">60</property>
  <property name="meta.media.0.stream.sample_aspect_ratio">0</property>
  <property name="meta.media.0.codec.width">640</property>
  <property name="meta.media.0.codec.height">360</property>
  <property name="meta.media.0.codec.rotate">0</property>
  <property name="meta.media.0.codec.frame_rate">60</property>
  <property name="meta.media.0.codec.pix_fmt">yuv420p</property>
  <property name="meta.media.0.codec.sample_aspect_ratio">0</property>
  <property name="meta.media.0.codec.colorspace">601</property>
  <property name="meta.media.0.codec.name">h264</property>
  <property name="meta.media.0.codec.long_name">H.264 / AVC / MPEG-4 AVC / MPEG-4 part 10</property>
  <property name="meta.media.0.codec.bit_rate">0</property>
  <property name="meta.attr.0.stream.HANDLER_NAME.markup">VideoHandler</property>
  <property name="meta.attr.0.stream.VENDOR_ID.markup">[0][0][0][0]</property>
  <property name="meta.attr.0.stream.ENCODER.markup">Lavc58.134.100 libx264</property>
  <property name="meta.attr.0.stream.DURATION.markup">00:00:01.000000000</property>
  <property name="meta.attr.COMMENT.markup">Rendered with Manim Community v0.6.0</property>
  <property name="meta.attr.MAJOR_BRAND.markup">isom</property>
  <property name="meta.attr.MINOR_VERSION.markup">512</property>
  <property name="meta.attr.COMPATIBLE_BRANDS.markup">isomiso2avc1mp41</property>
  <property name="meta.attr.ENCODER.markup">Lavf58.76.100</property>
  <property name="meta.media.sample_aspect_num">1</property>
  <property name="meta.media.sample_aspect_den">1</property>
  <property name="meta.media.frame_rate_num">60</property>
  <property name="meta.media.frame_rate_den">1</property>
  <property name="meta.media.colorspace">601</property>
  <property name="meta.media.color_trc">2</property>
  <property name="meta.media.width">640</property>
  <property name="meta.media.height">360</property>
  <property name="meta.media.color_range">mpeg</property>
  <property name="meta.media.top_field_first">0</property>
  <property name="meta.media.progressive">1</property>
  <property name="set.test_audio">1</property>
  <property name="set.test_image">0</property>
 </producer>
 <producer id="producer690" in="00:00:00.000" out="00:00:00.983">
  <property name="length">60</property>
  <property name="eof">pause</property>
  <property name="resource">/home/xiaoxiae/.cache/kdenlive/proxy/0278365b0aff644fc2ba587a0cc73e41.mkv</property>
  <property name="audio_index">-1</property>
  <property name="video_index">0</property>
  <property name="mute_on_pause">0</property>
  <property name="mlt_service">avformat-novalidate</property>
  <property name="seekable">1</property>
  <property name="aspect_ratio">1</property>
  <property name="kdenlive:clipname">11.mp4</property>
  <property name="kdenlive:folderid">209</property>
  <property name="kdenlive:id">214</property>
  <property name="kdenlive:file_size">184067</property>
  <property name="kdenlive:file_hash">0278365b0aff644fc2ba587a0cc73e41</property>
  <property name="kdenlive:proxy">/home/xiaoxiae/.cache/kdenlive/proxy/0278365b0aff644fc2ba587a0cc73e41.mkv</property>
  <property name="kdenlive:originalurl">video/Lemma1/11.mp4</property>
  <property name="global_feed">1</property>
  <property name="kdenlive:original.mlt_type">producer</property>
  <property name="kdenlive:original.in">0</property>
  <property name="kdenlive:original.out">59</property>
  <property name="kdenlive:original.length">60</property>
  <property name="kdenlive:original.eof">pause</property>
  <property name="kdenlive:original.resource">video/Lemma1/11.mp4</property>
  <property name="kdenlive:original.meta.media.nb_streams">1</property>
  <property name="kdenlive:original.meta.media.0.stream.type">video</property>
  <property name="kdenlive:original.meta.media.0.stream.frame_rate">60</property>
  <property name="kdenlive:original.meta.media.0.stream.sample_aspect_ratio">0</property>
  <property name="kdenlive:original.meta.media.0.codec.width">3840</property>
  <property name="kdenlive:original.meta.media.0.codec.height">2160</property>
  <property name="kdenlive:original.meta.media.0.codec.rotate">0</property>
  <property name="kdenlive:original.meta.media.0.codec.frame_rate">60</property>
  <property name="kdenlive:original.meta.media.0.codec.pix_fmt">yuv420p</property>
  <property name="kdenlive:original.meta.media.0.codec.sample_aspect_ratio">0</property>
  <property name="kdenlive:original.meta.media.0.codec.colorspace">709</property>
  <property name="kdenlive:original.meta.media.0.codec.name">h264</property>
  <property name="kdenlive:original.meta.media.0.codec.long_name">H.264 / AVC / MPEG-4 AVC / MPEG-4 part 10</property>
  <property name="kdenlive:original.meta.media.0.codec.bit_rate">1459488</property>
  <property name="kdenlive:original.meta.attr.0.stream.handler_name.markup">VideoHandler</property>
  <property name="kdenlive:original.meta.attr.0.stream.vendor_id.markup">[0][0][0][0]</property>
  <property name="kdenlive:original.meta.attr.major_brand.markup">isom</property>
  <property name="kdenlive:original.meta.attr.minor_version.markup">512</property>
  <property name="kdenlive:original.meta.attr.compatible_brands.markup">isomiso2avc1mp41</property>
  <property name="kdenlive:original.meta.attr.encoder.markup">Lavf58.76.100</property>
  <property name="kdenlive:original.meta.attr.comment.markup">Rendered with Manim Community v0.6.0</property>
  <property name="kdenlive:original.seekable">1</property>
  <property name="kdenlive:original.width">3840</property>
  <property name="kdenlive:original.height">2160</property>
  <property name="kdenlive:original.meta.media.sample_aspect_num">1</property>
  <property name="kdenlive:original.meta.media.sample_aspect_den">1</property>
  <property name="kdenlive:original.aspect_ratio">1</property>
  <property name="kdenlive:original.audio_index">-1</property>
  <property name="kdenlive:original.video_index">0</property>
  <property name="kdenlive:original.mute_on_pause">1</property>
  <property name="kdenlive:original.mlt_service">avformat</property>
  <property name="kdenlive:original.meta.media.frame_rate_num">60</property>
  <property name="kdenlive:original.meta.media.frame_rate_den">1</property>
  <property name="kdenlive:original.meta.media.colorspace">709</property>
  <property name="kdenlive:original.meta.media.color_trc">2</property>
  <property name="kdenlive:original.meta.media.width">3840</property>
  <property name="kdenlive:original.meta.media.height">2160</property>
  <property name="kdenlive:original.meta.media.color_range">mpeg</property>
  <property name="kdenlive:original.meta.media.top_field_first">0</property>
  <property name="kdenlive:original.meta.media.progressive">1</property>
  <property name="kdenlive:original.backup">1</property>
  <property name="xml">was here</property>
  <property name="meta.media.nb_streams">1</property>
  <property name="meta.media.0.stream.type">video</property>
  <property name="meta.media.0.stream.frame_rate">60</property>
  <property name="meta.media.0.stream.sample_aspect_ratio">0</property>
  <property name="meta.media.0.codec.width">640</property>
  <property name="meta.media.0.codec.height">360</property>
  <property name="meta.media.0.codec.rotate">0</property>
  <property name="meta.media.0.codec.frame_rate">60</property>
  <property name="meta.media.0.codec.pix_fmt">yuv420p</property>
  <property name="meta.media.0.codec.sample_aspect_ratio">0</property>
  <property name="meta.media.0.codec.colorspace">601</property>
  <property name="meta.media.0.codec.name">h264</property>
  <property name="meta.media.0.codec.long_name">H.264 / AVC / MPEG-4 AVC / MPEG-4 part 10</property>
  <property name="meta.media.0.codec.bit_rate">0</property>
  <property name="meta.attr.0.stream.HANDLER_NAME.markup">VideoHandler</property>
  <property name="meta.attr.0.stream.VENDOR_ID.markup">[0][0][0][0]</property>
  <property name="meta.attr.0.stream.ENCODER.markup">Lavc58.134.100 libx264</property>
  <property name="meta.attr.0.stream.DURATION.markup">00:00:01.000000000</property>
  <property name="meta.attr.COMMENT.markup">Rendered with Manim Community v0.6.0</property>
  <property name="meta.attr.MAJOR_BRAND.markup">isom</property>
  <property name="meta.attr.MINOR_VERSION.markup">512</property>
  <property name="meta.attr.COMPATIBLE_BRANDS.markup">isomiso2avc1mp41</property>
  <property name="meta.attr.ENCODER.markup">Lavf58.76.100</property>
  <property name="meta.media.sample_aspect_num">1</property>
  <property name="meta.media.sample_aspect_den">1</property>
  <property name="meta.media.frame_rate_num">60</property>
  <property name="meta.media.frame_rate_den">1</property>
  <property name="meta.media.colorspace">601</property>
  <property name="meta.media.color_trc">2</property>
  <property name="meta.media.width">640</property>
  <property name="meta.media.height">360</property>
  <property name="meta.media.color_range">mpeg</property>
  <property name="meta.media.top_field_first">0</property>
  <property name="meta.media.progressive">1</property>
  <property name="set.test_audio">1</property>
  <property name="set.test_image">0</property>
 </producer>
 <producer id="producer691" in="00:00:00.000" out="00:00:00.983">
  <property name="length">60</property>
  <property name="eof">pause</property>
  <property name="resource">/home/xiaoxiae/.cache/kdenlive/proxy/0bd7405233c39310914f27eb216768c8.mkv</property>
  <property name="audio_index">-1</property>
  <property name="video_index">0</property>
  <property name="mute_on_pause">0</property>
  <property name="mlt_service">avformat-novalidate</property>
  <property name="seekable">1</property>
  <property name="aspect_ratio">1</property>
  <property name="kdenlive:clipname">12.mp4</property>
  <property name="kdenlive:folderid">209</property>
  <property name="kdenlive:id">216</property>
  <property name="kdenlive:file_size">210743</property>
  <property name="kdenlive:file_hash">0bd7405233c39310914f27eb216768c8</property>
  <property name="kdenlive:proxy">/home/xiaoxiae/.cache/kdenlive/proxy/0bd7405233c39310914f27eb216768c8.mkv</property>
  <property name="kdenlive:originalurl">video/Lemma1/12.mp4</property>
  <property name="global_feed">1</property>
  <property name="kdenlive:original.mlt_type">producer</property>
  <property name="kdenlive:original.in">0</property>
  <property name="kdenlive:original.out">59</property>
  <property name="kdenlive:original.length">60</property>
  <property name="kdenlive:original.eof">pause</property>
  <property name="kdenlive:original.resource">video/Lemma1/12.mp4</property>
  <property name="kdenlive:original.meta.media.nb_streams">1</property>
  <property name="kdenlive:original.meta.media.0.stream.type">video</property>
  <property name="kdenlive:original.meta.media.0.stream.frame_rate">60</property>
  <property name="kdenlive:original.meta.media.0.stream.sample_aspect_ratio">0</property>
  <property name="kdenlive:original.meta.media.0.codec.width">3840</property>
  <property name="kdenlive:original.meta.media.0.codec.height">2160</property>
  <property name="kdenlive:original.meta.media.0.codec.rotate">0</property>
  <property name="kdenlive:original.meta.media.0.codec.frame_rate">60</property>
  <property name="kdenlive:original.meta.media.0.codec.pix_fmt">yuv420p</property>
  <property name="kdenlive:original.meta.media.0.codec.sample_aspect_ratio">0</property>
  <property name="kdenlive:original.meta.media.0.codec.colorspace">709</property>
  <property name="kdenlive:original.meta.media.0.codec.name">h264</property>
  <property name="kdenlive:original.meta.media.0.codec.long_name">H.264 / AVC / MPEG-4 AVC / MPEG-4 part 10</property>
  <property name="kdenlive:original.meta.media.0.codec.bit_rate">1673024</property>
  <property name="kdenlive:original.meta.attr.0.stream.handler_name.markup">VideoHandler</property>
  <property name="kdenlive:original.meta.attr.0.stream.vendor_id.markup">[0][0][0][0]</property>
  <property name="kdenlive:original.meta.attr.major_brand.markup">isom</property>
  <property name="kdenlive:original.meta.attr.minor_version.markup">512</property>
  <property name="kdenlive:original.meta.attr.compatible_brands.markup">isomiso2avc1mp41</property>
  <property name="kdenlive:original.meta.attr.encoder.markup">Lavf58.76.100</property>
  <property name="kdenlive:original.meta.attr.comment.markup">Rendered with Manim Community v0.6.0</property>
  <property name="kdenlive:original.seekable">1</property>
  <property name="kdenlive:original.width">3840</property>
  <property name="kdenlive:original.height">2160</property>
  <property name="kdenlive:original.meta.media.sample_aspect_num">1</property>
  <property name="kdenlive:original.meta.media.sample_aspect_den">1</property>
  <property name="kdenlive:original.aspect_ratio">1</property>
  <property name="kdenlive:original.audio_index">-1</property>
  <property name="kdenlive:original.video_index">0</property>
  <property name="kdenlive:original.mute_on_pause">1</property>
  <property name="kdenlive:original.mlt_service">avformat</property>
  <property name="kdenlive:original.meta.media.frame_rate_num">60</property>
  <property name="kdenlive:original.meta.media.frame_rate_den">1</property>
  <property name="kdenlive:original.meta.media.colorspace">709</property>
  <property name="kdenlive:original.meta.media.color_trc">2</property>
  <property name="kdenlive:original.meta.media.width">3840</property>
  <property name="kdenlive:original.meta.media.height">2160</property>
  <property name="kdenlive:original.meta.media.color_range">mpeg</property>
  <property name="kdenlive:original.meta.media.top_field_first">0</property>
  <property name="kdenlive:original.meta.media.progressive">1</property>
  <property name="kdenlive:original.backup">1</property>
  <property name="xml">was here</property>
  <property name="meta.media.nb_streams">1</property>
  <property name="meta.media.0.stream.type">video</property>
  <property name="meta.media.0.stream.frame_rate">60</property>
  <property name="meta.media.0.stream.sample_aspect_ratio">0</property>
  <property name="meta.media.0.codec.width">640</property>
  <property name="meta.media.0.codec.height">360</property>
  <property name="meta.media.0.codec.rotate">0</property>
  <property name="meta.media.0.codec.frame_rate">60</property>
  <property name="meta.media.0.codec.pix_fmt">yuv420p</property>
  <property name="meta.media.0.codec.sample_aspect_ratio">0</property>
  <property name="meta.media.0.codec.colorspace">601</property>
  <property name="meta.media.0.codec.name">h264</property>
  <property name="meta.media.0.codec.long_name">H.264 / AVC / MPEG-4 AVC / MPEG-4 part 10</property>
  <property name="meta.media.0.codec.bit_rate">0</property>
  <property name="meta.attr.0.stream.HANDLER_NAME.markup">VideoHandler</property>
  <property name="meta.attr.0.stream.VENDOR_ID.markup">[0][0][0][0]</property>
  <property name="meta.attr.0.stream.ENCODER.markup">Lavc58.134.100 libx264</property>
  <property name="meta.attr.0.stream.DURATION.markup">00:00:01.000000000</property>
  <property name="meta.attr.COMMENT.markup">Rendered with Manim Community v0.6.0</property>
  <property name="meta.attr.MAJOR_BRAND.markup">isom</property>
  <property name="meta.attr.MINOR_VERSION.markup">512</property>
  <property name="meta.attr.COMPATIBLE_BRANDS.markup">isomiso2avc1mp41</property>
  <property name="meta.attr.ENCODER.markup">Lavf58.76.100</property>
  <property name="meta.media.sample_aspect_num">1</property>
  <property name="meta.media.sample_aspect_den">1</property>
  <property name="meta.media.frame_rate_num">60</property>
  <property name="meta.media.frame_rate_den">1</property>
  <property name="meta.media.colorspace">601</property>
  <property name="meta.media.color_trc">2</property>
  <property name="meta.media.width">640</property>
  <property name="meta.media.height">360</property>
  <property name="meta.media.color_range">mpeg</property>
  <property name="meta.media.top_field_first">0</property>
  <property name="meta.media.progressive">1</property>
  <property name="set.test_audio">1</property>
  <property name="set.test_image">0</property>
 </producer>
 <producer id="producer692" in="00:00:00.000" out="00:00:00.983">
  <property name="length">60</property>
  <property name="eof">pause</property>
  <property name="resource">/home/xiaoxiae/.cache/kdenlive/proxy/1ff33b6e7eafd8c6c945870113e618bd.mkv</property>
  <property name="audio_index">-1</property>
  <property name="video_index">0</property>
  <property name="mute_on_pause">0</property>
  <property name="mlt_service">avformat-novalidate</property>
  <property name="seekable">1</property>
  <property name="aspect_ratio">1</property>
  <property name="kdenlive:clipname">13.mp4</property>
  <property name="kdenlive:folderid">209</property>
  <property name="kdenlive:id">218</property>
  <property name="kdenlive:file_size">112649</property>
  <property name="kdenlive:file_hash">1ff33b6e7eafd8c6c945870113e618bd</property>
  <property name="kdenlive:proxy">/home/xiaoxiae/.cache/kdenlive/proxy/1ff33b6e7eafd8c6c945870113e618bd.mkv</property>
  <property name="kdenlive:originalurl">video/Lemma1/13.mp4</property>
  <property name="global_feed">1</property>
  <property name="kdenlive:original.mlt_type">producer</property>
  <property name="kdenlive:original.in">0</property>
  <property name="kdenlive:original.out">59</property>
  <property name="kdenlive:original.length">60</property>
  <property name="kdenlive:original.eof">pause</property>
  <property name="kdenlive:original.resource">video/Lemma1/13.mp4</property>
  <property name="kdenlive:original.meta.media.nb_streams">1</property>
  <property name="kdenlive:original.meta.media.0.stream.type">video</property>
  <property name="kdenlive:original.meta.media.0.stream.frame_rate">60</property>
  <property name="kdenlive:original.meta.media.0.stream.sample_aspect_ratio">0</property>
  <property name="kdenlive:original.meta.media.0.codec.width">3840</property>
  <property name="kdenlive:original.meta.media.0.codec.height">2160</property>
  <property name="kdenlive:original.meta.media.0.codec.rotate">0</property>
  <property name="kdenlive:original.meta.media.0.codec.frame_rate">60</property>
  <property name="kdenlive:original.meta.media.0.codec.pix_fmt">yuv420p</property>
  <property name="kdenlive:original.meta.media.0.codec.sample_aspect_ratio">0</property>
  <property name="kdenlive:original.meta.media.0.codec.colorspace">709</property>
  <property name="kdenlive:original.meta.media.0.codec.name">h264</property>
  <property name="kdenlive:original.meta.media.0.codec.long_name">H.264 / AVC / MPEG-4 AVC / MPEG-4 part 10</property>
  <property name="kdenlive:original.meta.media.0.codec.bit_rate">888144</property>
  <property name="kdenlive:original.meta.attr.0.stream.handler_name.markup">VideoHandler</property>
  <property name="kdenlive:original.meta.attr.0.stream.vendor_id.markup">[0][0][0][0]</property>
  <property name="kdenlive:original.meta.attr.major_brand.markup">isom</property>
  <property name="kdenlive:original.meta.attr.minor_version.markup">512</property>
  <property name="kdenlive:original.meta.attr.compatible_brands.markup">isomiso2avc1mp41</property>
  <property name="kdenlive:original.meta.attr.encoder.markup">Lavf58.76.100</property>
  <property name="kdenlive:original.meta.attr.comment.markup">Rendered with Manim Community v0.6.0</property>
  <property name="kdenlive:original.seekable">1</property>
  <property name="kdenlive:original.width">3840</property>
  <property name="kdenlive:original.height">2160</property>
  <property name="kdenlive:original.meta.media.sample_aspect_num">1</property>
  <property name="kdenlive:original.meta.media.sample_aspect_den">1</property>
  <property name="kdenlive:original.aspect_ratio">1</property>
  <property name="kdenlive:original.audio_index">-1</property>
  <property name="kdenlive:original.video_index">0</property>
  <property name="kdenlive:original.mute_on_pause">1</property>
  <property name="kdenlive:original.mlt_service">avformat</property>
  <property name="kdenlive:original.meta.media.frame_rate_num">60</property>
  <property name="kdenlive:original.meta.media.frame_rate_den">1</property>
  <property name="kdenlive:original.meta.media.colorspace">709</property>
  <property name="kdenlive:original.meta.media.color_trc">2</property>
  <property name="kdenlive:original.meta.media.width">3840</property>
  <property name="kdenlive:original.meta.media.height">2160</property>
  <property name="kdenlive:original.meta.media.color_range">mpeg</property>
  <property name="kdenlive:original.meta.media.top_field_first">0</property>
  <property name="kdenlive:original.meta.media.progressive">1</property>
  <property name="kdenlive:original.backup">1</property>
  <property name="xml">was here</property>
  <property name="meta.media.nb_streams">1</property>
  <property name="meta.media.0.stream.type">video</property>
  <property name="meta.media.0.stream.frame_rate">60</property>
  <property name="meta.media.0.stream.sample_aspect_ratio">0</property>
  <property name="meta.media.0.codec.width">640</property>
  <property name="meta.media.0.codec.height">360</property>
  <property name="meta.media.0.codec.rotate">0</property>
  <property name="meta.media.0.codec.frame_rate">60</property>
  <property name="meta.media.0.codec.pix_fmt">yuv420p</property>
  <property name="meta.media.0.codec.sample_aspect_ratio">0</property>
  <property name="meta.media.0.codec.colorspace">601</property>
  <property name="meta.media.0.codec.name">h264</property>
  <property name="meta.media.0.codec.long_name">H.264 / AVC / MPEG-4 AVC / MPEG-4 part 10</property>
  <property name="meta.media.0.codec.bit_rate">0</property>
  <property name="meta.attr.0.stream.HANDLER_NAME.markup">VideoHandler</property>
  <property name="meta.attr.0.stream.VENDOR_ID.markup">[0][0][0][0]</property>
  <property name="meta.attr.0.stream.ENCODER.markup">Lavc58.134.100 libx264</property>
  <property name="meta.attr.0.stream.DURATION.markup">00:00:01.000000000</property>
  <property name="meta.attr.COMMENT.markup">Rendered with Manim Community v0.6.0</property>
  <property name="meta.attr.MAJOR_BRAND.markup">isom</property>
  <property name="meta.attr.MINOR_VERSION.markup">512</property>
  <property name="meta.attr.COMPATIBLE_BRANDS.markup">isomiso2avc1mp41</property>
  <property name="meta.attr.ENCODER.markup">Lavf58.76.100</property>
  <property name="meta.media.sample_aspect_num">1</property>
  <property name="meta.media.sample_aspect_den">1</property>
  <property name="meta.media.frame_rate_num">60</property>
  <property name="meta.media.frame_rate_den">1</property>
  <property name="meta.media.colorspace">601</property>
  <property name="meta.media.color_trc">2</property>
  <property name="meta.media.width">640</property>
  <property name="meta.media.height">360</property>
  <property name="meta.media.color_range">mpeg</property>
  <property name="meta.media.top_field_first">0</property>
  <property name="meta.media.progressive">1</property>
  <property name="set.test_audio">1</property>
  <property name="set.test_image">0</property>
 </producer>
 <producer id="producer693" in="00:00:00.000" out="00:00:00.983">
  <property name="length">60</property>
  <property name="eof">pause</property>
  <property name="resource">/home/xiaoxiae/.cache/kdenlive/proxy/3e9660c357a2001ae9b156b0e3503a91.mkv</property>
  <property name="audio_index">-1</property>
  <property name="video_index">0</property>
  <property name="mute_on_pause">0</property>
  <property name="mlt_service">avformat-novalidate</property>
  <property name="seekable">1</property>
  <property name="aspect_ratio">1</property>
  <property name="kdenlive:clipname">14.mp4</property>
  <property name="kdenlive:folderid">209</property>
  <property name="kdenlive:id">220</property>
  <property name="kdenlive:file_size">110879</property>
  <property name="kdenlive:file_hash">3e9660c357a2001ae9b156b0e3503a91</property>
  <property name="kdenlive:proxy">/home/xiaoxiae/.cache/kdenlive/proxy/3e9660c357a2001ae9b156b0e3503a91.mkv</property>
  <property name="kdenlive:originalurl">video/Lemma1/14.mp4</property>
  <property name="global_feed">1</property>
  <property name="kdenlive:original.mlt_type">producer</property>
  <property name="kdenlive:original.in">0</property>
  <property name="kdenlive:original.out">59</property>
  <property name="kdenlive:original.length">60</property>
  <property name="kdenlive:original.eof">pause</property>
  <property name="kdenlive:original.resource">video/Lemma1/14.mp4</property>
  <property name="kdenlive:original.meta.media.nb_streams">1</property>
  <property name="kdenlive:original.meta.media.0.stream.type">video</property>
  <property name="kdenlive:original.meta.media.0.stream.frame_rate">60</property>
  <property name="kdenlive:original.meta.media.0.stream.sample_aspect_ratio">0</property>
  <property name="kdenlive:original.meta.media.0.codec.width">3840</property>
  <property name="kdenlive:original.meta.media.0.codec.height">2160</property>
  <property name="kdenlive:original.meta.media.0.codec.rotate">0</property>
  <property name="kdenlive:original.meta.media.0.codec.frame_rate">60</property>
  <property name="kdenlive:original.meta.media.0.codec.pix_fmt">yuv420p</property>
  <property name="kdenlive:original.meta.media.0.codec.sample_aspect_ratio">0</property>
  <property name="kdenlive:original.meta.media.0.codec.colorspace">709</property>
  <property name="kdenlive:original.meta.media.0.codec.name">h264</property>
  <property name="kdenlive:original.meta.media.0.codec.long_name">H.264 / AVC / MPEG-4 AVC / MPEG-4 part 10</property>
  <property name="kdenlive:original.meta.media.0.codec.bit_rate">873984</property>
  <property name="kdenlive:original.meta.attr.0.stream.handler_name.markup">VideoHandler</property>
  <property name="kdenlive:original.meta.attr.0.stream.vendor_id.markup">[0][0][0][0]</property>
  <property name="kdenlive:original.meta.attr.major_brand.markup">isom</property>
  <property name="kdenlive:original.meta.attr.minor_version.markup">512</property>
  <property name="kdenlive:original.meta.attr.compatible_brands.markup">isomiso2avc1mp41</property>
  <property name="kdenlive:original.meta.attr.encoder.markup">Lavf58.76.100</property>
  <property name="kdenlive:original.meta.attr.comment.markup">Rendered with Manim Community v0.6.0</property>
  <property name="kdenlive:original.seekable">1</property>
  <property name="kdenlive:original.width">3840</property>
  <property name="kdenlive:original.height">2160</property>
  <property name="kdenlive:original.meta.media.sample_aspect_num">1</property>
  <property name="kdenlive:original.meta.media.sample_aspect_den">1</property>
  <property name="kdenlive:original.aspect_ratio">1</property>
  <property name="kdenlive:original.audio_index">-1</property>
  <property name="kdenlive:original.video_index">0</property>
  <property name="kdenlive:original.mute_on_pause">1</property>
  <property name="kdenlive:original.mlt_service">avformat</property>
  <property name="kdenlive:original.meta.media.frame_rate_num">60</property>
  <property name="kdenlive:original.meta.media.frame_rate_den">1</property>
  <property name="kdenlive:original.meta.media.colorspace">709</property>
  <property name="kdenlive:original.meta.media.color_trc">2</property>
  <property name="kdenlive:original.meta.media.width">3840</property>
  <property name="kdenlive:original.meta.media.height">2160</property>
  <property name="kdenlive:original.meta.media.color_range">mpeg</property>
  <property name="kdenlive:original.meta.media.top_field_first">0</property>
  <property name="kdenlive:original.meta.media.progressive">1</property>
  <property name="kdenlive:original.backup">1</property>
  <property name="xml">was here</property>
  <property name="meta.media.nb_streams">1</property>
  <property name="meta.media.0.stream.type">video</property>
  <property name="meta.media.0.stream.frame_rate">60</property>
  <property name="meta.media.0.stream.sample_aspect_ratio">0</property>
  <property name="meta.media.0.codec.width">640</property>
  <property name="meta.media.0.codec.height">360</property>
  <property name="meta.media.0.codec.rotate">0</property>
  <property name="meta.media.0.codec.frame_rate">60</property>
  <property name="meta.media.0.codec.pix_fmt">yuv420p</property>
  <property name="meta.media.0.codec.sample_aspect_ratio">0</property>
  <property name="meta.media.0.codec.colorspace">601</property>
  <property name="meta.media.0.codec.name">h264</property>
  <property name="meta.media.0.codec.long_name">H.264 / AVC / MPEG-4 AVC / MPEG-4 part 10</property>
  <property name="meta.media.0.codec.bit_rate">0</property>
  <property name="meta.attr.0.stream.HANDLER_NAME.markup">VideoHandler</property>
  <property name="meta.attr.0.stream.VENDOR_ID.markup">[0][0][0][0]</property>
  <property name="meta.attr.0.stream.ENCODER.markup">Lavc58.134.100 libx264</property>
  <property name="meta.attr.0.stream.DURATION.markup">00:00:01.000000000</property>
  <property name="meta.attr.COMMENT.markup">Rendered with Manim Community v0.6.0</property>
  <property name="meta.attr.MAJOR_BRAND.markup">isom</property>
  <property name="meta.attr.MINOR_VERSION.markup">512</property>
  <property name="meta.attr.COMPATIBLE_BRANDS.markup">isomiso2avc1mp41</property>
  <property name="meta.attr.ENCODER.markup">Lavf58.76.100</property>
  <property name="meta.media.sample_aspect_num">1</property>
  <property name="meta.media.sample_aspect_den">1</property>
  <property name="meta.media.frame_rate_num">60</property>
  <property name="meta.media.frame_rate_den">1</property>
  <property name="meta.media.colorspace">601</property>
  <property name="meta.media.color_trc">2</property>
  <property name="meta.media.width">640</property>
  <property name="meta.media.height">360</property>
  <property name="meta.media.color_range">mpeg</property>
  <property name="meta.media.top_field_first">0</property>
  <property name="meta.media.progressive">1</property>
  <property name="set.test_audio">1</property>
  <property name="set.test_image">0</property>
 </producer>
 <producer id="producer694" in="00:00:00.000" out="00:00:00.983">
  <property name="length">60</property>
  <property name="eof">pause</property>
  <property name="resource">/home/xiaoxiae/.cache/kdenlive/proxy/28bb2a69112939ee2e6651e90796efdd.mkv</property>
  <property name="audio_index">-1</property>
  <property name="video_index">0</property>
  <property name="mute_on_pause">0</property>
  <property name="mlt_service">avformat-novalidate</property>
  <property name="seekable">1</property>
  <property name="aspect_ratio">1</property>
  <property name="kdenlive:clipname">15.mp4</property>
  <property name="kdenlive:folderid">209</property>
  <property name="kdenlive:id">222</property>
  <property name="kdenlive:file_size">275805</property>
  <property name="kdenlive:file_hash">28bb2a69112939ee2e6651e90796efdd</property>
  <property name="kdenlive:proxy">/home/xiaoxiae/.cache/kdenlive/proxy/28bb2a69112939ee2e6651e90796efdd.mkv</property>
  <property name="kdenlive:originalurl">video/Lemma1/15.mp4</property>
  <property name="global_feed">1</property>
  <property name="kdenlive:original.mlt_type">producer</property>
  <property name="kdenlive:original.in">0</property>
  <property name="kdenlive:original.out">59</property>
  <property name="kdenlive:original.length">60</property>
  <property name="kdenlive:original.eof">pause</property>
  <property name="kdenlive:original.resource">video/Lemma1/15.mp4</property>
  <property name="kdenlive:original.meta.media.nb_streams">1</property>
  <property name="kdenlive:original.meta.media.0.stream.type">video</property>
  <property name="kdenlive:original.meta.media.0.stream.frame_rate">60</property>
  <property name="kdenlive:original.meta.media.0.stream.sample_aspect_ratio">0</property>
  <property name="kdenlive:original.meta.media.0.codec.width">3840</property>
  <property name="kdenlive:original.meta.media.0.codec.height">2160</property>
  <property name="kdenlive:original.meta.media.0.codec.rotate">0</property>
  <property name="kdenlive:original.meta.media.0.codec.frame_rate">60</property>
  <property name="kdenlive:original.meta.media.0.codec.pix_fmt">yuv420p</property>
  <property name="kdenlive:original.meta.media.0.codec.sample_aspect_ratio">0</property>
  <property name="kdenlive:original.meta.media.0.codec.colorspace">709</property>
  <property name="kdenlive:original.meta.media.0.codec.name">h264</property>
  <property name="kdenlive:original.meta.media.0.codec.long_name">H.264 / AVC / MPEG-4 AVC / MPEG-4 part 10</property>
  <property name="kdenlive:original.meta.media.0.codec.bit_rate">2194160</property>
  <property name="kdenlive:original.meta.attr.0.stream.handler_name.markup">VideoHandler</property>
  <property name="kdenlive:original.meta.attr.0.stream.vendor_id.markup">[0][0][0][0]</property>
  <property name="kdenlive:original.meta.attr.major_brand.markup">isom</property>
  <property name="kdenlive:original.meta.attr.minor_version.markup">512</property>
  <property name="kdenlive:original.meta.attr.compatible_brands.markup">isomiso2avc1mp41</property>
  <property name="kdenlive:original.meta.attr.encoder.markup">Lavf58.76.100</property>
  <property name="kdenlive:original.meta.attr.comment.markup">Rendered with Manim Community v0.6.0</property>
  <property name="kdenlive:original.seekable">1</property>
  <property name="kdenlive:original.width">3840</property>
  <property name="kdenlive:original.height">2160</property>
  <property name="kdenlive:original.meta.media.sample_aspect_num">1</property>
  <property name="kdenlive:original.meta.media.sample_aspect_den">1</property>
  <property name="kdenlive:original.aspect_ratio">1</property>
  <property name="kdenlive:original.audio_index">-1</property>
  <property name="kdenlive:original.video_index">0</property>
  <property name="kdenlive:original.mute_on_pause">1</property>
  <property name="kdenlive:original.mlt_service">avformat</property>
  <property name="kdenlive:original.meta.media.frame_rate_num">60</property>
  <property name="kdenlive:original.meta.media.frame_rate_den">1</property>
  <property name="kdenlive:original.meta.media.colorspace">709</property>
  <property name="kdenlive:original.meta.media.color_trc">2</property>
  <property name="kdenlive:original.meta.media.width">3840</property>
  <property name="kdenlive:original.meta.media.height">2160</property>
  <property name="kdenlive:original.meta.media.color_range">mpeg</property>
  <property name="kdenlive:original.meta.media.top_field_first">0</property>
  <property name="kdenlive:original.meta.media.progressive">1</property>
  <property name="kdenlive:original.backup">1</property>
  <property name="xml">was here</property>
  <property name="meta.media.nb_streams">1</property>
  <property name="meta.media.0.stream.type">video</property>
  <property name="meta.media.0.stream.frame_rate">60</property>
  <property name="meta.media.0.stream.sample_aspect_ratio">0</property>
  <property name="meta.media.0.codec.width">640</property>
  <property name="meta.media.0.codec.height">360</property>
  <property name="meta.media.0.codec.rotate">0</property>
  <property name="meta.media.0.codec.frame_rate">60</property>
  <property name="meta.media.0.codec.pix_fmt">yuv420p</property>
  <property name="meta.media.0.codec.sample_aspect_ratio">0</property>
  <property name="meta.media.0.codec.colorspace">601</property>
  <property name="meta.media.0.codec.name">h264</property>
  <property name="meta.media.0.codec.long_name">H.264 / AVC / MPEG-4 AVC / MPEG-4 part 10</property>
  <property name="meta.media.0.codec.bit_rate">0</property>
  <property name="meta.attr.0.stream.HANDLER_NAME.markup">VideoHandler</property>
  <property name="meta.attr.0.stream.VENDOR_ID.markup">[0][0][0][0]</property>
  <property name="meta.attr.0.stream.ENCODER.markup">Lavc58.134.100 libx264</property>
  <property name="meta.attr.0.stream.DURATION.markup">00:00:01.000000000</property>
  <property name="meta.attr.COMMENT.markup">Rendered with Manim Community v0.6.0</property>
  <property name="meta.attr.MAJOR_BRAND.markup">isom</property>
  <property name="meta.attr.MINOR_VERSION.markup">512</property>
  <property name="meta.attr.COMPATIBLE_BRANDS.markup">isomiso2avc1mp41</property>
  <property name="meta.attr.ENCODER.markup">Lavf58.76.100</property>
  <property name="meta.media.sample_aspect_num">1</property>
  <property name="meta.media.sample_aspect_den">1</property>
  <property name="meta.media.frame_rate_num">60</property>
  <property name="meta.media.frame_rate_den">1</property>
  <property name="meta.media.colorspace">601</property>
  <property name="meta.media.color_trc">2</property>
  <property name="meta.media.width">640</property>
  <property name="meta.media.height">360</property>
  <property name="meta.media.color_range">mpeg</property>
  <property name="meta.media.top_field_first">0</property>
  <property name="meta.media.progressive">1</property>
  <property name="set.test_audio">1</property>
  <property name="set.test_image">0</property>
 </producer>
 <producer id="producer695" in="00:00:00.000" out="00:00:00.983">
  <property name="length">60</property>
  <property name="eof">pause</property>
  <property name="resource">/home/xiaoxiae/.cache/kdenlive/proxy/c4cbf2f8363a3f01ce8d21aabb2b9a42.mkv</property>
  <property name="audio_index">-1</property>
  <property name="video_index">0</property>
  <property name="mute_on_pause">0</property>
  <property name="mlt_service">avformat-novalidate</property>
  <property name="seekable">1</property>
  <property name="aspect_ratio">1</property>
  <property name="kdenlive:clipname">16.mp4</property>
  <property name="kdenlive:folderid">209</property>
  <property name="kdenlive:id">224</property>
  <property name="kdenlive:file_size">142351</property>
  <property name="kdenlive:file_hash">c4cbf2f8363a3f01ce8d21aabb2b9a42</property>
  <property name="kdenlive:proxy">/home/xiaoxiae/.cache/kdenlive/proxy/c4cbf2f8363a3f01ce8d21aabb2b9a42.mkv</property>
  <property name="kdenlive:originalurl">video/Lemma1/16.mp4</property>
  <property name="global_feed">1</property>
  <property name="kdenlive:original.mlt_type">producer</property>
  <property name="kdenlive:original.in">0</property>
  <property name="kdenlive:original.out">59</property>
  <property name="kdenlive:original.length">60</property>
  <property name="kdenlive:original.eof">pause</property>
  <property name="kdenlive:original.resource">video/Lemma1/16.mp4</property>
  <property name="kdenlive:original.meta.media.nb_streams">1</property>
  <property name="kdenlive:original.meta.media.0.stream.type">video</property>
  <property name="kdenlive:original.meta.media.0.stream.frame_rate">60</property>
  <property name="kdenlive:original.meta.media.0.stream.sample_aspect_ratio">0</property>
  <property name="kdenlive:original.meta.media.0.codec.width">3840</property>
  <property name="kdenlive:original.meta.media.0.codec.height">2160</property>
  <property name="kdenlive:original.meta.media.0.codec.rotate">0</property>
  <property name="kdenlive:original.meta.media.0.codec.frame_rate">60</property>
  <property name="kdenlive:original.meta.media.0.codec.pix_fmt">yuv420p</property>
  <property name="kdenlive:original.meta.media.0.codec.sample_aspect_ratio">0</property>
  <property name="kdenlive:original.meta.media.0.codec.colorspace">709</property>
  <property name="kdenlive:original.meta.media.0.codec.name">h264</property>
  <property name="kdenlive:original.meta.media.0.codec.long_name">H.264 / AVC / MPEG-4 AVC / MPEG-4 part 10</property>
  <property name="kdenlive:original.meta.media.0.codec.bit_rate">1125760</property>
  <property name="kdenlive:original.meta.attr.0.stream.handler_name.markup">VideoHandler</property>
  <property name="kdenlive:original.meta.attr.0.stream.vendor_id.markup">[0][0][0][0]</property>
  <property name="kdenlive:original.meta.attr.major_brand.markup">isom</property>
  <property name="kdenlive:original.meta.attr.minor_version.markup">512</property>
  <property name="kdenlive:original.meta.attr.compatible_brands.markup">isomiso2avc1mp41</property>
  <property name="kdenlive:original.meta.attr.encoder.markup">Lavf58.76.100</property>
  <property name="kdenlive:original.meta.attr.comment.markup">Rendered with Manim Community v0.6.0</property>
  <property name="kdenlive:original.seekable">1</property>
  <property name="kdenlive:original.width">3840</property>
  <property name="kdenlive:original.height">2160</property>
  <property name="kdenlive:original.meta.media.sample_aspect_num">1</property>
  <property name="kdenlive:original.meta.media.sample_aspect_den">1</property>
  <property name="kdenlive:original.aspect_ratio">1</property>
  <property name="kdenlive:original.audio_index">-1</property>
  <property name="kdenlive:original.video_index">0</property>
  <property name="kdenlive:original.mute_on_pause">1</property>
  <property name="kdenlive:original.mlt_service">avformat</property>
  <property name="kdenlive:original.meta.media.frame_rate_num">60</property>
  <property name="kdenlive:original.meta.media.frame_rate_den">1</property>
  <property name="kdenlive:original.meta.media.colorspace">709</property>
  <property name="kdenlive:original.meta.media.color_trc">2</property>
  <property name="kdenlive:original.meta.media.width">3840</property>
  <property name="kdenlive:original.meta.media.height">2160</property>
  <property name="kdenlive:original.meta.media.color_range">mpeg</property>
  <property name="kdenlive:original.meta.media.top_field_first">0</property>
  <property name="kdenlive:original.meta.media.progressive">1</property>
  <property name="kdenlive:original.backup">1</property>
  <property name="xml">was here</property>
  <property name="meta.media.nb_streams">1</property>
  <property name="meta.media.0.stream.type">video</property>
  <property name="meta.media.0.stream.frame_rate">60</property>
  <property name="meta.media.0.stream.sample_aspect_ratio">0</property>
  <property name="meta.media.0.codec.width">640</property>
  <property name="meta.media.0.codec.height">360</property>
  <property name="meta.media.0.codec.rotate">0</property>
  <property name="meta.media.0.codec.frame_rate">60</property>
  <property name="meta.media.0.codec.pix_fmt">yuv420p</property>
  <property name="meta.media.0.codec.sample_aspect_ratio">0</property>
  <property name="meta.media.0.codec.colorspace">601</property>
  <property name="meta.media.0.codec.name">h264</property>
  <property name="meta.media.0.codec.long_name">H.264 / AVC / MPEG-4 AVC / MPEG-4 part 10</property>
  <property name="meta.media.0.codec.bit_rate">0</property>
  <property name="meta.attr.0.stream.HANDLER_NAME.markup">VideoHandler</property>
  <property name="meta.attr.0.stream.VENDOR_ID.markup">[0][0][0][0]</property>
  <property name="meta.attr.0.stream.ENCODER.markup">Lavc58.134.100 libx264</property>
  <property name="meta.attr.0.stream.DURATION.markup">00:00:01.000000000</property>
  <property name="meta.attr.COMMENT.markup">Rendered with Manim Community v0.6.0</property>
  <property name="meta.attr.MAJOR_BRAND.markup">isom</property>
  <property name="meta.attr.MINOR_VERSION.markup">512</property>
  <property name="meta.attr.COMPATIBLE_BRANDS.markup">isomiso2avc1mp41</property>
  <property name="meta.attr.ENCODER.markup">Lavf58.76.100</property>
  <property name="meta.media.sample_aspect_num">1</property>
  <property name="meta.media.sample_aspect_den">1</property>
  <property name="meta.media.frame_rate_num">60</property>
  <property name="meta.media.frame_rate_den">1</property>
  <property name="meta.media.colorspace">601</property>
  <property name="meta.media.color_trc">2</property>
  <property name="meta.media.width">640</property>
  <property name="meta.media.height">360</property>
  <property name="meta.media.color_range">mpeg</property>
  <property name="meta.media.top_field_first">0</property>
  <property name="meta.media.progressive">1</property>
  <property name="set.test_audio">1</property>
  <property name="set.test_image">0</property>
 </producer>
 <producer id="producer696" in="00:00:00.000" out="00:00:00.983">
  <property name="length">60</property>
  <property name="eof">pause</property>
  <property name="resource">/home/xiaoxiae/.cache/kdenlive/proxy/771e46649adb2247e737402183ac24e5.mkv</property>
  <property name="audio_index">-1</property>
  <property name="video_index">0</property>
  <property name="mute_on_pause">0</property>
  <property name="mlt_service">avformat-novalidate</property>
  <property name="seekable">1</property>
  <property name="aspect_ratio">1</property>
  <property name="kdenlive:clipname">17.mp4</property>
  <property name="kdenlive:folderid">209</property>
  <property name="kdenlive:id">226</property>
  <property name="kdenlive:file_size">149542</property>
  <property name="kdenlive:file_hash">771e46649adb2247e737402183ac24e5</property>
  <property name="kdenlive:proxy">/home/xiaoxiae/.cache/kdenlive/proxy/771e46649adb2247e737402183ac24e5.mkv</property>
  <property name="kdenlive:originalurl">video/Lemma1/17.mp4</property>
  <property name="global_feed">1</property>
  <property name="kdenlive:original.mlt_type">producer</property>
  <property name="kdenlive:original.in">0</property>
  <property name="kdenlive:original.out">59</property>
  <property name="kdenlive:original.length">60</property>
  <property name="kdenlive:original.eof">pause</property>
  <property name="kdenlive:original.resource">video/Lemma1/17.mp4</property>
  <property name="kdenlive:original.meta.media.nb_streams">1</property>
  <property name="kdenlive:original.meta.media.0.stream.type">video</property>
  <property name="kdenlive:original.meta.media.0.stream.frame_rate">60</property>
  <property name="kdenlive:original.meta.media.0.stream.sample_aspect_ratio">0</property>
  <property name="kdenlive:original.meta.media.0.codec.width">3840</property>
  <property name="kdenlive:original.meta.media.0.codec.height">2160</property>
  <property name="kdenlive:original.meta.media.0.codec.rotate">0</property>
  <property name="kdenlive:original.meta.media.0.codec.frame_rate">60</property>
  <property name="kdenlive:original.meta.media.0.codec.pix_fmt">yuv420p</property>
  <property name="kdenlive:original.meta.media.0.codec.sample_aspect_ratio">0</property>
  <property name="kdenlive:original.meta.media.0.codec.colorspace">709</property>
  <property name="kdenlive:original.meta.media.0.codec.name">h264</property>
  <property name="kdenlive:original.meta.media.0.codec.long_name">H.264 / AVC / MPEG-4 AVC / MPEG-4 part 10</property>
  <property name="kdenlive:original.meta.media.0.codec.bit_rate">1183288</property>
  <property name="kdenlive:original.meta.attr.0.stream.handler_name.markup">VideoHandler</property>
  <property name="kdenlive:original.meta.attr.0.stream.vendor_id.markup">[0][0][0][0]</property>
  <property name="kdenlive:original.meta.attr.major_brand.markup">isom</property>
  <property name="kdenlive:original.meta.attr.minor_version.markup">512</property>
  <property name="kdenlive:original.meta.attr.compatible_brands.markup">isomiso2avc1mp41</property>
  <property name="kdenlive:original.meta.attr.encoder.markup">Lavf58.76.100</property>
  <property name="kdenlive:original.meta.attr.comment.markup">Rendered with Manim Community v0.6.0</property>
  <property name="kdenlive:original.seekable">1</property>
  <property name="kdenlive:original.width">3840</property>
  <property name="kdenlive:original.height">2160</property>
  <property name="kdenlive:original.meta.media.sample_aspect_num">1</property>
  <property name="kdenlive:original.meta.media.sample_aspect_den">1</property>
  <property name="kdenlive:original.aspect_ratio">1</property>
  <property name="kdenlive:original.audio_index">-1</property>
  <property name="kdenlive:original.video_index">0</property>
  <property name="kdenlive:original.mute_on_pause">1</property>
  <property name="kdenlive:original.mlt_service">avformat</property>
  <property name="kdenlive:original.meta.media.frame_rate_num">60</property>
  <property name="kdenlive:original.meta.media.frame_rate_den">1</property>
  <property name="kdenlive:original.meta.media.colorspace">709</property>
  <property name="kdenlive:original.meta.media.color_trc">2</property>
  <property name="kdenlive:original.meta.media.width">3840</property>
  <property name="kdenlive:original.meta.media.height">2160</property>
  <property name="kdenlive:original.meta.media.color_range">mpeg</property>
  <property name="kdenlive:original.meta.media.top_field_first">0</property>
  <property name="kdenlive:original.meta.media.progressive">1</property>
  <property name="kdenlive:original.backup">1</property>
  <property name="xml">was here</property>
  <property name="meta.media.nb_streams">1</property>
  <property name="meta.media.0.stream.type">video</property>
  <property name="meta.media.0.stream.frame_rate">60</property>
  <property name="meta.media.0.stream.sample_aspect_ratio">0</property>
  <property name="meta.media.0.codec.width">640</property>
  <property name="meta.media.0.codec.height">360</property>
  <property name="meta.media.0.codec.rotate">0</property>
  <property name="meta.media.0.codec.frame_rate">60</property>
  <property name="meta.media.0.codec.pix_fmt">yuv420p</property>
  <property name="meta.media.0.codec.sample_aspect_ratio">0</property>
  <property name="meta.media.0.codec.colorspace">601</property>
  <property name="meta.media.0.codec.name">h264</property>
  <property name="meta.media.0.codec.long_name">H.264 / AVC / MPEG-4 AVC / MPEG-4 part 10</property>
  <property name="meta.media.0.codec.bit_rate">0</property>
  <property name="meta.attr.0.stream.HANDLER_NAME.markup">VideoHandler</property>
  <property name="meta.attr.0.stream.VENDOR_ID.markup">[0][0][0][0]</property>
  <property name="meta.attr.0.stream.ENCODER.markup">Lavc58.134.100 libx264</property>
  <property name="meta.attr.0.stream.DURATION.markup">00:00:01.000000000</property>
  <property name="meta.attr.COMMENT.markup">Rendered with Manim Community v0.6.0</property>
  <property name="meta.attr.MAJOR_BRAND.markup">isom</property>
  <property name="meta.attr.MINOR_VERSION.markup">512</property>
  <property name="meta.attr.COMPATIBLE_BRANDS.markup">isomiso2avc1mp41</property>
  <property name="meta.attr.ENCODER.markup">Lavf58.76.100</property>
  <property name="meta.media.sample_aspect_num">1</property>
  <property name="meta.media.sample_aspect_den">1</property>
  <property name="meta.media.frame_rate_num">60</property>
  <property name="meta.media.frame_rate_den">1</property>
  <property name="meta.media.colorspace">601</property>
  <property name="meta.media.color_trc">2</property>
  <property name="meta.media.width">640</property>
  <property name="meta.media.height">360</property>
  <property name="meta.media.color_range">mpeg</property>
  <property name="meta.media.top_field_first">0</property>
  <property name="meta.media.progressive">1</property>
  <property name="set.test_audio">1</property>
  <property name="set.test_image">0</property>
 </producer>
 <producer id="producer697" in="00:00:00.000" out="00:00:00.983">
  <property name="length">60</property>
  <property name="eof">pause</property>
  <property name="resource">/home/xiaoxiae/.cache/kdenlive/proxy/db0925890ff0c237fbad16c8467dda1c.mkv</property>
  <property name="audio_index">-1</property>
  <property name="video_index">0</property>
  <property name="mute_on_pause">0</property>
  <property name="mlt_service">avformat-novalidate</property>
  <property name="seekable">1</property>
  <property name="aspect_ratio">1</property>
  <property name="kdenlive:clipname">18.mp4</property>
  <property name="kdenlive:folderid">209</property>
  <property name="kdenlive:id">228</property>
  <property name="kdenlive:file_size">141545</property>
  <property name="kdenlive:file_hash">db0925890ff0c237fbad16c8467dda1c</property>
  <property name="kdenlive:proxy">/home/xiaoxiae/.cache/kdenlive/proxy/db0925890ff0c237fbad16c8467dda1c.mkv</property>
  <property name="kdenlive:originalurl">video/Lemma1/18.mp4</property>
  <property name="global_feed">1</property>
  <property name="kdenlive:original.mlt_type">producer</property>
  <property name="kdenlive:original.in">0</property>
  <property name="kdenlive:original.out">59</property>
  <property name="kdenlive:original.length">60</property>
  <property name="kdenlive:original.eof">pause</property>
  <property name="kdenlive:original.resource">video/Lemma1/18.mp4</property>
  <property name="kdenlive:original.meta.media.nb_streams">1</property>
  <property name="kdenlive:original.meta.media.0.stream.type">video</property>
  <property name="kdenlive:original.meta.media.0.stream.frame_rate">60</property>
  <property name="kdenlive:original.meta.media.0.stream.sample_aspect_ratio">0</property>
  <property name="kdenlive:original.meta.media.0.codec.width">3840</property>
  <property name="kdenlive:original.meta.media.0.codec.height">2160</property>
  <property name="kdenlive:original.meta.media.0.codec.rotate">0</property>
  <property name="kdenlive:original.meta.media.0.codec.frame_rate">60</property>
  <property name="kdenlive:original.meta.media.0.codec.pix_fmt">yuv420p</property>
  <property name="kdenlive:original.meta.media.0.codec.sample_aspect_ratio">0</property>
  <property name="kdenlive:original.meta.media.0.codec.colorspace">709</property>
  <property name="kdenlive:original.meta.media.0.codec.name">h264</property>
  <property name="kdenlive:original.meta.media.0.codec.long_name">H.264 / AVC / MPEG-4 AVC / MPEG-4 part 10</property>
  <property name="kdenlive:original.meta.media.0.codec.bit_rate">1119312</property>
  <property name="kdenlive:original.meta.attr.0.stream.handler_name.markup">VideoHandler</property>
  <property name="kdenlive:original.meta.attr.0.stream.vendor_id.markup">[0][0][0][0]</property>
  <property name="kdenlive:original.meta.attr.major_brand.markup">isom</property>
  <property name="kdenlive:original.meta.attr.minor_version.markup">512</property>
  <property name="kdenlive:original.meta.attr.compatible_brands.markup">isomiso2avc1mp41</property>
  <property name="kdenlive:original.meta.attr.encoder.markup">Lavf58.76.100</property>
  <property name="kdenlive:original.meta.attr.comment.markup">Rendered with Manim Community v0.6.0</property>
  <property name="kdenlive:original.seekable">1</property>
  <property name="kdenlive:original.width">3840</property>
  <property name="kdenlive:original.height">2160</property>
  <property name="kdenlive:original.meta.media.sample_aspect_num">1</property>
  <property name="kdenlive:original.meta.media.sample_aspect_den">1</property>
  <property name="kdenlive:original.aspect_ratio">1</property>
  <property name="kdenlive:original.audio_index">-1</property>
  <property name="kdenlive:original.video_index">0</property>
  <property name="kdenlive:original.mute_on_pause">1</property>
  <property name="kdenlive:original.mlt_service">avformat</property>
  <property name="kdenlive:original.meta.media.frame_rate_num">60</property>
  <property name="kdenlive:original.meta.media.frame_rate_den">1</property>
  <property name="kdenlive:original.meta.media.colorspace">709</property>
  <property name="kdenlive:original.meta.media.color_trc">2</property>
  <property name="kdenlive:original.meta.media.width">3840</property>
  <property name="kdenlive:original.meta.media.height">2160</property>
  <property name="kdenlive:original.meta.media.color_range">mpeg</property>
  <property name="kdenlive:original.meta.media.top_field_first">0</property>
  <property name="kdenlive:original.meta.media.progressive">1</property>
  <property name="kdenlive:original.backup">1</property>
  <property name="xml">was here</property>
  <property name="meta.media.nb_streams">1</property>
  <property name="meta.media.0.stream.type">video</property>
  <property name="meta.media.0.stream.frame_rate">60</property>
  <property name="meta.media.0.stream.sample_aspect_ratio">0</property>
  <property name="meta.media.0.codec.width">640</property>
  <property name="meta.media.0.codec.height">360</property>
  <property name="meta.media.0.codec.rotate">0</property>
  <property name="meta.media.0.codec.frame_rate">60</property>
  <property name="meta.media.0.codec.pix_fmt">yuv420p</property>
  <property name="meta.media.0.codec.sample_aspect_ratio">0</property>
  <property name="meta.media.0.codec.colorspace">601</property>
  <property name="meta.media.0.codec.name">h264</property>
  <property name="meta.media.0.codec.long_name">H.264 / AVC / MPEG-4 AVC / MPEG-4 part 10</property>
  <property name="meta.media.0.codec.bit_rate">0</property>
  <property name="meta.attr.0.stream.HANDLER_NAME.markup">VideoHandler</property>
  <property name="meta.attr.0.stream.VENDOR_ID.markup">[0][0][0][0]</property>
  <property name="meta.attr.0.stream.ENCODER.markup">Lavc58.134.100 libx264</property>
  <property name="meta.attr.0.stream.DURATION.markup">00:00:01.000000000</property>
  <property name="meta.attr.COMMENT.markup">Rendered with Manim Community v0.6.0</property>
  <property name="meta.attr.MAJOR_BRAND.markup">isom</property>
  <property name="meta.attr.MINOR_VERSION.markup">512</property>
  <property name="meta.attr.COMPATIBLE_BRANDS.markup">isomiso2avc1mp41</property>
  <property name="meta.attr.ENCODER.markup">Lavf58.76.100</property>
  <property name="meta.media.sample_aspect_num">1</property>
  <property name="meta.media.sample_aspect_den">1</property>
  <property name="meta.media.frame_rate_num">60</property>
  <property name="meta.media.frame_rate_den">1</property>
  <property name="meta.media.colorspace">601</property>
  <property name="meta.media.color_trc">2</property>
  <property name="meta.media.width">640</property>
  <property name="meta.media.height">360</property>
  <property name="meta.media.color_range">mpeg</property>
  <property name="meta.media.top_field_first">0</property>
  <property name="meta.media.progressive">1</property>
  <property name="set.test_audio">1</property>
  <property name="set.test_image">0</property>
 </producer>
 <producer id="producer698" in="00:00:00.000" out="00:00:00.983">
  <property name="length">60</property>
  <property name="eof">pause</property>
  <property name="resource">/home/xiaoxiae/.cache/kdenlive/proxy/4dcd519f96296421a63f521214987f10.mkv</property>
  <property name="audio_index">-1</property>
  <property name="video_index">0</property>
  <property name="mute_on_pause">0</property>
  <property name="mlt_service">avformat-novalidate</property>
  <property name="seekable">1</property>
  <property name="aspect_ratio">1</property>
  <property name="kdenlive:clipname">19.mp4</property>
  <property name="kdenlive:folderid">209</property>
  <property name="kdenlive:id">230</property>
  <property name="kdenlive:file_size">167262</property>
  <property name="kdenlive:file_hash">4dcd519f96296421a63f521214987f10</property>
  <property name="kdenlive:proxy">/home/xiaoxiae/.cache/kdenlive/proxy/4dcd519f96296421a63f521214987f10.mkv</property>
  <property name="kdenlive:originalurl">video/Lemma1/19.mp4</property>
  <property name="global_feed">1</property>
  <property name="kdenlive:original.mlt_type">producer</property>
  <property name="kdenlive:original.in">0</property>
  <property name="kdenlive:original.out">59</property>
  <property name="kdenlive:original.length">60</property>
  <property name="kdenlive:original.eof">pause</property>
  <property name="kdenlive:original.resource">video/Lemma1/19.mp4</property>
  <property name="kdenlive:original.meta.media.nb_streams">1</property>
  <property name="kdenlive:original.meta.media.0.stream.type">video</property>
  <property name="kdenlive:original.meta.media.0.stream.frame_rate">60</property>
  <property name="kdenlive:original.meta.media.0.stream.sample_aspect_ratio">0</property>
  <property name="kdenlive:original.meta.media.0.codec.width">3840</property>
  <property name="kdenlive:original.meta.media.0.codec.height">2160</property>
  <property name="kdenlive:original.meta.media.0.codec.rotate">0</property>
  <property name="kdenlive:original.meta.media.0.codec.frame_rate">60</property>
  <property name="kdenlive:original.meta.media.0.codec.pix_fmt">yuv420p</property>
  <property name="kdenlive:original.meta.media.0.codec.sample_aspect_ratio">0</property>
  <property name="kdenlive:original.meta.media.0.codec.colorspace">709</property>
  <property name="kdenlive:original.meta.media.0.codec.name">h264</property>
  <property name="kdenlive:original.meta.media.0.codec.long_name">H.264 / AVC / MPEG-4 AVC / MPEG-4 part 10</property>
  <property name="kdenlive:original.meta.media.0.codec.bit_rate">1325048</property>
  <property name="kdenlive:original.meta.attr.0.stream.handler_name.markup">VideoHandler</property>
  <property name="kdenlive:original.meta.attr.0.stream.vendor_id.markup">[0][0][0][0]</property>
  <property name="kdenlive:original.meta.attr.major_brand.markup">isom</property>
  <property name="kdenlive:original.meta.attr.minor_version.markup">512</property>
  <property name="kdenlive:original.meta.attr.compatible_brands.markup">isomiso2avc1mp41</property>
  <property name="kdenlive:original.meta.attr.encoder.markup">Lavf58.76.100</property>
  <property name="kdenlive:original.meta.attr.comment.markup">Rendered with Manim Community v0.6.0</property>
  <property name="kdenlive:original.seekable">1</property>
  <property name="kdenlive:original.width">3840</property>
  <property name="kdenlive:original.height">2160</property>
  <property name="kdenlive:original.meta.media.sample_aspect_num">1</property>
  <property name="kdenlive:original.meta.media.sample_aspect_den">1</property>
  <property name="kdenlive:original.aspect_ratio">1</property>
  <property name="kdenlive:original.audio_index">-1</property>
  <property name="kdenlive:original.video_index">0</property>
  <property name="kdenlive:original.mute_on_pause">1</property>
  <property name="kdenlive:original.mlt_service">avformat</property>
  <property name="kdenlive:original.meta.media.frame_rate_num">60</property>
  <property name="kdenlive:original.meta.media.frame_rate_den">1</property>
  <property name="kdenlive:original.meta.media.colorspace">709</property>
  <property name="kdenlive:original.meta.media.color_trc">2</property>
  <property name="kdenlive:original.meta.media.width">3840</property>
  <property name="kdenlive:original.meta.media.height">2160</property>
  <property name="kdenlive:original.meta.media.color_range">mpeg</property>
  <property name="kdenlive:original.meta.media.top_field_first">0</property>
  <property name="kdenlive:original.meta.media.progressive">1</property>
  <property name="kdenlive:original.backup">1</property>
  <property name="xml">was here</property>
  <property name="meta.media.nb_streams">1</property>
  <property name="meta.media.0.stream.type">video</property>
  <property name="meta.media.0.stream.frame_rate">60</property>
  <property name="meta.media.0.stream.sample_aspect_ratio">0</property>
  <property name="meta.media.0.codec.width">640</property>
  <property name="meta.media.0.codec.height">360</property>
  <property name="meta.media.0.codec.rotate">0</property>
  <property name="meta.media.0.codec.frame_rate">60</property>
  <property name="meta.media.0.codec.pix_fmt">yuv420p</property>
  <property name="meta.media.0.codec.sample_aspect_ratio">0</property>
  <property name="meta.media.0.codec.colorspace">601</property>
  <property name="meta.media.0.codec.name">h264</property>
  <property name="meta.media.0.codec.long_name">H.264 / AVC / MPEG-4 AVC / MPEG-4 part 10</property>
  <property name="meta.media.0.codec.bit_rate">0</property>
  <property name="meta.attr.0.stream.HANDLER_NAME.markup">VideoHandler</property>
  <property name="meta.attr.0.stream.VENDOR_ID.markup">[0][0][0][0]</property>
  <property name="meta.attr.0.stream.ENCODER.markup">Lavc58.134.100 libx264</property>
  <property name="meta.attr.0.stream.DURATION.markup">00:00:01.000000000</property>
  <property name="meta.attr.COMMENT.markup">Rendered with Manim Community v0.6.0</property>
  <property name="meta.attr.MAJOR_BRAND.markup">isom</property>
  <property name="meta.attr.MINOR_VERSION.markup">512</property>
  <property name="meta.attr.COMPATIBLE_BRANDS.markup">isomiso2avc1mp41</property>
  <property name="meta.attr.ENCODER.markup">Lavf58.76.100</property>
  <property name="meta.media.sample_aspect_num">1</property>
  <property name="meta.media.sample_aspect_den">1</property>
  <property name="meta.media.frame_rate_num">60</property>
  <property name="meta.media.frame_rate_den">1</property>
  <property name="meta.media.colorspace">601</property>
  <property name="meta.media.color_trc">2</property>
  <property name="meta.media.width">640</property>
  <property name="meta.media.height">360</property>
  <property name="meta.media.color_range">mpeg</property>
  <property name="meta.media.top_field_first">0</property>
  <property name="meta.media.progressive">1</property>
  <property name="set.test_audio">1</property>
  <property name="set.test_image">0</property>
 </producer>
 <producer id="producer699" in="00:00:00.000" out="00:00:00.983">
  <property name="length">60</property>
  <property name="eof">pause</property>
  <property name="resource">/home/xiaoxiae/.cache/kdenlive/proxy/fac643a87951b35818d777efcf1efd6c.mkv</property>
  <property name="audio_index">-1</property>
  <property name="video_index">0</property>
  <property name="mute_on_pause">0</property>
  <property name="mlt_service">avformat-novalidate</property>
  <property name="seekable">1</property>
  <property name="aspect_ratio">1</property>
  <property name="kdenlive:clipname">20.mp4</property>
  <property name="kdenlive:folderid">209</property>
  <property name="kdenlive:id">234</property>
  <property name="kdenlive:file_size">168926</property>
  <property name="kdenlive:file_hash">fac643a87951b35818d777efcf1efd6c</property>
  <property name="kdenlive:proxy">/home/xiaoxiae/.cache/kdenlive/proxy/fac643a87951b35818d777efcf1efd6c.mkv</property>
  <property name="kdenlive:originalurl">video/Lemma1/20.mp4</property>
  <property name="global_feed">1</property>
  <property name="kdenlive:original.mlt_type">producer</property>
  <property name="kdenlive:original.in">0</property>
  <property name="kdenlive:original.out">59</property>
  <property name="kdenlive:original.length">60</property>
  <property name="kdenlive:original.eof">pause</property>
  <property name="kdenlive:original.resource">video/Lemma1/20.mp4</property>
  <property name="kdenlive:original.meta.media.nb_streams">1</property>
  <property name="kdenlive:original.meta.media.0.stream.type">video</property>
  <property name="kdenlive:original.meta.media.0.stream.frame_rate">60</property>
  <property name="kdenlive:original.meta.media.0.stream.sample_aspect_ratio">0</property>
  <property name="kdenlive:original.meta.media.0.codec.width">3840</property>
  <property name="kdenlive:original.meta.media.0.codec.height">2160</property>
  <property name="kdenlive:original.meta.media.0.codec.rotate">0</property>
  <property name="kdenlive:original.meta.media.0.codec.frame_rate">60</property>
  <property name="kdenlive:original.meta.media.0.codec.pix_fmt">yuv420p</property>
  <property name="kdenlive:original.meta.media.0.codec.sample_aspect_ratio">0</property>
  <property name="kdenlive:original.meta.media.0.codec.colorspace">709</property>
  <property name="kdenlive:original.meta.media.0.codec.name">h264</property>
  <property name="kdenlive:original.meta.media.0.codec.long_name">H.264 / AVC / MPEG-4 AVC / MPEG-4 part 10</property>
  <property name="kdenlive:original.meta.media.0.codec.bit_rate">1338360</property>
  <property name="kdenlive:original.meta.attr.0.stream.handler_name.markup">VideoHandler</property>
  <property name="kdenlive:original.meta.attr.0.stream.vendor_id.markup">[0][0][0][0]</property>
  <property name="kdenlive:original.meta.attr.major_brand.markup">isom</property>
  <property name="kdenlive:original.meta.attr.minor_version.markup">512</property>
  <property name="kdenlive:original.meta.attr.compatible_brands.markup">isomiso2avc1mp41</property>
  <property name="kdenlive:original.meta.attr.encoder.markup">Lavf58.76.100</property>
  <property name="kdenlive:original.meta.attr.comment.markup">Rendered with Manim Community v0.6.0</property>
  <property name="kdenlive:original.seekable">1</property>
  <property name="kdenlive:original.width">3840</property>
  <property name="kdenlive:original.height">2160</property>
  <property name="kdenlive:original.meta.media.sample_aspect_num">1</property>
  <property name="kdenlive:original.meta.media.sample_aspect_den">1</property>
  <property name="kdenlive:original.aspect_ratio">1</property>
  <property name="kdenlive:original.audio_index">-1</property>
  <property name="kdenlive:original.video_index">0</property>
  <property name="kdenlive:original.mute_on_pause">1</property>
  <property name="kdenlive:original.mlt_service">avformat</property>
  <property name="kdenlive:original.meta.media.frame_rate_num">60</property>
  <property name="kdenlive:original.meta.media.frame_rate_den">1</property>
  <property name="kdenlive:original.meta.media.colorspace">709</property>
  <property name="kdenlive:original.meta.media.color_trc">2</property>
  <property name="kdenlive:original.meta.media.width">3840</property>
  <property name="kdenlive:original.meta.media.height">2160</property>
  <property name="kdenlive:original.meta.media.color_range">mpeg</property>
  <property name="kdenlive:original.meta.media.top_field_first">0</property>
  <property name="kdenlive:original.meta.media.progressive">1</property>
  <property name="kdenlive:original.backup">1</property>
  <property name="xml">was here</property>
  <property name="meta.media.nb_streams">1</property>
  <property name="meta.media.0.stream.type">video</property>
  <property name="meta.media.0.stream.frame_rate">60</property>
  <property name="meta.media.0.stream.sample_aspect_ratio">0</property>
  <property name="meta.media.0.codec.width">640</property>
  <property name="meta.media.0.codec.height">360</property>
  <property name="meta.media.0.codec.rotate">0</property>
  <property name="meta.media.0.codec.frame_rate">60</property>
  <property name="meta.media.0.codec.pix_fmt">yuv420p</property>
  <property name="meta.media.0.codec.sample_aspect_ratio">0</property>
  <property name="meta.media.0.codec.colorspace">601</property>
  <property name="meta.media.0.codec.name">h264</property>
  <property name="meta.media.0.codec.long_name">H.264 / AVC / MPEG-4 AVC / MPEG-4 part 10</property>
  <property name="meta.media.0.codec.bit_rate">0</property>
  <property name="meta.attr.0.stream.HANDLER_NAME.markup">VideoHandler</property>
  <property name="meta.attr.0.stream.VENDOR_ID.markup">[0][0][0][0]</property>
  <property name="meta.attr.0.stream.ENCODER.markup">Lavc58.134.100 libx264</property>
  <property name="meta.attr.0.stream.DURATION.markup">00:00:01.000000000</property>
  <property name="meta.attr.COMMENT.markup">Rendered with Manim Community v0.6.0</property>
  <property name="meta.attr.MAJOR_BRAND.markup">isom</property>
  <property name="meta.attr.MINOR_VERSION.markup">512</property>
  <property name="meta.attr.COMPATIBLE_BRANDS.markup">isomiso2avc1mp41</property>
  <property name="meta.attr.ENCODER.markup">Lavf58.76.100</property>
  <property name="meta.media.sample_aspect_num">1</property>
  <property name="meta.media.sample_aspect_den">1</property>
  <property name="meta.media.frame_rate_num">60</property>
  <property name="meta.media.frame_rate_den">1</property>
  <property name="meta.media.colorspace">601</property>
  <property name="meta.media.color_trc">2</property>
  <property name="meta.media.width">640</property>
  <property name="meta.media.height">360</property>
  <property name="meta.media.color_range">mpeg</property>
  <property name="meta.media.top_field_first">0</property>
  <property name="meta.media.progressive">1</property>
  <property name="set.test_audio">1</property>
  <property name="set.test_image">0</property>
 </producer>
 <producer id="producer700" in="00:00:00.000" out="00:00:00.983">
  <property name="length">60</property>
  <property name="eof">pause</property>
  <property name="resource">/home/xiaoxiae/.cache/kdenlive/proxy/1325c1ac6e0e6a0eff2f4148caf808dd.mkv</property>
  <property name="audio_index">-1</property>
  <property name="video_index">0</property>
  <property name="mute_on_pause">0</property>
  <property name="mlt_service">avformat-novalidate</property>
  <property name="seekable">1</property>
  <property name="aspect_ratio">1</property>
  <property name="kdenlive:clipname">21.mp4</property>
  <property name="kdenlive:folderid">209</property>
  <property name="kdenlive:id">236</property>
  <property name="kdenlive:file_size">172718</property>
  <property name="kdenlive:file_hash">1325c1ac6e0e6a0eff2f4148caf808dd</property>
  <property name="kdenlive:proxy">/home/xiaoxiae/.cache/kdenlive/proxy/1325c1ac6e0e6a0eff2f4148caf808dd.mkv</property>
  <property name="kdenlive:originalurl">video/Lemma1/21.mp4</property>
  <property name="global_feed">1</property>
  <property name="kdenlive:original.mlt_type">producer</property>
  <property name="kdenlive:original.in">0</property>
  <property name="kdenlive:original.out">59</property>
  <property name="kdenlive:original.length">60</property>
  <property name="kdenlive:original.eof">pause</property>
  <property name="kdenlive:original.resource">video/Lemma1/21.mp4</property>
  <property name="kdenlive:original.meta.media.nb_streams">1</property>
  <property name="kdenlive:original.meta.media.0.stream.type">video</property>
  <property name="kdenlive:original.meta.media.0.stream.frame_rate">60</property>
  <property name="kdenlive:original.meta.media.0.stream.sample_aspect_ratio">0</property>
  <property name="kdenlive:original.meta.media.0.codec.width">3840</property>
  <property name="kdenlive:original.meta.media.0.codec.height">2160</property>
  <property name="kdenlive:original.meta.media.0.codec.rotate">0</property>
  <property name="kdenlive:original.meta.media.0.codec.frame_rate">60</property>
  <property name="kdenlive:original.meta.media.0.codec.pix_fmt">yuv420p</property>
  <property name="kdenlive:original.meta.media.0.codec.sample_aspect_ratio">0</property>
  <property name="kdenlive:original.meta.media.0.codec.colorspace">709</property>
  <property name="kdenlive:original.meta.media.0.codec.name">h264</property>
  <property name="kdenlive:original.meta.media.0.codec.long_name">H.264 / AVC / MPEG-4 AVC / MPEG-4 part 10</property>
  <property name="kdenlive:original.meta.media.0.codec.bit_rate">1368696</property>
  <property name="kdenlive:original.meta.attr.0.stream.handler_name.markup">VideoHandler</property>
  <property name="kdenlive:original.meta.attr.0.stream.vendor_id.markup">[0][0][0][0]</property>
  <property name="kdenlive:original.meta.attr.major_brand.markup">isom</property>
  <property name="kdenlive:original.meta.attr.minor_version.markup">512</property>
  <property name="kdenlive:original.meta.attr.compatible_brands.markup">isomiso2avc1mp41</property>
  <property name="kdenlive:original.meta.attr.encoder.markup">Lavf58.76.100</property>
  <property name="kdenlive:original.meta.attr.comment.markup">Rendered with Manim Community v0.6.0</property>
  <property name="kdenlive:original.seekable">1</property>
  <property name="kdenlive:original.width">3840</property>
  <property name="kdenlive:original.height">2160</property>
  <property name="kdenlive:original.meta.media.sample_aspect_num">1</property>
  <property name="kdenlive:original.meta.media.sample_aspect_den">1</property>
  <property name="kdenlive:original.aspect_ratio">1</property>
  <property name="kdenlive:original.audio_index">-1</property>
  <property name="kdenlive:original.video_index">0</property>
  <property name="kdenlive:original.mute_on_pause">1</property>
  <property name="kdenlive:original.mlt_service">avformat</property>
  <property name="kdenlive:original.meta.media.frame_rate_num">60</property>
  <property name="kdenlive:original.meta.media.frame_rate_den">1</property>
  <property name="kdenlive:original.meta.media.colorspace">709</property>
  <property name="kdenlive:original.meta.media.color_trc">2</property>
  <property name="kdenlive:original.meta.media.width">3840</property>
  <property name="kdenlive:original.meta.media.height">2160</property>
  <property name="kdenlive:original.meta.media.color_range">mpeg</property>
  <property name="kdenlive:original.meta.media.top_field_first">0</property>
  <property name="kdenlive:original.meta.media.progressive">1</property>
  <property name="kdenlive:original.backup">1</property>
  <property name="xml">was here</property>
  <property name="meta.media.nb_streams">1</property>
  <property name="meta.media.0.stream.type">video</property>
  <property name="meta.media.0.stream.frame_rate">60</property>
  <property name="meta.media.0.stream.sample_aspect_ratio">0</property>
  <property name="meta.media.0.codec.width">640</property>
  <property name="meta.media.0.codec.height">360</property>
  <property name="meta.media.0.codec.rotate">0</property>
  <property name="meta.media.0.codec.frame_rate">60</property>
  <property name="meta.media.0.codec.pix_fmt">yuv420p</property>
  <property name="meta.media.0.codec.sample_aspect_ratio">0</property>
  <property name="meta.media.0.codec.colorspace">601</property>
  <property name="meta.media.0.codec.name">h264</property>
  <property name="meta.media.0.codec.long_name">H.264 / AVC / MPEG-4 AVC / MPEG-4 part 10</property>
  <property name="meta.media.0.codec.bit_rate">0</property>
  <property name="meta.attr.0.stream.HANDLER_NAME.markup">VideoHandler</property>
  <property name="meta.attr.0.stream.VENDOR_ID.markup">[0][0][0][0]</property>
  <property name="meta.attr.0.stream.ENCODER.markup">Lavc58.134.100 libx264</property>
  <property name="meta.attr.0.stream.DURATION.markup">00:00:01.000000000</property>
  <property name="meta.attr.COMMENT.markup">Rendered with Manim Community v0.6.0</property>
  <property name="meta.attr.MAJOR_BRAND.markup">isom</property>
  <property name="meta.attr.MINOR_VERSION.markup">512</property>
  <property name="meta.attr.COMPATIBLE_BRANDS.markup">isomiso2avc1mp41</property>
  <property name="meta.attr.ENCODER.markup">Lavf58.76.100</property>
  <property name="meta.media.sample_aspect_num">1</property>
  <property name="meta.media.sample_aspect_den">1</property>
  <property name="meta.media.frame_rate_num">60</property>
  <property name="meta.media.frame_rate_den">1</property>
  <property name="meta.media.colorspace">601</property>
  <property name="meta.media.color_trc">2</property>
  <property name="meta.media.width">640</property>
  <property name="meta.media.height">360</property>
  <property name="meta.media.color_range">mpeg</property>
  <property name="meta.media.top_field_first">0</property>
  <property name="meta.media.progressive">1</property>
  <property name="set.test_audio">1</property>
  <property name="set.test_image">0</property>
 </producer>
 <producer id="producer701" in="00:00:00.000" out="00:00:00.983">
  <property name="length">60</property>
  <property name="eof">pause</property>
  <property name="resource">/home/xiaoxiae/.cache/kdenlive/proxy/99934949cc194a2708dfc94185dfec58.mkv</property>
  <property name="audio_index">-1</property>
  <property name="video_index">0</property>
  <property name="mute_on_pause">0</property>
  <property name="mlt_service">avformat-novalidate</property>
  <property name="seekable">1</property>
  <property name="aspect_ratio">1</property>
  <property name="kdenlive:clipname">22.mp4</property>
  <property name="kdenlive:folderid">209</property>
  <property name="kdenlive:id">238</property>
  <property name="kdenlive:file_size">155587</property>
  <property name="kdenlive:file_hash">99934949cc194a2708dfc94185dfec58</property>
  <property name="kdenlive:proxy">/home/xiaoxiae/.cache/kdenlive/proxy/99934949cc194a2708dfc94185dfec58.mkv</property>
  <property name="kdenlive:originalurl">video/Lemma1/22.mp4</property>
  <property name="global_feed">1</property>
  <property name="kdenlive:original.mlt_type">producer</property>
  <property name="kdenlive:original.in">0</property>
  <property name="kdenlive:original.out">59</property>
  <property name="kdenlive:original.length">60</property>
  <property name="kdenlive:original.eof">pause</property>
  <property name="kdenlive:original.resource">video/Lemma1/22.mp4</property>
  <property name="kdenlive:original.meta.media.nb_streams">1</property>
  <property name="kdenlive:original.meta.media.0.stream.type">video</property>
  <property name="kdenlive:original.meta.media.0.stream.frame_rate">60</property>
  <property name="kdenlive:original.meta.media.0.stream.sample_aspect_ratio">0</property>
  <property name="kdenlive:original.meta.media.0.codec.width">3840</property>
  <property name="kdenlive:original.meta.media.0.codec.height">2160</property>
  <property name="kdenlive:original.meta.media.0.codec.rotate">0</property>
  <property name="kdenlive:original.meta.media.0.codec.frame_rate">60</property>
  <property name="kdenlive:original.meta.media.0.codec.pix_fmt">yuv420p</property>
  <property name="kdenlive:original.meta.media.0.codec.sample_aspect_ratio">0</property>
  <property name="kdenlive:original.meta.media.0.codec.colorspace">709</property>
  <property name="kdenlive:original.meta.media.0.codec.name">h264</property>
  <property name="kdenlive:original.meta.media.0.codec.long_name">H.264 / AVC / MPEG-4 AVC / MPEG-4 part 10</property>
  <property name="kdenlive:original.meta.media.0.codec.bit_rate">1231648</property>
  <property name="kdenlive:original.meta.attr.0.stream.handler_name.markup">VideoHandler</property>
  <property name="kdenlive:original.meta.attr.0.stream.vendor_id.markup">[0][0][0][0]</property>
  <property name="kdenlive:original.meta.attr.major_brand.markup">isom</property>
  <property name="kdenlive:original.meta.attr.minor_version.markup">512</property>
  <property name="kdenlive:original.meta.attr.compatible_brands.markup">isomiso2avc1mp41</property>
  <property name="kdenlive:original.meta.attr.encoder.markup">Lavf58.76.100</property>
  <property name="kdenlive:original.meta.attr.comment.markup">Rendered with Manim Community v0.6.0</property>
  <property name="kdenlive:original.seekable">1</property>
  <property name="kdenlive:original.width">3840</property>
  <property name="kdenlive:original.height">2160</property>
  <property name="kdenlive:original.meta.media.sample_aspect_num">1</property>
  <property name="kdenlive:original.meta.media.sample_aspect_den">1</property>
  <property name="kdenlive:original.aspect_ratio">1</property>
  <property name="kdenlive:original.audio_index">-1</property>
  <property name="kdenlive:original.video_index">0</property>
  <property name="kdenlive:original.mute_on_pause">1</property>
  <property name="kdenlive:original.mlt_service">avformat</property>
  <property name="kdenlive:original.meta.media.frame_rate_num">60</property>
  <property name="kdenlive:original.meta.media.frame_rate_den">1</property>
  <property name="kdenlive:original.meta.media.colorspace">709</property>
  <property name="kdenlive:original.meta.media.color_trc">2</property>
  <property name="kdenlive:original.meta.media.width">3840</property>
  <property name="kdenlive:original.meta.media.height">2160</property>
  <property name="kdenlive:original.meta.media.color_range">mpeg</property>
  <property name="kdenlive:original.meta.media.top_field_first">0</property>
  <property name="kdenlive:original.meta.media.progressive">1</property>
  <property name="kdenlive:original.backup">1</property>
  <property name="xml">was here</property>
  <property name="meta.media.nb_streams">1</property>
  <property name="meta.media.0.stream.type">video</property>
  <property name="meta.media.0.stream.frame_rate">60</property>
  <property name="meta.media.0.stream.sample_aspect_ratio">0</property>
  <property name="meta.media.0.codec.width">640</property>
  <property name="meta.media.0.codec.height">360</property>
  <property name="meta.media.0.codec.rotate">0</property>
  <property name="meta.media.0.codec.frame_rate">60</property>
  <property name="meta.media.0.codec.pix_fmt">yuv420p</property>
  <property name="meta.media.0.codec.sample_aspect_ratio">0</property>
  <property name="meta.media.0.codec.colorspace">601</property>
  <property name="meta.media.0.codec.name">h264</property>
  <property name="meta.media.0.codec.long_name">H.264 / AVC / MPEG-4 AVC / MPEG-4 part 10</property>
  <property name="meta.media.0.codec.bit_rate">0</property>
  <property name="meta.attr.0.stream.HANDLER_NAME.markup">VideoHandler</property>
  <property name="meta.attr.0.stream.VENDOR_ID.markup">[0][0][0][0]</property>
  <property name="meta.attr.0.stream.ENCODER.markup">Lavc58.134.100 libx264</property>
  <property name="meta.attr.0.stream.DURATION.markup">00:00:01.000000000</property>
  <property name="meta.attr.COMMENT.markup">Rendered with Manim Community v0.6.0</property>
  <property name="meta.attr.MAJOR_BRAND.markup">isom</property>
  <property name="meta.attr.MINOR_VERSION.markup">512</property>
  <property name="meta.attr.COMPATIBLE_BRANDS.markup">isomiso2avc1mp41</property>
  <property name="meta.attr.ENCODER.markup">Lavf58.76.100</property>
  <property name="meta.media.sample_aspect_num">1</property>
  <property name="meta.media.sample_aspect_den">1</property>
  <property name="meta.media.frame_rate_num">60</property>
  <property name="meta.media.frame_rate_den">1</property>
  <property name="meta.media.colorspace">601</property>
  <property name="meta.media.color_trc">2</property>
  <property name="meta.media.width">640</property>
  <property name="meta.media.height">360</property>
  <property name="meta.media.color_range">mpeg</property>
  <property name="meta.media.top_field_first">0</property>
  <property name="meta.media.progressive">1</property>
  <property name="set.test_audio">1</property>
  <property name="set.test_image">0</property>
 </producer>
 <playlist id="playlist4">
  <entry producer="producer565" in="00:00:00.000" out="00:00:01.983">
   <property name="kdenlive:id">125</property>
  </entry>
  <entry producer="producer566" in="00:00:00.000" out="00:00:00.983">
   <property name="kdenlive:id">147</property>
  </entry>
  <entry producer="producer567" in="00:00:00.000" out="00:00:00.983">
   <property name="kdenlive:id">169</property>
  </entry>
  <entry producer="producer568" in="00:00:00.000" out="00:00:01.983">
   <property name="kdenlive:id">191</property>
  </entry>
  <entry producer="producer569" in="00:00:00.000" out="00:00:00.983">
   <property name="kdenlive:id">199</property>
  </entry>
  <entry producer="producer570" in="00:00:00.000" out="00:00:00.983">
   <property name="kdenlive:id">201</property>
  </entry>
  <entry producer="producer571" in="00:00:00.000" out="00:00:00.983">
   <property name="kdenlive:id">203</property>
  </entry>
  <entry producer="producer572" in="00:00:00.000" out="00:00:00.983">
   <property name="kdenlive:id">205</property>
  </entry>
  <entry producer="producer573" in="00:00:00.000" out="00:00:00.983">
   <property name="kdenlive:id">207</property>
  </entry>
  <entry producer="producer574" in="00:00:00.000" out="00:00:00.983">
   <property name="kdenlive:id">127</property>
  </entry>
  <entry producer="producer575" in="00:00:00.000" out="00:00:00.983">
   <property name="kdenlive:id">129</property>
  </entry>
  <entry producer="producer576" in="00:00:00.000" out="00:00:00.983">
   <property name="kdenlive:id">131</property>
  </entry>
  <entry producer="producer577" in="00:00:00.000" out="00:00:00.983">
   <property name="kdenlive:id">133</property>
  </entry>
  <entry producer="producer578" in="00:00:00.000" out="00:00:00.983">
   <property name="kdenlive:id">135</property>
  </entry>
  <entry producer="producer579" in="00:00:00.000" out="00:00:00.983">
   <property name="kdenlive:id">137</property>
  </entry>
  <entry producer="producer580" in="00:00:00.000" out="00:00:00.983">
   <property name="kdenlive:id">139</property>
  </entry>
  <entry producer="producer176" in="00:00:00.000" out="00:00:00.450">
   <property name="kdenlive:id">140</property>
   <filter id="filter7" in="00:00:-0.017" out="00:00:00.450">
    <property name="start">1</property>
    <property name="mlt_service">brightness</property>
    <property name="kdenlive_id">fade_to_black</property>
    <property name="end">0</property>
    <property name="alpha">-1</property>
    <property name="kdenlive:collapsed">0</property>
   </filter>
  </entry>
  <entry producer="producer581" in="00:00:00.000" out="00:00:03.483">
   <property name="kdenlive:id">183</property>
  </entry>
  <entry producer="producer582" in="00:00:00.000" out="00:00:00.983">
   <property name="kdenlive:id">185</property>
  </entry>
  <entry producer="producer583" in="00:00:00.000" out="00:00:00.983">
   <property name="kdenlive:id">187</property>
  </entry>
  <entry producer="producer584" in="00:00:00.000" out="00:00:00.983">
   <property name="kdenlive:id">189</property>
  </entry>
  <entry producer="producer585" in="00:00:00.000" out="00:00:00.983">
   <property name="kdenlive:id">193</property>
  </entry>
  <entry producer="producer586" in="00:00:00.000" out="00:00:00.983">
   <property name="kdenlive:id">195</property>
  </entry>
  <entry producer="producer232" in="00:00:00.000" out="00:00:06.617">
   <property name="kdenlive:id">196</property>
  </entry>
  <entry producer="producer587" in="00:00:00.000" out="00:00:00.983">
   <property name="kdenlive:id">197</property>
  </entry>
  <entry producer="producer588" in="00:00:00.000" out="00:00:01.983">
   <property name="kdenlive:id">81</property>
  </entry>
  <entry producer="producer589" in="00:00:00.000" out="00:00:00.983">
   <property name="kdenlive:id">83</property>
  </entry>
  <entry producer="producer590" in="00:00:00.000" out="00:00:06.033">
   <property name="kdenlive:id">85</property>
  </entry>
  <entry producer="producer591" in="00:00:00.000" out="00:00:00.983">
   <property name="kdenlive:id">87</property>
  </entry>
  <entry producer="producer592" in="00:00:00.000" out="00:00:00.983">
   <property name="kdenlive:id">89</property>
  </entry>
  <entry producer="producer593" in="00:00:00.000" out="00:00:00.983">
   <property name="kdenlive:id">91</property>
  </entry>
  <entry producer="producer594" in="00:00:00.000" out="00:00:00.983">
   <property name="kdenlive:id">93</property>
  </entry>
  <entry producer="producer595" in="00:00:00.000" out="00:00:00.983">
   <property name="kdenlive:id">95</property>
  </entry>
  <entry producer="producer596" in="00:00:00.000" out="00:00:00.983">
   <property name="kdenlive:id">97</property>
  </entry>
  <entry producer="producer597" in="00:00:00.000" out="00:00:01.983">
   <property name="kdenlive:id">32</property>
  </entry>
  <entry producer="producer598" in="00:00:00.000" out="00:00:00.983">
   <property name="kdenlive:id">54</property>
  </entry>
  <entry producer="producer599" in="00:00:00.000" out="00:00:03.433">
   <property name="kdenlive:id">66</property>
  </entry>
  <entry producer="producer600" in="00:00:00.000" out="00:00:01.983">
   <property name="kdenlive:id">68</property>
  </entry>
  <entry producer="producer601" in="00:00:00.000" out="00:00:00.983">
   <property name="kdenlive:id">70</property>
  </entry>
  <entry producer="producer602" in="00:00:00.000" out="00:00:00.983">
   <property name="kdenlive:id">72</property>
  </entry>
  <entry producer="producer603" in="00:00:00.000" out="00:00:00.983">
   <property name="kdenlive:id">74</property>
  </entry>
  <entry producer="producer604" in="00:00:00.000" out="00:00:00.983">
   <property name="kdenlive:id">76</property>
  </entry>
  <entry producer="producer605" in="00:00:00.000" out="00:00:03.433">
   <property name="kdenlive:id">78</property>
  </entry>
  <entry producer="producer606" in="00:00:00.000" out="00:00:00.983">
   <property name="kdenlive:id">34</property>
  </entry>
  <entry producer="producer607" in="00:00:00.000" out="00:00:00.983">
   <property name="kdenlive:id">36</property>
  </entry>
  <entry producer="producer608" in="00:00:00.000" out="00:00:00.983">
   <property name="kdenlive:id">38</property>
  </entry>
  <entry producer="producer609" in="00:00:00.000" out="00:00:00.983">
   <property name="kdenlive:id">40</property>
  </entry>
  <entry producer="producer610" in="00:00:00.000" out="00:00:00.983">
   <property name="kdenlive:id">42</property>
  </entry>
  <entry producer="producer611" in="00:00:00.000" out="00:00:00.983">
   <property name="kdenlive:id">44</property>
  </entry>
  <entry producer="producer612" in="00:00:00.000" out="00:00:00.983">
   <property name="kdenlive:id">46</property>
  </entry>
  <entry producer="producer87" in="00:00:00.000" out="00:00:02.000">
   <property name="kdenlive:id">47</property>
  </entry>
  <entry producer="producer613" in="00:00:00.000" out="00:00:00.983">
   <property name="kdenlive:id">48</property>
  </entry>
  <entry producer="producer614" in="00:00:00.000" out="00:00:00.983">
   <property name="kdenlive:id">50</property>
  </entry>
  <entry producer="producer615" in="00:00:00.000" out="00:00:00.983">
   <property name="kdenlive:id">52</property>
  </entry>
  <entry producer="producer91" in="00:00:00.000" out="00:00:03.117">
   <property name="kdenlive:id">53</property>
  </entry>
  <entry producer="producer616" in="00:00:00.000" out="00:00:00.983">
   <property name="kdenlive:id">56</property>
  </entry>
  <entry producer="producer617" in="00:00:00.000" out="00:00:01.983">
   <property name="kdenlive:id">58</property>
  </entry>
  <entry producer="producer98" in="00:00:00.000" out="00:00:02.750">
   <property name="kdenlive:id">59</property>
  </entry>
  <entry producer="producer618" in="00:00:00.000" out="00:00:00.983">
   <property name="kdenlive:id">60</property>
  </entry>
  <entry producer="producer619" in="00:00:00.000" out="00:00:00.983">
   <property name="kdenlive:id">62</property>
  </entry>
  <entry producer="producer101" in="00:00:00.000" out="00:00:01.850">
   <property name="kdenlive:id">63</property>
  </entry>
  <entry producer="producer620" in="00:00:00.000" out="00:00:00.983">
   <property name="kdenlive:id">64</property>
  </entry>
  <entry producer="producer621" in="00:00:00.000" out="00:00:01.983">
   <property name="kdenlive:id">100</property>
  </entry>
  <entry producer="producer622" in="00:00:00.000" out="00:00:00.983">
   <property name="kdenlive:id">108</property>
  </entry>
  <entry producer="producer623" in="00:00:00.000" out="00:00:05.267">
   <property name="kdenlive:id">110</property>
  </entry>
  <entry producer="producer624" in="00:00:00.000" out="00:00:01.983">
   <property name="kdenlive:id">112</property>
  </entry>
  <entry producer="producer625" in="00:00:00.000" out="00:00:00.983">
   <property name="kdenlive:id">114</property>
  </entry>
  <entry producer="producer152" in="00:00:00.000" out="00:00:00.817">
   <property name="kdenlive:id">115</property>
  </entry>
  <entry producer="producer626" in="00:00:00.000" out="00:00:00.983">
   <property name="kdenlive:id">116</property>
  </entry>
  <entry producer="producer153" in="00:00:00.000" out="00:00:00.817">
   <property name="kdenlive:id">117</property>
  </entry>
  <entry producer="producer627" in="00:00:00.000" out="00:00:00.983">
   <property name="kdenlive:id">118</property>
  </entry>
  <entry producer="producer157" in="00:00:00.000" out="00:00:00.733">
   <property name="kdenlive:id">119</property>
  </entry>
  <entry producer="producer628" in="00:00:00.000" out="00:00:00.983">
   <property name="kdenlive:id">120</property>
  </entry>
  <entry producer="producer629" in="00:00:00.000" out="00:00:00.983">
   <property name="kdenlive:id">122</property>
  </entry>
  <entry producer="producer630" in="00:00:00.000" out="00:00:00.983">
   <property name="kdenlive:id">102</property>
  </entry>
  <entry producer="producer631" in="00:00:00.000" out="00:00:00.983">
   <property name="kdenlive:id">104</property>
  </entry>
  <entry producer="producer632" in="00:00:00.000" out="00:00:00.983">
   <property name="kdenlive:id">106</property>
  </entry>
  <entry producer="producer633" in="00:00:00.000" out="00:00:01.983">
   <property name="kdenlive:id">15</property>
  </entry>
  <entry producer="producer634" in="00:00:00.000" out="00:00:00.983">
   <property name="kdenlive:id">17</property>
  </entry>
  <entry producer="producer635" in="00:00:00.000" out="00:00:06.833">
   <property name="kdenlive:id">19</property>
  </entry>
  <entry producer="producer636" in="00:00:00.000" out="00:00:01.983">
   <property name="kdenlive:id">21</property>
  </entry>
  <entry producer="producer637" in="00:00:00.000" out="00:00:00.983">
   <property name="kdenlive:id">23</property>
  </entry>
  <entry producer="producer638" in="00:00:00.000" out="00:00:00.983">
   <property name="kdenlive:id">25</property>
  </entry>
  <entry producer="producer639" in="00:00:00.000" out="00:00:00.983">
   <property name="kdenlive:id">27</property>
  </entry>
  <entry producer="producer640" in="00:00:00.000" out="00:00:00.983">
   <property name="kdenlive:id">29</property>
  </entry>
  <entry producer="producer641" in="00:00:00.000" out="00:00:00.983">
   <property name="kdenlive:id">341</property>
  </entry>
  <entry producer="producer642" in="00:00:00.000" out="00:00:00.983">
   <property name="kdenlive:id">347</property>
  </entry>
  <entry producer="producer643" in="00:00:00.000" out="00:00:04.383">
   <property name="kdenlive:id">349</property>
  </entry>
  <entry producer="producer644" in="00:00:00.000" out="00:00:01.983">
   <property name="kdenlive:id">351</property>
  </entry>
  <entry producer="producer645" in="00:00:00.000" out="00:00:00.983">
   <property name="kdenlive:id">353</property>
  </entry>
  <entry producer="producer646" in="00:00:00.000" out="00:00:00.983">
   <property name="kdenlive:id">355</property>
  </entry>
  <entry producer="producer647" in="00:00:00.000" out="00:00:00.983">
   <property name="kdenlive:id">357</property>
  </entry>
  <entry producer="producer648" in="00:00:00.000" out="00:00:00.983">
   <property name="kdenlive:id">359</property>
  </entry>
  <entry producer="producer649" in="00:00:00.000" out="00:00:00.983">
   <property name="kdenlive:id">361</property>
  </entry>
  <entry producer="producer650" in="00:00:00.000" out="00:00:00.983">
   <property name="kdenlive:id">343</property>
  </entry>
  <entry producer="producer651" in="00:00:00.000" out="00:00:00.983">
   <property name="kdenlive:id">345</property>
  </entry>
  <entry producer="producer652" in="00:00:00.000" out="00:00:00.983">
   <property name="kdenlive:id">254</property>
  </entry>
  <entry producer="producer289" in="00:00:00.000" out="00:00:07.583">
   <property name="kdenlive:id">255</property>
  </entry>
  <entry producer="producer653" in="00:00:00.000" out="00:00:00.983">
   <property name="kdenlive:id">276</property>
  </entry>
  <entry producer="producer654" in="00:00:00.000" out="00:00:00.983">
   <property name="kdenlive:id">299</property>
  </entry>
  <entry producer="producer333" in="00:00:00.000" out="00:00:05.583">
   <property name="kdenlive:id">300</property>
  </entry>
  <entry producer="producer655" in="00:00:00.000" out="00:00:01.983">
   <property name="kdenlive:id">321</property>
  </entry>
  <entry producer="producer656" in="00:00:00.000" out="00:00:00.983">
   <property name="kdenlive:id">331</property>
  </entry>
  <entry producer="producer368" in="00:00:00.000" out="00:00:06.033">
   <property name="kdenlive:id">332</property>
  </entry>
  <entry producer="producer657" in="00:00:00.000" out="00:00:00.983">
   <property name="kdenlive:id">333</property>
  </entry>
  <entry producer="producer658" in="00:00:00.000" out="00:00:01.983">
   <property name="kdenlive:id">335</property>
  </entry>
  <entry producer="producer371" in="00:00:00.000" out="00:00:01.283">
   <property name="kdenlive:id">336</property>
  </entry>
  <entry producer="producer659" in="00:00:00.000" out="00:00:00.983">
   <property name="kdenlive:id">337</property>
  </entry>
  <entry producer="producer660" in="00:00:00.000" out="00:00:00.983">
   <property name="kdenlive:id">339</property>
  </entry>
  <entry producer="producer661" in="00:00:00.000" out="00:00:00.983">
   <property name="kdenlive:id">256</property>
  </entry>
  <entry producer="producer662" in="00:00:00.000" out="00:00:00.983">
   <property name="kdenlive:id">258</property>
  </entry>
  <entry producer="producer663" in="00:00:00.000" out="00:00:00.983">
   <property name="kdenlive:id">260</property>
  </entry>
  <entry producer="producer664" in="00:00:00.000" out="00:00:00.983">
   <property name="kdenlive:id">262</property>
  </entry>
  <entry producer="producer300" in="00:00:00.000" out="00:00:00.817">
   <property name="kdenlive:id">263</property>
   <filter id="filter8" in="00:00:-0.017" out="00:00:00.817">
    <property name="start">1</property>
    <property name="mlt_service">brightness</property>
    <property name="kdenlive_id">fade_to_black</property>
    <property name="end">0</property>
    <property name="alpha">-1</property>
    <property name="kdenlive:collapsed">0</property>
   </filter>
  </entry>
  <entry producer="producer330" in="00:00:00.000" out="00:00:00.533">
   <property name="kdenlive:id">296</property>
  </entry>
  <entry producer="producer665" in="00:00:00.000" out="00:00:00.983">
   <property name="kdenlive:id">297</property>
  </entry>
  <entry producer="producer332" in="00:00:00.000" out="00:00:00.250">
   <property name="kdenlive:id">298</property>
  </entry>
  <entry producer="producer666" in="00:00:00.000" out="00:00:00.983">
   <property name="kdenlive:id">301</property>
  </entry>
  <entry producer="producer336" in="00:00:00.000" out="00:00:01.033">
   <property name="kdenlive:id">302</property>
  </entry>
  <entry producer="producer667" in="00:00:00.000" out="00:00:00.983">
   <property name="kdenlive:id">303</property>
  </entry>
  <entry producer="producer668" in="00:00:00.000" out="00:00:00.983">
   <property name="kdenlive:id">305</property>
  </entry>
  <entry producer="producer669" in="00:00:00.000" out="00:00:00.983">
   <property name="kdenlive:id">307</property>
  </entry>
  <entry producer="producer342" in="00:00:00.000" out="00:00:01.133">
   <property name="kdenlive:id">308</property>
  </entry>
  <entry producer="producer670" in="00:00:00.000" out="00:00:00.983">
   <property name="kdenlive:id">309</property>
  </entry>
  <entry producer="producer671" in="00:00:00.000" out="00:00:00.983">
   <property name="kdenlive:id">311</property>
  </entry>
  <entry producer="producer672" in="00:00:00.000" out="00:00:00.983">
   <property name="kdenlive:id">313</property>
  </entry>
  <entry producer="producer349" in="00:00:00.000" out="00:00:06.633">
   <property name="kdenlive:id">314</property>
  </entry>
  <entry producer="producer673" in="00:00:00.000" out="00:00:00.983">
   <property name="kdenlive:id">315</property>
  </entry>
  <entry producer="producer674" in="00:00:00.000" out="00:00:00.983">
   <property name="kdenlive:id">317</property>
  </entry>
  <entry producer="producer675" in="00:00:00.000" out="00:00:00.983">
   <property name="kdenlive:id">319</property>
  </entry>
  <entry producer="producer353" in="00:00:00.000" out="00:00:01.450">
   <property name="kdenlive:id">320</property>
  </entry>
  <entry producer="producer676" in="00:00:00.000" out="00:00:00.983">
   <property name="kdenlive:id">323</property>
  </entry>
  <entry producer="producer677" in="00:00:00.000" out="00:00:01.983">
   <property name="kdenlive:id">325</property>
  </entry>
  <entry producer="producer678" in="00:00:00.000" out="00:00:00.983">
   <property name="kdenlive:id">327</property>
  </entry>
  <entry producer="producer362" in="00:00:00.000" out="00:00:00.683">
   <property name="kdenlive:id">328</property>
  </entry>
  <blank length="00:00:00.017"/>
  <entry producer="producer679" in="00:00:00.000" out="00:00:00.983">
   <property name="kdenlive:id">329</property>
  </entry>
  <entry producer="producer680" in="00:00:00.000" out="00:00:00.983">
   <property name="kdenlive:id">210</property>
  </entry>
  <entry producer="producer681" in="00:00:00.000" out="00:00:00.983">
   <property name="kdenlive:id">232</property>
  </entry>
  <entry producer="producer267" in="00:00:00.000" out="00:00:02.350">
   <property name="kdenlive:id">233</property>
  </entry>
  <entry producer="producer682" in="00:00:00.000" out="00:00:07.033">
   <property name="kdenlive:id">240</property>
  </entry>
  <entry producer="producer276" in="00:00:00.000" out="00:00:03.617">
   <property name="kdenlive:id">241</property>
  </entry>
  <entry producer="producer683" in="00:00:00.000" out="00:00:00.983">
   <property name="kdenlive:id">242</property>
  </entry>
  <entry producer="producer684" in="00:00:00.000" out="00:00:00.983">
   <property name="kdenlive:id">244</property>
  </entry>
  <entry producer="producer685" in="00:00:00.000" out="00:00:00.983">
   <property name="kdenlive:id">246</property>
  </entry>
  <entry producer="producer686" in="00:00:00.000" out="00:00:00.983">
   <property name="kdenlive:id">248</property>
  </entry>
  <entry producer="producer687" in="00:00:00.000" out="00:00:01.983">
   <property name="kdenlive:id">250</property>
  </entry>
  <entry producer="producer286" in="00:00:00.000" out="00:00:00.067">
   <property name="kdenlive:id">251</property>
  </entry>
  <entry producer="producer688" in="00:00:00.000" out="00:00:00.983">
   <property name="kdenlive:id">252</property>
  </entry>
  <entry producer="producer287" in="00:00:00.000" out="00:00:00.367">
   <property name="kdenlive:id">253</property>
  </entry>
  <entry producer="producer689" in="00:00:00.000" out="00:00:00.983">
   <property name="kdenlive:id">212</property>
  </entry>
  <entry producer="producer246" in="00:00:00.000" out="00:00:04.633">
   <property name="kdenlive:id">213</property>
  </entry>
  <entry producer="producer690" in="00:00:00.000" out="00:00:00.983">
   <property name="kdenlive:id">214</property>
  </entry>
  <entry producer="producer250" in="00:00:00.000" out="00:00:06.533">
   <property name="kdenlive:id">215</property>
  </entry>
  <entry producer="producer691" in="00:00:00.000" out="00:00:00.983">
   <property name="kdenlive:id">216</property>
  </entry>
  <entry producer="producer692" in="00:00:00.000" out="00:00:00.983">
   <property name="kdenlive:id">218</property>
  </entry>
  <entry producer="producer253" in="00:00:00.000" out="00:00:03.817">
   <property name="kdenlive:id">219</property>
  </entry>
  <entry producer="producer693" in="00:00:00.000" out="00:00:00.983">
   <property name="kdenlive:id">220</property>
  </entry>
  <entry producer="producer254" in="00:00:00.000" out="00:00:00.983">
   <property name="kdenlive:id">221</property>
  </entry>
  <entry producer="producer694" in="00:00:00.000" out="00:00:00.983">
   <property name="kdenlive:id">222</property>
  </entry>
  <entry producer="producer258" in="00:00:00.000" out="00:00:04.117">
   <property name="kdenlive:id">223</property>
  </entry>
  <entry producer="producer695" in="00:00:00.000" out="00:00:00.983">
   <property name="kdenlive:id">224</property>
  </entry>
  <entry producer="producer259" in="00:00:00.000" out="00:00:04.833">
   <property name="kdenlive:id">225</property>
  </entry>
  <entry producer="producer696" in="00:00:00.000" out="00:00:00.983">
   <property name="kdenlive:id">226</property>
  </entry>
  <entry producer="producer261" in="00:00:00.000" out="00:00:01.050">
   <property name="kdenlive:id">227</property>
  </entry>
  <entry producer="producer697" in="00:00:00.000" out="00:00:00.983">
   <property name="kdenlive:id">228</property>
  </entry>
  <entry producer="producer698" in="00:00:00.000" out="00:00:00.983">
   <property name="kdenlive:id">230</property>
  </entry>
  <entry producer="producer265" in="00:00:00.000" out="00:00:13.617">
   <property name="kdenlive:id">231</property>
  </entry>
  <entry producer="producer699" in="00:00:00.000" out="00:00:00.983">
   <property name="kdenlive:id">234</property>
  </entry>
  <entry producer="producer271" in="00:00:00.000" out="00:00:05.717">
   <property name="kdenlive:id">235</property>
  </entry>
  <entry producer="producer700" in="00:00:00.000" out="00:00:00.983">
   <property name="kdenlive:id">236</property>
  </entry>
  <entry producer="producer272" in="00:00:00.000" out="00:00:06.933">
   <property name="kdenlive:id">237</property>
  </entry>
  <entry producer="producer701" in="00:00:00.000" out="00:00:00.983">
   <property name="kdenlive:id">238</property>
  </entry>
 </playlist>
 <playlist id="playlist5"/>
 <tractor id="tractor2" in="00:00:00.000" out="00:04:55.417">
  <property name="kdenlive:trackheight">67</property>
  <property name="kdenlive:timeline_active">1</property>
  <property name="kdenlive:collapsed">0</property>
  <property name="kdenlive:thumbs_format"/>
  <property name="kdenlive:audio_rec"/>
  <track hide="audio" producer="playlist4"/>
  <track producer="playlist5"/>
 </tractor>
 <playlist id="playlist6"/>
 <playlist id="playlist7"/>
 <tractor id="tractor3" in="00:00:00.000">
  <property name="kdenlive:trackheight">67</property>
  <property name="kdenlive:timeline_active">1</property>
  <property name="kdenlive:collapsed">0</property>
  <property name="kdenlive:thumbs_format"/>
  <property name="kdenlive:audio_rec"/>
  <track hide="audio" producer="playlist6"/>
  <track producer="playlist7"/>
 </tractor>
 <tractor id="tractor4" global_feed="1" in="00:00:00.000" out="00:14:49.933">
  <track producer="black_track"/>
  <track producer="tractor0"/>
  <track producer="tractor1"/>
  <track producer="tractor2"/>
  <track producer="tractor3"/>
  <transition id="transition0">
   <property name="a_track">0</property>
   <property name="b_track">1</property>
   <property name="mlt_service">mix</property>
   <property name="kdenlive_id">mix</property>
   <property name="internal_added">237</property>
   <property name="always_active">1</property>
   <property name="accepts_blanks">1</property>
   <property name="sum">1</property>
  </transition>
  <transition id="transition1">
   <property name="a_track">0</property>
   <property name="b_track">2</property>
   <property name="mlt_service">mix</property>
   <property name="kdenlive_id">mix</property>
   <property name="internal_added">237</property>
   <property name="always_active">1</property>
   <property name="accepts_blanks">1</property>
   <property name="sum">1</property>
  </transition>
  <transition id="transition2">
   <property name="a_track">0</property>
   <property name="b_track">3</property>
   <property name="compositing">0</property>
   <property name="distort">0</property>
   <property name="rotate_center">0</property>
   <property name="mlt_service">qtblend</property>
   <property name="kdenlive_id">qtblend</property>
   <property name="internal_added">237</property>
   <property name="always_active">1</property>
  </transition>
  <transition id="transition3">
   <property name="a_track">0</property>
   <property name="b_track">4</property>
   <property name="compositing">0</property>
   <property name="distort">0</property>
   <property name="rotate_center">0</property>
   <property name="mlt_service">qtblend</property>
   <property name="kdenlive_id">qtblend</property>
   <property name="internal_added">237</property>
   <property name="always_active">1</property>
  </transition>
  <filter id="filter9">
   <property name="window">75</property>
   <property name="max_gain">20dB</property>
   <property name="level">-13.6716</property>
   <property name="mlt_service">volume</property>
   <property name="internal_added">237</property>
   <property name="disable">0</property>
  </filter>
  <filter id="filter10">
   <property name="channel">-1</property>
   <property name="mlt_service">panner</property>
   <property name="internal_added">237</property>
   <property name="start">0.5</property>
   <property name="disable">1</property>
  </filter>
  <filter id="filter11">
   <property name="mlt_service">avfilter.subtitles</property>
   <property name="internal_added">237</property>
   <property name="av.filename">/tmp/1619043766034.srt</property>
  </filter>
  <filter id="filter12">
   <property name="iec_scale">0</property>
   <property name="mlt_service">audiolevel</property>
   <property name="disable">1</property>
  </filter>
 </tractor>
</mlt>
