<?xml version='1.0' encoding='utf-8'?>
<mlt LC_NUMERIC="C" producer="main_bin" version="6.26.1" root="/home/xiaoxiae/Documents/Education/Programming/Manim/03-vizing">
 <profile frame_rate_num="60" sample_aspect_num="1" display_aspect_den="9" colorspace="709" progressive="1" description="HD 1080p 60 fps" display_aspect_num="16" frame_rate_den="1" width="1920" height="1080" sample_aspect_den="1"/>
 <producer id="producer0" in="00:00:00.000" out="00:02:46.650">
  <property name="length">10000</property>
  <property name="eof">pause</property>
  <property name="resource">music/Confectionery - Beignet.mp3</property>
  <property name="meta.media.nb_streams">1</property>
  <property name="meta.media.0.stream.type">audio</property>
  <property name="meta.media.0.codec.sample_fmt">fltp</property>
  <property name="meta.media.0.codec.sample_rate">44100</property>
  <property name="meta.media.0.codec.channels">2</property>
  <property name="meta.media.0.codec.name">mp3float</property>
  <property name="meta.media.0.codec.long_name">MP3 (MPEG audio layer 3)</property>
  <property name="meta.media.0.codec.bit_rate">128000</property>
  <property name="meta.attr.comment.markup">For track information and licensing visit www.sessions.blue</property>
  <property name="meta.attr.title.markup">Beignet</property>
  <property name="meta.attr.album.markup">Confectionery</property>
  <property name="meta.attr.composer.markup">Galen Huckins</property>
  <property name="meta.attr.artist.markup">Blue Dot Sessions</property>
  <property name="meta.attr.publisher.markup">Blue Dot Studios</property>
  <property name="meta.attr.genre.markup">instrumental</property>
  <property name="meta.attr.TKEY.markup">F</property>
  <property name="meta.attr.TBPM.markup">130</property>
  <property name="meta.attr.TSRC.markup">USL4R1810588</property>
  <property name="meta.attr.website.markup">www.sessions.blue</property>
  <property name="meta.attr.copyright.markup">(CCBYNC) 2018 Creative Commons NonCommercial-Attribution</property>
  <property name="meta.attr.date.markup">2018</property>
  <property name="seekable">1</property>
  <property name="audio_index">0</property>
  <property name="video_index">-1</property>
  <property name="mute_on_pause">1</property>
  <property name="mlt_service">avformat</property>
  <property name="kdenlive:clipname"/>
  <property name="kdenlive:folderid">15</property>
  <property name="kdenlive:id">2</property>
  <property name="kdenlive:file_size">2667281</property>
  <property name="kdenlive:file_hash">20d55602226233b791982303dde83926</property>
  <property name="kdenlive:audio_max">1</property>
 </producer>
 <producer id="producer1" in="00:00:00.000" out="00:02:10.250">
  <property name="length">7816</property>
  <property name="eof">pause</property>
  <property name="resource">music/Confectionery - Bundt.mp3</property>
  <property name="meta.media.nb_streams">1</property>
  <property name="meta.media.0.stream.type">audio</property>
  <property name="meta.media.0.codec.sample_fmt">fltp</property>
  <property name="meta.media.0.codec.sample_rate">44100</property>
  <property name="meta.media.0.codec.channels">2</property>
  <property name="meta.media.0.codec.name">mp3float</property>
  <property name="meta.media.0.codec.long_name">MP3 (MPEG audio layer 3)</property>
  <property name="meta.media.0.codec.bit_rate">128000</property>
  <property name="meta.attr.comment.markup">For track information and licensing visit www.sessions.blue</property>
  <property name="meta.attr.title.markup">Bundt</property>
  <property name="meta.attr.album.markup">Confectionery</property>
  <property name="meta.attr.composer.markup">Galen Huckins</property>
  <property name="meta.attr.artist.markup">Blue Dot Sessions</property>
  <property name="meta.attr.publisher.markup">Blue Dot Studios</property>
  <property name="meta.attr.genre.markup">instrumental</property>
  <property name="meta.attr.TKEY.markup">C</property>
  <property name="meta.attr.TBPM.markup">135</property>
  <property name="meta.attr.TSRC.markup">USL4R1810603</property>
  <property name="meta.attr.website.markup">www.sessions.blue</property>
  <property name="meta.attr.copyright.markup">(CCBYNC) 2018 Creative Commons NonCommercial-Attribution</property>
  <property name="meta.attr.date.markup">2018</property>
  <property name="seekable">1</property>
  <property name="audio_index">0</property>
  <property name="video_index">-1</property>
  <property name="mute_on_pause">1</property>
  <property name="mlt_service">avformat</property>
  <property name="kdenlive:clipname"/>
  <property name="kdenlive:folderid">15</property>
  <property name="kdenlive:id">3</property>
  <property name="kdenlive:file_size">2085060</property>
  <property name="kdenlive:file_hash">3a1817a2b457b870d719e4fd583aeff4</property>
  <property name="kdenlive:audio_max">1</property>
 </producer>
 <producer id="producer2" in="00:00:00.000" out="00:02:33.117">
  <property name="length">9188</property>
  <property name="eof">pause</property>
  <property name="resource">music/Confectionery - Maisie Dreamer.mp3</property>
  <property name="meta.media.nb_streams">1</property>
  <property name="meta.media.0.stream.type">audio</property>
  <property name="meta.media.0.codec.sample_fmt">fltp</property>
  <property name="meta.media.0.codec.sample_rate">44100</property>
  <property name="meta.media.0.codec.channels">2</property>
  <property name="meta.media.0.codec.name">mp3float</property>
  <property name="meta.media.0.codec.long_name">MP3 (MPEG audio layer 3)</property>
  <property name="meta.media.0.codec.bit_rate">128000</property>
  <property name="meta.attr.comment.markup">For track information and licensing visit www.sessions.blue</property>
  <property name="meta.attr.title.markup">Maisie Dreamer</property>
  <property name="meta.attr.album.markup">Nursery</property>
  <property name="meta.attr.composer.markup">Galen Huckins</property>
  <property name="meta.attr.artist.markup">Blue Dot Sessions</property>
  <property name="meta.attr.publisher.markup">Blue Dot Studios</property>
  <property name="meta.attr.genre.markup">instrumental</property>
  <property name="meta.attr.TKEY.markup">C</property>
  <property name="meta.attr.TBPM.markup">109</property>
  <property name="meta.attr.TSRC.markup">USHM81825738</property>
  <property name="meta.attr.website.markup">www.sessions.blue</property>
  <property name="meta.attr.copyright.markup">(CCBYNC) 2018 Creative Commons NonCommercial-Attribution</property>
  <property name="meta.attr.date.markup">2018</property>
  <property name="seekable">1</property>
  <property name="audio_index">0</property>
  <property name="video_index">-1</property>
  <property name="mute_on_pause">1</property>
  <property name="mlt_service">avformat</property>
  <property name="kdenlive:clipname"/>
  <property name="kdenlive:folderid">15</property>
  <property name="kdenlive:id">4</property>
  <property name="kdenlive:file_size">2450780</property>
  <property name="kdenlive:file_hash">ac8f85e444fd454c4971e32c6de23466</property>
  <property name="kdenlive:audio_max">1</property>
 </producer>
 <producer id="producer3" in="00:00:00.000" out="00:03:46.050">
  <property name="length">13564</property>
  <property name="eof">pause</property>
  <property name="resource">music/Confectionery - Palms Down.mp3</property>
  <property name="meta.media.nb_streams">1</property>
  <property name="meta.media.0.stream.type">audio</property>
  <property name="meta.media.0.codec.sample_fmt">fltp</property>
  <property name="meta.media.0.codec.sample_rate">44100</property>
  <property name="meta.media.0.codec.channels">2</property>
  <property name="meta.media.0.codec.name">mp3float</property>
  <property name="meta.media.0.codec.long_name">MP3 (MPEG audio layer 3)</property>
  <property name="meta.media.0.codec.bit_rate">128000</property>
  <property name="meta.attr.comment.markup">For track information and licensing visit www.sessions.blue</property>
  <property name="meta.attr.title.markup">Palms Down</property>
  <property name="meta.attr.album.markup">Confectionery</property>
  <property name="meta.attr.composer.markup">Galen Huckins</property>
  <property name="meta.attr.artist.markup">Blue Dot Sessions</property>
  <property name="meta.attr.publisher.markup">Blue Dot Studios</property>
  <property name="meta.attr.genre.markup">instrumental</property>
  <property name="meta.attr.TKEY.markup">C</property>
  <property name="meta.attr.TBPM.markup">128</property>
  <property name="meta.attr.TSRC.markup">USL4R1810602</property>
  <property name="meta.attr.website.markup">www.sessions.blue</property>
  <property name="meta.attr.copyright.markup">(CCBYNC) 2018 Creative Commons NonCommercial-Attribution</property>
  <property name="meta.attr.date.markup">2018</property>
  <property name="seekable">1</property>
  <property name="audio_index">0</property>
  <property name="video_index">-1</property>
  <property name="mute_on_pause">1</property>
  <property name="mlt_service">avformat</property>
  <property name="kdenlive:clipname"/>
  <property name="kdenlive:folderid">15</property>
  <property name="kdenlive:id">5</property>
  <property name="kdenlive:file_size">3617726</property>
  <property name="kdenlive:file_hash">f54be5ed1354cfa7769dde43694fbed5</property>
  <property name="kdenlive:audio_max">1</property>
 </producer>
 <producer id="producer4" in="00:00:00.000" out="00:02:59.500">
  <property name="length">10771</property>
  <property name="eof">pause</property>
  <property name="resource">music/Glass Obelisk - Dell Mare.mp3</property>
  <property name="meta.media.nb_streams">1</property>
  <property name="meta.media.0.stream.type">audio</property>
  <property name="meta.media.0.codec.sample_fmt">fltp</property>
  <property name="meta.media.0.codec.sample_rate">44100</property>
  <property name="meta.media.0.codec.channels">2</property>
  <property name="meta.media.0.codec.name">mp3float</property>
  <property name="meta.media.0.codec.long_name">MP3 (MPEG audio layer 3)</property>
  <property name="meta.media.0.codec.bit_rate">128000</property>
  <property name="meta.attr.comment.markup">For track information and licensing visit www.sessions.blue</property>
  <property name="meta.attr.title.markup">Dell Mare</property>
  <property name="meta.attr.album.markup">Glass Obelisk</property>
  <property name="meta.attr.composer.markup">Galen Huckins</property>
  <property name="meta.attr.artist.markup">Blue Dot Sessions</property>
  <property name="meta.attr.publisher.markup">Blue Dot Studios</property>
  <property name="meta.attr.genre.markup">instrumental</property>
  <property name="meta.attr.TKEY.markup">G</property>
  <property name="meta.attr.TBPM.markup">115</property>
  <property name="meta.attr.website.markup">www.sessions.blue</property>
  <property name="meta.attr.copyright.markup">(CCBYNC) 2020 Creative Commons NonCommercial-Attribution</property>
  <property name="meta.attr.date.markup">2020</property>
  <property name="seekable">1</property>
  <property name="audio_index">0</property>
  <property name="video_index">-1</property>
  <property name="mute_on_pause">1</property>
  <property name="mlt_service">avformat</property>
  <property name="kdenlive:clipname"/>
  <property name="kdenlive:folderid">15</property>
  <property name="kdenlive:id">6</property>
  <property name="kdenlive:file_size">2872884</property>
  <property name="kdenlive:file_hash">63e1874b3fbd6452cb40b0a1b07b5f17</property>
  <property name="kdenlive:audio_max">1</property>
 </producer>
 <producer id="producer5" in="00:00:00.000" out="00:02:47.633">
  <property name="length">10059</property>
  <property name="eof">pause</property>
  <property name="resource">music/Glass Obelisk - Morning Glare.mp3</property>
  <property name="meta.media.nb_streams">1</property>
  <property name="meta.media.0.stream.type">audio</property>
  <property name="meta.media.0.codec.sample_fmt">fltp</property>
  <property name="meta.media.0.codec.sample_rate">44100</property>
  <property name="meta.media.0.codec.channels">2</property>
  <property name="meta.media.0.codec.name">mp3float</property>
  <property name="meta.media.0.codec.long_name">MP3 (MPEG audio layer 3)</property>
  <property name="meta.media.0.codec.bit_rate">128000</property>
  <property name="meta.attr.comment.markup">For track information and licensing visit www.sessions.blue</property>
  <property name="meta.attr.title.markup">Morning Glare</property>
  <property name="meta.attr.album.markup">Glass Obelisk</property>
  <property name="meta.attr.composer.markup">Galen Huckins</property>
  <property name="meta.attr.artist.markup">Blue Dot Sessions</property>
  <property name="meta.attr.publisher.markup">Blue Dot Studios</property>
  <property name="meta.attr.genre.markup">instrumental</property>
  <property name="meta.attr.TKEY.markup">C#m</property>
  <property name="meta.attr.TBPM.markup">115</property>
  <property name="meta.attr.website.markup">www.sessions.blue</property>
  <property name="meta.attr.copyright.markup">(CCBYNC) 2020 Creative Commons NonCommercial-Attribution</property>
  <property name="meta.attr.date.markup">2020</property>
  <property name="seekable">1</property>
  <property name="audio_index">0</property>
  <property name="video_index">-1</property>
  <property name="mute_on_pause">1</property>
  <property name="mlt_service">avformat</property>
  <property name="kdenlive:clipname"/>
  <property name="kdenlive:folderid">15</property>
  <property name="kdenlive:id">7</property>
  <property name="kdenlive:file_size">2683143</property>
  <property name="kdenlive:file_hash">3736407e9170fe2b3adcf27fbe6e58ac</property>
  <property name="kdenlive:audio_max">1</property>
 </producer>
 <producer id="producer6" in="00:00:00.000" out="00:03:11.383">
  <property name="length">11484</property>
  <property name="eof">pause</property>
  <property name="resource">music/Glass Obelisk - Pacific Time.mp3</property>
  <property name="meta.media.nb_streams">1</property>
  <property name="meta.media.0.stream.type">audio</property>
  <property name="meta.media.0.codec.sample_fmt">fltp</property>
  <property name="meta.media.0.codec.sample_rate">44100</property>
  <property name="meta.media.0.codec.channels">2</property>
  <property name="meta.media.0.codec.name">mp3float</property>
  <property name="meta.media.0.codec.long_name">MP3 (MPEG audio layer 3)</property>
  <property name="meta.media.0.codec.bit_rate">128000</property>
  <property name="meta.attr.comment.markup">For track information and licensing visit www.sessions.blue</property>
  <property name="meta.attr.title.markup">Pacific Time</property>
  <property name="meta.attr.album.markup">Glass Obelisk</property>
  <property name="meta.attr.composer.markup">Galen Huckins</property>
  <property name="meta.attr.artist.markup">Blue Dot Sessions</property>
  <property name="meta.attr.publisher.markup">Blue Dot Studios</property>
  <property name="meta.attr.genre.markup">instrumental</property>
  <property name="meta.attr.TKEY.markup">C</property>
  <property name="meta.attr.TBPM.markup">95</property>
  <property name="meta.attr.website.markup">www.sessions.blue</property>
  <property name="meta.attr.copyright.markup">(CCBYNC) 2020 Creative Commons NonCommercial-Attribution</property>
  <property name="meta.attr.date.markup">2020</property>
  <property name="seekable">1</property>
  <property name="audio_index">0</property>
  <property name="video_index">-1</property>
  <property name="mute_on_pause">1</property>
  <property name="mlt_service">avformat</property>
  <property name="kdenlive:clipname"/>
  <property name="kdenlive:folderid">15</property>
  <property name="kdenlive:id">8</property>
  <property name="kdenlive:file_size">3063059</property>
  <property name="kdenlive:file_hash">20b6ce6fc1cbfb73b5b5595ea96835c6</property>
  <property name="kdenlive:audio_max">3</property>
 </producer>
 <producer id="producer7" in="00:00:00.000" out="00:03:08.383">
  <property name="length">11304</property>
  <property name="eof">pause</property>
  <property name="resource">music/Glass Obelisk - Plate Glass.mp3</property>
  <property name="meta.media.nb_streams">1</property>
  <property name="meta.media.0.stream.type">audio</property>
  <property name="meta.media.0.codec.sample_fmt">fltp</property>
  <property name="meta.media.0.codec.sample_rate">44100</property>
  <property name="meta.media.0.codec.channels">2</property>
  <property name="meta.media.0.codec.name">mp3float</property>
  <property name="meta.media.0.codec.long_name">MP3 (MPEG audio layer 3)</property>
  <property name="meta.media.0.codec.bit_rate">128000</property>
  <property name="meta.attr.comment.markup">For track information and licensing visit www.sessions.blue</property>
  <property name="meta.attr.title.markup">Plate Glass</property>
  <property name="meta.attr.album.markup">Glass Obelisk</property>
  <property name="meta.attr.composer.markup">Galen Huckins</property>
  <property name="meta.attr.artist.markup">Blue Dot Sessions</property>
  <property name="meta.attr.publisher.markup">Blue Dot Studios</property>
  <property name="meta.attr.genre.markup">instrumental</property>
  <property name="meta.attr.TKEY.markup">G</property>
  <property name="meta.attr.TBPM.markup">115</property>
  <property name="meta.attr.website.markup">www.sessions.blue</property>
  <property name="meta.attr.copyright.markup">(CCBYNC) 2020 Creative Commons NonCommercial-Attribution</property>
  <property name="meta.attr.date.markup">2020</property>
  <property name="seekable">1</property>
  <property name="audio_index">0</property>
  <property name="video_index">-1</property>
  <property name="mute_on_pause">1</property>
  <property name="mlt_service">avformat</property>
  <property name="kdenlive:clipname"/>
  <property name="kdenlive:folderid">15</property>
  <property name="kdenlive:id">9</property>
  <property name="kdenlive:file_size">3014994</property>
  <property name="kdenlive:file_hash">f638bc12f1c14e40c6ea0291e2335f3e</property>
  <property name="kdenlive:audio_max">3</property>
 </producer>
 <producer id="producer8" in="00:00:00.000" out="00:02:54.800">
  <property name="length">10489</property>
  <property name="eof">pause</property>
  <property name="resource">music/Nursery - A Little Powder.mp3</property>
  <property name="meta.media.nb_streams">1</property>
  <property name="meta.media.0.stream.type">audio</property>
  <property name="meta.media.0.codec.sample_fmt">fltp</property>
  <property name="meta.media.0.codec.sample_rate">44100</property>
  <property name="meta.media.0.codec.channels">2</property>
  <property name="meta.media.0.codec.name">mp3float</property>
  <property name="meta.media.0.codec.long_name">MP3 (MPEG audio layer 3)</property>
  <property name="meta.media.0.codec.bit_rate">128000</property>
  <property name="meta.attr.comment.markup">For track information and licensing visit www.sessions.blue</property>
  <property name="meta.attr.title.markup">A Little Powder</property>
  <property name="meta.attr.album.markup">Nursery</property>
  <property name="meta.attr.composer.markup">Galen Huckins</property>
  <property name="meta.attr.artist.markup">Blue Dot Sessions</property>
  <property name="meta.attr.publisher.markup">Blue Dot Studios</property>
  <property name="meta.attr.genre.markup">instrumental</property>
  <property name="meta.attr.TKEY.markup">C</property>
  <property name="meta.attr.TBPM.markup">146</property>
  <property name="meta.attr.TSRC.markup">USHM81825733</property>
  <property name="meta.attr.website.markup">www.sessions.blue</property>
  <property name="meta.attr.copyright.markup">(CCBYNC) 2018 Creative Commons NonCommercial-Attribution</property>
  <property name="meta.attr.date.markup">2018</property>
  <property name="seekable">1</property>
  <property name="audio_index">0</property>
  <property name="video_index">-1</property>
  <property name="mute_on_pause">1</property>
  <property name="mlt_service">avformat</property>
  <property name="kdenlive:clipname"/>
  <property name="kdenlive:folderid">15</property>
  <property name="kdenlive:id">10</property>
  <property name="kdenlive:file_size">2797688</property>
  <property name="kdenlive:file_hash">647f99d349b7d7c18f2ddbbf9e146b9b</property>
  <property name="kdenlive:audio_max">1</property>
 </producer>
 <producer id="producer9" in="00:00:00.000" out="00:02:38.883">
  <property name="length">9534</property>
  <property name="eof">pause</property>
  <property name="resource">music/Nursery - Lick Stick.mp3</property>
  <property name="meta.media.nb_streams">1</property>
  <property name="meta.media.0.stream.type">audio</property>
  <property name="meta.media.0.codec.sample_fmt">fltp</property>
  <property name="meta.media.0.codec.sample_rate">44100</property>
  <property name="meta.media.0.codec.channels">2</property>
  <property name="meta.media.0.codec.name">mp3float</property>
  <property name="meta.media.0.codec.long_name">MP3 (MPEG audio layer 3)</property>
  <property name="meta.media.0.codec.bit_rate">128000</property>
  <property name="meta.attr.comment.markup">For track information and licensing visit www.sessions.blue</property>
  <property name="meta.attr.title.markup">Lick Stick</property>
  <property name="meta.attr.album.markup">Nursery</property>
  <property name="meta.attr.composer.markup">Galen Huckins</property>
  <property name="meta.attr.artist.markup">Blue Dot Sessions</property>
  <property name="meta.attr.publisher.markup">Blue Dot Studios</property>
  <property name="meta.attr.genre.markup">instrumental</property>
  <property name="meta.attr.TKEY.markup">C</property>
  <property name="meta.attr.TBPM.markup">109</property>
  <property name="meta.attr.TSRC.markup">USHM81825736</property>
  <property name="meta.attr.website.markup">www.sessions.blue</property>
  <property name="meta.attr.copyright.markup">(CCBYNC) 2018 Creative Commons NonCommercial-Attribution</property>
  <property name="meta.attr.date.markup">2018</property>
  <property name="seekable">1</property>
  <property name="audio_index">0</property>
  <property name="video_index">-1</property>
  <property name="mute_on_pause">1</property>
  <property name="mlt_service">avformat</property>
  <property name="kdenlive:clipname"/>
  <property name="kdenlive:folderid">15</property>
  <property name="kdenlive:id">11</property>
  <property name="kdenlive:file_size">2543141</property>
  <property name="kdenlive:file_hash">890700dc2513679c17d3e85f213b18d8</property>
  <property name="kdenlive:audio_max">3</property>
  <property name="global_feed">1</property>
 </producer>
 <producer id="producer10" in="00:00:00.000" out="00:04:25.133">
  <property name="length">15909</property>
  <property name="eof">pause</property>
  <property name="resource">music/Nursery - Night Light.mp3</property>
  <property name="meta.media.nb_streams">1</property>
  <property name="meta.media.0.stream.type">audio</property>
  <property name="meta.media.0.codec.sample_fmt">fltp</property>
  <property name="meta.media.0.codec.sample_rate">44100</property>
  <property name="meta.media.0.codec.channels">2</property>
  <property name="meta.media.0.codec.name">mp3float</property>
  <property name="meta.media.0.codec.long_name">MP3 (MPEG audio layer 3)</property>
  <property name="meta.media.0.codec.bit_rate">128000</property>
  <property name="meta.attr.album.markup">Nursery</property>
  <property name="meta.attr.artist.markup">Blue Dot Sessions</property>
  <property name="meta.attr.composer.markup">Galen Huckins</property>
  <property name="meta.attr.genre.markup">instrumental</property>
  <property name="meta.attr.comment.markup">For track information and licensing visit www.sessions.blue</property>
  <property name="meta.attr.title.markup">Night Light</property>
  <property name="meta.attr.track.markup">6</property>
  <property name="meta.attr.TSRC.markup">USHM81825743</property>
  <property name="meta.attr.publisher.markup">Blue Dot Studios</property>
  <property name="meta.attr.website.markup">www.sessions.blue</property>
  <property name="meta.attr.copyright.markup">(CCBYNC) 2020 Creative Commons NonCommercial-Attribution</property>
  <property name="seekable">1</property>
  <property name="audio_index">0</property>
  <property name="video_index">-1</property>
  <property name="mute_on_pause">1</property>
  <property name="mlt_service">avformat</property>
  <property name="kdenlive:clipname"/>
  <property name="kdenlive:folderid">15</property>
  <property name="kdenlive:id">12</property>
  <property name="kdenlive:file_size">4242905</property>
  <property name="kdenlive:file_hash">07f35c306665862499367216a9e09885</property>
  <property name="kdenlive:audio_max">1</property>
  <property name="global_feed">1</property>
 </producer>
 <producer id="producer11" in="00:00:00.000" out="00:02:54.683">
  <property name="length">10482</property>
  <property name="eof">pause</property>
  <property name="resource">music/Nursery - ZigZag Heart.mp3</property>
  <property name="meta.media.nb_streams">1</property>
  <property name="meta.media.0.stream.type">audio</property>
  <property name="meta.media.0.codec.sample_fmt">fltp</property>
  <property name="meta.media.0.codec.sample_rate">44100</property>
  <property name="meta.media.0.codec.channels">2</property>
  <property name="meta.media.0.codec.name">mp3float</property>
  <property name="meta.media.0.codec.long_name">MP3 (MPEG audio layer 3)</property>
  <property name="meta.media.0.codec.bit_rate">128000</property>
  <property name="meta.attr.comment.markup">For track information and licensing visit www.sessions.blue</property>
  <property name="meta.attr.title.markup">ZigZag Heart</property>
  <property name="meta.attr.album.markup">Nursery</property>
  <property name="meta.attr.composer.markup">Galen Huckins</property>
  <property name="meta.attr.artist.markup">Blue Dot Sessions</property>
  <property name="meta.attr.publisher.markup">Blue Dot Studios</property>
  <property name="meta.attr.genre.markup">instrumental</property>
  <property name="meta.attr.TKEY.markup">C</property>
  <property name="meta.attr.TBPM.markup">90</property>
  <property name="meta.attr.TSRC.markup">USHM81825732</property>
  <property name="meta.attr.website.markup">www.sessions.blue</property>
  <property name="meta.attr.copyright.markup">(CCBYNC) 2018 Creative Commons NonCommercial-Attribution</property>
  <property name="meta.attr.date.markup">2018</property>
  <property name="seekable">1</property>
  <property name="audio_index">0</property>
  <property name="video_index">-1</property>
  <property name="mute_on_pause">1</property>
  <property name="mlt_service">avformat</property>
  <property name="kdenlive:clipname"/>
  <property name="kdenlive:folderid">15</property>
  <property name="kdenlive:id">13</property>
  <property name="kdenlive:file_size">2796009</property>
  <property name="kdenlive:file_hash">9a7e1ba96769741a9429da8d689ac9cb</property>
  <property name="kdenlive:audio_max">1</property>
  <property name="global_feed">1</property>
 </producer>
 <producer id="producer12" in="00:00:00.000" out="00:00:05.133">
  <property name="length">309</property>
  <property name="eof">pause</property>
  <property name="resource">video/video-f000384.png</property>
  <property name="ttl">25</property>
  <property name="aspect_ratio">1</property>
  <property name="progressive">1</property>
  <property name="seekable">1</property>
  <property name="meta.media.width">1920</property>
  <property name="meta.media.height">1080</property>
  <property name="mlt_service">qimage</property>
  <property name="kdenlive:clipname"/>
  <property name="kdenlive:duration">00:00:05.000</property>
  <property name="kdenlive:folderid">-1</property>
  <property name="kdenlive:id">14</property>
  <property name="kdenlive:file_size">494994</property>
  <property name="kdenlive:file_hash">7969a30cec60312330616c1fd2a7f976</property>
 </producer>
 <producer id="producer13" in="00:00:00.000" out="00:00:09.717">
  <property name="length">584</property>
  <property name="eof">pause</property>
  <property name="resource">audio/d1.wav</property>
  <property name="meta.media.nb_streams">1</property>
  <property name="meta.media.0.stream.type">audio</property>
  <property name="meta.media.0.codec.sample_fmt">s16</property>
  <property name="meta.media.0.codec.sample_rate">48000</property>
  <property name="meta.media.0.codec.channels">2</property>
  <property name="meta.media.0.codec.name">pcm_s16le</property>
  <property name="meta.media.0.codec.long_name">PCM signed 16-bit little-endian</property>
  <property name="meta.media.0.codec.bit_rate">1536000</property>
  <property name="seekable">1</property>
  <property name="audio_index">0</property>
  <property name="video_index">-1</property>
  <property name="mute_on_pause">1</property>
  <property name="mlt_service">avformat</property>
  <property name="kdenlive:clipname"/>
  <property name="kdenlive:folderid">89</property>
  <property name="kdenlive:id">16</property>
  <property name="kdenlive:file_size">1867884</property>
  <property name="kdenlive:file_hash">74a7b4bf458bc55c7e7aa5f3bec11104</property>
  <property name="global_feed">1</property>
 </producer>
 <producer id="producer14" in="00:00:00.000" out="00:00:14.700">
  <property name="length">883</property>
  <property name="eof">pause</property>
  <property name="resource">audio/e1.wav</property>
  <property name="meta.media.nb_streams">1</property>
  <property name="meta.media.0.stream.type">audio</property>
  <property name="meta.media.0.codec.sample_fmt">s16</property>
  <property name="meta.media.0.codec.sample_rate">48000</property>
  <property name="meta.media.0.codec.channels">2</property>
  <property name="meta.media.0.codec.name">pcm_s16le</property>
  <property name="meta.media.0.codec.long_name">PCM signed 16-bit little-endian</property>
  <property name="meta.media.0.codec.bit_rate">1536000</property>
  <property name="seekable">1</property>
  <property name="audio_index">0</property>
  <property name="video_index">-1</property>
  <property name="mute_on_pause">1</property>
  <property name="mlt_service">avformat</property>
  <property name="kdenlive:clipname"/>
  <property name="kdenlive:folderid">89</property>
  <property name="kdenlive:id">17</property>
  <property name="kdenlive:file_size">2827116</property>
  <property name="kdenlive:file_hash">444d6d0041e39260dcf1666937ab7eef</property>
  <property name="global_feed">1</property>
 </producer>
 <producer id="producer15" in="00:00:00.000" out="00:00:04.950">
  <property name="length">298</property>
  <property name="eof">pause</property>
  <property name="resource">audio/f1.wav</property>
  <property name="meta.media.nb_streams">1</property>
  <property name="meta.media.0.stream.type">audio</property>
  <property name="meta.media.0.codec.sample_fmt">s16</property>
  <property name="meta.media.0.codec.sample_rate">48000</property>
  <property name="meta.media.0.codec.channels">2</property>
  <property name="meta.media.0.codec.name">pcm_s16le</property>
  <property name="meta.media.0.codec.long_name">PCM signed 16-bit little-endian</property>
  <property name="meta.media.0.codec.bit_rate">1536000</property>
  <property name="seekable">1</property>
  <property name="audio_index">0</property>
  <property name="video_index">-1</property>
  <property name="mute_on_pause">1</property>
  <property name="mlt_service">avformat</property>
  <property name="kdenlive:clipname"/>
  <property name="kdenlive:folderid">89</property>
  <property name="kdenlive:id">18</property>
  <property name="kdenlive:file_size">955180</property>
  <property name="kdenlive:file_hash">fa5b76592f81d7802de23c1712bed945</property>
  <property name="global_feed">1</property>
 </producer>
 <producer id="producer16" in="00:00:00.000" out="00:00:09.717">
  <property name="length">584</property>
  <property name="eof">pause</property>
  <property name="resource">audio/f2.wav</property>
  <property name="meta.media.nb_streams">1</property>
  <property name="meta.media.0.stream.type">audio</property>
  <property name="meta.media.0.codec.sample_fmt">s16</property>
  <property name="meta.media.0.codec.sample_rate">48000</property>
  <property name="meta.media.0.codec.channels">2</property>
  <property name="meta.media.0.codec.name">pcm_s16le</property>
  <property name="meta.media.0.codec.long_name">PCM signed 16-bit little-endian</property>
  <property name="meta.media.0.codec.bit_rate">1536000</property>
  <property name="seekable">1</property>
  <property name="audio_index">0</property>
  <property name="video_index">-1</property>
  <property name="mute_on_pause">1</property>
  <property name="mlt_service">avformat</property>
  <property name="kdenlive:clipname"/>
  <property name="kdenlive:folderid">89</property>
  <property name="kdenlive:id">19</property>
  <property name="kdenlive:file_size">1867884</property>
  <property name="kdenlive:file_hash">4620505c2b7ab29f21c290f04438adb6</property>
  <property name="global_feed">1</property>
 </producer>
 <producer id="producer17" in="00:00:00.000" out="00:00:04.333">
  <property name="length">261</property>
  <property name="eof">pause</property>
  <property name="resource">audio/f3.wav</property>
  <property name="meta.media.nb_streams">1</property>
  <property name="meta.media.0.stream.type">audio</property>
  <property name="meta.media.0.codec.sample_fmt">s16</property>
  <property name="meta.media.0.codec.sample_rate">48000</property>
  <property name="meta.media.0.codec.channels">2</property>
  <property name="meta.media.0.codec.name">pcm_s16le</property>
  <property name="meta.media.0.codec.long_name">PCM signed 16-bit little-endian</property>
  <property name="meta.media.0.codec.bit_rate">1536000</property>
  <property name="seekable">1</property>
  <property name="audio_index">0</property>
  <property name="video_index">-1</property>
  <property name="mute_on_pause">1</property>
  <property name="mlt_service">avformat</property>
  <property name="kdenlive:clipname"/>
  <property name="kdenlive:folderid">89</property>
  <property name="kdenlive:id">20</property>
  <property name="kdenlive:file_size">835788</property>
  <property name="kdenlive:file_hash">8152968c36b7d4e93849577ddaa71412</property>
  <property name="global_feed">1</property>
 </producer>
 <producer id="producer18" in="00:00:00.000" out="00:00:09.467">
  <property name="length">569</property>
  <property name="eof">pause</property>
  <property name="resource">audio/f4.wav</property>
  <property name="meta.media.nb_streams">1</property>
  <property name="meta.media.0.stream.type">audio</property>
  <property name="meta.media.0.codec.sample_fmt">s16</property>
  <property name="meta.media.0.codec.sample_rate">48000</property>
  <property name="meta.media.0.codec.channels">2</property>
  <property name="meta.media.0.codec.name">pcm_s16le</property>
  <property name="meta.media.0.codec.long_name">PCM signed 16-bit little-endian</property>
  <property name="meta.media.0.codec.bit_rate">1536000</property>
  <property name="seekable">1</property>
  <property name="audio_index">0</property>
  <property name="video_index">-1</property>
  <property name="mute_on_pause">1</property>
  <property name="mlt_service">avformat</property>
  <property name="kdenlive:clipname"/>
  <property name="kdenlive:folderid">89</property>
  <property name="kdenlive:id">21</property>
  <property name="kdenlive:file_size">1819308</property>
  <property name="kdenlive:file_hash">259cedba7bb4ea0229929192319491db</property>
  <property name="global_feed">1</property>
 </producer>
 <producer id="producer19" in="00:00:00.000" out="00:00:09.467">
  <property name="length">569</property>
  <property name="eof">pause</property>
  <property name="resource">audio/l1.wav</property>
  <property name="meta.media.nb_streams">1</property>
  <property name="meta.media.0.stream.type">audio</property>
  <property name="meta.media.0.codec.sample_fmt">s16</property>
  <property name="meta.media.0.codec.sample_rate">48000</property>
  <property name="meta.media.0.codec.channels">2</property>
  <property name="meta.media.0.codec.name">pcm_s16le</property>
  <property name="meta.media.0.codec.long_name">PCM signed 16-bit little-endian</property>
  <property name="meta.media.0.codec.bit_rate">1536000</property>
  <property name="seekable">1</property>
  <property name="audio_index">0</property>
  <property name="video_index">-1</property>
  <property name="mute_on_pause">1</property>
  <property name="mlt_service">avformat</property>
  <property name="kdenlive:clipname"/>
  <property name="kdenlive:folderid">89</property>
  <property name="kdenlive:id">22</property>
  <property name="kdenlive:file_size">1819308</property>
  <property name="kdenlive:file_hash">a513a35efd7fa450eb5e7739b94c2637</property>
  <property name="global_feed">1</property>
 </producer>
 <producer id="producer20" in="00:00:00.000" out="00:00:10.700">
  <property name="length">643</property>
  <property name="eof">pause</property>
  <property name="resource">audio/t1.wav</property>
  <property name="meta.media.nb_streams">1</property>
  <property name="meta.media.0.stream.type">audio</property>
  <property name="meta.media.0.codec.sample_fmt">s16</property>
  <property name="meta.media.0.codec.sample_rate">48000</property>
  <property name="meta.media.0.codec.channels">2</property>
  <property name="meta.media.0.codec.name">pcm_s16le</property>
  <property name="meta.media.0.codec.long_name">PCM signed 16-bit little-endian</property>
  <property name="meta.media.0.codec.bit_rate">1536000</property>
  <property name="seekable">1</property>
  <property name="audio_index">0</property>
  <property name="video_index">-1</property>
  <property name="mute_on_pause">1</property>
  <property name="mlt_service">avformat</property>
  <property name="kdenlive:clipname"/>
  <property name="kdenlive:folderid">89</property>
  <property name="kdenlive:id">23</property>
  <property name="kdenlive:file_size">2058092</property>
  <property name="kdenlive:file_hash">8803537a505e75956c13e3403e0baa76</property>
  <property name="global_feed">1</property>
 </producer>
 <producer id="producer21" in="00:00:00.000" out="00:00:01.717">
  <property name="length">104</property>
  <property name="eof">pause</property>
  <property name="resource">audio/t2.wav</property>
  <property name="meta.media.nb_streams">1</property>
  <property name="meta.media.0.stream.type">audio</property>
  <property name="meta.media.0.codec.sample_fmt">s16</property>
  <property name="meta.media.0.codec.sample_rate">48000</property>
  <property name="meta.media.0.codec.channels">2</property>
  <property name="meta.media.0.codec.name">pcm_s16le</property>
  <property name="meta.media.0.codec.long_name">PCM signed 16-bit little-endian</property>
  <property name="meta.media.0.codec.bit_rate">1536000</property>
  <property name="seekable">1</property>
  <property name="audio_index">0</property>
  <property name="video_index">-1</property>
  <property name="mute_on_pause">1</property>
  <property name="mlt_service">avformat</property>
  <property name="kdenlive:clipname"/>
  <property name="kdenlive:folderid">89</property>
  <property name="kdenlive:id">24</property>
  <property name="kdenlive:file_size">331884</property>
  <property name="kdenlive:file_hash">ed6e7add25aa5ab430aa9bd27b4675b7</property>
  <property name="kdenlive:audio_max">30</property>
 </producer>
 <producer id="producer22" in="00:00:00.000" out="00:00:09.833">
  <property name="length">591</property>
  <property name="eof">pause</property>
  <property name="resource">audio/u1.wav</property>
  <property name="meta.media.nb_streams">1</property>
  <property name="meta.media.0.stream.type">audio</property>
  <property name="meta.media.0.codec.sample_fmt">s16</property>
  <property name="meta.media.0.codec.sample_rate">48000</property>
  <property name="meta.media.0.codec.channels">2</property>
  <property name="meta.media.0.codec.name">pcm_s16le</property>
  <property name="meta.media.0.codec.long_name">PCM signed 16-bit little-endian</property>
  <property name="meta.media.0.codec.bit_rate">1536000</property>
  <property name="seekable">1</property>
  <property name="audio_index">0</property>
  <property name="video_index">-1</property>
  <property name="mute_on_pause">1</property>
  <property name="mlt_service">avformat</property>
  <property name="kdenlive:clipname"/>
  <property name="kdenlive:folderid">89</property>
  <property name="kdenlive:id">25</property>
  <property name="kdenlive:file_size">1890124</property>
  <property name="kdenlive:file_hash">1c52cc18f729b8dbfbdff13033a23aa0</property>
  <property name="global_feed">1</property>
 </producer>
 <producer id="producer23" in="00:00:00.000" out="00:00:08.333">
  <property name="length">501</property>
  <property name="eof">pause</property>
  <property name="resource">audio/u10.wav</property>
  <property name="meta.media.nb_streams">1</property>
  <property name="meta.media.0.stream.type">audio</property>
  <property name="meta.media.0.codec.sample_fmt">s16</property>
  <property name="meta.media.0.codec.sample_rate">48000</property>
  <property name="meta.media.0.codec.channels">2</property>
  <property name="meta.media.0.codec.name">pcm_s16le</property>
  <property name="meta.media.0.codec.long_name">PCM signed 16-bit little-endian</property>
  <property name="meta.media.0.codec.bit_rate">1536000</property>
  <property name="seekable">1</property>
  <property name="audio_index">0</property>
  <property name="video_index">-1</property>
  <property name="mute_on_pause">1</property>
  <property name="mlt_service">avformat</property>
  <property name="kdenlive:clipname"/>
  <property name="kdenlive:folderid">89</property>
  <property name="kdenlive:id">26</property>
  <property name="kdenlive:file_size">1602764</property>
  <property name="kdenlive:file_hash">cf34d419008fa07b185840c18b65d7a4</property>
  <property name="global_feed">1</property>
 </producer>
 <producer id="producer24" in="00:00:00.000" out="00:00:21.700">
  <property name="length">1303</property>
  <property name="eof">pause</property>
  <property name="resource">audio/u11.wav</property>
  <property name="meta.media.nb_streams">1</property>
  <property name="meta.media.0.stream.type">audio</property>
  <property name="meta.media.0.codec.sample_fmt">s16</property>
  <property name="meta.media.0.codec.sample_rate">48000</property>
  <property name="meta.media.0.codec.channels">2</property>
  <property name="meta.media.0.codec.name">pcm_s16le</property>
  <property name="meta.media.0.codec.long_name">PCM signed 16-bit little-endian</property>
  <property name="meta.media.0.codec.bit_rate">1536000</property>
  <property name="seekable">1</property>
  <property name="audio_index">0</property>
  <property name="video_index">-1</property>
  <property name="mute_on_pause">1</property>
  <property name="mlt_service">avformat</property>
  <property name="kdenlive:clipname"/>
  <property name="kdenlive:folderid">89</property>
  <property name="kdenlive:id">27</property>
  <property name="kdenlive:file_size">4170860</property>
  <property name="kdenlive:file_hash">b3eb548043169ba24b2fc70b6639406b</property>
  <property name="global_feed">1</property>
 </producer>
 <producer id="producer25" in="00:00:00.000" out="00:00:09.467">
  <property name="length">569</property>
  <property name="eof">pause</property>
  <property name="resource">audio/u12.wav</property>
  <property name="meta.media.nb_streams">1</property>
  <property name="meta.media.0.stream.type">audio</property>
  <property name="meta.media.0.codec.sample_fmt">s16</property>
  <property name="meta.media.0.codec.sample_rate">48000</property>
  <property name="meta.media.0.codec.channels">2</property>
  <property name="meta.media.0.codec.name">pcm_s16le</property>
  <property name="meta.media.0.codec.long_name">PCM signed 16-bit little-endian</property>
  <property name="meta.media.0.codec.bit_rate">1536000</property>
  <property name="seekable">1</property>
  <property name="audio_index">0</property>
  <property name="video_index">-1</property>
  <property name="mute_on_pause">1</property>
  <property name="mlt_service">avformat</property>
  <property name="kdenlive:clipname"/>
  <property name="kdenlive:folderid">89</property>
  <property name="kdenlive:id">28</property>
  <property name="kdenlive:file_size">1819308</property>
  <property name="kdenlive:file_hash">db5fd4853d3f62014cd576f85f93f730</property>
  <property name="kdenlive:audio_max">5</property>
  <property name="global_feed">1</property>
 </producer>
 <producer id="producer26" in="00:00:00.000" out="00:00:09.950">
  <property name="length">598</property>
  <property name="eof">pause</property>
  <property name="resource">audio/u2.wav</property>
  <property name="meta.media.nb_streams">1</property>
  <property name="meta.media.0.stream.type">audio</property>
  <property name="meta.media.0.codec.sample_fmt">s16</property>
  <property name="meta.media.0.codec.sample_rate">48000</property>
  <property name="meta.media.0.codec.channels">2</property>
  <property name="meta.media.0.codec.name">pcm_s16le</property>
  <property name="meta.media.0.codec.long_name">PCM signed 16-bit little-endian</property>
  <property name="meta.media.0.codec.bit_rate">1536000</property>
  <property name="seekable">1</property>
  <property name="audio_index">0</property>
  <property name="video_index">-1</property>
  <property name="mute_on_pause">1</property>
  <property name="mlt_service">avformat</property>
  <property name="kdenlive:clipname"/>
  <property name="kdenlive:folderid">89</property>
  <property name="kdenlive:id">29</property>
  <property name="kdenlive:file_size">1914412</property>
  <property name="kdenlive:file_hash">09814654e924688d91016e7f794c1419</property>
  <property name="global_feed">1</property>
 </producer>
 <producer id="producer27" in="00:00:00.000" out="00:00:08.950">
  <property name="length">538</property>
  <property name="eof">pause</property>
  <property name="resource">audio/u3.wav</property>
  <property name="meta.media.nb_streams">1</property>
  <property name="meta.media.0.stream.type">audio</property>
  <property name="meta.media.0.codec.sample_fmt">s16</property>
  <property name="meta.media.0.codec.sample_rate">48000</property>
  <property name="meta.media.0.codec.channels">2</property>
  <property name="meta.media.0.codec.name">pcm_s16le</property>
  <property name="meta.media.0.codec.long_name">PCM signed 16-bit little-endian</property>
  <property name="meta.media.0.codec.bit_rate">1536000</property>
  <property name="seekable">1</property>
  <property name="audio_index">0</property>
  <property name="video_index">-1</property>
  <property name="mute_on_pause">1</property>
  <property name="mlt_service">avformat</property>
  <property name="kdenlive:clipname"/>
  <property name="kdenlive:folderid">89</property>
  <property name="kdenlive:id">30</property>
  <property name="kdenlive:file_size">1722156</property>
  <property name="kdenlive:file_hash">5d5bfca141700863bdd1424ccab7f4ba</property>
  <property name="global_feed">1</property>
 </producer>
 <producer id="producer28" in="00:00:00.000" out="00:00:05.583">
  <property name="length">336</property>
  <property name="eof">pause</property>
  <property name="resource">audio/u4.wav</property>
  <property name="meta.media.nb_streams">1</property>
  <property name="meta.media.0.stream.type">audio</property>
  <property name="meta.media.0.codec.sample_fmt">s16</property>
  <property name="meta.media.0.codec.sample_rate">48000</property>
  <property name="meta.media.0.codec.channels">2</property>
  <property name="meta.media.0.codec.name">pcm_s16le</property>
  <property name="meta.media.0.codec.long_name">PCM signed 16-bit little-endian</property>
  <property name="meta.media.0.codec.bit_rate">1536000</property>
  <property name="seekable">1</property>
  <property name="audio_index">0</property>
  <property name="video_index">-1</property>
  <property name="mute_on_pause">1</property>
  <property name="mlt_service">avformat</property>
  <property name="kdenlive:clipname"/>
  <property name="kdenlive:folderid">89</property>
  <property name="kdenlive:id">31</property>
  <property name="kdenlive:file_size">1074572</property>
  <property name="kdenlive:file_hash">3f6da1b2e9d059841c349c894a7843c0</property>
  <property name="global_feed">1</property>
 </producer>
 <producer id="producer29" in="00:00:00.000" out="00:00:14.333">
  <property name="length">861</property>
  <property name="eof">pause</property>
  <property name="resource">audio/u5.wav</property>
  <property name="meta.media.nb_streams">1</property>
  <property name="meta.media.0.stream.type">audio</property>
  <property name="meta.media.0.codec.sample_fmt">s16</property>
  <property name="meta.media.0.codec.sample_rate">48000</property>
  <property name="meta.media.0.codec.channels">2</property>
  <property name="meta.media.0.codec.name">pcm_s16le</property>
  <property name="meta.media.0.codec.long_name">PCM signed 16-bit little-endian</property>
  <property name="meta.media.0.codec.bit_rate">1536000</property>
  <property name="seekable">1</property>
  <property name="audio_index">0</property>
  <property name="video_index">-1</property>
  <property name="mute_on_pause">1</property>
  <property name="mlt_service">avformat</property>
  <property name="kdenlive:clipname"/>
  <property name="kdenlive:folderid">89</property>
  <property name="kdenlive:id">32</property>
  <property name="kdenlive:file_size">2754252</property>
  <property name="kdenlive:file_hash">a84754a602c3b7faee3ae02d6a0d559f</property>
  <property name="global_feed">1</property>
 </producer>
 <producer id="producer30" in="00:00:00.000" out="00:00:11.950">
  <property name="length">718</property>
  <property name="eof">pause</property>
  <property name="resource">audio/u6.wav</property>
  <property name="meta.media.nb_streams">1</property>
  <property name="meta.media.0.stream.type">audio</property>
  <property name="meta.media.0.codec.sample_fmt">s16</property>
  <property name="meta.media.0.codec.sample_rate">48000</property>
  <property name="meta.media.0.codec.channels">2</property>
  <property name="meta.media.0.codec.name">pcm_s16le</property>
  <property name="meta.media.0.codec.long_name">PCM signed 16-bit little-endian</property>
  <property name="meta.media.0.codec.bit_rate">1536000</property>
  <property name="seekable">1</property>
  <property name="audio_index">0</property>
  <property name="video_index">-1</property>
  <property name="mute_on_pause">1</property>
  <property name="mlt_service">avformat</property>
  <property name="kdenlive:clipname"/>
  <property name="kdenlive:folderid">89</property>
  <property name="kdenlive:id">33</property>
  <property name="kdenlive:file_size">2298924</property>
  <property name="kdenlive:file_hash">f97eef6c5e647e4a11b79bea243120ca</property>
  <property name="global_feed">1</property>
 </producer>
 <producer id="producer31" in="00:00:00.000" out="00:00:10.333">
  <property name="length">621</property>
  <property name="eof">pause</property>
  <property name="resource">audio/u7.wav</property>
  <property name="meta.media.nb_streams">1</property>
  <property name="meta.media.0.stream.type">audio</property>
  <property name="meta.media.0.codec.sample_fmt">s16</property>
  <property name="meta.media.0.codec.sample_rate">48000</property>
  <property name="meta.media.0.codec.channels">2</property>
  <property name="meta.media.0.codec.name">pcm_s16le</property>
  <property name="meta.media.0.codec.long_name">PCM signed 16-bit little-endian</property>
  <property name="meta.media.0.codec.bit_rate">1536000</property>
  <property name="seekable">1</property>
  <property name="audio_index">0</property>
  <property name="video_index">-1</property>
  <property name="mute_on_pause">1</property>
  <property name="mlt_service">avformat</property>
  <property name="kdenlive:clipname"/>
  <property name="kdenlive:folderid">89</property>
  <property name="kdenlive:id">34</property>
  <property name="kdenlive:file_size">1987276</property>
  <property name="kdenlive:file_hash">7710ef67c422a68933e1d64d25887ab6</property>
  <property name="global_feed">1</property>
 </producer>
 <producer id="producer32" in="00:00:00.000" out="00:00:13.333">
  <property name="length">801</property>
  <property name="eof">pause</property>
  <property name="resource">audio/u8.wav</property>
  <property name="meta.media.nb_streams">1</property>
  <property name="meta.media.0.stream.type">audio</property>
  <property name="meta.media.0.codec.sample_fmt">s16</property>
  <property name="meta.media.0.codec.sample_rate">48000</property>
  <property name="meta.media.0.codec.channels">2</property>
  <property name="meta.media.0.codec.name">pcm_s16le</property>
  <property name="meta.media.0.codec.long_name">PCM signed 16-bit little-endian</property>
  <property name="meta.media.0.codec.bit_rate">1536000</property>
  <property name="seekable">1</property>
  <property name="audio_index">0</property>
  <property name="video_index">-1</property>
  <property name="mute_on_pause">1</property>
  <property name="mlt_service">avformat</property>
  <property name="kdenlive:clipname"/>
  <property name="kdenlive:folderid">89</property>
  <property name="kdenlive:id">35</property>
  <property name="kdenlive:file_size">2561996</property>
  <property name="kdenlive:file_hash">203d8e87a2ec4dc586679fbb2757d65e</property>
  <property name="global_feed">1</property>
 </producer>
 <producer id="producer33" in="00:00:00.000" out="00:00:10.950">
  <property name="length">658</property>
  <property name="eof">pause</property>
  <property name="resource">audio/u9.wav</property>
  <property name="meta.media.nb_streams">1</property>
  <property name="meta.media.0.stream.type">audio</property>
  <property name="meta.media.0.codec.sample_fmt">s16</property>
  <property name="meta.media.0.codec.sample_rate">48000</property>
  <property name="meta.media.0.codec.channels">2</property>
  <property name="meta.media.0.codec.name">pcm_s16le</property>
  <property name="meta.media.0.codec.long_name">PCM signed 16-bit little-endian</property>
  <property name="meta.media.0.codec.bit_rate">1536000</property>
  <property name="seekable">1</property>
  <property name="audio_index">0</property>
  <property name="video_index">-1</property>
  <property name="mute_on_pause">1</property>
  <property name="mlt_service">avformat</property>
  <property name="kdenlive:clipname"/>
  <property name="kdenlive:folderid">89</property>
  <property name="kdenlive:id">36</property>
  <property name="kdenlive:file_size">2106668</property>
  <property name="kdenlive:file_hash">82122ff9876237b10e4fdb5b6d8b3ec0</property>
  <property name="global_feed">1</property>
 </producer>
 <producer id="producer34" in="00:00:00.000" out="00:00:10.333">
  <property name="length">621</property>
  <property name="eof">pause</property>
  <property name="resource">audio/u91.wav</property>
  <property name="meta.media.nb_streams">1</property>
  <property name="meta.media.0.stream.type">audio</property>
  <property name="meta.media.0.codec.sample_fmt">s16</property>
  <property name="meta.media.0.codec.sample_rate">48000</property>
  <property name="meta.media.0.codec.channels">2</property>
  <property name="meta.media.0.codec.name">pcm_s16le</property>
  <property name="meta.media.0.codec.long_name">PCM signed 16-bit little-endian</property>
  <property name="meta.media.0.codec.bit_rate">1536000</property>
  <property name="seekable">1</property>
  <property name="audio_index">0</property>
  <property name="video_index">-1</property>
  <property name="mute_on_pause">1</property>
  <property name="mlt_service">avformat</property>
  <property name="kdenlive:clipname"/>
  <property name="kdenlive:folderid">89</property>
  <property name="kdenlive:id">37</property>
  <property name="kdenlive:file_size">1987276</property>
  <property name="kdenlive:file_hash">95912cab91b580d308372b60179fb23b</property>
  <property name="kdenlive:audio_max">8</property>
 </producer>
 <producer id="producer35" in="00:00:00.000" out="00:00:08.950">
  <property name="length">538</property>
  <property name="eof">pause</property>
  <property name="resource">audio/v1.wav</property>
  <property name="meta.media.nb_streams">1</property>
  <property name="meta.media.0.stream.type">audio</property>
  <property name="meta.media.0.codec.sample_fmt">s16</property>
  <property name="meta.media.0.codec.sample_rate">48000</property>
  <property name="meta.media.0.codec.channels">2</property>
  <property name="meta.media.0.codec.name">pcm_s16le</property>
  <property name="meta.media.0.codec.long_name">PCM signed 16-bit little-endian</property>
  <property name="meta.media.0.codec.bit_rate">1536000</property>
  <property name="seekable">1</property>
  <property name="audio_index">0</property>
  <property name="video_index">-1</property>
  <property name="mute_on_pause">1</property>
  <property name="mlt_service">avformat</property>
  <property name="kdenlive:clipname"/>
  <property name="kdenlive:folderid">89</property>
  <property name="kdenlive:id">38</property>
  <property name="kdenlive:file_size">1722156</property>
  <property name="kdenlive:file_hash">f0700c6a06ead7daa2137605c1d04f1f</property>
  <property name="global_feed">1</property>
 </producer>
 <producer id="producer36" in="00:00:00.000" out="00:00:10.833">
  <property name="length">651</property>
  <property name="eof">pause</property>
  <property name="resource">audio/v2.wav</property>
  <property name="meta.media.nb_streams">1</property>
  <property name="meta.media.0.stream.type">audio</property>
  <property name="meta.media.0.codec.sample_fmt">s16</property>
  <property name="meta.media.0.codec.sample_rate">48000</property>
  <property name="meta.media.0.codec.channels">2</property>
  <property name="meta.media.0.codec.name">pcm_s16le</property>
  <property name="meta.media.0.codec.long_name">PCM signed 16-bit little-endian</property>
  <property name="meta.media.0.codec.bit_rate">1536000</property>
  <property name="seekable">1</property>
  <property name="audio_index">0</property>
  <property name="video_index">-1</property>
  <property name="mute_on_pause">1</property>
  <property name="mlt_service">avformat</property>
  <property name="kdenlive:clipname"/>
  <property name="kdenlive:folderid">89</property>
  <property name="kdenlive:id">39</property>
  <property name="kdenlive:file_size">2082380</property>
  <property name="kdenlive:file_hash">8558acbf3f66f6b770b819a6ed744857</property>
  <property name="kdenlive:audio_max">7</property>
  <property name="global_feed">1</property>
 </producer>
 <producer id="producer37" in="00:00:00.000" out="00:00:05.783">
  <property name="length">348</property>
  <property name="eof">pause</property>
  <property name="resource">video/video-f000921.png</property>
  <property name="ttl">25</property>
  <property name="aspect_ratio">1</property>
  <property name="progressive">1</property>
  <property name="seekable">1</property>
  <property name="meta.media.width">1920</property>
  <property name="meta.media.height">1080</property>
  <property name="mlt_service">qimage</property>
  <property name="kdenlive:clipname"/>
  <property name="kdenlive:duration">00:00:05.000</property>
  <property name="kdenlive:folderid">89</property>
  <property name="kdenlive:id">40</property>
  <property name="kdenlive:file_size">58123</property>
  <property name="kdenlive:file_hash">1969d78ebf73bfa0c81a7583e8963452</property>
 </producer>
 <producer id="producer38" in="00:00:00.000" out="00:00:07.983">
  <property name="length">480</property>
  <property name="eof">pause</property>
  <property name="resource">video/BeforeIntro.mp4</property>
  <property name="audio_index">-1</property>
  <property name="video_index">0</property>
  <property name="mute_on_pause">0</property>
  <property name="mlt_service">avformat-novalidate</property>
  <property name="meta.media.nb_streams">1</property>
  <property name="meta.media.0.stream.type">video</property>
  <property name="meta.media.0.stream.frame_rate">60</property>
  <property name="meta.media.0.stream.sample_aspect_ratio">0</property>
  <property name="meta.media.0.codec.width">1920</property>
  <property name="meta.media.0.codec.height">1080</property>
  <property name="meta.media.0.codec.rotate">0</property>
  <property name="meta.media.0.codec.frame_rate">60</property>
  <property name="meta.media.0.codec.pix_fmt">yuv420p</property>
  <property name="meta.media.0.codec.sample_aspect_ratio">0</property>
  <property name="meta.media.0.codec.colorspace">709</property>
  <property name="meta.media.0.codec.name">h264</property>
  <property name="meta.media.0.codec.long_name">H.264 / AVC / MPEG-4 AVC / MPEG-4 part 10</property>
  <property name="meta.media.0.codec.bit_rate">588180</property>
  <property name="meta.attr.0.stream.handler_name.markup">VideoHandler</property>
  <property name="meta.attr.major_brand.markup">isom</property>
  <property name="meta.attr.minor_version.markup">512</property>
  <property name="meta.attr.compatible_brands.markup">isomiso2avc1mp41</property>
  <property name="meta.attr.encoder.markup">Lavf58.45.100</property>
  <property name="meta.attr.comment.markup">Rendered with Manim Community v0.5.0</property>
  <property name="seekable">1</property>
  <property name="meta.media.sample_aspect_num">1</property>
  <property name="meta.media.sample_aspect_den">1</property>
  <property name="aspect_ratio">1</property>
  <property name="kdenlive:clipname"/>
  <property name="kdenlive:folderid">50</property>
  <property name="meta.media.frame_rate_num">60</property>
  <property name="meta.media.frame_rate_den">1</property>
  <property name="meta.media.colorspace">709</property>
  <property name="meta.media.color_trc">2</property>
  <property name="meta.media.width">1920</property>
  <property name="meta.media.height">1080</property>
  <property name="meta.media.color_range">mpeg</property>
  <property name="kdenlive:id">41</property>
  <property name="kdenlive:file_size">594492</property>
  <property name="kdenlive:file_hash">136dde9899226875acfe64115af79f09</property>
  <property name="meta.media.top_field_first">0</property>
  <property name="meta.media.progressive">1</property>
  <property name="global_feed">1</property>
 </producer>
 <producer id="producer39" in="00:00:00.000" out="00:00:06.983">
  <property name="length">420</property>
  <property name="eof">pause</property>
  <property name="resource">video/Degree.mp4</property>
  <property name="audio_index">-1</property>
  <property name="video_index">0</property>
  <property name="mute_on_pause">0</property>
  <property name="mlt_service">avformat-novalidate</property>
  <property name="meta.media.nb_streams">1</property>
  <property name="meta.media.0.stream.type">video</property>
  <property name="meta.media.0.stream.frame_rate">60</property>
  <property name="meta.media.0.stream.sample_aspect_ratio">0</property>
  <property name="meta.media.0.codec.width">1920</property>
  <property name="meta.media.0.codec.height">1080</property>
  <property name="meta.media.0.codec.rotate">0</property>
  <property name="meta.media.0.codec.frame_rate">60</property>
  <property name="meta.media.0.codec.pix_fmt">yuv420p</property>
  <property name="meta.media.0.codec.sample_aspect_ratio">0</property>
  <property name="meta.media.0.codec.colorspace">709</property>
  <property name="meta.media.0.codec.name">h264</property>
  <property name="meta.media.0.codec.long_name">H.264 / AVC / MPEG-4 AVC / MPEG-4 part 10</property>
  <property name="meta.media.0.codec.bit_rate">221281</property>
  <property name="meta.attr.0.stream.handler_name.markup">VideoHandler</property>
  <property name="meta.attr.major_brand.markup">isom</property>
  <property name="meta.attr.minor_version.markup">512</property>
  <property name="meta.attr.compatible_brands.markup">isomiso2avc1mp41</property>
  <property name="meta.attr.encoder.markup">Lavf58.45.100</property>
  <property name="meta.attr.comment.markup">Rendered with Manim Community v0.5.0</property>
  <property name="seekable">1</property>
  <property name="meta.media.sample_aspect_num">1</property>
  <property name="meta.media.sample_aspect_den">1</property>
  <property name="aspect_ratio">1</property>
  <property name="kdenlive:clipname"/>
  <property name="kdenlive:folderid">50</property>
  <property name="meta.media.frame_rate_num">60</property>
  <property name="meta.media.frame_rate_den">1</property>
  <property name="meta.media.colorspace">709</property>
  <property name="meta.media.color_trc">2</property>
  <property name="meta.media.width">1920</property>
  <property name="meta.media.height">1080</property>
  <property name="meta.media.color_range">mpeg</property>
  <property name="kdenlive:id">42</property>
  <property name="kdenlive:file_size">199421</property>
  <property name="kdenlive:file_hash">b815ba3f6abac8d3b475eb133bea2548</property>
  <property name="meta.media.top_field_first">0</property>
  <property name="meta.media.progressive">1</property>
  <property name="global_feed">1</property>
 </producer>
 <producer id="producer49" in="00:00:00.000" out="00:00:09.983">
  <property name="length">600</property>
  <property name="eof">pause</property>
  <property name="resource">video/Example.mp4</property>
  <property name="audio_index">-1</property>
  <property name="video_index">0</property>
  <property name="mute_on_pause">0</property>
  <property name="mlt_service">avformat-novalidate</property>
  <property name="seekable">1</property>
  <property name="aspect_ratio">1</property>
  <property name="kdenlive:clipname"/>
  <property name="kdenlive:folderid">50</property>
  <property name="kdenlive:id">43</property>
  <property name="kdenlive:file_size">320236</property>
  <property name="kdenlive:file_hash">98507500c390c29a6f4edf618d1ee827</property>
  <property name="global_feed">1</property>
  <property name="meta.media.nb_streams">1</property>
  <property name="meta.media.0.stream.type">video</property>
  <property name="meta.media.0.stream.frame_rate">60</property>
  <property name="meta.media.0.stream.sample_aspect_ratio">0</property>
  <property name="meta.media.0.codec.width">1920</property>
  <property name="meta.media.0.codec.height">1080</property>
  <property name="meta.media.0.codec.rotate">0</property>
  <property name="meta.media.0.codec.frame_rate">60</property>
  <property name="meta.media.0.codec.pix_fmt">yuv420p</property>
  <property name="meta.media.0.codec.sample_aspect_ratio">0</property>
  <property name="meta.media.0.codec.colorspace">709</property>
  <property name="meta.media.0.codec.name">h264</property>
  <property name="meta.media.0.codec.long_name">H.264 / AVC / MPEG-4 AVC / MPEG-4 part 10</property>
  <property name="meta.media.0.codec.bit_rate">249776</property>
  <property name="meta.attr.0.stream.handler_name.markup">VideoHandler</property>
  <property name="meta.attr.major_brand.markup">isom</property>
  <property name="meta.attr.minor_version.markup">512</property>
  <property name="meta.attr.compatible_brands.markup">isomiso2avc1mp41</property>
  <property name="meta.attr.encoder.markup">Lavf58.45.100</property>
  <property name="meta.attr.comment.markup">Rendered with Manim Community v0.5.0</property>
  <property name="meta.media.sample_aspect_num">1</property>
  <property name="meta.media.sample_aspect_den">1</property>
  <property name="meta.media.frame_rate_num">60</property>
  <property name="meta.media.frame_rate_den">1</property>
  <property name="meta.media.colorspace">709</property>
  <property name="meta.media.color_trc">2</property>
  <property name="meta.media.width">1920</property>
  <property name="meta.media.height">1080</property>
  <property name="meta.media.color_range">mpeg</property>
 </producer>
 <producer id="producer40" in="00:00:00.000" out="00:00:07.983">
  <property name="length">480</property>
  <property name="eof">pause</property>
  <property name="resource">video/FreeColor.mp4</property>
  <property name="audio_index">-1</property>
  <property name="video_index">0</property>
  <property name="mute_on_pause">0</property>
  <property name="mlt_service">avformat-novalidate</property>
  <property name="meta.media.nb_streams">1</property>
  <property name="meta.media.0.stream.type">video</property>
  <property name="meta.media.0.stream.frame_rate">60</property>
  <property name="meta.media.0.stream.sample_aspect_ratio">0</property>
  <property name="meta.media.0.codec.width">1920</property>
  <property name="meta.media.0.codec.height">1080</property>
  <property name="meta.media.0.codec.rotate">0</property>
  <property name="meta.media.0.codec.frame_rate">60</property>
  <property name="meta.media.0.codec.pix_fmt">yuv420p</property>
  <property name="meta.media.0.codec.sample_aspect_ratio">0</property>
  <property name="meta.media.0.codec.colorspace">709</property>
  <property name="meta.media.0.codec.name">h264</property>
  <property name="meta.media.0.codec.long_name">H.264 / AVC / MPEG-4 AVC / MPEG-4 part 10</property>
  <property name="meta.media.0.codec.bit_rate">247370</property>
  <property name="meta.attr.0.stream.handler_name.markup">VideoHandler</property>
  <property name="meta.attr.major_brand.markup">isom</property>
  <property name="meta.attr.minor_version.markup">512</property>
  <property name="meta.attr.compatible_brands.markup">isomiso2avc1mp41</property>
  <property name="meta.attr.encoder.markup">Lavf58.45.100</property>
  <property name="meta.attr.comment.markup">Rendered with Manim Community v0.5.0</property>
  <property name="seekable">1</property>
  <property name="meta.media.sample_aspect_num">1</property>
  <property name="meta.media.sample_aspect_den">1</property>
  <property name="aspect_ratio">1</property>
  <property name="kdenlive:clipname"/>
  <property name="kdenlive:folderid">50</property>
  <property name="meta.media.frame_rate_num">60</property>
  <property name="meta.media.frame_rate_den">1</property>
  <property name="meta.media.colorspace">709</property>
  <property name="meta.media.color_trc">2</property>
  <property name="meta.media.width">1920</property>
  <property name="meta.media.height">1080</property>
  <property name="meta.media.color_range">mpeg</property>
  <property name="kdenlive:id">44</property>
  <property name="kdenlive:file_size">253910</property>
  <property name="kdenlive:file_hash">43c1f57f8d1c2d6d11676f89d6f2084c</property>
  <property name="meta.media.top_field_first">0</property>
  <property name="meta.media.progressive">1</property>
  <property name="global_feed">1</property>
 </producer>
 <producer id="producer41" in="00:00:00.000" out="00:00:07.983">
  <property name="length">480</property>
  <property name="eof">pause</property>
  <property name="resource">video/Intro.mp4</property>
  <property name="audio_index">-1</property>
  <property name="video_index">0</property>
  <property name="mute_on_pause">0</property>
  <property name="mlt_service">avformat-novalidate</property>
  <property name="meta.media.nb_streams">1</property>
  <property name="meta.media.0.stream.type">video</property>
  <property name="meta.media.0.stream.frame_rate">60</property>
  <property name="meta.media.0.stream.sample_aspect_ratio">0</property>
  <property name="meta.media.0.codec.width">1920</property>
  <property name="meta.media.0.codec.height">1080</property>
  <property name="meta.media.0.codec.rotate">0</property>
  <property name="meta.media.0.codec.frame_rate">60</property>
  <property name="meta.media.0.codec.pix_fmt">yuv420p</property>
  <property name="meta.media.0.codec.sample_aspect_ratio">0</property>
  <property name="meta.media.0.codec.colorspace">709</property>
  <property name="meta.media.0.codec.name">h264</property>
  <property name="meta.media.0.codec.long_name">H.264 / AVC / MPEG-4 AVC / MPEG-4 part 10</property>
  <property name="meta.media.0.codec.bit_rate">428067</property>
  <property name="meta.attr.0.stream.handler_name.markup">VideoHandler</property>
  <property name="meta.attr.major_brand.markup">isom</property>
  <property name="meta.attr.minor_version.markup">512</property>
  <property name="meta.attr.compatible_brands.markup">isomiso2avc1mp41</property>
  <property name="meta.attr.encoder.markup">Lavf58.45.100</property>
  <property name="meta.attr.comment.markup">Rendered with Manim Community v0.5.0</property>
  <property name="seekable">1</property>
  <property name="meta.media.sample_aspect_num">1</property>
  <property name="meta.media.sample_aspect_den">1</property>
  <property name="aspect_ratio">1</property>
  <property name="kdenlive:clipname"/>
  <property name="kdenlive:folderid">50</property>
  <property name="meta.media.frame_rate_num">60</property>
  <property name="meta.media.frame_rate_den">1</property>
  <property name="meta.media.colorspace">709</property>
  <property name="meta.media.color_trc">2</property>
  <property name="meta.media.width">1920</property>
  <property name="meta.media.height">1080</property>
  <property name="meta.media.color_range">mpeg</property>
  <property name="kdenlive:id">45</property>
  <property name="kdenlive:file_size">434627</property>
  <property name="kdenlive:file_hash">4d1f6660cd924b8935a5741844a0536f</property>
  <property name="meta.media.top_field_first">0</property>
  <property name="meta.media.progressive">1</property>
  <property name="global_feed">1</property>
 </producer>
 <producer id="producer42" in="00:00:00.000" out="00:00:03.283">
  <property name="length">198</property>
  <property name="eof">pause</property>
  <property name="resource">video/Logo.mp4</property>
  <property name="audio_index">-1</property>
  <property name="video_index">0</property>
  <property name="mute_on_pause">0</property>
  <property name="mlt_service">avformat-novalidate</property>
  <property name="meta.media.nb_streams">1</property>
  <property name="meta.media.0.stream.type">video</property>
  <property name="meta.media.0.stream.frame_rate">60</property>
  <property name="meta.media.0.stream.sample_aspect_ratio">0</property>
  <property name="meta.media.0.codec.width">1920</property>
  <property name="meta.media.0.codec.height">1080</property>
  <property name="meta.media.0.codec.rotate">0</property>
  <property name="meta.media.0.codec.frame_rate">60</property>
  <property name="meta.media.0.codec.pix_fmt">yuv420p</property>
  <property name="meta.media.0.codec.sample_aspect_ratio">0</property>
  <property name="meta.media.0.codec.colorspace">709</property>
  <property name="meta.media.0.codec.name">h264</property>
  <property name="meta.media.0.codec.long_name">H.264 / AVC / MPEG-4 AVC / MPEG-4 part 10</property>
  <property name="meta.media.0.codec.bit_rate">233672</property>
  <property name="meta.attr.0.stream.handler_name.markup">VideoHandler</property>
  <property name="meta.attr.major_brand.markup">isom</property>
  <property name="meta.attr.minor_version.markup">512</property>
  <property name="meta.attr.compatible_brands.markup">isomiso2avc1mp41</property>
  <property name="meta.attr.encoder.markup">Lavf58.45.100</property>
  <property name="meta.attr.comment.markup">Rendered with Manim Community v0.5.0</property>
  <property name="seekable">1</property>
  <property name="meta.media.sample_aspect_num">1</property>
  <property name="meta.media.sample_aspect_den">1</property>
  <property name="aspect_ratio">1</property>
  <property name="kdenlive:clipname"/>
  <property name="kdenlive:folderid">50</property>
  <property name="meta.media.frame_rate_num">60</property>
  <property name="meta.media.frame_rate_den">1</property>
  <property name="meta.media.colorspace">709</property>
  <property name="meta.media.color_trc">2</property>
  <property name="meta.media.width">1920</property>
  <property name="meta.media.height">1080</property>
  <property name="meta.media.color_range">mpeg</property>
  <property name="kdenlive:id">46</property>
  <property name="kdenlive:file_size">99482</property>
  <property name="kdenlive:file_hash">23e0be3836b958c2f8d59c16164a30f4</property>
  <property name="meta.media.top_field_first">0</property>
  <property name="meta.media.progressive">1</property>
  <property name="global_feed">1</property>
 </producer>
 <producer id="producer43" in="00:00:00.000" out="00:00:06.983">
  <property name="length">420</property>
  <property name="eof">pause</property>
  <property name="resource">video/LowerBound.mp4</property>
  <property name="audio_index">-1</property>
  <property name="video_index">0</property>
  <property name="mute_on_pause">0</property>
  <property name="mlt_service">avformat-novalidate</property>
  <property name="meta.media.nb_streams">1</property>
  <property name="meta.media.0.stream.type">video</property>
  <property name="meta.media.0.stream.frame_rate">60</property>
  <property name="meta.media.0.stream.sample_aspect_ratio">0</property>
  <property name="meta.media.0.codec.width">1920</property>
  <property name="meta.media.0.codec.height">1080</property>
  <property name="meta.media.0.codec.rotate">0</property>
  <property name="meta.media.0.codec.frame_rate">60</property>
  <property name="meta.media.0.codec.pix_fmt">yuv420p</property>
  <property name="meta.media.0.codec.sample_aspect_ratio">0</property>
  <property name="meta.media.0.codec.colorspace">709</property>
  <property name="meta.media.0.codec.name">h264</property>
  <property name="meta.media.0.codec.long_name">H.264 / AVC / MPEG-4 AVC / MPEG-4 part 10</property>
  <property name="meta.media.0.codec.bit_rate">243098</property>
  <property name="meta.attr.0.stream.handler_name.markup">VideoHandler</property>
  <property name="meta.attr.major_brand.markup">isom</property>
  <property name="meta.attr.minor_version.markup">512</property>
  <property name="meta.attr.compatible_brands.markup">isomiso2avc1mp41</property>
  <property name="meta.attr.encoder.markup">Lavf58.45.100</property>
  <property name="meta.attr.comment.markup">Rendered with Manim Community v0.5.0</property>
  <property name="seekable">1</property>
  <property name="meta.media.sample_aspect_num">1</property>
  <property name="meta.media.sample_aspect_den">1</property>
  <property name="aspect_ratio">1</property>
  <property name="kdenlive:clipname"/>
  <property name="kdenlive:folderid">50</property>
  <property name="meta.media.frame_rate_num">60</property>
  <property name="meta.media.frame_rate_den">1</property>
  <property name="meta.media.colorspace">709</property>
  <property name="meta.media.color_trc">2</property>
  <property name="meta.media.width">1920</property>
  <property name="meta.media.height">1080</property>
  <property name="meta.media.color_range">mpeg</property>
  <property name="kdenlive:id">47</property>
  <property name="kdenlive:file_size">218523</property>
  <property name="kdenlive:file_hash">8b7f8262afcce95da7ee4bf6b5c582a2</property>
  <property name="meta.media.top_field_first">0</property>
  <property name="meta.media.progressive">1</property>
  <property name="global_feed">1</property>
 </producer>
 <producer id="producer44" in="00:00:00.000" out="00:00:14.983">
  <property name="length">900</property>
  <property name="eof">pause</property>
  <property name="resource">video/Outro.mp4</property>
  <property name="audio_index">-1</property>
  <property name="video_index">0</property>
  <property name="mute_on_pause">0</property>
  <property name="mlt_service">avformat-novalidate</property>
  <property name="meta.media.nb_streams">1</property>
  <property name="meta.media.0.stream.type">video</property>
  <property name="meta.media.0.stream.frame_rate">60</property>
  <property name="meta.media.0.stream.sample_aspect_ratio">0</property>
  <property name="meta.media.0.codec.width">1920</property>
  <property name="meta.media.0.codec.height">1080</property>
  <property name="meta.media.0.codec.rotate">0</property>
  <property name="meta.media.0.codec.frame_rate">60</property>
  <property name="meta.media.0.codec.pix_fmt">yuv420p</property>
  <property name="meta.media.0.codec.sample_aspect_ratio">0</property>
  <property name="meta.media.0.codec.colorspace">709</property>
  <property name="meta.media.0.codec.name">h264</property>
  <property name="meta.media.0.codec.long_name">H.264 / AVC / MPEG-4 AVC / MPEG-4 part 10</property>
  <property name="meta.media.0.codec.bit_rate">1587405</property>
  <property name="meta.attr.0.stream.handler_name.markup">VideoHandler</property>
  <property name="meta.attr.major_brand.markup">isom</property>
  <property name="meta.attr.minor_version.markup">512</property>
  <property name="meta.attr.compatible_brands.markup">isomiso2avc1mp41</property>
  <property name="meta.attr.encoder.markup">Lavf58.45.100</property>
  <property name="meta.attr.comment.markup">Rendered with Manim Community v0.5.0</property>
  <property name="seekable">1</property>
  <property name="meta.media.sample_aspect_num">1</property>
  <property name="meta.media.sample_aspect_den">1</property>
  <property name="aspect_ratio">1</property>
  <property name="kdenlive:clipname"/>
  <property name="kdenlive:folderid">50</property>
  <property name="meta.media.frame_rate_num">60</property>
  <property name="meta.media.frame_rate_den">1</property>
  <property name="meta.media.colorspace">709</property>
  <property name="meta.media.color_trc">2</property>
  <property name="meta.media.width">1920</property>
  <property name="meta.media.height">1080</property>
  <property name="meta.media.color_range">mpeg</property>
  <property name="kdenlive:id">48</property>
  <property name="kdenlive:file_size">2986293</property>
  <property name="kdenlive:file_hash">b338e81e4cb94e0af497110d25e7f460</property>
  <property name="meta.media.top_field_first">0</property>
  <property name="meta.media.progressive">1</property>
  <property name="global_feed">1</property>
 </producer>
 <producer id="producer61" in="00:00:00.000" out="00:00:37.983">
  <property name="length">2280</property>
  <property name="eof">pause</property>
  <property name="resource">video/UpperBound.mp4</property>
  <property name="audio_index">-1</property>
  <property name="video_index">0</property>
  <property name="mute_on_pause">0</property>
  <property name="mlt_service">avformat-novalidate</property>
  <property name="seekable">1</property>
  <property name="aspect_ratio">1</property>
  <property name="kdenlive:clipname"/>
  <property name="kdenlive:folderid">50</property>
  <property name="kdenlive:id">49</property>
  <property name="kdenlive:file_size">1417383</property>
  <property name="kdenlive:file_hash">ea7674c47ae2463b205939bafca140c0</property>
  <property name="global_feed">1</property>
  <property name="meta.media.nb_streams">1</property>
  <property name="meta.media.0.stream.type">video</property>
  <property name="meta.media.0.stream.frame_rate">60</property>
  <property name="meta.media.0.stream.sample_aspect_ratio">0</property>
  <property name="meta.media.0.codec.width">1920</property>
  <property name="meta.media.0.codec.height">1080</property>
  <property name="meta.media.0.codec.rotate">0</property>
  <property name="meta.media.0.codec.frame_rate">60</property>
  <property name="meta.media.0.codec.pix_fmt">yuv420p</property>
  <property name="meta.media.0.codec.sample_aspect_ratio">0</property>
  <property name="meta.media.0.codec.colorspace">709</property>
  <property name="meta.media.0.codec.name">h264</property>
  <property name="meta.media.0.codec.long_name">H.264 / AVC / MPEG-4 AVC / MPEG-4 part 10</property>
  <property name="meta.media.0.codec.bit_rate">292493</property>
  <property name="meta.attr.0.stream.handler_name.markup">VideoHandler</property>
  <property name="meta.attr.major_brand.markup">isom</property>
  <property name="meta.attr.minor_version.markup">512</property>
  <property name="meta.attr.compatible_brands.markup">isomiso2avc1mp41</property>
  <property name="meta.attr.encoder.markup">Lavf58.45.100</property>
  <property name="meta.attr.comment.markup">Rendered with Manim Community v0.5.0</property>
  <property name="meta.media.sample_aspect_num">1</property>
  <property name="meta.media.sample_aspect_den">1</property>
  <property name="meta.media.frame_rate_num">60</property>
  <property name="meta.media.frame_rate_den">1</property>
  <property name="meta.media.colorspace">709</property>
  <property name="meta.media.color_trc">2</property>
  <property name="meta.media.width">1920</property>
  <property name="meta.media.height">1080</property>
  <property name="meta.media.color_range">mpeg</property>
 </producer>
 <producer id="producer45" in="00:00:00.000" out="00:00:04.983">
  <property name="length">00:00:05.000</property>
  <property name="eof">pause</property>
  <property name="resource">video/video-f001330.png</property>
  <property name="ttl">25</property>
  <property name="aspect_ratio">1</property>
  <property name="progressive">1</property>
  <property name="seekable">1</property>
  <property name="meta.media.width">1920</property>
  <property name="meta.media.height">1080</property>
  <property name="mlt_service">qimage</property>
  <property name="kdenlive:clipname"/>
  <property name="kdenlive:duration">00:00:05.000</property>
  <property name="kdenlive:folderid">50</property>
  <property name="kdenlive:id">51</property>
  <property name="kdenlive:file_size">53660</property>
  <property name="kdenlive:file_hash">88c33d2632e97bd3e5fd853c96501a89</property>
 </producer>
 <producer id="producer46" in="00:00:00.000" out="00:00:04.983">
  <property name="length">00:00:05.000</property>
  <property name="eof">pause</property>
  <property name="resource">video/video-f001883.png</property>
  <property name="ttl">25</property>
  <property name="aspect_ratio">1</property>
  <property name="progressive">1</property>
  <property name="seekable">1</property>
  <property name="meta.media.width">1920</property>
  <property name="meta.media.height">1080</property>
  <property name="mlt_service">qimage</property>
  <property name="kdenlive:clipname"/>
  <property name="kdenlive:duration">00:00:05.000</property>
  <property name="kdenlive:folderid">50</property>
  <property name="kdenlive:id">52</property>
  <property name="kdenlive:file_size">227911</property>
  <property name="kdenlive:file_hash">71fc40fbd4113b808fe4e2ca5af21f3d</property>
 </producer>
 <producer id="producer47" in="00:00:00.000" out="00:00:04.983">
  <property name="length">00:00:05.000</property>
  <property name="eof">pause</property>
  <property name="resource">video/video-f002320.png</property>
  <property name="ttl">25</property>
  <property name="aspect_ratio">1</property>
  <property name="progressive">1</property>
  <property name="seekable">1</property>
  <property name="meta.media.width">1920</property>
  <property name="meta.media.height">1080</property>
  <property name="mlt_service">qimage</property>
  <property name="kdenlive:clipname"/>
  <property name="kdenlive:duration">00:00:05.000</property>
  <property name="kdenlive:folderid">89</property>
  <property name="kdenlive:id">53</property>
  <property name="kdenlive:file_size">90723</property>
  <property name="kdenlive:file_hash">0a325f92328a9514e3c7850b5409aeb1</property>
 </producer>
 <producer id="producer48" in="00:00:00.000" out="00:00:04.983">
  <property name="length">00:00:05.000</property>
  <property name="eof">pause</property>
  <property name="resource">video/video-f002641.png</property>
  <property name="ttl">25</property>
  <property name="aspect_ratio">1</property>
  <property name="progressive">1</property>
  <property name="seekable">1</property>
  <property name="meta.media.width">1920</property>
  <property name="meta.media.height">1080</property>
  <property name="mlt_service">qimage</property>
  <property name="kdenlive:clipname"/>
  <property name="kdenlive:duration">00:00:05.000</property>
  <property name="kdenlive:folderid">89</property>
  <property name="kdenlive:id">54</property>
  <property name="kdenlive:file_size">102893</property>
  <property name="kdenlive:file_hash">d67b53486932f1e095266eb1cbc8dc7b</property>
 </producer>
 <producer id="producer50" in="00:00:00.000" out="00:00:04.983">
  <property name="length">00:00:05.000</property>
  <property name="eof">pause</property>
  <property name="resource">video/video-f003134.png</property>
  <property name="ttl">25</property>
  <property name="aspect_ratio">1</property>
  <property name="progressive">1</property>
  <property name="seekable">1</property>
  <property name="meta.media.width">1920</property>
  <property name="meta.media.height">1080</property>
  <property name="mlt_service">qimage</property>
  <property name="kdenlive:clipname"/>
  <property name="kdenlive:duration">00:00:05.000</property>
  <property name="kdenlive:folderid">89</property>
  <property name="kdenlive:id">55</property>
  <property name="kdenlive:file_size">143569</property>
  <property name="kdenlive:file_hash">496d74af2fdd1ae07943e71e51f3d0c6</property>
 </producer>
 <producer id="producer51" in="00:00:00.000" out="00:00:04.983">
  <property name="length">00:00:05.000</property>
  <property name="eof">pause</property>
  <property name="resource">video/video-f003386.png</property>
  <property name="ttl">25</property>
  <property name="aspect_ratio">1</property>
  <property name="progressive">1</property>
  <property name="seekable">1</property>
  <property name="meta.media.width">1920</property>
  <property name="meta.media.height">1080</property>
  <property name="mlt_service">qimage</property>
  <property name="kdenlive:clipname"/>
  <property name="kdenlive:duration">00:00:05.000</property>
  <property name="kdenlive:folderid">89</property>
  <property name="kdenlive:id">56</property>
  <property name="kdenlive:file_size">171799</property>
  <property name="kdenlive:file_hash">3fccb49ed626d5481fcd58e903c6e678</property>
 </producer>
 <producer id="producer52" in="00:00:00.000" out="00:00:04.983">
  <property name="length">00:00:05.000</property>
  <property name="eof">pause</property>
  <property name="resource">video/video-f004038.png</property>
  <property name="ttl">25</property>
  <property name="aspect_ratio">1</property>
  <property name="progressive">1</property>
  <property name="seekable">1</property>
  <property name="meta.media.width">1920</property>
  <property name="meta.media.height">1080</property>
  <property name="mlt_service">qimage</property>
  <property name="kdenlive:clipname"/>
  <property name="kdenlive:duration">00:00:05.000</property>
  <property name="kdenlive:folderid">89</property>
  <property name="kdenlive:id">57</property>
  <property name="kdenlive:file_size">120961</property>
  <property name="kdenlive:file_hash">7627534079dba3fdf5de872ee7140b6f</property>
 </producer>
 <producer id="producer53" in="00:00:00.000" out="00:00:05.983">
  <property name="length">360</property>
  <property name="eof">pause</property>
  <property name="resource">video/video-f004495.png</property>
  <property name="ttl">25</property>
  <property name="aspect_ratio">1</property>
  <property name="progressive">1</property>
  <property name="seekable">1</property>
  <property name="meta.media.width">1920</property>
  <property name="meta.media.height">1080</property>
  <property name="mlt_service">qimage</property>
  <property name="kdenlive:clipname"/>
  <property name="kdenlive:duration">00:00:05.000</property>
  <property name="kdenlive:folderid">89</property>
  <property name="kdenlive:id">58</property>
  <property name="kdenlive:file_size">142209</property>
  <property name="kdenlive:file_hash">1899f32a2db8df18850ac03e701452ff</property>
 </producer>
 <producer id="producer54" in="00:00:00.000" out="00:00:15.667">
  <property name="length">941</property>
  <property name="eof">pause</property>
  <property name="resource">video/video-f004875.png</property>
  <property name="ttl">25</property>
  <property name="aspect_ratio">1</property>
  <property name="progressive">1</property>
  <property name="seekable">1</property>
  <property name="meta.media.width">1920</property>
  <property name="meta.media.height">1080</property>
  <property name="mlt_service">qimage</property>
  <property name="kdenlive:clipname"/>
  <property name="kdenlive:duration">00:00:05.000</property>
  <property name="kdenlive:folderid">89</property>
  <property name="kdenlive:id">59</property>
  <property name="kdenlive:file_size">153187</property>
  <property name="kdenlive:file_hash">f1f204264f5d93416f33b1f2541b136f</property>
 </producer>
 <producer id="producer55" in="00:00:00.000" out="00:00:04.983">
  <property name="length">00:00:05.000</property>
  <property name="eof">pause</property>
  <property name="resource">video/video-f005801.png</property>
  <property name="ttl">25</property>
  <property name="aspect_ratio">1</property>
  <property name="progressive">1</property>
  <property name="seekable">1</property>
  <property name="meta.media.width">1920</property>
  <property name="meta.media.height">1080</property>
  <property name="mlt_service">qimage</property>
  <property name="kdenlive:clipname"/>
  <property name="kdenlive:duration">00:00:05.000</property>
  <property name="kdenlive:folderid">89</property>
  <property name="kdenlive:id">60</property>
  <property name="kdenlive:file_size">150797</property>
  <property name="kdenlive:file_hash">09440aa75601831759be4788b9517190</property>
 </producer>
 <producer id="producer56" in="00:00:00.000" out="00:00:06.133">
  <property name="length">369</property>
  <property name="eof">pause</property>
  <property name="resource">video/video-f006197.png</property>
  <property name="ttl">25</property>
  <property name="aspect_ratio">1</property>
  <property name="progressive">1</property>
  <property name="seekable">1</property>
  <property name="meta.media.width">1920</property>
  <property name="meta.media.height">1080</property>
  <property name="mlt_service">qimage</property>
  <property name="kdenlive:clipname"/>
  <property name="kdenlive:duration">00:00:05.000</property>
  <property name="kdenlive:folderid">89</property>
  <property name="kdenlive:id">61</property>
  <property name="kdenlive:file_size">80493</property>
  <property name="kdenlive:file_hash">97760a2fc4b6f4f32ba0a048a193cca9</property>
 </producer>
 <producer id="producer57" in="00:00:00.000" out="00:00:04.983">
  <property name="length">00:00:05.000</property>
  <property name="eof">pause</property>
  <property name="resource">video/video-f006630.png</property>
  <property name="ttl">25</property>
  <property name="aspect_ratio">1</property>
  <property name="progressive">1</property>
  <property name="seekable">1</property>
  <property name="meta.media.width">1920</property>
  <property name="meta.media.height">1080</property>
  <property name="mlt_service">qimage</property>
  <property name="kdenlive:clipname"/>
  <property name="kdenlive:duration">00:00:05.000</property>
  <property name="kdenlive:folderid">89</property>
  <property name="kdenlive:id">62</property>
  <property name="kdenlive:file_size">96590</property>
  <property name="kdenlive:file_hash">b7d26eb0c62b739f4bf4c9ecb9bd0a93</property>
 </producer>
 <producer id="producer58" in="00:00:00.000" out="00:00:05.217">
  <property name="length">314</property>
  <property name="eof">pause</property>
  <property name="resource">video/video-f006892.png</property>
  <property name="ttl">25</property>
  <property name="aspect_ratio">1</property>
  <property name="progressive">1</property>
  <property name="seekable">1</property>
  <property name="meta.media.width">1920</property>
  <property name="meta.media.height">1080</property>
  <property name="mlt_service">qimage</property>
  <property name="kdenlive:clipname"/>
  <property name="kdenlive:duration">00:00:05.000</property>
  <property name="kdenlive:folderid">89</property>
  <property name="kdenlive:id">63</property>
  <property name="kdenlive:file_size">98149</property>
  <property name="kdenlive:file_hash">b8c4007304d73298e844cc20aea753f5</property>
 </producer>
 <producer id="producer59" in="00:00:00.000" out="00:00:04.983">
  <property name="length">00:00:05.000</property>
  <property name="eof">pause</property>
  <property name="resource">video/video-f007027.png</property>
  <property name="ttl">25</property>
  <property name="aspect_ratio">1</property>
  <property name="progressive">1</property>
  <property name="seekable">1</property>
  <property name="meta.media.width">1920</property>
  <property name="meta.media.height">1080</property>
  <property name="mlt_service">qimage</property>
  <property name="kdenlive:clipname"/>
  <property name="kdenlive:duration">00:00:05.000</property>
  <property name="kdenlive:folderid">89</property>
  <property name="kdenlive:id">64</property>
  <property name="kdenlive:file_size">100004</property>
  <property name="kdenlive:file_hash">0c640f73ab9d2a51531e7b6b7dd9508b</property>
 </producer>
 <producer id="producer60" in="00:00:00.000" out="00:00:04.983">
  <property name="length">00:00:05.000</property>
  <property name="eof">pause</property>
  <property name="resource">video/video-f007183.png</property>
  <property name="ttl">25</property>
  <property name="aspect_ratio">1</property>
  <property name="progressive">1</property>
  <property name="seekable">1</property>
  <property name="meta.media.width">1920</property>
  <property name="meta.media.height">1080</property>
  <property name="mlt_service">qimage</property>
  <property name="kdenlive:clipname"/>
  <property name="kdenlive:duration">00:00:05.000</property>
  <property name="kdenlive:folderid">89</property>
  <property name="kdenlive:id">65</property>
  <property name="kdenlive:file_size">103207</property>
  <property name="kdenlive:file_hash">fe0f7a46e52c30760a33fed5d6842527</property>
 </producer>
 <producer id="producer62" in="00:00:00.000" out="00:00:04.983">
  <property name="length">00:00:05.000</property>
  <property name="eof">pause</property>
  <property name="resource">video/video-f007352.png</property>
  <property name="ttl">25</property>
  <property name="aspect_ratio">1</property>
  <property name="progressive">1</property>
  <property name="seekable">1</property>
  <property name="meta.media.width">1920</property>
  <property name="meta.media.height">1080</property>
  <property name="mlt_service">qimage</property>
  <property name="kdenlive:clipname"/>
  <property name="kdenlive:duration">00:00:05.000</property>
  <property name="kdenlive:folderid">89</property>
  <property name="kdenlive:id">66</property>
  <property name="kdenlive:file_size">103395</property>
  <property name="kdenlive:file_hash">7c9514ad9417a0a2f560ea648b19828b</property>
 </producer>
 <producer id="producer63" in="00:00:00.000" out="00:00:04.983">
  <property name="length">00:00:05.000</property>
  <property name="eof">pause</property>
  <property name="resource">video/video-f007658.png</property>
  <property name="ttl">25</property>
  <property name="aspect_ratio">1</property>
  <property name="progressive">1</property>
  <property name="seekable">1</property>
  <property name="meta.media.width">1920</property>
  <property name="meta.media.height">1080</property>
  <property name="mlt_service">qimage</property>
  <property name="kdenlive:clipname"/>
  <property name="kdenlive:duration">00:00:05.000</property>
  <property name="kdenlive:folderid">89</property>
  <property name="kdenlive:id">67</property>
  <property name="kdenlive:file_size">110659</property>
  <property name="kdenlive:file_hash">2bba538660525c067ff684f6e6a27840</property>
 </producer>
 <producer id="producer64" in="00:00:00.000" out="00:00:04.983">
  <property name="length">00:00:05.000</property>
  <property name="eof">pause</property>
  <property name="resource">video/video-f008016.png</property>
  <property name="ttl">25</property>
  <property name="aspect_ratio">1</property>
  <property name="progressive">1</property>
  <property name="seekable">1</property>
  <property name="meta.media.width">1920</property>
  <property name="meta.media.height">1080</property>
  <property name="mlt_service">qimage</property>
  <property name="kdenlive:clipname"/>
  <property name="kdenlive:duration">00:00:05.000</property>
  <property name="kdenlive:folderid">89</property>
  <property name="kdenlive:id">68</property>
  <property name="kdenlive:file_size">133507</property>
  <property name="kdenlive:file_hash">91ee949d3540bc2832f6e294ac1e2f4c</property>
 </producer>
 <producer id="producer65" in="00:00:00.000" out="00:00:04.983">
  <property name="length">00:00:05.000</property>
  <property name="eof">pause</property>
  <property name="resource">video/video-f008177.png</property>
  <property name="ttl">25</property>
  <property name="aspect_ratio">1</property>
  <property name="progressive">1</property>
  <property name="seekable">1</property>
  <property name="meta.media.width">1920</property>
  <property name="meta.media.height">1080</property>
  <property name="mlt_service">qimage</property>
  <property name="kdenlive:clipname"/>
  <property name="kdenlive:duration">00:00:05.000</property>
  <property name="kdenlive:folderid">89</property>
  <property name="kdenlive:id">69</property>
  <property name="kdenlive:file_size">145932</property>
  <property name="kdenlive:file_hash">fa24dbcb9fa5720cbbef88ba97763a0f</property>
 </producer>
 <producer id="producer66" in="00:00:00.000" out="00:00:04.983">
  <property name="length">00:00:05.000</property>
  <property name="eof">pause</property>
  <property name="resource">video/video-f008412.png</property>
  <property name="ttl">25</property>
  <property name="aspect_ratio">1</property>
  <property name="progressive">1</property>
  <property name="seekable">1</property>
  <property name="meta.media.width">1920</property>
  <property name="meta.media.height">1080</property>
  <property name="mlt_service">qimage</property>
  <property name="kdenlive:clipname"/>
  <property name="kdenlive:duration">00:00:05.000</property>
  <property name="kdenlive:folderid">89</property>
  <property name="kdenlive:id">70</property>
  <property name="kdenlive:file_size">146880</property>
  <property name="kdenlive:file_hash">23cc8c6a3c79e0917f87ffcc272cf128</property>
 </producer>
 <producer id="producer67" in="00:00:00.000" out="00:00:04.983">
  <property name="length">00:00:05.000</property>
  <property name="eof">pause</property>
  <property name="resource">video/video-f008820.png</property>
  <property name="ttl">25</property>
  <property name="aspect_ratio">1</property>
  <property name="progressive">1</property>
  <property name="seekable">1</property>
  <property name="meta.media.width">1920</property>
  <property name="meta.media.height">1080</property>
  <property name="mlt_service">qimage</property>
  <property name="kdenlive:clipname"/>
  <property name="kdenlive:duration">00:00:05.000</property>
  <property name="kdenlive:folderid">89</property>
  <property name="kdenlive:id">71</property>
  <property name="kdenlive:file_size">151948</property>
  <property name="kdenlive:file_hash">8a4b0f096d65aa49005501df034feba1</property>
 </producer>
 <producer id="producer68" in="00:00:00.000" out="00:00:04.983">
  <property name="length">00:00:05.000</property>
  <property name="eof">pause</property>
  <property name="resource">video/video-f009106.png</property>
  <property name="ttl">25</property>
  <property name="aspect_ratio">1</property>
  <property name="progressive">1</property>
  <property name="seekable">1</property>
  <property name="meta.media.width">1920</property>
  <property name="meta.media.height">1080</property>
  <property name="mlt_service">qimage</property>
  <property name="kdenlive:clipname"/>
  <property name="kdenlive:duration">00:00:05.000</property>
  <property name="kdenlive:folderid">89</property>
  <property name="kdenlive:id">72</property>
  <property name="kdenlive:file_size">147003</property>
  <property name="kdenlive:file_hash">181a11bc29c8b95ed24c841bab749b62</property>
 </producer>
 <producer id="producer69" in="00:00:00.000" out="00:00:08.267">
  <property name="length">497</property>
  <property name="eof">pause</property>
  <property name="resource">video/video-f009375.png</property>
  <property name="ttl">25</property>
  <property name="aspect_ratio">1</property>
  <property name="progressive">1</property>
  <property name="seekable">1</property>
  <property name="meta.media.width">1920</property>
  <property name="meta.media.height">1080</property>
  <property name="mlt_service">qimage</property>
  <property name="kdenlive:clipname"/>
  <property name="kdenlive:duration">00:00:05.000</property>
  <property name="kdenlive:folderid">89</property>
  <property name="kdenlive:id">73</property>
  <property name="kdenlive:file_size">147921</property>
  <property name="kdenlive:file_hash">0558f52c9967cdca26216458cdab8a17</property>
 </producer>
 <producer id="producer70" in="00:00:00.000" out="00:00:17.317">
  <property name="length">1040</property>
  <property name="eof">pause</property>
  <property name="resource">video/video-f009927.png</property>
  <property name="ttl">25</property>
  <property name="aspect_ratio">1</property>
  <property name="progressive">1</property>
  <property name="seekable">1</property>
  <property name="meta.media.width">1920</property>
  <property name="meta.media.height">1080</property>
  <property name="mlt_service">qimage</property>
  <property name="kdenlive:clipname"/>
  <property name="kdenlive:duration">00:00:05.000</property>
  <property name="kdenlive:folderid">89</property>
  <property name="kdenlive:id">74</property>
  <property name="kdenlive:file_size">152485</property>
  <property name="kdenlive:file_hash">545d0d7063ed69a42e9d4927d239ea12</property>
 </producer>
 <producer id="producer71" in="00:00:00.000" out="00:00:08.450">
  <property name="length">508</property>
  <property name="eof">pause</property>
  <property name="resource">audio/utmp.wav</property>
  <property name="meta.media.nb_streams">1</property>
  <property name="meta.media.0.stream.type">audio</property>
  <property name="meta.media.0.codec.sample_fmt">s16</property>
  <property name="meta.media.0.codec.sample_rate">48000</property>
  <property name="meta.media.0.codec.channels">2</property>
  <property name="meta.media.0.codec.name">pcm_s16le</property>
  <property name="meta.media.0.codec.long_name">PCM signed 16-bit little-endian</property>
  <property name="meta.media.0.codec.bit_rate">1536000</property>
  <property name="seekable">1</property>
  <property name="audio_index">0</property>
  <property name="video_index">-1</property>
  <property name="mute_on_pause">1</property>
  <property name="mlt_service">avformat</property>
  <property name="kdenlive:clipname"/>
  <property name="kdenlive:folderid">-1</property>
  <property name="kdenlive:id">75</property>
  <property name="kdenlive:file_size">1627052</property>
  <property name="kdenlive:file_hash">99d9b04a59eb7b331a8b7b30df345d64</property>
  <property name="kdenlive:audio_max">6</property>
  <property name="global_feed">1</property>
 </producer>
 <producer id="producer72" in="00:00:00.000" out="00:00:04.983">
  <property name="length">00:00:05.000</property>
  <property name="eof">pause</property>
  <property name="resource">video/video-f010851.png</property>
  <property name="ttl">25</property>
  <property name="aspect_ratio">1</property>
  <property name="progressive">1</property>
  <property name="seekable">1</property>
  <property name="meta.media.width">1920</property>
  <property name="meta.media.height">1080</property>
  <property name="mlt_service">qimage</property>
  <property name="kdenlive:clipname"/>
  <property name="kdenlive:duration">00:00:05.000</property>
  <property name="kdenlive:folderid">-1</property>
  <property name="kdenlive:id">76</property>
  <property name="kdenlive:file_size">173675</property>
  <property name="kdenlive:file_hash">ddf730eb75481ae4e79953b7d9d521d8</property>
 </producer>
 <producer id="producer73" in="00:00:00.000" out="00:00:04.983">
  <property name="length">00:00:05.000</property>
  <property name="eof">pause</property>
  <property name="resource">video/video-f011246.png</property>
  <property name="ttl">25</property>
  <property name="aspect_ratio">1</property>
  <property name="progressive">1</property>
  <property name="seekable">1</property>
  <property name="meta.media.width">1920</property>
  <property name="meta.media.height">1080</property>
  <property name="mlt_service">qimage</property>
  <property name="kdenlive:clipname"/>
  <property name="kdenlive:duration">00:00:05.000</property>
  <property name="kdenlive:folderid">-1</property>
  <property name="kdenlive:id">77</property>
  <property name="kdenlive:file_size">171350</property>
  <property name="kdenlive:file_hash">9ef7c44234a1ec4fde41149e16b491b7</property>
 </producer>
 <producer id="producer74" in="00:00:00.000" out="00:00:04.983">
  <property name="length">00:00:05.000</property>
  <property name="eof">pause</property>
  <property name="resource">video/video-f011559.png</property>
  <property name="ttl">25</property>
  <property name="aspect_ratio">1</property>
  <property name="progressive">1</property>
  <property name="seekable">1</property>
  <property name="meta.media.width">1920</property>
  <property name="meta.media.height">1080</property>
  <property name="mlt_service">qimage</property>
  <property name="kdenlive:clipname"/>
  <property name="kdenlive:duration">00:00:05.000</property>
  <property name="kdenlive:folderid">-1</property>
  <property name="kdenlive:id">78</property>
  <property name="kdenlive:file_size">175954</property>
  <property name="kdenlive:file_hash">40806ca0100fd93c706397aad6572c91</property>
 </producer>
 <producer id="producer76" in="00:00:00.000" out="00:00:04.983">
  <property name="length">00:00:05.000</property>
  <property name="eof">pause</property>
  <property name="resource">video/video-f011852.png</property>
  <property name="ttl">25</property>
  <property name="aspect_ratio">1</property>
  <property name="progressive">1</property>
  <property name="seekable">1</property>
  <property name="meta.media.width">1920</property>
  <property name="meta.media.height">1080</property>
  <property name="mlt_service">qimage</property>
  <property name="kdenlive:clipname"/>
  <property name="kdenlive:duration">00:00:05.000</property>
  <property name="kdenlive:folderid">89</property>
  <property name="kdenlive:id">79</property>
  <property name="kdenlive:file_size">178338</property>
  <property name="kdenlive:file_hash">b775cd768783a6102416f80ce21ec0db</property>
  <property name="global_feed">1</property>
 </producer>
 <producer id="producer75" in="00:00:00.000" out="00:00:04.983">
  <property name="length">00:00:05.000</property>
  <property name="eof">pause</property>
  <property name="resource">video/video-f011852.png</property>
  <property name="ttl">25</property>
  <property name="aspect_ratio">1</property>
  <property name="progressive">1</property>
  <property name="seekable">1</property>
  <property name="meta.media.width">1920</property>
  <property name="meta.media.height">1080</property>
  <property name="mlt_service">qimage</property>
  <property name="kdenlive:clipname"/>
  <property name="kdenlive:duration">00:00:05.000</property>
  <property name="kdenlive:folderid">-1</property>
  <property name="kdenlive:id">80</property>
  <property name="kdenlive:file_size">178338</property>
  <property name="kdenlive:file_hash">b775cd768783a6102416f80ce21ec0db</property>
  <property name="global_feed">1</property>
 </producer>
 <producer id="producer77" in="00:00:00.000" out="00:00:05.717">
  <property name="length">344</property>
  <property name="eof">pause</property>
  <property name="resource">video/video-f011968.png</property>
  <property name="ttl">25</property>
  <property name="aspect_ratio">1</property>
  <property name="progressive">1</property>
  <property name="seekable">1</property>
  <property name="meta.media.width">1920</property>
  <property name="meta.media.height">1080</property>
  <property name="mlt_service">qimage</property>
  <property name="kdenlive:clipname"/>
  <property name="kdenlive:duration">00:00:05.000</property>
  <property name="kdenlive:folderid">-1</property>
  <property name="kdenlive:id">81</property>
  <property name="kdenlive:file_size">178511</property>
  <property name="kdenlive:file_hash">eb0caea760ecf34b9999eb1dff479b6c</property>
 </producer>
 <producer id="producer78" in="00:00:00.000" out="00:00:13.200">
  <property name="length">793</property>
  <property name="eof">pause</property>
  <property name="resource">video/video-f012430.png</property>
  <property name="ttl">25</property>
  <property name="aspect_ratio">1</property>
  <property name="progressive">1</property>
  <property name="seekable">1</property>
  <property name="meta.media.width">1920</property>
  <property name="meta.media.height">1080</property>
  <property name="mlt_service">qimage</property>
  <property name="kdenlive:clipname"/>
  <property name="kdenlive:duration">00:00:05.000</property>
  <property name="kdenlive:folderid">-1</property>
  <property name="kdenlive:id">82</property>
  <property name="kdenlive:file_size">179575</property>
  <property name="kdenlive:file_hash">2d56cb159f9015c1da686809efe04638</property>
 </producer>
 <producer id="producer79" in="00:00:00.000" out="00:00:18.900">
  <property name="length">1135</property>
  <property name="eof">pause</property>
  <property name="resource">video/video-f013120.png</property>
  <property name="ttl">25</property>
  <property name="aspect_ratio">1</property>
  <property name="progressive">1</property>
  <property name="seekable">1</property>
  <property name="meta.media.width">1920</property>
  <property name="meta.media.height">1080</property>
  <property name="mlt_service">qimage</property>
  <property name="kdenlive:clipname"/>
  <property name="kdenlive:duration">00:00:05.000</property>
  <property name="kdenlive:folderid">-1</property>
  <property name="kdenlive:id">83</property>
  <property name="kdenlive:file_size">194647</property>
  <property name="kdenlive:file_hash">f1766b960a67fac24b4115e24467a29c</property>
  <property name="global_feed">1</property>
 </producer>
 <producer id="producer80" in="00:00:00.000" out="00:00:04.983">
  <property name="length">00:00:05.000</property>
  <property name="eof">pause</property>
  <property name="resource">video/video-f003615.png</property>
  <property name="ttl">25</property>
  <property name="aspect_ratio">1</property>
  <property name="progressive">1</property>
  <property name="seekable">1</property>
  <property name="meta.media.width">1920</property>
  <property name="meta.media.height">1080</property>
  <property name="mlt_service">qimage</property>
  <property name="kdenlive:clipname"/>
  <property name="kdenlive:duration">00:00:05.000</property>
  <property name="kdenlive:folderid">50</property>
  <property name="kdenlive:id">84</property>
  <property name="kdenlive:file_size">174549</property>
  <property name="kdenlive:file_hash">de353dff52fd5726efe97451422bb70f</property>
 </producer>
 <producer id="producer81" in="00:00:00.000" out="00:00:05.083">
  <property name="length">306</property>
  <property name="eof">pause</property>
  <property name="resource">video/video-f007345.png</property>
  <property name="ttl">25</property>
  <property name="aspect_ratio">1</property>
  <property name="progressive">1</property>
  <property name="seekable">1</property>
  <property name="meta.media.width">1920</property>
  <property name="meta.media.height">1080</property>
  <property name="mlt_service">qimage</property>
  <property name="kdenlive:clipname"/>
  <property name="kdenlive:duration">00:00:05.000</property>
  <property name="kdenlive:folderid">50</property>
  <property name="kdenlive:id">85</property>
  <property name="kdenlive:file_size">101577</property>
  <property name="kdenlive:file_hash">9e4be496ad929d04813f5d4730b569fc</property>
 </producer>
 <producer id="producer82" in="00:00:00.000" out="00:00:04.983">
  <property name="length">00:00:05.000</property>
  <property name="eof">pause</property>
  <property name="resource">video/video-f008066.png</property>
  <property name="ttl">25</property>
  <property name="aspect_ratio">1</property>
  <property name="progressive">1</property>
  <property name="seekable">1</property>
  <property name="meta.media.width">1920</property>
  <property name="meta.media.height">1080</property>
  <property name="mlt_service">qimage</property>
  <property name="kdenlive:clipname"/>
  <property name="kdenlive:duration">00:00:05.000</property>
  <property name="kdenlive:folderid">50</property>
  <property name="kdenlive:id">86</property>
  <property name="kdenlive:file_size">135862</property>
  <property name="kdenlive:file_hash">3b873fde338323961d0ad25bcc636ecb</property>
 </producer>
 <producer id="producer83" in="00:00:00.000" out="00:00:16.833">
  <property name="length">1011</property>
  <property name="eof">pause</property>
  <property name="resource">audio/e1--.wav</property>
  <property name="meta.media.nb_streams">1</property>
  <property name="meta.media.0.stream.type">audio</property>
  <property name="meta.media.0.codec.sample_fmt">s16</property>
  <property name="meta.media.0.codec.sample_rate">48000</property>
  <property name="meta.media.0.codec.channels">2</property>
  <property name="meta.media.0.codec.name">pcm_s16le</property>
  <property name="meta.media.0.codec.long_name">PCM signed 16-bit little-endian</property>
  <property name="meta.media.0.codec.bit_rate">1536000</property>
  <property name="seekable">1</property>
  <property name="audio_index">0</property>
  <property name="video_index">-1</property>
  <property name="mute_on_pause">1</property>
  <property name="mlt_service">avformat</property>
  <property name="kdenlive:clipname"/>
  <property name="kdenlive:folderid">89</property>
  <property name="kdenlive:id">87</property>
  <property name="kdenlive:file_size">3235916</property>
  <property name="kdenlive:file_hash">20137315e6f599f5128ee75d1b60b18b</property>
  <property name="kdenlive:audio_max">8</property>
  <property name="global_feed">1</property>
 </producer>
 <producer id="producer84" in="00:00:00.000" out="00:00:16.583">
  <property name="length">996</property>
  <property name="eof">pause</property>
  <property name="resource">audio/e1-.wav</property>
  <property name="meta.media.nb_streams">1</property>
  <property name="meta.media.0.stream.type">audio</property>
  <property name="meta.media.0.codec.sample_fmt">s16</property>
  <property name="meta.media.0.codec.sample_rate">48000</property>
  <property name="meta.media.0.codec.channels">2</property>
  <property name="meta.media.0.codec.name">pcm_s16le</property>
  <property name="meta.media.0.codec.long_name">PCM signed 16-bit little-endian</property>
  <property name="meta.media.0.codec.bit_rate">1536000</property>
  <property name="seekable">1</property>
  <property name="audio_index">0</property>
  <property name="video_index">-1</property>
  <property name="mute_on_pause">1</property>
  <property name="mlt_service">avformat</property>
  <property name="kdenlive:clipname"/>
  <property name="kdenlive:folderid">89</property>
  <property name="kdenlive:id">88</property>
  <property name="kdenlive:file_size">3187340</property>
  <property name="kdenlive:file_hash">6488799ac6fe666b760f834f77a571fc</property>
  <property name="kdenlive:audio_max">90</property>
 </producer>
 <producer id="producer85" in="00:00:00.000" out="00:00:05.700">
  <property name="length">343</property>
  <property name="eof">pause</property>
  <property name="resource">audio/f3--.wav</property>
  <property name="meta.media.nb_streams">1</property>
  <property name="meta.media.0.stream.type">audio</property>
  <property name="meta.media.0.codec.sample_fmt">s16</property>
  <property name="meta.media.0.codec.sample_rate">48000</property>
  <property name="meta.media.0.codec.channels">2</property>
  <property name="meta.media.0.codec.name">pcm_s16le</property>
  <property name="meta.media.0.codec.long_name">PCM signed 16-bit little-endian</property>
  <property name="meta.media.0.codec.bit_rate">1536000</property>
  <property name="seekable">1</property>
  <property name="audio_index">0</property>
  <property name="video_index">-1</property>
  <property name="mute_on_pause">1</property>
  <property name="mlt_service">avformat</property>
  <property name="kdenlive:clipname"/>
  <property name="kdenlive:folderid">89</property>
  <property name="kdenlive:id">90</property>
  <property name="kdenlive:file_size">1098860</property>
  <property name="kdenlive:file_hash">2c28415bf08aa7b8424f0a8309a5952a</property>
  <property name="kdenlive:audio_max">12</property>
  <property name="global_feed">1</property>
 </producer>
 <producer id="producer86" in="00:00:00.000" out="00:00:04.983">
  <property name="length">00:00:05.000</property>
  <property name="eof">pause</property>
  <property name="resource">video/video-f006135.png</property>
  <property name="ttl">25</property>
  <property name="aspect_ratio">1</property>
  <property name="progressive">1</property>
  <property name="seekable">1</property>
  <property name="meta.media.width">1920</property>
  <property name="meta.media.height">1080</property>
  <property name="mlt_service">qimage</property>
  <property name="kdenlive:clipname"/>
  <property name="kdenlive:duration">00:00:05.000</property>
  <property name="kdenlive:folderid">-1</property>
  <property name="kdenlive:id">91</property>
  <property name="kdenlive:file_size">31907</property>
  <property name="kdenlive:file_hash">db2f10e72eb6db020b71d79f39671a78</property>
 </producer>
 <producer id="producer87" in="00:00:00.000" out="00:00:10.467">
  <property name="length">629</property>
  <property name="eof">pause</property>
  <property name="resource">audio/u1-.wav</property>
  <property name="meta.media.nb_streams">1</property>
  <property name="meta.media.0.stream.type">audio</property>
  <property name="meta.media.0.codec.sample_fmt">s16</property>
  <property name="meta.media.0.codec.sample_rate">48000</property>
  <property name="meta.media.0.codec.channels">2</property>
  <property name="meta.media.0.codec.name">pcm_s16le</property>
  <property name="meta.media.0.codec.long_name">PCM signed 16-bit little-endian</property>
  <property name="meta.media.0.codec.bit_rate">1536000</property>
  <property name="seekable">1</property>
  <property name="audio_index">0</property>
  <property name="video_index">-1</property>
  <property name="mute_on_pause">1</property>
  <property name="mlt_service">avformat</property>
  <property name="kdenlive:clipname"/>
  <property name="kdenlive:folderid">-1</property>
  <property name="kdenlive:id">92</property>
  <property name="kdenlive:file_size">2011564</property>
  <property name="kdenlive:file_hash">5087e4be6d97123b718f111cb9529927</property>
  <property name="kdenlive:audio_max">10</property>
  <property name="global_feed">1</property>
 </producer>
 <playlist id="main_bin">
  <property name="kdenlive:folder.-1.15">music</property>
  <property name="kdenlive:folder.-1.89">audio</property>
  <property name="kdenlive:folder.-1.50">video</property>
  <property name="kdenlive:docproperties.activeTrack">4</property>
  <property name="kdenlive:docproperties.audioChannels">2</property>
  <property name="kdenlive:docproperties.audioTarget">-1</property>
  <property name="kdenlive:docproperties.disablepreview">0</property>
  <property name="kdenlive:docproperties.documentid">1619043766034</property>
  <property name="kdenlive:docproperties.enableTimelineZone">0</property>
  <property name="kdenlive:docproperties.enableexternalproxy">0</property>
  <property name="kdenlive:docproperties.enableproxy">0</property>
  <property name="kdenlive:docproperties.externalproxyparams"/>
  <property name="kdenlive:docproperties.generateimageproxy">0</property>
  <property name="kdenlive:docproperties.generateproxy">0</property>
  <property name="kdenlive:docproperties.groups">[
]
</property>
  <property name="kdenlive:docproperties.kdenliveversion">20.12.3</property>
  <property name="kdenlive:docproperties.position">7483</property>
  <property name="kdenlive:docproperties.previewextension"/>
  <property name="kdenlive:docproperties.previewparameters"/>
  <property name="kdenlive:docproperties.profile">atsc_1080p_60</property>
  <property name="kdenlive:docproperties.proxyextension"/>
  <property name="kdenlive:docproperties.proxyimageminsize">2000</property>
  <property name="kdenlive:docproperties.proxyimagesize">800</property>
  <property name="kdenlive:docproperties.proxyminsize">1000</property>
  <property name="kdenlive:docproperties.proxyparams"/>
  <property name="kdenlive:docproperties.renderaudioquality">192</property>
  <property name="kdenlive:docproperties.rendercategory">Ultra-High Definition (4K)</property>
  <property name="kdenlive:docproperties.renderendguide">-1</property>
  <property name="kdenlive:docproperties.renderexportaudio">0</property>
  <property name="kdenlive:docproperties.renderfield">0</property>
  <property name="kdenlive:docproperties.renderguide">0</property>
  <property name="kdenlive:docproperties.renderplay">0</property>
  <property name="kdenlive:docproperties.renderprofile">MP4-H265 (HEVC)</property>
  <property name="kdenlive:docproperties.renderquality">15</property>
  <property name="kdenlive:docproperties.renderratio">1</property>
  <property name="kdenlive:docproperties.renderrescale">0</property>
  <property name="kdenlive:docproperties.renderrescaleheight">540</property>
  <property name="kdenlive:docproperties.renderrescalewidth">960</property>
  <property name="kdenlive:docproperties.renderscanning">0</property>
  <property name="kdenlive:docproperties.renderspeed">2</property>
  <property name="kdenlive:docproperties.renderstartguide">-1</property>
  <property name="kdenlive:docproperties.rendertcoverlay">0</property>
  <property name="kdenlive:docproperties.rendertctype">0</property>
  <property name="kdenlive:docproperties.rendertwopass">0</property>
  <property name="kdenlive:docproperties.renderurl">/home/xiaoxiae/video.mp4</property>
  <property name="kdenlive:docproperties.renderzone">0</property>
  <property name="kdenlive:docproperties.scrollPos">3366</property>
  <property name="kdenlive:docproperties.seekOffset">30000</property>
  <property name="kdenlive:docproperties.version">1</property>
  <property name="kdenlive:docproperties.verticalzoom">1</property>
  <property name="kdenlive:docproperties.videoTarget">-1</property>
  <property name="kdenlive:docproperties.zonein">1816</property>
  <property name="kdenlive:docproperties.zoneout">1817</property>
  <property name="kdenlive:docproperties.zoom">7</property>
  <property name="kdenlive:expandedFolders">89;50</property>
  <property name="kdenlive:documentnotes"/>
  <property name="xml_retain">1</property>
  <entry producer="producer0" in="00:00:00.000" out="00:02:46.650"/>
  <entry producer="producer1" in="00:00:00.000" out="00:02:10.250"/>
  <entry producer="producer2" in="00:00:00.000" out="00:02:33.117"/>
  <entry producer="producer3" in="00:00:00.000" out="00:03:46.050"/>
  <entry producer="producer4" in="00:00:00.000" out="00:02:59.500"/>
  <entry producer="producer5" in="00:00:00.000" out="00:02:47.633"/>
  <entry producer="producer6" in="00:00:00.000" out="00:03:11.383"/>
  <entry producer="producer7" in="00:00:00.000" out="00:03:08.383"/>
  <entry producer="producer8" in="00:00:00.000" out="00:02:54.800"/>
  <entry producer="producer9" in="00:00:00.000" out="00:02:38.883"/>
  <entry producer="producer10" in="00:00:00.000" out="00:04:25.133"/>
  <entry producer="producer11" in="00:00:00.000" out="00:02:54.683"/>
  <entry producer="producer12" in="00:00:00.000" out="00:00:05.133"/>
  <entry producer="producer13" in="00:00:00.000" out="00:00:09.717"/>
  <entry producer="producer14" in="00:00:00.000" out="00:00:14.700"/>
  <entry producer="producer15" in="00:00:00.000" out="00:00:04.950"/>
  <entry producer="producer16" in="00:00:00.000" out="00:00:09.717"/>
  <entry producer="producer17" in="00:00:00.000" out="00:00:04.333"/>
  <entry producer="producer18" in="00:00:00.000" out="00:00:09.467"/>
  <entry producer="producer19" in="00:00:00.000" out="00:00:09.467"/>
  <entry producer="producer20" in="00:00:00.000" out="00:00:10.700"/>
  <entry producer="producer21" in="00:00:00.000" out="00:00:01.717"/>
  <entry producer="producer22" in="00:00:00.000" out="00:00:09.833"/>
  <entry producer="producer23" in="00:00:00.000" out="00:00:08.333"/>
  <entry producer="producer24" in="00:00:00.000" out="00:00:21.700"/>
  <entry producer="producer25" in="00:00:00.000" out="00:00:09.467"/>
  <entry producer="producer26" in="00:00:00.000" out="00:00:09.950"/>
  <entry producer="producer27" in="00:00:00.000" out="00:00:08.950"/>
  <entry producer="producer28" in="00:00:00.000" out="00:00:05.583"/>
  <entry producer="producer29" in="00:00:00.000" out="00:00:14.333"/>
  <entry producer="producer30" in="00:00:00.000" out="00:00:11.950"/>
  <entry producer="producer31" in="00:00:00.000" out="00:00:10.333"/>
  <entry producer="producer32" in="00:00:00.000" out="00:00:13.333"/>
  <entry producer="producer33" in="00:00:00.000" out="00:00:10.950"/>
  <entry producer="producer34" in="00:00:00.000" out="00:00:10.333"/>
  <entry producer="producer35" in="00:00:00.000" out="00:00:08.950"/>
  <entry producer="producer36" in="00:00:00.000" out="00:00:10.833"/>
  <entry producer="producer37" in="00:00:00.000" out="00:00:05.783"/>
  <entry producer="producer38" in="00:00:00.000" out="00:00:07.983"/>
  <entry producer="producer39" in="00:00:00.000" out="00:00:06.983"/>
  <entry producer="producer49" in="00:00:00.000" out="00:00:09.983"/>
  <entry producer="producer40" in="00:00:00.000" out="00:00:07.983"/>
  <entry producer="producer41" in="00:00:00.000" out="00:00:07.983"/>
  <entry producer="producer42" in="00:00:00.000" out="00:00:03.283"/>
  <entry producer="producer43" in="00:00:00.000" out="00:00:06.983"/>
  <entry producer="producer44" in="00:00:00.000" out="00:00:14.983"/>
  <entry producer="producer61" in="00:00:00.000" out="00:00:37.983"/>
  <entry producer="producer45" in="00:00:00.000" out="00:00:04.983"/>
  <entry producer="producer46" in="00:00:00.000" out="00:00:04.983"/>
  <entry producer="producer47" in="00:00:00.000" out="00:00:04.983"/>
  <entry producer="producer48" in="00:00:00.000" out="00:00:04.983"/>
  <entry producer="producer50" in="00:00:00.000" out="00:00:04.983"/>
  <entry producer="producer51" in="00:00:00.000" out="00:00:04.983"/>
  <entry producer="producer52" in="00:00:00.000" out="00:00:04.983"/>
  <entry producer="producer53" in="00:00:00.000" out="00:00:05.983"/>
  <entry producer="producer54" in="00:00:00.000" out="00:00:15.667"/>
  <entry producer="producer55" in="00:00:00.000" out="00:00:04.983"/>
  <entry producer="producer56" in="00:00:00.000" out="00:00:06.133"/>
  <entry producer="producer57" in="00:00:00.000" out="00:00:04.983"/>
  <entry producer="producer58" in="00:00:00.000" out="00:00:05.217"/>
  <entry producer="producer59" in="00:00:00.000" out="00:00:04.983"/>
  <entry producer="producer60" in="00:00:00.000" out="00:00:04.983"/>
  <entry producer="producer62" in="00:00:00.000" out="00:00:04.983"/>
  <entry producer="producer63" in="00:00:00.000" out="00:00:04.983"/>
  <entry producer="producer64" in="00:00:00.000" out="00:00:04.983"/>
  <entry producer="producer65" in="00:00:00.000" out="00:00:04.983"/>
  <entry producer="producer66" in="00:00:00.000" out="00:00:04.983"/>
  <entry producer="producer67" in="00:00:00.000" out="00:00:04.983"/>
  <entry producer="producer68" in="00:00:00.000" out="00:00:04.983"/>
  <entry producer="producer69" in="00:00:00.000" out="00:00:08.267"/>
  <entry producer="producer70" in="00:00:00.000" out="00:00:17.317"/>
  <entry producer="producer71" in="00:00:00.000" out="00:00:08.450"/>
  <entry producer="producer72" in="00:00:00.000" out="00:00:04.983"/>
  <entry producer="producer73" in="00:00:00.000" out="00:00:04.983"/>
  <entry producer="producer74" in="00:00:00.000" out="00:00:04.983"/>
  <entry producer="producer76" in="00:00:00.000" out="00:00:04.983"/>
  <entry producer="producer75" in="00:00:00.000" out="00:00:04.983"/>
  <entry producer="producer77" in="00:00:00.000" out="00:00:05.717"/>
  <entry producer="producer78" in="00:00:00.000" out="00:00:13.200"/>
  <entry producer="producer79" in="00:00:00.000" out="00:00:18.900"/>
  <entry producer="producer80" in="00:00:00.000" out="00:00:04.983"/>
  <entry producer="producer81" in="00:00:00.000" out="00:00:05.083"/>
  <entry producer="producer82" in="00:00:00.000" out="00:00:04.983"/>
  <entry producer="producer83" in="00:00:00.000" out="00:00:16.833"/>
  <entry producer="producer84" in="00:00:00.000" out="00:00:16.583"/>
  <entry producer="producer85" in="00:00:00.000" out="00:00:05.700"/>
  <entry producer="producer86" in="00:00:00.000" out="00:00:04.983"/>
  <entry producer="producer87" in="00:00:00.000" out="00:00:10.467"/>
 </playlist>
 <producer id="black_track" in="00:00:00.000" out="00:12:46.900">
  <property name="length">2147483647</property>
  <property name="eof">continue</property>
  <property name="resource">black</property>
  <property name="aspect_ratio">1</property>
  <property name="mlt_service">color</property>
  <property name="mlt_image_format">rgb24a</property>
  <property name="set.test_audio">0</property>
 </producer>
 <playlist id="playlist0">
  <property name="kdenlive:audio_track">1</property>
 </playlist>
 <playlist id="playlist1"/>
 <tractor id="tractor0" in="00:00:00.000">
  <property name="kdenlive:audio_track">1</property>
  <property name="kdenlive:trackheight">67</property>
  <property name="kdenlive:timeline_active">1</property>
  <property name="kdenlive:collapsed">0</property>
  <property name="kdenlive:thumbs_format"/>
  <property name="kdenlive:audio_rec"/>
  <track hide="video" producer="playlist0"/>
  <track hide="video" producer="playlist1"/>
  <filter id="filter0">
   <property name="window">75</property>
   <property name="max_gain">20dB</property>
   <property name="level">-24.2265</property>
   <property name="mlt_service">volume</property>
   <property name="internal_added">237</property>
   <property name="disable">0</property>
  </filter>
  <filter id="filter1">
   <property name="channel">-1</property>
   <property name="mlt_service">panner</property>
   <property name="internal_added">237</property>
   <property name="start">0.5</property>
   <property name="disable">1</property>
  </filter>
  <filter id="filter2">
   <property name="iec_scale">0</property>
   <property name="mlt_service">audiolevel</property>
   <property name="disable">1</property>
  </filter>
 </tractor>
 <producer id="producer88" in="00:00:00.000" out="00:02:54.683">
  <property name="length">10482</property>
  <property name="eof">pause</property>
  <property name="resource">music/Nursery - ZigZag Heart.mp3</property>
  <property name="audio_index">0</property>
  <property name="video_index">-1</property>
  <property name="mute_on_pause">0</property>
  <property name="mlt_service">avformat-novalidate</property>
  <property name="meta.media.nb_streams">1</property>
  <property name="meta.media.0.stream.type">audio</property>
  <property name="meta.media.0.codec.sample_fmt">fltp</property>
  <property name="meta.media.0.codec.sample_rate">44100</property>
  <property name="meta.media.0.codec.channels">2</property>
  <property name="meta.media.0.codec.name">mp3float</property>
  <property name="meta.media.0.codec.long_name">MP3 (MPEG audio layer 3)</property>
  <property name="meta.media.0.codec.bit_rate">128000</property>
  <property name="meta.attr.comment.markup">For track information and licensing visit www.sessions.blue</property>
  <property name="meta.attr.title.markup">ZigZag Heart</property>
  <property name="meta.attr.album.markup">Nursery</property>
  <property name="meta.attr.composer.markup">Galen Huckins</property>
  <property name="meta.attr.artist.markup">Blue Dot Sessions</property>
  <property name="meta.attr.publisher.markup">Blue Dot Studios</property>
  <property name="meta.attr.genre.markup">instrumental</property>
  <property name="meta.attr.TKEY.markup">C</property>
  <property name="meta.attr.TBPM.markup">90</property>
  <property name="meta.attr.TSRC.markup">USHM81825732</property>
  <property name="meta.attr.website.markup">www.sessions.blue</property>
  <property name="meta.attr.copyright.markup">(CCBYNC) 2018 Creative Commons NonCommercial-Attribution</property>
  <property name="meta.attr.date.markup">2018</property>
  <property name="seekable">1</property>
  <property name="kdenlive:clipname"/>
  <property name="kdenlive:folderid">15</property>
  <property name="kdenlive:id">13</property>
  <property name="kdenlive:file_size">2796009</property>
  <property name="kdenlive:file_hash">9a7e1ba96769741a9429da8d689ac9cb</property>
  <property name="kdenlive:audio_max">1</property>
  <property name="global_feed">1</property>
  <property name="xml">was here</property>
  <property name="set.test_audio">0</property>
  <property name="set.test_image">1</property>
 </producer>
 <playlist id="playlist2">
  <property name="kdenlive:audio_track">1</property>
  <entry producer="producer88" in="00:00:00.633" out="00:01:15.050">
   <property name="kdenlive:id">13</property>
  </entry>
  <entry producer="producer88" in="00:01:15.067" out="00:01:46.967">
   <property name="kdenlive:id">13</property>
  </entry>
  <entry producer="producer88" in="00:01:15.067" out="00:01:46.967">
   <property name="kdenlive:id">13</property>
  </entry>
  <entry producer="producer88" in="00:01:15.067" out="00:01:46.967">
   <property name="kdenlive:id">13</property>
  </entry>
  <entry producer="producer88" in="00:01:15.067" out="00:01:46.967">
   <property name="kdenlive:id">13</property>
  </entry>
  <entry producer="producer88" in="00:01:46.983" out="00:02:51.667">
   <property name="kdenlive:id">13</property>
  </entry>
 </playlist>
 <playlist id="playlist3"/>
 <tractor id="tractor1" in="00:00:00.000" out="00:04:26.783">
  <property name="kdenlive:audio_track">1</property>
  <property name="kdenlive:trackheight">67</property>
  <property name="kdenlive:timeline_active">1</property>
  <property name="kdenlive:collapsed">0</property>
  <property name="kdenlive:thumbs_format"/>
  <property name="kdenlive:audio_rec"/>
  <track hide="video" producer="playlist2"/>
  <track hide="video" producer="playlist3"/>
  <filter id="filter4">
   <property name="window">75</property>
   <property name="max_gain">20dB</property>
   <property name="level">-24.2265</property>
   <property name="mlt_service">volume</property>
   <property name="internal_added">237</property>
   <property name="disable">0</property>
  </filter>
  <filter id="filter5">
   <property name="channel">-1</property>
   <property name="mlt_service">panner</property>
   <property name="internal_added">237</property>
   <property name="start">0.5</property>
   <property name="disable">1</property>
  </filter>
  <filter id="filter3">
   <property name="iec_scale">0</property>
   <property name="mlt_service">audiolevel</property>
   <property name="disable">1</property>
  </filter>
 </tractor>
 <producer id="producer89" in="00:00:00.000" out="00:00:08.950">
  <property name="length">538</property>
  <property name="eof">pause</property>
  <property name="resource">audio/v1.wav</property>
  <property name="audio_index">0</property>
  <property name="video_index">-1</property>
  <property name="mute_on_pause">0</property>
  <property name="mlt_service">avformat-novalidate</property>
  <property name="meta.media.nb_streams">1</property>
  <property name="meta.media.0.stream.type">audio</property>
  <property name="meta.media.0.codec.sample_fmt">s16</property>
  <property name="meta.media.0.codec.sample_rate">48000</property>
  <property name="meta.media.0.codec.channels">2</property>
  <property name="meta.media.0.codec.name">pcm_s16le</property>
  <property name="meta.media.0.codec.long_name">PCM signed 16-bit little-endian</property>
  <property name="meta.media.0.codec.bit_rate">1536000</property>
  <property name="seekable">1</property>
  <property name="kdenlive:clipname"/>
  <property name="kdenlive:folderid">89</property>
  <property name="kdenlive:id">38</property>
  <property name="kdenlive:file_size">1722156</property>
  <property name="kdenlive:file_hash">f0700c6a06ead7daa2137605c1d04f1f</property>
  <property name="global_feed">1</property>
  <property name="xml">was here</property>
  <property name="set.test_audio">0</property>
  <property name="set.test_image">1</property>
 </producer>
 <producer id="producer90" in="00:00:00.000" out="00:00:10.833">
  <property name="length">651</property>
  <property name="eof">pause</property>
  <property name="resource">audio/v2.wav</property>
  <property name="audio_index">0</property>
  <property name="video_index">-1</property>
  <property name="mute_on_pause">0</property>
  <property name="mlt_service">avformat-novalidate</property>
  <property name="meta.media.nb_streams">1</property>
  <property name="meta.media.0.stream.type">audio</property>
  <property name="meta.media.0.codec.sample_fmt">s16</property>
  <property name="meta.media.0.codec.sample_rate">48000</property>
  <property name="meta.media.0.codec.channels">2</property>
  <property name="meta.media.0.codec.name">pcm_s16le</property>
  <property name="meta.media.0.codec.long_name">PCM signed 16-bit little-endian</property>
  <property name="meta.media.0.codec.bit_rate">1536000</property>
  <property name="seekable">1</property>
  <property name="kdenlive:clipname"/>
  <property name="kdenlive:folderid">89</property>
  <property name="kdenlive:id">39</property>
  <property name="kdenlive:file_size">2082380</property>
  <property name="kdenlive:file_hash">8558acbf3f66f6b770b819a6ed744857</property>
  <property name="kdenlive:audio_max">7</property>
  <property name="global_feed">1</property>
  <property name="xml">was here</property>
  <property name="set.test_audio">0</property>
  <property name="set.test_image">1</property>
 </producer>
 <producer id="producer91" in="00:00:00.000" out="00:00:10.700">
  <property name="length">643</property>
  <property name="eof">pause</property>
  <property name="resource">audio/t1.wav</property>
  <property name="audio_index">0</property>
  <property name="video_index">-1</property>
  <property name="mute_on_pause">0</property>
  <property name="mlt_service">avformat-novalidate</property>
  <property name="meta.media.nb_streams">1</property>
  <property name="meta.media.0.stream.type">audio</property>
  <property name="meta.media.0.codec.sample_fmt">s16</property>
  <property name="meta.media.0.codec.sample_rate">48000</property>
  <property name="meta.media.0.codec.channels">2</property>
  <property name="meta.media.0.codec.name">pcm_s16le</property>
  <property name="meta.media.0.codec.long_name">PCM signed 16-bit little-endian</property>
  <property name="meta.media.0.codec.bit_rate">1536000</property>
  <property name="seekable">1</property>
  <property name="kdenlive:clipname"/>
  <property name="kdenlive:folderid">89</property>
  <property name="kdenlive:id">23</property>
  <property name="kdenlive:file_size">2058092</property>
  <property name="kdenlive:file_hash">8803537a505e75956c13e3403e0baa76</property>
  <property name="global_feed">1</property>
  <property name="xml">was here</property>
  <property name="set.test_audio">0</property>
  <property name="set.test_image">1</property>
 </producer>
 <producer id="producer92" in="00:00:00.000" out="00:00:09.717">
  <property name="length">584</property>
  <property name="eof">pause</property>
  <property name="resource">audio/d1.wav</property>
  <property name="audio_index">0</property>
  <property name="video_index">-1</property>
  <property name="mute_on_pause">0</property>
  <property name="mlt_service">avformat-novalidate</property>
  <property name="meta.media.nb_streams">1</property>
  <property name="meta.media.0.stream.type">audio</property>
  <property name="meta.media.0.codec.sample_fmt">s16</property>
  <property name="meta.media.0.codec.sample_rate">48000</property>
  <property name="meta.media.0.codec.channels">2</property>
  <property name="meta.media.0.codec.name">pcm_s16le</property>
  <property name="meta.media.0.codec.long_name">PCM signed 16-bit little-endian</property>
  <property name="meta.media.0.codec.bit_rate">1536000</property>
  <property name="seekable">1</property>
  <property name="kdenlive:clipname"/>
  <property name="kdenlive:folderid">89</property>
  <property name="kdenlive:id">16</property>
  <property name="kdenlive:file_size">1867884</property>
  <property name="kdenlive:file_hash">74a7b4bf458bc55c7e7aa5f3bec11104</property>
  <property name="global_feed">1</property>
  <property name="xml">was here</property>
  <property name="set.test_audio">0</property>
  <property name="set.test_image">1</property>
 </producer>
 <producer id="producer93" in="00:00:00.000" out="00:00:16.833">
  <property name="length">1011</property>
  <property name="eof">pause</property>
  <property name="resource">audio/e1--.wav</property>
  <property name="audio_index">0</property>
  <property name="video_index">-1</property>
  <property name="mute_on_pause">0</property>
  <property name="mlt_service">avformat-novalidate</property>
  <property name="meta.media.nb_streams">1</property>
  <property name="meta.media.0.stream.type">audio</property>
  <property name="meta.media.0.codec.sample_fmt">s16</property>
  <property name="meta.media.0.codec.sample_rate">48000</property>
  <property name="meta.media.0.codec.channels">2</property>
  <property name="meta.media.0.codec.name">pcm_s16le</property>
  <property name="meta.media.0.codec.long_name">PCM signed 16-bit little-endian</property>
  <property name="meta.media.0.codec.bit_rate">1536000</property>
  <property name="seekable">1</property>
  <property name="kdenlive:clipname"/>
  <property name="kdenlive:folderid">89</property>
  <property name="kdenlive:id">87</property>
  <property name="kdenlive:file_size">3235916</property>
  <property name="kdenlive:file_hash">20137315e6f599f5128ee75d1b60b18b</property>
  <property name="kdenlive:audio_max">8</property>
  <property name="global_feed">1</property>
  <property name="xml">was here</property>
  <property name="set.test_audio">0</property>
  <property name="set.test_image">1</property>
 </producer>
 <producer id="producer94" in="00:00:00.000" out="00:00:09.467">
  <property name="length">569</property>
  <property name="eof">pause</property>
  <property name="resource">audio/l1.wav</property>
  <property name="audio_index">0</property>
  <property name="video_index">-1</property>
  <property name="mute_on_pause">0</property>
  <property name="mlt_service">avformat-novalidate</property>
  <property name="meta.media.nb_streams">1</property>
  <property name="meta.media.0.stream.type">audio</property>
  <property name="meta.media.0.codec.sample_fmt">s16</property>
  <property name="meta.media.0.codec.sample_rate">48000</property>
  <property name="meta.media.0.codec.channels">2</property>
  <property name="meta.media.0.codec.name">pcm_s16le</property>
  <property name="meta.media.0.codec.long_name">PCM signed 16-bit little-endian</property>
  <property name="meta.media.0.codec.bit_rate">1536000</property>
  <property name="seekable">1</property>
  <property name="kdenlive:clipname"/>
  <property name="kdenlive:folderid">89</property>
  <property name="kdenlive:id">22</property>
  <property name="kdenlive:file_size">1819308</property>
  <property name="kdenlive:file_hash">a513a35efd7fa450eb5e7739b94c2637</property>
  <property name="global_feed">1</property>
  <property name="xml">was here</property>
  <property name="set.test_audio">0</property>
  <property name="set.test_image">1</property>
 </producer>
 <producer id="producer95" in="00:00:00.000" out="00:00:04.950">
  <property name="length">298</property>
  <property name="eof">pause</property>
  <property name="resource">audio/f1.wav</property>
  <property name="audio_index">0</property>
  <property name="video_index">-1</property>
  <property name="mute_on_pause">0</property>
  <property name="mlt_service">avformat-novalidate</property>
  <property name="meta.media.nb_streams">1</property>
  <property name="meta.media.0.stream.type">audio</property>
  <property name="meta.media.0.codec.sample_fmt">s16</property>
  <property name="meta.media.0.codec.sample_rate">48000</property>
  <property name="meta.media.0.codec.channels">2</property>
  <property name="meta.media.0.codec.name">pcm_s16le</property>
  <property name="meta.media.0.codec.long_name">PCM signed 16-bit little-endian</property>
  <property name="meta.media.0.codec.bit_rate">1536000</property>
  <property name="seekable">1</property>
  <property name="kdenlive:clipname"/>
  <property name="kdenlive:folderid">89</property>
  <property name="kdenlive:id">18</property>
  <property name="kdenlive:file_size">955180</property>
  <property name="kdenlive:file_hash">fa5b76592f81d7802de23c1712bed945</property>
  <property name="global_feed">1</property>
  <property name="xml">was here</property>
  <property name="set.test_audio">0</property>
  <property name="set.test_image">1</property>
 </producer>
 <producer id="producer96" in="00:00:00.000" out="00:00:09.717">
  <property name="length">584</property>
  <property name="eof">pause</property>
  <property name="resource">audio/f2.wav</property>
  <property name="audio_index">0</property>
  <property name="video_index">-1</property>
  <property name="mute_on_pause">0</property>
  <property name="mlt_service">avformat-novalidate</property>
  <property name="meta.media.nb_streams">1</property>
  <property name="meta.media.0.stream.type">audio</property>
  <property name="meta.media.0.codec.sample_fmt">s16</property>
  <property name="meta.media.0.codec.sample_rate">48000</property>
  <property name="meta.media.0.codec.channels">2</property>
  <property name="meta.media.0.codec.name">pcm_s16le</property>
  <property name="meta.media.0.codec.long_name">PCM signed 16-bit little-endian</property>
  <property name="meta.media.0.codec.bit_rate">1536000</property>
  <property name="seekable">1</property>
  <property name="kdenlive:clipname"/>
  <property name="kdenlive:folderid">89</property>
  <property name="kdenlive:id">19</property>
  <property name="kdenlive:file_size">1867884</property>
  <property name="kdenlive:file_hash">4620505c2b7ab29f21c290f04438adb6</property>
  <property name="global_feed">1</property>
  <property name="xml">was here</property>
  <property name="set.test_audio">0</property>
  <property name="set.test_image">1</property>
 </producer>
 <producer id="producer97" in="00:00:00.000" out="00:00:05.700">
  <property name="length">343</property>
  <property name="eof">pause</property>
  <property name="resource">audio/f3--.wav</property>
  <property name="audio_index">0</property>
  <property name="video_index">-1</property>
  <property name="mute_on_pause">0</property>
  <property name="mlt_service">avformat-novalidate</property>
  <property name="meta.media.nb_streams">1</property>
  <property name="meta.media.0.stream.type">audio</property>
  <property name="meta.media.0.codec.sample_fmt">s16</property>
  <property name="meta.media.0.codec.sample_rate">48000</property>
  <property name="meta.media.0.codec.channels">2</property>
  <property name="meta.media.0.codec.name">pcm_s16le</property>
  <property name="meta.media.0.codec.long_name">PCM signed 16-bit little-endian</property>
  <property name="meta.media.0.codec.bit_rate">1536000</property>
  <property name="seekable">1</property>
  <property name="kdenlive:clipname"/>
  <property name="kdenlive:folderid">89</property>
  <property name="kdenlive:id">90</property>
  <property name="kdenlive:file_size">1098860</property>
  <property name="kdenlive:file_hash">2c28415bf08aa7b8424f0a8309a5952a</property>
  <property name="kdenlive:audio_max">12</property>
  <property name="global_feed">1</property>
  <property name="xml">was here</property>
  <property name="set.test_audio">0</property>
  <property name="set.test_image">1</property>
 </producer>
 <producer id="producer98" in="00:00:00.000" out="00:00:09.467">
  <property name="length">569</property>
  <property name="eof">pause</property>
  <property name="resource">audio/f4.wav</property>
  <property name="audio_index">0</property>
  <property name="video_index">-1</property>
  <property name="mute_on_pause">0</property>
  <property name="mlt_service">avformat-novalidate</property>
  <property name="meta.media.nb_streams">1</property>
  <property name="meta.media.0.stream.type">audio</property>
  <property name="meta.media.0.codec.sample_fmt">s16</property>
  <property name="meta.media.0.codec.sample_rate">48000</property>
  <property name="meta.media.0.codec.channels">2</property>
  <property name="meta.media.0.codec.name">pcm_s16le</property>
  <property name="meta.media.0.codec.long_name">PCM signed 16-bit little-endian</property>
  <property name="meta.media.0.codec.bit_rate">1536000</property>
  <property name="seekable">1</property>
  <property name="kdenlive:clipname"/>
  <property name="kdenlive:folderid">89</property>
  <property name="kdenlive:id">21</property>
  <property name="kdenlive:file_size">1819308</property>
  <property name="kdenlive:file_hash">259cedba7bb4ea0229929192319491db</property>
  <property name="global_feed">1</property>
  <property name="xml">was here</property>
  <property name="set.test_audio">0</property>
  <property name="set.test_image">1</property>
 </producer>
 <producer id="producer99" in="00:00:00.000" out="00:00:10.467">
  <property name="length">629</property>
  <property name="eof">pause</property>
  <property name="resource">audio/u1-.wav</property>
  <property name="audio_index">0</property>
  <property name="video_index">-1</property>
  <property name="mute_on_pause">0</property>
  <property name="mlt_service">avformat-novalidate</property>
  <property name="meta.media.nb_streams">1</property>
  <property name="meta.media.0.stream.type">audio</property>
  <property name="meta.media.0.codec.sample_fmt">s16</property>
  <property name="meta.media.0.codec.sample_rate">48000</property>
  <property name="meta.media.0.codec.channels">2</property>
  <property name="meta.media.0.codec.name">pcm_s16le</property>
  <property name="meta.media.0.codec.long_name">PCM signed 16-bit little-endian</property>
  <property name="meta.media.0.codec.bit_rate">1536000</property>
  <property name="seekable">1</property>
  <property name="kdenlive:clipname"/>
  <property name="kdenlive:folderid">-1</property>
  <property name="kdenlive:id">92</property>
  <property name="kdenlive:file_size">2011564</property>
  <property name="kdenlive:file_hash">5087e4be6d97123b718f111cb9529927</property>
  <property name="kdenlive:audio_max">10</property>
  <property name="global_feed">1</property>
  <property name="xml">was here</property>
  <property name="set.test_audio">0</property>
  <property name="set.test_image">1</property>
 </producer>
 <producer id="producer100" in="00:00:00.000" out="00:00:09.950">
  <property name="length">598</property>
  <property name="eof">pause</property>
  <property name="resource">audio/u2.wav</property>
  <property name="audio_index">0</property>
  <property name="video_index">-1</property>
  <property name="mute_on_pause">0</property>
  <property name="mlt_service">avformat-novalidate</property>
  <property name="meta.media.nb_streams">1</property>
  <property name="meta.media.0.stream.type">audio</property>
  <property name="meta.media.0.codec.sample_fmt">s16</property>
  <property name="meta.media.0.codec.sample_rate">48000</property>
  <property name="meta.media.0.codec.channels">2</property>
  <property name="meta.media.0.codec.name">pcm_s16le</property>
  <property name="meta.media.0.codec.long_name">PCM signed 16-bit little-endian</property>
  <property name="meta.media.0.codec.bit_rate">1536000</property>
  <property name="seekable">1</property>
  <property name="kdenlive:clipname"/>
  <property name="kdenlive:folderid">89</property>
  <property name="kdenlive:id">29</property>
  <property name="kdenlive:file_size">1914412</property>
  <property name="kdenlive:file_hash">09814654e924688d91016e7f794c1419</property>
  <property name="global_feed">1</property>
  <property name="xml">was here</property>
  <property name="set.test_audio">0</property>
  <property name="set.test_image">1</property>
 </producer>
 <producer id="producer101" in="00:00:00.000" out="00:00:08.950">
  <property name="length">538</property>
  <property name="eof">pause</property>
  <property name="resource">audio/u3.wav</property>
  <property name="audio_index">0</property>
  <property name="video_index">-1</property>
  <property name="mute_on_pause">0</property>
  <property name="mlt_service">avformat-novalidate</property>
  <property name="meta.media.nb_streams">1</property>
  <property name="meta.media.0.stream.type">audio</property>
  <property name="meta.media.0.codec.sample_fmt">s16</property>
  <property name="meta.media.0.codec.sample_rate">48000</property>
  <property name="meta.media.0.codec.channels">2</property>
  <property name="meta.media.0.codec.name">pcm_s16le</property>
  <property name="meta.media.0.codec.long_name">PCM signed 16-bit little-endian</property>
  <property name="meta.media.0.codec.bit_rate">1536000</property>
  <property name="seekable">1</property>
  <property name="kdenlive:clipname"/>
  <property name="kdenlive:folderid">89</property>
  <property name="kdenlive:id">30</property>
  <property name="kdenlive:file_size">1722156</property>
  <property name="kdenlive:file_hash">5d5bfca141700863bdd1424ccab7f4ba</property>
  <property name="global_feed">1</property>
  <property name="xml">was here</property>
  <property name="set.test_audio">0</property>
  <property name="set.test_image">1</property>
 </producer>
 <producer id="producer102" in="00:00:00.000" out="00:00:05.583">
  <property name="length">336</property>
  <property name="eof">pause</property>
  <property name="resource">audio/u4.wav</property>
  <property name="audio_index">0</property>
  <property name="video_index">-1</property>
  <property name="mute_on_pause">0</property>
  <property name="mlt_service">avformat-novalidate</property>
  <property name="meta.media.nb_streams">1</property>
  <property name="meta.media.0.stream.type">audio</property>
  <property name="meta.media.0.codec.sample_fmt">s16</property>
  <property name="meta.media.0.codec.sample_rate">48000</property>
  <property name="meta.media.0.codec.channels">2</property>
  <property name="meta.media.0.codec.name">pcm_s16le</property>
  <property name="meta.media.0.codec.long_name">PCM signed 16-bit little-endian</property>
  <property name="meta.media.0.codec.bit_rate">1536000</property>
  <property name="seekable">1</property>
  <property name="kdenlive:clipname"/>
  <property name="kdenlive:folderid">89</property>
  <property name="kdenlive:id">31</property>
  <property name="kdenlive:file_size">1074572</property>
  <property name="kdenlive:file_hash">3f6da1b2e9d059841c349c894a7843c0</property>
  <property name="global_feed">1</property>
  <property name="xml">was here</property>
  <property name="set.test_audio">0</property>
  <property name="set.test_image">1</property>
 </producer>
 <producer id="producer103" in="00:00:00.000" out="00:00:14.333">
  <property name="length">861</property>
  <property name="eof">pause</property>
  <property name="resource">audio/u5.wav</property>
  <property name="audio_index">0</property>
  <property name="video_index">-1</property>
  <property name="mute_on_pause">0</property>
  <property name="mlt_service">avformat-novalidate</property>
  <property name="meta.media.nb_streams">1</property>
  <property name="meta.media.0.stream.type">audio</property>
  <property name="meta.media.0.codec.sample_fmt">s16</property>
  <property name="meta.media.0.codec.sample_rate">48000</property>
  <property name="meta.media.0.codec.channels">2</property>
  <property name="meta.media.0.codec.name">pcm_s16le</property>
  <property name="meta.media.0.codec.long_name">PCM signed 16-bit little-endian</property>
  <property name="meta.media.0.codec.bit_rate">1536000</property>
  <property name="seekable">1</property>
  <property name="kdenlive:clipname"/>
  <property name="kdenlive:folderid">89</property>
  <property name="kdenlive:id">32</property>
  <property name="kdenlive:file_size">2754252</property>
  <property name="kdenlive:file_hash">a84754a602c3b7faee3ae02d6a0d559f</property>
  <property name="global_feed">1</property>
  <property name="xml">was here</property>
  <property name="set.test_audio">0</property>
  <property name="set.test_image">1</property>
 </producer>
 <producer id="producer104" in="00:00:00.000" out="00:00:11.950">
  <property name="length">718</property>
  <property name="eof">pause</property>
  <property name="resource">audio/u6.wav</property>
  <property name="audio_index">0</property>
  <property name="video_index">-1</property>
  <property name="mute_on_pause">0</property>
  <property name="mlt_service">avformat-novalidate</property>
  <property name="meta.media.nb_streams">1</property>
  <property name="meta.media.0.stream.type">audio</property>
  <property name="meta.media.0.codec.sample_fmt">s16</property>
  <property name="meta.media.0.codec.sample_rate">48000</property>
  <property name="meta.media.0.codec.channels">2</property>
  <property name="meta.media.0.codec.name">pcm_s16le</property>
  <property name="meta.media.0.codec.long_name">PCM signed 16-bit little-endian</property>
  <property name="meta.media.0.codec.bit_rate">1536000</property>
  <property name="seekable">1</property>
  <property name="kdenlive:clipname"/>
  <property name="kdenlive:folderid">89</property>
  <property name="kdenlive:id">33</property>
  <property name="kdenlive:file_size">2298924</property>
  <property name="kdenlive:file_hash">f97eef6c5e647e4a11b79bea243120ca</property>
  <property name="global_feed">1</property>
  <property name="xml">was here</property>
  <property name="set.test_audio">0</property>
  <property name="set.test_image">1</property>
 </producer>
 <producer id="producer105" in="00:00:00.000" out="00:00:10.333">
  <property name="length">621</property>
  <property name="eof">pause</property>
  <property name="resource">audio/u7.wav</property>
  <property name="audio_index">0</property>
  <property name="video_index">-1</property>
  <property name="mute_on_pause">0</property>
  <property name="mlt_service">avformat-novalidate</property>
  <property name="meta.media.nb_streams">1</property>
  <property name="meta.media.0.stream.type">audio</property>
  <property name="meta.media.0.codec.sample_fmt">s16</property>
  <property name="meta.media.0.codec.sample_rate">48000</property>
  <property name="meta.media.0.codec.channels">2</property>
  <property name="meta.media.0.codec.name">pcm_s16le</property>
  <property name="meta.media.0.codec.long_name">PCM signed 16-bit little-endian</property>
  <property name="meta.media.0.codec.bit_rate">1536000</property>
  <property name="seekable">1</property>
  <property name="kdenlive:clipname"/>
  <property name="kdenlive:folderid">89</property>
  <property name="kdenlive:id">34</property>
  <property name="kdenlive:file_size">1987276</property>
  <property name="kdenlive:file_hash">7710ef67c422a68933e1d64d25887ab6</property>
  <property name="global_feed">1</property>
  <property name="xml">was here</property>
  <property name="set.test_audio">0</property>
  <property name="set.test_image">1</property>
 </producer>
 <producer id="producer106" in="00:00:00.000" out="00:00:08.450">
  <property name="length">508</property>
  <property name="eof">pause</property>
  <property name="resource">audio/utmp.wav</property>
  <property name="audio_index">0</property>
  <property name="video_index">-1</property>
  <property name="mute_on_pause">0</property>
  <property name="mlt_service">avformat-novalidate</property>
  <property name="meta.media.nb_streams">1</property>
  <property name="meta.media.0.stream.type">audio</property>
  <property name="meta.media.0.codec.sample_fmt">s16</property>
  <property name="meta.media.0.codec.sample_rate">48000</property>
  <property name="meta.media.0.codec.channels">2</property>
  <property name="meta.media.0.codec.name">pcm_s16le</property>
  <property name="meta.media.0.codec.long_name">PCM signed 16-bit little-endian</property>
  <property name="meta.media.0.codec.bit_rate">1536000</property>
  <property name="seekable">1</property>
  <property name="kdenlive:clipname"/>
  <property name="kdenlive:folderid">-1</property>
  <property name="kdenlive:id">75</property>
  <property name="kdenlive:file_size">1627052</property>
  <property name="kdenlive:file_hash">99d9b04a59eb7b331a8b7b30df345d64</property>
  <property name="kdenlive:audio_max">6</property>
  <property name="global_feed">1</property>
  <property name="xml">was here</property>
  <property name="set.test_audio">0</property>
  <property name="set.test_image">1</property>
 </producer>
 <producer id="producer107" in="00:00:00.000" out="00:00:13.333">
  <property name="length">801</property>
  <property name="eof">pause</property>
  <property name="resource">audio/u8.wav</property>
  <property name="audio_index">0</property>
  <property name="video_index">-1</property>
  <property name="mute_on_pause">0</property>
  <property name="mlt_service">avformat-novalidate</property>
  <property name="meta.media.nb_streams">1</property>
  <property name="meta.media.0.stream.type">audio</property>
  <property name="meta.media.0.codec.sample_fmt">s16</property>
  <property name="meta.media.0.codec.sample_rate">48000</property>
  <property name="meta.media.0.codec.channels">2</property>
  <property name="meta.media.0.codec.name">pcm_s16le</property>
  <property name="meta.media.0.codec.long_name">PCM signed 16-bit little-endian</property>
  <property name="meta.media.0.codec.bit_rate">1536000</property>
  <property name="seekable">1</property>
  <property name="kdenlive:clipname"/>
  <property name="kdenlive:folderid">89</property>
  <property name="kdenlive:id">35</property>
  <property name="kdenlive:file_size">2561996</property>
  <property name="kdenlive:file_hash">203d8e87a2ec4dc586679fbb2757d65e</property>
  <property name="global_feed">1</property>
  <property name="xml">was here</property>
  <property name="set.test_audio">0</property>
  <property name="set.test_image">1</property>
 </producer>
 <producer id="producer108" in="00:00:00.000" out="00:00:10.950">
  <property name="length">658</property>
  <property name="eof">pause</property>
  <property name="resource">audio/u9.wav</property>
  <property name="audio_index">0</property>
  <property name="video_index">-1</property>
  <property name="mute_on_pause">0</property>
  <property name="mlt_service">avformat-novalidate</property>
  <property name="meta.media.nb_streams">1</property>
  <property name="meta.media.0.stream.type">audio</property>
  <property name="meta.media.0.codec.sample_fmt">s16</property>
  <property name="meta.media.0.codec.sample_rate">48000</property>
  <property name="meta.media.0.codec.channels">2</property>
  <property name="meta.media.0.codec.name">pcm_s16le</property>
  <property name="meta.media.0.codec.long_name">PCM signed 16-bit little-endian</property>
  <property name="meta.media.0.codec.bit_rate">1536000</property>
  <property name="seekable">1</property>
  <property name="kdenlive:clipname"/>
  <property name="kdenlive:folderid">89</property>
  <property name="kdenlive:id">36</property>
  <property name="kdenlive:file_size">2106668</property>
  <property name="kdenlive:file_hash">82122ff9876237b10e4fdb5b6d8b3ec0</property>
  <property name="global_feed">1</property>
  <property name="xml">was here</property>
  <property name="set.test_audio">0</property>
  <property name="set.test_image">1</property>
 </producer>
 <producer id="producer109" in="00:00:00.000" out="00:00:08.333">
  <property name="length">501</property>
  <property name="eof">pause</property>
  <property name="resource">audio/u10.wav</property>
  <property name="audio_index">0</property>
  <property name="video_index">-1</property>
  <property name="mute_on_pause">0</property>
  <property name="mlt_service">avformat-novalidate</property>
  <property name="meta.media.nb_streams">1</property>
  <property name="meta.media.0.stream.type">audio</property>
  <property name="meta.media.0.codec.sample_fmt">s16</property>
  <property name="meta.media.0.codec.sample_rate">48000</property>
  <property name="meta.media.0.codec.channels">2</property>
  <property name="meta.media.0.codec.name">pcm_s16le</property>
  <property name="meta.media.0.codec.long_name">PCM signed 16-bit little-endian</property>
  <property name="meta.media.0.codec.bit_rate">1536000</property>
  <property name="seekable">1</property>
  <property name="kdenlive:clipname"/>
  <property name="kdenlive:folderid">89</property>
  <property name="kdenlive:id">26</property>
  <property name="kdenlive:file_size">1602764</property>
  <property name="kdenlive:file_hash">cf34d419008fa07b185840c18b65d7a4</property>
  <property name="global_feed">1</property>
  <property name="xml">was here</property>
  <property name="set.test_audio">0</property>
  <property name="set.test_image">1</property>
 </producer>
 <producer id="producer110" in="00:00:00.000" out="00:00:21.700">
  <property name="length">1303</property>
  <property name="eof">pause</property>
  <property name="resource">audio/u11.wav</property>
  <property name="audio_index">0</property>
  <property name="video_index">-1</property>
  <property name="mute_on_pause">0</property>
  <property name="mlt_service">avformat-novalidate</property>
  <property name="meta.media.nb_streams">1</property>
  <property name="meta.media.0.stream.type">audio</property>
  <property name="meta.media.0.codec.sample_fmt">s16</property>
  <property name="meta.media.0.codec.sample_rate">48000</property>
  <property name="meta.media.0.codec.channels">2</property>
  <property name="meta.media.0.codec.name">pcm_s16le</property>
  <property name="meta.media.0.codec.long_name">PCM signed 16-bit little-endian</property>
  <property name="meta.media.0.codec.bit_rate">1536000</property>
  <property name="seekable">1</property>
  <property name="kdenlive:clipname"/>
  <property name="kdenlive:folderid">89</property>
  <property name="kdenlive:id">27</property>
  <property name="kdenlive:file_size">4170860</property>
  <property name="kdenlive:file_hash">b3eb548043169ba24b2fc70b6639406b</property>
  <property name="global_feed">1</property>
  <property name="xml">was here</property>
  <property name="set.test_audio">0</property>
  <property name="set.test_image">1</property>
 </producer>
 <producer id="producer111" in="00:00:00.000" out="00:00:09.467">
  <property name="length">569</property>
  <property name="eof">pause</property>
  <property name="resource">audio/u12.wav</property>
  <property name="audio_index">0</property>
  <property name="video_index">-1</property>
  <property name="mute_on_pause">0</property>
  <property name="mlt_service">avformat-novalidate</property>
  <property name="meta.media.nb_streams">1</property>
  <property name="meta.media.0.stream.type">audio</property>
  <property name="meta.media.0.codec.sample_fmt">s16</property>
  <property name="meta.media.0.codec.sample_rate">48000</property>
  <property name="meta.media.0.codec.channels">2</property>
  <property name="meta.media.0.codec.name">pcm_s16le</property>
  <property name="meta.media.0.codec.long_name">PCM signed 16-bit little-endian</property>
  <property name="meta.media.0.codec.bit_rate">1536000</property>
  <property name="seekable">1</property>
  <property name="kdenlive:clipname"/>
  <property name="kdenlive:folderid">89</property>
  <property name="kdenlive:id">28</property>
  <property name="kdenlive:file_size">1819308</property>
  <property name="kdenlive:file_hash">db5fd4853d3f62014cd576f85f93f730</property>
  <property name="kdenlive:audio_max">5</property>
  <property name="global_feed">1</property>
  <property name="xml">was here</property>
  <property name="set.test_audio">0</property>
  <property name="set.test_image">1</property>
 </producer>
 <playlist id="playlist4">
  <property name="kdenlive:audio_track">1</property>
  <blank length="00:00:03.300"/>
  <entry producer="producer89" in="00:00:00.983" out="00:00:08.717">
   <property name="kdenlive:id">38</property>
   <filter id="filter7" in="00:00:08.567" out="00:00:08.717">
    <property name="window">75</property>
    <property name="max_gain">20dB</property>
    <property name="mlt_service">volume</property>
    <property name="kdenlive_id">fadeout</property>
    <property name="gain">1</property>
    <property name="end">0</property>
   </filter>
  </entry>
  <blank length="00:00:02.367"/>
  <entry producer="producer90" in="00:00:01.267" out="00:00:10.333">
   <property name="kdenlive:id">39</property>
   <filter id="filter8" in="00:00:01.267" out="00:00:01.550">
    <property name="window">75</property>
    <property name="max_gain">20dB</property>
    <property name="mlt_service">volume</property>
    <property name="kdenlive_id">fadein</property>
    <property name="gain">0</property>
    <property name="end">1</property>
    <property name="kdenlive:collapsed">0</property>
   </filter>
  </entry>
  <blank length="00:00:02.283"/>
  <entry producer="producer91" in="00:00:00.667" out="00:00:10.700">
   <property name="kdenlive:id">23</property>
  </entry>
  <blank length="00:00:00.917"/>
  <entry producer="producer92" in="00:00:01.117" out="00:00:09.717">
   <property name="kdenlive:id">16</property>
  </entry>
  <blank length="00:00:01.333"/>
  <entry producer="producer93" in="00:00:01.283" out="00:00:16.833">
   <property name="kdenlive:id">87</property>
  </entry>
  <blank length="00:00:01.217"/>
  <entry producer="producer94" in="00:00:01.167" out="00:00:09.467">
   <property name="kdenlive:id">22</property>
  </entry>
  <blank length="00:00:01.683"/>
  <entry producer="producer95" in="00:00:00.750" out="00:00:04.950">
   <property name="kdenlive:id">18</property>
  </entry>
  <blank length="00:00:00.483"/>
  <entry producer="producer96" in="00:00:01.050" out="00:00:09.717">
   <property name="kdenlive:id">19</property>
  </entry>
  <blank length="00:00:00.517"/>
  <entry producer="producer97" in="00:00:01.033" out="00:00:05.650">
   <property name="kdenlive:id">90</property>
  </entry>
  <blank length="00:00:00.533"/>
  <entry producer="producer98" in="00:00:00.933" out="00:00:09.467">
   <property name="kdenlive:id">21</property>
  </entry>
  <blank length="00:00:02.067"/>
  <entry producer="producer99" in="00:00:01.300" out="00:00:10.133">
   <property name="kdenlive:id">92</property>
  </entry>
  <blank length="00:00:00.583"/>
  <entry producer="producer100" in="00:00:00.617" out="00:00:09.617">
   <property name="kdenlive:id">29</property>
  </entry>
  <blank length="00:00:00.800"/>
  <entry producer="producer101" in="00:00:00.467" out="00:00:08.950">
   <property name="kdenlive:id">30</property>
  </entry>
  <blank length="00:00:00.700"/>
  <entry producer="producer102" in="00:00:00.700" out="00:00:05.583">
   <property name="kdenlive:id">31</property>
  </entry>
  <blank length="00:00:00.617"/>
  <entry producer="producer103" in="00:00:00.617" out="00:00:09.867">
   <property name="kdenlive:id">32</property>
  </entry>
  <entry producer="producer103" in="00:00:09.883" out="00:00:14.333">
   <property name="kdenlive:id">32</property>
  </entry>
  <blank length="00:00:01.333"/>
  <entry producer="producer104" in="00:00:00.983" out="00:00:11.950">
   <property name="kdenlive:id">33</property>
  </entry>
  <blank length="00:00:01.083"/>
  <entry producer="producer105" in="00:00:01.083" out="00:00:10.083">
   <property name="kdenlive:id">34</property>
  </entry>
  <blank length="00:00:00.900"/>
  <entry producer="producer106" in="00:00:01.650" out="00:00:07.783">
   <property name="kdenlive:id">75</property>
  </entry>
  <blank length="00:00:01.317"/>
  <entry producer="producer107" in="00:00:01.950" out="00:00:13.333">
   <property name="kdenlive:id">35</property>
  </entry>
  <blank length="00:00:03.417"/>
  <entry producer="producer108" in="00:00:00.700" out="00:00:03.983">
   <property name="kdenlive:id">36</property>
  </entry>
  <blank length="00:00:00.833"/>
  <entry producer="producer108" in="00:00:04.000" out="00:00:10.950">
   <property name="kdenlive:id">36</property>
  </entry>
  <blank length="00:00:03.150"/>
  <entry producer="producer109" in="00:00:01.433" out="00:00:08.333">
   <property name="kdenlive:id">26</property>
  </entry>
  <blank length="00:00:00.683"/>
  <entry producer="producer110" in="00:00:00.650" out="00:00:21.700">
   <property name="kdenlive:id">27</property>
  </entry>
  <blank length="00:00:01.417"/>
  <entry producer="producer111" in="00:00:00.450" out="00:00:09.467">
   <property name="kdenlive:id">28</property>
  </entry>
 </playlist>
 <playlist id="playlist5"/>
 <tractor id="tractor2" in="00:00:00.000" out="00:04:08.817">
  <property name="kdenlive:audio_track">1</property>
  <property name="kdenlive:trackheight">67</property>
  <property name="kdenlive:timeline_active">1</property>
  <property name="kdenlive:collapsed">0</property>
  <property name="kdenlive:thumbs_format"/>
  <property name="kdenlive:audio_rec"/>
  <track hide="video" producer="playlist4"/>
  <track hide="video" producer="playlist5"/>
  <filter id="filter9">
   <property name="window">75</property>
   <property name="max_gain">20dB</property>
   <property name="level">-2.62709</property>
   <property name="mlt_service">volume</property>
   <property name="internal_added">237</property>
   <property name="disable">0</property>
  </filter>
  <filter id="filter10">
   <property name="channel">-1</property>
   <property name="mlt_service">panner</property>
   <property name="internal_added">237</property>
   <property name="start">0.5</property>
   <property name="disable">1</property>
  </filter>
  <filter id="filter6">
   <property name="iec_scale">0</property>
   <property name="mlt_service">audiolevel</property>
   <property name="disable">1</property>
  </filter>
 </tractor>
 <producer id="producer112" in="00:00:00.000" out="00:00:07.983">
  <property name="length">480</property>
  <property name="eof">pause</property>
  <property name="resource">video/BeforeIntro.mp4</property>
  <property name="audio_index">-1</property>
  <property name="video_index">0</property>
  <property name="mute_on_pause">0</property>
  <property name="mlt_service">avformat-novalidate</property>
  <property name="seekable">1</property>
  <property name="aspect_ratio">1</property>
  <property name="kdenlive:clipname"/>
  <property name="kdenlive:folderid">50</property>
  <property name="kdenlive:id">41</property>
  <property name="kdenlive:file_size">594492</property>
  <property name="kdenlive:file_hash">136dde9899226875acfe64115af79f09</property>
  <property name="global_feed">1</property>
  <property name="xml">was here</property>
  <property name="meta.media.nb_streams">1</property>
  <property name="meta.media.0.stream.type">video</property>
  <property name="meta.media.0.stream.frame_rate">60</property>
  <property name="meta.media.0.stream.sample_aspect_ratio">0</property>
  <property name="meta.media.0.codec.width">1920</property>
  <property name="meta.media.0.codec.height">1080</property>
  <property name="meta.media.0.codec.rotate">0</property>
  <property name="meta.media.0.codec.frame_rate">60</property>
  <property name="meta.media.0.codec.pix_fmt">yuv420p</property>
  <property name="meta.media.0.codec.sample_aspect_ratio">0</property>
  <property name="meta.media.0.codec.colorspace">709</property>
  <property name="meta.media.0.codec.name">h264</property>
  <property name="meta.media.0.codec.long_name">H.264 / AVC / MPEG-4 AVC / MPEG-4 part 10</property>
  <property name="meta.media.0.codec.bit_rate">588180</property>
  <property name="meta.attr.0.stream.handler_name.markup">VideoHandler</property>
  <property name="meta.attr.major_brand.markup">isom</property>
  <property name="meta.attr.minor_version.markup">512</property>
  <property name="meta.attr.compatible_brands.markup">isomiso2avc1mp41</property>
  <property name="meta.attr.encoder.markup">Lavf58.45.100</property>
  <property name="meta.attr.comment.markup">Rendered with Manim Community v0.5.0</property>
  <property name="meta.media.sample_aspect_num">1</property>
  <property name="meta.media.sample_aspect_den">1</property>
  <property name="meta.media.frame_rate_num">60</property>
  <property name="meta.media.frame_rate_den">1</property>
  <property name="meta.media.colorspace">709</property>
  <property name="meta.media.color_trc">2</property>
  <property name="meta.media.width">1920</property>
  <property name="meta.media.height">1080</property>
  <property name="meta.media.color_range">mpeg</property>
  <property name="meta.media.top_field_first">0</property>
  <property name="meta.media.progressive">1</property>
  <property name="set.test_audio">1</property>
  <property name="set.test_image">0</property>
 </producer>
 <playlist id="playlist6">
  <blank length="00:00:03.300"/>
  <entry producer="producer112" in="00:00:00.000" out="00:00:02.833">
   <property name="kdenlive:id">41</property>
  </entry>
  <blank length="00:00:05.133"/>
  <entry producer="producer112" in="00:00:02.850" out="00:00:06.917">
   <property name="kdenlive:id">41</property>
  </entry>
 </playlist>
 <playlist id="playlist7"/>
 <tractor id="tractor3" in="00:00:00.000" out="00:00:15.350">
  <property name="kdenlive:trackheight">67</property>
  <property name="kdenlive:timeline_active">1</property>
  <property name="kdenlive:collapsed">0</property>
  <property name="kdenlive:thumbs_format"/>
  <property name="kdenlive:audio_rec"/>
  <track hide="audio" producer="playlist6"/>
  <track producer="playlist7"/>
 </tractor>
 <producer id="producer113" in="00:00:00.000" out="00:00:03.283">
  <property name="length">198</property>
  <property name="eof">pause</property>
  <property name="resource">video/Logo.mp4</property>
  <property name="audio_index">-1</property>
  <property name="video_index">0</property>
  <property name="mute_on_pause">0</property>
  <property name="mlt_service">avformat-novalidate</property>
  <property name="seekable">1</property>
  <property name="aspect_ratio">1</property>
  <property name="kdenlive:clipname"/>
  <property name="kdenlive:folderid">50</property>
  <property name="kdenlive:id">46</property>
  <property name="kdenlive:file_size">99482</property>
  <property name="kdenlive:file_hash">23e0be3836b958c2f8d59c16164a30f4</property>
  <property name="global_feed">1</property>
  <property name="xml">was here</property>
  <property name="meta.media.nb_streams">1</property>
  <property name="meta.media.0.stream.type">video</property>
  <property name="meta.media.0.stream.frame_rate">60</property>
  <property name="meta.media.0.stream.sample_aspect_ratio">0</property>
  <property name="meta.media.0.codec.width">1920</property>
  <property name="meta.media.0.codec.height">1080</property>
  <property name="meta.media.0.codec.rotate">0</property>
  <property name="meta.media.0.codec.frame_rate">60</property>
  <property name="meta.media.0.codec.pix_fmt">yuv420p</property>
  <property name="meta.media.0.codec.sample_aspect_ratio">0</property>
  <property name="meta.media.0.codec.colorspace">709</property>
  <property name="meta.media.0.codec.name">h264</property>
  <property name="meta.media.0.codec.long_name">H.264 / AVC / MPEG-4 AVC / MPEG-4 part 10</property>
  <property name="meta.media.0.codec.bit_rate">233672</property>
  <property name="meta.attr.0.stream.handler_name.markup">VideoHandler</property>
  <property name="meta.attr.major_brand.markup">isom</property>
  <property name="meta.attr.minor_version.markup">512</property>
  <property name="meta.attr.compatible_brands.markup">isomiso2avc1mp41</property>
  <property name="meta.attr.encoder.markup">Lavf58.45.100</property>
  <property name="meta.attr.comment.markup">Rendered with Manim Community v0.5.0</property>
  <property name="meta.media.sample_aspect_num">1</property>
  <property name="meta.media.sample_aspect_den">1</property>
  <property name="meta.media.frame_rate_num">60</property>
  <property name="meta.media.frame_rate_den">1</property>
  <property name="meta.media.colorspace">709</property>
  <property name="meta.media.color_trc">2</property>
  <property name="meta.media.width">1920</property>
  <property name="meta.media.height">1080</property>
  <property name="meta.media.color_range">mpeg</property>
  <property name="meta.media.top_field_first">0</property>
  <property name="meta.media.progressive">1</property>
  <property name="set.test_audio">1</property>
  <property name="set.test_image">0</property>
 </producer>
 <producer id="producer114" in="00:00:00.000" out="00:00:07.983">
  <property name="length">480</property>
  <property name="eof">pause</property>
  <property name="resource">video/BeforeIntro.mp4</property>
  <property name="audio_index">-1</property>
  <property name="video_index">0</property>
  <property name="mute_on_pause">0</property>
  <property name="mlt_service">avformat-novalidate</property>
  <property name="seekable">1</property>
  <property name="aspect_ratio">1</property>
  <property name="kdenlive:clipname"/>
  <property name="kdenlive:folderid">50</property>
  <property name="kdenlive:id">41</property>
  <property name="kdenlive:file_size">594492</property>
  <property name="kdenlive:file_hash">136dde9899226875acfe64115af79f09</property>
  <property name="global_feed">1</property>
  <property name="xml">was here</property>
  <property name="meta.media.nb_streams">1</property>
  <property name="meta.media.0.stream.type">video</property>
  <property name="meta.media.0.stream.frame_rate">60</property>
  <property name="meta.media.0.stream.sample_aspect_ratio">0</property>
  <property name="meta.media.0.codec.width">1920</property>
  <property name="meta.media.0.codec.height">1080</property>
  <property name="meta.media.0.codec.rotate">0</property>
  <property name="meta.media.0.codec.frame_rate">60</property>
  <property name="meta.media.0.codec.pix_fmt">yuv420p</property>
  <property name="meta.media.0.codec.sample_aspect_ratio">0</property>
  <property name="meta.media.0.codec.colorspace">709</property>
  <property name="meta.media.0.codec.name">h264</property>
  <property name="meta.media.0.codec.long_name">H.264 / AVC / MPEG-4 AVC / MPEG-4 part 10</property>
  <property name="meta.media.0.codec.bit_rate">588180</property>
  <property name="meta.attr.0.stream.handler_name.markup">VideoHandler</property>
  <property name="meta.attr.major_brand.markup">isom</property>
  <property name="meta.attr.minor_version.markup">512</property>
  <property name="meta.attr.compatible_brands.markup">isomiso2avc1mp41</property>
  <property name="meta.attr.encoder.markup">Lavf58.45.100</property>
  <property name="meta.attr.comment.markup">Rendered with Manim Community v0.5.0</property>
  <property name="meta.media.sample_aspect_num">1</property>
  <property name="meta.media.sample_aspect_den">1</property>
  <property name="meta.media.frame_rate_num">60</property>
  <property name="meta.media.frame_rate_den">1</property>
  <property name="meta.media.colorspace">709</property>
  <property name="meta.media.color_trc">2</property>
  <property name="meta.media.width">1920</property>
  <property name="meta.media.height">1080</property>
  <property name="meta.media.color_range">mpeg</property>
  <property name="meta.media.top_field_first">0</property>
  <property name="meta.media.progressive">1</property>
  <property name="set.test_audio">1</property>
  <property name="set.test_image">0</property>
 </producer>
 <producer id="producer115" in="00:00:00.000" out="00:00:07.983">
  <property name="length">480</property>
  <property name="eof">pause</property>
  <property name="resource">video/Intro.mp4</property>
  <property name="audio_index">-1</property>
  <property name="video_index">0</property>
  <property name="mute_on_pause">0</property>
  <property name="mlt_service">avformat-novalidate</property>
  <property name="seekable">1</property>
  <property name="aspect_ratio">1</property>
  <property name="kdenlive:clipname"/>
  <property name="kdenlive:folderid">50</property>
  <property name="kdenlive:id">45</property>
  <property name="kdenlive:file_size">434627</property>
  <property name="kdenlive:file_hash">4d1f6660cd924b8935a5741844a0536f</property>
  <property name="global_feed">1</property>
  <property name="xml">was here</property>
  <property name="meta.media.nb_streams">1</property>
  <property name="meta.media.0.stream.type">video</property>
  <property name="meta.media.0.stream.frame_rate">60</property>
  <property name="meta.media.0.stream.sample_aspect_ratio">0</property>
  <property name="meta.media.0.codec.width">1920</property>
  <property name="meta.media.0.codec.height">1080</property>
  <property name="meta.media.0.codec.rotate">0</property>
  <property name="meta.media.0.codec.frame_rate">60</property>
  <property name="meta.media.0.codec.pix_fmt">yuv420p</property>
  <property name="meta.media.0.codec.sample_aspect_ratio">0</property>
  <property name="meta.media.0.codec.colorspace">709</property>
  <property name="meta.media.0.codec.name">h264</property>
  <property name="meta.media.0.codec.long_name">H.264 / AVC / MPEG-4 AVC / MPEG-4 part 10</property>
  <property name="meta.media.0.codec.bit_rate">428067</property>
  <property name="meta.attr.0.stream.handler_name.markup">VideoHandler</property>
  <property name="meta.attr.major_brand.markup">isom</property>
  <property name="meta.attr.minor_version.markup">512</property>
  <property name="meta.attr.compatible_brands.markup">isomiso2avc1mp41</property>
  <property name="meta.attr.encoder.markup">Lavf58.45.100</property>
  <property name="meta.attr.comment.markup">Rendered with Manim Community v0.5.0</property>
  <property name="meta.media.sample_aspect_num">1</property>
  <property name="meta.media.sample_aspect_den">1</property>
  <property name="meta.media.frame_rate_num">60</property>
  <property name="meta.media.frame_rate_den">1</property>
  <property name="meta.media.colorspace">709</property>
  <property name="meta.media.color_trc">2</property>
  <property name="meta.media.width">1920</property>
  <property name="meta.media.height">1080</property>
  <property name="meta.media.color_range">mpeg</property>
  <property name="meta.media.top_field_first">0</property>
  <property name="meta.media.progressive">1</property>
  <property name="set.test_audio">1</property>
  <property name="set.test_image">0</property>
 </producer>
 <producer id="producer116" in="00:00:00.000" out="00:00:06.983">
  <property name="length">420</property>
  <property name="eof">pause</property>
  <property name="resource">video/Degree.mp4</property>
  <property name="audio_index">-1</property>
  <property name="video_index">0</property>
  <property name="mute_on_pause">0</property>
  <property name="mlt_service">avformat-novalidate</property>
  <property name="seekable">1</property>
  <property name="aspect_ratio">1</property>
  <property name="kdenlive:clipname"/>
  <property name="kdenlive:folderid">50</property>
  <property name="kdenlive:id">42</property>
  <property name="kdenlive:file_size">199421</property>
  <property name="kdenlive:file_hash">b815ba3f6abac8d3b475eb133bea2548</property>
  <property name="global_feed">1</property>
  <property name="xml">was here</property>
  <property name="meta.media.nb_streams">1</property>
  <property name="meta.media.0.stream.type">video</property>
  <property name="meta.media.0.stream.frame_rate">60</property>
  <property name="meta.media.0.stream.sample_aspect_ratio">0</property>
  <property name="meta.media.0.codec.width">1920</property>
  <property name="meta.media.0.codec.height">1080</property>
  <property name="meta.media.0.codec.rotate">0</property>
  <property name="meta.media.0.codec.frame_rate">60</property>
  <property name="meta.media.0.codec.pix_fmt">yuv420p</property>
  <property name="meta.media.0.codec.sample_aspect_ratio">0</property>
  <property name="meta.media.0.codec.colorspace">709</property>
  <property name="meta.media.0.codec.name">h264</property>
  <property name="meta.media.0.codec.long_name">H.264 / AVC / MPEG-4 AVC / MPEG-4 part 10</property>
  <property name="meta.media.0.codec.bit_rate">221281</property>
  <property name="meta.attr.0.stream.handler_name.markup">VideoHandler</property>
  <property name="meta.attr.major_brand.markup">isom</property>
  <property name="meta.attr.minor_version.markup">512</property>
  <property name="meta.attr.compatible_brands.markup">isomiso2avc1mp41</property>
  <property name="meta.attr.encoder.markup">Lavf58.45.100</property>
  <property name="meta.attr.comment.markup">Rendered with Manim Community v0.5.0</property>
  <property name="meta.media.sample_aspect_num">1</property>
  <property name="meta.media.sample_aspect_den">1</property>
  <property name="meta.media.frame_rate_num">60</property>
  <property name="meta.media.frame_rate_den">1</property>
  <property name="meta.media.colorspace">709</property>
  <property name="meta.media.color_trc">2</property>
  <property name="meta.media.width">1920</property>
  <property name="meta.media.height">1080</property>
  <property name="meta.media.color_range">mpeg</property>
  <property name="meta.media.top_field_first">0</property>
  <property name="meta.media.progressive">1</property>
  <property name="set.test_audio">1</property>
  <property name="set.test_image">0</property>
 </producer>
 <producer id="producer117" in="00:00:00.000" out="00:00:09.983">
  <property name="length">600</property>
  <property name="eof">pause</property>
  <property name="resource">video/Example.mp4</property>
  <property name="audio_index">-1</property>
  <property name="video_index">0</property>
  <property name="mute_on_pause">0</property>
  <property name="mlt_service">avformat-novalidate</property>
  <property name="seekable">1</property>
  <property name="aspect_ratio">1</property>
  <property name="kdenlive:clipname"/>
  <property name="kdenlive:folderid">50</property>
  <property name="kdenlive:id">43</property>
  <property name="kdenlive:file_size">320236</property>
  <property name="kdenlive:file_hash">98507500c390c29a6f4edf618d1ee827</property>
  <property name="global_feed">1</property>
  <property name="xml">was here</property>
  <property name="meta.media.nb_streams">1</property>
  <property name="meta.media.0.stream.type">video</property>
  <property name="meta.media.0.stream.frame_rate">60</property>
  <property name="meta.media.0.stream.sample_aspect_ratio">0</property>
  <property name="meta.media.0.codec.width">1920</property>
  <property name="meta.media.0.codec.height">1080</property>
  <property name="meta.media.0.codec.rotate">0</property>
  <property name="meta.media.0.codec.frame_rate">60</property>
  <property name="meta.media.0.codec.pix_fmt">yuv420p</property>
  <property name="meta.media.0.codec.sample_aspect_ratio">0</property>
  <property name="meta.media.0.codec.colorspace">709</property>
  <property name="meta.media.0.codec.name">h264</property>
  <property name="meta.media.0.codec.long_name">H.264 / AVC / MPEG-4 AVC / MPEG-4 part 10</property>
  <property name="meta.media.0.codec.bit_rate">249776</property>
  <property name="meta.attr.0.stream.handler_name.markup">VideoHandler</property>
  <property name="meta.attr.major_brand.markup">isom</property>
  <property name="meta.attr.minor_version.markup">512</property>
  <property name="meta.attr.compatible_brands.markup">isomiso2avc1mp41</property>
  <property name="meta.attr.encoder.markup">Lavf58.45.100</property>
  <property name="meta.attr.comment.markup">Rendered with Manim Community v0.5.0</property>
  <property name="meta.media.sample_aspect_num">1</property>
  <property name="meta.media.sample_aspect_den">1</property>
  <property name="meta.media.frame_rate_num">60</property>
  <property name="meta.media.frame_rate_den">1</property>
  <property name="meta.media.colorspace">709</property>
  <property name="meta.media.color_trc">2</property>
  <property name="meta.media.width">1920</property>
  <property name="meta.media.height">1080</property>
  <property name="meta.media.color_range">mpeg</property>
  <property name="set.test_audio">1</property>
  <property name="set.test_image">0</property>
  <property name="meta.media.top_field_first">0</property>
  <property name="meta.media.progressive">1</property>
 </producer>
 <producer id="producer118" in="00:00:00.000" out="00:00:06.983">
  <property name="length">420</property>
  <property name="eof">pause</property>
  <property name="resource">video/LowerBound.mp4</property>
  <property name="audio_index">-1</property>
  <property name="video_index">0</property>
  <property name="mute_on_pause">0</property>
  <property name="mlt_service">avformat-novalidate</property>
  <property name="seekable">1</property>
  <property name="aspect_ratio">1</property>
  <property name="kdenlive:clipname"/>
  <property name="kdenlive:folderid">50</property>
  <property name="kdenlive:id">47</property>
  <property name="kdenlive:file_size">218523</property>
  <property name="kdenlive:file_hash">8b7f8262afcce95da7ee4bf6b5c582a2</property>
  <property name="global_feed">1</property>
  <property name="xml">was here</property>
  <property name="meta.media.nb_streams">1</property>
  <property name="meta.media.0.stream.type">video</property>
  <property name="meta.media.0.stream.frame_rate">60</property>
  <property name="meta.media.0.stream.sample_aspect_ratio">0</property>
  <property name="meta.media.0.codec.width">1920</property>
  <property name="meta.media.0.codec.height">1080</property>
  <property name="meta.media.0.codec.rotate">0</property>
  <property name="meta.media.0.codec.frame_rate">60</property>
  <property name="meta.media.0.codec.pix_fmt">yuv420p</property>
  <property name="meta.media.0.codec.sample_aspect_ratio">0</property>
  <property name="meta.media.0.codec.colorspace">709</property>
  <property name="meta.media.0.codec.name">h264</property>
  <property name="meta.media.0.codec.long_name">H.264 / AVC / MPEG-4 AVC / MPEG-4 part 10</property>
  <property name="meta.media.0.codec.bit_rate">243098</property>
  <property name="meta.attr.0.stream.handler_name.markup">VideoHandler</property>
  <property name="meta.attr.major_brand.markup">isom</property>
  <property name="meta.attr.minor_version.markup">512</property>
  <property name="meta.attr.compatible_brands.markup">isomiso2avc1mp41</property>
  <property name="meta.attr.encoder.markup">Lavf58.45.100</property>
  <property name="meta.attr.comment.markup">Rendered with Manim Community v0.5.0</property>
  <property name="meta.media.sample_aspect_num">1</property>
  <property name="meta.media.sample_aspect_den">1</property>
  <property name="meta.media.frame_rate_num">60</property>
  <property name="meta.media.frame_rate_den">1</property>
  <property name="meta.media.colorspace">709</property>
  <property name="meta.media.color_trc">2</property>
  <property name="meta.media.width">1920</property>
  <property name="meta.media.height">1080</property>
  <property name="meta.media.color_range">mpeg</property>
  <property name="meta.media.top_field_first">0</property>
  <property name="meta.media.progressive">1</property>
  <property name="set.test_audio">1</property>
  <property name="set.test_image">0</property>
 </producer>
 <producer id="producer119" in="00:00:00.000" out="00:00:07.983">
  <property name="length">480</property>
  <property name="eof">pause</property>
  <property name="resource">video/FreeColor.mp4</property>
  <property name="audio_index">-1</property>
  <property name="video_index">0</property>
  <property name="mute_on_pause">0</property>
  <property name="mlt_service">avformat-novalidate</property>
  <property name="seekable">1</property>
  <property name="aspect_ratio">1</property>
  <property name="kdenlive:clipname"/>
  <property name="kdenlive:folderid">50</property>
  <property name="kdenlive:id">44</property>
  <property name="kdenlive:file_size">253910</property>
  <property name="kdenlive:file_hash">43c1f57f8d1c2d6d11676f89d6f2084c</property>
  <property name="global_feed">1</property>
  <property name="xml">was here</property>
  <property name="meta.media.nb_streams">1</property>
  <property name="meta.media.0.stream.type">video</property>
  <property name="meta.media.0.stream.frame_rate">60</property>
  <property name="meta.media.0.stream.sample_aspect_ratio">0</property>
  <property name="meta.media.0.codec.width">1920</property>
  <property name="meta.media.0.codec.height">1080</property>
  <property name="meta.media.0.codec.rotate">0</property>
  <property name="meta.media.0.codec.frame_rate">60</property>
  <property name="meta.media.0.codec.pix_fmt">yuv420p</property>
  <property name="meta.media.0.codec.sample_aspect_ratio">0</property>
  <property name="meta.media.0.codec.colorspace">709</property>
  <property name="meta.media.0.codec.name">h264</property>
  <property name="meta.media.0.codec.long_name">H.264 / AVC / MPEG-4 AVC / MPEG-4 part 10</property>
  <property name="meta.media.0.codec.bit_rate">247370</property>
  <property name="meta.attr.0.stream.handler_name.markup">VideoHandler</property>
  <property name="meta.attr.major_brand.markup">isom</property>
  <property name="meta.attr.minor_version.markup">512</property>
  <property name="meta.attr.compatible_brands.markup">isomiso2avc1mp41</property>
  <property name="meta.attr.encoder.markup">Lavf58.45.100</property>
  <property name="meta.attr.comment.markup">Rendered with Manim Community v0.5.0</property>
  <property name="meta.media.sample_aspect_num">1</property>
  <property name="meta.media.sample_aspect_den">1</property>
  <property name="meta.media.frame_rate_num">60</property>
  <property name="meta.media.frame_rate_den">1</property>
  <property name="meta.media.colorspace">709</property>
  <property name="meta.media.color_trc">2</property>
  <property name="meta.media.width">1920</property>
  <property name="meta.media.height">1080</property>
  <property name="meta.media.color_range">mpeg</property>
  <property name="meta.media.top_field_first">0</property>
  <property name="meta.media.progressive">1</property>
  <property name="set.test_audio">1</property>
  <property name="set.test_image">0</property>
 </producer>
 <producer id="producer120" in="00:00:00.000" out="00:00:37.983">
  <property name="length">2280</property>
  <property name="eof">pause</property>
  <property name="resource">video/UpperBound.mp4</property>
  <property name="audio_index">-1</property>
  <property name="video_index">0</property>
  <property name="mute_on_pause">0</property>
  <property name="mlt_service">avformat-novalidate</property>
  <property name="seekable">1</property>
  <property name="aspect_ratio">1</property>
  <property name="kdenlive:clipname"/>
  <property name="kdenlive:folderid">50</property>
  <property name="kdenlive:id">49</property>
  <property name="kdenlive:file_size">1417383</property>
  <property name="kdenlive:file_hash">ea7674c47ae2463b205939bafca140c0</property>
  <property name="global_feed">1</property>
  <property name="xml">was here</property>
  <property name="meta.media.nb_streams">1</property>
  <property name="meta.media.0.stream.type">video</property>
  <property name="meta.media.0.stream.frame_rate">60</property>
  <property name="meta.media.0.stream.sample_aspect_ratio">0</property>
  <property name="meta.media.0.codec.width">1920</property>
  <property name="meta.media.0.codec.height">1080</property>
  <property name="meta.media.0.codec.rotate">0</property>
  <property name="meta.media.0.codec.frame_rate">60</property>
  <property name="meta.media.0.codec.pix_fmt">yuv420p</property>
  <property name="meta.media.0.codec.sample_aspect_ratio">0</property>
  <property name="meta.media.0.codec.colorspace">709</property>
  <property name="meta.media.0.codec.name">h264</property>
  <property name="meta.media.0.codec.long_name">H.264 / AVC / MPEG-4 AVC / MPEG-4 part 10</property>
  <property name="meta.media.0.codec.bit_rate">292493</property>
  <property name="meta.attr.0.stream.handler_name.markup">VideoHandler</property>
  <property name="meta.attr.major_brand.markup">isom</property>
  <property name="meta.attr.minor_version.markup">512</property>
  <property name="meta.attr.compatible_brands.markup">isomiso2avc1mp41</property>
  <property name="meta.attr.encoder.markup">Lavf58.45.100</property>
  <property name="meta.attr.comment.markup">Rendered with Manim Community v0.5.0</property>
  <property name="meta.media.sample_aspect_num">1</property>
  <property name="meta.media.sample_aspect_den">1</property>
  <property name="meta.media.frame_rate_num">60</property>
  <property name="meta.media.frame_rate_den">1</property>
  <property name="meta.media.colorspace">709</property>
  <property name="meta.media.color_trc">2</property>
  <property name="meta.media.width">1920</property>
  <property name="meta.media.height">1080</property>
  <property name="meta.media.color_range">mpeg</property>
  <property name="set.test_audio">1</property>
  <property name="set.test_image">0</property>
  <property name="meta.media.top_field_first">0</property>
  <property name="meta.media.progressive">1</property>
 </producer>
 <producer id="producer121" in="00:00:00.000" out="00:00:14.983">
  <property name="length">900</property>
  <property name="eof">pause</property>
  <property name="resource">video/Outro.mp4</property>
  <property name="audio_index">-1</property>
  <property name="video_index">0</property>
  <property name="mute_on_pause">0</property>
  <property name="mlt_service">avformat-novalidate</property>
  <property name="seekable">1</property>
  <property name="aspect_ratio">1</property>
  <property name="kdenlive:clipname"/>
  <property name="kdenlive:folderid">50</property>
  <property name="kdenlive:id">48</property>
  <property name="kdenlive:file_size">2986293</property>
  <property name="kdenlive:file_hash">b338e81e4cb94e0af497110d25e7f460</property>
  <property name="global_feed">1</property>
  <property name="xml">was here</property>
  <property name="meta.media.nb_streams">1</property>
  <property name="meta.media.0.stream.type">video</property>
  <property name="meta.media.0.stream.frame_rate">60</property>
  <property name="meta.media.0.stream.sample_aspect_ratio">0</property>
  <property name="meta.media.0.codec.width">1920</property>
  <property name="meta.media.0.codec.height">1080</property>
  <property name="meta.media.0.codec.rotate">0</property>
  <property name="meta.media.0.codec.frame_rate">60</property>
  <property name="meta.media.0.codec.pix_fmt">yuv420p</property>
  <property name="meta.media.0.codec.sample_aspect_ratio">0</property>
  <property name="meta.media.0.codec.colorspace">709</property>
  <property name="meta.media.0.codec.name">h264</property>
  <property name="meta.media.0.codec.long_name">H.264 / AVC / MPEG-4 AVC / MPEG-4 part 10</property>
  <property name="meta.media.0.codec.bit_rate">1587405</property>
  <property name="meta.attr.0.stream.handler_name.markup">VideoHandler</property>
  <property name="meta.attr.major_brand.markup">isom</property>
  <property name="meta.attr.minor_version.markup">512</property>
  <property name="meta.attr.compatible_brands.markup">isomiso2avc1mp41</property>
  <property name="meta.attr.encoder.markup">Lavf58.45.100</property>
  <property name="meta.attr.comment.markup">Rendered with Manim Community v0.5.0</property>
  <property name="meta.media.sample_aspect_num">1</property>
  <property name="meta.media.sample_aspect_den">1</property>
  <property name="meta.media.frame_rate_num">60</property>
  <property name="meta.media.frame_rate_den">1</property>
  <property name="meta.media.colorspace">709</property>
  <property name="meta.media.color_trc">2</property>
  <property name="meta.media.width">1920</property>
  <property name="meta.media.height">1080</property>
  <property name="meta.media.color_range">mpeg</property>
  <property name="meta.media.top_field_first">0</property>
  <property name="meta.media.progressive">1</property>
  <property name="set.test_audio">1</property>
  <property name="set.test_image">0</property>
 </producer>
 <playlist id="playlist8">
  <entry producer="producer113" in="00:00:00.000" out="00:00:03.283">
   <property name="kdenlive:id">46</property>
  </entry>
  <blank length="00:00:02.833"/>
  <entry producer="producer12" in="00:00:00.000" out="00:00:05.133">
   <property name="kdenlive:id">14</property>
  </entry>
  <blank length="00:00:04.067"/>
  <entry producer="producer37" in="00:00:00.000" out="00:00:05.783">
   <property name="kdenlive:id">40</property>
  </entry>
  <entry producer="producer114" in="00:00:06.933" out="00:00:07.983">
   <property name="kdenlive:id">41</property>
  </entry>
  <entry producer="producer45" in="00:00:00.000" out="00:00:02.067">
   <property name="kdenlive:id">51</property>
   <filter id="filter12" in="00:00:01.217" out="00:00:02.067">
    <property name="start">1</property>
    <property name="mlt_service">brightness</property>
    <property name="kdenlive_id">fade_to_black</property>
    <property name="end">0</property>
    <property name="alpha">-1</property>
    <property name="kdenlive:collapsed">0</property>
   </filter>
  </entry>
  <entry producer="producer115" in="00:00:00.000" out="00:00:07.067">
   <property name="kdenlive:id">45</property>
  </entry>
  <entry producer="producer46" in="00:00:00.000" out="00:00:03.433">
   <property name="kdenlive:id">52</property>
  </entry>
  <entry producer="producer115" in="00:00:07.083" out="00:00:07.983">
   <property name="kdenlive:id">45</property>
  </entry>
  <entry producer="producer116" in="00:00:00.000" out="00:00:02.900">
   <property name="kdenlive:id">42</property>
  </entry>
  <entry producer="producer47" in="00:00:00.000" out="00:00:02.150">
   <property name="kdenlive:id">53</property>
  </entry>
  <entry producer="producer116" in="00:00:02.917" out="00:00:06.083">
   <property name="kdenlive:id">42</property>
  </entry>
  <entry producer="producer48" in="00:00:00.000" out="00:00:01.283">
   <property name="kdenlive:id">54</property>
  </entry>
  <entry producer="producer116" in="00:00:06.100" out="00:00:06.983">
   <property name="kdenlive:id">42</property>
  </entry>
  <entry producer="producer117" in="00:00:00.000" out="00:00:05.983">
   <property name="kdenlive:id">43</property>
  </entry>
  <entry producer="producer50" in="00:00:00.000" out="00:00:02.417">
   <property name="kdenlive:id">55</property>
  </entry>
  <entry producer="producer117" in="00:00:06.000" out="00:00:07.767">
   <property name="kdenlive:id">43</property>
  </entry>
  <entry producer="producer51" in="00:00:00.000" out="00:00:02.467">
   <property name="kdenlive:id">56</property>
  </entry>
  <entry producer="producer117" in="00:00:07.783" out="00:00:09.100">
   <property name="kdenlive:id">43</property>
  </entry>
  <entry producer="producer80" in="00:00:00.000" out="00:00:00.833">
   <property name="kdenlive:id">84</property>
  </entry>
  <entry producer="producer117" in="00:00:09.117" out="00:00:09.983">
   <property name="kdenlive:id">43</property>
  </entry>
  <entry producer="producer118" in="00:00:00.000" out="00:00:06.150">
   <property name="kdenlive:id">47</property>
  </entry>
  <entry producer="producer52" in="00:00:00.000" out="00:00:02.633">
   <property name="kdenlive:id">57</property>
  </entry>
  <entry producer="producer118" in="00:00:06.167" out="00:00:06.983">
   <property name="kdenlive:id">47</property>
  </entry>
  <entry producer="producer119" in="00:00:00.000" out="00:00:04.117">
   <property name="kdenlive:id">44</property>
  </entry>
  <entry producer="producer53" in="00:00:00.000" out="00:00:05.467">
   <property name="kdenlive:id">58</property>
  </entry>
  <entry producer="producer119" in="00:00:04.133" out="00:00:04.967">
   <property name="kdenlive:id">44</property>
  </entry>
  <entry producer="producer54" in="00:00:00.000" out="00:00:14.400">
   <property name="kdenlive:id">59</property>
  </entry>
  <entry producer="producer119" in="00:00:04.983" out="00:00:05.983">
   <property name="kdenlive:id">44</property>
  </entry>
  <entry producer="producer55" in="00:00:00.000" out="00:00:01.583">
   <property name="kdenlive:id">60</property>
  </entry>
  <entry producer="producer119" in="00:00:06.000" out="00:00:07.983">
   <property name="kdenlive:id">44</property>
  </entry>
  <entry producer="producer120" in="00:00:00.000" out="00:00:01.100">
   <property name="kdenlive:id">49</property>
  </entry>
  <entry producer="producer86" in="00:00:00.000" out="00:00:01.500">
   <property name="kdenlive:id">91</property>
  </entry>
  <entry producer="producer120" in="00:00:01.117" out="00:00:02.950">
   <property name="kdenlive:id">49</property>
  </entry>
  <entry producer="producer56" in="00:00:00.000" out="00:00:04.500">
   <property name="kdenlive:id">61</property>
  </entry>
  <entry producer="producer120" in="00:00:02.967" out="00:00:04.167">
   <property name="kdenlive:id">49</property>
  </entry>
  <entry producer="producer57" in="00:00:00.000" out="00:00:03.733">
   <property name="kdenlive:id">62</property>
  </entry>
  <entry producer="producer120" in="00:00:04.183" out="00:00:04.783">
   <property name="kdenlive:id">49</property>
  </entry>
  <entry producer="producer58" in="00:00:00.000" out="00:00:01.217">
   <property name="kdenlive:id">63</property>
  </entry>
  <entry producer="producer120" in="00:00:04.800" out="00:00:05.817">
   <property name="kdenlive:id">49</property>
  </entry>
  <entry producer="producer59" in="00:00:00.000" out="00:00:01.400">
   <property name="kdenlive:id">64</property>
  </entry>
  <entry producer="producer120" in="00:00:05.817" out="00:00:06.967">
   <property name="kdenlive:id">49</property>
  </entry>
  <entry producer="producer81" in="00:00:00.000" out="00:00:01.800">
   <property name="kdenlive:id">85</property>
  </entry>
  <entry producer="producer120" in="00:00:06.983" out="00:00:07.967">
   <property name="kdenlive:id">49</property>
  </entry>
  <entry producer="producer62" in="00:00:00.000" out="00:00:03.117">
   <property name="kdenlive:id">66</property>
  </entry>
  <entry producer="producer120" in="00:00:07.983" out="00:00:09.933">
   <property name="kdenlive:id">49</property>
  </entry>
  <entry producer="producer63" in="00:00:00.000" out="00:00:03.900">
   <property name="kdenlive:id">67</property>
  </entry>
  <entry producer="producer120" in="00:00:09.950" out="00:00:11.983">
   <property name="kdenlive:id">49</property>
  </entry>
  <entry producer="producer82" in="00:00:00.000" out="00:00:01.667">
   <property name="kdenlive:id">86</property>
  </entry>
  <entry producer="producer120" in="00:00:12.000" out="00:00:12.983">
   <property name="kdenlive:id">49</property>
  </entry>
  <entry producer="producer65" in="00:00:00.000" out="00:00:02.967">
   <property name="kdenlive:id">69</property>
  </entry>
  <entry producer="producer120" in="00:00:13.000" out="00:00:13.917">
   <property name="kdenlive:id">49</property>
  </entry>
  <entry producer="producer66" in="00:00:00.000" out="00:00:02.733">
   <property name="kdenlive:id">70</property>
  </entry>
  <entry producer="producer120" in="00:00:13.933" out="00:00:17.967">
   <property name="kdenlive:id">49</property>
  </entry>
  <entry producer="producer67" in="00:00:00.000" out="00:00:02.750">
   <property name="kdenlive:id">71</property>
  </entry>
  <entry producer="producer120" in="00:00:17.983" out="00:00:19.967">
   <property name="kdenlive:id">49</property>
  </entry>
  <entry producer="producer68" in="00:00:00.000" out="00:00:02.400">
   <property name="kdenlive:id">72</property>
  </entry>
  <entry producer="producer120" in="00:00:19.983" out="00:00:22.033">
   <property name="kdenlive:id">49</property>
  </entry>
  <entry producer="producer69" in="00:00:00.000" out="00:00:08.267">
   <property name="kdenlive:id">73</property>
  </entry>
  <entry producer="producer120" in="00:00:22.050" out="00:00:22.950">
   <property name="kdenlive:id">49</property>
  </entry>
  <entry producer="producer70" in="00:00:00.000" out="00:00:17.317">
   <property name="kdenlive:id">74</property>
  </entry>
  <entry producer="producer120" in="00:00:22.967" out="00:00:24.000">
   <property name="kdenlive:id">49</property>
  </entry>
  <entry producer="producer72" in="00:00:00.000" out="00:00:02.583">
   <property name="kdenlive:id">76</property>
  </entry>
  <entry producer="producer120" in="00:00:24.017" out="00:00:25.000">
   <property name="kdenlive:id">49</property>
  </entry>
  <entry producer="producer73" in="00:00:00.000" out="00:00:01.233">
   <property name="kdenlive:id">77</property>
  </entry>
  <entry producer="producer120" in="00:00:25.017" out="00:00:28.967">
   <property name="kdenlive:id">49</property>
  </entry>
  <entry producer="producer74" in="00:00:00.000" out="00:00:02.850">
   <property name="kdenlive:id">78</property>
  </entry>
  <entry producer="producer120" in="00:00:28.983" out="00:00:30.983">
   <property name="kdenlive:id">49</property>
  </entry>
  <entry producer="producer75" in="00:00:00.000" out="00:00:00.883">
   <property name="kdenlive:id">80</property>
  </entry>
  <entry producer="producer120" in="00:00:31.000" out="00:00:32.017">
   <property name="kdenlive:id">49</property>
  </entry>
  <entry producer="producer77" in="00:00:00.000" out="00:00:05.717">
   <property name="kdenlive:id">81</property>
  </entry>
  <entry producer="producer120" in="00:00:32.033" out="00:00:33.983">
   <property name="kdenlive:id">49</property>
  </entry>
  <entry producer="producer78" in="00:00:00.000" out="00:00:10.550">
   <property name="kdenlive:id">82</property>
  </entry>
  <entry producer="producer120" in="00:00:34.000" out="00:00:34.917">
   <property name="kdenlive:id">49</property>
  </entry>
  <entry producer="producer79" in="00:00:00.000" out="00:00:04.700">
   <property name="kdenlive:id">83</property>
  </entry>
  <entry producer="producer120" in="00:00:34.933" out="00:00:35.950">
   <property name="kdenlive:id">49</property>
  </entry>
  <entry producer="producer79" in="00:00:00.000" out="00:00:04.650">
   <property name="kdenlive:id">83</property>
  </entry>
  <entry producer="producer120" in="00:00:35.967" out="00:00:37.017">
   <property name="kdenlive:id">49</property>
  </entry>
  <entry producer="producer79" in="00:00:00.000" out="00:00:18.900">
   <property name="kdenlive:id">83</property>
  </entry>
  <entry producer="producer120" in="00:00:37.033" out="00:00:37.983">
   <property name="kdenlive:id">49</property>
  </entry>
  <blank length="00:00:01.017"/>
  <entry producer="producer121" in="00:00:00.000" out="00:00:14.983">
   <property name="kdenlive:id">48</property>
  </entry>
 </playlist>
 <playlist id="playlist9"/>
 <tractor id="tractor4" in="00:00:00.000" out="00:04:26.883">
  <property name="kdenlive:trackheight">67</property>
  <property name="kdenlive:timeline_active">1</property>
  <property name="kdenlive:collapsed">0</property>
  <property name="kdenlive:thumbs_format"/>
  <property name="kdenlive:audio_rec"/>
  <track hide="audio" producer="playlist8"/>
  <track producer="playlist9"/>
 </tractor>
 <tractor id="tractor5" global_feed="1" in="00:00:00.000" out="00:12:46.900">
  <track producer="black_track"/>
  <track producer="tractor0"/>
  <track producer="tractor1"/>
  <track producer="tractor2"/>
  <track producer="tractor3"/>
  <track producer="tractor4"/>
  <transition id="transition0">
   <property name="a_track">0</property>
   <property name="b_track">1</property>
   <property name="mlt_service">mix</property>
   <property name="kdenlive_id">mix</property>
   <property name="internal_added">237</property>
   <property name="always_active">1</property>
   <property name="accepts_blanks">1</property>
   <property name="sum">1</property>
  </transition>
  <transition id="transition1">
   <property name="a_track">0</property>
   <property name="b_track">2</property>
   <property name="mlt_service">mix</property>
   <property name="kdenlive_id">mix</property>
   <property name="internal_added">237</property>
   <property name="always_active">1</property>
   <property name="accepts_blanks">1</property>
   <property name="sum">1</property>
  </transition>
  <transition id="transition2">
   <property name="a_track">0</property>
   <property name="b_track">3</property>
   <property name="mlt_service">mix</property>
   <property name="kdenlive_id">mix</property>
   <property name="internal_added">237</property>
   <property name="always_active">1</property>
   <property name="accepts_blanks">1</property>
   <property name="sum">1</property>
  </transition>
  <transition id="transition3">
   <property name="a_track">0</property>
   <property name="b_track">4</property>
   <property name="compositing">0</property>
   <property name="distort">0</property>
   <property name="rotate_center">0</property>
   <property name="mlt_service">qtblend</property>
   <property name="kdenlive_id">qtblend</property>
   <property name="internal_added">237</property>
   <property name="always_active">1</property>
  </transition>
  <transition id="transition4">
   <property name="a_track">0</property>
   <property name="b_track">5</property>
   <property name="compositing">0</property>
   <property name="distort">0</property>
   <property name="rotate_center">0</property>
   <property name="mlt_service">qtblend</property>
   <property name="kdenlive_id">qtblend</property>
   <property name="internal_added">237</property>
   <property name="always_active">1</property>
  </transition>
  <filter id="filter13">
   <property name="window">75</property>
   <property name="max_gain">20dB</property>
   <property name="level">-6.59968</property>
   <property name="mlt_service">volume</property>
   <property name="internal_added">237</property>
   <property name="disable">0</property>
  </filter>
  <filter id="filter14">
   <property name="channel">-1</property>
   <property name="mlt_service">panner</property>
   <property name="internal_added">237</property>
   <property name="start">0.5</property>
   <property name="disable">1</property>
  </filter>
  <filter id="filter11">
   <property name="mlt_service">avfilter.subtitles</property>
   <property name="internal_added">237</property>
   <property name="av.filename">/tmp/1619043766034.srt</property>
  </filter>
  <filter id="filter15">
   <property name="iec_scale">0</property>
   <property name="mlt_service">audiolevel</property>
   <property name="disable">1</property>
  </filter>
 </tractor>
</mlt>
