<?xml version='1.0' encoding='utf-8'?>
<mlt LC_NUMERIC="C" producer="main_bin" version="7.12.0" root="/home/xiaoxiae/Documents/Education/Programming/Manim/16-tutte-short">
 <profile frame_rate_num="60" sample_aspect_num="1" display_aspect_den="16" colorspace="709" progressive="1" description="4K UHD 2160p 60 fps (copy)" display_aspect_num="9" frame_rate_den="1" width="2160" height="3840" sample_aspect_den="1"/>
 <producer id="producer3" in="00:00:00.000" out="00:00:17.983">
  <property name="length">1080</property>
  <property name="eof">pause</property>
  <property name="resource">video/Introo.mp4</property>
  <property name="meta.media.nb_streams">1</property>
  <property name="meta.media.0.stream.type">video</property>
  <property name="meta.media.0.stream.frame_rate">60</property>
  <property name="meta.media.0.stream.sample_aspect_ratio">0</property>
  <property name="meta.media.0.codec.width">2160</property>
  <property name="meta.media.0.codec.height">3840</property>
  <property name="meta.media.0.codec.rotate">0</property>
  <property name="meta.media.0.codec.pix_fmt">yuv420p</property>
  <property name="meta.media.0.codec.sample_aspect_ratio">0</property>
  <property name="meta.media.0.codec.colorspace">709</property>
  <property name="meta.media.0.codec.name">h264</property>
  <property name="meta.media.0.codec.long_name">H.264 / AVC / MPEG-4 AVC / MPEG-4 part 10</property>
  <property name="meta.media.0.codec.bit_rate">1844824</property>
  <property name="meta.attr.0.stream.handler_name.markup">VideoHandler</property>
  <property name="meta.attr.0.stream.vendor_id.markup">[0][0][0][0]</property>
  <property name="meta.attr.0.stream.encoder.markup">Lavc59.37.100 libx264</property>
  <property name="meta.attr.major_brand.markup">isom</property>
  <property name="meta.attr.minor_version.markup">512</property>
  <property name="meta.attr.compatible_brands.markup">isomiso2avc1mp41</property>
  <property name="meta.attr.encoder.markup">Lavf59.27.100</property>
  <property name="meta.attr.comment.markup">Rendered with Manim Community v0.17.2</property>
  <property name="seekable">1</property>
  <property name="meta.media.sample_aspect_num">1</property>
  <property name="meta.media.sample_aspect_den">1</property>
  <property name="aspect_ratio">1</property>
  <property name="format">3</property>
  <property name="audio_index">-1</property>
  <property name="video_index">0</property>
  <property name="mute_on_pause">0</property>
  <property name="mlt_service">avformat-novalidate</property>
  <property name="kdenlive:clipname"/>
  <property name="kdenlive:clip_type">2</property>
  <property name="kdenlive:folderid">2</property>
  <property name="kdenlive:id">3</property>
  <property name="kdenlive:file_size">4163768</property>
  <property name="kdenlive:file_hash">68471c63d5c57ccea66e14a50a82644d</property>
  <property name="meta.media.frame_rate_num">60</property>
  <property name="meta.media.frame_rate_den">1</property>
  <property name="meta.media.colorspace">709</property>
  <property name="meta.media.color_trc">2</property>
  <property name="meta.media.has_b_frames">2</property>
  <property name="meta.media.width">2160</property>
  <property name="meta.media.height">3840</property>
  <property name="meta.media.color_range">mpeg</property>
  <property name="meta.media.top_field_first">0</property>
  <property name="meta.media.progressive">1</property>
 </producer>
 <producer id="producer2" in="00:00:00.000" out="00:00:11.817">
  <property name="length">710</property>
  <property name="eof">pause</property>
  <property name="resource">video/TP.mp4</property>
  <property name="meta.media.nb_streams">1</property>
  <property name="meta.media.0.stream.type">video</property>
  <property name="meta.media.0.stream.frame_rate">59.9983</property>
  <property name="meta.media.0.stream.sample_aspect_ratio">0</property>
  <property name="meta.media.0.codec.width">2160</property>
  <property name="meta.media.0.codec.height">3840</property>
  <property name="meta.media.0.codec.rotate">0</property>
  <property name="meta.media.0.codec.pix_fmt">yuv420p</property>
  <property name="meta.media.0.codec.sample_aspect_ratio">0</property>
  <property name="meta.media.0.codec.colorspace">709</property>
  <property name="meta.media.0.codec.name">h264</property>
  <property name="meta.media.0.codec.long_name">H.264 / AVC / MPEG-4 AVC / MPEG-4 part 10</property>
  <property name="meta.media.0.codec.bit_rate">4090951</property>
  <property name="meta.attr.0.stream.handler_name.markup">VideoHandler</property>
  <property name="meta.attr.0.stream.vendor_id.markup">[0][0][0][0]</property>
  <property name="meta.attr.0.stream.encoder.markup">Lavc59.37.100 libx264</property>
  <property name="meta.attr.major_brand.markup">isom</property>
  <property name="meta.attr.minor_version.markup">512</property>
  <property name="meta.attr.compatible_brands.markup">isomiso2avc1mp41</property>
  <property name="meta.attr.encoder.markup">Lavf59.27.100</property>
  <property name="meta.attr.comment.markup">Rendered with Manim Community v0.17.2</property>
  <property name="seekable">1</property>
  <property name="meta.media.sample_aspect_num">1</property>
  <property name="meta.media.sample_aspect_den">1</property>
  <property name="aspect_ratio">1</property>
  <property name="format">3</property>
  <property name="audio_index">-1</property>
  <property name="video_index">0</property>
  <property name="mute_on_pause">0</property>
  <property name="mlt_service">avformat-novalidate</property>
  <property name="kdenlive:clipname"/>
  <property name="kdenlive:clip_type">2</property>
  <property name="kdenlive:folderid">2</property>
  <property name="kdenlive:id">4</property>
  <property name="kdenlive:file_size">6060881</property>
  <property name="kdenlive:file_hash">341894ea3e0bd27b2f6b94f7be70014f</property>
  <property name="meta.media.frame_rate_num">2181120</property>
  <property name="meta.media.frame_rate_den">36353</property>
  <property name="meta.media.colorspace">709</property>
  <property name="meta.media.color_trc">2</property>
  <property name="meta.media.has_b_frames">2</property>
  <property name="meta.media.width">2160</property>
  <property name="meta.media.height">3840</property>
  <property name="meta.media.color_range">mpeg</property>
  <property name="meta.media.top_field_first">0</property>
  <property name="meta.media.progressive">1</property>
 </producer>
 <producer id="producer5" in="00:00:00.000" out="00:00:01.983">
  <property name="length">120</property>
  <property name="eof">pause</property>
  <property name="resource">/home/xiaoxiae/.cache/kdenlive/proxy/8dff18832a70d54217650c23ab5e4f42.mkv</property>
  <property name="meta.media.nb_streams">1</property>
  <property name="meta.media.0.stream.type">video</property>
  <property name="meta.media.0.stream.frame_rate">60</property>
  <property name="meta.media.0.stream.sample_aspect_ratio">0</property>
  <property name="meta.media.0.codec.width">640</property>
  <property name="meta.media.0.codec.height">1138</property>
  <property name="meta.media.0.codec.rotate">0</property>
  <property name="meta.media.0.codec.pix_fmt">yuvj420p</property>
  <property name="meta.media.0.codec.sample_aspect_ratio">0</property>
  <property name="meta.media.0.codec.colorspace">601</property>
  <property name="meta.media.0.codec.name">mjpeg</property>
  <property name="meta.media.0.codec.long_name">MJPEG (Motion JPEG)</property>
  <property name="meta.media.0.codec.bit_rate">0</property>
  <property name="meta.attr.0.stream.HANDLER_NAME.markup">VideoHandler</property>
  <property name="meta.attr.0.stream.VENDOR_ID.markup">[0][0][0][0]</property>
  <property name="meta.attr.0.stream.ENCODER.markup">Lavc59.37.100 mjpeg</property>
  <property name="meta.attr.0.stream.DURATION.markup">00:00:02.000000000</property>
  <property name="meta.attr.COMMENT.markup">Rendered with Manim Community v0.17.2</property>
  <property name="meta.attr.MAJOR_BRAND.markup">isom</property>
  <property name="meta.attr.MINOR_VERSION.markup">512</property>
  <property name="meta.attr.COMPATIBLE_BRANDS.markup">isomiso2avc1mp41</property>
  <property name="meta.attr.ENCODER.markup">Lavf59.27.100</property>
  <property name="seekable">1</property>
  <property name="meta.media.sample_aspect_num">1</property>
  <property name="meta.media.sample_aspect_den">1</property>
  <property name="aspect_ratio">1</property>
  <property name="format">3</property>
  <property name="audio_index">-1</property>
  <property name="video_index">0</property>
  <property name="mute_on_pause">0</property>
  <property name="mlt_service">avformat-novalidate</property>
  <property name="kdenlive:clipname">1.mp4</property>
  <property name="kdenlive:clip_type">2</property>
  <property name="kdenlive:folderid">5</property>
  <property name="kdenlive:id">6</property>
  <property name="kdenlive:file_size">103742</property>
  <property name="kdenlive:proxy">/home/xiaoxiae/.cache/kdenlive/proxy/8dff18832a70d54217650c23ab5e4f42.mkv</property>
  <property name="kdenlive:originalurl">video/Introo/1.mp4</property>
  <property name="kdenlive:original.mlt_type">producer</property>
  <property name="kdenlive:original.in">0</property>
  <property name="kdenlive:original.out">119</property>
  <property name="kdenlive:original.length">120</property>
  <property name="kdenlive:original.eof">pause</property>
  <property name="kdenlive:original.resource">video/Introo/1.mp4</property>
  <property name="kdenlive:original.meta.media.nb_streams">1</property>
  <property name="kdenlive:original.meta.media.0.stream.type">video</property>
  <property name="kdenlive:original.meta.media.0.stream.frame_rate">60</property>
  <property name="kdenlive:original.meta.media.0.stream.sample_aspect_ratio">0</property>
  <property name="kdenlive:original.meta.media.0.codec.width">2160</property>
  <property name="kdenlive:original.meta.media.0.codec.height">3840</property>
  <property name="kdenlive:original.meta.media.0.codec.rotate">0</property>
  <property name="kdenlive:original.meta.media.0.codec.pix_fmt">yuv420p</property>
  <property name="kdenlive:original.meta.media.0.codec.sample_aspect_ratio">0</property>
  <property name="kdenlive:original.meta.media.0.codec.colorspace">709</property>
  <property name="kdenlive:original.meta.media.0.codec.name">h264</property>
  <property name="kdenlive:original.meta.media.0.codec.long_name">H.264 / AVC / MPEG-4 AVC / MPEG-4 part 10</property>
  <property name="kdenlive:original.meta.media.0.codec.bit_rate">405560</property>
  <property name="kdenlive:original.meta.attr.0.stream.handler_name.markup">VideoHandler</property>
  <property name="kdenlive:original.meta.attr.0.stream.vendor_id.markup">[0][0][0][0]</property>
  <property name="kdenlive:original.meta.attr.0.stream.encoder.markup">Lavc59.37.100 libx264</property>
  <property name="kdenlive:original.meta.attr.major_brand.markup">isom</property>
  <property name="kdenlive:original.meta.attr.minor_version.markup">512</property>
  <property name="kdenlive:original.meta.attr.compatible_brands.markup">isomiso2avc1mp41</property>
  <property name="kdenlive:original.meta.attr.encoder.markup">Lavf59.27.100</property>
  <property name="kdenlive:original.meta.attr.comment.markup">Rendered with Manim Community v0.17.2</property>
  <property name="kdenlive:original.seekable">1</property>
  <property name="kdenlive:original.width">2160</property>
  <property name="kdenlive:original.height">3840</property>
  <property name="kdenlive:original.meta.media.sample_aspect_num">1</property>
  <property name="kdenlive:original.meta.media.sample_aspect_den">1</property>
  <property name="kdenlive:original.aspect_ratio">1</property>
  <property name="kdenlive:original.format">3</property>
  <property name="kdenlive:original.audio_index">-1</property>
  <property name="kdenlive:original.video_index">0</property>
  <property name="kdenlive:original.mute_on_pause">0</property>
  <property name="kdenlive:original.mlt_service">avformat-novalidate</property>
  <property name="kdenlive:original.meta.media.frame_rate_num">60</property>
  <property name="kdenlive:original.meta.media.frame_rate_den">1</property>
  <property name="kdenlive:original.meta.media.colorspace">709</property>
  <property name="kdenlive:original.meta.media.color_trc">2</property>
  <property name="kdenlive:original.meta.media.has_b_frames">2</property>
  <property name="kdenlive:original.meta.media.width">2160</property>
  <property name="kdenlive:original.meta.media.height">3840</property>
  <property name="kdenlive:original.meta.media.color_range">mpeg</property>
  <property name="kdenlive:original.meta.media.top_field_first">0</property>
  <property name="kdenlive:original.meta.media.progressive">1</property>
  <property name="kdenlive:original.kdenlive:clip_type">2</property>
  <property name="kdenlive:original.kdenlive:folderid">5</property>
  <property name="kdenlive:original.kdenlive:id">6</property>
  <property name="kdenlive:original.kdenlive:file_size">103742</property>
  <property name="kdenlive:original.kdenlive:file_hash">8dff18832a70d54217650c23ab5e4f42</property>
  <property name="kdenlive:original.backup">1</property>
  <property name="kdenlive:file_hash">8dff18832a70d54217650c23ab5e4f42</property>
  <property name="meta.media.frame_rate_num">60</property>
  <property name="meta.media.frame_rate_den">1</property>
  <property name="meta.media.colorspace">601</property>
  <property name="meta.media.color_trc">2</property>
  <property name="meta.media.has_b_frames">0</property>
  <property name="meta.media.width">640</property>
  <property name="meta.media.height">1138</property>
  <property name="meta.media.color_range">full</property>
  <property name="meta.media.top_field_first">0</property>
  <property name="meta.media.progressive">1</property>
 </producer>
 <producer id="producer12" in="00:00:00.000" out="00:00:00.983">
  <property name="length">60</property>
  <property name="eof">pause</property>
  <property name="resource">/home/xiaoxiae/.cache/kdenlive/proxy/1a1932df4ed0e1e225731efeed2187b6.mkv</property>
  <property name="meta.media.nb_streams">1</property>
  <property name="meta.media.0.stream.type">video</property>
  <property name="meta.media.0.stream.frame_rate">60</property>
  <property name="meta.media.0.stream.sample_aspect_ratio">0</property>
  <property name="meta.media.0.codec.width">640</property>
  <property name="meta.media.0.codec.height">1138</property>
  <property name="meta.media.0.codec.rotate">0</property>
  <property name="meta.media.0.codec.pix_fmt">yuvj420p</property>
  <property name="meta.media.0.codec.sample_aspect_ratio">0</property>
  <property name="meta.media.0.codec.colorspace">601</property>
  <property name="meta.media.0.codec.name">mjpeg</property>
  <property name="meta.media.0.codec.long_name">MJPEG (Motion JPEG)</property>
  <property name="meta.media.0.codec.bit_rate">0</property>
  <property name="meta.attr.0.stream.HANDLER_NAME.markup">VideoHandler</property>
  <property name="meta.attr.0.stream.VENDOR_ID.markup">[0][0][0][0]</property>
  <property name="meta.attr.0.stream.ENCODER.markup">Lavc59.37.100 mjpeg</property>
  <property name="meta.attr.0.stream.DURATION.markup">00:00:01.000000000</property>
  <property name="meta.attr.COMMENT.markup">Rendered with Manim Community v0.17.2</property>
  <property name="meta.attr.MAJOR_BRAND.markup">isom</property>
  <property name="meta.attr.MINOR_VERSION.markup">512</property>
  <property name="meta.attr.COMPATIBLE_BRANDS.markup">isomiso2avc1mp41</property>
  <property name="meta.attr.ENCODER.markup">Lavf59.27.100</property>
  <property name="seekable">1</property>
  <property name="meta.media.sample_aspect_num">1</property>
  <property name="meta.media.sample_aspect_den">1</property>
  <property name="aspect_ratio">1</property>
  <property name="format">3</property>
  <property name="audio_index">-1</property>
  <property name="video_index">0</property>
  <property name="mute_on_pause">0</property>
  <property name="mlt_service">avformat-novalidate</property>
  <property name="kdenlive:clipname">10.mp4</property>
  <property name="kdenlive:clip_type">2</property>
  <property name="kdenlive:folderid">5</property>
  <property name="kdenlive:id">7</property>
  <property name="kdenlive:file_size">177605</property>
  <property name="kdenlive:proxy">/home/xiaoxiae/.cache/kdenlive/proxy/1a1932df4ed0e1e225731efeed2187b6.mkv</property>
  <property name="kdenlive:originalurl">video/Introo/10.mp4</property>
  <property name="kdenlive:original.mlt_type">producer</property>
  <property name="kdenlive:original.in">0</property>
  <property name="kdenlive:original.out">59</property>
  <property name="kdenlive:original.length">60</property>
  <property name="kdenlive:original.eof">pause</property>
  <property name="kdenlive:original.resource">video/Introo/10.mp4</property>
  <property name="kdenlive:original.meta.media.nb_streams">1</property>
  <property name="kdenlive:original.meta.media.0.stream.type">video</property>
  <property name="kdenlive:original.meta.media.0.stream.frame_rate">60</property>
  <property name="kdenlive:original.meta.media.0.stream.sample_aspect_ratio">0</property>
  <property name="kdenlive:original.meta.media.0.codec.width">2160</property>
  <property name="kdenlive:original.meta.media.0.codec.height">3840</property>
  <property name="kdenlive:original.meta.media.0.codec.rotate">0</property>
  <property name="kdenlive:original.meta.media.0.codec.pix_fmt">yuv420p</property>
  <property name="kdenlive:original.meta.media.0.codec.sample_aspect_ratio">0</property>
  <property name="kdenlive:original.meta.media.0.codec.colorspace">709</property>
  <property name="kdenlive:original.meta.media.0.codec.name">h264</property>
  <property name="kdenlive:original.meta.media.0.codec.long_name">H.264 / AVC / MPEG-4 AVC / MPEG-4 part 10</property>
  <property name="kdenlive:original.meta.media.0.codec.bit_rate">1407784</property>
  <property name="kdenlive:original.meta.attr.0.stream.handler_name.markup">VideoHandler</property>
  <property name="kdenlive:original.meta.attr.0.stream.vendor_id.markup">[0][0][0][0]</property>
  <property name="kdenlive:original.meta.attr.0.stream.encoder.markup">Lavc59.37.100 libx264</property>
  <property name="kdenlive:original.meta.attr.major_brand.markup">isom</property>
  <property name="kdenlive:original.meta.attr.minor_version.markup">512</property>
  <property name="kdenlive:original.meta.attr.compatible_brands.markup">isomiso2avc1mp41</property>
  <property name="kdenlive:original.meta.attr.encoder.markup">Lavf59.27.100</property>
  <property name="kdenlive:original.meta.attr.comment.markup">Rendered with Manim Community v0.17.2</property>
  <property name="kdenlive:original.seekable">1</property>
  <property name="kdenlive:original.width">2160</property>
  <property name="kdenlive:original.height">3840</property>
  <property name="kdenlive:original.meta.media.sample_aspect_num">1</property>
  <property name="kdenlive:original.meta.media.sample_aspect_den">1</property>
  <property name="kdenlive:original.aspect_ratio">1</property>
  <property name="kdenlive:original.format">3</property>
  <property name="kdenlive:original.audio_index">-1</property>
  <property name="kdenlive:original.video_index">0</property>
  <property name="kdenlive:original.mute_on_pause">0</property>
  <property name="kdenlive:original.mlt_service">avformat-novalidate</property>
  <property name="kdenlive:original.meta.media.frame_rate_num">60</property>
  <property name="kdenlive:original.meta.media.frame_rate_den">1</property>
  <property name="kdenlive:original.meta.media.colorspace">709</property>
  <property name="kdenlive:original.meta.media.color_trc">2</property>
  <property name="kdenlive:original.meta.media.has_b_frames">2</property>
  <property name="kdenlive:original.meta.media.width">2160</property>
  <property name="kdenlive:original.meta.media.height">3840</property>
  <property name="kdenlive:original.meta.media.color_range">mpeg</property>
  <property name="kdenlive:original.meta.media.top_field_first">0</property>
  <property name="kdenlive:original.meta.media.progressive">1</property>
  <property name="kdenlive:original.kdenlive:clip_type">2</property>
  <property name="kdenlive:original.kdenlive:folderid">5</property>
  <property name="kdenlive:original.kdenlive:id">7</property>
  <property name="kdenlive:original.kdenlive:file_size">177605</property>
  <property name="kdenlive:original.kdenlive:file_hash">1a1932df4ed0e1e225731efeed2187b6</property>
  <property name="kdenlive:original.backup">1</property>
  <property name="kdenlive:file_hash">1a1932df4ed0e1e225731efeed2187b6</property>
  <property name="meta.media.frame_rate_num">60</property>
  <property name="meta.media.frame_rate_den">1</property>
  <property name="meta.media.colorspace">601</property>
  <property name="meta.media.color_trc">2</property>
  <property name="meta.media.has_b_frames">0</property>
  <property name="meta.media.width">640</property>
  <property name="meta.media.height">1138</property>
  <property name="meta.media.color_range">full</property>
  <property name="meta.media.top_field_first">0</property>
  <property name="meta.media.progressive">1</property>
 </producer>
 <producer id="producer15" in="00:00:00.000" out="00:00:00.983">
  <property name="length">60</property>
  <property name="eof">pause</property>
  <property name="resource">/home/xiaoxiae/.cache/kdenlive/proxy/1f1b7efe38fa7e8601cb38cd3ee2acf3.mkv</property>
  <property name="meta.media.nb_streams">1</property>
  <property name="meta.media.0.stream.type">video</property>
  <property name="meta.media.0.stream.frame_rate">60</property>
  <property name="meta.media.0.stream.sample_aspect_ratio">0</property>
  <property name="meta.media.0.codec.width">640</property>
  <property name="meta.media.0.codec.height">1138</property>
  <property name="meta.media.0.codec.rotate">0</property>
  <property name="meta.media.0.codec.pix_fmt">yuvj420p</property>
  <property name="meta.media.0.codec.sample_aspect_ratio">0</property>
  <property name="meta.media.0.codec.colorspace">601</property>
  <property name="meta.media.0.codec.name">mjpeg</property>
  <property name="meta.media.0.codec.long_name">MJPEG (Motion JPEG)</property>
  <property name="meta.media.0.codec.bit_rate">0</property>
  <property name="meta.attr.0.stream.HANDLER_NAME.markup">VideoHandler</property>
  <property name="meta.attr.0.stream.VENDOR_ID.markup">[0][0][0][0]</property>
  <property name="meta.attr.0.stream.ENCODER.markup">Lavc59.37.100 mjpeg</property>
  <property name="meta.attr.0.stream.DURATION.markup">00:00:01.000000000</property>
  <property name="meta.attr.COMMENT.markup">Rendered with Manim Community v0.17.2</property>
  <property name="meta.attr.MAJOR_BRAND.markup">isom</property>
  <property name="meta.attr.MINOR_VERSION.markup">512</property>
  <property name="meta.attr.COMPATIBLE_BRANDS.markup">isomiso2avc1mp41</property>
  <property name="meta.attr.ENCODER.markup">Lavf59.27.100</property>
  <property name="seekable">1</property>
  <property name="meta.media.sample_aspect_num">1</property>
  <property name="meta.media.sample_aspect_den">1</property>
  <property name="aspect_ratio">1</property>
  <property name="format">3</property>
  <property name="audio_index">-1</property>
  <property name="video_index">0</property>
  <property name="mute_on_pause">0</property>
  <property name="mlt_service">avformat-novalidate</property>
  <property name="kdenlive:clipname">11.mp4</property>
  <property name="kdenlive:clip_type">2</property>
  <property name="kdenlive:folderid">5</property>
  <property name="kdenlive:id">8</property>
  <property name="kdenlive:file_size">153007</property>
  <property name="kdenlive:proxy">/home/xiaoxiae/.cache/kdenlive/proxy/1f1b7efe38fa7e8601cb38cd3ee2acf3.mkv</property>
  <property name="kdenlive:originalurl">video/Introo/11.mp4</property>
  <property name="kdenlive:original.mlt_type">producer</property>
  <property name="kdenlive:original.in">0</property>
  <property name="kdenlive:original.out">59</property>
  <property name="kdenlive:original.length">60</property>
  <property name="kdenlive:original.eof">pause</property>
  <property name="kdenlive:original.resource">video/Introo/11.mp4</property>
  <property name="kdenlive:original.meta.media.nb_streams">1</property>
  <property name="kdenlive:original.meta.media.0.stream.type">video</property>
  <property name="kdenlive:original.meta.media.0.stream.frame_rate">60</property>
  <property name="kdenlive:original.meta.media.0.stream.sample_aspect_ratio">0</property>
  <property name="kdenlive:original.meta.media.0.codec.width">2160</property>
  <property name="kdenlive:original.meta.media.0.codec.height">3840</property>
  <property name="kdenlive:original.meta.media.0.codec.rotate">0</property>
  <property name="kdenlive:original.meta.media.0.codec.pix_fmt">yuv420p</property>
  <property name="kdenlive:original.meta.media.0.codec.sample_aspect_ratio">0</property>
  <property name="kdenlive:original.meta.media.0.codec.colorspace">709</property>
  <property name="kdenlive:original.meta.media.0.codec.name">h264</property>
  <property name="kdenlive:original.meta.media.0.codec.long_name">H.264 / AVC / MPEG-4 AVC / MPEG-4 part 10</property>
  <property name="kdenlive:original.meta.media.0.codec.bit_rate">1210936</property>
  <property name="kdenlive:original.meta.attr.0.stream.handler_name.markup">VideoHandler</property>
  <property name="kdenlive:original.meta.attr.0.stream.vendor_id.markup">[0][0][0][0]</property>
  <property name="kdenlive:original.meta.attr.0.stream.encoder.markup">Lavc59.37.100 libx264</property>
  <property name="kdenlive:original.meta.attr.major_brand.markup">isom</property>
  <property name="kdenlive:original.meta.attr.minor_version.markup">512</property>
  <property name="kdenlive:original.meta.attr.compatible_brands.markup">isomiso2avc1mp41</property>
  <property name="kdenlive:original.meta.attr.encoder.markup">Lavf59.27.100</property>
  <property name="kdenlive:original.meta.attr.comment.markup">Rendered with Manim Community v0.17.2</property>
  <property name="kdenlive:original.seekable">1</property>
  <property name="kdenlive:original.width">2160</property>
  <property name="kdenlive:original.height">3840</property>
  <property name="kdenlive:original.meta.media.sample_aspect_num">1</property>
  <property name="kdenlive:original.meta.media.sample_aspect_den">1</property>
  <property name="kdenlive:original.aspect_ratio">1</property>
  <property name="kdenlive:original.format">3</property>
  <property name="kdenlive:original.audio_index">-1</property>
  <property name="kdenlive:original.video_index">0</property>
  <property name="kdenlive:original.mute_on_pause">0</property>
  <property name="kdenlive:original.mlt_service">avformat-novalidate</property>
  <property name="kdenlive:original.meta.media.frame_rate_num">60</property>
  <property name="kdenlive:original.meta.media.frame_rate_den">1</property>
  <property name="kdenlive:original.meta.media.colorspace">709</property>
  <property name="kdenlive:original.meta.media.color_trc">2</property>
  <property name="kdenlive:original.meta.media.has_b_frames">2</property>
  <property name="kdenlive:original.meta.media.width">2160</property>
  <property name="kdenlive:original.meta.media.height">3840</property>
  <property name="kdenlive:original.meta.media.color_range">mpeg</property>
  <property name="kdenlive:original.meta.media.top_field_first">0</property>
  <property name="kdenlive:original.meta.media.progressive">1</property>
  <property name="kdenlive:original.kdenlive:clip_type">2</property>
  <property name="kdenlive:original.kdenlive:folderid">5</property>
  <property name="kdenlive:original.kdenlive:id">8</property>
  <property name="kdenlive:original.kdenlive:file_size">153007</property>
  <property name="kdenlive:original.kdenlive:file_hash">1f1b7efe38fa7e8601cb38cd3ee2acf3</property>
  <property name="kdenlive:original.backup">1</property>
  <property name="kdenlive:file_hash">1f1b7efe38fa7e8601cb38cd3ee2acf3</property>
  <property name="meta.media.frame_rate_num">60</property>
  <property name="meta.media.frame_rate_den">1</property>
  <property name="meta.media.colorspace">601</property>
  <property name="meta.media.color_trc">2</property>
  <property name="meta.media.has_b_frames">0</property>
  <property name="meta.media.width">640</property>
  <property name="meta.media.height">1138</property>
  <property name="meta.media.color_range">full</property>
  <property name="meta.media.top_field_first">0</property>
  <property name="meta.media.progressive">1</property>
 </producer>
 <producer id="producer13" in="00:00:00.000" out="00:00:00.983">
  <property name="length">60</property>
  <property name="eof">pause</property>
  <property name="resource">/home/xiaoxiae/.cache/kdenlive/proxy/488f4e575975a334d875f814912b1ac0.mkv</property>
  <property name="meta.media.nb_streams">1</property>
  <property name="meta.media.0.stream.type">video</property>
  <property name="meta.media.0.stream.frame_rate">60</property>
  <property name="meta.media.0.stream.sample_aspect_ratio">0</property>
  <property name="meta.media.0.codec.width">640</property>
  <property name="meta.media.0.codec.height">1138</property>
  <property name="meta.media.0.codec.rotate">0</property>
  <property name="meta.media.0.codec.pix_fmt">yuvj420p</property>
  <property name="meta.media.0.codec.sample_aspect_ratio">0</property>
  <property name="meta.media.0.codec.colorspace">601</property>
  <property name="meta.media.0.codec.name">mjpeg</property>
  <property name="meta.media.0.codec.long_name">MJPEG (Motion JPEG)</property>
  <property name="meta.media.0.codec.bit_rate">0</property>
  <property name="meta.attr.0.stream.HANDLER_NAME.markup">VideoHandler</property>
  <property name="meta.attr.0.stream.VENDOR_ID.markup">[0][0][0][0]</property>
  <property name="meta.attr.0.stream.ENCODER.markup">Lavc59.37.100 mjpeg</property>
  <property name="meta.attr.0.stream.DURATION.markup">00:00:01.000000000</property>
  <property name="meta.attr.COMMENT.markup">Rendered with Manim Community v0.17.2</property>
  <property name="meta.attr.MAJOR_BRAND.markup">isom</property>
  <property name="meta.attr.MINOR_VERSION.markup">512</property>
  <property name="meta.attr.COMPATIBLE_BRANDS.markup">isomiso2avc1mp41</property>
  <property name="meta.attr.ENCODER.markup">Lavf59.27.100</property>
  <property name="seekable">1</property>
  <property name="meta.media.sample_aspect_num">1</property>
  <property name="meta.media.sample_aspect_den">1</property>
  <property name="aspect_ratio">1</property>
  <property name="format">3</property>
  <property name="audio_index">-1</property>
  <property name="video_index">0</property>
  <property name="mute_on_pause">0</property>
  <property name="mlt_service">avformat-novalidate</property>
  <property name="kdenlive:clipname">12.mp4</property>
  <property name="kdenlive:clip_type">2</property>
  <property name="kdenlive:folderid">5</property>
  <property name="kdenlive:id">9</property>
  <property name="kdenlive:file_size">248180</property>
  <property name="kdenlive:proxy">/home/xiaoxiae/.cache/kdenlive/proxy/488f4e575975a334d875f814912b1ac0.mkv</property>
  <property name="kdenlive:originalurl">video/Introo/12.mp4</property>
  <property name="kdenlive:original.mlt_type">producer</property>
  <property name="kdenlive:original.in">0</property>
  <property name="kdenlive:original.out">59</property>
  <property name="kdenlive:original.length">60</property>
  <property name="kdenlive:original.eof">pause</property>
  <property name="kdenlive:original.resource">video/Introo/12.mp4</property>
  <property name="kdenlive:original.meta.media.nb_streams">1</property>
  <property name="kdenlive:original.meta.media.0.stream.type">video</property>
  <property name="kdenlive:original.meta.media.0.stream.frame_rate">60</property>
  <property name="kdenlive:original.meta.media.0.stream.sample_aspect_ratio">0</property>
  <property name="kdenlive:original.meta.media.0.codec.width">2160</property>
  <property name="kdenlive:original.meta.media.0.codec.height">3840</property>
  <property name="kdenlive:original.meta.media.0.codec.rotate">0</property>
  <property name="kdenlive:original.meta.media.0.codec.pix_fmt">yuv420p</property>
  <property name="kdenlive:original.meta.media.0.codec.sample_aspect_ratio">0</property>
  <property name="kdenlive:original.meta.media.0.codec.colorspace">709</property>
  <property name="kdenlive:original.meta.media.0.codec.name">h264</property>
  <property name="kdenlive:original.meta.media.0.codec.long_name">H.264 / AVC / MPEG-4 AVC / MPEG-4 part 10</property>
  <property name="kdenlive:original.meta.media.0.codec.bit_rate">1972384</property>
  <property name="kdenlive:original.meta.attr.0.stream.handler_name.markup">VideoHandler</property>
  <property name="kdenlive:original.meta.attr.0.stream.vendor_id.markup">[0][0][0][0]</property>
  <property name="kdenlive:original.meta.attr.0.stream.encoder.markup">Lavc59.37.100 libx264</property>
  <property name="kdenlive:original.meta.attr.major_brand.markup">isom</property>
  <property name="kdenlive:original.meta.attr.minor_version.markup">512</property>
  <property name="kdenlive:original.meta.attr.compatible_brands.markup">isomiso2avc1mp41</property>
  <property name="kdenlive:original.meta.attr.encoder.markup">Lavf59.27.100</property>
  <property name="kdenlive:original.meta.attr.comment.markup">Rendered with Manim Community v0.17.2</property>
  <property name="kdenlive:original.seekable">1</property>
  <property name="kdenlive:original.width">2160</property>
  <property name="kdenlive:original.height">3840</property>
  <property name="kdenlive:original.meta.media.sample_aspect_num">1</property>
  <property name="kdenlive:original.meta.media.sample_aspect_den">1</property>
  <property name="kdenlive:original.aspect_ratio">1</property>
  <property name="kdenlive:original.format">3</property>
  <property name="kdenlive:original.audio_index">-1</property>
  <property name="kdenlive:original.video_index">0</property>
  <property name="kdenlive:original.mute_on_pause">0</property>
  <property name="kdenlive:original.mlt_service">avformat-novalidate</property>
  <property name="kdenlive:original.meta.media.frame_rate_num">60</property>
  <property name="kdenlive:original.meta.media.frame_rate_den">1</property>
  <property name="kdenlive:original.meta.media.colorspace">709</property>
  <property name="kdenlive:original.meta.media.color_trc">2</property>
  <property name="kdenlive:original.meta.media.has_b_frames">2</property>
  <property name="kdenlive:original.meta.media.width">2160</property>
  <property name="kdenlive:original.meta.media.height">3840</property>
  <property name="kdenlive:original.meta.media.color_range">mpeg</property>
  <property name="kdenlive:original.meta.media.top_field_first">0</property>
  <property name="kdenlive:original.meta.media.progressive">1</property>
  <property name="kdenlive:original.kdenlive:clip_type">2</property>
  <property name="kdenlive:original.kdenlive:folderid">5</property>
  <property name="kdenlive:original.kdenlive:id">9</property>
  <property name="kdenlive:original.kdenlive:file_size">248180</property>
  <property name="kdenlive:original.kdenlive:file_hash">488f4e575975a334d875f814912b1ac0</property>
  <property name="kdenlive:original.backup">1</property>
  <property name="kdenlive:file_hash">488f4e575975a334d875f814912b1ac0</property>
  <property name="meta.media.frame_rate_num">60</property>
  <property name="meta.media.frame_rate_den">1</property>
  <property name="meta.media.colorspace">601</property>
  <property name="meta.media.color_trc">2</property>
  <property name="meta.media.has_b_frames">0</property>
  <property name="meta.media.width">640</property>
  <property name="meta.media.height">1138</property>
  <property name="meta.media.color_range">full</property>
  <property name="meta.media.top_field_first">0</property>
  <property name="meta.media.progressive">1</property>
 </producer>
 <producer id="producer14" in="00:00:00.000" out="00:00:01.733">
  <property name="length">105</property>
  <property name="eof">pause</property>
  <property name="resource">/home/xiaoxiae/.cache/kdenlive/proxy/81e0da60a88621e3753be6841989b7bf.mkv</property>
  <property name="meta.media.nb_streams">1</property>
  <property name="meta.media.0.stream.type">video</property>
  <property name="meta.media.0.stream.frame_rate">60</property>
  <property name="meta.media.0.stream.sample_aspect_ratio">0</property>
  <property name="meta.media.0.codec.width">640</property>
  <property name="meta.media.0.codec.height">1138</property>
  <property name="meta.media.0.codec.rotate">0</property>
  <property name="meta.media.0.codec.pix_fmt">yuvj420p</property>
  <property name="meta.media.0.codec.sample_aspect_ratio">0</property>
  <property name="meta.media.0.codec.colorspace">601</property>
  <property name="meta.media.0.codec.name">mjpeg</property>
  <property name="meta.media.0.codec.long_name">MJPEG (Motion JPEG)</property>
  <property name="meta.media.0.codec.bit_rate">0</property>
  <property name="meta.attr.0.stream.HANDLER_NAME.markup">VideoHandler</property>
  <property name="meta.attr.0.stream.VENDOR_ID.markup">[0][0][0][0]</property>
  <property name="meta.attr.0.stream.ENCODER.markup">Lavc59.37.100 mjpeg</property>
  <property name="meta.attr.0.stream.DURATION.markup">00:00:01.750000000</property>
  <property name="meta.attr.COMMENT.markup">Rendered with Manim Community v0.17.2</property>
  <property name="meta.attr.MAJOR_BRAND.markup">isom</property>
  <property name="meta.attr.MINOR_VERSION.markup">512</property>
  <property name="meta.attr.COMPATIBLE_BRANDS.markup">isomiso2avc1mp41</property>
  <property name="meta.attr.ENCODER.markup">Lavf59.27.100</property>
  <property name="seekable">1</property>
  <property name="meta.media.sample_aspect_num">1</property>
  <property name="meta.media.sample_aspect_den">1</property>
  <property name="aspect_ratio">1</property>
  <property name="format">3</property>
  <property name="audio_index">-1</property>
  <property name="video_index">0</property>
  <property name="mute_on_pause">0</property>
  <property name="mlt_service">avformat-novalidate</property>
  <property name="kdenlive:clipname">13.mp4</property>
  <property name="kdenlive:clip_type">2</property>
  <property name="kdenlive:folderid">5</property>
  <property name="kdenlive:id">10</property>
  <property name="kdenlive:file_size">595466</property>
  <property name="kdenlive:proxy">/home/xiaoxiae/.cache/kdenlive/proxy/81e0da60a88621e3753be6841989b7bf.mkv</property>
  <property name="kdenlive:originalurl">video/Introo/13.mp4</property>
  <property name="kdenlive:original.mlt_type">producer</property>
  <property name="kdenlive:original.in">0</property>
  <property name="kdenlive:original.out">104</property>
  <property name="kdenlive:original.length">105</property>
  <property name="kdenlive:original.eof">pause</property>
  <property name="kdenlive:original.resource">video/Introo/13.mp4</property>
  <property name="kdenlive:original.meta.media.nb_streams">1</property>
  <property name="kdenlive:original.meta.media.0.stream.type">video</property>
  <property name="kdenlive:original.meta.media.0.stream.frame_rate">60</property>
  <property name="kdenlive:original.meta.media.0.stream.sample_aspect_ratio">0</property>
  <property name="kdenlive:original.meta.media.0.codec.width">2160</property>
  <property name="kdenlive:original.meta.media.0.codec.height">3840</property>
  <property name="kdenlive:original.meta.media.0.codec.rotate">0</property>
  <property name="kdenlive:original.meta.media.0.codec.pix_fmt">yuv420p</property>
  <property name="kdenlive:original.meta.media.0.codec.sample_aspect_ratio">0</property>
  <property name="kdenlive:original.meta.media.0.codec.colorspace">709</property>
  <property name="kdenlive:original.meta.media.0.codec.name">h264</property>
  <property name="kdenlive:original.meta.media.0.codec.long_name">H.264 / AVC / MPEG-4 AVC / MPEG-4 part 10</property>
  <property name="kdenlive:original.meta.media.0.codec.bit_rate">2713371</property>
  <property name="kdenlive:original.meta.attr.0.stream.handler_name.markup">VideoHandler</property>
  <property name="kdenlive:original.meta.attr.0.stream.vendor_id.markup">[0][0][0][0]</property>
  <property name="kdenlive:original.meta.attr.0.stream.encoder.markup">Lavc59.37.100 libx264</property>
  <property name="kdenlive:original.meta.attr.major_brand.markup">isom</property>
  <property name="kdenlive:original.meta.attr.minor_version.markup">512</property>
  <property name="kdenlive:original.meta.attr.compatible_brands.markup">isomiso2avc1mp41</property>
  <property name="kdenlive:original.meta.attr.encoder.markup">Lavf59.27.100</property>
  <property name="kdenlive:original.meta.attr.comment.markup">Rendered with Manim Community v0.17.2</property>
  <property name="kdenlive:original.seekable">1</property>
  <property name="kdenlive:original.width">2160</property>
  <property name="kdenlive:original.height">3840</property>
  <property name="kdenlive:original.meta.media.sample_aspect_num">1</property>
  <property name="kdenlive:original.meta.media.sample_aspect_den">1</property>
  <property name="kdenlive:original.aspect_ratio">1</property>
  <property name="kdenlive:original.format">3</property>
  <property name="kdenlive:original.audio_index">-1</property>
  <property name="kdenlive:original.video_index">0</property>
  <property name="kdenlive:original.mute_on_pause">0</property>
  <property name="kdenlive:original.mlt_service">avformat-novalidate</property>
  <property name="kdenlive:original.meta.media.frame_rate_num">60</property>
  <property name="kdenlive:original.meta.media.frame_rate_den">1</property>
  <property name="kdenlive:original.meta.media.colorspace">709</property>
  <property name="kdenlive:original.meta.media.color_trc">2</property>
  <property name="kdenlive:original.meta.media.has_b_frames">2</property>
  <property name="kdenlive:original.meta.media.width">2160</property>
  <property name="kdenlive:original.meta.media.height">3840</property>
  <property name="kdenlive:original.meta.media.color_range">mpeg</property>
  <property name="kdenlive:original.meta.media.top_field_first">0</property>
  <property name="kdenlive:original.meta.media.progressive">1</property>
  <property name="kdenlive:original.kdenlive:clip_type">2</property>
  <property name="kdenlive:original.kdenlive:folderid">5</property>
  <property name="kdenlive:original.kdenlive:id">10</property>
  <property name="kdenlive:original.kdenlive:file_size">595466</property>
  <property name="kdenlive:original.kdenlive:file_hash">81e0da60a88621e3753be6841989b7bf</property>
  <property name="kdenlive:original.backup">1</property>
  <property name="kdenlive:file_hash">81e0da60a88621e3753be6841989b7bf</property>
  <property name="meta.media.frame_rate_num">60</property>
  <property name="meta.media.frame_rate_den">1</property>
  <property name="meta.media.colorspace">601</property>
  <property name="meta.media.color_trc">2</property>
  <property name="meta.media.has_b_frames">0</property>
  <property name="meta.media.width">640</property>
  <property name="meta.media.height">1138</property>
  <property name="meta.media.color_range">full</property>
  <property name="meta.media.top_field_first">0</property>
  <property name="meta.media.progressive">1</property>
 </producer>
 <producer id="producer16" in="00:00:00.000" out="00:00:00.983">
  <property name="length">60</property>
  <property name="eof">pause</property>
  <property name="resource">/home/xiaoxiae/.cache/kdenlive/proxy/4b4eea2842d35116db06caa29c38b231.mkv</property>
  <property name="meta.media.nb_streams">1</property>
  <property name="meta.media.0.stream.type">video</property>
  <property name="meta.media.0.stream.frame_rate">60</property>
  <property name="meta.media.0.stream.sample_aspect_ratio">0</property>
  <property name="meta.media.0.codec.width">640</property>
  <property name="meta.media.0.codec.height">1138</property>
  <property name="meta.media.0.codec.rotate">0</property>
  <property name="meta.media.0.codec.pix_fmt">yuvj420p</property>
  <property name="meta.media.0.codec.sample_aspect_ratio">0</property>
  <property name="meta.media.0.codec.colorspace">601</property>
  <property name="meta.media.0.codec.name">mjpeg</property>
  <property name="meta.media.0.codec.long_name">MJPEG (Motion JPEG)</property>
  <property name="meta.media.0.codec.bit_rate">0</property>
  <property name="meta.attr.0.stream.HANDLER_NAME.markup">VideoHandler</property>
  <property name="meta.attr.0.stream.VENDOR_ID.markup">[0][0][0][0]</property>
  <property name="meta.attr.0.stream.ENCODER.markup">Lavc59.37.100 mjpeg</property>
  <property name="meta.attr.0.stream.DURATION.markup">00:00:01.000000000</property>
  <property name="meta.attr.COMMENT.markup">Rendered with Manim Community v0.17.2</property>
  <property name="meta.attr.MAJOR_BRAND.markup">isom</property>
  <property name="meta.attr.MINOR_VERSION.markup">512</property>
  <property name="meta.attr.COMPATIBLE_BRANDS.markup">isomiso2avc1mp41</property>
  <property name="meta.attr.ENCODER.markup">Lavf59.27.100</property>
  <property name="seekable">1</property>
  <property name="meta.media.sample_aspect_num">1</property>
  <property name="meta.media.sample_aspect_den">1</property>
  <property name="aspect_ratio">1</property>
  <property name="format">3</property>
  <property name="audio_index">-1</property>
  <property name="video_index">0</property>
  <property name="mute_on_pause">0</property>
  <property name="mlt_service">avformat-novalidate</property>
  <property name="kdenlive:clipname">14.mp4</property>
  <property name="kdenlive:clip_type">2</property>
  <property name="kdenlive:folderid">5</property>
  <property name="kdenlive:id">11</property>
  <property name="kdenlive:file_size">268765</property>
  <property name="kdenlive:proxy">/home/xiaoxiae/.cache/kdenlive/proxy/4b4eea2842d35116db06caa29c38b231.mkv</property>
  <property name="kdenlive:originalurl">video/Introo/14.mp4</property>
  <property name="kdenlive:original.mlt_type">producer</property>
  <property name="kdenlive:original.in">0</property>
  <property name="kdenlive:original.out">59</property>
  <property name="kdenlive:original.length">60</property>
  <property name="kdenlive:original.eof">pause</property>
  <property name="kdenlive:original.resource">video/Introo/14.mp4</property>
  <property name="kdenlive:original.meta.media.nb_streams">1</property>
  <property name="kdenlive:original.meta.media.0.stream.type">video</property>
  <property name="kdenlive:original.meta.media.0.stream.frame_rate">60</property>
  <property name="kdenlive:original.meta.media.0.stream.sample_aspect_ratio">0</property>
  <property name="kdenlive:original.meta.media.0.codec.width">2160</property>
  <property name="kdenlive:original.meta.media.0.codec.height">3840</property>
  <property name="kdenlive:original.meta.media.0.codec.rotate">0</property>
  <property name="kdenlive:original.meta.media.0.codec.pix_fmt">yuv420p</property>
  <property name="kdenlive:original.meta.media.0.codec.sample_aspect_ratio">0</property>
  <property name="kdenlive:original.meta.media.0.codec.colorspace">709</property>
  <property name="kdenlive:original.meta.media.0.codec.name">h264</property>
  <property name="kdenlive:original.meta.media.0.codec.long_name">H.264 / AVC / MPEG-4 AVC / MPEG-4 part 10</property>
  <property name="kdenlive:original.meta.media.0.codec.bit_rate">2137768</property>
  <property name="kdenlive:original.meta.attr.0.stream.handler_name.markup">VideoHandler</property>
  <property name="kdenlive:original.meta.attr.0.stream.vendor_id.markup">[0][0][0][0]</property>
  <property name="kdenlive:original.meta.attr.0.stream.encoder.markup">Lavc59.37.100 libx264</property>
  <property name="kdenlive:original.meta.attr.major_brand.markup">isom</property>
  <property name="kdenlive:original.meta.attr.minor_version.markup">512</property>
  <property name="kdenlive:original.meta.attr.compatible_brands.markup">isomiso2avc1mp41</property>
  <property name="kdenlive:original.meta.attr.encoder.markup">Lavf59.27.100</property>
  <property name="kdenlive:original.meta.attr.comment.markup">Rendered with Manim Community v0.17.2</property>
  <property name="kdenlive:original.seekable">1</property>
  <property name="kdenlive:original.width">2160</property>
  <property name="kdenlive:original.height">3840</property>
  <property name="kdenlive:original.meta.media.sample_aspect_num">1</property>
  <property name="kdenlive:original.meta.media.sample_aspect_den">1</property>
  <property name="kdenlive:original.aspect_ratio">1</property>
  <property name="kdenlive:original.format">3</property>
  <property name="kdenlive:original.audio_index">-1</property>
  <property name="kdenlive:original.video_index">0</property>
  <property name="kdenlive:original.mute_on_pause">0</property>
  <property name="kdenlive:original.mlt_service">avformat-novalidate</property>
  <property name="kdenlive:original.meta.media.frame_rate_num">60</property>
  <property name="kdenlive:original.meta.media.frame_rate_den">1</property>
  <property name="kdenlive:original.meta.media.colorspace">709</property>
  <property name="kdenlive:original.meta.media.color_trc">2</property>
  <property name="kdenlive:original.meta.media.has_b_frames">2</property>
  <property name="kdenlive:original.meta.media.width">2160</property>
  <property name="kdenlive:original.meta.media.height">3840</property>
  <property name="kdenlive:original.meta.media.color_range">mpeg</property>
  <property name="kdenlive:original.meta.media.top_field_first">0</property>
  <property name="kdenlive:original.meta.media.progressive">1</property>
  <property name="kdenlive:original.kdenlive:clip_type">2</property>
  <property name="kdenlive:original.kdenlive:folderid">5</property>
  <property name="kdenlive:original.kdenlive:id">11</property>
  <property name="kdenlive:original.kdenlive:file_size">268765</property>
  <property name="kdenlive:original.kdenlive:file_hash">4b4eea2842d35116db06caa29c38b231</property>
  <property name="kdenlive:original.backup">1</property>
  <property name="kdenlive:file_hash">4b4eea2842d35116db06caa29c38b231</property>
  <property name="meta.media.frame_rate_num">60</property>
  <property name="meta.media.frame_rate_den">1</property>
  <property name="meta.media.colorspace">601</property>
  <property name="meta.media.color_trc">2</property>
  <property name="meta.media.has_b_frames">0</property>
  <property name="meta.media.width">640</property>
  <property name="meta.media.height">1138</property>
  <property name="meta.media.color_range">full</property>
  <property name="meta.media.top_field_first">0</property>
  <property name="meta.media.progressive">1</property>
 </producer>
 <producer id="producer4" in="00:00:00.000" out="00:00:01.483">
  <property name="length">90</property>
  <property name="eof">pause</property>
  <property name="resource">/home/xiaoxiae/.cache/kdenlive/proxy/0b89cd57b68835ad6c09b14c719bfc6c.mkv</property>
  <property name="meta.media.nb_streams">1</property>
  <property name="meta.media.0.stream.type">video</property>
  <property name="meta.media.0.stream.frame_rate">60</property>
  <property name="meta.media.0.stream.sample_aspect_ratio">0</property>
  <property name="meta.media.0.codec.width">640</property>
  <property name="meta.media.0.codec.height">1138</property>
  <property name="meta.media.0.codec.rotate">0</property>
  <property name="meta.media.0.codec.pix_fmt">yuvj420p</property>
  <property name="meta.media.0.codec.sample_aspect_ratio">0</property>
  <property name="meta.media.0.codec.colorspace">601</property>
  <property name="meta.media.0.codec.name">mjpeg</property>
  <property name="meta.media.0.codec.long_name">MJPEG (Motion JPEG)</property>
  <property name="meta.media.0.codec.bit_rate">0</property>
  <property name="meta.attr.0.stream.HANDLER_NAME.markup">VideoHandler</property>
  <property name="meta.attr.0.stream.VENDOR_ID.markup">[0][0][0][0]</property>
  <property name="meta.attr.0.stream.ENCODER.markup">Lavc59.37.100 mjpeg</property>
  <property name="meta.attr.0.stream.DURATION.markup">00:00:01.500000000</property>
  <property name="meta.attr.COMMENT.markup">Rendered with Manim Community v0.17.2</property>
  <property name="meta.attr.MAJOR_BRAND.markup">isom</property>
  <property name="meta.attr.MINOR_VERSION.markup">512</property>
  <property name="meta.attr.COMPATIBLE_BRANDS.markup">isomiso2avc1mp41</property>
  <property name="meta.attr.ENCODER.markup">Lavf59.27.100</property>
  <property name="seekable">1</property>
  <property name="meta.media.sample_aspect_num">1</property>
  <property name="meta.media.sample_aspect_den">1</property>
  <property name="aspect_ratio">1</property>
  <property name="format">3</property>
  <property name="audio_index">-1</property>
  <property name="video_index">0</property>
  <property name="mute_on_pause">0</property>
  <property name="mlt_service">avformat-novalidate</property>
  <property name="kdenlive:clipname">2.mp4</property>
  <property name="kdenlive:clip_type">2</property>
  <property name="kdenlive:folderid">5</property>
  <property name="kdenlive:id">12</property>
  <property name="kdenlive:file_size">225812</property>
  <property name="kdenlive:proxy">/home/xiaoxiae/.cache/kdenlive/proxy/0b89cd57b68835ad6c09b14c719bfc6c.mkv</property>
  <property name="kdenlive:originalurl">video/Introo/2.mp4</property>
  <property name="kdenlive:original.mlt_type">producer</property>
  <property name="kdenlive:original.in">0</property>
  <property name="kdenlive:original.out">89</property>
  <property name="kdenlive:original.length">90</property>
  <property name="kdenlive:original.eof">pause</property>
  <property name="kdenlive:original.resource">video/Introo/2.mp4</property>
  <property name="kdenlive:original.meta.media.nb_streams">1</property>
  <property name="kdenlive:original.meta.media.0.stream.type">video</property>
  <property name="kdenlive:original.meta.media.0.stream.frame_rate">60</property>
  <property name="kdenlive:original.meta.media.0.stream.sample_aspect_ratio">0</property>
  <property name="kdenlive:original.meta.media.0.codec.width">2160</property>
  <property name="kdenlive:original.meta.media.0.codec.height">3840</property>
  <property name="kdenlive:original.meta.media.0.codec.rotate">0</property>
  <property name="kdenlive:original.meta.media.0.codec.pix_fmt">yuv420p</property>
  <property name="kdenlive:original.meta.media.0.codec.sample_aspect_ratio">0</property>
  <property name="kdenlive:original.meta.media.0.codec.colorspace">709</property>
  <property name="kdenlive:original.meta.media.0.codec.name">h264</property>
  <property name="kdenlive:original.meta.media.0.codec.long_name">H.264 / AVC / MPEG-4 AVC / MPEG-4 part 10</property>
  <property name="kdenlive:original.meta.media.0.codec.bit_rate">1194005</property>
  <property name="kdenlive:original.meta.attr.0.stream.handler_name.markup">VideoHandler</property>
  <property name="kdenlive:original.meta.attr.0.stream.vendor_id.markup">[0][0][0][0]</property>
  <property name="kdenlive:original.meta.attr.0.stream.encoder.markup">Lavc59.37.100 libx264</property>
  <property name="kdenlive:original.meta.attr.major_brand.markup">isom</property>
  <property name="kdenlive:original.meta.attr.minor_version.markup">512</property>
  <property name="kdenlive:original.meta.attr.compatible_brands.markup">isomiso2avc1mp41</property>
  <property name="kdenlive:original.meta.attr.encoder.markup">Lavf59.27.100</property>
  <property name="kdenlive:original.meta.attr.comment.markup">Rendered with Manim Community v0.17.2</property>
  <property name="kdenlive:original.seekable">1</property>
  <property name="kdenlive:original.width">2160</property>
  <property name="kdenlive:original.height">3840</property>
  <property name="kdenlive:original.meta.media.sample_aspect_num">1</property>
  <property name="kdenlive:original.meta.media.sample_aspect_den">1</property>
  <property name="kdenlive:original.aspect_ratio">1</property>
  <property name="kdenlive:original.format">3</property>
  <property name="kdenlive:original.audio_index">-1</property>
  <property name="kdenlive:original.video_index">0</property>
  <property name="kdenlive:original.mute_on_pause">0</property>
  <property name="kdenlive:original.mlt_service">avformat-novalidate</property>
  <property name="kdenlive:original.meta.media.frame_rate_num">60</property>
  <property name="kdenlive:original.meta.media.frame_rate_den">1</property>
  <property name="kdenlive:original.meta.media.colorspace">709</property>
  <property name="kdenlive:original.meta.media.color_trc">2</property>
  <property name="kdenlive:original.meta.media.has_b_frames">2</property>
  <property name="kdenlive:original.meta.media.width">2160</property>
  <property name="kdenlive:original.meta.media.height">3840</property>
  <property name="kdenlive:original.meta.media.color_range">mpeg</property>
  <property name="kdenlive:original.meta.media.top_field_first">0</property>
  <property name="kdenlive:original.meta.media.progressive">1</property>
  <property name="kdenlive:original.kdenlive:clip_type">2</property>
  <property name="kdenlive:original.kdenlive:folderid">5</property>
  <property name="kdenlive:original.kdenlive:id">12</property>
  <property name="kdenlive:original.kdenlive:file_size">225812</property>
  <property name="kdenlive:original.kdenlive:file_hash">0b89cd57b68835ad6c09b14c719bfc6c</property>
  <property name="kdenlive:original.backup">1</property>
  <property name="kdenlive:file_hash">0b89cd57b68835ad6c09b14c719bfc6c</property>
  <property name="meta.media.frame_rate_num">60</property>
  <property name="meta.media.frame_rate_den">1</property>
  <property name="meta.media.colorspace">601</property>
  <property name="meta.media.color_trc">2</property>
  <property name="meta.media.has_b_frames">0</property>
  <property name="meta.media.width">640</property>
  <property name="meta.media.height">1138</property>
  <property name="meta.media.color_range">full</property>
  <property name="meta.media.top_field_first">0</property>
  <property name="meta.media.progressive">1</property>
 </producer>
 <producer id="producer6" in="00:00:00.000" out="00:00:01.733">
  <property name="length">105</property>
  <property name="eof">pause</property>
  <property name="resource">/home/xiaoxiae/.cache/kdenlive/proxy/eb9d0e5bf0ea9a77bbb7776fed1462bd.mkv</property>
  <property name="meta.media.nb_streams">1</property>
  <property name="meta.media.0.stream.type">video</property>
  <property name="meta.media.0.stream.frame_rate">60</property>
  <property name="meta.media.0.stream.sample_aspect_ratio">0</property>
  <property name="meta.media.0.codec.width">640</property>
  <property name="meta.media.0.codec.height">1138</property>
  <property name="meta.media.0.codec.rotate">0</property>
  <property name="meta.media.0.codec.pix_fmt">yuvj420p</property>
  <property name="meta.media.0.codec.sample_aspect_ratio">0</property>
  <property name="meta.media.0.codec.colorspace">601</property>
  <property name="meta.media.0.codec.name">mjpeg</property>
  <property name="meta.media.0.codec.long_name">MJPEG (Motion JPEG)</property>
  <property name="meta.media.0.codec.bit_rate">0</property>
  <property name="meta.attr.0.stream.HANDLER_NAME.markup">VideoHandler</property>
  <property name="meta.attr.0.stream.VENDOR_ID.markup">[0][0][0][0]</property>
  <property name="meta.attr.0.stream.ENCODER.markup">Lavc59.37.100 mjpeg</property>
  <property name="meta.attr.0.stream.DURATION.markup">00:00:01.750000000</property>
  <property name="meta.attr.COMMENT.markup">Rendered with Manim Community v0.17.2</property>
  <property name="meta.attr.MAJOR_BRAND.markup">isom</property>
  <property name="meta.attr.MINOR_VERSION.markup">512</property>
  <property name="meta.attr.COMPATIBLE_BRANDS.markup">isomiso2avc1mp41</property>
  <property name="meta.attr.ENCODER.markup">Lavf59.27.100</property>
  <property name="seekable">1</property>
  <property name="meta.media.sample_aspect_num">1</property>
  <property name="meta.media.sample_aspect_den">1</property>
  <property name="aspect_ratio">1</property>
  <property name="format">3</property>
  <property name="audio_index">-1</property>
  <property name="video_index">0</property>
  <property name="mute_on_pause">0</property>
  <property name="mlt_service">avformat-novalidate</property>
  <property name="kdenlive:clipname">3.mp4</property>
  <property name="kdenlive:clip_type">2</property>
  <property name="kdenlive:folderid">5</property>
  <property name="kdenlive:id">13</property>
  <property name="kdenlive:file_size">441722</property>
  <property name="kdenlive:proxy">/home/xiaoxiae/.cache/kdenlive/proxy/eb9d0e5bf0ea9a77bbb7776fed1462bd.mkv</property>
  <property name="kdenlive:originalurl">video/Introo/3.mp4</property>
  <property name="kdenlive:original.mlt_type">producer</property>
  <property name="kdenlive:original.in">0</property>
  <property name="kdenlive:original.out">104</property>
  <property name="kdenlive:original.length">105</property>
  <property name="kdenlive:original.eof">pause</property>
  <property name="kdenlive:original.resource">video/Introo/3.mp4</property>
  <property name="kdenlive:original.meta.media.nb_streams">1</property>
  <property name="kdenlive:original.meta.media.0.stream.type">video</property>
  <property name="kdenlive:original.meta.media.0.stream.frame_rate">60</property>
  <property name="kdenlive:original.meta.media.0.stream.sample_aspect_ratio">0</property>
  <property name="kdenlive:original.meta.media.0.codec.width">2160</property>
  <property name="kdenlive:original.meta.media.0.codec.height">3840</property>
  <property name="kdenlive:original.meta.media.0.codec.rotate">0</property>
  <property name="kdenlive:original.meta.media.0.codec.pix_fmt">yuv420p</property>
  <property name="kdenlive:original.meta.media.0.codec.sample_aspect_ratio">0</property>
  <property name="kdenlive:original.meta.media.0.codec.colorspace">709</property>
  <property name="kdenlive:original.meta.media.0.codec.name">h264</property>
  <property name="kdenlive:original.meta.media.0.codec.long_name">H.264 / AVC / MPEG-4 AVC / MPEG-4 part 10</property>
  <property name="kdenlive:original.meta.media.0.codec.bit_rate">1960146</property>
  <property name="kdenlive:original.meta.attr.0.stream.handler_name.markup">VideoHandler</property>
  <property name="kdenlive:original.meta.attr.0.stream.vendor_id.markup">[0][0][0][0]</property>
  <property name="kdenlive:original.meta.attr.0.stream.encoder.markup">Lavc59.37.100 libx264</property>
  <property name="kdenlive:original.meta.attr.major_brand.markup">isom</property>
  <property name="kdenlive:original.meta.attr.minor_version.markup">512</property>
  <property name="kdenlive:original.meta.attr.compatible_brands.markup">isomiso2avc1mp41</property>
  <property name="kdenlive:original.meta.attr.encoder.markup">Lavf59.27.100</property>
  <property name="kdenlive:original.meta.attr.comment.markup">Rendered with Manim Community v0.17.2</property>
  <property name="kdenlive:original.seekable">1</property>
  <property name="kdenlive:original.width">2160</property>
  <property name="kdenlive:original.height">3840</property>
  <property name="kdenlive:original.meta.media.sample_aspect_num">1</property>
  <property name="kdenlive:original.meta.media.sample_aspect_den">1</property>
  <property name="kdenlive:original.aspect_ratio">1</property>
  <property name="kdenlive:original.format">3</property>
  <property name="kdenlive:original.audio_index">-1</property>
  <property name="kdenlive:original.video_index">0</property>
  <property name="kdenlive:original.mute_on_pause">0</property>
  <property name="kdenlive:original.mlt_service">avformat-novalidate</property>
  <property name="kdenlive:original.meta.media.frame_rate_num">60</property>
  <property name="kdenlive:original.meta.media.frame_rate_den">1</property>
  <property name="kdenlive:original.meta.media.colorspace">709</property>
  <property name="kdenlive:original.meta.media.color_trc">2</property>
  <property name="kdenlive:original.meta.media.has_b_frames">2</property>
  <property name="kdenlive:original.meta.media.width">2160</property>
  <property name="kdenlive:original.meta.media.height">3840</property>
  <property name="kdenlive:original.meta.media.color_range">mpeg</property>
  <property name="kdenlive:original.meta.media.top_field_first">0</property>
  <property name="kdenlive:original.meta.media.progressive">1</property>
  <property name="kdenlive:original.kdenlive:clip_type">2</property>
  <property name="kdenlive:original.kdenlive:folderid">5</property>
  <property name="kdenlive:original.kdenlive:id">13</property>
  <property name="kdenlive:original.kdenlive:file_size">430866</property>
  <property name="kdenlive:original.kdenlive:file_hash">295fa29a793835a789d13ab985aeb422</property>
  <property name="kdenlive:original.backup">1</property>
  <property name="kdenlive:file_hash">eb9d0e5bf0ea9a77bbb7776fed1462bd</property>
  <property name="meta.media.frame_rate_num">60</property>
  <property name="meta.media.frame_rate_den">1</property>
  <property name="meta.media.colorspace">601</property>
  <property name="meta.media.color_trc">2</property>
  <property name="meta.media.has_b_frames">0</property>
  <property name="meta.media.width">640</property>
  <property name="meta.media.height">1138</property>
  <property name="meta.media.color_range">full</property>
  <property name="meta.media.top_field_first">0</property>
  <property name="meta.media.progressive">1</property>
 </producer>
 <producer id="producer7" in="00:00:00.000" out="00:00:01.483">
  <property name="length">90</property>
  <property name="eof">pause</property>
  <property name="resource">/home/xiaoxiae/.cache/kdenlive/proxy/3e7606f1125d60f98e1b317cb1cdfb3e.mkv</property>
  <property name="meta.media.nb_streams">1</property>
  <property name="meta.media.0.stream.type">video</property>
  <property name="meta.media.0.stream.frame_rate">60</property>
  <property name="meta.media.0.stream.sample_aspect_ratio">0</property>
  <property name="meta.media.0.codec.width">640</property>
  <property name="meta.media.0.codec.height">1138</property>
  <property name="meta.media.0.codec.rotate">0</property>
  <property name="meta.media.0.codec.pix_fmt">yuvj420p</property>
  <property name="meta.media.0.codec.sample_aspect_ratio">0</property>
  <property name="meta.media.0.codec.colorspace">601</property>
  <property name="meta.media.0.codec.name">mjpeg</property>
  <property name="meta.media.0.codec.long_name">MJPEG (Motion JPEG)</property>
  <property name="meta.media.0.codec.bit_rate">0</property>
  <property name="meta.attr.0.stream.HANDLER_NAME.markup">VideoHandler</property>
  <property name="meta.attr.0.stream.VENDOR_ID.markup">[0][0][0][0]</property>
  <property name="meta.attr.0.stream.ENCODER.markup">Lavc59.37.100 mjpeg</property>
  <property name="meta.attr.0.stream.DURATION.markup">00:00:01.500000000</property>
  <property name="meta.attr.COMMENT.markup">Rendered with Manim Community v0.17.2</property>
  <property name="meta.attr.MAJOR_BRAND.markup">isom</property>
  <property name="meta.attr.MINOR_VERSION.markup">512</property>
  <property name="meta.attr.COMPATIBLE_BRANDS.markup">isomiso2avc1mp41</property>
  <property name="meta.attr.ENCODER.markup">Lavf59.27.100</property>
  <property name="seekable">1</property>
  <property name="meta.media.sample_aspect_num">1</property>
  <property name="meta.media.sample_aspect_den">1</property>
  <property name="aspect_ratio">1</property>
  <property name="format">3</property>
  <property name="audio_index">-1</property>
  <property name="video_index">0</property>
  <property name="mute_on_pause">0</property>
  <property name="mlt_service">avformat-novalidate</property>
  <property name="kdenlive:clipname">4.mp4</property>
  <property name="kdenlive:clip_type">2</property>
  <property name="kdenlive:folderid">5</property>
  <property name="kdenlive:id">14</property>
  <property name="kdenlive:file_size">525924</property>
  <property name="kdenlive:proxy">/home/xiaoxiae/.cache/kdenlive/proxy/3e7606f1125d60f98e1b317cb1cdfb3e.mkv</property>
  <property name="kdenlive:originalurl">video/Introo/4.mp4</property>
  <property name="kdenlive:original.mlt_type">producer</property>
  <property name="kdenlive:original.in">0</property>
  <property name="kdenlive:original.out">89</property>
  <property name="kdenlive:original.length">90</property>
  <property name="kdenlive:original.eof">pause</property>
  <property name="kdenlive:original.resource">video/Introo/4.mp4</property>
  <property name="kdenlive:original.meta.media.nb_streams">1</property>
  <property name="kdenlive:original.meta.media.0.stream.type">video</property>
  <property name="kdenlive:original.meta.media.0.stream.frame_rate">60</property>
  <property name="kdenlive:original.meta.media.0.stream.sample_aspect_ratio">0</property>
  <property name="kdenlive:original.meta.media.0.codec.width">2160</property>
  <property name="kdenlive:original.meta.media.0.codec.height">3840</property>
  <property name="kdenlive:original.meta.media.0.codec.rotate">0</property>
  <property name="kdenlive:original.meta.media.0.codec.pix_fmt">yuv420p</property>
  <property name="kdenlive:original.meta.media.0.codec.sample_aspect_ratio">0</property>
  <property name="kdenlive:original.meta.media.0.codec.colorspace">709</property>
  <property name="kdenlive:original.meta.media.0.codec.name">h264</property>
  <property name="kdenlive:original.meta.media.0.codec.long_name">H.264 / AVC / MPEG-4 AVC / MPEG-4 part 10</property>
  <property name="kdenlive:original.meta.media.0.codec.bit_rate">2789776</property>
  <property name="kdenlive:original.meta.attr.0.stream.handler_name.markup">VideoHandler</property>
  <property name="kdenlive:original.meta.attr.0.stream.vendor_id.markup">[0][0][0][0]</property>
  <property name="kdenlive:original.meta.attr.0.stream.encoder.markup">Lavc59.37.100 libx264</property>
  <property name="kdenlive:original.meta.attr.major_brand.markup">isom</property>
  <property name="kdenlive:original.meta.attr.minor_version.markup">512</property>
  <property name="kdenlive:original.meta.attr.compatible_brands.markup">isomiso2avc1mp41</property>
  <property name="kdenlive:original.meta.attr.encoder.markup">Lavf59.27.100</property>
  <property name="kdenlive:original.meta.attr.comment.markup">Rendered with Manim Community v0.17.2</property>
  <property name="kdenlive:original.seekable">1</property>
  <property name="kdenlive:original.width">2160</property>
  <property name="kdenlive:original.height">3840</property>
  <property name="kdenlive:original.meta.media.sample_aspect_num">1</property>
  <property name="kdenlive:original.meta.media.sample_aspect_den">1</property>
  <property name="kdenlive:original.aspect_ratio">1</property>
  <property name="kdenlive:original.format">3</property>
  <property name="kdenlive:original.audio_index">-1</property>
  <property name="kdenlive:original.video_index">0</property>
  <property name="kdenlive:original.mute_on_pause">0</property>
  <property name="kdenlive:original.mlt_service">avformat-novalidate</property>
  <property name="kdenlive:original.meta.media.frame_rate_num">60</property>
  <property name="kdenlive:original.meta.media.frame_rate_den">1</property>
  <property name="kdenlive:original.meta.media.colorspace">709</property>
  <property name="kdenlive:original.meta.media.color_trc">2</property>
  <property name="kdenlive:original.meta.media.has_b_frames">2</property>
  <property name="kdenlive:original.meta.media.width">2160</property>
  <property name="kdenlive:original.meta.media.height">3840</property>
  <property name="kdenlive:original.meta.media.color_range">mpeg</property>
  <property name="kdenlive:original.meta.media.top_field_first">0</property>
  <property name="kdenlive:original.meta.media.progressive">1</property>
  <property name="kdenlive:original.kdenlive:clip_type">2</property>
  <property name="kdenlive:original.kdenlive:folderid">5</property>
  <property name="kdenlive:original.kdenlive:id">14</property>
  <property name="kdenlive:original.kdenlive:file_size">524875</property>
  <property name="kdenlive:original.kdenlive:file_hash">8d02e5c2dad60165adddbcbd80de5983</property>
  <property name="kdenlive:original.backup">1</property>
  <property name="kdenlive:file_hash">3e7606f1125d60f98e1b317cb1cdfb3e</property>
  <property name="meta.media.frame_rate_num">60</property>
  <property name="meta.media.frame_rate_den">1</property>
  <property name="meta.media.colorspace">601</property>
  <property name="meta.media.color_trc">2</property>
  <property name="meta.media.has_b_frames">0</property>
  <property name="meta.media.width">640</property>
  <property name="meta.media.height">1138</property>
  <property name="meta.media.color_range">full</property>
  <property name="meta.media.top_field_first">0</property>
  <property name="meta.media.progressive">1</property>
 </producer>
 <producer id="producer17" in="00:00:00.000" out="00:00:01.483">
  <property name="length">90</property>
  <property name="eof">pause</property>
  <property name="resource">/home/xiaoxiae/.cache/kdenlive/proxy/0e2252fd226443696d8a5f3ce1e5fc5b.mkv</property>
  <property name="meta.media.nb_streams">1</property>
  <property name="meta.media.0.stream.type">video</property>
  <property name="meta.media.0.stream.frame_rate">60</property>
  <property name="meta.media.0.stream.sample_aspect_ratio">0</property>
  <property name="meta.media.0.codec.width">640</property>
  <property name="meta.media.0.codec.height">1138</property>
  <property name="meta.media.0.codec.rotate">0</property>
  <property name="meta.media.0.codec.pix_fmt">yuvj420p</property>
  <property name="meta.media.0.codec.sample_aspect_ratio">0</property>
  <property name="meta.media.0.codec.colorspace">601</property>
  <property name="meta.media.0.codec.name">mjpeg</property>
  <property name="meta.media.0.codec.long_name">MJPEG (Motion JPEG)</property>
  <property name="meta.media.0.codec.bit_rate">0</property>
  <property name="meta.attr.0.stream.HANDLER_NAME.markup">VideoHandler</property>
  <property name="meta.attr.0.stream.VENDOR_ID.markup">[0][0][0][0]</property>
  <property name="meta.attr.0.stream.ENCODER.markup">Lavc59.37.100 mjpeg</property>
  <property name="meta.attr.0.stream.DURATION.markup">00:00:01.500000000</property>
  <property name="meta.attr.COMMENT.markup">Rendered with Manim Community v0.17.2</property>
  <property name="meta.attr.MAJOR_BRAND.markup">isom</property>
  <property name="meta.attr.MINOR_VERSION.markup">512</property>
  <property name="meta.attr.COMPATIBLE_BRANDS.markup">isomiso2avc1mp41</property>
  <property name="meta.attr.ENCODER.markup">Lavf59.27.100</property>
  <property name="seekable">1</property>
  <property name="meta.media.sample_aspect_num">1</property>
  <property name="meta.media.sample_aspect_den">1</property>
  <property name="aspect_ratio">1</property>
  <property name="format">3</property>
  <property name="audio_index">-1</property>
  <property name="video_index">0</property>
  <property name="mute_on_pause">0</property>
  <property name="mlt_service">avformat-novalidate</property>
  <property name="kdenlive:clipname">5.mp4</property>
  <property name="kdenlive:clip_type">2</property>
  <property name="kdenlive:folderid">5</property>
  <property name="kdenlive:id">15</property>
  <property name="kdenlive:file_size">784619</property>
  <property name="kdenlive:proxy">/home/xiaoxiae/.cache/kdenlive/proxy/0e2252fd226443696d8a5f3ce1e5fc5b.mkv</property>
  <property name="kdenlive:originalurl">video/Introo/5.mp4</property>
  <property name="kdenlive:original.mlt_type">producer</property>
  <property name="kdenlive:original.in">0</property>
  <property name="kdenlive:original.out">89</property>
  <property name="kdenlive:original.length">90</property>
  <property name="kdenlive:original.eof">pause</property>
  <property name="kdenlive:original.resource">video/Introo/5.mp4</property>
  <property name="kdenlive:original.meta.media.nb_streams">1</property>
  <property name="kdenlive:original.meta.media.0.stream.type">video</property>
  <property name="kdenlive:original.meta.media.0.stream.frame_rate">60</property>
  <property name="kdenlive:original.meta.media.0.stream.sample_aspect_ratio">0</property>
  <property name="kdenlive:original.meta.media.0.codec.width">2160</property>
  <property name="kdenlive:original.meta.media.0.codec.height">3840</property>
  <property name="kdenlive:original.meta.media.0.codec.rotate">0</property>
  <property name="kdenlive:original.meta.media.0.codec.pix_fmt">yuv420p</property>
  <property name="kdenlive:original.meta.media.0.codec.sample_aspect_ratio">0</property>
  <property name="kdenlive:original.meta.media.0.codec.colorspace">709</property>
  <property name="kdenlive:original.meta.media.0.codec.name">h264</property>
  <property name="kdenlive:original.meta.media.0.codec.long_name">H.264 / AVC / MPEG-4 AVC / MPEG-4 part 10</property>
  <property name="kdenlive:original.meta.media.0.codec.bit_rate">4149434</property>
  <property name="kdenlive:original.meta.attr.0.stream.handler_name.markup">VideoHandler</property>
  <property name="kdenlive:original.meta.attr.0.stream.vendor_id.markup">[0][0][0][0]</property>
  <property name="kdenlive:original.meta.attr.0.stream.encoder.markup">Lavc59.37.100 libx264</property>
  <property name="kdenlive:original.meta.attr.major_brand.markup">isom</property>
  <property name="kdenlive:original.meta.attr.minor_version.markup">512</property>
  <property name="kdenlive:original.meta.attr.compatible_brands.markup">isomiso2avc1mp41</property>
  <property name="kdenlive:original.meta.attr.encoder.markup">Lavf59.27.100</property>
  <property name="kdenlive:original.meta.attr.comment.markup">Rendered with Manim Community v0.17.2</property>
  <property name="kdenlive:original.seekable">1</property>
  <property name="kdenlive:original.width">2160</property>
  <property name="kdenlive:original.height">3840</property>
  <property name="kdenlive:original.meta.media.sample_aspect_num">1</property>
  <property name="kdenlive:original.meta.media.sample_aspect_den">1</property>
  <property name="kdenlive:original.aspect_ratio">1</property>
  <property name="kdenlive:original.format">3</property>
  <property name="kdenlive:original.audio_index">-1</property>
  <property name="kdenlive:original.video_index">0</property>
  <property name="kdenlive:original.mute_on_pause">0</property>
  <property name="kdenlive:original.mlt_service">avformat-novalidate</property>
  <property name="kdenlive:original.meta.media.frame_rate_num">60</property>
  <property name="kdenlive:original.meta.media.frame_rate_den">1</property>
  <property name="kdenlive:original.meta.media.colorspace">709</property>
  <property name="kdenlive:original.meta.media.color_trc">2</property>
  <property name="kdenlive:original.meta.media.has_b_frames">2</property>
  <property name="kdenlive:original.meta.media.width">2160</property>
  <property name="kdenlive:original.meta.media.height">3840</property>
  <property name="kdenlive:original.meta.media.color_range">mpeg</property>
  <property name="kdenlive:original.meta.media.top_field_first">0</property>
  <property name="kdenlive:original.meta.media.progressive">1</property>
  <property name="kdenlive:original.kdenlive:clip_type">2</property>
  <property name="kdenlive:original.kdenlive:folderid">5</property>
  <property name="kdenlive:original.kdenlive:id">15</property>
  <property name="kdenlive:original.kdenlive:file_size">779743</property>
  <property name="kdenlive:original.kdenlive:file_hash">c96ca6538f13bbeec3e8daee0e503fb8</property>
  <property name="kdenlive:original.backup">1</property>
  <property name="kdenlive:file_hash">0e2252fd226443696d8a5f3ce1e5fc5b</property>
  <property name="meta.media.frame_rate_num">60</property>
  <property name="meta.media.frame_rate_den">1</property>
  <property name="meta.media.colorspace">601</property>
  <property name="meta.media.color_trc">2</property>
  <property name="meta.media.has_b_frames">0</property>
  <property name="meta.media.width">640</property>
  <property name="meta.media.height">1138</property>
  <property name="meta.media.color_range">full</property>
  <property name="meta.media.top_field_first">0</property>
  <property name="meta.media.progressive">1</property>
 </producer>
 <producer id="producer9" in="00:00:00.000" out="00:00:00.983">
  <property name="length">60</property>
  <property name="eof">pause</property>
  <property name="resource">/home/xiaoxiae/.cache/kdenlive/proxy/16ecf3a2cc0a3382bf035fed3e36b2e1.mkv</property>
  <property name="meta.media.nb_streams">1</property>
  <property name="meta.media.0.stream.type">video</property>
  <property name="meta.media.0.stream.frame_rate">60</property>
  <property name="meta.media.0.stream.sample_aspect_ratio">0</property>
  <property name="meta.media.0.codec.width">640</property>
  <property name="meta.media.0.codec.height">1138</property>
  <property name="meta.media.0.codec.rotate">0</property>
  <property name="meta.media.0.codec.pix_fmt">yuvj420p</property>
  <property name="meta.media.0.codec.sample_aspect_ratio">0</property>
  <property name="meta.media.0.codec.colorspace">601</property>
  <property name="meta.media.0.codec.name">mjpeg</property>
  <property name="meta.media.0.codec.long_name">MJPEG (Motion JPEG)</property>
  <property name="meta.media.0.codec.bit_rate">0</property>
  <property name="meta.attr.0.stream.HANDLER_NAME.markup">VideoHandler</property>
  <property name="meta.attr.0.stream.VENDOR_ID.markup">[0][0][0][0]</property>
  <property name="meta.attr.0.stream.ENCODER.markup">Lavc59.37.100 mjpeg</property>
  <property name="meta.attr.0.stream.DURATION.markup">00:00:01.000000000</property>
  <property name="meta.attr.COMMENT.markup">Rendered with Manim Community v0.17.2</property>
  <property name="meta.attr.MAJOR_BRAND.markup">isom</property>
  <property name="meta.attr.MINOR_VERSION.markup">512</property>
  <property name="meta.attr.COMPATIBLE_BRANDS.markup">isomiso2avc1mp41</property>
  <property name="meta.attr.ENCODER.markup">Lavf59.27.100</property>
  <property name="seekable">1</property>
  <property name="meta.media.sample_aspect_num">1</property>
  <property name="meta.media.sample_aspect_den">1</property>
  <property name="aspect_ratio">1</property>
  <property name="format">3</property>
  <property name="audio_index">-1</property>
  <property name="video_index">0</property>
  <property name="mute_on_pause">0</property>
  <property name="mlt_service">avformat-novalidate</property>
  <property name="kdenlive:clipname">6.mp4</property>
  <property name="kdenlive:clip_type">2</property>
  <property name="kdenlive:folderid">5</property>
  <property name="kdenlive:id">16</property>
  <property name="kdenlive:file_size">88308</property>
  <property name="kdenlive:proxy">/home/xiaoxiae/.cache/kdenlive/proxy/16ecf3a2cc0a3382bf035fed3e36b2e1.mkv</property>
  <property name="kdenlive:originalurl">video/Introo/6.mp4</property>
  <property name="kdenlive:original.mlt_type">producer</property>
  <property name="kdenlive:original.in">0</property>
  <property name="kdenlive:original.out">59</property>
  <property name="kdenlive:original.length">60</property>
  <property name="kdenlive:original.eof">pause</property>
  <property name="kdenlive:original.resource">video/Introo/6.mp4</property>
  <property name="kdenlive:original.meta.media.nb_streams">1</property>
  <property name="kdenlive:original.meta.media.0.stream.type">video</property>
  <property name="kdenlive:original.meta.media.0.stream.frame_rate">60</property>
  <property name="kdenlive:original.meta.media.0.stream.sample_aspect_ratio">0</property>
  <property name="kdenlive:original.meta.media.0.codec.width">2160</property>
  <property name="kdenlive:original.meta.media.0.codec.height">3840</property>
  <property name="kdenlive:original.meta.media.0.codec.rotate">0</property>
  <property name="kdenlive:original.meta.media.0.codec.pix_fmt">yuv420p</property>
  <property name="kdenlive:original.meta.media.0.codec.sample_aspect_ratio">0</property>
  <property name="kdenlive:original.meta.media.0.codec.colorspace">709</property>
  <property name="kdenlive:original.meta.media.0.codec.name">h264</property>
  <property name="kdenlive:original.meta.media.0.codec.long_name">H.264 / AVC / MPEG-4 AVC / MPEG-4 part 10</property>
  <property name="kdenlive:original.meta.media.0.codec.bit_rate">693408</property>
  <property name="kdenlive:original.meta.attr.0.stream.handler_name.markup">VideoHandler</property>
  <property name="kdenlive:original.meta.attr.0.stream.vendor_id.markup">[0][0][0][0]</property>
  <property name="kdenlive:original.meta.attr.0.stream.encoder.markup">Lavc59.37.100 libx264</property>
  <property name="kdenlive:original.meta.attr.major_brand.markup">isom</property>
  <property name="kdenlive:original.meta.attr.minor_version.markup">512</property>
  <property name="kdenlive:original.meta.attr.compatible_brands.markup">isomiso2avc1mp41</property>
  <property name="kdenlive:original.meta.attr.encoder.markup">Lavf59.27.100</property>
  <property name="kdenlive:original.meta.attr.comment.markup">Rendered with Manim Community v0.17.2</property>
  <property name="kdenlive:original.seekable">1</property>
  <property name="kdenlive:original.width">2160</property>
  <property name="kdenlive:original.height">3840</property>
  <property name="kdenlive:original.meta.media.sample_aspect_num">1</property>
  <property name="kdenlive:original.meta.media.sample_aspect_den">1</property>
  <property name="kdenlive:original.aspect_ratio">1</property>
  <property name="kdenlive:original.format">3</property>
  <property name="kdenlive:original.audio_index">-1</property>
  <property name="kdenlive:original.video_index">0</property>
  <property name="kdenlive:original.mute_on_pause">0</property>
  <property name="kdenlive:original.mlt_service">avformat-novalidate</property>
  <property name="kdenlive:original.meta.media.frame_rate_num">60</property>
  <property name="kdenlive:original.meta.media.frame_rate_den">1</property>
  <property name="kdenlive:original.meta.media.colorspace">709</property>
  <property name="kdenlive:original.meta.media.color_trc">2</property>
  <property name="kdenlive:original.meta.media.has_b_frames">2</property>
  <property name="kdenlive:original.meta.media.width">2160</property>
  <property name="kdenlive:original.meta.media.height">3840</property>
  <property name="kdenlive:original.meta.media.color_range">mpeg</property>
  <property name="kdenlive:original.meta.media.top_field_first">0</property>
  <property name="kdenlive:original.meta.media.progressive">1</property>
  <property name="kdenlive:original.kdenlive:clip_type">2</property>
  <property name="kdenlive:original.kdenlive:folderid">5</property>
  <property name="kdenlive:original.kdenlive:id">16</property>
  <property name="kdenlive:original.kdenlive:file_size">88308</property>
  <property name="kdenlive:original.kdenlive:file_hash">16ecf3a2cc0a3382bf035fed3e36b2e1</property>
  <property name="kdenlive:original.backup">1</property>
  <property name="kdenlive:file_hash">16ecf3a2cc0a3382bf035fed3e36b2e1</property>
  <property name="meta.media.frame_rate_num">60</property>
  <property name="meta.media.frame_rate_den">1</property>
  <property name="meta.media.colorspace">601</property>
  <property name="meta.media.color_trc">2</property>
  <property name="meta.media.has_b_frames">0</property>
  <property name="meta.media.width">640</property>
  <property name="meta.media.height">1138</property>
  <property name="meta.media.color_range">full</property>
  <property name="meta.media.top_field_first">0</property>
  <property name="meta.media.progressive">1</property>
 </producer>
 <producer id="producer8" in="00:00:00.000" out="00:00:00.983">
  <property name="length">60</property>
  <property name="eof">pause</property>
  <property name="resource">/home/xiaoxiae/.cache/kdenlive/proxy/a5ef829cffb2353fb09522934d10fcf5.mkv</property>
  <property name="meta.media.nb_streams">1</property>
  <property name="meta.media.0.stream.type">video</property>
  <property name="meta.media.0.stream.frame_rate">60</property>
  <property name="meta.media.0.stream.sample_aspect_ratio">0</property>
  <property name="meta.media.0.codec.width">640</property>
  <property name="meta.media.0.codec.height">1138</property>
  <property name="meta.media.0.codec.rotate">0</property>
  <property name="meta.media.0.codec.pix_fmt">yuvj420p</property>
  <property name="meta.media.0.codec.sample_aspect_ratio">0</property>
  <property name="meta.media.0.codec.colorspace">601</property>
  <property name="meta.media.0.codec.name">mjpeg</property>
  <property name="meta.media.0.codec.long_name">MJPEG (Motion JPEG)</property>
  <property name="meta.media.0.codec.bit_rate">0</property>
  <property name="meta.attr.0.stream.HANDLER_NAME.markup">VideoHandler</property>
  <property name="meta.attr.0.stream.VENDOR_ID.markup">[0][0][0][0]</property>
  <property name="meta.attr.0.stream.ENCODER.markup">Lavc59.37.100 mjpeg</property>
  <property name="meta.attr.0.stream.DURATION.markup">00:00:01.000000000</property>
  <property name="meta.attr.COMMENT.markup">Rendered with Manim Community v0.17.2</property>
  <property name="meta.attr.MAJOR_BRAND.markup">isom</property>
  <property name="meta.attr.MINOR_VERSION.markup">512</property>
  <property name="meta.attr.COMPATIBLE_BRANDS.markup">isomiso2avc1mp41</property>
  <property name="meta.attr.ENCODER.markup">Lavf59.27.100</property>
  <property name="seekable">1</property>
  <property name="meta.media.sample_aspect_num">1</property>
  <property name="meta.media.sample_aspect_den">1</property>
  <property name="aspect_ratio">1</property>
  <property name="format">3</property>
  <property name="audio_index">-1</property>
  <property name="video_index">0</property>
  <property name="mute_on_pause">0</property>
  <property name="mlt_service">avformat-novalidate</property>
  <property name="kdenlive:clipname">7.mp4</property>
  <property name="kdenlive:clip_type">2</property>
  <property name="kdenlive:folderid">5</property>
  <property name="kdenlive:id">17</property>
  <property name="kdenlive:file_size">105305</property>
  <property name="kdenlive:proxy">/home/xiaoxiae/.cache/kdenlive/proxy/a5ef829cffb2353fb09522934d10fcf5.mkv</property>
  <property name="kdenlive:originalurl">video/Introo/7.mp4</property>
  <property name="kdenlive:original.mlt_type">producer</property>
  <property name="kdenlive:original.in">0</property>
  <property name="kdenlive:original.out">59</property>
  <property name="kdenlive:original.length">60</property>
  <property name="kdenlive:original.eof">pause</property>
  <property name="kdenlive:original.resource">video/Introo/7.mp4</property>
  <property name="kdenlive:original.meta.media.nb_streams">1</property>
  <property name="kdenlive:original.meta.media.0.stream.type">video</property>
  <property name="kdenlive:original.meta.media.0.stream.frame_rate">60</property>
  <property name="kdenlive:original.meta.media.0.stream.sample_aspect_ratio">0</property>
  <property name="kdenlive:original.meta.media.0.codec.width">2160</property>
  <property name="kdenlive:original.meta.media.0.codec.height">3840</property>
  <property name="kdenlive:original.meta.media.0.codec.rotate">0</property>
  <property name="kdenlive:original.meta.media.0.codec.pix_fmt">yuv420p</property>
  <property name="kdenlive:original.meta.media.0.codec.sample_aspect_ratio">0</property>
  <property name="kdenlive:original.meta.media.0.codec.colorspace">709</property>
  <property name="kdenlive:original.meta.media.0.codec.name">h264</property>
  <property name="kdenlive:original.meta.media.0.codec.long_name">H.264 / AVC / MPEG-4 AVC / MPEG-4 part 10</property>
  <property name="kdenlive:original.meta.media.0.codec.bit_rate">829384</property>
  <property name="kdenlive:original.meta.attr.0.stream.handler_name.markup">VideoHandler</property>
  <property name="kdenlive:original.meta.attr.0.stream.vendor_id.markup">[0][0][0][0]</property>
  <property name="kdenlive:original.meta.attr.0.stream.encoder.markup">Lavc59.37.100 libx264</property>
  <property name="kdenlive:original.meta.attr.major_brand.markup">isom</property>
  <property name="kdenlive:original.meta.attr.minor_version.markup">512</property>
  <property name="kdenlive:original.meta.attr.compatible_brands.markup">isomiso2avc1mp41</property>
  <property name="kdenlive:original.meta.attr.encoder.markup">Lavf59.27.100</property>
  <property name="kdenlive:original.meta.attr.comment.markup">Rendered with Manim Community v0.17.2</property>
  <property name="kdenlive:original.seekable">1</property>
  <property name="kdenlive:original.width">2160</property>
  <property name="kdenlive:original.height">3840</property>
  <property name="kdenlive:original.meta.media.sample_aspect_num">1</property>
  <property name="kdenlive:original.meta.media.sample_aspect_den">1</property>
  <property name="kdenlive:original.aspect_ratio">1</property>
  <property name="kdenlive:original.format">3</property>
  <property name="kdenlive:original.audio_index">-1</property>
  <property name="kdenlive:original.video_index">0</property>
  <property name="kdenlive:original.mute_on_pause">0</property>
  <property name="kdenlive:original.mlt_service">avformat-novalidate</property>
  <property name="kdenlive:original.meta.media.frame_rate_num">60</property>
  <property name="kdenlive:original.meta.media.frame_rate_den">1</property>
  <property name="kdenlive:original.meta.media.colorspace">709</property>
  <property name="kdenlive:original.meta.media.color_trc">2</property>
  <property name="kdenlive:original.meta.media.has_b_frames">2</property>
  <property name="kdenlive:original.meta.media.width">2160</property>
  <property name="kdenlive:original.meta.media.height">3840</property>
  <property name="kdenlive:original.meta.media.color_range">mpeg</property>
  <property name="kdenlive:original.meta.media.top_field_first">0</property>
  <property name="kdenlive:original.meta.media.progressive">1</property>
  <property name="kdenlive:original.kdenlive:clip_type">2</property>
  <property name="kdenlive:original.kdenlive:folderid">5</property>
  <property name="kdenlive:original.kdenlive:id">17</property>
  <property name="kdenlive:original.kdenlive:file_size">105305</property>
  <property name="kdenlive:original.kdenlive:file_hash">a5ef829cffb2353fb09522934d10fcf5</property>
  <property name="kdenlive:original.backup">1</property>
  <property name="kdenlive:clipzones">[
    {
        "in": 0,
        "name": "Zone 1",
        "out": 60
    }
]
</property>
  <property name="kdenlive:file_hash">a5ef829cffb2353fb09522934d10fcf5</property>
  <property name="meta.media.frame_rate_num">60</property>
  <property name="meta.media.frame_rate_den">1</property>
  <property name="meta.media.colorspace">601</property>
  <property name="meta.media.color_trc">2</property>
  <property name="meta.media.has_b_frames">0</property>
  <property name="meta.media.width">640</property>
  <property name="meta.media.height">1138</property>
  <property name="meta.media.color_range">full</property>
  <property name="meta.media.top_field_first">0</property>
  <property name="meta.media.progressive">1</property>
 </producer>
 <producer id="producer10" in="00:00:00.000" out="00:00:00.983">
  <property name="length">60</property>
  <property name="eof">pause</property>
  <property name="resource">/home/xiaoxiae/.cache/kdenlive/proxy/7e571bbff82af06057ad50092f544a43.mkv</property>
  <property name="meta.media.nb_streams">1</property>
  <property name="meta.media.0.stream.type">video</property>
  <property name="meta.media.0.stream.frame_rate">60</property>
  <property name="meta.media.0.stream.sample_aspect_ratio">0</property>
  <property name="meta.media.0.codec.width">640</property>
  <property name="meta.media.0.codec.height">1138</property>
  <property name="meta.media.0.codec.rotate">0</property>
  <property name="meta.media.0.codec.pix_fmt">yuvj420p</property>
  <property name="meta.media.0.codec.sample_aspect_ratio">0</property>
  <property name="meta.media.0.codec.colorspace">601</property>
  <property name="meta.media.0.codec.name">mjpeg</property>
  <property name="meta.media.0.codec.long_name">MJPEG (Motion JPEG)</property>
  <property name="meta.media.0.codec.bit_rate">0</property>
  <property name="meta.attr.0.stream.HANDLER_NAME.markup">VideoHandler</property>
  <property name="meta.attr.0.stream.VENDOR_ID.markup">[0][0][0][0]</property>
  <property name="meta.attr.0.stream.ENCODER.markup">Lavc59.37.100 mjpeg</property>
  <property name="meta.attr.0.stream.DURATION.markup">00:00:01.000000000</property>
  <property name="meta.attr.COMMENT.markup">Rendered with Manim Community v0.17.2</property>
  <property name="meta.attr.MAJOR_BRAND.markup">isom</property>
  <property name="meta.attr.MINOR_VERSION.markup">512</property>
  <property name="meta.attr.COMPATIBLE_BRANDS.markup">isomiso2avc1mp41</property>
  <property name="meta.attr.ENCODER.markup">Lavf59.27.100</property>
  <property name="seekable">1</property>
  <property name="meta.media.sample_aspect_num">1</property>
  <property name="meta.media.sample_aspect_den">1</property>
  <property name="aspect_ratio">1</property>
  <property name="format">3</property>
  <property name="audio_index">-1</property>
  <property name="video_index">0</property>
  <property name="mute_on_pause">0</property>
  <property name="mlt_service">avformat-novalidate</property>
  <property name="kdenlive:clipname">8.mp4</property>
  <property name="kdenlive:clip_type">2</property>
  <property name="kdenlive:folderid">5</property>
  <property name="kdenlive:id">19</property>
  <property name="kdenlive:file_size">246094</property>
  <property name="kdenlive:proxy">/home/xiaoxiae/.cache/kdenlive/proxy/7e571bbff82af06057ad50092f544a43.mkv</property>
  <property name="kdenlive:originalurl">video/Introo/8.mp4</property>
  <property name="kdenlive:original.mlt_type">producer</property>
  <property name="kdenlive:original.in">0</property>
  <property name="kdenlive:original.out">59</property>
  <property name="kdenlive:original.length">60</property>
  <property name="kdenlive:original.eof">pause</property>
  <property name="kdenlive:original.resource">video/Introo/8.mp4</property>
  <property name="kdenlive:original.meta.media.nb_streams">1</property>
  <property name="kdenlive:original.meta.media.0.stream.type">video</property>
  <property name="kdenlive:original.meta.media.0.stream.frame_rate">60</property>
  <property name="kdenlive:original.meta.media.0.stream.sample_aspect_ratio">0</property>
  <property name="kdenlive:original.meta.media.0.codec.width">2160</property>
  <property name="kdenlive:original.meta.media.0.codec.height">3840</property>
  <property name="kdenlive:original.meta.media.0.codec.rotate">0</property>
  <property name="kdenlive:original.meta.media.0.codec.pix_fmt">yuv420p</property>
  <property name="kdenlive:original.meta.media.0.codec.sample_aspect_ratio">0</property>
  <property name="kdenlive:original.meta.media.0.codec.colorspace">709</property>
  <property name="kdenlive:original.meta.media.0.codec.name">h264</property>
  <property name="kdenlive:original.meta.media.0.codec.long_name">H.264 / AVC / MPEG-4 AVC / MPEG-4 part 10</property>
  <property name="kdenlive:original.meta.media.0.codec.bit_rate">1955632</property>
  <property name="kdenlive:original.meta.attr.0.stream.handler_name.markup">VideoHandler</property>
  <property name="kdenlive:original.meta.attr.0.stream.vendor_id.markup">[0][0][0][0]</property>
  <property name="kdenlive:original.meta.attr.0.stream.encoder.markup">Lavc59.37.100 libx264</property>
  <property name="kdenlive:original.meta.attr.major_brand.markup">isom</property>
  <property name="kdenlive:original.meta.attr.minor_version.markup">512</property>
  <property name="kdenlive:original.meta.attr.compatible_brands.markup">isomiso2avc1mp41</property>
  <property name="kdenlive:original.meta.attr.encoder.markup">Lavf59.27.100</property>
  <property name="kdenlive:original.meta.attr.comment.markup">Rendered with Manim Community v0.17.2</property>
  <property name="kdenlive:original.seekable">1</property>
  <property name="kdenlive:original.width">2160</property>
  <property name="kdenlive:original.height">3840</property>
  <property name="kdenlive:original.meta.media.sample_aspect_num">1</property>
  <property name="kdenlive:original.meta.media.sample_aspect_den">1</property>
  <property name="kdenlive:original.aspect_ratio">1</property>
  <property name="kdenlive:original.format">3</property>
  <property name="kdenlive:original.audio_index">-1</property>
  <property name="kdenlive:original.video_index">0</property>
  <property name="kdenlive:original.mute_on_pause">0</property>
  <property name="kdenlive:original.mlt_service">avformat-novalidate</property>
  <property name="kdenlive:original.meta.media.frame_rate_num">60</property>
  <property name="kdenlive:original.meta.media.frame_rate_den">1</property>
  <property name="kdenlive:original.meta.media.colorspace">709</property>
  <property name="kdenlive:original.meta.media.color_trc">2</property>
  <property name="kdenlive:original.meta.media.has_b_frames">2</property>
  <property name="kdenlive:original.meta.media.width">2160</property>
  <property name="kdenlive:original.meta.media.height">3840</property>
  <property name="kdenlive:original.meta.media.color_range">mpeg</property>
  <property name="kdenlive:original.meta.media.top_field_first">0</property>
  <property name="kdenlive:original.meta.media.progressive">1</property>
  <property name="kdenlive:original.kdenlive:clip_type">2</property>
  <property name="kdenlive:original.kdenlive:folderid">5</property>
  <property name="kdenlive:original.kdenlive:id">18</property>
  <property name="kdenlive:original.kdenlive:file_size">246094</property>
  <property name="kdenlive:original.kdenlive:file_hash">7e571bbff82af06057ad50092f544a43</property>
  <property name="kdenlive:original.backup">1</property>
  <property name="kdenlive:file_hash">7e571bbff82af06057ad50092f544a43</property>
  <property name="meta.media.frame_rate_num">60</property>
  <property name="meta.media.frame_rate_den">1</property>
  <property name="meta.media.colorspace">601</property>
  <property name="meta.media.color_trc">2</property>
  <property name="meta.media.has_b_frames">0</property>
  <property name="meta.media.width">640</property>
  <property name="meta.media.height">1138</property>
  <property name="meta.media.color_range">full</property>
  <property name="meta.media.top_field_first">0</property>
  <property name="meta.media.progressive">1</property>
 </producer>
 <producer id="producer11" in="00:00:00.000" out="00:00:00.983">
  <property name="length">60</property>
  <property name="eof">pause</property>
  <property name="resource">/home/xiaoxiae/.cache/kdenlive/proxy/a4e21c6b966cb0c8b74723c1f1ed57c4.mkv</property>
  <property name="meta.media.nb_streams">1</property>
  <property name="meta.media.0.stream.type">video</property>
  <property name="meta.media.0.stream.frame_rate">60</property>
  <property name="meta.media.0.stream.sample_aspect_ratio">0</property>
  <property name="meta.media.0.codec.width">640</property>
  <property name="meta.media.0.codec.height">1138</property>
  <property name="meta.media.0.codec.rotate">0</property>
  <property name="meta.media.0.codec.pix_fmt">yuvj420p</property>
  <property name="meta.media.0.codec.sample_aspect_ratio">0</property>
  <property name="meta.media.0.codec.colorspace">601</property>
  <property name="meta.media.0.codec.name">mjpeg</property>
  <property name="meta.media.0.codec.long_name">MJPEG (Motion JPEG)</property>
  <property name="meta.media.0.codec.bit_rate">0</property>
  <property name="meta.attr.0.stream.HANDLER_NAME.markup">VideoHandler</property>
  <property name="meta.attr.0.stream.VENDOR_ID.markup">[0][0][0][0]</property>
  <property name="meta.attr.0.stream.ENCODER.markup">Lavc59.37.100 mjpeg</property>
  <property name="meta.attr.0.stream.DURATION.markup">00:00:01.000000000</property>
  <property name="meta.attr.COMMENT.markup">Rendered with Manim Community v0.17.2</property>
  <property name="meta.attr.MAJOR_BRAND.markup">isom</property>
  <property name="meta.attr.MINOR_VERSION.markup">512</property>
  <property name="meta.attr.COMPATIBLE_BRANDS.markup">isomiso2avc1mp41</property>
  <property name="meta.attr.ENCODER.markup">Lavf59.27.100</property>
  <property name="seekable">1</property>
  <property name="meta.media.sample_aspect_num">1</property>
  <property name="meta.media.sample_aspect_den">1</property>
  <property name="aspect_ratio">1</property>
  <property name="format">3</property>
  <property name="audio_index">-1</property>
  <property name="video_index">0</property>
  <property name="mute_on_pause">0</property>
  <property name="mlt_service">avformat-novalidate</property>
  <property name="kdenlive:clipname">9.mp4</property>
  <property name="kdenlive:clip_type">2</property>
  <property name="kdenlive:folderid">5</property>
  <property name="kdenlive:id">21</property>
  <property name="kdenlive:file_size">210510</property>
  <property name="kdenlive:proxy">/home/xiaoxiae/.cache/kdenlive/proxy/a4e21c6b966cb0c8b74723c1f1ed57c4.mkv</property>
  <property name="kdenlive:originalurl">video/Introo/9.mp4</property>
  <property name="kdenlive:original.mlt_type">producer</property>
  <property name="kdenlive:original.in">0</property>
  <property name="kdenlive:original.out">59</property>
  <property name="kdenlive:original.length">60</property>
  <property name="kdenlive:original.eof">pause</property>
  <property name="kdenlive:original.resource">video/Introo/9.mp4</property>
  <property name="kdenlive:original.meta.media.nb_streams">1</property>
  <property name="kdenlive:original.meta.media.0.stream.type">video</property>
  <property name="kdenlive:original.meta.media.0.stream.frame_rate">60</property>
  <property name="kdenlive:original.meta.media.0.stream.sample_aspect_ratio">0</property>
  <property name="kdenlive:original.meta.media.0.codec.width">2160</property>
  <property name="kdenlive:original.meta.media.0.codec.height">3840</property>
  <property name="kdenlive:original.meta.media.0.codec.rotate">0</property>
  <property name="kdenlive:original.meta.media.0.codec.pix_fmt">yuv420p</property>
  <property name="kdenlive:original.meta.media.0.codec.sample_aspect_ratio">0</property>
  <property name="kdenlive:original.meta.media.0.codec.colorspace">709</property>
  <property name="kdenlive:original.meta.media.0.codec.name">h264</property>
  <property name="kdenlive:original.meta.media.0.codec.long_name">H.264 / AVC / MPEG-4 AVC / MPEG-4 part 10</property>
  <property name="kdenlive:original.meta.media.0.codec.bit_rate">1671024</property>
  <property name="kdenlive:original.meta.attr.0.stream.handler_name.markup">VideoHandler</property>
  <property name="kdenlive:original.meta.attr.0.stream.vendor_id.markup">[0][0][0][0]</property>
  <property name="kdenlive:original.meta.attr.0.stream.encoder.markup">Lavc59.37.100 libx264</property>
  <property name="kdenlive:original.meta.attr.major_brand.markup">isom</property>
  <property name="kdenlive:original.meta.attr.minor_version.markup">512</property>
  <property name="kdenlive:original.meta.attr.compatible_brands.markup">isomiso2avc1mp41</property>
  <property name="kdenlive:original.meta.attr.encoder.markup">Lavf59.27.100</property>
  <property name="kdenlive:original.meta.attr.comment.markup">Rendered with Manim Community v0.17.2</property>
  <property name="kdenlive:original.seekable">1</property>
  <property name="kdenlive:original.width">2160</property>
  <property name="kdenlive:original.height">3840</property>
  <property name="kdenlive:original.meta.media.sample_aspect_num">1</property>
  <property name="kdenlive:original.meta.media.sample_aspect_den">1</property>
  <property name="kdenlive:original.aspect_ratio">1</property>
  <property name="kdenlive:original.format">3</property>
  <property name="kdenlive:original.audio_index">-1</property>
  <property name="kdenlive:original.video_index">0</property>
  <property name="kdenlive:original.mute_on_pause">0</property>
  <property name="kdenlive:original.mlt_service">avformat-novalidate</property>
  <property name="kdenlive:original.meta.media.frame_rate_num">60</property>
  <property name="kdenlive:original.meta.media.frame_rate_den">1</property>
  <property name="kdenlive:original.meta.media.colorspace">709</property>
  <property name="kdenlive:original.meta.media.color_trc">2</property>
  <property name="kdenlive:original.meta.media.has_b_frames">2</property>
  <property name="kdenlive:original.meta.media.width">2160</property>
  <property name="kdenlive:original.meta.media.height">3840</property>
  <property name="kdenlive:original.meta.media.color_range">mpeg</property>
  <property name="kdenlive:original.meta.media.top_field_first">0</property>
  <property name="kdenlive:original.meta.media.progressive">1</property>
  <property name="kdenlive:original.kdenlive:clip_type">2</property>
  <property name="kdenlive:original.kdenlive:folderid">5</property>
  <property name="kdenlive:original.kdenlive:id">19</property>
  <property name="kdenlive:original.kdenlive:file_size">210510</property>
  <property name="kdenlive:original.kdenlive:file_hash">a4e21c6b966cb0c8b74723c1f1ed57c4</property>
  <property name="kdenlive:original.backup">1</property>
  <property name="kdenlive:file_hash">a4e21c6b966cb0c8b74723c1f1ed57c4</property>
  <property name="meta.media.frame_rate_num">60</property>
  <property name="meta.media.frame_rate_den">1</property>
  <property name="meta.media.colorspace">601</property>
  <property name="meta.media.color_trc">2</property>
  <property name="meta.media.has_b_frames">0</property>
  <property name="meta.media.width">640</property>
  <property name="meta.media.height">1138</property>
  <property name="meta.media.color_range">full</property>
  <property name="meta.media.top_field_first">0</property>
  <property name="meta.media.progressive">1</property>
 </producer>
 <producer id="producer258" in="00:00:00.000" out="00:00:05.183">
  <property name="length">312</property>
  <property name="eof">pause</property>
  <property name="resource">/home/xiaoxiae/.cache/kdenlive/proxy/cf0e2f25d22dd650cb777553026e8d8d.mkv</property>
  <property name="meta.media.nb_streams">1</property>
  <property name="meta.media.0.stream.type">video</property>
  <property name="meta.media.0.stream.frame_rate">60</property>
  <property name="meta.media.0.stream.sample_aspect_ratio">0</property>
  <property name="meta.media.0.codec.width">640</property>
  <property name="meta.media.0.codec.height">1138</property>
  <property name="meta.media.0.codec.rotate">0</property>
  <property name="meta.media.0.codec.pix_fmt">yuvj420p</property>
  <property name="meta.media.0.codec.sample_aspect_ratio">0</property>
  <property name="meta.media.0.codec.colorspace">601</property>
  <property name="meta.media.0.codec.name">mjpeg</property>
  <property name="meta.media.0.codec.long_name">MJPEG (Motion JPEG)</property>
  <property name="meta.media.0.codec.bit_rate">0</property>
  <property name="meta.attr.0.stream.HANDLER_NAME.markup">VideoHandler</property>
  <property name="meta.attr.0.stream.VENDOR_ID.markup">[0][0][0][0]</property>
  <property name="meta.attr.0.stream.ENCODER.markup">Lavc59.37.100 mjpeg</property>
  <property name="meta.attr.0.stream.DURATION.markup">00:00:05.200000000</property>
  <property name="meta.attr.COMMENT.markup">Rendered with Manim Community v0.17.2</property>
  <property name="meta.attr.MAJOR_BRAND.markup">isom</property>
  <property name="meta.attr.MINOR_VERSION.markup">512</property>
  <property name="meta.attr.COMPATIBLE_BRANDS.markup">isomiso2avc1mp41</property>
  <property name="meta.attr.ENCODER.markup">Lavf59.27.100</property>
  <property name="seekable">1</property>
  <property name="meta.media.sample_aspect_num">1</property>
  <property name="meta.media.sample_aspect_den">1</property>
  <property name="aspect_ratio">1</property>
  <property name="format">3</property>
  <property name="audio_index">-1</property>
  <property name="video_index">0</property>
  <property name="mute_on_pause">0</property>
  <property name="mlt_service">avformat-novalidate</property>
  <property name="kdenlive:clipname">1.mp4</property>
  <property name="kdenlive:clip_type">2</property>
  <property name="kdenlive:folderid">20</property>
  <property name="kdenlive:id">22</property>
  <property name="kdenlive:file_size">2528158</property>
  <property name="kdenlive:proxy">/home/xiaoxiae/.cache/kdenlive/proxy/cf0e2f25d22dd650cb777553026e8d8d.mkv</property>
  <property name="kdenlive:originalurl">video/TP/1.mp4</property>
  <property name="kdenlive:original.mlt_type">producer</property>
  <property name="kdenlive:original.in">0</property>
  <property name="kdenlive:original.out">59</property>
  <property name="kdenlive:original.length">60</property>
  <property name="kdenlive:original.eof">pause</property>
  <property name="kdenlive:original.resource">video/TP/1.mp4</property>
  <property name="kdenlive:original.meta.media.nb_streams">1</property>
  <property name="kdenlive:original.meta.media.0.stream.type">video</property>
  <property name="kdenlive:original.meta.media.0.stream.frame_rate">60</property>
  <property name="kdenlive:original.meta.media.0.stream.sample_aspect_ratio">0</property>
  <property name="kdenlive:original.meta.media.0.codec.width">2160</property>
  <property name="kdenlive:original.meta.media.0.codec.height">3840</property>
  <property name="kdenlive:original.meta.media.0.codec.rotate">0</property>
  <property name="kdenlive:original.meta.media.0.codec.pix_fmt">yuv420p</property>
  <property name="kdenlive:original.meta.media.0.codec.sample_aspect_ratio">0</property>
  <property name="kdenlive:original.meta.media.0.codec.colorspace">709</property>
  <property name="kdenlive:original.meta.media.0.codec.name">h264</property>
  <property name="kdenlive:original.meta.media.0.codec.long_name">H.264 / AVC / MPEG-4 AVC / MPEG-4 part 10</property>
  <property name="kdenlive:original.meta.media.0.codec.bit_rate">3960336</property>
  <property name="kdenlive:original.meta.attr.0.stream.handler_name.markup">VideoHandler</property>
  <property name="kdenlive:original.meta.attr.0.stream.vendor_id.markup">[0][0][0][0]</property>
  <property name="kdenlive:original.meta.attr.0.stream.encoder.markup">Lavc59.37.100 libx264</property>
  <property name="kdenlive:original.meta.attr.major_brand.markup">isom</property>
  <property name="kdenlive:original.meta.attr.minor_version.markup">512</property>
  <property name="kdenlive:original.meta.attr.compatible_brands.markup">isomiso2avc1mp41</property>
  <property name="kdenlive:original.meta.attr.encoder.markup">Lavf59.27.100</property>
  <property name="kdenlive:original.meta.attr.comment.markup">Rendered with Manim Community v0.17.2</property>
  <property name="kdenlive:original.seekable">1</property>
  <property name="kdenlive:original.width">2160</property>
  <property name="kdenlive:original.height">3840</property>
  <property name="kdenlive:original.meta.media.sample_aspect_num">1</property>
  <property name="kdenlive:original.meta.media.sample_aspect_den">1</property>
  <property name="kdenlive:original.aspect_ratio">1</property>
  <property name="kdenlive:original.format">3</property>
  <property name="kdenlive:original.audio_index">-1</property>
  <property name="kdenlive:original.video_index">0</property>
  <property name="kdenlive:original.mute_on_pause">0</property>
  <property name="kdenlive:original.mlt_service">avformat-novalidate</property>
  <property name="kdenlive:original.meta.media.frame_rate_num">60</property>
  <property name="kdenlive:original.meta.media.frame_rate_den">1</property>
  <property name="kdenlive:original.meta.media.colorspace">709</property>
  <property name="kdenlive:original.meta.media.color_trc">2</property>
  <property name="kdenlive:original.meta.media.has_b_frames">2</property>
  <property name="kdenlive:original.meta.media.width">2160</property>
  <property name="kdenlive:original.meta.media.height">3840</property>
  <property name="kdenlive:original.meta.media.color_range">mpeg</property>
  <property name="kdenlive:original.meta.media.top_field_first">0</property>
  <property name="kdenlive:original.meta.media.progressive">1</property>
  <property name="kdenlive:original.kdenlive:clip_type">2</property>
  <property name="kdenlive:original.kdenlive:folderid">20</property>
  <property name="kdenlive:original.kdenlive:id">21</property>
  <property name="kdenlive:original.kdenlive:file_size">496674</property>
  <property name="kdenlive:original.kdenlive:file_hash">10c27a93ec8ae839b8120c738298f9b3</property>
  <property name="kdenlive:original.backup">1</property>
  <property name="kdenlive:file_hash">cf0e2f25d22dd650cb777553026e8d8d</property>
  <property name="meta.media.frame_rate_num">60</property>
  <property name="meta.media.frame_rate_den">1</property>
  <property name="meta.media.colorspace">601</property>
  <property name="meta.media.color_trc">2</property>
  <property name="meta.media.has_b_frames">0</property>
  <property name="meta.media.width">640</property>
  <property name="meta.media.height">1138</property>
  <property name="meta.media.color_range">full</property>
  <property name="meta.media.top_field_first">0</property>
  <property name="meta.media.progressive">1</property>
 </producer>
 <producer id="producer18" in="00:00:00.000" out="00:00:00.983">
  <property name="length">60</property>
  <property name="eof">pause</property>
  <property name="resource">/home/xiaoxiae/.cache/kdenlive/proxy/8ffebd691a9ba0acd2ef3c06235f76c0.mkv</property>
  <property name="meta.media.nb_streams">1</property>
  <property name="meta.media.0.stream.type">video</property>
  <property name="meta.media.0.stream.frame_rate">60</property>
  <property name="meta.media.0.stream.sample_aspect_ratio">0</property>
  <property name="meta.media.0.codec.width">640</property>
  <property name="meta.media.0.codec.height">1138</property>
  <property name="meta.media.0.codec.rotate">0</property>
  <property name="meta.media.0.codec.pix_fmt">yuvj420p</property>
  <property name="meta.media.0.codec.sample_aspect_ratio">0</property>
  <property name="meta.media.0.codec.colorspace">601</property>
  <property name="meta.media.0.codec.name">mjpeg</property>
  <property name="meta.media.0.codec.long_name">MJPEG (Motion JPEG)</property>
  <property name="meta.media.0.codec.bit_rate">0</property>
  <property name="meta.attr.0.stream.HANDLER_NAME.markup">VideoHandler</property>
  <property name="meta.attr.0.stream.VENDOR_ID.markup">[0][0][0][0]</property>
  <property name="meta.attr.0.stream.ENCODER.markup">Lavc59.37.100 mjpeg</property>
  <property name="meta.attr.0.stream.DURATION.markup">00:00:01.000000000</property>
  <property name="meta.attr.COMMENT.markup">Rendered with Manim Community v0.17.2</property>
  <property name="meta.attr.MAJOR_BRAND.markup">isom</property>
  <property name="meta.attr.MINOR_VERSION.markup">512</property>
  <property name="meta.attr.COMPATIBLE_BRANDS.markup">isomiso2avc1mp41</property>
  <property name="meta.attr.ENCODER.markup">Lavf59.27.100</property>
  <property name="seekable">1</property>
  <property name="meta.media.sample_aspect_num">1</property>
  <property name="meta.media.sample_aspect_den">1</property>
  <property name="aspect_ratio">1</property>
  <property name="format">3</property>
  <property name="audio_index">-1</property>
  <property name="video_index">0</property>
  <property name="mute_on_pause">0</property>
  <property name="mlt_service">avformat-novalidate</property>
  <property name="kdenlive:clipname">2.mp4</property>
  <property name="kdenlive:clip_type">2</property>
  <property name="kdenlive:folderid">20</property>
  <property name="kdenlive:id">23</property>
  <property name="kdenlive:file_size">514735</property>
  <property name="kdenlive:proxy">/home/xiaoxiae/.cache/kdenlive/proxy/8ffebd691a9ba0acd2ef3c06235f76c0.mkv</property>
  <property name="kdenlive:originalurl">video/TP/2.mp4</property>
  <property name="kdenlive:original.mlt_type">producer</property>
  <property name="kdenlive:original.in">0</property>
  <property name="kdenlive:original.out">59</property>
  <property name="kdenlive:original.length">60</property>
  <property name="kdenlive:original.eof">pause</property>
  <property name="kdenlive:original.resource">video/TP/2.mp4</property>
  <property name="kdenlive:original.meta.media.nb_streams">1</property>
  <property name="kdenlive:original.meta.media.0.stream.type">video</property>
  <property name="kdenlive:original.meta.media.0.stream.frame_rate">60</property>
  <property name="kdenlive:original.meta.media.0.stream.sample_aspect_ratio">0</property>
  <property name="kdenlive:original.meta.media.0.codec.width">2160</property>
  <property name="kdenlive:original.meta.media.0.codec.height">3840</property>
  <property name="kdenlive:original.meta.media.0.codec.rotate">0</property>
  <property name="kdenlive:original.meta.media.0.codec.pix_fmt">yuv420p</property>
  <property name="kdenlive:original.meta.media.0.codec.sample_aspect_ratio">0</property>
  <property name="kdenlive:original.meta.media.0.codec.colorspace">709</property>
  <property name="kdenlive:original.meta.media.0.codec.name">h264</property>
  <property name="kdenlive:original.meta.media.0.codec.long_name">H.264 / AVC / MPEG-4 AVC / MPEG-4 part 10</property>
  <property name="kdenlive:original.meta.media.0.codec.bit_rate">4099552</property>
  <property name="kdenlive:original.meta.attr.0.stream.handler_name.markup">VideoHandler</property>
  <property name="kdenlive:original.meta.attr.0.stream.vendor_id.markup">[0][0][0][0]</property>
  <property name="kdenlive:original.meta.attr.0.stream.encoder.markup">Lavc59.37.100 libx264</property>
  <property name="kdenlive:original.meta.attr.major_brand.markup">isom</property>
  <property name="kdenlive:original.meta.attr.minor_version.markup">512</property>
  <property name="kdenlive:original.meta.attr.compatible_brands.markup">isomiso2avc1mp41</property>
  <property name="kdenlive:original.meta.attr.encoder.markup">Lavf59.27.100</property>
  <property name="kdenlive:original.meta.attr.comment.markup">Rendered with Manim Community v0.17.2</property>
  <property name="kdenlive:original.seekable">1</property>
  <property name="kdenlive:original.width">2160</property>
  <property name="kdenlive:original.height">3840</property>
  <property name="kdenlive:original.meta.media.sample_aspect_num">1</property>
  <property name="kdenlive:original.meta.media.sample_aspect_den">1</property>
  <property name="kdenlive:original.aspect_ratio">1</property>
  <property name="kdenlive:original.format">3</property>
  <property name="kdenlive:original.audio_index">-1</property>
  <property name="kdenlive:original.video_index">0</property>
  <property name="kdenlive:original.mute_on_pause">0</property>
  <property name="kdenlive:original.mlt_service">avformat-novalidate</property>
  <property name="kdenlive:original.meta.media.frame_rate_num">60</property>
  <property name="kdenlive:original.meta.media.frame_rate_den">1</property>
  <property name="kdenlive:original.meta.media.colorspace">709</property>
  <property name="kdenlive:original.meta.media.color_trc">2</property>
  <property name="kdenlive:original.meta.media.has_b_frames">2</property>
  <property name="kdenlive:original.meta.media.width">2160</property>
  <property name="kdenlive:original.meta.media.height">3840</property>
  <property name="kdenlive:original.meta.media.color_range">mpeg</property>
  <property name="kdenlive:original.meta.media.top_field_first">0</property>
  <property name="kdenlive:original.meta.media.progressive">1</property>
  <property name="kdenlive:original.kdenlive:clip_type">2</property>
  <property name="kdenlive:original.kdenlive:folderid">20</property>
  <property name="kdenlive:original.kdenlive:id">22</property>
  <property name="kdenlive:original.kdenlive:file_size">514076</property>
  <property name="kdenlive:original.kdenlive:file_hash">579f36ee9bf98b42fd40a20d927b2a81</property>
  <property name="kdenlive:original.backup">1</property>
  <property name="kdenlive:file_hash">8ffebd691a9ba0acd2ef3c06235f76c0</property>
  <property name="meta.media.frame_rate_num">60</property>
  <property name="meta.media.frame_rate_den">1</property>
  <property name="meta.media.colorspace">601</property>
  <property name="meta.media.color_trc">2</property>
  <property name="meta.media.has_b_frames">0</property>
  <property name="meta.media.width">640</property>
  <property name="meta.media.height">1138</property>
  <property name="meta.media.color_range">full</property>
  <property name="meta.media.top_field_first">0</property>
  <property name="meta.media.progressive">1</property>
 </producer>
 <producer id="producer19" in="00:00:00.000" out="00:00:01.850">
  <property name="length">112</property>
  <property name="eof">pause</property>
  <property name="resource">/home/xiaoxiae/.cache/kdenlive/proxy/6fb45c9db765a24191029439687a3425.mkv</property>
  <property name="meta.media.nb_streams">1</property>
  <property name="meta.media.0.stream.type">video</property>
  <property name="meta.media.0.stream.frame_rate">60</property>
  <property name="meta.media.0.stream.sample_aspect_ratio">0</property>
  <property name="meta.media.0.codec.width">640</property>
  <property name="meta.media.0.codec.height">1138</property>
  <property name="meta.media.0.codec.rotate">0</property>
  <property name="meta.media.0.codec.pix_fmt">yuvj420p</property>
  <property name="meta.media.0.codec.sample_aspect_ratio">0</property>
  <property name="meta.media.0.codec.colorspace">601</property>
  <property name="meta.media.0.codec.name">mjpeg</property>
  <property name="meta.media.0.codec.long_name">MJPEG (Motion JPEG)</property>
  <property name="meta.media.0.codec.bit_rate">0</property>
  <property name="meta.attr.0.stream.HANDLER_NAME.markup">VideoHandler</property>
  <property name="meta.attr.0.stream.VENDOR_ID.markup">[0][0][0][0]</property>
  <property name="meta.attr.0.stream.ENCODER.markup">Lavc59.37.100 mjpeg</property>
  <property name="meta.attr.0.stream.DURATION.markup">00:00:01.867000000</property>
  <property name="meta.attr.COMMENT.markup">Rendered with Manim Community v0.17.2</property>
  <property name="meta.attr.MAJOR_BRAND.markup">isom</property>
  <property name="meta.attr.MINOR_VERSION.markup">512</property>
  <property name="meta.attr.COMPATIBLE_BRANDS.markup">isomiso2avc1mp41</property>
  <property name="meta.attr.ENCODER.markup">Lavf59.27.100</property>
  <property name="seekable">1</property>
  <property name="meta.media.sample_aspect_num">1</property>
  <property name="meta.media.sample_aspect_den">1</property>
  <property name="aspect_ratio">1</property>
  <property name="format">3</property>
  <property name="audio_index">-1</property>
  <property name="video_index">0</property>
  <property name="mute_on_pause">0</property>
  <property name="mlt_service">avformat-novalidate</property>
  <property name="kdenlive:clipname">3.mp4</property>
  <property name="kdenlive:clip_type">2</property>
  <property name="kdenlive:folderid">20</property>
  <property name="kdenlive:id">24</property>
  <property name="kdenlive:file_size">935567</property>
  <property name="kdenlive:proxy">/home/xiaoxiae/.cache/kdenlive/proxy/6fb45c9db765a24191029439687a3425.mkv</property>
  <property name="kdenlive:originalurl">video/TP/3.mp4</property>
  <property name="kdenlive:original.mlt_type">producer</property>
  <property name="kdenlive:original.in">0</property>
  <property name="kdenlive:original.out">59</property>
  <property name="kdenlive:original.length">60</property>
  <property name="kdenlive:original.eof">pause</property>
  <property name="kdenlive:original.resource">video/TP/3.mp4</property>
  <property name="kdenlive:original.meta.media.nb_streams">1</property>
  <property name="kdenlive:original.meta.media.0.stream.type">video</property>
  <property name="kdenlive:original.meta.media.0.stream.frame_rate">60</property>
  <property name="kdenlive:original.meta.media.0.stream.sample_aspect_ratio">0</property>
  <property name="kdenlive:original.meta.media.0.codec.width">2160</property>
  <property name="kdenlive:original.meta.media.0.codec.height">3840</property>
  <property name="kdenlive:original.meta.media.0.codec.rotate">0</property>
  <property name="kdenlive:original.meta.media.0.codec.pix_fmt">yuv420p</property>
  <property name="kdenlive:original.meta.media.0.codec.sample_aspect_ratio">0</property>
  <property name="kdenlive:original.meta.media.0.codec.colorspace">709</property>
  <property name="kdenlive:original.meta.media.0.codec.name">h264</property>
  <property name="kdenlive:original.meta.media.0.codec.long_name">H.264 / AVC / MPEG-4 AVC / MPEG-4 part 10</property>
  <property name="kdenlive:original.meta.media.0.codec.bit_rate">4252536</property>
  <property name="kdenlive:original.meta.attr.0.stream.handler_name.markup">VideoHandler</property>
  <property name="kdenlive:original.meta.attr.0.stream.vendor_id.markup">[0][0][0][0]</property>
  <property name="kdenlive:original.meta.attr.0.stream.encoder.markup">Lavc59.37.100 libx264</property>
  <property name="kdenlive:original.meta.attr.major_brand.markup">isom</property>
  <property name="kdenlive:original.meta.attr.minor_version.markup">512</property>
  <property name="kdenlive:original.meta.attr.compatible_brands.markup">isomiso2avc1mp41</property>
  <property name="kdenlive:original.meta.attr.encoder.markup">Lavf59.27.100</property>
  <property name="kdenlive:original.meta.attr.comment.markup">Rendered with Manim Community v0.17.2</property>
  <property name="kdenlive:original.seekable">1</property>
  <property name="kdenlive:original.width">2160</property>
  <property name="kdenlive:original.height">3840</property>
  <property name="kdenlive:original.meta.media.sample_aspect_num">1</property>
  <property name="kdenlive:original.meta.media.sample_aspect_den">1</property>
  <property name="kdenlive:original.aspect_ratio">1</property>
  <property name="kdenlive:original.format">3</property>
  <property name="kdenlive:original.audio_index">-1</property>
  <property name="kdenlive:original.video_index">0</property>
  <property name="kdenlive:original.mute_on_pause">0</property>
  <property name="kdenlive:original.mlt_service">avformat-novalidate</property>
  <property name="kdenlive:original.meta.media.frame_rate_num">60</property>
  <property name="kdenlive:original.meta.media.frame_rate_den">1</property>
  <property name="kdenlive:original.meta.media.colorspace">709</property>
  <property name="kdenlive:original.meta.media.color_trc">2</property>
  <property name="kdenlive:original.meta.media.has_b_frames">2</property>
  <property name="kdenlive:original.meta.media.width">2160</property>
  <property name="kdenlive:original.meta.media.height">3840</property>
  <property name="kdenlive:original.meta.media.color_range">mpeg</property>
  <property name="kdenlive:original.meta.media.top_field_first">0</property>
  <property name="kdenlive:original.meta.media.progressive">1</property>
  <property name="kdenlive:original.kdenlive:clip_type">2</property>
  <property name="kdenlive:original.kdenlive:folderid">20</property>
  <property name="kdenlive:original.kdenlive:id">23</property>
  <property name="kdenlive:original.kdenlive:file_size">533199</property>
  <property name="kdenlive:original.kdenlive:file_hash">53b2b8def3a6a585e84421e046f51da1</property>
  <property name="kdenlive:original.backup">1</property>
  <property name="kdenlive:file_hash">6fb45c9db765a24191029439687a3425</property>
  <property name="meta.media.frame_rate_num">60</property>
  <property name="meta.media.frame_rate_den">1</property>
  <property name="meta.media.colorspace">601</property>
  <property name="meta.media.color_trc">2</property>
  <property name="meta.media.has_b_frames">0</property>
  <property name="meta.media.width">640</property>
  <property name="meta.media.height">1138</property>
  <property name="meta.media.color_range">full</property>
  <property name="meta.media.top_field_first">0</property>
  <property name="meta.media.progressive">1</property>
 </producer>
 <producer id="producer20" in="00:00:00.000" out="00:00:00.983">
  <property name="length">60</property>
  <property name="eof">pause</property>
  <property name="resource">/home/xiaoxiae/.cache/kdenlive/proxy/68c5e82431186f0e55304dfa79db850a.mkv</property>
  <property name="meta.media.nb_streams">1</property>
  <property name="meta.media.0.stream.type">video</property>
  <property name="meta.media.0.stream.frame_rate">60</property>
  <property name="meta.media.0.stream.sample_aspect_ratio">0</property>
  <property name="meta.media.0.codec.width">640</property>
  <property name="meta.media.0.codec.height">1138</property>
  <property name="meta.media.0.codec.rotate">0</property>
  <property name="meta.media.0.codec.pix_fmt">yuvj420p</property>
  <property name="meta.media.0.codec.sample_aspect_ratio">0</property>
  <property name="meta.media.0.codec.colorspace">601</property>
  <property name="meta.media.0.codec.name">mjpeg</property>
  <property name="meta.media.0.codec.long_name">MJPEG (Motion JPEG)</property>
  <property name="meta.media.0.codec.bit_rate">0</property>
  <property name="meta.attr.0.stream.HANDLER_NAME.markup">VideoHandler</property>
  <property name="meta.attr.0.stream.VENDOR_ID.markup">[0][0][0][0]</property>
  <property name="meta.attr.0.stream.ENCODER.markup">Lavc59.37.100 mjpeg</property>
  <property name="meta.attr.0.stream.DURATION.markup">00:00:01.000000000</property>
  <property name="meta.attr.COMMENT.markup">Rendered with Manim Community v0.17.2</property>
  <property name="meta.attr.MAJOR_BRAND.markup">isom</property>
  <property name="meta.attr.MINOR_VERSION.markup">512</property>
  <property name="meta.attr.COMPATIBLE_BRANDS.markup">isomiso2avc1mp41</property>
  <property name="meta.attr.ENCODER.markup">Lavf59.27.100</property>
  <property name="seekable">1</property>
  <property name="meta.media.sample_aspect_num">1</property>
  <property name="meta.media.sample_aspect_den">1</property>
  <property name="aspect_ratio">1</property>
  <property name="format">3</property>
  <property name="audio_index">-1</property>
  <property name="video_index">0</property>
  <property name="mute_on_pause">0</property>
  <property name="mlt_service">avformat-novalidate</property>
  <property name="kdenlive:clipname">4.mp4</property>
  <property name="kdenlive:clip_type">2</property>
  <property name="kdenlive:folderid">20</property>
  <property name="kdenlive:id">25</property>
  <property name="kdenlive:file_size">569636</property>
  <property name="kdenlive:proxy">/home/xiaoxiae/.cache/kdenlive/proxy/68c5e82431186f0e55304dfa79db850a.mkv</property>
  <property name="kdenlive:originalurl">video/TP/4.mp4</property>
  <property name="kdenlive:original.mlt_type">producer</property>
  <property name="kdenlive:original.in">0</property>
  <property name="kdenlive:original.out">59</property>
  <property name="kdenlive:original.length">60</property>
  <property name="kdenlive:original.eof">pause</property>
  <property name="kdenlive:original.resource">video/TP/4.mp4</property>
  <property name="kdenlive:original.meta.media.nb_streams">1</property>
  <property name="kdenlive:original.meta.media.0.stream.type">video</property>
  <property name="kdenlive:original.meta.media.0.stream.frame_rate">60</property>
  <property name="kdenlive:original.meta.media.0.stream.sample_aspect_ratio">0</property>
  <property name="kdenlive:original.meta.media.0.codec.width">2160</property>
  <property name="kdenlive:original.meta.media.0.codec.height">3840</property>
  <property name="kdenlive:original.meta.media.0.codec.rotate">0</property>
  <property name="kdenlive:original.meta.media.0.codec.pix_fmt">yuv420p</property>
  <property name="kdenlive:original.meta.media.0.codec.sample_aspect_ratio">0</property>
  <property name="kdenlive:original.meta.media.0.codec.colorspace">709</property>
  <property name="kdenlive:original.meta.media.0.codec.name">h264</property>
  <property name="kdenlive:original.meta.media.0.codec.long_name">H.264 / AVC / MPEG-4 AVC / MPEG-4 part 10</property>
  <property name="kdenlive:original.meta.media.0.codec.bit_rate">4424136</property>
  <property name="kdenlive:original.meta.attr.0.stream.handler_name.markup">VideoHandler</property>
  <property name="kdenlive:original.meta.attr.0.stream.vendor_id.markup">[0][0][0][0]</property>
  <property name="kdenlive:original.meta.attr.0.stream.encoder.markup">Lavc59.37.100 libx264</property>
  <property name="kdenlive:original.meta.attr.major_brand.markup">isom</property>
  <property name="kdenlive:original.meta.attr.minor_version.markup">512</property>
  <property name="kdenlive:original.meta.attr.compatible_brands.markup">isomiso2avc1mp41</property>
  <property name="kdenlive:original.meta.attr.encoder.markup">Lavf59.27.100</property>
  <property name="kdenlive:original.meta.attr.comment.markup">Rendered with Manim Community v0.17.2</property>
  <property name="kdenlive:original.seekable">1</property>
  <property name="kdenlive:original.width">2160</property>
  <property name="kdenlive:original.height">3840</property>
  <property name="kdenlive:original.meta.media.sample_aspect_num">1</property>
  <property name="kdenlive:original.meta.media.sample_aspect_den">1</property>
  <property name="kdenlive:original.aspect_ratio">1</property>
  <property name="kdenlive:original.format">3</property>
  <property name="kdenlive:original.audio_index">-1</property>
  <property name="kdenlive:original.video_index">0</property>
  <property name="kdenlive:original.mute_on_pause">0</property>
  <property name="kdenlive:original.mlt_service">avformat-novalidate</property>
  <property name="kdenlive:original.meta.media.frame_rate_num">60</property>
  <property name="kdenlive:original.meta.media.frame_rate_den">1</property>
  <property name="kdenlive:original.meta.media.colorspace">709</property>
  <property name="kdenlive:original.meta.media.color_trc">2</property>
  <property name="kdenlive:original.meta.media.has_b_frames">2</property>
  <property name="kdenlive:original.meta.media.width">2160</property>
  <property name="kdenlive:original.meta.media.height">3840</property>
  <property name="kdenlive:original.meta.media.color_range">mpeg</property>
  <property name="kdenlive:original.meta.media.top_field_first">0</property>
  <property name="kdenlive:original.meta.media.progressive">1</property>
  <property name="kdenlive:original.kdenlive:clip_type">2</property>
  <property name="kdenlive:original.kdenlive:folderid">20</property>
  <property name="kdenlive:original.kdenlive:id">24</property>
  <property name="kdenlive:original.kdenlive:file_size">554649</property>
  <property name="kdenlive:original.kdenlive:file_hash">6074a5e97bfee849382484b32c3391da</property>
  <property name="kdenlive:original.backup">1</property>
  <property name="kdenlive:file_hash">68c5e82431186f0e55304dfa79db850a</property>
  <property name="meta.media.frame_rate_num">60</property>
  <property name="meta.media.frame_rate_den">1</property>
  <property name="meta.media.colorspace">601</property>
  <property name="meta.media.color_trc">2</property>
  <property name="meta.media.has_b_frames">0</property>
  <property name="meta.media.width">640</property>
  <property name="meta.media.height">1138</property>
  <property name="meta.media.color_range">full</property>
  <property name="meta.media.top_field_first">0</property>
  <property name="meta.media.progressive">1</property>
 </producer>
 <producer id="producer259" in="00:00:00.000" out="00:00:02.750">
  <property name="length">166</property>
  <property name="eof">pause</property>
  <property name="resource">/home/xiaoxiae/.cache/kdenlive/proxy/ff46a7f737e441fa7773d42d7219ed3b.mkv</property>
  <property name="meta.media.nb_streams">1</property>
  <property name="meta.media.0.stream.type">video</property>
  <property name="meta.media.0.stream.frame_rate">60</property>
  <property name="meta.media.0.stream.sample_aspect_ratio">0</property>
  <property name="meta.media.0.codec.width">640</property>
  <property name="meta.media.0.codec.height">1138</property>
  <property name="meta.media.0.codec.rotate">0</property>
  <property name="meta.media.0.codec.pix_fmt">yuvj420p</property>
  <property name="meta.media.0.codec.sample_aspect_ratio">0</property>
  <property name="meta.media.0.codec.colorspace">601</property>
  <property name="meta.media.0.codec.name">mjpeg</property>
  <property name="meta.media.0.codec.long_name">MJPEG (Motion JPEG)</property>
  <property name="meta.media.0.codec.bit_rate">0</property>
  <property name="meta.attr.0.stream.HANDLER_NAME.markup">VideoHandler</property>
  <property name="meta.attr.0.stream.VENDOR_ID.markup">[0][0][0][0]</property>
  <property name="meta.attr.0.stream.ENCODER.markup">Lavc59.37.100 mjpeg</property>
  <property name="meta.attr.0.stream.DURATION.markup">00:00:02.767000000</property>
  <property name="meta.attr.COMMENT.markup">Rendered with Manim Community v0.17.2</property>
  <property name="meta.attr.MAJOR_BRAND.markup">isom</property>
  <property name="meta.attr.MINOR_VERSION.markup">512</property>
  <property name="meta.attr.COMPATIBLE_BRANDS.markup">isomiso2avc1mp41</property>
  <property name="meta.attr.ENCODER.markup">Lavf59.27.100</property>
  <property name="seekable">1</property>
  <property name="meta.media.sample_aspect_num">1</property>
  <property name="meta.media.sample_aspect_den">1</property>
  <property name="aspect_ratio">1</property>
  <property name="format">3</property>
  <property name="audio_index">-1</property>
  <property name="video_index">0</property>
  <property name="mute_on_pause">0</property>
  <property name="mlt_service">avformat-novalidate</property>
  <property name="kdenlive:clipname">5.mp4</property>
  <property name="kdenlive:clip_type">2</property>
  <property name="kdenlive:folderid">20</property>
  <property name="kdenlive:id">28</property>
  <property name="kdenlive:file_size">1516175</property>
  <property name="kdenlive:proxy">/home/xiaoxiae/.cache/kdenlive/proxy/ff46a7f737e441fa7773d42d7219ed3b.mkv</property>
  <property name="kdenlive:originalurl">video/TP/5.mp4</property>
  <property name="kdenlive:original.mlt_type">producer</property>
  <property name="kdenlive:original.in">0</property>
  <property name="kdenlive:original.out">59</property>
  <property name="kdenlive:original.length">60</property>
  <property name="kdenlive:original.eof">pause</property>
  <property name="kdenlive:original.resource">video/TP/5.mp4</property>
  <property name="kdenlive:original.meta.media.nb_streams">1</property>
  <property name="kdenlive:original.meta.media.0.stream.type">video</property>
  <property name="kdenlive:original.meta.media.0.stream.frame_rate">60</property>
  <property name="kdenlive:original.meta.media.0.stream.sample_aspect_ratio">0</property>
  <property name="kdenlive:original.meta.media.0.codec.width">2160</property>
  <property name="kdenlive:original.meta.media.0.codec.height">3840</property>
  <property name="kdenlive:original.meta.media.0.codec.rotate">0</property>
  <property name="kdenlive:original.meta.media.0.codec.pix_fmt">yuv420p</property>
  <property name="kdenlive:original.meta.media.0.codec.sample_aspect_ratio">0</property>
  <property name="kdenlive:original.meta.media.0.codec.colorspace">709</property>
  <property name="kdenlive:original.meta.media.0.codec.name">h264</property>
  <property name="kdenlive:original.meta.media.0.codec.long_name">H.264 / AVC / MPEG-4 AVC / MPEG-4 part 10</property>
  <property name="kdenlive:original.meta.media.0.codec.bit_rate">4331936</property>
  <property name="kdenlive:original.meta.attr.0.stream.handler_name.markup">VideoHandler</property>
  <property name="kdenlive:original.meta.attr.0.stream.vendor_id.markup">[0][0][0][0]</property>
  <property name="kdenlive:original.meta.attr.0.stream.encoder.markup">Lavc59.37.100 libx264</property>
  <property name="kdenlive:original.meta.attr.major_brand.markup">isom</property>
  <property name="kdenlive:original.meta.attr.minor_version.markup">512</property>
  <property name="kdenlive:original.meta.attr.compatible_brands.markup">isomiso2avc1mp41</property>
  <property name="kdenlive:original.meta.attr.encoder.markup">Lavf59.27.100</property>
  <property name="kdenlive:original.meta.attr.comment.markup">Rendered with Manim Community v0.17.2</property>
  <property name="kdenlive:original.seekable">1</property>
  <property name="kdenlive:original.width">2160</property>
  <property name="kdenlive:original.height">3840</property>
  <property name="kdenlive:original.meta.media.sample_aspect_num">1</property>
  <property name="kdenlive:original.meta.media.sample_aspect_den">1</property>
  <property name="kdenlive:original.aspect_ratio">1</property>
  <property name="kdenlive:original.format">3</property>
  <property name="kdenlive:original.audio_index">-1</property>
  <property name="kdenlive:original.video_index">0</property>
  <property name="kdenlive:original.mute_on_pause">0</property>
  <property name="kdenlive:original.mlt_service">avformat-novalidate</property>
  <property name="kdenlive:original.meta.media.frame_rate_num">60</property>
  <property name="kdenlive:original.meta.media.frame_rate_den">1</property>
  <property name="kdenlive:original.meta.media.colorspace">709</property>
  <property name="kdenlive:original.meta.media.color_trc">2</property>
  <property name="kdenlive:original.meta.media.has_b_frames">2</property>
  <property name="kdenlive:original.meta.media.width">2160</property>
  <property name="kdenlive:original.meta.media.height">3840</property>
  <property name="kdenlive:original.meta.media.color_range">mpeg</property>
  <property name="kdenlive:original.meta.media.top_field_first">0</property>
  <property name="kdenlive:original.meta.media.progressive">1</property>
  <property name="kdenlive:original.kdenlive:clip_type">2</property>
  <property name="kdenlive:original.kdenlive:folderid">20</property>
  <property name="kdenlive:original.kdenlive:id">25</property>
  <property name="kdenlive:original.kdenlive:file_size">543124</property>
  <property name="kdenlive:original.kdenlive:file_hash">0dbc9ad84fb8aa41da81ec21658b0bce</property>
  <property name="kdenlive:original.backup">1</property>
  <property name="kdenlive:file_hash">ff46a7f737e441fa7773d42d7219ed3b</property>
  <property name="meta.media.frame_rate_num">60</property>
  <property name="meta.media.frame_rate_den">1</property>
  <property name="meta.media.colorspace">601</property>
  <property name="meta.media.color_trc">2</property>
  <property name="meta.media.has_b_frames">0</property>
  <property name="meta.media.width">640</property>
  <property name="meta.media.height">1138</property>
  <property name="meta.media.color_range">full</property>
  <property name="meta.media.top_field_first">0</property>
  <property name="meta.media.progressive">1</property>
 </producer>
 <producer id="producer21" in="00:00:00.000" out="00:02:12.333">
  <property name="length">7941</property>
  <property name="eof">pause</property>
  <property name="resource">audio/music/Slider.wav</property>
  <property name="meta.media.nb_streams">1</property>
  <property name="meta.media.0.stream.type">audio</property>
  <property name="meta.media.0.codec.sample_fmt">s32</property>
  <property name="meta.media.0.codec.sample_rate">48000</property>
  <property name="meta.media.0.codec.channels">2</property>
  <property name="meta.media.0.codec.name">pcm_s24le</property>
  <property name="meta.media.0.codec.long_name">PCM signed 24-bit little-endian</property>
  <property name="meta.media.0.codec.bit_rate">2304000</property>
  <property name="meta.attr.encoded_by.markup">Logic Pro X</property>
  <property name="meta.attr.date.markup">2015-03-15</property>
  <property name="meta.attr.creation_time.markup">14:40:38</property>
  <property name="meta.attr.time_reference.markup">172896000</property>
  <property name="meta.attr.umid.markup">0x007F00003007BF5EFF7F00003007BF5EFF7F00002010BF5EFF7F0000B0CBE799B57F00003652D90101000000B0444B0B010000006008BF5EFF7F00006806460B</property>
  <property name="seekable">1</property>
  <property name="audio_index">0</property>
  <property name="video_index">-1</property>
  <property name="mute_on_pause">1</property>
  <property name="mlt_service">avformat</property>
  <property name="kdenlive:clipname"/>
  <property name="kdenlive:clip_type">1</property>
  <property name="kdenlive:folderid">27</property>
  <property name="kdenlive:id">31</property>
  <property name="kdenlive:file_size">38224656</property>
  <property name="kdenlive:file_hash">208291bd5c25bf9bd4495898992f1bdc</property>
  <property name="kdenlive:audio_max0">240</property>
 </producer>
 <producer id="producer22" in="00:00:00.000" out="00:04:06.350">
  <property name="length">14782</property>
  <property name="eof">pause</property>
  <property name="resource">audio/music/Bodytonic/A Simple Blur/A Simple Blur.wav</property>
  <property name="meta.media.nb_streams">1</property>
  <property name="meta.media.0.stream.type">audio</property>
  <property name="meta.media.0.codec.sample_fmt">s32</property>
  <property name="meta.media.0.codec.sample_rate">44100</property>
  <property name="meta.media.0.codec.channels">2</property>
  <property name="meta.media.0.codec.name">pcm_s24le</property>
  <property name="meta.media.0.codec.long_name">PCM signed 24-bit little-endian</property>
  <property name="meta.media.0.codec.bit_rate">2116800</property>
  <property name="meta.attr.encoded_by.markup">Logic Pro X</property>
  <property name="meta.attr.date.markup">2017-06-08</property>
  <property name="meta.attr.creation_time.markup">12:35:42</property>
  <property name="meta.attr.time_reference.markup">158760000</property>
  <property name="meta.attr.umid.markup">0x00000000000000000000000000000000000000000000000000000000A200AAFA29A23A358059595BFF7F00004694620501000000B051595BFF7F0000ECFE8894</property>
  <property name="seekable">1</property>
  <property name="audio_index">0</property>
  <property name="video_index">-1</property>
  <property name="mute_on_pause">1</property>
  <property name="mlt_service">avformat</property>
  <property name="kdenlive:clipname"/>
  <property name="kdenlive:clip_type">1</property>
  <property name="kdenlive:folderid">30</property>
  <property name="kdenlive:id">33</property>
  <property name="kdenlive:file_size">65188546</property>
  <property name="kdenlive:file_hash">f2aa69291b07ae43a5a1dbce44ef3074</property>
  <property name="kdenlive:audio_max0">220</property>
 </producer>
 <producer id="producer23" in="00:00:00.000" out="00:03:48.850">
  <property name="length">13732</property>
  <property name="eof">pause</property>
  <property name="resource">audio/music/Bodytonic/A Simple Blur/stems/01_A Simple Blur_Rhodia SynPad.wav</property>
  <property name="meta.media.nb_streams">1</property>
  <property name="meta.media.0.stream.type">audio</property>
  <property name="meta.media.0.codec.sample_fmt">s32</property>
  <property name="meta.media.0.codec.sample_rate">44100</property>
  <property name="meta.media.0.codec.channels">2</property>
  <property name="meta.media.0.codec.name">pcm_s24le</property>
  <property name="meta.media.0.codec.long_name">PCM signed 24-bit little-endian</property>
  <property name="meta.media.0.codec.bit_rate">2116800</property>
  <property name="meta.attr.encoded_by.markup">Logic Pro X</property>
  <property name="meta.attr.date.markup">2017-06-08</property>
  <property name="meta.attr.creation_time.markup">12:38:28</property>
  <property name="meta.attr.time_reference.markup">158760000</property>
  <property name="meta.attr.umid.markup">0x00000000000000000000000000000000000000000000000000000000A200AAFA29A23A3530AC595BFF7F0000469462050100000060A4595BFF7F0000ECFE8894</property>
  <property name="seekable">1</property>
  <property name="audio_index">0</property>
  <property name="video_index">-1</property>
  <property name="mute_on_pause">1</property>
  <property name="mlt_service">avformat</property>
  <property name="kdenlive:clipname"/>
  <property name="kdenlive:clip_type">1</property>
  <property name="kdenlive:folderid">32</property>
  <property name="kdenlive:id">34</property>
  <property name="kdenlive:file_size">60639424</property>
  <property name="kdenlive:file_hash">c65736e53f0f200aa62922ce417ee94a</property>
  <property name="kdenlive:audio_max0">103</property>
 </producer>
 <producer id="producer24" in="00:00:00.000" out="00:04:09.667">
  <property name="length">14981</property>
  <property name="eof">pause</property>
  <property name="resource">audio/music/Bodytonic/A Simple Blur/stems/02_A Simple Blur_Rhodia SynPad.wav</property>
  <property name="meta.media.nb_streams">1</property>
  <property name="meta.media.0.stream.type">audio</property>
  <property name="meta.media.0.codec.sample_fmt">s32</property>
  <property name="meta.media.0.codec.sample_rate">44100</property>
  <property name="meta.media.0.codec.channels">2</property>
  <property name="meta.media.0.codec.name">pcm_s24le</property>
  <property name="meta.media.0.codec.long_name">PCM signed 24-bit little-endian</property>
  <property name="meta.media.0.codec.bit_rate">2116800</property>
  <property name="meta.attr.encoded_by.markup">Logic Pro X</property>
  <property name="meta.attr.date.markup">2017-06-08</property>
  <property name="meta.attr.creation_time.markup">12:38:23</property>
  <property name="meta.attr.time_reference.markup">158760000</property>
  <property name="meta.attr.umid.markup">0x00000000000000000000000000000000000000000000000000000000A200AAFA29A23A3530AC595BFF7F0000469462050100000060A4595BFF7F0000ECFE8894</property>
  <property name="seekable">1</property>
  <property name="audio_index">0</property>
  <property name="video_index">-1</property>
  <property name="mute_on_pause">1</property>
  <property name="mlt_service">avformat</property>
  <property name="kdenlive:clipname"/>
  <property name="kdenlive:clip_type">1</property>
  <property name="kdenlive:folderid">32</property>
  <property name="kdenlive:id">35</property>
  <property name="kdenlive:file_size">66151616</property>
  <property name="kdenlive:file_hash">a236409fcd8439c53deb9fc2207cdd49</property>
  <property name="kdenlive:audio_max0">60</property>
 </producer>
 <producer id="producer25" in="00:00:00.000" out="00:03:52.567">
  <property name="length">13955</property>
  <property name="eof">pause</property>
  <property name="resource">audio/music/Bodytonic/A Simple Blur/stems/03_A Simple Blur_Fjoria SynPad.wav</property>
  <property name="meta.media.nb_streams">1</property>
  <property name="meta.media.0.stream.type">audio</property>
  <property name="meta.media.0.codec.sample_fmt">s32</property>
  <property name="meta.media.0.codec.sample_rate">44100</property>
  <property name="meta.media.0.codec.channels">2</property>
  <property name="meta.media.0.codec.name">pcm_s24le</property>
  <property name="meta.media.0.codec.long_name">PCM signed 24-bit little-endian</property>
  <property name="meta.media.0.codec.bit_rate">2116800</property>
  <property name="meta.attr.encoded_by.markup">Logic Pro X</property>
  <property name="meta.attr.date.markup">2017-06-08</property>
  <property name="meta.attr.creation_time.markup">12:38:32</property>
  <property name="meta.attr.time_reference.markup">158760000</property>
  <property name="meta.attr.umid.markup">0x00000000000000000000000000000000000000000000000000000000A200AAFA29A23A3530AC595BFF7F0000469462050100000060A4595BFF7F0000ECFE8894</property>
  <property name="seekable">1</property>
  <property name="audio_index">0</property>
  <property name="video_index">-1</property>
  <property name="mute_on_pause">1</property>
  <property name="mlt_service">avformat</property>
  <property name="kdenlive:clipname"/>
  <property name="kdenlive:clip_type">1</property>
  <property name="kdenlive:folderid">32</property>
  <property name="kdenlive:id">36</property>
  <property name="kdenlive:file_size">61623744</property>
  <property name="kdenlive:file_hash">1f8f7e60a18625e1ccee23eca45d8c95</property>
  <property name="kdenlive:audio_max0">126</property>
 </producer>
 <producer id="producer26" in="00:00:00.000" out="00:02:59.067">
  <property name="length">10745</property>
  <property name="eof">pause</property>
  <property name="resource">audio/music/Bodytonic/A Simple Blur/stems/04_A Simple Blur_Strings.wav</property>
  <property name="meta.media.nb_streams">1</property>
  <property name="meta.media.0.stream.type">audio</property>
  <property name="meta.media.0.codec.sample_fmt">s32</property>
  <property name="meta.media.0.codec.sample_rate">44100</property>
  <property name="meta.media.0.codec.channels">2</property>
  <property name="meta.media.0.codec.name">pcm_s24le</property>
  <property name="meta.media.0.codec.long_name">PCM signed 24-bit little-endian</property>
  <property name="meta.media.0.codec.bit_rate">2116800</property>
  <property name="meta.attr.encoded_by.markup">Logic Pro X</property>
  <property name="meta.attr.date.markup">2017-06-08</property>
  <property name="meta.attr.creation_time.markup">12:38:19</property>
  <property name="meta.attr.time_reference.markup">158760000</property>
  <property name="meta.attr.umid.markup">0x00000000000000000000000000000000000000000000000000000000A200AAFA29A23A3530AC595BFF7F0000469462050100000060A4595BFF7F0000ECFE8894</property>
  <property name="seekable">1</property>
  <property name="audio_index">0</property>
  <property name="video_index">-1</property>
  <property name="mute_on_pause">1</property>
  <property name="mlt_service">avformat</property>
  <property name="kdenlive:clipname"/>
  <property name="kdenlive:clip_type">1</property>
  <property name="kdenlive:folderid">32</property>
  <property name="kdenlive:id">38</property>
  <property name="kdenlive:file_size">47449536</property>
  <property name="kdenlive:file_hash">8e964ae752713ed1cbdc6650eb317343</property>
  <property name="kdenlive:audio_max0">48</property>
 </producer>
 <producer id="producer27" in="00:00:00.000" out="00:04:36.350">
  <property name="length">16582</property>
  <property name="eof">pause</property>
  <property name="resource">audio/music/Bodytonic/A Simple Blur/variations/A Simple Blur | Alternate Take.wav</property>
  <property name="meta.media.nb_streams">1</property>
  <property name="meta.media.0.stream.type">audio</property>
  <property name="meta.media.0.codec.sample_fmt">s32</property>
  <property name="meta.media.0.codec.sample_rate">44100</property>
  <property name="meta.media.0.codec.channels">2</property>
  <property name="meta.media.0.codec.name">pcm_s24le</property>
  <property name="meta.media.0.codec.long_name">PCM signed 24-bit little-endian</property>
  <property name="meta.media.0.codec.bit_rate">2116800</property>
  <property name="meta.attr.encoded_by.markup">Logic Pro X</property>
  <property name="meta.attr.date.markup">2017-06-08</property>
  <property name="meta.attr.creation_time.markup">12:45:30</property>
  <property name="meta.attr.time_reference.markup">158760000</property>
  <property name="meta.attr.umid.markup">0x00000000000000000000000000000000000000000000000000000000A200AAFA29A23A358059595BFF7F00004694620501000000B051595BFF7F0000ECFE8894</property>
  <property name="seekable">1</property>
  <property name="audio_index">0</property>
  <property name="video_index">-1</property>
  <property name="mute_on_pause">1</property>
  <property name="mlt_service">avformat</property>
  <property name="kdenlive:clipname"/>
  <property name="kdenlive:clip_type">1</property>
  <property name="kdenlive:folderid">37</property>
  <property name="kdenlive:id">39</property>
  <property name="kdenlive:file_size">73126546</property>
  <property name="kdenlive:file_hash">d88e7c70d1389c067a96465d9cbf7afd</property>
  <property name="kdenlive:audio_max0">245</property>
 </producer>
 <producer id="producer28" in="00:00:00.000" out="00:02:26.800">
  <property name="length">8809</property>
  <property name="eof">pause</property>
  <property name="resource">audio/music/Bodytonic/A Simple Blur/variations/A Simple Blur | Atmo Thick.wav</property>
  <property name="meta.media.nb_streams">1</property>
  <property name="meta.media.0.stream.type">audio</property>
  <property name="meta.media.0.codec.sample_fmt">s32</property>
  <property name="meta.media.0.codec.sample_rate">44100</property>
  <property name="meta.media.0.codec.channels">2</property>
  <property name="meta.media.0.codec.name">pcm_s24le</property>
  <property name="meta.media.0.codec.long_name">PCM signed 24-bit little-endian</property>
  <property name="meta.media.0.codec.bit_rate">2116800</property>
  <property name="meta.attr.encoded_by.markup">Logic Pro X</property>
  <property name="meta.attr.date.markup">2017-06-08</property>
  <property name="meta.attr.creation_time.markup">12:43:49</property>
  <property name="meta.attr.time_reference.markup">158760000</property>
  <property name="meta.attr.umid.markup">0x00000000000000000000000000000000000000000000000000000000A200AAFA29A23A358059595BFF7F00004694620501000000B051595BFF7F0000ECFE8894</property>
  <property name="seekable">1</property>
  <property name="audio_index">0</property>
  <property name="video_index">-1</property>
  <property name="mute_on_pause">1</property>
  <property name="mlt_service">avformat</property>
  <property name="kdenlive:clipname"/>
  <property name="kdenlive:clip_type">1</property>
  <property name="kdenlive:folderid">37</property>
  <property name="kdenlive:id">40</property>
  <property name="kdenlive:file_size">38848822</property>
  <property name="kdenlive:file_hash">9bed652ae2b0750a1b381235991464bf</property>
  <property name="kdenlive:audio_max0">199</property>
 </producer>
 <producer id="producer29" in="00:00:00.000" out="00:04:12.717">
  <property name="length">15164</property>
  <property name="eof">pause</property>
  <property name="resource">audio/music/Bodytonic/A Simple Blur/variations/A Simple Blur | Atmo.wav</property>
  <property name="meta.media.nb_streams">1</property>
  <property name="meta.media.0.stream.type">audio</property>
  <property name="meta.media.0.codec.sample_fmt">s32</property>
  <property name="meta.media.0.codec.sample_rate">44100</property>
  <property name="meta.media.0.codec.channels">2</property>
  <property name="meta.media.0.codec.name">pcm_s24le</property>
  <property name="meta.media.0.codec.long_name">PCM signed 24-bit little-endian</property>
  <property name="meta.media.0.codec.bit_rate">2116800</property>
  <property name="meta.attr.encoded_by.markup">Logic Pro X</property>
  <property name="meta.attr.date.markup">2017-06-08</property>
  <property name="meta.attr.creation_time.markup">12:40:33</property>
  <property name="meta.attr.time_reference.markup">158760000</property>
  <property name="meta.attr.umid.markup">0x00000000000000000000000000000000000000000000000000000000A200AAFA29A23A358059595BFF7F00004694620501000000B051595BFF7F0000ECFE8894</property>
  <property name="seekable">1</property>
  <property name="audio_index">0</property>
  <property name="video_index">-1</property>
  <property name="mute_on_pause">1</property>
  <property name="mlt_service">avformat</property>
  <property name="kdenlive:clipname"/>
  <property name="kdenlive:clip_type">1</property>
  <property name="kdenlive:folderid">37</property>
  <property name="kdenlive:id">41</property>
  <property name="kdenlive:file_size">66872362</property>
  <property name="kdenlive:file_hash">4a4ddfafb6171a33036cb319a5a2a20b</property>
  <property name="kdenlive:audio_max0">196</property>
 </producer>
 <producer id="producer30" in="00:00:00.000" out="00:02:29.533">
  <property name="length">8973</property>
  <property name="eof">pause</property>
  <property name="resource">audio/music/Bodytonic/A Simple Blur/variations/A Simple Blur | Bass Solo.wav</property>
  <property name="meta.media.nb_streams">1</property>
  <property name="meta.media.0.stream.type">audio</property>
  <property name="meta.media.0.codec.sample_fmt">s32</property>
  <property name="meta.media.0.codec.sample_rate">44100</property>
  <property name="meta.media.0.codec.channels">2</property>
  <property name="meta.media.0.codec.name">pcm_s24le</property>
  <property name="meta.media.0.codec.long_name">PCM signed 24-bit little-endian</property>
  <property name="meta.media.0.codec.bit_rate">2116800</property>
  <property name="meta.attr.encoded_by.markup">Logic Pro X</property>
  <property name="meta.attr.date.markup">2017-06-08</property>
  <property name="meta.attr.creation_time.markup">12:39:30</property>
  <property name="meta.attr.time_reference.markup">158760000</property>
  <property name="meta.attr.umid.markup">0x00000000000000000000000000000000000000000000000000000000A200AAFA29A23A358059595BFF7F00004694620501000000B051595BFF7F0000ECFE8894</property>
  <property name="seekable">1</property>
  <property name="audio_index">0</property>
  <property name="video_index">-1</property>
  <property name="mute_on_pause">1</property>
  <property name="mlt_service">avformat</property>
  <property name="kdenlive:clipname"/>
  <property name="kdenlive:clip_type">1</property>
  <property name="kdenlive:folderid">37</property>
  <property name="kdenlive:id">42</property>
  <property name="kdenlive:file_size">39570454</property>
  <property name="kdenlive:file_hash">b73a7a78bd3d8a86717eb670d5567ae2</property>
  <property name="kdenlive:audio_max0">245</property>
 </producer>
 <producer id="producer31" in="00:00:00.000" out="00:03:59.983">
  <property name="length">14400</property>
  <property name="eof">pause</property>
  <property name="resource">audio/music/Bodytonic/A Simple Blur/variations/A Simple Blur | Darker.wav</property>
  <property name="meta.media.nb_streams">1</property>
  <property name="meta.media.0.stream.type">audio</property>
  <property name="meta.media.0.codec.sample_fmt">s32</property>
  <property name="meta.media.0.codec.sample_rate">44100</property>
  <property name="meta.media.0.codec.channels">2</property>
  <property name="meta.media.0.codec.name">pcm_s24le</property>
  <property name="meta.media.0.codec.long_name">PCM signed 24-bit little-endian</property>
  <property name="meta.media.0.codec.bit_rate">2116800</property>
  <property name="meta.attr.encoded_by.markup">Logic Pro X</property>
  <property name="meta.attr.date.markup">2017-06-08</property>
  <property name="meta.attr.creation_time.markup">12:48:14</property>
  <property name="meta.attr.time_reference.markup">158760000</property>
  <property name="meta.attr.umid.markup">0x00000000000000000000000000000000000000000000000000000000A200AAFA29A23A358059595BFF7F00004694620501000000B051595BFF7F0000ECFE8894</property>
  <property name="seekable">1</property>
  <property name="audio_index">0</property>
  <property name="video_index">-1</property>
  <property name="mute_on_pause">1</property>
  <property name="mlt_service">avformat</property>
  <property name="kdenlive:clipname"/>
  <property name="kdenlive:clip_type">1</property>
  <property name="kdenlive:folderid">37</property>
  <property name="kdenlive:id">43</property>
  <property name="kdenlive:file_size">63504730</property>
  <property name="kdenlive:file_hash">ec62503abc51cbf789b937e3956dbd96</property>
  <property name="kdenlive:audio_max0">223</property>
 </producer>
 <producer id="producer32" in="00:00:00.000" out="00:01:30.617">
  <property name="length">5438</property>
  <property name="eof">pause</property>
  <property name="resource">audio/music/Bodytonic/A Simple Blur/variations/A Simple Blur | Piano Solo.wav</property>
  <property name="meta.media.nb_streams">1</property>
  <property name="meta.media.0.stream.type">audio</property>
  <property name="meta.media.0.codec.sample_fmt">s32</property>
  <property name="meta.media.0.codec.sample_rate">44100</property>
  <property name="meta.media.0.codec.channels">2</property>
  <property name="meta.media.0.codec.name">pcm_s24le</property>
  <property name="meta.media.0.codec.long_name">PCM signed 24-bit little-endian</property>
  <property name="meta.media.0.codec.bit_rate">2116800</property>
  <property name="meta.attr.encoded_by.markup">Logic Pro X</property>
  <property name="meta.attr.date.markup">2017-06-08</property>
  <property name="meta.attr.creation_time.markup">12:41:45</property>
  <property name="meta.attr.time_reference.markup">160899226</property>
  <property name="meta.attr.umid.markup">0x00000000000000000000000000000000000000000000000000000000A200AAFA29A23A358059595BFF7F00004694620501000000B051595BFF7F0000ECFE8894</property>
  <property name="seekable">1</property>
  <property name="audio_index">0</property>
  <property name="video_index">-1</property>
  <property name="mute_on_pause">1</property>
  <property name="mlt_service">avformat</property>
  <property name="kdenlive:clipname"/>
  <property name="kdenlive:clip_type">1</property>
  <property name="kdenlive:folderid">37</property>
  <property name="kdenlive:id">44</property>
  <property name="kdenlive:file_size">23980606</property>
  <property name="kdenlive:file_hash">ba7ff8c453466c1a6b83f3c32c180006</property>
  <property name="kdenlive:audio_max0">217</property>
 </producer>
 <producer id="producer33" in="00:00:00.000" out="00:01:09.983">
  <property name="length">4200</property>
  <property name="eof">pause</property>
  <property name="resource">audio/music/Bodytonic/A Simple Blur/variations/A Simple Blur | Shorter.wav</property>
  <property name="meta.media.nb_streams">1</property>
  <property name="meta.media.0.stream.type">audio</property>
  <property name="meta.media.0.codec.sample_fmt">s32</property>
  <property name="meta.media.0.codec.sample_rate">44100</property>
  <property name="meta.media.0.codec.channels">2</property>
  <property name="meta.media.0.codec.name">pcm_s24le</property>
  <property name="meta.media.0.codec.long_name">PCM signed 24-bit little-endian</property>
  <property name="meta.media.0.codec.bit_rate">2116800</property>
  <property name="meta.attr.encoded_by.markup">Logic Pro X</property>
  <property name="meta.attr.date.markup">2017-06-08</property>
  <property name="meta.attr.creation_time.markup">12:36:50</property>
  <property name="meta.attr.time_reference.markup">166898454</property>
  <property name="meta.attr.umid.markup">0x00000000000000000000000000000000000000000000000000000000A200AAFA29A23A358059595BFF7F00004694620501000000B051595BFF7F0000ECFE8894</property>
  <property name="seekable">1</property>
  <property name="audio_index">0</property>
  <property name="video_index">-1</property>
  <property name="mute_on_pause">1</property>
  <property name="mlt_service">avformat</property>
  <property name="kdenlive:clipname"/>
  <property name="kdenlive:clip_type">1</property>
  <property name="kdenlive:folderid">37</property>
  <property name="kdenlive:id">46</property>
  <property name="kdenlive:file_size">18522730</property>
  <property name="kdenlive:file_hash">647900bd058325bd8067aa46b162120f</property>
  <property name="kdenlive:audio_max0">216</property>
 </producer>
 <producer id="producer34" in="00:00:00.000" out="00:04:00.450">
  <property name="length">14428</property>
  <property name="eof">pause</property>
  <property name="resource">audio/music/Bodytonic/Are We Loose Yet/Are We Loose Yet.wav</property>
  <property name="meta.media.nb_streams">1</property>
  <property name="meta.media.0.stream.type">audio</property>
  <property name="meta.media.0.codec.sample_fmt">s32</property>
  <property name="meta.media.0.codec.sample_rate">44100</property>
  <property name="meta.media.0.codec.channels">2</property>
  <property name="meta.media.0.codec.name">pcm_s24le</property>
  <property name="meta.media.0.codec.long_name">PCM signed 24-bit little-endian</property>
  <property name="meta.media.0.codec.bit_rate">2116800</property>
  <property name="meta.attr.encoded_by.markup">Logic Pro X</property>
  <property name="meta.attr.date.markup">2017-06-15</property>
  <property name="meta.attr.creation_time.markup">15:32:44</property>
  <property name="meta.attr.time_reference.markup">158760000</property>
  <property name="meta.attr.umid.markup">0x000000000000000000000000000000000000000000000000000000002D004DB1F4A48AF980495459FF7F000046A4670701000000B0415459FF7F0000ECAEE6A7</property>
  <property name="seekable">1</property>
  <property name="audio_index">0</property>
  <property name="video_index">-1</property>
  <property name="mute_on_pause">1</property>
  <property name="mlt_service">avformat</property>
  <property name="kdenlive:clipname"/>
  <property name="kdenlive:clip_type">1</property>
  <property name="kdenlive:folderid">45</property>
  <property name="kdenlive:id">48</property>
  <property name="kdenlive:file_size">63630388</property>
  <property name="kdenlive:file_hash">ff3ebf1c463f41a5ce975d44b88fb694</property>
  <property name="kdenlive:audio_max0">237</property>
 </producer>
 <producer id="producer35" in="00:00:00.000" out="00:03:57.767">
  <property name="length">14267</property>
  <property name="eof">pause</property>
  <property name="resource">audio/music/Bodytonic/Are We Loose Yet/stems/01_Are We Loose Yet_Upright Bass.wav</property>
  <property name="meta.media.nb_streams">1</property>
  <property name="meta.media.0.stream.type">audio</property>
  <property name="meta.media.0.codec.sample_fmt">s32</property>
  <property name="meta.media.0.codec.sample_rate">44100</property>
  <property name="meta.media.0.codec.channels">2</property>
  <property name="meta.media.0.codec.name">pcm_s24le</property>
  <property name="meta.media.0.codec.long_name">PCM signed 24-bit little-endian</property>
  <property name="meta.media.0.codec.bit_rate">2116800</property>
  <property name="meta.attr.encoded_by.markup">Logic Pro X</property>
  <property name="meta.attr.date.markup">2017-06-15</property>
  <property name="meta.attr.creation_time.markup">15:34:52</property>
  <property name="meta.attr.time_reference.markup">158760000</property>
  <property name="meta.attr.umid.markup">0x000000000000000000000000000000000000000000000000000000002D004DB1F4A48AF9309C5459FF7F000046A467070100000060945459FF7F0000ECAEE6A7</property>
  <property name="seekable">1</property>
  <property name="audio_index">0</property>
  <property name="video_index">-1</property>
  <property name="mute_on_pause">1</property>
  <property name="mlt_service">avformat</property>
  <property name="kdenlive:clipname"/>
  <property name="kdenlive:clip_type">1</property>
  <property name="kdenlive:folderid">47</property>
  <property name="kdenlive:id">49</property>
  <property name="kdenlive:file_size">63001792</property>
  <property name="kdenlive:file_hash">93a36dc8d3199ef1f61aa1a27b7ae358</property>
  <property name="kdenlive:audio_max0">158</property>
 </producer>
 <producer id="producer36" in="00:00:00.000" out="00:03:57.767">
  <property name="length">14267</property>
  <property name="eof">pause</property>
  <property name="resource">audio/music/Bodytonic/Are We Loose Yet/stems/02_Are We Loose Yet_Piano.wav</property>
  <property name="meta.media.nb_streams">1</property>
  <property name="meta.media.0.stream.type">audio</property>
  <property name="meta.media.0.codec.sample_fmt">s32</property>
  <property name="meta.media.0.codec.sample_rate">44100</property>
  <property name="meta.media.0.codec.channels">2</property>
  <property name="meta.media.0.codec.name">pcm_s24le</property>
  <property name="meta.media.0.codec.long_name">PCM signed 24-bit little-endian</property>
  <property name="meta.media.0.codec.bit_rate">2116800</property>
  <property name="meta.attr.encoded_by.markup">Logic Pro X</property>
  <property name="meta.attr.date.markup">2017-06-15</property>
  <property name="meta.attr.creation_time.markup">15:34:56</property>
  <property name="meta.attr.time_reference.markup">158760000</property>
  <property name="meta.attr.umid.markup">0x000000000000000000000000000000000000000000000000000000002D004DB1F4A48AF9309C5459FF7F000046A467070100000060945459FF7F0000ECAEE6A7</property>
  <property name="seekable">1</property>
  <property name="audio_index">0</property>
  <property name="video_index">-1</property>
  <property name="mute_on_pause">1</property>
  <property name="mlt_service">avformat</property>
  <property name="kdenlive:clipname"/>
  <property name="kdenlive:clip_type">1</property>
  <property name="kdenlive:folderid">47</property>
  <property name="kdenlive:id">50</property>
  <property name="kdenlive:file_size">63001792</property>
  <property name="kdenlive:file_hash">06d4014a8deb1cd03d96ebcb4675b0fc</property>
  <property name="kdenlive:audio_max0">97</property>
 </producer>
 <producer id="producer37" in="00:00:00.000" out="00:03:54.800">
  <property name="length">14089</property>
  <property name="eof">pause</property>
  <property name="resource">audio/music/Bodytonic/Are We Loose Yet/stems/03_Are We Loose Yet_Marimba.wav</property>
  <property name="meta.media.nb_streams">1</property>
  <property name="meta.media.0.stream.type">audio</property>
  <property name="meta.media.0.codec.sample_fmt">s32</property>
  <property name="meta.media.0.codec.sample_rate">44100</property>
  <property name="meta.media.0.codec.channels">2</property>
  <property name="meta.media.0.codec.name">pcm_s24le</property>
  <property name="meta.media.0.codec.long_name">PCM signed 24-bit little-endian</property>
  <property name="meta.media.0.codec.bit_rate">2116800</property>
  <property name="meta.attr.encoded_by.markup">Logic Pro X</property>
  <property name="meta.attr.date.markup">2017-06-15</property>
  <property name="meta.attr.creation_time.markup">15:35:01</property>
  <property name="meta.attr.time_reference.markup">158760000</property>
  <property name="meta.attr.umid.markup">0x000000000000000000000000000000000000000000000000000000002D004DB1F4A48AF9309C5459FF7F000046A467070100000060945459FF7F0000ECAEE6A7</property>
  <property name="seekable">1</property>
  <property name="audio_index">0</property>
  <property name="video_index">-1</property>
  <property name="mute_on_pause">1</property>
  <property name="mlt_service">avformat</property>
  <property name="kdenlive:clipname"/>
  <property name="kdenlive:clip_type">1</property>
  <property name="kdenlive:folderid">47</property>
  <property name="kdenlive:id">51</property>
  <property name="kdenlive:file_size">62214336</property>
  <property name="kdenlive:file_hash">e6882763581d12fb0f52aadd5e38c77c</property>
  <property name="kdenlive:audio_max0">105</property>
 </producer>
 <producer id="producer38" in="00:00:00.000" out="00:03:53.317">
  <property name="length">14000</property>
  <property name="eof">pause</property>
  <property name="resource">audio/music/Bodytonic/Are We Loose Yet/stems/04_Are We Loose Yet_Found Percussion.wav</property>
  <property name="meta.media.nb_streams">1</property>
  <property name="meta.media.0.stream.type">audio</property>
  <property name="meta.media.0.codec.sample_fmt">s32</property>
  <property name="meta.media.0.codec.sample_rate">44100</property>
  <property name="meta.media.0.codec.channels">2</property>
  <property name="meta.media.0.codec.name">pcm_s24le</property>
  <property name="meta.media.0.codec.long_name">PCM signed 24-bit little-endian</property>
  <property name="meta.media.0.codec.bit_rate">2116800</property>
  <property name="meta.attr.encoded_by.markup">Logic Pro X</property>
  <property name="meta.attr.date.markup">2017-06-15</property>
  <property name="meta.attr.creation_time.markup">15:34:47</property>
  <property name="meta.attr.time_reference.markup">158760000</property>
  <property name="meta.attr.umid.markup">0x000000000000000000000000000000000000000000000000000000002D004DB1F4A48AF9309C5459FF7F000046A467070100000060945459FF7F0000ECAEE6A7</property>
  <property name="seekable">1</property>
  <property name="audio_index">0</property>
  <property name="video_index">-1</property>
  <property name="mute_on_pause">1</property>
  <property name="mlt_service">avformat</property>
  <property name="kdenlive:clipname"/>
  <property name="kdenlive:clip_type">1</property>
  <property name="kdenlive:folderid">47</property>
  <property name="kdenlive:id">53</property>
  <property name="kdenlive:file_size">61820608</property>
  <property name="kdenlive:file_hash">62a8fbc953a58edef23d531578783b6f</property>
  <property name="kdenlive:audio_max0">171</property>
 </producer>
 <producer id="producer39" in="00:00:00.000" out="00:00:19.983">
  <property name="length">1200</property>
  <property name="eof">pause</property>
  <property name="resource">audio/music/Bodytonic/Are We Loose Yet/variations/Are We Loose Yet | 30 Sec.wav</property>
  <property name="meta.media.nb_streams">1</property>
  <property name="meta.media.0.stream.type">audio</property>
  <property name="meta.media.0.codec.sample_fmt">s32</property>
  <property name="meta.media.0.codec.sample_rate">44100</property>
  <property name="meta.media.0.codec.channels">2</property>
  <property name="meta.media.0.codec.name">pcm_s24le</property>
  <property name="meta.media.0.codec.long_name">PCM signed 24-bit little-endian</property>
  <property name="meta.media.0.codec.bit_rate">2116800</property>
  <property name="meta.attr.encoded_by.markup">Logic Pro X</property>
  <property name="meta.attr.date.markup">2017-06-15</property>
  <property name="meta.attr.creation_time.markup">15:37:02</property>
  <property name="meta.attr.time_reference.markup">168381818</property>
  <property name="meta.attr.umid.markup">0x000000000000000000000000000000000000000000000000000000002D004DB1F4A48AF980495459FF7F000046A4670701000000B0415459FF7F0000ECAEE6A7</property>
  <property name="seekable">1</property>
  <property name="audio_index">0</property>
  <property name="video_index">-1</property>
  <property name="mute_on_pause">1</property>
  <property name="mlt_service">avformat</property>
  <property name="kdenlive:clipname"/>
  <property name="kdenlive:clip_type">1</property>
  <property name="kdenlive:folderid">52</property>
  <property name="kdenlive:id">54</property>
  <property name="kdenlive:file_size">5292730</property>
  <property name="kdenlive:file_hash">d34688d51726f5a15ade85a342eb0ae4</property>
  <property name="kdenlive:audio_max0">228</property>
 </producer>
 <producer id="producer40" in="00:00:00.000" out="00:01:07.250">
  <property name="length">4036</property>
  <property name="eof">pause</property>
  <property name="resource">audio/music/Bodytonic/Are We Loose Yet/variations/Are We Loose Yet | A Short Oddity.wav</property>
  <property name="meta.media.nb_streams">1</property>
  <property name="meta.media.0.stream.type">audio</property>
  <property name="meta.media.0.codec.sample_fmt">s32</property>
  <property name="meta.media.0.codec.sample_rate">44100</property>
  <property name="meta.media.0.codec.channels">2</property>
  <property name="meta.media.0.codec.name">pcm_s24le</property>
  <property name="meta.media.0.codec.long_name">PCM signed 24-bit little-endian</property>
  <property name="meta.media.0.codec.bit_rate">2116800</property>
  <property name="meta.attr.encoded_by.markup">Logic Pro X</property>
  <property name="meta.attr.date.markup">2017-06-15</property>
  <property name="meta.attr.creation_time.markup">15:43:50</property>
  <property name="meta.attr.time_reference.markup">164533091</property>
  <property name="meta.attr.umid.markup">0x000000000000000000000000000000000000000000000000000000002D004DB1F4A48AF980495459FF7F000046A4670701000000B0415459FF7F0000ECAEE6A7</property>
  <property name="seekable">1</property>
  <property name="audio_index">0</property>
  <property name="video_index">-1</property>
  <property name="mute_on_pause">1</property>
  <property name="mlt_service">avformat</property>
  <property name="kdenlive:clipname"/>
  <property name="kdenlive:clip_type">1</property>
  <property name="kdenlive:folderid">52</property>
  <property name="kdenlive:id">55</property>
  <property name="kdenlive:file_size">17801092</property>
  <property name="kdenlive:file_hash">158cc7099bbd31122f09ba9a4e1312df</property>
  <property name="kdenlive:audio_max0">237</property>
 </producer>
 <producer id="producer41" in="00:00:00.000" out="00:03:23.600">
  <property name="length">12217</property>
  <property name="eof">pause</property>
  <property name="resource">audio/music/Bodytonic/Are We Loose Yet/variations/Are We Loose Yet | All Piano.wav</property>
  <property name="meta.media.nb_streams">1</property>
  <property name="meta.media.0.stream.type">audio</property>
  <property name="meta.media.0.codec.sample_fmt">s32</property>
  <property name="meta.media.0.codec.sample_rate">44100</property>
  <property name="meta.media.0.codec.channels">2</property>
  <property name="meta.media.0.codec.name">pcm_s24le</property>
  <property name="meta.media.0.codec.long_name">PCM signed 24-bit little-endian</property>
  <property name="meta.media.0.codec.bit_rate">2116800</property>
  <property name="meta.attr.encoded_by.markup">Logic Pro X</property>
  <property name="meta.attr.date.markup">2017-06-15</property>
  <property name="meta.attr.creation_time.markup">15:41:25</property>
  <property name="meta.attr.time_reference.markup">160744500</property>
  <property name="meta.attr.umid.markup">0x000000000000000000000000000000000000000000000000000000002D004DB1F4A48AF980495459FF7F000046A4670701000000B0415459FF7F0000ECAEE6A7</property>
  <property name="seekable">1</property>
  <property name="audio_index">0</property>
  <property name="video_index">-1</property>
  <property name="mute_on_pause">1</property>
  <property name="mlt_service">avformat</property>
  <property name="kdenlive:clipname"/>
  <property name="kdenlive:clip_type">1</property>
  <property name="kdenlive:folderid">52</property>
  <property name="kdenlive:id">56</property>
  <property name="kdenlive:file_size">53878222</property>
  <property name="kdenlive:file_hash">1f1ccfec9a8cb0b6207d5c7b46541454</property>
  <property name="kdenlive:audio_max0">237</property>
 </producer>
 <producer id="producer42" in="00:00:00.000" out="00:03:16.350">
  <property name="length">11782</property>
  <property name="eof">pause</property>
  <property name="resource">audio/music/Bodytonic/Are We Loose Yet/variations/Are We Loose Yet | Piano Leader.wav</property>
  <property name="meta.media.nb_streams">1</property>
  <property name="meta.media.0.stream.type">audio</property>
  <property name="meta.media.0.codec.sample_fmt">s32</property>
  <property name="meta.media.0.codec.sample_rate">44100</property>
  <property name="meta.media.0.codec.channels">2</property>
  <property name="meta.media.0.codec.name">pcm_s24le</property>
  <property name="meta.media.0.codec.long_name">PCM signed 24-bit little-endian</property>
  <property name="meta.media.0.codec.bit_rate">2116800</property>
  <property name="meta.attr.encoded_by.markup">Logic Pro X</property>
  <property name="meta.attr.date.markup">2017-06-15</property>
  <property name="meta.attr.creation_time.markup">15:38:17</property>
  <property name="meta.attr.time_reference.markup">160684363</property>
  <property name="meta.attr.umid.markup">0x000000000000000000000000000000000000000000000000000000002D004DB1F4A48AF980495459FF7F000046A4670701000000B0415459FF7F0000ECAEE6A7</property>
  <property name="seekable">1</property>
  <property name="audio_index">0</property>
  <property name="video_index">-1</property>
  <property name="mute_on_pause">1</property>
  <property name="mlt_service">avformat</property>
  <property name="kdenlive:clipname"/>
  <property name="kdenlive:clip_type">1</property>
  <property name="kdenlive:folderid">52</property>
  <property name="kdenlive:id">57</property>
  <property name="kdenlive:file_size">51958552</property>
  <property name="kdenlive:file_hash">4b7f3ed0b3b2cc6ea54aaa885612324e</property>
  <property name="kdenlive:audio_max0">236</property>
 </producer>
 <producer id="producer43" in="00:00:00.000" out="00:00:38.167">
  <property name="length">2291</property>
  <property name="eof">pause</property>
  <property name="resource">audio/music/Bodytonic/Are We Loose Yet/variations/Are We Loose Yet | Short Form.wav</property>
  <property name="meta.media.nb_streams">1</property>
  <property name="meta.media.0.stream.type">audio</property>
  <property name="meta.media.0.codec.sample_fmt">s32</property>
  <property name="meta.media.0.codec.sample_rate">44100</property>
  <property name="meta.media.0.codec.channels">2</property>
  <property name="meta.media.0.codec.name">pcm_s24le</property>
  <property name="meta.media.0.codec.long_name">PCM signed 24-bit little-endian</property>
  <property name="meta.media.0.codec.bit_rate">2116800</property>
  <property name="meta.attr.encoded_by.markup">Logic Pro X</property>
  <property name="meta.attr.date.markup">2017-06-15</property>
  <property name="meta.attr.creation_time.markup">15:35:44</property>
  <property name="meta.attr.time_reference.markup">167740363</property>
  <property name="meta.attr.umid.markup">0x000000000000000000000000000000000000000000000000000000002D004DB1F4A48AF980495459FF7F000046A4670701000000B0415459FF7F0000ECAEE6A7</property>
  <property name="seekable">1</property>
  <property name="audio_index">0</property>
  <property name="video_index">-1</property>
  <property name="mute_on_pause">1</property>
  <property name="mlt_service">avformat</property>
  <property name="kdenlive:clipname"/>
  <property name="kdenlive:clip_type">1</property>
  <property name="kdenlive:folderid">52</property>
  <property name="kdenlive:id">59</property>
  <property name="kdenlive:file_size">10103644</property>
  <property name="kdenlive:file_hash">d12ec1f71caaff5e73715488b623ad41</property>
  <property name="kdenlive:audio_max0">232</property>
 </producer>
 <producer id="producer44" in="00:00:00.000" out="00:02:43.333">
  <property name="length">9801</property>
  <property name="eof">pause</property>
  <property name="resource">audio/music/Bodytonic/Astrisx/Astrisx.wav</property>
  <property name="meta.media.nb_streams">1</property>
  <property name="meta.media.0.stream.type">audio</property>
  <property name="meta.media.0.codec.sample_fmt">s32</property>
  <property name="meta.media.0.codec.sample_rate">44100</property>
  <property name="meta.media.0.codec.channels">2</property>
  <property name="meta.media.0.codec.name">pcm_s24le</property>
  <property name="meta.media.0.codec.long_name">PCM signed 24-bit little-endian</property>
  <property name="meta.media.0.codec.bit_rate">2116800</property>
  <property name="meta.attr.encoded_by.markup">Logic Pro X</property>
  <property name="meta.attr.date.markup">2017-06-15</property>
  <property name="meta.attr.creation_time.markup">14:52:13</property>
  <property name="meta.attr.time_reference.markup">158760000</property>
  <property name="meta.attr.umid.markup">0x000000000000000000000000000000000000000000000000000000002D004DB1F4A48AF980495459FF7F000046A4670701000000B0415459FF7F0000ECAEE6A7</property>
  <property name="seekable">1</property>
  <property name="audio_index">0</property>
  <property name="video_index">-1</property>
  <property name="mute_on_pause">1</property>
  <property name="mlt_service">avformat</property>
  <property name="kdenlive:clipname"/>
  <property name="kdenlive:clip_type">1</property>
  <property name="kdenlive:folderid">58</property>
  <property name="kdenlive:id">61</property>
  <property name="kdenlive:file_size">43223158</property>
  <property name="kdenlive:file_hash">958b960aedf368e0ab7d1f07c7443d5d</property>
  <property name="kdenlive:audio_max0">246</property>
 </producer>
 <producer id="producer45" in="00:00:00.000" out="00:02:40.500">
  <property name="length">9631</property>
  <property name="eof">pause</property>
  <property name="resource">audio/music/Bodytonic/Astrisx/stems/01_Astrisx_Upright Bass.wav</property>
  <property name="meta.media.nb_streams">1</property>
  <property name="meta.media.0.stream.type">audio</property>
  <property name="meta.media.0.codec.sample_fmt">s32</property>
  <property name="meta.media.0.codec.sample_rate">44100</property>
  <property name="meta.media.0.codec.channels">2</property>
  <property name="meta.media.0.codec.name">pcm_s24le</property>
  <property name="meta.media.0.codec.long_name">PCM signed 24-bit little-endian</property>
  <property name="meta.media.0.codec.bit_rate">2116800</property>
  <property name="meta.attr.encoded_by.markup">Logic Pro X</property>
  <property name="meta.attr.date.markup">2017-06-15</property>
  <property name="meta.attr.creation_time.markup">14:54:57</property>
  <property name="meta.attr.time_reference.markup">158760000</property>
  <property name="meta.attr.umid.markup">0x000000000000000000000000000000000000000000000000000000002D004DB1F4A48AF9309C5459FF7F000046A467070100000060945459FF7F0000ECAEE6A7</property>
  <property name="seekable">1</property>
  <property name="audio_index">0</property>
  <property name="video_index">-1</property>
  <property name="mute_on_pause">1</property>
  <property name="mlt_service">avformat</property>
  <property name="kdenlive:clipname"/>
  <property name="kdenlive:clip_type">1</property>
  <property name="kdenlive:folderid">60</property>
  <property name="kdenlive:id">62</property>
  <property name="kdenlive:file_size">42529700</property>
  <property name="kdenlive:file_hash">3782e550821de8ae540f9a6e4de9e3cd</property>
  <property name="kdenlive:audio_max0">196</property>
 </producer>
 <producer id="producer46" in="00:00:00.000" out="00:02:39.017">
  <property name="length">9542</property>
  <property name="eof">pause</property>
  <property name="resource">audio/music/Bodytonic/Astrisx/stems/02_Astrisx_Piano.wav</property>
  <property name="meta.media.nb_streams">1</property>
  <property name="meta.media.0.stream.type">audio</property>
  <property name="meta.media.0.codec.sample_fmt">s32</property>
  <property name="meta.media.0.codec.sample_rate">44100</property>
  <property name="meta.media.0.codec.channels">2</property>
  <property name="meta.media.0.codec.name">pcm_s24le</property>
  <property name="meta.media.0.codec.long_name">PCM signed 24-bit little-endian</property>
  <property name="meta.media.0.codec.bit_rate">2116800</property>
  <property name="meta.attr.encoded_by.markup">Logic Pro X</property>
  <property name="meta.attr.date.markup">2017-06-15</property>
  <property name="meta.attr.creation_time.markup">14:55:01</property>
  <property name="meta.attr.time_reference.markup">158760000</property>
  <property name="meta.attr.umid.markup">0x000000000000000000000000000000000000000000000000000000002D004DB1F4A48AF9309C5459FF7F000046A467070100000060945459FF7F0000ECAEE6A7</property>
  <property name="seekable">1</property>
  <property name="audio_index">0</property>
  <property name="video_index">-1</property>
  <property name="mute_on_pause">1</property>
  <property name="mlt_service">avformat</property>
  <property name="kdenlive:clipname"/>
  <property name="kdenlive:clip_type">1</property>
  <property name="kdenlive:folderid">60</property>
  <property name="kdenlive:id">63</property>
  <property name="kdenlive:file_size">42135972</property>
  <property name="kdenlive:file_hash">89404edf9aff1891cc27b9811f505361</property>
  <property name="kdenlive:audio_max0">125</property>
 </producer>
 <producer id="producer47" in="00:00:00.000" out="00:02:38.267">
  <property name="length">9497</property>
  <property name="eof">pause</property>
  <property name="resource">audio/music/Bodytonic/Astrisx/stems/03_Astrisx_Marimba.wav</property>
  <property name="meta.media.nb_streams">1</property>
  <property name="meta.media.0.stream.type">audio</property>
  <property name="meta.media.0.codec.sample_fmt">s32</property>
  <property name="meta.media.0.codec.sample_rate">44100</property>
  <property name="meta.media.0.codec.channels">2</property>
  <property name="meta.media.0.codec.name">pcm_s24le</property>
  <property name="meta.media.0.codec.long_name">PCM signed 24-bit little-endian</property>
  <property name="meta.media.0.codec.bit_rate">2116800</property>
  <property name="meta.attr.encoded_by.markup">Logic Pro X</property>
  <property name="meta.attr.date.markup">2017-06-15</property>
  <property name="meta.attr.creation_time.markup">14:55:07</property>
  <property name="meta.attr.time_reference.markup">158760000</property>
  <property name="meta.attr.umid.markup">0x000000000000000000000000000000000000000000000000000000002D004DB1F4A48AF9309C5459FF7F000046A467070100000060945459FF7F0000ECAEE6A7</property>
  <property name="seekable">1</property>
  <property name="audio_index">0</property>
  <property name="video_index">-1</property>
  <property name="mute_on_pause">1</property>
  <property name="mlt_service">avformat</property>
  <property name="kdenlive:clipname"/>
  <property name="kdenlive:clip_type">1</property>
  <property name="kdenlive:folderid">60</property>
  <property name="kdenlive:id">64</property>
  <property name="kdenlive:file_size">41939108</property>
  <property name="kdenlive:file_hash">6cc46d63bd6b1f4319a60f28871c09f7</property>
  <property name="kdenlive:audio_max0">136</property>
 </producer>
 <producer id="producer48" in="00:00:00.000" out="00:02:30.100">
  <property name="length">9007</property>
  <property name="eof">pause</property>
  <property name="resource">audio/music/Bodytonic/Astrisx/stems/04_Astrisx_Drum Kit.wav</property>
  <property name="meta.media.nb_streams">1</property>
  <property name="meta.media.0.stream.type">audio</property>
  <property name="meta.media.0.codec.sample_fmt">s32</property>
  <property name="meta.media.0.codec.sample_rate">44100</property>
  <property name="meta.media.0.codec.channels">2</property>
  <property name="meta.media.0.codec.name">pcm_s24le</property>
  <property name="meta.media.0.codec.long_name">PCM signed 24-bit little-endian</property>
  <property name="meta.media.0.codec.bit_rate">2116800</property>
  <property name="meta.attr.encoded_by.markup">Logic Pro X</property>
  <property name="meta.attr.date.markup">2017-06-15</property>
  <property name="meta.attr.creation_time.markup">14:55:04</property>
  <property name="meta.attr.time_reference.markup">158760000</property>
  <property name="meta.attr.umid.markup">0x000000000000000000000000000000000000000000000000000000002D004DB1F4A48AF9309C5459FF7F000046A467070100000060945459FF7F0000ECAEE6A7</property>
  <property name="seekable">1</property>
  <property name="audio_index">0</property>
  <property name="video_index">-1</property>
  <property name="mute_on_pause">1</property>
  <property name="mlt_service">avformat</property>
  <property name="kdenlive:clipname"/>
  <property name="kdenlive:clip_type">1</property>
  <property name="kdenlive:folderid">60</property>
  <property name="kdenlive:id">65</property>
  <property name="kdenlive:file_size">39772306</property>
  <property name="kdenlive:file_hash">8605d609caef15965b847bde099eaa2e</property>
  <property name="kdenlive:audio_max0">159</property>
 </producer>
 <producer id="producer49" in="00:00:00.000" out="00:02:30.100">
  <property name="length">9007</property>
  <property name="eof">pause</property>
  <property name="resource">audio/music/Bodytonic/Astrisx/stems/05_Astrisx_Found Percussion.wav</property>
  <property name="meta.media.nb_streams">1</property>
  <property name="meta.media.0.stream.type">audio</property>
  <property name="meta.media.0.codec.sample_fmt">s32</property>
  <property name="meta.media.0.codec.sample_rate">44100</property>
  <property name="meta.media.0.codec.channels">2</property>
  <property name="meta.media.0.codec.name">pcm_s24le</property>
  <property name="meta.media.0.codec.long_name">PCM signed 24-bit little-endian</property>
  <property name="meta.media.0.codec.bit_rate">2116800</property>
  <property name="meta.attr.encoded_by.markup">Logic Pro X</property>
  <property name="meta.attr.date.markup">2017-06-15</property>
  <property name="meta.attr.creation_time.markup">14:54:54</property>
  <property name="meta.attr.time_reference.markup">158760000</property>
  <property name="meta.attr.umid.markup">0x000000000000000000000000000000000000000000000000000000002D004DB1F4A48AF9309C5459FF7F000046A467070100000060945459FF7F0000ECAEE6A7</property>
  <property name="seekable">1</property>
  <property name="audio_index">0</property>
  <property name="video_index">-1</property>
  <property name="mute_on_pause">1</property>
  <property name="mlt_service">avformat</property>
  <property name="kdenlive:clipname"/>
  <property name="kdenlive:clip_type">1</property>
  <property name="kdenlive:folderid">60</property>
  <property name="kdenlive:id">67</property>
  <property name="kdenlive:file_size">39772306</property>
  <property name="kdenlive:file_hash">08867dc4f83cf928c94570cc4402ac22</property>
  <property name="kdenlive:audio_max0">201</property>
 </producer>
 <producer id="producer50" in="00:00:00.000" out="00:00:25.067">
  <property name="length">1505</property>
  <property name="eof">pause</property>
  <property name="resource">audio/music/Bodytonic/Astrisx/variations/Astrisx | 30 Sec.wav</property>
  <property name="meta.media.nb_streams">1</property>
  <property name="meta.media.0.stream.type">audio</property>
  <property name="meta.media.0.codec.sample_fmt">s32</property>
  <property name="meta.media.0.codec.sample_rate">44100</property>
  <property name="meta.media.0.codec.channels">2</property>
  <property name="meta.media.0.codec.name">pcm_s24le</property>
  <property name="meta.media.0.codec.long_name">PCM signed 24-bit little-endian</property>
  <property name="meta.media.0.codec.bit_rate">2116800</property>
  <property name="meta.attr.encoded_by.markup">Logic Pro X</property>
  <property name="meta.attr.date.markup">2017-06-15</property>
  <property name="meta.attr.creation_time.markup">15:01:43</property>
  <property name="meta.attr.time_reference.markup">165844138</property>
  <property name="meta.attr.umid.markup">0x000000000000000000000000000000000000000000000000000000002D004DB1F4A48AF980495459FF7F000046A4670701000000B0415459FF7F0000ECAEE6A7</property>
  <property name="seekable">1</property>
  <property name="audio_index">0</property>
  <property name="video_index">-1</property>
  <property name="mute_on_pause">1</property>
  <property name="mlt_service">avformat</property>
  <property name="kdenlive:clipname"/>
  <property name="kdenlive:clip_type">1</property>
  <property name="kdenlive:folderid">66</property>
  <property name="kdenlive:id">68</property>
  <property name="kdenlive:file_size">6641648</property>
  <property name="kdenlive:file_hash">75e1dd0eed7fe8dfceaf415d384f69a5</property>
  <property name="kdenlive:audio_max0">218</property>
 </producer>
 <producer id="producer51" in="00:00:00.000" out="00:02:41.583">
  <property name="length">9696</property>
  <property name="eof">pause</property>
  <property name="resource">audio/music/Bodytonic/Astrisx/variations/Astrisx | Alt Start Atmo.wav</property>
  <property name="meta.media.nb_streams">1</property>
  <property name="meta.media.0.stream.type">audio</property>
  <property name="meta.media.0.codec.sample_fmt">s32</property>
  <property name="meta.media.0.codec.sample_rate">44100</property>
  <property name="meta.media.0.codec.channels">2</property>
  <property name="meta.media.0.codec.name">pcm_s24le</property>
  <property name="meta.media.0.codec.long_name">PCM signed 24-bit little-endian</property>
  <property name="meta.media.0.codec.bit_rate">2116800</property>
  <property name="meta.attr.encoded_by.markup">Logic Pro X</property>
  <property name="meta.attr.date.markup">2017-06-15</property>
  <property name="meta.attr.creation_time.markup">14:58:55</property>
  <property name="meta.attr.time_reference.markup">159057675</property>
  <property name="meta.attr.umid.markup">0x000000000000000000000000000000000000000000000000000000002D004DB1F4A48AF980495459FF7F000046A4670701000000B0415459FF7F0000ECAEE6A7</property>
  <property name="seekable">1</property>
  <property name="audio_index">0</property>
  <property name="video_index">-1</property>
  <property name="mute_on_pause">1</property>
  <property name="mlt_service">avformat</property>
  <property name="kdenlive:clipname"/>
  <property name="kdenlive:clip_type">1</property>
  <property name="kdenlive:folderid">66</property>
  <property name="kdenlive:id">69</property>
  <property name="kdenlive:file_size">42760108</property>
  <property name="kdenlive:file_hash">93066d46f02f5aff402e4d33cb70a30f</property>
  <property name="kdenlive:audio_max0">245</property>
 </producer>
 <producer id="producer52" in="00:00:00.000" out="00:02:06.450">
  <property name="length">7588</property>
  <property name="eof">pause</property>
  <property name="resource">audio/music/Bodytonic/Astrisx/variations/Astrisx | Alt Take Slower.wav</property>
  <property name="meta.media.nb_streams">1</property>
  <property name="meta.media.0.stream.type">audio</property>
  <property name="meta.media.0.codec.sample_fmt">s32</property>
  <property name="meta.media.0.codec.sample_rate">44100</property>
  <property name="meta.media.0.codec.channels">2</property>
  <property name="meta.media.0.codec.name">pcm_s24le</property>
  <property name="meta.media.0.codec.long_name">PCM signed 24-bit little-endian</property>
  <property name="meta.media.0.codec.bit_rate">2116800</property>
  <property name="meta.attr.encoded_by.markup">Logic Pro X</property>
  <property name="meta.attr.date.markup">2017-06-15</property>
  <property name="meta.attr.creation_time.markup">15:02:46</property>
  <property name="meta.attr.time_reference.markup">162022032</property>
  <property name="meta.attr.umid.markup">0x000000000000000000000000000000000000000000000000000000002D004DB1F4A48AF980495459FF7F000046A4670701000000B0415459FF7F0000ECAEE6A7</property>
  <property name="seekable">1</property>
  <property name="audio_index">0</property>
  <property name="video_index">-1</property>
  <property name="mute_on_pause">1</property>
  <property name="mlt_service">avformat</property>
  <property name="kdenlive:clipname"/>
  <property name="kdenlive:clip_type">1</property>
  <property name="kdenlive:folderid">66</property>
  <property name="kdenlive:id">70</property>
  <property name="kdenlive:file_size">33466268</property>
  <property name="kdenlive:file_hash">017ee05ed0ece03537e35dca9114496e</property>
  <property name="kdenlive:audio_max0">250</property>
 </producer>
 <producer id="producer53" in="00:00:00.000" out="00:01:58.583">
  <property name="length">7116</property>
  <property name="eof">pause</property>
  <property name="resource">audio/music/Bodytonic/Astrisx/variations/Astrisx | Minimal.wav</property>
  <property name="meta.media.nb_streams">1</property>
  <property name="meta.media.0.stream.type">audio</property>
  <property name="meta.media.0.codec.sample_fmt">s32</property>
  <property name="meta.media.0.codec.sample_rate">44100</property>
  <property name="meta.media.0.codec.channels">2</property>
  <property name="meta.media.0.codec.name">pcm_s24le</property>
  <property name="meta.media.0.codec.long_name">PCM signed 24-bit little-endian</property>
  <property name="meta.media.0.codec.bit_rate">2116800</property>
  <property name="meta.attr.encoded_by.markup">Logic Pro X</property>
  <property name="meta.attr.date.markup">2017-06-15</property>
  <property name="meta.attr.creation_time.markup">15:04:57</property>
  <property name="meta.attr.time_reference.markup">160843725</property>
  <property name="meta.attr.umid.markup">0x000000000000000000000000000000000000000000000000000000002D004DB1F4A48AF980495459FF7F000046A4670701000000B0415459FF7F0000ECAEE6A7</property>
  <property name="seekable">1</property>
  <property name="audio_index">0</property>
  <property name="video_index">-1</property>
  <property name="mute_on_pause">1</property>
  <property name="mlt_service">avformat</property>
  <property name="kdenlive:clipname"/>
  <property name="kdenlive:clip_type">1</property>
  <property name="kdenlive:folderid">66</property>
  <property name="kdenlive:id">71</property>
  <property name="kdenlive:file_size">31382308</property>
  <property name="kdenlive:file_hash">c7326b99156cbc441826df441f8d9dcd</property>
  <property name="kdenlive:audio_max0">248</property>
 </producer>
 <producer id="producer54" in="00:00:00.000" out="00:00:37.583">
  <property name="length">2256</property>
  <property name="eof">pause</property>
  <property name="resource">audio/music/Bodytonic/Astrisx/variations/Astrisx | Short Form.wav</property>
  <property name="meta.media.nb_streams">1</property>
  <property name="meta.media.0.stream.type">audio</property>
  <property name="meta.media.0.codec.sample_fmt">s32</property>
  <property name="meta.media.0.codec.sample_rate">44100</property>
  <property name="meta.media.0.codec.channels">2</property>
  <property name="meta.media.0.codec.name">pcm_s24le</property>
  <property name="meta.media.0.codec.long_name">PCM signed 24-bit little-endian</property>
  <property name="meta.media.0.codec.bit_rate">2116800</property>
  <property name="meta.attr.encoded_by.markup">Logic Pro X</property>
  <property name="meta.attr.date.markup">2017-06-15</property>
  <property name="meta.attr.creation_time.markup">15:00:56</property>
  <property name="meta.attr.time_reference.markup">164415825</property>
  <property name="meta.attr.umid.markup">0x000000000000000000000000000000000000000000000000000000002D004DB1F4A48AF980495459FF7F000046A4670701000000B0415459FF7F0000ECAEE6A7</property>
  <property name="seekable">1</property>
  <property name="audio_index">0</property>
  <property name="video_index">-1</property>
  <property name="mute_on_pause">1</property>
  <property name="mlt_service">avformat</property>
  <property name="kdenlive:clipname"/>
  <property name="kdenlive:clip_type">1</property>
  <property name="kdenlive:folderid">66</property>
  <property name="kdenlive:id">73</property>
  <property name="kdenlive:file_size">9949708</property>
  <property name="kdenlive:file_hash">6135771b1d38f36ac091bb5eefb0bcee</property>
  <property name="kdenlive:audio_max0">228</property>
 </producer>
 <producer id="producer55" in="00:00:00.000" out="00:03:05.433">
  <property name="length">11127</property>
  <property name="eof">pause</property>
  <property name="resource">audio/music/Bodytonic/Cases to Rest/Cases to Rest.wav</property>
  <property name="meta.media.nb_streams">1</property>
  <property name="meta.media.0.stream.type">audio</property>
  <property name="meta.media.0.codec.sample_fmt">s32</property>
  <property name="meta.media.0.codec.sample_rate">44100</property>
  <property name="meta.media.0.codec.channels">2</property>
  <property name="meta.media.0.codec.name">pcm_s24le</property>
  <property name="meta.media.0.codec.long_name">PCM signed 24-bit little-endian</property>
  <property name="meta.media.0.codec.bit_rate">2116800</property>
  <property name="meta.attr.encoded_by.markup">Logic Pro X</property>
  <property name="meta.attr.date.markup">2017-07-16</property>
  <property name="meta.attr.creation_time.markup">13:55:21</property>
  <property name="meta.attr.time_reference.markup">158760000</property>
  <property name="meta.attr.umid.markup">0x00000000000000000000000000000000000000000000000000000000EE00CDDB768CEBF380697352FF7F00004684480E01000000B0617352FF7F0000ECEE1AD9</property>
  <property name="seekable">1</property>
  <property name="audio_index">0</property>
  <property name="video_index">-1</property>
  <property name="mute_on_pause">1</property>
  <property name="mlt_service">avformat</property>
  <property name="kdenlive:clipname"/>
  <property name="kdenlive:clip_type">1</property>
  <property name="kdenlive:folderid">72</property>
  <property name="kdenlive:id">75</property>
  <property name="kdenlive:file_size">49072094</property>
  <property name="kdenlive:file_hash">59499b3efe0b0020ff2318ae70d3c5af</property>
  <property name="kdenlive:audio_max0">249</property>
 </producer>
 <producer id="producer56" in="00:00:00.000" out="00:02:51.650">
  <property name="length">10300</property>
  <property name="eof">pause</property>
  <property name="resource">audio/music/Bodytonic/Cases to Rest/stems/01_Cases to Rest_Rhodia Syn.wav</property>
  <property name="meta.media.nb_streams">1</property>
  <property name="meta.media.0.stream.type">audio</property>
  <property name="meta.media.0.codec.sample_fmt">s32</property>
  <property name="meta.media.0.codec.sample_rate">44100</property>
  <property name="meta.media.0.codec.channels">2</property>
  <property name="meta.media.0.codec.name">pcm_s24le</property>
  <property name="meta.media.0.codec.long_name">PCM signed 24-bit little-endian</property>
  <property name="meta.media.0.codec.bit_rate">2116800</property>
  <property name="meta.attr.encoded_by.markup">Logic Pro X</property>
  <property name="meta.attr.date.markup">2017-07-16</property>
  <property name="meta.attr.creation_time.markup">13:42:51</property>
  <property name="meta.attr.time_reference.markup">158760000</property>
  <property name="meta.attr.umid.markup">0x00000000000000000000000000000000000000000000000000000000EE00CDDB768CEBF320BC7352FF7F00004684480E0100000050B47352FF7F0000ECEE1AD9</property>
  <property name="seekable">1</property>
  <property name="audio_index">0</property>
  <property name="video_index">-1</property>
  <property name="mute_on_pause">1</property>
  <property name="mlt_service">avformat</property>
  <property name="kdenlive:clipname"/>
  <property name="kdenlive:clip_type">1</property>
  <property name="kdenlive:folderid">74</property>
  <property name="kdenlive:id">76</property>
  <property name="kdenlive:file_size">45480996</property>
  <property name="kdenlive:file_hash">d1293eebda73d06be78662e21a96b1f8</property>
  <property name="kdenlive:audio_max0">100</property>
 </producer>
 <producer id="producer57" in="00:00:00.000" out="00:01:32.133">
  <property name="length">5529</property>
  <property name="eof">pause</property>
  <property name="resource">audio/music/Bodytonic/Cases to Rest/stems/02_Cases to Rest_Fjoria Syn.wav</property>
  <property name="meta.media.nb_streams">1</property>
  <property name="meta.media.0.stream.type">audio</property>
  <property name="meta.media.0.codec.sample_fmt">s32</property>
  <property name="meta.media.0.codec.sample_rate">44100</property>
  <property name="meta.media.0.codec.channels">2</property>
  <property name="meta.media.0.codec.name">pcm_s24le</property>
  <property name="meta.media.0.codec.long_name">PCM signed 24-bit little-endian</property>
  <property name="meta.media.0.codec.bit_rate">2116800</property>
  <property name="meta.attr.encoded_by.markup">Logic Pro X</property>
  <property name="meta.attr.date.markup">2017-07-16</property>
  <property name="meta.attr.creation_time.markup">13:42:49</property>
  <property name="meta.attr.time_reference.markup">158760000</property>
  <property name="meta.attr.umid.markup">0x00000000000000000000000000000000000000000000000000000000EE00CDDB768CEBF320BC7352FF7F00004684480E0100000050B47352FF7F0000ECEE1AD9</property>
  <property name="seekable">1</property>
  <property name="audio_index">0</property>
  <property name="video_index">-1</property>
  <property name="mute_on_pause">1</property>
  <property name="mlt_service">avformat</property>
  <property name="kdenlive:clipname"/>
  <property name="kdenlive:clip_type">1</property>
  <property name="kdenlive:folderid">74</property>
  <property name="kdenlive:id">77</property>
  <property name="kdenlive:file_size">24416498</property>
  <property name="kdenlive:file_hash">032366e3e67a0f17c44eddf8393a278a</property>
  <property name="kdenlive:audio_max0">61</property>
 </producer>
 <producer id="producer58" in="00:00:00.000" out="00:03:00.567">
  <property name="length">10835</property>
  <property name="eof">pause</property>
  <property name="resource">audio/music/Bodytonic/Cases to Rest/stems/03_Cases to Rest_Upright Bass.wav</property>
  <property name="meta.media.nb_streams">1</property>
  <property name="meta.media.0.stream.type">audio</property>
  <property name="meta.media.0.codec.sample_fmt">s32</property>
  <property name="meta.media.0.codec.sample_rate">44100</property>
  <property name="meta.media.0.codec.channels">2</property>
  <property name="meta.media.0.codec.name">pcm_s24le</property>
  <property name="meta.media.0.codec.long_name">PCM signed 24-bit little-endian</property>
  <property name="meta.media.0.codec.bit_rate">2116800</property>
  <property name="meta.attr.encoded_by.markup">Logic Pro X</property>
  <property name="meta.attr.date.markup">2017-07-16</property>
  <property name="meta.attr.creation_time.markup">13:42:45</property>
  <property name="meta.attr.time_reference.markup">158760000</property>
  <property name="meta.attr.umid.markup">0x00000000000000000000000000000000000000000000000000000000EE00CDDB768CEBF320BC7352FF7F00004684480E0100000050B47352FF7F0000ECEE1AD9</property>
  <property name="seekable">1</property>
  <property name="audio_index">0</property>
  <property name="video_index">-1</property>
  <property name="mute_on_pause">1</property>
  <property name="mlt_service">avformat</property>
  <property name="kdenlive:clipname"/>
  <property name="kdenlive:clip_type">1</property>
  <property name="kdenlive:folderid">74</property>
  <property name="kdenlive:id">78</property>
  <property name="kdenlive:file_size">47843364</property>
  <property name="kdenlive:file_hash">ca46ff5c3acdbafb275c3909bf0a586f</property>
  <property name="kdenlive:audio_max0">220</property>
 </producer>
 <producer id="producer59" in="00:00:00.000" out="00:02:59.067">
  <property name="length">10745</property>
  <property name="eof">pause</property>
  <property name="resource">audio/music/Bodytonic/Cases to Rest/stems/04_Cases to Rest_Piano.wav</property>
  <property name="meta.media.nb_streams">1</property>
  <property name="meta.media.0.stream.type">audio</property>
  <property name="meta.media.0.codec.sample_fmt">s32</property>
  <property name="meta.media.0.codec.sample_rate">44100</property>
  <property name="meta.media.0.codec.channels">2</property>
  <property name="meta.media.0.codec.name">pcm_s24le</property>
  <property name="meta.media.0.codec.long_name">PCM signed 24-bit little-endian</property>
  <property name="meta.media.0.codec.bit_rate">2116800</property>
  <property name="meta.attr.encoded_by.markup">Logic Pro X</property>
  <property name="meta.attr.date.markup">2017-07-16</property>
  <property name="meta.attr.creation_time.markup">13:42:55</property>
  <property name="meta.attr.time_reference.markup">158760000</property>
  <property name="meta.attr.umid.markup">0x00000000000000000000000000000000000000000000000000000000EE00CDDB768CEBF320BC7352FF7F00004684480E0100000050B47352FF7F0000ECEE1AD9</property>
  <property name="seekable">1</property>
  <property name="audio_index">0</property>
  <property name="video_index">-1</property>
  <property name="mute_on_pause">1</property>
  <property name="mlt_service">avformat</property>
  <property name="kdenlive:clipname"/>
  <property name="kdenlive:clip_type">1</property>
  <property name="kdenlive:folderid">74</property>
  <property name="kdenlive:id">79</property>
  <property name="kdenlive:file_size">47449636</property>
  <property name="kdenlive:file_hash">4950ab6378c48baca0aa485d5d0c065f</property>
  <property name="kdenlive:audio_max0">168</property>
 </producer>
 <producer id="producer60" in="00:00:00.000" out="00:02:56.850">
  <property name="length">10612</property>
  <property name="eof">pause</property>
  <property name="resource">audio/music/Bodytonic/Cases to Rest/stems/05_Cases to Rest_Marimba.wav</property>
  <property name="meta.media.nb_streams">1</property>
  <property name="meta.media.0.stream.type">audio</property>
  <property name="meta.media.0.codec.sample_fmt">s32</property>
  <property name="meta.media.0.codec.sample_rate">44100</property>
  <property name="meta.media.0.codec.channels">2</property>
  <property name="meta.media.0.codec.name">pcm_s24le</property>
  <property name="meta.media.0.codec.long_name">PCM signed 24-bit little-endian</property>
  <property name="meta.media.0.codec.bit_rate">2116800</property>
  <property name="meta.attr.encoded_by.markup">Logic Pro X</property>
  <property name="meta.attr.date.markup">2017-07-16</property>
  <property name="meta.attr.creation_time.markup">13:43:03</property>
  <property name="meta.attr.time_reference.markup">158760000</property>
  <property name="meta.attr.umid.markup">0x00000000000000000000000000000000000000000000000000000000EE00CDDB768CEBF320BC7352FF7F00004684480E0100000050B47352FF7F0000ECEE1AD9</property>
  <property name="seekable">1</property>
  <property name="audio_index">0</property>
  <property name="video_index">-1</property>
  <property name="mute_on_pause">1</property>
  <property name="mlt_service">avformat</property>
  <property name="kdenlive:clipname"/>
  <property name="kdenlive:clip_type">1</property>
  <property name="kdenlive:folderid">74</property>
  <property name="kdenlive:id">80</property>
  <property name="kdenlive:file_size">46859044</property>
  <property name="kdenlive:file_hash">18fe19d98ccc48eacb21f8d681940c25</property>
  <property name="kdenlive:audio_max0">186</property>
 </producer>
 <producer id="producer61" in="00:00:00.000" out="00:02:48.667">
  <property name="length">10121</property>
  <property name="eof">pause</property>
  <property name="resource">audio/music/Bodytonic/Cases to Rest/stems/06_Cases to Rest_Drum Kit.wav</property>
  <property name="meta.media.nb_streams">1</property>
  <property name="meta.media.0.stream.type">audio</property>
  <property name="meta.media.0.codec.sample_fmt">s32</property>
  <property name="meta.media.0.codec.sample_rate">44100</property>
  <property name="meta.media.0.codec.channels">2</property>
  <property name="meta.media.0.codec.name">pcm_s24le</property>
  <property name="meta.media.0.codec.long_name">PCM signed 24-bit little-endian</property>
  <property name="meta.media.0.codec.bit_rate">2116800</property>
  <property name="meta.attr.encoded_by.markup">Logic Pro X</property>
  <property name="meta.attr.date.markup">2017-07-16</property>
  <property name="meta.attr.creation_time.markup">13:42:59</property>
  <property name="meta.attr.time_reference.markup">158760000</property>
  <property name="meta.attr.umid.markup">0x00000000000000000000000000000000000000000000000000000000EE00CDDB768CEBF320BC7352FF7F00004684480E0100000050B47352FF7F0000ECEE1AD9</property>
  <property name="seekable">1</property>
  <property name="audio_index">0</property>
  <property name="video_index">-1</property>
  <property name="mute_on_pause">1</property>
  <property name="mlt_service">avformat</property>
  <property name="kdenlive:clipname"/>
  <property name="kdenlive:clip_type">1</property>
  <property name="kdenlive:folderid">74</property>
  <property name="kdenlive:id">81</property>
  <property name="kdenlive:file_size">44693540</property>
  <property name="kdenlive:file_hash">f3ee4c477522f02ff3945124501f54be</property>
  <property name="kdenlive:audio_max0">169</property>
 </producer>
 <producer id="producer62" in="00:00:00.000" out="00:02:50.150">
  <property name="length">10210</property>
  <property name="eof">pause</property>
  <property name="resource">audio/music/Bodytonic/Cases to Rest/stems/07_Cases to Rest_Found Percussion.wav</property>
  <property name="meta.media.nb_streams">1</property>
  <property name="meta.media.0.stream.type">audio</property>
  <property name="meta.media.0.codec.sample_fmt">s32</property>
  <property name="meta.media.0.codec.sample_rate">44100</property>
  <property name="meta.media.0.codec.channels">2</property>
  <property name="meta.media.0.codec.name">pcm_s24le</property>
  <property name="meta.media.0.codec.long_name">PCM signed 24-bit little-endian</property>
  <property name="meta.media.0.codec.bit_rate">2116800</property>
  <property name="meta.attr.encoded_by.markup">Logic Pro X</property>
  <property name="meta.attr.date.markup">2017-07-16</property>
  <property name="meta.attr.creation_time.markup">13:42:40</property>
  <property name="meta.attr.time_reference.markup">158760000</property>
  <property name="meta.attr.umid.markup">0x00000000000000000000000000000000000000000000000000000000EE00CDDB768CEBF320BC7352FF7F00004684480E0100000050B47352FF7F0000ECEE1AD9</property>
  <property name="seekable">1</property>
  <property name="audio_index">0</property>
  <property name="video_index">-1</property>
  <property name="mute_on_pause">1</property>
  <property name="mlt_service">avformat</property>
  <property name="kdenlive:clipname"/>
  <property name="kdenlive:clip_type">1</property>
  <property name="kdenlive:folderid">74</property>
  <property name="kdenlive:id">83</property>
  <property name="kdenlive:file_size">45087268</property>
  <property name="kdenlive:file_hash">c1ac4c902c71ccb126f83188619852b8</property>
  <property name="kdenlive:audio_max0">160</property>
 </producer>
 <producer id="producer63" in="00:00:00.000" out="00:00:38.167">
  <property name="length">2291</property>
  <property name="eof">pause</property>
  <property name="resource">audio/music/Bodytonic/Cases to Rest/variations/Cases to Rest | 30 Sec.wav</property>
  <property name="meta.media.nb_streams">1</property>
  <property name="meta.media.0.stream.type">audio</property>
  <property name="meta.media.0.codec.sample_fmt">s32</property>
  <property name="meta.media.0.codec.sample_rate">44100</property>
  <property name="meta.media.0.codec.channels">2</property>
  <property name="meta.media.0.codec.name">pcm_s24le</property>
  <property name="meta.media.0.codec.long_name">PCM signed 24-bit little-endian</property>
  <property name="meta.media.0.codec.bit_rate">2116800</property>
  <property name="meta.attr.encoded_by.markup">Logic Pro X</property>
  <property name="meta.attr.date.markup">2017-07-16</property>
  <property name="meta.attr.creation_time.markup">14:00:42</property>
  <property name="meta.attr.time_reference.markup">162207818</property>
  <property name="meta.attr.umid.markup">0x00000000000000000000000000000000000000000000000000000000EE00CDDB768CEBF380697352FF7F00004684480E01000000B0617352FF7F0000ECEE1AD9</property>
  <property name="seekable">1</property>
  <property name="audio_index">0</property>
  <property name="video_index">-1</property>
  <property name="mute_on_pause">1</property>
  <property name="mlt_service">avformat</property>
  <property name="kdenlive:clipname"/>
  <property name="kdenlive:clip_type">1</property>
  <property name="kdenlive:folderid">82</property>
  <property name="kdenlive:id">84</property>
  <property name="kdenlive:file_size">10103688</property>
  <property name="kdenlive:file_hash">a322b0ab2c8327491109ae45010b55b0</property>
  <property name="kdenlive:audio_max0">239</property>
 </producer>
 <producer id="producer64" in="00:00:00.000" out="00:01:50.900">
  <property name="length">6655</property>
  <property name="eof">pause</property>
  <property name="resource">audio/music/Bodytonic/Cases to Rest/variations/Cases to Rest | Direct Start.wav</property>
  <property name="meta.media.nb_streams">1</property>
  <property name="meta.media.0.stream.type">audio</property>
  <property name="meta.media.0.codec.sample_fmt">s32</property>
  <property name="meta.media.0.codec.sample_rate">44100</property>
  <property name="meta.media.0.codec.channels">2</property>
  <property name="meta.media.0.codec.name">pcm_s24le</property>
  <property name="meta.media.0.codec.long_name">PCM signed 24-bit little-endian</property>
  <property name="meta.media.0.codec.bit_rate">2116800</property>
  <property name="meta.attr.encoded_by.markup">Logic Pro X</property>
  <property name="meta.attr.date.markup">2017-07-16</property>
  <property name="meta.attr.creation_time.markup">14:05:23</property>
  <property name="meta.attr.time_reference.markup">162207818</property>
  <property name="meta.attr.umid.markup">0x00000000000000000000000000000000000000000000000000000000EE00CDDB768CEBF380697352FF7F00004684480E01000000B0617352FF7F0000ECEE1AD9</property>
  <property name="seekable">1</property>
  <property name="audio_index">0</property>
  <property name="video_index">-1</property>
  <property name="mute_on_pause">1</property>
  <property name="mlt_service">avformat</property>
  <property name="kdenlive:clipname"/>
  <property name="kdenlive:clip_type">1</property>
  <property name="kdenlive:folderid">82</property>
  <property name="kdenlive:id">85</property>
  <property name="kdenlive:file_size">29347276</property>
  <property name="kdenlive:file_hash">0d7bf681287144acccfccea88c5189e6</property>
  <property name="kdenlive:audio_max0">246</property>
 </producer>
 <producer id="producer65" in="00:00:00.000" out="00:02:25.433">
  <property name="length">8727</property>
  <property name="eof">pause</property>
  <property name="resource">audio/music/Bodytonic/Cases to Rest/variations/Cases to Rest | Minimal Piano.wav</property>
  <property name="meta.media.nb_streams">1</property>
  <property name="meta.media.0.stream.type">audio</property>
  <property name="meta.media.0.codec.sample_fmt">s32</property>
  <property name="meta.media.0.codec.sample_rate">44100</property>
  <property name="meta.media.0.codec.channels">2</property>
  <property name="meta.media.0.codec.name">pcm_s24le</property>
  <property name="meta.media.0.codec.long_name">PCM signed 24-bit little-endian</property>
  <property name="meta.media.0.codec.bit_rate">2116800</property>
  <property name="meta.attr.encoded_by.markup">Logic Pro X</property>
  <property name="meta.attr.date.markup">2017-07-16</property>
  <property name="meta.attr.creation_time.markup">14:02:12</property>
  <property name="meta.attr.time_reference.markup">160684363</property>
  <property name="meta.attr.umid.markup">0x00000000000000000000000000000000000000000000000000000000EE00CDDB768CEBF380697352FF7F00004684480E01000000B0617352FF7F0000ECEE1AD9</property>
  <property name="seekable">1</property>
  <property name="audio_index">0</property>
  <property name="video_index">-1</property>
  <property name="mute_on_pause">1</property>
  <property name="mlt_service">avformat</property>
  <property name="kdenlive:clipname"/>
  <property name="kdenlive:clip_type">1</property>
  <property name="kdenlive:folderid">82</property>
  <property name="kdenlive:id">86</property>
  <property name="kdenlive:file_size">38488094</property>
  <property name="kdenlive:file_hash">b9c9961eb0f7cd3d102dff99417250e2</property>
  <property name="kdenlive:audio_max0">246</property>
 </producer>
 <producer id="producer66" in="00:00:00.000" out="00:01:57.100">
  <property name="length">7027</property>
  <property name="eof">pause</property>
  <property name="resource">audio/music/Bodytonic/Cases to Rest/variations/Cases to Rest | Minimal.wav</property>
  <property name="meta.media.nb_streams">1</property>
  <property name="meta.media.0.stream.type">audio</property>
  <property name="meta.media.0.codec.sample_fmt">s32</property>
  <property name="meta.media.0.codec.sample_rate">44100</property>
  <property name="meta.media.0.codec.channels">2</property>
  <property name="meta.media.0.codec.name">pcm_s24le</property>
  <property name="meta.media.0.codec.long_name">PCM signed 24-bit little-endian</property>
  <property name="meta.media.0.codec.bit_rate">2116800</property>
  <property name="meta.attr.encoded_by.markup">Logic Pro X</property>
  <property name="meta.attr.date.markup">2017-07-16</property>
  <property name="meta.attr.creation_time.markup">14:04:27</property>
  <property name="meta.attr.time_reference.markup">162400896</property>
  <property name="meta.attr.umid.markup">0x00000000000000000000000000000000000000000000000000000000EE00CDDB768CEBF380697352FF7F00004684480E01000000B0617352FF7F0000ECEE1AD9</property>
  <property name="seekable">1</property>
  <property name="audio_index">0</property>
  <property name="video_index">-1</property>
  <property name="mute_on_pause">1</property>
  <property name="mlt_service">avformat</property>
  <property name="kdenlive:clipname"/>
  <property name="kdenlive:clip_type">1</property>
  <property name="kdenlive:folderid">82</property>
  <property name="kdenlive:id">87</property>
  <property name="kdenlive:file_size">30990682</property>
  <property name="kdenlive:file_hash">4ebd70173f0f73db9d9a0b0812924d67</property>
  <property name="kdenlive:audio_max0">246</property>
 </producer>
 <producer id="producer67" in="00:00:00.000" out="00:00:47.250">
  <property name="length">2836</property>
  <property name="eof">pause</property>
  <property name="resource">audio/music/Bodytonic/Cases to Rest/variations/Cases to Rest | Short Minimal.wav</property>
  <property name="meta.media.nb_streams">1</property>
  <property name="meta.media.0.stream.type">audio</property>
  <property name="meta.media.0.codec.sample_fmt">s32</property>
  <property name="meta.media.0.codec.sample_rate">44100</property>
  <property name="meta.media.0.codec.channels">2</property>
  <property name="meta.media.0.codec.name">pcm_s24le</property>
  <property name="meta.media.0.codec.long_name">PCM signed 24-bit little-endian</property>
  <property name="meta.media.0.codec.bit_rate">2116800</property>
  <property name="meta.attr.encoded_by.markup">Logic Pro X</property>
  <property name="meta.attr.date.markup">2017-07-16</property>
  <property name="meta.attr.creation_time.markup">13:58:45</property>
  <property name="meta.attr.time_reference.markup">164773636</property>
  <property name="meta.attr.umid.markup">0x00000000000000000000000000000000000000000000000000000000EE00CDDB768CEBF380697352FF7F00004684480E01000000B0617352FF7F0000ECEE1AD9</property>
  <property name="seekable">1</property>
  <property name="audio_index">0</property>
  <property name="video_index">-1</property>
  <property name="mute_on_pause">1</property>
  <property name="mlt_service">avformat</property>
  <property name="kdenlive:clipname"/>
  <property name="kdenlive:clip_type">1</property>
  <property name="kdenlive:folderid">82</property>
  <property name="kdenlive:id">88</property>
  <property name="kdenlive:file_size">12509186</property>
  <property name="kdenlive:file_hash">297c578554dc2fdf1cf066c678083cff</property>
  <property name="kdenlive:audio_max0">247</property>
 </producer>
 <producer id="producer68" in="00:00:00.000" out="00:00:47.250">
  <property name="length">2836</property>
  <property name="eof">pause</property>
  <property name="resource">audio/music/Bodytonic/Cases to Rest/variations/Cases to Rest | Short.wav</property>
  <property name="meta.media.nb_streams">1</property>
  <property name="meta.media.0.stream.type">audio</property>
  <property name="meta.media.0.codec.sample_fmt">s32</property>
  <property name="meta.media.0.codec.sample_rate">44100</property>
  <property name="meta.media.0.codec.channels">2</property>
  <property name="meta.media.0.codec.name">pcm_s24le</property>
  <property name="meta.media.0.codec.long_name">PCM signed 24-bit little-endian</property>
  <property name="meta.media.0.codec.bit_rate">2116800</property>
  <property name="meta.attr.encoded_by.markup">Logic Pro X</property>
  <property name="meta.attr.date.markup">2017-07-16</property>
  <property name="meta.attr.creation_time.markup">13:58:10</property>
  <property name="meta.attr.time_reference.markup">164773636</property>
  <property name="meta.attr.umid.markup">0x00000000000000000000000000000000000000000000000000000000EE00CDDB768CEBF380697352FF7F00004684480E01000000B0617352FF7F0000ECEE1AD9</property>
  <property name="seekable">1</property>
  <property name="audio_index">0</property>
  <property name="video_index">-1</property>
  <property name="mute_on_pause">1</property>
  <property name="mlt_service">avformat</property>
  <property name="kdenlive:clipname"/>
  <property name="kdenlive:clip_type">1</property>
  <property name="kdenlive:folderid">82</property>
  <property name="kdenlive:id">90</property>
  <property name="kdenlive:file_size">12509186</property>
  <property name="kdenlive:file_hash">67ca2778559b81bb3a356258761fde29</property>
  <property name="kdenlive:audio_max0">244</property>
 </producer>
 <producer id="producer69" in="00:00:00.000" out="00:01:51.950">
  <property name="length">6718</property>
  <property name="eof">pause</property>
  <property name="resource">audio/music/Bodytonic/Inamorata/Inamorata.wav</property>
  <property name="meta.media.nb_streams">1</property>
  <property name="meta.media.0.stream.type">audio</property>
  <property name="meta.media.0.codec.sample_fmt">s32</property>
  <property name="meta.media.0.codec.sample_rate">44100</property>
  <property name="meta.media.0.codec.channels">2</property>
  <property name="meta.media.0.codec.name">pcm_s24le</property>
  <property name="meta.media.0.codec.long_name">PCM signed 24-bit little-endian</property>
  <property name="meta.media.0.codec.bit_rate">2116800</property>
  <property name="meta.attr.encoded_by.markup">Logic Pro X</property>
  <property name="meta.attr.date.markup">2017-06-07</property>
  <property name="meta.attr.creation_time.markup">13:23:22</property>
  <property name="meta.attr.time_reference.markup">158760000</property>
  <property name="meta.attr.umid.markup">0x00000000000000000000000000000000000000000000000000000000440089C0936A1F5780E96459FF7F00004604570701000000B0E16459FF7F0000ECFE8894</property>
  <property name="seekable">1</property>
  <property name="audio_index">0</property>
  <property name="video_index">-1</property>
  <property name="mute_on_pause">1</property>
  <property name="mlt_service">avformat</property>
  <property name="kdenlive:clipname"/>
  <property name="kdenlive:clip_type">1</property>
  <property name="kdenlive:folderid">89</property>
  <property name="kdenlive:id">92</property>
  <property name="kdenlive:file_size">29626480</property>
  <property name="kdenlive:file_hash">496d5a808d49edd0083f73aebbc44f9b</property>
  <property name="kdenlive:audio_max0">233</property>
 </producer>
 <producer id="producer70" in="00:00:00.000" out="00:01:47.733">
  <property name="length">6465</property>
  <property name="eof">pause</property>
  <property name="resource">audio/music/Bodytonic/Inamorata/stems/01_Inamorata_Piano.wav</property>
  <property name="meta.media.nb_streams">1</property>
  <property name="meta.media.0.stream.type">audio</property>
  <property name="meta.media.0.codec.sample_fmt">s32</property>
  <property name="meta.media.0.codec.sample_rate">44100</property>
  <property name="meta.media.0.codec.channels">2</property>
  <property name="meta.media.0.codec.name">pcm_s24le</property>
  <property name="meta.media.0.codec.long_name">PCM signed 24-bit little-endian</property>
  <property name="meta.media.0.codec.bit_rate">2116800</property>
  <property name="meta.attr.encoded_by.markup">Logic Pro X</property>
  <property name="meta.attr.date.markup">2017-06-07</property>
  <property name="meta.attr.creation_time.markup">13:24:22</property>
  <property name="meta.attr.time_reference.markup">158760000</property>
  <property name="meta.attr.umid.markup">0x00000000000000000000000000000000000000000000000000000000440089C0936A1F57303C6559FF7F0000460457070100000060346559FF7F0000ECFE8894</property>
  <property name="seekable">1</property>
  <property name="audio_index">0</property>
  <property name="video_index">-1</property>
  <property name="mute_on_pause">1</property>
  <property name="mlt_service">avformat</property>
  <property name="kdenlive:clipname"/>
  <property name="kdenlive:clip_type">1</property>
  <property name="kdenlive:folderid">91</property>
  <property name="kdenlive:id">93</property>
  <property name="kdenlive:file_size">28550592</property>
  <property name="kdenlive:file_hash">c6ea8b15dc91ed5224b5983cf7406467</property>
  <property name="kdenlive:audio_max0">110</property>
 </producer>
 <producer id="producer71" in="00:00:00.000" out="00:01:41.800">
  <property name="length">6109</property>
  <property name="eof">pause</property>
  <property name="resource">audio/music/Bodytonic/Inamorata/stems/02_Inamorata_Fjoria Syn.wav</property>
  <property name="meta.media.nb_streams">1</property>
  <property name="meta.media.0.stream.type">audio</property>
  <property name="meta.media.0.codec.sample_fmt">s32</property>
  <property name="meta.media.0.codec.sample_rate">44100</property>
  <property name="meta.media.0.codec.channels">2</property>
  <property name="meta.media.0.codec.name">pcm_s24le</property>
  <property name="meta.media.0.codec.long_name">PCM signed 24-bit little-endian</property>
  <property name="meta.media.0.codec.bit_rate">2116800</property>
  <property name="meta.attr.encoded_by.markup">Logic Pro X</property>
  <property name="meta.attr.date.markup">2017-06-07</property>
  <property name="meta.attr.creation_time.markup">13:24:20</property>
  <property name="meta.attr.time_reference.markup">158760000</property>
  <property name="meta.attr.umid.markup">0x00000000000000000000000000000000000000000000000000000000440089C0936A1F57303C6559FF7F0000460457070100000060346559FF7F0000ECFE8894</property>
  <property name="seekable">1</property>
  <property name="audio_index">0</property>
  <property name="video_index">-1</property>
  <property name="mute_on_pause">1</property>
  <property name="mlt_service">avformat</property>
  <property name="kdenlive:clipname"/>
  <property name="kdenlive:clip_type">1</property>
  <property name="kdenlive:folderid">91</property>
  <property name="kdenlive:id">94</property>
  <property name="kdenlive:file_size">26975680</property>
  <property name="kdenlive:file_hash">7bb784665d9e050435e4465c197b1c82</property>
  <property name="kdenlive:audio_max0">85</property>
 </producer>
 <producer id="producer72" in="00:00:00.000" out="00:01:45.517">
  <property name="length">6332</property>
  <property name="eof">pause</property>
  <property name="resource">audio/music/Bodytonic/Inamorata/stems/03_Inamorata_Marimba.wav</property>
  <property name="meta.media.nb_streams">1</property>
  <property name="meta.media.0.stream.type">audio</property>
  <property name="meta.media.0.codec.sample_fmt">s32</property>
  <property name="meta.media.0.codec.sample_rate">44100</property>
  <property name="meta.media.0.codec.channels">2</property>
  <property name="meta.media.0.codec.name">pcm_s24le</property>
  <property name="meta.media.0.codec.long_name">PCM signed 24-bit little-endian</property>
  <property name="meta.media.0.codec.bit_rate">2116800</property>
  <property name="meta.attr.encoded_by.markup">Logic Pro X</property>
  <property name="meta.attr.date.markup">2017-06-07</property>
  <property name="meta.attr.creation_time.markup">13:24:24</property>
  <property name="meta.attr.time_reference.markup">158760000</property>
  <property name="meta.attr.umid.markup">0x00000000000000000000000000000000000000000000000000000000440089C0936A1F57303C6559FF7F0000460457070100000060346559FF7F0000ECFE8894</property>
  <property name="seekable">1</property>
  <property name="audio_index">0</property>
  <property name="video_index">-1</property>
  <property name="mute_on_pause">1</property>
  <property name="mlt_service">avformat</property>
  <property name="kdenlive:clipname"/>
  <property name="kdenlive:clip_type">1</property>
  <property name="kdenlive:folderid">91</property>
  <property name="kdenlive:id">96</property>
  <property name="kdenlive:file_size">27960000</property>
  <property name="kdenlive:file_hash">a9ab57099824bf8f9922c4f7d35fa4b3</property>
  <property name="kdenlive:audio_max0">132</property>
 </producer>
 <producer id="producer73" in="00:00:00.000" out="00:00:57.833">
  <property name="length">3471</property>
  <property name="eof">pause</property>
  <property name="resource">audio/music/Bodytonic/Inamorata/variations/Inamorata | 1 Min.wav</property>
  <property name="meta.media.nb_streams">1</property>
  <property name="meta.media.0.stream.type">audio</property>
  <property name="meta.media.0.codec.sample_fmt">s32</property>
  <property name="meta.media.0.codec.sample_rate">44100</property>
  <property name="meta.media.0.codec.channels">2</property>
  <property name="meta.media.0.codec.name">pcm_s24le</property>
  <property name="meta.media.0.codec.long_name">PCM signed 24-bit little-endian</property>
  <property name="meta.media.0.codec.bit_rate">2116800</property>
  <property name="meta.attr.encoded_by.markup">Logic Pro X</property>
  <property name="meta.attr.date.markup">2017-06-07</property>
  <property name="meta.attr.creation_time.markup">13:25:16</property>
  <property name="meta.attr.time_reference.markup">161028000</property>
  <property name="meta.attr.umid.markup">0x00000000000000000000000000000000000000000000000000000000440089C0936A1F5780E96459FF7F00004604570701000000B0E16459FF7F0000ECFE8894</property>
  <property name="seekable">1</property>
  <property name="audio_index">0</property>
  <property name="video_index">-1</property>
  <property name="mute_on_pause">1</property>
  <property name="mlt_service">avformat</property>
  <property name="kdenlive:clipname"/>
  <property name="kdenlive:clip_type">1</property>
  <property name="kdenlive:folderid">95</property>
  <property name="kdenlive:id">97</property>
  <property name="kdenlive:file_size">15309730</property>
  <property name="kdenlive:file_hash">4281c949fb4bd477ca78a636cd7c7fd2</property>
  <property name="kdenlive:audio_max0">232</property>
 </producer>
 <producer id="producer74" in="00:00:00.000" out="00:00:57.833">
  <property name="length">3471</property>
  <property name="eof">pause</property>
  <property name="resource">audio/music/Bodytonic/Inamorata/variations/Inamorata | Marimba Solo.wav</property>
  <property name="meta.media.nb_streams">1</property>
  <property name="meta.media.0.stream.type">audio</property>
  <property name="meta.media.0.codec.sample_fmt">s32</property>
  <property name="meta.media.0.codec.sample_rate">44100</property>
  <property name="meta.media.0.codec.channels">2</property>
  <property name="meta.media.0.codec.name">pcm_s24le</property>
  <property name="meta.media.0.codec.long_name">PCM signed 24-bit little-endian</property>
  <property name="meta.media.0.codec.bit_rate">2116800</property>
  <property name="meta.attr.encoded_by.markup">Logic Pro X</property>
  <property name="meta.attr.date.markup">2017-06-07</property>
  <property name="meta.attr.creation_time.markup">13:24:51</property>
  <property name="meta.attr.time_reference.markup">161028000</property>
  <property name="meta.attr.umid.markup">0x00000000000000000000000000000000000000000000000000000000440089C0936A1F5780E96459FF7F00004604570701000000B0E16459FF7F0000ECFE8894</property>
  <property name="seekable">1</property>
  <property name="audio_index">0</property>
  <property name="video_index">-1</property>
  <property name="mute_on_pause">1</property>
  <property name="mlt_service">avformat</property>
  <property name="kdenlive:clipname"/>
  <property name="kdenlive:clip_type">1</property>
  <property name="kdenlive:folderid">95</property>
  <property name="kdenlive:id">98</property>
  <property name="kdenlive:file_size">15309730</property>
  <property name="kdenlive:file_hash">bab609f1b9b8eea2af046c267a8c8cd7</property>
  <property name="kdenlive:audio_max0">228</property>
 </producer>
 <producer id="producer75" in="00:00:00.000" out="00:01:51.417">
  <property name="length">6686</property>
  <property name="eof">pause</property>
  <property name="resource">audio/music/Bodytonic/Inamorata/variations/Inamorata | Piano Feature.wav</property>
  <property name="meta.media.nb_streams">1</property>
  <property name="meta.media.0.stream.type">audio</property>
  <property name="meta.media.0.codec.sample_fmt">s32</property>
  <property name="meta.media.0.codec.sample_rate">44100</property>
  <property name="meta.media.0.codec.channels">2</property>
  <property name="meta.media.0.codec.name">pcm_s24le</property>
  <property name="meta.media.0.codec.long_name">PCM signed 24-bit little-endian</property>
  <property name="meta.media.0.codec.bit_rate">2116800</property>
  <property name="meta.attr.encoded_by.markup">Logic Pro X</property>
  <property name="meta.attr.date.markup">2017-06-07</property>
  <property name="meta.attr.creation_time.markup">13:26:23</property>
  <property name="meta.attr.time_reference.markup">158760000</property>
  <property name="meta.attr.umid.markup">0x00000000000000000000000000000000000000000000000000000000440089C0936A1F5780E96459FF7F00004604570701000000B0E16459FF7F0000ECFE8894</property>
  <property name="seekable">1</property>
  <property name="audio_index">0</property>
  <property name="video_index">-1</property>
  <property name="mute_on_pause">1</property>
  <property name="mlt_service">avformat</property>
  <property name="kdenlive:clipname"/>
  <property name="kdenlive:clip_type">1</property>
  <property name="kdenlive:folderid">95</property>
  <property name="kdenlive:id">100</property>
  <property name="kdenlive:file_size">29484730</property>
  <property name="kdenlive:file_hash">817b05b9d285353e042ad50a3bedd65d</property>
  <property name="kdenlive:audio_max0">231</property>
 </producer>
 <producer id="producer76" in="00:00:00.000" out="00:02:29.933">
  <property name="length">8997</property>
  <property name="eof">pause</property>
  <property name="resource">audio/music/Bodytonic/Mind Body Mind/Mind Body Mind.wav</property>
  <property name="meta.media.nb_streams">1</property>
  <property name="meta.media.0.stream.type">audio</property>
  <property name="meta.media.0.codec.sample_fmt">s32</property>
  <property name="meta.media.0.codec.sample_rate">44100</property>
  <property name="meta.media.0.codec.channels">2</property>
  <property name="meta.media.0.codec.name">pcm_s24le</property>
  <property name="meta.media.0.codec.long_name">PCM signed 24-bit little-endian</property>
  <property name="meta.media.0.codec.bit_rate">2116800</property>
  <property name="meta.attr.encoded_by.markup">Logic Pro X</property>
  <property name="meta.attr.date.markup">2017-12-09</property>
  <property name="meta.attr.creation_time.markup">10:02:14</property>
  <property name="meta.attr.time_reference.markup">158830159</property>
  <property name="meta.attr.umid.markup">0x00000000000000000000000000000000000000000000000000000000BA0080B7DE3D537A80695E58FF7F000046845D0801000000B0615E58FF7F0000ECAE5EC2</property>
  <property name="seekable">1</property>
  <property name="audio_index">0</property>
  <property name="video_index">-1</property>
  <property name="mute_on_pause">1</property>
  <property name="mlt_service">avformat</property>
  <property name="kdenlive:clipname"/>
  <property name="kdenlive:clip_type">1</property>
  <property name="kdenlive:folderid">99</property>
  <property name="kdenlive:id">102</property>
  <property name="kdenlive:file_size">39678426</property>
  <property name="kdenlive:file_hash">2d1e67f6411504d1d0ba1ced870ec9e8</property>
  <property name="kdenlive:audio_max0">249</property>
 </producer>
 <producer id="producer77" in="00:00:00.000" out="00:00:47.883">
  <property name="length">2874</property>
  <property name="eof">pause</property>
  <property name="resource">audio/music/Bodytonic/Mind Body Mind/variations/Mind Body Mind | 1 Min.wav</property>
  <property name="meta.media.nb_streams">1</property>
  <property name="meta.media.0.stream.type">audio</property>
  <property name="meta.media.0.codec.sample_fmt">s32</property>
  <property name="meta.media.0.codec.sample_rate">44100</property>
  <property name="meta.media.0.codec.channels">2</property>
  <property name="meta.media.0.codec.name">pcm_s24le</property>
  <property name="meta.media.0.codec.long_name">PCM signed 24-bit little-endian</property>
  <property name="meta.media.0.codec.bit_rate">2116800</property>
  <property name="meta.attr.encoded_by.markup">Logic Pro X</property>
  <property name="meta.attr.date.markup">2017-12-09</property>
  <property name="meta.attr.creation_time.markup">10:17:13</property>
  <property name="meta.attr.time_reference.markup">163330363</property>
  <property name="meta.attr.umid.markup">0x00000000000000000000000000000000000000000000000000000000BA0080B7DE3D537A80695E58FF7F000046845D0801000000B0615E58FF7F0000ECAE5EC2</property>
  <property name="seekable">1</property>
  <property name="audio_index">0</property>
  <property name="video_index">-1</property>
  <property name="mute_on_pause">1</property>
  <property name="mlt_service">avformat</property>
  <property name="kdenlive:clipname"/>
  <property name="kdenlive:clip_type">1</property>
  <property name="kdenlive:folderid">101</property>
  <property name="kdenlive:id">103</property>
  <property name="kdenlive:file_size">12677202</property>
  <property name="kdenlive:file_hash">6c54fd8c5c0da67af845646906c95e19</property>
  <property name="kdenlive:audio_max0">242</property>
 </producer>
 <producer id="producer78" in="00:00:00.000" out="00:00:21.500">
  <property name="length">1291</property>
  <property name="eof">pause</property>
  <property name="resource">audio/music/Bodytonic/Mind Body Mind/variations/Mind Body Mind | 30 Sec.wav</property>
  <property name="meta.media.nb_streams">1</property>
  <property name="meta.media.0.stream.type">audio</property>
  <property name="meta.media.0.codec.sample_fmt">s32</property>
  <property name="meta.media.0.codec.sample_rate">44100</property>
  <property name="meta.media.0.codec.channels">2</property>
  <property name="meta.media.0.codec.name">pcm_s24le</property>
  <property name="meta.media.0.codec.long_name">PCM signed 24-bit little-endian</property>
  <property name="meta.media.0.codec.bit_rate">2116800</property>
  <property name="meta.attr.encoded_by.markup">Logic Pro X</property>
  <property name="meta.attr.date.markup">2017-12-09</property>
  <property name="meta.attr.creation_time.markup">10:20:40</property>
  <property name="meta.attr.time_reference.markup">163968393</property>
  <property name="meta.attr.umid.markup">0x00000000000000000000000000000000000000000000000000000000BA0080B7DE3D537A80695E58FF7F000046845D0801000000B0615E58FF7F0000ECAE5EC2</property>
  <property name="seekable">1</property>
  <property name="audio_index">0</property>
  <property name="video_index">-1</property>
  <property name="mute_on_pause">1</property>
  <property name="mlt_service">avformat</property>
  <property name="kdenlive:clipname"/>
  <property name="kdenlive:clip_type">1</property>
  <property name="kdenlive:folderid">101</property>
  <property name="kdenlive:id">104</property>
  <property name="kdenlive:file_size">5693916</property>
  <property name="kdenlive:file_hash">992c511397715e3aeec2040cd4eb6fb8</property>
  <property name="kdenlive:audio_max0">241</property>
 </producer>
 <producer id="producer79" in="00:00:00.000" out="00:00:30.900">
  <property name="length">1855</property>
  <property name="eof">pause</property>
  <property name="resource">audio/music/Bodytonic/Mind Body Mind/variations/Mind Body Mind | Interlude.wav</property>
  <property name="meta.media.nb_streams">1</property>
  <property name="meta.media.0.stream.type">audio</property>
  <property name="meta.media.0.codec.sample_fmt">s32</property>
  <property name="meta.media.0.codec.sample_rate">44100</property>
  <property name="meta.media.0.codec.channels">2</property>
  <property name="meta.media.0.codec.name">pcm_s24le</property>
  <property name="meta.media.0.codec.long_name">PCM signed 24-bit little-endian</property>
  <property name="meta.media.0.codec.bit_rate">2116800</property>
  <property name="meta.attr.encoded_by.markup">Logic Pro X</property>
  <property name="meta.attr.date.markup">2017-12-09</property>
  <property name="meta.attr.creation_time.markup">10:18:12</property>
  <property name="meta.attr.time_reference.markup">160604182</property>
  <property name="meta.attr.umid.markup">0x00000000000000000000000000000000000000000000000000000000BA0080B7DE3D537A80695E58FF7F000046845D0801000000B0615E58FF7F0000ECAE5EC2</property>
  <property name="seekable">1</property>
  <property name="audio_index">0</property>
  <property name="video_index">-1</property>
  <property name="mute_on_pause">1</property>
  <property name="mlt_service">avformat</property>
  <property name="kdenlive:clipname"/>
  <property name="kdenlive:clip_type">1</property>
  <property name="kdenlive:folderid">101</property>
  <property name="kdenlive:id">105</property>
  <property name="kdenlive:file_size">8179320</property>
  <property name="kdenlive:file_hash">7e615ce17dfc302481d7f7d156b88a73</property>
  <property name="kdenlive:audio_max0">249</property>
 </producer>
 <producer id="producer80" in="00:00:00.000" out="00:01:20.617">
  <property name="length">4838</property>
  <property name="eof">pause</property>
  <property name="resource">audio/music/Bodytonic/Mind Body Mind/variations/Mind Body Mind | Soft Start.wav</property>
  <property name="meta.media.nb_streams">1</property>
  <property name="meta.media.0.stream.type">audio</property>
  <property name="meta.media.0.codec.sample_fmt">s32</property>
  <property name="meta.media.0.codec.sample_rate">44100</property>
  <property name="meta.media.0.codec.channels">2</property>
  <property name="meta.media.0.codec.name">pcm_s24le</property>
  <property name="meta.media.0.codec.long_name">PCM signed 24-bit little-endian</property>
  <property name="meta.media.0.codec.bit_rate">2116800</property>
  <property name="meta.attr.encoded_by.markup">Logic Pro X</property>
  <property name="meta.attr.date.markup">2017-12-09</property>
  <property name="meta.attr.creation_time.markup">10:19:10</property>
  <property name="meta.attr.time_reference.markup">161887091</property>
  <property name="meta.attr.umid.markup">0x00000000000000000000000000000000000000000000000000000000BA0080B7DE3D537A80695E58FF7F000046845D0801000000B0615E58FF7F0000ECAE5EC2</property>
  <property name="seekable">1</property>
  <property name="audio_index">0</property>
  <property name="video_index">-1</property>
  <property name="mute_on_pause">1</property>
  <property name="mlt_service">avformat</property>
  <property name="kdenlive:clipname"/>
  <property name="kdenlive:clip_type">1</property>
  <property name="kdenlive:folderid">101</property>
  <property name="kdenlive:id">107</property>
  <property name="kdenlive:file_size">21336834</property>
  <property name="kdenlive:file_hash">0314db7a1314632823f2de525bd7ff3c</property>
  <property name="kdenlive:audio_max0">244</property>
 </producer>
 <producer id="producer81" in="00:00:00.000" out="00:02:29.983">
  <property name="length">9000</property>
  <property name="eof">pause</property>
  <property name="resource">audio/music/Bodytonic/Partly Sage/Partly Sage.wav</property>
  <property name="meta.media.nb_streams">1</property>
  <property name="meta.media.0.stream.type">audio</property>
  <property name="meta.media.0.codec.sample_fmt">s32</property>
  <property name="meta.media.0.codec.sample_rate">44100</property>
  <property name="meta.media.0.codec.channels">2</property>
  <property name="meta.media.0.codec.name">pcm_s24le</property>
  <property name="meta.media.0.codec.long_name">PCM signed 24-bit little-endian</property>
  <property name="meta.media.0.codec.bit_rate">2116800</property>
  <property name="meta.attr.encoded_by.markup">Logic Pro X</property>
  <property name="meta.attr.date.markup">2017-06-07</property>
  <property name="meta.attr.creation_time.markup">14:07:43</property>
  <property name="meta.attr.time_reference.markup">158760000</property>
  <property name="meta.attr.umid.markup">0x00000000000000000000000000000000000000000000000000000000440089C0936A1F5780E96459FF7F00004604570701000000B0E16459FF7F0000ECFE8894</property>
  <property name="seekable">1</property>
  <property name="audio_index">0</property>
  <property name="video_index">-1</property>
  <property name="mute_on_pause">1</property>
  <property name="mlt_service">avformat</property>
  <property name="kdenlive:clipname"/>
  <property name="kdenlive:clip_type">1</property>
  <property name="kdenlive:folderid">106</property>
  <property name="kdenlive:id">109</property>
  <property name="kdenlive:file_size">39690730</property>
  <property name="kdenlive:file_hash">c4edab638da9f3e3a12669af3b9087bf</property>
  <property name="kdenlive:audio_max0">256</property>
 </producer>
 <producer id="producer82" in="00:00:00.000" out="00:02:27.867">
  <property name="length">8873</property>
  <property name="eof">pause</property>
  <property name="resource">audio/music/Bodytonic/Partly Sage/stems/01_Partly Sage_Upright Bass.wav</property>
  <property name="meta.media.nb_streams">1</property>
  <property name="meta.media.0.stream.type">audio</property>
  <property name="meta.media.0.codec.sample_fmt">s32</property>
  <property name="meta.media.0.codec.sample_rate">44100</property>
  <property name="meta.media.0.codec.channels">2</property>
  <property name="meta.media.0.codec.name">pcm_s24le</property>
  <property name="meta.media.0.codec.long_name">PCM signed 24-bit little-endian</property>
  <property name="meta.media.0.codec.bit_rate">2116800</property>
  <property name="meta.attr.encoded_by.markup">Logic Pro X</property>
  <property name="meta.attr.date.markup">2017-06-07</property>
  <property name="meta.attr.creation_time.markup">14:13:40</property>
  <property name="meta.attr.time_reference.markup">158760000</property>
  <property name="meta.attr.umid.markup">0x00000000000000000000000000000000000000000000000000000000440089C0936A1F57303C6559FF7F0000460457070100000060346559FF7F0000ECFE8894</property>
  <property name="seekable">1</property>
  <property name="audio_index">0</property>
  <property name="video_index">-1</property>
  <property name="mute_on_pause">1</property>
  <property name="mlt_service">avformat</property>
  <property name="kdenlive:clipname"/>
  <property name="kdenlive:clip_type">1</property>
  <property name="kdenlive:folderid">108</property>
  <property name="kdenlive:id">110</property>
  <property name="kdenlive:file_size">39181248</property>
  <property name="kdenlive:file_hash">a939af6caf642aa911a1adde9b1c8353</property>
  <property name="kdenlive:audio_max0">199</property>
 </producer>
 <producer id="producer83" in="00:00:00.000" out="00:02:27.867">
  <property name="length">8873</property>
  <property name="eof">pause</property>
  <property name="resource">audio/music/Bodytonic/Partly Sage/stems/02_Partly Sage_Piano.wav</property>
  <property name="meta.media.nb_streams">1</property>
  <property name="meta.media.0.stream.type">audio</property>
  <property name="meta.media.0.codec.sample_fmt">s32</property>
  <property name="meta.media.0.codec.sample_rate">44100</property>
  <property name="meta.media.0.codec.channels">2</property>
  <property name="meta.media.0.codec.name">pcm_s24le</property>
  <property name="meta.media.0.codec.long_name">PCM signed 24-bit little-endian</property>
  <property name="meta.media.0.codec.bit_rate">2116800</property>
  <property name="meta.attr.encoded_by.markup">Logic Pro X</property>
  <property name="meta.attr.date.markup">2017-06-07</property>
  <property name="meta.attr.creation_time.markup">14:13:43</property>
  <property name="meta.attr.time_reference.markup">158760000</property>
  <property name="meta.attr.umid.markup">0x00000000000000000000000000000000000000000000000000000000440089C0936A1F57303C6559FF7F0000460457070100000060346559FF7F0000ECFE8894</property>
  <property name="seekable">1</property>
  <property name="audio_index">0</property>
  <property name="video_index">-1</property>
  <property name="mute_on_pause">1</property>
  <property name="mlt_service">avformat</property>
  <property name="kdenlive:clipname"/>
  <property name="kdenlive:clip_type">1</property>
  <property name="kdenlive:folderid">108</property>
  <property name="kdenlive:id">111</property>
  <property name="kdenlive:file_size">39181248</property>
  <property name="kdenlive:file_hash">1c041b1b5ca871ebb488f38cd4b6f5f3</property>
  <property name="kdenlive:audio_max0">177</property>
 </producer>
 <producer id="producer84" in="00:00:00.000" out="00:02:27.867">
  <property name="length">8873</property>
  <property name="eof">pause</property>
  <property name="resource">audio/music/Bodytonic/Partly Sage/stems/03_Partly Sage_Rhodia SynPad.wav</property>
  <property name="meta.media.nb_streams">1</property>
  <property name="meta.media.0.stream.type">audio</property>
  <property name="meta.media.0.codec.sample_fmt">s32</property>
  <property name="meta.media.0.codec.sample_rate">44100</property>
  <property name="meta.media.0.codec.channels">2</property>
  <property name="meta.media.0.codec.name">pcm_s24le</property>
  <property name="meta.media.0.codec.long_name">PCM signed 24-bit little-endian</property>
  <property name="meta.media.0.codec.bit_rate">2116800</property>
  <property name="meta.attr.encoded_by.markup">Logic Pro X</property>
  <property name="meta.attr.date.markup">2017-06-07</property>
  <property name="meta.attr.creation_time.markup">14:13:33</property>
  <property name="meta.attr.time_reference.markup">158760000</property>
  <property name="meta.attr.umid.markup">0x00000000000000000000000000000000000000000000000000000000440089C0936A1F57303C6559FF7F0000460457070100000060346559FF7F0000ECFE8894</property>
  <property name="seekable">1</property>
  <property name="audio_index">0</property>
  <property name="video_index">-1</property>
  <property name="mute_on_pause">1</property>
  <property name="mlt_service">avformat</property>
  <property name="kdenlive:clipname"/>
  <property name="kdenlive:clip_type">1</property>
  <property name="kdenlive:folderid">108</property>
  <property name="kdenlive:id">112</property>
  <property name="kdenlive:file_size">39181248</property>
  <property name="kdenlive:file_hash">0fb664a7b076e42e0dcfab0768ddb932</property>
  <property name="kdenlive:audio_max0">87</property>
 </producer>
 <producer id="producer85" in="00:00:00.000" out="00:02:27.117">
  <property name="length">8828</property>
  <property name="eof">pause</property>
  <property name="resource">audio/music/Bodytonic/Partly Sage/stems/04_Partly Sage_Marimba.wav</property>
  <property name="meta.media.nb_streams">1</property>
  <property name="meta.media.0.stream.type">audio</property>
  <property name="meta.media.0.codec.sample_fmt">s32</property>
  <property name="meta.media.0.codec.sample_rate">44100</property>
  <property name="meta.media.0.codec.channels">2</property>
  <property name="meta.media.0.codec.name">pcm_s24le</property>
  <property name="meta.media.0.codec.long_name">PCM signed 24-bit little-endian</property>
  <property name="meta.media.0.codec.bit_rate">2116800</property>
  <property name="meta.attr.encoded_by.markup">Logic Pro X</property>
  <property name="meta.attr.date.markup">2017-06-07</property>
  <property name="meta.attr.creation_time.markup">14:13:46</property>
  <property name="meta.attr.time_reference.markup">158760000</property>
  <property name="meta.attr.umid.markup">0x00000000000000000000000000000000000000000000000000000000440089C0936A1F57303C6559FF7F0000460457070100000060346559FF7F0000ECFE8894</property>
  <property name="seekable">1</property>
  <property name="audio_index">0</property>
  <property name="video_index">-1</property>
  <property name="mute_on_pause">1</property>
  <property name="mlt_service">avformat</property>
  <property name="kdenlive:clipname"/>
  <property name="kdenlive:clip_type">1</property>
  <property name="kdenlive:folderid">108</property>
  <property name="kdenlive:id">113</property>
  <property name="kdenlive:file_size">38984384</property>
  <property name="kdenlive:file_hash">092cb00c1eb794a88758b7718996ccb5</property>
  <property name="kdenlive:audio_max0">127</property>
 </producer>
 <producer id="producer86" in="00:00:00.000" out="00:02:25.633">
  <property name="length">8739</property>
  <property name="eof">pause</property>
  <property name="resource">audio/music/Bodytonic/Partly Sage/stems/05_Partly Sage_Found Percussion.wav</property>
  <property name="meta.media.nb_streams">1</property>
  <property name="meta.media.0.stream.type">audio</property>
  <property name="meta.media.0.codec.sample_fmt">s32</property>
  <property name="meta.media.0.codec.sample_rate">44100</property>
  <property name="meta.media.0.codec.channels">2</property>
  <property name="meta.media.0.codec.name">pcm_s24le</property>
  <property name="meta.media.0.codec.long_name">PCM signed 24-bit little-endian</property>
  <property name="meta.media.0.codec.bit_rate">2116800</property>
  <property name="meta.attr.encoded_by.markup">Logic Pro X</property>
  <property name="meta.attr.date.markup">2017-06-07</property>
  <property name="meta.attr.creation_time.markup">14:13:37</property>
  <property name="meta.attr.time_reference.markup">158760000</property>
  <property name="meta.attr.umid.markup">0x00000000000000000000000000000000000000000000000000000000440089C0936A1F57303C6559FF7F0000460457070100000060346559FF7F0000ECFE8894</property>
  <property name="seekable">1</property>
  <property name="audio_index">0</property>
  <property name="video_index">-1</property>
  <property name="mute_on_pause">1</property>
  <property name="mlt_service">avformat</property>
  <property name="kdenlive:clipname"/>
  <property name="kdenlive:clip_type">1</property>
  <property name="kdenlive:folderid">108</property>
  <property name="kdenlive:id">115</property>
  <property name="kdenlive:file_size">38590656</property>
  <property name="kdenlive:file_hash">4b13a48bb801cb873504e398b6f093b2</property>
  <property name="kdenlive:audio_max0">249</property>
 </producer>
 <producer id="producer87" in="00:00:00.000" out="00:01:10.900">
  <property name="length">4255</property>
  <property name="eof">pause</property>
  <property name="resource">audio/music/Bodytonic/Partly Sage/variations/Partly Sage | 1 Min.wav</property>
  <property name="meta.media.nb_streams">1</property>
  <property name="meta.media.0.stream.type">audio</property>
  <property name="meta.media.0.codec.sample_fmt">s32</property>
  <property name="meta.media.0.codec.sample_rate">44100</property>
  <property name="meta.media.0.codec.channels">2</property>
  <property name="meta.media.0.codec.name">pcm_s24le</property>
  <property name="meta.media.0.codec.long_name">PCM signed 24-bit little-endian</property>
  <property name="meta.media.0.codec.bit_rate">2116800</property>
  <property name="meta.attr.encoded_by.markup">Logic Pro X</property>
  <property name="meta.attr.date.markup">2017-06-07</property>
  <property name="meta.attr.creation_time.markup">14:17:01</property>
  <property name="meta.attr.time_reference.markup">162288000</property>
  <property name="meta.attr.umid.markup">0x00000000000000000000000000000000000000000000000000000000440089C0936A1F5780E96459FF7F00004604570701000000B0E16459FF7F0000ECFE8894</property>
  <property name="seekable">1</property>
  <property name="audio_index">0</property>
  <property name="video_index">-1</property>
  <property name="mute_on_pause">1</property>
  <property name="mlt_service">avformat</property>
  <property name="kdenlive:clipname"/>
  <property name="kdenlive:clip_type">1</property>
  <property name="kdenlive:folderid">114</property>
  <property name="kdenlive:id">116</property>
  <property name="kdenlive:file_size">18763276</property>
  <property name="kdenlive:file_hash">51da41e8fd538a1816363dedbff1b4c6</property>
  <property name="kdenlive:audio_max0">256</property>
 </producer>
 <producer id="producer88" in="00:00:00.000" out="00:00:33.433">
  <property name="length">2007</property>
  <property name="eof">pause</property>
  <property name="resource">audio/music/Bodytonic/Partly Sage/variations/Partly Sage | 30 Sec.wav</property>
  <property name="meta.media.nb_streams">1</property>
  <property name="meta.media.0.stream.type">audio</property>
  <property name="meta.media.0.codec.sample_fmt">s32</property>
  <property name="meta.media.0.codec.sample_rate">44100</property>
  <property name="meta.media.0.codec.channels">2</property>
  <property name="meta.media.0.codec.name">pcm_s24le</property>
  <property name="meta.media.0.codec.long_name">PCM signed 24-bit little-endian</property>
  <property name="meta.media.0.codec.bit_rate">2116800</property>
  <property name="meta.attr.encoded_by.markup">Logic Pro X</property>
  <property name="meta.attr.date.markup">2017-06-07</property>
  <property name="meta.attr.creation_time.markup">14:15:57</property>
  <property name="meta.attr.time_reference.markup">158760000</property>
  <property name="meta.attr.umid.markup">0x00000000000000000000000000000000000000000000000000000000440089C0936A1F5780E96459FF7F00004604570701000000B0E16459FF7F0000ECFE8894</property>
  <property name="seekable">1</property>
  <property name="audio_index">0</property>
  <property name="video_index">-1</property>
  <property name="mute_on_pause">1</property>
  <property name="mlt_service">avformat</property>
  <property name="kdenlive:clipname"/>
  <property name="kdenlive:clip_type">1</property>
  <property name="kdenlive:folderid">114</property>
  <property name="kdenlive:id">117</property>
  <property name="kdenlive:file_size">8853272</property>
  <property name="kdenlive:file_hash">44d94abb6bec79b4db3d2992b57f0774</property>
  <property name="kdenlive:audio_max0">232</property>
 </producer>
 <producer id="producer89" in="00:00:00.000" out="00:01:59.983">
  <property name="length">7200</property>
  <property name="eof">pause</property>
  <property name="resource">audio/music/Bodytonic/Partly Sage/variations/Partly Sage | Atmo with Marimba.wav</property>
  <property name="meta.media.nb_streams">1</property>
  <property name="meta.media.0.stream.type">audio</property>
  <property name="meta.media.0.codec.sample_fmt">s32</property>
  <property name="meta.media.0.codec.sample_rate">44100</property>
  <property name="meta.media.0.codec.channels">2</property>
  <property name="meta.media.0.codec.name">pcm_s24le</property>
  <property name="meta.media.0.codec.long_name">PCM signed 24-bit little-endian</property>
  <property name="meta.media.0.codec.bit_rate">2116800</property>
  <property name="meta.attr.encoded_by.markup">Logic Pro X</property>
  <property name="meta.attr.date.markup">2017-06-07</property>
  <property name="meta.attr.creation_time.markup">14:24:00</property>
  <property name="meta.attr.time_reference.markup">160363636</property>
  <property name="meta.attr.umid.markup">0x00000000000000000000000000000000000000000000000000000000440089C0936A1F5780E96459FF7F00004604570701000000B0E16459FF7F0000ECFE8894</property>
  <property name="seekable">1</property>
  <property name="audio_index">0</property>
  <property name="video_index">-1</property>
  <property name="mute_on_pause">1</property>
  <property name="mlt_service">avformat</property>
  <property name="kdenlive:clipname"/>
  <property name="kdenlive:clip_type">1</property>
  <property name="kdenlive:folderid">114</property>
  <property name="kdenlive:id">118</property>
  <property name="kdenlive:file_size">31752730</property>
  <property name="kdenlive:file_hash">e4a8cfb22eab019f933139d53fb6cc3e</property>
  <property name="kdenlive:audio_max0">248</property>
 </producer>
 <producer id="producer90" in="00:00:00.000" out="00:02:03.617">
  <property name="length">7418</property>
  <property name="eof">pause</property>
  <property name="resource">audio/music/Bodytonic/Partly Sage/variations/Partly Sage | Atmo.wav</property>
  <property name="meta.media.nb_streams">1</property>
  <property name="meta.media.0.stream.type">audio</property>
  <property name="meta.media.0.codec.sample_fmt">s32</property>
  <property name="meta.media.0.codec.sample_rate">44100</property>
  <property name="meta.media.0.codec.channels">2</property>
  <property name="meta.media.0.codec.name">pcm_s24le</property>
  <property name="meta.media.0.codec.long_name">PCM signed 24-bit little-endian</property>
  <property name="meta.media.0.codec.bit_rate">2116800</property>
  <property name="meta.attr.encoded_by.markup">Logic Pro X</property>
  <property name="meta.attr.date.markup">2017-06-07</property>
  <property name="meta.attr.creation_time.markup">14:21:45</property>
  <property name="meta.attr.time_reference.markup">160363636</property>
  <property name="meta.attr.umid.markup">0x00000000000000000000000000000000000000000000000000000000440089C0936A1F5780E96459FF7F00004604570701000000B0E16459FF7F0000ECFE8894</property>
  <property name="seekable">1</property>
  <property name="audio_index">0</property>
  <property name="video_index">-1</property>
  <property name="mute_on_pause">1</property>
  <property name="mlt_service">avformat</property>
  <property name="kdenlive:clipname"/>
  <property name="kdenlive:clip_type">1</property>
  <property name="kdenlive:folderid">114</property>
  <property name="kdenlive:id">119</property>
  <property name="kdenlive:file_size">32714914</property>
  <property name="kdenlive:file_hash">c896ee755977c994abf76beb133f66db</property>
  <property name="kdenlive:audio_max0">254</property>
 </producer>
 <producer id="producer91" in="00:00:00.000" out="00:01:56.117">
  <property name="length">6968</property>
  <property name="eof">pause</property>
  <property name="resource">audio/music/Bodytonic/Partly Sage/variations/Partly Sage | Piano Feature.wav</property>
  <property name="meta.media.nb_streams">1</property>
  <property name="meta.media.0.stream.type">audio</property>
  <property name="meta.media.0.codec.sample_fmt">s32</property>
  <property name="meta.media.0.codec.sample_rate">44100</property>
  <property name="meta.media.0.codec.channels">2</property>
  <property name="meta.media.0.codec.name">pcm_s24le</property>
  <property name="meta.media.0.codec.long_name">PCM signed 24-bit little-endian</property>
  <property name="meta.media.0.codec.bit_rate">2116800</property>
  <property name="meta.attr.encoded_by.markup">Logic Pro X</property>
  <property name="meta.attr.date.markup">2017-06-07</property>
  <property name="meta.attr.creation_time.markup">14:18:46</property>
  <property name="meta.attr.time_reference.markup">160808516</property>
  <property name="meta.attr.umid.markup">0x00000000000000000000000000000000000000000000000000000000440089C0936A1F5780E96459FF7F00004604570701000000B0E16459FF7F0000ECFE8894</property>
  <property name="seekable">1</property>
  <property name="audio_index">0</property>
  <property name="video_index">-1</property>
  <property name="mute_on_pause">1</property>
  <property name="mlt_service">avformat</property>
  <property name="kdenlive:clipname"/>
  <property name="kdenlive:clip_type">1</property>
  <property name="kdenlive:folderid">114</property>
  <property name="kdenlive:id">121</property>
  <property name="kdenlive:file_size">30728470</property>
  <property name="kdenlive:file_hash">f1a747a40e2b6f45f278c90621e62577</property>
  <property name="kdenlive:audio_max0">254</property>
 </producer>
 <producer id="producer92" in="00:00:00.000" out="00:04:05.433">
  <property name="length">14727</property>
  <property name="eof">pause</property>
  <property name="resource">audio/music/Bodytonic/Soothe/Soothe.wav</property>
  <property name="meta.media.nb_streams">1</property>
  <property name="meta.media.0.stream.type">audio</property>
  <property name="meta.media.0.codec.sample_fmt">s32</property>
  <property name="meta.media.0.codec.sample_rate">44100</property>
  <property name="meta.media.0.codec.channels">2</property>
  <property name="meta.media.0.codec.name">pcm_s24le</property>
  <property name="meta.media.0.codec.long_name">PCM signed 24-bit little-endian</property>
  <property name="meta.media.0.codec.bit_rate">2116800</property>
  <property name="meta.attr.encoded_by.markup">Logic Pro X</property>
  <property name="meta.attr.date.markup">2017-08-08</property>
  <property name="meta.attr.creation_time.markup">15:40:26</property>
  <property name="meta.attr.time_reference.markup">158760000</property>
  <property name="meta.attr.umid.markup">0x0000000000000000000000000000000000000000000000000000000032005DC06BA986FA8069AC54FF7F000046840F0C01000000B061AC54FF7F0000EC5E66BC</property>
  <property name="seekable">1</property>
  <property name="audio_index">0</property>
  <property name="video_index">-1</property>
  <property name="mute_on_pause">1</property>
  <property name="mlt_service">avformat</property>
  <property name="kdenlive:clipname"/>
  <property name="kdenlive:clip_type">1</property>
  <property name="kdenlive:folderid">120</property>
  <property name="kdenlive:id">123</property>
  <property name="kdenlive:file_size">64948000</property>
  <property name="kdenlive:file_hash">d5c1323dbd69b3edb3410c297a8d4ee4</property>
  <property name="kdenlive:audio_max0">256</property>
 </producer>
 <producer id="producer93" in="00:00:00.000" out="00:04:01.483">
  <property name="length">14490</property>
  <property name="eof">pause</property>
  <property name="resource">audio/music/Bodytonic/Soothe/stems/01_Soothe_Upright Bass.wav</property>
  <property name="meta.media.nb_streams">1</property>
  <property name="meta.media.0.stream.type">audio</property>
  <property name="meta.media.0.codec.sample_fmt">s32</property>
  <property name="meta.media.0.codec.sample_rate">44100</property>
  <property name="meta.media.0.codec.channels">2</property>
  <property name="meta.media.0.codec.name">pcm_s24le</property>
  <property name="meta.media.0.codec.long_name">PCM signed 24-bit little-endian</property>
  <property name="meta.media.0.codec.bit_rate">2116800</property>
  <property name="meta.attr.encoded_by.markup">Logic Pro X</property>
  <property name="meta.attr.date.markup">2017-08-08</property>
  <property name="meta.attr.creation_time.markup">15:38:16</property>
  <property name="meta.attr.time_reference.markup">158760000</property>
  <property name="meta.attr.umid.markup">0x0000000000000000000000000000000000000000000000000000000032005DC06BA986FA20BCAC54FF7F000046840F0C0100000050B4AC54FF7F0000EC5E66BC</property>
  <property name="seekable">1</property>
  <property name="audio_index">0</property>
  <property name="video_index">-1</property>
  <property name="mute_on_pause">1</property>
  <property name="mlt_service">avformat</property>
  <property name="kdenlive:clipname"/>
  <property name="kdenlive:clip_type">1</property>
  <property name="kdenlive:folderid">122</property>
  <property name="kdenlive:id">124</property>
  <property name="kdenlive:file_size">63986112</property>
  <property name="kdenlive:file_hash">18f7f1cd41ec192fe4e898c306824bec</property>
  <property name="kdenlive:audio_max0">233</property>
 </producer>
 <producer id="producer94" in="00:00:00.000" out="00:03:46.633">
  <property name="length">13599</property>
  <property name="eof">pause</property>
  <property name="resource">audio/music/Bodytonic/Soothe/stems/02_Soothe_Piano.wav</property>
  <property name="meta.media.nb_streams">1</property>
  <property name="meta.media.0.stream.type">audio</property>
  <property name="meta.media.0.codec.sample_fmt">s32</property>
  <property name="meta.media.0.codec.sample_rate">44100</property>
  <property name="meta.media.0.codec.channels">2</property>
  <property name="meta.media.0.codec.name">pcm_s24le</property>
  <property name="meta.media.0.codec.long_name">PCM signed 24-bit little-endian</property>
  <property name="meta.media.0.codec.bit_rate">2116800</property>
  <property name="meta.attr.encoded_by.markup">Logic Pro X</property>
  <property name="meta.attr.date.markup">2017-08-08</property>
  <property name="meta.attr.creation_time.markup">15:38:22</property>
  <property name="meta.attr.time_reference.markup">158760000</property>
  <property name="meta.attr.umid.markup">0x0000000000000000000000000000000000000000000000000000000032005DC06BA986FA20BCAC54FF7F000046840F0C0100000050B4AC54FF7F0000EC5E66BC</property>
  <property name="seekable">1</property>
  <property name="audio_index">0</property>
  <property name="video_index">-1</property>
  <property name="mute_on_pause">1</property>
  <property name="mlt_service">avformat</property>
  <property name="kdenlive:clipname"/>
  <property name="kdenlive:clip_type">1</property>
  <property name="kdenlive:folderid">122</property>
  <property name="kdenlive:id">125</property>
  <property name="kdenlive:file_size">60048832</property>
  <property name="kdenlive:file_hash">7eef7aa287bed027443f8472be37fe16</property>
  <property name="kdenlive:audio_max0">180</property>
 </producer>
 <producer id="producer95" in="00:00:00.000" out="00:03:58.517">
  <property name="length">14312</property>
  <property name="eof">pause</property>
  <property name="resource">audio/music/Bodytonic/Soothe/stems/03_Soothe_Marimba.wav</property>
  <property name="meta.media.nb_streams">1</property>
  <property name="meta.media.0.stream.type">audio</property>
  <property name="meta.media.0.codec.sample_fmt">s32</property>
  <property name="meta.media.0.codec.sample_rate">44100</property>
  <property name="meta.media.0.codec.channels">2</property>
  <property name="meta.media.0.codec.name">pcm_s24le</property>
  <property name="meta.media.0.codec.long_name">PCM signed 24-bit little-endian</property>
  <property name="meta.media.0.codec.bit_rate">2116800</property>
  <property name="meta.attr.encoded_by.markup">Logic Pro X</property>
  <property name="meta.attr.date.markup">2017-08-08</property>
  <property name="meta.attr.creation_time.markup">15:38:32</property>
  <property name="meta.attr.time_reference.markup">158760000</property>
  <property name="meta.attr.umid.markup">0x0000000000000000000000000000000000000000000000000000000032005DC06BA986FA20BCAC54FF7F000046840F0C0100000050B4AC54FF7F0000EC5E66BC</property>
  <property name="seekable">1</property>
  <property name="audio_index">0</property>
  <property name="video_index">-1</property>
  <property name="mute_on_pause">1</property>
  <property name="mlt_service">avformat</property>
  <property name="kdenlive:clipname"/>
  <property name="kdenlive:clip_type">1</property>
  <property name="kdenlive:folderid">122</property>
  <property name="kdenlive:id">126</property>
  <property name="kdenlive:file_size">63198656</property>
  <property name="kdenlive:file_hash">418e0b637055924c917b724b6738c2d6</property>
  <property name="kdenlive:audio_max0">140</property>
 </producer>
 <producer id="producer96" in="00:00:00.000" out="00:04:00.000">
  <property name="length">14401</property>
  <property name="eof">pause</property>
  <property name="resource">audio/music/Bodytonic/Soothe/stems/04_Soothe_Drum Kit.wav</property>
  <property name="meta.media.nb_streams">1</property>
  <property name="meta.media.0.stream.type">audio</property>
  <property name="meta.media.0.codec.sample_fmt">s32</property>
  <property name="meta.media.0.codec.sample_rate">44100</property>
  <property name="meta.media.0.codec.channels">2</property>
  <property name="meta.media.0.codec.name">pcm_s24le</property>
  <property name="meta.media.0.codec.long_name">PCM signed 24-bit little-endian</property>
  <property name="meta.media.0.codec.bit_rate">2116800</property>
  <property name="meta.attr.encoded_by.markup">Logic Pro X</property>
  <property name="meta.attr.date.markup">2017-08-08</property>
  <property name="meta.attr.creation_time.markup">15:38:27</property>
  <property name="meta.attr.time_reference.markup">158760000</property>
  <property name="meta.attr.umid.markup">0x0000000000000000000000000000000000000000000000000000000032005DC06BA986FA20BCAC54FF7F000046840F0C0100000050B4AC54FF7F0000EC5E66BC</property>
  <property name="seekable">1</property>
  <property name="audio_index">0</property>
  <property name="video_index">-1</property>
  <property name="mute_on_pause">1</property>
  <property name="mlt_service">avformat</property>
  <property name="kdenlive:clipname"/>
  <property name="kdenlive:clip_type">1</property>
  <property name="kdenlive:folderid">122</property>
  <property name="kdenlive:id">127</property>
  <property name="kdenlive:file_size">63592384</property>
  <property name="kdenlive:file_hash">a42e0e73f030ed6c79210fa0c4d52f72</property>
  <property name="kdenlive:audio_max0">169</property>
 </producer>
 <producer id="producer97" in="00:00:00.000" out="00:03:47.367">
  <property name="length">13643</property>
  <property name="eof">pause</property>
  <property name="resource">audio/music/Bodytonic/Soothe/stems/05_Soothe_Found Percussion.wav</property>
  <property name="meta.media.nb_streams">1</property>
  <property name="meta.media.0.stream.type">audio</property>
  <property name="meta.media.0.codec.sample_fmt">s32</property>
  <property name="meta.media.0.codec.sample_rate">44100</property>
  <property name="meta.media.0.codec.channels">2</property>
  <property name="meta.media.0.codec.name">pcm_s24le</property>
  <property name="meta.media.0.codec.long_name">PCM signed 24-bit little-endian</property>
  <property name="meta.media.0.codec.bit_rate">2116800</property>
  <property name="meta.attr.encoded_by.markup">Logic Pro X</property>
  <property name="meta.attr.date.markup">2017-08-08</property>
  <property name="meta.attr.creation_time.markup">15:38:11</property>
  <property name="meta.attr.time_reference.markup">158760000</property>
  <property name="meta.attr.umid.markup">0x0000000000000000000000000000000000000000000000000000000032005DC06BA986FA20BCAC54FF7F000046840F0C0100000050B4AC54FF7F0000EC5E66BC</property>
  <property name="seekable">1</property>
  <property name="audio_index">0</property>
  <property name="video_index">-1</property>
  <property name="mute_on_pause">1</property>
  <property name="mlt_service">avformat</property>
  <property name="kdenlive:clipname"/>
  <property name="kdenlive:clip_type">1</property>
  <property name="kdenlive:folderid">122</property>
  <property name="kdenlive:id">129</property>
  <property name="kdenlive:file_size">60245696</property>
  <property name="kdenlive:file_hash">4a484528530ccc79b2019ec01057b866</property>
  <property name="kdenlive:audio_max0">256</property>
 </producer>
 <producer id="producer98" in="00:00:00.000" out="00:00:58.167">
  <property name="length">3491</property>
  <property name="eof">pause</property>
  <property name="resource">audio/music/Bodytonic/Soothe/variations/Soothe | 1 Min.wav</property>
  <property name="meta.media.nb_streams">1</property>
  <property name="meta.media.0.stream.type">audio</property>
  <property name="meta.media.0.codec.sample_fmt">s32</property>
  <property name="meta.media.0.codec.sample_rate">44100</property>
  <property name="meta.media.0.codec.channels">2</property>
  <property name="meta.media.0.codec.name">pcm_s24le</property>
  <property name="meta.media.0.codec.long_name">PCM signed 24-bit little-endian</property>
  <property name="meta.media.0.codec.bit_rate">2116800</property>
  <property name="meta.attr.encoded_by.markup">Logic Pro X</property>
  <property name="meta.attr.date.markup">2017-08-08</property>
  <property name="meta.attr.creation_time.markup">15:45:28</property>
  <property name="meta.attr.time_reference.markup">166938545</property>
  <property name="meta.attr.umid.markup">0x0000000000000000000000000000000000000000000000000000000032005DC06BA986FA8069AC54FF7F000046840F0C01000000B061AC54FF7F0000EC5E66BC</property>
  <property name="seekable">1</property>
  <property name="audio_index">0</property>
  <property name="video_index">-1</property>
  <property name="mute_on_pause">1</property>
  <property name="mlt_service">avformat</property>
  <property name="kdenlive:clipname"/>
  <property name="kdenlive:clip_type">1</property>
  <property name="kdenlive:folderid">128</property>
  <property name="kdenlive:id">130</property>
  <property name="kdenlive:file_size">15395638</property>
  <property name="kdenlive:file_hash">1dd085b6674efedfd535d060cc943db1</property>
  <property name="kdenlive:audio_max0">252</property>
 </producer>
 <producer id="producer99" in="00:00:00.000" out="00:00:30.900">
  <property name="length">1855</property>
  <property name="eof">pause</property>
  <property name="resource">audio/music/Bodytonic/Soothe/variations/Soothe | 30 Sec.wav</property>
  <property name="meta.media.nb_streams">1</property>
  <property name="meta.media.0.stream.type">audio</property>
  <property name="meta.media.0.codec.sample_fmt">s32</property>
  <property name="meta.media.0.codec.sample_rate">44100</property>
  <property name="meta.media.0.codec.channels">2</property>
  <property name="meta.media.0.codec.name">pcm_s24le</property>
  <property name="meta.media.0.codec.long_name">PCM signed 24-bit little-endian</property>
  <property name="meta.media.0.codec.bit_rate">2116800</property>
  <property name="meta.attr.encoded_by.markup">Logic Pro X</property>
  <property name="meta.attr.date.markup">2017-08-08</property>
  <property name="meta.attr.creation_time.markup">15:44:43</property>
  <property name="meta.attr.time_reference.markup">159080727</property>
  <property name="meta.attr.umid.markup">0x0000000000000000000000000000000000000000000000000000000032005DC06BA986FA8069AC54FF7F000046840F0C01000000B061AC54FF7F0000EC5E66BC</property>
  <property name="seekable">1</property>
  <property name="audio_index">0</property>
  <property name="video_index">-1</property>
  <property name="mute_on_pause">1</property>
  <property name="mlt_service">avformat</property>
  <property name="kdenlive:clipname"/>
  <property name="kdenlive:clip_type">1</property>
  <property name="kdenlive:folderid">128</property>
  <property name="kdenlive:id">131</property>
  <property name="kdenlive:file_size">8179276</property>
  <property name="kdenlive:file_hash">09782769eebd1bff0dc4ad0b86ccc068</property>
  <property name="kdenlive:audio_max0">256</property>
 </producer>
 <producer id="producer100" in="00:00:00.000" out="00:03:25.433">
  <property name="length">12327</property>
  <property name="eof">pause</property>
  <property name="resource">audio/music/Bodytonic/Soothe/variations/Soothe | Alt Start.wav</property>
  <property name="meta.media.nb_streams">1</property>
  <property name="meta.media.0.stream.type">audio</property>
  <property name="meta.media.0.codec.sample_fmt">s32</property>
  <property name="meta.media.0.codec.sample_rate">44100</property>
  <property name="meta.media.0.codec.channels">2</property>
  <property name="meta.media.0.codec.name">pcm_s24le</property>
  <property name="meta.media.0.codec.long_name">PCM signed 24-bit little-endian</property>
  <property name="meta.media.0.codec.bit_rate">2116800</property>
  <property name="meta.attr.encoded_by.markup">Logic Pro X</property>
  <property name="meta.attr.date.markup">2017-08-08</property>
  <property name="meta.attr.creation_time.markup">15:42:19</property>
  <property name="meta.attr.time_reference.markup">160524000</property>
  <property name="meta.attr.umid.markup">0x0000000000000000000000000000000000000000000000000000000032005DC06BA986FA8069AC54FF7F000046840F0C01000000B061AC54FF7F0000EC5E66BC</property>
  <property name="seekable">1</property>
  <property name="audio_index">0</property>
  <property name="video_index">-1</property>
  <property name="mute_on_pause">1</property>
  <property name="mlt_service">avformat</property>
  <property name="kdenlive:clipname"/>
  <property name="kdenlive:clip_type">1</property>
  <property name="kdenlive:folderid">128</property>
  <property name="kdenlive:id">132</property>
  <property name="kdenlive:file_size">54364000</property>
  <property name="kdenlive:file_hash">8e6032c35e9363f1b46a75e275ecb528</property>
  <property name="kdenlive:audio_max0">256</property>
 </producer>
 <producer id="producer101" in="00:00:00.000" out="00:02:45.200">
  <property name="length">9913</property>
  <property name="eof">pause</property>
  <property name="resource">audio/music/Bodytonic/Soothe/variations/Soothe | Jazz Lines.wav</property>
  <property name="meta.media.nb_streams">1</property>
  <property name="meta.media.0.stream.type">audio</property>
  <property name="meta.media.0.codec.sample_fmt">s32</property>
  <property name="meta.media.0.codec.sample_rate">44100</property>
  <property name="meta.media.0.codec.channels">2</property>
  <property name="meta.media.0.codec.name">pcm_s24le</property>
  <property name="meta.media.0.codec.long_name">PCM signed 24-bit little-endian</property>
  <property name="meta.media.0.codec.bit_rate">2116800</property>
  <property name="meta.attr.encoded_by.markup">Logic Pro X</property>
  <property name="meta.attr.date.markup">2017-08-08</property>
  <property name="meta.attr.creation_time.markup">15:51:57</property>
  <property name="meta.attr.time_reference.markup">161827826</property>
  <property name="meta.attr.umid.markup">0x0000000000000000000000000000000000000000000000000000000032005DC06BA986FA8069AC54FF7F000046840F0C01000000B061AC54FF7F0000EC5E66BC</property>
  <property name="seekable">1</property>
  <property name="audio_index">0</property>
  <property name="video_index">-1</property>
  <property name="mute_on_pause">1</property>
  <property name="mlt_service">avformat</property>
  <property name="kdenlive:clipname"/>
  <property name="kdenlive:clip_type">1</property>
  <property name="kdenlive:folderid">128</property>
  <property name="kdenlive:id">133</property>
  <property name="kdenlive:file_size">43717252</property>
  <property name="kdenlive:file_hash">d01d84729fa128245b141b97586cfe42</property>
  <property name="kdenlive:audio_max0">250</property>
 </producer>
 <producer id="producer102" in="00:00:00.000" out="00:03:21.800">
  <property name="length">12109</property>
  <property name="eof">pause</property>
  <property name="resource">audio/music/Bodytonic/Soothe/variations/Soothe | Marimba Leader.wav</property>
  <property name="meta.media.nb_streams">1</property>
  <property name="meta.media.0.stream.type">audio</property>
  <property name="meta.media.0.codec.sample_fmt">s32</property>
  <property name="meta.media.0.codec.sample_rate">44100</property>
  <property name="meta.media.0.codec.channels">2</property>
  <property name="meta.media.0.codec.name">pcm_s24le</property>
  <property name="meta.media.0.codec.long_name">PCM signed 24-bit little-endian</property>
  <property name="meta.media.0.codec.bit_rate">2116800</property>
  <property name="meta.attr.encoded_by.markup">Logic Pro X</property>
  <property name="meta.attr.date.markup">2017-08-08</property>
  <property name="meta.attr.creation_time.markup">15:46:45</property>
  <property name="meta.attr.time_reference.markup">160684363</property>
  <property name="meta.attr.umid.markup">0x0000000000000000000000000000000000000000000000000000000032005DC06BA986FA8069AC54FF7F000046840F0C01000000B061AC54FF7F0000EC5E66BC</property>
  <property name="seekable">1</property>
  <property name="audio_index">0</property>
  <property name="video_index">-1</property>
  <property name="mute_on_pause">1</property>
  <property name="mlt_service">avformat</property>
  <property name="kdenlive:clipname"/>
  <property name="kdenlive:clip_type">1</property>
  <property name="kdenlive:folderid">128</property>
  <property name="kdenlive:id">134</property>
  <property name="kdenlive:file_size">53401822</property>
  <property name="kdenlive:file_hash">911590d27c06a9fd329ced5ecbde936b</property>
  <property name="kdenlive:audio_max0">252</property>
 </producer>
 <producer id="producer103" in="00:00:00.000" out="00:04:05.433">
  <property name="length">14727</property>
  <property name="eof">pause</property>
  <property name="resource">audio/music/Bodytonic/Soothe/variations/Soothe | No Piano.wav</property>
  <property name="meta.media.nb_streams">1</property>
  <property name="meta.media.0.stream.type">audio</property>
  <property name="meta.media.0.codec.sample_fmt">s32</property>
  <property name="meta.media.0.codec.sample_rate">44100</property>
  <property name="meta.media.0.codec.channels">2</property>
  <property name="meta.media.0.codec.name">pcm_s24le</property>
  <property name="meta.media.0.codec.long_name">PCM signed 24-bit little-endian</property>
  <property name="meta.media.0.codec.bit_rate">2116800</property>
  <property name="meta.attr.encoded_by.markup">Logic Pro X</property>
  <property name="meta.attr.date.markup">2017-08-08</property>
  <property name="meta.attr.creation_time.markup">15:48:13</property>
  <property name="meta.attr.time_reference.markup">158760000</property>
  <property name="meta.attr.umid.markup">0x0000000000000000000000000000000000000000000000000000000032005DC06BA986FA8069AC54FF7F000046840F0C01000000B061AC54FF7F0000EC5E66BC</property>
  <property name="seekable">1</property>
  <property name="audio_index">0</property>
  <property name="video_index">-1</property>
  <property name="mute_on_pause">1</property>
  <property name="mlt_service">avformat</property>
  <property name="kdenlive:clipname"/>
  <property name="kdenlive:clip_type">1</property>
  <property name="kdenlive:folderid">128</property>
  <property name="kdenlive:id">136</property>
  <property name="kdenlive:file_size">64948000</property>
  <property name="kdenlive:file_hash">5ff24a0b10e19d873f4479795c86bec9</property>
  <property name="kdenlive:audio_max0">254</property>
 </producer>
 <producer id="producer104" in="00:00:00.000" out="00:03:07.250">
  <property name="length">11236</property>
  <property name="eof">pause</property>
  <property name="resource">audio/music/Bodytonic/Thannoid/Thannoid | Minimal Marimba.wav</property>
  <property name="meta.media.nb_streams">1</property>
  <property name="meta.media.0.stream.type">audio</property>
  <property name="meta.media.0.codec.sample_fmt">s32</property>
  <property name="meta.media.0.codec.sample_rate">44100</property>
  <property name="meta.media.0.codec.channels">2</property>
  <property name="meta.media.0.codec.name">pcm_s24le</property>
  <property name="meta.media.0.codec.long_name">PCM signed 24-bit little-endian</property>
  <property name="meta.media.0.codec.bit_rate">2116800</property>
  <property name="meta.attr.encoded_by.markup">Logic Pro X</property>
  <property name="meta.attr.date.markup">2017-06-08</property>
  <property name="meta.attr.creation_time.markup">12:12:47</property>
  <property name="meta.attr.time_reference.markup">158760000</property>
  <property name="meta.attr.umid.markup">0x00000000000000000000000000000000000000000000000000000000A200AAFA29A23A358059595BFF7F00004694620501000000B051595BFF7F0000ECFE8894</property>
  <property name="seekable">1</property>
  <property name="audio_index">0</property>
  <property name="video_index">-1</property>
  <property name="mute_on_pause">1</property>
  <property name="mlt_service">avformat</property>
  <property name="kdenlive:clipname"/>
  <property name="kdenlive:clip_type">1</property>
  <property name="kdenlive:folderid">135</property>
  <property name="kdenlive:id">137</property>
  <property name="kdenlive:file_size">49553092</property>
  <property name="kdenlive:file_hash">932daddb50aabfa82b900cd893e93aaf</property>
  <property name="kdenlive:audio_max0">255</property>
 </producer>
 <producer id="producer105" in="00:00:00.000" out="00:03:03.167">
  <property name="length">10991</property>
  <property name="eof">pause</property>
  <property name="resource">audio/music/Bodytonic/Thannoid/Thannoid.wav</property>
  <property name="meta.media.nb_streams">1</property>
  <property name="meta.media.0.stream.type">audio</property>
  <property name="meta.media.0.codec.sample_fmt">s32</property>
  <property name="meta.media.0.codec.sample_rate">44100</property>
  <property name="meta.media.0.codec.channels">2</property>
  <property name="meta.media.0.codec.name">pcm_s24le</property>
  <property name="meta.media.0.codec.long_name">PCM signed 24-bit little-endian</property>
  <property name="meta.media.0.codec.bit_rate">2116800</property>
  <property name="meta.attr.encoded_by.markup">Logic Pro X</property>
  <property name="meta.attr.date.markup">2017-06-08</property>
  <property name="meta.attr.creation_time.markup">11:58:37</property>
  <property name="meta.attr.time_reference.markup">158760000</property>
  <property name="meta.attr.umid.markup">0x00000000000000000000000000000000000000000000000000000000A200AAFA29A23A358059595BFF7F00004694620501000000B051595BFF7F0000ECFE8894</property>
  <property name="seekable">1</property>
  <property name="audio_index">0</property>
  <property name="video_index">-1</property>
  <property name="mute_on_pause">1</property>
  <property name="mlt_service">avformat</property>
  <property name="kdenlive:clipname"/>
  <property name="kdenlive:clip_type">1</property>
  <property name="kdenlive:folderid">135</property>
  <property name="kdenlive:id">139</property>
  <property name="kdenlive:file_size">48470638</property>
  <property name="kdenlive:file_hash">d01b2267fd4c82a6c4e00c53126f5078</property>
  <property name="kdenlive:audio_max0">253</property>
 </producer>
 <producer id="producer106" in="00:00:00.000" out="00:02:59.067">
  <property name="length">10745</property>
  <property name="eof">pause</property>
  <property name="resource">audio/music/Bodytonic/Thannoid/stems/01_Thannoid_Upright Bass.wav</property>
  <property name="meta.media.nb_streams">1</property>
  <property name="meta.media.0.stream.type">audio</property>
  <property name="meta.media.0.codec.sample_fmt">s32</property>
  <property name="meta.media.0.codec.sample_rate">44100</property>
  <property name="meta.media.0.codec.channels">2</property>
  <property name="meta.media.0.codec.name">pcm_s24le</property>
  <property name="meta.media.0.codec.long_name">PCM signed 24-bit little-endian</property>
  <property name="meta.media.0.codec.bit_rate">2116800</property>
  <property name="meta.attr.encoded_by.markup">Logic Pro X</property>
  <property name="meta.attr.date.markup">2017-06-08</property>
  <property name="meta.attr.creation_time.markup">12:02:34</property>
  <property name="meta.attr.time_reference.markup">158760000</property>
  <property name="meta.attr.umid.markup">0x00000000000000000000000000000000000000000000000000000000A200AAFA29A23A3530AC595BFF7F0000469462050100000060A4595BFF7F0000ECFE8894</property>
  <property name="seekable">1</property>
  <property name="audio_index">0</property>
  <property name="video_index">-1</property>
  <property name="mute_on_pause">1</property>
  <property name="mlt_service">avformat</property>
  <property name="kdenlive:clipname"/>
  <property name="kdenlive:clip_type">1</property>
  <property name="kdenlive:folderid">138</property>
  <property name="kdenlive:id">140</property>
  <property name="kdenlive:file_size">47449536</property>
  <property name="kdenlive:file_hash">98f0491e3077705ee7093e6405ebaefc</property>
  <property name="kdenlive:audio_max0">208</property>
 </producer>
 <producer id="producer107" in="00:00:00.000" out="00:02:58.333">
  <property name="length">10701</property>
  <property name="eof">pause</property>
  <property name="resource">audio/music/Bodytonic/Thannoid/stems/02_Thannoid_Piano.wav</property>
  <property name="meta.media.nb_streams">1</property>
  <property name="meta.media.0.stream.type">audio</property>
  <property name="meta.media.0.codec.sample_fmt">s32</property>
  <property name="meta.media.0.codec.sample_rate">44100</property>
  <property name="meta.media.0.codec.channels">2</property>
  <property name="meta.media.0.codec.name">pcm_s24le</property>
  <property name="meta.media.0.codec.long_name">PCM signed 24-bit little-endian</property>
  <property name="meta.media.0.codec.bit_rate">2116800</property>
  <property name="meta.attr.encoded_by.markup">Logic Pro X</property>
  <property name="meta.attr.date.markup">2017-06-08</property>
  <property name="meta.attr.creation_time.markup">12:02:38</property>
  <property name="meta.attr.time_reference.markup">158760000</property>
  <property name="meta.attr.umid.markup">0x00000000000000000000000000000000000000000000000000000000A200AAFA29A23A3530AC595BFF7F0000469462050100000060A4595BFF7F0000ECFE8894</property>
  <property name="seekable">1</property>
  <property name="audio_index">0</property>
  <property name="video_index">-1</property>
  <property name="mute_on_pause">1</property>
  <property name="mlt_service">avformat</property>
  <property name="kdenlive:clipname"/>
  <property name="kdenlive:clip_type">1</property>
  <property name="kdenlive:folderid">138</property>
  <property name="kdenlive:id">141</property>
  <property name="kdenlive:file_size">47252672</property>
  <property name="kdenlive:file_hash">f16cb6e6cd4d24d381426e2c915320e8</property>
  <property name="kdenlive:audio_max0">166</property>
 </producer>
 <producer id="producer108" in="00:00:00.000" out="00:02:59.817">
  <property name="length">10790</property>
  <property name="eof">pause</property>
  <property name="resource">audio/music/Bodytonic/Thannoid/stems/03_Thannoid_Marimba.wav</property>
  <property name="meta.media.nb_streams">1</property>
  <property name="meta.media.0.stream.type">audio</property>
  <property name="meta.media.0.codec.sample_fmt">s32</property>
  <property name="meta.media.0.codec.sample_rate">44100</property>
  <property name="meta.media.0.codec.channels">2</property>
  <property name="meta.media.0.codec.name">pcm_s24le</property>
  <property name="meta.media.0.codec.long_name">PCM signed 24-bit little-endian</property>
  <property name="meta.media.0.codec.bit_rate">2116800</property>
  <property name="meta.attr.encoded_by.markup">Logic Pro X</property>
  <property name="meta.attr.date.markup">2017-06-08</property>
  <property name="meta.attr.creation_time.markup">12:02:45</property>
  <property name="meta.attr.time_reference.markup">158760000</property>
  <property name="meta.attr.umid.markup">0x00000000000000000000000000000000000000000000000000000000A200AAFA29A23A3530AC595BFF7F0000469462050100000060A4595BFF7F0000ECFE8894</property>
  <property name="seekable">1</property>
  <property name="audio_index">0</property>
  <property name="video_index">-1</property>
  <property name="mute_on_pause">1</property>
  <property name="mlt_service">avformat</property>
  <property name="kdenlive:clipname"/>
  <property name="kdenlive:clip_type">1</property>
  <property name="kdenlive:folderid">138</property>
  <property name="kdenlive:id">142</property>
  <property name="kdenlive:file_size">47646400</property>
  <property name="kdenlive:file_hash">e3ee266e773052fdb423235a13004922</property>
  <property name="kdenlive:audio_max0">154</property>
 </producer>
 <producer id="producer109" in="00:00:00.000" out="00:02:56.100">
  <property name="length">10567</property>
  <property name="eof">pause</property>
  <property name="resource">audio/music/Bodytonic/Thannoid/stems/04_Thannoid_Drum Kit.wav</property>
  <property name="meta.media.nb_streams">1</property>
  <property name="meta.media.0.stream.type">audio</property>
  <property name="meta.media.0.codec.sample_fmt">s32</property>
  <property name="meta.media.0.codec.sample_rate">44100</property>
  <property name="meta.media.0.codec.channels">2</property>
  <property name="meta.media.0.codec.name">pcm_s24le</property>
  <property name="meta.media.0.codec.long_name">PCM signed 24-bit little-endian</property>
  <property name="meta.media.0.codec.bit_rate">2116800</property>
  <property name="meta.attr.encoded_by.markup">Logic Pro X</property>
  <property name="meta.attr.date.markup">2017-06-08</property>
  <property name="meta.attr.creation_time.markup">12:02:41</property>
  <property name="meta.attr.time_reference.markup">158760000</property>
  <property name="meta.attr.umid.markup">0x00000000000000000000000000000000000000000000000000000000A200AAFA29A23A3530AC595BFF7F0000469462050100000060A4595BFF7F0000ECFE8894</property>
  <property name="seekable">1</property>
  <property name="audio_index">0</property>
  <property name="video_index">-1</property>
  <property name="mute_on_pause">1</property>
  <property name="mlt_service">avformat</property>
  <property name="kdenlive:clipname"/>
  <property name="kdenlive:clip_type">1</property>
  <property name="kdenlive:folderid">138</property>
  <property name="kdenlive:id">143</property>
  <property name="kdenlive:file_size">46662080</property>
  <property name="kdenlive:file_hash">4544e80b49d96d728906a61ffa38da60</property>
  <property name="kdenlive:audio_max0">156</property>
 </producer>
 <producer id="producer110" in="00:00:00.000" out="00:02:56.100">
  <property name="length">10567</property>
  <property name="eof">pause</property>
  <property name="resource">audio/music/Bodytonic/Thannoid/stems/05_Thannoid_Found Percussion.wav</property>
  <property name="meta.media.nb_streams">1</property>
  <property name="meta.media.0.stream.type">audio</property>
  <property name="meta.media.0.codec.sample_fmt">s32</property>
  <property name="meta.media.0.codec.sample_rate">44100</property>
  <property name="meta.media.0.codec.channels">2</property>
  <property name="meta.media.0.codec.name">pcm_s24le</property>
  <property name="meta.media.0.codec.long_name">PCM signed 24-bit little-endian</property>
  <property name="meta.media.0.codec.bit_rate">2116800</property>
  <property name="meta.attr.encoded_by.markup">Logic Pro X</property>
  <property name="meta.attr.date.markup">2017-06-08</property>
  <property name="meta.attr.creation_time.markup">12:02:29</property>
  <property name="meta.attr.time_reference.markup">158760000</property>
  <property name="meta.attr.umid.markup">0x00000000000000000000000000000000000000000000000000000000A200AAFA29A23A3530AC595BFF7F0000469462050100000060A4595BFF7F0000ECFE8894</property>
  <property name="seekable">1</property>
  <property name="audio_index">0</property>
  <property name="video_index">-1</property>
  <property name="mute_on_pause">1</property>
  <property name="mlt_service">avformat</property>
  <property name="kdenlive:clipname"/>
  <property name="kdenlive:clip_type">1</property>
  <property name="kdenlive:folderid">138</property>
  <property name="kdenlive:id">145</property>
  <property name="kdenlive:file_size">46662080</property>
  <property name="kdenlive:file_hash">21521aae6e71ae8487043d9a961278b6</property>
  <property name="kdenlive:audio_max0">201</property>
 </producer>
 <producer id="producer111" in="00:00:00.000" out="00:01:21.800">
  <property name="length">4909</property>
  <property name="eof">pause</property>
  <property name="resource">audio/music/Bodytonic/Thannoid/variations/Thannoid | 1 Min.wav</property>
  <property name="meta.media.nb_streams">1</property>
  <property name="meta.media.0.stream.type">audio</property>
  <property name="meta.media.0.codec.sample_fmt">s32</property>
  <property name="meta.media.0.codec.sample_rate">44100</property>
  <property name="meta.media.0.codec.channels">2</property>
  <property name="meta.media.0.codec.name">pcm_s24le</property>
  <property name="meta.media.0.codec.long_name">PCM signed 24-bit little-endian</property>
  <property name="meta.media.0.codec.bit_rate">2116800</property>
  <property name="meta.attr.encoded_by.markup">Logic Pro X</property>
  <property name="meta.attr.date.markup">2017-06-08</property>
  <property name="meta.attr.creation_time.markup">12:04:06</property>
  <property name="meta.attr.time_reference.markup">163250182</property>
  <property name="meta.attr.umid.markup">0x00000000000000000000000000000000000000000000000000000000A200AAFA29A23A358059595BFF7F00004694620501000000B051595BFF7F0000ECFE8894</property>
  <property name="seekable">1</property>
  <property name="audio_index">0</property>
  <property name="video_index">-1</property>
  <property name="mute_on_pause">1</property>
  <property name="mlt_service">avformat</property>
  <property name="kdenlive:clipname"/>
  <property name="kdenlive:clip_type">1</property>
  <property name="kdenlive:folderid">144</property>
  <property name="kdenlive:id">146</property>
  <property name="kdenlive:file_size">21649816</property>
  <property name="kdenlive:file_hash">526bdde6ee40d10bf38e084b5eb78100</property>
  <property name="kdenlive:audio_max0">252</property>
 </producer>
 <producer id="producer112" in="00:00:00.000" out="00:00:36.350">
  <property name="length">2182</property>
  <property name="eof">pause</property>
  <property name="resource">audio/music/Bodytonic/Thannoid/variations/Thannoid | 30 Sec No Melody.wav</property>
  <property name="meta.media.nb_streams">1</property>
  <property name="meta.media.0.stream.type">audio</property>
  <property name="meta.media.0.codec.sample_fmt">s32</property>
  <property name="meta.media.0.codec.sample_rate">44100</property>
  <property name="meta.media.0.codec.channels">2</property>
  <property name="meta.media.0.codec.name">pcm_s24le</property>
  <property name="meta.media.0.codec.long_name">PCM signed 24-bit little-endian</property>
  <property name="meta.media.0.codec.bit_rate">2116800</property>
  <property name="meta.attr.encoded_by.markup">Logic Pro X</property>
  <property name="meta.attr.date.markup">2017-06-08</property>
  <property name="meta.attr.creation_time.markup">12:05:01</property>
  <property name="meta.attr.time_reference.markup">165174545</property>
  <property name="meta.attr.umid.markup">0x00000000000000000000000000000000000000000000000000000000A200AAFA29A23A358059595BFF7F00004694620501000000B051595BFF7F0000ECFE8894</property>
  <property name="seekable">1</property>
  <property name="audio_index">0</property>
  <property name="video_index">-1</property>
  <property name="mute_on_pause">1</property>
  <property name="mlt_service">avformat</property>
  <property name="kdenlive:clipname"/>
  <property name="kdenlive:clip_type">1</property>
  <property name="kdenlive:folderid">144</property>
  <property name="kdenlive:id">147</property>
  <property name="kdenlive:file_size">9622552</property>
  <property name="kdenlive:file_hash">733fb17cae8fb54cd88f370d666592c4</property>
  <property name="kdenlive:audio_max0">251</property>
 </producer>
 <producer id="producer113" in="00:00:00.000" out="00:00:38.283">
  <property name="length">2298</property>
  <property name="eof">pause</property>
  <property name="resource">audio/music/Bodytonic/Thannoid/variations/Thannoid | 30 Sec.wav</property>
  <property name="meta.media.nb_streams">1</property>
  <property name="meta.media.0.stream.type">audio</property>
  <property name="meta.media.0.codec.sample_fmt">s32</property>
  <property name="meta.media.0.codec.sample_rate">44100</property>
  <property name="meta.media.0.codec.channels">2</property>
  <property name="meta.media.0.codec.name">pcm_s24le</property>
  <property name="meta.media.0.codec.long_name">PCM signed 24-bit little-endian</property>
  <property name="meta.media.0.codec.bit_rate">2116800</property>
  <property name="meta.attr.encoded_by.markup">Logic Pro X</property>
  <property name="meta.attr.date.markup">2017-06-08</property>
  <property name="meta.attr.creation_time.markup">12:03:24</property>
  <property name="meta.attr.time_reference.markup">165169450</property>
  <property name="meta.attr.umid.markup">0x00000000000000000000000000000000000000000000000000000000A200AAFA29A23A358059595BFF7F00004694620501000000B051595BFF7F0000ECFE8894</property>
  <property name="seekable">1</property>
  <property name="audio_index">0</property>
  <property name="video_index">-1</property>
  <property name="mute_on_pause">1</property>
  <property name="mlt_service">avformat</property>
  <property name="kdenlive:clipname"/>
  <property name="kdenlive:clip_type">1</property>
  <property name="kdenlive:folderid">144</property>
  <property name="kdenlive:id">148</property>
  <property name="kdenlive:file_size">10134208</property>
  <property name="kdenlive:file_hash">e5b0ee54f087fd56546e9029b92661a0</property>
  <property name="kdenlive:audio_max0">253</property>
 </producer>
 <producer id="producer114" in="00:00:00.000" out="00:03:07.250">
  <property name="length">11236</property>
  <property name="eof">pause</property>
  <property name="resource">audio/music/Bodytonic/Thannoid/variations/Thannoid | Minimal Marimba.wav</property>
  <property name="meta.media.nb_streams">1</property>
  <property name="meta.media.0.stream.type">audio</property>
  <property name="meta.media.0.codec.sample_fmt">s32</property>
  <property name="meta.media.0.codec.sample_rate">44100</property>
  <property name="meta.media.0.codec.channels">2</property>
  <property name="meta.media.0.codec.name">pcm_s24le</property>
  <property name="meta.media.0.codec.long_name">PCM signed 24-bit little-endian</property>
  <property name="meta.media.0.codec.bit_rate">2116800</property>
  <property name="meta.attr.encoded_by.markup">Logic Pro X</property>
  <property name="meta.attr.date.markup">2017-06-08</property>
  <property name="meta.attr.creation_time.markup">12:12:47</property>
  <property name="meta.attr.time_reference.markup">158760000</property>
  <property name="meta.attr.umid.markup">0x00000000000000000000000000000000000000000000000000000000A200AAFA29A23A358059595BFF7F00004694620501000000B051595BFF7F0000ECFE8894</property>
  <property name="seekable">1</property>
  <property name="audio_index">0</property>
  <property name="video_index">-1</property>
  <property name="mute_on_pause">1</property>
  <property name="mlt_service">avformat</property>
  <property name="kdenlive:clipname"/>
  <property name="kdenlive:clip_type">1</property>
  <property name="kdenlive:folderid">144</property>
  <property name="kdenlive:id">149</property>
  <property name="kdenlive:file_size">49553092</property>
  <property name="kdenlive:file_hash">932daddb50aabfa82b900cd893e93aaf</property>
 </producer>
 <producer id="producer115" in="00:00:00.000" out="00:02:32.717">
  <property name="length">9164</property>
  <property name="eof">pause</property>
  <property name="resource">audio/music/Bodytonic/Thannoid/variations/Thannoid | No Melody.wav</property>
  <property name="meta.media.nb_streams">1</property>
  <property name="meta.media.0.stream.type">audio</property>
  <property name="meta.media.0.codec.sample_fmt">s32</property>
  <property name="meta.media.0.codec.sample_rate">44100</property>
  <property name="meta.media.0.codec.channels">2</property>
  <property name="meta.media.0.codec.name">pcm_s24le</property>
  <property name="meta.media.0.codec.long_name">PCM signed 24-bit little-endian</property>
  <property name="meta.media.0.codec.bit_rate">2116800</property>
  <property name="meta.attr.encoded_by.markup">Logic Pro X</property>
  <property name="meta.attr.date.markup">2017-06-08</property>
  <property name="meta.attr.creation_time.markup">11:59:50</property>
  <property name="meta.attr.time_reference.markup">158760000</property>
  <property name="meta.attr.umid.markup">0x00000000000000000000000000000000000000000000000000000000A200AAFA29A23A358059595BFF7F00004694620501000000B051595BFF7F0000ECFE8894</property>
  <property name="seekable">1</property>
  <property name="audio_index">0</property>
  <property name="video_index">-1</property>
  <property name="mute_on_pause">1</property>
  <property name="mlt_service">avformat</property>
  <property name="kdenlive:clipname"/>
  <property name="kdenlive:clip_type">1</property>
  <property name="kdenlive:folderid">144</property>
  <property name="kdenlive:id">150</property>
  <property name="kdenlive:file_size">40412362</property>
  <property name="kdenlive:file_hash">4647d8498a569004cb54266f7cf0826a</property>
  <property name="kdenlive:audio_max0">255</property>
 </producer>
 <producer id="producer116" in="00:00:00.000" out="00:01:50.900">
  <property name="length">6655</property>
  <property name="eof">pause</property>
  <property name="resource">audio/music/Bodytonic/Thannoid/variations/Thannoid | Piano.wav</property>
  <property name="meta.media.nb_streams">1</property>
  <property name="meta.media.0.stream.type">audio</property>
  <property name="meta.media.0.codec.sample_fmt">s32</property>
  <property name="meta.media.0.codec.sample_rate">44100</property>
  <property name="meta.media.0.codec.channels">2</property>
  <property name="meta.media.0.codec.name">pcm_s24le</property>
  <property name="meta.media.0.codec.long_name">PCM signed 24-bit little-endian</property>
  <property name="meta.media.0.codec.bit_rate">2116800</property>
  <property name="meta.attr.encoded_by.markup">Logic Pro X</property>
  <property name="meta.attr.date.markup">2017-06-08</property>
  <property name="meta.attr.creation_time.markup">12:06:43</property>
  <property name="meta.attr.time_reference.markup">161967272</property>
  <property name="meta.attr.umid.markup">0x00000000000000000000000000000000000000000000000000000000A200AAFA29A23A358059595BFF7F00004694620501000000B051595BFF7F0000ECFE8894</property>
  <property name="seekable">1</property>
  <property name="audio_index">0</property>
  <property name="video_index">-1</property>
  <property name="mute_on_pause">1</property>
  <property name="mlt_service">avformat</property>
  <property name="kdenlive:clipname"/>
  <property name="kdenlive:clip_type">1</property>
  <property name="kdenlive:folderid">144</property>
  <property name="kdenlive:id">151</property>
  <property name="kdenlive:file_size">29385504</property>
  <property name="kdenlive:file_hash">6fb3cefe5cd49b1a772d4148933cc2b4</property>
  <property name="kdenlive:audio_max0">256</property>
 </producer>
 <producer id="producer117" in="00:00:00.000" out="00:01:21.800">
  <property name="length">4909</property>
  <property name="eof">pause</property>
  <property name="resource">audio/music/Bodytonic/Thannoid/variations/Thannoid | Swinging.wav</property>
  <property name="meta.media.nb_streams">1</property>
  <property name="meta.media.0.stream.type">audio</property>
  <property name="meta.media.0.codec.sample_fmt">s32</property>
  <property name="meta.media.0.codec.sample_rate">44100</property>
  <property name="meta.media.0.codec.channels">2</property>
  <property name="meta.media.0.codec.name">pcm_s24le</property>
  <property name="meta.media.0.codec.long_name">PCM signed 24-bit little-endian</property>
  <property name="meta.media.0.codec.bit_rate">2116800</property>
  <property name="meta.attr.encoded_by.markup">Logic Pro X</property>
  <property name="meta.attr.date.markup">2017-06-08</property>
  <property name="meta.attr.creation_time.markup">12:10:51</property>
  <property name="meta.attr.time_reference.markup">163250182</property>
  <property name="meta.attr.umid.markup">0x00000000000000000000000000000000000000000000000000000000A200AAFA29A23A358059595BFF7F00004694620501000000B051595BFF7F0000ECFE8894</property>
  <property name="seekable">1</property>
  <property name="audio_index">0</property>
  <property name="video_index">-1</property>
  <property name="mute_on_pause">1</property>
  <property name="mlt_service">avformat</property>
  <property name="kdenlive:clipname"/>
  <property name="kdenlive:clip_type">1</property>
  <property name="kdenlive:folderid">144</property>
  <property name="kdenlive:id">154</property>
  <property name="kdenlive:file_size">21649816</property>
  <property name="kdenlive:file_hash">8e38fa47426d8af1d82fc2aaea57d9ea</property>
  <property name="kdenlive:audio_max0">252</property>
 </producer>
 <producer id="producer118" in="00:00:00.000" out="00:02:54.767">
  <property name="length">10487</property>
  <property name="eof">pause</property>
  <property name="resource">audio/music/Nursery/A Little Powder */A Little Powder.wav</property>
  <property name="meta.media.nb_streams">1</property>
  <property name="meta.media.0.stream.type">audio</property>
  <property name="meta.media.0.codec.sample_fmt">s32</property>
  <property name="meta.media.0.codec.sample_rate">44100</property>
  <property name="meta.media.0.codec.channels">2</property>
  <property name="meta.media.0.codec.name">pcm_s24le</property>
  <property name="meta.media.0.codec.long_name">PCM signed 24-bit little-endian</property>
  <property name="meta.media.0.codec.bit_rate">2116800</property>
  <property name="meta.attr.encoded_by.markup">Logic Pro X</property>
  <property name="meta.attr.date.markup">2018-02-12</property>
  <property name="meta.attr.creation_time.markup">14:18:55</property>
  <property name="meta.attr.time_reference.markup">159189498</property>
  <property name="meta.attr.umid.markup">0x00000000000000000000000000000000000000000000000000000000B200403FF3E80FCAD081E1E5FE7F000050964C0B010000001082E1E5FE7F00003D86F66C</property>
  <property name="seekable">1</property>
  <property name="audio_index">0</property>
  <property name="video_index">-1</property>
  <property name="mute_on_pause">1</property>
  <property name="mlt_service">avformat</property>
  <property name="kdenlive:clipname"/>
  <property name="kdenlive:clip_type">1</property>
  <property name="kdenlive:folderid">153</property>
  <property name="kdenlive:id">156</property>
  <property name="kdenlive:file_size">46249020</property>
  <property name="kdenlive:file_hash">9d7892f208ee17d258a62c5abfc2e76f</property>
  <property name="kdenlive:audio_max0">232</property>
 </producer>
 <producer id="producer119" in="00:00:00.000" out="00:02:53.133">
  <property name="length">10389</property>
  <property name="eof">pause</property>
  <property name="resource">audio/music/Nursery/A Little Powder */stems/01_A Little Powder_Tongue Drum.wav</property>
  <property name="meta.media.nb_streams">1</property>
  <property name="meta.media.0.stream.type">audio</property>
  <property name="meta.media.0.codec.sample_fmt">s32</property>
  <property name="meta.media.0.codec.sample_rate">44100</property>
  <property name="meta.media.0.codec.channels">2</property>
  <property name="meta.media.0.codec.name">pcm_s24le</property>
  <property name="meta.media.0.codec.long_name">PCM signed 24-bit little-endian</property>
  <property name="meta.media.0.codec.bit_rate">2116800</property>
  <property name="meta.attr.encoded_by.markup">Logic Pro X</property>
  <property name="meta.attr.date.markup">2018-02-12</property>
  <property name="meta.attr.creation_time.markup">14:20:55</property>
  <property name="meta.attr.time_reference.markup">159189498</property>
  <property name="meta.attr.umid.markup">0x00000000000000000000000000000000000000000000000000000000B200403FF3E80FCA40B7E1E5FE7F000050964C0B0100000080B7E1E5FE7F00003D86F66C</property>
  <property name="seekable">1</property>
  <property name="audio_index">0</property>
  <property name="video_index">-1</property>
  <property name="mute_on_pause">1</property>
  <property name="mlt_service">avformat</property>
  <property name="kdenlive:clipname"/>
  <property name="kdenlive:clip_type">1</property>
  <property name="kdenlive:folderid">155</property>
  <property name="kdenlive:id">157</property>
  <property name="kdenlive:file_size">45874706</property>
  <property name="kdenlive:file_hash">308819235efb5c2be935d88bbbde2e34</property>
  <property name="kdenlive:audio_max0">125</property>
 </producer>
 <producer id="producer120" in="00:00:00.000" out="00:02:50.900">
  <property name="length">10255</property>
  <property name="eof">pause</property>
  <property name="resource">audio/music/Nursery/A Little Powder */stems/02_A Little Powder_Tongue Drum.wav</property>
  <property name="meta.media.nb_streams">1</property>
  <property name="meta.media.0.stream.type">audio</property>
  <property name="meta.media.0.codec.sample_fmt">s32</property>
  <property name="meta.media.0.codec.sample_rate">44100</property>
  <property name="meta.media.0.codec.channels">2</property>
  <property name="meta.media.0.codec.name">pcm_s24le</property>
  <property name="meta.media.0.codec.long_name">PCM signed 24-bit little-endian</property>
  <property name="meta.media.0.codec.bit_rate">2116800</property>
  <property name="meta.attr.encoded_by.markup">Logic Pro X</property>
  <property name="meta.attr.date.markup">2018-02-12</property>
  <property name="meta.attr.creation_time.markup">14:20:58</property>
  <property name="meta.attr.time_reference.markup">159189498</property>
  <property name="meta.attr.umid.markup">0x00000000000000000000000000000000000000000000000000000000B200403FF3E80FCA40B7E1E5FE7F000050964C0B0100000080B7E1E5FE7F00003D86F66C</property>
  <property name="seekable">1</property>
  <property name="audio_index">0</property>
  <property name="video_index">-1</property>
  <property name="mute_on_pause">1</property>
  <property name="mlt_service">avformat</property>
  <property name="kdenlive:clipname"/>
  <property name="kdenlive:clip_type">1</property>
  <property name="kdenlive:folderid">155</property>
  <property name="kdenlive:id">158</property>
  <property name="kdenlive:file_size">45284114</property>
  <property name="kdenlive:file_hash">738ad6da73d339e18f92280f0609cff2</property>
  <property name="kdenlive:audio_max0">158</property>
 </producer>
 <producer id="producer121" in="00:00:00.000" out="00:02:49.417">
  <property name="length">10166</property>
  <property name="eof">pause</property>
  <property name="resource">audio/music/Nursery/A Little Powder */stems/03_A Little Powder_Piano.wav</property>
  <property name="meta.media.nb_streams">1</property>
  <property name="meta.media.0.stream.type">audio</property>
  <property name="meta.media.0.codec.sample_fmt">s32</property>
  <property name="meta.media.0.codec.sample_rate">44100</property>
  <property name="meta.media.0.codec.channels">2</property>
  <property name="meta.media.0.codec.name">pcm_s24le</property>
  <property name="meta.media.0.codec.long_name">PCM signed 24-bit little-endian</property>
  <property name="meta.media.0.codec.bit_rate">2116800</property>
  <property name="meta.attr.encoded_by.markup">Logic Pro X</property>
  <property name="meta.attr.date.markup">2018-02-12</property>
  <property name="meta.attr.creation_time.markup">14:21:10</property>
  <property name="meta.attr.time_reference.markup">159189498</property>
  <property name="meta.attr.umid.markup">0x00000000000000000000000000000000000000000000000000000000B200403FF3E80FCA40B7E1E5FE7F000050964C0B0100000080B7E1E5FE7F00003D86F66C</property>
  <property name="seekable">1</property>
  <property name="audio_index">0</property>
  <property name="video_index">-1</property>
  <property name="mute_on_pause">1</property>
  <property name="mlt_service">avformat</property>
  <property name="kdenlive:clipname"/>
  <property name="kdenlive:clip_type">1</property>
  <property name="kdenlive:folderid">155</property>
  <property name="kdenlive:id">159</property>
  <property name="kdenlive:file_size">44890386</property>
  <property name="kdenlive:file_hash">a90bdf8200f7ce687f32f8f6d2afe98e</property>
  <property name="kdenlive:audio_max0">130</property>
 </producer>
 <producer id="producer122" in="00:00:00.000" out="00:02:39.750">
  <property name="length">9586</property>
  <property name="eof">pause</property>
  <property name="resource">audio/music/Nursery/A Little Powder */stems/04_A Little Powder_Rhodes.wav</property>
  <property name="meta.media.nb_streams">1</property>
  <property name="meta.media.0.stream.type">audio</property>
  <property name="meta.media.0.codec.sample_fmt">s32</property>
  <property name="meta.media.0.codec.sample_rate">44100</property>
  <property name="meta.media.0.codec.channels">2</property>
  <property name="meta.media.0.codec.name">pcm_s24le</property>
  <property name="meta.media.0.codec.long_name">PCM signed 24-bit little-endian</property>
  <property name="meta.media.0.codec.bit_rate">2116800</property>
  <property name="meta.attr.encoded_by.markup">Logic Pro X</property>
  <property name="meta.attr.date.markup">2018-02-12</property>
  <property name="meta.attr.creation_time.markup">14:21:07</property>
  <property name="meta.attr.time_reference.markup">159189498</property>
  <property name="meta.attr.umid.markup">0x00000000000000000000000000000000000000000000000000000000B200403FF3E80FCA40B7E1E5FE7F000050964C0B0100000080B7E1E5FE7F00003D86F66C</property>
  <property name="seekable">1</property>
  <property name="audio_index">0</property>
  <property name="video_index">-1</property>
  <property name="mute_on_pause">1</property>
  <property name="mlt_service">avformat</property>
  <property name="kdenlive:clipname"/>
  <property name="kdenlive:clip_type">1</property>
  <property name="kdenlive:folderid">155</property>
  <property name="kdenlive:id">160</property>
  <property name="kdenlive:file_size">42331154</property>
  <property name="kdenlive:file_hash">61dd41c9c23377f3855fc73823ec40a1</property>
  <property name="kdenlive:audio_max0">144</property>
 </producer>
 <producer id="producer123" in="00:00:00.000" out="00:02:47.183">
  <property name="length">10032</property>
  <property name="eof">pause</property>
  <property name="resource">audio/music/Nursery/A Little Powder */stems/05_A Little Powder_Tongue Drum.wav</property>
  <property name="meta.media.nb_streams">1</property>
  <property name="meta.media.0.stream.type">audio</property>
  <property name="meta.media.0.codec.sample_fmt">s32</property>
  <property name="meta.media.0.codec.sample_rate">44100</property>
  <property name="meta.media.0.codec.channels">2</property>
  <property name="meta.media.0.codec.name">pcm_s24le</property>
  <property name="meta.media.0.codec.long_name">PCM signed 24-bit little-endian</property>
  <property name="meta.media.0.codec.bit_rate">2116800</property>
  <property name="meta.attr.encoded_by.markup">Logic Pro X</property>
  <property name="meta.attr.date.markup">2018-02-12</property>
  <property name="meta.attr.creation_time.markup">14:21:01</property>
  <property name="meta.attr.time_reference.markup">159189498</property>
  <property name="meta.attr.umid.markup">0x00000000000000000000000000000000000000000000000000000000B200403FF3E80FCA40B7E1E5FE7F000050964C0B0100000080B7E1E5FE7F00003D86F66C</property>
  <property name="seekable">1</property>
  <property name="audio_index">0</property>
  <property name="video_index">-1</property>
  <property name="mute_on_pause">1</property>
  <property name="mlt_service">avformat</property>
  <property name="kdenlive:clipname"/>
  <property name="kdenlive:clip_type">1</property>
  <property name="kdenlive:folderid">155</property>
  <property name="kdenlive:id">161</property>
  <property name="kdenlive:file_size">44299794</property>
  <property name="kdenlive:file_hash">aec76ab29bb8c6be6f1137782b81215f</property>
  <property name="kdenlive:audio_max0">164</property>
 </producer>
 <producer id="producer124" in="00:00:00.000" out="00:02:33.067">
  <property name="length">9185</property>
  <property name="eof">pause</property>
  <property name="resource">audio/music/Nursery/A Little Powder */stems/06_A Little Powder_Rhodia SynPad.wav</property>
  <property name="meta.media.nb_streams">1</property>
  <property name="meta.media.0.stream.type">audio</property>
  <property name="meta.media.0.codec.sample_fmt">s32</property>
  <property name="meta.media.0.codec.sample_rate">44100</property>
  <property name="meta.media.0.codec.channels">2</property>
  <property name="meta.media.0.codec.name">pcm_s24le</property>
  <property name="meta.media.0.codec.long_name">PCM signed 24-bit little-endian</property>
  <property name="meta.media.0.codec.bit_rate">2116800</property>
  <property name="meta.attr.encoded_by.markup">Logic Pro X</property>
  <property name="meta.attr.date.markup">2018-02-12</property>
  <property name="meta.attr.creation_time.markup">14:21:04</property>
  <property name="meta.attr.time_reference.markup">159189498</property>
  <property name="meta.attr.umid.markup">0x00000000000000000000000000000000000000000000000000000000B200403FF3E80FCA40B7E1E5FE7F000050964C0B0100000080B7E1E5FE7F00003D86F66C</property>
  <property name="seekable">1</property>
  <property name="audio_index">0</property>
  <property name="video_index">-1</property>
  <property name="mute_on_pause">1</property>
  <property name="mlt_service">avformat</property>
  <property name="kdenlive:clipname"/>
  <property name="kdenlive:clip_type">1</property>
  <property name="kdenlive:folderid">155</property>
  <property name="kdenlive:id">163</property>
  <property name="kdenlive:file_size">40559378</property>
  <property name="kdenlive:file_hash">1e1be6b9d719d686da02a7081d0c2e25</property>
  <property name="kdenlive:audio_max0">84</property>
 </producer>
 <producer id="producer125" in="00:00:00.000" out="00:00:56.450">
  <property name="length">3388</property>
  <property name="eof">pause</property>
  <property name="resource">audio/music/Nursery/A Little Powder */variations/A Little Powder | 1 Min Piano.wav</property>
  <property name="meta.media.nb_streams">1</property>
  <property name="meta.media.0.stream.type">audio</property>
  <property name="meta.media.0.codec.sample_fmt">s32</property>
  <property name="meta.media.0.codec.sample_rate">44100</property>
  <property name="meta.media.0.codec.channels">2</property>
  <property name="meta.media.0.codec.name">pcm_s24le</property>
  <property name="meta.media.0.codec.long_name">PCM signed 24-bit little-endian</property>
  <property name="meta.media.0.codec.bit_rate">2116800</property>
  <property name="meta.attr.encoded_by.markup">Logic Pro X</property>
  <property name="meta.attr.date.markup">2018-02-12</property>
  <property name="meta.attr.creation_time.markup">14:24:53</property>
  <property name="meta.attr.time_reference.markup">164406927</property>
  <property name="meta.attr.umid.markup">0x00000000000000000000000000000000000000000000000000000000B200403FF3E80FCAD081E1E5FE7F000050964C0B010000001082E1E5FE7F00003D86F66C</property>
  <property name="seekable">1</property>
  <property name="audio_index">0</property>
  <property name="video_index">-1</property>
  <property name="mute_on_pause">1</property>
  <property name="mlt_service">avformat</property>
  <property name="kdenlive:clipname"/>
  <property name="kdenlive:clip_type">1</property>
  <property name="kdenlive:folderid">162</property>
  <property name="kdenlive:id">164</property>
  <property name="kdenlive:file_size">14944446</property>
  <property name="kdenlive:file_hash">829aabbdb03aa3b934f9b7f2b807fa34</property>
  <property name="kdenlive:audio_max0">223</property>
 </producer>
 <producer id="producer126" in="00:00:00.000" out="00:00:56.450">
  <property name="length">3388</property>
  <property name="eof">pause</property>
  <property name="resource">audio/music/Nursery/A Little Powder */variations/A Little Powder | 1 Min.wav</property>
  <property name="meta.media.nb_streams">1</property>
  <property name="meta.media.0.stream.type">audio</property>
  <property name="meta.media.0.codec.sample_fmt">s32</property>
  <property name="meta.media.0.codec.sample_rate">44100</property>
  <property name="meta.media.0.codec.channels">2</property>
  <property name="meta.media.0.codec.name">pcm_s24le</property>
  <property name="meta.media.0.codec.long_name">PCM signed 24-bit little-endian</property>
  <property name="meta.media.0.codec.bit_rate">2116800</property>
  <property name="meta.attr.encoded_by.markup">Logic Pro X</property>
  <property name="meta.attr.date.markup">2018-02-12</property>
  <property name="meta.attr.creation_time.markup">14:23:57</property>
  <property name="meta.attr.time_reference.markup">164406927</property>
  <property name="meta.attr.umid.markup">0x00000000000000000000000000000000000000000000000000000000B200403FF3E80FCAD081E1E5FE7F000050964C0B010000001082E1E5FE7F00003D86F66C</property>
  <property name="seekable">1</property>
  <property name="audio_index">0</property>
  <property name="video_index">-1</property>
  <property name="mute_on_pause">1</property>
  <property name="mlt_service">avformat</property>
  <property name="kdenlive:clipname"/>
  <property name="kdenlive:clip_type">1</property>
  <property name="kdenlive:folderid">162</property>
  <property name="kdenlive:id">165</property>
  <property name="kdenlive:file_size">14944446</property>
  <property name="kdenlive:file_hash">b47d1a0417d10997f457d6a9005fcab5</property>
  <property name="kdenlive:audio_max0">228</property>
 </producer>
 <producer id="producer127" in="00:00:00.000" out="00:00:31.350">
  <property name="length">1882</property>
  <property name="eof">pause</property>
  <property name="resource">audio/music/Nursery/A Little Powder */variations/A Little Powder | 30 Sec.wav</property>
  <property name="meta.media.nb_streams">1</property>
  <property name="meta.media.0.stream.type">audio</property>
  <property name="meta.media.0.codec.sample_fmt">s32</property>
  <property name="meta.media.0.codec.sample_rate">44100</property>
  <property name="meta.media.0.codec.channels">2</property>
  <property name="meta.media.0.codec.name">pcm_s24le</property>
  <property name="meta.media.0.codec.long_name">PCM signed 24-bit little-endian</property>
  <property name="meta.media.0.codec.bit_rate">2116800</property>
  <property name="meta.attr.encoded_by.markup">Logic Pro X</property>
  <property name="meta.attr.date.markup">2018-02-12</property>
  <property name="meta.attr.creation_time.markup">14:26:33</property>
  <property name="meta.attr.time_reference.markup">165282419</property>
  <property name="meta.attr.umid.markup">0x00000000000000000000000000000000000000000000000000000000B200403FF3E80FCAD081E1E5FE7F000050964C0B010000001082E1E5FE7F00003D86F66C</property>
  <property name="seekable">1</property>
  <property name="audio_index">0</property>
  <property name="video_index">-1</property>
  <property name="mute_on_pause">1</property>
  <property name="mlt_service">avformat</property>
  <property name="kdenlive:clipname"/>
  <property name="kdenlive:clip_type">1</property>
  <property name="kdenlive:folderid">162</property>
  <property name="kdenlive:id">166</property>
  <property name="kdenlive:file_size">8299862</property>
  <property name="kdenlive:file_hash">e0e7c8cc8f817119cc24e725cd619ea2</property>
  <property name="kdenlive:audio_max0">228</property>
 </producer>
 <producer id="producer128" in="00:00:00.000" out="00:02:25.267">
  <property name="length">8717</property>
  <property name="eof">pause</property>
  <property name="resource">audio/music/Nursery/A Little Powder */variations/A Little Powder | Ostinato Lead.wav</property>
  <property name="meta.media.nb_streams">1</property>
  <property name="meta.media.0.stream.type">audio</property>
  <property name="meta.media.0.codec.sample_fmt">s32</property>
  <property name="meta.media.0.codec.sample_rate">44100</property>
  <property name="meta.media.0.codec.channels">2</property>
  <property name="meta.media.0.codec.name">pcm_s24le</property>
  <property name="meta.media.0.codec.long_name">PCM signed 24-bit little-endian</property>
  <property name="meta.media.0.codec.bit_rate">2116800</property>
  <property name="meta.attr.encoded_by.markup">Logic Pro X</property>
  <property name="meta.attr.date.markup">2018-02-12</property>
  <property name="meta.attr.creation_time.markup">14:27:27</property>
  <property name="meta.attr.time_reference.markup">160490260</property>
  <property name="meta.attr.umid.markup">0x00000000000000000000000000000000000000000000000000000000B200403FF3E80FCAD081E1E5FE7F000050964C0B010000001082E1E5FE7F00003D86F66C</property>
  <property name="seekable">1</property>
  <property name="audio_index">0</property>
  <property name="video_index">-1</property>
  <property name="mute_on_pause">1</property>
  <property name="mlt_service">avformat</property>
  <property name="kdenlive:clipname"/>
  <property name="kdenlive:clip_type">1</property>
  <property name="kdenlive:folderid">162</property>
  <property name="kdenlive:id">167</property>
  <property name="kdenlive:file_size">38444448</property>
  <property name="kdenlive:file_hash">f81ef76f5026a960a222a00d383fe1f4</property>
  <property name="kdenlive:audio_max0">245</property>
 </producer>
 <producer id="producer129" in="00:00:00.000" out="00:01:36.000">
  <property name="length">5761</property>
  <property name="eof">pause</property>
  <property name="resource">audio/music/Nursery/A Little Powder */variations/A Little Powder | Short Piano.wav</property>
  <property name="meta.media.nb_streams">1</property>
  <property name="meta.media.0.stream.type">audio</property>
  <property name="meta.media.0.codec.sample_fmt">s32</property>
  <property name="meta.media.0.codec.sample_rate">44100</property>
  <property name="meta.media.0.codec.channels">2</property>
  <property name="meta.media.0.codec.name">pcm_s24le</property>
  <property name="meta.media.0.codec.long_name">PCM signed 24-bit little-endian</property>
  <property name="meta.media.0.codec.bit_rate">2116800</property>
  <property name="meta.attr.encoded_by.markup">Logic Pro X</property>
  <property name="meta.attr.date.markup">2018-02-12</property>
  <property name="meta.attr.creation_time.markup">14:28:21</property>
  <property name="meta.attr.time_reference.markup">162662843</property>
  <property name="meta.attr.umid.markup">0x00000000000000000000000000000000000000000000000000000000B200403FF3E80FCAD081E1E5FE7F000050964C0B010000001082E1E5FE7F00003D86F66C</property>
  <property name="seekable">1</property>
  <property name="audio_index">0</property>
  <property name="video_index">-1</property>
  <property name="mute_on_pause">1</property>
  <property name="mlt_service">avformat</property>
  <property name="kdenlive:clipname"/>
  <property name="kdenlive:clip_type">1</property>
  <property name="kdenlive:folderid">162</property>
  <property name="kdenlive:id">168</property>
  <property name="kdenlive:file_size">25408950</property>
  <property name="kdenlive:file_hash">c20ffe300dae455648ac97ed959ab093</property>
  <property name="kdenlive:audio_max0">234</property>
 </producer>
 <producer id="producer130" in="00:00:00.000" out="00:00:52.967">
  <property name="length">3179</property>
  <property name="eof">pause</property>
  <property name="resource">audio/music/Nursery/A Little Powder */variations/A Little Powder | Soft Interlude.wav</property>
  <property name="meta.media.nb_streams">1</property>
  <property name="meta.media.0.stream.type">audio</property>
  <property name="meta.media.0.codec.sample_fmt">s32</property>
  <property name="meta.media.0.codec.sample_rate">44100</property>
  <property name="meta.media.0.codec.channels">2</property>
  <property name="meta.media.0.codec.name">pcm_s24le</property>
  <property name="meta.media.0.codec.long_name">PCM signed 24-bit little-endian</property>
  <property name="meta.media.0.codec.bit_rate">2116800</property>
  <property name="meta.attr.encoded_by.markup">Logic Pro X</property>
  <property name="meta.attr.date.markup">2018-02-12</property>
  <property name="meta.attr.creation_time.markup">14:29:58</property>
  <property name="meta.attr.time_reference.markup">164197961</property>
  <property name="meta.attr.umid.markup">0x00000000000000000000000000000000000000000000000000000000B200403FF3E80FCAD081E1E5FE7F000050964C0B010000001082E1E5FE7F00003D86F66C</property>
  <property name="seekable">1</property>
  <property name="audio_index">0</property>
  <property name="video_index">-1</property>
  <property name="mute_on_pause">1</property>
  <property name="mlt_service">avformat</property>
  <property name="kdenlive:clipname"/>
  <property name="kdenlive:clip_type">1</property>
  <property name="kdenlive:folderid">162</property>
  <property name="kdenlive:id">169</property>
  <property name="kdenlive:file_size">14023446</property>
  <property name="kdenlive:file_hash">2287010c5cb625493203dd8682aa0096</property>
  <property name="kdenlive:audio_max0">221</property>
 </producer>
 <producer id="producer131" in="00:00:00.000" out="00:00:46.483">
  <property name="length">2790</property>
  <property name="eof">pause</property>
  <property name="resource">audio/music/Nursery/A Little Powder */variations/A Little Powder | The Most Minimal Piano.wav</property>
  <property name="meta.media.nb_streams">1</property>
  <property name="meta.media.0.stream.type">audio</property>
  <property name="meta.media.0.codec.sample_fmt">s32</property>
  <property name="meta.media.0.codec.sample_rate">44100</property>
  <property name="meta.media.0.codec.channels">2</property>
  <property name="meta.media.0.codec.name">pcm_s24le</property>
  <property name="meta.media.0.codec.long_name">PCM signed 24-bit little-endian</property>
  <property name="meta.media.0.codec.bit_rate">2116800</property>
  <property name="meta.attr.encoded_by.markup">Logic Pro X</property>
  <property name="meta.attr.date.markup">2018-02-12</property>
  <property name="meta.attr.creation_time.markup">14:22:12</property>
  <property name="meta.attr.time_reference.markup">159218848</property>
  <property name="meta.attr.umid.markup">0x00000000000000000000000000000000000000000000000000000000B200403FF3E80FCAD081E1E5FE7F000050964C0B010000001082E1E5FE7F00003D86F66C</property>
  <property name="seekable">1</property>
  <property name="audio_index">0</property>
  <property name="video_index">-1</property>
  <property name="mute_on_pause">1</property>
  <property name="mlt_service">avformat</property>
  <property name="kdenlive:clipname"/>
  <property name="kdenlive:clip_type">1</property>
  <property name="kdenlive:folderid">162</property>
  <property name="kdenlive:id">170</property>
  <property name="kdenlive:file_size">12307206</property>
  <property name="kdenlive:file_hash">f7425ea42a86cfce865d13f105d0271c</property>
  <property name="kdenlive:audio_max0">180</property>
 </producer>
 <producer id="producer132" in="00:00:00.000" out="00:00:46.483">
  <property name="length">2790</property>
  <property name="eof">pause</property>
  <property name="resource">audio/music/Nursery/A Little Powder */variations/A Little Powder | The Most Minimal.wav</property>
  <property name="meta.media.nb_streams">1</property>
  <property name="meta.media.0.stream.type">audio</property>
  <property name="meta.media.0.codec.sample_fmt">s32</property>
  <property name="meta.media.0.codec.sample_rate">44100</property>
  <property name="meta.media.0.codec.channels">2</property>
  <property name="meta.media.0.codec.name">pcm_s24le</property>
  <property name="meta.media.0.codec.long_name">PCM signed 24-bit little-endian</property>
  <property name="meta.media.0.codec.bit_rate">2116800</property>
  <property name="meta.attr.encoded_by.markup">Logic Pro X</property>
  <property name="meta.attr.date.markup">2018-02-12</property>
  <property name="meta.attr.creation_time.markup">14:21:54</property>
  <property name="meta.attr.time_reference.markup">159218848</property>
  <property name="meta.attr.umid.markup">0x00000000000000000000000000000000000000000000000000000000B200403FF3E80FCAD081E1E5FE7F000050964C0B010000001082E1E5FE7F00003D86F66C</property>
  <property name="seekable">1</property>
  <property name="audio_index">0</property>
  <property name="video_index">-1</property>
  <property name="mute_on_pause">1</property>
  <property name="mlt_service">avformat</property>
  <property name="kdenlive:clipname"/>
  <property name="kdenlive:clip_type">1</property>
  <property name="kdenlive:folderid">162</property>
  <property name="kdenlive:id">172</property>
  <property name="kdenlive:file_size">12307206</property>
  <property name="kdenlive:file_hash">66d524c8a35f12263cc3bb35e6f54659</property>
  <property name="kdenlive:audio_max0">191</property>
 </producer>
 <producer id="producer133" in="00:00:00.000" out="00:03:46.850">
  <property name="length">13612</property>
  <property name="eof">pause</property>
  <property name="resource">audio/music/Nursery/Blood Petal/Blood Petal.wav</property>
  <property name="meta.media.nb_streams">1</property>
  <property name="meta.media.0.stream.type">audio</property>
  <property name="meta.media.0.codec.sample_fmt">s32</property>
  <property name="meta.media.0.codec.sample_rate">44100</property>
  <property name="meta.media.0.codec.channels">2</property>
  <property name="meta.media.0.codec.name">pcm_s24le</property>
  <property name="meta.media.0.codec.long_name">PCM signed 24-bit little-endian</property>
  <property name="meta.media.0.codec.bit_rate">2116800</property>
  <property name="meta.attr.encoded_by.markup">Logic Pro X</property>
  <property name="meta.attr.date.markup">2016-09-20</property>
  <property name="meta.attr.creation_time.markup">19:16:10</property>
  <property name="meta.attr.time_reference.markup">158760000</property>
  <property name="meta.attr.umid.markup">0x00000000F227204F83D100C330BA3658FF7F0000C0A00208006000000000000000000000463485080100000070301476FF7F000060B23658FF7F00002AB5FC8B</property>
  <property name="seekable">1</property>
  <property name="audio_index">0</property>
  <property name="video_index">-1</property>
  <property name="mute_on_pause">1</property>
  <property name="mlt_service">avformat</property>
  <property name="kdenlive:clipname"/>
  <property name="kdenlive:clip_type">1</property>
  <property name="kdenlive:folderid">171</property>
  <property name="kdenlive:id">174</property>
  <property name="kdenlive:file_size">60032910</property>
  <property name="kdenlive:file_hash">d2eaca5bc792b7e95e559669627b080e</property>
  <property name="kdenlive:audio_max0">251</property>
 </producer>
 <producer id="producer134" in="00:00:00.000" out="00:03:46.850">
  <property name="length">13612</property>
  <property name="eof">pause</property>
  <property name="resource">audio/music/Nursery/Blood Petal/stems/01_Blood Petal_Rhodes.wav</property>
  <property name="meta.media.nb_streams">1</property>
  <property name="meta.media.0.stream.type">audio</property>
  <property name="meta.media.0.codec.sample_fmt">s32</property>
  <property name="meta.media.0.codec.sample_rate">44100</property>
  <property name="meta.media.0.codec.channels">2</property>
  <property name="meta.media.0.codec.name">pcm_s24le</property>
  <property name="meta.media.0.codec.long_name">PCM signed 24-bit little-endian</property>
  <property name="meta.media.0.codec.bit_rate">2116800</property>
  <property name="meta.attr.encoded_by.markup">Logic Pro X</property>
  <property name="meta.attr.date.markup">2016-09-20</property>
  <property name="meta.attr.creation_time.markup">18:08:21</property>
  <property name="meta.attr.time_reference.markup">158760000</property>
  <property name="meta.attr.umid.markup">0x00000000F227204F83D100C330BA3658FF7F000080132208006000000000000000000000463485080100000070301476FF7F000060B23658FF7F00002AB5FC8B</property>
  <property name="seekable">1</property>
  <property name="audio_index">0</property>
  <property name="video_index">-1</property>
  <property name="mute_on_pause">1</property>
  <property name="mlt_service">avformat</property>
  <property name="kdenlive:clipname"/>
  <property name="kdenlive:clip_type">1</property>
  <property name="kdenlive:folderid">173</property>
  <property name="kdenlive:id">175</property>
  <property name="kdenlive:file_size">60031850</property>
  <property name="kdenlive:file_hash">80e519a6699550c7999c810763112418</property>
  <property name="kdenlive:audio_max0">217</property>
 </producer>
 <producer id="producer135" in="00:00:00.000" out="00:03:46.850">
  <property name="length">13612</property>
  <property name="eof">pause</property>
  <property name="resource">audio/music/Nursery/Blood Petal/stems/02_Blood Petal_Electric Guitar.wav</property>
  <property name="meta.media.nb_streams">1</property>
  <property name="meta.media.0.stream.type">audio</property>
  <property name="meta.media.0.codec.sample_fmt">s32</property>
  <property name="meta.media.0.codec.sample_rate">44100</property>
  <property name="meta.media.0.codec.channels">2</property>
  <property name="meta.media.0.codec.name">pcm_s24le</property>
  <property name="meta.media.0.codec.long_name">PCM signed 24-bit little-endian</property>
  <property name="meta.media.0.codec.bit_rate">2116800</property>
  <property name="meta.attr.encoded_by.markup">Logic Pro X</property>
  <property name="meta.attr.date.markup">2016-09-20</property>
  <property name="meta.attr.creation_time.markup">18:07:41</property>
  <property name="meta.attr.time_reference.markup">158760000</property>
  <property name="meta.attr.umid.markup">0x00000000F227204F83D100C330BA3658FF7F0000C0DFC207806100000000000000000000463485080100000070301476FF7F000060B23658FF7F00002AB5FC8B</property>
  <property name="seekable">1</property>
  <property name="audio_index">0</property>
  <property name="video_index">-1</property>
  <property name="mute_on_pause">1</property>
  <property name="mlt_service">avformat</property>
  <property name="kdenlive:clipname"/>
  <property name="kdenlive:clip_type">1</property>
  <property name="kdenlive:folderid">173</property>
  <property name="kdenlive:id">176</property>
  <property name="kdenlive:file_size">60031850</property>
  <property name="kdenlive:file_hash">75bc7aec0113aaafbfbaeb2025a66c8b</property>
  <property name="kdenlive:audio_max0">244</property>
 </producer>
 <producer id="producer136" in="00:00:00.000" out="00:03:46.850">
  <property name="length">13612</property>
  <property name="eof">pause</property>
  <property name="resource">audio/music/Nursery/Blood Petal/stems/03_Blood Petal_Tongue Drum.wav</property>
  <property name="meta.media.nb_streams">1</property>
  <property name="meta.media.0.stream.type">audio</property>
  <property name="meta.media.0.codec.sample_fmt">s32</property>
  <property name="meta.media.0.codec.sample_rate">44100</property>
  <property name="meta.media.0.codec.channels">2</property>
  <property name="meta.media.0.codec.name">pcm_s24le</property>
  <property name="meta.media.0.codec.long_name">PCM signed 24-bit little-endian</property>
  <property name="meta.media.0.codec.bit_rate">2116800</property>
  <property name="meta.attr.encoded_by.markup">Logic Pro X</property>
  <property name="meta.attr.date.markup">2016-09-20</property>
  <property name="meta.attr.creation_time.markup">18:07:03</property>
  <property name="meta.attr.time_reference.markup">158760000</property>
  <property name="meta.attr.umid.markup">0x00000000F227204F83D100C330BA3658FF7F0000E0C1C309006000000000000000000000463485080100000070301476FF7F000060B23658FF7F00002AB5FC8B</property>
  <property name="seekable">1</property>
  <property name="audio_index">0</property>
  <property name="video_index">-1</property>
  <property name="mute_on_pause">1</property>
  <property name="mlt_service">avformat</property>
  <property name="kdenlive:clipname"/>
  <property name="kdenlive:clip_type">1</property>
  <property name="kdenlive:folderid">173</property>
  <property name="kdenlive:id">177</property>
  <property name="kdenlive:file_size">60031850</property>
  <property name="kdenlive:file_hash">63ecdf046ecacb266442bde6c458a917</property>
  <property name="kdenlive:audio_max0">216</property>
 </producer>
 <producer id="producer137" in="00:00:00.000" out="00:03:46.850">
  <property name="length">13612</property>
  <property name="eof">pause</property>
  <property name="resource">audio/music/Nursery/Blood Petal/stems/04_Blood Petal_Found Percussion.wav</property>
  <property name="meta.media.nb_streams">1</property>
  <property name="meta.media.0.stream.type">audio</property>
  <property name="meta.media.0.codec.sample_fmt">s32</property>
  <property name="meta.media.0.codec.sample_rate">44100</property>
  <property name="meta.media.0.codec.channels">2</property>
  <property name="meta.media.0.codec.name">pcm_s24le</property>
  <property name="meta.media.0.codec.long_name">PCM signed 24-bit little-endian</property>
  <property name="meta.media.0.codec.bit_rate">2116800</property>
  <property name="meta.attr.encoded_by.markup">Logic Pro X</property>
  <property name="meta.attr.date.markup">2016-09-20</property>
  <property name="meta.attr.creation_time.markup">18:06:26</property>
  <property name="meta.attr.time_reference.markup">158760000</property>
  <property name="meta.attr.umid.markup">0x00000000F227204F83D100C330BA3658FF7F000040E2A200006000000000000000000000463485080100000070301476FF7F000060B23658FF7F00002AB5FC8B</property>
  <property name="seekable">1</property>
  <property name="audio_index">0</property>
  <property name="video_index">-1</property>
  <property name="mute_on_pause">1</property>
  <property name="mlt_service">avformat</property>
  <property name="kdenlive:clipname"/>
  <property name="kdenlive:clip_type">1</property>
  <property name="kdenlive:folderid">173</property>
  <property name="kdenlive:id">178</property>
  <property name="kdenlive:file_size">60031850</property>
  <property name="kdenlive:file_hash">be86004915dff9281c8367c89e5eae4f</property>
  <property name="kdenlive:audio_max0">232</property>
 </producer>
 <producer id="producer138" in="00:00:00.000" out="00:03:46.850">
  <property name="length">13612</property>
  <property name="eof">pause</property>
  <property name="resource">audio/music/Nursery/Blood Petal/stems/05_Blood Petal_Rhodia SynPad.wav</property>
  <property name="meta.media.nb_streams">1</property>
  <property name="meta.media.0.stream.type">audio</property>
  <property name="meta.media.0.codec.sample_fmt">s32</property>
  <property name="meta.media.0.codec.sample_rate">44100</property>
  <property name="meta.media.0.codec.channels">2</property>
  <property name="meta.media.0.codec.name">pcm_s24le</property>
  <property name="meta.media.0.codec.long_name">PCM signed 24-bit little-endian</property>
  <property name="meta.media.0.codec.bit_rate">2116800</property>
  <property name="meta.attr.encoded_by.markup">Logic Pro X</property>
  <property name="meta.attr.date.markup">2016-09-20</property>
  <property name="meta.attr.creation_time.markup">18:05:54</property>
  <property name="meta.attr.time_reference.markup">158760000</property>
  <property name="meta.attr.umid.markup">0x00000000F227204F83D100C330BA3658FF7F0000605EE209006000000000000000000000463485080100000070301476FF7F000060B23658FF7F00002AB5FC8B</property>
  <property name="seekable">1</property>
  <property name="audio_index">0</property>
  <property name="video_index">-1</property>
  <property name="mute_on_pause">1</property>
  <property name="mlt_service">avformat</property>
  <property name="kdenlive:clipname"/>
  <property name="kdenlive:clip_type">1</property>
  <property name="kdenlive:folderid">173</property>
  <property name="kdenlive:id">180</property>
  <property name="kdenlive:file_size">60031850</property>
  <property name="kdenlive:file_hash">c769fe73be2b0bfcb8d92d2c479aa2e9</property>
  <property name="kdenlive:audio_max0">142</property>
 </producer>
 <producer id="producer139" in="00:00:00.000" out="00:02:55.883">
  <property name="length">10554</property>
  <property name="eof">pause</property>
  <property name="resource">audio/music/Nursery/Brass Buttons/Brass Buttons.wav</property>
  <property name="meta.media.nb_streams">1</property>
  <property name="meta.media.0.stream.type">audio</property>
  <property name="meta.media.0.codec.sample_fmt">s32</property>
  <property name="meta.media.0.codec.sample_rate">44100</property>
  <property name="meta.media.0.codec.channels">2</property>
  <property name="meta.media.0.codec.name">pcm_s24le</property>
  <property name="meta.media.0.codec.long_name">PCM signed 24-bit little-endian</property>
  <property name="meta.media.0.codec.bit_rate">2116800</property>
  <property name="meta.attr.encoded_by.markup">Logic Pro X</property>
  <property name="meta.attr.date.markup">2016-10-15</property>
  <property name="meta.attr.creation_time.markup">12:50:24</property>
  <property name="meta.attr.time_reference.markup">158760000</property>
  <property name="meta.attr.umid.markup">0x00000000D6A9DD3E92780051303A6853FF7F0000001D830500600000000000000000000046B4530D0100000070C0CE7BFF7F000060326853FF7F00002A45B791</property>
  <property name="seekable">1</property>
  <property name="audio_index">0</property>
  <property name="video_index">-1</property>
  <property name="mute_on_pause">1</property>
  <property name="mlt_service">avformat</property>
  <property name="kdenlive:clipname"/>
  <property name="kdenlive:clip_type">1</property>
  <property name="kdenlive:folderid">179</property>
  <property name="kdenlive:id">182</property>
  <property name="kdenlive:file_size">46545092</property>
  <property name="kdenlive:file_hash">5bf7ffc06b6fe430c4e5fd0117307a53</property>
  <property name="kdenlive:audio_max0">249</property>
 </producer>
 <producer id="producer140" in="00:00:00.000" out="00:02:55.883">
  <property name="length">10554</property>
  <property name="eof">pause</property>
  <property name="resource">audio/music/Nursery/Brass Buttons/stems/01_Brass Buttons_Rhodes.wav</property>
  <property name="meta.media.nb_streams">1</property>
  <property name="meta.media.0.stream.type">audio</property>
  <property name="meta.media.0.codec.sample_fmt">s32</property>
  <property name="meta.media.0.codec.sample_rate">44100</property>
  <property name="meta.media.0.codec.channels">2</property>
  <property name="meta.media.0.codec.name">pcm_s24le</property>
  <property name="meta.media.0.codec.long_name">PCM signed 24-bit little-endian</property>
  <property name="meta.media.0.codec.bit_rate">2116800</property>
  <property name="meta.attr.encoded_by.markup">Logic Pro X</property>
  <property name="meta.attr.date.markup">2016-10-15</property>
  <property name="meta.attr.creation_time.markup">12:53:30</property>
  <property name="meta.attr.time_reference.markup">158760000</property>
  <property name="meta.attr.umid.markup">0x00000000D6A9DD3E92780051303A6853FF7F0000A052420080610000000000000000000046B4530D0100000070C0CE7BFF7F000060326853FF7F00002A45B791</property>
  <property name="seekable">1</property>
  <property name="audio_index">0</property>
  <property name="video_index">-1</property>
  <property name="mute_on_pause">1</property>
  <property name="mlt_service">avformat</property>
  <property name="kdenlive:clipname"/>
  <property name="kdenlive:clip_type">1</property>
  <property name="kdenlive:folderid">181</property>
  <property name="kdenlive:id">183</property>
  <property name="kdenlive:file_size">46544032</property>
  <property name="kdenlive:file_hash">7227d395b0f88f629cbc82a3affe72ac</property>
  <property name="kdenlive:audio_max0">182</property>
 </producer>
 <producer id="producer141" in="00:00:00.000" out="00:02:55.883">
  <property name="length">10554</property>
  <property name="eof">pause</property>
  <property name="resource">audio/music/Nursery/Brass Buttons/stems/02_Brass Buttons_Piano.wav</property>
  <property name="meta.media.nb_streams">1</property>
  <property name="meta.media.0.stream.type">audio</property>
  <property name="meta.media.0.codec.sample_fmt">s32</property>
  <property name="meta.media.0.codec.sample_rate">44100</property>
  <property name="meta.media.0.codec.channels">2</property>
  <property name="meta.media.0.codec.name">pcm_s24le</property>
  <property name="meta.media.0.codec.long_name">PCM signed 24-bit little-endian</property>
  <property name="meta.media.0.codec.bit_rate">2116800</property>
  <property name="meta.attr.encoded_by.markup">Logic Pro X</property>
  <property name="meta.attr.date.markup">2016-10-15</property>
  <property name="meta.attr.creation_time.markup">12:52:56</property>
  <property name="meta.attr.time_reference.markup">158760000</property>
  <property name="meta.attr.umid.markup">0x00000000D6A9DD3E92780051303A6853FF7F00006091E20B00610000000000000000000046B4530D0100000070C0CE7BFF7F000060326853FF7F00002A45B791</property>
  <property name="seekable">1</property>
  <property name="audio_index">0</property>
  <property name="video_index">-1</property>
  <property name="mute_on_pause">1</property>
  <property name="mlt_service">avformat</property>
  <property name="kdenlive:clipname"/>
  <property name="kdenlive:clip_type">1</property>
  <property name="kdenlive:folderid">181</property>
  <property name="kdenlive:id">184</property>
  <property name="kdenlive:file_size">46544032</property>
  <property name="kdenlive:file_hash">51b876541bb28d4c65b393f5e4b6e0c1</property>
  <property name="kdenlive:audio_max0">211</property>
 </producer>
 <producer id="producer142" in="00:00:00.000" out="00:02:55.883">
  <property name="length">10554</property>
  <property name="eof">pause</property>
  <property name="resource">audio/music/Nursery/Brass Buttons/stems/03_Brass Buttons_Tongue Drum.wav</property>
  <property name="meta.media.nb_streams">1</property>
  <property name="meta.media.0.stream.type">audio</property>
  <property name="meta.media.0.codec.sample_fmt">s32</property>
  <property name="meta.media.0.codec.sample_rate">44100</property>
  <property name="meta.media.0.codec.channels">2</property>
  <property name="meta.media.0.codec.name">pcm_s24le</property>
  <property name="meta.media.0.codec.long_name">PCM signed 24-bit little-endian</property>
  <property name="meta.media.0.codec.bit_rate">2116800</property>
  <property name="meta.attr.encoded_by.markup">Logic Pro X</property>
  <property name="meta.attr.date.markup">2016-10-15</property>
  <property name="meta.attr.creation_time.markup">12:52:22</property>
  <property name="meta.attr.time_reference.markup">158760000</property>
  <property name="meta.attr.umid.markup">0x00000000D6A9DD3E92780051303A6853FF7F00008068420500600000000000000000000046B4530D0100000070C0CE7BFF7F000060326853FF7F00002A45B791</property>
  <property name="seekable">1</property>
  <property name="audio_index">0</property>
  <property name="video_index">-1</property>
  <property name="mute_on_pause">1</property>
  <property name="mlt_service">avformat</property>
  <property name="kdenlive:clipname"/>
  <property name="kdenlive:clip_type">1</property>
  <property name="kdenlive:folderid">181</property>
  <property name="kdenlive:id">185</property>
  <property name="kdenlive:file_size">46544032</property>
  <property name="kdenlive:file_hash">935414fe998ce895867382b28ffb0024</property>
  <property name="kdenlive:audio_max0">192</property>
 </producer>
 <producer id="producer143" in="00:00:00.000" out="00:02:55.883">
  <property name="length">10554</property>
  <property name="eof">pause</property>
  <property name="resource">audio/music/Nursery/Brass Buttons/stems/04_Brass Buttons_Percussion.wav</property>
  <property name="meta.media.nb_streams">1</property>
  <property name="meta.media.0.stream.type">audio</property>
  <property name="meta.media.0.codec.sample_fmt">s32</property>
  <property name="meta.media.0.codec.sample_rate">44100</property>
  <property name="meta.media.0.codec.channels">2</property>
  <property name="meta.media.0.codec.name">pcm_s24le</property>
  <property name="meta.media.0.codec.long_name">PCM signed 24-bit little-endian</property>
  <property name="meta.media.0.codec.bit_rate">2116800</property>
  <property name="meta.attr.encoded_by.markup">Logic Pro X</property>
  <property name="meta.attr.date.markup">2016-10-15</property>
  <property name="meta.attr.creation_time.markup">12:51:45</property>
  <property name="meta.attr.time_reference.markup">158760000</property>
  <property name="meta.attr.umid.markup">0x00000000D6A9DD3E92780051303A6853FF7F0000C000620500600000000000000000000046B4530D0100000070C0CE7BFF7F000060326853FF7F00002A45B791</property>
  <property name="seekable">1</property>
  <property name="audio_index">0</property>
  <property name="video_index">-1</property>
  <property name="mute_on_pause">1</property>
  <property name="mlt_service">avformat</property>
  <property name="kdenlive:clipname"/>
  <property name="kdenlive:clip_type">1</property>
  <property name="kdenlive:folderid">181</property>
  <property name="kdenlive:id">186</property>
  <property name="kdenlive:file_size">46544032</property>
  <property name="kdenlive:file_hash">afd19eeae5c15cd6b010740c58ccfb18</property>
  <property name="kdenlive:audio_max0">216</property>
 </producer>
 <producer id="producer144" in="00:00:00.000" out="00:02:55.883">
  <property name="length">10554</property>
  <property name="eof">pause</property>
  <property name="resource">audio/music/Nursery/Brass Buttons/stems/05_Brass Buttons_Skrea SynPad.wav</property>
  <property name="meta.media.nb_streams">1</property>
  <property name="meta.media.0.stream.type">audio</property>
  <property name="meta.media.0.codec.sample_fmt">s32</property>
  <property name="meta.media.0.codec.sample_rate">44100</property>
  <property name="meta.media.0.codec.channels">2</property>
  <property name="meta.media.0.codec.name">pcm_s24le</property>
  <property name="meta.media.0.codec.long_name">PCM signed 24-bit little-endian</property>
  <property name="meta.media.0.codec.bit_rate">2116800</property>
  <property name="meta.attr.encoded_by.markup">Logic Pro X</property>
  <property name="meta.attr.date.markup">2016-10-15</property>
  <property name="meta.attr.creation_time.markup">12:51:12</property>
  <property name="meta.attr.time_reference.markup">158760000</property>
  <property name="meta.attr.umid.markup">0x00000000D6A9DD3E92780051303A6853FF7F000040B4430500600000000000000000000046B4530D0100000070C0CE7BFF7F000060326853FF7F00002A45B791</property>
  <property name="seekable">1</property>
  <property name="audio_index">0</property>
  <property name="video_index">-1</property>
  <property name="mute_on_pause">1</property>
  <property name="mlt_service">avformat</property>
  <property name="kdenlive:clipname"/>
  <property name="kdenlive:clip_type">1</property>
  <property name="kdenlive:folderid">181</property>
  <property name="kdenlive:id">188</property>
  <property name="kdenlive:file_size">46544032</property>
  <property name="kdenlive:file_hash">7664475f78a7573951b40b52fdfb0d7c</property>
  <property name="kdenlive:audio_max0">149</property>
 </producer>
 <producer id="producer145" in="00:00:00.000" out="00:03:56.233">
  <property name="length">14175</property>
  <property name="eof">pause</property>
  <property name="resource">audio/music/Nursery/Corner Aisle/Corner Aisle.wav</property>
  <property name="meta.media.nb_streams">1</property>
  <property name="meta.media.0.stream.type">audio</property>
  <property name="meta.media.0.codec.sample_fmt">s32</property>
  <property name="meta.media.0.codec.sample_rate">44100</property>
  <property name="meta.media.0.codec.channels">2</property>
  <property name="meta.media.0.codec.name">pcm_s24le</property>
  <property name="meta.media.0.codec.long_name">PCM signed 24-bit little-endian</property>
  <property name="meta.media.0.codec.bit_rate">2116800</property>
  <property name="meta.attr.encoded_by.markup">Logic Pro X</property>
  <property name="meta.attr.date.markup">2016-09-20</property>
  <property name="meta.attr.creation_time.markup">18:35:17</property>
  <property name="meta.attr.time_reference.markup">158760000</property>
  <property name="meta.attr.umid.markup">0x00000000F227204F83D100C330BA3658FF7F0000E050A304006000000000000000000000463485080100000070301476FF7F000060B23658FF7F00002AB5FC8B</property>
  <property name="seekable">1</property>
  <property name="audio_index">0</property>
  <property name="video_index">-1</property>
  <property name="mute_on_pause">1</property>
  <property name="mlt_service">avformat</property>
  <property name="kdenlive:clipname"/>
  <property name="kdenlive:clip_type">1</property>
  <property name="kdenlive:folderid">187</property>
  <property name="kdenlive:id">190</property>
  <property name="kdenlive:file_size">62513538</property>
  <property name="kdenlive:file_hash">4c99d5c963f063a3df928674e6c9f47f</property>
  <property name="kdenlive:audio_max0">250</property>
 </producer>
 <producer id="producer146" in="00:00:00.000" out="00:03:56.233">
  <property name="length">14175</property>
  <property name="eof">pause</property>
  <property name="resource">audio/music/Nursery/Corner Aisle/stems/01_Corner Aisle_Rhodes.wav</property>
  <property name="meta.media.nb_streams">1</property>
  <property name="meta.media.0.stream.type">audio</property>
  <property name="meta.media.0.codec.sample_fmt">s32</property>
  <property name="meta.media.0.codec.sample_rate">44100</property>
  <property name="meta.media.0.codec.channels">2</property>
  <property name="meta.media.0.codec.name">pcm_s24le</property>
  <property name="meta.media.0.codec.long_name">PCM signed 24-bit little-endian</property>
  <property name="meta.media.0.codec.bit_rate">2116800</property>
  <property name="meta.attr.encoded_by.markup">Logic Pro X</property>
  <property name="meta.attr.date.markup">2016-09-20</property>
  <property name="meta.attr.creation_time.markup">18:38:05</property>
  <property name="meta.attr.time_reference.markup">158760000</property>
  <property name="meta.attr.umid.markup">0x00000000F227204F83D100C330BA3658FF7F000000BC6305006000000000000000000000463485080100000070301476FF7F000060B23658FF7F00002AB5FC8B</property>
  <property name="seekable">1</property>
  <property name="audio_index">0</property>
  <property name="video_index">-1</property>
  <property name="mute_on_pause">1</property>
  <property name="mlt_service">avformat</property>
  <property name="kdenlive:clipname"/>
  <property name="kdenlive:clip_type">1</property>
  <property name="kdenlive:folderid">189</property>
  <property name="kdenlive:id">191</property>
  <property name="kdenlive:file_size">62512478</property>
  <property name="kdenlive:file_hash">ce1767cb96ef824acad582fab70d74d7</property>
  <property name="kdenlive:audio_max0">224</property>
 </producer>
 <producer id="producer147" in="00:00:00.000" out="00:03:56.233">
  <property name="length">14175</property>
  <property name="eof">pause</property>
  <property name="resource">audio/music/Nursery/Corner Aisle/stems/02_Corner Aisle_Electric Guitar.wav</property>
  <property name="meta.media.nb_streams">1</property>
  <property name="meta.media.0.stream.type">audio</property>
  <property name="meta.media.0.codec.sample_fmt">s32</property>
  <property name="meta.media.0.codec.sample_rate">44100</property>
  <property name="meta.media.0.codec.channels">2</property>
  <property name="meta.media.0.codec.name">pcm_s24le</property>
  <property name="meta.media.0.codec.long_name">PCM signed 24-bit little-endian</property>
  <property name="meta.media.0.codec.bit_rate">2116800</property>
  <property name="meta.attr.encoded_by.markup">Logic Pro X</property>
  <property name="meta.attr.date.markup">2016-09-20</property>
  <property name="meta.attr.creation_time.markup">18:37:30</property>
  <property name="meta.attr.time_reference.markup">158760000</property>
  <property name="meta.attr.umid.markup">0x00000000F227204F83D100C330BA3658FF7F000040966305006000000000000000000000463485080100000070301476FF7F000060B23658FF7F00002AB5FC8B</property>
  <property name="seekable">1</property>
  <property name="audio_index">0</property>
  <property name="video_index">-1</property>
  <property name="mute_on_pause">1</property>
  <property name="mlt_service">avformat</property>
  <property name="kdenlive:clipname"/>
  <property name="kdenlive:clip_type">1</property>
  <property name="kdenlive:folderid">189</property>
  <property name="kdenlive:id">192</property>
  <property name="kdenlive:file_size">62512478</property>
  <property name="kdenlive:file_hash">36cee8dfe94da9670d7d43468207273b</property>
  <property name="kdenlive:audio_max0">248</property>
 </producer>
 <producer id="producer148" in="00:00:00.000" out="00:03:56.233">
  <property name="length">14175</property>
  <property name="eof">pause</property>
  <property name="resource">audio/music/Nursery/Corner Aisle/stems/03_Corner Aisle_Tongue Drum.wav</property>
  <property name="meta.media.nb_streams">1</property>
  <property name="meta.media.0.stream.type">audio</property>
  <property name="meta.media.0.codec.sample_fmt">s32</property>
  <property name="meta.media.0.codec.sample_rate">44100</property>
  <property name="meta.media.0.codec.channels">2</property>
  <property name="meta.media.0.codec.name">pcm_s24le</property>
  <property name="meta.media.0.codec.long_name">PCM signed 24-bit little-endian</property>
  <property name="meta.media.0.codec.bit_rate">2116800</property>
  <property name="meta.attr.encoded_by.markup">Logic Pro X</property>
  <property name="meta.attr.date.markup">2016-09-20</property>
  <property name="meta.attr.creation_time.markup">18:36:54</property>
  <property name="meta.attr.time_reference.markup">158760000</property>
  <property name="meta.attr.umid.markup">0x00000000F227204F83D100C330BA3658FF7F0000C0306305006000000000000000000000463485080100000070301476FF7F000060B23658FF7F00002AB5FC8B</property>
  <property name="seekable">1</property>
  <property name="audio_index">0</property>
  <property name="video_index">-1</property>
  <property name="mute_on_pause">1</property>
  <property name="mlt_service">avformat</property>
  <property name="kdenlive:clipname"/>
  <property name="kdenlive:clip_type">1</property>
  <property name="kdenlive:folderid">189</property>
  <property name="kdenlive:id">193</property>
  <property name="kdenlive:file_size">62512478</property>
  <property name="kdenlive:file_hash">35c2f162d87246907cda5c1d7409bc94</property>
  <property name="kdenlive:audio_max0">219</property>
 </producer>
 <producer id="producer149" in="00:00:00.000" out="00:03:56.233">
  <property name="length">14175</property>
  <property name="eof">pause</property>
  <property name="resource">audio/music/Nursery/Corner Aisle/stems/04_Corner Aisle_Rhodia SynPad.wav</property>
  <property name="meta.media.nb_streams">1</property>
  <property name="meta.media.0.stream.type">audio</property>
  <property name="meta.media.0.codec.sample_fmt">s32</property>
  <property name="meta.media.0.codec.sample_rate">44100</property>
  <property name="meta.media.0.codec.channels">2</property>
  <property name="meta.media.0.codec.name">pcm_s24le</property>
  <property name="meta.media.0.codec.long_name">PCM signed 24-bit little-endian</property>
  <property name="meta.media.0.codec.bit_rate">2116800</property>
  <property name="meta.attr.encoded_by.markup">Logic Pro X</property>
  <property name="meta.attr.date.markup">2016-09-20</property>
  <property name="meta.attr.creation_time.markup">18:36:19</property>
  <property name="meta.attr.time_reference.markup">158760000</property>
  <property name="meta.attr.umid.markup">0x00000000F227204F83D100C330BA3658FF7F0000C0076305006000000000000000000000463485080100000070301476FF7F000060B23658FF7F00002AB5FC8B</property>
  <property name="seekable">1</property>
  <property name="audio_index">0</property>
  <property name="video_index">-1</property>
  <property name="mute_on_pause">1</property>
  <property name="mlt_service">avformat</property>
  <property name="kdenlive:clipname"/>
  <property name="kdenlive:clip_type">1</property>
  <property name="kdenlive:folderid">189</property>
  <property name="kdenlive:id">195</property>
  <property name="kdenlive:file_size">62512478</property>
  <property name="kdenlive:file_hash">57edd9b2a94413b92799c1773f7928e8</property>
  <property name="kdenlive:audio_max0">157</property>
 </producer>
 <producer id="producer150" in="00:00:00.000" out="00:04:02.983">
  <property name="length">14580</property>
  <property name="eof">pause</property>
  <property name="resource">audio/music/Nursery/Cradle Rock/Cradle Rock.wav</property>
  <property name="meta.media.nb_streams">1</property>
  <property name="meta.media.0.stream.type">audio</property>
  <property name="meta.media.0.codec.sample_fmt">s32</property>
  <property name="meta.media.0.codec.sample_rate">44100</property>
  <property name="meta.media.0.codec.channels">2</property>
  <property name="meta.media.0.codec.name">pcm_s24le</property>
  <property name="meta.media.0.codec.long_name">PCM signed 24-bit little-endian</property>
  <property name="meta.media.0.codec.bit_rate">2116800</property>
  <property name="meta.attr.encoded_by.markup">Logic Pro X</property>
  <property name="meta.attr.date.markup">2016-10-15</property>
  <property name="meta.attr.creation_time.markup">15:03:13</property>
  <property name="meta.attr.time_reference.markup">158760000</property>
  <property name="meta.attr.umid.markup">0x00000000D6A9DD3E92780051303A6853FF7F0000E0A6C20B00610000000000000000000046B4530D0100000070C0CE7BFF7F000060326853FF7F00002A45B791</property>
  <property name="seekable">1</property>
  <property name="audio_index">0</property>
  <property name="video_index">-1</property>
  <property name="mute_on_pause">1</property>
  <property name="mlt_service">avformat</property>
  <property name="kdenlive:clipname"/>
  <property name="kdenlive:clip_type">1</property>
  <property name="kdenlive:folderid">194</property>
  <property name="kdenlive:id">197</property>
  <property name="kdenlive:file_size">64306678</property>
  <property name="kdenlive:file_hash">fc7ab7bd933b6ee57266e2a99bbea3e1</property>
  <property name="kdenlive:audio_max0">244</property>
 </producer>
 <producer id="producer151" in="00:00:00.000" out="00:04:02.983">
  <property name="length">14580</property>
  <property name="eof">pause</property>
  <property name="resource">audio/music/Nursery/Cradle Rock/stems/01_Cradle Rock_Rhodes.wav</property>
  <property name="meta.media.nb_streams">1</property>
  <property name="meta.media.0.stream.type">audio</property>
  <property name="meta.media.0.codec.sample_fmt">s32</property>
  <property name="meta.media.0.codec.sample_rate">44100</property>
  <property name="meta.media.0.codec.channels">2</property>
  <property name="meta.media.0.codec.name">pcm_s24le</property>
  <property name="meta.media.0.codec.long_name">PCM signed 24-bit little-endian</property>
  <property name="meta.media.0.codec.bit_rate">2116800</property>
  <property name="meta.attr.encoded_by.markup">Logic Pro X</property>
  <property name="meta.attr.date.markup">2016-10-15</property>
  <property name="meta.attr.creation_time.markup">15:08:51</property>
  <property name="meta.attr.time_reference.markup">158760000</property>
  <property name="meta.attr.umid.markup">0x00000000D6A9DD3E92780051303A6853FF7F0000A061620500600000000000000000000046B4530D0100000070C0CE7BFF7F000060326853FF7F00002A45B791</property>
  <property name="seekable">1</property>
  <property name="audio_index">0</property>
  <property name="video_index">-1</property>
  <property name="mute_on_pause">1</property>
  <property name="mlt_service">avformat</property>
  <property name="kdenlive:clipname"/>
  <property name="kdenlive:clip_type">1</property>
  <property name="kdenlive:folderid">196</property>
  <property name="kdenlive:id">198</property>
  <property name="kdenlive:file_size">64305618</property>
  <property name="kdenlive:file_hash">35569c3916ab00b2e727e78dd5a9143a</property>
  <property name="kdenlive:audio_max0">187</property>
 </producer>
 <producer id="producer152" in="00:00:00.000" out="00:04:02.983">
  <property name="length">14580</property>
  <property name="eof">pause</property>
  <property name="resource">audio/music/Nursery/Cradle Rock/stems/02_Cradle Rock_Piano.wav</property>
  <property name="meta.media.nb_streams">1</property>
  <property name="meta.media.0.stream.type">audio</property>
  <property name="meta.media.0.codec.sample_fmt">s32</property>
  <property name="meta.media.0.codec.sample_rate">44100</property>
  <property name="meta.media.0.codec.channels">2</property>
  <property name="meta.media.0.codec.name">pcm_s24le</property>
  <property name="meta.media.0.codec.long_name">PCM signed 24-bit little-endian</property>
  <property name="meta.media.0.codec.bit_rate">2116800</property>
  <property name="meta.attr.encoded_by.markup">Logic Pro X</property>
  <property name="meta.attr.date.markup">2016-10-15</property>
  <property name="meta.attr.creation_time.markup">15:08:21</property>
  <property name="meta.attr.time_reference.markup">158760000</property>
  <property name="meta.attr.umid.markup">0x00000000D6A9DD3E92780051303A6853FF7F0000C0EFA30500600000000000000000000046B4530D0100000070C0CE7BFF7F000060326853FF7F00002A45B791</property>
  <property name="seekable">1</property>
  <property name="audio_index">0</property>
  <property name="video_index">-1</property>
  <property name="mute_on_pause">1</property>
  <property name="mlt_service">avformat</property>
  <property name="kdenlive:clipname"/>
  <property name="kdenlive:clip_type">1</property>
  <property name="kdenlive:folderid">196</property>
  <property name="kdenlive:id">199</property>
  <property name="kdenlive:file_size">64305618</property>
  <property name="kdenlive:file_hash">af9ee8bbf9bfe3b5ff6573b588e5a307</property>
  <property name="kdenlive:audio_max0">206</property>
 </producer>
 <producer id="producer153" in="00:00:00.000" out="00:04:02.983">
  <property name="length">14580</property>
  <property name="eof">pause</property>
  <property name="resource">audio/music/Nursery/Cradle Rock/stems/03_Cradle Rock_Tongue Drum.wav</property>
  <property name="meta.media.nb_streams">1</property>
  <property name="meta.media.0.stream.type">audio</property>
  <property name="meta.media.0.codec.sample_fmt">s32</property>
  <property name="meta.media.0.codec.sample_rate">44100</property>
  <property name="meta.media.0.codec.channels">2</property>
  <property name="meta.media.0.codec.name">pcm_s24le</property>
  <property name="meta.media.0.codec.long_name">PCM signed 24-bit little-endian</property>
  <property name="meta.media.0.codec.bit_rate">2116800</property>
  <property name="meta.attr.encoded_by.markup">Logic Pro X</property>
  <property name="meta.attr.date.markup">2016-10-15</property>
  <property name="meta.attr.creation_time.markup">15:07:36</property>
  <property name="meta.attr.time_reference.markup">158760000</property>
  <property name="meta.attr.umid.markup">0x00000000D6A9DD3E92780051303A6853FF7F0000802D230500600000000000000000000046B4530D0100000070C0CE7BFF7F000060326853FF7F00002A45B791</property>
  <property name="seekable">1</property>
  <property name="audio_index">0</property>
  <property name="video_index">-1</property>
  <property name="mute_on_pause">1</property>
  <property name="mlt_service">avformat</property>
  <property name="kdenlive:clipname"/>
  <property name="kdenlive:clip_type">1</property>
  <property name="kdenlive:folderid">196</property>
  <property name="kdenlive:id">200</property>
  <property name="kdenlive:file_size">64305618</property>
  <property name="kdenlive:file_hash">5abda144d9cf9fe9f5f01369c1ff4f90</property>
  <property name="kdenlive:audio_max0">176</property>
 </producer>
 <producer id="producer154" in="00:00:00.000" out="00:04:02.983">
  <property name="length">14580</property>
  <property name="eof">pause</property>
  <property name="resource">audio/music/Nursery/Cradle Rock/stems/04_Cradle Rock_Drum Kit.wav</property>
  <property name="meta.media.nb_streams">1</property>
  <property name="meta.media.0.stream.type">audio</property>
  <property name="meta.media.0.codec.sample_fmt">s32</property>
  <property name="meta.media.0.codec.sample_rate">44100</property>
  <property name="meta.media.0.codec.channels">2</property>
  <property name="meta.media.0.codec.name">pcm_s24le</property>
  <property name="meta.media.0.codec.long_name">PCM signed 24-bit little-endian</property>
  <property name="meta.media.0.codec.bit_rate">2116800</property>
  <property name="meta.attr.encoded_by.markup">Logic Pro X</property>
  <property name="meta.attr.date.markup">2016-10-15</property>
  <property name="meta.attr.creation_time.markup">15:06:26</property>
  <property name="meta.attr.time_reference.markup">158760000</property>
  <property name="meta.attr.umid.markup">0x00000000D6A9DD3E92780051303A6853FF7F00002020620500600000000000000000000046B4530D0100000070C0CE7BFF7F000060326853FF7F00002A45B791</property>
  <property name="seekable">1</property>
  <property name="audio_index">0</property>
  <property name="video_index">-1</property>
  <property name="mute_on_pause">1</property>
  <property name="mlt_service">avformat</property>
  <property name="kdenlive:clipname"/>
  <property name="kdenlive:clip_type">1</property>
  <property name="kdenlive:folderid">196</property>
  <property name="kdenlive:id">201</property>
  <property name="kdenlive:file_size">64305618</property>
  <property name="kdenlive:file_hash">8156cf256fa033e6a9d0749713c11d05</property>
  <property name="kdenlive:audio_max0">177</property>
 </producer>
 <producer id="producer155" in="00:00:00.000" out="00:04:02.983">
  <property name="length">14580</property>
  <property name="eof">pause</property>
  <property name="resource">audio/music/Nursery/Cradle Rock/stems/05_Cradle Rock_Drum Kit.wav</property>
  <property name="meta.media.nb_streams">1</property>
  <property name="meta.media.0.stream.type">audio</property>
  <property name="meta.media.0.codec.sample_fmt">s32</property>
  <property name="meta.media.0.codec.sample_rate">44100</property>
  <property name="meta.media.0.codec.channels">2</property>
  <property name="meta.media.0.codec.name">pcm_s24le</property>
  <property name="meta.media.0.codec.long_name">PCM signed 24-bit little-endian</property>
  <property name="meta.media.0.codec.bit_rate">2116800</property>
  <property name="meta.attr.encoded_by.markup">Logic Pro X</property>
  <property name="meta.attr.date.markup">2016-10-15</property>
  <property name="meta.attr.creation_time.markup">15:05:30</property>
  <property name="meta.attr.time_reference.markup">158760000</property>
  <property name="meta.attr.umid.markup">0x00000000D6A9DD3E92780051303A6853FF7F000020FC620580600000000000000000000046B4530D0100000070C0CE7BFF7F000060326853FF7F00002A45B791</property>
  <property name="seekable">1</property>
  <property name="audio_index">0</property>
  <property name="video_index">-1</property>
  <property name="mute_on_pause">1</property>
  <property name="mlt_service">avformat</property>
  <property name="kdenlive:clipname"/>
  <property name="kdenlive:clip_type">1</property>
  <property name="kdenlive:folderid">196</property>
  <property name="kdenlive:id">203</property>
  <property name="kdenlive:file_size">64305618</property>
  <property name="kdenlive:file_hash">ea9efe086c673cc8e60ea65ffb1166dd</property>
  <property name="kdenlive:audio_max0">181</property>
 </producer>
 <producer id="producer156" in="00:00:00.000" out="00:03:25.100">
  <property name="length">12307</property>
  <property name="eof">pause</property>
  <property name="resource">audio/music/Nursery/Craypaper Wrapper/Craypaper Wrapper.wav</property>
  <property name="meta.media.nb_streams">1</property>
  <property name="meta.media.0.stream.type">audio</property>
  <property name="meta.media.0.codec.sample_fmt">s32</property>
  <property name="meta.media.0.codec.sample_rate">44100</property>
  <property name="meta.media.0.codec.channels">2</property>
  <property name="meta.media.0.codec.name">pcm_s24le</property>
  <property name="meta.media.0.codec.long_name">PCM signed 24-bit little-endian</property>
  <property name="meta.media.0.codec.bit_rate">2116800</property>
  <property name="meta.attr.encoded_by.markup">Logic Pro X</property>
  <property name="meta.attr.date.markup">2016-09-20</property>
  <property name="meta.attr.creation_time.markup">19:48:56</property>
  <property name="meta.attr.time_reference.markup">158760000</property>
  <property name="meta.attr.umid.markup">0x00000000F227204F83D100C330BA3658FF7F000040716307806000000000000000000000463485080100000070301476FF7F000060B23658FF7F00002AB5FC8B</property>
  <property name="seekable">1</property>
  <property name="audio_index">0</property>
  <property name="video_index">-1</property>
  <property name="mute_on_pause">1</property>
  <property name="mlt_service">avformat</property>
  <property name="kdenlive:clipname"/>
  <property name="kdenlive:clip_type">1</property>
  <property name="kdenlive:folderid">202</property>
  <property name="kdenlive:id">205</property>
  <property name="kdenlive:file_size">54275558</property>
  <property name="kdenlive:file_hash">bef45c3ec9205f8c5f0656bc3157aa22</property>
  <property name="kdenlive:audio_max0">249</property>
 </producer>
 <producer id="producer157" in="00:00:00.000" out="00:03:25.100">
  <property name="length">12307</property>
  <property name="eof">pause</property>
  <property name="resource">audio/music/Nursery/Craypaper Wrapper/stems/01_Craypaper Wrapper_Rhodes.wav</property>
  <property name="meta.media.nb_streams">1</property>
  <property name="meta.media.0.stream.type">audio</property>
  <property name="meta.media.0.codec.sample_fmt">s32</property>
  <property name="meta.media.0.codec.sample_rate">44100</property>
  <property name="meta.media.0.codec.channels">2</property>
  <property name="meta.media.0.codec.name">pcm_s24le</property>
  <property name="meta.media.0.codec.long_name">PCM signed 24-bit little-endian</property>
  <property name="meta.media.0.codec.bit_rate">2116800</property>
  <property name="meta.attr.encoded_by.markup">Logic Pro X</property>
  <property name="meta.attr.date.markup">2017-01-15</property>
  <property name="meta.attr.creation_time.markup">19:46:18</property>
  <property name="meta.attr.time_reference.markup">158760000</property>
  <property name="meta.attr.umid.markup">0x000000000000000000000000000000000000000000000000000000005B000B45F627098CD0C99C57FF7F000046241F090100000000C29C57FF7F0000ECBEF0DA</property>
  <property name="seekable">1</property>
  <property name="audio_index">0</property>
  <property name="video_index">-1</property>
  <property name="mute_on_pause">1</property>
  <property name="mlt_service">avformat</property>
  <property name="kdenlive:clipname"/>
  <property name="kdenlive:clip_type">1</property>
  <property name="kdenlive:folderid">204</property>
  <property name="kdenlive:id">206</property>
  <property name="kdenlive:file_size">54274498</property>
  <property name="kdenlive:file_hash">e93e8388b00f8323e6196a8fa2693d98</property>
  <property name="kdenlive:audio_max0">253</property>
 </producer>
 <producer id="producer158" in="00:00:00.000" out="00:03:25.100">
  <property name="length">12307</property>
  <property name="eof">pause</property>
  <property name="resource">audio/music/Nursery/Craypaper Wrapper/stems/02_Craypaper Wrapper_Electric Guitar.wav</property>
  <property name="meta.media.nb_streams">1</property>
  <property name="meta.media.0.stream.type">audio</property>
  <property name="meta.media.0.codec.sample_fmt">s32</property>
  <property name="meta.media.0.codec.sample_rate">44100</property>
  <property name="meta.media.0.codec.channels">2</property>
  <property name="meta.media.0.codec.name">pcm_s24le</property>
  <property name="meta.media.0.codec.long_name">PCM signed 24-bit little-endian</property>
  <property name="meta.media.0.codec.bit_rate">2116800</property>
  <property name="meta.attr.encoded_by.markup">Logic Pro X</property>
  <property name="meta.attr.date.markup">2017-01-15</property>
  <property name="meta.attr.creation_time.markup">19:45:21</property>
  <property name="meta.attr.time_reference.markup">158760000</property>
  <property name="meta.attr.umid.markup">0x000000000000000000000000000000000000000000000000000000005B000B45F627098CD0C99C57FF7F000046241F090100000000C29C57FF7F0000ECBEF0DA</property>
  <property name="seekable">1</property>
  <property name="audio_index">0</property>
  <property name="video_index">-1</property>
  <property name="mute_on_pause">1</property>
  <property name="mlt_service">avformat</property>
  <property name="kdenlive:clipname"/>
  <property name="kdenlive:clip_type">1</property>
  <property name="kdenlive:folderid">204</property>
  <property name="kdenlive:id">207</property>
  <property name="kdenlive:file_size">54274498</property>
  <property name="kdenlive:file_hash">a8fd16e268f3e930ec51b05b95527274</property>
  <property name="kdenlive:audio_max0">249</property>
 </producer>
 <producer id="producer159" in="00:00:00.000" out="00:03:25.100">
  <property name="length">12307</property>
  <property name="eof">pause</property>
  <property name="resource">audio/music/Nursery/Craypaper Wrapper/stems/03_Craypaper Wrapper_Tongue Drum.wav</property>
  <property name="meta.media.nb_streams">1</property>
  <property name="meta.media.0.stream.type">audio</property>
  <property name="meta.media.0.codec.sample_fmt">s32</property>
  <property name="meta.media.0.codec.sample_rate">44100</property>
  <property name="meta.media.0.codec.channels">2</property>
  <property name="meta.media.0.codec.name">pcm_s24le</property>
  <property name="meta.media.0.codec.long_name">PCM signed 24-bit little-endian</property>
  <property name="meta.media.0.codec.bit_rate">2116800</property>
  <property name="meta.attr.encoded_by.markup">Logic Pro X</property>
  <property name="meta.attr.date.markup">2017-01-15</property>
  <property name="meta.attr.creation_time.markup">19:44:27</property>
  <property name="meta.attr.time_reference.markup">158760000</property>
  <property name="meta.attr.umid.markup">0x000000000000000000000000000000000000000000000000000000005B000B45F627098CD0C99C57FF7F000046241F090100000000C29C57FF7F0000ECBEF0DA</property>
  <property name="seekable">1</property>
  <property name="audio_index">0</property>
  <property name="video_index">-1</property>
  <property name="mute_on_pause">1</property>
  <property name="mlt_service">avformat</property>
  <property name="kdenlive:clipname"/>
  <property name="kdenlive:clip_type">1</property>
  <property name="kdenlive:folderid">204</property>
  <property name="kdenlive:id">208</property>
  <property name="kdenlive:file_size">54274498</property>
  <property name="kdenlive:file_hash">f8eb18a3da8520cfec928d0c2b0c514d</property>
  <property name="kdenlive:audio_max0">241</property>
 </producer>
 <producer id="producer160" in="00:00:00.000" out="00:03:25.100">
  <property name="length">12307</property>
  <property name="eof">pause</property>
  <property name="resource">audio/music/Nursery/Craypaper Wrapper/stems/04_Craypaper Wrapper_Percussion.wav</property>
  <property name="meta.media.nb_streams">1</property>
  <property name="meta.media.0.stream.type">audio</property>
  <property name="meta.media.0.codec.sample_fmt">s32</property>
  <property name="meta.media.0.codec.sample_rate">44100</property>
  <property name="meta.media.0.codec.channels">2</property>
  <property name="meta.media.0.codec.name">pcm_s24le</property>
  <property name="meta.media.0.codec.long_name">PCM signed 24-bit little-endian</property>
  <property name="meta.media.0.codec.bit_rate">2116800</property>
  <property name="meta.attr.encoded_by.markup">Logic Pro X</property>
  <property name="meta.attr.date.markup">2017-01-15</property>
  <property name="meta.attr.creation_time.markup">19:43:26</property>
  <property name="meta.attr.time_reference.markup">158760000</property>
  <property name="meta.attr.umid.markup">0x000000000000000000000000000000000000000000000000000000005B000B45F627098CD0C99C57FF7F000046241F090100000000C29C57FF7F0000ECBEF0DA</property>
  <property name="seekable">1</property>
  <property name="audio_index">0</property>
  <property name="video_index">-1</property>
  <property name="mute_on_pause">1</property>
  <property name="mlt_service">avformat</property>
  <property name="kdenlive:clipname"/>
  <property name="kdenlive:clip_type">1</property>
  <property name="kdenlive:folderid">204</property>
  <property name="kdenlive:id">209</property>
  <property name="kdenlive:file_size">54274498</property>
  <property name="kdenlive:file_hash">79833bd80111d8611cfb074b92539d22</property>
  <property name="kdenlive:audio_max0">254</property>
 </producer>
 <producer id="producer161" in="00:00:00.000" out="00:03:25.100">
  <property name="length">12307</property>
  <property name="eof">pause</property>
  <property name="resource">audio/music/Nursery/Craypaper Wrapper/stems/05_Craypaper Wrapper_Rhodia SynPad.wav</property>
  <property name="meta.media.nb_streams">1</property>
  <property name="meta.media.0.stream.type">audio</property>
  <property name="meta.media.0.codec.sample_fmt">s32</property>
  <property name="meta.media.0.codec.sample_rate">44100</property>
  <property name="meta.media.0.codec.channels">2</property>
  <property name="meta.media.0.codec.name">pcm_s24le</property>
  <property name="meta.media.0.codec.long_name">PCM signed 24-bit little-endian</property>
  <property name="meta.media.0.codec.bit_rate">2116800</property>
  <property name="meta.attr.encoded_by.markup">Logic Pro X</property>
  <property name="meta.attr.date.markup">2017-01-15</property>
  <property name="meta.attr.creation_time.markup">19:42:09</property>
  <property name="meta.attr.time_reference.markup">158760000</property>
  <property name="meta.attr.umid.markup">0x000000000000000000000000000000000000000000000000000000005B000B45F627098CD0C99C57FF7F000046241F090100000000C29C57FF7F0000ECBEF0DA</property>
  <property name="seekable">1</property>
  <property name="audio_index">0</property>
  <property name="video_index">-1</property>
  <property name="mute_on_pause">1</property>
  <property name="mlt_service">avformat</property>
  <property name="kdenlive:clipname"/>
  <property name="kdenlive:clip_type">1</property>
  <property name="kdenlive:folderid">204</property>
  <property name="kdenlive:id">211</property>
  <property name="kdenlive:file_size">54274498</property>
  <property name="kdenlive:file_hash">4de25bf0904ba43324ac79aacc614028</property>
  <property name="kdenlive:audio_max0">185</property>
 </producer>
 <producer id="producer162" in="00:00:00.000" out="00:02:48.300">
  <property name="length">10099</property>
  <property name="eof">pause</property>
  <property name="resource">audio/music/Nursery/Darklit Carpet/Darklit Carpet.wav</property>
  <property name="meta.media.nb_streams">1</property>
  <property name="meta.media.0.stream.type">audio</property>
  <property name="meta.media.0.codec.sample_fmt">s32</property>
  <property name="meta.media.0.codec.sample_rate">44100</property>
  <property name="meta.media.0.codec.channels">2</property>
  <property name="meta.media.0.codec.name">pcm_s24le</property>
  <property name="meta.media.0.codec.long_name">PCM signed 24-bit little-endian</property>
  <property name="meta.media.0.codec.bit_rate">2116800</property>
  <property name="meta.attr.encoded_by.markup">Logic Pro X</property>
  <property name="meta.attr.date.markup">2018-02-12</property>
  <property name="meta.attr.creation_time.markup">12:15:31</property>
  <property name="meta.attr.time_reference.markup">159051302</property>
  <property name="meta.attr.umid.markup">0x00000000000000000000000000000000000000000000000000000000D20029D40BE531B1D0A1F4EDFE7F0000507639030100000010A2F4EDFE7F00003D465D6B</property>
  <property name="seekable">1</property>
  <property name="audio_index">0</property>
  <property name="video_index">-1</property>
  <property name="mute_on_pause">1</property>
  <property name="mlt_service">avformat</property>
  <property name="kdenlive:clipname"/>
  <property name="kdenlive:clip_type">1</property>
  <property name="kdenlive:folderid">210</property>
  <property name="kdenlive:id">213</property>
  <property name="kdenlive:file_size">44538812</property>
  <property name="kdenlive:file_hash">bc83df251c8eb6cbe917c1a2c94a0659</property>
  <property name="kdenlive:audio_max0">231</property>
 </producer>
 <producer id="producer163" in="00:00:00.000" out="00:02:48.300">
  <property name="length">10099</property>
  <property name="eof">pause</property>
  <property name="resource">audio/music/Nursery/Darklit Carpet/stems/01_Darklit Carpet_Tongue Drum.wav</property>
  <property name="meta.media.nb_streams">1</property>
  <property name="meta.media.0.stream.type">audio</property>
  <property name="meta.media.0.codec.sample_fmt">s32</property>
  <property name="meta.media.0.codec.sample_rate">44100</property>
  <property name="meta.media.0.codec.channels">2</property>
  <property name="meta.media.0.codec.name">pcm_s24le</property>
  <property name="meta.media.0.codec.long_name">PCM signed 24-bit little-endian</property>
  <property name="meta.media.0.codec.bit_rate">2116800</property>
  <property name="meta.attr.encoded_by.markup">Logic Pro X</property>
  <property name="meta.attr.date.markup">2018-02-12</property>
  <property name="meta.attr.creation_time.markup">14:48:22</property>
  <property name="meta.attr.time_reference.markup">159051302</property>
  <property name="meta.attr.umid.markup">0x000000000000000000000000000000000000000000000000000000004F0039BDD696D15D606EE2E9FE7F000050E64B0701000000A06EE2E9FE7F00003D86F66C</property>
  <property name="seekable">1</property>
  <property name="audio_index">0</property>
  <property name="video_index">-1</property>
  <property name="mute_on_pause">1</property>
  <property name="mlt_service">avformat</property>
  <property name="kdenlive:clipname"/>
  <property name="kdenlive:clip_type">1</property>
  <property name="kdenlive:folderid">212</property>
  <property name="kdenlive:id">214</property>
  <property name="kdenlive:file_size">44595760</property>
  <property name="kdenlive:file_hash">eb73ce5343583609d61d20fac5608481</property>
  <property name="kdenlive:audio_max0">136</property>
 </producer>
 <producer id="producer164" in="00:00:00.000" out="00:02:48.300">
  <property name="length">10099</property>
  <property name="eof">pause</property>
  <property name="resource">audio/music/Nursery/Darklit Carpet/stems/02_Darklit Carpet_Rhodes.wav</property>
  <property name="meta.media.nb_streams">1</property>
  <property name="meta.media.0.stream.type">audio</property>
  <property name="meta.media.0.codec.sample_fmt">s32</property>
  <property name="meta.media.0.codec.sample_rate">44100</property>
  <property name="meta.media.0.codec.channels">2</property>
  <property name="meta.media.0.codec.name">pcm_s24le</property>
  <property name="meta.media.0.codec.long_name">PCM signed 24-bit little-endian</property>
  <property name="meta.media.0.codec.bit_rate">2116800</property>
  <property name="meta.attr.encoded_by.markup">Logic Pro X</property>
  <property name="meta.attr.date.markup">2018-02-12</property>
  <property name="meta.attr.creation_time.markup">14:48:31</property>
  <property name="meta.attr.time_reference.markup">159051302</property>
  <property name="meta.attr.umid.markup">0x000000000000000000000000000000000000000000000000000000004F0039BDD696D15D606EE2E9FE7F000050E64B0701000000A06EE2E9FE7F00003D86F66C</property>
  <property name="seekable">1</property>
  <property name="audio_index">0</property>
  <property name="video_index">-1</property>
  <property name="mute_on_pause">1</property>
  <property name="mlt_service">avformat</property>
  <property name="kdenlive:clipname"/>
  <property name="kdenlive:clip_type">1</property>
  <property name="kdenlive:folderid">212</property>
  <property name="kdenlive:id">215</property>
  <property name="kdenlive:file_size">44595760</property>
  <property name="kdenlive:file_hash">5aa3f33be3c088bab7ba8a7fa3a33531</property>
  <property name="kdenlive:audio_max0">140</property>
 </producer>
 <producer id="producer165" in="00:00:00.000" out="00:02:48.300">
  <property name="length">10099</property>
  <property name="eof">pause</property>
  <property name="resource">audio/music/Nursery/Darklit Carpet/stems/03_Darklit Carpet_Tongue Drum.wav</property>
  <property name="meta.media.nb_streams">1</property>
  <property name="meta.media.0.stream.type">audio</property>
  <property name="meta.media.0.codec.sample_fmt">s32</property>
  <property name="meta.media.0.codec.sample_rate">44100</property>
  <property name="meta.media.0.codec.channels">2</property>
  <property name="meta.media.0.codec.name">pcm_s24le</property>
  <property name="meta.media.0.codec.long_name">PCM signed 24-bit little-endian</property>
  <property name="meta.media.0.codec.bit_rate">2116800</property>
  <property name="meta.attr.encoded_by.markup">Logic Pro X</property>
  <property name="meta.attr.date.markup">2018-02-12</property>
  <property name="meta.attr.creation_time.markup">14:48:29</property>
  <property name="meta.attr.time_reference.markup">159051302</property>
  <property name="meta.attr.umid.markup">0x000000000000000000000000000000000000000000000000000000004F0039BDD696D15D606EE2E9FE7F000050E64B0701000000A06EE2E9FE7F00003D86F66C</property>
  <property name="seekable">1</property>
  <property name="audio_index">0</property>
  <property name="video_index">-1</property>
  <property name="mute_on_pause">1</property>
  <property name="mlt_service">avformat</property>
  <property name="kdenlive:clipname"/>
  <property name="kdenlive:clip_type">1</property>
  <property name="kdenlive:folderid">212</property>
  <property name="kdenlive:id">216</property>
  <property name="kdenlive:file_size">44595760</property>
  <property name="kdenlive:file_hash">9704e5e4fb73fdc0becb25b25b12c4c5</property>
  <property name="kdenlive:audio_max0">163</property>
 </producer>
 <producer id="producer166" in="00:00:00.000" out="00:02:48.300">
  <property name="length">10099</property>
  <property name="eof">pause</property>
  <property name="resource">audio/music/Nursery/Darklit Carpet/stems/04_Darklit Carpet_Fjoria SynPad.wav</property>
  <property name="meta.media.nb_streams">1</property>
  <property name="meta.media.0.stream.type">audio</property>
  <property name="meta.media.0.codec.sample_fmt">s32</property>
  <property name="meta.media.0.codec.sample_rate">44100</property>
  <property name="meta.media.0.codec.channels">2</property>
  <property name="meta.media.0.codec.name">pcm_s24le</property>
  <property name="meta.media.0.codec.long_name">PCM signed 24-bit little-endian</property>
  <property name="meta.media.0.codec.bit_rate">2116800</property>
  <property name="meta.attr.encoded_by.markup">Logic Pro X</property>
  <property name="meta.attr.date.markup">2018-02-12</property>
  <property name="meta.attr.creation_time.markup">14:48:24</property>
  <property name="meta.attr.time_reference.markup">159051302</property>
  <property name="meta.attr.umid.markup">0x000000000000000000000000000000000000000000000000000000004F0039BDD696D15D606EE2E9FE7F000050E64B0701000000A06EE2E9FE7F00003D86F66C</property>
  <property name="seekable">1</property>
  <property name="audio_index">0</property>
  <property name="video_index">-1</property>
  <property name="mute_on_pause">1</property>
  <property name="mlt_service">avformat</property>
  <property name="kdenlive:clipname"/>
  <property name="kdenlive:clip_type">1</property>
  <property name="kdenlive:folderid">212</property>
  <property name="kdenlive:id">217</property>
  <property name="kdenlive:file_size">44595760</property>
  <property name="kdenlive:file_hash">060e6a1a1b6b43552d852f93deadc51f</property>
  <property name="kdenlive:audio_max0">108</property>
 </producer>
 <producer id="producer167" in="00:00:00.000" out="00:02:48.300">
  <property name="length">10099</property>
  <property name="eof">pause</property>
  <property name="resource">audio/music/Nursery/Darklit Carpet/stems/05_Darklit Carpet_Fjoria SynPad.wav</property>
  <property name="meta.media.nb_streams">1</property>
  <property name="meta.media.0.stream.type">audio</property>
  <property name="meta.media.0.codec.sample_fmt">s32</property>
  <property name="meta.media.0.codec.sample_rate">44100</property>
  <property name="meta.media.0.codec.channels">2</property>
  <property name="meta.media.0.codec.name">pcm_s24le</property>
  <property name="meta.media.0.codec.long_name">PCM signed 24-bit little-endian</property>
  <property name="meta.media.0.codec.bit_rate">2116800</property>
  <property name="meta.attr.encoded_by.markup">Logic Pro X</property>
  <property name="meta.attr.date.markup">2018-02-12</property>
  <property name="meta.attr.creation_time.markup">14:48:26</property>
  <property name="meta.attr.time_reference.markup">159051302</property>
  <property name="meta.attr.umid.markup">0x000000000000000000000000000000000000000000000000000000004F0039BDD696D15D606EE2E9FE7F000050E64B0701000000A06EE2E9FE7F00003D86F66C</property>
  <property name="seekable">1</property>
  <property name="audio_index">0</property>
  <property name="video_index">-1</property>
  <property name="mute_on_pause">1</property>
  <property name="mlt_service">avformat</property>
  <property name="kdenlive:clipname"/>
  <property name="kdenlive:clip_type">1</property>
  <property name="kdenlive:folderid">212</property>
  <property name="kdenlive:id">219</property>
  <property name="kdenlive:file_size">44595760</property>
  <property name="kdenlive:file_hash">337eed69786913683d139b0f27461f42</property>
  <property name="kdenlive:audio_max0">58</property>
 </producer>
 <producer id="producer168" in="00:00:00.000" out="00:01:01.933">
  <property name="length">3717</property>
  <property name="eof">pause</property>
  <property name="resource">audio/music/Nursery/Darklit Carpet/variations/Darklit Carpet | 1 Min.wav</property>
  <property name="meta.media.nb_streams">1</property>
  <property name="meta.media.0.stream.type">audio</property>
  <property name="meta.media.0.codec.sample_fmt">s32</property>
  <property name="meta.media.0.codec.sample_rate">44100</property>
  <property name="meta.media.0.codec.channels">2</property>
  <property name="meta.media.0.codec.name">pcm_s24le</property>
  <property name="meta.media.0.codec.long_name">PCM signed 24-bit little-endian</property>
  <property name="meta.media.0.codec.bit_rate">2116800</property>
  <property name="meta.attr.encoded_by.markup">Logic Pro X</property>
  <property name="meta.attr.date.markup">2018-02-12</property>
  <property name="meta.attr.creation_time.markup">13:51:26</property>
  <property name="meta.attr.time_reference.markup">163663596</property>
  <property name="meta.attr.umid.markup">0x00000000000000000000000000000000000000000000000000000000D20029D40BE531B1D0A1F4EDFE7F0000507639030100000010A2F4EDFE7F00003D465D6B</property>
  <property name="seekable">1</property>
  <property name="audio_index">0</property>
  <property name="video_index">-1</property>
  <property name="mute_on_pause">1</property>
  <property name="mlt_service">avformat</property>
  <property name="kdenlive:clipname"/>
  <property name="kdenlive:clip_type">1</property>
  <property name="kdenlive:folderid">218</property>
  <property name="kdenlive:id">220</property>
  <property name="kdenlive:file_size">16394360</property>
  <property name="kdenlive:file_hash">e0062db33427b0cfa74fda95d87f3ad2</property>
  <property name="kdenlive:audio_max0">253</property>
 </producer>
 <producer id="producer169" in="00:00:00.000" out="00:02:37.867">
  <property name="length">9473</property>
  <property name="eof">pause</property>
  <property name="resource">audio/music/Nursery/Darklit Carpet/variations/Darklit Carpet | Atmo.wav</property>
  <property name="meta.media.nb_streams">1</property>
  <property name="meta.media.0.stream.type">audio</property>
  <property name="meta.media.0.codec.sample_fmt">s32</property>
  <property name="meta.media.0.codec.sample_rate">44100</property>
  <property name="meta.media.0.codec.channels">2</property>
  <property name="meta.media.0.codec.name">pcm_s24le</property>
  <property name="meta.media.0.codec.long_name">PCM signed 24-bit little-endian</property>
  <property name="meta.media.0.codec.bit_rate">2116800</property>
  <property name="meta.attr.encoded_by.markup">Logic Pro X</property>
  <property name="meta.attr.date.markup">2018-02-12</property>
  <property name="meta.attr.creation_time.markup">13:52:19</property>
  <property name="meta.attr.time_reference.markup">159426815</property>
  <property name="meta.attr.umid.markup">0x00000000000000000000000000000000000000000000000000000000D20029D40BE531B1D0A1F4EDFE7F0000507639030100000010A2F4EDFE7F00003D465D6B</property>
  <property name="seekable">1</property>
  <property name="audio_index">0</property>
  <property name="video_index">-1</property>
  <property name="mute_on_pause">1</property>
  <property name="mlt_service">avformat</property>
  <property name="kdenlive:clipname"/>
  <property name="kdenlive:clip_type">1</property>
  <property name="kdenlive:folderid">218</property>
  <property name="kdenlive:id">221</property>
  <property name="kdenlive:file_size">41775818</property>
  <property name="kdenlive:file_hash">5953bea24e807bc2250b9b3310d7f94c</property>
  <property name="kdenlive:audio_max0">213</property>
 </producer>
 <producer id="producer170" in="00:00:00.000" out="00:02:48.300">
  <property name="length">10099</property>
  <property name="eof">pause</property>
  <property name="resource">audio/music/Nursery/Darklit Carpet/variations/Darklit Carpet | Dark Mbira.wav</property>
  <property name="meta.media.nb_streams">1</property>
  <property name="meta.media.0.stream.type">audio</property>
  <property name="meta.media.0.codec.sample_fmt">s32</property>
  <property name="meta.media.0.codec.sample_rate">44100</property>
  <property name="meta.media.0.codec.channels">2</property>
  <property name="meta.media.0.codec.name">pcm_s24le</property>
  <property name="meta.media.0.codec.long_name">PCM signed 24-bit little-endian</property>
  <property name="meta.media.0.codec.bit_rate">2116800</property>
  <property name="meta.attr.encoded_by.markup">Logic Pro X</property>
  <property name="meta.attr.date.markup">2018-02-12</property>
  <property name="meta.attr.creation_time.markup">12:45:45</property>
  <property name="meta.attr.time_reference.markup">159051302</property>
  <property name="meta.attr.umid.markup">0x00000000000000000000000000000000000000000000000000000000D20029D40BE531B1D0A1F4EDFE7F0000507639030100000010A2F4EDFE7F00003D465D6B</property>
  <property name="seekable">1</property>
  <property name="audio_index">0</property>
  <property name="video_index">-1</property>
  <property name="mute_on_pause">1</property>
  <property name="mlt_service">avformat</property>
  <property name="kdenlive:clipname"/>
  <property name="kdenlive:clip_type">1</property>
  <property name="kdenlive:folderid">218</property>
  <property name="kdenlive:id">222</property>
  <property name="kdenlive:file_size">44538812</property>
  <property name="kdenlive:file_hash">5d074b537bdfdfc941c421a1d7e7e777</property>
  <property name="kdenlive:audio_max0">227</property>
 </producer>
 <producer id="producer171" in="00:00:00.000" out="00:00:50.633">
  <property name="length">3039</property>
  <property name="eof">pause</property>
  <property name="resource">audio/music/Nursery/Darklit Carpet/variations/Darklit Carpet | Minimal.wav</property>
  <property name="meta.media.nb_streams">1</property>
  <property name="meta.media.0.stream.type">audio</property>
  <property name="meta.media.0.codec.sample_fmt">s32</property>
  <property name="meta.media.0.codec.sample_rate">44100</property>
  <property name="meta.media.0.codec.channels">2</property>
  <property name="meta.media.0.codec.name">pcm_s24le</property>
  <property name="meta.media.0.codec.long_name">PCM signed 24-bit little-endian</property>
  <property name="meta.media.0.codec.bit_rate">2116800</property>
  <property name="meta.attr.encoded_by.markup">Logic Pro X</property>
  <property name="meta.attr.date.markup">2018-02-12</property>
  <property name="meta.attr.creation_time.markup">13:50:29</property>
  <property name="meta.attr.time_reference.markup">161381724</property>
  <property name="meta.attr.umid.markup">0x00000000000000000000000000000000000000000000000000000000D20029D40BE531B1D0A1F4EDFE7F0000507639030100000010A2F4EDFE7F00003D465D6B</property>
  <property name="seekable">1</property>
  <property name="audio_index">0</property>
  <property name="video_index">-1</property>
  <property name="mute_on_pause">1</property>
  <property name="mlt_service">avformat</property>
  <property name="kdenlive:clipname"/>
  <property name="kdenlive:clip_type">1</property>
  <property name="kdenlive:folderid">218</property>
  <property name="kdenlive:id">223</property>
  <property name="kdenlive:file_size">13401758</property>
  <property name="kdenlive:file_hash">edcdeadfd4d8fdb9a8f607c08610dff7</property>
  <property name="kdenlive:audio_max0">222</property>
 </producer>
 <producer id="producer172" in="00:00:00.000" out="00:01:00.900">
  <property name="length">3655</property>
  <property name="eof">pause</property>
  <property name="resource">audio/music/Nursery/Darklit Carpet/variations/Darklit Carpet | Short Form.wav</property>
  <property name="meta.media.nb_streams">1</property>
  <property name="meta.media.0.stream.type">audio</property>
  <property name="meta.media.0.codec.sample_fmt">s32</property>
  <property name="meta.media.0.codec.sample_rate">44100</property>
  <property name="meta.media.0.codec.channels">2</property>
  <property name="meta.media.0.codec.name">pcm_s24le</property>
  <property name="meta.media.0.codec.long_name">PCM signed 24-bit little-endian</property>
  <property name="meta.media.0.codec.bit_rate">2116800</property>
  <property name="meta.attr.encoded_by.markup">Logic Pro X</property>
  <property name="meta.attr.date.markup">2018-02-12</property>
  <property name="meta.attr.creation_time.markup">13:50:51</property>
  <property name="meta.attr.time_reference.markup">161381724</property>
  <property name="meta.attr.umid.markup">0x00000000000000000000000000000000000000000000000000000000D20029D40BE531B1D0A1F4EDFE7F0000507639030100000010A2F4EDFE7F00003D465D6B</property>
  <property name="seekable">1</property>
  <property name="audio_index">0</property>
  <property name="video_index">-1</property>
  <property name="mute_on_pause">1</property>
  <property name="mlt_service">avformat</property>
  <property name="kdenlive:clipname"/>
  <property name="kdenlive:clip_type">1</property>
  <property name="kdenlive:folderid">218</property>
  <property name="kdenlive:id">224</property>
  <property name="kdenlive:file_size">16121702</property>
  <property name="kdenlive:file_hash">a38a45ec20ac722646c858ae8029aee6</property>
  <property name="kdenlive:audio_max0">228</property>
 </producer>
 <producer id="producer173" in="00:00:00.000" out="00:02:48.300">
  <property name="length">10099</property>
  <property name="eof">pause</property>
  <property name="resource">audio/music/Nursery/Darklit Carpet/variations/Darklit Carpet | Strange Beat Mbira.wav</property>
  <property name="meta.media.nb_streams">1</property>
  <property name="meta.media.0.stream.type">audio</property>
  <property name="meta.media.0.codec.sample_fmt">s32</property>
  <property name="meta.media.0.codec.sample_rate">44100</property>
  <property name="meta.media.0.codec.channels">2</property>
  <property name="meta.media.0.codec.name">pcm_s24le</property>
  <property name="meta.media.0.codec.long_name">PCM signed 24-bit little-endian</property>
  <property name="meta.media.0.codec.bit_rate">2116800</property>
  <property name="meta.attr.encoded_by.markup">Logic Pro X</property>
  <property name="meta.attr.date.markup">2018-02-12</property>
  <property name="meta.attr.creation_time.markup">13:46:21</property>
  <property name="meta.attr.time_reference.markup">159051302</property>
  <property name="meta.attr.umid.markup">0x00000000000000000000000000000000000000000000000000000000D20029D40BE531B1D0A1F4EDFE7F0000507639030100000010A2F4EDFE7F00003D465D6B</property>
  <property name="seekable">1</property>
  <property name="audio_index">0</property>
  <property name="video_index">-1</property>
  <property name="mute_on_pause">1</property>
  <property name="mlt_service">avformat</property>
  <property name="kdenlive:clipname"/>
  <property name="kdenlive:clip_type">1</property>
  <property name="kdenlive:folderid">218</property>
  <property name="kdenlive:id">226</property>
  <property name="kdenlive:file_size">44538812</property>
  <property name="kdenlive:file_hash">aab73ce9ef76bb76f5a5abec3b7c1c7f</property>
  <property name="kdenlive:audio_max0">214</property>
 </producer>
 <producer id="producer174" in="00:00:00.000" out="00:02:38.850">
  <property name="length">9532</property>
  <property name="eof">pause</property>
  <property name="resource">audio/music/Nursery/Lick Stick */Lick Stick.wav</property>
  <property name="meta.media.nb_streams">1</property>
  <property name="meta.media.0.stream.type">audio</property>
  <property name="meta.media.0.codec.sample_fmt">s32</property>
  <property name="meta.media.0.codec.sample_rate">44100</property>
  <property name="meta.media.0.codec.channels">2</property>
  <property name="meta.media.0.codec.name">pcm_s24le</property>
  <property name="meta.media.0.codec.long_name">PCM signed 24-bit little-endian</property>
  <property name="meta.media.0.codec.bit_rate">2116800</property>
  <property name="meta.attr.encoded_by.markup">Logic Pro X</property>
  <property name="meta.attr.date.markup">2018-02-10</property>
  <property name="meta.attr.creation_time.markup">15:29:01</property>
  <property name="meta.attr.time_reference.markup">159910582</property>
  <property name="meta.attr.umid.markup">0x00000000000000000000000000000000000000000000000000000000CC00889B81DD1CCBD0118AEEFE7F00005006A4020100000010128AEEFE7F00003D96E469</property>
  <property name="seekable">1</property>
  <property name="audio_index">0</property>
  <property name="video_index">-1</property>
  <property name="mute_on_pause">1</property>
  <property name="mlt_service">avformat</property>
  <property name="kdenlive:clipname"/>
  <property name="kdenlive:clip_type">1</property>
  <property name="kdenlive:folderid">225</property>
  <property name="kdenlive:id">228</property>
  <property name="kdenlive:file_size">42037196</property>
  <property name="kdenlive:file_hash">bb9a16ebfdb92bebca1f17e09eb5354e</property>
  <property name="kdenlive:audio_max0">209</property>
 </producer>
 <producer id="producer175" in="00:00:00.000" out="00:02:38.850">
  <property name="length">9532</property>
  <property name="eof">pause</property>
  <property name="resource">audio/music/Nursery/Lick Stick */stems/01_Lick Stick_Tongue Drum.wav</property>
  <property name="meta.media.nb_streams">1</property>
  <property name="meta.media.0.stream.type">audio</property>
  <property name="meta.media.0.codec.sample_fmt">s32</property>
  <property name="meta.media.0.codec.sample_rate">44100</property>
  <property name="meta.media.0.codec.channels">2</property>
  <property name="meta.media.0.codec.name">pcm_s24le</property>
  <property name="meta.media.0.codec.long_name">PCM signed 24-bit little-endian</property>
  <property name="meta.media.0.codec.bit_rate">2116800</property>
  <property name="meta.attr.encoded_by.markup">Logic Pro X</property>
  <property name="meta.attr.date.markup">2018-02-10</property>
  <property name="meta.attr.creation_time.markup">15:30:07</property>
  <property name="meta.attr.time_reference.markup">159910582</property>
  <property name="meta.attr.umid.markup">0x00000000000000000000000000000000000000000000000000000000CC00889B81DD1CCB304D8AEEFE7F00005006A40201000000704D8AEEFE7F00003D96E469</property>
  <property name="seekable">1</property>
  <property name="audio_index">0</property>
  <property name="video_index">-1</property>
  <property name="mute_on_pause">1</property>
  <property name="mlt_service">avformat</property>
  <property name="kdenlive:clipname"/>
  <property name="kdenlive:clip_type">1</property>
  <property name="kdenlive:folderid">227</property>
  <property name="kdenlive:id">229</property>
  <property name="kdenlive:file_size">42090886</property>
  <property name="kdenlive:file_hash">c02a05d7ac2b1ace6c1959c2aa04a58c</property>
  <property name="kdenlive:audio_max0">132</property>
 </producer>
 <producer id="producer176" in="00:00:00.000" out="00:02:38.850">
  <property name="length">9532</property>
  <property name="eof">pause</property>
  <property name="resource">audio/music/Nursery/Lick Stick */stems/02_Lick Stick_Tongue Drum.wav</property>
  <property name="meta.media.nb_streams">1</property>
  <property name="meta.media.0.stream.type">audio</property>
  <property name="meta.media.0.codec.sample_fmt">s32</property>
  <property name="meta.media.0.codec.sample_rate">44100</property>
  <property name="meta.media.0.codec.channels">2</property>
  <property name="meta.media.0.codec.name">pcm_s24le</property>
  <property name="meta.media.0.codec.long_name">PCM signed 24-bit little-endian</property>
  <property name="meta.media.0.codec.bit_rate">2116800</property>
  <property name="meta.attr.encoded_by.markup">Logic Pro X</property>
  <property name="meta.attr.date.markup">2018-02-10</property>
  <property name="meta.attr.creation_time.markup">15:30:11</property>
  <property name="meta.attr.time_reference.markup">159910582</property>
  <property name="meta.attr.umid.markup">0x00000000000000000000000000000000000000000000000000000000CC00889B81DD1CCB304D8AEEFE7F00005006A40201000000704D8AEEFE7F00003D96E469</property>
  <property name="seekable">1</property>
  <property name="audio_index">0</property>
  <property name="video_index">-1</property>
  <property name="mute_on_pause">1</property>
  <property name="mlt_service">avformat</property>
  <property name="kdenlive:clipname"/>
  <property name="kdenlive:clip_type">1</property>
  <property name="kdenlive:folderid">227</property>
  <property name="kdenlive:id">230</property>
  <property name="kdenlive:file_size">42090886</property>
  <property name="kdenlive:file_hash">970e4825a670200afdaf9e6edcf6184d</property>
  <property name="kdenlive:audio_max0">131</property>
 </producer>
 <producer id="producer177" in="00:00:00.000" out="00:02:38.850">
  <property name="length">9532</property>
  <property name="eof">pause</property>
  <property name="resource">audio/music/Nursery/Lick Stick */stems/03_Lick Stick_Tongue Drum.wav</property>
  <property name="meta.media.nb_streams">1</property>
  <property name="meta.media.0.stream.type">audio</property>
  <property name="meta.media.0.codec.sample_fmt">s32</property>
  <property name="meta.media.0.codec.sample_rate">44100</property>
  <property name="meta.media.0.codec.channels">2</property>
  <property name="meta.media.0.codec.name">pcm_s24le</property>
  <property name="meta.media.0.codec.long_name">PCM signed 24-bit little-endian</property>
  <property name="meta.media.0.codec.bit_rate">2116800</property>
  <property name="meta.attr.encoded_by.markup">Logic Pro X</property>
  <property name="meta.attr.date.markup">2018-02-10</property>
  <property name="meta.attr.creation_time.markup">15:30:25</property>
  <property name="meta.attr.time_reference.markup">159910582</property>
  <property name="meta.attr.umid.markup">0x00000000000000000000000000000000000000000000000000000000CC00889B81DD1CCB304D8AEEFE7F00005006A40201000000704D8AEEFE7F00003D96E469</property>
  <property name="seekable">1</property>
  <property name="audio_index">0</property>
  <property name="video_index">-1</property>
  <property name="mute_on_pause">1</property>
  <property name="mlt_service">avformat</property>
  <property name="kdenlive:clipname"/>
  <property name="kdenlive:clip_type">1</property>
  <property name="kdenlive:folderid">227</property>
  <property name="kdenlive:id">231</property>
  <property name="kdenlive:file_size">42090886</property>
  <property name="kdenlive:file_hash">9d461d0edad67f12c3da39b74eefe99b</property>
  <property name="kdenlive:audio_max0">150</property>
 </producer>
 <producer id="producer178" in="00:00:00.000" out="00:02:38.850">
  <property name="length">9532</property>
  <property name="eof">pause</property>
  <property name="resource">audio/music/Nursery/Lick Stick */stems/04_Lick Stick_Tongue Drum.wav</property>
  <property name="meta.media.nb_streams">1</property>
  <property name="meta.media.0.stream.type">audio</property>
  <property name="meta.media.0.codec.sample_fmt">s32</property>
  <property name="meta.media.0.codec.sample_rate">44100</property>
  <property name="meta.media.0.codec.channels">2</property>
  <property name="meta.media.0.codec.name">pcm_s24le</property>
  <property name="meta.media.0.codec.long_name">PCM signed 24-bit little-endian</property>
  <property name="meta.media.0.codec.bit_rate">2116800</property>
  <property name="meta.attr.encoded_by.markup">Logic Pro X</property>
  <property name="meta.attr.date.markup">2018-02-10</property>
  <property name="meta.attr.creation_time.markup">15:30:14</property>
  <property name="meta.attr.time_reference.markup">159910582</property>
  <property name="meta.attr.umid.markup">0x00000000000000000000000000000000000000000000000000000000CC00889B81DD1CCB304D8AEEFE7F00005006A40201000000704D8AEEFE7F00003D96E469</property>
  <property name="seekable">1</property>
  <property name="audio_index">0</property>
  <property name="video_index">-1</property>
  <property name="mute_on_pause">1</property>
  <property name="mlt_service">avformat</property>
  <property name="kdenlive:clipname"/>
  <property name="kdenlive:clip_type">1</property>
  <property name="kdenlive:folderid">227</property>
  <property name="kdenlive:id">232</property>
  <property name="kdenlive:file_size">42090886</property>
  <property name="kdenlive:file_hash">07bc126cece640eb389e4f04df929d32</property>
  <property name="kdenlive:audio_max0">135</property>
 </producer>
 <producer id="producer179" in="00:00:00.000" out="00:02:38.850">
  <property name="length">9532</property>
  <property name="eof">pause</property>
  <property name="resource">audio/music/Nursery/Lick Stick */stems/05_Lick Stick_Fjoria DrumSyn.wav</property>
  <property name="meta.media.nb_streams">1</property>
  <property name="meta.media.0.stream.type">audio</property>
  <property name="meta.media.0.codec.sample_fmt">s32</property>
  <property name="meta.media.0.codec.sample_rate">44100</property>
  <property name="meta.media.0.codec.channels">2</property>
  <property name="meta.media.0.codec.name">pcm_s24le</property>
  <property name="meta.media.0.codec.long_name">PCM signed 24-bit little-endian</property>
  <property name="meta.media.0.codec.bit_rate">2116800</property>
  <property name="meta.attr.encoded_by.markup">Logic Pro X</property>
  <property name="meta.attr.date.markup">2018-02-10</property>
  <property name="meta.attr.creation_time.markup">15:30:09</property>
  <property name="meta.attr.time_reference.markup">159910582</property>
  <property name="meta.attr.umid.markup">0x00000000000000000000000000000000000000000000000000000000CC00889B81DD1CCB304D8AEEFE7F00005006A40201000000704D8AEEFE7F00003D96E469</property>
  <property name="seekable">1</property>
  <property name="audio_index">0</property>
  <property name="video_index">-1</property>
  <property name="mute_on_pause">1</property>
  <property name="mlt_service">avformat</property>
  <property name="kdenlive:clipname"/>
  <property name="kdenlive:clip_type">1</property>
  <property name="kdenlive:folderid">227</property>
  <property name="kdenlive:id">233</property>
  <property name="kdenlive:file_size">42090886</property>
  <property name="kdenlive:file_hash">9c750465fb4357d2305f5b3022f064b8</property>
  <property name="kdenlive:audio_max0">103</property>
 </producer>
 <producer id="producer180" in="00:00:00.000" out="00:02:38.850">
  <property name="length">9532</property>
  <property name="eof">pause</property>
  <property name="resource">audio/music/Nursery/Lick Stick */stems/06_Lick Stick_Fjoria SynPad.wav</property>
  <property name="meta.media.nb_streams">1</property>
  <property name="meta.media.0.stream.type">audio</property>
  <property name="meta.media.0.codec.sample_fmt">s32</property>
  <property name="meta.media.0.codec.sample_rate">44100</property>
  <property name="meta.media.0.codec.channels">2</property>
  <property name="meta.media.0.codec.name">pcm_s24le</property>
  <property name="meta.media.0.codec.long_name">PCM signed 24-bit little-endian</property>
  <property name="meta.media.0.codec.bit_rate">2116800</property>
  <property name="meta.attr.encoded_by.markup">Logic Pro X</property>
  <property name="meta.attr.date.markup">2018-02-10</property>
  <property name="meta.attr.creation_time.markup">15:30:18</property>
  <property name="meta.attr.time_reference.markup">159910582</property>
  <property name="meta.attr.umid.markup">0x00000000000000000000000000000000000000000000000000000000CC00889B81DD1CCB304D8AEEFE7F00005006A40201000000704D8AEEFE7F00003D96E469</property>
  <property name="seekable">1</property>
  <property name="audio_index">0</property>
  <property name="video_index">-1</property>
  <property name="mute_on_pause">1</property>
  <property name="mlt_service">avformat</property>
  <property name="kdenlive:clipname"/>
  <property name="kdenlive:clip_type">1</property>
  <property name="kdenlive:folderid">227</property>
  <property name="kdenlive:id">234</property>
  <property name="kdenlive:file_size">42090886</property>
  <property name="kdenlive:file_hash">741a0d6ed75f0abecc41fe88f928f3ed</property>
  <property name="kdenlive:audio_max0">81</property>
 </producer>
 <producer id="producer181" in="00:00:00.000" out="00:02:38.850">
  <property name="length">9532</property>
  <property name="eof">pause</property>
  <property name="resource">audio/music/Nursery/Lick Stick */stems/07_Lick Stick_Violin.wav</property>
  <property name="meta.media.nb_streams">1</property>
  <property name="meta.media.0.stream.type">audio</property>
  <property name="meta.media.0.codec.sample_fmt">s32</property>
  <property name="meta.media.0.codec.sample_rate">44100</property>
  <property name="meta.media.0.codec.channels">2</property>
  <property name="meta.media.0.codec.name">pcm_s24le</property>
  <property name="meta.media.0.codec.long_name">PCM signed 24-bit little-endian</property>
  <property name="meta.media.0.codec.bit_rate">2116800</property>
  <property name="meta.attr.encoded_by.markup">Logic Pro X</property>
  <property name="meta.attr.date.markup">2018-02-10</property>
  <property name="meta.attr.creation_time.markup">15:30:22</property>
  <property name="meta.attr.time_reference.markup">159910582</property>
  <property name="meta.attr.umid.markup">0x00000000000000000000000000000000000000000000000000000000CC00889B81DD1CCB304D8AEEFE7F00005006A40201000000704D8AEEFE7F00003D96E469</property>
  <property name="seekable">1</property>
  <property name="audio_index">0</property>
  <property name="video_index">-1</property>
  <property name="mute_on_pause">1</property>
  <property name="mlt_service">avformat</property>
  <property name="kdenlive:clipname"/>
  <property name="kdenlive:clip_type">1</property>
  <property name="kdenlive:folderid">227</property>
  <property name="kdenlive:id">236</property>
  <property name="kdenlive:file_size">42090886</property>
  <property name="kdenlive:file_hash">cd4a512deed12c9708807ab24e6d5e0b</property>
  <property name="kdenlive:audio_max0">75</property>
 </producer>
 <producer id="producer182" in="00:00:00.000" out="00:01:00.450">
  <property name="length">3628</property>
  <property name="eof">pause</property>
  <property name="resource">audio/music/Nursery/Lick Stick */variations/Lick Stick | 1 Min.wav</property>
  <property name="meta.media.nb_streams">1</property>
  <property name="meta.media.0.stream.type">audio</property>
  <property name="meta.media.0.codec.sample_fmt">s32</property>
  <property name="meta.media.0.codec.sample_rate">44100</property>
  <property name="meta.media.0.codec.channels">2</property>
  <property name="meta.media.0.codec.name">pcm_s24le</property>
  <property name="meta.media.0.codec.long_name">PCM signed 24-bit little-endian</property>
  <property name="meta.media.0.codec.bit_rate">2116800</property>
  <property name="meta.attr.encoded_by.markup">Logic Pro X</property>
  <property name="meta.attr.date.markup">2018-02-12</property>
  <property name="meta.attr.creation_time.markup">14:33:38</property>
  <property name="meta.attr.time_reference.markup">164395240</property>
  <property name="meta.attr.umid.markup">0x00000000000000000000000000000000000000000000000000000000B200403FF3E80FCAD081E1E5FE7F000050964C0B010000001082E1E5FE7F00003D86F66C</property>
  <property name="seekable">1</property>
  <property name="audio_index">0</property>
  <property name="video_index">-1</property>
  <property name="mute_on_pause">1</property>
  <property name="mlt_service">avformat</property>
  <property name="kdenlive:clipname"/>
  <property name="kdenlive:clip_type">1</property>
  <property name="kdenlive:folderid">235</property>
  <property name="kdenlive:id">237</property>
  <property name="kdenlive:file_size">16003154</property>
  <property name="kdenlive:file_hash">a1492d970887ebfc366ad8cb9192260a</property>
  <property name="kdenlive:audio_max0">195</property>
 </producer>
 <producer id="producer183" in="00:00:00.000" out="00:00:29.933">
  <property name="length">1797</property>
  <property name="eof">pause</property>
  <property name="resource">audio/music/Nursery/Lick Stick */variations/Lick Stick | 30 Sec.wav</property>
  <property name="meta.media.nb_streams">1</property>
  <property name="meta.media.0.stream.type">audio</property>
  <property name="meta.media.0.codec.sample_fmt">s32</property>
  <property name="meta.media.0.codec.sample_rate">44100</property>
  <property name="meta.media.0.codec.channels">2</property>
  <property name="meta.media.0.codec.name">pcm_s24le</property>
  <property name="meta.media.0.codec.long_name">PCM signed 24-bit little-endian</property>
  <property name="meta.media.0.codec.bit_rate">2116800</property>
  <property name="meta.attr.encoded_by.markup">Logic Pro X</property>
  <property name="meta.attr.date.markup">2018-02-12</property>
  <property name="meta.attr.creation_time.markup">14:32:36</property>
  <property name="meta.attr.time_reference.markup">165840005</property>
  <property name="meta.attr.umid.markup">0x00000000000000000000000000000000000000000000000000000000B200403FF3E80FCAD081E1E5FE7F000050964C0B010000001082E1E5FE7F00003D86F66C</property>
  <property name="seekable">1</property>
  <property name="audio_index">0</property>
  <property name="video_index">-1</property>
  <property name="mute_on_pause">1</property>
  <property name="mlt_service">avformat</property>
  <property name="kdenlive:clipname"/>
  <property name="kdenlive:clip_type">1</property>
  <property name="kdenlive:folderid">235</property>
  <property name="kdenlive:id">238</property>
  <property name="kdenlive:file_size">7925162</property>
  <property name="kdenlive:file_hash">57c057319e7dbe516e720741d33adb9d</property>
  <property name="kdenlive:audio_max0">187</property>
 </producer>
 <producer id="producer184" in="00:00:00.000" out="00:05:00.500">
  <property name="length">18031</property>
  <property name="eof">pause</property>
  <property name="resource">audio/music/Nursery/Lick Stick */variations/Lick Stick | Long Run.wav</property>
  <property name="meta.media.nb_streams">1</property>
  <property name="meta.media.0.stream.type">audio</property>
  <property name="meta.media.0.codec.sample_fmt">s32</property>
  <property name="meta.media.0.codec.sample_rate">44100</property>
  <property name="meta.media.0.codec.channels">2</property>
  <property name="meta.media.0.codec.name">pcm_s24le</property>
  <property name="meta.media.0.codec.long_name">PCM signed 24-bit little-endian</property>
  <property name="meta.media.0.codec.bit_rate">2116800</property>
  <property name="meta.attr.encoded_by.markup">Logic Pro X</property>
  <property name="meta.attr.date.markup">2018-02-10</property>
  <property name="meta.attr.creation_time.markup">15:32:27</property>
  <property name="meta.attr.time_reference.markup">159877895</property>
  <property name="meta.attr.umid.markup">0x00000000000000000000000000000000000000000000000000000000CC00889B81DD1CCBD0118AEEFE7F00005006A4020100000010128AEEFE7F00003D96E469</property>
  <property name="seekable">1</property>
  <property name="audio_index">0</property>
  <property name="video_index">-1</property>
  <property name="mute_on_pause">1</property>
  <property name="mlt_service">avformat</property>
  <property name="kdenlive:clipname"/>
  <property name="kdenlive:clip_type">1</property>
  <property name="kdenlive:folderid">235</property>
  <property name="kdenlive:id">239</property>
  <property name="kdenlive:file_size">79520066</property>
  <property name="kdenlive:file_hash">46b68792e9d69f0b87fb4f6a299a0860</property>
  <property name="kdenlive:audio_max0">207</property>
 </producer>
 <producer id="producer185" in="00:00:00.000" out="00:00:39.167">
  <property name="length">2351</property>
  <property name="eof">pause</property>
  <property name="resource">audio/music/Nursery/Lick Stick */variations/Lick Stick | Mbira Interlude.wav</property>
  <property name="meta.media.nb_streams">1</property>
  <property name="meta.media.0.stream.type">audio</property>
  <property name="meta.media.0.codec.sample_fmt">s32</property>
  <property name="meta.media.0.codec.sample_rate">44100</property>
  <property name="meta.media.0.codec.channels">2</property>
  <property name="meta.media.0.codec.name">pcm_s24le</property>
  <property name="meta.media.0.codec.long_name">PCM signed 24-bit little-endian</property>
  <property name="meta.media.0.codec.bit_rate">2116800</property>
  <property name="meta.attr.encoded_by.markup">Logic Pro X</property>
  <property name="meta.attr.date.markup">2018-02-12</property>
  <property name="meta.attr.creation_time.markup">14:35:14</property>
  <property name="meta.attr.time_reference.markup">165197333</property>
  <property name="meta.attr.umid.markup">0x00000000000000000000000000000000000000000000000000000000B200403FF3E80FCAD081E1E5FE7F000050964C0B010000001082E1E5FE7F00003D86F66C</property>
  <property name="seekable">1</property>
  <property name="audio_index">0</property>
  <property name="video_index">-1</property>
  <property name="mute_on_pause">1</property>
  <property name="mlt_service">avformat</property>
  <property name="kdenlive:clipname"/>
  <property name="kdenlive:clip_type">1</property>
  <property name="kdenlive:folderid">235</property>
  <property name="kdenlive:id">240</property>
  <property name="kdenlive:file_size">10369112</property>
  <property name="kdenlive:file_hash">432e65478643cae7c8fac35873dabae5</property>
  <property name="kdenlive:audio_max0">232</property>
 </producer>
 <producer id="producer186" in="00:00:00.000" out="00:00:41.733">
  <property name="length">2505</property>
  <property name="eof">pause</property>
  <property name="resource">audio/music/Nursery/Lick Stick */variations/Lick Stick | Minimal.wav</property>
  <property name="meta.media.nb_streams">1</property>
  <property name="meta.media.0.stream.type">audio</property>
  <property name="meta.media.0.codec.sample_fmt">s32</property>
  <property name="meta.media.0.codec.sample_rate">44100</property>
  <property name="meta.media.0.codec.channels">2</property>
  <property name="meta.media.0.codec.name">pcm_s24le</property>
  <property name="meta.media.0.codec.long_name">PCM signed 24-bit little-endian</property>
  <property name="meta.media.0.codec.bit_rate">2116800</property>
  <property name="meta.attr.encoded_by.markup">Logic Pro X</property>
  <property name="meta.attr.date.markup">2018-02-12</property>
  <property name="meta.attr.creation_time.markup">14:34:08</property>
  <property name="meta.attr.time_reference.markup">164395240</property>
  <property name="meta.attr.umid.markup">0x00000000000000000000000000000000000000000000000000000000B200403FF3E80FCAD081E1E5FE7F000050964C0B010000001082E1E5FE7F00003D86F66C</property>
  <property name="seekable">1</property>
  <property name="audio_index">0</property>
  <property name="video_index">-1</property>
  <property name="mute_on_pause">1</property>
  <property name="mlt_service">avformat</property>
  <property name="kdenlive:clipname"/>
  <property name="kdenlive:clip_type">1</property>
  <property name="kdenlive:folderid">235</property>
  <property name="kdenlive:id">242</property>
  <property name="kdenlive:file_size">11051006</property>
  <property name="kdenlive:file_hash">455b5c595580c3f86f7bcc5802040a75</property>
  <property name="kdenlive:audio_max0">169</property>
 </producer>
 <producer id="producer187" in="00:00:00.000" out="00:02:33.067">
  <property name="length">9185</property>
  <property name="eof">pause</property>
  <property name="resource">audio/music/Nursery/Maisie Dreamer */Maisie Dreamer.wav</property>
  <property name="meta.media.nb_streams">1</property>
  <property name="meta.media.0.stream.type">audio</property>
  <property name="meta.media.0.codec.sample_fmt">s32</property>
  <property name="meta.media.0.codec.sample_rate">44100</property>
  <property name="meta.media.0.codec.channels">2</property>
  <property name="meta.media.0.codec.name">pcm_s24le</property>
  <property name="meta.media.0.codec.long_name">PCM signed 24-bit little-endian</property>
  <property name="meta.media.0.codec.bit_rate">2116800</property>
  <property name="meta.attr.encoded_by.markup">Logic Pro X</property>
  <property name="meta.attr.date.markup">2018-02-12</property>
  <property name="meta.attr.creation_time.markup">11:44:23</property>
  <property name="meta.attr.time_reference.markup">158805761</property>
  <property name="meta.attr.umid.markup">0x00000000000000000000000000000000000000000000000000000000D20029D40BE531B1D0A1F4EDFE7F0000507639030100000010A2F4EDFE7F00003D465D6B</property>
  <property name="seekable">1</property>
  <property name="audio_index">0</property>
  <property name="video_index">-1</property>
  <property name="mute_on_pause">1</property>
  <property name="mlt_service">avformat</property>
  <property name="kdenlive:clipname"/>
  <property name="kdenlive:clip_type">1</property>
  <property name="kdenlive:folderid">241</property>
  <property name="kdenlive:id">244</property>
  <property name="kdenlive:file_size">40509644</property>
  <property name="kdenlive:file_hash">ed101d5adff92e5457ee5580ba7fdfd5</property>
  <property name="kdenlive:audio_max0">227</property>
 </producer>
 <producer id="producer188" in="00:00:00.000" out="00:02:33.067">
  <property name="length">9185</property>
  <property name="eof">pause</property>
  <property name="resource">audio/music/Nursery/Maisie Dreamer */stems/01_Maisie Dreamer_Tongue Drum.wav</property>
  <property name="meta.media.nb_streams">1</property>
  <property name="meta.media.0.stream.type">audio</property>
  <property name="meta.media.0.codec.sample_fmt">s32</property>
  <property name="meta.media.0.codec.sample_rate">44100</property>
  <property name="meta.media.0.codec.channels">2</property>
  <property name="meta.media.0.codec.name">pcm_s24le</property>
  <property name="meta.media.0.codec.long_name">PCM signed 24-bit little-endian</property>
  <property name="meta.media.0.codec.bit_rate">2116800</property>
  <property name="meta.attr.encoded_by.markup">Logic Pro X</property>
  <property name="meta.attr.date.markup">2018-02-12</property>
  <property name="meta.attr.creation_time.markup">11:47:20</property>
  <property name="meta.attr.time_reference.markup">158805761</property>
  <property name="meta.attr.umid.markup">0x00000000000000000000000000000000000000000000000000000000D20029D40BE531B160DEF4EDFE7F00005076390301000000A0DEF4EDFE7F00003D465D6B</property>
  <property name="seekable">1</property>
  <property name="audio_index">0</property>
  <property name="video_index">-1</property>
  <property name="mute_on_pause">1</property>
  <property name="mlt_service">avformat</property>
  <property name="kdenlive:clipname"/>
  <property name="kdenlive:clip_type">1</property>
  <property name="kdenlive:folderid">243</property>
  <property name="kdenlive:id">245</property>
  <property name="kdenlive:file_size">40561346</property>
  <property name="kdenlive:file_hash">e535cf3912eba6a27f907bae998c4595</property>
  <property name="kdenlive:audio_max0">120</property>
 </producer>
 <producer id="producer189" in="00:00:00.000" out="00:02:33.067">
  <property name="length">9185</property>
  <property name="eof">pause</property>
  <property name="resource">audio/music/Nursery/Maisie Dreamer */stems/02_Maisie Dreamer_Tongue Drum.wav</property>
  <property name="meta.media.nb_streams">1</property>
  <property name="meta.media.0.stream.type">audio</property>
  <property name="meta.media.0.codec.sample_fmt">s32</property>
  <property name="meta.media.0.codec.sample_rate">44100</property>
  <property name="meta.media.0.codec.channels">2</property>
  <property name="meta.media.0.codec.name">pcm_s24le</property>
  <property name="meta.media.0.codec.long_name">PCM signed 24-bit little-endian</property>
  <property name="meta.media.0.codec.bit_rate">2116800</property>
  <property name="meta.attr.encoded_by.markup">Logic Pro X</property>
  <property name="meta.attr.date.markup">2018-02-12</property>
  <property name="meta.attr.creation_time.markup">11:47:30</property>
  <property name="meta.attr.time_reference.markup">158805761</property>
  <property name="meta.attr.umid.markup">0x00000000000000000000000000000000000000000000000000000000D20029D40BE531B160DEF4EDFE7F00005076390301000000A0DEF4EDFE7F00003D465D6B</property>
  <property name="seekable">1</property>
  <property name="audio_index">0</property>
  <property name="video_index">-1</property>
  <property name="mute_on_pause">1</property>
  <property name="mlt_service">avformat</property>
  <property name="kdenlive:clipname"/>
  <property name="kdenlive:clip_type">1</property>
  <property name="kdenlive:folderid">243</property>
  <property name="kdenlive:id">246</property>
  <property name="kdenlive:file_size">40561346</property>
  <property name="kdenlive:file_hash">827ef80497d16b70fa9b17b678c7a905</property>
  <property name="kdenlive:audio_max0">125</property>
 </producer>
 <producer id="producer190" in="00:00:00.000" out="00:02:33.067">
  <property name="length">9185</property>
  <property name="eof">pause</property>
  <property name="resource">audio/music/Nursery/Maisie Dreamer */stems/03_Maisie Dreamer_Rhodia SynPad.wav</property>
  <property name="meta.media.nb_streams">1</property>
  <property name="meta.media.0.stream.type">audio</property>
  <property name="meta.media.0.codec.sample_fmt">s32</property>
  <property name="meta.media.0.codec.sample_rate">44100</property>
  <property name="meta.media.0.codec.channels">2</property>
  <property name="meta.media.0.codec.name">pcm_s24le</property>
  <property name="meta.media.0.codec.long_name">PCM signed 24-bit little-endian</property>
  <property name="meta.media.0.codec.bit_rate">2116800</property>
  <property name="meta.attr.encoded_by.markup">Logic Pro X</property>
  <property name="meta.attr.date.markup">2018-02-12</property>
  <property name="meta.attr.creation_time.markup">11:47:35</property>
  <property name="meta.attr.time_reference.markup">158805761</property>
  <property name="meta.attr.umid.markup">0x00000000000000000000000000000000000000000000000000000000D20029D40BE531B160DEF4EDFE7F00005076390301000000A0DEF4EDFE7F00003D465D6B</property>
  <property name="seekable">1</property>
  <property name="audio_index">0</property>
  <property name="video_index">-1</property>
  <property name="mute_on_pause">1</property>
  <property name="mlt_service">avformat</property>
  <property name="kdenlive:clipname"/>
  <property name="kdenlive:clip_type">1</property>
  <property name="kdenlive:folderid">243</property>
  <property name="kdenlive:id">247</property>
  <property name="kdenlive:file_size">40561346</property>
  <property name="kdenlive:file_hash">55cea2d2f04b6e169eb552c57e403d51</property>
  <property name="kdenlive:audio_max0">164</property>
 </producer>
 <producer id="producer191" in="00:00:00.000" out="00:02:33.067">
  <property name="length">9185</property>
  <property name="eof">pause</property>
  <property name="resource">audio/music/Nursery/Maisie Dreamer */stems/04_Maisie Dreamer_Tongue Drum.wav</property>
  <property name="meta.media.nb_streams">1</property>
  <property name="meta.media.0.stream.type">audio</property>
  <property name="meta.media.0.codec.sample_fmt">s32</property>
  <property name="meta.media.0.codec.sample_rate">44100</property>
  <property name="meta.media.0.codec.channels">2</property>
  <property name="meta.media.0.codec.name">pcm_s24le</property>
  <property name="meta.media.0.codec.long_name">PCM signed 24-bit little-endian</property>
  <property name="meta.media.0.codec.bit_rate">2116800</property>
  <property name="meta.attr.encoded_by.markup">Logic Pro X</property>
  <property name="meta.attr.date.markup">2018-02-12</property>
  <property name="meta.attr.creation_time.markup">11:47:33</property>
  <property name="meta.attr.time_reference.markup">158805761</property>
  <property name="meta.attr.umid.markup">0x00000000000000000000000000000000000000000000000000000000D20029D40BE531B160DEF4EDFE7F00005076390301000000A0DEF4EDFE7F00003D465D6B</property>
  <property name="seekable">1</property>
  <property name="audio_index">0</property>
  <property name="video_index">-1</property>
  <property name="mute_on_pause">1</property>
  <property name="mlt_service">avformat</property>
  <property name="kdenlive:clipname"/>
  <property name="kdenlive:clip_type">1</property>
  <property name="kdenlive:folderid">243</property>
  <property name="kdenlive:id">248</property>
  <property name="kdenlive:file_size">40561346</property>
  <property name="kdenlive:file_hash">fee7632a3fbb0e66883b243bb0ab1005</property>
  <property name="kdenlive:audio_max0">112</property>
 </producer>
 <producer id="producer192" in="00:00:00.000" out="00:02:33.067">
  <property name="length">9185</property>
  <property name="eof">pause</property>
  <property name="resource">audio/music/Nursery/Maisie Dreamer */stems/05_Maisie Dreamer_Drum Kit.wav</property>
  <property name="meta.media.nb_streams">1</property>
  <property name="meta.media.0.stream.type">audio</property>
  <property name="meta.media.0.codec.sample_fmt">s32</property>
  <property name="meta.media.0.codec.sample_rate">44100</property>
  <property name="meta.media.0.codec.channels">2</property>
  <property name="meta.media.0.codec.name">pcm_s24le</property>
  <property name="meta.media.0.codec.long_name">PCM signed 24-bit little-endian</property>
  <property name="meta.media.0.codec.bit_rate">2116800</property>
  <property name="meta.attr.encoded_by.markup">Logic Pro X</property>
  <property name="meta.attr.date.markup">2018-02-12</property>
  <property name="meta.attr.creation_time.markup">11:47:23</property>
  <property name="meta.attr.time_reference.markup">158805761</property>
  <property name="meta.attr.umid.markup">0x00000000000000000000000000000000000000000000000000000000D20029D40BE531B160DEF4EDFE7F00005076390301000000A0DEF4EDFE7F00003D465D6B</property>
  <property name="seekable">1</property>
  <property name="audio_index">0</property>
  <property name="video_index">-1</property>
  <property name="mute_on_pause">1</property>
  <property name="mlt_service">avformat</property>
  <property name="kdenlive:clipname"/>
  <property name="kdenlive:clip_type">1</property>
  <property name="kdenlive:folderid">243</property>
  <property name="kdenlive:id">249</property>
  <property name="kdenlive:file_size">40561346</property>
  <property name="kdenlive:file_hash">ad6ad7e0165f24ba48f707b2532073ce</property>
  <property name="kdenlive:audio_max0">27</property>
 </producer>
 <producer id="producer193" in="00:00:00.000" out="00:02:33.067">
  <property name="length">9185</property>
  <property name="eof">pause</property>
  <property name="resource">audio/music/Nursery/Maisie Dreamer */stems/06_Maisie Dreamer_Percussion.wav</property>
  <property name="meta.media.nb_streams">1</property>
  <property name="meta.media.0.stream.type">audio</property>
  <property name="meta.media.0.codec.sample_fmt">s32</property>
  <property name="meta.media.0.codec.sample_rate">44100</property>
  <property name="meta.media.0.codec.channels">2</property>
  <property name="meta.media.0.codec.name">pcm_s24le</property>
  <property name="meta.media.0.codec.long_name">PCM signed 24-bit little-endian</property>
  <property name="meta.media.0.codec.bit_rate">2116800</property>
  <property name="meta.attr.encoded_by.markup">Logic Pro X</property>
  <property name="meta.attr.date.markup">2018-02-12</property>
  <property name="meta.attr.creation_time.markup">11:47:25</property>
  <property name="meta.attr.time_reference.markup">158805761</property>
  <property name="meta.attr.umid.markup">0x00000000000000000000000000000000000000000000000000000000D20029D40BE531B160DEF4EDFE7F00005076390301000000A0DEF4EDFE7F00003D465D6B</property>
  <property name="seekable">1</property>
  <property name="audio_index">0</property>
  <property name="video_index">-1</property>
  <property name="mute_on_pause">1</property>
  <property name="mlt_service">avformat</property>
  <property name="kdenlive:clipname"/>
  <property name="kdenlive:clip_type">1</property>
  <property name="kdenlive:folderid">243</property>
  <property name="kdenlive:id">250</property>
  <property name="kdenlive:file_size">40561346</property>
  <property name="kdenlive:file_hash">fddb10163080927b39db35ab2273786a</property>
  <property name="kdenlive:audio_max0">165</property>
 </producer>
 <producer id="producer194" in="00:00:00.000" out="00:02:33.067">
  <property name="length">9185</property>
  <property name="eof">pause</property>
  <property name="resource">audio/music/Nursery/Maisie Dreamer */stems/07_Maisie Dreamer_Skrea DrumSyn.wav</property>
  <property name="meta.media.nb_streams">1</property>
  <property name="meta.media.0.stream.type">audio</property>
  <property name="meta.media.0.codec.sample_fmt">s32</property>
  <property name="meta.media.0.codec.sample_rate">44100</property>
  <property name="meta.media.0.codec.channels">2</property>
  <property name="meta.media.0.codec.name">pcm_s24le</property>
  <property name="meta.media.0.codec.long_name">PCM signed 24-bit little-endian</property>
  <property name="meta.media.0.codec.bit_rate">2116800</property>
  <property name="meta.attr.encoded_by.markup">Logic Pro X</property>
  <property name="meta.attr.date.markup">2018-02-12</property>
  <property name="meta.attr.creation_time.markup">11:47:28</property>
  <property name="meta.attr.time_reference.markup">158805761</property>
  <property name="meta.attr.umid.markup">0x00000000000000000000000000000000000000000000000000000000D20029D40BE531B160DEF4EDFE7F00005076390301000000A0DEF4EDFE7F00003D465D6B</property>
  <property name="seekable">1</property>
  <property name="audio_index">0</property>
  <property name="video_index">-1</property>
  <property name="mute_on_pause">1</property>
  <property name="mlt_service">avformat</property>
  <property name="kdenlive:clipname"/>
  <property name="kdenlive:clip_type">1</property>
  <property name="kdenlive:folderid">243</property>
  <property name="kdenlive:id">252</property>
  <property name="kdenlive:file_size">40561346</property>
  <property name="kdenlive:file_hash">fd538c1329d8ab6ae5c0252719548c8c</property>
  <property name="kdenlive:audio_max0">15</property>
 </producer>
 <producer id="producer195" in="00:00:00.000" out="00:00:47.150">
  <property name="length">2830</property>
  <property name="eof">pause</property>
  <property name="resource">audio/music/Nursery/Maisie Dreamer */variations/Maisie Dreamer | 1 Min.wav</property>
  <property name="meta.media.nb_streams">1</property>
  <property name="meta.media.0.stream.type">audio</property>
  <property name="meta.media.0.codec.sample_fmt">s32</property>
  <property name="meta.media.0.codec.sample_rate">44100</property>
  <property name="meta.media.0.codec.channels">2</property>
  <property name="meta.media.0.codec.name">pcm_s24le</property>
  <property name="meta.media.0.codec.long_name">PCM signed 24-bit little-endian</property>
  <property name="meta.media.0.codec.bit_rate">2116800</property>
  <property name="meta.attr.encoded_by.markup">Logic Pro X</property>
  <property name="meta.attr.date.markup">2018-02-12</property>
  <property name="meta.attr.creation_time.markup">11:51:37</property>
  <property name="meta.attr.time_reference.markup">163476713</property>
  <property name="meta.attr.umid.markup">0x00000000000000000000000000000000000000000000000000000000D20029D40BE531B1D0A1F4EDFE7F0000507639030100000010A2F4EDFE7F00003D465D6B</property>
  <property name="seekable">1</property>
  <property name="audio_index">0</property>
  <property name="video_index">-1</property>
  <property name="mute_on_pause">1</property>
  <property name="mlt_service">avformat</property>
  <property name="kdenlive:clipname"/>
  <property name="kdenlive:clip_type">1</property>
  <property name="kdenlive:folderid">251</property>
  <property name="kdenlive:id">253</property>
  <property name="kdenlive:file_size">12483932</property>
  <property name="kdenlive:file_hash">2dfdebfaee0d9b379604f4beed6f6dae</property>
  <property name="kdenlive:audio_max0">228</property>
 </producer>
 <producer id="producer196" in="00:00:00.000" out="00:00:29.733">
  <property name="length">1785</property>
  <property name="eof">pause</property>
  <property name="resource">audio/music/Nursery/Maisie Dreamer */variations/Maisie Dreamer | 30 Sec Minimal.wav</property>
  <property name="meta.media.nb_streams">1</property>
  <property name="meta.media.0.stream.type">audio</property>
  <property name="meta.media.0.codec.sample_fmt">s32</property>
  <property name="meta.media.0.codec.sample_rate">44100</property>
  <property name="meta.media.0.codec.channels">2</property>
  <property name="meta.media.0.codec.name">pcm_s24le</property>
  <property name="meta.media.0.codec.long_name">PCM signed 24-bit little-endian</property>
  <property name="meta.media.0.codec.bit_rate">2116800</property>
  <property name="meta.attr.encoded_by.markup">Logic Pro X</property>
  <property name="meta.attr.date.markup">2018-02-12</property>
  <property name="meta.attr.creation_time.markup">11:52:54</property>
  <property name="meta.attr.time_reference.markup">164244879</property>
  <property name="meta.attr.umid.markup">0x00000000000000000000000000000000000000000000000000000000D20029D40BE531B1D0A1F4EDFE7F0000507639030100000010A2F4EDFE7F00003D465D6B</property>
  <property name="seekable">1</property>
  <property name="audio_index">0</property>
  <property name="video_index">-1</property>
  <property name="mute_on_pause">1</property>
  <property name="mlt_service">avformat</property>
  <property name="kdenlive:clipname"/>
  <property name="kdenlive:clip_type">1</property>
  <property name="kdenlive:folderid">251</property>
  <property name="kdenlive:id">254</property>
  <property name="kdenlive:file_size">7874936</property>
  <property name="kdenlive:file_hash">98e73d8b33d64bbe1c0352b6bf29efb7</property>
  <property name="kdenlive:audio_max0">218</property>
 </producer>
 <producer id="producer197" in="00:00:00.000" out="00:00:29.733">
  <property name="length">1785</property>
  <property name="eof">pause</property>
  <property name="resource">audio/music/Nursery/Maisie Dreamer */variations/Maisie Dreamer | 30 Sec.wav</property>
  <property name="meta.media.nb_streams">1</property>
  <property name="meta.media.0.stream.type">audio</property>
  <property name="meta.media.0.codec.sample_fmt">s32</property>
  <property name="meta.media.0.codec.sample_rate">44100</property>
  <property name="meta.media.0.codec.channels">2</property>
  <property name="meta.media.0.codec.name">pcm_s24le</property>
  <property name="meta.media.0.codec.long_name">PCM signed 24-bit little-endian</property>
  <property name="meta.media.0.codec.bit_rate">2116800</property>
  <property name="meta.attr.encoded_by.markup">Logic Pro X</property>
  <property name="meta.attr.date.markup">2018-02-12</property>
  <property name="meta.attr.creation_time.markup">11:52:24</property>
  <property name="meta.attr.time_reference.markup">164244879</property>
  <property name="meta.attr.umid.markup">0x00000000000000000000000000000000000000000000000000000000D20029D40BE531B1D0A1F4EDFE7F0000507639030100000010A2F4EDFE7F00003D465D6B</property>
  <property name="seekable">1</property>
  <property name="audio_index">0</property>
  <property name="video_index">-1</property>
  <property name="mute_on_pause">1</property>
  <property name="mlt_service">avformat</property>
  <property name="kdenlive:clipname"/>
  <property name="kdenlive:clip_type">1</property>
  <property name="kdenlive:folderid">251</property>
  <property name="kdenlive:id">255</property>
  <property name="kdenlive:file_size">7874936</property>
  <property name="kdenlive:file_hash">1965cad350579ea9d401541452a4b6c5</property>
  <property name="kdenlive:audio_max0">221</property>
 </producer>
 <producer id="producer198" in="00:00:00.000" out="00:01:19.317">
  <property name="length">4760</property>
  <property name="eof">pause</property>
  <property name="resource">audio/music/Nursery/Maisie Dreamer */variations/Maisie Dreamer | Alt Start.wav</property>
  <property name="meta.media.nb_streams">1</property>
  <property name="meta.media.0.stream.type">audio</property>
  <property name="meta.media.0.codec.sample_fmt">s32</property>
  <property name="meta.media.0.codec.sample_rate">44100</property>
  <property name="meta.media.0.codec.channels">2</property>
  <property name="meta.media.0.codec.name">pcm_s24le</property>
  <property name="meta.media.0.codec.long_name">PCM signed 24-bit little-endian</property>
  <property name="meta.media.0.codec.bit_rate">2116800</property>
  <property name="meta.attr.encoded_by.markup">Logic Pro X</property>
  <property name="meta.attr.date.markup">2018-02-12</property>
  <property name="meta.attr.creation_time.markup">11:53:39</property>
  <property name="meta.attr.time_reference.markup">161937177</property>
  <property name="meta.attr.umid.markup">0x00000000000000000000000000000000000000000000000000000000D20029D40BE531B1D0A1F4EDFE7F0000507639030100000010A2F4EDFE7F00003D465D6B</property>
  <property name="seekable">1</property>
  <property name="audio_index">0</property>
  <property name="video_index">-1</property>
  <property name="mute_on_pause">1</property>
  <property name="mlt_service">avformat</property>
  <property name="kdenlive:clipname"/>
  <property name="kdenlive:clip_type">1</property>
  <property name="kdenlive:folderid">251</property>
  <property name="kdenlive:id">256</property>
  <property name="kdenlive:file_size">20992892</property>
  <property name="kdenlive:file_hash">1ba49c9e94d0285dfbb13a096727ecca</property>
  <property name="kdenlive:audio_max0">224</property>
 </producer>
 <producer id="producer199" in="00:00:00.000" out="00:02:31.783">
  <property name="length">9108</property>
  <property name="eof">pause</property>
  <property name="resource">audio/music/Nursery/Maisie Dreamer */variations/Maisie Dreamer | Mbira Ost.wav</property>
  <property name="meta.media.nb_streams">1</property>
  <property name="meta.media.0.stream.type">audio</property>
  <property name="meta.media.0.codec.sample_fmt">s32</property>
  <property name="meta.media.0.codec.sample_rate">44100</property>
  <property name="meta.media.0.codec.channels">2</property>
  <property name="meta.media.0.codec.name">pcm_s24le</property>
  <property name="meta.media.0.codec.long_name">PCM signed 24-bit little-endian</property>
  <property name="meta.media.0.codec.bit_rate">2116800</property>
  <property name="meta.attr.encoded_by.markup">Logic Pro X</property>
  <property name="meta.attr.date.markup">2018-02-12</property>
  <property name="meta.attr.creation_time.markup">11:58:00</property>
  <property name="meta.attr.time_reference.markup">158792687</property>
  <property name="meta.attr.umid.markup">0x00000000000000000000000000000000000000000000000000000000D20029D40BE531B1D0A1F4EDFE7F0000507639030100000010A2F4EDFE7F00003D465D6B</property>
  <property name="seekable">1</property>
  <property name="audio_index">0</property>
  <property name="video_index">-1</property>
  <property name="mute_on_pause">1</property>
  <property name="mlt_service">avformat</property>
  <property name="kdenlive:clipname"/>
  <property name="kdenlive:clip_type">1</property>
  <property name="kdenlive:folderid">251</property>
  <property name="kdenlive:id">257</property>
  <property name="kdenlive:file_size">40167620</property>
  <property name="kdenlive:file_hash">298b131de5aaa2d45e3131107936cee2</property>
  <property name="kdenlive:audio_max0">216</property>
 </producer>
 <producer id="producer200" in="00:00:00.000" out="00:01:56.350">
  <property name="length">6982</property>
  <property name="eof">pause</property>
  <property name="resource">audio/music/Nursery/Maisie Dreamer */variations/Maisie Dreamer | Minimal.wav</property>
  <property name="meta.media.nb_streams">1</property>
  <property name="meta.media.0.stream.type">audio</property>
  <property name="meta.media.0.codec.sample_fmt">s32</property>
  <property name="meta.media.0.codec.sample_rate">44100</property>
  <property name="meta.media.0.codec.channels">2</property>
  <property name="meta.media.0.codec.name">pcm_s24le</property>
  <property name="meta.media.0.codec.long_name">PCM signed 24-bit little-endian</property>
  <property name="meta.media.0.codec.bit_rate">2116800</property>
  <property name="meta.attr.encoded_by.markup">Logic Pro X</property>
  <property name="meta.attr.date.markup">2018-02-12</property>
  <property name="meta.attr.creation_time.markup">11:54:43</property>
  <property name="meta.attr.time_reference.markup">160355126</property>
  <property name="meta.attr.umid.markup">0x00000000000000000000000000000000000000000000000000000000D20029D40BE531B1D0A1F4EDFE7F0000507639030100000010A2F4EDFE7F00003D465D6B</property>
  <property name="seekable">1</property>
  <property name="audio_index">0</property>
  <property name="video_index">-1</property>
  <property name="mute_on_pause">1</property>
  <property name="mlt_service">avformat</property>
  <property name="kdenlive:clipname"/>
  <property name="kdenlive:clip_type">1</property>
  <property name="kdenlive:folderid">251</property>
  <property name="kdenlive:id">258</property>
  <property name="kdenlive:file_size">30792986</property>
  <property name="kdenlive:file_hash">6608edcefd8189b3631193063e1c5e34</property>
  <property name="kdenlive:audio_max0">220</property>
 </producer>
 <producer id="producer201" in="00:00:00.000" out="00:01:56.350">
  <property name="length">6982</property>
  <property name="eof">pause</property>
  <property name="resource">audio/music/Nursery/Maisie Dreamer */variations/Maisie Dreamer | Rhythmic Driver.wav</property>
  <property name="meta.media.nb_streams">1</property>
  <property name="meta.media.0.stream.type">audio</property>
  <property name="meta.media.0.codec.sample_fmt">s32</property>
  <property name="meta.media.0.codec.sample_rate">44100</property>
  <property name="meta.media.0.codec.channels">2</property>
  <property name="meta.media.0.codec.name">pcm_s24le</property>
  <property name="meta.media.0.codec.long_name">PCM signed 24-bit little-endian</property>
  <property name="meta.media.0.codec.bit_rate">2116800</property>
  <property name="meta.attr.encoded_by.markup">Logic Pro X</property>
  <property name="meta.attr.date.markup">2018-02-12</property>
  <property name="meta.attr.creation_time.markup">11:55:56</property>
  <property name="meta.attr.time_reference.markup">160355126</property>
  <property name="meta.attr.umid.markup">0x00000000000000000000000000000000000000000000000000000000D20029D40BE531B1D0A1F4EDFE7F0000507639030100000010A2F4EDFE7F00003D465D6B</property>
  <property name="seekable">1</property>
  <property name="audio_index">0</property>
  <property name="video_index">-1</property>
  <property name="mute_on_pause">1</property>
  <property name="mlt_service">avformat</property>
  <property name="kdenlive:clipname"/>
  <property name="kdenlive:clip_type">1</property>
  <property name="kdenlive:folderid">251</property>
  <property name="kdenlive:id">260</property>
  <property name="kdenlive:file_size">30792986</property>
  <property name="kdenlive:file_hash">d370fe87d824b832e08c1d63dda115ba</property>
  <property name="kdenlive:audio_max0">230</property>
 </producer>
 <producer id="producer202" in="00:00:00.000" out="00:01:56.417">
  <property name="length">6986</property>
  <property name="eof">pause</property>
  <property name="resource">audio/music/Nursery/Maisie Lee/Maisie Lee.wav</property>
  <property name="meta.media.nb_streams">1</property>
  <property name="meta.media.0.stream.type">audio</property>
  <property name="meta.media.0.codec.sample_fmt">s32</property>
  <property name="meta.media.0.codec.sample_rate">44100</property>
  <property name="meta.media.0.codec.channels">2</property>
  <property name="meta.media.0.codec.name">pcm_s24le</property>
  <property name="meta.media.0.codec.long_name">PCM signed 24-bit little-endian</property>
  <property name="meta.media.0.codec.bit_rate">2116800</property>
  <property name="meta.attr.encoded_by.markup">Logic Pro X</property>
  <property name="meta.attr.date.markup">2018-02-12</property>
  <property name="meta.attr.creation_time.markup">10:41:21</property>
  <property name="meta.attr.time_reference.markup">159365421</property>
  <property name="meta.attr.umid.markup">0x00000000000000000000000000000000000000000000000000000000D20029D40BE531B1D0A1F4EDFE7F0000507639030100000010A2F4EDFE7F00003D465D6B</property>
  <property name="seekable">1</property>
  <property name="audio_index">0</property>
  <property name="video_index">-1</property>
  <property name="mute_on_pause">1</property>
  <property name="mlt_service">avformat</property>
  <property name="kdenlive:clipname"/>
  <property name="kdenlive:clip_type">1</property>
  <property name="kdenlive:folderid">259</property>
  <property name="kdenlive:id">262</property>
  <property name="kdenlive:file_size">30808328</property>
  <property name="kdenlive:file_hash">1fa0daad671340e84c06ee910aeb7d60</property>
  <property name="kdenlive:audio_max0">217</property>
 </producer>
 <producer id="producer203" in="00:00:00.000" out="00:01:56.417">
  <property name="length">6986</property>
  <property name="eof">pause</property>
  <property name="resource">audio/music/Nursery/Maisie Lee/stems/01_Maisie Lee_Tongue Drum.wav</property>
  <property name="meta.media.nb_streams">1</property>
  <property name="meta.media.0.stream.type">audio</property>
  <property name="meta.media.0.codec.sample_fmt">s32</property>
  <property name="meta.media.0.codec.sample_rate">44100</property>
  <property name="meta.media.0.codec.channels">2</property>
  <property name="meta.media.0.codec.name">pcm_s24le</property>
  <property name="meta.media.0.codec.long_name">PCM signed 24-bit little-endian</property>
  <property name="meta.media.0.codec.bit_rate">2116800</property>
  <property name="meta.attr.encoded_by.markup">Logic Pro X</property>
  <property name="meta.attr.date.markup">2018-02-12</property>
  <property name="meta.attr.creation_time.markup">10:50:06</property>
  <property name="meta.attr.time_reference.markup">159365421</property>
  <property name="meta.attr.umid.markup">0x00000000000000000000000000000000000000000000000000000000D20029D40BE531B160DEF4EDFE7F00005076390301000000A0DEF4EDFE7F00003D465D6B</property>
  <property name="seekable">1</property>
  <property name="audio_index">0</property>
  <property name="video_index">-1</property>
  <property name="mute_on_pause">1</property>
  <property name="mlt_service">avformat</property>
  <property name="kdenlive:clipname"/>
  <property name="kdenlive:clip_type">1</property>
  <property name="kdenlive:folderid">261</property>
  <property name="kdenlive:id">263</property>
  <property name="kdenlive:file_size">30847398</property>
  <property name="kdenlive:file_hash">99b4815a3d3f3ae8a872e730acd8d6e5</property>
  <property name="kdenlive:audio_max0">131</property>
 </producer>
 <producer id="producer204" in="00:00:00.000" out="00:01:56.417">
  <property name="length">6986</property>
  <property name="eof">pause</property>
  <property name="resource">audio/music/Nursery/Maisie Lee/stems/02_Maisie Lee_Fjoria SynPad.wav</property>
  <property name="meta.media.nb_streams">1</property>
  <property name="meta.media.0.stream.type">audio</property>
  <property name="meta.media.0.codec.sample_fmt">s32</property>
  <property name="meta.media.0.codec.sample_rate">44100</property>
  <property name="meta.media.0.codec.channels">2</property>
  <property name="meta.media.0.codec.name">pcm_s24le</property>
  <property name="meta.media.0.codec.long_name">PCM signed 24-bit little-endian</property>
  <property name="meta.media.0.codec.bit_rate">2116800</property>
  <property name="meta.attr.encoded_by.markup">Logic Pro X</property>
  <property name="meta.attr.date.markup">2018-02-12</property>
  <property name="meta.attr.creation_time.markup">10:50:08</property>
  <property name="meta.attr.time_reference.markup">159365421</property>
  <property name="meta.attr.umid.markup">0x00000000000000000000000000000000000000000000000000000000D20029D40BE531B160DEF4EDFE7F00005076390301000000A0DEF4EDFE7F00003D465D6B</property>
  <property name="seekable">1</property>
  <property name="audio_index">0</property>
  <property name="video_index">-1</property>
  <property name="mute_on_pause">1</property>
  <property name="mlt_service">avformat</property>
  <property name="kdenlive:clipname"/>
  <property name="kdenlive:clip_type">1</property>
  <property name="kdenlive:folderid">261</property>
  <property name="kdenlive:id">264</property>
  <property name="kdenlive:file_size">30847398</property>
  <property name="kdenlive:file_hash">2b7896d3bff6c65db364aad25c4bb3a3</property>
  <property name="kdenlive:audio_max0">48</property>
 </producer>
 <producer id="producer205" in="00:00:00.000" out="00:01:56.417">
  <property name="length">6986</property>
  <property name="eof">pause</property>
  <property name="resource">audio/music/Nursery/Maisie Lee/stems/03_Maisie Lee_Violin.wav</property>
  <property name="meta.media.nb_streams">1</property>
  <property name="meta.media.0.stream.type">audio</property>
  <property name="meta.media.0.codec.sample_fmt">s32</property>
  <property name="meta.media.0.codec.sample_rate">44100</property>
  <property name="meta.media.0.codec.channels">2</property>
  <property name="meta.media.0.codec.name">pcm_s24le</property>
  <property name="meta.media.0.codec.long_name">PCM signed 24-bit little-endian</property>
  <property name="meta.media.0.codec.bit_rate">2116800</property>
  <property name="meta.attr.encoded_by.markup">Logic Pro X</property>
  <property name="meta.attr.date.markup">2018-02-12</property>
  <property name="meta.attr.creation_time.markup">10:50:10</property>
  <property name="meta.attr.time_reference.markup">159365421</property>
  <property name="meta.attr.umid.markup">0x00000000000000000000000000000000000000000000000000000000D20029D40BE531B160DEF4EDFE7F00005076390301000000A0DEF4EDFE7F00003D465D6B</property>
  <property name="seekable">1</property>
  <property name="audio_index">0</property>
  <property name="video_index">-1</property>
  <property name="mute_on_pause">1</property>
  <property name="mlt_service">avformat</property>
  <property name="kdenlive:clipname"/>
  <property name="kdenlive:clip_type">1</property>
  <property name="kdenlive:folderid">261</property>
  <property name="kdenlive:id">266</property>
  <property name="kdenlive:file_size">30847398</property>
  <property name="kdenlive:file_hash">857a92b61779a221c560a2fdc8ffe6d5</property>
  <property name="kdenlive:audio_max0">68</property>
 </producer>
 <producer id="producer206" in="00:00:00.000" out="00:01:09.500">
  <property name="length">4171</property>
  <property name="eof">pause</property>
  <property name="resource">audio/music/Nursery/Maisie Lee/variations/Maisie Lee | 1 Min with Strings.wav</property>
  <property name="meta.media.nb_streams">1</property>
  <property name="meta.media.0.stream.type">audio</property>
  <property name="meta.media.0.codec.sample_fmt">s32</property>
  <property name="meta.media.0.codec.sample_rate">44100</property>
  <property name="meta.media.0.codec.channels">2</property>
  <property name="meta.media.0.codec.name">pcm_s24le</property>
  <property name="meta.media.0.codec.long_name">PCM signed 24-bit little-endian</property>
  <property name="meta.media.0.codec.bit_rate">2116800</property>
  <property name="meta.attr.encoded_by.markup">Logic Pro X</property>
  <property name="meta.attr.date.markup">2018-02-12</property>
  <property name="meta.attr.creation_time.markup">10:52:49</property>
  <property name="meta.attr.time_reference.markup">161433797</property>
  <property name="meta.attr.umid.markup">0x00000000000000000000000000000000000000000000000000000000D20029D40BE531B1D0A1F4EDFE7F0000507639030100000010A2F4EDFE7F00003D465D6B</property>
  <property name="seekable">1</property>
  <property name="audio_index">0</property>
  <property name="video_index">-1</property>
  <property name="mute_on_pause">1</property>
  <property name="mlt_service">avformat</property>
  <property name="kdenlive:clipname"/>
  <property name="kdenlive:clip_type">1</property>
  <property name="kdenlive:folderid">265</property>
  <property name="kdenlive:id">267</property>
  <property name="kdenlive:file_size">18398072</property>
  <property name="kdenlive:file_hash">c3c54f51544a291b7b494dce0433c0a0</property>
  <property name="kdenlive:audio_max0">219</property>
 </producer>
 <producer id="producer207" in="00:00:00.000" out="00:01:09.500">
  <property name="length">4171</property>
  <property name="eof">pause</property>
  <property name="resource">audio/music/Nursery/Maisie Lee/variations/Maisie Lee | 1 Min.wav</property>
  <property name="meta.media.nb_streams">1</property>
  <property name="meta.media.0.stream.type">audio</property>
  <property name="meta.media.0.codec.sample_fmt">s32</property>
  <property name="meta.media.0.codec.sample_rate">44100</property>
  <property name="meta.media.0.codec.channels">2</property>
  <property name="meta.media.0.codec.name">pcm_s24le</property>
  <property name="meta.media.0.codec.long_name">PCM signed 24-bit little-endian</property>
  <property name="meta.media.0.codec.bit_rate">2116800</property>
  <property name="meta.attr.encoded_by.markup">Logic Pro X</property>
  <property name="meta.attr.date.markup">2018-02-12</property>
  <property name="meta.attr.creation_time.markup">10:52:14</property>
  <property name="meta.attr.time_reference.markup">161433797</property>
  <property name="meta.attr.umid.markup">0x00000000000000000000000000000000000000000000000000000000D20029D40BE531B1D0A1F4EDFE7F0000507639030100000010A2F4EDFE7F00003D465D6B</property>
  <property name="seekable">1</property>
  <property name="audio_index">0</property>
  <property name="video_index">-1</property>
  <property name="mute_on_pause">1</property>
  <property name="mlt_service">avformat</property>
  <property name="kdenlive:clipname"/>
  <property name="kdenlive:clip_type">1</property>
  <property name="kdenlive:folderid">265</property>
  <property name="kdenlive:id">268</property>
  <property name="kdenlive:file_size">18398072</property>
  <property name="kdenlive:file_hash">15dabeb1cc4cd3c5ab7c97957b9d6e42</property>
  <property name="kdenlive:audio_max0">218</property>
 </producer>
 <producer id="producer208" in="00:00:00.000" out="00:00:42.817">
  <property name="length">2570</property>
  <property name="eof">pause</property>
  <property name="resource">audio/music/Nursery/Maisie Lee/variations/Maisie Lee | 30 Sec.wav</property>
  <property name="meta.media.nb_streams">1</property>
  <property name="meta.media.0.stream.type">audio</property>
  <property name="meta.media.0.codec.sample_fmt">s32</property>
  <property name="meta.media.0.codec.sample_rate">44100</property>
  <property name="meta.media.0.codec.channels">2</property>
  <property name="meta.media.0.codec.name">pcm_s24le</property>
  <property name="meta.media.0.codec.long_name">PCM signed 24-bit little-endian</property>
  <property name="meta.media.0.codec.bit_rate">2116800</property>
  <property name="meta.attr.encoded_by.markup">Logic Pro X</property>
  <property name="meta.attr.date.markup">2018-02-12</property>
  <property name="meta.attr.creation_time.markup">10:51:51</property>
  <property name="meta.attr.time_reference.markup">162610529</property>
  <property name="meta.attr.umid.markup">0x00000000000000000000000000000000000000000000000000000000D20029D40BE531B1D0A1F4EDFE7F0000507639030100000010A2F4EDFE7F00003D465D6B</property>
  <property name="seekable">1</property>
  <property name="audio_index">0</property>
  <property name="video_index">-1</property>
  <property name="mute_on_pause">1</property>
  <property name="mlt_service">avformat</property>
  <property name="kdenlive:clipname"/>
  <property name="kdenlive:clip_type">1</property>
  <property name="kdenlive:folderid">265</property>
  <property name="kdenlive:id">269</property>
  <property name="kdenlive:file_size">11337680</property>
  <property name="kdenlive:file_hash">bd3d52562295838ef2c768490548099a</property>
  <property name="kdenlive:audio_max0">206</property>
 </producer>
 <producer id="producer209" in="00:00:00.000" out="00:01:25.383">
  <property name="length">5124</property>
  <property name="eof">pause</property>
  <property name="resource">audio/music/Nursery/Maisie Lee/variations/Maisie Lee | High Melody'.wav</property>
  <property name="meta.media.nb_streams">1</property>
  <property name="meta.media.0.stream.type">audio</property>
  <property name="meta.media.0.codec.sample_fmt">s32</property>
  <property name="meta.media.0.codec.sample_rate">44100</property>
  <property name="meta.media.0.codec.channels">2</property>
  <property name="meta.media.0.codec.name">pcm_s24le</property>
  <property name="meta.media.0.codec.long_name">PCM signed 24-bit little-endian</property>
  <property name="meta.media.0.codec.bit_rate">2116800</property>
  <property name="meta.attr.encoded_by.markup">Logic Pro X</property>
  <property name="meta.attr.date.markup">2018-02-12</property>
  <property name="meta.attr.creation_time.markup">10:53:33</property>
  <property name="meta.attr.time_reference.markup">160820014</property>
  <property name="meta.attr.umid.markup">0x00000000000000000000000000000000000000000000000000000000D20029D40BE531B1D0A1F4EDFE7F0000507639030100000010A2F4EDFE7F00003D465D6B</property>
  <property name="seekable">1</property>
  <property name="audio_index">0</property>
  <property name="video_index">-1</property>
  <property name="mute_on_pause">1</property>
  <property name="mlt_service">avformat</property>
  <property name="kdenlive:clipname"/>
  <property name="kdenlive:clip_type">1</property>
  <property name="kdenlive:folderid">265</property>
  <property name="kdenlive:id">270</property>
  <property name="kdenlive:file_size">22598072</property>
  <property name="kdenlive:file_hash">b083c9fcd413e401cac72c5058450ba4</property>
  <property name="kdenlive:audio_max0">211</property>
 </producer>
 <producer id="producer210" in="00:00:00.000" out="00:01:43.467">
  <property name="length">6209</property>
  <property name="eof">pause</property>
  <property name="resource">audio/music/Nursery/Maisie Lee/variations/Maisie Lee | Mbira Mix.wav</property>
  <property name="meta.media.nb_streams">1</property>
  <property name="meta.media.0.stream.type">audio</property>
  <property name="meta.media.0.codec.sample_fmt">s32</property>
  <property name="meta.media.0.codec.sample_rate">44100</property>
  <property name="meta.media.0.codec.channels">2</property>
  <property name="meta.media.0.codec.name">pcm_s24le</property>
  <property name="meta.media.0.codec.long_name">PCM signed 24-bit little-endian</property>
  <property name="meta.media.0.codec.bit_rate">2116800</property>
  <property name="meta.attr.encoded_by.markup">Logic Pro X</property>
  <property name="meta.attr.date.markup">2018-02-12</property>
  <property name="meta.attr.creation_time.markup">10:54:51</property>
  <property name="meta.attr.time_reference.markup">160022312</property>
  <property name="meta.attr.umid.markup">0x00000000000000000000000000000000000000000000000000000000D20029D40BE531B1D0A1F4EDFE7F0000507639030100000010A2F4EDFE7F00003D465D6B</property>
  <property name="seekable">1</property>
  <property name="audio_index">0</property>
  <property name="video_index">-1</property>
  <property name="mute_on_pause">1</property>
  <property name="mlt_service">avformat</property>
  <property name="kdenlive:clipname"/>
  <property name="kdenlive:clip_type">1</property>
  <property name="kdenlive:folderid">265</property>
  <property name="kdenlive:id">271</property>
  <property name="kdenlive:file_size">27384284</property>
  <property name="kdenlive:file_hash">f85638488d407060a1e15edae1106599</property>
  <property name="kdenlive:audio_max0">220</property>
 </producer>
 <producer id="producer211" in="00:00:00.000" out="00:01:11.617">
  <property name="length">4298</property>
  <property name="eof">pause</property>
  <property name="resource">audio/music/Nursery/Maisie Lee/variations/Maisie Lee | Strings lead Mbira.wav</property>
  <property name="meta.media.nb_streams">1</property>
  <property name="meta.media.0.stream.type">audio</property>
  <property name="meta.media.0.codec.sample_fmt">s32</property>
  <property name="meta.media.0.codec.sample_rate">44100</property>
  <property name="meta.media.0.codec.channels">2</property>
  <property name="meta.media.0.codec.name">pcm_s24le</property>
  <property name="meta.media.0.codec.long_name">PCM signed 24-bit little-endian</property>
  <property name="meta.media.0.codec.bit_rate">2116800</property>
  <property name="meta.attr.encoded_by.markup">Logic Pro X</property>
  <property name="meta.attr.date.markup">2018-02-12</property>
  <property name="meta.attr.creation_time.markup">10:55:32</property>
  <property name="meta.attr.time_reference.markup">161427259</property>
  <property name="meta.attr.umid.markup">0x00000000000000000000000000000000000000000000000000000000D20029D40BE531B1D0A1F4EDFE7F0000507639030100000010A2F4EDFE7F00003D465D6B</property>
  <property name="seekable">1</property>
  <property name="audio_index">0</property>
  <property name="video_index">-1</property>
  <property name="mute_on_pause">1</property>
  <property name="mlt_service">avformat</property>
  <property name="kdenlive:clipname"/>
  <property name="kdenlive:clip_type">1</property>
  <property name="kdenlive:folderid">265</property>
  <property name="kdenlive:id">273</property>
  <property name="kdenlive:file_size">18954602</property>
  <property name="kdenlive:file_hash">6da569f8a0432dca04934ff49dcfc1eb</property>
  <property name="kdenlive:audio_max0">204</property>
 </producer>
 <producer id="producer212" in="00:00:00.000" out="00:04:25.100">
  <property name="length">15907</property>
  <property name="eof">pause</property>
  <property name="resource">audio/music/Nursery/Night Light */Night Light (-precussion).wav</property>
  <property name="meta.media.nb_streams">1</property>
  <property name="meta.media.0.stream.type">audio</property>
  <property name="meta.media.0.codec.sample_fmt">s16</property>
  <property name="meta.media.0.codec.sample_rate">44100</property>
  <property name="meta.media.0.codec.channels">2</property>
  <property name="meta.media.0.codec.name">pcm_s16le</property>
  <property name="meta.media.0.codec.long_name">PCM signed 16-bit little-endian</property>
  <property name="meta.media.0.codec.bit_rate">1411200</property>
  <property name="meta.attr.date.markup">2016-10-15</property>
  <property name="meta.attr.encoder.markup">Lavf58.76.100</property>
  <property name="meta.attr.encoded_by.markup">Logic Pro X</property>
  <property name="seekable">1</property>
  <property name="audio_index">0</property>
  <property name="video_index">-1</property>
  <property name="mute_on_pause">1</property>
  <property name="mlt_service">avformat</property>
  <property name="kdenlive:clipname"/>
  <property name="kdenlive:clip_type">1</property>
  <property name="kdenlive:folderid">272</property>
  <property name="kdenlive:id">274</property>
  <property name="kdenlive:file_size">46765766</property>
  <property name="kdenlive:file_hash">6c6222b2fb0c53b62fe718ad07042f83</property>
  <property name="kdenlive:audio_max0">140</property>
 </producer>
 <producer id="producer213" in="00:00:00.000" out="00:04:25.100">
  <property name="length">15907</property>
  <property name="eof">pause</property>
  <property name="resource">audio/music/Nursery/Night Light */Night Light.wav</property>
  <property name="meta.media.nb_streams">1</property>
  <property name="meta.media.0.stream.type">audio</property>
  <property name="meta.media.0.codec.sample_fmt">s32</property>
  <property name="meta.media.0.codec.sample_rate">44100</property>
  <property name="meta.media.0.codec.channels">2</property>
  <property name="meta.media.0.codec.name">pcm_s24le</property>
  <property name="meta.media.0.codec.long_name">PCM signed 24-bit little-endian</property>
  <property name="meta.media.0.codec.bit_rate">2116800</property>
  <property name="meta.attr.encoded_by.markup">Logic Pro X</property>
  <property name="meta.attr.date.markup">2016-10-15</property>
  <property name="meta.attr.creation_time.markup">14:12:30</property>
  <property name="meta.attr.time_reference.markup">158760000</property>
  <property name="meta.attr.umid.markup">0x00000000D6A9DD3E92780051303A6853FF7F00006040420500600000000000000000000046B4530D0100000070C0CE7BFF7F000060326853FF7F00002A45B791</property>
  <property name="seekable">1</property>
  <property name="audio_index">0</property>
  <property name="video_index">-1</property>
  <property name="mute_on_pause">1</property>
  <property name="mlt_service">avformat</property>
  <property name="kdenlive:clipname"/>
  <property name="kdenlive:clip_type">1</property>
  <property name="kdenlive:folderid">272</property>
  <property name="kdenlive:id">276</property>
  <property name="kdenlive:file_size">70159664</property>
  <property name="kdenlive:file_hash">e75bc7cf0161aaff6eb4c637fd927aee</property>
  <property name="kdenlive:audio_max0">237</property>
 </producer>
 <producer id="producer214" in="00:00:00.000" out="00:04:25.100">
  <property name="length">15907</property>
  <property name="eof">pause</property>
  <property name="resource">audio/music/Nursery/Night Light */stems/01_Night Light_Rhodes.wav</property>
  <property name="meta.media.nb_streams">1</property>
  <property name="meta.media.0.stream.type">audio</property>
  <property name="meta.media.0.codec.sample_fmt">s32</property>
  <property name="meta.media.0.codec.sample_rate">44100</property>
  <property name="meta.media.0.codec.channels">2</property>
  <property name="meta.media.0.codec.name">pcm_s24le</property>
  <property name="meta.media.0.codec.long_name">PCM signed 24-bit little-endian</property>
  <property name="meta.media.0.codec.bit_rate">2116800</property>
  <property name="meta.attr.encoded_by.markup">Logic Pro X</property>
  <property name="meta.attr.date.markup">2016-10-15</property>
  <property name="meta.attr.creation_time.markup">14:18:51</property>
  <property name="meta.attr.time_reference.markup">158760000</property>
  <property name="meta.attr.umid.markup">0x00000000D6A9DD3E92780051303A6853FF7F0000C081620500600000000000000000000046B4530D0100000070C0CE7BFF7F000060326853FF7F00002A45B791</property>
  <property name="seekable">1</property>
  <property name="audio_index">0</property>
  <property name="video_index">-1</property>
  <property name="mute_on_pause">1</property>
  <property name="mlt_service">avformat</property>
  <property name="kdenlive:clipname"/>
  <property name="kdenlive:clip_type">1</property>
  <property name="kdenlive:folderid">275</property>
  <property name="kdenlive:id">277</property>
  <property name="kdenlive:file_size">70158604</property>
  <property name="kdenlive:file_hash">70fa279eeb70de618d66c58782577903</property>
  <property name="kdenlive:audio_max0">140</property>
 </producer>
 <producer id="producer215" in="00:00:00.000" out="00:04:25.100">
  <property name="length">15907</property>
  <property name="eof">pause</property>
  <property name="resource">audio/music/Nursery/Night Light */stems/02_Night Light_Piano.wav</property>
  <property name="meta.media.nb_streams">1</property>
  <property name="meta.media.0.stream.type">audio</property>
  <property name="meta.media.0.codec.sample_fmt">s32</property>
  <property name="meta.media.0.codec.sample_rate">44100</property>
  <property name="meta.media.0.codec.channels">2</property>
  <property name="meta.media.0.codec.name">pcm_s24le</property>
  <property name="meta.media.0.codec.long_name">PCM signed 24-bit little-endian</property>
  <property name="meta.media.0.codec.bit_rate">2116800</property>
  <property name="meta.attr.encoded_by.markup">Logic Pro X</property>
  <property name="meta.attr.date.markup">2016-10-15</property>
  <property name="meta.attr.creation_time.markup">14:17:35</property>
  <property name="meta.attr.time_reference.markup">158760000</property>
  <property name="meta.attr.umid.markup">0x00000000D6A9DD3E92780051303A6853FF7F000040D9A30580600000000000000000000046B4530D0100000070C0CE7BFF7F000060326853FF7F00002A45B791</property>
  <property name="seekable">1</property>
  <property name="audio_index">0</property>
  <property name="video_index">-1</property>
  <property name="mute_on_pause">1</property>
  <property name="mlt_service">avformat</property>
  <property name="kdenlive:clipname"/>
  <property name="kdenlive:clip_type">1</property>
  <property name="kdenlive:folderid">275</property>
  <property name="kdenlive:id">278</property>
  <property name="kdenlive:file_size">70158604</property>
  <property name="kdenlive:file_hash">3c193e1b4797550cb809568c7110f3cb</property>
  <property name="kdenlive:audio_max0">205</property>
 </producer>
 <producer id="producer216" in="00:00:00.000" out="00:04:25.100">
  <property name="length">15907</property>
  <property name="eof">pause</property>
  <property name="resource">audio/music/Nursery/Night Light */stems/03_Night Light_Tongue Drum.wav</property>
  <property name="meta.media.nb_streams">1</property>
  <property name="meta.media.0.stream.type">audio</property>
  <property name="meta.media.0.codec.sample_fmt">s32</property>
  <property name="meta.media.0.codec.sample_rate">44100</property>
  <property name="meta.media.0.codec.channels">2</property>
  <property name="meta.media.0.codec.name">pcm_s24le</property>
  <property name="meta.media.0.codec.long_name">PCM signed 24-bit little-endian</property>
  <property name="meta.media.0.codec.bit_rate">2116800</property>
  <property name="meta.attr.encoded_by.markup">Logic Pro X</property>
  <property name="meta.attr.date.markup">2016-10-15</property>
  <property name="meta.attr.creation_time.markup">14:15:11</property>
  <property name="meta.attr.time_reference.markup">158760000</property>
  <property name="meta.attr.umid.markup">0x00000000D6A9DD3E92780051303A6853FF7F0000E082420500600000000000000000000046B4530D0100000070C0CE7BFF7F000060326853FF7F00002A45B791</property>
  <property name="seekable">1</property>
  <property name="audio_index">0</property>
  <property name="video_index">-1</property>
  <property name="mute_on_pause">1</property>
  <property name="mlt_service">avformat</property>
  <property name="kdenlive:clipname"/>
  <property name="kdenlive:clip_type">1</property>
  <property name="kdenlive:folderid">275</property>
  <property name="kdenlive:id">279</property>
  <property name="kdenlive:file_size">70158604</property>
  <property name="kdenlive:file_hash">bdfeb1114ee28d336e1e7b0acbae544f</property>
  <property name="kdenlive:audio_max0">187</property>
 </producer>
 <producer id="producer217" in="00:00:00.000" out="00:04:25.100">
  <property name="length">15907</property>
  <property name="eof">pause</property>
  <property name="resource">audio/music/Nursery/Night Light */stems/04_Night Light_Drum Kit.wav</property>
  <property name="meta.media.nb_streams">1</property>
  <property name="meta.media.0.stream.type">audio</property>
  <property name="meta.media.0.codec.sample_fmt">s32</property>
  <property name="meta.media.0.codec.sample_rate">44100</property>
  <property name="meta.media.0.codec.channels">2</property>
  <property name="meta.media.0.codec.name">pcm_s24le</property>
  <property name="meta.media.0.codec.long_name">PCM signed 24-bit little-endian</property>
  <property name="meta.media.0.codec.bit_rate">2116800</property>
  <property name="meta.attr.encoded_by.markup">Logic Pro X</property>
  <property name="meta.attr.date.markup">2016-10-15</property>
  <property name="meta.attr.creation_time.markup">14:14:21</property>
  <property name="meta.attr.time_reference.markup">158760000</property>
  <property name="meta.attr.umid.markup">0x00000000D6A9DD3E92780051303A6853FF7F00000047420500600000000000000000000046B4530D0100000070C0CE7BFF7F000060326853FF7F00002A45B791</property>
  <property name="seekable">1</property>
  <property name="audio_index">0</property>
  <property name="video_index">-1</property>
  <property name="mute_on_pause">1</property>
  <property name="mlt_service">avformat</property>
  <property name="kdenlive:clipname"/>
  <property name="kdenlive:clip_type">1</property>
  <property name="kdenlive:folderid">275</property>
  <property name="kdenlive:id">280</property>
  <property name="kdenlive:file_size">70158604</property>
  <property name="kdenlive:file_hash">3dc7482e69007963f8a38c5c2c5459c4</property>
  <property name="kdenlive:audio_max0">133</property>
 </producer>
 <producer id="producer218" in="00:00:00.000" out="00:04:25.100">
  <property name="length">15907</property>
  <property name="eof">pause</property>
  <property name="resource">audio/music/Nursery/Night Light */stems/05_Night Light_Found Percussion.wav</property>
  <property name="meta.media.nb_streams">1</property>
  <property name="meta.media.0.stream.type">audio</property>
  <property name="meta.media.0.codec.sample_fmt">s32</property>
  <property name="meta.media.0.codec.sample_rate">44100</property>
  <property name="meta.media.0.codec.channels">2</property>
  <property name="meta.media.0.codec.name">pcm_s24le</property>
  <property name="meta.media.0.codec.long_name">PCM signed 24-bit little-endian</property>
  <property name="meta.media.0.codec.bit_rate">2116800</property>
  <property name="meta.attr.encoded_by.markup">Logic Pro X</property>
  <property name="meta.attr.date.markup">2016-10-15</property>
  <property name="meta.attr.creation_time.markup">14:13:55</property>
  <property name="meta.attr.time_reference.markup">158760000</property>
  <property name="meta.attr.umid.markup">0x00000000D6A9DD3E92780051303A6853FF7F00008051430500600000000000000000000046B4530D0100000070C0CE7BFF7F000060326853FF7F00002A45B791</property>
  <property name="seekable">1</property>
  <property name="audio_index">0</property>
  <property name="video_index">-1</property>
  <property name="mute_on_pause">1</property>
  <property name="mlt_service">avformat</property>
  <property name="kdenlive:clipname"/>
  <property name="kdenlive:clip_type">1</property>
  <property name="kdenlive:folderid">275</property>
  <property name="kdenlive:id">281</property>
  <property name="kdenlive:file_size">70158604</property>
  <property name="kdenlive:file_hash">fadec85dc05d24365d873f616e3c6255</property>
  <property name="kdenlive:audio_max0">73</property>
 </producer>
 <producer id="producer219" in="00:00:00.000" out="00:04:25.100">
  <property name="length">15907</property>
  <property name="eof">pause</property>
  <property name="resource">audio/music/Nursery/Night Light */stems/output.wav</property>
  <property name="meta.media.nb_streams">1</property>
  <property name="meta.media.0.stream.type">audio</property>
  <property name="meta.media.0.codec.sample_fmt">s16</property>
  <property name="meta.media.0.codec.sample_rate">44100</property>
  <property name="meta.media.0.codec.channels">2</property>
  <property name="meta.media.0.codec.name">pcm_s16le</property>
  <property name="meta.media.0.codec.long_name">PCM signed 16-bit little-endian</property>
  <property name="meta.media.0.codec.bit_rate">1411200</property>
  <property name="meta.attr.date.markup">2016-10-15</property>
  <property name="meta.attr.encoder.markup">Lavf58.76.100</property>
  <property name="meta.attr.encoded_by.markup">Logic Pro X</property>
  <property name="seekable">1</property>
  <property name="audio_index">0</property>
  <property name="video_index">-1</property>
  <property name="mute_on_pause">1</property>
  <property name="mlt_service">avformat</property>
  <property name="kdenlive:clipname"/>
  <property name="kdenlive:clip_type">1</property>
  <property name="kdenlive:folderid">275</property>
  <property name="kdenlive:id">283</property>
  <property name="kdenlive:file_size">46765766</property>
  <property name="kdenlive:file_hash">6c6222b2fb0c53b62fe718ad07042f83</property>
  <property name="kdenlive:audio_max0">140</property>
 </producer>
 <producer id="producer220" in="00:00:00.000" out="00:04:24.500">
  <property name="length">15871</property>
  <property name="eof">pause</property>
  <property name="resource">audio/music/Nursery/Petaluma/Petaluma.wav</property>
  <property name="meta.media.nb_streams">1</property>
  <property name="meta.media.0.stream.type">audio</property>
  <property name="meta.media.0.codec.sample_fmt">s32</property>
  <property name="meta.media.0.codec.sample_rate">44100</property>
  <property name="meta.media.0.codec.channels">2</property>
  <property name="meta.media.0.codec.name">pcm_s24le</property>
  <property name="meta.media.0.codec.long_name">PCM signed 24-bit little-endian</property>
  <property name="meta.media.0.codec.bit_rate">2116800</property>
  <property name="meta.attr.encoded_by.markup">Logic Pro X</property>
  <property name="meta.attr.date.markup">2016-10-15</property>
  <property name="meta.attr.creation_time.markup">11:53:35</property>
  <property name="meta.attr.time_reference.markup">158760000</property>
  <property name="meta.attr.umid.markup">0x00000000D6A9DD3E92780051303A6853FF7F00006054630500600000000000000000000046B4530D0100000070C0CE7BFF7F000060326853FF7F00002A45B791</property>
  <property name="seekable">1</property>
  <property name="audio_index">0</property>
  <property name="video_index">-1</property>
  <property name="mute_on_pause">1</property>
  <property name="mlt_service">avformat</property>
  <property name="kdenlive:clipname"/>
  <property name="kdenlive:clip_type">1</property>
  <property name="kdenlive:folderid">282</property>
  <property name="kdenlive:id">285</property>
  <property name="kdenlive:file_size">69992754</property>
  <property name="kdenlive:file_hash">1ae67176c107cb81f9a5189a79b76e54</property>
  <property name="kdenlive:audio_max0">241</property>
 </producer>
 <producer id="producer221" in="00:00:00.000" out="00:04:24.500">
  <property name="length">15871</property>
  <property name="eof">pause</property>
  <property name="resource">audio/music/Nursery/Petaluma/stems/01_Petaluma_Rhodes.wav</property>
  <property name="meta.media.nb_streams">1</property>
  <property name="meta.media.0.stream.type">audio</property>
  <property name="meta.media.0.codec.sample_fmt">s32</property>
  <property name="meta.media.0.codec.sample_rate">44100</property>
  <property name="meta.media.0.codec.channels">2</property>
  <property name="meta.media.0.codec.name">pcm_s24le</property>
  <property name="meta.media.0.codec.long_name">PCM signed 24-bit little-endian</property>
  <property name="meta.media.0.codec.bit_rate">2116800</property>
  <property name="meta.attr.encoded_by.markup">Logic Pro X</property>
  <property name="meta.attr.date.markup">2016-10-15</property>
  <property name="meta.attr.creation_time.markup">11:50:02</property>
  <property name="meta.attr.time_reference.markup">158760000</property>
  <property name="meta.attr.umid.markup">0x00000000D6A9DD3E92780051303A6853FF7F000080E6430500600000000000000000000046B4530D0100000070C0CE7BFF7F000060326853FF7F00002A45B791</property>
  <property name="seekable">1</property>
  <property name="audio_index">0</property>
  <property name="video_index">-1</property>
  <property name="mute_on_pause">1</property>
  <property name="mlt_service">avformat</property>
  <property name="kdenlive:clipname"/>
  <property name="kdenlive:clip_type">1</property>
  <property name="kdenlive:folderid">284</property>
  <property name="kdenlive:id">286</property>
  <property name="kdenlive:file_size">69991694</property>
  <property name="kdenlive:file_hash">1b3cb6179ab8f71328fb6d2bdc6ae29c</property>
  <property name="kdenlive:audio_max0">172</property>
 </producer>
 <producer id="producer222" in="00:00:00.000" out="00:04:24.500">
  <property name="length">15871</property>
  <property name="eof">pause</property>
  <property name="resource">audio/music/Nursery/Petaluma/stems/02_Petaluma_Piano.wav</property>
  <property name="meta.media.nb_streams">1</property>
  <property name="meta.media.0.stream.type">audio</property>
  <property name="meta.media.0.codec.sample_fmt">s32</property>
  <property name="meta.media.0.codec.sample_rate">44100</property>
  <property name="meta.media.0.codec.channels">2</property>
  <property name="meta.media.0.codec.name">pcm_s24le</property>
  <property name="meta.media.0.codec.long_name">PCM signed 24-bit little-endian</property>
  <property name="meta.media.0.codec.bit_rate">2116800</property>
  <property name="meta.attr.encoded_by.markup">Logic Pro X</property>
  <property name="meta.attr.date.markup">2016-10-15</property>
  <property name="meta.attr.creation_time.markup">11:49:25</property>
  <property name="meta.attr.time_reference.markup">158760000</property>
  <property name="meta.attr.umid.markup">0x00000000D6A9DD3E92780051303A6853FF7F0000803C620500600000000000000000000046B4530D0100000070C0CE7BFF7F000060326853FF7F00002A45B791</property>
  <property name="seekable">1</property>
  <property name="audio_index">0</property>
  <property name="video_index">-1</property>
  <property name="mute_on_pause">1</property>
  <property name="mlt_service">avformat</property>
  <property name="kdenlive:clipname"/>
  <property name="kdenlive:clip_type">1</property>
  <property name="kdenlive:folderid">284</property>
  <property name="kdenlive:id">287</property>
  <property name="kdenlive:file_size">69991694</property>
  <property name="kdenlive:file_hash">1c56ac8c410b6c44330cd1cdb72f7750</property>
  <property name="kdenlive:audio_max0">203</property>
 </producer>
 <producer id="producer223" in="00:00:00.000" out="00:04:24.500">
  <property name="length">15871</property>
  <property name="eof">pause</property>
  <property name="resource">audio/music/Nursery/Petaluma/stems/03_Petaluma_Tongue Drum.wav</property>
  <property name="meta.media.nb_streams">1</property>
  <property name="meta.media.0.stream.type">audio</property>
  <property name="meta.media.0.codec.sample_fmt">s32</property>
  <property name="meta.media.0.codec.sample_rate">44100</property>
  <property name="meta.media.0.codec.channels">2</property>
  <property name="meta.media.0.codec.name">pcm_s24le</property>
  <property name="meta.media.0.codec.long_name">PCM signed 24-bit little-endian</property>
  <property name="meta.media.0.codec.bit_rate">2116800</property>
  <property name="meta.attr.encoded_by.markup">Logic Pro X</property>
  <property name="meta.attr.date.markup">2016-10-15</property>
  <property name="meta.attr.creation_time.markup">11:48:47</property>
  <property name="meta.attr.time_reference.markup">158760000</property>
  <property name="meta.attr.umid.markup">0x00000000D6A9DD3E92780051303A6853FF7F0000C0E6630580600000000000000000000046B4530D0100000070C0CE7BFF7F000060326853FF7F00002A45B791</property>
  <property name="seekable">1</property>
  <property name="audio_index">0</property>
  <property name="video_index">-1</property>
  <property name="mute_on_pause">1</property>
  <property name="mlt_service">avformat</property>
  <property name="kdenlive:clipname"/>
  <property name="kdenlive:clip_type">1</property>
  <property name="kdenlive:folderid">284</property>
  <property name="kdenlive:id">288</property>
  <property name="kdenlive:file_size">69991694</property>
  <property name="kdenlive:file_hash">d258c8978ae941253b3093f5c64f0198</property>
  <property name="kdenlive:audio_max0">164</property>
 </producer>
 <producer id="producer224" in="00:00:00.000" out="00:04:24.500">
  <property name="length">15871</property>
  <property name="eof">pause</property>
  <property name="resource">audio/music/Nursery/Petaluma/stems/04_Petaluma_Percussion.wav</property>
  <property name="meta.media.nb_streams">1</property>
  <property name="meta.media.0.stream.type">audio</property>
  <property name="meta.media.0.codec.sample_fmt">s32</property>
  <property name="meta.media.0.codec.sample_rate">44100</property>
  <property name="meta.media.0.codec.channels">2</property>
  <property name="meta.media.0.codec.name">pcm_s24le</property>
  <property name="meta.media.0.codec.long_name">PCM signed 24-bit little-endian</property>
  <property name="meta.media.0.codec.bit_rate">2116800</property>
  <property name="meta.attr.encoded_by.markup">Logic Pro X</property>
  <property name="meta.attr.date.markup">2016-10-15</property>
  <property name="meta.attr.creation_time.markup">11:46:59</property>
  <property name="meta.attr.time_reference.markup">158760000</property>
  <property name="meta.attr.umid.markup">0x00000000D6A9DD3E92780051303A6853FF7F00004049430500600000000000000000000046B4530D0100000070C0CE7BFF7F000060326853FF7F00002A45B791</property>
  <property name="seekable">1</property>
  <property name="audio_index">0</property>
  <property name="video_index">-1</property>
  <property name="mute_on_pause">1</property>
  <property name="mlt_service">avformat</property>
  <property name="kdenlive:clipname"/>
  <property name="kdenlive:clip_type">1</property>
  <property name="kdenlive:folderid">284</property>
  <property name="kdenlive:id">289</property>
  <property name="kdenlive:file_size">69991694</property>
  <property name="kdenlive:file_hash">51c68bc54e50381f3ab7afd33ec2fa34</property>
  <property name="kdenlive:audio_max0">190</property>
 </producer>
 <producer id="producer225" in="00:00:00.000" out="00:04:24.500">
  <property name="length">15871</property>
  <property name="eof">pause</property>
  <property name="resource">audio/music/Nursery/Petaluma/stems/05_Petaluma_Fjoria SynPad.wav</property>
  <property name="meta.media.nb_streams">1</property>
  <property name="meta.media.0.stream.type">audio</property>
  <property name="meta.media.0.codec.sample_fmt">s32</property>
  <property name="meta.media.0.codec.sample_rate">44100</property>
  <property name="meta.media.0.codec.channels">2</property>
  <property name="meta.media.0.codec.name">pcm_s24le</property>
  <property name="meta.media.0.codec.long_name">PCM signed 24-bit little-endian</property>
  <property name="meta.media.0.codec.bit_rate">2116800</property>
  <property name="meta.attr.encoded_by.markup">Logic Pro X</property>
  <property name="meta.attr.date.markup">2016-10-15</property>
  <property name="meta.attr.creation_time.markup">11:46:05</property>
  <property name="meta.attr.time_reference.markup">158760000</property>
  <property name="meta.attr.umid.markup">0x00000000D6A9DD3E92780051303A6853FF7F0000A014620500600000000000000000000046B4530D0100000070C0CE7BFF7F000060326853FF7F00002A45B791</property>
  <property name="seekable">1</property>
  <property name="audio_index">0</property>
  <property name="video_index">-1</property>
  <property name="mute_on_pause">1</property>
  <property name="mlt_service">avformat</property>
  <property name="kdenlive:clipname"/>
  <property name="kdenlive:clip_type">1</property>
  <property name="kdenlive:folderid">284</property>
  <property name="kdenlive:id">290</property>
  <property name="kdenlive:file_size">69991694</property>
  <property name="kdenlive:file_hash">002c0da9196993200e64b7da8bd9f743</property>
  <property name="kdenlive:audio_max0">145</property>
 </producer>
 <producer id="producer226" in="00:00:00.000" out="00:04:24.500">
  <property name="length">15871</property>
  <property name="eof">pause</property>
  <property name="resource">audio/music/Nursery/Petaluma/stems/output.wav</property>
  <property name="meta.media.nb_streams">1</property>
  <property name="meta.media.0.stream.type">audio</property>
  <property name="meta.media.0.codec.sample_fmt">s16</property>
  <property name="meta.media.0.codec.sample_rate">44100</property>
  <property name="meta.media.0.codec.channels">2</property>
  <property name="meta.media.0.codec.name">pcm_s16le</property>
  <property name="meta.media.0.codec.long_name">PCM signed 16-bit little-endian</property>
  <property name="meta.media.0.codec.bit_rate">1411200</property>
  <property name="meta.attr.date.markup">2016-10-15</property>
  <property name="meta.attr.encoder.markup">Lavf58.76.100</property>
  <property name="meta.attr.encoded_by.markup">Logic Pro X</property>
  <property name="seekable">1</property>
  <property name="audio_index">0</property>
  <property name="video_index">-1</property>
  <property name="mute_on_pause">1</property>
  <property name="mlt_service">avformat</property>
  <property name="kdenlive:clipname"/>
  <property name="kdenlive:clip_type">1</property>
  <property name="kdenlive:folderid">284</property>
  <property name="kdenlive:id">292</property>
  <property name="kdenlive:file_size">46660762</property>
  <property name="kdenlive:file_hash">52a2f9c8f735ea4c0b1143e07b9a5a7f</property>
  <property name="kdenlive:audio_max0">148</property>
 </producer>
 <producer id="producer227" in="00:00:00.000" out="00:03:38.550">
  <property name="length">13114</property>
  <property name="eof">pause</property>
  <property name="resource">audio/music/Nursery/Stuffed Monster/Stuffed Monster.wav</property>
  <property name="meta.media.nb_streams">1</property>
  <property name="meta.media.0.stream.type">audio</property>
  <property name="meta.media.0.codec.sample_fmt">s32</property>
  <property name="meta.media.0.codec.sample_rate">44100</property>
  <property name="meta.media.0.codec.channels">2</property>
  <property name="meta.media.0.codec.name">pcm_s24le</property>
  <property name="meta.media.0.codec.long_name">PCM signed 24-bit little-endian</property>
  <property name="meta.media.0.codec.bit_rate">2116800</property>
  <property name="meta.attr.encoded_by.markup">Logic Pro X</property>
  <property name="meta.attr.date.markup">2016-10-22</property>
  <property name="meta.attr.creation_time.markup">18:53:28</property>
  <property name="meta.attr.time_reference.markup">158760000</property>
  <property name="meta.attr.umid.markup">0x00000000129092E22783004C309A4957FF7F000020450201006000000000000000000000465472090100000070A0C072FF7F000060924957FF7F00002A25A988</property>
  <property name="seekable">1</property>
  <property name="audio_index">0</property>
  <property name="video_index">-1</property>
  <property name="mute_on_pause">1</property>
  <property name="mlt_service">avformat</property>
  <property name="kdenlive:clipname"/>
  <property name="kdenlive:clip_type">1</property>
  <property name="kdenlive:folderid">291</property>
  <property name="kdenlive:id">294</property>
  <property name="kdenlive:file_size">57835790</property>
  <property name="kdenlive:file_hash">ecf61d177bd3db5d0c114358ae1912eb</property>
  <property name="kdenlive:audio_max0">238</property>
 </producer>
 <producer id="producer228" in="00:00:00.000" out="00:03:38.550">
  <property name="length">13114</property>
  <property name="eof">pause</property>
  <property name="resource">audio/music/Nursery/Stuffed Monster/stems/01_Stuffed Monster_Rhodes.wav</property>
  <property name="meta.media.nb_streams">1</property>
  <property name="meta.media.0.stream.type">audio</property>
  <property name="meta.media.0.codec.sample_fmt">s32</property>
  <property name="meta.media.0.codec.sample_rate">44100</property>
  <property name="meta.media.0.codec.channels">2</property>
  <property name="meta.media.0.codec.name">pcm_s24le</property>
  <property name="meta.media.0.codec.long_name">PCM signed 24-bit little-endian</property>
  <property name="meta.media.0.codec.bit_rate">2116800</property>
  <property name="meta.attr.encoded_by.markup">Logic Pro X</property>
  <property name="meta.attr.date.markup">2016-10-22</property>
  <property name="meta.attr.creation_time.markup">18:57:34</property>
  <property name="meta.attr.time_reference.markup">158760000</property>
  <property name="meta.attr.umid.markup">0x00000000129092E22783004C309A4957FF7F00004084E200006000000000000000000000465472090100000070A0C072FF7F000060924957FF7F00002A25A988</property>
  <property name="seekable">1</property>
  <property name="audio_index">0</property>
  <property name="video_index">-1</property>
  <property name="mute_on_pause">1</property>
  <property name="mlt_service">avformat</property>
  <property name="kdenlive:clipname"/>
  <property name="kdenlive:clip_type">1</property>
  <property name="kdenlive:folderid">293</property>
  <property name="kdenlive:id">295</property>
  <property name="kdenlive:file_size">57834730</property>
  <property name="kdenlive:file_hash">7361d82c315b14a079719b5e0d291966</property>
  <property name="kdenlive:audio_max0">195</property>
 </producer>
 <producer id="producer229" in="00:00:00.000" out="00:03:38.550">
  <property name="length">13114</property>
  <property name="eof">pause</property>
  <property name="resource">audio/music/Nursery/Stuffed Monster/stems/02_Stuffed Monster_Tongue Drum.wav</property>
  <property name="meta.media.nb_streams">1</property>
  <property name="meta.media.0.stream.type">audio</property>
  <property name="meta.media.0.codec.sample_fmt">s32</property>
  <property name="meta.media.0.codec.sample_rate">44100</property>
  <property name="meta.media.0.codec.channels">2</property>
  <property name="meta.media.0.codec.name">pcm_s24le</property>
  <property name="meta.media.0.codec.long_name">PCM signed 24-bit little-endian</property>
  <property name="meta.media.0.codec.bit_rate">2116800</property>
  <property name="meta.attr.encoded_by.markup">Logic Pro X</property>
  <property name="meta.attr.date.markup">2016-10-22</property>
  <property name="meta.attr.creation_time.markup">18:57:08</property>
  <property name="meta.attr.time_reference.markup">158760000</property>
  <property name="meta.attr.umid.markup">0x00000000129092E22783004C309A4957FF7F00006098E300006000000000000000000000465472090100000070A0C072FF7F000060924957FF7F00002A25A988</property>
  <property name="seekable">1</property>
  <property name="audio_index">0</property>
  <property name="video_index">-1</property>
  <property name="mute_on_pause">1</property>
  <property name="mlt_service">avformat</property>
  <property name="kdenlive:clipname"/>
  <property name="kdenlive:clip_type">1</property>
  <property name="kdenlive:folderid">293</property>
  <property name="kdenlive:id">296</property>
  <property name="kdenlive:file_size">57834730</property>
  <property name="kdenlive:file_hash">04d644093971fde697810e24cf6053d6</property>
  <property name="kdenlive:audio_max0">198</property>
 </producer>
 <producer id="producer230" in="00:00:00.000" out="00:03:38.550">
  <property name="length">13114</property>
  <property name="eof">pause</property>
  <property name="resource">audio/music/Nursery/Stuffed Monster/stems/03_Stuffed Monster_Drum Kit.wav</property>
  <property name="meta.media.nb_streams">1</property>
  <property name="meta.media.0.stream.type">audio</property>
  <property name="meta.media.0.codec.sample_fmt">s32</property>
  <property name="meta.media.0.codec.sample_rate">44100</property>
  <property name="meta.media.0.codec.channels">2</property>
  <property name="meta.media.0.codec.name">pcm_s24le</property>
  <property name="meta.media.0.codec.long_name">PCM signed 24-bit little-endian</property>
  <property name="meta.media.0.codec.bit_rate">2116800</property>
  <property name="meta.attr.encoded_by.markup">Logic Pro X</property>
  <property name="meta.attr.date.markup">2016-10-22</property>
  <property name="meta.attr.creation_time.markup">18:56:36</property>
  <property name="meta.attr.time_reference.markup">158760000</property>
  <property name="meta.attr.umid.markup">0x00000000129092E22783004C309A4957FF7F000060FDE200006000000000000000000000465472090100000070A0C072FF7F000060924957FF7F00002A25A988</property>
  <property name="seekable">1</property>
  <property name="audio_index">0</property>
  <property name="video_index">-1</property>
  <property name="mute_on_pause">1</property>
  <property name="mlt_service">avformat</property>
  <property name="kdenlive:clipname"/>
  <property name="kdenlive:clip_type">1</property>
  <property name="kdenlive:folderid">293</property>
  <property name="kdenlive:id">297</property>
  <property name="kdenlive:file_size">57834730</property>
  <property name="kdenlive:file_hash">5eab26c6b906ac1f1f96af1213c6ffeb</property>
  <property name="kdenlive:audio_max0">178</property>
 </producer>
 <producer id="producer231" in="00:00:00.000" out="00:03:38.550">
  <property name="length">13114</property>
  <property name="eof">pause</property>
  <property name="resource">audio/music/Nursery/Stuffed Monster/stems/04_Stuffed Monster_Uprught Bass.wav</property>
  <property name="meta.media.nb_streams">1</property>
  <property name="meta.media.0.stream.type">audio</property>
  <property name="meta.media.0.codec.sample_fmt">s32</property>
  <property name="meta.media.0.codec.sample_rate">44100</property>
  <property name="meta.media.0.codec.channels">2</property>
  <property name="meta.media.0.codec.name">pcm_s24le</property>
  <property name="meta.media.0.codec.long_name">PCM signed 24-bit little-endian</property>
  <property name="meta.media.0.codec.bit_rate">2116800</property>
  <property name="meta.attr.encoded_by.markup">Logic Pro X</property>
  <property name="meta.attr.date.markup">2016-10-22</property>
  <property name="meta.attr.creation_time.markup">18:54:56</property>
  <property name="meta.attr.time_reference.markup">158760000</property>
  <property name="meta.attr.umid.markup">0x00000000129092E22783004C309A4957FF7F00008056E200006000000000000000000000465472090100000070A0C072FF7F000060924957FF7F00002A25A988</property>
  <property name="seekable">1</property>
  <property name="audio_index">0</property>
  <property name="video_index">-1</property>
  <property name="mute_on_pause">1</property>
  <property name="mlt_service">avformat</property>
  <property name="kdenlive:clipname"/>
  <property name="kdenlive:clip_type">1</property>
  <property name="kdenlive:folderid">293</property>
  <property name="kdenlive:id">298</property>
  <property name="kdenlive:file_size">57834730</property>
  <property name="kdenlive:file_hash">5f89e051322f9c7983f1462b910cc012</property>
  <property name="kdenlive:audio_max0">184</property>
 </producer>
 <producer id="producer232" in="00:00:00.000" out="00:03:38.550">
  <property name="length">13114</property>
  <property name="eof">pause</property>
  <property name="resource">audio/music/Nursery/Stuffed Monster/stems/output.wav</property>
  <property name="meta.media.nb_streams">1</property>
  <property name="meta.media.0.stream.type">audio</property>
  <property name="meta.media.0.codec.sample_fmt">s16</property>
  <property name="meta.media.0.codec.sample_rate">44100</property>
  <property name="meta.media.0.codec.channels">2</property>
  <property name="meta.media.0.codec.name">pcm_s16le</property>
  <property name="meta.media.0.codec.long_name">PCM signed 16-bit little-endian</property>
  <property name="meta.media.0.codec.bit_rate">1411200</property>
  <property name="meta.attr.date.markup">2016-10-22</property>
  <property name="meta.attr.encoder.markup">Lavf58.76.100</property>
  <property name="meta.attr.encoded_by.markup">Logic Pro X</property>
  <property name="seekable">1</property>
  <property name="audio_index">0</property>
  <property name="video_index">-1</property>
  <property name="mute_on_pause">1</property>
  <property name="mlt_service">avformat</property>
  <property name="kdenlive:clipname"/>
  <property name="kdenlive:clip_type">1</property>
  <property name="kdenlive:folderid">293</property>
  <property name="kdenlive:id">300</property>
  <property name="kdenlive:file_size">38556118</property>
  <property name="kdenlive:file_hash">84ca81e38bb31fa76491f9c8edda9ac6</property>
  <property name="kdenlive:audio_max0">161</property>
 </producer>
 <producer id="producer233" in="00:00:00.000" out="00:03:42.833">
  <property name="length">13371</property>
  <property name="eof">pause</property>
  <property name="resource">audio/music/Nursery/The Callow */The Callow (-guitar -precussion).wav</property>
  <property name="meta.media.nb_streams">1</property>
  <property name="meta.media.0.stream.type">audio</property>
  <property name="meta.media.0.codec.sample_fmt">s16</property>
  <property name="meta.media.0.codec.sample_rate">44100</property>
  <property name="meta.media.0.codec.channels">2</property>
  <property name="meta.media.0.codec.name">pcm_s16le</property>
  <property name="meta.media.0.codec.long_name">PCM signed 16-bit little-endian</property>
  <property name="meta.media.0.codec.bit_rate">1411200</property>
  <property name="meta.attr.date.markup">2016-09-20</property>
  <property name="meta.attr.encoder.markup">Lavf58.76.100</property>
  <property name="meta.attr.encoded_by.markup">Logic Pro X</property>
  <property name="seekable">1</property>
  <property name="audio_index">0</property>
  <property name="video_index">-1</property>
  <property name="mute_on_pause">1</property>
  <property name="mlt_service">avformat</property>
  <property name="kdenlive:clipname"/>
  <property name="kdenlive:clip_type">1</property>
  <property name="kdenlive:folderid">299</property>
  <property name="kdenlive:id">301</property>
  <property name="kdenlive:file_size">39312118</property>
  <property name="kdenlive:file_hash">a9e5d693e46356e3aaba5ccc9492c661</property>
  <property name="kdenlive:audio_max0">205</property>
 </producer>
 <producer id="producer234" in="00:00:00.000" out="00:03:42.833">
  <property name="length">13371</property>
  <property name="eof">pause</property>
  <property name="resource">audio/music/Nursery/The Callow */The Callow.wav</property>
  <property name="meta.media.nb_streams">1</property>
  <property name="meta.media.0.stream.type">audio</property>
  <property name="meta.media.0.codec.sample_fmt">s32</property>
  <property name="meta.media.0.codec.sample_rate">44100</property>
  <property name="meta.media.0.codec.channels">2</property>
  <property name="meta.media.0.codec.name">pcm_s24le</property>
  <property name="meta.media.0.codec.long_name">PCM signed 24-bit little-endian</property>
  <property name="meta.media.0.codec.bit_rate">2116800</property>
  <property name="meta.attr.encoded_by.markup">Logic Pro X</property>
  <property name="meta.attr.date.markup">2016-09-20</property>
  <property name="meta.attr.creation_time.markup">19:09:28</property>
  <property name="meta.attr.time_reference.markup">158760000</property>
  <property name="meta.attr.umid.markup">0x00000000F227204F83D100C330BA3658FF7F0000A0416205006000000000000000000000463485080100000070301476FF7F000060B23658FF7F00002AB5FC8B</property>
  <property name="seekable">1</property>
  <property name="audio_index">0</property>
  <property name="video_index">-1</property>
  <property name="mute_on_pause">1</property>
  <property name="mlt_service">avformat</property>
  <property name="kdenlive:clipname"/>
  <property name="kdenlive:clip_type">1</property>
  <property name="kdenlive:folderid">299</property>
  <property name="kdenlive:id">303</property>
  <property name="kdenlive:file_size">58969790</property>
  <property name="kdenlive:file_hash">34c404ca0afe01b3d60971bed0578201</property>
  <property name="kdenlive:audio_max0">247</property>
 </producer>
 <producer id="producer235" in="00:00:00.000" out="00:03:42.833">
  <property name="length">13371</property>
  <property name="eof">pause</property>
  <property name="resource">audio/music/Nursery/The Callow */stems/01_The Callow_Rhodes.wav</property>
  <property name="meta.media.nb_streams">1</property>
  <property name="meta.media.0.stream.type">audio</property>
  <property name="meta.media.0.codec.sample_fmt">s32</property>
  <property name="meta.media.0.codec.sample_rate">44100</property>
  <property name="meta.media.0.codec.channels">2</property>
  <property name="meta.media.0.codec.name">pcm_s24le</property>
  <property name="meta.media.0.codec.long_name">PCM signed 24-bit little-endian</property>
  <property name="meta.media.0.codec.bit_rate">2116800</property>
  <property name="meta.attr.encoded_by.markup">Logic Pro X</property>
  <property name="meta.attr.date.markup">2016-09-20</property>
  <property name="meta.attr.creation_time.markup">19:13:53</property>
  <property name="meta.attr.time_reference.markup">158760000</property>
  <property name="meta.attr.umid.markup">0x00000000F227204F83D100C330BA3658FF7F000020C96205006000000000000000000000463485080100000070301476FF7F000060B23658FF7F00002AB5FC8B</property>
  <property name="seekable">1</property>
  <property name="audio_index">0</property>
  <property name="video_index">-1</property>
  <property name="mute_on_pause">1</property>
  <property name="mlt_service">avformat</property>
  <property name="kdenlive:clipname"/>
  <property name="kdenlive:clip_type">1</property>
  <property name="kdenlive:folderid">302</property>
  <property name="kdenlive:id">304</property>
  <property name="kdenlive:file_size">58968730</property>
  <property name="kdenlive:file_hash">202e4f3ce7a728660efe645ef3ac1b46</property>
  <property name="kdenlive:audio_max0">248</property>
 </producer>
 <producer id="producer236" in="00:00:00.000" out="00:03:42.833">
  <property name="length">13371</property>
  <property name="eof">pause</property>
  <property name="resource">audio/music/Nursery/The Callow */stems/02_The Callow_Electric Guitar.wav</property>
  <property name="meta.media.nb_streams">1</property>
  <property name="meta.media.0.stream.type">audio</property>
  <property name="meta.media.0.codec.sample_fmt">s32</property>
  <property name="meta.media.0.codec.sample_rate">44100</property>
  <property name="meta.media.0.codec.channels">2</property>
  <property name="meta.media.0.codec.name">pcm_s24le</property>
  <property name="meta.media.0.codec.long_name">PCM signed 24-bit little-endian</property>
  <property name="meta.media.0.codec.bit_rate">2116800</property>
  <property name="meta.attr.encoded_by.markup">Logic Pro X</property>
  <property name="meta.attr.date.markup">2016-09-20</property>
  <property name="meta.attr.creation_time.markup">19:13:16</property>
  <property name="meta.attr.time_reference.markup">158760000</property>
  <property name="meta.attr.umid.markup">0x00000000F227204F83D100C330BA3658FF7F0000E0DE4305006000000000000000000000463485080100000070301476FF7F000060B23658FF7F00002AB5FC8B</property>
  <property name="seekable">1</property>
  <property name="audio_index">0</property>
  <property name="video_index">-1</property>
  <property name="mute_on_pause">1</property>
  <property name="mlt_service">avformat</property>
  <property name="kdenlive:clipname"/>
  <property name="kdenlive:clip_type">1</property>
  <property name="kdenlive:folderid">302</property>
  <property name="kdenlive:id">305</property>
  <property name="kdenlive:file_size">58968730</property>
  <property name="kdenlive:file_hash">18d3ca473f07b87126eb5726bcc04f79</property>
  <property name="kdenlive:audio_max0">241</property>
 </producer>
 <producer id="producer237" in="00:00:00.000" out="00:03:42.833">
  <property name="length">13371</property>
  <property name="eof">pause</property>
  <property name="resource">audio/music/Nursery/The Callow */stems/03_The Callow_Tongue Drum.wav</property>
  <property name="meta.media.nb_streams">1</property>
  <property name="meta.media.0.stream.type">audio</property>
  <property name="meta.media.0.codec.sample_fmt">s32</property>
  <property name="meta.media.0.codec.sample_rate">44100</property>
  <property name="meta.media.0.codec.channels">2</property>
  <property name="meta.media.0.codec.name">pcm_s24le</property>
  <property name="meta.media.0.codec.long_name">PCM signed 24-bit little-endian</property>
  <property name="meta.media.0.codec.bit_rate">2116800</property>
  <property name="meta.attr.encoded_by.markup">Logic Pro X</property>
  <property name="meta.attr.date.markup">2016-09-20</property>
  <property name="meta.attr.creation_time.markup">19:12:39</property>
  <property name="meta.attr.time_reference.markup">158760000</property>
  <property name="meta.attr.umid.markup">0x00000000F227204F83D100C330BA3658FF7F000020266205006000000000000000000000463485080100000070301476FF7F000060B23658FF7F00002AB5FC8B</property>
  <property name="seekable">1</property>
  <property name="audio_index">0</property>
  <property name="video_index">-1</property>
  <property name="mute_on_pause">1</property>
  <property name="mlt_service">avformat</property>
  <property name="kdenlive:clipname"/>
  <property name="kdenlive:clip_type">1</property>
  <property name="kdenlive:folderid">302</property>
  <property name="kdenlive:id">306</property>
  <property name="kdenlive:file_size">58968730</property>
  <property name="kdenlive:file_hash">5cea50ba68e1270622ce9eb96195d440</property>
  <property name="kdenlive:audio_max0">237</property>
 </producer>
 <producer id="producer238" in="00:00:00.000" out="00:03:42.833">
  <property name="length">13371</property>
  <property name="eof">pause</property>
  <property name="resource">audio/music/Nursery/The Callow */stems/04_The Callow_Percussion.wav</property>
  <property name="meta.media.nb_streams">1</property>
  <property name="meta.media.0.stream.type">audio</property>
  <property name="meta.media.0.codec.sample_fmt">s32</property>
  <property name="meta.media.0.codec.sample_rate">44100</property>
  <property name="meta.media.0.codec.channels">2</property>
  <property name="meta.media.0.codec.name">pcm_s24le</property>
  <property name="meta.media.0.codec.long_name">PCM signed 24-bit little-endian</property>
  <property name="meta.media.0.codec.bit_rate">2116800</property>
  <property name="meta.attr.encoded_by.markup">Logic Pro X</property>
  <property name="meta.attr.date.markup">2016-09-20</property>
  <property name="meta.attr.creation_time.markup">19:12:05</property>
  <property name="meta.attr.time_reference.markup">158760000</property>
  <property name="meta.attr.umid.markup">0x00000000F227204F83D100C330BA3658FF7F000020EB0304806000000000000000000000463485080100000070301476FF7F000060B23658FF7F00002AB5FC8B</property>
  <property name="seekable">1</property>
  <property name="audio_index">0</property>
  <property name="video_index">-1</property>
  <property name="mute_on_pause">1</property>
  <property name="mlt_service">avformat</property>
  <property name="kdenlive:clipname"/>
  <property name="kdenlive:clip_type">1</property>
  <property name="kdenlive:folderid">302</property>
  <property name="kdenlive:id">307</property>
  <property name="kdenlive:file_size">58968730</property>
  <property name="kdenlive:file_hash">5e4d3b6d4bc110750988e3cc045342f7</property>
  <property name="kdenlive:audio_max0">249</property>
 </producer>
 <producer id="producer239" in="00:00:00.000" out="00:03:42.833">
  <property name="length">13371</property>
  <property name="eof">pause</property>
  <property name="resource">audio/music/Nursery/The Callow */stems/05_The Callow_Rhodia SynPad.wav</property>
  <property name="meta.media.nb_streams">1</property>
  <property name="meta.media.0.stream.type">audio</property>
  <property name="meta.media.0.codec.sample_fmt">s32</property>
  <property name="meta.media.0.codec.sample_rate">44100</property>
  <property name="meta.media.0.codec.channels">2</property>
  <property name="meta.media.0.codec.name">pcm_s24le</property>
  <property name="meta.media.0.codec.long_name">PCM signed 24-bit little-endian</property>
  <property name="meta.media.0.codec.bit_rate">2116800</property>
  <property name="meta.attr.encoded_by.markup">Logic Pro X</property>
  <property name="meta.attr.date.markup">2016-09-20</property>
  <property name="meta.attr.creation_time.markup">19:11:27</property>
  <property name="meta.attr.time_reference.markup">158760000</property>
  <property name="meta.attr.umid.markup">0x00000000F227204F83D100C330BA3658FF7F0000E01C6205006000000000000000000000463485080100000070301476FF7F000060B23658FF7F00002AB5FC8B</property>
  <property name="seekable">1</property>
  <property name="audio_index">0</property>
  <property name="video_index">-1</property>
  <property name="mute_on_pause">1</property>
  <property name="mlt_service">avformat</property>
  <property name="kdenlive:clipname"/>
  <property name="kdenlive:clip_type">1</property>
  <property name="kdenlive:folderid">302</property>
  <property name="kdenlive:id">309</property>
  <property name="kdenlive:file_size">58968730</property>
  <property name="kdenlive:file_hash">2e974032e8b92703bf20c4fb66793216</property>
  <property name="kdenlive:audio_max0">187</property>
 </producer>
 <producer id="producer240" in="00:00:00.000" out="00:03:20.783">
  <property name="length">12048</property>
  <property name="eof">pause</property>
  <property name="resource">audio/music/Nursery/ZigZag Heart */ZigZag Heart | Meditative.wav</property>
  <property name="meta.media.nb_streams">1</property>
  <property name="meta.media.0.stream.type">audio</property>
  <property name="meta.media.0.codec.sample_fmt">s32</property>
  <property name="meta.media.0.codec.sample_rate">44100</property>
  <property name="meta.media.0.codec.channels">2</property>
  <property name="meta.media.0.codec.name">pcm_s24le</property>
  <property name="meta.media.0.codec.long_name">PCM signed 24-bit little-endian</property>
  <property name="meta.media.0.codec.bit_rate">2116800</property>
  <property name="meta.attr.encoded_by.markup">Logic Pro X</property>
  <property name="meta.attr.date.markup">2018-02-10</property>
  <property name="meta.attr.creation_time.markup">15:12:20</property>
  <property name="meta.attr.time_reference.markup">159114345</property>
  <property name="meta.attr.umid.markup">0x00000000000000000000000000000000000000000000000000000000CC00889B81DD1CCBD0118AEEFE7F00005006A4020100000010128AEEFE7F00003D96E469</property>
  <property name="seekable">1</property>
  <property name="audio_index">0</property>
  <property name="video_index">-1</property>
  <property name="mute_on_pause">1</property>
  <property name="mlt_service">avformat</property>
  <property name="kdenlive:clipname"/>
  <property name="kdenlive:clip_type">1</property>
  <property name="kdenlive:folderid">308</property>
  <property name="kdenlive:id">310</property>
  <property name="kdenlive:file_size">53132484</property>
  <property name="kdenlive:file_hash">1216b145a55fabb8721baab8f416057b</property>
  <property name="kdenlive:audio_max0">232</property>
 </producer>
 <producer id="producer241" in="00:00:00.000" out="00:02:54.650">
  <property name="length">10480</property>
  <property name="eof">pause</property>
  <property name="resource">audio/music/Nursery/ZigZag Heart */ZigZag Heart.wav</property>
  <property name="meta.media.nb_streams">1</property>
  <property name="meta.media.0.stream.type">audio</property>
  <property name="meta.media.0.codec.sample_fmt">s32</property>
  <property name="meta.media.0.codec.sample_rate">44100</property>
  <property name="meta.media.0.codec.channels">2</property>
  <property name="meta.media.0.codec.name">pcm_s24le</property>
  <property name="meta.media.0.codec.long_name">PCM signed 24-bit little-endian</property>
  <property name="meta.media.0.codec.bit_rate">2116800</property>
  <property name="meta.attr.encoded_by.markup">Logic Pro X</property>
  <property name="meta.attr.date.markup">2018-02-10</property>
  <property name="meta.attr.creation_time.markup">14:28:37</property>
  <property name="meta.attr.time_reference.markup">159054000</property>
  <property name="meta.attr.umid.markup">0x00000000000000000000000000000000000000000000000000000000CC00889B81DD1CCBD0118AEEFE7F00005006A4020100000010128AEEFE7F00003D96E469</property>
  <property name="seekable">1</property>
  <property name="audio_index">0</property>
  <property name="video_index">-1</property>
  <property name="mute_on_pause">1</property>
  <property name="mlt_service">avformat</property>
  <property name="kdenlive:clipname"/>
  <property name="kdenlive:clip_type">1</property>
  <property name="kdenlive:folderid">308</property>
  <property name="kdenlive:id">312</property>
  <property name="kdenlive:file_size">46218624</property>
  <property name="kdenlive:file_hash">9137c81ef446c9ef011971e626b387dd</property>
  <property name="kdenlive:audio_max0">231</property>
 </producer>
 <producer id="producer242" in="00:00:00.000" out="00:02:54.650">
  <property name="length">10480</property>
  <property name="eof">pause</property>
  <property name="resource">audio/music/Nursery/ZigZag Heart */stems/01_ZigZag Heart_Tongue Drum.wav</property>
  <property name="meta.media.nb_streams">1</property>
  <property name="meta.media.0.stream.type">audio</property>
  <property name="meta.media.0.codec.sample_fmt">s32</property>
  <property name="meta.media.0.codec.sample_rate">44100</property>
  <property name="meta.media.0.codec.channels">2</property>
  <property name="meta.media.0.codec.name">pcm_s24le</property>
  <property name="meta.media.0.codec.long_name">PCM signed 24-bit little-endian</property>
  <property name="meta.media.0.codec.bit_rate">2116800</property>
  <property name="meta.attr.encoded_by.markup">Logic Pro X</property>
  <property name="meta.attr.date.markup">2018-02-10</property>
  <property name="meta.attr.creation_time.markup">14:58:28</property>
  <property name="meta.attr.time_reference.markup">159054000</property>
  <property name="meta.attr.umid.markup">0x00000000000000000000000000000000000000000000000000000000CC00889B81DD1CCB604E8AEEFE7F00005006A40201000000A04E8AEEFE7F00003D96E469</property>
  <property name="seekable">1</property>
  <property name="audio_index">0</property>
  <property name="video_index">-1</property>
  <property name="mute_on_pause">1</property>
  <property name="mlt_service">avformat</property>
  <property name="kdenlive:clipname"/>
  <property name="kdenlive:clip_type">1</property>
  <property name="kdenlive:folderid">311</property>
  <property name="kdenlive:id">313</property>
  <property name="kdenlive:file_size">46277760</property>
  <property name="kdenlive:file_hash">cf747a2254ce2fdf85f70c15c3e88dad</property>
  <property name="kdenlive:audio_max0">119</property>
 </producer>
 <producer id="producer243" in="00:00:00.000" out="00:02:54.650">
  <property name="length">10480</property>
  <property name="eof">pause</property>
  <property name="resource">audio/music/Nursery/ZigZag Heart */stems/02_ZigZag Heart_Tongue Drum.wav</property>
  <property name="meta.media.nb_streams">1</property>
  <property name="meta.media.0.stream.type">audio</property>
  <property name="meta.media.0.codec.sample_fmt">s32</property>
  <property name="meta.media.0.codec.sample_rate">44100</property>
  <property name="meta.media.0.codec.channels">2</property>
  <property name="meta.media.0.codec.name">pcm_s24le</property>
  <property name="meta.media.0.codec.long_name">PCM signed 24-bit little-endian</property>
  <property name="meta.media.0.codec.bit_rate">2116800</property>
  <property name="meta.attr.encoded_by.markup">Logic Pro X</property>
  <property name="meta.attr.date.markup">2018-02-10</property>
  <property name="meta.attr.creation_time.markup">14:58:34</property>
  <property name="meta.attr.time_reference.markup">159054000</property>
  <property name="meta.attr.umid.markup">0x00000000000000000000000000000000000000000000000000000000CC00889B81DD1CCB604E8AEEFE7F00005006A40201000000A04E8AEEFE7F00003D96E469</property>
  <property name="seekable">1</property>
  <property name="audio_index">0</property>
  <property name="video_index">-1</property>
  <property name="mute_on_pause">1</property>
  <property name="mlt_service">avformat</property>
  <property name="kdenlive:clipname"/>
  <property name="kdenlive:clip_type">1</property>
  <property name="kdenlive:folderid">311</property>
  <property name="kdenlive:id">314</property>
  <property name="kdenlive:file_size">46277760</property>
  <property name="kdenlive:file_hash">73958992ea77aca46bc33ac934be712e</property>
  <property name="kdenlive:audio_max0">127</property>
 </producer>
 <producer id="producer244" in="00:00:00.000" out="00:02:54.650">
  <property name="length">10480</property>
  <property name="eof">pause</property>
  <property name="resource">audio/music/Nursery/ZigZag Heart */stems/03_ZigZag Heart_Rhodes.wav</property>
  <property name="meta.media.nb_streams">1</property>
  <property name="meta.media.0.stream.type">audio</property>
  <property name="meta.media.0.codec.sample_fmt">s32</property>
  <property name="meta.media.0.codec.sample_rate">44100</property>
  <property name="meta.media.0.codec.channels">2</property>
  <property name="meta.media.0.codec.name">pcm_s24le</property>
  <property name="meta.media.0.codec.long_name">PCM signed 24-bit little-endian</property>
  <property name="meta.media.0.codec.bit_rate">2116800</property>
  <property name="meta.attr.encoded_by.markup">Logic Pro X</property>
  <property name="meta.attr.date.markup">2018-02-10</property>
  <property name="meta.attr.creation_time.markup">14:58:44</property>
  <property name="meta.attr.time_reference.markup">159054000</property>
  <property name="meta.attr.umid.markup">0x00000000000000000000000000000000000000000000000000000000CC00889B81DD1CCB604E8AEEFE7F00005006A40201000000A04E8AEEFE7F00003D96E469</property>
  <property name="seekable">1</property>
  <property name="audio_index">0</property>
  <property name="video_index">-1</property>
  <property name="mute_on_pause">1</property>
  <property name="mlt_service">avformat</property>
  <property name="kdenlive:clipname"/>
  <property name="kdenlive:clip_type">1</property>
  <property name="kdenlive:folderid">311</property>
  <property name="kdenlive:id">315</property>
  <property name="kdenlive:file_size">46277760</property>
  <property name="kdenlive:file_hash">067281467fe0be0f9f263f80174a2522</property>
  <property name="kdenlive:audio_max0">157</property>
 </producer>
 <producer id="producer245" in="00:00:00.000" out="00:02:54.650">
  <property name="length">10480</property>
  <property name="eof">pause</property>
  <property name="resource">audio/music/Nursery/ZigZag Heart */stems/04_ZigZag Heart_Tongue Drum.wav</property>
  <property name="meta.media.nb_streams">1</property>
  <property name="meta.media.0.stream.type">audio</property>
  <property name="meta.media.0.codec.sample_fmt">s32</property>
  <property name="meta.media.0.codec.sample_rate">44100</property>
  <property name="meta.media.0.codec.channels">2</property>
  <property name="meta.media.0.codec.name">pcm_s24le</property>
  <property name="meta.media.0.codec.long_name">PCM signed 24-bit little-endian</property>
  <property name="meta.media.0.codec.bit_rate">2116800</property>
  <property name="meta.attr.encoded_by.markup">Logic Pro X</property>
  <property name="meta.attr.date.markup">2018-02-10</property>
  <property name="meta.attr.creation_time.markup">14:58:40</property>
  <property name="meta.attr.time_reference.markup">159054000</property>
  <property name="meta.attr.umid.markup">0x00000000000000000000000000000000000000000000000000000000CC00889B81DD1CCB604E8AEEFE7F00005006A40201000000A04E8AEEFE7F00003D96E469</property>
  <property name="seekable">1</property>
  <property name="audio_index">0</property>
  <property name="video_index">-1</property>
  <property name="mute_on_pause">1</property>
  <property name="mlt_service">avformat</property>
  <property name="kdenlive:clipname"/>
  <property name="kdenlive:clip_type">1</property>
  <property name="kdenlive:folderid">311</property>
  <property name="kdenlive:id">316</property>
  <property name="kdenlive:file_size">46277760</property>
  <property name="kdenlive:file_hash">5634ed52e328baf9c4074ad068a14c63</property>
  <property name="kdenlive:audio_max0">163</property>
 </producer>
 <producer id="producer246" in="00:00:00.000" out="00:02:54.650">
  <property name="length">10480</property>
  <property name="eof">pause</property>
  <property name="resource">audio/music/Nursery/ZigZag Heart */stems/05_ZigZag Heart_Tongue Drum.wav</property>
  <property name="meta.media.nb_streams">1</property>
  <property name="meta.media.0.stream.type">audio</property>
  <property name="meta.media.0.codec.sample_fmt">s32</property>
  <property name="meta.media.0.codec.sample_rate">44100</property>
  <property name="meta.media.0.codec.channels">2</property>
  <property name="meta.media.0.codec.name">pcm_s24le</property>
  <property name="meta.media.0.codec.long_name">PCM signed 24-bit little-endian</property>
  <property name="meta.media.0.codec.bit_rate">2116800</property>
  <property name="meta.attr.encoded_by.markup">Logic Pro X</property>
  <property name="meta.attr.date.markup">2018-02-10</property>
  <property name="meta.attr.creation_time.markup">14:58:37</property>
  <property name="meta.attr.time_reference.markup">159054000</property>
  <property name="meta.attr.umid.markup">0x00000000000000000000000000000000000000000000000000000000CC00889B81DD1CCB604E8AEEFE7F00005006A40201000000A04E8AEEFE7F00003D96E469</property>
  <property name="seekable">1</property>
  <property name="audio_index">0</property>
  <property name="video_index">-1</property>
  <property name="mute_on_pause">1</property>
  <property name="mlt_service">avformat</property>
  <property name="kdenlive:clipname"/>
  <property name="kdenlive:clip_type">1</property>
  <property name="kdenlive:folderid">311</property>
  <property name="kdenlive:id">317</property>
  <property name="kdenlive:file_size">46277760</property>
  <property name="kdenlive:file_hash">bef804d54d8c038ebaff452efe6dc94e</property>
  <property name="kdenlive:audio_max0">121</property>
 </producer>
 <producer id="producer247" in="00:00:00.000" out="00:02:54.650">
  <property name="length">10480</property>
  <property name="eof">pause</property>
  <property name="resource">audio/music/Nursery/ZigZag Heart */stems/06_ZigZag Heart_Percussion.wav</property>
  <property name="meta.media.nb_streams">1</property>
  <property name="meta.media.0.stream.type">audio</property>
  <property name="meta.media.0.codec.sample_fmt">s32</property>
  <property name="meta.media.0.codec.sample_rate">44100</property>
  <property name="meta.media.0.codec.channels">2</property>
  <property name="meta.media.0.codec.name">pcm_s24le</property>
  <property name="meta.media.0.codec.long_name">PCM signed 24-bit little-endian</property>
  <property name="meta.media.0.codec.bit_rate">2116800</property>
  <property name="meta.attr.encoded_by.markup">Logic Pro X</property>
  <property name="meta.attr.date.markup">2018-02-10</property>
  <property name="meta.attr.creation_time.markup">14:58:31</property>
  <property name="meta.attr.time_reference.markup">159054000</property>
  <property name="meta.attr.umid.markup">0x00000000000000000000000000000000000000000000000000000000CC00889B81DD1CCB604E8AEEFE7F00005006A40201000000A04E8AEEFE7F00003D96E469</property>
  <property name="seekable">1</property>
  <property name="audio_index">0</property>
  <property name="video_index">-1</property>
  <property name="mute_on_pause">1</property>
  <property name="mlt_service">avformat</property>
  <property name="kdenlive:clipname"/>
  <property name="kdenlive:clip_type">1</property>
  <property name="kdenlive:folderid">311</property>
  <property name="kdenlive:id">319</property>
  <property name="kdenlive:file_size">46277760</property>
  <property name="kdenlive:file_hash">64ee279fe344b13413bff8836628d7e6</property>
  <property name="kdenlive:audio_max0">120</property>
 </producer>
 <producer id="producer248" in="00:00:00.000" out="00:00:34.850">
  <property name="length">2092</property>
  <property name="eof">pause</property>
  <property name="resource">audio/music/Nursery/ZigZag Heart */variations/ZigZag Heart | 30 Sec Mbira.wav</property>
  <property name="meta.media.nb_streams">1</property>
  <property name="meta.media.0.stream.type">audio</property>
  <property name="meta.media.0.codec.sample_fmt">s32</property>
  <property name="meta.media.0.codec.sample_rate">44100</property>
  <property name="meta.media.0.codec.channels">2</property>
  <property name="meta.media.0.codec.name">pcm_s24le</property>
  <property name="meta.media.0.codec.long_name">PCM signed 24-bit little-endian</property>
  <property name="meta.media.0.codec.bit_rate">2116800</property>
  <property name="meta.attr.encoded_by.markup">Logic Pro X</property>
  <property name="meta.attr.date.markup">2018-02-10</property>
  <property name="meta.attr.creation_time.markup">15:06:44</property>
  <property name="meta.attr.time_reference.markup">165101545</property>
  <property name="meta.attr.umid.markup">0x00000000000000000000000000000000000000000000000000000000CC00889B81DD1CCBD0118AEEFE7F00005006A4020100000010128AEEFE7F00003D96E469</property>
  <property name="seekable">1</property>
  <property name="audio_index">0</property>
  <property name="video_index">-1</property>
  <property name="mute_on_pause">1</property>
  <property name="mlt_service">avformat</property>
  <property name="kdenlive:clipname"/>
  <property name="kdenlive:clip_type">1</property>
  <property name="kdenlive:folderid">318</property>
  <property name="kdenlive:id">320</property>
  <property name="kdenlive:file_size">9227754</property>
  <property name="kdenlive:file_hash">657035ba312c4bc1b61c4f3f8a79bf8e</property>
  <property name="kdenlive:audio_max0">216</property>
 </producer>
 <producer id="producer249" in="00:00:00.000" out="00:00:34.850">
  <property name="length">2092</property>
  <property name="eof">pause</property>
  <property name="resource">audio/music/Nursery/ZigZag Heart */variations/ZigZag Heart | 30 Sec Simple.wav</property>
  <property name="meta.media.nb_streams">1</property>
  <property name="meta.media.0.stream.type">audio</property>
  <property name="meta.media.0.codec.sample_fmt">s32</property>
  <property name="meta.media.0.codec.sample_rate">44100</property>
  <property name="meta.media.0.codec.channels">2</property>
  <property name="meta.media.0.codec.name">pcm_s24le</property>
  <property name="meta.media.0.codec.long_name">PCM signed 24-bit little-endian</property>
  <property name="meta.media.0.codec.bit_rate">2116800</property>
  <property name="meta.attr.encoded_by.markup">Logic Pro X</property>
  <property name="meta.attr.date.markup">2018-02-10</property>
  <property name="meta.attr.creation_time.markup">15:05:35</property>
  <property name="meta.attr.time_reference.markup">165101545</property>
  <property name="meta.attr.umid.markup">0x00000000000000000000000000000000000000000000000000000000CC00889B81DD1CCBD0118AEEFE7F00005006A4020100000010128AEEFE7F00003D96E469</property>
  <property name="seekable">1</property>
  <property name="audio_index">0</property>
  <property name="video_index">-1</property>
  <property name="mute_on_pause">1</property>
  <property name="mlt_service">avformat</property>
  <property name="kdenlive:clipname"/>
  <property name="kdenlive:clip_type">1</property>
  <property name="kdenlive:folderid">318</property>
  <property name="kdenlive:id">321</property>
  <property name="kdenlive:file_size">9227754</property>
  <property name="kdenlive:file_hash">3d03dab9bb5a2708f7b645d85fe82a57</property>
  <property name="kdenlive:audio_max0">219</property>
 </producer>
 <producer id="producer250" in="00:00:00.000" out="00:02:54.450">
  <property name="length">10468</property>
  <property name="eof">pause</property>
  <property name="resource">audio/music/Nursery/ZigZag Heart */variations/ZigZag Heart | Atmo.wav</property>
  <property name="meta.media.nb_streams">1</property>
  <property name="meta.media.0.stream.type">audio</property>
  <property name="meta.media.0.codec.sample_fmt">s32</property>
  <property name="meta.media.0.codec.sample_rate">44100</property>
  <property name="meta.media.0.codec.channels">2</property>
  <property name="meta.media.0.codec.name">pcm_s24le</property>
  <property name="meta.media.0.codec.long_name">PCM signed 24-bit little-endian</property>
  <property name="meta.media.0.codec.bit_rate">2116800</property>
  <property name="meta.attr.encoded_by.markup">Logic Pro X</property>
  <property name="meta.attr.date.markup">2018-02-10</property>
  <property name="meta.attr.creation_time.markup">15:00:51</property>
  <property name="meta.attr.time_reference.markup">159063161</property>
  <property name="meta.attr.umid.markup">0x00000000000000000000000000000000000000000000000000000000CC00889B81DD1CCBD0118AEEFE7F00005006A4020100000010128AEEFE7F00003D96E469</property>
  <property name="seekable">1</property>
  <property name="audio_index">0</property>
  <property name="video_index">-1</property>
  <property name="mute_on_pause">1</property>
  <property name="mlt_service">avformat</property>
  <property name="kdenlive:clipname"/>
  <property name="kdenlive:clip_type">1</property>
  <property name="kdenlive:folderid">318</property>
  <property name="kdenlive:id">322</property>
  <property name="kdenlive:file_size">46163658</property>
  <property name="kdenlive:file_hash">09440f67d0d1705c06ff76316e09ba16</property>
  <property name="kdenlive:audio_max0">237</property>
 </producer>
 <producer id="producer251" in="00:00:00.000" out="00:02:50.950">
  <property name="length">10258</property>
  <property name="eof">pause</property>
  <property name="resource">audio/music/Nursery/ZigZag Heart */variations/ZigZag Heart | Junk Rhythm.wav</property>
  <property name="meta.media.nb_streams">1</property>
  <property name="meta.media.0.stream.type">audio</property>
  <property name="meta.media.0.codec.sample_fmt">s32</property>
  <property name="meta.media.0.codec.sample_rate">44100</property>
  <property name="meta.media.0.codec.channels">2</property>
  <property name="meta.media.0.codec.name">pcm_s24le</property>
  <property name="meta.media.0.codec.long_name">PCM signed 24-bit little-endian</property>
  <property name="meta.media.0.codec.bit_rate">2116800</property>
  <property name="meta.attr.encoded_by.markup">Logic Pro X</property>
  <property name="meta.attr.date.markup">2018-02-10</property>
  <property name="meta.attr.creation_time.markup">15:00:06</property>
  <property name="meta.attr.time_reference.markup">159217227</property>
  <property name="meta.attr.umid.markup">0x00000000000000000000000000000000000000000000000000000000CC00889B81DD1CCBD0118AEEFE7F00005006A4020100000010128AEEFE7F00003D96E469</property>
  <property name="seekable">1</property>
  <property name="audio_index">0</property>
  <property name="video_index">-1</property>
  <property name="mute_on_pause">1</property>
  <property name="mlt_service">avformat</property>
  <property name="kdenlive:clipname"/>
  <property name="kdenlive:clip_type">1</property>
  <property name="kdenlive:folderid">318</property>
  <property name="kdenlive:id">323</property>
  <property name="kdenlive:file_size">45239262</property>
  <property name="kdenlive:file_hash">463c569704a4d55ffa6fa298e0f669b2</property>
  <property name="kdenlive:audio_max0">228</property>
 </producer>
 <producer id="producer252" in="00:00:00.000" out="00:02:21.833">
  <property name="length">8511</property>
  <property name="eof">pause</property>
  <property name="resource">audio/music/Nursery/ZigZag Heart */variations/ZigZag Heart | Low Pacer.wav</property>
  <property name="meta.media.nb_streams">1</property>
  <property name="meta.media.0.stream.type">audio</property>
  <property name="meta.media.0.codec.sample_fmt">s32</property>
  <property name="meta.media.0.codec.sample_rate">44100</property>
  <property name="meta.media.0.codec.channels">2</property>
  <property name="meta.media.0.codec.name">pcm_s24le</property>
  <property name="meta.media.0.codec.long_name">PCM signed 24-bit little-endian</property>
  <property name="meta.media.0.codec.bit_rate">2116800</property>
  <property name="meta.attr.encoded_by.markup">Logic Pro X</property>
  <property name="meta.attr.date.markup">2018-02-10</property>
  <property name="meta.attr.creation_time.markup">15:16:53</property>
  <property name="meta.attr.time_reference.markup">159010317</property>
  <property name="meta.attr.umid.markup">0x00000000000000000000000000000000000000000000000000000000CC00889B81DD1CCBD0118AEEFE7F00005006A4020100000010128AEEFE7F00003D96E469</property>
  <property name="seekable">1</property>
  <property name="audio_index">0</property>
  <property name="video_index">-1</property>
  <property name="mute_on_pause">1</property>
  <property name="mlt_service">avformat</property>
  <property name="kdenlive:clipname"/>
  <property name="kdenlive:clip_type">1</property>
  <property name="kdenlive:folderid">318</property>
  <property name="kdenlive:id">324</property>
  <property name="kdenlive:file_size">37534490</property>
  <property name="kdenlive:file_hash">76b5d599c98f915107c37f8c363b1302</property>
  <property name="kdenlive:audio_max0">236</property>
 </producer>
 <producer id="producer253" in="00:00:00.000" out="00:02:21.833">
  <property name="length">8511</property>
  <property name="eof">pause</property>
  <property name="resource">audio/music/Nursery/ZigZag Heart */variations/ZigZag Heart | Lowboy.wav</property>
  <property name="meta.media.nb_streams">1</property>
  <property name="meta.media.0.stream.type">audio</property>
  <property name="meta.media.0.codec.sample_fmt">s32</property>
  <property name="meta.media.0.codec.sample_rate">44100</property>
  <property name="meta.media.0.codec.channels">2</property>
  <property name="meta.media.0.codec.name">pcm_s24le</property>
  <property name="meta.media.0.codec.long_name">PCM signed 24-bit little-endian</property>
  <property name="meta.media.0.codec.bit_rate">2116800</property>
  <property name="meta.attr.encoded_by.markup">Logic Pro X</property>
  <property name="meta.attr.date.markup">2018-02-10</property>
  <property name="meta.attr.creation_time.markup">15:14:13</property>
  <property name="meta.attr.time_reference.markup">159010317</property>
  <property name="meta.attr.umid.markup">0x00000000000000000000000000000000000000000000000000000000CC00889B81DD1CCBD0118AEEFE7F00005006A4020100000010128AEEFE7F00003D96E469</property>
  <property name="seekable">1</property>
  <property name="audio_index">0</property>
  <property name="video_index">-1</property>
  <property name="mute_on_pause">1</property>
  <property name="mlt_service">avformat</property>
  <property name="kdenlive:clipname"/>
  <property name="kdenlive:clip_type">1</property>
  <property name="kdenlive:folderid">318</property>
  <property name="kdenlive:id">325</property>
  <property name="kdenlive:file_size">37534490</property>
  <property name="kdenlive:file_hash">501c60d9d532bc49d8ac25b6a3dc2cee</property>
  <property name="kdenlive:audio_max0">236</property>
 </producer>
 <producer id="producer254" in="00:00:00.000" out="00:01:46.833">
  <property name="length">6411</property>
  <property name="eof">pause</property>
  <property name="resource">audio/music/Nursery/ZigZag Heart */variations/ZigZag Heart | Mbira Lead.wav</property>
  <property name="meta.media.nb_streams">1</property>
  <property name="meta.media.0.stream.type">audio</property>
  <property name="meta.media.0.codec.sample_fmt">s32</property>
  <property name="meta.media.0.codec.sample_rate">44100</property>
  <property name="meta.media.0.codec.channels">2</property>
  <property name="meta.media.0.codec.name">pcm_s24le</property>
  <property name="meta.media.0.codec.long_name">PCM signed 24-bit little-endian</property>
  <property name="meta.media.0.codec.bit_rate">2116800</property>
  <property name="meta.attr.encoded_by.markup">Logic Pro X</property>
  <property name="meta.attr.date.markup">2018-02-10</property>
  <property name="meta.attr.creation_time.markup">15:03:37</property>
  <property name="meta.attr.time_reference.markup">162045079</property>
  <property name="meta.attr.umid.markup">0x00000000000000000000000000000000000000000000000000000000CC00889B81DD1CCBD0118AEEFE7F00005006A4020100000010128AEEFE7F00003D96E469</property>
  <property name="seekable">1</property>
  <property name="audio_index">0</property>
  <property name="video_index">-1</property>
  <property name="mute_on_pause">1</property>
  <property name="mlt_service">avformat</property>
  <property name="kdenlive:clipname"/>
  <property name="kdenlive:clip_type">1</property>
  <property name="kdenlive:folderid">318</property>
  <property name="kdenlive:id">326</property>
  <property name="kdenlive:file_size">28272150</property>
  <property name="kdenlive:file_hash">15963db494fc7bd2be585cc6d46def4f</property>
  <property name="kdenlive:audio_max0">229</property>
 </producer>
 <producer id="producer255" in="00:00:00.000" out="00:01:42.650">
  <property name="length">6160</property>
  <property name="eof">pause</property>
  <property name="resource">audio/music/Nursery/ZigZag Heart */variations/ZigZag Heart | Mbira Melody.wav</property>
  <property name="meta.media.nb_streams">1</property>
  <property name="meta.media.0.stream.type">audio</property>
  <property name="meta.media.0.codec.sample_fmt">s32</property>
  <property name="meta.media.0.codec.sample_rate">44100</property>
  <property name="meta.media.0.codec.channels">2</property>
  <property name="meta.media.0.codec.name">pcm_s24le</property>
  <property name="meta.media.0.codec.long_name">PCM signed 24-bit little-endian</property>
  <property name="meta.media.0.codec.bit_rate">2116800</property>
  <property name="meta.attr.encoded_by.markup">Logic Pro X</property>
  <property name="meta.attr.date.markup">2018-02-10</property>
  <property name="meta.attr.creation_time.markup">15:04:35</property>
  <property name="meta.attr.time_reference.markup">162111600</property>
  <property name="meta.attr.umid.markup">0x00000000000000000000000000000000000000000000000000000000CC00889B81DD1CCBD0118AEEFE7F00005006A4020100000010128AEEFE7F00003D96E469</property>
  <property name="seekable">1</property>
  <property name="audio_index">0</property>
  <property name="video_index">-1</property>
  <property name="mute_on_pause">1</property>
  <property name="mlt_service">avformat</property>
  <property name="kdenlive:clipname"/>
  <property name="kdenlive:clip_type">1</property>
  <property name="kdenlive:folderid">318</property>
  <property name="kdenlive:id">327</property>
  <property name="kdenlive:file_size">27167424</property>
  <property name="kdenlive:file_hash">5f274d5f7c14ce8f05fc570e1ea1c9a7</property>
  <property name="kdenlive:audio_max0">234</property>
 </producer>
 <producer id="producer256" in="00:00:00.000" out="00:03:20.783">
  <property name="length">12048</property>
  <property name="eof">pause</property>
  <property name="resource">audio/music/Nursery/ZigZag Heart */variations/ZigZag Heart | Meditative.wav</property>
  <property name="meta.media.nb_streams">1</property>
  <property name="meta.media.0.stream.type">audio</property>
  <property name="meta.media.0.codec.sample_fmt">s32</property>
  <property name="meta.media.0.codec.sample_rate">44100</property>
  <property name="meta.media.0.codec.channels">2</property>
  <property name="meta.media.0.codec.name">pcm_s24le</property>
  <property name="meta.media.0.codec.long_name">PCM signed 24-bit little-endian</property>
  <property name="meta.media.0.codec.bit_rate">2116800</property>
  <property name="meta.attr.encoded_by.markup">Logic Pro X</property>
  <property name="meta.attr.date.markup">2018-02-10</property>
  <property name="meta.attr.creation_time.markup">15:12:20</property>
  <property name="meta.attr.time_reference.markup">159114345</property>
  <property name="meta.attr.umid.markup">0x00000000000000000000000000000000000000000000000000000000CC00889B81DD1CCBD0118AEEFE7F00005006A4020100000010128AEEFE7F00003D96E469</property>
  <property name="seekable">1</property>
  <property name="audio_index">0</property>
  <property name="video_index">-1</property>
  <property name="mute_on_pause">1</property>
  <property name="mlt_service">avformat</property>
  <property name="kdenlive:clipname"/>
  <property name="kdenlive:clip_type">1</property>
  <property name="kdenlive:folderid">318</property>
  <property name="kdenlive:id">328</property>
  <property name="kdenlive:file_size">53132484</property>
  <property name="kdenlive:file_hash">1216b145a55fabb8721baab8f416057b</property>
 </producer>
 <producer id="producer257" in="00:00:00.000" out="00:02:17.033">
  <property name="length">8223</property>
  <property name="eof">pause</property>
  <property name="resource">audio/music/Nursery/ZigZag Heart */variations/ZigZag Heart | Spacey Rhodes.wav</property>
  <property name="meta.media.nb_streams">1</property>
  <property name="meta.media.0.stream.type">audio</property>
  <property name="meta.media.0.codec.sample_fmt">s32</property>
  <property name="meta.media.0.codec.sample_rate">44100</property>
  <property name="meta.media.0.codec.channels">2</property>
  <property name="meta.media.0.codec.name">pcm_s24le</property>
  <property name="meta.media.0.codec.long_name">PCM signed 24-bit little-endian</property>
  <property name="meta.media.0.codec.bit_rate">2116800</property>
  <property name="meta.attr.encoded_by.markup">Logic Pro X</property>
  <property name="meta.attr.date.markup">2018-02-10</property>
  <property name="meta.attr.creation_time.markup">15:01:55</property>
  <property name="meta.attr.time_reference.markup">160713156</property>
  <property name="meta.attr.umid.markup">0x00000000000000000000000000000000000000000000000000000000CC00889B81DD1CCBD0118AEEFE7F00005006A4020100000010128AEEFE7F00003D96E469</property>
  <property name="seekable">1</property>
  <property name="audio_index">0</property>
  <property name="video_index">-1</property>
  <property name="mute_on_pause">1</property>
  <property name="mlt_service">avformat</property>
  <property name="kdenlive:clipname"/>
  <property name="kdenlive:clip_type">1</property>
  <property name="kdenlive:folderid">318</property>
  <property name="kdenlive:id">330</property>
  <property name="kdenlive:file_size">36263688</property>
  <property name="kdenlive:file_hash">b67b0627247c3c05289bc0fbdcab1e37</property>
  <property name="kdenlive:audio_max0">234</property>
 </producer>
 <producer id="producer0" in="00:00:00.000" out="00:02:26.000">
  <property name="length">8761</property>
  <property name="eof">pause</property>
  <property name="resource">audio/normalized/intro.wav</property>
  <property name="meta.media.nb_streams">1</property>
  <property name="meta.media.0.stream.type">audio</property>
  <property name="meta.media.0.codec.sample_fmt">s16</property>
  <property name="meta.media.0.codec.sample_rate">48000</property>
  <property name="meta.media.0.codec.channels">2</property>
  <property name="meta.media.0.codec.name">pcm_s16le</property>
  <property name="meta.media.0.codec.long_name">PCM signed 16-bit little-endian</property>
  <property name="meta.media.0.codec.bit_rate">1536000</property>
  <property name="seekable">1</property>
  <property name="audio_index">0</property>
  <property name="video_index">-1</property>
  <property name="mute_on_pause">1</property>
  <property name="mlt_service">avformat</property>
  <property name="kdenlive:clipname"/>
  <property name="kdenlive:clip_type">1</property>
  <property name="kdenlive:folderid">329</property>
  <property name="kdenlive:id">332</property>
  <property name="kdenlive:file_size">28034152</property>
  <property name="kdenlive:file_hash">cd869f080e7293d22d5ea2b81173c331</property>
  <property name="kdenlive:audio_max0">122</property>
 </producer>
 <producer id="producer1" in="00:00:00.000" out="00:02:26.000">
  <property name="length">8761</property>
  <property name="eof">pause</property>
  <property name="resource">audio/raw/intro.wav</property>
  <property name="meta.media.nb_streams">1</property>
  <property name="meta.media.0.stream.type">audio</property>
  <property name="meta.media.0.codec.sample_fmt">s16</property>
  <property name="meta.media.0.codec.sample_rate">48000</property>
  <property name="meta.media.0.codec.channels">2</property>
  <property name="meta.media.0.codec.name">pcm_s16le</property>
  <property name="meta.media.0.codec.long_name">PCM signed 16-bit little-endian</property>
  <property name="meta.media.0.codec.bit_rate">1536000</property>
  <property name="seekable">1</property>
  <property name="audio_index">0</property>
  <property name="video_index">-1</property>
  <property name="mute_on_pause">1</property>
  <property name="mlt_service">avformat</property>
  <property name="kdenlive:clipname"/>
  <property name="kdenlive:clip_type">1</property>
  <property name="kdenlive:folderid">331</property>
  <property name="kdenlive:id">333</property>
  <property name="kdenlive:file_size">28034152</property>
  <property name="kdenlive:file_hash">f5cf1ffc1d9db7178a717aea219d3723</property>
  <property name="kdenlive:audio_max0">123</property>
 </producer>
 <playlist id="main_bin">
  <property name="kdenlive:folder.-1.2">video</property>
  <property name="kdenlive:folder.-1.26">audio</property>
  <property name="kdenlive:folder.2.5">Introo</property>
  <property name="kdenlive:folder.2.20">TP</property>
  <property name="kdenlive:folder.26.27">music</property>
  <property name="kdenlive:folder.26.329">normalized</property>
  <property name="kdenlive:folder.26.331">raw</property>
  <property name="kdenlive:folder.27.29">Bodytonic</property>
  <property name="kdenlive:folder.27.152">Nursery</property>
  <property name="kdenlive:folder.29.30">A Simple Blur</property>
  <property name="kdenlive:folder.29.45">Are We Loose Yet</property>
  <property name="kdenlive:folder.29.58">Astrisx</property>
  <property name="kdenlive:folder.29.72">Cases to Rest</property>
  <property name="kdenlive:folder.29.89">Inamorata</property>
  <property name="kdenlive:folder.29.99">Mind Body Mind</property>
  <property name="kdenlive:folder.29.106">Partly Sage</property>
  <property name="kdenlive:folder.29.120">Soothe</property>
  <property name="kdenlive:folder.29.135">Thannoid</property>
  <property name="kdenlive:folder.152.153">A Little Powder *</property>
  <property name="kdenlive:folder.152.171">Blood Petal</property>
  <property name="kdenlive:folder.152.179">Brass Buttons</property>
  <property name="kdenlive:folder.152.187">Corner Aisle</property>
  <property name="kdenlive:folder.152.194">Cradle Rock</property>
  <property name="kdenlive:folder.152.202">Craypaper Wrapper</property>
  <property name="kdenlive:folder.152.210">Darklit Carpet</property>
  <property name="kdenlive:folder.152.225">Lick Stick *</property>
  <property name="kdenlive:folder.152.241">Maisie Dreamer *</property>
  <property name="kdenlive:folder.152.259">Maisie Lee</property>
  <property name="kdenlive:folder.152.272">Night Light *</property>
  <property name="kdenlive:folder.152.282">Petaluma</property>
  <property name="kdenlive:folder.152.291">Stuffed Monster</property>
  <property name="kdenlive:folder.152.299">The Callow *</property>
  <property name="kdenlive:folder.152.308">ZigZag Heart *</property>
  <property name="kdenlive:folder.30.32">stems</property>
  <property name="kdenlive:folder.30.37">variations</property>
  <property name="kdenlive:folder.45.47">stems</property>
  <property name="kdenlive:folder.45.52">variations</property>
  <property name="kdenlive:folder.58.60">stems</property>
  <property name="kdenlive:folder.58.66">variations</property>
  <property name="kdenlive:folder.72.74">stems</property>
  <property name="kdenlive:folder.72.82">variations</property>
  <property name="kdenlive:folder.89.91">stems</property>
  <property name="kdenlive:folder.89.95">variations</property>
  <property name="kdenlive:folder.99.101">variations</property>
  <property name="kdenlive:folder.106.108">stems</property>
  <property name="kdenlive:folder.106.114">variations</property>
  <property name="kdenlive:folder.120.122">stems</property>
  <property name="kdenlive:folder.120.128">variations</property>
  <property name="kdenlive:folder.135.138">stems</property>
  <property name="kdenlive:folder.135.144">variations</property>
  <property name="kdenlive:folder.153.155">stems</property>
  <property name="kdenlive:folder.153.162">variations</property>
  <property name="kdenlive:folder.171.173">stems</property>
  <property name="kdenlive:folder.179.181">stems</property>
  <property name="kdenlive:folder.187.189">stems</property>
  <property name="kdenlive:folder.194.196">stems</property>
  <property name="kdenlive:folder.202.204">stems</property>
  <property name="kdenlive:folder.210.212">stems</property>
  <property name="kdenlive:folder.210.218">variations</property>
  <property name="kdenlive:folder.225.227">stems</property>
  <property name="kdenlive:folder.225.235">variations</property>
  <property name="kdenlive:folder.241.243">stems</property>
  <property name="kdenlive:folder.241.251">variations</property>
  <property name="kdenlive:folder.259.261">stems</property>
  <property name="kdenlive:folder.259.265">variations</property>
  <property name="kdenlive:folder.272.275">stems</property>
  <property name="kdenlive:folder.282.284">stems</property>
  <property name="kdenlive:folder.291.293">stems</property>
  <property name="kdenlive:folder.299.302">stems</property>
  <property name="kdenlive:folder.308.311">stems</property>
  <property name="kdenlive:folder.308.318">variations</property>
  <property name="kdenlive:docproperties.activeTrack">4</property>
  <property name="kdenlive:docproperties.audioChannels">2</property>
  <property name="kdenlive:docproperties.audioTarget">-1</property>
  <property name="kdenlive:docproperties.compositing">1</property>
  <property name="kdenlive:docproperties.disablepreview">0</property>
  <property name="kdenlive:docproperties.documentid">1675441618084</property>
  <property name="kdenlive:docproperties.enableTimelineZone">0</property>
  <property name="kdenlive:docproperties.enableexternalproxy">0</property>
  <property name="kdenlive:docproperties.enableproxy">1</property>
  <property name="kdenlive:docproperties.externalproxyparams">./;GL;.LRV;./;GX;.MP4;./;GP;.LRV;./;GP;.MP4</property>
  <property name="kdenlive:docproperties.generateimageproxy">0</property>
  <property name="kdenlive:docproperties.generateproxy">0</property>
  <property name="kdenlive:docproperties.groups">[
]
</property>
  <property name="kdenlive:docproperties.guidesCategories">[
    {
        "color": "#9b59b6",
        "comment": "Category 1",
        "index": 0
    },
    {
        "color": "#3daee9",
        "comment": "Category 2",
        "index": 1
    },
    {
        "color": "#1abc9c",
        "comment": "Category 3",
        "index": 2
    },
    {
        "color": "#1cdc9a",
        "comment": "Category 4",
        "index": 3
    },
    {
        "color": "#c9ce3b",
        "comment": "Category 5",
        "index": 4
    },
    {
        "color": "#fdbc4b",
        "comment": "Category 6",
        "index": 5
    },
    {
        "color": "#f39c1f",
        "comment": "Category 7",
        "index": 6
    },
    {
        "color": "#f47750",
        "comment": "Category 8",
        "index": 7
    },
    {
        "color": "#da4453",
        "comment": "Category 9",
        "index": 8
    }
]
</property>
  <property name="kdenlive:docproperties.kdenliveversion">22.12.1</property>
  <property name="kdenlive:docproperties.position">1201</property>
  <property name="kdenlive:docproperties.previewextension"/>
  <property name="kdenlive:docproperties.previewparameters"/>
  <property name="kdenlive:docproperties.profile">/home/xiaoxiae/.local/share/kdenlive/profiles/customprofile2</property>
  <property name="kdenlive:docproperties.proxyextension"/>
  <property name="kdenlive:docproperties.proxyimageminsize">2000</property>
  <property name="kdenlive:docproperties.proxyimagesize">800</property>
  <property name="kdenlive:docproperties.proxyminsize">1000</property>
  <property name="kdenlive:docproperties.proxyparams"/>
  <property name="kdenlive:docproperties.proxyresize">640</property>
  <property name="kdenlive:docproperties.scrollPos">2357</property>
  <property name="kdenlive:docproperties.seekOffset">30000</property>
  <property name="kdenlive:docproperties.version">1.04</property>
  <property name="kdenlive:docproperties.verticalzoom">1</property>
  <property name="kdenlive:docproperties.videoTarget">-1</property>
  <property name="kdenlive:docproperties.zonein">0</property>
  <property name="kdenlive:docproperties.zoneout">75</property>
  <property name="kdenlive:docproperties.zoom">4</property>
  <property name="kdenlive:expandedFolders">72;329;2;26;5;20;29</property>
  <property name="kdenlive:documentnotes"/>
  <property name="xml_retain">1</property>
  <entry producer="producer3" in="00:00:00.000" out="00:00:17.983"/>
  <entry producer="producer2" in="00:00:00.000" out="00:00:11.817"/>
  <entry producer="producer5" in="00:00:00.000" out="00:00:01.983"/>
  <entry producer="producer12" in="00:00:00.000" out="00:00:00.983"/>
  <entry producer="producer15" in="00:00:00.000" out="00:00:00.983"/>
  <entry producer="producer13" in="00:00:00.000" out="00:00:00.983"/>
  <entry producer="producer14" in="00:00:00.000" out="00:00:01.733"/>
  <entry producer="producer16" in="00:00:00.000" out="00:00:00.983"/>
  <entry producer="producer4" in="00:00:00.000" out="00:00:01.483"/>
  <entry producer="producer6" in="00:00:00.000" out="00:00:01.733"/>
  <entry producer="producer7" in="00:00:00.000" out="00:00:01.483"/>
  <entry producer="producer17" in="00:00:00.000" out="00:00:01.483"/>
  <entry producer="producer9" in="00:00:00.000" out="00:00:00.983"/>
  <entry producer="producer8" in="00:00:00.000" out="00:00:00.983"/>
  <entry producer="producer10" in="00:00:00.000" out="00:00:00.983"/>
  <entry producer="producer11" in="00:00:00.000" out="00:00:00.983"/>
  <entry producer="producer258" in="00:00:00.000" out="00:00:05.183"/>
  <entry producer="producer18" in="00:00:00.000" out="00:00:00.983"/>
  <entry producer="producer19" in="00:00:00.000" out="00:00:01.850"/>
  <entry producer="producer20" in="00:00:00.000" out="00:00:00.983"/>
  <entry producer="producer259" in="00:00:00.000" out="00:00:02.750"/>
  <entry producer="producer21" in="00:00:00.000" out="00:02:12.333"/>
  <entry producer="producer22" in="00:00:00.000" out="00:04:06.350"/>
  <entry producer="producer23" in="00:00:00.000" out="00:03:48.850"/>
  <entry producer="producer24" in="00:00:00.000" out="00:04:09.667"/>
  <entry producer="producer25" in="00:00:00.000" out="00:03:52.567"/>
  <entry producer="producer26" in="00:00:00.000" out="00:02:59.067"/>
  <entry producer="producer27" in="00:00:00.000" out="00:04:36.350"/>
  <entry producer="producer28" in="00:00:00.000" out="00:02:26.800"/>
  <entry producer="producer29" in="00:00:00.000" out="00:04:12.717"/>
  <entry producer="producer30" in="00:00:00.000" out="00:02:29.533"/>
  <entry producer="producer31" in="00:00:00.000" out="00:03:59.983"/>
  <entry producer="producer32" in="00:00:00.000" out="00:01:30.617"/>
  <entry producer="producer33" in="00:00:00.000" out="00:01:09.983"/>
  <entry producer="producer34" in="00:00:00.000" out="00:04:00.450"/>
  <entry producer="producer35" in="00:00:00.000" out="00:03:57.767"/>
  <entry producer="producer36" in="00:00:00.000" out="00:03:57.767"/>
  <entry producer="producer37" in="00:00:00.000" out="00:03:54.800"/>
  <entry producer="producer38" in="00:00:00.000" out="00:03:53.317"/>
  <entry producer="producer39" in="00:00:00.000" out="00:00:19.983"/>
  <entry producer="producer40" in="00:00:00.000" out="00:01:07.250"/>
  <entry producer="producer41" in="00:00:00.000" out="00:03:23.600"/>
  <entry producer="producer42" in="00:00:00.000" out="00:03:16.350"/>
  <entry producer="producer43" in="00:00:00.000" out="00:00:38.167"/>
  <entry producer="producer44" in="00:00:00.000" out="00:02:43.333"/>
  <entry producer="producer45" in="00:00:00.000" out="00:02:40.500"/>
  <entry producer="producer46" in="00:00:00.000" out="00:02:39.017"/>
  <entry producer="producer47" in="00:00:00.000" out="00:02:38.267"/>
  <entry producer="producer48" in="00:00:00.000" out="00:02:30.100"/>
  <entry producer="producer49" in="00:00:00.000" out="00:02:30.100"/>
  <entry producer="producer50" in="00:00:00.000" out="00:00:25.067"/>
  <entry producer="producer51" in="00:00:00.000" out="00:02:41.583"/>
  <entry producer="producer52" in="00:00:00.000" out="00:02:06.450"/>
  <entry producer="producer53" in="00:00:00.000" out="00:01:58.583"/>
  <entry producer="producer54" in="00:00:00.000" out="00:00:37.583"/>
  <entry producer="producer55" in="00:00:00.000" out="00:03:05.433"/>
  <entry producer="producer56" in="00:00:00.000" out="00:02:51.650"/>
  <entry producer="producer57" in="00:00:00.000" out="00:01:32.133"/>
  <entry producer="producer58" in="00:00:00.000" out="00:03:00.567"/>
  <entry producer="producer59" in="00:00:00.000" out="00:02:59.067"/>
  <entry producer="producer60" in="00:00:00.000" out="00:02:56.850"/>
  <entry producer="producer61" in="00:00:00.000" out="00:02:48.667"/>
  <entry producer="producer62" in="00:00:00.000" out="00:02:50.150"/>
  <entry producer="producer63" in="00:00:00.000" out="00:00:38.167"/>
  <entry producer="producer64" in="00:00:00.000" out="00:01:50.900"/>
  <entry producer="producer65" in="00:00:00.000" out="00:02:25.433"/>
  <entry producer="producer66" in="00:00:00.000" out="00:01:57.100"/>
  <entry producer="producer67" in="00:00:00.000" out="00:00:47.250"/>
  <entry producer="producer68" in="00:00:00.000" out="00:00:47.250"/>
  <entry producer="producer69" in="00:00:00.000" out="00:01:51.950"/>
  <entry producer="producer70" in="00:00:00.000" out="00:01:47.733"/>
  <entry producer="producer71" in="00:00:00.000" out="00:01:41.800"/>
  <entry producer="producer72" in="00:00:00.000" out="00:01:45.517"/>
  <entry producer="producer73" in="00:00:00.000" out="00:00:57.833"/>
  <entry producer="producer74" in="00:00:00.000" out="00:00:57.833"/>
  <entry producer="producer75" in="00:00:00.000" out="00:01:51.417"/>
  <entry producer="producer76" in="00:00:00.000" out="00:02:29.933"/>
  <entry producer="producer77" in="00:00:00.000" out="00:00:47.883"/>
  <entry producer="producer78" in="00:00:00.000" out="00:00:21.500"/>
  <entry producer="producer79" in="00:00:00.000" out="00:00:30.900"/>
  <entry producer="producer80" in="00:00:00.000" out="00:01:20.617"/>
  <entry producer="producer81" in="00:00:00.000" out="00:02:29.983"/>
  <entry producer="producer82" in="00:00:00.000" out="00:02:27.867"/>
  <entry producer="producer83" in="00:00:00.000" out="00:02:27.867"/>
  <entry producer="producer84" in="00:00:00.000" out="00:02:27.867"/>
  <entry producer="producer85" in="00:00:00.000" out="00:02:27.117"/>
  <entry producer="producer86" in="00:00:00.000" out="00:02:25.633"/>
  <entry producer="producer87" in="00:00:00.000" out="00:01:10.900"/>
  <entry producer="producer88" in="00:00:00.000" out="00:00:33.433"/>
  <entry producer="producer89" in="00:00:00.000" out="00:01:59.983"/>
  <entry producer="producer90" in="00:00:00.000" out="00:02:03.617"/>
  <entry producer="producer91" in="00:00:00.000" out="00:01:56.117"/>
  <entry producer="producer92" in="00:00:00.000" out="00:04:05.433"/>
  <entry producer="producer93" in="00:00:00.000" out="00:04:01.483"/>
  <entry producer="producer94" in="00:00:00.000" out="00:03:46.633"/>
  <entry producer="producer95" in="00:00:00.000" out="00:03:58.517"/>
  <entry producer="producer96" in="00:00:00.000" out="00:04:00.000"/>
  <entry producer="producer97" in="00:00:00.000" out="00:03:47.367"/>
  <entry producer="producer98" in="00:00:00.000" out="00:00:58.167"/>
  <entry producer="producer99" in="00:00:00.000" out="00:00:30.900"/>
  <entry producer="producer100" in="00:00:00.000" out="00:03:25.433"/>
  <entry producer="producer101" in="00:00:00.000" out="00:02:45.200"/>
  <entry producer="producer102" in="00:00:00.000" out="00:03:21.800"/>
  <entry producer="producer103" in="00:00:00.000" out="00:04:05.433"/>
  <entry producer="producer104" in="00:00:00.000" out="00:03:07.250"/>
  <entry producer="producer105" in="00:00:00.000" out="00:03:03.167"/>
  <entry producer="producer106" in="00:00:00.000" out="00:02:59.067"/>
  <entry producer="producer107" in="00:00:00.000" out="00:02:58.333"/>
  <entry producer="producer108" in="00:00:00.000" out="00:02:59.817"/>
  <entry producer="producer109" in="00:00:00.000" out="00:02:56.100"/>
  <entry producer="producer110" in="00:00:00.000" out="00:02:56.100"/>
  <entry producer="producer111" in="00:00:00.000" out="00:01:21.800"/>
  <entry producer="producer112" in="00:00:00.000" out="00:00:36.350"/>
  <entry producer="producer113" in="00:00:00.000" out="00:00:38.283"/>
  <entry producer="producer114" in="00:00:00.000" out="00:03:07.250"/>
  <entry producer="producer115" in="00:00:00.000" out="00:02:32.717"/>
  <entry producer="producer116" in="00:00:00.000" out="00:01:50.900"/>
  <entry producer="producer117" in="00:00:00.000" out="00:01:21.800"/>
  <entry producer="producer118" in="00:00:00.000" out="00:02:54.767"/>
  <entry producer="producer119" in="00:00:00.000" out="00:02:53.133"/>
  <entry producer="producer120" in="00:00:00.000" out="00:02:50.900"/>
  <entry producer="producer121" in="00:00:00.000" out="00:02:49.417"/>
  <entry producer="producer122" in="00:00:00.000" out="00:02:39.750"/>
  <entry producer="producer123" in="00:00:00.000" out="00:02:47.183"/>
  <entry producer="producer124" in="00:00:00.000" out="00:02:33.067"/>
  <entry producer="producer125" in="00:00:00.000" out="00:00:56.450"/>
  <entry producer="producer126" in="00:00:00.000" out="00:00:56.450"/>
  <entry producer="producer127" in="00:00:00.000" out="00:00:31.350"/>
  <entry producer="producer128" in="00:00:00.000" out="00:02:25.267"/>
  <entry producer="producer129" in="00:00:00.000" out="00:01:36.000"/>
  <entry producer="producer130" in="00:00:00.000" out="00:00:52.967"/>
  <entry producer="producer131" in="00:00:00.000" out="00:00:46.483"/>
  <entry producer="producer132" in="00:00:00.000" out="00:00:46.483"/>
  <entry producer="producer133" in="00:00:00.000" out="00:03:46.850"/>
  <entry producer="producer134" in="00:00:00.000" out="00:03:46.850"/>
  <entry producer="producer135" in="00:00:00.000" out="00:03:46.850"/>
  <entry producer="producer136" in="00:00:00.000" out="00:03:46.850"/>
  <entry producer="producer137" in="00:00:00.000" out="00:03:46.850"/>
  <entry producer="producer138" in="00:00:00.000" out="00:03:46.850"/>
  <entry producer="producer139" in="00:00:00.000" out="00:02:55.883"/>
  <entry producer="producer140" in="00:00:00.000" out="00:02:55.883"/>
  <entry producer="producer141" in="00:00:00.000" out="00:02:55.883"/>
  <entry producer="producer142" in="00:00:00.000" out="00:02:55.883"/>
  <entry producer="producer143" in="00:00:00.000" out="00:02:55.883"/>
  <entry producer="producer144" in="00:00:00.000" out="00:02:55.883"/>
  <entry producer="producer145" in="00:00:00.000" out="00:03:56.233"/>
  <entry producer="producer146" in="00:00:00.000" out="00:03:56.233"/>
  <entry producer="producer147" in="00:00:00.000" out="00:03:56.233"/>
  <entry producer="producer148" in="00:00:00.000" out="00:03:56.233"/>
  <entry producer="producer149" in="00:00:00.000" out="00:03:56.233"/>
  <entry producer="producer150" in="00:00:00.000" out="00:04:02.983"/>
  <entry producer="producer151" in="00:00:00.000" out="00:04:02.983"/>
  <entry producer="producer152" in="00:00:00.000" out="00:04:02.983"/>
  <entry producer="producer153" in="00:00:00.000" out="00:04:02.983"/>
  <entry producer="producer154" in="00:00:00.000" out="00:04:02.983"/>
  <entry producer="producer155" in="00:00:00.000" out="00:04:02.983"/>
  <entry producer="producer156" in="00:00:00.000" out="00:03:25.100"/>
  <entry producer="producer157" in="00:00:00.000" out="00:03:25.100"/>
  <entry producer="producer158" in="00:00:00.000" out="00:03:25.100"/>
  <entry producer="producer159" in="00:00:00.000" out="00:03:25.100"/>
  <entry producer="producer160" in="00:00:00.000" out="00:03:25.100"/>
  <entry producer="producer161" in="00:00:00.000" out="00:03:25.100"/>
  <entry producer="producer162" in="00:00:00.000" out="00:02:48.300"/>
  <entry producer="producer163" in="00:00:00.000" out="00:02:48.300"/>
  <entry producer="producer164" in="00:00:00.000" out="00:02:48.300"/>
  <entry producer="producer165" in="00:00:00.000" out="00:02:48.300"/>
  <entry producer="producer166" in="00:00:00.000" out="00:02:48.300"/>
  <entry producer="producer167" in="00:00:00.000" out="00:02:48.300"/>
  <entry producer="producer168" in="00:00:00.000" out="00:01:01.933"/>
  <entry producer="producer169" in="00:00:00.000" out="00:02:37.867"/>
  <entry producer="producer170" in="00:00:00.000" out="00:02:48.300"/>
  <entry producer="producer171" in="00:00:00.000" out="00:00:50.633"/>
  <entry producer="producer172" in="00:00:00.000" out="00:01:00.900"/>
  <entry producer="producer173" in="00:00:00.000" out="00:02:48.300"/>
  <entry producer="producer174" in="00:00:00.000" out="00:02:38.850"/>
  <entry producer="producer175" in="00:00:00.000" out="00:02:38.850"/>
  <entry producer="producer176" in="00:00:00.000" out="00:02:38.850"/>
  <entry producer="producer177" in="00:00:00.000" out="00:02:38.850"/>
  <entry producer="producer178" in="00:00:00.000" out="00:02:38.850"/>
  <entry producer="producer179" in="00:00:00.000" out="00:02:38.850"/>
  <entry producer="producer180" in="00:00:00.000" out="00:02:38.850"/>
  <entry producer="producer181" in="00:00:00.000" out="00:02:38.850"/>
  <entry producer="producer182" in="00:00:00.000" out="00:01:00.450"/>
  <entry producer="producer183" in="00:00:00.000" out="00:00:29.933"/>
  <entry producer="producer184" in="00:00:00.000" out="00:05:00.500"/>
  <entry producer="producer185" in="00:00:00.000" out="00:00:39.167"/>
  <entry producer="producer186" in="00:00:00.000" out="00:00:41.733"/>
  <entry producer="producer187" in="00:00:00.000" out="00:02:33.067"/>
  <entry producer="producer188" in="00:00:00.000" out="00:02:33.067"/>
  <entry producer="producer189" in="00:00:00.000" out="00:02:33.067"/>
  <entry producer="producer190" in="00:00:00.000" out="00:02:33.067"/>
  <entry producer="producer191" in="00:00:00.000" out="00:02:33.067"/>
  <entry producer="producer192" in="00:00:00.000" out="00:02:33.067"/>
  <entry producer="producer193" in="00:00:00.000" out="00:02:33.067"/>
  <entry producer="producer194" in="00:00:00.000" out="00:02:33.067"/>
  <entry producer="producer195" in="00:00:00.000" out="00:00:47.150"/>
  <entry producer="producer196" in="00:00:00.000" out="00:00:29.733"/>
  <entry producer="producer197" in="00:00:00.000" out="00:00:29.733"/>
  <entry producer="producer198" in="00:00:00.000" out="00:01:19.317"/>
  <entry producer="producer199" in="00:00:00.000" out="00:02:31.783"/>
  <entry producer="producer200" in="00:00:00.000" out="00:01:56.350"/>
  <entry producer="producer201" in="00:00:00.000" out="00:01:56.350"/>
  <entry producer="producer202" in="00:00:00.000" out="00:01:56.417"/>
  <entry producer="producer203" in="00:00:00.000" out="00:01:56.417"/>
  <entry producer="producer204" in="00:00:00.000" out="00:01:56.417"/>
  <entry producer="producer205" in="00:00:00.000" out="00:01:56.417"/>
  <entry producer="producer206" in="00:00:00.000" out="00:01:09.500"/>
  <entry producer="producer207" in="00:00:00.000" out="00:01:09.500"/>
  <entry producer="producer208" in="00:00:00.000" out="00:00:42.817"/>
  <entry producer="producer209" in="00:00:00.000" out="00:01:25.383"/>
  <entry producer="producer210" in="00:00:00.000" out="00:01:43.467"/>
  <entry producer="producer211" in="00:00:00.000" out="00:01:11.617"/>
  <entry producer="producer212" in="00:00:00.000" out="00:04:25.100"/>
  <entry producer="producer213" in="00:00:00.000" out="00:04:25.100"/>
  <entry producer="producer214" in="00:00:00.000" out="00:04:25.100"/>
  <entry producer="producer215" in="00:00:00.000" out="00:04:25.100"/>
  <entry producer="producer216" in="00:00:00.000" out="00:04:25.100"/>
  <entry producer="producer217" in="00:00:00.000" out="00:04:25.100"/>
  <entry producer="producer218" in="00:00:00.000" out="00:04:25.100"/>
  <entry producer="producer219" in="00:00:00.000" out="00:04:25.100"/>
  <entry producer="producer220" in="00:00:00.000" out="00:04:24.500"/>
  <entry producer="producer221" in="00:00:00.000" out="00:04:24.500"/>
  <entry producer="producer222" in="00:00:00.000" out="00:04:24.500"/>
  <entry producer="producer223" in="00:00:00.000" out="00:04:24.500"/>
  <entry producer="producer224" in="00:00:00.000" out="00:04:24.500"/>
  <entry producer="producer225" in="00:00:00.000" out="00:04:24.500"/>
  <entry producer="producer226" in="00:00:00.000" out="00:04:24.500"/>
  <entry producer="producer227" in="00:00:00.000" out="00:03:38.550"/>
  <entry producer="producer228" in="00:00:00.000" out="00:03:38.550"/>
  <entry producer="producer229" in="00:00:00.000" out="00:03:38.550"/>
  <entry producer="producer230" in="00:00:00.000" out="00:03:38.550"/>
  <entry producer="producer231" in="00:00:00.000" out="00:03:38.550"/>
  <entry producer="producer232" in="00:00:00.000" out="00:03:38.550"/>
  <entry producer="producer233" in="00:00:00.000" out="00:03:42.833"/>
  <entry producer="producer234" in="00:00:00.000" out="00:03:42.833"/>
  <entry producer="producer235" in="00:00:00.000" out="00:03:42.833"/>
  <entry producer="producer236" in="00:00:00.000" out="00:03:42.833"/>
  <entry producer="producer237" in="00:00:00.000" out="00:03:42.833"/>
  <entry producer="producer238" in="00:00:00.000" out="00:03:42.833"/>
  <entry producer="producer239" in="00:00:00.000" out="00:03:42.833"/>
  <entry producer="producer240" in="00:00:00.000" out="00:03:20.783"/>
  <entry producer="producer241" in="00:00:00.000" out="00:02:54.650"/>
  <entry producer="producer242" in="00:00:00.000" out="00:02:54.650"/>
  <entry producer="producer243" in="00:00:00.000" out="00:02:54.650"/>
  <entry producer="producer244" in="00:00:00.000" out="00:02:54.650"/>
  <entry producer="producer245" in="00:00:00.000" out="00:02:54.650"/>
  <entry producer="producer246" in="00:00:00.000" out="00:02:54.650"/>
  <entry producer="producer247" in="00:00:00.000" out="00:02:54.650"/>
  <entry producer="producer248" in="00:00:00.000" out="00:00:34.850"/>
  <entry producer="producer249" in="00:00:00.000" out="00:00:34.850"/>
  <entry producer="producer250" in="00:00:00.000" out="00:02:54.450"/>
  <entry producer="producer251" in="00:00:00.000" out="00:02:50.950"/>
  <entry producer="producer252" in="00:00:00.000" out="00:02:21.833"/>
  <entry producer="producer253" in="00:00:00.000" out="00:02:21.833"/>
  <entry producer="producer254" in="00:00:00.000" out="00:01:46.833"/>
  <entry producer="producer255" in="00:00:00.000" out="00:01:42.650"/>
  <entry producer="producer256" in="00:00:00.000" out="00:03:20.783"/>
  <entry producer="producer257" in="00:00:00.000" out="00:02:17.033"/>
  <entry producer="producer0" in="00:00:00.000" out="00:02:26.000"/>
  <entry producer="producer1" in="00:00:00.000" out="00:02:26.000"/>
 </playlist>
 <producer id="black_track" in="00:00:00.000" out="00:09:18.167">
  <property name="length">2147483647</property>
  <property name="eof">continue</property>
  <property name="resource">black</property>
  <property name="aspect_ratio">1</property>
  <property name="mlt_service">color</property>
  <property name="mlt_image_format">rgba</property>
  <property name="set.test_audio">0</property>
 </producer>
 <producer id="producer260" in="00:00:00.000" out="00:03:05.433">
  <property name="length">11127</property>
  <property name="eof">pause</property>
  <property name="resource">audio/music/Bodytonic/Cases to Rest/Cases to Rest.wav</property>
  <property name="audio_index">0</property>
  <property name="video_index">-1</property>
  <property name="mute_on_pause">0</property>
  <property name="mlt_service">avformat-novalidate</property>
  <property name="meta.media.nb_streams">1</property>
  <property name="meta.media.0.stream.type">audio</property>
  <property name="meta.media.0.codec.sample_fmt">s32</property>
  <property name="meta.media.0.codec.sample_rate">44100</property>
  <property name="meta.media.0.codec.channels">2</property>
  <property name="meta.media.0.codec.name">pcm_s24le</property>
  <property name="meta.media.0.codec.long_name">PCM signed 24-bit little-endian</property>
  <property name="meta.media.0.codec.bit_rate">2116800</property>
  <property name="meta.attr.encoded_by.markup">Logic Pro X</property>
  <property name="meta.attr.date.markup">2017-07-16</property>
  <property name="meta.attr.creation_time.markup">13:55:21</property>
  <property name="meta.attr.time_reference.markup">158760000</property>
  <property name="meta.attr.umid.markup">0x00000000000000000000000000000000000000000000000000000000EE00CDDB768CEBF380697352FF7F00004684480E01000000B0617352FF7F0000ECEE1AD9</property>
  <property name="seekable">1</property>
  <property name="kdenlive:clipname"/>
  <property name="kdenlive:clip_type">1</property>
  <property name="kdenlive:folderid">72</property>
  <property name="kdenlive:id">75</property>
  <property name="kdenlive:file_size">49072094</property>
  <property name="kdenlive:file_hash">59499b3efe0b0020ff2318ae70d3c5af</property>
  <property name="kdenlive:audio_max0">249</property>
  <property name="xml">was here</property>
  <property name="set.test_audio">0</property>
  <property name="set.test_image">1</property>
 </producer>
 <playlist id="playlist0">
  <property name="kdenlive:audio_track">1</property>
  <entry producer="producer260" in="00:00:00.000" out="00:00:58.117">
   <property name="kdenlive:id">75</property>
   <filter id="filter0">
    <property name="window">75</property>
    <property name="max_gain">20dB</property>
    <property name="level">00:00:00.000=-25</property>
    <property name="mlt_service">volume</property>
    <property name="kdenlive_id">volume</property>
    <property name="kdenlive:collapsed">0</property>
   </filter>
   <filter id="filter1" in="00:00:57.767" out="00:00:58.117">
    <property name="window">75</property>
    <property name="max_gain">20dB</property>
    <property name="mlt_service">volume</property>
    <property name="kdenlive_id">fadeout</property>
    <property name="gain">1</property>
    <property name="end">0</property>
   </filter>
  </entry>
 </playlist>
 <playlist id="playlist1">
  <property name="kdenlive:audio_track">1</property>
 </playlist>
 <tractor id="tractor0" in="00:00:00.000" out="00:00:58.117">
  <property name="kdenlive:audio_track">1</property>
  <property name="kdenlive:trackheight">67</property>
  <property name="kdenlive:timeline_active">1</property>
  <property name="kdenlive:collapsed">0</property>
  <property name="kdenlive:thumbs_format"/>
  <property name="kdenlive:audio_rec"/>
  <track hide="video" producer="playlist0"/>
  <track hide="video" producer="playlist1"/>
  <filter id="filter2">
   <property name="window">75</property>
   <property name="max_gain">20dB</property>
   <property name="mlt_service">volume</property>
   <property name="internal_added">237</property>
   <property name="disable">1</property>
  </filter>
  <filter id="filter3">
   <property name="channel">-1</property>
   <property name="mlt_service">panner</property>
   <property name="internal_added">237</property>
   <property name="start">0.5</property>
   <property name="disable">1</property>
  </filter>
  <filter id="filter4">
   <property name="iec_scale">0</property>
   <property name="mlt_service">audiolevel</property>
   <property name="dbpeak">1</property>
   <property name="disable">1</property>
  </filter>
 </tractor>
 <producer id="producer261" in="00:00:00.000" out="00:02:26.000">
  <property name="length">8761</property>
  <property name="eof">pause</property>
  <property name="resource">audio/normalized/intro.wav</property>
  <property name="audio_index">0</property>
  <property name="video_index">-1</property>
  <property name="mute_on_pause">0</property>
  <property name="mlt_service">avformat-novalidate</property>
  <property name="meta.media.nb_streams">1</property>
  <property name="meta.media.0.stream.type">audio</property>
  <property name="meta.media.0.codec.sample_fmt">s16</property>
  <property name="meta.media.0.codec.sample_rate">48000</property>
  <property name="meta.media.0.codec.channels">2</property>
  <property name="meta.media.0.codec.name">pcm_s16le</property>
  <property name="meta.media.0.codec.long_name">PCM signed 16-bit little-endian</property>
  <property name="meta.media.0.codec.bit_rate">1536000</property>
  <property name="seekable">1</property>
  <property name="kdenlive:clipname"/>
  <property name="kdenlive:clip_type">1</property>
  <property name="kdenlive:folderid">329</property>
  <property name="kdenlive:id">332</property>
  <property name="kdenlive:file_size">28034152</property>
  <property name="kdenlive:file_hash">cd869f080e7293d22d5ea2b81173c331</property>
  <property name="kdenlive:audio_max0">122</property>
  <property name="xml">was here</property>
  <property name="set.test_audio">0</property>
  <property name="set.test_image">1</property>
 </producer>
 <playlist id="playlist2">
  <property name="kdenlive:audio_track">1</property>
  <entry producer="producer261" in="00:00:00.650" out="00:00:08.383">
   <property name="kdenlive:id">332</property>
  </entry>
  <entry producer="producer261" in="00:00:12.650" out="00:00:13.250">
   <property name="kdenlive:id">332</property>
  </entry>
  <blank length="00:00:00.967"/>
  <entry producer="producer261" in="00:00:16.983" out="00:00:18.800">
   <property name="kdenlive:id">332</property>
  </entry>
  <blank length="00:00:00.100"/>
  <entry producer="producer261" in="00:00:58.933" out="00:01:00.483">
   <property name="kdenlive:id">332</property>
  </entry>
  <blank length="00:00:01.117"/>
  <entry producer="producer261" in="00:01:07.100" out="00:01:10.150">
   <property name="kdenlive:id">332</property>
  </entry>
  <blank length="00:00:00.783"/>
  <entry producer="producer261" in="00:01:10.950" out="00:01:14.033">
   <property name="kdenlive:id">332</property>
  </entry>
  <blank length="00:00:00.467"/>
  <entry producer="producer261" in="00:01:14.517" out="00:01:15.050">
   <property name="kdenlive:id">332</property>
  </entry>
  <blank length="00:00:01.267"/>
  <entry producer="producer261" in="00:01:16.333" out="00:01:19.917">
   <property name="kdenlive:id">332</property>
  </entry>
  <blank length="00:00:00.750"/>
  <entry producer="producer261" in="00:01:27.917" out="00:01:33.567">
   <property name="kdenlive:id">332</property>
  </entry>
  <blank length="00:00:00.300"/>
  <entry producer="producer261" in="00:01:36.233" out="00:01:39.433">
   <property name="kdenlive:id">332</property>
  </entry>
  <blank length="00:00:00.467"/>
  <entry producer="producer261" in="00:01:39.917" out="00:01:45.617">
   <property name="kdenlive:id">332</property>
  </entry>
  <blank length="00:00:01.450"/>
  <entry producer="producer261" in="00:01:47.083" out="00:01:48.983">
   <property name="kdenlive:id">332</property>
  </entry>
  <entry producer="producer261" in="00:01:51.400" out="00:01:54.833">
   <property name="kdenlive:id">332</property>
  </entry>
  <entry producer="producer261" in="00:01:56.883" out="00:01:58.550">
   <property name="kdenlive:id">332</property>
  </entry>
  <entry producer="producer261" in="00:02:05.933" out="00:02:07.283">
   <property name="kdenlive:id">332</property>
  </entry>
  <entry producer="producer261" in="00:02:13.150" out="00:02:14.900">
   <property name="kdenlive:id">332</property>
  </entry>
  <blank length="00:00:00.967"/>
  <entry producer="producer261" in="00:02:15.883" out="00:02:17.533">
   <property name="kdenlive:id">332</property>
  </entry>
 </playlist>
 <playlist id="playlist3">
  <property name="kdenlive:audio_track">1</property>
 </playlist>
 <tractor id="tractor1" in="00:00:00.000" out="00:00:57.150">
  <property name="kdenlive:audio_track">1</property>
  <property name="kdenlive:trackheight">67</property>
  <property name="kdenlive:timeline_active">1</property>
  <property name="kdenlive:collapsed">0</property>
  <property name="kdenlive:thumbs_format"/>
  <property name="kdenlive:audio_rec"/>
  <track hide="video" producer="playlist2"/>
  <track hide="video" producer="playlist3"/>
  <filter id="filter5">
   <property name="window">75</property>
   <property name="max_gain">20dB</property>
   <property name="mlt_service">volume</property>
   <property name="internal_added">237</property>
   <property name="disable">1</property>
  </filter>
  <filter id="filter6">
   <property name="channel">-1</property>
   <property name="mlt_service">panner</property>
   <property name="internal_added">237</property>
   <property name="start">0.5</property>
   <property name="disable">1</property>
  </filter>
  <filter id="filter7">
   <property name="iec_scale">0</property>
   <property name="mlt_service">audiolevel</property>
   <property name="dbpeak">1</property>
   <property name="disable">1</property>
  </filter>
 </tractor>
 <producer id="producer262" in="00:00:00.000" out="00:00:01.983">
  <property name="length">120</property>
  <property name="eof">pause</property>
  <property name="resource">/home/xiaoxiae/.cache/kdenlive/proxy/8dff18832a70d54217650c23ab5e4f42.mkv</property>
  <property name="audio_index">-1</property>
  <property name="video_index">0</property>
  <property name="mute_on_pause">0</property>
  <property name="mlt_service">avformat-novalidate</property>
  <property name="meta.media.nb_streams">1</property>
  <property name="meta.media.0.stream.type">video</property>
  <property name="meta.media.0.stream.frame_rate">60</property>
  <property name="meta.media.0.stream.sample_aspect_ratio">0</property>
  <property name="meta.media.0.codec.width">640</property>
  <property name="meta.media.0.codec.height">1138</property>
  <property name="meta.media.0.codec.rotate">0</property>
  <property name="meta.media.0.codec.pix_fmt">yuvj420p</property>
  <property name="meta.media.0.codec.sample_aspect_ratio">0</property>
  <property name="meta.media.0.codec.colorspace">601</property>
  <property name="meta.media.0.codec.name">mjpeg</property>
  <property name="meta.media.0.codec.long_name">MJPEG (Motion JPEG)</property>
  <property name="meta.media.0.codec.bit_rate">0</property>
  <property name="meta.attr.0.stream.HANDLER_NAME.markup">VideoHandler</property>
  <property name="meta.attr.0.stream.VENDOR_ID.markup">[0][0][0][0]</property>
  <property name="meta.attr.0.stream.ENCODER.markup">Lavc59.37.100 mjpeg</property>
  <property name="meta.attr.0.stream.DURATION.markup">00:00:02.000000000</property>
  <property name="meta.attr.COMMENT.markup">Rendered with Manim Community v0.17.2</property>
  <property name="meta.attr.MAJOR_BRAND.markup">isom</property>
  <property name="meta.attr.MINOR_VERSION.markup">512</property>
  <property name="meta.attr.COMPATIBLE_BRANDS.markup">isomiso2avc1mp41</property>
  <property name="meta.attr.ENCODER.markup">Lavf59.27.100</property>
  <property name="seekable">1</property>
  <property name="meta.media.sample_aspect_num">1</property>
  <property name="meta.media.sample_aspect_den">1</property>
  <property name="aspect_ratio">1</property>
  <property name="format">3</property>
  <property name="kdenlive:clipname">1.mp4</property>
  <property name="kdenlive:clip_type">2</property>
  <property name="kdenlive:folderid">5</property>
  <property name="kdenlive:id">6</property>
  <property name="kdenlive:file_size">103742</property>
  <property name="kdenlive:proxy">/home/xiaoxiae/.cache/kdenlive/proxy/8dff18832a70d54217650c23ab5e4f42.mkv</property>
  <property name="kdenlive:originalurl">video/Introo/1.mp4</property>
  <property name="kdenlive:original.mlt_type">producer</property>
  <property name="kdenlive:original.in">0</property>
  <property name="kdenlive:original.out">119</property>
  <property name="kdenlive:original.length">120</property>
  <property name="kdenlive:original.eof">pause</property>
  <property name="kdenlive:original.resource">video/Introo/1.mp4</property>
  <property name="kdenlive:original.meta.media.nb_streams">1</property>
  <property name="kdenlive:original.meta.media.0.stream.type">video</property>
  <property name="kdenlive:original.meta.media.0.stream.frame_rate">60</property>
  <property name="kdenlive:original.meta.media.0.stream.sample_aspect_ratio">0</property>
  <property name="kdenlive:original.meta.media.0.codec.width">2160</property>
  <property name="kdenlive:original.meta.media.0.codec.height">3840</property>
  <property name="kdenlive:original.meta.media.0.codec.rotate">0</property>
  <property name="kdenlive:original.meta.media.0.codec.pix_fmt">yuv420p</property>
  <property name="kdenlive:original.meta.media.0.codec.sample_aspect_ratio">0</property>
  <property name="kdenlive:original.meta.media.0.codec.colorspace">709</property>
  <property name="kdenlive:original.meta.media.0.codec.name">h264</property>
  <property name="kdenlive:original.meta.media.0.codec.long_name">H.264 / AVC / MPEG-4 AVC / MPEG-4 part 10</property>
  <property name="kdenlive:original.meta.media.0.codec.bit_rate">405560</property>
  <property name="kdenlive:original.meta.attr.0.stream.handler_name.markup">VideoHandler</property>
  <property name="kdenlive:original.meta.attr.0.stream.vendor_id.markup">[0][0][0][0]</property>
  <property name="kdenlive:original.meta.attr.0.stream.encoder.markup">Lavc59.37.100 libx264</property>
  <property name="kdenlive:original.meta.attr.major_brand.markup">isom</property>
  <property name="kdenlive:original.meta.attr.minor_version.markup">512</property>
  <property name="kdenlive:original.meta.attr.compatible_brands.markup">isomiso2avc1mp41</property>
  <property name="kdenlive:original.meta.attr.encoder.markup">Lavf59.27.100</property>
  <property name="kdenlive:original.meta.attr.comment.markup">Rendered with Manim Community v0.17.2</property>
  <property name="kdenlive:original.seekable">1</property>
  <property name="kdenlive:original.width">2160</property>
  <property name="kdenlive:original.height">3840</property>
  <property name="kdenlive:original.meta.media.sample_aspect_num">1</property>
  <property name="kdenlive:original.meta.media.sample_aspect_den">1</property>
  <property name="kdenlive:original.aspect_ratio">1</property>
  <property name="kdenlive:original.format">3</property>
  <property name="kdenlive:original.audio_index">-1</property>
  <property name="kdenlive:original.video_index">0</property>
  <property name="kdenlive:original.mute_on_pause">0</property>
  <property name="kdenlive:original.mlt_service">avformat-novalidate</property>
  <property name="kdenlive:original.meta.media.frame_rate_num">60</property>
  <property name="kdenlive:original.meta.media.frame_rate_den">1</property>
  <property name="kdenlive:original.meta.media.colorspace">709</property>
  <property name="kdenlive:original.meta.media.color_trc">2</property>
  <property name="kdenlive:original.meta.media.has_b_frames">2</property>
  <property name="kdenlive:original.meta.media.width">2160</property>
  <property name="kdenlive:original.meta.media.height">3840</property>
  <property name="kdenlive:original.meta.media.color_range">mpeg</property>
  <property name="kdenlive:original.meta.media.top_field_first">0</property>
  <property name="kdenlive:original.meta.media.progressive">1</property>
  <property name="kdenlive:original.kdenlive:clip_type">2</property>
  <property name="kdenlive:original.kdenlive:folderid">5</property>
  <property name="kdenlive:original.kdenlive:id">6</property>
  <property name="kdenlive:original.kdenlive:file_size">103742</property>
  <property name="kdenlive:original.kdenlive:file_hash">8dff18832a70d54217650c23ab5e4f42</property>
  <property name="kdenlive:original.backup">1</property>
  <property name="kdenlive:file_hash">8dff18832a70d54217650c23ab5e4f42</property>
  <property name="xml">was here</property>
  <property name="meta.media.frame_rate_num">60</property>
  <property name="meta.media.frame_rate_den">1</property>
  <property name="meta.media.colorspace">601</property>
  <property name="meta.media.color_trc">2</property>
  <property name="meta.media.has_b_frames">0</property>
  <property name="meta.media.width">640</property>
  <property name="meta.media.height">1138</property>
  <property name="meta.media.color_range">full</property>
  <property name="meta.media.top_field_first">0</property>
  <property name="meta.media.progressive">1</property>
  <property name="set.test_audio">1</property>
  <property name="set.test_image">0</property>
 </producer>
 <producer id="producer263" in="00:00:00.000" out="00:00:01.483">
  <property name="length">90</property>
  <property name="eof">pause</property>
  <property name="resource">/home/xiaoxiae/.cache/kdenlive/proxy/0b89cd57b68835ad6c09b14c719bfc6c.mkv</property>
  <property name="audio_index">-1</property>
  <property name="video_index">0</property>
  <property name="mute_on_pause">0</property>
  <property name="mlt_service">avformat-novalidate</property>
  <property name="meta.media.nb_streams">1</property>
  <property name="meta.media.0.stream.type">video</property>
  <property name="meta.media.0.stream.frame_rate">60</property>
  <property name="meta.media.0.stream.sample_aspect_ratio">0</property>
  <property name="meta.media.0.codec.width">640</property>
  <property name="meta.media.0.codec.height">1138</property>
  <property name="meta.media.0.codec.rotate">0</property>
  <property name="meta.media.0.codec.pix_fmt">yuvj420p</property>
  <property name="meta.media.0.codec.sample_aspect_ratio">0</property>
  <property name="meta.media.0.codec.colorspace">601</property>
  <property name="meta.media.0.codec.name">mjpeg</property>
  <property name="meta.media.0.codec.long_name">MJPEG (Motion JPEG)</property>
  <property name="meta.media.0.codec.bit_rate">0</property>
  <property name="meta.attr.0.stream.HANDLER_NAME.markup">VideoHandler</property>
  <property name="meta.attr.0.stream.VENDOR_ID.markup">[0][0][0][0]</property>
  <property name="meta.attr.0.stream.ENCODER.markup">Lavc59.37.100 mjpeg</property>
  <property name="meta.attr.0.stream.DURATION.markup">00:00:01.500000000</property>
  <property name="meta.attr.COMMENT.markup">Rendered with Manim Community v0.17.2</property>
  <property name="meta.attr.MAJOR_BRAND.markup">isom</property>
  <property name="meta.attr.MINOR_VERSION.markup">512</property>
  <property name="meta.attr.COMPATIBLE_BRANDS.markup">isomiso2avc1mp41</property>
  <property name="meta.attr.ENCODER.markup">Lavf59.27.100</property>
  <property name="seekable">1</property>
  <property name="meta.media.sample_aspect_num">1</property>
  <property name="meta.media.sample_aspect_den">1</property>
  <property name="aspect_ratio">1</property>
  <property name="format">3</property>
  <property name="kdenlive:clipname">2.mp4</property>
  <property name="kdenlive:clip_type">2</property>
  <property name="kdenlive:folderid">5</property>
  <property name="kdenlive:id">12</property>
  <property name="kdenlive:file_size">225812</property>
  <property name="kdenlive:proxy">/home/xiaoxiae/.cache/kdenlive/proxy/0b89cd57b68835ad6c09b14c719bfc6c.mkv</property>
  <property name="kdenlive:originalurl">video/Introo/2.mp4</property>
  <property name="kdenlive:original.mlt_type">producer</property>
  <property name="kdenlive:original.in">0</property>
  <property name="kdenlive:original.out">89</property>
  <property name="kdenlive:original.length">90</property>
  <property name="kdenlive:original.eof">pause</property>
  <property name="kdenlive:original.resource">video/Introo/2.mp4</property>
  <property name="kdenlive:original.meta.media.nb_streams">1</property>
  <property name="kdenlive:original.meta.media.0.stream.type">video</property>
  <property name="kdenlive:original.meta.media.0.stream.frame_rate">60</property>
  <property name="kdenlive:original.meta.media.0.stream.sample_aspect_ratio">0</property>
  <property name="kdenlive:original.meta.media.0.codec.width">2160</property>
  <property name="kdenlive:original.meta.media.0.codec.height">3840</property>
  <property name="kdenlive:original.meta.media.0.codec.rotate">0</property>
  <property name="kdenlive:original.meta.media.0.codec.pix_fmt">yuv420p</property>
  <property name="kdenlive:original.meta.media.0.codec.sample_aspect_ratio">0</property>
  <property name="kdenlive:original.meta.media.0.codec.colorspace">709</property>
  <property name="kdenlive:original.meta.media.0.codec.name">h264</property>
  <property name="kdenlive:original.meta.media.0.codec.long_name">H.264 / AVC / MPEG-4 AVC / MPEG-4 part 10</property>
  <property name="kdenlive:original.meta.media.0.codec.bit_rate">1194005</property>
  <property name="kdenlive:original.meta.attr.0.stream.handler_name.markup">VideoHandler</property>
  <property name="kdenlive:original.meta.attr.0.stream.vendor_id.markup">[0][0][0][0]</property>
  <property name="kdenlive:original.meta.attr.0.stream.encoder.markup">Lavc59.37.100 libx264</property>
  <property name="kdenlive:original.meta.attr.major_brand.markup">isom</property>
  <property name="kdenlive:original.meta.attr.minor_version.markup">512</property>
  <property name="kdenlive:original.meta.attr.compatible_brands.markup">isomiso2avc1mp41</property>
  <property name="kdenlive:original.meta.attr.encoder.markup">Lavf59.27.100</property>
  <property name="kdenlive:original.meta.attr.comment.markup">Rendered with Manim Community v0.17.2</property>
  <property name="kdenlive:original.seekable">1</property>
  <property name="kdenlive:original.width">2160</property>
  <property name="kdenlive:original.height">3840</property>
  <property name="kdenlive:original.meta.media.sample_aspect_num">1</property>
  <property name="kdenlive:original.meta.media.sample_aspect_den">1</property>
  <property name="kdenlive:original.aspect_ratio">1</property>
  <property name="kdenlive:original.format">3</property>
  <property name="kdenlive:original.audio_index">-1</property>
  <property name="kdenlive:original.video_index">0</property>
  <property name="kdenlive:original.mute_on_pause">0</property>
  <property name="kdenlive:original.mlt_service">avformat-novalidate</property>
  <property name="kdenlive:original.meta.media.frame_rate_num">60</property>
  <property name="kdenlive:original.meta.media.frame_rate_den">1</property>
  <property name="kdenlive:original.meta.media.colorspace">709</property>
  <property name="kdenlive:original.meta.media.color_trc">2</property>
  <property name="kdenlive:original.meta.media.has_b_frames">2</property>
  <property name="kdenlive:original.meta.media.width">2160</property>
  <property name="kdenlive:original.meta.media.height">3840</property>
  <property name="kdenlive:original.meta.media.color_range">mpeg</property>
  <property name="kdenlive:original.meta.media.top_field_first">0</property>
  <property name="kdenlive:original.meta.media.progressive">1</property>
  <property name="kdenlive:original.kdenlive:clip_type">2</property>
  <property name="kdenlive:original.kdenlive:folderid">5</property>
  <property name="kdenlive:original.kdenlive:id">12</property>
  <property name="kdenlive:original.kdenlive:file_size">225812</property>
  <property name="kdenlive:original.kdenlive:file_hash">0b89cd57b68835ad6c09b14c719bfc6c</property>
  <property name="kdenlive:original.backup">1</property>
  <property name="kdenlive:file_hash">0b89cd57b68835ad6c09b14c719bfc6c</property>
  <property name="xml">was here</property>
  <property name="meta.media.frame_rate_num">60</property>
  <property name="meta.media.frame_rate_den">1</property>
  <property name="meta.media.colorspace">601</property>
  <property name="meta.media.color_trc">2</property>
  <property name="meta.media.has_b_frames">0</property>
  <property name="meta.media.width">640</property>
  <property name="meta.media.height">1138</property>
  <property name="meta.media.color_range">full</property>
  <property name="meta.media.top_field_first">0</property>
  <property name="meta.media.progressive">1</property>
  <property name="set.test_audio">1</property>
  <property name="set.test_image">0</property>
 </producer>
 <producer id="producer264" in="00:00:00.000" out="00:00:01.733">
  <property name="length">105</property>
  <property name="eof">pause</property>
  <property name="resource">/home/xiaoxiae/.cache/kdenlive/proxy/eb9d0e5bf0ea9a77bbb7776fed1462bd.mkv</property>
  <property name="audio_index">-1</property>
  <property name="video_index">0</property>
  <property name="mute_on_pause">0</property>
  <property name="mlt_service">avformat-novalidate</property>
  <property name="meta.media.nb_streams">1</property>
  <property name="meta.media.0.stream.type">video</property>
  <property name="meta.media.0.stream.frame_rate">60</property>
  <property name="meta.media.0.stream.sample_aspect_ratio">0</property>
  <property name="meta.media.0.codec.width">640</property>
  <property name="meta.media.0.codec.height">1138</property>
  <property name="meta.media.0.codec.rotate">0</property>
  <property name="meta.media.0.codec.pix_fmt">yuvj420p</property>
  <property name="meta.media.0.codec.sample_aspect_ratio">0</property>
  <property name="meta.media.0.codec.colorspace">601</property>
  <property name="meta.media.0.codec.name">mjpeg</property>
  <property name="meta.media.0.codec.long_name">MJPEG (Motion JPEG)</property>
  <property name="meta.media.0.codec.bit_rate">0</property>
  <property name="meta.attr.0.stream.HANDLER_NAME.markup">VideoHandler</property>
  <property name="meta.attr.0.stream.VENDOR_ID.markup">[0][0][0][0]</property>
  <property name="meta.attr.0.stream.ENCODER.markup">Lavc59.37.100 mjpeg</property>
  <property name="meta.attr.0.stream.DURATION.markup">00:00:01.750000000</property>
  <property name="meta.attr.COMMENT.markup">Rendered with Manim Community v0.17.2</property>
  <property name="meta.attr.MAJOR_BRAND.markup">isom</property>
  <property name="meta.attr.MINOR_VERSION.markup">512</property>
  <property name="meta.attr.COMPATIBLE_BRANDS.markup">isomiso2avc1mp41</property>
  <property name="meta.attr.ENCODER.markup">Lavf59.27.100</property>
  <property name="seekable">1</property>
  <property name="meta.media.sample_aspect_num">1</property>
  <property name="meta.media.sample_aspect_den">1</property>
  <property name="aspect_ratio">1</property>
  <property name="format">3</property>
  <property name="kdenlive:clipname">3.mp4</property>
  <property name="kdenlive:clip_type">2</property>
  <property name="kdenlive:folderid">5</property>
  <property name="kdenlive:id">13</property>
  <property name="kdenlive:file_size">441722</property>
  <property name="kdenlive:proxy">/home/xiaoxiae/.cache/kdenlive/proxy/eb9d0e5bf0ea9a77bbb7776fed1462bd.mkv</property>
  <property name="kdenlive:originalurl">video/Introo/3.mp4</property>
  <property name="kdenlive:original.mlt_type">producer</property>
  <property name="kdenlive:original.in">0</property>
  <property name="kdenlive:original.out">104</property>
  <property name="kdenlive:original.length">105</property>
  <property name="kdenlive:original.eof">pause</property>
  <property name="kdenlive:original.resource">video/Introo/3.mp4</property>
  <property name="kdenlive:original.meta.media.nb_streams">1</property>
  <property name="kdenlive:original.meta.media.0.stream.type">video</property>
  <property name="kdenlive:original.meta.media.0.stream.frame_rate">60</property>
  <property name="kdenlive:original.meta.media.0.stream.sample_aspect_ratio">0</property>
  <property name="kdenlive:original.meta.media.0.codec.width">2160</property>
  <property name="kdenlive:original.meta.media.0.codec.height">3840</property>
  <property name="kdenlive:original.meta.media.0.codec.rotate">0</property>
  <property name="kdenlive:original.meta.media.0.codec.pix_fmt">yuv420p</property>
  <property name="kdenlive:original.meta.media.0.codec.sample_aspect_ratio">0</property>
  <property name="kdenlive:original.meta.media.0.codec.colorspace">709</property>
  <property name="kdenlive:original.meta.media.0.codec.name">h264</property>
  <property name="kdenlive:original.meta.media.0.codec.long_name">H.264 / AVC / MPEG-4 AVC / MPEG-4 part 10</property>
  <property name="kdenlive:original.meta.media.0.codec.bit_rate">1960146</property>
  <property name="kdenlive:original.meta.attr.0.stream.handler_name.markup">VideoHandler</property>
  <property name="kdenlive:original.meta.attr.0.stream.vendor_id.markup">[0][0][0][0]</property>
  <property name="kdenlive:original.meta.attr.0.stream.encoder.markup">Lavc59.37.100 libx264</property>
  <property name="kdenlive:original.meta.attr.major_brand.markup">isom</property>
  <property name="kdenlive:original.meta.attr.minor_version.markup">512</property>
  <property name="kdenlive:original.meta.attr.compatible_brands.markup">isomiso2avc1mp41</property>
  <property name="kdenlive:original.meta.attr.encoder.markup">Lavf59.27.100</property>
  <property name="kdenlive:original.meta.attr.comment.markup">Rendered with Manim Community v0.17.2</property>
  <property name="kdenlive:original.seekable">1</property>
  <property name="kdenlive:original.width">2160</property>
  <property name="kdenlive:original.height">3840</property>
  <property name="kdenlive:original.meta.media.sample_aspect_num">1</property>
  <property name="kdenlive:original.meta.media.sample_aspect_den">1</property>
  <property name="kdenlive:original.aspect_ratio">1</property>
  <property name="kdenlive:original.format">3</property>
  <property name="kdenlive:original.audio_index">-1</property>
  <property name="kdenlive:original.video_index">0</property>
  <property name="kdenlive:original.mute_on_pause">0</property>
  <property name="kdenlive:original.mlt_service">avformat-novalidate</property>
  <property name="kdenlive:original.meta.media.frame_rate_num">60</property>
  <property name="kdenlive:original.meta.media.frame_rate_den">1</property>
  <property name="kdenlive:original.meta.media.colorspace">709</property>
  <property name="kdenlive:original.meta.media.color_trc">2</property>
  <property name="kdenlive:original.meta.media.has_b_frames">2</property>
  <property name="kdenlive:original.meta.media.width">2160</property>
  <property name="kdenlive:original.meta.media.height">3840</property>
  <property name="kdenlive:original.meta.media.color_range">mpeg</property>
  <property name="kdenlive:original.meta.media.top_field_first">0</property>
  <property name="kdenlive:original.meta.media.progressive">1</property>
  <property name="kdenlive:original.kdenlive:clip_type">2</property>
  <property name="kdenlive:original.kdenlive:folderid">5</property>
  <property name="kdenlive:original.kdenlive:id">13</property>
  <property name="kdenlive:original.kdenlive:file_size">430866</property>
  <property name="kdenlive:original.kdenlive:file_hash">295fa29a793835a789d13ab985aeb422</property>
  <property name="kdenlive:original.backup">1</property>
  <property name="kdenlive:file_hash">eb9d0e5bf0ea9a77bbb7776fed1462bd</property>
  <property name="xml">was here</property>
  <property name="meta.media.frame_rate_num">60</property>
  <property name="meta.media.frame_rate_den">1</property>
  <property name="meta.media.colorspace">601</property>
  <property name="meta.media.color_trc">2</property>
  <property name="meta.media.has_b_frames">0</property>
  <property name="meta.media.width">640</property>
  <property name="meta.media.height">1138</property>
  <property name="meta.media.color_range">full</property>
  <property name="meta.media.top_field_first">0</property>
  <property name="meta.media.progressive">1</property>
  <property name="set.test_audio">1</property>
  <property name="set.test_image">0</property>
 </producer>
 <producer id="producer265" in="00:00:00.000" out="00:00:01.483">
  <property name="length">90</property>
  <property name="eof">pause</property>
  <property name="resource">/home/xiaoxiae/.cache/kdenlive/proxy/3e7606f1125d60f98e1b317cb1cdfb3e.mkv</property>
  <property name="audio_index">-1</property>
  <property name="video_index">0</property>
  <property name="mute_on_pause">0</property>
  <property name="mlt_service">avformat-novalidate</property>
  <property name="meta.media.nb_streams">1</property>
  <property name="meta.media.0.stream.type">video</property>
  <property name="meta.media.0.stream.frame_rate">60</property>
  <property name="meta.media.0.stream.sample_aspect_ratio">0</property>
  <property name="meta.media.0.codec.width">640</property>
  <property name="meta.media.0.codec.height">1138</property>
  <property name="meta.media.0.codec.rotate">0</property>
  <property name="meta.media.0.codec.pix_fmt">yuvj420p</property>
  <property name="meta.media.0.codec.sample_aspect_ratio">0</property>
  <property name="meta.media.0.codec.colorspace">601</property>
  <property name="meta.media.0.codec.name">mjpeg</property>
  <property name="meta.media.0.codec.long_name">MJPEG (Motion JPEG)</property>
  <property name="meta.media.0.codec.bit_rate">0</property>
  <property name="meta.attr.0.stream.HANDLER_NAME.markup">VideoHandler</property>
  <property name="meta.attr.0.stream.VENDOR_ID.markup">[0][0][0][0]</property>
  <property name="meta.attr.0.stream.ENCODER.markup">Lavc59.37.100 mjpeg</property>
  <property name="meta.attr.0.stream.DURATION.markup">00:00:01.500000000</property>
  <property name="meta.attr.COMMENT.markup">Rendered with Manim Community v0.17.2</property>
  <property name="meta.attr.MAJOR_BRAND.markup">isom</property>
  <property name="meta.attr.MINOR_VERSION.markup">512</property>
  <property name="meta.attr.COMPATIBLE_BRANDS.markup">isomiso2avc1mp41</property>
  <property name="meta.attr.ENCODER.markup">Lavf59.27.100</property>
  <property name="seekable">1</property>
  <property name="meta.media.sample_aspect_num">1</property>
  <property name="meta.media.sample_aspect_den">1</property>
  <property name="aspect_ratio">1</property>
  <property name="format">3</property>
  <property name="kdenlive:clipname">4.mp4</property>
  <property name="kdenlive:clip_type">2</property>
  <property name="kdenlive:folderid">5</property>
  <property name="kdenlive:id">14</property>
  <property name="kdenlive:file_size">525924</property>
  <property name="kdenlive:proxy">/home/xiaoxiae/.cache/kdenlive/proxy/3e7606f1125d60f98e1b317cb1cdfb3e.mkv</property>
  <property name="kdenlive:originalurl">video/Introo/4.mp4</property>
  <property name="kdenlive:original.mlt_type">producer</property>
  <property name="kdenlive:original.in">0</property>
  <property name="kdenlive:original.out">89</property>
  <property name="kdenlive:original.length">90</property>
  <property name="kdenlive:original.eof">pause</property>
  <property name="kdenlive:original.resource">video/Introo/4.mp4</property>
  <property name="kdenlive:original.meta.media.nb_streams">1</property>
  <property name="kdenlive:original.meta.media.0.stream.type">video</property>
  <property name="kdenlive:original.meta.media.0.stream.frame_rate">60</property>
  <property name="kdenlive:original.meta.media.0.stream.sample_aspect_ratio">0</property>
  <property name="kdenlive:original.meta.media.0.codec.width">2160</property>
  <property name="kdenlive:original.meta.media.0.codec.height">3840</property>
  <property name="kdenlive:original.meta.media.0.codec.rotate">0</property>
  <property name="kdenlive:original.meta.media.0.codec.pix_fmt">yuv420p</property>
  <property name="kdenlive:original.meta.media.0.codec.sample_aspect_ratio">0</property>
  <property name="kdenlive:original.meta.media.0.codec.colorspace">709</property>
  <property name="kdenlive:original.meta.media.0.codec.name">h264</property>
  <property name="kdenlive:original.meta.media.0.codec.long_name">H.264 / AVC / MPEG-4 AVC / MPEG-4 part 10</property>
  <property name="kdenlive:original.meta.media.0.codec.bit_rate">2789776</property>
  <property name="kdenlive:original.meta.attr.0.stream.handler_name.markup">VideoHandler</property>
  <property name="kdenlive:original.meta.attr.0.stream.vendor_id.markup">[0][0][0][0]</property>
  <property name="kdenlive:original.meta.attr.0.stream.encoder.markup">Lavc59.37.100 libx264</property>
  <property name="kdenlive:original.meta.attr.major_brand.markup">isom</property>
  <property name="kdenlive:original.meta.attr.minor_version.markup">512</property>
  <property name="kdenlive:original.meta.attr.compatible_brands.markup">isomiso2avc1mp41</property>
  <property name="kdenlive:original.meta.attr.encoder.markup">Lavf59.27.100</property>
  <property name="kdenlive:original.meta.attr.comment.markup">Rendered with Manim Community v0.17.2</property>
  <property name="kdenlive:original.seekable">1</property>
  <property name="kdenlive:original.width">2160</property>
  <property name="kdenlive:original.height">3840</property>
  <property name="kdenlive:original.meta.media.sample_aspect_num">1</property>
  <property name="kdenlive:original.meta.media.sample_aspect_den">1</property>
  <property name="kdenlive:original.aspect_ratio">1</property>
  <property name="kdenlive:original.format">3</property>
  <property name="kdenlive:original.audio_index">-1</property>
  <property name="kdenlive:original.video_index">0</property>
  <property name="kdenlive:original.mute_on_pause">0</property>
  <property name="kdenlive:original.mlt_service">avformat-novalidate</property>
  <property name="kdenlive:original.meta.media.frame_rate_num">60</property>
  <property name="kdenlive:original.meta.media.frame_rate_den">1</property>
  <property name="kdenlive:original.meta.media.colorspace">709</property>
  <property name="kdenlive:original.meta.media.color_trc">2</property>
  <property name="kdenlive:original.meta.media.has_b_frames">2</property>
  <property name="kdenlive:original.meta.media.width">2160</property>
  <property name="kdenlive:original.meta.media.height">3840</property>
  <property name="kdenlive:original.meta.media.color_range">mpeg</property>
  <property name="kdenlive:original.meta.media.top_field_first">0</property>
  <property name="kdenlive:original.meta.media.progressive">1</property>
  <property name="kdenlive:original.kdenlive:clip_type">2</property>
  <property name="kdenlive:original.kdenlive:folderid">5</property>
  <property name="kdenlive:original.kdenlive:id">14</property>
  <property name="kdenlive:original.kdenlive:file_size">524875</property>
  <property name="kdenlive:original.kdenlive:file_hash">8d02e5c2dad60165adddbcbd80de5983</property>
  <property name="kdenlive:original.backup">1</property>
  <property name="kdenlive:file_hash">3e7606f1125d60f98e1b317cb1cdfb3e</property>
  <property name="xml">was here</property>
  <property name="meta.media.frame_rate_num">60</property>
  <property name="meta.media.frame_rate_den">1</property>
  <property name="meta.media.colorspace">601</property>
  <property name="meta.media.color_trc">2</property>
  <property name="meta.media.has_b_frames">0</property>
  <property name="meta.media.width">640</property>
  <property name="meta.media.height">1138</property>
  <property name="meta.media.color_range">full</property>
  <property name="meta.media.top_field_first">0</property>
  <property name="meta.media.progressive">1</property>
  <property name="set.test_audio">1</property>
  <property name="set.test_image">0</property>
 </producer>
 <producer id="producer266" in="00:00:00.000" out="00:00:09.983">
  <property name="length">600</property>
  <property name="eof">pause</property>
  <property name="resource">0.100000:/home/xiaoxiae/.cache/kdenlive/proxy/16ecf3a2cc0a3382bf035fed3e36b2e1.mkv</property>
  <property name="aspect_ratio">1</property>
  <property name="meta.media.nb_streams">1</property>
  <property name="meta.media.0.stream.type">video</property>
  <property name="meta.media.0.stream.frame_rate">60</property>
  <property name="meta.media.0.stream.sample_aspect_ratio">0</property>
  <property name="meta.media.0.codec.width">640</property>
  <property name="meta.media.0.codec.height">1138</property>
  <property name="meta.media.0.codec.rotate">0</property>
  <property name="meta.media.0.codec.pix_fmt">yuvj420p</property>
  <property name="meta.media.0.codec.sample_aspect_ratio">0</property>
  <property name="meta.media.0.codec.colorspace">601</property>
  <property name="meta.media.0.codec.name">mjpeg</property>
  <property name="meta.media.0.codec.long_name">MJPEG (Motion JPEG)</property>
  <property name="meta.media.0.codec.bit_rate">0</property>
  <property name="meta.attr.0.stream.HANDLER_NAME.markup">VideoHandler</property>
  <property name="meta.attr.0.stream.VENDOR_ID.markup">[0][0][0][0]</property>
  <property name="meta.attr.0.stream.ENCODER.markup">Lavc59.37.100 mjpeg</property>
  <property name="meta.attr.0.stream.DURATION.markup">00:00:01.000000000</property>
  <property name="meta.attr.COMMENT.markup">Rendered with Manim Community v0.17.2</property>
  <property name="meta.attr.MAJOR_BRAND.markup">isom</property>
  <property name="meta.attr.MINOR_VERSION.markup">512</property>
  <property name="meta.attr.COMPATIBLE_BRANDS.markup">isomiso2avc1mp41</property>
  <property name="meta.attr.ENCODER.markup">Lavf59.27.100</property>
  <property name="seekable">1</property>
  <property name="meta.media.sample_aspect_num">1</property>
  <property name="meta.media.sample_aspect_den">1</property>
  <property name="format">3</property>
  <property name="audio_index">-1</property>
  <property name="video_index">0</property>
  <property name="mute_on_pause">1</property>
  <property name="warp_speed">0.1</property>
  <property name="warp_resource">/home/xiaoxiae/.cache/kdenlive/proxy/16ecf3a2cc0a3382bf035fed3e36b2e1.mkv</property>
  <property name="mlt_service">timewarp</property>
  <property name="kdenlive:proxy">/home/xiaoxiae/.cache/kdenlive/proxy/16ecf3a2cc0a3382bf035fed3e36b2e1.mkv</property>
  <property name="kdenlive:originalurl">video/Introo/6.mp4</property>
  <property name="set.test_audio">1</property>
  <property name="set.test_image">0</property>
  <property name="kdenlive:id">16</property>
  <property name="warp_pitch">0</property>
  <property name="meta.media.frame_rate_num">60</property>
  <property name="meta.media.frame_rate_den">1</property>
  <property name="meta.media.colorspace">601</property>
  <property name="meta.media.color_trc">2</property>
  <property name="meta.media.has_b_frames">0</property>
  <property name="meta.media.width">640</property>
  <property name="meta.media.height">1138</property>
  <property name="meta.media.color_range">full</property>
  <property name="meta.media.top_field_first">0</property>
  <property name="meta.media.progressive">1</property>
 </producer>
 <producer id="producer267" in="00:00:00.000" out="00:00:00.983">
  <property name="length">60</property>
  <property name="eof">pause</property>
  <property name="resource">/home/xiaoxiae/.cache/kdenlive/proxy/16ecf3a2cc0a3382bf035fed3e36b2e1.mkv</property>
  <property name="audio_index">-1</property>
  <property name="video_index">0</property>
  <property name="mute_on_pause">0</property>
  <property name="mlt_service">avformat-novalidate</property>
  <property name="meta.media.nb_streams">1</property>
  <property name="meta.media.0.stream.type">video</property>
  <property name="meta.media.0.stream.frame_rate">60</property>
  <property name="meta.media.0.stream.sample_aspect_ratio">0</property>
  <property name="meta.media.0.codec.width">640</property>
  <property name="meta.media.0.codec.height">1138</property>
  <property name="meta.media.0.codec.rotate">0</property>
  <property name="meta.media.0.codec.pix_fmt">yuvj420p</property>
  <property name="meta.media.0.codec.sample_aspect_ratio">0</property>
  <property name="meta.media.0.codec.colorspace">601</property>
  <property name="meta.media.0.codec.name">mjpeg</property>
  <property name="meta.media.0.codec.long_name">MJPEG (Motion JPEG)</property>
  <property name="meta.media.0.codec.bit_rate">0</property>
  <property name="meta.attr.0.stream.HANDLER_NAME.markup">VideoHandler</property>
  <property name="meta.attr.0.stream.VENDOR_ID.markup">[0][0][0][0]</property>
  <property name="meta.attr.0.stream.ENCODER.markup">Lavc59.37.100 mjpeg</property>
  <property name="meta.attr.0.stream.DURATION.markup">00:00:01.000000000</property>
  <property name="meta.attr.COMMENT.markup">Rendered with Manim Community v0.17.2</property>
  <property name="meta.attr.MAJOR_BRAND.markup">isom</property>
  <property name="meta.attr.MINOR_VERSION.markup">512</property>
  <property name="meta.attr.COMPATIBLE_BRANDS.markup">isomiso2avc1mp41</property>
  <property name="meta.attr.ENCODER.markup">Lavf59.27.100</property>
  <property name="seekable">1</property>
  <property name="meta.media.sample_aspect_num">1</property>
  <property name="meta.media.sample_aspect_den">1</property>
  <property name="aspect_ratio">1</property>
  <property name="format">3</property>
  <property name="kdenlive:clipname">6.mp4</property>
  <property name="kdenlive:clip_type">2</property>
  <property name="kdenlive:folderid">5</property>
  <property name="kdenlive:id">16</property>
  <property name="kdenlive:file_size">88308</property>
  <property name="kdenlive:proxy">/home/xiaoxiae/.cache/kdenlive/proxy/16ecf3a2cc0a3382bf035fed3e36b2e1.mkv</property>
  <property name="kdenlive:originalurl">video/Introo/6.mp4</property>
  <property name="kdenlive:original.mlt_type">producer</property>
  <property name="kdenlive:original.in">0</property>
  <property name="kdenlive:original.out">59</property>
  <property name="kdenlive:original.length">60</property>
  <property name="kdenlive:original.eof">pause</property>
  <property name="kdenlive:original.resource">video/Introo/6.mp4</property>
  <property name="kdenlive:original.meta.media.nb_streams">1</property>
  <property name="kdenlive:original.meta.media.0.stream.type">video</property>
  <property name="kdenlive:original.meta.media.0.stream.frame_rate">60</property>
  <property name="kdenlive:original.meta.media.0.stream.sample_aspect_ratio">0</property>
  <property name="kdenlive:original.meta.media.0.codec.width">2160</property>
  <property name="kdenlive:original.meta.media.0.codec.height">3840</property>
  <property name="kdenlive:original.meta.media.0.codec.rotate">0</property>
  <property name="kdenlive:original.meta.media.0.codec.pix_fmt">yuv420p</property>
  <property name="kdenlive:original.meta.media.0.codec.sample_aspect_ratio">0</property>
  <property name="kdenlive:original.meta.media.0.codec.colorspace">709</property>
  <property name="kdenlive:original.meta.media.0.codec.name">h264</property>
  <property name="kdenlive:original.meta.media.0.codec.long_name">H.264 / AVC / MPEG-4 AVC / MPEG-4 part 10</property>
  <property name="kdenlive:original.meta.media.0.codec.bit_rate">693408</property>
  <property name="kdenlive:original.meta.attr.0.stream.handler_name.markup">VideoHandler</property>
  <property name="kdenlive:original.meta.attr.0.stream.vendor_id.markup">[0][0][0][0]</property>
  <property name="kdenlive:original.meta.attr.0.stream.encoder.markup">Lavc59.37.100 libx264</property>
  <property name="kdenlive:original.meta.attr.major_brand.markup">isom</property>
  <property name="kdenlive:original.meta.attr.minor_version.markup">512</property>
  <property name="kdenlive:original.meta.attr.compatible_brands.markup">isomiso2avc1mp41</property>
  <property name="kdenlive:original.meta.attr.encoder.markup">Lavf59.27.100</property>
  <property name="kdenlive:original.meta.attr.comment.markup">Rendered with Manim Community v0.17.2</property>
  <property name="kdenlive:original.seekable">1</property>
  <property name="kdenlive:original.width">2160</property>
  <property name="kdenlive:original.height">3840</property>
  <property name="kdenlive:original.meta.media.sample_aspect_num">1</property>
  <property name="kdenlive:original.meta.media.sample_aspect_den">1</property>
  <property name="kdenlive:original.aspect_ratio">1</property>
  <property name="kdenlive:original.format">3</property>
  <property name="kdenlive:original.audio_index">-1</property>
  <property name="kdenlive:original.video_index">0</property>
  <property name="kdenlive:original.mute_on_pause">0</property>
  <property name="kdenlive:original.mlt_service">avformat-novalidate</property>
  <property name="kdenlive:original.meta.media.frame_rate_num">60</property>
  <property name="kdenlive:original.meta.media.frame_rate_den">1</property>
  <property name="kdenlive:original.meta.media.colorspace">709</property>
  <property name="kdenlive:original.meta.media.color_trc">2</property>
  <property name="kdenlive:original.meta.media.has_b_frames">2</property>
  <property name="kdenlive:original.meta.media.width">2160</property>
  <property name="kdenlive:original.meta.media.height">3840</property>
  <property name="kdenlive:original.meta.media.color_range">mpeg</property>
  <property name="kdenlive:original.meta.media.top_field_first">0</property>
  <property name="kdenlive:original.meta.media.progressive">1</property>
  <property name="kdenlive:original.kdenlive:clip_type">2</property>
  <property name="kdenlive:original.kdenlive:folderid">5</property>
  <property name="kdenlive:original.kdenlive:id">16</property>
  <property name="kdenlive:original.kdenlive:file_size">88308</property>
  <property name="kdenlive:original.kdenlive:file_hash">16ecf3a2cc0a3382bf035fed3e36b2e1</property>
  <property name="kdenlive:original.backup">1</property>
  <property name="kdenlive:file_hash">16ecf3a2cc0a3382bf035fed3e36b2e1</property>
  <property name="xml">was here</property>
  <property name="meta.media.frame_rate_num">60</property>
  <property name="meta.media.frame_rate_den">1</property>
  <property name="meta.media.colorspace">601</property>
  <property name="meta.media.color_trc">2</property>
  <property name="meta.media.has_b_frames">0</property>
  <property name="meta.media.width">640</property>
  <property name="meta.media.height">1138</property>
  <property name="meta.media.color_range">full</property>
  <property name="meta.media.top_field_first">0</property>
  <property name="meta.media.progressive">1</property>
  <property name="set.test_audio">1</property>
  <property name="set.test_image">0</property>
 </producer>
 <producer id="producer268" in="00:00:00.000" out="00:00:01.983">
  <property name="length">120</property>
  <property name="eof">pause</property>
  <property name="resource">0.500000:/home/xiaoxiae/.cache/kdenlive/proxy/a5ef829cffb2353fb09522934d10fcf5.mkv</property>
  <property name="aspect_ratio">1</property>
  <property name="meta.media.nb_streams">1</property>
  <property name="meta.media.0.stream.type">video</property>
  <property name="meta.media.0.stream.frame_rate">60</property>
  <property name="meta.media.0.stream.sample_aspect_ratio">0</property>
  <property name="meta.media.0.codec.width">640</property>
  <property name="meta.media.0.codec.height">1138</property>
  <property name="meta.media.0.codec.rotate">0</property>
  <property name="meta.media.0.codec.pix_fmt">yuvj420p</property>
  <property name="meta.media.0.codec.sample_aspect_ratio">0</property>
  <property name="meta.media.0.codec.colorspace">601</property>
  <property name="meta.media.0.codec.name">mjpeg</property>
  <property name="meta.media.0.codec.long_name">MJPEG (Motion JPEG)</property>
  <property name="meta.media.0.codec.bit_rate">0</property>
  <property name="meta.attr.0.stream.HANDLER_NAME.markup">VideoHandler</property>
  <property name="meta.attr.0.stream.VENDOR_ID.markup">[0][0][0][0]</property>
  <property name="meta.attr.0.stream.ENCODER.markup">Lavc59.37.100 mjpeg</property>
  <property name="meta.attr.0.stream.DURATION.markup">00:00:01.000000000</property>
  <property name="meta.attr.COMMENT.markup">Rendered with Manim Community v0.17.2</property>
  <property name="meta.attr.MAJOR_BRAND.markup">isom</property>
  <property name="meta.attr.MINOR_VERSION.markup">512</property>
  <property name="meta.attr.COMPATIBLE_BRANDS.markup">isomiso2avc1mp41</property>
  <property name="meta.attr.ENCODER.markup">Lavf59.27.100</property>
  <property name="seekable">1</property>
  <property name="meta.media.sample_aspect_num">1</property>
  <property name="meta.media.sample_aspect_den">1</property>
  <property name="format">3</property>
  <property name="audio_index">-1</property>
  <property name="video_index">0</property>
  <property name="mute_on_pause">1</property>
  <property name="warp_speed">0.5</property>
  <property name="warp_resource">/home/xiaoxiae/.cache/kdenlive/proxy/a5ef829cffb2353fb09522934d10fcf5.mkv</property>
  <property name="mlt_service">timewarp</property>
  <property name="kdenlive:proxy">/home/xiaoxiae/.cache/kdenlive/proxy/a5ef829cffb2353fb09522934d10fcf5.mkv</property>
  <property name="kdenlive:originalurl">video/Introo/7.mp4</property>
  <property name="set.test_audio">1</property>
  <property name="set.test_image">0</property>
  <property name="kdenlive:id">17</property>
  <property name="warp_pitch">0</property>
  <property name="meta.media.frame_rate_num">60</property>
  <property name="meta.media.frame_rate_den">1</property>
  <property name="meta.media.colorspace">601</property>
  <property name="meta.media.color_trc">2</property>
  <property name="meta.media.has_b_frames">0</property>
  <property name="meta.media.width">640</property>
  <property name="meta.media.height">1138</property>
  <property name="meta.media.color_range">full</property>
  <property name="meta.media.top_field_first">0</property>
  <property name="meta.media.progressive">1</property>
 </producer>
 <producer id="producer269" in="00:00:00.000" out="00:00:00.983">
  <property name="length">60</property>
  <property name="eof">pause</property>
  <property name="resource">/home/xiaoxiae/.cache/kdenlive/proxy/a5ef829cffb2353fb09522934d10fcf5.mkv</property>
  <property name="audio_index">-1</property>
  <property name="video_index">0</property>
  <property name="mute_on_pause">0</property>
  <property name="mlt_service">avformat-novalidate</property>
  <property name="meta.media.nb_streams">1</property>
  <property name="meta.media.0.stream.type">video</property>
  <property name="meta.media.0.stream.frame_rate">60</property>
  <property name="meta.media.0.stream.sample_aspect_ratio">0</property>
  <property name="meta.media.0.codec.width">640</property>
  <property name="meta.media.0.codec.height">1138</property>
  <property name="meta.media.0.codec.rotate">0</property>
  <property name="meta.media.0.codec.pix_fmt">yuvj420p</property>
  <property name="meta.media.0.codec.sample_aspect_ratio">0</property>
  <property name="meta.media.0.codec.colorspace">601</property>
  <property name="meta.media.0.codec.name">mjpeg</property>
  <property name="meta.media.0.codec.long_name">MJPEG (Motion JPEG)</property>
  <property name="meta.media.0.codec.bit_rate">0</property>
  <property name="meta.attr.0.stream.HANDLER_NAME.markup">VideoHandler</property>
  <property name="meta.attr.0.stream.VENDOR_ID.markup">[0][0][0][0]</property>
  <property name="meta.attr.0.stream.ENCODER.markup">Lavc59.37.100 mjpeg</property>
  <property name="meta.attr.0.stream.DURATION.markup">00:00:01.000000000</property>
  <property name="meta.attr.COMMENT.markup">Rendered with Manim Community v0.17.2</property>
  <property name="meta.attr.MAJOR_BRAND.markup">isom</property>
  <property name="meta.attr.MINOR_VERSION.markup">512</property>
  <property name="meta.attr.COMPATIBLE_BRANDS.markup">isomiso2avc1mp41</property>
  <property name="meta.attr.ENCODER.markup">Lavf59.27.100</property>
  <property name="seekable">1</property>
  <property name="meta.media.sample_aspect_num">1</property>
  <property name="meta.media.sample_aspect_den">1</property>
  <property name="aspect_ratio">1</property>
  <property name="format">3</property>
  <property name="kdenlive:clipname">7.mp4</property>
  <property name="kdenlive:clip_type">2</property>
  <property name="kdenlive:folderid">5</property>
  <property name="kdenlive:id">17</property>
  <property name="kdenlive:file_size">105305</property>
  <property name="kdenlive:proxy">/home/xiaoxiae/.cache/kdenlive/proxy/a5ef829cffb2353fb09522934d10fcf5.mkv</property>
  <property name="kdenlive:originalurl">video/Introo/7.mp4</property>
  <property name="kdenlive:original.mlt_type">producer</property>
  <property name="kdenlive:original.in">0</property>
  <property name="kdenlive:original.out">59</property>
  <property name="kdenlive:original.length">60</property>
  <property name="kdenlive:original.eof">pause</property>
  <property name="kdenlive:original.resource">video/Introo/7.mp4</property>
  <property name="kdenlive:original.meta.media.nb_streams">1</property>
  <property name="kdenlive:original.meta.media.0.stream.type">video</property>
  <property name="kdenlive:original.meta.media.0.stream.frame_rate">60</property>
  <property name="kdenlive:original.meta.media.0.stream.sample_aspect_ratio">0</property>
  <property name="kdenlive:original.meta.media.0.codec.width">2160</property>
  <property name="kdenlive:original.meta.media.0.codec.height">3840</property>
  <property name="kdenlive:original.meta.media.0.codec.rotate">0</property>
  <property name="kdenlive:original.meta.media.0.codec.pix_fmt">yuv420p</property>
  <property name="kdenlive:original.meta.media.0.codec.sample_aspect_ratio">0</property>
  <property name="kdenlive:original.meta.media.0.codec.colorspace">709</property>
  <property name="kdenlive:original.meta.media.0.codec.name">h264</property>
  <property name="kdenlive:original.meta.media.0.codec.long_name">H.264 / AVC / MPEG-4 AVC / MPEG-4 part 10</property>
  <property name="kdenlive:original.meta.media.0.codec.bit_rate">829384</property>
  <property name="kdenlive:original.meta.attr.0.stream.handler_name.markup">VideoHandler</property>
  <property name="kdenlive:original.meta.attr.0.stream.vendor_id.markup">[0][0][0][0]</property>
  <property name="kdenlive:original.meta.attr.0.stream.encoder.markup">Lavc59.37.100 libx264</property>
  <property name="kdenlive:original.meta.attr.major_brand.markup">isom</property>
  <property name="kdenlive:original.meta.attr.minor_version.markup">512</property>
  <property name="kdenlive:original.meta.attr.compatible_brands.markup">isomiso2avc1mp41</property>
  <property name="kdenlive:original.meta.attr.encoder.markup">Lavf59.27.100</property>
  <property name="kdenlive:original.meta.attr.comment.markup">Rendered with Manim Community v0.17.2</property>
  <property name="kdenlive:original.seekable">1</property>
  <property name="kdenlive:original.width">2160</property>
  <property name="kdenlive:original.height">3840</property>
  <property name="kdenlive:original.meta.media.sample_aspect_num">1</property>
  <property name="kdenlive:original.meta.media.sample_aspect_den">1</property>
  <property name="kdenlive:original.aspect_ratio">1</property>
  <property name="kdenlive:original.format">3</property>
  <property name="kdenlive:original.audio_index">-1</property>
  <property name="kdenlive:original.video_index">0</property>
  <property name="kdenlive:original.mute_on_pause">0</property>
  <property name="kdenlive:original.mlt_service">avformat-novalidate</property>
  <property name="kdenlive:original.meta.media.frame_rate_num">60</property>
  <property name="kdenlive:original.meta.media.frame_rate_den">1</property>
  <property name="kdenlive:original.meta.media.colorspace">709</property>
  <property name="kdenlive:original.meta.media.color_trc">2</property>
  <property name="kdenlive:original.meta.media.has_b_frames">2</property>
  <property name="kdenlive:original.meta.media.width">2160</property>
  <property name="kdenlive:original.meta.media.height">3840</property>
  <property name="kdenlive:original.meta.media.color_range">mpeg</property>
  <property name="kdenlive:original.meta.media.top_field_first">0</property>
  <property name="kdenlive:original.meta.media.progressive">1</property>
  <property name="kdenlive:original.kdenlive:clip_type">2</property>
  <property name="kdenlive:original.kdenlive:folderid">5</property>
  <property name="kdenlive:original.kdenlive:id">17</property>
  <property name="kdenlive:original.kdenlive:file_size">105305</property>
  <property name="kdenlive:original.kdenlive:file_hash">a5ef829cffb2353fb09522934d10fcf5</property>
  <property name="kdenlive:original.backup">1</property>
  <property name="kdenlive:clipzones">[
    {
        "in": 0,
        "name": "Zone 1",
        "out": 60
    }
]
</property>
  <property name="kdenlive:file_hash">a5ef829cffb2353fb09522934d10fcf5</property>
  <property name="xml">was here</property>
  <property name="meta.media.frame_rate_num">60</property>
  <property name="meta.media.frame_rate_den">1</property>
  <property name="meta.media.colorspace">601</property>
  <property name="meta.media.color_trc">2</property>
  <property name="meta.media.has_b_frames">0</property>
  <property name="meta.media.width">640</property>
  <property name="meta.media.height">1138</property>
  <property name="meta.media.color_range">full</property>
  <property name="meta.media.top_field_first">0</property>
  <property name="meta.media.progressive">1</property>
  <property name="set.test_audio">1</property>
  <property name="set.test_image">0</property>
 </producer>
 <producer id="producer270" in="00:00:00.000" out="00:00:04.983">
  <property name="length">300</property>
  <property name="eof">pause</property>
  <property name="resource">0.200000:/home/xiaoxiae/.cache/kdenlive/proxy/7e571bbff82af06057ad50092f544a43.mkv</property>
  <property name="aspect_ratio">1</property>
  <property name="meta.media.nb_streams">1</property>
  <property name="meta.media.0.stream.type">video</property>
  <property name="meta.media.0.stream.frame_rate">60</property>
  <property name="meta.media.0.stream.sample_aspect_ratio">0</property>
  <property name="meta.media.0.codec.width">640</property>
  <property name="meta.media.0.codec.height">1138</property>
  <property name="meta.media.0.codec.rotate">0</property>
  <property name="meta.media.0.codec.pix_fmt">yuvj420p</property>
  <property name="meta.media.0.codec.sample_aspect_ratio">0</property>
  <property name="meta.media.0.codec.colorspace">601</property>
  <property name="meta.media.0.codec.name">mjpeg</property>
  <property name="meta.media.0.codec.long_name">MJPEG (Motion JPEG)</property>
  <property name="meta.media.0.codec.bit_rate">0</property>
  <property name="meta.attr.0.stream.HANDLER_NAME.markup">VideoHandler</property>
  <property name="meta.attr.0.stream.VENDOR_ID.markup">[0][0][0][0]</property>
  <property name="meta.attr.0.stream.ENCODER.markup">Lavc59.37.100 mjpeg</property>
  <property name="meta.attr.0.stream.DURATION.markup">00:00:01.000000000</property>
  <property name="meta.attr.COMMENT.markup">Rendered with Manim Community v0.17.2</property>
  <property name="meta.attr.MAJOR_BRAND.markup">isom</property>
  <property name="meta.attr.MINOR_VERSION.markup">512</property>
  <property name="meta.attr.COMPATIBLE_BRANDS.markup">isomiso2avc1mp41</property>
  <property name="meta.attr.ENCODER.markup">Lavf59.27.100</property>
  <property name="seekable">1</property>
  <property name="meta.media.sample_aspect_num">1</property>
  <property name="meta.media.sample_aspect_den">1</property>
  <property name="format">3</property>
  <property name="audio_index">-1</property>
  <property name="video_index">0</property>
  <property name="mute_on_pause">1</property>
  <property name="warp_speed">0.2</property>
  <property name="warp_resource">/home/xiaoxiae/.cache/kdenlive/proxy/7e571bbff82af06057ad50092f544a43.mkv</property>
  <property name="mlt_service">timewarp</property>
  <property name="kdenlive:proxy">/home/xiaoxiae/.cache/kdenlive/proxy/7e571bbff82af06057ad50092f544a43.mkv</property>
  <property name="kdenlive:originalurl">video/Introo/8.mp4</property>
  <property name="set.test_audio">1</property>
  <property name="set.test_image">0</property>
  <property name="kdenlive:id">19</property>
  <property name="warp_pitch">0</property>
  <property name="meta.media.frame_rate_num">60</property>
  <property name="meta.media.frame_rate_den">1</property>
  <property name="meta.media.colorspace">601</property>
  <property name="meta.media.color_trc">2</property>
  <property name="meta.media.has_b_frames">0</property>
  <property name="meta.media.width">640</property>
  <property name="meta.media.height">1138</property>
  <property name="meta.media.color_range">full</property>
  <property name="meta.media.top_field_first">0</property>
  <property name="meta.media.progressive">1</property>
 </producer>
 <producer id="producer271" in="00:00:00.000" out="00:00:00.983">
  <property name="length">60</property>
  <property name="eof">pause</property>
  <property name="resource">/home/xiaoxiae/.cache/kdenlive/proxy/7e571bbff82af06057ad50092f544a43.mkv</property>
  <property name="audio_index">-1</property>
  <property name="video_index">0</property>
  <property name="mute_on_pause">0</property>
  <property name="mlt_service">avformat-novalidate</property>
  <property name="meta.media.nb_streams">1</property>
  <property name="meta.media.0.stream.type">video</property>
  <property name="meta.media.0.stream.frame_rate">60</property>
  <property name="meta.media.0.stream.sample_aspect_ratio">0</property>
  <property name="meta.media.0.codec.width">640</property>
  <property name="meta.media.0.codec.height">1138</property>
  <property name="meta.media.0.codec.rotate">0</property>
  <property name="meta.media.0.codec.pix_fmt">yuvj420p</property>
  <property name="meta.media.0.codec.sample_aspect_ratio">0</property>
  <property name="meta.media.0.codec.colorspace">601</property>
  <property name="meta.media.0.codec.name">mjpeg</property>
  <property name="meta.media.0.codec.long_name">MJPEG (Motion JPEG)</property>
  <property name="meta.media.0.codec.bit_rate">0</property>
  <property name="meta.attr.0.stream.HANDLER_NAME.markup">VideoHandler</property>
  <property name="meta.attr.0.stream.VENDOR_ID.markup">[0][0][0][0]</property>
  <property name="meta.attr.0.stream.ENCODER.markup">Lavc59.37.100 mjpeg</property>
  <property name="meta.attr.0.stream.DURATION.markup">00:00:01.000000000</property>
  <property name="meta.attr.COMMENT.markup">Rendered with Manim Community v0.17.2</property>
  <property name="meta.attr.MAJOR_BRAND.markup">isom</property>
  <property name="meta.attr.MINOR_VERSION.markup">512</property>
  <property name="meta.attr.COMPATIBLE_BRANDS.markup">isomiso2avc1mp41</property>
  <property name="meta.attr.ENCODER.markup">Lavf59.27.100</property>
  <property name="seekable">1</property>
  <property name="meta.media.sample_aspect_num">1</property>
  <property name="meta.media.sample_aspect_den">1</property>
  <property name="aspect_ratio">1</property>
  <property name="format">3</property>
  <property name="kdenlive:clipname">8.mp4</property>
  <property name="kdenlive:clip_type">2</property>
  <property name="kdenlive:folderid">5</property>
  <property name="kdenlive:id">19</property>
  <property name="kdenlive:file_size">246094</property>
  <property name="kdenlive:proxy">/home/xiaoxiae/.cache/kdenlive/proxy/7e571bbff82af06057ad50092f544a43.mkv</property>
  <property name="kdenlive:originalurl">video/Introo/8.mp4</property>
  <property name="kdenlive:original.mlt_type">producer</property>
  <property name="kdenlive:original.in">0</property>
  <property name="kdenlive:original.out">59</property>
  <property name="kdenlive:original.length">60</property>
  <property name="kdenlive:original.eof">pause</property>
  <property name="kdenlive:original.resource">video/Introo/8.mp4</property>
  <property name="kdenlive:original.meta.media.nb_streams">1</property>
  <property name="kdenlive:original.meta.media.0.stream.type">video</property>
  <property name="kdenlive:original.meta.media.0.stream.frame_rate">60</property>
  <property name="kdenlive:original.meta.media.0.stream.sample_aspect_ratio">0</property>
  <property name="kdenlive:original.meta.media.0.codec.width">2160</property>
  <property name="kdenlive:original.meta.media.0.codec.height">3840</property>
  <property name="kdenlive:original.meta.media.0.codec.rotate">0</property>
  <property name="kdenlive:original.meta.media.0.codec.pix_fmt">yuv420p</property>
  <property name="kdenlive:original.meta.media.0.codec.sample_aspect_ratio">0</property>
  <property name="kdenlive:original.meta.media.0.codec.colorspace">709</property>
  <property name="kdenlive:original.meta.media.0.codec.name">h264</property>
  <property name="kdenlive:original.meta.media.0.codec.long_name">H.264 / AVC / MPEG-4 AVC / MPEG-4 part 10</property>
  <property name="kdenlive:original.meta.media.0.codec.bit_rate">1955632</property>
  <property name="kdenlive:original.meta.attr.0.stream.handler_name.markup">VideoHandler</property>
  <property name="kdenlive:original.meta.attr.0.stream.vendor_id.markup">[0][0][0][0]</property>
  <property name="kdenlive:original.meta.attr.0.stream.encoder.markup">Lavc59.37.100 libx264</property>
  <property name="kdenlive:original.meta.attr.major_brand.markup">isom</property>
  <property name="kdenlive:original.meta.attr.minor_version.markup">512</property>
  <property name="kdenlive:original.meta.attr.compatible_brands.markup">isomiso2avc1mp41</property>
  <property name="kdenlive:original.meta.attr.encoder.markup">Lavf59.27.100</property>
  <property name="kdenlive:original.meta.attr.comment.markup">Rendered with Manim Community v0.17.2</property>
  <property name="kdenlive:original.seekable">1</property>
  <property name="kdenlive:original.width">2160</property>
  <property name="kdenlive:original.height">3840</property>
  <property name="kdenlive:original.meta.media.sample_aspect_num">1</property>
  <property name="kdenlive:original.meta.media.sample_aspect_den">1</property>
  <property name="kdenlive:original.aspect_ratio">1</property>
  <property name="kdenlive:original.format">3</property>
  <property name="kdenlive:original.audio_index">-1</property>
  <property name="kdenlive:original.video_index">0</property>
  <property name="kdenlive:original.mute_on_pause">0</property>
  <property name="kdenlive:original.mlt_service">avformat-novalidate</property>
  <property name="kdenlive:original.meta.media.frame_rate_num">60</property>
  <property name="kdenlive:original.meta.media.frame_rate_den">1</property>
  <property name="kdenlive:original.meta.media.colorspace">709</property>
  <property name="kdenlive:original.meta.media.color_trc">2</property>
  <property name="kdenlive:original.meta.media.has_b_frames">2</property>
  <property name="kdenlive:original.meta.media.width">2160</property>
  <property name="kdenlive:original.meta.media.height">3840</property>
  <property name="kdenlive:original.meta.media.color_range">mpeg</property>
  <property name="kdenlive:original.meta.media.top_field_first">0</property>
  <property name="kdenlive:original.meta.media.progressive">1</property>
  <property name="kdenlive:original.kdenlive:clip_type">2</property>
  <property name="kdenlive:original.kdenlive:folderid">5</property>
  <property name="kdenlive:original.kdenlive:id">18</property>
  <property name="kdenlive:original.kdenlive:file_size">246094</property>
  <property name="kdenlive:original.kdenlive:file_hash">7e571bbff82af06057ad50092f544a43</property>
  <property name="kdenlive:original.backup">1</property>
  <property name="kdenlive:file_hash">7e571bbff82af06057ad50092f544a43</property>
  <property name="xml">was here</property>
  <property name="meta.media.frame_rate_num">60</property>
  <property name="meta.media.frame_rate_den">1</property>
  <property name="meta.media.colorspace">601</property>
  <property name="meta.media.color_trc">2</property>
  <property name="meta.media.has_b_frames">0</property>
  <property name="meta.media.width">640</property>
  <property name="meta.media.height">1138</property>
  <property name="meta.media.color_range">full</property>
  <property name="meta.media.top_field_first">0</property>
  <property name="meta.media.progressive">1</property>
  <property name="set.test_audio">1</property>
  <property name="set.test_image">0</property>
 </producer>
 <producer id="producer272" in="00:00:00.000" out="00:00:00.483">
  <property name="length">30</property>
  <property name="eof">pause</property>
  <property name="resource">2.000000:/home/xiaoxiae/.cache/kdenlive/proxy/a4e21c6b966cb0c8b74723c1f1ed57c4.mkv</property>
  <property name="aspect_ratio">1</property>
  <property name="meta.media.nb_streams">1</property>
  <property name="meta.media.0.stream.type">video</property>
  <property name="meta.media.0.stream.frame_rate">60</property>
  <property name="meta.media.0.stream.sample_aspect_ratio">0</property>
  <property name="meta.media.0.codec.width">640</property>
  <property name="meta.media.0.codec.height">1138</property>
  <property name="meta.media.0.codec.rotate">0</property>
  <property name="meta.media.0.codec.pix_fmt">yuvj420p</property>
  <property name="meta.media.0.codec.sample_aspect_ratio">0</property>
  <property name="meta.media.0.codec.colorspace">601</property>
  <property name="meta.media.0.codec.name">mjpeg</property>
  <property name="meta.media.0.codec.long_name">MJPEG (Motion JPEG)</property>
  <property name="meta.media.0.codec.bit_rate">0</property>
  <property name="meta.attr.0.stream.HANDLER_NAME.markup">VideoHandler</property>
  <property name="meta.attr.0.stream.VENDOR_ID.markup">[0][0][0][0]</property>
  <property name="meta.attr.0.stream.ENCODER.markup">Lavc59.37.100 mjpeg</property>
  <property name="meta.attr.0.stream.DURATION.markup">00:00:01.000000000</property>
  <property name="meta.attr.COMMENT.markup">Rendered with Manim Community v0.17.2</property>
  <property name="meta.attr.MAJOR_BRAND.markup">isom</property>
  <property name="meta.attr.MINOR_VERSION.markup">512</property>
  <property name="meta.attr.COMPATIBLE_BRANDS.markup">isomiso2avc1mp41</property>
  <property name="meta.attr.ENCODER.markup">Lavf59.27.100</property>
  <property name="seekable">1</property>
  <property name="meta.media.sample_aspect_num">1</property>
  <property name="meta.media.sample_aspect_den">1</property>
  <property name="format">3</property>
  <property name="audio_index">-1</property>
  <property name="video_index">0</property>
  <property name="mute_on_pause">1</property>
  <property name="warp_speed">2</property>
  <property name="warp_resource">/home/xiaoxiae/.cache/kdenlive/proxy/a4e21c6b966cb0c8b74723c1f1ed57c4.mkv</property>
  <property name="mlt_service">timewarp</property>
  <property name="kdenlive:proxy">/home/xiaoxiae/.cache/kdenlive/proxy/a4e21c6b966cb0c8b74723c1f1ed57c4.mkv</property>
  <property name="kdenlive:originalurl">video/Introo/9.mp4</property>
  <property name="set.test_audio">1</property>
  <property name="set.test_image">0</property>
  <property name="kdenlive:id">21</property>
  <property name="warp_pitch">0</property>
  <property name="meta.media.frame_rate_num">60</property>
  <property name="meta.media.frame_rate_den">1</property>
  <property name="meta.media.colorspace">601</property>
  <property name="meta.media.color_trc">2</property>
  <property name="meta.media.has_b_frames">0</property>
  <property name="meta.media.width">640</property>
  <property name="meta.media.height">1138</property>
  <property name="meta.media.color_range">full</property>
  <property name="meta.media.top_field_first">0</property>
  <property name="meta.media.progressive">1</property>
 </producer>
 <producer id="producer273" in="00:00:00.000" out="00:00:00.983">
  <property name="length">60</property>
  <property name="eof">pause</property>
  <property name="resource">/home/xiaoxiae/.cache/kdenlive/proxy/1a1932df4ed0e1e225731efeed2187b6.mkv</property>
  <property name="audio_index">-1</property>
  <property name="video_index">0</property>
  <property name="mute_on_pause">0</property>
  <property name="mlt_service">avformat-novalidate</property>
  <property name="meta.media.nb_streams">1</property>
  <property name="meta.media.0.stream.type">video</property>
  <property name="meta.media.0.stream.frame_rate">60</property>
  <property name="meta.media.0.stream.sample_aspect_ratio">0</property>
  <property name="meta.media.0.codec.width">640</property>
  <property name="meta.media.0.codec.height">1138</property>
  <property name="meta.media.0.codec.rotate">0</property>
  <property name="meta.media.0.codec.pix_fmt">yuvj420p</property>
  <property name="meta.media.0.codec.sample_aspect_ratio">0</property>
  <property name="meta.media.0.codec.colorspace">601</property>
  <property name="meta.media.0.codec.name">mjpeg</property>
  <property name="meta.media.0.codec.long_name">MJPEG (Motion JPEG)</property>
  <property name="meta.media.0.codec.bit_rate">0</property>
  <property name="meta.attr.0.stream.HANDLER_NAME.markup">VideoHandler</property>
  <property name="meta.attr.0.stream.VENDOR_ID.markup">[0][0][0][0]</property>
  <property name="meta.attr.0.stream.ENCODER.markup">Lavc59.37.100 mjpeg</property>
  <property name="meta.attr.0.stream.DURATION.markup">00:00:01.000000000</property>
  <property name="meta.attr.COMMENT.markup">Rendered with Manim Community v0.17.2</property>
  <property name="meta.attr.MAJOR_BRAND.markup">isom</property>
  <property name="meta.attr.MINOR_VERSION.markup">512</property>
  <property name="meta.attr.COMPATIBLE_BRANDS.markup">isomiso2avc1mp41</property>
  <property name="meta.attr.ENCODER.markup">Lavf59.27.100</property>
  <property name="seekable">1</property>
  <property name="meta.media.sample_aspect_num">1</property>
  <property name="meta.media.sample_aspect_den">1</property>
  <property name="aspect_ratio">1</property>
  <property name="format">3</property>
  <property name="kdenlive:clipname">10.mp4</property>
  <property name="kdenlive:clip_type">2</property>
  <property name="kdenlive:folderid">5</property>
  <property name="kdenlive:id">7</property>
  <property name="kdenlive:file_size">177605</property>
  <property name="kdenlive:proxy">/home/xiaoxiae/.cache/kdenlive/proxy/1a1932df4ed0e1e225731efeed2187b6.mkv</property>
  <property name="kdenlive:originalurl">video/Introo/10.mp4</property>
  <property name="kdenlive:original.mlt_type">producer</property>
  <property name="kdenlive:original.in">0</property>
  <property name="kdenlive:original.out">59</property>
  <property name="kdenlive:original.length">60</property>
  <property name="kdenlive:original.eof">pause</property>
  <property name="kdenlive:original.resource">video/Introo/10.mp4</property>
  <property name="kdenlive:original.meta.media.nb_streams">1</property>
  <property name="kdenlive:original.meta.media.0.stream.type">video</property>
  <property name="kdenlive:original.meta.media.0.stream.frame_rate">60</property>
  <property name="kdenlive:original.meta.media.0.stream.sample_aspect_ratio">0</property>
  <property name="kdenlive:original.meta.media.0.codec.width">2160</property>
  <property name="kdenlive:original.meta.media.0.codec.height">3840</property>
  <property name="kdenlive:original.meta.media.0.codec.rotate">0</property>
  <property name="kdenlive:original.meta.media.0.codec.pix_fmt">yuv420p</property>
  <property name="kdenlive:original.meta.media.0.codec.sample_aspect_ratio">0</property>
  <property name="kdenlive:original.meta.media.0.codec.colorspace">709</property>
  <property name="kdenlive:original.meta.media.0.codec.name">h264</property>
  <property name="kdenlive:original.meta.media.0.codec.long_name">H.264 / AVC / MPEG-4 AVC / MPEG-4 part 10</property>
  <property name="kdenlive:original.meta.media.0.codec.bit_rate">1407784</property>
  <property name="kdenlive:original.meta.attr.0.stream.handler_name.markup">VideoHandler</property>
  <property name="kdenlive:original.meta.attr.0.stream.vendor_id.markup">[0][0][0][0]</property>
  <property name="kdenlive:original.meta.attr.0.stream.encoder.markup">Lavc59.37.100 libx264</property>
  <property name="kdenlive:original.meta.attr.major_brand.markup">isom</property>
  <property name="kdenlive:original.meta.attr.minor_version.markup">512</property>
  <property name="kdenlive:original.meta.attr.compatible_brands.markup">isomiso2avc1mp41</property>
  <property name="kdenlive:original.meta.attr.encoder.markup">Lavf59.27.100</property>
  <property name="kdenlive:original.meta.attr.comment.markup">Rendered with Manim Community v0.17.2</property>
  <property name="kdenlive:original.seekable">1</property>
  <property name="kdenlive:original.width">2160</property>
  <property name="kdenlive:original.height">3840</property>
  <property name="kdenlive:original.meta.media.sample_aspect_num">1</property>
  <property name="kdenlive:original.meta.media.sample_aspect_den">1</property>
  <property name="kdenlive:original.aspect_ratio">1</property>
  <property name="kdenlive:original.format">3</property>
  <property name="kdenlive:original.audio_index">-1</property>
  <property name="kdenlive:original.video_index">0</property>
  <property name="kdenlive:original.mute_on_pause">0</property>
  <property name="kdenlive:original.mlt_service">avformat-novalidate</property>
  <property name="kdenlive:original.meta.media.frame_rate_num">60</property>
  <property name="kdenlive:original.meta.media.frame_rate_den">1</property>
  <property name="kdenlive:original.meta.media.colorspace">709</property>
  <property name="kdenlive:original.meta.media.color_trc">2</property>
  <property name="kdenlive:original.meta.media.has_b_frames">2</property>
  <property name="kdenlive:original.meta.media.width">2160</property>
  <property name="kdenlive:original.meta.media.height">3840</property>
  <property name="kdenlive:original.meta.media.color_range">mpeg</property>
  <property name="kdenlive:original.meta.media.top_field_first">0</property>
  <property name="kdenlive:original.meta.media.progressive">1</property>
  <property name="kdenlive:original.kdenlive:clip_type">2</property>
  <property name="kdenlive:original.kdenlive:folderid">5</property>
  <property name="kdenlive:original.kdenlive:id">7</property>
  <property name="kdenlive:original.kdenlive:file_size">177605</property>
  <property name="kdenlive:original.kdenlive:file_hash">1a1932df4ed0e1e225731efeed2187b6</property>
  <property name="kdenlive:original.backup">1</property>
  <property name="kdenlive:file_hash">1a1932df4ed0e1e225731efeed2187b6</property>
  <property name="xml">was here</property>
  <property name="meta.media.frame_rate_num">60</property>
  <property name="meta.media.frame_rate_den">1</property>
  <property name="meta.media.colorspace">601</property>
  <property name="meta.media.color_trc">2</property>
  <property name="meta.media.has_b_frames">0</property>
  <property name="meta.media.width">640</property>
  <property name="meta.media.height">1138</property>
  <property name="meta.media.color_range">full</property>
  <property name="meta.media.top_field_first">0</property>
  <property name="meta.media.progressive">1</property>
  <property name="set.test_audio">1</property>
  <property name="set.test_image">0</property>
 </producer>
 <producer id="producer274" in="00:00:00.000" out="00:00:00.483">
  <property name="length">30</property>
  <property name="eof">pause</property>
  <property name="resource">2.000000:/home/xiaoxiae/.cache/kdenlive/proxy/1f1b7efe38fa7e8601cb38cd3ee2acf3.mkv</property>
  <property name="aspect_ratio">1</property>
  <property name="meta.media.nb_streams">1</property>
  <property name="meta.media.0.stream.type">video</property>
  <property name="meta.media.0.stream.frame_rate">60</property>
  <property name="meta.media.0.stream.sample_aspect_ratio">0</property>
  <property name="meta.media.0.codec.width">640</property>
  <property name="meta.media.0.codec.height">1138</property>
  <property name="meta.media.0.codec.rotate">0</property>
  <property name="meta.media.0.codec.pix_fmt">yuvj420p</property>
  <property name="meta.media.0.codec.sample_aspect_ratio">0</property>
  <property name="meta.media.0.codec.colorspace">601</property>
  <property name="meta.media.0.codec.name">mjpeg</property>
  <property name="meta.media.0.codec.long_name">MJPEG (Motion JPEG)</property>
  <property name="meta.media.0.codec.bit_rate">0</property>
  <property name="meta.attr.0.stream.HANDLER_NAME.markup">VideoHandler</property>
  <property name="meta.attr.0.stream.VENDOR_ID.markup">[0][0][0][0]</property>
  <property name="meta.attr.0.stream.ENCODER.markup">Lavc59.37.100 mjpeg</property>
  <property name="meta.attr.0.stream.DURATION.markup">00:00:01.000000000</property>
  <property name="meta.attr.COMMENT.markup">Rendered with Manim Community v0.17.2</property>
  <property name="meta.attr.MAJOR_BRAND.markup">isom</property>
  <property name="meta.attr.MINOR_VERSION.markup">512</property>
  <property name="meta.attr.COMPATIBLE_BRANDS.markup">isomiso2avc1mp41</property>
  <property name="meta.attr.ENCODER.markup">Lavf59.27.100</property>
  <property name="seekable">1</property>
  <property name="meta.media.sample_aspect_num">1</property>
  <property name="meta.media.sample_aspect_den">1</property>
  <property name="format">3</property>
  <property name="audio_index">-1</property>
  <property name="video_index">0</property>
  <property name="mute_on_pause">1</property>
  <property name="warp_speed">2</property>
  <property name="warp_resource">/home/xiaoxiae/.cache/kdenlive/proxy/1f1b7efe38fa7e8601cb38cd3ee2acf3.mkv</property>
  <property name="mlt_service">timewarp</property>
  <property name="kdenlive:proxy">/home/xiaoxiae/.cache/kdenlive/proxy/1f1b7efe38fa7e8601cb38cd3ee2acf3.mkv</property>
  <property name="kdenlive:originalurl">video/Introo/11.mp4</property>
  <property name="set.test_audio">1</property>
  <property name="set.test_image">0</property>
  <property name="kdenlive:id">8</property>
  <property name="warp_pitch">0</property>
 </producer>
 <producer id="producer275" in="00:00:00.000" out="00:00:00.983">
  <property name="length">60</property>
  <property name="eof">pause</property>
  <property name="resource">/home/xiaoxiae/.cache/kdenlive/proxy/488f4e575975a334d875f814912b1ac0.mkv</property>
  <property name="audio_index">-1</property>
  <property name="video_index">0</property>
  <property name="mute_on_pause">0</property>
  <property name="mlt_service">avformat-novalidate</property>
  <property name="meta.media.nb_streams">1</property>
  <property name="meta.media.0.stream.type">video</property>
  <property name="meta.media.0.stream.frame_rate">60</property>
  <property name="meta.media.0.stream.sample_aspect_ratio">0</property>
  <property name="meta.media.0.codec.width">640</property>
  <property name="meta.media.0.codec.height">1138</property>
  <property name="meta.media.0.codec.rotate">0</property>
  <property name="meta.media.0.codec.pix_fmt">yuvj420p</property>
  <property name="meta.media.0.codec.sample_aspect_ratio">0</property>
  <property name="meta.media.0.codec.colorspace">601</property>
  <property name="meta.media.0.codec.name">mjpeg</property>
  <property name="meta.media.0.codec.long_name">MJPEG (Motion JPEG)</property>
  <property name="meta.media.0.codec.bit_rate">0</property>
  <property name="meta.attr.0.stream.HANDLER_NAME.markup">VideoHandler</property>
  <property name="meta.attr.0.stream.VENDOR_ID.markup">[0][0][0][0]</property>
  <property name="meta.attr.0.stream.ENCODER.markup">Lavc59.37.100 mjpeg</property>
  <property name="meta.attr.0.stream.DURATION.markup">00:00:01.000000000</property>
  <property name="meta.attr.COMMENT.markup">Rendered with Manim Community v0.17.2</property>
  <property name="meta.attr.MAJOR_BRAND.markup">isom</property>
  <property name="meta.attr.MINOR_VERSION.markup">512</property>
  <property name="meta.attr.COMPATIBLE_BRANDS.markup">isomiso2avc1mp41</property>
  <property name="meta.attr.ENCODER.markup">Lavf59.27.100</property>
  <property name="seekable">1</property>
  <property name="meta.media.sample_aspect_num">1</property>
  <property name="meta.media.sample_aspect_den">1</property>
  <property name="aspect_ratio">1</property>
  <property name="format">3</property>
  <property name="kdenlive:clipname">12.mp4</property>
  <property name="kdenlive:clip_type">2</property>
  <property name="kdenlive:folderid">5</property>
  <property name="kdenlive:id">9</property>
  <property name="kdenlive:file_size">248180</property>
  <property name="kdenlive:proxy">/home/xiaoxiae/.cache/kdenlive/proxy/488f4e575975a334d875f814912b1ac0.mkv</property>
  <property name="kdenlive:originalurl">video/Introo/12.mp4</property>
  <property name="kdenlive:original.mlt_type">producer</property>
  <property name="kdenlive:original.in">0</property>
  <property name="kdenlive:original.out">59</property>
  <property name="kdenlive:original.length">60</property>
  <property name="kdenlive:original.eof">pause</property>
  <property name="kdenlive:original.resource">video/Introo/12.mp4</property>
  <property name="kdenlive:original.meta.media.nb_streams">1</property>
  <property name="kdenlive:original.meta.media.0.stream.type">video</property>
  <property name="kdenlive:original.meta.media.0.stream.frame_rate">60</property>
  <property name="kdenlive:original.meta.media.0.stream.sample_aspect_ratio">0</property>
  <property name="kdenlive:original.meta.media.0.codec.width">2160</property>
  <property name="kdenlive:original.meta.media.0.codec.height">3840</property>
  <property name="kdenlive:original.meta.media.0.codec.rotate">0</property>
  <property name="kdenlive:original.meta.media.0.codec.pix_fmt">yuv420p</property>
  <property name="kdenlive:original.meta.media.0.codec.sample_aspect_ratio">0</property>
  <property name="kdenlive:original.meta.media.0.codec.colorspace">709</property>
  <property name="kdenlive:original.meta.media.0.codec.name">h264</property>
  <property name="kdenlive:original.meta.media.0.codec.long_name">H.264 / AVC / MPEG-4 AVC / MPEG-4 part 10</property>
  <property name="kdenlive:original.meta.media.0.codec.bit_rate">1972384</property>
  <property name="kdenlive:original.meta.attr.0.stream.handler_name.markup">VideoHandler</property>
  <property name="kdenlive:original.meta.attr.0.stream.vendor_id.markup">[0][0][0][0]</property>
  <property name="kdenlive:original.meta.attr.0.stream.encoder.markup">Lavc59.37.100 libx264</property>
  <property name="kdenlive:original.meta.attr.major_brand.markup">isom</property>
  <property name="kdenlive:original.meta.attr.minor_version.markup">512</property>
  <property name="kdenlive:original.meta.attr.compatible_brands.markup">isomiso2avc1mp41</property>
  <property name="kdenlive:original.meta.attr.encoder.markup">Lavf59.27.100</property>
  <property name="kdenlive:original.meta.attr.comment.markup">Rendered with Manim Community v0.17.2</property>
  <property name="kdenlive:original.seekable">1</property>
  <property name="kdenlive:original.width">2160</property>
  <property name="kdenlive:original.height">3840</property>
  <property name="kdenlive:original.meta.media.sample_aspect_num">1</property>
  <property name="kdenlive:original.meta.media.sample_aspect_den">1</property>
  <property name="kdenlive:original.aspect_ratio">1</property>
  <property name="kdenlive:original.format">3</property>
  <property name="kdenlive:original.audio_index">-1</property>
  <property name="kdenlive:original.video_index">0</property>
  <property name="kdenlive:original.mute_on_pause">0</property>
  <property name="kdenlive:original.mlt_service">avformat-novalidate</property>
  <property name="kdenlive:original.meta.media.frame_rate_num">60</property>
  <property name="kdenlive:original.meta.media.frame_rate_den">1</property>
  <property name="kdenlive:original.meta.media.colorspace">709</property>
  <property name="kdenlive:original.meta.media.color_trc">2</property>
  <property name="kdenlive:original.meta.media.has_b_frames">2</property>
  <property name="kdenlive:original.meta.media.width">2160</property>
  <property name="kdenlive:original.meta.media.height">3840</property>
  <property name="kdenlive:original.meta.media.color_range">mpeg</property>
  <property name="kdenlive:original.meta.media.top_field_first">0</property>
  <property name="kdenlive:original.meta.media.progressive">1</property>
  <property name="kdenlive:original.kdenlive:clip_type">2</property>
  <property name="kdenlive:original.kdenlive:folderid">5</property>
  <property name="kdenlive:original.kdenlive:id">9</property>
  <property name="kdenlive:original.kdenlive:file_size">248180</property>
  <property name="kdenlive:original.kdenlive:file_hash">488f4e575975a334d875f814912b1ac0</property>
  <property name="kdenlive:original.backup">1</property>
  <property name="kdenlive:file_hash">488f4e575975a334d875f814912b1ac0</property>
  <property name="xml">was here</property>
  <property name="meta.media.frame_rate_num">60</property>
  <property name="meta.media.frame_rate_den">1</property>
  <property name="meta.media.colorspace">601</property>
  <property name="meta.media.color_trc">2</property>
  <property name="meta.media.has_b_frames">0</property>
  <property name="meta.media.width">640</property>
  <property name="meta.media.height">1138</property>
  <property name="meta.media.color_range">full</property>
  <property name="meta.media.top_field_first">0</property>
  <property name="meta.media.progressive">1</property>
  <property name="set.test_audio">1</property>
  <property name="set.test_image">0</property>
 </producer>
 <producer id="producer276" in="00:00:00.000" out="00:00:01.733">
  <property name="length">105</property>
  <property name="eof">pause</property>
  <property name="resource">/home/xiaoxiae/.cache/kdenlive/proxy/81e0da60a88621e3753be6841989b7bf.mkv</property>
  <property name="audio_index">-1</property>
  <property name="video_index">0</property>
  <property name="mute_on_pause">0</property>
  <property name="mlt_service">avformat-novalidate</property>
  <property name="meta.media.nb_streams">1</property>
  <property name="meta.media.0.stream.type">video</property>
  <property name="meta.media.0.stream.frame_rate">60</property>
  <property name="meta.media.0.stream.sample_aspect_ratio">0</property>
  <property name="meta.media.0.codec.width">640</property>
  <property name="meta.media.0.codec.height">1138</property>
  <property name="meta.media.0.codec.rotate">0</property>
  <property name="meta.media.0.codec.pix_fmt">yuvj420p</property>
  <property name="meta.media.0.codec.sample_aspect_ratio">0</property>
  <property name="meta.media.0.codec.colorspace">601</property>
  <property name="meta.media.0.codec.name">mjpeg</property>
  <property name="meta.media.0.codec.long_name">MJPEG (Motion JPEG)</property>
  <property name="meta.media.0.codec.bit_rate">0</property>
  <property name="meta.attr.0.stream.HANDLER_NAME.markup">VideoHandler</property>
  <property name="meta.attr.0.stream.VENDOR_ID.markup">[0][0][0][0]</property>
  <property name="meta.attr.0.stream.ENCODER.markup">Lavc59.37.100 mjpeg</property>
  <property name="meta.attr.0.stream.DURATION.markup">00:00:01.750000000</property>
  <property name="meta.attr.COMMENT.markup">Rendered with Manim Community v0.17.2</property>
  <property name="meta.attr.MAJOR_BRAND.markup">isom</property>
  <property name="meta.attr.MINOR_VERSION.markup">512</property>
  <property name="meta.attr.COMPATIBLE_BRANDS.markup">isomiso2avc1mp41</property>
  <property name="meta.attr.ENCODER.markup">Lavf59.27.100</property>
  <property name="seekable">1</property>
  <property name="meta.media.sample_aspect_num">1</property>
  <property name="meta.media.sample_aspect_den">1</property>
  <property name="aspect_ratio">1</property>
  <property name="format">3</property>
  <property name="kdenlive:clipname">13.mp4</property>
  <property name="kdenlive:clip_type">2</property>
  <property name="kdenlive:folderid">5</property>
  <property name="kdenlive:id">10</property>
  <property name="kdenlive:file_size">595466</property>
  <property name="kdenlive:proxy">/home/xiaoxiae/.cache/kdenlive/proxy/81e0da60a88621e3753be6841989b7bf.mkv</property>
  <property name="kdenlive:originalurl">video/Introo/13.mp4</property>
  <property name="kdenlive:original.mlt_type">producer</property>
  <property name="kdenlive:original.in">0</property>
  <property name="kdenlive:original.out">104</property>
  <property name="kdenlive:original.length">105</property>
  <property name="kdenlive:original.eof">pause</property>
  <property name="kdenlive:original.resource">video/Introo/13.mp4</property>
  <property name="kdenlive:original.meta.media.nb_streams">1</property>
  <property name="kdenlive:original.meta.media.0.stream.type">video</property>
  <property name="kdenlive:original.meta.media.0.stream.frame_rate">60</property>
  <property name="kdenlive:original.meta.media.0.stream.sample_aspect_ratio">0</property>
  <property name="kdenlive:original.meta.media.0.codec.width">2160</property>
  <property name="kdenlive:original.meta.media.0.codec.height">3840</property>
  <property name="kdenlive:original.meta.media.0.codec.rotate">0</property>
  <property name="kdenlive:original.meta.media.0.codec.pix_fmt">yuv420p</property>
  <property name="kdenlive:original.meta.media.0.codec.sample_aspect_ratio">0</property>
  <property name="kdenlive:original.meta.media.0.codec.colorspace">709</property>
  <property name="kdenlive:original.meta.media.0.codec.name">h264</property>
  <property name="kdenlive:original.meta.media.0.codec.long_name">H.264 / AVC / MPEG-4 AVC / MPEG-4 part 10</property>
  <property name="kdenlive:original.meta.media.0.codec.bit_rate">2713371</property>
  <property name="kdenlive:original.meta.attr.0.stream.handler_name.markup">VideoHandler</property>
  <property name="kdenlive:original.meta.attr.0.stream.vendor_id.markup">[0][0][0][0]</property>
  <property name="kdenlive:original.meta.attr.0.stream.encoder.markup">Lavc59.37.100 libx264</property>
  <property name="kdenlive:original.meta.attr.major_brand.markup">isom</property>
  <property name="kdenlive:original.meta.attr.minor_version.markup">512</property>
  <property name="kdenlive:original.meta.attr.compatible_brands.markup">isomiso2avc1mp41</property>
  <property name="kdenlive:original.meta.attr.encoder.markup">Lavf59.27.100</property>
  <property name="kdenlive:original.meta.attr.comment.markup">Rendered with Manim Community v0.17.2</property>
  <property name="kdenlive:original.seekable">1</property>
  <property name="kdenlive:original.width">2160</property>
  <property name="kdenlive:original.height">3840</property>
  <property name="kdenlive:original.meta.media.sample_aspect_num">1</property>
  <property name="kdenlive:original.meta.media.sample_aspect_den">1</property>
  <property name="kdenlive:original.aspect_ratio">1</property>
  <property name="kdenlive:original.format">3</property>
  <property name="kdenlive:original.audio_index">-1</property>
  <property name="kdenlive:original.video_index">0</property>
  <property name="kdenlive:original.mute_on_pause">0</property>
  <property name="kdenlive:original.mlt_service">avformat-novalidate</property>
  <property name="kdenlive:original.meta.media.frame_rate_num">60</property>
  <property name="kdenlive:original.meta.media.frame_rate_den">1</property>
  <property name="kdenlive:original.meta.media.colorspace">709</property>
  <property name="kdenlive:original.meta.media.color_trc">2</property>
  <property name="kdenlive:original.meta.media.has_b_frames">2</property>
  <property name="kdenlive:original.meta.media.width">2160</property>
  <property name="kdenlive:original.meta.media.height">3840</property>
  <property name="kdenlive:original.meta.media.color_range">mpeg</property>
  <property name="kdenlive:original.meta.media.top_field_first">0</property>
  <property name="kdenlive:original.meta.media.progressive">1</property>
  <property name="kdenlive:original.kdenlive:clip_type">2</property>
  <property name="kdenlive:original.kdenlive:folderid">5</property>
  <property name="kdenlive:original.kdenlive:id">10</property>
  <property name="kdenlive:original.kdenlive:file_size">595466</property>
  <property name="kdenlive:original.kdenlive:file_hash">81e0da60a88621e3753be6841989b7bf</property>
  <property name="kdenlive:original.backup">1</property>
  <property name="kdenlive:file_hash">81e0da60a88621e3753be6841989b7bf</property>
  <property name="xml">was here</property>
  <property name="meta.media.frame_rate_num">60</property>
  <property name="meta.media.frame_rate_den">1</property>
  <property name="meta.media.colorspace">601</property>
  <property name="meta.media.color_trc">2</property>
  <property name="meta.media.has_b_frames">0</property>
  <property name="meta.media.width">640</property>
  <property name="meta.media.height">1138</property>
  <property name="meta.media.color_range">full</property>
  <property name="meta.media.top_field_first">0</property>
  <property name="meta.media.progressive">1</property>
  <property name="set.test_audio">1</property>
  <property name="set.test_image">0</property>
 </producer>
 <producer id="producer277" in="00:00:00.000" out="00:00:00.983">
  <property name="length">60</property>
  <property name="eof">pause</property>
  <property name="resource">/home/xiaoxiae/.cache/kdenlive/proxy/4b4eea2842d35116db06caa29c38b231.mkv</property>
  <property name="audio_index">-1</property>
  <property name="video_index">0</property>
  <property name="mute_on_pause">0</property>
  <property name="mlt_service">avformat-novalidate</property>
  <property name="meta.media.nb_streams">1</property>
  <property name="meta.media.0.stream.type">video</property>
  <property name="meta.media.0.stream.frame_rate">60</property>
  <property name="meta.media.0.stream.sample_aspect_ratio">0</property>
  <property name="meta.media.0.codec.width">640</property>
  <property name="meta.media.0.codec.height">1138</property>
  <property name="meta.media.0.codec.rotate">0</property>
  <property name="meta.media.0.codec.pix_fmt">yuvj420p</property>
  <property name="meta.media.0.codec.sample_aspect_ratio">0</property>
  <property name="meta.media.0.codec.colorspace">601</property>
  <property name="meta.media.0.codec.name">mjpeg</property>
  <property name="meta.media.0.codec.long_name">MJPEG (Motion JPEG)</property>
  <property name="meta.media.0.codec.bit_rate">0</property>
  <property name="meta.attr.0.stream.HANDLER_NAME.markup">VideoHandler</property>
  <property name="meta.attr.0.stream.VENDOR_ID.markup">[0][0][0][0]</property>
  <property name="meta.attr.0.stream.ENCODER.markup">Lavc59.37.100 mjpeg</property>
  <property name="meta.attr.0.stream.DURATION.markup">00:00:01.000000000</property>
  <property name="meta.attr.COMMENT.markup">Rendered with Manim Community v0.17.2</property>
  <property name="meta.attr.MAJOR_BRAND.markup">isom</property>
  <property name="meta.attr.MINOR_VERSION.markup">512</property>
  <property name="meta.attr.COMPATIBLE_BRANDS.markup">isomiso2avc1mp41</property>
  <property name="meta.attr.ENCODER.markup">Lavf59.27.100</property>
  <property name="seekable">1</property>
  <property name="meta.media.sample_aspect_num">1</property>
  <property name="meta.media.sample_aspect_den">1</property>
  <property name="aspect_ratio">1</property>
  <property name="format">3</property>
  <property name="kdenlive:clipname">14.mp4</property>
  <property name="kdenlive:clip_type">2</property>
  <property name="kdenlive:folderid">5</property>
  <property name="kdenlive:id">11</property>
  <property name="kdenlive:file_size">268765</property>
  <property name="kdenlive:proxy">/home/xiaoxiae/.cache/kdenlive/proxy/4b4eea2842d35116db06caa29c38b231.mkv</property>
  <property name="kdenlive:originalurl">video/Introo/14.mp4</property>
  <property name="kdenlive:original.mlt_type">producer</property>
  <property name="kdenlive:original.in">0</property>
  <property name="kdenlive:original.out">59</property>
  <property name="kdenlive:original.length">60</property>
  <property name="kdenlive:original.eof">pause</property>
  <property name="kdenlive:original.resource">video/Introo/14.mp4</property>
  <property name="kdenlive:original.meta.media.nb_streams">1</property>
  <property name="kdenlive:original.meta.media.0.stream.type">video</property>
  <property name="kdenlive:original.meta.media.0.stream.frame_rate">60</property>
  <property name="kdenlive:original.meta.media.0.stream.sample_aspect_ratio">0</property>
  <property name="kdenlive:original.meta.media.0.codec.width">2160</property>
  <property name="kdenlive:original.meta.media.0.codec.height">3840</property>
  <property name="kdenlive:original.meta.media.0.codec.rotate">0</property>
  <property name="kdenlive:original.meta.media.0.codec.pix_fmt">yuv420p</property>
  <property name="kdenlive:original.meta.media.0.codec.sample_aspect_ratio">0</property>
  <property name="kdenlive:original.meta.media.0.codec.colorspace">709</property>
  <property name="kdenlive:original.meta.media.0.codec.name">h264</property>
  <property name="kdenlive:original.meta.media.0.codec.long_name">H.264 / AVC / MPEG-4 AVC / MPEG-4 part 10</property>
  <property name="kdenlive:original.meta.media.0.codec.bit_rate">2137768</property>
  <property name="kdenlive:original.meta.attr.0.stream.handler_name.markup">VideoHandler</property>
  <property name="kdenlive:original.meta.attr.0.stream.vendor_id.markup">[0][0][0][0]</property>
  <property name="kdenlive:original.meta.attr.0.stream.encoder.markup">Lavc59.37.100 libx264</property>
  <property name="kdenlive:original.meta.attr.major_brand.markup">isom</property>
  <property name="kdenlive:original.meta.attr.minor_version.markup">512</property>
  <property name="kdenlive:original.meta.attr.compatible_brands.markup">isomiso2avc1mp41</property>
  <property name="kdenlive:original.meta.attr.encoder.markup">Lavf59.27.100</property>
  <property name="kdenlive:original.meta.attr.comment.markup">Rendered with Manim Community v0.17.2</property>
  <property name="kdenlive:original.seekable">1</property>
  <property name="kdenlive:original.width">2160</property>
  <property name="kdenlive:original.height">3840</property>
  <property name="kdenlive:original.meta.media.sample_aspect_num">1</property>
  <property name="kdenlive:original.meta.media.sample_aspect_den">1</property>
  <property name="kdenlive:original.aspect_ratio">1</property>
  <property name="kdenlive:original.format">3</property>
  <property name="kdenlive:original.audio_index">-1</property>
  <property name="kdenlive:original.video_index">0</property>
  <property name="kdenlive:original.mute_on_pause">0</property>
  <property name="kdenlive:original.mlt_service">avformat-novalidate</property>
  <property name="kdenlive:original.meta.media.frame_rate_num">60</property>
  <property name="kdenlive:original.meta.media.frame_rate_den">1</property>
  <property name="kdenlive:original.meta.media.colorspace">709</property>
  <property name="kdenlive:original.meta.media.color_trc">2</property>
  <property name="kdenlive:original.meta.media.has_b_frames">2</property>
  <property name="kdenlive:original.meta.media.width">2160</property>
  <property name="kdenlive:original.meta.media.height">3840</property>
  <property name="kdenlive:original.meta.media.color_range">mpeg</property>
  <property name="kdenlive:original.meta.media.top_field_first">0</property>
  <property name="kdenlive:original.meta.media.progressive">1</property>
  <property name="kdenlive:original.kdenlive:clip_type">2</property>
  <property name="kdenlive:original.kdenlive:folderid">5</property>
  <property name="kdenlive:original.kdenlive:id">11</property>
  <property name="kdenlive:original.kdenlive:file_size">268765</property>
  <property name="kdenlive:original.kdenlive:file_hash">4b4eea2842d35116db06caa29c38b231</property>
  <property name="kdenlive:original.backup">1</property>
  <property name="kdenlive:file_hash">4b4eea2842d35116db06caa29c38b231</property>
  <property name="xml">was here</property>
  <property name="meta.media.frame_rate_num">60</property>
  <property name="meta.media.frame_rate_den">1</property>
  <property name="meta.media.colorspace">601</property>
  <property name="meta.media.color_trc">2</property>
  <property name="meta.media.has_b_frames">0</property>
  <property name="meta.media.width">640</property>
  <property name="meta.media.height">1138</property>
  <property name="meta.media.color_range">full</property>
  <property name="meta.media.top_field_first">0</property>
  <property name="meta.media.progressive">1</property>
  <property name="set.test_audio">1</property>
  <property name="set.test_image">0</property>
 </producer>
 <playlist id="playlist4">
  <entry producer="producer262" in="00:00:00.000" out="00:00:01.983">
   <property name="kdenlive:id">6</property>
  </entry>
  <blank length="00:00:01.033"/>
  <entry producer="producer263" in="00:00:00.000" out="00:00:01.483">
   <property name="kdenlive:id">12</property>
  </entry>
  <blank length="00:00:10.300"/>
  <entry producer="producer264" in="00:00:00.000" out="00:00:01.733">
   <property name="kdenlive:id">13</property>
  </entry>
  <blank length="00:00:02.433"/>
  <entry producer="producer265" in="00:00:00.000" out="00:00:01.483">
   <property name="kdenlive:id">14</property>
  </entry>
  <blank length="00:00:05.100"/>
  <entry producer="producer266" in="00:00:00.000" out="00:00:05.183">
   <property name="kdenlive:id">16</property>
   <filter id="filter8">
    <property name="frame">0</property>
    <property name="freeze_after">0</property>
    <property name="freeze_before">0</property>
    <property name="mlt_service">freeze</property>
    <property name="kdenlive_id">freeze</property>
    <property name="kdenlive:collapsed">0</property>
   </filter>
  </entry>
  <entry producer="producer267" in="00:00:00.000" out="00:00:00.983">
   <property name="kdenlive:id">16</property>
  </entry>
  <entry producer="producer268" in="00:00:00.000" out="00:00:01.850">
   <property name="kdenlive:id">17</property>
   <filter id="filter9">
    <property name="frame">0</property>
    <property name="freeze_after">0</property>
    <property name="freeze_before">0</property>
    <property name="mlt_service">freeze</property>
    <property name="kdenlive_id">freeze</property>
    <property name="kdenlive:collapsed">0</property>
   </filter>
  </entry>
  <entry producer="producer269" in="00:00:00.000" out="00:00:00.983">
   <property name="kdenlive:id">17</property>
  </entry>
  <entry producer="producer270" in="00:00:00.000" out="00:00:03.033">
   <property name="kdenlive:id">19</property>
   <filter id="filter10">
    <property name="frame">0</property>
    <property name="freeze_after">0</property>
    <property name="freeze_before">0</property>
    <property name="mlt_service">freeze</property>
    <property name="kdenlive_id">freeze</property>
    <property name="kdenlive:collapsed">0</property>
   </filter>
  </entry>
  <entry producer="producer271" in="00:00:00.000" out="00:00:00.983">
   <property name="kdenlive:id">19</property>
  </entry>
  <entry producer="producer272" in="00:00:00.000" out="00:00:00.483">
   <property name="kdenlive:id">21</property>
   <filter id="filter11">
    <property name="frame">0</property>
    <property name="freeze_after">0</property>
    <property name="freeze_before">0</property>
    <property name="mlt_service">freeze</property>
    <property name="kdenlive_id">freeze</property>
    <property name="kdenlive:collapsed">0</property>
   </filter>
  </entry>
  <blank length="00:00:00.267"/>
  <entry producer="producer273" in="00:00:00.000" out="00:00:00.983">
   <property name="kdenlive:id">7</property>
  </entry>
  <entry producer="producer274" in="00:00:00.000" out="00:00:00.483">
   <property name="kdenlive:id">8</property>
   <filter id="filter12">
    <property name="frame">0</property>
    <property name="freeze_after">0</property>
    <property name="freeze_before">0</property>
    <property name="mlt_service">freeze</property>
    <property name="kdenlive_id">freeze</property>
    <property name="kdenlive:collapsed">0</property>
   </filter>
  </entry>
  <blank length="00:00:00.383"/>
  <entry producer="producer275" in="00:00:00.000" out="00:00:00.983">
   <property name="kdenlive:id">9</property>
  </entry>
  <blank length="00:00:05.867"/>
  <entry producer="producer276" in="00:00:00.000" out="00:00:01.733">
   <property name="kdenlive:id">10</property>
  </entry>
  <blank length="00:00:07.167"/>
  <entry producer="producer277" in="00:00:00.000" out="00:00:00.983">
   <property name="kdenlive:id">11</property>
  </entry>
 </playlist>
 <playlist id="playlist5"/>
 <tractor id="tractor2" in="00:00:00.000" out="00:00:58.150">
  <property name="kdenlive:trackheight">67</property>
  <property name="kdenlive:timeline_active">1</property>
  <property name="kdenlive:collapsed">0</property>
  <property name="kdenlive:thumbs_format"/>
  <property name="kdenlive:audio_rec"/>
  <track hide="audio" producer="playlist4"/>
  <track hide="audio" producer="playlist5"/>
 </tractor>
 <producer id="producer278" in="00:00:00.000" out="00:00:01.483">
  <property name="length">90</property>
  <property name="eof">pause</property>
  <property name="resource">/home/xiaoxiae/.cache/kdenlive/proxy/0b89cd57b68835ad6c09b14c719bfc6c.mkv</property>
  <property name="audio_index">-1</property>
  <property name="video_index">0</property>
  <property name="mute_on_pause">0</property>
  <property name="mlt_service">avformat-novalidate</property>
  <property name="meta.media.nb_streams">1</property>
  <property name="meta.media.0.stream.type">video</property>
  <property name="meta.media.0.stream.frame_rate">60</property>
  <property name="meta.media.0.stream.sample_aspect_ratio">0</property>
  <property name="meta.media.0.codec.width">640</property>
  <property name="meta.media.0.codec.height">1138</property>
  <property name="meta.media.0.codec.rotate">0</property>
  <property name="meta.media.0.codec.pix_fmt">yuvj420p</property>
  <property name="meta.media.0.codec.sample_aspect_ratio">0</property>
  <property name="meta.media.0.codec.colorspace">601</property>
  <property name="meta.media.0.codec.name">mjpeg</property>
  <property name="meta.media.0.codec.long_name">MJPEG (Motion JPEG)</property>
  <property name="meta.media.0.codec.bit_rate">0</property>
  <property name="meta.attr.0.stream.HANDLER_NAME.markup">VideoHandler</property>
  <property name="meta.attr.0.stream.VENDOR_ID.markup">[0][0][0][0]</property>
  <property name="meta.attr.0.stream.ENCODER.markup">Lavc59.37.100 mjpeg</property>
  <property name="meta.attr.0.stream.DURATION.markup">00:00:01.500000000</property>
  <property name="meta.attr.COMMENT.markup">Rendered with Manim Community v0.17.2</property>
  <property name="meta.attr.MAJOR_BRAND.markup">isom</property>
  <property name="meta.attr.MINOR_VERSION.markup">512</property>
  <property name="meta.attr.COMPATIBLE_BRANDS.markup">isomiso2avc1mp41</property>
  <property name="meta.attr.ENCODER.markup">Lavf59.27.100</property>
  <property name="seekable">1</property>
  <property name="meta.media.sample_aspect_num">1</property>
  <property name="meta.media.sample_aspect_den">1</property>
  <property name="aspect_ratio">1</property>
  <property name="format">3</property>
  <property name="kdenlive:clipname">2.mp4</property>
  <property name="kdenlive:clip_type">2</property>
  <property name="kdenlive:folderid">5</property>
  <property name="kdenlive:id">12</property>
  <property name="kdenlive:file_size">225812</property>
  <property name="kdenlive:proxy">/home/xiaoxiae/.cache/kdenlive/proxy/0b89cd57b68835ad6c09b14c719bfc6c.mkv</property>
  <property name="kdenlive:originalurl">video/Introo/2.mp4</property>
  <property name="kdenlive:original.mlt_type">producer</property>
  <property name="kdenlive:original.in">0</property>
  <property name="kdenlive:original.out">89</property>
  <property name="kdenlive:original.length">90</property>
  <property name="kdenlive:original.eof">pause</property>
  <property name="kdenlive:original.resource">video/Introo/2.mp4</property>
  <property name="kdenlive:original.meta.media.nb_streams">1</property>
  <property name="kdenlive:original.meta.media.0.stream.type">video</property>
  <property name="kdenlive:original.meta.media.0.stream.frame_rate">60</property>
  <property name="kdenlive:original.meta.media.0.stream.sample_aspect_ratio">0</property>
  <property name="kdenlive:original.meta.media.0.codec.width">2160</property>
  <property name="kdenlive:original.meta.media.0.codec.height">3840</property>
  <property name="kdenlive:original.meta.media.0.codec.rotate">0</property>
  <property name="kdenlive:original.meta.media.0.codec.pix_fmt">yuv420p</property>
  <property name="kdenlive:original.meta.media.0.codec.sample_aspect_ratio">0</property>
  <property name="kdenlive:original.meta.media.0.codec.colorspace">709</property>
  <property name="kdenlive:original.meta.media.0.codec.name">h264</property>
  <property name="kdenlive:original.meta.media.0.codec.long_name">H.264 / AVC / MPEG-4 AVC / MPEG-4 part 10</property>
  <property name="kdenlive:original.meta.media.0.codec.bit_rate">1194005</property>
  <property name="kdenlive:original.meta.attr.0.stream.handler_name.markup">VideoHandler</property>
  <property name="kdenlive:original.meta.attr.0.stream.vendor_id.markup">[0][0][0][0]</property>
  <property name="kdenlive:original.meta.attr.0.stream.encoder.markup">Lavc59.37.100 libx264</property>
  <property name="kdenlive:original.meta.attr.major_brand.markup">isom</property>
  <property name="kdenlive:original.meta.attr.minor_version.markup">512</property>
  <property name="kdenlive:original.meta.attr.compatible_brands.markup">isomiso2avc1mp41</property>
  <property name="kdenlive:original.meta.attr.encoder.markup">Lavf59.27.100</property>
  <property name="kdenlive:original.meta.attr.comment.markup">Rendered with Manim Community v0.17.2</property>
  <property name="kdenlive:original.seekable">1</property>
  <property name="kdenlive:original.width">2160</property>
  <property name="kdenlive:original.height">3840</property>
  <property name="kdenlive:original.meta.media.sample_aspect_num">1</property>
  <property name="kdenlive:original.meta.media.sample_aspect_den">1</property>
  <property name="kdenlive:original.aspect_ratio">1</property>
  <property name="kdenlive:original.format">3</property>
  <property name="kdenlive:original.audio_index">-1</property>
  <property name="kdenlive:original.video_index">0</property>
  <property name="kdenlive:original.mute_on_pause">0</property>
  <property name="kdenlive:original.mlt_service">avformat-novalidate</property>
  <property name="kdenlive:original.meta.media.frame_rate_num">60</property>
  <property name="kdenlive:original.meta.media.frame_rate_den">1</property>
  <property name="kdenlive:original.meta.media.colorspace">709</property>
  <property name="kdenlive:original.meta.media.color_trc">2</property>
  <property name="kdenlive:original.meta.media.has_b_frames">2</property>
  <property name="kdenlive:original.meta.media.width">2160</property>
  <property name="kdenlive:original.meta.media.height">3840</property>
  <property name="kdenlive:original.meta.media.color_range">mpeg</property>
  <property name="kdenlive:original.meta.media.top_field_first">0</property>
  <property name="kdenlive:original.meta.media.progressive">1</property>
  <property name="kdenlive:original.kdenlive:clip_type">2</property>
  <property name="kdenlive:original.kdenlive:folderid">5</property>
  <property name="kdenlive:original.kdenlive:id">12</property>
  <property name="kdenlive:original.kdenlive:file_size">225812</property>
  <property name="kdenlive:original.kdenlive:file_hash">0b89cd57b68835ad6c09b14c719bfc6c</property>
  <property name="kdenlive:original.backup">1</property>
  <property name="kdenlive:file_hash">0b89cd57b68835ad6c09b14c719bfc6c</property>
  <property name="xml">was here</property>
  <property name="meta.media.frame_rate_num">60</property>
  <property name="meta.media.frame_rate_den">1</property>
  <property name="meta.media.colorspace">601</property>
  <property name="meta.media.color_trc">2</property>
  <property name="meta.media.has_b_frames">0</property>
  <property name="meta.media.width">640</property>
  <property name="meta.media.height">1138</property>
  <property name="meta.media.color_range">full</property>
  <property name="meta.media.top_field_first">0</property>
  <property name="meta.media.progressive">1</property>
  <property name="set.test_audio">1</property>
  <property name="set.test_image">0</property>
 </producer>
 <producer id="producer279" in="00:00:00.000" out="00:00:17.483">
  <property name="length">1050</property>
  <property name="eof">pause</property>
  <property name="resource">0.100000:/home/xiaoxiae/.cache/kdenlive/proxy/eb9d0e5bf0ea9a77bbb7776fed1462bd.mkv</property>
  <property name="aspect_ratio">1</property>
  <property name="meta.media.nb_streams">1</property>
  <property name="meta.media.0.stream.type">video</property>
  <property name="meta.media.0.stream.frame_rate">60</property>
  <property name="meta.media.0.stream.sample_aspect_ratio">0</property>
  <property name="meta.media.0.codec.width">640</property>
  <property name="meta.media.0.codec.height">1138</property>
  <property name="meta.media.0.codec.rotate">0</property>
  <property name="meta.media.0.codec.pix_fmt">yuvj420p</property>
  <property name="meta.media.0.codec.sample_aspect_ratio">0</property>
  <property name="meta.media.0.codec.colorspace">601</property>
  <property name="meta.media.0.codec.name">mjpeg</property>
  <property name="meta.media.0.codec.long_name">MJPEG (Motion JPEG)</property>
  <property name="meta.media.0.codec.bit_rate">0</property>
  <property name="meta.attr.0.stream.HANDLER_NAME.markup">VideoHandler</property>
  <property name="meta.attr.0.stream.VENDOR_ID.markup">[0][0][0][0]</property>
  <property name="meta.attr.0.stream.ENCODER.markup">Lavc59.37.100 mjpeg</property>
  <property name="meta.attr.0.stream.DURATION.markup">00:00:01.750000000</property>
  <property name="meta.attr.COMMENT.markup">Rendered with Manim Community v0.17.2</property>
  <property name="meta.attr.MAJOR_BRAND.markup">isom</property>
  <property name="meta.attr.MINOR_VERSION.markup">512</property>
  <property name="meta.attr.COMPATIBLE_BRANDS.markup">isomiso2avc1mp41</property>
  <property name="meta.attr.ENCODER.markup">Lavf59.27.100</property>
  <property name="seekable">1</property>
  <property name="meta.media.sample_aspect_num">1</property>
  <property name="meta.media.sample_aspect_den">1</property>
  <property name="format">3</property>
  <property name="audio_index">-1</property>
  <property name="video_index">0</property>
  <property name="mute_on_pause">1</property>
  <property name="warp_speed">0.1</property>
  <property name="warp_resource">/home/xiaoxiae/.cache/kdenlive/proxy/eb9d0e5bf0ea9a77bbb7776fed1462bd.mkv</property>
  <property name="mlt_service">timewarp</property>
  <property name="kdenlive:proxy">/home/xiaoxiae/.cache/kdenlive/proxy/eb9d0e5bf0ea9a77bbb7776fed1462bd.mkv</property>
  <property name="kdenlive:originalurl">video/Introo/3.mp4</property>
  <property name="set.test_audio">1</property>
  <property name="set.test_image">0</property>
  <property name="kdenlive:id">13</property>
  <property name="warp_pitch">0</property>
  <property name="meta.media.frame_rate_num">60</property>
  <property name="meta.media.frame_rate_den">1</property>
  <property name="meta.media.colorspace">601</property>
  <property name="meta.media.color_trc">2</property>
  <property name="meta.media.has_b_frames">0</property>
  <property name="meta.media.width">640</property>
  <property name="meta.media.height">1138</property>
  <property name="meta.media.color_range">full</property>
  <property name="meta.media.top_field_first">0</property>
  <property name="meta.media.progressive">1</property>
 </producer>
 <producer id="producer280" in="00:00:00.000" out="00:00:02.983">
  <property name="length">180</property>
  <property name="eof">pause</property>
  <property name="resource">0.500000:/home/xiaoxiae/.cache/kdenlive/proxy/3e7606f1125d60f98e1b317cb1cdfb3e.mkv</property>
  <property name="aspect_ratio">1</property>
  <property name="meta.media.nb_streams">1</property>
  <property name="meta.media.0.stream.type">video</property>
  <property name="meta.media.0.stream.frame_rate">60</property>
  <property name="meta.media.0.stream.sample_aspect_ratio">0</property>
  <property name="meta.media.0.codec.width">640</property>
  <property name="meta.media.0.codec.height">1138</property>
  <property name="meta.media.0.codec.rotate">0</property>
  <property name="meta.media.0.codec.pix_fmt">yuvj420p</property>
  <property name="meta.media.0.codec.sample_aspect_ratio">0</property>
  <property name="meta.media.0.codec.colorspace">601</property>
  <property name="meta.media.0.codec.name">mjpeg</property>
  <property name="meta.media.0.codec.long_name">MJPEG (Motion JPEG)</property>
  <property name="meta.media.0.codec.bit_rate">0</property>
  <property name="meta.attr.0.stream.HANDLER_NAME.markup">VideoHandler</property>
  <property name="meta.attr.0.stream.VENDOR_ID.markup">[0][0][0][0]</property>
  <property name="meta.attr.0.stream.ENCODER.markup">Lavc59.37.100 mjpeg</property>
  <property name="meta.attr.0.stream.DURATION.markup">00:00:01.500000000</property>
  <property name="meta.attr.COMMENT.markup">Rendered with Manim Community v0.17.2</property>
  <property name="meta.attr.MAJOR_BRAND.markup">isom</property>
  <property name="meta.attr.MINOR_VERSION.markup">512</property>
  <property name="meta.attr.COMPATIBLE_BRANDS.markup">isomiso2avc1mp41</property>
  <property name="meta.attr.ENCODER.markup">Lavf59.27.100</property>
  <property name="seekable">1</property>
  <property name="meta.media.sample_aspect_num">1</property>
  <property name="meta.media.sample_aspect_den">1</property>
  <property name="format">3</property>
  <property name="audio_index">-1</property>
  <property name="video_index">0</property>
  <property name="mute_on_pause">1</property>
  <property name="warp_speed">0.5</property>
  <property name="warp_resource">/home/xiaoxiae/.cache/kdenlive/proxy/3e7606f1125d60f98e1b317cb1cdfb3e.mkv</property>
  <property name="mlt_service">timewarp</property>
  <property name="kdenlive:proxy">/home/xiaoxiae/.cache/kdenlive/proxy/3e7606f1125d60f98e1b317cb1cdfb3e.mkv</property>
  <property name="kdenlive:originalurl">video/Introo/4.mp4</property>
  <property name="set.test_audio">1</property>
  <property name="set.test_image">0</property>
  <property name="kdenlive:id">14</property>
  <property name="warp_pitch">0</property>
  <property name="meta.media.frame_rate_num">60</property>
  <property name="meta.media.frame_rate_den">1</property>
  <property name="meta.media.colorspace">601</property>
  <property name="meta.media.color_trc">2</property>
  <property name="meta.media.has_b_frames">0</property>
  <property name="meta.media.width">640</property>
  <property name="meta.media.height">1138</property>
  <property name="meta.media.color_range">full</property>
  <property name="meta.media.top_field_first">0</property>
  <property name="meta.media.progressive">1</property>
 </producer>
 <producer id="producer281" in="00:00:00.000" out="00:00:04.983">
  <property name="length">300</property>
  <property name="eof">pause</property>
  <property name="resource">0.300000:/home/xiaoxiae/.cache/kdenlive/proxy/0e2252fd226443696d8a5f3ce1e5fc5b.mkv</property>
  <property name="aspect_ratio">1</property>
  <property name="meta.media.nb_streams">1</property>
  <property name="meta.media.0.stream.type">video</property>
  <property name="meta.media.0.stream.frame_rate">60</property>
  <property name="meta.media.0.stream.sample_aspect_ratio">0</property>
  <property name="meta.media.0.codec.width">640</property>
  <property name="meta.media.0.codec.height">1138</property>
  <property name="meta.media.0.codec.rotate">0</property>
  <property name="meta.media.0.codec.pix_fmt">yuvj420p</property>
  <property name="meta.media.0.codec.sample_aspect_ratio">0</property>
  <property name="meta.media.0.codec.colorspace">601</property>
  <property name="meta.media.0.codec.name">mjpeg</property>
  <property name="meta.media.0.codec.long_name">MJPEG (Motion JPEG)</property>
  <property name="meta.media.0.codec.bit_rate">0</property>
  <property name="meta.attr.0.stream.HANDLER_NAME.markup">VideoHandler</property>
  <property name="meta.attr.0.stream.VENDOR_ID.markup">[0][0][0][0]</property>
  <property name="meta.attr.0.stream.ENCODER.markup">Lavc59.37.100 mjpeg</property>
  <property name="meta.attr.0.stream.DURATION.markup">00:00:01.500000000</property>
  <property name="meta.attr.COMMENT.markup">Rendered with Manim Community v0.17.2</property>
  <property name="meta.attr.MAJOR_BRAND.markup">isom</property>
  <property name="meta.attr.MINOR_VERSION.markup">512</property>
  <property name="meta.attr.COMPATIBLE_BRANDS.markup">isomiso2avc1mp41</property>
  <property name="meta.attr.ENCODER.markup">Lavf59.27.100</property>
  <property name="seekable">1</property>
  <property name="meta.media.sample_aspect_num">1</property>
  <property name="meta.media.sample_aspect_den">1</property>
  <property name="format">3</property>
  <property name="audio_index">-1</property>
  <property name="video_index">0</property>
  <property name="mute_on_pause">1</property>
  <property name="warp_speed">0.3</property>
  <property name="warp_resource">/home/xiaoxiae/.cache/kdenlive/proxy/0e2252fd226443696d8a5f3ce1e5fc5b.mkv</property>
  <property name="mlt_service">timewarp</property>
  <property name="kdenlive:proxy">/home/xiaoxiae/.cache/kdenlive/proxy/0e2252fd226443696d8a5f3ce1e5fc5b.mkv</property>
  <property name="kdenlive:originalurl">video/Introo/5.mp4</property>
  <property name="set.test_audio">1</property>
  <property name="set.test_image">0</property>
  <property name="kdenlive:id">15</property>
  <property name="warp_pitch">0</property>
  <property name="meta.media.frame_rate_num">60</property>
  <property name="meta.media.frame_rate_den">1</property>
  <property name="meta.media.colorspace">601</property>
  <property name="meta.media.color_trc">2</property>
  <property name="meta.media.has_b_frames">0</property>
  <property name="meta.media.width">640</property>
  <property name="meta.media.height">1138</property>
  <property name="meta.media.color_range">full</property>
  <property name="meta.media.top_field_first">0</property>
  <property name="meta.media.progressive">1</property>
 </producer>
 <producer id="producer282" in="00:00:00.000" out="00:00:01.483">
  <property name="length">90</property>
  <property name="eof">pause</property>
  <property name="resource">/home/xiaoxiae/.cache/kdenlive/proxy/0e2252fd226443696d8a5f3ce1e5fc5b.mkv</property>
  <property name="audio_index">-1</property>
  <property name="video_index">0</property>
  <property name="mute_on_pause">0</property>
  <property name="mlt_service">avformat-novalidate</property>
  <property name="meta.media.nb_streams">1</property>
  <property name="meta.media.0.stream.type">video</property>
  <property name="meta.media.0.stream.frame_rate">60</property>
  <property name="meta.media.0.stream.sample_aspect_ratio">0</property>
  <property name="meta.media.0.codec.width">640</property>
  <property name="meta.media.0.codec.height">1138</property>
  <property name="meta.media.0.codec.rotate">0</property>
  <property name="meta.media.0.codec.pix_fmt">yuvj420p</property>
  <property name="meta.media.0.codec.sample_aspect_ratio">0</property>
  <property name="meta.media.0.codec.colorspace">601</property>
  <property name="meta.media.0.codec.name">mjpeg</property>
  <property name="meta.media.0.codec.long_name">MJPEG (Motion JPEG)</property>
  <property name="meta.media.0.codec.bit_rate">0</property>
  <property name="meta.attr.0.stream.HANDLER_NAME.markup">VideoHandler</property>
  <property name="meta.attr.0.stream.VENDOR_ID.markup">[0][0][0][0]</property>
  <property name="meta.attr.0.stream.ENCODER.markup">Lavc59.37.100 mjpeg</property>
  <property name="meta.attr.0.stream.DURATION.markup">00:00:01.500000000</property>
  <property name="meta.attr.COMMENT.markup">Rendered with Manim Community v0.17.2</property>
  <property name="meta.attr.MAJOR_BRAND.markup">isom</property>
  <property name="meta.attr.MINOR_VERSION.markup">512</property>
  <property name="meta.attr.COMPATIBLE_BRANDS.markup">isomiso2avc1mp41</property>
  <property name="meta.attr.ENCODER.markup">Lavf59.27.100</property>
  <property name="seekable">1</property>
  <property name="meta.media.sample_aspect_num">1</property>
  <property name="meta.media.sample_aspect_den">1</property>
  <property name="aspect_ratio">1</property>
  <property name="format">3</property>
  <property name="kdenlive:clipname">5.mp4</property>
  <property name="kdenlive:clip_type">2</property>
  <property name="kdenlive:folderid">5</property>
  <property name="kdenlive:id">15</property>
  <property name="kdenlive:file_size">784619</property>
  <property name="kdenlive:proxy">/home/xiaoxiae/.cache/kdenlive/proxy/0e2252fd226443696d8a5f3ce1e5fc5b.mkv</property>
  <property name="kdenlive:originalurl">video/Introo/5.mp4</property>
  <property name="kdenlive:original.mlt_type">producer</property>
  <property name="kdenlive:original.in">0</property>
  <property name="kdenlive:original.out">89</property>
  <property name="kdenlive:original.length">90</property>
  <property name="kdenlive:original.eof">pause</property>
  <property name="kdenlive:original.resource">video/Introo/5.mp4</property>
  <property name="kdenlive:original.meta.media.nb_streams">1</property>
  <property name="kdenlive:original.meta.media.0.stream.type">video</property>
  <property name="kdenlive:original.meta.media.0.stream.frame_rate">60</property>
  <property name="kdenlive:original.meta.media.0.stream.sample_aspect_ratio">0</property>
  <property name="kdenlive:original.meta.media.0.codec.width">2160</property>
  <property name="kdenlive:original.meta.media.0.codec.height">3840</property>
  <property name="kdenlive:original.meta.media.0.codec.rotate">0</property>
  <property name="kdenlive:original.meta.media.0.codec.pix_fmt">yuv420p</property>
  <property name="kdenlive:original.meta.media.0.codec.sample_aspect_ratio">0</property>
  <property name="kdenlive:original.meta.media.0.codec.colorspace">709</property>
  <property name="kdenlive:original.meta.media.0.codec.name">h264</property>
  <property name="kdenlive:original.meta.media.0.codec.long_name">H.264 / AVC / MPEG-4 AVC / MPEG-4 part 10</property>
  <property name="kdenlive:original.meta.media.0.codec.bit_rate">4149434</property>
  <property name="kdenlive:original.meta.attr.0.stream.handler_name.markup">VideoHandler</property>
  <property name="kdenlive:original.meta.attr.0.stream.vendor_id.markup">[0][0][0][0]</property>
  <property name="kdenlive:original.meta.attr.0.stream.encoder.markup">Lavc59.37.100 libx264</property>
  <property name="kdenlive:original.meta.attr.major_brand.markup">isom</property>
  <property name="kdenlive:original.meta.attr.minor_version.markup">512</property>
  <property name="kdenlive:original.meta.attr.compatible_brands.markup">isomiso2avc1mp41</property>
  <property name="kdenlive:original.meta.attr.encoder.markup">Lavf59.27.100</property>
  <property name="kdenlive:original.meta.attr.comment.markup">Rendered with Manim Community v0.17.2</property>
  <property name="kdenlive:original.seekable">1</property>
  <property name="kdenlive:original.width">2160</property>
  <property name="kdenlive:original.height">3840</property>
  <property name="kdenlive:original.meta.media.sample_aspect_num">1</property>
  <property name="kdenlive:original.meta.media.sample_aspect_den">1</property>
  <property name="kdenlive:original.aspect_ratio">1</property>
  <property name="kdenlive:original.format">3</property>
  <property name="kdenlive:original.audio_index">-1</property>
  <property name="kdenlive:original.video_index">0</property>
  <property name="kdenlive:original.mute_on_pause">0</property>
  <property name="kdenlive:original.mlt_service">avformat-novalidate</property>
  <property name="kdenlive:original.meta.media.frame_rate_num">60</property>
  <property name="kdenlive:original.meta.media.frame_rate_den">1</property>
  <property name="kdenlive:original.meta.media.colorspace">709</property>
  <property name="kdenlive:original.meta.media.color_trc">2</property>
  <property name="kdenlive:original.meta.media.has_b_frames">2</property>
  <property name="kdenlive:original.meta.media.width">2160</property>
  <property name="kdenlive:original.meta.media.height">3840</property>
  <property name="kdenlive:original.meta.media.color_range">mpeg</property>
  <property name="kdenlive:original.meta.media.top_field_first">0</property>
  <property name="kdenlive:original.meta.media.progressive">1</property>
  <property name="kdenlive:original.kdenlive:clip_type">2</property>
  <property name="kdenlive:original.kdenlive:folderid">5</property>
  <property name="kdenlive:original.kdenlive:id">15</property>
  <property name="kdenlive:original.kdenlive:file_size">779743</property>
  <property name="kdenlive:original.kdenlive:file_hash">c96ca6538f13bbeec3e8daee0e503fb8</property>
  <property name="kdenlive:original.backup">1</property>
  <property name="kdenlive:file_hash">0e2252fd226443696d8a5f3ce1e5fc5b</property>
  <property name="xml">was here</property>
  <property name="meta.media.frame_rate_num">60</property>
  <property name="meta.media.frame_rate_den">1</property>
  <property name="meta.media.colorspace">601</property>
  <property name="meta.media.color_trc">2</property>
  <property name="meta.media.has_b_frames">0</property>
  <property name="meta.media.width">640</property>
  <property name="meta.media.height">1138</property>
  <property name="meta.media.color_range">full</property>
  <property name="meta.media.top_field_first">0</property>
  <property name="meta.media.progressive">1</property>
  <property name="set.test_audio">1</property>
  <property name="set.test_image">0</property>
 </producer>
 <producer id="producer283" in="00:00:00.000" out="00:00:00.483">
  <property name="length">30</property>
  <property name="eof">pause</property>
  <property name="resource">2.000000:/home/xiaoxiae/.cache/kdenlive/proxy/a4e21c6b966cb0c8b74723c1f1ed57c4.mkv</property>
  <property name="aspect_ratio">1</property>
  <property name="meta.media.nb_streams">1</property>
  <property name="meta.media.0.stream.type">video</property>
  <property name="meta.media.0.stream.frame_rate">60</property>
  <property name="meta.media.0.stream.sample_aspect_ratio">0</property>
  <property name="meta.media.0.codec.width">640</property>
  <property name="meta.media.0.codec.height">1138</property>
  <property name="meta.media.0.codec.rotate">0</property>
  <property name="meta.media.0.codec.pix_fmt">yuvj420p</property>
  <property name="meta.media.0.codec.sample_aspect_ratio">0</property>
  <property name="meta.media.0.codec.colorspace">601</property>
  <property name="meta.media.0.codec.name">mjpeg</property>
  <property name="meta.media.0.codec.long_name">MJPEG (Motion JPEG)</property>
  <property name="meta.media.0.codec.bit_rate">0</property>
  <property name="meta.attr.0.stream.HANDLER_NAME.markup">VideoHandler</property>
  <property name="meta.attr.0.stream.VENDOR_ID.markup">[0][0][0][0]</property>
  <property name="meta.attr.0.stream.ENCODER.markup">Lavc59.37.100 mjpeg</property>
  <property name="meta.attr.0.stream.DURATION.markup">00:00:01.000000000</property>
  <property name="meta.attr.COMMENT.markup">Rendered with Manim Community v0.17.2</property>
  <property name="meta.attr.MAJOR_BRAND.markup">isom</property>
  <property name="meta.attr.MINOR_VERSION.markup">512</property>
  <property name="meta.attr.COMPATIBLE_BRANDS.markup">isomiso2avc1mp41</property>
  <property name="meta.attr.ENCODER.markup">Lavf59.27.100</property>
  <property name="seekable">1</property>
  <property name="meta.media.sample_aspect_num">1</property>
  <property name="meta.media.sample_aspect_den">1</property>
  <property name="format">3</property>
  <property name="audio_index">-1</property>
  <property name="video_index">0</property>
  <property name="mute_on_pause">1</property>
  <property name="warp_speed">2</property>
  <property name="warp_resource">/home/xiaoxiae/.cache/kdenlive/proxy/a4e21c6b966cb0c8b74723c1f1ed57c4.mkv</property>
  <property name="mlt_service">timewarp</property>
  <property name="kdenlive:proxy">/home/xiaoxiae/.cache/kdenlive/proxy/a4e21c6b966cb0c8b74723c1f1ed57c4.mkv</property>
  <property name="kdenlive:originalurl">video/Introo/9.mp4</property>
  <property name="set.test_audio">1</property>
  <property name="set.test_image">0</property>
  <property name="kdenlive:id">21</property>
  <property name="warp_pitch">0</property>
  <property name="meta.media.frame_rate_num">60</property>
  <property name="meta.media.frame_rate_den">1</property>
  <property name="meta.media.colorspace">601</property>
  <property name="meta.media.color_trc">2</property>
  <property name="meta.media.has_b_frames">0</property>
  <property name="meta.media.width">640</property>
  <property name="meta.media.height">1138</property>
  <property name="meta.media.color_range">full</property>
  <property name="meta.media.top_field_first">0</property>
  <property name="meta.media.progressive">1</property>
 </producer>
 <producer id="producer284" in="00:00:00.000" out="00:00:00.483">
  <property name="length">30</property>
  <property name="eof">pause</property>
  <property name="resource">2.000000:/home/xiaoxiae/.cache/kdenlive/proxy/1f1b7efe38fa7e8601cb38cd3ee2acf3.mkv</property>
  <property name="aspect_ratio">1</property>
  <property name="meta.media.nb_streams">1</property>
  <property name="meta.media.0.stream.type">video</property>
  <property name="meta.media.0.stream.frame_rate">60</property>
  <property name="meta.media.0.stream.sample_aspect_ratio">0</property>
  <property name="meta.media.0.codec.width">640</property>
  <property name="meta.media.0.codec.height">1138</property>
  <property name="meta.media.0.codec.rotate">0</property>
  <property name="meta.media.0.codec.pix_fmt">yuvj420p</property>
  <property name="meta.media.0.codec.sample_aspect_ratio">0</property>
  <property name="meta.media.0.codec.colorspace">601</property>
  <property name="meta.media.0.codec.name">mjpeg</property>
  <property name="meta.media.0.codec.long_name">MJPEG (Motion JPEG)</property>
  <property name="meta.media.0.codec.bit_rate">0</property>
  <property name="meta.attr.0.stream.HANDLER_NAME.markup">VideoHandler</property>
  <property name="meta.attr.0.stream.VENDOR_ID.markup">[0][0][0][0]</property>
  <property name="meta.attr.0.stream.ENCODER.markup">Lavc59.37.100 mjpeg</property>
  <property name="meta.attr.0.stream.DURATION.markup">00:00:01.000000000</property>
  <property name="meta.attr.COMMENT.markup">Rendered with Manim Community v0.17.2</property>
  <property name="meta.attr.MAJOR_BRAND.markup">isom</property>
  <property name="meta.attr.MINOR_VERSION.markup">512</property>
  <property name="meta.attr.COMPATIBLE_BRANDS.markup">isomiso2avc1mp41</property>
  <property name="meta.attr.ENCODER.markup">Lavf59.27.100</property>
  <property name="seekable">1</property>
  <property name="meta.media.sample_aspect_num">1</property>
  <property name="meta.media.sample_aspect_den">1</property>
  <property name="format">3</property>
  <property name="audio_index">-1</property>
  <property name="video_index">0</property>
  <property name="mute_on_pause">1</property>
  <property name="warp_speed">2</property>
  <property name="warp_resource">/home/xiaoxiae/.cache/kdenlive/proxy/1f1b7efe38fa7e8601cb38cd3ee2acf3.mkv</property>
  <property name="mlt_service">timewarp</property>
  <property name="kdenlive:proxy">/home/xiaoxiae/.cache/kdenlive/proxy/1f1b7efe38fa7e8601cb38cd3ee2acf3.mkv</property>
  <property name="kdenlive:originalurl">video/Introo/11.mp4</property>
  <property name="set.test_audio">1</property>
  <property name="set.test_image">0</property>
  <property name="kdenlive:id">8</property>
  <property name="warp_pitch">0</property>
 </producer>
 <producer id="producer285" in="00:00:00.000" out="00:00:17.483">
  <property name="length">1050</property>
  <property name="eof">pause</property>
  <property name="resource">0.100000:/home/xiaoxiae/.cache/kdenlive/proxy/81e0da60a88621e3753be6841989b7bf.mkv</property>
  <property name="aspect_ratio">1</property>
  <property name="meta.media.nb_streams">1</property>
  <property name="meta.media.0.stream.type">video</property>
  <property name="meta.media.0.stream.frame_rate">60</property>
  <property name="meta.media.0.stream.sample_aspect_ratio">0</property>
  <property name="meta.media.0.codec.width">640</property>
  <property name="meta.media.0.codec.height">1138</property>
  <property name="meta.media.0.codec.rotate">0</property>
  <property name="meta.media.0.codec.pix_fmt">yuvj420p</property>
  <property name="meta.media.0.codec.sample_aspect_ratio">0</property>
  <property name="meta.media.0.codec.colorspace">601</property>
  <property name="meta.media.0.codec.name">mjpeg</property>
  <property name="meta.media.0.codec.long_name">MJPEG (Motion JPEG)</property>
  <property name="meta.media.0.codec.bit_rate">0</property>
  <property name="meta.attr.0.stream.HANDLER_NAME.markup">VideoHandler</property>
  <property name="meta.attr.0.stream.VENDOR_ID.markup">[0][0][0][0]</property>
  <property name="meta.attr.0.stream.ENCODER.markup">Lavc59.37.100 mjpeg</property>
  <property name="meta.attr.0.stream.DURATION.markup">00:00:01.750000000</property>
  <property name="meta.attr.COMMENT.markup">Rendered with Manim Community v0.17.2</property>
  <property name="meta.attr.MAJOR_BRAND.markup">isom</property>
  <property name="meta.attr.MINOR_VERSION.markup">512</property>
  <property name="meta.attr.COMPATIBLE_BRANDS.markup">isomiso2avc1mp41</property>
  <property name="meta.attr.ENCODER.markup">Lavf59.27.100</property>
  <property name="seekable">1</property>
  <property name="meta.media.sample_aspect_num">1</property>
  <property name="meta.media.sample_aspect_den">1</property>
  <property name="format">3</property>
  <property name="audio_index">-1</property>
  <property name="video_index">0</property>
  <property name="mute_on_pause">1</property>
  <property name="warp_speed">0.1</property>
  <property name="warp_resource">/home/xiaoxiae/.cache/kdenlive/proxy/81e0da60a88621e3753be6841989b7bf.mkv</property>
  <property name="mlt_service">timewarp</property>
  <property name="kdenlive:proxy">/home/xiaoxiae/.cache/kdenlive/proxy/81e0da60a88621e3753be6841989b7bf.mkv</property>
  <property name="kdenlive:originalurl">video/Introo/13.mp4</property>
  <property name="set.test_audio">1</property>
  <property name="set.test_image">0</property>
  <property name="kdenlive:id">10</property>
  <property name="warp_pitch">0</property>
 </producer>
 <producer id="producer286" in="00:00:00.000" out="00:00:09.983">
  <property name="length">600</property>
  <property name="eof">pause</property>
  <property name="resource">0.100000:/home/xiaoxiae/.cache/kdenlive/proxy/4b4eea2842d35116db06caa29c38b231.mkv</property>
  <property name="aspect_ratio">1</property>
  <property name="meta.media.nb_streams">1</property>
  <property name="meta.media.0.stream.type">video</property>
  <property name="meta.media.0.stream.frame_rate">60</property>
  <property name="meta.media.0.stream.sample_aspect_ratio">0</property>
  <property name="meta.media.0.codec.width">640</property>
  <property name="meta.media.0.codec.height">1138</property>
  <property name="meta.media.0.codec.rotate">0</property>
  <property name="meta.media.0.codec.pix_fmt">yuvj420p</property>
  <property name="meta.media.0.codec.sample_aspect_ratio">0</property>
  <property name="meta.media.0.codec.colorspace">601</property>
  <property name="meta.media.0.codec.name">mjpeg</property>
  <property name="meta.media.0.codec.long_name">MJPEG (Motion JPEG)</property>
  <property name="meta.media.0.codec.bit_rate">0</property>
  <property name="meta.attr.0.stream.HANDLER_NAME.markup">VideoHandler</property>
  <property name="meta.attr.0.stream.VENDOR_ID.markup">[0][0][0][0]</property>
  <property name="meta.attr.0.stream.ENCODER.markup">Lavc59.37.100 mjpeg</property>
  <property name="meta.attr.0.stream.DURATION.markup">00:00:01.000000000</property>
  <property name="meta.attr.COMMENT.markup">Rendered with Manim Community v0.17.2</property>
  <property name="meta.attr.MAJOR_BRAND.markup">isom</property>
  <property name="meta.attr.MINOR_VERSION.markup">512</property>
  <property name="meta.attr.COMPATIBLE_BRANDS.markup">isomiso2avc1mp41</property>
  <property name="meta.attr.ENCODER.markup">Lavf59.27.100</property>
  <property name="seekable">1</property>
  <property name="meta.media.sample_aspect_num">1</property>
  <property name="meta.media.sample_aspect_den">1</property>
  <property name="format">3</property>
  <property name="audio_index">-1</property>
  <property name="video_index">0</property>
  <property name="mute_on_pause">1</property>
  <property name="warp_speed">0.1</property>
  <property name="warp_resource">/home/xiaoxiae/.cache/kdenlive/proxy/4b4eea2842d35116db06caa29c38b231.mkv</property>
  <property name="mlt_service">timewarp</property>
  <property name="kdenlive:proxy">/home/xiaoxiae/.cache/kdenlive/proxy/4b4eea2842d35116db06caa29c38b231.mkv</property>
  <property name="kdenlive:originalurl">video/Introo/14.mp4</property>
  <property name="set.test_audio">1</property>
  <property name="set.test_image">0</property>
  <property name="kdenlive:id">11</property>
  <property name="warp_pitch">0</property>
  <property name="meta.media.frame_rate_num">60</property>
  <property name="meta.media.frame_rate_den">1</property>
  <property name="meta.media.colorspace">601</property>
  <property name="meta.media.color_trc">2</property>
  <property name="meta.media.has_b_frames">0</property>
  <property name="meta.media.width">640</property>
  <property name="meta.media.height">1138</property>
  <property name="meta.media.color_range">full</property>
 </producer>
 <playlist id="playlist6">
  <blank length="00:00:02.000"/>
  <entry producer="producer278" in="00:00:00.000" out="00:00:01.017">
   <property name="kdenlive:id">12</property>
   <filter id="filter13">
    <property name="frame">0</property>
    <property name="freeze_after">0</property>
    <property name="freeze_before">0</property>
    <property name="mlt_service">freeze</property>
    <property name="kdenlive_id">freeze</property>
   </filter>
  </entry>
  <blank length="00:00:01.500"/>
  <entry producer="producer279" in="00:00:00.000" out="00:00:10.283">
   <property name="kdenlive:id">13</property>
   <filter id="filter14">
    <property name="frame">0</property>
    <property name="freeze_after">0</property>
    <property name="freeze_before">0</property>
    <property name="mlt_service">freeze</property>
    <property name="kdenlive_id">freeze</property>
    <property name="kdenlive:collapsed">0</property>
   </filter>
  </entry>
  <blank length="00:00:01.750"/>
  <entry producer="producer280" in="00:00:00.000" out="00:00:02.417">
   <property name="kdenlive:id">14</property>
   <filter id="filter15">
    <property name="frame">0</property>
    <property name="freeze_after">0</property>
    <property name="freeze_before">0</property>
    <property name="mlt_service">freeze</property>
    <property name="kdenlive_id">freeze</property>
    <property name="kdenlive:collapsed">0</property>
   </filter>
  </entry>
  <blank length="00:00:01.500"/>
  <entry producer="producer281" in="00:00:00.000" out="00:00:04.150">
   <property name="kdenlive:id">15</property>
   <filter id="filter16">
    <property name="frame">0</property>
    <property name="freeze_after">0</property>
    <property name="freeze_before">0</property>
    <property name="mlt_service">freeze</property>
    <property name="kdenlive_id">freeze</property>
    <property name="kdenlive:collapsed">0</property>
   </filter>
  </entry>
  <entry producer="producer282" in="00:00:00.000" out="00:00:01.483">
   <property name="kdenlive:id">15</property>
  </entry>
  <blank length="00:00:12.817"/>
  <entry producer="producer283" in="00:00:00.000" out="00:00:00.483">
   <property name="kdenlive:id">21</property>
  </entry>
  <blank length="00:00:01.383"/>
  <entry producer="producer284" in="00:00:00.000" out="00:00:00.483">
   <property name="kdenlive:id">8</property>
  </entry>
  <blank length="00:00:01.000"/>
  <entry producer="producer285" in="00:00:00.000" out="00:00:05.850">
   <property name="kdenlive:id">10</property>
   <filter id="filter17">
    <property name="frame">0</property>
    <property name="freeze_after">0</property>
    <property name="freeze_before">0</property>
    <property name="mlt_service">freeze</property>
    <property name="kdenlive_id">freeze</property>
    <property name="kdenlive:collapsed">0</property>
   </filter>
  </entry>
  <blank length="00:00:01.750"/>
  <entry producer="producer286" in="00:00:00.000" out="00:00:07.150">
   <property name="kdenlive:id">11</property>
   <filter id="filter18">
    <property name="frame">0</property>
    <property name="freeze_after">0</property>
    <property name="freeze_before">0</property>
    <property name="mlt_service">freeze</property>
    <property name="kdenlive_id">freeze</property>
   </filter>
  </entry>
 </playlist>
 <playlist id="playlist7"/>
 <tractor id="tractor3" in="00:00:00.000" out="00:00:57.150">
  <property name="kdenlive:trackheight">67</property>
  <property name="kdenlive:timeline_active">1</property>
  <property name="kdenlive:collapsed">0</property>
  <property name="kdenlive:thumbs_format"/>
  <property name="kdenlive:audio_rec"/>
  <track hide="audio" producer="playlist6"/>
  <track hide="audio" producer="playlist7"/>
 </tractor>
 <producer id="producer287" in="00:00:00.000" out="00:00:05.183">
  <property name="length">312</property>
  <property name="eof">pause</property>
  <property name="resource">/home/xiaoxiae/.cache/kdenlive/proxy/cf0e2f25d22dd650cb777553026e8d8d.mkv</property>
  <property name="audio_index">-1</property>
  <property name="video_index">0</property>
  <property name="mute_on_pause">0</property>
  <property name="mlt_service">avformat-novalidate</property>
  <property name="meta.media.nb_streams">1</property>
  <property name="meta.media.0.stream.type">video</property>
  <property name="meta.media.0.stream.frame_rate">60</property>
  <property name="meta.media.0.stream.sample_aspect_ratio">0</property>
  <property name="meta.media.0.codec.width">640</property>
  <property name="meta.media.0.codec.height">1138</property>
  <property name="meta.media.0.codec.rotate">0</property>
  <property name="meta.media.0.codec.pix_fmt">yuvj420p</property>
  <property name="meta.media.0.codec.sample_aspect_ratio">0</property>
  <property name="meta.media.0.codec.colorspace">601</property>
  <property name="meta.media.0.codec.name">mjpeg</property>
  <property name="meta.media.0.codec.long_name">MJPEG (Motion JPEG)</property>
  <property name="meta.media.0.codec.bit_rate">0</property>
  <property name="meta.attr.0.stream.HANDLER_NAME.markup">VideoHandler</property>
  <property name="meta.attr.0.stream.VENDOR_ID.markup">[0][0][0][0]</property>
  <property name="meta.attr.0.stream.ENCODER.markup">Lavc59.37.100 mjpeg</property>
  <property name="meta.attr.0.stream.DURATION.markup">00:00:05.200000000</property>
  <property name="meta.attr.COMMENT.markup">Rendered with Manim Community v0.17.2</property>
  <property name="meta.attr.MAJOR_BRAND.markup">isom</property>
  <property name="meta.attr.MINOR_VERSION.markup">512</property>
  <property name="meta.attr.COMPATIBLE_BRANDS.markup">isomiso2avc1mp41</property>
  <property name="meta.attr.ENCODER.markup">Lavf59.27.100</property>
  <property name="seekable">1</property>
  <property name="meta.media.sample_aspect_num">1</property>
  <property name="meta.media.sample_aspect_den">1</property>
  <property name="aspect_ratio">1</property>
  <property name="format">3</property>
  <property name="kdenlive:clipname">1.mp4</property>
  <property name="kdenlive:clip_type">2</property>
  <property name="kdenlive:folderid">20</property>
  <property name="kdenlive:id">22</property>
  <property name="kdenlive:file_size">2528158</property>
  <property name="kdenlive:proxy">/home/xiaoxiae/.cache/kdenlive/proxy/cf0e2f25d22dd650cb777553026e8d8d.mkv</property>
  <property name="kdenlive:originalurl">video/TP/1.mp4</property>
  <property name="kdenlive:original.mlt_type">producer</property>
  <property name="kdenlive:original.in">0</property>
  <property name="kdenlive:original.out">59</property>
  <property name="kdenlive:original.length">60</property>
  <property name="kdenlive:original.eof">pause</property>
  <property name="kdenlive:original.resource">video/TP/1.mp4</property>
  <property name="kdenlive:original.meta.media.nb_streams">1</property>
  <property name="kdenlive:original.meta.media.0.stream.type">video</property>
  <property name="kdenlive:original.meta.media.0.stream.frame_rate">60</property>
  <property name="kdenlive:original.meta.media.0.stream.sample_aspect_ratio">0</property>
  <property name="kdenlive:original.meta.media.0.codec.width">2160</property>
  <property name="kdenlive:original.meta.media.0.codec.height">3840</property>
  <property name="kdenlive:original.meta.media.0.codec.rotate">0</property>
  <property name="kdenlive:original.meta.media.0.codec.pix_fmt">yuv420p</property>
  <property name="kdenlive:original.meta.media.0.codec.sample_aspect_ratio">0</property>
  <property name="kdenlive:original.meta.media.0.codec.colorspace">709</property>
  <property name="kdenlive:original.meta.media.0.codec.name">h264</property>
  <property name="kdenlive:original.meta.media.0.codec.long_name">H.264 / AVC / MPEG-4 AVC / MPEG-4 part 10</property>
  <property name="kdenlive:original.meta.media.0.codec.bit_rate">3960336</property>
  <property name="kdenlive:original.meta.attr.0.stream.handler_name.markup">VideoHandler</property>
  <property name="kdenlive:original.meta.attr.0.stream.vendor_id.markup">[0][0][0][0]</property>
  <property name="kdenlive:original.meta.attr.0.stream.encoder.markup">Lavc59.37.100 libx264</property>
  <property name="kdenlive:original.meta.attr.major_brand.markup">isom</property>
  <property name="kdenlive:original.meta.attr.minor_version.markup">512</property>
  <property name="kdenlive:original.meta.attr.compatible_brands.markup">isomiso2avc1mp41</property>
  <property name="kdenlive:original.meta.attr.encoder.markup">Lavf59.27.100</property>
  <property name="kdenlive:original.meta.attr.comment.markup">Rendered with Manim Community v0.17.2</property>
  <property name="kdenlive:original.seekable">1</property>
  <property name="kdenlive:original.width">2160</property>
  <property name="kdenlive:original.height">3840</property>
  <property name="kdenlive:original.meta.media.sample_aspect_num">1</property>
  <property name="kdenlive:original.meta.media.sample_aspect_den">1</property>
  <property name="kdenlive:original.aspect_ratio">1</property>
  <property name="kdenlive:original.format">3</property>
  <property name="kdenlive:original.audio_index">-1</property>
  <property name="kdenlive:original.video_index">0</property>
  <property name="kdenlive:original.mute_on_pause">0</property>
  <property name="kdenlive:original.mlt_service">avformat-novalidate</property>
  <property name="kdenlive:original.meta.media.frame_rate_num">60</property>
  <property name="kdenlive:original.meta.media.frame_rate_den">1</property>
  <property name="kdenlive:original.meta.media.colorspace">709</property>
  <property name="kdenlive:original.meta.media.color_trc">2</property>
  <property name="kdenlive:original.meta.media.has_b_frames">2</property>
  <property name="kdenlive:original.meta.media.width">2160</property>
  <property name="kdenlive:original.meta.media.height">3840</property>
  <property name="kdenlive:original.meta.media.color_range">mpeg</property>
  <property name="kdenlive:original.meta.media.top_field_first">0</property>
  <property name="kdenlive:original.meta.media.progressive">1</property>
  <property name="kdenlive:original.kdenlive:clip_type">2</property>
  <property name="kdenlive:original.kdenlive:folderid">20</property>
  <property name="kdenlive:original.kdenlive:id">21</property>
  <property name="kdenlive:original.kdenlive:file_size">496674</property>
  <property name="kdenlive:original.kdenlive:file_hash">10c27a93ec8ae839b8120c738298f9b3</property>
  <property name="kdenlive:original.backup">1</property>
  <property name="kdenlive:file_hash">cf0e2f25d22dd650cb777553026e8d8d</property>
  <property name="xml">was here</property>
  <property name="meta.media.frame_rate_num">60</property>
  <property name="meta.media.frame_rate_den">1</property>
  <property name="meta.media.colorspace">601</property>
  <property name="meta.media.color_trc">2</property>
  <property name="meta.media.has_b_frames">0</property>
  <property name="meta.media.width">640</property>
  <property name="meta.media.height">1138</property>
  <property name="meta.media.color_range">full</property>
  <property name="meta.media.top_field_first">0</property>
  <property name="meta.media.progressive">1</property>
  <property name="set.test_audio">1</property>
  <property name="set.test_image">0</property>
 </producer>
 <producer id="producer288" in="00:00:00.000" out="00:00:00.983">
  <property name="length">60</property>
  <property name="eof">pause</property>
  <property name="resource">/home/xiaoxiae/.cache/kdenlive/proxy/8ffebd691a9ba0acd2ef3c06235f76c0.mkv</property>
  <property name="audio_index">-1</property>
  <property name="video_index">0</property>
  <property name="mute_on_pause">0</property>
  <property name="mlt_service">avformat-novalidate</property>
  <property name="meta.media.nb_streams">1</property>
  <property name="meta.media.0.stream.type">video</property>
  <property name="meta.media.0.stream.frame_rate">60</property>
  <property name="meta.media.0.stream.sample_aspect_ratio">0</property>
  <property name="meta.media.0.codec.width">640</property>
  <property name="meta.media.0.codec.height">1138</property>
  <property name="meta.media.0.codec.rotate">0</property>
  <property name="meta.media.0.codec.pix_fmt">yuvj420p</property>
  <property name="meta.media.0.codec.sample_aspect_ratio">0</property>
  <property name="meta.media.0.codec.colorspace">601</property>
  <property name="meta.media.0.codec.name">mjpeg</property>
  <property name="meta.media.0.codec.long_name">MJPEG (Motion JPEG)</property>
  <property name="meta.media.0.codec.bit_rate">0</property>
  <property name="meta.attr.0.stream.HANDLER_NAME.markup">VideoHandler</property>
  <property name="meta.attr.0.stream.VENDOR_ID.markup">[0][0][0][0]</property>
  <property name="meta.attr.0.stream.ENCODER.markup">Lavc59.37.100 mjpeg</property>
  <property name="meta.attr.0.stream.DURATION.markup">00:00:01.000000000</property>
  <property name="meta.attr.COMMENT.markup">Rendered with Manim Community v0.17.2</property>
  <property name="meta.attr.MAJOR_BRAND.markup">isom</property>
  <property name="meta.attr.MINOR_VERSION.markup">512</property>
  <property name="meta.attr.COMPATIBLE_BRANDS.markup">isomiso2avc1mp41</property>
  <property name="meta.attr.ENCODER.markup">Lavf59.27.100</property>
  <property name="seekable">1</property>
  <property name="meta.media.sample_aspect_num">1</property>
  <property name="meta.media.sample_aspect_den">1</property>
  <property name="aspect_ratio">1</property>
  <property name="format">3</property>
  <property name="kdenlive:clipname">2.mp4</property>
  <property name="kdenlive:clip_type">2</property>
  <property name="kdenlive:folderid">20</property>
  <property name="kdenlive:id">23</property>
  <property name="kdenlive:file_size">514735</property>
  <property name="kdenlive:proxy">/home/xiaoxiae/.cache/kdenlive/proxy/8ffebd691a9ba0acd2ef3c06235f76c0.mkv</property>
  <property name="kdenlive:originalurl">video/TP/2.mp4</property>
  <property name="kdenlive:original.mlt_type">producer</property>
  <property name="kdenlive:original.in">0</property>
  <property name="kdenlive:original.out">59</property>
  <property name="kdenlive:original.length">60</property>
  <property name="kdenlive:original.eof">pause</property>
  <property name="kdenlive:original.resource">video/TP/2.mp4</property>
  <property name="kdenlive:original.meta.media.nb_streams">1</property>
  <property name="kdenlive:original.meta.media.0.stream.type">video</property>
  <property name="kdenlive:original.meta.media.0.stream.frame_rate">60</property>
  <property name="kdenlive:original.meta.media.0.stream.sample_aspect_ratio">0</property>
  <property name="kdenlive:original.meta.media.0.codec.width">2160</property>
  <property name="kdenlive:original.meta.media.0.codec.height">3840</property>
  <property name="kdenlive:original.meta.media.0.codec.rotate">0</property>
  <property name="kdenlive:original.meta.media.0.codec.pix_fmt">yuv420p</property>
  <property name="kdenlive:original.meta.media.0.codec.sample_aspect_ratio">0</property>
  <property name="kdenlive:original.meta.media.0.codec.colorspace">709</property>
  <property name="kdenlive:original.meta.media.0.codec.name">h264</property>
  <property name="kdenlive:original.meta.media.0.codec.long_name">H.264 / AVC / MPEG-4 AVC / MPEG-4 part 10</property>
  <property name="kdenlive:original.meta.media.0.codec.bit_rate">4099552</property>
  <property name="kdenlive:original.meta.attr.0.stream.handler_name.markup">VideoHandler</property>
  <property name="kdenlive:original.meta.attr.0.stream.vendor_id.markup">[0][0][0][0]</property>
  <property name="kdenlive:original.meta.attr.0.stream.encoder.markup">Lavc59.37.100 libx264</property>
  <property name="kdenlive:original.meta.attr.major_brand.markup">isom</property>
  <property name="kdenlive:original.meta.attr.minor_version.markup">512</property>
  <property name="kdenlive:original.meta.attr.compatible_brands.markup">isomiso2avc1mp41</property>
  <property name="kdenlive:original.meta.attr.encoder.markup">Lavf59.27.100</property>
  <property name="kdenlive:original.meta.attr.comment.markup">Rendered with Manim Community v0.17.2</property>
  <property name="kdenlive:original.seekable">1</property>
  <property name="kdenlive:original.width">2160</property>
  <property name="kdenlive:original.height">3840</property>
  <property name="kdenlive:original.meta.media.sample_aspect_num">1</property>
  <property name="kdenlive:original.meta.media.sample_aspect_den">1</property>
  <property name="kdenlive:original.aspect_ratio">1</property>
  <property name="kdenlive:original.format">3</property>
  <property name="kdenlive:original.audio_index">-1</property>
  <property name="kdenlive:original.video_index">0</property>
  <property name="kdenlive:original.mute_on_pause">0</property>
  <property name="kdenlive:original.mlt_service">avformat-novalidate</property>
  <property name="kdenlive:original.meta.media.frame_rate_num">60</property>
  <property name="kdenlive:original.meta.media.frame_rate_den">1</property>
  <property name="kdenlive:original.meta.media.colorspace">709</property>
  <property name="kdenlive:original.meta.media.color_trc">2</property>
  <property name="kdenlive:original.meta.media.has_b_frames">2</property>
  <property name="kdenlive:original.meta.media.width">2160</property>
  <property name="kdenlive:original.meta.media.height">3840</property>
  <property name="kdenlive:original.meta.media.color_range">mpeg</property>
  <property name="kdenlive:original.meta.media.top_field_first">0</property>
  <property name="kdenlive:original.meta.media.progressive">1</property>
  <property name="kdenlive:original.kdenlive:clip_type">2</property>
  <property name="kdenlive:original.kdenlive:folderid">20</property>
  <property name="kdenlive:original.kdenlive:id">22</property>
  <property name="kdenlive:original.kdenlive:file_size">514076</property>
  <property name="kdenlive:original.kdenlive:file_hash">579f36ee9bf98b42fd40a20d927b2a81</property>
  <property name="kdenlive:original.backup">1</property>
  <property name="kdenlive:file_hash">8ffebd691a9ba0acd2ef3c06235f76c0</property>
  <property name="xml">was here</property>
  <property name="meta.media.frame_rate_num">60</property>
  <property name="meta.media.frame_rate_den">1</property>
  <property name="meta.media.colorspace">601</property>
  <property name="meta.media.color_trc">2</property>
  <property name="meta.media.has_b_frames">0</property>
  <property name="meta.media.width">640</property>
  <property name="meta.media.height">1138</property>
  <property name="meta.media.color_range">full</property>
  <property name="meta.media.top_field_first">0</property>
  <property name="meta.media.progressive">1</property>
  <property name="set.test_audio">1</property>
  <property name="set.test_image">0</property>
 </producer>
 <producer id="producer289" in="00:00:00.000" out="00:00:01.850">
  <property name="length">112</property>
  <property name="eof">pause</property>
  <property name="resource">/home/xiaoxiae/.cache/kdenlive/proxy/6fb45c9db765a24191029439687a3425.mkv</property>
  <property name="audio_index">-1</property>
  <property name="video_index">0</property>
  <property name="mute_on_pause">0</property>
  <property name="mlt_service">avformat-novalidate</property>
  <property name="meta.media.nb_streams">1</property>
  <property name="meta.media.0.stream.type">video</property>
  <property name="meta.media.0.stream.frame_rate">60</property>
  <property name="meta.media.0.stream.sample_aspect_ratio">0</property>
  <property name="meta.media.0.codec.width">640</property>
  <property name="meta.media.0.codec.height">1138</property>
  <property name="meta.media.0.codec.rotate">0</property>
  <property name="meta.media.0.codec.pix_fmt">yuvj420p</property>
  <property name="meta.media.0.codec.sample_aspect_ratio">0</property>
  <property name="meta.media.0.codec.colorspace">601</property>
  <property name="meta.media.0.codec.name">mjpeg</property>
  <property name="meta.media.0.codec.long_name">MJPEG (Motion JPEG)</property>
  <property name="meta.media.0.codec.bit_rate">0</property>
  <property name="meta.attr.0.stream.HANDLER_NAME.markup">VideoHandler</property>
  <property name="meta.attr.0.stream.VENDOR_ID.markup">[0][0][0][0]</property>
  <property name="meta.attr.0.stream.ENCODER.markup">Lavc59.37.100 mjpeg</property>
  <property name="meta.attr.0.stream.DURATION.markup">00:00:01.867000000</property>
  <property name="meta.attr.COMMENT.markup">Rendered with Manim Community v0.17.2</property>
  <property name="meta.attr.MAJOR_BRAND.markup">isom</property>
  <property name="meta.attr.MINOR_VERSION.markup">512</property>
  <property name="meta.attr.COMPATIBLE_BRANDS.markup">isomiso2avc1mp41</property>
  <property name="meta.attr.ENCODER.markup">Lavf59.27.100</property>
  <property name="seekable">1</property>
  <property name="meta.media.sample_aspect_num">1</property>
  <property name="meta.media.sample_aspect_den">1</property>
  <property name="aspect_ratio">1</property>
  <property name="format">3</property>
  <property name="kdenlive:clipname">3.mp4</property>
  <property name="kdenlive:clip_type">2</property>
  <property name="kdenlive:folderid">20</property>
  <property name="kdenlive:id">24</property>
  <property name="kdenlive:file_size">935567</property>
  <property name="kdenlive:proxy">/home/xiaoxiae/.cache/kdenlive/proxy/6fb45c9db765a24191029439687a3425.mkv</property>
  <property name="kdenlive:originalurl">video/TP/3.mp4</property>
  <property name="kdenlive:original.mlt_type">producer</property>
  <property name="kdenlive:original.in">0</property>
  <property name="kdenlive:original.out">59</property>
  <property name="kdenlive:original.length">60</property>
  <property name="kdenlive:original.eof">pause</property>
  <property name="kdenlive:original.resource">video/TP/3.mp4</property>
  <property name="kdenlive:original.meta.media.nb_streams">1</property>
  <property name="kdenlive:original.meta.media.0.stream.type">video</property>
  <property name="kdenlive:original.meta.media.0.stream.frame_rate">60</property>
  <property name="kdenlive:original.meta.media.0.stream.sample_aspect_ratio">0</property>
  <property name="kdenlive:original.meta.media.0.codec.width">2160</property>
  <property name="kdenlive:original.meta.media.0.codec.height">3840</property>
  <property name="kdenlive:original.meta.media.0.codec.rotate">0</property>
  <property name="kdenlive:original.meta.media.0.codec.pix_fmt">yuv420p</property>
  <property name="kdenlive:original.meta.media.0.codec.sample_aspect_ratio">0</property>
  <property name="kdenlive:original.meta.media.0.codec.colorspace">709</property>
  <property name="kdenlive:original.meta.media.0.codec.name">h264</property>
  <property name="kdenlive:original.meta.media.0.codec.long_name">H.264 / AVC / MPEG-4 AVC / MPEG-4 part 10</property>
  <property name="kdenlive:original.meta.media.0.codec.bit_rate">4252536</property>
  <property name="kdenlive:original.meta.attr.0.stream.handler_name.markup">VideoHandler</property>
  <property name="kdenlive:original.meta.attr.0.stream.vendor_id.markup">[0][0][0][0]</property>
  <property name="kdenlive:original.meta.attr.0.stream.encoder.markup">Lavc59.37.100 libx264</property>
  <property name="kdenlive:original.meta.attr.major_brand.markup">isom</property>
  <property name="kdenlive:original.meta.attr.minor_version.markup">512</property>
  <property name="kdenlive:original.meta.attr.compatible_brands.markup">isomiso2avc1mp41</property>
  <property name="kdenlive:original.meta.attr.encoder.markup">Lavf59.27.100</property>
  <property name="kdenlive:original.meta.attr.comment.markup">Rendered with Manim Community v0.17.2</property>
  <property name="kdenlive:original.seekable">1</property>
  <property name="kdenlive:original.width">2160</property>
  <property name="kdenlive:original.height">3840</property>
  <property name="kdenlive:original.meta.media.sample_aspect_num">1</property>
  <property name="kdenlive:original.meta.media.sample_aspect_den">1</property>
  <property name="kdenlive:original.aspect_ratio">1</property>
  <property name="kdenlive:original.format">3</property>
  <property name="kdenlive:original.audio_index">-1</property>
  <property name="kdenlive:original.video_index">0</property>
  <property name="kdenlive:original.mute_on_pause">0</property>
  <property name="kdenlive:original.mlt_service">avformat-novalidate</property>
  <property name="kdenlive:original.meta.media.frame_rate_num">60</property>
  <property name="kdenlive:original.meta.media.frame_rate_den">1</property>
  <property name="kdenlive:original.meta.media.colorspace">709</property>
  <property name="kdenlive:original.meta.media.color_trc">2</property>
  <property name="kdenlive:original.meta.media.has_b_frames">2</property>
  <property name="kdenlive:original.meta.media.width">2160</property>
  <property name="kdenlive:original.meta.media.height">3840</property>
  <property name="kdenlive:original.meta.media.color_range">mpeg</property>
  <property name="kdenlive:original.meta.media.top_field_first">0</property>
  <property name="kdenlive:original.meta.media.progressive">1</property>
  <property name="kdenlive:original.kdenlive:clip_type">2</property>
  <property name="kdenlive:original.kdenlive:folderid">20</property>
  <property name="kdenlive:original.kdenlive:id">23</property>
  <property name="kdenlive:original.kdenlive:file_size">533199</property>
  <property name="kdenlive:original.kdenlive:file_hash">53b2b8def3a6a585e84421e046f51da1</property>
  <property name="kdenlive:original.backup">1</property>
  <property name="kdenlive:file_hash">6fb45c9db765a24191029439687a3425</property>
  <property name="xml">was here</property>
  <property name="meta.media.frame_rate_num">60</property>
  <property name="meta.media.frame_rate_den">1</property>
  <property name="meta.media.colorspace">601</property>
  <property name="meta.media.color_trc">2</property>
  <property name="meta.media.has_b_frames">0</property>
  <property name="meta.media.width">640</property>
  <property name="meta.media.height">1138</property>
  <property name="meta.media.color_range">full</property>
  <property name="meta.media.top_field_first">0</property>
  <property name="meta.media.progressive">1</property>
  <property name="set.test_audio">1</property>
  <property name="set.test_image">0</property>
 </producer>
 <producer id="producer290" in="00:00:00.000" out="00:00:00.983">
  <property name="length">60</property>
  <property name="eof">pause</property>
  <property name="resource">/home/xiaoxiae/.cache/kdenlive/proxy/68c5e82431186f0e55304dfa79db850a.mkv</property>
  <property name="audio_index">-1</property>
  <property name="video_index">0</property>
  <property name="mute_on_pause">0</property>
  <property name="mlt_service">avformat-novalidate</property>
  <property name="meta.media.nb_streams">1</property>
  <property name="meta.media.0.stream.type">video</property>
  <property name="meta.media.0.stream.frame_rate">60</property>
  <property name="meta.media.0.stream.sample_aspect_ratio">0</property>
  <property name="meta.media.0.codec.width">640</property>
  <property name="meta.media.0.codec.height">1138</property>
  <property name="meta.media.0.codec.rotate">0</property>
  <property name="meta.media.0.codec.pix_fmt">yuvj420p</property>
  <property name="meta.media.0.codec.sample_aspect_ratio">0</property>
  <property name="meta.media.0.codec.colorspace">601</property>
  <property name="meta.media.0.codec.name">mjpeg</property>
  <property name="meta.media.0.codec.long_name">MJPEG (Motion JPEG)</property>
  <property name="meta.media.0.codec.bit_rate">0</property>
  <property name="meta.attr.0.stream.HANDLER_NAME.markup">VideoHandler</property>
  <property name="meta.attr.0.stream.VENDOR_ID.markup">[0][0][0][0]</property>
  <property name="meta.attr.0.stream.ENCODER.markup">Lavc59.37.100 mjpeg</property>
  <property name="meta.attr.0.stream.DURATION.markup">00:00:01.000000000</property>
  <property name="meta.attr.COMMENT.markup">Rendered with Manim Community v0.17.2</property>
  <property name="meta.attr.MAJOR_BRAND.markup">isom</property>
  <property name="meta.attr.MINOR_VERSION.markup">512</property>
  <property name="meta.attr.COMPATIBLE_BRANDS.markup">isomiso2avc1mp41</property>
  <property name="meta.attr.ENCODER.markup">Lavf59.27.100</property>
  <property name="seekable">1</property>
  <property name="meta.media.sample_aspect_num">1</property>
  <property name="meta.media.sample_aspect_den">1</property>
  <property name="aspect_ratio">1</property>
  <property name="format">3</property>
  <property name="kdenlive:clipname">4.mp4</property>
  <property name="kdenlive:clip_type">2</property>
  <property name="kdenlive:folderid">20</property>
  <property name="kdenlive:id">25</property>
  <property name="kdenlive:file_size">569636</property>
  <property name="kdenlive:proxy">/home/xiaoxiae/.cache/kdenlive/proxy/68c5e82431186f0e55304dfa79db850a.mkv</property>
  <property name="kdenlive:originalurl">video/TP/4.mp4</property>
  <property name="kdenlive:original.mlt_type">producer</property>
  <property name="kdenlive:original.in">0</property>
  <property name="kdenlive:original.out">59</property>
  <property name="kdenlive:original.length">60</property>
  <property name="kdenlive:original.eof">pause</property>
  <property name="kdenlive:original.resource">video/TP/4.mp4</property>
  <property name="kdenlive:original.meta.media.nb_streams">1</property>
  <property name="kdenlive:original.meta.media.0.stream.type">video</property>
  <property name="kdenlive:original.meta.media.0.stream.frame_rate">60</property>
  <property name="kdenlive:original.meta.media.0.stream.sample_aspect_ratio">0</property>
  <property name="kdenlive:original.meta.media.0.codec.width">2160</property>
  <property name="kdenlive:original.meta.media.0.codec.height">3840</property>
  <property name="kdenlive:original.meta.media.0.codec.rotate">0</property>
  <property name="kdenlive:original.meta.media.0.codec.pix_fmt">yuv420p</property>
  <property name="kdenlive:original.meta.media.0.codec.sample_aspect_ratio">0</property>
  <property name="kdenlive:original.meta.media.0.codec.colorspace">709</property>
  <property name="kdenlive:original.meta.media.0.codec.name">h264</property>
  <property name="kdenlive:original.meta.media.0.codec.long_name">H.264 / AVC / MPEG-4 AVC / MPEG-4 part 10</property>
  <property name="kdenlive:original.meta.media.0.codec.bit_rate">4424136</property>
  <property name="kdenlive:original.meta.attr.0.stream.handler_name.markup">VideoHandler</property>
  <property name="kdenlive:original.meta.attr.0.stream.vendor_id.markup">[0][0][0][0]</property>
  <property name="kdenlive:original.meta.attr.0.stream.encoder.markup">Lavc59.37.100 libx264</property>
  <property name="kdenlive:original.meta.attr.major_brand.markup">isom</property>
  <property name="kdenlive:original.meta.attr.minor_version.markup">512</property>
  <property name="kdenlive:original.meta.attr.compatible_brands.markup">isomiso2avc1mp41</property>
  <property name="kdenlive:original.meta.attr.encoder.markup">Lavf59.27.100</property>
  <property name="kdenlive:original.meta.attr.comment.markup">Rendered with Manim Community v0.17.2</property>
  <property name="kdenlive:original.seekable">1</property>
  <property name="kdenlive:original.width">2160</property>
  <property name="kdenlive:original.height">3840</property>
  <property name="kdenlive:original.meta.media.sample_aspect_num">1</property>
  <property name="kdenlive:original.meta.media.sample_aspect_den">1</property>
  <property name="kdenlive:original.aspect_ratio">1</property>
  <property name="kdenlive:original.format">3</property>
  <property name="kdenlive:original.audio_index">-1</property>
  <property name="kdenlive:original.video_index">0</property>
  <property name="kdenlive:original.mute_on_pause">0</property>
  <property name="kdenlive:original.mlt_service">avformat-novalidate</property>
  <property name="kdenlive:original.meta.media.frame_rate_num">60</property>
  <property name="kdenlive:original.meta.media.frame_rate_den">1</property>
  <property name="kdenlive:original.meta.media.colorspace">709</property>
  <property name="kdenlive:original.meta.media.color_trc">2</property>
  <property name="kdenlive:original.meta.media.has_b_frames">2</property>
  <property name="kdenlive:original.meta.media.width">2160</property>
  <property name="kdenlive:original.meta.media.height">3840</property>
  <property name="kdenlive:original.meta.media.color_range">mpeg</property>
  <property name="kdenlive:original.meta.media.top_field_first">0</property>
  <property name="kdenlive:original.meta.media.progressive">1</property>
  <property name="kdenlive:original.kdenlive:clip_type">2</property>
  <property name="kdenlive:original.kdenlive:folderid">20</property>
  <property name="kdenlive:original.kdenlive:id">24</property>
  <property name="kdenlive:original.kdenlive:file_size">554649</property>
  <property name="kdenlive:original.kdenlive:file_hash">6074a5e97bfee849382484b32c3391da</property>
  <property name="kdenlive:original.backup">1</property>
  <property name="kdenlive:file_hash">68c5e82431186f0e55304dfa79db850a</property>
  <property name="xml">was here</property>
  <property name="meta.media.frame_rate_num">60</property>
  <property name="meta.media.frame_rate_den">1</property>
  <property name="meta.media.colorspace">601</property>
  <property name="meta.media.color_trc">2</property>
  <property name="meta.media.has_b_frames">0</property>
  <property name="meta.media.width">640</property>
  <property name="meta.media.height">1138</property>
  <property name="meta.media.color_range">full</property>
  <property name="meta.media.top_field_first">0</property>
  <property name="meta.media.progressive">1</property>
  <property name="set.test_audio">1</property>
  <property name="set.test_image">0</property>
 </producer>
 <producer id="producer291" in="00:00:00.000" out="00:00:02.750">
  <property name="length">166</property>
  <property name="eof">pause</property>
  <property name="resource">/home/xiaoxiae/.cache/kdenlive/proxy/ff46a7f737e441fa7773d42d7219ed3b.mkv</property>
  <property name="audio_index">-1</property>
  <property name="video_index">0</property>
  <property name="mute_on_pause">0</property>
  <property name="mlt_service">avformat-novalidate</property>
  <property name="meta.media.nb_streams">1</property>
  <property name="meta.media.0.stream.type">video</property>
  <property name="meta.media.0.stream.frame_rate">60</property>
  <property name="meta.media.0.stream.sample_aspect_ratio">0</property>
  <property name="meta.media.0.codec.width">640</property>
  <property name="meta.media.0.codec.height">1138</property>
  <property name="meta.media.0.codec.rotate">0</property>
  <property name="meta.media.0.codec.pix_fmt">yuvj420p</property>
  <property name="meta.media.0.codec.sample_aspect_ratio">0</property>
  <property name="meta.media.0.codec.colorspace">601</property>
  <property name="meta.media.0.codec.name">mjpeg</property>
  <property name="meta.media.0.codec.long_name">MJPEG (Motion JPEG)</property>
  <property name="meta.media.0.codec.bit_rate">0</property>
  <property name="meta.attr.0.stream.HANDLER_NAME.markup">VideoHandler</property>
  <property name="meta.attr.0.stream.VENDOR_ID.markup">[0][0][0][0]</property>
  <property name="meta.attr.0.stream.ENCODER.markup">Lavc59.37.100 mjpeg</property>
  <property name="meta.attr.0.stream.DURATION.markup">00:00:02.767000000</property>
  <property name="meta.attr.COMMENT.markup">Rendered with Manim Community v0.17.2</property>
  <property name="meta.attr.MAJOR_BRAND.markup">isom</property>
  <property name="meta.attr.MINOR_VERSION.markup">512</property>
  <property name="meta.attr.COMPATIBLE_BRANDS.markup">isomiso2avc1mp41</property>
  <property name="meta.attr.ENCODER.markup">Lavf59.27.100</property>
  <property name="seekable">1</property>
  <property name="meta.media.sample_aspect_num">1</property>
  <property name="meta.media.sample_aspect_den">1</property>
  <property name="aspect_ratio">1</property>
  <property name="format">3</property>
  <property name="kdenlive:clipname">5.mp4</property>
  <property name="kdenlive:clip_type">2</property>
  <property name="kdenlive:folderid">20</property>
  <property name="kdenlive:id">28</property>
  <property name="kdenlive:file_size">1516175</property>
  <property name="kdenlive:proxy">/home/xiaoxiae/.cache/kdenlive/proxy/ff46a7f737e441fa7773d42d7219ed3b.mkv</property>
  <property name="kdenlive:originalurl">video/TP/5.mp4</property>
  <property name="kdenlive:original.mlt_type">producer</property>
  <property name="kdenlive:original.in">0</property>
  <property name="kdenlive:original.out">59</property>
  <property name="kdenlive:original.length">60</property>
  <property name="kdenlive:original.eof">pause</property>
  <property name="kdenlive:original.resource">video/TP/5.mp4</property>
  <property name="kdenlive:original.meta.media.nb_streams">1</property>
  <property name="kdenlive:original.meta.media.0.stream.type">video</property>
  <property name="kdenlive:original.meta.media.0.stream.frame_rate">60</property>
  <property name="kdenlive:original.meta.media.0.stream.sample_aspect_ratio">0</property>
  <property name="kdenlive:original.meta.media.0.codec.width">2160</property>
  <property name="kdenlive:original.meta.media.0.codec.height">3840</property>
  <property name="kdenlive:original.meta.media.0.codec.rotate">0</property>
  <property name="kdenlive:original.meta.media.0.codec.pix_fmt">yuv420p</property>
  <property name="kdenlive:original.meta.media.0.codec.sample_aspect_ratio">0</property>
  <property name="kdenlive:original.meta.media.0.codec.colorspace">709</property>
  <property name="kdenlive:original.meta.media.0.codec.name">h264</property>
  <property name="kdenlive:original.meta.media.0.codec.long_name">H.264 / AVC / MPEG-4 AVC / MPEG-4 part 10</property>
  <property name="kdenlive:original.meta.media.0.codec.bit_rate">4331936</property>
  <property name="kdenlive:original.meta.attr.0.stream.handler_name.markup">VideoHandler</property>
  <property name="kdenlive:original.meta.attr.0.stream.vendor_id.markup">[0][0][0][0]</property>
  <property name="kdenlive:original.meta.attr.0.stream.encoder.markup">Lavc59.37.100 libx264</property>
  <property name="kdenlive:original.meta.attr.major_brand.markup">isom</property>
  <property name="kdenlive:original.meta.attr.minor_version.markup">512</property>
  <property name="kdenlive:original.meta.attr.compatible_brands.markup">isomiso2avc1mp41</property>
  <property name="kdenlive:original.meta.attr.encoder.markup">Lavf59.27.100</property>
  <property name="kdenlive:original.meta.attr.comment.markup">Rendered with Manim Community v0.17.2</property>
  <property name="kdenlive:original.seekable">1</property>
  <property name="kdenlive:original.width">2160</property>
  <property name="kdenlive:original.height">3840</property>
  <property name="kdenlive:original.meta.media.sample_aspect_num">1</property>
  <property name="kdenlive:original.meta.media.sample_aspect_den">1</property>
  <property name="kdenlive:original.aspect_ratio">1</property>
  <property name="kdenlive:original.format">3</property>
  <property name="kdenlive:original.audio_index">-1</property>
  <property name="kdenlive:original.video_index">0</property>
  <property name="kdenlive:original.mute_on_pause">0</property>
  <property name="kdenlive:original.mlt_service">avformat-novalidate</property>
  <property name="kdenlive:original.meta.media.frame_rate_num">60</property>
  <property name="kdenlive:original.meta.media.frame_rate_den">1</property>
  <property name="kdenlive:original.meta.media.colorspace">709</property>
  <property name="kdenlive:original.meta.media.color_trc">2</property>
  <property name="kdenlive:original.meta.media.has_b_frames">2</property>
  <property name="kdenlive:original.meta.media.width">2160</property>
  <property name="kdenlive:original.meta.media.height">3840</property>
  <property name="kdenlive:original.meta.media.color_range">mpeg</property>
  <property name="kdenlive:original.meta.media.top_field_first">0</property>
  <property name="kdenlive:original.meta.media.progressive">1</property>
  <property name="kdenlive:original.kdenlive:clip_type">2</property>
  <property name="kdenlive:original.kdenlive:folderid">20</property>
  <property name="kdenlive:original.kdenlive:id">25</property>
  <property name="kdenlive:original.kdenlive:file_size">543124</property>
  <property name="kdenlive:original.kdenlive:file_hash">0dbc9ad84fb8aa41da81ec21658b0bce</property>
  <property name="kdenlive:original.backup">1</property>
  <property name="kdenlive:file_hash">ff46a7f737e441fa7773d42d7219ed3b</property>
  <property name="xml">was here</property>
  <property name="meta.media.frame_rate_num">60</property>
  <property name="meta.media.frame_rate_den">1</property>
  <property name="meta.media.colorspace">601</property>
  <property name="meta.media.color_trc">2</property>
  <property name="meta.media.has_b_frames">0</property>
  <property name="meta.media.width">640</property>
  <property name="meta.media.height">1138</property>
  <property name="meta.media.color_range">full</property>
  <property name="meta.media.top_field_first">0</property>
  <property name="meta.media.progressive">1</property>
  <property name="set.test_audio">1</property>
  <property name="set.test_image">0</property>
 </producer>
 <playlist id="playlist8">
  <blank length="00:00:25.617"/>
  <entry producer="producer287" in="00:00:00.000" out="00:00:05.183">
   <property name="kdenlive:id">22</property>
   <filter id="filter19">
    <property name="mlt_service">crop</property>
    <property name="kdenlive_id">crop</property>
    <property name="top">949</property>
    <property name="left">0</property>
    <property name="bottom">0</property>
    <property name="right">0</property>
    <property name="center">0</property>
    <property name="center_bias">0</property>
    <property name="use_profile">1</property>
    <property name="kdenlive:collapsed">0</property>
   </filter>
   <filter id="filter20">
    <property name="rotate_center">1</property>
    <property name="mlt_service">qtblend</property>
    <property name="kdenlive_id">qtblend</property>
    <property name="rect">00:00:00.000=126 1791 1914 3403 1.000000</property>
    <property name="rotation">00:00:00.000=0</property>
    <property name="compositing">0</property>
    <property name="distort">0</property>
    <property name="kdenlive:collapsed">0</property>
   </filter>
   <filter id="filter21" out="00:00:00.483">
    <property name="start">1</property>
    <property name="level">1</property>
    <property name="mlt_service">brightness</property>
    <property name="kdenlive_id">fade_from_black</property>
    <property name="alpha">00:00:00.000=0;00:00:00.483=1</property>
    <property name="kdenlive:collapsed">0</property>
   </filter>
  </entry>
  <entry producer="producer288" in="00:00:00.000" out="00:00:00.983">
   <property name="kdenlive:id">23</property>
   <filter id="filter22">
    <property name="mlt_service">crop</property>
    <property name="kdenlive_id">crop</property>
    <property name="top">949</property>
    <property name="left">0</property>
    <property name="bottom">0</property>
    <property name="right">0</property>
    <property name="center">0</property>
    <property name="center_bias">0</property>
    <property name="use_profile">1</property>
    <property name="kdenlive:collapsed">0</property>
   </filter>
   <filter id="filter23">
    <property name="rotate_center">1</property>
    <property name="mlt_service">qtblend</property>
    <property name="kdenlive_id">qtblend</property>
    <property name="rect">00:00:00.000=126 1791 1914 3403 1.000000</property>
    <property name="rotation">00:00:00.000=0</property>
    <property name="compositing">0</property>
    <property name="distort">0</property>
    <property name="kdenlive:collapsed">0</property>
   </filter>
  </entry>
  <entry producer="producer289" in="00:00:00.000" out="00:00:01.850">
   <property name="kdenlive:id">24</property>
   <filter id="filter24">
    <property name="mlt_service">crop</property>
    <property name="kdenlive_id">crop</property>
    <property name="top">949</property>
    <property name="left">0</property>
    <property name="bottom">0</property>
    <property name="right">0</property>
    <property name="center">0</property>
    <property name="center_bias">0</property>
    <property name="use_profile">1</property>
    <property name="kdenlive:collapsed">0</property>
   </filter>
   <filter id="filter25">
    <property name="rotate_center">1</property>
    <property name="mlt_service">qtblend</property>
    <property name="kdenlive_id">qtblend</property>
    <property name="rect">00:00:00.000=126 1791 1914 3403 1.000000</property>
    <property name="rotation">00:00:00.000=0</property>
    <property name="compositing">0</property>
    <property name="distort">0</property>
    <property name="kdenlive:collapsed">0</property>
   </filter>
  </entry>
  <entry producer="producer290" in="00:00:00.000" out="00:00:00.983">
   <property name="kdenlive:id">25</property>
   <filter id="filter26">
    <property name="mlt_service">crop</property>
    <property name="kdenlive_id">crop</property>
    <property name="top">949</property>
    <property name="left">0</property>
    <property name="bottom">0</property>
    <property name="right">0</property>
    <property name="center">0</property>
    <property name="center_bias">0</property>
    <property name="use_profile">1</property>
    <property name="kdenlive:collapsed">0</property>
   </filter>
   <filter id="filter27">
    <property name="rotate_center">1</property>
    <property name="mlt_service">qtblend</property>
    <property name="kdenlive_id">qtblend</property>
    <property name="rect">00:00:00.000=126 1791 1914 3403 1.000000</property>
    <property name="rotation">00:00:00.000=0</property>
    <property name="compositing">0</property>
    <property name="distort">0</property>
    <property name="kdenlive:collapsed">0</property>
   </filter>
  </entry>
  <entry producer="producer291" in="00:00:00.000" out="00:00:02.750">
   <property name="kdenlive:id">28</property>
   <filter id="filter28">
    <property name="mlt_service">crop</property>
    <property name="kdenlive_id">crop</property>
    <property name="top">949</property>
    <property name="left">0</property>
    <property name="bottom">0</property>
    <property name="right">0</property>
    <property name="center">0</property>
    <property name="center_bias">0</property>
    <property name="use_profile">1</property>
    <property name="kdenlive:collapsed">0</property>
   </filter>
   <filter id="filter29">
    <property name="rotate_center">1</property>
    <property name="mlt_service">qtblend</property>
    <property name="kdenlive_id">qtblend</property>
    <property name="rect">00:00:00.000=126 1791 1914 3403 1.000000</property>
    <property name="rotation">00:00:00.000=0</property>
    <property name="compositing">0</property>
    <property name="distort">0</property>
    <property name="kdenlive:collapsed">0</property>
   </filter>
   <filter id="filter30" in="00:00:01.767" out="00:00:02.767">
    <property name="start">1</property>
    <property name="level">1</property>
    <property name="mlt_service">brightness</property>
    <property name="kdenlive_id">fade_to_black</property>
    <property name="alpha">00:00:00.000=1;00:00:01.000=0</property>
    <property name="kdenlive:collapsed">0</property>
   </filter>
  </entry>
 </playlist>
 <playlist id="playlist9"/>
 <tractor id="tractor4" in="00:00:00.000" out="00:00:37.433">
  <property name="kdenlive:trackheight">67</property>
  <property name="kdenlive:timeline_active">1</property>
  <property name="kdenlive:collapsed">0</property>
  <property name="kdenlive:thumbs_format"/>
  <property name="kdenlive:audio_rec"/>
  <track hide="audio" producer="playlist8"/>
  <track hide="audio" producer="playlist9"/>
 </tractor>
 <tractor id="tractor5" in="00:00:00.000" out="00:09:18.167">
  <track producer="black_track"/>
  <track producer="tractor0"/>
  <track producer="tractor1"/>
  <track producer="tractor2"/>
  <track producer="tractor3"/>
  <track producer="tractor4"/>
  <transition id="transition0">
   <property name="a_track">0</property>
   <property name="b_track">1</property>
   <property name="mlt_service">mix</property>
   <property name="kdenlive_id">mix</property>
   <property name="internal_added">237</property>
   <property name="always_active">1</property>
   <property name="accepts_blanks">1</property>
   <property name="sum">1</property>
  </transition>
  <transition id="transition1">
   <property name="a_track">0</property>
   <property name="b_track">2</property>
   <property name="mlt_service">mix</property>
   <property name="kdenlive_id">mix</property>
   <property name="internal_added">237</property>
   <property name="always_active">1</property>
   <property name="accepts_blanks">1</property>
   <property name="sum">1</property>
  </transition>
  <transition id="transition2">
   <property name="a_track">0</property>
   <property name="b_track">3</property>
   <property name="version">0.1</property>
   <property name="mlt_service">frei0r.cairoblend</property>
   <property name="always_active">1</property>
   <property name="internal_added">237</property>
  </transition>
  <transition id="transition3">
   <property name="a_track">0</property>
   <property name="b_track">4</property>
   <property name="version">0.1</property>
   <property name="mlt_service">frei0r.cairoblend</property>
   <property name="always_active">1</property>
   <property name="internal_added">237</property>
  </transition>
  <transition id="transition4">
   <property name="a_track">0</property>
   <property name="b_track">5</property>
   <property name="version">0.1</property>
   <property name="mlt_service">frei0r.cairoblend</property>
   <property name="always_active">1</property>
   <property name="internal_added">237</property>
  </transition>
  <filter id="filter31">
   <property name="window">75</property>
   <property name="max_gain">20dB</property>
   <property name="mlt_service">volume</property>
   <property name="internal_added">237</property>
   <property name="disable">1</property>
  </filter>
  <filter id="filter32">
   <property name="channel">-1</property>
   <property name="mlt_service">panner</property>
   <property name="internal_added">237</property>
   <property name="start">0.5</property>
   <property name="disable">1</property>
  </filter>
 </tractor>
</mlt>
